ply
format ascii 1.0
element vertex 16
property float x
property float y
property float z
property float nx
property float ny
property float nz
element face 28
property list uchar int vertex_index
end_header
-7.071067810058594 -7.071067810058594 -15 -0.7295944001891504 -0.552565150387733 -0.4029438742425744
-7.071067810058594 -7.071067810058594 15 -0.552565150387733 -0.7295944001891504 0.4029438742425744
-10 0 -15 -0.9885497010032096 0.13649022464361263 -0.06434211080778328
-7.071067810058594 7.071067810058594 -15 -0.5896306681553104 0.7785348359020466 -0.2149864750576077
-10 0 15 -0.9885497010032096 -0.13649022464361263 0.06434211080778328
-7.071067810058594 7.071067810058594 15 -0.7785348359020466 0.5896306681553104 0.2149864750576077
0 -10 -15 -0.11749308551286518 -0.850960194700112 -0.5119200346661713
7.071067810058594 -7.071067810058594 -15 0.5896306681553104 -0.7785348359020466 -0.2149864750576077
0 -10 15 0.11749308551286518 -0.850960194700112 0.5119200346661713
7.071067810058594 -7.071067810058594 15 0.7785348359020466 -0.5896306681553104 0.2149864750576077
0 10 -15 0.11749308551286518 0.850960194700112 -0.5119200346661713
10 0 -15 0.9885497010032096 -0.13649022464361263 -0.06434211080778328
7.071067810058594 7.071067810058594 -15 0.7295944001891504 0.552565150387733 -0.4029438742425744
0 10 15 -0.11749308551286518 0.850960194700112 0.5119200346661713
10 0 15 0.9885497010032096 0.13649022464361263 0.06434211080778328
7.071067810058594 7.071067810058594 15 0.552565150387733 0.7295944001891504 0.4029438742425744
3 4 2 0
3 1 0 6
3 10 6 0
3 1 4 0
3 8 1 6
3 13 1 8
3 3 0 2
3 5 3 2
3 10 0 3
3 13 10 3
3 4 5 2
3 5 4 1
3 13 5 1
3 5 13 3
3 8 6 7
3 12 7 6
3 9 7 11
3 9 8 7
3 15 8 9
3 14 9 11
3 12 6 10
3 15 12 10
3 11 7 12
3 14 11 12
3 15 13 8
3 13 15 10
3 15 14 12
3 14 15 9

