ISO-10303-21;
HEADER;
FILE_DESCRIPTION(('Open CASCADE Model'),'2;1');
FILE_NAME('Open CASCADE Shape Model','1970-01-01T00:00:00',('Author'),(
    'Open CASCADE'),'Open CASCADE STEP processor 8.0','Open CASCADE 8.0'
  ,'Unknown');
FILE_SCHEMA((
'AP242_MANAGED_MODEL_BASED_3D_ENGINEERING_MIM_LF {1 0 10303 442 1 1 4 }'
    ));
ENDSEC;
DATA;
#1 = APPLICATION_PROTOCOL_DEFINITION('international standard',
  'ap242_managed_model_based_3d_engineering',2013,#2);
#2 = APPLICATION_CONTEXT('Managed model based 3d engineering');
#3 = SHAPE_DEFINITION_REPRESENTATION(#4,#10);
#4 = PRODUCT_DEFINITION_SHAPE('','',#5);
#5 = PRODUCT_DEFINITION('design','',#6,#9);
#6 = PRODUCT_DEFINITION_FORMATION('','',#7);
#7 = PRODUCT('Open CASCADE STEP translator 8.0',
  'Open CASCADE STEP translator 8.0','',(#8));
#8 = PRODUCT_CONTEXT('',#2,'mechanical');
#9 = PRODUCT_DEFINITION_CONTEXT('part definition',#2,'design');
#10 = MANIFOLD_SURFACE_SHAPE_REPRESENTATION('',(#11,#15),#100);
#11 = AXIS2_PLACEMENT_3D('',#12,#13,#14);
#12 = CARTESIAN_POINT('',(0.,0.,0.));
#13 = DIRECTION('',(0.,0.,1.));
#14 = DIRECTION('',(1.,0.,-0.));
#15 = SHELL_BASED_SURFACE_MODEL('',(#16));
#16 = OPEN_SHELL('',(#17));
#17 = ADVANCED_FACE('',(#18),#33,.T.);
#18 = FACE_BOUND('',#19,.T.);
#19 = EDGE_LOOP('',(#20,#57,#72,#87));
#20 = ORIENTED_EDGE('',*,*,#21,.T.);
#21 = EDGE_CURVE('',#22,#24,#26,.T.);
#22 = VERTEX_POINT('',#23);
#23 = CARTESIAN_POINT('',(0.,0.,0.));
#24 = VERTEX_POINT('',#25);
#25 = CARTESIAN_POINT('',(20.,0.,0.));
#26 = SURFACE_CURVE('',#27,(#32),.PCURVE_S1.);
#27 = B_SPLINE_CURVE_WITH_KNOTS('',3,(#28,#29,#30,#31),.UNSPECIFIED.,.F.
  ,.F.,(4,4),(0.,1.),.PIECEWISE_BEZIER_KNOTS.);
#28 = CARTESIAN_POINT('',(0.,0.,0.));
#29 = CARTESIAN_POINT('',(8.405456989204,-11.84494021296,0.));
#30 = CARTESIAN_POINT('',(11.189310466253,10.09503973538,0.));
#31 = CARTESIAN_POINT('',(20.,0.,0.));
#32 = PCURVE('',#33,#50);
#33 = B_SPLINE_SURFACE_WITH_KNOTS('',3,3,(
    (#34,#35,#36,#37)
    ,(#38,#39,#40,#41)
    ,(#42,#43,#44,#45)
    ,(#46,#47,#48,#49
    )),.UNSPECIFIED.,.F.,.F.,.F.,(4,4),(4,4),(-11.16790670007,
    11.235127153822),(-7.953469033276,5.049792517051),
  .PIECEWISE_BEZIER_KNOTS.);
#34 = CARTESIAN_POINT('',(-0.791949538159,-4.597810581148,0.));
#35 = CARTESIAN_POINT('',(-1.00336002551,-0.268548886346,0.));
#36 = CARTESIAN_POINT('',(-1.214770512861,4.060712808457,0.));
#37 = CARTESIAN_POINT('',(-1.426181000212,8.389974503259,0.));
#38 = CARTESIAN_POINT('',(6.666840392018,-4.233576093757,0.));
#39 = CARTESIAN_POINT('',(6.455429904667,9.568560104459E-02,0.));
#40 = CARTESIAN_POINT('',(6.244019417316,4.424947295848,0.));
#41 = CARTESIAN_POINT('',(6.032608929964,8.75420899065,0.));
#42 = CARTESIAN_POINT('',(14.125630322194,-3.869341606366,0.));
#43 = CARTESIAN_POINT('',(13.914219834841,0.459920088434,0.));
#44 = CARTESIAN_POINT('',(13.702809347491,4.789181783239,0.));
#45 = CARTESIAN_POINT('',(13.49139886014,9.118443478041,0.));
#46 = CARTESIAN_POINT('',(21.584420252373,-3.505107118972,0.));
#47 = CARTESIAN_POINT('',(21.373009765019,0.824154575826,0.));
#48 = CARTESIAN_POINT('',(21.161599277669,5.15341627063,0.));
#49 = CARTESIAN_POINT('',(20.950188790318,9.482677965432,0.));
#50 = DEFINITIONAL_REPRESENTATION('',(#51),#56);
#51 = B_SPLINE_CURVE_WITH_KNOTS('',3,(#52,#53,#54,#55),.UNSPECIFIED.,.F.
  ,.F.,(4,4),(0.,1.),.PIECEWISE_BEZIER_KNOTS.);
#52 = CARTESIAN_POINT('',(-10.15264245461,-3.399757939784));
#53 = CARTESIAN_POINT('',(-2.334924202206,-15.64057479047));
#54 = CARTESIAN_POINT('',(1.515734037088,6.137510328282));
#55 = CARTESIAN_POINT('',(9.823553569963,-4.375253909927));
#56 = ( GEOMETRIC_REPRESENTATION_CONTEXT(2) 
PARAMETRIC_REPRESENTATION_CONTEXT() REPRESENTATION_CONTEXT('2D SPACE',''
  ) );
#57 = ORIENTED_EDGE('',*,*,#58,.T.);
#58 = EDGE_CURVE('',#24,#59,#61,.T.);
#59 = VERTEX_POINT('',#60);
#60 = CARTESIAN_POINT('',(20.,8.,0.));
#61 = SURFACE_CURVE('',#62,(#66),.PCURVE_S1.);
#62 = LINE('',#63,#64);
#63 = CARTESIAN_POINT('',(20.,0.,0.));
#64 = VECTOR('',#65,1.);
#65 = DIRECTION('',(0.,1.,0.));
#66 = PCURVE('',#33,#67);
#67 = DEFINITIONAL_REPRESENTATION('',(#68),#71);
#68 = B_SPLINE_CURVE_WITH_KNOTS('',1,(#69,#70),.UNSPECIFIED.,.F.,.F.,(2,
    2),(0.,8.),.PIECEWISE_BEZIER_KNOTS.);
#69 = CARTESIAN_POINT('',(9.823553569963,-4.375253909927));
#70 = CARTESIAN_POINT('',(10.21375195802,3.615224499902));
#71 = ( GEOMETRIC_REPRESENTATION_CONTEXT(2) 
PARAMETRIC_REPRESENTATION_CONTEXT() REPRESENTATION_CONTEXT('2D SPACE',''
  ) );
#72 = ORIENTED_EDGE('',*,*,#73,.T.);
#73 = EDGE_CURVE('',#59,#74,#76,.T.);
#74 = VERTEX_POINT('',#75);
#75 = CARTESIAN_POINT('',(0.,8.,0.));
#76 = SURFACE_CURVE('',#77,(#81),.PCURVE_S1.);
#77 = LINE('',#78,#79);
#78 = CARTESIAN_POINT('',(20.,8.,0.));
#79 = VECTOR('',#80,1.);
#80 = DIRECTION('',(-1.,0.,0.));
#81 = PCURVE('',#33,#82);
#82 = DEFINITIONAL_REPRESENTATION('',(#83),#86);
#83 = B_SPLINE_CURVE_WITH_KNOTS('',1,(#84,#85),.UNSPECIFIED.,.F.,.F.,(2,
    2),(0.,20.),.PIECEWISE_BEZIER_KNOTS.);
#84 = CARTESIAN_POINT('',(10.21375195802,3.615224499902));
#85 = CARTESIAN_POINT('',(-9.762444066554,4.590720470046));
#86 = ( GEOMETRIC_REPRESENTATION_CONTEXT(2) 
PARAMETRIC_REPRESENTATION_CONTEXT() REPRESENTATION_CONTEXT('2D SPACE',''
  ) );
#87 = ORIENTED_EDGE('',*,*,#88,.T.);
#88 = EDGE_CURVE('',#74,#22,#89,.T.);
#89 = SURFACE_CURVE('',#90,(#94),.PCURVE_S1.);
#90 = LINE('',#91,#92);
#91 = CARTESIAN_POINT('',(0.,8.,0.));
#92 = VECTOR('',#93,1.);
#93 = DIRECTION('',(0.,-1.,0.));
#94 = PCURVE('',#33,#95);
#95 = DEFINITIONAL_REPRESENTATION('',(#96),#99);
#96 = B_SPLINE_CURVE_WITH_KNOTS('',1,(#97,#98),.UNSPECIFIED.,.F.,.F.,(2,
    2),(0.,8.),.PIECEWISE_BEZIER_KNOTS.);
#97 = CARTESIAN_POINT('',(-9.762444066554,4.590720470046));
#98 = CARTESIAN_POINT('',(-10.15264245461,-3.399757939784));
#99 = ( GEOMETRIC_REPRESENTATION_CONTEXT(2) 
PARAMETRIC_REPRESENTATION_CONTEXT() REPRESENTATION_CONTEXT('2D SPACE',''
  ) );
#100 = ( GEOMETRIC_REPRESENTATION_CONTEXT(3) 
GLOBAL_UNCERTAINTY_ASSIGNED_CONTEXT((#104)) GLOBAL_UNIT_ASSIGNED_CONTEXT
((#101,#102,#103)) REPRESENTATION_CONTEXT('Context #1',
  '3D Context with UNIT and UNCERTAINTY') );
#101 = ( LENGTH_UNIT() NAMED_UNIT(*) SI_UNIT(.MILLI.,.METRE.) );
#102 = ( NAMED_UNIT(*) PLANE_ANGLE_UNIT() SI_UNIT($,.RADIAN.) );
#103 = ( NAMED_UNIT(*) SI_UNIT($,.STERADIAN.) SOLID_ANGLE_UNIT() );
#104 = UNCERTAINTY_MEASURE_WITH_UNIT(LENGTH_MEASURE(1.E-07),#101,
  'distance_accuracy_value','confusion accuracy');
#105 = PRODUCT_RELATED_PRODUCT_CATEGORY('part',$,(#7));
ENDSEC;
END-ISO-10303-21;
