o 
usemtl boolean-intersection-cylinder-cylinder-material
v -7.933533191680908 -6.087614059448242 -6.087614059448242
v -6.087614059448242 -7.933533191680908 -7.933533191680908
v -7.071067810058594 -7.071067810058594 -7.071067810058594
v -9.238795280456543 -3.8268344402313232 -3.8268344402313232
v -9.659257888793945 -2.5881905555725098 -2.5881905555725098
v -8.66025447845459 -5 -5
v -9.914448738098145 -1.3052619695663452 -1.3052619695663452
v -3.8268344402313232 -9.238795280456543 -9.238795280456543
v -5 -8.66025447845459 -8.66025447845459
v -2.5881905555725098 -9.659257888793945 -9.659257888793945
v -1.3052619695663452 -9.914448738098145 -9.914448738098145
v -7.933533191680908 -6.087614059448242 6.087614059448242
v -6.087614059448242 -7.933533191680908 7.933533191680908
v -7.071067810058594 -7.071067810058594 7.071067810058594
v -9.238795280456543 -3.8268344402313232 3.8268344402313232
v -9.659257888793945 -2.5881905555725098 2.5881905555725098
v -9.914448738098145 -1.3052619695663452 1.3052619695663452
v -8.66025447845459 -5 5
v -3.8268344402313232 -9.238795280456543 9.238795280456543
v -5 -8.66025447845459 8.66025447845459
v -2.5881905555725098 -9.659257888793945 9.659257888793945
v -1.3052619695663452 -9.914448738098145 9.914448738098145
v -9.914448738098145 1.3052619695663452 -1.3052619695663452
v -9.659257888793945 2.5881905555725098 -2.5881905555725098
v -9.238795280456543 3.8268344402313232 -3.8268344402313232
v -7.933533191680908 6.087614059448242 -6.087614059448242
v -7.071067810058594 7.071067810058594 -7.071067810058594
v -6.087614059448242 7.933533191680908 -7.933533191680908
v -8.66025447845459 5 -5
v -5 8.66025447845459 -8.66025447845459
v -3.8268344402313232 9.238795280456543 -9.238795280456543
v -2.5881905555725098 9.659257888793945 -9.659257888793945
v -1.3052619695663452 9.914448738098145 -9.914448738098145
v -10 0 0
v -9.914448738098145 1.3052619695663452 1.3052619695663452
v -9.659257888793945 2.5881905555725098 2.5881905555725098
v -9.238795280456543 3.8268344402313232 3.8268344402313232
v -8.66025447845459 5 5
v -7.933533191680908 6.087614059448242 6.087614059448242
v -7.071067810058594 7.071067810058594 7.071067810058594
v -6.087614059448242 7.933533191680908 7.933533191680908
v -5 8.66025447845459 8.66025447845459
v -3.8268344402313232 9.238795280456543 9.238795280456543
v -2.5881905555725098 9.659257888793945 9.659257888793945
v -1.3052619695663452 9.914448738098145 9.914448738098145
v 0 -10 -10
v 1.3052619695663452 -9.914448738098145 -9.914448738098145
v 2.5881905555725098 -9.659257888793945 -9.659257888793945
v 3.8268344402313232 -9.238795280456543 -9.238795280456543
v 5 -8.66025447845459 -8.66025447845459
v 6.087614059448242 -7.933533191680908 -7.933533191680908
v 7.071067810058594 -7.071067810058594 -7.071067810058594
v 7.933533191680908 -6.087614059448242 -6.087614059448242
v 8.66025447845459 -5 -5
v 9.238795280456543 -3.8268344402313232 -3.8268344402313232
v 9.659257888793945 -2.5881905555725098 -2.5881905555725098
v 9.914448738098145 -1.3052619695663452 -1.3052619695663452
v 0 -10 10
v 1.3052619695663452 -9.914448738098145 9.914448738098145
v 2.5881905555725098 -9.659257888793945 9.659257888793945
v 3.8268344402313232 -9.238795280456543 9.238795280456543
v 5 -8.66025447845459 8.66025447845459
v 6.087614059448242 -7.933533191680908 7.933533191680908
v 7.071067810058594 -7.071067810058594 7.071067810058594
v 7.933533191680908 -6.087614059448242 6.087614059448242
v 9.238795280456543 -3.8268344402313232 3.8268344402313232
v 9.659257888793945 -2.5881905555725098 2.5881905555725098
v 9.914448738098145 -1.3052619695663452 1.3052619695663452
v 8.66025447845459 -5 5
v 0 10 -10
v 1.3052619695663452 9.914448738098145 -9.914448738098145
v 2.5881905555725098 9.659257888793945 -9.659257888793945
v 3.8268344402313232 9.238795280456543 -9.238795280456543
v 9.914448738098145 1.3052619695663452 -1.3052619695663452
v 9.659257888793945 2.5881905555725098 -2.5881905555725098
v 9.238795280456543 3.8268344402313232 -3.8268344402313232
v 7.071067810058594 7.071067810058594 -7.071067810058594
v 5 8.66025447845459 -8.66025447845459
v 6.087614059448242 7.933533191680908 -7.933533191680908
v 7.933533191680908 6.087614059448242 -6.087614059448242
v 8.66025447845459 5 -5
v 0 10 10
v 1.3052619695663452 9.914448738098145 9.914448738098145
v 2.5881905555725098 9.659257888793945 9.659257888793945
v 3.8268344402313232 9.238795280456543 9.238795280456543
v 10 0 0
v 9.914448738098145 1.3052619695663452 1.3052619695663452
v 9.659257888793945 2.5881905555725098 2.5881905555725098
v 9.238795280456543 3.8268344402313232 3.8268344402313232
v 7.071067810058594 7.071067810058594 7.071067810058594
v 5 8.66025447845459 8.66025447845459
v 6.087614059448242 7.933533191680908 7.933533191680908
v 7.933533191680908 6.087614059448242 6.087614059448242
v 8.66025447845459 5 5
vn -0.8866879777004081 -0.32694374913856405 -0.32694374913856405
vn -0.7492415180667674 -0.46831460985378515 -0.46831460985378515
vn -0.827021547521029 -0.39751437705819026 -0.39751437705819026
vn -0.9631475954185863 -0.19019294077251567 -0.19019294077251567
vn -0.9842688676162162 -0.12492957264293265 -0.12492957264293265
vn -0.9312369945681227 -0.25767970423350206 -0.25767970423350206
vn -0.9956948575057498 -0.06554292767570234 -0.06554292767570234
vn -0.527396217306154 -0.600771682909223 -0.600771682909223
vn -0.6501985866415028 -0.5372344915999867 -0.5372344915999867
vn -0.3803519977198945 -0.6539619093764123 -0.6539619093764123
vn -0.21221529765776379 -0.6910009650644588 -0.6910009650644588
vn -0.8687232183047544 -0.3502284605104117 0.35022849031273423
vn -0.718850946141661 -0.49155534644190324 0.49155534644190324
vn -0.8033721517409599 -0.42106604945191284 0.42106598984726756
vn -0.9539130916317544 -0.21219073214156656 0.21219073214156656
vn -0.9785073422721282 -0.1458138975974665 0.14581388269630527
vn -0.9932630646733951 -0.08194047948241187 0.08194047948241187
vn -0.9180110588016427 -0.2804065612680565 0.2804065910703786
vn -0.48114436413702527 -0.6198790611317572 0.6198790611317572
vn -0.6121089955916844 -0.5591612368162422 0.5591612368162422
vn -0.3265105981363634 -0.6683527621341271 0.6683527621341271
vn -0.1528454325226442 -0.6987983222839433 0.6987983818885901
vn -0.9932630646733951 0.08194047948241187 -0.08194047948241187
vn -0.9785073465243223 0.14581386842879165 -0.14581388332995296
vn -0.9539130946479211 0.2121907179113287 -0.21219073281248996
vn -0.8687232183047544 0.35022849031273423 -0.3502284605104117
vn -0.8033721517409599 0.42106598984726756 -0.42106604945191284
vn -0.718850946141661 0.49155534644190324 -0.49155534644190324
vn -0.9180110588016427 0.2804065910703786 -0.2804065612680565
vn -0.6121089955916844 0.5591612368162422 -0.5591612368162422
vn -0.4811443870401123 0.6198790522431753 -0.6198790522431753
vn -0.3265105715112423 0.6683527686377164 -0.6683527686377164
vn -0.1528454325226442 0.6987983818885901 -0.6987983222839433
vn -1 3.7663533403176075e-10 3.7663533403176075e-10
vn -0.9956948575057498 0.06554292767570234 0.06554292767570234
vn -0.9842688712808374 0.12492955820690774 0.12492955820690774
vn -0.963147600877891 0.1901929269494041 0.1901929269494041
vn -0.9312369945681227 0.25767970423350206 0.25767970423350206
vn -0.8866879476786477 0.32694378984882705 0.32694378984882705
vn -0.827021547521029 0.39751437705819026 0.39751437705819026
vn -0.7492414710078317 0.46831464749782303 0.46831464749782303
vn -0.6501985105943177 0.537234537618781 0.537234537618781
vn -0.527396217306154 0.600771682909223 0.600771682909223
vn -0.3803519722290028 0.6539619167893141 0.6539619167893141
vn -0.21221529765776379 0.6910009650644588 0.6910009650644588
vn -0.03070622895343764 -0.7067733468034356 -0.7067733468034356
vn 0.15284542615638338 -0.6987983527825011 -0.6987983527825011
vn 0.3265105715112423 -0.6683527686377164 -0.6683527686377164
vn 0.4811443870401123 -0.6198790522431753 -0.6198790522431753
vn 0.6121089955916844 -0.5591612368162422 -0.5591612368162422
vn 0.718850946141661 -0.49155534644190324 -0.49155534644190324
vn 0.8033721517409605 -0.42106601964959056 -0.42106601964959056
vn 0.8687231911025405 -0.35022850914839804 -0.35022850914839804
vn 0.9180110511300383 -0.28040658872708607 -0.28040658872708607
vn 0.9539130916317544 -0.21219073214156656 -0.21219073214156656
vn 0.978507348650419 -0.14581386874561544 -0.14581386874561544
vn 0.9932630646733951 -0.08194047948241187 -0.08194047948241187
vn 0.030706227092548707 -0.7067733468438594 0.7067733468438594
vn 0.21221529765776379 -0.6910009650644588 0.6910009650644588
vn 0.3803519574031992 -0.6539618912984225 0.6539619509030667
vn 0.527396217306154 -0.600771682909223 0.600771682909223
vn 0.6501985658210571 -0.5372345340014838 0.5372344743968402
vn 0.7492415180667674 -0.46831460985378515 0.46831460985378515
vn 0.827021527925825 -0.39751436763960213 0.3975144272442461
vn 0.8866879863400142 -0.32694375232420014 0.32694372252187803
vn 0.9631475954185863 -0.19019294077251567 0.19019294077251567
vn 0.9842688676162162 -0.12492957264293265 0.12492957264293265
vn 0.9956948575057498 -0.06554292767570234 0.06554292767570234
vn 0.9312369945681227 -0.25767970423350206 0.25767970423350206
vn 0.030706227092548707 0.7067733468438594 -0.7067733468438594
vn 0.21221529765776379 0.6910009650644588 -0.6910009650644588
vn 0.38035193191230743 0.6539619583159683 -0.6539618987113234
vn 0.527396217306154 0.600771682909223 -0.600771682909223
vn 0.9956948575057498 0.06554292767570234 -0.06554292767570234
vn 0.9842688676162162 0.12492957264293265 -0.12492957264293265
vn 0.9631475954185863 0.19019294077251567 -0.19019294077251567
vn 0.827021527925825 0.3975144272442461 -0.39751436763960213
vn 0.6501985658210571 0.5372344743968402 -0.5372345340014838
vn 0.7492415180667674 0.46831460985378515 -0.46831460985378515
vn 0.8866879863400142 0.32694372252187803 -0.32694375232420014
vn 0.9312369945681227 0.25767970423350206 -0.25767970423350206
vn -0.03070622895343764 0.7067733468034356 0.7067733468034356
vn 0.15284544070942757 0.6987983511909358 0.6987983511909358
vn 0.3265105981363634 0.6683527621341271 0.6683527621341271
vn 0.4811443870401123 0.6198790522431753 0.6198790522431753
vn 1 3.7663533403176075e-10 3.7663533403176075e-10
vn 0.9932630646733951 0.08194047948241187 0.08194047948241187
vn 0.978507348650419 0.14581386874561544 0.14581386874561544
vn 0.9539130855994209 0.21219074570088078 0.21219074570088078
vn 0.8033721517409605 0.42106601964959056 0.42106601964959056
vn 0.6121089955916844 0.5591612368162422 0.5591612368162422
vn 0.718850946141661 0.49155534644190324 0.49155534644190324
vn 0.8687232092373499 0.3502284866571817 0.3502284866571817
vn 0.9180110664732474 0.28040656361134886 0.28040656361134886
f 12//12 1//1 3//3
f 18//18 6//6 1//1
f 13//13 2//2 9//9
f 14//14 3//3 2//2
f 4//4 6//6 15//15
f 16//16 5//5 4//4
f 17//17 7//7 5//5
f 20//20 9//9 8//8
f 19//19 8//8 10//10
f 21//21 10//10 11//11
f 11//11 46//46 22//22
f 1//1 12//12 18//18
f 2//2 13//13 14//14
f 9//9 20//20 13//13
f 3//3 14//14 12//12
f 6//6 18//18 15//15
f 4//4 15//15 16//16
f 5//5 16//16 17//17
f 7//7 17//17 34//34
f 8//8 19//19 20//20
f 10//10 21//21 19//19
f 11//11 22//22 21//21
f 46//46 58//58 22//22
f 36//36 24//24 23//23
f 37//37 25//25 24//24
f 38//38 29//29 25//25
f 39//39 26//26 29//29
f 40//40 27//27 26//26
f 42//42 30//30 28//28
f 41//41 28//28 27//27
f 43//43 31//31 30//30
f 44//44 32//32 31//31
f 45//45 33//33 32//32
f 82//82 70//70 33//33
f 35//35 23//23 34//34
f 23//23 35//35 36//36
f 24//24 36//36 37//37
f 25//25 37//37 38//38
f 29//29 38//38 39//39
f 26//26 39//39 40//40
f 27//27 40//40 41//41
f 28//28 41//41 42//42
f 30//30 42//42 43//43
f 31//31 43//43 44//44
f 32//32 44//44 45//45
f 33//33 45//45 82//82
f 58//58 46//46 47//47
f 59//59 47//47 48//48
f 60//60 48//48 49//49
f 61//61 49//49 50//50
f 62//62 50//50 51//51
f 63//63 51//51 52//52
f 64//64 52//52 53//53
f 65//65 53//53 54//54
f 69//69 54//54 55//55
f 66//66 55//55 56//56
f 67//67 56//56 57//57
f 47//47 59//59 58//58
f 48//48 60//60 59//59
f 49//49 61//61 60//60
f 50//50 62//62 61//61
f 51//51 63//63 62//62
f 52//52 64//64 63//63
f 53//53 65//65 64//64
f 54//54 69//69 65//65
f 55//55 66//66 69//69
f 56//56 67//67 66//66
f 57//57 68//68 67//67
f 68//68 57//57 86//86
f 83//83 71//71 70//70
f 84//84 72//72 71//71
f 85//85 73//73 72//72
f 91//91 78//78 73//73
f 87//87 74//74 75//75
f 88//88 75//75 76//76
f 76//76 81//81 89//89
f 90//90 77//77 79//79
f 92//92 79//79 78//78
f 94//94 81//81 80//80
f 93//93 80//80 77//77
f 70//70 82//82 83//83
f 71//71 83//83 84//84
f 72//72 84//84 85//85
f 73//73 85//85 91//91
f 74//74 87//87 86//86
f 75//75 88//88 87//87
f 76//76 89//89 88//88
f 81//81 94//94 89//89
f 77//77 90//90 93//93
f 79//79 92//92 90//90
f 78//78 91//91 92//92
f 80//80 93//93 94//94
f 26//26 3//3 1//1
f 29//29 1//1 6//6
f 28//28 9//9 2//2
f 27//27 2//2 3//3
f 25//25 6//6 4//4
f 24//24 4//4 5//5
f 23//23 5//5 7//7
f 30//30 8//8 9//9
f 31//31 10//10 8//8
f 32//32 11//11 10//10
f 33//33 46//46 11//11
f 36//36 17//17 16//16
f 38//38 15//15 18//18
f 37//37 16//16 15//15
f 39//39 18//18 12//12
f 13//13 20//20 42//42
f 40//40 12//12 14//14
f 14//14 13//13 41//41
f 20//20 19//19 43//43
f 19//19 21//21 44//44
f 21//21 22//22 45//45
f 82//82 22//22 58//58
f 1//1 29//29 26//26
f 2//2 27//27 28//28
f 3//3 26//26 27//27
f 9//9 28//28 30//30
f 4//4 24//24 25//25
f 6//6 25//25 29//29
f 5//5 23//23 24//24
f 34//34 23//23 7//7
f 8//8 30//30 31//31
f 10//10 31//31 32//32
f 11//11 32//32 33//33
f 46//46 33//33 70//70
f 34//34 17//17 35//35
f 17//17 36//36 35//35
f 16//16 37//37 36//36
f 15//15 38//38 37//37
f 18//18 39//39 38//38
f 12//12 40//40 39//39
f 14//14 41//41 40//40
f 13//13 42//42 41//41
f 20//20 43//43 42//42
f 19//19 44//44 43//43
f 21//21 45//45 44//44
f 22//22 82//82 45//45
f 70//70 47//47 46//46
f 48//48 47//47 71//71
f 49//49 48//48 72//72
f 50//50 49//49 73//73
f 51//51 50//50 78//78
f 52//52 51//51 79//79
f 77//77 53//53 52//52
f 80//80 54//54 53//53
f 81//81 55//55 54//54
f 76//76 56//56 55//55
f 75//75 57//57 56//56
f 83//83 58//58 59//59
f 84//84 59//59 60//60
f 85//85 60//60 61//61
f 91//91 61//61 62//62
f 87//87 67//67 68//68
f 88//88 66//66 67//67
f 89//89 69//69 66//66
f 90//90 63//63 64//64
f 92//92 62//62 63//63
f 94//94 65//65 69//69
f 93//93 64//64 65//65
f 47//47 70//70 71//71
f 48//48 71//71 72//72
f 49//49 72//72 73//73
f 50//50 73//73 78//78
f 51//51 78//78 79//79
f 52//52 79//79 77//77
f 53//53 77//77 80//80
f 54//54 80//80 81//81
f 55//55 81//81 76//76
f 56//56 76//76 75//75
f 57//57 75//75 74//74
f 57//57 74//74 86//86
f 58//58 83//83 82//82
f 59//59 84//84 83//83
f 60//60 85//85 84//84
f 61//61 91//91 85//85
f 86//86 87//87 68//68
f 67//67 87//87 88//88
f 66//66 88//88 89//89
f 69//69 89//89 94//94
f 64//64 93//93 90//90
f 63//63 90//90 92//92
f 62//62 92//92 91//91
f 65//65 94//94 93//93
