solid exported
	facet normal -0.7518399628982777 -0.6593456378782806 0
		outer loop
			vertex -7.933533191680908 -6.087614059448242 20
			vertex -7.933533191680908 -6.087614059448242 -20
			vertex -7.071067810058594 -7.071067810058594 -20
		endloop
	endfacet
	facet normal -0.8314693276829074 -0.5555706589827561 0
		outer loop
			vertex -8.66025447845459 -5 20
			vertex -8.66025447845459 -5 -20
			vertex -7.933533191680908 -6.087614059448242 -20
		endloop
	endfacet
	facet normal -0.5555706589827561 -0.8314693276829074 0
		outer loop
			vertex -6.087614059448242 -7.933533191680908 20
			vertex -6.087614059448242 -7.933533191680908 -20
			vertex -5 -8.66025447845459 -20
		endloop
	endfacet
	facet normal -0.6593456378782806 -0.7518399628982777 0
		outer loop
			vertex -7.071067810058594 -7.071067810058594 20
			vertex -7.071067810058594 -7.071067810058594 -20
			vertex -6.087614059448242 -7.933533191680908 -20
		endloop
	endfacet
	facet normal 0 0 -1
		outer loop
			vertex -8.66025447845459 5 -20
			vertex -8.66025447845459 -5 -20
			vertex -9.238795280456543 -3.8268344402313232 -20
		endloop
	endfacet
	facet normal 0 0 -1
		outer loop
			vertex -9.238795280456543 3.8268344402313232 -20
			vertex -9.238795280456543 -3.8268344402313232 -20
			vertex -9.659257888793945 -2.5881905555725098 -20
		endloop
	endfacet
	facet normal 0 0 -1
		outer loop
			vertex -9.659257888793945 2.5881905555725098 -20
			vertex -9.659257888793945 -2.5881905555725098 -20
			vertex -9.914448738098145 -1.3052619695663452 -20
		endloop
	endfacet
	facet normal 0 0 -1
		outer loop
			vertex -7.933533191680908 6.087614059448242 -20
			vertex -7.933533191680908 -6.087614059448242 -20
			vertex -8.66025447845459 -5 -20
		endloop
	endfacet
	facet normal 0 0 -1
		outer loop
			vertex -5 8.66025447845459 -20
			vertex -5 -8.66025447845459 -20
			vertex -6.087614059448242 -7.933533191680908 -20
		endloop
	endfacet
	facet normal 0 0 -1
		outer loop
			vertex -7.071067810058594 7.071067810058594 -20
			vertex -7.071067810058594 -7.071067810058594 -20
			vertex -7.933533191680908 -6.087614059448242 -20
		endloop
	endfacet
	facet normal 0 0 -1
		outer loop
			vertex -6.087614059448242 7.933533191680908 -20
			vertex -6.087614059448242 -7.933533191680908 -20
			vertex -7.071067810058594 -7.071067810058594 -20
		endloop
	endfacet
	facet normal -0.896872871257767 -0.4422884271624668 0
		outer loop
			vertex -9.238795280456543 -3.8268344402313232 20
			vertex -9.238795280456543 -3.8268344402313232 -20
			vertex -8.66025447845459 -5 -20
		endloop
	endfacet
	facet normal -0.9469302071049871 -0.3214392366717333 0
		outer loop
			vertex -9.659257888793945 -2.5881905555725098 20
			vertex -9.659257888793945 -2.5881905555725098 -20
			vertex -9.238795280456543 -3.8268344402313232 -20
		endloop
	endfacet
	facet normal -0.9807852091533448 -0.19509068021315107 0
		outer loop
			vertex -9.914448738098145 -1.3052619695663452 20
			vertex -9.914448738098145 -1.3052619695663452 -20
			vertex -9.659257888793945 -2.5881905555725098 -20
		endloop
	endfacet
	facet normal -0.9978589295981811 -0.06540303220166714 0
		outer loop
			vertex -10 0 20
			vertex -10 0 -20
			vertex -9.914448738098145 -1.3052619695663452 -20
		endloop
	endfacet
	facet normal -0.4422884271624668 -0.896872871257767 0
		outer loop
			vertex -5 -8.66025447845459 20
			vertex -5 -8.66025447845459 -20
			vertex -3.8268344402313232 -9.238795280456543 -20
		endloop
	endfacet
	facet normal -0.3214392366717333 -0.9469302071049871 0
		outer loop
			vertex -3.8268344402313232 -9.238795280456543 20
			vertex -3.8268344402313232 -9.238795280456543 -20
			vertex -2.5881905555725098 -9.659257888793945 -20
		endloop
	endfacet
	facet normal -0.19509068021315107 -0.9807852091533448 0
		outer loop
			vertex -2.5881905555725098 -9.659257888793945 20
			vertex -2.5881905555725098 -9.659257888793945 -20
			vertex -1.3052619695663452 -9.914448738098145 -20
		endloop
	endfacet
	facet normal -0.06540303220166714 -0.9978589295981811 0
		outer loop
			vertex -1.3052619695663452 -9.914448738098145 20
			vertex -1.3052619695663452 -9.914448738098145 -20
			vertex 0 -10 -20
		endloop
	endfacet
	facet normal 0 0 -1
		outer loop
			vertex -3.8268344402313232 9.238795280456543 -20
			vertex -3.8268344402313232 -9.238795280456543 -20
			vertex -5 -8.66025447845459 -20
		endloop
	endfacet
	facet normal 0 0 -1
		outer loop
			vertex -2.5881905555725098 9.659257888793945 -20
			vertex -2.5881905555725098 -9.659257888793945 -20
			vertex -3.8268344402313232 -9.238795280456543 -20
		endloop
	endfacet
	facet normal 0 0 -1
		outer loop
			vertex -1.3052619695663452 9.914448738098145 -20
			vertex -1.3052619695663452 -9.914448738098145 -20
			vertex -2.5881905555725098 -9.659257888793945 -20
		endloop
	endfacet
	facet normal 0 0 -1
		outer loop
			vertex 0 10 -20
			vertex 0 -10 -20
			vertex -1.3052619695663452 -9.914448738098145 -20
		endloop
	endfacet
	facet normal -0.8314693276829074 -0.5555706589827561 0
		outer loop
			vertex -7.933533191680908 -6.087614059448242 20
			vertex -8.66025447845459 -5 20
			vertex -7.933533191680908 -6.087614059448242 -20
		endloop
	endfacet
	facet normal -0.6593456378782806 -0.7518399628982777 0
		outer loop
			vertex -6.087614059448242 -7.933533191680908 20
			vertex -7.071067810058594 -7.071067810058594 20
			vertex -6.087614059448242 -7.933533191680908 -20
		endloop
	endfacet
	facet normal -0.5555706589827561 -0.8314693276829074 0
		outer loop
			vertex -5 -8.66025447845459 20
			vertex -6.087614059448242 -7.933533191680908 20
			vertex -5 -8.66025447845459 -20
		endloop
	endfacet
	facet normal -0.7518399628982777 -0.6593456378782806 0
		outer loop
			vertex -7.071067810058594 -7.071067810058594 20
			vertex -7.933533191680908 -6.087614059448242 20
			vertex -7.071067810058594 -7.071067810058594 -20
		endloop
	endfacet
	facet normal -0.896872871257767 -0.4422884271624668 0
		outer loop
			vertex -8.66025447845459 -5 20
			vertex -9.238795280456543 -3.8268344402313232 20
			vertex -8.66025447845459 -5 -20
		endloop
	endfacet
	facet normal -0.9469302071049871 -0.3214392366717333 0
		outer loop
			vertex -9.238795280456543 -3.8268344402313232 20
			vertex -9.659257888793945 -2.5881905555725098 20
			vertex -9.238795280456543 -3.8268344402313232 -20
		endloop
	endfacet
	facet normal -0.9807852091533448 -0.19509068021315107 0
		outer loop
			vertex -9.659257888793945 -2.5881905555725098 20
			vertex -9.914448738098145 -1.3052619695663452 20
			vertex -9.659257888793945 -2.5881905555725098 -20
		endloop
	endfacet
	facet normal -0.9978589295981811 -0.06540303220166714 0
		outer loop
			vertex -9.914448738098145 -1.3052619695663452 20
			vertex -10 0 20
			vertex -9.914448738098145 -1.3052619695663452 -20
		endloop
	endfacet
	facet normal 0 0 1
		outer loop
			vertex -8.66025447845459 5 20
			vertex -9.238795280456543 -3.8268344402313232 20
			vertex -8.66025447845459 -5 20
		endloop
	endfacet
	facet normal 0 0 1
		outer loop
			vertex -9.238795280456543 3.8268344402313232 20
			vertex -9.659257888793945 -2.5881905555725098 20
			vertex -9.238795280456543 -3.8268344402313232 20
		endloop
	endfacet
	facet normal 0 0 1
		outer loop
			vertex -9.659257888793945 2.5881905555725098 20
			vertex -9.914448738098145 -1.3052619695663452 20
			vertex -9.659257888793945 -2.5881905555725098 20
		endloop
	endfacet
	facet normal 0 0 1
		outer loop
			vertex -7.933533191680908 6.087614059448242 20
			vertex -8.66025447845459 -5 20
			vertex -7.933533191680908 -6.087614059448242 20
		endloop
	endfacet
	facet normal 0 0 1
		outer loop
			vertex -5 8.66025447845459 20
			vertex -6.087614059448242 -7.933533191680908 20
			vertex -5 -8.66025447845459 20
		endloop
	endfacet
	facet normal 0 0 1
		outer loop
			vertex -7.071067810058594 7.071067810058594 20
			vertex -7.933533191680908 -6.087614059448242 20
			vertex -7.071067810058594 -7.071067810058594 20
		endloop
	endfacet
	facet normal 0 0 1
		outer loop
			vertex -6.087614059448242 7.933533191680908 20
			vertex -7.071067810058594 -7.071067810058594 20
			vertex -6.087614059448242 -7.933533191680908 20
		endloop
	endfacet
	facet normal -0.4422884271624668 -0.896872871257767 0
		outer loop
			vertex -3.8268344402313232 -9.238795280456543 20
			vertex -5 -8.66025447845459 20
			vertex -3.8268344402313232 -9.238795280456543 -20
		endloop
	endfacet
	facet normal -0.3214392366717333 -0.9469302071049871 0
		outer loop
			vertex -2.5881905555725098 -9.659257888793945 20
			vertex -3.8268344402313232 -9.238795280456543 20
			vertex -2.5881905555725098 -9.659257888793945 -20
		endloop
	endfacet
	facet normal -0.19509068021315107 -0.9807852091533448 0
		outer loop
			vertex -1.3052619695663452 -9.914448738098145 20
			vertex -2.5881905555725098 -9.659257888793945 20
			vertex -1.3052619695663452 -9.914448738098145 -20
		endloop
	endfacet
	facet normal -0.06540303220166714 -0.9978589295981811 0
		outer loop
			vertex 0 -10 20
			vertex -1.3052619695663452 -9.914448738098145 20
			vertex 0 -10 -20
		endloop
	endfacet
	facet normal 0 0 1
		outer loop
			vertex -3.8268344402313232 9.238795280456543 20
			vertex -5 -8.66025447845459 20
			vertex -3.8268344402313232 -9.238795280456543 20
		endloop
	endfacet
	facet normal 0 0 1
		outer loop
			vertex -2.5881905555725098 9.659257888793945 20
			vertex -3.8268344402313232 -9.238795280456543 20
			vertex -2.5881905555725098 -9.659257888793945 20
		endloop
	endfacet
	facet normal 0 0 1
		outer loop
			vertex -1.3052619695663452 9.914448738098145 20
			vertex -2.5881905555725098 -9.659257888793945 20
			vertex -1.3052619695663452 -9.914448738098145 20
		endloop
	endfacet
	facet normal 0 0 1
		outer loop
			vertex 0 10 20
			vertex -1.3052619695663452 -9.914448738098145 20
			vertex 0 -10 20
		endloop
	endfacet
	facet normal 0 0 -1
		outer loop
			vertex -9.914448738098145 1.3052619695663452 -20
			vertex -9.914448738098145 -1.3052619695663452 -20
			vertex -10 0 -20
		endloop
	endfacet
	facet normal 0 0 -1
		outer loop
			vertex -9.659257888793945 2.5881905555725098 -20
			vertex -9.914448738098145 -1.3052619695663452 -20
			vertex -9.914448738098145 1.3052619695663452 -20
		endloop
	endfacet
	facet normal 0 0 -1
		outer loop
			vertex -9.238795280456543 3.8268344402313232 -20
			vertex -9.659257888793945 -2.5881905555725098 -20
			vertex -9.659257888793945 2.5881905555725098 -20
		endloop
	endfacet
	facet normal 0 0 -1
		outer loop
			vertex -8.66025447845459 5 -20
			vertex -9.238795280456543 -3.8268344402313232 -20
			vertex -9.238795280456543 3.8268344402313232 -20
		endloop
	endfacet
	facet normal 0 0 -1
		outer loop
			vertex -7.933533191680908 6.087614059448242 -20
			vertex -8.66025447845459 -5 -20
			vertex -8.66025447845459 5 -20
		endloop
	endfacet
	facet normal 0 0 -1
		outer loop
			vertex -7.071067810058594 7.071067810058594 -20
			vertex -7.933533191680908 -6.087614059448242 -20
			vertex -7.933533191680908 6.087614059448242 -20
		endloop
	endfacet
	facet normal 0 0 -1
		outer loop
			vertex -6.087614059448242 7.933533191680908 -20
			vertex -7.071067810058594 -7.071067810058594 -20
			vertex -7.071067810058594 7.071067810058594 -20
		endloop
	endfacet
	facet normal 0 0 -1
		outer loop
			vertex -5 8.66025447845459 -20
			vertex -6.087614059448242 -7.933533191680908 -20
			vertex -6.087614059448242 7.933533191680908 -20
		endloop
	endfacet
	facet normal -0.9978589295981811 0.06540303220166714 0
		outer loop
			vertex -9.914448738098145 1.3052619695663452 20
			vertex -9.914448738098145 1.3052619695663452 -20
			vertex -10 0 -20
		endloop
	endfacet
	facet normal -0.9807852091533448 0.19509068021315107 0
		outer loop
			vertex -9.659257888793945 2.5881905555725098 20
			vertex -9.659257888793945 2.5881905555725098 -20
			vertex -9.914448738098145 1.3052619695663452 -20
		endloop
	endfacet
	facet normal -0.9469302071049871 0.3214392366717333 0
		outer loop
			vertex -9.238795280456543 3.8268344402313232 20
			vertex -9.238795280456543 3.8268344402313232 -20
			vertex -9.659257888793945 2.5881905555725098 -20
		endloop
	endfacet
	facet normal -0.896872871257767 0.4422884271624668 0
		outer loop
			vertex -8.66025447845459 5 20
			vertex -8.66025447845459 5 -20
			vertex -9.238795280456543 3.8268344402313232 -20
		endloop
	endfacet
	facet normal -0.8314693276829074 0.5555706589827561 0
		outer loop
			vertex -7.933533191680908 6.087614059448242 20
			vertex -7.933533191680908 6.087614059448242 -20
			vertex -8.66025447845459 5 -20
		endloop
	endfacet
	facet normal -0.7518399628982777 0.6593456378782806 0
		outer loop
			vertex -7.071067810058594 7.071067810058594 20
			vertex -7.071067810058594 7.071067810058594 -20
			vertex -7.933533191680908 6.087614059448242 -20
		endloop
	endfacet
	facet normal -0.6593456378782806 0.7518399628982777 0
		outer loop
			vertex -6.087614059448242 7.933533191680908 20
			vertex -6.087614059448242 7.933533191680908 -20
			vertex -7.071067810058594 7.071067810058594 -20
		endloop
	endfacet
	facet normal -0.5555706589827561 0.8314693276829074 0
		outer loop
			vertex -5 8.66025447845459 20
			vertex -5 8.66025447845459 -20
			vertex -6.087614059448242 7.933533191680908 -20
		endloop
	endfacet
	facet normal 0 0 -1
		outer loop
			vertex -3.8268344402313232 9.238795280456543 -20
			vertex -5 -8.66025447845459 -20
			vertex -5 8.66025447845459 -20
		endloop
	endfacet
	facet normal 0 0 -1
		outer loop
			vertex -2.5881905555725098 9.659257888793945 -20
			vertex -3.8268344402313232 -9.238795280456543 -20
			vertex -3.8268344402313232 9.238795280456543 -20
		endloop
	endfacet
	facet normal 0 0 -1
		outer loop
			vertex -1.3052619695663452 9.914448738098145 -20
			vertex -2.5881905555725098 -9.659257888793945 -20
			vertex -2.5881905555725098 9.659257888793945 -20
		endloop
	endfacet
	facet normal 0 0 -1
		outer loop
			vertex 0 10 -20
			vertex -1.3052619695663452 -9.914448738098145 -20
			vertex -1.3052619695663452 9.914448738098145 -20
		endloop
	endfacet
	facet normal -0.4422884271624668 0.896872871257767 0
		outer loop
			vertex -3.8268344402313232 9.238795280456543 20
			vertex -3.8268344402313232 9.238795280456543 -20
			vertex -5 8.66025447845459 -20
		endloop
	endfacet
	facet normal -0.3214392366717333 0.9469302071049871 0
		outer loop
			vertex -2.5881905555725098 9.659257888793945 20
			vertex -2.5881905555725098 9.659257888793945 -20
			vertex -3.8268344402313232 9.238795280456543 -20
		endloop
	endfacet
	facet normal -0.19509068021315107 0.9807852091533448 0
		outer loop
			vertex -1.3052619695663452 9.914448738098145 20
			vertex -1.3052619695663452 9.914448738098145 -20
			vertex -2.5881905555725098 9.659257888793945 -20
		endloop
	endfacet
	facet normal -0.06540303220166714 0.9978589295981811 0
		outer loop
			vertex 0 10 20
			vertex 0 10 -20
			vertex -1.3052619695663452 9.914448738098145 -20
		endloop
	endfacet
	facet normal -0.9978589295981811 0.06540303220166714 0
		outer loop
			vertex -10 0 20
			vertex -9.914448738098145 1.3052619695663452 20
			vertex -10 0 -20
		endloop
	endfacet
	facet normal -0.9807852091533448 0.19509068021315107 0
		outer loop
			vertex -9.914448738098145 1.3052619695663452 20
			vertex -9.659257888793945 2.5881905555725098 20
			vertex -9.914448738098145 1.3052619695663452 -20
		endloop
	endfacet
	facet normal -0.9469302071049871 0.3214392366717333 0
		outer loop
			vertex -9.659257888793945 2.5881905555725098 20
			vertex -9.238795280456543 3.8268344402313232 20
			vertex -9.659257888793945 2.5881905555725098 -20
		endloop
	endfacet
	facet normal -0.896872871257767 0.4422884271624668 0
		outer loop
			vertex -9.238795280456543 3.8268344402313232 20
			vertex -8.66025447845459 5 20
			vertex -9.238795280456543 3.8268344402313232 -20
		endloop
	endfacet
	facet normal 0 0 1
		outer loop
			vertex -9.914448738098145 1.3052619695663452 20
			vertex -10 0 20
			vertex -9.914448738098145 -1.3052619695663452 20
		endloop
	endfacet
	facet normal 0 0 1
		outer loop
			vertex -9.659257888793945 2.5881905555725098 20
			vertex -9.914448738098145 1.3052619695663452 20
			vertex -9.914448738098145 -1.3052619695663452 20
		endloop
	endfacet
	facet normal 0 0 1
		outer loop
			vertex -9.238795280456543 3.8268344402313232 20
			vertex -9.659257888793945 2.5881905555725098 20
			vertex -9.659257888793945 -2.5881905555725098 20
		endloop
	endfacet
	facet normal 0 0 1
		outer loop
			vertex -8.66025447845459 5 20
			vertex -9.238795280456543 3.8268344402313232 20
			vertex -9.238795280456543 -3.8268344402313232 20
		endloop
	endfacet
	facet normal 0 0 1
		outer loop
			vertex -7.933533191680908 6.087614059448242 20
			vertex -8.66025447845459 5 20
			vertex -8.66025447845459 -5 20
		endloop
	endfacet
	facet normal 0 0 1
		outer loop
			vertex -7.071067810058594 7.071067810058594 20
			vertex -7.933533191680908 6.087614059448242 20
			vertex -7.933533191680908 -6.087614059448242 20
		endloop
	endfacet
	facet normal 0 0 1
		outer loop
			vertex -6.087614059448242 7.933533191680908 20
			vertex -7.071067810058594 7.071067810058594 20
			vertex -7.071067810058594 -7.071067810058594 20
		endloop
	endfacet
	facet normal 0 0 1
		outer loop
			vertex -5 8.66025447845459 20
			vertex -6.087614059448242 7.933533191680908 20
			vertex -6.087614059448242 -7.933533191680908 20
		endloop
	endfacet
	facet normal -0.8314693276829074 0.5555706589827561 0
		outer loop
			vertex -8.66025447845459 5 20
			vertex -7.933533191680908 6.087614059448242 20
			vertex -8.66025447845459 5 -20
		endloop
	endfacet
	facet normal -0.7518399628982777 0.6593456378782806 0
		outer loop
			vertex -7.933533191680908 6.087614059448242 20
			vertex -7.071067810058594 7.071067810058594 20
			vertex -7.933533191680908 6.087614059448242 -20
		endloop
	endfacet
	facet normal -0.6593456378782806 0.7518399628982777 0
		outer loop
			vertex -7.071067810058594 7.071067810058594 20
			vertex -6.087614059448242 7.933533191680908 20
			vertex -7.071067810058594 7.071067810058594 -20
		endloop
	endfacet
	facet normal -0.5555706589827561 0.8314693276829074 0
		outer loop
			vertex -6.087614059448242 7.933533191680908 20
			vertex -5 8.66025447845459 20
			vertex -6.087614059448242 7.933533191680908 -20
		endloop
	endfacet
	facet normal 0 0 1
		outer loop
			vertex -3.8268344402313232 9.238795280456543 20
			vertex -5 8.66025447845459 20
			vertex -5 -8.66025447845459 20
		endloop
	endfacet
	facet normal 0 0 1
		outer loop
			vertex -2.5881905555725098 9.659257888793945 20
			vertex -3.8268344402313232 9.238795280456543 20
			vertex -3.8268344402313232 -9.238795280456543 20
		endloop
	endfacet
	facet normal 0 0 1
		outer loop
			vertex -1.3052619695663452 9.914448738098145 20
			vertex -2.5881905555725098 9.659257888793945 20
			vertex -2.5881905555725098 -9.659257888793945 20
		endloop
	endfacet
	facet normal 0 0 1
		outer loop
			vertex 0 10 20
			vertex -1.3052619695663452 9.914448738098145 20
			vertex -1.3052619695663452 -9.914448738098145 20
		endloop
	endfacet
	facet normal -0.4422884271624668 0.896872871257767 0
		outer loop
			vertex -5 8.66025447845459 20
			vertex -3.8268344402313232 9.238795280456543 20
			vertex -5 8.66025447845459 -20
		endloop
	endfacet
	facet normal -0.3214392366717333 0.9469302071049871 0
		outer loop
			vertex -3.8268344402313232 9.238795280456543 20
			vertex -2.5881905555725098 9.659257888793945 20
			vertex -3.8268344402313232 9.238795280456543 -20
		endloop
	endfacet
	facet normal -0.19509068021315107 0.9807852091533448 0
		outer loop
			vertex -2.5881905555725098 9.659257888793945 20
			vertex -1.3052619695663452 9.914448738098145 20
			vertex -2.5881905555725098 9.659257888793945 -20
		endloop
	endfacet
	facet normal -0.06540303220166714 0.9978589295981811 0
		outer loop
			vertex -1.3052619695663452 9.914448738098145 20
			vertex 0 10 20
			vertex -1.3052619695663452 9.914448738098145 -20
		endloop
	endfacet
	facet normal 0.06540303220166714 -0.9978589295981811 0
		outer loop
			vertex 0 -10 20
			vertex 0 -10 -20
			vertex 1.3052619695663452 -9.914448738098145 -20
		endloop
	endfacet
	facet normal 0.19509068021315107 -0.9807852091533448 0
		outer loop
			vertex 1.3052619695663452 -9.914448738098145 20
			vertex 1.3052619695663452 -9.914448738098145 -20
			vertex 2.5881905555725098 -9.659257888793945 -20
		endloop
	endfacet
	facet normal 0.3214392366717333 -0.9469302071049871 0
		outer loop
			vertex 2.5881905555725098 -9.659257888793945 20
			vertex 2.5881905555725098 -9.659257888793945 -20
			vertex 3.8268344402313232 -9.238795280456543 -20
		endloop
	endfacet
	facet normal 0.4422884271624668 -0.896872871257767 0
		outer loop
			vertex 3.8268344402313232 -9.238795280456543 20
			vertex 3.8268344402313232 -9.238795280456543 -20
			vertex 5 -8.66025447845459 -20
		endloop
	endfacet
	facet normal 0 0 -1
		outer loop
			vertex 1.3052619695663452 9.914448738098145 -20
			vertex 1.3052619695663452 -9.914448738098145 -20
			vertex 0 -10 -20
		endloop
	endfacet
	facet normal 0 0 -1
		outer loop
			vertex 2.5881905555725098 9.659257888793945 -20
			vertex 2.5881905555725098 -9.659257888793945 -20
			vertex 1.3052619695663452 -9.914448738098145 -20
		endloop
	endfacet
	facet normal 0 0 -1
		outer loop
			vertex 3.8268344402313232 9.238795280456543 -20
			vertex 3.8268344402313232 -9.238795280456543 -20
			vertex 2.5881905555725098 -9.659257888793945 -20
		endloop
	endfacet
	facet normal 0 0 -1
		outer loop
			vertex 5 8.66025447845459 -20
			vertex 5 -8.66025447845459 -20
			vertex 3.8268344402313232 -9.238795280456543 -20
		endloop
	endfacet
	facet normal 0.5555706589827561 -0.8314693276829074 0
		outer loop
			vertex 5 -8.66025447845459 20
			vertex 5 -8.66025447845459 -20
			vertex 6.087614059448242 -7.933533191680908 -20
		endloop
	endfacet
	facet normal 0.6593456378782806 -0.7518399628982777 0
		outer loop
			vertex 6.087614059448242 -7.933533191680908 20
			vertex 6.087614059448242 -7.933533191680908 -20
			vertex 7.071067810058594 -7.071067810058594 -20
		endloop
	endfacet
	facet normal 0.7518399628982777 -0.6593456378782806 0
		outer loop
			vertex 7.071067810058594 -7.071067810058594 20
			vertex 7.071067810058594 -7.071067810058594 -20
			vertex 7.933533191680908 -6.087614059448242 -20
		endloop
	endfacet
	facet normal 0.8314693276829074 -0.5555706589827561 0
		outer loop
			vertex 7.933533191680908 -6.087614059448242 20
			vertex 7.933533191680908 -6.087614059448242 -20
			vertex 8.66025447845459 -5 -20
		endloop
	endfacet
	facet normal 0 0 -1
		outer loop
			vertex 6.087614059448242 7.933533191680908 -20
			vertex 6.087614059448242 -7.933533191680908 -20
			vertex 5 -8.66025447845459 -20
		endloop
	endfacet
	facet normal 0 0 -1
		outer loop
			vertex 7.071067810058594 7.071067810058594 -20
			vertex 7.071067810058594 -7.071067810058594 -20
			vertex 6.087614059448242 -7.933533191680908 -20
		endloop
	endfacet
	facet normal 0 0 -1
		outer loop
			vertex 7.933533191680908 6.087614059448242 -20
			vertex 7.933533191680908 -6.087614059448242 -20
			vertex 7.071067810058594 -7.071067810058594 -20
		endloop
	endfacet
	facet normal 0 0 -1
		outer loop
			vertex 8.66025447845459 5 -20
			vertex 8.66025447845459 -5 -20
			vertex 7.933533191680908 -6.087614059448242 -20
		endloop
	endfacet
	facet normal 0 0 -1
		outer loop
			vertex 9.238795280456543 3.8268344402313232 -20
			vertex 9.238795280456543 -3.8268344402313232 -20
			vertex 8.66025447845459 -5 -20
		endloop
	endfacet
	facet normal 0 0 -1
		outer loop
			vertex 9.659257888793945 2.5881905555725098 -20
			vertex 9.659257888793945 -2.5881905555725098 -20
			vertex 9.238795280456543 -3.8268344402313232 -20
		endloop
	endfacet
	facet normal 0 0 -1
		outer loop
			vertex 9.914448738098145 1.3052619695663452 -20
			vertex 9.914448738098145 -1.3052619695663452 -20
			vertex 9.659257888793945 -2.5881905555725098 -20
		endloop
	endfacet
	facet normal 0.896872871257767 -0.4422884271624668 0
		outer loop
			vertex 8.66025447845459 -5 20
			vertex 8.66025447845459 -5 -20
			vertex 9.238795280456543 -3.8268344402313232 -20
		endloop
	endfacet
	facet normal 0.9469302071049871 -0.3214392366717333 0
		outer loop
			vertex 9.238795280456543 -3.8268344402313232 20
			vertex 9.238795280456543 -3.8268344402313232 -20
			vertex 9.659257888793945 -2.5881905555725098 -20
		endloop
	endfacet
	facet normal 0.9807852091533448 -0.19509068021315107 0
		outer loop
			vertex 9.659257888793945 -2.5881905555725098 20
			vertex 9.659257888793945 -2.5881905555725098 -20
			vertex 9.914448738098145 -1.3052619695663452 -20
		endloop
	endfacet
	facet normal 0.9978589295981811 -0.06540303220166714 0
		outer loop
			vertex 9.914448738098145 -1.3052619695663452 20
			vertex 9.914448738098145 -1.3052619695663452 -20
			vertex 10 0 -20
		endloop
	endfacet
	facet normal 0.06540303220166714 -0.9978589295981811 0
		outer loop
			vertex 1.3052619695663452 -9.914448738098145 20
			vertex 0 -10 20
			vertex 1.3052619695663452 -9.914448738098145 -20
		endloop
	endfacet
	facet normal 0.19509068021315107 -0.9807852091533448 0
		outer loop
			vertex 2.5881905555725098 -9.659257888793945 20
			vertex 1.3052619695663452 -9.914448738098145 20
			vertex 2.5881905555725098 -9.659257888793945 -20
		endloop
	endfacet
	facet normal 0.3214392366717333 -0.9469302071049871 0
		outer loop
			vertex 3.8268344402313232 -9.238795280456543 20
			vertex 2.5881905555725098 -9.659257888793945 20
			vertex 3.8268344402313232 -9.238795280456543 -20
		endloop
	endfacet
	facet normal 0.4422884271624668 -0.896872871257767 0
		outer loop
			vertex 5 -8.66025447845459 20
			vertex 3.8268344402313232 -9.238795280456543 20
			vertex 5 -8.66025447845459 -20
		endloop
	endfacet
	facet normal 0 0 1
		outer loop
			vertex 1.3052619695663452 9.914448738098145 20
			vertex 0 -10 20
			vertex 1.3052619695663452 -9.914448738098145 20
		endloop
	endfacet
	facet normal 0 0 1
		outer loop
			vertex 2.5881905555725098 9.659257888793945 20
			vertex 1.3052619695663452 -9.914448738098145 20
			vertex 2.5881905555725098 -9.659257888793945 20
		endloop
	endfacet
	facet normal 0 0 1
		outer loop
			vertex 3.8268344402313232 9.238795280456543 20
			vertex 2.5881905555725098 -9.659257888793945 20
			vertex 3.8268344402313232 -9.238795280456543 20
		endloop
	endfacet
	facet normal 0 0 1
		outer loop
			vertex 5 8.66025447845459 20
			vertex 3.8268344402313232 -9.238795280456543 20
			vertex 5 -8.66025447845459 20
		endloop
	endfacet
	facet normal 0.5555706589827561 -0.8314693276829074 0
		outer loop
			vertex 6.087614059448242 -7.933533191680908 20
			vertex 5 -8.66025447845459 20
			vertex 6.087614059448242 -7.933533191680908 -20
		endloop
	endfacet
	facet normal 0.6593456378782806 -0.7518399628982777 0
		outer loop
			vertex 7.071067810058594 -7.071067810058594 20
			vertex 6.087614059448242 -7.933533191680908 20
			vertex 7.071067810058594 -7.071067810058594 -20
		endloop
	endfacet
	facet normal 0.7518399628982777 -0.6593456378782806 0
		outer loop
			vertex 7.933533191680908 -6.087614059448242 20
			vertex 7.071067810058594 -7.071067810058594 20
			vertex 7.933533191680908 -6.087614059448242 -20
		endloop
	endfacet
	facet normal 0.8314693276829074 -0.5555706589827561 0
		outer loop
			vertex 8.66025447845459 -5 20
			vertex 7.933533191680908 -6.087614059448242 20
			vertex 8.66025447845459 -5 -20
		endloop
	endfacet
	facet normal 0.896872871257767 -0.4422884271624668 0
		outer loop
			vertex 9.238795280456543 -3.8268344402313232 20
			vertex 8.66025447845459 -5 20
			vertex 9.238795280456543 -3.8268344402313232 -20
		endloop
	endfacet
	facet normal 0.9469302071049871 -0.3214392366717333 0
		outer loop
			vertex 9.659257888793945 -2.5881905555725098 20
			vertex 9.238795280456543 -3.8268344402313232 20
			vertex 9.659257888793945 -2.5881905555725098 -20
		endloop
	endfacet
	facet normal 0.9807852091533448 -0.19509068021315107 0
		outer loop
			vertex 9.914448738098145 -1.3052619695663452 20
			vertex 9.659257888793945 -2.5881905555725098 20
			vertex 9.914448738098145 -1.3052619695663452 -20
		endloop
	endfacet
	facet normal 0.9978589295981811 -0.06540303220166714 0
		outer loop
			vertex 10 0 20
			vertex 9.914448738098145 -1.3052619695663452 20
			vertex 10 0 -20
		endloop
	endfacet
	facet normal 0 0 1
		outer loop
			vertex 6.087614059448242 7.933533191680908 20
			vertex 5 -8.66025447845459 20
			vertex 6.087614059448242 -7.933533191680908 20
		endloop
	endfacet
	facet normal 0 0 1
		outer loop
			vertex 7.071067810058594 7.071067810058594 20
			vertex 6.087614059448242 -7.933533191680908 20
			vertex 7.071067810058594 -7.071067810058594 20
		endloop
	endfacet
	facet normal 0 0 1
		outer loop
			vertex 7.933533191680908 6.087614059448242 20
			vertex 7.071067810058594 -7.071067810058594 20
			vertex 7.933533191680908 -6.087614059448242 20
		endloop
	endfacet
	facet normal 0 0 1
		outer loop
			vertex 8.66025447845459 5 20
			vertex 7.933533191680908 -6.087614059448242 20
			vertex 8.66025447845459 -5 20
		endloop
	endfacet
	facet normal 0 0 1
		outer loop
			vertex 9.238795280456543 3.8268344402313232 20
			vertex 8.66025447845459 -5 20
			vertex 9.238795280456543 -3.8268344402313232 20
		endloop
	endfacet
	facet normal 0 0 1
		outer loop
			vertex 9.659257888793945 2.5881905555725098 20
			vertex 9.238795280456543 -3.8268344402313232 20
			vertex 9.659257888793945 -2.5881905555725098 20
		endloop
	endfacet
	facet normal 0 0 1
		outer loop
			vertex 9.914448738098145 1.3052619695663452 20
			vertex 9.659257888793945 -2.5881905555725098 20
			vertex 9.914448738098145 -1.3052619695663452 20
		endloop
	endfacet
	facet normal 0 0 -1
		outer loop
			vertex 1.3052619695663452 9.914448738098145 -20
			vertex 0 -10 -20
			vertex 0 10 -20
		endloop
	endfacet
	facet normal 0 0 -1
		outer loop
			vertex 2.5881905555725098 9.659257888793945 -20
			vertex 1.3052619695663452 -9.914448738098145 -20
			vertex 1.3052619695663452 9.914448738098145 -20
		endloop
	endfacet
	facet normal 0 0 -1
		outer loop
			vertex 3.8268344402313232 9.238795280456543 -20
			vertex 2.5881905555725098 -9.659257888793945 -20
			vertex 2.5881905555725098 9.659257888793945 -20
		endloop
	endfacet
	facet normal 0 0 -1
		outer loop
			vertex 5 8.66025447845459 -20
			vertex 3.8268344402313232 -9.238795280456543 -20
			vertex 3.8268344402313232 9.238795280456543 -20
		endloop
	endfacet
	facet normal 0.06540303220166714 0.9978589295981811 0
		outer loop
			vertex 1.3052619695663452 9.914448738098145 20
			vertex 1.3052619695663452 9.914448738098145 -20
			vertex 0 10 -20
		endloop
	endfacet
	facet normal 0.19509068021315107 0.9807852091533448 0
		outer loop
			vertex 2.5881905555725098 9.659257888793945 20
			vertex 2.5881905555725098 9.659257888793945 -20
			vertex 1.3052619695663452 9.914448738098145 -20
		endloop
	endfacet
	facet normal 0.3214392366717333 0.9469302071049871 0
		outer loop
			vertex 3.8268344402313232 9.238795280456543 20
			vertex 3.8268344402313232 9.238795280456543 -20
			vertex 2.5881905555725098 9.659257888793945 -20
		endloop
	endfacet
	facet normal 0.4422884271624668 0.896872871257767 0
		outer loop
			vertex 5 8.66025447845459 20
			vertex 5 8.66025447845459 -20
			vertex 3.8268344402313232 9.238795280456543 -20
		endloop
	endfacet
	facet normal 0 0 -1
		outer loop
			vertex 7.071067810058594 7.071067810058594 -20
			vertex 6.087614059448242 -7.933533191680908 -20
			vertex 6.087614059448242 7.933533191680908 -20
		endloop
	endfacet
	facet normal 0 0 -1
		outer loop
			vertex 7.933533191680908 6.087614059448242 -20
			vertex 7.071067810058594 -7.071067810058594 -20
			vertex 7.071067810058594 7.071067810058594 -20
		endloop
	endfacet
	facet normal 0 0 -1
		outer loop
			vertex 6.087614059448242 7.933533191680908 -20
			vertex 5 -8.66025447845459 -20
			vertex 5 8.66025447845459 -20
		endloop
	endfacet
	facet normal 0 0 -1
		outer loop
			vertex 8.66025447845459 5 -20
			vertex 7.933533191680908 -6.087614059448242 -20
			vertex 7.933533191680908 6.087614059448242 -20
		endloop
	endfacet
	facet normal 0 0 -1
		outer loop
			vertex 10 0 -20
			vertex 9.914448738098145 -1.3052619695663452 -20
			vertex 9.914448738098145 1.3052619695663452 -20
		endloop
	endfacet
	facet normal 0 0 -1
		outer loop
			vertex 9.914448738098145 1.3052619695663452 -20
			vertex 9.659257888793945 -2.5881905555725098 -20
			vertex 9.659257888793945 2.5881905555725098 -20
		endloop
	endfacet
	facet normal 0 0 -1
		outer loop
			vertex 9.659257888793945 2.5881905555725098 -20
			vertex 9.238795280456543 -3.8268344402313232 -20
			vertex 9.238795280456543 3.8268344402313232 -20
		endloop
	endfacet
	facet normal 0 0 -1
		outer loop
			vertex 9.238795280456543 3.8268344402313232 -20
			vertex 8.66025447845459 -5 -20
			vertex 8.66025447845459 5 -20
		endloop
	endfacet
	facet normal 0.9978589295981811 0.06540303220166714 0
		outer loop
			vertex 10 0 20
			vertex 10 0 -20
			vertex 9.914448738098145 1.3052619695663452 -20
		endloop
	endfacet
	facet normal 0.9807852091533448 0.19509068021315107 0
		outer loop
			vertex 9.914448738098145 1.3052619695663452 20
			vertex 9.914448738098145 1.3052619695663452 -20
			vertex 9.659257888793945 2.5881905555725098 -20
		endloop
	endfacet
	facet normal 0.9469302071049871 0.3214392366717333 0
		outer loop
			vertex 9.659257888793945 2.5881905555725098 20
			vertex 9.659257888793945 2.5881905555725098 -20
			vertex 9.238795280456543 3.8268344402313232 -20
		endloop
	endfacet
	facet normal 0.896872871257767 0.4422884271624668 0
		outer loop
			vertex 9.238795280456543 3.8268344402313232 20
			vertex 9.238795280456543 3.8268344402313232 -20
			vertex 8.66025447845459 5 -20
		endloop
	endfacet
	facet normal 0.6593456378782806 0.7518399628982777 0
		outer loop
			vertex 7.071067810058594 7.071067810058594 20
			vertex 7.071067810058594 7.071067810058594 -20
			vertex 6.087614059448242 7.933533191680908 -20
		endloop
	endfacet
	facet normal 0.5555706589827561 0.8314693276829074 0
		outer loop
			vertex 6.087614059448242 7.933533191680908 20
			vertex 6.087614059448242 7.933533191680908 -20
			vertex 5 8.66025447845459 -20
		endloop
	endfacet
	facet normal 0.8314693276829074 0.5555706589827561 0
		outer loop
			vertex 8.66025447845459 5 20
			vertex 8.66025447845459 5 -20
			vertex 7.933533191680908 6.087614059448242 -20
		endloop
	endfacet
	facet normal 0.7518399628982777 0.6593456378782806 0
		outer loop
			vertex 7.933533191680908 6.087614059448242 20
			vertex 7.933533191680908 6.087614059448242 -20
			vertex 7.071067810058594 7.071067810058594 -20
		endloop
	endfacet
	facet normal 0 0 1
		outer loop
			vertex 1.3052619695663452 9.914448738098145 20
			vertex 0 10 20
			vertex 0 -10 20
		endloop
	endfacet
	facet normal 0 0 1
		outer loop
			vertex 2.5881905555725098 9.659257888793945 20
			vertex 1.3052619695663452 9.914448738098145 20
			vertex 1.3052619695663452 -9.914448738098145 20
		endloop
	endfacet
	facet normal 0 0 1
		outer loop
			vertex 3.8268344402313232 9.238795280456543 20
			vertex 2.5881905555725098 9.659257888793945 20
			vertex 2.5881905555725098 -9.659257888793945 20
		endloop
	endfacet
	facet normal 0 0 1
		outer loop
			vertex 5 8.66025447845459 20
			vertex 3.8268344402313232 9.238795280456543 20
			vertex 3.8268344402313232 -9.238795280456543 20
		endloop
	endfacet
	facet normal 0.06540303220166714 0.9978589295981811 0
		outer loop
			vertex 0 10 20
			vertex 1.3052619695663452 9.914448738098145 20
			vertex 0 10 -20
		endloop
	endfacet
	facet normal 0.19509068021315107 0.9807852091533448 0
		outer loop
			vertex 1.3052619695663452 9.914448738098145 20
			vertex 2.5881905555725098 9.659257888793945 20
			vertex 1.3052619695663452 9.914448738098145 -20
		endloop
	endfacet
	facet normal 0.3214392366717333 0.9469302071049871 0
		outer loop
			vertex 2.5881905555725098 9.659257888793945 20
			vertex 3.8268344402313232 9.238795280456543 20
			vertex 2.5881905555725098 9.659257888793945 -20
		endloop
	endfacet
	facet normal 0.4422884271624668 0.896872871257767 0
		outer loop
			vertex 3.8268344402313232 9.238795280456543 20
			vertex 5 8.66025447845459 20
			vertex 3.8268344402313232 9.238795280456543 -20
		endloop
	endfacet
	facet normal 0.9978589295981811 0.06540303220166714 0
		outer loop
			vertex 9.914448738098145 1.3052619695663452 20
			vertex 10 0 20
			vertex 9.914448738098145 1.3052619695663452 -20
		endloop
	endfacet
	facet normal 0.9807852091533448 0.19509068021315107 0
		outer loop
			vertex 9.659257888793945 2.5881905555725098 20
			vertex 9.914448738098145 1.3052619695663452 20
			vertex 9.659257888793945 2.5881905555725098 -20
		endloop
	endfacet
	facet normal 0.9469302071049871 0.3214392366717333 0
		outer loop
			vertex 9.238795280456543 3.8268344402313232 20
			vertex 9.659257888793945 2.5881905555725098 20
			vertex 9.238795280456543 3.8268344402313232 -20
		endloop
	endfacet
	facet normal 0.896872871257767 0.4422884271624668 0
		outer loop
			vertex 8.66025447845459 5 20
			vertex 9.238795280456543 3.8268344402313232 20
			vertex 8.66025447845459 5 -20
		endloop
	endfacet
	facet normal 0 0 1
		outer loop
			vertex 7.071067810058594 7.071067810058594 20
			vertex 6.087614059448242 7.933533191680908 20
			vertex 6.087614059448242 -7.933533191680908 20
		endloop
	endfacet
	facet normal 0 0 1
		outer loop
			vertex 7.933533191680908 6.087614059448242 20
			vertex 7.071067810058594 7.071067810058594 20
			vertex 7.071067810058594 -7.071067810058594 20
		endloop
	endfacet
	facet normal 0 0 1
		outer loop
			vertex 6.087614059448242 7.933533191680908 20
			vertex 5 8.66025447845459 20
			vertex 5 -8.66025447845459 20
		endloop
	endfacet
	facet normal 0 0 1
		outer loop
			vertex 8.66025447845459 5 20
			vertex 7.933533191680908 6.087614059448242 20
			vertex 7.933533191680908 -6.087614059448242 20
		endloop
	endfacet
	facet normal 0 0 1
		outer loop
			vertex 10 0 20
			vertex 9.914448738098145 1.3052619695663452 20
			vertex 9.914448738098145 -1.3052619695663452 20
		endloop
	endfacet
	facet normal 0 0 1
		outer loop
			vertex 9.914448738098145 1.3052619695663452 20
			vertex 9.659257888793945 2.5881905555725098 20
			vertex 9.659257888793945 -2.5881905555725098 20
		endloop
	endfacet
	facet normal 0 0 1
		outer loop
			vertex 9.659257888793945 2.5881905555725098 20
			vertex 9.238795280456543 3.8268344402313232 20
			vertex 9.238795280456543 -3.8268344402313232 20
		endloop
	endfacet
	facet normal 0 0 1
		outer loop
			vertex 9.238795280456543 3.8268344402313232 20
			vertex 8.66025447845459 5 20
			vertex 8.66025447845459 -5 20
		endloop
	endfacet
	facet normal 0.7518399628982777 0.6593456378782806 0
		outer loop
			vertex 7.071067810058594 7.071067810058594 20
			vertex 7.933533191680908 6.087614059448242 20
			vertex 7.071067810058594 7.071067810058594 -20
		endloop
	endfacet
	facet normal 0.5555706589827561 0.8314693276829074 0
		outer loop
			vertex 5 8.66025447845459 20
			vertex 6.087614059448242 7.933533191680908 20
			vertex 5 8.66025447845459 -20
		endloop
	endfacet
	facet normal 0.6593456378782806 0.7518399628982777 0
		outer loop
			vertex 6.087614059448242 7.933533191680908 20
			vertex 7.071067810058594 7.071067810058594 20
			vertex 6.087614059448242 7.933533191680908 -20
		endloop
	endfacet
	facet normal 0.8314693276829074 0.5555706589827561 0
		outer loop
			vertex 7.933533191680908 6.087614059448242 20
			vertex 8.66025447845459 5 20
			vertex 7.933533191680908 6.087614059448242 -20
		endloop
	endfacet
endsolid exported
