solid exported
	facet normal -0.7518399628982777 0 -0.6593456378782806
		outer loop
			vertex -7.933533191680908 -20 -6.087614059448242
			vertex -7.933533191680908 20 -6.087614059448242
			vertex -7.071067810058594 20 -7.071067810058594
		endloop
	endfacet
	facet normal -0.8314693276829074 0 -0.5555706589827561
		outer loop
			vertex -8.66025447845459 -20 -5
			vertex -8.66025447845459 20 -5
			vertex -7.933533191680908 20 -6.087614059448242
		endloop
	endfacet
	facet normal -0.5555706589827561 0 -0.8314693276829074
		outer loop
			vertex -6.087614059448242 -20 -7.933533191680908
			vertex -6.087614059448242 20 -7.933533191680908
			vertex -5 20 -8.66025447845459
		endloop
	endfacet
	facet normal -0.6593456378782806 0 -0.7518399628982777
		outer loop
			vertex -7.071067810058594 -20 -7.071067810058594
			vertex -7.071067810058594 20 -7.071067810058594
			vertex -6.087614059448242 20 -7.933533191680908
		endloop
	endfacet
	facet normal 0 1 0
		outer loop
			vertex -8.66025447845459 20 5
			vertex -8.66025447845459 20 -5
			vertex -9.238795280456543 20 -3.8268344402313232
		endloop
	endfacet
	facet normal 0 1 0
		outer loop
			vertex -9.238795280456543 20 3.8268344402313232
			vertex -9.238795280456543 20 -3.8268344402313232
			vertex -9.659257888793945 20 -2.5881905555725098
		endloop
	endfacet
	facet normal 0 1 0
		outer loop
			vertex -9.659257888793945 20 2.5881905555725098
			vertex -9.659257888793945 20 -2.5881905555725098
			vertex -9.914448738098145 20 -1.3052619695663452
		endloop
	endfacet
	facet normal 0 1 0
		outer loop
			vertex -7.933533191680908 20 6.087614059448242
			vertex -7.933533191680908 20 -6.087614059448242
			vertex -8.66025447845459 20 -5
		endloop
	endfacet
	facet normal 0 1 0
		outer loop
			vertex -5 20 8.66025447845459
			vertex -5 20 -8.66025447845459
			vertex -6.087614059448242 20 -7.933533191680908
		endloop
	endfacet
	facet normal 0 1 0
		outer loop
			vertex -7.071067810058594 20 7.071067810058594
			vertex -7.071067810058594 20 -7.071067810058594
			vertex -7.933533191680908 20 -6.087614059448242
		endloop
	endfacet
	facet normal 0 1 0
		outer loop
			vertex -6.087614059448242 20 7.933533191680908
			vertex -6.087614059448242 20 -7.933533191680908
			vertex -7.071067810058594 20 -7.071067810058594
		endloop
	endfacet
	facet normal -0.896872871257767 0 -0.4422884271624668
		outer loop
			vertex -9.238795280456543 -20 -3.8268344402313232
			vertex -9.238795280456543 20 -3.8268344402313232
			vertex -8.66025447845459 20 -5
		endloop
	endfacet
	facet normal -0.9469302071049871 0 -0.3214392366717333
		outer loop
			vertex -9.659257888793945 -20 -2.5881905555725098
			vertex -9.659257888793945 20 -2.5881905555725098
			vertex -9.238795280456543 20 -3.8268344402313232
		endloop
	endfacet
	facet normal -0.9807852091533448 0 -0.19509068021315107
		outer loop
			vertex -9.914448738098145 -20 -1.3052619695663452
			vertex -9.914448738098145 20 -1.3052619695663452
			vertex -9.659257888793945 20 -2.5881905555725098
		endloop
	endfacet
	facet normal -0.9978589295981811 0 -0.06540303220166714
		outer loop
			vertex -10 -20 0
			vertex -10 20 0
			vertex -9.914448738098145 20 -1.3052619695663452
		endloop
	endfacet
	facet normal -0.4422884271624668 0 -0.896872871257767
		outer loop
			vertex -5 -20 -8.66025447845459
			vertex -5 20 -8.66025447845459
			vertex -3.8268344402313232 20 -9.238795280456543
		endloop
	endfacet
	facet normal -0.3214392366717333 0 -0.9469302071049871
		outer loop
			vertex -3.8268344402313232 -20 -9.238795280456543
			vertex -3.8268344402313232 20 -9.238795280456543
			vertex -2.5881905555725098 20 -9.659257888793945
		endloop
	endfacet
	facet normal -0.19509068021315107 0 -0.9807852091533448
		outer loop
			vertex -2.5881905555725098 -20 -9.659257888793945
			vertex -2.5881905555725098 20 -9.659257888793945
			vertex -1.3052619695663452 20 -9.914448738098145
		endloop
	endfacet
	facet normal -0.06540303220166714 0 -0.9978589295981811
		outer loop
			vertex -1.3052619695663452 -20 -9.914448738098145
			vertex -1.3052619695663452 20 -9.914448738098145
			vertex 0 20 -10
		endloop
	endfacet
	facet normal 0 1 0
		outer loop
			vertex -3.8268344402313232 20 9.238795280456543
			vertex -3.8268344402313232 20 -9.238795280456543
			vertex -5 20 -8.66025447845459
		endloop
	endfacet
	facet normal 0 1 0
		outer loop
			vertex -2.5881905555725098 20 9.659257888793945
			vertex -2.5881905555725098 20 -9.659257888793945
			vertex -3.8268344402313232 20 -9.238795280456543
		endloop
	endfacet
	facet normal 0 1 0
		outer loop
			vertex -1.3052619695663452 20 9.914448738098145
			vertex -1.3052619695663452 20 -9.914448738098145
			vertex -2.5881905555725098 20 -9.659257888793945
		endloop
	endfacet
	facet normal 0 1 0
		outer loop
			vertex 0 20 10
			vertex 0 20 -10
			vertex -1.3052619695663452 20 -9.914448738098145
		endloop
	endfacet
	facet normal -0.8314693276829074 0 -0.5555706589827561
		outer loop
			vertex -7.933533191680908 -20 -6.087614059448242
			vertex -8.66025447845459 -20 -5
			vertex -7.933533191680908 20 -6.087614059448242
		endloop
	endfacet
	facet normal -0.6593456378782806 0 -0.7518399628982777
		outer loop
			vertex -6.087614059448242 -20 -7.933533191680908
			vertex -7.071067810058594 -20 -7.071067810058594
			vertex -6.087614059448242 20 -7.933533191680908
		endloop
	endfacet
	facet normal -0.5555706589827561 0 -0.8314693276829074
		outer loop
			vertex -5 -20 -8.66025447845459
			vertex -6.087614059448242 -20 -7.933533191680908
			vertex -5 20 -8.66025447845459
		endloop
	endfacet
	facet normal -0.7518399628982777 0 -0.6593456378782806
		outer loop
			vertex -7.071067810058594 -20 -7.071067810058594
			vertex -7.933533191680908 -20 -6.087614059448242
			vertex -7.071067810058594 20 -7.071067810058594
		endloop
	endfacet
	facet normal -0.896872871257767 0 -0.4422884271624668
		outer loop
			vertex -8.66025447845459 -20 -5
			vertex -9.238795280456543 -20 -3.8268344402313232
			vertex -8.66025447845459 20 -5
		endloop
	endfacet
	facet normal -0.9469302071049871 0 -0.3214392366717333
		outer loop
			vertex -9.238795280456543 -20 -3.8268344402313232
			vertex -9.659257888793945 -20 -2.5881905555725098
			vertex -9.238795280456543 20 -3.8268344402313232
		endloop
	endfacet
	facet normal -0.9807852091533448 0 -0.19509068021315107
		outer loop
			vertex -9.659257888793945 -20 -2.5881905555725098
			vertex -9.914448738098145 -20 -1.3052619695663452
			vertex -9.659257888793945 20 -2.5881905555725098
		endloop
	endfacet
	facet normal -0.9978589295981811 0 -0.06540303220166714
		outer loop
			vertex -9.914448738098145 -20 -1.3052619695663452
			vertex -10 -20 0
			vertex -9.914448738098145 20 -1.3052619695663452
		endloop
	endfacet
	facet normal 0 -1 0
		outer loop
			vertex -8.66025447845459 -20 5
			vertex -9.238795280456543 -20 -3.8268344402313232
			vertex -8.66025447845459 -20 -5
		endloop
	endfacet
	facet normal 0 -1 0
		outer loop
			vertex -9.238795280456543 -20 3.8268344402313232
			vertex -9.659257888793945 -20 -2.5881905555725098
			vertex -9.238795280456543 -20 -3.8268344402313232
		endloop
	endfacet
	facet normal 0 -1 0
		outer loop
			vertex -9.659257888793945 -20 2.5881905555725098
			vertex -9.914448738098145 -20 -1.3052619695663452
			vertex -9.659257888793945 -20 -2.5881905555725098
		endloop
	endfacet
	facet normal 0 -1 0
		outer loop
			vertex -7.933533191680908 -20 6.087614059448242
			vertex -8.66025447845459 -20 -5
			vertex -7.933533191680908 -20 -6.087614059448242
		endloop
	endfacet
	facet normal 0 -1 0
		outer loop
			vertex -5 -20 8.66025447845459
			vertex -6.087614059448242 -20 -7.933533191680908
			vertex -5 -20 -8.66025447845459
		endloop
	endfacet
	facet normal 0 -1 0
		outer loop
			vertex -7.071067810058594 -20 7.071067810058594
			vertex -7.933533191680908 -20 -6.087614059448242
			vertex -7.071067810058594 -20 -7.071067810058594
		endloop
	endfacet
	facet normal 0 -1 0
		outer loop
			vertex -6.087614059448242 -20 7.933533191680908
			vertex -7.071067810058594 -20 -7.071067810058594
			vertex -6.087614059448242 -20 -7.933533191680908
		endloop
	endfacet
	facet normal -0.4422884271624668 0 -0.896872871257767
		outer loop
			vertex -3.8268344402313232 -20 -9.238795280456543
			vertex -5 -20 -8.66025447845459
			vertex -3.8268344402313232 20 -9.238795280456543
		endloop
	endfacet
	facet normal -0.3214392366717333 0 -0.9469302071049871
		outer loop
			vertex -2.5881905555725098 -20 -9.659257888793945
			vertex -3.8268344402313232 -20 -9.238795280456543
			vertex -2.5881905555725098 20 -9.659257888793945
		endloop
	endfacet
	facet normal -0.19509068021315107 0 -0.9807852091533448
		outer loop
			vertex -1.3052619695663452 -20 -9.914448738098145
			vertex -2.5881905555725098 -20 -9.659257888793945
			vertex -1.3052619695663452 20 -9.914448738098145
		endloop
	endfacet
	facet normal -0.06540303220166714 0 -0.9978589295981811
		outer loop
			vertex 0 -20 -10
			vertex -1.3052619695663452 -20 -9.914448738098145
			vertex 0 20 -10
		endloop
	endfacet
	facet normal 0 -1 0
		outer loop
			vertex -3.8268344402313232 -20 9.238795280456543
			vertex -5 -20 -8.66025447845459
			vertex -3.8268344402313232 -20 -9.238795280456543
		endloop
	endfacet
	facet normal 0 -1 0
		outer loop
			vertex -2.5881905555725098 -20 9.659257888793945
			vertex -3.8268344402313232 -20 -9.238795280456543
			vertex -2.5881905555725098 -20 -9.659257888793945
		endloop
	endfacet
	facet normal 0 -1 0
		outer loop
			vertex -1.3052619695663452 -20 9.914448738098145
			vertex -2.5881905555725098 -20 -9.659257888793945
			vertex -1.3052619695663452 -20 -9.914448738098145
		endloop
	endfacet
	facet normal 0 -1 0
		outer loop
			vertex 0 -20 10
			vertex -1.3052619695663452 -20 -9.914448738098145
			vertex 0 -20 -10
		endloop
	endfacet
	facet normal 0 1 0
		outer loop
			vertex -9.914448738098145 20 1.3052619695663452
			vertex -9.914448738098145 20 -1.3052619695663452
			vertex -10 20 0
		endloop
	endfacet
	facet normal 0 1 0
		outer loop
			vertex -9.659257888793945 20 2.5881905555725098
			vertex -9.914448738098145 20 -1.3052619695663452
			vertex -9.914448738098145 20 1.3052619695663452
		endloop
	endfacet
	facet normal 0 1 0
		outer loop
			vertex -9.238795280456543 20 3.8268344402313232
			vertex -9.659257888793945 20 -2.5881905555725098
			vertex -9.659257888793945 20 2.5881905555725098
		endloop
	endfacet
	facet normal 0 1 0
		outer loop
			vertex -8.66025447845459 20 5
			vertex -9.238795280456543 20 -3.8268344402313232
			vertex -9.238795280456543 20 3.8268344402313232
		endloop
	endfacet
	facet normal 0 1 0
		outer loop
			vertex -7.933533191680908 20 6.087614059448242
			vertex -8.66025447845459 20 -5
			vertex -8.66025447845459 20 5
		endloop
	endfacet
	facet normal 0 1 0
		outer loop
			vertex -7.071067810058594 20 7.071067810058594
			vertex -7.933533191680908 20 -6.087614059448242
			vertex -7.933533191680908 20 6.087614059448242
		endloop
	endfacet
	facet normal 0 1 0
		outer loop
			vertex -6.087614059448242 20 7.933533191680908
			vertex -7.071067810058594 20 -7.071067810058594
			vertex -7.071067810058594 20 7.071067810058594
		endloop
	endfacet
	facet normal 0 1 0
		outer loop
			vertex -5 20 8.66025447845459
			vertex -6.087614059448242 20 -7.933533191680908
			vertex -6.087614059448242 20 7.933533191680908
		endloop
	endfacet
	facet normal -0.9978589295981811 0 0.06540303220166714
		outer loop
			vertex -9.914448738098145 -20 1.3052619695663452
			vertex -9.914448738098145 20 1.3052619695663452
			vertex -10 20 0
		endloop
	endfacet
	facet normal -0.9807852091533448 0 0.19509068021315107
		outer loop
			vertex -9.659257888793945 -20 2.5881905555725098
			vertex -9.659257888793945 20 2.5881905555725098
			vertex -9.914448738098145 20 1.3052619695663452
		endloop
	endfacet
	facet normal -0.9469302071049871 0 0.3214392366717333
		outer loop
			vertex -9.238795280456543 -20 3.8268344402313232
			vertex -9.238795280456543 20 3.8268344402313232
			vertex -9.659257888793945 20 2.5881905555725098
		endloop
	endfacet
	facet normal -0.896872871257767 0 0.4422884271624668
		outer loop
			vertex -8.66025447845459 -20 5
			vertex -8.66025447845459 20 5
			vertex -9.238795280456543 20 3.8268344402313232
		endloop
	endfacet
	facet normal -0.8314693276829074 0 0.5555706589827561
		outer loop
			vertex -7.933533191680908 -20 6.087614059448242
			vertex -7.933533191680908 20 6.087614059448242
			vertex -8.66025447845459 20 5
		endloop
	endfacet
	facet normal -0.7518399628982777 0 0.6593456378782806
		outer loop
			vertex -7.071067810058594 -20 7.071067810058594
			vertex -7.071067810058594 20 7.071067810058594
			vertex -7.933533191680908 20 6.087614059448242
		endloop
	endfacet
	facet normal -0.6593456378782806 0 0.7518399628982777
		outer loop
			vertex -6.087614059448242 -20 7.933533191680908
			vertex -6.087614059448242 20 7.933533191680908
			vertex -7.071067810058594 20 7.071067810058594
		endloop
	endfacet
	facet normal -0.5555706589827561 0 0.8314693276829074
		outer loop
			vertex -5 -20 8.66025447845459
			vertex -5 20 8.66025447845459
			vertex -6.087614059448242 20 7.933533191680908
		endloop
	endfacet
	facet normal 0 1 0
		outer loop
			vertex -3.8268344402313232 20 9.238795280456543
			vertex -5 20 -8.66025447845459
			vertex -5 20 8.66025447845459
		endloop
	endfacet
	facet normal 0 1 0
		outer loop
			vertex -2.5881905555725098 20 9.659257888793945
			vertex -3.8268344402313232 20 -9.238795280456543
			vertex -3.8268344402313232 20 9.238795280456543
		endloop
	endfacet
	facet normal 0 1 0
		outer loop
			vertex -1.3052619695663452 20 9.914448738098145
			vertex -2.5881905555725098 20 -9.659257888793945
			vertex -2.5881905555725098 20 9.659257888793945
		endloop
	endfacet
	facet normal 0 1 0
		outer loop
			vertex 0 20 10
			vertex -1.3052619695663452 20 -9.914448738098145
			vertex -1.3052619695663452 20 9.914448738098145
		endloop
	endfacet
	facet normal -0.4422884271624668 0 0.896872871257767
		outer loop
			vertex -3.8268344402313232 -20 9.238795280456543
			vertex -3.8268344402313232 20 9.238795280456543
			vertex -5 20 8.66025447845459
		endloop
	endfacet
	facet normal -0.3214392366717333 0 0.9469302071049871
		outer loop
			vertex -2.5881905555725098 -20 9.659257888793945
			vertex -2.5881905555725098 20 9.659257888793945
			vertex -3.8268344402313232 20 9.238795280456543
		endloop
	endfacet
	facet normal -0.19509068021315107 0 0.9807852091533448
		outer loop
			vertex -1.3052619695663452 -20 9.914448738098145
			vertex -1.3052619695663452 20 9.914448738098145
			vertex -2.5881905555725098 20 9.659257888793945
		endloop
	endfacet
	facet normal -0.06540303220166714 0 0.9978589295981811
		outer loop
			vertex 0 -20 10
			vertex 0 20 10
			vertex -1.3052619695663452 20 9.914448738098145
		endloop
	endfacet
	facet normal -0.9978589295981811 0 0.06540303220166714
		outer loop
			vertex -10 -20 0
			vertex -9.914448738098145 -20 1.3052619695663452
			vertex -10 20 0
		endloop
	endfacet
	facet normal -0.9807852091533448 0 0.19509068021315107
		outer loop
			vertex -9.914448738098145 -20 1.3052619695663452
			vertex -9.659257888793945 -20 2.5881905555725098
			vertex -9.914448738098145 20 1.3052619695663452
		endloop
	endfacet
	facet normal -0.9469302071049871 0 0.3214392366717333
		outer loop
			vertex -9.659257888793945 -20 2.5881905555725098
			vertex -9.238795280456543 -20 3.8268344402313232
			vertex -9.659257888793945 20 2.5881905555725098
		endloop
	endfacet
	facet normal -0.896872871257767 0 0.4422884271624668
		outer loop
			vertex -9.238795280456543 -20 3.8268344402313232
			vertex -8.66025447845459 -20 5
			vertex -9.238795280456543 20 3.8268344402313232
		endloop
	endfacet
	facet normal 0 -1 0
		outer loop
			vertex -9.914448738098145 -20 1.3052619695663452
			vertex -10 -20 0
			vertex -9.914448738098145 -20 -1.3052619695663452
		endloop
	endfacet
	facet normal 0 -1 0
		outer loop
			vertex -9.659257888793945 -20 2.5881905555725098
			vertex -9.914448738098145 -20 1.3052619695663452
			vertex -9.914448738098145 -20 -1.3052619695663452
		endloop
	endfacet
	facet normal 0 -1 0
		outer loop
			vertex -9.238795280456543 -20 3.8268344402313232
			vertex -9.659257888793945 -20 2.5881905555725098
			vertex -9.659257888793945 -20 -2.5881905555725098
		endloop
	endfacet
	facet normal 0 -1 0
		outer loop
			vertex -8.66025447845459 -20 5
			vertex -9.238795280456543 -20 3.8268344402313232
			vertex -9.238795280456543 -20 -3.8268344402313232
		endloop
	endfacet
	facet normal 0 -1 0
		outer loop
			vertex -7.933533191680908 -20 6.087614059448242
			vertex -8.66025447845459 -20 5
			vertex -8.66025447845459 -20 -5
		endloop
	endfacet
	facet normal 0 -1 0
		outer loop
			vertex -7.071067810058594 -20 7.071067810058594
			vertex -7.933533191680908 -20 6.087614059448242
			vertex -7.933533191680908 -20 -6.087614059448242
		endloop
	endfacet
	facet normal 0 -1 0
		outer loop
			vertex -6.087614059448242 -20 7.933533191680908
			vertex -7.071067810058594 -20 7.071067810058594
			vertex -7.071067810058594 -20 -7.071067810058594
		endloop
	endfacet
	facet normal 0 -1 0
		outer loop
			vertex -5 -20 8.66025447845459
			vertex -6.087614059448242 -20 7.933533191680908
			vertex -6.087614059448242 -20 -7.933533191680908
		endloop
	endfacet
	facet normal -0.8314693276829074 0 0.5555706589827561
		outer loop
			vertex -8.66025447845459 -20 5
			vertex -7.933533191680908 -20 6.087614059448242
			vertex -8.66025447845459 20 5
		endloop
	endfacet
	facet normal -0.7518399628982777 0 0.6593456378782806
		outer loop
			vertex -7.933533191680908 -20 6.087614059448242
			vertex -7.071067810058594 -20 7.071067810058594
			vertex -7.933533191680908 20 6.087614059448242
		endloop
	endfacet
	facet normal -0.6593456378782806 0 0.7518399628982777
		outer loop
			vertex -7.071067810058594 -20 7.071067810058594
			vertex -6.087614059448242 -20 7.933533191680908
			vertex -7.071067810058594 20 7.071067810058594
		endloop
	endfacet
	facet normal -0.5555706589827561 0 0.8314693276829074
		outer loop
			vertex -6.087614059448242 -20 7.933533191680908
			vertex -5 -20 8.66025447845459
			vertex -6.087614059448242 20 7.933533191680908
		endloop
	endfacet
	facet normal 0 -1 0
		outer loop
			vertex -3.8268344402313232 -20 9.238795280456543
			vertex -5 -20 8.66025447845459
			vertex -5 -20 -8.66025447845459
		endloop
	endfacet
	facet normal 0 -1 0
		outer loop
			vertex -2.5881905555725098 -20 9.659257888793945
			vertex -3.8268344402313232 -20 9.238795280456543
			vertex -3.8268344402313232 -20 -9.238795280456543
		endloop
	endfacet
	facet normal 0 -1 0
		outer loop
			vertex -1.3052619695663452 -20 9.914448738098145
			vertex -2.5881905555725098 -20 9.659257888793945
			vertex -2.5881905555725098 -20 -9.659257888793945
		endloop
	endfacet
	facet normal 0 -1 0
		outer loop
			vertex 0 -20 10
			vertex -1.3052619695663452 -20 9.914448738098145
			vertex -1.3052619695663452 -20 -9.914448738098145
		endloop
	endfacet
	facet normal -0.4422884271624668 0 0.896872871257767
		outer loop
			vertex -5 -20 8.66025447845459
			vertex -3.8268344402313232 -20 9.238795280456543
			vertex -5 20 8.66025447845459
		endloop
	endfacet
	facet normal -0.3214392366717333 0 0.9469302071049871
		outer loop
			vertex -3.8268344402313232 -20 9.238795280456543
			vertex -2.5881905555725098 -20 9.659257888793945
			vertex -3.8268344402313232 20 9.238795280456543
		endloop
	endfacet
	facet normal -0.19509068021315107 0 0.9807852091533448
		outer loop
			vertex -2.5881905555725098 -20 9.659257888793945
			vertex -1.3052619695663452 -20 9.914448738098145
			vertex -2.5881905555725098 20 9.659257888793945
		endloop
	endfacet
	facet normal -0.06540303220166714 0 0.9978589295981811
		outer loop
			vertex -1.3052619695663452 -20 9.914448738098145
			vertex 0 -20 10
			vertex -1.3052619695663452 20 9.914448738098145
		endloop
	endfacet
	facet normal 0.06540303220166714 0 -0.9978589295981811
		outer loop
			vertex 0 -20 -10
			vertex 0 20 -10
			vertex 1.3052619695663452 20 -9.914448738098145
		endloop
	endfacet
	facet normal 0.19509068021315107 0 -0.9807852091533448
		outer loop
			vertex 1.3052619695663452 -20 -9.914448738098145
			vertex 1.3052619695663452 20 -9.914448738098145
			vertex 2.5881905555725098 20 -9.659257888793945
		endloop
	endfacet
	facet normal 0.3214392366717333 0 -0.9469302071049871
		outer loop
			vertex 2.5881905555725098 -20 -9.659257888793945
			vertex 2.5881905555725098 20 -9.659257888793945
			vertex 3.8268344402313232 20 -9.238795280456543
		endloop
	endfacet
	facet normal 0.4422884271624668 0 -0.896872871257767
		outer loop
			vertex 3.8268344402313232 -20 -9.238795280456543
			vertex 3.8268344402313232 20 -9.238795280456543
			vertex 5 20 -8.66025447845459
		endloop
	endfacet
	facet normal 0 1 0
		outer loop
			vertex 1.3052619695663452 20 9.914448738098145
			vertex 1.3052619695663452 20 -9.914448738098145
			vertex 0 20 -10
		endloop
	endfacet
	facet normal 0 1 0
		outer loop
			vertex 2.5881905555725098 20 9.659257888793945
			vertex 2.5881905555725098 20 -9.659257888793945
			vertex 1.3052619695663452 20 -9.914448738098145
		endloop
	endfacet
	facet normal 0 1 0
		outer loop
			vertex 3.8268344402313232 20 9.238795280456543
			vertex 3.8268344402313232 20 -9.238795280456543
			vertex 2.5881905555725098 20 -9.659257888793945
		endloop
	endfacet
	facet normal 0 1 0
		outer loop
			vertex 5 20 8.66025447845459
			vertex 5 20 -8.66025447845459
			vertex 3.8268344402313232 20 -9.238795280456543
		endloop
	endfacet
	facet normal 0.5555706589827561 0 -0.8314693276829074
		outer loop
			vertex 5 -20 -8.66025447845459
			vertex 5 20 -8.66025447845459
			vertex 6.087614059448242 20 -7.933533191680908
		endloop
	endfacet
	facet normal 0.6593456378782806 0 -0.7518399628982777
		outer loop
			vertex 6.087614059448242 -20 -7.933533191680908
			vertex 6.087614059448242 20 -7.933533191680908
			vertex 7.071067810058594 20 -7.071067810058594
		endloop
	endfacet
	facet normal 0.7518399628982777 0 -0.6593456378782806
		outer loop
			vertex 7.071067810058594 -20 -7.071067810058594
			vertex 7.071067810058594 20 -7.071067810058594
			vertex 7.933533191680908 20 -6.087614059448242
		endloop
	endfacet
	facet normal 0.8314693276829074 0 -0.5555706589827561
		outer loop
			vertex 7.933533191680908 -20 -6.087614059448242
			vertex 7.933533191680908 20 -6.087614059448242
			vertex 8.66025447845459 20 -5
		endloop
	endfacet
	facet normal 0 1 0
		outer loop
			vertex 6.087614059448242 20 7.933533191680908
			vertex 6.087614059448242 20 -7.933533191680908
			vertex 5 20 -8.66025447845459
		endloop
	endfacet
	facet normal 0 1 0
		outer loop
			vertex 7.071067810058594 20 7.071067810058594
			vertex 7.071067810058594 20 -7.071067810058594
			vertex 6.087614059448242 20 -7.933533191680908
		endloop
	endfacet
	facet normal 0 1 0
		outer loop
			vertex 7.933533191680908 20 6.087614059448242
			vertex 7.933533191680908 20 -6.087614059448242
			vertex 7.071067810058594 20 -7.071067810058594
		endloop
	endfacet
	facet normal 0 1 0
		outer loop
			vertex 8.66025447845459 20 5
			vertex 8.66025447845459 20 -5
			vertex 7.933533191680908 20 -6.087614059448242
		endloop
	endfacet
	facet normal 0 1 0
		outer loop
			vertex 9.238795280456543 20 3.8268344402313232
			vertex 9.238795280456543 20 -3.8268344402313232
			vertex 8.66025447845459 20 -5
		endloop
	endfacet
	facet normal 0 1 0
		outer loop
			vertex 9.659257888793945 20 2.5881905555725098
			vertex 9.659257888793945 20 -2.5881905555725098
			vertex 9.238795280456543 20 -3.8268344402313232
		endloop
	endfacet
	facet normal 0 1 0
		outer loop
			vertex 9.914448738098145 20 1.3052619695663452
			vertex 9.914448738098145 20 -1.3052619695663452
			vertex 9.659257888793945 20 -2.5881905555725098
		endloop
	endfacet
	facet normal 0.896872871257767 0 -0.4422884271624668
		outer loop
			vertex 8.66025447845459 -20 -5
			vertex 8.66025447845459 20 -5
			vertex 9.238795280456543 20 -3.8268344402313232
		endloop
	endfacet
	facet normal 0.9469302071049871 0 -0.3214392366717333
		outer loop
			vertex 9.238795280456543 -20 -3.8268344402313232
			vertex 9.238795280456543 20 -3.8268344402313232
			vertex 9.659257888793945 20 -2.5881905555725098
		endloop
	endfacet
	facet normal 0.9807852091533448 0 -0.19509068021315107
		outer loop
			vertex 9.659257888793945 -20 -2.5881905555725098
			vertex 9.659257888793945 20 -2.5881905555725098
			vertex 9.914448738098145 20 -1.3052619695663452
		endloop
	endfacet
	facet normal 0.9978589295981811 0 -0.06540303220166714
		outer loop
			vertex 9.914448738098145 -20 -1.3052619695663452
			vertex 9.914448738098145 20 -1.3052619695663452
			vertex 10 20 0
		endloop
	endfacet
	facet normal 0.06540303220166714 0 -0.9978589295981811
		outer loop
			vertex 1.3052619695663452 -20 -9.914448738098145
			vertex 0 -20 -10
			vertex 1.3052619695663452 20 -9.914448738098145
		endloop
	endfacet
	facet normal 0.19509068021315107 0 -0.9807852091533448
		outer loop
			vertex 2.5881905555725098 -20 -9.659257888793945
			vertex 1.3052619695663452 -20 -9.914448738098145
			vertex 2.5881905555725098 20 -9.659257888793945
		endloop
	endfacet
	facet normal 0.3214392366717333 0 -0.9469302071049871
		outer loop
			vertex 3.8268344402313232 -20 -9.238795280456543
			vertex 2.5881905555725098 -20 -9.659257888793945
			vertex 3.8268344402313232 20 -9.238795280456543
		endloop
	endfacet
	facet normal 0.4422884271624668 0 -0.896872871257767
		outer loop
			vertex 5 -20 -8.66025447845459
			vertex 3.8268344402313232 -20 -9.238795280456543
			vertex 5 20 -8.66025447845459
		endloop
	endfacet
	facet normal 0 -1 0
		outer loop
			vertex 1.3052619695663452 -20 9.914448738098145
			vertex 0 -20 -10
			vertex 1.3052619695663452 -20 -9.914448738098145
		endloop
	endfacet
	facet normal 0 -1 0
		outer loop
			vertex 2.5881905555725098 -20 9.659257888793945
			vertex 1.3052619695663452 -20 -9.914448738098145
			vertex 2.5881905555725098 -20 -9.659257888793945
		endloop
	endfacet
	facet normal 0 -1 0
		outer loop
			vertex 3.8268344402313232 -20 9.238795280456543
			vertex 2.5881905555725098 -20 -9.659257888793945
			vertex 3.8268344402313232 -20 -9.238795280456543
		endloop
	endfacet
	facet normal 0 -1 0
		outer loop
			vertex 5 -20 8.66025447845459
			vertex 3.8268344402313232 -20 -9.238795280456543
			vertex 5 -20 -8.66025447845459
		endloop
	endfacet
	facet normal 0.5555706589827561 0 -0.8314693276829074
		outer loop
			vertex 6.087614059448242 -20 -7.933533191680908
			vertex 5 -20 -8.66025447845459
			vertex 6.087614059448242 20 -7.933533191680908
		endloop
	endfacet
	facet normal 0.6593456378782806 0 -0.7518399628982777
		outer loop
			vertex 7.071067810058594 -20 -7.071067810058594
			vertex 6.087614059448242 -20 -7.933533191680908
			vertex 7.071067810058594 20 -7.071067810058594
		endloop
	endfacet
	facet normal 0.7518399628982777 0 -0.6593456378782806
		outer loop
			vertex 7.933533191680908 -20 -6.087614059448242
			vertex 7.071067810058594 -20 -7.071067810058594
			vertex 7.933533191680908 20 -6.087614059448242
		endloop
	endfacet
	facet normal 0.8314693276829074 0 -0.5555706589827561
		outer loop
			vertex 8.66025447845459 -20 -5
			vertex 7.933533191680908 -20 -6.087614059448242
			vertex 8.66025447845459 20 -5
		endloop
	endfacet
	facet normal 0.896872871257767 0 -0.4422884271624668
		outer loop
			vertex 9.238795280456543 -20 -3.8268344402313232
			vertex 8.66025447845459 -20 -5
			vertex 9.238795280456543 20 -3.8268344402313232
		endloop
	endfacet
	facet normal 0.9469302071049871 0 -0.3214392366717333
		outer loop
			vertex 9.659257888793945 -20 -2.5881905555725098
			vertex 9.238795280456543 -20 -3.8268344402313232
			vertex 9.659257888793945 20 -2.5881905555725098
		endloop
	endfacet
	facet normal 0.9807852091533448 0 -0.19509068021315107
		outer loop
			vertex 9.914448738098145 -20 -1.3052619695663452
			vertex 9.659257888793945 -20 -2.5881905555725098
			vertex 9.914448738098145 20 -1.3052619695663452
		endloop
	endfacet
	facet normal 0.9978589295981811 0 -0.06540303220166714
		outer loop
			vertex 10 -20 0
			vertex 9.914448738098145 -20 -1.3052619695663452
			vertex 10 20 0
		endloop
	endfacet
	facet normal 0 -1 0
		outer loop
			vertex 6.087614059448242 -20 7.933533191680908
			vertex 5 -20 -8.66025447845459
			vertex 6.087614059448242 -20 -7.933533191680908
		endloop
	endfacet
	facet normal 0 -1 0
		outer loop
			vertex 7.071067810058594 -20 7.071067810058594
			vertex 6.087614059448242 -20 -7.933533191680908
			vertex 7.071067810058594 -20 -7.071067810058594
		endloop
	endfacet
	facet normal 0 -1 0
		outer loop
			vertex 7.933533191680908 -20 6.087614059448242
			vertex 7.071067810058594 -20 -7.071067810058594
			vertex 7.933533191680908 -20 -6.087614059448242
		endloop
	endfacet
	facet normal 0 -1 0
		outer loop
			vertex 8.66025447845459 -20 5
			vertex 7.933533191680908 -20 -6.087614059448242
			vertex 8.66025447845459 -20 -5
		endloop
	endfacet
	facet normal 0 -1 0
		outer loop
			vertex 9.238795280456543 -20 3.8268344402313232
			vertex 8.66025447845459 -20 -5
			vertex 9.238795280456543 -20 -3.8268344402313232
		endloop
	endfacet
	facet normal 0 -1 0
		outer loop
			vertex 9.659257888793945 -20 2.5881905555725098
			vertex 9.238795280456543 -20 -3.8268344402313232
			vertex 9.659257888793945 -20 -2.5881905555725098
		endloop
	endfacet
	facet normal 0 -1 0
		outer loop
			vertex 9.914448738098145 -20 1.3052619695663452
			vertex 9.659257888793945 -20 -2.5881905555725098
			vertex 9.914448738098145 -20 -1.3052619695663452
		endloop
	endfacet
	facet normal 0 1 0
		outer loop
			vertex 1.3052619695663452 20 9.914448738098145
			vertex 0 20 -10
			vertex 0 20 10
		endloop
	endfacet
	facet normal 0 1 0
		outer loop
			vertex 2.5881905555725098 20 9.659257888793945
			vertex 1.3052619695663452 20 -9.914448738098145
			vertex 1.3052619695663452 20 9.914448738098145
		endloop
	endfacet
	facet normal 0 1 0
		outer loop
			vertex 3.8268344402313232 20 9.238795280456543
			vertex 2.5881905555725098 20 -9.659257888793945
			vertex 2.5881905555725098 20 9.659257888793945
		endloop
	endfacet
	facet normal 0 1 0
		outer loop
			vertex 5 20 8.66025447845459
			vertex 3.8268344402313232 20 -9.238795280456543
			vertex 3.8268344402313232 20 9.238795280456543
		endloop
	endfacet
	facet normal 0.06540303220166714 0 0.9978589295981811
		outer loop
			vertex 1.3052619695663452 -20 9.914448738098145
			vertex 1.3052619695663452 20 9.914448738098145
			vertex 0 20 10
		endloop
	endfacet
	facet normal 0.19509068021315107 0 0.9807852091533448
		outer loop
			vertex 2.5881905555725098 -20 9.659257888793945
			vertex 2.5881905555725098 20 9.659257888793945
			vertex 1.3052619695663452 20 9.914448738098145
		endloop
	endfacet
	facet normal 0.3214392366717333 0 0.9469302071049871
		outer loop
			vertex 3.8268344402313232 -20 9.238795280456543
			vertex 3.8268344402313232 20 9.238795280456543
			vertex 2.5881905555725098 20 9.659257888793945
		endloop
	endfacet
	facet normal 0.4422884271624668 0 0.896872871257767
		outer loop
			vertex 5 -20 8.66025447845459
			vertex 5 20 8.66025447845459
			vertex 3.8268344402313232 20 9.238795280456543
		endloop
	endfacet
	facet normal 0 1 0
		outer loop
			vertex 7.071067810058594 20 7.071067810058594
			vertex 6.087614059448242 20 -7.933533191680908
			vertex 6.087614059448242 20 7.933533191680908
		endloop
	endfacet
	facet normal 0 1 0
		outer loop
			vertex 7.933533191680908 20 6.087614059448242
			vertex 7.071067810058594 20 -7.071067810058594
			vertex 7.071067810058594 20 7.071067810058594
		endloop
	endfacet
	facet normal 0 1 0
		outer loop
			vertex 6.087614059448242 20 7.933533191680908
			vertex 5 20 -8.66025447845459
			vertex 5 20 8.66025447845459
		endloop
	endfacet
	facet normal 0 1 0
		outer loop
			vertex 8.66025447845459 20 5
			vertex 7.933533191680908 20 -6.087614059448242
			vertex 7.933533191680908 20 6.087614059448242
		endloop
	endfacet
	facet normal 0 1 0
		outer loop
			vertex 10 20 0
			vertex 9.914448738098145 20 -1.3052619695663452
			vertex 9.914448738098145 20 1.3052619695663452
		endloop
	endfacet
	facet normal 0 1 0
		outer loop
			vertex 9.914448738098145 20 1.3052619695663452
			vertex 9.659257888793945 20 -2.5881905555725098
			vertex 9.659257888793945 20 2.5881905555725098
		endloop
	endfacet
	facet normal 0 1 0
		outer loop
			vertex 9.659257888793945 20 2.5881905555725098
			vertex 9.238795280456543 20 -3.8268344402313232
			vertex 9.238795280456543 20 3.8268344402313232
		endloop
	endfacet
	facet normal 0 1 0
		outer loop
			vertex 9.238795280456543 20 3.8268344402313232
			vertex 8.66025447845459 20 -5
			vertex 8.66025447845459 20 5
		endloop
	endfacet
	facet normal 0.9978589295981811 0 0.06540303220166714
		outer loop
			vertex 10 -20 0
			vertex 10 20 0
			vertex 9.914448738098145 20 1.3052619695663452
		endloop
	endfacet
	facet normal 0.9807852091533448 0 0.19509068021315107
		outer loop
			vertex 9.914448738098145 -20 1.3052619695663452
			vertex 9.914448738098145 20 1.3052619695663452
			vertex 9.659257888793945 20 2.5881905555725098
		endloop
	endfacet
	facet normal 0.9469302071049871 0 0.3214392366717333
		outer loop
			vertex 9.659257888793945 -20 2.5881905555725098
			vertex 9.659257888793945 20 2.5881905555725098
			vertex 9.238795280456543 20 3.8268344402313232
		endloop
	endfacet
	facet normal 0.896872871257767 0 0.4422884271624668
		outer loop
			vertex 9.238795280456543 -20 3.8268344402313232
			vertex 9.238795280456543 20 3.8268344402313232
			vertex 8.66025447845459 20 5
		endloop
	endfacet
	facet normal 0.6593456378782806 0 0.7518399628982777
		outer loop
			vertex 7.071067810058594 -20 7.071067810058594
			vertex 7.071067810058594 20 7.071067810058594
			vertex 6.087614059448242 20 7.933533191680908
		endloop
	endfacet
	facet normal 0.5555706589827561 0 0.8314693276829074
		outer loop
			vertex 6.087614059448242 -20 7.933533191680908
			vertex 6.087614059448242 20 7.933533191680908
			vertex 5 20 8.66025447845459
		endloop
	endfacet
	facet normal 0.8314693276829074 0 0.5555706589827561
		outer loop
			vertex 8.66025447845459 -20 5
			vertex 8.66025447845459 20 5
			vertex 7.933533191680908 20 6.087614059448242
		endloop
	endfacet
	facet normal 0.7518399628982777 0 0.6593456378782806
		outer loop
			vertex 7.933533191680908 -20 6.087614059448242
			vertex 7.933533191680908 20 6.087614059448242
			vertex 7.071067810058594 20 7.071067810058594
		endloop
	endfacet
	facet normal 0 -1 0
		outer loop
			vertex 1.3052619695663452 -20 9.914448738098145
			vertex 0 -20 10
			vertex 0 -20 -10
		endloop
	endfacet
	facet normal 0 -1 0
		outer loop
			vertex 2.5881905555725098 -20 9.659257888793945
			vertex 1.3052619695663452 -20 9.914448738098145
			vertex 1.3052619695663452 -20 -9.914448738098145
		endloop
	endfacet
	facet normal 0 -1 0
		outer loop
			vertex 3.8268344402313232 -20 9.238795280456543
			vertex 2.5881905555725098 -20 9.659257888793945
			vertex 2.5881905555725098 -20 -9.659257888793945
		endloop
	endfacet
	facet normal 0 -1 0
		outer loop
			vertex 5 -20 8.66025447845459
			vertex 3.8268344402313232 -20 9.238795280456543
			vertex 3.8268344402313232 -20 -9.238795280456543
		endloop
	endfacet
	facet normal 0.06540303220166714 0 0.9978589295981811
		outer loop
			vertex 0 -20 10
			vertex 1.3052619695663452 -20 9.914448738098145
			vertex 0 20 10
		endloop
	endfacet
	facet normal 0.19509068021315107 0 0.9807852091533448
		outer loop
			vertex 1.3052619695663452 -20 9.914448738098145
			vertex 2.5881905555725098 -20 9.659257888793945
			vertex 1.3052619695663452 20 9.914448738098145
		endloop
	endfacet
	facet normal 0.3214392366717333 0 0.9469302071049871
		outer loop
			vertex 2.5881905555725098 -20 9.659257888793945
			vertex 3.8268344402313232 -20 9.238795280456543
			vertex 2.5881905555725098 20 9.659257888793945
		endloop
	endfacet
	facet normal 0.4422884271624668 0 0.896872871257767
		outer loop
			vertex 3.8268344402313232 -20 9.238795280456543
			vertex 5 -20 8.66025447845459
			vertex 3.8268344402313232 20 9.238795280456543
		endloop
	endfacet
	facet normal 0.9978589295981811 0 0.06540303220166714
		outer loop
			vertex 9.914448738098145 -20 1.3052619695663452
			vertex 10 -20 0
			vertex 9.914448738098145 20 1.3052619695663452
		endloop
	endfacet
	facet normal 0.9807852091533448 0 0.19509068021315107
		outer loop
			vertex 9.659257888793945 -20 2.5881905555725098
			vertex 9.914448738098145 -20 1.3052619695663452
			vertex 9.659257888793945 20 2.5881905555725098
		endloop
	endfacet
	facet normal 0.9469302071049871 0 0.3214392366717333
		outer loop
			vertex 9.238795280456543 -20 3.8268344402313232
			vertex 9.659257888793945 -20 2.5881905555725098
			vertex 9.238795280456543 20 3.8268344402313232
		endloop
	endfacet
	facet normal 0.896872871257767 0 0.4422884271624668
		outer loop
			vertex 8.66025447845459 -20 5
			vertex 9.238795280456543 -20 3.8268344402313232
			vertex 8.66025447845459 20 5
		endloop
	endfacet
	facet normal 0 -1 0
		outer loop
			vertex 7.071067810058594 -20 7.071067810058594
			vertex 6.087614059448242 -20 7.933533191680908
			vertex 6.087614059448242 -20 -7.933533191680908
		endloop
	endfacet
	facet normal 0 -1 0
		outer loop
			vertex 7.933533191680908 -20 6.087614059448242
			vertex 7.071067810058594 -20 7.071067810058594
			vertex 7.071067810058594 -20 -7.071067810058594
		endloop
	endfacet
	facet normal 0 -1 0
		outer loop
			vertex 6.087614059448242 -20 7.933533191680908
			vertex 5 -20 8.66025447845459
			vertex 5 -20 -8.66025447845459
		endloop
	endfacet
	facet normal 0 -1 0
		outer loop
			vertex 8.66025447845459 -20 5
			vertex 7.933533191680908 -20 6.087614059448242
			vertex 7.933533191680908 -20 -6.087614059448242
		endloop
	endfacet
	facet normal 0 -1 0
		outer loop
			vertex 10 -20 0
			vertex 9.914448738098145 -20 1.3052619695663452
			vertex 9.914448738098145 -20 -1.3052619695663452
		endloop
	endfacet
	facet normal 0 -1 0
		outer loop
			vertex 9.914448738098145 -20 1.3052619695663452
			vertex 9.659257888793945 -20 2.5881905555725098
			vertex 9.659257888793945 -20 -2.5881905555725098
		endloop
	endfacet
	facet normal 0 -1 0
		outer loop
			vertex 9.659257888793945 -20 2.5881905555725098
			vertex 9.238795280456543 -20 3.8268344402313232
			vertex 9.238795280456543 -20 -3.8268344402313232
		endloop
	endfacet
	facet normal 0 -1 0
		outer loop
			vertex 9.238795280456543 -20 3.8268344402313232
			vertex 8.66025447845459 -20 5
			vertex 8.66025447845459 -20 -5
		endloop
	endfacet
	facet normal 0.7518399628982777 0 0.6593456378782806
		outer loop
			vertex 7.071067810058594 -20 7.071067810058594
			vertex 7.933533191680908 -20 6.087614059448242
			vertex 7.071067810058594 20 7.071067810058594
		endloop
	endfacet
	facet normal 0.5555706589827561 0 0.8314693276829074
		outer loop
			vertex 5 -20 8.66025447845459
			vertex 6.087614059448242 -20 7.933533191680908
			vertex 5 20 8.66025447845459
		endloop
	endfacet
	facet normal 0.6593456378782806 0 0.7518399628982777
		outer loop
			vertex 6.087614059448242 -20 7.933533191680908
			vertex 7.071067810058594 -20 7.071067810058594
			vertex 6.087614059448242 20 7.933533191680908
		endloop
	endfacet
	facet normal 0.8314693276829074 0 0.5555706589827561
		outer loop
			vertex 7.933533191680908 -20 6.087614059448242
			vertex 8.66025447845459 -20 5
			vertex 7.933533191680908 20 6.087614059448242
		endloop
	endfacet
endsolid exported
