ply
format ascii 1.0
element vertex 242
property float x
property float y
property float z
property float nx
property float ny
property float nz
element face 484
property list uchar int vertex_index
end_header
-25 -8 -8 -0.14710273034414761 -0.6994143216739621 -0.6994143216739621
-25 -3.325878381729126 -2.222280979156494 -0.278023481702704 0.8184727440166988 0.5027974850013488
-25 -2.222280979156494 -3.325878381729126 -0.30063927167116483 0.5035623310908061 0.8099635837711625
-25 -2.8284270763397217 -2.8284270763397217 -0.22280408648194455 0.6935625736519915 0.685076123854986
-25 -3.6955180168151855 -1.5307337045669556 -0.25450935897770505 0.906928954297683 0.3357154420774666
-25 -3.9231410026550293 -0.7803612947463989 -0.21535852529207286 0.9643439640571024 0.1538227049907057
-25 -1.5307337045669556 -3.6955180168151855 -0.27552911546496894 0.3385310459666184 0.8997113078359297
-25 -0.7803612947463989 -3.9231410026550293 -0.9417202420812373 0.06253029371626072 0.3305343371303717
-10 -3.325878381729126 -2.222280979156494 0 0.8314696475898097 0.5555701802084753
-10 -2.222280979156494 -3.325878381729126 0 0.554689343547805 0.8320575293538934
-10 -2.8284270763397217 -2.8284270763397217 0 0.6926795125919826 0.7212455149498912
-10 -3.6955180168151855 -1.5307337045669556 3.528026508185283e-9 0.9326648634449806 0.36074402627785224
-10 -3.9231410026550293 -0.7803612947463989 2.3835200670732408e-9 0.985121615663796 0.17185866970261374
-10 -1.5307337045669556 -3.6955180168151855 0 0.3817047839304712 0.9242842949680539
-10 -0.7803612947463989 -3.9231410026550293 -1.884755231143565e-9 0.23975455638546778 0.970833535006083
-10 -0.6160746812820435 -3.939321994781494 0 0.09801728948788574 0.9951847119813729
-6 -3.325878381729126 -2.222280979156494 0 0.8036012626790954 0.595168052419284
-6 -3.6955180168151855 -1.5307337045669556 -2.8108089106841744e-9 0.9039720866317745 0.42759147160648037
-6 -3.9231410026550293 -0.7803612947463989 3.795244163464757e-9 0.9704023117331274 0.24149400278889396
-6 -0.15607225894927979 -3.984628200531006 -5.679769056219406e-9 0.09801728948788574 0.9951847119813729
-25 -8 8 -0.09364585083031385 -0.8904966949392982 0.4452483474696491
-25 -4 0 -0.2576626579799978 0.9662349376226689 0
-25 -3.9231410026550293 0.7803612947463989 -0.852810753519665 0.5127355534805429 -0.09907608630856805
-25 -3.6955180168151855 1.5307337045669556 -0.2756202503061511 0.8809434720786696 -0.38467138784052124
-25 -3.325878381729126 2.222280979156494 -0.3934855766456341 0.7691527023304202 -0.5035605439961166
-25 -2.8284270763397217 2.8284270763397217 -0.22280409143276614 0.6850760932597673 -0.6935626022824142
-25 -2.222280979156494 3.325878381729126 -0.3211075127893579 0.5040031766284846 -0.8017922194550339
-25 -1.5307337045669556 3.6955180168151855 -0.2756202490602769 0.35091730591476067 -0.8949248698731515
-25 -0.7803612947463989 3.9231410026550293 -0.20292760625109252 0.16222880935263137 -0.9656615349268236
-10 -4 0 1.6834833313993427e-9 0.9990224115680502 -0.044206573999319106
-10 -3.9231410026550293 0.7803612947463989 0 0.9829798408151166 -0.18371345228667407
-10 -3.743438720703125 1.372760534286499 0 0.9569403410180507 -0.2902846598293761
-10 -3.6955180168151855 1.5307337045669556 2.011631354677755e-9 0.899868390888397 -0.4361615286564454
-10 -3.4036972522735596 2.0766921043395996 1.5674193287063948e-9 0.8819213044314645 -0.4713966618357664
-10 -3.325878381729126 2.222280979156494 1.892343618350644e-9 0.7998737110358906 -0.6001683483770804
-10 -2.8284270763397217 2.8284270763397217 5.089039766837056e-9 0.7229540817167174 -0.6908960817149987
-10 -2.222280979156494 3.325878381729126 3.6465216769836784e-9 0.5630774383351397 -0.8264041374762937
-10 -1.67632257938385 3.617699146270752 4.6168873853744655e-9 0.4713966618357664 -0.8819213044314645
-10 -1.5307337045669556 3.6955180168151855 3.712105119568956e-10 0.3790406935647488 -0.9253800044424745
-10 -0.9383344054222107 3.875220537185669 0 0.2902846598293761 -0.9569403410180507
-10 -0.7803612947463989 3.9231410026550293 -3.1123270663262557e-9 0.18344506642513053 -0.9830299627194887
-6 -4 0 2.5334269868222137e-9 0.9988404962973213 0.048142112090360366
-6 -3.9231410026550293 0.7803612947463989 1.354202513189806e-9 0.9811962736413317 -0.1930126228834912
-6 -3.6955180168151855 1.5307337045669556 -1.9677430921882505e-9 0.9510925473073225 -0.30890608031644246
-6 -3.6215901374816895 1.6690431833267212 -1.103164173607143e-10 0.8819213044314645 -0.4713966618357664
-6 -2.707197904586792 2.92791748046875 6.5411675575692015e-9 0.6343933891444988 -0.7730103672071652
-6 -2.222280979156494 3.325878381729126 3.948187063947045e-9 0.6213819311181008 -0.7835078146897705
-6 -2.0839715003967285 3.399806499481201 2.03508612982198e-9 0.4713966618357664 -0.8819213044314645
-6 -1.3806592226028442 3.7410426139831543 -4.622137686168681e-9 0.2902846871203997 -0.9569403327394095
-6 -0.6242890357971191 3.9385128021240234 0 0.09801728948788574 -0.9951847119813729
-25 0 -4 -0.17500271123617347 0.018710417908746682 0.9843901519832816
-25 0.7803612947463989 -3.9231410026550293 -0.2336192899196822 -0.17153485288927145 0.9570777510848736
-25 1.5307337045669556 -3.6955180168151855 -0.2756202490602769 -0.35091730591476067 0.8949248698731515
-25 2.222280979156494 -3.325878381729126 -0.32110750314298914 -0.5040032210924038 0.8017921953684487
-25 2.8284270763397217 -2.8284270763397217 -0.22280408648194455 -0.685076123854986 0.6935625736519915
-25 3.325878381729126 -2.222280979156494 -0.39348559560455043 -0.7691527407392814 0.5035604705146977
-25 3.6955180168151855 -1.5307337045669556 -0.2756202503061511 -0.8809434720786696 0.38467138784052124
-25 3.9231410026550293 -0.7803612947463989 -0.8528107704041972 -0.5127355277959236 0.09907607389493894
-25 8 -8 -0.07415557556596764 0.7051598934328582 -0.7051598934328582
-10 0 -4 -1.4934733421004058e-9 0.058596055841189224 0.9982817749713034
-10 0.16428658366203308 -3.9838192462921143 0 -0.09801728948788574 0.9951847119813729
-10 0.7803612947463989 -3.9231410026550293 -3.896377081850889e-9 -0.1912249218441806 0.9815462440790486
-10 0.9383344054222107 -3.875220537185669 0 -0.2902846598293761 0.9569403410180507
-10 1.5307337045669556 -3.6955180168151855 3.712105397124716e-10 -0.3790406935647488 0.9253800044424745
-10 1.67632257938385 -3.617699146270752 4.6168873853744655e-9 -0.4713966618357664 0.8819213044314645
-10 2.222280979156494 -3.325878381729126 3.6465216769836784e-9 -0.5630774383351397 0.8264041374762937
-10 2.8284270763397217 -2.8284270763397217 5.089039766837056e-9 -0.7229540817167174 0.6908960817149987
-10 3.325878381729126 -2.222280979156494 1.892343618350644e-9 -0.7998737110358906 0.6001683483770804
-10 3.4036972522735596 -2.0766921043395996 1.5674193287063948e-9 -0.8819213044314645 0.4713966618357664
-10 3.6955180168151855 -1.5307337045669556 2.0116313285293096e-9 -0.8998683791913434 0.4361615527892671
-10 3.743438720703125 -1.372760534286499 0 -0.9569403410180507 0.2902846598293761
-10 3.9231410026550293 -0.7803612947463989 0 -0.9829798408151166 0.18371345228667407
-6 0 -4 -3.6248343132780743e-9 -0.06559129990223987 0.9978465720626264
-6 0.6242890357971191 -3.9385128021240234 -1.7300718478419288e-9 -0.09801730424588552 0.9951847105278344
-6 1.3806592226028442 -3.7410426139831543 -3.2434831913620633e-9 -0.2902846871203997 0.9569403327394095
-6 2.0839715003967285 -3.399806499481201 4.13871743020094e-9 -0.4713966618357664 0.8819213044314645
-6 2.222280979156494 -3.325878381729126 3.948187063947045e-9 -0.6213819311181008 0.7835078146897705
-6 2.707197904586792 -2.92791748046875 6.5411675575692015e-9 -0.6343933891444988 0.7730103672071652
-6 3.6215901374816895 -1.6690431833267212 -1.103164173607143e-10 -0.8819213044314645 0.4713966618357664
-6 3.6955180168151855 -1.5307337045669556 -1.9677430921882505e-9 -0.9510925473073225 0.30890608031644246
-6 3.9231410026550293 -0.7803612947463989 1.354202513189806e-9 -0.9811962736413317 0.1930126228834912
-25 0.7803612947463989 3.9231410026550293 -0.8998104891906131 -0.09323049297281027 -0.42620318947961455
-25 1.5307337045669556 3.6955180168151855 -0.2756202503061511 -0.38467138784052124 -0.8809434720786696
-25 3.9231410026550293 0.7803612947463989 -0.1862977547828416 -0.9693854806261938 -0.15995291967949643
-25 3.6955180168151855 1.5307337045669556 -0.25450935897770505 -0.906928954297683 -0.3357154420774666
-25 2.8284270763397217 2.8284270763397217 -0.22280408648194455 -0.6935625736519915 -0.685076123854986
-25 2.222280979156494 3.325878381729126 -0.3934855766456341 -0.5035605439961166 -0.7691527023304202
-25 3.325878381729126 2.222280979156494 -0.24149390064519918 -0.8241158298252674 -0.5123610006456164
-25 0 4 -0.18772300020681693 -0.027368710076218168 -0.9818406331488401
-25 4 0 -0.2576626579799978 -0.9662349376226689 0
-25 8 8 -0.09364585821555643 0.44524834715899214 0.8904966943179843
-10 0.6160746812820435 3.939321994781494 0 -0.09801728948788574 -0.9951847119813729
-10 0.7803612947463989 3.9231410026550293 -6.377525642802912e-10 -0.25222536577675314 -0.9676685201342363
-10 1.372760534286499 3.743438720703125 0 -0.2902846598293761 -0.9569403410180507
-10 1.5307337045669556 3.6955180168151855 2.011631354677755e-9 -0.4361615286564454 -0.899868390888397
-10 3.6955180168151855 1.5307337045669556 3.528026508185283e-9 -0.9326648634449806 -0.36074402627785224
-10 2.8284270763397217 2.8284270763397217 1.060166030875876e-9 -0.7016770606909198 -0.7124951245448288
-10 2.0766921043395996 3.4036972522735596 1.4325875143249279e-9 -0.4713966618357664 -0.8819213044314645
-10 2.222280979156494 3.325878381729126 1.122351231782117e-9 -0.6186897267844376 -0.7856354256087221
-6 0.15607225894927979 3.984628200531006 -5.125380980681888e-9 -0.09801726735088591 -0.9951847141616801
-6 0.7803612947463989 3.9231410026550293 -6.144416881336242e-9 -0.13033945659330665 -0.9914694276955601
-6 0.9304357767105103 3.8776164054870605 -1.969517413538299e-9 -0.2902846598293761 -0.9569403410180507
-6 1.5307337045669556 3.6955180168151855 -2.6238284811790213e-9 -0.3212608984930461 -0.9469907259838614
-6 1.6690431833267212 3.6215901374816895 4.54171591229224e-9 -0.471396567516626 -0.8819213548460787
-6 3.9231410026550293 0.7803612947463989 3.305500393141038e-9 -0.9787043555808571 -0.20527489950566072
-6 3.6955180168151855 1.5307337045669556 -2.8108087244583193e-9 -0.9039720981512884 -0.4275914472530492
-6 2.8284270763397217 2.8284270763397217 2.1927766131042507e-10 -0.707386420660468 -0.7068270310798614
-6 2.222280979156494 3.325878381729126 6.079790889950417e-9 -0.4998367724333162 -0.8661196227562595
-6 2.343510150909424 3.2263882160186768 0 -0.6343933242983579 -0.7730104204250281
-6 3.325878381729126 2.222280979156494 6.497856192151872e-10 -0.8168667617852183 -0.5768263980527688
-10 0 4 -8.511625273880705e-10 0.009056429357842536 -0.999958989702721
-6 0 4 0 0.08022227891967007 -0.9967769991151153
-10 4 0 1.6834833313993427e-9 -0.9990224115680502 0.044206573999319106
-6 4 0 2.3810650572310413e-9 -0.9986910544792778 -0.05114858456564168
6 -3.325878381729126 -2.222280979156494 0 0.8492517031235955 0.5279882051160544
6 -2.222280979156494 -3.325878381729126 0 0.5825539200311763 0.8127920584358029
6 -2.8284270763397217 -2.8284270763397217 0 0.7281499954739622 0.6854178171679438
6 -3.6955180168151855 -1.5307337045669556 0 0.9354465700844591 0.3534681237639696
6 -3.9231410026550293 -0.7803612947463989 -1.4657351973906404e-9 0.9902655465478891 0.13919104612082847
6 -3.874202251434326 -0.9416913390159607 0 0.9569403327394095 0.2902846871203997
6 -3.980785369873047 -0.19509032368659973 0 0.9951847119813729 0.09801728948788574
6 -1.5307337045669556 -3.6955180168151855 0 0.4127923895164744 0.9108251441178374
6 -0.7803612947463989 -3.9231410026550293 0 0.25004684313687875 0.9682337404972422
6 -0.6242890357971191 -3.9385128021240234 -1.2497530774961545e-9 0.09801722307688585 0.9951847185222933
10 -3.325878381729126 -2.222280979156494 0 0.8466272940057697 0.5321862691243244
10 -3.6955180168151855 -1.5307337045669556 0 0.9202494542669842 0.39133226537217414
10 -3.9231410026550293 -0.7803612947463989 -5.460987726711789e-9 0.9633784408153212 0.2681454451827228
10 -3.9385128021240234 -0.6242890357971191 -3.121980650198536e-9 0.9951847119813729 0.09801728948788574
6.800000190734863 -0.031214451417326927 -3.9969255924224854 3.9329258116296233e-17 0.09801729686688564 0.9951847112546036
25 -8 -8 0.07415557556596764 -0.7051598934328582 -0.7051598934328582
25 -3.325878381729126 -2.222280979156494 0.2780235188004995 0.7777403210434256 0.5637578522886023
25 -2.222280979156494 -3.325878381729126 0.24149390064519918 0.5123610006456164 0.8241158298252674
25 -2.8284270763397217 -2.8284270763397217 0.24844162648572685 0.6620932349985948 0.7070426482173633
25 -3.6955180168151855 -1.5307337045669556 0.2755290936720857 0.8755696044913458 0.39681429690865117
25 -3.9231410026550293 -0.7803612947463989 0.8723433844332378 0.47639055319054463 0.10985927574115478
25 -1.5307337045669556 -3.6955180168151855 0.2207019198567525 0.34347841431649545 0.912859924342267
25 -0.7803612947463989 -3.9231410026550293 0.18886124121471315 0.16077781169525426 0.9687527686842102
6 -4 0 -3.389051957034911e-9 0.9999542322049321 0.009567313909590166
6 -3.9423558712005615 0.5852709412574768 0 0.9951847112546036 -0.09801729686688564
6 -3.9231410026550293 0.7803612947463989 -2.368345800824118e-9 0.9667540433770448 -0.2557080749881292
6 -3.6955180168151855 1.5307337045669556 0 0.9469677401793327 -0.32132864649708387
6 -3.538421154022217 1.8246413469314575 0 0.8819213044314645 -0.4713966618357664
6 -3.325878381729126 2.222280979156494 1.1646972423068026e-10 0.8477902519819924 -0.5303316779566442
6 -2.92791748046875 2.707197904586792 1.2074941965211075e-9 0.7730104204250281 -0.6343933242983579
6 -2.8284270763397217 2.8284270763397217 -3.2503464178011982e-9 0.7484647588713037 -0.6631745658027915
6 -2.343510150909424 3.2263882160186768 -1.3219585219929514e-10 0.6343931589895909 -0.7730105560904117
6 -2.222280979156494 3.325878381729126 0 0.5133321412620925 -0.8581900213514925
6 -1.6690431833267212 3.6215901374816895 0 0.4713966618357664 -0.8819213044314645
6 -1.5307337045669556 3.6955180168151855 0 0.40292549359923074 -0.9152327827431752
6 -0.9304357767105103 3.8776164054870605 0 0.2902846871203997 -0.9569403327394095
6 -0.7803612947463989 3.9231410026550293 0 0.2096817240816359 -0.9777696940415737
10 -3.984628200531006 0.15607225894927979 -3.045108364469881e-9 0.9951847119813729 -0.09801728948788574
10 -3.9231410026550293 0.7803612947463989 0 0.9727544062799471 -0.2318380147062762
10 -3.6955180168151855 1.5307337045669556 0 0.937170457318954 -0.34887180156696895
10 -3.6215901374816895 1.6690431833267212 -2.2349403215398915e-10 0.8819213044314645 -0.4713966618357664
6.800000190734863 -2.8041813373565674 2.848325252532959 -3.366210839878335e-9 0.6343933891444988 -0.7730103672071652
10 -3.2263882160186768 2.343510150909424 -3.706059540508092e-9 0.7730104496547076 -0.6343932886818924
10 -2.0839715003967285 3.399806499481201 -1.4024277503021612e-9 0.4713966618357664 -0.8819213044314645
10 -1.3806592226028442 3.7410426139831543 0 0.2902846598293761 -0.9569403410180507
10 -0.6242890357971191 3.9385128021240234 0 0.09801728948788574 -0.9951847119813729
25 -8 8 0.09364585083031385 -0.4452483474696491 0.8904966949392982
25 -4 0 0.16109071249465703 0.9866806009912586 0.022609156894773486
25 -3.9231410026550293 0.7803612947463989 0.24925149803719526 0.9547691874806056 -0.162140338484408
25 -3.6955180168151855 1.5307337045669556 0.25956108750049106 0.9010418509044278 -0.3474933449352455
25 -3.325878381729126 2.222280979156494 0.2781431082759934 0.8106749068988368 -0.5152112252689486
25 -2.8284270763397217 2.8284270763397217 0.28512386251301314 0.6928421444514024 -0.6623248039275311
25 -2.222280979156494 3.325878381729126 0.24805385636054955 0.5634142591016661 -0.7880568868968664
25 -1.5307337045669556 3.6955180168151855 0.2546203511050618 0.39044032675161194 -0.8847173718477723
25 -0.7803612947463989 3.9231410026550293 0.8843034627092754 0.10155691345701971 -0.4557341101667382
6 0 -4 -4.9658922131319185e-11 -0.03281271040485329 0.999461518036531
6 0.15607225894927979 -3.984628200531006 1.6587202656670602e-9 -0.09801725259288596 0.995184715615218
6 0.7803612947463989 -3.9231410026550293 3.8350715961172707e-10 -0.2535746323826294 0.9673158252670192
6 0.9304357767105103 -3.8776164054870605 1.3829314427660702e-9 -0.29028460524732697 0.9569403575753316
6 1.5307337045669556 -3.6955180168151855 9.243696459971551e-10 -0.43741599179919277 0.8992592785833952
6 1.6690431833267212 -3.6215901374816895 -2.585477113835138e-9 -0.47139649637729175 0.8819213928708238
6 2.222280979156494 -3.325878381729126 1.1798700918135802e-9 -0.5750640637039314 0.8181083807395697
6 2.343510150909424 -3.2263882160186768 -1.3219585219929514e-10 -0.6343931589895909 0.7730105560904117
6 2.8284270763397217 -2.8284270763397217 -3.2503464178011982e-9 -0.7484647588713037 0.6631745658027915
6 2.92791748046875 -2.707197904586792 1.2074941965211075e-9 -0.7730104204250281 0.6343933242983579
6 3.325878381729126 -2.222280979156494 1.1646972423068026e-10 -0.8477902519819924 0.5303316779566442
6 3.538421154022217 -1.8246413469314575 0 -0.8819213044314645 0.4713966618357664
6 3.6955180168151855 -1.5307337045669556 0 -0.9469677401793327 0.32132864649708387
6 3.9231410026550293 -0.7803612947463989 -2.368345800824118e-9 -0.9667540433770448 0.2557080749881292
6 3.9423558712005615 -0.5852709412574768 0 -0.9951847119813729 0.09801728948788574
6.800000190734863 0.7491468191146851 -3.926215410232544 0 -0.09801729686688564 0.9951847112546036
6.800000190734863 1.5007188320159912 -3.704622983932495 0 -0.2902846871203997 0.9569403327394095
10 0 -4 1.2828043811184816e-9 0.0019063471730403929 0.9999981829185771
6.800000190734863 2.1946189403533936 -3.3406641483306885 -3.840482547657038e-9 -0.47139670819537494 0.881921279651741
6.800000190734863 2.8041813373565674 -2.848325252532959 -3.366210839878335e-9 -0.6343933891444988 0.7730103672071652
10 3.2263882160186768 -2.343510150909424 -3.7060591783270508e-9 -0.7730104204250281 0.6343933242983579
10 3.6215901374816895 -1.6690431833267212 -2.2349403215398915e-10 -0.8819213044314645 0.4713966618357664
10 3.6955180168151855 -1.5307337045669556 0 -0.937170457318954 0.34887180156696895
10 3.9231410026550293 -0.7803612947463989 0 -0.9727544062799471 0.2318380147062762
10 3.984628200531006 -0.15607225894927979 -3.045108364469881e-9 -0.9951847119813729 0.09801728948788574
25 0 -4 0.1656359324639663 -0.035890207551002556 0.985533678206249
25 0.7803612947463989 -3.9231410026550293 0.8579379742140092 -0.11592827502146169 0.5005028146295586
25 1.5307337045669556 -3.6955180168151855 0.22614378923608108 -0.4007154053305695 0.8878548026117246
25 2.222280979156494 -3.325878381729126 0.24738602355567316 -0.5632184151328549 0.7884067301872476
25 2.8284270763397217 -2.8284270763397217 0.2851238507383641 -0.6928421754440143 0.6623247765757617
25 3.325878381729126 -2.222280979156494 0.27814314431419324 -0.8106749250739007 0.5152111772151681
25 3.6955180168151855 -1.5307337045669556 0.2595611265469903 -0.9010418233900687 0.34749338711342104
25 3.9231410026550293 -0.7803612947463989 0.24925149803719526 -0.9547691874806056 0.162140338484408
25 8 -8 0.14710273034414761 0.6994143216739621 -0.6994143216739621
6 0.6242890357971191 3.9385128021240234 0 -0.09801728948788574 -0.9951847119813729
6 0.7803612947463989 3.9231410026550293 0 -0.1950904009835211 -0.9807852646956361
6 1.3806592226028442 3.7410426139831543 0 -0.2902846871203997 -0.9569403327394095
6 1.5307337045669556 3.6955180168151855 0 -0.38268324228724265 -0.923879611244086
6 3.980785369873047 0.19509032368659973 0 -0.9951847119813729 -0.09801728948788574
6 3.874202251434326 0.9416913390159607 0 -0.9569403327394095 -0.2902846871203997
6 3.9231410026550293 0.7803612947463989 -1.465735089408431e-9 -0.9902655486018068 -0.13919103150836454
6 3.6955180168151855 1.5307337045669556 0 -0.9354465700844591 -0.3534681237639696
6 2.8284270763397217 2.8284270763397217 4.3395908184884964e-9 -0.6930435155576979 -0.7208957522023742
6 2.0839715003967285 3.399806499481201 0 -0.4713966850155712 -0.881921292041603
6 2.222280979156494 3.325878381729126 0 -0.6191653665201935 -0.785260624825869
6 3.2015156745910645 2.3738174438476562 4.513790158681616e-9 -0.7730104204250281 -0.6343933242983579
6 3.325878381729126 2.222280979156494 0 -0.8714755354780213 -0.4904389779200836
10 0.15607225894927979 3.984628200531006 0 -0.09801728948788574 -0.9951847119813729
10 0.7803612947463989 3.9231410026550293 0 -0.1968679585614978 -0.9804300112153996
10 0.9304357767105103 3.8776164054870605 0 -0.2902846598293761 -0.9569403410180507
10 1.5307337045669556 3.6955180168151855 0 -0.3843573611885961 -0.9231843905201924
10 1.6690431833267212 3.6215901374816895 -4.6168873853744655e-9 -0.4713966618357664 -0.8819213044314645
10 3.9385128021240234 0.6242890357971191 -3.121980650198536e-9 -0.9951847119813729 -0.09801728948788574
10 3.9231410026550293 0.7803612947463989 -5.460987726711789e-9 -0.9633784408153212 -0.2681454451827228
10 3.6955180168151855 1.5307337045669556 0 -0.9202494542669842 -0.39133226537217414
10 2.92791748046875 2.707197904586792 -1.4685737947501349e-9 -0.7730104204250281 -0.6343933242983579
10 2.8284270763397217 2.8284270763397217 0 -0.6641616684652564 -0.7475889767388542
10 2.222280979156494 3.325878381729126 -5.821458584290573e-9 -0.5041835444798893 -0.863596522385133
10 2.343510150909424 3.2263882160186768 0 -0.6343933242983579 -0.7730104204250281
10 3.325878381729126 2.222280979156494 -1.6528205410395575e-10 -0.8503536097599265 -0.5262116858910135
6 0 4 0 -0.010942851498310932 -0.9999401252080475
10 0 4 0 0.07687663158811218 -0.9970406127714487
6 4 0 -3.3890517350205016e-9 -0.9999542322138419 -0.00956731297835283
25 0.7803612947463989 3.9231410026550293 0.2336163417011224 -0.17087370487919637 -0.9571967310177368
25 1.5307337045669556 3.6955180168151855 0.27561684713205875 -0.35029920008184406 -0.8951680423244586
25 3.9231410026550293 0.7803612947463989 0.8723433844332378 -0.47639055319054463 -0.10985927574115478
25 3.6955180168151855 1.5307337045669556 0.27552911469511876 -0.8755695765927356 -0.3968143438694494
25 2.8284270763397217 2.8284270763397217 0.30907804257413884 -0.6591098411676976 -0.6855982649295661
25 2.222280979156494 3.325878381729126 0.30073354039542843 -0.5141317911296985 -0.803260754071179
25 3.325878381729126 2.222280979156494 0.32002208013920463 -0.7726250977956799 -0.5483031337495643
25 0 4 0.1750004309865948 0.01939057392822313 -0.984377394497273
25 4 0 0.16109071249465703 -0.9866806009912586 -0.022609156894773486
25 8 8 0.09364585083031385 0.8904966949392982 0.4452483474696491
3 0 1 3
3 0 3 2
3 0 4 1
3 0 5 4
3 0 21 5
3 0 22 21
3 0 2 6
3 0 6 7
3 0 7 58
3 0 129 20
3 0 58 129
3 0 20 22
3 20 23 22
3 20 24 23
3 20 25 24
3 20 26 25
3 20 27 26
3 20 28 27
3 20 88 28
3 20 81 88
3 20 160 90
3 7 50 58
3 50 51 58
3 51 52 58
3 52 53 58
3 53 54 58
3 54 55 58
3 55 56 58
3 56 57 58
3 57 90 58
3 20 90 81
3 81 90 82
3 82 90 86
3 57 89 90
3 83 90 89
3 83 84 90
3 84 87 90
3 85 86 90
3 85 90 87
3 58 90 241
3 129 132 130
3 129 131 132
3 129 134 160
3 129 130 133
3 129 133 134
3 129 135 131
3 129 136 135
3 129 194 136
3 129 195 194
3 20 129 160
3 160 134 161
3 160 161 162
3 160 162 163
3 160 163 164
3 160 164 165
3 160 165 166
3 160 166 167
3 160 167 168
3 160 168 241
3 58 202 129
3 58 241 202
3 129 202 195
3 202 196 195
3 202 197 196
3 202 198 197
3 202 199 198
3 202 200 199
3 202 201 200
3 202 240 201
3 202 234 240
3 90 160 241
3 241 168 239
3 241 239 232
3 241 232 233
3 241 233 237
3 241 235 234
3 241 238 235
3 202 241 234
3 241 237 236
3 241 236 238
3 1 8 3
3 2 3 9
3 1 4 11
3 4 5 12
3 5 21 29
3 2 13 6
3 6 14 7
3 7 15 50
3 3 8 16
3 3 10 9
3 3 16 10
3 1 11 17
3 4 18 11
3 4 12 18
3 1 17 8
3 5 41 12
3 5 29 41
3 2 9 13
3 6 13 14
3 7 14 15
3 15 59 50
3 8 17 16
3 15 19 59
3 19 72 59
3 21 22 29
3 22 23 31
3 23 24 33
3 24 25 34
3 25 26 36
3 26 27 37
3 27 28 39
3 28 88 110
3 22 30 29
3 22 31 30
3 23 32 31
3 23 33 32
3 24 34 33
3 25 35 34
3 25 46 35
3 26 37 36
3 25 36 46
3 27 38 37
3 27 39 38
3 28 40 39
3 28 111 40
3 28 110 111
3 30 31 42
3 32 33 44
3 31 43 42
3 35 46 45
3 36 37 47
3 38 39 48
3 40 111 49
3 50 60 51
3 51 62 52
3 52 64 53
3 53 65 54
3 54 67 55
3 55 68 56
3 56 70 57
3 57 112 89
3 50 59 60
3 51 60 61
3 51 61 62
3 52 62 63
3 52 63 64
3 53 64 65
3 54 65 76
3 54 66 67
3 54 76 66
3 55 67 68
3 56 68 69
3 56 69 70
3 57 70 71
3 57 71 112
3 60 73 61
3 62 74 63
3 64 75 65
3 66 76 77
3 68 78 69
3 70 79 80
3 70 80 71
3 81 91 88
3 81 82 93
3 82 86 97
3 83 89 112
3 84 95 87
3 85 98 86
3 88 91 110
3 81 92 91
3 81 93 92
3 82 94 93
3 82 97 94
3 83 104 84
3 83 112 113
3 84 104 95
3 87 95 105
3 85 87 109
3 85 96 98
3 85 109 96
3 86 98 97
3 91 99 110
3 92 101 100
3 92 93 101
3 94 97 103
3 94 103 102
3 83 113 104
3 87 105 109
3 96 109 106
3 98 108 107
3 14 19 15
3 9 10 115
3 10 16 116
3 11 119 17
3 11 18 119
3 12 120 18
3 12 41 120
3 16 17 114
3 9 121 13
3 13 122 14
3 14 122 19
3 19 169 72
3 29 30 42
3 31 32 43
3 33 34 44
3 32 44 43
3 36 47 46
3 37 38 47
3 39 40 48
3 29 138 41
3 29 42 138
3 42 43 139
3 43 44 140
3 34 142 44
3 34 35 143
3 35 45 144
3 45 46 145
3 46 47 146
3 38 148 47
3 38 48 148
3 40 150 48
3 40 49 150
3 49 111 229
3 59 72 60
3 60 72 73
3 61 74 62
3 63 75 64
3 65 75 76
3 67 78 68
3 69 79 70
3 69 78 79
3 71 80 112
3 61 73 171
3 61 171 74
3 63 74 173
3 63 173 75
3 72 170 73
3 66 77 177
3 66 178 67
3 67 179 78
3 75 175 76
3 76 176 77
3 80 183 112
3 112 183 113
3 78 181 79
3 79 182 80
3 91 92 100
3 99 111 110
3 91 100 99
3 93 94 102
3 93 102 101
3 97 107 103
3 96 106 108
3 97 98 107
3 96 108 98
3 99 229 111
3 99 100 203
3 100 101 204
3 101 102 205
3 103 107 212
3 102 103 206
3 95 104 208
3 95 208 105
3 104 113 207
3 105 215 109
3 106 213 108
3 107 108 213
3 106 109 214
3 16 114 116
3 10 116 115
3 17 117 114
3 18 118 119
3 18 120 118
3 41 137 120
3 17 126 117
3 17 119 126
3 9 115 121
3 13 121 122
3 19 122 123
3 19 123 128
3 19 128 169
3 125 124 114
3 118 120 127
3 169 128 186
3 41 138 137
3 42 139 138
3 43 140 139
3 44 142 141
3 44 153 140
3 44 141 153
3 34 143 142
3 35 144 143
3 45 155 144
3 45 145 155
3 46 146 145
3 47 147 146
3 47 148 147
3 48 149 148
3 48 150 149
3 49 230 150
3 49 229 230
3 137 138 151
3 153 152 139
3 153 141 154
3 142 143 156
3 146 147 157
3 148 149 158
3 150 230 159
3 72 169 170
3 73 170 184
3 73 184 171
3 74 171 172
3 74 172 185
3 74 185 173
3 75 173 174
3 75 174 187
3 75 187 175
3 76 175 176
3 77 176 188
3 66 177 178
3 77 188 177
3 67 178 179
3 78 179 180
3 79 181 182
3 80 182 183
3 113 183 231
3 78 180 191
3 78 191 181
3 179 178 189
3 191 180 190
3 191 192 182
3 231 183 193
3 99 203 229
3 100 204 203
3 102 206 205
3 101 217 204
3 101 205 217
3 103 219 206
3 103 212 219
3 113 231 207
3 104 207 209
3 104 209 208
3 105 210 215
3 105 208 222
3 105 222 210
3 106 211 213
3 106 214 211
3 107 213 212
3 109 215 214
3 229 203 216
3 217 205 218
3 219 212 220
3 209 207 221
3 209 221 222
3 223 228 215
3 211 214 224
3 211 224 225
3 227 226 213
3 114 124 116
3 115 116 132
3 125 114 117
3 126 119 118
3 120 137 127
3 118 127 126
3 121 115 131
3 122 121 135
3 123 122 136
3 116 124 130
3 115 132 131
3 116 130 132
3 117 134 125
3 126 134 117
3 125 133 124
3 137 161 127
3 126 127 134
3 128 123 136
3 128 136 186
3 121 131 135
3 122 135 136
3 125 134 133
3 124 133 130
3 127 161 134
3 136 194 186
3 138 139 151
3 139 152 151
3 153 139 140
3 141 142 154
3 143 144 156
3 145 146 166
3 147 148 157
3 149 150 158
3 137 151 161
3 152 162 151
3 153 163 152
3 153 154 163
3 154 142 164
3 142 156 164
3 144 155 165
3 165 156 144
3 145 166 155
3 146 157 166
3 157 148 167
3 148 158 167
3 158 150 168
3 150 159 168
3 159 230 239
3 162 161 151
3 163 162 152
3 164 163 154
3 165 164 156
3 155 166 165
3 157 167 166
3 158 168 167
3 159 239 168
3 184 170 169
3 184 169 186
3 172 171 195
3 174 173 196
3 178 177 189
3 176 175 197
3 180 179 190
3 191 182 181
3 183 182 193
3 192 193 182
3 184 186 194
3 184 195 171
3 185 172 195
3 185 196 173
3 187 174 196
3 187 197 175
3 188 176 197
3 188 198 177
3 198 189 177
3 189 199 179
3 190 179 199
3 191 190 200
3 191 200 192
3 193 240 231
3 193 192 201
3 184 194 195
3 185 195 196
3 187 196 197
3 188 197 198
3 189 198 199
3 190 199 200
3 192 200 201
3 193 201 240
3 204 217 203
3 229 216 230
3 203 217 216
3 206 219 205
3 205 219 218
3 212 226 220
3 207 231 221
3 209 222 208
3 210 223 215
3 211 225 227
3 213 226 212
3 211 227 213
3 215 228 214
3 214 228 224
3 230 216 239
3 216 217 232
3 217 218 232
3 218 219 233
3 219 220 233
3 221 231 240
3 221 234 222
3 210 222 234
3 210 234 223
3 228 223 235
3 227 225 236
3 224 236 225
3 220 226 237
3 226 227 237
3 224 228 238
3 216 232 239
3 218 233 232
3 220 237 233
3 221 240 234
3 228 235 238
3 234 235 223
3 227 236 237
3 224 238 236

