o 
usemtl rect-floor-slab-material
v 0 0 0
v 0 0 0.25
v 0 2 0
v 0 2 0.25
v 4 0 0
v 4 0 0.25
v 4 2 0
v 4 2 0.25
vn -0.12309149097933274 -0.12309149097933274 -0.9847319278346619
vn -0.060522753266880246 -0.24209101306752098 0.9683640522700839
vn -0.030993786368687184 0.12397514547474874 -0.9918011637979899
vn -0.06225728063646904 0.06225728063646904 0.9961164901835047
vn 0.030993786368687184 -0.12397514547474874 -0.9918011637979899
vn 0.06225728063646904 -0.06225728063646904 0.9961164901835047
vn 0.12309149097933274 0.12309149097933274 -0.9847319278346619
vn 0.060522753266880246 0.24209101306752098 0.9683640522700839
f 2//2 1//1 5//5
f 3//3 5//5 1//1
f 2//2 4//4 1//1
f 4//4 2//2 6//6
f 4//4 3//3 1//1
f 4//4 8//8 3//3
f 6//6 5//5 7//7
f 6//6 2//2 5//5
f 7//7 5//5 3//3
f 8//8 7//7 3//3
f 8//8 4//4 6//6
f 8//8 6//6 7//7
