o 
usemtl scale-one-hole-1e6-material
v 0 0 0
v 1000000 500000 0
v 0 0 250000
v 1000000 500000 250000
v 0 2000000 0
v 1000000 1500000 0
v 0 2000000 250000
v 1000000 1500000 250000
v 2000000 500000 0
v 4000000 0 0
v 2000000 500000 250000
v 4000000 0 250000
v 2000000 1500000 0
v 4000000 2000000 0
v 2000000 1500000 250000
v 4000000 2000000 250000
vn -0.23570226039551584 -0.23570226039551584 -0.9428090415820634
vn 0.045221562159013656 0.09044312431802731 -0.9948743898500415
vn -0.1111111111111111 -0.4444444444444444 0.8888888888888888
vn 0.09044312431802731 0.045221562159013656 0.9948743898500415
vn -0.08512564891866677 0.34050259567466706 -0.9363821902593995
vn 0.3123475237772121 -0.15617376188860604 -0.9370425713316363
vn -0.1760901622055003 0.1760901622055003 0.9684960038889583
vn 0.15617376188860604 -0.3123475237772121 0.9370425713316363
vn -0.07664016709284838 0.03832008354642419 -0.9963221647564482
vn 0.07332355594845812 -0.29329422379383246 -0.9532062496816974
vn -0.03832008354642419 0.07664016709284838 0.9963221647564482
vn 0.15032920341169462 -0.15032920341169462 0.9771398370771762
vn -0.05513178341910544 -0.11026356683821088 -0.9923721238956403
vn 0.12309149097933274 0.12309149097933274 -0.9847319278346619
vn -0.11026356683821088 -0.05513178341910544 0.9923721238956403
vn 0.060522753266880246 0.24209101306752098 0.9683640522700839
f 2//2 1//1 5//5
f 2//2 10//10 1//1
f 3//3 1//1 10//10
f 4//4 2//2 6//6
f 11//11 9//9 2//2
f 3//3 7//7 1//1
f 4//4 7//7 3//3
f 4//4 3//3 12//12
f 4//4 11//11 2//2
f 2//2 5//5 6//6
f 7//7 5//5 1//1
f 6//6 5//5 13//13
f 8//8 6//6 13//13
f 4//4 8//8 7//7
f 8//8 4//4 6//6
f 7//7 16//16 5//5
f 15//15 8//8 13//13
f 8//8 15//15 7//7
f 2//2 9//9 10//10
f 10//10 9//9 14//14
f 12//12 10//10 14//14
f 12//12 3//3 10//10
f 4//4 12//12 11//11
f 11//11 15//15 9//9
f 12//12 16//16 11//11
f 14//14 9//9 13//13
f 15//15 13//13 9//9
f 13//13 5//5 14//14
f 16//16 14//14 5//5
f 16//16 15//15 11//11
f 15//15 16//16 7//7
f 16//16 12//12 14//14
