<svg width="359.96" height="186.666" viewBox="0 0 269.964 139.999" xmlns="http://www.w3.org/2000/svg"><g fill="#fff"><path d="M150.996 70.678v14.141l9.844 9.845 7.071-7.071zM150.996 69.678V55.536l9.844-9.845 7.071 7.071zM139.998 94.984V45.691l9.999 9.859.001 39.434z"/><g><path d="M189.997 94.984l.001-49.293-10 9.859v39.434z"/></g><g><path d="M219.995 55.985l-.001 38.29 10-9.818V55.985zM249.996 44.985h-49.293l10 10h39.293z"/></g></g><g stroke="#fff" stroke-width="2.835"><g stroke-linecap="round" fill="#ff344f"><path d="M119.999 120l.031-98.616-20 20L100 120zM20 20.002L118.587 20l-20 20L20.002 40z" stroke-width="1.0001029499999998"/></g><g stroke-linecap="round" fill="#00a69d"><path d="M60 120l20-20h18v20zM60 80l20-20h18v20z" stroke-width="1.0001029499999998"/></g><path d="M20 42.001L20 118.587l20-20L40 42.002z" stroke-linecap="round" fill="#fa9500" stroke-width="1.0001029499999998"/></g></svg>