<?xml version="1.0" encoding="UTF-8" standalone="no"?>
<svg
   viewBox="0 0 410 140"
   style="background: #001117;"
   version="1.1"
   id="svg23"
   sodipodi:docname="logo-5.svg"
   inkscape:version="1.4.2 (f4327f4, 2025-05-13)"
   xmlns:inkscape="http://www.inkscape.org/namespaces/inkscape"
   xmlns:sodipodi="http://sodipodi.sourceforge.net/DTD/sodipodi-0.dtd"
   xmlns="http://www.w3.org/2000/svg"
   xmlns:svg="http://www.w3.org/2000/svg">
  <defs
     id="defs23" />
  <sodipodi:namedview
     id="namedview23"
     pagecolor="#ffffff"
     bordercolor="#000000"
     borderopacity="0.25"
     inkscape:showpageshadow="2"
     inkscape:pageopacity="0.0"
     inkscape:pagecheckerboard="0"
     inkscape:deskcolor="#d1d1d1"
     showgrid="false"
     inkscape:zoom="1.487805"
     inkscape:cx="205.67211"
     inkscape:cy="116.95081"
     inkscape:window-width="1920"
     inkscape:window-height="1010"
     inkscape:window-x="-6"
     inkscape:window-y="1077"
     inkscape:window-maximized="1"
     inkscape:current-layer="svg23" />
  <title
     id="title1">semio</title>
  <rect
     id="background"
     width="100%"
     height="100%"
     fill="#001117" />
  <g
     id="profile-5-emblem-top"
     transform="matrix(0,-2,-2,0,192.05418,114.46729)">
    <path
       d="M 0,10 H 49 L 39,0 H 0 Z"
       fill="#ff344f"
       stroke="none"
       id="path1"
       style="stroke-width:0.5" />
  </g>
  <g
     id="profile-5-emblem-right"
     transform="matrix(0,-2,-2,0,192.05418,114.46729)">
    <path
       d="M 0,10 H 49 L 39,0 H 0 Z"
       fill="#ff344f"
       stroke="none"
       id="path2"
       style="stroke-width:0.5" />
  </g>
  <g
     id="profile-4-emblem-left"
     transform="matrix(0,-2,-2,0,213.72667,114.60239)">
    <path
       d="M 0,10 H 39 L 29,0 H 0 Z"
       fill="#00a69d"
       stroke="none"
       id="path3"
       style="stroke-width:0.5" />
  </g>
  <g
     id="profile-2-emblem-middle"
     transform="matrix(0,-2,-2,0,235.20966,114.68139)">
    <path
       d="M 19,10 9,0 H 0 v 10 z"
       fill="#fa9500"
       stroke="none"
       id="path4"
       style="stroke-width:0.5" />
  </g>
  <g
     id="profile-2-emblem-bottom"
     transform="matrix(0,-2,-2,0,235.20966,114.68139)">
    <path
       d="M 19,10 9,0 H 0 v 10"
       fill="#fa9500"
       stroke="none"
       id="path5"
       style="stroke-width:0.5" />
  </g>
  <g
     id="profile-5-text-s-top"
     transform="matrix(0,-2,-2,0,192.05418,114.46729)">
    <path
       d="M 0,10 H 49 L 39,0 H 0 Z"
       fill="#ff344f"
       stroke="none"
       id="path6" />
  </g>
  <g
     id="profile-2-text-s-left"
     transform="matrix(0,-2,-2,0,235.20966,114.68139)">
    <path
       d="M 19,10 9,0 H 0 v 10 z"
       fill="#fa9500"
       stroke="none"
       id="path7" />
  </g>
  <g
     id="profile-5-text-s-middle"
     transform="matrix(0,-2,-2,0,192.05418,114.46729)">
    <path
       d="M 0,10 H 49 L 39,0 H 0 Z"
       fill="#ff344f"
       stroke="none"
       id="path8" />
  </g>
  <g
     id="profile-2-text-s-right"
     transform="matrix(0,-2,-2,0,235.20966,114.68139)">
    <path
       d="M 19,10 9,0 H 0 v 10"
       fill="#fa9500"
       stroke="none"
       id="path9" />
  </g>
  <g
     id="profile-5-text-s-bottom"
     transform="matrix(0,-2,-2,0,192.05418,114.46729)">
    <path
       d="M 0,10 H 49 L 39,0 H 0 Z"
       fill="#ff344f"
       stroke="none"
       id="path10" />
  </g>
  <g
     id="profile-5-text-e-left"
     transform="matrix(0,-2,-2,0,192.05418,114.46729)">
    <path
       d="M 0,10 H 49 L 39,0 H 0 Z"
       fill="#ff344f"
       stroke="none"
       id="path11" />
  </g>
  <g
     id="profile-4-text-e-top"
     transform="matrix(0,-2,-2,0,213.72667,114.60239)">
    <path
       d="M 0,10 H 39 L 29,0 H 0 Z"
       fill="#00a69d"
       stroke="none"
       id="path12" />
  </g>
  <g
     id="profile-4-text-e-middle"
     transform="matrix(0,-2,-2,0,213.72667,114.60239)">
    <path
       d="M 0,10 H 39 L 29,0 H 0 Z"
       fill="#00a69d"
       stroke="none"
       id="path13" />
  </g>
  <g
     id="profile-5-text-e-bottom"
     transform="matrix(0,-2,-2,0,192.05418,114.46729)">
    <path
       d="M 0,10 H 49 L 39,0 H 0 Z"
       fill="#ff344f"
       stroke="none"
       id="path14" />
  </g>
  <g
     id="profile-4-text-right-m-right"
     transform="matrix(0,-2,-2,0,213.72667,114.60239)">
    <path
       d="M 0,10 H 39 L 29,0 H 0 Z"
       fill="#00a69d"
       stroke="none"
       id="path16" />
  </g>
  <g
     id="profile-4-text-right-m-middle"
     transform="matrix(0,-2,-2,0,213.72667,114.60239)">
    <path
       d="M 0,10 H 39 L 29,0 H 0 Z"
       fill="#00a69d"
       stroke="none"
       id="path17" />
  </g>
  <g
     id="profile-5-text-right-m-left"
     transform="matrix(0,-2,-2,0,192.05418,114.46729)">
    <path
       d="M 0,10 H 49 L 39,0 H 0 Z"
       fill="#ff344f"
       stroke="none"
       id="path18" />
  </g>
  <g
     id="profile-5-text-m-top"
     transform="matrix(0,-2,-2,0,192.05418,114.46729)">
    <path
       d="M 0,10 H 49 L 39,0 H 0 Z"
       fill="#ff344f"
       stroke="none"
       id="path19" />
  </g>
  <g
     id="profile-5-text-i"
     transform="matrix(0,-2,-2,0,192.05418,114.46729)">
    <path
       d="M 0,10 H 49 L 39,0 H 0 Z"
       fill="#ff344f"
       stroke="none"
       id="path15" />
  </g>
  <g
     id="profile-5-text-o-left"
     transform="matrix(0,-2,-2,0,192.05418,114.46729)">
    <path
       d="M 0,10 H 49 L 39,0 H 0 Z"
       fill="#ff344f"
       stroke="none"
       id="path20" />
  </g>
  <g
     id="profile-4-text-right-o-top"
     transform="matrix(0,-2,-2,0,213.72667,114.60239)">
    <path
       d="M 0,10 H 39 L 29,0 H 0 Z"
       fill="#00a69d"
       stroke="none"
       id="path21" />
  </g>
  <g
     id="profile-4-text-right-o-bottom"
     transform="matrix(0,-2,-2,0,213.72667,114.60239)">
    <path
       d="M 0,10 H 39 L 29,0 H 0 Z"
       fill="#00a69d"
       stroke="none"
       id="path22" />
  </g>
  <g
     id="profile-5-text-right-o-right"
     transform="matrix(0,-2,-2,0,192.05418,114.46729)">
    <path
       d="M 0,10 H 49 L 39,0 H 0 Z"
       fill="#ff344f"
       stroke="none"
       id="path23" />
  </g>
</svg>
