<?xml version="1.0" encoding="UTF-8" standalone="no"?>
<svg viewBox="0 0 410 140" style="background: #001117;" version="1.1" id="svg23" sodipodi:docname="logo-6.svg"
   inkscape:version="1.4.2 (f4327f4, 2025-05-13)" xmlns:inkscape="http://www.inkscape.org/namespaces/inkscape"
   xmlns:sodipodi="http://sodipodi.sourceforge.net/DTD/sodipodi-0.dtd" xmlns="http://www.w3.org/2000/svg"
   xmlns:svg="http://www.w3.org/2000/svg">
   <defs id="defs23" />
   <sodipodi:namedview id="namedview23" pagecolor="#ffffff" bordercolor="#000000" borderopacity="0.25"
      inkscape:showpageshadow="2" inkscape:pageopacity="0.0" inkscape:pagecheckerboard="0" inkscape:deskcolor="#d1d1d1"
      showgrid="false" inkscape:zoom="0.5260185" inkscape:cx="425.84053" inkscape:cy="123.5698"
      inkscape:window-width="1920" inkscape:window-height="1010" inkscape:window-x="-6" inkscape:window-y="1077"
      inkscape:window-maximized="1" inkscape:current-layer="svg23" />
   <title id="title1">semio</title>
   <rect id="background" width="100%" height="100%" fill="#001117" />
   <g id="profile-5-emblem-top" transform="matrix(0,-2,-2,0,-457.41091,114.46729)">
      <path d="M 0,10 H 49 L 39,0 H 0 Z" fill="#ff344f" stroke="#f7f3e3" id="path1" stroke-width="0.5" />
   </g>
   <g id="profile-5-emblem-right" transform="matrix(0,-2,-2,0,-457.41091,114.46729)">
      <path d="M 0,10 H 49 L 39,0 H 0 Z" fill="#ff344f" stroke="#f7f3e3" id="path2" stroke-width="0.5" />
   </g>
   <g id="profile-4-emblem-left" transform="matrix(0,-2,-2,0,213.72667,-390.50816)">
      <path d="M 0,10 H 39 L 29,0 H 0 Z" fill="#00a69d" stroke="#f7f3e3" id="path3" stroke-width="0.5" />
   </g>
   <g id="profile-2-emblem-middle" transform="matrix(0,-2,-2,0,908.99485,114.68139)">
      <path d="M 19,10 9,0 H 0 V 10 Z" fill="#fa9500" stroke="#f7f3e3" id="path4" stroke-width="0.5" />
   </g>
   <g id="profile-2-emblem-bottom" transform="matrix(0,-2,-2,0,908.99485,114.68139)">
      <path d="M 19,10 9,0 H 0 V 10 Z" fill="#fa9500" stroke="#f7f3e3" id="path5" stroke-width="0.5" />
   </g>
   <g id="profile-5-text-s-top" transform="matrix(0,-2,-2,0,-457.41091,114.46729)">
      <path d="M 0,10 H 49 L 39,0 H 0 Z" fill="#ff344f" stroke="#f7f3e3" stroke-width="0.5" id="path6" />
   </g>
   <g id="profile-2-text-s-left" transform="matrix(0,-2,-2,0,908.99485,114.68139)">
      <path d="M 19,10 9,0 H 0 V 10 Z" fill="#fa9500" stroke="#f7f3e3" stroke-width="0.5" id="path7" />
   </g>
   <g id="profile-5-text-s-middle" transform="matrix(0,-2,-2,0,-457.41091,114.46729)">
      <path d="M 0,10 H 49 L 39,0 H 0 Z" fill="#ff344f" stroke="#f7f3e3" stroke-width="0.5" id="path8" />
   </g>
   <g id="profile-2-text-s-right" transform="matrix(0,-2,-2,0,908.99485,114.68139)">
      <path d="M 19,10 9,0 H 0 V 10 Z" fill="#fa9500" stroke="#f7f3e3" stroke-width="0.5" id="path9" />
   </g>
   <g id="profile-5-text-s-bottom" transform="matrix(0,-2,-2,0,-457.41091,114.46729)">
      <path d="M 0,10 H 49 L 39,0 H 0 Z" fill="#ff344f" stroke="#f7f3e3" stroke-width="0.5" id="path10" />
   </g>
   <g id="profile-5-text-e-left" transform="matrix(0,-2,-2,0,-457.41091,114.46729)">
      <path d="M 0,10 H 49 L 39,0 H 0 Z" fill="#ff344f" stroke="#f7f3e3" stroke-width="0.5" id="path11" />
   </g>
   <g id="profile-4-text-e-top" transform="matrix(0,-2,-2,0,213.72667,-390.50816)">
      <path d="M 0,10 H 39 L 29,0 H 0 Z" fill="#00a69d" stroke="#f7f3e3" stroke-width="0.5" id="path12" />
   </g>
   <g id="profile-4-text-e-middle" transform="matrix(0,-2,-2,0,213.72667,-390.50816)">
      <path d="M 0,10 H 39 L 29,0 H 0 Z" fill="#00a69d" stroke="#f7f3e3" stroke-width="0.5" id="path13" />
   </g>
   <g id="profile-5-text-e-bottom" transform="matrix(0,-2,-2,0,-457.41091,114.46729)">
      <path d="M 0,10 H 49 L 39,0 H 0 Z" fill="#ff344f" stroke="#f7f3e3" stroke-width="0.5" id="path14" />
   </g>
   <g id="profile-4-text-right-m-right" transform="matrix(0,-2,-2,0,213.72667,-390.50816)">
      <path d="M 0,10 H 39 L 29,0 H 0 Z" fill="#00a69d" stroke="#f7f3e3" stroke-width="0.5" id="path16" />
   </g>
   <g id="profile-4-text-right-m-middle" transform="matrix(0,-2,-2,0,213.72667,-390.50816)">
      <path d="M 0,10 H 39 L 29,0 H 0 Z" fill="#00a69d" stroke="#f7f3e3" stroke-width="0.5" id="path17" />
   </g>
   <g id="profile-5-text-right-m-left" transform="matrix(0,-2,-2,0,-457.41091,114.46729)">
      <path d="M 0,10 H 49 L 39,0 H 0 Z" fill="#ff344f" stroke="#f7f3e3" stroke-width="0.5" id="path18" />
   </g>
   <g id="profile-5-text-m-top" transform="matrix(0,-2,-2,0,-457.41091,114.46729)">
      <path d="M 0,10 H 49 L 39,0 H 0 Z" fill="#ff344f" stroke="#f7f3e3" stroke-width="0.5" id="path19" />
   </g>
   <g id="profile-5-text-i" transform="matrix(0,-2,-2,0,-457.41091,114.46729)">
      <path d="M 0,10 H 49 L 39,0 H 0 Z" fill="#ff344f" stroke="#f7f3e3" stroke-width="0.5" id="path15" />
   </g>
   <g id="profile-5-text-o-left" transform="matrix(0,-2,-2,0,-457.41091,114.46729)">
      <path d="M 0,10 H 49 L 39,0 H 0 Z" fill="#ff344f" stroke="#f7f3e3" stroke-width="0.5" id="path20" />
   </g>
   <g id="profile-4-text-right-o-top" transform="matrix(0,-2,-2,0,213.72667,-390.50816)">
      <path d="M 0,10 H 39 L 29,0 H 0 Z" fill="#00a69d" stroke="#f7f3e3" stroke-width="0.5" id="path21" />
   </g>
   <g id="profile-4-text-right-o-bottom" transform="matrix(0,-2,-2,0,213.72667,-390.50816)">
      <path d="M 0,10 H 39 L 29,0 H 0 Z" fill="#00a69d" stroke="#f7f3e3" stroke-width="0.5" id="path22" />
   </g>
   <g id="profile-5-text-right-o-right" transform="matrix(0,-2,-2,0,-457.41091,114.46729)">
      <path d="M 0,10 H 49 L 39,0 H 0 Z" fill="#ff344f" stroke="#f7f3e3" stroke-width="0.5" id="path23" />
   </g>
</svg>