<?xml version="1.0" encoding="UTF-8" standalone="no"?>
<svg viewBox="0 0 410 140" style="background: #001117;" version="1.1" id="svg23" sodipodi:docname="logo-3.svg"
    inkscape:version="1.4.2 (f4327f4, 2025-05-13)" xmlns:inkscape="http://www.inkscape.org/namespaces/inkscape"
    xmlns:sodipodi="http://sodipodi.sourceforge.net/DTD/sodipodi-0.dtd" xmlns="http://www.w3.org/2000/svg"
    xmlns:svg="http://www.w3.org/2000/svg">
    <defs id="defs23" />
    <sodipodi:namedview id="namedview23" pagecolor="#ffffff" bordercolor="#000000" borderopacity="0.25"
        inkscape:showpageshadow="2" inkscape:pageopacity="0.0" inkscape:pagecheckerboard="0"
        inkscape:deskcolor="#d1d1d1" showgrid="false" inkscape:zoom="2.1040739" inkscape:cx="164.91816"
        inkscape:cy="125.94615" inkscape:window-width="1920" inkscape:window-height="1010" inkscape:window-x="-6"
        inkscape:window-y="1077" inkscape:window-maximized="1" inkscape:current-layer="svg23" />
    <title id="title1">semio</title>
    <rect id="background" width="100%" height="100%" fill="#001117" />
    <g id="profile-5-emblem-top" transform="matrix(-1,0,0,1,95.411177,36.122031)" style="stroke-width:0.5">
        <path d="M 0,10 H 49 L 39,0 H 0 Z" fill="#f7f3e3" stroke="none" id="path1" style="stroke-width:0.5" />
    </g>
    <g id="profile-5-emblem-right" transform="matrix(-1,0,0,1,93.634117,58.756643)" style="stroke-width:0.5">
        <path d="M 0,10 H 49 L 39,0 H 0 Z" fill="#f7f3e3" stroke="none" id="path2" style="stroke-width:0.5" />
    </g>
    <g id="profile-4-emblem-left" transform="matrix(-1,0,0,1,232.23154,92.484741)" style="stroke-width:0.5">
        <path d="M 0,10 H 39 L 29,0 H 0 Z" fill="#f7f3e3" stroke="none" id="path3" style="stroke-width:0.5" />
    </g>
    <g id="profile-2-emblem-middle" transform="matrix(-1,0,0,1,344.90607,83.265475)" style="stroke-width:0.5">
        <path d="M 19,10 9,0 H 0 v 10 z" fill="#f7f3e3" stroke="none" id="path4" style="stroke-width:0.5" />
    </g>
    <g id="profile-2-emblem-bottom" transform="matrix(-1,0,0,1,365.81789,133.72138)" style="stroke-width:0.5">
        <path d="m 1.4365455,-40.515316 10.0000005,-10 h 9 v 10 z" fill="#f7f3e3" stroke="none" id="path5"
            style="stroke-width:0.5" />
    </g>
    <g id="profile-5-text-s-top" transform="translate(97.294229,36.378044)">
        <path d="M 0,10 H 49 L 39,0 H 0 Z" fill="#f7f3e3" stroke="none" id="path6" />
    </g>
    <g id="profile-2-text-s-left" transform="matrix(-1,0,0,1,344.78942,93.994065)">
        <path d="M 19,10 9,0 H 0 v 10 z" fill="#f7f3e3" stroke="none" id="path7" />
    </g>
    <g id="profile-5-text-s-middle" transform="translate(94.781941,58.898529)">
        <path d="M 0,10 H 49 L 39,0 H 0 Z" fill="#f7f3e3" stroke="none" id="path8" />
    </g>
    <g id="profile-2-text-s-right" transform="translate(345.79351,90.305535)">
        <path d="M 18.836074,13.688527 8.8360739,3.6885267 H -0.16392608 V 13.688527 Z" fill="#f7f3e3" stroke="none"
            id="path9" />
    </g>
    <g id="profile-5-text-s-bottom" transform="matrix(-1,0,0,1,95.548332,47.890333)">
        <path d="M 0,10 H 49 L 39,0 H 0 Z" fill="#f7f3e3" stroke="none" id="path10" />
    </g>
    <g id="profile-5-text-e-left" transform="translate(96.565161,70.044233)">
        <path d="M 0,10 H 49 L 39,0 H 0 Z" fill="#f7f3e3" stroke="none" id="path11" />
    </g>
    <g id="profile-4-text-e-top" transform="matrix(-1,0,0,1,234.00219,57.97209)">
        <path d="M 0,10 H 39 L 29,0 H 0 Z" fill="#f7f3e3" stroke="none" id="path12" />
    </g>
    <g id="profile-4-text-e-middle" transform="translate(233.64683,92.605781)">
        <path d="M 0,10 H 39 L 29,0 H 0 Z" fill="#f7f3e3" stroke="none" id="path13" />
    </g>
    <g id="profile-5-text-e-bottom" transform="matrix(-1,0,0,1,95.624451,69.791408)">
        <path d="M 0,10 H 49 L 39,0 H 0 Z" fill="#f7f3e3" stroke="none" id="path14" />
    </g>
    <g id="profile-4-text-right-m-right" transform="matrix(-1,0,0,1,231.59673,81.233749)">
        <path d="M 0,10 H 39 L 29,0 H 0 Z" fill="#f7f3e3" stroke="none" id="path16" />
    </g>
    <g id="profile-4-text-right-m-middle" transform="translate(233.31748,81.213964)">
        <path d="M 0,10 H 39 L 29,0 H 0 Z" fill="#f7f3e3" stroke="none" id="path17" />
    </g>
    <g id="profile-5-text-right-m-left" transform="matrix(-1,0,0,1,95.098015,81.678914)">
        <path d="M 0,10 H 49 L 39,0 H 0 Z" fill="#f7f3e3" stroke="none" id="path18" />
    </g>
    <g id="profile-5-text-m-top" transform="translate(95.997615,81.931744)">
        <path d="M 0,10 H 49 L 39,0 H 0 Z" fill="#f7f3e3" stroke="none" id="path19" />
    </g>
    <g id="profile-5-text-i" transform="translate(96.613633,47.65023)">
        <path d="M 0,10 H 49 L 39,0 H 0 Z" fill="#f7f3e3" stroke="none" id="path15" />
    </g>
    <g id="profile-5-text-o-left" transform="matrix(-1,0,0,1,94.407951,94.359174)">
        <path d="M 0,10 H 49 L 39,0 H 0 Z" fill="#f7f3e3" stroke="none" id="path20" />
    </g>
    <g id="profile-4-text-right-o-top" transform="matrix(-1,0,0,1,234,70)">
        <path d="M 0,10 H 39 L 29,0 H 0 Z" fill="#f7f3e3" stroke="none" id="path21" />
    </g>
    <g id="profile-4-text-right-o-bottom" transform="translate(234.71319,69.987635)">
        <path d="M 0,10 H 39 L 29,0 H 0 Z" fill="#f7f3e3" stroke="none" id="path22" />
    </g>
    <g id="profile-5-text-right-o-right" transform="translate(96.026581,94.514834)">
        <path d="M 0,10 H 49 L 39,0 H 0 Z" fill="#f7f3e3" stroke="none" id="path23" />
    </g>
</svg>