<?xml version="1.0" encoding="UTF-8" standalone="no"?>
<svg viewBox="0 0 410 140" style="background: #001117;" version="1.1" id="svg23" sodipodi:docname="logo-1.svg"
   inkscape:version="1.4.2 (f4327f4, 2025-05-13)" xmlns:inkscape="http://www.inkscape.org/namespaces/inkscape"
   xmlns:sodipodi="http://sodipodi.sourceforge.net/DTD/sodipodi-0.dtd" xmlns="http://www.w3.org/2000/svg"
   xmlns:svg="http://www.w3.org/2000/svg">
   <defs id="defs23" />
   <sodipodi:namedview id="namedview23" pagecolor="#ffffff" bordercolor="#000000" borderopacity="0.25"
      inkscape:showpageshadow="2" inkscape:pageopacity="0.0" inkscape:pagecheckerboard="0" inkscape:deskcolor="#d1d1d1"
      showgrid="false" inkscape:zoom="2.9756098" inkscape:cx="217.09836" inkscape:cy="104.85246"
      inkscape:window-width="1920" inkscape:window-height="1010" inkscape:window-x="-6" inkscape:window-y="1077"
      inkscape:window-maximized="1" inkscape:current-layer="svg23" />
   <title id="title1">semio</title>
   <rect id="background" width="100%" height="100%" fill="#001117" />
   <g id="profile-5-emblem-top" transform="translate(20 40) scale(2 -2)">
      <path d="M 0,10 H 49 L 39,0 H 0 Z" fill="#ff344f" stroke="#f7f3e3" id="path1" stroke-width="0.5" />
   </g>
   <g id="profile-5-emblem-right" transform="translate(100 120) rotate(270 0 0) scale(2 2)">
      <path d="M 0,10 H 49 L 39,0 H 0 Z" fill="#ff344f" stroke="#f7f3e3" id="path2" stroke-width="0.5" />
   </g>
   <g id="profile-4-emblem-left" transform="translate(40 42) rotate(90 0 0) scale(2 2)">
      <path d="M 0,10 H 39 L 29,0 H 0 Z" fill="#00a69d" stroke="#f7f3e3" id="path3" stroke-width="0.5" />
   </g>
   <g id="profile-2-emblem-middle" transform="translate(98 60) scale(-2 2)">
      <path d="M 19,10 9,0 H 0 V 10 Z" fill="#fa9500" stroke="#f7f3e3" id="path4" stroke-width="0.5" />
   </g>
   <g id="profile-2-emblem-bottom" transform="translate(98 100) scale(-2 2)">
      <path d="M 19,10 9,0 H 0 V 10 Z" fill="#fa9500" stroke="#f7f3e3" id="path5" stroke-width="0.5" />
   </g>
   <g id="profile-5-text-s-top" transform="rotate(180,94.915984,27.584016)">
      <path d="M 0,10 H 49 L 39,0 H 0 Z" fill="#f7f3e3" stroke="none" id="path6" stroke-width="0" />
   </g>
   <g id="profile-2-text-s-left" transform="translate(150 65) rotate(90 0 0) scale(-1 1)">
      <path d="M 19,10 9,0 H 0 V 10 Z" fill="#f7f3e3" stroke="none" stroke-width="0" id="path7" />
   </g>
   <g id="profile-5-text-s-middle" transform="matrix(1,0,0,-1,140,76.168033)">
      <path d="M 0,10 H 49 L 39,0 H 0 Z" fill="#f7f3e3" stroke="none" stroke-width="0" id="path8" />
   </g>
   <g id="profile-2-text-s-right" transform="rotate(-90,132.66803,-46.995902)">
      <path d="M 19,10 9,0 H 0 V 10 Z" fill="#f7f3e3" stroke="none" stroke-width="0" id="path9" />
   </g>
   <g id="profile-5-text-s-bottom" transform="matrix(-1,0,0,1,189.66393,86.672131)">
      <path d="M 0,10 H 49 L 39,0 H 0 Z" fill="#f7f3e3" stroke="none" stroke-width="0" id="path10" />
   </g>
   <g id="profile-5-text-e-left" transform="translate(210 45) rotate(90 0 0) scale(1 1)">
      <path d="M 0,10 H 49 L 39,0 H 0 Z" fill="#f7f3e3" stroke="none" stroke-width="0" id="path11" />
   </g>
   <g id="profile-4-text-e-top" transform="translate(211 55) rotate(0 0 0) scale(1 -1)">
      <path d="M 0,10 H 39 L 29,0 H 0 Z" fill="#f7f3e3" stroke="none" stroke-width="0" id="path12" />
   </g>
   <g id="profile-4-text-e-middle" transform="translate(211 75) rotate(0 0 0) scale(1 -1)">
      <path d="M 0,10 H 39 L 29,0 H 0 Z" fill="#f7f3e3" stroke="none" stroke-width="0" id="path13" />
   </g>
   <g id="profile-5-text-e-bottom" transform="matrix(-1,0,0,1,249.4959,85)">
      <path d="M 0,10 H 49 L 39,0 H 0 Z" fill="#f7f3e3" stroke="none" stroke-width="0" id="path14" />
   </g>
   <g id="profile-4-text-right-m-right" transform="matrix(0,1,1,0,300,56)">
      <path d="M 0,10 H 39 L 29,0 H 0 Z" fill="#f7f3e3" stroke="none" stroke-width="0" id="path16" />
   </g>
   <g id="profile-4-text-right-m-middle" transform="matrix(0,1,1,0,280,56)">
      <path d="M 0,10 H 39 L 29,0 H 0 Z" fill="#f7f3e3" stroke="none" stroke-width="0" id="path17" />
   </g>
   <g id="profile-5-text-right-m-left" transform="matrix(0,-1,-1,0,270,95)">
      <path d="M 0,10 H 49 L 39,0 H 0 Z" fill="#f7f3e3" stroke="none" stroke-width="0" id="path18" />
   </g>
   <g id="profile-5-text-m-top" transform="rotate(180,155,27.5)">
      <path d="M 0,10 H 49 L 39,0 H 0 Z" fill="#f7f3e3" stroke="none" stroke-width="0" id="path19" />
   </g>
   <g id="profile-5-text-i" transform="matrix(0,-1,-1,0,329.74589,92.991803)">
      <path d="M 0,10 H 49 L 39,0 H 0 Z" fill="#f7f3e3" stroke="none" stroke-width="0" id="path15" />
   </g>
   <g id="profile-5-text-o-left" transform="matrix(0,-1,-1,0,351.13115,92.655737)">
      <path d="M 0,10 H 49 L 39,0 H 0 Z" fill="#f7f3e3" stroke="none" stroke-width="0" id="path20" />
   </g>
   <g id="profile-4-text-right-o-top" transform="rotate(180,190.60994,26.649643)">
      <path d="M 0,10 H 39 L 29,0 H 0 Z" fill="#f7f3e3" stroke="none" stroke-width="0" id="path21" />
   </g>
   <g id="profile-4-text-right-o-bottom" transform="translate(352.20049,82.428841)">
      <path d="M 0,10 H 39 L 29,0 H 0 Z" fill="#f7f3e3" stroke="none" stroke-width="0" id="path22" />
   </g>
   <g id="profile-5-text-right-o-right" transform="matrix(0,1,1,0,381.94358,43.214245)">
      <path d="M 0,10 H 49 L 39,0 H 0 Z" fill="#f7f3e3" stroke="none" stroke-width="0" id="path23" />
   </g>
</svg>