<svg xmlns="http://www.w3.org/2000/svg" viewBox="0 0 410 140" style="background: #001117;">
    <title>semio logo animation</title>
    <defs>
        <style>
            :root {
                --color-primary: #ff344f;
                --color-secondary: #00a69d;
                --color-tertiary: #fa9500;
                --color-dark: #001117;
                --color-light: #f7f3e3;
            }

            .profile {
                fill: var(--color-light);
                stroke: none;
            }

            .light {
                fill: var(--color-light);
            }

            .dark {
                fill: var(--color-dark);
            }

            .primary {
                fill: var(--color-primary);
                stroke: var(--color-light);
            }

            .secondary {
                fill: var(--color-secondary);
                stroke: var(--color-light);
            }

            .tertiary {
                fill: var(--color-tertiary);
                stroke: var(--color-light);
            }
        </style>

        <g id="profile#2">
            <path class="profile" d="M 19,10 9,0 H 0 v 10 z" />
        </g>
        <g id="profile#4">
            <path class="profile" d="M 0,10 H 39 L 29,0 H 0 Z" />
        </g>
        <g id="profile#5">
            <path class="profile" d="M 0,10 H 49 L 39,0 H 0 Z" />
        </g>
        <g id="profile#5#colored">
            <path d="M 0,10 H 49 L 39,0 H 0 Z">
                <animate attributeName="fill" dur="6s" repeatCount="indefinite" keyTimes="0;1" calcMode="spline"
                    keySplines="0.42 0 0.58 1" values="#ff344f; #f7f3e3" />
                <animate attributeName="stroke" dur="6s" repeatCount="indefinite" keyTimes="0;1" calcMode="spline"
                    keySplines="0.42 0 0.58 1" values="#f7f3e3; none" />
            </path>
        </g>
        <g id="profile#2#colored">
            <path d="M 19,10 9,0 H 0 v 10 z">
                <animate attributeName="fill" dur="6s" repeatCount="indefinite" keyTimes="0;1" calcMode="spline"
                    keySplines="0.42 0 0.58 1" values="#34d1bf; #f7f3e3" />
                <animate attributeName="stroke" dur="6s" repeatCount="indefinite" keyTimes="0;1" calcMode="spline"
                    keySplines="0.42 0 0.58 1" values="#f7f3e3; none" />
            </path>
        </g>
        <g id="profile#4#colored">
            <path d="M 0,10 H 39 L 29,0 H 0 Z">
                <animate attributeName="fill" dur="6s" repeatCount="indefinite" keyTimes="0;1" calcMode="spline"
                    keySplines="0.42 0 0.58 1" values="#fa9500; #f7f3e3" />
                <animate attributeName="stroke" dur="6s" repeatCount="indefinite" keyTimes="0;1" calcMode="spline"
                    keySplines="0.42 0 0.58 1" values="#f7f3e3; none" />
            </path>
        </g>
        <g id="emblem">
            <use id="emblem#top" href="#profile#5#colored" transform="translate(0,20) matrix(1,0,0,-1,0,0)">
                <animateTransform attributeName="transform" type="scale" additive="sum" dur="6s"
                    repeatCount="indefinite" keyTimes="0;1" calcMode="spline" keySplines="0.42 0 0.58 1"
                    values="2 2; 1 1" />
            </use>
            <use id="emblem#right" href="#profile#5#colored" transform="translate(80,100) rotate(270,0,0)">
                <animateTransform attributeName="transform" type="scale" additive="sum" dur="6s"
                    repeatCount="indefinite" keyTimes="0;1" calcMode="spline" keySplines="0.42 0 0.58 1"
                    values="2 2; 1 1" />
            </use>
            <use id="emblem#left" href="#profile#4#colored" transform="translate(10,11) rotate(90,0,0)">
                <animateTransform attributeName="transform" type="scale" additive="sum" dur="6s"
                    repeatCount="indefinite" keyTimes="0;1" calcMode="spline" keySplines="0.42 0 0.58 1"
                    values="2 2; 1 1" />
            </use>
            <use id="emblem#middle" href="#profile#2#colored" transform="translate(78,40) matrix(-1,0,0,1,0,0)">
                <animateTransform attributeName="transform" type="scale" additive="sum" dur="6s"
                    repeatCount="indefinite" keyTimes="0;1" calcMode="spline" keySplines="0.42 0 0.58 1"
                    values="2 2; 1 1" />
            </use>
            <use id="emblem#bottom" href="#profile#2#colored" transform="translate(78,80) matrix(-1,0,0,1,0,0)">
                <animateTransform attributeName="transform" type="scale" additive="sum" dur="6s"
                    repeatCount="indefinite" keyTimes="0;1" calcMode="spline" keySplines="0.42 0 0.58 1"
                    values="2 2; 1 1" />
            </use>
        </g>
        <g id="text#s">
            <use id="text#s#top" href="#profile#5" transform="translate(50,10) rotate(180,0,0)" />
            <use id="text#s#left" href="#profile#2" transform="translate(10,20) rotate(90,0,0) matrix(-1,0,0,1,0,0)" />
            <use id="text#s#middle" href="#profile#5" transform="translate(0,31) matrix(1,0,0,-1,0,0)" />
            <use id="text#s#right" href="#profile#2" transform="translate(40,40) rotate(270,0,0)" />
            <use id="text#s#bottom" href="#profile#5" transform="translate(50,41) matrix(-1,0,0,1,0,0)" />
        </g>
        <g id="text#e">
            <use id="text#e#left" href="#profile#5" transform="translate(10,0) rotate(90,0,0)" />
            <use id="text#e#top" href="#profile#4" transform="translate(11,10) matrix(1,0,0,-1,0,0)" />
            <use id="text#e#middle" href="#profile#4" transform="translate(11,30) matrix(1,0,0,-1,0,0)" />
            <use id="text#e#bottom" href="#profile#5"
                transform="translate(50,40) rotate(180,0,0) matrix(1,0,0,-1,0,0)" />
        </g>
        <g id="text#i">
            <use href="#profile#5" transform="translate(10,50) rotate(270,0,0) matrix(1,0,0,-1,0,0)" />
        </g>
        <g id="text#o">
            <use id="text#o#left" href="#profile#5" transform="translate(10,50) rotate(270,0,0) matrix(1,0,0,-1,0,0)" />
            <use id="text#o#top" href="#profile#4" transform="translate(40,10) rotate(180,0,0)" />
            <use id="text#o#right" href="#profile#5" transform="translate(41,0) rotate(90,0,0) matrix(1,0,0,-1,0,0)" />
            <use id="text#o#bottom" href="#profile#4" transform="translate(11,40)" />
        </g>
        <g id="text">
            <use href="#text#s" />
            <use href="#text#e" transform="translate(60,0)" />
            <use href="#text#e" transform="translate(170,0) rotate(90,0,0)" />
            <use href="#text#i" transform="translate(180,0)" />
            <use href="#text#o" transform="translate(200,0)" />
        </g>
    </defs>
    <g id="timeline">
        <use href="#emblem" transform="translate(20, 20)" />
        <use href="#text" transform="translate(140, 45)" />
    </g>
</svg>