o 
usemtl region-two-holes-material
v 0 0 0
v 0.5 0.5 0
v 1.2000000476837158 0.5 0
v 0 0 0.25
v 0.5 0.5 0.25
v 1.2000000476837158 0.5 0.25
v 0.5 1.2000000476837158 0
v 0 2 0
v 1.2000000476837158 1.2000000476837158 0
v 0.5 1.2000000476837158 0.25
v 0 2 0.25
v 1.2000000476837158 1.2000000476837158 0.25
v 2.799999952316284 0.5 0
v 4 0 0
v 3.5 0.5 0
v 2.799999952316284 0.5 0.25
v 4 0 0.25
v 3.5 0.5 0.25
v 2.799999952316284 1.2000000476837158 0
v 3.5 1.2000000476837158 0
v 4 2 0
v 2.799999952316284 1.2000000476837158 0.25
v 3.5 1.2000000476837158 0.25
v 4 2 0.25
vn -0.2524576465962098 -0.2524576465962098 -0.9340932894257439
vn 0.21821789023599236 0.4364357804719847 -0.8728715609439694
vn -0.08162517736174948 0.04081258868087474 -0.9958271250703251
vn -0.11804804423573215 -0.4721921769429286 0.8735554975420949
vn 0.4364357804719847 0.21821789023599236 0.8728715609439694
vn -0.04081258868087474 0.08162517736174948 0.9958271250703251
vn 0.17951728091674865 -0.08975864045837433 -0.9796514340903715
vn -0.09639012653895902 0.3855605061558361 -0.9176339355095031
vn -0.02400381261590281 -0.04800762523180562 -0.9985585034936626
vn 0.08975864045837433 -0.17951728091674865 0.9796514340903715
vn -0.20138384013830235 0.20138384013830235 0.9585870319706508
vn -0.04800762523180562 -0.02400381261590281 0.9985585034936626
vn 0.05128190595598165 0.1025638119119633 -0.9934036594494755
vn 0.10101525308674711 -0.40406101234698844 -0.9091372926818849
vn -0.4364357804719847 0.21821789023599236 -0.8728715609439694
vn 0.1025638119119633 0.05128190595598165 0.9934036594494755
vn 0.21199958052184897 -0.21199958052184897 0.9539980899965786
vn -0.21821789023599236 0.4364357804719847 0.8728715609439694
vn 0.11722335057954361 -0.058611675289771806 -0.9913744789929948
vn -0.08975864045837433 -0.17951728091674865 -0.9796514340903715
vn 0.16120312887086138 0.16120312887086138 -0.9736668334109408
vn 0.058611675289771806 -0.11722335057954361 0.9913744789929948
vn -0.17951728091674865 -0.08975864045837433 0.9796514340903715
vn 0.07834374188431077 0.3133749675372431 0.9463923012306241
f 3//3 1//1 2//2
f 2//2 1//1 7//7
f 5//5 2//2 7//7
f 6//6 3//3 2//2
f 1//1 3//3 14//14
f 4//4 1//1 14//14
f 13//13 3//3 9//9
f 12//12 9//9 3//3
f 6//6 5//5 4//4
f 4//4 11//11 1//1
f 5//5 6//6 2//2
f 10//10 5//5 7//7
f 5//5 10//10 4//4
f 4//4 17//17 6//6
f 6//6 12//12 3//3
f 16//16 12//12 6//6
f 7//7 1//1 8//8
f 7//7 8//8 9//9
f 11//11 8//8 1//1
f 10//10 7//7 9//9
f 9//9 8//8 21//21
f 12//12 10//10 9//9
f 10//10 11//11 4//4
f 10//10 12//12 11//11
f 11//11 24//24 8//8
f 12//12 24//24 11//11
f 14//14 3//3 13//13
f 13//13 9//9 19//19
f 16//16 13//13 19//19
f 14//14 13//13 15//15
f 14//14 15//15 20//20
f 18//18 15//15 13//13
f 17//17 14//14 21//21
f 23//23 20//20 15//15
f 17//17 4//4 14//14
f 17//17 16//16 6//6
f 22//22 16//16 19//19
f 16//16 22//22 12//12
f 17//17 18//18 16//16
f 16//16 18//18 13//13
f 18//18 23//23 15//15
f 17//17 23//23 18//18
f 9//9 21//21 19//19
f 24//24 21//21 8//8
f 19//19 21//21 20//20
f 14//14 20//20 21//21
f 22//22 19//19 20//20
f 12//12 22//22 24//24
f 23//23 22//22 20//20
f 24//24 17//17 21//21
f 22//22 23//23 24//24
f 17//17 24//24 23//23
