ply
format ascii 1.0
element vertex 438
property float x
property float y
property float z
property float nx
property float ny
property float nz
element face 864
property list uchar int vertex_index
end_header
-1.651686429977417 -1.651686429977417 -5.526650428771973 -0.28833058394304684 -0.2883306137453691 -0.9130886767123335
-3.3190486431121826 -1.7180659770965576 -4.693843364715576 -0.5516002651412086 -0.314782254839098 -0.7724307603497943
-1.7180659770965576 -3.3190486431121826 -4.693843364715576 -0.314782254839098 -0.5516002651412086 -0.7724307603497943
-3.464101552963257 -3.464101552963257 -3.464101552963257 -0.5773502691896257 -0.5773502691896257 -0.5773502691896257
-4.693843364715576 -1.7180659770965576 -3.3190486431121826 -0.7724307290618561 -0.3147822961810921 -0.551600285362443
-1.7180659770965576 -4.693843364715576 -3.3190486431121826 -0.3147822961810921 -0.7724307290618561 -0.551600285362443
-1.5529142618179321 3.6739402930577075e-16 -5.795555114746094 -0.2235937088465534 1.0223286524206455e-9 -0.974682437188771
-1.651686429977417 1.651686429977417 -5.526650428771973 -0.2883306137453691 0.28833058394304684 -0.9130886767123335
-3 3.6739402930577075e-16 -5.196152210235596 -0.4794484684687507 -1.4333262383950713e-9 -0.8775700348593093
-3.3190486431121826 1.7180659770965576 -4.693843364715576 -0.551600285362443 0.3147822961810921 -0.7724307290618561
-1.7180659770965576 3.3190486431121826 -4.693843364715576 -0.31478226933181835 0.5516002905371395 -0.7724307363082168
-4.242640495300293 3.6739402930577075e-16 -4.242640495300293 -0.7071067811865476 -1.7273013315517837e-9 -0.7071067811865476
-4.693843364715576 1.7180659770965576 -3.3190486431121826 -0.7724307290618561 0.3147822961810921 -0.551600285362443
-3.464101552963257 3.464101552963257 -3.464101552963257 -0.5773502691896257 0.5773502691896257 -0.5773502691896257
3.6739402930577075e-16 -1.5529142618179321 -5.795555114746094 1.0223286524206455e-9 -0.2235937088465534 -0.974682437188771
1.651686429977417 -1.651686429977417 -5.526650428771973 0.28833058394304684 -0.2883306137453691 -0.9130886767123335
3.6739402930577075e-16 -3 -5.196152210235596 -1.4333262383950713e-9 -0.4794484684687507 -0.8775700348593093
1.7180659770965576 -3.3190486431121826 -4.693843364715576 0.3147822961810921 -0.551600285362443 -0.7724307290618561
3.3190486431121826 -1.7180659770965576 -4.693843364715576 0.5516002905371395 -0.31478226933181835 -0.7724307363082168
3.6739402930577075e-16 -4.242640495300293 -4.242640495300293 -1.7273013315517837e-9 -0.7071067811865476 -0.7071067811865476
1.7180659770965576 -4.693843364715576 -3.3190486431121826 0.3147822961810921 -0.7724307290618561 -0.551600285362443
3.464101552963257 -3.464101552963257 -3.464101552963257 0.5773502691896257 -0.5773502691896257 -0.5773502691896257
3.6739402930577075e-16 3.6739402930577075e-16 -6 -1.4541663428957463e-9 -1.4541663428957463e-9 -1
3.6739402930577075e-16 1.5529142618179321 -5.795555114746094 1.9112669459492097e-10 0.22359372300274352 -0.9746824339413184
1.5529142618179321 3.6739402930577075e-16 -5.795555114746094 0.22359372300274352 1.9112669459492097e-10 -0.9746824339413184
1.651686429977417 1.651686429977417 -5.526650428771973 0.2883306361148835 0.2883306361148835 -0.9130886531740351
3.6739402930577075e-16 3 -5.196152210235596 -1.7848726977206102e-9 0.4794484684687507 -0.8775700348593093
1.7180659770965576 3.3190486431121826 -4.693843364715576 0.3147822961810921 0.551600285362443 -0.7724307290618561
3 3.6739402930577075e-16 -5.196152210235596 0.4794484684687507 -1.7848726977206102e-9 -0.8775700348593093
3.3190486431121826 1.7180659770965576 -4.693843364715576 0.551600285362443 0.3147822961810921 -0.7724307290618561
3.6739402930577075e-16 4.242640495300293 -4.242640495300293 -1.7273013315517837e-9 0.7071067811865476 -0.7071067811865476
4.242640495300293 3.6739402930577075e-16 -4.242640495300293 0.7071067811865476 -1.7273013315517837e-9 -0.7071067811865476
3.464101552963257 3.464101552963257 -3.464101552963257 0.5773502691896257 0.5773502691896257 -0.5773502691896257
-4.693843364715576 -3.3190486431121826 -1.7180659770965576 -0.7724307784993633 -0.5516002184973463 -0.3147822920377627
-5.526650428771973 -1.651686429977417 -1.651686429977417 -0.9130886845584328 -0.2883305864206489 -0.2883305864206489
-3.3190486431121826 -4.693843364715576 -1.7180659770965576 -0.5516002184973463 -0.7724307784993633 -0.3147822920377627
-1.651686429977417 -5.526650428771973 -1.651686429977417 -0.2883305864206489 -0.9130886845584328 -0.2883305864206489
-5.196152210235596 3.6739402930577075e-16 -3 -0.877570073639306 -1.5990630694603528e-9 -0.4794483974868443
-5.795555114746094 3.6739402930577075e-16 -1.5529142618179321 -0.974682437188771 1.0223286524206455e-9 -0.2235937088465534
-5.526650428771973 1.651686429977417 -1.651686429977417 -0.9130886767123335 0.28833058394304684 -0.2883306137453691
-4.693843364715576 3.3190486431121826 -1.7180659770965576 -0.7724307784993633 0.5516002184973463 -0.3147822920377627
3.6739402930577075e-16 -5.196152210235596 -3 -1.5990630694603528e-9 -0.877570073639306 -0.4794483974868443
3.6739402930577075e-16 -5.795555114746094 -1.5529142618179321 1.0223286524206455e-9 -0.974682437188771 -0.2235937088465534
1.651686429977417 -5.526650428771973 -1.651686429977417 0.28833058394304684 -0.9130886767123335 -0.2883306137453691
3.3190486431121826 -4.693843364715576 -1.7180659770965576 0.5516002184973463 -0.7724307784993633 -0.3147822920377627
-1.7180659770965576 4.693843364715576 -3.3190486431121826 -0.3147822961810921 0.7724307290618561 -0.551600285362443
3.6739402930577075e-16 5.196152210235596 -3 -1.5990630694603528e-9 0.877570073639306 -0.4794483974868443
1.7180659770965576 4.693843364715576 -3.3190486431121826 0.3147822961810921 0.7724307290618561 -0.551600285362443
-3.3190486431121826 4.693843364715576 -1.7180659770965576 -0.5516002905371395 0.7724307363082168 -0.31478226933181835
-1.651686429977417 5.526650428771973 -1.651686429977417 -0.2883305864206489 0.9130886845584328 -0.2883305864206489
3.6739402930577075e-16 5.795555114746094 -1.5529142618179321 1.0223286524206455e-9 0.974682437188771 -0.2235937088465534
1.651686429977417 5.526650428771973 -1.651686429977417 0.28833058394304684 0.9130886767123335 -0.2883306137453691
3.3190486431121826 4.693843364715576 -1.7180659770965576 0.5516002905371395 0.7724307363082168 -0.31478226933181835
4.693843364715576 -1.7180659770965576 -3.3190486431121826 0.7724307290618561 -0.3147822961810921 -0.551600285362443
5.196152210235596 3.6739402930577075e-16 -3 0.877570073639306 -1.5990630694603528e-9 -0.4794483974868443
4.693843364715576 1.7180659770965576 -3.3190486431121826 0.7724307290618561 0.3147822961810921 -0.551600285362443
4.693843364715576 -3.3190486431121826 -1.7180659770965576 0.7724307363082168 -0.5516002905371395 -0.31478226933181835
5.526650428771973 -1.651686429977417 -1.651686429977417 0.9130886845584328 -0.2883305864206489 -0.2883305864206489
5.795555114746094 3.6739402930577075e-16 -1.5529142618179321 0.974682437188771 1.0223286524206455e-9 -0.2235937088465534
5.526650428771973 1.651686429977417 -1.651686429977417 0.9130886767123335 0.28833058394304684 -0.2883306137453691
4.693843364715576 3.3190486431121826 -1.7180659770965576 0.7724307363082168 0.5516002905371395 -0.31478226933181835
-4.242640495300293 -4.242640495300293 3.6739402930577075e-16 -0.7071067811865476 -0.7071067811865476 -1.4002528265612305e-9
-5.196152210235596 -3 3.6739402930577075e-16 -0.8775700348593093 -0.4794484684687507 -4.982694267333945e-9
-5.795555114746094 -1.5529142618179321 3.6739402930577075e-16 -0.974682437188771 -0.2235937088465534 2.953701687932287e-9
-3 -5.196152210235596 3.6739402930577075e-16 -0.4794484684687507 -0.8775700348593093 -4.982694267333945e-9
-1.5529142618179321 -5.795555114746094 3.6739402930577075e-16 -0.2235937088465534 -0.974682437188771 2.953701687932287e-9
-4.693843364715576 -3.3190486431121826 1.7180659770965576 -0.7724307290618561 -0.551600285362443 0.3147822961810921
-5.526650428771973 -1.651686429977417 1.651686429977417 -0.9130886688662343 -0.2883306112677668 0.2883306112677668
-3.3190486431121826 -4.693843364715576 1.7180659770965576 -0.551600285362443 -0.7724307290618561 0.3147822961810921
-1.651686429977417 -5.526650428771973 1.651686429977417 -0.2883306112677668 -0.9130886688662343 0.2883306112677668
-6 3.6739402930577075e-16 3.6739402930577075e-16 -1 -1.4541663428957463e-9 -1.4541663428957463e-9
-5.795555114746094 1.5529142618179321 3.6739402930577075e-16 -0.974682437188771 0.2235937088465534 -3.6716196255917415e-9
-5.196152210235596 3 3.6739402930577075e-16 -0.8775700348593093 0.4794484684687507 2.116041790543803e-9
-4.242640495300293 4.242640495300293 3.6739402930577075e-16 -0.7071067811865476 0.7071067811865476 -1.7273013315517837e-9
-5.795555114746094 3.6739402930577075e-16 1.5529142618179321 -0.9746824339413184 1.9112669459492097e-10 0.22359372300274352
-5.526650428771973 1.651686429977417 1.651686429977417 -0.9130886531740351 0.2883306361148835 0.2883306361148835
-4.693843364715576 3.3190486431121826 1.7180659770965576 -0.7724307784993633 0.5516002184973463 0.3147822920377627
3.6739402930577075e-16 -6 3.6739402930577075e-16 -1.4541663428957463e-9 -1 -1.4541663428957463e-9
1.5529142618179321 -5.795555114746094 3.6739402930577075e-16 0.2235937088465534 -0.974682437188771 -3.6716196255917415e-9
3 -5.196152210235596 3.6739402930577075e-16 0.4794484684687507 -0.8775700348593093 2.116041790543803e-9
4.242640495300293 -4.242640495300293 3.6739402930577075e-16 0.7071067811865476 -0.7071067811865476 -1.7273013315517837e-9
3.6739402930577075e-16 -5.795555114746094 1.5529142618179321 1.9112669459492097e-10 -0.9746824339413184 0.22359372300274352
1.651686429977417 -5.526650428771973 1.651686429977417 0.2883306361148835 -0.9130886531740351 0.2883306361148835
3.3190486431121826 -4.693843364715576 1.7180659770965576 0.5516002184973463 -0.7724307784993633 0.3147822920377627
4.242640495300293 4.242640495300293 3.6739402930577075e-16 0.7071067811865476 0.7071067811865476 -9.860035699853583e-12
-3.464101552963257 -3.464101552963257 3.464101552963257 -0.5773502691896257 -0.5773502691896257 0.5773502691896257
-4.693843364715576 -1.7180659770965576 3.3190486431121826 -0.7724307363082168 -0.31478226933181835 0.5516002905371395
-1.7180659770965576 -4.693843364715576 3.3190486431121826 -0.3147822920377627 -0.7724307784993633 0.5516002184973463
-3.3190486431121826 -1.7180659770965576 4.693843364715576 -0.5516002184973463 -0.3147822920377627 0.7724307784993633
-1.7180659770965576 -3.3190486431121826 4.693843364715576 -0.3147822920377627 -0.5516002184973463 0.7724307784993633
-1.651686429977417 -1.651686429977417 5.526650428771973 -0.2883305864206489 -0.2883305864206489 0.9130886845584328
-5.196152210235596 3.6739402930577075e-16 3 -0.8775700348593093 -1.7848726977206102e-9 0.4794484684687507
-4.693843364715576 1.7180659770965576 3.3190486431121826 -0.7724307784993633 0.3147822920377627 0.5516002184973463
-4.242640495300293 3.6739402930577075e-16 4.242640495300293 -0.7071067811865476 -1.7273013315517837e-9 0.7071067811865476
-3.464101552963257 3.464101552963257 3.464101552963257 -0.5773502691896257 0.5773502691896257 0.5773502691896257
-3 3.6739402930577075e-16 5.196152210235596 -0.4794484684687507 -1.5990631074059563e-9 0.8775700348593093
-3.3190486431121826 1.7180659770965576 4.693843364715576 -0.551600285362443 0.3147822961810921 0.7724307290618561
-1.5529142618179321 3.6739402930577075e-16 5.795555114746094 -0.2235937088465534 1.0223286524206455e-9 0.974682437188771
-1.651686429977417 1.651686429977417 5.526650428771973 -0.2883306112677668 0.2883306112677668 0.9130886688662343
-1.7180659770965576 3.3190486431121826 4.693843364715576 -0.31478226933181835 0.5516002905371395 0.7724307363082168
3.6739402930577075e-16 -5.196152210235596 3 -1.7848726977206102e-9 -0.8775700348593093 0.4794484684687507
1.7180659770965576 -4.693843364715576 3.3190486431121826 0.3147822920377627 -0.7724307784993633 0.5516002184973463
3.6739402930577075e-16 -4.242640495300293 4.242640495300293 -1.7273013315517837e-9 -0.7071067811865476 0.7071067811865476
3.464101552963257 -3.464101552963257 3.464101552963257 0.5773502691896257 -0.5773502691896257 0.5773502691896257
3.6739402930577075e-16 -3 5.196152210235596 -1.5990631074059563e-9 -0.4794484684687507 0.8775700348593093
1.7180659770965576 -3.3190486431121826 4.693843364715576 0.3147822961810921 -0.551600285362443 0.7724307290618561
3.6739402930577075e-16 -1.5529142618179321 5.795555114746094 1.0223286524206455e-9 -0.2235937088465534 0.974682437188771
1.651686429977417 -1.651686429977417 5.526650428771973 0.2883306112677668 -0.2883306112677668 0.9130886688662343
3.3190486431121826 -1.7180659770965576 4.693843364715576 0.5516002905371395 -0.31478226933181835 0.7724307363082168
3.6739402930577075e-16 4.242640495300293 4.242640495300293 -1.7273013315517837e-9 0.7071067811865476 0.7071067811865476
4.242640495300293 3.6739402930577075e-16 4.242640495300293 0.7071067811865476 -1.7273013315517837e-9 0.7071067811865476
3.464101552963257 3.464101552963257 3.464101552963257 0.5773502691896257 0.5773502691896257 0.5773502691896257
3.6739402930577075e-16 3.6739402930577075e-16 6 -1.4541663428957463e-9 -1.4541663428957463e-9 1
3.6739402930577075e-16 1.5529142618179321 5.795555114746094 1.9112669459492097e-10 0.22359372300274352 0.9746824339413184
1.5529142618179321 3.6739402930577075e-16 5.795555114746094 0.22359372300274352 1.9112669459492097e-10 0.9746824339413184
1.651686429977417 1.651686429977417 5.526650428771973 0.2883306361148835 0.2883306361148835 0.9130886531740351
3.6739402930577075e-16 3 5.196152210235596 -1.5990631074059563e-9 0.4794484684687507 0.8775700348593093
1.7180659770965576 3.3190486431121826 4.693843364715576 0.3147822961810921 0.551600285362443 0.7724307290618561
3 3.6739402930577075e-16 5.196152210235596 0.4794484684687507 -1.5990631074059563e-9 0.8775700348593093
3.3190486431121826 1.7180659770965576 4.693843364715576 0.551600285362443 0.3147822961810921 0.7724307290618561
-3 5.196152210235596 3.6739402930577075e-16 -0.4794484684687507 0.8775700348593093 -4.982694267333945e-9
-1.5529142618179321 5.795555114746094 3.6739402930577075e-16 -0.2235937088465534 0.974682437188771 2.953701687932287e-9
-3.3190486431121826 4.693843364715576 1.7180659770965576 -0.551600285362443 0.7724307290618561 0.3147822961810921
-1.651686429977417 5.526650428771973 1.651686429977417 -0.2883306112677668 0.9130886688662343 0.2883306112677668
3.6739402930577075e-16 6 3.6739402930577075e-16 -1.4541663428957463e-9 1 -1.4541663428957463e-9
1.5529142618179321 5.795555114746094 3.6739402930577075e-16 0.2235937088465534 0.974682437188771 -3.6716196255917415e-9
3 5.196152210235596 3.6739402930577075e-16 0.4794484684687507 0.8775700348593093 2.116041790543803e-9
3.6739402930577075e-16 5.795555114746094 1.5529142618179321 1.9112669459492097e-10 0.9746824339413184 0.22359372300274352
1.651686429977417 5.526650428771973 1.651686429977417 0.2883306361148835 0.9130886531740351 0.2883306361148835
3.3190486431121826 4.693843364715576 1.7180659770965576 0.551600285362443 0.7724307290618561 0.3147822961810921
-1.7180659770965576 4.693843364715576 3.3190486431121826 -0.31478226933181835 0.7724307363082168 0.5516002905371395
3.6739402930577075e-16 5.196152210235596 3 -1.7848726977206102e-9 0.8775700348593093 0.4794484684687507
1.7180659770965576 4.693843364715576 3.3190486431121826 0.3147822961810921 0.7724307290618561 0.551600285362443
5.196152210235596 -3 3.6739402930577075e-16 0.8775700348593093 -0.4794484684687507 -4.982694267333945e-9
5.795555114746094 -1.5529142618179321 3.6739402930577075e-16 0.974682437188771 -0.2235937088465534 2.953701687932287e-9
4.693843364715576 -3.3190486431121826 1.7180659770965576 0.7724307290618561 -0.551600285362443 0.3147822961810921
5.526650428771973 -1.651686429977417 1.651686429977417 0.9130886688662343 -0.2883306112677668 0.2883306112677668
5.795555114746094 1.5529142618179321 3.6739402930577075e-16 0.974682437188771 0.2235937088465534 -3.6716196255917415e-9
6 3.6739402930577075e-16 3.6739402930577075e-16 1 -1.4541663428957463e-9 -1.4541663428957463e-9
5.196152210235596 3 3.6739402930577075e-16 0.8775700348593093 0.4794484684687507 2.116041790543803e-9
5.795555114746094 3.6739402930577075e-16 1.5529142618179321 0.9746824339413184 1.9112669459492097e-10 0.22359372300274352
5.526650428771973 1.651686429977417 1.651686429977417 0.9130886531740351 0.2883306361148835 0.2883306361148835
4.693843364715576 3.3190486431121826 1.7180659770965576 0.7724307290618561 0.551600285362443 0.3147822961810921
4.693843364715576 -1.7180659770965576 3.3190486431121826 0.7724307363082168 -0.31478226933181835 0.5516002905371395
5.196152210235596 3.6739402930577075e-16 3 0.8775700348593093 -1.7848726977206102e-9 0.4794484684687507
4.693843364715576 1.7180659770965576 3.3190486431121826 0.7724307290618561 0.3147822961810921 0.551600285362443
-1.7180659770965576 25.306156158447266 -3.3190486431121826 -0.31478223419588397 -0.7724308424295855 -0.5516001619816372
1.7180659770965576 25.306156158447266 -3.3190486431121826 0.31478222384649507 -0.7724308170336569 -0.5516002034508078
-3.3190486431121826 25.306156158447266 -1.7180659770965576 -0.5516001619816372 -0.7724308424295855 -0.31478223419588397
-1.651686429977417 24.473350524902344 -1.651686429977417 -0.2883304961870925 -0.9130887415454262 -0.2883304961870925
3.6739402930577075e-16 24.803848266601562 -3 -2.084636670584852e-9 -0.8775702652151008 -0.47944804683124675
3.6739402930577075e-16 24.204444885253906 -1.5529142618179321 2.953701682388356e-9 -0.9746823757547035 -0.22359397664777808
1.651686429977417 24.473350524902344 -1.651686429977417 0.28833049866469285 -0.913088749391523 -0.2883304688623701
3.3190486431121826 25.306156158447266 -1.7180659770965576 0.5516001619816372 -0.7724308424295855 -0.31478223419588397
-1.7180659770965576 26.680952072143555 -4.693843364715576 -0.3147823891410308 -0.5516000531698078 -0.7724308569896271
-1.651686429977417 28.34831428527832 -5.526650428771973 -0.28833060879016437 -0.2883306385924862 -0.9130886610201346
-1.5529142618179321 30 -5.795555114746094 -0.2235937088465534 1.0223290965098494e-9 -0.974682437188771
-3.3190486431121826 28.28193473815918 -4.693843364715576 -0.5516002184973463 -0.3147822920377627 -0.7724307784993633
-3 30 -5.196152210235596 -0.4794484455171125 -1.4333268139869294e-9 -0.8775700473986248
-3.464101552963257 26.535898208618164 -3.464101552963257 -0.5773503287942654 -0.5773501499803279 -0.5773503287942654
-4.242640495300293 30 -4.242640495300293 -0.7071067811865476 -1.4002533816727523e-9 -0.7071067811865476
-4.693843364715576 28.28193473815918 -3.3190486431121826 -0.7724307290618561 -0.3147822961810921 -0.551600285362443
-1.651686429977417 31.65168571472168 -5.526650428771973 -0.2883306187005731 0.28833052929360464 -0.91308869240453
-3.3190486431121826 31.71806526184082 -4.693843364715576 -0.5516003216569089 0.3147823126809711 -0.772430696419565
-1.7180659770965576 33.31904983520508 -4.693843364715576 -0.314782527530718 0.5516000941614235 -0.7724307713203051
-4.693843364715576 31.71806526184082 -3.3190486431121826 -0.772430696419565 0.3147823126809711 -0.5516003216569089
-3.464101552963257 33.4640998840332 -3.464101552963257 -0.5773503287942654 0.5773501499803279 -0.5773503287942654
-1.7180659770965576 34.693843841552734 -3.3190486431121826 -0.31478244283957324 0.7724308424968976 -0.551600042820415
3.6739402930577075e-16 27 -5.196152210235596 -1.455740892008992e-9 -0.4794483286319222 -0.8775701112572467
1.7180659770965576 26.680952072143555 -4.693843364715576 0.314782351942367 -0.5516000998136823 -0.7724308388400657
3.6739402930577075e-16 28.447086334228516 -5.795555114746094 8.322446037049417e-11 -0.2235937371589335 -0.9746824306938655
3.6739402930577075e-16 30 -6 1.3607298621209907e-9 -1.4541668980072586e-9 -1
1.651686429977417 28.34831428527832 -5.526650428771973 0.28833060879016437 -0.2883306385924862 -0.9130886610201346
1.5529142618179321 30 -5.795555114746094 0.2235937088465534 -3.0492827852385133e-9 -0.974682437188771
3 30 -5.196152210235596 0.4794484914203879 -1.4333267730262396e-9 -0.8775700223199936
3.3190486431121826 28.28193473815918 -4.693843364715576 0.5516002184973463 -0.3147822920377627 -0.7724307784993633
3.6739402930577075e-16 25.75735855102539 -4.242640495300293 2.148111634754122e-10 -0.7071066917795769 -0.7071068705935067
3.464101552963257 26.535898208618164 -3.464101552963257 0.5773503287942654 -0.5773501499803279 -0.5773503287942654
4.242640495300293 30 -4.242640495300293 0.7071067811865476 -1.7273021087079142e-9 -0.7071067811865476
3.6739402930577075e-16 31.552913665771484 -5.795555114746094 2.0145977813846467e-9 0.2235937371589335 -0.9746824306938655
1.651686429977417 31.65168571472168 -5.526650428771973 0.28833058889825075 0.288330559095928 -0.9130886924045316
3.6739402930577075e-16 33 -5.196152210235596 -1.2835689301730813e-10 0.47944816371645554 -0.8775702013565174
1.7180659770965576 33.31904983520508 -4.693843364715576 0.314782527530718 0.5516000941614235 -0.7724307713203051
3.3190486431121826 31.71806526184082 -4.693843364715576 0.5516003216569089 0.3147823126809711 -0.772430696419565
3.6739402930577075e-16 34.24264144897461 -4.242640495300293 -2.500426691944808e-9 0.70710693019814 -0.7071066321749235
3.6739402930577075e-16 35.19615173339844 -3 -2.084636670584852e-9 0.8775702652151008 -0.47944804683124675
1.7180659770965576 34.693843841552734 -3.3190486431121826 0.31478244283957324 0.7724308424968976 -0.551600042820415
3.464101552963257 33.4640998840332 -3.464101552963257 0.5773503685306817 0.5773500705074627 -0.5773503685306817
-4.693843364715576 26.680952072143555 -1.7180659770965576 -0.7724308569896271 -0.5516000531698078 -0.3147823891410308
-5.196152210235596 30 -3 -0.8775700473986248 -1.4333268139869294e-9 -0.4794484455171125
-5.526650428771973 28.34831428527832 -1.651686429977417 -0.9130886610201346 -0.2883306385924862 -0.28833060879016437
-5.795555114746094 30 -1.5529142618179321 -0.974682437188771 8.134647845858321e-10 -0.2235937088465534
-5.526650428771973 31.65168571472168 -1.651686429977417 -0.91308869240453 0.28833052929360464 -0.2883306187005731
-4.693843364715576 33.31904983520508 -1.7180659770965576 -0.7724307640739385 0.5516000889867249 -0.3147825543799861
-3.3190486431121826 34.693843841552734 -1.7180659770965576 -0.5516000376457181 0.7724308352505321 -0.3147824696888433
-1.651686429977417 35.526649475097656 -1.651686429977417 -0.2883304961870925 0.9130887415454262 -0.2883304961870925
3.6739402930577075e-16 35.795555114746094 -1.5529142618179321 2.953701682388356e-9 0.9746823757547035 -0.22359397664777808
1.651686429977417 35.526649475097656 -1.651686429977417 0.28833049866469285 0.913088749391523 -0.2883304688623701
3.3190486431121826 34.693843841552734 -1.7180659770965576 0.5515999707806143 0.7724308846880208 -0.3147824655455051
4.693843364715576 28.28193473815918 -3.3190486431121826 0.7724307784993633 -0.3147822920377627 -0.5516002184973463
5.196152210235596 30 -3 0.8775700473986248 -1.4333268139869294e-9 -0.4794484455171125
4.693843364715576 31.71806526184082 -3.3190486431121826 0.7724307218154951 0.31478232303036513 -0.5516002801877461
4.693843364715576 26.680952072143555 -1.7180659770965576 0.7724308315937023 -0.5516000946389863 -0.3147823787916386
5.526650428771973 28.34831428527832 -1.651686429977417 0.9130886610201346 -0.2883306385924862 -0.28833060879016437
5.795555114746094 30 -1.5529142618179321 0.974682437188771 8.134647845858321e-10 -0.2235937088465534
5.526650428771973 31.65168571472168 -1.651686429977417 0.91308869240453 0.28833052929360464 -0.2883306187005731
4.693843364715576 33.31904983520508 -1.7180659770965576 0.7724307218828037 0.5516001610265218 -0.3147825316740526
-3 24.803848266601562 3.6739402930577075e-16 -0.47944804683124675 -0.8775702652151008 -1.5065428796635884e-9
-1.5529142618179321 24.204444885253906 3.6739402930577075e-16 -0.22359397664777808 -0.9746823757547035 -9.090443258736205e-10
-3.3190486431121826 25.306156158447266 1.7180659770965576 -0.5516002034508078 -0.7724308170336569 0.31478222384649507
-1.651686429977417 24.473350524902344 1.651686429977417 -0.2883304961870925 -0.9130887415454262 0.2883304961870925
3.6739402930577075e-16 24 3.6739402930577075e-16 -1.4541663428957463e-9 -1 -1.4541663428957463e-9
1.5529142618179321 24.204444885253906 3.6739402930577075e-16 0.22359399080396633 -0.974682372507247 1.59405463630619e-9
3 24.803848266601562 3.6739402930577075e-16 0.47944804683124675 -0.8775702652151008 -1.5065428796635884e-9
3.6739402930577075e-16 24.204444885253906 1.5529142618179321 -3.373183347581359e-10 -0.9746823757547035 0.22359397664777808
1.651686429977417 24.473350524902344 1.651686429977417 0.2883305210342134 -0.9130887258532315 0.2883305210342134
3.3190486431121826 25.306156158447266 1.7180659770965576 0.5516001619816372 -0.7724308424295855 0.31478223419588397
-1.7180659770965576 25.306156158447266 3.3190486431121826 -0.31478223419588397 -0.7724308424295855 0.5516001619816372
3.6739402930577075e-16 24.803848266601562 3 -8.09082350880508e-10 -0.8775702652151008 0.47944804683124675
1.7180659770965576 25.306156158447266 3.3190486431121826 0.31478223419588397 -0.7724308424295855 0.5516001619816372
-5.196152210235596 27 3.6739402930577075e-16 -0.8775701112572467 -0.4794483286319222 -1.455740892008992e-9
-4.242640495300293 25.75735855102539 3.6739402930577075e-16 -0.7071068705935067 -0.7071066917795769 2.148111634754122e-10
-5.795555114746094 28.447086334228516 3.6739402930577075e-16 -0.9746824306938655 -0.2235937371589335 8.322446037049417e-11
-6 30 3.6739402930577075e-16 -1 -1.4541668980072586e-9 1.3607298621209907e-9
-4.693843364715576 26.680952072143555 1.7180659770965576 -0.7724308388400657 -0.5516000998136823 0.314782351942367
-5.526650428771973 28.34831428527832 1.651686429977417 -0.9130886610201346 -0.2883306385924862 0.28833060879016437
-5.795555114746094 30 1.5529142618179321 -0.974682437188771 -3.0492827852385133e-9 0.2235937088465534
-5.795555114746094 31.552913665771484 3.6739402930577075e-16 -0.9746824306938655 0.2235937371589335 2.0145977813846467e-9
-5.196152210235596 33 3.6739402930577075e-16 -0.8775702013565174 0.47944816371645554 3.4210089905601363e-9
-4.242640495300293 34.24264144897461 3.6739402930577075e-16 -0.7071066619772459 0.707106900395829 1.743542784456961e-9
-3 35.19615173339844 3.6739402930577075e-16 -0.47944804683124675 0.8775702652151008 -1.5065428796635884e-9
-1.5529142618179321 35.795555114746094 3.6739402930577075e-16 -0.22359397664777808 0.9746823757547035 -9.090443258736205e-10
-5.526650428771973 31.65168571472168 1.651686429977417 -0.9130886845584328 0.2883305864206489 0.2883305864206489
-4.693843364715576 33.31904983520508 1.7180659770965576 -0.7724307713203051 0.5516000941614235 0.314782527530718
-3.3190486431121826 34.693843841552734 1.7180659770965576 -0.551600042820415 0.7724308424968976 0.31478244283957324
-1.651686429977417 35.526649475097656 1.651686429977417 -0.2883304961870925 0.9130887415454262 0.2883304961870925
4.242640495300293 25.75735855102539 3.6739402930577075e-16 0.7071068705935067 -0.7071066917795769 1.6357305100618436e-9
3.6739402930577075e-16 36 3.6739402930577075e-16 -1.4541663428957463e-9 1 -1.4541663428957463e-9
1.5529142618179321 35.795555114746094 3.6739402930577075e-16 0.22359399080396633 0.974682372507247 1.59405463630619e-9
3 35.19615173339844 3.6739402930577075e-16 0.47944804683124675 0.8775702652151008 -1.5065428796635884e-9
4.242640495300293 34.24264144897461 3.6739402930577075e-16 0.7071066619772459 0.707106900395829 1.5932246905767678e-9
3.6739402930577075e-16 35.795555114746094 1.5529142618179321 -3.373183347581359e-10 0.9746823757547035 0.22359397664777808
1.651686429977417 35.526649475097656 1.651686429977417 0.2883305210342134 0.9130887258532315 0.2883305210342134
3.3190486431121826 34.693843841552734 1.7180659770965576 0.551600042820415 0.7724308424968976 0.31478244283957324
-3.464101552963257 26.535898208618164 3.464101552963257 -0.5773503287942654 -0.5773501499803279 0.5773503287942654
-4.693843364715576 28.28193473815918 3.3190486431121826 -0.7724307784993633 -0.3147822920377627 0.5516002184973463
-5.196152210235596 30 3 -0.8775700473986248 -1.7848735003802108e-9 0.4794484455171125
-4.242640495300293 30 4.242640495300293 -0.7071067811865476 -1.4002533816727523e-9 0.7071067811865476
-1.7180659770965576 26.680952072143555 4.693843364715576 -0.3147823787916386 -0.5516000946389863 0.7724308315937023
-3.3190486431121826 28.28193473815918 4.693843364715576 -0.5516002184973463 -0.3147822920377627 0.7724307784993633
-3 30 5.196152210235596 -0.4794484455171125 -1.4333268139869294e-9 0.8775700473986248
-1.651686429977417 28.34831428527832 5.526650428771973 -0.28833060879016437 -0.2883306385924862 0.9130886610201346
-1.5529142618179321 30 5.795555114746094 -0.2235937088465534 1.0223290965098494e-9 0.974682437188771
-4.693843364715576 31.71806526184082 3.3190486431121826 -0.772430696419565 0.3147823126809711 0.5516003216569089
-3.464101552963257 33.4640998840332 3.464101552963257 -0.5773503287942654 0.5773501499803279 0.5773503287942654
-1.7180659770965576 34.693843841552734 3.3190486431121826 -0.3147824696888433 0.7724308352505321 0.5516000376457181
-3.3190486431121826 31.71806526184082 4.693843364715576 -0.5516003216569089 0.3147823126809711 0.772430696419565
-1.7180659770965576 33.31904983520508 4.693843364715576 -0.3147825316740526 0.5516001610265218 0.7724307218828037
-1.651686429977417 31.65168571472168 5.526650428771973 -0.2883306162229712 0.2883305566183261 0.9130886845584321
3.6739402930577075e-16 25.75735855102539 4.242640495300293 -8.171052518784395e-11 -0.7071066917795769 0.7071068705935067
3.464101552963257 26.535898208618164 3.464101552963257 0.5773503685306817 -0.5773500705074627 0.5773503685306817
4.242640495300293 30 4.242640495300293 0.7071068109888685 -1.7273020359075742e-9 0.7071067513842252
3.6739402930577075e-16 27 5.196152210235596 -1.9971147381209752e-9 -0.4794483286319222 0.8775701112572467
1.7180659770965576 26.680952072143555 4.693843364715576 0.3147823787916386 -0.5516000946389863 0.7724308315937023
3.6739402930577075e-16 28.447086334228516 5.795555114746094 8.322446037049417e-11 -0.2235937371589335 0.9746824306938655
3.6739402930577075e-16 30 6 1.3607298621209907e-9 -1.4541668980072586e-9 1
1.651686429977417 28.34831428527832 5.526650428771973 0.28833060879016437 -0.2883306385924862 0.9130886610201346
1.5529142618179321 30 5.795555114746094 0.2235937088465534 -3.0492827852385133e-9 0.974682437188771
3 30 5.196152210235596 0.4794484455171125 -1.4333268139869294e-9 0.8775700473986248
3.3190486431121826 28.28193473815918 4.693843364715576 0.5516002184973463 -0.3147822920377627 0.7724307784993633
3.6739402930577075e-16 35.19615173339844 3 -8.09082350880508e-10 0.8775702652151008 0.47944804683124675
1.7180659770965576 34.693843841552734 3.3190486431121826 0.3147824696888433 0.7724308352505321 0.5516000376457181
3.6739402930577075e-16 34.24264144897461 4.242640495300293 -1.8416584128704778e-9 0.707106900395829 0.7071066619772459
3.464101552963257 33.4640998840332 3.464101552963257 0.5773503685306817 0.5773500705074627 0.5773503685306817
3.6739402930577075e-16 33 5.196152210235596 -1.2835689301730813e-10 0.47944816371645554 0.8775702013565174
1.7180659770965576 33.31904983520508 4.693843364715576 0.314782527530718 0.5516000941614235 0.7724307713203051
3.6739402930577075e-16 31.552913665771484 5.795555114746094 2.0145977813846467e-9 0.2235937371589335 0.9746824306938655
1.651686429977417 31.65168571472168 5.526650428771973 0.28833058889825075 0.288330559095928 0.9130886924045316
3.3190486431121826 31.71806526184082 4.693843364715576 0.5516003216569089 0.3147823126809711 0.772430696419565
5.196152210235596 27 3.6739402930577075e-16 0.8775701112572467 -0.4794483286319222 -1.455740892008992e-9
5.795555114746094 28.447086334228516 3.6739402930577075e-16 0.9746824306938655 -0.2235937371589335 8.322446037049417e-11
6 30 3.6739402930577075e-16 1 -1.4541668980072586e-9 1.3607298621209907e-9
4.693843364715576 26.680952072143555 1.7180659770965576 0.7724308315937023 -0.5516000946389863 0.3147823787916386
5.526650428771973 28.34831428527832 1.651686429977417 0.9130886610201346 -0.2883306385924862 0.28833060879016437
5.795555114746094 30 1.5529142618179321 0.974682437188771 -3.0492827852385133e-9 0.2235937088465534
5.795555114746094 31.552913665771484 3.6739402930577075e-16 0.9746824306938655 0.2235937371589335 2.0145977813846467e-9
5.196152210235596 33 3.6739402930577075e-16 0.8775702013565174 0.47944816371645554 3.4210089905601363e-9
5.526650428771973 31.65168571472168 1.651686429977417 0.9130886845584328 0.2883305864206489 0.2883305864206489
4.693843364715576 33.31904983520508 1.7180659770965576 0.7724307713203051 0.5516000941614235 0.314782527530718
4.693843364715576 28.28193473815918 3.3190486431121826 0.7724307784993633 -0.3147822920377627 0.5516002184973463
5.196152210235596 30 3 0.8775700473986248 -1.7848735003802108e-9 0.4794484455171125
4.693843364715576 31.71806526184082 3.3190486431121826 0.772430696419565 0.3147823126809711 0.5516003216569089
25.306156158447266 -1.7180659770965576 -3.3190486431121826 -0.7724308424295855 -0.31478223419588397 -0.5516001619816372
25.306156158447266 1.7180659770965576 -3.3190486431121826 -0.7724308170336569 0.31478222384649507 -0.5516002034508078
25.306156158447266 -3.3190486431121826 -1.7180659770965576 -0.7724308424295855 -0.5516001619816372 -0.31478223419588397
24.473350524902344 -1.651686429977417 -1.651686429977417 -0.9130887415454262 -0.2883304961870925 -0.2883304961870925
24.803848266601562 3.6739402930577075e-16 -3 -0.8775702652151008 -2.084636670584852e-9 -0.47944804683124675
24.204444885253906 3.6739402930577075e-16 -1.5529142618179321 -0.9746823757547035 2.953701682388356e-9 -0.22359397664777808
24.473350524902344 1.651686429977417 -1.651686429977417 -0.913088749391523 0.28833049866469285 -0.2883304688623701
25.306156158447266 3.3190486431121826 -1.7180659770965576 -0.7724308424295855 0.5516001619816372 -0.31478223419588397
26.680952072143555 -1.7180659770965576 -4.693843364715576 -0.5516000998136823 -0.314782351942367 -0.7724308388400657
28.34831428527832 -1.651686429977417 -5.526650428771973 -0.2883306385924862 -0.28833060879016437 -0.9130886610201346
30 -1.5529142618179321 -5.795555114746094 8.134647845858321e-10 -0.2235937088465534 -0.974682437188771
28.28193473815918 -3.3190486431121826 -4.693843364715576 -0.3147822920377627 -0.5516002184973463 -0.7724307784993633
30 -3 -5.196152210235596 -1.4333268139869294e-9 -0.4794484455171125 -0.8775700473986248
26.535898208618164 -3.464101552963257 -3.464101552963257 -0.5773501499803279 -0.5773503287942654 -0.5773503287942654
30 -4.242640495300293 -4.242640495300293 -1.4002533816727523e-9 -0.7071067811865476 -0.7071067811865476
28.28193473815918 -4.693843364715576 -3.3190486431121826 -0.3147822961810921 -0.7724307290618561 -0.551600285362443
26.680952072143555 1.7180659770965576 -4.693843364715576 -0.5516000998136823 0.314782351942367 -0.7724308388400657
27 3.6739402930577075e-16 -5.196152210235596 -0.4794483286319222 -1.455740892008992e-9 -0.8775701112572467
28.447086334228516 3.6739402930577075e-16 -5.795555114746094 -0.2235937371589335 2.782007457301253e-9 -0.9746824306938655
28.34831428527832 1.651686429977417 -5.526650428771973 -0.288330651807084 0.288330651807084 -0.9130886432636232
30 3.6739402930577075e-16 -6 -1.4541668980072586e-9 1.3607298621209907e-9 -1
30 1.5529142618179321 -5.795555114746094 8.134647845858321e-10 0.2235937088465534 -0.974682437188771
28.28193473815918 3.3190486431121826 -4.693843364715576 -0.3147822920377627 0.5516002184973463 -0.7724307784993633
30 3 -5.196152210235596 -1.4333267730262396e-9 0.4794484914203879 -0.8775700223199936
25.75735855102539 3.6739402930577075e-16 -4.242640495300293 -0.7071066917795769 2.148111634754122e-10 -0.7071068705935067
26.535898208618164 3.464101552963257 -3.464101552963257 -0.5773501499803279 0.5773503287942654 -0.5773503287942654
30 4.242640495300293 -4.242640495300293 -1.7273021087079142e-9 0.7071067811865476 -0.7071067811865476
31.65168571472168 -1.651686429977417 -5.526650428771973 0.28833052929360464 -0.2883306187005731 -0.91308869240453
31.71806526184082 -3.3190486431121826 -4.693843364715576 0.3147823126809711 -0.5516003216569089 -0.772430696419565
33.31904983520508 -1.7180659770965576 -4.693843364715576 0.5516000941614235 -0.314782527530718 -0.7724307713203051
31.71806526184082 -4.693843364715576 -3.3190486431121826 0.3147823126809711 -0.772430696419565 -0.5516003216569089
33.4640998840332 -3.464101552963257 -3.464101552963257 0.5773501499803279 -0.5773503287942654 -0.5773503287942654
34.693843841552734 -1.7180659770965576 -3.3190486431121826 0.7724308424968976 -0.31478244283957324 -0.551600042820415
31.552913665771484 3.6739402930577075e-16 -5.795555114746094 0.2235937513151233 -2.4207002501260223e-10 -0.9746824274464124
31.65168571472168 1.651686429977417 -5.526650428771973 0.288330559095928 0.28833058889825075 -0.9130886924045316
33 3.6739402930577075e-16 -5.196152210235596 0.47944816371645554 -1.2835689301730813e-10 -0.8775702013565174
33.31904983520508 1.7180659770965576 -4.693843364715576 0.5516000941614235 0.314782527530718 -0.7724307713203051
31.71806526184082 3.3190486431121826 -4.693843364715576 0.3147823126809711 0.5516003216569089 -0.772430696419565
34.24264144897461 3.6739402930577075e-16 -4.242640495300293 0.70710693019814 -2.500426691944808e-9 -0.7071066321749235
35.19615173339844 3.6739402930577075e-16 -3 0.8775702652151008 -2.084636670584852e-9 -0.47944804683124675
34.693843841552734 1.7180659770965576 -3.3190486431121826 0.7724308424968976 0.31478244283957324 -0.551600042820415
33.4640998840332 3.464101552963257 -3.464101552963257 0.5773500705074627 0.5773503685306817 -0.5773503685306817
26.680952072143555 -4.693843364715576 -1.7180659770965576 -0.5516000531698078 -0.7724308569896271 -0.3147823891410308
30 -5.196152210235596 -3 -1.4333268139869294e-9 -0.8775700473986248 -0.4794484455171125
28.34831428527832 -5.526650428771973 -1.651686429977417 -0.2883306385924862 -0.9130886610201346 -0.28833060879016437
30 -5.795555114746094 -1.5529142618179321 8.134647845858321e-10 -0.974682437188771 -0.2235937088465534
31.65168571472168 -5.526650428771973 -1.651686429977417 0.28833052929360464 -0.91308869240453 -0.2883306187005731
33.31904983520508 -4.693843364715576 -1.7180659770965576 0.5516000889867249 -0.7724307640739385 -0.3147825543799861
34.693843841552734 -3.3190486431121826 -1.7180659770965576 0.7724308352505321 -0.5516000376457181 -0.3147824696888433
35.526649475097656 -1.651686429977417 -1.651686429977417 0.9130887415454262 -0.2883304961870925 -0.2883304961870925
35.795555114746094 3.6739402930577075e-16 -1.5529142618179321 0.9746823757547035 2.953701682388356e-9 -0.22359397664777808
35.526649475097656 1.651686429977417 -1.651686429977417 0.913088749391523 0.28833049866469285 -0.2883304688623701
34.693843841552734 3.3190486431121826 -1.7180659770965576 0.7724308352505321 0.5516000376457181 -0.3147824696888433
28.28193473815918 4.693843364715576 -3.3190486431121826 -0.3147822920377627 0.7724307784993633 -0.5516002184973463
30 5.196152210235596 -3 -1.4333268139869294e-9 0.8775700473986248 -0.4794484455171125
31.71806526184082 4.693843364715576 -3.3190486431121826 0.31478232303036513 0.7724307218154951 -0.5516002801877461
26.680952072143555 4.693843364715576 -1.7180659770965576 -0.5516000946389863 0.7724308315937023 -0.3147823787916386
28.34831428527832 5.526650428771973 -1.651686429977417 -0.2883306385924862 0.9130886610201346 -0.28833060879016437
30 5.795555114746094 -1.5529142618179321 8.134647845858321e-10 0.974682437188771 -0.2235937088465534
31.65168571472168 5.526650428771973 -1.651686429977417 0.28833052929360464 0.91308869240453 -0.2883306187005731
33.31904983520508 4.693843364715576 -1.7180659770965576 0.5516001610265218 0.7724307218828037 -0.3147825316740526
24.803848266601562 -3 3.6739402930577075e-16 -0.8775702652151008 -0.47944804683124675 -1.5065428796635884e-9
24.204444885253906 -1.5529142618179321 3.6739402930577075e-16 -0.9746823757547035 -0.22359397664777808 -9.090443258736205e-10
25.306156158447266 -3.3190486431121826 1.7180659770965576 -0.7724308170336569 -0.5516002034508078 0.31478222384649507
24.473350524902344 -1.651686429977417 1.651686429977417 -0.9130887415454262 -0.2883304961870925 0.2883304961870925
24 3.6739402930577075e-16 3.6739402930577075e-16 -1 -1.4541663428957463e-9 -1.4541663428957463e-9
24.204444885253906 1.5529142618179321 3.6739402930577075e-16 -0.974682372507247 0.22359399080396633 1.59405463630619e-9
24.803848266601562 3 3.6739402930577075e-16 -0.8775702652151008 0.47944804683124675 -1.5065428796635884e-9
24.204444885253906 3.6739402930577075e-16 1.5529142618179321 -0.9746823757547035 -3.373183347581359e-10 0.22359397664777808
24.473350524902344 1.651686429977417 1.651686429977417 -0.9130887258532315 0.2883305210342134 0.2883305210342134
25.306156158447266 3.3190486431121826 1.7180659770965576 -0.7724308424295855 0.5516001619816372 0.31478223419588397
25.306156158447266 -1.7180659770965576 3.3190486431121826 -0.7724308424295855 -0.31478223419588397 0.5516001619816372
24.803848266601562 3.6739402930577075e-16 3 -0.8775702652151008 -8.09082350880508e-10 0.47944804683124675
25.306156158447266 1.7180659770965576 3.3190486431121826 -0.7724308424295855 0.31478223419588397 0.5516001619816372
25.75735855102539 -4.242640495300293 3.6739402930577075e-16 -0.7071066917795769 -0.7071068705935067 2.148111634754122e-10
27 -5.196152210235596 3.6739402930577075e-16 -0.4794483286319222 -0.8775701112572467 -1.455740892008992e-9
28.447086334228516 -5.795555114746094 3.6739402930577075e-16 -0.2235937371589335 -0.9746824306938655 8.322446037049417e-11
30 -6 3.6739402930577075e-16 -1.4541668980072586e-9 -1 1.3607298621209907e-9
26.680952072143555 -4.693843364715576 1.7180659770965576 -0.5516000998136823 -0.7724308388400657 0.314782351942367
28.34831428527832 -5.526650428771973 1.651686429977417 -0.2883306385924862 -0.9130886610201346 0.28833060879016437
30 -5.795555114746094 1.5529142618179321 -3.0492827852385133e-9 -0.974682437188771 0.2235937088465534
25.75735855102539 4.242640495300293 3.6739402930577075e-16 -0.7071066917795769 0.7071068705935067 1.6357305100618436e-9
31.552913665771484 -5.795555114746094 3.6739402930577075e-16 0.2235937371589335 -0.9746824306938655 2.0145977813846467e-9
33 -5.196152210235596 3.6739402930577075e-16 0.47944816371645554 -0.8775702013565174 3.4210089905601363e-9
34.24264144897461 -4.242640495300293 3.6739402930577075e-16 0.707106900395829 -0.7071066619772459 1.743542784456961e-9
35.19615173339844 -3 3.6739402930577075e-16 0.8775702652151008 -0.47944804683124675 -1.5065428796635884e-9
35.795555114746094 -1.5529142618179321 3.6739402930577075e-16 0.9746823757547035 -0.22359397664777808 -9.090443258736205e-10
31.65168571472168 -5.526650428771973 1.651686429977417 0.2883305864206489 -0.9130886845584328 0.2883305864206489
33.31904983520508 -4.693843364715576 1.7180659770965576 0.5516000941614235 -0.7724307713203051 0.314782527530718
34.693843841552734 -3.3190486431121826 1.7180659770965576 0.7724308424968976 -0.551600042820415 0.31478244283957324
35.526649475097656 -1.651686429977417 1.651686429977417 0.9130887415454262 -0.2883304961870925 0.2883304961870925
36 3.6739402930577075e-16 3.6739402930577075e-16 1 -1.4541663428957463e-9 -1.4541663428957463e-9
35.795555114746094 1.5529142618179321 3.6739402930577075e-16 0.974682372507247 0.22359399080396633 1.59405463630619e-9
34.24264144897461 4.242640495300293 3.6739402930577075e-16 0.707106900395829 0.7071066619772459 1.5932246905767678e-9
35.19615173339844 3 3.6739402930577075e-16 0.8775702652151008 0.47944804683124675 -1.5065428796635884e-9
35.795555114746094 3.6739402930577075e-16 1.5529142618179321 0.9746823757547035 -3.373183347581359e-10 0.22359397664777808
35.526649475097656 1.651686429977417 1.651686429977417 0.9130887258532315 0.2883305210342134 0.2883305210342134
34.693843841552734 3.3190486431121826 1.7180659770965576 0.7724308424968976 0.551600042820415 0.31478244283957324
26.535898208618164 -3.464101552963257 3.464101552963257 -0.5773501499803279 -0.5773503287942654 0.5773503287942654
28.28193473815918 -4.693843364715576 3.3190486431121826 -0.3147822920377627 -0.7724307784993633 0.5516002184973463
30 -5.196152210235596 3 -1.7848735003802108e-9 -0.8775700473986248 0.4794484455171125
30 -4.242640495300293 4.242640495300293 -1.4002533816727523e-9 -0.7071067811865476 0.7071067811865476
26.680952072143555 -1.7180659770965576 4.693843364715576 -0.5516000531698078 -0.3147823891410308 0.7724308569896271
28.28193473815918 -3.3190486431121826 4.693843364715576 -0.3147822920377627 -0.5516002184973463 0.7724307784993633
30 -3 5.196152210235596 -1.4333268139869294e-9 -0.4794484455171125 0.8775700473986248
28.34831428527832 -1.651686429977417 5.526650428771973 -0.2883306112677668 -0.2883306112677668 0.9130886688662343
30 -1.5529142618179321 5.795555114746094 8.134647845858321e-10 -0.2235937088465534 0.974682437188771
25.75735855102539 3.6739402930577075e-16 4.242640495300293 -0.7071066917795769 -8.171052518784395e-11 0.7071068705935067
26.535898208618164 3.464101552963257 3.464101552963257 -0.5773500705074627 0.5773503685306817 0.5773503685306817
30 4.242640495300293 4.242640495300293 -1.7273020359075742e-9 0.7071068109888685 0.7071067513842252
26.680952072143555 1.7180659770965576 4.693843364715576 -0.5516000946389863 0.3147823787916386 0.7724308315937023
27 3.6739402930577075e-16 5.196152210235596 -0.4794483286319222 -1.9971147381209752e-9 0.8775701112572467
28.447086334228516 3.6739402930577075e-16 5.795555114746094 -0.2235937371589335 2.782007457301253e-9 0.9746824306938655
28.34831428527832 1.651686429977417 5.526650428771973 -0.2883306385924862 0.28833060879016437 0.9130886610201346
30 3.6739402930577075e-16 6 -1.4541668980072586e-9 1.3607298621209907e-9 1
30 1.5529142618179321 5.795555114746094 8.134647845858321e-10 0.2235937088465534 0.974682437188771
28.28193473815918 3.3190486431121826 4.693843364715576 -0.3147822920377627 0.5516002184973463 0.7724307784993633
30 3 5.196152210235596 -1.4333268139869294e-9 0.4794484455171125 0.8775700473986248
31.71806526184082 -4.693843364715576 3.3190486431121826 0.3147823126809711 -0.772430696419565 0.5516003216569089
33.4640998840332 -3.464101552963257 3.464101552963257 0.5773501499803279 -0.5773503287942654 0.5773503287942654
34.693843841552734 -1.7180659770965576 3.3190486431121826 0.7724308352505321 -0.3147824696888433 0.5516000376457181
31.71806526184082 -3.3190486431121826 4.693843364715576 0.3147823126809711 -0.5516003216569089 0.772430696419565
33.31904983520508 -1.7180659770965576 4.693843364715576 0.5516001610265218 -0.3147825316740526 0.7724307218828037
31.65168571472168 -1.651686429977417 5.526650428771973 0.2883305566183261 -0.2883306162229712 0.9130886845584321
35.19615173339844 3.6739402930577075e-16 3 0.8775702652151008 -8.09082350880508e-10 0.47944804683124675
34.693843841552734 1.7180659770965576 3.3190486431121826 0.7724308352505321 0.3147824696888433 0.5516000376457181
34.24264144897461 3.6739402930577075e-16 4.242640495300293 0.707106900395829 -1.8416584128704778e-9 0.7071066619772459
33.4640998840332 3.464101552963257 3.464101552963257 0.5773500705074627 0.5773503685306817 0.5773503685306817
33 3.6739402930577075e-16 5.196152210235596 0.47944816371645554 -1.2835689301730813e-10 0.8775702013565174
33.31904983520508 1.7180659770965576 4.693843364715576 0.5516000941614235 0.314782527530718 0.7724307713203051
31.552913665771484 3.6739402930577075e-16 5.795555114746094 0.2235937513151233 -2.4207002501260223e-10 0.9746824274464124
31.65168571472168 1.651686429977417 5.526650428771973 0.288330559095928 0.28833058889825075 0.9130886924045316
31.71806526184082 3.3190486431121826 4.693843364715576 0.3147823126809711 0.5516003216569089 0.772430696419565
27 5.196152210235596 3.6739402930577075e-16 -0.4794483286319222 0.8775701112572467 -1.455740892008992e-9
28.447086334228516 5.795555114746094 3.6739402930577075e-16 -0.2235937371589335 0.9746824306938655 8.322446037049417e-11
30 6 3.6739402930577075e-16 -1.4541668980072586e-9 1 1.3607298621209907e-9
26.680952072143555 4.693843364715576 1.7180659770965576 -0.5516000946389863 0.7724308315937023 0.3147823787916386
28.34831428527832 5.526650428771973 1.651686429977417 -0.2883306385924862 0.9130886610201346 0.28833060879016437
30 5.795555114746094 1.5529142618179321 -3.0492827852385133e-9 0.974682437188771 0.2235937088465534
31.552913665771484 5.795555114746094 3.6739402930577075e-16 0.2235937371589335 0.9746824306938655 2.0145977813846467e-9
33 5.196152210235596 3.6739402930577075e-16 0.47944816371645554 0.8775702013565174 3.4210089905601363e-9
31.65168571472168 5.526650428771973 1.651686429977417 0.2883305864206489 0.9130886845584328 0.2883305864206489
33.31904983520508 4.693843364715576 1.7180659770965576 0.5516000941614235 0.7724307713203051 0.314782527530718
28.28193473815918 4.693843364715576 3.3190486431121826 -0.3147822920377627 0.7724307784993633 0.5516002184973463
30 5.196152210235596 3 -1.7848735003802108e-9 0.8775700473986248 0.4794484455171125
31.71806526184082 4.693843364715576 3.3190486431121826 0.3147823126809711 0.772430696419565 0.5516003216569089
3 6 14 0
3 0 2 1
3 1 8 0
3 0 16 2
3 3 4 1
3 4 11 1
3 2 5 3
3 2 19 5
3 3 1 2
3 1 11 8
3 8 11 9
3 6 0 8
3 6 8 7
3 23 6 7
3 7 8 9
3 7 9 10
3 10 26 7
3 9 11 12
3 4 37 11
3 11 37 12
3 9 12 13
3 13 10 9
3 13 45 10
3 45 30 10
3 16 19 2
3 17 19 16
3 14 16 0
3 14 15 16
3 14 24 15
3 17 16 15
3 15 18 17
3 15 28 18
3 20 19 17
3 19 41 5
3 20 41 19
3 21 20 17
3 21 17 18
3 18 53 21
3 18 31 53
3 6 22 14
3 23 22 6
3 14 22 24
3 24 22 23
3 24 23 25
3 23 7 26
3 23 26 25
3 10 30 26
3 25 26 27
3 26 30 27
3 24 28 15
3 24 25 28
3 29 28 25
3 28 31 18
3 29 31 28
3 25 27 29
3 27 30 47
3 55 31 29
3 32 29 27
3 27 47 32
3 32 55 29
3 35 33 3
3 34 37 4
3 33 4 3
3 33 34 4
3 35 3 5
3 5 41 36
3 5 36 35
3 61 33 35
3 61 62 33
3 64 61 35
3 62 34 33
3 63 38 34
3 62 63 34
3 64 35 36
3 36 42 65
3 36 65 64
3 12 37 39
3 34 38 37
3 37 38 39
3 40 13 12
3 40 48 13
3 12 39 40
3 48 45 13
3 39 38 71
3 63 70 38
3 38 70 71
3 72 40 39
3 73 48 40
3 39 71 72
3 72 73 40
3 43 41 20
3 41 42 36
3 43 42 41
3 44 20 21
3 56 44 21
3 44 43 20
3 56 21 53
3 78 42 43
3 42 77 65
3 78 77 42
3 79 43 44
3 80 44 56
3 79 78 43
3 80 79 44
3 52 32 47
3 60 55 32
3 52 60 32
3 84 60 52
3 45 46 30
3 30 46 47
3 49 46 45
3 48 49 45
3 73 120 48
3 120 49 48
3 121 50 49
3 120 121 49
3 47 46 51
3 49 50 46
3 46 50 51
3 47 51 52
3 51 50 125
3 121 124 50
3 50 124 125
3 126 52 51
3 51 125 126
3 126 84 52
3 31 54 53
3 55 54 31
3 53 54 57
3 53 57 56
3 133 80 56
3 133 56 57
3 57 58 134
3 57 134 133
3 59 54 55
3 54 58 57
3 59 58 54
3 60 59 55
3 137 58 59
3 58 138 134
3 137 138 58
3 139 59 60
3 139 137 59
3 84 139 60
3 66 62 61
3 68 61 64
3 66 61 68
3 67 63 62
3 67 62 66
3 74 63 67
3 65 69 64
3 68 64 69
3 65 81 69
3 85 66 68
3 86 67 66
3 91 67 86
3 86 66 85
3 69 87 68
3 85 68 87
3 69 100 87
3 74 70 63
3 71 70 74
3 71 74 75
3 71 75 72
3 76 73 72
3 76 72 75
3 122 73 76
3 91 74 67
3 74 91 75
3 75 91 92
3 75 92 76
3 94 76 92
3 94 122 76
3 130 122 94
3 65 77 81
3 81 77 78
3 81 78 82
3 82 78 79
3 83 79 80
3 82 79 83
3 83 80 135
3 81 100 69
3 100 81 82
3 100 82 101
3 101 82 83
3 101 83 103
3 103 83 135
3 103 135 143
3 142 84 129
3 111 129 132
3 145 142 111
3 111 142 129
3 88 86 85
3 93 86 88
3 87 89 85
3 87 102 89
3 88 85 89
3 89 90 88
3 95 88 90
3 89 104 90
3 90 106 97
3 93 91 86
3 91 93 92
3 92 93 96
3 92 96 94
3 99 94 96
3 99 130 94
3 109 130 99
3 95 93 88
3 93 95 96
3 96 95 98
3 90 97 95
3 95 97 98
3 98 97 113
3 96 98 99
3 116 99 98
3 100 102 87
3 102 100 101
3 102 101 105
3 105 101 103
3 105 103 108
3 143 108 103
3 143 110 108
3 102 104 89
3 104 102 105
3 104 105 107
3 104 106 90
3 107 106 104
3 107 114 106
3 108 107 105
3 108 118 107
3 132 109 117
3 110 145 119
3 119 111 117
3 132 117 111
3 119 145 111
3 106 112 97
3 97 112 113
3 114 112 106
3 113 112 114
3 115 113 114
3 116 109 99
3 117 116 115
3 109 116 117
3 98 113 116
3 116 113 115
3 118 119 115
3 110 118 108
3 118 110 119
3 118 114 107
3 115 114 118
3 117 115 119
3 122 120 73
3 123 121 120
3 123 120 122
3 127 121 123
3 130 123 122
3 131 123 130
3 127 124 121
3 125 124 127
3 125 127 128
3 125 128 126
3 129 84 126
3 129 126 128
3 131 127 123
3 127 131 128
3 128 131 132
3 128 132 129
3 109 131 130
3 131 109 132
3 135 80 133
3 134 136 133
3 135 133 136
3 134 140 136
3 136 143 135
3 136 144 143
3 134 138 140
3 140 138 137
3 140 137 141
3 141 137 139
3 142 139 84
3 141 139 142
3 140 144 136
3 144 140 141
3 144 141 145
3 145 141 142
3 144 110 143
3 110 144 145
3 292 296 316
3 316 296 293
3 295 296 292
3 294 295 292
3 366 353 294
3 353 295 294
3 354 297 295
3 353 354 295
3 293 296 298
3 295 297 296
3 296 297 298
3 293 298 299
3 298 297 358
3 354 357 297
3 297 357 358
3 359 299 298
3 298 358 359
3 359 373 299
3 301 303 300
3 300 309 301
3 304 306 303
3 320 306 304
3 310 302 301
3 302 304 301
3 302 319 304
3 301 304 303
3 303 307 305
3 305 292 300
3 292 316 300
3 305 300 303
3 303 306 307
3 306 335 307
3 322 335 306
3 310 301 309
3 310 309 311
3 300 316 309
3 309 316 308
3 311 309 308
3 311 308 314
3 313 310 311
3 310 312 302
3 313 312 310
3 302 312 325
3 325 312 313
3 313 311 315
3 313 315 326
3 314 315 311
3 314 318 315
3 315 318 329
3 308 316 293
3 308 293 317
3 317 314 308
3 317 345 314
3 345 318 314
3 302 325 319
3 320 304 319
3 319 321 320
3 319 327 321
3 322 306 320
3 323 322 320
3 323 320 321
3 321 324 323
3 321 330 324
3 325 313 326
3 325 327 319
3 325 326 327
3 328 327 326
3 326 315 329
3 326 329 328
3 327 330 321
3 328 330 327
3 329 318 347
3 333 328 329
3 329 347 333
3 332 330 328
3 330 331 324
3 332 331 330
3 333 332 328
3 334 294 305
3 334 305 307
3 307 336 334
3 294 292 305
3 307 335 336
3 335 337 336
3 338 337 335
3 366 294 334
3 367 334 336
3 367 366 334
3 336 368 367
3 336 337 368
3 337 369 368
3 374 369 337
3 299 317 293
3 299 348 317
3 348 345 317
3 373 348 299
3 338 335 322
3 339 322 323
3 339 338 322
3 340 339 323
3 340 323 324
3 324 331 341
3 324 341 340
3 374 337 338
3 375 338 339
3 375 374 338
3 376 339 340
3 376 375 339
3 377 376 340
3 377 340 341
3 341 342 378
3 341 378 377
3 352 333 347
3 343 331 332
3 331 342 341
3 343 342 331
3 344 332 333
3 352 344 333
3 344 343 332
3 384 342 343
3 342 383 378
3 384 383 342
3 385 344 352
3 386 343 344
3 386 384 343
3 385 386 344
3 345 346 318
3 318 346 347
3 348 349 345
3 349 346 345
3 349 350 346
3 346 350 351
3 425 349 348
3 373 425 348
3 425 426 349
3 426 350 349
3 426 427 350
3 350 427 431
3 347 346 351
3 347 351 352
3 351 350 431
3 432 352 351
3 351 431 432
3 432 385 352
3 355 353 366
3 356 354 353
3 356 353 355
3 360 354 356
3 363 356 355
3 364 356 363
3 360 357 354
3 358 357 360
3 358 360 361
3 358 361 359
3 362 373 359
3 362 359 361
3 364 360 356
3 360 364 361
3 361 364 365
3 361 365 362
3 399 364 363
3 364 399 365
3 370 366 367
3 368 371 367
3 355 366 370
3 370 367 371
3 368 369 372
3 372 369 374
3 368 372 371
3 371 391 370
3 390 355 370
3 390 370 391
3 363 355 390
3 372 392 371
3 392 372 379
3 371 392 391
3 428 373 362
3 400 362 365
3 400 428 362
3 435 428 400
3 379 374 375
3 372 374 379
3 379 375 380
3 380 375 376
3 381 376 377
3 380 376 381
3 378 382 377
3 381 377 382
3 378 387 382
3 410 379 380
3 392 379 410
3 410 380 411
3 411 380 381
3 382 412 381
3 411 381 412
3 382 416 412
3 378 383 387
3 387 383 384
3 387 384 388
3 388 384 386
3 389 386 385
3 389 385 434
3 388 386 389
3 419 434 437
3 387 416 382
3 416 387 388
3 416 388 417
3 417 388 389
3 417 389 419
3 419 389 434
3 391 395 390
3 394 363 390
3 399 363 394
3 394 390 395
3 392 393 391
3 393 392 410
3 391 393 395
3 395 397 394
3 403 394 397
3 393 396 395
3 396 393 413
3 395 396 397
3 397 398 404
3 396 398 397
3 415 398 396
3 365 399 402
3 365 402 400
3 408 400 402
3 408 435 400
3 401 435 408
3 403 399 394
3 399 403 402
3 402 403 405
3 397 404 403
3 403 404 405
3 402 405 408
3 405 404 407
3 398 406 404
3 404 406 407
3 422 406 398
3 407 406 422
3 409 408 405
3 409 401 408
3 401 409 424
3 405 407 409
3 409 407 423
3 393 410 413
3 413 410 411
3 413 411 414
3 412 414 411
3 412 418 414
3 396 413 415
3 414 415 413
3 414 420 415
3 415 422 398
3 437 401 424
3 421 419 424
3 437 424 419
3 416 418 412
3 418 416 417
3 418 417 421
3 421 417 419
3 420 421 423
3 423 407 422
3 420 422 415
3 423 422 420
3 424 409 423
3 424 423 421
3 418 420 414
3 420 418 421
3 428 425 373
3 429 426 425
3 429 425 428
3 430 427 426
3 431 427 430
3 430 426 429
3 435 429 428
3 436 430 429
3 430 436 433
3 436 429 435
3 431 433 432
3 431 430 433
3 434 432 433
3 434 385 432
3 433 437 434
3 433 436 437
3 401 436 435
3 436 401 437
3 176 150 146
3 147 150 176
3 146 150 149
3 146 149 148
3 207 221 148
3 207 148 149
3 149 151 208
3 149 208 207
3 152 150 147
3 150 151 149
3 152 151 150
3 153 152 147
3 212 151 152
3 151 211 208
3 212 211 151
3 213 152 153
3 213 212 152
3 236 213 153
3 157 160 158
3 158 160 163
3 155 154 157
3 155 168 154
3 156 155 158
3 156 158 162
3 156 170 155
3 157 158 155
3 159 161 157
3 161 160 157
3 161 189 160
3 160 189 165
3 154 146 159
3 159 157 154
3 154 176 146
3 179 156 162
3 162 158 163
3 162 163 164
3 164 181 162
3 163 160 165
3 163 165 166
3 166 164 163
3 166 167 164
3 167 184 164
3 170 168 155
3 170 172 168
3 168 176 154
3 169 176 168
3 169 168 172
3 156 171 170
3 179 171 156
3 170 171 173
3 173 171 179
3 170 173 172
3 172 175 169
3 173 174 172
3 173 180 174
3 172 174 175
3 174 178 175
3 183 178 174
3 147 176 169
3 177 147 169
3 177 169 175
3 175 199 177
3 175 178 199
3 179 162 181
3 179 181 180
3 173 179 180
3 180 181 182
3 164 184 181
3 181 184 182
3 183 174 180
3 180 182 183
3 182 184 186
3 167 185 184
3 184 185 186
3 187 183 182
3 201 178 183
3 187 201 183
3 182 186 187
3 148 188 159
3 188 161 159
3 188 190 161
3 190 189 161
3 190 191 189
3 189 191 192
3 148 159 146
3 220 190 188
3 221 188 148
3 221 220 188
3 220 222 190
3 222 191 190
3 222 223 191
3 191 223 227
3 165 189 192
3 193 166 165
3 165 192 193
3 193 194 166
3 194 167 166
3 195 185 167
3 194 195 167
3 192 191 227
3 228 193 192
3 192 227 228
3 229 194 193
3 228 229 193
3 229 230 194
3 230 195 194
3 231 196 195
3 230 231 195
3 153 147 177
3 202 153 177
3 202 177 199
3 236 153 202
3 186 185 197
3 195 196 185
3 185 196 197
3 206 201 187
3 198 187 186
3 198 206 187
3 186 197 198
3 197 196 238
3 231 237 196
3 196 237 238
3 239 198 197
3 240 206 198
3 197 238 239
3 239 240 198
3 178 200 199
3 201 200 178
3 199 203 202
3 199 200 203
3 200 204 203
3 205 204 200
3 279 202 203
3 279 236 202
3 203 280 279
3 203 204 280
3 204 281 280
3 285 281 204
3 205 200 201
3 206 205 201
3 285 204 205
3 286 205 206
3 286 285 205
3 240 286 206
3 209 221 207
3 208 210 207
3 209 207 210
3 208 214 210
3 210 217 209
3 210 218 217
3 208 211 214
3 214 211 212
3 214 212 215
3 215 212 213
3 216 213 236
3 215 213 216
3 214 218 210
3 218 214 215
3 218 215 219
3 219 215 216
3 218 259 217
3 259 218 219
3 224 220 221
3 225 222 220
3 225 220 224
3 224 221 209
3 226 223 222
3 227 223 226
3 226 222 225
3 245 225 224
3 244 224 209
3 245 224 244
3 246 226 225
3 226 246 232
3 246 225 245
3 244 209 217
3 227 232 228
3 227 226 232
3 233 228 232
3 233 229 228
3 234 230 229
3 234 229 233
3 235 231 230
3 235 230 234
3 241 231 235
3 232 253 233
3 232 246 253
3 254 233 253
3 254 234 233
3 255 235 234
3 255 234 254
3 270 235 255
3 216 236 282
3 219 216 260
3 260 216 282
3 260 282 289
3 241 237 231
3 238 237 241
3 238 241 242
3 238 242 239
3 243 240 239
3 243 239 242
3 288 240 243
3 270 241 235
3 241 270 242
3 242 270 271
3 291 288 273
3 242 271 243
3 273 243 271
3 273 288 243
3 249 245 244
3 247 246 245
3 246 247 253
3 247 245 249
3 217 248 244
3 249 244 248
3 217 259 248
3 250 247 249
3 247 250 256
3 248 251 249
3 248 262 251
3 250 249 251
3 251 252 250
3 250 252 258
3 251 264 252
3 253 247 256
3 253 256 254
3 257 254 256
3 257 255 254
3 272 255 257
3 256 250 258
3 256 258 257
3 274 257 258
3 258 252 276
3 259 219 263
3 263 219 260
3 263 260 269
3 289 269 260
3 289 261 269
3 259 262 248
3 262 259 263
3 262 263 266
3 262 264 251
3 266 264 262
3 264 265 252
3 252 265 276
3 267 265 264
3 276 265 267
3 266 267 264
3 269 266 263
3 269 268 266
3 261 268 269
3 268 261 278
3 268 267 266
3 277 267 268
3 272 270 255
3 270 272 271
3 271 272 275
3 278 273 275
3 261 291 278
3 278 291 273
3 271 275 273
3 275 274 277
3 258 276 274
3 274 276 277
3 277 276 267
3 274 272 257
3 272 274 275
3 268 278 277
3 275 277 278
3 282 236 279
3 280 283 279
3 282 279 283
3 280 281 284
3 284 281 285
3 280 284 283
3 283 289 282
3 284 290 283
3 290 284 287
3 283 290 289
3 287 285 286
3 284 285 287
3 287 286 288
3 288 286 240
3 291 287 288
3 290 287 291
3 290 261 289
3 261 290 291

