ISO-10303-21;
HEADER;
FILE_DESCRIPTION(('ViewDefinition []'),'2;1');
FILE_NAME('IFC Psets.ifc','',('A. Architect'),('Semio'),'semio BIM','semio BIM','');
FILE_SCHEMA(('IFC4'));
ENDSEC;
DATA;
#1=IFCCARTESIANPOINT((0.,0.,0.));
#2=IFCAXIS2PLACEMENT3D(#1,$,$);
#3=IFCDIRECTION((-0.198669331,0.980066578));
#4=IFCGEOMETRICREPRESENTATIONCONTEXT($,'Model',3,0.000001,#2,#3);
#5=IFCGEOMETRICREPRESENTATIONSUBCONTEXT('Body','Model',*,*,*,*,#4,$,.MODEL_VIEW.,$);
#6=IFCGEOMETRICREPRESENTATIONSUBCONTEXT('Axis','Model',*,*,*,*,#4,$,.GRAPH_VIEW.,$);
#7=IFCGEOMETRICREPRESENTATIONSUBCONTEXT('FootPrint','Model',*,*,*,*,#4,$,.PLAN_VIEW.,$);
#8=IFCSIUNIT(*,.LENGTHUNIT.,$,.METRE.);
#9=IFCSIUNIT(*,.AREAUNIT.,$,.SQUARE_METRE.);
#10=IFCSIUNIT(*,.VOLUMEUNIT.,$,.CUBIC_METRE.);
#11=IFCSIUNIT(*,.PLANEANGLEUNIT.,$,.RADIAN.);
#12=IFCUNITASSIGNMENT((#8,#9,#10,#11));
#13=IFCPROJECTLIBRARY('23ebOOho5Fg6cKC3bXlpBr',$,'IFC Psets Library',$,$,$,$,(#4),#12);
#14=IFCSIMPLEPROPERTYTEMPLATE('1cH32XqoeAY4DBWS8DEdoZ',$,'FireExit','required=false;',.P_SINGLEVALUE.,'IfcBoolean',$,$,$,$,$,$);
#15=IFCSIMPLEPROPERTYTEMPLATE('3MJ4lBxyO2P7bNew1rDgtv',$,'Width','description=Clear width%3B keep %3D and %3B apart;required=true;minimum=0.6;maximum=3;',.P_SINGLEVALUE.,'IfcLengthMeasure',$,$,$,$,$,$);
#16=IFCPROPERTYENUMERATION('Leaves',(IFCINTEGER(1),IFCINTEGER(2)),$);
#17=IFCSIMPLEPROPERTYTEMPLATE('2t8WuPXvAHXutNamWkwgXs',$,'Leaves','required=false;default=1;',.P_ENUMERATEDVALUE.,'IfcInteger',$,#16,$,$,$,$);
#18=IFCPROPERTYSETTEMPLATE('1mnAG3KrjaMFA1KI4M$s7r',$,'Pset_DoorCommon','pt-door',.PSET_TYPEDRIVENOVERRIDE.,'IfcDoor,IfcDoorType',(#14,#15,#17));
#19=IFCSIMPLEPROPERTYTEMPLATE('3XBnvNiY7co0l_WF2Umalg',$,'NetPlannedArea','required=false;minimum=0;',.P_SINGLEVALUE.,'IfcAreaMeasure',$,$,$,$,$,$);
#20=IFCSIMPLEPROPERTYTEMPLATE('2NhKYjtCkFaxJ0OtgXSJYd',$,'Category','required=false;default=Office;',.P_SINGLEVALUE.,'IfcLabel',$,$,$,$,$,$);
#21=IFCPROPERTYSETTEMPLATE('32omahxYd6WoAMRe26Vvq2',$,'Pset_SpaceCommon','pt-space',.PSET_OCCURRENCEDRIVEN.,'IfcSpace',(#19,#20));
#22=IFCPROPERTYENUMERATION('FireRating',(IFCLABEL('EI30'),IFCLABEL('EI60'),IFCLABEL('EI90')),$);
#23=IFCSIMPLEPROPERTYTEMPLATE('3Lx$E8kDmKnriWQJqdjye9',$,'FireRating','required=false;',.P_ENUMERATEDVALUE.,'IfcLabel',$,#22,$,$,$,$);
#24=IFCSIMPLEPROPERTYTEMPLATE('34VPOSA3LpxsqAWT$nCs$V',$,'ThermalTransmittance','unit=W/(m2.K);required=true;default=0.35;minimum=0;maximum=5;',.P_SINGLEVALUE.,'IfcReal',$,$,$,$,$,$);
#25=IFCSIMPLEPROPERTYTEMPLATE('3ISiuM804sy8CmD3bMWFcB',$,'IsExternal','required=false;default=false;',.P_SINGLEVALUE.,'IfcBoolean',$,$,$,$,$,$);
#26=IFCPROPERTYSETTEMPLATE('2sVoPIDvRxJdw65AuCfdgz',$,'Pset_WallCommon','pt-wall',.PSET_TYPEDRIVENOVERRIDE.,'IfcWall,IfcWallType',(#23,#24,#25));
#27=IFCSIMPLEPROPERTYTEMPLATE('12SCemyzmKdnFc$46Pov5x',$,'Reference','description=Catalogue reference;required=false;',.P_SINGLEVALUE.,'IfcLabel',$,$,$,$,$,$);
#28=IFCPROPERTYSETTEMPLATE('26ASy$XrBnpVtvN5KHDpbw',$,'Pset_WindowTypeCommon','pt-window-type',.PSET_TYPEDRIVENONLY.,'IfcWindowType',(#27));
#29=IFCRELDECLARES('3LTVFtuuYOSxkj351DeVNC',$,$,$,#13,(#18,#21,#26,#28));
#30=IFCCLASSIFICATION('https://www.din.de','2018-12',$,'DIN 276','cs-din-276',$,$);
#31=IFCCLASSIFICATIONREFERENCE($,'300','Building construction',#30,$,'000000');
#32=IFCCLASSIFICATIONREFERENCE($,'330','Exterior walls',#31,$,'000001');
#33=IFCCLASSIFICATIONREFERENCE($,'331','Load-bearing exterior walls',#32,$,'000002');
#34=IFCCLASSIFICATIONREFERENCE($,'340','Interior walls',#31,$,'000003');
#35=IFCRELASSOCIATESCLASSIFICATION('0wN2JiD1TYXK5ssIUDKNSl',$,$,$,(#13),#30);
#36=IFCCLASSIFICATION($,$,$,'Omniclass','cs-omniclass',$,$);
#37=IFCCLASSIFICATIONREFERENCE($,'21-02 10 10','Columns',#36,$,'000000');
#38=IFCRELASSOCIATESCLASSIFICATION('3VYW6Rahi3zL39ss1JNK3y',$,$,$,(#13),#36);
#39=IFCCLASSIFICATION($,$,$,'Uniclass 2015','cs-uniclass-2015',$,$);
#40=IFCCLASSIFICATIONREFERENCE($,'EF','Elements and functions',#39,$,'000000');
#41=IFCCLASSIFICATIONREFERENCE($,'EF_25','Wall and barrier elements',#40,$,'000001');
#42=IFCCLASSIFICATIONREFERENCE($,'EF_25_10','Walls',#41,$,'000002');
#43=IFCCLASSIFICATIONREFERENCE($,'EF_30','Roof, floor and paving elements',#40,$,'000003');
#44=IFCRELASSOCIATESCLASSIFICATION('0xhx$vlkSjTRN$olTkHr7J',$,$,$,(#13),#39);
#45=IFCMATERIAL('Brick',$,'Masonry');
#46=IFCPROPERTYSINGLEVALUE('MassDensity',$,IFCMASSDENSITYMEASURE(1800.),$);
#47=IFCMATERIALPROPERTIES('Pset_MaterialCommon',$,(#46),#45);
#48=IFCPROPERTYSINGLEVALUE('ThermalConductivity',$,IFCTHERMALCONDUCTIVITYMEASURE(0.8),$);
#49=IFCPROPERTYSINGLEVALUE('SpecificHeatCapacity',$,IFCSPECIFICHEATCAPACITYMEASURE(900.),$);
#50=IFCMATERIALPROPERTIES('Pset_MaterialThermal',$,(#48,#49),#45);
#51=IFCPROPERTYSINGLEVALUE('Id',$,IFCLABEL('m-brick'),$);
#52=IFCPROPERTYSINGLEVALUE('Category',$,IFCLABEL('Masonry'),$);
#53=IFCPROPERTYSINGLEVALUE('Red',$,IFCREAL(0.7),$);
#54=IFCPROPERTYSINGLEVALUE('Green',$,IFCREAL(0.35),$);
#55=IFCPROPERTYSINGLEVALUE('Blue',$,IFCREAL(0.25),$);
#56=IFCMATERIALPROPERTIES('Semio_Authoring',$,(#51,#52,#53,#54,#55),#45);
#57=IFCMATERIAL('Concrete',$,'Concrete');
#58=IFCPROPERTYSINGLEVALUE('MassDensity',$,IFCMASSDENSITYMEASURE(2400.),$);
#59=IFCMATERIALPROPERTIES('Pset_MaterialCommon',$,(#58),#57);
#60=IFCPROPERTYSINGLEVALUE('ThermalConductivity',$,IFCTHERMALCONDUCTIVITYMEASURE(1.6),$);
#61=IFCPROPERTYSINGLEVALUE('SpecificHeatCapacity',$,IFCSPECIFICHEATCAPACITYMEASURE(880.),$);
#62=IFCMATERIALPROPERTIES('Pset_MaterialThermal',$,(#60,#61),#57);
#63=IFCPROPERTYSINGLEVALUE('Id',$,IFCLABEL('m-conc'),$);
#64=IFCPROPERTYSINGLEVALUE('Category',$,IFCLABEL('Concrete'),$);
#65=IFCPROPERTYSINGLEVALUE('Red',$,IFCREAL(0.6),$);
#66=IFCPROPERTYSINGLEVALUE('Green',$,IFCREAL(0.6),$);
#67=IFCPROPERTYSINGLEVALUE('Blue',$,IFCREAL(0.6),$);
#68=IFCMATERIALPROPERTIES('Semio_Authoring',$,(#63,#64,#65,#66,#67),#57);
#69=IFCMATERIAL('Steel',$,'Metal');
#70=IFCPROPERTYSINGLEVALUE('MassDensity',$,IFCMASSDENSITYMEASURE(7850.),$);
#71=IFCMATERIALPROPERTIES('Pset_MaterialCommon',$,(#70),#69);
#72=IFCPROPERTYSINGLEVALUE('ThermalConductivity',$,IFCTHERMALCONDUCTIVITYMEASURE(50.),$);
#73=IFCPROPERTYSINGLEVALUE('SpecificHeatCapacity',$,IFCSPECIFICHEATCAPACITYMEASURE(470.),$);
#74=IFCMATERIALPROPERTIES('Pset_MaterialThermal',$,(#72,#73),#69);
#75=IFCPROPERTYSINGLEVALUE('Id',$,IFCLABEL('m-steel'),$);
#76=IFCPROPERTYSINGLEVALUE('Category',$,IFCLABEL('Metal'),$);
#77=IFCPROPERTYSINGLEVALUE('Red',$,IFCREAL(0.5),$);
#78=IFCPROPERTYSINGLEVALUE('Green',$,IFCREAL(0.55),$);
#79=IFCPROPERTYSINGLEVALUE('Blue',$,IFCREAL(0.6),$);
#80=IFCMATERIALPROPERTIES('Semio_Authoring',$,(#75,#76,#77,#78,#79),#69);
#81=IFCMATERIAL('Oak',$,'Wood');
#82=IFCPROPERTYSINGLEVALUE('MassDensity',$,IFCMASSDENSITYMEASURE(700.),$);
#83=IFCMATERIALPROPERTIES('Pset_MaterialCommon',$,(#82),#81);
#84=IFCPROPERTYSINGLEVALUE('ThermalConductivity',$,IFCTHERMALCONDUCTIVITYMEASURE(0.18),$);
#85=IFCPROPERTYSINGLEVALUE('SpecificHeatCapacity',$,IFCSPECIFICHEATCAPACITYMEASURE(1600.),$);
#86=IFCMATERIALPROPERTIES('Pset_MaterialThermal',$,(#84,#85),#81);
#87=IFCPROPERTYSINGLEVALUE('Id',$,IFCLABEL('m-wood'),$);
#88=IFCPROPERTYSINGLEVALUE('Category',$,IFCLABEL('Wood'),$);
#89=IFCPROPERTYSINGLEVALUE('Red',$,IFCREAL(0.55),$);
#90=IFCPROPERTYSINGLEVALUE('Green',$,IFCREAL(0.4),$);
#91=IFCPROPERTYSINGLEVALUE('Blue',$,IFCREAL(0.2),$);
#92=IFCMATERIALPROPERTIES('Semio_Authoring',$,(#87,#88,#89,#90,#91),#81);
#93=IFCMATERIAL('Mineral Wool',$,'Insulation');
#94=IFCPROPERTYSINGLEVALUE('MassDensity',$,IFCMASSDENSITYMEASURE(40.),$);
#95=IFCMATERIALPROPERTIES('Pset_MaterialCommon',$,(#94),#93);
#96=IFCPROPERTYSINGLEVALUE('ThermalConductivity',$,IFCTHERMALCONDUCTIVITYMEASURE(0.035),$);
#97=IFCPROPERTYSINGLEVALUE('SpecificHeatCapacity',$,IFCSPECIFICHEATCAPACITYMEASURE(1030.),$);
#98=IFCMATERIALPROPERTIES('Pset_MaterialThermal',$,(#96,#97),#93);
#99=IFCPROPERTYSINGLEVALUE('Id',$,IFCLABEL('m-wool'),$);
#100=IFCPROPERTYSINGLEVALUE('Category',$,IFCLABEL('Insulation'),$);
#101=IFCPROPERTYSINGLEVALUE('Red',$,IFCREAL(0.9),$);
#102=IFCPROPERTYSINGLEVALUE('Green',$,IFCREAL(0.85),$);
#103=IFCPROPERTYSINGLEVALUE('Blue',$,IFCREAL(0.3),$);
#104=IFCMATERIALPROPERTIES('Semio_Authoring',$,(#99,#100,#101,#102,#103),#93);
#105=IFCPROPERTYSINGLEVALUE('LayerFunctions',$,IFCLABEL('Structure'),$);
#106=IFCPROPERTYSET('19BFGiVlYdwweesk4KsQTP',$,'Semio_Authoring',$,(#105));
#107=IFCWALLTYPE('0VIk4k_$D_QicHxrmTKPsD',$,'Concrete 150',$,$,(#106),$,'wt-150',$,.STANDARD.);
#108=IFCMATERIALLAYER(#57,0.15,$,$,$,'Structure',$);
#109=IFCMATERIALLAYERSET((#108),'Concrete 150',$);
#110=IFCPROPERTYSINGLEVALUE('LayerFunctions',$,IFCLABEL('Structure,Insulation'),$);
#111=IFCPROPERTYSET('3m$yVyG9W8$eq6AOyBgbgH',$,'Semio_Authoring',$,(#110));
#112=IFCPROPERTYSINGLEVALUE('Reference',$,IFCLABEL('WT-300'),$);
#113=IFCPROPERTYSET('3QNwHmygzHuwPFn$FOT0qv',$,'Custom',$,(#112));
#114=IFCPROPERTYSINGLEVALUE('FireRating',$,IFCLABEL('EI90'),$);
#115=IFCPROPERTYSINGLEVALUE('IsExternal',$,IFCBOOLEAN(.T.),$);
#116=IFCPROPERTYSINGLEVALUE('ThermalTransmittance',$,IFCREAL(0.2),$);
#117=IFCPROPERTYSET('1n0OutYRVU3juYqABPle2H',$,'Pset_WallCommon',$,(#114,#115,#116));
#118=IFCWALLTYPE('0OOt0ztQFFVr5XB9psd9QI',$,'Brick 300',$,$,(#111,#113,#117),$,'wt-300',$,.STANDARD.);
#119=IFCMATERIALLAYER(#45,0.2,$,$,$,'Structure',$);
#120=IFCMATERIALLAYER(#93,0.1,$,$,$,'Insulation',$);
#121=IFCMATERIALLAYERSET((#119,#120),'Brick 300',$);
#122=IFCPROPERTYSINGLEVALUE('LayerFunctions',$,IFCLABEL('Finish,Structure'),$);
#123=IFCPROPERTYSET('0Kn0_bIJgFsz5_Pl60WTww',$,'Semio_Authoring',$,(#122));
#124=IFCSLABTYPE('2eS4Peh4Lu_B2Alqquf9fY',$,'Floor 250',$,$,(#123),$,'st-floor',$,.FLOOR.);
#125=IFCMATERIALLAYER(#81,0.05,$,$,$,'Finish',$);
#126=IFCMATERIALLAYER(#57,0.2,$,$,$,'Structure',$);
#127=IFCMATERIALLAYERSET((#125,#126),'Floor 250',$);
#128=IFCPROPERTYSINGLEVALUE('LayerFunctions',$,IFCLABEL('Finish,Insulation'),$);
#129=IFCPROPERTYSET('2nr_APC2g5$lNxNNSfbARq',$,'Semio_Authoring',$,(#128));
#130=IFCROOFTYPE('31oXHNaPPf7KeZ0QF6r$48',$,'Tile roof',$,$,(#129),$,'rt-tile',$,.NOTDEFINED.);
#131=IFCMATERIALLAYER(#81,0.04,$,$,$,'Finish',$);
#132=IFCMATERIALLAYER(#93,0.2,$,$,$,'Insulation',$);
#133=IFCMATERIALLAYERSET((#131,#132),'Tile roof',$);
#134=IFCPROPERTYSINGLEVALUE('ProfileKind',$,IFCLABEL('Rectangle'),$);
#135=IFCPROPERTYSINGLEVALUE('Width',$,IFCREAL(0.3),$);
#136=IFCPROPERTYSINGLEVALUE('Depth',$,IFCREAL(0.3),$);
#137=IFCPROPERTYSET('23zIYssEEPo6gY4Ys5rCNg',$,'Semio_Authoring',$,(#134,#135,#136));
#138=IFCPROPERTYSINGLEVALUE('LoadBearing',$,IFCBOOLEAN(.T.),$);
#139=IFCPROPERTYSET('3ThsKO3guvS_g$8KAqLMnJ',$,'Pset_ColumnCommon',$,(#138));
#140=IFCCOLUMNTYPE('2lpswFnUWxEo9rrKqbRlTZ',$,'Concrete 300x300',$,$,(#137,#139),$,'ct-rect',$,.COLUMN.);
#141=IFCPROPERTYSINGLEVALUE('ProfileKind',$,IFCLABEL('Circle'),$);
#142=IFCPROPERTYSINGLEVALUE('Diameter',$,IFCREAL(0.4),$);
#143=IFCPROPERTYSET('3bRBWeP37iT7NYcZTMhfMy',$,'Semio_Authoring',$,(#141,#142));
#144=IFCCOLUMNTYPE('0a8EJA0NhPoVUVgNvTue$W',$,'Steel 400',$,$,(#143),$,'ct-round',$,.COLUMN.);
#145=IFCPROPERTYSINGLEVALUE('ProfileKind',$,IFCLABEL('IShape'),$);
#146=IFCPROPERTYSINGLEVALUE('Width',$,IFCREAL(0.15),$);
#147=IFCPROPERTYSINGLEVALUE('Depth',$,IFCREAL(0.3),$);
#148=IFCPROPERTYSINGLEVALUE('Web',$,IFCREAL(0.0071),$);
#149=IFCPROPERTYSINGLEVALUE('Flange',$,IFCREAL(0.0107),$);
#150=IFCPROPERTYSET('0nJK1EHrPikK8iK5579$cQ',$,'Semio_Authoring',$,(#145,#146,#147,#148,#149));
#151=IFCBEAMTYPE('0oKP8drYAMH5aU$_rQaqSU',$,'IPE 300',$,$,(#150),$,'bt-i',$,.BEAM.);
#152=IFCPROPERTYSINGLEVALUE('ProfileKind',$,IFCLABEL('Rectangle'),$);
#153=IFCPROPERTYSINGLEVALUE('Width',$,IFCREAL(0.25),$);
#154=IFCPROPERTYSINGLEVALUE('Depth',$,IFCREAL(0.4),$);
#155=IFCPROPERTYSET('09iyiZ3qON64WmEXt0z8cE',$,'Semio_Authoring',$,(#152,#153,#154));
#156=IFCBEAMTYPE('28jtd2OhxRMiZKZSrhRlsV',$,'Concrete 250x400',$,$,(#155),$,'bt-rect',$,.BEAM.);
#157=IFCPROPERTYSINGLEVALUE('Width',$,IFCREAL(1.2),$);
#158=IFCPROPERTYSINGLEVALUE('Height',$,IFCREAL(1.2),$);
#159=IFCPROPERTYSINGLEVALUE('Sill',$,IFCREAL(0.9),$);
#160=IFCPROPERTYSINGLEVALUE('FrameWidth',$,IFCREAL(0.06),$);
#161=IFCPROPERTYSINGLEVALUE('FrameDepth',$,IFCREAL(0.08),$);
#162=IFCPROPERTYSINGLEVALUE('Panes',$,IFCINTEGER(2),$);
#163=IFCPROPERTYSINGLEVALUE('Material',$,IFCLABEL('m-wood'),$);
#164=IFCPROPERTYSINGLEVALUE('MaterialName',$,IFCLABEL('Oak'),$);
#165=IFCPROPERTYSET('2q_TOSplsX2EY7yL0lsdpy',$,'Semio_Authoring',$,(#157,#158,#159,#160,#161,#162,#163,#164));
#166=IFCPROPERTYSINGLEVALUE('Reference',$,IFCLABEL('W-120'),$);
#167=IFCPROPERTYSINGLEVALUE('ThermalTransmittance',$,IFCREAL(1.1),$);
#168=IFCPROPERTYSET('2s3gtNLwMapAdymRp7c9V2',$,'Pset_WindowCommon',$,(#166,#167));
#169=IFCWINDOWTYPE('00hp3xP5OSN5s$0QnFsB_9',$,'Window 120',$,$,(#165,#168),$,'wnd-120',$,.WINDOW.,.DOUBLE_PANEL_VERTICAL.,.F.,$);
#170=IFCPROPERTYSINGLEVALUE('Width',$,IFCREAL(1.8),$);
#171=IFCPROPERTYSINGLEVALUE('Height',$,IFCREAL(2.1),$);
#172=IFCPROPERTYSINGLEVALUE('FrameWidth',$,IFCREAL(0.05),$);
#173=IFCPROPERTYSINGLEVALUE('FrameDepth',$,IFCREAL(0.1),$);
#174=IFCPROPERTYSINGLEVALUE('Leaves',$,IFCLABEL('Double'),$);
#175=IFCPROPERTYSINGLEVALUE('Swing',$,IFCLABEL('Right'),$);
#176=IFCPROPERTYSINGLEVALUE('Material',$,IFCLABEL('m-wood'),$);
#177=IFCPROPERTYSET('3szQYqTQnvJSxam6npwu_N',$,'Semio_Authoring',$,(#170,#171,#172,#173,#174,#175,#176));
#178=IFCPROPERTYSINGLEVALUE('FireExit',$,IFCBOOLEAN(.F.),$);
#179=IFCPROPERTYSINGLEVALUE('Leaves',$,IFCINTEGER(2),$);
#180=IFCPROPERTYSINGLEVALUE('Width',$,IFCLENGTHMEASURE(1.8),$);
#181=IFCPROPERTYSET('3WjCI9UPplaIZgn1EuNVXI',$,'Pset_DoorCommon',$,(#178,#179,#180));
#182=IFCDOORTYPE('1OOWKzxwAU4ELH17Ghkpv8',$,'Double door 180',$,$,(#177,#181),$,'dr-180',$,.DOOR.,.DOUBLE_DOOR_SINGLE_SWING.,.F.,$);
#183=IFCPROPERTYSINGLEVALUE('Width',$,IFCREAL(0.9),$);
#184=IFCPROPERTYSINGLEVALUE('Height',$,IFCREAL(2.1),$);
#185=IFCPROPERTYSINGLEVALUE('FrameWidth',$,IFCREAL(0.05),$);
#186=IFCPROPERTYSINGLEVALUE('FrameDepth',$,IFCREAL(0.1),$);
#187=IFCPROPERTYSINGLEVALUE('Leaves',$,IFCLABEL('Single'),$);
#188=IFCPROPERTYSINGLEVALUE('Swing',$,IFCLABEL('Left'),$);
#189=IFCPROPERTYSINGLEVALUE('Material',$,IFCLABEL('m-wood'),$);
#190=IFCPROPERTYSET('0BrKNnl2PDGjS_0l5zK8Ab',$,'Semio_Authoring',$,(#183,#184,#185,#186,#187,#188,#189));
#191=IFCDOORTYPE('0BOO8uix0ugVK6T950P4do',$,'Door 90',$,$,(#190),$,'dr-90',$,.DOOR.,.SINGLE_SWING_LEFT.,.F.,$);
#192=IFCPROJECT('1w8OAdRUto0JEzixroLdqB',$,'IFC Psets','Classification and property set fixture',$,$,'Existing;New',(#4),#12);
#193=IFCLOCALPLACEMENT($,#2);
#194=IFCCARTESIANPOINT((-5.,-5.));
#195=IFCCARTESIANPOINT((25.,-5.));
#196=IFCCARTESIANPOINT((25.,15.));
#197=IFCCARTESIANPOINT((-5.,15.));
#198=IFCPOLYLINE((#194,#195,#196,#197,#194));
#199=IFCSHAPEREPRESENTATION(#7,'FootPrint','Curve2D',(#198));
#200=IFCPRODUCTDEFINITIONSHAPE($,$,(#199));
#201=IFCSITE('1QBh6LzYuAptPPqA16Z5bc',$,'Plot',$,'site-1',#193,#200,$,.ELEMENT.,(47,22,36,840000),(8,32,30,120000),408.,$,$);
#202=IFCCARTESIANPOINT((2.,3.,0.5));
#203=IFCDIRECTION((0.,0.,1.));
#204=IFCDIRECTION((0.995004165,0.099833417,0.));
#205=IFCAXIS2PLACEMENT3D(#202,#203,#204);
#206=IFCLOCALPLACEMENT(#193,#205);
#207=IFCBUILDING('0HBDLIrKAxSZKIwlXVGe62',$,'House',$,'bldg-1',#206,$,$,.ELEMENT.,408.5,$,$);
#208=IFCCARTESIANPOINT((0.,0.,-2.6));
#209=IFCAXIS2PLACEMENT3D(#208,$,$);
#210=IFCLOCALPLACEMENT(#206,#209);
#211=IFCBUILDINGSTOREY('0qMOcPZlOsbmAlyKbsGOD6',$,'Basement',$,'st-base',#210,$,$,.ELEMENT.,-2.6);
#212=IFCCARTESIANPOINT((0.,0.,3.));
#213=IFCAXIS2PLACEMENT3D(#212,$,$);
#214=IFCLOCALPLACEMENT(#206,#213);
#215=IFCBUILDINGSTOREY('1gAO00$311WltX3gSB8RKH',$,'First',$,'st-first',#214,$,$,.ELEMENT.,3.);
#216=IFCLOCALPLACEMENT(#206,#2);
#217=IFCBUILDINGSTOREY('3wsYM$bPNbBbDbGw_Wf9m1',$,'Ground',$,'st-ground',#216,$,$,.ELEMENT.,0.);
#218=IFCCARTESIANPOINT((0.,0.,5.8));
#219=IFCAXIS2PLACEMENT3D(#218,$,$);
#220=IFCLOCALPLACEMENT(#206,#219);
#221=IFCBUILDINGSTOREY('0X0EI2hZp2QO0d1aPCecGX',$,'Roof',$,'st-roof',#220,$,$,.ELEMENT.,5.8);
#222=IFCCARTESIANPOINT((10.054310345,0.948275862));
#223=IFCCARTESIANPOINT((10.054310345,5.051724138));
#224=IFCCARTESIANPOINT((7.9,3.));
#225=IFCAXIS2PLACEMENT2D(#224,$);
#226=IFCCIRCLE(#225,2.975);
#227=IFCTRIMMEDCURVE(#226,(#222),(#223),.T.,.CARTESIAN.);
#228=IFCCOMPOSITECURVESEGMENT(.CONTINUOUS.,.T.,#227);
#229=IFCCARTESIANPOINT((9.945689655,4.948275862));
#230=IFCPOLYLINE((#223,#229));
#231=IFCCOMPOSITECURVESEGMENT(.CONTINUOUS.,.T.,#230);
#232=IFCCARTESIANPOINT((9.945689655,1.051724138));
#233=IFCCIRCLE(#225,2.825);
#234=IFCTRIMMEDCURVE(#233,(#229),(#232),.F.,.CARTESIAN.);
#235=IFCCOMPOSITECURVESEGMENT(.CONTINUOUS.,.T.,#234);
#236=IFCPOLYLINE((#232,#222));
#237=IFCCOMPOSITECURVESEGMENT(.CONTINUOUS.,.T.,#236);
#238=IFCCOMPOSITECURVE((#228,#231,#235,#237),.F.);
#239=IFCARBITRARYCLOSEDPROFILEDEF(.AREA.,$,#238);
#240=IFCLOCALPLACEMENT(#216,#2);
#241=IFCEXTRUDEDAREASOLID(#239,#2,#203,3.);
#242=IFCCARTESIANPOINT((10.,1.));
#243=IFCCARTESIANPOINT((10.,5.));
#244=IFCCIRCLE(#225,2.9);
#245=IFCTRIMMEDCURVE(#244,(#242),(#243),.T.,.CARTESIAN.);
#246=IFCSHAPEREPRESENTATION(#5,'Body','SweptSolid',(#241));
#247=IFCSHAPEREPRESENTATION(#6,'Axis','Curve2D',(#245));
#248=IFCPRODUCTDEFINITIONSHAPE($,$,(#247,#246));
#249=IFCWALL('09k_QkctTxZzvq2nrNO5jb',$,'Curved',$,$,#240,#248,'w-arc',.STANDARD.);
#250=IFCMATERIALLAYERSETUSAGE(#109,.AXIS2.,.NEGATIVE.,0.075,$);
#251=IFCCARTESIANPOINT((8.,-0.15));
#252=IFCCARTESIANPOINT((8.,6.15));
#253=IFCCARTESIANPOINT((7.7,5.85));
#254=IFCCARTESIANPOINT((7.7,0.15));
#255=IFCPOLYLINE((#251,#252,#253,#254,#251));
#256=IFCARBITRARYCLOSEDPROFILEDEF(.AREA.,$,#255);
#257=IFCLOCALPLACEMENT(#216,#2);
#258=IFCEXTRUDEDAREASOLID(#256,#2,#203,3.);
#259=IFCCARTESIANPOINT((8.,0.));
#260=IFCCARTESIANPOINT((8.,6.));
#261=IFCPOLYLINE((#259,#260));
#262=IFCSHAPEREPRESENTATION(#5,'Body','SweptSolid',(#258));
#263=IFCSHAPEREPRESENTATION(#6,'Axis','Curve2D',(#261));
#264=IFCPRODUCTDEFINITIONSHAPE($,$,(#263,#262));
#265=IFCWALL('2gQEIz0i04zpCOjJsgqk0u',$,'East',$,$,#257,#264,'w-east',.STANDARD.);
#266=IFCMATERIALLAYERSETUSAGE(#121,.AXIS2.,.NEGATIVE.,0.3,$);
#267=IFCDIRECTION((1.,0.,0.));
#268=IFCAXIS2PLACEMENT3D(#1,#203,#267);
#269=IFCLOCALPLACEMENT(#214,#268);
#270=IFCCARTESIANPOINT((4.,0.));
#271=IFCAXIS2PLACEMENT2D(#270,$);
#272=IFCRECTANGLEPROFILEDEF(.AREA.,$,#271,8.,0.3);
#273=IFCEXTRUDEDAREASOLID(#272,#2,#203,2.8);
#274=IFCCARTESIANPOINT((0.,0.));
#275=IFCPOLYLINE((#274,#259));
#276=IFCSHAPEREPRESENTATION(#5,'Body','SweptSolid',(#273));
#277=IFCSHAPEREPRESENTATION(#6,'Axis','Curve2D',(#275));
#278=IFCPRODUCTDEFINITIONSHAPE($,$,(#277,#276));
#279=IFCWALLSTANDARDCASE('0MzownW2Ndl6VpO$2Jdj$S',$,'First South',$,$,#269,#278,'w-first-south',.STANDARD.);
#280=IFCMATERIALLAYERSETUSAGE(#121,.AXIS2.,.NEGATIVE.,0.15,$);
#281=IFCCARTESIANPOINT((2.,2.,0.1));
#282=IFCAXIS2PLACEMENT3D(#281,#203,#267);
#283=IFCLOCALPLACEMENT(#216,#282);
#284=IFCCARTESIANPOINT((1.5,0.));
#285=IFCAXIS2PLACEMENT2D(#284,$);
#286=IFCRECTANGLEPROFILEDEF(.AREA.,$,#285,3.,0.15);
#287=IFCEXTRUDEDAREASOLID(#286,#2,#203,2.4);
#288=IFCCARTESIANPOINT((3.,0.));
#289=IFCPOLYLINE((#274,#288));
#290=IFCSHAPEREPRESENTATION(#5,'Body','SweptSolid',(#287));
#291=IFCSHAPEREPRESENTATION(#6,'Axis','Curve2D',(#289));
#292=IFCPRODUCTDEFINITIONSHAPE($,$,(#291,#290));
#293=IFCWALLSTANDARDCASE('2n4yBqy0dN62LEZzD3Ap1b',$,'Free',$,$,#283,#292,'w-free',.STANDARD.);
#294=IFCMATERIALLAYERSETUSAGE(#109,.AXIS2.,.NEGATIVE.,0.075,$);
#295=IFCCARTESIANPOINT((-0.3,6.15));
#296=IFCCARTESIANPOINT((0.,5.85));
#297=IFCPOLYLINE((#252,#295,#296,#253,#252));
#298=IFCARBITRARYCLOSEDPROFILEDEF(.AREA.,$,#297);
#299=IFCLOCALPLACEMENT(#216,#2);
#300=IFCEXTRUDEDAREASOLID(#298,#2,#203,3.);
#301=IFCCARTESIANPOINT((0.,6.));
#302=IFCPOLYLINE((#260,#301));
#303=IFCSHAPEREPRESENTATION(#5,'Body','SweptSolid',(#300));
#304=IFCSHAPEREPRESENTATION(#6,'Axis','Curve2D',(#302));
#305=IFCPRODUCTDEFINITIONSHAPE($,$,(#304,#303));
#306=IFCWALL('0gX1f2WI35QWDilL3yLZC8',$,'North',$,$,#299,#305,'w-north',.STANDARD.);
#307=IFCMATERIALLAYERSETUSAGE(#121,.AXIS2.,.NEGATIVE.,0.15,$);
#308=IFCCARTESIANPOINT((-0.3,-0.15));
#309=IFCCARTESIANPOINT((0.,0.15));
#310=IFCPOLYLINE((#308,#251,#254,#309,#308));
#311=IFCARBITRARYCLOSEDPROFILEDEF(.AREA.,$,#310);
#312=IFCLOCALPLACEMENT(#216,#2);
#313=IFCEXTRUDEDAREASOLID(#311,#2,#203,3.);
#314=IFCPOLYLINE((#274,#259));
#315=IFCSHAPEREPRESENTATION(#5,'Body','SweptSolid',(#313));
#316=IFCSHAPEREPRESENTATION(#6,'Axis','Curve2D',(#314));
#317=IFCPRODUCTDEFINITIONSHAPE($,$,(#316,#315));
#318=IFCWALL('2_vLPAMaC$hsmSKif007b4',$,'South',$,$,#312,#317,'w-south',.STANDARD.);
#319=IFCMATERIALLAYERSETUSAGE(#121,.AXIS2.,.NEGATIVE.,0.15,$);
#320=IFCPOLYLINE((#295,#308,#309,#296,#295));
#321=IFCARBITRARYCLOSEDPROFILEDEF(.AREA.,$,#320);
#322=IFCLOCALPLACEMENT(#216,#2);
#323=IFCEXTRUDEDAREASOLID(#321,#2,#203,3.);
#324=IFCPOLYLINE((#301,#274));
#325=IFCSHAPEREPRESENTATION(#5,'Body','SweptSolid',(#323));
#326=IFCSHAPEREPRESENTATION(#6,'Axis','Curve2D',(#324));
#327=IFCPRODUCTDEFINITIONSHAPE($,$,(#326,#325));
#328=IFCWALL('0SkIQur02mP0OPlG2KFN_8',$,'West',$,$,#322,#327,'w-west',.STANDARD.);
#329=IFCMATERIALLAYERSETUSAGE(#121,.AXIS2.,.NEGATIVE.,0.,$);
#330=IFCCARTESIANPOINT((6.,0.,0.));
#331=IFCAXIS2PLACEMENT3D(#330,#203,#267);
#332=IFCLOCALPLACEMENT(#312,#331);
#333=IFCAXIS2PLACEMENT2D(#274,$);
#334=IFCRECTANGLEPROFILEDEF(.AREA.,$,#333,0.9,0.3);
#335=IFCEXTRUDEDAREASOLID(#334,#2,#203,2.1);
#336=IFCSHAPEREPRESENTATION(#5,'Body','SweptSolid',(#335));
#337=IFCPRODUCTDEFINITIONSHAPE($,$,(#336));
#338=IFCOPENINGELEMENT('3BWfLGegRjq_btazxXwwLy',$,'Door 1',$,$,#332,#337,'o-door-1',.OPENING.);
#339=IFCRELVOIDSELEMENT('201yQQyooBQnCjDGrp8vFi',$,$,$,#318,#338);
#340=IFCDIRECTION((0.,-1.,0.));
#341=IFCAXIS2PLACEMENT3D(#1,#340,#267);
#342=IFCLOCALPLACEMENT(#332,#341);
#343=IFCCARTESIANPOINT((-0.45,0.));
#344=IFCCARTESIANPOINT((0.45,0.));
#345=IFCCARTESIANPOINT((0.45,2.1));
#346=IFCCARTESIANPOINT((-0.45,2.1));
#347=IFCPOLYLINE((#343,#344,#345,#346,#343));
#348=IFCCARTESIANPOINT((-0.4,0.05));
#349=IFCCARTESIANPOINT((0.4,0.05));
#350=IFCCARTESIANPOINT((0.4,2.05));
#351=IFCCARTESIANPOINT((-0.4,2.05));
#352=IFCPOLYLINE((#348,#349,#350,#351,#348));
#353=IFCARBITRARYPROFILEDEFWITHVOIDS(.AREA.,$,#347,(#352));
#354=IFCCARTESIANPOINT((0.,0.,-0.05));
#355=IFCAXIS2PLACEMENT3D(#354,$,$);
#356=IFCEXTRUDEDAREASOLID(#353,#355,#203,0.1);
#357=IFCCARTESIANPOINT((0.,1.05));
#358=IFCAXIS2PLACEMENT2D(#357,$);
#359=IFCRECTANGLEPROFILEDEF(.AREA.,$,#358,0.8,2.);
#360=IFCCARTESIANPOINT((0.,0.,-0.02));
#361=IFCAXIS2PLACEMENT3D(#360,$,$);
#362=IFCEXTRUDEDAREASOLID(#359,#361,#203,0.04);
#363=IFCSHAPEREPRESENTATION(#5,'Body','SweptSolid',(#356,#362));
#364=IFCPRODUCTDEFINITIONSHAPE($,$,(#363));
#365=IFCDOOR('2fCFg0CDufLXBMAX$Tdc7I',$,'Door 1',$,$,#342,#364,'o-door-1',2.1,0.9,.DOOR.,.SINGLE_SWING_LEFT.,$);
#366=IFCRELFILLSELEMENT('148qvDSg7Us9AZyU9eM0wR',$,$,$,#338,#365);
#367=IFCCARTESIANPOINT((4.,0.,0.));
#368=IFCAXIS2PLACEMENT3D(#367,$,$);
#369=IFCLOCALPLACEMENT(#269,#368);
#370=IFCRECTANGLEPROFILEDEF(.AREA.,$,#333,1.8,0.3);
#371=IFCEXTRUDEDAREASOLID(#370,#2,#203,2.1);
#372=IFCSHAPEREPRESENTATION(#5,'Body','SweptSolid',(#371));
#373=IFCPRODUCTDEFINITIONSHAPE($,$,(#372));
#374=IFCOPENINGELEMENT('1gRR7GuSTXNA2TUjbcIVZ9',$,'Double door',$,$,#369,#373,'o-door-2',.OPENING.);
#375=IFCRELVOIDSELEMENT('0r4bMz6NhtTB2KnXZdOQEE',$,$,$,#279,#374);
#376=IFCLOCALPLACEMENT(#369,#341);
#377=IFCCARTESIANPOINT((-0.9,0.));
#378=IFCCARTESIANPOINT((0.9,0.));
#379=IFCCARTESIANPOINT((0.9,2.1));
#380=IFCCARTESIANPOINT((-0.9,2.1));
#381=IFCPOLYLINE((#377,#378,#379,#380,#377));
#382=IFCCARTESIANPOINT((-0.85,0.05));
#383=IFCCARTESIANPOINT((0.85,0.05));
#384=IFCCARTESIANPOINT((0.85,2.05));
#385=IFCCARTESIANPOINT((-0.85,2.05));
#386=IFCPOLYLINE((#382,#383,#384,#385,#382));
#387=IFCARBITRARYPROFILEDEFWITHVOIDS(.AREA.,$,#381,(#386));
#388=IFCEXTRUDEDAREASOLID(#387,#355,#203,0.1);
#389=IFCRECTANGLEPROFILEDEF(.AREA.,$,#358,1.7,2.);
#390=IFCEXTRUDEDAREASOLID(#389,#361,#203,0.04);
#391=IFCSHAPEREPRESENTATION(#5,'Body','SweptSolid',(#388,#390));
#392=IFCPRODUCTDEFINITIONSHAPE($,$,(#391));
#393=IFCDOOR('223loIyAlgDj1_Tv4csUmJ',$,'Double door',$,$,#376,#392,'o-door-2',2.1,1.8,.DOOR.,.DOUBLE_DOOR_SINGLE_SWING.,$);
#394=IFCRELFILLSELEMENT('27YiIFT_YcdPT5a8D0h2fg',$,$,$,#374,#393);
#395=IFCCARTESIANPOINT((7.85,3.,1.));
#396=IFCDIRECTION((0.,1.,0.));
#397=IFCAXIS2PLACEMENT3D(#395,#203,#396);
#398=IFCLOCALPLACEMENT(#257,#397);
#399=IFCRECTANGLEPROFILEDEF(.AREA.,$,#333,0.6,0.3);
#400=IFCEXTRUDEDAREASOLID(#399,#2,#203,0.8);
#401=IFCSHAPEREPRESENTATION(#5,'Body','SweptSolid',(#400));
#402=IFCPRODUCTDEFINITIONSHAPE($,$,(#401));
#403=IFCOPENINGELEMENT('0rWSt43$D08pzsIc8V48m6',$,'Duct',$,$,#398,#402,'o-void-1',.OPENING.);
#404=IFCRELVOIDSELEMENT('06mRGw1d4i0Oy$gmFCdJ87',$,$,$,#265,#403);
#405=IFCCARTESIANPOINT((2.,0.,0.9));
#406=IFCAXIS2PLACEMENT3D(#405,#203,#267);
#407=IFCLOCALPLACEMENT(#312,#406);
#408=IFCRECTANGLEPROFILEDEF(.AREA.,$,#333,1.2,0.3);
#409=IFCEXTRUDEDAREASOLID(#408,#2,#203,1.2);
#410=IFCSHAPEREPRESENTATION(#5,'Body','SweptSolid',(#409));
#411=IFCPRODUCTDEFINITIONSHAPE($,$,(#410));
#412=IFCOPENINGELEMENT('27DdlupN0yEFmkAspmX06m',$,'Window 1',$,$,#407,#411,'o-win-1',.OPENING.);
#413=IFCRELVOIDSELEMENT('1W2iP6T0EDbNkzUDGWnBQH',$,$,$,#318,#412);
#414=IFCLOCALPLACEMENT(#407,#341);
#415=IFCCARTESIANPOINT((-0.6,0.));
#416=IFCCARTESIANPOINT((0.6,0.));
#417=IFCCARTESIANPOINT((0.6,1.2));
#418=IFCCARTESIANPOINT((-0.6,1.2));
#419=IFCPOLYLINE((#415,#416,#417,#418,#415));
#420=IFCCARTESIANPOINT((-0.54,0.06));
#421=IFCCARTESIANPOINT((0.54,0.06));
#422=IFCCARTESIANPOINT((0.54,1.14));
#423=IFCCARTESIANPOINT((-0.54,1.14));
#424=IFCPOLYLINE((#420,#421,#422,#423,#420));
#425=IFCARBITRARYPROFILEDEFWITHVOIDS(.AREA.,$,#419,(#424));
#426=IFCCARTESIANPOINT((0.,0.,-0.04));
#427=IFCAXIS2PLACEMENT3D(#426,$,$);
#428=IFCEXTRUDEDAREASOLID(#425,#427,#203,0.08);
#429=IFCCARTESIANPOINT((0.,0.6));
#430=IFCAXIS2PLACEMENT2D(#429,$);
#431=IFCRECTANGLEPROFILEDEF(.AREA.,$,#430,1.08,1.08);
#432=IFCCARTESIANPOINT((0.,0.,-0.012));
#433=IFCAXIS2PLACEMENT3D(#432,$,$);
#434=IFCEXTRUDEDAREASOLID(#431,#433,#203,0.024);
#435=IFCSHAPEREPRESENTATION(#5,'Body','SweptSolid',(#428,#434));
#436=IFCPRODUCTDEFINITIONSHAPE($,$,(#435));
#437=IFCWINDOW('0Hg8L_ovkYJla5LU6cKnqj',$,'Window 1',$,$,#414,#436,'o-win-1',1.2,1.2,.WINDOW.,.DOUBLE_PANEL_VERTICAL.,$);
#438=IFCRELFILLSELEMENT('3XmyYJdKnA8DK_LsbcmzU8',$,$,$,#412,#437);
#439=IFCCARTESIANPOINT((4.,6.,1.));
#440=IFCDIRECTION((-1.,0.,0.));
#441=IFCAXIS2PLACEMENT3D(#439,#203,#440);
#442=IFCLOCALPLACEMENT(#299,#441);
#443=IFCRECTANGLEPROFILEDEF(.AREA.,$,#333,1.,0.3);
#444=IFCEXTRUDEDAREASOLID(#443,#2,#203,1.2);
#445=IFCSHAPEREPRESENTATION(#5,'Body','SweptSolid',(#444));
#446=IFCPRODUCTDEFINITIONSHAPE($,$,(#445));
#447=IFCOPENINGELEMENT('2Vt405vGhV2gNcKGYbs8DJ',$,'Window 2',$,$,#442,#446,'o-win-2',.OPENING.);
#448=IFCRELVOIDSELEMENT('3aUb8sFa1a5m3vgvIs8Yod',$,$,$,#306,#447);
#449=IFCAXIS2PLACEMENT3D(#1,#396,#440);
#450=IFCLOCALPLACEMENT(#442,#449);
#451=IFCCARTESIANPOINT((-0.5,0.));
#452=IFCCARTESIANPOINT((0.5,0.));
#453=IFCCARTESIANPOINT((0.5,1.2));
#454=IFCCARTESIANPOINT((-0.5,1.2));
#455=IFCPOLYLINE((#451,#452,#453,#454,#451));
#456=IFCCARTESIANPOINT((-0.44,0.06));
#457=IFCCARTESIANPOINT((0.44,0.06));
#458=IFCCARTESIANPOINT((0.44,1.14));
#459=IFCCARTESIANPOINT((-0.44,1.14));
#460=IFCPOLYLINE((#456,#457,#458,#459,#456));
#461=IFCARBITRARYPROFILEDEFWITHVOIDS(.AREA.,$,#455,(#460));
#462=IFCEXTRUDEDAREASOLID(#461,#427,#203,0.08);
#463=IFCRECTANGLEPROFILEDEF(.AREA.,$,#430,0.88,1.08);
#464=IFCEXTRUDEDAREASOLID(#463,#433,#203,0.024);
#465=IFCSHAPEREPRESENTATION(#5,'Body','SweptSolid',(#462,#464));
#466=IFCPRODUCTDEFINITIONSHAPE($,$,(#465));
#467=IFCWINDOW('24ReR_W7KzySDnOE328Mxk',$,'Window 2',$,$,#450,#466,'o-win-2',1.2,1.,.WINDOW.,.DOUBLE_PANEL_VERTICAL.,$);
#468=IFCRELFILLSELEMENT('2OwZC2RNywJ3zd0Rfpg_Yt',$,$,$,#447,#467);
#469=IFCCARTESIANPOINT((10.785204679,3.292564457,0.9));
#470=IFCDIRECTION((-0.100884295,0.994898165,0.));
#471=IFCAXIS2PLACEMENT3D(#469,#203,#470);
#472=IFCLOCALPLACEMENT(#240,#471);
#473=IFCRECTANGLEPROFILEDEF(.AREA.,$,#333,1.2,0.15);
#474=IFCEXTRUDEDAREASOLID(#473,#2,#203,1.2);
#475=IFCSHAPEREPRESENTATION(#5,'Body','SweptSolid',(#474));
#476=IFCPRODUCTDEFINITIONSHAPE($,$,(#475));
#477=IFCOPENINGELEMENT('0KEmTO5Jjh8yU0m0ExmQAq',$,'Curved window',$,$,#472,#476,'o-win-arc',.OPENING.);
#478=IFCRELVOIDSELEMENT('0us4SWPg2ZLVziH8Fv3kqH',$,$,$,#249,#477);
#479=IFCLOCALPLACEMENT(#472,#341);
#480=IFCPOLYLINE((#415,#416,#417,#418,#415));
#481=IFCPOLYLINE((#420,#421,#422,#423,#420));
#482=IFCARBITRARYPROFILEDEFWITHVOIDS(.AREA.,$,#480,(#481));
#483=IFCEXTRUDEDAREASOLID(#482,#427,#203,0.08);
#484=IFCRECTANGLEPROFILEDEF(.AREA.,$,#430,1.08,1.08);
#485=IFCEXTRUDEDAREASOLID(#484,#433,#203,0.024);
#486=IFCSHAPEREPRESENTATION(#5,'Body','SweptSolid',(#483,#485));
#487=IFCPRODUCTDEFINITIONSHAPE($,$,(#486));
#488=IFCWINDOW('0qR1KV89aTRZn4obMgmcfa',$,'Curved window',$,$,#479,#487,'o-win-arc',1.2,1.2,.WINDOW.,.DOUBLE_PANEL_VERTICAL.,$);
#489=IFCRELFILLSELEMENT('0mO6s6DqRWAUJG56wYGXAx',$,$,$,#477,#488);
#490=IFCLOCALPLACEMENT(#214,#2);
#491=IFCCURTAINWALL('3pCWwP0g60yXP7QurIkFzG',$,'Facade',$,$,#490,$,'cw-1',$);
#492=IFCCARTESIANPOINTLIST3D(((0.,6.05,0.),(0.05,5.95,0.),(0.,5.95,0.),(0.,6.05,2.8),(0.,5.95,2.8),(0.05,5.95,2.8),(0.05,6.05,0.),(0.05,6.05,2.8),(1.475,6.05,0.),(1.525,5.95,0.),(1.475,5.95,0.),(1.475,6.05,2.8),(1.475,5.95,2.8),(1.525,5.95,2.8),(1.525,6.05,0.),(1.525,6.05,2.8),(2.975,6.05,0.),(3.025,5.95,0.),(2.975,5.95,0.),(2.975,6.05,2.8),(2.975,5.95,2.8),(3.025,5.95,2.8),(3.025,6.05,0.),(3.025,6.05,2.8),(4.475,6.05,0.),(4.525,5.95,0.),(4.475,5.95,0.),(4.475,6.05,2.8),(4.475,5.95,2.8),(4.525,5.95,2.8),(4.525,6.05,0.),(4.525,6.05,2.8),(5.95,6.05,0.),(6.,5.95,0.),(5.95,5.95,0.),(5.95,6.05,2.8),(5.95,5.95,2.8),(6.,5.95,2.8),(6.,6.05,0.),(6.,6.05,2.8),(0.05,6.05,0.05),(1.475,6.05,0.05),(0.05,5.95,0.05),(1.475,5.95,0.05),(1.525,6.05,0.05),(2.975,6.05,0.05),(1.525,5.95,0.05),(2.975,5.95,0.05),(3.025,6.05,0.05),(4.475,6.05,0.05),(3.025,5.95,0.05),(4.475,5.95,0.05),(4.525,6.05,0.05),(5.95,6.05,0.05),(4.525,5.95,0.05),(5.95,5.95,0.05),(0.05,5.95,1.375),(0.05,6.05,1.425),(0.05,6.05,1.375),(1.475,5.95,1.375),(1.475,6.05,1.375),(1.475,6.05,1.425),(0.05,5.95,1.425),(1.475,5.95,1.425),(1.525,5.95,1.375),(1.525,6.05,1.425),(1.525,6.05,1.375),(2.975,5.95,1.375),(2.975,6.05,1.375),(2.975,6.05,1.425),(1.525,5.95,1.425),(2.975,5.95,1.425),(3.025,5.95,1.375),(3.025,6.05,1.425),(3.025,6.05,1.375),(4.475,5.95,1.375),(4.475,6.05,1.375),(4.475,6.05,1.425),(3.025,5.95,1.425),(4.475,5.95,1.425),(4.525,5.95,1.375),(4.525,6.05,1.425),(4.525,6.05,1.375),(5.95,5.95,1.375),(5.95,6.05,1.375),(5.95,6.05,1.425),(4.525,5.95,1.425),(5.95,5.95,1.425),(0.05,5.95,2.75),(0.05,6.05,2.75),(1.475,5.95,2.75),(1.475,6.05,2.75),(1.525,5.95,2.75),(1.525,6.05,2.75),(2.975,5.95,2.75),(2.975,6.05,2.75),(3.025,5.95,2.75),(3.025,6.05,2.75),(4.475,5.95,2.75),(4.475,6.05,2.75),(4.525,5.95,2.75),(4.525,6.05,2.75),(5.95,5.95,2.75),(5.95,6.05,2.75)));
#493=IFCTRIANGULATEDFACESET(#492,$,$,((1,2,3),(4,5,6),(1,7,2),(4,6,8),(3,2,6),(3,6,5),(2,7,8),(2,8,6),(7,1,4),(7,4,8),(1,3,5),(1,5,4),(9,10,11),(12,13,14),(9,15,10),(12,14,16),(11,10,14),(11,14,13),(10,15,16),(10,16,14),(15,9,12),(15,12,16),(9,11,13),(9,13,12),(17,18,19),(20,21,22),(17,23,18),(20,22,24),(19,18,22),(19,22,21),(18,23,24),(18,24,22),(23,17,20),(23,20,24),(17,19,21),(17,21,20),(25,26,27),(28,29,30),(25,31,26),(28,30,32),(27,26,30),(27,30,29),(26,31,32),(26,32,30),(31,25,28),(31,28,32),(25,27,29),(25,29,28),(33,34,35),(36,37,38),(33,39,34),(36,38,40),(35,34,38),(35,38,37),(34,39,40),(34,40,38),(39,33,36),(39,36,40),(33,35,37),(33,37,36),(2,41,7),(11,9,42),(2,43,41),(11,42,44),(7,41,42),(7,42,9),(41,43,44),(41,44,42),(43,2,11),(43,11,44),(2,7,9),(2,9,11),(10,45,15),(19,17,46),(10,47,45),(19,46,48),(15,45,46),(15,46,17),(45,47,48),(45,48,46),(47,10,19),(47,19,48),(10,15,17),(10,17,19),(18,49,23),(27,25,50),(18,51,49),(27,50,52),(23,49,50),(23,50,25),(49,51,52),(49,52,50),(51,18,27),(51,27,52),(18,23,25),(18,25,27),(26,53,31),(35,33,54),(26,55,53),(35,54,56),(31,53,54),(31,54,33),(53,55,56),(53,56,54),(55,26,35),(55,35,56),(26,31,33),(26,33,35),(57,58,59),(60,61,62),(57,63,58),(60,62,64),(59,58,62),(59,62,61),(58,63,64),(58,64,62),(63,57,60),(63,60,64),(57,59,61),(57,61,60),(65,66,67),(68,69,70),(65,71,66),(68,70,72),(67,66,70),(67,70,69),(66,71,72),(66,72,70),(71,65,68),(71,68,72),(65,67,69),(65,69,68),(73,74,75),(76,77,78),(73,79,74),(76,78,80),(75,74,78),(75,78,77),(74,79,80),(74,80,78),(79,73,76),(79,76,80),(73,75,77),(73,77,76),(81,82,83),(84,85,86),(81,87,82),(84,86,88),(83,82,86),(83,86,85),(82,87,88),(82,88,86),(87,81,84),(87,84,88),(81,83,85),(81,85,84),(89,8,90),(91,92,12),(89,6,8),(91,12,13),(90,8,12),(90,12,92),(8,6,13),(8,13,12),(6,89,91),(6,91,13),(89,90,92),(89,92,91),(93,16,94),(95,96,20),(93,14,16),(95,20,21),(94,16,20),(94,20,96),(16,14,21),(16,21,20),(14,93,95),(14,95,21),(93,94,96),(93,96,95),(97,24,98),(99,100,28),(97,22,24),(99,28,29),(98,24,28),(98,28,100),(24,22,29),(24,29,28),(22,97,99),(22,99,29),(97,98,100),(97,100,99),(101,32,102),(103,104,36),(101,30,32),(103,36,37),(102,32,36),(102,36,104),(32,30,37),(32,37,36),(30,101,103),(30,103,37),(101,102,104),(101,104,103)),$);
#494=IFCSHAPEREPRESENTATION(#5,'Body','Tessellation',(#493));
#495=IFCPRODUCTDEFINITIONSHAPE($,$,(#494));
#496=IFCLOCALPLACEMENT(#214,#2);
#497=IFCMEMBER('3TW0qDRqFsdpsFQkuD4jRY',$,'Facade',$,$,#496,#495,'cw-1:mullion',.MULLION.);
#498=IFCCARTESIANPOINTLIST3D(((0.05,6.012,0.05),(1.475,5.988,0.05),(0.05,5.988,0.05),(0.05,6.012,1.375),(0.05,5.988,1.375),(1.475,5.988,1.375),(1.475,6.012,0.05),(1.475,6.012,1.375),(1.525,6.012,0.05),(2.975,5.988,0.05),(1.525,5.988,0.05),(1.525,6.012,1.375),(1.525,5.988,1.375),(2.975,5.988,1.375),(2.975,6.012,0.05),(2.975,6.012,1.375),(3.025,6.012,0.05),(4.475,5.988,0.05),(3.025,5.988,0.05),(3.025,6.012,1.375),(3.025,5.988,1.375),(4.475,5.988,1.375),(4.475,6.012,0.05),(4.475,6.012,1.375),(4.525,6.012,0.05),(5.95,5.988,0.05),(4.525,5.988,0.05),(4.525,6.012,1.375),(4.525,5.988,1.375),(5.95,5.988,1.375),(5.95,6.012,0.05),(5.95,6.012,1.375),(0.05,6.012,1.425),(1.475,5.988,1.425),(0.05,5.988,1.425),(0.05,6.012,2.75),(0.05,5.988,2.75),(1.475,5.988,2.75),(1.475,6.012,1.425),(1.475,6.012,2.75),(1.525,6.012,1.425),(2.975,5.988,1.425),(1.525,5.988,1.425),(1.525,6.012,2.75),(1.525,5.988,2.75),(2.975,5.988,2.75),(2.975,6.012,1.425),(2.975,6.012,2.75),(3.025,6.012,1.425),(4.475,5.988,1.425),(3.025,5.988,1.425),(3.025,6.012,2.75),(3.025,5.988,2.75),(4.475,5.988,2.75),(4.475,6.012,1.425),(4.475,6.012,2.75),(4.525,6.012,1.425),(5.95,5.988,1.425),(4.525,5.988,1.425),(4.525,6.012,2.75),(4.525,5.988,2.75),(5.95,5.988,2.75),(5.95,6.012,1.425),(5.95,6.012,2.75)));
#499=IFCTRIANGULATEDFACESET(#498,$,$,((1,2,3),(4,5,6),(1,7,2),(4,6,8),(3,2,6),(3,6,5),(2,7,8),(2,8,6),(7,1,4),(7,4,8),(1,3,5),(1,5,4),(9,10,11),(12,13,14),(9,15,10),(12,14,16),(11,10,14),(11,14,13),(10,15,16),(10,16,14),(15,9,12),(15,12,16),(9,11,13),(9,13,12),(17,18,19),(20,21,22),(17,23,18),(20,22,24),(19,18,22),(19,22,21),(18,23,24),(18,24,22),(23,17,20),(23,20,24),(17,19,21),(17,21,20),(25,26,27),(28,29,30),(25,31,26),(28,30,32),(27,26,30),(27,30,29),(26,31,32),(26,32,30),(31,25,28),(31,28,32),(25,27,29),(25,29,28),(33,34,35),(36,37,38),(33,39,34),(36,38,40),(35,34,38),(35,38,37),(34,39,40),(34,40,38),(39,33,36),(39,36,40),(33,35,37),(33,37,36),(41,42,43),(44,45,46),(41,47,42),(44,46,48),(43,42,46),(43,46,45),(42,47,48),(42,48,46),(47,41,44),(47,44,48),(41,43,45),(41,45,44),(49,50,51),(52,53,54),(49,55,50),(52,54,56),(51,50,54),(51,54,53),(50,55,56),(50,56,54),(55,49,52),(55,52,56),(49,51,53),(49,53,52),(57,58,59),(60,61,62),(57,63,58),(60,62,64),(59,58,62),(59,62,61),(58,63,64),(58,64,62),(63,57,60),(63,60,64),(57,59,61),(57,61,60)),$);
#500=IFCSHAPEREPRESENTATION(#5,'Body','Tessellation',(#499));
#501=IFCPRODUCTDEFINITIONSHAPE($,$,(#500));
#502=IFCLOCALPLACEMENT(#214,#2);
#503=IFCPLATE('1LNBVxGCbtoGWpl7_b6q65',$,'Facade',$,$,#502,#501,'cw-1:panel:m-wool',.CURTAIN_PANEL.);
#504=IFCRECTANGLEPROFILEDEF(.AREA.,$,#333,0.3,0.3);
#505=IFCCARTESIANPOINT((4.,3.,0.));
#506=IFCDIRECTION((0.955336489,0.295520207,0.));
#507=IFCAXIS2PLACEMENT3D(#505,#203,#506);
#508=IFCLOCALPLACEMENT(#216,#507);
#509=IFCEXTRUDEDAREASOLID(#504,#2,#203,3.);
#510=IFCSHAPEREPRESENTATION(#5,'Body','SweptSolid',(#509));
#511=IFCPRODUCTDEFINITIONSHAPE($,$,(#510));
#512=IFCCOLUMN('2tlqLUnAtaghjp$NVXvE1u',$,'C1',$,$,#508,#511,'c-1',.COLUMN.);
#513=IFCCIRCLEPROFILEDEF(.AREA.,$,#333,0.2);
#514=IFCCARTESIANPOINT((6.,3.,0.2));
#515=IFCAXIS2PLACEMENT3D(#514,$,$);
#516=IFCLOCALPLACEMENT(#216,#515);
#517=IFCEXTRUDEDAREASOLID(#513,#2,#203,2.5);
#518=IFCSHAPEREPRESENTATION(#5,'Body','SweptSolid',(#517));
#519=IFCPRODUCTDEFINITIONSHAPE($,$,(#518));
#520=IFCCOLUMN('1T9S51QNZ34T0pkGp0qdlE',$,'C2',$,$,#516,#519,'c-2',.COLUMN.);
#521=IFCCARTESIANPOINTLIST3D(((4.15701274,2.925,2.7107),(4.15701274,3.075,2.7),(4.15701274,2.925,2.7),(6.,2.925,2.7107),(6.,2.925,2.7),(6.,3.075,2.7),(4.15701274,3.00355,2.7107),(4.15701274,3.075,2.7107),(6.,3.075,2.7107),(6.,3.00355,2.7107),(4.15701274,3.00355,2.9893),(4.15701274,3.075,3.),(4.15701274,3.075,2.9893),(6.,3.00355,2.9893),(6.,3.075,2.9893),(6.,3.075,3.),(4.15701274,2.925,3.),(6.,2.925,3.),(4.15701274,2.99645,2.9893),(4.15701274,2.925,2.9893),(6.,2.925,2.9893),(6.,2.99645,2.9893),(4.15701274,2.99645,2.7107),(6.,2.99645,2.7107)));
#522=IFCTRIANGULATEDFACESET(#521,$,$,((1,2,3),(4,5,6),(2,7,8),(6,9,10),(11,12,13),(14,15,16),(11,17,12),(14,16,18),(17,19,20),(18,21,22),(23,2,1),(24,4,6),(23,7,2),(24,6,10),(23,11,7),(24,10,14),(11,19,17),(14,18,22),(11,23,19),(14,22,24),(3,2,6),(3,6,5),(2,8,9),(2,9,6),(8,7,10),(8,10,9),(7,11,14),(7,14,10),(11,13,15),(11,15,14),(13,12,16),(13,16,15),(12,17,18),(12,18,16),(17,20,21),(17,21,18),(20,19,22),(20,22,21),(19,23,24),(19,24,22),(23,1,4),(23,4,24),(1,3,5),(1,5,4)),$);
#523=IFCCARTESIANPOINT((4.,3.));
#524=IFCCARTESIANPOINT((6.,3.));
#525=IFCPOLYLINE((#523,#524));
#526=IFCSHAPEREPRESENTATION(#6,'Axis','Curve2D',(#525));
#527=IFCSHAPEREPRESENTATION(#5,'Body','Tessellation',(#522));
#528=IFCLOCALPLACEMENT(#216,#2);
#529=IFCPRODUCTDEFINITIONSHAPE($,$,(#526,#527));
#530=IFCBEAM('0f8suY8ImoN37kc9aylUqN',$,'B1',$,$,#528,#529,'b-1',.BEAM.);
#531=IFCCARTESIANPOINTLIST3D(((0.,2.875,2.9),(0.,3.125,2.5),(0.,2.875,2.5),(3.84298726,2.875,2.9),(3.84298726,2.875,2.5),(3.84298726,3.125,2.5),(0.,3.125,2.9),(3.84298726,3.125,2.9)));
#532=IFCTRIANGULATEDFACESET(#531,$,$,((1,2,3),(4,5,6),(1,7,2),(4,6,8),(3,2,6),(3,6,5),(2,7,8),(2,8,6),(7,1,4),(7,4,8),(1,3,5),(1,5,4)),$);
#533=IFCCARTESIANPOINT((0.,3.));
#534=IFCPOLYLINE((#533,#523));
#535=IFCSHAPEREPRESENTATION(#6,'Axis','Curve2D',(#534));
#536=IFCSHAPEREPRESENTATION(#5,'Body','Tessellation',(#532));
#537=IFCLOCALPLACEMENT(#216,#2);
#538=IFCPRODUCTDEFINITIONSHAPE($,$,(#535,#536));
#539=IFCBEAM('05WtPR8kDgb4Bv6xAtWPMM',$,'B2',$,$,#537,#538,'b-2',.BEAM.);
#540=IFCLOCALPLACEMENT(#214,#2);
#541=IFCCARTESIANPOINTLIST3D(((8.,2.,-0.05),(10.,0.,-0.150083417),(8.,0.,-0.05),(8.,2.,0.),(8.,0.,0.),(10.,0.,-0.100083417),(10.,2.,-0.150083417),(10.,2.,-0.100083417),(8.,2.,-0.25),(10.,0.,-0.350083417),(8.,0.,-0.25),(10.,2.,-0.350083417)));
#542=IFCTRIANGULATEDFACESET(#541,$,$,((1,2,3),(4,5,6),(1,7,2),(4,6,8),(3,2,6),(3,6,5),(2,7,8),(2,8,6),(7,1,4),(7,4,8),(1,3,5),(1,5,4),(9,10,11),(1,3,2),(9,12,10),(1,2,7),(11,10,2),(11,2,3),(10,12,7),(10,7,2),(12,9,1),(12,1,7),(9,11,3),(9,3,1)),$);
#543=IFCSHAPEREPRESENTATION(#5,'Body','Tessellation',(#542));
#544=IFCPRODUCTDEFINITIONSHAPE($,$,(#543));
#545=IFCSLAB('1QYvr_GKlDaOpLV9SNtWoj',$,'Balcony',$,$,#540,#544,'sl-balcony',.FLOOR.);
#546=IFCMATERIALLAYERSETUSAGE(#127,.AXIS3.,.NEGATIVE.,0.25,$);
#547=IFCCARTESIANPOINT((0.,0.,-0.25));
#548=IFCAXIS2PLACEMENT3D(#547,$,$);
#549=IFCLOCALPLACEMENT(#214,#548);
#550=IFCPOLYLINE((#274,#259,#260,#301,#274));
#551=IFCARBITRARYCLOSEDPROFILEDEF(.AREA.,$,#550);
#552=IFCEXTRUDEDAREASOLID(#551,#2,#203,0.25);
#553=IFCSHAPEREPRESENTATION(#5,'Body','SweptSolid',(#552));
#554=IFCPRODUCTDEFINITIONSHAPE($,$,(#553));
#555=IFCSLAB('13mWDkF7YQVLrGrewYCBeb',$,'First slab',$,$,#549,#554,'sl-first',.FLOOR.);
#556=IFCMATERIALLAYERSETUSAGE(#127,.AXIS3.,.NEGATIVE.,0.25,$);
#557=IFCLOCALPLACEMENT(#216,#548);
#558=IFCPOLYLINE((#274,#259,#260,#301,#274));
#559=IFCCARTESIANPOINT((5.5,4.));
#560=IFCCARTESIANPOINT((5.5,5.));
#561=IFCCARTESIANPOINT((6.5,5.));
#562=IFCCARTESIANPOINT((6.5,4.));
#563=IFCPOLYLINE((#559,#560,#561,#562,#559));
#564=IFCARBITRARYPROFILEDEFWITHVOIDS(.AREA.,$,#558,(#563));
#565=IFCEXTRUDEDAREASOLID(#564,#2,#203,0.25);
#566=IFCSHAPEREPRESENTATION(#5,'Body','SweptSolid',(#565));
#567=IFCPRODUCTDEFINITIONSHAPE($,$,(#566));
#568=IFCSLAB('3W6C3EGWYPZ105oXKQfyAK',$,'Ground slab',$,$,#557,#567,'sl-ground',.FLOOR.);
#569=IFCMATERIALLAYERSETUSAGE(#127,.AXIS3.,.NEGATIVE.,0.25,$);
#570=IFCLOCALPLACEMENT(#220,#2);
#571=IFCROOF('3U4czFd0KGdZrGE6bgsmwM',$,'Roof',$,$,#570,$,'r-1',.GABLE_ROOF.);
#572=IFCCARTESIANPOINTLIST3D(((-0.299999982,3.,2.542798216),(-0.3,-0.3,0.74),(8.3,-0.3,0.74),(8.3,-0.3,0.7),(-0.3,-0.3,0.7),(-0.299999982,3.,2.502798216),(8.299999982,3.,2.542798216),(8.299999982,3.,2.502798216),(8.3,6.3,0.74),(-0.3,6.3,0.74),(-0.3,6.3,0.7),(8.3,6.3,0.7)));
#573=IFCTRIANGULATEDFACESET(#572,$,$,((1,2,3),(4,5,6),(1,3,7),(8,4,6),(7,9,10),(11,12,8),(7,10,1),(6,11,8),(2,5,4),(2,4,3),(10,11,6),(10,6,1),(1,6,5),(1,5,2),(7,8,12),(7,12,9),(3,4,8),(3,8,7),(9,12,11),(9,11,10)),$);
#574=IFCSHAPEREPRESENTATION(#5,'Body','Tessellation',(#573));
#575=IFCPRODUCTDEFINITIONSHAPE($,$,(#574));
#576=IFCLOCALPLACEMENT(#220,#2);
#577=IFCSLAB('1Kx2t8NTqlxW5$pzq0T3zk',$,'Roof',$,$,#576,#575,'r-1:layer0',.ROOF.);
#578=IFCCARTESIANPOINTLIST3D(((-0.299999982,3.,2.502798216),(-0.3,-0.3,0.7),(8.3,-0.3,0.7),(8.3,-0.3,0.5),(-0.3,-0.3,0.5),(-0.299999982,3.,2.302798216),(8.299999982,3.,2.502798216),(8.299999982,3.,2.302798216),(8.3,6.3,0.7),(-0.3,6.3,0.7),(-0.3,6.3,0.5),(8.3,6.3,0.5)));
#579=IFCTRIANGULATEDFACESET(#578,$,$,((1,2,3),(4,5,6),(1,3,7),(8,4,6),(7,9,10),(11,12,8),(7,10,1),(6,11,8),(2,5,4),(2,4,3),(10,11,6),(10,6,1),(1,6,5),(1,5,2),(7,8,12),(7,12,9),(3,4,8),(3,8,7),(9,12,11),(9,11,10)),$);
#580=IFCSHAPEREPRESENTATION(#5,'Body','Tessellation',(#579));
#581=IFCPRODUCTDEFINITIONSHAPE($,$,(#580));
#582=IFCLOCALPLACEMENT(#220,#2);
#583=IFCSLAB('2bV_4AOuZ7$bWmKHRdErem',$,'Roof',$,$,#582,#581,'r-1:layer1',.ROOF.);
#584=IFCLOCALPLACEMENT(#216,#2);
#585=IFCSTAIR('0_sWgOEjGzQ$kg9dLueelo',$,'Stair 1',$,$,#584,$,'s-1',.STRAIGHT_RUN_STAIR.);
#586=IFCCARTESIANPOINTLIST3D(((1.,1.5,0.136470588),(1.27,0.5,0.136470588),(1.,0.5,0.136470588),(1.,1.5,0.176470588),(1.,0.5,0.176470588),(1.27,0.5,0.176470588),(1.27,1.5,0.136470588),(1.27,1.5,0.176470588),(1.27,1.5,0.312941176),(1.54,0.5,0.312941176),(1.27,0.5,0.312941176),(1.27,1.5,0.352941176),(1.27,0.5,0.352941176),(1.54,0.5,0.352941176),(1.54,1.5,0.312941176),(1.54,1.5,0.352941176),(1.54,1.5,0.489411765),(1.81,0.5,0.489411765),(1.54,0.5,0.489411765),(1.54,1.5,0.529411765),(1.54,0.5,0.529411765),(1.81,0.5,0.529411765),(1.81,1.5,0.489411765),(1.81,1.5,0.529411765),(1.81,1.5,0.665882353),(2.08,0.5,0.665882353),(1.81,0.5,0.665882353),(1.81,1.5,0.705882353),(1.81,0.5,0.705882353),(2.08,0.5,0.705882353),(2.08,1.5,0.665882353),(2.08,1.5,0.705882353),(2.08,1.5,0.842352941),(2.35,0.5,0.842352941),(2.08,0.5,0.842352941),(2.08,1.5,0.882352941),(2.08,0.5,0.882352941),(2.35,0.5,0.882352941),(2.35,1.5,0.842352941),(2.35,1.5,0.882352941),(2.35,1.5,1.018823529),(2.62,0.5,1.018823529),(2.35,0.5,1.018823529),(2.35,1.5,1.058823529),(2.35,0.5,1.058823529),(2.62,0.5,1.058823529),(2.62,1.5,1.018823529),(2.62,1.5,1.058823529),(2.62,1.5,1.195294118),(2.89,0.5,1.195294118),(2.62,0.5,1.195294118),(2.62,1.5,1.235294118),(2.62,0.5,1.235294118),(2.89,0.5,1.235294118),(2.89,1.5,1.195294118),(2.89,1.5,1.235294118),(2.89,1.5,1.371764706),(3.16,0.5,1.371764706),(2.89,0.5,1.371764706),(2.89,1.5,1.411764706),(2.89,0.5,1.411764706),(3.16,0.5,1.411764706),(3.16,1.5,1.371764706),(3.16,1.5,1.411764706),(3.16,1.5,1.548235294),(3.43,0.5,1.548235294),(3.16,0.5,1.548235294),(3.16,1.5,1.588235294),(3.16,0.5,1.588235294),(3.43,0.5,1.588235294),(3.43,1.5,1.548235294),(3.43,1.5,1.588235294),(3.43,1.5,1.724705882),(3.7,0.5,1.724705882),(3.43,0.5,1.724705882),(3.43,1.5,1.764705882),(3.43,0.5,1.764705882),(3.7,0.5,1.764705882),(3.7,1.5,1.724705882),(3.7,1.5,1.764705882),(3.7,1.5,1.901176471),(3.97,0.5,1.901176471),(3.7,0.5,1.901176471),(3.7,1.5,1.941176471),(3.7,0.5,1.941176471),(3.97,0.5,1.941176471),(3.97,1.5,1.901176471),(3.97,1.5,1.941176471),(3.97,1.5,2.077647059),(4.24,0.5,2.077647059),(3.97,0.5,2.077647059),(3.97,1.5,2.117647059),(3.97,0.5,2.117647059),(4.24,0.5,2.117647059),(4.24,1.5,2.077647059),(4.24,1.5,2.117647059),(4.24,1.5,2.254117647),(4.51,0.5,2.254117647),(4.24,0.5,2.254117647),(4.24,1.5,2.294117647),(4.24,0.5,2.294117647),(4.51,0.5,2.294117647),(4.51,1.5,2.254117647),(4.51,1.5,2.294117647),(4.51,1.5,2.430588235),(4.78,0.5,2.430588235),(4.51,0.5,2.430588235),(4.51,1.5,2.470588235),(4.51,0.5,2.470588235),(4.78,0.5,2.470588235),(4.78,1.5,2.430588235),(4.78,1.5,2.470588235),(4.78,1.5,2.607058824),(5.05,0.5,2.607058824),(4.78,0.5,2.607058824),(4.78,1.5,2.647058824),(4.78,0.5,2.647058824),(5.05,0.5,2.647058824),(5.05,1.5,2.607058824),(5.05,1.5,2.647058824),(5.05,1.5,2.783529412),(5.32,0.5,2.783529412),(5.05,0.5,2.783529412),(5.05,1.5,2.823529412),(5.05,0.5,2.823529412),(5.32,0.5,2.823529412),(5.32,1.5,2.783529412),(5.32,1.5,2.823529412),(1.,1.5,0.),(1.04,0.5,0.),(1.,0.5,0.),(1.04,0.5,0.136470588),(1.04,1.5,0.),(1.04,1.5,0.136470588),(1.31,0.5,0.176470588),(1.31,0.5,0.312941176),(1.31,1.5,0.176470588),(1.31,1.5,0.312941176),(1.58,0.5,0.352941176),(1.58,0.5,0.489411765),(1.58,1.5,0.352941176),(1.58,1.5,0.489411765),(1.85,0.5,0.529411765),(1.85,0.5,0.665882353),(1.85,1.5,0.529411765),(1.85,1.5,0.665882353),(2.12,0.5,0.705882353),(2.12,0.5,0.842352941),(2.12,1.5,0.705882353),(2.12,1.5,0.842352941),(2.39,0.5,0.882352941),(2.39,0.5,1.018823529),(2.39,1.5,0.882352941),(2.39,1.5,1.018823529),(2.66,0.5,1.058823529),(2.66,0.5,1.195294118),(2.66,1.5,1.058823529),(2.66,1.5,1.195294118),(2.93,0.5,1.235294118),(2.93,0.5,1.371764706),(2.93,1.5,1.235294118),(2.93,1.5,1.371764706),(3.2,0.5,1.411764706),(3.2,0.5,1.548235294),(3.2,1.5,1.411764706),(3.2,1.5,1.548235294),(3.47,0.5,1.588235294),(3.47,0.5,1.724705882),(3.47,1.5,1.588235294),(3.47,1.5,1.724705882),(3.74,0.5,1.764705882),(3.74,0.5,1.901176471),(3.74,1.5,1.764705882),(3.74,1.5,1.901176471),(4.01,0.5,1.941176471),(4.01,0.5,2.077647059),(4.01,1.5,1.941176471),(4.01,1.5,2.077647059),(4.28,0.5,2.117647059),(4.28,0.5,2.254117647),(4.28,1.5,2.117647059),(4.28,1.5,2.254117647),(4.55,0.5,2.294117647),(4.55,0.5,2.430588235),(4.55,1.5,2.294117647),(4.55,1.5,2.430588235),(4.82,0.5,2.470588235),(4.82,0.5,2.607058824),(4.82,1.5,2.470588235),(4.82,1.5,2.607058824),(5.09,0.5,2.647058824),(5.09,0.5,2.783529412),(5.09,1.5,2.647058824),(5.09,1.5,2.783529412)));
#587=IFCTRIANGULATEDFACESET(#586,$,$,((1,2,3),(4,5,6),(1,7,2),(4,6,8),(3,2,6),(3,6,5),(2,7,8),(2,8,6),(7,1,4),(7,4,8),(1,3,5),(1,5,4),(9,10,11),(12,13,14),(9,15,10),(12,14,16),(11,10,14),(11,14,13),(10,15,16),(10,16,14),(15,9,12),(15,12,16),(9,11,13),(9,13,12),(17,18,19),(20,21,22),(17,23,18),(20,22,24),(19,18,22),(19,22,21),(18,23,24),(18,24,22),(23,17,20),(23,20,24),(17,19,21),(17,21,20),(25,26,27),(28,29,30),(25,31,26),(28,30,32),(27,26,30),(27,30,29),(26,31,32),(26,32,30),(31,25,28),(31,28,32),(25,27,29),(25,29,28),(33,34,35),(36,37,38),(33,39,34),(36,38,40),(35,34,38),(35,38,37),(34,39,40),(34,40,38),(39,33,36),(39,36,40),(33,35,37),(33,37,36),(41,42,43),(44,45,46),(41,47,42),(44,46,48),(43,42,46),(43,46,45),(42,47,48),(42,48,46),(47,41,44),(47,44,48),(41,43,45),(41,45,44),(49,50,51),(52,53,54),(49,55,50),(52,54,56),(51,50,54),(51,54,53),(50,55,56),(50,56,54),(55,49,52),(55,52,56),(49,51,53),(49,53,52),(57,58,59),(60,61,62),(57,63,58),(60,62,64),(59,58,62),(59,62,61),(58,63,64),(58,64,62),(63,57,60),(63,60,64),(57,59,61),(57,61,60),(65,66,67),(68,69,70),(65,71,66),(68,70,72),(67,66,70),(67,70,69),(66,71,72),(66,72,70),(71,65,68),(71,68,72),(65,67,69),(65,69,68),(73,74,75),(76,77,78),(73,79,74),(76,78,80),(75,74,78),(75,78,77),(74,79,80),(74,80,78),(79,73,76),(79,76,80),(73,75,77),(73,77,76),(81,82,83),(84,85,86),(81,87,82),(84,86,88),(83,82,86),(83,86,85),(82,87,88),(82,88,86),(87,81,84),(87,84,88),(81,83,85),(81,85,84),(89,90,91),(92,93,94),(89,95,90),(92,94,96),(91,90,94),(91,94,93),(90,95,96),(90,96,94),(95,89,92),(95,92,96),(89,91,93),(89,93,92),(97,98,99),(100,101,102),(97,103,98),(100,102,104),(99,98,102),(99,102,101),(98,103,104),(98,104,102),(103,97,100),(103,100,104),(97,99,101),(97,101,100),(105,106,107),(108,109,110),(105,111,106),(108,110,112),(107,106,110),(107,110,109),(106,111,112),(106,112,110),(111,105,108),(111,108,112),(105,107,109),(105,109,108),(113,114,115),(116,117,118),(113,119,114),(116,118,120),(115,114,118),(115,118,117),(114,119,120),(114,120,118),(119,113,116),(119,116,120),(113,115,117),(113,117,116),(121,122,123),(124,125,126),(121,127,122),(124,126,128),(123,122,126),(123,126,125),(122,127,128),(122,128,126),(127,121,124),(127,124,128),(121,123,125),(121,125,124),(129,130,131),(1,3,132),(129,133,130),(1,132,134),(131,130,132),(131,132,3),(130,133,134),(130,134,132),(133,129,1),(133,1,134),(129,131,3),(129,3,1),(8,135,6),(9,11,136),(8,137,135),(9,136,138),(6,135,136),(6,136,11),(135,137,138),(135,138,136),(137,8,9),(137,9,138),(8,6,11),(8,11,9),(16,139,14),(17,19,140),(16,141,139),(17,140,142),(14,139,140),(14,140,19),(139,141,142),(139,142,140),(141,16,17),(141,17,142),(16,14,19),(16,19,17),(24,143,22),(25,27,144),(24,145,143),(25,144,146),(22,143,144),(22,144,27),(143,145,146),(143,146,144),(145,24,25),(145,25,146),(24,22,27),(24,27,25),(32,147,30),(33,35,148),(32,149,147),(33,148,150),(30,147,148),(30,148,35),(147,149,150),(147,150,148),(149,32,33),(149,33,150),(32,30,35),(32,35,33),(40,151,38),(41,43,152),(40,153,151),(41,152,154),(38,151,152),(38,152,43),(151,153,154),(151,154,152),(153,40,41),(153,41,154),(40,38,43),(40,43,41),(48,155,46),(49,51,156),(48,157,155),(49,156,158),(46,155,156),(46,156,51),(155,157,158),(155,158,156),(157,48,49),(157,49,158),(48,46,51),(48,51,49),(56,159,54),(57,59,160),(56,161,159),(57,160,162),(54,159,160),(54,160,59),(159,161,162),(159,162,160),(161,56,57),(161,57,162),(56,54,59),(56,59,57),(64,163,62),(65,67,164),(64,165,163),(65,164,166),(62,163,164),(62,164,67),(163,165,166),(163,166,164),(165,64,65),(165,65,166),(64,62,67),(64,67,65),(72,167,70),(73,75,168),(72,169,167),(73,168,170),(70,167,168),(70,168,75),(167,169,170),(167,170,168),(169,72,73),(169,73,170),(72,70,75),(72,75,73),(80,171,78),(81,83,172),(80,173,171),(81,172,174),(78,171,172),(78,172,83),(171,173,174),(171,174,172),(173,80,81),(173,81,174),(80,78,83),(80,83,81),(88,175,86),(89,91,176),(88,177,175),(89,176,178),(86,175,176),(86,176,91),(175,177,178),(175,178,176),(177,88,89),(177,89,178),(88,86,91),(88,91,89),(96,179,94),(97,99,180),(96,181,179),(97,180,182),(94,179,180),(94,180,99),(179,181,182),(179,182,180),(181,96,97),(181,97,182),(96,94,99),(96,99,97),(104,183,102),(105,107,184),(104,185,183),(105,184,186),(102,183,184),(102,184,107),(183,185,186),(183,186,184),(185,104,105),(185,105,186),(104,102,107),(104,107,105),(112,187,110),(113,115,188),(112,189,187),(113,188,190),(110,187,188),(110,188,115),(187,189,190),(187,190,188),(189,112,113),(189,113,190),(112,110,115),(112,115,113),(120,191,118),(121,123,192),(120,193,191),(121,192,194),(118,191,192),(118,192,123),(191,193,194),(191,194,192),(193,120,121),(193,121,194),(120,118,123),(120,123,121)),$);
#588=IFCSHAPEREPRESENTATION(#5,'Body','Tessellation',(#587));
#589=IFCPRODUCTDEFINITIONSHAPE($,$,(#588));
#590=IFCLOCALPLACEMENT(#216,#2);
#591=IFCSTAIRFLIGHT('3lBCGbIT08fzlctBGcA3qx',$,'Stair 1',$,$,#590,#589,'s-1:flight0',17,16,0.176470588,0.27,.STRAIGHT.);
#592=IFCLOCALPLACEMENT(#214,#2);
#593=IFCSTAIR('0HmueoudJAz7w9PkXThWS1',$,'Stair 2',$,$,#592,$,'s-2',.QUARTER_TURN_STAIR.);
#594=IFCCARTESIANPOINTLIST3D(((1.,4.5,0.135),(1.27,3.5,0.135),(1.,3.5,0.135),(1.,4.5,0.175),(1.,3.5,0.175),(1.27,3.5,0.175),(1.27,4.5,0.135),(1.27,4.5,0.175),(1.27,4.5,0.31),(1.54,3.5,0.31),(1.27,3.5,0.31),(1.27,4.5,0.35),(1.27,3.5,0.35),(1.54,3.5,0.35),(1.54,4.5,0.31),(1.54,4.5,0.35),(1.54,4.5,0.485),(1.81,3.5,0.485),(1.54,3.5,0.485),(1.54,4.5,0.525),(1.54,3.5,0.525),(1.81,3.5,0.525),(1.81,4.5,0.485),(1.81,4.5,0.525),(1.81,4.5,0.66),(2.08,3.5,0.66),(1.81,3.5,0.66),(1.81,4.5,0.7),(1.81,3.5,0.7),(2.08,3.5,0.7),(2.08,4.5,0.66),(2.08,4.5,0.7),(2.08,4.5,0.835),(2.35,3.5,0.835),(2.08,3.5,0.835),(2.08,4.5,0.875),(2.08,3.5,0.875),(2.35,3.5,0.875),(2.35,4.5,0.835),(2.35,4.5,0.875),(2.35,4.5,1.01),(2.62,3.5,1.01),(2.35,3.5,1.01),(2.35,4.5,1.05),(2.35,3.5,1.05),(2.62,3.5,1.05),(2.62,4.5,1.01),(2.62,4.5,1.05),(2.62,4.5,1.185),(2.89,3.5,1.185),(2.62,3.5,1.185),(2.62,4.5,1.225),(2.62,3.5,1.225),(2.89,3.5,1.225),(2.89,4.5,1.185),(2.89,4.5,1.225),(1.,4.5,0.),(1.04,3.5,0.),(1.,3.5,0.),(1.04,3.5,0.135),(1.04,4.5,0.),(1.04,4.5,0.135),(1.31,3.5,0.175),(1.31,3.5,0.31),(1.31,4.5,0.175),(1.31,4.5,0.31),(1.58,3.5,0.35),(1.58,3.5,0.485),(1.58,4.5,0.35),(1.58,4.5,0.485),(1.85,3.5,0.525),(1.85,3.5,0.66),(1.85,4.5,0.525),(1.85,4.5,0.66),(2.12,3.5,0.7),(2.12,3.5,0.835),(2.12,4.5,0.7),(2.12,4.5,0.835),(2.39,3.5,0.875),(2.39,3.5,1.01),(2.39,4.5,0.875),(2.39,4.5,1.01),(2.66,3.5,1.05),(2.66,3.5,1.185),(2.66,4.5,1.05),(2.66,4.5,1.185),(2.93,3.5,1.225),(2.89,4.5,1.36),(2.89,3.5,1.36),(2.93,3.5,1.36),(2.93,4.5,1.225),(2.93,4.5,1.36),(3.89,3.5,1.36),(2.89,4.5,1.4),(2.89,3.5,1.4),(3.89,3.5,1.4)));
#595=IFCTRIANGULATEDFACESET(#594,$,$,((1,2,3),(4,5,6),(1,7,2),(4,6,8),(3,2,6),(3,6,5),(2,7,8),(2,8,6),(7,1,4),(7,4,8),(1,3,5),(1,5,4),(9,10,11),(12,13,14),(9,15,10),(12,14,16),(11,10,14),(11,14,13),(10,15,16),(10,16,14),(15,9,12),(15,12,16),(9,11,13),(9,13,12),(17,18,19),(20,21,22),(17,23,18),(20,22,24),(19,18,22),(19,22,21),(18,23,24),(18,24,22),(23,17,20),(23,20,24),(17,19,21),(17,21,20),(25,26,27),(28,29,30),(25,31,26),(28,30,32),(27,26,30),(27,30,29),(26,31,32),(26,32,30),(31,25,28),(31,28,32),(25,27,29),(25,29,28),(33,34,35),(36,37,38),(33,39,34),(36,38,40),(35,34,38),(35,38,37),(34,39,40),(34,40,38),(39,33,36),(39,36,40),(33,35,37),(33,37,36),(41,42,43),(44,45,46),(41,47,42),(44,46,48),(43,42,46),(43,46,45),(42,47,48),(42,48,46),(47,41,44),(47,44,48),(41,43,45),(41,45,44),(49,50,51),(52,53,54),(49,55,50),(52,54,56),(51,50,54),(51,54,53),(50,55,56),(50,56,54),(55,49,52),(55,52,56),(49,51,53),(49,53,52),(57,58,59),(1,3,60),(57,61,58),(1,60,62),(59,58,60),(59,60,3),(58,61,62),(58,62,60),(61,57,1),(61,1,62),(57,59,3),(57,3,1),(8,63,6),(9,11,64),(8,65,63),(9,64,66),(6,63,64),(6,64,11),(63,65,66),(63,66,64),(65,8,9),(65,9,66),(8,6,11),(8,11,9),(16,67,14),(17,19,68),(16,69,67),(17,68,70),(14,67,68),(14,68,19),(67,69,70),(67,70,68),(69,16,17),(69,17,70),(16,14,19),(16,19,17),(24,71,22),(25,27,72),(24,73,71),(25,72,74),(22,71,72),(22,72,27),(71,73,74),(71,74,72),(73,24,25),(73,25,74),(24,22,27),(24,27,25),(32,75,30),(33,35,76),(32,77,75),(33,76,78),(30,75,76),(30,76,35),(75,77,78),(75,78,76),(77,32,33),(77,33,78),(32,30,35),(32,35,33),(40,79,38),(41,43,80),(40,81,79),(41,80,82),(38,79,80),(38,80,43),(79,81,82),(79,82,80),(81,40,41),(81,41,82),(40,38,43),(40,43,41),(48,83,46),(49,51,84),(48,85,83),(49,84,86),(46,83,84),(46,84,51),(83,85,86),(83,86,84),(85,48,49),(85,49,86),(48,46,51),(48,51,49),(56,87,54),(88,89,90),(56,91,87),(88,90,92),(54,87,90),(54,90,89),(87,91,92),(87,92,90),(56,54,89),(56,89,88),(88,93,89),(94,95,96),(89,93,96),(89,96,95),(88,89,95),(88,95,94)),$);
#596=IFCSHAPEREPRESENTATION(#5,'Body','Tessellation',(#595));
#597=IFCPRODUCTDEFINITIONSHAPE($,$,(#596));
#598=IFCLOCALPLACEMENT(#214,#2);
#599=IFCSTAIRFLIGHT('29OhG6et2kR$T8ziPqMrcb',$,'Stair 2',$,$,#598,#597,'s-2:flight0',8,7,0.175,0.27,.STRAIGHT.);
#600=IFCCARTESIANPOINTLIST3D(((2.89,4.5,1.535),(3.89,4.77,1.535),(3.89,4.5,1.535),(2.89,4.5,1.575),(3.89,4.5,1.575),(3.89,4.77,1.575),(2.89,4.77,1.535),(2.89,4.77,1.575),(2.89,4.77,1.71),(3.89,5.04,1.71),(3.89,4.77,1.71),(2.89,4.77,1.75),(3.89,4.77,1.75),(3.89,5.04,1.75),(2.89,5.04,1.71),(2.89,5.04,1.75),(2.89,5.04,1.885),(3.89,5.31,1.885),(3.89,5.04,1.885),(2.89,5.04,1.925),(3.89,5.04,1.925),(3.89,5.31,1.925),(2.89,5.31,1.885),(2.89,5.31,1.925),(2.89,5.31,2.06),(3.89,5.58,2.06),(3.89,5.31,2.06),(2.89,5.31,2.1),(3.89,5.31,2.1),(3.89,5.58,2.1),(2.89,5.58,2.06),(2.89,5.58,2.1),(2.89,5.58,2.235),(3.89,5.85,2.235),(3.89,5.58,2.235),(2.89,5.58,2.275),(3.89,5.58,2.275),(3.89,5.85,2.275),(2.89,5.85,2.235),(2.89,5.85,2.275),(2.89,5.85,2.41),(3.89,6.12,2.41),(3.89,5.85,2.41),(2.89,5.85,2.45),(3.89,5.85,2.45),(3.89,6.12,2.45),(2.89,6.12,2.41),(2.89,6.12,2.45),(2.89,6.12,2.585),(3.89,6.39,2.585),(3.89,6.12,2.585),(2.89,6.12,2.625),(3.89,6.12,2.625),(3.89,6.39,2.625),(2.89,6.39,2.585),(2.89,6.39,2.625),(2.93,4.5,1.225),(2.89,4.5,1.225),(2.89,4.5,1.36),(2.93,4.5,1.36),(2.89,4.5,1.4),(3.89,4.54,1.4),(3.89,4.5,1.4),(3.89,4.54,1.535),(2.89,4.54,1.4),(2.89,4.54,1.535),(3.89,4.81,1.575),(3.89,4.81,1.71),(2.89,4.81,1.575),(2.89,4.81,1.71),(3.89,5.08,1.75),(3.89,5.08,1.885),(2.89,5.08,1.75),(2.89,5.08,1.885),(3.89,5.35,1.925),(3.89,5.35,2.06),(2.89,5.35,1.925),(2.89,5.35,2.06),(3.89,5.62,2.1),(3.89,5.62,2.235),(2.89,5.62,2.1),(2.89,5.62,2.235),(3.89,5.89,2.275),(3.89,5.89,2.41),(2.89,5.89,2.275),(2.89,5.89,2.41),(3.89,6.16,2.45),(3.89,6.16,2.585),(2.89,6.16,2.45),(2.89,6.16,2.585),(3.89,4.5,1.36),(3.89,3.5,1.36),(3.89,3.5,1.4)));
#601=IFCTRIANGULATEDFACESET(#600,$,$,((1,2,3),(4,5,6),(1,7,2),(4,6,8),(3,2,6),(3,6,5),(2,7,8),(2,8,6),(7,1,4),(7,4,8),(1,3,5),(1,5,4),(9,10,11),(12,13,14),(9,15,10),(12,14,16),(11,10,14),(11,14,13),(10,15,16),(10,16,14),(15,9,12),(15,12,16),(9,11,13),(9,13,12),(17,18,19),(20,21,22),(17,23,18),(20,22,24),(19,18,22),(19,22,21),(18,23,24),(18,24,22),(23,17,20),(23,20,24),(17,19,21),(17,21,20),(25,26,27),(28,29,30),(25,31,26),(28,30,32),(27,26,30),(27,30,29),(26,31,32),(26,32,30),(31,25,28),(31,28,32),(25,27,29),(25,29,28),(33,34,35),(36,37,38),(33,39,34),(36,38,40),(35,34,38),(35,38,37),(34,39,40),(34,40,38),(39,33,36),(39,36,40),(33,35,37),(33,37,36),(41,42,43),(44,45,46),(41,47,42),(44,46,48),(43,42,46),(43,46,45),(42,47,48),(42,48,46),(47,41,44),(47,44,48),(41,43,45),(41,45,44),(49,50,51),(52,53,54),(49,55,50),(52,54,56),(51,50,54),(51,54,53),(50,55,56),(50,56,54),(55,49,52),(55,52,56),(49,51,53),(49,53,52),(57,58,59),(57,59,60),(61,62,63),(1,3,64),(61,65,62),(1,64,66),(63,62,64),(63,64,3),(62,65,66),(62,66,64),(65,61,1),(65,1,66),(61,63,3),(61,3,1),(8,67,6),(9,11,68),(8,69,67),(9,68,70),(6,67,68),(6,68,11),(67,69,70),(67,70,68),(69,8,9),(69,9,70),(8,6,11),(8,11,9),(16,71,14),(17,19,72),(16,73,71),(17,72,74),(14,71,72),(14,72,19),(71,73,74),(71,74,72),(73,16,17),(73,17,74),(16,14,19),(16,19,17),(24,75,22),(25,27,76),(24,77,75),(25,76,78),(22,75,76),(22,76,27),(75,77,78),(75,78,76),(77,24,25),(77,25,78),(24,22,27),(24,27,25),(32,79,30),(33,35,80),(32,81,79),(33,80,82),(30,79,80),(30,80,35),(79,81,82),(79,82,80),(81,32,33),(81,33,82),(32,30,35),(32,35,33),(40,83,38),(41,43,84),(40,85,83),(41,84,86),(38,83,84),(38,84,43),(83,85,86),(83,86,84),(85,40,41),(85,41,86),(40,38,43),(40,43,41),(48,87,46),(49,51,88),(48,89,87),(49,88,90),(46,87,88),(46,88,51),(87,89,90),(87,90,88),(89,48,49),(89,49,90),(48,46,51),(48,51,49),(59,91,92),(61,93,63),(92,91,63),(92,63,93),(91,59,61),(91,61,63)),$);
#602=IFCSHAPEREPRESENTATION(#5,'Body','Tessellation',(#601));
#603=IFCPRODUCTDEFINITIONSHAPE($,$,(#602));
#604=IFCLOCALPLACEMENT(#214,#2);
#605=IFCSTAIRFLIGHT('0ZBYMuGYIpusrvQWy4TDZM',$,'Stair 2',$,$,#604,#603,'s-2:flight1',8,7,0.175,0.27,.STRAIGHT.);
#606=IFCCARTESIANPOINTLIST3D(((-0.025,0.025,0.),(0.025,-0.025,0.),(-0.025,-0.025,0.),(-0.025,0.025,0.96),(-0.025,-0.025,0.96),(0.025,-0.025,0.96),(0.025,0.025,0.),(0.025,0.025,0.96),(0.975,0.025,0.),(1.025,-0.025,0.),(0.975,-0.025,0.),(0.975,0.025,0.96),(0.975,-0.025,0.96),(1.025,-0.025,0.96),(1.025,0.025,0.),(1.025,0.025,0.96),(1.975,0.025,0.),(2.025,-0.025,0.),(1.975,-0.025,0.),(1.975,0.025,0.96),(1.975,-0.025,0.96),(2.025,-0.025,0.96),(2.025,0.025,0.),(2.025,0.025,0.96),(1.975,0.975,0.),(2.025,1.025,0.),(2.025,0.975,0.),(1.975,0.975,0.96),(2.025,0.975,0.96),(2.025,1.025,0.96),(1.975,1.025,0.),(1.975,1.025,0.96),(1.975,1.975,0.),(2.025,2.025,0.),(2.025,1.975,0.),(1.975,1.975,0.96),(2.025,1.975,0.96),(2.025,2.025,0.96),(1.975,2.025,0.),(1.975,2.025,0.96),(0.,-0.03,1.),(0.,0.03,0.96),(0.,-0.03,0.96),(2.03,2.,1.),(2.03,2.,0.96),(1.97,2.,0.96),(0.,0.03,1.),(1.97,2.,1.),(1.97,0.03,0.96),(2.03,-0.03,0.96),(1.97,0.03,1.),(2.03,-0.03,1.)));
#607=IFCTRIANGULATEDFACESET(#606,$,$,((1,2,3),(4,5,6),(1,7,2),(4,6,8),(3,2,6),(3,6,5),(2,7,8),(2,8,6),(7,1,4),(7,4,8),(1,3,5),(1,5,4),(9,10,11),(12,13,14),(9,15,10),(12,14,16),(11,10,14),(11,14,13),(10,15,16),(10,16,14),(15,9,12),(15,12,16),(9,11,13),(9,13,12),(17,18,19),(20,21,22),(17,23,18),(20,22,24),(19,18,22),(19,22,21),(18,23,24),(18,24,22),(23,17,20),(23,20,24),(17,19,21),(17,21,20),(25,26,27),(28,29,30),(25,31,26),(28,30,32),(27,26,30),(27,30,29),(26,31,32),(26,32,30),(31,25,28),(31,28,32),(25,27,29),(25,29,28),(33,34,35),(36,37,38),(33,39,34),(36,38,40),(35,34,38),(35,38,37),(34,39,40),(34,40,38),(39,33,36),(39,36,40),(33,35,37),(33,37,36),(41,42,43),(44,45,46),(41,47,42),(44,46,48),(43,42,49),(43,49,50),(42,47,51),(42,51,49),(47,41,52),(47,52,51),(41,43,50),(41,50,52),(50,49,46),(50,46,45),(49,51,48),(49,48,46),(51,52,44),(51,44,48),(52,50,45),(52,45,44)),$);
#608=IFCSHAPEREPRESENTATION(#5,'Body','Tessellation',(#607));
#609=IFCPRODUCTDEFINITIONSHAPE($,$,(#608));
#610=IFCLOCALPLACEMENT(#214,#2);
#611=IFCRAILING('3R08By2bCXT2w1R$LSRsXY',$,'Railing',$,$,#610,#609,'rl-1',.GUARDRAIL.);
#612=IFCLOCALPLACEMENT(#216,#2);
#613=IFCPOLYLINE((#309,#254,#253,#296,#309));
#614=IFCCARTESIANPOINT((2.,2.075));
#615=IFCCARTESIANPOINT((5.,2.075));
#616=IFCCARTESIANPOINT((5.,1.925));
#617=IFCCARTESIANPOINT((2.,1.925));
#618=IFCPOLYLINE((#614,#615,#616,#617,#614));
#619=IFCARBITRARYPROFILEDEFWITHVOIDS(.AREA.,$,#613,(#618));
#620=IFCEXTRUDEDAREASOLID(#619,#2,#203,2.75);
#621=IFCSHAPEREPRESENTATION(#5,'Body','SweptSolid',(#620));
#622=IFCPRODUCTDEFINITIONSHAPE($,$,(#621));
#623=IFCSPACE('3Ggl5R0wAELU5t3OsFJIXC',$,'0.01','living','sp-1',#612,#622,'Living room',.ELEMENT.,.INTERNAL.,0.);
#624=IFCLOCALPLACEMENT(#214,#2);
#625=IFCCARTESIANPOINT((0.2,0.2));
#626=IFCCARTESIANPOINT((3.8,0.2));
#627=IFCCARTESIANPOINT((3.8,5.8));
#628=IFCCARTESIANPOINT((0.2,5.8));
#629=IFCPOLYLINE((#625,#626,#627,#628,#625));
#630=IFCARBITRARYCLOSEDPROFILEDEF(.AREA.,$,#629);
#631=IFCEXTRUDEDAREASOLID(#630,#2,#203,2.8);
#632=IFCSHAPEREPRESENTATION(#5,'Body','SweptSolid',(#631));
#633=IFCPRODUCTDEFINITIONSHAPE($,$,(#632));
#634=IFCSPACE('0nNHjYaCLNl4zS3nzV0DiD',$,'1.01','bedroom','sp-2',#624,#633,'Bedroom',.ELEMENT.,.INTERNAL.,3.);
#635=IFCCARTESIANPOINT((-1.,0.));
#636=IFCCARTESIANPOINT((9.,0.));
#637=IFCPOLYLINE((#635,#636));
#638=IFCGRIDAXIS('1',#637,.T.);
#639=IFCCARTESIANPOINT((0.,-1.));
#640=IFCCARTESIANPOINT((0.,9.));
#641=IFCPOLYLINE((#639,#640));
#642=IFCGRIDAXIS('A',#641,.T.);
#643=IFCCARTESIANPOINT((8.,-1.));
#644=IFCCARTESIANPOINT((8.,9.));
#645=IFCPOLYLINE((#643,#644));
#646=IFCGRIDAXIS('B',#645,.T.);
#647=IFCLOCALPLACEMENT(#206,#2);
#648=IFCGRID('2_Awmpinge$7fgamsbzpia',$,$,$,'g-a,g-b,g-1',#647,$,(#642,#646),(#638),$,$);
#649=IFCRELDECLARES('0DwAqW6G7IgyLboSQNFTSJ',$,$,$,#192,(#13));
#650=IFCRELAGGREGATES('1SUFqXqHI3ECh_a_ciX9mi',$,$,$,#192,(#201));
#651=IFCRELAGGREGATES('0JGJvUAMLsyfFtJNpd5DyB',$,$,$,#201,(#207));
#652=IFCRELAGGREGATES('2B6qxMggNn_x2bbIHcCkBe',$,$,$,#207,(#211,#215,#217,#221));
#653=IFCRELAGGREGATES('1tlFxnUlLCZWW8CFtRLzAT',$,$,$,#215,(#634));
#654=IFCRELAGGREGATES('3kw1P$KweQR_FF7wG8EDTo',$,$,$,#217,(#623));
#655=IFCRELAGGREGATES('2ydb6zIeQtsKp0FbIWHJ_M',$,$,$,#491,(#497,#503));
#656=IFCRELAGGREGATES('3RFe1wVVfoO1h5pslB4S4R',$,$,$,#571,(#577,#583));
#657=IFCRELAGGREGATES('2z3DYSPJ9niDEce1rzcb$e',$,$,$,#585,(#591));
#658=IFCRELAGGREGATES('3tg5CMm1YxFVKEL4CJvrEO',$,$,$,#593,(#599,#605));
#659=IFCRELCONTAINEDINSPATIALSTRUCTURE('3Hx_6vTWlnNVR4aSFhkbXt',$,$,$,(#279,#393,#491,#545,#555,#593,#611),#215);
#660=IFCRELCONTAINEDINSPATIALSTRUCTURE('1zQKZ4GOIl8sAvZCRtNkJ9',$,$,$,(#249,#265,#293,#306,#318,#328,#365,#437,#467,#488,#512,#520,#530,#539,#568,#585),#217);
#661=IFCRELCONTAINEDINSPATIALSTRUCTURE('2hvLlqnm0NGUr$D8zdq62l',$,$,$,(#571),#221);
#662=IFCRELCONTAINEDINSPATIALSTRUCTURE('06v2cGR$9nzfP1GPHpeYVf',$,$,$,(#648),#207);
#663=IFCRELDEFINESBYTYPE('1UcXa5$hGpeRT25OPRcIMb',$,$,$,(#249,#293),#107);
#664=IFCRELDEFINESBYTYPE('3yqXVsPwF1XcaabK4Fpivr',$,$,$,(#265,#279,#306,#318,#328),#118);
#665=IFCRELDEFINESBYTYPE('2t9trUdJuT2LWU4Ph9ctjC',$,$,$,(#545,#555,#568),#124);
#666=IFCRELDEFINESBYTYPE('1LTpHLiXysoBxGFXO$lE9E',$,$,$,(#571),#130);
#667=IFCRELDEFINESBYTYPE('39EbNfQL63p5H5Yuzl9eCi',$,$,$,(#512),#140);
#668=IFCRELDEFINESBYTYPE('07IJirkTrhEGuaOasVj9ce',$,$,$,(#520),#144);
#669=IFCRELDEFINESBYTYPE('3P6iefGcPHx0FjAFS2TN_T',$,$,$,(#530),#151);
#670=IFCRELDEFINESBYTYPE('1dYELPHSmZnik2xmkMzgL0',$,$,$,(#539),#156);
#671=IFCRELDEFINESBYTYPE('0ENzSJIx0LnocUziKcm696',$,$,$,(#437,#467,#488),#169);
#672=IFCRELDEFINESBYTYPE('0PsMjRhPNnEGYN_B4WUaM3',$,$,$,(#393),#182);
#673=IFCRELDEFINESBYTYPE('147jCY1aBkmWxdF5NxLB_E',$,$,$,(#365),#191);
#674=IFCRELASSOCIATESMATERIAL('01g63FleKnagcNNYcXGKUa',$,$,$,(#140,#156,#512,#539),#57);
#675=IFCRELASSOCIATESMATERIAL('3rhjMAojW36laWiwm9mh4F',$,$,$,(#144,#151,#497,#520,#530,#611),#69);
#676=IFCRELASSOCIATESMATERIAL('1lHGyvV3eCp5Lz8x4RJK6Q',$,$,$,(#577),#81);
#677=IFCRELASSOCIATESMATERIAL('2i0ZOgY6pFmzUjy5FDdhB3',$,$,$,(#503,#583),#93);
#678=IFCRELASSOCIATESMATERIAL('3uRZjKrBP$cxX$PYCjregx',$,$,$,(#107),#109);
#679=IFCRELASSOCIATESMATERIAL('0eevm2Ma$SodXn6H9e44K2',$,$,$,(#118),#121);
#680=IFCRELASSOCIATESMATERIAL('2x_3KallgTJQ118a8_4ZHf',$,$,$,(#124),#127);
#681=IFCRELASSOCIATESMATERIAL('1U_QfVBzv2l$IgXD0dUdqo',$,$,$,(#130),#133);
#682=IFCRELASSOCIATESMATERIAL('01bsjsxPlHsc6p4ZRYLGp9',$,$,$,(#249),#250);
#683=IFCRELASSOCIATESMATERIAL('39C36ZYp0zKN1OkiZd_G5u',$,$,$,(#265),#266);
#684=IFCRELASSOCIATESMATERIAL('2VkfNVX7CCjLx3u1SOBkII',$,$,$,(#279),#280);
#685=IFCRELASSOCIATESMATERIAL('2S0h$MFjGhY6S6fP0BAPIE',$,$,$,(#293),#294);
#686=IFCRELASSOCIATESMATERIAL('1JNSaZ5o3_6PODsgHS3vVy',$,$,$,(#306),#307);
#687=IFCRELASSOCIATESMATERIAL('057yaiAsYFXBYi3SaBnMuK',$,$,$,(#318),#319);
#688=IFCRELASSOCIATESMATERIAL('2C3vyvtC8vuOfaLYaMgpY0',$,$,$,(#328),#329);
#689=IFCRELASSOCIATESMATERIAL('39KPucZ3R11fpGBY2oRorQ',$,$,$,(#545),#546);
#690=IFCRELASSOCIATESMATERIAL('0vmoTKsXpFebCHB4QsWw5u',$,$,$,(#555),#556);
#691=IFCRELASSOCIATESMATERIAL('14lXJ659awGP5gQhnj6qPF',$,$,$,(#568),#569);
#692=IFCQUANTITYLENGTH('GrossHeight',$,$,2.6,$);
#693=IFCQUANTITYLENGTH('NetHeight',$,$,2.6,$);
#694=IFCELEMENTQUANTITY('1ROLEvgoSO7DsBuFBKbB6a',$,'Qto_BuildingStoreyBaseQuantities',$,$,(#692,#693));
#695=IFCRELDEFINESBYPROPERTIES('1H3PRH1OiJ4WdkBaGgNBCK',$,$,$,(#211),#694);
#696=IFCQUANTITYLENGTH('GrossHeight',$,$,2.8,$);
#697=IFCQUANTITYLENGTH('NetHeight',$,$,2.8,$);
#698=IFCELEMENTQUANTITY('3PUoT4Z8a9VKH2FftDxXFK',$,'Qto_BuildingStoreyBaseQuantities',$,$,(#696,#697));
#699=IFCRELDEFINESBYPROPERTIES('2WUcdTO0YFrvQYTUFGu3pR',$,$,$,(#215),#698);
#700=IFCQUANTITYLENGTH('GrossHeight',$,$,3.,$);
#701=IFCQUANTITYLENGTH('NetHeight',$,$,3.,$);
#702=IFCELEMENTQUANTITY('1TIsJXOkbZTnRmcCp_PvK4',$,'Qto_BuildingStoreyBaseQuantities',$,$,(#700,#701));
#703=IFCRELDEFINESBYPROPERTIES('3c9sPnhWHG1rVHbG8Atrgv',$,$,$,(#217),#702);
#704=IFCQUANTITYLENGTH('GrossHeight',$,$,0.5,$);
#705=IFCQUANTITYLENGTH('NetHeight',$,$,0.5,$);
#706=IFCELEMENTQUANTITY('0vTNBvcd8drhoVxbu$V4Dq',$,'Qto_BuildingStoreyBaseQuantities',$,$,(#704,#705));
#707=IFCRELDEFINESBYPROPERTIES('0GrF8P1pbdCwzRBeS0TjKL',$,$,$,(#221),#706);
#708=IFCQUANTITYLENGTH('Length',$,$,4.413873975,$);
#709=IFCQUANTITYLENGTH('Width',$,$,0.15,$);
#710=IFCQUANTITYLENGTH('Height',$,$,3.,$);
#711=IFCQUANTITYAREA('GrossFootprintArea',$,$,0.662081096,$);
#712=IFCQUANTITYAREA('GrossSideArea',$,$,13.241621924,$);
#713=IFCQUANTITYAREA('NetSideArea',$,$,11.801621924,$);
#714=IFCQUANTITYVOLUME('GrossVolume',$,$,1.986243289,$);
#715=IFCQUANTITYVOLUME('NetVolume',$,$,1.770243289,$);
#716=IFCELEMENTQUANTITY('2EgEZzUxLi17o11teLGPpu',$,'Qto_WallBaseQuantities',$,$,(#708,#709,#710,#711,#712,#713,#714,#715));
#717=IFCRELDEFINESBYPROPERTIES('0$lHkc25yetwDa7pe0$Gqj',$,$,$,(#249),#716);
#718=IFCQUANTITYLENGTH('Length',$,$,6.,$);
#719=IFCQUANTITYLENGTH('Width',$,$,0.3,$);
#720=IFCQUANTITYLENGTH('Height',$,$,3.,$);
#721=IFCQUANTITYAREA('GrossFootprintArea',$,$,1.8,$);
#722=IFCQUANTITYAREA('GrossSideArea',$,$,18.,$);
#723=IFCQUANTITYAREA('NetSideArea',$,$,17.52,$);
#724=IFCQUANTITYVOLUME('GrossVolume',$,$,5.4,$);
#725=IFCQUANTITYVOLUME('NetVolume',$,$,5.256,$);
#726=IFCELEMENTQUANTITY('25aYGZvyJYF1vBgCPXoZmf',$,'Qto_WallBaseQuantities',$,$,(#718,#719,#720,#721,#722,#723,#724,#725));
#727=IFCRELDEFINESBYPROPERTIES('10JoAQD0jqnLKLdkZBzb4o',$,$,$,(#265),#726);
#728=IFCQUANTITYLENGTH('Length',$,$,8.,$);
#729=IFCQUANTITYLENGTH('Width',$,$,0.3,$);
#730=IFCQUANTITYLENGTH('Height',$,$,2.8,$);
#731=IFCQUANTITYAREA('GrossFootprintArea',$,$,2.4,$);
#732=IFCQUANTITYAREA('GrossSideArea',$,$,22.4,$);
#733=IFCQUANTITYAREA('NetSideArea',$,$,18.62,$);
#734=IFCQUANTITYVOLUME('GrossVolume',$,$,6.72,$);
#735=IFCQUANTITYVOLUME('NetVolume',$,$,5.586,$);
#736=IFCELEMENTQUANTITY('3ydZIULeRA2DRl6HsaaGou',$,'Qto_WallBaseQuantities',$,$,(#728,#729,#730,#731,#732,#733,#734,#735));
#737=IFCRELDEFINESBYPROPERTIES('2XQi0xjF5y3IfhYhbNmosl',$,$,$,(#279),#736);
#738=IFCQUANTITYLENGTH('Length',$,$,3.,$);
#739=IFCQUANTITYLENGTH('Width',$,$,0.15,$);
#740=IFCQUANTITYLENGTH('Height',$,$,2.4,$);
#741=IFCQUANTITYAREA('GrossFootprintArea',$,$,0.45,$);
#742=IFCQUANTITYAREA('GrossSideArea',$,$,7.2,$);
#743=IFCQUANTITYAREA('NetSideArea',$,$,7.2,$);
#744=IFCQUANTITYVOLUME('GrossVolume',$,$,1.08,$);
#745=IFCQUANTITYVOLUME('NetVolume',$,$,1.08,$);
#746=IFCELEMENTQUANTITY('3pXE16BU4SMxszjrwX6a4X',$,'Qto_WallBaseQuantities',$,$,(#738,#739,#740,#741,#742,#743,#744,#745));
#747=IFCRELDEFINESBYPROPERTIES('14$4DfCi3hqkiKZ3be$tYf',$,$,$,(#293),#746);
#748=IFCQUANTITYLENGTH('Length',$,$,8.,$);
#749=IFCQUANTITYLENGTH('Width',$,$,0.3,$);
#750=IFCQUANTITYLENGTH('Height',$,$,3.,$);
#751=IFCQUANTITYAREA('GrossFootprintArea',$,$,2.4,$);
#752=IFCQUANTITYAREA('GrossSideArea',$,$,24.,$);
#753=IFCQUANTITYAREA('NetSideArea',$,$,22.8,$);
#754=IFCQUANTITYVOLUME('GrossVolume',$,$,7.2,$);
#755=IFCQUANTITYVOLUME('NetVolume',$,$,6.84,$);
#756=IFCELEMENTQUANTITY('0$vP4eLHLujH4LGqC8gXLY',$,'Qto_WallBaseQuantities',$,$,(#748,#749,#750,#751,#752,#753,#754,#755));
#757=IFCRELDEFINESBYPROPERTIES('3OIpEnm96avXALSLW_537u',$,$,$,(#306),#756);
#758=IFCQUANTITYLENGTH('Length',$,$,8.,$);
#759=IFCQUANTITYLENGTH('Width',$,$,0.3,$);
#760=IFCQUANTITYLENGTH('Height',$,$,3.,$);
#761=IFCQUANTITYAREA('GrossFootprintArea',$,$,2.4,$);
#762=IFCQUANTITYAREA('GrossSideArea',$,$,24.,$);
#763=IFCQUANTITYAREA('NetSideArea',$,$,20.67,$);
#764=IFCQUANTITYVOLUME('GrossVolume',$,$,7.2,$);
#765=IFCQUANTITYVOLUME('NetVolume',$,$,6.201,$);
#766=IFCELEMENTQUANTITY('0S5rDTxo8B9zpX1$1S1sm8',$,'Qto_WallBaseQuantities',$,$,(#758,#759,#760,#761,#762,#763,#764,#765));
#767=IFCRELDEFINESBYPROPERTIES('3$kEyJgeYZnOXg5AddMmWd',$,$,$,(#318),#766);
#768=IFCQUANTITYLENGTH('Length',$,$,6.,$);
#769=IFCQUANTITYLENGTH('Width',$,$,0.3,$);
#770=IFCQUANTITYLENGTH('Height',$,$,3.,$);
#771=IFCQUANTITYAREA('GrossFootprintArea',$,$,1.8,$);
#772=IFCQUANTITYAREA('GrossSideArea',$,$,18.,$);
#773=IFCQUANTITYAREA('NetSideArea',$,$,18.,$);
#774=IFCQUANTITYVOLUME('GrossVolume',$,$,5.4,$);
#775=IFCQUANTITYVOLUME('NetVolume',$,$,5.4,$);
#776=IFCELEMENTQUANTITY('16MCIkpT4I7d4zX2KSVuXB',$,'Qto_WallBaseQuantities',$,$,(#768,#769,#770,#771,#772,#773,#774,#775));
#777=IFCRELDEFINESBYPROPERTIES('3VT6wAfTAdnvOZbCzZ56_o',$,$,$,(#328),#776);
#778=IFCQUANTITYLENGTH('Height',$,$,2.1,$);
#779=IFCQUANTITYLENGTH('Width',$,$,0.9,$);
#780=IFCQUANTITYAREA('Area',$,$,1.89,$);
#781=IFCELEMENTQUANTITY('0V2p2AOTASn8XQhV6mfTQn',$,'Qto_DoorBaseQuantities',$,$,(#778,#779,#780));
#782=IFCRELDEFINESBYPROPERTIES('0PyPm4CDjs1b2rFZXfJQ84',$,$,$,(#365),#781);
#783=IFCQUANTITYLENGTH('Height',$,$,2.1,$);
#784=IFCQUANTITYLENGTH('Width',$,$,1.8,$);
#785=IFCQUANTITYAREA('Area',$,$,3.78,$);
#786=IFCELEMENTQUANTITY('363eDRzQ$R21FzxYF18pvp',$,'Qto_DoorBaseQuantities',$,$,(#783,#784,#785));
#787=IFCRELDEFINESBYPROPERTIES('2Wk4g7r2adpMomt5vADFH$',$,$,$,(#393),#786);
#788=IFCQUANTITYLENGTH('Height',$,$,1.2,$);
#789=IFCQUANTITYLENGTH('Width',$,$,1.2,$);
#790=IFCQUANTITYAREA('Area',$,$,1.44,$);
#791=IFCELEMENTQUANTITY('074ergUUOxChqhv_a8l6PO',$,'Qto_WindowBaseQuantities',$,$,(#788,#789,#790));
#792=IFCRELDEFINESBYPROPERTIES('1cUqK04KEdX1Vd8i8mjBoe',$,$,$,(#437),#791);
#793=IFCQUANTITYLENGTH('Height',$,$,1.2,$);
#794=IFCQUANTITYLENGTH('Width',$,$,1.,$);
#795=IFCQUANTITYAREA('Area',$,$,1.2,$);
#796=IFCELEMENTQUANTITY('2P4p9eQIyBdrKBu40BkI4Y',$,'Qto_WindowBaseQuantities',$,$,(#793,#794,#795));
#797=IFCRELDEFINESBYPROPERTIES('2UG66gAaqaDJV7jSoW_zHi',$,$,$,(#467),#796);
#798=IFCQUANTITYLENGTH('Height',$,$,1.2,$);
#799=IFCQUANTITYLENGTH('Width',$,$,1.2,$);
#800=IFCQUANTITYAREA('Area',$,$,1.44,$);
#801=IFCELEMENTQUANTITY('1YBSuH5Hh3xKMZLhHXTuc0',$,'Qto_WindowBaseQuantities',$,$,(#798,#799,#800));
#802=IFCRELDEFINESBYPROPERTIES('0x_HcPynjLNPKUfgK4pIKr',$,$,$,(#488),#801);
#803=IFCQUANTITYLENGTH('Length',$,$,6.,$);
#804=IFCQUANTITYLENGTH('Height',$,$,2.8,$);
#805=IFCQUANTITYAREA('GrossSideArea',$,$,16.8,$);
#806=IFCELEMENTQUANTITY('1F1iTtbU6WRjymVH2N2bK1',$,'Qto_CurtainWallQuantities',$,$,(#803,#804,#805));
#807=IFCRELDEFINESBYPROPERTIES('2pqFQ_Ff0wrPCHqrel_XMh',$,$,$,(#491),#806);
#808=IFCQUANTITYLENGTH('Length',$,$,3.,$);
#809=IFCQUANTITYAREA('CrossSectionArea',$,$,0.09,$);
#810=IFCQUANTITYVOLUME('GrossVolume',$,$,0.27,$);
#811=IFCQUANTITYVOLUME('NetVolume',$,$,0.27,$);
#812=IFCELEMENTQUANTITY('1dQc0WALYq73DWI$kvc9Wz',$,'Qto_ColumnBaseQuantities',$,$,(#808,#809,#810,#811));
#813=IFCRELDEFINESBYPROPERTIES('35Go$7QlVn0DRPERrE1d0f',$,$,$,(#512),#812);
#814=IFCQUANTITYLENGTH('Length',$,$,2.5,$);
#815=IFCQUANTITYAREA('CrossSectionArea',$,$,0.125663706,$);
#816=IFCQUANTITYVOLUME('GrossVolume',$,$,0.314159265,$);
#817=IFCQUANTITYVOLUME('NetVolume',$,$,0.314159265,$);
#818=IFCELEMENTQUANTITY('2E2SS1hBzPqTIcTt0zzqv3',$,'Qto_ColumnBaseQuantities',$,$,(#814,#815,#816,#817));
#819=IFCRELDEFINESBYPROPERTIES('3ZKUK9RTzvw59jf6EORTKJ',$,$,$,(#520),#818);
#820=IFCQUANTITYLENGTH('Length',$,$,2.,$);
#821=IFCQUANTITYAREA('CrossSectionArea',$,$,0.00518806,$);
#822=IFCQUANTITYVOLUME('GrossVolume',$,$,0.01037612,$);
#823=IFCQUANTITYVOLUME('NetVolume',$,$,0.009561528,$);
#824=IFCELEMENTQUANTITY('3fEWDyYjID1c9awRC7El$D',$,'Qto_BeamBaseQuantities',$,$,(#820,#821,#822,#823));
#825=IFCRELDEFINESBYPROPERTIES('2xWChhEcnwhst4hFbG8M7l',$,$,$,(#530),#824);
#826=IFCQUANTITYLENGTH('Length',$,$,4.,$);
#827=IFCQUANTITYAREA('CrossSectionArea',$,$,0.1,$);
#828=IFCQUANTITYVOLUME('GrossVolume',$,$,0.4,$);
#829=IFCQUANTITYVOLUME('NetVolume',$,$,0.384298726,$);
#830=IFCELEMENTQUANTITY('3kTVXqLd5jzZb5R8JA$A_l',$,'Qto_BeamBaseQuantities',$,$,(#826,#827,#828,#829));
#831=IFCRELDEFINESBYPROPERTIES('2Iw4h_Kk8sFiUec3I6IhT$',$,$,$,(#539),#830);
#832=IFCQUANTITYLENGTH('Width',$,$,0.25,$);
#833=IFCQUANTITYLENGTH('Perimeter',$,$,8.,$);
#834=IFCQUANTITYAREA('GrossArea',$,$,4.,$);
#835=IFCQUANTITYAREA('NetArea',$,$,4.,$);
#836=IFCQUANTITYVOLUME('GrossVolume',$,$,1.,$);
#837=IFCQUANTITYVOLUME('NetVolume',$,$,1.,$);
#838=IFCELEMENTQUANTITY('0$44BcgR2WY5N$beMGsEe7',$,'Qto_SlabBaseQuantities',$,$,(#832,#833,#834,#835,#836,#837));
#839=IFCRELDEFINESBYPROPERTIES('0oqQHcAV9sFQ6V3L0mDK2a',$,$,$,(#545),#838);
#840=IFCQUANTITYLENGTH('Width',$,$,0.25,$);
#841=IFCQUANTITYLENGTH('Perimeter',$,$,28.,$);
#842=IFCQUANTITYAREA('GrossArea',$,$,48.,$);
#843=IFCQUANTITYAREA('NetArea',$,$,48.,$);
#844=IFCQUANTITYVOLUME('GrossVolume',$,$,12.,$);
#845=IFCQUANTITYVOLUME('NetVolume',$,$,12.,$);
#846=IFCELEMENTQUANTITY('2SG7DS8Q44UlAriDdkDEY2',$,'Qto_SlabBaseQuantities',$,$,(#840,#841,#842,#843,#844,#845));
#847=IFCRELDEFINESBYPROPERTIES('2GH6vM88uVNGllhE4n_2zx',$,$,$,(#555),#846);
#848=IFCQUANTITYLENGTH('Width',$,$,0.25,$);
#849=IFCQUANTITYLENGTH('Perimeter',$,$,32.,$);
#850=IFCQUANTITYAREA('GrossArea',$,$,48.,$);
#851=IFCQUANTITYAREA('NetArea',$,$,47.,$);
#852=IFCQUANTITYVOLUME('GrossVolume',$,$,12.,$);
#853=IFCQUANTITYVOLUME('NetVolume',$,$,11.75,$);
#854=IFCELEMENTQUANTITY('3d5ml4kFYPMpeedgnTza9R',$,'Qto_SlabBaseQuantities',$,$,(#848,#849,#850,#851,#852,#853));
#855=IFCRELDEFINESBYPROPERTIES('3K81BE$M4PtWE8X4ADczrZ',$,$,$,(#568),#854);
#856=IFCQUANTITYAREA('ProjectedArea',$,$,56.76,$);
#857=IFCELEMENTQUANTITY('2HjBkT9XEGitvEeUc4PMO8',$,'Qto_RoofBaseQuantities',$,$,(#856));
#858=IFCRELDEFINESBYPROPERTIES('3BIX8mg0Am9KU4vISQCh0k',$,$,$,(#571),#857);
#859=IFCQUANTITYVOLUME('GrossVolume',$,$,2.270399995,$);
#860=IFCELEMENTQUANTITY('3i$f6nM80rP0zE0tsISVW8',$,'Qto_SlabBaseQuantities',$,$,(#859));
#861=IFCRELDEFINESBYPROPERTIES('0fEAiiOEvPfKE7VELyYAMC',$,$,$,(#577),#860);
#862=IFCQUANTITYVOLUME('GrossVolume',$,$,11.351999976,$);
#863=IFCELEMENTQUANTITY('3zJ23dQYAF8N2EutYEaQJR',$,'Qto_SlabBaseQuantities',$,$,(#862));
#864=IFCRELDEFINESBYPROPERTIES('3B13xUN6l3yVijBseWD25I',$,$,$,(#583),#863);
#865=IFCQUANTITYLENGTH('Length',$,$,4.32,$);
#866=IFCQUANTITYLENGTH('Width',$,$,1.,$);
#867=IFCELEMENTQUANTITY('3GJS9la4K14LJvhiM_1mFs',$,'Qto_StairFlightBaseQuantities',$,$,(#865,#866));
#868=IFCRELDEFINESBYPROPERTIES('1XmxHyPb1_QD$WuKG7pTJA',$,$,$,(#591),#867);
#869=IFCQUANTITYLENGTH('Length',$,$,1.89,$);
#870=IFCQUANTITYLENGTH('Width',$,$,1.,$);
#871=IFCELEMENTQUANTITY('0Eo7AY1qO7M0ayfdnzhOAN',$,'Qto_StairFlightBaseQuantities',$,$,(#869,#870));
#872=IFCRELDEFINESBYPROPERTIES('1wLEj2ob8NipWiKyRPF5mf',$,$,$,(#599),#871);
#873=IFCQUANTITYLENGTH('Length',$,$,1.89,$);
#874=IFCQUANTITYLENGTH('Width',$,$,1.,$);
#875=IFCELEMENTQUANTITY('2a6HVmmNRPY5guTeGULpZq',$,'Qto_StairFlightBaseQuantities',$,$,(#873,#874));
#876=IFCRELDEFINESBYPROPERTIES('3k_2uEcdGOGfMAcAaaBF1s',$,$,$,(#605),#875);
#877=IFCQUANTITYLENGTH('Length',$,$,4.,$);
#878=IFCQUANTITYLENGTH('Height',$,$,1.,$);
#879=IFCELEMENTQUANTITY('2boJogP2H42ZDINKcq8JAG',$,'Qto_RailingBaseQuantities',$,$,(#877,#878));
#880=IFCRELDEFINESBYPROPERTIES('3uBx2qR2Sb7$35_S4ouL9q',$,$,$,(#611),#879);
#881=IFCQUANTITYLENGTH('Height',$,$,2.75,$);
#882=IFCQUANTITYAREA('GrossFloorArea',$,$,43.44,$);
#883=IFCQUANTITYAREA('NetFloorArea',$,$,43.224337131,$);
#884=IFCQUANTITYVOLUME('GrossVolume',$,$,119.46,$);
#885=IFCQUANTITYLENGTH('GrossPerimeter',$,$,33.1,$);
#886=IFCQUANTITYAREA('GrossWallArea',$,$,91.025,$);
#887=IFCQUANTITYAREA('NetWallArea',$,$,86.015,$);
#888=IFCQUANTITYAREA('NetCeilingArea',$,$,43.224337131,$);
#889=IFCELEMENTQUANTITY('1RyMBciyzrkiruKBcl8A0q',$,'Qto_SpaceBaseQuantities',$,$,(#881,#882,#883,#884,#885,#886,#887,#888));
#890=IFCRELDEFINESBYPROPERTIES('3oGBLhgfizdwlwSgc3pGVM',$,$,$,(#623),#889);
#891=IFCQUANTITYLENGTH('Height',$,$,2.8,$);
#892=IFCQUANTITYAREA('GrossFloorArea',$,$,20.16,$);
#893=IFCQUANTITYAREA('NetFloorArea',$,$,20.16,$);
#894=IFCQUANTITYVOLUME('GrossVolume',$,$,56.448,$);
#895=IFCQUANTITYLENGTH('GrossPerimeter',$,$,18.4,$);
#896=IFCQUANTITYAREA('GrossWallArea',$,$,51.52,$);
#897=IFCQUANTITYAREA('NetWallArea',$,$,51.52,$);
#898=IFCQUANTITYAREA('NetCeilingArea',$,$,20.16,$);
#899=IFCELEMENTQUANTITY('1DAXwhKZ8OrpqwsqtBUTcP',$,'Qto_SpaceBaseQuantities',$,$,(#891,#892,#893,#894,#895,#896,#897,#898));
#900=IFCRELDEFINESBYPROPERTIES('3lsBUr2ZxTaw0szRnXVOtx',$,$,$,(#634),#899);
#901=IFCPROPERTYSINGLEVALUE('Level',$,IFCINTEGER(-1),$);
#902=IFCPROPERTYSET('14PbiyMgJAUmaNlKMOM8Xz',$,'Semio_Authoring',$,(#901));
#903=IFCRELDEFINESBYPROPERTIES('0g_lvlb_jgSWikvStEYL1f',$,$,$,(#211),#902);
#904=IFCPROPERTYSINGLEVALUE('Level',$,IFCINTEGER(1),$);
#905=IFCPROPERTYSET('0CGX8kaKldxkXCffTHO2T3',$,'Semio_Authoring',$,(#904));
#906=IFCRELDEFINESBYPROPERTIES('2TssvSCuuiGePHzXPgAt35',$,$,$,(#215),#905);
#907=IFCPROPERTYSINGLEVALUE('Level',$,IFCINTEGER(0),$);
#908=IFCPROPERTYSET('3DtumdShRC9E5XQDNCh0LX',$,'Semio_Authoring',$,(#907));
#909=IFCRELDEFINESBYPROPERTIES('1m$vt6PjoZUSZ5G_xvh0HI',$,$,$,(#217),#908);
#910=IFCPROPERTYSINGLEVALUE('Level',$,IFCINTEGER(2),$);
#911=IFCPROPERTYSET('3LgOIr4MUpYYMIZmLXxbn9',$,'Semio_Authoring',$,(#910));
#912=IFCRELDEFINESBYPROPERTIES('2I5CrOUhOlJJmwgO1P0f7w',$,$,$,(#221),#911);
#913=IFCPROPERTYSINGLEVALUE('Phase',$,IFCLABEL('Demolished'),$);
#914=IFCPROPERTYSET('3LGpqk7pO3BeJaBlK6xvgS',$,'Semio_Authoring',$,(#913));
#915=IFCRELDEFINESBYPROPERTIES('2vqmUFxmbTyxFfq6RRX_K2',$,$,$,(#279),#914);
#916=IFCPROPERTYSINGLEVALUE('Phase',$,IFCLABEL('Existing'),$);
#917=IFCPROPERTYSET('1_QxGAgW6mlAqogyIX$A5O',$,'Semio_Authoring',$,(#916));
#918=IFCRELDEFINESBYPROPERTIES('0ui8dYWRnhU0GXkKxfoso_',$,$,$,(#293),#917);
#919=IFCPROPERTYSINGLEVALUE('FlipHand',$,IFCLABEL('true'),$);
#920=IFCPROPERTYSET('3a_Kb9o$Rggbzqez6PUt9p',$,'Semio_Authoring',$,(#919));
#921=IFCRELDEFINESBYPROPERTIES('2_W9kKoV8DQczO6WDOnAIb',$,$,$,(#365),#920);
#922=IFCPROPERTYSINGLEVALUE('Phase',$,IFCLABEL('Demolished'),$);
#923=IFCPROPERTYSET('2O6NqsDSf$3yi229Qup4xf',$,'Semio_Authoring',$,(#922));
#924=IFCRELDEFINESBYPROPERTIES('1C17LqIZl8nqBTZ9LUTZUY',$,$,$,(#393),#923);
#925=IFCPROPERTYSINGLEVALUE('Phase',$,IFCLABEL('Demolished'),$);
#926=IFCPROPERTYSINGLEVALUE('CurtainWall',$,IFCLABEL('{"storey":"st-first","curtain_wall_type":"cwt-1","axis":{"Line":{"start":{"x":0.0,"y":6.0},"end":{"x":6.0,"y":6.0}}},"base_offset":0.0,"top":{"StoreyTop":{"offset":0.0}},"phase":"Demolished","name":"Facade"}'),$);
#927=IFCPROPERTYSINGLEVALUE('CurtainWallTypeId',$,IFCLABEL('cwt-1'),$);
#928=IFCPROPERTYSINGLEVALUE('CurtainWallType',$,IFCLABEL('{"name":"Curtain wall 1.5 x 1.4","u_grid":{"Spacing":{"spacing":1.5}},"v_grid":{"Spacing":{"spacing":1.4}},"interior_mullion":{"Rectangle":{"width":0.05,"depth":0.1}},"border_mullion":{"Rectangle":{"width":0.05,"depth":0.1}},"panel":"Glass","panel_material":"m-wool","mullion_material":"m-steel"}'),$);
#929=IFCPROPERTYSET('1iGBHeeSe6CCHwCCC7AzLU',$,'Semio_Authoring',$,(#925,#926,#927,#928));
#930=IFCRELDEFINESBYPROPERTIES('3tfrMSlOHwghw3pj7ez424',$,$,$,(#491),#929);
#931=IFCPROPERTYSINGLEVALUE('Phase',$,IFCLABEL('Temporary'),$);
#932=IFCPROPERTYSET('32z8HRTQlcAxQoU808eKh8',$,'Semio_Authoring',$,(#931));
#933=IFCRELDEFINESBYPROPERTIES('0$IbPwB8XP5ZSQQXK2E7Nu',$,$,$,(#520),#932);
#934=IFCPROPERTYSINGLEVALUE('Beam',$,IFCLABEL('{"storey":"st-ground","beam_type":"bt-i","axis":{"Line":{"start":{"x":4.0,"y":3.0},"end":{"x":6.0,"y":3.0}}},"top_offset":0.0,"phase":"New","name":"B1"}'),$);
#935=IFCPROPERTYSET('17EFRmvheKOjonsOdK98yL',$,'Semio_Authoring',$,(#934));
#936=IFCRELDEFINESBYPROPERTIES('2OeAYTrcv2209kBM3lRn5j',$,$,$,(#530),#935);
#937=IFCPROPERTYSINGLEVALUE('Phase',$,IFCLABEL('Demolished'),$);
#938=IFCPROPERTYSINGLEVALUE('Beam',$,IFCLABEL('{"storey":"st-ground","beam_type":"bt-rect","axis":{"Line":{"start":{"x":0.0,"y":3.0},"end":{"x":4.0,"y":3.0}}},"top_offset":-0.1,"phase":"Demolished","name":"B2"}'),$);
#939=IFCPROPERTYSET('0uwyl7_rBjMzYKIdi2dYod',$,'Semio_Authoring',$,(#937,#938));
#940=IFCRELDEFINESBYPROPERTIES('3fgEZlatgOiNVwaJ1gnBKk',$,$,$,(#539),#939);
#941=IFCPROPERTYSINGLEVALUE('Phase',$,IFCLABEL('Existing'),$);
#942=IFCPROPERTYSINGLEVALUE('Slab',$,IFCLABEL('{"storey":"st-first","slab_type":"st-floor","boundary":[{"point":{"x":8.0,"y":0.0},"bulge":0.0},{"point":{"x":10.0,"y":0.0},"bulge":0.0},{"point":{"x":10.0,"y":2.0},"bulge":0.0},{"point":{"x":8.0,"y":2.0},"bulge":0.0}],"holes":[],"offset":0.0,"slope":{"direction":0.0,"angle":0.05},"phase":"Existing","name":"Balcony"}'),$);
#943=IFCPROPERTYSET('09IpZqBkxTIEuUSvFbcBBY',$,'Semio_Authoring',$,(#941,#942));
#944=IFCRELDEFINESBYPROPERTIES('0poipdt9CYf36OtFACOfRL',$,$,$,(#545),#943);
#945=IFCPROPERTYSINGLEVALUE('Roof',$,IFCLABEL('{"storey":"st-roof","roof_type":"rt-tile","footprint":[{"point":{"x":0.0,"y":0.0},"bulge":0.0},{"point":{"x":8.0,"y":0.0},"bulge":0.0},{"point":{"x":8.0,"y":6.0},"bulge":0.0},{"point":{"x":0.0,"y":6.0},"bulge":0.0}],"shape":{"Gable":{"pitch":0.5,"ridge_direction":0.0}},"overhang":0.3,"base_offset":0.0,"phase":"New","name":"Roof"}'),$);
#946=IFCPROPERTYSET('2ai4qWGXd8EmoMuxFqT9jg',$,'Semio_Authoring',$,(#945));
#947=IFCRELDEFINESBYPROPERTIES('1Sek9iFd9yVf$udnGEPGcN',$,$,$,(#571),#946);
#948=IFCPROPERTYSINGLEVALUE('Stair',$,IFCLABEL('{"storey":"st-ground","start":{"x":1.0,"y":1.0},"direction":0.0,"width":1.0,"flight":"Straight","top":{"StoreyTop":{"offset":0.0}},"max_riser":0.18,"min_tread":0.27,"stringer":{"kind":"None","width":0.05,"depth":0.25},"nosing":0.0,"tread_thickness":0.04,"riser":"Closed","landing_depth":1.0,"phase":"New","name":"Stair 1"}'),$);
#949=IFCPROPERTYSET('0P5MN1L_XUxRfxoD7Qbbc7',$,'Semio_Authoring',$,(#948));
#950=IFCRELDEFINESBYPROPERTIES('3_p49Rh5nuSWLa18QtNNta',$,$,$,(#585),#949);
#951=IFCPROPERTYSINGLEVALUE('Phase',$,IFCLABEL('Demolished'),$);
#952=IFCPROPERTYSINGLEVALUE('Stair',$,IFCLABEL('{"storey":"st-first","start":{"x":1.0,"y":4.0},"direction":0.0,"width":1.0,"flight":{"LTurn":{"split":0.5,"turn":"Left"}},"top":{"StoreyTop":{"offset":0.0}},"max_riser":0.18,"min_tread":0.27,"stringer":{"kind":"None","width":0.05,"depth":0.25},"nosing":0.0,"tread_thickness":0.04,"riser":"Closed","landing_depth":1.0,"phase":"Demolished","name":"Stair 2"}'),$);
#953=IFCPROPERTYSET('1mBMjoZFYNDMBxWA464zlm',$,'Semio_Authoring',$,(#951,#952));
#954=IFCRELDEFINESBYPROPERTIES('32bZkR_JH8OW1xvmYAFrkB',$,$,$,(#593),#953);
#955=IFCPROPERTYSINGLEVALUE('Phase',$,IFCLABEL('Temporary'),$);
#956=IFCPROPERTYSINGLEVALUE('Railing',$,IFCLABEL('{"storey":"st-first","path":[{"x":0.0,"y":0.0},{"x":2.0,"y":0.0},{"x":2.0,"y":2.0}],"height":1.0,"post_spacing":1.0,"profile":{"Rectangle":{"width":0.06,"depth":0.04}},"post_profile":{"Rectangle":{"width":0.05,"depth":0.05}},"infill":"None","material":"m-steel","base_offset":0.0,"phase":"Temporary","name":"Railing"}'),$);
#957=IFCPROPERTYSET('2t$pCEpIz9lEAOCQSsJ$5U',$,'Semio_Authoring',$,(#955,#956));
#958=IFCRELDEFINESBYPROPERTIES('2n9yAHlShMTV3m_d_Vh97E',$,$,$,(#611),#957);
#959=IFCPROPERTYSINGLEVALUE('Boundary',$,IFCLABEL('{"Bounded":{"seed":{"x":6.8,"y":5.0}}}'),$);
#960=IFCPROPERTYSET('00f1_4u3hMvlOBWunBD7$j',$,'Semio_Authoring',$,(#959));
#961=IFCRELDEFINESBYPROPERTIES('0hHYsCCTVAb9IKBWop9Zef',$,$,$,(#623),#960);
#962=IFCPROPERTYSINGLEVALUE('Phase',$,IFCLABEL('Existing'),$);
#963=IFCPROPERTYSET('2Uh8dcdWQqZv97b$ar2HVk',$,'Semio_Authoring',$,(#962));
#964=IFCRELDEFINESBYPROPERTIES('0nc4Y5nVzTl9Xm0ddf7Dla',$,$,$,(#634),#963);
#965=IFCPROPERTYSINGLEVALUE('Count',$,IFCINTEGER(4),$);
#966=IFCPROPERTYSINGLEVALUE('Footprint',$,IFCAREAMEASURE(0.09),$);
#967=IFCPROPERTYSINGLEVALUE('Span',$,IFCLENGTHMEASURE(3.),$);
#968=IFCPROPERTYSINGLEVALUE('Tilt',$,IFCPLANEANGLEMEASURE(0.1),$);
#969=IFCPROPERTYSINGLEVALUE('Volume',$,IFCVOLUMEMEASURE(0.27),$);
#970=IFCPROPERTYSET('0Fd_XHkq20mkwhK9G7YbhY',$,'Custom',$,(#965,#966,#967,#968,#969));
#971=IFCRELDEFINESBYPROPERTIES('3TaEAiY50LVUaZa7JYZCcU',$,$,$,(#512),#970);
#972=IFCPROPERTYSINGLEVALUE('LoadBearing',$,IFCBOOLEAN(.T.),$);
#973=IFCPROPERTYSINGLEVALUE('Reference',$,IFCLABEL('C-01'),$);
#974=IFCPROPERTYSET('3p9dyxrshQgwGh7sPahY7N',$,'Pset_ColumnCommon',$,(#972,#973));
#975=IFCRELDEFINESBYPROPERTIES('0ZegxE2khe_gEWhXPemDvx',$,$,$,(#512),#974);
#976=IFCPROPERTYSINGLEVALUE('FireRating',$,IFCLABEL('EI60'),$);
#977=IFCPROPERTYSINGLEVALUE('IsExternal',$,IFCBOOLEAN(.T.),$);
#978=IFCPROPERTYSINGLEVALUE('ThermalTransmittance',$,IFCREAL(0.25),$);
#979=IFCPROPERTYSET('0kVARBe3Bcy9h5Vj7Jf_y$',$,'Pset_WallCommon',$,(#976,#977,#978));
#980=IFCRELDEFINESBYPROPERTIES('1SR3Z0_pxcGfXIbl$c2RWb',$,$,$,(#318),#979);
#981=IFCRELDEFINESBYTEMPLATE('3$4f33T4hJsD2hkI5rrct9',$,$,$,(#181),#18);
#982=IFCRELDEFINESBYTEMPLATE('3U1m2AgEdxC6sDvf2Whbai',$,$,$,(#117,#979),#26);
#983=IFCRELASSOCIATESCLASSIFICATION('0Af8kk_76ieVwjQ9t667I2',$,$,$,(#182,#217),#31);
#984=IFCRELASSOCIATESCLASSIFICATION('3hS6AD8UTMRmDC6d1Mv7Kj',$,$,$,(#118),#32);
#985=IFCRELASSOCIATESCLASSIFICATION('1WRSHiAXh0CFpiEf5W9$XJ',$,$,$,(#318),#33);
#986=IFCRELASSOCIATESCLASSIFICATION('3s7m6H0ucN9JaTI8jqYkCu',$,$,$,(#512),#37);
#987=IFCRELASSOCIATESCLASSIFICATION('1Hus_rktIhwR8lfQ_OR$P3',$,$,$,(#118),#41);
#988=IFCRELASSOCIATESCLASSIFICATION('2qSsb0MzmbNDM0Hx_UyeFY',$,$,$,(#265,#318),#42);
ENDSEC;
END-ISO-10303-21;
