<?xml version="1.0" encoding="utf-8" standalone="no"?>
<!DOCTYPE svg PUBLIC "-//W3C//DTD SVG 1.1//EN" "http://www.w3.org/Graphics/SVG/1.1/DTD/svg11.dtd">
<svg version="1.1" width="419.52pt" height="595.2pt" viewBox="0 0 419.52 595.2" overflow="visible" xmlns="http://www.w3.org/2000/svg">
  <path d="M220.5532,296.3329 L223.7072,296.8819" stroke="#000000" stroke-width="0.24" fill="none" />
  <path d="M220.5532,292.266 L223.7072,292.815" stroke="#000000" stroke-width="0.24" fill="none" />
  <path d="M220.5532,292.266 L220.5532,296.3329" stroke="#000000" stroke-width="0.24" fill="none" />
  <path d="M218.6842,296.6582 L220.5532,296.3329" stroke="#000000" stroke-width="0.24" fill="none" />
  <path d="M218.6842,292.5913 L220.5532,292.266" stroke="#000000" stroke-width="0.24" fill="none" />
  <path d="M222.8894,294.7061 C222.9273,295.233 222.5038,295.7491 222.1302,295.6313 C221.7565,295.619 221.333,294.9554 221.3709,294.4417 C221.333,293.9148 221.7565,293.3987 222.1302,293.5165 C222.5038,293.5288 222.9273,294.1924 222.8894,294.7061 z" stroke="#000000" stroke-width="0.24" fill="none" />
  <path d="M223.7072,319.2498 L219.0347,320.0632" stroke="#000000" stroke-width="0.24" fill="none" />
  <path d="M223.7072,315.1829 L223.7072,319.2498" stroke="#000000" stroke-width="0.24" fill="none" />
  <path d="M220.5532,314.6339 L223.7072,315.1829" stroke="#000000" stroke-width="0.24" fill="none" />
  <path d="M220.5532,314.6339 L220.5532,318.7007" stroke="#000000" stroke-width="0.24" fill="none" />
  <path d="M215.8807,315.4472 L220.5532,314.6339" stroke="#000000" stroke-width="0.24" fill="none" />
  <path d="M222.8894,317.074 C222.9273,317.6009 222.5038,318.117 222.1302,317.9992 C221.7565,317.9869 221.333,317.3233 221.3709,316.8096 C221.333,316.2827 221.7565,315.7666 222.1302,315.8844 C222.5038,315.8967 222.9273,316.5603 222.8894,317.074 z" stroke="#000000" stroke-width="0.24" fill="none" />
  <path d="M216.2311,283.0951 L220.9036,283.9085" stroke="#000000" stroke-width="0.24" fill="none" />
  <path d="M216.2311,283.0951 L216.2311,287.162" stroke="#000000" stroke-width="0.24" fill="none" />
  <path d="M213.0772,283.6442 L216.2311,283.0951" stroke="#000000" stroke-width="0.24" fill="none" />
  <path d="M220.9036,283.9085 L220.9036,287.8534" stroke="#000000" stroke-width="0.24" fill="none" />
  <path d="M216.2311,278.2149 L220.9036,279.0282" stroke="#000000" stroke-width="0.24" fill="none" />
  <path d="M216.2311,274.148 L220.9036,274.9614" stroke="#000000" stroke-width="0.24" fill="none" />
  <path d="M213.0772,278.7639 L216.2311,278.2149" stroke="#000000" stroke-width="0.24" fill="none" />
  <path d="M213.0772,274.697 L213.0772,278.7639" stroke="#000000" stroke-width="0.24" fill="none" />
  <path d="M220.9036,274.9614 L220.9036,279.0282 L219.7355,279.2316" stroke="#000000" stroke-width="0.24" fill="none" />
  <path d="M216.2311,296.5159 L220.9036,297.3293" stroke="#000000" stroke-width="0.24" fill="none" />
  <path d="M216.2311,296.5159 L216.2311,300.5828" stroke="#000000" stroke-width="0.24" fill="none" />
  <path d="M213.0772,301.1318 L216.2311,300.5828" stroke="#000000" stroke-width="0.24" fill="none" />
  <path d="M213.0772,297.0649 L216.2311,296.5159" stroke="#000000" stroke-width="0.24" fill="none" />
  <path d="M220.9036,297.3293 L220.9036,301.2741" stroke="#000000" stroke-width="0.24" fill="none" />
  <path d="M223.7072,274.514 L220.9037,275.002" stroke="#000000" stroke-width="0.24" fill="none" />
  <path d="M223.7072,270.4471 L223.7072,274.514" stroke="#000000" stroke-width="0.24" fill="none" />
  <path d="M220.5532,273.965 L223.7072,274.514" stroke="#000000" stroke-width="0.24" fill="none" />
  <path d="M220.5532,269.8981 L223.7072,270.4471" stroke="#000000" stroke-width="0.24" fill="none" />
  <path d="M220.5532,269.8981 L220.5532,273.965" stroke="#000000" stroke-width="0.24" fill="none" />
  <path d="M218.6842,274.2903 L220.5532,273.965" stroke="#000000" stroke-width="0.24" fill="none" />
  <path d="M218.6843,270.2234 L220.5532,269.8981" stroke="#000000" stroke-width="0.24" fill="none" />
  <path d="M222.8894,272.3382 C222.9273,272.8651 222.5038,273.3812 222.1302,273.2634 C221.7565,273.2511 221.333,272.5876 221.3709,272.0738 C221.333,271.5469 221.7565,271.0308 222.1302,271.1486 C222.5038,271.1609 222.9273,271.8245 222.8894,272.3382 z" stroke="#000000" stroke-width="0.24" fill="none" />
  <path d="M223.7072,314.7762 L222.539,314.9796" stroke="#000000" stroke-width="0.24" fill="none" />
  <path d="M223.7072,310.7093 L223.7072,314.7762" stroke="#000000" stroke-width="0.24" fill="none" />
  <path d="M220.5532,314.2272 L223.7072,314.7762" stroke="#000000" stroke-width="0.24" fill="none" />
  <path d="M220.5532,310.1603 L223.7072,310.7093" stroke="#000000" stroke-width="0.24" fill="none" />
  <path d="M220.5532,310.1603 L220.5532,314.2272" stroke="#000000" stroke-width="0.24" fill="none" />
  <path d="M218.6842,314.5525 L220.5532,314.2272" stroke="#000000" stroke-width="0.24" fill="none" />
  <path d="M218.6842,310.4856 L220.5532,310.1603" stroke="#000000" stroke-width="0.24" fill="none" />
  <path d="M222.8894,312.6004 C222.9273,313.1273 222.5038,313.6434 222.1302,313.5256 C221.7565,313.5133 221.333,312.8498 221.3709,312.3361 C221.333,311.8091 221.7565,311.293 222.1302,311.4108 C222.5038,311.4231 222.9273,312.0867 222.8894,312.6004 z" stroke="#000000" stroke-width="0.24" fill="none" />
  <path d="M216.2311,305.463 L220.9036,306.2764" stroke="#000000" stroke-width="0.24" fill="none" />
  <path d="M216.2311,305.463 L216.2311,309.5299" stroke="#000000" stroke-width="0.24" fill="none" />
  <path d="M213.0772,310.0789 L216.2311,309.5299" stroke="#000000" stroke-width="0.24" fill="none" />
  <path d="M213.0772,306.0121 L216.2311,305.463" stroke="#000000" stroke-width="0.24" fill="none" />
  <path d="M213.0772,306.0121 L213.0772,310.0789" stroke="#000000" stroke-width="0.24" fill="none" />
  <path d="M220.9036,306.2764 L220.9036,310.2213" stroke="#000000" stroke-width="0.24" fill="none" />
  <path d="M223.7072,292.4083 L222.539,292.6117" stroke="#000000" stroke-width="0.24" fill="none" />
  <path d="M223.7072,288.3414 L223.7072,292.4083" stroke="#000000" stroke-width="0.24" fill="none" />
  <path d="M220.5532,291.8593 L223.7072,292.4083" stroke="#000000" stroke-width="0.24" fill="none" />
  <path d="M220.5532,287.7924 L223.7072,288.3414" stroke="#000000" stroke-width="0.24" fill="none" />
  <path d="M220.5532,287.7924 L220.5532,291.8593" stroke="#000000" stroke-width="0.24" fill="none" />
  <path d="M218.6842,292.1846 L220.5532,291.8593" stroke="#000000" stroke-width="0.24" fill="none" />
  <path d="M218.6843,288.1177 L220.5532,287.7924" stroke="#000000" stroke-width="0.24" fill="none" />
  <path d="M222.8894,290.2325 C222.9273,290.7594 222.5038,291.2755 222.1302,291.1577 C221.7565,291.1454 221.333,290.4819 221.3709,289.9681 C221.333,289.4413 221.7565,288.9251 222.1302,289.0429 C222.5038,289.0552 222.9273,289.7188 222.8894,290.2325 z" stroke="#000000" stroke-width="0.24" fill="none" />
  <path d="M223.7072,305.829 L220.9037,306.3171" stroke="#000000" stroke-width="0.24" fill="none" />
  <path d="M223.7072,301.7621 L223.7072,305.829" stroke="#000000" stroke-width="0.24" fill="none" />
  <path d="M220.5532,305.28 L223.7072,305.829" stroke="#000000" stroke-width="0.24" fill="none" />
  <path d="M220.5532,301.2131 L223.7072,301.7621" stroke="#000000" stroke-width="0.24" fill="none" />
  <path d="M220.5532,301.2131 L220.5532,305.28" stroke="#000000" stroke-width="0.24" fill="none" />
  <path d="M218.6842,301.5385 L220.5532,301.2131" stroke="#000000" stroke-width="0.24" fill="none" />
  <path d="M222.8894,303.6532 C222.9273,304.1801 222.5038,304.6962 222.1302,304.5785 C221.7565,304.5662 221.333,303.9026 221.3709,303.3889 C221.333,302.862 221.7565,302.3459 222.1302,302.4637 C222.5038,302.476 222.9273,303.1395 222.8894,303.6532 z" stroke="#000000" stroke-width="0.24" fill="none" />
  <path d="M216.2311,282.6884 L220.9036,283.5018" stroke="#000000" stroke-width="0.24" fill="none" />
  <path d="M216.2311,278.6216 L220.9036,279.4349" stroke="#000000" stroke-width="0.24" fill="none" />
  <path d="M216.2311,278.6216 L216.2311,282.6884" stroke="#000000" stroke-width="0.24" fill="none" />
  <path d="M213.0772,283.2375 L216.2311,282.6884" stroke="#000000" stroke-width="0.24" fill="none" />
  <path d="M213.0772,279.1706 L216.2311,278.6216" stroke="#000000" stroke-width="0.24" fill="none" />
  <path d="M213.0772,279.1706 L213.0772,283.2375" stroke="#000000" stroke-width="0.24" fill="none" />
  <path d="M220.9036,279.4349 L220.9036,283.5018 L219.7355,283.7052" stroke="#000000" stroke-width="0.24" fill="none" />
  <path d="M214.2454,278.9673 L213.0772,278.7639" stroke="#000000" stroke-width="0.24" fill="none" />
  <path d="M213.8949,310.2213 L213.0772,310.0789" stroke="#000000" stroke-width="0.24" fill="none" />
  <path d="M218.6842,305.6054 L220.5532,305.28" stroke="#000000" stroke-width="0.24" fill="none" />
  <path d="M217.0489,315.2439 L215.8807,315.0406" stroke="#000000" stroke-width="0.24" fill="none" />
  <path d="M214.2454,283.4408 L213.0772,283.2375" stroke="#000000" stroke-width="0.24" fill="none" />
  <path d="M213.0772,287.7111 L216.2311,287.162" stroke="#000000" stroke-width="0.24" fill="none" />
  <path d="M216.2311,274.148 L216.2311,278.2149" stroke="#000000" stroke-width="0.24" fill="none" />
  <path d="M213.0772,274.697 L216.2311,274.148" stroke="#000000" stroke-width="0.24" fill="none" />
  <path d="M216.2311,300.5828 L220.2028,301.2741" stroke="#000000" stroke-width="0.24" fill="none" />
  <path d="M213.8949,301.2741 L213.0772,301.1318" stroke="#000000" stroke-width="0.24" fill="none" />
  <path d="M220.5532,318.7007 L223.7072,319.2498" stroke="#000000" stroke-width="0.24" fill="none" />
  <path d="M213.8949,287.8534 L213.0772,287.7111" stroke="#000000" stroke-width="0.24" fill="none" />
  <path d="M215.8807,319.5141 L220.5532,318.7007" stroke="#000000" stroke-width="0.24" fill="none" />
  <path d="M219.0347,320.0632 L215.8807,319.5141" stroke="#000000" stroke-width="0.24" fill="none" />
  <path d="M216.2311,287.162 L220.2029,287.8534" stroke="#000000" stroke-width="0.24" fill="none" />
  <path d="M213.0772,283.6442 L213.0772,287.7111" stroke="#000000" stroke-width="0.24" fill="none" />
  <path d="M215.4134,285.2709 C215.4513,285.7846 215.0278,286.4482 214.6541,286.4604 C214.2805,286.5782 213.857,286.0621 213.8949,285.5352 C213.857,285.0215 214.2805,284.358 214.6541,284.3457 C215.0278,284.2279 215.4513,284.744 215.4134,285.2709 z" stroke="#000000" stroke-width="0.24" fill="none" />
  <path d="M215.4134,276.3237 C215.4513,276.8375 215.0278,277.501 214.6541,277.5133 C214.2805,277.6311 213.857,277.115 213.8949,276.5881 C213.857,276.0744 214.2805,275.4108 214.6541,275.3985 C215.0278,275.2807 215.4513,275.7968 215.4134,276.3237 z" stroke="#000000" stroke-width="0.24" fill="none" />
  <path d="M213.0772,297.0649 L213.0772,301.1318" stroke="#000000" stroke-width="0.24" fill="none" />
  <path d="M215.4134,298.6916 C215.4513,299.2054 215.0278,299.8689 214.6541,299.8812 C214.2805,299.999 213.857,299.4829 213.8949,298.956 C213.857,298.4423 214.2805,297.7787 214.6541,297.7664 C215.0278,297.6486 215.4513,298.1647 215.4134,298.6916 z" stroke="#000000" stroke-width="0.24" fill="none" />
  <path d="M216.2311,309.5299 L220.2028,310.2213" stroke="#000000" stroke-width="0.24" fill="none" />
  <path d="M215.4134,307.6388 C215.4513,308.1525 215.0278,308.8161 214.6541,308.8284 C214.2805,308.9461 213.857,308.4301 213.8949,307.9031 C213.857,307.3894 214.2805,306.7259 214.6541,306.7136 C215.0278,306.5958 215.4513,307.1119 215.4134,307.6388 z" stroke="#000000" stroke-width="0.24" fill="none" />
  <path d="M215.4134,280.7973 C215.4513,281.311 215.0278,281.9746 214.6541,281.9869 C214.2805,282.1047 213.857,281.5886 213.8949,281.0617 C213.857,280.5479 214.2805,279.8844 214.6541,279.8721 C215.0278,279.7543 215.4513,280.2704 215.4134,280.7973 z" stroke="#000000" stroke-width="0.24" fill="none" />
  <path d="M223.7072,296.8819 L220.9037,297.3699" stroke="#000000" stroke-width="0.24" fill="none" />
  <path d="M223.7072,292.815 L223.7072,296.8819" stroke="#000000" stroke-width="0.24" fill="none" />
</svg>