<?xml version="1.0" encoding="utf-8" standalone="no"?>
<!DOCTYPE svg PUBLIC "-//W3C//DTD SVG 1.1//EN" "http://www.w3.org/Graphics/SVG/1.1/DTD/svg11.dtd">
<svg version="1.1" width="419.52pt" height="595.2pt" viewBox="0 0 419.52 595.2" overflow="visible" xmlns="http://www.w3.org/2000/svg">
  <path d="M201.3959,304.8733 L200.4614,305.036 L200.4614,308.2895 L201.3959,308.1268 z" stroke="#000000" stroke-width="0.24" fill="none" />
  <path d="M203.2649,296.0888 L202.3304,295.9261 L202.3304,299.1797 L203.2649,299.3423 z" stroke="#000000" stroke-width="0.24" fill="none" />
  <path d="M201.3959,286.979 L200.4614,287.1417 L200.4614,290.3952 L201.3959,290.2325 z" stroke="#000000" stroke-width="0.24" fill="none" />
  <path d="M203.2649,287.1417 L202.3304,286.979 L202.3304,290.2325 L203.2649,290.3952 z" stroke="#000000" stroke-width="0.24" fill="none" />
  <path d="M201.3959,291.4526 L200.4614,291.6152 L200.4614,294.8687 L201.3959,294.7061 z" stroke="#000000" stroke-width="0.24" fill="none" />
  <path d="M203.2649,291.6152 L202.3304,291.4526 L202.3304,294.7061 L203.2649,294.8687 z" stroke="#000000" stroke-width="0.24" fill="none" />
  <path d="M201.3959,295.9261 L200.4614,296.0888 L200.4614,299.3423 L201.3959,299.1797 z" stroke="#000000" stroke-width="0.24" fill="none" />
  <path d="M196.8402,304.1751 L195.9057,304.3378 L195.9057,307.5913 L196.8402,307.4287 z" stroke="#000000" stroke-width="0.24" fill="none" />
  <path d="M196.8402,308.6487 L195.9057,308.8114 L195.9057,312.0649 L196.8402,311.9023 z" stroke="#000000" stroke-width="0.24" fill="none" />
  <path d="M201.3959,309.3469 L200.4614,309.5096 L200.4614,312.7631 L201.3959,312.6004 z" stroke="#000000" stroke-width="0.24" fill="none" />
  <path d="M196.8402,286.2809 L195.9057,286.4435 L195.9057,289.697 L196.8402,289.5344 z" stroke="#000000" stroke-width="0.24" fill="none" />
  <path d="M203.2649,309.5096 L202.3304,309.3469 L202.3304,312.6004 L203.2649,312.7631 z" stroke="#000000" stroke-width="0.24" fill="none" />
  <path d="M201.8632,333.6127 L201.8632,314.905" stroke="#000000" stroke-width="0.24" fill="none" />
  <path d="M196.8402,272.8601 L195.9057,273.0228 L195.9057,276.2763 L196.8402,276.1136 z" stroke="#000000" stroke-width="0.24" fill="none" />
  <path d="M201.3959,273.5583 L200.4614,273.7209 L200.4614,276.9744 L201.3959,276.8118 z" stroke="#000000" stroke-width="0.24" fill="none" />
  <path d="M203.2649,273.7209 L202.3304,273.5583 L202.3304,276.8118 L203.2649,276.9744 z" stroke="#000000" stroke-width="0.24" fill="none" />
  <path d="M201.8632,270.1692 L201.8632,314.905" stroke="#000000" stroke-width="0.24" fill="none" />
  <path d="M196.8402,290.7544 L195.9057,290.9171 L195.9057,294.1706 L196.8402,294.0079 z" stroke="#000000" stroke-width="0.24" fill="none" />
  <path d="M196.8402,281.8073 L195.9057,281.9699 L195.9057,285.2234 L196.8402,285.0608 z" stroke="#000000" stroke-width="0.24" fill="none" />
  <path d="M196.8402,295.228 L195.9057,295.3907 L195.9057,298.6442 L196.8402,298.4815 z" stroke="#000000" stroke-width="0.24" fill="none" />
  <path d="M201.3959,300.3997 L200.4614,300.5624 L200.4614,303.8159 L201.3959,303.6532 z" stroke="#000000" stroke-width="0.24" fill="none" />
  <path d="M196.8402,299.7016 L195.9057,299.8643 L195.9057,303.1178 L196.8402,302.9551 z" stroke="#000000" stroke-width="0.24" fill="none" />
  <path d="M196.8402,277.3337 L195.9057,277.4964 L195.9057,280.7499 L196.8402,280.5872 z" stroke="#000000" stroke-width="0.24" fill="none" />
  <path d="M203.2649,278.1945 L202.3304,278.0318 L202.3304,281.2853 L203.2649,281.448 z" stroke="#000000" stroke-width="0.24" fill="none" />
  <path d="M201.3959,278.0318 L200.4614,278.1945 L200.4614,281.448 L201.3959,281.2853 z" stroke="#000000" stroke-width="0.24" fill="none" />
  <path d="M201.8632,314.905 L203.4986,315.1897" stroke="#000000" stroke-width="0.24" fill="none" />
  <path d="M195.4385,316.0234 L201.8632,314.905" stroke="#000000" stroke-width="0.24" fill="none" />
  <path d="M201.8632,270.1692 L203.4987,270.4539" stroke="#000000" stroke-width="0.24" fill="none" />
  <path d="M195.4385,271.2876 L201.8632,270.1692" stroke="#000000" stroke-width="0.24" fill="none" />
  <path d="M201.3959,282.5054 L200.4614,282.6681 L200.4614,285.9216 L201.3959,285.7589 z" stroke="#000000" stroke-width="0.24" fill="none" />
  <path d="M203.2649,282.6681 L202.3304,282.5054 L202.3304,285.7589 L203.2649,285.9216 z" stroke="#000000" stroke-width="0.24" fill="none" />
  <path d="M203.2649,300.5624 L202.3304,300.3997 L202.3304,303.6532 L203.2649,303.8159 z" stroke="#000000" stroke-width="0.24" fill="none" />
  <path d="M195.4385,325.7676 L195.4385,316.0234" stroke="#000000" stroke-width="0.24" fill="none" />
  <path d="M208.2879,325.7676 L208.2879,319.9954" stroke="#000000" stroke-width="0.24" fill="none" />
  <path d="M195.4385,325.7676 L201.8632,333.6127 L208.2879,325.7676" stroke="#000000" stroke-width="0.24" fill="none" />
  <path d="M195.4385,271.2876 L195.4385,316.0234" stroke="#000000" stroke-width="0.24" fill="none" />
  <path d="M203.2649,305.036 L202.3304,304.8733 L202.3304,308.1268 L203.2649,308.2895 z" stroke="#000000" stroke-width="0.24" fill="none" />
</svg>