o 
usemtl boolean-union-tangent-spheres-material
v -2.120148181915283 -7.684497356414795 -6.037671089172363
v -2.120148181915283 -6.037671089172363 -7.684497356414795
v -4.378852367401123 -6.357108116149902 -6.357108116149902
v -6.037671089172363 -7.684497356414795 -2.120148181915283
v -6.357108116149902 -6.357108116149902 -4.378852367401123
v -7.684497356414795 -6.037671089172363 -2.120148181915283
v -4.297662734985352 -7.941044807434082 -4.297662734985352
v -2.084592819213867 -8.884476661682129 -4.089075565338135
v -4.089075565338135 -8.884476661682129 -2.084592819213867
v -2.0233471393585205 -9.581864356994629 -2.0233471393585205
v -6.357108116149902 -4.378852367401123 -6.357108116149902
v -6.037671089172363 -2.120148181915283 -7.684497356414795
v -7.684497356414795 -2.120148181915283 -6.037671089172363
v -4.297662734985352 -4.297662734985352 -7.941044807434082
v -2.084592819213867 -4.089075565338135 -8.884476661682129
v -4.089075565338135 -2.084592819213867 -8.884476661682129
v -2.0233471393585205 -2.0233471393585205 -9.581864356994629
v -7.941044807434082 -4.297662734985352 -4.297662734985352
v -8.884476661682129 -4.089075565338135 -2.084592819213867
v -8.884476661682129 -2.084592819213867 -4.089075565338135
v -9.581864356994629 -2.0233471393585205 -2.0233471393585205
v 6.123233998228043e-16 -8.314696311950684 -5.555702209472656
v 2.120148181915283 -7.684497356414795 -6.037671089172363
v 6.123233998228043e-16 -5.555702209472656 -8.314696311950684
v 2.120148181915283 -6.037671089172363 -7.684497356414795
v 6.123233998228043e-16 -7.071067810058594 -7.071067810058594
v 4.378852367401123 -6.357108116149902 -6.357108116149902
v 6.123233998228043e-16 -9.238795280456543 -3.8268344402313232
v 2.084592819213867 -8.884476661682129 -4.089075565338135
v 4.297662734985352 -7.941044807434082 -4.297662734985352
v 6.123233998228043e-16 -9.807852745056152 -1.9509031772613525
v 2.0233471393585205 -9.581864356994629 -2.0233471393585205
v 4.089075565338135 -8.884476661682129 -2.084592819213867
v 6.037671089172363 -7.684497356414795 -2.120148181915283
v 6.357108116149902 -6.357108116149902 -4.378852367401123
v 7.684497356414795 -6.037671089172363 -2.120148181915283
v 6.123233998228043e-16 -3.8268344402313232 -9.238795280456543
v 2.084592819213867 -4.089075565338135 -8.884476661682129
v 4.297662734985352 -4.297662734985352 -7.941044807434082
v 6.123233998228043e-16 -1.9509031772613525 -9.807852745056152
v 2.0233471393585205 -2.0233471393585205 -9.581864356994629
v 4.089075565338135 -2.084592819213867 -8.884476661682129
v 6.357108116149902 -4.378852367401123 -6.357108116149902
v 6.037671089172363 -2.120148181915283 -7.684497356414795
v 7.684497356414795 -2.120148181915283 -6.037671089172363
v 7.941044807434082 -4.297662734985352 -4.297662734985352
v 8.884476661682129 -4.089075565338135 -2.084592819213867
v 8.884476661682129 -2.084592819213867 -4.089075565338135
v 9.581864356994629 -2.0233471393585205 -2.0233471393585205
v -5.555702209472656 -8.314696311950684 6.123233998228043e-16
v -6.037671089172363 -7.684497356414795 2.120148181915283
v -8.314696311950684 -5.555702209472656 6.123233998228043e-16
v -7.684497356414795 -6.037671089172363 2.120148181915283
v -7.071067810058594 -7.071067810058594 6.123233998228043e-16
v -6.357108116149902 -6.357108116149902 4.378852367401123
v -3.8268344402313232 -9.238795280456543 6.123233998228043e-16
v -4.089075565338135 -8.884476661682129 2.084592819213867
v -1.9509031772613525 -9.807852745056152 6.123233998228043e-16
v -2.0233471393585205 -9.581864356994629 2.0233471393585205
v -4.297662734985352 -7.941044807434082 4.297662734985352
v -2.084592819213867 -8.884476661682129 4.089075565338135
v -2.120148181915283 -7.684497356414795 6.037671089172363
v -4.378852367401123 -6.357108116149902 6.357108116149902
v -2.120148181915283 -6.037671089172363 7.684497356414795
v -9.238795280456543 -3.8268344402313232 6.123233998228043e-16
v -8.884476661682129 -4.089075565338135 2.084592819213867
v -7.941044807434082 -4.297662734985352 4.297662734985352
v -9.807852745056152 -1.9509031772613525 6.123233998228043e-16
v -9.581864356994629 -2.0233471393585205 2.0233471393585205
v -8.884476661682129 -2.084592819213867 4.089075565338135
v -6.357108116149902 -4.378852367401123 6.357108116149902
v -7.684497356414795 -2.120148181915283 6.037671089172363
v -6.037671089172363 -2.120148181915283 7.684497356414795
v -4.297662734985352 -4.297662734985352 7.941044807434082
v -2.084592819213867 -4.089075565338135 8.884476661682129
v -4.089075565338135 -2.084592819213867 8.884476661682129
v -2.0233471393585205 -2.0233471393585205 9.581864356994629
v 6.123233998228043e-16 -10 6.123233998228043e-16
v 1.9509031772613525 -9.807852745056152 6.123233998228043e-16
v 6.123233998228043e-16 -9.807852745056152 1.9509031772613525
v 2.0233471393585205 -9.581864356994629 2.0233471393585205
v 3.8268344402313232 -9.238795280456543 6.123233998228043e-16
v 4.089075565338135 -8.884476661682129 2.084592819213867
v 6.123233998228043e-16 -9.238795280456543 3.8268344402313232
v 2.084592819213867 -8.884476661682129 4.089075565338135
v 4.297662734985352 -7.941044807434082 4.297662734985352
v 5.555702209472656 -8.314696311950684 6.123233998228043e-16
v 6.037671089172363 -7.684497356414795 2.120148181915283
v 7.071067810058594 -7.071067810058594 6.123233998228043e-16
v 8.314696311950684 -5.555702209472656 6.123233998228043e-16
v 7.684497356414795 -6.037671089172363 2.120148181915283
v 6.357108116149902 -6.357108116149902 4.378852367401123
v 6.123233998228043e-16 -8.314696311950684 5.555702209472656
v 2.120148181915283 -7.684497356414795 6.037671089172363
v 6.123233998228043e-16 -7.071067810058594 7.071067810058594
v 4.378852367401123 -6.357108116149902 6.357108116149902
v 6.123233998228043e-16 -5.555702209472656 8.314696311950684
v 2.120148181915283 -6.037671089172363 7.684497356414795
v 9.238795280456543 -3.8268344402313232 6.123233998228043e-16
v 8.884476661682129 -4.089075565338135 2.084592819213867
v 7.941044807434082 -4.297662734985352 4.297662734985352
v 9.807852745056152 -1.9509031772613525 6.123233998228043e-16
v 9.581864356994629 -2.0233471393585205 2.0233471393585205
v 8.884476661682129 -2.084592819213867 4.089075565338135
v 6.123233998228043e-16 -3.8268344402313232 9.238795280456543
v 2.084592819213867 -4.089075565338135 8.884476661682129
v 4.297662734985352 -4.297662734985352 7.941044807434082
v 6.123233998228043e-16 -1.9509031772613525 9.807852745056152
v 2.0233471393585205 -2.0233471393585205 9.581864356994629
v 4.089075565338135 -2.084592819213867 8.884476661682129
v 6.357108116149902 -4.378852367401123 6.357108116149902
v 7.684497356414795 -2.120148181915283 6.037671089172363
v 6.037671089172363 -2.120148181915283 7.684497356414795
v -5.555702209472656 6.123233998228043e-16 -8.314696311950684
v -6.037671089172363 2.120148181915283 -7.684497356414795
v -8.314696311950684 6.123233998228043e-16 -5.555702209472656
v -7.684497356414795 2.120148181915283 -6.037671089172363
v -7.071067810058594 6.123233998228043e-16 -7.071067810058594
v -6.357108116149902 4.378852367401123 -6.357108116149902
v -3.8268344402313232 6.123233998228043e-16 -9.238795280456543
v -4.089075565338135 2.084592819213867 -8.884476661682129
v -1.9509031772613525 6.123233998228043e-16 -9.807852745056152
v -2.0233471393585205 2.0233471393585205 -9.581864356994629
v -4.297662734985352 4.297662734985352 -7.941044807434082
v -2.084592819213867 4.089075565338135 -8.884476661682129
v -9.238795280456543 6.123233998228043e-16 -3.8268344402313232
v -8.884476661682129 2.084592819213867 -4.089075565338135
v -9.807852745056152 6.123233998228043e-16 -1.9509031772613525
v -9.581864356994629 2.0233471393585205 -2.0233471393585205
v -7.941044807434082 4.297662734985352 -4.297662734985352
v -8.884476661682129 4.089075565338135 -2.084592819213867
v -2.120148181915283 6.037671089172363 -7.684497356414795
v -4.378852367401123 6.357108116149902 -6.357108116149902
v -2.120148181915283 7.684497356414795 -6.037671089172363
v -6.357108116149902 6.357108116149902 -4.378852367401123
v -7.684497356414795 6.037671089172363 -2.120148181915283
v -6.037671089172363 7.684497356414795 -2.120148181915283
v -4.297662734985352 7.941044807434082 -4.297662734985352
v -2.084592819213867 8.884476661682129 -4.089075565338135
v -4.089075565338135 8.884476661682129 -2.084592819213867
v -2.0233471393585205 9.581864356994629 -2.0233471393585205
v 6.123233998228043e-16 6.123233998228043e-16 -10
v 1.9509031772613525 6.123233998228043e-16 -9.807852745056152
v 6.123233998228043e-16 1.9509031772613525 -9.807852745056152
v 2.0233471393585205 2.0233471393585205 -9.581864356994629
v 3.8268344402313232 6.123233998228043e-16 -9.238795280456543
v 4.089075565338135 2.084592819213867 -8.884476661682129
v 6.123233998228043e-16 3.8268344402313232 -9.238795280456543
v 2.084592819213867 4.089075565338135 -8.884476661682129
v 4.297662734985352 4.297662734985352 -7.941044807434082
v 5.555702209472656 6.123233998228043e-16 -8.314696311950684
v 6.037671089172363 2.120148181915283 -7.684497356414795
v 7.071067810058594 6.123233998228043e-16 -7.071067810058594
v 8.314696311950684 6.123233998228043e-16 -5.555702209472656
v 7.684497356414795 2.120148181915283 -6.037671089172363
v 6.357108116149902 4.378852367401123 -6.357108116149902
v 9.238795280456543 6.123233998228043e-16 -3.8268344402313232
v 8.884476661682129 2.084592819213867 -4.089075565338135
v 9.807852745056152 6.123233998228043e-16 -1.9509031772613525
v 9.581864356994629 2.0233471393585205 -2.0233471393585205
v 7.941044807434082 4.297662734985352 -4.297662734985352
v 8.884476661682129 4.089075565338135 -2.084592819213867
v 6.123233998228043e-16 5.555702209472656 -8.314696311950684
v 2.120148181915283 6.037671089172363 -7.684497356414795
v 6.123233998228043e-16 7.071067810058594 -7.071067810058594
v 4.378852367401123 6.357108116149902 -6.357108116149902
v 6.123233998228043e-16 8.314696311950684 -5.555702209472656
v 2.120148181915283 7.684497356414795 -6.037671089172363
v 6.123233998228043e-16 9.238795280456543 -3.8268344402313232
v 2.084592819213867 8.884476661682129 -4.089075565338135
v 4.297662734985352 7.941044807434082 -4.297662734985352
v 6.123233998228043e-16 9.807852745056152 -1.9509031772613525
v 2.0233471393585205 9.581864356994629 -2.0233471393585205
v 4.089075565338135 8.884476661682129 -2.084592819213867
v 6.357108116149902 6.357108116149902 -4.378852367401123
v 7.684497356414795 6.037671089172363 -2.120148181915283
v 6.037671089172363 7.684497356414795 -2.120148181915283
v -10 6.123233998228043e-16 6.123233998228043e-16
v -9.807852745056152 6.123233998228043e-16 1.9509031772613525
v -9.807852745056152 1.9509031772613525 6.123233998228043e-16
v -9.581864356994629 2.0233471393585205 2.0233471393585205
v -9.238795280456543 6.123233998228043e-16 3.8268344402313232
v -8.884476661682129 2.084592819213867 4.089075565338135
v -9.238795280456543 3.8268344402313232 6.123233998228043e-16
v -8.884476661682129 4.089075565338135 2.084592819213867
v -7.941044807434082 4.297662734985352 4.297662734985352
v -8.314696311950684 6.123233998228043e-16 5.555702209472656
v -7.684497356414795 2.120148181915283 6.037671089172363
v -7.071067810058594 6.123233998228043e-16 7.071067810058594
v -5.555702209472656 6.123233998228043e-16 8.314696311950684
v -6.037671089172363 2.120148181915283 7.684497356414795
v -6.357108116149902 4.378852367401123 6.357108116149902
v -3.8268344402313232 6.123233998228043e-16 9.238795280456543
v -4.089075565338135 2.084592819213867 8.884476661682129
v -1.9509031772613525 6.123233998228043e-16 9.807852745056152
v -2.0233471393585205 2.0233471393585205 9.581864356994629
v -4.297662734985352 4.297662734985352 7.941044807434082
v -2.084592819213867 4.089075565338135 8.884476661682129
v -8.314696311950684 5.555702209472656 6.123233998228043e-16
v -7.684497356414795 6.037671089172363 2.120148181915283
v -7.071067810058594 7.071067810058594 6.123233998228043e-16
v -6.357108116149902 6.357108116149902 4.378852367401123
v -5.555702209472656 8.314696311950684 6.123233998228043e-16
v -6.037671089172363 7.684497356414795 2.120148181915283
v -3.8268344402313232 9.238795280456543 6.123233998228043e-16
v -4.089075565338135 8.884476661682129 2.084592819213867
v -1.9509031772613525 9.807852745056152 6.123233998228043e-16
v -2.0233471393585205 9.581864356994629 2.0233471393585205
v -4.297662734985352 7.941044807434082 4.297662734985352
v -2.084592819213867 8.884476661682129 4.089075565338135
v -4.378852367401123 6.357108116149902 6.357108116149902
v -2.120148181915283 6.037671089172363 7.684497356414795
v -2.120148181915283 7.684497356414795 6.037671089172363
v 9.807852745056152 6.123233998228043e-16 1.9509031772613525
v 9.807852745056152 1.9509031772613525 6.123233998228043e-16
v 9.581864356994629 2.0233471393585205 2.0233471393585205
v 9.238795280456543 6.123233998228043e-16 3.8268344402313232
v 8.884476661682129 2.084592819213867 4.089075565338135
v 9.238795280456543 3.8268344402313232 6.123233998228043e-16
v 8.884476661682129 4.089075565338135 2.084592819213867
v 7.941044807434082 4.297662734985352 4.297662734985352
v 6.123233998228043e-16 6.123233998228043e-16 10
v 1.9509031772613525 6.123233998228043e-16 9.807852745056152
v 6.123233998228043e-16 1.9509031772613525 9.807852745056152
v 2.0233471393585205 2.0233471393585205 9.581864356994629
v 3.8268344402313232 6.123233998228043e-16 9.238795280456543
v 4.089075565338135 2.084592819213867 8.884476661682129
v 6.123233998228043e-16 3.8268344402313232 9.238795280456543
v 2.084592819213867 4.089075565338135 8.884476661682129
v 4.297662734985352 4.297662734985352 7.941044807434082
v 7.071067810058594 6.123233998228043e-16 7.071067810058594
v 8.314696311950684 6.123233998228043e-16 5.555702209472656
v 7.684497356414795 2.120148181915283 6.037671089172363
v 5.555702209472656 6.123233998228043e-16 8.314696311950684
v 6.037671089172363 2.120148181915283 7.684497356414795
v 6.357108116149902 4.378852367401123 6.357108116149902
v 6.123233998228043e-16 10 6.123233998228043e-16
v 1.9509031772613525 9.807852745056152 6.123233998228043e-16
v 6.123233998228043e-16 9.807852745056152 1.9509031772613525
v 2.0233471393585205 9.581864356994629 2.0233471393585205
v 3.8268344402313232 9.238795280456543 6.123233998228043e-16
v 4.089075565338135 8.884476661682129 2.084592819213867
v 6.123233998228043e-16 9.238795280456543 3.8268344402313232
v 2.084592819213867 8.884476661682129 4.089075565338135
v 4.297662734985352 7.941044807434082 4.297662734985352
v 7.071067810058594 7.071067810058594 6.123233998228043e-16
v 8.314696311950684 5.555702209472656 6.123233998228043e-16
v 7.684497356414795 6.037671089172363 2.120148181915283
v 6.357108116149902 6.357108116149902 4.378852367401123
v 5.555702209472656 8.314696311950684 6.123233998228043e-16
v 6.037671089172363 7.684497356414795 2.120148181915283
v 6.123233998228043e-16 7.071067810058594 7.071067810058594
v 4.378852367401123 6.357108116149902 6.357108116149902
v 6.123233998228043e-16 5.555702209472656 8.314696311950684
v 2.120148181915283 6.037671089172363 7.684497356414795
v 6.123233998228043e-16 8.314696311950684 5.555702209472656
v 2.120148181915283 7.684497356414795 6.037671089172363
v 17.879852294921875 -7.684497356414795 -6.037671089172363
v 17.879852294921875 -6.037671089172363 -7.684497356414795
v 15.621148109436035 -6.357108116149902 -6.357108116149902
v 13.962328910827637 -7.684497356414795 -2.120148181915283
v 13.642891883850098 -6.357108116149902 -4.378852367401123
v 12.315502166748047 -6.037671089172363 -2.120148181915283
v 15.702337265014648 -7.941044807434082 -4.297662734985352
v 17.915407180786133 -8.884476661682129 -4.089075565338135
v 15.910923957824707 -8.884476661682129 -2.084592819213867
v 17.976652145385742 -9.581864356994629 -2.0233471393585205
v 13.642891883850098 -4.378852367401123 -6.357108116149902
v 13.962328910827637 -2.120148181915283 -7.684497356414795
v 12.315502166748047 -2.120148181915283 -6.037671089172363
v 15.702337265014648 -4.297662734985352 -7.941044807434082
v 17.915407180786133 -4.089075565338135 -8.884476661682129
v 15.910923957824707 -2.084592819213867 -8.884476661682129
v 17.976652145385742 -2.0233471393585205 -9.581864356994629
v 12.058955192565918 -4.297662734985352 -4.297662734985352
v 11.115523338317871 -4.089075565338135 -2.084592819213867
v 11.115523338317871 -2.084592819213867 -4.089075565338135
v 10.418135643005371 -2.0233471393585205 -2.0233471393585205
v 20 -8.314696311950684 -5.555702209472656
v 22.120147705078125 -7.684497356414795 -6.037671089172363
v 20 -5.555702209472656 -8.314696311950684
v 22.120147705078125 -6.037671089172363 -7.684497356414795
v 20 -7.071067810058594 -7.071067810058594
v 24.37885284423828 -6.357108116149902 -6.357108116149902
v 20 -9.238795280456543 -3.8268344402313232
v 22.084592819213867 -8.884476661682129 -4.089075565338135
v 24.29766273498535 -7.941044807434082 -4.297662734985352
v 20 -9.807852745056152 -1.9509031772613525
v 22.023347854614258 -9.581864356994629 -2.0233471393585205
v 24.089075088500977 -8.884476661682129 -2.084592819213867
v 26.037670135498047 -7.684497356414795 -2.120148181915283
v 26.35710906982422 -6.357108116149902 -4.378852367401123
v 27.684497833251953 -6.037671089172363 -2.120148181915283
v 20 -3.8268344402313232 -9.238795280456543
v 22.084592819213867 -4.089075565338135 -8.884476661682129
v 24.29766273498535 -4.297662734985352 -7.941044807434082
v 20 -1.9509031772613525 -9.807852745056152
v 22.023347854614258 -2.0233471393585205 -9.581864356994629
v 24.089075088500977 -2.084592819213867 -8.884476661682129
v 26.35710906982422 -4.378852367401123 -6.357108116149902
v 26.037670135498047 -2.120148181915283 -7.684497356414795
v 27.684497833251953 -2.120148181915283 -6.037671089172363
v 27.9410457611084 -4.297662734985352 -4.297662734985352
v 28.884477615356445 -4.089075565338135 -2.084592819213867
v 28.884477615356445 -2.084592819213867 -4.089075565338135
v 29.581865310668945 -2.0233471393585205 -2.0233471393585205
v 14.444297790527344 -8.314696311950684 6.123233998228043e-16
v 13.962328910827637 -7.684497356414795 2.120148181915283
v 11.685303688049316 -5.555702209472656 6.123233998228043e-16
v 12.315502166748047 -6.037671089172363 2.120148181915283
v 12.928932189941406 -7.071067810058594 6.123233998228043e-16
v 13.642891883850098 -6.357108116149902 4.378852367401123
v 16.173166275024414 -9.238795280456543 6.123233998228043e-16
v 15.910923957824707 -8.884476661682129 2.084592819213867
v 18.049097061157227 -9.807852745056152 6.123233998228043e-16
v 17.976652145385742 -9.581864356994629 2.0233471393585205
v 15.702337265014648 -7.941044807434082 4.297662734985352
v 17.915407180786133 -8.884476661682129 4.089075565338135
v 17.879852294921875 -7.684497356414795 6.037671089172363
v 15.621148109436035 -6.357108116149902 6.357108116149902
v 17.879852294921875 -6.037671089172363 7.684497356414795
v 10.761204719543457 -3.8268344402313232 6.123233998228043e-16
v 11.115523338317871 -4.089075565338135 2.084592819213867
v 12.058955192565918 -4.297662734985352 4.297662734985352
v 10.192147254943848 -1.9509031772613525 6.123233998228043e-16
v 10.418135643005371 -2.0233471393585205 2.0233471393585205
v 11.115523338317871 -2.084592819213867 4.089075565338135
v 13.642891883850098 -4.378852367401123 6.357108116149902
v 12.315502166748047 -2.120148181915283 6.037671089172363
v 13.962328910827637 -2.120148181915283 7.684497356414795
v 15.702337265014648 -4.297662734985352 7.941044807434082
v 17.915407180786133 -4.089075565338135 8.884476661682129
v 15.910923957824707 -2.084592819213867 8.884476661682129
v 17.976652145385742 -2.0233471393585205 9.581864356994629
v 20 -10 6.123233998228043e-16
v 21.950902938842773 -9.807852745056152 6.123233998228043e-16
v 20 -9.807852745056152 1.9509031772613525
v 22.023347854614258 -9.581864356994629 2.0233471393585205
v 23.826833724975586 -9.238795280456543 6.123233998228043e-16
v 24.089075088500977 -8.884476661682129 2.084592819213867
v 20 -9.238795280456543 3.8268344402313232
v 22.084592819213867 -8.884476661682129 4.089075565338135
v 24.29766273498535 -7.941044807434082 4.297662734985352
v 25.555702209472656 -8.314696311950684 6.123233998228043e-16
v 26.037670135498047 -7.684497356414795 2.120148181915283
v 27.071067810058594 -7.071067810058594 6.123233998228043e-16
v 28.314695358276367 -5.555702209472656 6.123233998228043e-16
v 27.684497833251953 -6.037671089172363 2.120148181915283
v 26.35710906982422 -6.357108116149902 4.378852367401123
v 20 -8.314696311950684 5.555702209472656
v 22.120147705078125 -7.684497356414795 6.037671089172363
v 20 -7.071067810058594 7.071067810058594
v 24.37885284423828 -6.357108116149902 6.357108116149902
v 20 -5.555702209472656 8.314696311950684
v 22.120147705078125 -6.037671089172363 7.684497356414795
v 29.23879623413086 -3.8268344402313232 6.123233998228043e-16
v 28.884477615356445 -4.089075565338135 2.084592819213867
v 27.9410457611084 -4.297662734985352 4.297662734985352
v 29.80785369873047 -1.9509031772613525 6.123233998228043e-16
v 29.581865310668945 -2.0233471393585205 2.0233471393585205
v 28.884477615356445 -2.084592819213867 4.089075565338135
v 20 -3.8268344402313232 9.238795280456543
v 22.084592819213867 -4.089075565338135 8.884476661682129
v 24.29766273498535 -4.297662734985352 7.941044807434082
v 20 -1.9509031772613525 9.807852745056152
v 22.023347854614258 -2.0233471393585205 9.581864356994629
v 24.089075088500977 -2.084592819213867 8.884476661682129
v 26.35710906982422 -4.378852367401123 6.357108116149902
v 27.684497833251953 -2.120148181915283 6.037671089172363
v 26.037670135498047 -2.120148181915283 7.684497356414795
v 14.444297790527344 6.123233998228043e-16 -8.314696311950684
v 13.962328910827637 2.120148181915283 -7.684497356414795
v 11.685303688049316 6.123233998228043e-16 -5.555702209472656
v 12.315502166748047 2.120148181915283 -6.037671089172363
v 12.928932189941406 6.123233998228043e-16 -7.071067810058594
v 13.642891883850098 4.378852367401123 -6.357108116149902
v 16.173166275024414 6.123233998228043e-16 -9.238795280456543
v 15.910923957824707 2.084592819213867 -8.884476661682129
v 18.049097061157227 6.123233998228043e-16 -9.807852745056152
v 17.976652145385742 2.0233471393585205 -9.581864356994629
v 15.702337265014648 4.297662734985352 -7.941044807434082
v 17.915407180786133 4.089075565338135 -8.884476661682129
v 10.761204719543457 6.123233998228043e-16 -3.8268344402313232
v 11.115523338317871 2.084592819213867 -4.089075565338135
v 10.192147254943848 6.123233998228043e-16 -1.9509031772613525
v 10.418135643005371 2.0233471393585205 -2.0233471393585205
v 12.058955192565918 4.297662734985352 -4.297662734985352
v 11.115523338317871 4.089075565338135 -2.084592819213867
v 17.879852294921875 6.037671089172363 -7.684497356414795
v 15.621148109436035 6.357108116149902 -6.357108116149902
v 17.879852294921875 7.684497356414795 -6.037671089172363
v 13.642891883850098 6.357108116149902 -4.378852367401123
v 12.315502166748047 6.037671089172363 -2.120148181915283
v 13.962328910827637 7.684497356414795 -2.120148181915283
v 15.702337265014648 7.941044807434082 -4.297662734985352
v 17.915407180786133 8.884476661682129 -4.089075565338135
v 15.910923957824707 8.884476661682129 -2.084592819213867
v 17.976652145385742 9.581864356994629 -2.0233471393585205
v 20 6.123233998228043e-16 -10
v 21.950902938842773 6.123233998228043e-16 -9.807852745056152
v 20 1.9509031772613525 -9.807852745056152
v 22.023347854614258 2.0233471393585205 -9.581864356994629
v 23.826833724975586 6.123233998228043e-16 -9.238795280456543
v 24.089075088500977 2.084592819213867 -8.884476661682129
v 20 3.8268344402313232 -9.238795280456543
v 22.084592819213867 4.089075565338135 -8.884476661682129
v 24.29766273498535 4.297662734985352 -7.941044807434082
v 25.555702209472656 6.123233998228043e-16 -8.314696311950684
v 26.037670135498047 2.120148181915283 -7.684497356414795
v 27.071067810058594 6.123233998228043e-16 -7.071067810058594
v 28.314695358276367 6.123233998228043e-16 -5.555702209472656
v 27.684497833251953 2.120148181915283 -6.037671089172363
v 26.35710906982422 4.378852367401123 -6.357108116149902
v 29.23879623413086 6.123233998228043e-16 -3.8268344402313232
v 28.884477615356445 2.084592819213867 -4.089075565338135
v 29.80785369873047 6.123233998228043e-16 -1.9509031772613525
v 29.581865310668945 2.0233471393585205 -2.0233471393585205
v 27.9410457611084 4.297662734985352 -4.297662734985352
v 28.884477615356445 4.089075565338135 -2.084592819213867
v 20 5.555702209472656 -8.314696311950684
v 22.120147705078125 6.037671089172363 -7.684497356414795
v 20 7.071067810058594 -7.071067810058594
v 24.37885284423828 6.357108116149902 -6.357108116149902
v 20 8.314696311950684 -5.555702209472656
v 22.120147705078125 7.684497356414795 -6.037671089172363
v 20 9.238795280456543 -3.8268344402313232
v 22.084592819213867 8.884476661682129 -4.089075565338135
v 24.29766273498535 7.941044807434082 -4.297662734985352
v 20 9.807852745056152 -1.9509031772613525
v 22.023347854614258 9.581864356994629 -2.0233471393585205
v 24.089075088500977 8.884476661682129 -2.084592819213867
v 26.35710906982422 6.357108116149902 -4.378852367401123
v 27.684497833251953 6.037671089172363 -2.120148181915283
v 26.037670135498047 7.684497356414795 -2.120148181915283
v 10 6.123233998228043e-16 6.123233998228043e-16
v 10 6.123233998228043e-16 6.123233998228043e-16
v 10.192147254943848 6.123233998228043e-16 1.9509031772613525
v 10.192147254943848 1.9509031772613525 6.123233998228043e-16
v 10.418135643005371 2.0233471393585205 2.0233471393585205
v 10.761204719543457 6.123233998228043e-16 3.8268344402313232
v 11.115523338317871 2.084592819213867 4.089075565338135
v 10.761204719543457 3.8268344402313232 6.123233998228043e-16
v 11.115523338317871 4.089075565338135 2.084592819213867
v 12.058955192565918 4.297662734985352 4.297662734985352
v 11.685303688049316 6.123233998228043e-16 5.555702209472656
v 12.315502166748047 2.120148181915283 6.037671089172363
v 12.928932189941406 6.123233998228043e-16 7.071067810058594
v 14.444297790527344 6.123233998228043e-16 8.314696311950684
v 13.962328910827637 2.120148181915283 7.684497356414795
v 13.642891883850098 4.378852367401123 6.357108116149902
v 16.173166275024414 6.123233998228043e-16 9.238795280456543
v 15.910923957824707 2.084592819213867 8.884476661682129
v 18.049097061157227 6.123233998228043e-16 9.807852745056152
v 17.976652145385742 2.0233471393585205 9.581864356994629
v 15.702337265014648 4.297662734985352 7.941044807434082
v 17.915407180786133 4.089075565338135 8.884476661682129
v 11.685303688049316 5.555702209472656 6.123233998228043e-16
v 12.315502166748047 6.037671089172363 2.120148181915283
v 12.928932189941406 7.071067810058594 6.123233998228043e-16
v 13.642891883850098 6.357108116149902 4.378852367401123
v 14.444297790527344 8.314696311950684 6.123233998228043e-16
v 13.962328910827637 7.684497356414795 2.120148181915283
v 16.173166275024414 9.238795280456543 6.123233998228043e-16
v 15.910923957824707 8.884476661682129 2.084592819213867
v 18.049097061157227 9.807852745056152 6.123233998228043e-16
v 17.976652145385742 9.581864356994629 2.0233471393585205
v 15.702337265014648 7.941044807434082 4.297662734985352
v 17.915407180786133 8.884476661682129 4.089075565338135
v 15.621148109436035 6.357108116149902 6.357108116149902
v 17.879852294921875 6.037671089172363 7.684497356414795
v 17.879852294921875 7.684497356414795 6.037671089172363
v 30 6.123233998228043e-16 6.123233998228043e-16
v 29.80785369873047 6.123233998228043e-16 1.9509031772613525
v 29.80785369873047 1.9509031772613525 6.123233998228043e-16
v 29.581865310668945 2.0233471393585205 2.0233471393585205
v 29.23879623413086 6.123233998228043e-16 3.8268344402313232
v 28.884477615356445 2.084592819213867 4.089075565338135
v 29.23879623413086 3.8268344402313232 6.123233998228043e-16
v 28.884477615356445 4.089075565338135 2.084592819213867
v 27.9410457611084 4.297662734985352 4.297662734985352
v 20 6.123233998228043e-16 10
v 21.950902938842773 6.123233998228043e-16 9.807852745056152
v 20 1.9509031772613525 9.807852745056152
v 22.023347854614258 2.0233471393585205 9.581864356994629
v 23.826833724975586 6.123233998228043e-16 9.238795280456543
v 24.089075088500977 2.084592819213867 8.884476661682129
v 20 3.8268344402313232 9.238795280456543
v 22.084592819213867 4.089075565338135 8.884476661682129
v 24.29766273498535 4.297662734985352 7.941044807434082
v 27.071067810058594 6.123233998228043e-16 7.071067810058594
v 28.314695358276367 6.123233998228043e-16 5.555702209472656
v 27.684497833251953 2.120148181915283 6.037671089172363
v 25.555702209472656 6.123233998228043e-16 8.314696311950684
v 26.037670135498047 2.120148181915283 7.684497356414795
v 26.35710906982422 4.378852367401123 6.357108116149902
v 20 10 6.123233998228043e-16
v 21.950902938842773 9.807852745056152 6.123233998228043e-16
v 20 9.807852745056152 1.9509031772613525
v 22.023347854614258 9.581864356994629 2.0233471393585205
v 23.826833724975586 9.238795280456543 6.123233998228043e-16
v 24.089075088500977 8.884476661682129 2.084592819213867
v 20 9.238795280456543 3.8268344402313232
v 22.084592819213867 8.884476661682129 4.089075565338135
v 24.29766273498535 7.941044807434082 4.297662734985352
v 27.071067810058594 7.071067810058594 6.123233998228043e-16
v 28.314695358276367 5.555702209472656 6.123233998228043e-16
v 27.684497833251953 6.037671089172363 2.120148181915283
v 26.35710906982422 6.357108116149902 4.378852367401123
v 25.555702209472656 8.314696311950684 6.123233998228043e-16
v 26.037670135498047 7.684497356414795 2.120148181915283
v 20 7.071067810058594 7.071067810058594
v 24.37885284423828 6.357108116149902 6.357108116149902
v 20 5.555702209472656 8.314696311950684
v 22.120147705078125 6.037671089172363 7.684497356414795
v 20 8.314696311950684 5.555702209472656
v 22.120147705078125 7.684497356414795 6.037671089172363
vn -0.23356275157143822 -0.7642260756069552 -0.6011713120573628
vn -0.23356275157143822 -0.6011713120573628 -0.7642260756069552
vn -0.4464178373472605 -0.632736562282517 -0.632736562282517
vn -0.6011713120573628 -0.7642260756069552 -0.23356275157143822
vn -0.632736562282517 -0.632736562282517 -0.4464178373472605
vn -0.7642261251244409 -0.6011712445177503 -0.23356276338976217
vn -0.43612725228888244 -0.7871378784062543 -0.43612725228888244
vn -0.22410611811595477 -0.8841507436145106 -0.40994378930397996
vn -0.40994378930397996 -0.8841507436145106 -0.22410611811595477
vn -0.20860274230126877 -0.9554945273567927 -0.20860274230126877
vn -0.632736562282517 -0.4464178373472605 -0.632736562282517
vn -0.6011712445177503 -0.23356276338976217 -0.7642261251244409
vn -0.7642261251244409 -0.23356276338976217 -0.6011712445177503
vn -0.43612725228888244 -0.43612725228888244 -0.7871378784062543
vn -0.22410611811595477 -0.40994378930397996 -0.8841507436145106
vn -0.40994378930397996 -0.22410611811595477 -0.8841507436145106
vn -0.20860274230126877 -0.20860274230126877 -0.9554945273567927
vn -0.7871378784062543 -0.43612725228888244 -0.43612725228888244
vn -0.8841507436145106 -0.40994378930397996 -0.22410611811595477
vn -0.8841507436145106 -0.22410611811595477 -0.40994378930397996
vn -0.9554945273567927 -0.20860274230126877 -0.20860274230126877
vn -1.5476658934512177e-9 -0.8391567518054149 -0.5438896449642935
vn 0.2335627493014828 -0.7642261277842199 -0.6011712466100403
vn -1.5476658934512177e-9 -0.5438896449642935 -0.8391567518054149
vn 0.2335627493014828 -0.6011712466100403 -0.7642261277842199
vn -1.6698168689327524e-9 -0.7071067811865476 -0.7071067811865476
vn 0.4464178134842093 -0.6327365707006265 -0.6327365707006265
vn 3.3487901379546005e-9 -0.932976962214385 -0.359936088739679
vn 0.2241061153779882 -0.8841507328125958 -0.40994381409790503
vn 0.43612725228888244 -0.7871378784062543 -0.43612725228888244
vn 6.760667070834742e-10 -0.9861362641580977 -0.16593754401072225
vn 0.20860272869695856 -0.9554945332969552 -0.20860272869695856
vn 0.40994378930397996 -0.8841507436145106 -0.22410611811595477
vn 0.6011712466100403 -0.7642261277842199 -0.2335627493014828
vn 0.6327366218871593 -0.6327365026778701 -0.4464178373472589
vn 0.7642261277842199 -0.6011712466100403 -0.2335627493014828
vn 3.3487901379546005e-9 -0.359936088739679 -0.932976962214385
vn 0.2241061153779882 -0.40994381409790503 -0.8841507328125958
vn 0.43612725228888244 -0.43612725228888244 -0.7871378784062543
vn 6.760667070834742e-10 -0.16593754401072225 -0.9861362641580977
vn 0.20860272869695856 -0.20860272869695856 -0.9554945332969552
vn 0.40994378930397996 -0.22410611811595477 -0.8841507436145106
vn 0.6327366218871593 -0.4464178373472589 -0.6327365026778701
vn 0.601171307872782 -0.23356277974799702 -0.764226070287397
vn 0.7642261277842199 -0.2335627493014828 -0.6011712466100403
vn 0.7871378784062543 -0.43612725228888244 -0.43612725228888244
vn 0.8841507436145106 -0.40994378930397996 -0.22410611811595477
vn 0.8841507436145106 -0.22410611811595477 -0.40994378930397996
vn 0.9554945273567927 -0.20860274230126877 -0.20860274230126877
vn -0.5438896449642935 -0.8391567518054149 -1.5476658934512177e-9
vn -0.6011712466100403 -0.7642261277842199 0.2335627493014828
vn -0.8391567518054149 -0.5438896449642935 -1.5476658934512177e-9
vn -0.7642261277842199 -0.6011712466100403 0.2335627493014828
vn -0.7071067811865476 -0.7071067811865476 -1.6698168689327524e-9
vn -0.6327365707006265 -0.6327365707006265 0.4464178134842093
vn -0.359936088739679 -0.932976962214385 3.3487901379546005e-9
vn -0.40994381409790503 -0.8841507328125958 0.2241061153779882
vn -0.16593752951986837 -0.9861362665964795 1.3998915487270587e-9
vn -0.20860272869695856 -0.9554945332969552 0.20860272869695856
vn -0.43612721336196425 -0.7871379215425054 0.43612721336196425
vn -0.22410611811595477 -0.8841507436145106 0.40994378930397996
vn -0.2335627493014828 -0.7642261277842199 0.6011712466100403
vn -0.4464178373472589 -0.6327365026778701 0.6327366218871593
vn -0.2335627493014828 -0.6011712466100403 0.7642261277842199
vn -0.932976962214385 -0.359936088739679 3.3487901379546005e-9
vn -0.8841507328125958 -0.40994381409790503 0.2241061153779882
vn -0.7871378784062543 -0.43612725228888244 0.43612725228888244
vn -0.9861362641580977 -0.16593754401072225 6.760667070834742e-10
vn -0.9554945332969552 -0.20860272869695856 0.20860272869695856
vn -0.8841507436145106 -0.22410611811595477 0.40994378930397996
vn -0.6327365026778701 -0.4464178373472589 0.6327366218871593
vn -0.764226070287397 -0.23356277974799702 0.601171307872782
vn -0.6011712466100403 -0.2335627493014828 0.7642261277842199
vn -0.43612725228888244 -0.43612725228888244 0.7871378784062543
vn -0.22410611811595477 -0.40994378930397996 0.8841507436145106
vn -0.40994378930397996 -0.22410611811595477 0.8841507436145106
vn -0.20860274230126877 -0.20860274230126877 0.9554945273567927
vn -9.046949300817175e-10 -1 -9.046949300817175e-10
vn 0.16593754401072225 -0.9861362641580977 8.739564685237914e-10
vn 8.739564685237914e-10 -0.9861362641580977 0.16593754401072225
vn 0.20860274230126877 -0.9554945273567927 0.20860274230126877
vn 0.359936088739679 -0.932976962214385 3.3487901379546005e-9
vn 0.40994378930397996 -0.8841507436145106 0.22410611811595477
vn 3.148121067010234e-9 -0.9329769522064049 0.3599361146809913
vn 0.22410611811595477 -0.8841507436145106 0.40994378930397996
vn 0.4361271948968587 -0.7871379420043191 0.4361271948968587
vn 0.5438896449642935 -0.8391567518054149 9.965264228086389e-10
vn 0.6011713120573628 -0.7642260756069552 0.23356275157143822
vn 0.7071067811865476 -0.7071067811865476 -1.5915967705279218e-9
vn 0.8391567518054149 -0.5438896449642935 -1.5476658934512177e-9
vn 0.7642261277842199 -0.6011712466100403 0.2335627493014828
vn 0.632736562282517 -0.632736562282517 0.4464178373472605
vn 9.965264228086389e-10 -0.8391567518054149 0.5438896449642935
vn 0.23356275157143822 -0.7642260756069552 0.6011713120573628
vn -1.5915967705279218e-9 -0.7071067811865476 0.7071067811865476
vn 0.4464178373472605 -0.632736562282517 0.632736562282517
vn -1.5476658934512177e-9 -0.5438896449642935 0.8391567518054149
vn 0.2335627493014828 -0.6011712466100403 0.7642261277842199
vn 0.932976962214385 -0.359936088739679 3.3487901379546005e-9
vn 0.8841507328125958 -0.40994381409790503 0.2241061153779882
vn 0.7871378784062543 -0.43612725228888244 0.43612725228888244
vn 0.9861362641580977 -0.16593754401072225 6.760667070834742e-10
vn 0.9554945332969552 -0.20860272869695856 0.20860272869695856
vn 0.8841507436145106 -0.22410611811595477 0.40994378930397996
vn 3.3487901379546005e-9 -0.359936088739679 0.932976962214385
vn 0.2241061153779882 -0.40994381409790503 0.8841507328125958
vn 0.43612725228888244 -0.43612725228888244 0.7871378784062543
vn 6.760667070834742e-10 -0.16593754401072225 0.9861362641580977
vn 0.20860272869695856 -0.20860272869695856 0.9554945332969552
vn 0.40994378930397996 -0.22410611811595477 0.8841507436145106
vn 0.6327365707006265 -0.4464178134842093 0.6327365707006265
vn 0.764226070287397 -0.23356277974799702 0.601171307872782
vn 0.601171307872782 -0.23356277974799702 0.764226070287397
vn -0.5438896449642935 -1.5476658934512177e-9 -0.8391567518054149
vn -0.6011712466100403 0.2335627493014828 -0.7642261277842199
vn -0.8391567518054149 -1.5476658934512177e-9 -0.5438896449642935
vn -0.7642261277842199 0.2335627493014828 -0.6011712466100403
vn -0.7071067811865476 -1.6698168689327524e-9 -0.7071067811865476
vn -0.6327365707006265 0.4464178134842093 -0.6327365707006265
vn -0.359936088739679 3.3487901379546005e-9 -0.932976962214385
vn -0.40994381409790503 0.2241061153779882 -0.8841507328125958
vn -0.16593752951986837 1.3998915487270587e-9 -0.9861362665964795
vn -0.20860272869695856 0.20860272869695856 -0.9554945332969552
vn -0.43612721336196425 0.43612721336196425 -0.7871379215425054
vn -0.22410611811595477 0.40994378930397996 -0.8841507436145106
vn -0.932976962214385 3.3487901379546005e-9 -0.359936088739679
vn -0.8841507328125958 0.2241061153779882 -0.40994381409790503
vn -0.9861362665964795 1.3998915487270587e-9 -0.16593752951986837
vn -0.9554945332969552 0.20860272869695856 -0.20860272869695856
vn -0.7871379215425054 0.43612721336196425 -0.43612721336196425
vn -0.8841507436145106 0.40994378930397996 -0.22410611811595477
vn -0.2335627493014828 0.6011712466100403 -0.7642261277842199
vn -0.4464178373472589 0.6327366218871593 -0.6327365026778701
vn -0.2335627493014828 0.7642261277842199 -0.6011712466100403
vn -0.6327365026778701 0.6327366218871593 -0.4464178373472589
vn -0.764226070287397 0.601171307872782 -0.23356277974799702
vn -0.6011712466100403 0.7642261277842199 -0.2335627493014828
vn -0.43612725228888244 0.7871378784062543 -0.43612725228888244
vn -0.22410611811595477 0.8841507436145106 -0.40994378930397996
vn -0.40994378930397996 0.8841507436145106 -0.22410611811595477
vn -0.20860274230126877 0.9554945273567927 -0.20860274230126877
vn -9.046949300817175e-10 -9.046949300817175e-10 -1
vn 0.16593754401072225 8.739564685237914e-10 -0.9861362641580977
vn 8.739564685237914e-10 0.16593754401072225 -0.9861362641580977
vn 0.20860274230126877 0.20860274230126877 -0.9554945273567927
vn 0.359936088739679 3.3487901379546005e-9 -0.932976962214385
vn 0.40994378930397996 0.22410611811595477 -0.8841507436145106
vn 3.148121067010234e-9 0.3599361146809913 -0.9329769522064049
vn 0.22410611811595477 0.40994378930397996 -0.8841507436145106
vn 0.4361271948968587 0.4361271948968587 -0.7871379420043191
vn 0.5438896449642935 9.965264228086389e-10 -0.8391567518054149
vn 0.6011713120573628 0.23356275157143822 -0.7642260756069552
vn 0.7071067811865476 -1.5915967705279218e-9 -0.7071067811865476
vn 0.8391567518054149 -1.5476658934512177e-9 -0.5438896449642935
vn 0.7642261277842199 0.2335627493014828 -0.6011712466100403
vn 0.632736562282517 0.4464178373472605 -0.632736562282517
vn 0.932976962214385 3.3487901379546005e-9 -0.359936088739679
vn 0.8841507328125958 0.2241061153779882 -0.40994381409790503
vn 0.9861362665964795 1.3998915487270587e-9 -0.16593752951986837
vn 0.9554945332969552 0.20860272869695856 -0.20860272869695856
vn 0.7871379215425054 0.43612721336196425 -0.43612721336196425
vn 0.8841507436145106 0.40994378930397996 -0.22410611811595477
vn 9.965264228086389e-10 0.5438896449642935 -0.8391567518054149
vn 0.23356275157143822 0.6011713120573628 -0.7642260756069552
vn -1.5915967705279218e-9 0.7071067811865476 -0.7071067811865476
vn 0.4464178373472605 0.632736562282517 -0.632736562282517
vn -1.5476658934512177e-9 0.8391567518054149 -0.5438896449642935
vn 0.2335627493014828 0.7642261277842199 -0.6011712466100403
vn 3.3487901379546005e-9 0.932976962214385 -0.359936088739679
vn 0.2241061153779882 0.8841507328125958 -0.40994381409790503
vn 0.43612725228888244 0.7871378784062543 -0.43612725228888244
vn 6.760667070834742e-10 0.9861362641580977 -0.16593754401072225
vn 0.20860272869695856 0.9554945332969552 -0.20860272869695856
vn 0.40994378930397996 0.8841507436145106 -0.22410611811595477
vn 0.6327365707006265 0.6327365707006265 -0.4464178134842093
vn 0.764226070287397 0.601171307872782 -0.23356277974799702
vn 0.601171307872782 0.764226070287397 -0.23356277974799702
vn -1 -9.046949300817175e-10 -9.046949300817175e-10
vn -0.9861362641580977 8.739564685237914e-10 0.16593754401072225
vn -0.9861362641580977 0.16593754401072225 8.739564685237914e-10
vn -0.9554945273567927 0.20860274230126877 0.20860274230126877
vn -0.932976962214385 3.3487901379546005e-9 0.359936088739679
vn -0.8841507436145106 0.22410611811595477 0.40994378930397996
vn -0.9329769522064049 0.3599361146809913 3.148121067010234e-9
vn -0.8841507436145106 0.40994378930397996 0.22410611811595477
vn -0.7871379420043191 0.4361271948968587 0.4361271948968587
vn -0.8391567518054149 9.965264228086389e-10 0.5438896449642935
vn -0.7642260756069552 0.23356275157143822 0.6011713120573628
vn -0.7071067811865476 -1.5915967705279218e-9 0.7071067811865476
vn -0.5438896449642935 -1.5476658934512177e-9 0.8391567518054149
vn -0.6011712466100403 0.2335627493014828 0.7642261277842199
vn -0.632736562282517 0.4464178373472605 0.632736562282517
vn -0.359936088739679 3.3487901379546005e-9 0.932976962214385
vn -0.40994381409790503 0.2241061153779882 0.8841507328125958
vn -0.16593752951986837 1.3998915487270587e-9 0.9861362665964795
vn -0.20860272869695856 0.20860272869695856 0.9554945332969552
vn -0.43612721336196425 0.43612721336196425 0.7871379215425054
vn -0.22410611811595477 0.40994378930397996 0.8841507436145106
vn -0.8391567518054149 0.5438896449642935 9.965264228086389e-10
vn -0.7642260756069552 0.6011713120573628 0.23356275157143822
vn -0.7071067811865476 0.7071067811865476 -1.5915967705279218e-9
vn -0.632736562282517 0.632736562282517 0.4464178373472605
vn -0.5438896449642935 0.8391567518054149 -1.5476658934512177e-9
vn -0.6011712466100403 0.7642261277842199 0.2335627493014828
vn -0.359936088739679 0.932976962214385 3.3487901379546005e-9
vn -0.40994381409790503 0.8841507328125958 0.2241061153779882
vn -0.16593752951986837 0.9861362665964795 1.3998915487270587e-9
vn -0.20860272869695856 0.9554945332969552 0.20860272869695856
vn -0.43612721336196425 0.7871379215425054 0.43612721336196425
vn -0.22410611811595477 0.8841507436145106 0.40994378930397996
vn -0.4464178134842093 0.6327365707006265 0.6327365707006265
vn -0.23356277974799702 0.601171307872782 0.764226070287397
vn -0.23356277974799702 0.764226070287397 0.601171307872782
vn 0.9861362641580977 8.739564685237914e-10 0.16593754401072225
vn 0.9861362641580977 0.16593754401072225 8.739564685237914e-10
vn 0.9554945273567927 0.20860274230126877 0.20860274230126877
vn 0.932976962214385 3.3487901379546005e-9 0.359936088739679
vn 0.8841507436145106 0.22410611811595477 0.40994378930397996
vn 0.9329769522064049 0.3599361146809913 3.148121067010234e-9
vn 0.8841507436145106 0.40994378930397996 0.22410611811595477
vn 0.7871379420043191 0.4361271948968587 0.4361271948968587
vn -9.046949300817175e-10 -9.046949300817175e-10 1
vn 0.16593754401072225 8.739564685237914e-10 0.9861362641580977
vn 8.739564685237914e-10 0.16593754401072225 0.9861362641580977
vn 0.20860274230126877 0.20860274230126877 0.9554945273567927
vn 0.359936088739679 3.3487901379546005e-9 0.932976962214385
vn 0.40994378930397996 0.22410611811595477 0.8841507436145106
vn 3.148121067010234e-9 0.3599361146809913 0.9329769522064049
vn 0.22410611811595477 0.40994378930397996 0.8841507436145106
vn 0.4361271948968587 0.4361271948968587 0.7871379420043191
vn 0.7071067811865476 4.048442539436491e-9 0.7071067811865476
vn 0.8391567518054149 9.965264228086389e-10 0.5438896449642935
vn 0.7642261277842199 0.2335627493014828 0.6011712466100403
vn 0.5438896449642935 9.965264228086389e-10 0.8391567518054149
vn 0.6011712466100403 0.2335627493014828 0.7642261277842199
vn 0.632736562282517 0.4464178373472605 0.632736562282517
vn -9.046949300817175e-10 1 -9.046949300817175e-10
vn 0.16593754401072225 0.9861362641580977 8.739564685237914e-10
vn 8.739564685237914e-10 0.9861362641580977 0.16593754401072225
vn 0.20860274230126877 0.9554945273567927 0.20860274230126877
vn 0.359936088739679 0.932976962214385 3.3487901379546005e-9
vn 0.40994378930397996 0.8841507436145106 0.22410611811595477
vn 3.148121067010234e-9 0.9329769522064049 0.3599361146809913
vn 0.22410611811595477 0.8841507436145106 0.40994378930397996
vn 0.4361271948968587 0.7871379420043191 0.4361271948968587
vn 0.7071067811865476 0.7071067811865476 4.048442539436491e-9
vn 0.8391567518054149 0.5438896449642935 9.965264228086389e-10
vn 0.7642261277842199 0.6011712466100403 0.2335627493014828
vn 0.632736562282517 0.632736562282517 0.4464178373472605
vn 0.5438896449642935 0.8391567518054149 9.965264228086389e-10
vn 0.6011713099650724 0.7642260729471761 0.2335627656597177
vn 4.048442539436491e-9 0.7071067811865476 0.7071067811865476
vn 0.4464178373472605 0.632736562282517 0.632736562282517
vn 9.965264228086389e-10 0.5438896449642935 0.8391567518054149
vn 0.2335627656597177 0.6011713099650724 0.7642260729471761
vn 9.965264228086389e-10 0.8391567518054149 0.5438896449642935
vn 0.2335627656597177 0.7642260729471761 0.6011713099650724
vn -0.23356277974799702 -0.764226070287397 -0.601171307872782
vn -0.23356277974799702 -0.601171307872782 -0.764226070287397
vn -0.4464178134842093 -0.6327365707006265 -0.6327365707006265
vn -0.601171307872782 -0.764226070287397 -0.23356277974799702
vn -0.6327365181228111 -0.6327365777274572 -0.44641787804653055
vn -0.7642261251244409 -0.6011712445177503 -0.23356276338976217
vn -0.4361272409516624 -0.7871378579444388 -0.43612730055630655
vn -0.2241061153779882 -0.8841507328125958 -0.40994381409790503
vn -0.4099438154668883 -0.8841507357651651 -0.22410610122521632
vn -0.20860272934538407 -0.9554945362670363 -0.20860271444422265
vn -0.6327365181228111 -0.44641787804653055 -0.6327365777274572
vn -0.6011713057804913 -0.2335627938362762 -0.7642260676276176
vn -0.7642261251244409 -0.23356276338976217 -0.6011712445177503
vn -0.4361272409516624 -0.43612730055630655 -0.7871378579444388
vn -0.2241061153779882 -0.40994381409790503 -0.8841507328125958
vn -0.4099438154668883 -0.22410610122521632 -0.8841507357651651
vn -0.20860272934538407 -0.20860271444422265 -0.9554945362670363
vn -0.7871378784062543 -0.43612725228888244 -0.43612725228888244
vn -0.8841507652183388 -0.40994373971612696 -0.2241061235918876
vn -0.8841507652183388 -0.2241061235918876 -0.40994373971612696
vn -0.9554945273567927 -0.20860274230126877 -0.20860274230126877
vn -1.5476660546462978e-9 -0.8391567790094915 -0.5438896029916508
vn 0.23356275157143822 -0.7642260756069552 -0.6011713120573628
vn -1.5476660546462978e-9 -0.5438896029916508 -0.8391567790094915
vn 0.23356275157143822 -0.6011713120573628 -0.7642260756069552
vn -1.6698172019996656e-9 -0.7071067811865476 -0.7071067811865476
vn 0.4464177011957781 -0.6327366401146534 -0.632736580510007
vn 3.348789657943152e-9 -0.9329769522064049 -0.3599361146809913
vn 0.22410612953075992 -0.8841507298600263 -0.4099438127289217
vn 0.43612720423736684 -0.7871379646787504 -0.4361271446327236
vn 6.760665422217035e-10 -0.9861362665964795 -0.16593752951986837
vn 0.20860277015831422 -0.9554945184465486 -0.20860275525715308
vn 0.4099438839206012 -0.884150695245841 -0.22410613586510442
vn 0.6011711874395836 -0.7642261879408152 -0.23356270476668714
vn 0.6327365482288454 -0.6327366674381321 -0.4464177082226157
vn 0.7642260359421359 -0.6011714469521335 -0.23356253414802475
vn 3.348789657943152e-9 -0.3599361146809913 -0.9329769522064049
vn 0.22410612953075992 -0.4099438127289217 -0.8841507298600263
vn 0.43612720423736684 -0.4361271446327236 -0.7871379646787504
vn 6.760665422217035e-10 -0.16593752951986837 -0.9861362665964795
vn 0.20860277015831422 -0.20860275525715308 -0.9554945184465486
vn 0.4099438839206012 -0.22410613586510442 -0.884150695245841
vn 0.6327365482288454 -0.4464177082226157 -0.6327366674381321
vn 0.6011711874395836 -0.23356270476668714 -0.7642261879408152
vn 0.7642260359421359 -0.23356253414802475 -0.6011714469521335
vn 0.7871378784062543 -0.43612725228888244 -0.43612725228888244
vn 0.8841506845164235 -0.4099439981551065 -0.22410596923274018
vn 0.8841506845164235 -0.22410596923274018 -0.4099439981551065
vn 0.9554945273567927 -0.20860274230126877 -0.20860274230126877
vn -0.5438895757875755 -0.8391567966414923 2.1365170493482163e-10
vn -0.601171307872782 -0.764226070287397 0.23356277974799702
vn -0.8391568238455664 -0.5438895338149291 -1.54766602740846e-9
vn -0.7642261251244409 -0.6011712445177503 0.23356276338976217
vn -0.7071067513842252 -0.7071068109888685 -3.7170072755181196e-9
vn -0.6327365181228111 -0.6327365777274572 0.44641787804653055
vn -0.3599361146809913 -0.9329769522064049 2.4805477434507104e-9
vn -0.40994384026081254 -0.88415072496325 0.2241060984872498
vn -0.16593754401072225 -0.9861362641580977 -8.726138758112496e-10
vn -0.20860272934538407 -0.9554945362670363 0.20860271444422265
vn -0.4361272224865592 -0.7871378784062535 0.43612728209120494
vn -0.22410611264002153 -0.8841507220106807 0.4099438388918292
vn -0.2335627656597177 -0.7642260729471761 0.6011713099650724
vn -0.4464178134842093 -0.6327365707006265 0.6327365707006265
vn -0.23356277974799702 -0.601171307872782 0.764226070287397
vn -0.932976962214385 -0.359936088739679 3.3487901379546005e-9
vn -0.8841507652183388 -0.40994373971612696 0.2241061235918876
vn -0.7871378784062543 -0.43612725228888244 0.43612725228888244
vn -0.9861362641580977 -0.16593754401072225 6.760667070834742e-10
vn -0.9554945332969552 -0.20860272869695856 0.20860272869695856
vn -0.8841507652183388 -0.2241061235918876 0.40994373971612696
vn -0.6327364416819415 -0.44641792577262596 0.6327366204958751
vn -0.764226070287397 -0.23356277974799702 0.601171307872782
vn -0.6011713057804913 -0.2335627938362762 0.7642260676276176
vn -0.4361272409516624 -0.43612730055630655 0.7871378579444388
vn -0.2241061153779882 -0.40994381409790503 0.8841507328125958
vn -0.4099438154668883 -0.22410610122521632 0.8841507357651651
vn -0.20860272934538407 -0.20860271444422265 0.9554945362670363
vn -9.046950966151712e-10 -1 1.3142909070090747e-12
vn 0.16593754401072225 -0.9861362641580977 -1.4208554426887727e-9
vn 8.739563019903367e-10 -0.9861362641580977 0.16593754401072225
vn 0.20860275720243 -0.9554945273567925 0.20860272740010746
vn 0.3599361406223028 -0.9329769421984243 -3.4917708015680748e-9
vn 0.40994388528958486 -0.8841506981984105 0.22410612171233232
vn 3.1481204008764254e-9 -0.9329769522064049 0.3599361146809913
vn 0.2241061527558439 -0.8841507030951875 0.40994385775769354
vn 0.43612718010365303 -0.7871379749096571 0.43612715030133103
vn 0.5438895757875755 -0.8391567966414923 1.3581895449124164e-9
vn 0.6011712169160812 -0.7642261658075441 0.23356270131752221
vn 0.7071067513842252 -0.7071068109888685 3.096100243062026e-10
vn 0.8391566349291562 -0.5438898252903567 -3.5878123006015135e-9
vn 0.7642260359421359 -0.6011714469521335 0.23356253414802475
vn 0.6327365040691422 -0.6327366828830765 0.44641774892188313
vn 9.965266448532453e-10 -0.8391567518054149 0.5438896449642935
vn 0.23356275157143822 -0.7642260756069552 0.6011713120573628
vn -1.591597103594835e-9 -0.7071067811865476 0.7071067811865476
vn 0.4464177082226172 -0.632736607833491 0.632736607833491
vn -1.5476660546462978e-9 -0.5438896029916508 0.8391567790094915
vn 0.23356275157143822 -0.6011713120573628 0.7642260756069552
vn 0.9329768466904991 -0.359936388184708 9.702284580884622e-10
vn 0.8841506786112883 -0.40994399541714027 0.22410599753828578
vn 0.7871378784062543 -0.43612725228888244 0.43612725228888244
vn 0.9861362901831325 -0.16593738934866023 -2.3770174064936976e-9
vn 0.9554945332969552 -0.20860272869695856 0.20860272869695856
vn 0.8841506786112883 -0.22410599753828578 0.40994399541714027
vn 3.348789657943152e-9 -0.3599361146809913 0.9329769522064049
vn 0.22410612953075992 -0.4099438127289217 0.8841507298600263
vn 0.43612720423736684 -0.4361271446327236 0.7871379646787504
vn 6.760665422217035e-10 -0.16593752951986837 0.9861362665964795
vn 0.20860277015831422 -0.20860275525715308 0.9554945184465486
vn 0.4099438839206012 -0.22410613586510442 0.884150695245841
vn 0.6327364886241954 -0.4464177082226109 0.6327367270427686
vn 0.7642260058981453 -0.2335625398671502 0.6011714829229459
vn 0.6011711895318731 -0.23356269067840735 0.764226190600594
vn -0.5438895757875755 2.1365170493482163e-10 -0.8391567966414923
vn -0.601171307872782 0.23356277974799702 -0.764226070287397
vn -0.8391568238455664 -1.54766602740846e-9 -0.5438895338149291
vn -0.7642261251244409 0.23356276338976217 -0.6011712445177503
vn -0.7071067513842252 -3.7170072755181196e-9 -0.7071068109888685
vn -0.6327365181228111 0.44641787804653055 -0.6327365777274572
vn -0.3599361146809913 2.4805477434507104e-9 -0.9329769522064049
vn -0.40994384026081254 0.2241060984872498 -0.88415072496325
vn -0.16593754401072225 -8.726138758112496e-10 -0.9861362641580977
vn -0.20860272934538407 0.20860271444422265 -0.9554945362670363
vn -0.4361272224865592 0.43612728209120494 -0.7871378784062535
vn -0.22410611264002153 0.4099438388918292 -0.8841507220106807
vn -0.932976962214385 3.3487901379546005e-9 -0.359936088739679
vn -0.8841507652183388 0.2241061235918876 -0.40994373971612696
vn -0.9861362665964795 1.3998915487270587e-9 -0.16593752951986837
vn -0.9554945332969552 0.20860272869695856 -0.20860272869695856
vn -0.7871379215425054 0.43612721336196425 -0.43612721336196425
vn -0.8841507652183388 0.40994373971612696 -0.2241061235918876
vn -0.2335627656597177 0.6011713099650724 -0.7642260729471761
vn -0.4464178134842093 0.6327365707006265 -0.6327365707006265
vn -0.23356277974799702 0.764226070287397 -0.601171307872782
vn -0.6327364416819415 0.6327366204958751 -0.44641792577262596
vn -0.764226070287397 0.601171307872782 -0.23356277974799702
vn -0.6011713057804913 0.7642260676276176 -0.2335627938362762
vn -0.4361272409516624 0.7871378579444388 -0.43612730055630655
vn -0.2241061153779882 0.8841507328125958 -0.40994381409790503
vn -0.4099438154668883 0.8841507357651651 -0.22410610122521632
vn -0.20860272934538407 0.9554945362670363 -0.20860271444422265
vn -9.046950966151712e-10 1.3142909070090747e-12 -1
vn 0.16593754401072225 -1.4208554426887727e-9 -0.9861362641580977
vn 8.739563019903367e-10 0.16593754401072225 -0.9861362641580977
vn 0.20860275720243 0.20860272740010746 -0.9554945273567925
vn 0.3599361406223028 -3.4917708015680748e-9 -0.9329769421984243
vn 0.40994388528958486 0.22410612171233232 -0.8841506981984105
vn 3.1481204008764254e-9 0.3599361146809913 -0.9329769522064049
vn 0.2241061527558439 0.40994385775769354 -0.8841507030951875
vn 0.43612718010365303 0.43612715030133103 -0.7871379749096571
vn 0.5438895757875755 1.3581895449124164e-9 -0.8391567966414923
vn 0.6011712169160812 0.23356270131752221 -0.7642261658075441
vn 0.7071067513842252 3.096100243062026e-10 -0.7071068109888685
vn 0.8391566349291562 -3.5878123006015135e-9 -0.5438898252903567
vn 0.7642260359421359 0.23356253414802475 -0.6011714469521335
vn 0.6327365040691422 0.44641774892188313 -0.6327366828830765
vn 0.9329768466904991 9.702284580884622e-10 -0.359936388184708
vn 0.8841506786112883 0.22410599753828578 -0.40994399541714027
vn 0.9861362926215118 -2.3710521842089404e-9 -0.1659373748578061
vn 0.9554945332969552 0.20860272869695856 -0.20860272869695856
vn 0.7871379215425054 0.43612721336196425 -0.43612721336196425
vn 0.8841506786112883 0.40994399541714027 -0.22410599753828578
vn 9.965266448532453e-10 0.5438896449642935 -0.8391567518054149
vn 0.23356275157143822 0.6011713120573628 -0.7642260756069552
vn -1.591597103594835e-9 0.7071067811865476 -0.7071067811865476
vn 0.4464177082226172 0.632736607833491 -0.632736607833491
vn -1.5476660546462978e-9 0.8391567790094915 -0.5438896029916508
vn 0.23356275157143822 0.7642260756069552 -0.6011713120573628
vn 3.348789657943152e-9 0.9329769522064049 -0.3599361146809913
vn 0.22410612953075992 0.8841507298600263 -0.4099438127289217
vn 0.43612720423736684 0.7871379646787504 -0.4361271446327236
vn 6.760665422217035e-10 0.9861362665964795 -0.16593752951986837
vn 0.20860277015831422 0.9554945184465486 -0.20860275525715308
vn 0.4099438839206012 0.884150695245841 -0.22410613586510442
vn 0.6327364886241954 0.6327367270427686 -0.4464177082226109
vn 0.7642260058981453 0.6011714829229459 -0.2335625398671502
vn 0.6011711895318731 0.764226190600594 -0.23356269067840735
vn 1 -9.046949300817175e-10 -9.046949300817175e-10
vn -1 -9.046949300817175e-10 -9.046949300817175e-10
vn -0.9861362641580977 8.739564685237914e-10 0.16593754401072225
vn -0.9861362641580977 0.16593754401072225 8.739564685237914e-10
vn -0.9554945273567927 0.20860274230126877 0.20860274230126877
vn -0.932976962214385 3.3487901379546005e-9 0.359936088739679
vn -0.8841507622657688 0.22410613774465976 0.40994373834714376
vn -0.9329769522064049 0.3599361146809913 3.148121067010234e-9
vn -0.8841507622657688 0.40994373834714376 0.22410613774465976
vn -0.787137931773412 0.43612721903057283 0.4361271892282502
vn -0.8391567966414923 1.6073626685706706e-9 0.5438895757875755
vn -0.7642260756069552 0.23356275157143822 0.6011713120573628
vn -0.7071067513842252 6.644188921479887e-10 0.7071068109888685
vn -0.5438895757875755 2.1365170493482163e-10 0.8391567966414923
vn -0.601171307872782 0.23356277974799702 0.764226070287397
vn -0.6327365012865906 0.4464179257726291 0.6327365608912351
vn -0.3599361146809913 2.4805477434507104e-9 0.9329769522064049
vn -0.4099438168358715 0.22410608707244434 0.8841507387177344
vn -0.16593754401072225 -8.726138758112496e-10 0.9861362641580977
vn -0.20860272934538407 0.20860271444422265 0.9554945362670363
vn -0.4361272224865592 0.43612728209120494 0.7871378784062535
vn -0.22410613586510442 0.4099438839206012 0.884150695245841
vn -0.8391567966414923 0.5438895757875755 1.6073626685706706e-9
vn -0.7642260756069552 0.6011713120573628 0.23356275157143822
vn -0.7071067513842252 0.7071068109888685 6.644188921479887e-10
vn -0.6327365012865906 0.6327365608912351 0.4464179257726291
vn -0.5438895757875755 0.8391567966414923 2.1365170493482163e-10
vn -0.6011713057804913 0.7642260676276176 0.2335627938362762
vn -0.3599361146809913 0.9329769522064049 2.4805477434507104e-9
vn -0.4099438168358715 0.8841507387177344 0.22410608707244434
vn -0.16593754401072225 0.9861362641580977 -8.726138758112496e-10
vn -0.20860272934538407 0.9554945362670363 0.20860271444422265
vn -0.4361272224865592 0.7871378784062535 0.43612728209120494
vn -0.22410613586510442 0.884150695245841 0.4099438839206012
vn -0.44641778962115714 0.6327365791187357 0.6327365791187357
vn -0.2335627938362762 0.6011713057804913 0.7642260676276176
vn -0.2335627938362762 0.7642260676276176 0.6011713057804913
vn 1 2.13273523841373e-10 2.13273523841373e-10
vn 0.9861362926215118 3.3879191938294375e-9 0.1659373748578061
vn 0.9861362926215118 0.1659373748578061 3.3879191938294375e-9
vn 0.9554945273567927 0.20860274230126877 0.20860274230126877
vn 0.9329768466904991 9.702284580884622e-10 0.359936388184708
vn 0.8841506786112883 0.22410599753828578 0.40994399541714027
vn 0.9329768366825119 0.35993641412601396 2.21639994000146e-9
vn 0.8841506786112883 0.40994399541714027 0.22410599753828578
vn 0.7871379420043191 0.4361271948968587 0.4361271948968587
vn -9.046950966151712e-10 1.3142909070090747e-12 1
vn 0.16593754401072225 -1.4208554426887727e-9 0.9861362641580977
vn 8.739563019903367e-10 0.16593754401072225 0.9861362641580977
vn 0.20860275720243 0.20860272740010746 0.9554945273567925
vn 0.3599361406223028 -3.4917708015680748e-9 0.9329769421984243
vn 0.40994384026081254 0.2241060984872498 0.88415072496325
vn 3.1481204008764254e-9 0.3599361146809913 0.9329769522064049
vn 0.22410612953075992 0.4099438127289217 0.8841507298600263
vn 0.43612718010365303 0.43612715030133103 0.7871379749096571
vn 0.7071067513842252 1.5624394719927965e-9 0.7071068109888685
vn 0.8391566349291562 1.8612483937776807e-9 0.5438898252903567
vn 0.7642260359421359 0.23356253414802475 0.6011714469521335
vn 0.5438895757875755 1.3581895449124164e-9 0.8391567966414923
vn 0.6011711895318731 0.23356269067840735 0.764226190600594
vn 0.6327364528825947 0.44641772505882316 0.6327367509058225
vn -9.046950966151712e-10 1 1.3142909070090747e-12
vn 0.16593754401072225 0.9861362641580977 -1.4208554426887727e-9
vn 8.739563019903367e-10 0.9861362641580977 0.16593754401072225
vn 0.20860275720243 0.9554945273567925 0.20860272740010746
vn 0.3599361406223028 0.9329769421984243 -3.4917708015680748e-9
vn 0.40994384026081254 0.88415072496325 0.2241060984872498
vn 3.1481204008764254e-9 0.9329769522064049 0.3599361146809913
vn 0.22410612953075992 0.8841507298600263 0.4099438127289217
vn 0.43612718010365303 0.7871379749096571 0.43612715030133103
vn 0.7071067513842252 0.7071068109888685 1.5624394719927965e-9
vn 0.8391566349291562 0.5438898252903567 1.8612483937776807e-9
vn 0.7642260359421359 0.6011714469521335 0.23356253414802475
vn 0.6327364528825947 0.6327367509058225 0.44641772505882316
vn 0.5438895757875755 0.8391567966414923 1.3581895449124164e-9
vn 0.6011711895318731 0.764226190600594 0.23356269067840735
vn 4.048443427614926e-9 0.7071067811865476 0.7071067811865476
vn 0.44641772505883265 0.6327366316965449 0.6327365720918994
vn 9.965266448532453e-10 0.5438896449642935 0.8391567518054149
vn 0.23356275157143822 0.6011713120573628 0.7642260756069552
vn 9.965266448532453e-10 0.8391567518054149 0.5438896449642935
vn 0.23356275157143822 0.7642260756069552 0.6011713120573628
f 5//5 3//3 7//7
f 11//11 14//14 3//3
f 5//5 18//18 11//11
f 5//5 11//11 3//3
f 1//1 22//22 8//8
f 1//1 26//26 22//22
f 2//2 15//15 24//24
f 2//2 24//24 26//26
f 3//3 2//2 1//1
f 3//3 1//1 7//7
f 3//3 14//14 2//2
f 1//1 2//2 26//26
f 4//4 9//9 50//50
f 4//4 50//50 54//54
f 6//6 5//5 4//4
f 4//4 5//5 7//7
f 6//6 18//18 5//5
f 6//6 52//52 19//19
f 6//6 54//54 52//52
f 6//6 4//4 54//54
f 9//9 8//8 10//10
f 1//1 8//8 7//7
f 4//4 7//7 9//9
f 7//7 8//8 9//9
f 8//8 22//22 28//28
f 8//8 28//28 10//10
f 10//10 28//28 31//31
f 9//9 10//10 56//56
f 9//9 56//56 50//50
f 10//10 58//58 56//56
f 10//10 31//31 58//58
f 58//58 31//31 78//78
f 13//13 12//12 11//11
f 11//11 12//12 14//14
f 13//13 11//11 18//18
f 12//12 114//114 16//16
f 12//12 118//118 114//114
f 13//13 20//20 116//116
f 13//13 116//116 118//118
f 13//13 118//118 12//12
f 2//2 14//14 15//15
f 16//16 17//17 15//15
f 12//12 16//16 14//14
f 14//14 16//16 15//15
f 15//15 37//37 24//24
f 15//15 17//17 37//37
f 17//17 40//40 37//37
f 16//16 120//120 17//17
f 16//16 114//114 120//120
f 17//17 120//120 122//122
f 17//17 122//122 40//40
f 122//122 142//142 40//40
f 6//6 19//19 18//18
f 13//13 18//18 20//20
f 19//19 21//21 20//20
f 18//18 19//19 20//20
f 19//19 52//52 65//65
f 19//19 65//65 21//21
f 21//21 65//65 68//68
f 20//20 21//21 126//126
f 20//20 126//126 116//116
f 21//21 128//128 126//126
f 21//21 68//68 128//128
f 68//68 178//178 128//128
f 22//22 26//26 23//23
f 22//22 23//23 29//29
f 24//24 25//25 26//26
f 24//24 38//38 25//25
f 23//23 26//26 25//25
f 23//23 25//25 27//27
f 23//23 27//27 30//30
f 25//25 39//39 27//27
f 27//27 35//35 30//30
f 27//27 39//39 43//43
f 27//27 43//43 35//35
f 35//35 43//43 46//46
f 22//22 29//29 28//28
f 28//28 32//32 31//31
f 28//28 29//29 32//32
f 29//29 33//33 32//32
f 23//23 30//30 29//29
f 29//29 30//30 33//33
f 30//30 34//34 33//33
f 31//31 32//32 79//79
f 31//31 79//79 78//78
f 32//32 33//33 82//82
f 32//32 82//82 79//79
f 33//33 87//87 82//82
f 33//33 34//34 87//87
f 34//34 89//89 87//87
f 30//30 35//35 34//34
f 34//34 35//35 36//36
f 35//35 46//46 36//36
f 34//34 36//36 89//89
f 36//36 47//47 90//90
f 36//36 90//90 89//89
f 24//24 37//37 38//38
f 37//37 40//40 41//41
f 37//37 41//41 38//38
f 25//25 38//38 39//39
f 38//38 41//41 42//42
f 38//38 42//42 39//39
f 39//39 42//42 44//44
f 40//40 143//143 41//41
f 40//40 142//142 143//143
f 41//41 146//146 42//42
f 41//41 143//143 146//146
f 42//42 146//146 151//151
f 39//39 44//44 43//43
f 43//43 44//44 45//45
f 43//43 45//45 46//46
f 42//42 151//151 44//44
f 44//44 151//151 153//153
f 44//44 153//153 45//45
f 45//45 154//154 48//48
f 45//45 153//153 154//154
f 36//36 46//46 47//47
f 45//45 48//48 46//46
f 46//46 48//48 47//47
f 47//47 48//48 49//49
f 47//47 99//99 90//90
f 47//47 49//49 99//99
f 49//49 102//102 99//99
f 48//48 157//157 49//49
f 48//48 154//154 157//157
f 49//49 157//157 159//159
f 49//49 159//159 102//102
f 102//102 159//159 435//435
f 50//50 51//51 54//54
f 50//50 57//57 51//51
f 52//52 54//54 53//53
f 52//52 53//53 66//66
f 53//53 54//54 51//51
f 53//53 51//51 55//55
f 51//51 60//60 55//55
f 53//53 55//55 67//67
f 50//50 56//56 57//57
f 56//56 58//58 59//59
f 56//56 59//59 57//57
f 58//58 78//78 80//80
f 58//58 80//80 59//59
f 57//57 59//59 61//61
f 51//51 57//57 60//60
f 57//57 61//61 60//60
f 60//60 61//61 62//62
f 59//59 84//84 61//61
f 59//59 80//80 84//84
f 61//61 84//84 93//93
f 55//55 60//60 63//63
f 55//55 71//71 67//67
f 55//55 63//63 71//71
f 71//71 63//63 74//74
f 61//61 93//93 62//62
f 62//62 93//93 95//95
f 60//60 62//62 63//63
f 63//63 62//62 64//64
f 63//63 64//64 74//74
f 62//62 95//95 64//64
f 64//64 97//97 75//75
f 64//64 95//95 97//97
f 52//52 66//66 65//65
f 65//65 69//69 68//68
f 65//65 66//66 69//69
f 53//53 67//67 66//66
f 66//66 70//70 69//69
f 66//66 67//67 70//70
f 67//67 72//72 70//70
f 68//68 69//69 179//179
f 68//68 179//179 178//178
f 69//69 70//70 182//182
f 69//69 182//182 179//179
f 70//70 187//187 182//182
f 67//67 71//71 72//72
f 72//72 71//71 73//73
f 71//71 74//74 73//73
f 70//70 72//72 187//187
f 72//72 189//189 187//187
f 72//72 73//73 189//189
f 73//73 76//76 190//190
f 73//73 190//190 189//189
f 64//64 75//75 74//74
f 73//73 74//74 76//76
f 74//74 75//75 76//76
f 76//76 75//75 77//77
f 75//75 97//97 105//105
f 75//75 105//105 77//77
f 77//77 105//105 108//108
f 76//76 77//77 193//193
f 76//76 193//193 190//190
f 77//77 195//195 193//193
f 77//77 108//108 195//195
f 195//195 108//108 222//222
f 78//78 79//79 80//80
f 80//80 79//79 81//81
f 79//79 82//82 81//81
f 82//82 87//87 83//83
f 81//81 82//82 83//83
f 80//80 81//81 84//84
f 81//81 85//85 84//84
f 84//84 85//85 93//93
f 81//81 83//83 85//85
f 85//85 83//83 86//86
f 83//83 88//88 86//86
f 85//85 86//86 94//94
f 87//87 89//89 88//88
f 83//83 87//87 88//88
f 88//88 89//89 91//91
f 89//89 90//90 91//91
f 90//90 100//100 91//91
f 86//86 88//88 92//92
f 88//88 91//91 92//92
f 92//92 91//91 101//101
f 93//93 94//94 95//95
f 85//85 94//94 93//93
f 94//94 98//98 95//95
f 86//86 96//96 94//94
f 94//94 96//96 98//98
f 98//98 96//96 107//107
f 95//95 98//98 97//97
f 97//97 98//98 106//106
f 86//86 92//92 96//96
f 96//96 92//92 111//111
f 92//92 101//101 111//111
f 96//96 111//111 107//107
f 90//90 99//99 100//100
f 99//99 102//102 103//103
f 99//99 103//103 100//100
f 91//91 100//100 101//101
f 100//100 104//104 101//101
f 100//100 103//103 104//104
f 101//101 104//104 112//112
f 102//102 214//214 103//103
f 102//102 435//435 214//214
f 103//103 217//217 104//104
f 103//103 214//214 217//217
f 104//104 217//217 232//232
f 97//97 106//106 105//105
f 105//105 109//109 108//108
f 105//105 106//106 109//109
f 98//98 107//107 106//106
f 106//106 107//107 110//110
f 107//107 113//113 110//110
f 106//106 110//110 109//109
f 108//108 109//109 223//223
f 108//108 223//223 222//222
f 109//109 110//110 226//226
f 109//109 226//226 223//223
f 110//110 234//234 226//226
f 101//101 112//112 111//111
f 107//107 111//111 113//113
f 111//111 112//112 113//113
f 113//113 112//112 231//231
f 104//104 232//232 112//112
f 112//112 232//232 231//231
f 110//110 113//113 234//234
f 113//113 231//231 234//234
f 114//114 118//118 115//115
f 114//114 115//115 121//121
f 116//116 117//117 118//118
f 116//116 127//127 117//117
f 117//117 115//115 118//118
f 117//117 119//119 115//115
f 115//115 119//119 124//124
f 117//117 130//130 119//119
f 114//114 121//121 120//120
f 120//120 123//123 122//122
f 120//120 121//121 123//123
f 122//122 144//144 142//142
f 122//122 123//123 144//144
f 121//121 125//125 123//123
f 115//115 124//124 121//121
f 121//121 124//124 125//125
f 124//124 132//132 125//125
f 123//123 125//125 148//148
f 123//123 148//148 144//144
f 125//125 163//163 148//148
f 116//116 126//126 127//127
f 126//126 128//128 129//129
f 126//126 129//129 127//127
f 128//128 178//178 180//180
f 128//128 180//180 129//129
f 117//117 127//127 130//130
f 127//127 129//129 131//131
f 127//127 131//131 130//130
f 130//130 131//131 136//136
f 129//129 184//184 131//131
f 129//129 180//180 184//184
f 131//131 184//184 199//199
f 119//119 133//133 124//124
f 119//119 130//130 135//135
f 119//119 135//135 133//133
f 135//135 138//138 133//133
f 125//125 132//132 163//163
f 132//132 165//165 163//163
f 124//124 133//133 132//132
f 133//133 134//134 132//132
f 133//133 138//138 134//134
f 132//132 134//134 165//165
f 134//134 139//139 167//167
f 134//134 167//167 165//165
f 130//130 136//136 135//135
f 136//136 137//137 135//135
f 135//135 137//137 138//138
f 131//131 199//199 136//136
f 136//136 199//199 201//201
f 136//136 201//201 137//137
f 137//137 203//203 140//140
f 137//137 201//201 203//203
f 134//134 138//138 139//139
f 137//137 140//140 138//138
f 138//138 140//140 139//139
f 140//140 141//141 139//139
f 139//139 169//169 167//167
f 139//139 141//141 169//169
f 141//141 172//172 169//169
f 140//140 205//205 141//141
f 140//140 203//203 205//205
f 141//141 205//205 207//207
f 141//141 207//207 172//172
f 207//207 237//237 172//172
f 142//142 144//144 143//143
f 144//144 145//145 143//143
f 143//143 145//145 146//146
f 146//146 147//147 151//151
f 145//145 147//147 146//146
f 144//144 148//148 145//145
f 145//145 148//148 149//149
f 148//148 163//163 149//149
f 145//145 149//149 147//147
f 149//149 150//150 147//147
f 147//147 150//150 152//152
f 149//149 164//164 150//150
f 151//151 152//152 153//153
f 147//147 152//152 151//151
f 152//152 155//155 153//153
f 153//153 155//155 154//154
f 154//154 155//155 158//158
f 150//150 156//156 152//152
f 152//152 156//156 155//155
f 156//156 161//161 155//155
f 154//154 158//158 157//157
f 157//157 160//160 159//159
f 157//157 158//158 160//160
f 159//159 215//215 435//435
f 159//159 160//160 215//215
f 155//155 161//161 158//158
f 158//158 161//161 162//162
f 158//158 162//162 160//160
f 161//161 176//176 162//162
f 160//160 162//162 219//219
f 160//160 219//219 215//215
f 162//162 247//247 219//219
f 163//163 165//165 164//164
f 149//149 163//163 164//164
f 164//164 165//165 168//168
f 150//150 164//164 166//166
f 164//164 168//168 166//166
f 168//168 171//171 166//166
f 165//165 167//167 168//168
f 167//167 170//170 168//168
f 150//150 166//166 156//156
f 166//166 175//175 156//156
f 156//156 175//175 161//161
f 166//166 171//171 175//175
f 167//167 169//169 170//170
f 169//169 172//172 173//173
f 169//169 173//173 170//170
f 168//168 170//170 171//171
f 170//170 174//174 171//171
f 171//171 174//174 177//177
f 170//170 173//173 174//174
f 172//172 238//238 173//173
f 172//172 237//237 238//238
f 173//173 241//241 174//174
f 173//173 238//238 241//241
f 174//174 241//241 250//250
f 161//161 175//175 176//176
f 171//171 177//177 175//175
f 175//175 177//177 176//176
f 177//177 246//246 176//176
f 162//162 176//176 247//247
f 176//176 246//246 247//247
f 174//174 250//250 177//177
f 177//177 250//250 246//246
f 178//178 179//179 180//180
f 179//179 181//181 180//180
f 179//179 182//182 181//181
f 182//182 187//187 183//183
f 181//181 182//182 183//183
f 180//180 181//181 184//184
f 181//181 185//185 184//184
f 184//184 185//185 199//199
f 181//181 183//183 185//185
f 183//183 186//186 185//185
f 183//183 188//188 186//186
f 185//185 186//186 200//200
f 187//187 189//189 188//188
f 183//183 187//187 188//188
f 188//188 189//189 191//191
f 189//189 190//190 191//191
f 190//190 194//194 191//191
f 186//186 188//188 192//192
f 188//188 191//191 192//192
f 191//191 197//197 192//192
f 190//190 193//193 194//194
f 193//193 195//195 196//196
f 193//193 196//196 194//194
f 195//195 222//222 224//224
f 195//195 224//224 196//196
f 191//191 194//194 197//197
f 194//194 198//198 197//197
f 194//194 196//196 198//198
f 197//197 198//198 212//212
f 196//196 228//228 198//198
f 196//196 224//224 228//228
f 198//198 228//228 254//254
f 199//199 200//200 201//201
f 185//185 200//200 199//199
f 200//200 204//204 201//201
f 186//186 202//202 200//200
f 200//200 202//202 204//204
f 202//202 209//209 204//204
f 201//201 204//204 203//203
f 203//203 204//204 206//206
f 203//203 206//206 205//205
f 205//205 208//208 207//207
f 205//205 206//206 208//208
f 207//207 239//239 237//237
f 207//207 208//208 239//239
f 204//204 209//209 206//206
f 206//206 209//209 210//210
f 209//209 213//213 210//210
f 206//206 210//210 208//208
f 208//208 210//210 243//243
f 208//208 243//243 239//239
f 210//210 256//256 243//243
f 186//186 192//192 202//202
f 192//192 211//211 202//202
f 192//192 197//197 211//211
f 202//202 211//211 209//209
f 197//197 212//212 211//211
f 209//209 211//211 213//213
f 211//211 212//212 213//213
f 212//212 252//252 213//213
f 198//198 254//254 212//212
f 212//212 254//254 252//252
f 210//210 213//213 256//256
f 213//213 252//252 256//256
f 214//214 435//435 215//215
f 214//214 215//215 216//216
f 214//214 216//216 217//217
f 217//217 218//218 232//232
f 216//216 218//218 217//217
f 215//215 219//219 216//216
f 216//216 219//219 220//220
f 219//219 247//247 220//220
f 218//218 220//220 221//221
f 216//216 220//220 218//218
f 218//218 221//221 233//233
f 220//220 248//248 221//221
f 222//222 223//223 224//224
f 224//224 223//223 225//225
f 223//223 226//226 225//225
f 226//226 234//234 227//227
f 225//225 226//226 227//227
f 224//224 225//225 228//228
f 225//225 229//229 228//228
f 228//228 229//229 254//254
f 229//229 227//227 230//230
f 227//227 235//235 230//230
f 225//225 227//227 229//229
f 229//229 230//230 255//255
f 231//231 233//233 235//235
f 231//231 232//232 233//233
f 218//218 233//233 232//232
f 231//231 235//235 234//234
f 227//227 234//234 235//235
f 221//221 236//236 233//233
f 230//230 235//235 236//236
f 235//235 233//233 236//236
f 237//237 239//239 238//238
f 239//239 240//240 238//238
f 238//238 240//240 241//241
f 241//241 242//242 250//250
f 240//240 242//242 241//241
f 239//239 243//243 240//240
f 240//240 243//243 244//244
f 243//243 256//256 244//244
f 244//244 245//245 242//242
f 242//242 245//245 251//251
f 244//244 257//257 245//245
f 240//240 244//244 242//242
f 246//246 251//251 248//248
f 246//246 248//248 247//247
f 220//220 247//247 248//248
f 221//221 248//248 249//249
f 245//245 249//249 251//251
f 249//249 248//248 251//251
f 246//246 250//250 251//251
f 242//242 251//251 250//250
f 252//252 255//255 257//257
f 230//230 253//253 255//255
f 245//245 257//257 253//253
f 255//255 253//253 257//257
f 252//252 254//254 255//255
f 229//229 255//255 254//254
f 252//252 257//257 256//256
f 244//244 256//256 257//257
f 253//253 236//236 249//249
f 221//221 249//249 236//236
f 230//230 236//236 253//253
f 245//245 253//253 249//249
f 262//262 260//260 264//264
f 268//268 271//271 260//260
f 262//262 275//275 268//268
f 262//262 268//268 260//260
f 258//258 279//279 265//265
f 258//258 283//283 279//279
f 259//259 272//272 281//281
f 259//259 281//281 283//283
f 260//260 259//259 258//258
f 260//260 258//258 264//264
f 260//260 271//271 259//259
f 258//258 259//259 283//283
f 261//261 266//266 307//307
f 261//261 307//307 311//311
f 263//263 262//262 261//261
f 261//261 262//262 264//264
f 263//263 275//275 262//262
f 263//263 309//309 276//276
f 263//263 311//311 309//309
f 263//263 261//261 311//311
f 266//266 265//265 267//267
f 258//258 265//265 264//264
f 261//261 264//264 266//266
f 264//264 265//265 266//266
f 265//265 279//279 285//285
f 265//265 285//285 267//267
f 267//267 285//285 288//288
f 266//266 267//267 313//313
f 266//266 313//313 307//307
f 267//267 315//315 313//313
f 267//267 288//288 315//315
f 315//315 288//288 335//335
f 270//270 269//269 268//268
f 268//268 269//269 271//271
f 270//270 268//268 275//275
f 269//269 371//371 273//273
f 269//269 375//375 371//371
f 270//270 277//277 373//373
f 270//270 373//373 375//375
f 270//270 375//375 269//269
f 259//259 271//271 272//272
f 273//273 274//274 272//272
f 269//269 273//273 271//271
f 271//271 273//273 272//272
f 272//272 294//294 281//281
f 272//272 274//274 294//294
f 274//274 297//297 294//294
f 273//273 377//377 274//274
f 273//273 371//371 377//377
f 274//274 377//377 379//379
f 274//274 379//379 297//297
f 379//379 399//399 297//297
f 263//263 276//276 275//275
f 270//270 275//275 277//277
f 276//276 278//278 277//277
f 275//275 276//276 277//277
f 276//276 309//309 322//322
f 276//276 322//322 278//278
f 278//278 322//322 325//325
f 277//277 278//278 383//383
f 277//277 383//383 373//373
f 278//278 385//385 383//383
f 278//278 325//325 385//385
f 325//325 436//436 385//385
f 279//279 283//283 280//280
f 279//279 280//280 286//286
f 281//281 282//282 283//283
f 281//281 295//295 282//282
f 280//280 283//283 282//282
f 280//280 282//282 284//284
f 280//280 284//284 287//287
f 282//282 296//296 284//284
f 284//284 292//292 287//287
f 284//284 296//296 300//300
f 284//284 300//300 292//292
f 292//292 300//300 303//303
f 279//279 286//286 285//285
f 285//285 289//289 288//288
f 285//285 286//286 289//289
f 286//286 290//290 289//289
f 280//280 287//287 286//286
f 286//286 287//287 290//290
f 287//287 291//291 290//290
f 288//288 289//289 336//336
f 288//288 336//336 335//335
f 289//289 290//290 339//339
f 289//289 339//339 336//336
f 290//290 344//344 339//339
f 290//290 291//291 344//344
f 291//291 346//346 344//344
f 287//287 292//292 291//291
f 291//291 292//292 293//293
f 292//292 303//303 293//293
f 291//291 293//293 346//346
f 293//293 304//304 347//347
f 293//293 347//347 346//346
f 281//281 294//294 295//295
f 294//294 297//297 298//298
f 294//294 298//298 295//295
f 282//282 295//295 296//296
f 295//295 298//298 299//299
f 295//295 299//299 296//296
f 296//296 299//299 301//301
f 297//297 400//400 298//298
f 297//297 399//399 400//400
f 298//298 403//403 299//299
f 298//298 400//400 403//403
f 299//299 403//403 408//408
f 296//296 301//301 300//300
f 300//300 301//301 302//302
f 300//300 302//302 303//303
f 299//299 408//408 301//301
f 301//301 408//408 410//410
f 301//301 410//410 302//302
f 302//302 411//411 305//305
f 302//302 410//410 411//411
f 293//293 303//303 304//304
f 302//302 305//305 303//303
f 303//303 305//305 304//304
f 304//304 305//305 306//306
f 304//304 356//356 347//347
f 304//304 306//306 356//356
f 306//306 359//359 356//356
f 305//305 414//414 306//306
f 305//305 411//411 414//414
f 306//306 414//414 416//416
f 306//306 416//416 359//359
f 359//359 416//416 472//472
f 307//307 308//308 311//311
f 307//307 314//314 308//308
f 309//309 311//311 310//310
f 309//309 310//310 323//323
f 310//310 311//311 308//308
f 310//310 308//308 312//312
f 308//308 317//317 312//312
f 310//310 312//312 324//324
f 307//307 313//313 314//314
f 313//313 315//315 316//316
f 313//313 316//316 314//314
f 315//315 335//335 337//337
f 315//315 337//337 316//316
f 314//314 316//316 318//318
f 308//308 314//314 317//317
f 314//314 318//318 317//317
f 317//317 318//318 319//319
f 316//316 341//341 318//318
f 316//316 337//337 341//341
f 318//318 341//341 350//350
f 312//312 317//317 320//320
f 312//312 328//328 324//324
f 312//312 320//320 328//328
f 328//328 320//320 331//331
f 318//318 350//350 319//319
f 319//319 350//350 352//352
f 317//317 319//319 320//320
f 320//320 319//319 321//321
f 320//320 321//321 331//331
f 319//319 352//352 321//321
f 321//321 354//354 332//332
f 321//321 352//352 354//354
f 309//309 323//323 322//322
f 322//322 326//326 325//325
f 322//322 323//323 326//326
f 310//310 324//324 323//323
f 323//323 327//327 326//326
f 323//323 324//324 327//327
f 324//324 329//329 327//327
f 325//325 326//326 437//437
f 325//325 437//437 436//436
f 326//326 327//327 440//440
f 326//326 440//440 437//437
f 327//327 445//445 440//440
f 324//324 328//328 329//329
f 329//329 328//328 330//330
f 328//328 331//331 330//330
f 327//327 329//329 445//445
f 329//329 447//447 445//445
f 329//329 330//330 447//447
f 330//330 333//333 448//448
f 330//330 448//448 447//447
f 321//321 332//332 331//331
f 330//330 331//331 333//333
f 331//331 332//332 333//333
f 333//333 332//332 334//334
f 332//332 354//354 362//362
f 332//332 362//362 334//334
f 334//334 362//362 365//365
f 333//333 334//334 451//451
f 333//333 451//451 448//448
f 334//334 453//453 451//451
f 334//334 365//365 453//453
f 453//453 365//365 481//481
f 335//335 336//336 337//337
f 337//337 336//336 338//338
f 336//336 339//339 338//338
f 339//339 344//344 340//340
f 338//338 339//339 340//340
f 337//337 338//338 341//341
f 338//338 342//342 341//341
f 341//341 342//342 350//350
f 338//338 340//340 342//342
f 342//342 340//340 343//343
f 340//340 345//345 343//343
f 342//342 343//343 351//351
f 344//344 346//346 345//345
f 340//340 344//344 345//345
f 345//345 346//346 348//348
f 346//346 347//347 348//348
f 347//347 357//357 348//348
f 343//343 345//345 349//349
f 345//345 348//348 349//349
f 349//349 348//348 358//358
f 350//350 351//351 352//352
f 342//342 351//351 350//350
f 351//351 355//355 352//352
f 343//343 353//353 351//351
f 351//351 353//353 355//355
f 355//355 353//353 364//364
f 352//352 355//355 354//354
f 354//354 355//355 363//363
f 343//343 349//349 353//353
f 353//353 349//349 368//368
f 349//349 358//358 368//368
f 353//353 368//368 364//364
f 347//347 356//356 357//357
f 356//356 359//359 360//360
f 356//356 360//360 357//357
f 348//348 357//357 358//358
f 357//357 361//361 358//358
f 357//357 360//360 361//361
f 358//358 361//361 369//369
f 359//359 473//473 360//360
f 359//359 472//472 473//473
f 360//360 476//476 361//361
f 360//360 473//473 476//476
f 361//361 476//476 491//491
f 354//354 363//363 362//362
f 362//362 366//366 365//365
f 362//362 363//363 366//366
f 355//355 364//364 363//363
f 363//363 364//364 367//367
f 364//364 370//370 367//367
f 363//363 367//367 366//366
f 365//365 366//366 482//482
f 365//365 482//482 481//481
f 366//366 367//367 485//485
f 366//366 485//485 482//482
f 367//367 493//493 485//485
f 358//358 369//369 368//368
f 364//364 368//368 370//370
f 368//368 369//369 370//370
f 370//370 369//369 490//490
f 361//361 491//491 369//369
f 369//369 491//491 490//490
f 367//367 370//370 493//493
f 370//370 490//490 493//493
f 371//371 375//375 372//372
f 371//371 372//372 378//378
f 373//373 374//374 375//375
f 373//373 384//384 374//374
f 374//374 372//372 375//375
f 374//374 376//376 372//372
f 372//372 376//376 381//381
f 374//374 387//387 376//376
f 371//371 378//378 377//377
f 377//377 380//380 379//379
f 377//377 378//378 380//380
f 379//379 401//401 399//399
f 379//379 380//380 401//401
f 378//378 382//382 380//380
f 372//372 381//381 378//378
f 378//378 381//381 382//382
f 381//381 389//389 382//382
f 380//380 382//382 405//405
f 380//380 405//405 401//401
f 382//382 420//420 405//405
f 373//373 383//383 384//384
f 383//383 385//385 386//386
f 383//383 386//386 384//384
f 385//385 436//436 438//438
f 385//385 438//438 386//386
f 374//374 384//384 387//387
f 384//384 386//386 388//388
f 384//384 388//388 387//387
f 387//387 388//388 393//393
f 386//386 442//442 388//388
f 386//386 438//438 442//442
f 388//388 442//442 457//457
f 376//376 390//390 381//381
f 376//376 387//387 392//392
f 376//376 392//392 390//390
f 392//392 395//395 390//390
f 382//382 389//389 420//420
f 389//389 422//422 420//420
f 381//381 390//390 389//389
f 390//390 391//391 389//389
f 390//390 395//395 391//391
f 389//389 391//391 422//422
f 391//391 396//396 424//424
f 391//391 424//424 422//422
f 387//387 393//393 392//392
f 393//393 394//394 392//392
f 392//392 394//394 395//395
f 388//388 457//457 393//393
f 393//393 457//457 459//459
f 393//393 459//459 394//394
f 394//394 461//461 397//397
f 394//394 459//459 461//461
f 391//391 395//395 396//396
f 394//394 397//397 395//395
f 395//395 397//397 396//396
f 397//397 398//398 396//396
f 396//396 426//426 424//424
f 396//396 398//398 426//426
f 398//398 429//429 426//426
f 397//397 463//463 398//398
f 397//397 461//461 463//463
f 398//398 463//463 465//465
f 398//398 465//465 429//429
f 465//465 496//496 429//429
f 399//399 401//401 400//400
f 401//401 402//402 400//400
f 400//400 402//402 403//403
f 403//403 404//404 408//408
f 402//402 404//404 403//403
f 401//401 405//405 402//402
f 402//402 405//405 406//406
f 405//405 420//420 406//406
f 402//402 406//406 404//404
f 406//406 407//407 404//404
f 404//404 407//407 409//409
f 406//406 421//421 407//407
f 408//408 409//409 410//410
f 404//404 409//409 408//408
f 409//409 412//412 410//410
f 410//410 412//412 411//411
f 411//411 412//412 415//415
f 407//407 413//413 409//409
f 409//409 413//413 412//412
f 413//413 418//418 412//412
f 411//411 415//415 414//414
f 414//414 417//417 416//416
f 414//414 415//415 417//417
f 416//416 474//474 472//472
f 416//416 417//417 474//474
f 412//412 418//418 415//415
f 415//415 418//418 419//419
f 415//415 419//419 417//417
f 418//418 433//433 419//419
f 417//417 419//419 478//478
f 417//417 478//478 474//474
f 419//419 506//506 478//478
f 420//420 422//422 421//421
f 406//406 420//420 421//421
f 421//421 422//422 425//425
f 407//407 421//421 423//423
f 421//421 425//425 423//423
f 425//425 428//428 423//423
f 422//422 424//424 425//425
f 424//424 427//427 425//425
f 407//407 423//423 413//413
f 423//423 432//432 413//413
f 413//413 432//432 418//418
f 423//423 428//428 432//432
f 424//424 426//426 427//427
f 426//426 429//429 430//430
f 426//426 430//430 427//427
f 425//425 427//427 428//428
f 427//427 431//431 428//428
f 428//428 431//431 434//434
f 427//427 430//430 431//431
f 429//429 497//497 430//430
f 429//429 496//496 497//497
f 430//430 500//500 431//431
f 430//430 497//497 500//500
f 431//431 500//500 509//509
f 418//418 432//432 433//433
f 428//428 434//434 432//432
f 432//432 434//434 433//433
f 434//434 505//505 433//433
f 419//419 433//433 506//506
f 433//433 505//505 506//506
f 431//431 509//509 434//434
f 434//434 509//509 505//505
f 437//437 438//438 436//436
f 437//437 439//439 438//438
f 437//437 440//440 439//439
f 440//440 445//445 441//441
f 439//439 440//440 441//441
f 438//438 439//439 442//442
f 439//439 443//443 442//442
f 442//442 443//443 457//457
f 439//439 441//441 443//443
f 441//441 444//444 443//443
f 441//441 446//446 444//444
f 443//443 444//444 458//458
f 445//445 447//447 446//446
f 441//441 445//445 446//446
f 446//446 447//447 449//449
f 447//447 448//448 449//449
f 448//448 452//452 449//449
f 444//444 446//446 450//450
f 446//446 449//449 450//450
f 449//449 455//455 450//450
f 448//448 451//451 452//452
f 451//451 453//453 454//454
f 451//451 454//454 452//452
f 453//453 481//481 483//483
f 453//453 483//483 454//454
f 449//449 452//452 455//455
f 452//452 456//456 455//455
f 452//452 454//454 456//456
f 455//455 456//456 470//470
f 454//454 487//487 456//456
f 454//454 483//483 487//487
f 456//456 487//487 513//513
f 457//457 458//458 459//459
f 443//443 458//458 457//457
f 458//458 462//462 459//459
f 444//444 460//460 458//458
f 458//458 460//460 462//462
f 460//460 467//467 462//462
f 459//459 462//462 461//461
f 461//461 462//462 464//464
f 461//461 464//464 463//463
f 463//463 466//466 465//465
f 463//463 464//464 466//466
f 465//465 498//498 496//496
f 465//465 466//466 498//498
f 462//462 467//467 464//464
f 464//464 467//467 468//468
f 467//467 471//471 468//468
f 464//464 468//468 466//466
f 466//466 468//468 502//502
f 466//466 502//502 498//498
f 468//468 515//515 502//502
f 444//444 450//450 460//460
f 450//450 469//469 460//460
f 450//450 455//455 469//469
f 460//460 469//469 467//467
f 455//455 470//470 469//469
f 467//467 469//469 471//471
f 469//469 470//470 471//471
f 470//470 511//511 471//471
f 456//456 513//513 470//470
f 470//470 513//513 511//511
f 468//468 471//471 515//515
f 471//471 511//511 515//515
f 472//472 474//474 473//473
f 473//473 474//474 475//475
f 473//473 475//475 476//476
f 476//476 477//477 491//491
f 475//475 477//477 476//476
f 474//474 478//478 475//475
f 475//475 478//478 479//479
f 478//478 506//506 479//479
f 477//477 479//479 480//480
f 475//475 479//479 477//477
f 477//477 480//480 492//492
f 479//479 507//507 480//480
f 481//481 482//482 483//483
f 483//483 482//482 484//484
f 482//482 485//485 484//484
f 485//485 493//493 486//486
f 484//484 485//485 486//486
f 483//483 484//484 487//487
f 484//484 488//488 487//487
f 487//487 488//488 513//513
f 488//488 486//486 489//489
f 486//486 494//494 489//489
f 484//484 486//486 488//488
f 488//488 489//489 514//514
f 490//490 492//492 494//494
f 490//490 491//491 492//492
f 477//477 492//492 491//491
f 490//490 494//494 493//493
f 486//486 493//493 494//494
f 480//480 495//495 492//492
f 489//489 494//494 495//495
f 494//494 492//492 495//495
f 496//496 498//498 497//497
f 498//498 499//499 497//497
f 497//497 499//499 500//500
f 500//500 501//501 509//509
f 499//499 501//501 500//500
f 498//498 502//502 499//499
f 499//499 502//502 503//503
f 502//502 515//515 503//503
f 503//503 504//504 501//501
f 501//501 504//504 510//510
f 503//503 516//516 504//504
f 499//499 503//503 501//501
f 505//505 510//510 507//507
f 505//505 507//507 506//506
f 479//479 506//506 507//507
f 480//480 507//507 508//508
f 504//504 508//508 510//510
f 508//508 507//507 510//510
f 505//505 509//509 510//510
f 501//501 510//510 509//509
f 511//511 514//514 516//516
f 489//489 512//512 514//514
f 504//504 516//516 512//512
f 514//514 512//512 516//516
f 511//511 513//513 514//514
f 488//488 514//514 513//513
f 511//511 516//516 515//515
f 503//503 515//515 516//516
f 512//512 495//495 508//508
f 480//480 508//508 495//495
f 489//489 495//495 512//512
f 504//504 512//512 508//508
