solid exported
	facet normal -0.5773502691896257 -0.5773502691896257 -0.5773502691896257
		outer loop
			vertex -4.297662734985352 -4.297662734985352 -7.941044807434082
			vertex -4.297662734985352 -7.941044807434082 -4.297662734985352
			vertex -7.941044807434082 -4.297662734985352 -4.297662734985352
		endloop
	endfacet
	facet normal -0.8168244805180307 -0.54578467793972 -0.1868605184427303
		outer loop
			vertex -7.071067810058594 -7.071067810058594 6.123233998228043e-16
			vertex -9.238795280456543 -3.8268344402313232 6.123233998228043e-16
			vertex -7.941044807434082 -4.297662734985352 -4.297662734985352
		endloop
	endfacet
	facet normal -0.54578467793972 -0.8168244805180307 -0.1868605184427303
		outer loop
			vertex -4.297662734985352 -7.941044807434082 -4.297662734985352
			vertex -3.8268344402313232 -9.238795280456543 6.123233998228043e-16
			vertex -7.071067810058594 -7.071067810058594 6.123233998228043e-16
		endloop
	endfacet
	facet normal -0.6747891771262275 -0.6747891771262275 -0.29886306708360216
		outer loop
			vertex -7.071067810058594 -7.071067810058594 6.123233998228043e-16
			vertex -7.941044807434082 -4.297662734985352 -4.297662734985352
			vertex -4.297662734985352 -7.941044807434082 -4.297662734985352
		endloop
	endfacet
	facet normal -0.8168244805180305 -0.18686051844273027 -0.5457846779397199
		outer loop
			vertex -7.941044807434082 -4.297662734985352 -4.297662734985352
			vertex -9.238795280456543 6.123233998228043e-16 -3.8268344402313232
			vertex -7.071067810058594 6.123233998228043e-16 -7.071067810058594
		endloop
	endfacet
	facet normal -0.6747891771262274 -0.2988630670836021 -0.6747891771262274
		outer loop
			vertex -7.941044807434082 -4.297662734985352 -4.297662734985352
			vertex -7.071067810058594 6.123233998228043e-16 -7.071067810058594
			vertex -4.297662734985352 -4.297662734985352 -7.941044807434082
		endloop
	endfacet
	facet normal -0.54578467793972 -0.18686051844273027 -0.8168244805180304
		outer loop
			vertex -3.8268344402313232 6.123233998228043e-16 -9.238795280456543
			vertex -4.297662734985352 -4.297662734985352 -7.941044807434082
			vertex -7.071067810058594 6.123233998228043e-16 -7.071067810058594
		endloop
	endfacet
	facet normal -0.9332628718477789 -0.25398859426206155 -0.25398859426206155
		outer loop
			vertex -9.238795280456543 -3.8268344402313232 6.123233998228043e-16
			vertex -9.238795280456543 6.123233998228043e-16 -3.8268344402313232
			vertex -7.941044807434082 -4.297662734985352 -4.297662734985352
		endloop
	endfacet
	facet normal -0.9626372461490502 -0.1914804589593585 -0.1914804589593585
		outer loop
			vertex -9.238795280456543 -3.8268344402313232 6.123233998228043e-16
			vertex -10 6.123233998228043e-16 6.123233998228043e-16
			vertex -9.238795280456543 6.123233998228043e-16 -3.8268344402313232
		endloop
	endfacet
	facet normal -0.2988630670836021 -0.6747891771262274 -0.6747891771262274
		outer loop
			vertex -4.297662734985352 -4.297662734985352 -7.941044807434082
			vertex 6.123233998228043e-16 -7.071067810058594 -7.071067810058594
			vertex -4.297662734985352 -7.941044807434082 -4.297662734985352
		endloop
	endfacet
	facet normal -0.18686051844273027 -0.8168244805180305 -0.5457846779397199
		outer loop
			vertex 6.123233998228043e-16 -7.071067810058594 -7.071067810058594
			vertex 6.123233998228043e-16 -9.238795280456543 -3.8268344402313232
			vertex -4.297662734985352 -7.941044807434082 -4.297662734985352
		endloop
	endfacet
	facet normal -0.18686051844273027 -0.5457846779397199 -0.8168244805180305
		outer loop
			vertex 6.123233998228043e-16 -3.8268344402313232 -9.238795280456543
			vertex 6.123233998228043e-16 -7.071067810058594 -7.071067810058594
			vertex -4.297662734985352 -4.297662734985352 -7.941044807434082
		endloop
	endfacet
	facet normal -0.25398859426206155 -0.9332628718477789 -0.25398859426206155
		outer loop
			vertex -4.297662734985352 -7.941044807434082 -4.297662734985352
			vertex 6.123233998228043e-16 -9.238795280456543 -3.8268344402313232
			vertex -3.8268344402313232 -9.238795280456543 6.123233998228043e-16
		endloop
	endfacet
	facet normal -0.1914804589593585 -0.9626372461490502 -0.1914804589593585
		outer loop
			vertex 6.123233998228043e-16 -9.238795280456543 -3.8268344402313232
			vertex 6.123233998228043e-16 -10 6.123233998228043e-16
			vertex -3.8268344402313232 -9.238795280456543 6.123233998228043e-16
		endloop
	endfacet
	facet normal -0.25398859426206155 -0.25398859426206155 -0.9332628718477789
		outer loop
			vertex -3.8268344402313232 6.123233998228043e-16 -9.238795280456543
			vertex 6.123233998228043e-16 -3.8268344402313232 -9.238795280456543
			vertex -4.297662734985352 -4.297662734985352 -7.941044807434082
		endloop
	endfacet
	facet normal -0.1914804589593585 -0.1914804589593585 -0.9626372461490502
		outer loop
			vertex -3.8268344402313232 6.123233998228043e-16 -9.238795280456543
			vertex 6.123233998228043e-16 6.123233998228043e-16 -10
			vertex 6.123233998228043e-16 -3.8268344402313232 -9.238795280456543
		endloop
	endfacet
	facet normal -0.8168244805180306 -0.54578467793972 0.18686051844273036
		outer loop
			vertex -7.941044807434082 -4.297662734985352 4.297662734985352
			vertex -9.238795280456543 -3.8268344402313232 6.123233998228043e-16
			vertex -7.071067810058594 -7.071067810058594 6.123233998228043e-16
		endloop
	endfacet
	facet normal -0.5457846779397199 -0.8168244805180305 0.18686051844273033
		outer loop
			vertex -3.8268344402313232 -9.238795280456543 6.123233998228043e-16
			vertex -4.297662734985352 -7.941044807434082 4.297662734985352
			vertex -7.071067810058594 -7.071067810058594 6.123233998228043e-16
		endloop
	endfacet
	facet normal -0.6747891771262274 -0.6747891771262274 0.2988630670836023
		outer loop
			vertex -7.941044807434082 -4.297662734985352 4.297662734985352
			vertex -7.071067810058594 -7.071067810058594 6.123233998228043e-16
			vertex -4.297662734985352 -7.941044807434082 4.297662734985352
		endloop
	endfacet
	facet normal -0.5773502691896257 -0.5773502691896257 0.5773502691896257
		outer loop
			vertex -4.297662734985352 -7.941044807434082 4.297662734985352
			vertex -4.297662734985352 -4.297662734985352 7.941044807434082
			vertex -7.941044807434082 -4.297662734985352 4.297662734985352
		endloop
	endfacet
	facet normal -0.9332628718477789 -0.2539885942620615 0.2539885942620616
		outer loop
			vertex -9.238795280456543 6.123233998228043e-16 3.8268344402313232
			vertex -9.238795280456543 -3.8268344402313232 6.123233998228043e-16
			vertex -7.941044807434082 -4.297662734985352 4.297662734985352
		endloop
	endfacet
	facet normal -0.9626372461490502 -0.19148045895935847 0.19148045895935853
		outer loop
			vertex -9.238795280456543 6.123233998228043e-16 3.8268344402313232
			vertex -10 6.123233998228043e-16 6.123233998228043e-16
			vertex -9.238795280456543 -3.8268344402313232 6.123233998228043e-16
		endloop
	endfacet
	facet normal -0.8168244805180305 -0.18686051844273027 0.5457846779397199
		outer loop
			vertex -7.071067810058594 6.123233998228043e-16 7.071067810058594
			vertex -9.238795280456543 6.123233998228043e-16 3.8268344402313232
			vertex -7.941044807434082 -4.297662734985352 4.297662734985352
		endloop
	endfacet
	facet normal -0.6747891771262274 -0.2988630670836021 0.6747891771262274
		outer loop
			vertex -7.071067810058594 6.123233998228043e-16 7.071067810058594
			vertex -7.941044807434082 -4.297662734985352 4.297662734985352
			vertex -4.297662734985352 -4.297662734985352 7.941044807434082
		endloop
	endfacet
	facet normal -0.5457846779397199 -0.18686051844273027 0.8168244805180305
		outer loop
			vertex -4.297662734985352 -4.297662734985352 7.941044807434082
			vertex -3.8268344402313232 6.123233998228043e-16 9.238795280456543
			vertex -7.071067810058594 6.123233998228043e-16 7.071067810058594
		endloop
	endfacet
	facet normal -0.2539885942620615 -0.9332628718477789 0.2539885942620616
		outer loop
			vertex -3.8268344402313232 -9.238795280456543 6.123233998228043e-16
			vertex 6.123233998228043e-16 -9.238795280456543 3.8268344402313232
			vertex -4.297662734985352 -7.941044807434082 4.297662734985352
		endloop
	endfacet
	facet normal -0.19148045895935847 -0.9626372461490502 0.19148045895935853
		outer loop
			vertex -3.8268344402313232 -9.238795280456543 6.123233998228043e-16
			vertex 6.123233998228043e-16 -10 6.123233998228043e-16
			vertex 6.123233998228043e-16 -9.238795280456543 3.8268344402313232
		endloop
	endfacet
	facet normal -0.2988630670836021 -0.6747891771262274 0.6747891771262274
		outer loop
			vertex -4.297662734985352 -7.941044807434082 4.297662734985352
			vertex 6.123233998228043e-16 -7.071067810058594 7.071067810058594
			vertex -4.297662734985352 -4.297662734985352 7.941044807434082
		endloop
	endfacet
	facet normal -0.18686051844273027 -0.8168244805180305 0.5457846779397199
		outer loop
			vertex 6.123233998228043e-16 -9.238795280456543 3.8268344402313232
			vertex 6.123233998228043e-16 -7.071067810058594 7.071067810058594
			vertex -4.297662734985352 -7.941044807434082 4.297662734985352
		endloop
	endfacet
	facet normal -0.18686051844273027 -0.5457846779397199 0.8168244805180305
		outer loop
			vertex 6.123233998228043e-16 -7.071067810058594 7.071067810058594
			vertex 6.123233998228043e-16 -3.8268344402313232 9.238795280456543
			vertex -4.297662734985352 -4.297662734985352 7.941044807434082
		endloop
	endfacet
	facet normal -0.25398859426206155 -0.25398859426206155 0.9332628718477789
		outer loop
			vertex -4.297662734985352 -4.297662734985352 7.941044807434082
			vertex 6.123233998228043e-16 -3.8268344402313232 9.238795280456543
			vertex -3.8268344402313232 6.123233998228043e-16 9.238795280456543
		endloop
	endfacet
	facet normal -0.1914804589593585 -0.1914804589593585 0.9626372461490502
		outer loop
			vertex 6.123233998228043e-16 -3.8268344402313232 9.238795280456543
			vertex 6.123233998228043e-16 6.123233998228043e-16 10
			vertex -3.8268344402313232 6.123233998228043e-16 9.238795280456543
		endloop
	endfacet
	facet normal -0.8168244805180306 0.18686051844273036 -0.54578467793972
		outer loop
			vertex -7.071067810058594 6.123233998228043e-16 -7.071067810058594
			vertex -9.238795280456543 6.123233998228043e-16 -3.8268344402313232
			vertex -7.941044807434082 4.297662734985352 -4.297662734985352
		endloop
	endfacet
	facet normal -0.54578467793972 0.18686051844273036 -0.8168244805180306
		outer loop
			vertex -3.8268344402313232 6.123233998228043e-16 -9.238795280456543
			vertex -7.071067810058594 6.123233998228043e-16 -7.071067810058594
			vertex -4.297662734985352 4.297662734985352 -7.941044807434082
		endloop
	endfacet
	facet normal -0.6747891771262274 0.2988630670836023 -0.6747891771262274
		outer loop
			vertex -4.297662734985352 4.297662734985352 -7.941044807434082
			vertex -7.071067810058594 6.123233998228043e-16 -7.071067810058594
			vertex -7.941044807434082 4.297662734985352 -4.297662734985352
		endloop
	endfacet
	facet normal -0.9626372461490502 0.19148045895935853 -0.19148045895935847
		outer loop
			vertex -9.238795280456543 6.123233998228043e-16 -3.8268344402313232
			vertex -10 6.123233998228043e-16 6.123233998228043e-16
			vertex -9.238795280456543 3.8268344402313232 6.123233998228043e-16
		endloop
	endfacet
	facet normal -0.9332628718477789 0.2539885942620616 -0.2539885942620615
		outer loop
			vertex -7.941044807434082 4.297662734985352 -4.297662734985352
			vertex -9.238795280456543 6.123233998228043e-16 -3.8268344402313232
			vertex -9.238795280456543 3.8268344402313232 6.123233998228043e-16
		endloop
	endfacet
	facet normal -0.5773502691896257 0.5773502691896257 -0.5773502691896257
		outer loop
			vertex -4.297662734985352 4.297662734985352 -7.941044807434082
			vertex -7.941044807434082 4.297662734985352 -4.297662734985352
			vertex -4.297662734985352 7.941044807434082 -4.297662734985352
		endloop
	endfacet
	facet normal -0.8168244805180307 0.54578467793972 -0.1868605184427303
		outer loop
			vertex -7.941044807434082 4.297662734985352 -4.297662734985352
			vertex -9.238795280456543 3.8268344402313232 6.123233998228043e-16
			vertex -7.071067810058594 7.071067810058594 6.123233998228043e-16
		endloop
	endfacet
	facet normal -0.6747891771262275 0.6747891771262275 -0.29886306708360216
		outer loop
			vertex -7.071067810058594 7.071067810058594 6.123233998228043e-16
			vertex -4.297662734985352 7.941044807434082 -4.297662734985352
			vertex -7.941044807434082 4.297662734985352 -4.297662734985352
		endloop
	endfacet
	facet normal -0.54578467793972 0.8168244805180307 -0.1868605184427303
		outer loop
			vertex -7.071067810058594 7.071067810058594 6.123233998228043e-16
			vertex -3.8268344402313232 9.238795280456543 6.123233998228043e-16
			vertex -4.297662734985352 7.941044807434082 -4.297662734985352
		endloop
	endfacet
	facet normal -0.2539885942620615 0.2539885942620616 -0.9332628718477789
		outer loop
			vertex 6.123233998228043e-16 3.8268344402313232 -9.238795280456543
			vertex -3.8268344402313232 6.123233998228043e-16 -9.238795280456543
			vertex -4.297662734985352 4.297662734985352 -7.941044807434082
		endloop
	endfacet
	facet normal -0.19148045895935847 0.19148045895935853 -0.9626372461490502
		outer loop
			vertex 6.123233998228043e-16 3.8268344402313232 -9.238795280456543
			vertex 6.123233998228043e-16 6.123233998228043e-16 -10
			vertex -3.8268344402313232 6.123233998228043e-16 -9.238795280456543
		endloop
	endfacet
	facet normal -0.2988630670836021 0.6747891771262274 -0.6747891771262274
		outer loop
			vertex -4.297662734985352 7.941044807434082 -4.297662734985352
			vertex 6.123233998228043e-16 7.071067810058594 -7.071067810058594
			vertex -4.297662734985352 4.297662734985352 -7.941044807434082
		endloop
	endfacet
	facet normal -0.18686051844273027 0.54578467793972 -0.8168244805180304
		outer loop
			vertex 6.123233998228043e-16 3.8268344402313232 -9.238795280456543
			vertex -4.297662734985352 4.297662734985352 -7.941044807434082
			vertex 6.123233998228043e-16 7.071067810058594 -7.071067810058594
		endloop
	endfacet
	facet normal -0.18686051844273027 0.8168244805180305 -0.5457846779397199
		outer loop
			vertex -4.297662734985352 7.941044807434082 -4.297662734985352
			vertex 6.123233998228043e-16 9.238795280456543 -3.8268344402313232
			vertex 6.123233998228043e-16 7.071067810058594 -7.071067810058594
		endloop
	endfacet
	facet normal -0.25398859426206155 0.9332628718477789 -0.25398859426206155
		outer loop
			vertex -3.8268344402313232 9.238795280456543 6.123233998228043e-16
			vertex 6.123233998228043e-16 9.238795280456543 -3.8268344402313232
			vertex -4.297662734985352 7.941044807434082 -4.297662734985352
		endloop
	endfacet
	facet normal -0.1914804589593585 0.9626372461490502 -0.1914804589593585
		outer loop
			vertex -3.8268344402313232 9.238795280456543 6.123233998228043e-16
			vertex 6.123233998228043e-16 10 6.123233998228043e-16
			vertex 6.123233998228043e-16 9.238795280456543 -3.8268344402313232
		endloop
	endfacet
	facet normal -0.9626372461490502 0.19148045895935853 0.19148045895935853
		outer loop
			vertex -9.238795280456543 3.8268344402313232 6.123233998228043e-16
			vertex -10 6.123233998228043e-16 6.123233998228043e-16
			vertex -9.238795280456543 6.123233998228043e-16 3.8268344402313232
		endloop
	endfacet
	facet normal -0.933262871847779 0.2539885942620616 0.2539885942620616
		outer loop
			vertex -9.238795280456543 3.8268344402313232 6.123233998228043e-16
			vertex -9.238795280456543 6.123233998228043e-16 3.8268344402313232
			vertex -7.941044807434082 4.297662734985352 4.297662734985352
		endloop
	endfacet
	facet normal -0.8168244805180306 0.18686051844273036 0.54578467793972
		outer loop
			vertex -9.238795280456543 6.123233998228043e-16 3.8268344402313232
			vertex -7.071067810058594 6.123233998228043e-16 7.071067810058594
			vertex -7.941044807434082 4.297662734985352 4.297662734985352
		endloop
	endfacet
	facet normal -0.54578467793972 0.18686051844273036 0.8168244805180306
		outer loop
			vertex -7.071067810058594 6.123233998228043e-16 7.071067810058594
			vertex -3.8268344402313232 6.123233998228043e-16 9.238795280456543
			vertex -4.297662734985352 4.297662734985352 7.941044807434082
		endloop
	endfacet
	facet normal -0.6747891771262274 0.2988630670836023 0.6747891771262274
		outer loop
			vertex -7.941044807434082 4.297662734985352 4.297662734985352
			vertex -7.071067810058594 6.123233998228043e-16 7.071067810058594
			vertex -4.297662734985352 4.297662734985352 7.941044807434082
		endloop
	endfacet
	facet normal -0.8168244805180305 0.5457846779397199 0.18686051844273033
		outer loop
			vertex -9.238795280456543 3.8268344402313232 6.123233998228043e-16
			vertex -7.941044807434082 4.297662734985352 4.297662734985352
			vertex -7.071067810058594 7.071067810058594 6.123233998228043e-16
		endloop
	endfacet
	facet normal -0.6747891771262274 0.6747891771262274 0.2988630670836023
		outer loop
			vertex -4.297662734985352 7.941044807434082 4.297662734985352
			vertex -7.071067810058594 7.071067810058594 6.123233998228043e-16
			vertex -7.941044807434082 4.297662734985352 4.297662734985352
		endloop
	endfacet
	facet normal -0.54578467793972 0.8168244805180306 0.18686051844273036
		outer loop
			vertex -4.297662734985352 7.941044807434082 4.297662734985352
			vertex -3.8268344402313232 9.238795280456543 6.123233998228043e-16
			vertex -7.071067810058594 7.071067810058594 6.123233998228043e-16
		endloop
	endfacet
	facet normal -0.5773502691896257 0.5773502691896257 0.5773502691896257
		outer loop
			vertex -7.941044807434082 4.297662734985352 4.297662734985352
			vertex -4.297662734985352 4.297662734985352 7.941044807434082
			vertex -4.297662734985352 7.941044807434082 4.297662734985352
		endloop
	endfacet
	facet normal -0.2539885942620615 0.2539885942620616 0.9332628718477789
		outer loop
			vertex -4.297662734985352 4.297662734985352 7.941044807434082
			vertex -3.8268344402313232 6.123233998228043e-16 9.238795280456543
			vertex 6.123233998228043e-16 3.8268344402313232 9.238795280456543
		endloop
	endfacet
	facet normal -0.19148045895935847 0.19148045895935853 0.9626372461490502
		outer loop
			vertex -3.8268344402313232 6.123233998228043e-16 9.238795280456543
			vertex 6.123233998228043e-16 6.123233998228043e-16 10
			vertex 6.123233998228043e-16 3.8268344402313232 9.238795280456543
		endloop
	endfacet
	facet normal -0.2539885942620615 0.9332628718477789 0.2539885942620616
		outer loop
			vertex 6.123233998228043e-16 9.238795280456543 3.8268344402313232
			vertex -3.8268344402313232 9.238795280456543 6.123233998228043e-16
			vertex -4.297662734985352 7.941044807434082 4.297662734985352
		endloop
	endfacet
	facet normal -0.19148045895935847 0.9626372461490502 0.19148045895935853
		outer loop
			vertex 6.123233998228043e-16 9.238795280456543 3.8268344402313232
			vertex 6.123233998228043e-16 10 6.123233998228043e-16
			vertex -3.8268344402313232 9.238795280456543 6.123233998228043e-16
		endloop
	endfacet
	facet normal -0.2988630670836021 0.6747891771262274 0.6747891771262274
		outer loop
			vertex 6.123233998228043e-16 7.071067810058594 7.071067810058594
			vertex -4.297662734985352 7.941044807434082 4.297662734985352
			vertex -4.297662734985352 4.297662734985352 7.941044807434082
		endloop
	endfacet
	facet normal -0.18686051844273027 0.5457846779397199 0.8168244805180305
		outer loop
			vertex -4.297662734985352 4.297662734985352 7.941044807434082
			vertex 6.123233998228043e-16 3.8268344402313232 9.238795280456543
			vertex 6.123233998228043e-16 7.071067810058594 7.071067810058594
		endloop
	endfacet
	facet normal -0.18686051844273027 0.8168244805180305 0.5457846779397199
		outer loop
			vertex 6.123233998228043e-16 7.071067810058594 7.071067810058594
			vertex 6.123233998228043e-16 9.238795280456543 3.8268344402313232
			vertex -4.297662734985352 7.941044807434082 4.297662734985352
		endloop
	endfacet
	facet normal 0.18686051844273036 -0.8168244805180306 -0.54578467793972
		outer loop
			vertex 4.297662734985352 -7.941044807434082 -4.297662734985352
			vertex 6.123233998228043e-16 -9.238795280456543 -3.8268344402313232
			vertex 6.123233998228043e-16 -7.071067810058594 -7.071067810058594
		endloop
	endfacet
	facet normal 0.18686051844273033 -0.5457846779397199 -0.8168244805180305
		outer loop
			vertex 6.123233998228043e-16 -3.8268344402313232 -9.238795280456543
			vertex 4.297662734985352 -4.297662734985352 -7.941044807434082
			vertex 6.123233998228043e-16 -7.071067810058594 -7.071067810058594
		endloop
	endfacet
	facet normal 0.2988630670836023 -0.6747891771262274 -0.6747891771262274
		outer loop
			vertex 4.297662734985352 -7.941044807434082 -4.297662734985352
			vertex 6.123233998228043e-16 -7.071067810058594 -7.071067810058594
			vertex 4.297662734985352 -4.297662734985352 -7.941044807434082
		endloop
	endfacet
	facet normal 0.19148045895935853 -0.9626372461490502 -0.19148045895935847
		outer loop
			vertex 3.8268344402313232 -9.238795280456543 6.123233998228043e-16
			vertex 6.123233998228043e-16 -10 6.123233998228043e-16
			vertex 6.123233998228043e-16 -9.238795280456543 -3.8268344402313232
		endloop
	endfacet
	facet normal 0.2539885942620616 -0.9332628718477789 -0.2539885942620615
		outer loop
			vertex 3.8268344402313232 -9.238795280456543 6.123233998228043e-16
			vertex 6.123233998228043e-16 -9.238795280456543 -3.8268344402313232
			vertex 4.297662734985352 -7.941044807434082 -4.297662734985352
		endloop
	endfacet
	facet normal 0.19148045895935853 -0.19148045895935847 -0.9626372461490502
		outer loop
			vertex 6.123233998228043e-16 -3.8268344402313232 -9.238795280456543
			vertex 6.123233998228043e-16 6.123233998228043e-16 -10
			vertex 3.8268344402313232 6.123233998228043e-16 -9.238795280456543
		endloop
	endfacet
	facet normal 0.2539885942620616 -0.2539885942620615 -0.9332628718477789
		outer loop
			vertex 6.123233998228043e-16 -3.8268344402313232 -9.238795280456543
			vertex 3.8268344402313232 6.123233998228043e-16 -9.238795280456543
			vertex 4.297662734985352 -4.297662734985352 -7.941044807434082
		endloop
	endfacet
	facet normal 0.5773502691896257 -0.5773502691896257 -0.5773502691896257
		outer loop
			vertex 4.297662734985352 -4.297662734985352 -7.941044807434082
			vertex 7.941044807434082 -4.297662734985352 -4.297662734985352
			vertex 4.297662734985352 -7.941044807434082 -4.297662734985352
		endloop
	endfacet
	facet normal 0.54578467793972 -0.8168244805180307 -0.1868605184427303
		outer loop
			vertex 7.071067810058594 -7.071067810058594 6.123233998228043e-16
			vertex 3.8268344402313232 -9.238795280456543 6.123233998228043e-16
			vertex 4.297662734985352 -7.941044807434082 -4.297662734985352
		endloop
	endfacet
	facet normal 0.6747891771262275 -0.6747891771262275 -0.29886306708360216
		outer loop
			vertex 7.071067810058594 -7.071067810058594 6.123233998228043e-16
			vertex 4.297662734985352 -7.941044807434082 -4.297662734985352
			vertex 7.941044807434082 -4.297662734985352 -4.297662734985352
		endloop
	endfacet
	facet normal 0.8168244805180307 -0.54578467793972 -0.1868605184427303
		outer loop
			vertex 7.941044807434082 -4.297662734985352 -4.297662734985352
			vertex 9.238795280456543 -3.8268344402313232 6.123233998228043e-16
			vertex 7.071067810058594 -7.071067810058594 6.123233998228043e-16
		endloop
	endfacet
	facet normal 0.6747891771262274 -0.2988630670836021 -0.6747891771262274
		outer loop
			vertex 4.297662734985352 -4.297662734985352 -7.941044807434082
			vertex 7.071067810058594 6.123233998228043e-16 -7.071067810058594
			vertex 7.941044807434082 -4.297662734985352 -4.297662734985352
		endloop
	endfacet
	facet normal 0.5457846779397199 -0.18686051844273027 -0.8168244805180305
		outer loop
			vertex 3.8268344402313232 6.123233998228043e-16 -9.238795280456543
			vertex 7.071067810058594 6.123233998228043e-16 -7.071067810058594
			vertex 4.297662734985352 -4.297662734985352 -7.941044807434082
		endloop
	endfacet
	facet normal 0.8168244805180305 -0.18686051844273027 -0.5457846779397199
		outer loop
			vertex 7.071067810058594 6.123233998228043e-16 -7.071067810058594
			vertex 9.238795280456543 6.123233998228043e-16 -3.8268344402313232
			vertex 7.941044807434082 -4.297662734985352 -4.297662734985352
		endloop
	endfacet
	facet normal 0.9332628718477789 -0.25398859426206155 -0.25398859426206155
		outer loop
			vertex 7.941044807434082 -4.297662734985352 -4.297662734985352
			vertex 9.238795280456543 6.123233998228043e-16 -3.8268344402313232
			vertex 9.238795280456543 -3.8268344402313232 6.123233998228043e-16
		endloop
	endfacet
	facet normal 0.9626372461490502 -0.1914804589593585 -0.1914804589593585
		outer loop
			vertex 9.238795280456543 6.123233998228043e-16 -3.8268344402313232
			vertex 10 6.123233998228043e-16 6.123233998228043e-16
			vertex 9.238795280456543 -3.8268344402313232 6.123233998228043e-16
		endloop
	endfacet
	facet normal 0.19148045895935853 -0.9626372461490502 0.19148045895935853
		outer loop
			vertex 6.123233998228043e-16 -9.238795280456543 3.8268344402313232
			vertex 6.123233998228043e-16 -10 6.123233998228043e-16
			vertex 3.8268344402313232 -9.238795280456543 6.123233998228043e-16
		endloop
	endfacet
	facet normal 0.2539885942620616 -0.933262871847779 0.2539885942620616
		outer loop
			vertex 6.123233998228043e-16 -9.238795280456543 3.8268344402313232
			vertex 3.8268344402313232 -9.238795280456543 6.123233998228043e-16
			vertex 4.297662734985352 -7.941044807434082 4.297662734985352
		endloop
	endfacet
	facet normal 0.18686051844273036 -0.8168244805180306 0.54578467793972
		outer loop
			vertex 6.123233998228043e-16 -7.071067810058594 7.071067810058594
			vertex 6.123233998228043e-16 -9.238795280456543 3.8268344402313232
			vertex 4.297662734985352 -7.941044807434082 4.297662734985352
		endloop
	endfacet
	facet normal 0.18686051844273036 -0.54578467793972 0.8168244805180306
		outer loop
			vertex 4.297662734985352 -4.297662734985352 7.941044807434082
			vertex 6.123233998228043e-16 -3.8268344402313232 9.238795280456543
			vertex 6.123233998228043e-16 -7.071067810058594 7.071067810058594
		endloop
	endfacet
	facet normal 0.2988630670836023 -0.6747891771262274 0.6747891771262274
		outer loop
			vertex 6.123233998228043e-16 -7.071067810058594 7.071067810058594
			vertex 4.297662734985352 -7.941044807434082 4.297662734985352
			vertex 4.297662734985352 -4.297662734985352 7.941044807434082
		endloop
	endfacet
	facet normal 0.19148045895935853 -0.19148045895935847 0.9626372461490502
		outer loop
			vertex 3.8268344402313232 6.123233998228043e-16 9.238795280456543
			vertex 6.123233998228043e-16 6.123233998228043e-16 10
			vertex 6.123233998228043e-16 -3.8268344402313232 9.238795280456543
		endloop
	endfacet
	facet normal 0.2539885942620616 -0.2539885942620615 0.9332628718477789
		outer loop
			vertex 4.297662734985352 -4.297662734985352 7.941044807434082
			vertex 3.8268344402313232 6.123233998228043e-16 9.238795280456543
			vertex 6.123233998228043e-16 -3.8268344402313232 9.238795280456543
		endloop
	endfacet
	facet normal 0.54578467793972 -0.8168244805180306 0.18686051844273036
		outer loop
			vertex 4.297662734985352 -7.941044807434082 4.297662734985352
			vertex 3.8268344402313232 -9.238795280456543 6.123233998228043e-16
			vertex 7.071067810058594 -7.071067810058594 6.123233998228043e-16
		endloop
	endfacet
	facet normal 0.6747891771262274 -0.6747891771262274 0.2988630670836023
		outer loop
			vertex 4.297662734985352 -7.941044807434082 4.297662734985352
			vertex 7.071067810058594 -7.071067810058594 6.123233998228043e-16
			vertex 7.941044807434082 -4.297662734985352 4.297662734985352
		endloop
	endfacet
	facet normal 0.8168244805180305 -0.5457846779397199 0.18686051844273033
		outer loop
			vertex 9.238795280456543 -3.8268344402313232 6.123233998228043e-16
			vertex 7.941044807434082 -4.297662734985352 4.297662734985352
			vertex 7.071067810058594 -7.071067810058594 6.123233998228043e-16
		endloop
	endfacet
	facet normal 0.5773502691896257 -0.5773502691896257 0.5773502691896257
		outer loop
			vertex 7.941044807434082 -4.297662734985352 4.297662734985352
			vertex 4.297662734985352 -4.297662734985352 7.941044807434082
			vertex 4.297662734985352 -7.941044807434082 4.297662734985352
		endloop
	endfacet
	facet normal 0.9332628718477789 -0.2539885942620615 0.2539885942620616
		outer loop
			vertex 9.238795280456543 -3.8268344402313232 6.123233998228043e-16
			vertex 9.238795280456543 6.123233998228043e-16 3.8268344402313232
			vertex 7.941044807434082 -4.297662734985352 4.297662734985352
		endloop
	endfacet
	facet normal 0.9626372461490502 -0.19148045895935847 0.19148045895935853
		outer loop
			vertex 9.238795280456543 -3.8268344402313232 6.123233998228043e-16
			vertex 10 6.123233998228043e-16 6.123233998228043e-16
			vertex 9.238795280456543 6.123233998228043e-16 3.8268344402313232
		endloop
	endfacet
	facet normal 0.6747891771262274 -0.2988630670836021 0.6747891771262274
		outer loop
			vertex 7.941044807434082 -4.297662734985352 4.297662734985352
			vertex 7.071067810058594 6.123233998228043e-16 7.071067810058594
			vertex 4.297662734985352 -4.297662734985352 7.941044807434082
		endloop
	endfacet
	facet normal 0.5457846779397199 -0.18686051844273027 0.8168244805180305
		outer loop
			vertex 7.071067810058594 6.123233998228043e-16 7.071067810058594
			vertex 3.8268344402313232 6.123233998228043e-16 9.238795280456543
			vertex 4.297662734985352 -4.297662734985352 7.941044807434082
		endloop
	endfacet
	facet normal 0.8168244805180305 -0.18686051844273027 0.5457846779397199
		outer loop
			vertex 9.238795280456543 6.123233998228043e-16 3.8268344402313232
			vertex 7.071067810058594 6.123233998228043e-16 7.071067810058594
			vertex 7.941044807434082 -4.297662734985352 4.297662734985352
		endloop
	endfacet
	facet normal 0.19148045895935853 0.19148045895935853 -0.9626372461490502
		outer loop
			vertex 3.8268344402313232 6.123233998228043e-16 -9.238795280456543
			vertex 6.123233998228043e-16 6.123233998228043e-16 -10
			vertex 6.123233998228043e-16 3.8268344402313232 -9.238795280456543
		endloop
	endfacet
	facet normal 0.2539885942620616 0.2539885942620616 -0.933262871847779
		outer loop
			vertex 3.8268344402313232 6.123233998228043e-16 -9.238795280456543
			vertex 6.123233998228043e-16 3.8268344402313232 -9.238795280456543
			vertex 4.297662734985352 4.297662734985352 -7.941044807434082
		endloop
	endfacet
	facet normal 0.18686051844273036 0.54578467793972 -0.8168244805180306
		outer loop
			vertex 6.123233998228043e-16 3.8268344402313232 -9.238795280456543
			vertex 6.123233998228043e-16 7.071067810058594 -7.071067810058594
			vertex 4.297662734985352 4.297662734985352 -7.941044807434082
		endloop
	endfacet
	facet normal 0.18686051844273036 0.8168244805180306 -0.54578467793972
		outer loop
			vertex 6.123233998228043e-16 7.071067810058594 -7.071067810058594
			vertex 6.123233998228043e-16 9.238795280456543 -3.8268344402313232
			vertex 4.297662734985352 7.941044807434082 -4.297662734985352
		endloop
	endfacet
	facet normal 0.2988630670836023 0.6747891771262274 -0.6747891771262274
		outer loop
			vertex 4.297662734985352 4.297662734985352 -7.941044807434082
			vertex 6.123233998228043e-16 7.071067810058594 -7.071067810058594
			vertex 4.297662734985352 7.941044807434082 -4.297662734985352
		endloop
	endfacet
	facet normal 0.19148045895935853 0.9626372461490502 -0.19148045895935847
		outer loop
			vertex 6.123233998228043e-16 9.238795280456543 -3.8268344402313232
			vertex 6.123233998228043e-16 10 6.123233998228043e-16
			vertex 3.8268344402313232 9.238795280456543 6.123233998228043e-16
		endloop
	endfacet
	facet normal 0.2539885942620616 0.9332628718477789 -0.2539885942620615
		outer loop
			vertex 4.297662734985352 7.941044807434082 -4.297662734985352
			vertex 6.123233998228043e-16 9.238795280456543 -3.8268344402313232
			vertex 3.8268344402313232 9.238795280456543 6.123233998228043e-16
		endloop
	endfacet
	facet normal 0.5457846779397199 0.18686051844273033 -0.8168244805180305
		outer loop
			vertex 3.8268344402313232 6.123233998228043e-16 -9.238795280456543
			vertex 4.297662734985352 4.297662734985352 -7.941044807434082
			vertex 7.071067810058594 6.123233998228043e-16 -7.071067810058594
		endloop
	endfacet
	facet normal 0.6747891771262274 0.2988630670836023 -0.6747891771262274
		outer loop
			vertex 7.941044807434082 4.297662734985352 -4.297662734985352
			vertex 7.071067810058594 6.123233998228043e-16 -7.071067810058594
			vertex 4.297662734985352 4.297662734985352 -7.941044807434082
		endloop
	endfacet
	facet normal 0.8168244805180306 0.18686051844273036 -0.54578467793972
		outer loop
			vertex 7.941044807434082 4.297662734985352 -4.297662734985352
			vertex 9.238795280456543 6.123233998228043e-16 -3.8268344402313232
			vertex 7.071067810058594 6.123233998228043e-16 -7.071067810058594
		endloop
	endfacet
	facet normal 0.9626372461490502 0.19148045895935853 -0.19148045895935847
		outer loop
			vertex 9.238795280456543 3.8268344402313232 6.123233998228043e-16
			vertex 10 6.123233998228043e-16 6.123233998228043e-16
			vertex 9.238795280456543 6.123233998228043e-16 -3.8268344402313232
		endloop
	endfacet
	facet normal 0.9332628718477789 0.2539885942620616 -0.2539885942620615
		outer loop
			vertex 9.238795280456543 3.8268344402313232 6.123233998228043e-16
			vertex 9.238795280456543 6.123233998228043e-16 -3.8268344402313232
			vertex 7.941044807434082 4.297662734985352 -4.297662734985352
		endloop
	endfacet
	facet normal 0.5773502691896257 0.5773502691896257 -0.5773502691896257
		outer loop
			vertex 4.297662734985352 4.297662734985352 -7.941044807434082
			vertex 4.297662734985352 7.941044807434082 -4.297662734985352
			vertex 7.941044807434082 4.297662734985352 -4.297662734985352
		endloop
	endfacet
	facet normal 0.6747891771262275 0.6747891771262275 -0.29886306708360216
		outer loop
			vertex 7.071067810058594 7.071067810058594 6.123233998228043e-16
			vertex 7.941044807434082 4.297662734985352 -4.297662734985352
			vertex 4.297662734985352 7.941044807434082 -4.297662734985352
		endloop
	endfacet
	facet normal 0.54578467793972 0.8168244805180307 -0.1868605184427303
		outer loop
			vertex 4.297662734985352 7.941044807434082 -4.297662734985352
			vertex 3.8268344402313232 9.238795280456543 6.123233998228043e-16
			vertex 7.071067810058594 7.071067810058594 6.123233998228043e-16
		endloop
	endfacet
	facet normal 0.8168244805180307 0.54578467793972 -0.1868605184427303
		outer loop
			vertex 7.071067810058594 7.071067810058594 6.123233998228043e-16
			vertex 9.238795280456543 3.8268344402313232 6.123233998228043e-16
			vertex 7.941044807434082 4.297662734985352 -4.297662734985352
		endloop
	endfacet
	facet normal 0.19148045895935853 0.19148045895935853 0.9626372461490502
		outer loop
			vertex 6.123233998228043e-16 3.8268344402313232 9.238795280456543
			vertex 6.123233998228043e-16 6.123233998228043e-16 10
			vertex 3.8268344402313232 6.123233998228043e-16 9.238795280456543
		endloop
	endfacet
	facet normal 0.2539885942620616 0.2539885942620616 0.933262871847779
		outer loop
			vertex 4.297662734985352 4.297662734985352 7.941044807434082
			vertex 6.123233998228043e-16 3.8268344402313232 9.238795280456543
			vertex 3.8268344402313232 6.123233998228043e-16 9.238795280456543
		endloop
	endfacet
	facet normal 0.19148045895935853 0.9626372461490502 0.19148045895935853
		outer loop
			vertex 3.8268344402313232 9.238795280456543 6.123233998228043e-16
			vertex 6.123233998228043e-16 10 6.123233998228043e-16
			vertex 6.123233998228043e-16 9.238795280456543 3.8268344402313232
		endloop
	endfacet
	facet normal 0.2539885942620616 0.933262871847779 0.2539885942620616
		outer loop
			vertex 3.8268344402313232 9.238795280456543 6.123233998228043e-16
			vertex 6.123233998228043e-16 9.238795280456543 3.8268344402313232
			vertex 4.297662734985352 7.941044807434082 4.297662734985352
		endloop
	endfacet
	facet normal 0.18686051844273036 0.54578467793972 0.8168244805180306
		outer loop
			vertex 6.123233998228043e-16 7.071067810058594 7.071067810058594
			vertex 6.123233998228043e-16 3.8268344402313232 9.238795280456543
			vertex 4.297662734985352 4.297662734985352 7.941044807434082
		endloop
	endfacet
	facet normal 0.18686051844273036 0.8168244805180306 0.54578467793972
		outer loop
			vertex 6.123233998228043e-16 9.238795280456543 3.8268344402313232
			vertex 6.123233998228043e-16 7.071067810058594 7.071067810058594
			vertex 4.297662734985352 7.941044807434082 4.297662734985352
		endloop
	endfacet
	facet normal 0.2988630670836023 0.6747891771262274 0.6747891771262274
		outer loop
			vertex 4.297662734985352 7.941044807434082 4.297662734985352
			vertex 6.123233998228043e-16 7.071067810058594 7.071067810058594
			vertex 4.297662734985352 4.297662734985352 7.941044807434082
		endloop
	endfacet
	facet normal 0.9626372461490502 0.19148045895935853 0.19148045895935853
		outer loop
			vertex 9.238795280456543 6.123233998228043e-16 3.8268344402313232
			vertex 10 6.123233998228043e-16 6.123233998228043e-16
			vertex 9.238795280456543 3.8268344402313232 6.123233998228043e-16
		endloop
	endfacet
	facet normal 0.933262871847779 0.2539885942620616 0.2539885942620616
		outer loop
			vertex 9.238795280456543 6.123233998228043e-16 3.8268344402313232
			vertex 9.238795280456543 3.8268344402313232 6.123233998228043e-16
			vertex 7.941044807434082 4.297662734985352 4.297662734985352
		endloop
	endfacet
	facet normal 0.54578467793972 0.18686051844273036 0.8168244805180306
		outer loop
			vertex 4.297662734985352 4.297662734985352 7.941044807434082
			vertex 3.8268344402313232 6.123233998228043e-16 9.238795280456543
			vertex 7.071067810058594 6.123233998228043e-16 7.071067810058594
		endloop
	endfacet
	facet normal 0.6747891771262274 0.2988630670836023 0.6747891771262274
		outer loop
			vertex 7.071067810058594 6.123233998228043e-16 7.071067810058594
			vertex 7.941044807434082 4.297662734985352 4.297662734985352
			vertex 4.297662734985352 4.297662734985352 7.941044807434082
		endloop
	endfacet
	facet normal 0.8168244805180306 0.18686051844273036 0.54578467793972
		outer loop
			vertex 7.071067810058594 6.123233998228043e-16 7.071067810058594
			vertex 9.238795280456543 6.123233998228043e-16 3.8268344402313232
			vertex 7.941044807434082 4.297662734985352 4.297662734985352
		endloop
	endfacet
	facet normal 0.6747891771262274 0.6747891771262274 0.2988630670836023
		outer loop
			vertex 7.941044807434082 4.297662734985352 4.297662734985352
			vertex 7.071067810058594 7.071067810058594 6.123233998228043e-16
			vertex 4.297662734985352 7.941044807434082 4.297662734985352
		endloop
	endfacet
	facet normal 0.5457846779397199 0.8168244805180305 0.18686051844273033
		outer loop
			vertex 3.8268344402313232 9.238795280456543 6.123233998228043e-16
			vertex 4.297662734985352 7.941044807434082 4.297662734985352
			vertex 7.071067810058594 7.071067810058594 6.123233998228043e-16
		endloop
	endfacet
	facet normal 0.8168244805180306 0.54578467793972 0.18686051844273036
		outer loop
			vertex 7.941044807434082 4.297662734985352 4.297662734985352
			vertex 9.238795280456543 3.8268344402313232 6.123233998228043e-16
			vertex 7.071067810058594 7.071067810058594 6.123233998228043e-16
		endloop
	endfacet
	facet normal 0.5773502691896257 0.5773502691896257 0.5773502691896257
		outer loop
			vertex 4.297662734985352 7.941044807434082 4.297662734985352
			vertex 4.297662734985352 4.297662734985352 7.941044807434082
			vertex 7.941044807434082 4.297662734985352 4.297662734985352
		endloop
	endfacet
endsolid exported
