ply
format ascii 1.0
element vertex 66
property float x
property float y
property float z
property float nx
property float ny
property float nz
element face 128
property list uchar int vertex_index
end_header
-7.941044807434082 -4.297662734985352 -4.297662734985352 -0.768929892873763 -0.45207678926871414 -0.452076759466392
-4.297662734985352 -7.941044807434082 -4.297662734985352 -0.4520767716479961 -0.7689299135932522 -0.45207674184567315
-4.297662734985352 -4.297662734985352 -7.941044807434082 -0.4520767716479961 -0.45207674184567315 -0.7689299135932522
-7.071067810058594 -7.071067810058594 6.123233998228043e-16 -0.7071067811865476 -0.7071067811865476 1.7431739683618933e-9
-9.238795280456543 -3.8268344402313232 6.123233998228043e-16 -0.9387309725139994 -0.34465078157886303 -4.3931330498998006e-9
-7.941044807434082 -4.297662734985352 4.297662734985352 -0.7689299135932522 -0.4520767716479961 0.45207674184567315
-3.8268344402313232 -9.238795280456543 6.123233998228043e-16 -0.34465078157886303 -0.9387309725139994 -4.3931330498998006e-9
-4.297662734985352 -7.941044807434082 4.297662734985352 -0.4520767716479961 -0.7689299135932522 0.45207674184567315
-4.297662734985352 -4.297662734985352 7.941044807434082 -0.4520767716479961 -0.45207674184567315 0.7689299135932522
-7.071067810058594 6.123233998228043e-16 -7.071067810058594 -0.7071067811865476 1.7431739683618933e-9 -0.7071067811865476
-9.238795280456543 6.123233998228043e-16 -3.8268344402313232 -0.9387309725139994 -4.416222580615271e-9 -0.34465078157886303
-7.941044807434082 4.297662734985352 -4.297662734985352 -0.7689299135932522 0.45207674184567315 -0.4520767716479961
-3.8268344402313232 6.123233998228043e-16 -9.238795280456543 -0.34465078157886303 -4.3931330498998006e-9 -0.9387309725139994
-4.297662734985352 4.297662734985352 -7.941044807434082 -0.4520767716479961 0.45207674184567315 -0.7689299135932522
-4.297662734985352 7.941044807434082 -4.297662734985352 -0.4520767716479961 0.7689299135932522 -0.45207674184567315
-10 6.123233998228043e-16 6.123233998228043e-16 -1 6.567167365467697e-10 6.567167365467697e-10
-9.238795280456543 6.123233998228043e-16 3.8268344402313232 -0.9387309725139992 8.61102316527585e-9 0.344650781578863
-9.238795280456543 3.8268344402313232 6.123233998228043e-16 -0.9387309725139992 0.344650781578863 8.61102316527585e-9
-7.941044807434082 4.297662734985352 4.297662734985352 -0.768929892873763 0.452076759466392 0.45207678926871414
-7.071067810058594 6.123233998228043e-16 7.071067810058594 -0.7071067811865476 1.7431739683618933e-9 0.7071067811865476
-7.071067810058594 7.071067810058594 6.123233998228043e-16 -0.7071067811865476 0.7071067811865476 1.308153052731903e-9
-3.8268344402313232 6.123233998228043e-16 9.238795280456543 -0.34465078157886303 -4.3931330498998006e-9 0.9387309725139994
-4.297662734985352 4.297662734985352 7.941044807434082 -0.4520767716479961 0.45207674184567315 0.7689299135932522
-3.8268344402313232 9.238795280456543 6.123233998228043e-16 -0.34465078157886303 0.9387309725139994 -4.3931330498998006e-9
-4.297662734985352 7.941044807434082 4.297662734985352 -0.4520767953595162 0.768929903233507 0.45207673575487106
6.123233998228043e-16 -7.071067810058594 -7.071067810058594 1.7431739683618933e-9 -0.7071067811865476 -0.7071067811865476
6.123233998228043e-16 -9.238795280456543 -3.8268344402313232 -4.416222580615271e-9 -0.9387309725139994 -0.34465078157886303
4.297662734985352 -7.941044807434082 -4.297662734985352 0.45207674184567315 -0.7689299135932522 -0.4520767716479961
6.123233998228043e-16 -3.8268344402313232 -9.238795280456543 -4.416222580615271e-9 -0.34465078157886303 -0.9387309725139994
4.297662734985352 -4.297662734985352 -7.941044807434082 0.45207674184567315 -0.4520767716479961 -0.7689299135932522
7.941044807434082 -4.297662734985352 -4.297662734985352 0.7689299135932522 -0.4520767716479961 -0.45207674184567315
6.123233998228043e-16 -10 6.123233998228043e-16 6.567167365467697e-10 -1 6.567167365467697e-10
6.123233998228043e-16 -9.238795280456543 3.8268344402313232 8.61102316527585e-9 -0.9387309725139992 0.344650781578863
3.8268344402313232 -9.238795280456543 6.123233998228043e-16 0.344650781578863 -0.9387309725139992 8.61102316527585e-9
4.297662734985352 -7.941044807434082 4.297662734985352 0.452076759466392 -0.768929892873763 0.45207678926871414
6.123233998228043e-16 -7.071067810058594 7.071067810058594 1.7431739683618933e-9 -0.7071067811865476 0.7071067811865476
6.123233998228043e-16 -3.8268344402313232 9.238795280456543 -4.416222580615271e-9 -0.34465078157886303 0.9387309725139994
4.297662734985352 -4.297662734985352 7.941044807434082 0.45207674184567315 -0.4520767716479961 0.7689299135932522
7.071067810058594 -7.071067810058594 6.123233998228043e-16 0.7071067811865476 -0.7071067811865476 1.308153052731903e-9
9.238795280456543 -3.8268344402313232 6.123233998228043e-16 0.9387309725139994 -0.34465078157886303 -4.3931330498998006e-9
7.941044807434082 -4.297662734985352 4.297662734985352 0.768929903233507 -0.4520767953595162 0.45207673575487106
6.123233998228043e-16 6.123233998228043e-16 -10 6.567167365467697e-10 6.567167365467697e-10 -1
6.123233998228043e-16 3.8268344402313232 -9.238795280456543 8.61102316527585e-9 0.344650781578863 -0.9387309725139992
3.8268344402313232 6.123233998228043e-16 -9.238795280456543 0.344650781578863 8.61102316527585e-9 -0.9387309725139992
4.297662734985352 4.297662734985352 -7.941044807434082 0.452076759466392 0.45207678926871414 -0.768929892873763
6.123233998228043e-16 7.071067810058594 -7.071067810058594 1.7431739683618933e-9 0.7071067811865476 -0.7071067811865476
6.123233998228043e-16 9.238795280456543 -3.8268344402313232 -4.416222580615271e-9 0.9387309725139994 -0.34465078157886303
4.297662734985352 7.941044807434082 -4.297662734985352 0.45207674184567315 0.7689299135932522 -0.4520767716479961
7.071067810058594 6.123233998228043e-16 -7.071067810058594 0.7071067811865476 1.308153052731903e-9 -0.7071067811865476
9.238795280456543 6.123233998228043e-16 -3.8268344402313232 0.9387309725139994 -4.416222580615271e-9 -0.34465078157886303
7.941044807434082 4.297662734985352 -4.297662734985352 0.7689299135932522 0.45207674184567315 -0.4520767716479961
6.123233998228043e-16 6.123233998228043e-16 10 6.567167365467697e-10 6.567167365467697e-10 1
6.123233998228043e-16 3.8268344402313232 9.238795280456543 8.61102316527585e-9 0.344650781578863 0.9387309725139992
3.8268344402313232 6.123233998228043e-16 9.238795280456543 0.344650781578863 8.61102316527585e-9 0.9387309725139992
4.297662734985352 4.297662734985352 7.941044807434082 0.452076759466392 0.45207678926871414 0.768929892873763
6.123233998228043e-16 10 6.123233998228043e-16 6.567167365467697e-10 1 6.567167365467697e-10
6.123233998228043e-16 9.238795280456543 3.8268344402313232 8.61102316527585e-9 0.9387309725139992 0.344650781578863
3.8268344402313232 9.238795280456543 6.123233998228043e-16 0.344650781578863 0.9387309725139992 8.61102316527585e-9
4.297662734985352 7.941044807434082 4.297662734985352 0.45207674184567315 0.7689299135932522 0.4520767716479961
6.123233998228043e-16 7.071067810058594 7.071067810058594 1.7431739683618933e-9 0.7071067811865476 0.7071067811865476
10 6.123233998228043e-16 6.123233998228043e-16 1 6.567167365467697e-10 6.567167365467697e-10
9.238795280456543 6.123233998228043e-16 3.8268344402313232 0.9387309725139992 8.61102316527585e-9 0.344650781578863
9.238795280456543 3.8268344402313232 6.123233998228043e-16 0.9387309725139992 0.344650781578863 8.61102316527585e-9
7.941044807434082 4.297662734985352 4.297662734985352 0.7689299135932522 0.45207674184567315 0.4520767716479961
7.071067810058594 6.123233998228043e-16 7.071067810058594 0.7071067811865476 1.308153052731903e-9 0.7071067811865476
7.071067810058594 7.071067810058594 6.123233998228043e-16 0.7071067811865476 0.7071067811865476 -8.578441437465767e-10
3 2 1 0
3 3 4 0
3 1 6 3
3 3 0 1
3 0 10 9
3 0 9 2
3 12 2 9
3 4 10 0
3 4 15 10
3 2 25 1
3 25 26 1
3 28 25 2
3 1 26 6
3 26 31 6
3 12 28 2
3 12 41 28
3 5 4 3
3 6 7 3
3 5 3 7
3 7 8 5
3 16 4 5
3 16 15 4
3 19 16 5
3 19 5 8
3 8 21 19
3 6 32 7
3 6 31 32
3 7 35 8
3 32 35 7
3 35 36 8
3 8 36 21
3 36 51 21
3 9 10 11
3 12 9 13
3 13 9 11
3 10 15 17
3 11 10 17
3 13 11 14
3 11 17 20
3 20 14 11
3 20 23 14
3 42 12 13
3 42 41 12
3 14 45 13
3 42 13 45
3 14 46 45
3 23 46 14
3 23 55 46
3 17 15 16
3 17 16 18
3 16 19 18
3 19 21 22
3 18 19 22
3 17 18 20
3 24 20 18
3 24 23 20
3 18 22 24
3 22 21 52
3 21 51 52
3 56 23 24
3 56 55 23
3 59 24 22
3 22 52 59
3 59 56 24
3 27 26 25
3 28 29 25
3 27 25 29
3 33 31 26
3 33 26 27
3 28 41 43
3 28 43 29
3 29 30 27
3 38 33 27
3 38 27 30
3 30 39 38
3 29 48 30
3 43 48 29
3 48 49 30
3 30 49 39
3 49 60 39
3 32 31 33
3 32 33 34
3 35 32 34
3 37 36 35
3 35 34 37
3 53 51 36
3 37 53 36
3 34 33 38
3 34 38 40
3 39 40 38
3 40 37 34
3 39 61 40
3 39 60 61
3 40 64 37
3 64 53 37
3 61 64 40
3 43 41 42
3 43 42 44
3 42 45 44
3 45 46 47
3 44 45 47
3 46 55 57
3 47 46 57
3 43 44 48
3 50 48 44
3 50 49 48
3 62 60 49
3 62 49 50
3 44 47 50
3 65 50 47
3 47 57 65
3 65 62 50
3 52 51 53
3 54 52 53
3 57 55 56
3 57 56 58
3 59 52 54
3 56 59 58
3 58 59 54
3 61 60 62
3 61 62 63
3 54 53 64
3 64 63 54
3 64 61 63
3 63 65 58
3 57 58 65
3 63 62 65
3 58 54 63

