ISO-10303-21;
HEADER;
FILE_DESCRIPTION(('Open CASCADE Model'),'2;1');
FILE_NAME('Open CASCADE Shape Model','1970-01-01T00:00:00',('Author'),(
    'Open CASCADE'),'Open CASCADE STEP processor 8.0','Open CASCADE 8.0'
  ,'Unknown');
FILE_SCHEMA((
'AP242_MANAGED_MODEL_BASED_3D_ENGINEERING_MIM_LF {1 0 10303 442 1 1 4 }'
    ));
ENDSEC;
DATA;
#1 = APPLICATION_PROTOCOL_DEFINITION('international standard',
  'ap242_managed_model_based_3d_engineering',2013,#2);
#2 = APPLICATION_CONTEXT('Managed model based 3d engineering');
#3 = SHAPE_DEFINITION_REPRESENTATION(#4,#10);
#4 = PRODUCT_DEFINITION_SHAPE('','',#5);
#5 = PRODUCT_DEFINITION('design','',#6,#9);
#6 = PRODUCT_DEFINITION_FORMATION('','',#7);
#7 = PRODUCT('Open CASCADE STEP translator 8.0',
  'Open CASCADE STEP translator 8.0','',(#8));
#8 = PRODUCT_CONTEXT('',#2,'mechanical');
#9 = PRODUCT_DEFINITION_CONTEXT('part definition',#2,'design');
#10 = MANIFOLD_SURFACE_SHAPE_REPRESENTATION('',(#11,#15),#363);
#11 = AXIS2_PLACEMENT_3D('',#12,#13,#14);
#12 = CARTESIAN_POINT('',(0.,0.,0.));
#13 = DIRECTION('',(0.,0.,1.));
#14 = DIRECTION('',(1.,0.,-0.));
#15 = SHELL_BASED_SURFACE_MODEL('',(#16));
#16 = OPEN_SHELL('',(#17));
#17 = ADVANCED_FACE('',(#18),#32,.T.);
#18 = FACE_BOUND('',#19,.T.);
#19 = EDGE_LOOP('',(#20,#296,#322,#339));
#20 = ORIENTED_EDGE('',*,*,#21,.T.);
#21 = EDGE_CURVE('',#22,#24,#26,.T.);
#22 = VERTEX_POINT('',#23);
#23 = CARTESIAN_POINT('',(6.,-1.110223024625E-16,0.));
#24 = VERTEX_POINT('',#25);
#25 = CARTESIAN_POINT('',(6.,0.,10.));
#26 = SURFACE_CURVE('',#27,(#31),.PCURVE_S1.);
#27 = LINE('',#28,#29);
#28 = CARTESIAN_POINT('',(6.,0.,0.));
#29 = VECTOR('',#30,1.);
#30 = DIRECTION('',(0.,0.,1.));
#31 = PCURVE('',#32,#289);
#32 = B_SPLINE_SURFACE_WITH_KNOTS('',8,8,(
    (#33,#34,#35,#36,#37,#38,#39,#40,#41,#42,#43,#44,#45,#46,#47,#48)
    ,(#49,#50,#51,#52,#53,#54,#55,#56,#57,#58,#59,#60,#61,#62,#63,#64)
    ,(#65,#66,#67,#68,#69,#70,#71,#72,#73,#74,#75,#76,#77,#78,#79,#80)
    ,(#81,#82,#83,#84,#85,#86,#87,#88,#89,#90,#91,#92,#93,#94,#95,#96)
    ,(#97,#98,#99,#100,#101,#102,#103,#104,#105,#106,#107,#108,#109,#110
      ,#111,#112)
    ,(#113,#114,#115,#116,#117,#118,#119,#120,#121,#122,#123,#124,#125
      ,#126,#127,#128)
    ,(#129,#130,#131,#132,#133,#134,#135,#136,#137,#138,#139,#140,#141
      ,#142,#143,#144)
    ,(#145,#146,#147,#148,#149,#150,#151,#152,#153,#154,#155,#156,#157
      ,#158,#159,#160)
    ,(#161,#162,#163,#164,#165,#166,#167,#168,#169,#170,#171,#172,#173
      ,#174,#175,#176)
    ,(#177,#178,#179,#180,#181,#182,#183,#184,#185,#186,#187,#188,#189
      ,#190,#191,#192)
    ,(#193,#194,#195,#196,#197,#198,#199,#200,#201,#202,#203,#204,#205
      ,#206,#207,#208)
    ,(#209,#210,#211,#212,#213,#214,#215,#216,#217,#218,#219,#220,#221
      ,#222,#223,#224)
    ,(#225,#226,#227,#228,#229,#230,#231,#232,#233,#234,#235,#236,#237
      ,#238,#239,#240)
    ,(#241,#242,#243,#244,#245,#246,#247,#248,#249,#250,#251,#252,#253
      ,#254,#255,#256)
    ,(#257,#258,#259,#260,#261,#262,#263,#264,#265,#266,#267,#268,#269
      ,#270,#271,#272)
    ,(#273,#274,#275,#276,#277,#278,#279,#280,#281,#282,#283,#284,#285
      ,#286,#287,#288
    )),.UNSPECIFIED.,.F.,.F.,.F.,(9,7,9),(9,7,9),(-5.5,0.,5.5),(
    -4.666904755831,8.881784197001E-16,4.666904755831),.UNSPECIFIED.);
#33 = CARTESIAN_POINT('',(5.975808243621,-0.624188746994,-0.5));
#34 = CARTESIAN_POINT('',(6.039953560078,0.264948724617,-0.5));
#35 = CARTESIAN_POINT('',(6.015054210291,1.065047980839,-0.5));
#36 = CARTESIAN_POINT('',(5.812834932595,1.687928028467,-0.5));
#37 = CARTESIAN_POINT('',(5.640261029287,2.340199520689,-0.5));
#38 = CARTESIAN_POINT('',(5.345147504866,2.87015742774,-0.5));
#39 = CARTESIAN_POINT('',(5.03453182766,3.384508825473,-0.5));
#40 = CARTESIAN_POINT('',(4.666986878778,3.841978535217,-0.5));
#41 = CARTESIAN_POINT('',(3.841978535214,4.666986878774,-0.5));
#42 = CARTESIAN_POINT('',(3.384508825474,5.034531827661,-0.5));
#43 = CARTESIAN_POINT('',(2.870157427708,5.345147504833,-0.5));
#44 = CARTESIAN_POINT('',(2.340199520701,5.640261029294,-0.5));
#45 = CARTESIAN_POINT('',(1.687928028438,5.812834932573,-0.5));
#46 = CARTESIAN_POINT('',(1.065047980826,6.015054210274,-0.5));
#47 = CARTESIAN_POINT('',(0.264948724607,6.039953560067,-0.5));
#48 = CARTESIAN_POINT('',(-0.624188747045,5.97580824357,-0.5));
#49 = CARTESIAN_POINT('',(5.977107486885,-0.622889881485,0.1875));
#50 = CARTESIAN_POINT('',(6.041049357544,0.266042881223,0.1875));
#51 = CARTESIAN_POINT('',(6.025810434008,1.075796223062,0.1875));
#52 = CARTESIAN_POINT('',(5.772948191935,1.648091212384,0.1875));
#53 = CARTESIAN_POINT('',(5.651612167501,2.351500922183,0.1875));
#54 = CARTESIAN_POINT('',(5.315072614642,2.840107088301,0.1875));
#55 = CARTESIAN_POINT('',(5.018490422053,3.368459083209,0.1875));
#56 = CARTESIAN_POINT('',(4.646969072587,3.82195983815,0.1875));
#57 = CARTESIAN_POINT('',(3.821959838152,4.646969072588,0.1875));
#58 = CARTESIAN_POINT('',(3.368459083219,5.018490422063,0.187499999999)
  );
#59 = CARTESIAN_POINT('',(2.840107088289,5.31507261463,0.187500000001));
#60 = CARTESIAN_POINT('',(2.351500922212,5.651612167524,0.187499999998)
  );
#61 = CARTESIAN_POINT('',(1.648091212381,5.772948191939,0.187500000001)
  );
#62 = CARTESIAN_POINT('',(1.075796223076,6.025810434019,0.187499999999)
  );
#63 = CARTESIAN_POINT('',(0.266042881267,6.041049357587,0.1875));
#64 = CARTESIAN_POINT('',(-0.622889881483,5.977107486886,0.1875));
#65 = CARTESIAN_POINT('',(5.977324897614,-0.62267172267,0.875));
#66 = CARTESIAN_POINT('',(6.037753628067,0.262748206321,0.875));
#67 = CARTESIAN_POINT('',(6.027615592447,1.077598552822,0.874999999999)
  );
#68 = CARTESIAN_POINT('',(5.764292985886,1.639451131525,0.875000000001)
  );
#69 = CARTESIAN_POINT('',(5.651622918599,2.351490950827,0.874999999998)
  );
#70 = CARTESIAN_POINT('',(5.307611072547,2.832658393947,0.875000000002)
  );
#71 = CARTESIAN_POINT('',(5.011226450205,3.361193713443,0.874999999999)
  );
#72 = CARTESIAN_POINT('',(4.638747830452,3.813739649198,0.875));
#73 = CARTESIAN_POINT('',(3.813739649199,4.638747830457,0.874999999999)
  );
#74 = CARTESIAN_POINT('',(3.361193713415,5.011226450127,0.875000000002)
  );
#75 = CARTESIAN_POINT('',(2.832658394143,5.307611072862,0.874999999995)
  );
#76 = CARTESIAN_POINT('',(2.351490950467,5.651622918145,0.875000000007)
  );
#77 = CARTESIAN_POINT('',(1.639451131905,5.764292986259,0.874999999994)
  );
#78 = CARTESIAN_POINT('',(1.077598552723,6.027615592371,0.875000000003)
  );
#79 = CARTESIAN_POINT('',(0.262748206356,6.037753628099,0.874999999999)
  );
#80 = CARTESIAN_POINT('',(-0.622671722654,5.977324897626,0.875));
#81 = CARTESIAN_POINT('',(5.992054497077,-0.607949931791,1.5625));
#82 = CARTESIAN_POINT('',(6.043464246452,0.268458388902,1.5625));
#83 = CARTESIAN_POINT('',(5.919743016063,0.969786053306,1.562500000001)
  );
#84 = CARTESIAN_POINT('',(6.011523705198,1.886308263997,1.562499999997)
  );
#85 = CARTESIAN_POINT('',(5.454545846482,2.154827071809,1.562500000003)
  );
#86 = CARTESIAN_POINT('',(5.416958994165,2.941787571704,1.562499999997)
  );
#87 = CARTESIAN_POINT('',(4.991883777246,3.341912123136,1.562500000002)
  );
#88 = CARTESIAN_POINT('',(4.642264596186,3.817258198498,1.562499999999)
  );
#89 = CARTESIAN_POINT('',(3.817258198505,4.642264596187,1.562500000001)
  );
#90 = CARTESIAN_POINT('',(3.341912123214,4.99188377742,1.562499999995));
#91 = CARTESIAN_POINT('',(2.941787571367,5.416958993607,1.56250000001));
#92 = CARTESIAN_POINT('',(2.154827072488,5.454545847311,1.562499999986)
  );
#93 = CARTESIAN_POINT('',(1.886308263378,6.011523704632,1.562500000012)
  );
#94 = CARTESIAN_POINT('',(0.969786053493,5.91974301618,1.562499999994));
#95 = CARTESIAN_POINT('',(0.268458388814,6.043464246373,1.562500000002)
  );
#96 = CARTESIAN_POINT('',(-0.60794993187,5.992054497006,1.5625));
#97 = CARTESIAN_POINT('',(5.97789494209,-0.622093265096,2.25));
#98 = CARTESIAN_POINT('',(6.029370090715,0.254370583132,2.250000000001)
  );
#99 = CARTESIAN_POINT('',(6.06250044659,1.112450085197,2.249999999998));
#100 = CARTESIAN_POINT('',(5.689365413415,1.564564712994,2.250000000003)
  );
#101 = CARTESIAN_POINT('',(5.783457323475,2.483197547619,2.249999999996)
  );
#102 = CARTESIAN_POINT('',(5.269544251515,2.794680013643,2.250000000004)
  );
#103 = CARTESIAN_POINT('',(5.044134905058,3.394087608764,2.249999999997)
  );
#104 = CARTESIAN_POINT('',(4.655545215404,3.830540482855,2.250000000001)
  );
#105 = CARTESIAN_POINT('',(3.830540482855,4.655545215408,2.249999999999)
  );
#106 = CARTESIAN_POINT('',(3.394087608736,5.044134904958,2.250000000006)
  );
#107 = CARTESIAN_POINT('',(2.794680013851,5.269544251883,2.249999999988)
  );
#108 = CARTESIAN_POINT('',(2.483197547258,5.783457323029,2.250000000017)
  );
#109 = CARTESIAN_POINT('',(1.564564713327,5.689365413659,2.249999999985)
  );
#110 = CARTESIAN_POINT('',(1.112450085151,6.062500446631,2.250000000008)
  );
#111 = CARTESIAN_POINT('',(0.254370583239,6.029370090813,2.249999999998)
  );
#112 = CARTESIAN_POINT('',(-0.622093265041,5.977894942136,2.25));
#113 = CARTESIAN_POINT('',(5.989062950065,-0.610936028661,2.9375));
#114 = CARTESIAN_POINT('',(6.03917389251,0.264167407467,2.937499999999)
  );
#115 = CARTESIAN_POINT('',(5.952199754042,1.002217825276,2.937500000002)
  );
#116 = CARTESIAN_POINT('',(5.939918135967,1.814812830061,2.937499999997)
  );
#117 = CARTESIAN_POINT('',(5.551077266521,2.25120208636,2.937500000003)
  );
#118 = CARTESIAN_POINT('',(5.40608686505,2.93100046913,2.937499999997));
#119 = CARTESIAN_POINT('',(5.026311591139,3.376324158129,2.937500000002)
  );
#120 = CARTESIAN_POINT('',(4.66869381379,3.843690143958,2.937499999999)
  );
#121 = CARTESIAN_POINT('',(3.843690143961,4.668693813791,2.937500000001)
  );
#122 = CARTESIAN_POINT('',(3.376324158121,5.026311591148,2.937499999996)
  );
#123 = CARTESIAN_POINT('',(2.931000469155,5.406086865044,2.93750000001)
  );
#124 = CARTESIAN_POINT('',(2.251202086323,5.551077266468,2.937499999986)
  );
#125 = CARTESIAN_POINT('',(1.814812830127,5.939918136114,2.937500000012)
  );
#126 = CARTESIAN_POINT('',(1.00221782525,5.952199753957,2.937499999994)
  );
#127 = CARTESIAN_POINT('',(0.264167407425,6.039173892472,2.937500000002)
  );
#128 = CARTESIAN_POINT('',(-0.610936028696,5.989062950034,2.9375));
#129 = CARTESIAN_POINT('',(5.984787510165,-0.615205785279,3.625));
#130 = CARTESIAN_POINT('',(6.033781797341,0.258778788156,3.625));
#131 = CARTESIAN_POINT('',(6.000209881187,1.050196073086,3.624999999999)
  );
#132 = CARTESIAN_POINT('',(5.836501201248,1.711517646762,3.625000000001)
  );
#133 = CARTESIAN_POINT('',(5.664669921348,2.364630862332,3.624999999998)
  );
#134 = CARTESIAN_POINT('',(5.35979269398,2.884801746984,3.625000000001)
  );
#135 = CARTESIAN_POINT('',(5.049846659843,3.399835109636,3.624999999999)
  );
#136 = CARTESIAN_POINT('',(4.679211633653,3.854208304982,3.625));
#137 = CARTESIAN_POINT('',(3.854208304984,4.679211633655,3.624999999999)
  );
#138 = CARTESIAN_POINT('',(3.399835109651,5.049846659862,3.625000000002)
  );
#139 = CARTESIAN_POINT('',(2.884801746949,5.359792693931,3.624999999995)
  );
#140 = CARTESIAN_POINT('',(2.364630862407,5.664669921454,3.625000000007)
  );
#141 = CARTESIAN_POINT('',(1.711517646724,5.836501201173,3.624999999994)
  );
#142 = CARTESIAN_POINT('',(1.0501960731,6.000209881222,3.625000000003));
#143 = CARTESIAN_POINT('',(0.258778788169,6.033781797352,3.624999999999)
  );
#144 = CARTESIAN_POINT('',(-0.615205785281,5.984787510162,3.625));
#145 = CARTESIAN_POINT('',(5.98573585626,-0.614258172891,4.3125));
#146 = CARTESIAN_POINT('',(6.034507621059,0.259503793492,4.3125));
#147 = CARTESIAN_POINT('',(5.990741078331,1.040732721762,4.3125));
#148 = CARTESIAN_POINT('',(5.858856773885,1.733847798023,4.312499999999)
  );
#149 = CARTESIAN_POINT('',(5.647380542533,2.34737141645,4.312500000001)
  );
#150 = CARTESIAN_POINT('',(5.375084571752,2.900075059844,4.312499999999)
  );
#151 = CARTESIAN_POINT('',(5.052104528676,3.40209764105,4.312500000001)
  );
#152 = CARTESIAN_POINT('',(4.684395106753,3.85939164339,4.3125));
#153 = CARTESIAN_POINT('',(3.859391643391,4.684395106754,4.3125));
#154 = CARTESIAN_POINT('',(3.402097641055,5.05210452868,4.312499999999)
  );
#155 = CARTESIAN_POINT('',(2.900075059846,5.375084571753,4.312500000002)
  );
#156 = CARTESIAN_POINT('',(2.347371416461,5.647380542547,4.312499999998)
  );
#157 = CARTESIAN_POINT('',(1.733847798028,5.858856773885,4.312500000002)
  );
#158 = CARTESIAN_POINT('',(1.040732721777,5.990741078348,4.312499999999)
  );
#159 = CARTESIAN_POINT('',(0.259503793498,6.034507621065,4.3125));
#160 = CARTESIAN_POINT('',(-0.614258172896,5.985735856255,4.3125));
#161 = CARTESIAN_POINT('',(5.98573585626,-0.614258172892,5.6875));
#162 = CARTESIAN_POINT('',(6.034507621058,0.259503793489,5.6875));
#163 = CARTESIAN_POINT('',(5.990741078328,1.040732721762,5.6875));
#164 = CARTESIAN_POINT('',(5.858856773889,1.733847798021,5.687500000001)
  );
#165 = CARTESIAN_POINT('',(5.647380542535,2.347371416457,5.687499999999)
  );
#166 = CARTESIAN_POINT('',(5.375084571758,2.900075059848,5.687500000001)
  );
#167 = CARTESIAN_POINT('',(5.052104528686,3.402097641061,5.687499999999)
  );
#168 = CARTESIAN_POINT('',(4.684395106763,3.8593916434,5.6875));
#169 = CARTESIAN_POINT('',(3.859391643402,4.684395106765,5.6875));
#170 = CARTESIAN_POINT('',(3.402097641064,5.052104528687,5.687500000001)
  );
#171 = CARTESIAN_POINT('',(2.90007505985,5.37508457176,5.687499999998));
#172 = CARTESIAN_POINT('',(2.347371416462,5.647380542544,5.687500000002)
  );
#173 = CARTESIAN_POINT('',(1.733847798025,5.858856773885,5.687499999998)
  );
#174 = CARTESIAN_POINT('',(1.040732721772,5.990741078341,5.687500000001)
  );
#175 = CARTESIAN_POINT('',(0.259503793493,6.034507621061,5.6875));
#176 = CARTESIAN_POINT('',(-0.614258172896,5.985735856256,5.6875));
#177 = CARTESIAN_POINT('',(5.984787510169,-0.615205785275,6.375));
#178 = CARTESIAN_POINT('',(6.033781797341,0.258778788161,6.375));
#179 = CARTESIAN_POINT('',(6.000209881215,1.050196073089,6.375000000001)
  );
#180 = CARTESIAN_POINT('',(5.836501201198,1.711517646759,6.374999999996)
  );
#181 = CARTESIAN_POINT('',(5.664669921411,2.364630862349,6.375000000005)
  );
#182 = CARTESIAN_POINT('',(5.35979269395,2.884801746991,6.374999999995)
  );
#183 = CARTESIAN_POINT('',(5.049846659881,3.399835109656,6.375000000003)
  );
#184 = CARTESIAN_POINT('',(4.679211633675,3.854208305006,6.374999999999)
  );
#185 = CARTESIAN_POINT('',(3.854208305005,4.679211633675,6.375000000001)
  );
#186 = CARTESIAN_POINT('',(3.399835109658,5.049846659876,6.374999999996)
  );
#187 = CARTESIAN_POINT('',(2.884801747026,5.359792693981,6.375000000008)
  );
#188 = CARTESIAN_POINT('',(2.364630862288,5.664669921387,6.37499999999)
  );
#189 = CARTESIAN_POINT('',(1.711517646823,5.836501201224,6.375000000009)
  );
#190 = CARTESIAN_POINT('',(1.050196073062,6.000209881202,6.374999999995)
  );
#191 = CARTESIAN_POINT('',(0.258778788159,6.033781797339,6.375000000001)
  );
#192 = CARTESIAN_POINT('',(-0.615205785279,5.984787510163,6.375));
#193 = CARTESIAN_POINT('',(5.989062950059,-0.61093602867,7.0625));
#194 = CARTESIAN_POINT('',(6.039173892506,0.264167407456,7.062500000001)
  );
#195 = CARTESIAN_POINT('',(5.952199753979,1.002217825258,7.062499999996)
  );
#196 = CARTESIAN_POINT('',(5.939918135987,1.814812829982,7.062500000009)
  );
#197 = CARTESIAN_POINT('',(5.55107726654,2.251202086458,7.062499999989)
  );
#198 = CARTESIAN_POINT('',(5.40608686511,2.931000469119,7.062500000011)
  );
#199 = CARTESIAN_POINT('',(5.026311591124,3.376324158157,7.062499999992)
  );
#200 = CARTESIAN_POINT('',(4.668693813824,3.843690143986,7.062500000003)
  );
#201 = CARTESIAN_POINT('',(3.843690143997,4.668693813827,7.062499999997)
  );
#202 = CARTESIAN_POINT('',(3.376324158163,5.02631159117,7.06250000001));
#203 = CARTESIAN_POINT('',(2.93100046904,5.406086865007,7.062499999981)
  );
#204 = CARTESIAN_POINT('',(2.251202086618,5.551077266614,7.062500000022)
  );
#205 = CARTESIAN_POINT('',(1.814812829871,5.939918135983,7.062499999981)
  );
#206 = CARTESIAN_POINT('',(1.002217825308,5.952199753982,7.06250000001)
  );
#207 = CARTESIAN_POINT('',(0.264167407467,6.039173892521,7.062499999998)
  );
#208 = CARTESIAN_POINT('',(-0.610936028674,5.98906295006,7.0625));
#209 = CARTESIAN_POINT('',(5.977894942126,-0.622093265062,7.75));
#210 = CARTESIAN_POINT('',(6.029370090736,0.254370583159,7.749999999998)
  );
#211 = CARTESIAN_POINT('',(6.062500446561,1.112450085121,7.750000000007)
  );
#212 = CARTESIAN_POINT('',(5.689365413761,1.564564713479,7.749999999986)
  );
#213 = CARTESIAN_POINT('',(5.783457323094,2.483197547148,7.750000000018)
  );
#214 = CARTESIAN_POINT('',(5.269544251694,2.79468001389,7.749999999983)
  );
#215 = CARTESIAN_POINT('',(5.044134905118,3.394087608772,7.750000000012)
  );
#216 = CARTESIAN_POINT('',(4.65554521544,3.830540482899,7.749999999996)
  );
#217 = CARTESIAN_POINT('',(3.830540482889,4.655545215443,7.750000000005)
  );
#218 = CARTESIAN_POINT('',(3.394087608814,5.04413490506,7.749999999984)
  );
#219 = CARTESIAN_POINT('',(2.794680013857,5.269544251819,7.750000000029)
  );
#220 = CARTESIAN_POINT('',(2.483197547237,5.783457323115,7.749999999966)
  );
#221 = CARTESIAN_POINT('',(1.56456471333,5.689365413612,7.750000000028)
  );
#222 = CARTESIAN_POINT('',(1.112450085212,6.06250044666,7.749999999986)
  );
#223 = CARTESIAN_POINT('',(0.254370583152,6.029370090724,7.750000000003)
  );
#224 = CARTESIAN_POINT('',(-0.622093265067,5.977894942114,7.75));
#225 = CARTESIAN_POINT('',(5.992054497028,-0.607949931837,8.4375));
#226 = CARTESIAN_POINT('',(6.043464246414,0.26845838886,8.437500000002)
  );
#227 = CARTESIAN_POINT('',(5.9197430162,0.969786053491,8.437499999993));
#228 = CARTESIAN_POINT('',(6.011523704592,1.886308263225,8.437500000014)
  );
#229 = CARTESIAN_POINT('',(5.454545847194,2.154827072631,8.437499999982)
  );
#230 = CARTESIAN_POINT('',(5.416958993895,2.941787571375,8.437500000017)
  );
#231 = CARTESIAN_POINT('',(4.991883777313,3.341912123243,8.437499999988)
  );
#232 = CARTESIAN_POINT('',(4.642264596237,3.817258198542,8.437500000004)
  );
#233 = CARTESIAN_POINT('',(3.817258198556,4.642264596238,8.437499999995)
  );
#234 = CARTESIAN_POINT('',(3.341912123167,4.991883777364,8.437500000016)
  );
#235 = CARTESIAN_POINT('',(2.941787571584,5.416958993822,8.437499999971)
  );
#236 = CARTESIAN_POINT('',(2.154827072267,5.454545847138,8.437500000035)
  );
#237 = CARTESIAN_POINT('',(1.88630826364,6.011523704785,8.437499999972)
  );
#238 = CARTESIAN_POINT('',(0.969786053296,5.919743016086,8.437500000014)
  );
#239 = CARTESIAN_POINT('',(0.268458388874,6.043464246429,8.437499999996)
  );
#240 = CARTESIAN_POINT('',(-0.607949931838,5.992054497029,8.4375));
#241 = CARTESIAN_POINT('',(5.977324897642,-0.622671722645,9.125));
#242 = CARTESIAN_POINT('',(6.037753628072,0.262748206328,9.124999999999)
  );
#243 = CARTESIAN_POINT('',(6.027615592355,1.077598552706,9.125000000005)
  );
#244 = CARTESIAN_POINT('',(5.764292986285,1.639451132004,9.12499999999)
  );
#245 = CARTESIAN_POINT('',(5.651622918247,2.351490950426,9.125000000012)
  );
#246 = CARTESIAN_POINT('',(5.307611072762,2.832658394181,9.124999999989)
  );
#247 = CARTESIAN_POINT('',(5.011226450224,3.361193713447,9.125000000007)
  );
#248 = CARTESIAN_POINT('',(4.638747830492,3.81373964924,9.124999999997)
  );
#249 = CARTESIAN_POINT('',(3.813739649237,4.638747830494,9.125000000003)
  );
#250 = CARTESIAN_POINT('',(3.361193713496,5.011226450215,9.124999999989)
  );
#251 = CARTESIAN_POINT('',(2.832658394063,5.30761107278,9.125000000019)
  );
#252 = CARTESIAN_POINT('',(2.351490950661,5.651622918316,9.124999999976)
  );
#253 = CARTESIAN_POINT('',(1.639451131801,5.764292986211,9.12500000002)
  );
#254 = CARTESIAN_POINT('',(1.077598552815,6.027615592415,9.12499999999)
  );
#255 = CARTESIAN_POINT('',(0.26274820631,6.037753628056,9.125000000003)
  );
#256 = CARTESIAN_POINT('',(-0.622671722661,5.977324897627,9.125));
#257 = CARTESIAN_POINT('',(5.977107486907,-0.622889881463,9.8125));
#258 = CARTESIAN_POINT('',(6.04104935757,0.266042881249,9.8125));
#259 = CARTESIAN_POINT('',(6.025810434006,1.075796223064,9.812499999999)
  );
#260 = CARTESIAN_POINT('',(5.772948192013,1.648091212452,9.812500000003)
  );
#261 = CARTESIAN_POINT('',(5.65161216746,2.351500922153,9.812499999996)
  );
#262 = CARTESIAN_POINT('',(5.315072614676,2.840107088328,9.812500000003)
  );
#263 = CARTESIAN_POINT('',(5.018490422073,3.368459083233,9.812499999998)
  );
#264 = CARTESIAN_POINT('',(4.646969072603,3.821959838166,9.812500000001)
  );
#265 = CARTESIAN_POINT('',(3.821959838167,4.646969072605,9.812499999999)
  );
#266 = CARTESIAN_POINT('',(3.368459083239,5.01849042208,9.812500000003)
  );
#267 = CARTESIAN_POINT('',(2.840107088301,5.31507261465,9.812499999994)
  );
#268 = CARTESIAN_POINT('',(2.35150092223,5.651612167535,9.812500000007)
  );
#269 = CARTESIAN_POINT('',(1.64809121238,5.772948191943,9.812499999994)
  );
#270 = CARTESIAN_POINT('',(1.075796223115,6.025810434058,9.812500000003)
  );
#271 = CARTESIAN_POINT('',(0.266042881264,6.041049357586,9.812499999999)
  );
#272 = CARTESIAN_POINT('',(-0.622889881462,5.977107486908,9.8125));
#273 = CARTESIAN_POINT('',(5.975808243592,-0.624188747023,10.5));
#274 = CARTESIAN_POINT('',(6.039953560051,0.26494872459,10.5));
#275 = CARTESIAN_POINT('',(6.015054210251,1.065047980802,10.5));
#276 = CARTESIAN_POINT('',(5.812834932611,1.687928028473,10.5));
#277 = CARTESIAN_POINT('',(5.640261029225,2.340199520637,10.5));
#278 = CARTESIAN_POINT('',(5.345147504842,2.870157427711,10.5));
#279 = CARTESIAN_POINT('',(5.034531827637,3.384508825453,10.5));
#280 = CARTESIAN_POINT('',(4.66698687875,3.84197853519,10.5));
#281 = CARTESIAN_POINT('',(3.841978535187,4.666986878748,10.5));
#282 = CARTESIAN_POINT('',(3.384508825442,5.034531827629,10.5));
#283 = CARTESIAN_POINT('',(2.870157427719,5.345147504845,10.5));
#284 = CARTESIAN_POINT('',(2.340199520621,5.640261029217,10.5));
#285 = CARTESIAN_POINT('',(1.68792802846,5.812834932591,10.5));
#286 = CARTESIAN_POINT('',(1.065047980803,6.015054210257,10.5));
#287 = CARTESIAN_POINT('',(0.264948724578,6.039953560039,10.5));
#288 = CARTESIAN_POINT('',(-0.624188747048,5.975808243568,10.5));
#289 = DEFINITIONAL_REPRESENTATION('',(#290),#295);
#290 = B_SPLINE_CURVE_WITH_KNOTS('',3,(#291,#292,#293,#294),
  .UNSPECIFIED.,.F.,.F.,(4,4),(0.,10.),.PIECEWISE_BEZIER_KNOTS.);
#291 = CARTESIAN_POINT('',(-5.,-4.242640687119));
#292 = CARTESIAN_POINT('',(-1.666667741292,-4.242640687119));
#293 = CARTESIAN_POINT('',(1.666667741292,-4.242640687119));
#294 = CARTESIAN_POINT('',(5.,-4.242640687119));
#295 = ( GEOMETRIC_REPRESENTATION_CONTEXT(2) 
PARAMETRIC_REPRESENTATION_CONTEXT() REPRESENTATION_CONTEXT('2D SPACE',''
  ) );
#296 = ORIENTED_EDGE('',*,*,#297,.T.);
#297 = EDGE_CURVE('',#24,#298,#300,.T.);
#298 = VERTEX_POINT('',#299);
#299 = CARTESIAN_POINT('',(2.563717367549E-16,6.,10.));
#300 = SURFACE_CURVE('',#301,(#306),.PCURVE_S1.);
#301 = CIRCLE('',#302,6.);
#302 = AXIS2_PLACEMENT_3D('',#303,#304,#305);
#303 = CARTESIAN_POINT('',(4.440892098501E-16,6.661338147751E-16,10.));
#304 = DIRECTION('',(0.,0.,1.));
#305 = DIRECTION('',(1.,-1.110223024625E-16,0.));
#306 = PCURVE('',#32,#307);
#307 = DEFINITIONAL_REPRESENTATION('',(#308),#321);
#308 = B_SPLINE_CURVE_WITH_KNOTS('',11,(#309,#310,#311,#312,#313,#314,
    #315,#316,#317,#318,#319,#320),.UNSPECIFIED.,.F.,.F.,(12,12),(0.,
    1.570796326795),.PIECEWISE_BEZIER_KNOTS.);
#309 = CARTESIAN_POINT('',(5.,-4.242640687119));
#310 = CARTESIAN_POINT('',(5.,-3.634827273238));
#311 = CARTESIAN_POINT('',(5.000000000001,-2.946315705966));
#312 = CARTESIAN_POINT('',(4.999999999998,-2.127027292297));
#313 = CARTESIAN_POINT('',(5.000000000004,-1.371862439395));
#314 = CARTESIAN_POINT('',(4.999999999996,-0.371130432014));
#315 = CARTESIAN_POINT('',(5.000000000004,0.371130432055));
#316 = CARTESIAN_POINT('',(4.999999999997,1.371862439303));
#317 = CARTESIAN_POINT('',(5.000000000001,2.127027292375));
#318 = CARTESIAN_POINT('',(4.999999999999,2.94631570593));
#319 = CARTESIAN_POINT('',(5.,3.634827273246));
#320 = CARTESIAN_POINT('',(5.,4.242640687119));
#321 = ( GEOMETRIC_REPRESENTATION_CONTEXT(2) 
PARAMETRIC_REPRESENTATION_CONTEXT() REPRESENTATION_CONTEXT('2D SPACE',''
  ) );
#322 = ORIENTED_EDGE('',*,*,#323,.T.);
#323 = EDGE_CURVE('',#298,#324,#326,.T.);
#324 = VERTEX_POINT('',#325);
#325 = CARTESIAN_POINT('',(3.673940397442E-16,6.,0.));
#326 = SURFACE_CURVE('',#327,(#331),.PCURVE_S1.);
#327 = LINE('',#328,#329);
#328 = CARTESIAN_POINT('',(3.673940397442E-16,6.,10.));
#329 = VECTOR('',#330,1.);
#330 = DIRECTION('',(0.,0.,-1.));
#331 = PCURVE('',#32,#332);
#332 = DEFINITIONAL_REPRESENTATION('',(#333),#338);
#333 = B_SPLINE_CURVE_WITH_KNOTS('',3,(#334,#335,#336,#337),
  .UNSPECIFIED.,.F.,.F.,(4,4),(0.,10.),.PIECEWISE_BEZIER_KNOTS.);
#334 = CARTESIAN_POINT('',(5.,4.242640687119));
#335 = CARTESIAN_POINT('',(1.666667741292,4.242640687119));
#336 = CARTESIAN_POINT('',(-1.666667741292,4.242640687119));
#337 = CARTESIAN_POINT('',(-5.,4.242640687119));
#338 = ( GEOMETRIC_REPRESENTATION_CONTEXT(2) 
PARAMETRIC_REPRESENTATION_CONTEXT() REPRESENTATION_CONTEXT('2D SPACE',''
  ) );
#339 = ORIENTED_EDGE('',*,*,#340,.T.);
#340 = EDGE_CURVE('',#324,#22,#341,.T.);
#341 = SURFACE_CURVE('',#342,(#347),.PCURVE_S1.);
#342 = CIRCLE('',#343,6.);
#343 = AXIS2_PLACEMENT_3D('',#344,#345,#346);
#344 = CARTESIAN_POINT('',(4.440892098501E-16,6.661338147751E-16,0.));
#345 = DIRECTION('',(0.,0.,-1.));
#346 = DIRECTION('',(-1.278252835098E-17,1.,0.));
#347 = PCURVE('',#32,#348);
#348 = DEFINITIONAL_REPRESENTATION('',(#349),#362);
#349 = B_SPLINE_CURVE_WITH_KNOTS('',11,(#350,#351,#352,#353,#354,#355,
    #356,#357,#358,#359,#360,#361),.UNSPECIFIED.,.F.,.F.,(12,12),(0.,
    1.570796326795),.PIECEWISE_BEZIER_KNOTS.);
#350 = CARTESIAN_POINT('',(-5.,4.242640687119));
#351 = CARTESIAN_POINT('',(-5.,3.634827273248));
#352 = CARTESIAN_POINT('',(-5.000000000001,2.946315705962));
#353 = CARTESIAN_POINT('',(-4.999999999998,2.127027292219));
#354 = CARTESIAN_POINT('',(-5.000000000003,1.37186243969));
#355 = CARTESIAN_POINT('',(-4.999999999997,0.371130431448));
#356 = CARTESIAN_POINT('',(-5.000000000002,-0.371130431372));
#357 = CARTESIAN_POINT('',(-4.999999999998,-1.371862439844));
#358 = CARTESIAN_POINT('',(-5.000000000001,-2.127027292104));
#359 = CARTESIAN_POINT('',(-5.,-2.946315706006));
#360 = CARTESIAN_POINT('',(-5.,-3.634827273238));
#361 = CARTESIAN_POINT('',(-5.,-4.242640687119));
#362 = ( GEOMETRIC_REPRESENTATION_CONTEXT(2) 
PARAMETRIC_REPRESENTATION_CONTEXT() REPRESENTATION_CONTEXT('2D SPACE',''
  ) );
#363 = ( GEOMETRIC_REPRESENTATION_CONTEXT(3) 
GLOBAL_UNCERTAINTY_ASSIGNED_CONTEXT((#367)) GLOBAL_UNIT_ASSIGNED_CONTEXT
((#364,#365,#366)) REPRESENTATION_CONTEXT('Context #1',
  '3D Context with UNIT and UNCERTAINTY') );
#364 = ( LENGTH_UNIT() NAMED_UNIT(*) SI_UNIT(.MILLI.,.METRE.) );
#365 = ( NAMED_UNIT(*) PLANE_ANGLE_UNIT() SI_UNIT($,.RADIAN.) );
#366 = ( NAMED_UNIT(*) SI_UNIT($,.STERADIAN.) SOLID_ANGLE_UNIT() );
#367 = UNCERTAINTY_MEASURE_WITH_UNIT(LENGTH_MEASURE(2.E-04),#364,
  'distance_accuracy_value','confusion accuracy');
#368 = PRODUCT_RELATED_PRODUCT_CATEGORY('part',$,(#7));
ENDSEC;
END-ISO-10303-21;
