ply
format ascii 1.0
element vertex 258
property float x
property float y
property float z
property float nx
property float ny
property float nz
element face 512
property list uchar int vertex_index
end_header
-7.684497356414795 -6.037671089172363 -2.120148181915283 -0.7642260756069552 -0.6011713120573628 -0.23356275157143822
-6.037671089172363 -7.684497356414795 -2.120148181915283 -0.6011713120573628 -0.7642260756069552 -0.23356275157143822
-6.357108116149902 -6.357108116149902 -4.378852367401123 -0.632736562282517 -0.632736562282517 -0.4464178373472605
-7.684497356414795 -2.120148181915283 -6.037671089172363 -0.7642260756069552 -0.23356275157143822 -0.6011713120573628
-6.357108116149902 -4.378852367401123 -6.357108116149902 -0.632736562282517 -0.4464178373472605 -0.632736562282517
-6.037671089172363 -2.120148181915283 -7.684497356414795 -0.6011712445177503 -0.23356276338976217 -0.7642261251244409
-7.941044807434082 -4.297662734985352 -4.297662734985352 -0.7871378784062543 -0.43612725228888244 -0.43612725228888244
-8.884476661682129 -4.089075565338135 -2.084592819213867 -0.8841507436145106 -0.40994378930397996 -0.22410611811595477
-8.884476661682129 -2.084592819213867 -4.089075565338135 -0.8841507436145106 -0.22410611811595477 -0.40994378930397996
-9.581864356994629 -2.0233471393585205 -2.0233471393585205 -0.9554945273567927 -0.20860274230126877 -0.20860274230126877
-4.378852367401123 -6.357108116149902 -6.357108116149902 -0.4464178373472605 -0.632736562282517 -0.632736562282517
-2.120148181915283 -7.684497356414795 -6.037671089172363 -0.23356276338976217 -0.7642261251244409 -0.6011712445177503
-2.120148181915283 -6.037671089172363 -7.684497356414795 -0.23356276338976217 -0.6011712445177503 -0.7642261251244409
-4.297662734985352 -7.941044807434082 -4.297662734985352 -0.43612725228888244 -0.7871378784062543 -0.43612725228888244
-4.089075565338135 -8.884476661682129 -2.084592819213867 -0.40994378930397996 -0.8841507436145106 -0.22410611811595477
-2.084592819213867 -8.884476661682129 -4.089075565338135 -0.22410611811595477 -0.8841507436145106 -0.40994378930397996
-2.0233471393585205 -9.581864356994629 -2.0233471393585205 -0.20860274230126877 -0.9554945273567927 -0.20860274230126877
-4.297662734985352 -4.297662734985352 -7.941044807434082 -0.43612725228888244 -0.43612725228888244 -0.7871378784062543
-4.089075565338135 -2.084592819213867 -8.884476661682129 -0.40994378930397996 -0.22410611811595477 -0.8841507436145106
-2.084592819213867 -4.089075565338135 -8.884476661682129 -0.22410611811595477 -0.40994378930397996 -0.8841507436145106
-2.0233471393585205 -2.0233471393585205 -9.581864356994629 -0.20860274230126877 -0.20860274230126877 -0.9554945273567927
-8.314696311950684 -5.555702209472656 6.123233998228043e-16 -0.8391567518054149 -0.5438896449642935 -1.5476658934512177e-9
-7.684497356414795 -6.037671089172363 2.120148181915283 -0.7642261277842199 -0.6011712466100403 0.2335627493014828
-5.555702209472656 -8.314696311950684 6.123233998228043e-16 -0.5438896449642935 -0.8391567518054149 -1.5476658934512177e-9
-6.037671089172363 -7.684497356414795 2.120148181915283 -0.6011712466100403 -0.7642261277842199 0.2335627493014828
-7.071067810058594 -7.071067810058594 6.123233998228043e-16 -0.7071067811865476 -0.7071067811865476 -1.6698168689327524e-9
-6.357108116149902 -6.357108116149902 4.378852367401123 -0.6327365707006265 -0.6327365707006265 0.4464178134842093
-9.238795280456543 -3.8268344402313232 6.123233998228043e-16 -0.932976962214385 -0.359936088739679 3.3487901379546005e-9
-8.884476661682129 -4.089075565338135 2.084592819213867 -0.8841507328125958 -0.40994381409790503 0.2241061153779882
-7.941044807434082 -4.297662734985352 4.297662734985352 -0.7871378784062543 -0.43612725228888244 0.43612725228888244
-9.807852745056152 -1.9509031772613525 6.123233998228043e-16 -0.9861362641580977 -0.16593754401072225 6.760667070834742e-10
-9.581864356994629 -2.0233471393585205 2.0233471393585205 -0.9554945332969552 -0.20860272869695856 0.20860272869695856
-8.884476661682129 -2.084592819213867 4.089075565338135 -0.8841507436145106 -0.22410611811595477 0.40994378930397996
-7.684497356414795 -2.120148181915283 6.037671089172363 -0.7642261277842199 -0.2335627493014828 0.6011712466100403
-6.357108116149902 -4.378852367401123 6.357108116149902 -0.6327365026778701 -0.4464178373472589 0.6327366218871593
-6.037671089172363 -2.120148181915283 7.684497356414795 -0.6011712466100403 -0.2335627493014828 0.7642261277842199
-3.8268344402313232 -9.238795280456543 6.123233998228043e-16 -0.359936088739679 -0.932976962214385 3.3487901379546005e-9
-4.089075565338135 -8.884476661682129 2.084592819213867 -0.40994381409790503 -0.8841507328125958 0.2241061153779882
-4.297662734985352 -7.941044807434082 4.297662734985352 -0.43612725228888244 -0.7871378784062543 0.43612725228888244
-1.9509031772613525 -9.807852745056152 6.123233998228043e-16 -0.16593754401072225 -0.9861362641580977 6.760667070834742e-10
-2.0233471393585205 -9.581864356994629 2.0233471393585205 -0.20860272869695856 -0.9554945332969552 0.20860272869695856
-2.084592819213867 -8.884476661682129 4.089075565338135 -0.22410611811595477 -0.8841507436145106 0.40994378930397996
-4.378852367401123 -6.357108116149902 6.357108116149902 -0.4464178373472589 -0.6327365026778701 0.6327366218871593
-2.120148181915283 -7.684497356414795 6.037671089172363 -0.23356277974799702 -0.764226070287397 0.601171307872782
-2.120148181915283 -6.037671089172363 7.684497356414795 -0.2335627493014828 -0.6011712466100403 0.7642261277842199
-4.297662734985352 -4.297662734985352 7.941044807434082 -0.43612725228888244 -0.43612725228888244 0.7871378784062543
-4.089075565338135 -2.084592819213867 8.884476661682129 -0.40994378930397996 -0.22410611811595477 0.8841507436145106
-2.084592819213867 -4.089075565338135 8.884476661682129 -0.22410611811595477 -0.40994378930397996 0.8841507436145106
-2.0233471393585205 -2.0233471393585205 9.581864356994629 -0.20860274230126877 -0.20860274230126877 0.9554945273567927
-8.314696311950684 6.123233998228043e-16 -5.555702209472656 -0.8391567518054149 -1.5476658934512177e-9 -0.5438896449642935
-7.684497356414795 2.120148181915283 -6.037671089172363 -0.7642261277842199 0.2335627493014828 -0.6011712466100403
-5.555702209472656 6.123233998228043e-16 -8.314696311950684 -0.5438896449642935 -1.5476658934512177e-9 -0.8391567518054149
-6.037671089172363 2.120148181915283 -7.684497356414795 -0.6011712466100403 0.2335627493014828 -0.7642261277842199
-7.071067810058594 6.123233998228043e-16 -7.071067810058594 -0.7071067811865476 -1.6698168689327524e-9 -0.7071067811865476
-6.357108116149902 4.378852367401123 -6.357108116149902 -0.6327365707006265 0.4464178134842093 -0.6327365707006265
-9.238795280456543 6.123233998228043e-16 -3.8268344402313232 -0.932976962214385 3.3487901379546005e-9 -0.359936088739679
-8.884476661682129 2.084592819213867 -4.089075565338135 -0.8841507328125958 0.2241061153779882 -0.40994381409790503
-9.807852745056152 6.123233998228043e-16 -1.9509031772613525 -0.9861362665964795 1.3998915487270587e-9 -0.16593752951986837
-9.581864356994629 2.0233471393585205 -2.0233471393585205 -0.9554945332969552 0.20860272869695856 -0.20860272869695856
-7.941044807434082 4.297662734985352 -4.297662734985352 -0.7871379215425054 0.43612721336196425 -0.43612721336196425
-8.884476661682129 4.089075565338135 -2.084592819213867 -0.8841507436145106 0.40994378930397996 -0.22410611811595477
-7.684497356414795 6.037671089172363 -2.120148181915283 -0.7642261277842199 0.6011712466100403 -0.2335627493014828
-6.357108116149902 6.357108116149902 -4.378852367401123 -0.6327365026778701 0.6327366218871593 -0.4464178373472589
-6.037671089172363 7.684497356414795 -2.120148181915283 -0.6011712466100403 0.7642261277842199 -0.2335627493014828
-3.8268344402313232 6.123233998228043e-16 -9.238795280456543 -0.359936088739679 3.3487901379546005e-9 -0.932976962214385
-4.089075565338135 2.084592819213867 -8.884476661682129 -0.40994381409790503 0.2241061153779882 -0.8841507328125958
-4.297662734985352 4.297662734985352 -7.941044807434082 -0.43612725228888244 0.43612725228888244 -0.7871378784062543
-1.9509031772613525 6.123233998228043e-16 -9.807852745056152 -0.16593754401072225 6.760667070834742e-10 -0.9861362641580977
-2.0233471393585205 2.0233471393585205 -9.581864356994629 -0.20860272869695856 0.20860272869695856 -0.9554945332969552
-2.084592819213867 4.089075565338135 -8.884476661682129 -0.22410611811595477 0.40994378930397996 -0.8841507436145106
-4.378852367401123 6.357108116149902 -6.357108116149902 -0.4464178373472589 0.6327366218871593 -0.6327365026778701
-2.120148181915283 6.037671089172363 -7.684497356414795 -0.23356277974799702 0.601171307872782 -0.764226070287397
-2.120148181915283 7.684497356414795 -6.037671089172363 -0.2335627493014828 0.7642261277842199 -0.6011712466100403
-4.297662734985352 7.941044807434082 -4.297662734985352 -0.43612725228888244 0.7871378784062543 -0.43612725228888244
-4.089075565338135 8.884476661682129 -2.084592819213867 -0.40994378930397996 0.8841507436145106 -0.22410611811595477
-2.084592819213867 8.884476661682129 -4.089075565338135 -0.22410611811595477 0.8841507436145106 -0.40994378930397996
-2.0233471393585205 9.581864356994629 -2.0233471393585205 -0.20860274230126877 0.9554945273567927 -0.20860274230126877
-10 6.123233998228043e-16 6.123233998228043e-16 -1 -9.046949300817175e-10 -9.046949300817175e-10
-9.807852745056152 6.123233998228043e-16 1.9509031772613525 -0.9861362641580977 8.739564685237914e-10 0.16593754401072225
-9.807852745056152 1.9509031772613525 6.123233998228043e-16 -0.9861362641580977 0.16593754401072225 8.739564685237914e-10
-9.581864356994629 2.0233471393585205 2.0233471393585205 -0.9554945273567927 0.20860274230126877 0.20860274230126877
-9.238795280456543 6.123233998228043e-16 3.8268344402313232 -0.932976962214385 3.3487901379546005e-9 0.359936088739679
-8.884476661682129 2.084592819213867 4.089075565338135 -0.8841507436145106 0.22410611811595477 0.40994378930397996
-9.238795280456543 3.8268344402313232 6.123233998228043e-16 -0.9329769522064049 0.3599361146809913 3.148121067010234e-9
-8.884476661682129 4.089075565338135 2.084592819213867 -0.8841507436145106 0.40994378930397996 0.22410611811595477
-7.941044807434082 4.297662734985352 4.297662734985352 -0.7871379420043191 0.4361271948968587 0.4361271948968587
-8.314696311950684 6.123233998228043e-16 5.555702209472656 -0.8391567518054149 9.965264228086389e-10 0.5438896449642935
-7.684497356414795 2.120148181915283 6.037671089172363 -0.7642260756069552 0.23356275157143822 0.6011713120573628
-7.071067810058594 6.123233998228043e-16 7.071067810058594 -0.7071067811865476 -1.5915967705279218e-9 0.7071067811865476
-5.555702209472656 6.123233998228043e-16 8.314696311950684 -0.5438896449642935 -1.5476658934512177e-9 0.8391567518054149
-6.037671089172363 2.120148181915283 7.684497356414795 -0.6011712466100403 0.2335627493014828 0.7642261277842199
-6.357108116149902 4.378852367401123 6.357108116149902 -0.632736562282517 0.4464178373472605 0.632736562282517
-8.314696311950684 5.555702209472656 6.123233998228043e-16 -0.8391567518054149 0.5438896449642935 9.965264228086389e-10
-7.684497356414795 6.037671089172363 2.120148181915283 -0.7642260756069552 0.6011713120573628 0.23356275157143822
-7.071067810058594 7.071067810058594 6.123233998228043e-16 -0.7071067811865476 0.7071067811865476 -1.5915967705279218e-9
-6.357108116149902 6.357108116149902 4.378852367401123 -0.632736562282517 0.632736562282517 0.4464178373472605
-5.555702209472656 8.314696311950684 6.123233998228043e-16 -0.5438896449642935 0.8391567518054149 -1.5476658934512177e-9
-6.037671089172363 7.684497356414795 2.120148181915283 -0.6011712466100403 0.7642261277842199 0.2335627493014828
-3.8268344402313232 6.123233998228043e-16 9.238795280456543 -0.359936088739679 3.3487901379546005e-9 0.932976962214385
-4.089075565338135 2.084592819213867 8.884476661682129 -0.40994381409790503 0.2241061153779882 0.8841507328125958
-4.297662734985352 4.297662734985352 7.941044807434082 -0.43612725228888244 0.43612725228888244 0.7871378784062543
-1.9509031772613525 6.123233998228043e-16 9.807852745056152 -0.16593754401072225 6.760667070834742e-10 0.9861362641580977
-2.0233471393585205 2.0233471393585205 9.581864356994629 -0.20860272869695856 0.20860272869695856 0.9554945332969552
-2.084592819213867 4.089075565338135 8.884476661682129 -0.22410611811595477 0.40994378930397996 0.8841507436145106
-3.8268344402313232 9.238795280456543 6.123233998228043e-16 -0.359936088739679 0.932976962214385 3.3487901379546005e-9
-4.089075565338135 8.884476661682129 2.084592819213867 -0.40994381409790503 0.8841507328125958 0.2241061153779882
-4.297662734985352 7.941044807434082 4.297662734985352 -0.43612725228888244 0.7871378784062543 0.43612725228888244
-1.9509031772613525 9.807852745056152 6.123233998228043e-16 -0.16593754401072225 0.9861362641580977 6.760667070834742e-10
-2.0233471393585205 9.581864356994629 2.0233471393585205 -0.20860272869695856 0.9554945332969552 0.20860272869695856
-2.084592819213867 8.884476661682129 4.089075565338135 -0.22410611811595477 0.8841507436145106 0.40994378930397996
-4.378852367401123 6.357108116149902 6.357108116149902 -0.4464178134842093 0.6327365707006265 0.6327365707006265
-2.120148181915283 6.037671089172363 7.684497356414795 -0.23356277974799702 0.601171307872782 0.764226070287397
-2.120148181915283 7.684497356414795 6.037671089172363 -0.23356277974799702 0.764226070287397 0.601171307872782
6.123233998228043e-16 -8.314696311950684 -5.555702209472656 -1.5476658934512177e-9 -0.8391567518054149 -0.5438896449642935
2.120148181915283 -7.684497356414795 -6.037671089172363 0.2335627493014828 -0.7642261277842199 -0.6011712466100403
6.123233998228043e-16 -5.555702209472656 -8.314696311950684 -1.5476658934512177e-9 -0.5438896449642935 -0.8391567518054149
2.120148181915283 -6.037671089172363 -7.684497356414795 0.2335627493014828 -0.6011712466100403 -0.7642261277842199
6.123233998228043e-16 -7.071067810058594 -7.071067810058594 -1.6698168689327524e-9 -0.7071067811865476 -0.7071067811865476
4.378852367401123 -6.357108116149902 -6.357108116149902 0.4464178134842093 -0.6327365707006265 -0.6327365707006265
6.123233998228043e-16 -9.238795280456543 -3.8268344402313232 3.3487901379546005e-9 -0.932976962214385 -0.359936088739679
2.084592819213867 -8.884476661682129 -4.089075565338135 0.2241061153779882 -0.8841507328125958 -0.40994381409790503
6.123233998228043e-16 -9.807852745056152 -1.9509031772613525 1.3998915487270587e-9 -0.9861362665964795 -0.16593752951986837
2.0233471393585205 -9.581864356994629 -2.0233471393585205 0.20860272869695856 -0.9554945332969552 -0.20860272869695856
4.297662734985352 -7.941044807434082 -4.297662734985352 0.43612721336196425 -0.7871379215425054 -0.43612721336196425
4.089075565338135 -8.884476661682129 -2.084592819213867 0.40994378930397996 -0.8841507436145106 -0.22410611811595477
6.123233998228043e-16 -3.8268344402313232 -9.238795280456543 3.3487901379546005e-9 -0.359936088739679 -0.932976962214385
2.084592819213867 -4.089075565338135 -8.884476661682129 0.2241061153779882 -0.40994381409790503 -0.8841507328125958
6.123233998228043e-16 -1.9509031772613525 -9.807852745056152 1.3998915487270587e-9 -0.16593752951986837 -0.9861362665964795
2.0233471393585205 -2.0233471393585205 -9.581864356994629 0.20860272869695856 -0.20860272869695856 -0.9554945332969552
4.297662734985352 -4.297662734985352 -7.941044807434082 0.43612721336196425 -0.43612721336196425 -0.7871379215425054
4.089075565338135 -2.084592819213867 -8.884476661682129 0.40994378930397996 -0.22410611811595477 -0.8841507436145106
6.037671089172363 -7.684497356414795 -2.120148181915283 0.6011712466100403 -0.7642261277842199 -0.2335627493014828
6.357108116149902 -6.357108116149902 -4.378852367401123 0.6327366218871593 -0.6327365026778701 -0.4464178373472589
7.684497356414795 -6.037671089172363 -2.120148181915283 0.7642261277842199 -0.6011712466100403 -0.2335627493014828
6.357108116149902 -4.378852367401123 -6.357108116149902 0.6327366218871593 -0.4464178373472589 -0.6327365026778701
6.037671089172363 -2.120148181915283 -7.684497356414795 0.601171307872782 -0.23356277974799702 -0.764226070287397
7.684497356414795 -2.120148181915283 -6.037671089172363 0.7642261277842199 -0.2335627493014828 -0.6011712466100403
7.941044807434082 -4.297662734985352 -4.297662734985352 0.7871378784062543 -0.43612725228888244 -0.43612725228888244
8.884476661682129 -4.089075565338135 -2.084592819213867 0.8841507436145106 -0.40994378930397996 -0.22410611811595477
8.884476661682129 -2.084592819213867 -4.089075565338135 0.8841507436145106 -0.22410611811595477 -0.40994378930397996
9.581864356994629 -2.0233471393585205 -2.0233471393585205 0.9554945273567927 -0.20860274230126877 -0.20860274230126877
6.123233998228043e-16 -10 6.123233998228043e-16 -9.046949300817175e-10 -1 -9.046949300817175e-10
6.123233998228043e-16 -9.807852745056152 1.9509031772613525 8.739564685237914e-10 -0.9861362641580977 0.16593754401072225
1.9509031772613525 -9.807852745056152 6.123233998228043e-16 0.16593754401072225 -0.9861362641580977 8.739564685237914e-10
2.0233471393585205 -9.581864356994629 2.0233471393585205 0.20860274230126877 -0.9554945273567927 0.20860274230126877
6.123233998228043e-16 -9.238795280456543 3.8268344402313232 3.3487901379546005e-9 -0.932976962214385 0.359936088739679
2.084592819213867 -8.884476661682129 4.089075565338135 0.22410611811595477 -0.8841507436145106 0.40994378930397996
3.8268344402313232 -9.238795280456543 6.123233998228043e-16 0.3599361146809913 -0.9329769522064049 3.148121067010234e-9
4.089075565338135 -8.884476661682129 2.084592819213867 0.40994378930397996 -0.8841507436145106 0.22410611811595477
4.297662734985352 -7.941044807434082 4.297662734985352 0.4361271948968587 -0.7871379420043191 0.4361271948968587
6.123233998228043e-16 -8.314696311950684 5.555702209472656 9.965264228086389e-10 -0.8391567518054149 0.5438896449642935
2.120148181915283 -7.684497356414795 6.037671089172363 0.23356275157143822 -0.7642260756069552 0.6011713120573628
6.123233998228043e-16 -7.071067810058594 7.071067810058594 -1.5915967705279218e-9 -0.7071067811865476 0.7071067811865476
6.123233998228043e-16 -5.555702209472656 8.314696311950684 -1.5476658934512177e-9 -0.5438896449642935 0.8391567518054149
2.120148181915283 -6.037671089172363 7.684497356414795 0.2335627493014828 -0.6011712466100403 0.7642261277842199
4.378852367401123 -6.357108116149902 6.357108116149902 0.4464178373472605 -0.632736562282517 0.632736562282517
6.123233998228043e-16 -3.8268344402313232 9.238795280456543 3.3487901379546005e-9 -0.359936088739679 0.932976962214385
2.084592819213867 -4.089075565338135 8.884476661682129 0.2241061153779882 -0.40994381409790503 0.8841507328125958
6.123233998228043e-16 -1.9509031772613525 9.807852745056152 1.3998915487270587e-9 -0.16593752951986837 0.9861362665964795
2.0233471393585205 -2.0233471393585205 9.581864356994629 0.20860272869695856 -0.20860272869695856 0.9554945332969552
4.297662734985352 -4.297662734985352 7.941044807434082 0.43612721336196425 -0.43612721336196425 0.7871379215425054
4.089075565338135 -2.084592819213867 8.884476661682129 0.40994378930397996 -0.22410611811595477 0.8841507436145106
5.555702209472656 -8.314696311950684 6.123233998228043e-16 0.5438896449642935 -0.8391567518054149 9.965264228086389e-10
6.037671089172363 -7.684497356414795 2.120148181915283 0.6011713120573628 -0.7642260756069552 0.23356275157143822
7.071067810058594 -7.071067810058594 6.123233998228043e-16 0.7071067811865476 -0.7071067811865476 -1.5915967705279218e-9
6.357108116149902 -6.357108116149902 4.378852367401123 0.632736562282517 -0.632736562282517 0.4464178373472605
8.314696311950684 -5.555702209472656 6.123233998228043e-16 0.8391567518054149 -0.5438896449642935 -1.5476658934512177e-9
7.684497356414795 -6.037671089172363 2.120148181915283 0.7642261277842199 -0.6011712466100403 0.2335627493014828
9.238795280456543 -3.8268344402313232 6.123233998228043e-16 0.932976962214385 -0.359936088739679 3.3487901379546005e-9
8.884476661682129 -4.089075565338135 2.084592819213867 0.8841507328125958 -0.40994381409790503 0.2241061153779882
7.941044807434082 -4.297662734985352 4.297662734985352 0.7871378784062543 -0.43612725228888244 0.43612725228888244
9.807852745056152 -1.9509031772613525 6.123233998228043e-16 0.9861362641580977 -0.16593754401072225 6.760667070834742e-10
9.581864356994629 -2.0233471393585205 2.0233471393585205 0.9554945332969552 -0.20860272869695856 0.20860272869695856
8.884476661682129 -2.084592819213867 4.089075565338135 0.8841507436145106 -0.22410611811595477 0.40994378930397996
6.357108116149902 -4.378852367401123 6.357108116149902 0.6327365707006265 -0.4464178134842093 0.6327365707006265
6.037671089172363 -2.120148181915283 7.684497356414795 0.601171307872782 -0.23356277974799702 0.764226070287397
7.684497356414795 -2.120148181915283 6.037671089172363 0.764226070287397 -0.23356277974799702 0.601171307872782
6.123233998228043e-16 6.123233998228043e-16 -10 -9.046949300817175e-10 -9.046949300817175e-10 -1
6.123233998228043e-16 1.9509031772613525 -9.807852745056152 8.739564685237914e-10 0.16593754401072225 -0.9861362641580977
1.9509031772613525 6.123233998228043e-16 -9.807852745056152 0.16593754401072225 8.739564685237914e-10 -0.9861362641580977
2.0233471393585205 2.0233471393585205 -9.581864356994629 0.20860274230126877 0.20860274230126877 -0.9554945273567927
6.123233998228043e-16 3.8268344402313232 -9.238795280456543 3.3487901379546005e-9 0.359936088739679 -0.932976962214385
2.084592819213867 4.089075565338135 -8.884476661682129 0.22410611811595477 0.40994378930397996 -0.8841507436145106
3.8268344402313232 6.123233998228043e-16 -9.238795280456543 0.3599361146809913 3.148121067010234e-9 -0.9329769522064049
4.089075565338135 2.084592819213867 -8.884476661682129 0.40994378930397996 0.22410611811595477 -0.8841507436145106
4.297662734985352 4.297662734985352 -7.941044807434082 0.4361271948968587 0.4361271948968587 -0.7871379420043191
6.123233998228043e-16 5.555702209472656 -8.314696311950684 9.965264228086389e-10 0.5438896449642935 -0.8391567518054149
2.120148181915283 6.037671089172363 -7.684497356414795 0.23356275157143822 0.6011713120573628 -0.7642260756069552
6.123233998228043e-16 7.071067810058594 -7.071067810058594 -1.5915967705279218e-9 0.7071067811865476 -0.7071067811865476
6.123233998228043e-16 8.314696311950684 -5.555702209472656 -1.5476658934512177e-9 0.8391567518054149 -0.5438896449642935
2.120148181915283 7.684497356414795 -6.037671089172363 0.2335627493014828 0.7642261277842199 -0.6011712466100403
4.378852367401123 6.357108116149902 -6.357108116149902 0.4464178373472605 0.632736562282517 -0.632736562282517
6.123233998228043e-16 9.238795280456543 -3.8268344402313232 3.3487901379546005e-9 0.932976962214385 -0.359936088739679
2.084592819213867 8.884476661682129 -4.089075565338135 0.2241061153779882 0.8841507328125958 -0.40994381409790503
6.123233998228043e-16 9.807852745056152 -1.9509031772613525 1.3998915487270587e-9 0.9861362665964795 -0.16593752951986837
2.0233471393585205 9.581864356994629 -2.0233471393585205 0.20860272869695856 0.9554945332969552 -0.20860272869695856
4.297662734985352 7.941044807434082 -4.297662734985352 0.43612721336196425 0.7871379215425054 -0.43612721336196425
4.089075565338135 8.884476661682129 -2.084592819213867 0.40994378930397996 0.8841507436145106 -0.22410611811595477
5.555702209472656 6.123233998228043e-16 -8.314696311950684 0.5438896449642935 9.965264228086389e-10 -0.8391567518054149
6.037671089172363 2.120148181915283 -7.684497356414795 0.6011713120573628 0.23356275157143822 -0.7642260756069552
7.071067810058594 6.123233998228043e-16 -7.071067810058594 0.7071067811865476 -1.5915967705279218e-9 -0.7071067811865476
6.357108116149902 4.378852367401123 -6.357108116149902 0.632736562282517 0.4464178373472605 -0.632736562282517
8.314696311950684 6.123233998228043e-16 -5.555702209472656 0.8391567518054149 -1.5476658934512177e-9 -0.5438896449642935
7.684497356414795 2.120148181915283 -6.037671089172363 0.7642261277842199 0.2335627493014828 -0.6011712466100403
9.238795280456543 6.123233998228043e-16 -3.8268344402313232 0.932976962214385 3.3487901379546005e-9 -0.359936088739679
8.884476661682129 2.084592819213867 -4.089075565338135 0.8841507328125958 0.2241061153779882 -0.40994381409790503
9.807852745056152 6.123233998228043e-16 -1.9509031772613525 0.9861362665964795 1.3998915487270587e-9 -0.16593752951986837
9.581864356994629 2.0233471393585205 -2.0233471393585205 0.9554945332969552 0.20860272869695856 -0.20860272869695856
7.941044807434082 4.297662734985352 -4.297662734985352 0.7871379215425054 0.43612721336196425 -0.43612721336196425
8.884476661682129 4.089075565338135 -2.084592819213867 0.8841507436145106 0.40994378930397996 -0.22410611811595477
6.357108116149902 6.357108116149902 -4.378852367401123 0.6327365707006265 0.6327365707006265 -0.4464178134842093
6.037671089172363 7.684497356414795 -2.120148181915283 0.601171307872782 0.764226070287397 -0.23356277974799702
7.684497356414795 6.037671089172363 -2.120148181915283 0.764226070287397 0.601171307872782 -0.23356277974799702
6.123233998228043e-16 6.123233998228043e-16 10 -9.046949300817175e-10 -9.046949300817175e-10 1
6.123233998228043e-16 1.9509031772613525 9.807852745056152 8.739564685237914e-10 0.16593754401072225 0.9861362641580977
1.9509031772613525 6.123233998228043e-16 9.807852745056152 0.16593754401072225 8.739564685237914e-10 0.9861362641580977
2.0233471393585205 2.0233471393585205 9.581864356994629 0.20860274230126877 0.20860274230126877 0.9554945273567927
6.123233998228043e-16 3.8268344402313232 9.238795280456543 3.3487901379546005e-9 0.359936088739679 0.932976962214385
2.084592819213867 4.089075565338135 8.884476661682129 0.22410611811595477 0.40994378930397996 0.8841507436145106
3.8268344402313232 6.123233998228043e-16 9.238795280456543 0.3599361146809913 3.148121067010234e-9 0.9329769522064049
4.089075565338135 2.084592819213867 8.884476661682129 0.40994378930397996 0.22410611811595477 0.8841507436145106
4.297662734985352 4.297662734985352 7.941044807434082 0.4361271948968587 0.4361271948968587 0.7871379420043191
6.123233998228043e-16 10 6.123233998228043e-16 -9.046949300817175e-10 1 -9.046949300817175e-10
6.123233998228043e-16 9.807852745056152 1.9509031772613525 8.739564685237914e-10 0.9861362641580977 0.16593754401072225
1.9509031772613525 9.807852745056152 6.123233998228043e-16 0.16593754401072225 0.9861362641580977 8.739564685237914e-10
2.0233471393585205 9.581864356994629 2.0233471393585205 0.20860274230126877 0.9554945273567927 0.20860274230126877
6.123233998228043e-16 9.238795280456543 3.8268344402313232 3.3487901379546005e-9 0.932976962214385 0.359936088739679
2.084592819213867 8.884476661682129 4.089075565338135 0.22410611811595477 0.8841507436145106 0.40994378930397996
3.8268344402313232 9.238795280456543 6.123233998228043e-16 0.3599361146809913 0.9329769522064049 3.148121067010234e-9
4.089075565338135 8.884476661682129 2.084592819213867 0.40994378930397996 0.8841507436145106 0.22410611811595477
4.297662734985352 7.941044807434082 4.297662734985352 0.4361271948968587 0.7871379420043191 0.4361271948968587
6.123233998228043e-16 7.071067810058594 7.071067810058594 4.048442539436491e-9 0.7071067811865476 0.7071067811865476
6.123233998228043e-16 5.555702209472656 8.314696311950684 9.965264228086389e-10 0.5438896449642935 0.8391567518054149
2.120148181915283 6.037671089172363 7.684497356414795 0.2335627493014828 0.6011712466100403 0.7642261277842199
6.123233998228043e-16 8.314696311950684 5.555702209472656 9.965264228086389e-10 0.8391567518054149 0.5438896449642935
2.120148181915283 7.684497356414795 6.037671089172363 0.2335627493014828 0.7642261277842199 0.6011712466100403
4.378852367401123 6.357108116149902 6.357108116149902 0.4464178373472605 0.632736562282517 0.632736562282517
10 6.123233998228043e-16 6.123233998228043e-16 1 -9.046949300817175e-10 -9.046949300817175e-10
9.807852745056152 6.123233998228043e-16 1.9509031772613525 0.9861362641580977 8.739564685237914e-10 0.16593754401072225
9.807852745056152 1.9509031772613525 6.123233998228043e-16 0.9861362641580977 0.16593754401072225 8.739564685237914e-10
9.581864356994629 2.0233471393585205 2.0233471393585205 0.9554945273567927 0.20860274230126877 0.20860274230126877
9.238795280456543 6.123233998228043e-16 3.8268344402313232 0.932976962214385 3.3487901379546005e-9 0.359936088739679
8.884476661682129 2.084592819213867 4.089075565338135 0.8841507436145106 0.22410611811595477 0.40994378930397996
9.238795280456543 3.8268344402313232 6.123233998228043e-16 0.9329769522064049 0.3599361146809913 3.148121067010234e-9
8.884476661682129 4.089075565338135 2.084592819213867 0.8841507436145106 0.40994378930397996 0.22410611811595477
7.941044807434082 4.297662734985352 4.297662734985352 0.7871379420043191 0.4361271948968587 0.4361271948968587
7.071067810058594 6.123233998228043e-16 7.071067810058594 0.7071067811865476 4.048442539436491e-9 0.7071067811865476
5.555702209472656 6.123233998228043e-16 8.314696311950684 0.5438896449642935 9.965264228086389e-10 0.8391567518054149
6.037671089172363 2.120148181915283 7.684497356414795 0.6011712466100403 0.2335627493014828 0.7642261277842199
6.357108116149902 4.378852367401123 6.357108116149902 0.632736562282517 0.4464178373472605 0.632736562282517
8.314696311950684 6.123233998228043e-16 5.555702209472656 0.8391567518054149 9.965264228086389e-10 0.5438896449642935
7.684497356414795 2.120148181915283 6.037671089172363 0.7642260729471761 0.2335627656597177 0.6011713099650724
7.071067810058594 7.071067810058594 6.123233998228043e-16 0.7071067811865476 0.7071067811865476 4.048442539436491e-9
6.357108116149902 6.357108116149902 4.378852367401123 0.632736562282517 0.632736562282517 0.4464178373472605
5.555702209472656 8.314696311950684 6.123233998228043e-16 0.5438896449642935 0.8391567518054149 9.965264228086389e-10
6.037671089172363 7.684497356414795 2.120148181915283 0.6011713099650724 0.7642260729471761 0.2335627656597177
8.314696311950684 5.555702209472656 6.123233998228043e-16 0.8391567518054149 0.5438896449642935 9.965264228086389e-10
7.684497356414795 6.037671089172363 2.120148181915283 0.7642260729471761 0.6011713099650724 0.2335627656597177
3 2 6 4
3 13 2 10
3 10 4 17
3 2 4 10
3 21 7 0
3 25 21 0
3 23 1 14
3 23 25 1
3 1 0 2
3 0 6 2
3 1 2 13
3 25 0 1
3 8 49 3
3 3 49 53
3 4 3 5
3 6 3 4
3 4 5 17
3 5 51 18
3 5 53 51
3 3 53 5
3 7 9 8
3 0 7 6
3 6 8 3
3 7 8 6
3 21 27 7
3 27 9 7
3 27 30 9
3 9 55 8
3 8 55 49
3 9 57 55
3 30 57 9
3 30 77 57
3 12 11 10
3 13 10 11
3 10 17 12
3 11 113 15
3 117 113 11
3 19 115 12
3 115 117 12
3 12 117 11
3 14 1 13
3 15 16 14
3 11 15 13
3 14 13 15
3 36 23 14
3 36 14 16
3 16 39 36
3 15 119 16
3 113 119 15
3 119 121 16
3 16 121 39
3 121 141 39
3 17 5 18
3 19 12 17
3 20 19 18
3 17 18 19
3 18 51 64
3 18 64 20
3 67 20 64
3 20 125 19
3 125 115 19
3 127 125 20
3 67 127 20
3 67 177 127
3 22 21 25
3 28 21 22
3 24 25 23
3 24 23 37
3 22 25 24
3 26 22 24
3 29 22 26
3 26 24 38
3 34 29 26
3 42 26 38
3 34 26 42
3 45 34 42
3 28 27 21
3 31 30 27
3 31 27 28
3 32 31 28
3 29 28 22
3 32 28 29
3 33 32 29
3 78 30 31
3 78 77 30
3 81 31 32
3 81 78 31
3 86 81 32
3 86 32 33
3 88 86 33
3 33 29 34
3 35 33 34
3 35 34 45
3 88 33 35
3 89 35 46
3 89 88 35
3 37 23 36
3 39 40 36
3 37 36 40
3 38 24 37
3 40 41 37
3 38 37 41
3 41 43 38
3 39 142 40
3 39 141 142
3 40 145 41
3 142 145 40
3 145 150 41
3 42 38 43
3 43 44 42
3 45 42 44
3 41 150 43
3 150 152 43
3 43 152 44
3 44 153 47
3 152 153 44
3 46 35 45
3 44 47 45
3 46 45 47
3 47 48 46
3 98 89 46
3 98 46 48
3 48 101 98
3 47 156 48
3 153 156 47
3 156 158 48
3 48 158 101
3 158 213 101
3 53 49 50
3 50 49 56
3 51 53 52
3 65 51 52
3 52 53 50
3 52 50 54
3 59 54 50
3 54 66 52
3 49 55 56
3 55 57 58
3 56 55 58
3 57 77 79
3 58 57 79
3 56 58 60
3 50 56 59
3 60 59 56
3 60 61 59
3 83 60 58
3 58 79 83
3 83 92 60
3 59 62 54
3 54 70 66
3 62 70 54
3 62 73 70
3 92 61 60
3 92 94 61
3 61 62 59
3 61 63 62
3 63 73 62
3 94 63 61
3 96 74 63
3 94 96 63
3 64 51 65
3 67 64 68
3 68 64 65
3 65 52 66
3 68 65 69
3 66 69 65
3 66 71 69
3 178 67 68
3 178 177 67
3 69 181 68
3 178 68 181
3 69 186 181
3 70 71 66
3 70 72 71
3 73 72 70
3 71 186 69
3 71 188 186
3 72 188 71
3 75 189 72
3 72 189 188
3 63 74 73
3 73 75 72
3 74 75 73
3 74 76 75
3 96 104 74
3 104 76 74
3 104 107 76
3 76 192 75
3 75 192 189
3 76 194 192
3 107 194 76
3 107 222 194
3 79 77 78
3 79 78 80
3 78 81 80
3 81 86 82
3 80 81 82
3 79 80 83
3 84 83 80
3 84 92 83
3 80 82 84
3 85 84 82
3 82 87 85
3 85 93 84
3 86 88 87
3 82 86 87
3 87 88 90
3 88 89 90
3 90 89 99
3 91 85 87
3 87 90 91
3 100 91 90
3 93 94 92
3 93 92 84
3 97 94 93
3 95 93 85
3 95 97 93
3 106 97 95
3 97 96 94
3 105 96 97
3 91 95 85
3 110 95 91
3 100 110 91
3 110 106 95
3 89 98 99
3 98 101 102
3 99 98 102
3 90 99 100
3 103 100 99
3 99 102 103
3 103 111 100
3 102 101 214
3 101 213 214
3 217 103 102
3 102 214 217
3 217 232 103
3 105 104 96
3 108 107 104
3 108 104 105
3 106 105 97
3 109 105 106
3 112 109 106
3 109 108 105
3 223 107 108
3 223 222 107
3 226 108 109
3 226 223 108
3 234 226 109
3 111 110 100
3 112 106 110
3 111 112 110
3 231 112 111
3 232 111 103
3 232 231 111
3 234 109 112
3 231 234 112
3 114 113 117
3 120 113 114
3 116 117 115
3 116 115 126
3 114 117 116
3 118 114 116
3 123 114 118
3 118 116 129
3 120 119 113
3 122 121 119
3 122 119 120
3 143 141 121
3 143 121 122
3 124 122 120
3 123 120 114
3 124 120 123
3 131 124 123
3 147 122 124
3 147 143 122
3 162 147 124
3 126 115 125
3 127 128 125
3 126 125 128
3 127 177 179
3 127 179 128
3 129 116 126
3 128 130 126
3 129 126 130
3 130 135 129
3 128 183 130
3 179 183 128
3 183 198 130
3 132 123 118
3 134 118 129
3 132 118 134
3 137 132 134
3 162 124 131
3 164 162 131
3 131 123 132
3 133 131 132
3 133 132 137
3 164 131 133
3 166 133 138
3 166 164 133
3 134 129 135
3 135 136 134
3 137 134 136
3 130 198 135
3 198 200 135
3 135 200 136
3 136 202 139
3 200 202 136
3 138 133 137
3 136 139 137
3 138 137 139
3 139 140 138
3 168 166 138
3 168 138 140
3 140 171 168
3 139 204 140
3 202 204 139
3 204 206 140
3 140 206 171
3 206 237 171
3 142 141 143
3 142 143 144
3 145 142 144
3 150 145 146
3 145 144 146
3 144 143 147
3 144 147 148
3 148 147 162
3 146 144 148
3 146 148 149
3 151 146 149
3 149 148 163
3 152 150 151
3 150 146 151
3 152 151 154
3 153 152 154
3 153 154 157
3 151 149 155
3 154 151 155
3 154 155 160
3 156 153 157
3 159 158 156
3 156 157 159
3 215 213 158
3 159 215 158
3 157 154 160
3 157 160 161
3 161 159 157
3 175 161 160
3 161 219 159
3 219 215 159
3 247 219 161
3 163 162 164
3 148 162 163
3 163 164 167
3 149 163 165
3 165 163 167
3 165 167 170
3 167 164 166
3 167 166 169
3 155 149 165
3 155 165 174
3 160 155 174
3 174 165 170
3 169 166 168
3 171 172 168
3 169 168 172
3 170 167 169
3 170 169 173
3 173 176 170
3 172 173 169
3 171 238 172
3 171 237 238
3 172 241 173
3 238 241 172
3 241 250 173
3 160 174 175
3 174 170 176
3 176 175 174
3 176 246 175
3 175 247 161
3 246 247 175
3 173 250 176
3 250 246 176
3 179 177 178
3 179 178 180
3 178 181 180
3 181 186 182
3 180 181 182
3 179 180 183
3 184 183 180
3 184 198 183
3 180 182 184
3 185 184 182
3 182 187 185
3 185 199 184
3 186 188 187
3 182 186 187
3 187 188 190
3 188 189 190
3 190 189 193
3 191 185 187
3 187 190 191
3 196 191 190
3 189 192 193
3 192 194 195
3 193 192 195
3 194 222 224
3 195 194 224
3 190 193 196
3 197 196 193
3 193 195 197
3 197 211 196
3 228 197 195
3 195 224 228
3 228 254 197
3 199 200 198
3 199 198 184
3 203 200 199
3 201 199 185
3 201 203 199
3 208 203 201
3 203 202 200
3 205 202 203
3 205 204 202
3 207 206 204
3 207 204 205
3 239 237 206
3 239 206 207
3 208 205 203
3 209 205 208
3 212 209 208
3 209 207 205
3 243 207 209
3 243 239 207
3 256 243 209
3 191 201 185
3 210 201 191
3 196 210 191
3 210 208 201
3 211 210 196
3 212 208 210
3 211 212 210
3 252 212 211
3 254 211 197
3 254 252 211
3 256 209 212
3 252 256 212
3 214 213 215
3 216 214 215
3 217 214 216
3 232 217 218
3 218 217 216
3 216 215 219
3 219 220 216
3 219 247 220
3 220 221 218
3 218 216 220
3 233 218 221
3 220 248 221
3 224 222 223
3 224 223 225
3 223 226 225
3 226 234 227
3 225 226 227
3 224 225 228
3 229 228 225
3 229 254 228
3 230 229 227
3 227 235 230
3 225 227 229
3 230 255 229
3 235 231 233
3 231 232 233
3 233 232 218
3 234 231 235
3 227 234 235
3 221 236 233
3 236 230 235
3 235 233 236
3 238 237 239
3 238 239 240
3 241 238 240
3 250 241 242
3 241 240 242
3 240 239 243
3 240 243 244
3 244 243 256
3 242 244 245
3 251 242 245
3 245 244 257
3 242 240 244
3 246 251 248
3 247 246 248
3 247 248 220
3 248 249 221
3 251 245 249
3 248 251 249
3 246 250 251
3 250 242 251
3 257 252 255
3 253 255 230
3 245 257 253
3 253 257 255
3 255 252 254
3 255 254 229
3 257 256 252
3 244 256 257
3 249 253 236
3 221 249 236
3 236 253 230
3 249 245 253

