ISO-10303-21;
HEADER;
FILE_DESCRIPTION(('Open CASCADE Model'),'2;1');
FILE_NAME('Open CASCADE Shape Model','1970-01-01T00:00:00',('Author'),(
    'Open CASCADE'),'Open CASCADE STEP processor 8.0','Open CASCADE 8.0'
  ,'Unknown');
FILE_SCHEMA((
'AP242_MANAGED_MODEL_BASED_3D_ENGINEERING_MIM_LF {1 0 10303 442 1 1 4 }'
    ));
ENDSEC;
DATA;
#1 = APPLICATION_PROTOCOL_DEFINITION('international standard',
  'ap242_managed_model_based_3d_engineering',2013,#2);
#2 = APPLICATION_CONTEXT('Managed model based 3d engineering');
#3 = SHAPE_DEFINITION_REPRESENTATION(#4,#10);
#4 = PRODUCT_DEFINITION_SHAPE('','',#5);
#5 = PRODUCT_DEFINITION('design','',#6,#9);
#6 = PRODUCT_DEFINITION_FORMATION('','',#7);
#7 = PRODUCT('Open CASCADE STEP translator 8.0',
  'Open CASCADE STEP translator 8.0','',(#8));
#8 = PRODUCT_CONTEXT('',#2,'mechanical');
#9 = PRODUCT_DEFINITION_CONTEXT('part definition',#2,'design');
#10 = MANIFOLD_SURFACE_SHAPE_REPRESENTATION('',(#11,#15),#628);
#11 = AXIS2_PLACEMENT_3D('',#12,#13,#14);
#12 = CARTESIAN_POINT('',(0.,0.,0.));
#13 = DIRECTION('',(0.,0.,1.));
#14 = DIRECTION('',(1.,0.,-0.));
#15 = SHELL_BASED_SURFACE_MODEL('',(#16));
#16 = OPEN_SHELL('',(#17));
#17 = ADVANCED_FACE('',(#18),#32,.T.);
#18 = FACE_BOUND('',#19,.F.);
#19 = EDGE_LOOP('',(#20,#569,#591,#608));
#20 = ORIENTED_EDGE('',*,*,#21,.T.);
#21 = EDGE_CURVE('',#22,#24,#26,.T.);
#22 = VERTEX_POINT('',#23);
#23 = CARTESIAN_POINT('',(300.,1.465494392505E-14,0.));
#24 = VERTEX_POINT('',#25);
#25 = CARTESIAN_POINT('',(300.,0.,500.));
#26 = SURFACE_CURVE('',#27,(#31),.PCURVE_S1.);
#27 = LINE('',#28,#29);
#28 = CARTESIAN_POINT('',(300.,0.,0.));
#29 = VECTOR('',#30,1.);
#30 = DIRECTION('',(0.,0.,1.));
#31 = PCURVE('',#32,#562);
#32 = B_SPLINE_SURFACE_WITH_KNOTS('',8,8,(
    (#33,#34,#35,#36,#37,#38,#39,#40,#41,#42,#43,#44,#45,#46,#47,#48,#49
      ,#50,#51,#52,#53,#54,#55)
    ,(#56,#57,#58,#59,#60,#61,#62,#63,#64,#65,#66,#67,#68,#69,#70,#71
      ,#72,#73,#74,#75,#76,#77,#78)
    ,(#79,#80,#81,#82,#83,#84,#85,#86,#87,#88,#89,#90,#91,#92,#93,#94
      ,#95,#96,#97,#98,#99,#100,#101)
    ,(#102,#103,#104,#105,#106,#107,#108,#109,#110,#111,#112,#113,#114
      ,#115,#116,#117,#118,#119,#120,#121,#122,#123,#124)
    ,(#125,#126,#127,#128,#129,#130,#131,#132,#133,#134,#135,#136,#137
      ,#138,#139,#140,#141,#142,#143,#144,#145,#146,#147)
    ,(#148,#149,#150,#151,#152,#153,#154,#155,#156,#157,#158,#159,#160
      ,#161,#162,#163,#164,#165,#166,#167,#168,#169,#170)
    ,(#171,#172,#173,#174,#175,#176,#177,#178,#179,#180,#181,#182,#183
      ,#184,#185,#186,#187,#188,#189,#190,#191,#192,#193)
    ,(#194,#195,#196,#197,#198,#199,#200,#201,#202,#203,#204,#205,#206
      ,#207,#208,#209,#210,#211,#212,#213,#214,#215,#216)
    ,(#217,#218,#219,#220,#221,#222,#223,#224,#225,#226,#227,#228,#229
      ,#230,#231,#232,#233,#234,#235,#236,#237,#238,#239)
    ,(#240,#241,#242,#243,#244,#245,#246,#247,#248,#249,#250,#251,#252
      ,#253,#254,#255,#256,#257,#258,#259,#260,#261,#262)
    ,(#263,#264,#265,#266,#267,#268,#269,#270,#271,#272,#273,#274,#275
      ,#276,#277,#278,#279,#280,#281,#282,#283,#284,#285)
    ,(#286,#287,#288,#289,#290,#291,#292,#293,#294,#295,#296,#297,#298
      ,#299,#300,#301,#302,#303,#304,#305,#306,#307,#308)
    ,(#309,#310,#311,#312,#313,#314,#315,#316,#317,#318,#319,#320,#321
      ,#322,#323,#324,#325,#326,#327,#328,#329,#330,#331)
    ,(#332,#333,#334,#335,#336,#337,#338,#339,#340,#341,#342,#343,#344
      ,#345,#346,#347,#348,#349,#350,#351,#352,#353,#354)
    ,(#355,#356,#357,#358,#359,#360,#361,#362,#363,#364,#365,#366,#367
      ,#368,#369,#370,#371,#372,#373,#374,#375,#376,#377)
    ,(#378,#379,#380,#381,#382,#383,#384,#385,#386,#387,#388,#389,#390
      ,#391,#392,#393,#394,#395,#396,#397,#398,#399,#400)
    ,(#401,#402,#403,#404,#405,#406,#407,#408,#409,#410,#411,#412,#413
      ,#414,#415,#416,#417,#418,#419,#420,#421,#422,#423)
    ,(#424,#425,#426,#427,#428,#429,#430,#431,#432,#433,#434,#435,#436
      ,#437,#438,#439,#440,#441,#442,#443,#444,#445,#446)
    ,(#447,#448,#449,#450,#451,#452,#453,#454,#455,#456,#457,#458,#459
      ,#460,#461,#462,#463,#464,#465,#466,#467,#468,#469)
    ,(#470,#471,#472,#473,#474,#475,#476,#477,#478,#479,#480,#481,#482
      ,#483,#484,#485,#486,#487,#488,#489,#490,#491,#492)
    ,(#493,#494,#495,#496,#497,#498,#499,#500,#501,#502,#503,#504,#505
      ,#506,#507,#508,#509,#510,#511,#512,#513,#514,#515)
    ,(#516,#517,#518,#519,#520,#521,#522,#523,#524,#525,#526,#527,#528
      ,#529,#530,#531,#532,#533,#534,#535,#536,#537,#538)
    ,(#539,#540,#541,#542,#543,#544,#545,#546,#547,#548,#549,#550,#551
      ,#552,#553,#554,#555,#556,#557,#558,#559,#560,#561
  )),.UNSPECIFIED.,.F.,.F.,.F.,(9,7,7,9),(9,7,7,9),(-275.,
    -91.66666666666,91.666666666667,275.),(-233.3452377915,
    -77.78174593052,77.78174593052,233.34523779156),.UNSPECIFIED.);
#33 = CARTESIAN_POINT('',(-31.29346407443,298.70653724283,-25.));
#34 = CARTESIAN_POINT('',(-1.535010923418,300.96498839531,-25.));
#35 = CARTESIAN_POINT('',(26.148364675283,301.14836192786,-25.));
#36 = CARTESIAN_POINT('',(50.487792599863,297.98780254503,
    -24.99999999999));
#37 = CARTESIAN_POINT('',(73.080146727202,293.08014074377,-25.));
#38 = CARTESIAN_POINT('',(94.533043316795,287.03304344242,
    -24.99999999999));
#39 = CARTESIAN_POINT('',(114.25652715957,279.2565254142,-25.));
#40 = CARTESIAN_POINT('',(132.92162872173,270.42162815471,-25.));
#41 = CARTESIAN_POINT('',(167.90520612972,250.40520685587,-25.));
#42 = CARTESIAN_POINT('',(184.25366880327,239.25367005674,-25.));
#43 = CARTESIAN_POINT('',(199.53839302103,227.03839396981,-25.));
#44 = CARTESIAN_POINT('',(213.79644360081,213.79644360159,-25.));
#45 = CARTESIAN_POINT('',(227.0383939567,199.53839300823,-25.));
#46 = CARTESIAN_POINT('',(239.25367003354,184.25366877876,-25.));
#47 = CARTESIAN_POINT('',(250.40520682341,167.90520609741,-25.));
#48 = CARTESIAN_POINT('',(270.42162810357,132.92162867079,-25.));
#49 = CARTESIAN_POINT('',(279.25652529943,114.25652704316,-25.));
#50 = CARTESIAN_POINT('',(287.03304361701,94.533043496083,-25.));
#51 = CARTESIAN_POINT('',(293.08014019421,73.080146170089,-25.));
#52 = CARTESIAN_POINT('',(297.98780303079,50.487793092647,-25.));
#53 = CARTESIAN_POINT('',(301.14836151435,26.148364259524,-25.));
#54 = CARTESIAN_POINT('',(300.96498826073,-1.535011057632,-25.));
#55 = CARTESIAN_POINT('',(298.70653758566,-31.29346373122,-25.));
#56 = CARTESIAN_POINT('',(-31.25904300807,298.74095831245,
    -2.083333333334));
#57 = CARTESIAN_POINT('',(-1.502724554566,300.99727461252,
    -2.083333333335));
#58 = CARTESIAN_POINT('',(26.409458617187,301.40945369283,
    -2.083333333327));
#59 = CARTESIAN_POINT('',(49.945747566454,297.44576619309,
    -2.083333333348));
#60 = CARTESIAN_POINT('',(72.927694330151,292.92768112872,
    -2.083333333316));
#61 = CARTESIAN_POINT('',(94.052876227024,286.55287965248,-2.08333333335
    ));
#62 = CARTESIAN_POINT('',(113.76092369261,278.76092114233,
    -2.083333333324));
#63 = CARTESIAN_POINT('',(132.35409388843,269.85409343328,
    -2.083333333338));
#64 = CARTESIAN_POINT('',(167.23717959101,249.73718058349,-2.08333333333
    ));
#65 = CARTESIAN_POINT('',(183.54949179159,238.54949333225,
    -2.083333333349));
#66 = CARTESIAN_POINT('',(198.81205753173,226.31205866689,
    -2.083333333301));
#67 = CARTESIAN_POINT('',(213.0626075891,213.06260758995,-2.083333333379
    ));
#68 = CARTESIAN_POINT('',(226.31205866595,198.81205753085,
    -2.083333333294));
#69 = CARTESIAN_POINT('',(238.54949333425,183.54949179243,
    -2.083333333356));
#70 = CARTESIAN_POINT('',(249.73718059038,167.237179598,-2.08333333333)
  );
#71 = CARTESIAN_POINT('',(269.85409344406,132.35409389935,
    -2.083333333333));
#72 = CARTESIAN_POINT('',(278.76092101679,113.76092356604,
    -2.083333333346));
#73 = CARTESIAN_POINT('',(286.55288024168,94.052876819133,
    -2.083333333309));
#74 = CARTESIAN_POINT('',(292.92768007423,72.927693270204,
    -2.083333333361));
#75 = CARTESIAN_POINT('',(297.44576734249,49.945748721783,
    -2.083333333314));
#76 = CARTESIAN_POINT('',(301.40945320024,26.409458122233,
    -2.083333333345));
#77 = CARTESIAN_POINT('',(300.99727448301,-1.502724683606,-2.08333333333
    ));
#78 = CARTESIAN_POINT('',(298.74095867316,-31.25904264692,
    -2.083333333334));
#79 = CARTESIAN_POINT('',(-31.280163866,298.71983782038,20.833333333336)
  );
#80 = CARTESIAN_POINT('',(-1.614230498948,300.88576907546,
    20.833333333339));
#81 = CARTESIAN_POINT('',(27.278973235266,302.27895845739,
    20.833333333301));
#82 = CARTESIAN_POINT('',(48.255748899542,295.75579693587,
    20.833333333419));
#83 = CARTESIAN_POINT('',(74.004085085006,294.00404021574,
    20.833333333223));
#84 = CARTESIAN_POINT('',(93.287546054245,285.78756591209,
    20.833333333427));
#85 = CARTESIAN_POINT('',(113.61041563625,278.6104089463,20.833333333285
    ));
#86 = CARTESIAN_POINT('',(132.04075248253,269.54075204482,
    20.833333333351));
#87 = CARTESIAN_POINT('',(166.84392859378,249.34392969615,
    20.833333333322));
#88 = CARTESIAN_POINT('',(183.12415682918,238.12415846764,
    20.833333333393));
#89 = CARTESIAN_POINT('',(198.36632485066,225.86632605332,
    20.833333333213));
#90 = CARTESIAN_POINT('',(212.60968773025,212.60968770724,
    20.833333333501));
#91 = CARTESIAN_POINT('',(225.86632607781,198.36632490017,
    20.833333333186));
#92 = CARTESIAN_POINT('',(238.12415845735,183.12415681646,
    20.833333333416));
#93 = CARTESIAN_POINT('',(249.34392972985,166.84392862763,
    20.833333333322));
#94 = CARTESIAN_POINT('',(269.54075209202,132.04075252984,20.83333333333
    ));
#95 = CARTESIAN_POINT('',(278.61040869739,113.61041539991,
    20.833333333388));
#96 = CARTESIAN_POINT('',(285.78756717423,93.287547226752,
    20.833333333233));
#97 = CARTESIAN_POINT('',(294.00403811564,74.004083145406,
    20.833333333452));
#98 = CARTESIAN_POINT('',(295.75579893155,48.255750763283,
    20.833333333249));
#99 = CARTESIAN_POINT('',(302.27895794663,27.278972769917,
    20.833333333382));
#100 = CARTESIAN_POINT('',(300.88576904794,-1.614230523424,
    20.83333333332));
#101 = CARTESIAN_POINT('',(298.71983826029,-31.28016342374,
    20.833333333336));
#102 = CARTESIAN_POINT('',(-30.884463224,299.11553669345,43.749999999996
    ));
#103 = CARTESIAN_POINT('',(-1.207356201515,301.29264141232,
    43.749999999985));
#104 = CARTESIAN_POINT('',(23.665904227319,298.66592421663,
    43.75000000008));
#105 = CARTESIAN_POINT('',(54.501489437569,302.00142816116,
    43.749999999792));
#106 = CARTESIAN_POINT('',(69.411583795017,289.41165493838,
    43.750000000266));
#107 = CARTESIAN_POINT('',(95.430234565112,287.93019419067,
    43.749999999777));
#108 = CARTESIAN_POINT('',(113.19200827853,278.19201663914,
    43.750000000108));
#109 = CARTESIAN_POINT('',(132.00519058232,269.50518998097,
    43.749999999962));
#110 = CARTESIAN_POINT('',(166.72857039054,249.22857093502,
    43.750000000027));
#111 = CARTESIAN_POINT('',(182.97666064657,237.97666173544,
    43.74999999987));
#112 = CARTESIAN_POINT('',(198.19744215799,225.69744300905,
    43.750000000256));
#113 = CARTESIAN_POINT('',(212.43313178493,212.43313185448,
    43.749999999649));
#114 = CARTESIAN_POINT('',(225.69744299201,198.19744205129,
    43.750000000306));
#115 = CARTESIAN_POINT('',(237.97666180681,182.97666073449,
    43.749999999833));
#116 = CARTESIAN_POINT('',(249.22857094961,166.72857040561,
    43.750000000024));
#117 = CARTESIAN_POINT('',(269.50519000192,132.0051906039,
    43.750000000008));
#118 = CARTESIAN_POINT('',(278.19201707849,113.1920086696,43.74999999989
    ));
#119 = CARTESIAN_POINT('',(287.93019265702,95.430233266431,
    43.750000000204));
#120 = CARTESIAN_POINT('',(289.41165748541,69.411585957092,
    43.749999999762));
#121 = CARTESIAN_POINT('',(302.00142648846,54.501488062176,
    43.750000000172));
#122 = CARTESIAN_POINT('',(298.66592394537,23.665903871701,
    43.749999999898));
#123 = CARTESIAN_POINT('',(301.29264104825,-1.207356574461,
    43.750000000028));
#124 = CARTESIAN_POINT('',(299.11553680992,-30.88446311594,
    43.749999999995));
#125 = CARTESIAN_POINT('',(-31.02432541656,298.97567714691,
    66.666666666673));
#126 = CARTESIAN_POINT('',(-1.698286942294,300.80171450218,
    66.66666666669));
#127 = CARTESIAN_POINT('',(27.453860105765,302.45384188203,
    66.666666666544));
#128 = CARTESIAN_POINT('',(47.19359602869,294.69364369486,
    66.666666666968));
#129 = CARTESIAN_POINT('',(76.09675831517,296.09670118722,
    66.666666666279));
#130 = CARTESIAN_POINT('',(92.718851175633,285.21888136687,
    66.666666666986));
#131 = CARTESIAN_POINT('',(114.1011111305,279.10110218729,
    66.666666666511));
#132 = CARTESIAN_POINT('',(132.22132870021,269.72132805301,
    66.66666666672));
#133 = CARTESIAN_POINT('',(166.86997966109,249.36997977759,
    66.666666666628));
#134 = CARTESIAN_POINT('',(183.08300112945,238.08300162167,
    66.66666666685));
#135 = CARTESIAN_POINT('',(198.28188250608,225.78188299794,
    66.666666666318));
#136 = CARTESIAN_POINT('',(212.50885411165,212.50885405099,
    66.666666667135));
#137 = CARTESIAN_POINT('',(225.78188303296,198.28188261588,
    66.66666666627));
#138 = CARTESIAN_POINT('',(238.08300157069,183.08300107231,
    66.666666666883));
#139 = CARTESIAN_POINT('',(249.3699797924,166.86997967283,
    66.666666666637));
#140 = CARTESIAN_POINT('',(269.72132804727,132.22132869086,
    66.666666666657));
#141 = CARTESIAN_POINT('',(279.10110189692,114.10111092476,
    66.666666666811));
#142 = CARTESIAN_POINT('',(285.2188821964,92.718851686915,
    66.666666666403));
#143 = CARTESIAN_POINT('',(296.09669973532,76.096757342895,
    66.666666666979));
#144 = CARTESIAN_POINT('',(294.69364402129,47.193596009653,
    66.666666666438));
#145 = CARTESIAN_POINT('',(302.45384184961,27.453860143483,
    66.666666666803));
#146 = CARTESIAN_POINT('',(300.80171471626,-1.698286722507,
    66.666666666626));
#147 = CARTESIAN_POINT('',(298.97567764111,-31.02432491367,
    66.666666666674));
#148 = CARTESIAN_POINT('',(-30.86944988733,299.13055128825,
    89.58333333333));
#149 = CARTESIAN_POINT('',(-1.409439685537,301.09055898325,
    89.583333333304));
#150 = CARTESIAN_POINT('',(24.795624258883,299.79563101093,
    89.583333333464));
#151 = CARTESIAN_POINT('',(52.173116786918,299.67309354513,
    89.58333333303));
#152 = CARTESIAN_POINT('',(71.710141366735,291.71016620675,
    89.583333333718));
#153 = CARTESIAN_POINT('',(95.098895859664,287.59887895516,
    89.583333333012));
#154 = CARTESIAN_POINT('',(113.88247991683,278.88248219357,
    89.583333333493));
#155 = CARTESIAN_POINT('',(132.50537757174,270.00537652132,
    89.583333333281));
#156 = CARTESIAN_POINT('',(167.16036680885,249.66036660022,
    89.583333333372));
#157 = CARTESIAN_POINT('',(183.35975106987,238.35975123421,
    89.583333333167));
#158 = CARTESIAN_POINT('',(198.54455073118,226.04455098378,
    89.583333333645));
#159 = CARTESIAN_POINT('',(212.76653444317,212.76653446789,
    89.583333332928));
#160 = CARTESIAN_POINT('',(226.04455095932,198.54455068155,
    89.583333333671));
#161 = CARTESIAN_POINT('',(238.35975124932,183.35975107747,
    89.583333333154));
#162 = CARTESIAN_POINT('',(249.66036656112,167.16036677282,
    89.583333333358));
#163 = CARTESIAN_POINT('',(270.0053764311,132.50537748534,
    89.583333333345));
#164 = CARTESIAN_POINT('',(278.8824821686,113.88247982675,
    89.583333333202));
#165 = CARTESIAN_POINT('',(287.59887849837,95.098895611043,
    89.583333333573));
#166 = CARTESIAN_POINT('',(291.71016637357,71.710141243976,
    89.583333333052));
#167 = CARTESIAN_POINT('',(299.67309332332,52.173116753788,
    89.58333333354));
#168 = CARTESIAN_POINT('',(299.79563052658,24.795623757188,
    89.58333333321));
#169 = CARTESIAN_POINT('',(301.09055877276,-1.409439893634,
    89.58333333337));
#170 = CARTESIAN_POINT('',(299.13055152677,-30.8694496516,
    89.583333333327));
#171 = CARTESIAN_POINT('',(-30.87059778148,299.12940416194,112.5));
#172 = CARTESIAN_POINT('',(-1.546269342622,300.95373062035,
    112.50000000002));
#173 = CARTESIAN_POINT('',(25.806613683987,300.80661043119,
    112.49999999991));
#174 = CARTESIAN_POINT('',(50.190990246693,297.69099333347,
    112.50000000018));
#175 = CARTESIAN_POINT('',(73.775054850714,293.77504718635,
    112.49999999975));
#176 = CARTESIAN_POINT('',(94.436226160439,286.93622749108,
    112.5000000002));
#177 = CARTESIAN_POINT('',(114.39282936746,279.39282679536,
    112.49999999989));
#178 = CARTESIAN_POINT('',(132.83498975585,270.33498840996,
    112.50000000003));
#179 = CARTESIAN_POINT('',(167.5160062652,250.01600567796,
    112.49999999997));
#180 = CARTESIAN_POINT('',(183.71520859093,238.71520839812,
    112.50000000008));
#181 = CARTESIAN_POINT('',(198.89392937437,226.39392937325,
    112.49999999984));
#182 = CARTESIAN_POINT('',(213.11332298864,213.1133229878,112.5000000002
    ));
#183 = CARTESIAN_POINT('',(226.3939293593,198.89392935799,
    112.49999999983));
#184 = CARTESIAN_POINT('',(238.71520834804,183.71520854688,
    112.50000000009));
#185 = CARTESIAN_POINT('',(250.01600560913,167.51600619504,
    112.49999999998));
#186 = CARTESIAN_POINT('',(270.33498827263,132.83498961691,
    112.49999999999));
#187 = CARTESIAN_POINT('',(279.39282661067,114.39282920366,
    112.50000000008));
#188 = CARTESIAN_POINT('',(286.93622725907,94.436225873337,
    112.49999999985));
#189 = CARTESIAN_POINT('',(293.77504696897,73.775054695899,
    112.50000000017));
#190 = CARTESIAN_POINT('',(297.69099289559,50.190989780756,
    112.49999999987));
#191 = CARTESIAN_POINT('',(300.80661027843,25.806613521971,
    112.50000000007));
#192 = CARTESIAN_POINT('',(300.95373061701,-1.54626934898,
    112.49999999997));
#193 = CARTESIAN_POINT('',(299.12940450028,-30.87059744345,112.5));
#194 = CARTESIAN_POINT('',(-30.8469708692,299.15303107644,
    135.41666666666));
#195 = CARTESIAN_POINT('',(-1.539810172461,300.96018958693,
    135.41666666665));
#196 = CARTESIAN_POINT('',(25.593613321529,300.59361178009,
    135.4166666667));
#197 = CARTESIAN_POINT('',(50.591810094532,298.09180803152,
    135.41666666659));
#198 = CARTESIAN_POINT('',(73.552045298393,293.55204306025,
    135.41666666676));
#199 = CARTESIAN_POINT('',(94.821921721193,287.32191939394,
    135.41666666657));
#200 = CARTESIAN_POINT('',(114.62427116311,279.62426912939,
    135.41666666671));
#201 = CARTESIAN_POINT('',(133.14469070343,270.64468904548,
    135.41666666665));
#202 = CARTESIAN_POINT('',(167.87321436117,250.37321349163,
    135.41666666667));
#203 = CARTESIAN_POINT('',(184.08124939279,239.08124893975,
    135.41666666664));
#204 = CARTESIAN_POINT('',(199.25995847542,226.75995831701,
    135.4166666667));
#205 = CARTESIAN_POINT('',(213.47858052592,213.47858052627,
    135.41666666661));
#206 = CARTESIAN_POINT('',(226.75995828639,199.25995844421,
    135.41666666671));
#207 = CARTESIAN_POINT('',(239.08124887457,184.08124932766,
    135.41666666664));
#208 = CARTESIAN_POINT('',(250.37321338718,167.87321425667,
    135.41666666667));
#209 = CARTESIAN_POINT('',(270.64468885707,133.14469051502,
    135.41666666667));
#210 = CARTESIAN_POINT('',(279.62426889796,114.62427093094,
    135.41666666664));
#211 = CARTESIAN_POINT('',(287.32191911072,94.821921439323,
    135.41666666671));
#212 = CARTESIAN_POINT('',(293.55204275753,73.552044997154,
    135.41666666662));
#213 = CARTESIAN_POINT('',(298.09180770329,50.591809762834,
    135.41666666669));
#214 = CARTESIAN_POINT('',(300.59361153235,25.593613075644,
    135.41666666664));
#215 = CARTESIAN_POINT('',(300.9601895506,-1.539810208647,
    135.41666666667));
#216 = CARTESIAN_POINT('',(299.15303138662,-30.84697055889,
    135.41666666666));
#217 = CARTESIAN_POINT('',(-30.82372691602,299.17627519801,181.25));
#218 = CARTESIAN_POINT('',(-1.563628608048,300.93637120102,181.25));
#219 = CARTESIAN_POINT('',(25.570913505337,300.5709118105,
    181.24999999996));
#220 = CARTESIAN_POINT('',(50.642414003212,298.14241150281,
    181.25000000008));
#221 = CARTESIAN_POINT('',(73.768164485188,293.7681616861,
    181.24999999988));
#222 = CARTESIAN_POINT('',(95.170194610866,287.67019182706,
    181.2500000001));
#223 = CARTESIAN_POINT('',(115.07899649621,280.07899395871,
    181.24999999994));
#224 = CARTESIAN_POINT('',(133.67266279007,271.17266062033,
    181.25000000001));
#225 = CARTESIAN_POINT('',(168.49848492865,250.99848359852,
    181.24999999999));
#226 = CARTESIAN_POINT('',(184.73037581039,239.73037496193,
    181.25000000001));
#227 = CARTESIAN_POINT('',(199.91488780507,227.41488738957,
    181.24999999997));
#228 = CARTESIAN_POINT('',(214.13413227439,214.13413227413,
    181.25000000002));
#229 = CARTESIAN_POINT('',(227.41488733872,199.91488775476,
    181.24999999996));
#230 = CARTESIAN_POINT('',(239.73037485865,184.73037570671,
    181.25000000002));
#231 = CARTESIAN_POINT('',(250.99848344029,168.49848477048,
    181.24999999999));
#232 = CARTESIAN_POINT('',(271.17266036004,133.67266252983,
    181.24999999999));
#233 = CARTESIAN_POINT('',(280.07899365235,115.07899618884,
    181.25000000001));
#234 = CARTESIAN_POINT('',(287.67019147787,95.170194263887,
    181.24999999996));
#235 = CARTESIAN_POINT('',(293.76816132748,73.768164126774,
    181.25000000002));
#236 = CARTESIAN_POINT('',(298.14241116626,50.642413664094,
    181.24999999997));
#237 = CARTESIAN_POINT('',(300.57091157452,25.570913271691,
    181.25000000001));
#238 = CARTESIAN_POINT('',(300.93637117406,-1.563628634211,
    181.24999999999));
#239 = CARTESIAN_POINT('',(299.17627548535,-30.82372662811,181.25));
#240 = CARTESIAN_POINT('',(-30.81953735539,299.18046481195,
    204.16666666666));
#241 = CARTESIAN_POINT('',(-1.572423545083,300.92757627582,
    204.16666666662));
#242 = CARTESIAN_POINT('',(25.567043000987,300.56704123082,
    204.16666666684));
#243 = CARTESIAN_POINT('',(50.666969943929,298.16696736363,
    204.16666666629));
#244 = CARTESIAN_POINT('',(73.846589378328,293.84658638004,
    204.16666666718));
#245 = CARTESIAN_POINT('',(95.305929788389,287.80592680716,
    204.16666666619));
#246 = CARTESIAN_POINT('',(115.26105518003,280.26105244221,
    204.16666666692));
#247 = CARTESIAN_POINT('',(133.89030613311,271.39030375785,
    204.1666666666));
#248 = CARTESIAN_POINT('',(168.76664436904,251.26664286857,
    204.16666666669));
#249 = CARTESIAN_POINT('',(185.01356677866,240.01356579968,
    204.1666666666));
#250 = CARTESIAN_POINT('',(200.20398195249,227.70398144599,
    204.16666666677));
#251 = CARTESIAN_POINT('',(214.42449175137,214.42449175738,
    204.16666666652));
#252 = CARTESIAN_POINT('',(227.70398138936,200.20398188528,
    204.16666666683));
#253 = CARTESIAN_POINT('',(240.01356568033,185.0135666666,
    204.16666666657));
#254 = CARTESIAN_POINT('',(251.26664269072,168.76664419107,
    204.16666666668));
#255 = CARTESIAN_POINT('',(271.39030347431,133.89030584974,
    204.16666666667));
#256 = CARTESIAN_POINT('',(280.26105211658,115.26105485931,
    204.16666666661));
#257 = CARTESIAN_POINT('',(287.80592642112,95.305929412097,
    204.16666666677));
#258 = CARTESIAN_POINT('',(293.84658610767,73.84658904347,
    204.16666666657));
#259 = CARTESIAN_POINT('',(298.16696693186,50.66696958965,
    204.16666666673));
#260 = CARTESIAN_POINT('',(300.56704106001,25.567042787852,
    204.16666666662));
#261 = CARTESIAN_POINT('',(300.92757625728,-1.572423564927,
    204.16666666668));
#262 = CARTESIAN_POINT('',(299.18046508864,-30.8195370796,
    204.16666666666));
#263 = CARTESIAN_POINT('',(-30.81853172206,299.18147047646,
    227.08333333333));
#264 = CARTESIAN_POINT('',(-1.57775999519,300.92223983373,
    227.08333333343));
#265 = CARTESIAN_POINT('',(25.565832227885,300.56583053984,
    227.08333333294));
#266 = CARTESIAN_POINT('',(50.684316989813,298.1843141449,
    227.08333333417));
#267 = CARTESIAN_POINT('',(73.896223990811,293.89622105077,
    227.08333333216));
#268 = CARTESIAN_POINT('',(95.390104846004,287.890101704,227.08333333438
    ));
#269 = CARTESIAN_POINT('',(115.37648393074,280.37648105532,
    227.08333333273));
#270 = CARTESIAN_POINT('',(134.03078671162,271.53078420898,
    227.08333333347));
#271 = CARTESIAN_POINT('',(168.94468862836,251.44468702393,
    227.08333333325));
#272 = CARTESIAN_POINT('',(185.20410266913,240.20410159062,
    227.08333333349));
#273 = CARTESIAN_POINT('',(200.40047760535,227.90047707615,
    227.08333333302));
#274 = CARTESIAN_POINT('',(214.62238889305,214.62238888129,
    227.08333333373));
#275 = CARTESIAN_POINT('',(227.9004770071,200.40047755778,227.0833333329
    ));
#276 = CARTESIAN_POINT('',(240.20410146717,185.20410252892,
    227.08333333357));
#277 = CARTESIAN_POINT('',(251.44468683495,168.94468843972,
    227.08333333328));
#278 = CARTESIAN_POINT('',(271.53078391623,134.03078641866,
    227.08333333332));
#279 = CARTESIAN_POINT('',(280.37648071275,115.37648357744,
    227.08333333345));
#280 = CARTESIAN_POINT('',(287.89010138176,95.390104490597,
    227.08333333305));
#281 = CARTESIAN_POINT('',(293.89622049325,73.896223599978,
    227.0833333336));
#282 = CARTESIAN_POINT('',(298.1843140147,50.684316666527,227.0833333331
    ));
#283 = CARTESIAN_POINT('',(300.56583024188,25.565832035336,
    227.08333333345));
#284 = CARTESIAN_POINT('',(300.9222398155,-1.577760013595,
    227.08333333328));
#285 = CARTESIAN_POINT('',(299.181470735,-30.81853146379,227.08333333333
    ));
#286 = CARTESIAN_POINT('',(-30.81843419394,299.18156801523,
    249.99999999999));
#287 = CARTESIAN_POINT('',(-1.579543142173,300.92045668921,
    249.99999999984));
#288 = CARTESIAN_POINT('',(25.565993794683,300.56599191015,
    250.00000000055));
#289 = CARTESIAN_POINT('',(50.690038995809,298.1900364865,
    249.99999999877));
#290 = CARTESIAN_POINT('',(73.913332365743,293.91332904426,
    250.0000000017));
#291 = CARTESIAN_POINT('',(95.419448960064,287.91944590984,
    249.99999999844));
#292 = CARTESIAN_POINT('',(115.41638450716,280.41638158888,
    250.00000000087));
#293 = CARTESIAN_POINT('',(134.07939216181,271.5793896159,
    249.99999999978));
#294 = CARTESIAN_POINT('',(169.00651242153,251.50651078227,
    250.00000000013));
#295 = CARTESIAN_POINT('',(185.27046048308,240.27045940732,
    249.99999999969));
#296 = CARTESIAN_POINT('',(200.46920564262,227.96920506375,
    250.00000000055));
#297 = CARTESIAN_POINT('',(214.69176680963,214.69176682094,
    249.99999999927));
#298 = CARTESIAN_POINT('',(227.96920500654,200.46920556308,
    250.00000000071));
#299 = CARTESIAN_POINT('',(240.27045927244,185.27046036752,
    249.9999999996));
#300 = CARTESIAN_POINT('',(251.5065105932,169.00651223203,
    250.00000000008));
#301 = CARTESIAN_POINT('',(271.57938932595,134.07939187206,
    249.99999999999));
#302 = CARTESIAN_POINT('',(280.4163812556,115.4163841918,249.99999999985
    ));
#303 = CARTESIAN_POINT('',(287.91944556127,95.419448631821,
    250.00000000038));
#304 = CARTESIAN_POINT('',(293.91332881643,73.913331977474,
    249.99999999958));
#305 = CARTESIAN_POINT('',(298.19003609495,50.690038795443,
    250.00000000036));
#306 = CARTESIAN_POINT('',(300.56599175586,25.565993530041,
    249.9999999998));
#307 = CARTESIAN_POINT('',(300.92045667103,-1.57954315964,
    250.00000000006));
#308 = CARTESIAN_POINT('',(299.18156825347,-30.81843395492,
    249.99999999999));
#309 = CARTESIAN_POINT('',(-30.81853170838,299.18147049054,
    272.91666666667));
#310 = CARTESIAN_POINT('',(-1.577759998543,300.92223983076,
    272.9166666668));
#311 = CARTESIAN_POINT('',(25.565832206092,300.5658304942,
    272.91666666617));
#312 = CARTESIAN_POINT('',(50.684316995904,298.18431417755,
    272.91666666777));
#313 = CARTESIAN_POINT('',(73.89622396036,293.89622102488,
    272.91666666509));
#314 = CARTESIAN_POINT('',(95.390104843451,287.89010168038,
    272.9166666681));
#315 = CARTESIAN_POINT('',(115.37648392789,280.37648106155,
    272.91666666585));
#316 = CARTESIAN_POINT('',(134.03078671233,271.53078420977,
    272.91666666687));
#317 = CARTESIAN_POINT('',(168.94468863639,251.44468703191,
    272.91666666653));
#318 = CARTESIAN_POINT('',(185.20410268629,240.20410161036,
    272.91666666697));
#319 = CARTESIAN_POINT('',(200.40047760117,227.90047706625,
    272.91666666611));
#320 = CARTESIAN_POINT('',(214.62238893199,214.62238892607,
    272.91666666737));
#321 = CARTESIAN_POINT('',(227.90047699565,200.40047754446,
    272.91666666598));
#322 = CARTESIAN_POINT('',(240.2041014925,185.20410255596,
    272.91666666704));
#323 = CARTESIAN_POINT('',(251.44468684932,168.94468845411,
    272.91666666658));
#324 = CARTESIAN_POINT('',(271.53078393488,134.0307864375,
    272.91666666668));
#325 = CARTESIAN_POINT('',(280.37648078089,115.37648362787,
    272.91666666676));
#326 = CARTESIAN_POINT('',(287.89010125754,95.390104441186,
    272.91666666635));
#327 = CARTESIAN_POINT('',(293.89622079945,73.896223778388,
    272.91666666704));
#328 = CARTESIAN_POINT('',(298.18431380059,50.684316547558,
    272.9166666663));
#329 = CARTESIAN_POINT('',(300.56583035826,25.565832121695,
    272.91666666686));
#330 = CARTESIAN_POINT('',(300.92223981669,-1.577760011868,
    272.9166666666));
#331 = CARTESIAN_POINT('',(299.18147071032,-30.81853148813,
    272.91666666667));
#332 = CARTESIAN_POINT('',(-30.81953732701,299.18046484067,
    295.83333333333));
#333 = CARTESIAN_POINT('',(-1.572423549966,300.92757627118,
    295.83333333326));
#334 = CARTESIAN_POINT('',(25.567042988453,300.56704122959,
    295.8333333336));
#335 = CARTESIAN_POINT('',(50.66696988735,298.16696730139,295.8333333327
    ));
#336 = CARTESIAN_POINT('',(73.846589379092,293.84658636252,
    295.83333333423));
#337 = CARTESIAN_POINT('',(95.305929759513,287.80592680285,
    295.83333333249));
#338 = CARTESIAN_POINT('',(115.26105517717,280.26105242996,
    295.8333333338));
#339 = CARTESIAN_POINT('',(133.89030613706,271.39030376176,
    295.83333333321));
#340 = CARTESIAN_POINT('',(168.76664438689,251.26664288653,
    295.8333333334));
#341 = CARTESIAN_POINT('',(185.01356679692,240.0135658146,
    295.83333333316));
#342 = CARTESIAN_POINT('',(200.20398199104,227.70398149197,
    295.83333333363));
#343 = CARTESIAN_POINT('',(214.42449175392,214.42449175168,
    295.83333333294));
#344 = CARTESIAN_POINT('',(227.70398143329,200.2039819336,295.8333333337
    ));
#345 = CARTESIAN_POINT('',(240.01356569592,185.01356667988,
    295.83333333313));
#346 = CARTESIAN_POINT('',(251.2666427178,168.76664421836,
    295.83333333338));
#347 = CARTESIAN_POINT('',(271.39030350914,133.8903058846,
    295.83333333331));
#348 = CARTESIAN_POINT('',(280.261052125,115.26105487929,295.8333333333)
  );
#349 = CARTESIAN_POINT('',(287.80592656776,95.305929507145,
    295.83333333345));
#350 = CARTESIAN_POINT('',(293.84658597574,73.846589002796,
    295.83333333316));
#351 = CARTESIAN_POINT('',(298.16696714516,50.666969730744,
    295.83333333351));
#352 = CARTESIAN_POINT('',(300.56704103397,25.567042787345,
    295.83333333322));
#353 = CARTESIAN_POINT('',(300.92757626162,-1.572423560129,
    295.83333333336));
#354 = CARTESIAN_POINT('',(299.18046504076,-30.81953712725,
    295.83333333333));
#355 = CARTESIAN_POINT('',(-30.82372687235,299.17627524151,318.75));
#356 = CARTESIAN_POINT('',(-1.563628613108,300.93637119581,
    318.75000000001));
#357 = CARTESIAN_POINT('',(25.570913470711,300.57091177526,
    318.74999999995));
#358 = CARTESIAN_POINT('',(50.642413962137,298.1424114615,
    318.75000000012));
#359 = CARTESIAN_POINT('',(73.768164448628,293.76816165179,
    318.74999999979));
#360 = CARTESIAN_POINT('',(95.170194597814,287.6701918113,
    318.75000000019));
#361 = CARTESIAN_POINT('',(115.07899649351,280.07899395717,
    318.74999999988));
#362 = CARTESIAN_POINT('',(133.6726628013,271.17266063163,
    318.75000000002));
#363 = CARTESIAN_POINT('',(168.49848495862,250.99848362854,
    318.74999999998));
#364 = CARTESIAN_POINT('',(184.73037584612,239.73037499785,
    318.75000000003));
#365 = CARTESIAN_POINT('',(199.91488784392,227.41488742817,
    318.74999999994));
#366 = CARTESIAN_POINT('',(214.1341323108,214.13413231103,
    318.75000000007));
#367 = CARTESIAN_POINT('',(227.41488737538,199.91488779102,
    318.74999999993));
#368 = CARTESIAN_POINT('',(239.73037489357,184.73037574197,
    318.75000000004));
#369 = CARTESIAN_POINT('',(250.99848347747,168.49848480757,
    318.74999999998));
#370 = CARTESIAN_POINT('',(271.17266040637,133.67266257611,318.75));
#371 = CARTESIAN_POINT('',(280.0789937066,115.07899624271,
    318.74999999999));
#372 = CARTESIAN_POINT('',(287.67019153883,95.170194327614,
    318.74999999999));
#373 = CARTESIAN_POINT('',(293.76816140582,73.768164197774,
    318.75000000001));
#374 = CARTESIAN_POINT('',(298.14241123498,50.642413741172,
    318.74999999998));
#375 = CARTESIAN_POINT('',(300.57091163778,25.570913330656,
    318.75000000001));
#376 = CARTESIAN_POINT('',(300.93637118367,-1.56362862512,
    318.74999999999));
#377 = CARTESIAN_POINT('',(299.17627541588,-30.82372669785,318.75));
#378 = CARTESIAN_POINT('',(-30.84697080036,299.15303114512,
    364.58333333333));
#379 = CARTESIAN_POINT('',(-1.539810184872,300.96018957426,
    364.58333333333));
#380 = CARTESIAN_POINT('',(25.593613263201,300.59361172132,
    364.58333333333));
#381 = CARTESIAN_POINT('',(50.59181003853,298.09180797503,
    364.58333333328));
#382 = CARTESIAN_POINT('',(73.55204526081,293.55204302521,
    364.58333333343));
#383 = CARTESIAN_POINT('',(94.821921716929,287.32191938648,
    364.58333333321));
#384 = CARTESIAN_POINT('',(114.62427117656,279.62426914429,
    364.58333333341));
#385 = CARTESIAN_POINT('',(133.14469073556,270.64468907764,
    364.58333333331));
#386 = CARTESIAN_POINT('',(167.87321441664,250.37321354721,
    364.58333333334));
#387 = CARTESIAN_POINT('',(184.08124945449,239.08124900148,
    364.58333333331));
#388 = CARTESIAN_POINT('',(199.25995853668,226.75995837859,
    364.58333333335));
#389 = CARTESIAN_POINT('',(213.47858058589,213.47858058579,
    364.58333333331));
#390 = CARTESIAN_POINT('',(226.75995833981,199.25995849822,
    364.58333333334));
#391 = CARTESIAN_POINT('',(239.08124892574,184.08124937875,
    364.58333333332));
#392 = CARTESIAN_POINT('',(250.37321343779,167.87321430726,
    364.58333333334));
#393 = CARTESIAN_POINT('',(270.64468891555,133.14469057348,
    364.58333333333));
#394 = CARTESIAN_POINT('',(279.62426896478,114.62427099729,
    364.58333333335));
#395 = CARTESIAN_POINT('',(287.3219191905,94.821921522328,
    364.58333333327));
#396 = CARTESIAN_POINT('',(293.55204285217,73.552045083825,
    364.58333333341));
#397 = CARTESIAN_POINT('',(298.09180781155,50.591809879642,
    364.58333333326));
#398 = CARTESIAN_POINT('',(300.59361162459,25.593613164326,
    364.58333333336));
#399 = CARTESIAN_POINT('',(300.96018956483,-1.539810194305,
    364.58333333333));
#400 = CARTESIAN_POINT('',(299.15303127198,-30.84697067344,
    364.58333333333));
#401 = CARTESIAN_POINT('',(-30.87059769458,299.12940424882,387.5));
#402 = CARTESIAN_POINT('',(-1.5462693413,300.95373062185,387.49999999998
    ));
#403 = CARTESIAN_POINT('',(25.806613708791,300.80661045132,
    387.50000000008));
#404 = CARTESIAN_POINT('',(50.190990022579,297.6909931176,
    387.49999999997));
#405 = CARTESIAN_POINT('',(73.775054933205,293.77504728275,
    387.49999999986));
#406 = CARTESIAN_POINT('',(94.436226116626,286.93622743161,
    387.50000000021));
#407 = CARTESIAN_POINT('',(114.39282940562,279.39282683716,
    387.49999999983));
#408 = CARTESIAN_POINT('',(132.83498980121,270.33498845507,
    387.50000000004));
#409 = CARTESIAN_POINT('',(167.51600633316,250.01600574523,387.5));
#410 = CARTESIAN_POINT('',(183.71520866366,238.71520846874,
    387.49999999995));
#411 = CARTESIAN_POINT('',(198.89392945328,226.39392945527,
    387.50000000016));
#412 = CARTESIAN_POINT('',(213.11332304361,213.11332304357,
    387.49999999978));
#413 = CARTESIAN_POINT('',(226.39392943404,198.89392942695,
    387.50000000018));
#414 = CARTESIAN_POINT('',(238.71520840078,183.71520860264,
    387.49999999991));
#415 = CARTESIAN_POINT('',(250.01600566065,167.51600624734,
    387.49999999999));
#416 = CARTESIAN_POINT('',(270.33498833,132.8349896749,387.5));
#417 = CARTESIAN_POINT('',(279.39282671856,114.39282929852,
    387.49999999995));
#418 = CARTESIAN_POINT('',(286.93622717456,94.43622581763,
    387.50000000014));
#419 = CARTESIAN_POINT('',(293.7750473366,73.775055053433,
    387.49999999976));
#420 = CARTESIAN_POINT('',(297.69099278946,50.190989653768,
    387.50000000021));
#421 = CARTESIAN_POINT('',(300.80661047245,25.806613742389,
    387.49999999991));
#422 = CARTESIAN_POINT('',(300.95373064011,-1.546269323748,
    387.49999999999));
#423 = CARTESIAN_POINT('',(299.12940436505,-30.87059757919,387.5));
#424 = CARTESIAN_POINT('',(-30.86944982612,299.13055134861,
    410.41666666667));
#425 = CARTESIAN_POINT('',(-1.409439783246,301.09055888472,
    410.41666666669));
#426 = CARTESIAN_POINT('',(24.795623841868,299.79563062946,
    410.41666666653));
#427 = CARTESIAN_POINT('',(52.173117283606,299.67309399063,
    410.41666666662));
#428 = CARTESIAN_POINT('',(71.710141020674,291.71016581618,
    410.41666666699));
#429 = CARTESIAN_POINT('',(95.098896002287,287.59887916528,
    410.41666666626));
#430 = CARTESIAN_POINT('',(113.88247993647,278.88248218854,
    410.41666666692));
#431 = CARTESIAN_POINT('',(132.50537763067,270.0053765824,410.4166666666
    ));
#432 = CARTESIAN_POINT('',(167.16036689063,249.66036668527,
    410.41666666663));
#433 = CARTESIAN_POINT('',(183.35975115975,238.35975131752,
    410.41666666688));
#434 = CARTESIAN_POINT('',(198.5445508015,226.04455107564,410.4166666661
    ));
#435 = CARTESIAN_POINT('',(212.76653452083,212.76653450637,
    410.41666666739));
#436 = CARTESIAN_POINT('',(226.04455102401,198.54455078719,
    410.41666666604));
#437 = CARTESIAN_POINT('',(238.35975129771,183.35975111148,
    410.41666666698));
#438 = CARTESIAN_POINT('',(249.66036662164,167.16036683176,
    410.41666666664));
#439 = CARTESIAN_POINT('',(270.00537648718,132.50537754062,
    410.41666666669));
#440 = CARTESIAN_POINT('',(278.88248207264,113.8824797786,
    410.41666666666));
#441 = CARTESIAN_POINT('',(287.59887923417,95.098896181984,
    410.41666666658));
#442 = CARTESIAN_POINT('',(291.71016527629,71.710140349407,
    410.41666666686));
#443 = CARTESIAN_POINT('',(299.673094481,52.173117810352,410.41666666644
    ));
#444 = CARTESIAN_POINT('',(299.79563022799,24.795623449133,
    410.41666666672));
#445 = CARTESIAN_POINT('',(301.09055877815,-1.40943988996,410.4166666667
    ));
#446 = CARTESIAN_POINT('',(299.1305513764,-30.86944979832,
    410.41666666666));
#447 = CARTESIAN_POINT('',(-31.02432522577,298.97567733958,
    433.33333333333));
#448 = CARTESIAN_POINT('',(-1.698286787569,300.80171465799,
    433.33333333331));
#449 = CARTESIAN_POINT('',(27.453860655041,302.45384238597,
    433.33333333342));
#450 = CARTESIAN_POINT('',(47.193595093734,294.69364280396,
    433.33333333351));
#451 = CARTESIAN_POINT('',(76.096758823066,296.09670180733,
    433.33333333285));
#452 = CARTESIAN_POINT('',(92.718851045992,285.21888110235,
    433.3333333338));
#453 = CARTESIAN_POINT('',(114.10111122036,279.10110232469,
    433.33333333307));
#454 = CARTESIAN_POINT('',(132.22132878936,269.7213281375,
    433.33333333338));
#455 = CARTESIAN_POINT('',(166.86997975386,249.36997986456,
    433.33333333341));
#456 = CARTESIAN_POINT('',(183.08300119341,238.08300170412,
    433.33333333292));
#457 = CARTESIAN_POINT('',(198.28188263206,225.78188307313,
    433.3333333343));
#458 = CARTESIAN_POINT('',(212.50885415926,212.50885418861,
    433.33333333209));
#459 = CARTESIAN_POINT('',(225.78188311483,198.28188260692,
    433.33333333439));
#460 = CARTESIAN_POINT('',(238.08300163981,183.08300117403,
    433.33333333279));
#461 = CARTESIAN_POINT('',(249.36997983318,166.86997971429,
    433.3333333334));
#462 = CARTESIAN_POINT('',(269.72132809314,132.22132873581,
    433.33333333328));
#463 = CARTESIAN_POINT('',(279.10110221977,114.10111118171,
    433.33333333341));
#464 = CARTESIAN_POINT('',(285.21888095782,92.718850732043,
    433.33333333328));
#465 = CARTESIAN_POINT('',(296.09670220079,76.096759406543,
    433.33333333329));
#466 = CARTESIAN_POINT('',(294.69364195347,47.193594192171,
    433.33333333343));
#467 = CARTESIAN_POINT('',(302.45384290507,27.453861162025,
    433.33333333334));
#468 = CARTESIAN_POINT('',(300.80171482935,-1.698286616559,
    433.33333333326));
#469 = CARTESIAN_POINT('',(298.97567747826,-31.02432508709,
    433.33333333334));
#470 = CARTESIAN_POINT('',(-30.88446324239,299.11553667313,456.25));
#471 = CARTESIAN_POINT('',(-1.207356450167,301.29264116225,
    456.24999999998));
#472 = CARTESIAN_POINT('',(23.665903561484,298.66592357754,
    456.25000000003));
#473 = CARTESIAN_POINT('',(54.501489865138,302.00142858083,
    456.24999999967));
#474 = CARTESIAN_POINT('',(69.41158384606,289.41165487255,
    456.25000000053));
#475 = CARTESIAN_POINT('',(95.430234541606,287.93019428715,
    456.24999999957));
#476 = CARTESIAN_POINT('',(113.19200840382,278.19201672334,
    456.2500000002));
#477 = CARTESIAN_POINT('',(132.00519065198,269.5051900552,
    456.24999999996));
#478 = CARTESIAN_POINT('',(166.72857047042,249.22857102034,
    456.24999999992));
#479 = CARTESIAN_POINT('',(182.97666075787,237.97666182227,
    456.25000000036));
#480 = CARTESIAN_POINT('',(198.1974421853,225.69744309748,
    456.24999999913));
#481 = CARTESIAN_POINT('',(212.43313186398,212.43313183614,
    456.25000000111));
#482 = CARTESIAN_POINT('',(225.69744306341,198.19744221279,
    456.24999999905));
#483 = CARTESIAN_POINT('',(237.97666183589,182.97666073362,
    456.25000000047));
#484 = CARTESIAN_POINT('',(249.2285710012,166.72857045778,
    456.24999999993));
#485 = CARTESIAN_POINT('',(269.50519002511,132.00519062977,
    456.25000000003));
#486 = CARTESIAN_POINT('',(278.19201675659,113.19200839075,
    456.24999999994));
#487 = CARTESIAN_POINT('',(287.9301942943,95.43023467995,456.25000000002
    ));
#488 = CARTESIAN_POINT('',(289.41165446952,69.411583283661,
    456.25000000003));
#489 = CARTESIAN_POINT('',(302.00142927053,54.501490617874,
    456.24999999994));
#490 = CARTESIAN_POINT('',(298.6659230126,23.665902986921,
    456.24999999997));
#491 = CARTESIAN_POINT('',(301.29264097312,-1.207356637969,
    456.25000000005));
#492 = CARTESIAN_POINT('',(299.11553660653,-30.8844633078,
    456.24999999998));
#493 = CARTESIAN_POINT('',(-31.28016366042,298.71983802764,
    479.16666666667));
#494 = CARTESIAN_POINT('',(-1.614230444425,300.88576913151,
    479.16666666669));
#495 = CARTESIAN_POINT('',(27.278973297991,302.27895851405,
    479.16666666657));
#496 = CARTESIAN_POINT('',(48.255749284304,295.75579730467,
    479.16666666694));
#497 = CARTESIAN_POINT('',(74.004084727003,294.00403992387,
    479.16666666631));
#498 = CARTESIAN_POINT('',(93.287546378654,285.78756618115,
    479.16666666692));
#499 = CARTESIAN_POINT('',(113.61041563055,278.610408958,479.16666666654
    ));
#500 = CARTESIAN_POINT('',(132.04075255315,269.54075211385,
    479.16666666669));
#501 = CARTESIAN_POINT('',(166.84392865393,249.34392975422,
    479.16666666669));
#502 = CARTESIAN_POINT('',(183.12415687816,238.12415852156,
    479.16666666649));
#503 = CARTESIAN_POINT('',(198.3663249157,225.86632610255,
    479.16666666709));
#504 = CARTESIAN_POINT('',(212.60968775837,212.60968777409,
    479.16666666611));
#505 = CARTESIAN_POINT('',(225.86632612032,198.36632490337,
    479.16666666714));
#506 = CARTESIAN_POINT('',(238.12415850498,183.124156877,479.16666666643
    ));
#507 = CARTESIAN_POINT('',(249.34392975585,166.84392865331,
    479.16666666669));
#508 = CARTESIAN_POINT('',(269.54075212019,132.04075255687,
    479.16666666665));
#509 = CARTESIAN_POINT('',(278.61040895251,113.61041564097,
    479.16666666668));
#510 = CARTESIAN_POINT('',(285.78756613698,93.287546272258,
    479.16666666668));
#511 = CARTESIAN_POINT('',(294.00404015771,74.004085054295,
    479.16666666662));
#512 = CARTESIAN_POINT('',(295.75579696621,48.255748890323,
    479.16666666672));
#513 = CARTESIAN_POINT('',(302.27895879165,27.278973593429,
    479.16666666667));
#514 = CARTESIAN_POINT('',(300.88576921518,-1.614230361273,
    479.16666666664));
#515 = CARTESIAN_POINT('',(298.71983807618,-31.28016361223,
    479.16666666667));
#516 = CARTESIAN_POINT('',(-31.25904286054,298.74095845935,
    502.08333333333));
#517 = CARTESIAN_POINT('',(-1.502724589924,300.99727457634,
    502.08333333331));
#518 = CARTESIAN_POINT('',(26.409458426813,301.40945350388,
    502.08333333338));
#519 = CARTESIAN_POINT('',(49.945748054091,297.44576668073,
    502.08333333322));
#520 = CARTESIAN_POINT('',(72.927693886824,292.92768068256,
    502.08333333346));
#521 = CARTESIAN_POINT('',(94.052876491362,286.55287991774,
    502.08333333323));
#522 = CARTESIAN_POINT('',(113.76092363746,278.76092108853,
    502.08333333338));
#523 = CARTESIAN_POINT('',(132.35409389812,269.85409344282,
    502.08333333331));
#524 = CARTESIAN_POINT('',(167.23717959791,249.73718059028,
    502.08333333333));
#525 = CARTESIAN_POINT('',(183.5494917989,238.54949333993,
    502.08333333336));
#526 = CARTESIAN_POINT('',(198.81205753618,226.31205867153,
    502.08333333323));
#527 = CARTESIAN_POINT('',(213.0626075927,213.06260759324,
    502.08333333346));
#528 = CARTESIAN_POINT('',(226.31205867233,198.81205753702,
    502.08333333322));
#529 = CARTESIAN_POINT('',(238.54949334266,183.54949180076,
    502.08333333338));
#530 = CARTESIAN_POINT('',(249.73718059463,167.23717960223,
    502.08333333332));
#531 = CARTESIAN_POINT('',(269.85409345088,132.35409390615,
    502.08333333333));
#532 = CARTESIAN_POINT('',(278.76092111016,113.76092366072,
    502.08333333333));
#533 = CARTESIAN_POINT('',(286.55287987736,94.052876450656,
    502.08333333332));
#534 = CARTESIAN_POINT('',(292.92768079592,72.927693996247,
    502.08333333336));
#535 = CARTESIAN_POINT('',(297.44576658393,49.945747961188,
    502.08333333329));
#536 = CARTESIAN_POINT('',(301.40945359971,26.409458521,502.08333333334)
  );
#537 = CARTESIAN_POINT('',(300.99727459545,-1.502724571037,
    502.08333333333));
#538 = CARTESIAN_POINT('',(298.74095844279,-31.25904287719,
    502.08333333333));
#539 = CARTESIAN_POINT('',(-31.29346398064,298.70653733602,525.));
#540 = CARTESIAN_POINT('',(-1.535011014761,300.96498830326,
    524.99999999999));
#541 = CARTESIAN_POINT('',(26.14836445807,301.14836171198,
    525.00000000001));
#542 = CARTESIAN_POINT('',(50.487792766339,297.98780271118,
    524.99999999998));
#543 = CARTESIAN_POINT('',(73.080146435891,293.08014045005,
    525.00000000002));
#544 = CARTESIAN_POINT('',(94.533043348329,287.03304347484,
    524.99999999997));
#545 = CARTESIAN_POINT('',(114.25652705216,279.25652530794,
    525.00000000001));
#546 = CARTESIAN_POINT('',(132.9216286448,270.42162807766,
    524.99999999999));
#547 = CARTESIAN_POINT('',(167.90520605889,250.40520678492,525.));
#548 = CARTESIAN_POINT('',(184.25366873682,239.25366999062,
    524.99999999999));
#549 = CARTESIAN_POINT('',(199.53839295876,227.0383939075,
    524.99999999999));
#550 = CARTESIAN_POINT('',(213.79644354405,213.7964435444,525.));
#551 = CARTESIAN_POINT('',(227.03839390693,199.53839295819,
    524.99999999999));
#552 = CARTESIAN_POINT('',(239.25366999002,184.25366873533,525.));
#553 = CARTESIAN_POINT('',(250.40520678327,167.90520605711,
    524.99999999999));
#554 = CARTESIAN_POINT('',(270.42162807219,132.92162863928,525.));
#555 = CARTESIAN_POINT('',(279.25652530605,114.25652705153,525.));
#556 = CARTESIAN_POINT('',(287.03304343447,94.533043307738,
    524.99999999998));
#557 = CARTESIAN_POINT('',(293.08014048148,73.080146463832,
    525.00000000001));
#558 = CARTESIAN_POINT('',(297.98780263179,50.487792689865,
    524.99999999998));
#559 = CARTESIAN_POINT('',(301.1483617103,26.148364455126,
    525.00000000001));
#560 = CARTESIAN_POINT('',(300.9649882356,-1.535011082742,
    524.99999999999));
#561 = CARTESIAN_POINT('',(298.70653722372,-31.29346409317,525.));
#562 = DEFINITIONAL_REPRESENTATION('',(#563),#568);
#563 = B_SPLINE_CURVE_WITH_KNOTS('',3,(#564,#565,#566,#567),
  .UNSPECIFIED.,.F.,.F.,(4,4),(0.,500.),.PIECEWISE_BEZIER_KNOTS.);
#564 = CARTESIAN_POINT('',(-250.,212.13203435596));
#565 = CARTESIAN_POINT('',(-83.33337292784,212.13203435596));
#566 = CARTESIAN_POINT('',(83.333372928119,212.13203435596));
#567 = CARTESIAN_POINT('',(250.,212.13203435596));
#568 = ( GEOMETRIC_REPRESENTATION_CONTEXT(2) 
PARAMETRIC_REPRESENTATION_CONTEXT() REPRESENTATION_CONTEXT('2D SPACE',''
  ) );
#569 = ORIENTED_EDGE('',*,*,#570,.T.);
#570 = EDGE_CURVE('',#24,#571,#573,.T.);
#571 = VERTEX_POINT('',#572);
#572 = CARTESIAN_POINT('',(3.302464591226E-14,300.,500.));
#573 = SURFACE_CURVE('',#574,(#579),.PCURVE_S1.);
#574 = CIRCLE('',#575,300.);
#575 = AXIS2_PLACEMENT_3D('',#576,#577,#578);
#576 = CARTESIAN_POINT('',(-8.526512829121E-14,-8.526512829121E-14,500.)
  );
#577 = DIRECTION('',(0.,0.,1.));
#578 = DIRECTION('',(1.,2.84217094304E-16,-0.));
#579 = PCURVE('',#32,#580);
#580 = DEFINITIONAL_REPRESENTATION('',(#581),#590);
#581 = B_SPLINE_CURVE_WITH_KNOTS('',7,(#582,#583,#584,#585,#586,#587,
    #588,#589),.UNSPECIFIED.,.F.,.F.,(8,8),(0.,1.570796326795),
  .PIECEWISE_BEZIER_KNOTS.);
#582 = CARTESIAN_POINT('',(250.,212.13203435596));
#583 = CARTESIAN_POINT('',(250.,164.52971716141));
#584 = CARTESIAN_POINT('',(249.99999999999,104.46510942206));
#585 = CARTESIAN_POINT('',(250.,35.85366154224));
#586 = CARTESIAN_POINT('',(249.99999999999,-35.85366154224));
#587 = CARTESIAN_POINT('',(250.,-104.465109422));
#588 = CARTESIAN_POINT('',(249.99999999999,-164.5297171614));
#589 = CARTESIAN_POINT('',(250.,-212.1320343559));
#590 = ( GEOMETRIC_REPRESENTATION_CONTEXT(2) 
PARAMETRIC_REPRESENTATION_CONTEXT() REPRESENTATION_CONTEXT('2D SPACE',''
  ) );
#591 = ORIENTED_EDGE('',*,*,#592,.T.);
#592 = EDGE_CURVE('',#571,#593,#595,.T.);
#593 = VERTEX_POINT('',#594);
#594 = CARTESIAN_POINT('',(1.836970198721E-14,300.,0.));
#595 = SURFACE_CURVE('',#596,(#600),.PCURVE_S1.);
#596 = LINE('',#597,#598);
#597 = CARTESIAN_POINT('',(1.836970198721E-14,300.,500.));
#598 = VECTOR('',#599,1.);
#599 = DIRECTION('',(0.,0.,-1.));
#600 = PCURVE('',#32,#601);
#601 = DEFINITIONAL_REPRESENTATION('',(#602),#607);
#602 = B_SPLINE_CURVE_WITH_KNOTS('',3,(#603,#604,#605,#606),
  .UNSPECIFIED.,.F.,.F.,(4,4),(0.,500.),.PIECEWISE_BEZIER_KNOTS.);
#603 = CARTESIAN_POINT('',(250.,-212.1320343559));
#604 = CARTESIAN_POINT('',(83.333372927948,-212.1320343559));
#605 = CARTESIAN_POINT('',(-83.33337292782,-212.1320343559));
#606 = CARTESIAN_POINT('',(-250.,-212.1320343559));
#607 = ( GEOMETRIC_REPRESENTATION_CONTEXT(2) 
PARAMETRIC_REPRESENTATION_CONTEXT() REPRESENTATION_CONTEXT('2D SPACE',''
  ) );
#608 = ORIENTED_EDGE('',*,*,#609,.T.);
#609 = EDGE_CURVE('',#593,#22,#610,.T.);
#610 = SURFACE_CURVE('',#611,(#616),.PCURVE_S1.);
#611 = CIRCLE('',#612,300.);
#612 = AXIS2_PLACEMENT_3D('',#613,#614,#615);
#613 = CARTESIAN_POINT('',(-8.526512829121E-14,-8.526512829121E-14,0.));
#614 = DIRECTION('',(0.,0.,-1.));
#615 = DIRECTION('',(3.454494342614E-16,1.,0.));
#616 = PCURVE('',#32,#617);
#617 = DEFINITIONAL_REPRESENTATION('',(#618),#627);
#618 = B_SPLINE_CURVE_WITH_KNOTS('',7,(#619,#620,#621,#622,#623,#624,
    #625,#626),.UNSPECIFIED.,.F.,.F.,(8,8),(0.,1.570796326795),
  .PIECEWISE_BEZIER_KNOTS.);
#619 = CARTESIAN_POINT('',(-250.,-212.1320343559));
#620 = CARTESIAN_POINT('',(-250.,-164.5297171614));
#621 = CARTESIAN_POINT('',(-249.9999999999,-104.465109422));
#622 = CARTESIAN_POINT('',(-250.,-35.85366154224));
#623 = CARTESIAN_POINT('',(-249.9999999999,35.85366154224));
#624 = CARTESIAN_POINT('',(-250.,104.46510942206));
#625 = CARTESIAN_POINT('',(-249.9999999999,164.52971716141));
#626 = CARTESIAN_POINT('',(-250.,212.13203435596));
#627 = ( GEOMETRIC_REPRESENTATION_CONTEXT(2) 
PARAMETRIC_REPRESENTATION_CONTEXT() REPRESENTATION_CONTEXT('2D SPACE',''
  ) );
#628 = ( GEOMETRIC_REPRESENTATION_CONTEXT(3) 
GLOBAL_UNCERTAINTY_ASSIGNED_CONTEXT((#632)) GLOBAL_UNIT_ASSIGNED_CONTEXT
((#629,#630,#631)) REPRESENTATION_CONTEXT('Context #1',
  '3D Context with UNIT and UNCERTAINTY') );
#629 = ( LENGTH_UNIT() NAMED_UNIT(*) SI_UNIT(.MILLI.,.METRE.) );
#630 = ( NAMED_UNIT(*) PLANE_ANGLE_UNIT() SI_UNIT($,.RADIAN.) );
#631 = ( NAMED_UNIT(*) SI_UNIT($,.STERADIAN.) SOLID_ANGLE_UNIT() );
#632 = UNCERTAINTY_MEASURE_WITH_UNIT(LENGTH_MEASURE(5.E-03),#629,
  'distance_accuracy_value','confusion accuracy');
#633 = PRODUCT_RELATED_PRODUCT_CATEGORY('part',$,(#7));
ENDSEC;
END-ISO-10303-21;
