ISO-10303-21;
HEADER;
FILE_DESCRIPTION(('Open CASCADE Model'),'2;1');
FILE_NAME('Open CASCADE Shape Model','1970-01-01T00:00:00',('Author'),(
    'Open CASCADE'),'Open CASCADE STEP processor 8.0','Open CASCADE 8.0'
  ,'Unknown');
FILE_SCHEMA((
'AP242_MANAGED_MODEL_BASED_3D_ENGINEERING_MIM_LF {1 0 10303 442 1 1 4 }'
    ));
ENDSEC;
DATA;
#1 = APPLICATION_PROTOCOL_DEFINITION('international standard',
  'ap242_managed_model_based_3d_engineering',2013,#2);
#2 = APPLICATION_CONTEXT('Managed model based 3d engineering');
#3 = SHAPE_DEFINITION_REPRESENTATION(#4,#10);
#4 = PRODUCT_DEFINITION_SHAPE('','',#5);
#5 = PRODUCT_DEFINITION('design','',#6,#9);
#6 = PRODUCT_DEFINITION_FORMATION('','',#7);
#7 = PRODUCT('Open CASCADE STEP translator 8.0',
  'Open CASCADE STEP translator 8.0','',(#8));
#8 = PRODUCT_CONTEXT('',#2,'mechanical');
#9 = PRODUCT_DEFINITION_CONTEXT('part definition',#2,'design');
#10 = ADVANCED_BREP_SHAPE_REPRESENTATION('',(#11,#15),#1167);
#11 = AXIS2_PLACEMENT_3D('',#12,#13,#14);
#12 = CARTESIAN_POINT('',(0.,0.,0.));
#13 = DIRECTION('',(0.,0.,1.));
#14 = DIRECTION('',(1.,0.,-0.));
#15 = MANIFOLD_SOLID_BREP('',#16);
#16 = CLOSED_SHELL('',(#17,#105,#141,#476,#875,#952,#1001,#1050,#1078,
    #1127,#1154,#1160));
#17 = ADVANCED_FACE('',(#18),#32,.F.);
#18 = FACE_BOUND('',#19,.F.);
#19 = EDGE_LOOP('',(#20,#55,#78));
#20 = ORIENTED_EDGE('',*,*,#21,.F.);
#21 = EDGE_CURVE('',#22,#24,#26,.T.);
#22 = VERTEX_POINT('',#23);
#23 = CARTESIAN_POINT('',(0.,0.,0.));
#24 = VERTEX_POINT('',#25);
#25 = CARTESIAN_POINT('',(2.,-1.110223024625E-16,-4.046592851156E-15));
#26 = SURFACE_CURVE('',#27,(#31,#43),.PCURVE_S1.);
#27 = LINE('',#28,#29);
#28 = CARTESIAN_POINT('',(0.,0.,0.));
#29 = VECTOR('',#30,1.);
#30 = DIRECTION('',(1.,0.,-0.));
#31 = PCURVE('',#32,#37);
#32 = PLANE('',#33);
#33 = AXIS2_PLACEMENT_3D('',#34,#35,#36);
#34 = CARTESIAN_POINT('',(0.,0.,0.));
#35 = DIRECTION('',(-0.,1.,0.));
#36 = DIRECTION('',(0.,0.,1.));
#37 = DEFINITIONAL_REPRESENTATION('',(#38),#42);
#38 = LINE('',#39,#40);
#39 = CARTESIAN_POINT('',(0.,0.));
#40 = VECTOR('',#41,1.);
#41 = DIRECTION('',(0.,1.));
#42 = ( GEOMETRIC_REPRESENTATION_CONTEXT(2) 
PARAMETRIC_REPRESENTATION_CONTEXT() REPRESENTATION_CONTEXT('2D SPACE',''
  ) );
#43 = PCURVE('',#44,#49);
#44 = PLANE('',#45);
#45 = AXIS2_PLACEMENT_3D('',#46,#47,#48);
#46 = CARTESIAN_POINT('',(7.078317954719E-17,1.937497635347E-31,
    -1.709300165674E-16));
#47 = DIRECTION('',(0.,1.,0.));
#48 = DIRECTION('',(0.,-0.,1.));
#49 = DEFINITIONAL_REPRESENTATION('',(#50),#54);
#50 = LINE('',#51,#52);
#51 = CARTESIAN_POINT('',(1.709300165674E-16,-7.078317954719E-17));
#52 = VECTOR('',#53,1.);
#53 = DIRECTION('',(0.,1.));
#54 = ( GEOMETRIC_REPRESENTATION_CONTEXT(2) 
PARAMETRIC_REPRESENTATION_CONTEXT() REPRESENTATION_CONTEXT('2D SPACE',''
  ) );
#55 = ORIENTED_EDGE('',*,*,#56,.T.);
#56 = EDGE_CURVE('',#22,#57,#59,.T.);
#57 = VERTEX_POINT('',#58);
#58 = CARTESIAN_POINT('',(-6.008810221215E-16,2.516004692431E-31,2.));
#59 = SURFACE_CURVE('',#60,(#64,#71),.PCURVE_S1.);
#60 = LINE('',#61,#62);
#61 = CARTESIAN_POINT('',(0.,0.,0.));
#62 = VECTOR('',#63,1.);
#63 = DIRECTION('',(0.,0.,1.));
#64 = PCURVE('',#32,#65);
#65 = DEFINITIONAL_REPRESENTATION('',(#66),#70);
#66 = LINE('',#67,#68);
#67 = CARTESIAN_POINT('',(0.,0.));
#68 = VECTOR('',#69,1.);
#69 = DIRECTION('',(1.,0.));
#70 = ( GEOMETRIC_REPRESENTATION_CONTEXT(2) 
PARAMETRIC_REPRESENTATION_CONTEXT() REPRESENTATION_CONTEXT('2D SPACE',''
  ) );
#71 = PCURVE('',#44,#72);
#72 = DEFINITIONAL_REPRESENTATION('',(#73),#77);
#73 = LINE('',#74,#75);
#74 = CARTESIAN_POINT('',(1.709300165674E-16,-7.078317954719E-17));
#75 = VECTOR('',#76,1.);
#76 = DIRECTION('',(1.,0.));
#77 = ( GEOMETRIC_REPRESENTATION_CONTEXT(2) 
PARAMETRIC_REPRESENTATION_CONTEXT() REPRESENTATION_CONTEXT('2D SPACE',''
  ) );
#78 = ORIENTED_EDGE('',*,*,#79,.T.);
#79 = EDGE_CURVE('',#57,#24,#80,.T.);
#80 = SURFACE_CURVE('',#81,(#86,#93),.PCURVE_S1.);
#81 = CIRCLE('',#82,2.);
#82 = AXIS2_PLACEMENT_3D('',#83,#84,#85);
#83 = CARTESIAN_POINT('',(0.,1.972152263053E-31,-3.944304526105E-31));
#84 = DIRECTION('',(1.110223024625E-16,1.,6.162975822039E-33));
#85 = DIRECTION('',(-5.551115123126E-17,0.,1.));
#86 = PCURVE('',#32,#87);
#87 = DEFINITIONAL_REPRESENTATION('',(#88),#92);
#88 = CIRCLE('',#89,2.);
#89 = AXIS2_PLACEMENT_2D('',#90,#91);
#90 = CARTESIAN_POINT('',(-3.944304526105E-31,0.));
#91 = DIRECTION('',(1.,-5.551115123126E-17));
#92 = ( GEOMETRIC_REPRESENTATION_CONTEXT(2) 
PARAMETRIC_REPRESENTATION_CONTEXT() REPRESENTATION_CONTEXT('2D SPACE',''
  ) );
#93 = PCURVE('',#94,#99);
#94 = PLANE('',#95);
#95 = AXIS2_PLACEMENT_3D('',#96,#97,#98);
#96 = CARTESIAN_POINT('',(0.,0.,0.));
#97 = DIRECTION('',(-0.,1.,0.));
#98 = DIRECTION('',(0.,0.,1.));
#99 = DEFINITIONAL_REPRESENTATION('',(#100),#104);
#100 = CIRCLE('',#101,2.);
#101 = AXIS2_PLACEMENT_2D('',#102,#103);
#102 = CARTESIAN_POINT('',(-3.944304526105E-31,0.));
#103 = DIRECTION('',(1.,-5.551115123126E-17));
#104 = ( GEOMETRIC_REPRESENTATION_CONTEXT(2) 
PARAMETRIC_REPRESENTATION_CONTEXT() REPRESENTATION_CONTEXT('2D SPACE',''
  ) );
#105 = ADVANCED_FACE('',(#106),#44,.F.);
#106 = FACE_BOUND('',#107,.F.);
#107 = EDGE_LOOP('',(#108,#139,#140));
#108 = ORIENTED_EDGE('',*,*,#109,.T.);
#109 = EDGE_CURVE('',#24,#57,#110,.T.);
#110 = SURFACE_CURVE('',#111,(#116,#123),.PCURVE_S1.);
#111 = CIRCLE('',#112,2.);
#112 = AXIS2_PLACEMENT_3D('',#113,#114,#115);
#113 = CARTESIAN_POINT('',(0.,1.972152263053E-31,-3.944304526105E-31));
#114 = DIRECTION('',(1.110223024625E-16,1.,6.162975822039E-33));
#115 = DIRECTION('',(-5.551115123126E-17,0.,1.));
#116 = PCURVE('',#44,#117);
#117 = DEFINITIONAL_REPRESENTATION('',(#118),#122);
#118 = CIRCLE('',#119,2.);
#119 = AXIS2_PLACEMENT_2D('',#120,#121);
#120 = CARTESIAN_POINT('',(1.709300165674E-16,-7.078317954719E-17));
#121 = DIRECTION('',(1.,-5.551115123126E-17));
#122 = ( GEOMETRIC_REPRESENTATION_CONTEXT(2) 
PARAMETRIC_REPRESENTATION_CONTEXT() REPRESENTATION_CONTEXT('2D SPACE',''
  ) );
#123 = PCURVE('',#124,#133);
#124 = SURFACE_OF_REVOLUTION('',#125,#130);
#125 = CIRCLE('',#126,2.);
#126 = AXIS2_PLACEMENT_3D('',#127,#128,#129);
#127 = CARTESIAN_POINT('',(0.,1.972152263053E-31,-3.944304526105E-31));
#128 = DIRECTION('',(1.110223024625E-16,1.,6.162975822039E-33));
#129 = DIRECTION('',(-5.551115123126E-17,0.,1.));
#130 = AXIS1_PLACEMENT('',#131,#132);
#131 = CARTESIAN_POINT('',(10.,-13.66666666666,10.));
#132 = DIRECTION('',(0.707106781187,0.,-0.707106781187));
#133 = DEFINITIONAL_REPRESENTATION('',(#134),#138);
#134 = LINE('',#135,#136);
#135 = CARTESIAN_POINT('',(0.,0.));
#136 = VECTOR('',#137,1.);
#137 = DIRECTION('',(0.,1.));
#138 = ( GEOMETRIC_REPRESENTATION_CONTEXT(2) 
PARAMETRIC_REPRESENTATION_CONTEXT() REPRESENTATION_CONTEXT('2D SPACE',''
  ) );
#139 = ORIENTED_EDGE('',*,*,#56,.F.);
#140 = ORIENTED_EDGE('',*,*,#21,.T.);
#141 = ADVANCED_FACE('',(#142,#255),#94,.F.);
#142 = FACE_BOUND('',#143,.F.);
#143 = EDGE_LOOP('',(#144,#172,#173,#201,#229));
#144 = ORIENTED_EDGE('',*,*,#145,.F.);
#145 = EDGE_CURVE('',#24,#146,#148,.T.);
#146 = VERTEX_POINT('',#147);
#147 = CARTESIAN_POINT('',(30.,0.,0.));
#148 = SURFACE_CURVE('',#149,(#153,#160),.PCURVE_S1.);
#149 = LINE('',#150,#151);
#150 = CARTESIAN_POINT('',(0.,0.,0.));
#151 = VECTOR('',#152,1.);
#152 = DIRECTION('',(1.,0.,-0.));
#153 = PCURVE('',#94,#154);
#154 = DEFINITIONAL_REPRESENTATION('',(#155),#159);
#155 = LINE('',#156,#157);
#156 = CARTESIAN_POINT('',(0.,0.));
#157 = VECTOR('',#158,1.);
#158 = DIRECTION('',(0.,1.));
#159 = ( GEOMETRIC_REPRESENTATION_CONTEXT(2) 
PARAMETRIC_REPRESENTATION_CONTEXT() REPRESENTATION_CONTEXT('2D SPACE',''
  ) );
#160 = PCURVE('',#161,#166);
#161 = PLANE('',#162);
#162 = AXIS2_PLACEMENT_3D('',#163,#164,#165);
#163 = CARTESIAN_POINT('',(0.,0.,0.));
#164 = DIRECTION('',(0.,0.,1.));
#165 = DIRECTION('',(1.,0.,-0.));
#166 = DEFINITIONAL_REPRESENTATION('',(#167),#171);
#167 = LINE('',#168,#169);
#168 = CARTESIAN_POINT('',(0.,0.));
#169 = VECTOR('',#170,1.);
#170 = DIRECTION('',(1.,0.));
#171 = ( GEOMETRIC_REPRESENTATION_CONTEXT(2) 
PARAMETRIC_REPRESENTATION_CONTEXT() REPRESENTATION_CONTEXT('2D SPACE',''
  ) );
#172 = ORIENTED_EDGE('',*,*,#79,.F.);
#173 = ORIENTED_EDGE('',*,*,#174,.T.);
#174 = EDGE_CURVE('',#57,#175,#177,.T.);
#175 = VERTEX_POINT('',#176);
#176 = CARTESIAN_POINT('',(0.,0.,30.));
#177 = SURFACE_CURVE('',#178,(#182,#189),.PCURVE_S1.);
#178 = LINE('',#179,#180);
#179 = CARTESIAN_POINT('',(0.,0.,0.));
#180 = VECTOR('',#181,1.);
#181 = DIRECTION('',(0.,0.,1.));
#182 = PCURVE('',#94,#183);
#183 = DEFINITIONAL_REPRESENTATION('',(#184),#188);
#184 = LINE('',#185,#186);
#185 = CARTESIAN_POINT('',(0.,0.));
#186 = VECTOR('',#187,1.);
#187 = DIRECTION('',(1.,0.));
#188 = ( GEOMETRIC_REPRESENTATION_CONTEXT(2) 
PARAMETRIC_REPRESENTATION_CONTEXT() REPRESENTATION_CONTEXT('2D SPACE',''
  ) );
#189 = PCURVE('',#190,#195);
#190 = PLANE('',#191);
#191 = AXIS2_PLACEMENT_3D('',#192,#193,#194);
#192 = CARTESIAN_POINT('',(0.,0.,0.));
#193 = DIRECTION('',(1.,0.,-0.));
#194 = DIRECTION('',(0.,0.,1.));
#195 = DEFINITIONAL_REPRESENTATION('',(#196),#200);
#196 = LINE('',#197,#198);
#197 = CARTESIAN_POINT('',(0.,0.));
#198 = VECTOR('',#199,1.);
#199 = DIRECTION('',(1.,0.));
#200 = ( GEOMETRIC_REPRESENTATION_CONTEXT(2) 
PARAMETRIC_REPRESENTATION_CONTEXT() REPRESENTATION_CONTEXT('2D SPACE',''
  ) );
#201 = ORIENTED_EDGE('',*,*,#202,.T.);
#202 = EDGE_CURVE('',#175,#203,#205,.T.);
#203 = VERTEX_POINT('',#204);
#204 = CARTESIAN_POINT('',(30.,0.,30.));
#205 = SURFACE_CURVE('',#206,(#210,#217),.PCURVE_S1.);
#206 = LINE('',#207,#208);
#207 = CARTESIAN_POINT('',(0.,0.,30.));
#208 = VECTOR('',#209,1.);
#209 = DIRECTION('',(1.,0.,-0.));
#210 = PCURVE('',#94,#211);
#211 = DEFINITIONAL_REPRESENTATION('',(#212),#216);
#212 = LINE('',#213,#214);
#213 = CARTESIAN_POINT('',(30.,0.));
#214 = VECTOR('',#215,1.);
#215 = DIRECTION('',(0.,1.));
#216 = ( GEOMETRIC_REPRESENTATION_CONTEXT(2) 
PARAMETRIC_REPRESENTATION_CONTEXT() REPRESENTATION_CONTEXT('2D SPACE',''
  ) );
#217 = PCURVE('',#218,#223);
#218 = PLANE('',#219);
#219 = AXIS2_PLACEMENT_3D('',#220,#221,#222);
#220 = CARTESIAN_POINT('',(0.,0.,30.));
#221 = DIRECTION('',(0.,0.,1.));
#222 = DIRECTION('',(1.,0.,-0.));
#223 = DEFINITIONAL_REPRESENTATION('',(#224),#228);
#224 = LINE('',#225,#226);
#225 = CARTESIAN_POINT('',(0.,0.));
#226 = VECTOR('',#227,1.);
#227 = DIRECTION('',(1.,0.));
#228 = ( GEOMETRIC_REPRESENTATION_CONTEXT(2) 
PARAMETRIC_REPRESENTATION_CONTEXT() REPRESENTATION_CONTEXT('2D SPACE',''
  ) );
#229 = ORIENTED_EDGE('',*,*,#230,.F.);
#230 = EDGE_CURVE('',#146,#203,#231,.T.);
#231 = SURFACE_CURVE('',#232,(#236,#243),.PCURVE_S1.);
#232 = LINE('',#233,#234);
#233 = CARTESIAN_POINT('',(30.,0.,0.));
#234 = VECTOR('',#235,1.);
#235 = DIRECTION('',(0.,0.,1.));
#236 = PCURVE('',#94,#237);
#237 = DEFINITIONAL_REPRESENTATION('',(#238),#242);
#238 = LINE('',#239,#240);
#239 = CARTESIAN_POINT('',(0.,30.));
#240 = VECTOR('',#241,1.);
#241 = DIRECTION('',(1.,0.));
#242 = ( GEOMETRIC_REPRESENTATION_CONTEXT(2) 
PARAMETRIC_REPRESENTATION_CONTEXT() REPRESENTATION_CONTEXT('2D SPACE',''
  ) );
#243 = PCURVE('',#244,#249);
#244 = PLANE('',#245);
#245 = AXIS2_PLACEMENT_3D('',#246,#247,#248);
#246 = CARTESIAN_POINT('',(30.,0.,0.));
#247 = DIRECTION('',(1.,0.,-0.));
#248 = DIRECTION('',(0.,0.,1.));
#249 = DEFINITIONAL_REPRESENTATION('',(#250),#254);
#250 = LINE('',#251,#252);
#251 = CARTESIAN_POINT('',(0.,0.));
#252 = VECTOR('',#253,1.);
#253 = DIRECTION('',(1.,0.));
#254 = ( GEOMETRIC_REPRESENTATION_CONTEXT(2) 
PARAMETRIC_REPRESENTATION_CONTEXT() REPRESENTATION_CONTEXT('2D SPACE',''
  ) );
#255 = FACE_BOUND('',#256,.F.);
#256 = EDGE_LOOP('',(#257,#333,#452));
#257 = ORIENTED_EDGE('',*,*,#258,.T.);
#258 = EDGE_CURVE('',#259,#261,#263,.T.);
#259 = VERTEX_POINT('',#260);
#260 = CARTESIAN_POINT('',(18.585786437627,5.551115123126E-16,
    21.414213562373));
#261 = VERTEX_POINT('',#262);
#262 = CARTESIAN_POINT('',(18.,0.,20.));
#263 = SURFACE_CURVE('',#264,(#282,#303),.PCURVE_S1.);
#264 = B_SPLINE_CURVE_WITH_KNOTS('',6,(#265,#266,#267,#268,#269,#270,
    #271,#272,#273,#274,#275,#276,#277,#278,#279,#280,#281),
  .UNSPECIFIED.,.F.,.F.,(7,5,5,7),(0.,0.184041463322,0.744098533976,1.),
  .UNSPECIFIED.);
#265 = CARTESIAN_POINT('',(18.585786437627,0.,21.414213562373));
#266 = CARTESIAN_POINT('',(18.55172353466,0.,21.380150659406));
#267 = CARTESIAN_POINT('',(18.518645705342,0.,21.345103763781));
#268 = CARTESIAN_POINT('',(18.486588392896,0.,21.309108451149));
#269 = CARTESIAN_POINT('',(18.455585229893,0.,21.27220184846));
#270 = CARTESIAN_POINT('',(18.425668038245,0.,21.234422633964));
#271 = CARTESIAN_POINT('',(18.309221792751,0.,21.078311983571));
#272 = CARTESIAN_POINT('',(18.231904918109,0.,20.953096139489));
#273 = CARTESIAN_POINT('',(18.165776233587,0.,20.821311023249));
#274 = CARTESIAN_POINT('',(18.111500211624,0.,20.684204512485));
#275 = CARTESIAN_POINT('',(18.069573604552,0.,20.543101354311));
#276 = CARTESIAN_POINT('',(18.0269063279,0.,20.333753088924));
#277 = CARTESIAN_POINT('',(18.016163588371,0.,20.267554285351));
#278 = CARTESIAN_POINT('',(18.008087221037,0.,20.200945281357));
#279 = CARTESIAN_POINT('',(18.002696059642,0.,20.134059825524));
#280 = CARTESIAN_POINT('',(18.,0.,20.0670327559));
#281 = CARTESIAN_POINT('',(18.,0.,20.));
#282 = PCURVE('',#94,#283);
#283 = DEFINITIONAL_REPRESENTATION('',(#284),#302);
#284 = B_SPLINE_CURVE_WITH_KNOTS('',6,(#285,#286,#287,#288,#289,#290,
    #291,#292,#293,#294,#295,#296,#297,#298,#299,#300,#301),
  .UNSPECIFIED.,.F.,.F.,(7,5,5,7),(0.,0.184041463322,0.744098533976,1.),
  .UNSPECIFIED.);
#285 = CARTESIAN_POINT('',(21.414213562373,18.585786437627));
#286 = CARTESIAN_POINT('',(21.380150659406,18.55172353466));
#287 = CARTESIAN_POINT('',(21.345103763781,18.518645705342));
#288 = CARTESIAN_POINT('',(21.309108451149,18.486588392896));
#289 = CARTESIAN_POINT('',(21.27220184846,18.455585229893));
#290 = CARTESIAN_POINT('',(21.234422633964,18.425668038245));
#291 = CARTESIAN_POINT('',(21.078311983571,18.309221792751));
#292 = CARTESIAN_POINT('',(20.953096139489,18.231904918109));
#293 = CARTESIAN_POINT('',(20.821311023249,18.165776233587));
#294 = CARTESIAN_POINT('',(20.684204512485,18.111500211624));
#295 = CARTESIAN_POINT('',(20.543101354311,18.069573604552));
#296 = CARTESIAN_POINT('',(20.333753088924,18.0269063279));
#297 = CARTESIAN_POINT('',(20.267554285351,18.016163588371));
#298 = CARTESIAN_POINT('',(20.200945281357,18.008087221037));
#299 = CARTESIAN_POINT('',(20.134059825524,18.002696059642));
#300 = CARTESIAN_POINT('',(20.0670327559,18.));
#301 = CARTESIAN_POINT('',(20.,18.));
#302 = ( GEOMETRIC_REPRESENTATION_CONTEXT(2) 
PARAMETRIC_REPRESENTATION_CONTEXT() REPRESENTATION_CONTEXT('2D SPACE',''
  ) );
#303 = PCURVE('',#304,#313);
#304 = SURFACE_OF_REVOLUTION('',#305,#310);
#305 = CIRCLE('',#306,2.);
#306 = AXIS2_PLACEMENT_3D('',#307,#308,#309);
#307 = CARTESIAN_POINT('',(0.,1.972152263053E-31,-3.944304526105E-31));
#308 = DIRECTION('',(1.110223024625E-16,1.,6.162975822039E-33));
#309 = DIRECTION('',(-5.551115123126E-17,0.,1.));
#310 = AXIS1_PLACEMENT('',#311,#312);
#311 = CARTESIAN_POINT('',(10.,-13.66666666666,10.));
#312 = DIRECTION('',(0.707106781187,0.,-0.707106781187));
#313 = DEFINITIONAL_REPRESENTATION('',(#314),#332);
#314 = B_SPLINE_CURVE_WITH_KNOTS('',6,(#315,#316,#317,#318,#319,#320,
    #321,#322,#323,#324,#325,#326,#327,#328,#329,#330,#331),
  .UNSPECIFIED.,.F.,.F.,(7,5,5,7),(0.,0.184041463322,0.744098533976,1.),
  .UNSPECIFIED.);
#315 = CARTESIAN_POINT('',(1.604988567673,5.497787143782));
#316 = CARTESIAN_POINT('',(1.601584268346,5.521873253457));
#317 = CARTESIAN_POINT('',(1.59816563228,5.545958964167));
#318 = CARTESIAN_POINT('',(1.59473613002,5.570044369301));
#319 = CARTESIAN_POINT('',(1.591299320366,5.594129565754));
#320 = CARTESIAN_POINT('',(1.587858850376,5.618214653926));
#321 = CARTESIAN_POINT('',(1.573948980067,5.715593120816));
#322 = CARTESIAN_POINT('',(1.56347943931,5.788891572173));
#323 = CARTESIAN_POINT('',(1.553116502673,5.862187198623));
#324 = CARTESIAN_POINT('',(1.542970808556,5.935488976813));
#325 = CARTESIAN_POINT('',(1.533156443639,6.008805783269));
#326 = CARTESIAN_POINT('',(1.519504531434,6.115631801539));
#327 = CARTESIAN_POINT('',(1.515315535672,6.149137051758));
#328 = CARTESIAN_POINT('',(1.511229765782,6.182644895046));
#329 = CARTESIAN_POINT('',(1.50725764762,6.216155483218));
#330 = CARTESIAN_POINT('',(1.503409333173,6.24966892923));
#331 = CARTESIAN_POINT('',(1.499694700551,6.28318530718));
#332 = ( GEOMETRIC_REPRESENTATION_CONTEXT(2) 
PARAMETRIC_REPRESENTATION_CONTEXT() REPRESENTATION_CONTEXT('2D SPACE',''
  ) );
#333 = ORIENTED_EDGE('',*,*,#334,.T.);
#334 = EDGE_CURVE('',#261,#335,#337,.T.);
#335 = VERTEX_POINT('',#336);
#336 = CARTESIAN_POINT('',(21.414213562373,-4.440892098501E-16,
    18.585786437627));
#337 = SURFACE_CURVE('',#338,(#371,#407),.PCURVE_S1.);
#338 = B_SPLINE_CURVE_WITH_KNOTS('',6,(#339,#340,#341,#342,#343,#344,
    #345,#346,#347,#348,#349,#350,#351,#352,#353,#354,#355,#356,#357,
    #358,#359,#360,#361,#362,#363,#364,#365,#366,#367,#368,#369,#370),
  .UNSPECIFIED.,.F.,.F.,(7,5,5,5,5,5,7),(0.,0.117343404178,
    0.333198804826,0.622717283625,0.724088192998,0.937625236077,1.),
  .UNSPECIFIED.);
#339 = CARTESIAN_POINT('',(18.,0.,20.));
#340 = CARTESIAN_POINT('',(18.,0.,19.907872262207));
#341 = CARTESIAN_POINT('',(18.005092580313,0.,19.815732275873));
#342 = CARTESIAN_POINT('',(18.015279953249,0.,19.723933733807));
#343 = CARTESIAN_POINT('',(18.030532206096,0.,19.632827692575));
#344 = CARTESIAN_POINT('',(18.050787099492,0.,19.542761507904));
#345 = CARTESIAN_POINT('',(18.122237248054,0.,19.29094236518));
#346 = CARTESIAN_POINT('',(18.185139459749,0.,19.132458060061));
#347 = CARTESIAN_POINT('',(18.264063577324,0.,18.980797986512));
#348 = CARTESIAN_POINT('',(18.358044200034,0.,18.837949634473));
#349 = CARTESIAN_POINT('',(18.465829727812,0.,18.705738587455));
#350 = CARTESIAN_POINT('',(18.7467426481,0.,18.424836344482));
#351 = CARTESIAN_POINT('',(18.929717178557,0.,18.285817868399));
#352 = CARTESIAN_POINT('',(19.130833169279,0.,18.17267296365));
#353 = CARTESIAN_POINT('',(19.345467755075,0.,18.088087070534));
#354 = CARTESIAN_POINT('',(19.568613754274,0.,18.033888065882));
#355 = CARTESIAN_POINT('',(19.873953361102,0.,18.00238911989));
#356 = CARTESIAN_POINT('',(19.953520469071,0.,17.998003385313));
#357 = CARTESIAN_POINT('',(20.033242471848,0.,17.997422383904));
#358 = CARTESIAN_POINT('',(20.112892799508,0.,18.00064988079));
#359 = CARTESIAN_POINT('',(20.192245583147,0.,18.007671686201));
#360 = CARTESIAN_POINT('',(20.437130596381,0.,18.04117200403));
#361 = CARTESIAN_POINT('',(20.600888112471,0.,18.080585255023));
#362 = CARTESIAN_POINT('',(20.760211535103,0.,18.136397673268));
#363 = CARTESIAN_POINT('',(20.91309413311,0.,18.207947274411));
#364 = CARTESIAN_POINT('',(21.057647296101,0.,18.294291099522));
#365 = CARTESIAN_POINT('',(21.23143669617,0.,18.423307921088));
#366 = CARTESIAN_POINT('',(21.269868607004,0.,18.453627928496));
#367 = CARTESIAN_POINT('',(21.30740201548,0.,18.485070042624));
#368 = CARTESIAN_POINT('',(21.343996332984,0.,18.517600971976));
#369 = CARTESIAN_POINT('',(21.379612615253,0.,18.551185490507));
#370 = CARTESIAN_POINT('',(21.414213562373,0.,18.585786437627));
#371 = PCURVE('',#94,#372);
#372 = DEFINITIONAL_REPRESENTATION('',(#373),#406);
#373 = B_SPLINE_CURVE_WITH_KNOTS('',6,(#374,#375,#376,#377,#378,#379,
    #380,#381,#382,#383,#384,#385,#386,#387,#388,#389,#390,#391,#392,
    #393,#394,#395,#396,#397,#398,#399,#400,#401,#402,#403,#404,#405),
  .UNSPECIFIED.,.F.,.F.,(7,5,5,5,5,5,7),(0.,0.117343404178,
    0.333198804826,0.622717283625,0.724088192998,0.937625236077,1.),
  .UNSPECIFIED.);
#374 = CARTESIAN_POINT('',(20.,18.));
#375 = CARTESIAN_POINT('',(19.907872262207,18.));
#376 = CARTESIAN_POINT('',(19.815732275873,18.005092580313));
#377 = CARTESIAN_POINT('',(19.723933733807,18.015279953249));
#378 = CARTESIAN_POINT('',(19.632827692575,18.030532206096));
#379 = CARTESIAN_POINT('',(19.542761507904,18.050787099492));
#380 = CARTESIAN_POINT('',(19.29094236518,18.122237248054));
#381 = CARTESIAN_POINT('',(19.132458060061,18.185139459749));
#382 = CARTESIAN_POINT('',(18.980797986512,18.264063577324));
#383 = CARTESIAN_POINT('',(18.837949634473,18.358044200034));
#384 = CARTESIAN_POINT('',(18.705738587455,18.465829727812));
#385 = CARTESIAN_POINT('',(18.424836344482,18.7467426481));
#386 = CARTESIAN_POINT('',(18.285817868399,18.929717178557));
#387 = CARTESIAN_POINT('',(18.17267296365,19.130833169279));
#388 = CARTESIAN_POINT('',(18.088087070534,19.345467755075));
#389 = CARTESIAN_POINT('',(18.033888065882,19.568613754274));
#390 = CARTESIAN_POINT('',(18.00238911989,19.873953361102));
#391 = CARTESIAN_POINT('',(17.998003385313,19.953520469071));
#392 = CARTESIAN_POINT('',(17.997422383904,20.033242471848));
#393 = CARTESIAN_POINT('',(18.00064988079,20.112892799508));
#394 = CARTESIAN_POINT('',(18.007671686201,20.192245583147));
#395 = CARTESIAN_POINT('',(18.04117200403,20.437130596381));
#396 = CARTESIAN_POINT('',(18.080585255023,20.600888112471));
#397 = CARTESIAN_POINT('',(18.136397673268,20.760211535103));
#398 = CARTESIAN_POINT('',(18.207947274411,20.91309413311));
#399 = CARTESIAN_POINT('',(18.294291099522,21.057647296101));
#400 = CARTESIAN_POINT('',(18.423307921088,21.23143669617));
#401 = CARTESIAN_POINT('',(18.453627928496,21.269868607004));
#402 = CARTESIAN_POINT('',(18.485070042624,21.30740201548));
#403 = CARTESIAN_POINT('',(18.517600971976,21.343996332984));
#404 = CARTESIAN_POINT('',(18.551185490507,21.379612615253));
#405 = CARTESIAN_POINT('',(18.585786437627,21.414213562373));
#406 = ( GEOMETRIC_REPRESENTATION_CONTEXT(2) 
PARAMETRIC_REPRESENTATION_CONTEXT() REPRESENTATION_CONTEXT('2D SPACE',''
  ) );
#407 = PCURVE('',#408,#417);
#408 = SURFACE_OF_REVOLUTION('',#409,#414);
#409 = CIRCLE('',#410,2.);
#410 = AXIS2_PLACEMENT_3D('',#411,#412,#413);
#411 = CARTESIAN_POINT('',(0.,1.972152263053E-31,-3.944304526105E-31));
#412 = DIRECTION('',(1.110223024625E-16,1.,6.162975822039E-33));
#413 = DIRECTION('',(-5.551115123126E-17,0.,1.));
#414 = AXIS1_PLACEMENT('',#415,#416);
#415 = CARTESIAN_POINT('',(10.,-13.66666666666,10.));
#416 = DIRECTION('',(0.707106781187,0.,-0.707106781187));
#417 = DEFINITIONAL_REPRESENTATION('',(#418),#451);
#418 = B_SPLINE_CURVE_WITH_KNOTS('',6,(#419,#420,#421,#422,#423,#424,
    #425,#426,#427,#428,#429,#430,#431,#432,#433,#434,#435,#436,#437,
    #438,#439,#440,#441,#442,#443,#444,#445,#446,#447,#448,#449,#450),
  .UNSPECIFIED.,.F.,.F.,(7,5,5,5,5,5,7),(0.,0.117343404178,
    0.333198804826,0.622717283625,0.724088192998,0.937625236077,1.),
  .UNSPECIFIED.);
#419 = CARTESIAN_POINT('',(1.499694700551,0.));
#420 = CARTESIAN_POINT('',(1.494589424846,4.606386889649E-02));
#421 = CARTESIAN_POINT('',(1.489736547841,9.213386625842E-02));
#422 = CARTESIAN_POINT('',(1.48516162623,0.13820906619));
#423 = CARTESIAN_POINT('',(1.480888587321,0.184290114204));
#424 = CARTESIAN_POINT('',(1.476939259739,0.230377477504));
#425 = CARTESIAN_POINT('',(1.466698945088,0.36125719745));
#426 = CARTESIAN_POINT('',(1.461224446146,0.44607488715));
#427 = CARTESIAN_POINT('',(1.457031411195,0.530894909971));
#428 = CARTESIAN_POINT('',(1.454205334271,0.615726309434));
#429 = CARTESIAN_POINT('',(1.45279279019,0.700577572622));
#430 = CARTESIAN_POINT('',(1.452793407667,0.899209228516));
#431 = CARTESIAN_POINT('',(1.455335390357,1.013049924591));
#432 = CARTESIAN_POINT('',(1.460422983195,1.126817226462));
#433 = CARTESIAN_POINT('',(1.467900271891,1.240558636829));
#434 = CARTESIAN_POINT('',(1.477499460051,1.354322158847));
#435 = CARTESIAN_POINT('',(1.492827557866,1.507802173097));
#436 = CARTESIAN_POINT('',(1.497018368079,1.547600524005));
#437 = CARTESIAN_POINT('',(1.501409518368,1.587394627154));
#438 = CARTESIAN_POINT('',(1.505984871254,1.627184555477));
#439 = CARTESIAN_POINT('',(1.510727524962,1.666970467189));
#440 = CARTESIAN_POINT('',(1.525925381543,1.790553375595));
#441 = CARTESIAN_POINT('',(1.536896457347,1.874347413076));
#442 = CARTESIAN_POINT('',(1.54836730676,1.958116401171));
#443 = CARTESIAN_POINT('',(1.560166644657,2.041876159375));
#444 = CARTESIAN_POINT('',(1.572128371968,2.125642659541));
#445 = CARTESIAN_POINT('',(1.587587116724,2.233864764288));
#446 = CARTESIAN_POINT('',(1.591082160777,2.258330287907));
#447 = CARTESIAN_POINT('',(1.594573606548,2.282795919853));
#448 = CARTESIAN_POINT('',(1.598057628754,2.307261766233));
#449 = CARTESIAN_POINT('',(1.601530495379,2.331727925849));
#450 = CARTESIAN_POINT('',(1.604988567673,2.356194490192));
#451 = ( GEOMETRIC_REPRESENTATION_CONTEXT(2) 
PARAMETRIC_REPRESENTATION_CONTEXT() REPRESENTATION_CONTEXT('2D SPACE',''
  ) );
#452 = ORIENTED_EDGE('',*,*,#453,.F.);
#453 = EDGE_CURVE('',#259,#335,#454,.T.);
#454 = SURFACE_CURVE('',#455,(#459,#465),.PCURVE_S1.);
#455 = LINE('',#456,#457);
#456 = CARTESIAN_POINT('',(20.,-1.972152263053E-31,20.));
#457 = VECTOR('',#458,1.);
#458 = DIRECTION('',(0.707106781187,0.,-0.707106781187));
#459 = PCURVE('',#94,#460);
#460 = DEFINITIONAL_REPRESENTATION('',(#461),#464);
#461 = B_SPLINE_CURVE_WITH_KNOTS('',1,(#462,#463),.UNSPECIFIED.,.F.,.F.,
  (2,2),(-2.,2.),.PIECEWISE_BEZIER_KNOTS.);
#462 = CARTESIAN_POINT('',(21.414213562373,18.585786437627));
#463 = CARTESIAN_POINT('',(18.585786437627,21.414213562373));
#464 = ( GEOMETRIC_REPRESENTATION_CONTEXT(2) 
PARAMETRIC_REPRESENTATION_CONTEXT() REPRESENTATION_CONTEXT('2D SPACE',''
  ) );
#465 = PCURVE('',#466,#471);
#466 = PLANE('',#467);
#467 = AXIS2_PLACEMENT_3D('',#468,#469,#470);
#468 = CARTESIAN_POINT('',(20.,1.880230182242E-15,20.));
#469 = DIRECTION('',(0.706693478885,-3.418557885665E-02,0.706693478885)
  );
#470 = DIRECTION('',(0.707106781187,0.,-0.707106781187));
#471 = DEFINITIONAL_REPRESENTATION('',(#472),#475);
#472 = B_SPLINE_CURVE_WITH_KNOTS('',1,(#473,#474),.UNSPECIFIED.,.F.,.F.,
  (2,2),(-2.,2.),.PIECEWISE_BEZIER_KNOTS.);
#473 = CARTESIAN_POINT('',(-2.,-1.793251960694E-15));
#474 = CARTESIAN_POINT('',(2.,-1.793251960694E-15));
#475 = ( GEOMETRIC_REPRESENTATION_CONTEXT(2) 
PARAMETRIC_REPRESENTATION_CONTEXT() REPRESENTATION_CONTEXT('2D SPACE',''
  ) );
#476 = ADVANCED_FACE('',(#477),#124,.F.);
#477 = FACE_BOUND('',#478,.F.);
#478 = EDGE_LOOP('',(#479,#667,#668));
#479 = ORIENTED_EDGE('',*,*,#480,.F.);
#480 = EDGE_CURVE('',#57,#481,#483,.T.);
#481 = VERTEX_POINT('',#482);
#482 = CARTESIAN_POINT('',(0.,2.060581035099,0.));
#483 = SURFACE_CURVE('',#484,(#543,#605),.PCURVE_S1.);
#484 = B_SPLINE_CURVE_WITH_KNOTS('',8,(#485,#486,#487,#488,#489,#490,
    #491,#492,#493,#494,#495,#496,#497,#498,#499,#500,#501,#502,#503,
    #504,#505,#506,#507,#508,#509,#510,#511,#512,#513,#514,#515,#516,
    #517,#518,#519,#520,#521,#522,#523,#524,#525,#526,#527,#528,#529,
    #530,#531,#532,#533,#534,#535,#536,#537,#538,#539,#540,#541,#542),
  .UNSPECIFIED.,.F.,.F.,(9,7,7,7,7,7,7,7,9),(0.,0.251055454145,
    0.360602571542,0.400909867903,0.470098270257,0.525109648939,
    0.613512792857,0.704331977194,1.),.UNSPECIFIED.);
#485 = CARTESIAN_POINT('',(0.,0.,2.));
#486 = CARTESIAN_POINT('',(0.,0.143086007431,2.108639376013));
#487 = CARTESIAN_POINT('',(0.,0.28817556138,2.213354979334));
#488 = CARTESIAN_POINT('',(0.,0.435723117578,2.313784349977));
#489 = CARTESIAN_POINT('',(0.,0.586046550775,2.40919373949));
#490 = CARTESIAN_POINT('',(0.,0.739319369223,2.498516131934));
#491 = CARTESIAN_POINT('',(0.,0.895617041295,2.58015235087));
#492 = CARTESIAN_POINT('',(0.,1.054879654456,2.652104592684));
#493 = CARTESIAN_POINT('',(0.,1.287967147929,2.73688183179));
#494 = CARTESIAN_POINT('',(0.,1.359265816156,2.760143535634));
#495 = CARTESIAN_POINT('',(0.,1.431054217522,2.780651895412));
#496 = CARTESIAN_POINT('',(0.,1.503267811057,2.798078374744));
#497 = CARTESIAN_POINT('',(0.,1.575775508198,2.812030817326));
#498 = CARTESIAN_POINT('',(0.,1.648377750636,2.822061797026));
#499 = CARTESIAN_POINT('',(0.,1.720804176413,2.827681051526));
#500 = CARTESIAN_POINT('',(0.,1.819168572577,2.828626230204));
#501 = CARTESIAN_POINT('',(0.,1.845549767483,2.828213176079));
#502 = CARTESIAN_POINT('',(0.,1.871834365354,2.827107716248));
#503 = CARTESIAN_POINT('',(0.,1.897999550325,2.82528459428));
#504 = CARTESIAN_POINT('',(0.,1.924019916752,2.822719074101));
#505 = CARTESIAN_POINT('',(0.,1.949867601663,2.819387595915));
#506 = CARTESIAN_POINT('',(0.,1.975512417195,2.815268432141));
#507 = CARTESIAN_POINT('',(0.,2.044538087931,2.801886598477));
#508 = CARTESIAN_POINT('',(0.,2.087477353547,2.791050225387));
#509 = CARTESIAN_POINT('',(0.,2.129554496259,2.777737226091));
#510 = CARTESIAN_POINT('',(0.,2.170579576005,2.761878366225));
#511 = CARTESIAN_POINT('',(0.,2.210361615503,2.743438654179));
#512 = CARTESIAN_POINT('',(0.,2.248713337718,2.722426049453));
#513 = CARTESIAN_POINT('',(0.,2.285457021595,2.698901400234));
#514 = CARTESIAN_POINT('',(0.,2.348239503005,2.652387265786));
#515 = CARTESIAN_POINT('',(0.,2.37493786348,2.630269182762));
#516 = CARTESIAN_POINT('',(0.,2.400447407533,2.606694632011));
#517 = CARTESIAN_POINT('',(0.,2.424708703544,2.581736730715));
#518 = CARTESIAN_POINT('',(0.,2.447679957979,2.555479849179));
#519 = CARTESIAN_POINT('',(0.,2.469334935155,2.528017017657));
#520 = CARTESIAN_POINT('',(0.,2.489660877008,2.499447333188));
#521 = CARTESIAN_POINT('',(0.,2.539182216144,2.422348077966));
#522 = CARTESIAN_POINT('',(0.,2.566270579404,2.37223202263));
#523 = CARTESIAN_POINT('',(0.,2.589941461714,2.319917384147));
#524 = CARTESIAN_POINT('',(0.,2.610293115439,2.265782388794));
#525 = CARTESIAN_POINT('',(0.,2.627469980249,2.210172413977));
#526 = CARTESIAN_POINT('',(0.,2.641638429761,2.153386671766));
#527 = CARTESIAN_POINT('',(0.,2.652970380799,2.095670467375));
#528 = CARTESIAN_POINT('',(0.,2.670535945683,1.977157967698));
#529 = CARTESIAN_POINT('',(0.,2.676619940707,1.916332552381));
#530 = CARTESIAN_POINT('',(0.,2.680071266031,1.854936050164));
#531 = CARTESIAN_POINT('',(0.,2.681062741387,1.79313865134));
#532 = CARTESIAN_POINT('',(0.,2.679754445628,1.731081964684));
#533 = CARTESIAN_POINT('',(0.,2.676292671782,1.668879509149));
#534 = CARTESIAN_POINT('',(0.,2.670808882117,1.606617205575));
#535 = CARTESIAN_POINT('',(0.,2.639359303565,1.34165134541));
#536 = CARTESIAN_POINT('',(0.,2.595162368942,1.139508942301));
#537 = CARTESIAN_POINT('',(0.,2.534928418118,0.939480998159));
#538 = CARTESIAN_POINT('',(0.,2.460955441889,0.7428021407));
#539 = CARTESIAN_POINT('',(0.,2.375328422632,0.550270449803));
#540 = CARTESIAN_POINT('',(0.,2.279448791777,0.362301340851));
#541 = CARTESIAN_POINT('',(0.,2.174370700862,0.178959825935));
#542 = CARTESIAN_POINT('',(0.,2.060581035099,0.));
#543 = PCURVE('',#124,#544);
#544 = DEFINITIONAL_REPRESENTATION('',(#545),#604);
#545 = B_SPLINE_CURVE_WITH_KNOTS('',8,(#546,#547,#548,#549,#550,#551,
    #552,#553,#554,#555,#556,#557,#558,#559,#560,#561,#562,#563,#564,
    #565,#566,#567,#568,#569,#570,#571,#572,#573,#574,#575,#576,#577,
    #578,#579,#580,#581,#582,#583,#584,#585,#586,#587,#588,#589,#590,
    #591,#592,#593,#594,#595,#596,#597,#598,#599,#600,#601,#602,#603),
  .UNSPECIFIED.,.F.,.F.,(9,7,7,7,7,7,7,7,9),(0.,0.251055454145,
    0.360602571542,0.400909867903,0.470098270257,0.525109648939,
    0.613512792857,0.704331977194,1.),.UNSPECIFIED.);
#546 = CARTESIAN_POINT('',(0.,6.28318530718));
#547 = CARTESIAN_POINT('',(1.124189846085E-02,6.228865619173));
#548 = CARTESIAN_POINT('',(2.264120341567E-02,6.173135153882));
#549 = CARTESIAN_POINT('',(3.421574223444E-02,6.115628349679));
#550 = CARTESIAN_POINT('',(4.596912761383E-02,6.055976200398));
#551 = CARTESIAN_POINT('',(5.788917820556E-02,5.993812893036));
#552 = CARTESIAN_POINT('',(6.994794059724E-02,5.928665755114));
#553 = CARTESIAN_POINT('',(8.21004330839E-02,5.860011598904));
#554 = CARTESIAN_POINT('',(9.96139736763E-02,5.754841226204));
#555 = CARTESIAN_POINT('',(0.104935751057,5.72206041512));
#556 = CARTESIAN_POINT('',(0.110254331055,5.688364291602));
#557 = CARTESIAN_POINT('',(0.11555972736,5.653681102467));
#558 = CARTESIAN_POINT('',(0.120836514271,5.617950368552));
#559 = CARTESIAN_POINT('',(0.126063947838,5.581122374285));
#560 = CARTESIAN_POINT('',(0.131216213903,5.543158229953));
#561 = CARTESIAN_POINT('',(0.13811966947,5.489633662913));
#562 = CARTESIAN_POINT('',(0.139961797892,5.475082622943));
#563 = CARTESIAN_POINT('',(0.141787469201,5.460377836387));
#564 = CARTESIAN_POINT('',(0.143594787264,5.445520799682));
#565 = CARTESIAN_POINT('',(0.145381698883,5.430514174173));
#566 = CARTESIAN_POINT('',(0.147146013764,5.415361904174));
#567 = CARTESIAN_POINT('',(0.148885424474,5.400069335036));
#568 = CARTESIAN_POINT('',(0.153536388785,5.358164240413));
#569 = CARTESIAN_POINT('',(0.1563958867,5.331282143782));
#570 = CARTESIAN_POINT('',(0.159162370476,5.30404392026));
#571 = CARTESIAN_POINT('',(0.161822409627,5.276503787711));
#572 = CARTESIAN_POINT('',(0.1643631651,5.248723913741));
#573 = CARTESIAN_POINT('',(0.166772806673,5.220775813358));
#574 = CARTESIAN_POINT('',(0.169040975486,5.192742533486));
#575 = CARTESIAN_POINT('',(0.172843555164,5.142442329056));
#576 = CARTESIAN_POINT('',(0.174433615217,5.120163797972));
#577 = CARTESIAN_POINT('',(0.175925351573,5.097932668471));
#578 = CARTESIAN_POINT('',(0.177316198206,5.075790293033));
#579 = CARTESIAN_POINT('',(0.178604942124,5.053773389861));
#580 = CARTESIAN_POINT('',(0.179791522108,5.03191469353));
#581 = CARTESIAN_POINT('',(0.180876827462,5.010243605627));
#582 = CARTESIAN_POINT('',(0.183446464779,4.954305886945));
#583 = CARTESIAN_POINT('',(0.184773038922,4.920380347077));
#584 = CARTESIAN_POINT('',(0.185850444608,4.887094083891));
#585 = CARTESIAN_POINT('',(0.186691720007,4.854495598497));
#586 = CARTESIAN_POINT('',(0.187312224116,4.822608016674));
#587 = CARTESIAN_POINT('',(0.187727832816,4.791435573416));
#588 = CARTESIAN_POINT('',(0.18795382291,4.760966600361));
#589 = CARTESIAN_POINT('',(0.18805644887,4.700565179082));
#590 = CARTESIAN_POINT('',(0.187923352477,4.67067631456));
#591 = CARTESIAN_POINT('',(0.18762062178,4.641473157158));
#592 = CARTESIAN_POINT('',(0.187162295031,4.612923295836));
#593 = CARTESIAN_POINT('',(0.186560990602,4.58499425213));
#594 = CARTESIAN_POINT('',(0.185827915656,4.557652558388));
#595 = CARTESIAN_POINT('',(0.184972874812,4.530862836008));
#596 = CARTESIAN_POINT('',(0.18085094878,4.419043693743));
#597 = CARTESIAN_POINT('',(0.17650298509,4.339186412144));
#598 = CARTESIAN_POINT('',(0.171252917448,4.26345741522));
#599 = CARTESIAN_POINT('',(0.165257718521,4.19124107586));
#600 = CARTESIAN_POINT('',(0.158651913189,4.12192387656));
#601 = CARTESIAN_POINT('',(0.151519384309,4.055084322498));
#602 = CARTESIAN_POINT('',(0.143919312472,3.990262670226));
#603 = CARTESIAN_POINT('',(0.135873168043,3.926990816987));
#604 = ( GEOMETRIC_REPRESENTATION_CONTEXT(2) 
PARAMETRIC_REPRESENTATION_CONTEXT() REPRESENTATION_CONTEXT('2D SPACE',''
  ) );
#605 = PCURVE('',#190,#606);
#606 = DEFINITIONAL_REPRESENTATION('',(#607),#666);
#607 = B_SPLINE_CURVE_WITH_KNOTS('',8,(#608,#609,#610,#611,#612,#613,
    #614,#615,#616,#617,#618,#619,#620,#621,#622,#623,#624,#625,#626,
    #627,#628,#629,#630,#631,#632,#633,#634,#635,#636,#637,#638,#639,
    #640,#641,#642,#643,#644,#645,#646,#647,#648,#649,#650,#651,#652,
    #653,#654,#655,#656,#657,#658,#659,#660,#661,#662,#663,#664,#665),
  .UNSPECIFIED.,.F.,.F.,(9,7,7,7,7,7,7,7,9),(0.,0.251055454145,
    0.360602571542,0.400909867903,0.470098270257,0.525109648939,
    0.613512792857,0.704331977194,1.),.UNSPECIFIED.);
#608 = CARTESIAN_POINT('',(2.,0.));
#609 = CARTESIAN_POINT('',(2.108639376013,-0.143086007431));
#610 = CARTESIAN_POINT('',(2.213354979334,-0.28817556138));
#611 = CARTESIAN_POINT('',(2.313784349977,-0.435723117578));
#612 = CARTESIAN_POINT('',(2.40919373949,-0.586046550775));
#613 = CARTESIAN_POINT('',(2.498516131934,-0.739319369223));
#614 = CARTESIAN_POINT('',(2.58015235087,-0.895617041295));
#615 = CARTESIAN_POINT('',(2.652104592684,-1.054879654456));
#616 = CARTESIAN_POINT('',(2.73688183179,-1.287967147929));
#617 = CARTESIAN_POINT('',(2.760143535634,-1.359265816156));
#618 = CARTESIAN_POINT('',(2.780651895412,-1.431054217522));
#619 = CARTESIAN_POINT('',(2.798078374744,-1.503267811057));
#620 = CARTESIAN_POINT('',(2.812030817326,-1.575775508198));
#621 = CARTESIAN_POINT('',(2.822061797026,-1.648377750636));
#622 = CARTESIAN_POINT('',(2.827681051526,-1.720804176413));
#623 = CARTESIAN_POINT('',(2.828626230204,-1.819168572577));
#624 = CARTESIAN_POINT('',(2.828213176079,-1.845549767483));
#625 = CARTESIAN_POINT('',(2.827107716248,-1.871834365354));
#626 = CARTESIAN_POINT('',(2.82528459428,-1.897999550325));
#627 = CARTESIAN_POINT('',(2.822719074101,-1.924019916752));
#628 = CARTESIAN_POINT('',(2.819387595915,-1.949867601663));
#629 = CARTESIAN_POINT('',(2.815268432141,-1.975512417195));
#630 = CARTESIAN_POINT('',(2.801886598477,-2.044538087931));
#631 = CARTESIAN_POINT('',(2.791050225387,-2.087477353547));
#632 = CARTESIAN_POINT('',(2.777737226091,-2.129554496259));
#633 = CARTESIAN_POINT('',(2.761878366225,-2.170579576005));
#634 = CARTESIAN_POINT('',(2.743438654179,-2.210361615503));
#635 = CARTESIAN_POINT('',(2.722426049453,-2.248713337718));
#636 = CARTESIAN_POINT('',(2.698901400234,-2.285457021595));
#637 = CARTESIAN_POINT('',(2.652387265786,-2.348239503005));
#638 = CARTESIAN_POINT('',(2.630269182762,-2.37493786348));
#639 = CARTESIAN_POINT('',(2.606694632011,-2.400447407533));
#640 = CARTESIAN_POINT('',(2.581736730715,-2.424708703544));
#641 = CARTESIAN_POINT('',(2.555479849179,-2.447679957979));
#642 = CARTESIAN_POINT('',(2.528017017657,-2.469334935155));
#643 = CARTESIAN_POINT('',(2.499447333188,-2.489660877008));
#644 = CARTESIAN_POINT('',(2.422348077966,-2.539182216144));
#645 = CARTESIAN_POINT('',(2.37223202263,-2.566270579404));
#646 = CARTESIAN_POINT('',(2.319917384147,-2.589941461714));
#647 = CARTESIAN_POINT('',(2.265782388794,-2.610293115439));
#648 = CARTESIAN_POINT('',(2.210172413977,-2.627469980249));
#649 = CARTESIAN_POINT('',(2.153386671766,-2.641638429761));
#650 = CARTESIAN_POINT('',(2.095670467375,-2.652970380799));
#651 = CARTESIAN_POINT('',(1.977157967698,-2.670535945683));
#652 = CARTESIAN_POINT('',(1.916332552381,-2.676619940707));
#653 = CARTESIAN_POINT('',(1.854936050164,-2.680071266031));
#654 = CARTESIAN_POINT('',(1.79313865134,-2.681062741387));
#655 = CARTESIAN_POINT('',(1.731081964684,-2.679754445628));
#656 = CARTESIAN_POINT('',(1.668879509149,-2.676292671782));
#657 = CARTESIAN_POINT('',(1.606617205575,-2.670808882117));
#658 = CARTESIAN_POINT('',(1.34165134541,-2.639359303565));
#659 = CARTESIAN_POINT('',(1.139508942301,-2.595162368942));
#660 = CARTESIAN_POINT('',(0.939480998159,-2.534928418118));
#661 = CARTESIAN_POINT('',(0.7428021407,-2.460955441889));
#662 = CARTESIAN_POINT('',(0.550270449803,-2.375328422632));
#663 = CARTESIAN_POINT('',(0.362301340851,-2.279448791777));
#664 = CARTESIAN_POINT('',(0.178959825935,-2.174370700862));
#665 = CARTESIAN_POINT('',(0.,-2.060581035099));
#666 = ( GEOMETRIC_REPRESENTATION_CONTEXT(2) 
PARAMETRIC_REPRESENTATION_CONTEXT() REPRESENTATION_CONTEXT('2D SPACE',''
  ) );
#667 = ORIENTED_EDGE('',*,*,#109,.F.);
#668 = ORIENTED_EDGE('',*,*,#669,.F.);
#669 = EDGE_CURVE('',#481,#24,#670,.T.);
#670 = SURFACE_CURVE('',#671,(#737,#806),.PCURVE_S1.);
#671 = B_SPLINE_CURVE_WITH_KNOTS('',8,(#672,#673,#674,#675,#676,#677,
    #678,#679,#680,#681,#682,#683,#684,#685,#686,#687,#688,#689,#690,
    #691,#692,#693,#694,#695,#696,#697,#698,#699,#700,#701,#702,#703,
    #704,#705,#706,#707,#708,#709,#710,#711,#712,#713,#714,#715,#716,
    #717,#718,#719,#720,#721,#722,#723,#724,#725,#726,#727,#728,#729,
    #730,#731,#732,#733,#734,#735,#736),.UNSPECIFIED.,.F.,.F.,(9,7,7,7,7
    ,7,7,7,7,9),(0.,0.282106364943,0.372287607691,0.439881487778,
    0.490917740172,0.529967101423,0.586958050887,0.673561237491,
    0.883058221396,1.),.UNSPECIFIED.);
#672 = CARTESIAN_POINT('',(0.,2.060581035099,0.));
#673 = CARTESIAN_POINT('',(0.170748700063,2.169149745468,0.));
#674 = CARTESIAN_POINT('',(0.345560805643,2.269835754071,0.));
#675 = CARTESIAN_POINT('',(0.524592088773,2.362160982044,0.));
#676 = CARTESIAN_POINT('',(0.707761090261,2.445219441984,0.));
#677 = CARTESIAN_POINT('',(0.894717308037,2.517810826121,0.));
#678 = CARTESIAN_POINT('',(1.084824466406,2.578231768714,0.));
#679 = CARTESIAN_POINT('',(1.277119932769,2.624540734344,0.));
#680 = CARTESIAN_POINT('',(1.532208868193,2.662738762022,0.));
#681 = CARTESIAN_POINT('',(1.594060570143,2.670211019784,0.));
#682 = CARTESIAN_POINT('',(1.655922564399,2.675798153155,0.));
#683 = CARTESIAN_POINT('',(1.717723178608,2.679381801154,0.));
#684 = CARTESIAN_POINT('',(1.779368317775,2.68082980101,0.));
#685 = CARTESIAN_POINT('',(1.840740878186,2.679996280249,0.));
#686 = CARTESIAN_POINT('',(1.901700161332,2.676721748775,0.));
#687 = CARTESIAN_POINT('',(2.007338976691,2.666419518454,0.));
#688 = CARTESIAN_POINT('',(2.052263645607,2.660537785247,0.));
#689 = CARTESIAN_POINT('',(2.096785101438,2.653116347307,0.));
#690 = CARTESIAN_POINT('',(2.140815403277,2.644079234591,0.));
#691 = CARTESIAN_POINT('',(2.184250043818,2.633349313462,0.));
#692 = CARTESIAN_POINT('',(2.226969130723,2.620851449103,0.));
#693 = CARTESIAN_POINT('',(2.268838567986,2.606515667936,0.));
#694 = CARTESIAN_POINT('',(2.340571839826,2.57802194233,0.));
#695 = CARTESIAN_POINT('',(2.370862733233,2.564681248884,0.));
#696 = CARTESIAN_POINT('',(2.400517791109,2.550233797984,0.));
#697 = CARTESIAN_POINT('',(2.429465544258,2.534658979128,0.));
#698 = CARTESIAN_POINT('',(2.457630807822,2.517942106024,0.));
#699 = CARTESIAN_POINT('',(2.484936308408,2.500076509591,0.));
#700 = CARTESIAN_POINT('',(2.511304311213,2.48106563096,0.));
#701 = CARTESIAN_POINT('',(2.556057300901,2.445515003663,0.));
#702 = CARTESIAN_POINT('',(2.574863630222,2.429442923429,0.));
#703 = CARTESIAN_POINT('',(2.593042215958,2.4127165686,0.));
#704 = CARTESIAN_POINT('',(2.610560123797,2.395347019157,0.));
#705 = CARTESIAN_POINT('',(2.627386911092,2.377349028253,0.));
#706 = CARTESIAN_POINT('',(2.643495033689,2.358741310244,0.));
#707 = CARTESIAN_POINT('',(2.658860252752,2.339546828716,0.));
#708 = CARTESIAN_POINT('',(2.694772756622,2.290963300843,0.));
#709 = CARTESIAN_POINT('',(2.714461550965,2.260936475215,0.));
#710 = CARTESIAN_POINT('',(2.732461168269,2.229801054041,0.));
#711 = CARTESIAN_POINT('',(2.74873186235,2.197653472905,0.));
#712 = CARTESIAN_POINT('',(2.763258279121,2.164596174747,0.));
#713 = CARTESIAN_POINT('',(2.776046338526,2.130735628047,0.));
#714 = CARTESIAN_POINT('',(2.787120116475,2.09618034501,0.));
#715 = CARTESIAN_POINT('',(2.810800812074,2.007638119964,0.));
#716 = CARTESIAN_POINT('',(2.821214368738,1.95288471555,0.));
#717 = CARTESIAN_POINT('',(2.82790982399,1.897118034528,0.));
#718 = CARTESIAN_POINT('',(2.831108247876,1.840639969533,0.));
#719 = CARTESIAN_POINT('',(2.831064635112,1.783707832542,0.));
#720 = CARTESIAN_POINT('',(2.828040268137,1.726529593269,0.));
#721 = CARTESIAN_POINT('',(2.822284161389,1.669261481227,0.));
#722 = CARTESIAN_POINT('',(2.794040887184,1.473509100814,0.));
#723 = CARTESIAN_POINT('',(2.759463787392,1.335522138423,0.));
#724 = CARTESIAN_POINT('',(2.71356373881,1.198906997723,0.));
#725 = CARTESIAN_POINT('',(2.658610021189,1.06427533182,0.));
#726 = CARTESIAN_POINT('',(2.596465230413,0.931942601359,0.));
#727 = CARTESIAN_POINT('',(2.528444181821,0.801953267567,0.));
#728 = CARTESIAN_POINT('',(2.455449780152,0.674081627608,0.));
#729 = CARTESIAN_POINT('',(2.334658675742,0.477367337115,0.));
#730 = CARTESIAN_POINT('',(2.29004156303,0.407508777918,0.));
#731 = CARTESIAN_POINT('',(2.244203780418,0.338238726565,0.));
#732 = CARTESIAN_POINT('',(2.197253310782,0.269536149419,0.));
#733 = CARTESIAN_POINT('',(2.149283166635,0.201381060189,0.));
#734 = CARTESIAN_POINT('',(2.100373282657,0.13375373101,0.));
#735 = CARTESIAN_POINT('',(2.050592408237,6.663390353142E-02,0.));
#736 = CARTESIAN_POINT('',(2.,0.,0.));
#737 = PCURVE('',#124,#738);
#738 = DEFINITIONAL_REPRESENTATION('',(#739),#805);
#739 = B_SPLINE_CURVE_WITH_KNOTS('',8,(#740,#741,#742,#743,#744,#745,
    #746,#747,#748,#749,#750,#751,#752,#753,#754,#755,#756,#757,#758,
    #759,#760,#761,#762,#763,#764,#765,#766,#767,#768,#769,#770,#771,
    #772,#773,#774,#775,#776,#777,#778,#779,#780,#781,#782,#783,#784,
    #785,#786,#787,#788,#789,#790,#791,#792,#793,#794,#795,#796,#797,
    #798,#799,#800,#801,#802,#803,#804),.UNSPECIFIED.,.F.,.F.,(9,7,7,7,7
    ,7,7,7,7,9),(0.,0.282106364943,0.372287607691,0.439881487778,
    0.490917740172,0.529967101423,0.586958050887,0.673561237491,
    0.883058221396,1.),.UNSPECIFIED.);
#740 = CARTESIAN_POINT('',(0.135873168043,3.926990816987));
#741 = CARTESIAN_POINT('',(0.143550135175,3.866622035141));
#742 = CARTESIAN_POINT('',(0.150824403691,3.804816245093));
#743 = CARTESIAN_POINT('',(0.157673661838,3.741185980029));
#744 = CARTESIAN_POINT('',(0.164047039723,3.67534743137));
#745 = CARTESIAN_POINT('',(0.169872705177,3.60693093608));
#746 = CARTESIAN_POINT('',(0.175041521068,3.535428473981));
#747 = CARTESIAN_POINT('',(0.179422237635,3.460292447985));
#748 = CARTESIAN_POINT('',(0.183860443686,3.35471666752));
#749 = CARTESIAN_POINT('',(0.184830816791,3.328662790971));
#750 = CARTESIAN_POINT('',(0.185688973715,3.30209421268));
#751 = CARTESIAN_POINT('',(0.186426223655,3.274977792888));
#752 = CARTESIAN_POINT('',(0.187032621746,3.247281199701));
#753 = CARTESIAN_POINT('',(0.187496907192,3.218971838634));
#754 = CARTESIAN_POINT('',(0.187806441393,3.190015782165));
#755 = CARTESIAN_POINT('',(0.188052608978,3.138161207972));
#756 = CARTESIAN_POINT('',(0.188063181483,3.115565832067));
#757 = CARTESIAN_POINT('',(0.187973010971,3.092576202435));
#758 = CARTESIAN_POINT('',(0.187775683621,3.069181396377));
#759 = CARTESIAN_POINT('',(0.187464430141,3.045374502992));
#760 = CARTESIAN_POINT('',(0.187032331496,3.021153188548));
#761 = CARTESIAN_POINT('',(0.186472524642,2.996520261845));
#762 = CARTESIAN_POINT('',(0.18525432088,2.952580978674));
#763 = CARTESIAN_POINT('',(0.184653691535,2.933448821068));
#764 = CARTESIAN_POINT('',(0.183973800965,2.914093790713));
#765 = CARTESIAN_POINT('',(0.183212075436,2.894524668889));
#766 = CARTESIAN_POINT('',(0.182366254184,2.874753507037));
#767 = CARTESIAN_POINT('',(0.181434556867,2.8547961396));
#768 = CARTESIAN_POINT('',(0.180415851014,2.834672696857));
#769 = CARTESIAN_POINT('',(0.178463561697,2.798903082951));
#770 = CARTESIAN_POINT('',(0.177566147536,2.78331473712));
#771 = CARTESIAN_POINT('',(0.176617476904,2.767654945727));
#772 = CARTESIAN_POINT('',(0.175617694825,2.751936188097));
#773 = CARTESIAN_POINT('',(0.17456722158,2.736171667762));
#774 = CARTESIAN_POINT('',(0.17346678286,2.720375422818));
#775 = CARTESIAN_POINT('',(0.172317439915,2.704562436267));
#776 = CARTESIAN_POINT('',(0.169373909446,2.665669311191));
#777 = CARTESIAN_POINT('',(0.16752572279,2.642583838422));
#778 = CARTESIAN_POINT('',(0.165580650051,2.619544852136));
#779 = CARTESIAN_POINT('',(0.163544214136,2.596599494531));
#780 = CARTESIAN_POINT('',(0.161422715568,2.573790167056));
#781 = CARTESIAN_POINT('',(0.159223077509,2.551155171559));
#782 = CARTESIAN_POINT('',(0.156952690784,2.528729351416));
#783 = CARTESIAN_POINT('',(0.151073386457,2.47283308732));
#784 = CARTESIAN_POINT('',(0.14738198764,2.439678911121));
#785 = CARTESIAN_POINT('',(0.143569306115,2.407166649811));
#786 = CARTESIAN_POINT('',(0.139658421878,2.375347225626));
#787 = CARTESIAN_POINT('',(0.135670203441,2.344246375833));
#788 = CARTESIAN_POINT('',(0.131622522953,2.313870193712));
#789 = CARTESIAN_POINT('',(0.127529734244,2.284207871984));
#790 = CARTESIAN_POINT('',(0.113418240938,2.185136867858));
#791 = CARTESIAN_POINT('',(0.103262752396,2.119273185121));
#792 = CARTESIAN_POINT('',(9.304326808857E-02,2.056899681623));
#793 = CARTESIAN_POINT('',(8.284167486517E-02,1.997620675509));
#794 = CARTESIAN_POINT('',(7.271356030559E-02,1.941049832974));
#795 = CARTESIAN_POINT('',(6.268730952409E-02,1.886846130759));
#796 = CARTESIAN_POINT('',(5.276583107596E-02,1.834636739359));
#797 = CARTESIAN_POINT('',(3.74357728979E-02,1.755764879295));
#798 = CARTESIAN_POINT('',(3.197806381661E-02,1.72804801952));
#799 = CARTESIAN_POINT('',(2.655558544721E-02,1.700822613823));
#800 = CARTESIAN_POINT('',(2.116934943817E-02,1.674048291339));
#801 = CARTESIAN_POINT('',(1.582017934657E-02,1.647689455308));
#802 = CARTESIAN_POINT('',(1.050868783921E-02,1.621714083879));
#803 = CARTESIAN_POINT('',(5.235253893778E-03,1.596092530913));
#804 = CARTESIAN_POINT('',(0.,1.570796326795));
#805 = ( GEOMETRIC_REPRESENTATION_CONTEXT(2) 
PARAMETRIC_REPRESENTATION_CONTEXT() REPRESENTATION_CONTEXT('2D SPACE',''
  ) );
#806 = PCURVE('',#161,#807);
#807 = DEFINITIONAL_REPRESENTATION('',(#808),#874);
#808 = B_SPLINE_CURVE_WITH_KNOTS('',8,(#809,#810,#811,#812,#813,#814,
    #815,#816,#817,#818,#819,#820,#821,#822,#823,#824,#825,#826,#827,
    #828,#829,#830,#831,#832,#833,#834,#835,#836,#837,#838,#839,#840,
    #841,#842,#843,#844,#845,#846,#847,#848,#849,#850,#851,#852,#853,
    #854,#855,#856,#857,#858,#859,#860,#861,#862,#863,#864,#865,#866,
    #867,#868,#869,#870,#871,#872,#873),.UNSPECIFIED.,.F.,.F.,(9,7,7,7,7
    ,7,7,7,7,9),(0.,0.282106364943,0.372287607691,0.439881487778,
    0.490917740172,0.529967101423,0.586958050887,0.673561237491,
    0.883058221396,1.),.UNSPECIFIED.);
#809 = CARTESIAN_POINT('',(0.,2.060581035099));
#810 = CARTESIAN_POINT('',(0.170748700063,2.169149745468));
#811 = CARTESIAN_POINT('',(0.345560805643,2.269835754071));
#812 = CARTESIAN_POINT('',(0.524592088773,2.362160982044));
#813 = CARTESIAN_POINT('',(0.707761090261,2.445219441984));
#814 = CARTESIAN_POINT('',(0.894717308037,2.517810826121));
#815 = CARTESIAN_POINT('',(1.084824466406,2.578231768714));
#816 = CARTESIAN_POINT('',(1.277119932769,2.624540734344));
#817 = CARTESIAN_POINT('',(1.532208868193,2.662738762022));
#818 = CARTESIAN_POINT('',(1.594060570143,2.670211019784));
#819 = CARTESIAN_POINT('',(1.655922564399,2.675798153155));
#820 = CARTESIAN_POINT('',(1.717723178608,2.679381801154));
#821 = CARTESIAN_POINT('',(1.779368317775,2.68082980101));
#822 = CARTESIAN_POINT('',(1.840740878186,2.679996280249));
#823 = CARTESIAN_POINT('',(1.901700161332,2.676721748775));
#824 = CARTESIAN_POINT('',(2.007338976691,2.666419518454));
#825 = CARTESIAN_POINT('',(2.052263645607,2.660537785247));
#826 = CARTESIAN_POINT('',(2.096785101438,2.653116347307));
#827 = CARTESIAN_POINT('',(2.140815403277,2.644079234591));
#828 = CARTESIAN_POINT('',(2.184250043818,2.633349313462));
#829 = CARTESIAN_POINT('',(2.226969130723,2.620851449103));
#830 = CARTESIAN_POINT('',(2.268838567986,2.606515667936));
#831 = CARTESIAN_POINT('',(2.340571839826,2.57802194233));
#832 = CARTESIAN_POINT('',(2.370862733233,2.564681248884));
#833 = CARTESIAN_POINT('',(2.400517791109,2.550233797984));
#834 = CARTESIAN_POINT('',(2.429465544258,2.534658979128));
#835 = CARTESIAN_POINT('',(2.457630807822,2.517942106024));
#836 = CARTESIAN_POINT('',(2.484936308408,2.500076509591));
#837 = CARTESIAN_POINT('',(2.511304311213,2.48106563096));
#838 = CARTESIAN_POINT('',(2.556057300901,2.445515003663));
#839 = CARTESIAN_POINT('',(2.574863630222,2.429442923429));
#840 = CARTESIAN_POINT('',(2.593042215958,2.4127165686));
#841 = CARTESIAN_POINT('',(2.610560123797,2.395347019157));
#842 = CARTESIAN_POINT('',(2.627386911092,2.377349028253));
#843 = CARTESIAN_POINT('',(2.643495033689,2.358741310244));
#844 = CARTESIAN_POINT('',(2.658860252752,2.339546828716));
#845 = CARTESIAN_POINT('',(2.694772756622,2.290963300843));
#846 = CARTESIAN_POINT('',(2.714461550965,2.260936475215));
#847 = CARTESIAN_POINT('',(2.732461168269,2.229801054041));
#848 = CARTESIAN_POINT('',(2.74873186235,2.197653472905));
#849 = CARTESIAN_POINT('',(2.763258279121,2.164596174747));
#850 = CARTESIAN_POINT('',(2.776046338526,2.130735628047));
#851 = CARTESIAN_POINT('',(2.787120116475,2.09618034501));
#852 = CARTESIAN_POINT('',(2.810800812074,2.007638119964));
#853 = CARTESIAN_POINT('',(2.821214368738,1.95288471555));
#854 = CARTESIAN_POINT('',(2.82790982399,1.897118034528));
#855 = CARTESIAN_POINT('',(2.831108247876,1.840639969533));
#856 = CARTESIAN_POINT('',(2.831064635112,1.783707832542));
#857 = CARTESIAN_POINT('',(2.828040268137,1.726529593269));
#858 = CARTESIAN_POINT('',(2.822284161389,1.669261481227));
#859 = CARTESIAN_POINT('',(2.794040887184,1.473509100814));
#860 = CARTESIAN_POINT('',(2.759463787392,1.335522138423));
#861 = CARTESIAN_POINT('',(2.71356373881,1.198906997723));
#862 = CARTESIAN_POINT('',(2.658610021189,1.06427533182));
#863 = CARTESIAN_POINT('',(2.596465230413,0.931942601359));
#864 = CARTESIAN_POINT('',(2.528444181821,0.801953267567));
#865 = CARTESIAN_POINT('',(2.455449780152,0.674081627608));
#866 = CARTESIAN_POINT('',(2.334658675742,0.477367337115));
#867 = CARTESIAN_POINT('',(2.29004156303,0.407508777918));
#868 = CARTESIAN_POINT('',(2.244203780418,0.338238726565));
#869 = CARTESIAN_POINT('',(2.197253310782,0.269536149419));
#870 = CARTESIAN_POINT('',(2.149283166635,0.201381060189));
#871 = CARTESIAN_POINT('',(2.100373282657,0.13375373101));
#872 = CARTESIAN_POINT('',(2.050592408237,6.663390353142E-02));
#873 = CARTESIAN_POINT('',(2.,0.));
#874 = ( GEOMETRIC_REPRESENTATION_CONTEXT(2) 
PARAMETRIC_REPRESENTATION_CONTEXT() REPRESENTATION_CONTEXT('2D SPACE',''
  ) );
#875 = ADVANCED_FACE('',(#876),#161,.F.);
#876 = FACE_BOUND('',#877,.F.);
#877 = EDGE_LOOP('',(#878,#901,#902,#903,#926));
#878 = ORIENTED_EDGE('',*,*,#879,.F.);
#879 = EDGE_CURVE('',#481,#880,#882,.T.);
#880 = VERTEX_POINT('',#881);
#881 = CARTESIAN_POINT('',(0.,10.,0.));
#882 = SURFACE_CURVE('',#883,(#887,#894),.PCURVE_S1.);
#883 = LINE('',#884,#885);
#884 = CARTESIAN_POINT('',(0.,0.,0.));
#885 = VECTOR('',#886,1.);
#886 = DIRECTION('',(-0.,1.,0.));
#887 = PCURVE('',#161,#888);
#888 = DEFINITIONAL_REPRESENTATION('',(#889),#893);
#889 = LINE('',#890,#891);
#890 = CARTESIAN_POINT('',(0.,0.));
#891 = VECTOR('',#892,1.);
#892 = DIRECTION('',(0.,1.));
#893 = ( GEOMETRIC_REPRESENTATION_CONTEXT(2) 
PARAMETRIC_REPRESENTATION_CONTEXT() REPRESENTATION_CONTEXT('2D SPACE',''
  ) );
#894 = PCURVE('',#190,#895);
#895 = DEFINITIONAL_REPRESENTATION('',(#896),#900);
#896 = LINE('',#897,#898);
#897 = CARTESIAN_POINT('',(0.,0.));
#898 = VECTOR('',#899,1.);
#899 = DIRECTION('',(0.,-1.));
#900 = ( GEOMETRIC_REPRESENTATION_CONTEXT(2) 
PARAMETRIC_REPRESENTATION_CONTEXT() REPRESENTATION_CONTEXT('2D SPACE',''
  ) );
#901 = ORIENTED_EDGE('',*,*,#669,.T.);
#902 = ORIENTED_EDGE('',*,*,#145,.T.);
#903 = ORIENTED_EDGE('',*,*,#904,.T.);
#904 = EDGE_CURVE('',#146,#905,#907,.T.);
#905 = VERTEX_POINT('',#906);
#906 = CARTESIAN_POINT('',(30.,10.,0.));
#907 = SURFACE_CURVE('',#908,(#912,#919),.PCURVE_S1.);
#908 = LINE('',#909,#910);
#909 = CARTESIAN_POINT('',(30.,0.,0.));
#910 = VECTOR('',#911,1.);
#911 = DIRECTION('',(-0.,1.,0.));
#912 = PCURVE('',#161,#913);
#913 = DEFINITIONAL_REPRESENTATION('',(#914),#918);
#914 = LINE('',#915,#916);
#915 = CARTESIAN_POINT('',(30.,0.));
#916 = VECTOR('',#917,1.);
#917 = DIRECTION('',(0.,1.));
#918 = ( GEOMETRIC_REPRESENTATION_CONTEXT(2) 
PARAMETRIC_REPRESENTATION_CONTEXT() REPRESENTATION_CONTEXT('2D SPACE',''
  ) );
#919 = PCURVE('',#244,#920);
#920 = DEFINITIONAL_REPRESENTATION('',(#921),#925);
#921 = LINE('',#922,#923);
#922 = CARTESIAN_POINT('',(0.,0.));
#923 = VECTOR('',#924,1.);
#924 = DIRECTION('',(0.,-1.));
#925 = ( GEOMETRIC_REPRESENTATION_CONTEXT(2) 
PARAMETRIC_REPRESENTATION_CONTEXT() REPRESENTATION_CONTEXT('2D SPACE',''
  ) );
#926 = ORIENTED_EDGE('',*,*,#927,.F.);
#927 = EDGE_CURVE('',#880,#905,#928,.T.);
#928 = SURFACE_CURVE('',#929,(#933,#940),.PCURVE_S1.);
#929 = LINE('',#930,#931);
#930 = CARTESIAN_POINT('',(0.,10.,0.));
#931 = VECTOR('',#932,1.);
#932 = DIRECTION('',(1.,0.,-0.));
#933 = PCURVE('',#161,#934);
#934 = DEFINITIONAL_REPRESENTATION('',(#935),#939);
#935 = LINE('',#936,#937);
#936 = CARTESIAN_POINT('',(0.,10.));
#937 = VECTOR('',#938,1.);
#938 = DIRECTION('',(1.,0.));
#939 = ( GEOMETRIC_REPRESENTATION_CONTEXT(2) 
PARAMETRIC_REPRESENTATION_CONTEXT() REPRESENTATION_CONTEXT('2D SPACE',''
  ) );
#940 = PCURVE('',#941,#946);
#941 = PLANE('',#942);
#942 = AXIS2_PLACEMENT_3D('',#943,#944,#945);
#943 = CARTESIAN_POINT('',(0.,10.,0.));
#944 = DIRECTION('',(-0.,1.,0.));
#945 = DIRECTION('',(0.,0.,1.));
#946 = DEFINITIONAL_REPRESENTATION('',(#947),#951);
#947 = LINE('',#948,#949);
#948 = CARTESIAN_POINT('',(0.,0.));
#949 = VECTOR('',#950,1.);
#950 = DIRECTION('',(0.,1.));
#951 = ( GEOMETRIC_REPRESENTATION_CONTEXT(2) 
PARAMETRIC_REPRESENTATION_CONTEXT() REPRESENTATION_CONTEXT('2D SPACE',''
  ) );
#952 = ADVANCED_FACE('',(#953),#244,.T.);
#953 = FACE_BOUND('',#954,.T.);
#954 = EDGE_LOOP('',(#955,#956,#957,#980));
#955 = ORIENTED_EDGE('',*,*,#230,.F.);
#956 = ORIENTED_EDGE('',*,*,#904,.T.);
#957 = ORIENTED_EDGE('',*,*,#958,.T.);
#958 = EDGE_CURVE('',#905,#959,#961,.T.);
#959 = VERTEX_POINT('',#960);
#960 = CARTESIAN_POINT('',(30.,10.,30.));
#961 = SURFACE_CURVE('',#962,(#966,#973),.PCURVE_S1.);
#962 = LINE('',#963,#964);
#963 = CARTESIAN_POINT('',(30.,10.,0.));
#964 = VECTOR('',#965,1.);
#965 = DIRECTION('',(0.,0.,1.));
#966 = PCURVE('',#244,#967);
#967 = DEFINITIONAL_REPRESENTATION('',(#968),#972);
#968 = LINE('',#969,#970);
#969 = CARTESIAN_POINT('',(0.,-10.));
#970 = VECTOR('',#971,1.);
#971 = DIRECTION('',(1.,0.));
#972 = ( GEOMETRIC_REPRESENTATION_CONTEXT(2) 
PARAMETRIC_REPRESENTATION_CONTEXT() REPRESENTATION_CONTEXT('2D SPACE',''
  ) );
#973 = PCURVE('',#941,#974);
#974 = DEFINITIONAL_REPRESENTATION('',(#975),#979);
#975 = LINE('',#976,#977);
#976 = CARTESIAN_POINT('',(0.,30.));
#977 = VECTOR('',#978,1.);
#978 = DIRECTION('',(1.,0.));
#979 = ( GEOMETRIC_REPRESENTATION_CONTEXT(2) 
PARAMETRIC_REPRESENTATION_CONTEXT() REPRESENTATION_CONTEXT('2D SPACE',''
  ) );
#980 = ORIENTED_EDGE('',*,*,#981,.F.);
#981 = EDGE_CURVE('',#203,#959,#982,.T.);
#982 = SURFACE_CURVE('',#983,(#987,#994),.PCURVE_S1.);
#983 = LINE('',#984,#985);
#984 = CARTESIAN_POINT('',(30.,0.,30.));
#985 = VECTOR('',#986,1.);
#986 = DIRECTION('',(-0.,1.,0.));
#987 = PCURVE('',#244,#988);
#988 = DEFINITIONAL_REPRESENTATION('',(#989),#993);
#989 = LINE('',#990,#991);
#990 = CARTESIAN_POINT('',(30.,0.));
#991 = VECTOR('',#992,1.);
#992 = DIRECTION('',(0.,-1.));
#993 = ( GEOMETRIC_REPRESENTATION_CONTEXT(2) 
PARAMETRIC_REPRESENTATION_CONTEXT() REPRESENTATION_CONTEXT('2D SPACE',''
  ) );
#994 = PCURVE('',#218,#995);
#995 = DEFINITIONAL_REPRESENTATION('',(#996),#1000);
#996 = LINE('',#997,#998);
#997 = CARTESIAN_POINT('',(30.,0.));
#998 = VECTOR('',#999,1.);
#999 = DIRECTION('',(0.,1.));
#1000 = ( GEOMETRIC_REPRESENTATION_CONTEXT(2) 
PARAMETRIC_REPRESENTATION_CONTEXT() REPRESENTATION_CONTEXT('2D SPACE',''
  ) );
#1001 = ADVANCED_FACE('',(#1002),#218,.T.);
#1002 = FACE_BOUND('',#1003,.T.);
#1003 = EDGE_LOOP('',(#1004,#1027,#1028,#1029));
#1004 = ORIENTED_EDGE('',*,*,#1005,.F.);
#1005 = EDGE_CURVE('',#175,#1006,#1008,.T.);
#1006 = VERTEX_POINT('',#1007);
#1007 = CARTESIAN_POINT('',(0.,10.,30.));
#1008 = SURFACE_CURVE('',#1009,(#1013,#1020),.PCURVE_S1.);
#1009 = LINE('',#1010,#1011);
#1010 = CARTESIAN_POINT('',(0.,0.,30.));
#1011 = VECTOR('',#1012,1.);
#1012 = DIRECTION('',(-0.,1.,0.));
#1013 = PCURVE('',#218,#1014);
#1014 = DEFINITIONAL_REPRESENTATION('',(#1015),#1019);
#1015 = LINE('',#1016,#1017);
#1016 = CARTESIAN_POINT('',(0.,0.));
#1017 = VECTOR('',#1018,1.);
#1018 = DIRECTION('',(0.,1.));
#1019 = ( GEOMETRIC_REPRESENTATION_CONTEXT(2) 
PARAMETRIC_REPRESENTATION_CONTEXT() REPRESENTATION_CONTEXT('2D SPACE',''
  ) );
#1020 = PCURVE('',#190,#1021);
#1021 = DEFINITIONAL_REPRESENTATION('',(#1022),#1026);
#1022 = LINE('',#1023,#1024);
#1023 = CARTESIAN_POINT('',(30.,0.));
#1024 = VECTOR('',#1025,1.);
#1025 = DIRECTION('',(0.,-1.));
#1026 = ( GEOMETRIC_REPRESENTATION_CONTEXT(2) 
PARAMETRIC_REPRESENTATION_CONTEXT() REPRESENTATION_CONTEXT('2D SPACE',''
  ) );
#1027 = ORIENTED_EDGE('',*,*,#202,.T.);
#1028 = ORIENTED_EDGE('',*,*,#981,.T.);
#1029 = ORIENTED_EDGE('',*,*,#1030,.F.);
#1030 = EDGE_CURVE('',#1006,#959,#1031,.T.);
#1031 = SURFACE_CURVE('',#1032,(#1036,#1043),.PCURVE_S1.);
#1032 = LINE('',#1033,#1034);
#1033 = CARTESIAN_POINT('',(0.,10.,30.));
#1034 = VECTOR('',#1035,1.);
#1035 = DIRECTION('',(1.,0.,-0.));
#1036 = PCURVE('',#218,#1037);
#1037 = DEFINITIONAL_REPRESENTATION('',(#1038),#1042);
#1038 = LINE('',#1039,#1040);
#1039 = CARTESIAN_POINT('',(0.,10.));
#1040 = VECTOR('',#1041,1.);
#1041 = DIRECTION('',(1.,0.));
#1042 = ( GEOMETRIC_REPRESENTATION_CONTEXT(2) 
PARAMETRIC_REPRESENTATION_CONTEXT() REPRESENTATION_CONTEXT('2D SPACE',''
  ) );
#1043 = PCURVE('',#941,#1044);
#1044 = DEFINITIONAL_REPRESENTATION('',(#1045),#1049);
#1045 = LINE('',#1046,#1047);
#1046 = CARTESIAN_POINT('',(30.,0.));
#1047 = VECTOR('',#1048,1.);
#1048 = DIRECTION('',(0.,1.));
#1049 = ( GEOMETRIC_REPRESENTATION_CONTEXT(2) 
PARAMETRIC_REPRESENTATION_CONTEXT() REPRESENTATION_CONTEXT('2D SPACE',''
  ) );
#1050 = ADVANCED_FACE('',(#1051),#190,.F.);
#1051 = FACE_BOUND('',#1052,.F.);
#1052 = EDGE_LOOP('',(#1053,#1054,#1055,#1056,#1077));
#1053 = ORIENTED_EDGE('',*,*,#174,.F.);
#1054 = ORIENTED_EDGE('',*,*,#480,.T.);
#1055 = ORIENTED_EDGE('',*,*,#879,.T.);
#1056 = ORIENTED_EDGE('',*,*,#1057,.T.);
#1057 = EDGE_CURVE('',#880,#1006,#1058,.T.);
#1058 = SURFACE_CURVE('',#1059,(#1063,#1070),.PCURVE_S1.);
#1059 = LINE('',#1060,#1061);
#1060 = CARTESIAN_POINT('',(0.,10.,0.));
#1061 = VECTOR('',#1062,1.);
#1062 = DIRECTION('',(0.,0.,1.));
#1063 = PCURVE('',#190,#1064);
#1064 = DEFINITIONAL_REPRESENTATION('',(#1065),#1069);
#1065 = LINE('',#1066,#1067);
#1066 = CARTESIAN_POINT('',(0.,-10.));
#1067 = VECTOR('',#1068,1.);
#1068 = DIRECTION('',(1.,0.));
#1069 = ( GEOMETRIC_REPRESENTATION_CONTEXT(2) 
PARAMETRIC_REPRESENTATION_CONTEXT() REPRESENTATION_CONTEXT('2D SPACE',''
  ) );
#1070 = PCURVE('',#941,#1071);
#1071 = DEFINITIONAL_REPRESENTATION('',(#1072),#1076);
#1072 = LINE('',#1073,#1074);
#1073 = CARTESIAN_POINT('',(0.,0.));
#1074 = VECTOR('',#1075,1.);
#1075 = DIRECTION('',(1.,0.));
#1076 = ( GEOMETRIC_REPRESENTATION_CONTEXT(2) 
PARAMETRIC_REPRESENTATION_CONTEXT() REPRESENTATION_CONTEXT('2D SPACE',''
  ) );
#1077 = ORIENTED_EDGE('',*,*,#1005,.F.);
#1078 = ADVANCED_FACE('',(#1079),#304,.F.);
#1079 = FACE_BOUND('',#1080,.F.);
#1080 = EDGE_LOOP('',(#1081,#1104,#1105));
#1081 = ORIENTED_EDGE('',*,*,#1082,.F.);
#1082 = EDGE_CURVE('',#261,#1083,#1085,.T.);
#1083 = VERTEX_POINT('',#1084);
#1084 = CARTESIAN_POINT('',(18.965814421143,-1.413386957771,
    20.965814421143));
#1085 = SURFACE_CURVE('',#1086,(#1091,#1097),.PCURVE_S1.);
#1086 = CIRCLE('',#1087,18.675593103775);
#1087 = AXIS2_PLACEMENT_3D('',#1088,#1089,#1090);
#1088 = CARTESIAN_POINT('',(9.,-13.66666666666,11.));
#1089 = DIRECTION('',(0.707106781187,0.,-0.707106781187));
#1090 = DIRECTION('',(-0.481912405672,0.731792912317,-0.481912405672));
#1091 = PCURVE('',#304,#1092);
#1092 = DEFINITIONAL_REPRESENTATION('',(#1093),#1096);
#1093 = B_SPLINE_CURVE_WITH_KNOTS('',1,(#1094,#1095),.UNSPECIFIED.,.F.,
  .F.,(2,2),(0.,1.604988567673),.PIECEWISE_BEZIER_KNOTS.);
#1094 = CARTESIAN_POINT('',(0.,6.28318530718));
#1095 = CARTESIAN_POINT('',(1.604988567673,6.28318530718));
#1096 = ( GEOMETRIC_REPRESENTATION_CONTEXT(2) 
PARAMETRIC_REPRESENTATION_CONTEXT() REPRESENTATION_CONTEXT('2D SPACE',''
  ) );
#1097 = PCURVE('',#408,#1098);
#1098 = DEFINITIONAL_REPRESENTATION('',(#1099),#1103);
#1099 = LINE('',#1100,#1101);
#1100 = CARTESIAN_POINT('',(0.,0.));
#1101 = VECTOR('',#1102,1.);
#1102 = DIRECTION('',(1.,0.));
#1103 = ( GEOMETRIC_REPRESENTATION_CONTEXT(2) 
PARAMETRIC_REPRESENTATION_CONTEXT() REPRESENTATION_CONTEXT('2D SPACE',''
  ) );
#1104 = ORIENTED_EDGE('',*,*,#258,.F.);
#1105 = ORIENTED_EDGE('',*,*,#1106,.T.);
#1106 = EDGE_CURVE('',#259,#1083,#1107,.T.);
#1107 = SURFACE_CURVE('',#1108,(#1113,#1120),.PCURVE_S1.);
#1108 = CIRCLE('',#1109,2.);
#1109 = AXIS2_PLACEMENT_3D('',#1110,#1111,#1112);
#1110 = CARTESIAN_POINT('',(20.,1.7763568394E-15,20.));
#1111 = DIRECTION('',(0.706693478885,-3.418557885665E-02,0.706693478885)
  );
#1112 = DIRECTION('',(-0.517092789428,-0.706693478885,0.482907210572));
#1113 = PCURVE('',#304,#1114);
#1114 = DEFINITIONAL_REPRESENTATION('',(#1115),#1119);
#1115 = LINE('',#1116,#1117);
#1116 = CARTESIAN_POINT('',(1.604988567673,0.));
#1117 = VECTOR('',#1118,1.);
#1118 = DIRECTION('',(0.,1.));
#1119 = ( GEOMETRIC_REPRESENTATION_CONTEXT(2) 
PARAMETRIC_REPRESENTATION_CONTEXT() REPRESENTATION_CONTEXT('2D SPACE',''
  ) );
#1120 = PCURVE('',#466,#1121);
#1121 = DEFINITIONAL_REPRESENTATION('',(#1122),#1126);
#1122 = CIRCLE('',#1123,2.);
#1123 = AXIS2_PLACEMENT_2D('',#1124,#1125);
#1124 = CARTESIAN_POINT('',(2.512147933894E-15,-1.037916711759E-16));
#1125 = DIRECTION('',(-0.707106781187,-0.707106781187));
#1126 = ( GEOMETRIC_REPRESENTATION_CONTEXT(2) 
PARAMETRIC_REPRESENTATION_CONTEXT() REPRESENTATION_CONTEXT('2D SPACE',''
  ) );
#1127 = ADVANCED_FACE('',(#1128),#466,.T.);
#1128 = FACE_BOUND('',#1129,.T.);
#1129 = EDGE_LOOP('',(#1130,#1131,#1153));
#1130 = ORIENTED_EDGE('',*,*,#1106,.T.);
#1131 = ORIENTED_EDGE('',*,*,#1132,.T.);
#1132 = EDGE_CURVE('',#1083,#335,#1133,.T.);
#1133 = SURFACE_CURVE('',#1134,(#1139,#1146),.PCURVE_S1.);
#1134 = CIRCLE('',#1135,2.);
#1135 = AXIS2_PLACEMENT_3D('',#1136,#1137,#1138);
#1136 = CARTESIAN_POINT('',(20.,1.7763568394E-15,20.));
#1137 = DIRECTION('',(0.706693478885,-3.418557885665E-02,0.706693478885)
  );
#1138 = DIRECTION('',(-0.517092789428,-0.706693478885,0.482907210572));
#1139 = PCURVE('',#466,#1140);
#1140 = DEFINITIONAL_REPRESENTATION('',(#1141),#1145);
#1141 = CIRCLE('',#1142,2.);
#1142 = AXIS2_PLACEMENT_2D('',#1143,#1144);
#1143 = CARTESIAN_POINT('',(2.512147933894E-15,-1.037916711759E-16));
#1144 = DIRECTION('',(-0.707106781187,-0.707106781187));
#1145 = ( GEOMETRIC_REPRESENTATION_CONTEXT(2) 
PARAMETRIC_REPRESENTATION_CONTEXT() REPRESENTATION_CONTEXT('2D SPACE',''
  ) );
#1146 = PCURVE('',#408,#1147);
#1147 = DEFINITIONAL_REPRESENTATION('',(#1148),#1152);
#1148 = LINE('',#1149,#1150);
#1149 = CARTESIAN_POINT('',(1.604988567673,0.));
#1150 = VECTOR('',#1151,1.);
#1151 = DIRECTION('',(0.,1.));
#1152 = ( GEOMETRIC_REPRESENTATION_CONTEXT(2) 
PARAMETRIC_REPRESENTATION_CONTEXT() REPRESENTATION_CONTEXT('2D SPACE',''
  ) );
#1153 = ORIENTED_EDGE('',*,*,#453,.F.);
#1154 = ADVANCED_FACE('',(#1155),#408,.F.);
#1155 = FACE_BOUND('',#1156,.F.);
#1156 = EDGE_LOOP('',(#1157,#1158,#1159));
#1157 = ORIENTED_EDGE('',*,*,#334,.F.);
#1158 = ORIENTED_EDGE('',*,*,#1082,.T.);
#1159 = ORIENTED_EDGE('',*,*,#1132,.T.);
#1160 = ADVANCED_FACE('',(#1161),#941,.T.);
#1161 = FACE_BOUND('',#1162,.T.);
#1162 = EDGE_LOOP('',(#1163,#1164,#1165,#1166));
#1163 = ORIENTED_EDGE('',*,*,#927,.F.);
#1164 = ORIENTED_EDGE('',*,*,#1057,.T.);
#1165 = ORIENTED_EDGE('',*,*,#1030,.T.);
#1166 = ORIENTED_EDGE('',*,*,#958,.F.);
#1167 = ( GEOMETRIC_REPRESENTATION_CONTEXT(3) 
GLOBAL_UNCERTAINTY_ASSIGNED_CONTEXT((#1171)) 
GLOBAL_UNIT_ASSIGNED_CONTEXT((#1168,#1169,#1170)) REPRESENTATION_CONTEXT
('Context #1','3D Context with UNIT and UNCERTAINTY') );
#1168 = ( LENGTH_UNIT() NAMED_UNIT(*) SI_UNIT(.MILLI.,.METRE.) );
#1169 = ( NAMED_UNIT(*) PLANE_ANGLE_UNIT() SI_UNIT($,.RADIAN.) );
#1170 = ( NAMED_UNIT(*) SI_UNIT($,.STERADIAN.) SOLID_ANGLE_UNIT() );
#1171 = UNCERTAINTY_MEASURE_WITH_UNIT(LENGTH_MEASURE(2.E-06),#1168,
  'distance_accuracy_value','confusion accuracy');
#1172 = PRODUCT_RELATED_PRODUCT_CATEGORY('part',$,(#7));
ENDSEC;
END-ISO-10303-21;
