ISO-10303-21;
HEADER;
FILE_DESCRIPTION(('Open CASCADE Model'),'2;1');
FILE_NAME('Open CASCADE Shape Model','1970-01-01T00:00:00',('Author'),(
    'Open CASCADE'),'Open CASCADE STEP processor 8.0','Open CASCADE 8.0'
  ,'Unknown');
FILE_SCHEMA((
'AP242_MANAGED_MODEL_BASED_3D_ENGINEERING_MIM_LF {1 0 10303 442 1 1 4 }'
    ));
ENDSEC;
DATA;
#1 = APPLICATION_PROTOCOL_DEFINITION('international standard',
  'ap242_managed_model_based_3d_engineering',2013,#2);
#2 = APPLICATION_CONTEXT('Managed model based 3d engineering');
#3 = SHAPE_DEFINITION_REPRESENTATION(#4,#10);
#4 = PRODUCT_DEFINITION_SHAPE('','',#5);
#5 = PRODUCT_DEFINITION('design','',#6,#9);
#6 = PRODUCT_DEFINITION_FORMATION('','',#7);
#7 = PRODUCT('Open CASCADE STEP translator 8.0',
  'Open CASCADE STEP translator 8.0','',(#8));
#8 = PRODUCT_CONTEXT('',#2,'mechanical');
#9 = PRODUCT_DEFINITION_CONTEXT('part definition',#2,'design');
#10 = ADVANCED_BREP_SHAPE_REPRESENTATION('',(#11,#15),#1670);
#11 = AXIS2_PLACEMENT_3D('',#12,#13,#14);
#12 = CARTESIAN_POINT('',(0.,0.,0.));
#13 = DIRECTION('',(0.,0.,1.));
#14 = DIRECTION('',(1.,0.,-0.));
#15 = MANIFOLD_SOLID_BREP('',#16);
#16 = CLOSED_SHELL('',(#17,#260,#456,#617,#752,#834,#1210,#1252,#1325,
    #1331,#1386,#1441,#1468,#1523,#1578,#1627,#1654,#1658,#1662,#1666));
#17 = ADVANCED_FACE('',(#18,#229),#32,.F.);
#18 = FACE_BOUND('',#19,.F.);
#19 = EDGE_LOOP('',(#20,#55,#83,#106,#134,#157,#185,#208));
#20 = ORIENTED_EDGE('',*,*,#21,.F.);
#21 = EDGE_CURVE('',#22,#24,#26,.T.);
#22 = VERTEX_POINT('',#23);
#23 = CARTESIAN_POINT('',(0.,0.,0.));
#24 = VERTEX_POINT('',#25);
#25 = CARTESIAN_POINT('',(0.,0.,15.));
#26 = SURFACE_CURVE('',#27,(#31,#43),.PCURVE_S1.);
#27 = LINE('',#28,#29);
#28 = CARTESIAN_POINT('',(0.,0.,0.));
#29 = VECTOR('',#30,1.);
#30 = DIRECTION('',(0.,0.,1.));
#31 = PCURVE('',#32,#37);
#32 = PLANE('',#33);
#33 = AXIS2_PLACEMENT_3D('',#34,#35,#36);
#34 = CARTESIAN_POINT('',(0.,0.,0.));
#35 = DIRECTION('',(1.,0.,-0.));
#36 = DIRECTION('',(0.,0.,1.));
#37 = DEFINITIONAL_REPRESENTATION('',(#38),#42);
#38 = LINE('',#39,#40);
#39 = CARTESIAN_POINT('',(0.,0.));
#40 = VECTOR('',#41,1.);
#41 = DIRECTION('',(1.,0.));
#42 = ( GEOMETRIC_REPRESENTATION_CONTEXT(2) 
PARAMETRIC_REPRESENTATION_CONTEXT() REPRESENTATION_CONTEXT('2D SPACE',''
  ) );
#43 = PCURVE('',#44,#49);
#44 = PLANE('',#45);
#45 = AXIS2_PLACEMENT_3D('',#46,#47,#48);
#46 = CARTESIAN_POINT('',(0.,0.,0.));
#47 = DIRECTION('',(-0.,1.,0.));
#48 = DIRECTION('',(0.,0.,1.));
#49 = DEFINITIONAL_REPRESENTATION('',(#50),#54);
#50 = LINE('',#51,#52);
#51 = CARTESIAN_POINT('',(0.,0.));
#52 = VECTOR('',#53,1.);
#53 = DIRECTION('',(1.,0.));
#54 = ( GEOMETRIC_REPRESENTATION_CONTEXT(2) 
PARAMETRIC_REPRESENTATION_CONTEXT() REPRESENTATION_CONTEXT('2D SPACE',''
  ) );
#55 = ORIENTED_EDGE('',*,*,#56,.T.);
#56 = EDGE_CURVE('',#22,#57,#59,.T.);
#57 = VERTEX_POINT('',#58);
#58 = CARTESIAN_POINT('',(0.,15.,0.));
#59 = SURFACE_CURVE('',#60,(#64,#71),.PCURVE_S1.);
#60 = LINE('',#61,#62);
#61 = CARTESIAN_POINT('',(0.,0.,0.));
#62 = VECTOR('',#63,1.);
#63 = DIRECTION('',(-0.,1.,0.));
#64 = PCURVE('',#32,#65);
#65 = DEFINITIONAL_REPRESENTATION('',(#66),#70);
#66 = LINE('',#67,#68);
#67 = CARTESIAN_POINT('',(0.,0.));
#68 = VECTOR('',#69,1.);
#69 = DIRECTION('',(0.,-1.));
#70 = ( GEOMETRIC_REPRESENTATION_CONTEXT(2) 
PARAMETRIC_REPRESENTATION_CONTEXT() REPRESENTATION_CONTEXT('2D SPACE',''
  ) );
#71 = PCURVE('',#72,#77);
#72 = PLANE('',#73);
#73 = AXIS2_PLACEMENT_3D('',#74,#75,#76);
#74 = CARTESIAN_POINT('',(0.,0.,0.));
#75 = DIRECTION('',(0.,0.,1.));
#76 = DIRECTION('',(1.,0.,-0.));
#77 = DEFINITIONAL_REPRESENTATION('',(#78),#82);
#78 = LINE('',#79,#80);
#79 = CARTESIAN_POINT('',(0.,0.));
#80 = VECTOR('',#81,1.);
#81 = DIRECTION('',(0.,1.));
#82 = ( GEOMETRIC_REPRESENTATION_CONTEXT(2) 
PARAMETRIC_REPRESENTATION_CONTEXT() REPRESENTATION_CONTEXT('2D SPACE',''
  ) );
#83 = ORIENTED_EDGE('',*,*,#84,.T.);
#84 = EDGE_CURVE('',#57,#85,#87,.T.);
#85 = VERTEX_POINT('',#86);
#86 = CARTESIAN_POINT('',(0.,30.,0.));
#87 = SURFACE_CURVE('',#88,(#92,#99),.PCURVE_S1.);
#88 = LINE('',#89,#90);
#89 = CARTESIAN_POINT('',(0.,0.,0.));
#90 = VECTOR('',#91,1.);
#91 = DIRECTION('',(-0.,1.,0.));
#92 = PCURVE('',#32,#93);
#93 = DEFINITIONAL_REPRESENTATION('',(#94),#98);
#94 = LINE('',#95,#96);
#95 = CARTESIAN_POINT('',(0.,0.));
#96 = VECTOR('',#97,1.);
#97 = DIRECTION('',(0.,-1.));
#98 = ( GEOMETRIC_REPRESENTATION_CONTEXT(2) 
PARAMETRIC_REPRESENTATION_CONTEXT() REPRESENTATION_CONTEXT('2D SPACE',''
  ) );
#99 = PCURVE('',#72,#100);
#100 = DEFINITIONAL_REPRESENTATION('',(#101),#105);
#101 = LINE('',#102,#103);
#102 = CARTESIAN_POINT('',(0.,0.));
#103 = VECTOR('',#104,1.);
#104 = DIRECTION('',(0.,1.));
#105 = ( GEOMETRIC_REPRESENTATION_CONTEXT(2) 
PARAMETRIC_REPRESENTATION_CONTEXT() REPRESENTATION_CONTEXT('2D SPACE',''
  ) );
#106 = ORIENTED_EDGE('',*,*,#107,.T.);
#107 = EDGE_CURVE('',#85,#108,#110,.T.);
#108 = VERTEX_POINT('',#109);
#109 = CARTESIAN_POINT('',(0.,30.,15.));
#110 = SURFACE_CURVE('',#111,(#115,#122),.PCURVE_S1.);
#111 = LINE('',#112,#113);
#112 = CARTESIAN_POINT('',(0.,30.,0.));
#113 = VECTOR('',#114,1.);
#114 = DIRECTION('',(0.,0.,1.));
#115 = PCURVE('',#32,#116);
#116 = DEFINITIONAL_REPRESENTATION('',(#117),#121);
#117 = LINE('',#118,#119);
#118 = CARTESIAN_POINT('',(0.,-30.));
#119 = VECTOR('',#120,1.);
#120 = DIRECTION('',(1.,0.));
#121 = ( GEOMETRIC_REPRESENTATION_CONTEXT(2) 
PARAMETRIC_REPRESENTATION_CONTEXT() REPRESENTATION_CONTEXT('2D SPACE',''
  ) );
#122 = PCURVE('',#123,#128);
#123 = PLANE('',#124);
#124 = AXIS2_PLACEMENT_3D('',#125,#126,#127);
#125 = CARTESIAN_POINT('',(0.,30.,0.));
#126 = DIRECTION('',(-0.,1.,0.));
#127 = DIRECTION('',(0.,0.,1.));
#128 = DEFINITIONAL_REPRESENTATION('',(#129),#133);
#129 = LINE('',#130,#131);
#130 = CARTESIAN_POINT('',(0.,0.));
#131 = VECTOR('',#132,1.);
#132 = DIRECTION('',(1.,0.));
#133 = ( GEOMETRIC_REPRESENTATION_CONTEXT(2) 
PARAMETRIC_REPRESENTATION_CONTEXT() REPRESENTATION_CONTEXT('2D SPACE',''
  ) );
#134 = ORIENTED_EDGE('',*,*,#135,.T.);
#135 = EDGE_CURVE('',#108,#136,#138,.T.);
#136 = VERTEX_POINT('',#137);
#137 = CARTESIAN_POINT('',(0.,30.,30.));
#138 = SURFACE_CURVE('',#139,(#143,#150),.PCURVE_S1.);
#139 = LINE('',#140,#141);
#140 = CARTESIAN_POINT('',(0.,30.,0.));
#141 = VECTOR('',#142,1.);
#142 = DIRECTION('',(0.,0.,1.));
#143 = PCURVE('',#32,#144);
#144 = DEFINITIONAL_REPRESENTATION('',(#145),#149);
#145 = LINE('',#146,#147);
#146 = CARTESIAN_POINT('',(0.,-30.));
#147 = VECTOR('',#148,1.);
#148 = DIRECTION('',(1.,0.));
#149 = ( GEOMETRIC_REPRESENTATION_CONTEXT(2) 
PARAMETRIC_REPRESENTATION_CONTEXT() REPRESENTATION_CONTEXT('2D SPACE',''
  ) );
#150 = PCURVE('',#123,#151);
#151 = DEFINITIONAL_REPRESENTATION('',(#152),#156);
#152 = LINE('',#153,#154);
#153 = CARTESIAN_POINT('',(0.,0.));
#154 = VECTOR('',#155,1.);
#155 = DIRECTION('',(1.,0.));
#156 = ( GEOMETRIC_REPRESENTATION_CONTEXT(2) 
PARAMETRIC_REPRESENTATION_CONTEXT() REPRESENTATION_CONTEXT('2D SPACE',''
  ) );
#157 = ORIENTED_EDGE('',*,*,#158,.F.);
#158 = EDGE_CURVE('',#159,#136,#161,.T.);
#159 = VERTEX_POINT('',#160);
#160 = CARTESIAN_POINT('',(0.,15.,30.));
#161 = SURFACE_CURVE('',#162,(#166,#173),.PCURVE_S1.);
#162 = LINE('',#163,#164);
#163 = CARTESIAN_POINT('',(0.,0.,30.));
#164 = VECTOR('',#165,1.);
#165 = DIRECTION('',(-0.,1.,0.));
#166 = PCURVE('',#32,#167);
#167 = DEFINITIONAL_REPRESENTATION('',(#168),#172);
#168 = LINE('',#169,#170);
#169 = CARTESIAN_POINT('',(30.,0.));
#170 = VECTOR('',#171,1.);
#171 = DIRECTION('',(0.,-1.));
#172 = ( GEOMETRIC_REPRESENTATION_CONTEXT(2) 
PARAMETRIC_REPRESENTATION_CONTEXT() REPRESENTATION_CONTEXT('2D SPACE',''
  ) );
#173 = PCURVE('',#174,#179);
#174 = PLANE('',#175);
#175 = AXIS2_PLACEMENT_3D('',#176,#177,#178);
#176 = CARTESIAN_POINT('',(0.,0.,30.));
#177 = DIRECTION('',(0.,0.,1.));
#178 = DIRECTION('',(1.,0.,-0.));
#179 = DEFINITIONAL_REPRESENTATION('',(#180),#184);
#180 = LINE('',#181,#182);
#181 = CARTESIAN_POINT('',(0.,0.));
#182 = VECTOR('',#183,1.);
#183 = DIRECTION('',(0.,1.));
#184 = ( GEOMETRIC_REPRESENTATION_CONTEXT(2) 
PARAMETRIC_REPRESENTATION_CONTEXT() REPRESENTATION_CONTEXT('2D SPACE',''
  ) );
#185 = ORIENTED_EDGE('',*,*,#186,.F.);
#186 = EDGE_CURVE('',#187,#159,#189,.T.);
#187 = VERTEX_POINT('',#188);
#188 = CARTESIAN_POINT('',(0.,0.,30.));
#189 = SURFACE_CURVE('',#190,(#194,#201),.PCURVE_S1.);
#190 = LINE('',#191,#192);
#191 = CARTESIAN_POINT('',(0.,0.,30.));
#192 = VECTOR('',#193,1.);
#193 = DIRECTION('',(-0.,1.,0.));
#194 = PCURVE('',#32,#195);
#195 = DEFINITIONAL_REPRESENTATION('',(#196),#200);
#196 = LINE('',#197,#198);
#197 = CARTESIAN_POINT('',(30.,0.));
#198 = VECTOR('',#199,1.);
#199 = DIRECTION('',(0.,-1.));
#200 = ( GEOMETRIC_REPRESENTATION_CONTEXT(2) 
PARAMETRIC_REPRESENTATION_CONTEXT() REPRESENTATION_CONTEXT('2D SPACE',''
  ) );
#201 = PCURVE('',#174,#202);
#202 = DEFINITIONAL_REPRESENTATION('',(#203),#207);
#203 = LINE('',#204,#205);
#204 = CARTESIAN_POINT('',(0.,0.));
#205 = VECTOR('',#206,1.);
#206 = DIRECTION('',(0.,1.));
#207 = ( GEOMETRIC_REPRESENTATION_CONTEXT(2) 
PARAMETRIC_REPRESENTATION_CONTEXT() REPRESENTATION_CONTEXT('2D SPACE',''
  ) );
#208 = ORIENTED_EDGE('',*,*,#209,.F.);
#209 = EDGE_CURVE('',#24,#187,#210,.T.);
#210 = SURFACE_CURVE('',#211,(#215,#222),.PCURVE_S1.);
#211 = LINE('',#212,#213);
#212 = CARTESIAN_POINT('',(0.,0.,0.));
#213 = VECTOR('',#214,1.);
#214 = DIRECTION('',(0.,0.,1.));
#215 = PCURVE('',#32,#216);
#216 = DEFINITIONAL_REPRESENTATION('',(#217),#221);
#217 = LINE('',#218,#219);
#218 = CARTESIAN_POINT('',(0.,0.));
#219 = VECTOR('',#220,1.);
#220 = DIRECTION('',(1.,0.));
#221 = ( GEOMETRIC_REPRESENTATION_CONTEXT(2) 
PARAMETRIC_REPRESENTATION_CONTEXT() REPRESENTATION_CONTEXT('2D SPACE',''
  ) );
#222 = PCURVE('',#44,#223);
#223 = DEFINITIONAL_REPRESENTATION('',(#224),#228);
#224 = LINE('',#225,#226);
#225 = CARTESIAN_POINT('',(0.,0.));
#226 = VECTOR('',#227,1.);
#227 = DIRECTION('',(1.,0.));
#228 = ( GEOMETRIC_REPRESENTATION_CONTEXT(2) 
PARAMETRIC_REPRESENTATION_CONTEXT() REPRESENTATION_CONTEXT('2D SPACE',''
  ) );
#229 = FACE_BOUND('',#230,.F.);
#230 = EDGE_LOOP('',(#231));
#231 = ORIENTED_EDGE('',*,*,#232,.F.);
#232 = EDGE_CURVE('',#233,#233,#235,.T.);
#233 = VERTEX_POINT('',#234);
#234 = CARTESIAN_POINT('',(0.,15.,7.));
#235 = SURFACE_CURVE('',#236,(#241,#248),.PCURVE_S1.);
#236 = CIRCLE('',#237,8.);
#237 = AXIS2_PLACEMENT_3D('',#238,#239,#240);
#238 = CARTESIAN_POINT('',(0.,15.,15.));
#239 = DIRECTION('',(1.,0.,1.110223024625E-16));
#240 = DIRECTION('',(1.110223024625E-16,0.,-1.));
#241 = PCURVE('',#32,#242);
#242 = DEFINITIONAL_REPRESENTATION('',(#243),#247);
#243 = CIRCLE('',#244,8.);
#244 = AXIS2_PLACEMENT_2D('',#245,#246);
#245 = CARTESIAN_POINT('',(15.,-15.));
#246 = DIRECTION('',(-1.,0.));
#247 = ( GEOMETRIC_REPRESENTATION_CONTEXT(2) 
PARAMETRIC_REPRESENTATION_CONTEXT() REPRESENTATION_CONTEXT('2D SPACE',''
  ) );
#248 = PCURVE('',#249,#254);
#249 = CYLINDRICAL_SURFACE('',#250,8.);
#250 = AXIS2_PLACEMENT_3D('',#251,#252,#253);
#251 = CARTESIAN_POINT('',(-5.,15.,15.));
#252 = DIRECTION('',(1.,0.,1.110223024625E-16));
#253 = DIRECTION('',(1.110223024625E-16,0.,-1.));
#254 = DEFINITIONAL_REPRESENTATION('',(#255),#259);
#255 = LINE('',#256,#257);
#256 = CARTESIAN_POINT('',(0.,5.));
#257 = VECTOR('',#258,1.);
#258 = DIRECTION('',(1.,0.));
#259 = ( GEOMETRIC_REPRESENTATION_CONTEXT(2) 
PARAMETRIC_REPRESENTATION_CONTEXT() REPRESENTATION_CONTEXT('2D SPACE',''
  ) );
#260 = ADVANCED_FACE('',(#261,#360,#421),#44,.F.);
#261 = FACE_BOUND('',#262,.F.);
#262 = EDGE_LOOP('',(#263,#293,#314,#315,#316,#339));
#263 = ORIENTED_EDGE('',*,*,#264,.F.);
#264 = EDGE_CURVE('',#265,#267,#269,.T.);
#265 = VERTEX_POINT('',#266);
#266 = CARTESIAN_POINT('',(90.,0.,0.));
#267 = VERTEX_POINT('',#268);
#268 = CARTESIAN_POINT('',(90.,0.,15.));
#269 = SURFACE_CURVE('',#270,(#274,#281),.PCURVE_S1.);
#270 = LINE('',#271,#272);
#271 = CARTESIAN_POINT('',(90.,0.,0.));
#272 = VECTOR('',#273,1.);
#273 = DIRECTION('',(0.,0.,1.));
#274 = PCURVE('',#44,#275);
#275 = DEFINITIONAL_REPRESENTATION('',(#276),#280);
#276 = LINE('',#277,#278);
#277 = CARTESIAN_POINT('',(0.,90.));
#278 = VECTOR('',#279,1.);
#279 = DIRECTION('',(1.,0.));
#280 = ( GEOMETRIC_REPRESENTATION_CONTEXT(2) 
PARAMETRIC_REPRESENTATION_CONTEXT() REPRESENTATION_CONTEXT('2D SPACE',''
  ) );
#281 = PCURVE('',#282,#287);
#282 = PLANE('',#283);
#283 = AXIS2_PLACEMENT_3D('',#284,#285,#286);
#284 = CARTESIAN_POINT('',(90.,0.,0.));
#285 = DIRECTION('',(1.,0.,-0.));
#286 = DIRECTION('',(0.,0.,1.));
#287 = DEFINITIONAL_REPRESENTATION('',(#288),#292);
#288 = LINE('',#289,#290);
#289 = CARTESIAN_POINT('',(0.,0.));
#290 = VECTOR('',#291,1.);
#291 = DIRECTION('',(1.,0.));
#292 = ( GEOMETRIC_REPRESENTATION_CONTEXT(2) 
PARAMETRIC_REPRESENTATION_CONTEXT() REPRESENTATION_CONTEXT('2D SPACE',''
  ) );
#293 = ORIENTED_EDGE('',*,*,#294,.F.);
#294 = EDGE_CURVE('',#22,#265,#295,.T.);
#295 = SURFACE_CURVE('',#296,(#300,#307),.PCURVE_S1.);
#296 = LINE('',#297,#298);
#297 = CARTESIAN_POINT('',(0.,0.,0.));
#298 = VECTOR('',#299,1.);
#299 = DIRECTION('',(1.,0.,-0.));
#300 = PCURVE('',#44,#301);
#301 = DEFINITIONAL_REPRESENTATION('',(#302),#306);
#302 = LINE('',#303,#304);
#303 = CARTESIAN_POINT('',(0.,0.));
#304 = VECTOR('',#305,1.);
#305 = DIRECTION('',(0.,1.));
#306 = ( GEOMETRIC_REPRESENTATION_CONTEXT(2) 
PARAMETRIC_REPRESENTATION_CONTEXT() REPRESENTATION_CONTEXT('2D SPACE',''
  ) );
#307 = PCURVE('',#72,#308);
#308 = DEFINITIONAL_REPRESENTATION('',(#309),#313);
#309 = LINE('',#310,#311);
#310 = CARTESIAN_POINT('',(0.,0.));
#311 = VECTOR('',#312,1.);
#312 = DIRECTION('',(1.,0.));
#313 = ( GEOMETRIC_REPRESENTATION_CONTEXT(2) 
PARAMETRIC_REPRESENTATION_CONTEXT() REPRESENTATION_CONTEXT('2D SPACE',''
  ) );
#314 = ORIENTED_EDGE('',*,*,#21,.T.);
#315 = ORIENTED_EDGE('',*,*,#209,.T.);
#316 = ORIENTED_EDGE('',*,*,#317,.T.);
#317 = EDGE_CURVE('',#187,#318,#320,.T.);
#318 = VERTEX_POINT('',#319);
#319 = CARTESIAN_POINT('',(90.,0.,30.));
#320 = SURFACE_CURVE('',#321,(#325,#332),.PCURVE_S1.);
#321 = LINE('',#322,#323);
#322 = CARTESIAN_POINT('',(0.,0.,30.));
#323 = VECTOR('',#324,1.);
#324 = DIRECTION('',(1.,0.,-0.));
#325 = PCURVE('',#44,#326);
#326 = DEFINITIONAL_REPRESENTATION('',(#327),#331);
#327 = LINE('',#328,#329);
#328 = CARTESIAN_POINT('',(30.,0.));
#329 = VECTOR('',#330,1.);
#330 = DIRECTION('',(0.,1.));
#331 = ( GEOMETRIC_REPRESENTATION_CONTEXT(2) 
PARAMETRIC_REPRESENTATION_CONTEXT() REPRESENTATION_CONTEXT('2D SPACE',''
  ) );
#332 = PCURVE('',#174,#333);
#333 = DEFINITIONAL_REPRESENTATION('',(#334),#338);
#334 = LINE('',#335,#336);
#335 = CARTESIAN_POINT('',(0.,0.));
#336 = VECTOR('',#337,1.);
#337 = DIRECTION('',(1.,0.));
#338 = ( GEOMETRIC_REPRESENTATION_CONTEXT(2) 
PARAMETRIC_REPRESENTATION_CONTEXT() REPRESENTATION_CONTEXT('2D SPACE',''
  ) );
#339 = ORIENTED_EDGE('',*,*,#340,.F.);
#340 = EDGE_CURVE('',#267,#318,#341,.T.);
#341 = SURFACE_CURVE('',#342,(#346,#353),.PCURVE_S1.);
#342 = LINE('',#343,#344);
#343 = CARTESIAN_POINT('',(90.,0.,0.));
#344 = VECTOR('',#345,1.);
#345 = DIRECTION('',(0.,0.,1.));
#346 = PCURVE('',#44,#347);
#347 = DEFINITIONAL_REPRESENTATION('',(#348),#352);
#348 = LINE('',#349,#350);
#349 = CARTESIAN_POINT('',(0.,90.));
#350 = VECTOR('',#351,1.);
#351 = DIRECTION('',(1.,0.));
#352 = ( GEOMETRIC_REPRESENTATION_CONTEXT(2) 
PARAMETRIC_REPRESENTATION_CONTEXT() REPRESENTATION_CONTEXT('2D SPACE',''
  ) );
#353 = PCURVE('',#282,#354);
#354 = DEFINITIONAL_REPRESENTATION('',(#355),#359);
#355 = LINE('',#356,#357);
#356 = CARTESIAN_POINT('',(0.,0.));
#357 = VECTOR('',#358,1.);
#358 = DIRECTION('',(1.,0.));
#359 = ( GEOMETRIC_REPRESENTATION_CONTEXT(2) 
PARAMETRIC_REPRESENTATION_CONTEXT() REPRESENTATION_CONTEXT('2D SPACE',''
  ) );
#360 = FACE_BOUND('',#361,.F.);
#361 = EDGE_LOOP('',(#362,#397));
#362 = ORIENTED_EDGE('',*,*,#363,.F.);
#363 = EDGE_CURVE('',#364,#366,#368,.T.);
#364 = VERTEX_POINT('',#365);
#365 = CARTESIAN_POINT('',(70.816496580928,4.440892098501E-16,
    15.207259421637));
#366 = VERTEX_POINT('',#367);
#367 = CARTESIAN_POINT('',(69.183503419072,4.440892098501E-16,
    15.207259421637));
#368 = SURFACE_CURVE('',#369,(#374,#381),.PCURVE_S1.);
#369 = ELLIPSE('',#370,6.,3.);
#370 = AXIS2_PLACEMENT_3D('',#371,#372,#373);
#371 = CARTESIAN_POINT('',(70.,0.,20.980762113533));
#372 = DIRECTION('',(-0.,1.,0.));
#373 = DIRECTION('',(0.,0.,1.));
#374 = PCURVE('',#44,#375);
#375 = DEFINITIONAL_REPRESENTATION('',(#376),#380);
#376 = ELLIPSE('',#377,6.,3.);
#377 = AXIS2_PLACEMENT_2D('',#378,#379);
#378 = CARTESIAN_POINT('',(20.980762113533,70.));
#379 = DIRECTION('',(1.,0.));
#380 = ( GEOMETRIC_REPRESENTATION_CONTEXT(2) 
PARAMETRIC_REPRESENTATION_CONTEXT() REPRESENTATION_CONTEXT('2D SPACE',''
  ) );
#381 = PCURVE('',#382,#387);
#382 = CYLINDRICAL_SURFACE('',#383,3.);
#383 = AXIS2_PLACEMENT_3D('',#384,#385,#386);
#384 = CARTESIAN_POINT('',(70.,15.,-5.));
#385 = DIRECTION('',(0.,-0.5,0.866025403784));
#386 = DIRECTION('',(1.,0.,0.));
#387 = DEFINITIONAL_REPRESENTATION('',(#388),#396);
#388 = B_SPLINE_CURVE_WITH_KNOTS('',6,(#389,#390,#391,#392,#393,#394,
    #395),.UNSPECIFIED.,.F.,.F.,(7,7),(2.86594943011,3.41723587707),
  .PIECEWISE_BEZIER_KNOTS.);
#389 = CARTESIAN_POINT('',(4.988032203865,25.0000006));
#390 = CARTESIAN_POINT('',(4.896151129371,24.870060943417));
#391 = CARTESIAN_POINT('',(4.804270054878,24.790774074167));
#392 = CARTESIAN_POINT('',(4.712388980385,24.764114510412));
#393 = CARTESIAN_POINT('',(4.620507905891,24.790774074167));
#394 = CARTESIAN_POINT('',(4.528626831398,24.870060943417));
#395 = CARTESIAN_POINT('',(4.436745756905,25.0000006));
#396 = ( GEOMETRIC_REPRESENTATION_CONTEXT(2) 
PARAMETRIC_REPRESENTATION_CONTEXT() REPRESENTATION_CONTEXT('2D SPACE',''
  ) );
#397 = ORIENTED_EDGE('',*,*,#398,.F.);
#398 = EDGE_CURVE('',#366,#364,#399,.T.);
#399 = SURFACE_CURVE('',#400,(#404,#410),.PCURVE_S1.);
#400 = LINE('',#401,#402);
#401 = CARTESIAN_POINT('',(35.,-2.22044604925E-16,15.207259421637));
#402 = VECTOR('',#403,1.);
#403 = DIRECTION('',(1.,0.,0.));
#404 = PCURVE('',#44,#405);
#405 = DEFINITIONAL_REPRESENTATION('',(#406),#409);
#406 = B_SPLINE_CURVE_WITH_KNOTS('',1,(#407,#408),.UNSPECIFIED.,.F.,.F.,
  (2,2),(32.,38.),.PIECEWISE_BEZIER_KNOTS.);
#407 = CARTESIAN_POINT('',(15.207259421637,67.));
#408 = CARTESIAN_POINT('',(15.207259421637,73.));
#409 = ( GEOMETRIC_REPRESENTATION_CONTEXT(2) 
PARAMETRIC_REPRESENTATION_CONTEXT() REPRESENTATION_CONTEXT('2D SPACE',''
  ) );
#410 = PCURVE('',#411,#416);
#411 = PLANE('',#412);
#412 = AXIS2_PLACEMENT_3D('',#413,#414,#415);
#413 = CARTESIAN_POINT('',(70.,2.5,16.650635094611));
#414 = DIRECTION('',(0.,-0.5,0.866025403784));
#415 = DIRECTION('',(1.,0.,0.));
#416 = DEFINITIONAL_REPRESENTATION('',(#417),#420);
#417 = B_SPLINE_CURVE_WITH_KNOTS('',1,(#418,#419),.UNSPECIFIED.,.F.,.F.,
  (2,2),(32.,38.),.PIECEWISE_BEZIER_KNOTS.);
#418 = CARTESIAN_POINT('',(-3.,-2.886751345948));
#419 = CARTESIAN_POINT('',(3.,-2.886751345948));
#420 = ( GEOMETRIC_REPRESENTATION_CONTEXT(2) 
PARAMETRIC_REPRESENTATION_CONTEXT() REPRESENTATION_CONTEXT('2D SPACE',''
  ) );
#421 = FACE_BOUND('',#422,.F.);
#422 = EDGE_LOOP('',(#423));
#423 = ORIENTED_EDGE('',*,*,#424,.T.);
#424 = EDGE_CURVE('',#267,#425,#427,.T.);
#425 = VERTEX_POINT('',#426);
#426 = CARTESIAN_POINT('',(90.,0.,15.));
#427 = SURFACE_CURVE('',#428,(#433,#444),.PCURVE_S1.);
#428 = CIRCLE('',#429,2.);
#429 = AXIS2_PLACEMENT_3D('',#430,#431,#432);
#430 = CARTESIAN_POINT('',(88.,0.,15.));
#431 = DIRECTION('',(0.,-1.,1.110223024625E-16));
#432 = DIRECTION('',(1.,0.,0.));
#433 = PCURVE('',#44,#434);
#434 = DEFINITIONAL_REPRESENTATION('',(#435),#443);
#435 = ( BOUNDED_CURVE() B_SPLINE_CURVE(2,(#436,#437,#438,#439,#440,#441
,#442),.UNSPECIFIED.,.T.,.F.) B_SPLINE_CURVE_WITH_KNOTS((1,2,2,2,2,1),(
    -2.094395102393,0.,2.094395102393,4.188790204786,6.28318530718,
8.377580409573),.UNSPECIFIED.) CURVE() GEOMETRIC_REPRESENTATION_ITEM() 
RATIONAL_B_SPLINE_CURVE((1.,0.5,1.,0.5,1.,0.5,1.)) REPRESENTATION_ITEM(
  '') );
#436 = CARTESIAN_POINT('',(15.,90.));
#437 = CARTESIAN_POINT('',(18.464101615138,90.));
#438 = CARTESIAN_POINT('',(16.732050807569,87.));
#439 = CARTESIAN_POINT('',(15.,84.));
#440 = CARTESIAN_POINT('',(13.267949192431,87.));
#441 = CARTESIAN_POINT('',(11.535898384862,90.));
#442 = CARTESIAN_POINT('',(15.,90.));
#443 = ( GEOMETRIC_REPRESENTATION_CONTEXT(2) 
PARAMETRIC_REPRESENTATION_CONTEXT() REPRESENTATION_CONTEXT('2D SPACE',''
  ) );
#444 = PCURVE('',#445,#450);
#445 = CYLINDRICAL_SURFACE('',#446,2.);
#446 = AXIS2_PLACEMENT_3D('',#447,#448,#449);
#447 = CARTESIAN_POINT('',(88.,4.,15.));
#448 = DIRECTION('',(0.,-1.,1.110223024625E-16));
#449 = DIRECTION('',(1.,0.,0.));
#450 = DEFINITIONAL_REPRESENTATION('',(#451),#455);
#451 = LINE('',#452,#453);
#452 = CARTESIAN_POINT('',(0.,4.));
#453 = VECTOR('',#454,1.);
#454 = DIRECTION('',(1.,0.));
#455 = ( GEOMETRIC_REPRESENTATION_CONTEXT(2) 
PARAMETRIC_REPRESENTATION_CONTEXT() REPRESENTATION_CONTEXT('2D SPACE',''
  ) );
#456 = ADVANCED_FACE('',(#457,#529,#582),#72,.F.);
#457 = FACE_BOUND('',#458,.F.);
#458 = EDGE_LOOP('',(#459,#460,#461,#484,#507,#528));
#459 = ORIENTED_EDGE('',*,*,#56,.F.);
#460 = ORIENTED_EDGE('',*,*,#294,.T.);
#461 = ORIENTED_EDGE('',*,*,#462,.T.);
#462 = EDGE_CURVE('',#265,#463,#465,.T.);
#463 = VERTEX_POINT('',#464);
#464 = CARTESIAN_POINT('',(90.,15.,0.));
#465 = SURFACE_CURVE('',#466,(#470,#477),.PCURVE_S1.);
#466 = LINE('',#467,#468);
#467 = CARTESIAN_POINT('',(90.,0.,0.));
#468 = VECTOR('',#469,1.);
#469 = DIRECTION('',(-0.,1.,0.));
#470 = PCURVE('',#72,#471);
#471 = DEFINITIONAL_REPRESENTATION('',(#472),#476);
#472 = LINE('',#473,#474);
#473 = CARTESIAN_POINT('',(90.,0.));
#474 = VECTOR('',#475,1.);
#475 = DIRECTION('',(0.,1.));
#476 = ( GEOMETRIC_REPRESENTATION_CONTEXT(2) 
PARAMETRIC_REPRESENTATION_CONTEXT() REPRESENTATION_CONTEXT('2D SPACE',''
  ) );
#477 = PCURVE('',#282,#478);
#478 = DEFINITIONAL_REPRESENTATION('',(#479),#483);
#479 = LINE('',#480,#481);
#480 = CARTESIAN_POINT('',(0.,0.));
#481 = VECTOR('',#482,1.);
#482 = DIRECTION('',(0.,-1.));
#483 = ( GEOMETRIC_REPRESENTATION_CONTEXT(2) 
PARAMETRIC_REPRESENTATION_CONTEXT() REPRESENTATION_CONTEXT('2D SPACE',''
  ) );
#484 = ORIENTED_EDGE('',*,*,#485,.T.);
#485 = EDGE_CURVE('',#463,#486,#488,.T.);
#486 = VERTEX_POINT('',#487);
#487 = CARTESIAN_POINT('',(90.,30.,0.));
#488 = SURFACE_CURVE('',#489,(#493,#500),.PCURVE_S1.);
#489 = LINE('',#490,#491);
#490 = CARTESIAN_POINT('',(90.,0.,0.));
#491 = VECTOR('',#492,1.);
#492 = DIRECTION('',(-0.,1.,0.));
#493 = PCURVE('',#72,#494);
#494 = DEFINITIONAL_REPRESENTATION('',(#495),#499);
#495 = LINE('',#496,#497);
#496 = CARTESIAN_POINT('',(90.,0.));
#497 = VECTOR('',#498,1.);
#498 = DIRECTION('',(0.,1.));
#499 = ( GEOMETRIC_REPRESENTATION_CONTEXT(2) 
PARAMETRIC_REPRESENTATION_CONTEXT() REPRESENTATION_CONTEXT('2D SPACE',''
  ) );
#500 = PCURVE('',#282,#501);
#501 = DEFINITIONAL_REPRESENTATION('',(#502),#506);
#502 = LINE('',#503,#504);
#503 = CARTESIAN_POINT('',(0.,0.));
#504 = VECTOR('',#505,1.);
#505 = DIRECTION('',(0.,-1.));
#506 = ( GEOMETRIC_REPRESENTATION_CONTEXT(2) 
PARAMETRIC_REPRESENTATION_CONTEXT() REPRESENTATION_CONTEXT('2D SPACE',''
  ) );
#507 = ORIENTED_EDGE('',*,*,#508,.F.);
#508 = EDGE_CURVE('',#85,#486,#509,.T.);
#509 = SURFACE_CURVE('',#510,(#514,#521),.PCURVE_S1.);
#510 = LINE('',#511,#512);
#511 = CARTESIAN_POINT('',(0.,30.,0.));
#512 = VECTOR('',#513,1.);
#513 = DIRECTION('',(1.,0.,-0.));
#514 = PCURVE('',#72,#515);
#515 = DEFINITIONAL_REPRESENTATION('',(#516),#520);
#516 = LINE('',#517,#518);
#517 = CARTESIAN_POINT('',(0.,30.));
#518 = VECTOR('',#519,1.);
#519 = DIRECTION('',(1.,0.));
#520 = ( GEOMETRIC_REPRESENTATION_CONTEXT(2) 
PARAMETRIC_REPRESENTATION_CONTEXT() REPRESENTATION_CONTEXT('2D SPACE',''
  ) );
#521 = PCURVE('',#123,#522);
#522 = DEFINITIONAL_REPRESENTATION('',(#523),#527);
#523 = LINE('',#524,#525);
#524 = CARTESIAN_POINT('',(0.,0.));
#525 = VECTOR('',#526,1.);
#526 = DIRECTION('',(0.,1.));
#527 = ( GEOMETRIC_REPRESENTATION_CONTEXT(2) 
PARAMETRIC_REPRESENTATION_CONTEXT() REPRESENTATION_CONTEXT('2D SPACE',''
  ) );
#528 = ORIENTED_EDGE('',*,*,#84,.F.);
#529 = FACE_BOUND('',#530,.F.);
#530 = EDGE_LOOP('',(#531));
#531 = ORIENTED_EDGE('',*,*,#532,.F.);
#532 = EDGE_CURVE('',#533,#533,#535,.T.);
#533 = VERTEX_POINT('',#534);
#534 = CARTESIAN_POINT('',(73.,12.113248654052,0.));
#535 = SURFACE_CURVE('',#536,(#541,#548),.PCURVE_S1.);
#536 = ELLIPSE('',#537,3.464101615138,3.);
#537 = AXIS2_PLACEMENT_3D('',#538,#539,#540);
#538 = CARTESIAN_POINT('',(70.,12.113248654052,0.));
#539 = DIRECTION('',(0.,0.,1.));
#540 = DIRECTION('',(0.,-1.,0.));
#541 = PCURVE('',#72,#542);
#542 = DEFINITIONAL_REPRESENTATION('',(#543),#547);
#543 = ELLIPSE('',#544,3.464101615138,3.);
#544 = AXIS2_PLACEMENT_2D('',#545,#546);
#545 = CARTESIAN_POINT('',(70.,12.113248654052));
#546 = DIRECTION('',(0.,-1.));
#547 = ( GEOMETRIC_REPRESENTATION_CONTEXT(2) 
PARAMETRIC_REPRESENTATION_CONTEXT() REPRESENTATION_CONTEXT('2D SPACE',''
  ) );
#548 = PCURVE('',#382,#549);
#549 = DEFINITIONAL_REPRESENTATION('',(#550),#581);
#550 = B_SPLINE_CURVE_WITH_KNOTS('',8,(#551,#552,#553,#554,#555,#556,
    #557,#558,#559,#560,#561,#562,#563,#564,#565,#566,#567,#568,#569,
    #570,#571,#572,#573,#574,#575,#576,#577,#578,#579,#580),
  .UNSPECIFIED.,.F.,.F.,(9,7,7,7,9),(1.570796326795,3.14159265359,
    4.319689898686,6.08683576633,7.853981633974),.UNSPECIFIED.);
#551 = CARTESIAN_POINT('',(0.,5.773502691896));
#552 = CARTESIAN_POINT('',(0.196349540849,5.433415311102));
#553 = CARTESIAN_POINT('',(0.392699081699,5.093327849556));
#554 = CARTESIAN_POINT('',(0.589048622542,4.773220381452));
#555 = CARTESIAN_POINT('',(0.785398163401,4.493068975913));
#556 = CARTESIAN_POINT('',(0.981747704244,4.270397743934));
#557 = CARTESIAN_POINT('',(1.178097245097,4.117767386951));
#558 = CARTESIAN_POINT('',(1.374446785946,4.041451884327));
#559 = CARTESIAN_POINT('',(1.718058482432,4.041451884327));
#560 = CARTESIAN_POINT('',(1.865320638069,4.084379467841));
#561 = CARTESIAN_POINT('',(2.012582793707,4.170233577376));
#562 = CARTESIAN_POINT('',(2.159844949343,4.297031386478));
#563 = CARTESIAN_POINT('',(2.30710710498,4.460795546984));
#564 = CARTESIAN_POINT('',(2.454369260617,4.655803649497));
#565 = CARTESIAN_POINT('',(2.601631416254,4.875025716039));
#566 = CARTESIAN_POINT('',(2.969786805347,5.464150285504));
#567 = CARTESIAN_POINT('',(3.190680038799,5.854587446589));
#568 = CARTESIAN_POINT('',(3.411573272262,6.255702713304));
#569 = CARTESIAN_POINT('',(3.632466505696,6.6373781211));
#570 = CARTESIAN_POINT('',(3.853359739174,6.969707811037));
#571 = CARTESIAN_POINT('',(4.074252972623,7.228259080825));
#572 = CARTESIAN_POINT('',(4.29514620608,7.397631402659));
#573 = CARTESIAN_POINT('',(4.736932672991,7.546913855082));
#574 = CARTESIAN_POINT('',(4.957825906446,7.526824068303));
#575 = CARTESIAN_POINT('',(5.178719139887,7.406455132244));
#576 = CARTESIAN_POINT('',(5.399612373345,7.190111431468));
#577 = CARTESIAN_POINT('',(5.620505606807,6.892849148157));
#578 = CARTESIAN_POINT('',(5.841398840265,6.538699510436));
#579 = CARTESIAN_POINT('',(6.062292073724,6.156100995289));
#580 = CARTESIAN_POINT('',(6.28318530718,5.773502691896));
#581 = ( GEOMETRIC_REPRESENTATION_CONTEXT(2) 
PARAMETRIC_REPRESENTATION_CONTEXT() REPRESENTATION_CONTEXT('2D SPACE',''
  ) );
#582 = FACE_BOUND('',#583,.F.);
#583 = EDGE_LOOP('',(#584));
#584 = ORIENTED_EDGE('',*,*,#585,.T.);
#585 = EDGE_CURVE('',#463,#586,#588,.T.);
#586 = VERTEX_POINT('',#587);
#587 = CARTESIAN_POINT('',(90.,15.,0.));
#588 = SURFACE_CURVE('',#589,(#594,#605),.PCURVE_S1.);
#589 = CIRCLE('',#590,2.);
#590 = AXIS2_PLACEMENT_3D('',#591,#592,#593);
#591 = CARTESIAN_POINT('',(88.,15.,0.));
#592 = DIRECTION('',(0.,-1.224646799147E-16,-1.));
#593 = DIRECTION('',(1.,0.,0.));
#594 = PCURVE('',#72,#595);
#595 = DEFINITIONAL_REPRESENTATION('',(#596),#604);
#596 = ( BOUNDED_CURVE() B_SPLINE_CURVE(2,(#597,#598,#599,#600,#601,#602
,#603),.UNSPECIFIED.,.T.,.F.) B_SPLINE_CURVE_WITH_KNOTS((1,2,2,2,2,1),(
    -2.094395102393,0.,2.094395102393,4.188790204786,6.28318530718,
8.377580409573),.UNSPECIFIED.) CURVE() GEOMETRIC_REPRESENTATION_ITEM() 
RATIONAL_B_SPLINE_CURVE((1.,0.5,1.,0.5,1.,0.5,1.)) REPRESENTATION_ITEM(
  '') );
#597 = CARTESIAN_POINT('',(90.,15.));
#598 = CARTESIAN_POINT('',(90.,11.535898384862));
#599 = CARTESIAN_POINT('',(87.,13.267949192431));
#600 = CARTESIAN_POINT('',(84.,15.));
#601 = CARTESIAN_POINT('',(87.,16.732050807569));
#602 = CARTESIAN_POINT('',(90.,18.464101615138));
#603 = CARTESIAN_POINT('',(90.,15.));
#604 = ( GEOMETRIC_REPRESENTATION_CONTEXT(2) 
PARAMETRIC_REPRESENTATION_CONTEXT() REPRESENTATION_CONTEXT('2D SPACE',''
  ) );
#605 = PCURVE('',#606,#611);
#606 = CYLINDRICAL_SURFACE('',#607,2.);
#607 = AXIS2_PLACEMENT_3D('',#608,#609,#610);
#608 = CARTESIAN_POINT('',(88.,15.,4.));
#609 = DIRECTION('',(0.,-1.224646799147E-16,-1.));
#610 = DIRECTION('',(1.,0.,0.));
#611 = DEFINITIONAL_REPRESENTATION('',(#612),#616);
#612 = LINE('',#613,#614);
#613 = CARTESIAN_POINT('',(0.,4.));
#614 = VECTOR('',#615,1.);
#615 = DIRECTION('',(1.,0.));
#616 = ( GEOMETRIC_REPRESENTATION_CONTEXT(2) 
PARAMETRIC_REPRESENTATION_CONTEXT() REPRESENTATION_CONTEXT('2D SPACE',''
  ) );
#617 = ADVANCED_FACE('',(#618,#690,#721),#174,.T.);
#618 = FACE_BOUND('',#619,.T.);
#619 = EDGE_LOOP('',(#620,#621,#622,#645,#668,#689));
#620 = ORIENTED_EDGE('',*,*,#186,.F.);
#621 = ORIENTED_EDGE('',*,*,#317,.T.);
#622 = ORIENTED_EDGE('',*,*,#623,.T.);
#623 = EDGE_CURVE('',#318,#624,#626,.T.);
#624 = VERTEX_POINT('',#625);
#625 = CARTESIAN_POINT('',(90.,15.,30.));
#626 = SURFACE_CURVE('',#627,(#631,#638),.PCURVE_S1.);
#627 = LINE('',#628,#629);
#628 = CARTESIAN_POINT('',(90.,0.,30.));
#629 = VECTOR('',#630,1.);
#630 = DIRECTION('',(-0.,1.,0.));
#631 = PCURVE('',#174,#632);
#632 = DEFINITIONAL_REPRESENTATION('',(#633),#637);
#633 = LINE('',#634,#635);
#634 = CARTESIAN_POINT('',(90.,0.));
#635 = VECTOR('',#636,1.);
#636 = DIRECTION('',(0.,1.));
#637 = ( GEOMETRIC_REPRESENTATION_CONTEXT(2) 
PARAMETRIC_REPRESENTATION_CONTEXT() REPRESENTATION_CONTEXT('2D SPACE',''
  ) );
#638 = PCURVE('',#282,#639);
#639 = DEFINITIONAL_REPRESENTATION('',(#640),#644);
#640 = LINE('',#641,#642);
#641 = CARTESIAN_POINT('',(30.,0.));
#642 = VECTOR('',#643,1.);
#643 = DIRECTION('',(0.,-1.));
#644 = ( GEOMETRIC_REPRESENTATION_CONTEXT(2) 
PARAMETRIC_REPRESENTATION_CONTEXT() REPRESENTATION_CONTEXT('2D SPACE',''
  ) );
#645 = ORIENTED_EDGE('',*,*,#646,.T.);
#646 = EDGE_CURVE('',#624,#647,#649,.T.);
#647 = VERTEX_POINT('',#648);
#648 = CARTESIAN_POINT('',(90.,30.,30.));
#649 = SURFACE_CURVE('',#650,(#654,#661),.PCURVE_S1.);
#650 = LINE('',#651,#652);
#651 = CARTESIAN_POINT('',(90.,0.,30.));
#652 = VECTOR('',#653,1.);
#653 = DIRECTION('',(-0.,1.,0.));
#654 = PCURVE('',#174,#655);
#655 = DEFINITIONAL_REPRESENTATION('',(#656),#660);
#656 = LINE('',#657,#658);
#657 = CARTESIAN_POINT('',(90.,0.));
#658 = VECTOR('',#659,1.);
#659 = DIRECTION('',(0.,1.));
#660 = ( GEOMETRIC_REPRESENTATION_CONTEXT(2) 
PARAMETRIC_REPRESENTATION_CONTEXT() REPRESENTATION_CONTEXT('2D SPACE',''
  ) );
#661 = PCURVE('',#282,#662);
#662 = DEFINITIONAL_REPRESENTATION('',(#663),#667);
#663 = LINE('',#664,#665);
#664 = CARTESIAN_POINT('',(30.,0.));
#665 = VECTOR('',#666,1.);
#666 = DIRECTION('',(0.,-1.));
#667 = ( GEOMETRIC_REPRESENTATION_CONTEXT(2) 
PARAMETRIC_REPRESENTATION_CONTEXT() REPRESENTATION_CONTEXT('2D SPACE',''
  ) );
#668 = ORIENTED_EDGE('',*,*,#669,.F.);
#669 = EDGE_CURVE('',#136,#647,#670,.T.);
#670 = SURFACE_CURVE('',#671,(#675,#682),.PCURVE_S1.);
#671 = LINE('',#672,#673);
#672 = CARTESIAN_POINT('',(0.,30.,30.));
#673 = VECTOR('',#674,1.);
#674 = DIRECTION('',(1.,0.,-0.));
#675 = PCURVE('',#174,#676);
#676 = DEFINITIONAL_REPRESENTATION('',(#677),#681);
#677 = LINE('',#678,#679);
#678 = CARTESIAN_POINT('',(0.,30.));
#679 = VECTOR('',#680,1.);
#680 = DIRECTION('',(1.,0.));
#681 = ( GEOMETRIC_REPRESENTATION_CONTEXT(2) 
PARAMETRIC_REPRESENTATION_CONTEXT() REPRESENTATION_CONTEXT('2D SPACE',''
  ) );
#682 = PCURVE('',#123,#683);
#683 = DEFINITIONAL_REPRESENTATION('',(#684),#688);
#684 = LINE('',#685,#686);
#685 = CARTESIAN_POINT('',(30.,0.));
#686 = VECTOR('',#687,1.);
#687 = DIRECTION('',(0.,1.));
#688 = ( GEOMETRIC_REPRESENTATION_CONTEXT(2) 
PARAMETRIC_REPRESENTATION_CONTEXT() REPRESENTATION_CONTEXT('2D SPACE',''
  ) );
#689 = ORIENTED_EDGE('',*,*,#158,.F.);
#690 = FACE_BOUND('',#691,.T.);
#691 = EDGE_LOOP('',(#692));
#692 = ORIENTED_EDGE('',*,*,#693,.F.);
#693 = EDGE_CURVE('',#694,#694,#696,.T.);
#694 = VERTEX_POINT('',#695);
#695 = CARTESIAN_POINT('',(24.,15.,30.));
#696 = SURFACE_CURVE('',#697,(#702,#709),.PCURVE_S1.);
#697 = CIRCLE('',#698,4.);
#698 = AXIS2_PLACEMENT_3D('',#699,#700,#701);
#699 = CARTESIAN_POINT('',(20.,15.,30.));
#700 = DIRECTION('',(0.,0.,1.));
#701 = DIRECTION('',(1.,0.,-0.));
#702 = PCURVE('',#174,#703);
#703 = DEFINITIONAL_REPRESENTATION('',(#704),#708);
#704 = CIRCLE('',#705,4.);
#705 = AXIS2_PLACEMENT_2D('',#706,#707);
#706 = CARTESIAN_POINT('',(20.,15.));
#707 = DIRECTION('',(1.,0.));
#708 = ( GEOMETRIC_REPRESENTATION_CONTEXT(2) 
PARAMETRIC_REPRESENTATION_CONTEXT() REPRESENTATION_CONTEXT('2D SPACE',''
  ) );
#709 = PCURVE('',#710,#715);
#710 = CYLINDRICAL_SURFACE('',#711,4.);
#711 = AXIS2_PLACEMENT_3D('',#712,#713,#714);
#712 = CARTESIAN_POINT('',(20.,15.,10.));
#713 = DIRECTION('',(0.,0.,1.));
#714 = DIRECTION('',(1.,0.,-0.));
#715 = DEFINITIONAL_REPRESENTATION('',(#716),#720);
#716 = LINE('',#717,#718);
#717 = CARTESIAN_POINT('',(0.,20.));
#718 = VECTOR('',#719,1.);
#719 = DIRECTION('',(1.,0.));
#720 = ( GEOMETRIC_REPRESENTATION_CONTEXT(2) 
PARAMETRIC_REPRESENTATION_CONTEXT() REPRESENTATION_CONTEXT('2D SPACE',''
  ) );
#721 = FACE_BOUND('',#722,.T.);
#722 = EDGE_LOOP('',(#723));
#723 = ORIENTED_EDGE('',*,*,#724,.F.);
#724 = EDGE_CURVE('',#725,#624,#727,.T.);
#725 = VERTEX_POINT('',#726);
#726 = CARTESIAN_POINT('',(90.,15.,30.));
#727 = SURFACE_CURVE('',#728,(#733,#740),.PCURVE_S1.);
#728 = CIRCLE('',#729,2.);
#729 = AXIS2_PLACEMENT_3D('',#730,#731,#732);
#730 = CARTESIAN_POINT('',(88.,15.,30.));
#731 = DIRECTION('',(0.,0.,1.));
#732 = DIRECTION('',(1.,0.,-0.));
#733 = PCURVE('',#174,#734);
#734 = DEFINITIONAL_REPRESENTATION('',(#735),#739);
#735 = CIRCLE('',#736,2.);
#736 = AXIS2_PLACEMENT_2D('',#737,#738);
#737 = CARTESIAN_POINT('',(88.,15.));
#738 = DIRECTION('',(1.,0.));
#739 = ( GEOMETRIC_REPRESENTATION_CONTEXT(2) 
PARAMETRIC_REPRESENTATION_CONTEXT() REPRESENTATION_CONTEXT('2D SPACE',''
  ) );
#740 = PCURVE('',#741,#746);
#741 = CYLINDRICAL_SURFACE('',#742,2.);
#742 = AXIS2_PLACEMENT_3D('',#743,#744,#745);
#743 = CARTESIAN_POINT('',(88.,15.,26.));
#744 = DIRECTION('',(0.,0.,1.));
#745 = DIRECTION('',(1.,0.,0.));
#746 = DEFINITIONAL_REPRESENTATION('',(#747),#751);
#747 = LINE('',#748,#749);
#748 = CARTESIAN_POINT('',(0.,4.));
#749 = VECTOR('',#750,1.);
#750 = DIRECTION('',(1.,0.));
#751 = ( GEOMETRIC_REPRESENTATION_CONTEXT(2) 
PARAMETRIC_REPRESENTATION_CONTEXT() REPRESENTATION_CONTEXT('2D SPACE',''
  ) );
#752 = ADVANCED_FACE('',(#753,#803),#123,.T.);
#753 = FACE_BOUND('',#754,.T.);
#754 = EDGE_LOOP('',(#755,#778,#779,#780,#781,#782));
#755 = ORIENTED_EDGE('',*,*,#756,.F.);
#756 = EDGE_CURVE('',#486,#757,#759,.T.);
#757 = VERTEX_POINT('',#758);
#758 = CARTESIAN_POINT('',(90.,30.,15.));
#759 = SURFACE_CURVE('',#760,(#764,#771),.PCURVE_S1.);
#760 = LINE('',#761,#762);
#761 = CARTESIAN_POINT('',(90.,30.,0.));
#762 = VECTOR('',#763,1.);
#763 = DIRECTION('',(0.,0.,1.));
#764 = PCURVE('',#123,#765);
#765 = DEFINITIONAL_REPRESENTATION('',(#766),#770);
#766 = LINE('',#767,#768);
#767 = CARTESIAN_POINT('',(0.,90.));
#768 = VECTOR('',#769,1.);
#769 = DIRECTION('',(1.,0.));
#770 = ( GEOMETRIC_REPRESENTATION_CONTEXT(2) 
PARAMETRIC_REPRESENTATION_CONTEXT() REPRESENTATION_CONTEXT('2D SPACE',''
  ) );
#771 = PCURVE('',#282,#772);
#772 = DEFINITIONAL_REPRESENTATION('',(#773),#777);
#773 = LINE('',#774,#775);
#774 = CARTESIAN_POINT('',(0.,-30.));
#775 = VECTOR('',#776,1.);
#776 = DIRECTION('',(1.,0.));
#777 = ( GEOMETRIC_REPRESENTATION_CONTEXT(2) 
PARAMETRIC_REPRESENTATION_CONTEXT() REPRESENTATION_CONTEXT('2D SPACE',''
  ) );
#778 = ORIENTED_EDGE('',*,*,#508,.F.);
#779 = ORIENTED_EDGE('',*,*,#107,.T.);
#780 = ORIENTED_EDGE('',*,*,#135,.T.);
#781 = ORIENTED_EDGE('',*,*,#669,.T.);
#782 = ORIENTED_EDGE('',*,*,#783,.F.);
#783 = EDGE_CURVE('',#757,#647,#784,.T.);
#784 = SURFACE_CURVE('',#785,(#789,#796),.PCURVE_S1.);
#785 = LINE('',#786,#787);
#786 = CARTESIAN_POINT('',(90.,30.,0.));
#787 = VECTOR('',#788,1.);
#788 = DIRECTION('',(0.,0.,1.));
#789 = PCURVE('',#123,#790);
#790 = DEFINITIONAL_REPRESENTATION('',(#791),#795);
#791 = LINE('',#792,#793);
#792 = CARTESIAN_POINT('',(0.,90.));
#793 = VECTOR('',#794,1.);
#794 = DIRECTION('',(1.,0.));
#795 = ( GEOMETRIC_REPRESENTATION_CONTEXT(2) 
PARAMETRIC_REPRESENTATION_CONTEXT() REPRESENTATION_CONTEXT('2D SPACE',''
  ) );
#796 = PCURVE('',#282,#797);
#797 = DEFINITIONAL_REPRESENTATION('',(#798),#802);
#798 = LINE('',#799,#800);
#799 = CARTESIAN_POINT('',(0.,-30.));
#800 = VECTOR('',#801,1.);
#801 = DIRECTION('',(1.,0.));
#802 = ( GEOMETRIC_REPRESENTATION_CONTEXT(2) 
PARAMETRIC_REPRESENTATION_CONTEXT() REPRESENTATION_CONTEXT('2D SPACE',''
  ) );
#803 = FACE_BOUND('',#804,.T.);
#804 = EDGE_LOOP('',(#805));
#805 = ORIENTED_EDGE('',*,*,#806,.F.);
#806 = EDGE_CURVE('',#807,#757,#809,.T.);
#807 = VERTEX_POINT('',#808);
#808 = CARTESIAN_POINT('',(90.,30.,15.));
#809 = SURFACE_CURVE('',#810,(#815,#822),.PCURVE_S1.);
#810 = CIRCLE('',#811,2.);
#811 = AXIS2_PLACEMENT_3D('',#812,#813,#814);
#812 = CARTESIAN_POINT('',(88.,30.,15.));
#813 = DIRECTION('',(0.,1.,-2.22044604925E-16));
#814 = DIRECTION('',(1.,0.,0.));
#815 = PCURVE('',#123,#816);
#816 = DEFINITIONAL_REPRESENTATION('',(#817),#821);
#817 = CIRCLE('',#818,2.);
#818 = AXIS2_PLACEMENT_2D('',#819,#820);
#819 = CARTESIAN_POINT('',(15.,88.));
#820 = DIRECTION('',(0.,1.));
#821 = ( GEOMETRIC_REPRESENTATION_CONTEXT(2) 
PARAMETRIC_REPRESENTATION_CONTEXT() REPRESENTATION_CONTEXT('2D SPACE',''
  ) );
#822 = PCURVE('',#823,#828);
#823 = CYLINDRICAL_SURFACE('',#824,2.);
#824 = AXIS2_PLACEMENT_3D('',#825,#826,#827);
#825 = CARTESIAN_POINT('',(88.,26.,15.));
#826 = DIRECTION('',(0.,1.,-2.22044604925E-16));
#827 = DIRECTION('',(1.,0.,0.));
#828 = DEFINITIONAL_REPRESENTATION('',(#829),#833);
#829 = LINE('',#830,#831);
#830 = CARTESIAN_POINT('',(0.,4.));
#831 = VECTOR('',#832,1.);
#832 = DIRECTION('',(1.,0.));
#833 = ( GEOMETRIC_REPRESENTATION_CONTEXT(2) 
PARAMETRIC_REPRESENTATION_CONTEXT() REPRESENTATION_CONTEXT('2D SPACE',''
  ) );
#834 = ADVANCED_FACE('',(#835,#888),#249,.F.);
#835 = FACE_BOUND('',#836,.F.);
#836 = EDGE_LOOP('',(#837,#838,#861,#887));
#837 = ORIENTED_EDGE('',*,*,#232,.T.);
#838 = ORIENTED_EDGE('',*,*,#839,.T.);
#839 = EDGE_CURVE('',#233,#840,#842,.T.);
#840 = VERTEX_POINT('',#841);
#841 = CARTESIAN_POINT('',(45.,15.,7.));
#842 = SEAM_CURVE('',#843,(#847,#854),.PCURVE_S1.);
#843 = LINE('',#844,#845);
#844 = CARTESIAN_POINT('',(-5.,15.,7.));
#845 = VECTOR('',#846,1.);
#846 = DIRECTION('',(1.,0.,1.110223024625E-16));
#847 = PCURVE('',#249,#848);
#848 = DEFINITIONAL_REPRESENTATION('',(#849),#853);
#849 = LINE('',#850,#851);
#850 = CARTESIAN_POINT('',(0.,-0.));
#851 = VECTOR('',#852,1.);
#852 = DIRECTION('',(0.,1.));
#853 = ( GEOMETRIC_REPRESENTATION_CONTEXT(2) 
PARAMETRIC_REPRESENTATION_CONTEXT() REPRESENTATION_CONTEXT('2D SPACE',''
  ) );
#854 = PCURVE('',#249,#855);
#855 = DEFINITIONAL_REPRESENTATION('',(#856),#860);
#856 = LINE('',#857,#858);
#857 = CARTESIAN_POINT('',(6.28318530718,-0.));
#858 = VECTOR('',#859,1.);
#859 = DIRECTION('',(0.,1.));
#860 = ( GEOMETRIC_REPRESENTATION_CONTEXT(2) 
PARAMETRIC_REPRESENTATION_CONTEXT() REPRESENTATION_CONTEXT('2D SPACE',''
  ) );
#861 = ORIENTED_EDGE('',*,*,#862,.F.);
#862 = EDGE_CURVE('',#840,#840,#863,.T.);
#863 = SURFACE_CURVE('',#864,(#869,#876),.PCURVE_S1.);
#864 = CIRCLE('',#865,8.);
#865 = AXIS2_PLACEMENT_3D('',#866,#867,#868);
#866 = CARTESIAN_POINT('',(45.,15.,15.));
#867 = DIRECTION('',(1.,-0.,1.110223024625E-16));
#868 = DIRECTION('',(1.110223024625E-16,0.,-1.));
#869 = PCURVE('',#249,#870);
#870 = DEFINITIONAL_REPRESENTATION('',(#871),#875);
#871 = LINE('',#872,#873);
#872 = CARTESIAN_POINT('',(0.,50.));
#873 = VECTOR('',#874,1.);
#874 = DIRECTION('',(1.,0.));
#875 = ( GEOMETRIC_REPRESENTATION_CONTEXT(2) 
PARAMETRIC_REPRESENTATION_CONTEXT() REPRESENTATION_CONTEXT('2D SPACE',''
  ) );
#876 = PCURVE('',#877,#882);
#877 = CONICAL_SURFACE('',#878,8.,0.380506377112);
#878 = AXIS2_PLACEMENT_3D('',#879,#880,#881);
#879 = CARTESIAN_POINT('',(45.,15.,15.));
#880 = DIRECTION('',(-1.,-0.,-1.110223024625E-16));
#881 = DIRECTION('',(1.110223024625E-16,0.,-1.));
#882 = DEFINITIONAL_REPRESENTATION('',(#883),#886);
#883 = B_SPLINE_CURVE_WITH_KNOTS('',1,(#884,#885),.UNSPECIFIED.,.F.,.F.,
  (2,2),(0.,6.28318530718),.PIECEWISE_BEZIER_KNOTS.);
#884 = CARTESIAN_POINT('',(0.,0.));
#885 = CARTESIAN_POINT('',(-6.28318530718,0.));
#886 = ( GEOMETRIC_REPRESENTATION_CONTEXT(2) 
PARAMETRIC_REPRESENTATION_CONTEXT() REPRESENTATION_CONTEXT('2D SPACE',''
  ) );
#887 = ORIENTED_EDGE('',*,*,#839,.F.);
#888 = FACE_BOUND('',#889,.F.);
#889 = EDGE_LOOP('',(#890));
#890 = ORIENTED_EDGE('',*,*,#891,.F.);
#891 = EDGE_CURVE('',#892,#892,#894,.T.);
#892 = VERTEX_POINT('',#893);
#893 = CARTESIAN_POINT('',(24.,15.,23.));
#894 = SURFACE_CURVE('',#895,(#998,#1104),.PCURVE_S1.);
#895 = B_SPLINE_CURVE_WITH_KNOTS('',6,(#896,#897,#898,#899,#900,#901,
    #902,#903,#904,#905,#906,#907,#908,#909,#910,#911,#912,#913,#914,
    #915,#916,#917,#918,#919,#920,#921,#922,#923,#924,#925,#926,#927,
    #928,#929,#930,#931,#932,#933,#934,#935,#936,#937,#938,#939,#940,
    #941,#942,#943,#944,#945,#946,#947,#948,#949,#950,#951,#952,#953,
    #954,#955,#956,#957,#958,#959,#960,#961,#962,#963,#964,#965,#966,
    #967,#968,#969,#970,#971,#972,#973,#974,#975,#976,#977,#978,#979,
    #980,#981,#982,#983,#984,#985,#986,#987,#988,#989,#990,#991,#992,
    #993,#994,#995,#996,#997),.UNSPECIFIED.,.T.,.F.,(7,5,5,5,5,5,5,5,5,5
    ,5,5,5,5,5,5,5,5,5,5,7),(0.,5.927542671315E-02,8.598476287681E-02,
    0.122410215072,0.168367003528,0.250517872721,0.293984582713,
    0.33274325482,0.415498967686,0.465670233126,0.525504761547,
    0.560155280824,0.586753075383,0.623026410229,0.668791275917,
    0.750599072445,0.793884259829,0.832481070702,0.914891184073,
    0.964852926674,1.),.UNSPECIFIED.);
#896 = CARTESIAN_POINT('',(24.,15.,23.));
#897 = CARTESIAN_POINT('',(24.,15.306307592213,23.));
#898 = CARTESIAN_POINT('',(23.971852448994,15.609869184967,
    22.98592617514));
#899 = CARTESIAN_POINT('',(23.916505220266,15.905792280235,
    22.958252844721));
#900 = CARTESIAN_POINT('',(23.836397135158,16.189356750486,
    22.918754973306));
#901 = CARTESIAN_POINT('',(23.735447941802,16.45630767269,22.87038593332
    ));
#902 = CARTESIAN_POINT('',(23.566975981919,16.814328811586,
    22.792378722086));
#903 = CARTESIAN_POINT('',(23.511307110976,16.92198727688,
    22.766932755659));
#904 = CARTESIAN_POINT('',(23.452577291052,17.026088799233,
    22.740483461974));
#905 = CARTESIAN_POINT('',(23.391041114443,17.126641402547,
    22.713231792476));
#906 = CARTESIAN_POINT('',(23.326932665428,17.223664434948,
    22.685366886074));
#907 = CARTESIAN_POINT('',(23.169820873801,17.444733096287,
    22.618466879984));
#908 = CARTESIAN_POINT('',(23.074769518372,17.565798846151,
    22.579046978842));
#909 = CARTESIAN_POINT('',(22.9757896538,17.680539419618,22.539225100218
    ));
#910 = CARTESIAN_POINT('',(22.873282398986,17.789108830547,
    22.499376820517));
#911 = CARTESIAN_POINT('',(22.767572277511,17.891660413649,
    22.45983673436));
#912 = CARTESIAN_POINT('',(22.521807860575,18.110331448646,
    22.371779412979));
#913 = CARTESIAN_POINT('',(22.379978514074,18.223002224894,
    22.323611296762));
#914 = CARTESIAN_POINT('',(22.23399522472,18.326580039986,22.27702558113
    ));
#915 = CARTESIAN_POINT('',(22.084311986732,18.421261509733,
    22.232576677944));
#916 = CARTESIAN_POINT('',(21.931287073809,18.507201912571,
    22.190758676718));
#917 = CARTESIAN_POINT('',(21.496210217006,18.722672083912,
    22.082767826331));
#918 = CARTESIAN_POINT('',(21.206973083321,18.833464520407,
    22.023232217798));
#919 = CARTESIAN_POINT('',(20.910380692404,18.916616466096,
    21.976344940816));
#920 = CARTESIAN_POINT('',(20.608895017133,18.972143821383,
    21.944285942893));
#921 = CARTESIAN_POINT('',(20.304722036493,19.,21.928203230276));
#922 = CARTESIAN_POINT('',(19.838769029244,19.,21.928203230276));
#923 = CARTESIAN_POINT('',(19.677567816795,18.992201400463,
    21.932705526774));
#924 = CARTESIAN_POINT('',(19.516764512553,18.976609454651,
    21.941708179758));
#925 = CARTESIAN_POINT('',(19.356737761589,18.953234565342,
    21.955115251077));
#926 = CARTESIAN_POINT('',(19.197877183325,18.922097707035,
    21.972741594709));
#927 = CARTESIAN_POINT('',(18.900327532617,18.848583258965,
    22.013556718429));
#928 = CARTESIAN_POINT('',(18.761325040356,18.807790454532,
    22.035935298226));
#929 = CARTESIAN_POINT('',(18.623776831637,18.760863783174,
    22.061274145852));
#930 = CARTESIAN_POINT('',(18.487902627019,18.707798059315,
    22.089353489779));
#931 = CARTESIAN_POINT('',(18.353941826717,18.648580019996,
    22.119916605307));
#932 = CARTESIAN_POINT('',(17.940766538226,18.443577857471,
    22.222614159583));
#933 = CARTESIAN_POINT('',(17.669698535126,18.276039845416,
    22.302453809765));
#934 = CARTESIAN_POINT('',(17.410211861062,18.079951280404,
    22.389611413648));
#935 = CARTESIAN_POINT('',(17.16450823585,17.85391163338,22.481106718886
    ));
#936 = CARTESIAN_POINT('',(16.936164929832,17.596106747054,
    22.573152007257));
#937 = CARTESIAN_POINT('',(16.606490756089,17.128548926931,
    22.713834421542));
#938 = CARTESIAN_POINT('',(16.490158208913,16.939287674543,
    22.76546091923));
#939 = CARTESIAN_POINT('',(16.383712842505,16.737337599692,
    22.814305534196));
#940 = CARTESIAN_POINT('',(16.289006692646,16.52297135215,
    22.858935603414));
#941 = CARTESIAN_POINT('',(16.20799179514,16.296666077745,
    22.897852814856));
#942 = CARTESIAN_POINT('',(16.064990321589,15.775879523214,22.9674138047
    ));
#943 = CARTESIAN_POINT('',(16.009489091219,15.475989724659,
    22.995110415813));
#944 = CARTESIAN_POINT('',(15.981584572488,15.166181343371,
    23.009316691123));
#945 = CARTESIAN_POINT('',(15.983446579996,14.853773682888,
    23.008291449228));
#946 = CARTESIAN_POINT('',(16.014438502397,14.546199395079,
    22.992639897899));
#947 = CARTESIAN_POINT('',(16.103519796961,14.079218895332,
    22.948694889502));
#948 = CARTESIAN_POINT('',(16.144674833861,13.91214173483,
    22.928514357847));
#949 = CARTESIAN_POINT('',(16.193697122913,13.749851348938,
    22.904693568232));
#950 = CARTESIAN_POINT('',(16.249899264282,13.592896377504,
    22.877731307559));
#951 = CARTESIAN_POINT('',(16.312515503222,13.441764818275,
    22.848177521961));
#952 = CARTESIAN_POINT('',(16.433024018078,13.18567118842,
    22.792378722087));
#953 = CARTESIAN_POINT('',(16.488692889025,13.078012723118,
    22.766932755659));
#954 = CARTESIAN_POINT('',(16.54742270895,12.973911200762,
    22.740483461973));
#955 = CARTESIAN_POINT('',(16.608958885559,12.873358597452,
    22.713231792475));
#956 = CARTESIAN_POINT('',(16.673067334569,12.776335565057,
    22.685366886075));
#957 = CARTESIAN_POINT('',(16.830179126199,12.555266903713,
    22.618466879984));
#958 = CARTESIAN_POINT('',(16.925230481628,12.434201153849,
    22.579046978841));
#959 = CARTESIAN_POINT('',(17.0242103462,12.319460580382,22.539225100218
    ));
#960 = CARTESIAN_POINT('',(17.126717601014,12.210891169453,
    22.499376820517));
#961 = CARTESIAN_POINT('',(17.232427722489,12.108339586351,
    22.45983673436));
#962 = CARTESIAN_POINT('',(17.478192135417,11.88966855492,
    22.371779414415));
#963 = CARTESIAN_POINT('',(17.62002149259,11.7769977704,22.323611294706)
  );
#964 = CARTESIAN_POINT('',(17.76600477514,11.673419959349,22.27702558096
    ));
#965 = CARTESIAN_POINT('',(17.915688006545,11.578738494656,
    22.232576679918));
#966 = CARTESIAN_POINT('',(18.068712930518,11.492798085286,
    22.190758675645));
#967 = CARTESIAN_POINT('',(18.503789782994,11.277327916088,
    22.082767826331));
#968 = CARTESIAN_POINT('',(18.79302691668,11.166535479593,
    22.023232217798));
#969 = CARTESIAN_POINT('',(19.089619307595,11.083383533904,
    21.976344940816));
#970 = CARTESIAN_POINT('',(19.391104982867,11.027856178617,
    21.944285942893));
#971 = CARTESIAN_POINT('',(19.695277963507,11.,21.928203230276));
#972 = CARTESIAN_POINT('',(20.161230970757,11.,21.928203230276));
#973 = CARTESIAN_POINT('',(20.322432183205,11.007798599537,
    21.932705526774));
#974 = CARTESIAN_POINT('',(20.483235487447,11.023390545349,
    21.941708179758));
#975 = CARTESIAN_POINT('',(20.643262238411,11.046765434658,
    21.955115251078));
#976 = CARTESIAN_POINT('',(20.802122816675,11.077902292965,
    21.972741594709));
#977 = CARTESIAN_POINT('',(21.099672467383,11.151416741035,
    22.013556718429));
#978 = CARTESIAN_POINT('',(21.238674959644,11.192209545468,
    22.035935298226));
#979 = CARTESIAN_POINT('',(21.376223168363,11.239136216826,
    22.061274145852));
#980 = CARTESIAN_POINT('',(21.512097372981,11.292201940685,
    22.089353489779));
#981 = CARTESIAN_POINT('',(21.646058173283,11.351419980004,
    22.119916605307));
#982 = CARTESIAN_POINT('',(22.059233458617,11.556422140963,
    22.222614158798));
#983 = CARTESIAN_POINT('',(22.330301474526,11.723960161239,
    22.302453812568));
#984 = CARTESIAN_POINT('',(22.589788125948,11.920048708202,
    22.389611409381));
#985 = CARTESIAN_POINT('',(22.835491772904,12.146088376225,
    22.481106722125));
#986 = CARTESIAN_POINT('',(23.063835067652,12.403893249378,
    22.573152006184));
#987 = CARTESIAN_POINT('',(23.393509243998,12.871451073192,
    22.713834421579));
#988 = CARTESIAN_POINT('',(23.509841791034,13.060712325415,
    22.76546091921));
#989 = CARTESIAN_POINT('',(23.616287157431,13.262662400169,
    22.814305534164));
#990 = CARTESIAN_POINT('',(23.710993307372,13.477028647824,
    22.858935603422));
#991 = CARTESIAN_POINT('',(23.792008204905,13.70333392242,
    22.897852814878));
#992 = CARTESIAN_POINT('',(23.903108951868,14.107943565801,
    22.951896159602));
#993 = CARTESIAN_POINT('',(23.941148111894,14.280492519725,
    22.970642937566));
#994 = CARTESIAN_POINT('',(23.970366358705,14.457281443683,
    22.985183171746));
#995 = CARTESIAN_POINT('',(23.99010345472,14.637019153287,
    22.995051729475));
#996 = CARTESIAN_POINT('',(24.,14.818372833861,23.));
#997 = CARTESIAN_POINT('',(24.,15.,23.));
#998 = PCURVE('',#249,#999);
#999 = DEFINITIONAL_REPRESENTATION('',(#1000),#1103);
#1000 = B_SPLINE_CURVE_WITH_KNOTS('',6,(#1001,#1002,#1003,#1004,#1005,
    #1006,#1007,#1008,#1009,#1010,#1011,#1012,#1013,#1014,#1015,#1016,
    #1017,#1018,#1019,#1020,#1021,#1022,#1023,#1024,#1025,#1026,#1027,
    #1028,#1029,#1030,#1031,#1032,#1033,#1034,#1035,#1036,#1037,#1038,
    #1039,#1040,#1041,#1042,#1043,#1044,#1045,#1046,#1047,#1048,#1049,
    #1050,#1051,#1052,#1053,#1054,#1055,#1056,#1057,#1058,#1059,#1060,
    #1061,#1062,#1063,#1064,#1065,#1066,#1067,#1068,#1069,#1070,#1071,
    #1072,#1073,#1074,#1075,#1076,#1077,#1078,#1079,#1080,#1081,#1082,
    #1083,#1084,#1085,#1086,#1087,#1088,#1089,#1090,#1091,#1092,#1093,
    #1094,#1095,#1096,#1097,#1098,#1099,#1100,#1101,#1102),
  .UNSPECIFIED.,.T.,.F.,(7,5,5,5,5,5,5,5,5,5,5,5,5,5,5,5,5,5,5,5,7),(0.,
    5.927542671315E-02,8.598476287681E-02,0.122410215072,0.168367003528,
    0.250517872721,0.293984582713,0.33274325482,0.415498967686,
    0.465670233126,0.525504761547,0.560155280824,0.586753075383,
    0.623026410229,0.668791275917,0.750599072445,0.793884259829,
    0.832481070702,0.914891184073,0.964852926674,1.),.UNSPECIFIED.);
#1001 = CARTESIAN_POINT('',(3.14159265359,29.));
#1002 = CARTESIAN_POINT('',(3.103304204563,29.));
#1003 = CARTESIAN_POINT('',(3.065358941047,28.971852448994));
#1004 = CARTESIAN_POINT('',(3.028267837637,28.916505220266));
#1005 = CARTESIAN_POINT('',(2.992527344909,28.836397135158));
#1006 = CARTESIAN_POINT('',(2.958636204534,28.735447941802));
#1007 = CARTESIAN_POINT('',(2.912833594602,28.566975981919));
#1008 = CARTESIAN_POINT('',(2.899007630547,28.511307110976));
#1009 = CARTESIAN_POINT('',(2.885584208297,28.452577291052));
#1010 = CARTESIAN_POINT('',(2.872563974787,28.391041114443));
#1011 = CARTESIAN_POINT('',(2.85994710196,28.326932665428));
#1012 = CARTESIAN_POINT('',(2.831075899871,28.169820873801));
#1013 = CARTESIAN_POINT('',(2.815164149004,28.074769518372));
#1014 = CARTESIAN_POINT('',(2.799986306124,27.9757896538));
#1015 = CARTESIAN_POINT('',(2.785532879182,27.873282398986));
#1016 = CARTESIAN_POINT('',(2.771795624225,27.767572277511));
#1017 = CARTESIAN_POINT('',(2.742328716569,27.521807860575));
#1018 = CARTESIAN_POINT('',(2.727015236329,27.379978514074));
#1019 = CARTESIAN_POINT('',(2.712822047633,27.23399522472));
#1020 = CARTESIAN_POINT('',(2.699749569977,27.084311986732));
#1021 = CARTESIAN_POINT('',(2.687803585222,26.931287073809));
#1022 = CARTESIAN_POINT('',(2.657676402079,26.496210217006));
#1023 = CARTESIAN_POINT('',(2.641960899711,26.206973083321));
#1024 = CARTESIAN_POINT('',(2.6300294,25.910380692404));
#1025 = CARTESIAN_POINT('',(2.622014531583,25.608895017133));
#1026 = CARTESIAN_POINT('',(2.617993877991,25.304722036493));
#1027 = CARTESIAN_POINT('',(2.617993877991,24.838769029244));
#1028 = CARTESIAN_POINT('',(2.619119483902,24.677567816795));
#1029 = CARTESIAN_POINT('',(2.621370058189,24.516764512553));
#1030 = CARTESIAN_POINT('',(2.624738373138,24.356737761589));
#1031 = CARTESIAN_POINT('',(2.629210701262,24.197877183325));
#1032 = CARTESIAN_POINT('',(2.639721297403,23.900327532617));
#1033 = CARTESIAN_POINT('',(2.645537218394,23.761325040356));
#1034 = CARTESIAN_POINT('',(2.65220333298,23.623776831637));
#1035 = CARTESIAN_POINT('',(2.65970744236,23.487902627019));
#1036 = CARTESIAN_POINT('',(2.668036832616,23.353941826717));
#1037 = CARTESIAN_POINT('',(2.696697747393,22.940766538226));
#1038 = CARTESIAN_POINT('',(2.719891917117,22.669698535126));
#1039 = CARTESIAN_POINT('',(2.746699874835,22.410211861062));
#1040 = CARTESIAN_POINT('',(2.777150465479,22.16450823585));
#1041 = CARTESIAN_POINT('',(2.811324588275,21.936164929832));
#1042 = CARTESIAN_POINT('',(2.872357604039,21.606490756089));
#1043 = CARTESIAN_POINT('',(2.896871360368,21.490158208913));
#1044 = CARTESIAN_POINT('',(2.922825792262,21.383712842505));
#1045 = CARTESIAN_POINT('',(2.950172683253,21.289006692646));
#1046 = CARTESIAN_POINT('',(2.978855872314,21.20799179514));
#1047 = CARTESIAN_POINT('',(3.044532324369,21.064990321589));
#1048 = CARTESIAN_POINT('',(3.082147116092,21.009489091219));
#1049 = CARTESIAN_POINT('',(3.12084848951,20.981584572488));
#1050 = CARTESIAN_POINT('',(3.159830856744,20.983446579996));
#1051 = CARTESIAN_POINT('',(3.198292025171,21.014438502397));
#1052 = CARTESIAN_POINT('',(3.256922482127,21.103519796961));
#1053 = CARTESIAN_POINT('',(3.277951581201,21.144674833861));
#1054 = CARTESIAN_POINT('',(3.298445577112,21.193697122913));
#1055 = CARTESIAN_POINT('',(3.31834409795,21.249899264282));
#1056 = CARTESIAN_POINT('',(3.337588963789,21.312515503222));
#1057 = CARTESIAN_POINT('',(3.370351712577,21.433024018078));
#1058 = CARTESIAN_POINT('',(3.384177676633,21.488692889025));
#1059 = CARTESIAN_POINT('',(3.397601098884,21.54742270895));
#1060 = CARTESIAN_POINT('',(3.410621332393,21.608958885559));
#1061 = CARTESIAN_POINT('',(3.423238205219,21.673067334569));
#1062 = CARTESIAN_POINT('',(3.452109407308,21.830179126199));
#1063 = CARTESIAN_POINT('',(3.468021158176,21.925230481628));
#1064 = CARTESIAN_POINT('',(3.483199001056,22.0242103462));
#1065 = CARTESIAN_POINT('',(3.497652427997,22.126717601014));
#1066 = CARTESIAN_POINT('',(3.511389682954,22.232427722489));
#1067 = CARTESIAN_POINT('',(3.54085659013,22.478192135417));
#1068 = CARTESIAN_POINT('',(3.556170071493,22.62002149259));
#1069 = CARTESIAN_POINT('',(3.570363259631,22.76600477514));
#1070 = CARTESIAN_POINT('',(3.583435736601,22.915688006545));
#1071 = CARTESIAN_POINT('',(3.595381722257,23.068712930518));
#1072 = CARTESIAN_POINT('',(3.625508905101,23.503789782994));
#1073 = CARTESIAN_POINT('',(3.641224407468,23.79302691668));
#1074 = CARTESIAN_POINT('',(3.65315590718,24.089619307595));
#1075 = CARTESIAN_POINT('',(3.661170775596,24.391104982867));
#1076 = CARTESIAN_POINT('',(3.665191429188,24.695277963507));
#1077 = CARTESIAN_POINT('',(3.665191429188,25.161230970757));
#1078 = CARTESIAN_POINT('',(3.664065823277,25.322432183205));
#1079 = CARTESIAN_POINT('',(3.66181524899,25.483235487447));
#1080 = CARTESIAN_POINT('',(3.658446934042,25.643262238411));
#1081 = CARTESIAN_POINT('',(3.653974605918,25.802122816675));
#1082 = CARTESIAN_POINT('',(3.643464009777,26.099672467383));
#1083 = CARTESIAN_POINT('',(3.637648088785,26.238674959644));
#1084 = CARTESIAN_POINT('',(3.630981974199,26.376223168363));
#1085 = CARTESIAN_POINT('',(3.62347786482,26.512097372981));
#1086 = CARTESIAN_POINT('',(3.615148474564,26.646058173283));
#1087 = CARTESIAN_POINT('',(3.586487560006,27.059233458617));
#1088 = CARTESIAN_POINT('',(3.563293389157,27.330301474526));
#1089 = CARTESIAN_POINT('',(3.53648543387,27.589788125948));
#1090 = CARTESIAN_POINT('',(3.506034840432,27.835491772904));
#1091 = CARTESIAN_POINT('',(3.47186071937,28.063835067652));
#1092 = CARTESIAN_POINT('',(3.410827703125,28.393509243998));
#1093 = CARTESIAN_POINT('',(3.386313946817,28.509841791034));
#1094 = CARTESIAN_POINT('',(3.360359514935,28.616287157431));
#1095 = CARTESIAN_POINT('',(3.33301262393,28.710993307373));
#1096 = CARTESIAN_POINT('',(3.304329434845,28.792008204905));
#1097 = CARTESIAN_POINT('',(3.253304066365,28.903108951868));
#1098 = CARTESIAN_POINT('',(3.231615063028,28.941148111894));
#1099 = CARTESIAN_POINT('',(3.209453523003,28.970366358705));
#1100 = CARTESIAN_POINT('',(3.186965263083,28.99010345472));
#1101 = CARTESIAN_POINT('',(3.164296049357,29.));
#1102 = CARTESIAN_POINT('',(3.14159265359,29.));
#1103 = ( GEOMETRIC_REPRESENTATION_CONTEXT(2) 
PARAMETRIC_REPRESENTATION_CONTEXT() REPRESENTATION_CONTEXT('2D SPACE',''
  ) );
#1104 = PCURVE('',#710,#1105);
#1105 = DEFINITIONAL_REPRESENTATION('',(#1106),#1209);
#1106 = B_SPLINE_CURVE_WITH_KNOTS('',6,(#1107,#1108,#1109,#1110,#1111,
    #1112,#1113,#1114,#1115,#1116,#1117,#1118,#1119,#1120,#1121,#1122,
    #1123,#1124,#1125,#1126,#1127,#1128,#1129,#1130,#1131,#1132,#1133,
    #1134,#1135,#1136,#1137,#1138,#1139,#1140,#1141,#1142,#1143,#1144,
    #1145,#1146,#1147,#1148,#1149,#1150,#1151,#1152,#1153,#1154,#1155,
    #1156,#1157,#1158,#1159,#1160,#1161,#1162,#1163,#1164,#1165,#1166,
    #1167,#1168,#1169,#1170,#1171,#1172,#1173,#1174,#1175,#1176,#1177,
    #1178,#1179,#1180,#1181,#1182,#1183,#1184,#1185,#1186,#1187,#1188,
    #1189,#1190,#1191,#1192,#1193,#1194,#1195,#1196,#1197,#1198,#1199,
    #1200,#1201,#1202,#1203,#1204,#1205,#1206,#1207,#1208),
  .UNSPECIFIED.,.F.,.F.,(7,5,5,5,5,5,5,5,5,5,5,5,5,5,5,5,5,5,5,5,7),(0.,
    5.927542671315E-02,8.598476287681E-02,0.122410215072,0.168367003528,
    0.250517872721,0.293984582713,0.33274325482,0.415498967686,
    0.465670233126,0.525504761547,0.560155280824,0.586753075383,
    0.623026410229,0.668791275917,0.750599072445,0.793884259829,
    0.832481070702,0.914891184073,0.964852926674,1.),.UNSPECIFIED.);
#1107 = CARTESIAN_POINT('',(0.,13.));
#1108 = CARTESIAN_POINT('',(7.657689805316E-02,13.));
#1109 = CARTESIAN_POINT('',(0.152467232341,12.98592617514));
#1110 = CARTESIAN_POINT('',(0.227256653812,12.958252844721));
#1111 = CARTESIAN_POINT('',(0.3004989532,12.918754973306));
#1112 = CARTESIAN_POINT('',(0.371630521659,12.87038593332));
#1113 = CARTESIAN_POINT('',(0.470550292548,12.792378722086));
#1114 = CARTESIAN_POINT('',(0.500829036578,12.766932755659));
#1115 = CARTESIAN_POINT('',(0.530681187616,12.740483461974));
#1116 = CARTESIAN_POINT('',(0.560126144345,12.713231792476));
#1117 = CARTESIAN_POINT('',(0.589181863842,12.685366886074));
#1118 = CARTESIAN_POINT('',(0.656984642221,12.618466879984));
#1119 = CARTESIAN_POINT('',(0.695421087546,12.579046978842));
#1120 = CARTESIAN_POINT('',(0.733245164755,12.539225100218));
#1121 = CARTESIAN_POINT('',(0.770519492596,12.499376820517));
#1122 = CARTESIAN_POINT('',(0.80730530747,12.45983673436));
#1123 = CARTESIAN_POINT('',(0.889546253088,12.371779412979));
#1124 = CARTESIAN_POINT('',(0.93475983202,12.323611296762));
#1125 = CARTESIAN_POINT('',(0.979411745014,12.27702558113));
#1126 = CARTESIAN_POINT('',(1.023599147469,12.232576677944));
#1127 = CARTESIAN_POINT('',(1.067416587196,12.190758676718));
#1128 = CARTESIAN_POINT('',(1.188793908509,12.082767826331));
#1129 = CARTESIAN_POINT('',(1.265884499632,12.023232217798));
#1130 = CARTESIAN_POINT('',(1.342405159249,11.976344940816));
#1131 = CARTESIAN_POINT('',(1.418572630949,11.944285942893));
#1132 = CARTESIAN_POINT('',(1.494615817672,11.928203230276));
#1133 = CARTESIAN_POINT('',(1.611104069484,11.928203230276));
#1134 = CARTESIAN_POINT('',(1.65140438531,11.932705526774));
#1135 = CARTESIAN_POINT('',(1.69172305379,11.941708179758));
#1136 = CARTESIAN_POINT('',(1.73208320516,11.955115251077));
#1137 = CARTESIAN_POINT('',(1.772506085764,11.972741594709));
#1138 = CARTESIAN_POINT('',(1.849130236947,12.013556718429));
#1139 = CARTESIAN_POINT('',(1.885312534821,12.035935298226));
#1140 = CARTESIAN_POINT('',(1.921594485239,12.061274145852));
#1141 = CARTESIAN_POINT('',(1.958009422911,12.089353489779));
#1142 = CARTESIAN_POINT('',(1.994589906851,12.119916605307));
#1143 = CARTESIAN_POINT('',(2.10989919357,12.222614159583));
#1144 = CARTESIAN_POINT('',(2.189221143121,12.302453809765));
#1145 = CARTESIAN_POINT('',(2.269991485219,12.389611413648));
#1146 = CARTESIAN_POINT('',(2.352840796647,12.481106718886));
#1147 = CARTESIAN_POINT('',(2.438411295295,12.573152007257));
#1148 = CARTESIAN_POINT('',(2.581435632383,12.713834421542));
#1149 = CARTESIAN_POINT('',(2.636864342463,12.76546091923));
#1150 = CARTESIAN_POINT('',(2.693744230564,12.814305534196));
#1151 = CARTESIAN_POINT('',(2.752112340591,12.858935603414));
#1152 = CARTESIAN_POINT('',(2.812032221754,12.897852814856));
#1153 = CARTESIAN_POINT('',(2.947047974728,12.9674138047));
#1154 = CARTESIAN_POINT('',(3.023018269439,12.995110415813));
#1155 = CARTESIAN_POINT('',(3.100266696042,13.009316691123));
#1156 = CARTESIAN_POINT('',(3.177840669856,13.008291449228));
#1157 = CARTESIAN_POINT('',(3.254823911756,12.992639897899));
#1158 = CARTESIAN_POINT('',(3.373674202086,12.948694889502));
#1159 = CARTESIAN_POINT('',(3.416631607528,12.928514357847));
#1160 = CARTESIAN_POINT('',(3.458930943268,12.904693568232));
#1161 = CARTESIAN_POINT('',(3.500533206158,12.877731307559));
#1162 = CARTESIAN_POINT('',(3.541385327551,12.848177521961));
#1163 = CARTESIAN_POINT('',(3.612142946136,12.792378722087));
#1164 = CARTESIAN_POINT('',(3.642421690168,12.766932755659));
#1165 = CARTESIAN_POINT('',(3.672273841207,12.740483461973));
#1166 = CARTESIAN_POINT('',(3.701718797935,12.713231792475));
#1167 = CARTESIAN_POINT('',(3.73077451743,12.685366886075));
#1168 = CARTESIAN_POINT('',(3.798577295811,12.618466879984));
#1169 = CARTESIAN_POINT('',(3.837013741135,12.579046978841));
#1170 = CARTESIAN_POINT('',(3.874837818345,12.539225100218));
#1171 = CARTESIAN_POINT('',(3.912112146186,12.499376820517));
#1172 = CARTESIAN_POINT('',(3.94889796106,12.45983673436));
#1173 = CARTESIAN_POINT('',(4.031138905337,12.371779414415));
#1174 = CARTESIAN_POINT('',(4.076352487664,12.323611294706));
#1175 = CARTESIAN_POINT('',(4.121004398668,12.27702558096));
#1176 = CARTESIAN_POINT('',(4.165191799037,12.232576679918));
#1177 = CARTESIAN_POINT('',(4.209009241993,12.190758675645));
#1178 = CARTESIAN_POINT('',(4.330386562098,12.082767826331));
#1179 = CARTESIAN_POINT('',(4.407477153222,12.023232217798));
#1180 = CARTESIAN_POINT('',(4.483997812839,11.976344940816));
#1181 = CARTESIAN_POINT('',(4.560165284539,11.944285942893));
#1182 = CARTESIAN_POINT('',(4.636208471261,11.928203230276));
#1183 = CARTESIAN_POINT('',(4.752696723074,11.928203230276));
#1184 = CARTESIAN_POINT('',(4.7929970389,11.932705526774));
#1185 = CARTESIAN_POINT('',(4.83331570738,11.941708179758));
#1186 = CARTESIAN_POINT('',(4.87367585875,11.955115251078));
#1187 = CARTESIAN_POINT('',(4.914098739354,11.972741594709));
#1188 = CARTESIAN_POINT('',(4.990722890536,12.013556718429));
#1189 = CARTESIAN_POINT('',(5.02690518841,12.035935298226));
#1190 = CARTESIAN_POINT('',(5.063187138829,12.061274145852));
#1191 = CARTESIAN_POINT('',(5.0996020765,12.089353489779));
#1192 = CARTESIAN_POINT('',(5.13618256044,12.119916605307));
#1193 = CARTESIAN_POINT('',(5.251491846279,12.222614158798));
#1194 = CARTESIAN_POINT('',(5.330813799705,12.302453812568));
#1195 = CARTESIAN_POINT('',(5.411584134378,12.389611409381));
#1196 = CARTESIAN_POINT('',(5.494433453548,12.481106722125));
#1197 = CARTESIAN_POINT('',(5.580003947793,12.573152006184));
#1198 = CARTESIAN_POINT('',(5.72302828601,12.713834421579));
#1199 = CARTESIAN_POINT('',(5.778456996036,12.76546091921));
#1200 = CARTESIAN_POINT('',(5.835336884117,12.814305534164));
#1201 = CARTESIAN_POINT('',(5.893704994175,12.858935603422));
#1202 = CARTESIAN_POINT('',(5.953624875387,12.897852814878));
#1203 = CARTESIAN_POINT('',(6.058521353966,12.951896159602));
#1204 = CARTESIAN_POINT('',(6.10263695814,12.970642937566));
#1205 = CARTESIAN_POINT('',(6.147337141195,12.985183171746));
#1206 = CARTESIAN_POINT('',(6.192440098571,12.995051729475));
#1207 = CARTESIAN_POINT('',(6.237778515645,13.));
#1208 = CARTESIAN_POINT('',(6.28318530718,13.));
#1209 = ( GEOMETRIC_REPRESENTATION_CONTEXT(2) 
PARAMETRIC_REPRESENTATION_CONTEXT() REPRESENTATION_CONTEXT('2D SPACE',''
  ) );
#1210 = ADVANCED_FACE('',(#1211,#1221),#282,.T.);
#1211 = FACE_BOUND('',#1212,.T.);
#1212 = EDGE_LOOP('',(#1213,#1214,#1215,#1216,#1217,#1218,#1219,#1220));
#1213 = ORIENTED_EDGE('',*,*,#264,.F.);
#1214 = ORIENTED_EDGE('',*,*,#462,.T.);
#1215 = ORIENTED_EDGE('',*,*,#485,.T.);
#1216 = ORIENTED_EDGE('',*,*,#756,.T.);
#1217 = ORIENTED_EDGE('',*,*,#783,.T.);
#1218 = ORIENTED_EDGE('',*,*,#646,.F.);
#1219 = ORIENTED_EDGE('',*,*,#623,.F.);
#1220 = ORIENTED_EDGE('',*,*,#340,.F.);
#1221 = FACE_BOUND('',#1222,.T.);
#1222 = EDGE_LOOP('',(#1223));
#1223 = ORIENTED_EDGE('',*,*,#1224,.F.);
#1224 = EDGE_CURVE('',#1225,#1225,#1227,.T.);
#1225 = VERTEX_POINT('',#1226);
#1226 = CARTESIAN_POINT('',(90.,15.,11.));
#1227 = SURFACE_CURVE('',#1228,(#1233,#1240),.PCURVE_S1.);
#1228 = CIRCLE('',#1229,4.);
#1229 = AXIS2_PLACEMENT_3D('',#1230,#1231,#1232);
#1230 = CARTESIAN_POINT('',(90.,15.,15.));
#1231 = DIRECTION('',(1.,0.,1.110223024625E-16));
#1232 = DIRECTION('',(1.110223024625E-16,0.,-1.));
#1233 = PCURVE('',#282,#1234);
#1234 = DEFINITIONAL_REPRESENTATION('',(#1235),#1239);
#1235 = CIRCLE('',#1236,4.);
#1236 = AXIS2_PLACEMENT_2D('',#1237,#1238);
#1237 = CARTESIAN_POINT('',(15.,-15.));
#1238 = DIRECTION('',(-1.,0.));
#1239 = ( GEOMETRIC_REPRESENTATION_CONTEXT(2) 
PARAMETRIC_REPRESENTATION_CONTEXT() REPRESENTATION_CONTEXT('2D SPACE',''
  ) );
#1240 = PCURVE('',#1241,#1246);
#1241 = CYLINDRICAL_SURFACE('',#1242,4.);
#1242 = AXIS2_PLACEMENT_3D('',#1243,#1244,#1245);
#1243 = CARTESIAN_POINT('',(55.,15.,15.));
#1244 = DIRECTION('',(1.,0.,1.110223024625E-16));
#1245 = DIRECTION('',(1.110223024625E-16,0.,-1.));
#1246 = DEFINITIONAL_REPRESENTATION('',(#1247),#1251);
#1247 = LINE('',#1248,#1249);
#1248 = CARTESIAN_POINT('',(0.,35.));
#1249 = VECTOR('',#1250,1.);
#1250 = DIRECTION('',(1.,0.));
#1251 = ( GEOMETRIC_REPRESENTATION_CONTEXT(2) 
PARAMETRIC_REPRESENTATION_CONTEXT() REPRESENTATION_CONTEXT('2D SPACE',''
  ) );
#1252 = ADVANCED_FACE('',(#1253),#382,.F.);
#1253 = FACE_BOUND('',#1254,.F.);
#1254 = EDGE_LOOP('',(#1255,#1278,#1300,#1301,#1323,#1324));
#1255 = ORIENTED_EDGE('',*,*,#1256,.T.);
#1256 = EDGE_CURVE('',#533,#1257,#1259,.T.);
#1257 = VERTEX_POINT('',#1258);
#1258 = CARTESIAN_POINT('',(73.,2.5,16.650635094611));
#1259 = SEAM_CURVE('',#1260,(#1264,#1271),.PCURVE_S1.);
#1260 = LINE('',#1261,#1262);
#1261 = CARTESIAN_POINT('',(73.,15.,-5.));
#1262 = VECTOR('',#1263,1.);
#1263 = DIRECTION('',(0.,-0.5,0.866025403784));
#1264 = PCURVE('',#382,#1265);
#1265 = DEFINITIONAL_REPRESENTATION('',(#1266),#1270);
#1266 = LINE('',#1267,#1268);
#1267 = CARTESIAN_POINT('',(6.28318530718,-0.));
#1268 = VECTOR('',#1269,1.);
#1269 = DIRECTION('',(0.,1.));
#1270 = ( GEOMETRIC_REPRESENTATION_CONTEXT(2) 
PARAMETRIC_REPRESENTATION_CONTEXT() REPRESENTATION_CONTEXT('2D SPACE',''
  ) );
#1271 = PCURVE('',#382,#1272);
#1272 = DEFINITIONAL_REPRESENTATION('',(#1273),#1277);
#1273 = LINE('',#1274,#1275);
#1274 = CARTESIAN_POINT('',(0.,-0.));
#1275 = VECTOR('',#1276,1.);
#1276 = DIRECTION('',(0.,1.));
#1277 = ( GEOMETRIC_REPRESENTATION_CONTEXT(2) 
PARAMETRIC_REPRESENTATION_CONTEXT() REPRESENTATION_CONTEXT('2D SPACE',''
  ) );
#1278 = ORIENTED_EDGE('',*,*,#1279,.F.);
#1279 = EDGE_CURVE('',#364,#1257,#1280,.T.);
#1280 = SURFACE_CURVE('',#1281,(#1286,#1293),.PCURVE_S1.);
#1281 = CIRCLE('',#1282,3.);
#1282 = AXIS2_PLACEMENT_3D('',#1283,#1284,#1285);
#1283 = CARTESIAN_POINT('',(70.,2.5,16.650635094611));
#1284 = DIRECTION('',(0.,-0.5,0.866025403784));
#1285 = DIRECTION('',(1.,0.,0.));
#1286 = PCURVE('',#382,#1287);
#1287 = DEFINITIONAL_REPRESENTATION('',(#1288),#1292);
#1288 = LINE('',#1289,#1290);
#1289 = CARTESIAN_POINT('',(0.,25.));
#1290 = VECTOR('',#1291,1.);
#1291 = DIRECTION('',(1.,0.));
#1292 = ( GEOMETRIC_REPRESENTATION_CONTEXT(2) 
PARAMETRIC_REPRESENTATION_CONTEXT() REPRESENTATION_CONTEXT('2D SPACE',''
  ) );
#1293 = PCURVE('',#411,#1294);
#1294 = DEFINITIONAL_REPRESENTATION('',(#1295),#1299);
#1295 = CIRCLE('',#1296,3.);
#1296 = AXIS2_PLACEMENT_2D('',#1297,#1298);
#1297 = CARTESIAN_POINT('',(0.,0.));
#1298 = DIRECTION('',(1.,0.));
#1299 = ( GEOMETRIC_REPRESENTATION_CONTEXT(2) 
PARAMETRIC_REPRESENTATION_CONTEXT() REPRESENTATION_CONTEXT('2D SPACE',''
  ) );
#1300 = ORIENTED_EDGE('',*,*,#363,.T.);
#1301 = ORIENTED_EDGE('',*,*,#1302,.F.);
#1302 = EDGE_CURVE('',#1257,#366,#1303,.T.);
#1303 = SURFACE_CURVE('',#1304,(#1309,#1316),.PCURVE_S1.);
#1304 = CIRCLE('',#1305,3.);
#1305 = AXIS2_PLACEMENT_3D('',#1306,#1307,#1308);
#1306 = CARTESIAN_POINT('',(70.,2.5,16.650635094611));
#1307 = DIRECTION('',(0.,-0.5,0.866025403784));
#1308 = DIRECTION('',(1.,0.,0.));
#1309 = PCURVE('',#382,#1310);
#1310 = DEFINITIONAL_REPRESENTATION('',(#1311),#1315);
#1311 = LINE('',#1312,#1313);
#1312 = CARTESIAN_POINT('',(0.,25.));
#1313 = VECTOR('',#1314,1.);
#1314 = DIRECTION('',(1.,0.));
#1315 = ( GEOMETRIC_REPRESENTATION_CONTEXT(2) 
PARAMETRIC_REPRESENTATION_CONTEXT() REPRESENTATION_CONTEXT('2D SPACE',''
  ) );
#1316 = PCURVE('',#411,#1317);
#1317 = DEFINITIONAL_REPRESENTATION('',(#1318),#1322);
#1318 = CIRCLE('',#1319,3.);
#1319 = AXIS2_PLACEMENT_2D('',#1320,#1321);
#1320 = CARTESIAN_POINT('',(0.,0.));
#1321 = DIRECTION('',(1.,0.));
#1322 = ( GEOMETRIC_REPRESENTATION_CONTEXT(2) 
PARAMETRIC_REPRESENTATION_CONTEXT() REPRESENTATION_CONTEXT('2D SPACE',''
  ) );
#1323 = ORIENTED_EDGE('',*,*,#1256,.F.);
#1324 = ORIENTED_EDGE('',*,*,#532,.T.);
#1325 = ADVANCED_FACE('',(#1326),#411,.F.);
#1326 = FACE_BOUND('',#1327,.F.);
#1327 = EDGE_LOOP('',(#1328,#1329,#1330));
#1328 = ORIENTED_EDGE('',*,*,#1279,.T.);
#1329 = ORIENTED_EDGE('',*,*,#1302,.T.);
#1330 = ORIENTED_EDGE('',*,*,#398,.T.);
#1331 = ADVANCED_FACE('',(#1332),#445,.F.);
#1332 = FACE_BOUND('',#1333,.F.);
#1333 = EDGE_LOOP('',(#1334,#1335,#1358,#1385));
#1334 = ORIENTED_EDGE('',*,*,#424,.F.);
#1335 = ORIENTED_EDGE('',*,*,#1336,.F.);
#1336 = EDGE_CURVE('',#1337,#267,#1339,.T.);
#1337 = VERTEX_POINT('',#1338);
#1338 = CARTESIAN_POINT('',(90.,4.,15.));
#1339 = SEAM_CURVE('',#1340,(#1344,#1351),.PCURVE_S1.);
#1340 = LINE('',#1341,#1342);
#1341 = CARTESIAN_POINT('',(90.,4.,15.));
#1342 = VECTOR('',#1343,1.);
#1343 = DIRECTION('',(0.,-1.,1.110223024625E-16));
#1344 = PCURVE('',#445,#1345);
#1345 = DEFINITIONAL_REPRESENTATION('',(#1346),#1350);
#1346 = LINE('',#1347,#1348);
#1347 = CARTESIAN_POINT('',(6.28318530718,-0.));
#1348 = VECTOR('',#1349,1.);
#1349 = DIRECTION('',(0.,1.));
#1350 = ( GEOMETRIC_REPRESENTATION_CONTEXT(2) 
PARAMETRIC_REPRESENTATION_CONTEXT() REPRESENTATION_CONTEXT('2D SPACE',''
  ) );
#1351 = PCURVE('',#445,#1352);
#1352 = DEFINITIONAL_REPRESENTATION('',(#1353),#1357);
#1353 = LINE('',#1354,#1355);
#1354 = CARTESIAN_POINT('',(0.,-0.));
#1355 = VECTOR('',#1356,1.);
#1356 = DIRECTION('',(0.,1.));
#1357 = ( GEOMETRIC_REPRESENTATION_CONTEXT(2) 
PARAMETRIC_REPRESENTATION_CONTEXT() REPRESENTATION_CONTEXT('2D SPACE',''
  ) );
#1358 = ORIENTED_EDGE('',*,*,#1359,.T.);
#1359 = EDGE_CURVE('',#1337,#1337,#1360,.T.);
#1360 = SURFACE_CURVE('',#1361,(#1366,#1373),.PCURVE_S1.);
#1361 = CIRCLE('',#1362,2.);
#1362 = AXIS2_PLACEMENT_3D('',#1363,#1364,#1365);
#1363 = CARTESIAN_POINT('',(88.,4.,15.));
#1364 = DIRECTION('',(0.,-1.,1.110223024625E-16));
#1365 = DIRECTION('',(1.,0.,0.));
#1366 = PCURVE('',#445,#1367);
#1367 = DEFINITIONAL_REPRESENTATION('',(#1368),#1372);
#1368 = LINE('',#1369,#1370);
#1369 = CARTESIAN_POINT('',(0.,0.));
#1370 = VECTOR('',#1371,1.);
#1371 = DIRECTION('',(1.,0.));
#1372 = ( GEOMETRIC_REPRESENTATION_CONTEXT(2) 
PARAMETRIC_REPRESENTATION_CONTEXT() REPRESENTATION_CONTEXT('2D SPACE',''
  ) );
#1373 = PCURVE('',#1374,#1379);
#1374 = PLANE('',#1375);
#1375 = AXIS2_PLACEMENT_3D('',#1376,#1377,#1378);
#1376 = CARTESIAN_POINT('',(88.,4.,15.));
#1377 = DIRECTION('',(0.,-1.,1.110223024625E-16));
#1378 = DIRECTION('',(1.,0.,0.));
#1379 = DEFINITIONAL_REPRESENTATION('',(#1380),#1384);
#1380 = CIRCLE('',#1381,2.);
#1381 = AXIS2_PLACEMENT_2D('',#1382,#1383);
#1382 = CARTESIAN_POINT('',(0.,0.));
#1383 = DIRECTION('',(1.,0.));
#1384 = ( GEOMETRIC_REPRESENTATION_CONTEXT(2) 
PARAMETRIC_REPRESENTATION_CONTEXT() REPRESENTATION_CONTEXT('2D SPACE',''
  ) );
#1385 = ORIENTED_EDGE('',*,*,#1336,.T.);
#1386 = ADVANCED_FACE('',(#1387),#606,.F.);
#1387 = FACE_BOUND('',#1388,.F.);
#1388 = EDGE_LOOP('',(#1389,#1390,#1413,#1440));
#1389 = ORIENTED_EDGE('',*,*,#585,.F.);
#1390 = ORIENTED_EDGE('',*,*,#1391,.F.);
#1391 = EDGE_CURVE('',#1392,#463,#1394,.T.);
#1392 = VERTEX_POINT('',#1393);
#1393 = CARTESIAN_POINT('',(90.,15.,4.));
#1394 = SEAM_CURVE('',#1395,(#1399,#1406),.PCURVE_S1.);
#1395 = LINE('',#1396,#1397);
#1396 = CARTESIAN_POINT('',(90.,15.,4.));
#1397 = VECTOR('',#1398,1.);
#1398 = DIRECTION('',(0.,-1.224646799147E-16,-1.));
#1399 = PCURVE('',#606,#1400);
#1400 = DEFINITIONAL_REPRESENTATION('',(#1401),#1405);
#1401 = LINE('',#1402,#1403);
#1402 = CARTESIAN_POINT('',(6.28318530718,-0.));
#1403 = VECTOR('',#1404,1.);
#1404 = DIRECTION('',(0.,1.));
#1405 = ( GEOMETRIC_REPRESENTATION_CONTEXT(2) 
PARAMETRIC_REPRESENTATION_CONTEXT() REPRESENTATION_CONTEXT('2D SPACE',''
  ) );
#1406 = PCURVE('',#606,#1407);
#1407 = DEFINITIONAL_REPRESENTATION('',(#1408),#1412);
#1408 = LINE('',#1409,#1410);
#1409 = CARTESIAN_POINT('',(0.,-0.));
#1410 = VECTOR('',#1411,1.);
#1411 = DIRECTION('',(0.,1.));
#1412 = ( GEOMETRIC_REPRESENTATION_CONTEXT(2) 
PARAMETRIC_REPRESENTATION_CONTEXT() REPRESENTATION_CONTEXT('2D SPACE',''
  ) );
#1413 = ORIENTED_EDGE('',*,*,#1414,.T.);
#1414 = EDGE_CURVE('',#1392,#1392,#1415,.T.);
#1415 = SURFACE_CURVE('',#1416,(#1421,#1428),.PCURVE_S1.);
#1416 = CIRCLE('',#1417,2.);
#1417 = AXIS2_PLACEMENT_3D('',#1418,#1419,#1420);
#1418 = CARTESIAN_POINT('',(88.,15.,4.));
#1419 = DIRECTION('',(0.,-1.224646799147E-16,-1.));
#1420 = DIRECTION('',(1.,0.,0.));
#1421 = PCURVE('',#606,#1422);
#1422 = DEFINITIONAL_REPRESENTATION('',(#1423),#1427);
#1423 = LINE('',#1424,#1425);
#1424 = CARTESIAN_POINT('',(0.,0.));
#1425 = VECTOR('',#1426,1.);
#1426 = DIRECTION('',(1.,0.));
#1427 = ( GEOMETRIC_REPRESENTATION_CONTEXT(2) 
PARAMETRIC_REPRESENTATION_CONTEXT() REPRESENTATION_CONTEXT('2D SPACE',''
  ) );
#1428 = PCURVE('',#1429,#1434);
#1429 = PLANE('',#1430);
#1430 = AXIS2_PLACEMENT_3D('',#1431,#1432,#1433);
#1431 = CARTESIAN_POINT('',(88.,15.,4.));
#1432 = DIRECTION('',(0.,-1.224646799147E-16,-1.));
#1433 = DIRECTION('',(1.,0.,0.));
#1434 = DEFINITIONAL_REPRESENTATION('',(#1435),#1439);
#1435 = CIRCLE('',#1436,2.);
#1436 = AXIS2_PLACEMENT_2D('',#1437,#1438);
#1437 = CARTESIAN_POINT('',(0.,0.));
#1438 = DIRECTION('',(1.,0.));
#1439 = ( GEOMETRIC_REPRESENTATION_CONTEXT(2) 
PARAMETRIC_REPRESENTATION_CONTEXT() REPRESENTATION_CONTEXT('2D SPACE',''
  ) );
#1440 = ORIENTED_EDGE('',*,*,#1391,.T.);
#1441 = ADVANCED_FACE('',(#1442),#710,.F.);
#1442 = FACE_BOUND('',#1443,.F.);
#1443 = EDGE_LOOP('',(#1444,#1465,#1466,#1467));
#1444 = ORIENTED_EDGE('',*,*,#1445,.T.);
#1445 = EDGE_CURVE('',#892,#694,#1446,.T.);
#1446 = SEAM_CURVE('',#1447,(#1451,#1458),.PCURVE_S1.);
#1447 = LINE('',#1448,#1449);
#1448 = CARTESIAN_POINT('',(24.,15.,10.));
#1449 = VECTOR('',#1450,1.);
#1450 = DIRECTION('',(0.,0.,1.));
#1451 = PCURVE('',#710,#1452);
#1452 = DEFINITIONAL_REPRESENTATION('',(#1453),#1457);
#1453 = LINE('',#1454,#1455);
#1454 = CARTESIAN_POINT('',(6.28318530718,-0.));
#1455 = VECTOR('',#1456,1.);
#1456 = DIRECTION('',(0.,1.));
#1457 = ( GEOMETRIC_REPRESENTATION_CONTEXT(2) 
PARAMETRIC_REPRESENTATION_CONTEXT() REPRESENTATION_CONTEXT('2D SPACE',''
  ) );
#1458 = PCURVE('',#710,#1459);
#1459 = DEFINITIONAL_REPRESENTATION('',(#1460),#1464);
#1460 = LINE('',#1461,#1462);
#1461 = CARTESIAN_POINT('',(0.,-0.));
#1462 = VECTOR('',#1463,1.);
#1463 = DIRECTION('',(0.,1.));
#1464 = ( GEOMETRIC_REPRESENTATION_CONTEXT(2) 
PARAMETRIC_REPRESENTATION_CONTEXT() REPRESENTATION_CONTEXT('2D SPACE',''
  ) );
#1465 = ORIENTED_EDGE('',*,*,#693,.F.);
#1466 = ORIENTED_EDGE('',*,*,#1445,.F.);
#1467 = ORIENTED_EDGE('',*,*,#891,.T.);
#1468 = ADVANCED_FACE('',(#1469),#741,.F.);
#1469 = FACE_BOUND('',#1470,.F.);
#1470 = EDGE_LOOP('',(#1471,#1472,#1495,#1522));
#1471 = ORIENTED_EDGE('',*,*,#724,.F.);
#1472 = ORIENTED_EDGE('',*,*,#1473,.F.);
#1473 = EDGE_CURVE('',#1474,#624,#1476,.T.);
#1474 = VERTEX_POINT('',#1475);
#1475 = CARTESIAN_POINT('',(90.,15.,26.));
#1476 = SEAM_CURVE('',#1477,(#1481,#1488),.PCURVE_S1.);
#1477 = LINE('',#1478,#1479);
#1478 = CARTESIAN_POINT('',(90.,15.,26.));
#1479 = VECTOR('',#1480,1.);
#1480 = DIRECTION('',(0.,0.,1.));
#1481 = PCURVE('',#741,#1482);
#1482 = DEFINITIONAL_REPRESENTATION('',(#1483),#1487);
#1483 = LINE('',#1484,#1485);
#1484 = CARTESIAN_POINT('',(6.28318530718,-0.));
#1485 = VECTOR('',#1486,1.);
#1486 = DIRECTION('',(0.,1.));
#1487 = ( GEOMETRIC_REPRESENTATION_CONTEXT(2) 
PARAMETRIC_REPRESENTATION_CONTEXT() REPRESENTATION_CONTEXT('2D SPACE',''
  ) );
#1488 = PCURVE('',#741,#1489);
#1489 = DEFINITIONAL_REPRESENTATION('',(#1490),#1494);
#1490 = LINE('',#1491,#1492);
#1491 = CARTESIAN_POINT('',(0.,-0.));
#1492 = VECTOR('',#1493,1.);
#1493 = DIRECTION('',(0.,1.));
#1494 = ( GEOMETRIC_REPRESENTATION_CONTEXT(2) 
PARAMETRIC_REPRESENTATION_CONTEXT() REPRESENTATION_CONTEXT('2D SPACE',''
  ) );
#1495 = ORIENTED_EDGE('',*,*,#1496,.T.);
#1496 = EDGE_CURVE('',#1474,#1474,#1497,.T.);
#1497 = SURFACE_CURVE('',#1498,(#1503,#1510),.PCURVE_S1.);
#1498 = CIRCLE('',#1499,2.);
#1499 = AXIS2_PLACEMENT_3D('',#1500,#1501,#1502);
#1500 = CARTESIAN_POINT('',(88.,15.,26.));
#1501 = DIRECTION('',(0.,0.,1.));
#1502 = DIRECTION('',(1.,0.,0.));
#1503 = PCURVE('',#741,#1504);
#1504 = DEFINITIONAL_REPRESENTATION('',(#1505),#1509);
#1505 = LINE('',#1506,#1507);
#1506 = CARTESIAN_POINT('',(0.,0.));
#1507 = VECTOR('',#1508,1.);
#1508 = DIRECTION('',(1.,0.));
#1509 = ( GEOMETRIC_REPRESENTATION_CONTEXT(2) 
PARAMETRIC_REPRESENTATION_CONTEXT() REPRESENTATION_CONTEXT('2D SPACE',''
  ) );
#1510 = PCURVE('',#1511,#1516);
#1511 = PLANE('',#1512);
#1512 = AXIS2_PLACEMENT_3D('',#1513,#1514,#1515);
#1513 = CARTESIAN_POINT('',(88.,15.,26.));
#1514 = DIRECTION('',(0.,0.,1.));
#1515 = DIRECTION('',(1.,0.,0.));
#1516 = DEFINITIONAL_REPRESENTATION('',(#1517),#1521);
#1517 = CIRCLE('',#1518,2.);
#1518 = AXIS2_PLACEMENT_2D('',#1519,#1520);
#1519 = CARTESIAN_POINT('',(0.,0.));
#1520 = DIRECTION('',(1.,0.));
#1521 = ( GEOMETRIC_REPRESENTATION_CONTEXT(2) 
PARAMETRIC_REPRESENTATION_CONTEXT() REPRESENTATION_CONTEXT('2D SPACE',''
  ) );
#1522 = ORIENTED_EDGE('',*,*,#1473,.T.);
#1523 = ADVANCED_FACE('',(#1524),#823,.F.);
#1524 = FACE_BOUND('',#1525,.F.);
#1525 = EDGE_LOOP('',(#1526,#1527,#1550,#1577));
#1526 = ORIENTED_EDGE('',*,*,#806,.F.);
#1527 = ORIENTED_EDGE('',*,*,#1528,.F.);
#1528 = EDGE_CURVE('',#1529,#757,#1531,.T.);
#1529 = VERTEX_POINT('',#1530);
#1530 = CARTESIAN_POINT('',(90.,26.,15.));
#1531 = SEAM_CURVE('',#1532,(#1536,#1543),.PCURVE_S1.);
#1532 = LINE('',#1533,#1534);
#1533 = CARTESIAN_POINT('',(90.,26.,15.));
#1534 = VECTOR('',#1535,1.);
#1535 = DIRECTION('',(0.,1.,-2.22044604925E-16));
#1536 = PCURVE('',#823,#1537);
#1537 = DEFINITIONAL_REPRESENTATION('',(#1538),#1542);
#1538 = LINE('',#1539,#1540);
#1539 = CARTESIAN_POINT('',(6.28318530718,-0.));
#1540 = VECTOR('',#1541,1.);
#1541 = DIRECTION('',(0.,1.));
#1542 = ( GEOMETRIC_REPRESENTATION_CONTEXT(2) 
PARAMETRIC_REPRESENTATION_CONTEXT() REPRESENTATION_CONTEXT('2D SPACE',''
  ) );
#1543 = PCURVE('',#823,#1544);
#1544 = DEFINITIONAL_REPRESENTATION('',(#1545),#1549);
#1545 = LINE('',#1546,#1547);
#1546 = CARTESIAN_POINT('',(0.,-0.));
#1547 = VECTOR('',#1548,1.);
#1548 = DIRECTION('',(0.,1.));
#1549 = ( GEOMETRIC_REPRESENTATION_CONTEXT(2) 
PARAMETRIC_REPRESENTATION_CONTEXT() REPRESENTATION_CONTEXT('2D SPACE',''
  ) );
#1550 = ORIENTED_EDGE('',*,*,#1551,.T.);
#1551 = EDGE_CURVE('',#1529,#1529,#1552,.T.);
#1552 = SURFACE_CURVE('',#1553,(#1558,#1565),.PCURVE_S1.);
#1553 = CIRCLE('',#1554,2.);
#1554 = AXIS2_PLACEMENT_3D('',#1555,#1556,#1557);
#1555 = CARTESIAN_POINT('',(88.,26.,15.));
#1556 = DIRECTION('',(0.,1.,-2.22044604925E-16));
#1557 = DIRECTION('',(1.,0.,0.));
#1558 = PCURVE('',#823,#1559);
#1559 = DEFINITIONAL_REPRESENTATION('',(#1560),#1564);
#1560 = LINE('',#1561,#1562);
#1561 = CARTESIAN_POINT('',(0.,0.));
#1562 = VECTOR('',#1563,1.);
#1563 = DIRECTION('',(1.,0.));
#1564 = ( GEOMETRIC_REPRESENTATION_CONTEXT(2) 
PARAMETRIC_REPRESENTATION_CONTEXT() REPRESENTATION_CONTEXT('2D SPACE',''
  ) );
#1565 = PCURVE('',#1566,#1571);
#1566 = PLANE('',#1567);
#1567 = AXIS2_PLACEMENT_3D('',#1568,#1569,#1570);
#1568 = CARTESIAN_POINT('',(88.,26.,15.));
#1569 = DIRECTION('',(0.,1.,-2.22044604925E-16));
#1570 = DIRECTION('',(1.,0.,0.));
#1571 = DEFINITIONAL_REPRESENTATION('',(#1572),#1576);
#1572 = CIRCLE('',#1573,2.);
#1573 = AXIS2_PLACEMENT_2D('',#1574,#1575);
#1574 = CARTESIAN_POINT('',(0.,0.));
#1575 = DIRECTION('',(1.,0.));
#1576 = ( GEOMETRIC_REPRESENTATION_CONTEXT(2) 
PARAMETRIC_REPRESENTATION_CONTEXT() REPRESENTATION_CONTEXT('2D SPACE',''
  ) );
#1577 = ORIENTED_EDGE('',*,*,#1528,.T.);
#1578 = ADVANCED_FACE('',(#1579),#877,.F.);
#1579 = FACE_BOUND('',#1580,.F.);
#1580 = EDGE_LOOP('',(#1581,#1604,#1625,#1626));
#1581 = ORIENTED_EDGE('',*,*,#1582,.F.);
#1582 = EDGE_CURVE('',#1583,#1583,#1585,.T.);
#1583 = VERTEX_POINT('',#1584);
#1584 = CARTESIAN_POINT('',(55.,15.,11.));
#1585 = SURFACE_CURVE('',#1586,(#1591,#1598),.PCURVE_S1.);
#1586 = CIRCLE('',#1587,4.);
#1587 = AXIS2_PLACEMENT_3D('',#1588,#1589,#1590);
#1588 = CARTESIAN_POINT('',(55.,15.,15.));
#1589 = DIRECTION('',(1.,-0.,1.110223024625E-16));
#1590 = DIRECTION('',(1.110223024625E-16,0.,-1.));
#1591 = PCURVE('',#877,#1592);
#1592 = DEFINITIONAL_REPRESENTATION('',(#1593),#1597);
#1593 = LINE('',#1594,#1595);
#1594 = CARTESIAN_POINT('',(-0.,-10.));
#1595 = VECTOR('',#1596,1.);
#1596 = DIRECTION('',(-1.,-0.));
#1597 = ( GEOMETRIC_REPRESENTATION_CONTEXT(2) 
PARAMETRIC_REPRESENTATION_CONTEXT() REPRESENTATION_CONTEXT('2D SPACE',''
  ) );
#1598 = PCURVE('',#1241,#1599);
#1599 = DEFINITIONAL_REPRESENTATION('',(#1600),#1603);
#1600 = B_SPLINE_CURVE_WITH_KNOTS('',1,(#1601,#1602),.UNSPECIFIED.,.F.,
  .F.,(2,2),(0.,6.28318530718),.PIECEWISE_BEZIER_KNOTS.);
#1601 = CARTESIAN_POINT('',(0.,0.));
#1602 = CARTESIAN_POINT('',(6.28318530718,0.));
#1603 = ( GEOMETRIC_REPRESENTATION_CONTEXT(2) 
PARAMETRIC_REPRESENTATION_CONTEXT() REPRESENTATION_CONTEXT('2D SPACE',''
  ) );
#1604 = ORIENTED_EDGE('',*,*,#1605,.F.);
#1605 = EDGE_CURVE('',#840,#1583,#1606,.T.);
#1606 = SEAM_CURVE('',#1607,(#1611,#1618),.PCURVE_S1.);
#1607 = LINE('',#1608,#1609);
#1608 = CARTESIAN_POINT('',(45.,15.,7.));
#1609 = VECTOR('',#1610,1.);
#1610 = DIRECTION('',(0.928476690885,9.096448060604E-17,0.371390676354)
  );
#1611 = PCURVE('',#877,#1612);
#1612 = DEFINITIONAL_REPRESENTATION('',(#1613),#1617);
#1613 = LINE('',#1614,#1615);
#1614 = CARTESIAN_POINT('',(-6.28318530718,0.));
#1615 = VECTOR('',#1616,1.);
#1616 = DIRECTION('',(-0.,-1.));
#1617 = ( GEOMETRIC_REPRESENTATION_CONTEXT(2) 
PARAMETRIC_REPRESENTATION_CONTEXT() REPRESENTATION_CONTEXT('2D SPACE',''
  ) );
#1618 = PCURVE('',#877,#1619);
#1619 = DEFINITIONAL_REPRESENTATION('',(#1620),#1624);
#1620 = LINE('',#1621,#1622);
#1621 = CARTESIAN_POINT('',(0.,-0.));
#1622 = VECTOR('',#1623,1.);
#1623 = DIRECTION('',(-0.,-1.));
#1624 = ( GEOMETRIC_REPRESENTATION_CONTEXT(2) 
PARAMETRIC_REPRESENTATION_CONTEXT() REPRESENTATION_CONTEXT('2D SPACE',''
  ) );
#1625 = ORIENTED_EDGE('',*,*,#862,.T.);
#1626 = ORIENTED_EDGE('',*,*,#1605,.T.);
#1627 = ADVANCED_FACE('',(#1628),#1241,.F.);
#1628 = FACE_BOUND('',#1629,.F.);
#1629 = EDGE_LOOP('',(#1630,#1631,#1652,#1653));
#1630 = ORIENTED_EDGE('',*,*,#1224,.F.);
#1631 = ORIENTED_EDGE('',*,*,#1632,.F.);
#1632 = EDGE_CURVE('',#1583,#1225,#1633,.T.);
#1633 = SEAM_CURVE('',#1634,(#1638,#1645),.PCURVE_S1.);
#1634 = LINE('',#1635,#1636);
#1635 = CARTESIAN_POINT('',(55.,15.,11.));
#1636 = VECTOR('',#1637,1.);
#1637 = DIRECTION('',(1.,0.,1.110223024625E-16));
#1638 = PCURVE('',#1241,#1639);
#1639 = DEFINITIONAL_REPRESENTATION('',(#1640),#1644);
#1640 = LINE('',#1641,#1642);
#1641 = CARTESIAN_POINT('',(6.28318530718,-0.));
#1642 = VECTOR('',#1643,1.);
#1643 = DIRECTION('',(0.,1.));
#1644 = ( GEOMETRIC_REPRESENTATION_CONTEXT(2) 
PARAMETRIC_REPRESENTATION_CONTEXT() REPRESENTATION_CONTEXT('2D SPACE',''
  ) );
#1645 = PCURVE('',#1241,#1646);
#1646 = DEFINITIONAL_REPRESENTATION('',(#1647),#1651);
#1647 = LINE('',#1648,#1649);
#1648 = CARTESIAN_POINT('',(0.,-0.));
#1649 = VECTOR('',#1650,1.);
#1650 = DIRECTION('',(0.,1.));
#1651 = ( GEOMETRIC_REPRESENTATION_CONTEXT(2) 
PARAMETRIC_REPRESENTATION_CONTEXT() REPRESENTATION_CONTEXT('2D SPACE',''
  ) );
#1652 = ORIENTED_EDGE('',*,*,#1582,.T.);
#1653 = ORIENTED_EDGE('',*,*,#1632,.T.);
#1654 = ADVANCED_FACE('',(#1655),#1374,.T.);
#1655 = FACE_BOUND('',#1656,.F.);
#1656 = EDGE_LOOP('',(#1657));
#1657 = ORIENTED_EDGE('',*,*,#1359,.F.);
#1658 = ADVANCED_FACE('',(#1659),#1429,.T.);
#1659 = FACE_BOUND('',#1660,.F.);
#1660 = EDGE_LOOP('',(#1661));
#1661 = ORIENTED_EDGE('',*,*,#1414,.F.);
#1662 = ADVANCED_FACE('',(#1663),#1511,.T.);
#1663 = FACE_BOUND('',#1664,.F.);
#1664 = EDGE_LOOP('',(#1665));
#1665 = ORIENTED_EDGE('',*,*,#1496,.F.);
#1666 = ADVANCED_FACE('',(#1667),#1566,.T.);
#1667 = FACE_BOUND('',#1668,.F.);
#1668 = EDGE_LOOP('',(#1669));
#1669 = ORIENTED_EDGE('',*,*,#1551,.F.);
#1670 = ( GEOMETRIC_REPRESENTATION_CONTEXT(3) 
GLOBAL_UNCERTAINTY_ASSIGNED_CONTEXT((#1674)) 
GLOBAL_UNIT_ASSIGNED_CONTEXT((#1671,#1672,#1673)) REPRESENTATION_CONTEXT
('Context #1','3D Context with UNIT and UNCERTAINTY') );
#1671 = ( LENGTH_UNIT() NAMED_UNIT(*) SI_UNIT(.MILLI.,.METRE.) );
#1672 = ( NAMED_UNIT(*) PLANE_ANGLE_UNIT() SI_UNIT($,.RADIAN.) );
#1673 = ( NAMED_UNIT(*) SI_UNIT($,.STERADIAN.) SOLID_ANGLE_UNIT() );
#1674 = UNCERTAINTY_MEASURE_WITH_UNIT(LENGTH_MEASURE(1.E-07),#1671,
  'distance_accuracy_value','confusion accuracy');
#1675 = PRODUCT_RELATED_PRODUCT_CATEGORY('part',$,(#7));
ENDSEC;
END-ISO-10303-21;
