ply
format ascii 1.0
element vertex 25
property float x
property float y
property float z
property float nx
property float ny
property float nz
element face 46
property list uchar int vertex_index
end_header
-0.0353553406894207 -0.0353553406894207 -30 -0.707106663276703 -0.707106663276703 -0.0005774940473509267
-0.04829629138112068 -0.012940952554345131 -30 -0.9659256543949584 -0.25881907892829276 0.0005608603942890588
-0.04330126941204071 -0.02500000037252903 -30 -0.8660254393062775 -0.49999993546525734 0.000054855335661424114
-0.02500000037252903 -0.04330126941204071 -30 -0.499999608118249 -0.8660248440886822 -0.0011667488038970889
-0.012940952554345131 -0.04829629138112068 -30 -0.2588188097787294 -0.9659246376501848 -0.001555019318520827
-0.05000000074505806 0 -30 -0.9999996760374448 0 0.0008049378894090149
-0.04829629138112068 0.012940952554345131 -30 -0.9659255582326671 0.25881903933037576 0.0007216876136213206
-0.04330126941204071 0.02500000037252903 -30 -0.8660253904763958 0.49999991188374626 0.0003334163347484161
-0.0353553406894207 0.0353553406894207 -30 -0.7071067580451557 0.7071067580451557 -0.0002558392840075637
-0.02500000037252903 0.04330126941204071 -30 -0.49999975974481103 0.8660250870364884 -0.00088818836630965
-0.012940952554345131 0.04829629138112068 -30 -0.2588188671665884 0.9659248677956096 -0.0013941924679640742
0 -0.05000000074505806 -30 0 -0.9999986580357066 -0.0016382694485711491
0.012940952554345131 -0.04829629138112068 -30 0.2588188671665884 -0.9659248677956096 -0.0013941924679640742
0.02500000037252903 -0.04330126941204071 -30 0.49999975974486277 -0.866025087036578 -0.0008881882498944205
0.0353553406894207 -0.0353553406894207 -30 0.7071067580451557 -0.7071067580451557 -0.0002558392840075637
0.04330126941204071 -0.02500000037252903 -30 0.8660253904763958 -0.49999991188374626 0.0003334163347484161
0.04829629138112068 -0.012940952554345131 -30 0.9659255582326671 -0.25881903933037576 0.0007216876136213206
0 0.05000000074505806 -30 0 0.9999986580357066 -0.0016382694485711491
0.012940952554345131 0.04829629138112068 -30 0.2588188097786357 0.9659246376498349 -0.0015550195513509117
0.02500000037252903 0.04330126941204071 -30 0.49999960811818106 0.8660248440885645 -0.001166748920312251
0.05000000074505806 0 -30 0.9999996760374448 0 0.0008049378894090149
0.04330126941204071 0.02500000037252903 -30 0.8660254393062755 0.49999993546525623 0.00005485537567919048
0.04829629138112068 0.012940952554345131 -30 0.9659256543949584 0.25881907892829276 0.0005608603942890588
0.0353553406894207 0.0353553406894207 -30 0.7071066632767269 0.7071066632767269 -0.0005774939891432842
0 0 30 -0.00001583275843381302 0.0000028786835169650403 0.9999999998705185
3 7 2 1
3 8 0 2
3 9 3 0
3 24 2 0
3 24 1 2
3 24 5 1
3 24 0 3
3 24 3 4
3 24 4 11
3 10 4 3
3 17 11 4
3 6 1 5
3 7 1 6
3 8 2 7
3 9 0 8
3 24 6 5
3 24 7 6
3 24 8 7
3 10 3 9
3 17 4 10
3 24 9 8
3 24 10 9
3 24 17 10
3 24 11 12
3 24 12 13
3 24 13 14
3 18 12 11
3 19 13 12
3 23 14 13
3 21 15 14
3 22 16 15
3 24 14 15
3 24 15 16
3 24 16 20
3 18 11 17
3 19 12 18
3 24 18 17
3 24 19 18
3 24 23 19
3 23 13 19
3 21 14 23
3 22 15 21
3 20 16 22
3 24 20 22
3 24 22 21
3 24 21 23

