o 
usemtl degenerate-coplanar-faces-union-material
v -10 -10 -10
v -10 -10 10
v -10 10 -10
v -10 10 10
v 10 -10 -10
v 30 -10 -10
v 10 -10 10
v 30 -10 10
v 10 10 -10
v 30 10 -10
v 10 10 10
v 30 10 10
vn -0.816496580927726 -0.408248290463863 -0.408248290463863
vn -0.408248290463863 -0.816496580927726 0.408248290463863
vn -0.3333333333333333 0.6666666666666666 -0.6666666666666666
vn -0.6666666666666666 0.3333333333333333 0.6666666666666666
vn 0 -0.7071067811865476 -0.7071067811865476
vn 0.3333333333333333 -0.6666666666666666 -0.6666666666666666
vn 0 -0.7071067811865476 0.7071067811865476
vn 0.6666666666666666 -0.3333333333333333 0.6666666666666666
vn 0 0.7071067811865476 -0.7071067811865476
vn 0.816496580927726 0.408248290463863 -0.408248290463863
vn 0 0.7071067811865476 0.7071067811865476
vn 0.408248290463863 0.816496580927726 0.408248290463863
f 1//1 5//5 2//2
f 1//1 3//3 5//5
f 1//1 2//2 4//4
f 2//2 7//7 4//4
f 2//2 5//5 7//7
f 1//1 4//4 3//3
f 3//3 9//9 5//5
f 3//3 11//11 9//9
f 3//3 4//4 11//11
f 4//4 7//7 11//11
f 6//6 7//7 5//5
f 6//6 5//5 9//9
f 6//6 10//10 8//8
f 8//8 11//11 7//7
f 6//6 8//8 7//7
f 6//6 9//9 10//10
f 10//10 9//9 12//12
f 12//12 9//9 11//11
f 8//8 10//10 12//12
f 8//8 12//12 11//11
