ply
format ascii 1.0
element vertex 12
property float x
property float y
property float z
property float nx
property float ny
property float nz
element face 20
property list uchar int vertex_index
end_header
-10 -10 -10 -0.816496580927726 -0.408248290463863 -0.408248290463863
-10 -10 10 -0.408248290463863 -0.816496580927726 0.408248290463863
-10 10 -10 -0.3333333333333333 0.6666666666666666 -0.6666666666666666
-10 10 10 -0.6666666666666666 0.3333333333333333 0.6666666666666666
10 -10 -10 0 -0.7071067811865476 -0.7071067811865476
30 -10 -10 0.3333333333333333 -0.6666666666666666 -0.6666666666666666
10 -10 10 0 -0.7071067811865476 0.7071067811865476
30 -10 10 0.6666666666666666 -0.3333333333333333 0.6666666666666666
10 10 -10 0 0.7071067811865476 -0.7071067811865476
30 10 -10 0.816496580927726 0.408248290463863 -0.408248290463863
10 10 10 0 0.7071067811865476 0.7071067811865476
30 10 10 0.408248290463863 0.816496580927726 0.408248290463863
3 0 4 1
3 0 2 4
3 0 1 3
3 1 6 3
3 1 4 6
3 0 3 2
3 2 8 4
3 2 10 8
3 2 3 10
3 3 6 10
3 5 6 4
3 5 4 8
3 5 9 7
3 7 10 6
3 5 7 6
3 5 8 9
3 9 8 11
3 11 8 10
3 7 9 11
3 7 11 10

