ply
format ascii 1.0
element vertex 16
property float x
property float y
property float z
property float nx
property float ny
property float nz
element face 24
property list uchar int vertex_index
end_header
-5 -5 -5 -0.816496580927726 -0.408248290463863 -0.408248290463863
5 -5 -5 0.3333333333333333 -0.6666666666666666 -0.6666666666666666
-5 -5 5 -0.408248290463863 -0.816496580927726 0.408248290463863
5 -5 5 0.6666666666666666 -0.3333333333333333 0.6666666666666666
-5 5 -5 -0.3333333333333333 0.6666666666666666 -0.6666666666666666
5 5 -5 0.816496580927726 0.408248290463863 -0.408248290463863
-5 5 5 -0.6666666666666666 0.3333333333333333 0.6666666666666666
5 5 5 0.408248290463863 0.816496580927726 0.408248290463863
55 -5 -5 -0.816496580927726 -0.408248290463863 -0.408248290463863
65 -5 -5 0.3333333333333333 -0.6666666666666666 -0.6666666666666666
55 -5 5 -0.408248290463863 -0.816496580927726 0.408248290463863
65 -5 5 0.6666666666666666 -0.3333333333333333 0.6666666666666666
55 5 -5 -0.3333333333333333 0.6666666666666666 -0.6666666666666666
65 5 -5 0.816496580927726 0.408248290463863 -0.408248290463863
55 5 5 -0.6666666666666666 0.3333333333333333 0.6666666666666666
65 5 5 0.408248290463863 0.816496580927726 0.408248290463863
3 2 0 1
3 4 1 0
3 3 1 5
3 3 2 1
3 2 6 0
3 6 2 3
3 5 1 4
3 6 4 0
3 7 5 4
3 7 3 5
3 7 6 3
3 6 7 4
3 10 8 9
3 12 9 8
3 11 9 13
3 11 10 9
3 10 14 8
3 14 10 11
3 13 9 12
3 14 12 8
3 15 13 12
3 15 11 13
3 15 14 11
3 14 15 12

