o 
usemtl boolean-union-cube-cylinder-boss-material
v -15 -15 -5
v -15 -15 5
v -4.242640495300293 -4.242640495300293 5
v -5.884711742401123 -1.1705418825149536 5
v -4.9888176918029785 -3.333421468734741 5
v -5.543277263641357 -2.296100616455078 5
v -3.333421468734741 -4.9888176918029785 5
v -2.296100616455078 -5.543277263641357 5
v -1.1705418825149536 -5.884711742401123 5
v -4.242640495300293 -4.242640495300293 13
v -5.884711742401123 -1.1705418825149536 13
v -4.9888176918029785 -3.333421468734741 13
v -5.543277263641357 -2.296100616455078 13
v -3.333421468734741 -4.9888176918029785 13
v -2.296100616455078 -5.543277263641357 13
v -1.1705418825149536 -5.884711742401123 13
v -15 15 -5
v -15 15 5
v -6 0 5
v -5.884711742401123 1.1705418825149536 5
v -5.543277263641357 2.296100616455078 5
v -4.9888176918029785 3.333421468734741 5
v -4.242640495300293 4.242640495300293 5
v -3.333421468734741 4.9888176918029785 5
v -2.296100616455078 5.543277263641357 5
v -1.1705418825149536 5.884711742401123 5
v -6 0 13
v -5.884711742401123 1.1705418825149536 13
v -5.543277263641357 2.296100616455078 13
v -4.9888176918029785 3.333421468734741 13
v -4.242640495300293 4.242640495300293 13
v -3.333421468734741 4.9888176918029785 13
v -2.296100616455078 5.543277263641357 13
v -1.1705418825149536 5.884711742401123 13
v 15 -15 -5
v 0 -6 5
v 1.1705418825149536 -5.884711742401123 5
v 2.296100616455078 -5.543277263641357 5
v 3.333421468734741 -4.9888176918029785 5
v 4.242640495300293 -4.242640495300293 5
v 4.9888176918029785 -3.333421468734741 5
v 5.543277263641357 -2.296100616455078 5
v 5.884711742401123 -1.1705418825149536 5
v 0 -6 13
v 1.1705418825149536 -5.884711742401123 13
v 2.296100616455078 -5.543277263641357 13
v 3.333421468734741 -4.9888176918029785 13
v 4.242640495300293 -4.242640495300293 13
v 4.9888176918029785 -3.333421468734741 13
v 5.543277263641357 -2.296100616455078 13
v 5.884711742401123 -1.1705418825149536 13
v 15 -15 5
v 15 15 -5
v 0 6 5
v 1.1705418825149536 5.884711742401123 5
v 2.296100616455078 5.543277263641357 5
v 3.333421468734741 4.9888176918029785 5
v 5.543277263641357 2.296100616455078 5
v 4.9888176918029785 3.333421468734741 5
v 6 0 5
v 5.884711742401123 1.1705418825149536 5
v 4.242640495300293 4.242640495300293 5
v 0 6 13
v 1.1705418825149536 5.884711742401123 13
v 2.296100616455078 5.543277263641357 13
v 3.333421468734741 4.9888176918029785 13
v 5.543277263641357 2.296100616455078 13
v 4.9888176918029785 3.333421468734741 13
v 6 0 13
v 5.884711742401123 1.1705418825149536 13
v 4.242640495300293 4.242640495300293 13
v 15 15 5
vn -0.5345224710524249 -0.26726123552621245 -0.8017837363809595
vn -0.31212511251011066 -0.6242502250202213 0.7161630894585073
vn -0.45220393272677234 -0.42345568846965637 0.7849820909607619
vn -0.7084552441420658 -0.11689817568383862 0.6960071720674984
vn -0.5349121675956534 -0.3325602701642626 0.7767062763145359
vn -0.6194648030753699 -0.2330837206155765 0.7496234634366731
vn -0.3669292145207315 -0.5119475283213072 0.776706302135436
vn -0.2732126652077872 -0.6028428539763071 0.7496234607986587
vn -0.16311420777814067 -0.6992623328931409 0.6960071443726361
vn -0.5279048080226761 -0.5637440080086632 0.6352237456997887
vn -0.9695975692223211 -0.2261742630873589 0.09341175769172029
vn -0.7170458820428545 -0.5139297691297304 0.4708730141425041
vn -0.877573735781154 -0.39772269456957465 0.26773306947671943
vn -0.35514310609504757 -0.5712358453184679 0.7399749882370736
vn -0.21220754604016082 -0.563982321652378 0.798055072201917
vn -0.09194874158544893 -0.5572504486122424 0.8252377635822946
vn -0.15617376188860604 0.3123475237772121 -0.9370425713316363
vn -0.6441647409206028 0.3220823704603014 0.6937685011539265
vn -0.7997242302899824 0.02625530801656943 0.5997931429151641
vn -0.09168068922941848 0.021385999065962863 0.9955587829286472
vn -0.6028428539763071 0.2732126652077872 0.7496234607986587
vn -0.5119475102188621 0.36692917174380624 0.7767063342757753
vn -0.42345568846965637 0.45220393272677234 0.7849820909607619
vn -0.3325602701642626 0.5349121675956534 0.7767062763145359
vn -0.2330837206155765 0.6194648030753699 0.7496234634366731
vn -0.015326587262552725 0.09288596973158843 0.9955587839750628
vn -0.9994154431485203 -0.03281125752529967 0.009601738168434461
vn -0.9859455212947553 0.16268527483189218 0.03801224002456329
vn -0.921958849564098 0.346902037295227 0.1721942398306807
vn -0.7887609715470155 0.49038065191370983 0.37065205515805916
vn -0.6045192740858827 0.5660878068023012 0.5604471806053071
vn -0.41910551583134625 0.5847450300079677 0.6945673592105533
vn -0.26151204720569393 0.5770254866078531 0.7737267198250665
vn -0.13170370618502222 0.5646070906113737 0.8147840002163085
vn 0.15617376188860604 -0.3123475237772121 -0.9370425713316363
vn -0.02625530801656943 -0.7997242302899824 0.5997931429151641
vn 0.015326587262552725 -0.09288596973158843 0.9955587839750628
vn 0.2330837206155765 -0.6194648030753699 0.7496234634366731
vn 0.3325602653713857 -0.534912100281826 0.7767063247252461
vn 0.42345568846965637 -0.45220393272677234 0.7849820909607619
vn 0.5119475283213072 -0.3669292145207315 0.776706302135436
vn 0.6028428539763071 -0.2732126652077872 0.7496234607986587
vn 0.09168068922941848 -0.021385999065962863 0.9955587829286472
vn 0.018289027521841857 -0.5570751363497167 0.8302606843234538
vn 0.13170370618502222 -0.5646070906113737 0.8147840002163085
vn 0.2615120351453583 -0.5770254599967615 0.7737267437472086
vn 0.41910553318208 -0.5847450542160846 0.6945673283606079
vn 0.6045192740858827 -0.5660878068023012 0.5604471806053071
vn 0.7887609715470155 -0.49038065191370983 0.37065205515805916
vn 0.921958849564098 -0.346902037295227 0.1721942398306807
vn 0.9859455212947553 -0.16268527483189218 0.03801224002456329
vn 0.6441647409206028 -0.3220823704603014 0.6937685011539265
vn 0.5345224710524249 0.26726123552621245 -0.8017837363809595
vn 0.02625530801656943 0.7997242302899824 0.5997931429151641
vn 0.16311420777814067 0.6992623328931409 0.6960071443726361
vn 0.2732126652077872 0.6028428539763071 0.7496234607986587
vn 0.36692917174380624 0.5119475102188621 0.7767063342757753
vn 0.6194648030753699 0.2330837206155765 0.7496234634366731
vn 0.534912100281826 0.3325602653713857 0.7767063247252461
vn 0.7997242302899824 -0.02625530801656943 0.5997931429151641
vn 0.7084552441420658 0.11689817568383862 0.6960071720674984
vn 0.45220393272677234 0.42345568846965637 0.7849820909607619
vn -0.018289027521841857 0.5570751363497167 0.8302606843234538
vn 0.09194874158544893 0.5572504486122424 0.8252377635822946
vn 0.21220754604016082 0.563982321652378 0.798055072201917
vn 0.3551430940030249 0.5712358854734965 0.7399749630421757
vn 0.8775737461830881 0.39772266948148266 0.26773307265017554
vn 0.7170458820428545 0.5139297691297304 0.4708730141425041
vn 0.9994154431485203 0.03281125752529967 0.009601738168434461
vn 0.9695975692223211 0.2261742630873589 0.09341175769172029
vn 0.5279048080226761 0.5637440080086632 0.6352237456997887
vn 0.31212511251011066 0.6242502250202213 0.7161630894585073
f 1//1 2//2 18//18
f 1//1 35//35 2//2
f 1//1 17//17 35//35
f 2//2 3//3 5//5
f 2//2 7//7 3//3
f 2//2 5//5 6//6
f 2//2 6//6 4//4
f 2//2 4//4 19//19
f 2//2 19//19 20//20
f 2//2 8//8 7//7
f 2//2 9//9 8//8
f 2//2 36//36 9//9
f 2//2 37//37 36//36
f 1//1 18//18 17//17
f 17//17 18//18 72//72
f 2//2 20//20 18//18
f 18//18 20//20 21//21
f 18//18 21//21 22//22
f 18//18 22//22 23//23
f 18//18 23//23 24//24
f 18//18 24//24 25//25
f 18//18 25//25 26//26
f 18//18 26//26 72//72
f 2//2 35//35 52//52
f 35//35 53//53 52//52
f 2//2 52//52 37//37
f 52//52 38//38 37//37
f 52//52 39//39 38//38
f 52//52 40//40 39//39
f 52//52 41//41 40//40
f 52//52 42//42 41//41
f 52//52 43//43 42//42
f 52//52 72//72 43//43
f 17//17 53//53 35//35
f 17//17 72//72 53//53
f 52//52 53//53 72//72
f 72//72 26//26 54//54
f 72//72 54//54 55//55
f 72//72 55//55 56//56
f 72//72 56//56 57//57
f 72//72 60//60 43//43
f 72//72 61//61 60//60
f 72//72 58//58 61//61
f 72//72 59//59 58//58
f 72//72 57//57 62//62
f 72//72 62//62 59//59
f 10//10 3//3 7//7
f 11//11 4//4 6//6
f 27//27 19//19 4//4
f 12//12 5//5 3//3
f 13//13 6//6 5//5
f 15//15 8//8 9//9
f 14//14 7//7 8//8
f 16//16 9//9 36//36
f 12//12 3//3 10//10
f 13//13 11//11 6//6
f 11//11 27//27 4//4
f 12//12 13//13 5//5
f 13//13 29//29 11//11
f 12//12 30//30 13//13
f 12//12 10//10 31//31
f 14//14 10//10 7//7
f 14//14 8//8 15//15
f 15//15 9//9 16//16
f 16//16 36//36 44//44
f 14//14 32//32 10//10
f 14//14 15//15 33//33
f 16//16 44//44 63//63
f 15//15 16//16 34//34
f 28//28 20//20 19//19
f 29//29 21//21 20//20
f 30//30 22//22 21//21
f 31//31 23//23 22//22
f 32//32 24//24 23//23
f 33//33 25//25 24//24
f 34//34 26//26 25//25
f 63//63 54//54 26//26
f 27//27 28//28 19//19
f 28//28 29//29 20//20
f 29//29 30//30 21//21
f 30//30 31//31 22//22
f 11//11 28//28 27//27
f 11//11 29//29 28//28
f 13//13 30//30 29//29
f 12//12 31//31 30//30
f 10//10 32//32 31//31
f 31//31 32//32 23//23
f 14//14 33//33 32//32
f 15//15 34//34 33//33
f 16//16 63//63 34//34
f 32//32 33//33 24//24
f 33//33 34//34 25//25
f 34//34 63//63 26//26
f 44//44 36//36 37//37
f 45//45 37//37 38//38
f 46//46 38//38 39//39
f 47//47 39//39 40//40
f 48//48 40//40 41//41
f 49//49 41//41 42//42
f 50//50 42//42 43//43
f 51//51 43//43 60//60
f 44//44 37//37 45//45
f 45//45 38//38 46//46
f 46//46 39//39 47//47
f 44//44 45//45 64//64
f 45//45 46//46 65//65
f 46//46 47//47 66//66
f 47//47 40//40 48//48
f 48//48 41//41 49//49
f 49//49 42//42 50//50
f 50//50 43//43 51//51
f 51//51 60//60 69//69
f 47//47 48//48 71//71
f 48//48 49//49 68//68
f 49//49 50//50 67//67
f 50//50 51//51 70//70
f 64//64 55//55 54//54
f 66//66 57//57 56//56
f 65//65 56//56 55//55
f 67//67 58//58 59//59
f 68//68 59//59 62//62
f 69//69 60//60 61//61
f 70//70 61//61 58//58
f 71//71 62//62 57//57
f 45//45 65//65 64//64
f 44//44 64//64 63//63
f 46//46 66//66 65//65
f 47//47 71//71 66//66
f 63//63 64//64 54//54
f 64//64 65//65 55//55
f 65//65 66//66 56//56
f 71//71 57//57 66//66
f 67//67 59//59 68//68
f 69//69 61//61 70//70
f 70//70 58//58 67//67
f 48//48 68//68 71//71
f 49//49 67//67 68//68
f 50//50 70//70 67//67
f 51//51 69//69 70//70
f 71//71 68//68 62//62
