ply
format ascii 1.0
element vertex 72
property float x
property float y
property float z
property float nx
property float ny
property float nz
element face 140
property list uchar int vertex_index
end_header
-15 -15 -5 -0.5345224710524249 -0.26726123552621245 -0.8017837363809595
-15 -15 5 -0.31212511251011066 -0.6242502250202213 0.7161630894585073
-4.242640495300293 -4.242640495300293 5 -0.45220393272677234 -0.42345568846965637 0.7849820909607619
-5.884711742401123 -1.1705418825149536 5 -0.7084552441420658 -0.11689817568383862 0.6960071720674984
-4.9888176918029785 -3.333421468734741 5 -0.5349121675956534 -0.3325602701642626 0.7767062763145359
-5.543277263641357 -2.296100616455078 5 -0.6194648030753699 -0.2330837206155765 0.7496234634366731
-3.333421468734741 -4.9888176918029785 5 -0.3669292145207315 -0.5119475283213072 0.776706302135436
-2.296100616455078 -5.543277263641357 5 -0.2732126652077872 -0.6028428539763071 0.7496234607986587
-1.1705418825149536 -5.884711742401123 5 -0.16311420777814067 -0.6992623328931409 0.6960071443726361
-4.242640495300293 -4.242640495300293 13 -0.5279048080226761 -0.5637440080086632 0.6352237456997887
-5.884711742401123 -1.1705418825149536 13 -0.9695975692223211 -0.2261742630873589 0.09341175769172029
-4.9888176918029785 -3.333421468734741 13 -0.7170458820428545 -0.5139297691297304 0.4708730141425041
-5.543277263641357 -2.296100616455078 13 -0.877573735781154 -0.39772269456957465 0.26773306947671943
-3.333421468734741 -4.9888176918029785 13 -0.35514310609504757 -0.5712358453184679 0.7399749882370736
-2.296100616455078 -5.543277263641357 13 -0.21220754604016082 -0.563982321652378 0.798055072201917
-1.1705418825149536 -5.884711742401123 13 -0.09194874158544893 -0.5572504486122424 0.8252377635822946
-15 15 -5 -0.15617376188860604 0.3123475237772121 -0.9370425713316363
-15 15 5 -0.6441647409206028 0.3220823704603014 0.6937685011539265
-6 0 5 -0.7997242302899824 0.02625530801656943 0.5997931429151641
-5.884711742401123 1.1705418825149536 5 -0.09168068922941848 0.021385999065962863 0.9955587829286472
-5.543277263641357 2.296100616455078 5 -0.6028428539763071 0.2732126652077872 0.7496234607986587
-4.9888176918029785 3.333421468734741 5 -0.5119475102188621 0.36692917174380624 0.7767063342757753
-4.242640495300293 4.242640495300293 5 -0.42345568846965637 0.45220393272677234 0.7849820909607619
-3.333421468734741 4.9888176918029785 5 -0.3325602701642626 0.5349121675956534 0.7767062763145359
-2.296100616455078 5.543277263641357 5 -0.2330837206155765 0.6194648030753699 0.7496234634366731
-1.1705418825149536 5.884711742401123 5 -0.015326587262552725 0.09288596973158843 0.9955587839750628
-6 0 13 -0.9994154431485203 -0.03281125752529967 0.009601738168434461
-5.884711742401123 1.1705418825149536 13 -0.9859455212947553 0.16268527483189218 0.03801224002456329
-5.543277263641357 2.296100616455078 13 -0.921958849564098 0.346902037295227 0.1721942398306807
-4.9888176918029785 3.333421468734741 13 -0.7887609715470155 0.49038065191370983 0.37065205515805916
-4.242640495300293 4.242640495300293 13 -0.6045192740858827 0.5660878068023012 0.5604471806053071
-3.333421468734741 4.9888176918029785 13 -0.41910551583134625 0.5847450300079677 0.6945673592105533
-2.296100616455078 5.543277263641357 13 -0.26151204720569393 0.5770254866078531 0.7737267198250665
-1.1705418825149536 5.884711742401123 13 -0.13170370618502222 0.5646070906113737 0.8147840002163085
15 -15 -5 0.15617376188860604 -0.3123475237772121 -0.9370425713316363
0 -6 5 -0.02625530801656943 -0.7997242302899824 0.5997931429151641
1.1705418825149536 -5.884711742401123 5 0.015326587262552725 -0.09288596973158843 0.9955587839750628
2.296100616455078 -5.543277263641357 5 0.2330837206155765 -0.6194648030753699 0.7496234634366731
3.333421468734741 -4.9888176918029785 5 0.3325602653713857 -0.534912100281826 0.7767063247252461
4.242640495300293 -4.242640495300293 5 0.42345568846965637 -0.45220393272677234 0.7849820909607619
4.9888176918029785 -3.333421468734741 5 0.5119475283213072 -0.3669292145207315 0.776706302135436
5.543277263641357 -2.296100616455078 5 0.6028428539763071 -0.2732126652077872 0.7496234607986587
5.884711742401123 -1.1705418825149536 5 0.09168068922941848 -0.021385999065962863 0.9955587829286472
0 -6 13 0.018289027521841857 -0.5570751363497167 0.8302606843234538
1.1705418825149536 -5.884711742401123 13 0.13170370618502222 -0.5646070906113737 0.8147840002163085
2.296100616455078 -5.543277263641357 13 0.2615120351453583 -0.5770254599967615 0.7737267437472086
3.333421468734741 -4.9888176918029785 13 0.41910553318208 -0.5847450542160846 0.6945673283606079
4.242640495300293 -4.242640495300293 13 0.6045192740858827 -0.5660878068023012 0.5604471806053071
4.9888176918029785 -3.333421468734741 13 0.7887609715470155 -0.49038065191370983 0.37065205515805916
5.543277263641357 -2.296100616455078 13 0.921958849564098 -0.346902037295227 0.1721942398306807
5.884711742401123 -1.1705418825149536 13 0.9859455212947553 -0.16268527483189218 0.03801224002456329
15 -15 5 0.6441647409206028 -0.3220823704603014 0.6937685011539265
15 15 -5 0.5345224710524249 0.26726123552621245 -0.8017837363809595
0 6 5 0.02625530801656943 0.7997242302899824 0.5997931429151641
1.1705418825149536 5.884711742401123 5 0.16311420777814067 0.6992623328931409 0.6960071443726361
2.296100616455078 5.543277263641357 5 0.2732126652077872 0.6028428539763071 0.7496234607986587
3.333421468734741 4.9888176918029785 5 0.36692917174380624 0.5119475102188621 0.7767063342757753
5.543277263641357 2.296100616455078 5 0.6194648030753699 0.2330837206155765 0.7496234634366731
4.9888176918029785 3.333421468734741 5 0.534912100281826 0.3325602653713857 0.7767063247252461
6 0 5 0.7997242302899824 -0.02625530801656943 0.5997931429151641
5.884711742401123 1.1705418825149536 5 0.7084552441420658 0.11689817568383862 0.6960071720674984
4.242640495300293 4.242640495300293 5 0.45220393272677234 0.42345568846965637 0.7849820909607619
0 6 13 -0.018289027521841857 0.5570751363497167 0.8302606843234538
1.1705418825149536 5.884711742401123 13 0.09194874158544893 0.5572504486122424 0.8252377635822946
2.296100616455078 5.543277263641357 13 0.21220754604016082 0.563982321652378 0.798055072201917
3.333421468734741 4.9888176918029785 13 0.3551430940030249 0.5712358854734965 0.7399749630421757
5.543277263641357 2.296100616455078 13 0.8775737461830881 0.39772266948148266 0.26773307265017554
4.9888176918029785 3.333421468734741 13 0.7170458820428545 0.5139297691297304 0.4708730141425041
6 0 13 0.9994154431485203 0.03281125752529967 0.009601738168434461
5.884711742401123 1.1705418825149536 13 0.9695975692223211 0.2261742630873589 0.09341175769172029
4.242640495300293 4.242640495300293 13 0.5279048080226761 0.5637440080086632 0.6352237456997887
15 15 5 0.31212511251011066 0.6242502250202213 0.7161630894585073
3 0 1 17
3 0 34 1
3 0 16 34
3 1 2 4
3 1 6 2
3 1 4 5
3 1 5 3
3 1 3 18
3 1 18 19
3 1 7 6
3 1 8 7
3 1 35 8
3 1 36 35
3 0 17 16
3 16 17 71
3 1 19 17
3 17 19 20
3 17 20 21
3 17 21 22
3 17 22 23
3 17 23 24
3 17 24 25
3 17 25 71
3 1 34 51
3 34 52 51
3 1 51 36
3 51 37 36
3 51 38 37
3 51 39 38
3 51 40 39
3 51 41 40
3 51 42 41
3 51 71 42
3 16 52 34
3 16 71 52
3 51 52 71
3 71 25 53
3 71 53 54
3 71 54 55
3 71 55 56
3 71 59 42
3 71 60 59
3 71 57 60
3 71 58 57
3 71 56 61
3 71 61 58
3 9 2 6
3 10 3 5
3 26 18 3
3 11 4 2
3 12 5 4
3 14 7 8
3 13 6 7
3 15 8 35
3 11 2 9
3 12 10 5
3 10 26 3
3 11 12 4
3 12 28 10
3 11 29 12
3 11 9 30
3 13 9 6
3 13 7 14
3 14 8 15
3 15 35 43
3 13 31 9
3 13 14 32
3 15 43 62
3 14 15 33
3 27 19 18
3 28 20 19
3 29 21 20
3 30 22 21
3 31 23 22
3 32 24 23
3 33 25 24
3 62 53 25
3 26 27 18
3 27 28 19
3 28 29 20
3 29 30 21
3 10 27 26
3 10 28 27
3 12 29 28
3 11 30 29
3 9 31 30
3 30 31 22
3 13 32 31
3 14 33 32
3 15 62 33
3 31 32 23
3 32 33 24
3 33 62 25
3 43 35 36
3 44 36 37
3 45 37 38
3 46 38 39
3 47 39 40
3 48 40 41
3 49 41 42
3 50 42 59
3 43 36 44
3 44 37 45
3 45 38 46
3 43 44 63
3 44 45 64
3 45 46 65
3 46 39 47
3 47 40 48
3 48 41 49
3 49 42 50
3 50 59 68
3 46 47 70
3 47 48 67
3 48 49 66
3 49 50 69
3 63 54 53
3 65 56 55
3 64 55 54
3 66 57 58
3 67 58 61
3 68 59 60
3 69 60 57
3 70 61 56
3 44 64 63
3 43 63 62
3 45 65 64
3 46 70 65
3 62 63 53
3 63 64 54
3 64 65 55
3 70 56 65
3 66 58 67
3 68 60 69
3 69 57 66
3 47 67 70
3 48 66 67
3 49 69 66
3 50 68 69
3 70 67 61

