o 
usemtl solid-one-hole-elevated-negative-material
v 0 0 -5
v 1 0.5 -5
v 0 0 -4.75
v 1 0.5 -4.75
v 0 2 -5
v 1 1.5 -5
v 0 2 -4.75
v 1 1.5 -4.75
v 2 0.5 -5
v 4 0 -5
v 2 0.5 -4.75
v 4 0 -4.75
v 2 1.5 -5
v 4 2 -5
v 2 1.5 -4.75
v 4 2 -4.75
vn -0.23570226039551584 -0.23570226039551584 -0.9428090415820634
vn 0.045221562159013656 0.09044312431802731 -0.9948743898500415
vn -0.1111111111111111 -0.4444444444444444 0.8888888888888888
vn 0.09044312431802731 0.045221562159013656 0.9948743898500415
vn -0.0851256554514223 0.3405026218056892 -0.9363821801633228
vn 0.3123475237772121 -0.15617376188860604 -0.9370425713316363
vn -0.1760901761825583 0.1760901761825583 0.9684959988063923
vn 0.15617376188860604 -0.3123475237772121 0.9370425713316363
vn -0.07664016709284838 0.03832008354642419 -0.9963221647564482
vn 0.07332355594845812 -0.29329422379383246 -0.9532062496816974
vn -0.03832008354642419 0.07664016709284838 0.9963221647564482
vn 0.15032920341169462 -0.15032920341169462 0.9771398370771762
vn -0.055131787087780486 -0.11026357417556097 -0.9923721228765638
vn 0.12309149097933274 0.12309149097933274 -0.9847319278346619
vn -0.11026357417556097 -0.055131787087780486 0.9923721228765638
vn 0.060522753266880246 0.24209101306752098 0.9683640522700839
f 2//2 1//1 5//5
f 2//2 10//10 1//1
f 3//3 1//1 10//10
f 4//4 2//2 6//6
f 11//11 9//9 2//2
f 3//3 7//7 1//1
f 4//4 7//7 3//3
f 4//4 3//3 12//12
f 4//4 11//11 2//2
f 2//2 5//5 6//6
f 7//7 5//5 1//1
f 6//6 5//5 13//13
f 8//8 6//6 13//13
f 4//4 8//8 7//7
f 8//8 4//4 6//6
f 7//7 16//16 5//5
f 15//15 8//8 13//13
f 8//8 15//15 7//7
f 2//2 9//9 10//10
f 10//10 9//9 14//14
f 12//12 10//10 14//14
f 12//12 3//3 10//10
f 4//4 12//12 11//11
f 11//11 15//15 9//9
f 12//12 16//16 11//11
f 14//14 9//9 13//13
f 15//15 13//13 9//9
f 13//13 5//5 14//14
f 16//16 14//14 5//5
f 16//16 15//15 11//11
f 15//15 16//16 7//7
f 16//16 12//12 14//14
