solid exported
	facet normal 0 0 -1
		outer loop
			vertex 1 0.5 -5
			vertex 0 0 -5
			vertex 0 2 -5
		endloop
	endfacet
	facet normal 0 0 -1
		outer loop
			vertex 1 0.5 -5
			vertex 4 0 -5
			vertex 0 0 -5
		endloop
	endfacet
	facet normal 0 -1 0
		outer loop
			vertex 0 0 -4.75
			vertex 0 0 -5
			vertex 4 0 -5
		endloop
	endfacet
	facet normal 1 0 0
		outer loop
			vertex 1 0.5 -4.75
			vertex 1 0.5 -5
			vertex 1 1.5 -5
		endloop
	endfacet
	facet normal 0 1 0
		outer loop
			vertex 2 0.5 -4.75
			vertex 2 0.5 -5
			vertex 1 0.5 -5
		endloop
	endfacet
	facet normal -1 0 0
		outer loop
			vertex 0 0 -4.75
			vertex 0 2 -4.75
			vertex 0 0 -5
		endloop
	endfacet
	facet normal 0 0 1
		outer loop
			vertex 1 0.5 -4.75
			vertex 0 2 -4.75
			vertex 0 0 -4.75
		endloop
	endfacet
	facet normal 0 0 1
		outer loop
			vertex 1 0.5 -4.75
			vertex 0 0 -4.75
			vertex 4 0 -4.75
		endloop
	endfacet
	facet normal 0 1 0
		outer loop
			vertex 1 0.5 -4.75
			vertex 2 0.5 -4.75
			vertex 1 0.5 -5
		endloop
	endfacet
	facet normal 0 0 -1
		outer loop
			vertex 1 0.5 -5
			vertex 0 2 -5
			vertex 1 1.5 -5
		endloop
	endfacet
	facet normal -1 0 0
		outer loop
			vertex 0 2 -4.75
			vertex 0 2 -5
			vertex 0 0 -5
		endloop
	endfacet
	facet normal 0 0 -1
		outer loop
			vertex 1 1.5 -5
			vertex 0 2 -5
			vertex 2 1.5 -5
		endloop
	endfacet
	facet normal 0 -1 0
		outer loop
			vertex 1 1.5 -4.75
			vertex 1 1.5 -5
			vertex 2 1.5 -5
		endloop
	endfacet
	facet normal 0 0 1
		outer loop
			vertex 1 0.5 -4.75
			vertex 1 1.5 -4.75
			vertex 0 2 -4.75
		endloop
	endfacet
	facet normal 1 0 0
		outer loop
			vertex 1 1.5 -4.75
			vertex 1 0.5 -4.75
			vertex 1 1.5 -5
		endloop
	endfacet
	facet normal 0 1 0
		outer loop
			vertex 0 2 -4.75
			vertex 4 2 -4.75
			vertex 0 2 -5
		endloop
	endfacet
	facet normal 0 -1 0
		outer loop
			vertex 2 1.5 -4.75
			vertex 1 1.5 -4.75
			vertex 2 1.5 -5
		endloop
	endfacet
	facet normal 0 0 1
		outer loop
			vertex 1 1.5 -4.75
			vertex 2 1.5 -4.75
			vertex 0 2 -4.75
		endloop
	endfacet
	facet normal 0 0 -1
		outer loop
			vertex 1 0.5 -5
			vertex 2 0.5 -5
			vertex 4 0 -5
		endloop
	endfacet
	facet normal 0 0 -1
		outer loop
			vertex 4 0 -5
			vertex 2 0.5 -5
			vertex 4 2 -5
		endloop
	endfacet
	facet normal 1 0 0
		outer loop
			vertex 4 0 -4.75
			vertex 4 0 -5
			vertex 4 2 -5
		endloop
	endfacet
	facet normal 0 -1 0
		outer loop
			vertex 4 0 -4.75
			vertex 0 0 -4.75
			vertex 4 0 -5
		endloop
	endfacet
	facet normal 0 0 1
		outer loop
			vertex 1 0.5 -4.75
			vertex 4 0 -4.75
			vertex 2 0.5 -4.75
		endloop
	endfacet
	facet normal -1 0 0
		outer loop
			vertex 2 0.5 -4.75
			vertex 2 1.5 -4.75
			vertex 2 0.5 -5
		endloop
	endfacet
	facet normal 0 0 1
		outer loop
			vertex 4 0 -4.75
			vertex 4 2 -4.75
			vertex 2 0.5 -4.75
		endloop
	endfacet
	facet normal 0 0 -1
		outer loop
			vertex 4 2 -5
			vertex 2 0.5 -5
			vertex 2 1.5 -5
		endloop
	endfacet
	facet normal -1 0 0
		outer loop
			vertex 2 1.5 -4.75
			vertex 2 1.5 -5
			vertex 2 0.5 -5
		endloop
	endfacet
	facet normal 0 0 -1
		outer loop
			vertex 2 1.5 -5
			vertex 0 2 -5
			vertex 4 2 -5
		endloop
	endfacet
	facet normal 0 1 0
		outer loop
			vertex 4 2 -4.75
			vertex 4 2 -5
			vertex 0 2 -5
		endloop
	endfacet
	facet normal 0 0 1
		outer loop
			vertex 4 2 -4.75
			vertex 2 1.5 -4.75
			vertex 2 0.5 -4.75
		endloop
	endfacet
	facet normal 0 0 1
		outer loop
			vertex 2 1.5 -4.75
			vertex 4 2 -4.75
			vertex 0 2 -4.75
		endloop
	endfacet
	facet normal 1 0 0
		outer loop
			vertex 4 2 -4.75
			vertex 4 0 -4.75
			vertex 4 2 -5
		endloop
	endfacet
endsolid exported
