ply
format ascii 1.0
element vertex 198
property float x
property float y
property float z
property float nx
property float ny
property float nz
element face 404
property list uchar int vertex_index
end_header
-15 -15 -15 -0.5305853505427863 -0.5305853505427863 -0.6610282683658673
-15 -4.6193976402282715 -1.9134172201156616 -0.9958954936571254 0.08469308816704471 0.031925640638205334
-15 -4.157348155975342 -2.777851104736328 -0.7018586404139114 0.6045800453466296 0.37666618861400764
-15 -4.903926372528076 -0.9754515886306763 -0.4097909358897092 0.8999787033560335 0.14869338374059826
-15 -2.777851104736328 -4.157348155975342 -0.6605791616820011 0.43651111039195456 0.6108135735687995
-15 -1.9134172201156616 -4.6193976402282715 -0.6051110115439892 0.3275697575989762 0.7256298764623449
-15 -0.9754515886306763 -4.903926372528076 -0.5233400443628403 0.19233354851028459 0.8301343289394447
-15 -3.535533905029297 -3.535533905029297 -0.6924149384412265 0.5260468118032406 0.49379783800162425
-4.6193976402282715 -15 -1.9134172201156616 0.6689077712920423 -0.6783735254617008 0.3039272173691851
-4.157348155975342 -15 -2.777851104736328 0.5878622391674146 -0.6899031832171493 0.42243530338729707
-4.903926372528076 -15 -0.9754515886306763 0.7506213156247024 -0.6369773122399339 0.17557774409483323
-2.777851104736328 -15 -4.157348155975342 0.4029478075235366 -0.6439880636842512 0.6503171827994272
-1.9134172201156616 -15 -4.6193976402282715 0.041239124798547404 -0.9930632952970551 0.11011188001121384
-0.9754515886306763 -15 -4.903926372528076 0.15388007234998535 -0.30049490485316327 0.9412883381253864
-3.535533905029297 -15 -3.535533905029297 0.5017796141730481 -0.6778311706385433 0.537365911564112
-4.6193976402282715 -4.6193976402282715 -1.9134172201156616 0.6106625166230217 0.60856020120854 0.5067008706294661
-4.157348155975342 -4.157348155975342 -2.777851104736328 0.5158697313113679 0.5102972931292163 0.6880952644378041
-4.903926372528076 -4.903926372528076 -0.9754515886306763 0.6807353555245163 0.6803169309145853 0.2716031097941804
-2.777851104736328 -2.777851104736328 -4.157348155975342 0.3090951179367981 0.2926797899652601 0.9048749906000984
-1.9134172201156616 -1.9134172201156616 -4.6193976402282715 0.20878119582306304 0.18634424939075933 0.9600449119648967
-0.9754515886306763 -0.9754515886306763 -4.903926372528076 0.1113632324095353 0.08331247439599465 0.990281405499122
-3.535533905029297 -3.535533905029297 -3.535533905029297 0.4124449736156556 0.40188285188418854 0.817544688136748
-15 -15 15 -0.5305853505427863 -0.5305853505427863 0.6610282683658673
-15 -5 0 -0.7071067811865476 0.7071067811865476 0
-15 -4.903926372528076 0.9754515886306763 -0.6417228614681747 0.7566785257790573 -0.12501750954938484
-15 -4.6193976402282715 1.9134172201156616 -0.6871056510687251 0.6798586203822415 -0.2562773508552374
-15 -4.157348155975342 2.777851104736328 -0.7018586404139114 0.6045800453466296 -0.37666618861400764
-15 -3.535533905029297 3.535533905029297 -0.6924149384412265 0.5260468118032406 -0.49379783800162425
-15 -2.777851104736328 4.157348155975342 -0.6605791616820011 0.43651111039195456 -0.6108135735687995
-15 -1.9134172201156616 4.6193976402282715 -0.9936668863661379 0.04623264070058136 -0.1024141683229221
-15 -0.9754515886306763 4.903926372528076 -0.31315711532364343 0.2143578258148945 -0.9251936789851548
-5 -15 0 0.8325522947478226 -0.5532630555351777 0.027507596950913715
-4.903926372528076 -15 0.9754515886306763 0.8999786923648438 -0.40979096068736875 -0.14869338192464734
-4.6193976402282715 -15 1.9134172201156616 0.08469308077997932 -0.995895494403992 -0.031925636936857536
-4.157348155975342 -15 2.777851104736328 0.6045800453466296 -0.7018586404139114 -0.37666618861400764
-3.535533905029297 -15 3.535533905029297 0.5260468118032406 -0.6924149384412265 -0.49379783800162425
-2.777851104736328 -15 4.157348155975342 0.43651111039195456 -0.6605791616820011 -0.6108135735687995
-1.9134172201156616 -15 4.6193976402282715 0.3275697575989762 -0.6051110115439892 -0.7256298764623449
-0.9754515886306763 -15 4.903926372528076 0.19233354851028459 -0.5233400443628403 -0.8301343289394447
-5 -5 0 0.5992700285112984 0.8003020652292875 -0.01979993226767713
-4.903926372528076 -4.903926372528076 0.9754515886306763 0.6713291505317805 0.6713291505317805 -0.31406105026340936
-4.6193976402282715 -4.6193976402282715 1.9134172201156616 0.5948815318423806 0.5948815318423806 -0.5405848001430722
-4.157348155975342 -4.157348155975342 2.777851104736328 0.4959546587510067 0.4959546587510067 -0.7127818410469959
-3.535533905029297 -3.535533905029297 3.535533905029297 0.38961916114878603 0.38961916114878603 -0.834502138122745
-2.777851104736328 -2.777851104736328 4.157348155975342 0.28376722944346305 0.28376722944346305 -0.915943403812682
-1.9134172201156616 -1.9134172201156616 4.6193976402282715 0.1810199503488573 0.1810199503488573 -0.96667655146455
-0.9754515886306763 -0.9754515886306763 4.903926372528076 0.08119836359450114 0.08119836359450114 -0.9933849462817274
-15 0 -5 -0.32574421184905866 0 0.9454579358421165
-15 0.9754515886306763 -4.903926372528076 -0.3131571422033302 -0.2143578238143337 0.9251936703504982
-15 1.9134172201156616 -4.6193976402282715 -0.9936668880537022 -0.046232637053808874 0.10241415359569293
-15 2.777851104736328 -4.157348155975342 -0.6605791616820011 -0.43651111039195456 0.6108135735687995
-15 3.535533905029297 -3.535533905029297 -0.6924149384412265 -0.5260468118032406 0.49379783800162425
-15 4.157348155975342 -2.777851104736328 -0.7018586404139114 -0.6045800453466296 0.37666618861400764
-15 4.6193976402282715 -1.9134172201156616 -0.6871056510687251 -0.6798586203822415 0.2562773508552374
-15 4.903926372528076 -0.9754515886306763 -0.6417227974665123 -0.7566785801990201 0.125017508692778
-15 15 -15 -0.34903341232595086 0.34903341232595086 -0.8696846291387502
-4.6193976402282715 4.6193976402282715 -1.9134172201156616 0.5948815318423806 -0.5948815318423806 0.5405848001430722
-4.157348155975342 4.157348155975342 -2.777851104736328 0.4959546587510067 -0.4959546587510067 0.7127818410469959
-4.903926372528076 4.903926372528076 -0.9754515886306763 0.6713291505317805 -0.6713291505317805 0.31406105026340936
-2.777851104736328 2.777851104736328 -4.157348155975342 0.28376722944346305 -0.28376722944346305 0.915943403812682
-1.9134172201156616 1.9134172201156616 -4.6193976402282715 0.1810199503488573 -0.1810199503488573 0.96667655146455
-0.9754515886306763 0.9754515886306763 -4.903926372528076 0.08119836359450114 -0.08119836359450114 0.9933849462817274
-3.535533905029297 3.535533905029297 -3.535533905029297 0.3896191805285225 -0.3896191805285225 0.8345021200264052
-4.6193976402282715 15 -1.9134172201156616 0.08469308816704471 0.9958954936571254 0.031925640638205334
-4.157348155975342 15 -2.777851104736328 0.6045800831647595 0.7018586151218887 0.3766661750405483
-4.903926372528076 15 -0.9754515886306763 0.8999787033560335 0.4097909358897092 0.14869338374059826
-2.777851104736328 15 -4.157348155975342 0.43651111039195456 0.6605791616820011 0.6108135735687995
-1.9134172201156616 15 -4.6193976402282715 0.3275697575989762 0.6051110115439892 0.7256298764623449
-0.9754515886306763 15 -4.903926372528076 0.19233354851028459 0.5233400443628403 0.8301343289394447
-3.535533905029297 15 -3.535533905029297 0.5260468626552478 0.6924149269204718 0.4937977999832408
-15 3.535533905029297 3.535533905029297 -0.6924149384412265 -0.5260468118032406 -0.49379783800162425
-15 0 5 -0.32574421184905866 0 -0.9454579358421165
-15 0.9754515886306763 4.903926372528076 -0.5233400443628403 -0.19233354851028459 -0.8301343289394447
-15 1.9134172201156616 4.6193976402282715 -0.6051110115439892 -0.3275697575989762 -0.7256298764623449
-15 2.777851104736328 4.157348155975342 -0.6605791616820011 -0.43651111039195456 -0.6108135735687995
-15 5 0 -0.7071067811865476 -0.7071067811865476 0
-15 4.903926372528076 0.9754515886306763 -0.40979096068736875 -0.8999786923648438 -0.14869338192464734
-15 4.157348155975342 2.777851104736328 -0.7018586404139114 -0.6045800453466296 -0.37666618861400764
-15 4.6193976402282715 1.9134172201156616 -0.995895494403992 -0.08469308077997932 -0.031925636936857536
-15 15 15 -0.34903341232595086 0.34903341232595086 0.8696846291387502
-5 5 0 0.5992700571196112 -0.8003020438299425 0.01979993135025301
-4.903926372528076 4.903926372528076 0.9754515886306763 0.6807352959368461 -0.6803169905361953 -0.2716031098009532
-4.6193976402282715 4.6193976402282715 1.9134172201156616 0.6106625166230217 -0.60856020120854 -0.5067008706294661
-4.157348155975342 4.157348155975342 2.777851104736328 0.5158697313113679 -0.5102972931292163 -0.6880952644378041
-3.535533905029297 3.535533905029297 3.535533905029297 0.4124449241504068 -0.4018828617639299 -0.8175447082349682
-2.777851104736328 2.777851104736328 4.157348155975342 0.3090951179367981 -0.2926797899652601 -0.9048749906000984
-1.9134172201156616 1.9134172201156616 4.6193976402282715 0.2087811684792759 -0.18634422178276247 -0.9600449232700545
-0.9754515886306763 0.9754515886306763 4.903926372528076 0.11136323969858944 -0.08331248172573491 -0.9902814040627713
-5 15 0 0.8325522947478226 0.5532630555351777 -0.027507596950913715
-4.903926372528076 15 0.9754515886306763 0.750621317588562 0.6369773139064654 -0.17557772965303822
-4.6193976402282715 15 1.9134172201156616 0.6689077712920423 0.6783735254617008 -0.3039272173691851
-4.157348155975342 15 2.777851104736328 0.5878622391674146 0.6899031832171493 -0.42243530338729707
-3.535533905029297 15 3.535533905029297 0.5017796141730481 0.6778311706385433 -0.537365911564112
-2.777851104736328 15 4.157348155975342 0.4029478075235366 0.6439880636842512 -0.6503171827994272
-1.9134172201156616 15 4.6193976402282715 0.041239124798547404 0.9930632952970551 -0.11011188001121384
-0.9754515886306763 15 4.903926372528076 0.15388007234998535 0.30049490485316327 -0.9412883381253864
0 -15 -5 -0.028554398455844898 -0.4134429975225619 0.9100821579002544
0.9754515886306763 -15 -4.903926372528076 -0.19233354851028459 -0.5233400443628403 0.8301343289394447
1.9134172201156616 -15 -4.6193976402282715 -0.3275697575989762 -0.6051110115439892 0.7256298764623449
2.777851104736328 -15 -4.157348155975342 -0.43651111039195456 -0.6605791616820011 0.6108135735687995
3.535533905029297 -15 -3.535533905029297 -0.5260468118032406 -0.6924149384412265 0.49379783800162425
4.157348155975342 -15 -2.777851104736328 -0.6045800453466296 -0.7018586404139114 0.37666618861400764
4.6193976402282715 -15 -1.9134172201156616 -0.08469308816704471 -0.9958954936571254 0.031925640638205334
4.903926372528076 -15 -0.9754515886306763 -0.8999787033560335 -0.4097909358897092 0.14869338374059826
0.9754515886306763 -0.9754515886306763 -4.903926372528076 -0.08119836359450114 0.08119836359450114 0.9933849462817274
1.9134172201156616 -1.9134172201156616 -4.6193976402282715 -0.1810199503488573 0.1810199503488573 0.96667655146455
2.777851104736328 -2.777851104736328 -4.157348155975342 -0.28376722944346305 0.28376722944346305 0.915943403812682
3.535533905029297 -3.535533905029297 -3.535533905029297 -0.38961916114878603 0.38961916114878603 0.834502138122745
4.157348155975342 -4.157348155975342 -2.777851104736328 -0.4959546587510067 0.4959546587510067 0.7127818410469959
4.6193976402282715 -4.6193976402282715 -1.9134172201156616 -0.5948815318423806 0.5948815318423806 0.5405848001430722
4.903926372528076 -4.903926372528076 -0.9754515886306763 -0.6713291505317805 0.6713291505317805 0.31406105026340936
15 -15 -15 0.34903343849762486 -0.349033408695303 -0.8696846200922851
15 -4.6193976402282715 -1.9134172201156616 0.6871056510687251 0.6798586203822415 0.2562773508552374
15 -4.157348155975342 -2.777851104736328 0.7018586151218887 0.6045800831647595 0.3766661750405483
15 -4.903926372528076 -0.9754515886306763 0.6417227974665123 0.7566785801990201 0.125017508692778
15 -2.777851104736328 -4.157348155975342 0.6605791616820011 0.43651111039195456 0.6108135735687995
15 -1.9134172201156616 -4.6193976402282715 0.9936668863661379 0.04623264070058136 0.1024141683229221
15 -0.9754515886306763 -4.903926372528076 0.31315711532364343 0.2143578258148945 0.9251936789851548
15 -3.535533905029297 -3.535533905029297 0.6924149384412265 0.5260468118032406 0.49379783800162425
3.535533905029297 -15 3.535533905029297 -0.5017796141730481 -0.6778311706385433 -0.537365911564112
0 -15 5 0.028554398455844898 -0.4134429975225619 -0.9100821579002544
0.9754515886306763 -15 4.903926372528076 -0.15388005642360547 -0.30049493265345134 -0.9412883318540954
1.9134172201156616 -15 4.6193976402282715 -0.04123912114725742 -0.9930632970790303 -0.1101118653076395
2.777851104736328 -15 4.157348155975342 -0.4029478075235366 -0.6439880636842512 -0.6503171827994272
5 -15 0 -0.8325522947478226 -0.5532630555351777 -0.027507596950913715
4.903926372528076 -15 0.9754515886306763 -0.7506213156247024 -0.6369773122399339 -0.17557774409483323
4.157348155975342 -15 2.777851104736328 -0.5878622391674146 -0.6899031832171493 -0.42243530338729707
4.6193976402282715 -15 1.9134172201156616 -0.6689077712920423 -0.6783735254617008 -0.3039272173691851
3.535533905029297 -3.535533905029297 3.535533905029297 -0.4124449736156556 0.40188285188418854 -0.817544688136748
0.9754515886306763 -0.9754515886306763 4.903926372528076 -0.1113632324095353 0.08331247439599465 -0.990281405499122
1.9134172201156616 -1.9134172201156616 4.6193976402282715 -0.2087811684792759 0.18634422178276247 -0.9600449232700545
2.777851104736328 -2.777851104736328 4.157348155975342 -0.3090951179367981 0.2926797899652601 -0.9048749906000984
5 -5 0 -0.5992700571196112 0.8003020438299425 0.01979993135025301
4.903926372528076 -4.903926372528076 0.9754515886306763 -0.6807353555245163 0.6803169309145853 -0.2716031097941804
4.157348155975342 -4.157348155975342 2.777851104736328 -0.5158697313113679 0.5102972931292163 -0.6880952644378041
4.6193976402282715 -4.6193976402282715 1.9134172201156616 -0.6106625166230217 0.60856020120854 -0.5067008706294661
15 -15 15 0.349033408695303 -0.34903343849762486 0.8696846200922851
15 -5 0 0.7071067811865476 0.7071067811865476 0
15 -4.903926372528076 0.9754515886306763 0.4097909358897092 0.8999787033560335 -0.14869338374059826
15 -4.6193976402282715 1.9134172201156616 0.995895494403992 0.08469308077997932 -0.031925636936857536
15 -4.157348155975342 2.777851104736328 0.7018586404139114 0.6045800453466296 -0.37666618861400764
15 -3.535533905029297 3.535533905029297 0.6924149384412265 0.5260468118032406 -0.49379783800162425
15 -2.777851104736328 4.157348155975342 0.6605791616820011 0.43651111039195456 -0.6108135735687995
15 -1.9134172201156616 4.6193976402282715 0.6051110115439892 0.3275697575989762 -0.7256298764623449
15 -0.9754515886306763 4.903926372528076 0.5233400443628403 0.19233354851028459 -0.8301343289394447
0 0 -5 0 0 1
0.9754515886306763 0.9754515886306763 -4.903926372528076 -0.11136323969858944 -0.08331248172573491 0.9902814040627713
1.9134172201156616 1.9134172201156616 -4.6193976402282715 -0.2087811684792759 -0.18634422178276247 0.9600449232700545
2.777851104736328 2.777851104736328 -4.157348155975342 -0.3090951179367981 -0.2926797899652601 0.9048749906000984
3.535533905029297 3.535533905029297 -3.535533905029297 -0.4124449241504068 -0.4018828617639299 0.8175447082349682
4.157348155975342 4.157348155975342 -2.777851104736328 -0.5158697313113679 -0.5102972931292163 0.6880952644378041
4.6193976402282715 4.6193976402282715 -1.9134172201156616 -0.6106625166230217 -0.60856020120854 0.5067008706294661
4.903926372528076 4.903926372528076 -0.9754515886306763 -0.6807353500143695 -0.6803169254078254 0.27160313739803754
0 15 -5 0.028554398455844898 0.4134429975225619 0.9100821579002544
0.9754515886306763 15 -4.903926372528076 -0.15388005642360547 0.30049493265345134 0.9412883318540954
1.9134172201156616 15 -4.6193976402282715 -0.04123912114725742 0.9930632970790303 0.1101118653076395
2.777851104736328 15 -4.157348155975342 -0.4029478075235366 0.6439880636842512 0.6503171827994272
3.535533905029297 15 -3.535533905029297 -0.5017796183741369 0.6778311167089572 0.5373659756677878
4.157348155975342 15 -2.777851104736328 -0.5878622391674146 0.6899031832171493 0.42243530338729707
4.6193976402282715 15 -1.9134172201156616 -0.6689077712920423 0.6783735254617008 0.3039272173691851
4.903926372528076 15 -0.9754515886306763 -0.750621317588562 0.6369773139064654 0.17557772965303822
15 0 -5 0.32574421184905866 -3.0629912511735904e-10 0.9454579358421165
15 0.9754515886306763 -4.903926372528076 0.5233400443628403 -0.19233354851028459 0.8301343289394447
15 1.9134172201156616 -4.6193976402282715 0.6051110115439892 -0.3275697575989762 0.7256298764623449
15 2.777851104736328 -4.157348155975342 0.6605791616820011 -0.43651111039195456 0.6108135735687995
15 3.535533905029297 -3.535533905029297 0.6924149384412265 -0.5260468118032406 0.49379783800162425
15 4.157348155975342 -2.777851104736328 0.7018586151218887 -0.6045800831647595 0.3766661750405483
15 4.6193976402282715 -1.9134172201156616 0.9958954936571254 -0.08469308816704471 0.031925640638205334
15 4.903926372528076 -0.9754515886306763 0.4097909358897092 -0.8999787033560335 0.14869338374059826
15 15 -15 0.5305853505427863 0.5305853505427863 -0.6610282683658673
3.535533905029297 3.535533905029297 3.535533905029297 -0.3896191805285225 -0.3896191805285225 -0.8345021200264052
0 0 5 0 0 -1
0.9754515886306763 0.9754515886306763 4.903926372528076 -0.08119836359450114 -0.08119836359450114 -0.9933849462817274
1.9134172201156616 1.9134172201156616 4.6193976402282715 -0.1810199503488573 -0.1810199503488573 -0.96667655146455
2.777851104736328 2.777851104736328 4.157348155975342 -0.28376722944346305 -0.28376722944346305 -0.915943403812682
5 5 0 -0.5992700571196112 -0.8003020438299425 -0.01979993135025301
4.903926372528076 4.903926372528076 0.9754515886306763 -0.6713291505317805 -0.6713291505317805 -0.31406105026340936
4.157348155975342 4.157348155975342 2.777851104736328 -0.4959546587510067 -0.4959546587510067 -0.7127818410469959
4.6193976402282715 4.6193976402282715 1.9134172201156616 -0.5948815318423806 -0.5948815318423806 -0.5405848001430722
3.535533905029297 15 3.535533905029297 -0.5260468118032406 0.6924149384412265 -0.49379783800162425
0 15 5 -0.028554398455844898 0.4134429975225619 -0.9100821579002544
0.9754515886306763 15 4.903926372528076 -0.19233354851028459 0.5233400443628403 -0.8301343289394447
1.9134172201156616 15 4.6193976402282715 -0.3275697575989762 0.6051110115439892 -0.7256298764623449
2.777851104736328 15 4.157348155975342 -0.43651111039195456 0.6605791616820011 -0.6108135735687995
5 15 0 -0.8325522947478226 0.5532630555351777 0.027507596950913715
4.903926372528076 15 0.9754515886306763 -0.8999787033560335 0.4097909358897092 -0.14869338374059826
4.157348155975342 15 2.777851104736328 -0.6045800453466296 0.7018586404139114 -0.37666618861400764
4.6193976402282715 15 1.9134172201156616 -0.08469308077997932 0.995895494403992 -0.031925636936857536
15 3.535533905029297 3.535533905029297 0.6924149384412265 -0.5260468118032406 -0.49379783800162425
15 0 5 0.32574421184905866 -3.0629912511735904e-10 -0.9454579358421165
15 0.9754515886306763 4.903926372528076 0.3131571422033302 -0.2143578238143337 -0.9251936703504982
15 1.9134172201156616 4.6193976402282715 0.9936668880537022 -0.046232637053808874 -0.10241415359569293
15 2.777851104736328 4.157348155975342 0.6605791616820011 -0.43651111039195456 -0.6108135735687995
15 5 0 0.7071067811865476 -0.7071067811865476 0
15 4.903926372528076 0.9754515886306763 0.6417227974665123 -0.7566785801990201 -0.125017508692778
15 4.157348155975342 2.777851104736328 0.7018586404139114 -0.6045800453466296 -0.37666618861400764
15 4.6193976402282715 1.9134172201156616 0.6871056510687251 -0.6798586203822415 -0.2562773508552374
15 15 15 0.5305853505427863 0.5305853505427863 0.6610282683658673
3 0 22 1
3 0 2 7
3 0 1 2
3 0 14 9
3 0 9 8
3 0 8 10
3 0 10 31
3 0 31 32
3 0 32 33
3 0 7 4
3 0 4 5
3 0 5 6
3 0 6 47
3 0 47 48
3 0 48 49
3 0 11 14
3 0 12 11
3 0 111 12
3 0 55 111
3 0 33 22
3 1 22 3
3 3 22 23
3 22 24 23
3 22 25 24
3 22 26 25
3 22 27 26
3 22 33 34
3 22 34 35
3 22 28 27
3 22 29 28
3 22 79 29
3 22 35 36
3 22 36 37
3 22 37 38
3 22 38 120
3 22 120 121
3 22 121 122
3 22 136 79
3 0 49 55
3 49 50 55
3 50 51 55
3 51 52 55
3 52 53 55
3 53 54 55
3 54 75 55
3 55 75 76
3 55 76 78
3 55 79 63
3 55 64 69
3 55 63 64
3 55 69 66
3 55 66 67
3 55 67 68
3 55 68 153
3 55 153 154
3 55 154 155
3 29 79 30
3 30 79 71
3 71 79 72
3 72 79 73
3 73 79 74
3 70 74 79
3 77 79 78
3 70 79 77
3 55 78 79
3 79 65 63
3 79 88 65
3 79 89 88
3 79 90 89
3 79 91 90
3 79 92 91
3 79 93 92
3 79 94 93
3 79 197 94
3 111 13 12
3 111 96 13
3 111 97 96
3 111 98 97
3 111 99 98
3 111 100 99
3 111 101 100
3 111 102 101
3 111 136 102
3 111 118 113
3 111 113 112
3 111 112 114
3 111 114 137
3 111 137 138
3 111 138 139
3 111 115 118
3 111 116 115
3 111 169 116
3 22 122 136
3 136 122 123
3 136 123 119
3 136 103 102
3 136 124 103
3 136 125 124
3 136 127 125
3 136 126 127
3 136 119 126
3 111 139 136
3 136 139 140
3 136 140 141
3 136 141 142
3 136 142 143
3 136 143 144
3 136 144 189
3 136 189 190
3 136 190 191
3 55 169 111
3 55 155 169
3 169 155 156
3 169 156 157
3 116 169 117
3 117 169 161
3 161 169 162
3 162 169 163
3 163 169 164
3 164 169 165
3 169 157 158
3 169 158 159
3 169 159 160
3 169 160 184
3 169 184 185
3 169 185 187
3 165 169 166
3 166 169 167
3 167 169 197
3 79 136 197
3 197 95 94
3 197 180 95
3 197 181 180
3 197 182 181
3 197 183 182
3 197 179 183
3 136 191 197
3 191 192 197
3 188 197 192
3 197 187 186
3 197 186 179
3 167 197 168
3 168 197 193
3 193 197 194
3 194 197 196
3 195 196 197
3 188 195 197
3 169 187 197
3 2 16 7
3 1 15 2
3 1 3 17
3 3 23 39
3 2 15 16
3 1 17 15
3 3 39 17
3 4 18 5
3 5 19 6
3 6 20 47
3 4 7 21
3 7 16 21
3 4 21 18
3 5 18 19
3 6 19 20
3 47 20 145
3 23 24 39
3 24 25 40
3 25 26 41
3 26 27 42
3 24 40 39
3 25 41 40
3 26 42 41
3 27 28 43
3 27 43 42
3 28 29 44
3 29 30 45
3 30 71 46
3 28 44 43
3 29 45 44
3 30 46 45
3 71 171 46
3 51 57 52
3 52 56 53
3 53 58 54
3 54 80 75
3 47 61 48
3 48 60 49
3 49 59 50
3 50 62 51
3 51 62 57
3 52 57 56
3 53 56 58
3 54 58 80
3 48 61 60
3 49 60 59
3 50 59 62
3 47 145 61
3 75 80 76
3 76 81 78
3 77 78 82
3 70 77 83
3 70 84 74
3 70 83 84
3 71 72 87
3 72 73 86
3 73 74 85
3 76 80 81
3 78 81 82
3 77 82 83
3 72 86 87
3 73 85 86
3 74 84 85
3 71 87 171
3 161 145 104
3 115 106 107
3 116 105 106
3 117 104 105
3 113 108 109
3 112 109 110
3 114 110 132
3 115 116 106
3 116 117 105
3 117 161 104
3 118 107 108
3 115 107 118
3 113 118 108
3 112 113 109
3 112 110 114
3 114 132 137
3 189 129 171
3 142 128 131
3 143 131 130
3 144 130 129
3 138 132 133
3 139 133 135
3 140 135 134
3 141 134 128
3 141 128 142
3 142 131 143
3 143 130 144
3 144 129 189
3 137 132 138
3 138 133 139
3 139 135 140
3 140 134 141
3 161 146 145
3 162 147 146
3 163 148 147
3 164 149 148
3 161 162 146
3 162 163 147
3 163 164 148
3 165 150 149
3 164 165 149
3 166 151 150
3 167 152 151
3 168 175 152
3 165 166 150
3 166 167 151
3 167 168 152
3 168 193 175
3 189 171 172
3 190 172 173
3 191 173 174
3 192 174 170
3 188 170 177
3 188 192 170
3 189 172 190
3 190 173 191
3 191 174 192
3 194 176 175
3 196 178 176
3 195 177 178
3 193 194 175
3 194 196 176
3 195 178 196
3 188 177 195
3 8 9 16
3 10 8 15
3 31 10 17
3 9 21 16
3 8 16 15
3 10 15 17
3 31 17 39
3 14 11 18
3 11 12 19
3 12 13 20
3 13 96 145
3 9 14 21
3 11 19 18
3 12 20 19
3 20 13 145
3 14 18 21
3 39 32 31
3 40 33 32
3 41 34 33
3 42 35 34
3 39 40 32
3 40 41 33
3 41 42 34
3 43 36 35
3 42 43 35
3 44 37 36
3 45 38 37
3 46 120 38
3 43 44 36
3 44 45 37
3 45 46 38
3 46 171 120
3 62 59 66
3 59 60 67
3 145 153 61
3 60 61 68
3 56 57 64
3 58 56 63
3 80 58 65
3 69 64 57
3 64 63 56
3 63 65 58
3 65 88 80
3 67 66 59
3 68 67 60
3 61 153 68
3 57 62 69
3 66 69 62
3 85 84 92
3 86 85 93
3 171 87 95
3 87 86 94
3 81 80 88
3 82 81 89
3 83 82 90
3 84 83 91
3 81 88 89
3 82 89 90
3 83 90 91
3 84 91 92
3 85 92 93
3 86 93 94
3 87 94 95
3 171 95 180
3 96 97 104
3 97 98 105
3 98 99 106
3 99 100 107
3 108 107 100
3 100 101 108
3 101 102 109
3 102 103 110
3 103 124 132
3 109 108 101
3 110 109 102
3 110 103 132
3 105 104 97
3 145 96 104
3 106 105 98
3 107 106 99
3 126 119 128
3 121 120 171
3 122 121 129
3 123 122 130
3 119 123 131
3 124 125 133
3 125 127 135
3 127 126 134
3 132 124 133
3 125 135 133
3 127 134 135
3 126 128 134
3 119 131 128
3 122 129 130
3 121 171 129
3 123 130 131
3 145 146 154
3 146 147 155
3 147 148 156
3 148 149 157
3 153 145 154
3 146 155 154
3 147 156 155
3 148 157 156
3 149 158 157
3 149 150 158
3 150 151 159
3 151 152 160
3 152 175 184
3 150 159 158
3 151 160 159
3 160 152 184
3 172 171 180
3 173 172 181
3 174 173 182
3 170 174 183
3 177 170 179
3 170 183 179
3 172 180 181
3 173 181 182
3 174 182 183
3 175 176 185
3 176 178 187
3 178 177 186
3 175 185 184
3 176 187 185
3 178 186 187
3 177 179 186

