o 
usemtl boolean-difference-cube-two-crossing-bores-material
v -15 -15 -15
v -15 -4.6193976402282715 -1.9134172201156616
v -15 -4.157348155975342 -2.777851104736328
v -15 -4.903926372528076 -0.9754515886306763
v -15 -2.777851104736328 -4.157348155975342
v -15 -1.9134172201156616 -4.6193976402282715
v -15 -0.9754515886306763 -4.903926372528076
v -15 -3.535533905029297 -3.535533905029297
v -4.6193976402282715 -15 -1.9134172201156616
v -4.157348155975342 -15 -2.777851104736328
v -4.903926372528076 -15 -0.9754515886306763
v -2.777851104736328 -15 -4.157348155975342
v -1.9134172201156616 -15 -4.6193976402282715
v -0.9754515886306763 -15 -4.903926372528076
v -3.535533905029297 -15 -3.535533905029297
v -4.6193976402282715 -4.6193976402282715 -1.9134172201156616
v -4.157348155975342 -4.157348155975342 -2.777851104736328
v -4.903926372528076 -4.903926372528076 -0.9754515886306763
v -2.777851104736328 -2.777851104736328 -4.157348155975342
v -1.9134172201156616 -1.9134172201156616 -4.6193976402282715
v -0.9754515886306763 -0.9754515886306763 -4.903926372528076
v -3.535533905029297 -3.535533905029297 -3.535533905029297
v -15 -15 15
v -15 -5 0
v -15 -4.903926372528076 0.9754515886306763
v -15 -4.6193976402282715 1.9134172201156616
v -15 -4.157348155975342 2.777851104736328
v -15 -3.535533905029297 3.535533905029297
v -15 -2.777851104736328 4.157348155975342
v -15 -1.9134172201156616 4.6193976402282715
v -15 -0.9754515886306763 4.903926372528076
v -5 -15 0
v -4.903926372528076 -15 0.9754515886306763
v -4.6193976402282715 -15 1.9134172201156616
v -4.157348155975342 -15 2.777851104736328
v -3.535533905029297 -15 3.535533905029297
v -2.777851104736328 -15 4.157348155975342
v -1.9134172201156616 -15 4.6193976402282715
v -0.9754515886306763 -15 4.903926372528076
v -5 -5 0
v -4.903926372528076 -4.903926372528076 0.9754515886306763
v -4.6193976402282715 -4.6193976402282715 1.9134172201156616
v -4.157348155975342 -4.157348155975342 2.777851104736328
v -3.535533905029297 -3.535533905029297 3.535533905029297
v -2.777851104736328 -2.777851104736328 4.157348155975342
v -1.9134172201156616 -1.9134172201156616 4.6193976402282715
v -0.9754515886306763 -0.9754515886306763 4.903926372528076
v -15 0 -5
v -15 0.9754515886306763 -4.903926372528076
v -15 1.9134172201156616 -4.6193976402282715
v -15 2.777851104736328 -4.157348155975342
v -15 3.535533905029297 -3.535533905029297
v -15 4.157348155975342 -2.777851104736328
v -15 4.6193976402282715 -1.9134172201156616
v -15 4.903926372528076 -0.9754515886306763
v -15 15 -15
v -4.6193976402282715 4.6193976402282715 -1.9134172201156616
v -4.157348155975342 4.157348155975342 -2.777851104736328
v -4.903926372528076 4.903926372528076 -0.9754515886306763
v -2.777851104736328 2.777851104736328 -4.157348155975342
v -1.9134172201156616 1.9134172201156616 -4.6193976402282715
v -0.9754515886306763 0.9754515886306763 -4.903926372528076
v -3.535533905029297 3.535533905029297 -3.535533905029297
v -4.6193976402282715 15 -1.9134172201156616
v -4.157348155975342 15 -2.777851104736328
v -4.903926372528076 15 -0.9754515886306763
v -2.777851104736328 15 -4.157348155975342
v -1.9134172201156616 15 -4.6193976402282715
v -0.9754515886306763 15 -4.903926372528076
v -3.535533905029297 15 -3.535533905029297
v -15 3.535533905029297 3.535533905029297
v -15 0 5
v -15 0.9754515886306763 4.903926372528076
v -15 1.9134172201156616 4.6193976402282715
v -15 2.777851104736328 4.157348155975342
v -15 5 0
v -15 4.903926372528076 0.9754515886306763
v -15 4.157348155975342 2.777851104736328
v -15 4.6193976402282715 1.9134172201156616
v -15 15 15
v -5 5 0
v -4.903926372528076 4.903926372528076 0.9754515886306763
v -4.6193976402282715 4.6193976402282715 1.9134172201156616
v -4.157348155975342 4.157348155975342 2.777851104736328
v -3.535533905029297 3.535533905029297 3.535533905029297
v -2.777851104736328 2.777851104736328 4.157348155975342
v -1.9134172201156616 1.9134172201156616 4.6193976402282715
v -0.9754515886306763 0.9754515886306763 4.903926372528076
v -5 15 0
v -4.903926372528076 15 0.9754515886306763
v -4.6193976402282715 15 1.9134172201156616
v -4.157348155975342 15 2.777851104736328
v -3.535533905029297 15 3.535533905029297
v -2.777851104736328 15 4.157348155975342
v -1.9134172201156616 15 4.6193976402282715
v -0.9754515886306763 15 4.903926372528076
v 0 -15 -5
v 0.9754515886306763 -15 -4.903926372528076
v 1.9134172201156616 -15 -4.6193976402282715
v 2.777851104736328 -15 -4.157348155975342
v 3.535533905029297 -15 -3.535533905029297
v 4.157348155975342 -15 -2.777851104736328
v 4.6193976402282715 -15 -1.9134172201156616
v 4.903926372528076 -15 -0.9754515886306763
v 0.9754515886306763 -0.9754515886306763 -4.903926372528076
v 1.9134172201156616 -1.9134172201156616 -4.6193976402282715
v 2.777851104736328 -2.777851104736328 -4.157348155975342
v 3.535533905029297 -3.535533905029297 -3.535533905029297
v 4.157348155975342 -4.157348155975342 -2.777851104736328
v 4.6193976402282715 -4.6193976402282715 -1.9134172201156616
v 4.903926372528076 -4.903926372528076 -0.9754515886306763
v 15 -15 -15
v 15 -4.6193976402282715 -1.9134172201156616
v 15 -4.157348155975342 -2.777851104736328
v 15 -4.903926372528076 -0.9754515886306763
v 15 -2.777851104736328 -4.157348155975342
v 15 -1.9134172201156616 -4.6193976402282715
v 15 -0.9754515886306763 -4.903926372528076
v 15 -3.535533905029297 -3.535533905029297
v 3.535533905029297 -15 3.535533905029297
v 0 -15 5
v 0.9754515886306763 -15 4.903926372528076
v 1.9134172201156616 -15 4.6193976402282715
v 2.777851104736328 -15 4.157348155975342
v 5 -15 0
v 4.903926372528076 -15 0.9754515886306763
v 4.157348155975342 -15 2.777851104736328
v 4.6193976402282715 -15 1.9134172201156616
v 3.535533905029297 -3.535533905029297 3.535533905029297
v 0.9754515886306763 -0.9754515886306763 4.903926372528076
v 1.9134172201156616 -1.9134172201156616 4.6193976402282715
v 2.777851104736328 -2.777851104736328 4.157348155975342
v 5 -5 0
v 4.903926372528076 -4.903926372528076 0.9754515886306763
v 4.157348155975342 -4.157348155975342 2.777851104736328
v 4.6193976402282715 -4.6193976402282715 1.9134172201156616
v 15 -15 15
v 15 -5 0
v 15 -4.903926372528076 0.9754515886306763
v 15 -4.6193976402282715 1.9134172201156616
v 15 -4.157348155975342 2.777851104736328
v 15 -3.535533905029297 3.535533905029297
v 15 -2.777851104736328 4.157348155975342
v 15 -1.9134172201156616 4.6193976402282715
v 15 -0.9754515886306763 4.903926372528076
v 0 0 -5
v 0.9754515886306763 0.9754515886306763 -4.903926372528076
v 1.9134172201156616 1.9134172201156616 -4.6193976402282715
v 2.777851104736328 2.777851104736328 -4.157348155975342
v 3.535533905029297 3.535533905029297 -3.535533905029297
v 4.157348155975342 4.157348155975342 -2.777851104736328
v 4.6193976402282715 4.6193976402282715 -1.9134172201156616
v 4.903926372528076 4.903926372528076 -0.9754515886306763
v 0 15 -5
v 0.9754515886306763 15 -4.903926372528076
v 1.9134172201156616 15 -4.6193976402282715
v 2.777851104736328 15 -4.157348155975342
v 3.535533905029297 15 -3.535533905029297
v 4.157348155975342 15 -2.777851104736328
v 4.6193976402282715 15 -1.9134172201156616
v 4.903926372528076 15 -0.9754515886306763
v 15 0 -5
v 15 0.9754515886306763 -4.903926372528076
v 15 1.9134172201156616 -4.6193976402282715
v 15 2.777851104736328 -4.157348155975342
v 15 3.535533905029297 -3.535533905029297
v 15 4.157348155975342 -2.777851104736328
v 15 4.6193976402282715 -1.9134172201156616
v 15 4.903926372528076 -0.9754515886306763
v 15 15 -15
v 3.535533905029297 3.535533905029297 3.535533905029297
v 0 0 5
v 0.9754515886306763 0.9754515886306763 4.903926372528076
v 1.9134172201156616 1.9134172201156616 4.6193976402282715
v 2.777851104736328 2.777851104736328 4.157348155975342
v 5 5 0
v 4.903926372528076 4.903926372528076 0.9754515886306763
v 4.157348155975342 4.157348155975342 2.777851104736328
v 4.6193976402282715 4.6193976402282715 1.9134172201156616
v 3.535533905029297 15 3.535533905029297
v 0 15 5
v 0.9754515886306763 15 4.903926372528076
v 1.9134172201156616 15 4.6193976402282715
v 2.777851104736328 15 4.157348155975342
v 5 15 0
v 4.903926372528076 15 0.9754515886306763
v 4.157348155975342 15 2.777851104736328
v 4.6193976402282715 15 1.9134172201156616
v 15 3.535533905029297 3.535533905029297
v 15 0 5
v 15 0.9754515886306763 4.903926372528076
v 15 1.9134172201156616 4.6193976402282715
v 15 2.777851104736328 4.157348155975342
v 15 5 0
v 15 4.903926372528076 0.9754515886306763
v 15 4.157348155975342 2.777851104736328
v 15 4.6193976402282715 1.9134172201156616
v 15 15 15
vn -0.5305853505427863 -0.5305853505427863 -0.6610282683658673
vn -0.9958954936571254 0.08469308816704471 0.031925640638205334
vn -0.7018586404139114 0.6045800453466296 0.37666618861400764
vn -0.4097909358897092 0.8999787033560335 0.14869338374059826
vn -0.6605791616820011 0.43651111039195456 0.6108135735687995
vn -0.6051110115439892 0.3275697575989762 0.7256298764623449
vn -0.5233400443628403 0.19233354851028459 0.8301343289394447
vn -0.6924149384412265 0.5260468118032406 0.49379783800162425
vn 0.6689077712920423 -0.6783735254617008 0.3039272173691851
vn 0.5878622391674146 -0.6899031832171493 0.42243530338729707
vn 0.7506213156247024 -0.6369773122399339 0.17557774409483323
vn 0.4029478075235366 -0.6439880636842512 0.6503171827994272
vn 0.041239124798547404 -0.9930632952970551 0.11011188001121384
vn 0.15388007234998535 -0.30049490485316327 0.9412883381253864
vn 0.5017796141730481 -0.6778311706385433 0.537365911564112
vn 0.6106625166230217 0.60856020120854 0.5067008706294661
vn 0.5158697313113679 0.5102972931292163 0.6880952644378041
vn 0.6807353555245163 0.6803169309145853 0.2716031097941804
vn 0.3090951179367981 0.2926797899652601 0.9048749906000984
vn 0.20878119582306304 0.18634424939075933 0.9600449119648967
vn 0.1113632324095353 0.08331247439599465 0.990281405499122
vn 0.4124449736156556 0.40188285188418854 0.817544688136748
vn -0.5305853505427863 -0.5305853505427863 0.6610282683658673
vn -0.7071067811865476 0.7071067811865476 0
vn -0.6417228614681747 0.7566785257790573 -0.12501750954938484
vn -0.6871056510687251 0.6798586203822415 -0.2562773508552374
vn -0.7018586404139114 0.6045800453466296 -0.37666618861400764
vn -0.6924149384412265 0.5260468118032406 -0.49379783800162425
vn -0.6605791616820011 0.43651111039195456 -0.6108135735687995
vn -0.9936668863661379 0.04623264070058136 -0.1024141683229221
vn -0.31315711532364343 0.2143578258148945 -0.9251936789851548
vn 0.8325522947478226 -0.5532630555351777 0.027507596950913715
vn 0.8999786923648438 -0.40979096068736875 -0.14869338192464734
vn 0.08469308077997932 -0.995895494403992 -0.031925636936857536
vn 0.6045800453466296 -0.7018586404139114 -0.37666618861400764
vn 0.5260468118032406 -0.6924149384412265 -0.49379783800162425
vn 0.43651111039195456 -0.6605791616820011 -0.6108135735687995
vn 0.3275697575989762 -0.6051110115439892 -0.7256298764623449
vn 0.19233354851028459 -0.5233400443628403 -0.8301343289394447
vn 0.5992700285112984 0.8003020652292875 -0.01979993226767713
vn 0.6713291505317805 0.6713291505317805 -0.31406105026340936
vn 0.5948815318423806 0.5948815318423806 -0.5405848001430722
vn 0.4959546587510067 0.4959546587510067 -0.7127818410469959
vn 0.38961916114878603 0.38961916114878603 -0.834502138122745
vn 0.28376722944346305 0.28376722944346305 -0.915943403812682
vn 0.1810199503488573 0.1810199503488573 -0.96667655146455
vn 0.08119836359450114 0.08119836359450114 -0.9933849462817274
vn -0.32574421184905866 0 0.9454579358421165
vn -0.3131571422033302 -0.2143578238143337 0.9251936703504982
vn -0.9936668880537022 -0.046232637053808874 0.10241415359569293
vn -0.6605791616820011 -0.43651111039195456 0.6108135735687995
vn -0.6924149384412265 -0.5260468118032406 0.49379783800162425
vn -0.7018586404139114 -0.6045800453466296 0.37666618861400764
vn -0.6871056510687251 -0.6798586203822415 0.2562773508552374
vn -0.6417227974665123 -0.7566785801990201 0.125017508692778
vn -0.34903341232595086 0.34903341232595086 -0.8696846291387502
vn 0.5948815318423806 -0.5948815318423806 0.5405848001430722
vn 0.4959546587510067 -0.4959546587510067 0.7127818410469959
vn 0.6713291505317805 -0.6713291505317805 0.31406105026340936
vn 0.28376722944346305 -0.28376722944346305 0.915943403812682
vn 0.1810199503488573 -0.1810199503488573 0.96667655146455
vn 0.08119836359450114 -0.08119836359450114 0.9933849462817274
vn 0.3896191805285225 -0.3896191805285225 0.8345021200264052
vn 0.08469308816704471 0.9958954936571254 0.031925640638205334
vn 0.6045800831647595 0.7018586151218887 0.3766661750405483
vn 0.8999787033560335 0.4097909358897092 0.14869338374059826
vn 0.43651111039195456 0.6605791616820011 0.6108135735687995
vn 0.3275697575989762 0.6051110115439892 0.7256298764623449
vn 0.19233354851028459 0.5233400443628403 0.8301343289394447
vn 0.5260468626552478 0.6924149269204718 0.4937977999832408
vn -0.6924149384412265 -0.5260468118032406 -0.49379783800162425
vn -0.32574421184905866 0 -0.9454579358421165
vn -0.5233400443628403 -0.19233354851028459 -0.8301343289394447
vn -0.6051110115439892 -0.3275697575989762 -0.7256298764623449
vn -0.6605791616820011 -0.43651111039195456 -0.6108135735687995
vn -0.7071067811865476 -0.7071067811865476 0
vn -0.40979096068736875 -0.8999786923648438 -0.14869338192464734
vn -0.7018586404139114 -0.6045800453466296 -0.37666618861400764
vn -0.995895494403992 -0.08469308077997932 -0.031925636936857536
vn -0.34903341232595086 0.34903341232595086 0.8696846291387502
vn 0.5992700571196112 -0.8003020438299425 0.01979993135025301
vn 0.6807352959368461 -0.6803169905361953 -0.2716031098009532
vn 0.6106625166230217 -0.60856020120854 -0.5067008706294661
vn 0.5158697313113679 -0.5102972931292163 -0.6880952644378041
vn 0.4124449241504068 -0.4018828617639299 -0.8175447082349682
vn 0.3090951179367981 -0.2926797899652601 -0.9048749906000984
vn 0.2087811684792759 -0.18634422178276247 -0.9600449232700545
vn 0.11136323969858944 -0.08331248172573491 -0.9902814040627713
vn 0.8325522947478226 0.5532630555351777 -0.027507596950913715
vn 0.750621317588562 0.6369773139064654 -0.17557772965303822
vn 0.6689077712920423 0.6783735254617008 -0.3039272173691851
vn 0.5878622391674146 0.6899031832171493 -0.42243530338729707
vn 0.5017796141730481 0.6778311706385433 -0.537365911564112
vn 0.4029478075235366 0.6439880636842512 -0.6503171827994272
vn 0.041239124798547404 0.9930632952970551 -0.11011188001121384
vn 0.15388007234998535 0.30049490485316327 -0.9412883381253864
vn -0.028554398455844898 -0.4134429975225619 0.9100821579002544
vn -0.19233354851028459 -0.5233400443628403 0.8301343289394447
vn -0.3275697575989762 -0.6051110115439892 0.7256298764623449
vn -0.43651111039195456 -0.6605791616820011 0.6108135735687995
vn -0.5260468118032406 -0.6924149384412265 0.49379783800162425
vn -0.6045800453466296 -0.7018586404139114 0.37666618861400764
vn -0.08469308816704471 -0.9958954936571254 0.031925640638205334
vn -0.8999787033560335 -0.4097909358897092 0.14869338374059826
vn -0.08119836359450114 0.08119836359450114 0.9933849462817274
vn -0.1810199503488573 0.1810199503488573 0.96667655146455
vn -0.28376722944346305 0.28376722944346305 0.915943403812682
vn -0.38961916114878603 0.38961916114878603 0.834502138122745
vn -0.4959546587510067 0.4959546587510067 0.7127818410469959
vn -0.5948815318423806 0.5948815318423806 0.5405848001430722
vn -0.6713291505317805 0.6713291505317805 0.31406105026340936
vn 0.34903343849762486 -0.349033408695303 -0.8696846200922851
vn 0.6871056510687251 0.6798586203822415 0.2562773508552374
vn 0.7018586151218887 0.6045800831647595 0.3766661750405483
vn 0.6417227974665123 0.7566785801990201 0.125017508692778
vn 0.6605791616820011 0.43651111039195456 0.6108135735687995
vn 0.9936668863661379 0.04623264070058136 0.1024141683229221
vn 0.31315711532364343 0.2143578258148945 0.9251936789851548
vn 0.6924149384412265 0.5260468118032406 0.49379783800162425
vn -0.5017796141730481 -0.6778311706385433 -0.537365911564112
vn 0.028554398455844898 -0.4134429975225619 -0.9100821579002544
vn -0.15388005642360547 -0.30049493265345134 -0.9412883318540954
vn -0.04123912114725742 -0.9930632970790303 -0.1101118653076395
vn -0.4029478075235366 -0.6439880636842512 -0.6503171827994272
vn -0.8325522947478226 -0.5532630555351777 -0.027507596950913715
vn -0.7506213156247024 -0.6369773122399339 -0.17557774409483323
vn -0.5878622391674146 -0.6899031832171493 -0.42243530338729707
vn -0.6689077712920423 -0.6783735254617008 -0.3039272173691851
vn -0.4124449736156556 0.40188285188418854 -0.817544688136748
vn -0.1113632324095353 0.08331247439599465 -0.990281405499122
vn -0.2087811684792759 0.18634422178276247 -0.9600449232700545
vn -0.3090951179367981 0.2926797899652601 -0.9048749906000984
vn -0.5992700571196112 0.8003020438299425 0.01979993135025301
vn -0.6807353555245163 0.6803169309145853 -0.2716031097941804
vn -0.5158697313113679 0.5102972931292163 -0.6880952644378041
vn -0.6106625166230217 0.60856020120854 -0.5067008706294661
vn 0.349033408695303 -0.34903343849762486 0.8696846200922851
vn 0.7071067811865476 0.7071067811865476 0
vn 0.4097909358897092 0.8999787033560335 -0.14869338374059826
vn 0.995895494403992 0.08469308077997932 -0.031925636936857536
vn 0.7018586404139114 0.6045800453466296 -0.37666618861400764
vn 0.6924149384412265 0.5260468118032406 -0.49379783800162425
vn 0.6605791616820011 0.43651111039195456 -0.6108135735687995
vn 0.6051110115439892 0.3275697575989762 -0.7256298764623449
vn 0.5233400443628403 0.19233354851028459 -0.8301343289394447
vn 0 0 1
vn -0.11136323969858944 -0.08331248172573491 0.9902814040627713
vn -0.2087811684792759 -0.18634422178276247 0.9600449232700545
vn -0.3090951179367981 -0.2926797899652601 0.9048749906000984
vn -0.4124449241504068 -0.4018828617639299 0.8175447082349682
vn -0.5158697313113679 -0.5102972931292163 0.6880952644378041
vn -0.6106625166230217 -0.60856020120854 0.5067008706294661
vn -0.6807353500143695 -0.6803169254078254 0.27160313739803754
vn 0.028554398455844898 0.4134429975225619 0.9100821579002544
vn -0.15388005642360547 0.30049493265345134 0.9412883318540954
vn -0.04123912114725742 0.9930632970790303 0.1101118653076395
vn -0.4029478075235366 0.6439880636842512 0.6503171827994272
vn -0.5017796183741369 0.6778311167089572 0.5373659756677878
vn -0.5878622391674146 0.6899031832171493 0.42243530338729707
vn -0.6689077712920423 0.6783735254617008 0.3039272173691851
vn -0.750621317588562 0.6369773139064654 0.17557772965303822
vn 0.32574421184905866 -3.0629912511735904e-10 0.9454579358421165
vn 0.5233400443628403 -0.19233354851028459 0.8301343289394447
vn 0.6051110115439892 -0.3275697575989762 0.7256298764623449
vn 0.6605791616820011 -0.43651111039195456 0.6108135735687995
vn 0.6924149384412265 -0.5260468118032406 0.49379783800162425
vn 0.7018586151218887 -0.6045800831647595 0.3766661750405483
vn 0.9958954936571254 -0.08469308816704471 0.031925640638205334
vn 0.4097909358897092 -0.8999787033560335 0.14869338374059826
vn 0.5305853505427863 0.5305853505427863 -0.6610282683658673
vn -0.3896191805285225 -0.3896191805285225 -0.8345021200264052
vn 0 0 -1
vn -0.08119836359450114 -0.08119836359450114 -0.9933849462817274
vn -0.1810199503488573 -0.1810199503488573 -0.96667655146455
vn -0.28376722944346305 -0.28376722944346305 -0.915943403812682
vn -0.5992700571196112 -0.8003020438299425 -0.01979993135025301
vn -0.6713291505317805 -0.6713291505317805 -0.31406105026340936
vn -0.4959546587510067 -0.4959546587510067 -0.7127818410469959
vn -0.5948815318423806 -0.5948815318423806 -0.5405848001430722
vn -0.5260468118032406 0.6924149384412265 -0.49379783800162425
vn -0.028554398455844898 0.4134429975225619 -0.9100821579002544
vn -0.19233354851028459 0.5233400443628403 -0.8301343289394447
vn -0.3275697575989762 0.6051110115439892 -0.7256298764623449
vn -0.43651111039195456 0.6605791616820011 -0.6108135735687995
vn -0.8325522947478226 0.5532630555351777 0.027507596950913715
vn -0.8999787033560335 0.4097909358897092 -0.14869338374059826
vn -0.6045800453466296 0.7018586404139114 -0.37666618861400764
vn -0.08469308077997932 0.995895494403992 -0.031925636936857536
vn 0.6924149384412265 -0.5260468118032406 -0.49379783800162425
vn 0.32574421184905866 -3.0629912511735904e-10 -0.9454579358421165
vn 0.3131571422033302 -0.2143578238143337 -0.9251936703504982
vn 0.9936668880537022 -0.046232637053808874 -0.10241415359569293
vn 0.6605791616820011 -0.43651111039195456 -0.6108135735687995
vn 0.7071067811865476 -0.7071067811865476 0
vn 0.6417227974665123 -0.7566785801990201 -0.125017508692778
vn 0.7018586404139114 -0.6045800453466296 -0.37666618861400764
vn 0.6871056510687251 -0.6798586203822415 -0.2562773508552374
vn 0.5305853505427863 0.5305853505427863 0.6610282683658673
f 1//1 23//23 2//2
f 1//1 3//3 8//8
f 1//1 2//2 3//3
f 1//1 15//15 10//10
f 1//1 10//10 9//9
f 1//1 9//9 11//11
f 1//1 11//11 32//32
f 1//1 32//32 33//33
f 1//1 33//33 34//34
f 1//1 8//8 5//5
f 1//1 5//5 6//6
f 1//1 6//6 7//7
f 1//1 7//7 48//48
f 1//1 48//48 49//49
f 1//1 49//49 50//50
f 1//1 12//12 15//15
f 1//1 13//13 12//12
f 1//1 112//112 13//13
f 1//1 56//56 112//112
f 1//1 34//34 23//23
f 2//2 23//23 4//4
f 4//4 23//23 24//24
f 23//23 25//25 24//24
f 23//23 26//26 25//25
f 23//23 27//27 26//26
f 23//23 28//28 27//27
f 23//23 34//34 35//35
f 23//23 35//35 36//36
f 23//23 29//29 28//28
f 23//23 30//30 29//29
f 23//23 80//80 30//30
f 23//23 36//36 37//37
f 23//23 37//37 38//38
f 23//23 38//38 39//39
f 23//23 39//39 121//121
f 23//23 121//121 122//122
f 23//23 122//122 123//123
f 23//23 137//137 80//80
f 1//1 50//50 56//56
f 50//50 51//51 56//56
f 51//51 52//52 56//56
f 52//52 53//53 56//56
f 53//53 54//54 56//56
f 54//54 55//55 56//56
f 55//55 76//76 56//56
f 56//56 76//76 77//77
f 56//56 77//77 79//79
f 56//56 80//80 64//64
f 56//56 65//65 70//70
f 56//56 64//64 65//65
f 56//56 70//70 67//67
f 56//56 67//67 68//68
f 56//56 68//68 69//69
f 56//56 69//69 154//154
f 56//56 154//154 155//155
f 56//56 155//155 156//156
f 30//30 80//80 31//31
f 31//31 80//80 72//72
f 72//72 80//80 73//73
f 73//73 80//80 74//74
f 74//74 80//80 75//75
f 71//71 75//75 80//80
f 78//78 80//80 79//79
f 71//71 80//80 78//78
f 56//56 79//79 80//80
f 80//80 66//66 64//64
f 80//80 89//89 66//66
f 80//80 90//90 89//89
f 80//80 91//91 90//90
f 80//80 92//92 91//91
f 80//80 93//93 92//92
f 80//80 94//94 93//93
f 80//80 95//95 94//94
f 80//80 198//198 95//95
f 112//112 14//14 13//13
f 112//112 97//97 14//14
f 112//112 98//98 97//97
f 112//112 99//99 98//98
f 112//112 100//100 99//99
f 112//112 101//101 100//100
f 112//112 102//102 101//101
f 112//112 103//103 102//102
f 112//112 137//137 103//103
f 112//112 119//119 114//114
f 112//112 114//114 113//113
f 112//112 113//113 115//115
f 112//112 115//115 138//138
f 112//112 138//138 139//139
f 112//112 139//139 140//140
f 112//112 116//116 119//119
f 112//112 117//117 116//116
f 112//112 170//170 117//117
f 23//23 123//123 137//137
f 137//137 123//123 124//124
f 137//137 124//124 120//120
f 137//137 104//104 103//103
f 137//137 125//125 104//104
f 137//137 126//126 125//125
f 137//137 128//128 126//126
f 137//137 127//127 128//128
f 137//137 120//120 127//127
f 112//112 140//140 137//137
f 137//137 140//140 141//141
f 137//137 141//141 142//142
f 137//137 142//142 143//143
f 137//137 143//143 144//144
f 137//137 144//144 145//145
f 137//137 145//145 190//190
f 137//137 190//190 191//191
f 137//137 191//191 192//192
f 56//56 170//170 112//112
f 56//56 156//156 170//170
f 170//170 156//156 157//157
f 170//170 157//157 158//158
f 117//117 170//170 118//118
f 118//118 170//170 162//162
f 162//162 170//170 163//163
f 163//163 170//170 164//164
f 164//164 170//170 165//165
f 165//165 170//170 166//166
f 170//170 158//158 159//159
f 170//170 159//159 160//160
f 170//170 160//160 161//161
f 170//170 161//161 185//185
f 170//170 185//185 186//186
f 170//170 186//186 188//188
f 166//166 170//170 167//167
f 167//167 170//170 168//168
f 168//168 170//170 198//198
f 80//80 137//137 198//198
f 198//198 96//96 95//95
f 198//198 181//181 96//96
f 198//198 182//182 181//181
f 198//198 183//183 182//182
f 198//198 184//184 183//183
f 198//198 180//180 184//184
f 137//137 192//192 198//198
f 192//192 193//193 198//198
f 189//189 198//198 193//193
f 198//198 188//188 187//187
f 198//198 187//187 180//180
f 168//168 198//198 169//169
f 169//169 198//198 194//194
f 194//194 198//198 195//195
f 195//195 198//198 197//197
f 196//196 197//197 198//198
f 189//189 196//196 198//198
f 170//170 188//188 198//198
f 3//3 17//17 8//8
f 2//2 16//16 3//3
f 2//2 4//4 18//18
f 4//4 24//24 40//40
f 3//3 16//16 17//17
f 2//2 18//18 16//16
f 4//4 40//40 18//18
f 5//5 19//19 6//6
f 6//6 20//20 7//7
f 7//7 21//21 48//48
f 5//5 8//8 22//22
f 8//8 17//17 22//22
f 5//5 22//22 19//19
f 6//6 19//19 20//20
f 7//7 20//20 21//21
f 48//48 21//21 146//146
f 24//24 25//25 40//40
f 25//25 26//26 41//41
f 26//26 27//27 42//42
f 27//27 28//28 43//43
f 25//25 41//41 40//40
f 26//26 42//42 41//41
f 27//27 43//43 42//42
f 28//28 29//29 44//44
f 28//28 44//44 43//43
f 29//29 30//30 45//45
f 30//30 31//31 46//46
f 31//31 72//72 47//47
f 29//29 45//45 44//44
f 30//30 46//46 45//45
f 31//31 47//47 46//46
f 72//72 172//172 47//47
f 52//52 58//58 53//53
f 53//53 57//57 54//54
f 54//54 59//59 55//55
f 55//55 81//81 76//76
f 48//48 62//62 49//49
f 49//49 61//61 50//50
f 50//50 60//60 51//51
f 51//51 63//63 52//52
f 52//52 63//63 58//58
f 53//53 58//58 57//57
f 54//54 57//57 59//59
f 55//55 59//59 81//81
f 49//49 62//62 61//61
f 50//50 61//61 60//60
f 51//51 60//60 63//63
f 48//48 146//146 62//62
f 76//76 81//81 77//77
f 77//77 82//82 79//79
f 78//78 79//79 83//83
f 71//71 78//78 84//84
f 71//71 85//85 75//75
f 71//71 84//84 85//85
f 72//72 73//73 88//88
f 73//73 74//74 87//87
f 74//74 75//75 86//86
f 77//77 81//81 82//82
f 79//79 82//82 83//83
f 78//78 83//83 84//84
f 73//73 87//87 88//88
f 74//74 86//86 87//87
f 75//75 85//85 86//86
f 72//72 88//88 172//172
f 162//162 146//146 105//105
f 116//116 107//107 108//108
f 117//117 106//106 107//107
f 118//118 105//105 106//106
f 114//114 109//109 110//110
f 113//113 110//110 111//111
f 115//115 111//111 133//133
f 116//116 117//117 107//107
f 117//117 118//118 106//106
f 118//118 162//162 105//105
f 119//119 108//108 109//109
f 116//116 108//108 119//119
f 114//114 119//119 109//109
f 113//113 114//114 110//110
f 113//113 111//111 115//115
f 115//115 133//133 138//138
f 190//190 130//130 172//172
f 143//143 129//129 132//132
f 144//144 132//132 131//131
f 145//145 131//131 130//130
f 139//139 133//133 134//134
f 140//140 134//134 136//136
f 141//141 136//136 135//135
f 142//142 135//135 129//129
f 142//142 129//129 143//143
f 143//143 132//132 144//144
f 144//144 131//131 145//145
f 145//145 130//130 190//190
f 138//138 133//133 139//139
f 139//139 134//134 140//140
f 140//140 136//136 141//141
f 141//141 135//135 142//142
f 162//162 147//147 146//146
f 163//163 148//148 147//147
f 164//164 149//149 148//148
f 165//165 150//150 149//149
f 162//162 163//163 147//147
f 163//163 164//164 148//148
f 164//164 165//165 149//149
f 166//166 151//151 150//150
f 165//165 166//166 150//150
f 167//167 152//152 151//151
f 168//168 153//153 152//152
f 169//169 176//176 153//153
f 166//166 167//167 151//151
f 167//167 168//168 152//152
f 168//168 169//169 153//153
f 169//169 194//194 176//176
f 190//190 172//172 173//173
f 191//191 173//173 174//174
f 192//192 174//174 175//175
f 193//193 175//175 171//171
f 189//189 171//171 178//178
f 189//189 193//193 171//171
f 190//190 173//173 191//191
f 191//191 174//174 192//192
f 192//192 175//175 193//193
f 195//195 177//177 176//176
f 197//197 179//179 177//177
f 196//196 178//178 179//179
f 194//194 195//195 176//176
f 195//195 197//197 177//177
f 196//196 179//179 197//197
f 189//189 178//178 196//196
f 9//9 10//10 17//17
f 11//11 9//9 16//16
f 32//32 11//11 18//18
f 10//10 22//22 17//17
f 9//9 17//17 16//16
f 11//11 16//16 18//18
f 32//32 18//18 40//40
f 15//15 12//12 19//19
f 12//12 13//13 20//20
f 13//13 14//14 21//21
f 14//14 97//97 146//146
f 10//10 15//15 22//22
f 12//12 20//20 19//19
f 13//13 21//21 20//20
f 21//21 14//14 146//146
f 15//15 19//19 22//22
f 40//40 33//33 32//32
f 41//41 34//34 33//33
f 42//42 35//35 34//34
f 43//43 36//36 35//35
f 40//40 41//41 33//33
f 41//41 42//42 34//34
f 42//42 43//43 35//35
f 44//44 37//37 36//36
f 43//43 44//44 36//36
f 45//45 38//38 37//37
f 46//46 39//39 38//38
f 47//47 121//121 39//39
f 44//44 45//45 37//37
f 45//45 46//46 38//38
f 46//46 47//47 39//39
f 47//47 172//172 121//121
f 63//63 60//60 67//67
f 60//60 61//61 68//68
f 146//146 154//154 62//62
f 61//61 62//62 69//69
f 57//57 58//58 65//65
f 59//59 57//57 64//64
f 81//81 59//59 66//66
f 70//70 65//65 58//58
f 65//65 64//64 57//57
f 64//64 66//66 59//59
f 66//66 89//89 81//81
f 68//68 67//67 60//60
f 69//69 68//68 61//61
f 62//62 154//154 69//69
f 58//58 63//63 70//70
f 67//67 70//70 63//63
f 86//86 85//85 93//93
f 87//87 86//86 94//94
f 172//172 88//88 96//96
f 88//88 87//87 95//95
f 82//82 81//81 89//89
f 83//83 82//82 90//90
f 84//84 83//83 91//91
f 85//85 84//84 92//92
f 82//82 89//89 90//90
f 83//83 90//90 91//91
f 84//84 91//91 92//92
f 85//85 92//92 93//93
f 86//86 93//93 94//94
f 87//87 94//94 95//95
f 88//88 95//95 96//96
f 172//172 96//96 181//181
f 97//97 98//98 105//105
f 98//98 99//99 106//106
f 99//99 100//100 107//107
f 100//100 101//101 108//108
f 109//109 108//108 101//101
f 101//101 102//102 109//109
f 102//102 103//103 110//110
f 103//103 104//104 111//111
f 104//104 125//125 133//133
f 110//110 109//109 102//102
f 111//111 110//110 103//103
f 111//111 104//104 133//133
f 106//106 105//105 98//98
f 146//146 97//97 105//105
f 107//107 106//106 99//99
f 108//108 107//107 100//100
f 127//127 120//120 129//129
f 122//122 121//121 172//172
f 123//123 122//122 130//130
f 124//124 123//123 131//131
f 120//120 124//124 132//132
f 125//125 126//126 134//134
f 126//126 128//128 136//136
f 128//128 127//127 135//135
f 133//133 125//125 134//134
f 126//126 136//136 134//134
f 128//128 135//135 136//136
f 127//127 129//129 135//135
f 120//120 132//132 129//129
f 123//123 130//130 131//131
f 122//122 172//172 130//130
f 124//124 131//131 132//132
f 146//146 147//147 155//155
f 147//147 148//148 156//156
f 148//148 149//149 157//157
f 149//149 150//150 158//158
f 154//154 146//146 155//155
f 147//147 156//156 155//155
f 148//148 157//157 156//156
f 149//149 158//158 157//157
f 150//150 159//159 158//158
f 150//150 151//151 159//159
f 151//151 152//152 160//160
f 152//152 153//153 161//161
f 153//153 176//176 185//185
f 151//151 160//160 159//159
f 152//152 161//161 160//160
f 161//161 153//153 185//185
f 173//173 172//172 181//181
f 174//174 173//173 182//182
f 175//175 174//174 183//183
f 171//171 175//175 184//184
f 178//178 171//171 180//180
f 171//171 184//184 180//180
f 173//173 181//181 182//182
f 174//174 182//182 183//183
f 175//175 183//183 184//184
f 176//176 177//177 186//186
f 177//177 179//179 188//188
f 179//179 178//178 187//187
f 176//176 186//186 185//185
f 177//177 188//188 186//186
f 179//179 187//187 188//188
f 178//178 180//180 187//187
