solid exported
	facet normal -1 0 0
		outer loop
			vertex -15 -15 -15
			vertex -15 -15 15
			vertex -15 -4.6193976402282715 -1.9134172201156616
		endloop
	endfacet
	facet normal -1 0 0
		outer loop
			vertex -15 -15 -15
			vertex -15 -4.157348155975342 -2.777851104736328
			vertex -15 -3.535533905029297 -3.535533905029297
		endloop
	endfacet
	facet normal -1 0 0
		outer loop
			vertex -15 -15 -15
			vertex -15 -4.6193976402282715 -1.9134172201156616
			vertex -15 -4.157348155975342 -2.777851104736328
		endloop
	endfacet
	facet normal 0 -1 0
		outer loop
			vertex -15 -15 -15
			vertex -3.535533905029297 -15 -3.535533905029297
			vertex -4.157348155975342 -15 -2.777851104736328
		endloop
	endfacet
	facet normal 0 -1 0
		outer loop
			vertex -15 -15 -15
			vertex -4.157348155975342 -15 -2.777851104736328
			vertex -4.6193976402282715 -15 -1.9134172201156616
		endloop
	endfacet
	facet normal 0 -1 0
		outer loop
			vertex -15 -15 -15
			vertex -4.6193976402282715 -15 -1.9134172201156616
			vertex -4.903926372528076 -15 -0.9754515886306763
		endloop
	endfacet
	facet normal 0 -1 0
		outer loop
			vertex -15 -15 -15
			vertex -4.903926372528076 -15 -0.9754515886306763
			vertex -5 -15 0
		endloop
	endfacet
	facet normal 0 -1 0
		outer loop
			vertex -15 -15 -15
			vertex -5 -15 0
			vertex -4.903926372528076 -15 0.9754515886306763
		endloop
	endfacet
	facet normal 0 -1 0
		outer loop
			vertex -15 -15 -15
			vertex -4.903926372528076 -15 0.9754515886306763
			vertex -4.6193976402282715 -15 1.9134172201156616
		endloop
	endfacet
	facet normal -1 0 0
		outer loop
			vertex -15 -15 -15
			vertex -15 -3.535533905029297 -3.535533905029297
			vertex -15 -2.777851104736328 -4.157348155975342
		endloop
	endfacet
	facet normal -1 0 0
		outer loop
			vertex -15 -15 -15
			vertex -15 -2.777851104736328 -4.157348155975342
			vertex -15 -1.9134172201156616 -4.6193976402282715
		endloop
	endfacet
	facet normal -1 0 0
		outer loop
			vertex -15 -15 -15
			vertex -15 -1.9134172201156616 -4.6193976402282715
			vertex -15 -0.9754515886306763 -4.903926372528076
		endloop
	endfacet
	facet normal -1 0 0
		outer loop
			vertex -15 -15 -15
			vertex -15 -0.9754515886306763 -4.903926372528076
			vertex -15 0 -5
		endloop
	endfacet
	facet normal -1 0 0
		outer loop
			vertex -15 -15 -15
			vertex -15 0 -5
			vertex -15 0.9754515886306763 -4.903926372528076
		endloop
	endfacet
	facet normal -1 0 0
		outer loop
			vertex -15 -15 -15
			vertex -15 0.9754515886306763 -4.903926372528076
			vertex -15 1.9134172201156616 -4.6193976402282715
		endloop
	endfacet
	facet normal 0 -1 0
		outer loop
			vertex -15 -15 -15
			vertex -2.777851104736328 -15 -4.157348155975342
			vertex -3.535533905029297 -15 -3.535533905029297
		endloop
	endfacet
	facet normal 0 -1 0
		outer loop
			vertex -15 -15 -15
			vertex -1.9134172201156616 -15 -4.6193976402282715
			vertex -2.777851104736328 -15 -4.157348155975342
		endloop
	endfacet
	facet normal 0 -1 0
		outer loop
			vertex -15 -15 -15
			vertex 15 -15 -15
			vertex -1.9134172201156616 -15 -4.6193976402282715
		endloop
	endfacet
	facet normal 0 0 -1
		outer loop
			vertex -15 -15 -15
			vertex -15 15 -15
			vertex 15 -15 -15
		endloop
	endfacet
	facet normal 0 -1 0
		outer loop
			vertex -15 -15 -15
			vertex -4.6193976402282715 -15 1.9134172201156616
			vertex -15 -15 15
		endloop
	endfacet
	facet normal -1 0 0
		outer loop
			vertex -15 -4.6193976402282715 -1.9134172201156616
			vertex -15 -15 15
			vertex -15 -4.903926372528076 -0.9754515886306763
		endloop
	endfacet
	facet normal -1 0 0
		outer loop
			vertex -15 -4.903926372528076 -0.9754515886306763
			vertex -15 -15 15
			vertex -15 -5 0
		endloop
	endfacet
	facet normal -1 0 0
		outer loop
			vertex -15 -15 15
			vertex -15 -4.903926372528076 0.9754515886306763
			vertex -15 -5 0
		endloop
	endfacet
	facet normal -1 0 0
		outer loop
			vertex -15 -15 15
			vertex -15 -4.6193976402282715 1.9134172201156616
			vertex -15 -4.903926372528076 0.9754515886306763
		endloop
	endfacet
	facet normal -1 0 0
		outer loop
			vertex -15 -15 15
			vertex -15 -4.157348155975342 2.777851104736328
			vertex -15 -4.6193976402282715 1.9134172201156616
		endloop
	endfacet
	facet normal -1 0 0
		outer loop
			vertex -15 -15 15
			vertex -15 -3.535533905029297 3.535533905029297
			vertex -15 -4.157348155975342 2.777851104736328
		endloop
	endfacet
	facet normal 0 -1 0
		outer loop
			vertex -15 -15 15
			vertex -4.6193976402282715 -15 1.9134172201156616
			vertex -4.157348155975342 -15 2.777851104736328
		endloop
	endfacet
	facet normal 0 -1 0
		outer loop
			vertex -15 -15 15
			vertex -4.157348155975342 -15 2.777851104736328
			vertex -3.535533905029297 -15 3.535533905029297
		endloop
	endfacet
	facet normal -1 0 0
		outer loop
			vertex -15 -15 15
			vertex -15 -2.777851104736328 4.157348155975342
			vertex -15 -3.535533905029297 3.535533905029297
		endloop
	endfacet
	facet normal -1 0 0
		outer loop
			vertex -15 -15 15
			vertex -15 -1.9134172201156616 4.6193976402282715
			vertex -15 -2.777851104736328 4.157348155975342
		endloop
	endfacet
	facet normal -1 0 0
		outer loop
			vertex -15 -15 15
			vertex -15 15 15
			vertex -15 -1.9134172201156616 4.6193976402282715
		endloop
	endfacet
	facet normal 0 -1 0
		outer loop
			vertex -15 -15 15
			vertex -3.535533905029297 -15 3.535533905029297
			vertex -2.777851104736328 -15 4.157348155975342
		endloop
	endfacet
	facet normal 0 -1 0
		outer loop
			vertex -15 -15 15
			vertex -2.777851104736328 -15 4.157348155975342
			vertex -1.9134172201156616 -15 4.6193976402282715
		endloop
	endfacet
	facet normal 0 -1 0
		outer loop
			vertex -15 -15 15
			vertex -1.9134172201156616 -15 4.6193976402282715
			vertex -0.9754515886306763 -15 4.903926372528076
		endloop
	endfacet
	facet normal 0 -1 0
		outer loop
			vertex -15 -15 15
			vertex -0.9754515886306763 -15 4.903926372528076
			vertex 0 -15 5
		endloop
	endfacet
	facet normal 0 -1 0
		outer loop
			vertex -15 -15 15
			vertex 0 -15 5
			vertex 0.9754515886306763 -15 4.903926372528076
		endloop
	endfacet
	facet normal 0 -1 0
		outer loop
			vertex -15 -15 15
			vertex 0.9754515886306763 -15 4.903926372528076
			vertex 1.9134172201156616 -15 4.6193976402282715
		endloop
	endfacet
	facet normal 0 0 1
		outer loop
			vertex -15 -15 15
			vertex 15 -15 15
			vertex -15 15 15
		endloop
	endfacet
	facet normal -1 0 0
		outer loop
			vertex -15 -15 -15
			vertex -15 1.9134172201156616 -4.6193976402282715
			vertex -15 15 -15
		endloop
	endfacet
	facet normal -1 0 0
		outer loop
			vertex -15 1.9134172201156616 -4.6193976402282715
			vertex -15 2.777851104736328 -4.157348155975342
			vertex -15 15 -15
		endloop
	endfacet
	facet normal -1 0 0
		outer loop
			vertex -15 2.777851104736328 -4.157348155975342
			vertex -15 3.535533905029297 -3.535533905029297
			vertex -15 15 -15
		endloop
	endfacet
	facet normal -1 0 0
		outer loop
			vertex -15 3.535533905029297 -3.535533905029297
			vertex -15 4.157348155975342 -2.777851104736328
			vertex -15 15 -15
		endloop
	endfacet
	facet normal -1 0 0
		outer loop
			vertex -15 4.157348155975342 -2.777851104736328
			vertex -15 4.6193976402282715 -1.9134172201156616
			vertex -15 15 -15
		endloop
	endfacet
	facet normal -1 0 0
		outer loop
			vertex -15 4.6193976402282715 -1.9134172201156616
			vertex -15 4.903926372528076 -0.9754515886306763
			vertex -15 15 -15
		endloop
	endfacet
	facet normal -1 0 0
		outer loop
			vertex -15 4.903926372528076 -0.9754515886306763
			vertex -15 5 0
			vertex -15 15 -15
		endloop
	endfacet
	facet normal -1 0 0
		outer loop
			vertex -15 15 -15
			vertex -15 5 0
			vertex -15 4.903926372528076 0.9754515886306763
		endloop
	endfacet
	facet normal -1 0 0
		outer loop
			vertex -15 15 -15
			vertex -15 4.903926372528076 0.9754515886306763
			vertex -15 4.6193976402282715 1.9134172201156616
		endloop
	endfacet
	facet normal 0 1 0
		outer loop
			vertex -15 15 -15
			vertex -15 15 15
			vertex -4.6193976402282715 15 -1.9134172201156616
		endloop
	endfacet
	facet normal 0 1 0
		outer loop
			vertex -15 15 -15
			vertex -4.157348155975342 15 -2.777851104736328
			vertex -3.535533905029297 15 -3.535533905029297
		endloop
	endfacet
	facet normal 0 1 0
		outer loop
			vertex -15 15 -15
			vertex -4.6193976402282715 15 -1.9134172201156616
			vertex -4.157348155975342 15 -2.777851104736328
		endloop
	endfacet
	facet normal 0 1 0
		outer loop
			vertex -15 15 -15
			vertex -3.535533905029297 15 -3.535533905029297
			vertex -2.777851104736328 15 -4.157348155975342
		endloop
	endfacet
	facet normal 0 1 0
		outer loop
			vertex -15 15 -15
			vertex -2.777851104736328 15 -4.157348155975342
			vertex -1.9134172201156616 15 -4.6193976402282715
		endloop
	endfacet
	facet normal 0 1 0
		outer loop
			vertex -15 15 -15
			vertex -1.9134172201156616 15 -4.6193976402282715
			vertex -0.9754515886306763 15 -4.903926372528076
		endloop
	endfacet
	facet normal 0 1 0
		outer loop
			vertex -15 15 -15
			vertex -0.9754515886306763 15 -4.903926372528076
			vertex 0 15 -5
		endloop
	endfacet
	facet normal 0 1 0
		outer loop
			vertex -15 15 -15
			vertex 0 15 -5
			vertex 0.9754515886306763 15 -4.903926372528076
		endloop
	endfacet
	facet normal 0 1 0
		outer loop
			vertex -15 15 -15
			vertex 0.9754515886306763 15 -4.903926372528076
			vertex 1.9134172201156616 15 -4.6193976402282715
		endloop
	endfacet
	facet normal -1 0 0
		outer loop
			vertex -15 -1.9134172201156616 4.6193976402282715
			vertex -15 15 15
			vertex -15 -0.9754515886306763 4.903926372528076
		endloop
	endfacet
	facet normal -1 0 0
		outer loop
			vertex -15 -0.9754515886306763 4.903926372528076
			vertex -15 15 15
			vertex -15 0 5
		endloop
	endfacet
	facet normal -1 0 0
		outer loop
			vertex -15 0 5
			vertex -15 15 15
			vertex -15 0.9754515886306763 4.903926372528076
		endloop
	endfacet
	facet normal -1 0 0
		outer loop
			vertex -15 0.9754515886306763 4.903926372528076
			vertex -15 15 15
			vertex -15 1.9134172201156616 4.6193976402282715
		endloop
	endfacet
	facet normal -1 0 0
		outer loop
			vertex -15 1.9134172201156616 4.6193976402282715
			vertex -15 15 15
			vertex -15 2.777851104736328 4.157348155975342
		endloop
	endfacet
	facet normal -1 0 0
		outer loop
			vertex -15 3.535533905029297 3.535533905029297
			vertex -15 2.777851104736328 4.157348155975342
			vertex -15 15 15
		endloop
	endfacet
	facet normal -1 0 0
		outer loop
			vertex -15 4.157348155975342 2.777851104736328
			vertex -15 15 15
			vertex -15 4.6193976402282715 1.9134172201156616
		endloop
	endfacet
	facet normal -1 0 0
		outer loop
			vertex -15 3.535533905029297 3.535533905029297
			vertex -15 15 15
			vertex -15 4.157348155975342 2.777851104736328
		endloop
	endfacet
	facet normal -1 0 0
		outer loop
			vertex -15 15 -15
			vertex -15 4.6193976402282715 1.9134172201156616
			vertex -15 15 15
		endloop
	endfacet
	facet normal 0 1 0
		outer loop
			vertex -15 15 15
			vertex -4.903926372528076 15 -0.9754515886306763
			vertex -4.6193976402282715 15 -1.9134172201156616
		endloop
	endfacet
	facet normal 0 1 0
		outer loop
			vertex -15 15 15
			vertex -5 15 0
			vertex -4.903926372528076 15 -0.9754515886306763
		endloop
	endfacet
	facet normal 0 1 0
		outer loop
			vertex -15 15 15
			vertex -4.903926372528076 15 0.9754515886306763
			vertex -5 15 0
		endloop
	endfacet
	facet normal 0 1 0
		outer loop
			vertex -15 15 15
			vertex -4.6193976402282715 15 1.9134172201156616
			vertex -4.903926372528076 15 0.9754515886306763
		endloop
	endfacet
	facet normal 0 1 0
		outer loop
			vertex -15 15 15
			vertex -4.157348155975342 15 2.777851104736328
			vertex -4.6193976402282715 15 1.9134172201156616
		endloop
	endfacet
	facet normal 0 1 0
		outer loop
			vertex -15 15 15
			vertex -3.535533905029297 15 3.535533905029297
			vertex -4.157348155975342 15 2.777851104736328
		endloop
	endfacet
	facet normal 0 1 0
		outer loop
			vertex -15 15 15
			vertex -2.777851104736328 15 4.157348155975342
			vertex -3.535533905029297 15 3.535533905029297
		endloop
	endfacet
	facet normal 0 1 0
		outer loop
			vertex -15 15 15
			vertex -1.9134172201156616 15 4.6193976402282715
			vertex -2.777851104736328 15 4.157348155975342
		endloop
	endfacet
	facet normal 0 1 0
		outer loop
			vertex -15 15 15
			vertex 15 15 15
			vertex -1.9134172201156616 15 4.6193976402282715
		endloop
	endfacet
	facet normal 0 -1 0
		outer loop
			vertex 15 -15 -15
			vertex -0.9754515886306763 -15 -4.903926372528076
			vertex -1.9134172201156616 -15 -4.6193976402282715
		endloop
	endfacet
	facet normal 0 -1 0
		outer loop
			vertex 15 -15 -15
			vertex 0 -15 -5
			vertex -0.9754515886306763 -15 -4.903926372528076
		endloop
	endfacet
	facet normal 0 -1 0
		outer loop
			vertex 15 -15 -15
			vertex 0.9754515886306763 -15 -4.903926372528076
			vertex 0 -15 -5
		endloop
	endfacet
	facet normal 0 -1 0
		outer loop
			vertex 15 -15 -15
			vertex 1.9134172201156616 -15 -4.6193976402282715
			vertex 0.9754515886306763 -15 -4.903926372528076
		endloop
	endfacet
	facet normal 0 -1 0
		outer loop
			vertex 15 -15 -15
			vertex 2.777851104736328 -15 -4.157348155975342
			vertex 1.9134172201156616 -15 -4.6193976402282715
		endloop
	endfacet
	facet normal 0 -1 0
		outer loop
			vertex 15 -15 -15
			vertex 3.535533905029297 -15 -3.535533905029297
			vertex 2.777851104736328 -15 -4.157348155975342
		endloop
	endfacet
	facet normal 0 -1 0
		outer loop
			vertex 15 -15 -15
			vertex 4.157348155975342 -15 -2.777851104736328
			vertex 3.535533905029297 -15 -3.535533905029297
		endloop
	endfacet
	facet normal 0 -1 0
		outer loop
			vertex 15 -15 -15
			vertex 4.6193976402282715 -15 -1.9134172201156616
			vertex 4.157348155975342 -15 -2.777851104736328
		endloop
	endfacet
	facet normal 0 -1 0
		outer loop
			vertex 15 -15 -15
			vertex 15 -15 15
			vertex 4.6193976402282715 -15 -1.9134172201156616
		endloop
	endfacet
	facet normal 1 0 0
		outer loop
			vertex 15 -15 -15
			vertex 15 -3.535533905029297 -3.535533905029297
			vertex 15 -4.157348155975342 -2.777851104736328
		endloop
	endfacet
	facet normal 1 0 0
		outer loop
			vertex 15 -15 -15
			vertex 15 -4.157348155975342 -2.777851104736328
			vertex 15 -4.6193976402282715 -1.9134172201156616
		endloop
	endfacet
	facet normal 1 0 0
		outer loop
			vertex 15 -15 -15
			vertex 15 -4.6193976402282715 -1.9134172201156616
			vertex 15 -4.903926372528076 -0.9754515886306763
		endloop
	endfacet
	facet normal 1 0 0
		outer loop
			vertex 15 -15 -15
			vertex 15 -4.903926372528076 -0.9754515886306763
			vertex 15 -5 0
		endloop
	endfacet
	facet normal 1 0 0
		outer loop
			vertex 15 -15 -15
			vertex 15 -5 0
			vertex 15 -4.903926372528076 0.9754515886306763
		endloop
	endfacet
	facet normal 1 0 0
		outer loop
			vertex 15 -15 -15
			vertex 15 -4.903926372528076 0.9754515886306763
			vertex 15 -4.6193976402282715 1.9134172201156616
		endloop
	endfacet
	facet normal 1 0 0
		outer loop
			vertex 15 -15 -15
			vertex 15 -2.777851104736328 -4.157348155975342
			vertex 15 -3.535533905029297 -3.535533905029297
		endloop
	endfacet
	facet normal 1 0 0
		outer loop
			vertex 15 -15 -15
			vertex 15 -1.9134172201156616 -4.6193976402282715
			vertex 15 -2.777851104736328 -4.157348155975342
		endloop
	endfacet
	facet normal 1 0 0
		outer loop
			vertex 15 -15 -15
			vertex 15 15 -15
			vertex 15 -1.9134172201156616 -4.6193976402282715
		endloop
	endfacet
	facet normal 0 -1 0
		outer loop
			vertex -15 -15 15
			vertex 1.9134172201156616 -15 4.6193976402282715
			vertex 15 -15 15
		endloop
	endfacet
	facet normal 0 -1 0
		outer loop
			vertex 15 -15 15
			vertex 1.9134172201156616 -15 4.6193976402282715
			vertex 2.777851104736328 -15 4.157348155975342
		endloop
	endfacet
	facet normal 0 -1 0
		outer loop
			vertex 15 -15 15
			vertex 2.777851104736328 -15 4.157348155975342
			vertex 3.535533905029297 -15 3.535533905029297
		endloop
	endfacet
	facet normal 0 -1 0
		outer loop
			vertex 15 -15 15
			vertex 4.903926372528076 -15 -0.9754515886306763
			vertex 4.6193976402282715 -15 -1.9134172201156616
		endloop
	endfacet
	facet normal 0 -1 0
		outer loop
			vertex 15 -15 15
			vertex 5 -15 0
			vertex 4.903926372528076 -15 -0.9754515886306763
		endloop
	endfacet
	facet normal 0 -1 0
		outer loop
			vertex 15 -15 15
			vertex 4.903926372528076 -15 0.9754515886306763
			vertex 5 -15 0
		endloop
	endfacet
	facet normal 0 -1 0
		outer loop
			vertex 15 -15 15
			vertex 4.6193976402282715 -15 1.9134172201156616
			vertex 4.903926372528076 -15 0.9754515886306763
		endloop
	endfacet
	facet normal 0 -1 0
		outer loop
			vertex 15 -15 15
			vertex 4.157348155975342 -15 2.777851104736328
			vertex 4.6193976402282715 -15 1.9134172201156616
		endloop
	endfacet
	facet normal 0 -1 0
		outer loop
			vertex 15 -15 15
			vertex 3.535533905029297 -15 3.535533905029297
			vertex 4.157348155975342 -15 2.777851104736328
		endloop
	endfacet
	facet normal 1 0 0
		outer loop
			vertex 15 -15 -15
			vertex 15 -4.6193976402282715 1.9134172201156616
			vertex 15 -15 15
		endloop
	endfacet
	facet normal 1 0 0
		outer loop
			vertex 15 -15 15
			vertex 15 -4.6193976402282715 1.9134172201156616
			vertex 15 -4.157348155975342 2.777851104736328
		endloop
	endfacet
	facet normal 1 0 0
		outer loop
			vertex 15 -15 15
			vertex 15 -4.157348155975342 2.777851104736328
			vertex 15 -3.535533905029297 3.535533905029297
		endloop
	endfacet
	facet normal 1 0 0
		outer loop
			vertex 15 -15 15
			vertex 15 -3.535533905029297 3.535533905029297
			vertex 15 -2.777851104736328 4.157348155975342
		endloop
	endfacet
	facet normal 1 0 0
		outer loop
			vertex 15 -15 15
			vertex 15 -2.777851104736328 4.157348155975342
			vertex 15 -1.9134172201156616 4.6193976402282715
		endloop
	endfacet
	facet normal 1 0 0
		outer loop
			vertex 15 -15 15
			vertex 15 -1.9134172201156616 4.6193976402282715
			vertex 15 -0.9754515886306763 4.903926372528076
		endloop
	endfacet
	facet normal 1 0 0
		outer loop
			vertex 15 -15 15
			vertex 15 -0.9754515886306763 4.903926372528076
			vertex 15 0 5
		endloop
	endfacet
	facet normal 1 0 0
		outer loop
			vertex 15 -15 15
			vertex 15 0 5
			vertex 15 0.9754515886306763 4.903926372528076
		endloop
	endfacet
	facet normal 1 0 0
		outer loop
			vertex 15 -15 15
			vertex 15 0.9754515886306763 4.903926372528076
			vertex 15 1.9134172201156616 4.6193976402282715
		endloop
	endfacet
	facet normal 0 0 -1
		outer loop
			vertex -15 15 -15
			vertex 15 15 -15
			vertex 15 -15 -15
		endloop
	endfacet
	facet normal 0 1 0
		outer loop
			vertex -15 15 -15
			vertex 1.9134172201156616 15 -4.6193976402282715
			vertex 15 15 -15
		endloop
	endfacet
	facet normal 0 1 0
		outer loop
			vertex 15 15 -15
			vertex 1.9134172201156616 15 -4.6193976402282715
			vertex 2.777851104736328 15 -4.157348155975342
		endloop
	endfacet
	facet normal 0 1 0
		outer loop
			vertex 15 15 -15
			vertex 2.777851104736328 15 -4.157348155975342
			vertex 3.535533905029297 15 -3.535533905029297
		endloop
	endfacet
	facet normal 1 0 0
		outer loop
			vertex 15 -1.9134172201156616 -4.6193976402282715
			vertex 15 15 -15
			vertex 15 -0.9754515886306763 -4.903926372528076
		endloop
	endfacet
	facet normal 1 0 0
		outer loop
			vertex 15 -0.9754515886306763 -4.903926372528076
			vertex 15 15 -15
			vertex 15 0 -5
		endloop
	endfacet
	facet normal 1 0 0
		outer loop
			vertex 15 0 -5
			vertex 15 15 -15
			vertex 15 0.9754515886306763 -4.903926372528076
		endloop
	endfacet
	facet normal 1 0 0
		outer loop
			vertex 15 0.9754515886306763 -4.903926372528076
			vertex 15 15 -15
			vertex 15 1.9134172201156616 -4.6193976402282715
		endloop
	endfacet
	facet normal 1 0 0
		outer loop
			vertex 15 1.9134172201156616 -4.6193976402282715
			vertex 15 15 -15
			vertex 15 2.777851104736328 -4.157348155975342
		endloop
	endfacet
	facet normal 1 0 0
		outer loop
			vertex 15 2.777851104736328 -4.157348155975342
			vertex 15 15 -15
			vertex 15 3.535533905029297 -3.535533905029297
		endloop
	endfacet
	facet normal 0 1 0
		outer loop
			vertex 15 15 -15
			vertex 3.535533905029297 15 -3.535533905029297
			vertex 4.157348155975342 15 -2.777851104736328
		endloop
	endfacet
	facet normal 0 1 0
		outer loop
			vertex 15 15 -15
			vertex 4.157348155975342 15 -2.777851104736328
			vertex 4.6193976402282715 15 -1.9134172201156616
		endloop
	endfacet
	facet normal 0 1 0
		outer loop
			vertex 15 15 -15
			vertex 4.6193976402282715 15 -1.9134172201156616
			vertex 4.903926372528076 15 -0.9754515886306763
		endloop
	endfacet
	facet normal 0 1 0
		outer loop
			vertex 15 15 -15
			vertex 4.903926372528076 15 -0.9754515886306763
			vertex 5 15 0
		endloop
	endfacet
	facet normal 0 1 0
		outer loop
			vertex 15 15 -15
			vertex 5 15 0
			vertex 4.903926372528076 15 0.9754515886306763
		endloop
	endfacet
	facet normal 0 1 0
		outer loop
			vertex 15 15 -15
			vertex 4.903926372528076 15 0.9754515886306763
			vertex 4.6193976402282715 15 1.9134172201156616
		endloop
	endfacet
	facet normal 1 0 0
		outer loop
			vertex 15 3.535533905029297 -3.535533905029297
			vertex 15 15 -15
			vertex 15 4.157348155975342 -2.777851104736328
		endloop
	endfacet
	facet normal 1 0 0
		outer loop
			vertex 15 4.157348155975342 -2.777851104736328
			vertex 15 15 -15
			vertex 15 4.6193976402282715 -1.9134172201156616
		endloop
	endfacet
	facet normal 1 0 0
		outer loop
			vertex 15 4.6193976402282715 -1.9134172201156616
			vertex 15 15 -15
			vertex 15 15 15
		endloop
	endfacet
	facet normal 0 0 1
		outer loop
			vertex -15 15 15
			vertex 15 -15 15
			vertex 15 15 15
		endloop
	endfacet
	facet normal 0 1 0
		outer loop
			vertex 15 15 15
			vertex -0.9754515886306763 15 4.903926372528076
			vertex -1.9134172201156616 15 4.6193976402282715
		endloop
	endfacet
	facet normal 0 1 0
		outer loop
			vertex 15 15 15
			vertex 0 15 5
			vertex -0.9754515886306763 15 4.903926372528076
		endloop
	endfacet
	facet normal 0 1 0
		outer loop
			vertex 15 15 15
			vertex 0.9754515886306763 15 4.903926372528076
			vertex 0 15 5
		endloop
	endfacet
	facet normal 0 1 0
		outer loop
			vertex 15 15 15
			vertex 1.9134172201156616 15 4.6193976402282715
			vertex 0.9754515886306763 15 4.903926372528076
		endloop
	endfacet
	facet normal 0 1 0
		outer loop
			vertex 15 15 15
			vertex 2.777851104736328 15 4.157348155975342
			vertex 1.9134172201156616 15 4.6193976402282715
		endloop
	endfacet
	facet normal 0 1 0
		outer loop
			vertex 15 15 15
			vertex 3.535533905029297 15 3.535533905029297
			vertex 2.777851104736328 15 4.157348155975342
		endloop
	endfacet
	facet normal 1 0 0
		outer loop
			vertex 15 -15 15
			vertex 15 1.9134172201156616 4.6193976402282715
			vertex 15 15 15
		endloop
	endfacet
	facet normal 1 0 0
		outer loop
			vertex 15 1.9134172201156616 4.6193976402282715
			vertex 15 2.777851104736328 4.157348155975342
			vertex 15 15 15
		endloop
	endfacet
	facet normal 1 0 0
		outer loop
			vertex 15 3.535533905029297 3.535533905029297
			vertex 15 15 15
			vertex 15 2.777851104736328 4.157348155975342
		endloop
	endfacet
	facet normal 0 1 0
		outer loop
			vertex 15 15 15
			vertex 4.6193976402282715 15 1.9134172201156616
			vertex 4.157348155975342 15 2.777851104736328
		endloop
	endfacet
	facet normal 0 1 0
		outer loop
			vertex 15 15 15
			vertex 4.157348155975342 15 2.777851104736328
			vertex 3.535533905029297 15 3.535533905029297
		endloop
	endfacet
	facet normal 1 0 0
		outer loop
			vertex 15 4.6193976402282715 -1.9134172201156616
			vertex 15 15 15
			vertex 15 4.903926372528076 -0.9754515886306763
		endloop
	endfacet
	facet normal 1 0 0
		outer loop
			vertex 15 4.903926372528076 -0.9754515886306763
			vertex 15 15 15
			vertex 15 5 0
		endloop
	endfacet
	facet normal 1 0 0
		outer loop
			vertex 15 5 0
			vertex 15 15 15
			vertex 15 4.903926372528076 0.9754515886306763
		endloop
	endfacet
	facet normal 1 0 0
		outer loop
			vertex 15 4.903926372528076 0.9754515886306763
			vertex 15 15 15
			vertex 15 4.6193976402282715 1.9134172201156616
		endloop
	endfacet
	facet normal 1 0 0
		outer loop
			vertex 15 4.157348155975342 2.777851104736328
			vertex 15 4.6193976402282715 1.9134172201156616
			vertex 15 15 15
		endloop
	endfacet
	facet normal 1 0 0
		outer loop
			vertex 15 3.535533905029297 3.535533905029297
			vertex 15 4.157348155975342 2.777851104736328
			vertex 15 15 15
		endloop
	endfacet
	facet normal 0 1 0
		outer loop
			vertex 15 15 -15
			vertex 4.6193976402282715 15 1.9134172201156616
			vertex 15 15 15
		endloop
	endfacet
	facet normal 0 0.7730104300631866 0.6343933125542286
		outer loop
			vertex -15 -4.157348155975342 -2.777851104736328
			vertex -4.157348155975342 -4.157348155975342 -2.777851104736328
			vertex -15 -3.535533905029297 -3.535533905029297
		endloop
	endfacet
	facet normal 0 0.8819212869849845 0.47139669447584026
		outer loop
			vertex -15 -4.6193976402282715 -1.9134172201156616
			vertex -4.6193976402282715 -4.6193976402282715 -1.9134172201156616
			vertex -15 -4.157348155975342 -2.777851104736328
		endloop
	endfacet
	facet normal 0 0.956940344616612 0.29028464796650855
		outer loop
			vertex -15 -4.6193976402282715 -1.9134172201156616
			vertex -15 -4.903926372528076 -0.9754515886306763
			vertex -4.903926372528076 -4.903926372528076 -0.9754515886306763
		endloop
	endfacet
	facet normal 0 0.9951847235273418 0.09801717225980695
		outer loop
			vertex -15 -4.903926372528076 -0.9754515886306763
			vertex -15 -5 0
			vertex -5 -5 0
		endloop
	endfacet
	facet normal 0 0.8819212869849846 0.4713966944758403
		outer loop
			vertex -15 -4.157348155975342 -2.777851104736328
			vertex -4.6193976402282715 -4.6193976402282715 -1.9134172201156616
			vertex -4.157348155975342 -4.157348155975342 -2.777851104736328
		endloop
	endfacet
	facet normal 0 0.9569403446166121 0.29028464796650855
		outer loop
			vertex -15 -4.6193976402282715 -1.9134172201156616
			vertex -4.903926372528076 -4.903926372528076 -0.9754515886306763
			vertex -4.6193976402282715 -4.6193976402282715 -1.9134172201156616
		endloop
	endfacet
	facet normal 0 0.9951847235273417 0.09801717225980694
		outer loop
			vertex -15 -4.903926372528076 -0.9754515886306763
			vertex -5 -5 0
			vertex -4.903926372528076 -4.903926372528076 -0.9754515886306763
		endloop
	endfacet
	facet normal 0 0.4713966944758403 0.8819212869849846
		outer loop
			vertex -15 -2.777851104736328 -4.157348155975342
			vertex -2.777851104736328 -2.777851104736328 -4.157348155975342
			vertex -15 -1.9134172201156616 -4.6193976402282715
		endloop
	endfacet
	facet normal 0 0.29028464796650855 0.9569403446166121
		outer loop
			vertex -15 -1.9134172201156616 -4.6193976402282715
			vertex -1.9134172201156616 -1.9134172201156616 -4.6193976402282715
			vertex -15 -0.9754515886306763 -4.903926372528076
		endloop
	endfacet
	facet normal 0 0.09801717225980694 0.9951847235273417
		outer loop
			vertex -15 -0.9754515886306763 -4.903926372528076
			vertex -0.9754515886306763 -0.9754515886306763 -4.903926372528076
			vertex -15 0 -5
		endloop
	endfacet
	facet normal 0 0.6343933125542286 0.7730104300631868
		outer loop
			vertex -15 -2.777851104736328 -4.157348155975342
			vertex -15 -3.535533905029297 -3.535533905029297
			vertex -3.535533905029297 -3.535533905029297 -3.535533905029297
		endloop
	endfacet
	facet normal 0 0.7730104300631868 0.6343933125542286
		outer loop
			vertex -15 -3.535533905029297 -3.535533905029297
			vertex -4.157348155975342 -4.157348155975342 -2.777851104736328
			vertex -3.535533905029297 -3.535533905029297 -3.535533905029297
		endloop
	endfacet
	facet normal 0 0.6343933125542286 0.7730104300631867
		outer loop
			vertex -15 -2.777851104736328 -4.157348155975342
			vertex -3.535533905029297 -3.535533905029297 -3.535533905029297
			vertex -2.777851104736328 -2.777851104736328 -4.157348155975342
		endloop
	endfacet
	facet normal 0 0.4713966944758403 0.8819212869849846
		outer loop
			vertex -15 -1.9134172201156616 -4.6193976402282715
			vertex -2.777851104736328 -2.777851104736328 -4.157348155975342
			vertex -1.9134172201156616 -1.9134172201156616 -4.6193976402282715
		endloop
	endfacet
	facet normal 0 0.29028464796650855 0.9569403446166121
		outer loop
			vertex -15 -0.9754515886306763 -4.903926372528076
			vertex -1.9134172201156616 -1.9134172201156616 -4.6193976402282715
			vertex -0.9754515886306763 -0.9754515886306763 -4.903926372528076
		endloop
	endfacet
	facet normal 0 0.09801717225980694 0.9951847235273417
		outer loop
			vertex -15 0 -5
			vertex -0.9754515886306763 -0.9754515886306763 -4.903926372528076
			vertex 0 0 -5
		endloop
	endfacet
	facet normal 0 0.9951847235273418 -0.09801717225980695
		outer loop
			vertex -15 -5 0
			vertex -15 -4.903926372528076 0.9754515886306763
			vertex -5 -5 0
		endloop
	endfacet
	facet normal 0 0.956940344616612 -0.29028464796650855
		outer loop
			vertex -15 -4.903926372528076 0.9754515886306763
			vertex -15 -4.6193976402282715 1.9134172201156616
			vertex -4.903926372528076 -4.903926372528076 0.9754515886306763
		endloop
	endfacet
	facet normal 0 0.8819212869849845 -0.47139669447584026
		outer loop
			vertex -15 -4.6193976402282715 1.9134172201156616
			vertex -15 -4.157348155975342 2.777851104736328
			vertex -4.6193976402282715 -4.6193976402282715 1.9134172201156616
		endloop
	endfacet
	facet normal 0 0.7730104300631866 -0.6343933125542286
		outer loop
			vertex -15 -4.157348155975342 2.777851104736328
			vertex -15 -3.535533905029297 3.535533905029297
			vertex -4.157348155975342 -4.157348155975342 2.777851104736328
		endloop
	endfacet
	facet normal 0 0.9951847235273417 -0.09801717225980694
		outer loop
			vertex -15 -4.903926372528076 0.9754515886306763
			vertex -4.903926372528076 -4.903926372528076 0.9754515886306763
			vertex -5 -5 0
		endloop
	endfacet
	facet normal 0 0.9569403446166121 -0.29028464796650855
		outer loop
			vertex -15 -4.6193976402282715 1.9134172201156616
			vertex -4.6193976402282715 -4.6193976402282715 1.9134172201156616
			vertex -4.903926372528076 -4.903926372528076 0.9754515886306763
		endloop
	endfacet
	facet normal 0 0.8819212869849846 -0.4713966944758403
		outer loop
			vertex -15 -4.157348155975342 2.777851104736328
			vertex -4.157348155975342 -4.157348155975342 2.777851104736328
			vertex -4.6193976402282715 -4.6193976402282715 1.9134172201156616
		endloop
	endfacet
	facet normal 0 0.6343933125542286 -0.7730104300631868
		outer loop
			vertex -15 -3.535533905029297 3.535533905029297
			vertex -15 -2.777851104736328 4.157348155975342
			vertex -3.535533905029297 -3.535533905029297 3.535533905029297
		endloop
	endfacet
	facet normal 0 0.7730104300631868 -0.6343933125542286
		outer loop
			vertex -15 -3.535533905029297 3.535533905029297
			vertex -3.535533905029297 -3.535533905029297 3.535533905029297
			vertex -4.157348155975342 -4.157348155975342 2.777851104736328
		endloop
	endfacet
	facet normal 0 0.4713966944758403 -0.8819212869849846
		outer loop
			vertex -15 -2.777851104736328 4.157348155975342
			vertex -15 -1.9134172201156616 4.6193976402282715
			vertex -2.777851104736328 -2.777851104736328 4.157348155975342
		endloop
	endfacet
	facet normal 0 0.29028464796650855 -0.9569403446166121
		outer loop
			vertex -15 -1.9134172201156616 4.6193976402282715
			vertex -15 -0.9754515886306763 4.903926372528076
			vertex -1.9134172201156616 -1.9134172201156616 4.6193976402282715
		endloop
	endfacet
	facet normal 0 0.09801717225980694 -0.9951847235273417
		outer loop
			vertex -15 -0.9754515886306763 4.903926372528076
			vertex -15 0 5
			vertex -0.9754515886306763 -0.9754515886306763 4.903926372528076
		endloop
	endfacet
	facet normal 0 0.6343933125542286 -0.7730104300631867
		outer loop
			vertex -15 -2.777851104736328 4.157348155975342
			vertex -2.777851104736328 -2.777851104736328 4.157348155975342
			vertex -3.535533905029297 -3.535533905029297 3.535533905029297
		endloop
	endfacet
	facet normal 0 0.4713966944758403 -0.8819212869849846
		outer loop
			vertex -15 -1.9134172201156616 4.6193976402282715
			vertex -1.9134172201156616 -1.9134172201156616 4.6193976402282715
			vertex -2.777851104736328 -2.777851104736328 4.157348155975342
		endloop
	endfacet
	facet normal 0 0.29028464796650855 -0.9569403446166121
		outer loop
			vertex -15 -0.9754515886306763 4.903926372528076
			vertex -0.9754515886306763 -0.9754515886306763 4.903926372528076
			vertex -1.9134172201156616 -1.9134172201156616 4.6193976402282715
		endloop
	endfacet
	facet normal 0 0.09801717225980694 -0.9951847235273417
		outer loop
			vertex -15 0 5
			vertex 0 0 5
			vertex -0.9754515886306763 -0.9754515886306763 4.903926372528076
		endloop
	endfacet
	facet normal 0 -0.7730104300631866 0.6343933125542286
		outer loop
			vertex -15 3.535533905029297 -3.535533905029297
			vertex -4.157348155975342 4.157348155975342 -2.777851104736328
			vertex -15 4.157348155975342 -2.777851104736328
		endloop
	endfacet
	facet normal 0 -0.8819212869849845 0.47139669447584026
		outer loop
			vertex -15 4.157348155975342 -2.777851104736328
			vertex -4.6193976402282715 4.6193976402282715 -1.9134172201156616
			vertex -15 4.6193976402282715 -1.9134172201156616
		endloop
	endfacet
	facet normal 0 -0.956940344616612 0.29028464796650855
		outer loop
			vertex -15 4.6193976402282715 -1.9134172201156616
			vertex -4.903926372528076 4.903926372528076 -0.9754515886306763
			vertex -15 4.903926372528076 -0.9754515886306763
		endloop
	endfacet
	facet normal 0 -0.9951847235273418 0.09801717225980695
		outer loop
			vertex -15 4.903926372528076 -0.9754515886306763
			vertex -5 5 0
			vertex -15 5 0
		endloop
	endfacet
	facet normal 0 -0.09801717225980694 0.9951847235273417
		outer loop
			vertex -15 0 -5
			vertex -0.9754515886306763 0.9754515886306763 -4.903926372528076
			vertex -15 0.9754515886306763 -4.903926372528076
		endloop
	endfacet
	facet normal 0 -0.29028464796650855 0.9569403446166121
		outer loop
			vertex -15 0.9754515886306763 -4.903926372528076
			vertex -1.9134172201156616 1.9134172201156616 -4.6193976402282715
			vertex -15 1.9134172201156616 -4.6193976402282715
		endloop
	endfacet
	facet normal 0 -0.4713966944758403 0.8819212869849846
		outer loop
			vertex -15 1.9134172201156616 -4.6193976402282715
			vertex -2.777851104736328 2.777851104736328 -4.157348155975342
			vertex -15 2.777851104736328 -4.157348155975342
		endloop
	endfacet
	facet normal 0 -0.6343933125542286 0.7730104300631868
		outer loop
			vertex -15 2.777851104736328 -4.157348155975342
			vertex -3.535533905029297 3.535533905029297 -3.535533905029297
			vertex -15 3.535533905029297 -3.535533905029297
		endloop
	endfacet
	facet normal 0 -0.7730104300631868 0.6343933125542286
		outer loop
			vertex -15 3.535533905029297 -3.535533905029297
			vertex -3.535533905029297 3.535533905029297 -3.535533905029297
			vertex -4.157348155975342 4.157348155975342 -2.777851104736328
		endloop
	endfacet
	facet normal 0 -0.8819212869849846 0.4713966944758403
		outer loop
			vertex -15 4.157348155975342 -2.777851104736328
			vertex -4.157348155975342 4.157348155975342 -2.777851104736328
			vertex -4.6193976402282715 4.6193976402282715 -1.9134172201156616
		endloop
	endfacet
	facet normal 0 -0.9569403446166121 0.29028464796650855
		outer loop
			vertex -15 4.6193976402282715 -1.9134172201156616
			vertex -4.6193976402282715 4.6193976402282715 -1.9134172201156616
			vertex -4.903926372528076 4.903926372528076 -0.9754515886306763
		endloop
	endfacet
	facet normal 0 -0.9951847235273417 0.09801717225980694
		outer loop
			vertex -15 4.903926372528076 -0.9754515886306763
			vertex -4.903926372528076 4.903926372528076 -0.9754515886306763
			vertex -5 5 0
		endloop
	endfacet
	facet normal 0 -0.29028464796650855 0.9569403446166121
		outer loop
			vertex -15 0.9754515886306763 -4.903926372528076
			vertex -0.9754515886306763 0.9754515886306763 -4.903926372528076
			vertex -1.9134172201156616 1.9134172201156616 -4.6193976402282715
		endloop
	endfacet
	facet normal 0 -0.4713966944758403 0.8819212869849846
		outer loop
			vertex -15 1.9134172201156616 -4.6193976402282715
			vertex -1.9134172201156616 1.9134172201156616 -4.6193976402282715
			vertex -2.777851104736328 2.777851104736328 -4.157348155975342
		endloop
	endfacet
	facet normal 0 -0.6343933125542286 0.7730104300631867
		outer loop
			vertex -15 2.777851104736328 -4.157348155975342
			vertex -2.777851104736328 2.777851104736328 -4.157348155975342
			vertex -3.535533905029297 3.535533905029297 -3.535533905029297
		endloop
	endfacet
	facet normal 0 -0.09801717225980694 0.9951847235273417
		outer loop
			vertex -15 0 -5
			vertex 0 0 -5
			vertex -0.9754515886306763 0.9754515886306763 -4.903926372528076
		endloop
	endfacet
	facet normal 0 -0.9951847235273418 -0.09801717225980695
		outer loop
			vertex -15 5 0
			vertex -5 5 0
			vertex -15 4.903926372528076 0.9754515886306763
		endloop
	endfacet
	facet normal 0 -0.956940344616612 -0.29028464796650855
		outer loop
			vertex -15 4.903926372528076 0.9754515886306763
			vertex -4.903926372528076 4.903926372528076 0.9754515886306763
			vertex -15 4.6193976402282715 1.9134172201156616
		endloop
	endfacet
	facet normal 0 -0.8819212869849845 -0.47139669447584026
		outer loop
			vertex -15 4.157348155975342 2.777851104736328
			vertex -15 4.6193976402282715 1.9134172201156616
			vertex -4.6193976402282715 4.6193976402282715 1.9134172201156616
		endloop
	endfacet
	facet normal 0 -0.7730104300631866 -0.6343933125542286
		outer loop
			vertex -15 3.535533905029297 3.535533905029297
			vertex -15 4.157348155975342 2.777851104736328
			vertex -4.157348155975342 4.157348155975342 2.777851104736328
		endloop
	endfacet
	facet normal 0 -0.6343933125542286 -0.7730104300631868
		outer loop
			vertex -15 3.535533905029297 3.535533905029297
			vertex -3.535533905029297 3.535533905029297 3.535533905029297
			vertex -15 2.777851104736328 4.157348155975342
		endloop
	endfacet
	facet normal 0 -0.7730104300631868 -0.6343933125542286
		outer loop
			vertex -15 3.535533905029297 3.535533905029297
			vertex -4.157348155975342 4.157348155975342 2.777851104736328
			vertex -3.535533905029297 3.535533905029297 3.535533905029297
		endloop
	endfacet
	facet normal 0 -0.09801717225980694 -0.9951847235273417
		outer loop
			vertex -15 0 5
			vertex -15 0.9754515886306763 4.903926372528076
			vertex -0.9754515886306763 0.9754515886306763 4.903926372528076
		endloop
	endfacet
	facet normal 0 -0.29028464796650855 -0.9569403446166121
		outer loop
			vertex -15 0.9754515886306763 4.903926372528076
			vertex -15 1.9134172201156616 4.6193976402282715
			vertex -1.9134172201156616 1.9134172201156616 4.6193976402282715
		endloop
	endfacet
	facet normal 0 -0.4713966944758403 -0.8819212869849846
		outer loop
			vertex -15 1.9134172201156616 4.6193976402282715
			vertex -15 2.777851104736328 4.157348155975342
			vertex -2.777851104736328 2.777851104736328 4.157348155975342
		endloop
	endfacet
	facet normal 0 -0.9951847235273417 -0.09801717225980694
		outer loop
			vertex -15 4.903926372528076 0.9754515886306763
			vertex -5 5 0
			vertex -4.903926372528076 4.903926372528076 0.9754515886306763
		endloop
	endfacet
	facet normal 0 -0.9569403446166121 -0.29028464796650855
		outer loop
			vertex -15 4.6193976402282715 1.9134172201156616
			vertex -4.903926372528076 4.903926372528076 0.9754515886306763
			vertex -4.6193976402282715 4.6193976402282715 1.9134172201156616
		endloop
	endfacet
	facet normal 0 -0.8819212869849846 -0.4713966944758403
		outer loop
			vertex -15 4.157348155975342 2.777851104736328
			vertex -4.6193976402282715 4.6193976402282715 1.9134172201156616
			vertex -4.157348155975342 4.157348155975342 2.777851104736328
		endloop
	endfacet
	facet normal 0 -0.29028464796650855 -0.9569403446166121
		outer loop
			vertex -15 0.9754515886306763 4.903926372528076
			vertex -1.9134172201156616 1.9134172201156616 4.6193976402282715
			vertex -0.9754515886306763 0.9754515886306763 4.903926372528076
		endloop
	endfacet
	facet normal 0 -0.4713966944758403 -0.8819212869849846
		outer loop
			vertex -15 1.9134172201156616 4.6193976402282715
			vertex -2.777851104736328 2.777851104736328 4.157348155975342
			vertex -1.9134172201156616 1.9134172201156616 4.6193976402282715
		endloop
	endfacet
	facet normal 0 -0.6343933125542286 -0.7730104300631867
		outer loop
			vertex -15 2.777851104736328 4.157348155975342
			vertex -3.535533905029297 3.535533905029297 3.535533905029297
			vertex -2.777851104736328 2.777851104736328 4.157348155975342
		endloop
	endfacet
	facet normal 0 -0.09801717225980694 -0.9951847235273417
		outer loop
			vertex -15 0 5
			vertex -0.9754515886306763 0.9754515886306763 4.903926372528076
			vertex 0 0 5
		endloop
	endfacet
	facet normal 0 0.09801717225980694 0.9951847235273417
		outer loop
			vertex 15 0 -5
			vertex 0 0 -5
			vertex 0.9754515886306763 -0.9754515886306763 -4.903926372528076
		endloop
	endfacet
	facet normal 0 0.6343933125542286 0.7730104300631867
		outer loop
			vertex 15 -2.777851104736328 -4.157348155975342
			vertex 2.777851104736328 -2.777851104736328 -4.157348155975342
			vertex 3.535533905029297 -3.535533905029297 -3.535533905029297
		endloop
	endfacet
	facet normal 0 0.4713966944758403 0.8819212869849846
		outer loop
			vertex 15 -1.9134172201156616 -4.6193976402282715
			vertex 1.9134172201156616 -1.9134172201156616 -4.6193976402282715
			vertex 2.777851104736328 -2.777851104736328 -4.157348155975342
		endloop
	endfacet
	facet normal 0 0.29028464796650855 0.9569403446166121
		outer loop
			vertex 15 -0.9754515886306763 -4.903926372528076
			vertex 0.9754515886306763 -0.9754515886306763 -4.903926372528076
			vertex 1.9134172201156616 -1.9134172201156616 -4.6193976402282715
		endloop
	endfacet
	facet normal 0 0.8819212869849846 0.4713966944758403
		outer loop
			vertex 15 -4.157348155975342 -2.777851104736328
			vertex 4.157348155975342 -4.157348155975342 -2.777851104736328
			vertex 4.6193976402282715 -4.6193976402282715 -1.9134172201156616
		endloop
	endfacet
	facet normal 0 0.9569403446166121 0.29028464796650855
		outer loop
			vertex 15 -4.6193976402282715 -1.9134172201156616
			vertex 4.6193976402282715 -4.6193976402282715 -1.9134172201156616
			vertex 4.903926372528076 -4.903926372528076 -0.9754515886306763
		endloop
	endfacet
	facet normal 0 0.9951847235273417 0.09801717225980694
		outer loop
			vertex 15 -4.903926372528076 -0.9754515886306763
			vertex 4.903926372528076 -4.903926372528076 -0.9754515886306763
			vertex 5 -5 0
		endloop
	endfacet
	facet normal 0 0.4713966944758403 0.8819212869849846
		outer loop
			vertex 15 -2.777851104736328 -4.157348155975342
			vertex 15 -1.9134172201156616 -4.6193976402282715
			vertex 2.777851104736328 -2.777851104736328 -4.157348155975342
		endloop
	endfacet
	facet normal 0 0.29028464796650855 0.9569403446166121
		outer loop
			vertex 15 -1.9134172201156616 -4.6193976402282715
			vertex 15 -0.9754515886306763 -4.903926372528076
			vertex 1.9134172201156616 -1.9134172201156616 -4.6193976402282715
		endloop
	endfacet
	facet normal 0 0.09801717225980694 0.9951847235273417
		outer loop
			vertex 15 -0.9754515886306763 -4.903926372528076
			vertex 15 0 -5
			vertex 0.9754515886306763 -0.9754515886306763 -4.903926372528076
		endloop
	endfacet
	facet normal 0 0.7730104300631868 0.6343933125542286
		outer loop
			vertex 15 -3.535533905029297 -3.535533905029297
			vertex 3.535533905029297 -3.535533905029297 -3.535533905029297
			vertex 4.157348155975342 -4.157348155975342 -2.777851104736328
		endloop
	endfacet
	facet normal 0 0.6343933125542286 0.7730104300631868
		outer loop
			vertex 15 -2.777851104736328 -4.157348155975342
			vertex 3.535533905029297 -3.535533905029297 -3.535533905029297
			vertex 15 -3.535533905029297 -3.535533905029297
		endloop
	endfacet
	facet normal 0 0.7730104300631866 0.6343933125542286
		outer loop
			vertex 15 -4.157348155975342 -2.777851104736328
			vertex 15 -3.535533905029297 -3.535533905029297
			vertex 4.157348155975342 -4.157348155975342 -2.777851104736328
		endloop
	endfacet
	facet normal 0 0.8819212869849845 0.47139669447584026
		outer loop
			vertex 15 -4.6193976402282715 -1.9134172201156616
			vertex 15 -4.157348155975342 -2.777851104736328
			vertex 4.6193976402282715 -4.6193976402282715 -1.9134172201156616
		endloop
	endfacet
	facet normal 0 0.956940344616612 0.29028464796650855
		outer loop
			vertex 15 -4.6193976402282715 -1.9134172201156616
			vertex 4.903926372528076 -4.903926372528076 -0.9754515886306763
			vertex 15 -4.903926372528076 -0.9754515886306763
		endloop
	endfacet
	facet normal 0 0.9951847235273418 0.09801717225980695
		outer loop
			vertex 15 -4.903926372528076 -0.9754515886306763
			vertex 5 -5 0
			vertex 15 -5 0
		endloop
	endfacet
	facet normal 0 0.09801717225980694 -0.9951847235273417
		outer loop
			vertex 15 0 5
			vertex 0.9754515886306763 -0.9754515886306763 4.903926372528076
			vertex 0 0 5
		endloop
	endfacet
	facet normal 0 0.6343933125542286 -0.7730104300631867
		outer loop
			vertex 15 -2.777851104736328 4.157348155975342
			vertex 3.535533905029297 -3.535533905029297 3.535533905029297
			vertex 2.777851104736328 -2.777851104736328 4.157348155975342
		endloop
	endfacet
	facet normal 0 0.4713966944758403 -0.8819212869849846
		outer loop
			vertex 15 -1.9134172201156616 4.6193976402282715
			vertex 2.777851104736328 -2.777851104736328 4.157348155975342
			vertex 1.9134172201156616 -1.9134172201156616 4.6193976402282715
		endloop
	endfacet
	facet normal 0 0.29028464796650855 -0.9569403446166121
		outer loop
			vertex 15 -0.9754515886306763 4.903926372528076
			vertex 1.9134172201156616 -1.9134172201156616 4.6193976402282715
			vertex 0.9754515886306763 -0.9754515886306763 4.903926372528076
		endloop
	endfacet
	facet normal 0 0.9951847235273417 -0.09801717225980694
		outer loop
			vertex 15 -4.903926372528076 0.9754515886306763
			vertex 5 -5 0
			vertex 4.903926372528076 -4.903926372528076 0.9754515886306763
		endloop
	endfacet
	facet normal 0 0.9569403446166121 -0.29028464796650855
		outer loop
			vertex 15 -4.6193976402282715 1.9134172201156616
			vertex 4.903926372528076 -4.903926372528076 0.9754515886306763
			vertex 4.6193976402282715 -4.6193976402282715 1.9134172201156616
		endloop
	endfacet
	facet normal 0 0.8819212869849846 -0.4713966944758403
		outer loop
			vertex 15 -4.157348155975342 2.777851104736328
			vertex 4.6193976402282715 -4.6193976402282715 1.9134172201156616
			vertex 4.157348155975342 -4.157348155975342 2.777851104736328
		endloop
	endfacet
	facet normal 0 0.7730104300631868 -0.6343933125542286
		outer loop
			vertex 15 -3.535533905029297 3.535533905029297
			vertex 4.157348155975342 -4.157348155975342 2.777851104736328
			vertex 3.535533905029297 -3.535533905029297 3.535533905029297
		endloop
	endfacet
	facet normal 0 0.6343933125542286 -0.7730104300631868
		outer loop
			vertex 15 -3.535533905029297 3.535533905029297
			vertex 3.535533905029297 -3.535533905029297 3.535533905029297
			vertex 15 -2.777851104736328 4.157348155975342
		endloop
	endfacet
	facet normal 0 0.4713966944758403 -0.8819212869849846
		outer loop
			vertex 15 -2.777851104736328 4.157348155975342
			vertex 2.777851104736328 -2.777851104736328 4.157348155975342
			vertex 15 -1.9134172201156616 4.6193976402282715
		endloop
	endfacet
	facet normal 0 0.29028464796650855 -0.9569403446166121
		outer loop
			vertex 15 -1.9134172201156616 4.6193976402282715
			vertex 1.9134172201156616 -1.9134172201156616 4.6193976402282715
			vertex 15 -0.9754515886306763 4.903926372528076
		endloop
	endfacet
	facet normal 0 0.09801717225980694 -0.9951847235273417
		outer loop
			vertex 15 -0.9754515886306763 4.903926372528076
			vertex 0.9754515886306763 -0.9754515886306763 4.903926372528076
			vertex 15 0 5
		endloop
	endfacet
	facet normal 0 0.9951847235273418 -0.09801717225980695
		outer loop
			vertex 15 -5 0
			vertex 5 -5 0
			vertex 15 -4.903926372528076 0.9754515886306763
		endloop
	endfacet
	facet normal 0 0.956940344616612 -0.29028464796650855
		outer loop
			vertex 15 -4.903926372528076 0.9754515886306763
			vertex 4.903926372528076 -4.903926372528076 0.9754515886306763
			vertex 15 -4.6193976402282715 1.9134172201156616
		endloop
	endfacet
	facet normal 0 0.8819212869849845 -0.47139669447584026
		outer loop
			vertex 15 -4.6193976402282715 1.9134172201156616
			vertex 4.6193976402282715 -4.6193976402282715 1.9134172201156616
			vertex 15 -4.157348155975342 2.777851104736328
		endloop
	endfacet
	facet normal 0 0.7730104300631866 -0.6343933125542286
		outer loop
			vertex 15 -4.157348155975342 2.777851104736328
			vertex 4.157348155975342 -4.157348155975342 2.777851104736328
			vertex 15 -3.535533905029297 3.535533905029297
		endloop
	endfacet
	facet normal 0 -0.09801717225980694 0.9951847235273417
		outer loop
			vertex 15 0 -5
			vertex 0.9754515886306763 0.9754515886306763 -4.903926372528076
			vertex 0 0 -5
		endloop
	endfacet
	facet normal 0 -0.29028464796650855 0.9569403446166121
		outer loop
			vertex 15 0.9754515886306763 -4.903926372528076
			vertex 1.9134172201156616 1.9134172201156616 -4.6193976402282715
			vertex 0.9754515886306763 0.9754515886306763 -4.903926372528076
		endloop
	endfacet
	facet normal 0 -0.4713966944758403 0.8819212869849846
		outer loop
			vertex 15 1.9134172201156616 -4.6193976402282715
			vertex 2.777851104736328 2.777851104736328 -4.157348155975342
			vertex 1.9134172201156616 1.9134172201156616 -4.6193976402282715
		endloop
	endfacet
	facet normal 0 -0.6343933125542286 0.7730104300631867
		outer loop
			vertex 15 2.777851104736328 -4.157348155975342
			vertex 3.535533905029297 3.535533905029297 -3.535533905029297
			vertex 2.777851104736328 2.777851104736328 -4.157348155975342
		endloop
	endfacet
	facet normal 0 -0.09801717225980694 0.9951847235273417
		outer loop
			vertex 15 0 -5
			vertex 15 0.9754515886306763 -4.903926372528076
			vertex 0.9754515886306763 0.9754515886306763 -4.903926372528076
		endloop
	endfacet
	facet normal 0 -0.29028464796650855 0.9569403446166121
		outer loop
			vertex 15 0.9754515886306763 -4.903926372528076
			vertex 15 1.9134172201156616 -4.6193976402282715
			vertex 1.9134172201156616 1.9134172201156616 -4.6193976402282715
		endloop
	endfacet
	facet normal 0 -0.4713966944758403 0.8819212869849846
		outer loop
			vertex 15 1.9134172201156616 -4.6193976402282715
			vertex 15 2.777851104736328 -4.157348155975342
			vertex 2.777851104736328 2.777851104736328 -4.157348155975342
		endloop
	endfacet
	facet normal 0 -0.7730104300631868 0.6343933125542286
		outer loop
			vertex 15 3.535533905029297 -3.535533905029297
			vertex 4.157348155975342 4.157348155975342 -2.777851104736328
			vertex 3.535533905029297 3.535533905029297 -3.535533905029297
		endloop
	endfacet
	facet normal 0 -0.6343933125542286 0.7730104300631868
		outer loop
			vertex 15 2.777851104736328 -4.157348155975342
			vertex 15 3.535533905029297 -3.535533905029297
			vertex 3.535533905029297 3.535533905029297 -3.535533905029297
		endloop
	endfacet
	facet normal 0 -0.8819212869849846 0.4713966944758403
		outer loop
			vertex 15 4.157348155975342 -2.777851104736328
			vertex 4.6193976402282715 4.6193976402282715 -1.9134172201156616
			vertex 4.157348155975342 4.157348155975342 -2.777851104736328
		endloop
	endfacet
	facet normal 0 -0.9569403446166121 0.29028464796650855
		outer loop
			vertex 15 4.6193976402282715 -1.9134172201156616
			vertex 4.903926372528076 4.903926372528076 -0.9754515886306763
			vertex 4.6193976402282715 4.6193976402282715 -1.9134172201156616
		endloop
	endfacet
	facet normal 0 -0.9951847235273417 0.09801717225980694
		outer loop
			vertex 15 4.903926372528076 -0.9754515886306763
			vertex 5 5 0
			vertex 4.903926372528076 4.903926372528076 -0.9754515886306763
		endloop
	endfacet
	facet normal 0 -0.7730104300631866 0.6343933125542286
		outer loop
			vertex 15 3.535533905029297 -3.535533905029297
			vertex 15 4.157348155975342 -2.777851104736328
			vertex 4.157348155975342 4.157348155975342 -2.777851104736328
		endloop
	endfacet
	facet normal 0 -0.8819212869849845 0.47139669447584026
		outer loop
			vertex 15 4.157348155975342 -2.777851104736328
			vertex 15 4.6193976402282715 -1.9134172201156616
			vertex 4.6193976402282715 4.6193976402282715 -1.9134172201156616
		endloop
	endfacet
	facet normal 0 -0.956940344616612 0.29028464796650855
		outer loop
			vertex 15 4.6193976402282715 -1.9134172201156616
			vertex 15 4.903926372528076 -0.9754515886306763
			vertex 4.903926372528076 4.903926372528076 -0.9754515886306763
		endloop
	endfacet
	facet normal 0 -0.9951847235273418 0.09801717225980695
		outer loop
			vertex 15 4.903926372528076 -0.9754515886306763
			vertex 15 5 0
			vertex 5 5 0
		endloop
	endfacet
	facet normal 0 -0.09801717225980694 -0.9951847235273417
		outer loop
			vertex 15 0 5
			vertex 0 0 5
			vertex 0.9754515886306763 0.9754515886306763 4.903926372528076
		endloop
	endfacet
	facet normal 0 -0.29028464796650855 -0.9569403446166121
		outer loop
			vertex 15 0.9754515886306763 4.903926372528076
			vertex 0.9754515886306763 0.9754515886306763 4.903926372528076
			vertex 1.9134172201156616 1.9134172201156616 4.6193976402282715
		endloop
	endfacet
	facet normal 0 -0.4713966944758403 -0.8819212869849846
		outer loop
			vertex 15 1.9134172201156616 4.6193976402282715
			vertex 1.9134172201156616 1.9134172201156616 4.6193976402282715
			vertex 2.777851104736328 2.777851104736328 4.157348155975342
		endloop
	endfacet
	facet normal 0 -0.6343933125542286 -0.7730104300631867
		outer loop
			vertex 15 2.777851104736328 4.157348155975342
			vertex 2.777851104736328 2.777851104736328 4.157348155975342
			vertex 3.535533905029297 3.535533905029297 3.535533905029297
		endloop
	endfacet
	facet normal 0 -0.7730104300631868 -0.6343933125542286
		outer loop
			vertex 15 3.535533905029297 3.535533905029297
			vertex 3.535533905029297 3.535533905029297 3.535533905029297
			vertex 4.157348155975342 4.157348155975342 2.777851104736328
		endloop
	endfacet
	facet normal 0 -0.6343933125542286 -0.7730104300631868
		outer loop
			vertex 15 3.535533905029297 3.535533905029297
			vertex 15 2.777851104736328 4.157348155975342
			vertex 3.535533905029297 3.535533905029297 3.535533905029297
		endloop
	endfacet
	facet normal 0 -0.09801717225980694 -0.9951847235273417
		outer loop
			vertex 15 0 5
			vertex 0.9754515886306763 0.9754515886306763 4.903926372528076
			vertex 15 0.9754515886306763 4.903926372528076
		endloop
	endfacet
	facet normal 0 -0.29028464796650855 -0.9569403446166121
		outer loop
			vertex 15 0.9754515886306763 4.903926372528076
			vertex 1.9134172201156616 1.9134172201156616 4.6193976402282715
			vertex 15 1.9134172201156616 4.6193976402282715
		endloop
	endfacet
	facet normal 0 -0.4713966944758403 -0.8819212869849846
		outer loop
			vertex 15 1.9134172201156616 4.6193976402282715
			vertex 2.777851104736328 2.777851104736328 4.157348155975342
			vertex 15 2.777851104736328 4.157348155975342
		endloop
	endfacet
	facet normal 0 -0.9951847235273417 -0.09801717225980694
		outer loop
			vertex 15 4.903926372528076 0.9754515886306763
			vertex 4.903926372528076 4.903926372528076 0.9754515886306763
			vertex 5 5 0
		endloop
	endfacet
	facet normal 0 -0.9569403446166121 -0.29028464796650855
		outer loop
			vertex 15 4.6193976402282715 1.9134172201156616
			vertex 4.6193976402282715 4.6193976402282715 1.9134172201156616
			vertex 4.903926372528076 4.903926372528076 0.9754515886306763
		endloop
	endfacet
	facet normal 0 -0.8819212869849846 -0.4713966944758403
		outer loop
			vertex 15 4.157348155975342 2.777851104736328
			vertex 4.157348155975342 4.157348155975342 2.777851104736328
			vertex 4.6193976402282715 4.6193976402282715 1.9134172201156616
		endloop
	endfacet
	facet normal 0 -0.9951847235273418 -0.09801717225980695
		outer loop
			vertex 15 5 0
			vertex 15 4.903926372528076 0.9754515886306763
			vertex 5 5 0
		endloop
	endfacet
	facet normal 0 -0.956940344616612 -0.29028464796650855
		outer loop
			vertex 15 4.903926372528076 0.9754515886306763
			vertex 15 4.6193976402282715 1.9134172201156616
			vertex 4.903926372528076 4.903926372528076 0.9754515886306763
		endloop
	endfacet
	facet normal 0 -0.8819212869849845 -0.47139669447584026
		outer loop
			vertex 15 4.157348155975342 2.777851104736328
			vertex 4.6193976402282715 4.6193976402282715 1.9134172201156616
			vertex 15 4.6193976402282715 1.9134172201156616
		endloop
	endfacet
	facet normal 0 -0.7730104300631866 -0.6343933125542286
		outer loop
			vertex 15 3.535533905029297 3.535533905029297
			vertex 4.157348155975342 4.157348155975342 2.777851104736328
			vertex 15 4.157348155975342 2.777851104736328
		endloop
	endfacet
	facet normal 0.8819212869849846 0 0.4713966944758403
		outer loop
			vertex -4.6193976402282715 -15 -1.9134172201156616
			vertex -4.157348155975342 -15 -2.777851104736328
			vertex -4.157348155975342 -4.157348155975342 -2.777851104736328
		endloop
	endfacet
	facet normal 0.9569403446166121 0 0.29028464796650855
		outer loop
			vertex -4.903926372528076 -15 -0.9754515886306763
			vertex -4.6193976402282715 -15 -1.9134172201156616
			vertex -4.6193976402282715 -4.6193976402282715 -1.9134172201156616
		endloop
	endfacet
	facet normal 0.9951847235273417 0 0.09801717225980694
		outer loop
			vertex -5 -15 0
			vertex -4.903926372528076 -15 -0.9754515886306763
			vertex -4.903926372528076 -4.903926372528076 -0.9754515886306763
		endloop
	endfacet
	facet normal 0.7730104300631866 0 0.6343933125542286
		outer loop
			vertex -4.157348155975342 -15 -2.777851104736328
			vertex -3.535533905029297 -3.535533905029297 -3.535533905029297
			vertex -4.157348155975342 -4.157348155975342 -2.777851104736328
		endloop
	endfacet
	facet normal 0.8819212869849845 0 0.47139669447584026
		outer loop
			vertex -4.6193976402282715 -15 -1.9134172201156616
			vertex -4.157348155975342 -4.157348155975342 -2.777851104736328
			vertex -4.6193976402282715 -4.6193976402282715 -1.9134172201156616
		endloop
	endfacet
	facet normal 0.956940344616612 0 0.29028464796650855
		outer loop
			vertex -4.903926372528076 -15 -0.9754515886306763
			vertex -4.6193976402282715 -4.6193976402282715 -1.9134172201156616
			vertex -4.903926372528076 -4.903926372528076 -0.9754515886306763
		endloop
	endfacet
	facet normal 0.9951847235273418 0 0.09801717225980695
		outer loop
			vertex -5 -15 0
			vertex -4.903926372528076 -4.903926372528076 -0.9754515886306763
			vertex -5 -5 0
		endloop
	endfacet
	facet normal 0.6343933125542286 0 0.7730104300631867
		outer loop
			vertex -3.535533905029297 -15 -3.535533905029297
			vertex -2.777851104736328 -15 -4.157348155975342
			vertex -2.777851104736328 -2.777851104736328 -4.157348155975342
		endloop
	endfacet
	facet normal 0.4713966944758403 0 0.8819212869849846
		outer loop
			vertex -2.777851104736328 -15 -4.157348155975342
			vertex -1.9134172201156616 -15 -4.6193976402282715
			vertex -1.9134172201156616 -1.9134172201156616 -4.6193976402282715
		endloop
	endfacet
	facet normal 0.29028464796650855 0 0.9569403446166121
		outer loop
			vertex -1.9134172201156616 -15 -4.6193976402282715
			vertex -0.9754515886306763 -15 -4.903926372528076
			vertex -0.9754515886306763 -0.9754515886306763 -4.903926372528076
		endloop
	endfacet
	facet normal 0.09801717225980694 0 0.9951847235273417
		outer loop
			vertex -0.9754515886306763 -15 -4.903926372528076
			vertex 0 -15 -5
			vertex 0 0 -5
		endloop
	endfacet
	facet normal 0.7730104300631868 0 0.6343933125542286
		outer loop
			vertex -4.157348155975342 -15 -2.777851104736328
			vertex -3.535533905029297 -15 -3.535533905029297
			vertex -3.535533905029297 -3.535533905029297 -3.535533905029297
		endloop
	endfacet
	facet normal 0.4713966944758403 0 0.8819212869849846
		outer loop
			vertex -2.777851104736328 -15 -4.157348155975342
			vertex -1.9134172201156616 -1.9134172201156616 -4.6193976402282715
			vertex -2.777851104736328 -2.777851104736328 -4.157348155975342
		endloop
	endfacet
	facet normal 0.29028464796650855 0 0.9569403446166121
		outer loop
			vertex -1.9134172201156616 -15 -4.6193976402282715
			vertex -0.9754515886306763 -0.9754515886306763 -4.903926372528076
			vertex -1.9134172201156616 -1.9134172201156616 -4.6193976402282715
		endloop
	endfacet
	facet normal 0.09801717225980694 0 0.9951847235273417
		outer loop
			vertex -0.9754515886306763 -0.9754515886306763 -4.903926372528076
			vertex -0.9754515886306763 -15 -4.903926372528076
			vertex 0 0 -5
		endloop
	endfacet
	facet normal 0.6343933125542286 0 0.7730104300631868
		outer loop
			vertex -3.535533905029297 -15 -3.535533905029297
			vertex -2.777851104736328 -2.777851104736328 -4.157348155975342
			vertex -3.535533905029297 -3.535533905029297 -3.535533905029297
		endloop
	endfacet
	facet normal 0.9951847235273418 0 -0.09801717225980695
		outer loop
			vertex -5 -5 0
			vertex -4.903926372528076 -15 0.9754515886306763
			vertex -5 -15 0
		endloop
	endfacet
	facet normal 0.956940344616612 0 -0.29028464796650855
		outer loop
			vertex -4.903926372528076 -4.903926372528076 0.9754515886306763
			vertex -4.6193976402282715 -15 1.9134172201156616
			vertex -4.903926372528076 -15 0.9754515886306763
		endloop
	endfacet
	facet normal 0.8819212869849845 0 -0.47139669447584026
		outer loop
			vertex -4.6193976402282715 -4.6193976402282715 1.9134172201156616
			vertex -4.157348155975342 -15 2.777851104736328
			vertex -4.6193976402282715 -15 1.9134172201156616
		endloop
	endfacet
	facet normal 0.7730104300631866 0 -0.6343933125542286
		outer loop
			vertex -4.157348155975342 -4.157348155975342 2.777851104736328
			vertex -3.535533905029297 -15 3.535533905029297
			vertex -4.157348155975342 -15 2.777851104736328
		endloop
	endfacet
	facet normal 0.9951847235273417 0 -0.09801717225980694
		outer loop
			vertex -5 -5 0
			vertex -4.903926372528076 -4.903926372528076 0.9754515886306763
			vertex -4.903926372528076 -15 0.9754515886306763
		endloop
	endfacet
	facet normal 0.9569403446166121 0 -0.29028464796650855
		outer loop
			vertex -4.903926372528076 -4.903926372528076 0.9754515886306763
			vertex -4.6193976402282715 -4.6193976402282715 1.9134172201156616
			vertex -4.6193976402282715 -15 1.9134172201156616
		endloop
	endfacet
	facet normal 0.8819212869849846 0 -0.4713966944758403
		outer loop
			vertex -4.6193976402282715 -4.6193976402282715 1.9134172201156616
			vertex -4.157348155975342 -4.157348155975342 2.777851104736328
			vertex -4.157348155975342 -15 2.777851104736328
		endloop
	endfacet
	facet normal 0.6343933125542286 0 -0.7730104300631868
		outer loop
			vertex -3.535533905029297 -3.535533905029297 3.535533905029297
			vertex -2.777851104736328 -15 4.157348155975342
			vertex -3.535533905029297 -15 3.535533905029297
		endloop
	endfacet
	facet normal 0.7730104300631868 0 -0.6343933125542286
		outer loop
			vertex -4.157348155975342 -4.157348155975342 2.777851104736328
			vertex -3.535533905029297 -3.535533905029297 3.535533905029297
			vertex -3.535533905029297 -15 3.535533905029297
		endloop
	endfacet
	facet normal 0.4713966944758403 0 -0.8819212869849846
		outer loop
			vertex -2.777851104736328 -2.777851104736328 4.157348155975342
			vertex -1.9134172201156616 -15 4.6193976402282715
			vertex -2.777851104736328 -15 4.157348155975342
		endloop
	endfacet
	facet normal 0.29028464796650855 0 -0.9569403446166121
		outer loop
			vertex -1.9134172201156616 -1.9134172201156616 4.6193976402282715
			vertex -0.9754515886306763 -15 4.903926372528076
			vertex -1.9134172201156616 -15 4.6193976402282715
		endloop
	endfacet
	facet normal 0.09801717225980694 0 -0.9951847235273417
		outer loop
			vertex -0.9754515886306763 -0.9754515886306763 4.903926372528076
			vertex 0 -15 5
			vertex -0.9754515886306763 -15 4.903926372528076
		endloop
	endfacet
	facet normal 0.6343933125542286 0 -0.7730104300631867
		outer loop
			vertex -3.535533905029297 -3.535533905029297 3.535533905029297
			vertex -2.777851104736328 -2.777851104736328 4.157348155975342
			vertex -2.777851104736328 -15 4.157348155975342
		endloop
	endfacet
	facet normal 0.4713966944758403 0 -0.8819212869849846
		outer loop
			vertex -2.777851104736328 -2.777851104736328 4.157348155975342
			vertex -1.9134172201156616 -1.9134172201156616 4.6193976402282715
			vertex -1.9134172201156616 -15 4.6193976402282715
		endloop
	endfacet
	facet normal 0.29028464796650855 0 -0.9569403446166121
		outer loop
			vertex -1.9134172201156616 -1.9134172201156616 4.6193976402282715
			vertex -0.9754515886306763 -0.9754515886306763 4.903926372528076
			vertex -0.9754515886306763 -15 4.903926372528076
		endloop
	endfacet
	facet normal 0.09801717225980694 0 -0.9951847235273417
		outer loop
			vertex -0.9754515886306763 -0.9754515886306763 4.903926372528076
			vertex 0 0 5
			vertex 0 -15 5
		endloop
	endfacet
	facet normal 0.6343933125542286 0 0.7730104300631867
		outer loop
			vertex -3.535533905029297 3.535533905029297 -3.535533905029297
			vertex -2.777851104736328 2.777851104736328 -4.157348155975342
			vertex -2.777851104736328 15 -4.157348155975342
		endloop
	endfacet
	facet normal 0.4713966944758403 0 0.8819212869849846
		outer loop
			vertex -2.777851104736328 2.777851104736328 -4.157348155975342
			vertex -1.9134172201156616 1.9134172201156616 -4.6193976402282715
			vertex -1.9134172201156616 15 -4.6193976402282715
		endloop
	endfacet
	facet normal 0.09801717225980694 0 0.9951847235273417
		outer loop
			vertex 0 0 -5
			vertex 0 15 -5
			vertex -0.9754515886306763 0.9754515886306763 -4.903926372528076
		endloop
	endfacet
	facet normal 0.29028464796650855 0 0.9569403446166121
		outer loop
			vertex -1.9134172201156616 1.9134172201156616 -4.6193976402282715
			vertex -0.9754515886306763 0.9754515886306763 -4.903926372528076
			vertex -0.9754515886306763 15 -4.903926372528076
		endloop
	endfacet
	facet normal 0.8819212869849846 0 0.4713966944758403
		outer loop
			vertex -4.6193976402282715 4.6193976402282715 -1.9134172201156616
			vertex -4.157348155975342 4.157348155975342 -2.777851104736328
			vertex -4.157348155975342 15 -2.777851104736328
		endloop
	endfacet
	facet normal 0.9569403446166121 0 0.29028464796650855
		outer loop
			vertex -4.903926372528076 4.903926372528076 -0.9754515886306763
			vertex -4.6193976402282715 4.6193976402282715 -1.9134172201156616
			vertex -4.6193976402282715 15 -1.9134172201156616
		endloop
	endfacet
	facet normal 0.9951847235273417 0 0.09801717225980694
		outer loop
			vertex -5 5 0
			vertex -4.903926372528076 4.903926372528076 -0.9754515886306763
			vertex -4.903926372528076 15 -0.9754515886306763
		endloop
	endfacet
	facet normal 0.7730104300631866 0 0.6343933125542286
		outer loop
			vertex -3.535533905029297 15 -3.535533905029297
			vertex -4.157348155975342 15 -2.777851104736328
			vertex -4.157348155975342 4.157348155975342 -2.777851104736328
		endloop
	endfacet
	facet normal 0.8819212869849845 0 0.47139669447584026
		outer loop
			vertex -4.157348155975342 15 -2.777851104736328
			vertex -4.6193976402282715 15 -1.9134172201156616
			vertex -4.6193976402282715 4.6193976402282715 -1.9134172201156616
		endloop
	endfacet
	facet normal 0.956940344616612 0 0.29028464796650855
		outer loop
			vertex -4.6193976402282715 15 -1.9134172201156616
			vertex -4.903926372528076 15 -0.9754515886306763
			vertex -4.903926372528076 4.903926372528076 -0.9754515886306763
		endloop
	endfacet
	facet normal 0.9951847235273418 0 0.09801717225980695
		outer loop
			vertex -4.903926372528076 15 -0.9754515886306763
			vertex -5 15 0
			vertex -5 5 0
		endloop
	endfacet
	facet normal 0.4713966944758403 0 0.8819212869849846
		outer loop
			vertex -1.9134172201156616 15 -4.6193976402282715
			vertex -2.777851104736328 15 -4.157348155975342
			vertex -2.777851104736328 2.777851104736328 -4.157348155975342
		endloop
	endfacet
	facet normal 0.29028464796650855 0 0.9569403446166121
		outer loop
			vertex -0.9754515886306763 15 -4.903926372528076
			vertex -1.9134172201156616 15 -4.6193976402282715
			vertex -1.9134172201156616 1.9134172201156616 -4.6193976402282715
		endloop
	endfacet
	facet normal 0.09801717225980694 0 0.9951847235273417
		outer loop
			vertex -0.9754515886306763 0.9754515886306763 -4.903926372528076
			vertex 0 15 -5
			vertex -0.9754515886306763 15 -4.903926372528076
		endloop
	endfacet
	facet normal 0.7730104300631868 0 0.6343933125542286
		outer loop
			vertex -4.157348155975342 4.157348155975342 -2.777851104736328
			vertex -3.535533905029297 3.535533905029297 -3.535533905029297
			vertex -3.535533905029297 15 -3.535533905029297
		endloop
	endfacet
	facet normal 0.6343933125542286 0 0.7730104300631868
		outer loop
			vertex -2.777851104736328 15 -4.157348155975342
			vertex -3.535533905029297 15 -3.535533905029297
			vertex -3.535533905029297 3.535533905029297 -3.535533905029297
		endloop
	endfacet
	facet normal 0.6343933125542286 0 -0.7730104300631868
		outer loop
			vertex -2.777851104736328 2.777851104736328 4.157348155975342
			vertex -3.535533905029297 3.535533905029297 3.535533905029297
			vertex -3.535533905029297 15 3.535533905029297
		endloop
	endfacet
	facet normal 0.4713966944758403 0 -0.8819212869849846
		outer loop
			vertex -1.9134172201156616 1.9134172201156616 4.6193976402282715
			vertex -2.777851104736328 2.777851104736328 4.157348155975342
			vertex -2.777851104736328 15 4.157348155975342
		endloop
	endfacet
	facet normal 0.09801717225980694 0 -0.9951847235273417
		outer loop
			vertex 0 0 5
			vertex -0.9754515886306763 0.9754515886306763 4.903926372528076
			vertex -0.9754515886306763 15 4.903926372528076
		endloop
	endfacet
	facet normal 0.29028464796650855 0 -0.9569403446166121
		outer loop
			vertex -0.9754515886306763 0.9754515886306763 4.903926372528076
			vertex -1.9134172201156616 1.9134172201156616 4.6193976402282715
			vertex -1.9134172201156616 15 4.6193976402282715
		endloop
	endfacet
	facet normal 0.9951847235273418 0 -0.09801717225980695
		outer loop
			vertex -4.903926372528076 4.903926372528076 0.9754515886306763
			vertex -5 5 0
			vertex -5 15 0
		endloop
	endfacet
	facet normal 0.956940344616612 0 -0.29028464796650855
		outer loop
			vertex -4.6193976402282715 4.6193976402282715 1.9134172201156616
			vertex -4.903926372528076 4.903926372528076 0.9754515886306763
			vertex -4.903926372528076 15 0.9754515886306763
		endloop
	endfacet
	facet normal 0.8819212869849845 0 -0.47139669447584026
		outer loop
			vertex -4.157348155975342 4.157348155975342 2.777851104736328
			vertex -4.6193976402282715 4.6193976402282715 1.9134172201156616
			vertex -4.6193976402282715 15 1.9134172201156616
		endloop
	endfacet
	facet normal 0.7730104300631866 0 -0.6343933125542286
		outer loop
			vertex -3.535533905029297 3.535533905029297 3.535533905029297
			vertex -4.157348155975342 4.157348155975342 2.777851104736328
			vertex -4.157348155975342 15 2.777851104736328
		endloop
	endfacet
	facet normal 0.9951847235273417 0 -0.09801717225980694
		outer loop
			vertex -4.903926372528076 4.903926372528076 0.9754515886306763
			vertex -5 15 0
			vertex -4.903926372528076 15 0.9754515886306763
		endloop
	endfacet
	facet normal 0.9569403446166121 0 -0.29028464796650855
		outer loop
			vertex -4.6193976402282715 4.6193976402282715 1.9134172201156616
			vertex -4.903926372528076 15 0.9754515886306763
			vertex -4.6193976402282715 15 1.9134172201156616
		endloop
	endfacet
	facet normal 0.8819212869849846 0 -0.4713966944758403
		outer loop
			vertex -4.157348155975342 4.157348155975342 2.777851104736328
			vertex -4.6193976402282715 15 1.9134172201156616
			vertex -4.157348155975342 15 2.777851104736328
		endloop
	endfacet
	facet normal 0.7730104300631868 0 -0.6343933125542286
		outer loop
			vertex -3.535533905029297 3.535533905029297 3.535533905029297
			vertex -4.157348155975342 15 2.777851104736328
			vertex -3.535533905029297 15 3.535533905029297
		endloop
	endfacet
	facet normal 0.6343933125542286 0 -0.7730104300631867
		outer loop
			vertex -2.777851104736328 2.777851104736328 4.157348155975342
			vertex -3.535533905029297 15 3.535533905029297
			vertex -2.777851104736328 15 4.157348155975342
		endloop
	endfacet
	facet normal 0.4713966944758403 0 -0.8819212869849846
		outer loop
			vertex -1.9134172201156616 1.9134172201156616 4.6193976402282715
			vertex -2.777851104736328 15 4.157348155975342
			vertex -1.9134172201156616 15 4.6193976402282715
		endloop
	endfacet
	facet normal 0.29028464796650855 0 -0.9569403446166121
		outer loop
			vertex -0.9754515886306763 0.9754515886306763 4.903926372528076
			vertex -1.9134172201156616 15 4.6193976402282715
			vertex -0.9754515886306763 15 4.903926372528076
		endloop
	endfacet
	facet normal 0.09801717225980694 0 -0.9951847235273417
		outer loop
			vertex 0 0 5
			vertex -0.9754515886306763 15 4.903926372528076
			vertex 0 15 5
		endloop
	endfacet
	facet normal -0.09801717225980694 0 0.9951847235273417
		outer loop
			vertex 0 -15 -5
			vertex 0.9754515886306763 -15 -4.903926372528076
			vertex 0.9754515886306763 -0.9754515886306763 -4.903926372528076
		endloop
	endfacet
	facet normal -0.29028464796650855 0 0.9569403446166121
		outer loop
			vertex 0.9754515886306763 -15 -4.903926372528076
			vertex 1.9134172201156616 -15 -4.6193976402282715
			vertex 1.9134172201156616 -1.9134172201156616 -4.6193976402282715
		endloop
	endfacet
	facet normal -0.4713966944758403 0 0.8819212869849846
		outer loop
			vertex 1.9134172201156616 -15 -4.6193976402282715
			vertex 2.777851104736328 -15 -4.157348155975342
			vertex 2.777851104736328 -2.777851104736328 -4.157348155975342
		endloop
	endfacet
	facet normal -0.6343933125542286 0 0.7730104300631868
		outer loop
			vertex 2.777851104736328 -15 -4.157348155975342
			vertex 3.535533905029297 -15 -3.535533905029297
			vertex 3.535533905029297 -3.535533905029297 -3.535533905029297
		endloop
	endfacet
	facet normal -0.7730104300631868 0 0.6343933125542286
		outer loop
			vertex 4.157348155975342 -4.157348155975342 -2.777851104736328
			vertex 3.535533905029297 -3.535533905029297 -3.535533905029297
			vertex 3.535533905029297 -15 -3.535533905029297
		endloop
	endfacet
	facet normal -0.7730104300631866 0 0.6343933125542286
		outer loop
			vertex 3.535533905029297 -15 -3.535533905029297
			vertex 4.157348155975342 -15 -2.777851104736328
			vertex 4.157348155975342 -4.157348155975342 -2.777851104736328
		endloop
	endfacet
	facet normal -0.8819212869849845 0 0.47139669447584026
		outer loop
			vertex 4.157348155975342 -15 -2.777851104736328
			vertex 4.6193976402282715 -15 -1.9134172201156616
			vertex 4.6193976402282715 -4.6193976402282715 -1.9134172201156616
		endloop
	endfacet
	facet normal -0.956940344616612 0 0.29028464796650855
		outer loop
			vertex 4.6193976402282715 -15 -1.9134172201156616
			vertex 4.903926372528076 -15 -0.9754515886306763
			vertex 4.903926372528076 -4.903926372528076 -0.9754515886306763
		endloop
	endfacet
	facet normal -0.9951847235273418 0 0.09801717225980695
		outer loop
			vertex 4.903926372528076 -15 -0.9754515886306763
			vertex 5 -15 0
			vertex 5 -5 0
		endloop
	endfacet
	facet normal -0.8819212869849846 0 0.4713966944758403
		outer loop
			vertex 4.6193976402282715 -4.6193976402282715 -1.9134172201156616
			vertex 4.157348155975342 -4.157348155975342 -2.777851104736328
			vertex 4.157348155975342 -15 -2.777851104736328
		endloop
	endfacet
	facet normal -0.9569403446166121 0 0.29028464796650855
		outer loop
			vertex 4.903926372528076 -4.903926372528076 -0.9754515886306763
			vertex 4.6193976402282715 -4.6193976402282715 -1.9134172201156616
			vertex 4.6193976402282715 -15 -1.9134172201156616
		endloop
	endfacet
	facet normal -0.9951847235273417 0 0.09801717225980694
		outer loop
			vertex 4.903926372528076 -4.903926372528076 -0.9754515886306763
			vertex 4.903926372528076 -15 -0.9754515886306763
			vertex 5 -5 0
		endloop
	endfacet
	facet normal -0.29028464796650855 0 0.9569403446166121
		outer loop
			vertex 1.9134172201156616 -1.9134172201156616 -4.6193976402282715
			vertex 0.9754515886306763 -0.9754515886306763 -4.903926372528076
			vertex 0.9754515886306763 -15 -4.903926372528076
		endloop
	endfacet
	facet normal -0.09801717225980694 0 0.9951847235273417
		outer loop
			vertex 0 0 -5
			vertex 0 -15 -5
			vertex 0.9754515886306763 -0.9754515886306763 -4.903926372528076
		endloop
	endfacet
	facet normal -0.4713966944758403 0 0.8819212869849846
		outer loop
			vertex 2.777851104736328 -2.777851104736328 -4.157348155975342
			vertex 1.9134172201156616 -1.9134172201156616 -4.6193976402282715
			vertex 1.9134172201156616 -15 -4.6193976402282715
		endloop
	endfacet
	facet normal -0.6343933125542286 0 0.7730104300631867
		outer loop
			vertex 3.535533905029297 -3.535533905029297 -3.535533905029297
			vertex 2.777851104736328 -2.777851104736328 -4.157348155975342
			vertex 2.777851104736328 -15 -4.157348155975342
		endloop
	endfacet
	facet normal -0.7730104300631868 0 -0.6343933125542286
		outer loop
			vertex 4.157348155975342 -15 2.777851104736328
			vertex 3.535533905029297 -15 3.535533905029297
			vertex 3.535533905029297 -3.535533905029297 3.535533905029297
		endloop
	endfacet
	facet normal -0.09801717225980694 0 -0.9951847235273417
		outer loop
			vertex 0.9754515886306763 -15 4.903926372528076
			vertex 0 -15 5
			vertex 0 0 5
		endloop
	endfacet
	facet normal -0.29028464796650855 0 -0.9569403446166121
		outer loop
			vertex 1.9134172201156616 -15 4.6193976402282715
			vertex 0.9754515886306763 -15 4.903926372528076
			vertex 0.9754515886306763 -0.9754515886306763 4.903926372528076
		endloop
	endfacet
	facet normal -0.4713966944758403 0 -0.8819212869849846
		outer loop
			vertex 2.777851104736328 -15 4.157348155975342
			vertex 1.9134172201156616 -15 4.6193976402282715
			vertex 1.9134172201156616 -1.9134172201156616 4.6193976402282715
		endloop
	endfacet
	facet normal -0.6343933125542286 0 -0.7730104300631867
		outer loop
			vertex 3.535533905029297 -15 3.535533905029297
			vertex 2.777851104736328 -15 4.157348155975342
			vertex 2.777851104736328 -2.777851104736328 4.157348155975342
		endloop
	endfacet
	facet normal -0.9951847235273417 0 -0.09801717225980694
		outer loop
			vertex 5 -15 0
			vertex 4.903926372528076 -15 0.9754515886306763
			vertex 4.903926372528076 -4.903926372528076 0.9754515886306763
		endloop
	endfacet
	facet normal -0.9569403446166121 0 -0.29028464796650855
		outer loop
			vertex 4.903926372528076 -15 0.9754515886306763
			vertex 4.6193976402282715 -15 1.9134172201156616
			vertex 4.6193976402282715 -4.6193976402282715 1.9134172201156616
		endloop
	endfacet
	facet normal -0.8819212869849846 0 -0.4713966944758403
		outer loop
			vertex 4.6193976402282715 -15 1.9134172201156616
			vertex 4.157348155975342 -15 2.777851104736328
			vertex 4.157348155975342 -4.157348155975342 2.777851104736328
		endloop
	endfacet
	facet normal -0.9951847235273418 0 -0.09801717225980695
		outer loop
			vertex 5 -5 0
			vertex 5 -15 0
			vertex 4.903926372528076 -4.903926372528076 0.9754515886306763
		endloop
	endfacet
	facet normal -0.956940344616612 0 -0.29028464796650855
		outer loop
			vertex 4.903926372528076 -15 0.9754515886306763
			vertex 4.6193976402282715 -4.6193976402282715 1.9134172201156616
			vertex 4.903926372528076 -4.903926372528076 0.9754515886306763
		endloop
	endfacet
	facet normal -0.8819212869849845 0 -0.47139669447584026
		outer loop
			vertex 4.6193976402282715 -15 1.9134172201156616
			vertex 4.157348155975342 -4.157348155975342 2.777851104736328
			vertex 4.6193976402282715 -4.6193976402282715 1.9134172201156616
		endloop
	endfacet
	facet normal -0.7730104300631866 0 -0.6343933125542286
		outer loop
			vertex 4.157348155975342 -15 2.777851104736328
			vertex 3.535533905029297 -3.535533905029297 3.535533905029297
			vertex 4.157348155975342 -4.157348155975342 2.777851104736328
		endloop
	endfacet
	facet normal -0.6343933125542286 0 -0.7730104300631868
		outer loop
			vertex 3.535533905029297 -15 3.535533905029297
			vertex 2.777851104736328 -2.777851104736328 4.157348155975342
			vertex 3.535533905029297 -3.535533905029297 3.535533905029297
		endloop
	endfacet
	facet normal -0.29028464796650855 0 -0.9569403446166121
		outer loop
			vertex 1.9134172201156616 -15 4.6193976402282715
			vertex 0.9754515886306763 -0.9754515886306763 4.903926372528076
			vertex 1.9134172201156616 -1.9134172201156616 4.6193976402282715
		endloop
	endfacet
	facet normal -0.09801717225980694 0 -0.9951847235273417
		outer loop
			vertex 0.9754515886306763 -15 4.903926372528076
			vertex 0 0 5
			vertex 0.9754515886306763 -0.9754515886306763 4.903926372528076
		endloop
	endfacet
	facet normal -0.4713966944758403 0 -0.8819212869849846
		outer loop
			vertex 2.777851104736328 -15 4.157348155975342
			vertex 1.9134172201156616 -1.9134172201156616 4.6193976402282715
			vertex 2.777851104736328 -2.777851104736328 4.157348155975342
		endloop
	endfacet
	facet normal -0.09801717225980694 0 0.9951847235273417
		outer loop
			vertex 0 0 -5
			vertex 0.9754515886306763 0.9754515886306763 -4.903926372528076
			vertex 0.9754515886306763 15 -4.903926372528076
		endloop
	endfacet
	facet normal -0.29028464796650855 0 0.9569403446166121
		outer loop
			vertex 0.9754515886306763 0.9754515886306763 -4.903926372528076
			vertex 1.9134172201156616 1.9134172201156616 -4.6193976402282715
			vertex 1.9134172201156616 15 -4.6193976402282715
		endloop
	endfacet
	facet normal -0.4713966944758403 0 0.8819212869849846
		outer loop
			vertex 1.9134172201156616 1.9134172201156616 -4.6193976402282715
			vertex 2.777851104736328 2.777851104736328 -4.157348155975342
			vertex 2.777851104736328 15 -4.157348155975342
		endloop
	endfacet
	facet normal -0.6343933125542286 0 0.7730104300631868
		outer loop
			vertex 2.777851104736328 2.777851104736328 -4.157348155975342
			vertex 3.535533905029297 3.535533905029297 -3.535533905029297
			vertex 3.535533905029297 15 -3.535533905029297
		endloop
	endfacet
	facet normal -0.09801717225980694 0 0.9951847235273417
		outer loop
			vertex 0 15 -5
			vertex 0 0 -5
			vertex 0.9754515886306763 15 -4.903926372528076
		endloop
	endfacet
	facet normal -0.29028464796650855 0 0.9569403446166121
		outer loop
			vertex 0.9754515886306763 0.9754515886306763 -4.903926372528076
			vertex 1.9134172201156616 15 -4.6193976402282715
			vertex 0.9754515886306763 15 -4.903926372528076
		endloop
	endfacet
	facet normal -0.4713966944758403 0 0.8819212869849846
		outer loop
			vertex 1.9134172201156616 1.9134172201156616 -4.6193976402282715
			vertex 2.777851104736328 15 -4.157348155975342
			vertex 1.9134172201156616 15 -4.6193976402282715
		endloop
	endfacet
	facet normal -0.6343933125542286 0 0.7730104300631867
		outer loop
			vertex 2.777851104736328 2.777851104736328 -4.157348155975342
			vertex 3.535533905029297 15 -3.535533905029297
			vertex 2.777851104736328 15 -4.157348155975342
		endloop
	endfacet
	facet normal -0.7730104300631868 0 0.6343933125542286
		outer loop
			vertex 3.535533905029297 3.535533905029297 -3.535533905029297
			vertex 4.157348155975342 15 -2.777851104736328
			vertex 3.535533905029297 15 -3.535533905029297
		endloop
	endfacet
	facet normal -0.7730104300631866 0 0.6343933125542286
		outer loop
			vertex 3.535533905029297 3.535533905029297 -3.535533905029297
			vertex 4.157348155975342 4.157348155975342 -2.777851104736328
			vertex 4.157348155975342 15 -2.777851104736328
		endloop
	endfacet
	facet normal -0.8819212869849845 0 0.47139669447584026
		outer loop
			vertex 4.157348155975342 4.157348155975342 -2.777851104736328
			vertex 4.6193976402282715 4.6193976402282715 -1.9134172201156616
			vertex 4.6193976402282715 15 -1.9134172201156616
		endloop
	endfacet
	facet normal -0.956940344616612 0 0.29028464796650855
		outer loop
			vertex 4.6193976402282715 4.6193976402282715 -1.9134172201156616
			vertex 4.903926372528076 4.903926372528076 -0.9754515886306763
			vertex 4.903926372528076 15 -0.9754515886306763
		endloop
	endfacet
	facet normal -0.9951847235273418 0 0.09801717225980695
		outer loop
			vertex 4.903926372528076 4.903926372528076 -0.9754515886306763
			vertex 5 5 0
			vertex 5 15 0
		endloop
	endfacet
	facet normal -0.8819212869849846 0 0.4713966944758403
		outer loop
			vertex 4.157348155975342 4.157348155975342 -2.777851104736328
			vertex 4.6193976402282715 15 -1.9134172201156616
			vertex 4.157348155975342 15 -2.777851104736328
		endloop
	endfacet
	facet normal -0.9569403446166121 0 0.29028464796650855
		outer loop
			vertex 4.6193976402282715 4.6193976402282715 -1.9134172201156616
			vertex 4.903926372528076 15 -0.9754515886306763
			vertex 4.6193976402282715 15 -1.9134172201156616
		endloop
	endfacet
	facet normal -0.9951847235273417 0 0.09801717225980694
		outer loop
			vertex 4.903926372528076 15 -0.9754515886306763
			vertex 4.903926372528076 4.903926372528076 -0.9754515886306763
			vertex 5 15 0
		endloop
	endfacet
	facet normal -0.09801717225980694 0 -0.9951847235273417
		outer loop
			vertex 0.9754515886306763 0.9754515886306763 4.903926372528076
			vertex 0 0 5
			vertex 0 15 5
		endloop
	endfacet
	facet normal -0.29028464796650855 0 -0.9569403446166121
		outer loop
			vertex 1.9134172201156616 1.9134172201156616 4.6193976402282715
			vertex 0.9754515886306763 0.9754515886306763 4.903926372528076
			vertex 0.9754515886306763 15 4.903926372528076
		endloop
	endfacet
	facet normal -0.4713966944758403 0 -0.8819212869849846
		outer loop
			vertex 2.777851104736328 2.777851104736328 4.157348155975342
			vertex 1.9134172201156616 1.9134172201156616 4.6193976402282715
			vertex 1.9134172201156616 15 4.6193976402282715
		endloop
	endfacet
	facet normal -0.6343933125542286 0 -0.7730104300631867
		outer loop
			vertex 3.535533905029297 3.535533905029297 3.535533905029297
			vertex 2.777851104736328 2.777851104736328 4.157348155975342
			vertex 2.777851104736328 15 4.157348155975342
		endloop
	endfacet
	facet normal -0.7730104300631868 0 -0.6343933125542286
		outer loop
			vertex 4.157348155975342 4.157348155975342 2.777851104736328
			vertex 3.535533905029297 3.535533905029297 3.535533905029297
			vertex 3.535533905029297 15 3.535533905029297
		endloop
	endfacet
	facet normal -0.6343933125542286 0 -0.7730104300631868
		outer loop
			vertex 3.535533905029297 3.535533905029297 3.535533905029297
			vertex 2.777851104736328 15 4.157348155975342
			vertex 3.535533905029297 15 3.535533905029297
		endloop
	endfacet
	facet normal -0.09801717225980694 0 -0.9951847235273417
		outer loop
			vertex 0.9754515886306763 0.9754515886306763 4.903926372528076
			vertex 0 15 5
			vertex 0.9754515886306763 15 4.903926372528076
		endloop
	endfacet
	facet normal -0.29028464796650855 0 -0.9569403446166121
		outer loop
			vertex 1.9134172201156616 1.9134172201156616 4.6193976402282715
			vertex 0.9754515886306763 15 4.903926372528076
			vertex 1.9134172201156616 15 4.6193976402282715
		endloop
	endfacet
	facet normal -0.4713966944758403 0 -0.8819212869849846
		outer loop
			vertex 2.777851104736328 2.777851104736328 4.157348155975342
			vertex 1.9134172201156616 15 4.6193976402282715
			vertex 2.777851104736328 15 4.157348155975342
		endloop
	endfacet
	facet normal -0.9951847235273417 0 -0.09801717225980694
		outer loop
			vertex 5 5 0
			vertex 4.903926372528076 4.903926372528076 0.9754515886306763
			vertex 4.903926372528076 15 0.9754515886306763
		endloop
	endfacet
	facet normal -0.9569403446166121 0 -0.29028464796650855
		outer loop
			vertex 4.903926372528076 4.903926372528076 0.9754515886306763
			vertex 4.6193976402282715 4.6193976402282715 1.9134172201156616
			vertex 4.6193976402282715 15 1.9134172201156616
		endloop
	endfacet
	facet normal -0.8819212869849846 0 -0.4713966944758403
		outer loop
			vertex 4.6193976402282715 4.6193976402282715 1.9134172201156616
			vertex 4.157348155975342 4.157348155975342 2.777851104736328
			vertex 4.157348155975342 15 2.777851104736328
		endloop
	endfacet
	facet normal -0.9951847235273418 0 -0.09801717225980695
		outer loop
			vertex 5 5 0
			vertex 4.903926372528076 15 0.9754515886306763
			vertex 5 15 0
		endloop
	endfacet
	facet normal -0.956940344616612 0 -0.29028464796650855
		outer loop
			vertex 4.903926372528076 4.903926372528076 0.9754515886306763
			vertex 4.6193976402282715 15 1.9134172201156616
			vertex 4.903926372528076 15 0.9754515886306763
		endloop
	endfacet
	facet normal -0.8819212869849845 0 -0.47139669447584026
		outer loop
			vertex 4.6193976402282715 4.6193976402282715 1.9134172201156616
			vertex 4.157348155975342 15 2.777851104736328
			vertex 4.6193976402282715 15 1.9134172201156616
		endloop
	endfacet
	facet normal -0.7730104300631866 0 -0.6343933125542286
		outer loop
			vertex 4.157348155975342 4.157348155975342 2.777851104736328
			vertex 3.535533905029297 15 3.535533905029297
			vertex 4.157348155975342 15 2.777851104736328
		endloop
	endfacet
endsolid exported
