o 
usemtl rect-thin-plate-material
v 0 0 0
v 0 0 0.019999999552965164
v 0 6 0
v 0 6 0.019999999552965164
v 10 0 0
v 10 0 0.019999999552965164
v 10 6 0
v 10 6 0.019999999552965164
vn -0.003999945607522602 -0.0033332879286586225 -0.9999864447214879
vn -0.0019999513896856937 -0.006666504632285646 0.9999757786618767
vn -0.000999993901659128 0.003333313005530427 -0.9999939444999675
vn -0.001999993127262546 0.001666660900580347 0.9999966111287245
vn 0.000999993901659128 -0.003333313005530427 -0.9999939444999675
vn 0.001999993127262546 -0.001666660900580347 0.9999966111287245
vn 0.003999945607522602 0.0033332879286586225 -0.9999864447214879
vn 0.0019999513896856937 0.006666504632285646 0.9999757786618767
f 2//2 1//1 5//5
f 3//3 5//5 1//1
f 2//2 4//4 1//1
f 4//4 2//2 6//6
f 4//4 3//3 1//1
f 4//4 8//8 3//3
f 6//6 5//5 7//7
f 6//6 2//2 5//5
f 7//7 5//5 3//3
f 8//8 7//7 3//3
f 8//8 4//4 6//6
f 8//8 6//6 7//7
