solid exported
	facet normal 0 -1 0
		outer loop
			vertex -25 -8 8
			vertex -25 -8 -8
			vertex 25 -8 -8
		endloop
	endfacet
	facet normal 0 0 -1
		outer loop
			vertex -25 8 -8
			vertex 25 -8 -8
			vertex -25 -8 -8
		endloop
	endfacet
	facet normal -1 0 0
		outer loop
			vertex -25 -8 8
			vertex -25 8 8
			vertex -25 -8 -8
		endloop
	endfacet
	facet normal 0 0 1
		outer loop
			vertex -25 8 8
			vertex -25 -8 8
			vertex 25 -8 8
		endloop
	endfacet
	facet normal -1 0 0
		outer loop
			vertex -25 8 8
			vertex -25 8 -8
			vertex -25 -8 -8
		endloop
	endfacet
	facet normal 0 1 0
		outer loop
			vertex -25 8 8
			vertex 25 8 8
			vertex -25 8 -8
		endloop
	endfacet
	facet normal 1 0 0
		outer loop
			vertex 25 -8 8
			vertex 25 -8 -8
			vertex 25 8 -8
		endloop
	endfacet
	facet normal 0 -1 0
		outer loop
			vertex 25 -8 8
			vertex -25 -8 8
			vertex 25 -8 -8
		endloop
	endfacet
	facet normal 0 0 -1
		outer loop
			vertex 25 8 -8
			vertex 25 -8 -8
			vertex -25 8 -8
		endloop
	endfacet
	facet normal 0 1 0
		outer loop
			vertex 25 8 8
			vertex 25 8 -8
			vertex -25 8 -8
		endloop
	endfacet
	facet normal 0 0 1
		outer loop
			vertex 25 8 8
			vertex -25 8 8
			vertex 25 -8 8
		endloop
	endfacet
	facet normal 1 0 0
		outer loop
			vertex 25 8 8
			vertex 25 -8 8
			vertex 25 8 -8
		endloop
	endfacet
endsolid exported
