o 
usemtl boolean-difference-cube-three-bores-material
v -25 -8 -8
v -25 -3.325878381729126 -2.222280979156494
v -25 -2.222280979156494 -3.325878381729126
v -25 -2.8284270763397217 -2.8284270763397217
v -25 -3.6955180168151855 -1.5307337045669556
v -25 -3.9231410026550293 -0.7803612947463989
v -25 -1.5307337045669556 -3.6955180168151855
v -25 -0.7803612947463989 -3.9231410026550293
v -10 -3.325878381729126 -2.222280979156494
v -10 -2.222280979156494 -3.325878381729126
v -10 -2.8284270763397217 -2.8284270763397217
v -10 -3.6955180168151855 -1.5307337045669556
v -10 -3.9231410026550293 -0.7803612947463989
v -10 -1.5307337045669556 -3.6955180168151855
v -10 -0.7803612947463989 -3.9231410026550293
v -10 -0.6160746812820435 -3.939321994781494
v -6 -3.325878381729126 -2.222280979156494
v -6 -3.6955180168151855 -1.5307337045669556
v -6 -3.9231410026550293 -0.7803612947463989
v -6 -0.15607225894927979 -3.984628200531006
v -25 -8 8
v -25 -4 0
v -25 -3.9231410026550293 0.7803612947463989
v -25 -3.6955180168151855 1.5307337045669556
v -25 -3.325878381729126 2.222280979156494
v -25 -2.8284270763397217 2.8284270763397217
v -25 -2.222280979156494 3.325878381729126
v -25 -1.5307337045669556 3.6955180168151855
v -25 -0.7803612947463989 3.9231410026550293
v -10 -4 0
v -10 -3.9231410026550293 0.7803612947463989
v -10 -3.743438720703125 1.372760534286499
v -10 -3.6955180168151855 1.5307337045669556
v -10 -3.4036972522735596 2.0766921043395996
v -10 -3.325878381729126 2.222280979156494
v -10 -2.8284270763397217 2.8284270763397217
v -10 -2.222280979156494 3.325878381729126
v -10 -1.67632257938385 3.617699146270752
v -10 -1.5307337045669556 3.6955180168151855
v -10 -0.9383344054222107 3.875220537185669
v -10 -0.7803612947463989 3.9231410026550293
v -6 -4 0
v -6 -3.9231410026550293 0.7803612947463989
v -6 -3.6955180168151855 1.5307337045669556
v -6 -3.6215901374816895 1.6690431833267212
v -6 -2.707197904586792 2.92791748046875
v -6 -2.222280979156494 3.325878381729126
v -6 -2.0839715003967285 3.399806499481201
v -6 -1.3806592226028442 3.7410426139831543
v -6 -0.6242890357971191 3.9385128021240234
v -25 0 -4
v -25 0.7803612947463989 -3.9231410026550293
v -25 1.5307337045669556 -3.6955180168151855
v -25 2.222280979156494 -3.325878381729126
v -25 2.8284270763397217 -2.8284270763397217
v -25 3.325878381729126 -2.222280979156494
v -25 3.6955180168151855 -1.5307337045669556
v -25 3.9231410026550293 -0.7803612947463989
v -25 8 -8
v -10 0 -4
v -10 0.16428658366203308 -3.9838192462921143
v -10 0.7803612947463989 -3.9231410026550293
v -10 0.9383344054222107 -3.875220537185669
v -10 1.5307337045669556 -3.6955180168151855
v -10 1.67632257938385 -3.617699146270752
v -10 2.222280979156494 -3.325878381729126
v -10 2.8284270763397217 -2.8284270763397217
v -10 3.325878381729126 -2.222280979156494
v -10 3.4036972522735596 -2.0766921043395996
v -10 3.6955180168151855 -1.5307337045669556
v -10 3.743438720703125 -1.372760534286499
v -10 3.9231410026550293 -0.7803612947463989
v -6 0 -4
v -6 0.6242890357971191 -3.9385128021240234
v -6 1.3806592226028442 -3.7410426139831543
v -6 2.0839715003967285 -3.399806499481201
v -6 2.222280979156494 -3.325878381729126
v -6 2.707197904586792 -2.92791748046875
v -6 3.6215901374816895 -1.6690431833267212
v -6 3.6955180168151855 -1.5307337045669556
v -6 3.9231410026550293 -0.7803612947463989
v -25 0.7803612947463989 3.9231410026550293
v -25 1.5307337045669556 3.6955180168151855
v -25 3.9231410026550293 0.7803612947463989
v -25 3.6955180168151855 1.5307337045669556
v -25 2.8284270763397217 2.8284270763397217
v -25 2.222280979156494 3.325878381729126
v -25 3.325878381729126 2.222280979156494
v -25 0 4
v -25 4 0
v -25 8 8
v -10 0.6160746812820435 3.939321994781494
v -10 0.7803612947463989 3.9231410026550293
v -10 1.372760534286499 3.743438720703125
v -10 1.5307337045669556 3.6955180168151855
v -10 3.6955180168151855 1.5307337045669556
v -10 2.8284270763397217 2.8284270763397217
v -10 2.0766921043395996 3.4036972522735596
v -10 2.222280979156494 3.325878381729126
v -6 0.15607225894927979 3.984628200531006
v -6 0.7803612947463989 3.9231410026550293
v -6 0.9304357767105103 3.8776164054870605
v -6 1.5307337045669556 3.6955180168151855
v -6 1.6690431833267212 3.6215901374816895
v -6 3.9231410026550293 0.7803612947463989
v -6 3.6955180168151855 1.5307337045669556
v -6 2.8284270763397217 2.8284270763397217
v -6 2.222280979156494 3.325878381729126
v -6 2.343510150909424 3.2263882160186768
v -6 3.325878381729126 2.222280979156494
v -10 0 4
v -6 0 4
v -10 4 0
v -6 4 0
v 6 -3.325878381729126 -2.222280979156494
v 6 -2.222280979156494 -3.325878381729126
v 6 -2.8284270763397217 -2.8284270763397217
v 6 -3.6955180168151855 -1.5307337045669556
v 6 -3.9231410026550293 -0.7803612947463989
v 6 -3.874202251434326 -0.9416913390159607
v 6 -3.980785369873047 -0.19509032368659973
v 6 -1.5307337045669556 -3.6955180168151855
v 6 -0.7803612947463989 -3.9231410026550293
v 6 -0.6242890357971191 -3.9385128021240234
v 10 -3.325878381729126 -2.222280979156494
v 10 -3.6955180168151855 -1.5307337045669556
v 10 -3.9231410026550293 -0.7803612947463989
v 10 -3.9385128021240234 -0.6242890357971191
v 6.800000190734863 -0.031214451417326927 -3.9969255924224854
v 25 -8 -8
v 25 -3.325878381729126 -2.222280979156494
v 25 -2.222280979156494 -3.325878381729126
v 25 -2.8284270763397217 -2.8284270763397217
v 25 -3.6955180168151855 -1.5307337045669556
v 25 -3.9231410026550293 -0.7803612947463989
v 25 -1.5307337045669556 -3.6955180168151855
v 25 -0.7803612947463989 -3.9231410026550293
v 6 -4 0
v 6 -3.9423558712005615 0.5852709412574768
v 6 -3.9231410026550293 0.7803612947463989
v 6 -3.6955180168151855 1.5307337045669556
v 6 -3.538421154022217 1.8246413469314575
v 6 -3.325878381729126 2.222280979156494
v 6 -2.92791748046875 2.707197904586792
v 6 -2.8284270763397217 2.8284270763397217
v 6 -2.343510150909424 3.2263882160186768
v 6 -2.222280979156494 3.325878381729126
v 6 -1.6690431833267212 3.6215901374816895
v 6 -1.5307337045669556 3.6955180168151855
v 6 -0.9304357767105103 3.8776164054870605
v 6 -0.7803612947463989 3.9231410026550293
v 10 -3.984628200531006 0.15607225894927979
v 10 -3.9231410026550293 0.7803612947463989
v 10 -3.6955180168151855 1.5307337045669556
v 10 -3.6215901374816895 1.6690431833267212
v 6.800000190734863 -2.8041813373565674 2.848325252532959
v 10 -3.2263882160186768 2.343510150909424
v 10 -2.0839715003967285 3.399806499481201
v 10 -1.3806592226028442 3.7410426139831543
v 10 -0.6242890357971191 3.9385128021240234
v 25 -8 8
v 25 -4 0
v 25 -3.9231410026550293 0.7803612947463989
v 25 -3.6955180168151855 1.5307337045669556
v 25 -3.325878381729126 2.222280979156494
v 25 -2.8284270763397217 2.8284270763397217
v 25 -2.222280979156494 3.325878381729126
v 25 -1.5307337045669556 3.6955180168151855
v 25 -0.7803612947463989 3.9231410026550293
v 6 0 -4
v 6 0.15607225894927979 -3.984628200531006
v 6 0.7803612947463989 -3.9231410026550293
v 6 0.9304357767105103 -3.8776164054870605
v 6 1.5307337045669556 -3.6955180168151855
v 6 1.6690431833267212 -3.6215901374816895
v 6 2.222280979156494 -3.325878381729126
v 6 2.343510150909424 -3.2263882160186768
v 6 2.8284270763397217 -2.8284270763397217
v 6 2.92791748046875 -2.707197904586792
v 6 3.325878381729126 -2.222280979156494
v 6 3.538421154022217 -1.8246413469314575
v 6 3.6955180168151855 -1.5307337045669556
v 6 3.9231410026550293 -0.7803612947463989
v 6 3.9423558712005615 -0.5852709412574768
v 6.800000190734863 0.7491468191146851 -3.926215410232544
v 6.800000190734863 1.5007188320159912 -3.704622983932495
v 10 0 -4
v 6.800000190734863 2.1946189403533936 -3.3406641483306885
v 6.800000190734863 2.8041813373565674 -2.848325252532959
v 10 3.2263882160186768 -2.343510150909424
v 10 3.6215901374816895 -1.6690431833267212
v 10 3.6955180168151855 -1.5307337045669556
v 10 3.9231410026550293 -0.7803612947463989
v 10 3.984628200531006 -0.15607225894927979
v 25 0 -4
v 25 0.7803612947463989 -3.9231410026550293
v 25 1.5307337045669556 -3.6955180168151855
v 25 2.222280979156494 -3.325878381729126
v 25 2.8284270763397217 -2.8284270763397217
v 25 3.325878381729126 -2.222280979156494
v 25 3.6955180168151855 -1.5307337045669556
v 25 3.9231410026550293 -0.7803612947463989
v 25 8 -8
v 6 0.6242890357971191 3.9385128021240234
v 6 0.7803612947463989 3.9231410026550293
v 6 1.3806592226028442 3.7410426139831543
v 6 1.5307337045669556 3.6955180168151855
v 6 3.980785369873047 0.19509032368659973
v 6 3.874202251434326 0.9416913390159607
v 6 3.9231410026550293 0.7803612947463989
v 6 3.6955180168151855 1.5307337045669556
v 6 2.8284270763397217 2.8284270763397217
v 6 2.0839715003967285 3.399806499481201
v 6 2.222280979156494 3.325878381729126
v 6 3.2015156745910645 2.3738174438476562
v 6 3.325878381729126 2.222280979156494
v 10 0.15607225894927979 3.984628200531006
v 10 0.7803612947463989 3.9231410026550293
v 10 0.9304357767105103 3.8776164054870605
v 10 1.5307337045669556 3.6955180168151855
v 10 1.6690431833267212 3.6215901374816895
v 10 3.9385128021240234 0.6242890357971191
v 10 3.9231410026550293 0.7803612947463989
v 10 3.6955180168151855 1.5307337045669556
v 10 2.92791748046875 2.707197904586792
v 10 2.8284270763397217 2.8284270763397217
v 10 2.222280979156494 3.325878381729126
v 10 2.343510150909424 3.2263882160186768
v 10 3.325878381729126 2.222280979156494
v 6 0 4
v 10 0 4
v 6 4 0
v 25 0.7803612947463989 3.9231410026550293
v 25 1.5307337045669556 3.6955180168151855
v 25 3.9231410026550293 0.7803612947463989
v 25 3.6955180168151855 1.5307337045669556
v 25 2.8284270763397217 2.8284270763397217
v 25 2.222280979156494 3.325878381729126
v 25 3.325878381729126 2.222280979156494
v 25 0 4
v 25 4 0
v 25 8 8
vn -0.14710273034414761 -0.6994143216739621 -0.6994143216739621
vn -0.278023481702704 0.8184727440166988 0.5027974850013488
vn -0.30063927167116483 0.5035623310908061 0.8099635837711625
vn -0.22280408648194455 0.6935625736519915 0.685076123854986
vn -0.25450935897770505 0.906928954297683 0.3357154420774666
vn -0.21535852529207286 0.9643439640571024 0.1538227049907057
vn -0.27552911546496894 0.3385310459666184 0.8997113078359297
vn -0.9417202420812373 0.06253029371626072 0.3305343371303717
vn 0 0.8314696475898097 0.5555701802084753
vn 0 0.554689343547805 0.8320575293538934
vn 0 0.6926795125919826 0.7212455149498912
vn 3.528026508185283e-9 0.9326648634449806 0.36074402627785224
vn 2.3835200670732408e-9 0.985121615663796 0.17185866970261374
vn 0 0.3817047839304712 0.9242842949680539
vn -1.884755231143565e-9 0.23975455638546778 0.970833535006083
vn 0 0.09801728948788574 0.9951847119813729
vn 0 0.8036012626790954 0.595168052419284
vn -2.8108089106841744e-9 0.9039720866317745 0.42759147160648037
vn 3.795244163464757e-9 0.9704023117331274 0.24149400278889396
vn -5.679769056219406e-9 0.09801728948788574 0.9951847119813729
vn -0.09364585083031385 -0.8904966949392982 0.4452483474696491
vn -0.2576626579799978 0.9662349376226689 0
vn -0.852810753519665 0.5127355534805429 -0.09907608630856805
vn -0.2756202503061511 0.8809434720786696 -0.38467138784052124
vn -0.3934855766456341 0.7691527023304202 -0.5035605439961166
vn -0.22280409143276614 0.6850760932597673 -0.6935626022824142
vn -0.3211075127893579 0.5040031766284846 -0.8017922194550339
vn -0.2756202490602769 0.35091730591476067 -0.8949248698731515
vn -0.20292760625109252 0.16222880935263137 -0.9656615349268236
vn 1.6834833313993427e-9 0.9990224115680502 -0.044206573999319106
vn 0 0.9829798408151166 -0.18371345228667407
vn 0 0.9569403410180507 -0.2902846598293761
vn 2.011631354677755e-9 0.899868390888397 -0.4361615286564454
vn 1.5674193287063948e-9 0.8819213044314645 -0.4713966618357664
vn 1.892343618350644e-9 0.7998737110358906 -0.6001683483770804
vn 5.089039766837056e-9 0.7229540817167174 -0.6908960817149987
vn 3.6465216769836784e-9 0.5630774383351397 -0.8264041374762937
vn 4.6168873853744655e-9 0.4713966618357664 -0.8819213044314645
vn 3.712105119568956e-10 0.3790406935647488 -0.9253800044424745
vn 0 0.2902846598293761 -0.9569403410180507
vn -3.1123270663262557e-9 0.18344506642513053 -0.9830299627194887
vn 2.5334269868222137e-9 0.9988404962973213 0.048142112090360366
vn 1.354202513189806e-9 0.9811962736413317 -0.1930126228834912
vn -1.9677430921882505e-9 0.9510925473073225 -0.30890608031644246
vn -1.103164173607143e-10 0.8819213044314645 -0.4713966618357664
vn 6.5411675575692015e-9 0.6343933891444988 -0.7730103672071652
vn 3.948187063947045e-9 0.6213819311181008 -0.7835078146897705
vn 2.03508612982198e-9 0.4713966618357664 -0.8819213044314645
vn -4.622137686168681e-9 0.2902846871203997 -0.9569403327394095
vn 0 0.09801728948788574 -0.9951847119813729
vn -0.17500271123617347 0.018710417908746682 0.9843901519832816
vn -0.2336192899196822 -0.17153485288927145 0.9570777510848736
vn -0.2756202490602769 -0.35091730591476067 0.8949248698731515
vn -0.32110750314298914 -0.5040032210924038 0.8017921953684487
vn -0.22280408648194455 -0.685076123854986 0.6935625736519915
vn -0.39348559560455043 -0.7691527407392814 0.5035604705146977
vn -0.2756202503061511 -0.8809434720786696 0.38467138784052124
vn -0.8528107704041972 -0.5127355277959236 0.09907607389493894
vn -0.07415557556596764 0.7051598934328582 -0.7051598934328582
vn -1.4934733421004058e-9 0.058596055841189224 0.9982817749713034
vn 0 -0.09801728948788574 0.9951847119813729
vn -3.896377081850889e-9 -0.1912249218441806 0.9815462440790486
vn 0 -0.2902846598293761 0.9569403410180507
vn 3.712105397124716e-10 -0.3790406935647488 0.9253800044424745
vn 4.6168873853744655e-9 -0.4713966618357664 0.8819213044314645
vn 3.6465216769836784e-9 -0.5630774383351397 0.8264041374762937
vn 5.089039766837056e-9 -0.7229540817167174 0.6908960817149987
vn 1.892343618350644e-9 -0.7998737110358906 0.6001683483770804
vn 1.5674193287063948e-9 -0.8819213044314645 0.4713966618357664
vn 2.0116313285293096e-9 -0.8998683791913434 0.4361615527892671
vn 0 -0.9569403410180507 0.2902846598293761
vn 0 -0.9829798408151166 0.18371345228667407
vn -3.6248343132780743e-9 -0.06559129990223987 0.9978465720626264
vn -1.7300718478419288e-9 -0.09801730424588552 0.9951847105278344
vn -3.2434831913620633e-9 -0.2902846871203997 0.9569403327394095
vn 4.13871743020094e-9 -0.4713966618357664 0.8819213044314645
vn 3.948187063947045e-9 -0.6213819311181008 0.7835078146897705
vn 6.5411675575692015e-9 -0.6343933891444988 0.7730103672071652
vn -1.103164173607143e-10 -0.8819213044314645 0.4713966618357664
vn -1.9677430921882505e-9 -0.9510925473073225 0.30890608031644246
vn 1.354202513189806e-9 -0.9811962736413317 0.1930126228834912
vn -0.8998104891906131 -0.09323049297281027 -0.42620318947961455
vn -0.2756202503061511 -0.38467138784052124 -0.8809434720786696
vn -0.1862977547828416 -0.9693854806261938 -0.15995291967949643
vn -0.25450935897770505 -0.906928954297683 -0.3357154420774666
vn -0.22280408648194455 -0.6935625736519915 -0.685076123854986
vn -0.3934855766456341 -0.5035605439961166 -0.7691527023304202
vn -0.24149390064519918 -0.8241158298252674 -0.5123610006456164
vn -0.18772300020681693 -0.027368710076218168 -0.9818406331488401
vn -0.2576626579799978 -0.9662349376226689 0
vn -0.09364585821555643 0.44524834715899214 0.8904966943179843
vn 0 -0.09801728948788574 -0.9951847119813729
vn -6.377525642802912e-10 -0.25222536577675314 -0.9676685201342363
vn 0 -0.2902846598293761 -0.9569403410180507
vn 2.011631354677755e-9 -0.4361615286564454 -0.899868390888397
vn 3.528026508185283e-9 -0.9326648634449806 -0.36074402627785224
vn 1.060166030875876e-9 -0.7016770606909198 -0.7124951245448288
vn 1.4325875143249279e-9 -0.4713966618357664 -0.8819213044314645
vn 1.122351231782117e-9 -0.6186897267844376 -0.7856354256087221
vn -5.125380980681888e-9 -0.09801726735088591 -0.9951847141616801
vn -6.144416881336242e-9 -0.13033945659330665 -0.9914694276955601
vn -1.969517413538299e-9 -0.2902846598293761 -0.9569403410180507
vn -2.6238284811790213e-9 -0.3212608984930461 -0.9469907259838614
vn 4.54171591229224e-9 -0.471396567516626 -0.8819213548460787
vn 3.305500393141038e-9 -0.9787043555808571 -0.20527489950566072
vn -2.8108087244583193e-9 -0.9039720981512884 -0.4275914472530492
vn 2.1927766131042507e-10 -0.707386420660468 -0.7068270310798614
vn 6.079790889950417e-9 -0.4998367724333162 -0.8661196227562595
vn 0 -0.6343933242983579 -0.7730104204250281
vn 6.497856192151872e-10 -0.8168667617852183 -0.5768263980527688
vn -8.511625273880705e-10 0.009056429357842536 -0.999958989702721
vn 0 0.08022227891967007 -0.9967769991151153
vn 1.6834833313993427e-9 -0.9990224115680502 0.044206573999319106
vn 2.3810650572310413e-9 -0.9986910544792778 -0.05114858456564168
vn 0 0.8492517031235955 0.5279882051160544
vn 0 0.5825539200311763 0.8127920584358029
vn 0 0.7281499954739622 0.6854178171679438
vn 0 0.9354465700844591 0.3534681237639696
vn -1.4657351973906404e-9 0.9902655465478891 0.13919104612082847
vn 0 0.9569403327394095 0.2902846871203997
vn 0 0.9951847119813729 0.09801728948788574
vn 0 0.4127923895164744 0.9108251441178374
vn 0 0.25004684313687875 0.9682337404972422
vn -1.2497530774961545e-9 0.09801722307688585 0.9951847185222933
vn 0 0.8466272940057697 0.5321862691243244
vn 0 0.9202494542669842 0.39133226537217414
vn -5.460987726711789e-9 0.9633784408153212 0.2681454451827228
vn -3.121980650198536e-9 0.9951847119813729 0.09801728948788574
vn 3.9329258116296233e-17 0.09801729686688564 0.9951847112546036
vn 0.07415557556596764 -0.7051598934328582 -0.7051598934328582
vn 0.2780235188004995 0.7777403210434256 0.5637578522886023
vn 0.24149390064519918 0.5123610006456164 0.8241158298252674
vn 0.24844162648572685 0.6620932349985948 0.7070426482173633
vn 0.2755290936720857 0.8755696044913458 0.39681429690865117
vn 0.8723433844332378 0.47639055319054463 0.10985927574115478
vn 0.2207019198567525 0.34347841431649545 0.912859924342267
vn 0.18886124121471315 0.16077781169525426 0.9687527686842102
vn -3.389051957034911e-9 0.9999542322049321 0.009567313909590166
vn 0 0.9951847112546036 -0.09801729686688564
vn -2.368345800824118e-9 0.9667540433770448 -0.2557080749881292
vn 0 0.9469677401793327 -0.32132864649708387
vn 0 0.8819213044314645 -0.4713966618357664
vn 1.1646972423068026e-10 0.8477902519819924 -0.5303316779566442
vn 1.2074941965211075e-9 0.7730104204250281 -0.6343933242983579
vn -3.2503464178011982e-9 0.7484647588713037 -0.6631745658027915
vn -1.3219585219929514e-10 0.6343931589895909 -0.7730105560904117
vn 0 0.5133321412620925 -0.8581900213514925
vn 0 0.4713966618357664 -0.8819213044314645
vn 0 0.40292549359923074 -0.9152327827431752
vn 0 0.2902846871203997 -0.9569403327394095
vn 0 0.2096817240816359 -0.9777696940415737
vn -3.045108364469881e-9 0.9951847119813729 -0.09801728948788574
vn 0 0.9727544062799471 -0.2318380147062762
vn 0 0.937170457318954 -0.34887180156696895
vn -2.2349403215398915e-10 0.8819213044314645 -0.4713966618357664
vn -3.366210839878335e-9 0.6343933891444988 -0.7730103672071652
vn -3.706059540508092e-9 0.7730104496547076 -0.6343932886818924
vn -1.4024277503021612e-9 0.4713966618357664 -0.8819213044314645
vn 0 0.2902846598293761 -0.9569403410180507
vn 0 0.09801728948788574 -0.9951847119813729
vn 0.09364585083031385 -0.4452483474696491 0.8904966949392982
vn 0.16109071249465703 0.9866806009912586 0.022609156894773486
vn 0.24925149803719526 0.9547691874806056 -0.162140338484408
vn 0.25956108750049106 0.9010418509044278 -0.3474933449352455
vn 0.2781431082759934 0.8106749068988368 -0.5152112252689486
vn 0.28512386251301314 0.6928421444514024 -0.6623248039275311
vn 0.24805385636054955 0.5634142591016661 -0.7880568868968664
vn 0.2546203511050618 0.39044032675161194 -0.8847173718477723
vn 0.8843034627092754 0.10155691345701971 -0.4557341101667382
vn -4.9658922131319185e-11 -0.03281271040485329 0.999461518036531
vn 1.6587202656670602e-9 -0.09801725259288596 0.995184715615218
vn 3.8350715961172707e-10 -0.2535746323826294 0.9673158252670192
vn 1.3829314427660702e-9 -0.29028460524732697 0.9569403575753316
vn 9.243696459971551e-10 -0.43741599179919277 0.8992592785833952
vn -2.585477113835138e-9 -0.47139649637729175 0.8819213928708238
vn 1.1798700918135802e-9 -0.5750640637039314 0.8181083807395697
vn -1.3219585219929514e-10 -0.6343931589895909 0.7730105560904117
vn -3.2503464178011982e-9 -0.7484647588713037 0.6631745658027915
vn 1.2074941965211075e-9 -0.7730104204250281 0.6343933242983579
vn 1.1646972423068026e-10 -0.8477902519819924 0.5303316779566442
vn 0 -0.8819213044314645 0.4713966618357664
vn 0 -0.9469677401793327 0.32132864649708387
vn -2.368345800824118e-9 -0.9667540433770448 0.2557080749881292
vn 0 -0.9951847119813729 0.09801728948788574
vn 0 -0.09801729686688564 0.9951847112546036
vn 0 -0.2902846871203997 0.9569403327394095
vn 1.2828043811184816e-9 0.0019063471730403929 0.9999981829185771
vn -3.840482547657038e-9 -0.47139670819537494 0.881921279651741
vn -3.366210839878335e-9 -0.6343933891444988 0.7730103672071652
vn -3.7060591783270508e-9 -0.7730104204250281 0.6343933242983579
vn -2.2349403215398915e-10 -0.8819213044314645 0.4713966618357664
vn 0 -0.937170457318954 0.34887180156696895
vn 0 -0.9727544062799471 0.2318380147062762
vn -3.045108364469881e-9 -0.9951847119813729 0.09801728948788574
vn 0.1656359324639663 -0.035890207551002556 0.985533678206249
vn 0.8579379742140092 -0.11592827502146169 0.5005028146295586
vn 0.22614378923608108 -0.4007154053305695 0.8878548026117246
vn 0.24738602355567316 -0.5632184151328549 0.7884067301872476
vn 0.2851238507383641 -0.6928421754440143 0.6623247765757617
vn 0.27814314431419324 -0.8106749250739007 0.5152111772151681
vn 0.2595611265469903 -0.9010418233900687 0.34749338711342104
vn 0.24925149803719526 -0.9547691874806056 0.162140338484408
vn 0.14710273034414761 0.6994143216739621 -0.6994143216739621
vn 0 -0.09801728948788574 -0.9951847119813729
vn 0 -0.1950904009835211 -0.9807852646956361
vn 0 -0.2902846871203997 -0.9569403327394095
vn 0 -0.38268324228724265 -0.923879611244086
vn 0 -0.9951847119813729 -0.09801728948788574
vn 0 -0.9569403327394095 -0.2902846871203997
vn -1.465735089408431e-9 -0.9902655486018068 -0.13919103150836454
vn 0 -0.9354465700844591 -0.3534681237639696
vn 4.3395908184884964e-9 -0.6930435155576979 -0.7208957522023742
vn 0 -0.4713966850155712 -0.881921292041603
vn 0 -0.6191653665201935 -0.785260624825869
vn 4.513790158681616e-9 -0.7730104204250281 -0.6343933242983579
vn 0 -0.8714755354780213 -0.4904389779200836
vn 0 -0.09801728948788574 -0.9951847119813729
vn 0 -0.1968679585614978 -0.9804300112153996
vn 0 -0.2902846598293761 -0.9569403410180507
vn 0 -0.3843573611885961 -0.9231843905201924
vn -4.6168873853744655e-9 -0.4713966618357664 -0.8819213044314645
vn -3.121980650198536e-9 -0.9951847119813729 -0.09801728948788574
vn -5.460987726711789e-9 -0.9633784408153212 -0.2681454451827228
vn 0 -0.9202494542669842 -0.39133226537217414
vn -1.4685737947501349e-9 -0.7730104204250281 -0.6343933242983579
vn 0 -0.6641616684652564 -0.7475889767388542
vn -5.821458584290573e-9 -0.5041835444798893 -0.863596522385133
vn 0 -0.6343933242983579 -0.7730104204250281
vn -1.6528205410395575e-10 -0.8503536097599265 -0.5262116858910135
vn 0 -0.010942851498310932 -0.9999401252080475
vn 0 0.07687663158811218 -0.9970406127714487
vn -3.3890517350205016e-9 -0.9999542322138419 -0.00956731297835283
vn 0.2336163417011224 -0.17087370487919637 -0.9571967310177368
vn 0.27561684713205875 -0.35029920008184406 -0.8951680423244586
vn 0.8723433844332378 -0.47639055319054463 -0.10985927574115478
vn 0.27552911469511876 -0.8755695765927356 -0.3968143438694494
vn 0.30907804257413884 -0.6591098411676976 -0.6855982649295661
vn 0.30073354039542843 -0.5141317911296985 -0.803260754071179
vn 0.32002208013920463 -0.7726250977956799 -0.5483031337495643
vn 0.1750004309865948 0.01939057392822313 -0.984377394497273
vn 0.16109071249465703 -0.9866806009912586 -0.022609156894773486
vn 0.09364585083031385 0.8904966949392982 0.4452483474696491
f 1//1 2//2 4//4
f 1//1 4//4 3//3
f 1//1 5//5 2//2
f 1//1 6//6 5//5
f 1//1 22//22 6//6
f 1//1 23//23 22//22
f 1//1 3//3 7//7
f 1//1 7//7 8//8
f 1//1 8//8 59//59
f 1//1 130//130 21//21
f 1//1 59//59 130//130
f 1//1 21//21 23//23
f 21//21 24//24 23//23
f 21//21 25//25 24//24
f 21//21 26//26 25//25
f 21//21 27//27 26//26
f 21//21 28//28 27//27
f 21//21 29//29 28//28
f 21//21 89//89 29//29
f 21//21 82//82 89//89
f 21//21 161//161 91//91
f 8//8 51//51 59//59
f 51//51 52//52 59//59
f 52//52 53//53 59//59
f 53//53 54//54 59//59
f 54//54 55//55 59//59
f 55//55 56//56 59//59
f 56//56 57//57 59//59
f 57//57 58//58 59//59
f 58//58 91//91 59//59
f 21//21 91//91 82//82
f 82//82 91//91 83//83
f 83//83 91//91 87//87
f 58//58 90//90 91//91
f 84//84 91//91 90//90
f 84//84 85//85 91//91
f 85//85 88//88 91//91
f 86//86 87//87 91//91
f 86//86 91//91 88//88
f 59//59 91//91 242//242
f 130//130 133//133 131//131
f 130//130 132//132 133//133
f 130//130 135//135 161//161
f 130//130 131//131 134//134
f 130//130 134//134 135//135
f 130//130 136//136 132//132
f 130//130 137//137 136//136
f 130//130 195//195 137//137
f 130//130 196//196 195//195
f 21//21 130//130 161//161
f 161//161 135//135 162//162
f 161//161 162//162 163//163
f 161//161 163//163 164//164
f 161//161 164//164 165//165
f 161//161 165//165 166//166
f 161//161 166//166 167//167
f 161//161 167//167 168//168
f 161//161 168//168 169//169
f 161//161 169//169 242//242
f 59//59 203//203 130//130
f 59//59 242//242 203//203
f 130//130 203//203 196//196
f 203//203 197//197 196//196
f 203//203 198//198 197//197
f 203//203 199//199 198//198
f 203//203 200//200 199//199
f 203//203 201//201 200//200
f 203//203 202//202 201//201
f 203//203 241//241 202//202
f 203//203 235//235 241//241
f 91//91 161//161 242//242
f 242//242 169//169 240//240
f 242//242 240//240 233//233
f 242//242 233//233 234//234
f 242//242 234//234 238//238
f 242//242 236//236 235//235
f 242//242 239//239 236//236
f 203//203 242//242 235//235
f 242//242 238//238 237//237
f 242//242 237//237 239//239
f 2//2 9//9 4//4
f 3//3 4//4 10//10
f 2//2 5//5 12//12
f 5//5 6//6 13//13
f 6//6 22//22 30//30
f 3//3 14//14 7//7
f 7//7 15//15 8//8
f 8//8 16//16 51//51
f 4//4 9//9 17//17
f 4//4 11//11 10//10
f 4//4 17//17 11//11
f 2//2 12//12 18//18
f 5//5 19//19 12//12
f 5//5 13//13 19//19
f 2//2 18//18 9//9
f 6//6 42//42 13//13
f 6//6 30//30 42//42
f 3//3 10//10 14//14
f 7//7 14//14 15//15
f 8//8 15//15 16//16
f 16//16 60//60 51//51
f 9//9 18//18 17//17
f 16//16 20//20 60//60
f 20//20 73//73 60//60
f 22//22 23//23 30//30
f 23//23 24//24 32//32
f 24//24 25//25 34//34
f 25//25 26//26 35//35
f 26//26 27//27 37//37
f 27//27 28//28 38//38
f 28//28 29//29 40//40
f 29//29 89//89 111//111
f 23//23 31//31 30//30
f 23//23 32//32 31//31
f 24//24 33//33 32//32
f 24//24 34//34 33//33
f 25//25 35//35 34//34
f 26//26 36//36 35//35
f 26//26 47//47 36//36
f 27//27 38//38 37//37
f 26//26 37//37 47//47
f 28//28 39//39 38//38
f 28//28 40//40 39//39
f 29//29 41//41 40//40
f 29//29 112//112 41//41
f 29//29 111//111 112//112
f 31//31 32//32 43//43
f 33//33 34//34 45//45
f 32//32 44//44 43//43
f 36//36 47//47 46//46
f 37//37 38//38 48//48
f 39//39 40//40 49//49
f 41//41 112//112 50//50
f 51//51 61//61 52//52
f 52//52 63//63 53//53
f 53//53 65//65 54//54
f 54//54 66//66 55//55
f 55//55 68//68 56//56
f 56//56 69//69 57//57
f 57//57 71//71 58//58
f 58//58 113//113 90//90
f 51//51 60//60 61//61
f 52//52 61//61 62//62
f 52//52 62//62 63//63
f 53//53 63//63 64//64
f 53//53 64//64 65//65
f 54//54 65//65 66//66
f 55//55 66//66 77//77
f 55//55 67//67 68//68
f 55//55 77//77 67//67
f 56//56 68//68 69//69
f 57//57 69//69 70//70
f 57//57 70//70 71//71
f 58//58 71//71 72//72
f 58//58 72//72 113//113
f 61//61 74//74 62//62
f 63//63 75//75 64//64
f 65//65 76//76 66//66
f 67//67 77//77 78//78
f 69//69 79//79 70//70
f 71//71 80//80 81//81
f 71//71 81//81 72//72
f 82//82 92//92 89//89
f 82//82 83//83 94//94
f 83//83 87//87 98//98
f 84//84 90//90 113//113
f 85//85 96//96 88//88
f 86//86 99//99 87//87
f 89//89 92//92 111//111
f 82//82 93//93 92//92
f 82//82 94//94 93//93
f 83//83 95//95 94//94
f 83//83 98//98 95//95
f 84//84 105//105 85//85
f 84//84 113//113 114//114
f 85//85 105//105 96//96
f 88//88 96//96 106//106
f 86//86 88//88 110//110
f 86//86 97//97 99//99
f 86//86 110//110 97//97
f 87//87 99//99 98//98
f 92//92 100//100 111//111
f 93//93 102//102 101//101
f 93//93 94//94 102//102
f 95//95 98//98 104//104
f 95//95 104//104 103//103
f 84//84 114//114 105//105
f 88//88 106//106 110//110
f 97//97 110//110 107//107
f 99//99 109//109 108//108
f 15//15 20//20 16//16
f 10//10 11//11 116//116
f 11//11 17//17 117//117
f 12//12 120//120 18//18
f 12//12 19//19 120//120
f 13//13 121//121 19//19
f 13//13 42//42 121//121
f 17//17 18//18 115//115
f 10//10 122//122 14//14
f 14//14 123//123 15//15
f 15//15 123//123 20//20
f 20//20 170//170 73//73
f 30//30 31//31 43//43
f 32//32 33//33 44//44
f 34//34 35//35 45//45
f 33//33 45//45 44//44
f 37//37 48//48 47//47
f 38//38 39//39 48//48
f 40//40 41//41 49//49
f 30//30 139//139 42//42
f 30//30 43//43 139//139
f 43//43 44//44 140//140
f 44//44 45//45 141//141
f 35//35 143//143 45//45
f 35//35 36//36 144//144
f 36//36 46//46 145//145
f 46//46 47//47 146//146
f 47//47 48//48 147//147
f 39//39 149//149 48//48
f 39//39 49//49 149//149
f 41//41 151//151 49//49
f 41//41 50//50 151//151
f 50//50 112//112 230//230
f 60//60 73//73 61//61
f 61//61 73//73 74//74
f 62//62 75//75 63//63
f 64//64 76//76 65//65
f 66//66 76//76 77//77
f 68//68 79//79 69//69
f 70//70 80//80 71//71
f 70//70 79//79 80//80
f 72//72 81//81 113//113
f 62//62 74//74 172//172
f 62//62 172//172 75//75
f 64//64 75//75 174//174
f 64//64 174//174 76//76
f 73//73 171//171 74//74
f 67//67 78//78 178//178
f 67//67 179//179 68//68
f 68//68 180//180 79//79
f 76//76 176//176 77//77
f 77//77 177//177 78//78
f 81//81 184//184 113//113
f 113//113 184//184 114//114
f 79//79 182//182 80//80
f 80//80 183//183 81//81
f 92//92 93//93 101//101
f 100//100 112//112 111//111
f 92//92 101//101 100//100
f 94//94 95//95 103//103
f 94//94 103//103 102//102
f 98//98 108//108 104//104
f 97//97 107//107 109//109
f 98//98 99//99 108//108
f 97//97 109//109 99//99
f 100//100 230//230 112//112
f 100//100 101//101 204//204
f 101//101 102//102 205//205
f 102//102 103//103 206//206
f 104//104 108//108 213//213
f 103//103 104//104 207//207
f 96//96 105//105 209//209
f 96//96 209//209 106//106
f 105//105 114//114 208//208
f 106//106 216//216 110//110
f 107//107 214//214 109//109
f 108//108 109//109 214//214
f 107//107 110//110 215//215
f 17//17 115//115 117//117
f 11//11 117//117 116//116
f 18//18 118//118 115//115
f 19//19 119//119 120//120
f 19//19 121//121 119//119
f 42//42 138//138 121//121
f 18//18 127//127 118//118
f 18//18 120//120 127//127
f 10//10 116//116 122//122
f 14//14 122//122 123//123
f 20//20 123//123 124//124
f 20//20 124//124 129//129
f 20//20 129//129 170//170
f 126//126 125//125 115//115
f 119//119 121//121 128//128
f 170//170 129//129 187//187
f 42//42 139//139 138//138
f 43//43 140//140 139//139
f 44//44 141//141 140//140
f 45//45 143//143 142//142
f 45//45 154//154 141//141
f 45//45 142//142 154//154
f 35//35 144//144 143//143
f 36//36 145//145 144//144
f 46//46 156//156 145//145
f 46//46 146//146 156//156
f 47//47 147//147 146//146
f 48//48 148//148 147//147
f 48//48 149//149 148//148
f 49//49 150//150 149//149
f 49//49 151//151 150//150
f 50//50 231//231 151//151
f 50//50 230//230 231//231
f 138//138 139//139 152//152
f 154//154 153//153 140//140
f 154//154 142//142 155//155
f 143//143 144//144 157//157
f 147//147 148//148 158//158
f 149//149 150//150 159//159
f 151//151 231//231 160//160
f 73//73 170//170 171//171
f 74//74 171//171 185//185
f 74//74 185//185 172//172
f 75//75 172//172 173//173
f 75//75 173//173 186//186
f 75//75 186//186 174//174
f 76//76 174//174 175//175
f 76//76 175//175 188//188
f 76//76 188//188 176//176
f 77//77 176//176 177//177
f 78//78 177//177 189//189
f 67//67 178//178 179//179
f 78//78 189//189 178//178
f 68//68 179//179 180//180
f 79//79 180//180 181//181
f 80//80 182//182 183//183
f 81//81 183//183 184//184
f 114//114 184//184 232//232
f 79//79 181//181 192//192
f 79//79 192//192 182//182
f 180//180 179//179 190//190
f 192//192 181//181 191//191
f 192//192 193//193 183//183
f 232//232 184//184 194//194
f 100//100 204//204 230//230
f 101//101 205//205 204//204
f 103//103 207//207 206//206
f 102//102 218//218 205//205
f 102//102 206//206 218//218
f 104//104 220//220 207//207
f 104//104 213//213 220//220
f 114//114 232//232 208//208
f 105//105 208//208 210//210
f 105//105 210//210 209//209
f 106//106 211//211 216//216
f 106//106 209//209 223//223
f 106//106 223//223 211//211
f 107//107 212//212 214//214
f 107//107 215//215 212//212
f 108//108 214//214 213//213
f 110//110 216//216 215//215
f 230//230 204//204 217//217
f 218//218 206//206 219//219
f 220//220 213//213 221//221
f 210//210 208//208 222//222
f 210//210 222//222 223//223
f 224//224 229//229 216//216
f 212//212 215//215 225//225
f 212//212 225//225 226//226
f 228//228 227//227 214//214
f 115//115 125//125 117//117
f 116//116 117//117 133//133
f 126//126 115//115 118//118
f 127//127 120//120 119//119
f 121//121 138//138 128//128
f 119//119 128//128 127//127
f 122//122 116//116 132//132
f 123//123 122//122 136//136
f 124//124 123//123 137//137
f 117//117 125//125 131//131
f 116//116 133//133 132//132
f 117//117 131//131 133//133
f 118//118 135//135 126//126
f 127//127 135//135 118//118
f 126//126 134//134 125//125
f 138//138 162//162 128//128
f 127//127 128//128 135//135
f 129//129 124//124 137//137
f 129//129 137//137 187//187
f 122//122 132//132 136//136
f 123//123 136//136 137//137
f 126//126 135//135 134//134
f 125//125 134//134 131//131
f 128//128 162//162 135//135
f 137//137 195//195 187//187
f 139//139 140//140 152//152
f 140//140 153//153 152//152
f 154//154 140//140 141//141
f 142//142 143//143 155//155
f 144//144 145//145 157//157
f 146//146 147//147 167//167
f 148//148 149//149 158//158
f 150//150 151//151 159//159
f 138//138 152//152 162//162
f 153//153 163//163 152//152
f 154//154 164//164 153//153
f 154//154 155//155 164//164
f 155//155 143//143 165//165
f 143//143 157//157 165//165
f 145//145 156//156 166//166
f 166//166 157//157 145//145
f 146//146 167//167 156//156
f 147//147 158//158 167//167
f 158//158 149//149 168//168
f 149//149 159//159 168//168
f 159//159 151//151 169//169
f 151//151 160//160 169//169
f 160//160 231//231 240//240
f 163//163 162//162 152//152
f 164//164 163//163 153//153
f 165//165 164//164 155//155
f 166//166 165//165 157//157
f 156//156 167//167 166//166
f 158//158 168//168 167//167
f 159//159 169//169 168//168
f 160//160 240//240 169//169
f 185//185 171//171 170//170
f 185//185 170//170 187//187
f 173//173 172//172 196//196
f 175//175 174//174 197//197
f 179//179 178//178 190//190
f 177//177 176//176 198//198
f 181//181 180//180 191//191
f 192//192 183//183 182//182
f 184//184 183//183 194//194
f 193//193 194//194 183//183
f 185//185 187//187 195//195
f 185//185 196//196 172//172
f 186//186 173//173 196//196
f 186//186 197//197 174//174
f 188//188 175//175 197//197
f 188//188 198//198 176//176
f 189//189 177//177 198//198
f 189//189 199//199 178//178
f 199//199 190//190 178//178
f 190//190 200//200 180//180
f 191//191 180//180 200//200
f 192//192 191//191 201//201
f 192//192 201//201 193//193
f 194//194 241//241 232//232
f 194//194 193//193 202//202
f 185//185 195//195 196//196
f 186//186 196//196 197//197
f 188//188 197//197 198//198
f 189//189 198//198 199//199
f 190//190 199//199 200//200
f 191//191 200//200 201//201
f 193//193 201//201 202//202
f 194//194 202//202 241//241
f 205//205 218//218 204//204
f 230//230 217//217 231//231
f 204//204 218//218 217//217
f 207//207 220//220 206//206
f 206//206 220//220 219//219
f 213//213 227//227 221//221
f 208//208 232//232 222//222
f 210//210 223//223 209//209
f 211//211 224//224 216//216
f 212//212 226//226 228//228
f 214//214 227//227 213//213
f 212//212 228//228 214//214
f 216//216 229//229 215//215
f 215//215 229//229 225//225
f 231//231 217//217 240//240
f 217//217 218//218 233//233
f 218//218 219//219 233//233
f 219//219 220//220 234//234
f 220//220 221//221 234//234
f 222//222 232//232 241//241
f 222//222 235//235 223//223
f 211//211 223//223 235//235
f 211//211 235//235 224//224
f 229//229 224//224 236//236
f 228//228 226//226 237//237
f 225//225 237//237 226//226
f 221//221 227//227 238//238
f 227//227 228//228 238//238
f 225//225 229//229 239//239
f 217//217 233//233 240//240
f 219//219 234//234 233//233
f 221//221 238//238 234//234
f 222//222 241//241 235//235
f 229//229 236//236 239//239
f 235//235 236//236 224//224
f 228//228 237//237 238//238
f 225//225 239//239 237//237
