ply
format ascii 1.0
element vertex 16
property float x
property float y
property float z
property float nx
property float ny
property float nz
element face 24
property list uchar int vertex_index
end_header
-15 -15 -15 -0.816496580927726 -0.408248290463863 -0.408248290463863
-14 -14 -14 0.816496580927726 0.408248290463863 0.408248290463863
-15 -15 15 -0.408248290463863 -0.816496580927726 0.408248290463863
-14 -14 14 0.408248290463863 0.816496580927726 -0.408248290463863
-15 15 -15 -0.3333333333333333 0.6666666666666666 -0.6666666666666666
-14 14 -14 0.3333333333333333 -0.6666666666666666 0.6666666666666666
-15 15 15 -0.6666666666666666 0.3333333333333333 0.6666666666666666
-14 14 14 0.6666666666666666 -0.3333333333333333 -0.6666666666666666
14 -14 -14 -0.3333333333333333 0.6666666666666666 0.6666666666666666
15 -15 -15 0.3333333333333333 -0.6666666666666666 -0.6666666666666666
14 -14 14 -0.6666666666666666 0.3333333333333333 -0.6666666666666666
15 -15 15 0.6666666666666666 -0.3333333333333333 0.6666666666666666
14 14 -14 -0.816496580927726 -0.408248290463863 0.408248290463863
15 15 -15 0.816496580927726 0.408248290463863 -0.408248290463863
14 14 14 -0.408248290463863 -0.816496580927726 -0.408248290463863
15 15 15 0.408248290463863 0.816496580927726 0.408248290463863
3 0 9 2
3 0 4 9
3 0 2 6
3 2 11 6
3 0 6 4
3 4 6 15
3 9 13 11
3 2 9 11
3 4 13 9
3 4 15 13
3 6 11 15
3 11 13 15
3 1 3 8
3 1 8 5
3 1 7 3
3 3 7 10
3 1 5 7
3 5 14 7
3 8 10 12
3 3 10 8
3 5 8 12
3 5 12 14
3 7 14 10
3 10 14 12

