o 
usemtl topology-thin-shell-box-material
v -15 -15 -15
v -14 -14 -14
v -15 -15 15
v -14 -14 14
v -15 15 -15
v -14 14 -14
v -15 15 15
v -14 14 14
v 14 -14 -14
v 15 -15 -15
v 14 -14 14
v 15 -15 15
v 14 14 -14
v 15 15 -15
v 14 14 14
v 15 15 15
vn -0.816496580927726 -0.408248290463863 -0.408248290463863
vn 0.816496580927726 0.408248290463863 0.408248290463863
vn -0.408248290463863 -0.816496580927726 0.408248290463863
vn 0.408248290463863 0.816496580927726 -0.408248290463863
vn -0.3333333333333333 0.6666666666666666 -0.6666666666666666
vn 0.3333333333333333 -0.6666666666666666 0.6666666666666666
vn -0.6666666666666666 0.3333333333333333 0.6666666666666666
vn 0.6666666666666666 -0.3333333333333333 -0.6666666666666666
vn -0.3333333333333333 0.6666666666666666 0.6666666666666666
vn 0.3333333333333333 -0.6666666666666666 -0.6666666666666666
vn -0.6666666666666666 0.3333333333333333 -0.6666666666666666
vn 0.6666666666666666 -0.3333333333333333 0.6666666666666666
vn -0.816496580927726 -0.408248290463863 0.408248290463863
vn 0.816496580927726 0.408248290463863 -0.408248290463863
vn -0.408248290463863 -0.816496580927726 -0.408248290463863
vn 0.408248290463863 0.816496580927726 0.408248290463863
f 1//1 10//10 3//3
f 1//1 5//5 10//10
f 1//1 3//3 7//7
f 3//3 12//12 7//7
f 1//1 7//7 5//5
f 5//5 7//7 16//16
f 10//10 14//14 12//12
f 3//3 10//10 12//12
f 5//5 14//14 10//10
f 5//5 16//16 14//14
f 7//7 12//12 16//16
f 12//12 14//14 16//16
f 2//2 4//4 9//9
f 2//2 9//9 6//6
f 2//2 8//8 4//4
f 4//4 8//8 11//11
f 2//2 6//6 8//8
f 6//6 15//15 8//8
f 9//9 11//11 13//13
f 4//4 11//11 9//9
f 6//6 9//9 13//13
f 6//6 13//13 15//15
f 8//8 15//15 11//11
f 11//11 15//15 13//13
