solid exported
	facet normal 0 0 -1
		outer loop
			vertex -11.086554527282715 4.592201232910156 -15
			vertex -11.086554527282715 -4.592201232910156 -15
			vertex -11.769423484802246 -2.3410837650299072 -15
		endloop
	endfacet
	facet normal 0 0 -1
		outer loop
			vertex -9.977635383605957 6.666842937469482 -15
			vertex -9.977635383605957 -6.666842937469482 -15
			vertex -11.086554527282715 -4.592201232910156 -15
		endloop
	endfacet
	facet normal 0 0 -1
		outer loop
			vertex -8.485280990600586 8.485280990600586 -15
			vertex -8.485280990600586 -8.485280990600586 -15
			vertex -9.977635383605957 -6.666842937469482 -15
		endloop
	endfacet
	facet normal 0 0 -1
		outer loop
			vertex -6.666842937469482 9.977635383605957 -15
			vertex -6.666842937469482 -9.977635383605957 -15
			vertex -8.485280990600586 -8.485280990600586 -15
		endloop
	endfacet
	facet normal -0.7181980438284365 -0.5894102380390285 0.36984745657606316
		outer loop
			vertex 0 0 15
			vertex -9.977635383605957 -6.666842937469482 -15
			vertex -8.485280990600586 -8.485280990600586 -15
		endloop
	endfacet
	facet normal -0.8193864140886282 -0.4379711825201804 0.36984746543521735
		outer loop
			vertex 0 0 15
			vertex -11.086554527282715 -4.592201232910156 -15
			vertex -9.977635383605957 -6.666842937469482 -15
		endloop
	endfacet
	facet normal -0.8890860846540819 -0.26970129121895814 0.3698474653006312
		outer loop
			vertex 0 0 15
			vertex -11.769423484802246 -2.3410837650299072 -15
			vertex -11.086554527282715 -4.592201232910156 -15
		endloop
	endfacet
	facet normal -0.9246186592243786 -0.09106694579467693 0.3698474636897514
		outer loop
			vertex 0 0 15
			vertex -12 0 -15
			vertex -11.769423484802246 -2.3410837650299072 -15
		endloop
	endfacet
	facet normal -0.5894102380390285 -0.7181980438284365 0.36984745657606316
		outer loop
			vertex 0 0 15
			vertex -8.485280990600586 -8.485280990600586 -15
			vertex -6.666842937469482 -9.977635383605957 -15
		endloop
	endfacet
	facet normal -0.4379711825201804 -0.8193864140886282 0.36984746543521735
		outer loop
			vertex 0 0 15
			vertex -6.666842937469482 -9.977635383605957 -15
			vertex -4.592201232910156 -11.086554527282715 -15
		endloop
	endfacet
	facet normal -0.26970129121895814 -0.8890860846540819 0.3698474653006312
		outer loop
			vertex 0 0 15
			vertex -4.592201232910156 -11.086554527282715 -15
			vertex -2.3410837650299072 -11.769423484802246 -15
		endloop
	endfacet
	facet normal -0.09106694579467693 -0.9246186592243786 0.3698474636897514
		outer loop
			vertex 0 0 15
			vertex -2.3410837650299072 -11.769423484802246 -15
			vertex 0 -12 -15
		endloop
	endfacet
	facet normal 0 0 -1
		outer loop
			vertex -4.592201232910156 11.086554527282715 -15
			vertex -4.592201232910156 -11.086554527282715 -15
			vertex -6.666842937469482 -9.977635383605957 -15
		endloop
	endfacet
	facet normal 0 0 -1
		outer loop
			vertex -2.3410837650299072 11.769423484802246 -15
			vertex -2.3410837650299072 -11.769423484802246 -15
			vertex -4.592201232910156 -11.086554527282715 -15
		endloop
	endfacet
	facet normal 0 0 -1
		outer loop
			vertex 0 12 -15
			vertex 0 -12 -15
			vertex -2.3410837650299072 -11.769423484802246 -15
		endloop
	endfacet
	facet normal 0 0 -1
		outer loop
			vertex -11.769423484802246 2.3410837650299072 -15
			vertex -11.769423484802246 -2.3410837650299072 -15
			vertex -12 0 -15
		endloop
	endfacet
	facet normal 0 0 -1
		outer loop
			vertex -11.086554527282715 4.592201232910156 -15
			vertex -11.769423484802246 -2.3410837650299072 -15
			vertex -11.769423484802246 2.3410837650299072 -15
		endloop
	endfacet
	facet normal 0 0 -1
		outer loop
			vertex -9.977635383605957 6.666842937469482 -15
			vertex -11.086554527282715 -4.592201232910156 -15
			vertex -11.086554527282715 4.592201232910156 -15
		endloop
	endfacet
	facet normal 0 0 -1
		outer loop
			vertex -8.485280990600586 8.485280990600586 -15
			vertex -9.977635383605957 -6.666842937469482 -15
			vertex -9.977635383605957 6.666842937469482 -15
		endloop
	endfacet
	facet normal 0 0 -1
		outer loop
			vertex -6.666842937469482 9.977635383605957 -15
			vertex -8.485280990600586 -8.485280990600586 -15
			vertex -8.485280990600586 8.485280990600586 -15
		endloop
	endfacet
	facet normal -0.9246186592243786 0.09106694579467693 0.3698474636897514
		outer loop
			vertex 0 0 15
			vertex -11.769423484802246 2.3410837650299072 -15
			vertex -12 0 -15
		endloop
	endfacet
	facet normal -0.8890860846540819 0.26970129121895814 0.3698474653006312
		outer loop
			vertex 0 0 15
			vertex -11.086554527282715 4.592201232910156 -15
			vertex -11.769423484802246 2.3410837650299072 -15
		endloop
	endfacet
	facet normal -0.8193864140886282 0.4379711825201804 0.36984746543521735
		outer loop
			vertex 0 0 15
			vertex -9.977635383605957 6.666842937469482 -15
			vertex -11.086554527282715 4.592201232910156 -15
		endloop
	endfacet
	facet normal -0.7181980438284365 0.5894102380390285 0.36984745657606316
		outer loop
			vertex 0 0 15
			vertex -8.485280990600586 8.485280990600586 -15
			vertex -9.977635383605957 6.666842937469482 -15
		endloop
	endfacet
	facet normal 0 0 -1
		outer loop
			vertex -4.592201232910156 11.086554527282715 -15
			vertex -6.666842937469482 -9.977635383605957 -15
			vertex -6.666842937469482 9.977635383605957 -15
		endloop
	endfacet
	facet normal 0 0 -1
		outer loop
			vertex -2.3410837650299072 11.769423484802246 -15
			vertex -4.592201232910156 -11.086554527282715 -15
			vertex -4.592201232910156 11.086554527282715 -15
		endloop
	endfacet
	facet normal 0 0 -1
		outer loop
			vertex 0 12 -15
			vertex -2.3410837650299072 -11.769423484802246 -15
			vertex -2.3410837650299072 11.769423484802246 -15
		endloop
	endfacet
	facet normal -0.5894102380390285 0.7181980438284365 0.36984745657606316
		outer loop
			vertex 0 0 15
			vertex -6.666842937469482 9.977635383605957 -15
			vertex -8.485280990600586 8.485280990600586 -15
		endloop
	endfacet
	facet normal -0.4379711825201804 0.8193864140886282 0.36984746543521735
		outer loop
			vertex 0 0 15
			vertex -4.592201232910156 11.086554527282715 -15
			vertex -6.666842937469482 9.977635383605957 -15
		endloop
	endfacet
	facet normal -0.26970129121895814 0.8890860846540819 0.3698474653006312
		outer loop
			vertex 0 0 15
			vertex -2.3410837650299072 11.769423484802246 -15
			vertex -4.592201232910156 11.086554527282715 -15
		endloop
	endfacet
	facet normal -0.09106694579467693 0.9246186592243786 0.3698474636897514
		outer loop
			vertex 0 0 15
			vertex 0 12 -15
			vertex -2.3410837650299072 11.769423484802246 -15
		endloop
	endfacet
	facet normal 0.09106694579467693 -0.9246186592243786 0.3698474636897514
		outer loop
			vertex 0 0 15
			vertex 0 -12 -15
			vertex 2.3410837650299072 -11.769423484802246 -15
		endloop
	endfacet
	facet normal 0.26970129121895814 -0.8890860846540819 0.3698474653006312
		outer loop
			vertex 0 0 15
			vertex 2.3410837650299072 -11.769423484802246 -15
			vertex 4.592201232910156 -11.086554527282715 -15
		endloop
	endfacet
	facet normal 0.4379711825201804 -0.8193864140886282 0.36984746543521735
		outer loop
			vertex 0 0 15
			vertex 4.592201232910156 -11.086554527282715 -15
			vertex 6.666842937469482 -9.977635383605957 -15
		endloop
	endfacet
	facet normal 0.5894102380390285 -0.7181980438284365 0.36984745657606316
		outer loop
			vertex 0 0 15
			vertex 6.666842937469482 -9.977635383605957 -15
			vertex 8.485280990600586 -8.485280990600586 -15
		endloop
	endfacet
	facet normal 0 0 -1
		outer loop
			vertex 2.3410837650299072 11.769423484802246 -15
			vertex 2.3410837650299072 -11.769423484802246 -15
			vertex 0 -12 -15
		endloop
	endfacet
	facet normal 0 0 -1
		outer loop
			vertex 4.592201232910156 11.086554527282715 -15
			vertex 4.592201232910156 -11.086554527282715 -15
			vertex 2.3410837650299072 -11.769423484802246 -15
		endloop
	endfacet
	facet normal 0 0 -1
		outer loop
			vertex 6.666842937469482 9.977635383605957 -15
			vertex 6.666842937469482 -9.977635383605957 -15
			vertex 4.592201232910156 -11.086554527282715 -15
		endloop
	endfacet
	facet normal 0 0 -1
		outer loop
			vertex 8.485280990600586 8.485280990600586 -15
			vertex 8.485280990600586 -8.485280990600586 -15
			vertex 6.666842937469482 -9.977635383605957 -15
		endloop
	endfacet
	facet normal 0 0 -1
		outer loop
			vertex 9.977635383605957 6.666842937469482 -15
			vertex 9.977635383605957 -6.666842937469482 -15
			vertex 8.485280990600586 -8.485280990600586 -15
		endloop
	endfacet
	facet normal 0 0 -1
		outer loop
			vertex 11.086554527282715 4.592201232910156 -15
			vertex 11.086554527282715 -4.592201232910156 -15
			vertex 9.977635383605957 -6.666842937469482 -15
		endloop
	endfacet
	facet normal 0 0 -1
		outer loop
			vertex 11.769423484802246 2.3410837650299072 -15
			vertex 11.769423484802246 -2.3410837650299072 -15
			vertex 11.086554527282715 -4.592201232910156 -15
		endloop
	endfacet
	facet normal 0.7181980438284365 -0.5894102380390285 0.36984745657606316
		outer loop
			vertex 0 0 15
			vertex 8.485280990600586 -8.485280990600586 -15
			vertex 9.977635383605957 -6.666842937469482 -15
		endloop
	endfacet
	facet normal 0.8193864140886282 -0.4379711825201804 0.36984746543521735
		outer loop
			vertex 0 0 15
			vertex 9.977635383605957 -6.666842937469482 -15
			vertex 11.086554527282715 -4.592201232910156 -15
		endloop
	endfacet
	facet normal 0.8890860846540819 -0.26970129121895814 0.3698474653006312
		outer loop
			vertex 0 0 15
			vertex 11.086554527282715 -4.592201232910156 -15
			vertex 11.769423484802246 -2.3410837650299072 -15
		endloop
	endfacet
	facet normal 0.9246186592243786 -0.09106694579467693 0.3698474636897514
		outer loop
			vertex 0 0 15
			vertex 11.769423484802246 -2.3410837650299072 -15
			vertex 12 0 -15
		endloop
	endfacet
	facet normal 0 0 -1
		outer loop
			vertex 2.3410837650299072 11.769423484802246 -15
			vertex 0 -12 -15
			vertex 0 12 -15
		endloop
	endfacet
	facet normal 0 0 -1
		outer loop
			vertex 4.592201232910156 11.086554527282715 -15
			vertex 2.3410837650299072 -11.769423484802246 -15
			vertex 2.3410837650299072 11.769423484802246 -15
		endloop
	endfacet
	facet normal 0 0 -1
		outer loop
			vertex 6.666842937469482 9.977635383605957 -15
			vertex 4.592201232910156 -11.086554527282715 -15
			vertex 4.592201232910156 11.086554527282715 -15
		endloop
	endfacet
	facet normal 0.09106694579467693 0.9246186592243786 0.3698474636897514
		outer loop
			vertex 0 0 15
			vertex 2.3410837650299072 11.769423484802246 -15
			vertex 0 12 -15
		endloop
	endfacet
	facet normal 0.26970129121895814 0.8890860846540819 0.3698474653006312
		outer loop
			vertex 0 0 15
			vertex 4.592201232910156 11.086554527282715 -15
			vertex 2.3410837650299072 11.769423484802246 -15
		endloop
	endfacet
	facet normal 0.4379711825201804 0.8193864140886282 0.36984746543521735
		outer loop
			vertex 0 0 15
			vertex 6.666842937469482 9.977635383605957 -15
			vertex 4.592201232910156 11.086554527282715 -15
		endloop
	endfacet
	facet normal 0.5894102380390285 0.7181980438284365 0.36984745657606316
		outer loop
			vertex 0 0 15
			vertex 8.485280990600586 8.485280990600586 -15
			vertex 6.666842937469482 9.977635383605957 -15
		endloop
	endfacet
	facet normal 0 0 -1
		outer loop
			vertex 8.485280990600586 8.485280990600586 -15
			vertex 6.666842937469482 -9.977635383605957 -15
			vertex 6.666842937469482 9.977635383605957 -15
		endloop
	endfacet
	facet normal 0 0 -1
		outer loop
			vertex 9.977635383605957 6.666842937469482 -15
			vertex 8.485280990600586 -8.485280990600586 -15
			vertex 8.485280990600586 8.485280990600586 -15
		endloop
	endfacet
	facet normal 0 0 -1
		outer loop
			vertex 11.086554527282715 4.592201232910156 -15
			vertex 9.977635383605957 -6.666842937469482 -15
			vertex 9.977635383605957 6.666842937469482 -15
		endloop
	endfacet
	facet normal 0 0 -1
		outer loop
			vertex 12 0 -15
			vertex 11.769423484802246 -2.3410837650299072 -15
			vertex 11.769423484802246 2.3410837650299072 -15
		endloop
	endfacet
	facet normal 0 0 -1
		outer loop
			vertex 11.769423484802246 2.3410837650299072 -15
			vertex 11.086554527282715 -4.592201232910156 -15
			vertex 11.086554527282715 4.592201232910156 -15
		endloop
	endfacet
	facet normal 0.9246186592243786 0.09106694579467693 0.3698474636897514
		outer loop
			vertex 0 0 15
			vertex 12 0 -15
			vertex 11.769423484802246 2.3410837650299072 -15
		endloop
	endfacet
	facet normal 0.8890860846540819 0.26970129121895814 0.3698474653006312
		outer loop
			vertex 0 0 15
			vertex 11.769423484802246 2.3410837650299072 -15
			vertex 11.086554527282715 4.592201232910156 -15
		endloop
	endfacet
	facet normal 0.8193864140886282 0.4379711825201804 0.36984746543521735
		outer loop
			vertex 0 0 15
			vertex 11.086554527282715 4.592201232910156 -15
			vertex 9.977635383605957 6.666842937469482 -15
		endloop
	endfacet
	facet normal 0.7181980438284365 0.5894102380390285 0.36984745657606316
		outer loop
			vertex 0 0 15
			vertex 9.977635383605957 6.666842937469482 -15
			vertex 8.485280990600586 8.485280990600586 -15
		endloop
	endfacet
endsolid exported
