ply
format ascii 1.0
element vertex 33
property float x
property float y
property float z
property float nx
property float ny
property float nz
element face 62
property list uchar int vertex_index
end_header
-9.977635383605957 -6.666842937469482 -15 -0.8311615020733951 -0.5553644915932759 -0.027218356828431878
-6.666842937469482 -9.977635383605957 -15 -0.5007488721648999 -0.7494234433850103 -0.43314555236148383
-8.485280990600586 -8.485280990600586 -15 -0.684630200058109 -0.6846301404534655 -0.2501260881057024
-11.086554527282715 -4.592201232910156 -15 -0.9096484234500258 -0.3767886778658714 0.17484289504286685
-11.769423484802246 -2.3410837650299072 -15 -0.9327870994080079 -0.18554286242355889 0.30900173685865895
-4.592201232910156 -11.086554527282715 -15 -0.31937936353941776 -0.7710500457448456 -0.5508889625886761
-2.3410837650299072 -11.769423484802246 -15 -0.15460924378351862 -0.7772733355051477 -0.6098705958229095
-12 0 -15 -0.9309234282021156 0 0.3652144176020716
-11.769423484802246 2.3410837650299072 -15 -0.919975209581197 0.18299440809303766 0.34663909237521273
-11.086554527282715 4.592201232910156 -15 -0.8941339029871985 0.3703623619068879 0.2517067428807387
-9.977635383605957 6.666842937469482 -15 -0.8287841140434296 0.5537760297019909 0.08030567375190344
-8.485280990600586 8.485280990600586 -15 -0.7001166717915546 0.7001166121869117 -0.14026180955426934
-6.666842937469482 9.977635383605957 -15 -0.5205771297634623 0.7790985063445452 -0.34929209750427204
-4.592201232910156 11.086554527282715 -15 -0.33138084031849024 0.800024202238198 -0.500147992601136
-2.3410837650299072 11.769423484802246 -15 -0.15795448032272924 0.7940909666372082 -0.5869155977235232
0 -12 -15 0 -0.7837988122872511 -0.6210148322359897
2.3410837650299072 -11.769423484802246 -15 0.15795450037781722 -0.794090992547753 -0.5869155572694583
4.592201232910156 -11.086554527282715 -15 0.33138084624159525 -0.8000241569331947 -0.5001480611454322
6.666842937469482 -9.977635383605957 -15 0.5205771297634623 -0.7790985063445452 -0.34929209750427204
8.485280990600586 -8.485280990600586 -15 0.7001166136502 -0.7001166732548431 -0.1402617949462647
9.977635383605957 -6.666842937469482 -15 0.8287841135475482 -0.5537760293706535 0.08030568115443527
11.086554527282715 -4.592201232910156 -15 0.8941339029871985 -0.3703623619068879 0.2517067428807387
11.769423484802246 -2.3410837650299072 -15 0.9199752165765231 -0.18299442438565536 0.3466390652086719
0 12 -15 0 0.7837987602875531 -0.6210148978661418
2.3410837650299072 11.769423484802246 -15 0.1546092639487013 0.7772733619691765 -0.6098705569826881
4.592201232910156 11.086554527282715 -15 0.3193793861107121 0.7710500878922433 -0.5508888905114246
12 0 -15 0.9309234282021156 0 0.3652144176020716
11.769423484802246 2.3410837650299072 -15 0.9327870994080079 0.18554286242355889 0.30900173685865895
11.086554527282715 4.592201232910156 -15 0.9096484179753486 0.37678870540050835 0.1748428641882605
8.485280990600586 8.485280990600586 -15 0.6846301455569298 0.6846302051615737 -0.2501260601679048
6.666842937469482 9.977635383605957 -15 0.5007489168237118 0.7494234210169995 -0.4331455394334063
9.977635383605957 6.666842937469482 -15 0.8311614558370616 0.5553645601303447 -0.027218370304725306
0 0 15 2.0156047497721335e-8 -6.152898635036751e-8 0.999999999999998
3 9 3 4
3 10 0 3
3 11 2 0
3 12 1 2
3 32 0 2
3 32 3 0
3 32 4 3
3 32 7 4
3 32 2 1
3 32 1 5
3 32 5 6
3 32 6 15
3 13 5 1
3 14 6 5
3 23 15 6
3 8 4 7
3 9 4 8
3 10 3 9
3 11 0 10
3 12 2 11
3 32 8 7
3 32 9 8
3 32 10 9
3 32 11 10
3 13 1 12
3 14 5 13
3 23 6 14
3 32 12 11
3 32 13 12
3 32 14 13
3 32 23 14
3 32 15 16
3 32 16 17
3 32 17 18
3 32 18 19
3 24 16 15
3 25 17 16
3 30 18 17
3 29 19 18
3 31 20 19
3 28 21 20
3 27 22 21
3 32 19 20
3 32 20 21
3 32 21 22
3 32 22 26
3 24 15 23
3 25 16 24
3 30 17 25
3 32 24 23
3 32 25 24
3 32 30 25
3 32 29 30
3 29 18 30
3 31 19 29
3 28 20 31
3 26 22 27
3 27 21 28
3 32 26 27
3 32 27 28
3 32 28 31
3 32 31 29

