ISO-10303-21;
HEADER;
FILE_DESCRIPTION(('Open CASCADE Model'),'2;1');
FILE_NAME('Open CASCADE Shape Model','1970-01-01T00:00:00',('Author'),(
    'Open CASCADE'),'Open CASCADE STEP processor 8.0','Open CASCADE 8.0'
  ,'Unknown');
FILE_SCHEMA((
'AP242_MANAGED_MODEL_BASED_3D_ENGINEERING_MIM_LF {1 0 10303 442 1 1 4 }'
    ));
ENDSEC;
DATA;
#1 = APPLICATION_PROTOCOL_DEFINITION('international standard',
  'ap242_managed_model_based_3d_engineering',2013,#2);
#2 = APPLICATION_CONTEXT('Managed model based 3d engineering');
#3 = SHAPE_DEFINITION_REPRESENTATION(#4,#10);
#4 = PRODUCT_DEFINITION_SHAPE('','',#5);
#5 = PRODUCT_DEFINITION('design','',#6,#9);
#6 = PRODUCT_DEFINITION_FORMATION('','',#7);
#7 = PRODUCT('Open CASCADE STEP translator 8.0',
  'Open CASCADE STEP translator 8.0','',(#8));
#8 = PRODUCT_CONTEXT('',#2,'mechanical');
#9 = PRODUCT_DEFINITION_CONTEXT('part definition',#2,'design');
#10 = MANIFOLD_SURFACE_SHAPE_REPRESENTATION('',(#11,#15),#181);
#11 = AXIS2_PLACEMENT_3D('',#12,#13,#14);
#12 = CARTESIAN_POINT('',(0.,0.,0.));
#13 = DIRECTION('',(0.,0.,1.));
#14 = DIRECTION('',(1.,0.,-0.));
#15 = SHELL_BASED_SURFACE_MODEL('',(#16));
#16 = OPEN_SHELL('',(#17));
#17 = ADVANCED_FACE('',(#18),#32,.T.);
#18 = FACE_BOUND('',#19,.F.);
#19 = EDGE_LOOP('',(#20,#121,#142,#159));
#20 = ORIENTED_EDGE('',*,*,#21,.T.);
#21 = EDGE_CURVE('',#22,#24,#26,.T.);
#22 = VERTEX_POINT('',#23);
#23 = CARTESIAN_POINT('',(3.061616996623E-16,0.,0.));
#24 = VERTEX_POINT('',#25);
#25 = CARTESIAN_POINT('',(10.,0.,0.));
#26 = SURFACE_CURVE('',#27,(#31),.PCURVE_S1.);
#27 = LINE('',#28,#29);
#28 = CARTESIAN_POINT('',(0.,0.,0.));
#29 = VECTOR('',#30,1.);
#30 = DIRECTION('',(1.,0.,0.));
#31 = PCURVE('',#32,#114);
#32 = B_SPLINE_SURFACE_WITH_KNOTS('',8,8,(
    (#33,#34,#35,#36,#37,#38,#39,#40,#41)
    ,(#42,#43,#44,#45,#46,#47,#48,#49,#50)
    ,(#51,#52,#53,#54,#55,#56,#57,#58,#59)
    ,(#60,#61,#62,#63,#64,#65,#66,#67,#68)
    ,(#69,#70,#71,#72,#73,#74,#75,#76,#77)
    ,(#78,#79,#80,#81,#82,#83,#84,#85,#86)
    ,(#87,#88,#89,#90,#91,#92,#93,#94,#95)
    ,(#96,#97,#98,#99,#100,#101,#102,#103,#104)
    ,(#105,#106,#107,#108,#109,#110,#111,#112,#113
  )),.UNSPECIFIED.,.F.,.F.,.F.,(9,9),(9,9),(-5.5,5.5),(-6.373551575612,
    4.626448424388),.PIECEWISE_BEZIER_KNOTS.);
#33 = CARTESIAN_POINT('',(-0.579403333125,-0.49990589336,0.));
#34 = CARTESIAN_POINT('',(0.795591549008,-0.499947201427,0.));
#35 = CARTESIAN_POINT('',(2.170585023104,-0.50000022317,0.));
#36 = CARTESIAN_POINT('',(3.54558269436,-0.500021838851,0.));
#37 = CARTESIAN_POINT('',(4.92058446911,-0.500011379312,0.));
#38 = CARTESIAN_POINT('',(6.295587323529,-0.499990611951,0.));
#39 = CARTESIAN_POINT('',(7.67058807233,-0.499983726705,0.));
#40 = CARTESIAN_POINT('',(9.045586137473,-0.499997322028,0.));
#41 = CARTESIAN_POINT('',(10.420586316864,-0.500000390871,0.));
#42 = CARTESIAN_POINT('',(-0.579431510249,0.874835972272,0.));
#43 = CARTESIAN_POINT('',(0.795574001887,0.874856914381,0.));
#44 = CARTESIAN_POINT('',(2.170595674225,0.875015000157,0.));
#45 = CARTESIAN_POINT('',(3.5455950814,0.875142134843,0.));
#46 = CARTESIAN_POINT('',(4.920563540801,0.874763305706,0.));
#47 = CARTESIAN_POINT('',(6.29560024448,0.87511791999,0.));
#48 = CARTESIAN_POINT('',(7.670584569582,0.874975070539,0.));
#49 = CARTESIAN_POINT('',(9.045586123427,0.874997289022,0.));
#50 = CARTESIAN_POINT('',(10.420585884079,0.874999246646,0.));
#51 = CARTESIAN_POINT('',(-0.579454492824,2.249629570459,0.));
#52 = CARTESIAN_POINT('',(0.795559060019,2.24968479175,0.));
#53 = CARTESIAN_POINT('',(2.170717249905,2.250410508305,0.));
#54 = CARTESIAN_POINT('',(3.545549994083,2.250774281747,0.));
#55 = CARTESIAN_POINT('',(4.920540089853,2.24878526472,0.));
#56 = CARTESIAN_POINT('',(6.295643604899,2.25076566451,0.));
#57 = CARTESIAN_POINT('',(7.670570990757,2.249796037905,0.));
#58 = CARTESIAN_POINT('',(9.045586113389,2.249995945321,0.));
#59 = CARTESIAN_POINT('',(10.420585574947,2.249999278621,0.));
#60 = CARTESIAN_POINT('',(-0.57946139373,3.624910208028,0.));
#61 = CARTESIAN_POINT('',(0.795576348133,3.625014460152,0.));
#62 = CARTESIAN_POINT('',(2.170334685616,3.624454985805,0.));
#63 = CARTESIAN_POINT('',(3.545782866593,3.624908500078,0.));
#64 = CARTESIAN_POINT('',(4.920461703695,3.625440343455,0.));
#65 = CARTESIAN_POINT('',(6.295591172184,3.624523478883,0.));
#66 = CARTESIAN_POINT('',(7.67059574515,3.625134672496,0.));
#67 = CARTESIAN_POINT('',(9.045586107378,3.624997298454,0.));
#68 = CARTESIAN_POINT('',(10.420585389467,3.624999573568,0.));
#69 = CARTESIAN_POINT('',(-0.579461742819,4.999999999997,0.));
#70 = CARTESIAN_POINT('',(0.795529315471,4.999999999997,0.));
#71 = CARTESIAN_POINT('',(2.170883828574,5.000000000068,0.));
#72 = CARTESIAN_POINT('',(3.5453448001,4.999999999877,0.));
#73 = CARTESIAN_POINT('',(4.920757334314,5.000000000121,0.));
#74 = CARTESIAN_POINT('',(6.295579943528,4.999999999944,0.));
#75 = CARTESIAN_POINT('',(7.670582313775,5.000000000019,0.));
#76 = CARTESIAN_POINT('',(9.045586105358,5.000000000001,0.));
#77 = CARTESIAN_POINT('',(10.420585327641,5.000000000001,0.));
#78 = CARTESIAN_POINT('',(-0.57946139373,6.375089791968,0.));
#79 = CARTESIAN_POINT('',(0.795576348133,6.374985539844,0.));
#80 = CARTESIAN_POINT('',(2.17033468561,6.375545014088,0.));
#81 = CARTESIAN_POINT('',(3.545782866602,6.375091500111,0.));
#82 = CARTESIAN_POINT('',(4.920461703689,6.374559656366,0.));
#83 = CARTESIAN_POINT('',(6.295591172186,6.375476521204,0.));
#84 = CARTESIAN_POINT('',(7.670595745151,6.374865327479,0.));
#85 = CARTESIAN_POINT('',(9.045586107377,6.37500270155,0.));
#86 = CARTESIAN_POINT('',(10.420585389467,6.375000426434,0.));
#87 = CARTESIAN_POINT('',(-0.579454492825,7.750370429538,0.));
#88 = CARTESIAN_POINT('',(0.795559060019,7.750315208249,0.));
#89 = CARTESIAN_POINT('',(2.170717249909,7.74958949174,0.));
#90 = CARTESIAN_POINT('',(3.545549994077,7.749225718177,0.));
#91 = CARTESIAN_POINT('',(4.920540089858,7.751214735355,0.));
#92 = CARTESIAN_POINT('',(6.295643604898,7.749234335459,0.));
#93 = CARTESIAN_POINT('',(7.670570990757,7.750203962111,0.));
#94 = CARTESIAN_POINT('',(9.045586113389,7.750004054681,0.));
#95 = CARTESIAN_POINT('',(10.420585574947,7.750000721381,0.));
#96 = CARTESIAN_POINT('',(-0.579431510249,9.125164027726,0.));
#97 = CARTESIAN_POINT('',(0.795574001886,9.125143085616,0.));
#98 = CARTESIAN_POINT('',(2.170595674227,9.12498499985,0.));
#99 = CARTESIAN_POINT('',(3.545595081398,9.124857865148,0.));
#100 = CARTESIAN_POINT('',(4.920563540803,9.125236694302,0.));
#101 = CARTESIAN_POINT('',(6.295600244479,9.124882080007,0.));
#102 = CARTESIAN_POINT('',(7.670584569582,9.125024929461,0.));
#103 = CARTESIAN_POINT('',(9.045586123427,9.125002710979,0.));
#104 = CARTESIAN_POINT('',(10.420585884079,9.125000753355,0.));
#105 = CARTESIAN_POINT('',(-0.579403333124,10.499905893361,0.));
#106 = CARTESIAN_POINT('',(0.795591549008,10.499947201426,0.));
#107 = CARTESIAN_POINT('',(2.170585023104,10.500000223169,0.));
#108 = CARTESIAN_POINT('',(3.54558269436,10.500021838851,0.));
#109 = CARTESIAN_POINT('',(4.92058446911,10.500011379312,0.));
#110 = CARTESIAN_POINT('',(6.295587323529,10.499990611951,0.));
#111 = CARTESIAN_POINT('',(7.67058807233,10.499983726705,0.));
#112 = CARTESIAN_POINT('',(9.045586137473,10.499997322028,0.));
#113 = CARTESIAN_POINT('',(10.420586316864,10.500000390871,0.));
#114 = DEFINITIONAL_REPRESENTATION('',(#115),#120);
#115 = B_SPLINE_CURVE_WITH_KNOTS('',3,(#116,#117,#118,#119),
  .UNSPECIFIED.,.F.,.F.,(4,4),(0.,10.),.PIECEWISE_BEZIER_KNOTS.);
#116 = CARTESIAN_POINT('',(-5.,-5.794137796011));
#117 = CARTESIAN_POINT('',(-5.,-2.460806030612));
#118 = CARTESIAN_POINT('',(-5.,0.872528430007));
#119 = CARTESIAN_POINT('',(-5.,4.205862203989));
#120 = ( GEOMETRIC_REPRESENTATION_CONTEXT(2) 
PARAMETRIC_REPRESENTATION_CONTEXT() REPRESENTATION_CONTEXT('2D SPACE',''
  ) );
#121 = ORIENTED_EDGE('',*,*,#122,.T.);
#122 = EDGE_CURVE('',#24,#123,#125,.T.);
#123 = VERTEX_POINT('',#124);
#124 = CARTESIAN_POINT('',(10.,10.,0.));
#125 = SURFACE_CURVE('',#126,(#130),.PCURVE_S1.);
#126 = LINE('',#127,#128);
#127 = CARTESIAN_POINT('',(10.,0.,0.));
#128 = VECTOR('',#129,1.);
#129 = DIRECTION('',(0.,1.,0.));
#130 = PCURVE('',#32,#131);
#131 = DEFINITIONAL_REPRESENTATION('',(#132),#141);
#132 = B_SPLINE_CURVE_WITH_KNOTS('',7,(#133,#134,#135,#136,#137,#138,
    #139,#140),.UNSPECIFIED.,.F.,.F.,(8,8),(0.,10.),
  .PIECEWISE_BEZIER_KNOTS.);
#133 = CARTESIAN_POINT('',(-5.,4.205862203989));
#134 = CARTESIAN_POINT('',(-3.571425779466,4.205862203989));
#135 = CARTESIAN_POINT('',(-2.142851533363,4.205862203989));
#136 = CARTESIAN_POINT('',(-0.714292428571,4.205862203989));
#137 = CARTESIAN_POINT('',(0.714292428573,4.205862203989));
#138 = CARTESIAN_POINT('',(2.142851533358,4.205862203989));
#139 = CARTESIAN_POINT('',(3.571425779465,4.205862203989));
#140 = CARTESIAN_POINT('',(5.,4.205862203989));
#141 = ( GEOMETRIC_REPRESENTATION_CONTEXT(2) 
PARAMETRIC_REPRESENTATION_CONTEXT() REPRESENTATION_CONTEXT('2D SPACE',''
  ) );
#142 = ORIENTED_EDGE('',*,*,#143,.T.);
#143 = EDGE_CURVE('',#123,#144,#146,.T.);
#144 = VERTEX_POINT('',#145);
#145 = CARTESIAN_POINT('',(0.,10.,0.));
#146 = SURFACE_CURVE('',#147,(#151),.PCURVE_S1.);
#147 = LINE('',#148,#149);
#148 = CARTESIAN_POINT('',(10.,10.,0.));
#149 = VECTOR('',#150,1.);
#150 = DIRECTION('',(-1.,0.,0.));
#151 = PCURVE('',#32,#152);
#152 = DEFINITIONAL_REPRESENTATION('',(#153),#158);
#153 = B_SPLINE_CURVE_WITH_KNOTS('',3,(#154,#155,#156,#157),
  .UNSPECIFIED.,.F.,.F.,(4,4),(0.,10.),.PIECEWISE_BEZIER_KNOTS.);
#154 = CARTESIAN_POINT('',(5.,4.205862203989));
#155 = CARTESIAN_POINT('',(5.,0.872528430007));
#156 = CARTESIAN_POINT('',(5.,-2.460806030611));
#157 = CARTESIAN_POINT('',(5.,-5.794137796011));
#158 = ( GEOMETRIC_REPRESENTATION_CONTEXT(2) 
PARAMETRIC_REPRESENTATION_CONTEXT() REPRESENTATION_CONTEXT('2D SPACE',''
  ) );
#159 = ORIENTED_EDGE('',*,*,#160,.T.);
#160 = EDGE_CURVE('',#144,#22,#161,.T.);
#161 = SURFACE_CURVE('',#162,(#167),.PCURVE_S1.);
#162 = CIRCLE('',#163,5.);
#163 = AXIS2_PLACEMENT_3D('',#164,#165,#166);
#164 = CARTESIAN_POINT('',(0.,5.,0.));
#165 = DIRECTION('',(0.,0.,-1.));
#166 = DIRECTION('',(0.,1.,0.));
#167 = PCURVE('',#32,#168);
#168 = DEFINITIONAL_REPRESENTATION('',(#169),#180);
#169 = B_SPLINE_CURVE_WITH_KNOTS('',9,(#170,#171,#172,#173,#174,#175,
    #176,#177,#178,#179),.UNSPECIFIED.,.F.,.F.,(10,10),(0.,3.14159265359
    ),.PIECEWISE_BEZIER_KNOTS.);
#170 = CARTESIAN_POINT('',(5.,-5.794137796011));
#171 = CARTESIAN_POINT('',(5.,-4.048809364985));
#172 = CARTESIAN_POINT('',(4.314451652601,-2.303480115796));
#173 = CARTESIAN_POINT('',(2.944470471471,-0.8658173221));
#174 = CARTESIAN_POINT('',(1.047590426383,-4.295196280308E-02));
#175 = CARTESIAN_POINT('',(-1.047590426389,-4.295196281784E-02));
#176 = CARTESIAN_POINT('',(-2.944470471465,-0.865817322094));
#177 = CARTESIAN_POINT('',(-4.314451652603,-2.303480115797));
#178 = CARTESIAN_POINT('',(-5.,-4.048809364985));
#179 = CARTESIAN_POINT('',(-5.,-5.794137796011));
#180 = ( GEOMETRIC_REPRESENTATION_CONTEXT(2) 
PARAMETRIC_REPRESENTATION_CONTEXT() REPRESENTATION_CONTEXT('2D SPACE',''
  ) );
#181 = ( GEOMETRIC_REPRESENTATION_CONTEXT(3) 
GLOBAL_UNCERTAINTY_ASSIGNED_CONTEXT((#185)) GLOBAL_UNIT_ASSIGNED_CONTEXT
((#182,#183,#184)) REPRESENTATION_CONTEXT('Context #1',
  '3D Context with UNIT and UNCERTAINTY') );
#182 = ( LENGTH_UNIT() NAMED_UNIT(*) SI_UNIT(.MILLI.,.METRE.) );
#183 = ( NAMED_UNIT(*) PLANE_ANGLE_UNIT() SI_UNIT($,.RADIAN.) );
#184 = ( NAMED_UNIT(*) SI_UNIT($,.STERADIAN.) SOLID_ANGLE_UNIT() );
#185 = UNCERTAINTY_MEASURE_WITH_UNIT(LENGTH_MEASURE(5.E-06),#182,
  'distance_accuracy_value','confusion accuracy');
#186 = PRODUCT_RELATED_PRODUCT_CATEGORY('part',$,(#7));
ENDSEC;
END-ISO-10303-21;
