{"asset":{"version":"2.0","generator":"THREE.GLTFExporter r182"},"scenes":[{"name":"AuxScene","nodes":[0]}],"scene":0,"nodes":[{"mesh":0}],"bufferViews":[{"buffer":0,"byteOffset":0,"byteLength":864,"target":34962,"byteStride":12},{"buffer":0,"byteOffset":864,"byteLength":864,"target":34962,"byteStride":12},{"buffer":0,"byteOffset":1728,"byteLength":1680,"target":34963}],"buffers":[{"byteLength":3408,"uri":"data:application/octet-stream;base64,"}],"accessors":[{"bufferView":0,"componentType":5126,"count":72,"max":[15,15,10],"min":[-15,-15,-10],"type":"VEC3"},{"bufferView":1,"componentType":5126,"count":72,"max":[0.9993796348571777,0.7921759486198425,0.997624397277832],"min":[-0.9993796348571777,-0.7921758890151978,-0.8017837405204773],"type":"VEC3"},{"bufferView":2,"componentType":5125,"count":420,"max":[71],"min":[0],"type":"SCALAR"}],"materials":[{"pbrMetallicRoughness":{"baseColorFactor":[0.7454042095350284,0.3005437944049895,0.07036009568874305,1],"metallicFactor":0.25,"roughnessFactor":0.4},"name":"boolean-difference-cube-blind-bore-material"}],"meshes":[{"primitives":[{"mode":4,"attributes":{"POSITION":0,"NORMAL":1},"indices":2,"material":0}]}]}