solid exported
	facet normal 0 -1 0
		outer loop
			vertex -15 -15 -10
			vertex 15 -15 -10
			vertex -15 -15 10
		endloop
	endfacet
	facet normal 0 0 -1
		outer loop
			vertex -15 -15 -10
			vertex -15 15 -10
			vertex 15 -15 -10
		endloop
	endfacet
	facet normal 0 0 1
		outer loop
			vertex -15 -15 10
			vertex -4.242640495300293 -4.242640495300293 10
			vertex -4.9888176918029785 -3.333421468734741 10
		endloop
	endfacet
	facet normal 0 0 1
		outer loop
			vertex -15 -15 10
			vertex -3.333421468734741 -4.9888176918029785 10
			vertex -4.242640495300293 -4.242640495300293 10
		endloop
	endfacet
	facet normal -1 0 0
		outer loop
			vertex -15 -15 -10
			vertex -15 -15 10
			vertex -15 15 10
		endloop
	endfacet
	facet normal 0 0 1
		outer loop
			vertex -15 -15 10
			vertex -4.9888176918029785 -3.333421468734741 10
			vertex -5.543277263641357 -2.296100616455078 10
		endloop
	endfacet
	facet normal 0 0 1
		outer loop
			vertex -15 -15 10
			vertex -5.543277263641357 -2.296100616455078 10
			vertex -5.884711742401123 -1.1705418825149536 10
		endloop
	endfacet
	facet normal 0 0 1
		outer loop
			vertex -15 -15 10
			vertex -5.884711742401123 -1.1705418825149536 10
			vertex -6 0 10
		endloop
	endfacet
	facet normal 0 0 1
		outer loop
			vertex -15 -15 10
			vertex -6 0 10
			vertex -5.884711742401123 1.1705418825149536 10
		endloop
	endfacet
	facet normal 0 0 1
		outer loop
			vertex -15 -15 10
			vertex -5.884711742401123 1.1705418825149536 10
			vertex -5.543277263641357 2.296100616455078 10
		endloop
	endfacet
	facet normal 0 0 1
		outer loop
			vertex -15 -15 10
			vertex -2.296100616455078 -5.543277263641357 10
			vertex -3.333421468734741 -4.9888176918029785 10
		endloop
	endfacet
	facet normal 0 0 1
		outer loop
			vertex -15 -15 10
			vertex -1.1705418825149536 -5.884711742401123 10
			vertex -2.296100616455078 -5.543277263641357 10
		endloop
	endfacet
	facet normal 0 0 1
		outer loop
			vertex -15 -15 10
			vertex 0 -6 10
			vertex -1.1705418825149536 -5.884711742401123 10
		endloop
	endfacet
	facet normal 0 0 1
		outer loop
			vertex -15 -15 10
			vertex 1.1705418825149536 -5.884711742401123 10
			vertex 0 -6 10
		endloop
	endfacet
	facet normal -1 0 0
		outer loop
			vertex -15 -15 -10
			vertex -15 15 10
			vertex -15 15 -10
		endloop
	endfacet
	facet normal 0 0 1
		outer loop
			vertex -15 -15 10
			vertex -5.543277263641357 2.296100616455078 10
			vertex -15 15 10
		endloop
	endfacet
	facet normal 0 0 1
		outer loop
			vertex -15 15 10
			vertex -5.543277263641357 2.296100616455078 10
			vertex -4.9888176918029785 3.333421468734741 10
		endloop
	endfacet
	facet normal 0 0 1
		outer loop
			vertex -15 15 10
			vertex -4.9888176918029785 3.333421468734741 10
			vertex -4.242640495300293 4.242640495300293 10
		endloop
	endfacet
	facet normal 0 0 1
		outer loop
			vertex -15 15 10
			vertex -4.242640495300293 4.242640495300293 10
			vertex -3.333421468734741 4.9888176918029785 10
		endloop
	endfacet
	facet normal 0 1 0
		outer loop
			vertex -15 15 -10
			vertex -15 15 10
			vertex 15 15 10
		endloop
	endfacet
	facet normal 0 0 1
		outer loop
			vertex -15 15 10
			vertex -3.333421468734741 4.9888176918029785 10
			vertex -2.296100616455078 5.543277263641357 10
		endloop
	endfacet
	facet normal 0 0 1
		outer loop
			vertex -15 15 10
			vertex -2.296100616455078 5.543277263641357 10
			vertex -1.1705418825149536 5.884711742401123 10
		endloop
	endfacet
	facet normal 0 0 1
		outer loop
			vertex -15 15 10
			vertex -1.1705418825149536 5.884711742401123 10
			vertex 15 15 10
		endloop
	endfacet
	facet normal 1 0 0
		outer loop
			vertex 15 -15 -10
			vertex 15 15 -10
			vertex 15 -15 10
		endloop
	endfacet
	facet normal 0 -1 0
		outer loop
			vertex -15 -15 10
			vertex 15 -15 -10
			vertex 15 -15 10
		endloop
	endfacet
	facet normal 0 0 1
		outer loop
			vertex -15 -15 10
			vertex 15 -15 10
			vertex 1.1705418825149536 -5.884711742401123 10
		endloop
	endfacet
	facet normal 0 0 1
		outer loop
			vertex 15 -15 10
			vertex 2.296100616455078 -5.543277263641357 10
			vertex 1.1705418825149536 -5.884711742401123 10
		endloop
	endfacet
	facet normal 0 0 1
		outer loop
			vertex 15 -15 10
			vertex 3.333421468734741 -4.9888176918029785 10
			vertex 2.296100616455078 -5.543277263641357 10
		endloop
	endfacet
	facet normal 0 0 1
		outer loop
			vertex 15 -15 10
			vertex 4.242640495300293 -4.242640495300293 10
			vertex 3.333421468734741 -4.9888176918029785 10
		endloop
	endfacet
	facet normal 0 0 1
		outer loop
			vertex 15 -15 10
			vertex 4.9888176918029785 -3.333421468734741 10
			vertex 4.242640495300293 -4.242640495300293 10
		endloop
	endfacet
	facet normal 0 0 1
		outer loop
			vertex 15 -15 10
			vertex 5.543277263641357 -2.296100616455078 10
			vertex 4.9888176918029785 -3.333421468734741 10
		endloop
	endfacet
	facet normal 0 0 1
		outer loop
			vertex 15 -15 10
			vertex 15 15 10
			vertex 5.543277263641357 -2.296100616455078 10
		endloop
	endfacet
	facet normal 0 0 -1
		outer loop
			vertex -15 15 -10
			vertex 15 15 -10
			vertex 15 -15 -10
		endloop
	endfacet
	facet normal 0 1 0
		outer loop
			vertex -15 15 -10
			vertex 15 15 10
			vertex 15 15 -10
		endloop
	endfacet
	facet normal 0 0 1
		outer loop
			vertex 15 15 10
			vertex -1.1705418825149536 5.884711742401123 10
			vertex 0 6 10
		endloop
	endfacet
	facet normal 0 0 1
		outer loop
			vertex 15 15 10
			vertex 0 6 10
			vertex 1.1705418825149536 5.884711742401123 10
		endloop
	endfacet
	facet normal 0 0 1
		outer loop
			vertex 15 15 10
			vertex 1.1705418825149536 5.884711742401123 10
			vertex 2.296100616455078 5.543277263641357 10
		endloop
	endfacet
	facet normal 0 0 1
		outer loop
			vertex 15 15 10
			vertex 2.296100616455078 5.543277263641357 10
			vertex 3.333421468734741 4.9888176918029785 10
		endloop
	endfacet
	facet normal 1 0 0
		outer loop
			vertex 15 -15 10
			vertex 15 15 -10
			vertex 15 15 10
		endloop
	endfacet
	facet normal 0 0 1
		outer loop
			vertex 15 15 10
			vertex 5.884711742401123 -1.1705418825149536 10
			vertex 5.543277263641357 -2.296100616455078 10
		endloop
	endfacet
	facet normal 0 0 1
		outer loop
			vertex 15 15 10
			vertex 6 0 10
			vertex 5.884711742401123 -1.1705418825149536 10
		endloop
	endfacet
	facet normal 0 0 1
		outer loop
			vertex 15 15 10
			vertex 5.884711742401123 1.1705418825149536 10
			vertex 6 0 10
		endloop
	endfacet
	facet normal 0 0 1
		outer loop
			vertex 15 15 10
			vertex 5.543277263641357 2.296100616455078 10
			vertex 5.884711742401123 1.1705418825149536 10
		endloop
	endfacet
	facet normal 0 0 1
		outer loop
			vertex 15 15 10
			vertex 4.9888176918029785 3.333421468734741 10
			vertex 5.543277263641357 2.296100616455078 10
		endloop
	endfacet
	facet normal 0 0 1
		outer loop
			vertex 15 15 10
			vertex 3.333421468734741 4.9888176918029785 10
			vertex 4.242640495300293 4.242640495300293 10
		endloop
	endfacet
	facet normal 0 0 1
		outer loop
			vertex 15 15 10
			vertex 4.242640495300293 4.242640495300293 10
			vertex 4.9888176918029785 3.333421468734741 10
		endloop
	endfacet
	facet normal 0 0 1
		outer loop
			vertex -5.543277263641357 -2.296100616455078 4
			vertex -5.543277263641357 2.296100616455078 4
			vertex -5.884711742401123 -1.1705418825149536 4
		endloop
	endfacet
	facet normal 0 0 1
		outer loop
			vertex -4.9888176918029785 -3.333421468734741 4
			vertex -4.9888176918029785 3.333421468734741 4
			vertex -5.543277263641357 -2.296100616455078 4
		endloop
	endfacet
	facet normal 0 0 1
		outer loop
			vertex -4.9888176918029785 -3.333421468734741 4
			vertex -4.242640495300293 -4.242640495300293 4
			vertex -4.242640495300293 4.242640495300293 4
		endloop
	endfacet
	facet normal 0 0 1
		outer loop
			vertex -3.333421468734741 -4.9888176918029785 4
			vertex -3.333421468734741 4.9888176918029785 4
			vertex -4.242640495300293 -4.242640495300293 4
		endloop
	endfacet
	facet normal 0 0 1
		outer loop
			vertex -3.333421468734741 -4.9888176918029785 4
			vertex -2.296100616455078 -5.543277263641357 4
			vertex -2.296100616455078 5.543277263641357 4
		endloop
	endfacet
	facet normal 0 0 1
		outer loop
			vertex -1.1705418825149536 -5.884711742401123 4
			vertex 0 -6 4
			vertex 0 6 4
		endloop
	endfacet
	facet normal 0 0 1
		outer loop
			vertex -2.296100616455078 -5.543277263641357 4
			vertex -1.1705418825149536 -5.884711742401123 4
			vertex -1.1705418825149536 5.884711742401123 4
		endloop
	endfacet
	facet normal 0.6343935001681328 0.773010276092385 0
		outer loop
			vertex -3.333421468734741 -4.9888176918029785 4
			vertex -4.242640495300293 -4.242640495300293 4
			vertex -4.242640495300293 -4.242640495300293 10
		endloop
	endfacet
	facet normal 0.773010276092385 0.6343935001681328 0
		outer loop
			vertex -4.242640495300293 -4.242640495300293 4
			vertex -4.9888176918029785 -3.333421468734741 10
			vertex -4.242640495300293 -4.242640495300293 10
		endloop
	endfacet
	facet normal 0.9569403429085449 0.29028465359725186 0
		outer loop
			vertex -5.543277263641357 -2.296100616455078 4
			vertex -5.884711742401123 -1.1705418825149536 4
			vertex -5.884711742401123 -1.1705418825149536 10
		endloop
	endfacet
	facet normal 0.9951847312416165 0.09801709393545507 0
		outer loop
			vertex -5.884711742401123 -1.1705418825149536 4
			vertex -6 0 4
			vertex -6 0 10
		endloop
	endfacet
	facet normal 0.773010276092385 0.6343935001681328 0
		outer loop
			vertex -4.9888176918029785 -3.333421468734741 4
			vertex -4.9888176918029785 -3.333421468734741 10
			vertex -4.242640495300293 -4.242640495300293 4
		endloop
	endfacet
	facet normal 0.8819212556035696 0.4713967531863405 0
		outer loop
			vertex -4.9888176918029785 -3.333421468734741 4
			vertex -5.543277263641357 -2.296100616455078 4
			vertex -5.543277263641357 -2.296100616455078 10
		endloop
	endfacet
	facet normal 0.9569403429085449 0.29028465359725186 0
		outer loop
			vertex -5.543277263641357 -2.296100616455078 4
			vertex -5.884711742401123 -1.1705418825149536 10
			vertex -5.543277263641357 -2.296100616455078 10
		endloop
	endfacet
	facet normal 0.9951847312416165 0.09801709393545507 0
		outer loop
			vertex -5.884711742401123 -1.1705418825149536 4
			vertex -6 0 10
			vertex -5.884711742401123 -1.1705418825149536 10
		endloop
	endfacet
	facet normal 0.8819212556035696 0.4713967531863405 0
		outer loop
			vertex -4.9888176918029785 -3.333421468734741 4
			vertex -5.543277263641357 -2.296100616455078 10
			vertex -4.9888176918029785 -3.333421468734741 10
		endloop
	endfacet
	facet normal 0.29028465359725186 0.9569403429085449 0
		outer loop
			vertex -2.296100616455078 -5.543277263641357 4
			vertex -2.296100616455078 -5.543277263641357 10
			vertex -1.1705418825149536 -5.884711742401123 4
		endloop
	endfacet
	facet normal 0.4713967531863405 0.8819212556035696 0
		outer loop
			vertex -3.333421468734741 -4.9888176918029785 4
			vertex -3.333421468734741 -4.9888176918029785 10
			vertex -2.296100616455078 -5.543277263641357 4
		endloop
	endfacet
	facet normal 0.09801709393545507 0.9951847312416165 0
		outer loop
			vertex -1.1705418825149536 -5.884711742401123 4
			vertex -1.1705418825149536 -5.884711742401123 10
			vertex 0 -6 4
		endloop
	endfacet
	facet normal 0.6343935001681328 0.773010276092385 0
		outer loop
			vertex -3.333421468734741 -4.9888176918029785 4
			vertex -4.242640495300293 -4.242640495300293 10
			vertex -3.333421468734741 -4.9888176918029785 10
		endloop
	endfacet
	facet normal 0.4713967531863405 0.8819212556035696 0
		outer loop
			vertex -2.296100616455078 -5.543277263641357 4
			vertex -3.333421468734741 -4.9888176918029785 10
			vertex -2.296100616455078 -5.543277263641357 10
		endloop
	endfacet
	facet normal 0.29028465359725186 0.9569403429085449 0
		outer loop
			vertex -1.1705418825149536 -5.884711742401123 4
			vertex -2.296100616455078 -5.543277263641357 10
			vertex -1.1705418825149536 -5.884711742401123 10
		endloop
	endfacet
	facet normal 0.09801709393545507 0.9951847312416165 0
		outer loop
			vertex 0 -6 4
			vertex -1.1705418825149536 -5.884711742401123 10
			vertex 0 -6 10
		endloop
	endfacet
	facet normal 0 0 1
		outer loop
			vertex -5.884711742401123 -1.1705418825149536 4
			vertex -5.884711742401123 1.1705418825149536 4
			vertex -6 0 4
		endloop
	endfacet
	facet normal 0 0 1
		outer loop
			vertex -5.884711742401123 -1.1705418825149536 4
			vertex -5.543277263641357 2.296100616455078 4
			vertex -5.884711742401123 1.1705418825149536 4
		endloop
	endfacet
	facet normal 0 0 1
		outer loop
			vertex -5.543277263641357 -2.296100616455078 4
			vertex -4.9888176918029785 3.333421468734741 4
			vertex -5.543277263641357 2.296100616455078 4
		endloop
	endfacet
	facet normal 0 0 1
		outer loop
			vertex -4.9888176918029785 -3.333421468734741 4
			vertex -4.242640495300293 4.242640495300293 4
			vertex -4.9888176918029785 3.333421468734741 4
		endloop
	endfacet
	facet normal 0 0 1
		outer loop
			vertex -4.242640495300293 -4.242640495300293 4
			vertex -3.333421468734741 4.9888176918029785 4
			vertex -4.242640495300293 4.242640495300293 4
		endloop
	endfacet
	facet normal 0 0 1
		outer loop
			vertex -3.333421468734741 -4.9888176918029785 4
			vertex -2.296100616455078 5.543277263641357 4
			vertex -3.333421468734741 4.9888176918029785 4
		endloop
	endfacet
	facet normal 0 0 1
		outer loop
			vertex -2.296100616455078 -5.543277263641357 4
			vertex -1.1705418825149536 5.884711742401123 4
			vertex -2.296100616455078 5.543277263641357 4
		endloop
	endfacet
	facet normal 0 0 1
		outer loop
			vertex -1.1705418825149536 -5.884711742401123 4
			vertex 0 6 4
			vertex -1.1705418825149536 5.884711742401123 4
		endloop
	endfacet
	facet normal 0.9951847312416165 -0.09801709393545507 0
		outer loop
			vertex -6 0 4
			vertex -5.884711742401123 1.1705418825149536 4
			vertex -5.884711742401123 1.1705418825149536 10
		endloop
	endfacet
	facet normal 0.9569403429085449 -0.29028465359725186 0
		outer loop
			vertex -5.884711742401123 1.1705418825149536 4
			vertex -5.543277263641357 2.296100616455078 4
			vertex -5.543277263641357 2.296100616455078 10
		endloop
	endfacet
	facet normal 0.8819212556035696 -0.4713967531863405 0
		outer loop
			vertex -5.543277263641357 2.296100616455078 4
			vertex -4.9888176918029785 3.333421468734741 4
			vertex -4.9888176918029785 3.333421468734741 10
		endloop
	endfacet
	facet normal 0.9951847312416165 -0.09801709393545507 0
		outer loop
			vertex -6 0 4
			vertex -5.884711742401123 1.1705418825149536 10
			vertex -6 0 10
		endloop
	endfacet
	facet normal 0.9569403429085449 -0.29028465359725186 0
		outer loop
			vertex -5.884711742401123 1.1705418825149536 4
			vertex -5.543277263641357 2.296100616455078 10
			vertex -5.884711742401123 1.1705418825149536 10
		endloop
	endfacet
	facet normal 0.8819212556035696 -0.4713967531863405 0
		outer loop
			vertex -5.543277263641357 2.296100616455078 4
			vertex -4.9888176918029785 3.333421468734741 10
			vertex -5.543277263641357 2.296100616455078 10
		endloop
	endfacet
	facet normal 0.773010276092385 -0.6343935001681328 0
		outer loop
			vertex -4.9888176918029785 3.333421468734741 4
			vertex -4.242640495300293 4.242640495300293 10
			vertex -4.9888176918029785 3.333421468734741 10
		endloop
	endfacet
	facet normal 0.773010276092385 -0.6343935001681328 0
		outer loop
			vertex -4.9888176918029785 3.333421468734741 4
			vertex -4.242640495300293 4.242640495300293 4
			vertex -4.242640495300293 4.242640495300293 10
		endloop
	endfacet
	facet normal 0.6343935001681328 -0.773010276092385 0
		outer loop
			vertex -4.242640495300293 4.242640495300293 4
			vertex -3.333421468734741 4.9888176918029785 10
			vertex -4.242640495300293 4.242640495300293 10
		endloop
	endfacet
	facet normal 0.6343935001681328 -0.773010276092385 0
		outer loop
			vertex -4.242640495300293 4.242640495300293 4
			vertex -3.333421468734741 4.9888176918029785 4
			vertex -3.333421468734741 4.9888176918029785 10
		endloop
	endfacet
	facet normal 0.4713967531863405 -0.8819212556035696 0
		outer loop
			vertex -3.333421468734741 4.9888176918029785 4
			vertex -2.296100616455078 5.543277263641357 4
			vertex -2.296100616455078 5.543277263641357 10
		endloop
	endfacet
	facet normal 0.29028465359725186 -0.9569403429085449 0
		outer loop
			vertex -2.296100616455078 5.543277263641357 4
			vertex -1.1705418825149536 5.884711742401123 4
			vertex -1.1705418825149536 5.884711742401123 10
		endloop
	endfacet
	facet normal 0.09801709393545507 -0.9951847312416165 0
		outer loop
			vertex -1.1705418825149536 5.884711742401123 4
			vertex 0 6 4
			vertex 0 6 10
		endloop
	endfacet
	facet normal 0.4713967531863405 -0.8819212556035696 0
		outer loop
			vertex -3.333421468734741 4.9888176918029785 4
			vertex -2.296100616455078 5.543277263641357 10
			vertex -3.333421468734741 4.9888176918029785 10
		endloop
	endfacet
	facet normal 0.29028465359725186 -0.9569403429085449 0
		outer loop
			vertex -2.296100616455078 5.543277263641357 4
			vertex -1.1705418825149536 5.884711742401123 10
			vertex -2.296100616455078 5.543277263641357 10
		endloop
	endfacet
	facet normal 0.09801709393545507 -0.9951847312416165 0
		outer loop
			vertex -1.1705418825149536 5.884711742401123 4
			vertex 0 6 10
			vertex -1.1705418825149536 5.884711742401123 10
		endloop
	endfacet
	facet normal 0 0 1
		outer loop
			vertex 0 -6 4
			vertex 1.1705418825149536 -5.884711742401123 4
			vertex 1.1705418825149536 5.884711742401123 4
		endloop
	endfacet
	facet normal 0 0 1
		outer loop
			vertex 1.1705418825149536 -5.884711742401123 4
			vertex 2.296100616455078 -5.543277263641357 4
			vertex 2.296100616455078 5.543277263641357 4
		endloop
	endfacet
	facet normal 0 0 1
		outer loop
			vertex 2.296100616455078 -5.543277263641357 4
			vertex 3.333421468734741 -4.9888176918029785 4
			vertex 3.333421468734741 4.9888176918029785 4
		endloop
	endfacet
	facet normal 0 0 1
		outer loop
			vertex 3.333421468734741 -4.9888176918029785 4
			vertex 4.242640495300293 -4.242640495300293 4
			vertex 4.242640495300293 4.242640495300293 4
		endloop
	endfacet
	facet normal 0 0 1
		outer loop
			vertex 4.242640495300293 -4.242640495300293 4
			vertex 4.9888176918029785 -3.333421468734741 4
			vertex 4.9888176918029785 3.333421468734741 4
		endloop
	endfacet
	facet normal 0 0 1
		outer loop
			vertex 4.9888176918029785 -3.333421468734741 4
			vertex 5.543277263641357 -2.296100616455078 4
			vertex 5.543277263641357 2.296100616455078 4
		endloop
	endfacet
	facet normal 0 0 1
		outer loop
			vertex 5.543277263641357 -2.296100616455078 4
			vertex 5.884711742401123 -1.1705418825149536 4
			vertex 5.884711742401123 1.1705418825149536 4
		endloop
	endfacet
	facet normal -0.09801709393545507 0.9951847312416165 0
		outer loop
			vertex 0 -6 4
			vertex 0 -6 10
			vertex 1.1705418825149536 -5.884711742401123 4
		endloop
	endfacet
	facet normal -0.29028465359725186 0.9569403429085449 0
		outer loop
			vertex 1.1705418825149536 -5.884711742401123 4
			vertex 1.1705418825149536 -5.884711742401123 10
			vertex 2.296100616455078 -5.543277263641357 4
		endloop
	endfacet
	facet normal -0.4713967531863405 0.8819212556035696 0
		outer loop
			vertex 2.296100616455078 -5.543277263641357 4
			vertex 2.296100616455078 -5.543277263641357 10
			vertex 3.333421468734741 -4.9888176918029785 4
		endloop
	endfacet
	facet normal -0.6343935001681328 0.773010276092385 0
		outer loop
			vertex 3.333421468734741 -4.9888176918029785 4
			vertex 3.333421468734741 -4.9888176918029785 10
			vertex 4.242640495300293 -4.242640495300293 4
		endloop
	endfacet
	facet normal -0.09801709393545507 0.9951847312416165 0
		outer loop
			vertex 1.1705418825149536 -5.884711742401123 4
			vertex 0 -6 10
			vertex 1.1705418825149536 -5.884711742401123 10
		endloop
	endfacet
	facet normal -0.29028465359725186 0.9569403429085449 0
		outer loop
			vertex 2.296100616455078 -5.543277263641357 4
			vertex 1.1705418825149536 -5.884711742401123 10
			vertex 2.296100616455078 -5.543277263641357 10
		endloop
	endfacet
	facet normal -0.4713967531863405 0.8819212556035696 0
		outer loop
			vertex 3.333421468734741 -4.9888176918029785 4
			vertex 2.296100616455078 -5.543277263641357 10
			vertex 3.333421468734741 -4.9888176918029785 10
		endloop
	endfacet
	facet normal -0.773010276092385 0.6343935001681328 0
		outer loop
			vertex 4.242640495300293 -4.242640495300293 4
			vertex 4.242640495300293 -4.242640495300293 10
			vertex 4.9888176918029785 -3.333421468734741 4
		endloop
	endfacet
	facet normal -0.6343935001681328 0.773010276092385 0
		outer loop
			vertex 4.242640495300293 -4.242640495300293 4
			vertex 3.333421468734741 -4.9888176918029785 10
			vertex 4.242640495300293 -4.242640495300293 10
		endloop
	endfacet
	facet normal -0.8819212556035696 0.4713967531863405 0
		outer loop
			vertex 4.9888176918029785 -3.333421468734741 4
			vertex 4.9888176918029785 -3.333421468734741 10
			vertex 5.543277263641357 -2.296100616455078 4
		endloop
	endfacet
	facet normal -0.9569403429085449 0.29028465359725186 0
		outer loop
			vertex 5.543277263641357 -2.296100616455078 4
			vertex 5.543277263641357 -2.296100616455078 10
			vertex 5.884711742401123 -1.1705418825149536 4
		endloop
	endfacet
	facet normal -0.9951847312416165 0.09801709393545507 0
		outer loop
			vertex 5.884711742401123 -1.1705418825149536 4
			vertex 5.884711742401123 -1.1705418825149536 10
			vertex 6 0 4
		endloop
	endfacet
	facet normal -0.773010276092385 0.6343935001681328 0
		outer loop
			vertex 4.9888176918029785 -3.333421468734741 4
			vertex 4.242640495300293 -4.242640495300293 10
			vertex 4.9888176918029785 -3.333421468734741 10
		endloop
	endfacet
	facet normal -0.8819212556035696 0.4713967531863405 0
		outer loop
			vertex 5.543277263641357 -2.296100616455078 4
			vertex 4.9888176918029785 -3.333421468734741 10
			vertex 5.543277263641357 -2.296100616455078 10
		endloop
	endfacet
	facet normal -0.9569403429085449 0.29028465359725186 0
		outer loop
			vertex 5.884711742401123 -1.1705418825149536 4
			vertex 5.543277263641357 -2.296100616455078 10
			vertex 5.884711742401123 -1.1705418825149536 10
		endloop
	endfacet
	facet normal -0.9951847312416165 0.09801709393545507 0
		outer loop
			vertex 6 0 4
			vertex 5.884711742401123 -1.1705418825149536 10
			vertex 6 0 10
		endloop
	endfacet
	facet normal 0 0 1
		outer loop
			vertex 1.1705418825149536 -5.884711742401123 4
			vertex 2.296100616455078 5.543277263641357 4
			vertex 1.1705418825149536 5.884711742401123 4
		endloop
	endfacet
	facet normal 0 0 1
		outer loop
			vertex 0 -6 4
			vertex 1.1705418825149536 5.884711742401123 4
			vertex 0 6 4
		endloop
	endfacet
	facet normal 0 0 1
		outer loop
			vertex 2.296100616455078 -5.543277263641357 4
			vertex 3.333421468734741 4.9888176918029785 4
			vertex 2.296100616455078 5.543277263641357 4
		endloop
	endfacet
	facet normal 0 0 1
		outer loop
			vertex 3.333421468734741 -4.9888176918029785 4
			vertex 4.242640495300293 4.242640495300293 4
			vertex 3.333421468734741 4.9888176918029785 4
		endloop
	endfacet
	facet normal 0 0 1
		outer loop
			vertex 4.242640495300293 -4.242640495300293 4
			vertex 4.9888176918029785 3.333421468734741 4
			vertex 4.242640495300293 4.242640495300293 4
		endloop
	endfacet
	facet normal 0 0 1
		outer loop
			vertex 4.9888176918029785 -3.333421468734741 4
			vertex 5.543277263641357 2.296100616455078 4
			vertex 4.9888176918029785 3.333421468734741 4
		endloop
	endfacet
	facet normal 0 0 1
		outer loop
			vertex 5.543277263641357 -2.296100616455078 4
			vertex 5.884711742401123 1.1705418825149536 4
			vertex 5.543277263641357 2.296100616455078 4
		endloop
	endfacet
	facet normal 0 0 1
		outer loop
			vertex 5.884711742401123 -1.1705418825149536 4
			vertex 6 0 4
			vertex 5.884711742401123 1.1705418825149536 4
		endloop
	endfacet
	facet normal -0.09801709393545507 -0.9951847312416165 0
		outer loop
			vertex 0 6 4
			vertex 1.1705418825149536 5.884711742401123 4
			vertex 1.1705418825149536 5.884711742401123 10
		endloop
	endfacet
	facet normal -0.4713967531863405 -0.8819212556035696 0
		outer loop
			vertex 2.296100616455078 5.543277263641357 4
			vertex 3.333421468734741 4.9888176918029785 4
			vertex 3.333421468734741 4.9888176918029785 10
		endloop
	endfacet
	facet normal -0.29028465359725186 -0.9569403429085449 0
		outer loop
			vertex 1.1705418825149536 5.884711742401123 4
			vertex 2.296100616455078 5.543277263641357 4
			vertex 2.296100616455078 5.543277263641357 10
		endloop
	endfacet
	facet normal -0.09801709393545507 -0.9951847312416165 0
		outer loop
			vertex 0 6 4
			vertex 1.1705418825149536 5.884711742401123 10
			vertex 0 6 10
		endloop
	endfacet
	facet normal -0.29028465359725186 -0.9569403429085449 0
		outer loop
			vertex 1.1705418825149536 5.884711742401123 4
			vertex 2.296100616455078 5.543277263641357 10
			vertex 1.1705418825149536 5.884711742401123 10
		endloop
	endfacet
	facet normal -0.4713967531863405 -0.8819212556035696 0
		outer loop
			vertex 2.296100616455078 5.543277263641357 4
			vertex 3.333421468734741 4.9888176918029785 10
			vertex 2.296100616455078 5.543277263641357 10
		endloop
	endfacet
	facet normal -0.6343935001681328 -0.773010276092385 0
		outer loop
			vertex 3.333421468734741 4.9888176918029785 4
			vertex 4.242640495300293 4.242640495300293 10
			vertex 3.333421468734741 4.9888176918029785 10
		endloop
	endfacet
	facet normal -0.8819212556035696 -0.4713967531863405 0
		outer loop
			vertex 5.543277263641357 2.296100616455078 4
			vertex 5.543277263641357 2.296100616455078 10
			vertex 4.9888176918029785 3.333421468734741 4
		endloop
	endfacet
	facet normal -0.773010276092385 -0.6343935001681328 0
		outer loop
			vertex 4.242640495300293 4.242640495300293 4
			vertex 4.9888176918029785 3.333421468734741 4
			vertex 4.9888176918029785 3.333421468734741 10
		endloop
	endfacet
	facet normal -0.9951847312416165 -0.09801709393545507 0
		outer loop
			vertex 6 0 4
			vertex 6 0 10
			vertex 5.884711742401123 1.1705418825149536 4
		endloop
	endfacet
	facet normal -0.9569403429085449 -0.29028465359725186 0
		outer loop
			vertex 5.884711742401123 1.1705418825149536 4
			vertex 5.884711742401123 1.1705418825149536 10
			vertex 5.543277263641357 2.296100616455078 4
		endloop
	endfacet
	facet normal -0.8819212556035696 -0.4713967531863405 0
		outer loop
			vertex 4.9888176918029785 3.333421468734741 4
			vertex 5.543277263641357 2.296100616455078 10
			vertex 4.9888176918029785 3.333421468734741 10
		endloop
	endfacet
	facet normal -0.9951847312416165 -0.09801709393545507 0
		outer loop
			vertex 5.884711742401123 1.1705418825149536 4
			vertex 6 0 10
			vertex 5.884711742401123 1.1705418825149536 10
		endloop
	endfacet
	facet normal -0.9569403429085449 -0.29028465359725186 0
		outer loop
			vertex 5.543277263641357 2.296100616455078 4
			vertex 5.884711742401123 1.1705418825149536 10
			vertex 5.543277263641357 2.296100616455078 10
		endloop
	endfacet
	facet normal -0.6343935001681328 -0.773010276092385 0
		outer loop
			vertex 4.242640495300293 4.242640495300293 4
			vertex 4.242640495300293 4.242640495300293 10
			vertex 3.333421468734741 4.9888176918029785 4
		endloop
	endfacet
	facet normal -0.773010276092385 -0.6343935001681328 0
		outer loop
			vertex 4.242640495300293 4.242640495300293 4
			vertex 4.9888176918029785 3.333421468734741 10
			vertex 4.242640495300293 4.242640495300293 10
		endloop
	endfacet
endsolid exported
