o 
usemtl topology-genus2-two-bores-material
v -25 -8 -8
v -20 -3.325878381729126 -2.222280979156494
v -20 -2.222280979156494 -3.325878381729126
v -20 -2.8284270763397217 -2.8284270763397217
v -20 -3.6955180168151855 -1.5307337045669556
v -20 -3.9231410026550293 -0.7803612947463989
v -20 -1.5307337045669556 -3.6955180168151855
v -20 -0.7803612947463989 -3.9231410026550293
v -25 -8 8
v -20 -4 0
v -20 -3.9231410026550293 0.7803612947463989
v -20 -3.6955180168151855 1.5307337045669556
v -20 -3.325878381729126 2.222280979156494
v -20 -2.8284270763397217 2.8284270763397217
v -20 -2.222280979156494 3.325878381729126
v -20 -1.5307337045669556 3.6955180168151855
v -20 -0.7803612947463989 3.9231410026550293
v -20 0 -4
v -20 0.7803612947463989 -3.9231410026550293
v -20 1.5307337045669556 -3.6955180168151855
v -20 2.222280979156494 -3.325878381729126
v -20 2.8284270763397217 -2.8284270763397217
v -20 3.325878381729126 -2.222280979156494
v -20 3.6955180168151855 -1.5307337045669556
v -20 3.9231410026550293 -0.7803612947463989
v -25 8 -8
v -20 0.7803612947463989 3.9231410026550293
v -20 1.5307337045669556 3.6955180168151855
v -20 3.9231410026550293 0.7803612947463989
v -20 3.6955180168151855 1.5307337045669556
v -20 2.8284270763397217 2.8284270763397217
v -20 2.222280979156494 3.325878381729126
v -20 3.325878381729126 2.222280979156494
v -20 0 4
v -20 4 0
v -25 8 8
v 0 -3.325878381729126 -2.222280979156494
v 0 -2.222280979156494 -3.325878381729126
v 0 -2.8284270763397217 -2.8284270763397217
v 0 -3.6955180168151855 -1.5307337045669556
v 0 -3.9231410026550293 -0.7803612947463989
v 0 -1.5307337045669556 -3.6955180168151855
v 0 -0.7803612947463989 -3.9231410026550293
v 25 -8 -8
v 20 -3.325878381729126 -2.222280979156494
v 20 -2.222280979156494 -3.325878381729126
v 20 -2.8284270763397217 -2.8284270763397217
v 20 -3.6955180168151855 -1.5307337045669556
v 20 -3.9231410026550293 -0.7803612947463989
v 20 -1.5307337045669556 -3.6955180168151855
v 20 -0.7803612947463989 -3.9231410026550293
v 0 -4 0
v 0 -3.9231410026550293 0.7803612947463989
v 0 -3.6955180168151855 1.5307337045669556
v 0 -3.325878381729126 2.222280979156494
v 0 -2.8284270763397217 2.8284270763397217
v 0 -2.222280979156494 3.325878381729126
v 0 -1.5307337045669556 3.6955180168151855
v 0 -0.7803612947463989 3.9231410026550293
v 25 -8 8
v 20 -4 0
v 20 -3.9231410026550293 0.7803612947463989
v 20 -3.6955180168151855 1.5307337045669556
v 20 -3.325878381729126 2.222280979156494
v 20 -2.8284270763397217 2.8284270763397217
v 20 -2.222280979156494 3.325878381729126
v 20 -1.5307337045669556 3.6955180168151855
v 20 -0.7803612947463989 3.9231410026550293
v 0 0 -4
v 0 0.7803612947463989 -3.9231410026550293
v 0 1.5307337045669556 -3.6955180168151855
v 0 2.222280979156494 -3.325878381729126
v 0 2.8284270763397217 -2.8284270763397217
v 0 3.325878381729126 -2.222280979156494
v 0 3.6955180168151855 -1.5307337045669556
v 0 3.9231410026550293 -0.7803612947463989
v 20 0 -4
v 20 0.7803612947463989 -3.9231410026550293
v 20 1.5307337045669556 -3.6955180168151855
v 20 2.222280979156494 -3.325878381729126
v 20 2.8284270763397217 -2.8284270763397217
v 20 3.325878381729126 -2.222280979156494
v 20 3.6955180168151855 -1.5307337045669556
v 20 3.9231410026550293 -0.7803612947463989
v 25 8 -8
v 0 0.7803612947463989 3.9231410026550293
v 0 1.5307337045669556 3.6955180168151855
v 0 3.9231410026550293 0.7803612947463989
v 0 3.6955180168151855 1.5307337045669556
v 0 2.8284270763397217 2.8284270763397217
v 0 2.222280979156494 3.325878381729126
v 0 3.325878381729126 2.222280979156494
v 0 0 4
v 0 4 0
v 20 0.7803612947463989 3.9231410026550293
v 20 1.5307337045669556 3.6955180168151855
v 20 3.9231410026550293 0.7803612947463989
v 20 3.6955180168151855 1.5307337045669556
v 20 2.8284270763397217 2.8284270763397217
v 20 2.222280979156494 3.325878381729126
v 20 3.325878381729126 2.222280979156494
v 20 0 4
v 20 4 0
v 25 8 8
vn -0.41229444377171753 -0.6442100944703405 -0.6442100944703405
vn 0.24932169078320432 0.822432956817563 0.5113147035293671
vn 0.10582312918731848 0.5792828785802597 0.8082281929707551
vn 0.17758843063649632 0.7183258436773696 0.6726591496510409
vn 0.30967420992730077 0.8899307438675261 0.3348509441905364
vn 0.3509308362233655 0.9239084627053926 0.1524490102589305
vn 0.046564179794759464 0.41234462913831926 0.9098371744333286
vn 0.01014341255375697 0.2271559300389033 0.9738055733204266
vn -0.14166506024654862 -0.8854065781121536 0.4427032890560768
vn 0.3691655324302847 0.9288632089714967 -0.03049506000384388
vn 0.3630546362394811 0.9074074107375851 -0.21166747989128945
vn 0.33301185953838863 0.8588376484535895 -0.38923128729008055
vn 0.281500608552946 0.7799236201227484 -0.5589960233838412
vn 0.21423543511870485 0.6676538437716355 -0.712980731322004
vn 0.1409125773297266 0.5227199190132638 -0.8407779325226495
vn 0.07389805653309606 0.35119939740889927 -0.9333799122009522
vn 0.02501137701274924 0.16275213400898958 -0.9863499246694583
vn 0.0025605787109807313 0.03281273267356733 0.9994582372521414
vn 0.02501137701274924 -0.16275213400898958 0.9863499246694583
vn 0.07389805653309606 -0.35119939740889927 0.9333799122009522
vn 0.1409125773297266 -0.5227199190132638 0.8407779325226495
vn 0.21423543511870485 -0.6676538437716355 0.712980731322004
vn 0.281500608552946 -0.7799236201227484 0.5589960233838412
vn 0.33301185953838863 -0.8588376484535895 0.38923128729008055
vn 0.3630546621135988 -0.9074074009195534 0.2116674776010745
vn -0.11241989193751699 0.7026242836312866 -0.7026242836312866
vn 0.01014341255375697 -0.2271559300389033 -0.9738055733204266
vn 0.046564179794759464 -0.41234462913831926 -0.9098371744333286
vn 0.3509308100912721 -0.9239084723681388 -0.15244901185332665
vn 0.30967420992730077 -0.8899307438675261 -0.3348509441905364
vn 0.17758843063649632 -0.7183258436773696 -0.6726591496510409
vn 0.10582312182017348 -0.5792828790369916 -0.8082281936079976
vn 0.24932169078320432 -0.822432956817563 -0.5113147035293671
vn 0.0025605787109807313 -0.03281273267356733 -0.9994582372521414
vn 0.3691655324302847 -0.9288632089714967 0.03049506000384388
vn -0.27516768072350783 0.42994947319080307 0.8598989463816061
vn 0 0.8314696475898097 0.5555701802084753
vn 0 0.555570248949409 0.8314696016585884
vn 0 0.7071067811865476 0.7071067811865476
vn 0 0.9238795392949354 0.3826834159879129
vn 0 0.9807852646956361 0.1950904009835211
vn 0 0.38268336511216505 0.9238795603683574
vn 0 0.1950904009835211 0.9807852646956361
vn 0.11241989193751699 -0.7026242836312866 -0.7026242836312866
vn -0.2493217000687995 0.7871246963182333 0.5641572496394356
vn -0.10582312203973594 0.5250235203639579 0.8444831377276871
vn -0.17758843063649632 0.6726591496510409 0.7183258436773696
vn -0.30967421071732865 0.8660514559462379 0.39250064824150455
vn -0.3509308480902892 0.9119197942276858 0.2127200713481589
vn -0.046564179700976316 0.35178026025892 0.9349237539291329
vn -0.010143412022530414 0.16279469021876225 0.9866078248367577
vn 0 1 0
vn 0 0.9807852675468509 -0.19509038664950176
vn 0 0.9238795603683574 -0.38268336511216505
vn 0 0.8314696016585884 -0.555570248949409
vn 0 0.7071067811865476 -0.7071067811865476
vn 0 0.5555701802084753 -0.8314696475898097
vn 0 0.3826833905500394 -0.9238795498316468
vn 0 0.1950904009835211 -0.9807852646956361
vn 0.27516768072350783 -0.42994947319080307 0.8598989463816061
vn -0.3691655324302847 0.9288632089714967 0.03049506000384388
vn -0.3630546386484074 0.9193367501493498 -0.15169465771973123
vn -0.33301185993870763 0.8825180380097721 -0.332061761917185
vn -0.28150060604420013 0.81490885723679 -0.5066369145589146
vn -0.21423543511870485 0.712980731322004 -0.6676538437716355
vn -0.14091258016320937 0.5767411698220626 -0.8046820911291775
vn -0.07389804714975848 0.41166368093986744 -0.9083347909347583
vn -0.02501137707993053 0.22709653972725172 -0.9735510221146473
vn 0 0 1
vn 0 -0.19509038664950176 0.9807852675468509
vn 0 -0.3826833905500394 0.9238795498316468
vn 0 -0.555570248949409 0.8314696016585884
vn 0 -0.7071067811865476 0.7071067811865476
vn 0 -0.8314696016585884 0.555570248949409
vn 0 -0.9238795603683574 0.38268336511216505
vn 0 -0.9807852646956361 0.1950904009835211
vn -0.0025605787109807313 -0.03281273267356733 0.9994582372521414
vn -0.02501137707993053 -0.22709653972725172 0.9735510221146473
vn -0.07389804533651703 -0.4116637304434908 0.9083347686468854
vn -0.14091257531913465 -0.5767412096003905 0.8046820634670612
vn -0.21423543511870485 -0.712980731322004 0.6676538437716355
vn -0.28150060604420013 -0.81490885723679 0.5066369145589146
vn -0.33301185993870763 -0.8825180380097721 0.332061761917185
vn -0.36305466452252527 -0.9193367402022439 0.15169465607841445
vn 0.41229444377171753 0.6442100944703405 -0.6442100944703405
vn 0 -0.19509038664950176 -0.9807852675468509
vn 0 -0.38268336511216505 -0.9238795603683574
vn 0 -0.9807852675468509 -0.19509038664950176
vn 0 -0.9238795498316468 -0.3826833905500394
vn 0 -0.7071067811865476 -0.7071067811865476
vn 0 -0.555570248949409 -0.8314696016585884
vn 0 -0.8314696016585884 -0.555570248949409
vn 0 0 -1
vn 0 -1 0
vn -0.010143412022530414 -0.16279469021876225 -0.9866078248367577
vn -0.046564179700976316 -0.35178026025892 -0.9349237539291329
vn -0.3509308028834713 -0.9119198138026055 -0.21272006201057705
vn -0.3096741714097888 -0.8660514889680824 -0.39250060639166934
vn -0.17758843063649632 -0.6726591496510409 -0.7183258436773696
vn -0.10582311467259091 -0.5250235207779095 -0.8444831383935146
vn -0.2493216777101249 -0.787124672774381 -0.5641572923694527
vn -0.0025605787109807313 0.03281273267356733 -0.9994582372521414
vn -0.3691655324302847 -0.9288632089714967 -0.03049506000384388
vn 0.14166506024654862 0.8854065781121536 0.4427032890560768
f 2//2 4//4 22//22
f 7//7 8//8 19//19
f 3//3 7//7 20//20
f 3//3 21//21 4//4
f 2//2 23//23 5//5
f 5//5 24//24 6//6
f 6//6 25//25 10//10
f 2//2 37//37 4//4
f 3//3 4//4 39//39
f 2//2 5//5 40//40
f 5//5 6//6 41//41
f 6//6 10//10 52//52
f 3//3 38//38 7//7
f 7//7 42//42 8//8
f 8//8 43//43 18//18
f 3//3 39//39 38//38
f 4//4 37//37 39//39
f 5//5 41//41 40//40
f 2//2 40//40 37//37
f 6//6 52//52 41//41
f 7//7 38//38 42//42
f 8//8 42//42 43//43
f 18//18 43//43 69//69
f 10//10 35//35 11//11
f 11//11 29//29 12//12
f 12//12 30//30 13//13
f 13//13 33//33 14//14
f 14//14 31//31 15//15
f 15//15 32//32 16//16
f 16//16 28//28 17//17
f 10//10 11//11 53//53
f 11//11 12//12 54//54
f 12//12 13//13 55//55
f 13//13 14//14 56//56
f 14//14 15//15 57//57
f 15//15 16//16 58//58
f 16//16 17//17 59//59
f 17//17 34//34 93//93
f 10//10 53//53 52//52
f 11//11 54//54 53//53
f 12//12 55//55 54//54
f 13//13 56//56 55//55
f 14//14 57//57 56//56
f 15//15 58//58 57//57
f 16//16 59//59 58//58
f 17//17 93//93 59//59
f 8//8 18//18 19//19
f 7//7 19//19 20//20
f 3//3 20//20 21//21
f 4//4 21//21 22//22
f 2//2 22//22 23//23
f 5//5 23//23 24//24
f 6//6 24//24 25//25
f 10//10 25//25 35//35
f 18//18 69//69 19//19
f 19//19 70//70 20//20
f 20//20 71//71 21//21
f 21//21 72//72 22//22
f 22//22 73//73 23//23
f 23//23 74//74 24//24
f 24//24 75//75 25//25
f 25//25 76//76 35//35
f 19//19 69//69 70//70
f 20//20 70//70 71//71
f 21//21 71//71 72//72
f 22//22 72//72 73//73
f 23//23 73//73 74//74
f 24//24 74//74 75//75
f 25//25 75//75 76//76
f 35//35 76//76 94//94
f 11//11 35//35 29//29
f 12//12 29//29 30//30
f 13//13 30//30 33//33
f 17//17 27//27 34//34
f 15//15 31//31 32//32
f 16//16 32//32 28//28
f 17//17 28//28 27//27
f 14//14 33//33 31//31
f 27//27 86//86 34//34
f 27//27 28//28 87//87
f 28//28 32//32 91//91
f 29//29 35//35 94//94
f 29//29 88//88 30//30
f 30//30 89//89 33//33
f 31//31 90//90 32//32
f 31//31 33//33 92//92
f 34//34 86//86 93//93
f 27//27 87//87 86//86
f 28//28 91//91 87//87
f 29//29 94//94 88//88
f 33//33 89//89 92//92
f 30//30 88//88 89//89
f 31//31 92//92 90//90
f 32//32 90//90 91//91
f 45//45 39//39 37//37
f 47//47 38//38 39//39
f 48//48 37//37 40//40
f 49//49 40//40 41//41
f 61//61 41//41 52//52
f 46//46 42//42 38//38
f 50//50 43//43 42//42
f 51//51 69//69 43//43
f 47//47 46//46 38//38
f 45//45 47//47 39//39
f 49//49 48//48 40//40
f 48//48 45//45 37//37
f 61//61 49//49 41//41
f 46//46 50//50 42//42
f 50//50 51//51 43//43
f 51//51 77//77 69//69
f 45//45 81//81 47//47
f 50//50 78//78 51//51
f 46//46 79//79 50//50
f 47//47 80//80 46//46
f 48//48 82//82 45//45
f 49//49 83//83 48//48
f 61//61 84//84 49//49
f 62//62 52//52 53//53
f 63//63 53//53 54//54
f 64//64 54//54 55//55
f 65//65 55//55 56//56
f 66//66 56//56 57//57
f 67//67 57//57 58//58
f 68//68 58//58 59//59
f 102//102 59//59 93//93
f 62//62 61//61 52//52
f 63//63 62//62 53//53
f 64//64 63//63 54//54
f 64//64 55//55 65//65
f 66//66 65//65 56//56
f 66//66 57//57 67//67
f 67//67 58//58 68//68
f 68//68 59//59 102//102
f 62//62 103//103 61//61
f 63//63 97//97 62//62
f 64//64 98//98 63//63
f 64//64 65//65 101//101
f 66//66 99//99 65//65
f 66//66 67//67 100//100
f 67//67 68//68 96//96
f 77//77 70//70 69//69
f 78//78 71//71 70//70
f 79//79 72//72 71//71
f 80//80 73//73 72//72
f 81//81 74//74 73//73
f 82//82 75//75 74//74
f 83//83 76//76 75//75
f 84//84 94//94 76//76
f 77//77 78//78 70//70
f 78//78 79//79 71//71
f 79//79 80//80 72//72
f 81//81 73//73 80//80
f 81//81 82//82 74//74
f 83//83 75//75 82//82
f 84//84 76//76 83//83
f 103//103 94//94 84//84
f 51//51 78//78 77//77
f 50//50 79//79 78//78
f 46//46 80//80 79//79
f 47//47 81//81 80//80
f 45//45 82//82 81//81
f 48//48 83//83 82//82
f 49//49 84//84 83//83
f 61//61 103//103 84//84
f 95//95 93//93 86//86
f 96//96 86//86 87//87
f 100//100 87//87 91//91
f 103//103 88//88 94//94
f 97//97 89//89 88//88
f 98//98 92//92 89//89
f 99//99 91//91 90//90
f 101//101 90//90 92//92
f 102//102 93//93 95//95
f 95//95 86//86 96//96
f 96//96 87//87 100//100
f 97//97 88//88 103//103
f 101//101 92//92 98//98
f 98//98 89//89 97//97
f 99//99 90//90 101//101
f 100//100 91//91 99//99
f 62//62 97//97 103//103
f 63//63 98//98 97//97
f 64//64 101//101 98//98
f 68//68 102//102 95//95
f 66//66 100//100 99//99
f 67//67 96//96 100//100
f 68//68 95//95 96//96
f 65//65 99//99 101//101
f 1//1 44//44 9//9
f 1//1 26//26 44//44
f 1//1 9//9 36//36
f 9//9 60//60 36//36
f 1//1 36//36 26//26
f 26//26 36//36 104//104
f 44//44 85//85 60//60
f 9//9 44//44 60//60
f 26//26 85//85 44//44
f 26//26 104//104 85//85
f 36//36 60//60 104//104
f 60//60 85//85 104//104
