solid exported
	facet normal 1 0 0
		outer loop
			vertex -20 -3.325878381729126 -2.222280979156494
			vertex -20 -2.8284270763397217 -2.8284270763397217
			vertex -20 2.8284270763397217 -2.8284270763397217
		endloop
	endfacet
	facet normal 1 0 0
		outer loop
			vertex -20 -1.5307337045669556 -3.6955180168151855
			vertex -20 -0.7803612947463989 -3.9231410026550293
			vertex -20 0.7803612947463989 -3.9231410026550293
		endloop
	endfacet
	facet normal 1 0 0
		outer loop
			vertex -20 -2.222280979156494 -3.325878381729126
			vertex -20 -1.5307337045669556 -3.6955180168151855
			vertex -20 1.5307337045669556 -3.6955180168151855
		endloop
	endfacet
	facet normal 1 0 0
		outer loop
			vertex -20 -2.222280979156494 -3.325878381729126
			vertex -20 2.222280979156494 -3.325878381729126
			vertex -20 -2.8284270763397217 -2.8284270763397217
		endloop
	endfacet
	facet normal 1 0 0
		outer loop
			vertex -20 -3.325878381729126 -2.222280979156494
			vertex -20 3.325878381729126 -2.222280979156494
			vertex -20 -3.6955180168151855 -1.5307337045669556
		endloop
	endfacet
	facet normal 1 0 0
		outer loop
			vertex -20 -3.6955180168151855 -1.5307337045669556
			vertex -20 3.6955180168151855 -1.5307337045669556
			vertex -20 -3.9231410026550293 -0.7803612947463989
		endloop
	endfacet
	facet normal 1 0 0
		outer loop
			vertex -20 -3.9231410026550293 -0.7803612947463989
			vertex -20 3.9231410026550293 -0.7803612947463989
			vertex -20 -4 0
		endloop
	endfacet
	facet normal 0 0.7730104162847985 0.6343933293432417
		outer loop
			vertex -20 -3.325878381729126 -2.222280979156494
			vertex 0 -3.325878381729126 -2.222280979156494
			vertex -20 -2.8284270763397217 -2.8284270763397217
		endloop
	endfacet
	facet normal 0 0.6343933293432417 0.7730104162847985
		outer loop
			vertex -20 -2.222280979156494 -3.325878381729126
			vertex -20 -2.8284270763397217 -2.8284270763397217
			vertex 0 -2.8284270763397217 -2.8284270763397217
		endloop
	endfacet
	facet normal 0 0.8819213089994024 0.47139665328975405
		outer loop
			vertex -20 -3.325878381729126 -2.222280979156494
			vertex -20 -3.6955180168151855 -1.5307337045669556
			vertex 0 -3.6955180168151855 -1.5307337045669556
		endloop
	endfacet
	facet normal 0 0.9569403343682077 0.29028468175097155
		outer loop
			vertex -20 -3.6955180168151855 -1.5307337045669556
			vertex -20 -3.9231410026550293 -0.7803612947463989
			vertex 0 -3.9231410026550293 -0.7803612947463989
		endloop
	endfacet
	facet normal 0 0.9951847119559188 0.09801728974632538
		outer loop
			vertex -20 -3.9231410026550293 -0.7803612947463989
			vertex -20 -4 0
			vertex 0 -4 0
		endloop
	endfacet
	facet normal 0 0.47139665328975405 0.8819213089994024
		outer loop
			vertex -20 -2.222280979156494 -3.325878381729126
			vertex 0 -2.222280979156494 -3.325878381729126
			vertex -20 -1.5307337045669556 -3.6955180168151855
		endloop
	endfacet
	facet normal 0 0.29028468175097155 0.9569403343682077
		outer loop
			vertex -20 -1.5307337045669556 -3.6955180168151855
			vertex 0 -1.5307337045669556 -3.6955180168151855
			vertex -20 -0.7803612947463989 -3.9231410026550293
		endloop
	endfacet
	facet normal 0 0.09801728974632538 0.9951847119559188
		outer loop
			vertex -20 -0.7803612947463989 -3.9231410026550293
			vertex 0 -0.7803612947463989 -3.9231410026550293
			vertex -20 0 -4
		endloop
	endfacet
	facet normal 0 0.6343933293432417 0.7730104162847985
		outer loop
			vertex -20 -2.222280979156494 -3.325878381729126
			vertex 0 -2.8284270763397217 -2.8284270763397217
			vertex 0 -2.222280979156494 -3.325878381729126
		endloop
	endfacet
	facet normal 0 0.7730104162847985 0.6343933293432417
		outer loop
			vertex -20 -2.8284270763397217 -2.8284270763397217
			vertex 0 -3.325878381729126 -2.222280979156494
			vertex 0 -2.8284270763397217 -2.8284270763397217
		endloop
	endfacet
	facet normal 0 0.9569403343682077 0.29028468175097155
		outer loop
			vertex -20 -3.6955180168151855 -1.5307337045669556
			vertex 0 -3.9231410026550293 -0.7803612947463989
			vertex 0 -3.6955180168151855 -1.5307337045669556
		endloop
	endfacet
	facet normal 0 0.8819213089994024 0.47139665328975405
		outer loop
			vertex -20 -3.325878381729126 -2.222280979156494
			vertex 0 -3.6955180168151855 -1.5307337045669556
			vertex 0 -3.325878381729126 -2.222280979156494
		endloop
	endfacet
	facet normal 0 0.9951847119559188 0.09801728974632538
		outer loop
			vertex -20 -3.9231410026550293 -0.7803612947463989
			vertex 0 -4 0
			vertex 0 -3.9231410026550293 -0.7803612947463989
		endloop
	endfacet
	facet normal 0 0.47139665328975405 0.8819213089994024
		outer loop
			vertex -20 -1.5307337045669556 -3.6955180168151855
			vertex 0 -2.222280979156494 -3.325878381729126
			vertex 0 -1.5307337045669556 -3.6955180168151855
		endloop
	endfacet
	facet normal 0 0.29028468175097155 0.9569403343682077
		outer loop
			vertex -20 -0.7803612947463989 -3.9231410026550293
			vertex 0 -1.5307337045669556 -3.6955180168151855
			vertex 0 -0.7803612947463989 -3.9231410026550293
		endloop
	endfacet
	facet normal 0 0.09801728974632538 0.9951847119559188
		outer loop
			vertex -20 0 -4
			vertex 0 -0.7803612947463989 -3.9231410026550293
			vertex 0 0 -4
		endloop
	endfacet
	facet normal 1 0 0
		outer loop
			vertex -20 -4 0
			vertex -20 4 0
			vertex -20 -3.9231410026550293 0.7803612947463989
		endloop
	endfacet
	facet normal 1 0 0
		outer loop
			vertex -20 -3.9231410026550293 0.7803612947463989
			vertex -20 3.9231410026550293 0.7803612947463989
			vertex -20 -3.6955180168151855 1.5307337045669556
		endloop
	endfacet
	facet normal 1 0 0
		outer loop
			vertex -20 -3.6955180168151855 1.5307337045669556
			vertex -20 3.6955180168151855 1.5307337045669556
			vertex -20 -3.325878381729126 2.222280979156494
		endloop
	endfacet
	facet normal 1 0 0
		outer loop
			vertex -20 -3.325878381729126 2.222280979156494
			vertex -20 3.325878381729126 2.222280979156494
			vertex -20 -2.8284270763397217 2.8284270763397217
		endloop
	endfacet
	facet normal 1 0 0
		outer loop
			vertex -20 -2.8284270763397217 2.8284270763397217
			vertex -20 2.8284270763397217 2.8284270763397217
			vertex -20 -2.222280979156494 3.325878381729126
		endloop
	endfacet
	facet normal 1 0 0
		outer loop
			vertex -20 -2.222280979156494 3.325878381729126
			vertex -20 2.222280979156494 3.325878381729126
			vertex -20 -1.5307337045669556 3.6955180168151855
		endloop
	endfacet
	facet normal 1 0 0
		outer loop
			vertex -20 -1.5307337045669556 3.6955180168151855
			vertex -20 1.5307337045669556 3.6955180168151855
			vertex -20 -0.7803612947463989 3.9231410026550293
		endloop
	endfacet
	facet normal 0 0.9951847119559188 -0.09801728974632538
		outer loop
			vertex -20 -4 0
			vertex -20 -3.9231410026550293 0.7803612947463989
			vertex 0 -3.9231410026550293 0.7803612947463989
		endloop
	endfacet
	facet normal 0 0.9569403343682077 -0.29028468175097155
		outer loop
			vertex -20 -3.9231410026550293 0.7803612947463989
			vertex -20 -3.6955180168151855 1.5307337045669556
			vertex 0 -3.6955180168151855 1.5307337045669556
		endloop
	endfacet
	facet normal 0 0.8819213089994024 -0.47139665328975405
		outer loop
			vertex -20 -3.6955180168151855 1.5307337045669556
			vertex -20 -3.325878381729126 2.222280979156494
			vertex 0 -3.325878381729126 2.222280979156494
		endloop
	endfacet
	facet normal 0 0.7730104162847985 -0.6343933293432417
		outer loop
			vertex -20 -3.325878381729126 2.222280979156494
			vertex -20 -2.8284270763397217 2.8284270763397217
			vertex 0 -2.8284270763397217 2.8284270763397217
		endloop
	endfacet
	facet normal 0 0.6343933293432417 -0.7730104162847985
		outer loop
			vertex -20 -2.8284270763397217 2.8284270763397217
			vertex -20 -2.222280979156494 3.325878381729126
			vertex 0 -2.222280979156494 3.325878381729126
		endloop
	endfacet
	facet normal 0 0.47139665328975405 -0.8819213089994024
		outer loop
			vertex -20 -2.222280979156494 3.325878381729126
			vertex -20 -1.5307337045669556 3.6955180168151855
			vertex 0 -1.5307337045669556 3.6955180168151855
		endloop
	endfacet
	facet normal 0 0.29028468175097155 -0.9569403343682077
		outer loop
			vertex -20 -1.5307337045669556 3.6955180168151855
			vertex -20 -0.7803612947463989 3.9231410026550293
			vertex 0 -0.7803612947463989 3.9231410026550293
		endloop
	endfacet
	facet normal 0 0.09801728974632538 -0.9951847119559188
		outer loop
			vertex -20 -0.7803612947463989 3.9231410026550293
			vertex -20 0 4
			vertex 0 0 4
		endloop
	endfacet
	facet normal 0 0.9951847119559188 -0.09801728974632538
		outer loop
			vertex -20 -4 0
			vertex 0 -3.9231410026550293 0.7803612947463989
			vertex 0 -4 0
		endloop
	endfacet
	facet normal 0 0.9569403343682077 -0.29028468175097155
		outer loop
			vertex -20 -3.9231410026550293 0.7803612947463989
			vertex 0 -3.6955180168151855 1.5307337045669556
			vertex 0 -3.9231410026550293 0.7803612947463989
		endloop
	endfacet
	facet normal 0 0.8819213089994024 -0.47139665328975405
		outer loop
			vertex -20 -3.6955180168151855 1.5307337045669556
			vertex 0 -3.325878381729126 2.222280979156494
			vertex 0 -3.6955180168151855 1.5307337045669556
		endloop
	endfacet
	facet normal 0 0.7730104162847985 -0.6343933293432417
		outer loop
			vertex -20 -3.325878381729126 2.222280979156494
			vertex 0 -2.8284270763397217 2.8284270763397217
			vertex 0 -3.325878381729126 2.222280979156494
		endloop
	endfacet
	facet normal 0 0.6343933293432417 -0.7730104162847985
		outer loop
			vertex -20 -2.8284270763397217 2.8284270763397217
			vertex 0 -2.222280979156494 3.325878381729126
			vertex 0 -2.8284270763397217 2.8284270763397217
		endloop
	endfacet
	facet normal 0 0.47139665328975405 -0.8819213089994024
		outer loop
			vertex -20 -2.222280979156494 3.325878381729126
			vertex 0 -1.5307337045669556 3.6955180168151855
			vertex 0 -2.222280979156494 3.325878381729126
		endloop
	endfacet
	facet normal 0 0.29028468175097155 -0.9569403343682077
		outer loop
			vertex -20 -1.5307337045669556 3.6955180168151855
			vertex 0 -0.7803612947463989 3.9231410026550293
			vertex 0 -1.5307337045669556 3.6955180168151855
		endloop
	endfacet
	facet normal 0 0.09801728974632538 -0.9951847119559188
		outer loop
			vertex -20 -0.7803612947463989 3.9231410026550293
			vertex 0 0 4
			vertex 0 -0.7803612947463989 3.9231410026550293
		endloop
	endfacet
	facet normal 1 0 0
		outer loop
			vertex -20 -0.7803612947463989 -3.9231410026550293
			vertex -20 0 -4
			vertex -20 0.7803612947463989 -3.9231410026550293
		endloop
	endfacet
	facet normal 1 0 0
		outer loop
			vertex -20 -1.5307337045669556 -3.6955180168151855
			vertex -20 0.7803612947463989 -3.9231410026550293
			vertex -20 1.5307337045669556 -3.6955180168151855
		endloop
	endfacet
	facet normal 1 0 0
		outer loop
			vertex -20 -2.222280979156494 -3.325878381729126
			vertex -20 1.5307337045669556 -3.6955180168151855
			vertex -20 2.222280979156494 -3.325878381729126
		endloop
	endfacet
	facet normal 1 0 0
		outer loop
			vertex -20 -2.8284270763397217 -2.8284270763397217
			vertex -20 2.222280979156494 -3.325878381729126
			vertex -20 2.8284270763397217 -2.8284270763397217
		endloop
	endfacet
	facet normal 1 0 0
		outer loop
			vertex -20 -3.325878381729126 -2.222280979156494
			vertex -20 2.8284270763397217 -2.8284270763397217
			vertex -20 3.325878381729126 -2.222280979156494
		endloop
	endfacet
	facet normal 1 0 0
		outer loop
			vertex -20 -3.6955180168151855 -1.5307337045669556
			vertex -20 3.325878381729126 -2.222280979156494
			vertex -20 3.6955180168151855 -1.5307337045669556
		endloop
	endfacet
	facet normal 1 0 0
		outer loop
			vertex -20 -3.9231410026550293 -0.7803612947463989
			vertex -20 3.6955180168151855 -1.5307337045669556
			vertex -20 3.9231410026550293 -0.7803612947463989
		endloop
	endfacet
	facet normal 1 0 0
		outer loop
			vertex -20 -4 0
			vertex -20 3.9231410026550293 -0.7803612947463989
			vertex -20 4 0
		endloop
	endfacet
	facet normal 0 -0.09801728974632538 0.9951847119559188
		outer loop
			vertex -20 0 -4
			vertex 0 0 -4
			vertex -20 0.7803612947463989 -3.9231410026550293
		endloop
	endfacet
	facet normal 0 -0.29028468175097155 0.9569403343682077
		outer loop
			vertex -20 0.7803612947463989 -3.9231410026550293
			vertex 0 0.7803612947463989 -3.9231410026550293
			vertex -20 1.5307337045669556 -3.6955180168151855
		endloop
	endfacet
	facet normal 0 -0.47139665328975405 0.8819213089994024
		outer loop
			vertex -20 1.5307337045669556 -3.6955180168151855
			vertex 0 1.5307337045669556 -3.6955180168151855
			vertex -20 2.222280979156494 -3.325878381729126
		endloop
	endfacet
	facet normal 0 -0.6343933293432417 0.7730104162847985
		outer loop
			vertex -20 2.222280979156494 -3.325878381729126
			vertex 0 2.222280979156494 -3.325878381729126
			vertex -20 2.8284270763397217 -2.8284270763397217
		endloop
	endfacet
	facet normal 0 -0.7730104162847985 0.6343933293432417
		outer loop
			vertex -20 2.8284270763397217 -2.8284270763397217
			vertex 0 2.8284270763397217 -2.8284270763397217
			vertex -20 3.325878381729126 -2.222280979156494
		endloop
	endfacet
	facet normal 0 -0.8819213089994024 0.47139665328975405
		outer loop
			vertex -20 3.325878381729126 -2.222280979156494
			vertex 0 3.325878381729126 -2.222280979156494
			vertex -20 3.6955180168151855 -1.5307337045669556
		endloop
	endfacet
	facet normal 0 -0.9569403343682077 0.29028468175097155
		outer loop
			vertex -20 3.6955180168151855 -1.5307337045669556
			vertex 0 3.6955180168151855 -1.5307337045669556
			vertex -20 3.9231410026550293 -0.7803612947463989
		endloop
	endfacet
	facet normal 0 -0.9951847119559188 0.09801728974632538
		outer loop
			vertex -20 3.9231410026550293 -0.7803612947463989
			vertex 0 3.9231410026550293 -0.7803612947463989
			vertex -20 4 0
		endloop
	endfacet
	facet normal 0 -0.09801728974632538 0.9951847119559188
		outer loop
			vertex -20 0.7803612947463989 -3.9231410026550293
			vertex 0 0 -4
			vertex 0 0.7803612947463989 -3.9231410026550293
		endloop
	endfacet
	facet normal 0 -0.29028468175097155 0.9569403343682077
		outer loop
			vertex -20 1.5307337045669556 -3.6955180168151855
			vertex 0 0.7803612947463989 -3.9231410026550293
			vertex 0 1.5307337045669556 -3.6955180168151855
		endloop
	endfacet
	facet normal 0 -0.47139665328975405 0.8819213089994024
		outer loop
			vertex -20 2.222280979156494 -3.325878381729126
			vertex 0 1.5307337045669556 -3.6955180168151855
			vertex 0 2.222280979156494 -3.325878381729126
		endloop
	endfacet
	facet normal 0 -0.6343933293432417 0.7730104162847985
		outer loop
			vertex -20 2.8284270763397217 -2.8284270763397217
			vertex 0 2.222280979156494 -3.325878381729126
			vertex 0 2.8284270763397217 -2.8284270763397217
		endloop
	endfacet
	facet normal 0 -0.7730104162847985 0.6343933293432417
		outer loop
			vertex -20 3.325878381729126 -2.222280979156494
			vertex 0 2.8284270763397217 -2.8284270763397217
			vertex 0 3.325878381729126 -2.222280979156494
		endloop
	endfacet
	facet normal 0 -0.8819213089994024 0.47139665328975405
		outer loop
			vertex -20 3.6955180168151855 -1.5307337045669556
			vertex 0 3.325878381729126 -2.222280979156494
			vertex 0 3.6955180168151855 -1.5307337045669556
		endloop
	endfacet
	facet normal 0 -0.9569403343682077 0.29028468175097155
		outer loop
			vertex -20 3.9231410026550293 -0.7803612947463989
			vertex 0 3.6955180168151855 -1.5307337045669556
			vertex 0 3.9231410026550293 -0.7803612947463989
		endloop
	endfacet
	facet normal 0 -0.9951847119559188 0.09801728974632538
		outer loop
			vertex -20 4 0
			vertex 0 3.9231410026550293 -0.7803612947463989
			vertex 0 4 0
		endloop
	endfacet
	facet normal 1 0 0
		outer loop
			vertex -20 -3.9231410026550293 0.7803612947463989
			vertex -20 4 0
			vertex -20 3.9231410026550293 0.7803612947463989
		endloop
	endfacet
	facet normal 1 0 0
		outer loop
			vertex -20 -3.6955180168151855 1.5307337045669556
			vertex -20 3.9231410026550293 0.7803612947463989
			vertex -20 3.6955180168151855 1.5307337045669556
		endloop
	endfacet
	facet normal 1 0 0
		outer loop
			vertex -20 -3.325878381729126 2.222280979156494
			vertex -20 3.6955180168151855 1.5307337045669556
			vertex -20 3.325878381729126 2.222280979156494
		endloop
	endfacet
	facet normal 1 0 0
		outer loop
			vertex -20 -0.7803612947463989 3.9231410026550293
			vertex -20 0.7803612947463989 3.9231410026550293
			vertex -20 0 4
		endloop
	endfacet
	facet normal 1 0 0
		outer loop
			vertex -20 -2.222280979156494 3.325878381729126
			vertex -20 2.8284270763397217 2.8284270763397217
			vertex -20 2.222280979156494 3.325878381729126
		endloop
	endfacet
	facet normal 1 0 0
		outer loop
			vertex -20 -1.5307337045669556 3.6955180168151855
			vertex -20 2.222280979156494 3.325878381729126
			vertex -20 1.5307337045669556 3.6955180168151855
		endloop
	endfacet
	facet normal 1 0 0
		outer loop
			vertex -20 -0.7803612947463989 3.9231410026550293
			vertex -20 1.5307337045669556 3.6955180168151855
			vertex -20 0.7803612947463989 3.9231410026550293
		endloop
	endfacet
	facet normal 1 0 0
		outer loop
			vertex -20 -2.8284270763397217 2.8284270763397217
			vertex -20 3.325878381729126 2.222280979156494
			vertex -20 2.8284270763397217 2.8284270763397217
		endloop
	endfacet
	facet normal 0 -0.09801728974632538 -0.9951847119559188
		outer loop
			vertex -20 0.7803612947463989 3.9231410026550293
			vertex 0 0.7803612947463989 3.9231410026550293
			vertex -20 0 4
		endloop
	endfacet
	facet normal 0 -0.29028468175097155 -0.9569403343682077
		outer loop
			vertex -20 0.7803612947463989 3.9231410026550293
			vertex -20 1.5307337045669556 3.6955180168151855
			vertex 0 1.5307337045669556 3.6955180168151855
		endloop
	endfacet
	facet normal 0 -0.47139665328975405 -0.8819213089994024
		outer loop
			vertex -20 1.5307337045669556 3.6955180168151855
			vertex -20 2.222280979156494 3.325878381729126
			vertex 0 2.222280979156494 3.325878381729126
		endloop
	endfacet
	facet normal 0 -0.9951847119559188 -0.09801728974632538
		outer loop
			vertex -20 3.9231410026550293 0.7803612947463989
			vertex -20 4 0
			vertex 0 4 0
		endloop
	endfacet
	facet normal 0 -0.9569403343682077 -0.29028468175097155
		outer loop
			vertex -20 3.9231410026550293 0.7803612947463989
			vertex 0 3.9231410026550293 0.7803612947463989
			vertex -20 3.6955180168151855 1.5307337045669556
		endloop
	endfacet
	facet normal 0 -0.8819213089994024 -0.47139665328975405
		outer loop
			vertex -20 3.6955180168151855 1.5307337045669556
			vertex 0 3.6955180168151855 1.5307337045669556
			vertex -20 3.325878381729126 2.222280979156494
		endloop
	endfacet
	facet normal 0 -0.6343933293432417 -0.7730104162847985
		outer loop
			vertex -20 2.8284270763397217 2.8284270763397217
			vertex 0 2.8284270763397217 2.8284270763397217
			vertex -20 2.222280979156494 3.325878381729126
		endloop
	endfacet
	facet normal 0 -0.7730104162847985 -0.6343933293432417
		outer loop
			vertex -20 2.8284270763397217 2.8284270763397217
			vertex -20 3.325878381729126 2.222280979156494
			vertex 0 3.325878381729126 2.222280979156494
		endloop
	endfacet
	facet normal 0 -0.09801728974632538 -0.9951847119559188
		outer loop
			vertex -20 0 4
			vertex 0 0.7803612947463989 3.9231410026550293
			vertex 0 0 4
		endloop
	endfacet
	facet normal 0 -0.29028468175097155 -0.9569403343682077
		outer loop
			vertex -20 0.7803612947463989 3.9231410026550293
			vertex 0 1.5307337045669556 3.6955180168151855
			vertex 0 0.7803612947463989 3.9231410026550293
		endloop
	endfacet
	facet normal 0 -0.47139665328975405 -0.8819213089994024
		outer loop
			vertex -20 1.5307337045669556 3.6955180168151855
			vertex 0 2.222280979156494 3.325878381729126
			vertex 0 1.5307337045669556 3.6955180168151855
		endloop
	endfacet
	facet normal 0 -0.9951847119559188 -0.09801728974632538
		outer loop
			vertex -20 3.9231410026550293 0.7803612947463989
			vertex 0 4 0
			vertex 0 3.9231410026550293 0.7803612947463989
		endloop
	endfacet
	facet normal 0 -0.8819213089994024 -0.47139665328975405
		outer loop
			vertex -20 3.325878381729126 2.222280979156494
			vertex 0 3.6955180168151855 1.5307337045669556
			vertex 0 3.325878381729126 2.222280979156494
		endloop
	endfacet
	facet normal 0 -0.9569403343682077 -0.29028468175097155
		outer loop
			vertex -20 3.6955180168151855 1.5307337045669556
			vertex 0 3.9231410026550293 0.7803612947463989
			vertex 0 3.6955180168151855 1.5307337045669556
		endloop
	endfacet
	facet normal 0 -0.7730104162847985 -0.6343933293432417
		outer loop
			vertex -20 2.8284270763397217 2.8284270763397217
			vertex 0 3.325878381729126 2.222280979156494
			vertex 0 2.8284270763397217 2.8284270763397217
		endloop
	endfacet
	facet normal 0 -0.6343933293432417 -0.7730104162847985
		outer loop
			vertex -20 2.222280979156494 3.325878381729126
			vertex 0 2.8284270763397217 2.8284270763397217
			vertex 0 2.222280979156494 3.325878381729126
		endloop
	endfacet
	facet normal 0 0.7730104162847985 0.6343933293432417
		outer loop
			vertex 20 -3.325878381729126 -2.222280979156494
			vertex 0 -2.8284270763397217 -2.8284270763397217
			vertex 0 -3.325878381729126 -2.222280979156494
		endloop
	endfacet
	facet normal 0 0.6343933293432417 0.7730104162847985
		outer loop
			vertex 20 -2.8284270763397217 -2.8284270763397217
			vertex 0 -2.222280979156494 -3.325878381729126
			vertex 0 -2.8284270763397217 -2.8284270763397217
		endloop
	endfacet
	facet normal 0 0.8819213089994024 0.47139665328975405
		outer loop
			vertex 20 -3.6955180168151855 -1.5307337045669556
			vertex 0 -3.325878381729126 -2.222280979156494
			vertex 0 -3.6955180168151855 -1.5307337045669556
		endloop
	endfacet
	facet normal 0 0.9569403343682077 0.29028468175097155
		outer loop
			vertex 20 -3.9231410026550293 -0.7803612947463989
			vertex 0 -3.6955180168151855 -1.5307337045669556
			vertex 0 -3.9231410026550293 -0.7803612947463989
		endloop
	endfacet
	facet normal 0 0.9951847119559188 0.09801728974632538
		outer loop
			vertex 20 -4 0
			vertex 0 -3.9231410026550293 -0.7803612947463989
			vertex 0 -4 0
		endloop
	endfacet
	facet normal 0 0.47139665328975405 0.8819213089994024
		outer loop
			vertex 20 -2.222280979156494 -3.325878381729126
			vertex 0 -1.5307337045669556 -3.6955180168151855
			vertex 0 -2.222280979156494 -3.325878381729126
		endloop
	endfacet
	facet normal 0 0.29028468175097155 0.9569403343682077
		outer loop
			vertex 20 -1.5307337045669556 -3.6955180168151855
			vertex 0 -0.7803612947463989 -3.9231410026550293
			vertex 0 -1.5307337045669556 -3.6955180168151855
		endloop
	endfacet
	facet normal 0 0.09801728974632538 0.9951847119559188
		outer loop
			vertex 20 -0.7803612947463989 -3.9231410026550293
			vertex 0 0 -4
			vertex 0 -0.7803612947463989 -3.9231410026550293
		endloop
	endfacet
	facet normal 0 0.6343933293432417 0.7730104162847985
		outer loop
			vertex 20 -2.8284270763397217 -2.8284270763397217
			vertex 20 -2.222280979156494 -3.325878381729126
			vertex 0 -2.222280979156494 -3.325878381729126
		endloop
	endfacet
	facet normal 0 0.7730104162847985 0.6343933293432417
		outer loop
			vertex 20 -3.325878381729126 -2.222280979156494
			vertex 20 -2.8284270763397217 -2.8284270763397217
			vertex 0 -2.8284270763397217 -2.8284270763397217
		endloop
	endfacet
	facet normal 0 0.9569403343682077 0.29028468175097155
		outer loop
			vertex 20 -3.9231410026550293 -0.7803612947463989
			vertex 20 -3.6955180168151855 -1.5307337045669556
			vertex 0 -3.6955180168151855 -1.5307337045669556
		endloop
	endfacet
	facet normal 0 0.8819213089994024 0.47139665328975405
		outer loop
			vertex 20 -3.6955180168151855 -1.5307337045669556
			vertex 20 -3.325878381729126 -2.222280979156494
			vertex 0 -3.325878381729126 -2.222280979156494
		endloop
	endfacet
	facet normal 0 0.9951847119559188 0.09801728974632538
		outer loop
			vertex 20 -4 0
			vertex 20 -3.9231410026550293 -0.7803612947463989
			vertex 0 -3.9231410026550293 -0.7803612947463989
		endloop
	endfacet
	facet normal 0 0.47139665328975405 0.8819213089994024
		outer loop
			vertex 20 -2.222280979156494 -3.325878381729126
			vertex 20 -1.5307337045669556 -3.6955180168151855
			vertex 0 -1.5307337045669556 -3.6955180168151855
		endloop
	endfacet
	facet normal 0 0.29028468175097155 0.9569403343682077
		outer loop
			vertex 20 -1.5307337045669556 -3.6955180168151855
			vertex 20 -0.7803612947463989 -3.9231410026550293
			vertex 0 -0.7803612947463989 -3.9231410026550293
		endloop
	endfacet
	facet normal 0 0.09801728974632538 0.9951847119559188
		outer loop
			vertex 20 -0.7803612947463989 -3.9231410026550293
			vertex 20 0 -4
			vertex 0 0 -4
		endloop
	endfacet
	facet normal -1 0 0
		outer loop
			vertex 20 -3.325878381729126 -2.222280979156494
			vertex 20 2.8284270763397217 -2.8284270763397217
			vertex 20 -2.8284270763397217 -2.8284270763397217
		endloop
	endfacet
	facet normal -1 0 0
		outer loop
			vertex 20 -1.5307337045669556 -3.6955180168151855
			vertex 20 0.7803612947463989 -3.9231410026550293
			vertex 20 -0.7803612947463989 -3.9231410026550293
		endloop
	endfacet
	facet normal -1 0 0
		outer loop
			vertex 20 -2.222280979156494 -3.325878381729126
			vertex 20 1.5307337045669556 -3.6955180168151855
			vertex 20 -1.5307337045669556 -3.6955180168151855
		endloop
	endfacet
	facet normal -1 0 0
		outer loop
			vertex 20 -2.8284270763397217 -2.8284270763397217
			vertex 20 2.222280979156494 -3.325878381729126
			vertex 20 -2.222280979156494 -3.325878381729126
		endloop
	endfacet
	facet normal -1 0 0
		outer loop
			vertex 20 -3.6955180168151855 -1.5307337045669556
			vertex 20 3.325878381729126 -2.222280979156494
			vertex 20 -3.325878381729126 -2.222280979156494
		endloop
	endfacet
	facet normal -1 0 0
		outer loop
			vertex 20 -3.9231410026550293 -0.7803612947463989
			vertex 20 3.6955180168151855 -1.5307337045669556
			vertex 20 -3.6955180168151855 -1.5307337045669556
		endloop
	endfacet
	facet normal -1 0 0
		outer loop
			vertex 20 -4 0
			vertex 20 3.9231410026550293 -0.7803612947463989
			vertex 20 -3.9231410026550293 -0.7803612947463989
		endloop
	endfacet
	facet normal 0 0.9951847119559188 -0.09801728974632538
		outer loop
			vertex 20 -3.9231410026550293 0.7803612947463989
			vertex 0 -4 0
			vertex 0 -3.9231410026550293 0.7803612947463989
		endloop
	endfacet
	facet normal 0 0.9569403343682077 -0.29028468175097155
		outer loop
			vertex 20 -3.6955180168151855 1.5307337045669556
			vertex 0 -3.9231410026550293 0.7803612947463989
			vertex 0 -3.6955180168151855 1.5307337045669556
		endloop
	endfacet
	facet normal 0 0.8819213089994024 -0.47139665328975405
		outer loop
			vertex 20 -3.325878381729126 2.222280979156494
			vertex 0 -3.6955180168151855 1.5307337045669556
			vertex 0 -3.325878381729126 2.222280979156494
		endloop
	endfacet
	facet normal 0 0.7730104162847985 -0.6343933293432417
		outer loop
			vertex 20 -2.8284270763397217 2.8284270763397217
			vertex 0 -3.325878381729126 2.222280979156494
			vertex 0 -2.8284270763397217 2.8284270763397217
		endloop
	endfacet
	facet normal 0 0.6343933293432417 -0.7730104162847985
		outer loop
			vertex 20 -2.222280979156494 3.325878381729126
			vertex 0 -2.8284270763397217 2.8284270763397217
			vertex 0 -2.222280979156494 3.325878381729126
		endloop
	endfacet
	facet normal 0 0.47139665328975405 -0.8819213089994024
		outer loop
			vertex 20 -1.5307337045669556 3.6955180168151855
			vertex 0 -2.222280979156494 3.325878381729126
			vertex 0 -1.5307337045669556 3.6955180168151855
		endloop
	endfacet
	facet normal 0 0.29028468175097155 -0.9569403343682077
		outer loop
			vertex 20 -0.7803612947463989 3.9231410026550293
			vertex 0 -1.5307337045669556 3.6955180168151855
			vertex 0 -0.7803612947463989 3.9231410026550293
		endloop
	endfacet
	facet normal 0 0.09801728974632538 -0.9951847119559188
		outer loop
			vertex 20 0 4
			vertex 0 -0.7803612947463989 3.9231410026550293
			vertex 0 0 4
		endloop
	endfacet
	facet normal 0 0.9951847119559188 -0.09801728974632538
		outer loop
			vertex 20 -3.9231410026550293 0.7803612947463989
			vertex 20 -4 0
			vertex 0 -4 0
		endloop
	endfacet
	facet normal 0 0.9569403343682077 -0.29028468175097155
		outer loop
			vertex 20 -3.6955180168151855 1.5307337045669556
			vertex 20 -3.9231410026550293 0.7803612947463989
			vertex 0 -3.9231410026550293 0.7803612947463989
		endloop
	endfacet
	facet normal 0 0.8819213089994024 -0.47139665328975405
		outer loop
			vertex 20 -3.325878381729126 2.222280979156494
			vertex 20 -3.6955180168151855 1.5307337045669556
			vertex 0 -3.6955180168151855 1.5307337045669556
		endloop
	endfacet
	facet normal 0 0.7730104162847985 -0.6343933293432417
		outer loop
			vertex 20 -3.325878381729126 2.222280979156494
			vertex 0 -3.325878381729126 2.222280979156494
			vertex 20 -2.8284270763397217 2.8284270763397217
		endloop
	endfacet
	facet normal 0 0.6343933293432417 -0.7730104162847985
		outer loop
			vertex 20 -2.222280979156494 3.325878381729126
			vertex 20 -2.8284270763397217 2.8284270763397217
			vertex 0 -2.8284270763397217 2.8284270763397217
		endloop
	endfacet
	facet normal 0 0.47139665328975405 -0.8819213089994024
		outer loop
			vertex 20 -2.222280979156494 3.325878381729126
			vertex 0 -2.222280979156494 3.325878381729126
			vertex 20 -1.5307337045669556 3.6955180168151855
		endloop
	endfacet
	facet normal 0 0.29028468175097155 -0.9569403343682077
		outer loop
			vertex 20 -1.5307337045669556 3.6955180168151855
			vertex 0 -1.5307337045669556 3.6955180168151855
			vertex 20 -0.7803612947463989 3.9231410026550293
		endloop
	endfacet
	facet normal 0 0.09801728974632538 -0.9951847119559188
		outer loop
			vertex 20 -0.7803612947463989 3.9231410026550293
			vertex 0 -0.7803612947463989 3.9231410026550293
			vertex 20 0 4
		endloop
	endfacet
	facet normal -1 0 0
		outer loop
			vertex 20 -3.9231410026550293 0.7803612947463989
			vertex 20 4 0
			vertex 20 -4 0
		endloop
	endfacet
	facet normal -1 0 0
		outer loop
			vertex 20 -3.6955180168151855 1.5307337045669556
			vertex 20 3.9231410026550293 0.7803612947463989
			vertex 20 -3.9231410026550293 0.7803612947463989
		endloop
	endfacet
	facet normal -1 0 0
		outer loop
			vertex 20 -3.325878381729126 2.222280979156494
			vertex 20 3.6955180168151855 1.5307337045669556
			vertex 20 -3.6955180168151855 1.5307337045669556
		endloop
	endfacet
	facet normal -1 0 0
		outer loop
			vertex 20 -3.325878381729126 2.222280979156494
			vertex 20 -2.8284270763397217 2.8284270763397217
			vertex 20 3.325878381729126 2.222280979156494
		endloop
	endfacet
	facet normal -1 0 0
		outer loop
			vertex 20 -2.222280979156494 3.325878381729126
			vertex 20 2.8284270763397217 2.8284270763397217
			vertex 20 -2.8284270763397217 2.8284270763397217
		endloop
	endfacet
	facet normal -1 0 0
		outer loop
			vertex 20 -2.222280979156494 3.325878381729126
			vertex 20 -1.5307337045669556 3.6955180168151855
			vertex 20 2.222280979156494 3.325878381729126
		endloop
	endfacet
	facet normal -1 0 0
		outer loop
			vertex 20 -1.5307337045669556 3.6955180168151855
			vertex 20 -0.7803612947463989 3.9231410026550293
			vertex 20 1.5307337045669556 3.6955180168151855
		endloop
	endfacet
	facet normal 0 -0.09801728974632538 0.9951847119559188
		outer loop
			vertex 20 0 -4
			vertex 0 0.7803612947463989 -3.9231410026550293
			vertex 0 0 -4
		endloop
	endfacet
	facet normal 0 -0.29028468175097155 0.9569403343682077
		outer loop
			vertex 20 0.7803612947463989 -3.9231410026550293
			vertex 0 1.5307337045669556 -3.6955180168151855
			vertex 0 0.7803612947463989 -3.9231410026550293
		endloop
	endfacet
	facet normal 0 -0.47139665328975405 0.8819213089994024
		outer loop
			vertex 20 1.5307337045669556 -3.6955180168151855
			vertex 0 2.222280979156494 -3.325878381729126
			vertex 0 1.5307337045669556 -3.6955180168151855
		endloop
	endfacet
	facet normal 0 -0.6343933293432417 0.7730104162847985
		outer loop
			vertex 20 2.222280979156494 -3.325878381729126
			vertex 0 2.8284270763397217 -2.8284270763397217
			vertex 0 2.222280979156494 -3.325878381729126
		endloop
	endfacet
	facet normal 0 -0.7730104162847985 0.6343933293432417
		outer loop
			vertex 20 2.8284270763397217 -2.8284270763397217
			vertex 0 3.325878381729126 -2.222280979156494
			vertex 0 2.8284270763397217 -2.8284270763397217
		endloop
	endfacet
	facet normal 0 -0.8819213089994024 0.47139665328975405
		outer loop
			vertex 20 3.325878381729126 -2.222280979156494
			vertex 0 3.6955180168151855 -1.5307337045669556
			vertex 0 3.325878381729126 -2.222280979156494
		endloop
	endfacet
	facet normal 0 -0.9569403343682077 0.29028468175097155
		outer loop
			vertex 20 3.6955180168151855 -1.5307337045669556
			vertex 0 3.9231410026550293 -0.7803612947463989
			vertex 0 3.6955180168151855 -1.5307337045669556
		endloop
	endfacet
	facet normal 0 -0.9951847119559188 0.09801728974632538
		outer loop
			vertex 20 3.9231410026550293 -0.7803612947463989
			vertex 0 4 0
			vertex 0 3.9231410026550293 -0.7803612947463989
		endloop
	endfacet
	facet normal 0 -0.09801728974632538 0.9951847119559188
		outer loop
			vertex 20 0 -4
			vertex 20 0.7803612947463989 -3.9231410026550293
			vertex 0 0.7803612947463989 -3.9231410026550293
		endloop
	endfacet
	facet normal 0 -0.29028468175097155 0.9569403343682077
		outer loop
			vertex 20 0.7803612947463989 -3.9231410026550293
			vertex 20 1.5307337045669556 -3.6955180168151855
			vertex 0 1.5307337045669556 -3.6955180168151855
		endloop
	endfacet
	facet normal 0 -0.47139665328975405 0.8819213089994024
		outer loop
			vertex 20 1.5307337045669556 -3.6955180168151855
			vertex 20 2.222280979156494 -3.325878381729126
			vertex 0 2.222280979156494 -3.325878381729126
		endloop
	endfacet
	facet normal 0 -0.6343933293432417 0.7730104162847985
		outer loop
			vertex 20 2.8284270763397217 -2.8284270763397217
			vertex 0 2.8284270763397217 -2.8284270763397217
			vertex 20 2.222280979156494 -3.325878381729126
		endloop
	endfacet
	facet normal 0 -0.7730104162847985 0.6343933293432417
		outer loop
			vertex 20 2.8284270763397217 -2.8284270763397217
			vertex 20 3.325878381729126 -2.222280979156494
			vertex 0 3.325878381729126 -2.222280979156494
		endloop
	endfacet
	facet normal 0 -0.8819213089994024 0.47139665328975405
		outer loop
			vertex 20 3.6955180168151855 -1.5307337045669556
			vertex 0 3.6955180168151855 -1.5307337045669556
			vertex 20 3.325878381729126 -2.222280979156494
		endloop
	endfacet
	facet normal 0 -0.9569403343682077 0.29028468175097155
		outer loop
			vertex 20 3.9231410026550293 -0.7803612947463989
			vertex 0 3.9231410026550293 -0.7803612947463989
			vertex 20 3.6955180168151855 -1.5307337045669556
		endloop
	endfacet
	facet normal 0 -0.9951847119559188 0.09801728974632538
		outer loop
			vertex 20 4 0
			vertex 0 4 0
			vertex 20 3.9231410026550293 -0.7803612947463989
		endloop
	endfacet
	facet normal -1 0 0
		outer loop
			vertex 20 -0.7803612947463989 -3.9231410026550293
			vertex 20 0.7803612947463989 -3.9231410026550293
			vertex 20 0 -4
		endloop
	endfacet
	facet normal -1 0 0
		outer loop
			vertex 20 -1.5307337045669556 -3.6955180168151855
			vertex 20 1.5307337045669556 -3.6955180168151855
			vertex 20 0.7803612947463989 -3.9231410026550293
		endloop
	endfacet
	facet normal -1 0 0
		outer loop
			vertex 20 -2.222280979156494 -3.325878381729126
			vertex 20 2.222280979156494 -3.325878381729126
			vertex 20 1.5307337045669556 -3.6955180168151855
		endloop
	endfacet
	facet normal -1 0 0
		outer loop
			vertex 20 -2.8284270763397217 -2.8284270763397217
			vertex 20 2.8284270763397217 -2.8284270763397217
			vertex 20 2.222280979156494 -3.325878381729126
		endloop
	endfacet
	facet normal -1 0 0
		outer loop
			vertex 20 -3.325878381729126 -2.222280979156494
			vertex 20 3.325878381729126 -2.222280979156494
			vertex 20 2.8284270763397217 -2.8284270763397217
		endloop
	endfacet
	facet normal -1 0 0
		outer loop
			vertex 20 -3.6955180168151855 -1.5307337045669556
			vertex 20 3.6955180168151855 -1.5307337045669556
			vertex 20 3.325878381729126 -2.222280979156494
		endloop
	endfacet
	facet normal -1 0 0
		outer loop
			vertex 20 -3.9231410026550293 -0.7803612947463989
			vertex 20 3.9231410026550293 -0.7803612947463989
			vertex 20 3.6955180168151855 -1.5307337045669556
		endloop
	endfacet
	facet normal -1 0 0
		outer loop
			vertex 20 -4 0
			vertex 20 4 0
			vertex 20 3.9231410026550293 -0.7803612947463989
		endloop
	endfacet
	facet normal 0 -0.09801728974632538 -0.9951847119559188
		outer loop
			vertex 20 0.7803612947463989 3.9231410026550293
			vertex 0 0 4
			vertex 0 0.7803612947463989 3.9231410026550293
		endloop
	endfacet
	facet normal 0 -0.29028468175097155 -0.9569403343682077
		outer loop
			vertex 20 1.5307337045669556 3.6955180168151855
			vertex 0 0.7803612947463989 3.9231410026550293
			vertex 0 1.5307337045669556 3.6955180168151855
		endloop
	endfacet
	facet normal 0 -0.47139665328975405 -0.8819213089994024
		outer loop
			vertex 20 2.222280979156494 3.325878381729126
			vertex 0 1.5307337045669556 3.6955180168151855
			vertex 0 2.222280979156494 3.325878381729126
		endloop
	endfacet
	facet normal 0 -0.9951847119559188 -0.09801728974632538
		outer loop
			vertex 20 4 0
			vertex 0 3.9231410026550293 0.7803612947463989
			vertex 0 4 0
		endloop
	endfacet
	facet normal 0 -0.9569403343682077 -0.29028468175097155
		outer loop
			vertex 20 3.9231410026550293 0.7803612947463989
			vertex 0 3.6955180168151855 1.5307337045669556
			vertex 0 3.9231410026550293 0.7803612947463989
		endloop
	endfacet
	facet normal 0 -0.8819213089994024 -0.47139665328975405
		outer loop
			vertex 20 3.6955180168151855 1.5307337045669556
			vertex 0 3.325878381729126 2.222280979156494
			vertex 0 3.6955180168151855 1.5307337045669556
		endloop
	endfacet
	facet normal 0 -0.6343933293432417 -0.7730104162847985
		outer loop
			vertex 20 2.8284270763397217 2.8284270763397217
			vertex 0 2.222280979156494 3.325878381729126
			vertex 0 2.8284270763397217 2.8284270763397217
		endloop
	endfacet
	facet normal 0 -0.7730104162847985 -0.6343933293432417
		outer loop
			vertex 20 3.325878381729126 2.222280979156494
			vertex 0 2.8284270763397217 2.8284270763397217
			vertex 0 3.325878381729126 2.222280979156494
		endloop
	endfacet
	facet normal 0 -0.09801728974632538 -0.9951847119559188
		outer loop
			vertex 20 0 4
			vertex 0 0 4
			vertex 20 0.7803612947463989 3.9231410026550293
		endloop
	endfacet
	facet normal 0 -0.29028468175097155 -0.9569403343682077
		outer loop
			vertex 20 0.7803612947463989 3.9231410026550293
			vertex 0 0.7803612947463989 3.9231410026550293
			vertex 20 1.5307337045669556 3.6955180168151855
		endloop
	endfacet
	facet normal 0 -0.47139665328975405 -0.8819213089994024
		outer loop
			vertex 20 1.5307337045669556 3.6955180168151855
			vertex 0 1.5307337045669556 3.6955180168151855
			vertex 20 2.222280979156494 3.325878381729126
		endloop
	endfacet
	facet normal 0 -0.9951847119559188 -0.09801728974632538
		outer loop
			vertex 20 3.9231410026550293 0.7803612947463989
			vertex 0 3.9231410026550293 0.7803612947463989
			vertex 20 4 0
		endloop
	endfacet
	facet normal 0 -0.8819213089994024 -0.47139665328975405
		outer loop
			vertex 20 3.325878381729126 2.222280979156494
			vertex 0 3.325878381729126 2.222280979156494
			vertex 20 3.6955180168151855 1.5307337045669556
		endloop
	endfacet
	facet normal 0 -0.9569403343682077 -0.29028468175097155
		outer loop
			vertex 20 3.6955180168151855 1.5307337045669556
			vertex 0 3.6955180168151855 1.5307337045669556
			vertex 20 3.9231410026550293 0.7803612947463989
		endloop
	endfacet
	facet normal 0 -0.7730104162847985 -0.6343933293432417
		outer loop
			vertex 20 2.8284270763397217 2.8284270763397217
			vertex 0 2.8284270763397217 2.8284270763397217
			vertex 20 3.325878381729126 2.222280979156494
		endloop
	endfacet
	facet normal 0 -0.6343933293432417 -0.7730104162847985
		outer loop
			vertex 20 2.222280979156494 3.325878381729126
			vertex 0 2.222280979156494 3.325878381729126
			vertex 20 2.8284270763397217 2.8284270763397217
		endloop
	endfacet
	facet normal -1 0 0
		outer loop
			vertex 20 -3.9231410026550293 0.7803612947463989
			vertex 20 3.9231410026550293 0.7803612947463989
			vertex 20 4 0
		endloop
	endfacet
	facet normal -1 0 0
		outer loop
			vertex 20 -3.6955180168151855 1.5307337045669556
			vertex 20 3.6955180168151855 1.5307337045669556
			vertex 20 3.9231410026550293 0.7803612947463989
		endloop
	endfacet
	facet normal -1 0 0
		outer loop
			vertex 20 -3.325878381729126 2.222280979156494
			vertex 20 3.325878381729126 2.222280979156494
			vertex 20 3.6955180168151855 1.5307337045669556
		endloop
	endfacet
	facet normal -1 0 0
		outer loop
			vertex 20 -0.7803612947463989 3.9231410026550293
			vertex 20 0 4
			vertex 20 0.7803612947463989 3.9231410026550293
		endloop
	endfacet
	facet normal -1 0 0
		outer loop
			vertex 20 -2.222280979156494 3.325878381729126
			vertex 20 2.222280979156494 3.325878381729126
			vertex 20 2.8284270763397217 2.8284270763397217
		endloop
	endfacet
	facet normal -1 0 0
		outer loop
			vertex 20 -1.5307337045669556 3.6955180168151855
			vertex 20 1.5307337045669556 3.6955180168151855
			vertex 20 2.222280979156494 3.325878381729126
		endloop
	endfacet
	facet normal -1 0 0
		outer loop
			vertex 20 -0.7803612947463989 3.9231410026550293
			vertex 20 0.7803612947463989 3.9231410026550293
			vertex 20 1.5307337045669556 3.6955180168151855
		endloop
	endfacet
	facet normal -1 0 0
		outer loop
			vertex 20 -2.8284270763397217 2.8284270763397217
			vertex 20 2.8284270763397217 2.8284270763397217
			vertex 20 3.325878381729126 2.222280979156494
		endloop
	endfacet
	facet normal 0 -1 0
		outer loop
			vertex -25 -8 -8
			vertex 25 -8 -8
			vertex -25 -8 8
		endloop
	endfacet
	facet normal 0 0 -1
		outer loop
			vertex -25 -8 -8
			vertex -25 8 -8
			vertex 25 -8 -8
		endloop
	endfacet
	facet normal -1 0 0
		outer loop
			vertex -25 -8 -8
			vertex -25 -8 8
			vertex -25 8 8
		endloop
	endfacet
	facet normal 0 0 1
		outer loop
			vertex -25 -8 8
			vertex 25 -8 8
			vertex -25 8 8
		endloop
	endfacet
	facet normal -1 0 0
		outer loop
			vertex -25 -8 -8
			vertex -25 8 8
			vertex -25 8 -8
		endloop
	endfacet
	facet normal 0 1 0
		outer loop
			vertex -25 8 -8
			vertex -25 8 8
			vertex 25 8 8
		endloop
	endfacet
	facet normal 1 0 0
		outer loop
			vertex 25 -8 -8
			vertex 25 8 -8
			vertex 25 -8 8
		endloop
	endfacet
	facet normal 0 -1 0
		outer loop
			vertex -25 -8 8
			vertex 25 -8 -8
			vertex 25 -8 8
		endloop
	endfacet
	facet normal 0 0 -1
		outer loop
			vertex -25 8 -8
			vertex 25 8 -8
			vertex 25 -8 -8
		endloop
	endfacet
	facet normal 0 1 0
		outer loop
			vertex -25 8 -8
			vertex 25 8 8
			vertex 25 8 -8
		endloop
	endfacet
	facet normal 0 0 1
		outer loop
			vertex -25 8 8
			vertex 25 -8 8
			vertex 25 8 8
		endloop
	endfacet
	facet normal 1 0 0
		outer loop
			vertex 25 -8 8
			vertex 25 8 -8
			vertex 25 8 8
		endloop
	endfacet
endsolid exported
