ply
format ascii 1.0
element vertex 516
property float x
property float y
property float z
property float nx
property float ny
property float nz
element face 1024
property list uchar int vertex_index
end_header
-2.120148181915283 -7.684497356414795 -6.037671089172363 -0.23356275157143822 -0.7642260756069552 -0.6011713120573628
-2.120148181915283 -6.037671089172363 -7.684497356414795 -0.23356275157143822 -0.6011713120573628 -0.7642260756069552
-4.378852367401123 -6.357108116149902 -6.357108116149902 -0.4464178373472605 -0.632736562282517 -0.632736562282517
-6.037671089172363 -7.684497356414795 -2.120148181915283 -0.6011713120573628 -0.7642260756069552 -0.23356275157143822
-6.357108116149902 -6.357108116149902 -4.378852367401123 -0.632736562282517 -0.632736562282517 -0.4464178373472605
-7.684497356414795 -6.037671089172363 -2.120148181915283 -0.7642261251244409 -0.6011712445177503 -0.23356276338976217
-4.297662734985352 -7.941044807434082 -4.297662734985352 -0.43612725228888244 -0.7871378784062543 -0.43612725228888244
-2.084592819213867 -8.884476661682129 -4.089075565338135 -0.22410611811595477 -0.8841507436145106 -0.40994378930397996
-4.089075565338135 -8.884476661682129 -2.084592819213867 -0.40994378930397996 -0.8841507436145106 -0.22410611811595477
-2.0233471393585205 -9.581864356994629 -2.0233471393585205 -0.20860274230126877 -0.9554945273567927 -0.20860274230126877
-6.357108116149902 -4.378852367401123 -6.357108116149902 -0.632736562282517 -0.4464178373472605 -0.632736562282517
-6.037671089172363 -2.120148181915283 -7.684497356414795 -0.6011712445177503 -0.23356276338976217 -0.7642261251244409
-7.684497356414795 -2.120148181915283 -6.037671089172363 -0.7642261251244409 -0.23356276338976217 -0.6011712445177503
-4.297662734985352 -4.297662734985352 -7.941044807434082 -0.43612725228888244 -0.43612725228888244 -0.7871378784062543
-2.084592819213867 -4.089075565338135 -8.884476661682129 -0.22410611811595477 -0.40994378930397996 -0.8841507436145106
-4.089075565338135 -2.084592819213867 -8.884476661682129 -0.40994378930397996 -0.22410611811595477 -0.8841507436145106
-2.0233471393585205 -2.0233471393585205 -9.581864356994629 -0.20860274230126877 -0.20860274230126877 -0.9554945273567927
-7.941044807434082 -4.297662734985352 -4.297662734985352 -0.7871378784062543 -0.43612725228888244 -0.43612725228888244
-8.884476661682129 -4.089075565338135 -2.084592819213867 -0.8841507436145106 -0.40994378930397996 -0.22410611811595477
-8.884476661682129 -2.084592819213867 -4.089075565338135 -0.8841507436145106 -0.22410611811595477 -0.40994378930397996
-9.581864356994629 -2.0233471393585205 -2.0233471393585205 -0.9554945273567927 -0.20860274230126877 -0.20860274230126877
6.123233998228043e-16 -8.314696311950684 -5.555702209472656 -1.5476658934512177e-9 -0.8391567518054149 -0.5438896449642935
2.120148181915283 -7.684497356414795 -6.037671089172363 0.2335627493014828 -0.7642261277842199 -0.6011712466100403
6.123233998228043e-16 -5.555702209472656 -8.314696311950684 -1.5476658934512177e-9 -0.5438896449642935 -0.8391567518054149
2.120148181915283 -6.037671089172363 -7.684497356414795 0.2335627493014828 -0.6011712466100403 -0.7642261277842199
6.123233998228043e-16 -7.071067810058594 -7.071067810058594 -1.6698168689327524e-9 -0.7071067811865476 -0.7071067811865476
4.378852367401123 -6.357108116149902 -6.357108116149902 0.4464178134842093 -0.6327365707006265 -0.6327365707006265
6.123233998228043e-16 -9.238795280456543 -3.8268344402313232 3.3487901379546005e-9 -0.932976962214385 -0.359936088739679
2.084592819213867 -8.884476661682129 -4.089075565338135 0.2241061153779882 -0.8841507328125958 -0.40994381409790503
4.297662734985352 -7.941044807434082 -4.297662734985352 0.43612725228888244 -0.7871378784062543 -0.43612725228888244
6.123233998228043e-16 -9.807852745056152 -1.9509031772613525 6.760667070834742e-10 -0.9861362641580977 -0.16593754401072225
2.0233471393585205 -9.581864356994629 -2.0233471393585205 0.20860272869695856 -0.9554945332969552 -0.20860272869695856
4.089075565338135 -8.884476661682129 -2.084592819213867 0.40994378930397996 -0.8841507436145106 -0.22410611811595477
6.037671089172363 -7.684497356414795 -2.120148181915283 0.6011712466100403 -0.7642261277842199 -0.2335627493014828
6.357108116149902 -6.357108116149902 -4.378852367401123 0.6327366218871593 -0.6327365026778701 -0.4464178373472589
7.684497356414795 -6.037671089172363 -2.120148181915283 0.7642261277842199 -0.6011712466100403 -0.2335627493014828
6.123233998228043e-16 -3.8268344402313232 -9.238795280456543 3.3487901379546005e-9 -0.359936088739679 -0.932976962214385
2.084592819213867 -4.089075565338135 -8.884476661682129 0.2241061153779882 -0.40994381409790503 -0.8841507328125958
4.297662734985352 -4.297662734985352 -7.941044807434082 0.43612725228888244 -0.43612725228888244 -0.7871378784062543
6.123233998228043e-16 -1.9509031772613525 -9.807852745056152 6.760667070834742e-10 -0.16593754401072225 -0.9861362641580977
2.0233471393585205 -2.0233471393585205 -9.581864356994629 0.20860272869695856 -0.20860272869695856 -0.9554945332969552
4.089075565338135 -2.084592819213867 -8.884476661682129 0.40994378930397996 -0.22410611811595477 -0.8841507436145106
6.357108116149902 -4.378852367401123 -6.357108116149902 0.6327366218871593 -0.4464178373472589 -0.6327365026778701
6.037671089172363 -2.120148181915283 -7.684497356414795 0.601171307872782 -0.23356277974799702 -0.764226070287397
7.684497356414795 -2.120148181915283 -6.037671089172363 0.7642261277842199 -0.2335627493014828 -0.6011712466100403
7.941044807434082 -4.297662734985352 -4.297662734985352 0.7871378784062543 -0.43612725228888244 -0.43612725228888244
8.884476661682129 -4.089075565338135 -2.084592819213867 0.8841507436145106 -0.40994378930397996 -0.22410611811595477
8.884476661682129 -2.084592819213867 -4.089075565338135 0.8841507436145106 -0.22410611811595477 -0.40994378930397996
9.581864356994629 -2.0233471393585205 -2.0233471393585205 0.9554945273567927 -0.20860274230126877 -0.20860274230126877
-5.555702209472656 -8.314696311950684 6.123233998228043e-16 -0.5438896449642935 -0.8391567518054149 -1.5476658934512177e-9
-6.037671089172363 -7.684497356414795 2.120148181915283 -0.6011712466100403 -0.7642261277842199 0.2335627493014828
-8.314696311950684 -5.555702209472656 6.123233998228043e-16 -0.8391567518054149 -0.5438896449642935 -1.5476658934512177e-9
-7.684497356414795 -6.037671089172363 2.120148181915283 -0.7642261277842199 -0.6011712466100403 0.2335627493014828
-7.071067810058594 -7.071067810058594 6.123233998228043e-16 -0.7071067811865476 -0.7071067811865476 -1.6698168689327524e-9
-6.357108116149902 -6.357108116149902 4.378852367401123 -0.6327365707006265 -0.6327365707006265 0.4464178134842093
-3.8268344402313232 -9.238795280456543 6.123233998228043e-16 -0.359936088739679 -0.932976962214385 3.3487901379546005e-9
-4.089075565338135 -8.884476661682129 2.084592819213867 -0.40994381409790503 -0.8841507328125958 0.2241061153779882
-1.9509031772613525 -9.807852745056152 6.123233998228043e-16 -0.16593752951986837 -0.9861362665964795 1.3998915487270587e-9
-2.0233471393585205 -9.581864356994629 2.0233471393585205 -0.20860272869695856 -0.9554945332969552 0.20860272869695856
-4.297662734985352 -7.941044807434082 4.297662734985352 -0.43612721336196425 -0.7871379215425054 0.43612721336196425
-2.084592819213867 -8.884476661682129 4.089075565338135 -0.22410611811595477 -0.8841507436145106 0.40994378930397996
-2.120148181915283 -7.684497356414795 6.037671089172363 -0.2335627493014828 -0.7642261277842199 0.6011712466100403
-4.378852367401123 -6.357108116149902 6.357108116149902 -0.4464178373472589 -0.6327365026778701 0.6327366218871593
-2.120148181915283 -6.037671089172363 7.684497356414795 -0.2335627493014828 -0.6011712466100403 0.7642261277842199
-9.238795280456543 -3.8268344402313232 6.123233998228043e-16 -0.932976962214385 -0.359936088739679 3.3487901379546005e-9
-8.884476661682129 -4.089075565338135 2.084592819213867 -0.8841507328125958 -0.40994381409790503 0.2241061153779882
-7.941044807434082 -4.297662734985352 4.297662734985352 -0.7871378784062543 -0.43612725228888244 0.43612725228888244
-9.807852745056152 -1.9509031772613525 6.123233998228043e-16 -0.9861362641580977 -0.16593754401072225 6.760667070834742e-10
-9.581864356994629 -2.0233471393585205 2.0233471393585205 -0.9554945332969552 -0.20860272869695856 0.20860272869695856
-8.884476661682129 -2.084592819213867 4.089075565338135 -0.8841507436145106 -0.22410611811595477 0.40994378930397996
-6.357108116149902 -4.378852367401123 6.357108116149902 -0.6327365026778701 -0.4464178373472589 0.6327366218871593
-7.684497356414795 -2.120148181915283 6.037671089172363 -0.764226070287397 -0.23356277974799702 0.601171307872782
-6.037671089172363 -2.120148181915283 7.684497356414795 -0.6011712466100403 -0.2335627493014828 0.7642261277842199
-4.297662734985352 -4.297662734985352 7.941044807434082 -0.43612725228888244 -0.43612725228888244 0.7871378784062543
-2.084592819213867 -4.089075565338135 8.884476661682129 -0.22410611811595477 -0.40994378930397996 0.8841507436145106
-4.089075565338135 -2.084592819213867 8.884476661682129 -0.40994378930397996 -0.22410611811595477 0.8841507436145106
-2.0233471393585205 -2.0233471393585205 9.581864356994629 -0.20860274230126877 -0.20860274230126877 0.9554945273567927
6.123233998228043e-16 -10 6.123233998228043e-16 -9.046949300817175e-10 -1 -9.046949300817175e-10
1.9509031772613525 -9.807852745056152 6.123233998228043e-16 0.16593754401072225 -0.9861362641580977 8.739564685237914e-10
6.123233998228043e-16 -9.807852745056152 1.9509031772613525 8.739564685237914e-10 -0.9861362641580977 0.16593754401072225
2.0233471393585205 -9.581864356994629 2.0233471393585205 0.20860274230126877 -0.9554945273567927 0.20860274230126877
3.8268344402313232 -9.238795280456543 6.123233998228043e-16 0.359936088739679 -0.932976962214385 3.3487901379546005e-9
4.089075565338135 -8.884476661682129 2.084592819213867 0.40994378930397996 -0.8841507436145106 0.22410611811595477
6.123233998228043e-16 -9.238795280456543 3.8268344402313232 3.148121067010234e-9 -0.9329769522064049 0.3599361146809913
2.084592819213867 -8.884476661682129 4.089075565338135 0.22410611811595477 -0.8841507436145106 0.40994378930397996
4.297662734985352 -7.941044807434082 4.297662734985352 0.4361271948968587 -0.7871379420043191 0.4361271948968587
5.555702209472656 -8.314696311950684 6.123233998228043e-16 0.5438896449642935 -0.8391567518054149 9.965264228086389e-10
6.037671089172363 -7.684497356414795 2.120148181915283 0.6011713120573628 -0.7642260756069552 0.23356275157143822
7.071067810058594 -7.071067810058594 6.123233998228043e-16 0.7071067811865476 -0.7071067811865476 -1.5915967705279218e-9
8.314696311950684 -5.555702209472656 6.123233998228043e-16 0.8391567518054149 -0.5438896449642935 -1.5476658934512177e-9
7.684497356414795 -6.037671089172363 2.120148181915283 0.7642261277842199 -0.6011712466100403 0.2335627493014828
6.357108116149902 -6.357108116149902 4.378852367401123 0.632736562282517 -0.632736562282517 0.4464178373472605
6.123233998228043e-16 -8.314696311950684 5.555702209472656 9.965264228086389e-10 -0.8391567518054149 0.5438896449642935
2.120148181915283 -7.684497356414795 6.037671089172363 0.23356275157143822 -0.7642260756069552 0.6011713120573628
6.123233998228043e-16 -7.071067810058594 7.071067810058594 -1.5915967705279218e-9 -0.7071067811865476 0.7071067811865476
4.378852367401123 -6.357108116149902 6.357108116149902 0.4464178373472605 -0.632736562282517 0.632736562282517
6.123233998228043e-16 -5.555702209472656 8.314696311950684 -1.5476658934512177e-9 -0.5438896449642935 0.8391567518054149
2.120148181915283 -6.037671089172363 7.684497356414795 0.2335627493014828 -0.6011712466100403 0.7642261277842199
9.238795280456543 -3.8268344402313232 6.123233998228043e-16 0.932976962214385 -0.359936088739679 3.3487901379546005e-9
8.884476661682129 -4.089075565338135 2.084592819213867 0.8841507328125958 -0.40994381409790503 0.2241061153779882
7.941044807434082 -4.297662734985352 4.297662734985352 0.7871378784062543 -0.43612725228888244 0.43612725228888244
9.807852745056152 -1.9509031772613525 6.123233998228043e-16 0.9861362641580977 -0.16593754401072225 6.760667070834742e-10
9.581864356994629 -2.0233471393585205 2.0233471393585205 0.9554945332969552 -0.20860272869695856 0.20860272869695856
8.884476661682129 -2.084592819213867 4.089075565338135 0.8841507436145106 -0.22410611811595477 0.40994378930397996
6.123233998228043e-16 -3.8268344402313232 9.238795280456543 3.3487901379546005e-9 -0.359936088739679 0.932976962214385
2.084592819213867 -4.089075565338135 8.884476661682129 0.2241061153779882 -0.40994381409790503 0.8841507328125958
4.297662734985352 -4.297662734985352 7.941044807434082 0.43612725228888244 -0.43612725228888244 0.7871378784062543
6.123233998228043e-16 -1.9509031772613525 9.807852745056152 6.760667070834742e-10 -0.16593754401072225 0.9861362641580977
2.0233471393585205 -2.0233471393585205 9.581864356994629 0.20860272869695856 -0.20860272869695856 0.9554945332969552
4.089075565338135 -2.084592819213867 8.884476661682129 0.40994378930397996 -0.22410611811595477 0.8841507436145106
6.357108116149902 -4.378852367401123 6.357108116149902 0.6327365707006265 -0.4464178134842093 0.6327365707006265
7.684497356414795 -2.120148181915283 6.037671089172363 0.764226070287397 -0.23356277974799702 0.601171307872782
6.037671089172363 -2.120148181915283 7.684497356414795 0.601171307872782 -0.23356277974799702 0.764226070287397
-5.555702209472656 6.123233998228043e-16 -8.314696311950684 -0.5438896449642935 -1.5476658934512177e-9 -0.8391567518054149
-6.037671089172363 2.120148181915283 -7.684497356414795 -0.6011712466100403 0.2335627493014828 -0.7642261277842199
-8.314696311950684 6.123233998228043e-16 -5.555702209472656 -0.8391567518054149 -1.5476658934512177e-9 -0.5438896449642935
-7.684497356414795 2.120148181915283 -6.037671089172363 -0.7642261277842199 0.2335627493014828 -0.6011712466100403
-7.071067810058594 6.123233998228043e-16 -7.071067810058594 -0.7071067811865476 -1.6698168689327524e-9 -0.7071067811865476
-6.357108116149902 4.378852367401123 -6.357108116149902 -0.6327365707006265 0.4464178134842093 -0.6327365707006265
-3.8268344402313232 6.123233998228043e-16 -9.238795280456543 -0.359936088739679 3.3487901379546005e-9 -0.932976962214385
-4.089075565338135 2.084592819213867 -8.884476661682129 -0.40994381409790503 0.2241061153779882 -0.8841507328125958
-1.9509031772613525 6.123233998228043e-16 -9.807852745056152 -0.16593752951986837 1.3998915487270587e-9 -0.9861362665964795
-2.0233471393585205 2.0233471393585205 -9.581864356994629 -0.20860272869695856 0.20860272869695856 -0.9554945332969552
-4.297662734985352 4.297662734985352 -7.941044807434082 -0.43612721336196425 0.43612721336196425 -0.7871379215425054
-2.084592819213867 4.089075565338135 -8.884476661682129 -0.22410611811595477 0.40994378930397996 -0.8841507436145106
-9.238795280456543 6.123233998228043e-16 -3.8268344402313232 -0.932976962214385 3.3487901379546005e-9 -0.359936088739679
-8.884476661682129 2.084592819213867 -4.089075565338135 -0.8841507328125958 0.2241061153779882 -0.40994381409790503
-9.807852745056152 6.123233998228043e-16 -1.9509031772613525 -0.9861362665964795 1.3998915487270587e-9 -0.16593752951986837
-9.581864356994629 2.0233471393585205 -2.0233471393585205 -0.9554945332969552 0.20860272869695856 -0.20860272869695856
-7.941044807434082 4.297662734985352 -4.297662734985352 -0.7871379215425054 0.43612721336196425 -0.43612721336196425
-8.884476661682129 4.089075565338135 -2.084592819213867 -0.8841507436145106 0.40994378930397996 -0.22410611811595477
-2.120148181915283 6.037671089172363 -7.684497356414795 -0.2335627493014828 0.6011712466100403 -0.7642261277842199
-4.378852367401123 6.357108116149902 -6.357108116149902 -0.4464178373472589 0.6327366218871593 -0.6327365026778701
-2.120148181915283 7.684497356414795 -6.037671089172363 -0.2335627493014828 0.7642261277842199 -0.6011712466100403
-6.357108116149902 6.357108116149902 -4.378852367401123 -0.6327365026778701 0.6327366218871593 -0.4464178373472589
-7.684497356414795 6.037671089172363 -2.120148181915283 -0.764226070287397 0.601171307872782 -0.23356277974799702
-6.037671089172363 7.684497356414795 -2.120148181915283 -0.6011712466100403 0.7642261277842199 -0.2335627493014828
-4.297662734985352 7.941044807434082 -4.297662734985352 -0.43612725228888244 0.7871378784062543 -0.43612725228888244
-2.084592819213867 8.884476661682129 -4.089075565338135 -0.22410611811595477 0.8841507436145106 -0.40994378930397996
-4.089075565338135 8.884476661682129 -2.084592819213867 -0.40994378930397996 0.8841507436145106 -0.22410611811595477
-2.0233471393585205 9.581864356994629 -2.0233471393585205 -0.20860274230126877 0.9554945273567927 -0.20860274230126877
6.123233998228043e-16 6.123233998228043e-16 -10 -9.046949300817175e-10 -9.046949300817175e-10 -1
1.9509031772613525 6.123233998228043e-16 -9.807852745056152 0.16593754401072225 8.739564685237914e-10 -0.9861362641580977
6.123233998228043e-16 1.9509031772613525 -9.807852745056152 8.739564685237914e-10 0.16593754401072225 -0.9861362641580977
2.0233471393585205 2.0233471393585205 -9.581864356994629 0.20860274230126877 0.20860274230126877 -0.9554945273567927
3.8268344402313232 6.123233998228043e-16 -9.238795280456543 0.359936088739679 3.3487901379546005e-9 -0.932976962214385
4.089075565338135 2.084592819213867 -8.884476661682129 0.40994378930397996 0.22410611811595477 -0.8841507436145106
6.123233998228043e-16 3.8268344402313232 -9.238795280456543 3.148121067010234e-9 0.3599361146809913 -0.9329769522064049
2.084592819213867 4.089075565338135 -8.884476661682129 0.22410611811595477 0.40994378930397996 -0.8841507436145106
4.297662734985352 4.297662734985352 -7.941044807434082 0.4361271948968587 0.4361271948968587 -0.7871379420043191
5.555702209472656 6.123233998228043e-16 -8.314696311950684 0.5438896449642935 9.965264228086389e-10 -0.8391567518054149
6.037671089172363 2.120148181915283 -7.684497356414795 0.6011713120573628 0.23356275157143822 -0.7642260756069552
7.071067810058594 6.123233998228043e-16 -7.071067810058594 0.7071067811865476 -1.5915967705279218e-9 -0.7071067811865476
8.314696311950684 6.123233998228043e-16 -5.555702209472656 0.8391567518054149 -1.5476658934512177e-9 -0.5438896449642935
7.684497356414795 2.120148181915283 -6.037671089172363 0.7642261277842199 0.2335627493014828 -0.6011712466100403
6.357108116149902 4.378852367401123 -6.357108116149902 0.632736562282517 0.4464178373472605 -0.632736562282517
9.238795280456543 6.123233998228043e-16 -3.8268344402313232 0.932976962214385 3.3487901379546005e-9 -0.359936088739679
8.884476661682129 2.084592819213867 -4.089075565338135 0.8841507328125958 0.2241061153779882 -0.40994381409790503
9.807852745056152 6.123233998228043e-16 -1.9509031772613525 0.9861362665964795 1.3998915487270587e-9 -0.16593752951986837
9.581864356994629 2.0233471393585205 -2.0233471393585205 0.9554945332969552 0.20860272869695856 -0.20860272869695856
7.941044807434082 4.297662734985352 -4.297662734985352 0.7871379215425054 0.43612721336196425 -0.43612721336196425
8.884476661682129 4.089075565338135 -2.084592819213867 0.8841507436145106 0.40994378930397996 -0.22410611811595477
6.123233998228043e-16 5.555702209472656 -8.314696311950684 9.965264228086389e-10 0.5438896449642935 -0.8391567518054149
2.120148181915283 6.037671089172363 -7.684497356414795 0.23356275157143822 0.6011713120573628 -0.7642260756069552
6.123233998228043e-16 7.071067810058594 -7.071067810058594 -1.5915967705279218e-9 0.7071067811865476 -0.7071067811865476
4.378852367401123 6.357108116149902 -6.357108116149902 0.4464178373472605 0.632736562282517 -0.632736562282517
6.123233998228043e-16 8.314696311950684 -5.555702209472656 -1.5476658934512177e-9 0.8391567518054149 -0.5438896449642935
2.120148181915283 7.684497356414795 -6.037671089172363 0.2335627493014828 0.7642261277842199 -0.6011712466100403
6.123233998228043e-16 9.238795280456543 -3.8268344402313232 3.3487901379546005e-9 0.932976962214385 -0.359936088739679
2.084592819213867 8.884476661682129 -4.089075565338135 0.2241061153779882 0.8841507328125958 -0.40994381409790503
4.297662734985352 7.941044807434082 -4.297662734985352 0.43612725228888244 0.7871378784062543 -0.43612725228888244
6.123233998228043e-16 9.807852745056152 -1.9509031772613525 6.760667070834742e-10 0.9861362641580977 -0.16593754401072225
2.0233471393585205 9.581864356994629 -2.0233471393585205 0.20860272869695856 0.9554945332969552 -0.20860272869695856
4.089075565338135 8.884476661682129 -2.084592819213867 0.40994378930397996 0.8841507436145106 -0.22410611811595477
6.357108116149902 6.357108116149902 -4.378852367401123 0.6327365707006265 0.6327365707006265 -0.4464178134842093
7.684497356414795 6.037671089172363 -2.120148181915283 0.764226070287397 0.601171307872782 -0.23356277974799702
6.037671089172363 7.684497356414795 -2.120148181915283 0.601171307872782 0.764226070287397 -0.23356277974799702
-10 6.123233998228043e-16 6.123233998228043e-16 -1 -9.046949300817175e-10 -9.046949300817175e-10
-9.807852745056152 6.123233998228043e-16 1.9509031772613525 -0.9861362641580977 8.739564685237914e-10 0.16593754401072225
-9.807852745056152 1.9509031772613525 6.123233998228043e-16 -0.9861362641580977 0.16593754401072225 8.739564685237914e-10
-9.581864356994629 2.0233471393585205 2.0233471393585205 -0.9554945273567927 0.20860274230126877 0.20860274230126877
-9.238795280456543 6.123233998228043e-16 3.8268344402313232 -0.932976962214385 3.3487901379546005e-9 0.359936088739679
-8.884476661682129 2.084592819213867 4.089075565338135 -0.8841507436145106 0.22410611811595477 0.40994378930397996
-9.238795280456543 3.8268344402313232 6.123233998228043e-16 -0.9329769522064049 0.3599361146809913 3.148121067010234e-9
-8.884476661682129 4.089075565338135 2.084592819213867 -0.8841507436145106 0.40994378930397996 0.22410611811595477
-7.941044807434082 4.297662734985352 4.297662734985352 -0.7871379420043191 0.4361271948968587 0.4361271948968587
-8.314696311950684 6.123233998228043e-16 5.555702209472656 -0.8391567518054149 9.965264228086389e-10 0.5438896449642935
-7.684497356414795 2.120148181915283 6.037671089172363 -0.7642260756069552 0.23356275157143822 0.6011713120573628
-7.071067810058594 6.123233998228043e-16 7.071067810058594 -0.7071067811865476 -1.5915967705279218e-9 0.7071067811865476
-5.555702209472656 6.123233998228043e-16 8.314696311950684 -0.5438896449642935 -1.5476658934512177e-9 0.8391567518054149
-6.037671089172363 2.120148181915283 7.684497356414795 -0.6011712466100403 0.2335627493014828 0.7642261277842199
-6.357108116149902 4.378852367401123 6.357108116149902 -0.632736562282517 0.4464178373472605 0.632736562282517
-3.8268344402313232 6.123233998228043e-16 9.238795280456543 -0.359936088739679 3.3487901379546005e-9 0.932976962214385
-4.089075565338135 2.084592819213867 8.884476661682129 -0.40994381409790503 0.2241061153779882 0.8841507328125958
-1.9509031772613525 6.123233998228043e-16 9.807852745056152 -0.16593752951986837 1.3998915487270587e-9 0.9861362665964795
-2.0233471393585205 2.0233471393585205 9.581864356994629 -0.20860272869695856 0.20860272869695856 0.9554945332969552
-4.297662734985352 4.297662734985352 7.941044807434082 -0.43612721336196425 0.43612721336196425 0.7871379215425054
-2.084592819213867 4.089075565338135 8.884476661682129 -0.22410611811595477 0.40994378930397996 0.8841507436145106
-8.314696311950684 5.555702209472656 6.123233998228043e-16 -0.8391567518054149 0.5438896449642935 9.965264228086389e-10
-7.684497356414795 6.037671089172363 2.120148181915283 -0.7642260756069552 0.6011713120573628 0.23356275157143822
-7.071067810058594 7.071067810058594 6.123233998228043e-16 -0.7071067811865476 0.7071067811865476 -1.5915967705279218e-9
-6.357108116149902 6.357108116149902 4.378852367401123 -0.632736562282517 0.632736562282517 0.4464178373472605
-5.555702209472656 8.314696311950684 6.123233998228043e-16 -0.5438896449642935 0.8391567518054149 -1.5476658934512177e-9
-6.037671089172363 7.684497356414795 2.120148181915283 -0.6011712466100403 0.7642261277842199 0.2335627493014828
-3.8268344402313232 9.238795280456543 6.123233998228043e-16 -0.359936088739679 0.932976962214385 3.3487901379546005e-9
-4.089075565338135 8.884476661682129 2.084592819213867 -0.40994381409790503 0.8841507328125958 0.2241061153779882
-1.9509031772613525 9.807852745056152 6.123233998228043e-16 -0.16593752951986837 0.9861362665964795 1.3998915487270587e-9
-2.0233471393585205 9.581864356994629 2.0233471393585205 -0.20860272869695856 0.9554945332969552 0.20860272869695856
-4.297662734985352 7.941044807434082 4.297662734985352 -0.43612721336196425 0.7871379215425054 0.43612721336196425
-2.084592819213867 8.884476661682129 4.089075565338135 -0.22410611811595477 0.8841507436145106 0.40994378930397996
-4.378852367401123 6.357108116149902 6.357108116149902 -0.4464178134842093 0.6327365707006265 0.6327365707006265
-2.120148181915283 6.037671089172363 7.684497356414795 -0.23356277974799702 0.601171307872782 0.764226070287397
-2.120148181915283 7.684497356414795 6.037671089172363 -0.23356277974799702 0.764226070287397 0.601171307872782
9.807852745056152 6.123233998228043e-16 1.9509031772613525 0.9861362641580977 8.739564685237914e-10 0.16593754401072225
9.807852745056152 1.9509031772613525 6.123233998228043e-16 0.9861362641580977 0.16593754401072225 8.739564685237914e-10
9.581864356994629 2.0233471393585205 2.0233471393585205 0.9554945273567927 0.20860274230126877 0.20860274230126877
9.238795280456543 6.123233998228043e-16 3.8268344402313232 0.932976962214385 3.3487901379546005e-9 0.359936088739679
8.884476661682129 2.084592819213867 4.089075565338135 0.8841507436145106 0.22410611811595477 0.40994378930397996
9.238795280456543 3.8268344402313232 6.123233998228043e-16 0.9329769522064049 0.3599361146809913 3.148121067010234e-9
8.884476661682129 4.089075565338135 2.084592819213867 0.8841507436145106 0.40994378930397996 0.22410611811595477
7.941044807434082 4.297662734985352 4.297662734985352 0.7871379420043191 0.4361271948968587 0.4361271948968587
6.123233998228043e-16 6.123233998228043e-16 10 -9.046949300817175e-10 -9.046949300817175e-10 1
1.9509031772613525 6.123233998228043e-16 9.807852745056152 0.16593754401072225 8.739564685237914e-10 0.9861362641580977
6.123233998228043e-16 1.9509031772613525 9.807852745056152 8.739564685237914e-10 0.16593754401072225 0.9861362641580977
2.0233471393585205 2.0233471393585205 9.581864356994629 0.20860274230126877 0.20860274230126877 0.9554945273567927
3.8268344402313232 6.123233998228043e-16 9.238795280456543 0.359936088739679 3.3487901379546005e-9 0.932976962214385
4.089075565338135 2.084592819213867 8.884476661682129 0.40994378930397996 0.22410611811595477 0.8841507436145106
6.123233998228043e-16 3.8268344402313232 9.238795280456543 3.148121067010234e-9 0.3599361146809913 0.9329769522064049
2.084592819213867 4.089075565338135 8.884476661682129 0.22410611811595477 0.40994378930397996 0.8841507436145106
4.297662734985352 4.297662734985352 7.941044807434082 0.4361271948968587 0.4361271948968587 0.7871379420043191
7.071067810058594 6.123233998228043e-16 7.071067810058594 0.7071067811865476 4.048442539436491e-9 0.7071067811865476
8.314696311950684 6.123233998228043e-16 5.555702209472656 0.8391567518054149 9.965264228086389e-10 0.5438896449642935
7.684497356414795 2.120148181915283 6.037671089172363 0.7642261277842199 0.2335627493014828 0.6011712466100403
5.555702209472656 6.123233998228043e-16 8.314696311950684 0.5438896449642935 9.965264228086389e-10 0.8391567518054149
6.037671089172363 2.120148181915283 7.684497356414795 0.6011712466100403 0.2335627493014828 0.7642261277842199
6.357108116149902 4.378852367401123 6.357108116149902 0.632736562282517 0.4464178373472605 0.632736562282517
6.123233998228043e-16 10 6.123233998228043e-16 -9.046949300817175e-10 1 -9.046949300817175e-10
1.9509031772613525 9.807852745056152 6.123233998228043e-16 0.16593754401072225 0.9861362641580977 8.739564685237914e-10
6.123233998228043e-16 9.807852745056152 1.9509031772613525 8.739564685237914e-10 0.9861362641580977 0.16593754401072225
2.0233471393585205 9.581864356994629 2.0233471393585205 0.20860274230126877 0.9554945273567927 0.20860274230126877
3.8268344402313232 9.238795280456543 6.123233998228043e-16 0.359936088739679 0.932976962214385 3.3487901379546005e-9
4.089075565338135 8.884476661682129 2.084592819213867 0.40994378930397996 0.8841507436145106 0.22410611811595477
6.123233998228043e-16 9.238795280456543 3.8268344402313232 3.148121067010234e-9 0.9329769522064049 0.3599361146809913
2.084592819213867 8.884476661682129 4.089075565338135 0.22410611811595477 0.8841507436145106 0.40994378930397996
4.297662734985352 7.941044807434082 4.297662734985352 0.4361271948968587 0.7871379420043191 0.4361271948968587
7.071067810058594 7.071067810058594 6.123233998228043e-16 0.7071067811865476 0.7071067811865476 4.048442539436491e-9
8.314696311950684 5.555702209472656 6.123233998228043e-16 0.8391567518054149 0.5438896449642935 9.965264228086389e-10
7.684497356414795 6.037671089172363 2.120148181915283 0.7642261277842199 0.6011712466100403 0.2335627493014828
6.357108116149902 6.357108116149902 4.378852367401123 0.632736562282517 0.632736562282517 0.4464178373472605
5.555702209472656 8.314696311950684 6.123233998228043e-16 0.5438896449642935 0.8391567518054149 9.965264228086389e-10
6.037671089172363 7.684497356414795 2.120148181915283 0.6011713099650724 0.7642260729471761 0.2335627656597177
6.123233998228043e-16 7.071067810058594 7.071067810058594 4.048442539436491e-9 0.7071067811865476 0.7071067811865476
4.378852367401123 6.357108116149902 6.357108116149902 0.4464178373472605 0.632736562282517 0.632736562282517
6.123233998228043e-16 5.555702209472656 8.314696311950684 9.965264228086389e-10 0.5438896449642935 0.8391567518054149
2.120148181915283 6.037671089172363 7.684497356414795 0.2335627656597177 0.6011713099650724 0.7642260729471761
6.123233998228043e-16 8.314696311950684 5.555702209472656 9.965264228086389e-10 0.8391567518054149 0.5438896449642935
2.120148181915283 7.684497356414795 6.037671089172363 0.2335627656597177 0.7642260729471761 0.6011713099650724
17.879852294921875 -7.684497356414795 -6.037671089172363 -0.23356277974799702 -0.764226070287397 -0.601171307872782
17.879852294921875 -6.037671089172363 -7.684497356414795 -0.23356277974799702 -0.601171307872782 -0.764226070287397
15.621148109436035 -6.357108116149902 -6.357108116149902 -0.4464178134842093 -0.6327365707006265 -0.6327365707006265
13.962328910827637 -7.684497356414795 -2.120148181915283 -0.601171307872782 -0.764226070287397 -0.23356277974799702
13.642891883850098 -6.357108116149902 -4.378852367401123 -0.6327365181228111 -0.6327365777274572 -0.44641787804653055
12.315502166748047 -6.037671089172363 -2.120148181915283 -0.7642261251244409 -0.6011712445177503 -0.23356276338976217
15.702337265014648 -7.941044807434082 -4.297662734985352 -0.4361272409516624 -0.7871378579444388 -0.43612730055630655
17.915407180786133 -8.884476661682129 -4.089075565338135 -0.2241061153779882 -0.8841507328125958 -0.40994381409790503
15.910923957824707 -8.884476661682129 -2.084592819213867 -0.4099438154668883 -0.8841507357651651 -0.22410610122521632
17.976652145385742 -9.581864356994629 -2.0233471393585205 -0.20860272934538407 -0.9554945362670363 -0.20860271444422265
13.642891883850098 -4.378852367401123 -6.357108116149902 -0.6327365181228111 -0.44641787804653055 -0.6327365777274572
13.962328910827637 -2.120148181915283 -7.684497356414795 -0.6011713057804913 -0.2335627938362762 -0.7642260676276176
12.315502166748047 -2.120148181915283 -6.037671089172363 -0.7642261251244409 -0.23356276338976217 -0.6011712445177503
15.702337265014648 -4.297662734985352 -7.941044807434082 -0.4361272409516624 -0.43612730055630655 -0.7871378579444388
17.915407180786133 -4.089075565338135 -8.884476661682129 -0.2241061153779882 -0.40994381409790503 -0.8841507328125958
15.910923957824707 -2.084592819213867 -8.884476661682129 -0.4099438154668883 -0.22410610122521632 -0.8841507357651651
17.976652145385742 -2.0233471393585205 -9.581864356994629 -0.20860272934538407 -0.20860271444422265 -0.9554945362670363
12.058955192565918 -4.297662734985352 -4.297662734985352 -0.7871378784062543 -0.43612725228888244 -0.43612725228888244
11.115523338317871 -4.089075565338135 -2.084592819213867 -0.8841507652183388 -0.40994373971612696 -0.2241061235918876
11.115523338317871 -2.084592819213867 -4.089075565338135 -0.8841507652183388 -0.2241061235918876 -0.40994373971612696
10.418135643005371 -2.0233471393585205 -2.0233471393585205 -0.9554945273567927 -0.20860274230126877 -0.20860274230126877
20 -8.314696311950684 -5.555702209472656 -1.5476660546462978e-9 -0.8391567790094915 -0.5438896029916508
22.120147705078125 -7.684497356414795 -6.037671089172363 0.23356275157143822 -0.7642260756069552 -0.6011713120573628
20 -5.555702209472656 -8.314696311950684 -1.5476660546462978e-9 -0.5438896029916508 -0.8391567790094915
22.120147705078125 -6.037671089172363 -7.684497356414795 0.23356275157143822 -0.6011713120573628 -0.7642260756069552
20 -7.071067810058594 -7.071067810058594 -1.6698172019996656e-9 -0.7071067811865476 -0.7071067811865476
24.37885284423828 -6.357108116149902 -6.357108116149902 0.4464177011957781 -0.6327366401146534 -0.632736580510007
20 -9.238795280456543 -3.8268344402313232 3.348789657943152e-9 -0.9329769522064049 -0.3599361146809913
22.084592819213867 -8.884476661682129 -4.089075565338135 0.22410612953075992 -0.8841507298600263 -0.4099438127289217
24.29766273498535 -7.941044807434082 -4.297662734985352 0.43612720423736684 -0.7871379646787504 -0.4361271446327236
20 -9.807852745056152 -1.9509031772613525 6.760665422217035e-10 -0.9861362665964795 -0.16593752951986837
22.023347854614258 -9.581864356994629 -2.0233471393585205 0.20860277015831422 -0.9554945184465486 -0.20860275525715308
24.089075088500977 -8.884476661682129 -2.084592819213867 0.4099438839206012 -0.884150695245841 -0.22410613586510442
26.037670135498047 -7.684497356414795 -2.120148181915283 0.6011711874395836 -0.7642261879408152 -0.23356270476668714
26.35710906982422 -6.357108116149902 -4.378852367401123 0.6327365482288454 -0.6327366674381321 -0.4464177082226157
27.684497833251953 -6.037671089172363 -2.120148181915283 0.7642260359421359 -0.6011714469521335 -0.23356253414802475
20 -3.8268344402313232 -9.238795280456543 3.348789657943152e-9 -0.3599361146809913 -0.9329769522064049
22.084592819213867 -4.089075565338135 -8.884476661682129 0.22410612953075992 -0.4099438127289217 -0.8841507298600263
24.29766273498535 -4.297662734985352 -7.941044807434082 0.43612720423736684 -0.4361271446327236 -0.7871379646787504
20 -1.9509031772613525 -9.807852745056152 6.760665422217035e-10 -0.16593752951986837 -0.9861362665964795
22.023347854614258 -2.0233471393585205 -9.581864356994629 0.20860277015831422 -0.20860275525715308 -0.9554945184465486
24.089075088500977 -2.084592819213867 -8.884476661682129 0.4099438839206012 -0.22410613586510442 -0.884150695245841
26.35710906982422 -4.378852367401123 -6.357108116149902 0.6327365482288454 -0.4464177082226157 -0.6327366674381321
26.037670135498047 -2.120148181915283 -7.684497356414795 0.6011711874395836 -0.23356270476668714 -0.7642261879408152
27.684497833251953 -2.120148181915283 -6.037671089172363 0.7642260359421359 -0.23356253414802475 -0.6011714469521335
27.9410457611084 -4.297662734985352 -4.297662734985352 0.7871378784062543 -0.43612725228888244 -0.43612725228888244
28.884477615356445 -4.089075565338135 -2.084592819213867 0.8841506845164235 -0.4099439981551065 -0.22410596923274018
28.884477615356445 -2.084592819213867 -4.089075565338135 0.8841506845164235 -0.22410596923274018 -0.4099439981551065
29.581865310668945 -2.0233471393585205 -2.0233471393585205 0.9554945273567927 -0.20860274230126877 -0.20860274230126877
14.444297790527344 -8.314696311950684 6.123233998228043e-16 -0.5438895757875755 -0.8391567966414923 2.1365170493482163e-10
13.962328910827637 -7.684497356414795 2.120148181915283 -0.601171307872782 -0.764226070287397 0.23356277974799702
11.685303688049316 -5.555702209472656 6.123233998228043e-16 -0.8391568238455664 -0.5438895338149291 -1.54766602740846e-9
12.315502166748047 -6.037671089172363 2.120148181915283 -0.7642261251244409 -0.6011712445177503 0.23356276338976217
12.928932189941406 -7.071067810058594 6.123233998228043e-16 -0.7071067513842252 -0.7071068109888685 -3.7170072755181196e-9
13.642891883850098 -6.357108116149902 4.378852367401123 -0.6327365181228111 -0.6327365777274572 0.44641787804653055
16.173166275024414 -9.238795280456543 6.123233998228043e-16 -0.3599361146809913 -0.9329769522064049 2.4805477434507104e-9
15.910923957824707 -8.884476661682129 2.084592819213867 -0.40994384026081254 -0.88415072496325 0.2241060984872498
18.049097061157227 -9.807852745056152 6.123233998228043e-16 -0.16593754401072225 -0.9861362641580977 -8.726138758112496e-10
17.976652145385742 -9.581864356994629 2.0233471393585205 -0.20860272934538407 -0.9554945362670363 0.20860271444422265
15.702337265014648 -7.941044807434082 4.297662734985352 -0.4361272224865592 -0.7871378784062535 0.43612728209120494
17.915407180786133 -8.884476661682129 4.089075565338135 -0.22410611264002153 -0.8841507220106807 0.4099438388918292
17.879852294921875 -7.684497356414795 6.037671089172363 -0.2335627656597177 -0.7642260729471761 0.6011713099650724
15.621148109436035 -6.357108116149902 6.357108116149902 -0.4464178134842093 -0.6327365707006265 0.6327365707006265
17.879852294921875 -6.037671089172363 7.684497356414795 -0.23356277974799702 -0.601171307872782 0.764226070287397
10.761204719543457 -3.8268344402313232 6.123233998228043e-16 -0.932976962214385 -0.359936088739679 3.3487901379546005e-9
11.115523338317871 -4.089075565338135 2.084592819213867 -0.8841507652183388 -0.40994373971612696 0.2241061235918876
12.058955192565918 -4.297662734985352 4.297662734985352 -0.7871378784062543 -0.43612725228888244 0.43612725228888244
10.192147254943848 -1.9509031772613525 6.123233998228043e-16 -0.9861362641580977 -0.16593754401072225 6.760667070834742e-10
10.418135643005371 -2.0233471393585205 2.0233471393585205 -0.9554945332969552 -0.20860272869695856 0.20860272869695856
11.115523338317871 -2.084592819213867 4.089075565338135 -0.8841507652183388 -0.2241061235918876 0.40994373971612696
13.642891883850098 -4.378852367401123 6.357108116149902 -0.6327364416819415 -0.44641792577262596 0.6327366204958751
12.315502166748047 -2.120148181915283 6.037671089172363 -0.764226070287397 -0.23356277974799702 0.601171307872782
13.962328910827637 -2.120148181915283 7.684497356414795 -0.6011713057804913 -0.2335627938362762 0.7642260676276176
15.702337265014648 -4.297662734985352 7.941044807434082 -0.4361272409516624 -0.43612730055630655 0.7871378579444388
17.915407180786133 -4.089075565338135 8.884476661682129 -0.2241061153779882 -0.40994381409790503 0.8841507328125958
15.910923957824707 -2.084592819213867 8.884476661682129 -0.4099438154668883 -0.22410610122521632 0.8841507357651651
17.976652145385742 -2.0233471393585205 9.581864356994629 -0.20860272934538407 -0.20860271444422265 0.9554945362670363
20 -10 6.123233998228043e-16 -9.046950966151712e-10 -1 1.3142909070090747e-12
21.950902938842773 -9.807852745056152 6.123233998228043e-16 0.16593754401072225 -0.9861362641580977 -1.4208554426887727e-9
20 -9.807852745056152 1.9509031772613525 8.739563019903367e-10 -0.9861362641580977 0.16593754401072225
22.023347854614258 -9.581864356994629 2.0233471393585205 0.20860275720243 -0.9554945273567925 0.20860272740010746
23.826833724975586 -9.238795280456543 6.123233998228043e-16 0.3599361406223028 -0.9329769421984243 -3.4917708015680748e-9
24.089075088500977 -8.884476661682129 2.084592819213867 0.40994388528958486 -0.8841506981984105 0.22410612171233232
20 -9.238795280456543 3.8268344402313232 3.1481204008764254e-9 -0.9329769522064049 0.3599361146809913
22.084592819213867 -8.884476661682129 4.089075565338135 0.2241061527558439 -0.8841507030951875 0.40994385775769354
24.29766273498535 -7.941044807434082 4.297662734985352 0.43612718010365303 -0.7871379749096571 0.43612715030133103
25.555702209472656 -8.314696311950684 6.123233998228043e-16 0.5438895757875755 -0.8391567966414923 1.3581895449124164e-9
26.037670135498047 -7.684497356414795 2.120148181915283 0.6011712169160812 -0.7642261658075441 0.23356270131752221
27.071067810058594 -7.071067810058594 6.123233998228043e-16 0.7071067513842252 -0.7071068109888685 3.096100243062026e-10
28.314695358276367 -5.555702209472656 6.123233998228043e-16 0.8391566349291562 -0.5438898252903567 -3.5878123006015135e-9
27.684497833251953 -6.037671089172363 2.120148181915283 0.7642260359421359 -0.6011714469521335 0.23356253414802475
26.35710906982422 -6.357108116149902 4.378852367401123 0.6327365040691422 -0.6327366828830765 0.44641774892188313
20 -8.314696311950684 5.555702209472656 9.965266448532453e-10 -0.8391567518054149 0.5438896449642935
22.120147705078125 -7.684497356414795 6.037671089172363 0.23356275157143822 -0.7642260756069552 0.6011713120573628
20 -7.071067810058594 7.071067810058594 -1.591597103594835e-9 -0.7071067811865476 0.7071067811865476
24.37885284423828 -6.357108116149902 6.357108116149902 0.4464177082226172 -0.632736607833491 0.632736607833491
20 -5.555702209472656 8.314696311950684 -1.5476660546462978e-9 -0.5438896029916508 0.8391567790094915
22.120147705078125 -6.037671089172363 7.684497356414795 0.23356275157143822 -0.6011713120573628 0.7642260756069552
29.23879623413086 -3.8268344402313232 6.123233998228043e-16 0.9329768466904991 -0.359936388184708 9.702284580884622e-10
28.884477615356445 -4.089075565338135 2.084592819213867 0.8841506786112883 -0.40994399541714027 0.22410599753828578
27.9410457611084 -4.297662734985352 4.297662734985352 0.7871378784062543 -0.43612725228888244 0.43612725228888244
29.80785369873047 -1.9509031772613525 6.123233998228043e-16 0.9861362901831325 -0.16593738934866023 -2.3770174064936976e-9
29.581865310668945 -2.0233471393585205 2.0233471393585205 0.9554945332969552 -0.20860272869695856 0.20860272869695856
28.884477615356445 -2.084592819213867 4.089075565338135 0.8841506786112883 -0.22410599753828578 0.40994399541714027
20 -3.8268344402313232 9.238795280456543 3.348789657943152e-9 -0.3599361146809913 0.9329769522064049
22.084592819213867 -4.089075565338135 8.884476661682129 0.22410612953075992 -0.4099438127289217 0.8841507298600263
24.29766273498535 -4.297662734985352 7.941044807434082 0.43612720423736684 -0.4361271446327236 0.7871379646787504
20 -1.9509031772613525 9.807852745056152 6.760665422217035e-10 -0.16593752951986837 0.9861362665964795
22.023347854614258 -2.0233471393585205 9.581864356994629 0.20860277015831422 -0.20860275525715308 0.9554945184465486
24.089075088500977 -2.084592819213867 8.884476661682129 0.4099438839206012 -0.22410613586510442 0.884150695245841
26.35710906982422 -4.378852367401123 6.357108116149902 0.6327364886241954 -0.4464177082226109 0.6327367270427686
27.684497833251953 -2.120148181915283 6.037671089172363 0.7642260058981453 -0.2335625398671502 0.6011714829229459
26.037670135498047 -2.120148181915283 7.684497356414795 0.6011711895318731 -0.23356269067840735 0.764226190600594
14.444297790527344 6.123233998228043e-16 -8.314696311950684 -0.5438895757875755 2.1365170493482163e-10 -0.8391567966414923
13.962328910827637 2.120148181915283 -7.684497356414795 -0.601171307872782 0.23356277974799702 -0.764226070287397
11.685303688049316 6.123233998228043e-16 -5.555702209472656 -0.8391568238455664 -1.54766602740846e-9 -0.5438895338149291
12.315502166748047 2.120148181915283 -6.037671089172363 -0.7642261251244409 0.23356276338976217 -0.6011712445177503
12.928932189941406 6.123233998228043e-16 -7.071067810058594 -0.7071067513842252 -3.7170072755181196e-9 -0.7071068109888685
13.642891883850098 4.378852367401123 -6.357108116149902 -0.6327365181228111 0.44641787804653055 -0.6327365777274572
16.173166275024414 6.123233998228043e-16 -9.238795280456543 -0.3599361146809913 2.4805477434507104e-9 -0.9329769522064049
15.910923957824707 2.084592819213867 -8.884476661682129 -0.40994384026081254 0.2241060984872498 -0.88415072496325
18.049097061157227 6.123233998228043e-16 -9.807852745056152 -0.16593754401072225 -8.726138758112496e-10 -0.9861362641580977
17.976652145385742 2.0233471393585205 -9.581864356994629 -0.20860272934538407 0.20860271444422265 -0.9554945362670363
15.702337265014648 4.297662734985352 -7.941044807434082 -0.4361272224865592 0.43612728209120494 -0.7871378784062535
17.915407180786133 4.089075565338135 -8.884476661682129 -0.22410611264002153 0.4099438388918292 -0.8841507220106807
10.761204719543457 6.123233998228043e-16 -3.8268344402313232 -0.932976962214385 3.3487901379546005e-9 -0.359936088739679
11.115523338317871 2.084592819213867 -4.089075565338135 -0.8841507652183388 0.2241061235918876 -0.40994373971612696
10.192147254943848 6.123233998228043e-16 -1.9509031772613525 -0.9861362665964795 1.3998915487270587e-9 -0.16593752951986837
10.418135643005371 2.0233471393585205 -2.0233471393585205 -0.9554945332969552 0.20860272869695856 -0.20860272869695856
12.058955192565918 4.297662734985352 -4.297662734985352 -0.7871379215425054 0.43612721336196425 -0.43612721336196425
11.115523338317871 4.089075565338135 -2.084592819213867 -0.8841507652183388 0.40994373971612696 -0.2241061235918876
17.879852294921875 6.037671089172363 -7.684497356414795 -0.2335627656597177 0.6011713099650724 -0.7642260729471761
15.621148109436035 6.357108116149902 -6.357108116149902 -0.4464178134842093 0.6327365707006265 -0.6327365707006265
17.879852294921875 7.684497356414795 -6.037671089172363 -0.23356277974799702 0.764226070287397 -0.601171307872782
13.642891883850098 6.357108116149902 -4.378852367401123 -0.6327364416819415 0.6327366204958751 -0.44641792577262596
12.315502166748047 6.037671089172363 -2.120148181915283 -0.764226070287397 0.601171307872782 -0.23356277974799702
13.962328910827637 7.684497356414795 -2.120148181915283 -0.6011713057804913 0.7642260676276176 -0.2335627938362762
15.702337265014648 7.941044807434082 -4.297662734985352 -0.4361272409516624 0.7871378579444388 -0.43612730055630655
17.915407180786133 8.884476661682129 -4.089075565338135 -0.2241061153779882 0.8841507328125958 -0.40994381409790503
15.910923957824707 8.884476661682129 -2.084592819213867 -0.4099438154668883 0.8841507357651651 -0.22410610122521632
17.976652145385742 9.581864356994629 -2.0233471393585205 -0.20860272934538407 0.9554945362670363 -0.20860271444422265
20 6.123233998228043e-16 -10 -9.046950966151712e-10 1.3142909070090747e-12 -1
21.950902938842773 6.123233998228043e-16 -9.807852745056152 0.16593754401072225 -1.4208554426887727e-9 -0.9861362641580977
20 1.9509031772613525 -9.807852745056152 8.739563019903367e-10 0.16593754401072225 -0.9861362641580977
22.023347854614258 2.0233471393585205 -9.581864356994629 0.20860275720243 0.20860272740010746 -0.9554945273567925
23.826833724975586 6.123233998228043e-16 -9.238795280456543 0.3599361406223028 -3.4917708015680748e-9 -0.9329769421984243
24.089075088500977 2.084592819213867 -8.884476661682129 0.40994388528958486 0.22410612171233232 -0.8841506981984105
20 3.8268344402313232 -9.238795280456543 3.1481204008764254e-9 0.3599361146809913 -0.9329769522064049
22.084592819213867 4.089075565338135 -8.884476661682129 0.2241061527558439 0.40994385775769354 -0.8841507030951875
24.29766273498535 4.297662734985352 -7.941044807434082 0.43612718010365303 0.43612715030133103 -0.7871379749096571
25.555702209472656 6.123233998228043e-16 -8.314696311950684 0.5438895757875755 1.3581895449124164e-9 -0.8391567966414923
26.037670135498047 2.120148181915283 -7.684497356414795 0.6011712169160812 0.23356270131752221 -0.7642261658075441
27.071067810058594 6.123233998228043e-16 -7.071067810058594 0.7071067513842252 3.096100243062026e-10 -0.7071068109888685
28.314695358276367 6.123233998228043e-16 -5.555702209472656 0.8391566349291562 -3.5878123006015135e-9 -0.5438898252903567
27.684497833251953 2.120148181915283 -6.037671089172363 0.7642260359421359 0.23356253414802475 -0.6011714469521335
26.35710906982422 4.378852367401123 -6.357108116149902 0.6327365040691422 0.44641774892188313 -0.6327366828830765
29.23879623413086 6.123233998228043e-16 -3.8268344402313232 0.9329768466904991 9.702284580884622e-10 -0.359936388184708
28.884477615356445 2.084592819213867 -4.089075565338135 0.8841506786112883 0.22410599753828578 -0.40994399541714027
29.80785369873047 6.123233998228043e-16 -1.9509031772613525 0.9861362926215118 -2.3710521842089404e-9 -0.1659373748578061
29.581865310668945 2.0233471393585205 -2.0233471393585205 0.9554945332969552 0.20860272869695856 -0.20860272869695856
27.9410457611084 4.297662734985352 -4.297662734985352 0.7871379215425054 0.43612721336196425 -0.43612721336196425
28.884477615356445 4.089075565338135 -2.084592819213867 0.8841506786112883 0.40994399541714027 -0.22410599753828578
20 5.555702209472656 -8.314696311950684 9.965266448532453e-10 0.5438896449642935 -0.8391567518054149
22.120147705078125 6.037671089172363 -7.684497356414795 0.23356275157143822 0.6011713120573628 -0.7642260756069552
20 7.071067810058594 -7.071067810058594 -1.591597103594835e-9 0.7071067811865476 -0.7071067811865476
24.37885284423828 6.357108116149902 -6.357108116149902 0.4464177082226172 0.632736607833491 -0.632736607833491
20 8.314696311950684 -5.555702209472656 -1.5476660546462978e-9 0.8391567790094915 -0.5438896029916508
22.120147705078125 7.684497356414795 -6.037671089172363 0.23356275157143822 0.7642260756069552 -0.6011713120573628
20 9.238795280456543 -3.8268344402313232 3.348789657943152e-9 0.9329769522064049 -0.3599361146809913
22.084592819213867 8.884476661682129 -4.089075565338135 0.22410612953075992 0.8841507298600263 -0.4099438127289217
24.29766273498535 7.941044807434082 -4.297662734985352 0.43612720423736684 0.7871379646787504 -0.4361271446327236
20 9.807852745056152 -1.9509031772613525 6.760665422217035e-10 0.9861362665964795 -0.16593752951986837
22.023347854614258 9.581864356994629 -2.0233471393585205 0.20860277015831422 0.9554945184465486 -0.20860275525715308
24.089075088500977 8.884476661682129 -2.084592819213867 0.4099438839206012 0.884150695245841 -0.22410613586510442
26.35710906982422 6.357108116149902 -4.378852367401123 0.6327364886241954 0.6327367270427686 -0.4464177082226109
27.684497833251953 6.037671089172363 -2.120148181915283 0.7642260058981453 0.6011714829229459 -0.2335625398671502
26.037670135498047 7.684497356414795 -2.120148181915283 0.6011711895318731 0.764226190600594 -0.23356269067840735
10 6.123233998228043e-16 6.123233998228043e-16 1 -9.046949300817175e-10 -9.046949300817175e-10
10 6.123233998228043e-16 6.123233998228043e-16 -1 -9.046949300817175e-10 -9.046949300817175e-10
10.192147254943848 6.123233998228043e-16 1.9509031772613525 -0.9861362641580977 8.739564685237914e-10 0.16593754401072225
10.192147254943848 1.9509031772613525 6.123233998228043e-16 -0.9861362641580977 0.16593754401072225 8.739564685237914e-10
10.418135643005371 2.0233471393585205 2.0233471393585205 -0.9554945273567927 0.20860274230126877 0.20860274230126877
10.761204719543457 6.123233998228043e-16 3.8268344402313232 -0.932976962214385 3.3487901379546005e-9 0.359936088739679
11.115523338317871 2.084592819213867 4.089075565338135 -0.8841507622657688 0.22410613774465976 0.40994373834714376
10.761204719543457 3.8268344402313232 6.123233998228043e-16 -0.9329769522064049 0.3599361146809913 3.148121067010234e-9
11.115523338317871 4.089075565338135 2.084592819213867 -0.8841507622657688 0.40994373834714376 0.22410613774465976
12.058955192565918 4.297662734985352 4.297662734985352 -0.787137931773412 0.43612721903057283 0.4361271892282502
11.685303688049316 6.123233998228043e-16 5.555702209472656 -0.8391567966414923 1.6073626685706706e-9 0.5438895757875755
12.315502166748047 2.120148181915283 6.037671089172363 -0.7642260756069552 0.23356275157143822 0.6011713120573628
12.928932189941406 6.123233998228043e-16 7.071067810058594 -0.7071067513842252 6.644188921479887e-10 0.7071068109888685
14.444297790527344 6.123233998228043e-16 8.314696311950684 -0.5438895757875755 2.1365170493482163e-10 0.8391567966414923
13.962328910827637 2.120148181915283 7.684497356414795 -0.601171307872782 0.23356277974799702 0.764226070287397
13.642891883850098 4.378852367401123 6.357108116149902 -0.6327365012865906 0.4464179257726291 0.6327365608912351
16.173166275024414 6.123233998228043e-16 9.238795280456543 -0.3599361146809913 2.4805477434507104e-9 0.9329769522064049
15.910923957824707 2.084592819213867 8.884476661682129 -0.4099438168358715 0.22410608707244434 0.8841507387177344
18.049097061157227 6.123233998228043e-16 9.807852745056152 -0.16593754401072225 -8.726138758112496e-10 0.9861362641580977
17.976652145385742 2.0233471393585205 9.581864356994629 -0.20860272934538407 0.20860271444422265 0.9554945362670363
15.702337265014648 4.297662734985352 7.941044807434082 -0.4361272224865592 0.43612728209120494 0.7871378784062535
17.915407180786133 4.089075565338135 8.884476661682129 -0.22410613586510442 0.4099438839206012 0.884150695245841
11.685303688049316 5.555702209472656 6.123233998228043e-16 -0.8391567966414923 0.5438895757875755 1.6073626685706706e-9
12.315502166748047 6.037671089172363 2.120148181915283 -0.7642260756069552 0.6011713120573628 0.23356275157143822
12.928932189941406 7.071067810058594 6.123233998228043e-16 -0.7071067513842252 0.7071068109888685 6.644188921479887e-10
13.642891883850098 6.357108116149902 4.378852367401123 -0.6327365012865906 0.6327365608912351 0.4464179257726291
14.444297790527344 8.314696311950684 6.123233998228043e-16 -0.5438895757875755 0.8391567966414923 2.1365170493482163e-10
13.962328910827637 7.684497356414795 2.120148181915283 -0.6011713057804913 0.7642260676276176 0.2335627938362762
16.173166275024414 9.238795280456543 6.123233998228043e-16 -0.3599361146809913 0.9329769522064049 2.4805477434507104e-9
15.910923957824707 8.884476661682129 2.084592819213867 -0.4099438168358715 0.8841507387177344 0.22410608707244434
18.049097061157227 9.807852745056152 6.123233998228043e-16 -0.16593754401072225 0.9861362641580977 -8.726138758112496e-10
17.976652145385742 9.581864356994629 2.0233471393585205 -0.20860272934538407 0.9554945362670363 0.20860271444422265
15.702337265014648 7.941044807434082 4.297662734985352 -0.4361272224865592 0.7871378784062535 0.43612728209120494
17.915407180786133 8.884476661682129 4.089075565338135 -0.22410613586510442 0.884150695245841 0.4099438839206012
15.621148109436035 6.357108116149902 6.357108116149902 -0.44641778962115714 0.6327365791187357 0.6327365791187357
17.879852294921875 6.037671089172363 7.684497356414795 -0.2335627938362762 0.6011713057804913 0.7642260676276176
17.879852294921875 7.684497356414795 6.037671089172363 -0.2335627938362762 0.7642260676276176 0.6011713057804913
30 6.123233998228043e-16 6.123233998228043e-16 1 2.13273523841373e-10 2.13273523841373e-10
29.80785369873047 6.123233998228043e-16 1.9509031772613525 0.9861362926215118 3.3879191938294375e-9 0.1659373748578061
29.80785369873047 1.9509031772613525 6.123233998228043e-16 0.9861362926215118 0.1659373748578061 3.3879191938294375e-9
29.581865310668945 2.0233471393585205 2.0233471393585205 0.9554945273567927 0.20860274230126877 0.20860274230126877
29.23879623413086 6.123233998228043e-16 3.8268344402313232 0.9329768466904991 9.702284580884622e-10 0.359936388184708
28.884477615356445 2.084592819213867 4.089075565338135 0.8841506786112883 0.22410599753828578 0.40994399541714027
29.23879623413086 3.8268344402313232 6.123233998228043e-16 0.9329768366825119 0.35993641412601396 2.21639994000146e-9
28.884477615356445 4.089075565338135 2.084592819213867 0.8841506786112883 0.40994399541714027 0.22410599753828578
27.9410457611084 4.297662734985352 4.297662734985352 0.7871379420043191 0.4361271948968587 0.4361271948968587
20 6.123233998228043e-16 10 -9.046950966151712e-10 1.3142909070090747e-12 1
21.950902938842773 6.123233998228043e-16 9.807852745056152 0.16593754401072225 -1.4208554426887727e-9 0.9861362641580977
20 1.9509031772613525 9.807852745056152 8.739563019903367e-10 0.16593754401072225 0.9861362641580977
22.023347854614258 2.0233471393585205 9.581864356994629 0.20860275720243 0.20860272740010746 0.9554945273567925
23.826833724975586 6.123233998228043e-16 9.238795280456543 0.3599361406223028 -3.4917708015680748e-9 0.9329769421984243
24.089075088500977 2.084592819213867 8.884476661682129 0.40994384026081254 0.2241060984872498 0.88415072496325
20 3.8268344402313232 9.238795280456543 3.1481204008764254e-9 0.3599361146809913 0.9329769522064049
22.084592819213867 4.089075565338135 8.884476661682129 0.22410612953075992 0.4099438127289217 0.8841507298600263
24.29766273498535 4.297662734985352 7.941044807434082 0.43612718010365303 0.43612715030133103 0.7871379749096571
27.071067810058594 6.123233998228043e-16 7.071067810058594 0.7071067513842252 1.5624394719927965e-9 0.7071068109888685
28.314695358276367 6.123233998228043e-16 5.555702209472656 0.8391566349291562 1.8612483937776807e-9 0.5438898252903567
27.684497833251953 2.120148181915283 6.037671089172363 0.7642260359421359 0.23356253414802475 0.6011714469521335
25.555702209472656 6.123233998228043e-16 8.314696311950684 0.5438895757875755 1.3581895449124164e-9 0.8391567966414923
26.037670135498047 2.120148181915283 7.684497356414795 0.6011711895318731 0.23356269067840735 0.764226190600594
26.35710906982422 4.378852367401123 6.357108116149902 0.6327364528825947 0.44641772505882316 0.6327367509058225
20 10 6.123233998228043e-16 -9.046950966151712e-10 1 1.3142909070090747e-12
21.950902938842773 9.807852745056152 6.123233998228043e-16 0.16593754401072225 0.9861362641580977 -1.4208554426887727e-9
20 9.807852745056152 1.9509031772613525 8.739563019903367e-10 0.9861362641580977 0.16593754401072225
22.023347854614258 9.581864356994629 2.0233471393585205 0.20860275720243 0.9554945273567925 0.20860272740010746
23.826833724975586 9.238795280456543 6.123233998228043e-16 0.3599361406223028 0.9329769421984243 -3.4917708015680748e-9
24.089075088500977 8.884476661682129 2.084592819213867 0.40994384026081254 0.88415072496325 0.2241060984872498
20 9.238795280456543 3.8268344402313232 3.1481204008764254e-9 0.9329769522064049 0.3599361146809913
22.084592819213867 8.884476661682129 4.089075565338135 0.22410612953075992 0.8841507298600263 0.4099438127289217
24.29766273498535 7.941044807434082 4.297662734985352 0.43612718010365303 0.7871379749096571 0.43612715030133103
27.071067810058594 7.071067810058594 6.123233998228043e-16 0.7071067513842252 0.7071068109888685 1.5624394719927965e-9
28.314695358276367 5.555702209472656 6.123233998228043e-16 0.8391566349291562 0.5438898252903567 1.8612483937776807e-9
27.684497833251953 6.037671089172363 2.120148181915283 0.7642260359421359 0.6011714469521335 0.23356253414802475
26.35710906982422 6.357108116149902 4.378852367401123 0.6327364528825947 0.6327367509058225 0.44641772505882316
25.555702209472656 8.314696311950684 6.123233998228043e-16 0.5438895757875755 0.8391567966414923 1.3581895449124164e-9
26.037670135498047 7.684497356414795 2.120148181915283 0.6011711895318731 0.764226190600594 0.23356269067840735
20 7.071067810058594 7.071067810058594 4.048443427614926e-9 0.7071067811865476 0.7071067811865476
24.37885284423828 6.357108116149902 6.357108116149902 0.44641772505883265 0.6327366316965449 0.6327365720918994
20 5.555702209472656 8.314696311950684 9.965266448532453e-10 0.5438896449642935 0.8391567518054149
22.120147705078125 6.037671089172363 7.684497356414795 0.23356275157143822 0.6011713120573628 0.7642260756069552
20 8.314696311950684 5.555702209472656 9.965266448532453e-10 0.8391567518054149 0.5438896449642935
22.120147705078125 7.684497356414795 6.037671089172363 0.23356275157143822 0.7642260756069552 0.6011713120573628
3 4 2 6
3 10 13 2
3 4 17 10
3 4 10 2
3 0 21 7
3 0 25 21
3 1 14 23
3 1 23 25
3 2 1 0
3 2 0 6
3 2 13 1
3 0 1 25
3 3 8 49
3 3 49 53
3 5 4 3
3 3 4 6
3 5 17 4
3 5 51 18
3 5 53 51
3 5 3 53
3 8 7 9
3 0 7 6
3 3 6 8
3 6 7 8
3 7 21 27
3 7 27 9
3 9 27 30
3 8 9 55
3 8 55 49
3 9 57 55
3 9 30 57
3 57 30 77
3 12 11 10
3 10 11 13
3 12 10 17
3 11 113 15
3 11 117 113
3 12 19 115
3 12 115 117
3 12 117 11
3 1 13 14
3 15 16 14
3 11 15 13
3 13 15 14
3 14 36 23
3 14 16 36
3 16 39 36
3 15 119 16
3 15 113 119
3 16 119 121
3 16 121 39
3 121 141 39
3 5 18 17
3 12 17 19
3 18 20 19
3 17 18 19
3 18 51 64
3 18 64 20
3 20 64 67
3 19 20 125
3 19 125 115
3 20 127 125
3 20 67 127
3 67 177 127
3 21 25 22
3 21 22 28
3 23 24 25
3 23 37 24
3 22 25 24
3 22 24 26
3 22 26 29
3 24 38 26
3 26 34 29
3 26 38 42
3 26 42 34
3 34 42 45
3 21 28 27
3 27 31 30
3 27 28 31
3 28 32 31
3 22 29 28
3 28 29 32
3 29 33 32
3 30 31 78
3 30 78 77
3 31 32 81
3 31 81 78
3 32 86 81
3 32 33 86
3 33 88 86
3 29 34 33
3 33 34 35
3 34 45 35
3 33 35 88
3 35 46 89
3 35 89 88
3 23 36 37
3 36 39 40
3 36 40 37
3 24 37 38
3 37 40 41
3 37 41 38
3 38 41 43
3 39 142 40
3 39 141 142
3 40 145 41
3 40 142 145
3 41 145 150
3 38 43 42
3 42 43 44
3 42 44 45
3 41 150 43
3 43 150 152
3 43 152 44
3 44 153 47
3 44 152 153
3 35 45 46
3 44 47 45
3 45 47 46
3 46 47 48
3 46 98 89
3 46 48 98
3 48 101 98
3 47 156 48
3 47 153 156
3 48 156 158
3 48 158 101
3 101 158 434
3 49 50 53
3 49 56 50
3 51 53 52
3 51 52 65
3 52 53 50
3 52 50 54
3 50 59 54
3 52 54 66
3 49 55 56
3 55 57 58
3 55 58 56
3 57 77 79
3 57 79 58
3 56 58 60
3 50 56 59
3 56 60 59
3 59 60 61
3 58 83 60
3 58 79 83
3 60 83 92
3 54 59 62
3 54 70 66
3 54 62 70
3 70 62 73
3 60 92 61
3 61 92 94
3 59 61 62
3 62 61 63
3 62 63 73
3 61 94 63
3 63 96 74
3 63 94 96
3 51 65 64
3 64 68 67
3 64 65 68
3 52 66 65
3 65 69 68
3 65 66 69
3 66 71 69
3 67 68 178
3 67 178 177
3 68 69 181
3 68 181 178
3 69 186 181
3 66 70 71
3 71 70 72
3 70 73 72
3 69 71 186
3 71 188 186
3 71 72 188
3 72 75 189
3 72 189 188
3 63 74 73
3 72 73 75
3 73 74 75
3 75 74 76
3 74 96 104
3 74 104 76
3 76 104 107
3 75 76 192
3 75 192 189
3 76 194 192
3 76 107 194
3 194 107 221
3 77 78 79
3 79 78 80
3 78 81 80
3 81 86 82
3 80 81 82
3 79 80 83
3 80 84 83
3 83 84 92
3 80 82 84
3 84 82 85
3 82 87 85
3 84 85 93
3 86 88 87
3 82 86 87
3 87 88 90
3 88 89 90
3 89 99 90
3 85 87 91
3 87 90 91
3 91 90 100
3 92 93 94
3 84 93 92
3 93 97 94
3 85 95 93
3 93 95 97
3 97 95 106
3 94 97 96
3 96 97 105
3 85 91 95
3 95 91 110
3 91 100 110
3 95 110 106
3 89 98 99
3 98 101 102
3 98 102 99
3 90 99 100
3 99 103 100
3 99 102 103
3 100 103 111
3 101 213 102
3 101 434 213
3 102 216 103
3 102 213 216
3 103 216 231
3 96 105 104
3 104 108 107
3 104 105 108
3 97 106 105
3 105 106 109
3 106 112 109
3 105 109 108
3 107 108 222
3 107 222 221
3 108 109 225
3 108 225 222
3 109 233 225
3 100 111 110
3 106 110 112
3 110 111 112
3 112 111 230
3 103 231 111
3 111 231 230
3 109 112 233
3 112 230 233
3 113 117 114
3 113 114 120
3 115 116 117
3 115 126 116
3 116 114 117
3 116 118 114
3 114 118 123
3 116 129 118
3 113 120 119
3 119 122 121
3 119 120 122
3 121 143 141
3 121 122 143
3 120 124 122
3 114 123 120
3 120 123 124
3 123 131 124
3 122 124 147
3 122 147 143
3 124 162 147
3 115 125 126
3 125 127 128
3 125 128 126
3 127 177 179
3 127 179 128
3 116 126 129
3 126 128 130
3 126 130 129
3 129 130 135
3 128 183 130
3 128 179 183
3 130 183 198
3 118 132 123
3 118 129 134
3 118 134 132
3 134 137 132
3 124 131 162
3 131 164 162
3 123 132 131
3 132 133 131
3 132 137 133
3 131 133 164
3 133 138 166
3 133 166 164
3 129 135 134
3 135 136 134
3 134 136 137
3 130 198 135
3 135 198 200
3 135 200 136
3 136 202 139
3 136 200 202
3 133 137 138
3 136 139 137
3 137 139 138
3 139 140 138
3 138 168 166
3 138 140 168
3 140 171 168
3 139 204 140
3 139 202 204
3 140 204 206
3 140 206 171
3 206 236 171
3 141 143 142
3 143 144 142
3 142 144 145
3 145 146 150
3 144 146 145
3 143 147 144
3 144 147 148
3 147 162 148
3 144 148 146
3 148 149 146
3 146 149 151
3 148 163 149
3 150 151 152
3 146 151 150
3 151 154 152
3 152 154 153
3 153 154 157
3 149 155 151
3 151 155 154
3 155 160 154
3 153 157 156
3 156 159 158
3 156 157 159
3 158 214 434
3 158 159 214
3 154 160 157
3 157 160 161
3 157 161 159
3 160 175 161
3 159 161 218
3 159 218 214
3 161 246 218
3 162 164 163
3 148 162 163
3 163 164 167
3 149 163 165
3 163 167 165
3 167 170 165
3 164 166 167
3 166 169 167
3 149 165 155
3 165 174 155
3 155 174 160
3 165 170 174
3 166 168 169
3 168 171 172
3 168 172 169
3 167 169 170
3 169 173 170
3 170 173 176
3 169 172 173
3 171 237 172
3 171 236 237
3 172 240 173
3 172 237 240
3 173 240 249
3 160 174 175
3 170 176 174
3 174 176 175
3 176 245 175
3 161 175 246
3 175 245 246
3 173 249 176
3 176 249 245
3 177 178 179
3 178 180 179
3 178 181 180
3 181 186 182
3 180 181 182
3 179 180 183
3 180 184 183
3 183 184 198
3 180 182 184
3 182 185 184
3 182 187 185
3 184 185 199
3 186 188 187
3 182 186 187
3 187 188 190
3 188 189 190
3 189 193 190
3 185 187 191
3 187 190 191
3 190 196 191
3 189 192 193
3 192 194 195
3 192 195 193
3 194 221 223
3 194 223 195
3 190 193 196
3 193 197 196
3 193 195 197
3 196 197 211
3 195 227 197
3 195 223 227
3 197 227 253
3 198 199 200
3 184 199 198
3 199 203 200
3 185 201 199
3 199 201 203
3 201 208 203
3 200 203 202
3 202 203 205
3 202 205 204
3 204 207 206
3 204 205 207
3 206 238 236
3 206 207 238
3 203 208 205
3 205 208 209
3 208 212 209
3 205 209 207
3 207 209 242
3 207 242 238
3 209 255 242
3 185 191 201
3 191 210 201
3 191 196 210
3 201 210 208
3 196 211 210
3 208 210 212
3 210 211 212
3 211 251 212
3 197 253 211
3 211 253 251
3 209 212 255
3 212 251 255
3 213 434 214
3 213 214 215
3 213 215 216
3 216 217 231
3 215 217 216
3 214 218 215
3 215 218 219
3 218 246 219
3 217 219 220
3 215 219 217
3 217 220 232
3 219 247 220
3 221 222 223
3 223 222 224
3 222 225 224
3 225 233 226
3 224 225 226
3 223 224 227
3 224 228 227
3 227 228 253
3 228 226 229
3 226 234 229
3 224 226 228
3 228 229 254
3 230 232 234
3 230 231 232
3 217 232 231
3 230 234 233
3 226 233 234
3 220 235 232
3 229 234 235
3 234 232 235
3 236 238 237
3 238 239 237
3 237 239 240
3 240 241 249
3 239 241 240
3 238 242 239
3 239 242 243
3 242 255 243
3 243 244 241
3 241 244 250
3 243 256 244
3 239 243 241
3 245 250 247
3 245 247 246
3 219 246 247
3 220 247 248
3 244 248 250
3 248 247 250
3 245 249 250
3 241 250 249
3 251 254 256
3 229 252 254
3 244 256 252
3 254 252 256
3 251 253 254
3 228 254 253
3 251 256 255
3 243 255 256
3 252 235 248
3 220 248 235
3 229 235 252
3 244 252 248
3 261 259 263
3 267 270 259
3 261 274 267
3 261 267 259
3 257 278 264
3 257 282 278
3 258 271 280
3 258 280 282
3 259 258 257
3 259 257 263
3 259 270 258
3 257 258 282
3 260 265 306
3 260 306 310
3 262 261 260
3 260 261 263
3 262 274 261
3 262 308 275
3 262 310 308
3 262 260 310
3 265 264 266
3 257 264 263
3 260 263 265
3 263 264 265
3 264 278 284
3 264 284 266
3 266 284 287
3 265 266 312
3 265 312 306
3 266 314 312
3 266 287 314
3 314 287 334
3 269 268 267
3 267 268 270
3 269 267 274
3 268 370 272
3 268 374 370
3 269 276 372
3 269 372 374
3 269 374 268
3 258 270 271
3 272 273 271
3 268 272 270
3 270 272 271
3 271 293 280
3 271 273 293
3 273 296 293
3 272 376 273
3 272 370 376
3 273 376 378
3 273 378 296
3 378 398 296
3 262 275 274
3 269 274 276
3 275 277 276
3 274 275 276
3 275 308 321
3 275 321 277
3 277 321 324
3 276 277 382
3 276 382 372
3 277 384 382
3 277 324 384
3 324 435 384
3 278 282 279
3 278 279 285
3 280 281 282
3 280 294 281
3 279 282 281
3 279 281 283
3 279 283 286
3 281 295 283
3 283 291 286
3 283 295 299
3 283 299 291
3 291 299 302
3 278 285 284
3 284 288 287
3 284 285 288
3 285 289 288
3 279 286 285
3 285 286 289
3 286 290 289
3 287 288 335
3 287 335 334
3 288 289 338
3 288 338 335
3 289 343 338
3 289 290 343
3 290 345 343
3 286 291 290
3 290 291 292
3 291 302 292
3 290 292 345
3 292 303 346
3 292 346 345
3 280 293 294
3 293 296 297
3 293 297 294
3 281 294 295
3 294 297 298
3 294 298 295
3 295 298 300
3 296 399 297
3 296 398 399
3 297 402 298
3 297 399 402
3 298 402 407
3 295 300 299
3 299 300 301
3 299 301 302
3 298 407 300
3 300 407 409
3 300 409 301
3 301 410 304
3 301 409 410
3 292 302 303
3 301 304 302
3 302 304 303
3 303 304 305
3 303 355 346
3 303 305 355
3 305 358 355
3 304 413 305
3 304 410 413
3 305 413 415
3 305 415 358
3 358 415 471
3 306 307 310
3 306 313 307
3 308 310 309
3 308 309 322
3 309 310 307
3 309 307 311
3 307 316 311
3 309 311 323
3 306 312 313
3 312 314 315
3 312 315 313
3 314 334 336
3 314 336 315
3 313 315 317
3 307 313 316
3 313 317 316
3 316 317 318
3 315 340 317
3 315 336 340
3 317 340 349
3 311 316 319
3 311 327 323
3 311 319 327
3 327 319 330
3 317 349 318
3 318 349 351
3 316 318 319
3 319 318 320
3 319 320 330
3 318 351 320
3 320 353 331
3 320 351 353
3 308 322 321
3 321 325 324
3 321 322 325
3 309 323 322
3 322 326 325
3 322 323 326
3 323 328 326
3 324 325 436
3 324 436 435
3 325 326 439
3 325 439 436
3 326 444 439
3 323 327 328
3 328 327 329
3 327 330 329
3 326 328 444
3 328 446 444
3 328 329 446
3 329 332 447
3 329 447 446
3 320 331 330
3 329 330 332
3 330 331 332
3 332 331 333
3 331 353 361
3 331 361 333
3 333 361 364
3 332 333 450
3 332 450 447
3 333 452 450
3 333 364 452
3 452 364 480
3 334 335 336
3 336 335 337
3 335 338 337
3 338 343 339
3 337 338 339
3 336 337 340
3 337 341 340
3 340 341 349
3 337 339 341
3 341 339 342
3 339 344 342
3 341 342 350
3 343 345 344
3 339 343 344
3 344 345 347
3 345 346 347
3 346 356 347
3 342 344 348
3 344 347 348
3 348 347 357
3 349 350 351
3 341 350 349
3 350 354 351
3 342 352 350
3 350 352 354
3 354 352 363
3 351 354 353
3 353 354 362
3 342 348 352
3 352 348 367
3 348 357 367
3 352 367 363
3 346 355 356
3 355 358 359
3 355 359 356
3 347 356 357
3 356 360 357
3 356 359 360
3 357 360 368
3 358 472 359
3 358 471 472
3 359 475 360
3 359 472 475
3 360 475 490
3 353 362 361
3 361 365 364
3 361 362 365
3 354 363 362
3 362 363 366
3 363 369 366
3 362 366 365
3 364 365 481
3 364 481 480
3 365 366 484
3 365 484 481
3 366 492 484
3 357 368 367
3 363 367 369
3 367 368 369
3 369 368 489
3 360 490 368
3 368 490 489
3 366 369 492
3 369 489 492
3 370 374 371
3 370 371 377
3 372 373 374
3 372 383 373
3 373 371 374
3 373 375 371
3 371 375 380
3 373 386 375
3 370 377 376
3 376 379 378
3 376 377 379
3 378 400 398
3 378 379 400
3 377 381 379
3 371 380 377
3 377 380 381
3 380 388 381
3 379 381 404
3 379 404 400
3 381 419 404
3 372 382 383
3 382 384 385
3 382 385 383
3 384 435 437
3 384 437 385
3 373 383 386
3 383 385 387
3 383 387 386
3 386 387 392
3 385 441 387
3 385 437 441
3 387 441 456
3 375 389 380
3 375 386 391
3 375 391 389
3 391 394 389
3 381 388 419
3 388 421 419
3 380 389 388
3 389 390 388
3 389 394 390
3 388 390 421
3 390 395 423
3 390 423 421
3 386 392 391
3 392 393 391
3 391 393 394
3 387 456 392
3 392 456 458
3 392 458 393
3 393 460 396
3 393 458 460
3 390 394 395
3 393 396 394
3 394 396 395
3 396 397 395
3 395 425 423
3 395 397 425
3 397 428 425
3 396 462 397
3 396 460 462
3 397 462 464
3 397 464 428
3 464 495 428
3 398 400 399
3 400 401 399
3 399 401 402
3 402 403 407
3 401 403 402
3 400 404 401
3 401 404 405
3 404 419 405
3 401 405 403
3 405 406 403
3 403 406 408
3 405 420 406
3 407 408 409
3 403 408 407
3 408 411 409
3 409 411 410
3 410 411 414
3 406 412 408
3 408 412 411
3 412 417 411
3 410 414 413
3 413 416 415
3 413 414 416
3 415 473 471
3 415 416 473
3 411 417 414
3 414 417 418
3 414 418 416
3 417 432 418
3 416 418 477
3 416 477 473
3 418 505 477
3 419 421 420
3 405 419 420
3 420 421 424
3 406 420 422
3 420 424 422
3 424 427 422
3 421 423 424
3 423 426 424
3 406 422 412
3 422 431 412
3 412 431 417
3 422 427 431
3 423 425 426
3 425 428 429
3 425 429 426
3 424 426 427
3 426 430 427
3 427 430 433
3 426 429 430
3 428 496 429
3 428 495 496
3 429 499 430
3 429 496 499
3 430 499 508
3 417 431 432
3 427 433 431
3 431 433 432
3 433 504 432
3 418 432 505
3 432 504 505
3 430 508 433
3 433 508 504
3 436 437 435
3 436 438 437
3 436 439 438
3 439 444 440
3 438 439 440
3 437 438 441
3 438 442 441
3 441 442 456
3 438 440 442
3 440 443 442
3 440 445 443
3 442 443 457
3 444 446 445
3 440 444 445
3 445 446 448
3 446 447 448
3 447 451 448
3 443 445 449
3 445 448 449
3 448 454 449
3 447 450 451
3 450 452 453
3 450 453 451
3 452 480 482
3 452 482 453
3 448 451 454
3 451 455 454
3 451 453 455
3 454 455 469
3 453 486 455
3 453 482 486
3 455 486 512
3 456 457 458
3 442 457 456
3 457 461 458
3 443 459 457
3 457 459 461
3 459 466 461
3 458 461 460
3 460 461 463
3 460 463 462
3 462 465 464
3 462 463 465
3 464 497 495
3 464 465 497
3 461 466 463
3 463 466 467
3 466 470 467
3 463 467 465
3 465 467 501
3 465 501 497
3 467 514 501
3 443 449 459
3 449 468 459
3 449 454 468
3 459 468 466
3 454 469 468
3 466 468 470
3 468 469 470
3 469 510 470
3 455 512 469
3 469 512 510
3 467 470 514
3 470 510 514
3 471 473 472
3 472 473 474
3 472 474 475
3 475 476 490
3 474 476 475
3 473 477 474
3 474 477 478
3 477 505 478
3 476 478 479
3 474 478 476
3 476 479 491
3 478 506 479
3 480 481 482
3 482 481 483
3 481 484 483
3 484 492 485
3 483 484 485
3 482 483 486
3 483 487 486
3 486 487 512
3 487 485 488
3 485 493 488
3 483 485 487
3 487 488 513
3 489 491 493
3 489 490 491
3 476 491 490
3 489 493 492
3 485 492 493
3 479 494 491
3 488 493 494
3 493 491 494
3 495 497 496
3 497 498 496
3 496 498 499
3 499 500 508
3 498 500 499
3 497 501 498
3 498 501 502
3 501 514 502
3 502 503 500
3 500 503 509
3 502 515 503
3 498 502 500
3 504 509 506
3 504 506 505
3 478 505 506
3 479 506 507
3 503 507 509
3 507 506 509
3 504 508 509
3 500 509 508
3 510 513 515
3 488 511 513
3 503 515 511
3 513 511 515
3 510 512 513
3 487 513 512
3 510 515 514
3 502 514 515
3 511 494 507
3 479 507 494
3 488 494 511
3 503 511 507

