{"asset":{"version":"2.0","generator":"THREE.GLTFExporter r182"},"scenes":[{"name":"AuxScene","nodes":[0]}],"scene":0,"nodes":[{"mesh":0}],"bufferViews":[{"buffer":0,"byteOffset":0,"byteLength":96,"target":34962,"byteStride":12},{"buffer":0,"byteOffset":96,"byteLength":96,"target":34962,"byteStride":12},{"buffer":0,"byteOffset":192,"byteLength":144,"target":34963}],"buffers":[{"byteLength":336,"uri":"data:application/octet-stream;base64,"}],"accessors":[{"bufferView":0,"componentType":5126,"count":8,"max":[4.999999858590343e-10,4.999999858590343e-10,4.999999858590343e-10],"min":[-4.999999858590343e-10,-4.999999858590343e-10,-4.999999858590343e-10],"type":"VEC3"},{"bufferView":1,"componentType":5126,"count":8,"max":[0.8164966106414795,0.8164966106414795,0.6666666865348816],"min":[-0.8164966106414795,-0.8164966106414795,-0.6666666865348816],"type":"VEC3"},{"bufferView":2,"componentType":5125,"count":36,"max":[7],"min":[0],"type":"SCALAR"}],"materials":[{"pbrMetallicRoughness":{"baseColorFactor":[0.6938717612856897,0.08650046202808521,0.07818742179702069,1],"metallicFactor":0.25,"roughnessFactor":0.4},"name":"degenerate-microscopic-cube-material"}],"meshes":[{"primitives":[{"mode":4,"attributes":{"POSITION":0,"NORMAL":1},"indices":2,"material":0}]}]}