ISO-10303-21;
HEADER;
/* Generated by software containing ST-Developer
 * from STEP Tools, Inc. (www.steptools.com) 
 */
/* OPTION: using custom schema-name function */

FILE_DESCRIPTION(
/* description */ (''),
/* implementation_level */ '2;1');

FILE_NAME(
/* name */ 'hexagonal-cut-concrete-forest-left-classic-structure',
/* time_stamp */ '2026-06-07T03:13:39+02:00',
/* author */ (''),
/* organization */ (''),
/* preprocessor_version */ 'ST-DEVELOPER v19.2',
/* originating_system */ 'Rhino 8.31',
/* authorisation */ '');

FILE_SCHEMA (('AP242_MANAGED_MODEL_BASED_3D_ENGINEERING_MIM_LF { 1 0 10303 442 3 1 4 }'));
ENDSEC;

DATA;
#10=SHAPE_REPRESENTATION_RELATIONSHIP('','',#78,#13);
#11=SHAPE_REPRESENTATION_RELATIONSHIP('','',#78,#38);
#12=GEOMETRIC_CURVE_SET('curve_set_0',(#24,#25,#26,#27,#28,#29,#30,#31,
#32,#33));
#13=GEOMETRICALLY_BOUNDED_WIREFRAME_SHAPE_REPRESENTATION(
'wireframe_rep_0',(#12,#81),#77);
#14=VECTOR('',#86,2.7);
#15=VECTOR('',#87,1.35);
#16=VECTOR('',#88,2.7);
#17=VECTOR('',#89,2.7);
#18=VECTOR('',#90,2.7);
#19=VECTOR('',#91,2.7);
#20=VECTOR('',#92,2.7);
#21=VECTOR('',#93,5.4);
#22=VECTOR('',#94,3.);
#23=VECTOR('',#95,3.);
#24=LINE('',#115,#14);
#25=LINE('',#116,#15);
#26=LINE('',#117,#16);
#27=LINE('',#118,#17);
#28=LINE('',#119,#18);
#29=LINE('',#120,#19);
#30=LINE('',#121,#20);
#31=LINE('',#122,#21);
#32=LINE('',#123,#22);
#33=LINE('',#124,#23);
#34=PRESENTATION_LAYER_ASSIGNMENT('structure::slab','',(#37));
#35=PRESENTATION_LAYER_ASSIGNMENT('structure::beams','',(#24,#25,#26,#27,
#28,#29,#30,#31));
#36=PRESENTATION_LAYER_ASSIGNMENT('structure::columns','',(#32,#33));
#37=SHELL_BASED_SURFACE_MODEL('shell_1',(#39));
#38=MANIFOLD_SURFACE_SHAPE_REPRESENTATION('shell_rep_0',(#37,#82),#77);
#39=OPEN_SHELL('',(#40));
#40=ADVANCED_FACE('',(#41),#59,.T.);
#41=FACE_OUTER_BOUND('',#42,.T.);
#42=EDGE_LOOP('',(#43,#44,#45,#46));
#43=ORIENTED_EDGE('',*,*,#49,.T.);
#44=ORIENTED_EDGE('',*,*,#50,.T.);
#45=ORIENTED_EDGE('',*,*,#47,.T.);
#46=ORIENTED_EDGE('',*,*,#48,.T.);
#47=EDGE_CURVE('',#55,#56,#51,.T.);
#48=EDGE_CURVE('',#56,#57,#52,.T.);
#49=EDGE_CURVE('',#57,#58,#53,.T.);
#50=EDGE_CURVE('',#58,#55,#54,.T.);
#51=B_SPLINE_CURVE_WITH_KNOTS('',1,(#106,#107),.UNSPECIFIED.,.F.,.F.,(2,
2),(0.,5.4),.UNSPECIFIED.);
#52=B_SPLINE_CURVE_WITH_KNOTS('',1,(#108,#109),.UNSPECIFIED.,.F.,.F.,(2,
2),(-16.2000205649649,-8.10001028248244),.UNSPECIFIED.);
#53=B_SPLINE_CURVE_WITH_KNOTS('',1,(#110,#111,#112),.UNSPECIFIED.,.F.,.F.,
(2,1,2),(0.,2.7,5.4),.UNSPECIFIED.);
#54=B_SPLINE_CURVE_WITH_KNOTS('',1,(#113,#114),.UNSPECIFIED.,.F.,.F.,(2,
2),(8.10001028248244,16.2000205649649),.UNSPECIFIED.);
#55=VERTEX_POINT('',#102);
#56=VERTEX_POINT('',#103);
#57=VERTEX_POINT('',#104);
#58=VERTEX_POINT('',#105);
#59=PLANE('',#80);
#60=SHAPE_DEFINITION_REPRESENTATION(#61,#78);
#61=PRODUCT_DEFINITION_SHAPE($,$,#63);
#62=PRODUCT_DEFINITION_CONTEXT('3D Mechanical Parts',#67,'design');
#63=PRODUCT_DEFINITION('A','First version',#64,#62);
#64=PRODUCT_DEFINITION_FORMATION_WITH_SPECIFIED_SOURCE('A',
'First version',#69,.MADE.);
#65=PRODUCT_RELATED_PRODUCT_CATEGORY('tool','tool',(#69));
#66=APPLICATION_PROTOCOL_DEFINITION('Draft International Standard',
'automotive_design',1999,#67);
#67=APPLICATION_CONTEXT(
'data for automotive mechanical design processes');
#68=PRODUCT_CONTEXT('3D Mechanical Parts',#67,'mechanical');
#69=PRODUCT('Document','Document','',(#68));
#70=(
LENGTH_UNIT()
NAMED_UNIT(*)
SI_UNIT($,.METRE.)
);
#71=(
NAMED_UNIT(*)
PLANE_ANGLE_UNIT()
SI_UNIT($,.RADIAN.)
);
#72=DIMENSIONAL_EXPONENTS(0.,0.,0.,0.,0.,0.,0.);
#73=PLANE_ANGLE_MEASURE_WITH_UNIT(PLANE_ANGLE_MEASURE(0.01745329252),#71);
#74=(
CONVERSION_BASED_UNIT('DEGREES',#73)
NAMED_UNIT(#72)
PLANE_ANGLE_UNIT()
);
#75=(
NAMED_UNIT(*)
SI_UNIT($,.STERADIAN.)
SOLID_ANGLE_UNIT()
);
#76=UNCERTAINTY_MEASURE_WITH_UNIT(LENGTH_MEASURE(0.001),#70,
'DISTANCE_ACCURACY_VALUE',
'Maximum model space distance between geometric entities at asserted c
onnectivities');
#77=(
GEOMETRIC_REPRESENTATION_CONTEXT(3)
GLOBAL_UNCERTAINTY_ASSIGNED_CONTEXT((#76))
GLOBAL_UNIT_ASSIGNED_CONTEXT((#75,#74,#70))
REPRESENTATION_CONTEXT('ID1','3D')
);
#78=SHAPE_REPRESENTATION('Document',(#79,#81,#82),#77);
#79=AXIS2_PLACEMENT_3D($,#100,#83,#84);
#80=AXIS2_PLACEMENT_3D('',#101,#85,$);
#81=AXIS2_PLACEMENT_3D($,#125,#96,#97);
#82=AXIS2_PLACEMENT_3D($,#126,#98,#99);
#83=DIRECTION('',(0.,0.,1.));
#84=DIRECTION('',(1.,0.,0.));
#85=DIRECTION('',(0.,0.,1.));
#86=DIRECTION('',(-0.5,0.866025403784439,0.));
#87=DIRECTION('',(1.,0.,0.));
#88=DIRECTION('',(-0.5,-0.866025403784439,0.));
#89=DIRECTION('',(0.5,-0.866025403784439,0.));
#90=DIRECTION('',(-0.5,-0.866025403784438,0.));
#91=DIRECTION('',(0.5,0.866025403784439,0.));
#92=DIRECTION('',(0.5,0.866025403784439,0.));
#93=DIRECTION('',(-1.,0.,0.));
#94=DIRECTION('',(0.,0.,1.));
#95=DIRECTION('',(0.,0.,1.));
#96=DIRECTION('',(0.,0.,1.));
#97=DIRECTION('',(1.,0.,0.));
#98=DIRECTION('',(0.,0.,1.));
#99=DIRECTION('',(1.,0.,0.));
#100=CARTESIAN_POINT('',(0.,0.,0.));
#101=CARTESIAN_POINT('',(18.9000205649649,4.67653718043597,3.));
#102=CARTESIAN_POINT('',(2.7,4.67653718043597,3.));
#103=CARTESIAN_POINT('',(0.,8.88178419700125E-16,3.));
#104=CARTESIAN_POINT('',(8.10001028248245,-4.44089209850063E-16,3.));
#105=CARTESIAN_POINT('',(10.8000102824825,4.67653718043597,3.));
#106=CARTESIAN_POINT('',(2.7,4.67653718043597,3.));
#107=CARTESIAN_POINT('',(0.,8.88178419700125E-16,3.));
#108=CARTESIAN_POINT('',(0.,8.88178419700125E-16,3.));
#109=CARTESIAN_POINT('',(8.10001028248245,-2.22044604925032E-16,3.));
#110=CARTESIAN_POINT('',(8.10001028248245,1.33226762955019E-15,3.));
#111=CARTESIAN_POINT('',(9.45001028248245,2.33826859021798,3.));
#112=CARTESIAN_POINT('',(10.8000102824824,4.67653718043597,3.));
#113=CARTESIAN_POINT('',(10.8000102824824,4.67653718043597,3.));
#114=CARTESIAN_POINT('',(2.7,4.67653718043597,3.));
#115=CARTESIAN_POINT('',(8.10001028248245,2.33826859021798,3.));
#116=CARTESIAN_POINT('',(8.10001028248245,2.33826859021798,3.));
#117=CARTESIAN_POINT('',(2.70001028248245,2.33826859021798,3.));
#118=CARTESIAN_POINT('',(2.70001028248245,2.33826859021798,3.));
#119=CARTESIAN_POINT('',(8.10001028248245,2.33826859021798,3.));
#120=CARTESIAN_POINT('',(2.70001028248245,2.33826859021798,3.));
#121=CARTESIAN_POINT('',(8.10001028248245,2.33826859021798,3.));
#122=CARTESIAN_POINT('',(8.10001028248245,2.33826859021798,3.));
#123=CARTESIAN_POINT('',(8.10001028248245,2.33826859021798,0.));
#124=CARTESIAN_POINT('',(2.70001028248245,2.33826859021798,0.));
#125=CARTESIAN_POINT('',(0.,0.,0.));
#126=CARTESIAN_POINT('',(0.,0.,0.));
ENDSEC;
END-ISO-10303-21;
