o 
usemtl topology-disconnected-three-components-material
v -1.651686429977417 -1.651686429977417 -5.526650428771973
v -3.3190486431121826 -1.7180659770965576 -4.693843364715576
v -1.7180659770965576 -3.3190486431121826 -4.693843364715576
v -3.464101552963257 -3.464101552963257 -3.464101552963257
v -4.693843364715576 -1.7180659770965576 -3.3190486431121826
v -1.7180659770965576 -4.693843364715576 -3.3190486431121826
v -1.5529142618179321 3.6739402930577075e-16 -5.795555114746094
v -1.651686429977417 1.651686429977417 -5.526650428771973
v -3 3.6739402930577075e-16 -5.196152210235596
v -3.3190486431121826 1.7180659770965576 -4.693843364715576
v -1.7180659770965576 3.3190486431121826 -4.693843364715576
v -4.242640495300293 3.6739402930577075e-16 -4.242640495300293
v -4.693843364715576 1.7180659770965576 -3.3190486431121826
v -3.464101552963257 3.464101552963257 -3.464101552963257
v 3.6739402930577075e-16 -1.5529142618179321 -5.795555114746094
v 1.651686429977417 -1.651686429977417 -5.526650428771973
v 3.6739402930577075e-16 -3 -5.196152210235596
v 1.7180659770965576 -3.3190486431121826 -4.693843364715576
v 3.3190486431121826 -1.7180659770965576 -4.693843364715576
v 3.6739402930577075e-16 -4.242640495300293 -4.242640495300293
v 1.7180659770965576 -4.693843364715576 -3.3190486431121826
v 3.464101552963257 -3.464101552963257 -3.464101552963257
v 3.6739402930577075e-16 3.6739402930577075e-16 -6
v 3.6739402930577075e-16 1.5529142618179321 -5.795555114746094
v 1.5529142618179321 3.6739402930577075e-16 -5.795555114746094
v 1.651686429977417 1.651686429977417 -5.526650428771973
v 3.6739402930577075e-16 3 -5.196152210235596
v 1.7180659770965576 3.3190486431121826 -4.693843364715576
v 3 3.6739402930577075e-16 -5.196152210235596
v 3.3190486431121826 1.7180659770965576 -4.693843364715576
v 3.6739402930577075e-16 4.242640495300293 -4.242640495300293
v 4.242640495300293 3.6739402930577075e-16 -4.242640495300293
v 3.464101552963257 3.464101552963257 -3.464101552963257
v -4.693843364715576 -3.3190486431121826 -1.7180659770965576
v -5.526650428771973 -1.651686429977417 -1.651686429977417
v -3.3190486431121826 -4.693843364715576 -1.7180659770965576
v -1.651686429977417 -5.526650428771973 -1.651686429977417
v -5.196152210235596 3.6739402930577075e-16 -3
v -5.795555114746094 3.6739402930577075e-16 -1.5529142618179321
v -5.526650428771973 1.651686429977417 -1.651686429977417
v -4.693843364715576 3.3190486431121826 -1.7180659770965576
v 3.6739402930577075e-16 -5.196152210235596 -3
v 3.6739402930577075e-16 -5.795555114746094 -1.5529142618179321
v 1.651686429977417 -5.526650428771973 -1.651686429977417
v 3.3190486431121826 -4.693843364715576 -1.7180659770965576
v -1.7180659770965576 4.693843364715576 -3.3190486431121826
v 3.6739402930577075e-16 5.196152210235596 -3
v 1.7180659770965576 4.693843364715576 -3.3190486431121826
v -3.3190486431121826 4.693843364715576 -1.7180659770965576
v -1.651686429977417 5.526650428771973 -1.651686429977417
v 3.6739402930577075e-16 5.795555114746094 -1.5529142618179321
v 1.651686429977417 5.526650428771973 -1.651686429977417
v 3.3190486431121826 4.693843364715576 -1.7180659770965576
v 4.693843364715576 -1.7180659770965576 -3.3190486431121826
v 5.196152210235596 3.6739402930577075e-16 -3
v 4.693843364715576 1.7180659770965576 -3.3190486431121826
v 4.693843364715576 -3.3190486431121826 -1.7180659770965576
v 5.526650428771973 -1.651686429977417 -1.651686429977417
v 5.795555114746094 3.6739402930577075e-16 -1.5529142618179321
v 5.526650428771973 1.651686429977417 -1.651686429977417
v 4.693843364715576 3.3190486431121826 -1.7180659770965576
v -4.242640495300293 -4.242640495300293 3.6739402930577075e-16
v -5.196152210235596 -3 3.6739402930577075e-16
v -5.795555114746094 -1.5529142618179321 3.6739402930577075e-16
v -3 -5.196152210235596 3.6739402930577075e-16
v -1.5529142618179321 -5.795555114746094 3.6739402930577075e-16
v -4.693843364715576 -3.3190486431121826 1.7180659770965576
v -5.526650428771973 -1.651686429977417 1.651686429977417
v -3.3190486431121826 -4.693843364715576 1.7180659770965576
v -1.651686429977417 -5.526650428771973 1.651686429977417
v -6 3.6739402930577075e-16 3.6739402930577075e-16
v -5.795555114746094 1.5529142618179321 3.6739402930577075e-16
v -5.196152210235596 3 3.6739402930577075e-16
v -4.242640495300293 4.242640495300293 3.6739402930577075e-16
v -5.795555114746094 3.6739402930577075e-16 1.5529142618179321
v -5.526650428771973 1.651686429977417 1.651686429977417
v -4.693843364715576 3.3190486431121826 1.7180659770965576
v 3.6739402930577075e-16 -6 3.6739402930577075e-16
v 1.5529142618179321 -5.795555114746094 3.6739402930577075e-16
v 3 -5.196152210235596 3.6739402930577075e-16
v 4.242640495300293 -4.242640495300293 3.6739402930577075e-16
v 3.6739402930577075e-16 -5.795555114746094 1.5529142618179321
v 1.651686429977417 -5.526650428771973 1.651686429977417
v 3.3190486431121826 -4.693843364715576 1.7180659770965576
v 4.242640495300293 4.242640495300293 3.6739402930577075e-16
v -3.464101552963257 -3.464101552963257 3.464101552963257
v -4.693843364715576 -1.7180659770965576 3.3190486431121826
v -1.7180659770965576 -4.693843364715576 3.3190486431121826
v -3.3190486431121826 -1.7180659770965576 4.693843364715576
v -1.7180659770965576 -3.3190486431121826 4.693843364715576
v -1.651686429977417 -1.651686429977417 5.526650428771973
v -5.196152210235596 3.6739402930577075e-16 3
v -4.693843364715576 1.7180659770965576 3.3190486431121826
v -4.242640495300293 3.6739402930577075e-16 4.242640495300293
v -3.464101552963257 3.464101552963257 3.464101552963257
v -3 3.6739402930577075e-16 5.196152210235596
v -3.3190486431121826 1.7180659770965576 4.693843364715576
v -1.5529142618179321 3.6739402930577075e-16 5.795555114746094
v -1.651686429977417 1.651686429977417 5.526650428771973
v -1.7180659770965576 3.3190486431121826 4.693843364715576
v 3.6739402930577075e-16 -5.196152210235596 3
v 1.7180659770965576 -4.693843364715576 3.3190486431121826
v 3.6739402930577075e-16 -4.242640495300293 4.242640495300293
v 3.464101552963257 -3.464101552963257 3.464101552963257
v 3.6739402930577075e-16 -3 5.196152210235596
v 1.7180659770965576 -3.3190486431121826 4.693843364715576
v 3.6739402930577075e-16 -1.5529142618179321 5.795555114746094
v 1.651686429977417 -1.651686429977417 5.526650428771973
v 3.3190486431121826 -1.7180659770965576 4.693843364715576
v 3.6739402930577075e-16 4.242640495300293 4.242640495300293
v 4.242640495300293 3.6739402930577075e-16 4.242640495300293
v 3.464101552963257 3.464101552963257 3.464101552963257
v 3.6739402930577075e-16 3.6739402930577075e-16 6
v 3.6739402930577075e-16 1.5529142618179321 5.795555114746094
v 1.5529142618179321 3.6739402930577075e-16 5.795555114746094
v 1.651686429977417 1.651686429977417 5.526650428771973
v 3.6739402930577075e-16 3 5.196152210235596
v 1.7180659770965576 3.3190486431121826 4.693843364715576
v 3 3.6739402930577075e-16 5.196152210235596
v 3.3190486431121826 1.7180659770965576 4.693843364715576
v -3 5.196152210235596 3.6739402930577075e-16
v -1.5529142618179321 5.795555114746094 3.6739402930577075e-16
v -3.3190486431121826 4.693843364715576 1.7180659770965576
v -1.651686429977417 5.526650428771973 1.651686429977417
v 3.6739402930577075e-16 6 3.6739402930577075e-16
v 1.5529142618179321 5.795555114746094 3.6739402930577075e-16
v 3 5.196152210235596 3.6739402930577075e-16
v 3.6739402930577075e-16 5.795555114746094 1.5529142618179321
v 1.651686429977417 5.526650428771973 1.651686429977417
v 3.3190486431121826 4.693843364715576 1.7180659770965576
v -1.7180659770965576 4.693843364715576 3.3190486431121826
v 3.6739402930577075e-16 5.196152210235596 3
v 1.7180659770965576 4.693843364715576 3.3190486431121826
v 5.196152210235596 -3 3.6739402930577075e-16
v 5.795555114746094 -1.5529142618179321 3.6739402930577075e-16
v 4.693843364715576 -3.3190486431121826 1.7180659770965576
v 5.526650428771973 -1.651686429977417 1.651686429977417
v 5.795555114746094 1.5529142618179321 3.6739402930577075e-16
v 6 3.6739402930577075e-16 3.6739402930577075e-16
v 5.196152210235596 3 3.6739402930577075e-16
v 5.795555114746094 3.6739402930577075e-16 1.5529142618179321
v 5.526650428771973 1.651686429977417 1.651686429977417
v 4.693843364715576 3.3190486431121826 1.7180659770965576
v 4.693843364715576 -1.7180659770965576 3.3190486431121826
v 5.196152210235596 3.6739402930577075e-16 3
v 4.693843364715576 1.7180659770965576 3.3190486431121826
v -1.7180659770965576 25.306156158447266 -3.3190486431121826
v 1.7180659770965576 25.306156158447266 -3.3190486431121826
v -3.3190486431121826 25.306156158447266 -1.7180659770965576
v -1.651686429977417 24.473350524902344 -1.651686429977417
v 3.6739402930577075e-16 24.803848266601562 -3
v 3.6739402930577075e-16 24.204444885253906 -1.5529142618179321
v 1.651686429977417 24.473350524902344 -1.651686429977417
v 3.3190486431121826 25.306156158447266 -1.7180659770965576
v -1.7180659770965576 26.680952072143555 -4.693843364715576
v -1.651686429977417 28.34831428527832 -5.526650428771973
v -1.5529142618179321 30 -5.795555114746094
v -3.3190486431121826 28.28193473815918 -4.693843364715576
v -3 30 -5.196152210235596
v -3.464101552963257 26.535898208618164 -3.464101552963257
v -4.242640495300293 30 -4.242640495300293
v -4.693843364715576 28.28193473815918 -3.3190486431121826
v -1.651686429977417 31.65168571472168 -5.526650428771973
v -3.3190486431121826 31.71806526184082 -4.693843364715576
v -1.7180659770965576 33.31904983520508 -4.693843364715576
v -4.693843364715576 31.71806526184082 -3.3190486431121826
v -3.464101552963257 33.4640998840332 -3.464101552963257
v -1.7180659770965576 34.693843841552734 -3.3190486431121826
v 3.6739402930577075e-16 27 -5.196152210235596
v 1.7180659770965576 26.680952072143555 -4.693843364715576
v 3.6739402930577075e-16 28.447086334228516 -5.795555114746094
v 3.6739402930577075e-16 30 -6
v 1.651686429977417 28.34831428527832 -5.526650428771973
v 1.5529142618179321 30 -5.795555114746094
v 3 30 -5.196152210235596
v 3.3190486431121826 28.28193473815918 -4.693843364715576
v 3.6739402930577075e-16 25.75735855102539 -4.242640495300293
v 3.464101552963257 26.535898208618164 -3.464101552963257
v 4.242640495300293 30 -4.242640495300293
v 3.6739402930577075e-16 31.552913665771484 -5.795555114746094
v 1.651686429977417 31.65168571472168 -5.526650428771973
v 3.6739402930577075e-16 33 -5.196152210235596
v 1.7180659770965576 33.31904983520508 -4.693843364715576
v 3.3190486431121826 31.71806526184082 -4.693843364715576
v 3.6739402930577075e-16 34.24264144897461 -4.242640495300293
v 3.6739402930577075e-16 35.19615173339844 -3
v 1.7180659770965576 34.693843841552734 -3.3190486431121826
v 3.464101552963257 33.4640998840332 -3.464101552963257
v -4.693843364715576 26.680952072143555 -1.7180659770965576
v -5.196152210235596 30 -3
v -5.526650428771973 28.34831428527832 -1.651686429977417
v -5.795555114746094 30 -1.5529142618179321
v -5.526650428771973 31.65168571472168 -1.651686429977417
v -4.693843364715576 33.31904983520508 -1.7180659770965576
v -3.3190486431121826 34.693843841552734 -1.7180659770965576
v -1.651686429977417 35.526649475097656 -1.651686429977417
v 3.6739402930577075e-16 35.795555114746094 -1.5529142618179321
v 1.651686429977417 35.526649475097656 -1.651686429977417
v 3.3190486431121826 34.693843841552734 -1.7180659770965576
v 4.693843364715576 28.28193473815918 -3.3190486431121826
v 5.196152210235596 30 -3
v 4.693843364715576 31.71806526184082 -3.3190486431121826
v 4.693843364715576 26.680952072143555 -1.7180659770965576
v 5.526650428771973 28.34831428527832 -1.651686429977417
v 5.795555114746094 30 -1.5529142618179321
v 5.526650428771973 31.65168571472168 -1.651686429977417
v 4.693843364715576 33.31904983520508 -1.7180659770965576
v -3 24.803848266601562 3.6739402930577075e-16
v -1.5529142618179321 24.204444885253906 3.6739402930577075e-16
v -3.3190486431121826 25.306156158447266 1.7180659770965576
v -1.651686429977417 24.473350524902344 1.651686429977417
v 3.6739402930577075e-16 24 3.6739402930577075e-16
v 1.5529142618179321 24.204444885253906 3.6739402930577075e-16
v 3 24.803848266601562 3.6739402930577075e-16
v 3.6739402930577075e-16 24.204444885253906 1.5529142618179321
v 1.651686429977417 24.473350524902344 1.651686429977417
v 3.3190486431121826 25.306156158447266 1.7180659770965576
v -1.7180659770965576 25.306156158447266 3.3190486431121826
v 3.6739402930577075e-16 24.803848266601562 3
v 1.7180659770965576 25.306156158447266 3.3190486431121826
v -5.196152210235596 27 3.6739402930577075e-16
v -4.242640495300293 25.75735855102539 3.6739402930577075e-16
v -5.795555114746094 28.447086334228516 3.6739402930577075e-16
v -6 30 3.6739402930577075e-16
v -4.693843364715576 26.680952072143555 1.7180659770965576
v -5.526650428771973 28.34831428527832 1.651686429977417
v -5.795555114746094 30 1.5529142618179321
v -5.795555114746094 31.552913665771484 3.6739402930577075e-16
v -5.196152210235596 33 3.6739402930577075e-16
v -4.242640495300293 34.24264144897461 3.6739402930577075e-16
v -3 35.19615173339844 3.6739402930577075e-16
v -1.5529142618179321 35.795555114746094 3.6739402930577075e-16
v -5.526650428771973 31.65168571472168 1.651686429977417
v -4.693843364715576 33.31904983520508 1.7180659770965576
v -3.3190486431121826 34.693843841552734 1.7180659770965576
v -1.651686429977417 35.526649475097656 1.651686429977417
v 4.242640495300293 25.75735855102539 3.6739402930577075e-16
v 3.6739402930577075e-16 36 3.6739402930577075e-16
v 1.5529142618179321 35.795555114746094 3.6739402930577075e-16
v 3 35.19615173339844 3.6739402930577075e-16
v 4.242640495300293 34.24264144897461 3.6739402930577075e-16
v 3.6739402930577075e-16 35.795555114746094 1.5529142618179321
v 1.651686429977417 35.526649475097656 1.651686429977417
v 3.3190486431121826 34.693843841552734 1.7180659770965576
v -3.464101552963257 26.535898208618164 3.464101552963257
v -4.693843364715576 28.28193473815918 3.3190486431121826
v -5.196152210235596 30 3
v -4.242640495300293 30 4.242640495300293
v -1.7180659770965576 26.680952072143555 4.693843364715576
v -3.3190486431121826 28.28193473815918 4.693843364715576
v -3 30 5.196152210235596
v -1.651686429977417 28.34831428527832 5.526650428771973
v -1.5529142618179321 30 5.795555114746094
v -4.693843364715576 31.71806526184082 3.3190486431121826
v -3.464101552963257 33.4640998840332 3.464101552963257
v -1.7180659770965576 34.693843841552734 3.3190486431121826
v -3.3190486431121826 31.71806526184082 4.693843364715576
v -1.7180659770965576 33.31904983520508 4.693843364715576
v -1.651686429977417 31.65168571472168 5.526650428771973
v 3.6739402930577075e-16 25.75735855102539 4.242640495300293
v 3.464101552963257 26.535898208618164 3.464101552963257
v 4.242640495300293 30 4.242640495300293
v 3.6739402930577075e-16 27 5.196152210235596
v 1.7180659770965576 26.680952072143555 4.693843364715576
v 3.6739402930577075e-16 28.447086334228516 5.795555114746094
v 3.6739402930577075e-16 30 6
v 1.651686429977417 28.34831428527832 5.526650428771973
v 1.5529142618179321 30 5.795555114746094
v 3 30 5.196152210235596
v 3.3190486431121826 28.28193473815918 4.693843364715576
v 3.6739402930577075e-16 35.19615173339844 3
v 1.7180659770965576 34.693843841552734 3.3190486431121826
v 3.6739402930577075e-16 34.24264144897461 4.242640495300293
v 3.464101552963257 33.4640998840332 3.464101552963257
v 3.6739402930577075e-16 33 5.196152210235596
v 1.7180659770965576 33.31904983520508 4.693843364715576
v 3.6739402930577075e-16 31.552913665771484 5.795555114746094
v 1.651686429977417 31.65168571472168 5.526650428771973
v 3.3190486431121826 31.71806526184082 4.693843364715576
v 5.196152210235596 27 3.6739402930577075e-16
v 5.795555114746094 28.447086334228516 3.6739402930577075e-16
v 6 30 3.6739402930577075e-16
v 4.693843364715576 26.680952072143555 1.7180659770965576
v 5.526650428771973 28.34831428527832 1.651686429977417
v 5.795555114746094 30 1.5529142618179321
v 5.795555114746094 31.552913665771484 3.6739402930577075e-16
v 5.196152210235596 33 3.6739402930577075e-16
v 5.526650428771973 31.65168571472168 1.651686429977417
v 4.693843364715576 33.31904983520508 1.7180659770965576
v 4.693843364715576 28.28193473815918 3.3190486431121826
v 5.196152210235596 30 3
v 4.693843364715576 31.71806526184082 3.3190486431121826
v 25.306156158447266 -1.7180659770965576 -3.3190486431121826
v 25.306156158447266 1.7180659770965576 -3.3190486431121826
v 25.306156158447266 -3.3190486431121826 -1.7180659770965576
v 24.473350524902344 -1.651686429977417 -1.651686429977417
v 24.803848266601562 3.6739402930577075e-16 -3
v 24.204444885253906 3.6739402930577075e-16 -1.5529142618179321
v 24.473350524902344 1.651686429977417 -1.651686429977417
v 25.306156158447266 3.3190486431121826 -1.7180659770965576
v 26.680952072143555 -1.7180659770965576 -4.693843364715576
v 28.34831428527832 -1.651686429977417 -5.526650428771973
v 30 -1.5529142618179321 -5.795555114746094
v 28.28193473815918 -3.3190486431121826 -4.693843364715576
v 30 -3 -5.196152210235596
v 26.535898208618164 -3.464101552963257 -3.464101552963257
v 30 -4.242640495300293 -4.242640495300293
v 28.28193473815918 -4.693843364715576 -3.3190486431121826
v 26.680952072143555 1.7180659770965576 -4.693843364715576
v 27 3.6739402930577075e-16 -5.196152210235596
v 28.447086334228516 3.6739402930577075e-16 -5.795555114746094
v 28.34831428527832 1.651686429977417 -5.526650428771973
v 30 3.6739402930577075e-16 -6
v 30 1.5529142618179321 -5.795555114746094
v 28.28193473815918 3.3190486431121826 -4.693843364715576
v 30 3 -5.196152210235596
v 25.75735855102539 3.6739402930577075e-16 -4.242640495300293
v 26.535898208618164 3.464101552963257 -3.464101552963257
v 30 4.242640495300293 -4.242640495300293
v 31.65168571472168 -1.651686429977417 -5.526650428771973
v 31.71806526184082 -3.3190486431121826 -4.693843364715576
v 33.31904983520508 -1.7180659770965576 -4.693843364715576
v 31.71806526184082 -4.693843364715576 -3.3190486431121826
v 33.4640998840332 -3.464101552963257 -3.464101552963257
v 34.693843841552734 -1.7180659770965576 -3.3190486431121826
v 31.552913665771484 3.6739402930577075e-16 -5.795555114746094
v 31.65168571472168 1.651686429977417 -5.526650428771973
v 33 3.6739402930577075e-16 -5.196152210235596
v 33.31904983520508 1.7180659770965576 -4.693843364715576
v 31.71806526184082 3.3190486431121826 -4.693843364715576
v 34.24264144897461 3.6739402930577075e-16 -4.242640495300293
v 35.19615173339844 3.6739402930577075e-16 -3
v 34.693843841552734 1.7180659770965576 -3.3190486431121826
v 33.4640998840332 3.464101552963257 -3.464101552963257
v 26.680952072143555 -4.693843364715576 -1.7180659770965576
v 30 -5.196152210235596 -3
v 28.34831428527832 -5.526650428771973 -1.651686429977417
v 30 -5.795555114746094 -1.5529142618179321
v 31.65168571472168 -5.526650428771973 -1.651686429977417
v 33.31904983520508 -4.693843364715576 -1.7180659770965576
v 34.693843841552734 -3.3190486431121826 -1.7180659770965576
v 35.526649475097656 -1.651686429977417 -1.651686429977417
v 35.795555114746094 3.6739402930577075e-16 -1.5529142618179321
v 35.526649475097656 1.651686429977417 -1.651686429977417
v 34.693843841552734 3.3190486431121826 -1.7180659770965576
v 28.28193473815918 4.693843364715576 -3.3190486431121826
v 30 5.196152210235596 -3
v 31.71806526184082 4.693843364715576 -3.3190486431121826
v 26.680952072143555 4.693843364715576 -1.7180659770965576
v 28.34831428527832 5.526650428771973 -1.651686429977417
v 30 5.795555114746094 -1.5529142618179321
v 31.65168571472168 5.526650428771973 -1.651686429977417
v 33.31904983520508 4.693843364715576 -1.7180659770965576
v 24.803848266601562 -3 3.6739402930577075e-16
v 24.204444885253906 -1.5529142618179321 3.6739402930577075e-16
v 25.306156158447266 -3.3190486431121826 1.7180659770965576
v 24.473350524902344 -1.651686429977417 1.651686429977417
v 24 3.6739402930577075e-16 3.6739402930577075e-16
v 24.204444885253906 1.5529142618179321 3.6739402930577075e-16
v 24.803848266601562 3 3.6739402930577075e-16
v 24.204444885253906 3.6739402930577075e-16 1.5529142618179321
v 24.473350524902344 1.651686429977417 1.651686429977417
v 25.306156158447266 3.3190486431121826 1.7180659770965576
v 25.306156158447266 -1.7180659770965576 3.3190486431121826
v 24.803848266601562 3.6739402930577075e-16 3
v 25.306156158447266 1.7180659770965576 3.3190486431121826
v 25.75735855102539 -4.242640495300293 3.6739402930577075e-16
v 27 -5.196152210235596 3.6739402930577075e-16
v 28.447086334228516 -5.795555114746094 3.6739402930577075e-16
v 30 -6 3.6739402930577075e-16
v 26.680952072143555 -4.693843364715576 1.7180659770965576
v 28.34831428527832 -5.526650428771973 1.651686429977417
v 30 -5.795555114746094 1.5529142618179321
v 25.75735855102539 4.242640495300293 3.6739402930577075e-16
v 31.552913665771484 -5.795555114746094 3.6739402930577075e-16
v 33 -5.196152210235596 3.6739402930577075e-16
v 34.24264144897461 -4.242640495300293 3.6739402930577075e-16
v 35.19615173339844 -3 3.6739402930577075e-16
v 35.795555114746094 -1.5529142618179321 3.6739402930577075e-16
v 31.65168571472168 -5.526650428771973 1.651686429977417
v 33.31904983520508 -4.693843364715576 1.7180659770965576
v 34.693843841552734 -3.3190486431121826 1.7180659770965576
v 35.526649475097656 -1.651686429977417 1.651686429977417
v 36 3.6739402930577075e-16 3.6739402930577075e-16
v 35.795555114746094 1.5529142618179321 3.6739402930577075e-16
v 34.24264144897461 4.242640495300293 3.6739402930577075e-16
v 35.19615173339844 3 3.6739402930577075e-16
v 35.795555114746094 3.6739402930577075e-16 1.5529142618179321
v 35.526649475097656 1.651686429977417 1.651686429977417
v 34.693843841552734 3.3190486431121826 1.7180659770965576
v 26.535898208618164 -3.464101552963257 3.464101552963257
v 28.28193473815918 -4.693843364715576 3.3190486431121826
v 30 -5.196152210235596 3
v 30 -4.242640495300293 4.242640495300293
v 26.680952072143555 -1.7180659770965576 4.693843364715576
v 28.28193473815918 -3.3190486431121826 4.693843364715576
v 30 -3 5.196152210235596
v 28.34831428527832 -1.651686429977417 5.526650428771973
v 30 -1.5529142618179321 5.795555114746094
v 25.75735855102539 3.6739402930577075e-16 4.242640495300293
v 26.535898208618164 3.464101552963257 3.464101552963257
v 30 4.242640495300293 4.242640495300293
v 26.680952072143555 1.7180659770965576 4.693843364715576
v 27 3.6739402930577075e-16 5.196152210235596
v 28.447086334228516 3.6739402930577075e-16 5.795555114746094
v 28.34831428527832 1.651686429977417 5.526650428771973
v 30 3.6739402930577075e-16 6
v 30 1.5529142618179321 5.795555114746094
v 28.28193473815918 3.3190486431121826 4.693843364715576
v 30 3 5.196152210235596
v 31.71806526184082 -4.693843364715576 3.3190486431121826
v 33.4640998840332 -3.464101552963257 3.464101552963257
v 34.693843841552734 -1.7180659770965576 3.3190486431121826
v 31.71806526184082 -3.3190486431121826 4.693843364715576
v 33.31904983520508 -1.7180659770965576 4.693843364715576
v 31.65168571472168 -1.651686429977417 5.526650428771973
v 35.19615173339844 3.6739402930577075e-16 3
v 34.693843841552734 1.7180659770965576 3.3190486431121826
v 34.24264144897461 3.6739402930577075e-16 4.242640495300293
v 33.4640998840332 3.464101552963257 3.464101552963257
v 33 3.6739402930577075e-16 5.196152210235596
v 33.31904983520508 1.7180659770965576 4.693843364715576
v 31.552913665771484 3.6739402930577075e-16 5.795555114746094
v 31.65168571472168 1.651686429977417 5.526650428771973
v 31.71806526184082 3.3190486431121826 4.693843364715576
v 27 5.196152210235596 3.6739402930577075e-16
v 28.447086334228516 5.795555114746094 3.6739402930577075e-16
v 30 6 3.6739402930577075e-16
v 26.680952072143555 4.693843364715576 1.7180659770965576
v 28.34831428527832 5.526650428771973 1.651686429977417
v 30 5.795555114746094 1.5529142618179321
v 31.552913665771484 5.795555114746094 3.6739402930577075e-16
v 33 5.196152210235596 3.6739402930577075e-16
v 31.65168571472168 5.526650428771973 1.651686429977417
v 33.31904983520508 4.693843364715576 1.7180659770965576
v 28.28193473815918 4.693843364715576 3.3190486431121826
v 30 5.196152210235596 3
v 31.71806526184082 4.693843364715576 3.3190486431121826
vn -0.28833058394304684 -0.2883306137453691 -0.9130886767123335
vn -0.5516002651412086 -0.314782254839098 -0.7724307603497943
vn -0.314782254839098 -0.5516002651412086 -0.7724307603497943
vn -0.5773502691896257 -0.5773502691896257 -0.5773502691896257
vn -0.7724307290618561 -0.3147822961810921 -0.551600285362443
vn -0.3147822961810921 -0.7724307290618561 -0.551600285362443
vn -0.2235937088465534 1.0223286524206455e-9 -0.974682437188771
vn -0.2883306137453691 0.28833058394304684 -0.9130886767123335
vn -0.4794484684687507 -1.4333262383950713e-9 -0.8775700348593093
vn -0.551600285362443 0.3147822961810921 -0.7724307290618561
vn -0.31478226933181835 0.5516002905371395 -0.7724307363082168
vn -0.7071067811865476 -1.7273013315517837e-9 -0.7071067811865476
vn -0.7724307290618561 0.3147822961810921 -0.551600285362443
vn -0.5773502691896257 0.5773502691896257 -0.5773502691896257
vn 1.0223286524206455e-9 -0.2235937088465534 -0.974682437188771
vn 0.28833058394304684 -0.2883306137453691 -0.9130886767123335
vn -1.4333262383950713e-9 -0.4794484684687507 -0.8775700348593093
vn 0.3147822961810921 -0.551600285362443 -0.7724307290618561
vn 0.5516002905371395 -0.31478226933181835 -0.7724307363082168
vn -1.7273013315517837e-9 -0.7071067811865476 -0.7071067811865476
vn 0.3147822961810921 -0.7724307290618561 -0.551600285362443
vn 0.5773502691896257 -0.5773502691896257 -0.5773502691896257
vn -1.4541663428957463e-9 -1.4541663428957463e-9 -1
vn 1.9112669459492097e-10 0.22359372300274352 -0.9746824339413184
vn 0.22359372300274352 1.9112669459492097e-10 -0.9746824339413184
vn 0.2883306361148835 0.2883306361148835 -0.9130886531740351
vn -1.7848726977206102e-9 0.4794484684687507 -0.8775700348593093
vn 0.3147822961810921 0.551600285362443 -0.7724307290618561
vn 0.4794484684687507 -1.7848726977206102e-9 -0.8775700348593093
vn 0.551600285362443 0.3147822961810921 -0.7724307290618561
vn -1.7273013315517837e-9 0.7071067811865476 -0.7071067811865476
vn 0.7071067811865476 -1.7273013315517837e-9 -0.7071067811865476
vn 0.5773502691896257 0.5773502691896257 -0.5773502691896257
vn -0.7724307784993633 -0.5516002184973463 -0.3147822920377627
vn -0.9130886845584328 -0.2883305864206489 -0.2883305864206489
vn -0.5516002184973463 -0.7724307784993633 -0.3147822920377627
vn -0.2883305864206489 -0.9130886845584328 -0.2883305864206489
vn -0.877570073639306 -1.5990630694603528e-9 -0.4794483974868443
vn -0.974682437188771 1.0223286524206455e-9 -0.2235937088465534
vn -0.9130886767123335 0.28833058394304684 -0.2883306137453691
vn -0.7724307784993633 0.5516002184973463 -0.3147822920377627
vn -1.5990630694603528e-9 -0.877570073639306 -0.4794483974868443
vn 1.0223286524206455e-9 -0.974682437188771 -0.2235937088465534
vn 0.28833058394304684 -0.9130886767123335 -0.2883306137453691
vn 0.5516002184973463 -0.7724307784993633 -0.3147822920377627
vn -0.3147822961810921 0.7724307290618561 -0.551600285362443
vn -1.5990630694603528e-9 0.877570073639306 -0.4794483974868443
vn 0.3147822961810921 0.7724307290618561 -0.551600285362443
vn -0.5516002905371395 0.7724307363082168 -0.31478226933181835
vn -0.2883305864206489 0.9130886845584328 -0.2883305864206489
vn 1.0223286524206455e-9 0.974682437188771 -0.2235937088465534
vn 0.28833058394304684 0.9130886767123335 -0.2883306137453691
vn 0.5516002905371395 0.7724307363082168 -0.31478226933181835
vn 0.7724307290618561 -0.3147822961810921 -0.551600285362443
vn 0.877570073639306 -1.5990630694603528e-9 -0.4794483974868443
vn 0.7724307290618561 0.3147822961810921 -0.551600285362443
vn 0.7724307363082168 -0.5516002905371395 -0.31478226933181835
vn 0.9130886845584328 -0.2883305864206489 -0.2883305864206489
vn 0.974682437188771 1.0223286524206455e-9 -0.2235937088465534
vn 0.9130886767123335 0.28833058394304684 -0.2883306137453691
vn 0.7724307363082168 0.5516002905371395 -0.31478226933181835
vn -0.7071067811865476 -0.7071067811865476 -1.4002528265612305e-9
vn -0.8775700348593093 -0.4794484684687507 -4.982694267333945e-9
vn -0.974682437188771 -0.2235937088465534 2.953701687932287e-9
vn -0.4794484684687507 -0.8775700348593093 -4.982694267333945e-9
vn -0.2235937088465534 -0.974682437188771 2.953701687932287e-9
vn -0.7724307290618561 -0.551600285362443 0.3147822961810921
vn -0.9130886688662343 -0.2883306112677668 0.2883306112677668
vn -0.551600285362443 -0.7724307290618561 0.3147822961810921
vn -0.2883306112677668 -0.9130886688662343 0.2883306112677668
vn -1 -1.4541663428957463e-9 -1.4541663428957463e-9
vn -0.974682437188771 0.2235937088465534 -3.6716196255917415e-9
vn -0.8775700348593093 0.4794484684687507 2.116041790543803e-9
vn -0.7071067811865476 0.7071067811865476 -1.7273013315517837e-9
vn -0.9746824339413184 1.9112669459492097e-10 0.22359372300274352
vn -0.9130886531740351 0.2883306361148835 0.2883306361148835
vn -0.7724307784993633 0.5516002184973463 0.3147822920377627
vn -1.4541663428957463e-9 -1 -1.4541663428957463e-9
vn 0.2235937088465534 -0.974682437188771 -3.6716196255917415e-9
vn 0.4794484684687507 -0.8775700348593093 2.116041790543803e-9
vn 0.7071067811865476 -0.7071067811865476 -1.7273013315517837e-9
vn 1.9112669459492097e-10 -0.9746824339413184 0.22359372300274352
vn 0.2883306361148835 -0.9130886531740351 0.2883306361148835
vn 0.5516002184973463 -0.7724307784993633 0.3147822920377627
vn 0.7071067811865476 0.7071067811865476 -9.860035699853583e-12
vn -0.5773502691896257 -0.5773502691896257 0.5773502691896257
vn -0.7724307363082168 -0.31478226933181835 0.5516002905371395
vn -0.3147822920377627 -0.7724307784993633 0.5516002184973463
vn -0.5516002184973463 -0.3147822920377627 0.7724307784993633
vn -0.3147822920377627 -0.5516002184973463 0.7724307784993633
vn -0.2883305864206489 -0.2883305864206489 0.9130886845584328
vn -0.8775700348593093 -1.7848726977206102e-9 0.4794484684687507
vn -0.7724307784993633 0.3147822920377627 0.5516002184973463
vn -0.7071067811865476 -1.7273013315517837e-9 0.7071067811865476
vn -0.5773502691896257 0.5773502691896257 0.5773502691896257
vn -0.4794484684687507 -1.5990631074059563e-9 0.8775700348593093
vn -0.551600285362443 0.3147822961810921 0.7724307290618561
vn -0.2235937088465534 1.0223286524206455e-9 0.974682437188771
vn -0.2883306112677668 0.2883306112677668 0.9130886688662343
vn -0.31478226933181835 0.5516002905371395 0.7724307363082168
vn -1.7848726977206102e-9 -0.8775700348593093 0.4794484684687507
vn 0.3147822920377627 -0.7724307784993633 0.5516002184973463
vn -1.7273013315517837e-9 -0.7071067811865476 0.7071067811865476
vn 0.5773502691896257 -0.5773502691896257 0.5773502691896257
vn -1.5990631074059563e-9 -0.4794484684687507 0.8775700348593093
vn 0.3147822961810921 -0.551600285362443 0.7724307290618561
vn 1.0223286524206455e-9 -0.2235937088465534 0.974682437188771
vn 0.2883306112677668 -0.2883306112677668 0.9130886688662343
vn 0.5516002905371395 -0.31478226933181835 0.7724307363082168
vn -1.7273013315517837e-9 0.7071067811865476 0.7071067811865476
vn 0.7071067811865476 -1.7273013315517837e-9 0.7071067811865476
vn 0.5773502691896257 0.5773502691896257 0.5773502691896257
vn -1.4541663428957463e-9 -1.4541663428957463e-9 1
vn 1.9112669459492097e-10 0.22359372300274352 0.9746824339413184
vn 0.22359372300274352 1.9112669459492097e-10 0.9746824339413184
vn 0.2883306361148835 0.2883306361148835 0.9130886531740351
vn -1.5990631074059563e-9 0.4794484684687507 0.8775700348593093
vn 0.3147822961810921 0.551600285362443 0.7724307290618561
vn 0.4794484684687507 -1.5990631074059563e-9 0.8775700348593093
vn 0.551600285362443 0.3147822961810921 0.7724307290618561
vn -0.4794484684687507 0.8775700348593093 -4.982694267333945e-9
vn -0.2235937088465534 0.974682437188771 2.953701687932287e-9
vn -0.551600285362443 0.7724307290618561 0.3147822961810921
vn -0.2883306112677668 0.9130886688662343 0.2883306112677668
vn -1.4541663428957463e-9 1 -1.4541663428957463e-9
vn 0.2235937088465534 0.974682437188771 -3.6716196255917415e-9
vn 0.4794484684687507 0.8775700348593093 2.116041790543803e-9
vn 1.9112669459492097e-10 0.9746824339413184 0.22359372300274352
vn 0.2883306361148835 0.9130886531740351 0.2883306361148835
vn 0.551600285362443 0.7724307290618561 0.3147822961810921
vn -0.31478226933181835 0.7724307363082168 0.5516002905371395
vn -1.7848726977206102e-9 0.8775700348593093 0.4794484684687507
vn 0.3147822961810921 0.7724307290618561 0.551600285362443
vn 0.8775700348593093 -0.4794484684687507 -4.982694267333945e-9
vn 0.974682437188771 -0.2235937088465534 2.953701687932287e-9
vn 0.7724307290618561 -0.551600285362443 0.3147822961810921
vn 0.9130886688662343 -0.2883306112677668 0.2883306112677668
vn 0.974682437188771 0.2235937088465534 -3.6716196255917415e-9
vn 1 -1.4541663428957463e-9 -1.4541663428957463e-9
vn 0.8775700348593093 0.4794484684687507 2.116041790543803e-9
vn 0.9746824339413184 1.9112669459492097e-10 0.22359372300274352
vn 0.9130886531740351 0.2883306361148835 0.2883306361148835
vn 0.7724307290618561 0.551600285362443 0.3147822961810921
vn 0.7724307363082168 -0.31478226933181835 0.5516002905371395
vn 0.8775700348593093 -1.7848726977206102e-9 0.4794484684687507
vn 0.7724307290618561 0.3147822961810921 0.551600285362443
vn -0.31478223419588397 -0.7724308424295855 -0.5516001619816372
vn 0.31478222384649507 -0.7724308170336569 -0.5516002034508078
vn -0.5516001619816372 -0.7724308424295855 -0.31478223419588397
vn -0.2883304961870925 -0.9130887415454262 -0.2883304961870925
vn -2.084636670584852e-9 -0.8775702652151008 -0.47944804683124675
vn 2.953701682388356e-9 -0.9746823757547035 -0.22359397664777808
vn 0.28833049866469285 -0.913088749391523 -0.2883304688623701
vn 0.5516001619816372 -0.7724308424295855 -0.31478223419588397
vn -0.3147823891410308 -0.5516000531698078 -0.7724308569896271
vn -0.28833060879016437 -0.2883306385924862 -0.9130886610201346
vn -0.2235937088465534 1.0223290965098494e-9 -0.974682437188771
vn -0.5516002184973463 -0.3147822920377627 -0.7724307784993633
vn -0.4794484455171125 -1.4333268139869294e-9 -0.8775700473986248
vn -0.5773503287942654 -0.5773501499803279 -0.5773503287942654
vn -0.7071067811865476 -1.4002533816727523e-9 -0.7071067811865476
vn -0.7724307290618561 -0.3147822961810921 -0.551600285362443
vn -0.2883306187005731 0.28833052929360464 -0.91308869240453
vn -0.5516003216569089 0.3147823126809711 -0.772430696419565
vn -0.314782527530718 0.5516000941614235 -0.7724307713203051
vn -0.772430696419565 0.3147823126809711 -0.5516003216569089
vn -0.5773503287942654 0.5773501499803279 -0.5773503287942654
vn -0.31478244283957324 0.7724308424968976 -0.551600042820415
vn -1.455740892008992e-9 -0.4794483286319222 -0.8775701112572467
vn 0.314782351942367 -0.5516000998136823 -0.7724308388400657
vn 8.322446037049417e-11 -0.2235937371589335 -0.9746824306938655
vn 1.3607298621209907e-9 -1.4541668980072586e-9 -1
vn 0.28833060879016437 -0.2883306385924862 -0.9130886610201346
vn 0.2235937088465534 -3.0492827852385133e-9 -0.974682437188771
vn 0.4794484914203879 -1.4333267730262396e-9 -0.8775700223199936
vn 0.5516002184973463 -0.3147822920377627 -0.7724307784993633
vn 2.148111634754122e-10 -0.7071066917795769 -0.7071068705935067
vn 0.5773503287942654 -0.5773501499803279 -0.5773503287942654
vn 0.7071067811865476 -1.7273021087079142e-9 -0.7071067811865476
vn 2.0145977813846467e-9 0.2235937371589335 -0.9746824306938655
vn 0.28833058889825075 0.288330559095928 -0.9130886924045316
vn -1.2835689301730813e-10 0.47944816371645554 -0.8775702013565174
vn 0.314782527530718 0.5516000941614235 -0.7724307713203051
vn 0.5516003216569089 0.3147823126809711 -0.772430696419565
vn -2.500426691944808e-9 0.70710693019814 -0.7071066321749235
vn -2.084636670584852e-9 0.8775702652151008 -0.47944804683124675
vn 0.31478244283957324 0.7724308424968976 -0.551600042820415
vn 0.5773503685306817 0.5773500705074627 -0.5773503685306817
vn -0.7724308569896271 -0.5516000531698078 -0.3147823891410308
vn -0.8775700473986248 -1.4333268139869294e-9 -0.4794484455171125
vn -0.9130886610201346 -0.2883306385924862 -0.28833060879016437
vn -0.974682437188771 8.134647845858321e-10 -0.2235937088465534
vn -0.91308869240453 0.28833052929360464 -0.2883306187005731
vn -0.7724307640739385 0.5516000889867249 -0.3147825543799861
vn -0.5516000376457181 0.7724308352505321 -0.3147824696888433
vn -0.2883304961870925 0.9130887415454262 -0.2883304961870925
vn 2.953701682388356e-9 0.9746823757547035 -0.22359397664777808
vn 0.28833049866469285 0.913088749391523 -0.2883304688623701
vn 0.5515999707806143 0.7724308846880208 -0.3147824655455051
vn 0.7724307784993633 -0.3147822920377627 -0.5516002184973463
vn 0.8775700473986248 -1.4333268139869294e-9 -0.4794484455171125
vn 0.7724307218154951 0.31478232303036513 -0.5516002801877461
vn 0.7724308315937023 -0.5516000946389863 -0.3147823787916386
vn 0.9130886610201346 -0.2883306385924862 -0.28833060879016437
vn 0.974682437188771 8.134647845858321e-10 -0.2235937088465534
vn 0.91308869240453 0.28833052929360464 -0.2883306187005731
vn 0.7724307218828037 0.5516001610265218 -0.3147825316740526
vn -0.47944804683124675 -0.8775702652151008 -1.5065428796635884e-9
vn -0.22359397664777808 -0.9746823757547035 -9.090443258736205e-10
vn -0.5516002034508078 -0.7724308170336569 0.31478222384649507
vn -0.2883304961870925 -0.9130887415454262 0.2883304961870925
vn -1.4541663428957463e-9 -1 -1.4541663428957463e-9
vn 0.22359399080396633 -0.974682372507247 1.59405463630619e-9
vn 0.47944804683124675 -0.8775702652151008 -1.5065428796635884e-9
vn -3.373183347581359e-10 -0.9746823757547035 0.22359397664777808
vn 0.2883305210342134 -0.9130887258532315 0.2883305210342134
vn 0.5516001619816372 -0.7724308424295855 0.31478223419588397
vn -0.31478223419588397 -0.7724308424295855 0.5516001619816372
vn -8.09082350880508e-10 -0.8775702652151008 0.47944804683124675
vn 0.31478223419588397 -0.7724308424295855 0.5516001619816372
vn -0.8775701112572467 -0.4794483286319222 -1.455740892008992e-9
vn -0.7071068705935067 -0.7071066917795769 2.148111634754122e-10
vn -0.9746824306938655 -0.2235937371589335 8.322446037049417e-11
vn -1 -1.4541668980072586e-9 1.3607298621209907e-9
vn -0.7724308388400657 -0.5516000998136823 0.314782351942367
vn -0.9130886610201346 -0.2883306385924862 0.28833060879016437
vn -0.974682437188771 -3.0492827852385133e-9 0.2235937088465534
vn -0.9746824306938655 0.2235937371589335 2.0145977813846467e-9
vn -0.8775702013565174 0.47944816371645554 3.4210089905601363e-9
vn -0.7071066619772459 0.707106900395829 1.743542784456961e-9
vn -0.47944804683124675 0.8775702652151008 -1.5065428796635884e-9
vn -0.22359397664777808 0.9746823757547035 -9.090443258736205e-10
vn -0.9130886845584328 0.2883305864206489 0.2883305864206489
vn -0.7724307713203051 0.5516000941614235 0.314782527530718
vn -0.551600042820415 0.7724308424968976 0.31478244283957324
vn -0.2883304961870925 0.9130887415454262 0.2883304961870925
vn 0.7071068705935067 -0.7071066917795769 1.6357305100618436e-9
vn -1.4541663428957463e-9 1 -1.4541663428957463e-9
vn 0.22359399080396633 0.974682372507247 1.59405463630619e-9
vn 0.47944804683124675 0.8775702652151008 -1.5065428796635884e-9
vn 0.7071066619772459 0.707106900395829 1.5932246905767678e-9
vn -3.373183347581359e-10 0.9746823757547035 0.22359397664777808
vn 0.2883305210342134 0.9130887258532315 0.2883305210342134
vn 0.551600042820415 0.7724308424968976 0.31478244283957324
vn -0.5773503287942654 -0.5773501499803279 0.5773503287942654
vn -0.7724307784993633 -0.3147822920377627 0.5516002184973463
vn -0.8775700473986248 -1.7848735003802108e-9 0.4794484455171125
vn -0.7071067811865476 -1.4002533816727523e-9 0.7071067811865476
vn -0.3147823787916386 -0.5516000946389863 0.7724308315937023
vn -0.5516002184973463 -0.3147822920377627 0.7724307784993633
vn -0.4794484455171125 -1.4333268139869294e-9 0.8775700473986248
vn -0.28833060879016437 -0.2883306385924862 0.9130886610201346
vn -0.2235937088465534 1.0223290965098494e-9 0.974682437188771
vn -0.772430696419565 0.3147823126809711 0.5516003216569089
vn -0.5773503287942654 0.5773501499803279 0.5773503287942654
vn -0.3147824696888433 0.7724308352505321 0.5516000376457181
vn -0.5516003216569089 0.3147823126809711 0.772430696419565
vn -0.3147825316740526 0.5516001610265218 0.7724307218828037
vn -0.2883306162229712 0.2883305566183261 0.9130886845584321
vn -8.171052518784395e-11 -0.7071066917795769 0.7071068705935067
vn 0.5773503685306817 -0.5773500705074627 0.5773503685306817
vn 0.7071068109888685 -1.7273020359075742e-9 0.7071067513842252
vn -1.9971147381209752e-9 -0.4794483286319222 0.8775701112572467
vn 0.3147823787916386 -0.5516000946389863 0.7724308315937023
vn 8.322446037049417e-11 -0.2235937371589335 0.9746824306938655
vn 1.3607298621209907e-9 -1.4541668980072586e-9 1
vn 0.28833060879016437 -0.2883306385924862 0.9130886610201346
vn 0.2235937088465534 -3.0492827852385133e-9 0.974682437188771
vn 0.4794484455171125 -1.4333268139869294e-9 0.8775700473986248
vn 0.5516002184973463 -0.3147822920377627 0.7724307784993633
vn -8.09082350880508e-10 0.8775702652151008 0.47944804683124675
vn 0.3147824696888433 0.7724308352505321 0.5516000376457181
vn -1.8416584128704778e-9 0.707106900395829 0.7071066619772459
vn 0.5773503685306817 0.5773500705074627 0.5773503685306817
vn -1.2835689301730813e-10 0.47944816371645554 0.8775702013565174
vn 0.314782527530718 0.5516000941614235 0.7724307713203051
vn 2.0145977813846467e-9 0.2235937371589335 0.9746824306938655
vn 0.28833058889825075 0.288330559095928 0.9130886924045316
vn 0.5516003216569089 0.3147823126809711 0.772430696419565
vn 0.8775701112572467 -0.4794483286319222 -1.455740892008992e-9
vn 0.9746824306938655 -0.2235937371589335 8.322446037049417e-11
vn 1 -1.4541668980072586e-9 1.3607298621209907e-9
vn 0.7724308315937023 -0.5516000946389863 0.3147823787916386
vn 0.9130886610201346 -0.2883306385924862 0.28833060879016437
vn 0.974682437188771 -3.0492827852385133e-9 0.2235937088465534
vn 0.9746824306938655 0.2235937371589335 2.0145977813846467e-9
vn 0.8775702013565174 0.47944816371645554 3.4210089905601363e-9
vn 0.9130886845584328 0.2883305864206489 0.2883305864206489
vn 0.7724307713203051 0.5516000941614235 0.314782527530718
vn 0.7724307784993633 -0.3147822920377627 0.5516002184973463
vn 0.8775700473986248 -1.7848735003802108e-9 0.4794484455171125
vn 0.772430696419565 0.3147823126809711 0.5516003216569089
vn -0.7724308424295855 -0.31478223419588397 -0.5516001619816372
vn -0.7724308170336569 0.31478222384649507 -0.5516002034508078
vn -0.7724308424295855 -0.5516001619816372 -0.31478223419588397
vn -0.9130887415454262 -0.2883304961870925 -0.2883304961870925
vn -0.8775702652151008 -2.084636670584852e-9 -0.47944804683124675
vn -0.9746823757547035 2.953701682388356e-9 -0.22359397664777808
vn -0.913088749391523 0.28833049866469285 -0.2883304688623701
vn -0.7724308424295855 0.5516001619816372 -0.31478223419588397
vn -0.5516000998136823 -0.314782351942367 -0.7724308388400657
vn -0.2883306385924862 -0.28833060879016437 -0.9130886610201346
vn 8.134647845858321e-10 -0.2235937088465534 -0.974682437188771
vn -0.3147822920377627 -0.5516002184973463 -0.7724307784993633
vn -1.4333268139869294e-9 -0.4794484455171125 -0.8775700473986248
vn -0.5773501499803279 -0.5773503287942654 -0.5773503287942654
vn -1.4002533816727523e-9 -0.7071067811865476 -0.7071067811865476
vn -0.3147822961810921 -0.7724307290618561 -0.551600285362443
vn -0.5516000998136823 0.314782351942367 -0.7724308388400657
vn -0.4794483286319222 -1.455740892008992e-9 -0.8775701112572467
vn -0.2235937371589335 2.782007457301253e-9 -0.9746824306938655
vn -0.288330651807084 0.288330651807084 -0.9130886432636232
vn -1.4541668980072586e-9 1.3607298621209907e-9 -1
vn 8.134647845858321e-10 0.2235937088465534 -0.974682437188771
vn -0.3147822920377627 0.5516002184973463 -0.7724307784993633
vn -1.4333267730262396e-9 0.4794484914203879 -0.8775700223199936
vn -0.7071066917795769 2.148111634754122e-10 -0.7071068705935067
vn -0.5773501499803279 0.5773503287942654 -0.5773503287942654
vn -1.7273021087079142e-9 0.7071067811865476 -0.7071067811865476
vn 0.28833052929360464 -0.2883306187005731 -0.91308869240453
vn 0.3147823126809711 -0.5516003216569089 -0.772430696419565
vn 0.5516000941614235 -0.314782527530718 -0.7724307713203051
vn 0.3147823126809711 -0.772430696419565 -0.5516003216569089
vn 0.5773501499803279 -0.5773503287942654 -0.5773503287942654
vn 0.7724308424968976 -0.31478244283957324 -0.551600042820415
vn 0.2235937513151233 -2.4207002501260223e-10 -0.9746824274464124
vn 0.288330559095928 0.28833058889825075 -0.9130886924045316
vn 0.47944816371645554 -1.2835689301730813e-10 -0.8775702013565174
vn 0.5516000941614235 0.314782527530718 -0.7724307713203051
vn 0.3147823126809711 0.5516003216569089 -0.772430696419565
vn 0.70710693019814 -2.500426691944808e-9 -0.7071066321749235
vn 0.8775702652151008 -2.084636670584852e-9 -0.47944804683124675
vn 0.7724308424968976 0.31478244283957324 -0.551600042820415
vn 0.5773500705074627 0.5773503685306817 -0.5773503685306817
vn -0.5516000531698078 -0.7724308569896271 -0.3147823891410308
vn -1.4333268139869294e-9 -0.8775700473986248 -0.4794484455171125
vn -0.2883306385924862 -0.9130886610201346 -0.28833060879016437
vn 8.134647845858321e-10 -0.974682437188771 -0.2235937088465534
vn 0.28833052929360464 -0.91308869240453 -0.2883306187005731
vn 0.5516000889867249 -0.7724307640739385 -0.3147825543799861
vn 0.7724308352505321 -0.5516000376457181 -0.3147824696888433
vn 0.9130887415454262 -0.2883304961870925 -0.2883304961870925
vn 0.9746823757547035 2.953701682388356e-9 -0.22359397664777808
vn 0.913088749391523 0.28833049866469285 -0.2883304688623701
vn 0.7724308352505321 0.5516000376457181 -0.3147824696888433
vn -0.3147822920377627 0.7724307784993633 -0.5516002184973463
vn -1.4333268139869294e-9 0.8775700473986248 -0.4794484455171125
vn 0.31478232303036513 0.7724307218154951 -0.5516002801877461
vn -0.5516000946389863 0.7724308315937023 -0.3147823787916386
vn -0.2883306385924862 0.9130886610201346 -0.28833060879016437
vn 8.134647845858321e-10 0.974682437188771 -0.2235937088465534
vn 0.28833052929360464 0.91308869240453 -0.2883306187005731
vn 0.5516001610265218 0.7724307218828037 -0.3147825316740526
vn -0.8775702652151008 -0.47944804683124675 -1.5065428796635884e-9
vn -0.9746823757547035 -0.22359397664777808 -9.090443258736205e-10
vn -0.7724308170336569 -0.5516002034508078 0.31478222384649507
vn -0.9130887415454262 -0.2883304961870925 0.2883304961870925
vn -1 -1.4541663428957463e-9 -1.4541663428957463e-9
vn -0.974682372507247 0.22359399080396633 1.59405463630619e-9
vn -0.8775702652151008 0.47944804683124675 -1.5065428796635884e-9
vn -0.9746823757547035 -3.373183347581359e-10 0.22359397664777808
vn -0.9130887258532315 0.2883305210342134 0.2883305210342134
vn -0.7724308424295855 0.5516001619816372 0.31478223419588397
vn -0.7724308424295855 -0.31478223419588397 0.5516001619816372
vn -0.8775702652151008 -8.09082350880508e-10 0.47944804683124675
vn -0.7724308424295855 0.31478223419588397 0.5516001619816372
vn -0.7071066917795769 -0.7071068705935067 2.148111634754122e-10
vn -0.4794483286319222 -0.8775701112572467 -1.455740892008992e-9
vn -0.2235937371589335 -0.9746824306938655 8.322446037049417e-11
vn -1.4541668980072586e-9 -1 1.3607298621209907e-9
vn -0.5516000998136823 -0.7724308388400657 0.314782351942367
vn -0.2883306385924862 -0.9130886610201346 0.28833060879016437
vn -3.0492827852385133e-9 -0.974682437188771 0.2235937088465534
vn -0.7071066917795769 0.7071068705935067 1.6357305100618436e-9
vn 0.2235937371589335 -0.9746824306938655 2.0145977813846467e-9
vn 0.47944816371645554 -0.8775702013565174 3.4210089905601363e-9
vn 0.707106900395829 -0.7071066619772459 1.743542784456961e-9
vn 0.8775702652151008 -0.47944804683124675 -1.5065428796635884e-9
vn 0.9746823757547035 -0.22359397664777808 -9.090443258736205e-10
vn 0.2883305864206489 -0.9130886845584328 0.2883305864206489
vn 0.5516000941614235 -0.7724307713203051 0.314782527530718
vn 0.7724308424968976 -0.551600042820415 0.31478244283957324
vn 0.9130887415454262 -0.2883304961870925 0.2883304961870925
vn 1 -1.4541663428957463e-9 -1.4541663428957463e-9
vn 0.974682372507247 0.22359399080396633 1.59405463630619e-9
vn 0.707106900395829 0.7071066619772459 1.5932246905767678e-9
vn 0.8775702652151008 0.47944804683124675 -1.5065428796635884e-9
vn 0.9746823757547035 -3.373183347581359e-10 0.22359397664777808
vn 0.9130887258532315 0.2883305210342134 0.2883305210342134
vn 0.7724308424968976 0.551600042820415 0.31478244283957324
vn -0.5773501499803279 -0.5773503287942654 0.5773503287942654
vn -0.3147822920377627 -0.7724307784993633 0.5516002184973463
vn -1.7848735003802108e-9 -0.8775700473986248 0.4794484455171125
vn -1.4002533816727523e-9 -0.7071067811865476 0.7071067811865476
vn -0.5516000531698078 -0.3147823891410308 0.7724308569896271
vn -0.3147822920377627 -0.5516002184973463 0.7724307784993633
vn -1.4333268139869294e-9 -0.4794484455171125 0.8775700473986248
vn -0.2883306112677668 -0.2883306112677668 0.9130886688662343
vn 8.134647845858321e-10 -0.2235937088465534 0.974682437188771
vn -0.7071066917795769 -8.171052518784395e-11 0.7071068705935067
vn -0.5773500705074627 0.5773503685306817 0.5773503685306817
vn -1.7273020359075742e-9 0.7071068109888685 0.7071067513842252
vn -0.5516000946389863 0.3147823787916386 0.7724308315937023
vn -0.4794483286319222 -1.9971147381209752e-9 0.8775701112572467
vn -0.2235937371589335 2.782007457301253e-9 0.9746824306938655
vn -0.2883306385924862 0.28833060879016437 0.9130886610201346
vn -1.4541668980072586e-9 1.3607298621209907e-9 1
vn 8.134647845858321e-10 0.2235937088465534 0.974682437188771
vn -0.3147822920377627 0.5516002184973463 0.7724307784993633
vn -1.4333268139869294e-9 0.4794484455171125 0.8775700473986248
vn 0.3147823126809711 -0.772430696419565 0.5516003216569089
vn 0.5773501499803279 -0.5773503287942654 0.5773503287942654
vn 0.7724308352505321 -0.3147824696888433 0.5516000376457181
vn 0.3147823126809711 -0.5516003216569089 0.772430696419565
vn 0.5516001610265218 -0.3147825316740526 0.7724307218828037
vn 0.2883305566183261 -0.2883306162229712 0.9130886845584321
vn 0.8775702652151008 -8.09082350880508e-10 0.47944804683124675
vn 0.7724308352505321 0.3147824696888433 0.5516000376457181
vn 0.707106900395829 -1.8416584128704778e-9 0.7071066619772459
vn 0.5773500705074627 0.5773503685306817 0.5773503685306817
vn 0.47944816371645554 -1.2835689301730813e-10 0.8775702013565174
vn 0.5516000941614235 0.314782527530718 0.7724307713203051
vn 0.2235937513151233 -2.4207002501260223e-10 0.9746824274464124
vn 0.288330559095928 0.28833058889825075 0.9130886924045316
vn 0.3147823126809711 0.5516003216569089 0.772430696419565
vn -0.4794483286319222 0.8775701112572467 -1.455740892008992e-9
vn -0.2235937371589335 0.9746824306938655 8.322446037049417e-11
vn -1.4541668980072586e-9 1 1.3607298621209907e-9
vn -0.5516000946389863 0.7724308315937023 0.3147823787916386
vn -0.2883306385924862 0.9130886610201346 0.28833060879016437
vn -3.0492827852385133e-9 0.974682437188771 0.2235937088465534
vn 0.2235937371589335 0.9746824306938655 2.0145977813846467e-9
vn 0.47944816371645554 0.8775702013565174 3.4210089905601363e-9
vn 0.2883305864206489 0.9130886845584328 0.2883305864206489
vn 0.5516000941614235 0.7724307713203051 0.314782527530718
vn -0.3147822920377627 0.7724307784993633 0.5516002184973463
vn -1.7848735003802108e-9 0.8775700473986248 0.4794484455171125
vn 0.3147823126809711 0.772430696419565 0.5516003216569089
f 7//7 15//15 1//1
f 1//1 3//3 2//2
f 2//2 9//9 1//1
f 1//1 17//17 3//3
f 4//4 5//5 2//2
f 5//5 12//12 2//2
f 3//3 6//6 4//4
f 3//3 20//20 6//6
f 4//4 2//2 3//3
f 2//2 12//12 9//9
f 9//9 12//12 10//10
f 7//7 1//1 9//9
f 7//7 9//9 8//8
f 24//24 7//7 8//8
f 8//8 9//9 10//10
f 8//8 10//10 11//11
f 11//11 27//27 8//8
f 10//10 12//12 13//13
f 5//5 38//38 12//12
f 12//12 38//38 13//13
f 10//10 13//13 14//14
f 14//14 11//11 10//10
f 14//14 46//46 11//11
f 46//46 31//31 11//11
f 17//17 20//20 3//3
f 18//18 20//20 17//17
f 15//15 17//17 1//1
f 15//15 16//16 17//17
f 15//15 25//25 16//16
f 18//18 17//17 16//16
f 16//16 19//19 18//18
f 16//16 29//29 19//19
f 21//21 20//20 18//18
f 20//20 42//42 6//6
f 21//21 42//42 20//20
f 22//22 21//21 18//18
f 22//22 18//18 19//19
f 19//19 54//54 22//22
f 19//19 32//32 54//54
f 7//7 23//23 15//15
f 24//24 23//23 7//7
f 15//15 23//23 25//25
f 25//25 23//23 24//24
f 25//25 24//24 26//26
f 24//24 8//8 27//27
f 24//24 27//27 26//26
f 11//11 31//31 27//27
f 26//26 27//27 28//28
f 27//27 31//31 28//28
f 25//25 29//29 16//16
f 25//25 26//26 29//29
f 30//30 29//29 26//26
f 29//29 32//32 19//19
f 30//30 32//32 29//29
f 26//26 28//28 30//30
f 28//28 31//31 48//48
f 56//56 32//32 30//30
f 33//33 30//30 28//28
f 28//28 48//48 33//33
f 33//33 56//56 30//30
f 36//36 34//34 4//4
f 35//35 38//38 5//5
f 34//34 5//5 4//4
f 34//34 35//35 5//5
f 36//36 4//4 6//6
f 6//6 42//42 37//37
f 6//6 37//37 36//36
f 62//62 34//34 36//36
f 62//62 63//63 34//34
f 65//65 62//62 36//36
f 63//63 35//35 34//34
f 64//64 39//39 35//35
f 63//63 64//64 35//35
f 65//65 36//36 37//37
f 37//37 43//43 66//66
f 37//37 66//66 65//65
f 13//13 38//38 40//40
f 35//35 39//39 38//38
f 38//38 39//39 40//40
f 41//41 14//14 13//13
f 41//41 49//49 14//14
f 13//13 40//40 41//41
f 49//49 46//46 14//14
f 40//40 39//39 72//72
f 64//64 71//71 39//39
f 39//39 71//71 72//72
f 73//73 41//41 40//40
f 74//74 49//49 41//41
f 40//40 72//72 73//73
f 73//73 74//74 41//41
f 44//44 42//42 21//21
f 42//42 43//43 37//37
f 44//44 43//43 42//42
f 45//45 21//21 22//22
f 57//57 45//45 22//22
f 45//45 44//44 21//21
f 57//57 22//22 54//54
f 79//79 43//43 44//44
f 43//43 78//78 66//66
f 79//79 78//78 43//43
f 80//80 44//44 45//45
f 81//81 45//45 57//57
f 80//80 79//79 44//44
f 81//81 80//80 45//45
f 53//53 33//33 48//48
f 61//61 56//56 33//33
f 53//53 61//61 33//33
f 85//85 61//61 53//53
f 46//46 47//47 31//31
f 31//31 47//47 48//48
f 50//50 47//47 46//46
f 49//49 50//50 46//46
f 74//74 121//121 49//49
f 121//121 50//50 49//49
f 122//122 51//51 50//50
f 121//121 122//122 50//50
f 48//48 47//47 52//52
f 50//50 51//51 47//47
f 47//47 51//51 52//52
f 48//48 52//52 53//53
f 52//52 51//51 126//126
f 122//122 125//125 51//51
f 51//51 125//125 126//126
f 127//127 53//53 52//52
f 52//52 126//126 127//127
f 127//127 85//85 53//53
f 32//32 55//55 54//54
f 56//56 55//55 32//32
f 54//54 55//55 58//58
f 54//54 58//58 57//57
f 134//134 81//81 57//57
f 134//134 57//57 58//58
f 58//58 59//59 135//135
f 58//58 135//135 134//134
f 60//60 55//55 56//56
f 55//55 59//59 58//58
f 60//60 59//59 55//55
f 61//61 60//60 56//56
f 138//138 59//59 60//60
f 59//59 139//139 135//135
f 138//138 139//139 59//59
f 140//140 60//60 61//61
f 140//140 138//138 60//60
f 85//85 140//140 61//61
f 67//67 63//63 62//62
f 69//69 62//62 65//65
f 67//67 62//62 69//69
f 68//68 64//64 63//63
f 68//68 63//63 67//67
f 75//75 64//64 68//68
f 66//66 70//70 65//65
f 69//69 65//65 70//70
f 66//66 82//82 70//70
f 86//86 67//67 69//69
f 87//87 68//68 67//67
f 92//92 68//68 87//87
f 87//87 67//67 86//86
f 70//70 88//88 69//69
f 86//86 69//69 88//88
f 70//70 101//101 88//88
f 75//75 71//71 64//64
f 72//72 71//71 75//75
f 72//72 75//75 76//76
f 72//72 76//76 73//73
f 77//77 74//74 73//73
f 77//77 73//73 76//76
f 123//123 74//74 77//77
f 92//92 75//75 68//68
f 75//75 92//92 76//76
f 76//76 92//92 93//93
f 76//76 93//93 77//77
f 95//95 77//77 93//93
f 95//95 123//123 77//77
f 131//131 123//123 95//95
f 66//66 78//78 82//82
f 82//82 78//78 79//79
f 82//82 79//79 83//83
f 83//83 79//79 80//80
f 84//84 80//80 81//81
f 83//83 80//80 84//84
f 84//84 81//81 136//136
f 82//82 101//101 70//70
f 101//101 82//82 83//83
f 101//101 83//83 102//102
f 102//102 83//83 84//84
f 102//102 84//84 104//104
f 104//104 84//84 136//136
f 104//104 136//136 144//144
f 143//143 85//85 130//130
f 112//112 130//130 133//133
f 146//146 143//143 112//112
f 112//112 143//143 130//130
f 89//89 87//87 86//86
f 94//94 87//87 89//89
f 88//88 90//90 86//86
f 88//88 103//103 90//90
f 89//89 86//86 90//90
f 90//90 91//91 89//89
f 96//96 89//89 91//91
f 90//90 105//105 91//91
f 91//91 107//107 98//98
f 94//94 92//92 87//87
f 92//92 94//94 93//93
f 93//93 94//94 97//97
f 93//93 97//97 95//95
f 100//100 95//95 97//97
f 100//100 131//131 95//95
f 110//110 131//131 100//100
f 96//96 94//94 89//89
f 94//94 96//96 97//97
f 97//97 96//96 99//99
f 91//91 98//98 96//96
f 96//96 98//98 99//99
f 99//99 98//98 114//114
f 97//97 99//99 100//100
f 117//117 100//100 99//99
f 101//101 103//103 88//88
f 103//103 101//101 102//102
f 103//103 102//102 106//106
f 106//106 102//102 104//104
f 106//106 104//104 109//109
f 144//144 109//109 104//104
f 144//144 111//111 109//109
f 103//103 105//105 90//90
f 105//105 103//103 106//106
f 105//105 106//106 108//108
f 105//105 107//107 91//91
f 108//108 107//107 105//105
f 108//108 115//115 107//107
f 109//109 108//108 106//106
f 109//109 119//119 108//108
f 133//133 110//110 118//118
f 111//111 146//146 120//120
f 120//120 112//112 118//118
f 133//133 118//118 112//112
f 120//120 146//146 112//112
f 107//107 113//113 98//98
f 98//98 113//113 114//114
f 115//115 113//113 107//107
f 114//114 113//113 115//115
f 116//116 114//114 115//115
f 117//117 110//110 100//100
f 118//118 117//117 116//116
f 110//110 117//117 118//118
f 99//99 114//114 117//117
f 117//117 114//114 116//116
f 119//119 120//120 116//116
f 111//111 119//119 109//109
f 119//119 111//111 120//120
f 119//119 115//115 108//108
f 116//116 115//115 119//119
f 118//118 116//116 120//120
f 123//123 121//121 74//74
f 124//124 122//122 121//121
f 124//124 121//121 123//123
f 128//128 122//122 124//124
f 131//131 124//124 123//123
f 132//132 124//124 131//131
f 128//128 125//125 122//122
f 126//126 125//125 128//128
f 126//126 128//128 129//129
f 126//126 129//129 127//127
f 130//130 85//85 127//127
f 130//130 127//127 129//129
f 132//132 128//128 124//124
f 128//128 132//132 129//129
f 129//129 132//132 133//133
f 129//129 133//133 130//130
f 110//110 132//132 131//131
f 132//132 110//110 133//133
f 136//136 81//81 134//134
f 135//135 137//137 134//134
f 136//136 134//134 137//137
f 135//135 141//141 137//137
f 137//137 144//144 136//136
f 137//137 145//145 144//144
f 135//135 139//139 141//141
f 141//141 139//139 138//138
f 141//141 138//138 142//142
f 142//142 138//138 140//140
f 143//143 140//140 85//85
f 142//142 140//140 143//143
f 141//141 145//145 137//137
f 145//145 141//141 142//142
f 145//145 142//142 146//146
f 146//146 142//142 143//143
f 145//145 111//111 144//144
f 111//111 145//145 146//146
f 293//293 297//297 317//317
f 317//317 297//297 294//294
f 296//296 297//297 293//293
f 295//295 296//296 293//293
f 367//367 354//354 295//295
f 354//354 296//296 295//295
f 355//355 298//298 296//296
f 354//354 355//355 296//296
f 294//294 297//297 299//299
f 296//296 298//298 297//297
f 297//297 298//298 299//299
f 294//294 299//299 300//300
f 299//299 298//298 359//359
f 355//355 358//358 298//298
f 298//298 358//358 359//359
f 360//360 300//300 299//299
f 299//299 359//359 360//360
f 360//360 374//374 300//300
f 302//302 304//304 301//301
f 301//301 310//310 302//302
f 305//305 307//307 304//304
f 321//321 307//307 305//305
f 311//311 303//303 302//302
f 303//303 305//305 302//302
f 303//303 320//320 305//305
f 302//302 305//305 304//304
f 304//304 308//308 306//306
f 306//306 293//293 301//301
f 293//293 317//317 301//301
f 306//306 301//301 304//304
f 304//304 307//307 308//308
f 307//307 336//336 308//308
f 323//323 336//336 307//307
f 311//311 302//302 310//310
f 311//311 310//310 312//312
f 301//301 317//317 310//310
f 310//310 317//317 309//309
f 312//312 310//310 309//309
f 312//312 309//309 315//315
f 314//314 311//311 312//312
f 311//311 313//313 303//303
f 314//314 313//313 311//311
f 303//303 313//313 326//326
f 326//326 313//313 314//314
f 314//314 312//312 316//316
f 314//314 316//316 327//327
f 315//315 316//316 312//312
f 315//315 319//319 316//316
f 316//316 319//319 330//330
f 309//309 317//317 294//294
f 309//309 294//294 318//318
f 318//318 315//315 309//309
f 318//318 346//346 315//315
f 346//346 319//319 315//315
f 303//303 326//326 320//320
f 321//321 305//305 320//320
f 320//320 322//322 321//321
f 320//320 328//328 322//322
f 323//323 307//307 321//321
f 324//324 323//323 321//321
f 324//324 321//321 322//322
f 322//322 325//325 324//324
f 322//322 331//331 325//325
f 326//326 314//314 327//327
f 326//326 328//328 320//320
f 326//326 327//327 328//328
f 329//329 328//328 327//327
f 327//327 316//316 330//330
f 327//327 330//330 329//329
f 328//328 331//331 322//322
f 329//329 331//331 328//328
f 330//330 319//319 348//348
f 334//334 329//329 330//330
f 330//330 348//348 334//334
f 333//333 331//331 329//329
f 331//331 332//332 325//325
f 333//333 332//332 331//331
f 334//334 333//333 329//329
f 335//335 295//295 306//306
f 335//335 306//306 308//308
f 308//308 337//337 335//335
f 295//295 293//293 306//306
f 308//308 336//336 337//337
f 336//336 338//338 337//337
f 339//339 338//338 336//336
f 367//367 295//295 335//335
f 368//368 335//335 337//337
f 368//368 367//367 335//335
f 337//337 369//369 368//368
f 337//337 338//338 369//369
f 338//338 370//370 369//369
f 375//375 370//370 338//338
f 300//300 318//318 294//294
f 300//300 349//349 318//318
f 349//349 346//346 318//318
f 374//374 349//349 300//300
f 339//339 336//336 323//323
f 340//340 323//323 324//324
f 340//340 339//339 323//323
f 341//341 340//340 324//324
f 341//341 324//324 325//325
f 325//325 332//332 342//342
f 325//325 342//342 341//341
f 375//375 338//338 339//339
f 376//376 339//339 340//340
f 376//376 375//375 339//339
f 377//377 340//340 341//341
f 377//377 376//376 340//340
f 378//378 377//377 341//341
f 378//378 341//341 342//342
f 342//342 343//343 379//379
f 342//342 379//379 378//378
f 353//353 334//334 348//348
f 344//344 332//332 333//333
f 332//332 343//343 342//342
f 344//344 343//343 332//332
f 345//345 333//333 334//334
f 353//353 345//345 334//334
f 345//345 344//344 333//333
f 385//385 343//343 344//344
f 343//343 384//384 379//379
f 385//385 384//384 343//343
f 386//386 345//345 353//353
f 387//387 344//344 345//345
f 387//387 385//385 344//344
f 386//386 387//387 345//345
f 346//346 347//347 319//319
f 319//319 347//347 348//348
f 349//349 350//350 346//346
f 350//350 347//347 346//346
f 350//350 351//351 347//347
f 347//347 351//351 352//352
f 426//426 350//350 349//349
f 374//374 426//426 349//349
f 426//426 427//427 350//350
f 427//427 351//351 350//350
f 427//427 428//428 351//351
f 351//351 428//428 432//432
f 348//348 347//347 352//352
f 348//348 352//352 353//353
f 352//352 351//351 432//432
f 433//433 353//353 352//352
f 352//352 432//432 433//433
f 433//433 386//386 353//353
f 356//356 354//354 367//367
f 357//357 355//355 354//354
f 357//357 354//354 356//356
f 361//361 355//355 357//357
f 364//364 357//357 356//356
f 365//365 357//357 364//364
f 361//361 358//358 355//355
f 359//359 358//358 361//361
f 359//359 361//361 362//362
f 359//359 362//362 360//360
f 363//363 374//374 360//360
f 363//363 360//360 362//362
f 365//365 361//361 357//357
f 361//361 365//365 362//362
f 362//362 365//365 366//366
f 362//362 366//366 363//363
f 400//400 365//365 364//364
f 365//365 400//400 366//366
f 371//371 367//367 368//368
f 369//369 372//372 368//368
f 356//356 367//367 371//371
f 371//371 368//368 372//372
f 369//369 370//370 373//373
f 373//373 370//370 375//375
f 369//369 373//373 372//372
f 372//372 392//392 371//371
f 391//391 356//356 371//371
f 391//391 371//371 392//392
f 364//364 356//356 391//391
f 373//373 393//393 372//372
f 393//393 373//373 380//380
f 372//372 393//393 392//392
f 429//429 374//374 363//363
f 401//401 363//363 366//366
f 401//401 429//429 363//363
f 436//436 429//429 401//401
f 380//380 375//375 376//376
f 373//373 375//375 380//380
f 380//380 376//376 381//381
f 381//381 376//376 377//377
f 382//382 377//377 378//378
f 381//381 377//377 382//382
f 379//379 383//383 378//378
f 382//382 378//378 383//383
f 379//379 388//388 383//383
f 411//411 380//380 381//381
f 393//393 380//380 411//411
f 411//411 381//381 412//412
f 412//412 381//381 382//382
f 383//383 413//413 382//382
f 412//412 382//382 413//413
f 383//383 417//417 413//413
f 379//379 384//384 388//388
f 388//388 384//384 385//385
f 388//388 385//385 389//389
f 389//389 385//385 387//387
f 390//390 387//387 386//386
f 390//390 386//386 435//435
f 389//389 387//387 390//390
f 420//420 435//435 438//438
f 388//388 417//417 383//383
f 417//417 388//388 389//389
f 417//417 389//389 418//418
f 418//418 389//389 390//390
f 418//418 390//390 420//420
f 420//420 390//390 435//435
f 392//392 396//396 391//391
f 395//395 364//364 391//391
f 400//400 364//364 395//395
f 395//395 391//391 396//396
f 393//393 394//394 392//392
f 394//394 393//393 411//411
f 392//392 394//394 396//396
f 396//396 398//398 395//395
f 404//404 395//395 398//398
f 394//394 397//397 396//396
f 397//397 394//394 414//414
f 396//396 397//397 398//398
f 398//398 399//399 405//405
f 397//397 399//399 398//398
f 416//416 399//399 397//397
f 366//366 400//400 403//403
f 366//366 403//403 401//401
f 409//409 401//401 403//403
f 409//409 436//436 401//401
f 402//402 436//436 409//409
f 404//404 400//400 395//395
f 400//400 404//404 403//403
f 403//403 404//404 406//406
f 398//398 405//405 404//404
f 404//404 405//405 406//406
f 403//403 406//406 409//409
f 406//406 405//405 408//408
f 399//399 407//407 405//405
f 405//405 407//407 408//408
f 423//423 407//407 399//399
f 408//408 407//407 423//423
f 410//410 409//409 406//406
f 410//410 402//402 409//409
f 402//402 410//410 425//425
f 406//406 408//408 410//410
f 410//410 408//408 424//424
f 394//394 411//411 414//414
f 414//414 411//411 412//412
f 414//414 412//412 415//415
f 413//413 415//415 412//412
f 413//413 419//419 415//415
f 397//397 414//414 416//416
f 415//415 416//416 414//414
f 415//415 421//421 416//416
f 416//416 423//423 399//399
f 438//438 402//402 425//425
f 422//422 420//420 425//425
f 438//438 425//425 420//420
f 417//417 419//419 413//413
f 419//419 417//417 418//418
f 419//419 418//418 422//422
f 422//422 418//418 420//420
f 421//421 422//422 424//424
f 424//424 408//408 423//423
f 421//421 423//423 416//416
f 424//424 423//423 421//421
f 425//425 410//410 424//424
f 425//425 424//424 422//422
f 419//419 421//421 415//415
f 421//421 419//419 422//422
f 429//429 426//426 374//374
f 430//430 427//427 426//426
f 430//430 426//426 429//429
f 431//431 428//428 427//427
f 432//432 428//428 431//431
f 431//431 427//427 430//430
f 436//436 430//430 429//429
f 437//437 431//431 430//430
f 431//431 437//437 434//434
f 437//437 430//430 436//436
f 432//432 434//434 433//433
f 432//432 431//431 434//434
f 435//435 433//433 434//434
f 435//435 386//386 433//433
f 434//434 438//438 435//435
f 434//434 437//437 438//438
f 402//402 437//437 436//436
f 437//437 402//402 438//438
f 177//177 151//151 147//147
f 148//148 151//151 177//177
f 147//147 151//151 150//150
f 147//147 150//150 149//149
f 208//208 222//222 149//149
f 208//208 149//149 150//150
f 150//150 152//152 209//209
f 150//150 209//209 208//208
f 153//153 151//151 148//148
f 151//151 152//152 150//150
f 153//153 152//152 151//151
f 154//154 153//153 148//148
f 213//213 152//152 153//153
f 152//152 212//212 209//209
f 213//213 212//212 152//152
f 214//214 153//153 154//154
f 214//214 213//213 153//153
f 237//237 214//214 154//154
f 158//158 161//161 159//159
f 159//159 161//161 164//164
f 156//156 155//155 158//158
f 156//156 169//169 155//155
f 157//157 156//156 159//159
f 157//157 159//159 163//163
f 157//157 171//171 156//156
f 158//158 159//159 156//156
f 160//160 162//162 158//158
f 162//162 161//161 158//158
f 162//162 190//190 161//161
f 161//161 190//190 166//166
f 155//155 147//147 160//160
f 160//160 158//158 155//155
f 155//155 177//177 147//147
f 180//180 157//157 163//163
f 163//163 159//159 164//164
f 163//163 164//164 165//165
f 165//165 182//182 163//163
f 164//164 161//161 166//166
f 164//164 166//166 167//167
f 167//167 165//165 164//164
f 167//167 168//168 165//165
f 168//168 185//185 165//165
f 171//171 169//169 156//156
f 171//171 173//173 169//169
f 169//169 177//177 155//155
f 170//170 177//177 169//169
f 170//170 169//169 173//173
f 157//157 172//172 171//171
f 180//180 172//172 157//157
f 171//171 172//172 174//174
f 174//174 172//172 180//180
f 171//171 174//174 173//173
f 173//173 176//176 170//170
f 174//174 175//175 173//173
f 174//174 181//181 175//175
f 173//173 175//175 176//176
f 175//175 179//179 176//176
f 184//184 179//179 175//175
f 148//148 177//177 170//170
f 178//178 148//148 170//170
f 178//178 170//170 176//176
f 176//176 200//200 178//178
f 176//176 179//179 200//200
f 180//180 163//163 182//182
f 180//180 182//182 181//181
f 174//174 180//180 181//181
f 181//181 182//182 183//183
f 165//165 185//185 182//182
f 182//182 185//185 183//183
f 184//184 175//175 181//181
f 181//181 183//183 184//184
f 183//183 185//185 187//187
f 168//168 186//186 185//185
f 185//185 186//186 187//187
f 188//188 184//184 183//183
f 202//202 179//179 184//184
f 188//188 202//202 184//184
f 183//183 187//187 188//188
f 149//149 189//189 160//160
f 189//189 162//162 160//160
f 189//189 191//191 162//162
f 191//191 190//190 162//162
f 191//191 192//192 190//190
f 190//190 192//192 193//193
f 149//149 160//160 147//147
f 221//221 191//191 189//189
f 222//222 189//189 149//149
f 222//222 221//221 189//189
f 221//221 223//223 191//191
f 223//223 192//192 191//191
f 223//223 224//224 192//192
f 192//192 224//224 228//228
f 166//166 190//190 193//193
f 194//194 167//167 166//166
f 166//166 193//193 194//194
f 194//194 195//195 167//167
f 195//195 168//168 167//167
f 196//196 186//186 168//168
f 195//195 196//196 168//168
f 193//193 192//192 228//228
f 229//229 194//194 193//193
f 193//193 228//228 229//229
f 230//230 195//195 194//194
f 229//229 230//230 194//194
f 230//230 231//231 195//195
f 231//231 196//196 195//195
f 232//232 197//197 196//196
f 231//231 232//232 196//196
f 154//154 148//148 178//178
f 203//203 154//154 178//178
f 203//203 178//178 200//200
f 237//237 154//154 203//203
f 187//187 186//186 198//198
f 196//196 197//197 186//186
f 186//186 197//197 198//198
f 207//207 202//202 188//188
f 199//199 188//188 187//187
f 199//199 207//207 188//188
f 187//187 198//198 199//199
f 198//198 197//197 239//239
f 232//232 238//238 197//197
f 197//197 238//238 239//239
f 240//240 199//199 198//198
f 241//241 207//207 199//199
f 198//198 239//239 240//240
f 240//240 241//241 199//199
f 179//179 201//201 200//200
f 202//202 201//201 179//179
f 200//200 204//204 203//203
f 200//200 201//201 204//204
f 201//201 205//205 204//204
f 206//206 205//205 201//201
f 280//280 203//203 204//204
f 280//280 237//237 203//203
f 204//204 281//281 280//280
f 204//204 205//205 281//281
f 205//205 282//282 281//281
f 286//286 282//282 205//205
f 206//206 201//201 202//202
f 207//207 206//206 202//202
f 286//286 205//205 206//206
f 287//287 206//206 207//207
f 287//287 286//286 206//206
f 241//241 287//287 207//207
f 210//210 222//222 208//208
f 209//209 211//211 208//208
f 210//210 208//208 211//211
f 209//209 215//215 211//211
f 211//211 218//218 210//210
f 211//211 219//219 218//218
f 209//209 212//212 215//215
f 215//215 212//212 213//213
f 215//215 213//213 216//216
f 216//216 213//213 214//214
f 217//217 214//214 237//237
f 216//216 214//214 217//217
f 215//215 219//219 211//211
f 219//219 215//215 216//216
f 219//219 216//216 220//220
f 220//220 216//216 217//217
f 219//219 260//260 218//218
f 260//260 219//219 220//220
f 225//225 221//221 222//222
f 226//226 223//223 221//221
f 226//226 221//221 225//225
f 225//225 222//222 210//210
f 227//227 224//224 223//223
f 228//228 224//224 227//227
f 227//227 223//223 226//226
f 246//246 226//226 225//225
f 245//245 225//225 210//210
f 246//246 225//225 245//245
f 247//247 227//227 226//226
f 227//227 247//247 233//233
f 247//247 226//226 246//246
f 245//245 210//210 218//218
f 228//228 233//233 229//229
f 228//228 227//227 233//233
f 234//234 229//229 233//233
f 234//234 230//230 229//229
f 235//235 231//231 230//230
f 235//235 230//230 234//234
f 236//236 232//232 231//231
f 236//236 231//231 235//235
f 242//242 232//232 236//236
f 233//233 254//254 234//234
f 233//233 247//247 254//254
f 255//255 234//234 254//254
f 255//255 235//235 234//234
f 256//256 236//236 235//235
f 256//256 235//235 255//255
f 271//271 236//236 256//256
f 217//217 237//237 283//283
f 220//220 217//217 261//261
f 261//261 217//217 283//283
f 261//261 283//283 290//290
f 242//242 238//238 232//232
f 239//239 238//238 242//242
f 239//239 242//242 243//243
f 239//239 243//243 240//240
f 244//244 241//241 240//240
f 244//244 240//240 243//243
f 289//289 241//241 244//244
f 271//271 242//242 236//236
f 242//242 271//271 243//243
f 243//243 271//271 272//272
f 292//292 289//289 274//274
f 243//243 272//272 244//244
f 274//274 244//244 272//272
f 274//274 289//289 244//244
f 250//250 246//246 245//245
f 248//248 247//247 246//246
f 247//247 248//248 254//254
f 248//248 246//246 250//250
f 218//218 249//249 245//245
f 250//250 245//245 249//249
f 218//218 260//260 249//249
f 251//251 248//248 250//250
f 248//248 251//251 257//257
f 249//249 252//252 250//250
f 249//249 263//263 252//252
f 251//251 250//250 252//252
f 252//252 253//253 251//251
f 251//251 253//253 259//259
f 252//252 265//265 253//253
f 254//254 248//248 257//257
f 254//254 257//257 255//255
f 258//258 255//255 257//257
f 258//258 256//256 255//255
f 273//273 256//256 258//258
f 257//257 251//251 259//259
f 257//257 259//259 258//258
f 275//275 258//258 259//259
f 259//259 253//253 277//277
f 260//260 220//220 264//264
f 264//264 220//220 261//261
f 264//264 261//261 270//270
f 290//290 270//270 261//261
f 290//290 262//262 270//270
f 260//260 263//263 249//249
f 263//263 260//260 264//264
f 263//263 264//264 267//267
f 263//263 265//265 252//252
f 267//267 265//265 263//263
f 265//265 266//266 253//253
f 253//253 266//266 277//277
f 268//268 266//266 265//265
f 277//277 266//266 268//268
f 267//267 268//268 265//265
f 270//270 267//267 264//264
f 270//270 269//269 267//267
f 262//262 269//269 270//270
f 269//269 262//262 279//279
f 269//269 268//268 267//267
f 278//278 268//268 269//269
f 273//273 271//271 256//256
f 271//271 273//273 272//272
f 272//272 273//273 276//276
f 279//279 274//274 276//276
f 262//262 292//292 279//279
f 279//279 292//292 274//274
f 272//272 276//276 274//274
f 276//276 275//275 278//278
f 259//259 277//277 275//275
f 275//275 277//277 278//278
f 278//278 277//277 268//268
f 275//275 273//273 258//258
f 273//273 275//275 276//276
f 269//269 279//279 278//278
f 276//276 278//278 279//279
f 283//283 237//237 280//280
f 281//281 284//284 280//280
f 283//283 280//280 284//284
f 281//281 282//282 285//285
f 285//285 282//282 286//286
f 281//281 285//285 284//284
f 284//284 290//290 283//283
f 285//285 291//291 284//284
f 291//291 285//285 288//288
f 284//284 291//291 290//290
f 288//288 286//286 287//287
f 285//285 286//286 288//288
f 288//288 287//287 289//289
f 289//289 287//287 241//241
f 292//292 288//288 289//289
f 291//291 288//288 292//292
f 291//291 262//262 290//290
f 262//262 291//291 292//292
