ply
format ascii 1.0
element vertex 136
property float x
property float y
property float z
property float nx
property float ny
property float nz
element face 272
property list uchar int vertex_index
end_header
-15 -15 -8 -0.7286236346745617 -0.36431181733728085 -0.5799866366926383
-3.9231410026550293 -0.7803612947463989 -8 0.9289966727457439 0.15328858637326034 -0.3368498052768099
-0.7803612947463989 -3.9231410026550293 -8 0.19249026463478797 0.8251957291384245 -0.5310362573615228
-2.8284270763397217 -2.8284270763397217 -8 0.5724868868549728 0.536091694110215 -0.6203744513478462
-3.325878381729126 -2.222280979156494 -8 0.672153697271848 0.4178846093106649 -0.6112134328899013
-2.222280979156494 -3.325878381729126 -8 0.4610714507093737 0.6432971208595277 -0.6112134910443288
-3.6955180168151855 -1.5307337045669556 -8 0.08872847790025093 0.03338553675925255 -0.9954961894175192
-1.5307337045669556 -3.6955180168151855 -8 0.33550611584376194 0.7402932742307298 -0.5825817662441708
-15 -15 8 -0.3745331105117734 -0.7490662210235468 0.5464656857039414
-5.820287227630615 -3.888991594314575 6.5 0.30621043640686907 0.19252330563389128 0.9322928431685584
-3.888991594314575 -5.820287227630615 6.5 0.3125763516900226 0.4407941672799276 0.841425294637706
-4.949747562408447 -4.949747562408447 6.5 0.16056524660304816 0.15188549878199656 0.9752689869174793
-3.889087200164795 -3.889087200164795 8 0.12378473055011747 0.13364486634037992 0.9832682188413783
-6.467156887054443 -2.678784132003784 6.5 0.7073180671631388 0.27022236570812314 0.6532082554099472
-6.86549711227417 -1.3656322956085205 6.5 0.9243170655313159 0.15731160404476918 -0.3476938618964089
-5.0813374519348145 -2.1047589778900146 8 0.015291290061540945 0.007031101597264858 0.9998583599983463
-4.57308292388916 -3.055636167526245 8 0.15199435156406962 0.1102014510962925 0.9822185893521307
-3.9231410026550293 -0.7803612947463989 6.5 0.9505941117003446 0.22174147900501218 0.21725917998856248
-5.3943190574646 -1.072996735572815 8 0.5249780869434377 0.12548851624796076 0.8418138989818913
-2.678784132003784 -6.467156887054443 6.5 0.25425926055498765 0.568636660383943 0.7823072138804722
-3.055636167526245 -4.57308292388916 8 0.09825223163561579 0.15997858710737867 0.9822185859806096
-2.1047589778900146 -5.0813374519348145 8 0.07163392805594902 0.19358401144229717 0.9784650279213783
-1.3656322956085205 -6.86549711227417 6.5 0.1696901710469332 0.7444134696300228 0.6457970517766815
-0.7803612947463989 -3.9231410026550293 6.5 0.1576226011252893 0.9552626936951666 0.2502564717419956
-1.072996735572815 -5.3943190574646 8 0.03870264001424009 0.24280857620635843 0.9693018626705353
-2.8284270763397217 -2.8284270763397217 6.5 0.6627552317640268 0.7077495251062024 0.24463465102343177
-3.325878381729126 -2.222280979156494 6.5 0.8076184502296764 0.5788458068763512 0.11264977012973247
-2.222280979156494 -3.325878381729126 6.5 0.5234696162143165 0.8419836587634715 0.13054914505929976
-3.6955180168151855 -1.5307337045669556 6.5 0.9076553797649268 0.41135583299990575 0.08335520524082674
-1.5307337045669556 -3.6955180168151855 6.5 0.34095634045649703 0.9061569841440025 0.2502564564393081
-15 15 -8 -0.36431181733728085 0.7286236346745617 -0.5799866366926383
-4 0 -8 0.8919836672185091 -0.02928428470318591 -0.4511181309644323
-3.9231410026550293 0.7803612947463989 -8 0.8251957291384245 -0.19249026463478797 -0.5310362573615228
-3.6955180168151855 1.5307337045669556 -8 0.7402932742307298 -0.33550611584376194 -0.5825817662441708
-3.325878381729126 2.222280979156494 -8 0.6432970770815967 -0.46107149185520396 -0.6112135060817053
-2.8284270763397217 2.8284270763397217 -8 0.536091694110215 -0.5724868868549728 -0.6203744513478462
-2.222280979156494 3.325878381729126 -8 0.4178846093106649 -0.672153697271848 -0.6112134328899013
-1.5307337045669556 3.6955180168151855 -8 0.03338553675925255 -0.08872847790025093 -0.9954961894175192
-0.7803612947463989 3.9231410026550293 -8 0.15328858637326034 -0.9289966727457439 -0.3368498052768099
-15 15 8 -0.7490662210235468 0.3745331105117734 0.5464656857039414
-7 0 6.5 0.7300707068933551 -0.020281087515782722 -0.6830705969556984
-6.86549711227417 1.3656322956085205 6.5 0.7819852299182986 -0.17825472505906667 -0.5972640564974107
-6.467156887054443 2.678784132003784 6.5 0.8996988978344217 -0.40228989037879054 0.16942472468488054
-4 0 6.5 0.9985110265681092 0.032781634814607566 0.04360153943133348
-3.9231410026550293 0.7803612947463989 6.5 0.9692783967182245 -0.15993525113281887 0.1868692192428447
-5.5 0 8 0.3289670948331621 0.012600152769065403 0.944257320155489
-5.3943190574646 1.072996735572815 8 0.24280857620635843 -0.03870264001424009 0.9693018626705353
-5.0813374519348145 2.1047589778900146 8 0.19358401144229717 -0.07163392805594902 0.9784650279213783
-4.57308292388916 3.055636167526245 8 0.15997857282180494 -0.0982522171125228 0.9822185897601268
-5.820287227630615 3.888991594314575 6.5 0.4181550423438007 -0.2965224371267428 0.8586156327734029
-4.949747562408447 4.949747562408447 6.5 0.18702679636024108 -0.1977147733006722 0.9622524855056953
-3.889087200164795 3.889087200164795 8 0.13364488060562318 -0.1237847523128586 0.9832682141627243
-3.888991594314575 5.820287227630615 6.5 0.1527749186397123 -0.2429901864813418 0.9579225404532413
-3.6955180168151855 1.5307337045669556 6.5 0.9326817975414241 -0.35093671031017143 0.08335520314637183
-3.325878381729126 2.222280979156494 6.5 0.8438460328814628 -0.5246273936156178 0.11264976989901485
-2.8284270763397217 2.8284270763397217 6.5 0.7077495251062024 -0.6627552317640268 0.24463465102343177
-2.222280979156494 3.325878381729126 6.5 0.5775683592535863 -0.8058360317101827 0.1305491493143714
-1.5307337045669556 3.6955180168151855 6.5 0.39965715910365235 -0.8818423131227424 0.2502564483954988
-3.055636167526245 4.57308292388916 8 0.11020146556689449 -0.15199436587138582 0.9822185855145807
-2.1047589778900146 5.0813374519348145 8 0.007031101597264858 -0.015291290061540945 0.9998583599983463
-2.678784132003784 6.467156887054443 6.5 0.22229848203087502 -0.5818753681747851 0.7823071268998046
-0.7803612947463989 3.9231410026550293 6.5 0.22503930508267903 -0.9647317008982208 0.13656520951520032
-1.072996735572815 5.3943190574646 8 0.12548851624796076 -0.5249780869434377 0.8418138989818913
-1.3656322956085205 6.86549711227417 6.5 0.10450876995022954 -0.6140630095837714 0.7823071885547334
0 -4 -8 0.02928428470318591 0.8919836672185091 -0.4511181309644323
0.7803612947463989 -3.9231410026550293 -8 -0.15328858637326034 0.9289966727457439 -0.3368498052768099
1.5307337045669556 -3.6955180168151855 -8 -0.03338553675925255 0.08872847790025093 -0.9954961894175192
2.222280979156494 -3.325878381729126 -8 -0.41788462605257753 0.6721536645960199 -0.6112134573772398
2.8284270763397217 -2.8284270763397217 -8 -0.536091694110215 0.5724868868549728 -0.6203744513478462
3.325878381729126 -2.222280979156494 -8 -0.6432971208595277 0.4610714507093737 -0.6112134910443288
3.6955180168151855 -1.5307337045669556 -8 -0.7402932742307298 0.33550611584376194 -0.5825817662441708
3.9231410026550293 -0.7803612947463989 -8 -0.8251957291384245 0.19249026463478797 -0.5310362573615228
15 -15 -8 0.36431181733728085 -0.7286236346745617 -0.5799866366926383
0 -7 6.5 0.02120181556080195 0.7632147111417223 0.6457970174240381
1.3656322956085205 -6.86549711227417 6.5 -0.10450876995022954 0.6140630095837714 0.7823071885547334
0 -4 6.5 -0.03176872097933303 0.9676582333664334 0.2502564519957284
0.7803612947463989 -3.9231410026550293 6.5 -0.22503930508267903 0.9647317008982208 0.13656520951520032
0 -5.5 8 -0.012600152769065403 0.3289670948331621 0.944257320155489
1.072996735572815 -5.3943190574646 8 -0.12548851861779664 0.5249781564622314 0.8418138552748035
2.678784132003784 -6.467156887054443 6.5 -0.22229848203087502 0.5818753681747851 0.7823071268998046
2.1047589778900146 -5.0813374519348145 8 -0.007031101597264858 0.015291290061540945 0.9998583599983463
3.055636167526245 -4.57308292388916 8 -0.1102014510962925 0.15199435156406962 0.9822185893521307
1.5307337045669556 -3.6955180168151855 6.5 -0.39965715910365235 0.8818423131227424 0.2502564483954988
2.222280979156494 -3.325878381729126 6.5 -0.5775682906670888 0.8058360787831493 0.130549162185343
2.8284270763397217 -2.8284270763397217 6.5 -0.7077495251062024 0.6627552317640268 0.24463465102343177
3.325878381729126 -2.222280979156494 6.5 -0.843846006494203 0.5246274368150421 0.11264976637643061
3.6955180168151855 -1.5307337045669556 6.5 -0.9326817975414241 0.35093671031017143 0.08335520314637183
3.888991594314575 -5.820287227630615 6.5 -0.1527749186397123 0.2429901864813418 0.9579225404532413
4.949747562408447 -4.949747562408447 6.5 -0.18702679636024108 0.1977147733006722 0.9622524855056953
3.889087200164795 -3.889087200164795 8 -0.13364488085213602 0.12378473764002267 0.9832682159763984
5.820287227630615 -3.888991594314575 6.5 -0.4181550386485405 0.29652246430867896 0.8586156251857671
4.57308292388916 -3.055636167526245 8 -0.15997858710737867 0.09825223163561579 0.9822185859806096
5.0813374519348145 -2.1047589778900146 8 -0.19358401144229717 0.07163392805594902 0.9784650279213783
3.9231410026550293 -0.7803612947463989 6.5 -0.9692783940192026 0.15993525068746822 0.18686923362365576
5.3943190574646 -1.072996735572815 8 -0.24280857620635843 0.03870264001424009 0.9693018626705353
6.467156887054443 -2.678784132003784 6.5 -0.8996989023772262 0.4022898924100527 0.16942469573802627
6.86549711227417 -1.3656322956085205 6.5 -0.7819852299182986 0.17825472505906667 -0.5972640564974107
15 -15 8 0.7490662210235468 -0.3745331105117734 0.5464656857039414
1.5307337045669556 3.6955180168151855 -8 -0.33550611584376194 -0.7402932742307298 -0.5825817662441708
3.6955180168151855 1.5307337045669556 -8 -0.08872847790025093 -0.03338553675925255 -0.9954961894175192
2.222280979156494 3.325878381729126 -8 -0.46107149185520396 -0.6432970770815967 -0.6112135060817053
3.325878381729126 2.222280979156494 -8 -0.6721536645960199 -0.41788462605257753 -0.6112134573772398
2.8284270763397217 2.8284270763397217 -8 -0.5724868868549728 -0.536091694110215 -0.6203744513478462
0 4 -8 -0.02928428470318591 -0.8919836672185091 -0.4511181309644323
0.7803612947463989 3.9231410026550293 -8 -0.19249026463478797 -0.8251957291384245 -0.5310362573615228
4 0 -8 -0.8919836672185091 0.02928428470318591 -0.4511181309644323
3.9231410026550293 0.7803612947463989 -8 -0.9289966727457439 -0.15328858637326034 -0.3368498052768099
15 15 -8 0.7286236346745617 0.36431181733728085 -0.5799866366926383
1.5307337045669556 3.6955180168151855 6.5 -0.34095634045649703 -0.9061569841440025 0.2502564564393081
3.6955180168151855 1.5307337045669556 6.5 -0.9076553797649268 -0.41135583299990575 0.08335520524082674
2.222280979156494 3.325878381729126 6.5 -0.5234695729425617 -0.8419836850343887 0.13054914913259233
3.325878381729126 2.222280979156494 6.5 -0.8076184502296764 -0.5788458068763512 0.11264977012973247
2.8284270763397217 2.8284270763397217 6.5 -0.6627552317640268 -0.7077495251062024 0.24463465102343177
0 4 6.5 0.03176872097933303 -0.9676582333664334 0.2502564519957284
0.7803612947463989 3.9231410026550293 6.5 -0.15762258776993057 -0.9552627030634117 0.25025644439393474
0 5.5 8 0.012600152769065403 -0.3289670948331621 0.944257320155489
1.072996735572815 5.3943190574646 8 -0.03870264001424009 -0.24280857620635843 0.9693018626705353
0 7 6.5 -0.021201813847377866 -0.7632146569086795 0.6457970815738855
1.3656322956085205 6.86549711227417 6.5 -0.1696901710469332 -0.7444134696300228 0.6457970517766815
2.1047589778900146 5.0813374519348145 8 -0.07163392805594902 -0.19358401144229717 0.9784650279213783
3.055636167526245 4.57308292388916 8 -0.0982522171125228 -0.15997857282180494 0.9822185897601268
2.678784132003784 6.467156887054443 6.5 -0.25425926055498765 -0.568636660383943 0.7823072138804722
4 0 6.5 -0.9985110265681092 -0.032781634814607566 0.04360153943133348
3.9231410026550293 0.7803612947463989 6.5 -0.9505941086228776 -0.22174147828714313 0.2172591941863654
5.5 0 8 -0.3289670948331621 -0.012600152769065403 0.944257320155489
5.3943190574646 1.072996735572815 8 -0.5249781564622314 -0.12548851861779664 0.8418138552748035
4.57308292388916 3.055636167526245 8 -0.15199436587138582 -0.11020146556689449 0.9822185855145807
5.0813374519348145 2.1047589778900146 8 -0.015291290061540945 -0.007031101597264858 0.9998583599983463
7 0 6.5 -0.7300707068933551 0.020281087515782722 -0.6830705969556984
6.86549711227417 1.3656322956085205 6.5 -0.9243170463756115 -0.1573116007846167 -0.3476939142953858
6.467156887054443 2.678784132003784 6.5 -0.7073180671631388 -0.27022236570812314 0.6532082554099472
4.949747562408447 4.949747562408447 6.5 -0.16056524696645075 -0.15188548422459286 0.9752689891247767
3.889087200164795 3.889087200164795 8 -0.12378475206634573 -0.13364489524063558 0.9832682122045812
3.888991594314575 5.820287227630615 6.5 -0.31257632479950537 -0.44079417138614607 0.8414253024760041
5.820287227630615 3.888991594314575 6.5 -0.30621046165785604 -0.1925233325746583 0.9322928293114939
15 15 8 0.3745331105117734 0.7490662210235468 0.5464656857039414
3 0 30 6
3 0 7 2
3 0 2 64
3 0 64 65
3 0 65 66
3 0 72 8
3 0 4 3
3 0 3 5
3 0 6 4
3 0 5 7
3 0 8 39
3 8 15 39
3 8 16 15
3 8 12 16
3 8 20 12
3 8 21 20
3 8 24 21
3 8 77 24
3 8 78 77
3 8 80 78
3 30 1 6
3 30 31 1
3 30 32 31
3 30 33 32
3 0 39 30
3 30 34 33
3 30 35 34
3 30 36 35
3 30 37 36
3 30 107 37
3 39 15 18
3 39 18 45
3 39 45 46
3 39 46 47
3 39 47 48
3 39 48 51
3 30 39 135
3 39 51 58
3 39 58 59
3 39 59 135
3 0 66 72
3 72 66 67
3 72 67 68
3 72 68 69
3 72 69 70
3 72 70 71
3 72 71 105
3 72 105 106
3 72 106 99
3 72 107 97
3 8 72 97
3 8 97 80
3 97 81 80
3 97 89 81
3 97 91 89
3 97 92 91
3 97 94 92
3 97 124 94
3 97 125 124
3 97 127 125
3 107 100 98
3 107 99 101
3 107 102 100
3 107 101 102
3 107 38 37
3 107 103 38
3 107 104 103
3 107 98 104
3 30 135 107
3 72 99 107
3 135 59 62
3 135 62 115
3 135 115 116
3 135 116 119
3 135 119 120
3 135 120 132
3 97 107 135
3 135 132 126
3 135 126 127
3 97 135 127
3 17 6 1
3 43 1 31
3 29 2 7
3 23 64 2
3 26 3 4
3 25 5 3
3 27 7 5
3 28 4 6
3 28 6 17
3 17 1 43
3 29 23 2
3 23 75 64
3 28 26 4
3 25 3 26
3 25 27 5
3 29 7 27
3 44 31 32
3 53 32 33
3 54 33 34
3 55 34 35
3 56 35 36
3 57 36 37
3 61 37 38
3 113 38 103
3 43 31 44
3 44 32 53
3 53 33 54
3 54 34 55
3 55 35 56
3 56 36 57
3 57 37 61
3 61 38 113
3 75 65 64
3 76 66 65
3 82 67 66
3 83 68 67
3 84 69 68
3 85 70 69
3 86 71 70
3 93 105 71
3 75 76 65
3 76 82 66
3 82 83 67
3 83 84 68
3 84 85 69
3 85 86 70
3 86 93 71
3 93 122 105
3 109 101 99
3 110 98 100
3 112 100 102
3 111 102 101
3 114 103 104
3 108 104 98
3 122 106 105
3 123 99 106
3 110 108 98
3 110 100 112
3 111 112 102
3 111 101 109
3 113 103 114
3 114 104 108
3 123 106 122
3 123 109 99
3 10 17 11
3 9 16 11
3 10 11 12
3 11 16 12
3 9 13 15
3 13 18 15
3 13 42 14
3 9 49 13
3 13 14 18
3 14 40 45
3 14 45 18
3 11 17 43
3 10 28 17
3 9 15 16
3 9 11 50
3 11 43 44
3 19 21 22
3 10 19 25
3 19 27 25
3 19 29 27
3 10 20 19
3 10 12 20
3 19 20 21
3 19 22 29
3 22 73 23
3 22 21 24
3 22 24 73
3 73 24 77
3 22 23 29
3 23 73 75
3 10 25 26
3 10 26 28
3 14 41 40
3 14 42 41
3 13 49 42
3 40 41 46
3 40 46 45
3 41 47 46
3 41 42 47
3 9 50 49
3 11 44 52
3 11 52 50
3 44 53 52
3 42 48 47
3 42 49 48
3 49 51 48
3 49 50 51
3 50 58 51
3 50 52 58
3 53 54 52
3 52 54 55
3 52 55 60
3 55 56 60
3 56 57 60
3 52 59 58
3 52 60 59
3 60 62 59
3 57 61 63
3 61 113 63
3 60 57 63
3 63 113 117
3 60 63 62
3 63 117 115
3 63 115 62
3 73 74 75
3 74 79 82
3 73 77 74
3 74 77 78
3 74 78 79
3 74 76 75
3 74 82 76
3 79 78 80
3 79 80 87
3 82 79 83
3 79 84 83
3 79 87 84
3 87 80 81
3 84 87 85
3 85 87 86
3 87 81 88
3 88 81 89
3 88 89 90
3 87 93 86
3 87 88 131
3 90 91 95
3 90 89 91
3 95 91 92
3 87 131 93
3 88 90 134
3 95 92 96
3 90 95 130
3 95 96 129
3 96 92 94
3 96 94 128
3 128 94 124
3 111 109 133
3 111 133 112
3 113 114 117
3 114 108 118
3 114 118 117
3 108 121 118
3 117 118 116
3 117 116 115
3 118 119 116
3 110 121 108
3 110 112 121
3 112 133 121
3 121 120 119
3 121 133 120
3 133 132 120
3 118 121 119
3 93 131 122
3 88 134 131
3 123 133 109
3 123 122 131
3 134 127 126
3 90 130 134
3 95 129 130
3 96 128 129
3 128 124 129
3 129 124 125
3 129 125 130
3 130 125 127
3 130 127 134
3 123 131 133
3 131 126 132
3 131 132 133
3 131 134 126

