{"asset":{"version":"2.0","generator":"THREE.GLTFExporter r182"},"scenes":[{"name":"AuxScene","nodes":[0]}],"scene":0,"nodes":[{"mesh":0}],"bufferViews":[{"buffer":0,"byteOffset":0,"byteLength":1632,"target":34962,"byteStride":12},{"buffer":0,"byteOffset":1632,"byteLength":1632,"target":34962,"byteStride":12},{"buffer":0,"byteOffset":3264,"byteLength":3264,"target":34963}],"buffers":[{"byteLength":6528,"uri":"data:application/octet-stream;base64,"}],"accessors":[{"bufferView":0,"componentType":5126,"count":136,"max":[15,15,8],"min":[-15,-15,-8],"type":"VEC3"},{"bufferView":1,"componentType":5126,"count":136,"max":[0.998511016368866,0.9676582217216492,0.9998583793640137],"min":[-0.998511016368866,-0.9676582217216492,-0.9954962134361267],"type":"VEC3"},{"bufferView":2,"componentType":5125,"count":816,"max":[135],"min":[0],"type":"SCALAR"}],"materials":[{"pbrMetallicRoughness":{"baseColorFactor":[0.7454042095350284,0.3005437944049895,0.07036009568874305,1],"metallicFactor":0.25,"roughnessFactor":0.4},"name":"boolean-difference-cube-countersink-material"}],"meshes":[{"primitives":[{"mode":4,"attributes":{"POSITION":0,"NORMAL":1},"indices":2,"material":0}]}]}