ply
format ascii 1.0
element vertex 16
property float x
property float y
property float z
property float nx
property float ny
property float nz
element face 28
property list uchar int vertex_index
end_header
-10 -10 -10 -0.6666681766488635 -0.6666647791841113 -0.33333408832443173
9.999899864196777 -10 -10 0 -0.8944267260831915 -0.44721452533219824
9.999899864196777 -9.999899864196777 -10 0 0 -1
-10 -10 10 -0.5773512228623839 -0.5773483618393834 0.5773512228623839
9.999899864196777 -10 10 0 -0.9999999999968665 0.0000025033953079322373
9.999899864196777 -9.999899864196777 10 0 0 1
-10 10 -10 -0.408250679615084 0.4082486232548891 -0.8164952199519049
9.999899864196777 10 -10 0 0.9701423528866205 -0.24253621407041778
-10 10 10 -0.5773526931089672 0.5773497724814214 0.5773483419699703
9.999899864196777 10 10 0 0.8944267260831915 0.44721452533219824
29.999900817871094 -10 -10 0.333334061833493 -0.6666681832716315 -0.6666647858068455
29.999900817871094 -10 10 0.6666681170443512 -0.333334088324498 0.6666648387888886
10 9.999899864196777 -10 0 0 -1
29.999900817871094 10 -10 0.8164965610595104 0.4082483103320779 -0.4082483103320779
10 9.999899864196777 10 0 0 1
29.999900817871094 10 10 0.4082482656285948 0.8164965908618329 0.40824829543091645
3 0 6 2
3 0 2 1
3 0 1 4
3 0 4 3
3 0 3 8
3 3 5 8
3 3 4 5
3 0 8 6
3 6 8 7
3 6 7 2
3 2 7 12
3 8 5 9
3 9 5 14
3 8 9 7
3 2 12 1
3 10 4 1
3 10 1 12
3 10 13 11
3 11 5 4
3 11 14 5
3 10 11 4
3 13 12 7
3 10 12 13
3 13 7 15
3 15 7 9
3 15 9 14
3 11 13 15
3 11 15 14

