ply
format ascii 1.0
element vertex 300
property float x
property float y
property float z
property float nx
property float ny
property float nz
element face 596
property list uchar int vertex_index
end_header
-8.264241218566895 -8.264241218566895 -5.692508220672607 -0.6297647901234635 -0.6341113992033127 -0.4486636184505792
-8.264241218566895 -5.692508220672607 -8.264241218566895 -0.631374159436701 -0.4502591937886424 -0.631374159436701
-10 -6.007394313812256 -5.603536128997803 -0.9978323269018932 -0.05069504078611367 -0.04196022198758898
-10 -5.603536128997803 -6.007394313812256 -0.9993191122504939 -0.020906663931247817 -0.030401041004394596
-5.692508220672607 -8.264241218566895 -8.264241218566895 -0.4469926226925806 -0.6325336335952453 -0.6325336335952453
-6.007394313812256 -10 -5.603536128997803 -0.215426313382462 -0.9652169458176105 -0.14814773372875278
-5.603536128997803 -10 -6.007394313812256 -0.43524663719401 -0.7307807648513436 -0.525851536590501
-6.007394313812256 -5.603536128997803 -10 -0.215426313382462 -0.14814773372875278 -0.9652169458176105
-5.603536128997803 -6.007394313812256 -10 -0.43524663719401 -0.525851536590501 -0.7307807648513436
-9.989847183227539 -7.848972320556641 -2.756192445755005 -0.7049399217291209 -0.6792627764768234 -0.20411219278998977
-10 -7.832484722137451 -2.7558915615081787 -0.9999993955620445 -0.0009803639176922004 -0.000497757103773812
-10 -7.841207027435303 -2.722034454345703 -0.9999987355335364 -0.0015756772862715708 -0.00021487768115839923
-10 -7.78010892868042 -2.8423709869384766 -0.989305756746595 -0.12273859506999904 -0.07879947302038189
-7.848972320556641 -9.989847183227539 -2.756192445755005 -0.6792627764768234 -0.7049399217291209 -0.20411219278998977
-7.832484722137451 -10 -2.7558915615081787 -0.0008602776313545353 -0.9999995345700411 -0.0004367861015255821
-7.841207027435303 -10 -2.722034454345703 -0.0007804371321499769 -0.999999689795275 -0.00010642949071053832
-7.78010892868042 -10 -2.8423709869384766 -0.07002231350472032 -0.9965319451007201 -0.044955066513379306
-10 -2.8423709869384766 -7.78010892868042 -0.989305756746595 -0.07879947302038189 -0.12273859506999904
-9.989847183227539 -2.756192445755005 -7.848972320556641 -0.7049399217291209 -0.20411219278998977 -0.6792627764768234
-10 -2.7558915615081787 -7.832484722137451 -0.9999993955620448 -0.0004977571037738121 -0.0009803639176922006
-10 -2.722034454345703 -7.841207027435303 -0.9999987355335364 -0.00021487768115839923 -0.0015756772862715708
-7.848972320556641 -2.756192445755005 -9.989847183227539 -0.6792627764768234 -0.20411219278998977 -0.7049399217291209
-7.832484722137451 -2.7558915615081787 -10 -0.0008602776313545353 -0.0004367861015255821 -0.9999995345700411
-7.841207027435303 -2.722034454345703 -10 -0.0007804371321499769 -0.00010642949071053832 -0.999999689795275
-7.78010892868042 -2.8423709869384766 -10 -0.07002231350472032 -0.044955066513379306 -0.9965319451007201
-2.8423709869384766 -10 -7.78010892868042 -0.35922142189431405 -0.746920929249145 -0.5595257773345398
-2.756192445755005 -9.989847183227539 -7.848972320556641 -0.20411219278998977 -0.7049399217291209 -0.6792627764768234
-2.7558915615081787 -10 -7.832484722137451 -0.013015064752252845 -0.9995866680078245 -0.025633985849066628
-2.722034454345703 -10 -7.841207027435303 -0.0007093230306060222 -0.9999862210704017 -0.005201396944668356
-2.8423709869384766 -7.78010892868042 -10 -0.35922142189431405 -0.5595257773345398 -0.746920929249145
-2.756192445755005 -7.848972320556641 -9.989847183227539 -0.20411219278998977 -0.6792627764768234 -0.7049399217291209
-2.7558915615081787 -7.832484722137451 -10 -0.013015064752252845 -0.025633985849066628 -0.9995866680078245
-2.722034454345703 -7.841207027435303 -10 -0.0007093230306060222 -0.005201396944668356 -0.9999862210704017
-9.192388534545898 -9.192388534545898 7.960204409454693e-16 -0.7071067811865476 -0.7071067811865476 -1.885855059969595e-9
-10 -8.2083101272583 7.960204409454693e-16 -0.9936517461463551 -0.11249981057894924 -1.4154272176570175e-10
-8.2083101272583 -10 7.960204409454693e-16 -0.05577422947485397 -0.998443406171069 -7.017288703106733e-11
-10 -7.841207027435303 2.722034454345703 -0.9999862210679796 -0.005201397410317041 0.0007093230306043041
-9.989847183227539 -7.848972320556641 2.756192445755005 -0.7049399517138151 -0.679262747935768 0.20411218421366611
-10 -7.832484722137451 2.7558915615081787 -0.9995866681153952 -0.025633982126534838 0.013015063822330865
-10 -7.78010892868042 2.8423709869384766 -0.746920929249145 -0.5595257773345398 0.35922142189431405
-7.841207027435303 -10 2.722034454345703 -0.0006931378113426011 -0.9999997553125329 0.00009452432945951893
-7.848972320556641 -9.989847183227539 2.756192445755005 -0.679262747935768 -0.7049399517138151 0.20411218421366611
-7.832484722137451 -10 2.7558915615081787 -0.0005671324191728794 -0.9999997977232397 0.00028794843144315166
-7.78010892868042 -10 2.8423709869384766 -0.08127273832838981 -0.9953251742724746 0.052177959562186814
-8.264241218566895 -8.264241218566895 5.692508220672607 -0.631374159436701 -0.631374159436701 0.4502591937886424
-10 -6.007394313812256 5.603536128997803 -0.7603591169042506 -0.5351687133225581 0.3680332343977455
-10 -5.603536128997803 6.007394313812256 -0.9213996605074535 -0.24778923595323268 0.29937127477843023
-8.264241218566895 -5.692508220672607 8.264241218566895 -0.6297647901234635 -0.4486636184505792 0.6341113992033127
-6.007394313812256 -10 5.603536128997803 -0.06952516531701597 -0.9964337654190613 0.04781215870918907
-5.603536128997803 -10 6.007394313812256 -0.10775089141511605 -0.9856178648562925 0.1301812961810217
-5.692508220672607 -8.264241218566895 8.264241218566895 -0.446992565139854 -0.6325336539306399 0.6325336539306399
-6.007394313812256 -5.603536128997803 10 -0.5351687617259617 -0.3680331968923782 0.7603591009897078
-5.603536128997803 -6.007394313812256 10 -0.24778923595323268 -0.29937127477843023 0.9213996605074535
-10 -2.8423709869384766 7.78010892868042 -0.9965319449338301 -0.04495507023114088 0.07002231349299365
-9.989847183227539 -2.756192445755005 7.848972320556641 -0.7049399195850399 -0.20411220707034228 0.6792627744108396
-10 -2.7558915615081787 7.832484722137451 -0.9999995345700411 -0.0004367861015255821 0.0008602776313545353
-10 -2.722034454345703 7.841207027435303 -0.999999689795275 -0.00010642949071053832 0.0007804371321499769
-7.848972320556641 -2.756192445755005 9.989847183227539 -0.6792627764768234 -0.20411219278998977 0.7049399217291209
-7.832484722137451 -2.7558915615081787 10 -0.025633983987956088 -0.013015063821709432 0.9995866680676678
-7.841207027435303 -2.722034454345703 10 -0.005201396944668356 -0.0007093230306060222 0.9999862210704017
-7.78010892868042 -2.8423709869384766 10 -0.5595257773345398 -0.35922142189431405 0.746920929249145
-2.8423709869384766 -10 7.78010892868042 -0.05217795959378209 -0.995325174875173 0.08127273092702203
-2.756192445755005 -9.989847183227539 7.848972320556641 -0.20411220707034228 -0.7049399195850399 0.6792627744108396
-2.7558915615081787 -10 7.832484722137451 -0.0002879484314431421 -0.9999997977232066 0.0005671324773805201
-2.722034454345703 -10 7.841207027435303 -0.00009452432945952272 -0.9999997553125731 0.0006931377531349684
-2.8423709869384766 -7.78010892868042 10 -0.044955066513379306 -0.07002231350472032 0.9965319451007201
-2.756192445755005 -7.848972320556641 9.989847183227539 -0.20411219278998977 -0.6792627764768234 0.7049399217291209
-2.7558915615081787 -7.832484722137451 10 -0.0004367861015255821 -0.0008602776313545353 0.9999995345700411
-2.722034454345703 -7.841207027435303 10 -0.00010642949071053832 -0.0007804371321499769 0.999999689795275
-9.192388534545898 7.960204409454693e-16 -9.192388534545898 -0.7071067811865476 -9.137354362980049e-10 -0.7071067811865476
-10 7.960204409454693e-16 -8.2083101272583 -0.9936517461463551 -1.4154272176570175e-10 -0.11249981057894924
-8.2083101272583 7.960204409454693e-16 -10 -0.05577422947485397 -7.017288703106733e-11 -0.998443406171069
-10 2.722034454345703 -7.841207027435303 -0.9999862210679796 0.0007093230306043041 -0.005201397410317041
-9.989847183227539 2.756192445755005 -7.848972320556641 -0.7049399517138151 0.20411218421366611 -0.679262747935768
-10 2.7558915615081787 -7.832484722137451 -0.9995866681153952 0.013015063822330865 -0.025633982126534838
-10 2.8423709869384766 -7.78010892868042 -0.746920929249145 0.35922142189431405 -0.5595257773345398
-7.841207027435303 2.722034454345703 -10 -0.000693137811342601 0.0000945243294595189 -0.9999997553125327
-7.848972320556641 2.756192445755005 -9.989847183227539 -0.679262747935768 0.20411218421366611 -0.7049399517138151
-7.832484722137451 2.7558915615081787 -10 -0.0005671324191728794 0.00028794843144315166 -0.9999997977232397
-7.78010892868042 2.8423709869384766 -10 -0.08127273832838981 0.052177959562186814 -0.9953251742724746
-8.264241218566895 5.692508220672607 -8.264241218566895 -0.631374159436701 0.4502591937886424 -0.631374159436701
-10 5.603536128997803 -6.007394313812256 -0.7603591169042506 0.3680332343977455 -0.5351687133225581
-10 6.007394313812256 -5.603536128997803 -0.9213996605074535 0.29937127477843023 -0.24778923595323268
-8.264241218566895 8.264241218566895 -5.692508220672607 -0.6325336539306399 0.6325336539306399 -0.446992565139854
-6.007394313812256 5.603536128997803 -10 -0.07884518701031451 0.05422149529048697 -0.9954112044445612
-5.603536128997803 6.007394313812256 -10 -0.04196022198758898 0.05069504078611367 -0.9978323269018932
-5.692508220672607 8.264241218566895 -8.264241218566895 -0.4486636184505792 0.6341113992033127 -0.6297647901234635
-6.007394313812256 10 -5.603536128997803 -0.05069504078611367 0.9978323269018932 -0.04196022198758898
-5.603536128997803 10 -6.007394313812256 -0.020906663931247817 0.9993191122504939 -0.030401041004394596
-10 7.78010892868042 -2.8423709869384766 -0.9965319449338301 0.07002231349299365 -0.04495507023114088
-9.989847183227539 7.848972320556641 -2.756192445755005 -0.7049399217291209 0.6792627764768234 -0.20411219278998977
-10 7.832484722137451 -2.7558915615081787 -0.9999995345700411 0.0008602776313545353 -0.0004367861015255821
-10 7.841207027435303 -2.722034454345703 -0.999999689795275 0.0007804371321499769 -0.00010642949071053832
-7.848972320556641 9.989847183227539 -2.756192445755005 -0.6792627764768234 0.7049399217291209 -0.20411219278998977
-7.832484722137451 10 -2.7558915615081787 -0.0009803639176922004 0.9999993955620445 -0.000497757103773812
-7.841207027435303 10 -2.722034454345703 -0.0015756772862715708 0.9999987355335364 -0.00021487768115839923
-7.78010892868042 10 -2.8423709869384766 -0.12273859506999904 0.989305756746595 -0.07879947302038189
-2.8423709869384766 7.78010892868042 -10 -0.07879947316450199 0.12273858039331995 -0.9893057585559835
-2.756192445755005 7.848972320556641 -9.989847183227539 -0.20411220707034228 0.6792627744108396 -0.7049399195850399
-2.7558915615081787 7.832484722137451 -10 -0.0004977571037738121 0.0009803639176922006 -0.9999993955620448
-2.722034454345703 7.841207027435303 -10 -0.00021487768115839923 0.0015756772862715708 -0.9999987355335364
-2.8423709869384766 10 -7.78010892868042 -0.07879947302038189 0.989305756746595 -0.12273859506999904
-2.756192445755005 9.989847183227539 -7.848972320556641 -0.20411219278998977 0.7049399217291209 -0.6792627764768234
-2.7558915615081787 10 -7.832484722137451 -0.0004977571037738121 0.9999993955620448 -0.0009803639176922006
-2.722034454345703 10 -7.841207027435303 -0.00021487768115839923 0.9999987355335364 -0.0015756772862715708
-10 7.960204409454693e-16 8.2083101272583 -0.998443406171069 -7.017288703106733e-11 0.05577422947485397
-9.192388534545898 7.960204409454693e-16 9.192388534545898 -0.7071067811865476 -9.137354362980049e-10 0.7071067811865476
-8.2083101272583 7.960204409454693e-16 10 -0.11249981057894924 -1.4154272176570175e-10 0.9936517461463551
-10 2.722034454345703 7.841207027435303 -0.9999997553125327 0.0000945243294595189 0.000693137811342601
-9.989847183227539 2.756192445755005 7.848972320556641 -0.7049399517138151 0.20411218421366611 0.679262747935768
-10 2.7558915615081787 7.832484722137451 -0.9999997977232394 0.0002879484314431516 0.0005671324191728793
-10 2.8423709869384766 7.78010892868042 -0.995325174875173 0.05217795959378209 0.08127273092702203
-7.841207027435303 2.722034454345703 10 -0.001575677402686602 0.00021487768115835982 0.999998735533353
-7.848972320556641 2.756192445755005 9.989847183227539 -0.679262747935768 0.20411218421366611 0.7049399517138151
-7.832484722137451 2.7558915615081787 10 -0.0009803638012769915 0.0004977571037738688 0.9999993955621587
-7.78010892868042 2.8423709869384766 10 -0.12273858046537997 0.07879946576018451 0.9893057591368065
-10 8.2083101272583 7.960204409454693e-16 -0.998443406171069 0.05577422947485397 -7.017288703106733e-11
-9.192388534545898 9.192388534545898 7.960204409454693e-16 -0.7071067811865476 0.7071067811865476 -9.137354362980049e-10
-8.2083101272583 10 7.960204409454693e-16 -0.11249981057894924 0.9936517461463551 -1.4154272176570175e-10
-10 7.78010892868042 2.8423709869384766 -0.995325174875173 0.08127273092702203 0.05217795959378209
-10 7.841207027435303 2.722034454345703 -0.9999997553125329 0.0006931378113426011 0.00009452432945951893
-9.989847183227539 7.848972320556641 2.756192445755005 -0.7049399517138151 0.679262747935768 0.20411218421366611
-10 7.832484722137451 2.7558915615081787 -0.9999997977232397 0.0005671324191728794 0.00028794843144315166
-7.841207027435303 10 2.722034454345703 -0.005201397410317041 0.9999862210679796 0.0007093230306043041
-7.848972320556641 9.989847183227539 2.756192445755005 -0.679262747935768 0.7049399517138151 0.20411218421366611
-7.832484722137451 10 2.7558915615081787 -0.025633982126534838 0.9995866681153952 0.013015063822330865
-7.78010892868042 10 2.8423709869384766 -0.5595257773345398 0.746920929249145 0.35922142189431405
-10 5.603536128997803 6.007394313812256 -0.9856178667682457 0.10775089162413687 0.13018128153239314
-10 6.007394313812256 5.603536128997803 -0.9964337654190613 0.06952516531701597 0.04781215870918907
-8.264241218566895 5.692508220672607 8.264241218566895 -0.6325336335952453 0.4469926226925806 0.6325336335952453
-8.264241218566895 8.264241218566895 5.692508220672607 -0.6313741679089652 0.6313741679089652 0.4502591700282447
-6.007394313812256 5.603536128997803 10 -0.05069503336260509 0.04196021828470623 0.9978323274347571
-5.603536128997803 6.007394313812256 10 -0.05422149529048697 0.07884518701031451 0.9954112044445612
-6.007394313812256 10 5.603536128997803 -0.5351687133225581 0.7603591169042506 0.3680332343977455
-5.603536128997803 10 6.007394313812256 -0.24778923595323268 0.9213996605074535 0.29937127477843023
-5.692508220672607 8.264241218566895 8.264241218566895 -0.4486635946474355 0.6297647985441854 0.6341114076821541
-2.8423709869384766 7.78010892868042 10 -0.05217795959378209 0.08127273092702203 0.995325174875173
-2.756192445755005 7.848972320556641 9.989847183227539 -0.20411219278998977 0.6792627764768234 0.7049399217291209
-2.7558915615081787 7.832484722137451 10 -0.0002879484314431421 0.0005671324773805201 0.9999997977232066
-2.722034454345703 7.841207027435303 10 -0.00009452432945952272 0.0006931377531349684 0.9999997553125731
-2.8423709869384766 10 7.78010892868042 -0.04495507023114088 0.9965319449338301 0.07002231349299365
-2.756192445755005 9.989847183227539 7.848972320556641 -0.20411219278998977 0.7049399217291209 0.6792627764768234
-2.7558915615081787 10 7.832484722137451 -0.0004367861015255821 0.9999995345700411 0.0008602776313545353
-2.722034454345703 10 7.841207027435303 -0.00010642949071053832 0.999999689795275 0.0007804371321499769
7.960204409454693e-16 -9.192388534545898 -9.192388534545898 2.996340449300619e-10 -0.7071067811865476 -0.7071067811865476
7.960204409454693e-16 -10 -8.2083101272583 -1.4154272176570175e-10 -0.9936517461463551 -0.11249981057894924
7.960204409454693e-16 -8.2083101272583 -10 -1.4154272176570175e-10 -0.11249981057894924 -0.9936517461463551
2.722034454345703 -10 -7.841207027435303 0.00021487768115835982 -0.999998735533353 -0.001575677402686602
2.756192445755005 -9.989847183227539 -7.848972320556641 0.20411218421366611 -0.7049399517138151 -0.679262747935768
2.7558915615081787 -10 -7.832484722137451 0.0004977571037738689 -0.9999993955621589 -0.0009803638012769917
2.8423709869384766 -10 -7.78010892868042 0.07879946576018451 -0.9893057591368065 -0.12273858046537997
2.722034454345703 -7.841207027435303 -10 0.00021487768115835982 -0.001575677402686602 -0.999998735533353
2.756192445755005 -7.848972320556641 -9.989847183227539 0.20411218421366611 -0.679262747935768 -0.7049399517138151
2.7558915615081787 -7.832484722137451 -10 0.0004977571037738688 -0.0009803638012769915 -0.9999993955621587
2.8423709869384766 -7.78010892868042 -10 0.07879946576018451 -0.12273858046537997 -0.9893057591368065
5.692508220672607 -8.264241218566895 -8.264241218566895 0.4502591937886424 -0.631374159436701 -0.631374159436701
5.603536128997803 -10 -6.007394313812256 0.020906662072968454 -0.9993191124591723 -0.03040103542280764
6.007394313812256 -10 -5.603536128997803 0.05069503707832155 -0.9978323272463127 -0.04196021827678189
5.603536128997803 -6.007394313812256 -10 0.019875820337174298 -0.02890205699266721 -0.9993846220887717
6.007394313812256 -5.603536128997803 -10 0.1301812961810217 -0.10775089141511605 -0.9856178648562925
8.264241218566895 -8.264241218566895 -5.692508220672607 0.6341113992033127 -0.6297647901234635 -0.4486636184505792
8.264241218566895 -5.692508220672607 -8.264241218566895 0.6325336539306399 -0.446992565139854 -0.6325336539306399
10 -6.007394313812256 -5.603536128997803 0.9652169458176105 -0.215426313382462 -0.14814773372875278
10 -5.603536128997803 -6.007394313812256 0.7307807648513436 -0.43524663719401 -0.525851536590501
7.78010892868042 -10 -2.8423709869384766 0.12273858039331995 -0.9893057585559835 -0.07879947316450199
7.848972320556641 -9.989847183227539 -2.756192445755005 0.6792627764768234 -0.7049399217291209 -0.20411219278998977
7.832484722137451 -10 -2.7558915615081787 0.0009803639176922004 -0.9999993955620445 -0.000497757103773812
7.841207027435303 -10 -2.722034454345703 0.0015756772862715708 -0.9999987355335364 -0.00021487768115839923
9.989847183227539 -7.848972320556641 -2.756192445755005 0.7049399217291209 -0.6792627764768234 -0.20411219278998977
10 -7.832484722137451 -2.7558915615081787 0.9999995345700411 -0.0008602776313545353 -0.0004367861015255821
10 -7.841207027435303 -2.722034454345703 0.999999689795275 -0.0007804371321499769 -0.00010642949071053832
10 -7.78010892868042 -2.8423709869384766 0.9965319451007201 -0.07002231350472032 -0.044955066513379306
7.78010892868042 -2.8423709869384766 -10 0.08127273092702203 -0.05217795959378209 -0.995325174875173
7.848972320556641 -2.756192445755005 -9.989847183227539 0.6792627764768234 -0.20411219278998977 -0.7049399217291209
7.832484722137451 -2.7558915615081787 -10 0.0005671324773805201 -0.0002879484314431421 -0.9999997977232066
7.841207027435303 -2.722034454345703 -10 0.0006931377531349684 -0.00009452432945952272 -0.9999997553125731
10 -2.8423709869384766 -7.78010892868042 0.746920929249145 -0.35922142189431405 -0.5595257773345398
9.989847183227539 -2.756192445755005 -7.848972320556641 0.7049399217291209 -0.20411219278998977 -0.6792627764768234
10 -2.7558915615081787 -7.832484722137451 0.9995866680078245 -0.013015064752252845 -0.025633985849066628
10 -2.722034454345703 -7.841207027435303 0.9999862210704017 -0.0007093230306060222 -0.005201396944668356
7.960204409454693e-16 -10 8.2083101272583 -7.017288703106733e-11 -0.998443406171069 0.05577422947485397
7.960204409454693e-16 -9.192388534545898 9.192388534545898 2.996340449300619e-10 -0.7071067811865476 0.7071067811865476
7.960204409454693e-16 -8.2083101272583 10 -7.017288703106733e-11 -0.05577422947485397 0.998443406171069
2.722034454345703 -10 7.841207027435303 0.00010642949071053347 -0.9999996897952295 0.0007804371903576015
2.756192445755005 -9.989847183227539 7.848972320556641 0.20411218421366611 -0.7049399517138151 0.679262747935768
2.7558915615081787 -10 7.832484722137451 0.00043678610152562584 -0.9999995345701412 0.0008602775149392982
2.8423709869384766 -10 7.78010892868042 0.04495507023114088 -0.9965319449338301 0.07002231349299365
2.722034454345703 -7.841207027435303 10 0.0000945243294595189 -0.000693137811342601 0.9999997553125327
2.756192445755005 -7.848972320556641 9.989847183227539 0.20411218421366611 -0.679262747935768 0.7049399517138151
2.7558915615081787 -7.832484722137451 10 0.00028794843144315166 -0.0005671324191728794 0.9999997977232397
2.8423709869384766 -7.78010892868042 10 0.052177959562186814 -0.08127273832838981 0.9953251742724746
8.2083101272583 -10 7.960204409454693e-16 0.11249981057894924 -0.9936517461463551 -1.4154272176570175e-10
9.192388534545898 -9.192388534545898 7.960204409454693e-16 0.7071067811865476 -0.7071067811865476 -9.137354362980049e-10
10 -8.2083101272583 7.960204409454693e-16 0.998443406171069 -0.05577422947485397 -7.017288703106733e-11
7.78010892868042 -10 2.8423709869384766 0.5595257304001885 -0.7469209461629459 0.35922145983109816
7.841207027435303 -10 2.722034454345703 0.005201397410317041 -0.9999862210679796 0.0007093230306043041
7.848972320556641 -9.989847183227539 2.756192445755005 0.679262747935768 -0.7049399517138151 0.20411218421366611
7.832484722137451 -10 2.7558915615081787 0.02563398398764537 -0.9995866680555516 0.013015064752874273
10 -7.841207027435303 2.722034454345703 0.9999997553125329 -0.0006931378113426011 0.00009452432945951893
9.989847183227539 -7.848972320556641 2.756192445755005 0.7049399517138151 -0.679262747935768 0.20411218421366611
10 -7.832484722137451 2.7558915615081787 0.9999997977232397 -0.0005671324191728794 0.00028794843144315166
10 -7.78010892868042 2.8423709869384766 0.9953251742724746 -0.08127273832838981 0.052177959562186814
5.603536128997803 -10 6.007394313812256 0.14814773420432212 -0.9652169489160554 0.215426299172841
6.007394313812256 -10 5.603536128997803 0.5258514934677218 -0.7307807877563461 0.4352466508360293
5.692508220672607 -8.264241218566895 8.264241218566895 0.448663594531195 -0.6341114671225127 0.6297647387763798
5.603536128997803 -6.007394313812256 10 0.10775089162413687 -0.13018128153239314 0.9856178667682457
6.007394313812256 -5.603536128997803 10 0.028902058853756404 -0.019875820336104296 0.9993846220349706
8.264241218566895 -8.264241218566895 5.692508220672607 0.6325336335952453 -0.6325336335952453 0.4469926226925806
10 -6.007394313812256 5.603536128997803 0.988572840801504 -0.11612585989332189 0.09611723619455995
10 -5.603536128997803 6.007394313812256 0.9954112044445612 -0.05422149529048697 0.07884518701031451
8.264241218566895 -5.692508220672607 8.264241218566895 0.6313741679089652 -0.4502591700282447 0.6313741679089652
7.78010892868042 -2.8423709869384766 10 0.12273858039331995 -0.07879947316450199 0.9893057585559835
7.848972320556641 -2.756192445755005 9.989847183227539 0.6792627764768234 -0.20411219278998977 0.7049399217291209
7.832484722137451 -2.7558915615081787 10 0.0009803639176922006 -0.0004977571037738121 0.9999993955620448
7.841207027435303 -2.722034454345703 10 0.0015756772862715708 -0.00021487768115839923 0.9999987355335364
10 -2.8423709869384766 7.78010892868042 0.995325174875173 -0.05217795959378209 0.08127273092702203
9.989847183227539 -2.756192445755005 7.848972320556641 0.7049399217291209 -0.20411219278998977 0.6792627764768234
10 -2.7558915615081787 7.832484722137451 0.9999997977232066 -0.0002879484314431421 0.0005671324773805201
10 -2.722034454345703 7.841207027435303 0.9999997553125731 -0.00009452432945952272 0.0006931377531349684
7.960204409454693e-16 8.2083101272583 -10 -1.4154272176570175e-10 0.11249981057894924 -0.9936517461463551
7.960204409454693e-16 9.192388534545898 -9.192388534545898 2.996340449300619e-10 0.7071067811865476 -0.7071067811865476
7.960204409454693e-16 10 -8.2083101272583 -1.4154272176570175e-10 0.9936517461463551 -0.11249981057894924
2.722034454345703 7.841207027435303 -10 0.0007093230306043041 0.005201397410317041 -0.9999862210679796
2.756192445755005 7.848972320556641 -9.989847183227539 0.20411218421366611 0.679262747935768 -0.7049399517138151
2.7558915615081787 7.832484722137451 -10 0.013015063822330865 0.025633982126534838 -0.9995866681153952
2.8423709869384766 7.78010892868042 -10 0.35922145983109816 0.5595257304001885 -0.7469209461629459
2.722034454345703 10 -7.841207027435303 0.0007093230306043041 0.9999862210679796 -0.005201397410317041
2.756192445755005 9.989847183227539 -7.848972320556641 0.20411218421366611 0.7049399517138151 -0.679262747935768
2.7558915615081787 10 -7.832484722137451 0.013015063822330865 0.9995866681153952 -0.025633982126534838
2.8423709869384766 10 -7.78010892868042 0.35922142189431405 0.746920929249145 -0.5595257773345398
8.2083101272583 7.960204409454693e-16 -10 0.05577422947485397 -7.017288703106733e-11 -0.998443406171069
9.192388534545898 7.960204409454693e-16 -9.192388534545898 0.7071067811865476 2.996340449300619e-10 -0.7071067811865476
10 7.960204409454693e-16 -8.2083101272583 0.9936517461463551 -1.4154272176570175e-10 -0.11249981057894924
7.78010892868042 2.8423709869384766 -10 0.07002231349299365 0.04495507023114088 -0.9965319449338301
7.841207027435303 2.722034454345703 -10 0.0007804371903576015 0.00010642949071053347 -0.9999996897952295
7.848972320556641 2.756192445755005 -9.989847183227539 0.679262747935768 0.20411218421366611 -0.7049399517138151
7.832484722137451 2.7558915615081787 -10 0.0008602775149392982 0.00043678610152562584 -0.9999995345701412
10 2.722034454345703 -7.841207027435303 0.999998735533353 0.00021487768115835982 -0.001575677402686602
9.989847183227539 2.756192445755005 -7.848972320556641 0.7049399517138151 0.20411218421366611 -0.679262747935768
10 2.7558915615081787 -7.832484722137451 0.9999993955621589 0.0004977571037738689 -0.0009803638012769917
10 2.8423709869384766 -7.78010892868042 0.9893057591368065 0.07879946576018451 -0.12273858046537997
5.603536128997803 6.007394313812256 -10 0.3680332343977455 0.5351687133225581 -0.7603591169042506
6.007394313812256 5.603536128997803 -10 0.29937124875246823 0.24778922417776053 -0.9213996721302712
5.692508220672607 8.264241218566895 -8.264241218566895 0.4502591700282447 0.6313741679089652 -0.6313741679089652
5.603536128997803 10 -6.007394313812256 0.3680332343977455 0.7603591169042506 -0.5351687133225581
6.007394313812256 10 -5.603536128997803 0.29937127477843023 0.9213996605074535 -0.24778923595323268
8.264241218566895 5.692508220672607 -8.264241218566895 0.6325336335952453 0.4469926226925806 -0.6325336335952453
10 5.603536128997803 -6.007394313812256 0.9976097840893419 0.04405906379538606 -0.05323079547302313
10 6.007394313812256 -5.603536128997803 0.9993846220349706 0.028902058853756404 -0.019875820336104296
8.264241218566895 8.264241218566895 -5.692508220672607 0.634111450164828 0.6297647219349373 -0.44866364213748144
7.78010892868042 10 -2.8423709869384766 0.07002231349299365 0.9965319449338301 -0.04495507023114088
7.848972320556641 9.989847183227539 -2.756192445755005 0.6792627764768234 0.7049399217291209 -0.20411219278998977
7.832484722137451 10 -2.7558915615081787 0.0008602776313545353 0.9999995345700411 -0.0004367861015255821
7.841207027435303 10 -2.722034454345703 0.0007804371321499769 0.999999689795275 -0.00010642949071053832
10 7.78010892868042 -2.8423709869384766 0.9893057585559835 0.12273858039331995 -0.07879947316450199
9.989847183227539 7.848972320556641 -2.756192445755005 0.7049399217291209 0.6792627764768234 -0.20411219278998977
10 7.832484722137451 -2.7558915615081787 0.9999993955620445 0.0009803639176922004 -0.000497757103773812
10 7.841207027435303 -2.722034454345703 0.9999987355335364 0.0015756772862715708 -0.00021487768115839923
7.960204409454693e-16 8.2083101272583 10 -7.017288703106733e-11 0.05577422947485397 0.998443406171069
7.960204409454693e-16 10 8.2083101272583 -7.017288703106733e-11 0.998443406171069 0.05577422947485397
7.960204409454693e-16 9.192388534545898 9.192388534545898 2.996340449300619e-10 0.7071067811865476 0.7071067811865476
2.722034454345703 7.841207027435303 10 0.00010642949071053347 0.0007804371903576015 0.9999996897952295
2.756192445755005 7.848972320556641 9.989847183227539 0.20411218421366611 0.679262747935768 0.7049399517138151
2.7558915615081787 7.832484722137451 10 0.00043678610152562584 0.0008602775149392982 0.9999995345701412
2.8423709869384766 7.78010892868042 10 0.04495507023114088 0.07002231349299365 0.9965319449338301
2.722034454345703 10 7.841207027435303 0.0000945243294595189 0.9999997553125327 0.000693137811342601
2.756192445755005 9.989847183227539 7.848972320556641 0.20411218421366611 0.7049399517138151 0.679262747935768
2.7558915615081787 10 7.832484722137451 0.0002879484314431516 0.9999997977232394 0.0005671324191728793
2.8423709869384766 10 7.78010892868042 0.05217795959378209 0.995325174875173 0.08127273092702203
8.2083101272583 7.960204409454693e-16 10 0.11249981057894924 -1.4154272176570175e-10 0.9936517461463551
10 7.960204409454693e-16 8.2083101272583 0.998443406171069 -7.017288703106733e-11 0.05577422947485397
9.192388534545898 7.960204409454693e-16 9.192388534545898 0.7071067811865476 2.996340449300619e-10 0.7071067811865476
7.78010892868042 2.8423709869384766 10 0.5595257304001885 0.35922145983109816 0.7469209461629459
7.841207027435303 2.722034454345703 10 0.005201397410317041 0.0007093230306043041 0.9999862210679796
7.848972320556641 2.756192445755005 9.989847183227539 0.679262747935768 0.20411218421366611 0.7049399517138151
7.832484722137451 2.7558915615081787 10 0.02563398398764537 0.013015064752874273 0.9995866680555516
10 2.722034454345703 7.841207027435303 0.9999996897952295 0.00010642949071053347 0.0007804371903576015
9.989847183227539 2.756192445755005 7.848972320556641 0.7049399517138151 0.20411218421366611 0.679262747935768
10 2.7558915615081787 7.832484722137451 0.9999995345701412 0.00043678610152562584 0.0008602775149392982
10 2.8423709869384766 7.78010892868042 0.9965319449338301 0.04495507023114088 0.07002231349299365
8.2083101272583 10 7.960204409454693e-16 0.05577422947485397 0.998443406171069 -7.017288703106733e-11
10 8.2083101272583 7.960204409454693e-16 0.9936517461463551 0.11249981057894924 -1.4154272176570175e-10
9.192388534545898 9.192388534545898 7.960204409454693e-16 0.7071067811865476 0.7071067811865476 2.996340449300619e-10
7.78010892868042 10 2.8423709869384766 0.08127273092702203 0.995325174875173 0.05217795959378209
7.841207027435303 10 2.722034454345703 0.0006931378113426011 0.9999997553125329 0.00009452432945951893
7.848972320556641 9.989847183227539 2.756192445755005 0.679262747935768 0.7049399517138151 0.20411218421366611
7.832484722137451 10 2.7558915615081787 0.0005671324191728794 0.9999997977232397 0.00028794843144315166
10 7.78010892868042 2.8423709869384766 0.7469209461629459 0.5595257304001885 0.35922145983109816
10 7.841207027435303 2.722034454345703 0.9999862210679796 0.005201397410317041 0.0007093230306043041
9.989847183227539 7.848972320556641 2.756192445755005 0.7049399517138151 0.679262747935768 0.20411218421366611
10 7.832484722137451 2.7558915615081787 0.9995866680555516 0.02563398398764537 0.013015064752874273
5.603536128997803 6.007394313812256 10 0.14814773420432212 0.215426299172841 0.9652169489160554
6.007394313812256 5.603536128997803 10 0.5258514934677218 0.4352466508360293 0.7307807877563461
5.603536128997803 10 6.007394313812256 0.10775089162413687 0.9856178667682457 0.13018128153239314
6.007394313812256 10 5.603536128997803 0.06952516531701597 0.9964337654190613 0.04781215870918907
5.692508220672607 8.264241218566895 8.264241218566895 0.4486635708442909 0.6297648069649073 0.6341114161609955
10 5.603536128997803 6.007394313812256 0.9652169489160554 0.14814773420432212 0.215426299172841
10 6.007394313812256 5.603536128997803 0.7307807877563461 0.5258514934677218 0.4352466508360293
8.264241218566895 5.692508220672607 8.264241218566895 0.6341114161609955 0.4486635708442909 0.6297648069649073
8.264241218566895 8.264241218566895 5.692508220672607 0.6297648069649073 0.6341114161609955 0.4486635708442909
3 2 12 53
3 3 89 17
3 2 128 3
3 6 28 5
3 5 145 16
3 6 25 27
3 6 27 28
3 5 28 145
3 7 32 8
3 7 24 146
3 8 31 29
3 8 32 31
3 7 146 32
3 16 145 147
3 16 147 149
3 16 149 150
3 24 151 146
3 24 153 151
3 24 154 153
3 14 16 156
3 14 156 15
3 35 15 156
3 35 156 40
3 40 156 42
3 43 42 156
3 24 22 158
3 23 158 22
3 23 71 158
3 71 76 158
3 76 78 158
3 78 79 158
3 11 34 53
3 11 53 10
3 12 10 53
3 34 36 46
3 36 38 45
3 38 39 45
3 36 45 46
3 34 46 53
3 2 53 55
3 2 55 56
3 2 56 105
3 2 105 108
3 2 108 110
3 2 110 111
3 52 59 51
3 51 59 58
3 51 58 60
3 52 107 59
3 52 65 107
3 65 112 107
3 65 114 112
3 65 115 114
3 43 156 48
3 48 157 49
3 49 157 61
3 65 67 131
3 68 131 67
3 68 182 131
3 182 187 131
3 131 187 189
3 131 189 190
3 19 89 20
3 19 17 89
3 20 89 70
3 70 82 72
3 72 81 74
3 75 74 81
3 72 82 81
3 70 89 82
3 3 91 89
3 3 92 91
3 3 116 92
3 3 120 116
3 3 122 120
3 3 119 122
3 87 96 140
3 84 158 79
3 85 158 84
3 97 233 85
3 88 250 101
3 87 294 88
3 128 2 127
3 2 111 127
3 3 128 119
3 65 131 115
3 95 118 140
3 95 140 94
3 96 94 140
3 118 123 134
3 133 123 125
3 133 125 126
3 133 134 123
3 118 134 140
3 131 206 132
3 132 206 136
3 87 140 142
3 87 142 143
3 87 143 259
3 87 259 265
3 87 265 267
3 87 267 268
3 16 150 156
3 24 158 154
3 157 48 156
3 158 85 159
3 85 172 159
3 164 186 157
3 163 179 162
3 162 232 171
3 163 176 178
3 163 178 179
3 162 179 232
3 232 237 171
3 171 237 239
3 171 239 240
3 169 171 247
3 169 247 170
3 170 247 193
3 193 247 198
3 198 247 200
3 201 200 247
3 63 61 157
3 63 157 64
3 180 64 157
3 180 157 183
3 157 185 183
3 157 186 185
3 131 190 205
3 206 131 205
3 164 166 186
3 166 167 186
3 167 191 186
3 186 191 202
3 202 191 195
3 197 194 203
3 197 203 195
3 202 195 203
3 201 247 208
3 208 248 209
3 209 248 215
3 211 264 206
3 85 174 172
3 85 175 174
3 85 230 175
3 85 234 230
3 85 236 234
3 85 233 236
3 97 99 233
3 100 233 99
3 100 219 233
3 103 250 104
3 103 101 250
3 104 250 221
3 219 222 242
3 224 241 222
3 224 225 241
3 233 219 242
3 222 241 242
3 221 245 226
3 226 244 228
3 229 228 244
3 226 245 244
3 221 250 245
3 88 252 250
3 88 253 252
3 88 280 253
3 88 284 280
3 88 286 284
3 88 283 286
3 171 240 247
3 248 208 247
3 254 279 248
3 138 136 206
3 138 206 139
3 139 206 258
3 206 261 258
3 206 263 261
3 206 264 263
3 87 293 294
3 87 268 293
3 88 294 283
3 217 215 248
3 217 248 218
3 218 248 270
3 248 276 270
3 248 278 276
3 248 279 278
3 211 213 264
3 214 264 213
3 214 269 264
3 269 291 264
3 269 273 291
3 275 272 292
3 275 292 273
3 291 273 292
3 254 256 279
3 256 257 279
3 257 281 279
3 281 296 279
3 281 288 296
3 290 287 297
3 290 297 288
3 296 288 297
3 0 2 1
3 1 2 3
3 0 4 6
3 0 6 5
3 1 8 4
3 1 7 8
3 0 1 4
3 9 12 0
3 9 10 12
3 9 11 10
3 13 0 16
3 13 16 14
3 13 14 15
3 9 0 13
3 9 13 33
3 9 34 11
3 9 33 34
3 13 15 35
3 13 35 33
3 0 12 2
3 0 5 16
3 18 1 17
3 18 17 19
3 18 19 20
3 1 21 24
3 21 22 24
3 21 23 22
3 18 21 1
3 1 3 17
3 18 69 21
3 18 20 70
3 18 70 69
3 21 71 23
3 21 69 71
3 1 24 7
3 4 26 25
3 4 29 30
3 26 27 25
3 26 28 27
3 30 29 31
3 30 31 32
3 4 30 26
3 4 25 6
3 4 8 29
3 26 30 144
3 26 145 28
3 30 32 146
3 26 144 145
3 30 146 144
3 37 33 41
3 37 34 33
3 37 36 34
3 41 33 35
3 41 35 40
3 37 38 36
3 37 39 38
3 37 44 39
3 41 40 42
3 41 42 43
3 41 43 44
3 37 41 44
3 44 45 39
3 44 43 48
3 44 46 45
3 44 47 46
3 44 48 49
3 44 49 50
3 44 50 47
3 47 50 52
3 47 52 51
3 47 53 46
3 54 53 47
3 54 55 53
3 54 56 55
3 47 60 57
3 54 47 57
3 57 60 58
3 57 58 59
3 54 105 56
3 54 57 106
3 54 106 105
3 57 59 107
3 57 107 106
3 47 51 60
3 50 49 61
3 50 61 62
3 50 66 65
3 62 61 63
3 62 63 64
3 50 62 66
3 66 67 65
3 66 68 67
3 50 65 52
3 62 64 180
3 62 181 66
3 66 182 68
3 62 180 181
3 66 181 182
3 73 69 70
3 73 77 69
3 73 70 72
3 77 71 69
3 77 76 71
3 73 72 74
3 73 74 75
3 73 75 80
3 77 78 76
3 77 79 78
3 73 80 77
3 77 80 79
3 80 75 81
3 80 84 79
3 80 81 82
3 80 82 83
3 80 85 84
3 80 86 85
3 80 83 86
3 83 87 86
3 86 87 88
3 83 82 89
3 90 83 89
3 90 89 91
3 90 91 92
3 90 93 83
3 83 93 96
3 93 94 96
3 93 95 94
3 90 92 116
3 90 116 117
3 90 117 93
3 93 118 95
3 93 117 118
3 83 96 87
3 86 97 85
3 86 98 97
3 86 101 102
3 98 99 97
3 98 100 99
3 86 102 98
3 102 101 103
3 102 103 104
3 86 88 101
3 98 219 100
3 98 102 220
3 102 104 221
3 98 220 219
3 102 221 220
3 109 105 106
3 109 108 105
3 109 106 113
3 106 107 113
3 113 107 112
3 129 127 111
3 109 110 108
3 109 111 110
3 109 129 111
3 109 113 129
3 113 112 114
3 113 114 115
3 113 115 129
3 129 115 131
3 130 119 128
3 121 117 116
3 121 116 120
3 121 124 117
3 117 124 118
3 124 123 118
3 121 120 122
3 121 122 119
3 121 119 130
3 121 130 124
3 124 125 123
3 124 126 125
3 130 126 124
3 130 133 126
3 130 128 127
3 129 130 127
3 129 135 130
3 129 131 135
3 135 131 132
3 130 134 133
3 130 135 134
3 135 132 136
3 135 140 134
3 135 136 137
3 135 141 140
3 135 137 141
3 137 136 138
3 137 138 139
3 141 142 140
3 141 143 142
3 137 139 258
3 141 259 143
3 137 260 141
3 137 258 260
3 141 260 259
3 148 145 144
3 152 144 146
3 148 144 152
3 148 147 145
3 152 146 151
3 148 149 147
3 148 150 149
3 152 151 153
3 152 153 154
3 148 152 155
3 148 155 150
3 152 154 155
3 155 156 150
3 155 154 158
3 155 157 156
3 155 160 157
3 155 158 159
3 155 159 161
3 155 161 160
3 160 161 163
3 160 163 162
3 160 164 157
3 165 164 160
3 165 166 164
3 165 167 166
3 165 160 168
3 160 171 168
3 168 171 169
3 168 169 170
3 165 191 167
3 165 192 191
3 165 168 192
3 168 170 193
3 168 193 192
3 160 162 171
3 161 159 172
3 161 172 173
3 173 172 174
3 173 174 175
3 161 173 177
3 161 177 176
3 177 178 176
3 177 179 178
3 161 176 163
3 173 175 230
3 173 230 231
3 173 231 177
3 177 232 179
3 177 231 232
3 184 181 180
3 181 188 182
3 184 180 183
3 184 188 181
3 188 187 182
3 204 186 202
3 184 183 185
3 184 185 186
3 184 204 188
3 188 189 187
3 188 190 189
3 184 186 204
3 188 204 190
3 204 205 190
3 207 203 194
3 196 191 192
3 196 195 191
3 196 192 199
3 192 193 199
3 199 193 198
3 196 197 195
3 196 194 197
3 196 207 194
3 196 199 207
3 199 198 200
3 199 200 201
3 207 199 201
3 207 201 208
3 204 202 203
3 204 203 207
3 204 207 210
3 204 210 205
3 210 206 205
3 207 208 210
3 210 208 209
3 210 211 206
3 210 209 215
3 210 212 211
3 210 216 212
3 212 213 211
3 212 214 213
3 210 215 216
3 216 215 217
3 216 217 218
3 212 269 214
3 212 271 269
3 216 218 270
3 212 216 271
3 216 270 271
3 223 219 220
3 220 221 227
3 223 222 219
3 223 220 227
3 227 221 226
3 243 241 225
3 223 224 222
3 223 225 224
3 223 227 243
3 227 226 228
3 227 228 229
3 223 243 225
3 227 229 243
3 243 229 244
3 246 233 242
3 235 231 230
3 235 230 234
3 231 238 232
3 235 238 231
3 238 237 232
3 235 234 236
3 235 236 233
3 235 246 238
3 235 233 246
3 238 239 237
3 238 240 239
3 246 240 238
3 246 247 240
3 243 242 241
3 243 246 242
3 243 249 246
3 243 244 245
3 243 245 249
3 246 249 247
3 249 248 247
3 249 245 250
3 249 254 248
3 249 251 255
3 249 250 251
3 251 250 252
3 251 252 253
3 249 255 254
3 255 256 254
3 255 257 256
3 251 253 280
3 251 280 282
3 255 281 257
3 255 282 281
3 251 282 255
3 260 258 262
3 260 266 259
3 262 258 261
3 266 265 259
3 260 262 266
3 295 264 291
3 295 293 268
3 262 295 266
3 262 261 263
3 262 263 264
3 266 267 265
3 266 268 267
3 262 264 295
3 266 295 268
3 298 292 272
3 271 274 269
3 274 273 269
3 271 270 277
3 277 270 276
3 271 277 274
3 298 279 296
3 274 277 298
3 274 275 273
3 274 272 275
3 274 298 272
3 277 276 278
3 277 278 279
3 298 277 279
3 299 283 294
3 299 297 287
3 282 280 285
3 285 280 284
3 282 289 281
3 289 288 281
3 282 285 289
3 299 289 285
3 285 284 286
3 285 286 283
3 299 285 283
3 289 290 288
3 289 287 290
3 299 287 289
3 295 298 299
3 295 291 292
3 295 292 298
3 299 294 293
3 295 299 293
3 298 296 297
3 298 297 299

