{"asset":{"version":"2.0","generator":"THREE.GLTFExporter r182"},"scenes":[{"name":"AuxScene","nodes":[0]}],"scene":0,"nodes":[{"mesh":0}],"bufferViews":[{"buffer":0,"byteOffset":0,"byteLength":1128,"target":34962,"byteStride":12},{"buffer":0,"byteOffset":1128,"byteLength":1128,"target":34962,"byteStride":12},{"buffer":0,"byteOffset":2256,"byteLength":2208,"target":34963}],"buffers":[{"byteLength":4464,"uri":"data:application/octet-stream;base64,"}],"accessors":[{"bufferView":0,"componentType":5126,"count":94,"max":[10,10,10],"min":[-10,-10,-10],"type":"VEC3"},{"bufferView":1,"componentType":5126,"count":94,"max":[1,0.7067733407020569,0.7067733407020569],"min":[-1,-0.7067733407020569,-0.7067733407020569],"type":"VEC3"},{"bufferView":2,"componentType":5125,"count":552,"max":[93],"min":[0],"type":"SCALAR"}],"materials":[{"pbrMetallicRoughness":{"baseColorFactor":[0.7454042095350284,0.3005437944049895,0.07036009568874305,1],"metallicFactor":0.25,"roughnessFactor":0.4},"name":"boolean-intersection-cylinder-cylinder-material"}],"meshes":[{"primitives":[{"mode":4,"attributes":{"POSITION":0,"NORMAL":1},"indices":2,"material":0}]}]}