ply
format ascii 1.0
element vertex 94
property float x
property float y
property float z
property float nx
property float ny
property float nz
element face 184
property list uchar int vertex_index
end_header
-7.933533191680908 -6.087614059448242 -6.087614059448242 -0.8866879777004081 -0.32694374913856405 -0.32694374913856405
-6.087614059448242 -7.933533191680908 -7.933533191680908 -0.7492415180667674 -0.46831460985378515 -0.46831460985378515
-7.071067810058594 -7.071067810058594 -7.071067810058594 -0.827021547521029 -0.39751437705819026 -0.39751437705819026
-9.238795280456543 -3.8268344402313232 -3.8268344402313232 -0.9631475954185863 -0.19019294077251567 -0.19019294077251567
-9.659257888793945 -2.5881905555725098 -2.5881905555725098 -0.9842688676162162 -0.12492957264293265 -0.12492957264293265
-8.66025447845459 -5 -5 -0.9312369945681227 -0.25767970423350206 -0.25767970423350206
-9.914448738098145 -1.3052619695663452 -1.3052619695663452 -0.9956948575057498 -0.06554292767570234 -0.06554292767570234
-3.8268344402313232 -9.238795280456543 -9.238795280456543 -0.527396217306154 -0.600771682909223 -0.600771682909223
-5 -8.66025447845459 -8.66025447845459 -0.6501985866415028 -0.5372344915999867 -0.5372344915999867
-2.5881905555725098 -9.659257888793945 -9.659257888793945 -0.3803519977198945 -0.6539619093764123 -0.6539619093764123
-1.3052619695663452 -9.914448738098145 -9.914448738098145 -0.21221529765776379 -0.6910009650644588 -0.6910009650644588
-7.933533191680908 -6.087614059448242 6.087614059448242 -0.8687232183047544 -0.3502284605104117 0.35022849031273423
-6.087614059448242 -7.933533191680908 7.933533191680908 -0.718850946141661 -0.49155534644190324 0.49155534644190324
-7.071067810058594 -7.071067810058594 7.071067810058594 -0.8033721517409599 -0.42106604945191284 0.42106598984726756
-9.238795280456543 -3.8268344402313232 3.8268344402313232 -0.9539130916317544 -0.21219073214156656 0.21219073214156656
-9.659257888793945 -2.5881905555725098 2.5881905555725098 -0.9785073422721282 -0.1458138975974665 0.14581388269630527
-9.914448738098145 -1.3052619695663452 1.3052619695663452 -0.9932630646733951 -0.08194047948241187 0.08194047948241187
-8.66025447845459 -5 5 -0.9180110588016427 -0.2804065612680565 0.2804065910703786
-3.8268344402313232 -9.238795280456543 9.238795280456543 -0.48114436413702527 -0.6198790611317572 0.6198790611317572
-5 -8.66025447845459 8.66025447845459 -0.6121089955916844 -0.5591612368162422 0.5591612368162422
-2.5881905555725098 -9.659257888793945 9.659257888793945 -0.3265105981363634 -0.6683527621341271 0.6683527621341271
-1.3052619695663452 -9.914448738098145 9.914448738098145 -0.1528454325226442 -0.6987983222839433 0.6987983818885901
-9.914448738098145 1.3052619695663452 -1.3052619695663452 -0.9932630646733951 0.08194047948241187 -0.08194047948241187
-9.659257888793945 2.5881905555725098 -2.5881905555725098 -0.9785073465243223 0.14581386842879165 -0.14581388332995296
-9.238795280456543 3.8268344402313232 -3.8268344402313232 -0.9539130946479211 0.2121907179113287 -0.21219073281248996
-7.933533191680908 6.087614059448242 -6.087614059448242 -0.8687232183047544 0.35022849031273423 -0.3502284605104117
-7.071067810058594 7.071067810058594 -7.071067810058594 -0.8033721517409599 0.42106598984726756 -0.42106604945191284
-6.087614059448242 7.933533191680908 -7.933533191680908 -0.718850946141661 0.49155534644190324 -0.49155534644190324
-8.66025447845459 5 -5 -0.9180110588016427 0.2804065910703786 -0.2804065612680565
-5 8.66025447845459 -8.66025447845459 -0.6121089955916844 0.5591612368162422 -0.5591612368162422
-3.8268344402313232 9.238795280456543 -9.238795280456543 -0.4811443870401123 0.6198790522431753 -0.6198790522431753
-2.5881905555725098 9.659257888793945 -9.659257888793945 -0.3265105715112423 0.6683527686377164 -0.6683527686377164
-1.3052619695663452 9.914448738098145 -9.914448738098145 -0.1528454325226442 0.6987983818885901 -0.6987983222839433
-10 0 0 -1 3.7663533403176075e-10 3.7663533403176075e-10
-9.914448738098145 1.3052619695663452 1.3052619695663452 -0.9956948575057498 0.06554292767570234 0.06554292767570234
-9.659257888793945 2.5881905555725098 2.5881905555725098 -0.9842688712808374 0.12492955820690774 0.12492955820690774
-9.238795280456543 3.8268344402313232 3.8268344402313232 -0.963147600877891 0.1901929269494041 0.1901929269494041
-8.66025447845459 5 5 -0.9312369945681227 0.25767970423350206 0.25767970423350206
-7.933533191680908 6.087614059448242 6.087614059448242 -0.8866879476786477 0.32694378984882705 0.32694378984882705
-7.071067810058594 7.071067810058594 7.071067810058594 -0.827021547521029 0.39751437705819026 0.39751437705819026
-6.087614059448242 7.933533191680908 7.933533191680908 -0.7492414710078317 0.46831464749782303 0.46831464749782303
-5 8.66025447845459 8.66025447845459 -0.6501985105943177 0.537234537618781 0.537234537618781
-3.8268344402313232 9.238795280456543 9.238795280456543 -0.527396217306154 0.600771682909223 0.600771682909223
-2.5881905555725098 9.659257888793945 9.659257888793945 -0.3803519722290028 0.6539619167893141 0.6539619167893141
-1.3052619695663452 9.914448738098145 9.914448738098145 -0.21221529765776379 0.6910009650644588 0.6910009650644588
0 -10 -10 -0.03070622895343764 -0.7067733468034356 -0.7067733468034356
1.3052619695663452 -9.914448738098145 -9.914448738098145 0.15284542615638338 -0.6987983527825011 -0.6987983527825011
2.5881905555725098 -9.659257888793945 -9.659257888793945 0.3265105715112423 -0.6683527686377164 -0.6683527686377164
3.8268344402313232 -9.238795280456543 -9.238795280456543 0.4811443870401123 -0.6198790522431753 -0.6198790522431753
5 -8.66025447845459 -8.66025447845459 0.6121089955916844 -0.5591612368162422 -0.5591612368162422
6.087614059448242 -7.933533191680908 -7.933533191680908 0.718850946141661 -0.49155534644190324 -0.49155534644190324
7.071067810058594 -7.071067810058594 -7.071067810058594 0.8033721517409605 -0.42106601964959056 -0.42106601964959056
7.933533191680908 -6.087614059448242 -6.087614059448242 0.8687231911025405 -0.35022850914839804 -0.35022850914839804
8.66025447845459 -5 -5 0.9180110511300383 -0.28040658872708607 -0.28040658872708607
9.238795280456543 -3.8268344402313232 -3.8268344402313232 0.9539130916317544 -0.21219073214156656 -0.21219073214156656
9.659257888793945 -2.5881905555725098 -2.5881905555725098 0.978507348650419 -0.14581386874561544 -0.14581386874561544
9.914448738098145 -1.3052619695663452 -1.3052619695663452 0.9932630646733951 -0.08194047948241187 -0.08194047948241187
0 -10 10 0.030706227092548707 -0.7067733468438594 0.7067733468438594
1.3052619695663452 -9.914448738098145 9.914448738098145 0.21221529765776379 -0.6910009650644588 0.6910009650644588
2.5881905555725098 -9.659257888793945 9.659257888793945 0.3803519574031992 -0.6539618912984225 0.6539619509030667
3.8268344402313232 -9.238795280456543 9.238795280456543 0.527396217306154 -0.600771682909223 0.600771682909223
5 -8.66025447845459 8.66025447845459 0.6501985658210571 -0.5372345340014838 0.5372344743968402
6.087614059448242 -7.933533191680908 7.933533191680908 0.7492415180667674 -0.46831460985378515 0.46831460985378515
7.071067810058594 -7.071067810058594 7.071067810058594 0.827021527925825 -0.39751436763960213 0.3975144272442461
7.933533191680908 -6.087614059448242 6.087614059448242 0.8866879863400142 -0.32694375232420014 0.32694372252187803
9.238795280456543 -3.8268344402313232 3.8268344402313232 0.9631475954185863 -0.19019294077251567 0.19019294077251567
9.659257888793945 -2.5881905555725098 2.5881905555725098 0.9842688676162162 -0.12492957264293265 0.12492957264293265
9.914448738098145 -1.3052619695663452 1.3052619695663452 0.9956948575057498 -0.06554292767570234 0.06554292767570234
8.66025447845459 -5 5 0.9312369945681227 -0.25767970423350206 0.25767970423350206
0 10 -10 0.030706227092548707 0.7067733468438594 -0.7067733468438594
1.3052619695663452 9.914448738098145 -9.914448738098145 0.21221529765776379 0.6910009650644588 -0.6910009650644588
2.5881905555725098 9.659257888793945 -9.659257888793945 0.38035193191230743 0.6539619583159683 -0.6539618987113234
3.8268344402313232 9.238795280456543 -9.238795280456543 0.527396217306154 0.600771682909223 -0.600771682909223
9.914448738098145 1.3052619695663452 -1.3052619695663452 0.9956948575057498 0.06554292767570234 -0.06554292767570234
9.659257888793945 2.5881905555725098 -2.5881905555725098 0.9842688676162162 0.12492957264293265 -0.12492957264293265
9.238795280456543 3.8268344402313232 -3.8268344402313232 0.9631475954185863 0.19019294077251567 -0.19019294077251567
7.071067810058594 7.071067810058594 -7.071067810058594 0.827021527925825 0.3975144272442461 -0.39751436763960213
5 8.66025447845459 -8.66025447845459 0.6501985658210571 0.5372344743968402 -0.5372345340014838
6.087614059448242 7.933533191680908 -7.933533191680908 0.7492415180667674 0.46831460985378515 -0.46831460985378515
7.933533191680908 6.087614059448242 -6.087614059448242 0.8866879863400142 0.32694372252187803 -0.32694375232420014
8.66025447845459 5 -5 0.9312369945681227 0.25767970423350206 -0.25767970423350206
0 10 10 -0.03070622895343764 0.7067733468034356 0.7067733468034356
1.3052619695663452 9.914448738098145 9.914448738098145 0.15284544070942757 0.6987983511909358 0.6987983511909358
2.5881905555725098 9.659257888793945 9.659257888793945 0.3265105981363634 0.6683527621341271 0.6683527621341271
3.8268344402313232 9.238795280456543 9.238795280456543 0.4811443870401123 0.6198790522431753 0.6198790522431753
10 0 0 1 3.7663533403176075e-10 3.7663533403176075e-10
9.914448738098145 1.3052619695663452 1.3052619695663452 0.9932630646733951 0.08194047948241187 0.08194047948241187
9.659257888793945 2.5881905555725098 2.5881905555725098 0.978507348650419 0.14581386874561544 0.14581386874561544
9.238795280456543 3.8268344402313232 3.8268344402313232 0.9539130855994209 0.21219074570088078 0.21219074570088078
7.071067810058594 7.071067810058594 7.071067810058594 0.8033721517409605 0.42106601964959056 0.42106601964959056
5 8.66025447845459 8.66025447845459 0.6121089955916844 0.5591612368162422 0.5591612368162422
6.087614059448242 7.933533191680908 7.933533191680908 0.718850946141661 0.49155534644190324 0.49155534644190324
7.933533191680908 6.087614059448242 6.087614059448242 0.8687232092373499 0.3502284866571817 0.3502284866571817
8.66025447845459 5 5 0.9180110664732474 0.28040656361134886 0.28040656361134886
3 11 0 2
3 17 5 0
3 12 1 8
3 13 2 1
3 3 5 14
3 15 4 3
3 16 6 4
3 19 8 7
3 18 7 9
3 20 9 10
3 10 45 21
3 0 11 17
3 1 12 13
3 8 19 12
3 2 13 11
3 5 17 14
3 3 14 15
3 4 15 16
3 6 16 33
3 7 18 19
3 9 20 18
3 10 21 20
3 45 57 21
3 35 23 22
3 36 24 23
3 37 28 24
3 38 25 28
3 39 26 25
3 41 29 27
3 40 27 26
3 42 30 29
3 43 31 30
3 44 32 31
3 81 69 32
3 34 22 33
3 22 34 35
3 23 35 36
3 24 36 37
3 28 37 38
3 25 38 39
3 26 39 40
3 27 40 41
3 29 41 42
3 30 42 43
3 31 43 44
3 32 44 81
3 57 45 46
3 58 46 47
3 59 47 48
3 60 48 49
3 61 49 50
3 62 50 51
3 63 51 52
3 64 52 53
3 68 53 54
3 65 54 55
3 66 55 56
3 46 58 57
3 47 59 58
3 48 60 59
3 49 61 60
3 50 62 61
3 51 63 62
3 52 64 63
3 53 68 64
3 54 65 68
3 55 66 65
3 56 67 66
3 67 56 85
3 82 70 69
3 83 71 70
3 84 72 71
3 90 77 72
3 86 73 74
3 87 74 75
3 75 80 88
3 89 76 78
3 91 78 77
3 93 80 79
3 92 79 76
3 69 81 82
3 70 82 83
3 71 83 84
3 72 84 90
3 73 86 85
3 74 87 86
3 75 88 87
3 80 93 88
3 76 89 92
3 78 91 89
3 77 90 91
3 79 92 93
3 25 2 0
3 28 0 5
3 27 8 1
3 26 1 2
3 24 5 3
3 23 3 4
3 22 4 6
3 29 7 8
3 30 9 7
3 31 10 9
3 32 45 10
3 35 16 15
3 37 14 17
3 36 15 14
3 38 17 11
3 12 19 41
3 39 11 13
3 13 12 40
3 19 18 42
3 18 20 43
3 20 21 44
3 81 21 57
3 0 28 25
3 1 26 27
3 2 25 26
3 8 27 29
3 3 23 24
3 5 24 28
3 4 22 23
3 33 22 6
3 7 29 30
3 9 30 31
3 10 31 32
3 45 32 69
3 33 16 34
3 16 35 34
3 15 36 35
3 14 37 36
3 17 38 37
3 11 39 38
3 13 40 39
3 12 41 40
3 19 42 41
3 18 43 42
3 20 44 43
3 21 81 44
3 69 46 45
3 47 46 70
3 48 47 71
3 49 48 72
3 50 49 77
3 51 50 78
3 76 52 51
3 79 53 52
3 80 54 53
3 75 55 54
3 74 56 55
3 82 57 58
3 83 58 59
3 84 59 60
3 90 60 61
3 86 66 67
3 87 65 66
3 88 68 65
3 89 62 63
3 91 61 62
3 93 64 68
3 92 63 64
3 46 69 70
3 47 70 71
3 48 71 72
3 49 72 77
3 50 77 78
3 51 78 76
3 52 76 79
3 53 79 80
3 54 80 75
3 55 75 74
3 56 74 73
3 56 73 85
3 57 82 81
3 58 83 82
3 59 84 83
3 60 90 84
3 85 86 67
3 66 86 87
3 65 87 88
3 68 88 93
3 63 92 89
3 62 89 91
3 61 91 90
3 64 93 92

