solid exported
	facet normal 0 0 -1
		outer loop
			vertex 1000 500 2000
			vertex 0 0 2000
			vertex 0 2000 2000
		endloop
	endfacet
	facet normal 0 0 -1
		outer loop
			vertex 1000 500 2000
			vertex 4000 0 2000
			vertex 0 0 2000
		endloop
	endfacet
	facet normal 0 -1 0
		outer loop
			vertex 0 0 2250
			vertex 0 0 2000
			vertex 4000 0 2000
		endloop
	endfacet
	facet normal 1 0 0
		outer loop
			vertex 1000 500 2250
			vertex 1000 500 2000
			vertex 1000 1500 2000
		endloop
	endfacet
	facet normal 0 1 0
		outer loop
			vertex 2000 500 2250
			vertex 2000 500 2000
			vertex 1000 500 2000
		endloop
	endfacet
	facet normal -1 0 0
		outer loop
			vertex 0 0 2250
			vertex 0 2000 2250
			vertex 0 0 2000
		endloop
	endfacet
	facet normal 0 0 1
		outer loop
			vertex 1000 500 2250
			vertex 0 2000 2250
			vertex 0 0 2250
		endloop
	endfacet
	facet normal 0 0 1
		outer loop
			vertex 1000 500 2250
			vertex 0 0 2250
			vertex 4000 0 2250
		endloop
	endfacet
	facet normal 0 1 0
		outer loop
			vertex 1000 500 2250
			vertex 2000 500 2250
			vertex 1000 500 2000
		endloop
	endfacet
	facet normal 0 0 -1
		outer loop
			vertex 1000 500 2000
			vertex 0 2000 2000
			vertex 1000 1500 2000
		endloop
	endfacet
	facet normal -1 0 0
		outer loop
			vertex 0 2000 2250
			vertex 0 2000 2000
			vertex 0 0 2000
		endloop
	endfacet
	facet normal 0 0 -1
		outer loop
			vertex 1000 1500 2000
			vertex 0 2000 2000
			vertex 2000 1500 2000
		endloop
	endfacet
	facet normal 0 -1 0
		outer loop
			vertex 1000 1500 2250
			vertex 1000 1500 2000
			vertex 2000 1500 2000
		endloop
	endfacet
	facet normal 0 0 1
		outer loop
			vertex 1000 500 2250
			vertex 1000 1500 2250
			vertex 0 2000 2250
		endloop
	endfacet
	facet normal 1 0 0
		outer loop
			vertex 1000 1500 2250
			vertex 1000 500 2250
			vertex 1000 1500 2000
		endloop
	endfacet
	facet normal 0 1 0
		outer loop
			vertex 0 2000 2250
			vertex 4000 2000 2250
			vertex 0 2000 2000
		endloop
	endfacet
	facet normal 0 -1 0
		outer loop
			vertex 2000 1500 2250
			vertex 1000 1500 2250
			vertex 2000 1500 2000
		endloop
	endfacet
	facet normal 0 0 1
		outer loop
			vertex 1000 1500 2250
			vertex 2000 1500 2250
			vertex 0 2000 2250
		endloop
	endfacet
	facet normal 0 0 -1
		outer loop
			vertex 1000 500 2000
			vertex 2000 500 2000
			vertex 4000 0 2000
		endloop
	endfacet
	facet normal 0 0 -1
		outer loop
			vertex 4000 0 2000
			vertex 2000 500 2000
			vertex 4000 2000 2000
		endloop
	endfacet
	facet normal 1 0 0
		outer loop
			vertex 4000 0 2250
			vertex 4000 0 2000
			vertex 4000 2000 2000
		endloop
	endfacet
	facet normal 0 -1 0
		outer loop
			vertex 4000 0 2250
			vertex 0 0 2250
			vertex 4000 0 2000
		endloop
	endfacet
	facet normal 0 0 1
		outer loop
			vertex 1000 500 2250
			vertex 4000 0 2250
			vertex 2000 500 2250
		endloop
	endfacet
	facet normal -1 0 0
		outer loop
			vertex 2000 500 2250
			vertex 2000 1500 2250
			vertex 2000 500 2000
		endloop
	endfacet
	facet normal 0 0 1
		outer loop
			vertex 4000 0 2250
			vertex 4000 2000 2250
			vertex 2000 500 2250
		endloop
	endfacet
	facet normal 0 0 -1
		outer loop
			vertex 4000 2000 2000
			vertex 2000 500 2000
			vertex 2000 1500 2000
		endloop
	endfacet
	facet normal -1 0 0
		outer loop
			vertex 2000 1500 2250
			vertex 2000 1500 2000
			vertex 2000 500 2000
		endloop
	endfacet
	facet normal 0 0 -1
		outer loop
			vertex 2000 1500 2000
			vertex 0 2000 2000
			vertex 4000 2000 2000
		endloop
	endfacet
	facet normal 0 1 0
		outer loop
			vertex 4000 2000 2250
			vertex 4000 2000 2000
			vertex 0 2000 2000
		endloop
	endfacet
	facet normal 0 0 1
		outer loop
			vertex 4000 2000 2250
			vertex 2000 1500 2250
			vertex 2000 500 2250
		endloop
	endfacet
	facet normal 0 0 1
		outer loop
			vertex 2000 1500 2250
			vertex 4000 2000 2250
			vertex 0 2000 2250
		endloop
	endfacet
	facet normal 1 0 0
		outer loop
			vertex 4000 2000 2250
			vertex 4000 0 2250
			vertex 4000 2000 2000
		endloop
	endfacet
endsolid exported
