<?xml version="1.0" encoding="utf-8" standalone="no"?>
<!DOCTYPE svg PUBLIC "-//W3C//DTD SVG 1.1//EN" "http://www.w3.org/Graphics/SVG/1.1/DTD/svg11.dtd">
<svg version="1.1" width="419.52pt" height="595.2pt" viewBox="0 0 419.52 595.2" overflow="visible" xmlns="http://www.w3.org/2000/svg">
  <path d="M174.0183,297.2108 L190.1871,281.5804" stroke="#000000" stroke-width="0.24" fill="none" />
  <path d="M157.4913,293.9288 L194.2701,277.8772" stroke="#000000" stroke-width="0.24" fill="none" />
  <path d="M192.2082,292.6939 L192.2082,282.683" stroke="#000000" stroke-width="0.24" fill="none" />
  <path d="M190.1871,281.5804 L190.1871,294.4288" stroke="#000000" stroke-width="0.24" fill="none" />
  <path d="M227.4816,284.9635 L227.859,285.1533 L228.1002,285.4348 L228.181,285.6146 L228.1002,286.2072 L227.859,286.539 L227.3514,286.9524 L227.2092,299.3879" stroke="#000000" stroke-width="0.24" fill="none" />
  <path d="M309.7248,295.9704 L309.7248,308.3911" stroke="#000000" stroke-width="0.24" fill="none" />
  <path d="M309.7248,311.1019 L309.7248,341.7771" stroke="#000000" stroke-width="0.24" fill="none" />
  <path d="M279.5452,362.1121 L310.9336,348.4171" stroke="#000000" stroke-width="0.24" fill="none" />
  <path d="M206.0276,279.1601 L202.798,282.2707" stroke="#000000" stroke-width="0.24" fill="none" />
  <path d="M208.9529,276.3425 L208.3549,275.636" stroke="#000000" stroke-width="0.24" fill="none" />
  <path d="M278.6797,305.0999 L266.4558,290.659" stroke="#000000" stroke-width="0.24" fill="none" />
  <path d="M310.4294,342.6079 L278.6797,305.0999" stroke="#000000" stroke-width="0.24" fill="none" />
  <path d="M277.2884,357.0718 L245.5387,319.5638" stroke="#000000" stroke-width="0.24" fill="none" />
  <path d="M243.1149,321.914 L276.9825,361.9241 L279.2477,364.6" stroke="#000000" stroke-width="0.24" fill="none" />
  <path d="M276.5838,310.4343 L276.5838,322.855" stroke="#000000" stroke-width="0.24" fill="none" />
  <path d="M276.2559,307.4501 L309.6213,346.8669" stroke="#000000" stroke-width="0.24" fill="none" />
  <path d="M240.446,264.1567 L240.3257,263.4373 L240.0877,262.728 L239.9203,262.386 L239.8196,262.2231 L239.2453,261.4267 L238.6204,260.6756" stroke="#000000" stroke-width="0.24" fill="none" />
  <path d="M239.704,260.6872 L241.0468,260.8448 L241.3534,261.0038" stroke="#000000" stroke-width="0.24" fill="none" />
  <path d="M230.019,279.1483 L230.019,264.7885" stroke="#000000" stroke-width="0.24" fill="none" />
  <path d="M229.9672,279.1276 L229.4604,279.2451 L229.0704,279.1404 L228.6951,278.9905 L228.2988,278.8799" stroke="#000000" stroke-width="0.24" fill="none" />
  <path d="M209.0925,287.5341 L191.374,295.2671" stroke="#000000" stroke-width="0.24" fill="none" />
  <path d="M241.1301,318.9867 L207.3078,315.2964" stroke="#000000" stroke-width="0.24" fill="none" />
  <path d="M194.0682,301.4311 L194.0682,313.8518" stroke="#000000" stroke-width="0.24" fill="none" />
  <path d="M191.1886,298.129 L191.6403,298.0568 L191.8633,297.9882" stroke="#000000" stroke-width="0.24" fill="none" />
  <path d="M196.2195,275.2215 L196.422,275.1314 L196.763,275.1196 L196.4242,274.2919" stroke="#000000" stroke-width="0.24" fill="none" />
  <path d="M230.8162,239.09 L230.0198,239.4376" stroke="#000000" stroke-width="0.24" fill="none" />
  <path d="M158.2073,296.2553 L157.9332,295.9722" stroke="#000000" stroke-width="0.24" fill="none" />
  <path d="M157.9332,296.6261 L158.2073,296.2553" stroke="#000000" stroke-width="0.24" fill="none" />
  <path d="M169.7655,296.7464 L157.9332,295.4554" stroke="#000000" stroke-width="0.24" fill="none" />
  <path d="M124.7797,292.2442 L124.7922,292.0147" stroke="#000000" stroke-width="0.24" fill="none" />
  <path d="M154.5648,309.5417 L124.7922,306.2934" stroke="#000000" stroke-width="0.24" fill="none" />
  <path d="M157.9332,312.6199 L169.9296,313.9289" stroke="#000000" stroke-width="0.24" fill="none" />
  <path d="M121.7513,347.5516 L124.0587,345.3293" stroke="#000000" stroke-width="0.24" fill="none" />
  <path d="M190.2029,294.4016 L157.9332,325.4821" stroke="#000000" stroke-width="0.24" fill="none" />
  <path d="M200.9006,284.0982 L192.2094,292.4691" stroke="#000000" stroke-width="0.24" fill="none" />
  <path d="M209.0925,276.2081 L208.5565,276.7244" stroke="#000000" stroke-width="0.24" fill="none" />
  <path d="M226.3105,259.6246 L222.0354,263.7421" stroke="#000000" stroke-width="0.24" fill="none" />
  <path d="M226.397,264.218 L227.5066,263.1494" stroke="#000000" stroke-width="0.24" fill="none" />
  <path d="M212.9172,277.201 L219.6689,270.6982" stroke="#000000" stroke-width="0.24" fill="none" />
  <path d="M207.1592,282.7469 L209.0925,280.8848" stroke="#000000" stroke-width="0.24" fill="none" />
  <path d="M196.4689,293.0433 L205.3943,284.4467" stroke="#000000" stroke-width="0.24" fill="none" />
  <path d="M154.8923,333.0877 L157.4174,330.6557 L191.2565,298.0636" stroke="#000000" stroke-width="0.24" fill="none" />
  <path d="M176.1649,268.4137 L176.1649,243.6593" stroke="#000000" stroke-width="0.24" fill="none" />
  <path d="M174.1439,243.6593 L174.1439,269.5162" stroke="#000000" stroke-width="0.24" fill="none" />
  <path d="M176.1649,282.8393 L176.1649,270.6192" stroke="#000000" stroke-width="0.24" fill="none" />
  <path d="M174.1439,270.3983 L174.1439,283.7748" stroke="#000000" stroke-width="0.24" fill="none" />
  <path d="M195.0704,260.8242 L195.0704,235.4083" stroke="#000000" stroke-width="0.24" fill="none" />
  <path d="M193.0493,235.4083 L193.0493,261.2652" stroke="#000000" stroke-width="0.24" fill="none" />
  <path d="M195.0704,275.261 L195.0704,262.5883" stroke="#000000" stroke-width="0.24" fill="none" />
  <path d="M193.0493,262.1473 L193.0493,275.5238" stroke="#000000" stroke-width="0.24" fill="none" />
  <path d="M227.998,266.4258 L227.998,278.8465" stroke="#000000" stroke-width="0.24" fill="none" />
  <path d="M230.019,264.7885 L230.019,239.2215" stroke="#000000" stroke-width="0.24" fill="none" />
  <path d="M227.998,239.2215 L227.998,264.3927" stroke="#000000" stroke-width="0.24" fill="none" />
  <path d="M211.1136,277.0043 L211.1136,274.432" stroke="#000000" stroke-width="0.24" fill="none" />
  <path d="M211.1136,286.652 L211.1136,279.715" stroke="#000000" stroke-width="0.24" fill="none" />
  <path d="M209.0925,279.4945 L209.0925,287.588" stroke="#000000" stroke-width="0.24" fill="none" />
  <path d="M209.0925,274.2115 L209.0925,276.7838" stroke="#000000" stroke-width="0.24" fill="none" />
  <path d="M209.1992,247.3739 C209.3765,247.2719 210.1328,247.2169 210.555,247.2753 C210.8565,247.3048 211.1252,247.388 211.1136,247.4725" stroke="#000000" stroke-width="0.24" fill="none" />
  <path d="M211.1136,262.5506 L211.1136,247.4725" stroke="#000000" stroke-width="0.24" fill="none" />
  <path d="M211.1136,272.2269 L211.1136,264.5836" stroke="#000000" stroke-width="0.24" fill="none" />
  <path d="M209.0925,264.363 L209.0925,273.3294" stroke="#000000" stroke-width="0.24" fill="none" />
  <path d="M209.0925,247.4725 L209.0925,262.33" stroke="#000000" stroke-width="0.24" fill="none" />
  <path d="M190.2938,255.6249 C190.4711,255.5229 191.2274,255.4679 191.6496,255.5262 C191.9511,255.5558 192.2198,255.639 192.2082,255.7235" stroke="#000000" stroke-width="0.24" fill="none" />
  <path d="M192.2082,261.4118 L192.2082,255.7235" stroke="#000000" stroke-width="0.24" fill="none" />
  <path d="M192.2082,275.8374 L192.2082,263.6173" stroke="#000000" stroke-width="0.24" fill="none" />
  <path d="M192.2082,280.4779 L192.2082,278.7771" stroke="#000000" stroke-width="0.24" fill="none" />
  <path d="M190.1871,279.6592 L190.1871,281.5804" stroke="#000000" stroke-width="0.24" fill="none" />
  <path d="M190.1871,264.4991 L190.1871,276.719" stroke="#000000" stroke-width="0.24" fill="none" />
  <path d="M190.1871,255.7235 L190.1871,262.294" stroke="#000000" stroke-width="0.24" fill="none" />
  <path d="M202.9065,282.2825 L195.0825,281.4288" stroke="#000000" stroke-width="0.24" fill="none" />
  <path d="M192.2082,283.1483 L200.9016,284.0968" stroke="#000000" stroke-width="0.24" fill="none" />
  <path d="M206.3987,276.4898 L209.0925,275.3141" stroke="#000000" stroke-width="0.24" fill="none" />
  <path d="M192.0061,282.7712 L201.4298,278.6584" stroke="#000000" stroke-width="0.24" fill="none" />
  <path d="M197.3882,278.2171 L191.1977,280.9189" stroke="#000000" stroke-width="0.24" fill="none" />
  <path d="M209.094,273.1083 L202.3569,276.0486" stroke="#000000" stroke-width="0.24" fill="none" />
  <path d="M210.9115,274.5202 L227.998,267.0631" stroke="#000000" stroke-width="0.24" fill="none" />
  <path d="M225.1241,266.1122 L210.1031,272.6679" stroke="#000000" stroke-width="0.24" fill="none" />
  <path d="M228.241,264.4192 L195.0716,260.8001" stroke="#000000" stroke-width="0.24" fill="none" />
  <path d="M195.0715,262.8332 L228.0218,266.4283" stroke="#000000" stroke-width="0.24" fill="none" />
  <path d="M193.05,261.0444 L175.1544,268.8547" stroke="#000000" stroke-width="0.24" fill="none" />
  <path d="M175.9628,270.707 L193.0495,263.2498" stroke="#000000" stroke-width="0.24" fill="none" />
  <path d="M194.206,277.8702 L228.5701,281.6197" stroke="#000000" stroke-width="0.24" fill="none" />
  <path d="M228.2989,278.8793 L195.0617,275.2529" stroke="#000000" stroke-width="0.24" fill="none" />
  <path d="M229.8915,281.3952 L230.0969,281.2828 L230.284,281.1511 L230.4474,281.0034 L230.5827,280.844 L230.6873,280.6776 L230.8162,280.1806 L230.7603,279.8603 L230.4474,279.4115 L230.284,279.2876 L230.0969,279.1831" stroke="#000000" stroke-width="0.24" fill="none" />
  <path d="M223.8293,281.1024 L209.927,287.1699" stroke="#000000" stroke-width="0.24" fill="none" />
  <path d="M192.0061,297.9314 L229.5474,281.547 L229.8169,281.4294" stroke="#000000" stroke-width="0.24" fill="none" />
  <path d="M174.1439,283.7208 L156.4134,291.459" stroke="#000000" stroke-width="0.24" fill="none" />
  <path d="M193.0496,275.4697 L174.9784,283.3566" stroke="#000000" stroke-width="0.24" fill="none" />
  <path d="M193.0493,274.2043 L192.2082,275.0144" stroke="#000000" stroke-width="0.24" fill="none" />
  <path d="M160.5383,310.194 L172.2534,298.9106" stroke="#000000" stroke-width="0.24" fill="none" />
  <path d="M124.7922,292.0147 L124.7922,266.3742" stroke="#000000" stroke-width="0.24" fill="none" />
  <path d="M124.7922,306.3745 L124.7922,293.3297" stroke="#000000" stroke-width="0.24" fill="none" />
  <path d="M124.7922,340.4007 L124.7922,308.5551" stroke="#000000" stroke-width="0.24" fill="none" />
  <path d="M121.4238,266.3742 L121.4238,343.9066 L121.4238,347.4125" stroke="#000000" stroke-width="0.24" fill="none" />
  <path d="M158.7659,276.008 L158.7659,270.1545" stroke="#000000" stroke-width="0.24" fill="none" />
  <path d="M158.7659,307.448 L158.7659,297.3346" stroke="#000000" stroke-width="0.24" fill="none" />
  <path d="M188.4033,300.813 L194.121,301.4369" stroke="#000000" stroke-width="0.24" fill="none" />
  <path d="M194.3402,299.4277 L190.2981,298.9867" stroke="#000000" stroke-width="0.24" fill="none" />
  <path d="M124.7933,309.0041 L153.6498,312.1526" stroke="#000000" stroke-width="0.24" fill="none" />
  <path d="M154.5652,328.3399 L123.108,342.0689" stroke="#000000" stroke-width="0.24" fill="none" />
  <path d="M157.9307,326.0173 L157.9029,326.2613 L157.8443,326.5661 L157.756,326.9243 L157.6409,327.3254 L157.503,327.7571 L157.3475,328.2062 L157.0022,329.114 L156.6112,330.0417 L156.396,330.5168 L156.1726,330.9858 L155.9465,331.4354 L155.7239,331.8522 L155.511,332.2243 L155.3132,332.5425 L155.1351,332.8005 L154.9797,332.9955" stroke="#000000" stroke-width="0.24" fill="none" />
  <path d="M157.9332,276.3707 L157.9332,251.9103" stroke="#000000" stroke-width="0.24" fill="none" />
  <path d="M157.9332,325.9368 L157.9332,293.736" stroke="#000000" stroke-width="0.24" fill="none" />
  <path d="M154.5648,330.1778 L154.5648,332.9486" stroke="#000000" stroke-width="0.24" fill="none" />
  <path d="M154.5648,251.9103 L154.5648,328.7076" stroke="#000000" stroke-width="0.24" fill="none" />
  <path d="M194.3926,313.8872 L176.8185,311.9697" stroke="#000000" stroke-width="0.24" fill="none" />
  <path d="M196.763,275.4385 L196.763,274.2636" stroke="#000000" stroke-width="0.24" fill="none" />
  <path d="M191.1523,298.1646 L228.4104,302.2297 L229.5796,302.3573" stroke="#000000" stroke-width="0.24" fill="none" />
  <path d="M227.5336,299.4233 L196.3768,296.0238" stroke="#000000" stroke-width="0.24" fill="none" />
  <path d="M229.9039,302.0664 L229.9039,300.8903 L229.9039,281.3892" stroke="#000000" stroke-width="0.24" fill="none" />
  <path d="M227.2092,267.4073 L227.2092,278.7604" stroke="#000000" stroke-width="0.24" fill="none" />
  <path d="M209.093,282.9575 L207.1599,282.7466" stroke="#000000" stroke-width="0.24" fill="none" />
  <path d="M217.4831,283.8729 L211.1152,283.1782" stroke="#000000" stroke-width="0.24" fill="none" />
  <path d="M227.4816,284.9639 L222.8728,284.461" stroke="#000000" stroke-width="0.24" fill="none" />
  <path d="M219.1444,286.0872 L227.2623,286.973" stroke="#000000" stroke-width="0.24" fill="none" />
  <path d="M211.1152,285.2112 L213.7556,285.4993" stroke="#000000" stroke-width="0.24" fill="none" />
  <path d="M205.2642,284.5728 L209.0929,284.9905" stroke="#000000" stroke-width="0.24" fill="none" />
  <path d="M174.144,269.2957 L156.5704,276.9655" stroke="#000000" stroke-width="0.24" fill="none" />
  <path d="M157.3788,278.8178 L174.1439,271.5009" stroke="#000000" stroke-width="0.24" fill="none" />
  <path d="M230.8162,259.6353 L230.8162,253.0608" stroke="#000000" stroke-width="0.24" fill="none" />
  <path d="M209.0926,248.571 L195.0706,254.6907" stroke="#000000" stroke-width="0.24" fill="none" />
  <path d="M211.1148,257.4857 L227.9983,259.3279" stroke="#000000" stroke-width="0.24" fill="none" />
  <path d="M169.4428,271.3476 L157.9346,270.0919" stroke="#000000" stroke-width="0.24" fill="none" />
  <path d="M204.3924,275.1609 L195.0708,274.1438" stroke="#000000" stroke-width="0.24" fill="none" />
  <path d="M253.456,280.5142 L240.449,279.095" stroke="#000000" stroke-width="0.24" fill="none" />
  <path d="M277.7735,283.0263 L309.1494,269.3327" stroke="#000000" stroke-width="0.24" fill="none" />
  <path d="M193.0493,254.4223 L188.9381,256.2166" stroke="#000000" stroke-width="0.24" fill="none" />
  <path d="M226.7489,239.7146 L195.0707,253.5401" stroke="#000000" stroke-width="0.24" fill="none" />
  <path d="M225.9933,259.9309 L211.1153,258.3076" stroke="#000000" stroke-width="0.24" fill="none" />
  <path d="M237.7556,261.2143 L230.0192,260.3702" stroke="#000000" stroke-width="0.24" fill="none" />
  <path d="M310.4732,342.661 L310.671,342.9297 L310.8839,343.2641 L311.1064,343.6562 L311.3326,344.0946 L311.556,344.5657 L311.7712,345.0552 L312.1622,346.0433 L312.5075,347.0513 L312.663,347.5669 L312.8008,348.0753 L312.916,348.5621 L313.0043,349.0129 L313.0629,349.4147 L313.0907,349.7574" stroke="#000000" stroke-width="0.24" fill="none" />
  <path d="M310.6257,348.0535 L312.3886,350.1361" stroke="#000000" stroke-width="0.24" fill="none" />
  <path d="M240.4488,265.1487 L260.2492,288.5403" stroke="#000000" stroke-width="0.24" fill="none" />
  <path d="M265.3026,289.2967 L241.3534,261.0038" stroke="#000000" stroke-width="0.24" fill="none" />
  <path d="M277.3323,357.125 L277.53,357.3936 L277.7429,357.728 L277.9655,358.1201 L278.1916,358.5585 L278.3801,358.9535" stroke="#000000" stroke-width="0.24" fill="none" />
  <path d="M226.2536,301.9946 L227.1082,303.0041" stroke="#000000" stroke-width="0.24" fill="none" />
  <path d="M232.1617,303.7606 L229.9039,301.0934" stroke="#000000" stroke-width="0.24" fill="none" />
  <path d="M243.4061,317.0444 L233.3149,305.1229" stroke="#000000" stroke-width="0.24" fill="none" />
  <path d="M245.5387,319.5638 L244.5394,318.3832" stroke="#000000" stroke-width="0.24" fill="none" />
  <path d="M313.0932,349.873 L313.0932,346.372 L313.0932,268.8396" stroke="#000000" stroke-width="0.24" fill="none" />
  <path d="M309.7248,268.8396 L309.7248,293.9373" stroke="#000000" stroke-width="0.24" fill="none" />
  <path d="M277.7722,290.4752 L277.7722,265.0593" stroke="#000000" stroke-width="0.24" fill="none" />
  <path d="M275.7511,265.0593 L275.7511,290.2305" stroke="#000000" stroke-width="0.24" fill="none" />
  <path d="M277.7722,304.0277 L277.7722,292.2393" stroke="#000000" stroke-width="0.24" fill="none" />
  <path d="M267.008,291.3096 L275.7751,292.2662" stroke="#000000" stroke-width="0.24" fill="none" />
  <path d="M275.9944,290.257 L265.1109,289.0695" stroke="#000000" stroke-width="0.24" fill="none" />
  <path d="M277.7722,292.4841 L309.8091,295.9796" stroke="#000000" stroke-width="0.24" fill="none" />
  <path d="M310.0283,293.9705 L277.7737,290.4512" stroke="#000000" stroke-width="0.24" fill="none" />
  <path d="M310.0774,308.4296 L278.5901,304.994" stroke="#000000" stroke-width="0.24" fill="none" />
  <path d="M281.1185,307.9807 L309.7851,311.1084" stroke="#000000" stroke-width="0.24" fill="none" />
  <path d="M279.9522,290.6893 L279.9522,283.3035" stroke="#000000" stroke-width="0.24" fill="none" />
  <path d="M276.5838,325.4845 L276.5838,356.2394" stroke="#000000" stroke-width="0.24" fill="none" />
  <path d="M244.6312,286.8351 L244.6312,279.5232" stroke="#000000" stroke-width="0.24" fill="none" />
  <path d="M244.6312,304.9391 L244.6312,303.9996" stroke="#000000" stroke-width="0.24" fill="none" />
  <path d="M242.6101,279.5232 L242.6101,286.6145" stroke="#000000" stroke-width="0.24" fill="none" />
  <path d="M242.8534,304.7209 L231.9698,303.5334" stroke="#000000" stroke-width="0.24" fill="none" />
  <path d="M233.8654,305.7733 L242.6342,306.7301" stroke="#000000" stroke-width="0.24" fill="none" />
  <path d="M227.5763,303.0541 L207.3083,300.8427" stroke="#000000" stroke-width="0.24" fill="none" />
  <path d="M207.3078,302.8757 L229.1427,305.2581" stroke="#000000" stroke-width="0.24" fill="none" />
  <path d="M276.9364,322.8935 L245.4497,319.458" stroke="#000000" stroke-width="0.24" fill="none" />
  <path d="M247.9774,322.4445 L276.6442,325.5724" stroke="#000000" stroke-width="0.24" fill="none" />
  <path d="M308.6622,345.7332 L278.3069,358.9814" stroke="#000000" stroke-width="0.24" fill="none" />
  <path d="M204.6452,317.7166 L205.8143,317.8442 L243.2174,321.9252" stroke="#000000" stroke-width="0.24" fill="none" />
  <path d="M207.3078,300.9204 L207.3078,299.9272" stroke="#000000" stroke-width="0.24" fill="none" />
  <path d="M207.3078,315.3287 L207.3078,302.5038" stroke="#000000" stroke-width="0.24" fill="none" />
  <path d="M276.8873,308.4344 L244.6312,304.9149" stroke="#000000" stroke-width="0.24" fill="none" />
  <path d="M244.6325,306.9481 L276.6681,310.4435" stroke="#000000" stroke-width="0.24" fill="none" />
  <path d="M274.2711,304.5228 L240.4493,300.8326" stroke="#000000" stroke-width="0.24" fill="none" />
  <path d="M237.7861,303.2527 L238.9553,303.3803 L276.3583,307.4613" stroke="#000000" stroke-width="0.24" fill="none" />
  <path d="M240.4488,286.4565 L240.4488,264.2579" stroke="#000000" stroke-width="0.24" fill="none" />
  <path d="M240.4488,300.8648 L240.4488,288.0399" stroke="#000000" stroke-width="0.24" fill="none" />
  <path d="M237.7541,260.9502 L237.7541,302.0409 L237.7541,303.2169" stroke="#000000" stroke-width="0.24" fill="none" />
  <path d="M240.4494,288.4118 L262.2837,290.7942" stroke="#000000" stroke-width="0.24" fill="none" />
  <path d="M260.7173,288.5902 L240.4494,286.3788" stroke="#000000" stroke-width="0.24" fill="none" />
  <path d="M279.5452,362.1121 L279.6599,362.5393 L279.775,363.0261 L279.8633,363.4768 L279.922,363.8786 L279.9497,364.2213" stroke="#000000" stroke-width="0.24" fill="none" />
  <path d="M124.794,293.8727 L154.5648,297.1209" stroke="#000000" stroke-width="0.24" fill="none" />
  <path d="M174.1439,272.3536 L172.5815,272.1831" stroke="#000000" stroke-width="0.24" fill="none" />
  <path d="M121.4238,266.6013 L120.8484,266.5386" stroke="#000000" stroke-width="0.24" fill="none" />
  <path d="M227.2092,277.6504 L213.9525,276.204" stroke="#000000" stroke-width="0.24" fill="none" />
  <path d="M209.0942,275.6739 L208.4352,275.602" stroke="#000000" stroke-width="0.24" fill="none" />
  <path d="M193.0503,273.9233 L192.209,273.8315" stroke="#000000" stroke-width="0.24" fill="none" />
  <path d="M190.1885,273.6111 L176.1651,272.081" stroke="#000000" stroke-width="0.24" fill="none" />
  <path d="M174.1446,271.8606 L173.4855,271.7887" stroke="#000000" stroke-width="0.24" fill="none" />
  <path d="M154.5653,269.7243 L125.3677,266.5386" stroke="#000000" stroke-width="0.24" fill="none" />
  <path d="M225.6872,260.2263 L211.1147,258.6363" stroke="#000000" stroke-width="0.24" fill="none" />
  <path d="M209.0942,258.4158 L195.0708,256.8857" stroke="#000000" stroke-width="0.24" fill="none" />
  <path d="M193.0493,256.6652 L192.209,256.5735" stroke="#000000" stroke-width="0.24" fill="none" />
  <path d="M190.1885,256.353 L188.9381,256.2166" stroke="#000000" stroke-width="0.24" fill="none" />
  <path d="M209.093,258.0869 L195.0704,256.5569" stroke="#000000" stroke-width="0.24" fill="none" />
  <path d="M193.0493,256.3365 L192.2095,256.2448" stroke="#000000" stroke-width="0.24" fill="none" />
  <path d="M190.1873,256.0242 L189.5409,255.9536" stroke="#000000" stroke-width="0.24" fill="none" />
  <path d="M227.2102,297.911 L217.7261,286.7069" stroke="#000000" stroke-width="0.24" fill="none" />
  <path d="M215.1086,283.6147 L211.8784,279.7986" stroke="#000000" stroke-width="0.24" fill="none" />
  <path d="M207.3078,297.2165 L207.3078,291.2532" stroke="#000000" stroke-width="0.24" fill="none" />
  <path d="M207.3078,288.313 L207.3078,284.7958" stroke="#000000" stroke-width="0.24" fill="none" />
  <path d="M204.6131,279.0057 L204.6131,280.5236" stroke="#000000" stroke-width="0.24" fill="none" />
  <path d="M204.6131,285.1992 L204.6131,289.489" stroke="#000000" stroke-width="0.24" fill="none" />
  <path d="M204.6131,292.4293 L204.6131,296.9225" stroke="#000000" stroke-width="0.24" fill="none" />
  <path d="M204.6131,299.6332 L204.6131,316.5048 L204.6131,317.6808" stroke="#000000" stroke-width="0.24" fill="none" />
  <path d="M195.0711,236.2583 L226.7489,239.7146" stroke="#000000" stroke-width="0.24" fill="none" />
  <path d="M157.9332,252.3258 L174.1458,245.25" stroke="#000000" stroke-width="0.24" fill="none" />
  <path d="M176.1651,244.3688 L193.0494,236.9998" stroke="#000000" stroke-width="0.24" fill="none" />
  <path d="M195.0716,235.9296 L226.7489,239.3859" stroke="#000000" stroke-width="0.24" fill="none" />
  <path d="M157.9332,251.9971 L174.1441,244.9221" stroke="#000000" stroke-width="0.24" fill="none" />
  <path d="M176.165,244.0401 L193.0501,236.6708" stroke="#000000" stroke-width="0.24" fill="none" />
  <path d="M208.7027,281.2605 L209.0936,281.7223" stroke="#000000" stroke-width="0.24" fill="none" />
  <path d="M212.1427,285.3244 L212.6861,285.9663" stroke="#000000" stroke-width="0.24" fill="none" />
  <path d="M214.5033,288.1132 L223.7258,299.0083" stroke="#000000" stroke-width="0.24" fill="none" />
  <path d="M213.4942,276.647 L227.2108,278.1436" stroke="#000000" stroke-width="0.24" fill="none" />
  <path d="M230.0196,278.4501 L237.7541,279.294" stroke="#000000" stroke-width="0.24" fill="none" />
  <path d="M191.2976,297.9658 L191.1945,297.7056 L190.964,297.2424 L190.7657,296.5946 L190.7409,296.356 L190.8051,295.8757 L190.9047,295.6655" stroke="#000000" stroke-width="0.24" fill="none" />
  <path d="M195.0164,275.3159 L194.8296,275.4044 L193.7464,275.1773" stroke="#000000" stroke-width="0.24" fill="none" />
  <path d="M192.2074,292.6939 L192.1197,293.0372 L191.9346,293.3907 L191.8063,293.5691 L191.3312,293.9808 L190.9398,294.1515 L190.5623,294.2603 L190.2938,294.348" stroke="#000000" stroke-width="0.24" fill="none" />
  <path d="M192.0061,282.7712 L191.6496,282.8104 L191.1893,282.6794 L190.7875,282.4471 L190.2938,281.9229" stroke="#000000" stroke-width="0.24" fill="none" />
  <path d="M210.9115,274.5202 L210.555,274.5594 L210.0948,274.4284 L209.6929,274.196 L209.1992,273.6719" stroke="#000000" stroke-width="0.24" fill="none" />
  <path d="M228.241,264.4189 L228.7825,264.6775 L229.4604,265.3223" stroke="#000000" stroke-width="0.24" fill="none" />
  <path d="M175.9628,270.707 L175.6063,270.7462 L175.1461,270.6152 L174.7442,270.3828 L174.2506,269.8587" stroke="#000000" stroke-width="0.24" fill="none" />
  <path d="M209.7774,287.2424 L209.4484,287.4435" stroke="#000000" stroke-width="0.24" fill="none" />
  <path d="M174.8288,283.4292 L174.4997,283.6303" stroke="#000000" stroke-width="0.24" fill="none" />
  <path d="M158.2468,312.3733 L158.4416,311.9755 L158.6641,311.4734 L158.8138,311.2427" stroke="#000000" stroke-width="0.24" fill="none" />
  <path d="M159.2474,310.8365 L159.5085,310.6698 L160.0072,310.4136 L160.4208,310.236" stroke="#000000" stroke-width="0.24" fill="none" />
  <path d="M153.6497,312.152 L124.7922,339.9461" stroke="#000000" stroke-width="0.24" fill="none" />
  <path d="M154.5648,311.7647 L154.3784,311.8432 L153.7186,312.1196" stroke="#000000" stroke-width="0.24" fill="none" />
  <path d="M157.3337,278.8353 L157.0022,278.8657 L156.629,278.7584 L156.2903,278.5368 L156.0438,278.2267 L155.9739,278.0476 L156.0438,277.4603 L156.2903,277.145 L156.5704,276.9655" stroke="#000000" stroke-width="0.24" fill="none" />
  <path d="M121.6016,266.2098 L154.7426,251.7459" stroke="#000000" stroke-width="0.24" fill="none" />
  <path d="M209.1992,273.6719 L209.6929,272.9419 L210.0948,272.6716" stroke="#000000" stroke-width="0.24" fill="none" />
  <path d="M190.2938,281.9229 L190.7875,281.1929 L191.1893,280.9226" stroke="#000000" stroke-width="0.24" fill="none" />
  <path d="M229.4604,265.3223 L228.7825,265.9317 L228.1046,266.407" stroke="#000000" stroke-width="0.24" fill="none" />
  <path d="M174.2506,269.8587 L174.7442,269.1287 L175.1461,268.8584" stroke="#000000" stroke-width="0.24" fill="none" />
  <path d="M193.7342,275.1782 L193.156,275.5306" stroke="#000000" stroke-width="0.24" fill="none" />
  <path d="M194.0598,277.8138 L193.9123,277.6772" stroke="#000000" stroke-width="0.24" fill="none" />
  <path d="M193.4759,276.441 L193.4573,276.1044 L193.4759,275.7922" stroke="#000000" stroke-width="0.24" fill="none" />
  <path d="M229.0085,281.627 L229.4511,281.5548 L229.6741,281.4862" stroke="#000000" stroke-width="0.24" fill="none" />
  <path d="M121.6016,343.7422 L122.4244,344.6159 L123.2201,345.0556" stroke="#000000" stroke-width="0.24" fill="none" />
  <path d="M193.156,234.981 L230.8162,239.09" stroke="#000000" stroke-width="0.24" fill="none" />
  <path d="M220.1394,265.5683 L214.9764,270.541" stroke="#000000" stroke-width="0.24" fill="none" />
  <path d="M223.8555,266.6659 L224.501,266.0442" stroke="#000000" stroke-width="0.24" fill="none" />
  <path d="M185.0645,281.8949 L169.657,296.7346" stroke="#000000" stroke-width="0.24" fill="none" />
  <path d="M131.0364,338.6087 L154.5648,315.9474" stroke="#000000" stroke-width="0.24" fill="none" />
  <path d="M158.7659,290.4324 L158.7659,278.2124" stroke="#000000" stroke-width="0.24" fill="none" />
  <path d="M158.7673,297.5795 L167.7606,298.5607" stroke="#000000" stroke-width="0.24" fill="none" />
  <path d="M172.1231,299.0367 L184.0414,300.3371" stroke="#000000" stroke-width="0.24" fill="none" />
  <path d="M185.9365,298.5108 L174.0189,297.2105" stroke="#000000" stroke-width="0.24" fill="none" />
  <path d="M157.9332,290.7957 L157.9332,278.5769" stroke="#000000" stroke-width="0.24" fill="none" />
  <path d="M174.2914,314.4048 L195.2695,316.6936 L196.4386,316.8212" stroke="#000000" stroke-width="0.24" fill="none" />
  <path d="M172.4567,311.4938 L160.5383,310.1934" stroke="#000000" stroke-width="0.24" fill="none" />
  <path d="M196.763,296.066 L196.763,295.8563" stroke="#000000" stroke-width="0.24" fill="none" />
  <path d="M196.763,288.0833 L196.763,283.6452" stroke="#000000" stroke-width="0.24" fill="none" />
  <path d="M196.763,281.6122 L196.763,280.6952" stroke="#000000" stroke-width="0.24" fill="none" />
  <path d="M196.763,278.49 L196.763,278.1492" stroke="#000000" stroke-width="0.24" fill="none" />
  <path d="M194.0682,283.3525 L194.0682,290.6787" stroke="#000000" stroke-width="0.24" fill="none" />
  <path d="M194.0682,298.4827 L194.0682,299.398" stroke="#000000" stroke-width="0.24" fill="none" />
  <path d="M154.5663,295.088 L124.7922,291.8394" stroke="#000000" stroke-width="0.24" fill="none" />
  <path d="M227.2092,263.4364 L227.2092,264.3066" stroke="#000000" stroke-width="0.24" fill="none" />
  <path d="M227.2092,282.5675 L227.2092,284.9341" stroke="#000000" stroke-width="0.24" fill="none" />
  <path d="M230.0206,259.5485 L230.8162,259.6353" stroke="#000000" stroke-width="0.24" fill="none" />
  <path d="M192.8522,274.3948 L192.2082,274.3246" stroke="#000000" stroke-width="0.24" fill="none" />
  <path d="M190.1877,274.1041 L176.166,272.5742" stroke="#000000" stroke-width="0.24" fill="none" />
  <path d="M168.5388,271.742 L158.766,270.6757" stroke="#000000" stroke-width="0.24" fill="none" />
  <path d="M154.5648,270.2173 L124.7941,266.9691" stroke="#000000" stroke-width="0.24" fill="none" />
  <path d="M205.209,250.2669 L209.0927,250.6906" stroke="#000000" stroke-width="0.24" fill="none" />
  <path d="M211.115,250.9113 L227.9985,252.7534" stroke="#000000" stroke-width="0.24" fill="none" />
  <path d="M230.0208,252.974 L230.8162,253.0608" stroke="#000000" stroke-width="0.24" fill="none" />
  <path d="M227.9981,240.32 L211.1138,247.6889" stroke="#000000" stroke-width="0.24" fill="none" />
  <path d="M195.0704,255.7352 L209.0944,257.2653" stroke="#000000" stroke-width="0.24" fill="none" />
  <path d="M227.5066,263.1494 L227.819,262.779 L227.998,262.5292" stroke="#000000" stroke-width="0.24" fill="none" />
  <path d="M205.4641,284.3716 L205.684,284.064 L205.9314,283.713 L206.0627,283.5562 L206.548,283.1249 L206.8635,282.9174 L207.1599,282.7475" stroke="#000000" stroke-width="0.24" fill="none" />
  <path d="M154.8923,333.0877 L154.7426,333.198" stroke="#000000" stroke-width="0.24" fill="none" />
  <path d="M174.1438,269.5162 L174.2506,269.8587" stroke="#000000" stroke-width="0.24" fill="none" />
  <path d="M174.2506,243.5607 C174.4279,243.4587 175.1841,243.4037 175.6063,243.462 C175.9078,243.4916 176.1766,243.5748 176.1649,243.6593" stroke="#000000" stroke-width="0.24" fill="none" />
  <path d="M193.0493,261.2652 L193.156,261.6077" stroke="#000000" stroke-width="0.24" fill="none" />
  <path d="M193.156,235.3096 C193.3333,235.2077 194.0896,235.1527 194.5118,235.211 C194.8132,235.2406 195.082,235.3238 195.0704,235.4083" stroke="#000000" stroke-width="0.24" fill="none" />
  <path d="M195.0704,262.5883 L194.9834,262.2439 L194.5118,261.509" stroke="#000000" stroke-width="0.24" fill="none" />
  <path d="M228.1046,239.1229 C228.2819,239.0209 229.0382,238.9659 229.4604,239.0242 C229.7619,239.0538 230.0307,239.137 230.019,239.2215" stroke="#000000" stroke-width="0.24" fill="none" />
  <path d="M209.0925,273.3294 L209.1992,273.6719" stroke="#000000" stroke-width="0.24" fill="none" />
  <path d="M202.9744,282.3073 L203.059,282.482 L202.9859,282.7569" stroke="#000000" stroke-width="0.24" fill="none" />
  <path d="M202.5722,283.1998 L202.362,283.3482 L201.8994,283.6198 L200.9619,284.073" stroke="#000000" stroke-width="0.24" fill="none" />
  <path d="M228.5701,281.6197 L229.0085,281.627" stroke="#000000" stroke-width="0.24" fill="none" />
  <path d="M157.4439,293.9474 L157.0022,293.9871" stroke="#000000" stroke-width="0.24" fill="none" />
  <path d="M172.3232,298.8354 L172.543,298.5279 L172.7904,298.1769 L172.9241,298.0175" stroke="#000000" stroke-width="0.24" fill="none" />
  <path d="M121.7513,347.5516 L121.6016,347.662" stroke="#000000" stroke-width="0.24" fill="none" />
  <path d="M167.7613,298.5604 L158.7659,307.2243" stroke="#000000" stroke-width="0.24" fill="none" />
  <path d="M124.7922,293.3297 L124.7797,293.0106 L124.7694,292.8091" stroke="#000000" stroke-width="0.24" fill="none" />
  <path d="M124.7922,308.5551 L124.7748,308.3332 L124.6824,307.8502 L124.6348,307.5794" stroke="#000000" stroke-width="0.24" fill="none" />
  <path d="M124.6348,307.0399 L124.6824,306.8182 L124.7748,306.491" stroke="#000000" stroke-width="0.24" fill="none" />
  <path d="M124.7898,340.4812 L124.762,340.7252 L124.7033,341.03 L124.615,341.3882" stroke="#000000" stroke-width="0.24" fill="none" />
  <path d="M121.4238,266.3742 L121.6016,266.2098" stroke="#000000" stroke-width="0.24" fill="none" />
  <path d="M158.7659,297.3291 L158.6789,296.9901 L158.2073,296.2553" stroke="#000000" stroke-width="0.24" fill="none" />
  <path d="M158.7652,307.448 L158.6775,307.7913 L158.4923,308.1448 L158.3641,308.3232" stroke="#000000" stroke-width="0.24" fill="none" />
  <path d="M169.8334,296.7712 L169.918,296.9459 L169.845,297.2208" stroke="#000000" stroke-width="0.24" fill="none" />
  <path d="M194.4439,299.4524 L194.718,299.6172 L194.9593,299.8987 L195.0383,300.0731" stroke="#000000" stroke-width="0.24" fill="none" />
  <path d="M123.108,342.0689 L122.4244,342.5255 L121.6016,343.7422" stroke="#000000" stroke-width="0.24" fill="none" />
  <path d="M124.0137,345.349 L154.5648,332.0154" stroke="#000000" stroke-width="0.24" fill="none" />
  <path d="M154.5647,330.1778 L154.7426,329.2783" stroke="#000000" stroke-width="0.24" fill="none" />
  <path d="M154.5648,251.9103 L154.7426,251.7459" stroke="#000000" stroke-width="0.24" fill="none" />
  <path d="M196.6929,316.1885 L196.6223,316.0151 L196.5301,315.8313 L196.4196,315.6423 L196.2949,315.4534 L196.0182,315.0912 L195.7047,314.7451 L195.5321,314.5771 L195.3527,314.4182 L195.1711,314.2734 L194.9922,314.1473 L194.8211,314.0437" stroke="#000000" stroke-width="0.24" fill="none" />
  <path d="M196.763,316.5303 L196.763,315.3542 L196.763,298.7767" stroke="#000000" stroke-width="0.24" fill="none" />
  <path d="M229.8339,301.7246 L229.7633,301.5512 L229.671,301.3674 L229.5605,301.1784 L229.4359,300.9895 L229.1591,300.6273 L228.8457,300.2812 L228.673,300.1132 L228.4937,299.9543 L228.3121,299.8095 L228.1332,299.6834 L227.9621,299.5798" stroke="#000000" stroke-width="0.24" fill="none" />
  <path d="M121.6016,266.2098 C121.8971,266.0399 123.1576,265.9482 123.8612,266.0454 C124.3637,266.0948 124.8116,266.2334 124.7922,266.3742" stroke="#000000" stroke-width="0.24" fill="none" />
  <path d="M154.7426,251.7459 C155.0381,251.576 156.2985,251.4843 157.0022,251.5815 C157.5047,251.6309 157.9526,251.7695 157.9332,251.9103" stroke="#000000" stroke-width="0.24" fill="none" />
  <path d="M154.7426,251.7459 L193.156,234.981" stroke="#000000" stroke-width="0.24" fill="none" />
  <path d="M226.4074,259.5652 L227.7759,259.3968 L227.9998,259.3961" stroke="#000000" stroke-width="0.24" fill="none" />
  <path d="M209.1992,273.6719 L209.0925,274.2115" stroke="#000000" stroke-width="0.24" fill="none" />
  <path d="M194.5118,261.509 L194.9834,260.9897 L195.0704,260.8242" stroke="#000000" stroke-width="0.24" fill="none" />
  <path d="M174.2506,269.8587 L174.1438,270.3983" stroke="#000000" stroke-width="0.24" fill="none" />
  <path d="M193.156,261.6077 L193.0493,262.1473" stroke="#000000" stroke-width="0.24" fill="none" />
  <path d="M157.0022,293.9871 L156.4815,293.8424 L156.0074,293.5583 L155.6506,293.1734 L155.538,292.9375" stroke="#000000" stroke-width="0.24" fill="none" />
  <path d="M155.538,292.398 L155.6506,292.1414 L156.0074,291.7161 L156.4134,291.459" stroke="#000000" stroke-width="0.24" fill="none" />
  <path d="M169.4327,297.6626 L169.221,297.8121 L168.7584,298.0837 L167.8209,298.5369" stroke="#000000" stroke-width="0.24" fill="none" />
  <path d="M173.2358,297.7206 L173.407,297.5888 L173.7226,297.3814 L174.0189,297.2114" stroke="#000000" stroke-width="0.24" fill="none" />
  <path d="M195.04,300.48 L194.9593,300.6711 L194.718,301.0029 L194.4439,301.2634 L194.2105,301.4163" stroke="#000000" stroke-width="0.24" fill="none" />
  <path d="M158.2073,296.2553 L158.6789,295.7359" stroke="#000000" stroke-width="0.24" fill="none" />
  <path d="M154.7426,329.2783 L154.5647,328.7076" stroke="#000000" stroke-width="0.24" fill="none" />
  <path d="M123.2201,345.0556 L123.0316,345.4497 L122.8055,345.8993 L122.5829,346.3161 L122.37,346.6882 L122.1723,347.0064 L121.9942,347.2644 L121.8387,347.4594" stroke="#000000" stroke-width="0.24" fill="none" />
  <path d="M123.636,345.3198 L123.9734,345.3631" stroke="#000000" stroke-width="0.24" fill="none" />
  <path d="M123.2201,345.0556 L123.636,345.3198" stroke="#000000" stroke-width="0.24" fill="none" />
  <path d="M120.8484,259.9641 L193.156,228.4064" stroke="#000000" stroke-width="0.24" fill="none" />
  <path d="M230.8162,232.5155 L230.8162,239.09" stroke="#000000" stroke-width="0.24" fill="none" />
  <path d="M193.156,228.4064 L230.8162,232.5155" stroke="#000000" stroke-width="0.24" fill="none" />
  <path d="M193.156,234.981 L193.156,228.4064" stroke="#000000" stroke-width="0.24" fill="none" />
  <path d="M120.8484,259.9641 L120.8484,266.5386 L121.6016,266.2098" stroke="#000000" stroke-width="0.24" fill="none" />
  <path d="M230.8162,259.6353 L230.0197,259.983" stroke="#000000" stroke-width="0.24" fill="none" />
  <path d="M237.7551,278.801 L230.0204,277.9571" stroke="#000000" stroke-width="0.24" fill="none" />
  <path d="M237.7551,261.543 L230.0205,260.699" stroke="#000000" stroke-width="0.24" fill="none" />
  <path d="M244.6312,318.4916 L244.6312,306.7032" stroke="#000000" stroke-width="0.24" fill="none" />
  <path d="M275.7511,265.6887 L242.224,262.0306" stroke="#000000" stroke-width="0.24" fill="none" />
  <path d="M275.7511,282.9467 L258.3189,281.0447" stroke="#000000" stroke-width="0.24" fill="none" />
  <path d="M275.7516,265.36 L241.9173,261.6684" stroke="#000000" stroke-width="0.24" fill="none" />
  <path d="M242.9199,279.3643 L242.7168,279.4246" stroke="#000000" stroke-width="0.24" fill="none" />
  <path d="M203.7009,275.0854 L203.7009,275.4621" stroke="#000000" stroke-width="0.24" fill="none" />
  <path d="M309.1494,269.3327 L277.7722,265.9092" stroke="#000000" stroke-width="0.24" fill="none" />
  <path d="M125.3677,266.5386 L154.5648,253.7959" stroke="#000000" stroke-width="0.24" fill="none" />
  <path d="M309.1494,269.3327 L309.1494,269.004" stroke="#000000" stroke-width="0.24" fill="none" />
  <path d="M226.7489,239.7146 L226.7489,239.3859" stroke="#000000" stroke-width="0.24" fill="none" />
  <path d="M125.3677,266.2098 L125.3677,266.5386" stroke="#000000" stroke-width="0.24" fill="none" />
  <path d="M309.1494,269.004 L277.7722,265.5805" stroke="#000000" stroke-width="0.24" fill="none" />
  <path d="M125.3677,266.2098 L154.5648,253.4672" stroke="#000000" stroke-width="0.24" fill="none" />
  <path d="M279.9522,283.3035 C279.9716,283.1627 279.5237,283.0241 279.0212,282.9748 L277.9667,282.9419" stroke="#000000" stroke-width="0.24" fill="none" />
  <path d="M312.1622,268.5109 L239.8547,260.6215" stroke="#000000" stroke-width="0.24" fill="none" />
  <path d="M277.2135,291.1601 L276.5357,290.5153 L276.162,290.3014" stroke="#000000" stroke-width="0.24" fill="none" />
  <path d="M275.8578,292.2448 L276.162,292.0582 L276.5357,291.7694 L277.2135,291.1601" stroke="#000000" stroke-width="0.24" fill="none" />
  <path d="M276.5001,307.4363 L276.7512,307.2233 L276.9574,306.8268 L276.9889,306.3038 L276.8933,306.0464 L276.4552,305.5466 L276.138,305.3152 L275.4517,304.9298 L274.7074,304.6258 L274.2711,304.5228" stroke="#000000" stroke-width="0.24" fill="none" />
  <path d="M242.7168,306.7087 L243.021,306.5221 L243.3947,306.2334 L244.0726,305.624 L243.3947,304.9792 L243.021,304.7653" stroke="#000000" stroke-width="0.24" fill="none" />
  <path d="M278.796,362.2491 L277.9535,362.1637 L277.2122,361.893 L277.1685,361.221 L277.2988,360.4371 L277.5516,359.7935 L277.9468,359.2379 L278.3068,358.9812" stroke="#000000" stroke-width="0.24" fill="none" />
  <path d="M238.3483,260.4572 L236.8418,261.1146" stroke="#000000" stroke-width="0.24" fill="none" />
  <path d="M262.1447,290.7796 L273.7279,304.4636" stroke="#000000" stroke-width="0.24" fill="none" />
  <path d="M229.0037,305.2434 L240.5869,318.9274" stroke="#000000" stroke-width="0.24" fill="none" />
  <path d="M275.7511,292.2641 L275.7511,301.6401" stroke="#000000" stroke-width="0.24" fill="none" />
  <path d="M279.9522,358.2632 L279.9522,311.8168" stroke="#000000" stroke-width="0.24" fill="none" />
  <path d="M279.9522,305.1429 L279.9522,292.7223" stroke="#000000" stroke-width="0.24" fill="none" />
  <path d="M279.9522,364.3367 L279.9522,361.9394" stroke="#000000" stroke-width="0.24" fill="none" />
  <path d="M276.5838,307.8375 L276.5838,308.4012" stroke="#000000" stroke-width="0.24" fill="none" />
  <path d="M244.6312,301.2888 L244.6312,288.8681" stroke="#000000" stroke-width="0.24" fill="none" />
  <path d="M242.6101,288.6476 L242.6101,301.0683" stroke="#000000" stroke-width="0.24" fill="none" />
  <path d="M242.6101,303.7808 L242.6101,304.6948" stroke="#000000" stroke-width="0.24" fill="none" />
  <path d="M242.6101,306.7274 L242.6101,316.1053" stroke="#000000" stroke-width="0.24" fill="none" />
  <path d="M279.9523,283.3903 L309.7248,270.3965" stroke="#000000" stroke-width="0.24" fill="none" />
  <path d="M313.0932,268.9264 L313.6686,268.6753" stroke="#000000" stroke-width="0.24" fill="none" />
  <path d="M208.7748,276.1321 L209.0934,276.1669" stroke="#000000" stroke-width="0.24" fill="none" />
  <path d="M240.4499,279.5882 L242.6103,279.8239" stroke="#000000" stroke-width="0.24" fill="none" />
  <path d="M244.6326,280.0445 L253.915,281.0573" stroke="#000000" stroke-width="0.24" fill="none" />
  <path d="M258.7773,281.5878 L275.7518,283.4399" stroke="#000000" stroke-width="0.24" fill="none" />
  <path d="M309.7478,347.0022 L310.3531,347.4291" stroke="#000000" stroke-width="0.24" fill="none" />
  <path d="M265.3026,289.2967 L265.5278,289.5807 L265.6592,289.7463 L266.1444,290.3074 L266.4558,290.659" stroke="#000000" stroke-width="0.24" fill="none" />
  <path d="M232.1617,303.7606 L232.3869,304.0447 L232.5206,304.213" stroke="#000000" stroke-width="0.24" fill="none" />
  <path d="M243.4061,317.0444 L243.7316,317.4452 L243.9008,317.656 L244.3419,318.1677 L244.5394,318.3832" stroke="#000000" stroke-width="0.24" fill="none" />
  <path d="M313.0932,268.8396 C313.1126,268.6988 312.6647,268.5602 312.1622,268.5109" stroke="#000000" stroke-width="0.24" fill="none" />
  <path d="M313.088,350.0346 L313.0562,350.2431 L312.9154,350.4561 L312.6783,350.408 L312.5229,350.2812 L312.3886,350.1361" stroke="#000000" stroke-width="0.24" fill="none" />
  <path d="M277.7722,265.0593 C277.7838,264.9748 277.515,264.8916 277.2135,264.862 C276.7913,264.8037 276.0351,264.8587 275.8578,264.9607" stroke="#000000" stroke-width="0.24" fill="none" />
  <path d="M277.6852,290.6407 L277.2135,291.1601" stroke="#000000" stroke-width="0.24" fill="none" />
  <path d="M279.947,364.4985 L279.9152,364.707 L279.7744,364.92 L279.5374,364.8719 L279.3819,364.7451 L279.2477,364.6" stroke="#000000" stroke-width="0.24" fill="none" />
  <path d="M244.5442,305.1046 L244.0726,305.624" stroke="#000000" stroke-width="0.24" fill="none" />
  <path d="M229.2568,305.2401 L229.4299,305.0663 L229.5145,304.744 L229.4414,304.3581 L229.3448,304.1735" stroke="#000000" stroke-width="0.24" fill="none" />
  <path d="M207.3012,300.9901 L207.2485,301.2396" stroke="#000000" stroke-width="0.24" fill="none" />
  <path d="M240.4422,286.5262 L240.3894,286.7757" stroke="#000000" stroke-width="0.24" fill="none" />
  <path d="M240.362,287.3451 L240.3894,287.5481 L240.4422,287.912" stroke="#000000" stroke-width="0.24" fill="none" />
  <path d="M262.3978,290.7762 L262.5709,290.6024 L262.6555,290.2801 L262.5824,289.8942 L262.4877,289.7126 L261.9585,289.1707 L261.4959,288.8783 L260.7173,288.5901" stroke="#000000" stroke-width="0.24" fill="none" />
  <path d="M312.1622,268.5109 C311.4585,268.4136 310.1981,268.5053 309.9026,268.6753" stroke="#000000" stroke-width="0.24" fill="none" />
  <path d="M239.8547,260.6215 L238.3483,260.4572" stroke="#000000" stroke-width="0.24" fill="none" />
  <path d="M309.9026,295.9594 L310.1206,295.8091 L310.3657,295.545 L310.5702,295.2021 L310.6321,295.0135 L310.5702,294.4357 L310.3657,294.1532 L310.1206,293.9928" stroke="#000000" stroke-width="0.24" fill="none" />
  <path d="M277.2135,291.1601 L277.6852,291.8949 L277.7721,292.2339" stroke="#000000" stroke-width="0.24" fill="none" />
  <path d="M237.8963,303.2243 L238.0822,303.1228 L238.5069,302.8236 L238.678,302.6895 L238.8569,302.5434 L239.0385,302.3895 L239.2179,302.2321 L239.3906,302.0757 L239.704,301.7779 L239.9807,301.4961" stroke="#000000" stroke-width="0.24" fill="none" />
  <path d="M239.704,260.6872 C239.1411,260.6094 238.1327,260.6828 237.8963,260.8187" stroke="#000000" stroke-width="0.24" fill="none" />
  <path d="M309.9026,311.0808 L310.2221,310.875 L310.6022,310.5287 L310.9431,310.0931 L311.0617,309.8404" stroke="#000000" stroke-width="0.24" fill="none" />
  <path d="M311.0617,309.3009 L310.9431,309.0611 L310.6022,308.6865 L310.2221,308.464" stroke="#000000" stroke-width="0.24" fill="none" />
  <path d="M232.8323,304.5801 L233.0035,304.7713 L233.3149,305.1229" stroke="#000000" stroke-width="0.24" fill="none" />
  <path d="M229.0292,303.8082 L228.8175,303.6346 L228.3549,303.3423 L227.5763,303.054" stroke="#000000" stroke-width="0.24" fill="none" />
  <path d="M276.7616,310.4233 L276.9796,310.273 L277.2247,310.0089 L277.4292,309.666 L277.4922,309.4725 L277.4292,308.8997 L277.2247,308.6171 L276.9796,308.4567" stroke="#000000" stroke-width="0.24" fill="none" />
  <path d="M207.221,301.809 L207.2485,302.012 L207.3012,302.3759" stroke="#000000" stroke-width="0.24" fill="none" />
  <path d="M244.0726,305.624 L244.5442,306.3588 L244.6311,306.6978" stroke="#000000" stroke-width="0.24" fill="none" />
  <path d="M204.7553,317.6882 L204.9412,317.5867 L205.366,317.2875 L205.5371,317.1534 L205.7159,317.0073 L205.8976,316.8534 L206.0769,316.696 L206.2496,316.5396 L206.563,316.2418 L206.8398,315.96" stroke="#000000" stroke-width="0.24" fill="none" />
  <path d="M243.3592,321.9002 L243.6102,321.6872 L243.8164,321.2907 L243.8479,320.7677 L243.7524,320.5103 L243.312,320.0087 L242.997,319.7791 L242.3107,319.3937 L241.5664,319.0897 L241.1301,318.9867" stroke="#000000" stroke-width="0.24" fill="none" />
  <path d="M276.7616,325.5447 L277.0811,325.3389 L277.4613,324.9926 L277.8022,324.557 L277.9207,324.3043" stroke="#000000" stroke-width="0.24" fill="none" />
  <path d="M277.9207,323.7648 L277.8022,323.525 L277.4613,323.1505 L277.0811,322.9279" stroke="#000000" stroke-width="0.24" fill="none" />
  <path d="M310.3531,347.4291 L310.5437,347.9402" stroke="#000000" stroke-width="0.24" fill="none" />
  <path d="M279.5452,362.1121 L278.796,362.2491" stroke="#000000" stroke-width="0.24" fill="none" />
  <path d="M309.9026,268.6753 L309.7248,268.8396" stroke="#000000" stroke-width="0.24" fill="none" />
  <path d="M237.8963,260.8187 L237.7541,260.9502" stroke="#000000" stroke-width="0.24" fill="none" />
  <path d="M238.3483,253.8826 L230.8162,257.1699" stroke="#000000" stroke-width="0.24" fill="none" />
  <path d="M238.3483,253.8826 L238.3483,260.4572" stroke="#000000" stroke-width="0.24" fill="none" />
  <path d="M313.6686,262.1008 L238.3483,253.8826" stroke="#000000" stroke-width="0.24" fill="none" />
  <path d="M313.6686,268.6753 L313.6686,262.1008" stroke="#000000" stroke-width="0.24" fill="none" />
  <path d="M313.6686,268.6753 L312.1622,268.5109" stroke="#000000" stroke-width="0.24" fill="none" />
  <path d="M194.0682,277.9654 L194.0682,279.6661" stroke="#000000" stroke-width="0.24" fill="none" />
  <path d="M192.2082,279.6912 L193.9435,278.0198" stroke="#000000" stroke-width="0.24" fill="none" />
</svg>