<?xml version="1.0" encoding="utf-8" standalone="no"?>
<!DOCTYPE svg PUBLIC "-//W3C//DTD SVG 1.1//EN" "http://www.w3.org/Graphics/SVG/1.1/DTD/svg11.dtd">
<svg version="1.1" width="419.52pt" height="595.2pt" viewBox="0 0 419.52 595.2" overflow="visible" xmlns="http://www.w3.org/2000/svg">
  <path d="M133.2852,355.8732 L206.9734,326.7299" stroke="#000000" stroke-width="0.24" fill="none" />
  <path d="M279.0293,284.3348 C279.1745,290.3104 276.6955,297.2503 272.1702,301.7649 C267.645,306.2796 261.0735,308.3689 255.6111,307.6981 C250.1487,307.3443 243.5772,304.0222 239.0519,298.6588 C234.5267,293.2953 232.0477,285.8904 232.1929,279.942 C232.0477,273.9664 234.5267,267.0265 239.0519,262.5119 C243.5772,257.9973 250.1487,255.9079 255.6111,256.5787 C261.0735,256.9326 267.645,260.2546 272.1702,265.6181 C276.6955,270.9815 279.1745,278.3865 279.0293,284.3348 z" stroke="#000000" stroke-width="0.24" fill="none" />
  <path d="M304.2488,335.8535 L230.5606,364.9967" stroke="#000000" stroke-width="0.24" fill="none" />
  <path d="M304.2488,237.5469 L304.2488,335.8535" stroke="#000000" stroke-width="0.24" fill="none" />
  <path d="M206.9734,228.4234 L304.2488,237.5469" stroke="#000000" stroke-width="0.24" fill="none" />
  <path d="M133.2852,257.5667 L206.9734,228.4234" stroke="#000000" stroke-width="0.24" fill="none" />
  <path d="M133.2852,257.5667 L133.2852,355.8732" stroke="#000000" stroke-width="0.24" fill="none" />
  <path d="M230.5606,364.9967 L133.2852,355.8732" stroke="#000000" stroke-width="0.24" fill="none" />
  <path d="M206.9734,326.7299 L304.2488,335.8535" stroke="#000000" stroke-width="0.24" fill="none" />
  <path d="M206.9734,228.4234 L206.9734,326.7299" stroke="#000000" stroke-width="0.24" fill="none" />
</svg>