<?xml version="1.0" encoding="utf-8" standalone="no"?>
<!DOCTYPE svg PUBLIC "-//W3C//DTD SVG 1.1//EN" "http://www.w3.org/Graphics/SVG/1.1/DTD/svg11.dtd">
<svg version="1.1" width="419.52pt" height="595.2pt" viewBox="0 0 419.52 595.2" overflow="visible" xmlns="http://www.w3.org/2000/svg">
  <path d="M209.8478,364.8241 L212.0963,365.0694" stroke="#000000" stroke-width="0.24" fill="none" />
  <path d="M208.8362,231.7222 L209.8478,231.2807 L209.8478,233.5425" stroke="#000000" stroke-width="0.24" fill="none" />
  <path d="M209.8478,231.2807 L212.0963,231.526" stroke="#000000" stroke-width="0.24" fill="none" />
  <path d="M202.6659,281.8359 L200.6429,281.6151" stroke="#000000" stroke-width="0.24" fill="none" />
  <path d="M223.301,287.2512 L221.278,287.0305" stroke="#000000" stroke-width="0.24" fill="none" />
  <path d="M223.301,287.2512 L224.3126,286.8097" stroke="#000000" stroke-width="0.24" fill="none" />
  <path d="M202.6659,269.6956 L202.6659,271.9029" stroke="#000000" stroke-width="0.24" fill="none" />
  <path d="M207.5213,269.3424 L208.5328,268.9009" stroke="#000000" stroke-width="0.24" fill="none" />
  <path d="M194.776,329.7938 L193.7645,330.2352" stroke="#000000" stroke-width="0.24" fill="none" />
  <path d="M202.6659,330.3971 L202.6659,332.6044" stroke="#000000" stroke-width="0.24" fill="none" />
  <path d="M207.5213,330.0439 L207.5213,332.2513" stroke="#000000" stroke-width="0.24" fill="none" />
  <path d="M223.301,335.8124 L224.3126,335.3709" stroke="#000000" stroke-width="0.24" fill="none" />
  <path d="M223.301,347.9527 L224.3126,347.5113" stroke="#000000" stroke-width="0.24" fill="none" />
  <path d="M223.301,238.69 L223.301,240.8973" stroke="#000000" stroke-width="0.24" fill="none" />
  <path d="M207.5213,232.9215 L205.4982,232.7008" stroke="#000000" stroke-width="0.24" fill="none" />
  <path d="M194.776,232.6713 L193.7645,233.1128" stroke="#000000" stroke-width="0.24" fill="none" />
  <path d="M194.776,232.6713 L192.753,232.4506" stroke="#000000" stroke-width="0.24" fill="none" />
  <path d="M194.776,232.6713 L194.776,234.8787" stroke="#000000" stroke-width="0.24" fill="none" />
  <path d="M207.5213,257.2021 L208.5328,256.7606" stroke="#000000" stroke-width="0.24" fill="none" />
  <path d="M223.301,262.9706 L221.278,262.7498" stroke="#000000" stroke-width="0.24" fill="none" />
  <path d="M194.776,256.9519 L192.753,256.7312" stroke="#000000" stroke-width="0.24" fill="none" />
  <path d="M194.776,256.9519 L193.7645,257.3934" stroke="#000000" stroke-width="0.24" fill="none" />
  <path d="M223.301,262.9706 L224.3126,262.5291" stroke="#000000" stroke-width="0.24" fill="none" />
  <path d="M202.6659,233.2747 L201.6544,233.7161" stroke="#000000" stroke-width="0.24" fill="none" />
  <path d="M202.6659,233.2747 L200.6429,233.0539" stroke="#000000" stroke-width="0.24" fill="none" />
  <path d="M202.6659,233.2747 L202.6659,235.482" stroke="#000000" stroke-width="0.24" fill="none" />
  <path d="M207.5213,232.9215 L208.5328,232.48" stroke="#000000" stroke-width="0.24" fill="none" />
  <path d="M207.5213,232.9215 L207.5213,235.1288" stroke="#000000" stroke-width="0.24" fill="none" />
  <path d="M207.5213,317.9036 L207.5213,320.111" stroke="#000000" stroke-width="0.24" fill="none" />
  <path d="M207.5213,317.9036 L208.5328,317.4622" stroke="#000000" stroke-width="0.24" fill="none" />
  <path d="M223.301,323.6721 L221.278,323.4514" stroke="#000000" stroke-width="0.24" fill="none" />
  <path d="M223.301,323.6721 L224.3126,323.2307" stroke="#000000" stroke-width="0.24" fill="none" />
  <path d="M207.5213,317.9036 L205.4982,317.6829" stroke="#000000" stroke-width="0.24" fill="none" />
  <path d="M202.6659,318.2568 L202.6659,320.4641" stroke="#000000" stroke-width="0.24" fill="none" />
  <path d="M223.301,275.1109 L223.301,277.3182" stroke="#000000" stroke-width="0.24" fill="none" />
  <path d="M194.776,281.2325 L192.753,281.0118" stroke="#000000" stroke-width="0.24" fill="none" />
  <path d="M194.776,281.2325 L193.7645,281.674" stroke="#000000" stroke-width="0.24" fill="none" />
  <path d="M194.776,293.3729 L193.7645,293.8143" stroke="#000000" stroke-width="0.24" fill="none" />
  <path d="M207.5213,281.4827 L208.5328,281.0413" stroke="#000000" stroke-width="0.24" fill="none" />
  <path d="M207.5213,281.4827 L207.5213,283.69" stroke="#000000" stroke-width="0.24" fill="none" />
  <path d="M223.301,287.2512 L223.301,289.4585" stroke="#000000" stroke-width="0.24" fill="none" />
  <path d="M202.6659,245.415 L202.6659,247.6223" stroke="#000000" stroke-width="0.24" fill="none" />
  <path d="M207.5213,245.0618 L205.4982,244.8411" stroke="#000000" stroke-width="0.24" fill="none" />
  <path d="M202.6659,245.415 L200.6429,245.1942" stroke="#000000" stroke-width="0.24" fill="none" />
  <path d="M202.6659,245.415 L201.6544,245.8564" stroke="#000000" stroke-width="0.24" fill="none" />
  <path d="M223.301,250.8303 L223.301,253.0376" stroke="#000000" stroke-width="0.24" fill="none" />
  <path d="M223.301,250.8303 L221.278,250.6095" stroke="#000000" stroke-width="0.24" fill="none" />
  <path d="M223.301,250.8303 L224.3126,250.3888" stroke="#000000" stroke-width="0.24" fill="none" />
  <path d="M207.5213,245.0618 L208.5328,244.6203" stroke="#000000" stroke-width="0.24" fill="none" />
  <path d="M207.5213,245.0618 L207.5213,247.2691" stroke="#000000" stroke-width="0.24" fill="none" />
  <path d="M223.301,311.5318 L224.3126,311.0903" stroke="#000000" stroke-width="0.24" fill="none" />
  <path d="M194.776,317.6535 L192.753,317.4327" stroke="#000000" stroke-width="0.24" fill="none" />
  <path d="M202.6659,318.2568 L201.6544,318.6983" stroke="#000000" stroke-width="0.24" fill="none" />
  <path d="M194.776,317.6535 L193.7645,318.0949" stroke="#000000" stroke-width="0.24" fill="none" />
  <path d="M194.776,244.8116 L193.7645,245.2531" stroke="#000000" stroke-width="0.24" fill="none" />
  <path d="M194.776,244.8116 L192.753,244.5909" stroke="#000000" stroke-width="0.24" fill="none" />
  <path d="M194.776,244.8116 L194.776,247.019" stroke="#000000" stroke-width="0.24" fill="none" />
  <path d="M202.6659,257.5553 L201.6544,257.9967" stroke="#000000" stroke-width="0.24" fill="none" />
  <path d="M194.776,256.9519 L194.776,259.1593" stroke="#000000" stroke-width="0.24" fill="none" />
  <path d="M202.6659,257.5553 L202.6659,259.7626" stroke="#000000" stroke-width="0.24" fill="none" />
  <path d="M207.5213,257.2021 L205.4982,256.9814" stroke="#000000" stroke-width="0.24" fill="none" />
  <path d="M202.6659,257.5553 L200.6429,257.3345" stroke="#000000" stroke-width="0.24" fill="none" />
  <path d="M194.776,269.0923 L192.753,268.8715" stroke="#000000" stroke-width="0.24" fill="none" />
  <path d="M194.776,269.0923 L194.776,271.2996" stroke="#000000" stroke-width="0.24" fill="none" />
  <path d="M194.776,269.0923 L193.7645,269.5337" stroke="#000000" stroke-width="0.24" fill="none" />
  <path d="M223.301,262.9706 L223.301,265.1779" stroke="#000000" stroke-width="0.24" fill="none" />
  <path d="M207.5213,257.2021 L207.5213,259.4094" stroke="#000000" stroke-width="0.24" fill="none" />
  <path d="M223.301,238.69 L221.278,238.4692" stroke="#000000" stroke-width="0.24" fill="none" />
  <path d="M223.301,238.69 L224.3126,238.2485" stroke="#000000" stroke-width="0.24" fill="none" />
  <path d="M202.6659,281.8359 L201.6544,282.2773" stroke="#000000" stroke-width="0.24" fill="none" />
  <path d="M194.776,281.2325 L194.776,283.4399" stroke="#000000" stroke-width="0.24" fill="none" />
  <path d="M202.6659,281.8359 L202.6659,284.0432" stroke="#000000" stroke-width="0.24" fill="none" />
  <path d="M207.5213,281.4827 L205.4982,281.262" stroke="#000000" stroke-width="0.24" fill="none" />
  <path d="M194.776,293.3729 L192.753,293.1521" stroke="#000000" stroke-width="0.24" fill="none" />
  <path d="M202.6659,306.1165 L201.6544,306.558" stroke="#000000" stroke-width="0.24" fill="none" />
  <path d="M207.5213,305.7633 L205.4982,305.5426" stroke="#000000" stroke-width="0.24" fill="none" />
  <path d="M194.776,305.5132 L192.753,305.2924" stroke="#000000" stroke-width="0.24" fill="none" />
  <path d="M207.5213,305.7633 L208.5328,305.3219" stroke="#000000" stroke-width="0.24" fill="none" />
  <path d="M194.776,305.5132 L194.776,307.7205" stroke="#000000" stroke-width="0.24" fill="none" />
  <path d="M194.776,305.5132 L193.7645,305.9546" stroke="#000000" stroke-width="0.24" fill="none" />
  <path d="M207.5213,293.623 L205.4982,293.4023" stroke="#000000" stroke-width="0.24" fill="none" />
  <path d="M202.6659,293.9762 L201.6544,294.4177" stroke="#000000" stroke-width="0.24" fill="none" />
  <path d="M202.6659,293.9762 L200.6429,293.7555" stroke="#000000" stroke-width="0.24" fill="none" />
  <path d="M202.6659,269.6956 L200.6429,269.4749" stroke="#000000" stroke-width="0.24" fill="none" />
  <path d="M202.6659,269.6956 L201.6544,270.1371" stroke="#000000" stroke-width="0.24" fill="none" />
  <path d="M194.776,293.3729 L194.776,295.5802" stroke="#000000" stroke-width="0.24" fill="none" />
  <path d="M223.301,323.6721 L223.301,325.8795" stroke="#000000" stroke-width="0.24" fill="none" />
  <path d="M207.5213,330.0439 L205.4982,329.8232" stroke="#000000" stroke-width="0.24" fill="none" />
  <path d="M223.301,335.8124 L221.278,335.5917" stroke="#000000" stroke-width="0.24" fill="none" />
  <path d="M207.5213,330.0439 L208.5328,329.6025" stroke="#000000" stroke-width="0.24" fill="none" />
  <path d="M223.301,335.8124 L223.301,338.0197" stroke="#000000" stroke-width="0.24" fill="none" />
  <path d="M207.5213,342.1842 L205.4982,341.9635" stroke="#000000" stroke-width="0.24" fill="none" />
  <path d="M202.6659,342.5374 L202.6659,344.7448" stroke="#000000" stroke-width="0.24" fill="none" />
  <path d="M223.301,347.9527 L221.278,347.732" stroke="#000000" stroke-width="0.24" fill="none" />
  <path d="M207.5213,342.1842 L207.5213,344.3916" stroke="#000000" stroke-width="0.24" fill="none" />
  <path d="M202.6659,330.3971 L201.6544,330.8386" stroke="#000000" stroke-width="0.24" fill="none" />
  <path d="M202.6659,330.3971 L200.6429,330.1764" stroke="#000000" stroke-width="0.24" fill="none" />
  <path d="M194.776,329.7938 L192.753,329.573" stroke="#000000" stroke-width="0.24" fill="none" />
  <path d="M194.776,341.9341 L194.776,344.1414" stroke="#000000" stroke-width="0.24" fill="none" />
  <path d="M202.6659,342.5374 L200.6429,342.3167" stroke="#000000" stroke-width="0.24" fill="none" />
  <path d="M207.5213,342.1842 L208.5328,341.7428" stroke="#000000" stroke-width="0.24" fill="none" />
  <path d="M223.301,347.9527 L223.301,350.1601" stroke="#000000" stroke-width="0.24" fill="none" />
  <path d="M194.776,341.9341 L192.753,341.7133" stroke="#000000" stroke-width="0.24" fill="none" />
  <path d="M202.6659,342.5374 L201.6544,342.9789" stroke="#000000" stroke-width="0.24" fill="none" />
  <path d="M194.776,341.9341 L193.7645,342.3755" stroke="#000000" stroke-width="0.24" fill="none" />
  <path d="M202.6659,306.1165 L200.6429,305.8958" stroke="#000000" stroke-width="0.24" fill="none" />
  <path d="M223.301,299.3915 L223.301,301.5988" stroke="#000000" stroke-width="0.24" fill="none" />
  <path d="M223.301,299.3915 L224.3126,298.95" stroke="#000000" stroke-width="0.24" fill="none" />
  <path d="M202.6659,293.9762 L202.6659,296.1835" stroke="#000000" stroke-width="0.24" fill="none" />
  <path d="M207.5213,293.623 L207.5213,295.8304" stroke="#000000" stroke-width="0.24" fill="none" />
  <path d="M207.5213,293.623 L208.5328,293.1815" stroke="#000000" stroke-width="0.24" fill="none" />
  <path d="M223.301,299.3915 L221.278,299.1708" stroke="#000000" stroke-width="0.24" fill="none" />
  <path d="M194.776,329.7938 L194.776,332.0011" stroke="#000000" stroke-width="0.24" fill="none" />
  <path d="M207.5213,269.3424 L205.4982,269.1217" stroke="#000000" stroke-width="0.24" fill="none" />
  <path d="M207.5213,269.3424 L207.5213,271.5497" stroke="#000000" stroke-width="0.24" fill="none" />
  <path d="M223.301,275.1109 L221.278,274.8902" stroke="#000000" stroke-width="0.24" fill="none" />
  <path d="M223.301,275.1109 L224.3126,274.6694" stroke="#000000" stroke-width="0.24" fill="none" />
  <path d="M202.6659,318.2568 L200.6429,318.0361" stroke="#000000" stroke-width="0.24" fill="none" />
  <path d="M194.776,317.6535 L194.776,319.8608" stroke="#000000" stroke-width="0.24" fill="none" />
  <path d="M223.301,311.5318 L221.278,311.3111" stroke="#000000" stroke-width="0.24" fill="none" />
  <path d="M223.301,311.5318 L223.301,313.7391" stroke="#000000" stroke-width="0.24" fill="none" />
  <path d="M202.6659,306.1165 L202.6659,308.3238" stroke="#000000" stroke-width="0.24" fill="none" />
  <path d="M207.5213,305.7633 L207.5213,307.9706" stroke="#000000" stroke-width="0.24" fill="none" />
  <path d="M208.8362,365.2655 L209.8478,364.8241 L209.8478,367.0859" stroke="#000000" stroke-width="0.24" fill="none" />
</svg>