{"asset":{"version":"2.0","generator":"THREE.GLTFExporter r182"},"scenes":[{"name":"AuxScene","nodes":[0]}],"scene":0,"nodes":[{"mesh":0}],"bufferViews":[{"buffer":0,"byteOffset":0,"byteLength":12288,"target":34962,"byteStride":12},{"buffer":0,"byteOffset":12288,"byteLength":12288,"target":34962,"byteStride":12},{"buffer":0,"byteOffset":24576,"byteLength":24576,"target":34963}],"buffers":[{"byteLength":49152,"uri":"data:application/octet-stream;base64,"}],"accessors":[{"bufferView":0,"componentType":5126,"count":1024,"max":[18000000,18000000,4000000],"min":[-18000000,-18000000,-4000000],"type":"VEC3"},{"bufferView":1,"componentType":5126,"count":1024,"max":[1,1,0.999993085861206],"min":[-1,-1,-0.999993085861206],"type":"VEC3"},{"bufferView":2,"componentType":5125,"count":6144,"max":[1023],"min":[0],"type":"SCALAR"}],"materials":[{"pbrMetallicRoughness":{"baseColorFactor":[0.3277780980458375,0.14702726648767014,0.6375968739867731,1],"metallicFactor":0.25,"roughnessFactor":0.4},"name":"scale-torus-1e6-material"}],"meshes":[{"primitives":[{"mode":4,"attributes":{"POSITION":0,"NORMAL":1},"indices":2,"material":0}]}]}