o 
usemtl primitives-sphere-8-material
v -7.071067810058594 -7.071067810058594 6.123233998228043e-16
v -7.071067810058594 6.123233998228043e-16 -7.071067810058594
v -10 6.123233998228043e-16 6.123233998228043e-16
v -7.071067810058594 6.123233998228043e-16 7.071067810058594
v -7.071067810058594 7.071067810058594 6.123233998228043e-16
v 6.123233998228043e-16 -7.071067810058594 -7.071067810058594
v 6.123233998228043e-16 -10 6.123233998228043e-16
v 6.123233998228043e-16 -7.071067810058594 7.071067810058594
v 7.071067810058594 -7.071067810058594 6.123233998228043e-16
v 6.123233998228043e-16 6.123233998228043e-16 -10
v 6.123233998228043e-16 7.071067810058594 -7.071067810058594
v 7.071067810058594 6.123233998228043e-16 -7.071067810058594
v 6.123233998228043e-16 6.123233998228043e-16 10
v 6.123233998228043e-16 10 6.123233998228043e-16
v 6.123233998228043e-16 7.071067810058594 7.071067810058594
v 10 6.123233998228043e-16 6.123233998228043e-16
v 7.071067810058594 6.123233998228043e-16 7.071067810058594
v 7.071067810058594 7.071067810058594 6.123233998228043e-16
vn -0.7071067811865476 -0.7071067811865476 -7.484343828437095e-11
vn -0.7071067811865476 -7.484343828437095e-11 -0.7071067811865476
vn -1 1.2776579794149256e-10 1.2776579794149256e-10
vn -0.7071067811865476 7.484349379552313e-11 0.7071067811865476
vn -0.7071067811865476 0.7071067811865476 7.484349379552313e-11
vn -7.484343828437095e-11 -0.7071067811865476 -0.7071067811865476
vn 1.2776579794149256e-10 -1 1.2776579794149256e-10
vn 7.484349379552313e-11 -0.7071067811865476 0.7071067811865476
vn 0.7071067811865476 -0.7071067811865476 7.484349379552313e-11
vn 1.2776579794149256e-10 1.2776579794149256e-10 -1
vn 7.484349379552313e-11 0.7071067811865476 -0.7071067811865476
vn 0.7071067811865476 7.484349379552313e-11 -0.7071067811865476
vn 1.2776579794149256e-10 1.2776579794149256e-10 1
vn 1.2776579794149256e-10 1 1.2776579794149256e-10
vn 7.484347297884106e-11 0.7071067811865476 0.7071067811865476
vn 1 1.2776579794149256e-10 1.2776579794149256e-10
vn 0.7071067811865476 7.484347297884106e-11 0.7071067811865476
vn 0.7071067811865476 0.7071067811865476 7.484347297884106e-11
f 2//2 1//1 3//3
f 6//6 7//7 1//1
f 2//2 10//10 6//6
f 2//2 6//6 1//1
f 1//1 4//4 3//3
f 1//1 7//7 8//8
f 1//1 8//8 4//4
f 8//8 13//13 4//4
f 2//2 3//3 5//5
f 11//11 10//10 2//2
f 11//11 2//2 5//5
f 11//11 5//5 14//14
f 5//5 3//3 4//4
f 5//5 4//4 15//15
f 4//4 13//13 15//15
f 5//5 15//15 14//14
f 6//6 9//9 7//7
f 6//6 10//10 12//12
f 6//6 12//12 9//9
f 12//12 16//16 9//9
f 9//9 8//8 7//7
f 9//9 17//17 8//8
f 17//17 13//13 8//8
f 9//9 16//16 17//17
f 12//12 10//10 11//11
f 12//12 11//11 18//18
f 11//11 14//14 18//18
f 12//12 18//18 16//16
f 18//18 15//15 17//17
f 15//15 13//13 17//17
f 18//18 14//14 15//15
f 18//18 17//17 16//16
