<svg xmlns="http://www.w3.org/2000/svg" viewBox="0 0 512 512"><circle cx="256" cy="256" r="256" fill="#001117"/><path d="M4.102 0L56.294-145.811L83.262-145.811L135.454 0L112.383 0L96.489-43.887L55.781-43.887L63.574-65.420L88.696-65.420L69.829-117.510L27.173 0L4.102 0ZM151.860-41.016L151.860-104.795Q151.860-116.177 157.756-125.457Q163.652-134.736 173.496-140.273Q183.340-145.811 195.337-145.811L195.337-145.811L264.346-145.811L264.346-124.277L195.337-124.277Q186.313-124.277 179.905-118.586Q173.496-112.896 173.496-104.897L173.496-104.897L173.496-40.913Q173.496-32.915 179.905-27.224Q186.313-21.533 195.337-21.533L195.337-21.533L229.482-21.533Q238.608-21.533 244.966-27.224Q251.323-32.915 251.323-40.913L251.323-40.913L251.323-59.985L211.743-59.985L211.743-81.519L272.959-81.519L272.959-41.016Q272.959-29.736 267.114-20.405Q261.270-11.074 251.375-5.537Q241.479 0 229.482 0L229.482 0L195.337 0Q183.340 0 173.496-5.537Q163.652-11.074 157.756-20.405Q151.860-29.736 151.860-41.016L151.860-41.016ZM295.723 0L295.723-111.973L379.805-111.973L379.805 0L295.723 0ZM306.182-10.459L369.346-10.459L369.346-101.514L306.182-101.514L306.182-10.459Z" fill="#f7f3e3" transform="translate(64.04649829864502, 328.90550231933594)"/></svg>