<svg xmlns="http://www.w3.org/2000/svg" viewBox="0 0 512 512"><circle cx="256" cy="256" r="256" fill="#001117"/><path d="M6.445 0L88.462-229.131L130.840-229.131L212.856 0L176.602 0L151.626-68.965L87.656-68.965L99.902-102.803L139.380-102.803L109.731-184.658L42.700 0L6.445 0ZM238.638-60.264L238.638-166.934L272.637-166.934L272.637-60.747Q272.637-49.468 280.371-41.572Q288.105-33.677 298.901-33.677L298.901-33.677L358.037-33.677L358.037-166.934L392.036-166.934L392.036-33.838Q392.036-19.819 382.046-9.910Q372.056 0 357.715 0L357.715 0L298.901 0Q282.305 0 268.608-8.137Q254.912-16.274 246.775-29.971Q238.638-43.667 238.638-60.264L238.638-60.264Z" fill="#f7f3e3" transform="translate(56.75949811935425, 370.5654983520508)"/></svg>