<svg xmlns="http://www.w3.org/2000/svg" viewBox="0 0 512 512"><circle cx="256" cy="256" r="256" fill="#001117"/><path d="M12.891-12.656L12.891-37.148L88.945-64.805L12.891-92.578L12.891-116.953L131.250-73.945L131.250-55.664L12.891-12.656ZM148.828 0L208.477-166.641L239.297-166.641L298.945 0L272.578 0L254.414-50.156L207.891-50.156L216.797-74.766L245.508-74.766L223.945-134.297L175.195 0L148.828 0ZM317.695-43.828L317.695-121.406L342.422-121.406L342.422-44.180Q342.422-35.977 348.047-30.234Q353.672-24.492 361.523-24.492L361.523-24.492L404.531-24.492L404.531-121.406L429.258-121.406L429.258-24.609Q429.258-14.414 421.992-7.207Q414.727 0 404.297 0L404.297 0L361.523 0Q349.453 0 339.492-5.918Q329.531-11.836 323.613-21.797Q317.695-31.758 317.695-43.828L317.695-43.828Z" fill="#f7f3e3" transform="translate(34.92549800872803, 339.3205032348633)"/></svg>