<svg xmlns="http://www.w3.org/2000/svg" viewBox="0 0 512 512"><circle cx="256" cy="256" r="256" fill="#001117"/><path d="M36.680-47.109L12.891-47.109Q12.891-62.695 22.676-72.715Q32.461-82.734 47.695-82.734L47.695-82.734Q54.961-82.734 62.520-80.977Q70.078-79.219 80.039-75.117L80.039-75.117Q87.305-72.422 92.168-71.250Q97.031-70.078 101.250-70.078L101.250-70.078Q112.969-70.078 112.969-82.852L112.969-82.852L136.523-82.852Q136.523-65.977 126.738-56.543Q116.953-47.109 99.492-47.109L99.492-47.109Q92.695-47.109 85.547-48.809Q78.398-50.508 65.742-55.078L65.742-55.078Q59.180-57.422 54.902-58.418Q50.625-59.414 47.461-59.414L47.461-59.414Q36.680-59.414 36.680-47.109L36.680-47.109ZM154.102 0L213.750-166.641L244.570-166.641L304.219 0L277.852 0L259.688-50.156L213.164-50.156L222.070-74.766L250.781-74.766L229.219-134.297L180.469 0L154.102 0ZM322.969-43.828L322.969-121.406L347.695-121.406L347.695-44.180Q347.695-35.977 353.320-30.234Q358.945-24.492 366.797-24.492L366.797-24.492L409.805-24.492L409.805-121.406L434.531-121.406L434.531-24.609Q434.531-14.414 427.266-7.207Q420 0 409.570 0L409.570 0L366.797 0Q354.727 0 344.766-5.918Q334.805-11.836 328.887-21.797Q322.969-31.758 322.969-43.828L322.969-43.828Z" fill="#f7f3e3" transform="translate(32.2889928817749, 339.3205032348633)"/></svg>