<svg xmlns="http://www.w3.org/2000/svg" viewBox="0 0 512 512"><circle cx="256" cy="256" r="256" fill="#001117"/><path d="M18.457-61.436L18.457-84.639L72.378-84.639L72.378-137.241L95.581-137.241L95.581-84.639L149.502-84.639L149.502-61.436L95.581-61.436L95.581-8.965L72.378-8.965L72.378-61.436L18.457-61.436ZM186.416 0L186.416-187.471L285.161-187.471Q298.213-187.471 308.760-181.274Q319.307-175.078 325.569-164.663Q331.831-154.248 331.831-141.328L331.831-141.328L331.831-129.067Q331.831-110.742 321.284-101.250L321.284-101.250Q330.645-95.186 334.863-86.814Q339.082-78.442 339.082-65.918L339.082-65.918L339.082-45.220Q339.082-32.827 332.820-22.544Q326.558-12.261 316.011-6.130Q305.464 0 292.676 0L292.676 0L186.416 0ZM214.233-27.817L292.939-27.817Q300.586-27.817 305.991-33.025Q311.396-38.232 311.396-45.615L311.396-45.615L311.396-66.313Q311.396-73.696 305.991-78.970Q300.586-84.243 292.808-84.243L292.808-84.243L230.054-84.243L230.054-111.929L285.161-111.929Q292.939-111.929 298.542-117.004Q304.146-122.080 304.146-129.331L304.146-129.331L304.146-141.328Q304.146-148.975 298.542-154.380Q292.939-159.785 285.161-159.785L285.161-159.785L214.233-159.785L214.233-27.817ZM369.404 0L369.404-187.471L397.222-187.471L397.222 0L369.404 0Z" fill="#f7f3e3" transform="translate(48.16050720214844, 349.7354965209961)"/></svg>