<svg xmlns="http://www.w3.org/2000/svg" viewBox="0 0 512 512"><circle cx="256" cy="256" r="256" fill="#001117"/><path d="M10.547-142.031L10.547-166.641L83.086-166.641Q93.633-166.641 102.129-161.719Q110.625-156.797 115.605-148.301Q120.586-139.805 120.586-129.258L120.586-129.258L120.586-112.617Q120.586-101.602 116.953-93.809Q113.320-86.016 104.941-80.215Q96.563-74.414 82.383-69.258L82.383-69.258Q70.781-64.922 66.621-62.168Q62.461-59.414 62.461-56.016L62.461-56.016L62.461-35.977L37.734-35.977L37.734-56.016Q37.734-68.906 46.699-77.344Q55.664-85.781 77.695-93.633L77.695-93.633Q87.656-97.148 91.758-101.602Q95.859-106.055 95.859-113.320L95.859-113.320L95.859-129.258Q95.859-134.531 92.109-138.281Q88.359-142.031 83.086-142.031L83.086-142.031L10.547-142.031ZM36.094-12.773L36.094-12.773Q36.094-18.633 40.195-22.676Q44.297-26.719 50.039-26.719L50.039-26.719Q55.898-26.719 59.941-22.676Q63.984-18.633 63.984-12.773L63.984-12.773Q63.984-7.031 59.941-2.930Q55.898 1.172 50.039 1.172L50.039 1.172Q44.297 1.172 40.195-2.930Q36.094-7.031 36.094-12.773ZM148.711-46.055L148.711-119.766Q148.711-132.773 155.156-143.379Q161.602-153.984 172.383-160.313Q183.164-166.641 196.289-166.641L196.289-166.641L283.594-166.641L283.594-142.031L196.289-142.031Q186.797-142.031 180.117-135.527Q173.438-129.023 173.438-119.766L173.438-119.766L173.438-46.406Q173.438-37.500 180.117-31.113Q186.797-24.727 196.289-24.727L196.289-24.727L283.594-24.727L283.594 0L196.289 0Q183.164 0 172.383-6.211Q161.602-12.422 155.156-22.910Q148.711-33.398 148.711-46.055L148.711-46.055ZM309.375-43.828L309.375-77.578Q309.375-89.648 315.293-99.609Q321.211-109.570 331.172-115.488Q341.133-121.406 353.203-121.406L353.203-121.406L379.688-121.406Q391.758-121.406 401.719-115.488Q411.680-109.570 417.598-99.609Q423.516-89.648 423.516-77.578L423.516-77.578L423.516-43.828Q423.516-31.758 417.598-21.797Q411.680-11.836 401.719-5.918Q391.758 0 379.688 0L379.688 0L353.203 0Q341.133 0 331.172-5.918Q321.211-11.836 315.293-21.797Q309.375-31.758 309.375-43.828L309.375-43.828ZM334.102-77.344L334.102-44.063Q334.102-36.094 339.727-30.410Q345.352-24.727 353.203-24.727L353.203-24.727L379.688-24.727Q387.656-24.727 393.223-30.410Q398.789-36.094 398.789-44.063L398.789-44.063L398.789-77.344Q398.789-85.313 393.223-90.996Q387.656-96.680 379.688-96.680L379.688-96.680L353.203-96.680Q345.352-96.680 339.727-90.996Q334.102-85.313 334.102-77.344L334.102-77.344Z" fill="#f7f3e3" transform="translate(38.96850299835205, 338.73450469970703)"/></svg>