<svg xmlns="http://www.w3.org/2000/svg" viewBox="0 0 512 512"><circle cx="256" cy="256" r="256" fill="#001117"/><path d="M12.891-12.656L12.891-37.148L88.945-64.805L12.891-92.578L12.891-116.953L131.250-73.945L131.250-55.664L12.891-12.656ZM158.203-46.055L158.203-119.766Q158.203-132.773 164.648-143.379Q171.094-153.984 181.875-160.313Q192.656-166.641 205.781-166.641L205.781-166.641L293.086-166.641L293.086-142.031L205.781-142.031Q196.289-142.031 189.609-135.527Q182.930-129.023 182.930-119.766L182.930-119.766L182.930-46.406Q182.930-37.500 189.609-31.113Q196.289-24.727 205.781-24.727L205.781-24.727L293.086-24.727L293.086 0L205.781 0Q192.656 0 181.875-6.211Q171.094-12.422 164.648-22.910Q158.203-33.398 158.203-46.055L158.203-46.055ZM318.867-43.828L318.867-77.578Q318.867-89.648 324.785-99.609Q330.703-109.570 340.664-115.488Q350.625-121.406 362.695-121.406L362.695-121.406L389.180-121.406Q401.250-121.406 411.211-115.488Q421.172-109.570 427.090-99.609Q433.008-89.648 433.008-77.578L433.008-77.578L433.008-43.828Q433.008-31.758 427.090-21.797Q421.172-11.836 411.211-5.918Q401.250 0 389.180 0L389.180 0L362.695 0Q350.625 0 340.664-5.918Q330.703-11.836 324.785-21.797Q318.867-31.758 318.867-43.828L318.867-43.828ZM343.594-77.344L343.594-44.063Q343.594-36.094 349.219-30.410Q354.844-24.727 362.695-24.727L362.695-24.727L389.180-24.727Q397.148-24.727 402.715-30.410Q408.281-36.094 408.281-44.063L408.281-44.063L408.281-77.344Q408.281-85.313 402.715-90.996Q397.148-96.680 389.180-96.680L389.180-96.680L362.695-96.680Q354.844-96.680 349.219-90.996Q343.594-85.313 343.594-77.344L343.594-77.344Z" fill="#f7f3e3" transform="translate(33.05049800872803, 339.3205032348633)"/></svg>