<svg xmlns="http://www.w3.org/2000/svg" viewBox="0 0 512 512"><circle cx="256" cy="256" r="256" fill="#001117"/><path d="M19.336-63.325L19.336-164.678Q19.336-182.563 28.198-197.146Q37.061-211.729 51.885-220.430Q66.709-229.131 84.756-229.131L84.756-229.131L204.800-229.131L204.800-195.293L84.756-195.293Q71.704-195.293 62.520-186.350Q53.335-177.407 53.335-164.678L53.335-164.678L53.335-63.809Q53.335-51.563 62.520-42.781Q71.704-33.999 84.756-33.999L84.756-33.999L204.800-33.999L204.800 0L84.756 0Q66.709 0 51.885-8.540Q37.061-17.080 28.198-31.501Q19.336-45.923 19.336-63.325L19.336-63.325ZM240.249-60.264L240.249-106.670Q240.249-123.267 248.386-136.963Q256.523-150.659 270.220-158.796Q283.916-166.934 300.513-166.934L300.513-166.934L336.929-166.934Q353.525-166.934 367.222-158.796Q380.918-150.659 389.055-136.963Q397.192-123.267 397.192-106.670L397.192-106.670L397.192-60.264Q397.192-43.667 389.055-29.971Q380.918-16.274 367.222-8.137Q353.525 0 336.929 0L336.929 0L300.513 0Q283.916 0 270.220-8.137Q256.523-16.274 248.386-29.971Q240.249-43.667 240.249-60.264L240.249-60.264ZM274.248-106.348L274.248-60.586Q274.248-49.629 281.982-41.814Q289.717-33.999 300.513-33.999L300.513-33.999L336.929-33.999Q347.886-33.999 355.540-41.814Q363.193-49.629 363.193-60.586L363.193-60.586L363.193-106.348Q363.193-117.305 355.540-125.120Q347.886-132.935 336.929-132.935L336.929-132.935L300.513-132.935Q289.717-132.935 281.982-125.120Q274.248-117.305 274.248-106.348L274.248-106.348Z" fill="#f7f3e3" transform="translate(47.736005783081055, 370.5654983520508)"/></svg>