<svg xmlns="http://www.w3.org/2000/svg" viewBox="0 0 512 512"><circle cx="256" cy="256" r="256" fill="#001117"/><path d="M19.336-39.023L19.336-166.641L44.063-166.641L44.063-39.023L19.336-39.023ZM16.406-14.063L16.406-14.063Q16.406-20.391 20.859-24.844Q25.313-29.297 31.641-29.297L31.641-29.297Q38.086-29.297 42.480-24.902Q46.875-20.508 46.875-14.063L46.875-14.063Q46.875-7.617 42.480-3.223Q38.086 1.172 31.641 1.172L31.641 1.172Q25.313 1.172 20.859-3.281Q16.406-7.734 16.406-14.063ZM79.688 0L79.688-166.641L208.945-166.641L208.945-142.031L104.414-142.031L104.414-24.727L208.945-24.727L208.945 0L79.688 0ZM118.477-74.414L118.477-99.023L208.945-99.023L208.945-74.414L118.477-74.414ZM227.695 0L287.344-166.641L318.164-166.641L377.813 0L351.445 0L333.281-50.156L286.758-50.156L295.664-74.766L324.375-74.766L302.813-134.297L254.063 0L227.695 0Z" fill="#f7f3e3" transform="translate(58.8905086517334, 338.73450469970703)"/></svg>