<svg xmlns="http://www.w3.org/2000/svg" viewBox="0 0 512 512"><circle cx="256" cy="256" r="256" fill="#001117"/><path d="M12.305-90.542L12.305-90.542Q12.305-96.079 16.201-99.976Q20.098-103.872 25.635-103.872L25.635-103.872Q31.274-103.872 35.120-100.027Q38.965-96.182 38.965-90.542L38.965-90.542Q38.965-84.902 35.120-81.057Q31.274-77.212 25.635-77.212L25.635-77.212Q19.995-77.212 16.150-81.057Q12.305-84.902 12.305-90.542ZM12.305-12.305L12.305-12.305Q12.305-17.842 16.201-21.738Q20.098-25.635 25.635-25.635L25.635-25.635Q31.274-25.635 35.120-21.790Q38.965-17.944 38.965-12.305L38.965-12.305Q38.965-6.665 35.120-2.820Q31.274 1.025 25.635 1.025L25.635 1.025Q20.098 1.025 16.201-2.871Q12.305-6.768 12.305-12.305ZM65.625 0L65.625-145.811L143.145-145.811Q154.526-145.811 163.909-140.273Q173.291-134.736 178.828-125.457Q184.365-116.177 184.365-104.795L184.365-104.795L184.365-40.605Q184.365-29.429 178.828-20.200Q173.291-10.972 163.909-5.486Q154.526 0 143.145 0L143.145 0L65.625 0ZM87.261-21.636L143.145-21.636Q151.348-21.636 157.090-27.275Q162.832-32.915 162.832-40.913L162.832-40.913L162.832-104.795Q162.832-112.896 157.090-118.586Q151.348-124.277 143.145-124.277L143.145-124.277L87.261-124.277L87.261-21.636ZM208.975 0L208.975-84.697Q208.975-93.618 215.383-99.924Q221.792-106.230 230.815-106.230L230.815-106.230L268.242-106.230Q278.804-106.230 287.520-101.052Q296.235-95.874 301.414-87.158Q306.592-78.442 306.592-67.881L306.592-67.881L306.592 0L284.956 0L284.956-67.573Q284.956-74.751 280.085-79.775Q275.215-84.800 268.242-84.800L268.242-84.800L230.610-84.800L230.610 0L208.975 0Z" fill="#f7f3e3" transform="translate(96.5514907836914, 328.39300537109375)"/></svg>