<svg xmlns="http://www.w3.org/2000/svg" viewBox="0 0 512 512"><circle cx="256" cy="256" r="256" fill="#001117"/><path d="M10.459 0L10.459-111.973L94.541-111.973L94.541 0L10.459 0ZM20.918-10.459L84.082-10.459L84.082-101.514L20.918-101.514L20.918-10.459ZM119.355 0L119.355-145.811L196.875-145.811Q208.257-145.811 217.639-140.273Q227.021-134.736 232.559-125.457Q238.096-116.177 238.096-104.795L238.096-104.795L238.096-40.605Q238.096-29.429 232.559-20.200Q227.021-10.972 217.639-5.486Q208.257 0 196.875 0L196.875 0L119.355 0ZM140.991-21.636L196.875-21.636Q205.078-21.636 210.820-27.275Q216.563-32.915 216.563-40.913L216.563-40.913L216.563-104.795Q216.563-112.896 210.820-118.586Q205.078-124.277 196.875-124.277L196.875-124.277L140.991-124.277L140.991-21.636ZM262.705 0L262.705-84.697Q262.705-93.618 269.114-99.924Q275.522-106.230 284.546-106.230L284.546-106.230L321.973-106.230Q332.534-106.230 341.250-101.052Q349.966-95.874 355.144-87.158Q360.322-78.442 360.322-67.881L360.322-67.881L360.322 0L338.687 0L338.687-67.573Q338.687-74.751 333.816-79.775Q328.945-84.800 321.973-84.800L321.973-84.800L284.341-84.800L284.341 0L262.705 0Z" fill="#f7f3e3" transform="translate(70.60951232910156, 328.90550231933594)"/></svg>