<svg xmlns="http://www.w3.org/2000/svg" viewBox="0 0 512 512"><circle cx="256" cy="256" r="256" fill="#001117"/><path d="M10.459 0L10.459-111.973L94.541-111.973L94.541 0L10.459 0ZM20.918-10.459L84.082-10.459L84.082-101.514L20.918-101.514L20.918-10.459ZM119.355 0L119.355-145.811L196.157-145.811Q206.309-145.811 214.512-140.991Q222.715-136.172 227.585-128.071Q232.456-119.971 232.456-109.922L232.456-109.922L232.456-100.386Q232.456-86.133 224.253-78.750L224.253-78.750Q231.533-74.033 234.814-67.522Q238.096-61.011 238.096-51.270L238.096-51.270L238.096-35.171Q238.096-25.532 233.225-17.534Q228.354-9.536 220.151-4.768Q211.948 0 202.002 0L202.002 0L119.355 0ZM140.991-21.636L202.207-21.636Q208.154-21.636 212.358-25.686Q216.563-29.736 216.563-35.479L216.563-35.479L216.563-51.577Q216.563-57.319 212.358-61.421Q208.154-65.522 202.104-65.522L202.104-65.522L153.296-65.522L153.296-87.056L196.157-87.056Q202.207-87.056 206.565-91.003Q210.923-94.951 210.923-100.591L210.923-100.591L210.923-109.922Q210.923-115.869 206.565-120.073Q202.207-124.277 196.157-124.277L196.157-124.277L140.991-124.277L140.991-21.636ZM261.680 0L261.680-145.811L283.315-145.811L283.315 0L261.680 0Z" fill="#f7f3e3" transform="translate(109.11299133300781, 328.90550231933594)"/></svg>