<svg xmlns="http://www.w3.org/2000/svg" viewBox="0 0 512 512"><circle cx="256" cy="256" r="256" fill="#001117"/><path d="M9.229-124.277L9.229-145.811L72.700-145.811Q81.929-145.811 89.363-141.504Q96.797-137.197 101.155-129.763Q105.513-122.329 105.513-113.101L105.513-113.101L105.513-98.540Q105.513-88.901 102.334-82.083Q99.155-75.264 91.824-70.188Q84.492-65.112 72.085-60.601L72.085-60.601Q61.934-56.807 58.293-54.397Q54.653-51.987 54.653-49.014L54.653-49.014L54.653-31.479L33.018-31.479L33.018-49.014Q33.018-60.293 40.862-67.676Q48.706-75.059 67.983-81.929L67.983-81.929Q76.699-85.005 80.288-88.901Q83.877-92.798 83.877-99.155L83.877-99.155L83.877-113.101Q83.877-117.715 80.596-120.996Q77.314-124.277 72.700-124.277L72.700-124.277L9.229-124.277ZM31.582-11.177L31.582-11.177Q31.582-16.304 35.171-19.841Q38.760-23.379 43.784-23.379L43.784-23.379Q48.911-23.379 52.449-19.841Q55.986-16.304 55.986-11.177L55.986-11.177Q55.986-6.152 52.449-2.563Q48.911 1.025 43.784 1.025L43.784 1.025Q38.760 1.025 35.171-2.563Q31.582-6.152 31.582-11.177ZM132.173 0L132.173-145.811L209.692-145.811Q221.074-145.811 230.457-140.273Q239.839-134.736 245.376-125.457Q250.913-116.177 250.913-104.795L250.913-104.795L250.913-40.605Q250.913-29.429 245.376-20.200Q239.839-10.972 230.457-5.486Q221.074 0 209.692 0L209.692 0L132.173 0ZM153.809-21.636L209.692-21.636Q217.896-21.636 223.638-27.275Q229.380-32.915 229.380-40.913L229.380-40.913L229.380-104.795Q229.380-112.896 223.638-118.586Q217.896-124.277 209.692-124.277L209.692-124.277L153.809-124.277L153.809-21.636ZM275.522 0L275.522-84.697Q275.522-93.618 281.931-99.924Q288.340-106.230 297.363-106.230L297.363-106.230L334.790-106.230Q345.352-106.230 354.067-101.052Q362.783-95.874 367.961-87.158Q373.140-78.442 373.140-67.881L373.140-67.881L373.140 0L351.504 0L351.504-67.573Q351.504-74.751 346.633-79.775Q341.763-84.800 334.790-84.800L334.790-84.800L297.158-84.800L297.158 0L275.522 0Z" fill="#f7f3e3" transform="translate(64.81549453735352, 328.39300537109375)"/></svg>