<svg xmlns="http://www.w3.org/2000/svg" viewBox="0 0 512 512"><circle cx="256" cy="256" r="256" fill="#001117"/><path d="M19.336-39.023L19.336-166.641L44.063-166.641L44.063-39.023L19.336-39.023ZM16.406-14.063L16.406-14.063Q16.406-20.391 20.859-24.844Q25.313-29.297 31.641-29.297L31.641-29.297Q38.086-29.297 42.480-24.902Q46.875-20.508 46.875-14.063L46.875-14.063Q46.875-7.617 42.480-3.223Q38.086 1.172 31.641 1.172L31.641 1.172Q25.313 1.172 20.859-3.281Q16.406-7.734 16.406-14.063ZM79.688 0L79.688-166.641L167.813-166.641Q179.180-166.641 188.496-161.074Q197.813-155.508 203.379-146.250Q208.945-136.992 208.945-125.625L208.945-125.625L208.945-108.984Q208.945-97.852 203.379-88.652Q197.813-79.453 188.496-74.004Q179.180-68.555 167.813-68.555L167.813-68.555L118.477-68.555L118.477-93.164L167.813-93.164Q174.727-93.164 179.531-97.852Q184.336-102.539 184.336-109.336L184.336-109.336L184.336-125.625Q184.336-132.422 179.531-137.227Q174.727-142.031 167.813-142.031L167.813-142.031L104.414-142.031L104.414 0L79.688 0ZM225.938 0L285.586-166.641L316.406-166.641L376.055 0L349.688 0L331.523-50.156L285-50.156L293.906-74.766L322.617-74.766L301.055-134.297L252.305 0L225.938 0Z" fill="#f7f3e3" transform="translate(59.76950645446777, 338.73450469970703)"/></svg>