<svg xmlns="http://www.w3.org/2000/svg" viewBox="0 0 512 512"><circle cx="256" cy="256" r="256" fill="#001117"/><path d="M2.051 4.307L115.972-157.910L140.581-157.910L26.660 4.307L2.051 4.307ZM156.987 0L156.987-145.811L234.507-145.811Q245.889-145.811 255.271-140.273Q264.653-134.736 270.190-125.457Q275.728-116.177 275.728-104.795L275.728-104.795L275.728-40.605Q275.728-29.429 270.190-20.200Q264.653-10.972 255.271-5.486Q245.889 0 234.507 0L234.507 0L156.987 0ZM178.623-21.636L234.507-21.636Q242.710-21.636 248.452-27.275Q254.194-32.915 254.194-40.913L254.194-40.913L254.194-104.795Q254.194-112.896 248.452-118.586Q242.710-124.277 234.507-124.277L234.507-124.277L178.623-124.277L178.623-21.636ZM300.337 0L300.337-84.697Q300.337-93.618 306.746-99.924Q313.154-106.230 322.178-106.230L322.178-106.230L359.604-106.230Q370.166-106.230 378.882-101.052Q387.598-95.874 392.776-87.158Q397.954-78.442 397.954-67.881L397.954-67.881L397.954 0L376.318 0L376.318-67.573Q376.318-74.751 371.448-79.775Q366.577-84.800 359.604-84.800L359.604-84.800L321.973-84.800L321.973 0L300.337 0Z" fill="#f7f3e3" transform="translate(55.99749231338501, 332.80149841308594)"/></svg>