<svg xmlns="http://www.w3.org/2000/svg" viewBox="0 0 512 512"><circle cx="256" cy="256" r="256" fill="#001117"/><path d="M14.355-47.783L14.355-65.830L56.294-65.830L56.294-106.743L74.341-106.743L74.341-65.830L116.279-65.830L116.279-47.783L74.341-47.783L74.341-6.973L56.294-6.973L56.294-47.783L14.355-47.783ZM144.990 0L144.990-145.811L222.510-145.811Q233.892-145.811 243.274-140.273Q252.656-134.736 258.193-125.457Q263.730-116.177 263.730-104.795L263.730-104.795L263.730-40.605Q263.730-29.429 258.193-20.200Q252.656-10.972 243.274-5.486Q233.892 0 222.510 0L222.510 0L144.990 0ZM166.626-21.636L222.510-21.636Q230.713-21.636 236.455-27.275Q242.197-32.915 242.197-40.913L242.197-40.913L242.197-104.795Q242.197-112.896 236.455-118.586Q230.713-124.277 222.510-124.277L222.510-124.277L166.626-124.277L166.626-21.636ZM288.340 0L288.340-84.697Q288.340-93.618 294.749-99.924Q301.157-106.230 310.181-106.230L310.181-106.230L347.607-106.230Q358.169-106.230 366.885-101.052Q375.601-95.874 380.779-87.158Q385.957-78.442 385.957-67.881L385.957-67.881L385.957 0L364.321 0L364.321-67.573Q364.321-74.751 359.451-79.775Q354.580-84.800 347.607-84.800L347.607-84.800L309.976-84.800L309.976 0L288.340 0Z" fill="#f7f3e3" transform="translate(55.8440055847168, 328.90550231933594)"/></svg>