<svg xmlns="http://www.w3.org/2000/svg" viewBox="0 0 512 512"><circle cx="256" cy="256" r="256" fill="#001117"/><path d="M12.305-47.783L12.305-65.830L76.597-65.830L76.597-47.783L12.305-47.783ZM103.257 0L103.257-145.811L180.776-145.811Q192.158-145.811 201.541-140.273Q210.923-134.736 216.460-125.457Q221.997-116.177 221.997-104.795L221.997-104.795L221.997-40.605Q221.997-29.429 216.460-20.200Q210.923-10.972 201.541-5.486Q192.158 0 180.776 0L180.776 0L103.257 0ZM124.893-21.636L180.776-21.636Q188.979-21.636 194.722-27.275Q200.464-32.915 200.464-40.913L200.464-40.913L200.464-104.795Q200.464-112.896 194.722-118.586Q188.979-124.277 180.776-124.277L180.776-124.277L124.893-124.277L124.893-21.636ZM246.606 0L246.606-84.697Q246.606-93.618 253.015-99.924Q259.424-106.230 268.447-106.230L268.447-106.230L305.874-106.230Q316.436-106.230 325.151-101.052Q333.867-95.874 339.045-87.158Q344.224-78.442 344.224-67.881L344.224-67.881L344.224 0L322.588 0L322.588-67.573Q322.588-74.751 317.717-79.775Q312.847-84.800 305.874-84.800L305.874-84.800L268.242-84.800L268.242 0L246.606 0Z" fill="#f7f3e3" transform="translate(77.7354965209961, 328.90550231933594)"/></svg>