<svg xmlns="http://www.w3.org/2000/svg" viewBox="0 0 512 512"><circle cx="256" cy="256" r="256" fill="#001117"/><path d="M2.344 4.922L132.539-180.469L160.664-180.469L30.469 4.922L2.344 4.922ZM179.414 0L179.414-166.641L268.008-166.641Q281.016-166.641 291.738-160.313Q302.461-153.984 308.789-143.379Q315.117-132.773 315.117-119.766L315.117-119.766L315.117-46.406Q315.117-33.633 308.789-23.086Q302.461-12.539 291.738-6.270Q281.016 0 268.008 0L268.008 0L179.414 0ZM204.141-24.727L268.008-24.727Q277.383-24.727 283.945-31.172Q290.508-37.617 290.508-46.758L290.508-46.758L290.508-119.766Q290.508-129.023 283.945-135.527Q277.383-142.031 268.008-142.031L268.008-142.031L204.141-142.031L204.141-24.727ZM340.430-154.453L340.430-154.453Q340.430-160.781 344.883-165.234Q349.336-169.688 355.664-169.688L355.664-169.688Q361.992-169.688 366.445-165.234Q370.898-160.781 370.898-154.453L370.898-154.453Q370.898-148.125 366.445-143.672Q361.992-139.219 355.664-139.219L355.664-139.219Q349.336-139.219 344.883-143.672Q340.430-148.125 340.430-154.453ZM343.242 0L343.242-121.406L368.086-121.406L368.086 0L343.242 0Z" fill="#f7f3e3" transform="translate(69.3789918422699, 343.77349853515625)"/></svg>