<svg xmlns="http://www.w3.org/2000/svg" viewBox="0 0 512 512"><circle cx="256" cy="256" r="256" fill="#001117"/><path d="M16.406-54.609L16.406-75.234L64.336-75.234L64.336-121.992L84.961-121.992L84.961-75.234L132.891-75.234L132.891-54.609L84.961-54.609L84.961-7.969L64.336-7.969L64.336-54.609L16.406-54.609ZM163.359-46.875L163.359-119.766Q163.359-132.773 170.098-143.379Q176.836-153.984 188.086-160.313Q199.336-166.641 213.047-166.641L213.047-166.641L291.914-166.641L291.914-142.031L213.047-142.031Q202.734-142.031 195.410-135.527Q188.086-129.023 188.086-119.883L188.086-119.883L188.086-46.758Q188.086-37.617 195.410-31.113Q202.734-24.609 213.047-24.609L213.047-24.609L252.070-24.609Q262.500-24.609 269.766-31.113Q277.031-37.617 277.031-46.758L277.031-46.758L277.031-68.555L231.797-68.555L231.797-93.164L301.758-93.164L301.758-46.875Q301.758-33.984 295.078-23.320Q288.398-12.656 277.090-6.328Q265.781 0 252.070 0L252.070 0L213.047 0Q199.336 0 188.086-6.328Q176.836-12.656 170.098-23.320Q163.359-33.984 163.359-46.875L163.359-46.875ZM329.883-34.219L329.883-96.328Q329.883-106.758 337.500-114.082Q345.117-121.406 355.781-121.406L355.781-121.406L406.406-121.406Q416.133-121.406 424.043-116.660Q431.953-111.914 436.699-103.887Q441.445-95.859 441.445-86.133L441.445-86.133L441.445-82.734Q441.445-73.125 436.699-65.215Q431.953-57.305 424.043-52.559Q416.133-47.813 406.406-47.813L406.406-47.813L368.672-47.813L368.672-72.422L406.641-72.422Q410.859-72.422 413.848-75.469Q416.836-78.516 416.836-82.852L416.836-82.852L416.836-86.133Q416.836-90.586 413.848-93.633Q410.859-96.680 406.641-96.680L406.641-96.680L354.609-96.680L354.609-34.336Q354.609-30.352 357.305-27.539Q360-24.727 363.867-24.727L363.867-24.727L432.891-24.727L432.891 0L363.867 0Q354.492 0 346.758-4.629Q339.023-9.258 334.453-17.051Q329.883-24.844 329.883-34.219L329.883-34.219Z" fill="#f7f3e3" transform="translate(27.074499130249023, 339.3205032348633)"/></svg>