<svg xmlns="http://www.w3.org/2000/svg" viewBox="0 0 512 512"><circle cx="256" cy="256" r="256" fill="#001117"/><path d="M15.820-116.411L15.820-116.411Q15.820-123.530 20.830-128.540Q25.840-133.550 32.959-133.550L32.959-133.550Q40.210-133.550 45.154-128.606Q50.098-123.662 50.098-116.411L50.098-116.411Q50.098-109.160 45.154-104.216Q40.210-99.272 32.959-99.272L32.959-99.272Q25.708-99.272 20.764-104.216Q15.820-109.160 15.820-116.411ZM15.820-15.820L15.820-15.820Q15.820-22.939 20.830-27.949Q25.840-32.959 32.959-32.959L32.959-32.959Q40.210-32.959 45.154-28.015Q50.098-23.071 50.098-15.820L50.098-15.820Q50.098-8.569 45.154-3.625Q40.210 1.318 32.959 1.318L32.959 1.318Q25.840 1.318 20.830-3.691Q15.820-8.701 15.820-15.820ZM81.738-52.734L81.738-134.736Q81.738-149.370 89.319-161.301Q96.899-173.232 109.556-180.352Q122.212-187.471 137.637-187.471L137.637-187.471L226.362-187.471L226.362-159.785L137.637-159.785Q126.035-159.785 117.795-152.468Q109.556-145.151 109.556-134.868L109.556-134.868L109.556-52.603Q109.556-42.319 117.795-35.002Q126.035-27.686 137.637-27.686L137.637-27.686L181.538-27.686Q193.271-27.686 201.445-35.002Q209.619-42.319 209.619-52.603L209.619-52.603L209.619-77.124L158.730-77.124L158.730-104.810L237.437-104.810L237.437-52.734Q237.437-38.232 229.922-26.235Q222.407-14.238 209.685-7.119Q196.963 0 181.538 0L181.538 0L137.637 0Q122.212 0 109.556-7.119Q96.899-14.238 89.319-26.235Q81.738-38.232 81.738-52.734L81.738-52.734ZM269.077-38.496L269.077-108.369Q269.077-120.103 277.646-128.342Q286.216-136.582 298.213-136.582L298.213-136.582L355.166-136.582Q366.108-136.582 375.007-131.243Q383.906-125.903 389.246-116.873Q394.585-107.842 394.585-96.899L394.585-96.899L394.585-93.076Q394.585-82.266 389.246-73.367Q383.906-64.468 375.007-59.128Q366.108-53.789 355.166-53.789L355.166-53.789L312.715-53.789L312.715-81.475L355.430-81.475Q360.176-81.475 363.538-84.902Q366.899-88.330 366.899-93.208L366.899-93.208L366.899-96.899Q366.899-101.909 363.538-105.337Q360.176-108.765 355.430-108.765L355.430-108.765L296.895-108.765L296.895-38.628Q296.895-34.146 299.927-30.981Q302.959-27.817 307.310-27.817L307.310-27.817L384.961-27.817L384.961 0L307.310 0Q296.763 0 288.062-5.208Q279.360-10.415 274.219-19.182Q269.077-27.949 269.077-38.496L269.077-38.496Z" fill="#f7f3e3" transform="translate(50.797508239746094, 349.07649993896484)"/></svg>