<svg xmlns="http://www.w3.org/2000/svg" viewBox="0 0 512 512"><circle cx="256" cy="256" r="256" fill="#001117"/><path d="M2.051 4.307L115.972-157.910L140.581-157.910L26.660 4.307L2.051 4.307ZM154.937-41.016L154.937-104.795Q154.937-116.177 160.833-125.457Q166.729-134.736 176.572-140.273Q186.416-145.811 198.413-145.811L198.413-145.811L267.422-145.811L267.422-124.277L198.413-124.277Q189.390-124.277 182.981-118.586Q176.572-112.896 176.572-104.897L176.572-104.897L176.572-40.913Q176.572-32.915 182.981-27.224Q189.390-21.533 198.413-21.533L198.413-21.533L232.559-21.533Q241.685-21.533 248.042-27.224Q254.399-32.915 254.399-40.913L254.399-40.913L254.399-59.985L214.819-59.985L214.819-81.519L276.035-81.519L276.035-41.016Q276.035-29.736 270.190-20.405Q264.346-11.074 254.451-5.537Q244.556 0 232.559 0L232.559 0L198.413 0Q186.416 0 176.572-5.537Q166.729-11.074 160.833-20.405Q154.937-29.736 154.937-41.016L154.937-41.016ZM300.645-29.941L300.645-84.287Q300.645-93.413 307.310-99.822Q313.975-106.230 323.306-106.230L323.306-106.230L367.603-106.230Q376.113-106.230 383.035-102.078Q389.956-97.925 394.109-90.901Q398.262-83.877 398.262-75.366L398.262-75.366L398.262-72.393Q398.262-63.984 394.109-57.063Q389.956-50.142 383.035-45.989Q376.113-41.836 367.603-41.836L367.603-41.836L334.585-41.836L334.585-63.369L367.808-63.369Q371.499-63.369 374.114-66.035Q376.729-68.701 376.729-72.495L376.729-72.495L376.729-75.366Q376.729-79.263 374.114-81.929Q371.499-84.595 367.808-84.595L367.808-84.595L322.280-84.595L322.280-30.044Q322.280-26.558 324.639-24.097Q326.997-21.636 330.381-21.636L330.381-21.636L390.776-21.636L390.776 0L330.381 0Q322.178 0 315.410-4.050Q308.643-8.101 304.644-14.919Q300.645-21.738 300.645-29.941L300.645-29.941Z" fill="#f7f3e3" transform="translate(55.84350061416626, 332.80149841308594)"/></svg>