<svg xmlns="http://www.w3.org/2000/svg" viewBox="0 0 512 512"><circle cx="256" cy="256" r="256" fill="#001117"/><path d="M12.305-88.184L12.305-116.997Q12.305-124.995 16.201-131.506Q20.098-138.018 26.660-141.914Q33.223-145.811 41.221-145.811L41.221-145.811L52.295-145.811Q60.293-145.811 66.855-141.914Q73.418-138.018 77.314-131.506Q81.211-124.995 81.211-116.997L81.211-116.997L81.211-88.184Q81.211-80.288 77.314-73.726Q73.418-67.163 66.855-63.267Q60.293-59.370 52.295-59.370L52.295-59.370L41.221-59.370Q33.223-59.370 26.660-63.267Q20.098-67.163 16.201-73.726Q12.305-80.288 12.305-88.184L12.305-88.184ZM44.912 0L147.041-145.811L170.625-145.811L68.496 0L44.912 0ZM31.685-117.100L31.685-88.081Q31.685-84.185 34.504-81.416Q37.324-78.647 41.221-78.647L41.221-78.647L52.295-78.647Q56.294-78.647 59.114-81.416Q61.934-84.185 61.934-88.081L61.934-88.081L61.934-117.100Q61.934-120.996 59.114-123.765Q56.294-126.533 52.295-126.533L52.295-126.533L41.221-126.533Q37.324-126.533 34.504-123.765Q31.685-120.996 31.685-117.100L31.685-117.100ZM134.429-28.813L134.429-57.627Q134.429-65.625 138.325-72.136Q142.222-78.647 148.784-82.544Q155.347-86.440 163.345-86.440L163.345-86.440L174.419-86.440Q182.417-86.440 188.979-82.544Q195.542-78.647 199.438-72.136Q203.335-65.625 203.335-57.627L203.335-57.627L203.335-28.813Q203.335-20.918 199.438-14.355Q195.542-7.793 188.979-3.896Q182.417 0 174.419 0L174.419 0L163.345 0Q155.347 0 148.784-3.896Q142.222-7.793 138.325-14.355Q134.429-20.918 134.429-28.813L134.429-28.813ZM153.809-57.729L153.809-28.711Q153.809-24.814 156.628-22.046Q159.448-19.277 163.345-19.277L163.345-19.277L174.419-19.277Q178.418-19.277 181.238-22.046Q184.058-24.814 184.058-28.711L184.058-28.711L184.058-57.729Q184.058-61.626 181.238-64.395Q178.418-67.163 174.419-67.163L174.419-67.163L163.345-67.163Q159.448-67.163 156.628-64.395Q153.809-61.626 153.809-57.729L153.809-57.729ZM229.995 0L229.995-145.811L251.631-145.811L251.631 0L229.995 0ZM277.266-38.145L277.266-67.881Q277.266-78.442 282.444-87.158Q287.622-95.874 296.338-101.052Q305.054-106.230 315.615-106.230L315.615-106.230L340.942-106.230L340.942-84.595L315.615-84.595Q308.745-84.595 303.823-79.622Q298.901-74.648 298.901-67.676L298.901-67.676L298.901-38.350Q298.901-31.479 303.823-26.558Q308.745-21.636 315.615-21.636L315.615-21.636L353.247-21.636L353.247-145.811L374.883-145.811L374.883-21.636Q374.883-12.715 368.525-6.357Q362.168 0 353.247 0L353.247 0L315.615 0Q305.054 0 296.338-5.178Q287.622-10.356 282.444-19.021Q277.266-27.686 277.266-38.145L277.266-38.145Z" fill="#f7f3e3" transform="translate(62.40599822998047, 328.90550231933594)"/></svg>