<svg xmlns="http://www.w3.org/2000/svg" viewBox="0 0 512 512"><circle cx="256" cy="256" r="256" fill="#001117"/><path d="M22.559-64.131L22.559-229.131L56.396-229.131L56.396-64.131Q56.396-51.563 65.259-42.700Q74.121-33.838 86.528-33.838L86.528-33.838L200.127-33.838L200.127 0L86.528 0Q68.965 0 54.382-8.621Q39.800-17.241 31.179-31.824Q22.559-46.406 22.559-64.131L22.559-64.131ZM224.297-60.586L224.297-106.670Q224.297-123.267 232.676-136.963Q241.055-150.659 255.073-158.796Q269.092-166.934 286.172-166.934L286.172-166.934L380.112-166.934L380.112-132.935L286.172-132.935Q274.731-132.935 266.514-125.120Q258.296-117.305 258.296-106.187L258.296-106.187L258.296-60.908Q258.296-49.790 266.433-41.895Q274.570-33.999 286.172-33.999L286.172-33.999L380.112-33.999L380.112 0L286.172 0Q269.092 0 255.073-8.218Q241.055-16.436 232.676-30.212Q224.297-43.989 224.297-60.586L224.297-60.586Z" fill="#f7f3e3" transform="translate(54.66449546813965, 370.5654983520508)"/></svg>