<svg xmlns="http://www.w3.org/2000/svg" viewBox="0 0 512 512"><circle cx="256" cy="256" r="256" fill="#001117"/><path d="M14.355-41.016L14.355-104.795Q14.355-116.177 20.251-125.457Q26.147-134.736 35.991-140.273Q45.835-145.811 57.832-145.811L57.832-145.811L91.978-145.811Q103.975-145.811 113.870-140.273Q123.765-134.736 129.609-125.457Q135.454-116.177 135.454-104.795L135.454-104.795L135.454-41.016Q135.454-29.736 129.609-20.405Q123.765-11.074 113.870-5.537Q103.975 0 91.978 0L91.978 0L57.832 0Q45.835 0 35.991-5.537Q26.147-11.074 20.251-20.405Q14.355-29.736 14.355-41.016L14.355-41.016ZM35.991-104.897L35.991-40.913Q35.991-32.915 42.400-27.224Q48.809-21.533 57.832-21.533L57.832-21.533L91.978-21.533Q101.104-21.533 107.461-27.224Q113.818-32.915 113.818-40.913L113.818-40.913L113.818-104.897Q113.818-112.896 107.461-118.586Q101.104-124.277 91.978-124.277L91.978-124.277L57.832-124.277Q48.809-124.277 42.400-118.586Q35.991-112.896 35.991-104.897L35.991-104.897ZM161.089-21.636L161.089-145.811L182.725-145.811L182.725-21.636L220.356-21.636Q227.329-21.636 232.200-26.558Q237.070-31.479 237.070-38.350L237.070-38.350L237.070-67.676Q237.070-74.648 232.200-79.622Q227.329-84.595 220.356-84.595L220.356-84.595L195.029-84.595L195.029-106.230L220.356-106.230Q230.918-106.230 239.634-101.052Q248.350-95.874 253.528-87.158Q258.706-78.442 258.706-67.881L258.706-67.881L258.706-38.145Q258.706-27.686 253.528-19.021Q248.350-10.356 239.634-5.178Q230.918 0 220.356 0L220.356 0L182.725 0Q173.804 0 167.446-6.357Q161.089-12.715 161.089-21.636L161.089-21.636Z" fill="#f7f3e3" transform="translate(119.46950149536133, 328.90550231933594)"/></svg>