<svg xmlns="http://www.w3.org/2000/svg" viewBox="0 0 512 512"><circle cx="256" cy="256" r="256" fill="#001117"/><path d="M16.406-54.609L16.406-75.234L64.336-75.234L64.336-121.992L84.961-121.992L84.961-75.234L132.891-75.234L132.891-54.609L84.961-54.609L84.961-7.969L64.336-7.969L64.336-54.609L16.406-54.609ZM165.703-46.875L165.703-119.766Q165.703-132.773 172.441-143.379Q179.180-153.984 190.430-160.313Q201.680-166.641 215.391-166.641L215.391-166.641L254.414-166.641Q268.125-166.641 279.434-160.313Q290.742-153.984 297.422-143.379Q304.102-132.773 304.102-119.766L304.102-119.766L304.102-46.875Q304.102-33.984 297.422-23.320Q290.742-12.656 279.434-6.328Q268.125 0 254.414 0L254.414 0L215.391 0Q201.680 0 190.430-6.328Q179.180-12.656 172.441-23.320Q165.703-33.984 165.703-46.875L165.703-46.875ZM190.430-119.883L190.430-46.758Q190.430-37.617 197.754-31.113Q205.078-24.609 215.391-24.609L215.391-24.609L254.414-24.609Q264.844-24.609 272.109-31.113Q279.375-37.617 279.375-46.758L279.375-46.758L279.375-119.883Q279.375-129.023 272.109-135.527Q264.844-142.031 254.414-142.031L254.414-142.031L215.391-142.031Q205.078-142.031 197.754-135.527Q190.430-129.023 190.430-119.883L190.430-119.883ZM333.398-24.727L333.398-166.641L358.125-166.641L358.125-24.727L401.133-24.727Q409.102-24.727 414.668-30.352Q420.234-35.977 420.234-43.828L420.234-43.828L420.234-77.344Q420.234-85.313 414.668-90.996Q409.102-96.680 401.133-96.680L401.133-96.680L372.188-96.680L372.188-121.406L401.133-121.406Q413.203-121.406 423.164-115.488Q433.125-109.570 439.043-99.609Q444.961-89.648 444.961-77.578L444.961-77.578L444.961-43.594Q444.961-31.641 439.043-21.738Q433.125-11.836 423.164-5.918Q413.203 0 401.133 0L401.133 0L358.125 0Q347.930 0 340.664-7.266Q333.398-14.531 333.398-24.727L333.398-24.727Z" fill="#f7f3e3" transform="translate(25.316503524780273, 339.3205032348633)"/></svg>