<svg xmlns="http://www.w3.org/2000/svg" viewBox="0 0 512 512"><circle cx="256" cy="256" r="256" fill="#001117"/><path d="M14.063-54.609L14.063-75.234L87.539-75.234L87.539-54.609L14.063-54.609ZM118.008 0L118.008-166.641L206.133-166.641Q217.500-166.641 226.816-161.074Q236.133-155.508 241.699-146.250Q247.266-136.992 247.266-125.625L247.266-125.625L247.266-108.984Q247.266-97.852 241.699-88.652Q236.133-79.453 226.816-74.004Q217.500-68.555 206.133-68.555L206.133-68.555L156.797-68.555L156.797-93.164L206.133-93.164Q213.047-93.164 217.852-97.852Q222.656-102.539 222.656-109.336L222.656-109.336L222.656-125.625Q222.656-132.422 217.852-137.227Q213.047-142.031 206.133-142.031L206.133-142.031L142.734-142.031L142.734 0L118.008 0ZM272.461-44.063L272.461-77.578Q272.461-89.648 278.555-99.609Q284.648-109.570 294.844-115.488Q305.039-121.406 317.461-121.406L317.461-121.406L385.781-121.406L385.781-96.680L317.461-96.680Q309.141-96.680 303.164-90.996Q297.188-85.313 297.188-77.227L297.188-77.227L297.188-44.297Q297.188-36.211 303.105-30.469Q309.023-24.727 317.461-24.727L317.461-24.727L385.781-24.727L385.781 0L317.461 0Q305.039 0 294.844-5.977Q284.648-11.953 278.555-21.973Q272.461-31.992 272.461-44.063L272.461-44.063Z" fill="#f7f3e3" transform="translate(56.0779914855957, 339.3205032348633)"/></svg>