<svg xmlns="http://www.w3.org/2000/svg" viewBox="0 0 512 512"><circle cx="256" cy="256" r="256" fill="#001117"/><path d="M36.680-47.109L12.891-47.109Q12.891-62.695 22.676-72.715Q32.461-82.734 47.695-82.734L47.695-82.734Q54.961-82.734 62.520-80.977Q70.078-79.219 80.039-75.117L80.039-75.117Q87.305-72.422 92.168-71.250Q97.031-70.078 101.250-70.078L101.250-70.078Q112.969-70.078 112.969-82.852L112.969-82.852L136.523-82.852Q136.523-65.977 126.738-56.543Q116.953-47.109 99.492-47.109L99.492-47.109Q92.695-47.109 85.547-48.809Q78.398-50.508 65.742-55.078L65.742-55.078Q59.180-57.422 54.902-58.418Q50.625-59.414 47.461-59.414L47.461-59.414Q36.680-59.414 36.680-47.109L36.680-47.109ZM165.820 0L165.820-166.641L253.945-166.641Q265.313-166.641 274.629-161.074Q283.945-155.508 289.512-146.250Q295.078-136.992 295.078-125.625L295.078-125.625L295.078-108.984Q295.078-97.852 289.512-88.652Q283.945-79.453 274.629-74.004Q265.313-68.555 253.945-68.555L253.945-68.555L204.609-68.555L204.609-93.164L253.945-93.164Q260.859-93.164 265.664-97.852Q270.469-102.539 270.469-109.336L270.469-109.336L270.469-125.625Q270.469-132.422 265.664-137.227Q260.859-142.031 253.945-142.031L253.945-142.031L190.547-142.031L190.547 0L165.820 0ZM320.273-44.063L320.273-77.578Q320.273-89.648 326.367-99.609Q332.461-109.570 342.656-115.488Q352.852-121.406 365.273-121.406L365.273-121.406L433.594-121.406L433.594-96.680L365.273-96.680Q356.953-96.680 350.977-90.996Q345-85.313 345-77.227L345-77.227L345-44.297Q345-36.211 350.918-30.469Q356.836-24.727 365.273-24.727L365.273-24.727L433.594-24.727L433.594 0L365.273 0Q352.852 0 342.656-5.977Q332.461-11.953 326.367-21.973Q320.273-31.992 320.273-44.063L320.273-44.063Z" fill="#f7f3e3" transform="translate(32.7574987411499, 339.3205032348633)"/></svg>