<svg xmlns="http://www.w3.org/2000/svg" viewBox="0 0 512 512"><circle cx="256" cy="256" r="256" fill="#001117"/><path d="M10.547-142.031L10.547-166.641L83.086-166.641Q93.633-166.641 102.129-161.719Q110.625-156.797 115.605-148.301Q120.586-139.805 120.586-129.258L120.586-129.258L120.586-112.617Q120.586-101.602 116.953-93.809Q113.320-86.016 104.941-80.215Q96.563-74.414 82.383-69.258L82.383-69.258Q70.781-64.922 66.621-62.168Q62.461-59.414 62.461-56.016L62.461-56.016L62.461-35.977L37.734-35.977L37.734-56.016Q37.734-68.906 46.699-77.344Q55.664-85.781 77.695-93.633L77.695-93.633Q87.656-97.148 91.758-101.602Q95.859-106.055 95.859-113.320L95.859-113.320L95.859-129.258Q95.859-134.531 92.109-138.281Q88.359-142.031 83.086-142.031L83.086-142.031L10.547-142.031ZM36.094-12.773L36.094-12.773Q36.094-18.633 40.195-22.676Q44.297-26.719 50.039-26.719L50.039-26.719Q55.898-26.719 59.941-22.676Q63.984-18.633 63.984-12.773L63.984-12.773Q63.984-7.031 59.941-2.930Q55.898 1.172 50.039 1.172L50.039 1.172Q44.297 1.172 40.195-2.930Q36.094-7.031 36.094-12.773ZM151.055 0L151.055-166.641L239.180-166.641Q250.547-166.641 259.863-161.074Q269.180-155.508 274.746-146.250Q280.313-136.992 280.313-125.625L280.313-125.625L280.313-108.984Q280.313-97.852 274.746-88.652Q269.180-79.453 259.863-74.004Q250.547-68.555 239.180-68.555L239.180-68.555L189.844-68.555L189.844-93.164L239.180-93.164Q246.094-93.164 250.898-97.852Q255.703-102.539 255.703-109.336L255.703-109.336L255.703-125.625Q255.703-132.422 250.898-137.227Q246.094-142.031 239.180-142.031L239.180-142.031L175.781-142.031L175.781 0L151.055 0ZM305.508-44.063L305.508-77.578Q305.508-89.648 311.602-99.609Q317.695-109.570 327.891-115.488Q338.086-121.406 350.508-121.406L350.508-121.406L418.828-121.406L418.828-96.680L350.508-96.680Q342.188-96.680 336.211-90.996Q330.234-85.313 330.234-77.227L330.234-77.227L330.234-44.297Q330.234-36.211 336.152-30.469Q342.070-24.727 350.508-24.727L350.508-24.727L418.828-24.727L418.828 0L350.508 0Q338.086 0 327.891-5.977Q317.695-11.953 311.602-21.973Q305.508-31.992 305.508-44.063L305.508-44.063Z" fill="#f7f3e3" transform="translate(41.31249713897705, 338.73450469970703)"/></svg>