<svg xmlns="http://www.w3.org/2000/svg" viewBox="0 0 512 512"><circle cx="256" cy="256" r="256" fill="#001117"/><path d="M10.547-142.031L10.547-166.641L83.086-166.641Q93.633-166.641 102.129-161.719Q110.625-156.797 115.605-148.301Q120.586-139.805 120.586-129.258L120.586-129.258L120.586-112.617Q120.586-101.602 116.953-93.809Q113.320-86.016 104.941-80.215Q96.563-74.414 82.383-69.258L82.383-69.258Q70.781-64.922 66.621-62.168Q62.461-59.414 62.461-56.016L62.461-56.016L62.461-35.977L37.734-35.977L37.734-56.016Q37.734-68.906 46.699-77.344Q55.664-85.781 77.695-93.633L77.695-93.633Q87.656-97.148 91.758-101.602Q95.859-106.055 95.859-113.320L95.859-113.320L95.859-129.258Q95.859-134.531 92.109-138.281Q88.359-142.031 83.086-142.031L83.086-142.031L10.547-142.031ZM36.094-12.773L36.094-12.773Q36.094-18.633 40.195-22.676Q44.297-26.719 50.039-26.719L50.039-26.719Q55.898-26.719 59.941-22.676Q63.984-18.633 63.984-12.773L63.984-12.773Q63.984-7.031 59.941-2.930Q55.898 1.172 50.039 1.172L50.039 1.172Q44.297 1.172 40.195-2.930Q36.094-7.031 36.094-12.773ZM151.055 0L151.055-166.641L239.180-166.641Q250.547-166.641 259.863-161.074Q269.180-155.508 274.746-146.250Q280.313-136.992 280.313-125.625L280.313-125.625L280.313-108.984Q280.313-97.617 274.863-88.477Q269.414-79.336 260.039-73.945Q250.664-68.555 239.063-68.555L239.063-68.555L288.750 0L258.633 0L208.945-68.555L189.844-68.555L189.844-93.164L239.180-93.164Q246.094-93.164 250.898-97.910Q255.703-102.656 255.703-109.336L255.703-109.336L255.703-125.625Q255.703-132.422 250.898-137.227Q246.094-142.031 239.180-142.031L239.180-142.031L175.781-142.031L175.781 0L151.055 0ZM308.672-43.828L308.672-77.578Q308.672-89.648 314.590-99.609Q320.508-109.570 330.469-115.488Q340.430-121.406 352.500-121.406L352.500-121.406L378.984-121.406Q391.055-121.406 401.016-115.488Q410.977-109.570 416.895-99.609Q422.813-89.648 422.813-77.578L422.813-77.578L422.813-43.828Q422.813-31.758 416.895-21.797Q410.977-11.836 401.016-5.918Q391.055 0 378.984 0L378.984 0L352.500 0Q340.430 0 330.469-5.918Q320.508-11.836 314.590-21.797Q308.672-31.758 308.672-43.828L308.672-43.828ZM333.398-77.344L333.398-44.063Q333.398-36.094 339.023-30.410Q344.648-24.727 352.500-24.727L352.500-24.727L378.984-24.727Q386.953-24.727 392.520-30.410Q398.086-36.094 398.086-44.063L398.086-44.063L398.086-77.344Q398.086-85.313 392.520-90.996Q386.953-96.680 378.984-96.680L378.984-96.680L352.500-96.680Q344.648-96.680 339.023-90.996Q333.398-85.313 333.398-77.344L333.398-77.344Z" fill="#f7f3e3" transform="translate(39.3200044631958, 338.73450469970703)"/></svg>