<svg xmlns="http://www.w3.org/2000/svg" viewBox="0 0 512 512"><circle cx="256" cy="256" r="256" fill="#001117"/><path d="M12.891-12.656L12.891-37.148L88.945-64.805L12.891-92.578L12.891-116.953L131.250-73.945L131.250-55.664L12.891-12.656ZM160.547 0L160.547-166.641L248.672-166.641Q260.039-166.641 269.355-161.074Q278.672-155.508 284.238-146.250Q289.805-136.992 289.805-125.625L289.805-125.625L289.805-108.984Q289.805-97.852 284.238-88.652Q278.672-79.453 269.355-74.004Q260.039-68.555 248.672-68.555L248.672-68.555L199.336-68.555L199.336-93.164L248.672-93.164Q255.586-93.164 260.391-97.852Q265.195-102.539 265.195-109.336L265.195-109.336L265.195-125.625Q265.195-132.422 260.391-137.227Q255.586-142.031 248.672-142.031L248.672-142.031L185.273-142.031L185.273 0L160.547 0ZM315-43.828L315-77.578Q315-89.648 320.918-99.609Q326.836-109.570 336.797-115.488Q346.758-121.406 358.828-121.406L358.828-121.406L385.313-121.406Q397.383-121.406 407.344-115.488Q417.305-109.570 423.223-99.609Q429.141-89.648 429.141-77.578L429.141-77.578L429.141-43.828Q429.141-31.758 423.223-21.797Q417.305-11.836 407.344-5.918Q397.383 0 385.313 0L385.313 0L358.828 0Q346.758 0 336.797-5.918Q326.836-11.836 320.918-21.797Q315-31.758 315-43.828L315-43.828ZM339.727-77.344L339.727-44.063Q339.727-36.094 345.352-30.410Q350.977-24.727 358.828-24.727L358.828-24.727L385.313-24.727Q393.281-24.727 398.848-30.410Q404.414-36.094 404.414-44.063L404.414-44.063L404.414-77.344Q404.414-85.313 398.848-90.996Q393.281-96.680 385.313-96.680L385.313-96.680L358.828-96.680Q350.977-96.680 345.352-90.996Q339.727-85.313 339.727-77.344L339.727-77.344Z" fill="#f7f3e3" transform="translate(34.98400020599365, 339.3205032348633)"/></svg>