<svg xmlns="http://www.w3.org/2000/svg" viewBox="0 0 512 512"><circle cx="256" cy="256" r="256" fill="#001117"/><path d="M22.559 0L22.559-229.131L143.730-229.131Q159.360-229.131 172.170-221.477Q184.980-213.823 192.634-201.094Q200.288-188.364 200.288-172.734L200.288-172.734L200.288-149.854Q200.288-134.546 192.634-121.897Q184.980-109.248 172.170-101.755Q159.360-94.263 143.730-94.263L143.730-94.263L75.894-94.263L75.894-128.101L143.730-128.101Q153.237-128.101 159.844-134.546Q166.450-140.991 166.450-150.337L166.450-150.337L166.450-172.734Q166.450-182.080 159.844-188.687Q153.237-195.293 143.730-195.293L143.730-195.293L56.558-195.293L56.558 0L22.559 0ZM234.932-60.264L234.932-106.670Q234.932-123.267 243.069-136.963Q251.206-150.659 264.902-158.796Q278.599-166.934 295.195-166.934L295.195-166.934L331.611-166.934Q348.208-166.934 361.904-158.796Q375.601-150.659 383.738-136.963Q391.875-123.267 391.875-106.670L391.875-106.670L391.875-60.264Q391.875-43.667 383.738-29.971Q375.601-16.274 361.904-8.137Q348.208 0 331.611 0L331.611 0L295.195 0Q278.599 0 264.902-8.137Q251.206-16.274 243.069-29.971Q234.932-43.667 234.932-60.264L234.932-60.264ZM268.931-106.348L268.931-60.586Q268.931-49.629 276.665-41.814Q284.399-33.999 295.195-33.999L295.195-33.999L331.611-33.999Q342.568-33.999 350.222-41.814Q357.876-49.629 357.876-60.586L357.876-60.586L357.876-106.348Q357.876-117.305 350.222-125.120Q342.568-132.935 331.611-132.935L331.611-132.935L295.195-132.935Q284.399-132.935 276.665-125.120Q268.931-117.305 268.931-106.348L268.931-106.348Z" fill="#f7f3e3" transform="translate(48.78299522399902, 370.5654983520508)"/></svg>