<svg xmlns="http://www.w3.org/2000/svg" viewBox="0 0 512 512"><circle cx="256" cy="256" r="256" fill="#001117"/><path d="M14.502-62.622L14.502-83.188L147.656-131.572L147.656-104.150L62.095-72.905L147.656-41.792L147.656-14.238L14.502-62.622ZM180.615-52.734L180.615-134.736Q180.615-149.370 188.196-161.301Q195.776-173.232 208.433-180.352Q221.089-187.471 236.514-187.471L236.514-187.471L280.415-187.471Q295.840-187.471 308.562-180.352Q321.284-173.232 328.799-161.301Q336.313-149.370 336.313-134.736L336.313-134.736L336.313-52.734Q336.313-39.419 329.919-28.147Q323.525-16.875 312.517-9.492Q301.509-2.109 287.534-0.396L287.534-0.396L304.146 16.216L284.502 35.991L248.511 0L236.514 0Q221.089 0 208.433-7.119Q195.776-14.238 188.196-26.235Q180.615-38.232 180.615-52.734L180.615-52.734ZM208.433-134.868L208.433-52.603Q208.433-42.319 216.672-35.002Q224.912-27.686 236.514-27.686L236.514-27.686L280.415-27.686Q292.148-27.686 300.322-35.002Q308.496-42.319 308.496-52.603L308.496-52.603L308.496-134.868Q308.496-145.151 300.322-152.468Q292.148-159.785 280.415-159.785L280.415-159.785L236.514-159.785Q224.912-159.785 216.672-152.468Q208.433-145.151 208.433-134.868L208.433-134.868ZM370.591 0L370.591-187.471L398.408-187.471L398.408 0L370.591 0Z" fill="#f7f3e3" transform="translate(49.54501247406006, 331.73999786376953)"/></svg>