<svg xmlns="http://www.w3.org/2000/svg" viewBox="0 0 512 512"><circle cx="256" cy="256" r="256" fill="#001117"/><path d="M11.865-159.785L11.865-187.471L93.472-187.471Q105.337-187.471 114.895-181.934Q124.453-176.396 130.056-166.838Q135.659-157.280 135.659-145.415L135.659-145.415L135.659-126.694Q135.659-114.302 131.572-105.535Q127.485-96.768 118.059-90.242Q108.633-83.716 92.681-77.915L92.681-77.915Q79.629-73.037 74.949-69.939Q70.269-66.841 70.269-63.018L70.269-63.018L70.269-40.474L42.451-40.474L42.451-63.018Q42.451-77.520 52.537-87.012Q62.622-96.504 87.407-105.337L87.407-105.337Q98.613-109.292 103.228-114.302Q107.842-119.312 107.842-127.485L107.842-127.485L107.842-145.415Q107.842-151.348 103.623-155.566Q99.404-159.785 93.472-159.785L93.472-159.785L11.865-159.785ZM40.605-14.370L40.605-14.370Q40.605-20.962 45.220-25.510Q49.834-30.059 56.294-30.059L56.294-30.059Q62.886-30.059 67.434-25.510Q71.982-20.962 71.982-14.370L71.982-14.370Q71.982-7.910 67.434-3.296Q62.886 1.318 56.294 1.318L56.294 1.318Q49.834 1.318 45.220-3.296Q40.605-7.910 40.605-14.370ZM169.937-52.734L169.937-134.736Q169.937-149.370 177.517-161.301Q185.098-173.232 197.754-180.352Q210.410-187.471 225.835-187.471L225.835-187.471L269.736-187.471Q285.161-187.471 297.883-180.352Q310.605-173.232 318.120-161.301Q325.635-149.370 325.635-134.736L325.635-134.736L325.635-52.734Q325.635-39.419 319.241-28.147Q312.847-16.875 301.838-9.492Q290.830-2.109 276.855-0.396L276.855-0.396L293.467 16.216L273.823 35.991L237.832 0L225.835 0Q210.410 0 197.754-7.119Q185.098-14.238 177.517-26.235Q169.937-38.232 169.937-52.734L169.937-52.734ZM197.754-134.868L197.754-52.603Q197.754-42.319 205.994-35.002Q214.233-27.686 225.835-27.686L225.835-27.686L269.736-27.686Q281.470-27.686 289.644-35.002Q297.817-42.319 297.817-52.603L297.817-52.603L297.817-134.868Q297.817-145.151 289.644-152.468Q281.470-159.785 269.736-159.785L269.736-159.785L225.835-159.785Q214.233-159.785 205.994-152.468Q197.754-145.151 197.754-134.868L197.754-134.868ZM359.912 0L359.912-187.471L387.729-187.471L387.729 0L359.912 0Z" fill="#f7f3e3" transform="translate(56.202993392944336, 331.73999786376953)"/></svg>