<svg xmlns="http://www.w3.org/2000/svg" viewBox="0 0 512 512"><circle cx="256" cy="256" r="256" fill="#001117"/><path d="M36.680-47.109L12.891-47.109Q12.891-62.695 22.676-72.715Q32.461-82.734 47.695-82.734L47.695-82.734Q54.961-82.734 62.520-80.977Q70.078-79.219 80.039-75.117L80.039-75.117Q87.305-72.422 92.168-71.250Q97.031-70.078 101.250-70.078L101.250-70.078Q112.969-70.078 112.969-82.852L112.969-82.852L136.523-82.852Q136.523-65.977 126.738-56.543Q116.953-47.109 99.492-47.109L99.492-47.109Q92.695-47.109 85.547-48.809Q78.398-50.508 65.742-55.078L65.742-55.078Q59.180-57.422 54.902-58.418Q50.625-59.414 47.461-59.414L47.461-59.414Q36.680-59.414 36.680-47.109L36.680-47.109ZM165.820 0L165.820-166.641L253.945-166.641Q265.313-166.641 274.629-161.074Q283.945-155.508 289.512-146.250Q295.078-136.992 295.078-125.625L295.078-125.625L295.078-108.984Q295.078-97.617 289.629-88.477Q284.180-79.336 274.805-73.945Q265.430-68.555 253.828-68.555L253.828-68.555L303.516 0L273.398 0L223.711-68.555L204.609-68.555L204.609-93.164L253.945-93.164Q260.859-93.164 265.664-97.910Q270.469-102.656 270.469-109.336L270.469-109.336L270.469-125.625Q270.469-132.422 265.664-137.227Q260.859-142.031 253.945-142.031L253.945-142.031L190.547-142.031L190.547 0L165.820 0ZM323.438 45.234L323.438-96.680Q323.438-106.875 330.703-114.141Q337.969-121.406 348.164-121.406L348.164-121.406L391.172-121.406Q403.242-121.406 413.203-115.488Q423.164-109.570 429.082-99.727Q435-89.883 435-77.813L435-77.813L435-43.828Q435-31.758 429.082-21.797Q423.164-11.836 413.203-5.918Q403.242 0 391.172 0L391.172 0L362.227 0L362.227-24.727L391.172-24.727Q399.141-24.727 404.707-30.410Q410.273-36.094 410.273-44.063L410.273-44.063L410.273-77.578Q410.273-85.547 404.707-91.113Q399.141-96.680 391.172-96.680L391.172-96.680L348.164-96.680L348.164 45.234L323.438 45.234Z" fill="#f7f3e3" transform="translate(32.0544958114624, 316.70350646972656)"/></svg>