<svg xmlns="http://www.w3.org/2000/svg" viewBox="0 0 512 512"><circle cx="256" cy="256" r="256" fill="#001117"/><path d="M11.953 0L11.953-127.969L108.047-127.969L108.047 0L11.953 0ZM23.906-11.953L96.094-11.953L96.094-116.016L23.906-116.016L23.906-11.953ZM136.406 0L136.406-166.641L224.531-166.641Q235.898-166.641 245.215-161.074Q254.531-155.508 260.098-146.250Q265.664-136.992 265.664-125.625L265.664-125.625L265.664-108.984Q265.664-97.617 260.215-88.477Q254.766-79.336 245.391-73.945Q236.016-68.555 224.414-68.555L224.414-68.555L274.102 0L243.984 0L194.297-68.555L175.195-68.555L175.195-93.164L224.531-93.164Q231.445-93.164 236.250-97.910Q241.055-102.656 241.055-109.336L241.055-109.336L241.055-125.625Q241.055-132.422 236.250-137.227Q231.445-142.031 224.531-142.031L224.531-142.031L161.133-142.031L161.133 0L136.406 0ZM294.023 45.234L294.023-96.680Q294.023-106.875 301.289-114.141Q308.555-121.406 318.750-121.406L318.750-121.406L361.758-121.406Q373.828-121.406 383.789-115.488Q393.750-109.570 399.668-99.727Q405.586-89.883 405.586-77.813L405.586-77.813L405.586-43.828Q405.586-31.758 399.668-21.797Q393.750-11.836 383.789-5.918Q373.828 0 361.758 0L361.758 0L332.813 0L332.813-24.727L361.758-24.727Q369.727-24.727 375.293-30.410Q380.859-36.094 380.859-44.063L380.859-44.063L380.859-77.578Q380.859-85.547 375.293-91.113Q369.727-96.680 361.758-96.680L361.758-96.680L318.750-96.680L318.750 45.234L294.023 45.234Z" fill="#f7f3e3" transform="translate(47.230502128601074, 316.70350646972656)"/></svg>