<svg xmlns="http://www.w3.org/2000/svg" viewBox="0 0 512 512"><circle cx="256" cy="256" r="256" fill="#001117"/><path d="M24.609 0L24.609-249.961L156.797-249.961Q173.848-249.961 187.822-241.611Q201.797-233.262 210.146-219.375Q218.496-205.488 218.496-188.438L218.496-188.438L218.496-163.477Q218.496-146.426 210.322-132.715Q202.148-119.004 188.086-110.918Q174.023-102.832 156.621-102.832L156.621-102.832L231.152 0L185.977 0L111.445-102.832L82.793-102.832L82.793-139.746L156.797-139.746Q167.168-139.746 174.375-146.865Q181.582-153.984 181.582-164.004L181.582-164.004L181.582-188.438Q181.582-198.633 174.375-205.840Q167.168-213.047 156.797-213.047L156.797-213.047L61.699-213.047L61.699 0L24.609 0ZM261.035 67.852L261.035-145.020Q261.035-160.313 271.934-171.211Q282.832-182.109 298.125-182.109L298.125-182.109L362.637-182.109Q380.742-182.109 395.684-173.232Q410.625-164.355 419.502-149.590Q428.379-134.824 428.379-116.719L428.379-116.719L428.379-65.742Q428.379-47.637 419.502-32.695Q410.625-17.754 395.684-8.877Q380.742 0 362.637 0L362.637 0L319.219 0L319.219-37.090L362.637-37.090Q374.590-37.090 382.939-45.615Q391.289-54.141 391.289-66.094L391.289-66.094L391.289-116.367Q391.289-128.320 382.939-136.670Q374.590-145.020 362.637-145.020L362.637-145.020L298.125-145.020L298.125 67.852L261.035 67.852Z" fill="#f7f3e3" transform="translate(29.506006240844727, 347.05450439453125)"/></svg>