<svg xmlns="http://www.w3.org/2000/svg" viewBox="0 0 512 512"><circle cx="256" cy="256" r="256" fill="#001117"/><path d="M16.406-54.609L16.406-75.234L64.336-75.234L64.336-121.992L84.961-121.992L84.961-75.234L132.891-75.234L132.891-54.609L84.961-54.609L84.961-7.969L64.336-7.969L64.336-54.609L16.406-54.609ZM165.703 0L165.703-166.641L253.828-166.641Q265.195-166.641 274.512-161.074Q283.828-155.508 289.395-146.250Q294.961-136.992 294.961-125.625L294.961-125.625L294.961-108.984Q294.961-97.617 289.512-88.477Q284.063-79.336 274.688-73.945Q265.313-68.555 253.711-68.555L253.711-68.555L303.398 0L273.281 0L223.594-68.555L204.492-68.555L204.492-93.164L253.828-93.164Q260.742-93.164 265.547-97.910Q270.352-102.656 270.352-109.336L270.352-109.336L270.352-125.625Q270.352-132.422 265.547-137.227Q260.742-142.031 253.828-142.031L253.828-142.031L190.430-142.031L190.430 0L165.703 0ZM323.320 45.234L323.320-96.680Q323.320-106.875 330.586-114.141Q337.852-121.406 348.047-121.406L348.047-121.406L391.055-121.406Q403.125-121.406 413.086-115.488Q423.047-109.570 428.965-99.727Q434.883-89.883 434.883-77.813L434.883-77.813L434.883-43.828Q434.883-31.758 428.965-21.797Q423.047-11.836 413.086-5.918Q403.125 0 391.055 0L391.055 0L362.109 0L362.109-24.727L391.055-24.727Q399.023-24.727 404.590-30.410Q410.156-36.094 410.156-44.063L410.156-44.063L410.156-77.578Q410.156-85.547 404.590-91.113Q399.023-96.680 391.055-96.680L391.055-96.680L348.047-96.680L348.047 45.234L323.320 45.234Z" fill="#f7f3e3" transform="translate(30.355504989624023, 316.70350646972656)"/></svg>