<svg xmlns="http://www.w3.org/2000/svg" viewBox="0 0 512 512"><circle cx="256" cy="256" r="256" fill="#001117"/><path d="M17.578-142.529L17.578-157.910Q17.578-171.826 24.536-183.252Q31.494-194.678 43.286-201.489Q55.078-208.301 69.287-208.301L69.287-208.301L177.100-208.301L177.100-177.539L69.287-177.539Q60.791-177.539 54.639-171.533Q48.486-165.527 48.486-157.031L48.486-157.031L48.486-142.676Q48.486-134.912 54.639-129.346Q60.791-123.779 69.287-123.779L69.287-123.779L135.645-123.779Q150-123.779 161.719-116.968Q173.438-110.156 180.396-98.657Q187.354-87.158 187.354-73.242L187.354-73.242L187.354-50.537Q187.354-36.621 180.396-25.122Q173.438-13.623 161.719-6.812Q150 0 135.645 0L135.645 0L17.725 0L17.725-30.908L135.645-30.908Q144.287-30.908 150.366-36.694Q156.445-42.480 156.445-50.684L156.445-50.684L156.445-73.096Q156.445-81.299 150.366-87.158Q144.287-93.018 135.645-93.018L135.645-93.018L69.287-93.018Q55.078-93.018 43.286-99.683Q31.494-106.348 24.536-117.627Q17.578-128.906 17.578-142.529L17.578-142.529ZM221.045-54.492L221.045-96.973Q221.045-112.061 228.442-124.512Q235.840-136.963 248.291-144.360Q260.742-151.758 275.830-151.758L275.830-151.758L312.012-151.758L312.012-120.850L275.830-120.850Q266.016-120.850 258.984-113.745Q251.953-106.641 251.953-96.680L251.953-96.680L251.953-54.785Q251.953-44.971 258.984-37.939Q266.016-30.908 275.830-30.908L275.830-30.908L329.590-30.908L329.590-208.301L360.498-208.301L360.498-30.908Q360.498-18.164 351.416-9.082Q342.334 0 329.590 0L329.590 0L275.830 0Q260.742 0 248.291-7.397Q235.840-14.795 228.442-27.173Q221.045-39.551 221.045-54.492L221.045-54.492Z" fill="#f7f3e3" transform="translate(66.96200942993164, 360.15049743652344)"/></svg>