<svg xmlns="http://www.w3.org/2000/svg" viewBox="0 0 512 512"><circle cx="256" cy="256" r="256" fill="#001117"/><path d="M16.406-54.609L16.406-75.234L64.336-75.234L64.336-121.992L84.961-121.992L84.961-75.234L132.891-75.234L132.891-54.609L84.961-54.609L84.961-7.969L64.336-7.969L64.336-54.609L16.406-54.609ZM153.984-142.031L153.984-166.641L289.688-166.641L289.688-142.031L234.258-142.031L234.258 0L209.414 0L209.414-142.031L153.984-142.031ZM299.063 0L348.516-60.820L299.063-121.406L330.586-121.406L364.688-79.336L398.789-121.406L430.195-121.406L380.859-60.820L430.195 0L398.906 0L364.688-42.070L330.469 0L299.063 0Z" fill="#f7f3e3" transform="translate(32.69949913024902, 339.3205032348633)"/></svg>