<svg xmlns="http://www.w3.org/2000/svg" viewBox="0 0 512 512"><circle cx="256" cy="256" r="256" fill="#001117"/><path d="M10.459 0L10.459-111.973L94.541-111.973L94.541 0L10.459 0ZM20.918-10.459L84.082-10.459L84.082-101.514L20.918-101.514L20.918-10.459ZM119.355 0L119.355-145.811L196.465-145.811Q206.411-145.811 214.563-140.940Q222.715-136.069 227.585-127.969Q232.456-119.868 232.456-109.922L232.456-109.922L232.456-95.361Q232.456-85.620 227.585-77.571Q222.715-69.521 214.563-64.753Q206.411-59.985 196.465-59.985L196.465-59.985L153.296-59.985L153.296-81.519L196.465-81.519Q202.515-81.519 206.719-85.620Q210.923-89.722 210.923-95.669L210.923-95.669L210.923-109.922Q210.923-115.869 206.719-120.073Q202.515-124.277 196.465-124.277L196.465-124.277L140.991-124.277L140.991 0L119.355 0ZM247.324 0L299.517-145.811L326.484-145.811L378.677 0L355.605 0L339.712-43.887L299.004-43.887L306.797-65.420L331.919-65.420L313.052-117.510L270.396 0L247.324 0Z" fill="#f7f3e3" transform="translate(61.43199157714844, 328.90550231933594)"/></svg>