solid exported
	facet normal 0 -1 0
		outer loop
			vertex 0 0 0.25
			vertex 0 0 0
			vertex 4 0 0
		endloop
	endfacet
	facet normal 0 0 -1
		outer loop
			vertex 0 2 0
			vertex 4 0 0
			vertex 0 0 0
		endloop
	endfacet
	facet normal -1 0 0
		outer loop
			vertex 0 0 0.25
			vertex 0 2 0.25
			vertex 0 0 0
		endloop
	endfacet
	facet normal 0 0 1
		outer loop
			vertex 0 2 0.25
			vertex 0 0 0.25
			vertex 4 0 0.25
		endloop
	endfacet
	facet normal -1 0 0
		outer loop
			vertex 0 2 0.25
			vertex 0 2 0
			vertex 0 0 0
		endloop
	endfacet
	facet normal 0 1 0
		outer loop
			vertex 0 2 0.25
			vertex 4 2 0.25
			vertex 0 2 0
		endloop
	endfacet
	facet normal 1 0 0
		outer loop
			vertex 4 0 0.25
			vertex 4 0 0
			vertex 4 2 0
		endloop
	endfacet
	facet normal 0 -1 0
		outer loop
			vertex 4 0 0.25
			vertex 0 0 0.25
			vertex 4 0 0
		endloop
	endfacet
	facet normal 0 0 -1
		outer loop
			vertex 4 2 0
			vertex 4 0 0
			vertex 0 2 0
		endloop
	endfacet
	facet normal 0 1 0
		outer loop
			vertex 4 2 0.25
			vertex 4 2 0
			vertex 0 2 0
		endloop
	endfacet
	facet normal 0 0 1
		outer loop
			vertex 4 2 0.25
			vertex 0 2 0.25
			vertex 4 0 0.25
		endloop
	endfacet
	facet normal 1 0 0
		outer loop
			vertex 4 2 0.25
			vertex 4 0 0.25
			vertex 4 2 0
		endloop
	endfacet
endsolid exported
