solid exported
	facet normal 0 -1 0
		outer loop
			vertex 0 0 3.75
			vertex 0 0 3.5
			vertex 6 0 3.5
		endloop
	endfacet
	facet normal 0 0 -1
		outer loop
			vertex 0 4 3.5
			vertex 6 0 3.5
			vertex 0 0 3.5
		endloop
	endfacet
	facet normal -1 0 0
		outer loop
			vertex 0 0 3.75
			vertex 0 4 3.75
			vertex 0 0 3.5
		endloop
	endfacet
	facet normal 0 0 1
		outer loop
			vertex 0 4 3.75
			vertex 0 0 3.75
			vertex 6 0 3.75
		endloop
	endfacet
	facet normal -1 0 0
		outer loop
			vertex 0 4 3.75
			vertex 0 4 3.5
			vertex 0 0 3.5
		endloop
	endfacet
	facet normal 0 1 0
		outer loop
			vertex 0 4 3.75
			vertex 6 4 3.75
			vertex 0 4 3.5
		endloop
	endfacet
	facet normal 1 0 0
		outer loop
			vertex 6 0 3.75
			vertex 6 0 3.5
			vertex 6 4 3.5
		endloop
	endfacet
	facet normal 0 -1 0
		outer loop
			vertex 6 0 3.75
			vertex 0 0 3.75
			vertex 6 0 3.5
		endloop
	endfacet
	facet normal 0 0 -1
		outer loop
			vertex 6 4 3.5
			vertex 6 0 3.5
			vertex 0 4 3.5
		endloop
	endfacet
	facet normal 0 1 0
		outer loop
			vertex 6 4 3.75
			vertex 6 4 3.5
			vertex 0 4 3.5
		endloop
	endfacet
	facet normal 0 0 1
		outer loop
			vertex 6 4 3.75
			vertex 0 4 3.75
			vertex 6 0 3.75
		endloop
	endfacet
	facet normal 1 0 0
		outer loop
			vertex 6 4 3.75
			vertex 6 0 3.75
			vertex 6 4 3.5
		endloop
	endfacet
endsolid exported
