o 
usemtl rect-roof-slab-material
v 0 0 3.5
v 0 0 3.75
v 0 4 3.5
v 0 4 3.75
v 6 0 3.5
v 6 0 3.75
v 6 4 3.5
v 6 4 3.75
vn -0.08288486987403008 -0.062163650542877424 -0.9946184086860388
vn -0.04130961675931266 -0.12392885772851844 0.9914308618281475
vn -0.020788269368765 0.062364806243649824 -0.9978368998983972
vn -0.04161026611228448 0.031207700515535914 0.9986464164971492
vn 0.020788269368765 -0.062364806243649824 -0.9978368998983972
vn 0.04161026611228448 -0.031207700515535914 0.9986464164971492
vn 0.08288486987403008 0.062163650542877424 -0.9946184086860388
vn 0.04130961675931266 0.12392885772851844 0.9914308618281475
f 2//2 1//1 5//5
f 3//3 5//5 1//1
f 2//2 4//4 1//1
f 4//4 2//2 6//6
f 4//4 3//3 1//1
f 4//4 8//8 3//3
f 6//6 5//5 7//7
f 6//6 2//2 5//5
f 7//7 5//5 3//3
f 8//8 7//7 3//3
f 8//8 4//4 6//6
f 8//8 6//6 7//7
