ISO-10303-21;
HEADER;
FILE_DESCRIPTION(('Open CASCADE Model'),'2;1');
FILE_NAME('Open CASCADE Shape Model','1970-01-01T00:00:00',('Author'),(
    'Open CASCADE'),'Open CASCADE STEP processor 8.0','Open CASCADE 8.0'
  ,'Unknown');
FILE_SCHEMA((
'AP242_MANAGED_MODEL_BASED_3D_ENGINEERING_MIM_LF {1 0 10303 442 1 1 4 }'
    ));
ENDSEC;
DATA;
#1 = APPLICATION_PROTOCOL_DEFINITION('international standard',
  'ap242_managed_model_based_3d_engineering',2013,#2);
#2 = APPLICATION_CONTEXT('Managed model based 3d engineering');
#3 = SHAPE_DEFINITION_REPRESENTATION(#4,#10);
#4 = PRODUCT_DEFINITION_SHAPE('','',#5);
#5 = PRODUCT_DEFINITION('design','',#6,#9);
#6 = PRODUCT_DEFINITION_FORMATION('','',#7);
#7 = PRODUCT('Open CASCADE STEP translator 8.0',
  'Open CASCADE STEP translator 8.0','',(#8));
#8 = PRODUCT_CONTEXT('',#2,'mechanical');
#9 = PRODUCT_DEFINITION_CONTEXT('part definition',#2,'design');
#10 = MANIFOLD_SURFACE_SHAPE_REPRESENTATION('',(#11,#15),#100);
#11 = AXIS2_PLACEMENT_3D('',#12,#13,#14);
#12 = CARTESIAN_POINT('',(0.,0.,0.));
#13 = DIRECTION('',(0.,0.,1.));
#14 = DIRECTION('',(1.,0.,-0.));
#15 = SHELL_BASED_SURFACE_MODEL('',(#16));
#16 = OPEN_SHELL('',(#17));
#17 = ADVANCED_FACE('',(#18),#31,.T.);
#18 = FACE_BOUND('',#19,.T.);
#19 = EDGE_LOOP('',(#20));
#20 = ORIENTED_EDGE('',*,*,#21,.T.);
#21 = EDGE_CURVE('',#22,#22,#24,.T.);
#22 = VERTEX_POINT('',#23);
#23 = CARTESIAN_POINT('',(8.,0.,0.));
#24 = SURFACE_CURVE('',#25,(#30),.PCURVE_S1.);
#25 = CIRCLE('',#26,8.);
#26 = AXIS2_PLACEMENT_3D('',#27,#28,#29);
#27 = CARTESIAN_POINT('',(0.,0.,0.));
#28 = DIRECTION('',(0.,0.,1.));
#29 = DIRECTION('',(1.,0.,-0.));
#30 = PCURVE('',#31,#81);
#31 = B_SPLINE_SURFACE_WITH_KNOTS('',6,6,(
    (#32,#33,#34,#35,#36,#37,#38)
    ,(#39,#40,#41,#42,#43,#44,#45)
    ,(#46,#47,#48,#49,#50,#51,#52)
    ,(#53,#54,#55,#56,#57,#58,#59)
    ,(#60,#61,#62,#63,#64,#65,#66)
    ,(#67,#68,#69,#70,#71,#72,#73)
    ,(#74,#75,#76,#77,#78,#79,#80
    )),.UNSPECIFIED.,.F.,.F.,.F.,(7,7),(7,7),(-8.775700358767,
    8.794760404826),(-8.775700358767,8.794760404826),
  .PIECEWISE_BEZIER_KNOTS.);
#32 = CARTESIAN_POINT('',(-17.95693813802,8.122871784788E-09,0.));
#33 = CARTESIAN_POINT('',(-12.719803845,2.070697712417,0.));
#34 = CARTESIAN_POINT('',(-8.750565207537,4.141395102232,0.));
#35 = CARTESIAN_POINT('',(-6.049313651877,6.212095469223,0.));
#36 = CARTESIAN_POINT('',(-4.616046808685,8.282796010938,0.));
#37 = CARTESIAN_POINT('',(-4.450723065711,10.353493893435,0.));
#38 = CARTESIAN_POINT('',(-5.553316120477,12.424192313879,0.));
#39 = CARTESIAN_POINT('',(-12.719803845,-2.070697705446,0.));
#40 = CARTESIAN_POINT('',(-7.482682508557,-1.152120267989E-09,0.));
#41 = CARTESIAN_POINT('',(-3.513468385043,2.070696521579,0.));
#42 = CARTESIAN_POINT('',(-0.812176482249,4.141397193972,0.));
#43 = CARTESIAN_POINT('',(0.621036982522,6.21209726058,0.));
#44 = CARTESIAN_POINT('',(0.786396333996,8.28279494999,0.));
#45 = CARTESIAN_POINT('',(-0.316192570571,10.353493241265,0.));
#46 = CARTESIAN_POINT('',(-8.750565207537,-4.141395100823,0.));
#47 = CARTESIAN_POINT('',(-3.513468385043,-2.070696529444,0.));
#48 = CARTESIAN_POINT('',(0.455779397091,-6.713082277565E-09,0.));
#49 = CARTESIAN_POINT('',(3.156889438638,2.07070020471,0.));
#50 = CARTESIAN_POINT('',(4.590184216009,4.141411223729,0.));
#51 = CARTESIAN_POINT('',(4.755593397631,6.212097758771,0.));
#52 = CARTESIAN_POINT('',(3.652986047802,8.282794877142,0.));
#53 = CARTESIAN_POINT('',(-6.049313651877,-6.21209546966,0.));
#54 = CARTESIAN_POINT('',(-0.812176482249,-4.141397203684,0.));
#55 = CARTESIAN_POINT('',(3.156889438638,-2.070700219983,0.));
#56 = CARTESIAN_POINT('',(5.858016644198,-8.560187225726E-09,0.));
#57 = CARTESIAN_POINT('',(7.291690939445,2.070673554914,0.));
#58 = CARTESIAN_POINT('',(7.456827509213,4.141396619924,0.));
#59 = CARTESIAN_POINT('',(6.354219041017,6.212096204705,0.));
#60 = CARTESIAN_POINT('',(-4.616046808685,-8.282796009509,0.));
#61 = CARTESIAN_POINT('',(0.621036982522,-6.212097268426,0.));
#62 = CARTESIAN_POINT('',(4.590184216009,-4.141411237136,0.));
#63 = CARTESIAN_POINT('',(7.291690939445,-2.070673570166,0.));
#64 = CARTESIAN_POINT('',(8.724623830704,-6.693583687323E-09,0.));
#65 = CARTESIAN_POINT('',(8.890106769387,2.070695974906,0.));
#66 = CARTESIAN_POINT('',(7.787506198051,4.141396996397,0.));
#67 = CARTESIAN_POINT('',(-4.450723065711,-10.35349388642,0.));
#68 = CARTESIAN_POINT('',(0.786396333996,-8.282794952254,0.));
#69 = CARTESIAN_POINT('',(4.755593397631,-6.212097766596,0.));
#70 = CARTESIAN_POINT('',(7.456827509213,-4.141396629596,0.));
#71 = CARTESIAN_POINT('',(8.890106769387,-2.070695982711,0.));
#72 = CARTESIAN_POINT('',(9.0554498403,-1.111860603586E-09,0.));
#73 = CARTESIAN_POINT('',(7.952847790486,2.070697813909,0.));
#74 = CARTESIAN_POINT('',(-5.553316120477,-12.42419229757,0.));
#75 = CARTESIAN_POINT('',(-0.316192570571,-10.35349323423,0.));
#76 = CARTESIAN_POINT('',(3.652986047802,-8.282794875672,0.));
#77 = CARTESIAN_POINT('',(6.354219041017,-6.212096205082,0.));
#78 = CARTESIAN_POINT('',(7.787506198051,-4.141396994906,0.));
#79 = CARTESIAN_POINT('',(7.952847790486,-2.070697806838,0.));
#80 = CARTESIAN_POINT('',(6.850244572506,8.183270949758E-09,0.));
#81 = DEFINITIONAL_REPRESENTATION('',(#82),#99);
#82 = B_SPLINE_CURVE_WITH_KNOTS('',8,(#83,#84,#85,#86,#87,#88,#89,#90,
    #91,#92,#93,#94,#95,#96,#97,#98),.UNSPECIFIED.,.F.,.F.,(9,7,9),(0.,
    3.14159265359,6.28318530718),.UNSPECIFIED.);
#83 = CARTESIAN_POINT('',(5.656854249492,5.656854249492));
#84 = CARTESIAN_POINT('',(3.435412780413,7.878295718572));
#85 = CARTESIAN_POINT('',(0.216738945631,9.102557516046));
#86 = CARTESIAN_POINT('',(-3.47509501764,8.809151561168));
#87 = CARTESIAN_POINT('',(-6.798439845159,6.798439845159));
#88 = CARTESIAN_POINT('',(-8.809151561168,3.47509501764));
#89 = CARTESIAN_POINT('',(-9.102557516046,-0.216738945631));
#90 = CARTESIAN_POINT('',(-7.878295718572,-3.435412780413));
#91 = CARTESIAN_POINT('',(-3.435412780413,-7.878295718572));
#92 = CARTESIAN_POINT('',(-0.216738945631,-9.102557516046));
#93 = CARTESIAN_POINT('',(3.47509501764,-8.809151561168));
#94 = CARTESIAN_POINT('',(6.798439845159,-6.79843984516));
#95 = CARTESIAN_POINT('',(8.809151561168,-3.47509501764));
#96 = CARTESIAN_POINT('',(9.102557516046,0.216738945631));
#97 = CARTESIAN_POINT('',(7.878295718572,3.435412780413));
#98 = CARTESIAN_POINT('',(5.656854249492,5.656854249492));
#99 = ( GEOMETRIC_REPRESENTATION_CONTEXT(2) 
PARAMETRIC_REPRESENTATION_CONTEXT() REPRESENTATION_CONTEXT('2D SPACE',''
  ) );
#100 = ( GEOMETRIC_REPRESENTATION_CONTEXT(3) 
GLOBAL_UNCERTAINTY_ASSIGNED_CONTEXT((#104)) GLOBAL_UNIT_ASSIGNED_CONTEXT
((#101,#102,#103)) REPRESENTATION_CONTEXT('Context #1',
  '3D Context with UNIT and UNCERTAINTY') );
#101 = ( LENGTH_UNIT() NAMED_UNIT(*) SI_UNIT(.MILLI.,.METRE.) );
#102 = ( NAMED_UNIT(*) PLANE_ANGLE_UNIT() SI_UNIT($,.RADIAN.) );
#103 = ( NAMED_UNIT(*) SI_UNIT($,.STERADIAN.) SOLID_ANGLE_UNIT() );
#104 = UNCERTAINTY_MEASURE_WITH_UNIT(LENGTH_MEASURE(2.E-05),#101,
  'distance_accuracy_value','confusion accuracy');
#105 = PRODUCT_RELATED_PRODUCT_CATEGORY('part',$,(#7));
ENDSEC;
END-ISO-10303-21;
