ply
format ascii 1.0
element vertex 48
property float x
property float y
property float z
property float nx
property float ny
property float nz
element face 92
property list uchar int vertex_index
end_header
-0.7071067690849304 -0.7071067690849304 -50 -0.73738098252108 -0.6753829727489292 -0.0112750493154509
-0.9659258127212524 -0.258819043636322 -50 -0.9763418830268129 -0.216221611202393 -0.0021776814960534573
-0.8660253882408142 -0.5 -50 -0.8870965085509878 -0.4615420617499512 -0.006221716182176353
-0.5 -0.8660253882408142 -50 -0.5374188283634357 -0.8431640048473493 -0.015983236538666182
-0.258819043636322 -0.9659258127212524 -50 -0.3008634705807965 -0.9534762374106065 -0.01908498790649345
-0.7071067690849304 -0.7071067690849304 50 -0.6753829727489292 -0.73738098252108 0.0112750493154509
-0.9659258127212524 -0.258819043636322 50 -0.9536476606754398 -0.30091759169495347 0.0021776815126299193
-0.8660253882408142 -0.5 50 -0.8432554058120235 -0.5374770793389295 0.0062217163302325
-0.5 -0.8660253882408142 50 -0.46149202332031297 -0.8870003656240241 0.015983234796848246
-0.258819043636322 -0.9659258127212524 50 -0.21618275379415353 -0.9761663691132034 0.01908498819285856
-1 0 -50 -0.999038452023231 0.04384198759167996 -0.00022694280645696628
-0.9659258127212524 0.258819043636322 -50 -0.953649547092714 0.30091817014219346 -0.0008923049562994284
-0.8660253882408142 0.5 -50 -0.8432649861984356 0.5374832084438103 -0.003995459009911395
-0.7071067690849304 0.7071067690849304 -50 -0.6754003084932944 0.7373999267456562 -0.008704672461580548
-0.5 0.8660253882408142 -50 -0.4615073247843182 0.8870297158507834 -0.01375762945060207
-0.258819043636322 0.9659258127212524 -50 -0.21618788193562372 0.9761895053875972 -0.017800260540428246
-1 0 50 -0.999038452023231 -0.04384198759167996 0.00022694280645696628
-0.9659258127212524 0.258819043636322 50 -0.9763438073456805 0.2162220470943121 0.0008923049288311744
-0.8660253882408142 0.5 50 -0.8871065961014863 0.46154731443284674 0.003995459055161493
-0.7071067690849304 0.7071067690849304 50 -0.7373998698600672 0.6754003705883793 0.008704673425000331
-0.5 0.8660253882408142 50 -0.5374366063648738 0.8431919246370821 0.013757629367768304
-0.258819043636322 0.9659258127212524 50 -0.30087062384426794 0.9534988298086966 0.017800260138753576
0 -1 -50 -0.04383343481779712 -0.998843615665428 -0.019749973075646063
0.258819043636322 -0.9659258127212524 -50 0.2161878819284559 -0.9761895053552312 -0.017800262402483242
0.5 -0.8660253882408142 -50 0.4615073247843182 -0.8870297158507834 -0.01375762945060207
0.7071067690849304 -0.7071067690849304 -50 0.6754003084878191 -0.7373999267396782 -0.008704673392832544
0.8660253882408142 -0.5 -50 0.8432649861984356 -0.5374832084438103 -0.003995459009911395
0.9659258127212524 -0.258819043636322 -50 0.953649547092714 -0.30091817014219346 -0.0008923049562994284
0 -1 50 0.04383343481779712 -0.998843615665428 0.019749973075646063
0.258819043636322 -0.9659258127212524 50 0.30087059672976957 -0.9534988383267664 0.017800262160417125
0.5 -0.8660253882408142 50 0.5374366063648738 -0.8431919246370821 0.013757629367768304
0.7071067690849304 -0.7071067690849304 50 0.7373999267396782 -0.6754003084878191 0.008704673392832544
0.8660253882408142 -0.5 50 0.8871065961014863 -0.46154731443284674 0.003995459055161493
0.9659258127212524 -0.258819043636322 50 0.9763438073456805 -0.2162220470943121 0.0008923049288311744
0 1 -50 0.04383343481779712 0.998843615665428 -0.019749973075646063
0.258819043636322 0.9659258127212524 -50 0.3008634705807965 0.9534762374106065 -0.01908498790649345
1 0 -50 0.999038452023231 -0.04384198759167996 -0.00022694280645696628
0.9659258127212524 0.258819043636322 -50 0.9763418830268129 0.216221611202393 -0.0021776814960534573
0.7071067690849304 0.7071067690849304 -50 0.73738098252108 0.6753829727489292 -0.0112750493154509
0.5 0.8660253882408142 -50 0.5374188283634357 0.8431640048473493 -0.015983236538666182
0.8660253882408142 0.5 -50 0.8870965085509878 0.4615420617499512 -0.006221716182176353
0 1 50 -0.04383343481779712 0.998843615665428 0.019749973075646063
0.258819043636322 0.9659258127212524 50 0.21618275379415353 0.9761663691132034 0.01908498819285856
1 0 50 0.999038452023231 0.04384198759167996 0.00022694280645696628
0.9659258127212524 0.258819043636322 50 0.9536476692273093 0.30091756459112046 0.0021776817649889987
0.7071067690849304 0.7071067690849304 50 0.6753830348493615 0.7373809256413274 0.01127504935711633
0.5 0.8660253882408142 50 0.46149202332031297 0.8870003656240241 0.015983234796848246
0.8660253882408142 0.5 50 0.8432554058120235 0.5374770793389295 0.0062217163302325
3 7 2 0
3 5 0 3
3 12 2 1
3 13 0 2
3 14 3 0
3 6 1 2
3 16 10 1
3 8 3 4
3 9 4 22
3 15 4 3
3 34 22 4
3 5 7 0
3 8 5 3
3 7 6 2
3 6 16 1
3 18 6 7
3 19 7 5
3 20 5 8
3 9 8 4
3 28 9 22
3 21 8 9
3 41 9 28
3 11 1 10
3 12 1 11
3 13 2 12
3 14 0 13
3 17 11 10
3 18 12 11
3 19 13 12
3 20 14 13
3 15 3 14
3 34 4 15
3 21 15 14
3 41 34 15
3 16 17 10
3 17 18 11
3 17 16 6
3 18 17 6
3 19 18 7
3 20 19 5
3 18 19 12
3 19 20 13
3 21 20 8
3 41 21 9
3 20 21 14
3 21 41 15
3 28 22 23
3 29 23 24
3 35 23 22
3 39 24 23
3 30 24 25
3 31 25 26
3 38 25 24
3 40 26 25
3 37 27 26
3 32 26 27
3 33 27 36
3 29 28 23
3 30 29 24
3 42 28 29
3 46 29 30
3 31 30 25
3 32 31 26
3 33 32 27
3 43 33 36
3 45 30 31
3 47 31 32
3 44 32 33
3 35 22 34
3 39 23 35
3 42 35 34
3 46 39 35
3 38 24 39
3 40 25 38
3 37 26 40
3 36 27 37
3 43 36 37
3 44 37 40
3 45 38 39
3 47 40 38
3 42 41 28
3 46 42 29
3 41 42 34
3 42 46 35
3 44 43 37
3 47 44 40
3 45 46 30
3 47 45 31
3 44 47 32
3 43 44 33
3 46 45 39
3 45 47 38

