ISO-10303-21;
HEADER;
FILE_DESCRIPTION(('ViewDefinition []'),'2;1');
FILE_NAME('IFC House.ifc','',('A. Architect'),('Semio'),'semio BIM','semio BIM','');
FILE_SCHEMA(('IFC4'));
ENDSEC;
DATA;
#1=IFCCARTESIANPOINT((0.,0.,0.));
#2=IFCAXIS2PLACEMENT3D(#1,$,$);
#3=IFCDIRECTION((-0.198669331,0.980066578));
#4=IFCGEOMETRICREPRESENTATIONCONTEXT($,'Model',3,0.000001,#2,#3);
#5=IFCGEOMETRICREPRESENTATIONSUBCONTEXT('Body','Model',*,*,*,*,#4,$,.MODEL_VIEW.,$);
#6=IFCGEOMETRICREPRESENTATIONSUBCONTEXT('Axis','Model',*,*,*,*,#4,$,.GRAPH_VIEW.,$);
#7=IFCGEOMETRICREPRESENTATIONSUBCONTEXT('FootPrint','Model',*,*,*,*,#4,$,.PLAN_VIEW.,$);
#8=IFCSIUNIT(*,.LENGTHUNIT.,$,.METRE.);
#9=IFCSIUNIT(*,.AREAUNIT.,$,.SQUARE_METRE.);
#10=IFCSIUNIT(*,.VOLUMEUNIT.,$,.CUBIC_METRE.);
#11=IFCSIUNIT(*,.PLANEANGLEUNIT.,$,.RADIAN.);
#12=IFCUNITASSIGNMENT((#8,#9,#10,#11));
#13=IFCPROJECTLIBRARY('23ebOOho5Fg6cKC3bXlpBr',$,'IFC House Library',$,$,$,$,(#4),#12);
#14=IFCCLASSIFICATION($,$,$,'Omniclass','cs-omniclass',$,$);
#15=IFCCLASSIFICATIONREFERENCE($,'21-02 10 10','Columns',#14,$,'000000');
#16=IFCRELASSOCIATESCLASSIFICATION('3VYW6Rahi3zL39ss1JNK3y',$,$,$,(#13),#14);
#17=IFCCLASSIFICATION($,$,$,'Uniclass 2015','cs-uniclass-2015',$,$);
#18=IFCCLASSIFICATIONREFERENCE($,'EF_25_10','Walls',#17,$,'000000');
#19=IFCRELASSOCIATESCLASSIFICATION('0xhx$vlkSjTRN$olTkHr7J',$,$,$,(#13),#17);
#20=IFCMATERIAL('Brick',$,'Masonry');
#21=IFCPROPERTYSINGLEVALUE('MassDensity',$,IFCMASSDENSITYMEASURE(1800.),$);
#22=IFCMATERIALPROPERTIES('Pset_MaterialCommon',$,(#21),#20);
#23=IFCPROPERTYSINGLEVALUE('ThermalConductivity',$,IFCTHERMALCONDUCTIVITYMEASURE(0.8),$);
#24=IFCPROPERTYSINGLEVALUE('SpecificHeatCapacity',$,IFCSPECIFICHEATCAPACITYMEASURE(900.),$);
#25=IFCMATERIALPROPERTIES('Pset_MaterialThermal',$,(#23,#24),#20);
#26=IFCPROPERTYSINGLEVALUE('Id',$,IFCLABEL('m-brick'),$);
#27=IFCPROPERTYSINGLEVALUE('Category',$,IFCLABEL('Masonry'),$);
#28=IFCPROPERTYSINGLEVALUE('Red',$,IFCREAL(0.7),$);
#29=IFCPROPERTYSINGLEVALUE('Green',$,IFCREAL(0.35),$);
#30=IFCPROPERTYSINGLEVALUE('Blue',$,IFCREAL(0.25),$);
#31=IFCMATERIALPROPERTIES('Semio_Authoring',$,(#26,#27,#28,#29,#30),#20);
#32=IFCMATERIAL('Concrete',$,'Concrete');
#33=IFCPROPERTYSINGLEVALUE('MassDensity',$,IFCMASSDENSITYMEASURE(2400.),$);
#34=IFCMATERIALPROPERTIES('Pset_MaterialCommon',$,(#33),#32);
#35=IFCPROPERTYSINGLEVALUE('ThermalConductivity',$,IFCTHERMALCONDUCTIVITYMEASURE(1.6),$);
#36=IFCPROPERTYSINGLEVALUE('SpecificHeatCapacity',$,IFCSPECIFICHEATCAPACITYMEASURE(880.),$);
#37=IFCMATERIALPROPERTIES('Pset_MaterialThermal',$,(#35,#36),#32);
#38=IFCPROPERTYSINGLEVALUE('Id',$,IFCLABEL('m-conc'),$);
#39=IFCPROPERTYSINGLEVALUE('Category',$,IFCLABEL('Concrete'),$);
#40=IFCPROPERTYSINGLEVALUE('Red',$,IFCREAL(0.6),$);
#41=IFCPROPERTYSINGLEVALUE('Green',$,IFCREAL(0.6),$);
#42=IFCPROPERTYSINGLEVALUE('Blue',$,IFCREAL(0.6),$);
#43=IFCMATERIALPROPERTIES('Semio_Authoring',$,(#38,#39,#40,#41,#42),#32);
#44=IFCMATERIAL('Steel',$,'Metal');
#45=IFCPROPERTYSINGLEVALUE('MassDensity',$,IFCMASSDENSITYMEASURE(7850.),$);
#46=IFCMATERIALPROPERTIES('Pset_MaterialCommon',$,(#45),#44);
#47=IFCPROPERTYSINGLEVALUE('ThermalConductivity',$,IFCTHERMALCONDUCTIVITYMEASURE(50.),$);
#48=IFCPROPERTYSINGLEVALUE('SpecificHeatCapacity',$,IFCSPECIFICHEATCAPACITYMEASURE(470.),$);
#49=IFCMATERIALPROPERTIES('Pset_MaterialThermal',$,(#47,#48),#44);
#50=IFCPROPERTYSINGLEVALUE('Id',$,IFCLABEL('m-steel'),$);
#51=IFCPROPERTYSINGLEVALUE('Category',$,IFCLABEL('Metal'),$);
#52=IFCPROPERTYSINGLEVALUE('Red',$,IFCREAL(0.5),$);
#53=IFCPROPERTYSINGLEVALUE('Green',$,IFCREAL(0.55),$);
#54=IFCPROPERTYSINGLEVALUE('Blue',$,IFCREAL(0.6),$);
#55=IFCMATERIALPROPERTIES('Semio_Authoring',$,(#50,#51,#52,#53,#54),#44);
#56=IFCMATERIAL('Oak',$,'Wood');
#57=IFCPROPERTYSINGLEVALUE('MassDensity',$,IFCMASSDENSITYMEASURE(700.),$);
#58=IFCMATERIALPROPERTIES('Pset_MaterialCommon',$,(#57),#56);
#59=IFCPROPERTYSINGLEVALUE('ThermalConductivity',$,IFCTHERMALCONDUCTIVITYMEASURE(0.18),$);
#60=IFCPROPERTYSINGLEVALUE('SpecificHeatCapacity',$,IFCSPECIFICHEATCAPACITYMEASURE(1600.),$);
#61=IFCMATERIALPROPERTIES('Pset_MaterialThermal',$,(#59,#60),#56);
#62=IFCPROPERTYSINGLEVALUE('Id',$,IFCLABEL('m-wood'),$);
#63=IFCPROPERTYSINGLEVALUE('Category',$,IFCLABEL('Wood'),$);
#64=IFCPROPERTYSINGLEVALUE('Red',$,IFCREAL(0.55),$);
#65=IFCPROPERTYSINGLEVALUE('Green',$,IFCREAL(0.4),$);
#66=IFCPROPERTYSINGLEVALUE('Blue',$,IFCREAL(0.2),$);
#67=IFCMATERIALPROPERTIES('Semio_Authoring',$,(#62,#63,#64,#65,#66),#56);
#68=IFCMATERIAL('Mineral Wool',$,'Insulation');
#69=IFCPROPERTYSINGLEVALUE('MassDensity',$,IFCMASSDENSITYMEASURE(40.),$);
#70=IFCMATERIALPROPERTIES('Pset_MaterialCommon',$,(#69),#68);
#71=IFCPROPERTYSINGLEVALUE('ThermalConductivity',$,IFCTHERMALCONDUCTIVITYMEASURE(0.035),$);
#72=IFCPROPERTYSINGLEVALUE('SpecificHeatCapacity',$,IFCSPECIFICHEATCAPACITYMEASURE(1030.),$);
#73=IFCMATERIALPROPERTIES('Pset_MaterialThermal',$,(#71,#72),#68);
#74=IFCPROPERTYSINGLEVALUE('Id',$,IFCLABEL('m-wool'),$);
#75=IFCPROPERTYSINGLEVALUE('Category',$,IFCLABEL('Insulation'),$);
#76=IFCPROPERTYSINGLEVALUE('Red',$,IFCREAL(0.9),$);
#77=IFCPROPERTYSINGLEVALUE('Green',$,IFCREAL(0.85),$);
#78=IFCPROPERTYSINGLEVALUE('Blue',$,IFCREAL(0.3),$);
#79=IFCMATERIALPROPERTIES('Semio_Authoring',$,(#74,#75,#76,#77,#78),#68);
#80=IFCPROPERTYSINGLEVALUE('LayerFunctions',$,IFCLABEL('Structure'),$);
#81=IFCPROPERTYSET('19BFGiVlYdwweesk4KsQTP',$,'Semio_Authoring',$,(#80));
#82=IFCWALLTYPE('0VIk4k_$D_QicHxrmTKPsD',$,'Concrete 150',$,$,(#81),$,'wt-150',$,.STANDARD.);
#83=IFCMATERIALLAYER(#32,0.15,$,$,$,'Structure',$);
#84=IFCMATERIALLAYERSET((#83),'Concrete 150',$);
#85=IFCPROPERTYSINGLEVALUE('LayerFunctions',$,IFCLABEL('Structure,Insulation'),$);
#86=IFCPROPERTYSET('3m$yVyG9W8$eq6AOyBgbgH',$,'Semio_Authoring',$,(#85));
#87=IFCWALLTYPE('0OOt0ztQFFVr5XB9psd9QI',$,'Brick 300',$,$,(#86),$,'wt-300',$,.STANDARD.);
#88=IFCMATERIALLAYER(#20,0.2,$,$,$,'Structure',$);
#89=IFCMATERIALLAYER(#68,0.1,$,$,$,'Insulation',$);
#90=IFCMATERIALLAYERSET((#88,#89),'Brick 300',$);
#91=IFCPROPERTYSINGLEVALUE('LayerFunctions',$,IFCLABEL('Finish,Structure'),$);
#92=IFCPROPERTYSET('0Kn0_bIJgFsz5_Pl60WTww',$,'Semio_Authoring',$,(#91));
#93=IFCSLABTYPE('2eS4Peh4Lu_B2Alqquf9fY',$,'Floor 250',$,$,(#92),$,'st-floor',$,.FLOOR.);
#94=IFCMATERIALLAYER(#56,0.05,$,$,$,'Finish',$);
#95=IFCMATERIALLAYER(#32,0.2,$,$,$,'Structure',$);
#96=IFCMATERIALLAYERSET((#94,#95),'Floor 250',$);
#97=IFCPROPERTYSINGLEVALUE('LayerFunctions',$,IFCLABEL('Finish,Insulation'),$);
#98=IFCPROPERTYSET('2nr_APC2g5$lNxNNSfbARq',$,'Semio_Authoring',$,(#97));
#99=IFCROOFTYPE('31oXHNaPPf7KeZ0QF6r$48',$,'Tile roof',$,$,(#98),$,'rt-tile',$,.NOTDEFINED.);
#100=IFCMATERIALLAYER(#56,0.04,$,$,$,'Finish',$);
#101=IFCMATERIALLAYER(#68,0.2,$,$,$,'Insulation',$);
#102=IFCMATERIALLAYERSET((#100,#101),'Tile roof',$);
#103=IFCPROPERTYSINGLEVALUE('ProfileKind',$,IFCLABEL('Rectangle'),$);
#104=IFCPROPERTYSINGLEVALUE('Width',$,IFCREAL(0.3),$);
#105=IFCPROPERTYSINGLEVALUE('Depth',$,IFCREAL(0.3),$);
#106=IFCPROPERTYSET('23zIYssEEPo6gY4Ys5rCNg',$,'Semio_Authoring',$,(#103,#104,#105));
#107=IFCCOLUMNTYPE('2lpswFnUWxEo9rrKqbRlTZ',$,'Concrete 300x300',$,$,(#106),$,'ct-rect',$,.COLUMN.);
#108=IFCPROPERTYSINGLEVALUE('ProfileKind',$,IFCLABEL('Circle'),$);
#109=IFCPROPERTYSINGLEVALUE('Diameter',$,IFCREAL(0.4),$);
#110=IFCPROPERTYSET('3bRBWeP37iT7NYcZTMhfMy',$,'Semio_Authoring',$,(#108,#109));
#111=IFCCOLUMNTYPE('0a8EJA0NhPoVUVgNvTue$W',$,'Steel 400',$,$,(#110),$,'ct-round',$,.COLUMN.);
#112=IFCPROPERTYSINGLEVALUE('ProfileKind',$,IFCLABEL('IShape'),$);
#113=IFCPROPERTYSINGLEVALUE('Width',$,IFCREAL(0.15),$);
#114=IFCPROPERTYSINGLEVALUE('Depth',$,IFCREAL(0.3),$);
#115=IFCPROPERTYSINGLEVALUE('Web',$,IFCREAL(0.0071),$);
#116=IFCPROPERTYSINGLEVALUE('Flange',$,IFCREAL(0.0107),$);
#117=IFCPROPERTYSET('0nJK1EHrPikK8iK5579$cQ',$,'Semio_Authoring',$,(#112,#113,#114,#115,#116));
#118=IFCBEAMTYPE('0oKP8drYAMH5aU$_rQaqSU',$,'IPE 300',$,$,(#117),$,'bt-i',$,.BEAM.);
#119=IFCPROPERTYSINGLEVALUE('ProfileKind',$,IFCLABEL('Rectangle'),$);
#120=IFCPROPERTYSINGLEVALUE('Width',$,IFCREAL(0.25),$);
#121=IFCPROPERTYSINGLEVALUE('Depth',$,IFCREAL(0.4),$);
#122=IFCPROPERTYSET('09iyiZ3qON64WmEXt0z8cE',$,'Semio_Authoring',$,(#119,#120,#121));
#123=IFCBEAMTYPE('28jtd2OhxRMiZKZSrhRlsV',$,'Concrete 250x400',$,$,(#122),$,'bt-rect',$,.BEAM.);
#124=IFCPROPERTYSINGLEVALUE('Width',$,IFCREAL(1.2),$);
#125=IFCPROPERTYSINGLEVALUE('Height',$,IFCREAL(1.2),$);
#126=IFCPROPERTYSINGLEVALUE('Sill',$,IFCREAL(0.9),$);
#127=IFCPROPERTYSINGLEVALUE('FrameWidth',$,IFCREAL(0.06),$);
#128=IFCPROPERTYSINGLEVALUE('FrameDepth',$,IFCREAL(0.08),$);
#129=IFCPROPERTYSINGLEVALUE('Panes',$,IFCINTEGER(2),$);
#130=IFCPROPERTYSINGLEVALUE('Material',$,IFCLABEL('m-wood'),$);
#131=IFCPROPERTYSINGLEVALUE('MaterialName',$,IFCLABEL('Oak'),$);
#132=IFCPROPERTYSET('2q_TOSplsX2EY7yL0lsdpy',$,'Semio_Authoring',$,(#124,#125,#126,#127,#128,#129,#130,#131));
#133=IFCWINDOWTYPE('00hp3xP5OSN5s$0QnFsB_9',$,'Window 120',$,$,(#132),$,'wnd-120',$,.WINDOW.,.DOUBLE_PANEL_VERTICAL.,.F.,$);
#134=IFCPROPERTYSINGLEVALUE('Width',$,IFCREAL(1.8),$);
#135=IFCPROPERTYSINGLEVALUE('Height',$,IFCREAL(2.1),$);
#136=IFCPROPERTYSINGLEVALUE('FrameWidth',$,IFCREAL(0.05),$);
#137=IFCPROPERTYSINGLEVALUE('FrameDepth',$,IFCREAL(0.1),$);
#138=IFCPROPERTYSINGLEVALUE('Leaves',$,IFCLABEL('Double'),$);
#139=IFCPROPERTYSINGLEVALUE('Swing',$,IFCLABEL('Right'),$);
#140=IFCPROPERTYSINGLEVALUE('Material',$,IFCLABEL('m-wood'),$);
#141=IFCPROPERTYSET('3szQYqTQnvJSxam6npwu_N',$,'Semio_Authoring',$,(#134,#135,#136,#137,#138,#139,#140));
#142=IFCDOORTYPE('1OOWKzxwAU4ELH17Ghkpv8',$,'Double door 180',$,$,(#141),$,'dr-180',$,.DOOR.,.DOUBLE_DOOR_SINGLE_SWING.,.F.,$);
#143=IFCPROPERTYSINGLEVALUE('Width',$,IFCREAL(0.9),$);
#144=IFCPROPERTYSINGLEVALUE('Height',$,IFCREAL(2.1),$);
#145=IFCPROPERTYSINGLEVALUE('FrameWidth',$,IFCREAL(0.05),$);
#146=IFCPROPERTYSINGLEVALUE('FrameDepth',$,IFCREAL(0.1),$);
#147=IFCPROPERTYSINGLEVALUE('Leaves',$,IFCLABEL('Single'),$);
#148=IFCPROPERTYSINGLEVALUE('Swing',$,IFCLABEL('Left'),$);
#149=IFCPROPERTYSINGLEVALUE('Material',$,IFCLABEL('m-wood'),$);
#150=IFCPROPERTYSET('0BrKNnl2PDGjS_0l5zK8Ab',$,'Semio_Authoring',$,(#143,#144,#145,#146,#147,#148,#149));
#151=IFCDOORTYPE('0BOO8uix0ugVK6T950P4do',$,'Door 90',$,$,(#150),$,'dr-90',$,.DOOR.,.SINGLE_SWING_LEFT.,.F.,$);
#152=IFCPROJECT('1w8OAdRUto0JEzixroLdqB',$,'IFC House','Export fixture',$,$,'Existing;New',(#4),#12);
#153=IFCLOCALPLACEMENT($,#2);
#154=IFCCARTESIANPOINT((-5.,-5.));
#155=IFCCARTESIANPOINT((25.,-5.));
#156=IFCCARTESIANPOINT((25.,15.));
#157=IFCCARTESIANPOINT((-5.,15.));
#158=IFCPOLYLINE((#154,#155,#156,#157,#154));
#159=IFCSHAPEREPRESENTATION(#7,'FootPrint','Curve2D',(#158));
#160=IFCPRODUCTDEFINITIONSHAPE($,$,(#159));
#161=IFCSITE('1QBh6LzYuAptPPqA16Z5bc',$,'Plot',$,'site-1',#153,#160,$,.ELEMENT.,(47,22,36,840000),(8,32,30,120000),408.,$,$);
#162=IFCCARTESIANPOINT((2.,3.,0.5));
#163=IFCDIRECTION((0.,0.,1.));
#164=IFCDIRECTION((0.995004165,0.099833417,0.));
#165=IFCAXIS2PLACEMENT3D(#162,#163,#164);
#166=IFCLOCALPLACEMENT(#153,#165);
#167=IFCBUILDING('0HBDLIrKAxSZKIwlXVGe62',$,'House',$,'bldg-1',#166,$,$,.ELEMENT.,408.5,$,$);
#168=IFCCARTESIANPOINT((0.,0.,-2.6));
#169=IFCAXIS2PLACEMENT3D(#168,$,$);
#170=IFCLOCALPLACEMENT(#166,#169);
#171=IFCBUILDINGSTOREY('0qMOcPZlOsbmAlyKbsGOD6',$,'Basement',$,'st-base',#170,$,$,.ELEMENT.,-2.6);
#172=IFCCARTESIANPOINT((0.,0.,3.));
#173=IFCAXIS2PLACEMENT3D(#172,$,$);
#174=IFCLOCALPLACEMENT(#166,#173);
#175=IFCBUILDINGSTOREY('1gAO00$311WltX3gSB8RKH',$,'First',$,'st-first',#174,$,$,.ELEMENT.,3.);
#176=IFCLOCALPLACEMENT(#166,#2);
#177=IFCBUILDINGSTOREY('3wsYM$bPNbBbDbGw_Wf9m1',$,'Ground',$,'st-ground',#176,$,$,.ELEMENT.,0.);
#178=IFCCARTESIANPOINT((0.,0.,5.8));
#179=IFCAXIS2PLACEMENT3D(#178,$,$);
#180=IFCLOCALPLACEMENT(#166,#179);
#181=IFCBUILDINGSTOREY('0X0EI2hZp2QO0d1aPCecGX',$,'Roof',$,'st-roof',#180,$,$,.ELEMENT.,5.8);
#182=IFCCARTESIANPOINT((10.054310345,0.948275862));
#183=IFCCARTESIANPOINT((10.054310345,5.051724138));
#184=IFCCARTESIANPOINT((7.9,3.));
#185=IFCAXIS2PLACEMENT2D(#184,$);
#186=IFCCIRCLE(#185,2.975);
#187=IFCTRIMMEDCURVE(#186,(#182),(#183),.T.,.CARTESIAN.);
#188=IFCCOMPOSITECURVESEGMENT(.CONTINUOUS.,.T.,#187);
#189=IFCCARTESIANPOINT((9.945689655,4.948275862));
#190=IFCPOLYLINE((#183,#189));
#191=IFCCOMPOSITECURVESEGMENT(.CONTINUOUS.,.T.,#190);
#192=IFCCARTESIANPOINT((9.945689655,1.051724138));
#193=IFCCIRCLE(#185,2.825);
#194=IFCTRIMMEDCURVE(#193,(#189),(#192),.F.,.CARTESIAN.);
#195=IFCCOMPOSITECURVESEGMENT(.CONTINUOUS.,.T.,#194);
#196=IFCPOLYLINE((#192,#182));
#197=IFCCOMPOSITECURVESEGMENT(.CONTINUOUS.,.T.,#196);
#198=IFCCOMPOSITECURVE((#188,#191,#195,#197),.F.);
#199=IFCARBITRARYCLOSEDPROFILEDEF(.AREA.,$,#198);
#200=IFCLOCALPLACEMENT(#176,#2);
#201=IFCEXTRUDEDAREASOLID(#199,#2,#163,3.);
#202=IFCCARTESIANPOINT((10.,1.));
#203=IFCCARTESIANPOINT((10.,5.));
#204=IFCCIRCLE(#185,2.9);
#205=IFCTRIMMEDCURVE(#204,(#202),(#203),.T.,.CARTESIAN.);
#206=IFCSHAPEREPRESENTATION(#5,'Body','SweptSolid',(#201));
#207=IFCSHAPEREPRESENTATION(#6,'Axis','Curve2D',(#205));
#208=IFCPRODUCTDEFINITIONSHAPE($,$,(#207,#206));
#209=IFCWALL('09k_QkctTxZzvq2nrNO5jb',$,'Curved',$,$,#200,#208,'w-arc',.STANDARD.);
#210=IFCMATERIALLAYERSETUSAGE(#84,.AXIS2.,.NEGATIVE.,0.075,$);
#211=IFCCARTESIANPOINT((8.,-0.15));
#212=IFCCARTESIANPOINT((8.,6.15));
#213=IFCCARTESIANPOINT((7.7,5.85));
#214=IFCCARTESIANPOINT((7.7,0.15));
#215=IFCPOLYLINE((#211,#212,#213,#214,#211));
#216=IFCARBITRARYCLOSEDPROFILEDEF(.AREA.,$,#215);
#217=IFCLOCALPLACEMENT(#176,#2);
#218=IFCEXTRUDEDAREASOLID(#216,#2,#163,3.);
#219=IFCCARTESIANPOINT((8.,0.));
#220=IFCCARTESIANPOINT((8.,6.));
#221=IFCPOLYLINE((#219,#220));
#222=IFCSHAPEREPRESENTATION(#5,'Body','SweptSolid',(#218));
#223=IFCSHAPEREPRESENTATION(#6,'Axis','Curve2D',(#221));
#224=IFCPRODUCTDEFINITIONSHAPE($,$,(#223,#222));
#225=IFCWALL('2gQEIz0i04zpCOjJsgqk0u',$,'East',$,$,#217,#224,'w-east',.STANDARD.);
#226=IFCMATERIALLAYERSETUSAGE(#90,.AXIS2.,.NEGATIVE.,0.3,$);
#227=IFCDIRECTION((1.,0.,0.));
#228=IFCAXIS2PLACEMENT3D(#1,#163,#227);
#229=IFCLOCALPLACEMENT(#174,#228);
#230=IFCCARTESIANPOINT((4.,0.));
#231=IFCAXIS2PLACEMENT2D(#230,$);
#232=IFCRECTANGLEPROFILEDEF(.AREA.,$,#231,8.,0.3);
#233=IFCEXTRUDEDAREASOLID(#232,#2,#163,2.8);
#234=IFCCARTESIANPOINT((0.,0.));
#235=IFCPOLYLINE((#234,#219));
#236=IFCSHAPEREPRESENTATION(#5,'Body','SweptSolid',(#233));
#237=IFCSHAPEREPRESENTATION(#6,'Axis','Curve2D',(#235));
#238=IFCPRODUCTDEFINITIONSHAPE($,$,(#237,#236));
#239=IFCWALLSTANDARDCASE('0MzownW2Ndl6VpO$2Jdj$S',$,'First South',$,$,#229,#238,'w-first-south',.STANDARD.);
#240=IFCMATERIALLAYERSETUSAGE(#90,.AXIS2.,.NEGATIVE.,0.15,$);
#241=IFCCARTESIANPOINT((2.,2.,0.1));
#242=IFCAXIS2PLACEMENT3D(#241,#163,#227);
#243=IFCLOCALPLACEMENT(#176,#242);
#244=IFCCARTESIANPOINT((1.5,0.));
#245=IFCAXIS2PLACEMENT2D(#244,$);
#246=IFCRECTANGLEPROFILEDEF(.AREA.,$,#245,3.,0.15);
#247=IFCEXTRUDEDAREASOLID(#246,#2,#163,2.4);
#248=IFCCARTESIANPOINT((3.,0.));
#249=IFCPOLYLINE((#234,#248));
#250=IFCSHAPEREPRESENTATION(#5,'Body','SweptSolid',(#247));
#251=IFCSHAPEREPRESENTATION(#6,'Axis','Curve2D',(#249));
#252=IFCPRODUCTDEFINITIONSHAPE($,$,(#251,#250));
#253=IFCWALLSTANDARDCASE('2n4yBqy0dN62LEZzD3Ap1b',$,'Free',$,$,#243,#252,'w-free',.STANDARD.);
#254=IFCMATERIALLAYERSETUSAGE(#84,.AXIS2.,.NEGATIVE.,0.075,$);
#255=IFCCARTESIANPOINT((-0.3,6.15));
#256=IFCCARTESIANPOINT((0.,5.85));
#257=IFCPOLYLINE((#212,#255,#256,#213,#212));
#258=IFCARBITRARYCLOSEDPROFILEDEF(.AREA.,$,#257);
#259=IFCLOCALPLACEMENT(#176,#2);
#260=IFCEXTRUDEDAREASOLID(#258,#2,#163,3.);
#261=IFCCARTESIANPOINT((0.,6.));
#262=IFCPOLYLINE((#220,#261));
#263=IFCSHAPEREPRESENTATION(#5,'Body','SweptSolid',(#260));
#264=IFCSHAPEREPRESENTATION(#6,'Axis','Curve2D',(#262));
#265=IFCPRODUCTDEFINITIONSHAPE($,$,(#264,#263));
#266=IFCWALL('0gX1f2WI35QWDilL3yLZC8',$,'North',$,$,#259,#265,'w-north',.STANDARD.);
#267=IFCMATERIALLAYERSETUSAGE(#90,.AXIS2.,.NEGATIVE.,0.15,$);
#268=IFCCARTESIANPOINT((-0.3,-0.15));
#269=IFCCARTESIANPOINT((0.,0.15));
#270=IFCPOLYLINE((#268,#211,#214,#269,#268));
#271=IFCARBITRARYCLOSEDPROFILEDEF(.AREA.,$,#270);
#272=IFCLOCALPLACEMENT(#176,#2);
#273=IFCEXTRUDEDAREASOLID(#271,#2,#163,3.);
#274=IFCPOLYLINE((#234,#219));
#275=IFCSHAPEREPRESENTATION(#5,'Body','SweptSolid',(#273));
#276=IFCSHAPEREPRESENTATION(#6,'Axis','Curve2D',(#274));
#277=IFCPRODUCTDEFINITIONSHAPE($,$,(#276,#275));
#278=IFCWALL('2_vLPAMaC$hsmSKif007b4',$,'South',$,$,#272,#277,'w-south',.STANDARD.);
#279=IFCMATERIALLAYERSETUSAGE(#90,.AXIS2.,.NEGATIVE.,0.15,$);
#280=IFCPOLYLINE((#255,#268,#269,#256,#255));
#281=IFCARBITRARYCLOSEDPROFILEDEF(.AREA.,$,#280);
#282=IFCLOCALPLACEMENT(#176,#2);
#283=IFCEXTRUDEDAREASOLID(#281,#2,#163,3.);
#284=IFCPOLYLINE((#261,#234));
#285=IFCSHAPEREPRESENTATION(#5,'Body','SweptSolid',(#283));
#286=IFCSHAPEREPRESENTATION(#6,'Axis','Curve2D',(#284));
#287=IFCPRODUCTDEFINITIONSHAPE($,$,(#286,#285));
#288=IFCWALL('0SkIQur02mP0OPlG2KFN_8',$,'West',$,$,#282,#287,'w-west',.STANDARD.);
#289=IFCMATERIALLAYERSETUSAGE(#90,.AXIS2.,.NEGATIVE.,0.,$);
#290=IFCCARTESIANPOINT((6.,0.,0.));
#291=IFCAXIS2PLACEMENT3D(#290,#163,#227);
#292=IFCLOCALPLACEMENT(#272,#291);
#293=IFCAXIS2PLACEMENT2D(#234,$);
#294=IFCRECTANGLEPROFILEDEF(.AREA.,$,#293,0.9,0.3);
#295=IFCEXTRUDEDAREASOLID(#294,#2,#163,2.1);
#296=IFCSHAPEREPRESENTATION(#5,'Body','SweptSolid',(#295));
#297=IFCPRODUCTDEFINITIONSHAPE($,$,(#296));
#298=IFCOPENINGELEMENT('3BWfLGegRjq_btazxXwwLy',$,'Door 1',$,$,#292,#297,'o-door-1',.OPENING.);
#299=IFCRELVOIDSELEMENT('201yQQyooBQnCjDGrp8vFi',$,$,$,#278,#298);
#300=IFCDIRECTION((0.,-1.,0.));
#301=IFCAXIS2PLACEMENT3D(#1,#300,#227);
#302=IFCLOCALPLACEMENT(#292,#301);
#303=IFCCARTESIANPOINT((-0.45,0.));
#304=IFCCARTESIANPOINT((0.45,0.));
#305=IFCCARTESIANPOINT((0.45,2.1));
#306=IFCCARTESIANPOINT((-0.45,2.1));
#307=IFCPOLYLINE((#303,#304,#305,#306,#303));
#308=IFCCARTESIANPOINT((-0.4,0.05));
#309=IFCCARTESIANPOINT((0.4,0.05));
#310=IFCCARTESIANPOINT((0.4,2.05));
#311=IFCCARTESIANPOINT((-0.4,2.05));
#312=IFCPOLYLINE((#308,#309,#310,#311,#308));
#313=IFCARBITRARYPROFILEDEFWITHVOIDS(.AREA.,$,#307,(#312));
#314=IFCCARTESIANPOINT((0.,0.,-0.05));
#315=IFCAXIS2PLACEMENT3D(#314,$,$);
#316=IFCEXTRUDEDAREASOLID(#313,#315,#163,0.1);
#317=IFCCARTESIANPOINT((0.,1.05));
#318=IFCAXIS2PLACEMENT2D(#317,$);
#319=IFCRECTANGLEPROFILEDEF(.AREA.,$,#318,0.8,2.);
#320=IFCCARTESIANPOINT((0.,0.,-0.02));
#321=IFCAXIS2PLACEMENT3D(#320,$,$);
#322=IFCEXTRUDEDAREASOLID(#319,#321,#163,0.04);
#323=IFCSHAPEREPRESENTATION(#5,'Body','SweptSolid',(#316,#322));
#324=IFCPRODUCTDEFINITIONSHAPE($,$,(#323));
#325=IFCDOOR('2fCFg0CDufLXBMAX$Tdc7I',$,'Door 1',$,$,#302,#324,'o-door-1',2.1,0.9,.DOOR.,.SINGLE_SWING_LEFT.,$);
#326=IFCRELFILLSELEMENT('148qvDSg7Us9AZyU9eM0wR',$,$,$,#298,#325);
#327=IFCCARTESIANPOINT((4.,0.,0.));
#328=IFCAXIS2PLACEMENT3D(#327,$,$);
#329=IFCLOCALPLACEMENT(#229,#328);
#330=IFCRECTANGLEPROFILEDEF(.AREA.,$,#293,1.8,0.3);
#331=IFCEXTRUDEDAREASOLID(#330,#2,#163,2.1);
#332=IFCSHAPEREPRESENTATION(#5,'Body','SweptSolid',(#331));
#333=IFCPRODUCTDEFINITIONSHAPE($,$,(#332));
#334=IFCOPENINGELEMENT('1gRR7GuSTXNA2TUjbcIVZ9',$,'Double door',$,$,#329,#333,'o-door-2',.OPENING.);
#335=IFCRELVOIDSELEMENT('0r4bMz6NhtTB2KnXZdOQEE',$,$,$,#239,#334);
#336=IFCLOCALPLACEMENT(#329,#301);
#337=IFCCARTESIANPOINT((-0.9,0.));
#338=IFCCARTESIANPOINT((0.9,0.));
#339=IFCCARTESIANPOINT((0.9,2.1));
#340=IFCCARTESIANPOINT((-0.9,2.1));
#341=IFCPOLYLINE((#337,#338,#339,#340,#337));
#342=IFCCARTESIANPOINT((-0.85,0.05));
#343=IFCCARTESIANPOINT((0.85,0.05));
#344=IFCCARTESIANPOINT((0.85,2.05));
#345=IFCCARTESIANPOINT((-0.85,2.05));
#346=IFCPOLYLINE((#342,#343,#344,#345,#342));
#347=IFCARBITRARYPROFILEDEFWITHVOIDS(.AREA.,$,#341,(#346));
#348=IFCEXTRUDEDAREASOLID(#347,#315,#163,0.1);
#349=IFCRECTANGLEPROFILEDEF(.AREA.,$,#318,1.7,2.);
#350=IFCEXTRUDEDAREASOLID(#349,#321,#163,0.04);
#351=IFCSHAPEREPRESENTATION(#5,'Body','SweptSolid',(#348,#350));
#352=IFCPRODUCTDEFINITIONSHAPE($,$,(#351));
#353=IFCDOOR('223loIyAlgDj1_Tv4csUmJ',$,'Double door',$,$,#336,#352,'o-door-2',2.1,1.8,.DOOR.,.DOUBLE_DOOR_SINGLE_SWING.,$);
#354=IFCRELFILLSELEMENT('27YiIFT_YcdPT5a8D0h2fg',$,$,$,#334,#353);
#355=IFCCARTESIANPOINT((7.85,3.,1.));
#356=IFCDIRECTION((0.,1.,0.));
#357=IFCAXIS2PLACEMENT3D(#355,#163,#356);
#358=IFCLOCALPLACEMENT(#217,#357);
#359=IFCRECTANGLEPROFILEDEF(.AREA.,$,#293,0.6,0.3);
#360=IFCEXTRUDEDAREASOLID(#359,#2,#163,0.8);
#361=IFCSHAPEREPRESENTATION(#5,'Body','SweptSolid',(#360));
#362=IFCPRODUCTDEFINITIONSHAPE($,$,(#361));
#363=IFCOPENINGELEMENT('0rWSt43$D08pzsIc8V48m6',$,'Duct',$,$,#358,#362,'o-void-1',.OPENING.);
#364=IFCRELVOIDSELEMENT('06mRGw1d4i0Oy$gmFCdJ87',$,$,$,#225,#363);
#365=IFCCARTESIANPOINT((2.,0.,0.9));
#366=IFCAXIS2PLACEMENT3D(#365,#163,#227);
#367=IFCLOCALPLACEMENT(#272,#366);
#368=IFCRECTANGLEPROFILEDEF(.AREA.,$,#293,1.2,0.3);
#369=IFCEXTRUDEDAREASOLID(#368,#2,#163,1.2);
#370=IFCSHAPEREPRESENTATION(#5,'Body','SweptSolid',(#369));
#371=IFCPRODUCTDEFINITIONSHAPE($,$,(#370));
#372=IFCOPENINGELEMENT('27DdlupN0yEFmkAspmX06m',$,'Window 1',$,$,#367,#371,'o-win-1',.OPENING.);
#373=IFCRELVOIDSELEMENT('1W2iP6T0EDbNkzUDGWnBQH',$,$,$,#278,#372);
#374=IFCLOCALPLACEMENT(#367,#301);
#375=IFCCARTESIANPOINT((-0.6,0.));
#376=IFCCARTESIANPOINT((0.6,0.));
#377=IFCCARTESIANPOINT((0.6,1.2));
#378=IFCCARTESIANPOINT((-0.6,1.2));
#379=IFCPOLYLINE((#375,#376,#377,#378,#375));
#380=IFCCARTESIANPOINT((-0.54,0.06));
#381=IFCCARTESIANPOINT((0.54,0.06));
#382=IFCCARTESIANPOINT((0.54,1.14));
#383=IFCCARTESIANPOINT((-0.54,1.14));
#384=IFCPOLYLINE((#380,#381,#382,#383,#380));
#385=IFCARBITRARYPROFILEDEFWITHVOIDS(.AREA.,$,#379,(#384));
#386=IFCCARTESIANPOINT((0.,0.,-0.04));
#387=IFCAXIS2PLACEMENT3D(#386,$,$);
#388=IFCEXTRUDEDAREASOLID(#385,#387,#163,0.08);
#389=IFCCARTESIANPOINT((0.,0.6));
#390=IFCAXIS2PLACEMENT2D(#389,$);
#391=IFCRECTANGLEPROFILEDEF(.AREA.,$,#390,1.08,1.08);
#392=IFCCARTESIANPOINT((0.,0.,-0.012));
#393=IFCAXIS2PLACEMENT3D(#392,$,$);
#394=IFCEXTRUDEDAREASOLID(#391,#393,#163,0.024);
#395=IFCSHAPEREPRESENTATION(#5,'Body','SweptSolid',(#388,#394));
#396=IFCPRODUCTDEFINITIONSHAPE($,$,(#395));
#397=IFCWINDOW('0Hg8L_ovkYJla5LU6cKnqj',$,'Window 1',$,$,#374,#396,'o-win-1',1.2,1.2,.WINDOW.,.DOUBLE_PANEL_VERTICAL.,$);
#398=IFCRELFILLSELEMENT('3XmyYJdKnA8DK_LsbcmzU8',$,$,$,#372,#397);
#399=IFCCARTESIANPOINT((4.,6.,1.));
#400=IFCDIRECTION((-1.,0.,0.));
#401=IFCAXIS2PLACEMENT3D(#399,#163,#400);
#402=IFCLOCALPLACEMENT(#259,#401);
#403=IFCRECTANGLEPROFILEDEF(.AREA.,$,#293,1.,0.3);
#404=IFCEXTRUDEDAREASOLID(#403,#2,#163,1.2);
#405=IFCSHAPEREPRESENTATION(#5,'Body','SweptSolid',(#404));
#406=IFCPRODUCTDEFINITIONSHAPE($,$,(#405));
#407=IFCOPENINGELEMENT('2Vt405vGhV2gNcKGYbs8DJ',$,'Window 2',$,$,#402,#406,'o-win-2',.OPENING.);
#408=IFCRELVOIDSELEMENT('3aUb8sFa1a5m3vgvIs8Yod',$,$,$,#266,#407);
#409=IFCAXIS2PLACEMENT3D(#1,#356,#400);
#410=IFCLOCALPLACEMENT(#402,#409);
#411=IFCCARTESIANPOINT((-0.5,0.));
#412=IFCCARTESIANPOINT((0.5,0.));
#413=IFCCARTESIANPOINT((0.5,1.2));
#414=IFCCARTESIANPOINT((-0.5,1.2));
#415=IFCPOLYLINE((#411,#412,#413,#414,#411));
#416=IFCCARTESIANPOINT((-0.44,0.06));
#417=IFCCARTESIANPOINT((0.44,0.06));
#418=IFCCARTESIANPOINT((0.44,1.14));
#419=IFCCARTESIANPOINT((-0.44,1.14));
#420=IFCPOLYLINE((#416,#417,#418,#419,#416));
#421=IFCARBITRARYPROFILEDEFWITHVOIDS(.AREA.,$,#415,(#420));
#422=IFCEXTRUDEDAREASOLID(#421,#387,#163,0.08);
#423=IFCRECTANGLEPROFILEDEF(.AREA.,$,#390,0.88,1.08);
#424=IFCEXTRUDEDAREASOLID(#423,#393,#163,0.024);
#425=IFCSHAPEREPRESENTATION(#5,'Body','SweptSolid',(#422,#424));
#426=IFCPRODUCTDEFINITIONSHAPE($,$,(#425));
#427=IFCWINDOW('24ReR_W7KzySDnOE328Mxk',$,'Window 2',$,$,#410,#426,'o-win-2',1.2,1.,.WINDOW.,.DOUBLE_PANEL_VERTICAL.,$);
#428=IFCRELFILLSELEMENT('2OwZC2RNywJ3zd0Rfpg_Yt',$,$,$,#407,#427);
#429=IFCCARTESIANPOINT((10.785204679,3.292564457,0.9));
#430=IFCDIRECTION((-0.100884295,0.994898165,0.));
#431=IFCAXIS2PLACEMENT3D(#429,#163,#430);
#432=IFCLOCALPLACEMENT(#200,#431);
#433=IFCRECTANGLEPROFILEDEF(.AREA.,$,#293,1.2,0.15);
#434=IFCEXTRUDEDAREASOLID(#433,#2,#163,1.2);
#435=IFCSHAPEREPRESENTATION(#5,'Body','SweptSolid',(#434));
#436=IFCPRODUCTDEFINITIONSHAPE($,$,(#435));
#437=IFCOPENINGELEMENT('0KEmTO5Jjh8yU0m0ExmQAq',$,'Curved window',$,$,#432,#436,'o-win-arc',.OPENING.);
#438=IFCRELVOIDSELEMENT('0us4SWPg2ZLVziH8Fv3kqH',$,$,$,#209,#437);
#439=IFCLOCALPLACEMENT(#432,#301);
#440=IFCPOLYLINE((#375,#376,#377,#378,#375));
#441=IFCPOLYLINE((#380,#381,#382,#383,#380));
#442=IFCARBITRARYPROFILEDEFWITHVOIDS(.AREA.,$,#440,(#441));
#443=IFCEXTRUDEDAREASOLID(#442,#387,#163,0.08);
#444=IFCRECTANGLEPROFILEDEF(.AREA.,$,#390,1.08,1.08);
#445=IFCEXTRUDEDAREASOLID(#444,#393,#163,0.024);
#446=IFCSHAPEREPRESENTATION(#5,'Body','SweptSolid',(#443,#445));
#447=IFCPRODUCTDEFINITIONSHAPE($,$,(#446));
#448=IFCWINDOW('0qR1KV89aTRZn4obMgmcfa',$,'Curved window',$,$,#439,#447,'o-win-arc',1.2,1.2,.WINDOW.,.DOUBLE_PANEL_VERTICAL.,$);
#449=IFCRELFILLSELEMENT('0mO6s6DqRWAUJG56wYGXAx',$,$,$,#437,#448);
#450=IFCLOCALPLACEMENT(#174,#2);
#451=IFCCURTAINWALL('3pCWwP0g60yXP7QurIkFzG',$,'Facade',$,$,#450,$,'cw-1',$);
#452=IFCCARTESIANPOINTLIST3D(((0.,6.05,0.),(0.05,5.95,0.),(0.,5.95,0.),(0.,6.05,2.8),(0.,5.95,2.8),(0.05,5.95,2.8),(0.05,6.05,0.),(0.05,6.05,2.8),(1.475,6.05,0.),(1.525,5.95,0.),(1.475,5.95,0.),(1.475,6.05,2.8),(1.475,5.95,2.8),(1.525,5.95,2.8),(1.525,6.05,0.),(1.525,6.05,2.8),(2.975,6.05,0.),(3.025,5.95,0.),(2.975,5.95,0.),(2.975,6.05,2.8),(2.975,5.95,2.8),(3.025,5.95,2.8),(3.025,6.05,0.),(3.025,6.05,2.8),(4.475,6.05,0.),(4.525,5.95,0.),(4.475,5.95,0.),(4.475,6.05,2.8),(4.475,5.95,2.8),(4.525,5.95,2.8),(4.525,6.05,0.),(4.525,6.05,2.8),(5.95,6.05,0.),(6.,5.95,0.),(5.95,5.95,0.),(5.95,6.05,2.8),(5.95,5.95,2.8),(6.,5.95,2.8),(6.,6.05,0.),(6.,6.05,2.8),(0.05,6.05,0.05),(1.475,6.05,0.05),(0.05,5.95,0.05),(1.475,5.95,0.05),(1.525,6.05,0.05),(2.975,6.05,0.05),(1.525,5.95,0.05),(2.975,5.95,0.05),(3.025,6.05,0.05),(4.475,6.05,0.05),(3.025,5.95,0.05),(4.475,5.95,0.05),(4.525,6.05,0.05),(5.95,6.05,0.05),(4.525,5.95,0.05),(5.95,5.95,0.05),(0.05,5.95,1.375),(0.05,6.05,1.425),(0.05,6.05,1.375),(1.475,5.95,1.375),(1.475,6.05,1.375),(1.475,6.05,1.425),(0.05,5.95,1.425),(1.475,5.95,1.425),(1.525,5.95,1.375),(1.525,6.05,1.425),(1.525,6.05,1.375),(2.975,5.95,1.375),(2.975,6.05,1.375),(2.975,6.05,1.425),(1.525,5.95,1.425),(2.975,5.95,1.425),(3.025,5.95,1.375),(3.025,6.05,1.425),(3.025,6.05,1.375),(4.475,5.95,1.375),(4.475,6.05,1.375),(4.475,6.05,1.425),(3.025,5.95,1.425),(4.475,5.95,1.425),(4.525,5.95,1.375),(4.525,6.05,1.425),(4.525,6.05,1.375),(5.95,5.95,1.375),(5.95,6.05,1.375),(5.95,6.05,1.425),(4.525,5.95,1.425),(5.95,5.95,1.425),(0.05,5.95,2.75),(0.05,6.05,2.75),(1.475,5.95,2.75),(1.475,6.05,2.75),(1.525,5.95,2.75),(1.525,6.05,2.75),(2.975,5.95,2.75),(2.975,6.05,2.75),(3.025,5.95,2.75),(3.025,6.05,2.75),(4.475,5.95,2.75),(4.475,6.05,2.75),(4.525,5.95,2.75),(4.525,6.05,2.75),(5.95,5.95,2.75),(5.95,6.05,2.75)));
#453=IFCTRIANGULATEDFACESET(#452,$,$,((1,2,3),(4,5,6),(1,7,2),(4,6,8),(3,2,6),(3,6,5),(2,7,8),(2,8,6),(7,1,4),(7,4,8),(1,3,5),(1,5,4),(9,10,11),(12,13,14),(9,15,10),(12,14,16),(11,10,14),(11,14,13),(10,15,16),(10,16,14),(15,9,12),(15,12,16),(9,11,13),(9,13,12),(17,18,19),(20,21,22),(17,23,18),(20,22,24),(19,18,22),(19,22,21),(18,23,24),(18,24,22),(23,17,20),(23,20,24),(17,19,21),(17,21,20),(25,26,27),(28,29,30),(25,31,26),(28,30,32),(27,26,30),(27,30,29),(26,31,32),(26,32,30),(31,25,28),(31,28,32),(25,27,29),(25,29,28),(33,34,35),(36,37,38),(33,39,34),(36,38,40),(35,34,38),(35,38,37),(34,39,40),(34,40,38),(39,33,36),(39,36,40),(33,35,37),(33,37,36),(2,41,7),(11,9,42),(2,43,41),(11,42,44),(7,41,42),(7,42,9),(41,43,44),(41,44,42),(43,2,11),(43,11,44),(2,7,9),(2,9,11),(10,45,15),(19,17,46),(10,47,45),(19,46,48),(15,45,46),(15,46,17),(45,47,48),(45,48,46),(47,10,19),(47,19,48),(10,15,17),(10,17,19),(18,49,23),(27,25,50),(18,51,49),(27,50,52),(23,49,50),(23,50,25),(49,51,52),(49,52,50),(51,18,27),(51,27,52),(18,23,25),(18,25,27),(26,53,31),(35,33,54),(26,55,53),(35,54,56),(31,53,54),(31,54,33),(53,55,56),(53,56,54),(55,26,35),(55,35,56),(26,31,33),(26,33,35),(57,58,59),(60,61,62),(57,63,58),(60,62,64),(59,58,62),(59,62,61),(58,63,64),(58,64,62),(63,57,60),(63,60,64),(57,59,61),(57,61,60),(65,66,67),(68,69,70),(65,71,66),(68,70,72),(67,66,70),(67,70,69),(66,71,72),(66,72,70),(71,65,68),(71,68,72),(65,67,69),(65,69,68),(73,74,75),(76,77,78),(73,79,74),(76,78,80),(75,74,78),(75,78,77),(74,79,80),(74,80,78),(79,73,76),(79,76,80),(73,75,77),(73,77,76),(81,82,83),(84,85,86),(81,87,82),(84,86,88),(83,82,86),(83,86,85),(82,87,88),(82,88,86),(87,81,84),(87,84,88),(81,83,85),(81,85,84),(89,8,90),(91,92,12),(89,6,8),(91,12,13),(90,8,12),(90,12,92),(8,6,13),(8,13,12),(6,89,91),(6,91,13),(89,90,92),(89,92,91),(93,16,94),(95,96,20),(93,14,16),(95,20,21),(94,16,20),(94,20,96),(16,14,21),(16,21,20),(14,93,95),(14,95,21),(93,94,96),(93,96,95),(97,24,98),(99,100,28),(97,22,24),(99,28,29),(98,24,28),(98,28,100),(24,22,29),(24,29,28),(22,97,99),(22,99,29),(97,98,100),(97,100,99),(101,32,102),(103,104,36),(101,30,32),(103,36,37),(102,32,36),(102,36,104),(32,30,37),(32,37,36),(30,101,103),(30,103,37),(101,102,104),(101,104,103)),$);
#454=IFCSHAPEREPRESENTATION(#5,'Body','Tessellation',(#453));
#455=IFCPRODUCTDEFINITIONSHAPE($,$,(#454));
#456=IFCLOCALPLACEMENT(#174,#2);
#457=IFCMEMBER('3TW0qDRqFsdpsFQkuD4jRY',$,'Facade',$,$,#456,#455,'cw-1:mullion',.MULLION.);
#458=IFCCARTESIANPOINTLIST3D(((0.05,6.012,0.05),(1.475,5.988,0.05),(0.05,5.988,0.05),(0.05,6.012,1.375),(0.05,5.988,1.375),(1.475,5.988,1.375),(1.475,6.012,0.05),(1.475,6.012,1.375),(1.525,6.012,0.05),(2.975,5.988,0.05),(1.525,5.988,0.05),(1.525,6.012,1.375),(1.525,5.988,1.375),(2.975,5.988,1.375),(2.975,6.012,0.05),(2.975,6.012,1.375),(3.025,6.012,0.05),(4.475,5.988,0.05),(3.025,5.988,0.05),(3.025,6.012,1.375),(3.025,5.988,1.375),(4.475,5.988,1.375),(4.475,6.012,0.05),(4.475,6.012,1.375),(4.525,6.012,0.05),(5.95,5.988,0.05),(4.525,5.988,0.05),(4.525,6.012,1.375),(4.525,5.988,1.375),(5.95,5.988,1.375),(5.95,6.012,0.05),(5.95,6.012,1.375),(0.05,6.012,1.425),(1.475,5.988,1.425),(0.05,5.988,1.425),(0.05,6.012,2.75),(0.05,5.988,2.75),(1.475,5.988,2.75),(1.475,6.012,1.425),(1.475,6.012,2.75),(1.525,6.012,1.425),(2.975,5.988,1.425),(1.525,5.988,1.425),(1.525,6.012,2.75),(1.525,5.988,2.75),(2.975,5.988,2.75),(2.975,6.012,1.425),(2.975,6.012,2.75),(3.025,6.012,1.425),(4.475,5.988,1.425),(3.025,5.988,1.425),(3.025,6.012,2.75),(3.025,5.988,2.75),(4.475,5.988,2.75),(4.475,6.012,1.425),(4.475,6.012,2.75),(4.525,6.012,1.425),(5.95,5.988,1.425),(4.525,5.988,1.425),(4.525,6.012,2.75),(4.525,5.988,2.75),(5.95,5.988,2.75),(5.95,6.012,1.425),(5.95,6.012,2.75)));
#459=IFCTRIANGULATEDFACESET(#458,$,$,((1,2,3),(4,5,6),(1,7,2),(4,6,8),(3,2,6),(3,6,5),(2,7,8),(2,8,6),(7,1,4),(7,4,8),(1,3,5),(1,5,4),(9,10,11),(12,13,14),(9,15,10),(12,14,16),(11,10,14),(11,14,13),(10,15,16),(10,16,14),(15,9,12),(15,12,16),(9,11,13),(9,13,12),(17,18,19),(20,21,22),(17,23,18),(20,22,24),(19,18,22),(19,22,21),(18,23,24),(18,24,22),(23,17,20),(23,20,24),(17,19,21),(17,21,20),(25,26,27),(28,29,30),(25,31,26),(28,30,32),(27,26,30),(27,30,29),(26,31,32),(26,32,30),(31,25,28),(31,28,32),(25,27,29),(25,29,28),(33,34,35),(36,37,38),(33,39,34),(36,38,40),(35,34,38),(35,38,37),(34,39,40),(34,40,38),(39,33,36),(39,36,40),(33,35,37),(33,37,36),(41,42,43),(44,45,46),(41,47,42),(44,46,48),(43,42,46),(43,46,45),(42,47,48),(42,48,46),(47,41,44),(47,44,48),(41,43,45),(41,45,44),(49,50,51),(52,53,54),(49,55,50),(52,54,56),(51,50,54),(51,54,53),(50,55,56),(50,56,54),(55,49,52),(55,52,56),(49,51,53),(49,53,52),(57,58,59),(60,61,62),(57,63,58),(60,62,64),(59,58,62),(59,62,61),(58,63,64),(58,64,62),(63,57,60),(63,60,64),(57,59,61),(57,61,60)),$);
#460=IFCSHAPEREPRESENTATION(#5,'Body','Tessellation',(#459));
#461=IFCPRODUCTDEFINITIONSHAPE($,$,(#460));
#462=IFCLOCALPLACEMENT(#174,#2);
#463=IFCPLATE('1LNBVxGCbtoGWpl7_b6q65',$,'Facade',$,$,#462,#461,'cw-1:panel:m-wool',.CURTAIN_PANEL.);
#464=IFCRECTANGLEPROFILEDEF(.AREA.,$,#293,0.3,0.3);
#465=IFCCARTESIANPOINT((4.,3.,0.));
#466=IFCDIRECTION((0.955336489,0.295520207,0.));
#467=IFCAXIS2PLACEMENT3D(#465,#163,#466);
#468=IFCLOCALPLACEMENT(#176,#467);
#469=IFCEXTRUDEDAREASOLID(#464,#2,#163,3.);
#470=IFCSHAPEREPRESENTATION(#5,'Body','SweptSolid',(#469));
#471=IFCPRODUCTDEFINITIONSHAPE($,$,(#470));
#472=IFCCOLUMN('2tlqLUnAtaghjp$NVXvE1u',$,'C1',$,$,#468,#471,'c-1',.COLUMN.);
#473=IFCCIRCLEPROFILEDEF(.AREA.,$,#293,0.2);
#474=IFCCARTESIANPOINT((6.,3.,0.2));
#475=IFCAXIS2PLACEMENT3D(#474,$,$);
#476=IFCLOCALPLACEMENT(#176,#475);
#477=IFCEXTRUDEDAREASOLID(#473,#2,#163,2.5);
#478=IFCSHAPEREPRESENTATION(#5,'Body','SweptSolid',(#477));
#479=IFCPRODUCTDEFINITIONSHAPE($,$,(#478));
#480=IFCCOLUMN('1T9S51QNZ34T0pkGp0qdlE',$,'C2',$,$,#476,#479,'c-2',.COLUMN.);
#481=IFCCARTESIANPOINTLIST3D(((4.15701274,2.925,2.7107),(4.15701274,3.075,2.7),(4.15701274,2.925,2.7),(6.,2.925,2.7107),(6.,2.925,2.7),(6.,3.075,2.7),(4.15701274,3.00355,2.7107),(4.15701274,3.075,2.7107),(6.,3.075,2.7107),(6.,3.00355,2.7107),(4.15701274,3.00355,2.9893),(4.15701274,3.075,3.),(4.15701274,3.075,2.9893),(6.,3.00355,2.9893),(6.,3.075,2.9893),(6.,3.075,3.),(4.15701274,2.925,3.),(6.,2.925,3.),(4.15701274,2.99645,2.9893),(4.15701274,2.925,2.9893),(6.,2.925,2.9893),(6.,2.99645,2.9893),(4.15701274,2.99645,2.7107),(6.,2.99645,2.7107)));
#482=IFCTRIANGULATEDFACESET(#481,$,$,((1,2,3),(4,5,6),(2,7,8),(6,9,10),(11,12,13),(14,15,16),(11,17,12),(14,16,18),(17,19,20),(18,21,22),(23,2,1),(24,4,6),(23,7,2),(24,6,10),(23,11,7),(24,10,14),(11,19,17),(14,18,22),(11,23,19),(14,22,24),(3,2,6),(3,6,5),(2,8,9),(2,9,6),(8,7,10),(8,10,9),(7,11,14),(7,14,10),(11,13,15),(11,15,14),(13,12,16),(13,16,15),(12,17,18),(12,18,16),(17,20,21),(17,21,18),(20,19,22),(20,22,21),(19,23,24),(19,24,22),(23,1,4),(23,4,24),(1,3,5),(1,5,4)),$);
#483=IFCCARTESIANPOINT((4.,3.));
#484=IFCCARTESIANPOINT((6.,3.));
#485=IFCPOLYLINE((#483,#484));
#486=IFCSHAPEREPRESENTATION(#6,'Axis','Curve2D',(#485));
#487=IFCSHAPEREPRESENTATION(#5,'Body','Tessellation',(#482));
#488=IFCLOCALPLACEMENT(#176,#2);
#489=IFCPRODUCTDEFINITIONSHAPE($,$,(#486,#487));
#490=IFCBEAM('0f8suY8ImoN37kc9aylUqN',$,'B1',$,$,#488,#489,'b-1',.BEAM.);
#491=IFCCARTESIANPOINTLIST3D(((0.,2.875,2.9),(0.,3.125,2.5),(0.,2.875,2.5),(3.84298726,2.875,2.9),(3.84298726,2.875,2.5),(3.84298726,3.125,2.5),(0.,3.125,2.9),(3.84298726,3.125,2.9)));
#492=IFCTRIANGULATEDFACESET(#491,$,$,((1,2,3),(4,5,6),(1,7,2),(4,6,8),(3,2,6),(3,6,5),(2,7,8),(2,8,6),(7,1,4),(7,4,8),(1,3,5),(1,5,4)),$);
#493=IFCCARTESIANPOINT((0.,3.));
#494=IFCPOLYLINE((#493,#483));
#495=IFCSHAPEREPRESENTATION(#6,'Axis','Curve2D',(#494));
#496=IFCSHAPEREPRESENTATION(#5,'Body','Tessellation',(#492));
#497=IFCLOCALPLACEMENT(#176,#2);
#498=IFCPRODUCTDEFINITIONSHAPE($,$,(#495,#496));
#499=IFCBEAM('05WtPR8kDgb4Bv6xAtWPMM',$,'B2',$,$,#497,#498,'b-2',.BEAM.);
#500=IFCLOCALPLACEMENT(#174,#2);
#501=IFCCARTESIANPOINTLIST3D(((8.,2.,-0.05),(10.,0.,-0.150083417),(8.,0.,-0.05),(8.,2.,0.),(8.,0.,0.),(10.,0.,-0.100083417),(10.,2.,-0.150083417),(10.,2.,-0.100083417),(8.,2.,-0.25),(10.,0.,-0.350083417),(8.,0.,-0.25),(10.,2.,-0.350083417)));
#502=IFCTRIANGULATEDFACESET(#501,$,$,((1,2,3),(4,5,6),(1,7,2),(4,6,8),(3,2,6),(3,6,5),(2,7,8),(2,8,6),(7,1,4),(7,4,8),(1,3,5),(1,5,4),(9,10,11),(1,3,2),(9,12,10),(1,2,7),(11,10,2),(11,2,3),(10,12,7),(10,7,2),(12,9,1),(12,1,7),(9,11,3),(9,3,1)),$);
#503=IFCSHAPEREPRESENTATION(#5,'Body','Tessellation',(#502));
#504=IFCPRODUCTDEFINITIONSHAPE($,$,(#503));
#505=IFCSLAB('1QYvr_GKlDaOpLV9SNtWoj',$,'Balcony',$,$,#500,#504,'sl-balcony',.FLOOR.);
#506=IFCMATERIALLAYERSETUSAGE(#96,.AXIS3.,.NEGATIVE.,0.25,$);
#507=IFCCARTESIANPOINT((0.,0.,-0.25));
#508=IFCAXIS2PLACEMENT3D(#507,$,$);
#509=IFCLOCALPLACEMENT(#174,#508);
#510=IFCPOLYLINE((#234,#219,#220,#261,#234));
#511=IFCARBITRARYCLOSEDPROFILEDEF(.AREA.,$,#510);
#512=IFCEXTRUDEDAREASOLID(#511,#2,#163,0.25);
#513=IFCSHAPEREPRESENTATION(#5,'Body','SweptSolid',(#512));
#514=IFCPRODUCTDEFINITIONSHAPE($,$,(#513));
#515=IFCSLAB('13mWDkF7YQVLrGrewYCBeb',$,'First slab',$,$,#509,#514,'sl-first',.FLOOR.);
#516=IFCMATERIALLAYERSETUSAGE(#96,.AXIS3.,.NEGATIVE.,0.25,$);
#517=IFCLOCALPLACEMENT(#176,#508);
#518=IFCPOLYLINE((#234,#219,#220,#261,#234));
#519=IFCCARTESIANPOINT((5.5,4.));
#520=IFCCARTESIANPOINT((5.5,5.));
#521=IFCCARTESIANPOINT((6.5,5.));
#522=IFCCARTESIANPOINT((6.5,4.));
#523=IFCPOLYLINE((#519,#520,#521,#522,#519));
#524=IFCARBITRARYPROFILEDEFWITHVOIDS(.AREA.,$,#518,(#523));
#525=IFCEXTRUDEDAREASOLID(#524,#2,#163,0.25);
#526=IFCSHAPEREPRESENTATION(#5,'Body','SweptSolid',(#525));
#527=IFCPRODUCTDEFINITIONSHAPE($,$,(#526));
#528=IFCSLAB('3W6C3EGWYPZ105oXKQfyAK',$,'Ground slab',$,$,#517,#527,'sl-ground',.FLOOR.);
#529=IFCMATERIALLAYERSETUSAGE(#96,.AXIS3.,.NEGATIVE.,0.25,$);
#530=IFCLOCALPLACEMENT(#180,#2);
#531=IFCROOF('3U4czFd0KGdZrGE6bgsmwM',$,'Roof',$,$,#530,$,'r-1',.GABLE_ROOF.);
#532=IFCCARTESIANPOINTLIST3D(((-0.299999982,3.,2.542798216),(-0.3,-0.3,0.74),(8.3,-0.3,0.74),(8.3,-0.3,0.7),(-0.3,-0.3,0.7),(-0.299999982,3.,2.502798216),(8.299999982,3.,2.542798216),(8.299999982,3.,2.502798216),(8.3,6.3,0.74),(-0.3,6.3,0.74),(-0.3,6.3,0.7),(8.3,6.3,0.7)));
#533=IFCTRIANGULATEDFACESET(#532,$,$,((1,2,3),(4,5,6),(1,3,7),(8,4,6),(7,9,10),(11,12,8),(7,10,1),(6,11,8),(2,5,4),(2,4,3),(10,11,6),(10,6,1),(1,6,5),(1,5,2),(7,8,12),(7,12,9),(3,4,8),(3,8,7),(9,12,11),(9,11,10)),$);
#534=IFCSHAPEREPRESENTATION(#5,'Body','Tessellation',(#533));
#535=IFCPRODUCTDEFINITIONSHAPE($,$,(#534));
#536=IFCLOCALPLACEMENT(#180,#2);
#537=IFCSLAB('1Kx2t8NTqlxW5$pzq0T3zk',$,'Roof',$,$,#536,#535,'r-1:layer0',.ROOF.);
#538=IFCCARTESIANPOINTLIST3D(((-0.299999982,3.,2.502798216),(-0.3,-0.3,0.7),(8.3,-0.3,0.7),(8.3,-0.3,0.5),(-0.3,-0.3,0.5),(-0.299999982,3.,2.302798216),(8.299999982,3.,2.502798216),(8.299999982,3.,2.302798216),(8.3,6.3,0.7),(-0.3,6.3,0.7),(-0.3,6.3,0.5),(8.3,6.3,0.5)));
#539=IFCTRIANGULATEDFACESET(#538,$,$,((1,2,3),(4,5,6),(1,3,7),(8,4,6),(7,9,10),(11,12,8),(7,10,1),(6,11,8),(2,5,4),(2,4,3),(10,11,6),(10,6,1),(1,6,5),(1,5,2),(7,8,12),(7,12,9),(3,4,8),(3,8,7),(9,12,11),(9,11,10)),$);
#540=IFCSHAPEREPRESENTATION(#5,'Body','Tessellation',(#539));
#541=IFCPRODUCTDEFINITIONSHAPE($,$,(#540));
#542=IFCLOCALPLACEMENT(#180,#2);
#543=IFCSLAB('2bV_4AOuZ7$bWmKHRdErem',$,'Roof',$,$,#542,#541,'r-1:layer1',.ROOF.);
#544=IFCLOCALPLACEMENT(#176,#2);
#545=IFCSTAIR('0_sWgOEjGzQ$kg9dLueelo',$,'Stair 1',$,$,#544,$,'s-1',.STRAIGHT_RUN_STAIR.);
#546=IFCCARTESIANPOINTLIST3D(((1.,1.5,0.136470588),(1.27,0.5,0.136470588),(1.,0.5,0.136470588),(1.,1.5,0.176470588),(1.,0.5,0.176470588),(1.27,0.5,0.176470588),(1.27,1.5,0.136470588),(1.27,1.5,0.176470588),(1.27,1.5,0.312941176),(1.54,0.5,0.312941176),(1.27,0.5,0.312941176),(1.27,1.5,0.352941176),(1.27,0.5,0.352941176),(1.54,0.5,0.352941176),(1.54,1.5,0.312941176),(1.54,1.5,0.352941176),(1.54,1.5,0.489411765),(1.81,0.5,0.489411765),(1.54,0.5,0.489411765),(1.54,1.5,0.529411765),(1.54,0.5,0.529411765),(1.81,0.5,0.529411765),(1.81,1.5,0.489411765),(1.81,1.5,0.529411765),(1.81,1.5,0.665882353),(2.08,0.5,0.665882353),(1.81,0.5,0.665882353),(1.81,1.5,0.705882353),(1.81,0.5,0.705882353),(2.08,0.5,0.705882353),(2.08,1.5,0.665882353),(2.08,1.5,0.705882353),(2.08,1.5,0.842352941),(2.35,0.5,0.842352941),(2.08,0.5,0.842352941),(2.08,1.5,0.882352941),(2.08,0.5,0.882352941),(2.35,0.5,0.882352941),(2.35,1.5,0.842352941),(2.35,1.5,0.882352941),(2.35,1.5,1.018823529),(2.62,0.5,1.018823529),(2.35,0.5,1.018823529),(2.35,1.5,1.058823529),(2.35,0.5,1.058823529),(2.62,0.5,1.058823529),(2.62,1.5,1.018823529),(2.62,1.5,1.058823529),(2.62,1.5,1.195294118),(2.89,0.5,1.195294118),(2.62,0.5,1.195294118),(2.62,1.5,1.235294118),(2.62,0.5,1.235294118),(2.89,0.5,1.235294118),(2.89,1.5,1.195294118),(2.89,1.5,1.235294118),(2.89,1.5,1.371764706),(3.16,0.5,1.371764706),(2.89,0.5,1.371764706),(2.89,1.5,1.411764706),(2.89,0.5,1.411764706),(3.16,0.5,1.411764706),(3.16,1.5,1.371764706),(3.16,1.5,1.411764706),(3.16,1.5,1.548235294),(3.43,0.5,1.548235294),(3.16,0.5,1.548235294),(3.16,1.5,1.588235294),(3.16,0.5,1.588235294),(3.43,0.5,1.588235294),(3.43,1.5,1.548235294),(3.43,1.5,1.588235294),(3.43,1.5,1.724705882),(3.7,0.5,1.724705882),(3.43,0.5,1.724705882),(3.43,1.5,1.764705882),(3.43,0.5,1.764705882),(3.7,0.5,1.764705882),(3.7,1.5,1.724705882),(3.7,1.5,1.764705882),(3.7,1.5,1.901176471),(3.97,0.5,1.901176471),(3.7,0.5,1.901176471),(3.7,1.5,1.941176471),(3.7,0.5,1.941176471),(3.97,0.5,1.941176471),(3.97,1.5,1.901176471),(3.97,1.5,1.941176471),(3.97,1.5,2.077647059),(4.24,0.5,2.077647059),(3.97,0.5,2.077647059),(3.97,1.5,2.117647059),(3.97,0.5,2.117647059),(4.24,0.5,2.117647059),(4.24,1.5,2.077647059),(4.24,1.5,2.117647059),(4.24,1.5,2.254117647),(4.51,0.5,2.254117647),(4.24,0.5,2.254117647),(4.24,1.5,2.294117647),(4.24,0.5,2.294117647),(4.51,0.5,2.294117647),(4.51,1.5,2.254117647),(4.51,1.5,2.294117647),(4.51,1.5,2.430588235),(4.78,0.5,2.430588235),(4.51,0.5,2.430588235),(4.51,1.5,2.470588235),(4.51,0.5,2.470588235),(4.78,0.5,2.470588235),(4.78,1.5,2.430588235),(4.78,1.5,2.470588235),(4.78,1.5,2.607058824),(5.05,0.5,2.607058824),(4.78,0.5,2.607058824),(4.78,1.5,2.647058824),(4.78,0.5,2.647058824),(5.05,0.5,2.647058824),(5.05,1.5,2.607058824),(5.05,1.5,2.647058824),(5.05,1.5,2.783529412),(5.32,0.5,2.783529412),(5.05,0.5,2.783529412),(5.05,1.5,2.823529412),(5.05,0.5,2.823529412),(5.32,0.5,2.823529412),(5.32,1.5,2.783529412),(5.32,1.5,2.823529412),(1.,1.5,0.),(1.04,0.5,0.),(1.,0.5,0.),(1.04,0.5,0.136470588),(1.04,1.5,0.),(1.04,1.5,0.136470588),(1.31,0.5,0.176470588),(1.31,0.5,0.312941176),(1.31,1.5,0.176470588),(1.31,1.5,0.312941176),(1.58,0.5,0.352941176),(1.58,0.5,0.489411765),(1.58,1.5,0.352941176),(1.58,1.5,0.489411765),(1.85,0.5,0.529411765),(1.85,0.5,0.665882353),(1.85,1.5,0.529411765),(1.85,1.5,0.665882353),(2.12,0.5,0.705882353),(2.12,0.5,0.842352941),(2.12,1.5,0.705882353),(2.12,1.5,0.842352941),(2.39,0.5,0.882352941),(2.39,0.5,1.018823529),(2.39,1.5,0.882352941),(2.39,1.5,1.018823529),(2.66,0.5,1.058823529),(2.66,0.5,1.195294118),(2.66,1.5,1.058823529),(2.66,1.5,1.195294118),(2.93,0.5,1.235294118),(2.93,0.5,1.371764706),(2.93,1.5,1.235294118),(2.93,1.5,1.371764706),(3.2,0.5,1.411764706),(3.2,0.5,1.548235294),(3.2,1.5,1.411764706),(3.2,1.5,1.548235294),(3.47,0.5,1.588235294),(3.47,0.5,1.724705882),(3.47,1.5,1.588235294),(3.47,1.5,1.724705882),(3.74,0.5,1.764705882),(3.74,0.5,1.901176471),(3.74,1.5,1.764705882),(3.74,1.5,1.901176471),(4.01,0.5,1.941176471),(4.01,0.5,2.077647059),(4.01,1.5,1.941176471),(4.01,1.5,2.077647059),(4.28,0.5,2.117647059),(4.28,0.5,2.254117647),(4.28,1.5,2.117647059),(4.28,1.5,2.254117647),(4.55,0.5,2.294117647),(4.55,0.5,2.430588235),(4.55,1.5,2.294117647),(4.55,1.5,2.430588235),(4.82,0.5,2.470588235),(4.82,0.5,2.607058824),(4.82,1.5,2.470588235),(4.82,1.5,2.607058824),(5.09,0.5,2.647058824),(5.09,0.5,2.783529412),(5.09,1.5,2.647058824),(5.09,1.5,2.783529412)));
#547=IFCTRIANGULATEDFACESET(#546,$,$,((1,2,3),(4,5,6),(1,7,2),(4,6,8),(3,2,6),(3,6,5),(2,7,8),(2,8,6),(7,1,4),(7,4,8),(1,3,5),(1,5,4),(9,10,11),(12,13,14),(9,15,10),(12,14,16),(11,10,14),(11,14,13),(10,15,16),(10,16,14),(15,9,12),(15,12,16),(9,11,13),(9,13,12),(17,18,19),(20,21,22),(17,23,18),(20,22,24),(19,18,22),(19,22,21),(18,23,24),(18,24,22),(23,17,20),(23,20,24),(17,19,21),(17,21,20),(25,26,27),(28,29,30),(25,31,26),(28,30,32),(27,26,30),(27,30,29),(26,31,32),(26,32,30),(31,25,28),(31,28,32),(25,27,29),(25,29,28),(33,34,35),(36,37,38),(33,39,34),(36,38,40),(35,34,38),(35,38,37),(34,39,40),(34,40,38),(39,33,36),(39,36,40),(33,35,37),(33,37,36),(41,42,43),(44,45,46),(41,47,42),(44,46,48),(43,42,46),(43,46,45),(42,47,48),(42,48,46),(47,41,44),(47,44,48),(41,43,45),(41,45,44),(49,50,51),(52,53,54),(49,55,50),(52,54,56),(51,50,54),(51,54,53),(50,55,56),(50,56,54),(55,49,52),(55,52,56),(49,51,53),(49,53,52),(57,58,59),(60,61,62),(57,63,58),(60,62,64),(59,58,62),(59,62,61),(58,63,64),(58,64,62),(63,57,60),(63,60,64),(57,59,61),(57,61,60),(65,66,67),(68,69,70),(65,71,66),(68,70,72),(67,66,70),(67,70,69),(66,71,72),(66,72,70),(71,65,68),(71,68,72),(65,67,69),(65,69,68),(73,74,75),(76,77,78),(73,79,74),(76,78,80),(75,74,78),(75,78,77),(74,79,80),(74,80,78),(79,73,76),(79,76,80),(73,75,77),(73,77,76),(81,82,83),(84,85,86),(81,87,82),(84,86,88),(83,82,86),(83,86,85),(82,87,88),(82,88,86),(87,81,84),(87,84,88),(81,83,85),(81,85,84),(89,90,91),(92,93,94),(89,95,90),(92,94,96),(91,90,94),(91,94,93),(90,95,96),(90,96,94),(95,89,92),(95,92,96),(89,91,93),(89,93,92),(97,98,99),(100,101,102),(97,103,98),(100,102,104),(99,98,102),(99,102,101),(98,103,104),(98,104,102),(103,97,100),(103,100,104),(97,99,101),(97,101,100),(105,106,107),(108,109,110),(105,111,106),(108,110,112),(107,106,110),(107,110,109),(106,111,112),(106,112,110),(111,105,108),(111,108,112),(105,107,109),(105,109,108),(113,114,115),(116,117,118),(113,119,114),(116,118,120),(115,114,118),(115,118,117),(114,119,120),(114,120,118),(119,113,116),(119,116,120),(113,115,117),(113,117,116),(121,122,123),(124,125,126),(121,127,122),(124,126,128),(123,122,126),(123,126,125),(122,127,128),(122,128,126),(127,121,124),(127,124,128),(121,123,125),(121,125,124),(129,130,131),(1,3,132),(129,133,130),(1,132,134),(131,130,132),(131,132,3),(130,133,134),(130,134,132),(133,129,1),(133,1,134),(129,131,3),(129,3,1),(8,135,6),(9,11,136),(8,137,135),(9,136,138),(6,135,136),(6,136,11),(135,137,138),(135,138,136),(137,8,9),(137,9,138),(8,6,11),(8,11,9),(16,139,14),(17,19,140),(16,141,139),(17,140,142),(14,139,140),(14,140,19),(139,141,142),(139,142,140),(141,16,17),(141,17,142),(16,14,19),(16,19,17),(24,143,22),(25,27,144),(24,145,143),(25,144,146),(22,143,144),(22,144,27),(143,145,146),(143,146,144),(145,24,25),(145,25,146),(24,22,27),(24,27,25),(32,147,30),(33,35,148),(32,149,147),(33,148,150),(30,147,148),(30,148,35),(147,149,150),(147,150,148),(149,32,33),(149,33,150),(32,30,35),(32,35,33),(40,151,38),(41,43,152),(40,153,151),(41,152,154),(38,151,152),(38,152,43),(151,153,154),(151,154,152),(153,40,41),(153,41,154),(40,38,43),(40,43,41),(48,155,46),(49,51,156),(48,157,155),(49,156,158),(46,155,156),(46,156,51),(155,157,158),(155,158,156),(157,48,49),(157,49,158),(48,46,51),(48,51,49),(56,159,54),(57,59,160),(56,161,159),(57,160,162),(54,159,160),(54,160,59),(159,161,162),(159,162,160),(161,56,57),(161,57,162),(56,54,59),(56,59,57),(64,163,62),(65,67,164),(64,165,163),(65,164,166),(62,163,164),(62,164,67),(163,165,166),(163,166,164),(165,64,65),(165,65,166),(64,62,67),(64,67,65),(72,167,70),(73,75,168),(72,169,167),(73,168,170),(70,167,168),(70,168,75),(167,169,170),(167,170,168),(169,72,73),(169,73,170),(72,70,75),(72,75,73),(80,171,78),(81,83,172),(80,173,171),(81,172,174),(78,171,172),(78,172,83),(171,173,174),(171,174,172),(173,80,81),(173,81,174),(80,78,83),(80,83,81),(88,175,86),(89,91,176),(88,177,175),(89,176,178),(86,175,176),(86,176,91),(175,177,178),(175,178,176),(177,88,89),(177,89,178),(88,86,91),(88,91,89),(96,179,94),(97,99,180),(96,181,179),(97,180,182),(94,179,180),(94,180,99),(179,181,182),(179,182,180),(181,96,97),(181,97,182),(96,94,99),(96,99,97),(104,183,102),(105,107,184),(104,185,183),(105,184,186),(102,183,184),(102,184,107),(183,185,186),(183,186,184),(185,104,105),(185,105,186),(104,102,107),(104,107,105),(112,187,110),(113,115,188),(112,189,187),(113,188,190),(110,187,188),(110,188,115),(187,189,190),(187,190,188),(189,112,113),(189,113,190),(112,110,115),(112,115,113),(120,191,118),(121,123,192),(120,193,191),(121,192,194),(118,191,192),(118,192,123),(191,193,194),(191,194,192),(193,120,121),(193,121,194),(120,118,123),(120,123,121)),$);
#548=IFCSHAPEREPRESENTATION(#5,'Body','Tessellation',(#547));
#549=IFCPRODUCTDEFINITIONSHAPE($,$,(#548));
#550=IFCLOCALPLACEMENT(#176,#2);
#551=IFCSTAIRFLIGHT('3lBCGbIT08fzlctBGcA3qx',$,'Stair 1',$,$,#550,#549,'s-1:flight0',17,16,0.176470588,0.27,.STRAIGHT.);
#552=IFCLOCALPLACEMENT(#174,#2);
#553=IFCSTAIR('0HmueoudJAz7w9PkXThWS1',$,'Stair 2',$,$,#552,$,'s-2',.QUARTER_TURN_STAIR.);
#554=IFCCARTESIANPOINTLIST3D(((1.,4.5,0.135),(1.27,3.5,0.135),(1.,3.5,0.135),(1.,4.5,0.175),(1.,3.5,0.175),(1.27,3.5,0.175),(1.27,4.5,0.135),(1.27,4.5,0.175),(1.27,4.5,0.31),(1.54,3.5,0.31),(1.27,3.5,0.31),(1.27,4.5,0.35),(1.27,3.5,0.35),(1.54,3.5,0.35),(1.54,4.5,0.31),(1.54,4.5,0.35),(1.54,4.5,0.485),(1.81,3.5,0.485),(1.54,3.5,0.485),(1.54,4.5,0.525),(1.54,3.5,0.525),(1.81,3.5,0.525),(1.81,4.5,0.485),(1.81,4.5,0.525),(1.81,4.5,0.66),(2.08,3.5,0.66),(1.81,3.5,0.66),(1.81,4.5,0.7),(1.81,3.5,0.7),(2.08,3.5,0.7),(2.08,4.5,0.66),(2.08,4.5,0.7),(2.08,4.5,0.835),(2.35,3.5,0.835),(2.08,3.5,0.835),(2.08,4.5,0.875),(2.08,3.5,0.875),(2.35,3.5,0.875),(2.35,4.5,0.835),(2.35,4.5,0.875),(2.35,4.5,1.01),(2.62,3.5,1.01),(2.35,3.5,1.01),(2.35,4.5,1.05),(2.35,3.5,1.05),(2.62,3.5,1.05),(2.62,4.5,1.01),(2.62,4.5,1.05),(2.62,4.5,1.185),(2.89,3.5,1.185),(2.62,3.5,1.185),(2.62,4.5,1.225),(2.62,3.5,1.225),(2.89,3.5,1.225),(2.89,4.5,1.185),(2.89,4.5,1.225),(1.,4.5,0.),(1.04,3.5,0.),(1.,3.5,0.),(1.04,3.5,0.135),(1.04,4.5,0.),(1.04,4.5,0.135),(1.31,3.5,0.175),(1.31,3.5,0.31),(1.31,4.5,0.175),(1.31,4.5,0.31),(1.58,3.5,0.35),(1.58,3.5,0.485),(1.58,4.5,0.35),(1.58,4.5,0.485),(1.85,3.5,0.525),(1.85,3.5,0.66),(1.85,4.5,0.525),(1.85,4.5,0.66),(2.12,3.5,0.7),(2.12,3.5,0.835),(2.12,4.5,0.7),(2.12,4.5,0.835),(2.39,3.5,0.875),(2.39,3.5,1.01),(2.39,4.5,0.875),(2.39,4.5,1.01),(2.66,3.5,1.05),(2.66,3.5,1.185),(2.66,4.5,1.05),(2.66,4.5,1.185),(2.93,3.5,1.225),(2.89,4.5,1.36),(2.89,3.5,1.36),(2.93,3.5,1.36),(2.93,4.5,1.225),(2.93,4.5,1.36),(3.89,3.5,1.36),(2.89,4.5,1.4),(2.89,3.5,1.4),(3.89,3.5,1.4)));
#555=IFCTRIANGULATEDFACESET(#554,$,$,((1,2,3),(4,5,6),(1,7,2),(4,6,8),(3,2,6),(3,6,5),(2,7,8),(2,8,6),(7,1,4),(7,4,8),(1,3,5),(1,5,4),(9,10,11),(12,13,14),(9,15,10),(12,14,16),(11,10,14),(11,14,13),(10,15,16),(10,16,14),(15,9,12),(15,12,16),(9,11,13),(9,13,12),(17,18,19),(20,21,22),(17,23,18),(20,22,24),(19,18,22),(19,22,21),(18,23,24),(18,24,22),(23,17,20),(23,20,24),(17,19,21),(17,21,20),(25,26,27),(28,29,30),(25,31,26),(28,30,32),(27,26,30),(27,30,29),(26,31,32),(26,32,30),(31,25,28),(31,28,32),(25,27,29),(25,29,28),(33,34,35),(36,37,38),(33,39,34),(36,38,40),(35,34,38),(35,38,37),(34,39,40),(34,40,38),(39,33,36),(39,36,40),(33,35,37),(33,37,36),(41,42,43),(44,45,46),(41,47,42),(44,46,48),(43,42,46),(43,46,45),(42,47,48),(42,48,46),(47,41,44),(47,44,48),(41,43,45),(41,45,44),(49,50,51),(52,53,54),(49,55,50),(52,54,56),(51,50,54),(51,54,53),(50,55,56),(50,56,54),(55,49,52),(55,52,56),(49,51,53),(49,53,52),(57,58,59),(1,3,60),(57,61,58),(1,60,62),(59,58,60),(59,60,3),(58,61,62),(58,62,60),(61,57,1),(61,1,62),(57,59,3),(57,3,1),(8,63,6),(9,11,64),(8,65,63),(9,64,66),(6,63,64),(6,64,11),(63,65,66),(63,66,64),(65,8,9),(65,9,66),(8,6,11),(8,11,9),(16,67,14),(17,19,68),(16,69,67),(17,68,70),(14,67,68),(14,68,19),(67,69,70),(67,70,68),(69,16,17),(69,17,70),(16,14,19),(16,19,17),(24,71,22),(25,27,72),(24,73,71),(25,72,74),(22,71,72),(22,72,27),(71,73,74),(71,74,72),(73,24,25),(73,25,74),(24,22,27),(24,27,25),(32,75,30),(33,35,76),(32,77,75),(33,76,78),(30,75,76),(30,76,35),(75,77,78),(75,78,76),(77,32,33),(77,33,78),(32,30,35),(32,35,33),(40,79,38),(41,43,80),(40,81,79),(41,80,82),(38,79,80),(38,80,43),(79,81,82),(79,82,80),(81,40,41),(81,41,82),(40,38,43),(40,43,41),(48,83,46),(49,51,84),(48,85,83),(49,84,86),(46,83,84),(46,84,51),(83,85,86),(83,86,84),(85,48,49),(85,49,86),(48,46,51),(48,51,49),(56,87,54),(88,89,90),(56,91,87),(88,90,92),(54,87,90),(54,90,89),(87,91,92),(87,92,90),(56,54,89),(56,89,88),(88,93,89),(94,95,96),(89,93,96),(89,96,95),(88,89,95),(88,95,94)),$);
#556=IFCSHAPEREPRESENTATION(#5,'Body','Tessellation',(#555));
#557=IFCPRODUCTDEFINITIONSHAPE($,$,(#556));
#558=IFCLOCALPLACEMENT(#174,#2);
#559=IFCSTAIRFLIGHT('29OhG6et2kR$T8ziPqMrcb',$,'Stair 2',$,$,#558,#557,'s-2:flight0',8,7,0.175,0.27,.STRAIGHT.);
#560=IFCCARTESIANPOINTLIST3D(((2.89,4.5,1.535),(3.89,4.77,1.535),(3.89,4.5,1.535),(2.89,4.5,1.575),(3.89,4.5,1.575),(3.89,4.77,1.575),(2.89,4.77,1.535),(2.89,4.77,1.575),(2.89,4.77,1.71),(3.89,5.04,1.71),(3.89,4.77,1.71),(2.89,4.77,1.75),(3.89,4.77,1.75),(3.89,5.04,1.75),(2.89,5.04,1.71),(2.89,5.04,1.75),(2.89,5.04,1.885),(3.89,5.31,1.885),(3.89,5.04,1.885),(2.89,5.04,1.925),(3.89,5.04,1.925),(3.89,5.31,1.925),(2.89,5.31,1.885),(2.89,5.31,1.925),(2.89,5.31,2.06),(3.89,5.58,2.06),(3.89,5.31,2.06),(2.89,5.31,2.1),(3.89,5.31,2.1),(3.89,5.58,2.1),(2.89,5.58,2.06),(2.89,5.58,2.1),(2.89,5.58,2.235),(3.89,5.85,2.235),(3.89,5.58,2.235),(2.89,5.58,2.275),(3.89,5.58,2.275),(3.89,5.85,2.275),(2.89,5.85,2.235),(2.89,5.85,2.275),(2.89,5.85,2.41),(3.89,6.12,2.41),(3.89,5.85,2.41),(2.89,5.85,2.45),(3.89,5.85,2.45),(3.89,6.12,2.45),(2.89,6.12,2.41),(2.89,6.12,2.45),(2.89,6.12,2.585),(3.89,6.39,2.585),(3.89,6.12,2.585),(2.89,6.12,2.625),(3.89,6.12,2.625),(3.89,6.39,2.625),(2.89,6.39,2.585),(2.89,6.39,2.625),(2.93,4.5,1.225),(2.89,4.5,1.225),(2.89,4.5,1.36),(2.93,4.5,1.36),(2.89,4.5,1.4),(3.89,4.54,1.4),(3.89,4.5,1.4),(3.89,4.54,1.535),(2.89,4.54,1.4),(2.89,4.54,1.535),(3.89,4.81,1.575),(3.89,4.81,1.71),(2.89,4.81,1.575),(2.89,4.81,1.71),(3.89,5.08,1.75),(3.89,5.08,1.885),(2.89,5.08,1.75),(2.89,5.08,1.885),(3.89,5.35,1.925),(3.89,5.35,2.06),(2.89,5.35,1.925),(2.89,5.35,2.06),(3.89,5.62,2.1),(3.89,5.62,2.235),(2.89,5.62,2.1),(2.89,5.62,2.235),(3.89,5.89,2.275),(3.89,5.89,2.41),(2.89,5.89,2.275),(2.89,5.89,2.41),(3.89,6.16,2.45),(3.89,6.16,2.585),(2.89,6.16,2.45),(2.89,6.16,2.585),(3.89,4.5,1.36),(3.89,3.5,1.36),(3.89,3.5,1.4)));
#561=IFCTRIANGULATEDFACESET(#560,$,$,((1,2,3),(4,5,6),(1,7,2),(4,6,8),(3,2,6),(3,6,5),(2,7,8),(2,8,6),(7,1,4),(7,4,8),(1,3,5),(1,5,4),(9,10,11),(12,13,14),(9,15,10),(12,14,16),(11,10,14),(11,14,13),(10,15,16),(10,16,14),(15,9,12),(15,12,16),(9,11,13),(9,13,12),(17,18,19),(20,21,22),(17,23,18),(20,22,24),(19,18,22),(19,22,21),(18,23,24),(18,24,22),(23,17,20),(23,20,24),(17,19,21),(17,21,20),(25,26,27),(28,29,30),(25,31,26),(28,30,32),(27,26,30),(27,30,29),(26,31,32),(26,32,30),(31,25,28),(31,28,32),(25,27,29),(25,29,28),(33,34,35),(36,37,38),(33,39,34),(36,38,40),(35,34,38),(35,38,37),(34,39,40),(34,40,38),(39,33,36),(39,36,40),(33,35,37),(33,37,36),(41,42,43),(44,45,46),(41,47,42),(44,46,48),(43,42,46),(43,46,45),(42,47,48),(42,48,46),(47,41,44),(47,44,48),(41,43,45),(41,45,44),(49,50,51),(52,53,54),(49,55,50),(52,54,56),(51,50,54),(51,54,53),(50,55,56),(50,56,54),(55,49,52),(55,52,56),(49,51,53),(49,53,52),(57,58,59),(57,59,60),(61,62,63),(1,3,64),(61,65,62),(1,64,66),(63,62,64),(63,64,3),(62,65,66),(62,66,64),(65,61,1),(65,1,66),(61,63,3),(61,3,1),(8,67,6),(9,11,68),(8,69,67),(9,68,70),(6,67,68),(6,68,11),(67,69,70),(67,70,68),(69,8,9),(69,9,70),(8,6,11),(8,11,9),(16,71,14),(17,19,72),(16,73,71),(17,72,74),(14,71,72),(14,72,19),(71,73,74),(71,74,72),(73,16,17),(73,17,74),(16,14,19),(16,19,17),(24,75,22),(25,27,76),(24,77,75),(25,76,78),(22,75,76),(22,76,27),(75,77,78),(75,78,76),(77,24,25),(77,25,78),(24,22,27),(24,27,25),(32,79,30),(33,35,80),(32,81,79),(33,80,82),(30,79,80),(30,80,35),(79,81,82),(79,82,80),(81,32,33),(81,33,82),(32,30,35),(32,35,33),(40,83,38),(41,43,84),(40,85,83),(41,84,86),(38,83,84),(38,84,43),(83,85,86),(83,86,84),(85,40,41),(85,41,86),(40,38,43),(40,43,41),(48,87,46),(49,51,88),(48,89,87),(49,88,90),(46,87,88),(46,88,51),(87,89,90),(87,90,88),(89,48,49),(89,49,90),(48,46,51),(48,51,49),(59,91,92),(61,93,63),(92,91,63),(92,63,93),(91,59,61),(91,61,63)),$);
#562=IFCSHAPEREPRESENTATION(#5,'Body','Tessellation',(#561));
#563=IFCPRODUCTDEFINITIONSHAPE($,$,(#562));
#564=IFCLOCALPLACEMENT(#174,#2);
#565=IFCSTAIRFLIGHT('0ZBYMuGYIpusrvQWy4TDZM',$,'Stair 2',$,$,#564,#563,'s-2:flight1',8,7,0.175,0.27,.STRAIGHT.);
#566=IFCCARTESIANPOINTLIST3D(((-0.025,0.025,0.),(0.025,-0.025,0.),(-0.025,-0.025,0.),(-0.025,0.025,0.96),(-0.025,-0.025,0.96),(0.025,-0.025,0.96),(0.025,0.025,0.),(0.025,0.025,0.96),(0.975,0.025,0.),(1.025,-0.025,0.),(0.975,-0.025,0.),(0.975,0.025,0.96),(0.975,-0.025,0.96),(1.025,-0.025,0.96),(1.025,0.025,0.),(1.025,0.025,0.96),(1.975,0.025,0.),(2.025,-0.025,0.),(1.975,-0.025,0.),(1.975,0.025,0.96),(1.975,-0.025,0.96),(2.025,-0.025,0.96),(2.025,0.025,0.),(2.025,0.025,0.96),(1.975,0.975,0.),(2.025,1.025,0.),(2.025,0.975,0.),(1.975,0.975,0.96),(2.025,0.975,0.96),(2.025,1.025,0.96),(1.975,1.025,0.),(1.975,1.025,0.96),(1.975,1.975,0.),(2.025,2.025,0.),(2.025,1.975,0.),(1.975,1.975,0.96),(2.025,1.975,0.96),(2.025,2.025,0.96),(1.975,2.025,0.),(1.975,2.025,0.96),(0.,-0.03,1.),(0.,0.03,0.96),(0.,-0.03,0.96),(2.03,2.,1.),(2.03,2.,0.96),(1.97,2.,0.96),(0.,0.03,1.),(1.97,2.,1.),(1.97,0.03,0.96),(2.03,-0.03,0.96),(1.97,0.03,1.),(2.03,-0.03,1.)));
#567=IFCTRIANGULATEDFACESET(#566,$,$,((1,2,3),(4,5,6),(1,7,2),(4,6,8),(3,2,6),(3,6,5),(2,7,8),(2,8,6),(7,1,4),(7,4,8),(1,3,5),(1,5,4),(9,10,11),(12,13,14),(9,15,10),(12,14,16),(11,10,14),(11,14,13),(10,15,16),(10,16,14),(15,9,12),(15,12,16),(9,11,13),(9,13,12),(17,18,19),(20,21,22),(17,23,18),(20,22,24),(19,18,22),(19,22,21),(18,23,24),(18,24,22),(23,17,20),(23,20,24),(17,19,21),(17,21,20),(25,26,27),(28,29,30),(25,31,26),(28,30,32),(27,26,30),(27,30,29),(26,31,32),(26,32,30),(31,25,28),(31,28,32),(25,27,29),(25,29,28),(33,34,35),(36,37,38),(33,39,34),(36,38,40),(35,34,38),(35,38,37),(34,39,40),(34,40,38),(39,33,36),(39,36,40),(33,35,37),(33,37,36),(41,42,43),(44,45,46),(41,47,42),(44,46,48),(43,42,49),(43,49,50),(42,47,51),(42,51,49),(47,41,52),(47,52,51),(41,43,50),(41,50,52),(50,49,46),(50,46,45),(49,51,48),(49,48,46),(51,52,44),(51,44,48),(52,50,45),(52,45,44)),$);
#568=IFCSHAPEREPRESENTATION(#5,'Body','Tessellation',(#567));
#569=IFCPRODUCTDEFINITIONSHAPE($,$,(#568));
#570=IFCLOCALPLACEMENT(#174,#2);
#571=IFCRAILING('3R08By2bCXT2w1R$LSRsXY',$,'Railing',$,$,#570,#569,'rl-1',.GUARDRAIL.);
#572=IFCLOCALPLACEMENT(#176,#2);
#573=IFCPOLYLINE((#269,#214,#213,#256,#269));
#574=IFCCARTESIANPOINT((2.,2.075));
#575=IFCCARTESIANPOINT((5.,2.075));
#576=IFCCARTESIANPOINT((5.,1.925));
#577=IFCCARTESIANPOINT((2.,1.925));
#578=IFCPOLYLINE((#574,#575,#576,#577,#574));
#579=IFCARBITRARYPROFILEDEFWITHVOIDS(.AREA.,$,#573,(#578));
#580=IFCEXTRUDEDAREASOLID(#579,#2,#163,2.75);
#581=IFCSHAPEREPRESENTATION(#5,'Body','SweptSolid',(#580));
#582=IFCPRODUCTDEFINITIONSHAPE($,$,(#581));
#583=IFCSPACE('3Ggl5R0wAELU5t3OsFJIXC',$,'0.01','living','sp-1',#572,#582,'Living room',.ELEMENT.,.INTERNAL.,0.);
#584=IFCLOCALPLACEMENT(#174,#2);
#585=IFCCARTESIANPOINT((0.2,0.2));
#586=IFCCARTESIANPOINT((3.8,0.2));
#587=IFCCARTESIANPOINT((3.8,5.8));
#588=IFCCARTESIANPOINT((0.2,5.8));
#589=IFCPOLYLINE((#585,#586,#587,#588,#585));
#590=IFCARBITRARYCLOSEDPROFILEDEF(.AREA.,$,#589);
#591=IFCEXTRUDEDAREASOLID(#590,#2,#163,2.8);
#592=IFCSHAPEREPRESENTATION(#5,'Body','SweptSolid',(#591));
#593=IFCPRODUCTDEFINITIONSHAPE($,$,(#592));
#594=IFCSPACE('0nNHjYaCLNl4zS3nzV0DiD',$,'1.01','bedroom','sp-2',#584,#593,'Bedroom',.ELEMENT.,.INTERNAL.,3.);
#595=IFCCARTESIANPOINT((-1.,0.));
#596=IFCCARTESIANPOINT((9.,0.));
#597=IFCPOLYLINE((#595,#596));
#598=IFCGRIDAXIS('1',#597,.T.);
#599=IFCCARTESIANPOINT((0.,-1.));
#600=IFCCARTESIANPOINT((0.,9.));
#601=IFCPOLYLINE((#599,#600));
#602=IFCGRIDAXIS('A',#601,.T.);
#603=IFCCARTESIANPOINT((8.,-1.));
#604=IFCCARTESIANPOINT((8.,9.));
#605=IFCPOLYLINE((#603,#604));
#606=IFCGRIDAXIS('B',#605,.T.);
#607=IFCLOCALPLACEMENT(#166,#2);
#608=IFCGRID('2_Awmpinge$7fgamsbzpia',$,$,$,'g-a,g-b,g-1',#607,$,(#602,#606),(#598),$,$);
#609=IFCRELDECLARES('0DwAqW6G7IgyLboSQNFTSJ',$,$,$,#152,(#13));
#610=IFCRELAGGREGATES('1SUFqXqHI3ECh_a_ciX9mi',$,$,$,#152,(#161));
#611=IFCRELAGGREGATES('0JGJvUAMLsyfFtJNpd5DyB',$,$,$,#161,(#167));
#612=IFCRELAGGREGATES('2B6qxMggNn_x2bbIHcCkBe',$,$,$,#167,(#171,#175,#177,#181));
#613=IFCRELAGGREGATES('1tlFxnUlLCZWW8CFtRLzAT',$,$,$,#175,(#594));
#614=IFCRELAGGREGATES('3kw1P$KweQR_FF7wG8EDTo',$,$,$,#177,(#583));
#615=IFCRELAGGREGATES('2ydb6zIeQtsKp0FbIWHJ_M',$,$,$,#451,(#457,#463));
#616=IFCRELAGGREGATES('3RFe1wVVfoO1h5pslB4S4R',$,$,$,#531,(#537,#543));
#617=IFCRELAGGREGATES('2z3DYSPJ9niDEce1rzcb$e',$,$,$,#545,(#551));
#618=IFCRELAGGREGATES('3tg5CMm1YxFVKEL4CJvrEO',$,$,$,#553,(#559,#565));
#619=IFCRELCONTAINEDINSPATIALSTRUCTURE('3Hx_6vTWlnNVR4aSFhkbXt',$,$,$,(#239,#353,#451,#505,#515,#553,#571),#175);
#620=IFCRELCONTAINEDINSPATIALSTRUCTURE('1zQKZ4GOIl8sAvZCRtNkJ9',$,$,$,(#209,#225,#253,#266,#278,#288,#325,#397,#427,#448,#472,#480,#490,#499,#528,#545),#177);
#621=IFCRELCONTAINEDINSPATIALSTRUCTURE('2hvLlqnm0NGUr$D8zdq62l',$,$,$,(#531),#181);
#622=IFCRELCONTAINEDINSPATIALSTRUCTURE('06v2cGR$9nzfP1GPHpeYVf',$,$,$,(#608),#167);
#623=IFCRELDEFINESBYTYPE('1UcXa5$hGpeRT25OPRcIMb',$,$,$,(#209,#253),#82);
#624=IFCRELDEFINESBYTYPE('3yqXVsPwF1XcaabK4Fpivr',$,$,$,(#225,#239,#266,#278,#288),#87);
#625=IFCRELDEFINESBYTYPE('2t9trUdJuT2LWU4Ph9ctjC',$,$,$,(#505,#515,#528),#93);
#626=IFCRELDEFINESBYTYPE('1LTpHLiXysoBxGFXO$lE9E',$,$,$,(#531),#99);
#627=IFCRELDEFINESBYTYPE('39EbNfQL63p5H5Yuzl9eCi',$,$,$,(#472),#107);
#628=IFCRELDEFINESBYTYPE('07IJirkTrhEGuaOasVj9ce',$,$,$,(#480),#111);
#629=IFCRELDEFINESBYTYPE('3P6iefGcPHx0FjAFS2TN_T',$,$,$,(#490),#118);
#630=IFCRELDEFINESBYTYPE('1dYELPHSmZnik2xmkMzgL0',$,$,$,(#499),#123);
#631=IFCRELDEFINESBYTYPE('0ENzSJIx0LnocUziKcm696',$,$,$,(#397,#427,#448),#133);
#632=IFCRELDEFINESBYTYPE('0PsMjRhPNnEGYN_B4WUaM3',$,$,$,(#353),#142);
#633=IFCRELDEFINESBYTYPE('147jCY1aBkmWxdF5NxLB_E',$,$,$,(#325),#151);
#634=IFCRELASSOCIATESMATERIAL('01g63FleKnagcNNYcXGKUa',$,$,$,(#107,#123,#472,#499),#32);
#635=IFCRELASSOCIATESMATERIAL('3rhjMAojW36laWiwm9mh4F',$,$,$,(#111,#118,#457,#480,#490,#571),#44);
#636=IFCRELASSOCIATESMATERIAL('0T30RBKsrUH4pa800eqy_4',$,$,$,(#537),#56);
#637=IFCRELASSOCIATESMATERIAL('3xR384l$ZylcK3zepBDZbs',$,$,$,(#463,#543),#68);
#638=IFCRELASSOCIATESMATERIAL('3uRZjKrBP$cxX$PYCjregx',$,$,$,(#82),#84);
#639=IFCRELASSOCIATESMATERIAL('0eevm2Ma$SodXn6H9e44K2',$,$,$,(#87),#90);
#640=IFCRELASSOCIATESMATERIAL('2x_3KallgTJQ118a8_4ZHf',$,$,$,(#93),#96);
#641=IFCRELASSOCIATESMATERIAL('1U_QfVBzv2l$IgXD0dUdqo',$,$,$,(#99),#102);
#642=IFCRELASSOCIATESMATERIAL('01bsjsxPlHsc6p4ZRYLGp9',$,$,$,(#209),#210);
#643=IFCRELASSOCIATESMATERIAL('39C36ZYp0zKN1OkiZd_G5u',$,$,$,(#225),#226);
#644=IFCRELASSOCIATESMATERIAL('2VkfNVX7CCjLx3u1SOBkII',$,$,$,(#239),#240);
#645=IFCRELASSOCIATESMATERIAL('2S0h$MFjGhY6S6fP0BAPIE',$,$,$,(#253),#254);
#646=IFCRELASSOCIATESMATERIAL('1JNSaZ5o3_6PODsgHS3vVy',$,$,$,(#266),#267);
#647=IFCRELASSOCIATESMATERIAL('057yaiAsYFXBYi3SaBnMuK',$,$,$,(#278),#279);
#648=IFCRELASSOCIATESMATERIAL('2C3vyvtC8vuOfaLYaMgpY0',$,$,$,(#288),#289);
#649=IFCRELASSOCIATESMATERIAL('39KPucZ3R11fpGBY2oRorQ',$,$,$,(#505),#506);
#650=IFCRELASSOCIATESMATERIAL('0vmoTKsXpFebCHB4QsWw5u',$,$,$,(#515),#516);
#651=IFCRELASSOCIATESMATERIAL('14lXJ659awGP5gQhnj6qPF',$,$,$,(#528),#529);
#652=IFCQUANTITYLENGTH('GrossHeight',$,$,2.6,$);
#653=IFCQUANTITYLENGTH('NetHeight',$,$,2.6,$);
#654=IFCELEMENTQUANTITY('1ROLEvgoSO7DsBuFBKbB6a',$,'Qto_BuildingStoreyBaseQuantities',$,$,(#652,#653));
#655=IFCRELDEFINESBYPROPERTIES('1H3PRH1OiJ4WdkBaGgNBCK',$,$,$,(#171),#654);
#656=IFCQUANTITYLENGTH('GrossHeight',$,$,2.8,$);
#657=IFCQUANTITYLENGTH('NetHeight',$,$,2.8,$);
#658=IFCELEMENTQUANTITY('3PUoT4Z8a9VKH2FftDxXFK',$,'Qto_BuildingStoreyBaseQuantities',$,$,(#656,#657));
#659=IFCRELDEFINESBYPROPERTIES('2WUcdTO0YFrvQYTUFGu3pR',$,$,$,(#175),#658);
#660=IFCQUANTITYLENGTH('GrossHeight',$,$,3.,$);
#661=IFCQUANTITYLENGTH('NetHeight',$,$,3.,$);
#662=IFCELEMENTQUANTITY('1TIsJXOkbZTnRmcCp_PvK4',$,'Qto_BuildingStoreyBaseQuantities',$,$,(#660,#661));
#663=IFCRELDEFINESBYPROPERTIES('3c9sPnhWHG1rVHbG8Atrgv',$,$,$,(#177),#662);
#664=IFCQUANTITYLENGTH('GrossHeight',$,$,0.5,$);
#665=IFCQUANTITYLENGTH('NetHeight',$,$,0.5,$);
#666=IFCELEMENTQUANTITY('0vTNBvcd8drhoVxbu$V4Dq',$,'Qto_BuildingStoreyBaseQuantities',$,$,(#664,#665));
#667=IFCRELDEFINESBYPROPERTIES('0GrF8P1pbdCwzRBeS0TjKL',$,$,$,(#181),#666);
#668=IFCQUANTITYLENGTH('Length',$,$,4.413873975,$);
#669=IFCQUANTITYLENGTH('Width',$,$,0.15,$);
#670=IFCQUANTITYLENGTH('Height',$,$,3.,$);
#671=IFCQUANTITYAREA('GrossFootprintArea',$,$,0.662081096,$);
#672=IFCQUANTITYAREA('GrossSideArea',$,$,13.241621924,$);
#673=IFCQUANTITYAREA('NetSideArea',$,$,11.801621924,$);
#674=IFCQUANTITYVOLUME('GrossVolume',$,$,1.986243289,$);
#675=IFCQUANTITYVOLUME('NetVolume',$,$,1.770243289,$);
#676=IFCELEMENTQUANTITY('2EgEZzUxLi17o11teLGPpu',$,'Qto_WallBaseQuantities',$,$,(#668,#669,#670,#671,#672,#673,#674,#675));
#677=IFCRELDEFINESBYPROPERTIES('0$lHkc25yetwDa7pe0$Gqj',$,$,$,(#209),#676);
#678=IFCQUANTITYLENGTH('Length',$,$,6.,$);
#679=IFCQUANTITYLENGTH('Width',$,$,0.3,$);
#680=IFCQUANTITYLENGTH('Height',$,$,3.,$);
#681=IFCQUANTITYAREA('GrossFootprintArea',$,$,1.8,$);
#682=IFCQUANTITYAREA('GrossSideArea',$,$,18.,$);
#683=IFCQUANTITYAREA('NetSideArea',$,$,17.52,$);
#684=IFCQUANTITYVOLUME('GrossVolume',$,$,5.4,$);
#685=IFCQUANTITYVOLUME('NetVolume',$,$,5.256,$);
#686=IFCELEMENTQUANTITY('25aYGZvyJYF1vBgCPXoZmf',$,'Qto_WallBaseQuantities',$,$,(#678,#679,#680,#681,#682,#683,#684,#685));
#687=IFCRELDEFINESBYPROPERTIES('10JoAQD0jqnLKLdkZBzb4o',$,$,$,(#225),#686);
#688=IFCQUANTITYLENGTH('Length',$,$,8.,$);
#689=IFCQUANTITYLENGTH('Width',$,$,0.3,$);
#690=IFCQUANTITYLENGTH('Height',$,$,2.8,$);
#691=IFCQUANTITYAREA('GrossFootprintArea',$,$,2.4,$);
#692=IFCQUANTITYAREA('GrossSideArea',$,$,22.4,$);
#693=IFCQUANTITYAREA('NetSideArea',$,$,18.62,$);
#694=IFCQUANTITYVOLUME('GrossVolume',$,$,6.72,$);
#695=IFCQUANTITYVOLUME('NetVolume',$,$,5.586,$);
#696=IFCELEMENTQUANTITY('3ydZIULeRA2DRl6HsaaGou',$,'Qto_WallBaseQuantities',$,$,(#688,#689,#690,#691,#692,#693,#694,#695));
#697=IFCRELDEFINESBYPROPERTIES('2XQi0xjF5y3IfhYhbNmosl',$,$,$,(#239),#696);
#698=IFCQUANTITYLENGTH('Length',$,$,3.,$);
#699=IFCQUANTITYLENGTH('Width',$,$,0.15,$);
#700=IFCQUANTITYLENGTH('Height',$,$,2.4,$);
#701=IFCQUANTITYAREA('GrossFootprintArea',$,$,0.45,$);
#702=IFCQUANTITYAREA('GrossSideArea',$,$,7.2,$);
#703=IFCQUANTITYAREA('NetSideArea',$,$,7.2,$);
#704=IFCQUANTITYVOLUME('GrossVolume',$,$,1.08,$);
#705=IFCQUANTITYVOLUME('NetVolume',$,$,1.08,$);
#706=IFCELEMENTQUANTITY('3pXE16BU4SMxszjrwX6a4X',$,'Qto_WallBaseQuantities',$,$,(#698,#699,#700,#701,#702,#703,#704,#705));
#707=IFCRELDEFINESBYPROPERTIES('14$4DfCi3hqkiKZ3be$tYf',$,$,$,(#253),#706);
#708=IFCQUANTITYLENGTH('Length',$,$,8.,$);
#709=IFCQUANTITYLENGTH('Width',$,$,0.3,$);
#710=IFCQUANTITYLENGTH('Height',$,$,3.,$);
#711=IFCQUANTITYAREA('GrossFootprintArea',$,$,2.4,$);
#712=IFCQUANTITYAREA('GrossSideArea',$,$,24.,$);
#713=IFCQUANTITYAREA('NetSideArea',$,$,22.8,$);
#714=IFCQUANTITYVOLUME('GrossVolume',$,$,7.2,$);
#715=IFCQUANTITYVOLUME('NetVolume',$,$,6.84,$);
#716=IFCELEMENTQUANTITY('0$vP4eLHLujH4LGqC8gXLY',$,'Qto_WallBaseQuantities',$,$,(#708,#709,#710,#711,#712,#713,#714,#715));
#717=IFCRELDEFINESBYPROPERTIES('3OIpEnm96avXALSLW_537u',$,$,$,(#266),#716);
#718=IFCQUANTITYLENGTH('Length',$,$,8.,$);
#719=IFCQUANTITYLENGTH('Width',$,$,0.3,$);
#720=IFCQUANTITYLENGTH('Height',$,$,3.,$);
#721=IFCQUANTITYAREA('GrossFootprintArea',$,$,2.4,$);
#722=IFCQUANTITYAREA('GrossSideArea',$,$,24.,$);
#723=IFCQUANTITYAREA('NetSideArea',$,$,20.67,$);
#724=IFCQUANTITYVOLUME('GrossVolume',$,$,7.2,$);
#725=IFCQUANTITYVOLUME('NetVolume',$,$,6.201,$);
#726=IFCELEMENTQUANTITY('0S5rDTxo8B9zpX1$1S1sm8',$,'Qto_WallBaseQuantities',$,$,(#718,#719,#720,#721,#722,#723,#724,#725));
#727=IFCRELDEFINESBYPROPERTIES('3$kEyJgeYZnOXg5AddMmWd',$,$,$,(#278),#726);
#728=IFCQUANTITYLENGTH('Length',$,$,6.,$);
#729=IFCQUANTITYLENGTH('Width',$,$,0.3,$);
#730=IFCQUANTITYLENGTH('Height',$,$,3.,$);
#731=IFCQUANTITYAREA('GrossFootprintArea',$,$,1.8,$);
#732=IFCQUANTITYAREA('GrossSideArea',$,$,18.,$);
#733=IFCQUANTITYAREA('NetSideArea',$,$,18.,$);
#734=IFCQUANTITYVOLUME('GrossVolume',$,$,5.4,$);
#735=IFCQUANTITYVOLUME('NetVolume',$,$,5.4,$);
#736=IFCELEMENTQUANTITY('16MCIkpT4I7d4zX2KSVuXB',$,'Qto_WallBaseQuantities',$,$,(#728,#729,#730,#731,#732,#733,#734,#735));
#737=IFCRELDEFINESBYPROPERTIES('3VT6wAfTAdnvOZbCzZ56_o',$,$,$,(#288),#736);
#738=IFCQUANTITYLENGTH('Height',$,$,2.1,$);
#739=IFCQUANTITYLENGTH('Width',$,$,0.9,$);
#740=IFCQUANTITYAREA('Area',$,$,1.89,$);
#741=IFCELEMENTQUANTITY('0V2p2AOTASn8XQhV6mfTQn',$,'Qto_DoorBaseQuantities',$,$,(#738,#739,#740));
#742=IFCRELDEFINESBYPROPERTIES('0PyPm4CDjs1b2rFZXfJQ84',$,$,$,(#325),#741);
#743=IFCQUANTITYLENGTH('Height',$,$,2.1,$);
#744=IFCQUANTITYLENGTH('Width',$,$,1.8,$);
#745=IFCQUANTITYAREA('Area',$,$,3.78,$);
#746=IFCELEMENTQUANTITY('363eDRzQ$R21FzxYF18pvp',$,'Qto_DoorBaseQuantities',$,$,(#743,#744,#745));
#747=IFCRELDEFINESBYPROPERTIES('2Wk4g7r2adpMomt5vADFH$',$,$,$,(#353),#746);
#748=IFCQUANTITYLENGTH('Height',$,$,1.2,$);
#749=IFCQUANTITYLENGTH('Width',$,$,1.2,$);
#750=IFCQUANTITYAREA('Area',$,$,1.44,$);
#751=IFCELEMENTQUANTITY('074ergUUOxChqhv_a8l6PO',$,'Qto_WindowBaseQuantities',$,$,(#748,#749,#750));
#752=IFCRELDEFINESBYPROPERTIES('1cUqK04KEdX1Vd8i8mjBoe',$,$,$,(#397),#751);
#753=IFCQUANTITYLENGTH('Height',$,$,1.2,$);
#754=IFCQUANTITYLENGTH('Width',$,$,1.,$);
#755=IFCQUANTITYAREA('Area',$,$,1.2,$);
#756=IFCELEMENTQUANTITY('2P4p9eQIyBdrKBu40BkI4Y',$,'Qto_WindowBaseQuantities',$,$,(#753,#754,#755));
#757=IFCRELDEFINESBYPROPERTIES('2UG66gAaqaDJV7jSoW_zHi',$,$,$,(#427),#756);
#758=IFCQUANTITYLENGTH('Height',$,$,1.2,$);
#759=IFCQUANTITYLENGTH('Width',$,$,1.2,$);
#760=IFCQUANTITYAREA('Area',$,$,1.44,$);
#761=IFCELEMENTQUANTITY('1YBSuH5Hh3xKMZLhHXTuc0',$,'Qto_WindowBaseQuantities',$,$,(#758,#759,#760));
#762=IFCRELDEFINESBYPROPERTIES('0x_HcPynjLNPKUfgK4pIKr',$,$,$,(#448),#761);
#763=IFCQUANTITYLENGTH('Length',$,$,6.,$);
#764=IFCQUANTITYLENGTH('Height',$,$,2.8,$);
#765=IFCQUANTITYAREA('GrossSideArea',$,$,16.8,$);
#766=IFCELEMENTQUANTITY('1F1iTtbU6WRjymVH2N2bK1',$,'Qto_CurtainWallQuantities',$,$,(#763,#764,#765));
#767=IFCRELDEFINESBYPROPERTIES('2pqFQ_Ff0wrPCHqrel_XMh',$,$,$,(#451),#766);
#768=IFCQUANTITYLENGTH('Length',$,$,3.,$);
#769=IFCQUANTITYAREA('CrossSectionArea',$,$,0.09,$);
#770=IFCQUANTITYVOLUME('GrossVolume',$,$,0.27,$);
#771=IFCQUANTITYVOLUME('NetVolume',$,$,0.27,$);
#772=IFCELEMENTQUANTITY('1dQc0WALYq73DWI$kvc9Wz',$,'Qto_ColumnBaseQuantities',$,$,(#768,#769,#770,#771));
#773=IFCRELDEFINESBYPROPERTIES('35Go$7QlVn0DRPERrE1d0f',$,$,$,(#472),#772);
#774=IFCQUANTITYLENGTH('Length',$,$,2.5,$);
#775=IFCQUANTITYAREA('CrossSectionArea',$,$,0.125663706,$);
#776=IFCQUANTITYVOLUME('GrossVolume',$,$,0.314159265,$);
#777=IFCQUANTITYVOLUME('NetVolume',$,$,0.314159265,$);
#778=IFCELEMENTQUANTITY('2E2SS1hBzPqTIcTt0zzqv3',$,'Qto_ColumnBaseQuantities',$,$,(#774,#775,#776,#777));
#779=IFCRELDEFINESBYPROPERTIES('3ZKUK9RTzvw59jf6EORTKJ',$,$,$,(#480),#778);
#780=IFCQUANTITYLENGTH('Length',$,$,2.,$);
#781=IFCQUANTITYAREA('CrossSectionArea',$,$,0.00518806,$);
#782=IFCQUANTITYVOLUME('GrossVolume',$,$,0.01037612,$);
#783=IFCQUANTITYVOLUME('NetVolume',$,$,0.009561528,$);
#784=IFCELEMENTQUANTITY('3fEWDyYjID1c9awRC7El$D',$,'Qto_BeamBaseQuantities',$,$,(#780,#781,#782,#783));
#785=IFCRELDEFINESBYPROPERTIES('2xWChhEcnwhst4hFbG8M7l',$,$,$,(#490),#784);
#786=IFCQUANTITYLENGTH('Length',$,$,4.,$);
#787=IFCQUANTITYAREA('CrossSectionArea',$,$,0.1,$);
#788=IFCQUANTITYVOLUME('GrossVolume',$,$,0.4,$);
#789=IFCQUANTITYVOLUME('NetVolume',$,$,0.384298726,$);
#790=IFCELEMENTQUANTITY('3kTVXqLd5jzZb5R8JA$A_l',$,'Qto_BeamBaseQuantities',$,$,(#786,#787,#788,#789));
#791=IFCRELDEFINESBYPROPERTIES('2Iw4h_Kk8sFiUec3I6IhT$',$,$,$,(#499),#790);
#792=IFCQUANTITYLENGTH('Width',$,$,0.25,$);
#793=IFCQUANTITYLENGTH('Perimeter',$,$,8.,$);
#794=IFCQUANTITYAREA('GrossArea',$,$,4.,$);
#795=IFCQUANTITYAREA('NetArea',$,$,4.,$);
#796=IFCQUANTITYVOLUME('GrossVolume',$,$,1.,$);
#797=IFCQUANTITYVOLUME('NetVolume',$,$,1.,$);
#798=IFCELEMENTQUANTITY('0$44BcgR2WY5N$beMGsEe7',$,'Qto_SlabBaseQuantities',$,$,(#792,#793,#794,#795,#796,#797));
#799=IFCRELDEFINESBYPROPERTIES('0oqQHcAV9sFQ6V3L0mDK2a',$,$,$,(#505),#798);
#800=IFCQUANTITYLENGTH('Width',$,$,0.25,$);
#801=IFCQUANTITYLENGTH('Perimeter',$,$,28.,$);
#802=IFCQUANTITYAREA('GrossArea',$,$,48.,$);
#803=IFCQUANTITYAREA('NetArea',$,$,48.,$);
#804=IFCQUANTITYVOLUME('GrossVolume',$,$,12.,$);
#805=IFCQUANTITYVOLUME('NetVolume',$,$,12.,$);
#806=IFCELEMENTQUANTITY('2SG7DS8Q44UlAriDdkDEY2',$,'Qto_SlabBaseQuantities',$,$,(#800,#801,#802,#803,#804,#805));
#807=IFCRELDEFINESBYPROPERTIES('2GH6vM88uVNGllhE4n_2zx',$,$,$,(#515),#806);
#808=IFCQUANTITYLENGTH('Width',$,$,0.25,$);
#809=IFCQUANTITYLENGTH('Perimeter',$,$,32.,$);
#810=IFCQUANTITYAREA('GrossArea',$,$,48.,$);
#811=IFCQUANTITYAREA('NetArea',$,$,47.,$);
#812=IFCQUANTITYVOLUME('GrossVolume',$,$,12.,$);
#813=IFCQUANTITYVOLUME('NetVolume',$,$,11.75,$);
#814=IFCELEMENTQUANTITY('3d5ml4kFYPMpeedgnTza9R',$,'Qto_SlabBaseQuantities',$,$,(#808,#809,#810,#811,#812,#813));
#815=IFCRELDEFINESBYPROPERTIES('3K81BE$M4PtWE8X4ADczrZ',$,$,$,(#528),#814);
#816=IFCQUANTITYAREA('ProjectedArea',$,$,56.76,$);
#817=IFCELEMENTQUANTITY('2HjBkT9XEGitvEeUc4PMO8',$,'Qto_RoofBaseQuantities',$,$,(#816));
#818=IFCRELDEFINESBYPROPERTIES('3BIX8mg0Am9KU4vISQCh0k',$,$,$,(#531),#817);
#819=IFCQUANTITYVOLUME('GrossVolume',$,$,2.270399995,$);
#820=IFCELEMENTQUANTITY('1I$4E8a8K3I57zIFVH1Sa8',$,'Qto_SlabBaseQuantities',$,$,(#819));
#821=IFCRELDEFINESBYPROPERTIES('243WMX6EKKBimkHkS3VqeP',$,$,$,(#537),#820);
#822=IFCQUANTITYVOLUME('GrossVolume',$,$,11.351999976,$);
#823=IFCELEMENTQUANTITY('19PwsVRt8n1Gz_7Wxt$r_e',$,'Qto_SlabBaseQuantities',$,$,(#822));
#824=IFCRELDEFINESBYPROPERTIES('1UarX$xxxtBoLZyOvX2iUG',$,$,$,(#543),#823);
#825=IFCQUANTITYLENGTH('Length',$,$,4.32,$);
#826=IFCQUANTITYLENGTH('Width',$,$,1.,$);
#827=IFCELEMENTQUANTITY('32pGlWZohydcFTZCY38dGF',$,'Qto_StairFlightBaseQuantities',$,$,(#825,#826));
#828=IFCRELDEFINESBYPROPERTIES('04atiL0W6CB5j5tmTPylQO',$,$,$,(#551),#827);
#829=IFCQUANTITYLENGTH('Length',$,$,1.89,$);
#830=IFCQUANTITYLENGTH('Width',$,$,1.,$);
#831=IFCELEMENTQUANTITY('0GXjUA3fzGHRwUifpPu7s1',$,'Qto_StairFlightBaseQuantities',$,$,(#829,#830));
#832=IFCRELDEFINESBYPROPERTIES('0_WpIJbCEcHOUkSiDSDsAp',$,$,$,(#559),#831);
#833=IFCQUANTITYLENGTH('Length',$,$,1.89,$);
#834=IFCQUANTITYLENGTH('Width',$,$,1.,$);
#835=IFCELEMENTQUANTITY('3Yh3Btwc$7UDvvKuEXGr6g',$,'Qto_StairFlightBaseQuantities',$,$,(#833,#834));
#836=IFCRELDEFINESBYPROPERTIES('2inBGeMan79_hJEp2Bzagv',$,$,$,(#565),#835);
#837=IFCQUANTITYLENGTH('Length',$,$,4.,$);
#838=IFCQUANTITYLENGTH('Height',$,$,1.,$);
#839=IFCELEMENTQUANTITY('2boJogP2H42ZDINKcq8JAG',$,'Qto_RailingBaseQuantities',$,$,(#837,#838));
#840=IFCRELDEFINESBYPROPERTIES('3uBx2qR2Sb7$35_S4ouL9q',$,$,$,(#571),#839);
#841=IFCQUANTITYLENGTH('Height',$,$,2.75,$);
#842=IFCQUANTITYAREA('GrossFloorArea',$,$,43.44,$);
#843=IFCQUANTITYAREA('NetFloorArea',$,$,43.224337131,$);
#844=IFCQUANTITYVOLUME('GrossVolume',$,$,119.46,$);
#845=IFCQUANTITYLENGTH('GrossPerimeter',$,$,33.1,$);
#846=IFCQUANTITYAREA('GrossWallArea',$,$,91.025,$);
#847=IFCQUANTITYAREA('NetWallArea',$,$,86.015,$);
#848=IFCQUANTITYAREA('NetCeilingArea',$,$,43.224337131,$);
#849=IFCELEMENTQUANTITY('1RyMBciyzrkiruKBcl8A0q',$,'Qto_SpaceBaseQuantities',$,$,(#841,#842,#843,#844,#845,#846,#847,#848));
#850=IFCRELDEFINESBYPROPERTIES('3oGBLhgfizdwlwSgc3pGVM',$,$,$,(#583),#849);
#851=IFCQUANTITYLENGTH('Height',$,$,2.8,$);
#852=IFCQUANTITYAREA('GrossFloorArea',$,$,20.16,$);
#853=IFCQUANTITYAREA('NetFloorArea',$,$,20.16,$);
#854=IFCQUANTITYVOLUME('GrossVolume',$,$,56.448,$);
#855=IFCQUANTITYLENGTH('GrossPerimeter',$,$,18.4,$);
#856=IFCQUANTITYAREA('GrossWallArea',$,$,51.52,$);
#857=IFCQUANTITYAREA('NetWallArea',$,$,51.52,$);
#858=IFCQUANTITYAREA('NetCeilingArea',$,$,20.16,$);
#859=IFCELEMENTQUANTITY('1DAXwhKZ8OrpqwsqtBUTcP',$,'Qto_SpaceBaseQuantities',$,$,(#851,#852,#853,#854,#855,#856,#857,#858));
#860=IFCRELDEFINESBYPROPERTIES('3lsBUr2ZxTaw0szRnXVOtx',$,$,$,(#594),#859);
#861=IFCPROPERTYSINGLEVALUE('Level',$,IFCINTEGER(-1),$);
#862=IFCPROPERTYSET('14PbiyMgJAUmaNlKMOM8Xz',$,'Semio_Authoring',$,(#861));
#863=IFCRELDEFINESBYPROPERTIES('0g_lvlb_jgSWikvStEYL1f',$,$,$,(#171),#862);
#864=IFCPROPERTYSINGLEVALUE('Level',$,IFCINTEGER(1),$);
#865=IFCPROPERTYSET('0CGX8kaKldxkXCffTHO2T3',$,'Semio_Authoring',$,(#864));
#866=IFCRELDEFINESBYPROPERTIES('2TssvSCuuiGePHzXPgAt35',$,$,$,(#175),#865);
#867=IFCPROPERTYSINGLEVALUE('Level',$,IFCINTEGER(0),$);
#868=IFCPROPERTYSET('3DtumdShRC9E5XQDNCh0LX',$,'Semio_Authoring',$,(#867));
#869=IFCRELDEFINESBYPROPERTIES('1m$vt6PjoZUSZ5G_xvh0HI',$,$,$,(#177),#868);
#870=IFCPROPERTYSINGLEVALUE('Level',$,IFCINTEGER(2),$);
#871=IFCPROPERTYSET('3LgOIr4MUpYYMIZmLXxbn9',$,'Semio_Authoring',$,(#870));
#872=IFCRELDEFINESBYPROPERTIES('2I5CrOUhOlJJmwgO1P0f7w',$,$,$,(#181),#871);
#873=IFCPROPERTYSINGLEVALUE('Phase',$,IFCLABEL('Demolished'),$);
#874=IFCPROPERTYSET('3LGpqk7pO3BeJaBlK6xvgS',$,'Semio_Authoring',$,(#873));
#875=IFCRELDEFINESBYPROPERTIES('2vqmUFxmbTyxFfq6RRX_K2',$,$,$,(#239),#874);
#876=IFCPROPERTYSINGLEVALUE('Phase',$,IFCLABEL('Existing'),$);
#877=IFCPROPERTYSET('1_QxGAgW6mlAqogyIX$A5O',$,'Semio_Authoring',$,(#876));
#878=IFCRELDEFINESBYPROPERTIES('0ui8dYWRnhU0GXkKxfoso_',$,$,$,(#253),#877);
#879=IFCPROPERTYSINGLEVALUE('FlipHand',$,IFCLABEL('true'),$);
#880=IFCPROPERTYSET('3a_Kb9o$Rggbzqez6PUt9p',$,'Semio_Authoring',$,(#879));
#881=IFCRELDEFINESBYPROPERTIES('2_W9kKoV8DQczO6WDOnAIb',$,$,$,(#325),#880);
#882=IFCPROPERTYSINGLEVALUE('Phase',$,IFCLABEL('Demolished'),$);
#883=IFCPROPERTYSET('2O6NqsDSf$3yi229Qup4xf',$,'Semio_Authoring',$,(#882));
#884=IFCRELDEFINESBYPROPERTIES('1C17LqIZl8nqBTZ9LUTZUY',$,$,$,(#353),#883);
#885=IFCPROPERTYSINGLEVALUE('Phase',$,IFCLABEL('Demolished'),$);
#886=IFCPROPERTYSINGLEVALUE('CurtainWall',$,IFCLABEL('{"storey":"st-first","curtain_wall_type":"cwt-1","axis":{"Line":{"start":{"x":0.0,"y":6.0},"end":{"x":6.0,"y":6.0}}},"base_offset":0.0,"top":{"StoreyTop":{"offset":0.0}},"phase":"Demolished","name":"Facade"}'),$);
#887=IFCPROPERTYSINGLEVALUE('CurtainWallTypeId',$,IFCLABEL('cwt-1'),$);
#888=IFCPROPERTYSINGLEVALUE('CurtainWallType',$,IFCLABEL('{"name":"Curtain wall 1.5 x 1.4","u_grid":{"Spacing":{"spacing":1.5}},"v_grid":{"Spacing":{"spacing":1.4}},"interior_mullion":{"Rectangle":{"width":0.05,"depth":0.1}},"border_mullion":{"Rectangle":{"width":0.05,"depth":0.1}},"panel":"Glass","panel_material":"m-wool","mullion_material":"m-steel"}'),$);
#889=IFCPROPERTYSET('1iGBHeeSe6CCHwCCC7AzLU',$,'Semio_Authoring',$,(#885,#886,#887,#888));
#890=IFCRELDEFINESBYPROPERTIES('3tfrMSlOHwghw3pj7ez424',$,$,$,(#451),#889);
#891=IFCPROPERTYSINGLEVALUE('Phase',$,IFCLABEL('Temporary'),$);
#892=IFCPROPERTYSET('32z8HRTQlcAxQoU808eKh8',$,'Semio_Authoring',$,(#891));
#893=IFCRELDEFINESBYPROPERTIES('0$IbPwB8XP5ZSQQXK2E7Nu',$,$,$,(#480),#892);
#894=IFCPROPERTYSINGLEVALUE('Beam',$,IFCLABEL('{"storey":"st-ground","beam_type":"bt-i","axis":{"Line":{"start":{"x":4.0,"y":3.0},"end":{"x":6.0,"y":3.0}}},"top_offset":0.0,"phase":"New","name":"B1"}'),$);
#895=IFCPROPERTYSET('17EFRmvheKOjonsOdK98yL',$,'Semio_Authoring',$,(#894));
#896=IFCRELDEFINESBYPROPERTIES('2OeAYTrcv2209kBM3lRn5j',$,$,$,(#490),#895);
#897=IFCPROPERTYSINGLEVALUE('Phase',$,IFCLABEL('Demolished'),$);
#898=IFCPROPERTYSINGLEVALUE('Beam',$,IFCLABEL('{"storey":"st-ground","beam_type":"bt-rect","axis":{"Line":{"start":{"x":0.0,"y":3.0},"end":{"x":4.0,"y":3.0}}},"top_offset":-0.1,"phase":"Demolished","name":"B2"}'),$);
#899=IFCPROPERTYSET('0uwyl7_rBjMzYKIdi2dYod',$,'Semio_Authoring',$,(#897,#898));
#900=IFCRELDEFINESBYPROPERTIES('3fgEZlatgOiNVwaJ1gnBKk',$,$,$,(#499),#899);
#901=IFCPROPERTYSINGLEVALUE('Phase',$,IFCLABEL('Existing'),$);
#902=IFCPROPERTYSINGLEVALUE('Slab',$,IFCLABEL('{"storey":"st-first","slab_type":"st-floor","boundary":[{"point":{"x":8.0,"y":0.0},"bulge":0.0},{"point":{"x":10.0,"y":0.0},"bulge":0.0},{"point":{"x":10.0,"y":2.0},"bulge":0.0},{"point":{"x":8.0,"y":2.0},"bulge":0.0}],"holes":[],"offset":0.0,"slope":{"direction":0.0,"angle":0.05},"phase":"Existing","name":"Balcony"}'),$);
#903=IFCPROPERTYSET('09IpZqBkxTIEuUSvFbcBBY',$,'Semio_Authoring',$,(#901,#902));
#904=IFCRELDEFINESBYPROPERTIES('0poipdt9CYf36OtFACOfRL',$,$,$,(#505),#903);
#905=IFCPROPERTYSINGLEVALUE('Roof',$,IFCLABEL('{"storey":"st-roof","roof_type":"rt-tile","footprint":[{"point":{"x":0.0,"y":0.0},"bulge":0.0},{"point":{"x":8.0,"y":0.0},"bulge":0.0},{"point":{"x":8.0,"y":6.0},"bulge":0.0},{"point":{"x":0.0,"y":6.0},"bulge":0.0}],"shape":{"Gable":{"pitch":0.5,"ridge_direction":0.0}},"overhang":0.3,"base_offset":0.0,"phase":"New","name":"Roof"}'),$);
#906=IFCPROPERTYSET('2ai4qWGXd8EmoMuxFqT9jg',$,'Semio_Authoring',$,(#905));
#907=IFCRELDEFINESBYPROPERTIES('1Sek9iFd9yVf$udnGEPGcN',$,$,$,(#531),#906);
#908=IFCPROPERTYSINGLEVALUE('Stair',$,IFCLABEL('{"storey":"st-ground","start":{"x":1.0,"y":1.0},"direction":0.0,"width":1.0,"flight":"Straight","top":{"StoreyTop":{"offset":0.0}},"max_riser":0.18,"min_tread":0.27,"stringer":{"kind":"None","width":0.05,"depth":0.25},"nosing":0.0,"tread_thickness":0.04,"riser":"Closed","landing_depth":1.0,"phase":"New","name":"Stair 1"}'),$);
#909=IFCPROPERTYSET('0P5MN1L_XUxRfxoD7Qbbc7',$,'Semio_Authoring',$,(#908));
#910=IFCRELDEFINESBYPROPERTIES('3_p49Rh5nuSWLa18QtNNta',$,$,$,(#545),#909);
#911=IFCPROPERTYSINGLEVALUE('Phase',$,IFCLABEL('Demolished'),$);
#912=IFCPROPERTYSINGLEVALUE('Stair',$,IFCLABEL('{"storey":"st-first","start":{"x":1.0,"y":4.0},"direction":0.0,"width":1.0,"flight":{"LTurn":{"split":0.5,"turn":"Left"}},"top":{"StoreyTop":{"offset":0.0}},"max_riser":0.18,"min_tread":0.27,"stringer":{"kind":"None","width":0.05,"depth":0.25},"nosing":0.0,"tread_thickness":0.04,"riser":"Closed","landing_depth":1.0,"phase":"Demolished","name":"Stair 2"}'),$);
#913=IFCPROPERTYSET('1mBMjoZFYNDMBxWA464zlm',$,'Semio_Authoring',$,(#911,#912));
#914=IFCRELDEFINESBYPROPERTIES('32bZkR_JH8OW1xvmYAFrkB',$,$,$,(#553),#913);
#915=IFCPROPERTYSINGLEVALUE('Phase',$,IFCLABEL('Temporary'),$);
#916=IFCPROPERTYSINGLEVALUE('Railing',$,IFCLABEL('{"storey":"st-first","path":[{"x":0.0,"y":0.0},{"x":2.0,"y":0.0},{"x":2.0,"y":2.0}],"height":1.0,"post_spacing":1.0,"profile":{"Rectangle":{"width":0.06,"depth":0.04}},"post_profile":{"Rectangle":{"width":0.05,"depth":0.05}},"infill":"None","material":"m-steel","base_offset":0.0,"phase":"Temporary","name":"Railing"}'),$);
#917=IFCPROPERTYSET('2t$pCEpIz9lEAOCQSsJ$5U',$,'Semio_Authoring',$,(#915,#916));
#918=IFCRELDEFINESBYPROPERTIES('2n9yAHlShMTV3m_d_Vh97E',$,$,$,(#571),#917);
#919=IFCPROPERTYSINGLEVALUE('Boundary',$,IFCLABEL('{"Bounded":{"seed":{"x":6.8,"y":5.0}}}'),$);
#920=IFCPROPERTYSET('00f1_4u3hMvlOBWunBD7$j',$,'Semio_Authoring',$,(#919));
#921=IFCRELDEFINESBYPROPERTIES('0hHYsCCTVAb9IKBWop9Zef',$,$,$,(#583),#920);
#922=IFCPROPERTYSINGLEVALUE('Phase',$,IFCLABEL('Existing'),$);
#923=IFCPROPERTYSET('2Uh8dcdWQqZv97b$ar2HVk',$,'Semio_Authoring',$,(#922));
#924=IFCRELDEFINESBYPROPERTIES('0nc4Y5nVzTl9Xm0ddf7Dla',$,$,$,(#594),#923);
#925=IFCPROPERTYSINGLEVALUE('Count',$,IFCINTEGER(4),$);
#926=IFCPROPERTYSINGLEVALUE('Footprint',$,IFCAREAMEASURE(0.09),$);
#927=IFCPROPERTYSINGLEVALUE('Span',$,IFCLENGTHMEASURE(3.),$);
#928=IFCPROPERTYSINGLEVALUE('Tilt',$,IFCPLANEANGLEMEASURE(0.1),$);
#929=IFCPROPERTYSINGLEVALUE('Volume',$,IFCVOLUMEMEASURE(0.27),$);
#930=IFCPROPERTYSET('0Fd_XHkq20mkwhK9G7YbhY',$,'Custom',$,(#925,#926,#927,#928,#929));
#931=IFCRELDEFINESBYPROPERTIES('3TaEAiY50LVUaZa7JYZCcU',$,$,$,(#472),#930);
#932=IFCPROPERTYSINGLEVALUE('LoadBearing',$,IFCBOOLEAN(.T.),$);
#933=IFCPROPERTYSINGLEVALUE('Reference',$,IFCLABEL('C-01'),$);
#934=IFCPROPERTYSET('3p9dyxrshQgwGh7sPahY7N',$,'Pset_ColumnCommon',$,(#932,#933));
#935=IFCRELDEFINESBYPROPERTIES('0ZegxE2khe_gEWhXPemDvx',$,$,$,(#472),#934);
#936=IFCPROPERTYSINGLEVALUE('FireRating',$,IFCLABEL('EI60'),$);
#937=IFCPROPERTYSINGLEVALUE('IsExternal',$,IFCBOOLEAN(.T.),$);
#938=IFCPROPERTYSINGLEVALUE('ThermalTransmittance',$,IFCREAL(0.25),$);
#939=IFCPROPERTYSET('0kVARBe3Bcy9h5Vj7Jf_y$',$,'Pset_WallCommon',$,(#936,#937,#938));
#940=IFCRELDEFINESBYPROPERTIES('1SR3Z0_pxcGfXIbl$c2RWb',$,$,$,(#278),#939);
#941=IFCRELASSOCIATESCLASSIFICATION('3s7m6H0ucN9JaTI8jqYkCu',$,$,$,(#472),#15);
#942=IFCRELASSOCIATESCLASSIFICATION('2qSsb0MzmbNDM0Hx_UyeFY',$,$,$,(#225,#278),#18);
ENDSEC;
END-ISO-10303-21;
