o 
usemtl primitives-sphere-32-material
v -7.684497356414795 -6.037671089172363 -2.120148181915283
v -6.037671089172363 -7.684497356414795 -2.120148181915283
v -6.357108116149902 -6.357108116149902 -4.378852367401123
v -7.684497356414795 -2.120148181915283 -6.037671089172363
v -6.357108116149902 -4.378852367401123 -6.357108116149902
v -6.037671089172363 -2.120148181915283 -7.684497356414795
v -7.941044807434082 -4.297662734985352 -4.297662734985352
v -8.884476661682129 -4.089075565338135 -2.084592819213867
v -8.884476661682129 -2.084592819213867 -4.089075565338135
v -9.581864356994629 -2.0233471393585205 -2.0233471393585205
v -4.378852367401123 -6.357108116149902 -6.357108116149902
v -2.120148181915283 -7.684497356414795 -6.037671089172363
v -2.120148181915283 -6.037671089172363 -7.684497356414795
v -4.297662734985352 -7.941044807434082 -4.297662734985352
v -4.089075565338135 -8.884476661682129 -2.084592819213867
v -2.084592819213867 -8.884476661682129 -4.089075565338135
v -2.0233471393585205 -9.581864356994629 -2.0233471393585205
v -4.297662734985352 -4.297662734985352 -7.941044807434082
v -4.089075565338135 -2.084592819213867 -8.884476661682129
v -2.084592819213867 -4.089075565338135 -8.884476661682129
v -2.0233471393585205 -2.0233471393585205 -9.581864356994629
v -8.314696311950684 -5.555702209472656 6.123233998228043e-16
v -7.684497356414795 -6.037671089172363 2.120148181915283
v -5.555702209472656 -8.314696311950684 6.123233998228043e-16
v -6.037671089172363 -7.684497356414795 2.120148181915283
v -7.071067810058594 -7.071067810058594 6.123233998228043e-16
v -6.357108116149902 -6.357108116149902 4.378852367401123
v -9.238795280456543 -3.8268344402313232 6.123233998228043e-16
v -8.884476661682129 -4.089075565338135 2.084592819213867
v -7.941044807434082 -4.297662734985352 4.297662734985352
v -9.807852745056152 -1.9509031772613525 6.123233998228043e-16
v -9.581864356994629 -2.0233471393585205 2.0233471393585205
v -8.884476661682129 -2.084592819213867 4.089075565338135
v -7.684497356414795 -2.120148181915283 6.037671089172363
v -6.357108116149902 -4.378852367401123 6.357108116149902
v -6.037671089172363 -2.120148181915283 7.684497356414795
v -3.8268344402313232 -9.238795280456543 6.123233998228043e-16
v -4.089075565338135 -8.884476661682129 2.084592819213867
v -4.297662734985352 -7.941044807434082 4.297662734985352
v -1.9509031772613525 -9.807852745056152 6.123233998228043e-16
v -2.0233471393585205 -9.581864356994629 2.0233471393585205
v -2.084592819213867 -8.884476661682129 4.089075565338135
v -4.378852367401123 -6.357108116149902 6.357108116149902
v -2.120148181915283 -7.684497356414795 6.037671089172363
v -2.120148181915283 -6.037671089172363 7.684497356414795
v -4.297662734985352 -4.297662734985352 7.941044807434082
v -4.089075565338135 -2.084592819213867 8.884476661682129
v -2.084592819213867 -4.089075565338135 8.884476661682129
v -2.0233471393585205 -2.0233471393585205 9.581864356994629
v -8.314696311950684 6.123233998228043e-16 -5.555702209472656
v -7.684497356414795 2.120148181915283 -6.037671089172363
v -5.555702209472656 6.123233998228043e-16 -8.314696311950684
v -6.037671089172363 2.120148181915283 -7.684497356414795
v -7.071067810058594 6.123233998228043e-16 -7.071067810058594
v -6.357108116149902 4.378852367401123 -6.357108116149902
v -9.238795280456543 6.123233998228043e-16 -3.8268344402313232
v -8.884476661682129 2.084592819213867 -4.089075565338135
v -9.807852745056152 6.123233998228043e-16 -1.9509031772613525
v -9.581864356994629 2.0233471393585205 -2.0233471393585205
v -7.941044807434082 4.297662734985352 -4.297662734985352
v -8.884476661682129 4.089075565338135 -2.084592819213867
v -7.684497356414795 6.037671089172363 -2.120148181915283
v -6.357108116149902 6.357108116149902 -4.378852367401123
v -6.037671089172363 7.684497356414795 -2.120148181915283
v -3.8268344402313232 6.123233998228043e-16 -9.238795280456543
v -4.089075565338135 2.084592819213867 -8.884476661682129
v -4.297662734985352 4.297662734985352 -7.941044807434082
v -1.9509031772613525 6.123233998228043e-16 -9.807852745056152
v -2.0233471393585205 2.0233471393585205 -9.581864356994629
v -2.084592819213867 4.089075565338135 -8.884476661682129
v -4.378852367401123 6.357108116149902 -6.357108116149902
v -2.120148181915283 6.037671089172363 -7.684497356414795
v -2.120148181915283 7.684497356414795 -6.037671089172363
v -4.297662734985352 7.941044807434082 -4.297662734985352
v -4.089075565338135 8.884476661682129 -2.084592819213867
v -2.084592819213867 8.884476661682129 -4.089075565338135
v -2.0233471393585205 9.581864356994629 -2.0233471393585205
v -10 6.123233998228043e-16 6.123233998228043e-16
v -9.807852745056152 6.123233998228043e-16 1.9509031772613525
v -9.807852745056152 1.9509031772613525 6.123233998228043e-16
v -9.581864356994629 2.0233471393585205 2.0233471393585205
v -9.238795280456543 6.123233998228043e-16 3.8268344402313232
v -8.884476661682129 2.084592819213867 4.089075565338135
v -9.238795280456543 3.8268344402313232 6.123233998228043e-16
v -8.884476661682129 4.089075565338135 2.084592819213867
v -7.941044807434082 4.297662734985352 4.297662734985352
v -8.314696311950684 6.123233998228043e-16 5.555702209472656
v -7.684497356414795 2.120148181915283 6.037671089172363
v -7.071067810058594 6.123233998228043e-16 7.071067810058594
v -5.555702209472656 6.123233998228043e-16 8.314696311950684
v -6.037671089172363 2.120148181915283 7.684497356414795
v -6.357108116149902 4.378852367401123 6.357108116149902
v -8.314696311950684 5.555702209472656 6.123233998228043e-16
v -7.684497356414795 6.037671089172363 2.120148181915283
v -7.071067810058594 7.071067810058594 6.123233998228043e-16
v -6.357108116149902 6.357108116149902 4.378852367401123
v -5.555702209472656 8.314696311950684 6.123233998228043e-16
v -6.037671089172363 7.684497356414795 2.120148181915283
v -3.8268344402313232 6.123233998228043e-16 9.238795280456543
v -4.089075565338135 2.084592819213867 8.884476661682129
v -4.297662734985352 4.297662734985352 7.941044807434082
v -1.9509031772613525 6.123233998228043e-16 9.807852745056152
v -2.0233471393585205 2.0233471393585205 9.581864356994629
v -2.084592819213867 4.089075565338135 8.884476661682129
v -3.8268344402313232 9.238795280456543 6.123233998228043e-16
v -4.089075565338135 8.884476661682129 2.084592819213867
v -4.297662734985352 7.941044807434082 4.297662734985352
v -1.9509031772613525 9.807852745056152 6.123233998228043e-16
v -2.0233471393585205 9.581864356994629 2.0233471393585205
v -2.084592819213867 8.884476661682129 4.089075565338135
v -4.378852367401123 6.357108116149902 6.357108116149902
v -2.120148181915283 6.037671089172363 7.684497356414795
v -2.120148181915283 7.684497356414795 6.037671089172363
v 6.123233998228043e-16 -8.314696311950684 -5.555702209472656
v 2.120148181915283 -7.684497356414795 -6.037671089172363
v 6.123233998228043e-16 -5.555702209472656 -8.314696311950684
v 2.120148181915283 -6.037671089172363 -7.684497356414795
v 6.123233998228043e-16 -7.071067810058594 -7.071067810058594
v 4.378852367401123 -6.357108116149902 -6.357108116149902
v 6.123233998228043e-16 -9.238795280456543 -3.8268344402313232
v 2.084592819213867 -8.884476661682129 -4.089075565338135
v 6.123233998228043e-16 -9.807852745056152 -1.9509031772613525
v 2.0233471393585205 -9.581864356994629 -2.0233471393585205
v 4.297662734985352 -7.941044807434082 -4.297662734985352
v 4.089075565338135 -8.884476661682129 -2.084592819213867
v 6.123233998228043e-16 -3.8268344402313232 -9.238795280456543
v 2.084592819213867 -4.089075565338135 -8.884476661682129
v 6.123233998228043e-16 -1.9509031772613525 -9.807852745056152
v 2.0233471393585205 -2.0233471393585205 -9.581864356994629
v 4.297662734985352 -4.297662734985352 -7.941044807434082
v 4.089075565338135 -2.084592819213867 -8.884476661682129
v 6.037671089172363 -7.684497356414795 -2.120148181915283
v 6.357108116149902 -6.357108116149902 -4.378852367401123
v 7.684497356414795 -6.037671089172363 -2.120148181915283
v 6.357108116149902 -4.378852367401123 -6.357108116149902
v 6.037671089172363 -2.120148181915283 -7.684497356414795
v 7.684497356414795 -2.120148181915283 -6.037671089172363
v 7.941044807434082 -4.297662734985352 -4.297662734985352
v 8.884476661682129 -4.089075565338135 -2.084592819213867
v 8.884476661682129 -2.084592819213867 -4.089075565338135
v 9.581864356994629 -2.0233471393585205 -2.0233471393585205
v 6.123233998228043e-16 -10 6.123233998228043e-16
v 6.123233998228043e-16 -9.807852745056152 1.9509031772613525
v 1.9509031772613525 -9.807852745056152 6.123233998228043e-16
v 2.0233471393585205 -9.581864356994629 2.0233471393585205
v 6.123233998228043e-16 -9.238795280456543 3.8268344402313232
v 2.084592819213867 -8.884476661682129 4.089075565338135
v 3.8268344402313232 -9.238795280456543 6.123233998228043e-16
v 4.089075565338135 -8.884476661682129 2.084592819213867
v 4.297662734985352 -7.941044807434082 4.297662734985352
v 6.123233998228043e-16 -8.314696311950684 5.555702209472656
v 2.120148181915283 -7.684497356414795 6.037671089172363
v 6.123233998228043e-16 -7.071067810058594 7.071067810058594
v 6.123233998228043e-16 -5.555702209472656 8.314696311950684
v 2.120148181915283 -6.037671089172363 7.684497356414795
v 4.378852367401123 -6.357108116149902 6.357108116149902
v 6.123233998228043e-16 -3.8268344402313232 9.238795280456543
v 2.084592819213867 -4.089075565338135 8.884476661682129
v 6.123233998228043e-16 -1.9509031772613525 9.807852745056152
v 2.0233471393585205 -2.0233471393585205 9.581864356994629
v 4.297662734985352 -4.297662734985352 7.941044807434082
v 4.089075565338135 -2.084592819213867 8.884476661682129
v 5.555702209472656 -8.314696311950684 6.123233998228043e-16
v 6.037671089172363 -7.684497356414795 2.120148181915283
v 7.071067810058594 -7.071067810058594 6.123233998228043e-16
v 6.357108116149902 -6.357108116149902 4.378852367401123
v 8.314696311950684 -5.555702209472656 6.123233998228043e-16
v 7.684497356414795 -6.037671089172363 2.120148181915283
v 9.238795280456543 -3.8268344402313232 6.123233998228043e-16
v 8.884476661682129 -4.089075565338135 2.084592819213867
v 7.941044807434082 -4.297662734985352 4.297662734985352
v 9.807852745056152 -1.9509031772613525 6.123233998228043e-16
v 9.581864356994629 -2.0233471393585205 2.0233471393585205
v 8.884476661682129 -2.084592819213867 4.089075565338135
v 6.357108116149902 -4.378852367401123 6.357108116149902
v 6.037671089172363 -2.120148181915283 7.684497356414795
v 7.684497356414795 -2.120148181915283 6.037671089172363
v 6.123233998228043e-16 6.123233998228043e-16 -10
v 6.123233998228043e-16 1.9509031772613525 -9.807852745056152
v 1.9509031772613525 6.123233998228043e-16 -9.807852745056152
v 2.0233471393585205 2.0233471393585205 -9.581864356994629
v 6.123233998228043e-16 3.8268344402313232 -9.238795280456543
v 2.084592819213867 4.089075565338135 -8.884476661682129
v 3.8268344402313232 6.123233998228043e-16 -9.238795280456543
v 4.089075565338135 2.084592819213867 -8.884476661682129
v 4.297662734985352 4.297662734985352 -7.941044807434082
v 6.123233998228043e-16 5.555702209472656 -8.314696311950684
v 2.120148181915283 6.037671089172363 -7.684497356414795
v 6.123233998228043e-16 7.071067810058594 -7.071067810058594
v 6.123233998228043e-16 8.314696311950684 -5.555702209472656
v 2.120148181915283 7.684497356414795 -6.037671089172363
v 4.378852367401123 6.357108116149902 -6.357108116149902
v 6.123233998228043e-16 9.238795280456543 -3.8268344402313232
v 2.084592819213867 8.884476661682129 -4.089075565338135
v 6.123233998228043e-16 9.807852745056152 -1.9509031772613525
v 2.0233471393585205 9.581864356994629 -2.0233471393585205
v 4.297662734985352 7.941044807434082 -4.297662734985352
v 4.089075565338135 8.884476661682129 -2.084592819213867
v 5.555702209472656 6.123233998228043e-16 -8.314696311950684
v 6.037671089172363 2.120148181915283 -7.684497356414795
v 7.071067810058594 6.123233998228043e-16 -7.071067810058594
v 6.357108116149902 4.378852367401123 -6.357108116149902
v 8.314696311950684 6.123233998228043e-16 -5.555702209472656
v 7.684497356414795 2.120148181915283 -6.037671089172363
v 9.238795280456543 6.123233998228043e-16 -3.8268344402313232
v 8.884476661682129 2.084592819213867 -4.089075565338135
v 9.807852745056152 6.123233998228043e-16 -1.9509031772613525
v 9.581864356994629 2.0233471393585205 -2.0233471393585205
v 7.941044807434082 4.297662734985352 -4.297662734985352
v 8.884476661682129 4.089075565338135 -2.084592819213867
v 6.357108116149902 6.357108116149902 -4.378852367401123
v 6.037671089172363 7.684497356414795 -2.120148181915283
v 7.684497356414795 6.037671089172363 -2.120148181915283
v 6.123233998228043e-16 6.123233998228043e-16 10
v 6.123233998228043e-16 1.9509031772613525 9.807852745056152
v 1.9509031772613525 6.123233998228043e-16 9.807852745056152
v 2.0233471393585205 2.0233471393585205 9.581864356994629
v 6.123233998228043e-16 3.8268344402313232 9.238795280456543
v 2.084592819213867 4.089075565338135 8.884476661682129
v 3.8268344402313232 6.123233998228043e-16 9.238795280456543
v 4.089075565338135 2.084592819213867 8.884476661682129
v 4.297662734985352 4.297662734985352 7.941044807434082
v 6.123233998228043e-16 10 6.123233998228043e-16
v 6.123233998228043e-16 9.807852745056152 1.9509031772613525
v 1.9509031772613525 9.807852745056152 6.123233998228043e-16
v 2.0233471393585205 9.581864356994629 2.0233471393585205
v 6.123233998228043e-16 9.238795280456543 3.8268344402313232
v 2.084592819213867 8.884476661682129 4.089075565338135
v 3.8268344402313232 9.238795280456543 6.123233998228043e-16
v 4.089075565338135 8.884476661682129 2.084592819213867
v 4.297662734985352 7.941044807434082 4.297662734985352
v 6.123233998228043e-16 7.071067810058594 7.071067810058594
v 6.123233998228043e-16 5.555702209472656 8.314696311950684
v 2.120148181915283 6.037671089172363 7.684497356414795
v 6.123233998228043e-16 8.314696311950684 5.555702209472656
v 2.120148181915283 7.684497356414795 6.037671089172363
v 4.378852367401123 6.357108116149902 6.357108116149902
v 10 6.123233998228043e-16 6.123233998228043e-16
v 9.807852745056152 6.123233998228043e-16 1.9509031772613525
v 9.807852745056152 1.9509031772613525 6.123233998228043e-16
v 9.581864356994629 2.0233471393585205 2.0233471393585205
v 9.238795280456543 6.123233998228043e-16 3.8268344402313232
v 8.884476661682129 2.084592819213867 4.089075565338135
v 9.238795280456543 3.8268344402313232 6.123233998228043e-16
v 8.884476661682129 4.089075565338135 2.084592819213867
v 7.941044807434082 4.297662734985352 4.297662734985352
v 7.071067810058594 6.123233998228043e-16 7.071067810058594
v 5.555702209472656 6.123233998228043e-16 8.314696311950684
v 6.037671089172363 2.120148181915283 7.684497356414795
v 6.357108116149902 4.378852367401123 6.357108116149902
v 8.314696311950684 6.123233998228043e-16 5.555702209472656
v 7.684497356414795 2.120148181915283 6.037671089172363
v 7.071067810058594 7.071067810058594 6.123233998228043e-16
v 6.357108116149902 6.357108116149902 4.378852367401123
v 5.555702209472656 8.314696311950684 6.123233998228043e-16
v 6.037671089172363 7.684497356414795 2.120148181915283
v 8.314696311950684 5.555702209472656 6.123233998228043e-16
v 7.684497356414795 6.037671089172363 2.120148181915283
vn -0.7642260756069552 -0.6011713120573628 -0.23356275157143822
vn -0.6011713120573628 -0.7642260756069552 -0.23356275157143822
vn -0.632736562282517 -0.632736562282517 -0.4464178373472605
vn -0.7642260756069552 -0.23356275157143822 -0.6011713120573628
vn -0.632736562282517 -0.4464178373472605 -0.632736562282517
vn -0.6011712445177503 -0.23356276338976217 -0.7642261251244409
vn -0.7871378784062543 -0.43612725228888244 -0.43612725228888244
vn -0.8841507436145106 -0.40994378930397996 -0.22410611811595477
vn -0.8841507436145106 -0.22410611811595477 -0.40994378930397996
vn -0.9554945273567927 -0.20860274230126877 -0.20860274230126877
vn -0.4464178373472605 -0.632736562282517 -0.632736562282517
vn -0.23356276338976217 -0.7642261251244409 -0.6011712445177503
vn -0.23356276338976217 -0.6011712445177503 -0.7642261251244409
vn -0.43612725228888244 -0.7871378784062543 -0.43612725228888244
vn -0.40994378930397996 -0.8841507436145106 -0.22410611811595477
vn -0.22410611811595477 -0.8841507436145106 -0.40994378930397996
vn -0.20860274230126877 -0.9554945273567927 -0.20860274230126877
vn -0.43612725228888244 -0.43612725228888244 -0.7871378784062543
vn -0.40994378930397996 -0.22410611811595477 -0.8841507436145106
vn -0.22410611811595477 -0.40994378930397996 -0.8841507436145106
vn -0.20860274230126877 -0.20860274230126877 -0.9554945273567927
vn -0.8391567518054149 -0.5438896449642935 -1.5476658934512177e-9
vn -0.7642261277842199 -0.6011712466100403 0.2335627493014828
vn -0.5438896449642935 -0.8391567518054149 -1.5476658934512177e-9
vn -0.6011712466100403 -0.7642261277842199 0.2335627493014828
vn -0.7071067811865476 -0.7071067811865476 -1.6698168689327524e-9
vn -0.6327365707006265 -0.6327365707006265 0.4464178134842093
vn -0.932976962214385 -0.359936088739679 3.3487901379546005e-9
vn -0.8841507328125958 -0.40994381409790503 0.2241061153779882
vn -0.7871378784062543 -0.43612725228888244 0.43612725228888244
vn -0.9861362641580977 -0.16593754401072225 6.760667070834742e-10
vn -0.9554945332969552 -0.20860272869695856 0.20860272869695856
vn -0.8841507436145106 -0.22410611811595477 0.40994378930397996
vn -0.7642261277842199 -0.2335627493014828 0.6011712466100403
vn -0.6327365026778701 -0.4464178373472589 0.6327366218871593
vn -0.6011712466100403 -0.2335627493014828 0.7642261277842199
vn -0.359936088739679 -0.932976962214385 3.3487901379546005e-9
vn -0.40994381409790503 -0.8841507328125958 0.2241061153779882
vn -0.43612725228888244 -0.7871378784062543 0.43612725228888244
vn -0.16593754401072225 -0.9861362641580977 6.760667070834742e-10
vn -0.20860272869695856 -0.9554945332969552 0.20860272869695856
vn -0.22410611811595477 -0.8841507436145106 0.40994378930397996
vn -0.4464178373472589 -0.6327365026778701 0.6327366218871593
vn -0.23356277974799702 -0.764226070287397 0.601171307872782
vn -0.2335627493014828 -0.6011712466100403 0.7642261277842199
vn -0.43612725228888244 -0.43612725228888244 0.7871378784062543
vn -0.40994378930397996 -0.22410611811595477 0.8841507436145106
vn -0.22410611811595477 -0.40994378930397996 0.8841507436145106
vn -0.20860274230126877 -0.20860274230126877 0.9554945273567927
vn -0.8391567518054149 -1.5476658934512177e-9 -0.5438896449642935
vn -0.7642261277842199 0.2335627493014828 -0.6011712466100403
vn -0.5438896449642935 -1.5476658934512177e-9 -0.8391567518054149
vn -0.6011712466100403 0.2335627493014828 -0.7642261277842199
vn -0.7071067811865476 -1.6698168689327524e-9 -0.7071067811865476
vn -0.6327365707006265 0.4464178134842093 -0.6327365707006265
vn -0.932976962214385 3.3487901379546005e-9 -0.359936088739679
vn -0.8841507328125958 0.2241061153779882 -0.40994381409790503
vn -0.9861362665964795 1.3998915487270587e-9 -0.16593752951986837
vn -0.9554945332969552 0.20860272869695856 -0.20860272869695856
vn -0.7871379215425054 0.43612721336196425 -0.43612721336196425
vn -0.8841507436145106 0.40994378930397996 -0.22410611811595477
vn -0.7642261277842199 0.6011712466100403 -0.2335627493014828
vn -0.6327365026778701 0.6327366218871593 -0.4464178373472589
vn -0.6011712466100403 0.7642261277842199 -0.2335627493014828
vn -0.359936088739679 3.3487901379546005e-9 -0.932976962214385
vn -0.40994381409790503 0.2241061153779882 -0.8841507328125958
vn -0.43612725228888244 0.43612725228888244 -0.7871378784062543
vn -0.16593754401072225 6.760667070834742e-10 -0.9861362641580977
vn -0.20860272869695856 0.20860272869695856 -0.9554945332969552
vn -0.22410611811595477 0.40994378930397996 -0.8841507436145106
vn -0.4464178373472589 0.6327366218871593 -0.6327365026778701
vn -0.23356277974799702 0.601171307872782 -0.764226070287397
vn -0.2335627493014828 0.7642261277842199 -0.6011712466100403
vn -0.43612725228888244 0.7871378784062543 -0.43612725228888244
vn -0.40994378930397996 0.8841507436145106 -0.22410611811595477
vn -0.22410611811595477 0.8841507436145106 -0.40994378930397996
vn -0.20860274230126877 0.9554945273567927 -0.20860274230126877
vn -1 -9.046949300817175e-10 -9.046949300817175e-10
vn -0.9861362641580977 8.739564685237914e-10 0.16593754401072225
vn -0.9861362641580977 0.16593754401072225 8.739564685237914e-10
vn -0.9554945273567927 0.20860274230126877 0.20860274230126877
vn -0.932976962214385 3.3487901379546005e-9 0.359936088739679
vn -0.8841507436145106 0.22410611811595477 0.40994378930397996
vn -0.9329769522064049 0.3599361146809913 3.148121067010234e-9
vn -0.8841507436145106 0.40994378930397996 0.22410611811595477
vn -0.7871379420043191 0.4361271948968587 0.4361271948968587
vn -0.8391567518054149 9.965264228086389e-10 0.5438896449642935
vn -0.7642260756069552 0.23356275157143822 0.6011713120573628
vn -0.7071067811865476 -1.5915967705279218e-9 0.7071067811865476
vn -0.5438896449642935 -1.5476658934512177e-9 0.8391567518054149
vn -0.6011712466100403 0.2335627493014828 0.7642261277842199
vn -0.632736562282517 0.4464178373472605 0.632736562282517
vn -0.8391567518054149 0.5438896449642935 9.965264228086389e-10
vn -0.7642260756069552 0.6011713120573628 0.23356275157143822
vn -0.7071067811865476 0.7071067811865476 -1.5915967705279218e-9
vn -0.632736562282517 0.632736562282517 0.4464178373472605
vn -0.5438896449642935 0.8391567518054149 -1.5476658934512177e-9
vn -0.6011712466100403 0.7642261277842199 0.2335627493014828
vn -0.359936088739679 3.3487901379546005e-9 0.932976962214385
vn -0.40994381409790503 0.2241061153779882 0.8841507328125958
vn -0.43612725228888244 0.43612725228888244 0.7871378784062543
vn -0.16593754401072225 6.760667070834742e-10 0.9861362641580977
vn -0.20860272869695856 0.20860272869695856 0.9554945332969552
vn -0.22410611811595477 0.40994378930397996 0.8841507436145106
vn -0.359936088739679 0.932976962214385 3.3487901379546005e-9
vn -0.40994381409790503 0.8841507328125958 0.2241061153779882
vn -0.43612725228888244 0.7871378784062543 0.43612725228888244
vn -0.16593754401072225 0.9861362641580977 6.760667070834742e-10
vn -0.20860272869695856 0.9554945332969552 0.20860272869695856
vn -0.22410611811595477 0.8841507436145106 0.40994378930397996
vn -0.4464178134842093 0.6327365707006265 0.6327365707006265
vn -0.23356277974799702 0.601171307872782 0.764226070287397
vn -0.23356277974799702 0.764226070287397 0.601171307872782
vn -1.5476658934512177e-9 -0.8391567518054149 -0.5438896449642935
vn 0.2335627493014828 -0.7642261277842199 -0.6011712466100403
vn -1.5476658934512177e-9 -0.5438896449642935 -0.8391567518054149
vn 0.2335627493014828 -0.6011712466100403 -0.7642261277842199
vn -1.6698168689327524e-9 -0.7071067811865476 -0.7071067811865476
vn 0.4464178134842093 -0.6327365707006265 -0.6327365707006265
vn 3.3487901379546005e-9 -0.932976962214385 -0.359936088739679
vn 0.2241061153779882 -0.8841507328125958 -0.40994381409790503
vn 1.3998915487270587e-9 -0.9861362665964795 -0.16593752951986837
vn 0.20860272869695856 -0.9554945332969552 -0.20860272869695856
vn 0.43612721336196425 -0.7871379215425054 -0.43612721336196425
vn 0.40994378930397996 -0.8841507436145106 -0.22410611811595477
vn 3.3487901379546005e-9 -0.359936088739679 -0.932976962214385
vn 0.2241061153779882 -0.40994381409790503 -0.8841507328125958
vn 1.3998915487270587e-9 -0.16593752951986837 -0.9861362665964795
vn 0.20860272869695856 -0.20860272869695856 -0.9554945332969552
vn 0.43612721336196425 -0.43612721336196425 -0.7871379215425054
vn 0.40994378930397996 -0.22410611811595477 -0.8841507436145106
vn 0.6011712466100403 -0.7642261277842199 -0.2335627493014828
vn 0.6327366218871593 -0.6327365026778701 -0.4464178373472589
vn 0.7642261277842199 -0.6011712466100403 -0.2335627493014828
vn 0.6327366218871593 -0.4464178373472589 -0.6327365026778701
vn 0.601171307872782 -0.23356277974799702 -0.764226070287397
vn 0.7642261277842199 -0.2335627493014828 -0.6011712466100403
vn 0.7871378784062543 -0.43612725228888244 -0.43612725228888244
vn 0.8841507436145106 -0.40994378930397996 -0.22410611811595477
vn 0.8841507436145106 -0.22410611811595477 -0.40994378930397996
vn 0.9554945273567927 -0.20860274230126877 -0.20860274230126877
vn -9.046949300817175e-10 -1 -9.046949300817175e-10
vn 8.739564685237914e-10 -0.9861362641580977 0.16593754401072225
vn 0.16593754401072225 -0.9861362641580977 8.739564685237914e-10
vn 0.20860274230126877 -0.9554945273567927 0.20860274230126877
vn 3.3487901379546005e-9 -0.932976962214385 0.359936088739679
vn 0.22410611811595477 -0.8841507436145106 0.40994378930397996
vn 0.3599361146809913 -0.9329769522064049 3.148121067010234e-9
vn 0.40994378930397996 -0.8841507436145106 0.22410611811595477
vn 0.4361271948968587 -0.7871379420043191 0.4361271948968587
vn 9.965264228086389e-10 -0.8391567518054149 0.5438896449642935
vn 0.23356275157143822 -0.7642260756069552 0.6011713120573628
vn -1.5915967705279218e-9 -0.7071067811865476 0.7071067811865476
vn -1.5476658934512177e-9 -0.5438896449642935 0.8391567518054149
vn 0.2335627493014828 -0.6011712466100403 0.7642261277842199
vn 0.4464178373472605 -0.632736562282517 0.632736562282517
vn 3.3487901379546005e-9 -0.359936088739679 0.932976962214385
vn 0.2241061153779882 -0.40994381409790503 0.8841507328125958
vn 1.3998915487270587e-9 -0.16593752951986837 0.9861362665964795
vn 0.20860272869695856 -0.20860272869695856 0.9554945332969552
vn 0.43612721336196425 -0.43612721336196425 0.7871379215425054
vn 0.40994378930397996 -0.22410611811595477 0.8841507436145106
vn 0.5438896449642935 -0.8391567518054149 9.965264228086389e-10
vn 0.6011713120573628 -0.7642260756069552 0.23356275157143822
vn 0.7071067811865476 -0.7071067811865476 -1.5915967705279218e-9
vn 0.632736562282517 -0.632736562282517 0.4464178373472605
vn 0.8391567518054149 -0.5438896449642935 -1.5476658934512177e-9
vn 0.7642261277842199 -0.6011712466100403 0.2335627493014828
vn 0.932976962214385 -0.359936088739679 3.3487901379546005e-9
vn 0.8841507328125958 -0.40994381409790503 0.2241061153779882
vn 0.7871378784062543 -0.43612725228888244 0.43612725228888244
vn 0.9861362641580977 -0.16593754401072225 6.760667070834742e-10
vn 0.9554945332969552 -0.20860272869695856 0.20860272869695856
vn 0.8841507436145106 -0.22410611811595477 0.40994378930397996
vn 0.6327365707006265 -0.4464178134842093 0.6327365707006265
vn 0.601171307872782 -0.23356277974799702 0.764226070287397
vn 0.764226070287397 -0.23356277974799702 0.601171307872782
vn -9.046949300817175e-10 -9.046949300817175e-10 -1
vn 8.739564685237914e-10 0.16593754401072225 -0.9861362641580977
vn 0.16593754401072225 8.739564685237914e-10 -0.9861362641580977
vn 0.20860274230126877 0.20860274230126877 -0.9554945273567927
vn 3.3487901379546005e-9 0.359936088739679 -0.932976962214385
vn 0.22410611811595477 0.40994378930397996 -0.8841507436145106
vn 0.3599361146809913 3.148121067010234e-9 -0.9329769522064049
vn 0.40994378930397996 0.22410611811595477 -0.8841507436145106
vn 0.4361271948968587 0.4361271948968587 -0.7871379420043191
vn 9.965264228086389e-10 0.5438896449642935 -0.8391567518054149
vn 0.23356275157143822 0.6011713120573628 -0.7642260756069552
vn -1.5915967705279218e-9 0.7071067811865476 -0.7071067811865476
vn -1.5476658934512177e-9 0.8391567518054149 -0.5438896449642935
vn 0.2335627493014828 0.7642261277842199 -0.6011712466100403
vn 0.4464178373472605 0.632736562282517 -0.632736562282517
vn 3.3487901379546005e-9 0.932976962214385 -0.359936088739679
vn 0.2241061153779882 0.8841507328125958 -0.40994381409790503
vn 1.3998915487270587e-9 0.9861362665964795 -0.16593752951986837
vn 0.20860272869695856 0.9554945332969552 -0.20860272869695856
vn 0.43612721336196425 0.7871379215425054 -0.43612721336196425
vn 0.40994378930397996 0.8841507436145106 -0.22410611811595477
vn 0.5438896449642935 9.965264228086389e-10 -0.8391567518054149
vn 0.6011713120573628 0.23356275157143822 -0.7642260756069552
vn 0.7071067811865476 -1.5915967705279218e-9 -0.7071067811865476
vn 0.632736562282517 0.4464178373472605 -0.632736562282517
vn 0.8391567518054149 -1.5476658934512177e-9 -0.5438896449642935
vn 0.7642261277842199 0.2335627493014828 -0.6011712466100403
vn 0.932976962214385 3.3487901379546005e-9 -0.359936088739679
vn 0.8841507328125958 0.2241061153779882 -0.40994381409790503
vn 0.9861362665964795 1.3998915487270587e-9 -0.16593752951986837
vn 0.9554945332969552 0.20860272869695856 -0.20860272869695856
vn 0.7871379215425054 0.43612721336196425 -0.43612721336196425
vn 0.8841507436145106 0.40994378930397996 -0.22410611811595477
vn 0.6327365707006265 0.6327365707006265 -0.4464178134842093
vn 0.601171307872782 0.764226070287397 -0.23356277974799702
vn 0.764226070287397 0.601171307872782 -0.23356277974799702
vn -9.046949300817175e-10 -9.046949300817175e-10 1
vn 8.739564685237914e-10 0.16593754401072225 0.9861362641580977
vn 0.16593754401072225 8.739564685237914e-10 0.9861362641580977
vn 0.20860274230126877 0.20860274230126877 0.9554945273567927
vn 3.3487901379546005e-9 0.359936088739679 0.932976962214385
vn 0.22410611811595477 0.40994378930397996 0.8841507436145106
vn 0.3599361146809913 3.148121067010234e-9 0.9329769522064049
vn 0.40994378930397996 0.22410611811595477 0.8841507436145106
vn 0.4361271948968587 0.4361271948968587 0.7871379420043191
vn -9.046949300817175e-10 1 -9.046949300817175e-10
vn 8.739564685237914e-10 0.9861362641580977 0.16593754401072225
vn 0.16593754401072225 0.9861362641580977 8.739564685237914e-10
vn 0.20860274230126877 0.9554945273567927 0.20860274230126877
vn 3.3487901379546005e-9 0.932976962214385 0.359936088739679
vn 0.22410611811595477 0.8841507436145106 0.40994378930397996
vn 0.3599361146809913 0.9329769522064049 3.148121067010234e-9
vn 0.40994378930397996 0.8841507436145106 0.22410611811595477
vn 0.4361271948968587 0.7871379420043191 0.4361271948968587
vn 4.048442539436491e-9 0.7071067811865476 0.7071067811865476
vn 9.965264228086389e-10 0.5438896449642935 0.8391567518054149
vn 0.2335627493014828 0.6011712466100403 0.7642261277842199
vn 9.965264228086389e-10 0.8391567518054149 0.5438896449642935
vn 0.2335627493014828 0.7642261277842199 0.6011712466100403
vn 0.4464178373472605 0.632736562282517 0.632736562282517
vn 1 -9.046949300817175e-10 -9.046949300817175e-10
vn 0.9861362641580977 8.739564685237914e-10 0.16593754401072225
vn 0.9861362641580977 0.16593754401072225 8.739564685237914e-10
vn 0.9554945273567927 0.20860274230126877 0.20860274230126877
vn 0.932976962214385 3.3487901379546005e-9 0.359936088739679
vn 0.8841507436145106 0.22410611811595477 0.40994378930397996
vn 0.9329769522064049 0.3599361146809913 3.148121067010234e-9
vn 0.8841507436145106 0.40994378930397996 0.22410611811595477
vn 0.7871379420043191 0.4361271948968587 0.4361271948968587
vn 0.7071067811865476 4.048442539436491e-9 0.7071067811865476
vn 0.5438896449642935 9.965264228086389e-10 0.8391567518054149
vn 0.6011712466100403 0.2335627493014828 0.7642261277842199
vn 0.632736562282517 0.4464178373472605 0.632736562282517
vn 0.8391567518054149 9.965264228086389e-10 0.5438896449642935
vn 0.7642260729471761 0.2335627656597177 0.6011713099650724
vn 0.7071067811865476 0.7071067811865476 4.048442539436491e-9
vn 0.632736562282517 0.632736562282517 0.4464178373472605
vn 0.5438896449642935 0.8391567518054149 9.965264228086389e-10
vn 0.6011713099650724 0.7642260729471761 0.2335627656597177
vn 0.8391567518054149 0.5438896449642935 9.965264228086389e-10
vn 0.7642260729471761 0.6011713099650724 0.2335627656597177
f 3//3 7//7 5//5
f 14//14 3//3 11//11
f 11//11 5//5 18//18
f 3//3 5//5 11//11
f 22//22 8//8 1//1
f 26//26 22//22 1//1
f 24//24 2//2 15//15
f 24//24 26//26 2//2
f 2//2 1//1 3//3
f 1//1 7//7 3//3
f 2//2 3//3 14//14
f 26//26 1//1 2//2
f 9//9 50//50 4//4
f 4//4 50//50 54//54
f 5//5 4//4 6//6
f 7//7 4//4 5//5
f 5//5 6//6 18//18
f 6//6 52//52 19//19
f 6//6 54//54 52//52
f 4//4 54//54 6//6
f 8//8 10//10 9//9
f 1//1 8//8 7//7
f 7//7 9//9 4//4
f 8//8 9//9 7//7
f 22//22 28//28 8//8
f 28//28 10//10 8//8
f 28//28 31//31 10//10
f 10//10 56//56 9//9
f 9//9 56//56 50//50
f 10//10 58//58 56//56
f 31//31 58//58 10//10
f 31//31 78//78 58//58
f 13//13 12//12 11//11
f 14//14 11//11 12//12
f 11//11 18//18 13//13
f 12//12 114//114 16//16
f 118//118 114//114 12//12
f 20//20 116//116 13//13
f 116//116 118//118 13//13
f 13//13 118//118 12//12
f 15//15 2//2 14//14
f 16//16 17//17 15//15
f 12//12 16//16 14//14
f 15//15 14//14 16//16
f 37//37 24//24 15//15
f 37//37 15//15 17//17
f 17//17 40//40 37//37
f 16//16 120//120 17//17
f 114//114 120//120 16//16
f 120//120 122//122 17//17
f 17//17 122//122 40//40
f 122//122 142//142 40//40
f 18//18 6//6 19//19
f 20//20 13//13 18//18
f 21//21 20//20 19//19
f 18//18 19//19 20//20
f 19//19 52//52 65//65
f 19//19 65//65 21//21
f 68//68 21//21 65//65
f 21//21 126//126 20//20
f 126//126 116//116 20//20
f 128//128 126//126 21//21
f 68//68 128//128 21//21
f 68//68 178//178 128//128
f 23//23 22//22 26//26
f 29//29 22//22 23//23
f 25//25 26//26 24//24
f 25//25 24//24 38//38
f 23//23 26//26 25//25
f 27//27 23//23 25//25
f 30//30 23//23 27//27
f 27//27 25//25 39//39
f 35//35 30//30 27//27
f 43//43 27//27 39//39
f 35//35 27//27 43//43
f 46//46 35//35 43//43
f 29//29 28//28 22//22
f 32//32 31//31 28//28
f 32//32 28//28 29//29
f 33//33 32//32 29//29
f 30//30 29//29 23//23
f 33//33 29//29 30//30
f 34//34 33//33 30//30
f 79//79 31//31 32//32
f 79//79 78//78 31//31
f 82//82 32//32 33//33
f 82//82 79//79 32//32
f 87//87 82//82 33//33
f 87//87 33//33 34//34
f 89//89 87//87 34//34
f 34//34 30//30 35//35
f 36//36 34//34 35//35
f 36//36 35//35 46//46
f 89//89 34//34 36//36
f 90//90 36//36 47//47
f 90//90 89//89 36//36
f 38//38 24//24 37//37
f 40//40 41//41 37//37
f 38//38 37//37 41//41
f 39//39 25//25 38//38
f 41//41 42//42 38//38
f 39//39 38//38 42//42
f 42//42 44//44 39//39
f 40//40 143//143 41//41
f 40//40 142//142 143//143
f 41//41 146//146 42//42
f 143//143 146//146 41//41
f 146//146 151//151 42//42
f 43//43 39//39 44//44
f 44//44 45//45 43//43
f 46//46 43//43 45//45
f 42//42 151//151 44//44
f 151//151 153//153 44//44
f 44//44 153//153 45//45
f 45//45 154//154 48//48
f 153//153 154//154 45//45
f 47//47 36//36 46//46
f 45//45 48//48 46//46
f 47//47 46//46 48//48
f 48//48 49//49 47//47
f 99//99 90//90 47//47
f 99//99 47//47 49//49
f 49//49 102//102 99//99
f 48//48 157//157 49//49
f 154//154 157//157 48//48
f 157//157 159//159 49//49
f 49//49 159//159 102//102
f 159//159 214//214 102//102
f 54//54 50//50 51//51
f 51//51 50//50 57//57
f 52//52 54//54 53//53
f 66//66 52//52 53//53
f 53//53 54//54 51//51
f 53//53 51//51 55//55
f 60//60 55//55 51//51
f 55//55 67//67 53//53
f 50//50 56//56 57//57
f 56//56 58//58 59//59
f 57//57 56//56 59//59
f 58//58 78//78 80//80
f 59//59 58//58 80//80
f 57//57 59//59 61//61
f 51//51 57//57 60//60
f 61//61 60//60 57//57
f 61//61 62//62 60//60
f 84//84 61//61 59//59
f 59//59 80//80 84//84
f 84//84 93//93 61//61
f 60//60 63//63 55//55
f 55//55 71//71 67//67
f 63//63 71//71 55//55
f 63//63 74//74 71//71
f 93//93 62//62 61//61
f 93//93 95//95 62//62
f 62//62 63//63 60//60
f 62//62 64//64 63//63
f 64//64 74//74 63//63
f 95//95 64//64 62//62
f 97//97 75//75 64//64
f 95//95 97//97 64//64
f 65//65 52//52 66//66
f 68//68 65//65 69//69
f 69//69 65//65 66//66
f 66//66 53//53 67//67
f 69//69 66//66 70//70
f 67//67 70//70 66//66
f 67//67 72//72 70//70
f 179//179 68//68 69//69
f 179//179 178//178 68//68
f 70//70 182//182 69//69
f 179//179 69//69 182//182
f 70//70 187//187 182//182
f 71//71 72//72 67//67
f 71//71 73//73 72//72
f 74//74 73//73 71//71
f 72//72 187//187 70//70
f 72//72 189//189 187//187
f 73//73 189//189 72//72
f 76//76 190//190 73//73
f 73//73 190//190 189//189
f 64//64 75//75 74//74
f 74//74 76//76 73//73
f 75//75 76//76 74//74
f 75//75 77//77 76//76
f 97//97 105//105 75//75
f 105//105 77//77 75//75
f 105//105 108//108 77//77
f 77//77 193//193 76//76
f 76//76 193//193 190//190
f 77//77 195//195 193//193
f 108//108 195//195 77//77
f 108//108 223//223 195//195
f 80//80 78//78 79//79
f 80//80 79//79 81//81
f 79//79 82//82 81//81
f 82//82 87//87 83//83
f 81//81 82//82 83//83
f 80//80 81//81 84//84
f 85//85 84//84 81//81
f 85//85 93//93 84//84
f 81//81 83//83 85//85
f 86//86 85//85 83//83
f 83//83 88//88 86//86
f 86//86 94//94 85//85
f 87//87 89//89 88//88
f 83//83 87//87 88//88
f 88//88 89//89 91//91
f 89//89 90//90 91//91
f 91//91 90//90 100//100
f 92//92 86//86 88//88
f 88//88 91//91 92//92
f 101//101 92//92 91//91
f 94//94 95//95 93//93
f 94//94 93//93 85//85
f 98//98 95//95 94//94
f 96//96 94//94 86//86
f 96//96 98//98 94//94
f 107//107 98//98 96//96
f 98//98 97//97 95//95
f 106//106 97//97 98//98
f 92//92 96//96 86//86
f 111//111 96//96 92//92
f 101//101 111//111 92//92
f 111//111 107//107 96//96
f 90//90 99//99 100//100
f 99//99 102//102 103//103
f 100//100 99//99 103//103
f 91//91 100//100 101//101
f 104//104 101//101 100//100
f 100//100 103//103 104//104
f 104//104 112//112 101//101
f 103//103 102//102 215//215
f 102//102 214//214 215//215
f 218//218 104//104 103//103
f 103//103 215//215 218//218
f 218//218 233//233 104//104
f 106//106 105//105 97//97
f 109//109 108//108 105//105
f 109//109 105//105 106//106
f 107//107 106//106 98//98
f 110//110 106//106 107//107
f 113//113 110//110 107//107
f 110//110 109//109 106//106
f 224//224 108//108 109//109
f 224//224 223//223 108//108
f 227//227 109//109 110//110
f 227//227 224//224 109//109
f 235//235 227//227 110//110
f 112//112 111//111 101//101
f 113//113 107//107 111//111
f 112//112 113//113 111//111
f 232//232 113//113 112//112
f 233//233 112//112 104//104
f 233//233 232//232 112//112
f 235//235 110//110 113//113
f 232//232 235//235 113//113
f 115//115 114//114 118//118
f 121//121 114//114 115//115
f 117//117 118//118 116//116
f 117//117 116//116 127//127
f 115//115 118//118 117//117
f 119//119 115//115 117//117
f 124//124 115//115 119//119
f 119//119 117//117 130//130
f 121//121 120//120 114//114
f 123//123 122//122 120//120
f 123//123 120//120 121//121
f 144//144 142//142 122//122
f 144//144 122//122 123//123
f 125//125 123//123 121//121
f 124//124 121//121 115//115
f 125//125 121//121 124//124
f 132//132 125//125 124//124
f 148//148 123//123 125//125
f 148//148 144//144 123//123
f 163//163 148//148 125//125
f 127//127 116//116 126//126
f 128//128 129//129 126//126
f 127//127 126//126 129//129
f 128//128 178//178 180//180
f 128//128 180//180 129//129
f 130//130 117//117 127//127
f 129//129 131//131 127//127
f 130//130 127//127 131//131
f 131//131 136//136 130//130
f 129//129 184//184 131//131
f 180//180 184//184 129//129
f 184//184 199//199 131//131
f 133//133 124//124 119//119
f 135//135 119//119 130//130
f 133//133 119//119 135//135
f 138//138 133//133 135//135
f 163//163 125//125 132//132
f 165//165 163//163 132//132
f 132//132 124//124 133//133
f 134//134 132//132 133//133
f 134//134 133//133 138//138
f 165//165 132//132 134//134
f 167//167 134//134 139//139
f 167//167 165//165 134//134
f 135//135 130//130 136//136
f 136//136 137//137 135//135
f 138//138 135//135 137//137
f 131//131 199//199 136//136
f 199//199 201//201 136//136
f 136//136 201//201 137//137
f 137//137 203//203 140//140
f 201//201 203//203 137//137
f 139//139 134//134 138//138
f 137//137 140//140 138//138
f 139//139 138//138 140//140
f 140//140 141//141 139//139
f 169//169 167//167 139//139
f 169//169 139//139 141//141
f 141//141 172//172 169//169
f 140//140 205//205 141//141
f 203//203 205//205 140//140
f 205//205 207//207 141//141
f 141//141 207//207 172//172
f 207//207 238//238 172//172
f 143//143 142//142 144//144
f 143//143 144//144 145//145
f 146//146 143//143 145//145
f 151//151 146//146 147//147
f 146//146 145//145 147//147
f 145//145 144//144 148//148
f 145//145 148//148 149//149
f 149//149 148//148 163//163
f 147//147 145//145 149//149
f 147//147 149//149 150//150
f 152//152 147//147 150//150
f 150//150 149//149 164//164
f 153//153 151//151 152//152
f 151//151 147//147 152//152
f 153//153 152//152 155//155
f 154//154 153//153 155//155
f 154//154 155//155 158//158
f 152//152 150//150 156//156
f 155//155 152//152 156//156
f 155//155 156//156 161//161
f 157//157 154//154 158//158
f 160//160 159//159 157//157
f 157//157 158//158 160//160
f 216//216 214//214 159//159
f 160//160 216//216 159//159
f 158//158 155//155 161//161
f 158//158 161//161 162//162
f 162//162 160//160 158//158
f 176//176 162//162 161//161
f 162//162 220//220 160//160
f 220//220 216//216 160//160
f 248//248 220//220 162//162
f 164//164 163//163 165//165
f 149//149 163//163 164//164
f 164//164 165//165 168//168
f 150//150 164//164 166//166
f 166//166 164//164 168//168
f 166//166 168//168 171//171
f 168//168 165//165 167//167
f 168//168 167//167 170//170
f 156//156 150//150 166//166
f 156//156 166//166 175//175
f 161//161 156//156 175//175
f 175//175 166//166 171//171
f 170//170 167//167 169//169
f 172//172 173//173 169//169
f 170//170 169//169 173//173
f 171//171 168//168 170//170
f 171//171 170//170 174//174
f 174//174 177//177 171//171
f 173//173 174//174 170//170
f 172//172 239//239 173//173
f 172//172 238//238 239//239
f 173//173 242//242 174//174
f 239//239 242//242 173//173
f 242//242 251//251 174//174
f 161//161 175//175 176//176
f 175//175 171//171 177//177
f 177//177 176//176 175//175
f 177//177 247//247 176//176
f 176//176 248//248 162//162
f 247//247 248//248 176//176
f 174//174 251//251 177//177
f 251//251 247//247 177//177
f 180//180 178//178 179//179
f 180//180 179//179 181//181
f 179//179 182//182 181//181
f 182//182 187//187 183//183
f 181//181 182//182 183//183
f 180//180 181//181 184//184
f 185//185 184//184 181//181
f 185//185 199//199 184//184
f 181//181 183//183 185//185
f 186//186 185//185 183//183
f 183//183 188//188 186//186
f 186//186 200//200 185//185
f 187//187 189//189 188//188
f 183//183 187//187 188//188
f 188//188 189//189 191//191
f 189//189 190//190 191//191
f 191//191 190//190 194//194
f 192//192 186//186 188//188
f 188//188 191//191 192//192
f 197//197 192//192 191//191
f 190//190 193//193 194//194
f 193//193 195//195 196//196
f 194//194 193//193 196//196
f 195//195 223//223 225//225
f 196//196 195//195 225//225
f 191//191 194//194 197//197
f 198//198 197//197 194//194
f 194//194 196//196 198//198
f 198//198 212//212 197//197
f 229//229 198//198 196//196
f 196//196 225//225 229//229
f 229//229 255//255 198//198
f 200//200 201//201 199//199
f 200//200 199//199 185//185
f 204//204 201//201 200//200
f 202//202 200//200 186//186
f 202//202 204//204 200//200
f 209//209 204//204 202//202
f 204//204 203//203 201//201
f 206//206 203//203 204//204
f 206//206 205//205 203//203
f 208//208 207//207 205//205
f 208//208 205//205 206//206
f 240//240 238//238 207//207
f 240//240 207//207 208//208
f 209//209 206//206 204//204
f 210//210 206//206 209//209
f 213//213 210//210 209//209
f 210//210 208//208 206//206
f 244//244 208//208 210//210
f 244//244 240//240 208//208
f 257//257 244//244 210//210
f 192//192 202//202 186//186
f 211//211 202//202 192//192
f 197//197 211//211 192//192
f 211//211 209//209 202//202
f 212//212 211//211 197//197
f 213//213 209//209 211//211
f 212//212 213//213 211//211
f 253//253 213//213 212//212
f 255//255 212//212 198//198
f 255//255 253//253 212//212
f 257//257 210//210 213//213
f 253//253 257//257 213//213
f 215//215 214//214 216//216
f 217//217 215//215 216//216
f 218//218 215//215 217//217
f 233//233 218//218 219//219
f 219//219 218//218 217//217
f 217//217 216//216 220//220
f 220//220 221//221 217//217
f 220//220 248//248 221//221
f 221//221 222//222 219//219
f 219//219 217//217 221//221
f 234//234 219//219 222//222
f 221//221 249//249 222//222
f 225//225 223//223 224//224
f 225//225 224//224 226//226
f 224//224 227//227 226//226
f 227//227 235//235 228//228
f 226//226 227//227 228//228
f 225//225 226//226 229//229
f 230//230 229//229 226//226
f 230//230 255//255 229//229
f 231//231 230//230 228//228
f 228//228 236//236 231//231
f 226//226 228//228 230//230
f 231//231 256//256 230//230
f 236//236 232//232 234//234
f 232//232 233//233 234//234
f 234//234 233//233 219//219
f 235//235 232//232 236//236
f 228//228 235//235 236//236
f 222//222 237//237 234//234
f 237//237 231//231 236//236
f 236//236 234//234 237//237
f 239//239 238//238 240//240
f 239//239 240//240 241//241
f 242//242 239//239 241//241
f 251//251 242//242 243//243
f 242//242 241//241 243//243
f 241//241 240//240 244//244
f 241//241 244//244 245//245
f 245//245 244//244 257//257
f 243//243 245//245 246//246
f 252//252 243//243 246//246
f 246//246 245//245 258//258
f 243//243 241//241 245//245
f 247//247 252//252 249//249
f 248//248 247//247 249//249
f 248//248 249//249 221//221
f 249//249 250//250 222//222
f 252//252 246//246 250//250
f 249//249 252//252 250//250
f 247//247 251//251 252//252
f 251//251 243//243 252//252
f 258//258 253//253 256//256
f 254//254 256//256 231//231
f 246//246 258//258 254//254
f 254//254 258//258 256//256
f 256//256 253//253 255//255
f 256//256 255//255 230//230
f 258//258 257//257 253//253
f 245//245 257//257 258//258
f 250//250 254//254 237//237
f 222//222 250//250 237//237
f 237//237 254//254 231//231
f 250//250 246//246 254//254
