ply
format ascii 1.0
element vertex 24
property float x
property float y
property float z
property float nx
property float ny
property float nz
element face 36
property list uchar int vertex_index
end_header
-15 -15 -15 -0.816496580927726 -0.408248290463863 -0.408248290463863
-14 -14 -14 0.32503106179403873 0.6868580962216277 0.6500621235880775
-14 -0.75 -14 0.41828021957583994 -0.8839129325841342 0.20914010978791997
-15 -15 15 -0.408248290463863 -0.816496580927726 0.408248290463863
-14 -14 14 0.41828021957583994 0.8839129325841342 -0.20914010978791997
-14 -0.75 14 0.32503106179403873 -0.6868580962216277 -0.6500621235880775
-14 0.75 -14 0.32503106179403873 0.6868580962216277 0.6500621235880775
-15 15 -15 -0.3333333333333333 0.6666666666666666 -0.6666666666666666
-14 14 -14 0.41828021957583994 -0.8839129325841342 0.20914010978791997
-14 0.75 14 0.41828021957583994 0.8839129325841342 -0.20914010978791997
-15 15 15 -0.6666666666666666 0.3333333333333333 0.6666666666666666
-14 14 14 0.32503106179403873 -0.6868580962216277 -0.6500621235880775
14 -14 -14 -0.41828021957583994 0.8839129325841342 0.20914010978791997
15 -15 -15 0.3333333333333333 -0.6666666666666666 -0.6666666666666666
14 -0.75 -14 -0.32503106179403873 -0.6868580962216277 0.6500621235880775
14 -14 14 -0.32503106179403873 0.6868580962216277 -0.6500621235880775
15 -15 15 0.6666666666666666 -0.3333333333333333 0.6666666666666666
14 -0.75 14 -0.41828021957583994 -0.8839129325841342 -0.20914010978791997
14 0.75 -14 -0.41828021957583994 0.8839129325841342 0.20914010978791997
14 14 -14 -0.32503106179403873 -0.6868580962216277 0.6500621235880775
15 15 -15 0.816496580927726 0.408248290463863 -0.408248290463863
14 0.75 14 -0.32503106179403873 0.6868580962216277 -0.6500621235880775
14 14 14 -0.41828021957583994 -0.8839129325841342 -0.20914010978791997
15 15 15 0.408248290463863 0.816496580927726 0.408248290463863
3 0 13 3
3 0 7 13
3 0 3 10
3 3 16 10
3 0 10 7
3 7 10 23
3 13 20 16
3 3 13 16
3 7 20 13
3 7 23 20
3 10 16 23
3 16 20 23
3 1 2 4
3 1 4 12
3 1 14 2
3 4 2 5
3 4 5 15
3 8 9 6
3 8 6 19
3 8 11 9
3 11 21 9
3 8 22 11
3 1 12 14
3 12 17 14
3 4 15 12
3 15 5 17
3 12 15 17
3 19 6 18
3 8 19 22
3 19 18 22
3 11 22 21
3 22 18 21
3 2 17 5
3 9 18 6
3 2 14 17
3 18 9 21

