o 
usemtl topology-thin-wall-partition-material
v -15 -15 -15
v -14 -14 -14
v -14 -0.75 -14
v -15 -15 15
v -14 -14 14
v -14 -0.75 14
v -14 0.75 -14
v -15 15 -15
v -14 14 -14
v -14 0.75 14
v -15 15 15
v -14 14 14
v 14 -14 -14
v 15 -15 -15
v 14 -0.75 -14
v 14 -14 14
v 15 -15 15
v 14 -0.75 14
v 14 0.75 -14
v 14 14 -14
v 15 15 -15
v 14 0.75 14
v 14 14 14
v 15 15 15
vn -0.816496580927726 -0.408248290463863 -0.408248290463863
vn 0.32503106179403873 0.6868580962216277 0.6500621235880775
vn 0.41828021957583994 -0.8839129325841342 0.20914010978791997
vn -0.408248290463863 -0.816496580927726 0.408248290463863
vn 0.41828021957583994 0.8839129325841342 -0.20914010978791997
vn 0.32503106179403873 -0.6868580962216277 -0.6500621235880775
vn 0.32503106179403873 0.6868580962216277 0.6500621235880775
vn -0.3333333333333333 0.6666666666666666 -0.6666666666666666
vn 0.41828021957583994 -0.8839129325841342 0.20914010978791997
vn 0.41828021957583994 0.8839129325841342 -0.20914010978791997
vn -0.6666666666666666 0.3333333333333333 0.6666666666666666
vn 0.32503106179403873 -0.6868580962216277 -0.6500621235880775
vn -0.41828021957583994 0.8839129325841342 0.20914010978791997
vn 0.3333333333333333 -0.6666666666666666 -0.6666666666666666
vn -0.32503106179403873 -0.6868580962216277 0.6500621235880775
vn -0.32503106179403873 0.6868580962216277 -0.6500621235880775
vn 0.6666666666666666 -0.3333333333333333 0.6666666666666666
vn -0.41828021957583994 -0.8839129325841342 -0.20914010978791997
vn -0.41828021957583994 0.8839129325841342 0.20914010978791997
vn -0.32503106179403873 -0.6868580962216277 0.6500621235880775
vn 0.816496580927726 0.408248290463863 -0.408248290463863
vn -0.32503106179403873 0.6868580962216277 -0.6500621235880775
vn -0.41828021957583994 -0.8839129325841342 -0.20914010978791997
vn 0.408248290463863 0.816496580927726 0.408248290463863
f 1//1 14//14 4//4
f 1//1 8//8 14//14
f 1//1 4//4 11//11
f 4//4 17//17 11//11
f 1//1 11//11 8//8
f 8//8 11//11 24//24
f 14//14 21//21 17//17
f 4//4 14//14 17//17
f 8//8 21//21 14//14
f 8//8 24//24 21//21
f 11//11 17//17 24//24
f 17//17 21//21 24//24
f 2//2 3//3 5//5
f 2//2 5//5 13//13
f 2//2 15//15 3//3
f 5//5 3//3 6//6
f 5//5 6//6 16//16
f 9//9 10//10 7//7
f 9//9 7//7 20//20
f 9//9 12//12 10//10
f 12//12 22//22 10//10
f 9//9 23//23 12//12
f 2//2 13//13 15//15
f 13//13 18//18 15//15
f 5//5 16//16 13//13
f 16//16 6//6 18//18
f 13//13 16//16 18//18
f 20//20 7//7 19//19
f 9//9 20//20 23//23
f 20//20 19//19 23//23
f 12//12 23//23 22//22
f 23//23 19//19 22//22
f 3//3 18//18 6//6
f 10//10 19//19 7//7
f 3//3 15//15 18//18
f 19//19 10//10 22//22
