solid generation3d-second-implementation
  facet normal 0.000000 0.000000 -1.000000
    outer loop
      vertex 0.000000 0.000000 0.000000
      vertex 1.000000 1.000000 0.000000
      vertex 1.000000 0.000000 0.000000
    endloop
  endfacet
  facet normal 0.000000 0.000000 -1.000000
    outer loop
      vertex 0.000000 0.000000 0.000000
      vertex 0.000000 1.000000 0.000000
      vertex 1.000000 1.000000 0.000000
    endloop
  endfacet
  facet normal 0.000000 0.000000 1.000000
    outer loop
      vertex 0.000000 0.000000 1.000000
      vertex 1.000000 0.000000 1.000000
      vertex 1.000000 1.000000 1.000000
    endloop
  endfacet
  facet normal 0.000000 0.000000 1.000000
    outer loop
      vertex 0.000000 0.000000 1.000000
      vertex 1.000000 1.000000 1.000000
      vertex 0.000000 1.000000 1.000000
    endloop
  endfacet
  facet normal 0.000000 -1.000000 0.000000
    outer loop
      vertex 0.000000 0.000000 0.000000
      vertex 1.000000 0.000000 0.000000
      vertex 1.000000 0.000000 1.000000
    endloop
  endfacet
  facet normal 0.000000 -1.000000 0.000000
    outer loop
      vertex 0.000000 0.000000 0.000000
      vertex 1.000000 0.000000 1.000000
      vertex 0.000000 0.000000 1.000000
    endloop
  endfacet
  facet normal 1.000000 0.000000 0.000000
    outer loop
      vertex 1.000000 0.000000 0.000000
      vertex 1.000000 1.000000 0.000000
      vertex 1.000000 1.000000 1.000000
    endloop
  endfacet
  facet normal 1.000000 0.000000 0.000000
    outer loop
      vertex 1.000000 0.000000 0.000000
      vertex 1.000000 1.000000 1.000000
      vertex 1.000000 0.000000 1.000000
    endloop
  endfacet
  facet normal 0.000000 1.000000 0.000000
    outer loop
      vertex 1.000000 1.000000 0.000000
      vertex 0.000000 1.000000 0.000000
      vertex 0.000000 1.000000 1.000000
    endloop
  endfacet
  facet normal 0.000000 1.000000 -0.000000
    outer loop
      vertex 1.000000 1.000000 0.000000
      vertex 0.000000 1.000000 1.000000
      vertex 1.000000 1.000000 1.000000
    endloop
  endfacet
  facet normal -1.000000 0.000000 0.000000
    outer loop
      vertex 0.000000 1.000000 0.000000
      vertex 0.000000 0.000000 0.000000
      vertex 0.000000 0.000000 1.000000
    endloop
  endfacet
  facet normal -1.000000 0.000000 0.000000
    outer loop
      vertex 0.000000 1.000000 0.000000
      vertex 0.000000 0.000000 1.000000
      vertex 0.000000 1.000000 1.000000
    endloop
  endfacet
endsolid generation3d-second-implementation
