ply
format ascii 1.0
element vertex 16
property float x
property float y
property float z
property float nx
property float ny
property float nz
element face 28
property list uchar int vertex_index
end_header
-25 -25 -5 -0.29939218783780275 -0.18712031483900876 -0.9356015741950439
-25 -25 5 -0.21359704695951942 -0.610279746362512 0.7628465984127353
-25 -0.00009999999747378752 1 -0.6585043756630518 0.7525768976514172 0.000018814422470389262
-25 -0.00009999999747378752 5 -0.039840954572843784 0.07968222207006702 0.9960238158923216
-25 25 -5 -0.09759000871401156 0.19518001742802313 -0.9759000722389541
-25 0.00009999999747378752 1 -0.5999994926324864 -0.8000003765253821 0.00008000003505647651
-25 0.00009999999747378752 5 -0.07597369157880036 -0.30389598821045194 0.9496711149326814
-25 25 5 -0.24704869093482396 0.19003786148157414 0.9501855374140883
25 -25 -5 0.09759000871401156 -0.19518001742802313 -0.9759000722389541
25 -25 5 0.24704869093482396 -0.19003786148157414 0.9501855374140883
25 -0.00009999999747378752 1 0.5999994926324864 0.8000003765253821 0.00008000003505647651
25 -0.00009999999747378752 5 0.07597369157880036 0.30389598821045194 0.9496711149326814
25 25 -5 0.2993922149687728 0.1871203131694123 -0.9356015658470614
25 0.00009999999747378752 1 0.6585043756630518 -0.7525768976514172 0.000018814422470389262
25 0.00009999999747378752 5 0.039840954572843784 -0.07968222207006702 0.9960238158923216
25 25 5 0.21359704695951942 0.610279746362512 0.7628465984127353
3 0 2 5
3 0 8 1
3 0 4 8
3 0 1 2
3 1 3 2
3 1 9 3
3 0 7 4
3 0 5 7
3 7 5 6
3 7 6 14
3 4 7 15
3 8 12 9
3 1 8 9
3 9 11 3
3 9 12 10
3 9 10 11
3 4 12 8
3 4 15 12
3 12 13 10
3 7 14 15
3 15 14 13
3 12 15 13
3 2 10 5
3 3 11 2
3 5 13 6
3 2 11 10
3 5 10 13
3 14 6 13

