solid exported
	facet normal -1 0 0
		outer loop
			vertex -25 -25 -5
			vertex -25 -0.00009999999747378752 1
			vertex -25 0.00009999999747378752 1
		endloop
	endfacet
	facet normal 0 -1 0
		outer loop
			vertex -25 -25 -5
			vertex 25 -25 -5
			vertex -25 -25 5
		endloop
	endfacet
	facet normal 0 0 -1
		outer loop
			vertex -25 -25 -5
			vertex -25 25 -5
			vertex 25 -25 -5
		endloop
	endfacet
	facet normal -1 0 0
		outer loop
			vertex -25 -25 -5
			vertex -25 -25 5
			vertex -25 -0.00009999999747378752 1
		endloop
	endfacet
	facet normal -1 0 0
		outer loop
			vertex -25 -25 5
			vertex -25 -0.00009999999747378752 5
			vertex -25 -0.00009999999747378752 1
		endloop
	endfacet
	facet normal 0 0 1
		outer loop
			vertex -25 -25 5
			vertex 25 -25 5
			vertex -25 -0.00009999999747378752 5
		endloop
	endfacet
	facet normal -1 0 0
		outer loop
			vertex -25 -25 -5
			vertex -25 25 5
			vertex -25 25 -5
		endloop
	endfacet
	facet normal -1 0 0
		outer loop
			vertex -25 -25 -5
			vertex -25 0.00009999999747378752 1
			vertex -25 25 5
		endloop
	endfacet
	facet normal -1 0 0
		outer loop
			vertex -25 25 5
			vertex -25 0.00009999999747378752 1
			vertex -25 0.00009999999747378752 5
		endloop
	endfacet
	facet normal 0 0 1
		outer loop
			vertex -25 25 5
			vertex -25 0.00009999999747378752 5
			vertex 25 0.00009999999747378752 5
		endloop
	endfacet
	facet normal 0 1 0
		outer loop
			vertex -25 25 -5
			vertex -25 25 5
			vertex 25 25 5
		endloop
	endfacet
	facet normal 1 0 0
		outer loop
			vertex 25 -25 -5
			vertex 25 25 -5
			vertex 25 -25 5
		endloop
	endfacet
	facet normal 0 -1 0
		outer loop
			vertex -25 -25 5
			vertex 25 -25 -5
			vertex 25 -25 5
		endloop
	endfacet
	facet normal 0 0 1
		outer loop
			vertex 25 -25 5
			vertex 25 -0.00009999999747378752 5
			vertex -25 -0.00009999999747378752 5
		endloop
	endfacet
	facet normal 1 0 0
		outer loop
			vertex 25 -25 5
			vertex 25 25 -5
			vertex 25 -0.00009999999747378752 1
		endloop
	endfacet
	facet normal 1 0 0
		outer loop
			vertex 25 -25 5
			vertex 25 -0.00009999999747378752 1
			vertex 25 -0.00009999999747378752 5
		endloop
	endfacet
	facet normal 0 0 -1
		outer loop
			vertex -25 25 -5
			vertex 25 25 -5
			vertex 25 -25 -5
		endloop
	endfacet
	facet normal 0 1 0
		outer loop
			vertex -25 25 -5
			vertex 25 25 5
			vertex 25 25 -5
		endloop
	endfacet
	facet normal 1 0 0
		outer loop
			vertex 25 25 -5
			vertex 25 0.00009999999747378752 1
			vertex 25 -0.00009999999747378752 1
		endloop
	endfacet
	facet normal 0 0 1
		outer loop
			vertex -25 25 5
			vertex 25 0.00009999999747378752 5
			vertex 25 25 5
		endloop
	endfacet
	facet normal 1 0 0
		outer loop
			vertex 25 25 5
			vertex 25 0.00009999999747378752 5
			vertex 25 0.00009999999747378752 1
		endloop
	endfacet
	facet normal 1 0 0
		outer loop
			vertex 25 25 -5
			vertex 25 25 5
			vertex 25 0.00009999999747378752 1
		endloop
	endfacet
	facet normal 0 0 1
		outer loop
			vertex -25 -0.00009999999747378752 1
			vertex 25 -0.00009999999747378752 1
			vertex -25 0.00009999999747378752 1
		endloop
	endfacet
	facet normal 0 1 0
		outer loop
			vertex -25 -0.00009999999747378752 5
			vertex 25 -0.00009999999747378752 5
			vertex -25 -0.00009999999747378752 1
		endloop
	endfacet
	facet normal 0 -1 0
		outer loop
			vertex -25 0.00009999999747378752 1
			vertex 25 0.00009999999747378752 1
			vertex -25 0.00009999999747378752 5
		endloop
	endfacet
	facet normal 0 1 0
		outer loop
			vertex -25 -0.00009999999747378752 1
			vertex 25 -0.00009999999747378752 5
			vertex 25 -0.00009999999747378752 1
		endloop
	endfacet
	facet normal 0 0 1
		outer loop
			vertex -25 0.00009999999747378752 1
			vertex 25 -0.00009999999747378752 1
			vertex 25 0.00009999999747378752 1
		endloop
	endfacet
	facet normal 0 -1 0
		outer loop
			vertex 25 0.00009999999747378752 5
			vertex -25 0.00009999999747378752 5
			vertex 25 0.00009999999747378752 1
		endloop
	endfacet
endsolid exported
