{"asset":{"version":"2.0","generator":"THREE.GLTFExporter r182"},"scenes":[{"name":"AuxScene","nodes":[0]}],"scene":0,"nodes":[{"mesh":0}],"bufferViews":[{"buffer":0,"byteOffset":0,"byteLength":5112,"target":34962,"byteStride":12},{"buffer":0,"byteOffset":5112,"byteLength":5112,"target":34962,"byteStride":12},{"buffer":0,"byteOffset":10224,"byteLength":10176,"target":34963}],"buffers":[{"byteLength":20400,"uri":"data:application/octet-stream;base64,"}],"accessors":[{"bufferView":0,"componentType":5126,"count":426,"max":[11.227479934692383,15,15],"min":[-15,-15,-15],"type":"VEC3"},{"bufferView":1,"componentType":5126,"count":426,"max":[1,1,1],"min":[-1,-1,-1],"type":"VEC3"},{"bufferView":2,"componentType":5125,"count":2544,"max":[425],"min":[0],"type":"SCALAR"}],"materials":[{"pbrMetallicRoughness":{"baseColorFactor":[0.7454042095350284,0.3005437944049895,0.07036009568874305,1],"metallicFactor":0.25,"roughnessFactor":0.4},"name":"boolean-difference-sphere-crescent-material"}],"meshes":[{"primitives":[{"mode":4,"attributes":{"POSITION":0,"NORMAL":1},"indices":2,"material":0}]}]}