ISO-10303-21;
HEADER;
FILE_DESCRIPTION(('Open CASCADE Model'),'2;1');
FILE_NAME('Open CASCADE Shape Model','1970-01-01T00:00:00',('Author'),(
    'Open CASCADE'),'Open CASCADE STEP processor 8.0','Open CASCADE 8.0'
  ,'Unknown');
FILE_SCHEMA((
'AP242_MANAGED_MODEL_BASED_3D_ENGINEERING_MIM_LF {1 0 10303 442 1 1 4 }'
    ));
ENDSEC;
DATA;
#1 = APPLICATION_PROTOCOL_DEFINITION('international standard',
  'ap242_managed_model_based_3d_engineering',2013,#2);
#2 = APPLICATION_CONTEXT('Managed model based 3d engineering');
#3 = SHAPE_DEFINITION_REPRESENTATION(#4,#10);
#4 = PRODUCT_DEFINITION_SHAPE('','',#5);
#5 = PRODUCT_DEFINITION('design','',#6,#9);
#6 = PRODUCT_DEFINITION_FORMATION('','',#7);
#7 = PRODUCT('Open CASCADE STEP translator 8.0',
  'Open CASCADE STEP translator 8.0','',(#8));
#8 = PRODUCT_CONTEXT('',#2,'mechanical');
#9 = PRODUCT_DEFINITION_CONTEXT('part definition',#2,'design');
#10 = ADVANCED_BREP_SHAPE_REPRESENTATION('',(#11,#15),#506);
#11 = AXIS2_PLACEMENT_3D('',#12,#13,#14);
#12 = CARTESIAN_POINT('',(0.,0.,0.));
#13 = DIRECTION('',(0.,0.,1.));
#14 = DIRECTION('',(1.,0.,-0.));
#15 = MANIFOLD_SOLID_BREP('',#16);
#16 = CLOSED_SHELL('',(#17,#297,#374,#423,#472,#499));
#17 = ADVANCED_FACE('',(#18),#33,.T.);
#18 = FACE_BOUND('',#19,.T.);
#19 = EDGE_LOOP('',(#20,#69,#93,#94,#131,#187,#243));
#20 = ORIENTED_EDGE('',*,*,#21,.T.);
#21 = EDGE_CURVE('',#22,#24,#26,.T.);
#22 = VERTEX_POINT('',#23);
#23 = CARTESIAN_POINT('',(3.,3.,9.055385138137));
#24 = VERTEX_POINT('',#25);
#25 = CARTESIAN_POINT('',(3.,-7.347880794884E-16,9.539392014169));
#26 = SURFACE_CURVE('',#27,(#32,#57),.PCURVE_S1.);
#27 = CIRCLE('',#28,9.539392014169);
#28 = AXIS2_PLACEMENT_3D('',#29,#30,#31);
#29 = CARTESIAN_POINT('',(3.,0.,0.));
#30 = DIRECTION('',(1.,0.,-0.));
#31 = DIRECTION('',(0.,0.,1.));
#32 = PCURVE('',#33,#38);
#33 = SPHERICAL_SURFACE('',#34,10.);
#34 = AXIS2_PLACEMENT_3D('',#35,#36,#37);
#35 = CARTESIAN_POINT('',(0.,0.,0.));
#36 = DIRECTION('',(0.,0.,1.));
#37 = DIRECTION('',(1.,0.,0.));
#38 = DEFINITIONAL_REPRESENTATION('',(#39),#56);
#39 = B_SPLINE_CURVE_WITH_KNOTS('',8,(#40,#41,#42,#43,#44,#45,#46,#47,
    #48,#49,#50,#51,#52,#53,#54,#55),.UNSPECIFIED.,.F.,.F.,(9,7,9),(
    5.963270753266,6.123228030223,6.28318530718),.UNSPECIFIED.);
#40 = CARTESIAN_POINT('',(0.785398163397,1.132647296211));
#41 = CARTESIAN_POINT('',(0.755221606137,1.146785655615));
#42 = CARTESIAN_POINT('',(0.722735256616,1.160436416317));
#43 = CARTESIAN_POINT('',(0.687734303141,1.173536431809));
#44 = CARTESIAN_POINT('',(0.650012027954,1.186012504331));
#45 = CARTESIAN_POINT('',(0.609368156064,1.197780370643));
#46 = CARTESIAN_POINT('',(0.565641429231,1.2087436407));
#47 = CARTESIAN_POINT('',(0.518760421875,1.218796005763));
#48 = CARTESIAN_POINT('',(0.418852809366,1.236864059139));
#49 = CARTESIAN_POINT('',(0.365826145673,1.244879752999));
#50 = CARTESIAN_POINT('',(0.309806875277,1.251769631902));
#51 = CARTESIAN_POINT('',(0.251027513175,1.257425297688));
#52 = CARTESIAN_POINT('',(0.189915104984,1.261745177825));
#53 = CARTESIAN_POINT('',(0.127157894818,1.264650820689));
#54 = CARTESIAN_POINT('',(6.35789654338E-02,1.266103672779));
#55 = CARTESIAN_POINT('',(7.788257263976E-16,1.266103672779));
#56 = ( GEOMETRIC_REPRESENTATION_CONTEXT(2) 
PARAMETRIC_REPRESENTATION_CONTEXT() REPRESENTATION_CONTEXT('2D SPACE',''
  ) );
#57 = PCURVE('',#58,#63);
#58 = PLANE('',#59);
#59 = AXIS2_PLACEMENT_3D('',#60,#61,#62);
#60 = CARTESIAN_POINT('',(3.,-3.,7.));
#61 = DIRECTION('',(1.,0.,-0.));
#62 = DIRECTION('',(0.,0.,1.));
#63 = DEFINITIONAL_REPRESENTATION('',(#64),#68);
#64 = CIRCLE('',#65,9.539392014169);
#65 = AXIS2_PLACEMENT_2D('',#66,#67);
#66 = CARTESIAN_POINT('',(-7.,-3.));
#67 = DIRECTION('',(1.,0.));
#68 = ( GEOMETRIC_REPRESENTATION_CONTEXT(2) 
PARAMETRIC_REPRESENTATION_CONTEXT() REPRESENTATION_CONTEXT('2D SPACE',''
  ) );
#69 = ORIENTED_EDGE('',*,*,#70,.F.);
#70 = EDGE_CURVE('',#71,#24,#73,.T.);
#71 = VERTEX_POINT('',#72);
#72 = CARTESIAN_POINT('',(6.123233995737E-16,-1.499759782662E-31,-10.));
#73 = SEAM_CURVE('',#74,(#79,#86),.PCURVE_S1.);
#74 = CIRCLE('',#75,10.);
#75 = AXIS2_PLACEMENT_3D('',#76,#77,#78);
#76 = CARTESIAN_POINT('',(0.,0.,0.));
#77 = DIRECTION('',(-2.449293598295E-16,-1.,0.));
#78 = DIRECTION('',(1.,-2.449293598295E-16,0.));
#79 = PCURVE('',#33,#80);
#80 = DEFINITIONAL_REPRESENTATION('',(#81),#85);
#81 = LINE('',#82,#83);
#82 = CARTESIAN_POINT('',(6.28318530718,-6.28318530718));
#83 = VECTOR('',#84,1.);
#84 = DIRECTION('',(0.,1.));
#85 = ( GEOMETRIC_REPRESENTATION_CONTEXT(2) 
PARAMETRIC_REPRESENTATION_CONTEXT() REPRESENTATION_CONTEXT('2D SPACE',''
  ) );
#86 = PCURVE('',#33,#87);
#87 = DEFINITIONAL_REPRESENTATION('',(#88),#92);
#88 = LINE('',#89,#90);
#89 = CARTESIAN_POINT('',(0.,-6.28318530718));
#90 = VECTOR('',#91,1.);
#91 = DIRECTION('',(0.,1.));
#92 = ( GEOMETRIC_REPRESENTATION_CONTEXT(2) 
PARAMETRIC_REPRESENTATION_CONTEXT() REPRESENTATION_CONTEXT('2D SPACE',''
  ) );
#93 = ORIENTED_EDGE('',*,*,#70,.T.);
#94 = ORIENTED_EDGE('',*,*,#95,.T.);
#95 = EDGE_CURVE('',#24,#96,#98,.T.);
#96 = VERTEX_POINT('',#97);
#97 = CARTESIAN_POINT('',(3.,-3.,9.055385138137));
#98 = SURFACE_CURVE('',#99,(#104,#124),.PCURVE_S1.);
#99 = CIRCLE('',#100,9.539392014169);
#100 = AXIS2_PLACEMENT_3D('',#101,#102,#103);
#101 = CARTESIAN_POINT('',(3.,0.,0.));
#102 = DIRECTION('',(1.,0.,-0.));
#103 = DIRECTION('',(0.,0.,1.));
#104 = PCURVE('',#33,#105);
#105 = DEFINITIONAL_REPRESENTATION('',(#106),#123);
#106 = B_SPLINE_CURVE_WITH_KNOTS('',8,(#107,#108,#109,#110,#111,#112,
    #113,#114,#115,#116,#117,#118,#119,#120,#121,#122),.UNSPECIFIED.,.F.
  ,.F.,(9,7,9),(0.,0.159957276957,0.319914553914),.UNSPECIFIED.);
#107 = CARTESIAN_POINT('',(6.28318530718,1.266103672779));
#108 = CARTESIAN_POINT('',(6.219606341746,1.266103672779));
#109 = CARTESIAN_POINT('',(6.156027412361,1.264650820691));
#110 = CARTESIAN_POINT('',(6.093270202196,1.261745177818));
#111 = CARTESIAN_POINT('',(6.032157794004,1.257425297698));
#112 = CARTESIAN_POINT('',(5.973378431903,1.251769631896));
#113 = CARTESIAN_POINT('',(5.917359161506,1.244879753));
#114 = CARTESIAN_POINT('',(5.864332497814,1.236864059139));
#115 = CARTESIAN_POINT('',(5.764424885305,1.218796005763));
#116 = CARTESIAN_POINT('',(5.717543877948,1.2087436407));
#117 = CARTESIAN_POINT('',(5.673817151116,1.197780370644));
#118 = CARTESIAN_POINT('',(5.633173279225,1.186012504331));
#119 = CARTESIAN_POINT('',(5.595451004039,1.173536431808));
#120 = CARTESIAN_POINT('',(5.560450050564,1.160436416318));
#121 = CARTESIAN_POINT('',(5.527963701042,1.146785655615));
#122 = CARTESIAN_POINT('',(5.497787143782,1.132647296211));
#123 = ( GEOMETRIC_REPRESENTATION_CONTEXT(2) 
PARAMETRIC_REPRESENTATION_CONTEXT() REPRESENTATION_CONTEXT('2D SPACE',''
  ) );
#124 = PCURVE('',#58,#125);
#125 = DEFINITIONAL_REPRESENTATION('',(#126),#130);
#126 = CIRCLE('',#127,9.539392014169);
#127 = AXIS2_PLACEMENT_2D('',#128,#129);
#128 = CARTESIAN_POINT('',(-7.,-3.));
#129 = DIRECTION('',(1.,0.));
#130 = ( GEOMETRIC_REPRESENTATION_CONTEXT(2) 
PARAMETRIC_REPRESENTATION_CONTEXT() REPRESENTATION_CONTEXT('2D SPACE',''
  ) );
#131 = ORIENTED_EDGE('',*,*,#132,.F.);
#132 = EDGE_CURVE('',#133,#96,#135,.T.);
#133 = VERTEX_POINT('',#134);
#134 = CARTESIAN_POINT('',(-3.,-3.,9.055385138137));
#135 = SURFACE_CURVE('',#136,(#141,#175),.PCURVE_S1.);
#136 = CIRCLE('',#137,9.539392014169);
#137 = AXIS2_PLACEMENT_3D('',#138,#139,#140);
#138 = CARTESIAN_POINT('',(0.,-3.,0.));
#139 = DIRECTION('',(-0.,1.,0.));
#140 = DIRECTION('',(0.,0.,1.));
#141 = PCURVE('',#33,#142);
#142 = DEFINITIONAL_REPRESENTATION('',(#143),#174);
#143 = B_SPLINE_CURVE_WITH_KNOTS('',8,(#144,#145,#146,#147,#148,#149,
    #150,#151,#152,#153,#154,#155,#156,#157,#158,#159,#160,#161,#162,
    #163,#164,#165,#166,#167,#168,#169,#170,#171,#172,#173),
  .UNSPECIFIED.,.F.,.F.,(9,7,7,7,9),(5.963270753266,6.123228030223,
    6.24319598794,6.423147924517,6.603099861093),.UNSPECIFIED.);
#144 = CARTESIAN_POINT('',(3.926990816987,1.132647296211));
#145 = CARTESIAN_POINT('',(3.957167374248,1.146785655615));
#146 = CARTESIAN_POINT('',(3.989653723769,1.160436416317));
#147 = CARTESIAN_POINT('',(4.024654677244,1.173536431809));
#148 = CARTESIAN_POINT('',(4.06237695243,1.186012504331));
#149 = CARTESIAN_POINT('',(4.103020824321,1.197780370643));
#150 = CARTESIAN_POINT('',(4.146747551153,1.2087436407));
#151 = CARTESIAN_POINT('',(4.19362855851,1.218796005763));
#152 = CARTESIAN_POINT('',(4.281047719455,1.234605552467));
#153 = CARTESIAN_POINT('',(4.32024160905,1.240808260403));
#154 = CARTESIAN_POINT('',(4.361129826611,1.246392810132));
#155 = CARTESIAN_POINT('',(4.403631341802,1.251313579112));
#156 = CARTESIAN_POINT('',(4.447604334339,1.255526450141));
#157 = CARTESIAN_POINT('',(4.492837454346,1.258992290395));
#158 = CARTESIAN_POINT('',(4.539054808418,1.261680589926));
#159 = CARTESIAN_POINT('',(4.656275712746,1.266408419623));
#160 = CARTESIAN_POINT('',(4.728118034011,1.267451463622));
#161 = CARTESIAN_POINT('',(4.800411285854,1.266634736547));
#162 = CARTESIAN_POINT('',(4.871908022866,1.263945959371));
#163 = CARTESIAN_POINT('',(4.941328094581,1.259446210162));
#164 = CARTESIAN_POINT('',(5.007781034857,1.253258486739));
#165 = CARTESIAN_POINT('',(5.070727749361,1.245527974312));
#166 = CARTESIAN_POINT('',(5.189089987578,1.227285587941));
#167 = CARTESIAN_POINT('',(5.244505553562,1.216773696845));
#168 = CARTESIAN_POINT('',(5.295895873092,1.205022983082));
#169 = CARTESIAN_POINT('',(5.343281768219,1.192191462226));
#170 = CARTESIAN_POINT('',(5.386880323233,1.178423001757));
#171 = CARTESIAN_POINT('',(5.426966417174,1.163841487201));
#172 = CARTESIAN_POINT('',(5.463838516864,1.148552950541));
#173 = CARTESIAN_POINT('',(5.497787143782,1.132647296211));
#174 = ( GEOMETRIC_REPRESENTATION_CONTEXT(2) 
PARAMETRIC_REPRESENTATION_CONTEXT() REPRESENTATION_CONTEXT('2D SPACE',''
  ) );
#175 = PCURVE('',#176,#181);
#176 = PLANE('',#177);
#177 = AXIS2_PLACEMENT_3D('',#178,#179,#180);
#178 = CARTESIAN_POINT('',(-3.,-3.,7.));
#179 = DIRECTION('',(-0.,1.,0.));
#180 = DIRECTION('',(0.,0.,1.));
#181 = DEFINITIONAL_REPRESENTATION('',(#182),#186);
#182 = CIRCLE('',#183,9.539392014169);
#183 = AXIS2_PLACEMENT_2D('',#184,#185);
#184 = CARTESIAN_POINT('',(-7.,3.));
#185 = DIRECTION('',(1.,0.));
#186 = ( GEOMETRIC_REPRESENTATION_CONTEXT(2) 
PARAMETRIC_REPRESENTATION_CONTEXT() REPRESENTATION_CONTEXT('2D SPACE',''
  ) );
#187 = ORIENTED_EDGE('',*,*,#188,.F.);
#188 = EDGE_CURVE('',#189,#133,#191,.T.);
#189 = VERTEX_POINT('',#190);
#190 = CARTESIAN_POINT('',(-3.,3.,9.055385138137));
#191 = SURFACE_CURVE('',#192,(#197,#231),.PCURVE_S1.);
#192 = CIRCLE('',#193,9.539392014169);
#193 = AXIS2_PLACEMENT_3D('',#194,#195,#196);
#194 = CARTESIAN_POINT('',(-3.,0.,0.));
#195 = DIRECTION('',(1.,0.,-0.));
#196 = DIRECTION('',(0.,0.,1.));
#197 = PCURVE('',#33,#198);
#198 = DEFINITIONAL_REPRESENTATION('',(#199),#230);
#199 = B_SPLINE_CURVE_WITH_KNOTS('',8,(#200,#201,#202,#203,#204,#205,
    #206,#207,#208,#209,#210,#211,#212,#213,#214,#215,#216,#217,#218,
    #219,#220,#221,#222,#223,#224,#225,#226,#227,#228,#229),
  .UNSPECIFIED.,.F.,.F.,(9,7,7,7,9),(5.963270753266,6.123228030223,
    6.24319598794,6.423147924517,6.603099861093),.UNSPECIFIED.);
#200 = CARTESIAN_POINT('',(2.356194490192,1.132647296211));
#201 = CARTESIAN_POINT('',(2.386371047453,1.146785655615));
#202 = CARTESIAN_POINT('',(2.418857396974,1.160436416317));
#203 = CARTESIAN_POINT('',(2.453858350449,1.173536431809));
#204 = CARTESIAN_POINT('',(2.491580625636,1.186012504331));
#205 = CARTESIAN_POINT('',(2.532224497526,1.197780370643));
#206 = CARTESIAN_POINT('',(2.575951224358,1.2087436407));
#207 = CARTESIAN_POINT('',(2.622832231715,1.218796005763));
#208 = CARTESIAN_POINT('',(2.71025139266,1.234605552467));
#209 = CARTESIAN_POINT('',(2.749445282255,1.240808260403));
#210 = CARTESIAN_POINT('',(2.790333499816,1.246392810132));
#211 = CARTESIAN_POINT('',(2.832835015007,1.251313579112));
#212 = CARTESIAN_POINT('',(2.876808007542,1.255526450141));
#213 = CARTESIAN_POINT('',(2.922041127551,1.258992290395));
#214 = CARTESIAN_POINT('',(2.968258481623,1.261680589926));
#215 = CARTESIAN_POINT('',(3.085479385951,1.266408419623));
#216 = CARTESIAN_POINT('',(3.157321707214,1.267451463622));
#217 = CARTESIAN_POINT('',(3.22961495904,1.266634736547));
#218 = CARTESIAN_POINT('',(3.301111696088,1.263945959371));
#219 = CARTESIAN_POINT('',(3.370531767769,1.259446210162));
#220 = CARTESIAN_POINT('',(3.436984708061,1.253258486739));
#221 = CARTESIAN_POINT('',(3.499931422566,1.245527974312));
#222 = CARTESIAN_POINT('',(3.618293660783,1.227285587941));
#223 = CARTESIAN_POINT('',(3.673709226756,1.216773696845));
#224 = CARTESIAN_POINT('',(3.725099546344,1.205022983082));
#225 = CARTESIAN_POINT('',(3.77248544135,1.192191462226));
#226 = CARTESIAN_POINT('',(3.816083996486,1.178423001757));
#227 = CARTESIAN_POINT('',(3.856170090367,1.163841487201));
#228 = CARTESIAN_POINT('',(3.893042190069,1.148552950541));
#229 = CARTESIAN_POINT('',(3.926990816987,1.132647296211));
#230 = ( GEOMETRIC_REPRESENTATION_CONTEXT(2) 
PARAMETRIC_REPRESENTATION_CONTEXT() REPRESENTATION_CONTEXT('2D SPACE',''
  ) );
#231 = PCURVE('',#232,#237);
#232 = PLANE('',#233);
#233 = AXIS2_PLACEMENT_3D('',#234,#235,#236);
#234 = CARTESIAN_POINT('',(-3.,-3.,7.));
#235 = DIRECTION('',(1.,0.,-0.));
#236 = DIRECTION('',(0.,0.,1.));
#237 = DEFINITIONAL_REPRESENTATION('',(#238),#242);
#238 = CIRCLE('',#239,9.539392014169);
#239 = AXIS2_PLACEMENT_2D('',#240,#241);
#240 = CARTESIAN_POINT('',(-7.,-3.));
#241 = DIRECTION('',(1.,0.));
#242 = ( GEOMETRIC_REPRESENTATION_CONTEXT(2) 
PARAMETRIC_REPRESENTATION_CONTEXT() REPRESENTATION_CONTEXT('2D SPACE',''
  ) );
#243 = ORIENTED_EDGE('',*,*,#244,.T.);
#244 = EDGE_CURVE('',#189,#22,#245,.T.);
#245 = SURFACE_CURVE('',#246,(#251,#285),.PCURVE_S1.);
#246 = CIRCLE('',#247,9.539392014169);
#247 = AXIS2_PLACEMENT_3D('',#248,#249,#250);
#248 = CARTESIAN_POINT('',(0.,3.,0.));
#249 = DIRECTION('',(-0.,1.,0.));
#250 = DIRECTION('',(0.,0.,1.));
#251 = PCURVE('',#33,#252);
#252 = DEFINITIONAL_REPRESENTATION('',(#253),#284);
#253 = B_SPLINE_CURVE_WITH_KNOTS('',8,(#254,#255,#256,#257,#258,#259,
    #260,#261,#262,#263,#264,#265,#266,#267,#268,#269,#270,#271,#272,
    #273,#274,#275,#276,#277,#278,#279,#280,#281,#282,#283),
  .UNSPECIFIED.,.F.,.F.,(9,7,7,7,9),(5.963270753266,6.123228030223,
    6.24319598794,6.423147924517,6.603099861093),.UNSPECIFIED.);
#254 = CARTESIAN_POINT('',(2.356194490192,1.132647296211));
#255 = CARTESIAN_POINT('',(2.326017932932,1.146785655615));
#256 = CARTESIAN_POINT('',(2.293531583411,1.160436416317));
#257 = CARTESIAN_POINT('',(2.258530629936,1.173536431809));
#258 = CARTESIAN_POINT('',(2.220808354749,1.186012504331));
#259 = CARTESIAN_POINT('',(2.180164482859,1.197780370643));
#260 = CARTESIAN_POINT('',(2.136437756026,1.2087436407));
#261 = CARTESIAN_POINT('',(2.08955674867,1.218796005763));
#262 = CARTESIAN_POINT('',(2.002137587724,1.234605552467));
#263 = CARTESIAN_POINT('',(1.96294369813,1.240808260403));
#264 = CARTESIAN_POINT('',(1.922055480568,1.246392810132));
#265 = CARTESIAN_POINT('',(1.879553965378,1.251313579112));
#266 = CARTESIAN_POINT('',(1.835580972843,1.255526450141));
#267 = CARTESIAN_POINT('',(1.790347852834,1.258992290395));
#268 = CARTESIAN_POINT('',(1.744130498762,1.261680589926));
#269 = CARTESIAN_POINT('',(1.626909594433,1.266408419623));
#270 = CARTESIAN_POINT('',(1.555067273172,1.267451463622));
#271 = CARTESIAN_POINT('',(1.482774021326,1.266634736547));
#272 = CARTESIAN_POINT('',(1.411277284307,1.263945959371));
#273 = CARTESIAN_POINT('',(1.341857212599,1.259446210162));
#274 = CARTESIAN_POINT('',(1.275404272325,1.253258486739));
#275 = CARTESIAN_POINT('',(1.212457557819,1.245527974312));
#276 = CARTESIAN_POINT('',(1.094095319602,1.227285587941));
#277 = CARTESIAN_POINT('',(1.038679753625,1.216773696845));
#278 = CARTESIAN_POINT('',(0.98728943404,1.205022983082));
#279 = CARTESIAN_POINT('',(0.939903539023,1.192191462226));
#280 = CARTESIAN_POINT('',(0.896304983899,1.178423001757));
#281 = CARTESIAN_POINT('',(0.856218890012,1.163841487201));
#282 = CARTESIAN_POINT('',(0.819346790315,1.148552950541));
#283 = CARTESIAN_POINT('',(0.785398163397,1.132647296211));
#284 = ( GEOMETRIC_REPRESENTATION_CONTEXT(2) 
PARAMETRIC_REPRESENTATION_CONTEXT() REPRESENTATION_CONTEXT('2D SPACE',''
  ) );
#285 = PCURVE('',#286,#291);
#286 = PLANE('',#287);
#287 = AXIS2_PLACEMENT_3D('',#288,#289,#290);
#288 = CARTESIAN_POINT('',(-3.,3.,7.));
#289 = DIRECTION('',(-0.,1.,0.));
#290 = DIRECTION('',(0.,0.,1.));
#291 = DEFINITIONAL_REPRESENTATION('',(#292),#296);
#292 = CIRCLE('',#293,9.539392014169);
#293 = AXIS2_PLACEMENT_2D('',#294,#295);
#294 = CARTESIAN_POINT('',(-7.,3.));
#295 = DIRECTION('',(1.,0.));
#296 = ( GEOMETRIC_REPRESENTATION_CONTEXT(2) 
PARAMETRIC_REPRESENTATION_CONTEXT() REPRESENTATION_CONTEXT('2D SPACE',''
  ) );
#297 = ADVANCED_FACE('',(#298),#58,.F.);
#298 = FACE_BOUND('',#299,.F.);
#299 = EDGE_LOOP('',(#300,#323,#351,#372,#373));
#300 = ORIENTED_EDGE('',*,*,#301,.F.);
#301 = EDGE_CURVE('',#302,#96,#304,.T.);
#302 = VERTEX_POINT('',#303);
#303 = CARTESIAN_POINT('',(3.,-3.,7.));
#304 = SURFACE_CURVE('',#305,(#309,#316),.PCURVE_S1.);
#305 = LINE('',#306,#307);
#306 = CARTESIAN_POINT('',(3.,-3.,7.));
#307 = VECTOR('',#308,1.);
#308 = DIRECTION('',(0.,0.,1.));
#309 = PCURVE('',#58,#310);
#310 = DEFINITIONAL_REPRESENTATION('',(#311),#315);
#311 = LINE('',#312,#313);
#312 = CARTESIAN_POINT('',(0.,0.));
#313 = VECTOR('',#314,1.);
#314 = DIRECTION('',(1.,0.));
#315 = ( GEOMETRIC_REPRESENTATION_CONTEXT(2) 
PARAMETRIC_REPRESENTATION_CONTEXT() REPRESENTATION_CONTEXT('2D SPACE',''
  ) );
#316 = PCURVE('',#176,#317);
#317 = DEFINITIONAL_REPRESENTATION('',(#318),#322);
#318 = LINE('',#319,#320);
#319 = CARTESIAN_POINT('',(0.,6.));
#320 = VECTOR('',#321,1.);
#321 = DIRECTION('',(1.,0.));
#322 = ( GEOMETRIC_REPRESENTATION_CONTEXT(2) 
PARAMETRIC_REPRESENTATION_CONTEXT() REPRESENTATION_CONTEXT('2D SPACE',''
  ) );
#323 = ORIENTED_EDGE('',*,*,#324,.T.);
#324 = EDGE_CURVE('',#302,#325,#327,.T.);
#325 = VERTEX_POINT('',#326);
#326 = CARTESIAN_POINT('',(3.,3.,7.));
#327 = SURFACE_CURVE('',#328,(#332,#339),.PCURVE_S1.);
#328 = LINE('',#329,#330);
#329 = CARTESIAN_POINT('',(3.,-3.,7.));
#330 = VECTOR('',#331,1.);
#331 = DIRECTION('',(-0.,1.,0.));
#332 = PCURVE('',#58,#333);
#333 = DEFINITIONAL_REPRESENTATION('',(#334),#338);
#334 = LINE('',#335,#336);
#335 = CARTESIAN_POINT('',(0.,0.));
#336 = VECTOR('',#337,1.);
#337 = DIRECTION('',(0.,-1.));
#338 = ( GEOMETRIC_REPRESENTATION_CONTEXT(2) 
PARAMETRIC_REPRESENTATION_CONTEXT() REPRESENTATION_CONTEXT('2D SPACE',''
  ) );
#339 = PCURVE('',#340,#345);
#340 = PLANE('',#341);
#341 = AXIS2_PLACEMENT_3D('',#342,#343,#344);
#342 = CARTESIAN_POINT('',(-3.,-3.,7.));
#343 = DIRECTION('',(0.,0.,1.));
#344 = DIRECTION('',(1.,0.,-0.));
#345 = DEFINITIONAL_REPRESENTATION('',(#346),#350);
#346 = LINE('',#347,#348);
#347 = CARTESIAN_POINT('',(6.,0.));
#348 = VECTOR('',#349,1.);
#349 = DIRECTION('',(0.,1.));
#350 = ( GEOMETRIC_REPRESENTATION_CONTEXT(2) 
PARAMETRIC_REPRESENTATION_CONTEXT() REPRESENTATION_CONTEXT('2D SPACE',''
  ) );
#351 = ORIENTED_EDGE('',*,*,#352,.T.);
#352 = EDGE_CURVE('',#325,#22,#353,.T.);
#353 = SURFACE_CURVE('',#354,(#358,#365),.PCURVE_S1.);
#354 = LINE('',#355,#356);
#355 = CARTESIAN_POINT('',(3.,3.,7.));
#356 = VECTOR('',#357,1.);
#357 = DIRECTION('',(0.,0.,1.));
#358 = PCURVE('',#58,#359);
#359 = DEFINITIONAL_REPRESENTATION('',(#360),#364);
#360 = LINE('',#361,#362);
#361 = CARTESIAN_POINT('',(0.,-6.));
#362 = VECTOR('',#363,1.);
#363 = DIRECTION('',(1.,0.));
#364 = ( GEOMETRIC_REPRESENTATION_CONTEXT(2) 
PARAMETRIC_REPRESENTATION_CONTEXT() REPRESENTATION_CONTEXT('2D SPACE',''
  ) );
#365 = PCURVE('',#286,#366);
#366 = DEFINITIONAL_REPRESENTATION('',(#367),#371);
#367 = LINE('',#368,#369);
#368 = CARTESIAN_POINT('',(0.,6.));
#369 = VECTOR('',#370,1.);
#370 = DIRECTION('',(1.,0.));
#371 = ( GEOMETRIC_REPRESENTATION_CONTEXT(2) 
PARAMETRIC_REPRESENTATION_CONTEXT() REPRESENTATION_CONTEXT('2D SPACE',''
  ) );
#372 = ORIENTED_EDGE('',*,*,#21,.T.);
#373 = ORIENTED_EDGE('',*,*,#95,.T.);
#374 = ADVANCED_FACE('',(#375),#286,.F.);
#375 = FACE_BOUND('',#376,.F.);
#376 = EDGE_LOOP('',(#377,#378,#401,#422));
#377 = ORIENTED_EDGE('',*,*,#352,.F.);
#378 = ORIENTED_EDGE('',*,*,#379,.F.);
#379 = EDGE_CURVE('',#380,#325,#382,.T.);
#380 = VERTEX_POINT('',#381);
#381 = CARTESIAN_POINT('',(-3.,3.,7.));
#382 = SURFACE_CURVE('',#383,(#387,#394),.PCURVE_S1.);
#383 = LINE('',#384,#385);
#384 = CARTESIAN_POINT('',(-3.,3.,7.));
#385 = VECTOR('',#386,1.);
#386 = DIRECTION('',(1.,0.,-0.));
#387 = PCURVE('',#286,#388);
#388 = DEFINITIONAL_REPRESENTATION('',(#389),#393);
#389 = LINE('',#390,#391);
#390 = CARTESIAN_POINT('',(0.,0.));
#391 = VECTOR('',#392,1.);
#392 = DIRECTION('',(0.,1.));
#393 = ( GEOMETRIC_REPRESENTATION_CONTEXT(2) 
PARAMETRIC_REPRESENTATION_CONTEXT() REPRESENTATION_CONTEXT('2D SPACE',''
  ) );
#394 = PCURVE('',#340,#395);
#395 = DEFINITIONAL_REPRESENTATION('',(#396),#400);
#396 = LINE('',#397,#398);
#397 = CARTESIAN_POINT('',(0.,6.));
#398 = VECTOR('',#399,1.);
#399 = DIRECTION('',(1.,0.));
#400 = ( GEOMETRIC_REPRESENTATION_CONTEXT(2) 
PARAMETRIC_REPRESENTATION_CONTEXT() REPRESENTATION_CONTEXT('2D SPACE',''
  ) );
#401 = ORIENTED_EDGE('',*,*,#402,.T.);
#402 = EDGE_CURVE('',#380,#189,#403,.T.);
#403 = SURFACE_CURVE('',#404,(#408,#415),.PCURVE_S1.);
#404 = LINE('',#405,#406);
#405 = CARTESIAN_POINT('',(-3.,3.,7.));
#406 = VECTOR('',#407,1.);
#407 = DIRECTION('',(0.,0.,1.));
#408 = PCURVE('',#286,#409);
#409 = DEFINITIONAL_REPRESENTATION('',(#410),#414);
#410 = LINE('',#411,#412);
#411 = CARTESIAN_POINT('',(0.,0.));
#412 = VECTOR('',#413,1.);
#413 = DIRECTION('',(1.,0.));
#414 = ( GEOMETRIC_REPRESENTATION_CONTEXT(2) 
PARAMETRIC_REPRESENTATION_CONTEXT() REPRESENTATION_CONTEXT('2D SPACE',''
  ) );
#415 = PCURVE('',#232,#416);
#416 = DEFINITIONAL_REPRESENTATION('',(#417),#421);
#417 = LINE('',#418,#419);
#418 = CARTESIAN_POINT('',(0.,-6.));
#419 = VECTOR('',#420,1.);
#420 = DIRECTION('',(1.,0.));
#421 = ( GEOMETRIC_REPRESENTATION_CONTEXT(2) 
PARAMETRIC_REPRESENTATION_CONTEXT() REPRESENTATION_CONTEXT('2D SPACE',''
  ) );
#422 = ORIENTED_EDGE('',*,*,#244,.T.);
#423 = ADVANCED_FACE('',(#424),#232,.T.);
#424 = FACE_BOUND('',#425,.T.);
#425 = EDGE_LOOP('',(#426,#449,#470,#471));
#426 = ORIENTED_EDGE('',*,*,#427,.F.);
#427 = EDGE_CURVE('',#428,#133,#430,.T.);
#428 = VERTEX_POINT('',#429);
#429 = CARTESIAN_POINT('',(-3.,-3.,7.));
#430 = SURFACE_CURVE('',#431,(#435,#442),.PCURVE_S1.);
#431 = LINE('',#432,#433);
#432 = CARTESIAN_POINT('',(-3.,-3.,7.));
#433 = VECTOR('',#434,1.);
#434 = DIRECTION('',(0.,0.,1.));
#435 = PCURVE('',#232,#436);
#436 = DEFINITIONAL_REPRESENTATION('',(#437),#441);
#437 = LINE('',#438,#439);
#438 = CARTESIAN_POINT('',(0.,0.));
#439 = VECTOR('',#440,1.);
#440 = DIRECTION('',(1.,0.));
#441 = ( GEOMETRIC_REPRESENTATION_CONTEXT(2) 
PARAMETRIC_REPRESENTATION_CONTEXT() REPRESENTATION_CONTEXT('2D SPACE',''
  ) );
#442 = PCURVE('',#176,#443);
#443 = DEFINITIONAL_REPRESENTATION('',(#444),#448);
#444 = LINE('',#445,#446);
#445 = CARTESIAN_POINT('',(0.,0.));
#446 = VECTOR('',#447,1.);
#447 = DIRECTION('',(1.,0.));
#448 = ( GEOMETRIC_REPRESENTATION_CONTEXT(2) 
PARAMETRIC_REPRESENTATION_CONTEXT() REPRESENTATION_CONTEXT('2D SPACE',''
  ) );
#449 = ORIENTED_EDGE('',*,*,#450,.T.);
#450 = EDGE_CURVE('',#428,#380,#451,.T.);
#451 = SURFACE_CURVE('',#452,(#456,#463),.PCURVE_S1.);
#452 = LINE('',#453,#454);
#453 = CARTESIAN_POINT('',(-3.,-3.,7.));
#454 = VECTOR('',#455,1.);
#455 = DIRECTION('',(-0.,1.,0.));
#456 = PCURVE('',#232,#457);
#457 = DEFINITIONAL_REPRESENTATION('',(#458),#462);
#458 = LINE('',#459,#460);
#459 = CARTESIAN_POINT('',(0.,0.));
#460 = VECTOR('',#461,1.);
#461 = DIRECTION('',(0.,-1.));
#462 = ( GEOMETRIC_REPRESENTATION_CONTEXT(2) 
PARAMETRIC_REPRESENTATION_CONTEXT() REPRESENTATION_CONTEXT('2D SPACE',''
  ) );
#463 = PCURVE('',#340,#464);
#464 = DEFINITIONAL_REPRESENTATION('',(#465),#469);
#465 = LINE('',#466,#467);
#466 = CARTESIAN_POINT('',(0.,0.));
#467 = VECTOR('',#468,1.);
#468 = DIRECTION('',(0.,1.));
#469 = ( GEOMETRIC_REPRESENTATION_CONTEXT(2) 
PARAMETRIC_REPRESENTATION_CONTEXT() REPRESENTATION_CONTEXT('2D SPACE',''
  ) );
#470 = ORIENTED_EDGE('',*,*,#402,.T.);
#471 = ORIENTED_EDGE('',*,*,#188,.T.);
#472 = ADVANCED_FACE('',(#473),#176,.T.);
#473 = FACE_BOUND('',#474,.T.);
#474 = EDGE_LOOP('',(#475,#476,#497,#498));
#475 = ORIENTED_EDGE('',*,*,#301,.F.);
#476 = ORIENTED_EDGE('',*,*,#477,.F.);
#477 = EDGE_CURVE('',#428,#302,#478,.T.);
#478 = SURFACE_CURVE('',#479,(#483,#490),.PCURVE_S1.);
#479 = LINE('',#480,#481);
#480 = CARTESIAN_POINT('',(-3.,-3.,7.));
#481 = VECTOR('',#482,1.);
#482 = DIRECTION('',(1.,0.,-0.));
#483 = PCURVE('',#176,#484);
#484 = DEFINITIONAL_REPRESENTATION('',(#485),#489);
#485 = LINE('',#486,#487);
#486 = CARTESIAN_POINT('',(0.,0.));
#487 = VECTOR('',#488,1.);
#488 = DIRECTION('',(0.,1.));
#489 = ( GEOMETRIC_REPRESENTATION_CONTEXT(2) 
PARAMETRIC_REPRESENTATION_CONTEXT() REPRESENTATION_CONTEXT('2D SPACE',''
  ) );
#490 = PCURVE('',#340,#491);
#491 = DEFINITIONAL_REPRESENTATION('',(#492),#496);
#492 = LINE('',#493,#494);
#493 = CARTESIAN_POINT('',(0.,0.));
#494 = VECTOR('',#495,1.);
#495 = DIRECTION('',(1.,0.));
#496 = ( GEOMETRIC_REPRESENTATION_CONTEXT(2) 
PARAMETRIC_REPRESENTATION_CONTEXT() REPRESENTATION_CONTEXT('2D SPACE',''
  ) );
#497 = ORIENTED_EDGE('',*,*,#427,.T.);
#498 = ORIENTED_EDGE('',*,*,#132,.T.);
#499 = ADVANCED_FACE('',(#500),#340,.T.);
#500 = FACE_BOUND('',#501,.T.);
#501 = EDGE_LOOP('',(#502,#503,#504,#505));
#502 = ORIENTED_EDGE('',*,*,#450,.F.);
#503 = ORIENTED_EDGE('',*,*,#477,.T.);
#504 = ORIENTED_EDGE('',*,*,#324,.T.);
#505 = ORIENTED_EDGE('',*,*,#379,.F.);
#506 = ( GEOMETRIC_REPRESENTATION_CONTEXT(3) 
GLOBAL_UNCERTAINTY_ASSIGNED_CONTEXT((#510)) GLOBAL_UNIT_ASSIGNED_CONTEXT
((#507,#508,#509)) REPRESENTATION_CONTEXT('Context #1',
  '3D Context with UNIT and UNCERTAINTY') );
#507 = ( LENGTH_UNIT() NAMED_UNIT(*) SI_UNIT(.MILLI.,.METRE.) );
#508 = ( NAMED_UNIT(*) PLANE_ANGLE_UNIT() SI_UNIT($,.RADIAN.) );
#509 = ( NAMED_UNIT(*) SI_UNIT($,.STERADIAN.) SOLID_ANGLE_UNIT() );
#510 = UNCERTAINTY_MEASURE_WITH_UNIT(LENGTH_MEASURE(1.E-07),#507,
  'distance_accuracy_value','confusion accuracy');
#511 = PRODUCT_RELATED_PRODUCT_CATEGORY('part',$,(#7));
ENDSEC;
END-ISO-10303-21;
