ply
format ascii 1.0
element vertex 8
property float x
property float y
property float z
property float nx
property float ny
property float nz
element face 12
property list uchar int vertex_index
end_header
-100 -100 -0.25 -0.0049999216160688375 -0.0024999608080344187 -0.9999843753678314
-100 -100 0.25 -0.0024999608080344187 -0.0049999216160688375 0.9999843753678314
-100 100 -0.25 -0.00124999511721611 0.00249999023443222 -0.9999960937728879
-100 100 0.25 -0.00249999023443222 0.00124999511721611 0.9999960937728879
100 -100 -0.25 0.00124999511721611 -0.00249999023443222 -0.9999960937728879
100 -100 0.25 0.00249999023443222 -0.00124999511721611 0.9999960937728879
100 100 -0.25 0.0049999216160688375 0.0024999608080344187 -0.9999843753678314
100 100 0.25 0.0024999608080344187 0.0049999216160688375 0.9999843753678314
3 1 0 4
3 2 4 0
3 1 3 0
3 3 1 5
3 3 2 0
3 3 7 2
3 5 4 6
3 5 1 4
3 6 4 2
3 7 6 2
3 7 3 5
3 7 5 6

