{"asset":{"version":"2.0","generator":"THREE.GLTFExporter r182"},"scenes":[{"name":"AuxScene","nodes":[0]}],"scene":0,"nodes":[{"mesh":0}],"bufferViews":[{"buffer":0,"byteOffset":0,"byteLength":96,"target":34962,"byteStride":12},{"buffer":0,"byteOffset":96,"byteLength":96,"target":34962,"byteStride":12},{"buffer":0,"byteOffset":192,"byteLength":144,"target":34963}],"buffers":[{"byteLength":336,"uri":"data:application/octet-stream;base64,"}],"accessors":[{"bufferView":0,"componentType":5126,"count":8,"max":[100,100,0.25],"min":[-100,-100,-0.25],"type":"VEC3"},{"bufferView":1,"componentType":5126,"count":8,"max":[0.004999921657145023,0.004999921657145023,0.9999960660934448],"min":[-0.004999921657145023,-0.004999921657145023,-0.9999960660934448],"type":"VEC3"},{"bufferView":2,"componentType":5125,"count":36,"max":[7],"min":[0],"type":"SCALAR"}],"materials":[{"pbrMetallicRoughness":{"baseColorFactor":[0.10702310296918527,0.4793201830913402,0.10702310296918527,1],"metallicFactor":0.25,"roughnessFactor":0.4},"name":"topology-high-aspect-ratio-plate-material"}],"meshes":[{"primitives":[{"mode":4,"attributes":{"POSITION":0,"NORMAL":1},"indices":2,"material":0}]}]}