{"asset":{"version":"2.0","generator":"THREE.GLTFExporter r182"},"scenes":[{"name":"AuxScene","nodes":[0]}],"scene":0,"nodes":[{"mesh":0}],"bufferViews":[{"buffer":0,"byteOffset":0,"byteLength":192,"target":34962,"byteStride":12},{"buffer":0,"byteOffset":192,"byteLength":192,"target":34962,"byteStride":12},{"buffer":0,"byteOffset":384,"byteLength":288,"target":34963}],"buffers":[{"byteLength":672,"uri":"data:application/octet-stream;base64,"}],"accessors":[{"bufferView":0,"componentType":5126,"count":16,"max":[65,5,5],"min":[-5,-5,-5],"type":"VEC3"},{"bufferView":1,"componentType":5126,"count":16,"max":[0.8164966106414795,0.8164966106414795,0.6666666865348816],"min":[-0.8164966106414795,-0.8164966106414795,-0.6666666865348816],"type":"VEC3"},{"bufferView":2,"componentType":5125,"count":72,"max":[15],"min":[0],"type":"SCALAR"}],"materials":[{"pbrMetallicRoughness":{"baseColorFactor":[0.10702310296918527,0.4793201830913402,0.10702310296918527,1],"metallicFactor":0.25,"roughnessFactor":0.4},"name":"topology-disconnected-two-components-material"}],"meshes":[{"primitives":[{"mode":4,"attributes":{"POSITION":0,"NORMAL":1},"indices":2,"material":0}]}]}