o 
usemtl boolean-difference-cube-blind-bore-material
v -15 -15 -10
v -15 -15 10
v -4.242640495300293 -4.242640495300293 4
v -5.884711742401123 -1.1705418825149536 4
v -4.9888176918029785 -3.333421468734741 4
v -5.543277263641357 -2.296100616455078 4
v -3.333421468734741 -4.9888176918029785 4
v -2.296100616455078 -5.543277263641357 4
v -1.1705418825149536 -5.884711742401123 4
v -4.242640495300293 -4.242640495300293 10
v -5.884711742401123 -1.1705418825149536 10
v -4.9888176918029785 -3.333421468734741 10
v -5.543277263641357 -2.296100616455078 10
v -3.333421468734741 -4.9888176918029785 10
v -2.296100616455078 -5.543277263641357 10
v -1.1705418825149536 -5.884711742401123 10
v -15 15 -10
v -15 15 10
v -6 0 4
v -5.884711742401123 1.1705418825149536 4
v -5.543277263641357 2.296100616455078 4
v -4.9888176918029785 3.333421468734741 4
v -4.242640495300293 4.242640495300293 4
v -3.333421468734741 4.9888176918029785 4
v -2.296100616455078 5.543277263641357 4
v -1.1705418825149536 5.884711742401123 4
v -6 0 10
v -5.884711742401123 1.1705418825149536 10
v -5.543277263641357 2.296100616455078 10
v -4.9888176918029785 3.333421468734741 10
v -4.242640495300293 4.242640495300293 10
v -3.333421468734741 4.9888176918029785 10
v -2.296100616455078 5.543277263641357 10
v -1.1705418825149536 5.884711742401123 10
v 15 -15 -10
v 0 -6 4
v 1.1705418825149536 -5.884711742401123 4
v 2.296100616455078 -5.543277263641357 4
v 3.333421468734741 -4.9888176918029785 4
v 4.242640495300293 -4.242640495300293 4
v 4.9888176918029785 -3.333421468734741 4
v 5.543277263641357 -2.296100616455078 4
v 5.884711742401123 -1.1705418825149536 4
v 0 -6 10
v 1.1705418825149536 -5.884711742401123 10
v 2.296100616455078 -5.543277263641357 10
v 3.333421468734741 -4.9888176918029785 10
v 4.242640495300293 -4.242640495300293 10
v 4.9888176918029785 -3.333421468734741 10
v 5.543277263641357 -2.296100616455078 10
v 5.884711742401123 -1.1705418825149536 10
v 15 -15 10
v 15 15 -10
v 0 6 4
v 1.1705418825149536 5.884711742401123 4
v 2.296100616455078 5.543277263641357 4
v 3.333421468734741 4.9888176918029785 4
v 5.543277263641357 2.296100616455078 4
v 4.9888176918029785 3.333421468734741 4
v 6 0 4
v 5.884711742401123 1.1705418825149536 4
v 4.242640495300293 4.242640495300293 4
v 0 6 10
v 1.1705418825149536 5.884711742401123 10
v 2.296100616455078 5.543277263641357 10
v 3.333421468734741 4.9888176918029785 10
v 5.543277263641357 2.296100616455078 10
v 4.9888176918029785 3.333421468734741 10
v 6 0 10
v 5.884711742401123 1.1705418825149536 10
v 4.242640495300293 4.242640495300293 10
v 15 15 10
vn -0.7427813588742053 -0.37139067943710263 -0.5570860042544924
vn -0.3960879499948551 -0.7921758999897102 0.4642969732233518
vn 0.49182501589686156 0.4605579390679718 0.7389144324612384
vn 0.9790279331074115 0.16154384715101644 0.12412852872357234
vn 0.6919214266070617 0.4301745380464297 0.5798229093599092
vn 0.8776376003424744 0.3302254286993704 0.347423961041003
vn 0.3281507824521497 0.45784307006598557 0.8262546745214786
vn 0.20341208758393875 0.4488281051571484 0.8701590973182936
vn 0.10373600809563896 0.44471098009426674 0.8896465504951829
vn 0.3481649687721602 0.37180175643549723 0.8605490157052996
vn 0.5959482055584076 0.13901453889752494 0.7908986624510264
vn 0.42236041617577097 0.3027192623188672 0.8543844141069934
vn 0.5028825399200126 0.22790993736228587 0.8337662810974764
vn 0.274364646745592 0.44130637678179 0.8543844113909704
vn 0.19443497206249827 0.5167483129763444 0.8337662878020179
vn 0.09962679434623053 0.6037828915532204 0.7908986798041365
vn -0.26726123552621245 0.5345224710524249 -0.8017837363809595
vn -0.8069378668643811 0.40346893343219054 0.43135147939407037
vn 0.9993796129722055 -0.032810083803276956 0.012801858316161499
vn 0.9726054912682117 -0.22687590691988466 0.0506545280720314
vn 0.8870499727903471 -0.40201735486520085 0.22698985034541053
vn 0.7175354392607146 -0.5142806790688395 0.4697427769976102
vn 0.507482523525098 -0.5419353191570517 0.6699011853749348
vn 0.32391095122398933 -0.5209999674239802 0.7897092690486683
vn 0.18428596875319672 -0.4897753899939399 0.8521494875178767
vn 0.076650470023885 -0.46453612757178914 0.882230634032691
vn 0.7069163214105273 0.023208383115077218 0.7069163214105273
vn 0.8300988075884125 -0.1369698792327504 0.5405323503947397
vn 0.06447480710194 -0.024259699851854305 0.9976244113955238
vn 0.4413063563919402 -0.27436462279509916 0.8543844296138434
vn 0.3718017716483585 -0.34816501282020756 0.8605489913113876
vn 0.3027192623188672 -0.42236041617577097 0.8543844141069934
vn 0.22790993736228587 -0.5028825399200126 0.8337662810974764
vn 0.01607068633109703 -0.06889420769350164 0.9974945218832694
vn 0.26726123552621245 -0.5345224710524249 -0.8017837363809595
vn 0.01475618647299634 0.44946642515289076 0.8931753397967584
vn -0.076650470023885 0.46453612757178914 0.882230634032691
vn -0.18428596875319672 0.4897753899939399 0.8521494875178767
vn -0.32391095122398933 0.5209999674239802 0.7897092690486683
vn -0.507482523525098 0.5419353191570517 0.6699011853749348
vn -0.7175354392607146 0.5142806790688395 0.4697427769976102
vn -0.8870499727903471 0.40201735486520085 0.22698985034541053
vn -0.9726054912682117 0.22687590691988466 0.0506545280720314
vn -0.023208383115077218 0.7069163214105273 0.7069163214105273
vn -0.016070686322847916 0.06889421510871874 0.9974945213712536
vn -0.22790993736228587 0.5028825399200126 0.8337662810974764
vn -0.30271923905802256 0.42236039550025894 0.8543844325694357
vn -0.37180175643549723 0.3481649687721602 0.8605490157052996
vn -0.44130637678179 0.274364646745592 0.8543844113909704
vn -0.06447481452154863 0.024259699840200558 0.9976244109162904
vn -0.8300988058941722 0.1369698938543546 0.5405323492915075
vn 0.8069378668643811 -0.40346893343219054 0.43135147939407037
vn 0.7427813588742053 0.37139067943710263 -0.5570860042544924
vn -0.01475618647299634 -0.44946642515289076 0.8931753397967584
vn -0.10373600809563896 -0.44471098009426674 0.8896465504951829
vn -0.20341208758393875 -0.4488281051571484 0.8701590973182936
vn -0.32815080904527044 -0.457843065588438 0.8262546664409924
vn -0.8776375866481728 -0.33022544597388465 0.34742397921519447
vn -0.6919214266070617 -0.4301745380464297 0.5798229093599092
vn -0.9993796129722055 0.032810083803276956 0.012801858316161499
vn -0.9790279331074115 -0.16154384715101644 0.12412852872357234
vn -0.49182501589686156 -0.4605579390679718 0.7389144324612384
vn 0.023208383115077218 -0.7069163214105273 0.7069163214105273
vn -0.0996267880807349 -0.6037829583400107 0.7908986296074241
vn -0.19443497206249827 -0.5167483129763444 0.8337662878020179
vn -0.27436462279509916 -0.4413063563919402 0.8543844296138434
vn -0.5028825399200126 -0.22790993736228587 0.8337662810974764
vn -0.42236039550025894 -0.30271923905802256 0.8543844325694357
vn -0.7069163214105273 -0.023208383115077218 0.7069163214105273
vn -0.5959482348866353 -0.13901453083764587 0.7908986417686484
vn -0.34816501282020756 -0.3718017716483585 0.8605489913113876
vn 0.3960879619001104 0.7921759238002208 0.4642969224419684
f 1//1 35//35 2//2
f 1//1 17//17 35//35
f 2//2 10//10 12//12
f 2//2 14//14 10//10
f 1//1 2//2 18//18
f 2//2 12//12 13//13
f 2//2 13//13 11//11
f 2//2 11//11 27//27
f 2//2 27//27 28//28
f 2//2 28//28 29//29
f 2//2 15//15 14//14
f 2//2 16//16 15//15
f 2//2 44//44 16//16
f 2//2 45//45 44//44
f 1//1 18//18 17//17
f 2//2 29//29 18//18
f 18//18 29//29 30//30
f 18//18 30//30 31//31
f 18//18 31//31 32//32
f 17//17 18//18 72//72
f 18//18 32//32 33//33
f 18//18 33//33 34//34
f 18//18 34//34 72//72
f 35//35 53//53 52//52
f 2//2 35//35 52//52
f 2//2 52//52 45//45
f 52//52 46//46 45//45
f 52//52 47//47 46//46
f 52//52 48//48 47//47
f 52//52 49//49 48//48
f 52//52 50//50 49//49
f 52//52 72//72 50//50
f 17//17 53//53 35//35
f 17//17 72//72 53//53
f 72//72 34//34 63//63
f 72//72 63//63 64//64
f 72//72 64//64 65//65
f 72//72 65//65 66//66
f 52//52 53//53 72//72
f 72//72 51//51 50//50
f 72//72 69//69 51//51
f 72//72 70//70 69//69
f 72//72 67//67 70//70
f 72//72 68//68 67//67
f 72//72 66//66 71//71
f 72//72 71//71 68//68
f 6//6 21//21 4//4
f 5//5 22//22 6//6
f 5//5 3//3 23//23
f 7//7 24//24 3//3
f 7//7 8//8 25//25
f 9//9 36//36 54//54
f 8//8 9//9 26//26
f 7//7 3//3 10//10
f 3//3 12//12 10//10
f 6//6 4//4 11//11
f 4//4 19//19 27//27
f 5//5 12//12 3//3
f 5//5 6//6 13//13
f 6//6 11//11 13//13
f 4//4 27//27 11//11
f 5//5 13//13 12//12
f 8//8 15//15 9//9
f 7//7 14//14 8//8
f 9//9 16//16 36//36
f 7//7 10//10 14//14
f 8//8 14//14 15//15
f 9//9 15//15 16//16
f 36//36 16//16 44//44
f 4//4 20//20 19//19
f 4//4 21//21 20//20
f 6//6 22//22 21//21
f 5//5 23//23 22//22
f 3//3 24//24 23//23
f 7//7 25//25 24//24
f 8//8 26//26 25//25
f 9//9 54//54 26//26
f 19//19 20//20 28//28
f 20//20 21//21 29//29
f 21//21 22//22 30//30
f 19//19 28//28 27//27
f 20//20 29//29 28//28
f 21//21 30//30 29//29
f 22//22 31//31 30//30
f 22//22 23//23 31//31
f 23//23 32//32 31//31
f 23//23 24//24 32//32
f 24//24 25//25 33//33
f 25//25 26//26 34//34
f 26//26 54//54 63//63
f 24//24 33//33 32//32
f 25//25 34//34 33//33
f 26//26 63//63 34//34
f 36//36 37//37 55//55
f 37//37 38//38 56//56
f 38//38 39//39 57//57
f 39//39 40//40 62//62
f 40//40 41//41 59//59
f 41//41 42//42 58//58
f 42//42 43//43 61//61
f 36//36 44//44 37//37
f 37//37 45//45 38//38
f 38//38 46//46 39//39
f 39//39 47//47 40//40
f 37//37 44//44 45//45
f 38//38 45//45 46//46
f 39//39 46//46 47//47
f 40//40 48//48 41//41
f 40//40 47//47 48//48
f 41//41 49//49 42//42
f 42//42 50//50 43//43
f 43//43 51//51 60//60
f 41//41 48//48 49//49
f 42//42 49//49 50//50
f 43//43 50//50 51//51
f 60//60 51//51 69//69
f 37//37 56//56 55//55
f 36//36 55//55 54//54
f 38//38 57//57 56//56
f 39//39 62//62 57//57
f 40//40 59//59 62//62
f 41//41 58//58 59//59
f 42//42 61//61 58//58
f 43//43 60//60 61//61
f 54//54 55//55 64//64
f 56//56 57//57 66//66
f 55//55 56//56 65//65
f 54//54 64//64 63//63
f 55//55 65//65 64//64
f 56//56 66//66 65//65
f 57//57 71//71 66//66
f 58//58 67//67 59//59
f 62//62 59//59 68//68
f 60//60 69//69 61//61
f 61//61 70//70 58//58
f 59//59 67//67 68//68
f 61//61 69//69 70//70
f 58//58 70//70 67//67
f 62//62 71//71 57//57
f 62//62 68//68 71//71
