ply
format ascii 1.0
element vertex 72
property float x
property float y
property float z
property float nx
property float ny
property float nz
element face 140
property list uchar int vertex_index
end_header
-15 -15 -10 -0.7427813588742053 -0.37139067943710263 -0.5570860042544924
-15 -15 10 -0.3960879499948551 -0.7921758999897102 0.4642969732233518
-4.242640495300293 -4.242640495300293 4 0.49182501589686156 0.4605579390679718 0.7389144324612384
-5.884711742401123 -1.1705418825149536 4 0.9790279331074115 0.16154384715101644 0.12412852872357234
-4.9888176918029785 -3.333421468734741 4 0.6919214266070617 0.4301745380464297 0.5798229093599092
-5.543277263641357 -2.296100616455078 4 0.8776376003424744 0.3302254286993704 0.347423961041003
-3.333421468734741 -4.9888176918029785 4 0.3281507824521497 0.45784307006598557 0.8262546745214786
-2.296100616455078 -5.543277263641357 4 0.20341208758393875 0.4488281051571484 0.8701590973182936
-1.1705418825149536 -5.884711742401123 4 0.10373600809563896 0.44471098009426674 0.8896465504951829
-4.242640495300293 -4.242640495300293 10 0.3481649687721602 0.37180175643549723 0.8605490157052996
-5.884711742401123 -1.1705418825149536 10 0.5959482055584076 0.13901453889752494 0.7908986624510264
-4.9888176918029785 -3.333421468734741 10 0.42236041617577097 0.3027192623188672 0.8543844141069934
-5.543277263641357 -2.296100616455078 10 0.5028825399200126 0.22790993736228587 0.8337662810974764
-3.333421468734741 -4.9888176918029785 10 0.274364646745592 0.44130637678179 0.8543844113909704
-2.296100616455078 -5.543277263641357 10 0.19443497206249827 0.5167483129763444 0.8337662878020179
-1.1705418825149536 -5.884711742401123 10 0.09962679434623053 0.6037828915532204 0.7908986798041365
-15 15 -10 -0.26726123552621245 0.5345224710524249 -0.8017837363809595
-15 15 10 -0.8069378668643811 0.40346893343219054 0.43135147939407037
-6 0 4 0.9993796129722055 -0.032810083803276956 0.012801858316161499
-5.884711742401123 1.1705418825149536 4 0.9726054912682117 -0.22687590691988466 0.0506545280720314
-5.543277263641357 2.296100616455078 4 0.8870499727903471 -0.40201735486520085 0.22698985034541053
-4.9888176918029785 3.333421468734741 4 0.7175354392607146 -0.5142806790688395 0.4697427769976102
-4.242640495300293 4.242640495300293 4 0.507482523525098 -0.5419353191570517 0.6699011853749348
-3.333421468734741 4.9888176918029785 4 0.32391095122398933 -0.5209999674239802 0.7897092690486683
-2.296100616455078 5.543277263641357 4 0.18428596875319672 -0.4897753899939399 0.8521494875178767
-1.1705418825149536 5.884711742401123 4 0.076650470023885 -0.46453612757178914 0.882230634032691
-6 0 10 0.7069163214105273 0.023208383115077218 0.7069163214105273
-5.884711742401123 1.1705418825149536 10 0.8300988075884125 -0.1369698792327504 0.5405323503947397
-5.543277263641357 2.296100616455078 10 0.06447480710194 -0.024259699851854305 0.9976244113955238
-4.9888176918029785 3.333421468734741 10 0.4413063563919402 -0.27436462279509916 0.8543844296138434
-4.242640495300293 4.242640495300293 10 0.3718017716483585 -0.34816501282020756 0.8605489913113876
-3.333421468734741 4.9888176918029785 10 0.3027192623188672 -0.42236041617577097 0.8543844141069934
-2.296100616455078 5.543277263641357 10 0.22790993736228587 -0.5028825399200126 0.8337662810974764
-1.1705418825149536 5.884711742401123 10 0.01607068633109703 -0.06889420769350164 0.9974945218832694
15 -15 -10 0.26726123552621245 -0.5345224710524249 -0.8017837363809595
0 -6 4 0.01475618647299634 0.44946642515289076 0.8931753397967584
1.1705418825149536 -5.884711742401123 4 -0.076650470023885 0.46453612757178914 0.882230634032691
2.296100616455078 -5.543277263641357 4 -0.18428596875319672 0.4897753899939399 0.8521494875178767
3.333421468734741 -4.9888176918029785 4 -0.32391095122398933 0.5209999674239802 0.7897092690486683
4.242640495300293 -4.242640495300293 4 -0.507482523525098 0.5419353191570517 0.6699011853749348
4.9888176918029785 -3.333421468734741 4 -0.7175354392607146 0.5142806790688395 0.4697427769976102
5.543277263641357 -2.296100616455078 4 -0.8870499727903471 0.40201735486520085 0.22698985034541053
5.884711742401123 -1.1705418825149536 4 -0.9726054912682117 0.22687590691988466 0.0506545280720314
0 -6 10 -0.023208383115077218 0.7069163214105273 0.7069163214105273
1.1705418825149536 -5.884711742401123 10 -0.016070686322847916 0.06889421510871874 0.9974945213712536
2.296100616455078 -5.543277263641357 10 -0.22790993736228587 0.5028825399200126 0.8337662810974764
3.333421468734741 -4.9888176918029785 10 -0.30271923905802256 0.42236039550025894 0.8543844325694357
4.242640495300293 -4.242640495300293 10 -0.37180175643549723 0.3481649687721602 0.8605490157052996
4.9888176918029785 -3.333421468734741 10 -0.44130637678179 0.274364646745592 0.8543844113909704
5.543277263641357 -2.296100616455078 10 -0.06447481452154863 0.024259699840200558 0.9976244109162904
5.884711742401123 -1.1705418825149536 10 -0.8300988058941722 0.1369698938543546 0.5405323492915075
15 -15 10 0.8069378668643811 -0.40346893343219054 0.43135147939407037
15 15 -10 0.7427813588742053 0.37139067943710263 -0.5570860042544924
0 6 4 -0.01475618647299634 -0.44946642515289076 0.8931753397967584
1.1705418825149536 5.884711742401123 4 -0.10373600809563896 -0.44471098009426674 0.8896465504951829
2.296100616455078 5.543277263641357 4 -0.20341208758393875 -0.4488281051571484 0.8701590973182936
3.333421468734741 4.9888176918029785 4 -0.32815080904527044 -0.457843065588438 0.8262546664409924
5.543277263641357 2.296100616455078 4 -0.8776375866481728 -0.33022544597388465 0.34742397921519447
4.9888176918029785 3.333421468734741 4 -0.6919214266070617 -0.4301745380464297 0.5798229093599092
6 0 4 -0.9993796129722055 0.032810083803276956 0.012801858316161499
5.884711742401123 1.1705418825149536 4 -0.9790279331074115 -0.16154384715101644 0.12412852872357234
4.242640495300293 4.242640495300293 4 -0.49182501589686156 -0.4605579390679718 0.7389144324612384
0 6 10 0.023208383115077218 -0.7069163214105273 0.7069163214105273
1.1705418825149536 5.884711742401123 10 -0.0996267880807349 -0.6037829583400107 0.7908986296074241
2.296100616455078 5.543277263641357 10 -0.19443497206249827 -0.5167483129763444 0.8337662878020179
3.333421468734741 4.9888176918029785 10 -0.27436462279509916 -0.4413063563919402 0.8543844296138434
5.543277263641357 2.296100616455078 10 -0.5028825399200126 -0.22790993736228587 0.8337662810974764
4.9888176918029785 3.333421468734741 10 -0.42236039550025894 -0.30271923905802256 0.8543844325694357
6 0 10 -0.7069163214105273 -0.023208383115077218 0.7069163214105273
5.884711742401123 1.1705418825149536 10 -0.5959482348866353 -0.13901453083764587 0.7908986417686484
4.242640495300293 4.242640495300293 10 -0.34816501282020756 -0.3718017716483585 0.8605489913113876
15 15 10 0.3960879619001104 0.7921759238002208 0.4642969224419684
3 0 34 1
3 0 16 34
3 1 9 11
3 1 13 9
3 0 1 17
3 1 11 12
3 1 12 10
3 1 10 26
3 1 26 27
3 1 27 28
3 1 14 13
3 1 15 14
3 1 43 15
3 1 44 43
3 0 17 16
3 1 28 17
3 17 28 29
3 17 29 30
3 17 30 31
3 16 17 71
3 17 31 32
3 17 32 33
3 17 33 71
3 34 52 51
3 1 34 51
3 1 51 44
3 51 45 44
3 51 46 45
3 51 47 46
3 51 48 47
3 51 49 48
3 51 71 49
3 16 52 34
3 16 71 52
3 71 33 62
3 71 62 63
3 71 63 64
3 71 64 65
3 51 52 71
3 71 50 49
3 71 68 50
3 71 69 68
3 71 66 69
3 71 67 66
3 71 65 70
3 71 70 67
3 5 20 3
3 4 21 5
3 4 2 22
3 6 23 2
3 6 7 24
3 8 35 53
3 7 8 25
3 6 2 9
3 2 11 9
3 5 3 10
3 3 18 26
3 4 11 2
3 4 5 12
3 5 10 12
3 3 26 10
3 4 12 11
3 7 14 8
3 6 13 7
3 8 15 35
3 6 9 13
3 7 13 14
3 8 14 15
3 35 15 43
3 3 19 18
3 3 20 19
3 5 21 20
3 4 22 21
3 2 23 22
3 6 24 23
3 7 25 24
3 8 53 25
3 18 19 27
3 19 20 28
3 20 21 29
3 18 27 26
3 19 28 27
3 20 29 28
3 21 30 29
3 21 22 30
3 22 31 30
3 22 23 31
3 23 24 32
3 24 25 33
3 25 53 62
3 23 32 31
3 24 33 32
3 25 62 33
3 35 36 54
3 36 37 55
3 37 38 56
3 38 39 61
3 39 40 58
3 40 41 57
3 41 42 60
3 35 43 36
3 36 44 37
3 37 45 38
3 38 46 39
3 36 43 44
3 37 44 45
3 38 45 46
3 39 47 40
3 39 46 47
3 40 48 41
3 41 49 42
3 42 50 59
3 40 47 48
3 41 48 49
3 42 49 50
3 59 50 68
3 36 55 54
3 35 54 53
3 37 56 55
3 38 61 56
3 39 58 61
3 40 57 58
3 41 60 57
3 42 59 60
3 53 54 63
3 55 56 65
3 54 55 64
3 53 63 62
3 54 64 63
3 55 65 64
3 56 70 65
3 57 66 58
3 61 58 67
3 59 68 60
3 60 69 57
3 58 66 67
3 60 68 69
3 57 69 66
3 61 70 56
3 61 67 70

