<?xml version="1.0" encoding="utf-8" standalone="no"?>
<!DOCTYPE svg PUBLIC "-//W3C//DTD SVG 1.1//EN" "http://www.w3.org/Graphics/SVG/1.1/DTD/svg11.dtd">
<svg version="1.1" width="419.52pt" height="595.2pt" viewBox="0 0 419.52 595.2" overflow="visible" xmlns="http://www.w3.org/2000/svg">
  <path d="M229.3581,236.3088 L230.0983,237.2103" stroke="#000000" stroke-width="0.24" fill="none" />
  <path d="M230.0983,238.5659 L230.0983,242.6329" stroke="#000000" stroke-width="0.24" fill="none" />
  <path d="M229.3581,245.7982 L230.0983,244.5307" stroke="#000000" stroke-width="0.24" fill="none" />
  <path d="M216.4917,245.64 L216.8093,245.7881 L216.0682,244.3581" stroke="#000000" stroke-width="0.24" fill="none" />
  <path d="M216.4917,236.1506 L216.0682,237.0377" stroke="#000000" stroke-width="0.24" fill="none" />
  <path d="M216.427,245.8546 L171.8289,253.6181" stroke="#000000" stroke-width="0.24" fill="none" />
  <path d="M170.6671,253.6171 L216.2764,245.6775" stroke="#000000" stroke-width="0.24" fill="none" />
  <path d="M216.0682,237.0377 L216.0682,244.3581" stroke="#000000" stroke-width="0.24" fill="none" />
  <path d="M169.3424,245.1716 L169.3424,252.492" stroke="#000000" stroke-width="0.24" fill="none" />
  <path d="M229.5701,236.3926 L230.4587,236.7439 L231.5594,237.1789 L232.66,237.6139 L233.7607,238.049 L234.8613,238.484 L235.9619,238.919 L237.0626,239.3541 L238.1632,239.7891 L239.2639,240.2241 L240.3645,240.6592 L241.4652,241.0942 L242.5658,241.5293 L243.6665,241.9643 L244.7671,242.3993 L245.8678,242.8344 L246.9684,243.2694 L248.0691,243.7044 L249.1697,244.1395" stroke="#000000" stroke-width="0.24" fill="none" />
  <path d="M229.5606,237.2036 L216.3793,237.0415" stroke="#000000" stroke-width="0.24" fill="none" />
  <path d="M170.6671,244.1276 L216.2764,236.1881" stroke="#000000" stroke-width="0.24" fill="none" />
  <path d="M248.0731,253.5522 L228.8029,245.9356" stroke="#000000" stroke-width="0.24" fill="none" />
  <path d="M216.0682,244.3581 L169.3424,252.492" stroke="#000000" stroke-width="0.24" fill="none" />
  <path d="M250.1776,245.1467 L250.1776,252.4671" stroke="#000000" stroke-width="0.24" fill="none" />
  <path d="M216.0682,237.0377 L169.3424,245.1716" stroke="#000000" stroke-width="0.24" fill="none" />
  <path d="M216.4917,236.1506 L229.3581,236.3088" stroke="#000000" stroke-width="0.24" fill="none" />
  <path d="M250.1776,245.1467 L230.0983,237.2103" stroke="#000000" stroke-width="0.24" fill="none" />
  <path d="M230.669,229.3446 L230.669,236.827" stroke="#000000" stroke-width="0.24" fill="none" />
  <path d="M233.1128,233.498 L230.6691,233.0726" stroke="#000000" stroke-width="0.24" fill="none" />
  <path d="M182.7758,242.0198 L182.7758,232.5981" stroke="#000000" stroke-width="0.24" fill="none" />
  <path d="M181.9971,232.7337 L181.9971,242.1553" stroke="#000000" stroke-width="0.24" fill="none" />
  <path d="M183.5546,241.8842 L183.5546,232.7337" stroke="#000000" stroke-width="0.24" fill="none" />
  <path d="M233.1127,229.6828 L233.1127,237.7929" stroke="#000000" stroke-width="0.24" fill="none" />
  <path d="M216.0674,236.2245 L216.0674,226.8028" stroke="#000000" stroke-width="0.24" fill="none" />
  <path d="M215.2887,226.9384 L215.2887,236.36" stroke="#000000" stroke-width="0.24" fill="none" />
  <path d="M216.8462,236.155 L216.8462,226.9384" stroke="#000000" stroke-width="0.24" fill="none" />
  <path d="M206.1384,237.9529 L206.1384,228.5313" stroke="#000000" stroke-width="0.24" fill="none" />
  <path d="M205.3596,228.6668 L205.3596,238.0885" stroke="#000000" stroke-width="0.24" fill="none" />
  <path d="M206.9171,237.8173 L206.9171,228.6668" stroke="#000000" stroke-width="0.24" fill="none" />
  <path d="M192.7049,240.2914 L192.7049,230.8697" stroke="#000000" stroke-width="0.24" fill="none" />
  <path d="M191.9262,231.0053 L191.9262,240.4269" stroke="#000000" stroke-width="0.24" fill="none" />
  <path d="M193.4837,240.1558 L193.4837,231.0053" stroke="#000000" stroke-width="0.24" fill="none" />
  <path d="M227.2992,226.9093 L227.2992,236.2835" stroke="#000000" stroke-width="0.24" fill="none" />
  <path d="M225.8474,226.8112 L225.8474,236.2657" stroke="#000000" stroke-width="0.24" fill="none" />
  <path d="M216.0682,242.4602 L169.3424,250.5941" stroke="#000000" stroke-width="0.24" fill="none" />
  <path d="M230.0983,238.5659 L250.1776,246.5023" stroke="#000000" stroke-width="0.24" fill="none" />
  <path d="M230.0983,242.6329 L230.0983,244.5307" stroke="#000000" stroke-width="0.24" fill="none" />
  <path d="M215.2887,228.294 L206.9171,229.7513" stroke="#000000" stroke-width="0.24" fill="none" />
  <path d="M205.3596,230.0224 L193.4837,232.0898" stroke="#000000" stroke-width="0.24" fill="none" />
  <path d="M191.9262,232.3609 L183.5547,233.8182" stroke="#000000" stroke-width="0.24" fill="none" />
  <path d="M181.9971,234.0893 L176.7903,234.9957" stroke="#000000" stroke-width="0.24" fill="none" />
  <path d="M174.9883,243.3755 L174.9883,233.9538" stroke="#000000" stroke-width="0.24" fill="none" />
  <path d="M175.7671,243.2398 L175.7671,234.0893" stroke="#000000" stroke-width="0.24" fill="none" />
  <path d="M230.0983,237.2103 L230.0983,238.5659" stroke="#000000" stroke-width="0.24" fill="none" />
  <path d="M230.669,254.8034 L248.0731,253.5522" stroke="#000000" stroke-width="0.24" fill="none" />
  <path d="M230.669,253.9901 L246.3321,252.864" stroke="#000000" stroke-width="0.24" fill="none" />
  <path d="M209.2533,256.4987 L182.7638,258.4031" stroke="#000000" stroke-width="0.24" fill="none" />
  <path d="M170.0439,244.6187 L169.3424,245.1716" stroke="#000000" stroke-width="0.24" fill="none" />
  <path d="M228.7885,245.9354 L216.8093,245.7881 L229.3581,245.7982 L230.4587,246.2333 L231.5594,246.6683 L232.66,247.1033 L233.7607,247.5384 L234.8613,247.9734 L235.9619,248.4084 L237.0626,248.8435 L238.1632,249.2785 L239.2639,249.7135 L240.3645,250.1486 L241.4652,250.5836 L242.5658,251.0187 L243.6665,251.4537 L244.7671,251.8887 L245.8678,252.3238 L246.9684,252.7588 L248.0691,253.1938 L249.1697,253.6289" stroke="#000000" stroke-width="0.24" fill="none" />
  <path d="M173.0673,253.4026 L183.1943,257.4032" stroke="#000000" stroke-width="0.24" fill="none" />
  <path d="M171.638,253.6514 L183.1943,258.2166" stroke="#000000" stroke-width="0.24" fill="none" />
  <path d="M250.1776,252.4671 L230.0983,244.5307" stroke="#000000" stroke-width="0.24" fill="none" />
  <path d="M169.6152,252.7237 L169.3424,252.492" stroke="#000000" stroke-width="0.24" fill="none" />
  <path d="M183.1943,258.2166 L183.1943,257.4032" stroke="#000000" stroke-width="0.24" fill="none" />
  <path d="M229.3641,245.8006 L229.5701,245.882 L228.7885,245.9354" stroke="#000000" stroke-width="0.24" fill="none" />
  <path d="M171.8289,253.6181 L171.638,253.6514" stroke="#000000" stroke-width="0.24" fill="none" />
  <path d="M182.6435,258.3556 L170.7661,253.6635" stroke="#000000" stroke-width="0.24" fill="none" />
  <path d="M183.4627,258.1973 L209.2533,256.3431" stroke="#000000" stroke-width="0.24" fill="none" />
  <path d="M229.5606,244.524 L216.3793,244.3619 L216.0682,244.3581" stroke="#000000" stroke-width="0.24" fill="none" />
  <path d="M216.2764,245.6775 L216.4917,245.64" stroke="#000000" stroke-width="0.24" fill="none" />
  <path d="M170.6542,253.6193 L169.6218,252.7293" stroke="#000000" stroke-width="0.24" fill="none" />
  <path d="M216.3793,237.0415 L216.0682,237.0377" stroke="#000000" stroke-width="0.24" fill="none" />
  <path d="M216.2764,236.1881 L216.4917,236.1506" stroke="#000000" stroke-width="0.24" fill="none" />
  <path d="M170.6542,244.1299 L170.0439,244.6187" stroke="#000000" stroke-width="0.24" fill="none" />
  <path d="M183.1943,257.4032 L209.2534,255.5297" stroke="#000000" stroke-width="0.24" fill="none" />
  <path d="M216.8093,245.7881 L216.427,245.8546" stroke="#000000" stroke-width="0.24" fill="none" />
  <path d="M183.1943,258.2166 L183.4627,258.1973" stroke="#000000" stroke-width="0.24" fill="none" />
  <path d="M249.1698,253.6289 L248.0731,253.5522" stroke="#000000" stroke-width="0.24" fill="none" />
  <path d="M249.1698,253.6289 L230.6691,254.959" stroke="#000000" stroke-width="0.24" fill="none" />
  <path d="M216.4917,245.64 L217.046,245.6468" stroke="#000000" stroke-width="0.24" fill="none" />
  <path d="M249.1698,253.6289 L250.1776,252.4671" stroke="#000000" stroke-width="0.24" fill="none" />
  <path d="M230.0983,244.5307 L229.5606,244.524" stroke="#000000" stroke-width="0.24" fill="none" />
  <path d="M230.0983,237.2103 L229.5606,237.2036" stroke="#000000" stroke-width="0.24" fill="none" />
  <path d="M229.3581,236.3088 L229.5701,236.3926" stroke="#000000" stroke-width="0.24" fill="none" />
  <path d="M249.1698,244.1395 L250.1776,245.1467" stroke="#000000" stroke-width="0.24" fill="none" />
  <path d="M234.5645,229.781 L234.5645,238.3668" stroke="#000000" stroke-width="0.24" fill="none" />
  <path d="M233.1127,229.6828 L234.1206,229.6055 L234.5645,229.781" stroke="#000000" stroke-width="0.24" fill="none" />
  <path d="M241.8298,232.6526 L241.8298,241.2383" stroke="#000000" stroke-width="0.24" fill="none" />
  <path d="M225.8474,228.5053 L219.9612,227.4807 L219.9612,236.1933" stroke="#000000" stroke-width="0.24" fill="none" />
  <path d="M236.9664,234.1689 L236.9664,239.3161" stroke="#000000" stroke-width="0.24" fill="none" />
  <path d="M236.9664,234.1689 L234.5646,233.7508" stroke="#000000" stroke-width="0.24" fill="none" />
  <path d="M230.669,229.3446 L227.2992,228.758" stroke="#000000" stroke-width="0.24" fill="none" />
  <path d="M219.9612,227.4807 L216.8462,228.0229" stroke="#000000" stroke-width="0.24" fill="none" />
  <path d="M176.7903,234.9957 L176.7903,243.0617" stroke="#000000" stroke-width="0.24" fill="none" />
  <path d="M226.8553,226.7339 L225.8474,226.8112" stroke="#000000" stroke-width="0.24" fill="none" />
  <path d="M234.1206,229.6055 L234.1206,238.1913" stroke="#000000" stroke-width="0.24" fill="none" />
  <path d="M183.5546,232.7337 L182.7758,232.5981 L181.9971,232.7337" stroke="#000000" stroke-width="0.24" fill="none" />
  <path d="M216.8462,226.9384 L216.0674,226.8028 L215.2887,226.9384" stroke="#000000" stroke-width="0.24" fill="none" />
  <path d="M206.9171,228.6668 L206.1384,228.5313 L205.3596,228.6668" stroke="#000000" stroke-width="0.24" fill="none" />
  <path d="M226.8553,226.7339 L226.8553,236.2781" stroke="#000000" stroke-width="0.24" fill="none" />
  <path d="M175.7671,234.0893 L174.9883,233.9538 L174.2096,234.0893 L174.2096,243.511" stroke="#000000" stroke-width="0.24" fill="none" />
  <path d="M193.4837,231.0053 L192.7049,230.8697 L191.9262,231.0053" stroke="#000000" stroke-width="0.24" fill="none" />
  <path d="M226.8553,226.7339 L227.2992,226.9093" stroke="#000000" stroke-width="0.24" fill="none" />
  <path d="M230.0983,242.6328 L216.0682,242.4602" stroke="#000000" stroke-width="0.24" fill="none" />
  <path d="M169.3424,246.5273 L216.0682,238.3933 L230.0983,238.5659" stroke="#000000" stroke-width="0.24" fill="none" />
  <path d="M250.1776,250.5692 L230.0983,242.6328" stroke="#000000" stroke-width="0.24" fill="none" />
  <path d="M241.3859,232.4772 L241.3859,241.0629" stroke="#000000" stroke-width="0.24" fill="none" />
  <path d="M241.8298,232.6526 L241.3859,232.4772" stroke="#000000" stroke-width="0.24" fill="none" />
  <path d="M240.378,232.5545 L240.378,240.6645" stroke="#000000" stroke-width="0.24" fill="none" />
  <path d="M241.3859,232.4772 L240.378,232.5545" stroke="#000000" stroke-width="0.24" fill="none" />
  <path d="M182.7638,258.4031 L183.1943,258.2166" stroke="#000000" stroke-width="0.24" fill="none" />
  <path d="M170.6542,253.6193 L171.638,253.6514" stroke="#000000" stroke-width="0.24" fill="none" />
</svg>