<?xml version="1.0" encoding="utf-8" standalone="no"?>
<!DOCTYPE svg PUBLIC "-//W3C//DTD SVG 1.1//EN" "http://www.w3.org/Graphics/SVG/1.1/DTD/svg11.dtd">
<svg version="1.1" width="419.52pt" height="595.2pt" viewBox="0 0 419.52 595.2" overflow="visible" xmlns="http://www.w3.org/2000/svg">
  <path d="M215.5303,300.9894 L218.6842,301.5385" stroke="#000000" stroke-width="0.24" fill="none" />
  <path d="M211.5586,305.7477 L215.5303,305.0563" stroke="#000000" stroke-width="0.24" fill="none" />
  <path d="M210.8578,301.8028 L215.5303,300.9894" stroke="#000000" stroke-width="0.24" fill="none" />
  <path d="M210.8578,301.8028 L210.8578,305.7477" stroke="#000000" stroke-width="0.24" fill="none" />
  <path d="M217.8665,303.4296 C217.9044,303.9565 217.4808,304.4726 217.1072,304.3548 C216.7336,304.3425 216.3101,303.6789 216.3479,303.1652 C216.3101,302.6383 216.7336,302.1222 217.1072,302.24 C217.4808,302.2523 217.9044,302.9158 217.8665,303.4296 z" stroke="#000000" stroke-width="0.24" fill="none" />
  <path d="M211.2082,282.9121 L215.8807,283.7255" stroke="#000000" stroke-width="0.24" fill="none" />
  <path d="M211.2082,278.8452 L215.8807,279.6586" stroke="#000000" stroke-width="0.24" fill="none" />
  <path d="M211.2082,278.8452 L211.2082,282.9121" stroke="#000000" stroke-width="0.24" fill="none" />
  <path d="M208.0543,279.3943 L211.2082,278.8452" stroke="#000000" stroke-width="0.24" fill="none" />
  <path d="M215.8807,283.7255 L214.7126,283.9288" stroke="#000000" stroke-width="0.24" fill="none" />
  <path d="M211.2082,296.7396 L215.8807,297.5529" stroke="#000000" stroke-width="0.24" fill="none" />
  <path d="M211.2082,296.7396 L211.2082,300.8064" stroke="#000000" stroke-width="0.24" fill="none" />
  <path d="M208.0543,301.3555 L211.2082,300.8064" stroke="#000000" stroke-width="0.24" fill="none" />
  <path d="M208.0543,297.2886 L211.2082,296.7396" stroke="#000000" stroke-width="0.24" fill="none" />
  <path d="M210.8578,301.8435 L208.0543,301.3555" stroke="#000000" stroke-width="0.24" fill="none" />
  <path d="M210.3905,298.9153 C210.4284,299.429 210.0048,300.0926 209.6312,300.1049 C209.2576,300.2227 208.8341,299.7066 208.8719,299.1797 C208.8341,298.666 209.2576,298.0024 209.6312,297.9901 C210.0048,297.8723 210.4284,298.3884 210.3905,298.9153 z" stroke="#000000" stroke-width="0.24" fill="none" />
  <path d="M211.2082,314.6339 L215.8807,315.4472" stroke="#000000" stroke-width="0.24" fill="none" />
  <path d="M211.2082,314.6339 L211.2082,318.7007" stroke="#000000" stroke-width="0.24" fill="none" />
  <path d="M208.0543,319.2498 L211.2082,318.7007" stroke="#000000" stroke-width="0.24" fill="none" />
  <path d="M208.0543,315.1829 L211.2082,314.6339" stroke="#000000" stroke-width="0.24" fill="none" />
  <path d="M212.7268,320.0632 L208.0543,319.2498" stroke="#000000" stroke-width="0.24" fill="none" />
  <path d="M210.3905,316.8096 C210.4284,317.3233 210.0048,317.9869 209.6312,317.9992 C209.2576,318.117 208.8341,317.6009 208.8719,317.074 C208.8341,316.5603 209.2576,315.8967 209.6312,315.8844 C210.0048,315.7666 210.4284,316.2827 210.3905,316.8096 z" stroke="#000000" stroke-width="0.24" fill="none" />
  <path d="M211.2082,278.4385 L215.8807,279.2519" stroke="#000000" stroke-width="0.24" fill="none" />
  <path d="M211.2082,274.3716 L215.8807,275.185" stroke="#000000" stroke-width="0.24" fill="none" />
  <path d="M208.0543,278.9876 L211.2082,278.4385" stroke="#000000" stroke-width="0.24" fill="none" />
  <path d="M208.0543,274.9207 L211.2082,274.3716" stroke="#000000" stroke-width="0.24" fill="none" />
  <path d="M210.3905,276.5474 C210.4284,277.0611 210.0048,277.7247 209.6312,277.737 C209.2576,277.8548 208.8341,277.3387 208.8719,276.8118 C208.8341,276.298 209.2576,275.6345 209.6312,275.6222 C210.0048,275.5044 210.4284,276.0205 210.3905,276.5474 z" stroke="#000000" stroke-width="0.24" fill="none" />
  <path d="M218.6842,314.5525 L214.7126,315.2439" stroke="#000000" stroke-width="0.24" fill="none" />
  <path d="M215.5303,314.0035 L218.6842,314.5525" stroke="#000000" stroke-width="0.24" fill="none" />
  <path d="M215.5303,309.9366 L218.6842,310.4856" stroke="#000000" stroke-width="0.24" fill="none" />
  <path d="M210.8578,310.75 L215.5303,309.9366" stroke="#000000" stroke-width="0.24" fill="none" />
  <path d="M210.8578,310.75 L210.8578,314.6949" stroke="#000000" stroke-width="0.24" fill="none" />
  <path d="M218.6842,274.2903 L214.7126,274.9817" stroke="#000000" stroke-width="0.24" fill="none" />
  <path d="M218.6842,270.2234 L218.6842,274.2903" stroke="#000000" stroke-width="0.24" fill="none" />
  <path d="M215.5303,273.7413 L218.6842,274.2903" stroke="#000000" stroke-width="0.24" fill="none" />
  <path d="M215.5303,269.6744 L218.6842,270.2234" stroke="#000000" stroke-width="0.24" fill="none" />
  <path d="M211.5586,274.4326 L215.5303,273.7413" stroke="#000000" stroke-width="0.24" fill="none" />
  <path d="M210.8578,270.4878 L210.8578,274.4326" stroke="#000000" stroke-width="0.24" fill="none" />
  <path d="M217.8665,272.1145 C217.9044,272.6414 217.4808,273.1575 217.1072,273.0397 C216.7336,273.0274 216.3101,272.3639 216.3479,271.8502 C216.3101,271.3232 216.7336,270.8072 217.1072,270.9249 C217.4808,270.9372 217.9044,271.6008 217.8665,272.1145 z" stroke="#000000" stroke-width="0.24" fill="none" />
  <path d="M215.5303,291.6356 L218.6842,292.1846" stroke="#000000" stroke-width="0.24" fill="none" />
  <path d="M215.5303,287.5687 L218.6842,288.1177" stroke="#000000" stroke-width="0.24" fill="none" />
  <path d="M210.8578,288.3821 L215.5303,287.5687" stroke="#000000" stroke-width="0.24" fill="none" />
  <path d="M210.8578,288.3821 L210.8578,292.449" stroke="#000000" stroke-width="0.24" fill="none" />
  <path d="M217.8665,290.0088 C217.9044,290.5357 217.4808,291.0518 217.1072,290.9341 C216.7336,290.9218 216.3101,290.2582 216.3479,289.7445 C216.3101,289.2176 216.7336,288.7015 217.1072,288.8192 C217.4808,288.8315 217.9044,289.4951 217.8665,290.0088 z" stroke="#000000" stroke-width="0.24" fill="none" />
  <path d="M211.2082,305.6867 L215.8807,306.5001" stroke="#000000" stroke-width="0.24" fill="none" />
  <path d="M211.2082,305.6867 L211.2082,309.7536" stroke="#000000" stroke-width="0.24" fill="none" />
  <path d="M208.0543,310.3026 L211.2082,309.7536" stroke="#000000" stroke-width="0.24" fill="none" />
  <path d="M208.0543,306.2357 L211.2082,305.6867" stroke="#000000" stroke-width="0.24" fill="none" />
  <path d="M210.8578,310.7906 L208.0543,310.3026" stroke="#000000" stroke-width="0.24" fill="none" />
  <path d="M210.3905,307.8625 C210.4284,308.3762 210.0048,309.0397 209.6312,309.052 C209.2576,309.1698 208.8341,308.6537 208.8719,308.1268 C208.8341,307.6131 209.2576,306.9496 209.6312,306.9373 C210.0048,306.8195 210.4284,307.3356 210.3905,307.8625 z" stroke="#000000" stroke-width="0.24" fill="none" />
  <path d="M211.2082,283.3188 L215.8807,284.1322" stroke="#000000" stroke-width="0.24" fill="none" />
  <path d="M211.2082,283.3188 L211.2082,287.3857" stroke="#000000" stroke-width="0.24" fill="none" />
  <path d="M208.0543,287.9347 L211.2082,287.3857" stroke="#000000" stroke-width="0.24" fill="none" />
  <path d="M208.0543,283.8678 L211.2082,283.3188" stroke="#000000" stroke-width="0.24" fill="none" />
  <path d="M210.8578,288.4228 L208.0543,287.9347" stroke="#000000" stroke-width="0.24" fill="none" />
  <path d="M210.3905,285.4946 C210.4284,286.0083 210.0048,286.6718 209.6312,286.6841 C209.2576,286.8019 208.8341,286.2858 208.8719,285.7589 C208.8341,285.2452 209.2576,284.5816 209.6312,284.5694 C210.0048,284.4516 210.4284,284.9677 210.3905,285.4946 z" stroke="#000000" stroke-width="0.24" fill="none" />
  <path d="M218.6842,296.6582 L214.7126,297.3496" stroke="#000000" stroke-width="0.24" fill="none" />
  <path d="M215.5303,296.1092 L218.6842,296.6582" stroke="#000000" stroke-width="0.24" fill="none" />
  <path d="M215.5303,292.0423 L218.6842,292.5913" stroke="#000000" stroke-width="0.24" fill="none" />
  <path d="M210.8578,292.8557 L215.5303,292.0423" stroke="#000000" stroke-width="0.24" fill="none" />
  <path d="M210.8578,292.8557 L210.8578,296.8006" stroke="#000000" stroke-width="0.24" fill="none" />
  <path d="M209.2224,283.6645 L208.0543,283.4612" stroke="#000000" stroke-width="0.24" fill="none" />
  <path d="M215.8807,279.6587 L215.8807,283.7255" stroke="#000000" stroke-width="0.24" fill="none" />
  <path d="M211.5586,314.6949 L215.5303,314.0035" stroke="#000000" stroke-width="0.24" fill="none" />
  <path d="M209.2224,279.1909 L208.0543,278.9876" stroke="#000000" stroke-width="0.24" fill="none" />
  <path d="M211.5586,296.8006 L215.5303,296.1092" stroke="#000000" stroke-width="0.24" fill="none" />
  <path d="M215.5303,300.9894 L215.5303,305.0563" stroke="#000000" stroke-width="0.24" fill="none" />
  <path d="M208.0543,283.4612 L211.2082,282.9121" stroke="#000000" stroke-width="0.24" fill="none" />
  <path d="M210.3905,281.021 C210.4284,281.5347 210.0048,282.1983 209.6312,282.2106 C209.2576,282.3283 208.8341,281.8123 208.8719,281.2853 C208.8341,280.7716 209.2576,280.1081 209.6312,280.0958 C210.0048,279.978 210.4284,280.4941 210.3905,281.021 z" stroke="#000000" stroke-width="0.24" fill="none" />
  <path d="M211.2082,318.7007 L215.8807,319.5141" stroke="#000000" stroke-width="0.24" fill="none" />
  <path d="M218.6842,301.5385 L218.6842,305.6054" stroke="#000000" stroke-width="0.24" fill="none" />
  <path d="M208.0543,279.3943 L208.0543,283.4612" stroke="#000000" stroke-width="0.24" fill="none" />
  <path d="M211.2082,300.8064 L213.8949,301.2741" stroke="#000000" stroke-width="0.24" fill="none" />
  <path d="M208.0543,297.2886 L208.0543,301.3555" stroke="#000000" stroke-width="0.24" fill="none" />
  <path d="M215.8807,297.5529 L215.8807,301.0504" stroke="#000000" stroke-width="0.24" fill="none" />
  <path d="M208.0543,315.1829 L208.0543,319.2498" stroke="#000000" stroke-width="0.24" fill="none" />
  <path d="M215.8807,315.4472 L215.8807,319.5141 L212.7268,320.0632" stroke="#000000" stroke-width="0.24" fill="none" />
  <path d="M215.5303,309.9366 L215.5303,314.0035" stroke="#000000" stroke-width="0.24" fill="none" />
  <path d="M217.8665,312.3767 C217.9044,312.9036 217.4808,313.4197 217.1072,313.3019 C216.7336,313.2896 216.3101,312.6261 216.3479,312.1124 C216.3101,311.5855 216.7336,311.0694 217.1072,311.1872 C217.4808,311.1994 217.9044,311.863 217.8665,312.3767 z" stroke="#000000" stroke-width="0.24" fill="none" />
  <path d="M215.5303,287.5687 L215.5303,291.6356" stroke="#000000" stroke-width="0.24" fill="none" />
  <path d="M210.8578,292.449 L215.5303,291.6356 L215.5303,296.1092" stroke="#000000" stroke-width="0.24" fill="none" />
  <path d="M212.0259,292.6523 L210.8578,292.449" stroke="#000000" stroke-width="0.24" fill="none" />
  <path d="M215.5303,269.6744 L215.5303,273.7413" stroke="#000000" stroke-width="0.24" fill="none" />
  <path d="M211.2082,274.3716 L211.2082,278.4385" stroke="#000000" stroke-width="0.24" fill="none" />
  <path d="M208.0543,274.9207 L208.0543,278.9876" stroke="#000000" stroke-width="0.24" fill="none" />
  <path d="M215.8807,275.185 L215.8807,279.2519 L214.7126,279.4553" stroke="#000000" stroke-width="0.24" fill="none" />
  <path d="M218.6842,310.4856 L218.6842,314.5525" stroke="#000000" stroke-width="0.24" fill="none" />
  <path d="M210.8578,270.4878 L215.5303,269.6744" stroke="#000000" stroke-width="0.24" fill="none" />
  <path d="M218.6842,292.1846 L217.5161,292.388" stroke="#000000" stroke-width="0.24" fill="none" />
  <path d="M218.6842,288.1177 L218.6842,292.1846" stroke="#000000" stroke-width="0.24" fill="none" />
  <path d="M211.2082,309.7536 L213.8949,310.2213" stroke="#000000" stroke-width="0.24" fill="none" />
  <path d="M217.8665,294.4824 C217.9044,295.0093 217.4808,295.5254 217.1072,295.4076 C216.7336,295.3953 216.3101,294.7318 216.3479,294.218 C216.3101,293.6912 216.7336,293.175 217.1072,293.2928 C217.4808,293.3051 217.9044,293.9687 217.8665,294.4824 z" stroke="#000000" stroke-width="0.24" fill="none" />
  <path d="M211.2082,287.3857 L213.895,287.8534" stroke="#000000" stroke-width="0.24" fill="none" />
  <path d="M208.0543,306.2357 L208.0543,310.3026" stroke="#000000" stroke-width="0.24" fill="none" />
  <path d="M215.8807,306.5001 L215.8807,309.9976" stroke="#000000" stroke-width="0.24" fill="none" />
  <path d="M208.0543,283.8678 L208.0543,287.9347" stroke="#000000" stroke-width="0.24" fill="none" />
  <path d="M215.8807,284.1322 L215.8807,287.6297" stroke="#000000" stroke-width="0.24" fill="none" />
  <path d="M218.6842,292.5913 L218.6842,296.6582" stroke="#000000" stroke-width="0.24" fill="none" />
  <path d="M218.6842,305.6054 L214.7126,306.2967" stroke="#000000" stroke-width="0.24" fill="none" />
  <path d="M215.5303,305.0563 L218.6842,305.6054" stroke="#000000" stroke-width="0.24" fill="none" />
</svg>