<?xml version="1.0" encoding="utf-8" standalone="no"?>
<!DOCTYPE svg PUBLIC "-//W3C//DTD SVG 1.1//EN" "http://www.w3.org/Graphics/SVG/1.1/DTD/svg11.dtd">
<svg version="1.1" width="419.52pt" height="595.2pt" viewBox="0 0 419.52 595.2" overflow="visible" xmlns="http://www.w3.org/2000/svg">
  <path d="M211.0006,312.3011 L211.0006,311.989" stroke="#000000" stroke-width="0.24" fill="none" />
  <path d="M212.056,312.4849 L211.0006,312.3012 L212.056,312.7464" stroke="#000000" stroke-width="0.24" fill="none" />
  <path d="M203.8199,309.0418 L203.8199,309.2466" stroke="#000000" stroke-width="0.24" fill="none" />
  <path d="M195.1718,310.534 L195.1718,309.3169" stroke="#000000" stroke-width="0.24" fill="none" />
  <path d="M197.1167,310.1907 L195.0172,310.5613" stroke="#000000" stroke-width="0.24" fill="none" />
  <path d="M199.3259,310.5752 L197.1167,310.1907 L197.194,308.8348 L197.0394,310.2041" stroke="#000000" stroke-width="0.24" fill="none" />
  <path d="M201.6554,310.9807 L199.4805,310.6021 L199.4805,309.3898" stroke="#000000" stroke-width="0.24" fill="none" />
  <path d="M197.1941,308.9918 L199.3259,309.3629 L199.4805,307.5218" stroke="#000000" stroke-width="0.24" fill="none" />
  <path d="M199.3259,309.2059 L197.194,308.8348" stroke="#000000" stroke-width="0.24" fill="none" />
  <path d="M197.0394,307.1238 L197.0394,308.8348 L197.194,307.1238" stroke="#000000" stroke-width="0.24" fill="none" />
  <path d="M197.4582,309.5849 L197.4582,309.0378" stroke="#000000" stroke-width="0.24" fill="none" />
  <path d="M197.4582,310.2501 L197.4583,309.7418" stroke="#000000" stroke-width="0.24" fill="none" />
  <path d="M197.0394,308.8348 L195.1718,309.1599 L195.0172,310.5612" stroke="#000000" stroke-width="0.24" fill="none" />
  <path d="M195.1718,309.3169 L197.0395,308.9917" stroke="#000000" stroke-width="0.24" fill="none" />
  <path d="M201.927,311.0913 L200.1994,313.3487" stroke="#000000" stroke-width="0.24" fill="none" />
  <path d="M204.7686,307.3782 L202.0356,310.9494" stroke="#000000" stroke-width="0.24" fill="none" />
  <path d="M203.6391,309.278 L204.7686,307.8022" stroke="#000000" stroke-width="0.24" fill="none" />
  <path d="M197.4582,308.8808 L197.4582,307.8738 L197.3036,308.8539" stroke="#000000" stroke-width="0.24" fill="none" />
  <path d="M197.4582,310.9593 L197.4582,310.4593" stroke="#000000" stroke-width="0.24" fill="none" />
  <path d="M195.1718,309.1599 L195.1718,307.4758 L195.0172,309.198" stroke="#000000" stroke-width="0.24" fill="none" />
  <path d="M199.3259,309.3629 L199.3259,310.5752" stroke="#000000" stroke-width="0.24" fill="none" />
  <path d="M199.3259,307.5218 L199.3259,309.2059" stroke="#000000" stroke-width="0.24" fill="none" />
  <path d="M201.7669,309.6039 L201.7669,307.9198 L201.6123,309.6039" stroke="#000000" stroke-width="0.24" fill="none" />
  <path d="M203.2649,309.3432 L201.7294,309.6105 L203.1264,309.5242" stroke="#000000" stroke-width="0.24" fill="none" />
  <path d="M201.6498,309.6105 L199.4806,309.2328 L201.6233,309.7628" stroke="#000000" stroke-width="0.24" fill="none" />
  <path d="M197.1167,310.3999 L201.6719,311.1928 L201.7237,310.9807" stroke="#000000" stroke-width="0.24" fill="none" />
  <path d="M195.1298,310.7458 L197.1167,310.3999" stroke="#000000" stroke-width="0.24" fill="none" />
  <path d="M197.3468,310.9348 L195.6954,310.6473" stroke="#000000" stroke-width="0.24" fill="none" />
  <path d="M199.5956,311.3262 L197.4582,310.9542" stroke="#000000" stroke-width="0.24" fill="none" />
  <path d="M195.0768,310.7488 L199.5603,311.5293" stroke="#000000" stroke-width="0.24" fill="none" />
  <path d="M206.2084,311.8366 L204.6127,313.9217" stroke="#000000" stroke-width="0.24" fill="none" />
  <path d="M206.6688,311.235 L206.317,311.6947" stroke="#000000" stroke-width="0.24" fill="none" />
  <path d="M204.0557,312.2746 L206.1525,311.9096 L204.0204,312.0715" stroke="#000000" stroke-width="0.24" fill="none" />
  <path d="M199.7962,309.2878 L199.7962,308.2719 L199.5385,309.243" stroke="#000000" stroke-width="0.24" fill="none" />
  <path d="M206.5044,311.8484 L208.3484,311.5273" stroke="#000000" stroke-width="0.24" fill="none" />
  <path d="M207.7475,311.4227 L206.6429,311.615" stroke="#000000" stroke-width="0.24" fill="none" />
  <path d="M204.0521,310.8536 L204.7686,310.7289" stroke="#000000" stroke-width="0.24" fill="none" />
  <path d="M202.223,311.1031 L204.7686,310.6599 L202.3615,310.8697" stroke="#000000" stroke-width="0.24" fill="none" />
  <path d="M204.7686,309.0814 L203.5775,309.2888 L204.7686,309.2383" stroke="#000000" stroke-width="0.24" fill="none" />
  <path d="M201.6124,308.6422 L199.7962,308.326" stroke="#000000" stroke-width="0.24" fill="none" />
  <path d="M197.1167,306.5593 L197.1167,307.0667" stroke="#000000" stroke-width="0.24" fill="none" />
  <path d="M194.8394,306.9557 L197.1167,306.5593" stroke="#000000" stroke-width="0.24" fill="none" />
  <path d="M201.6714,307.8596 L201.6714,307.3522" stroke="#000000" stroke-width="0.24" fill="none" />
  <path d="M197.1167,307.0667 L201.6714,307.8596" stroke="#000000" stroke-width="0.24" fill="none" />
  <path d="M194.8394,307.4632 L197.1167,307.0667" stroke="#000000" stroke-width="0.24" fill="none" />
  <path d="M201.6714,307.8596 L204.7686,307.3205" stroke="#000000" stroke-width="0.24" fill="none" />
  <path d="M200.5737,313.2836 L202.2454,311.0992" stroke="#000000" stroke-width="0.24" fill="none" />
  <path d="M206.5131,311.2079 L206.5131,311.4384" stroke="#000000" stroke-width="0.24" fill="none" />
  <path d="M204.0775,313.8285 L204.0775,312.2708" stroke="#000000" stroke-width="0.24" fill="none" />
  <path d="M199.7962,313.419 L199.7962,310.8663" stroke="#000000" stroke-width="0.24" fill="none" />
  <path d="M204.7686,308.9062 L204.0777,309.0265" stroke="#000000" stroke-width="0.24" fill="none" />
  <path d="M204.899,313.9715 L206.5268,311.8445" stroke="#000000" stroke-width="0.24" fill="none" />
  <path d="M210.2124,311.8519 L210.7827,312.3985 L210.9188,312.529" stroke="#000000" stroke-width="0.24" fill="none" />
  <path d="M197.3036,310.4324 L197.3036,310.9273" stroke="#000000" stroke-width="0.24" fill="none" />
  <path d="M197.4583,309.7418 L199.3259,310.0669" stroke="#000000" stroke-width="0.24" fill="none" />
  <path d="M197.0396,307.8462 L195.1719,307.5211" stroke="#000000" stroke-width="0.24" fill="none" />
  <path d="M206.7115,311.6031 L206.9551,311.2848" stroke="#000000" stroke-width="0.24" fill="none" />
  <path d="M202.4302,310.8577 L203.5006,309.4591" stroke="#000000" stroke-width="0.24" fill="none" />
  <path d="M197.3036,309.0108 L197.3036,309.558 L197.3036,310.2232" stroke="#000000" stroke-width="0.24" fill="none" />
  <path d="M201.7669,310.9732 L201.7669,309.7609 L201.6123,310.9732" stroke="#000000" stroke-width="0.24" fill="none" />
  <path d="M195.1719,309.3438 L197.0394,309.6689 L195.5452,309.2519" stroke="#000000" stroke-width="0.24" fill="none" />
  <path d="M204.0775,312.0616 L204.0775,310.8493 L204.0775,309.3586 L203.8199,310.6158 L203.8199,313.7836" stroke="#000000" stroke-width="0.24" fill="none" />
  <path d="M199.7962,310.6571 L199.7962,309.4447" stroke="#000000" stroke-width="0.24" fill="none" />
  <path d="M199.5385,311.5256 L199.5385,313.4638" stroke="#000000" stroke-width="0.24" fill="none" />
  <path d="M199.5385,309.3998 L199.5385,309.947 L199.5385,310.6122 L199.5385,311.3163" stroke="#000000" stroke-width="0.24" fill="none" />
  <path d="M199.3259,309.91 L197.4582,309.5849" stroke="#000000" stroke-width="0.24" fill="none" />
  <path d="M203.544,308.9785 L201.767,308.6691" stroke="#000000" stroke-width="0.24" fill="none" />
  <path d="M199.326,308.2442 L197.4583,307.9191" stroke="#000000" stroke-width="0.24" fill="none" />
  <path d="M197.1167,306.5593 L201.6714,307.3522" stroke="#000000" stroke-width="0.24" fill="none" />
  <path d="M194.8394,307.4632 L194.8394,306.9557" stroke="#000000" stroke-width="0.24" fill="none" />
  <path d="M201.6714,307.3522 L204.7686,306.813" stroke="#000000" stroke-width="0.24" fill="none" />
</svg>