ply
format ascii 1.0
element vertex 16
property float x
property float y
property float z
property float nx
property float ny
property float nz
element face 32
property list uchar int vertex_index
end_header
-20 -12 -6 -0.4817131259313513 -0.35124916550081475 -0.8028552098855855
-5 -12 -3 0.2794478542045682 -0.2328732168041939 0.9314928672167756
-20 -12 6 -0.2752807666248927 -0.2867507861499626 0.9176025752845235
-5 -12 3 0.5115654616256284 -0.7460329748048159 -0.4263045612887981
-20 12 -6 -0.14660060670734143 0.15270896532014733 -0.9773373184442969
-5 12 -3 0.5115654616256284 0.7460329748048159 0.4263045612887981
-20 12 6 -0.2812408807180204 0.20507147924884683 0.9374696023934014
-5 12 3 0.2794478542045682 0.2328732168041939 -0.9314928672167756
5 -12 -3 -0.5115654616256284 -0.7460329748048159 0.4263045612887981
20 -12 -6 0.14660060670734143 -0.15270896532014733 -0.9773373184442969
5 -12 3 -0.2794478542045682 -0.2328732168041939 -0.9314928672167756
20 -12 6 0.2812408807180204 -0.20507147924884683 0.9374696023934014
5 12 -3 -0.2794478542045682 0.2328732168041939 0.9314928672167756
20 12 -6 0.4817131259313513 0.35124916550081475 -0.8028552098855855
5 12 3 -0.5115654616256284 0.7460329748048159 -0.4263045612887981
20 12 6 0.2752807666248927 0.2867507861499626 0.9176025752845235
3 0 8 1
3 0 1 3
3 0 4 9
3 0 3 2
3 0 2 6
3 2 3 11
3 2 11 6
3 0 6 4
3 4 6 5
3 4 5 13
3 6 7 5
3 6 14 7
3 0 9 8
3 9 11 8
3 9 13 11
3 11 3 10
3 11 10 8
3 4 13 9
3 13 5 12
3 13 12 14
3 6 11 15
3 6 15 14
3 11 13 15
3 13 14 15
3 1 5 3
3 3 7 10
3 12 5 1
3 7 3 5
3 1 8 12
3 14 8 10
3 8 14 12
3 7 14 10

