{"asset":{"version":"2.0","generator":"THREE.GLTFExporter r182"},"scenes":[{"name":"AuxScene","nodes":[0]}],"scene":0,"nodes":[{"mesh":0}],"bufferViews":[{"buffer":0,"byteOffset":0,"byteLength":792,"target":34962,"byteStride":12},{"buffer":0,"byteOffset":792,"byteLength":792,"target":34962,"byteStride":12},{"buffer":0,"byteOffset":1584,"byteLength":1536,"target":34963}],"buffers":[{"byteLength":3120,"uri":"data:application/octet-stream;base64,"}],"accessors":[{"bufferView":0,"componentType":5126,"count":66,"max":[10,10,10],"min":[-10,-10,-10],"type":"VEC3"},{"bufferView":1,"componentType":5126,"count":66,"max":[1,1,1],"min":[-1,-1,-1],"type":"VEC3"},{"bufferView":2,"componentType":5125,"count":384,"max":[65],"min":[0],"type":"SCALAR"}],"materials":[{"pbrMetallicRoughness":{"baseColorFactor":[0.06847816983662762,0.2788942634659966,0.6938717612856897,1],"metallicFactor":0.25,"roughnessFactor":0.4},"name":"primitives-sphere-16-material"}],"meshes":[{"primitives":[{"mode":4,"attributes":{"POSITION":0,"NORMAL":1},"indices":2,"material":0}]}]}