ply
format ascii 1.0
element vertex 666
property float x
property float y
property float z
property float nx
property float ny
property float nz
element face 1328
property list uchar int vertex_index
end_header
-1.9081332683563232 -6.9160475730896 -5.433903694152832 -0.23356280447539404 -0.7642260428345566 -0.6011713331647003
5.510910704284357e-16 -7.483226299285889 -5.000132083892822 6.974539875626132e-10 -0.8391567518054149 -0.5438896449642935
-1.9081332683563232 -5.433903694152832 -6.9160475730896 -0.23356280447539404 -0.6011713331647003 -0.7642260428345566
5.510910704284357e-16 -5.000132083892822 -7.483226299285889 -2.1271000641767874e-9 -0.5438896449642935 -0.8391567518054149
-3.940967082977295 -5.721397399902344 -5.721397399902344 -0.4464178134842093 -0.6327365707006265 -0.6327365707006265
5.510910704284357e-16 -6.363961219787598 -6.363961219787598 -2.560237343758854e-10 -0.7071067811865476 -0.7071067811865476
-5.433903694152832 -6.9160475730896 -1.9081332683563232 -0.601171307872782 -0.764226070287397 -0.23356277974799702
-5.721397399902344 -5.721397399902344 -3.940967082977295 -0.6327365707006265 -0.6327365707006265 -0.4464178134842093
-6.9160475730896 -5.433903694152832 -1.9081332683563232 -0.7642260428345566 -0.6011713331647003 -0.23356280447539404
-1.8761334419250488 -7.996029376983643 -3.6801681518554688 -0.22410609934565845 -0.8841506687452281 -0.4099439610403355
-3.867896318435669 -7.146940231323242 -3.867896318435669 -0.4361272707539849 -0.7871378579444395 -0.4361272707539849
5.510910704284357e-16 -8.314915657043457 -3.444150924682617 7.867278335643688e-10 -0.9329769421984243 -0.3599361406223028
-3.6801681518554688 -7.996029376983643 -1.8761334419250488 -0.4099439610403355 -0.8841506687452281 -0.22410609934565845
-1.8210124969482422 -8.623678207397461 -1.8210124969482422 -0.2086026066852993 -0.9554945800654818 -0.20860263648762162
5.510910704284357e-16 -8.827067375183105 -1.7558128833770752 -2.0943507325898897e-9 -0.9861362763500041 -0.16593747155645183
-5.721397399902344 -3.940967082977295 -5.721397399902344 -0.6327365707006265 -0.4464178134842093 -0.6327365707006265
-5.433903694152832 -1.9081332683563232 -6.9160475730896 -0.601171307872782 -0.23356277974799702 -0.764226070287397
-6.9160475730896 -1.9081332683563232 -5.433903694152832 -0.7642260428345566 -0.23356280447539404 -0.6011713331647003
-1.8761334419250488 -3.6801681518554688 -7.996029376983643 -0.22410609934565845 -0.4099439610403355 -0.8841506687452281
-3.867896318435669 -3.867896318435669 -7.146940231323242 -0.4361272707539849 -0.4361272707539849 -0.7871378579444395
5.510910704284357e-16 -3.444150924682617 -8.314915657043457 7.867278335643688e-10 -0.3599361406223028 -0.9329769421984243
-3.6801681518554688 -1.8761334419250488 -7.996029376983643 -0.4099439610403355 -0.22410609934565845 -0.8841506687452281
-1.8210124969482422 -1.8210124969482422 -8.623678207397461 -0.2086026066852993 -0.20860263648762162 -0.9554945800654818
5.510910704284357e-16 -1.7558128833770752 -8.827067375183105 -2.0943507325898897e-9 -0.16593747155645183 -0.9861362763500041
-7.146940231323242 -3.867896318435669 -3.867896318435669 -0.7871378579444395 -0.4361272707539849 -0.4361272707539849
-7.996029376983643 -3.6801681518554688 -1.8761334419250488 -0.8841506687452281 -0.4099439610403355 -0.22410609934565845
-7.996029376983643 -1.8761334419250488 -3.6801681518554688 -0.8841506687452281 -0.22410609934565845 -0.4099439610403355
-8.623678207397461 -1.8210124969482422 -1.8210124969482422 -0.9554945800654818 -0.20860263648762162 -0.2086026066852993
1.9081332683563232 -6.9160475730896 -5.433903694152832 0.23356280792455525 -0.7642260649678382 -0.6011713036882006
1.9081332683563232 -5.433903694152832 -6.9160475730896 0.23356280792455525 -0.6011713036882006 -0.7642260649678382
3.940967082977295 -5.721397399902344 -5.721397399902344 0.43677364882173386 -0.6360930669701363 -0.6360930669701363
9.091866493225098 -6.9160475730896 -5.433903694152832 -0.23356280447539404 -0.7642260428345566 -0.6011713331647003
9.091866493225098 -5.433903694152832 -6.9160475730896 -0.23356280447539404 -0.6011713331647003 -0.7642260428345566
7.059032917022705 -5.721397399902344 -5.721397399902344 -0.43677366538161405 -0.6360930314823873 -0.636093091087033
1.8761334419250488 -7.996029376983643 -3.6801681518554688 0.2241060906688208 -0.8841506933016324 -0.40994391282147535
3.867896318435669 -7.146940231323242 -3.867896318435669 0.43372382973799783 -0.787911461263162 -0.437126033001414
1.8210124969482422 -8.623678207397461 -1.8210124969482422 0.20860264879508303 -0.9554945681851628 -0.20860264879508303
3.6801681518554688 -7.996029376983643 -1.8761334419250488 0.40994391282147535 -0.8841506933016324 -0.2241060906688208
5.433903694152832 -6.9160475730896 -1.9081332683563232 0.5198546001621417 -0.8212584773618047 -0.2351291305891937
5.566096305847168 -6.9160475730896 -1.9081332683563232 -0.5198545330396848 -0.8212585250899193 -0.2351291122877418
5.5 -6.84995174407959 -1.9081332683563232 7.90797739282298e-9 -0.9315155754902882 -0.3637014333474606
5.5 -6.876812934875488 -1.7725284099578857 -1.1308879260572502e-8 -0.9938516103492396 -0.11072026285293615
5.5 -5.721397399902344 -4.162364482879639 1.2334727333656813e-8 -0.7624139981147195 -0.6470895575410935
5.5 -5.89167594909668 -3.932239055633545 1.1440267737766213e-8 -0.8890790605720349 -0.457753671806516
5.5 -6.641391754150391 -2.3754913806915283 -5.794826220612962e-9 -0.9010750377845574 -0.43366320604999253
7.13210391998291 -7.146940231323242 -3.867896318435669 -0.43372389849908405 -0.7879114182922928 -0.4371260422296798
9.123866081237793 -7.996029376983643 -3.6801681518554688 -0.22410610208362575 -0.8841506795471457 -0.409943936246414
7.319831848144531 -7.996029376983643 -1.8761334419250488 -0.40994393761539766 -0.8841506824997148 -0.2241060879308537
9.178987503051758 -8.623678207397461 -1.8210124969482422 -0.2086026215864605 -0.955494580065482 -0.2086026215864605
1.8761334419250488 -3.6801681518554688 -7.996029376983643 0.2241061303891694 -0.40994393350844655 -0.884150673642007
3.867896318435669 -3.867896318435669 -7.146940231323242 0.43372382973799783 -0.437126033001414 -0.787911461263162
5.5 -4.162364482879639 -5.721397399902344 1.2334727333656813e-8 -0.6470895575410935 -0.7624139981147195
5.5 -3.932239055633545 -5.89167594909668 1.1440267737766213e-8 -0.457753671806516 -0.8890790605720349
5.5 -2.3754913806915283 -6.641391754150391 -5.794826220612962e-9 -0.43366320604999253 -0.9010750377845574
1.8210124969482422 -1.8210124969482422 -8.623678207397461 0.20860264879508303 -0.20860264879508303 -0.9554945681851628
3.6801681518554688 -1.8761334419250488 -7.996029376983643 0.409943936246414 -0.22410610208362575 -0.8841506795471457
5.433903694152832 -1.9081332683563232 -6.9160475730896 0.5198546001621417 -0.2351291305891937 -0.8212584773618047
5.566096305847168 -1.9081332683563232 -6.9160475730896 -0.5198545330396848 -0.2351291122877418 -0.8212585250899193
5.5 -1.9081332683563232 -6.84995174407959 7.90797739282298e-9 -0.3637014333474606 -0.9315155754902882
5.5 -1.7725284099578857 -6.876812934875488 -1.1308879260572502e-8 -0.11072026285293615 -0.9938516103492396
7.13210391998291 -3.867896318435669 -7.146940231323242 -0.43372389849908405 -0.4371260422296798 -0.7879114182922928
9.123866081237793 -3.6801681518554688 -7.996029376983643 -0.22410610208362575 -0.409943936246414 -0.8841506795471457
7.319831848144531 -1.8761334419250488 -7.996029376983643 -0.40994393761539766 -0.2241060879308537 -0.8841506824997148
9.178987503051758 -1.8210124969482422 -8.623678207397461 -0.2086026215864605 -0.2086026215864605 -0.955494580065482
-5.000132083892822 -7.483226299285889 5.510910704284357e-16 -0.5438897141410101 -0.83915670696933 6.974540553484592e-10
-5.433903694152832 -6.9160475730896 1.9081332683563232 -0.6011713331647003 -0.7642260428345566 0.23356280447539404
-7.483226299285889 -5.000132083892822 5.510910704284357e-16 -0.8391567518054149 -0.5438896449642935 6.076675309860887e-10
-6.9160475730896 -5.433903694152832 1.9081332683563232 -0.7642260649678382 -0.6011713036882006 0.23356280792455525
-6.363961219787598 -6.363961219787598 5.510910704284357e-16 -0.7071067811865476 -0.7071067811865476 -3.0412286543335846e-9
-5.721397399902344 -5.721397399902344 3.940967082977295 -0.6327365707006265 -0.6327365707006265 0.4464178134842093
-3.444150924682617 -8.314915657043457 5.510910704284357e-16 -0.3599361406223028 -0.9329769421984243 -2.1497680976439484e-9
-1.7558128833770752 -8.827067375183105 5.510910704284357e-16 -0.16593748604730613 -0.9861362739116233 -2.09435072741127e-9
-3.6801681518554688 -7.996029376983643 1.8761334419250488 -0.40994393350844655 -0.884150673642007 0.2241061303891694
-1.8210124969482422 -8.623678207397461 1.8210124969482422 -0.20860264879508303 -0.9554945681851628 0.20860264879508303
5.510910704284357e-16 -9 5.510910704284357e-16 3.929780667544236e-10 -1 3.929780667544236e-10
5.510910704284357e-16 -8.827067375183105 1.7558128833770752 2.561135568118049e-9 -0.9861362739116233 0.16593748604730613
-1.8761334419250488 -7.996029376983643 3.6801681518554688 -0.2241060906688208 -0.8841506933016324 0.40994391282147535
-3.867896318435669 -7.146940231323242 3.867896318435669 -0.43612731534951216 -0.7871378250390892 0.4361272855471891
5.510910704284357e-16 -8.314915657043457 3.444150924682617 -6.81520159795365e-10 -0.9329769421984243 0.3599361406223028
-1.9081332683563232 -6.9160475730896 5.433903694152832 -0.23356277974799702 -0.764226070287397 0.601171307872782
5.510910704284357e-16 -7.483226299285889 5.000132083892822 6.974540553484592e-10 -0.83915670696933 0.5438897141410101
-3.940967082977295 -5.721397399902344 5.721397399902344 -0.4464178134842093 -0.6327365707006265 0.6327365707006265
5.510910704284357e-16 -6.363961219787598 6.363961219787598 -2.5602372358529193e-10 -0.7071068109888685 0.7071067513842252
-1.9081332683563232 -5.433903694152832 6.9160475730896 -0.23356280447539404 -0.6011713331647003 0.7642260428345566
5.510910704284357e-16 -5.000132083892822 7.483226299285889 -2.1271000641767874e-9 -0.5438896449642935 0.8391567518054149
-8.314915657043457 -3.444150924682617 5.510910704284357e-16 -0.9329769421984243 -0.3599361406223028 -2.1497680976439484e-9
-7.996029376983643 -3.6801681518554688 1.8761334419250488 -0.8841506795471457 -0.409943936246414 0.22410610208362575
-7.146940231323242 -3.867896318435669 3.867896318435669 -0.7871378579444395 -0.4361272707539849 0.4361272707539849
-8.827067375183105 -1.7558128833770752 5.510910704284357e-16 -0.9861362739116233 -0.16593748604730613 -1.2994932011604114e-9
-8.623678207397461 -1.8210124969482422 1.8210124969482422 -0.9554945681851628 -0.20860264879508303 0.20860264879508303
-7.996029376983643 -1.8761334419250488 3.6801681518554688 -0.8841506933016324 -0.2241060906688208 0.40994391282147535
-5.721397399902344 -3.940967082977295 5.721397399902344 -0.6327365707006265 -0.4464178134842093 0.6327365707006265
-6.9160475730896 -1.9081332683563232 5.433903694152832 -0.764226070287397 -0.23356277974799702 0.601171307872782
-5.433903694152832 -1.9081332683563232 6.9160475730896 -0.6011713310724094 -0.23356281856367364 0.764226040174777
-3.867896318435669 -3.867896318435669 7.146940231323242 -0.4361272707539849 -0.4361272707539849 0.7871378579444395
-1.8761334419250488 -3.6801681518554688 7.996029376983643 -0.22410609934565845 -0.4099439610403355 0.8841506687452281
5.510910704284357e-16 -3.444150924682617 8.314915657043457 7.867278335643688e-10 -0.3599361406223028 0.9329769421984243
-3.6801681518554688 -1.8761334419250488 7.996029376983643 -0.4099439610403355 -0.22410609934565845 0.8841506687452281
-1.8210124969482422 -1.8210124969482422 8.623678207397461 -0.2086026066852993 -0.20860263648762162 0.9554945800654818
5.510910704284357e-16 -1.7558128833770752 8.827067375183105 -2.0943507325898897e-9 -0.16593747155645183 0.9861362763500041
1.7558128833770752 -8.827067375183105 5.510910704284357e-16 0.16593748604730613 -0.9861362739116233 2.561135568118049e-9
3.444150924682617 -8.314915657043457 5.510910704284357e-16 0.3599361406223028 -0.9329769421984243 -2.3047456808178944e-9
1.8210124969482422 -8.623678207397461 1.8210124969482422 0.20860264879508303 -0.9554945681851628 0.20860264879508303
3.6801681518554688 -7.996029376983643 1.8761334419250488 0.40994393761539766 -0.8841506824997148 0.2241060879308537
5.000132083892822 -7.483226299285889 5.510910704284357e-16 0.5220359412798571 -0.85292348778308 8.702969759537093e-10
5.999867916107178 -7.483226299285889 5.510910704284357e-16 -0.520990798255072 -0.853561953075825 -0.0007618365479922428
5.5 -7.072995662689209 5.510910704284357e-16 -0.04066686628422679 -0.9991577080103801 0.005484570180496757
5.433903694152832 -6.9160475730896 1.9081332683563232 0.5198546019835546 -0.8212584802392454 0.23512911651185378
5.566096305847168 -6.9160475730896 1.9081332683563232 -0.5327924565586935 -0.8172768470400837 0.2195239247243282
5.5 -6.876812934875488 1.7725284099578857 0.5420344394961538 -0.835136580529055 0.09351768956901896
5.5 -6.84995174407959 1.9081332683563232 7.307438551277636e-10 -0.9315155754902882 0.3637014333474606
1.8761334419250488 -7.996029376983643 3.6801681518554688 0.2241060906688208 -0.8841506933016324 0.40994391282147535
3.867896318435669 -7.146940231323242 3.867896318435669 0.43372383538827886 -0.7879114715275765 0.43712600889369446
5.5 -6.641391754150391 2.3754913806915283 -5.794826220612962e-9 -0.9010750377845574 0.43366320604999253
5.5 -5.89167594909668 3.932239055633545 1.0483694967601394e-8 -0.8890790484431091 0.45775369536410704
5.5 -5.721397399902344 4.162364482879639 5.1887304672517445e-9 -0.7624139981147195 0.6470895575410935
7.555849075317383 -8.314915657043457 5.510910704284357e-16 -0.3599361146809913 -0.9329769522064049 1.2048700810542334e-10
7.319831848144531 -7.996029376983643 1.8761334419250488 -0.4099439610403355 -0.8841506687452281 0.22410609934565845
9.244187355041504 -8.827067375183105 5.510910704284357e-16 -0.16593748604730613 -0.9861362739116233 3.6134196925446885e-11
9.178987503051758 -8.623678207397461 1.8210124969482422 -0.20860262288331008 -0.9554945860056411 0.2086025930809876
7.13210391998291 -7.146940231323242 3.867896318435669 -0.43372389849908405 -0.7879114182922928 0.4371260422296798
9.123866081237793 -7.996029376983643 3.6801681518554688 -0.22410611897436508 -0.8841506873964938 0.4099439100835081
1.9081332683563232 -6.9160475730896 5.433903694152832 0.23356280447539404 -0.7642260428345566 0.6011713331647003
3.940967082977295 -5.721397399902344 5.721397399902344 0.43677364882173386 -0.6360930669701363 0.6360930669701363
1.9081332683563232 -5.433903694152832 6.9160475730896 0.23356280447539404 -0.6011713331647003 0.7642260428345566
9.091866493225098 -6.9160475730896 5.433903694152832 -0.23356280447539404 -0.7642260428345566 0.6011713331647003
7.059032917022705 -5.721397399902344 5.721397399902344 -0.43677364882173386 -0.6360930669701363 0.6360930669701363
9.091866493225098 -5.433903694152832 6.9160475730896 -0.23356281629371825 -0.6011712656250865 0.7642260923520462
5.5 -4.162364482879639 5.721397399902344 2.5573432916087664e-9 -0.6470895575410935 0.7624139981147195
5.5 -3.932239055633545 5.89167594909668 1.1440267737766213e-8 -0.457753671806516 0.8890790605720349
5.5 -2.3754913806915283 6.641391754150391 -5.388595697876543e-9 -0.43366318185240776 0.9010750494302047
1.8761334419250488 -3.6801681518554688 7.996029376983643 0.22410609934565845 -0.4099439610403355 0.8841506687452281
3.867896318435669 -3.867896318435669 7.146940231323242 0.43372383538827886 -0.43712600889369446 0.7879114715275765
1.8210124969482422 -1.8210124969482422 8.623678207397461 0.20860264879508303 -0.20860264879508303 0.9554945681851628
5.5 -1.9081332683563232 6.84995174407959 7.90797739282298e-9 -0.3637014333474606 0.9315155754902882
5.433903694152832 -1.9081332683563232 6.9160475730896 0.5198546001621417 -0.2351291305891937 0.8212584773618047
5.566096305847168 -1.9081332683563232 6.9160475730896 -0.5198545530227532 -0.2351291660295258 0.8212584970542304
5.5 -1.7725284099578857 6.876812934875488 -1.1308879260572502e-8 -0.11072026285293615 0.9938516103492396
3.6801681518554688 -1.8761334419250488 7.996029376983643 0.409943936246414 -0.22410610208362575 0.8841506795471457
7.13210391998291 -3.867896318435669 7.146940231323242 -0.4337238686527851 -0.43712607198768094 0.7879114182124043
9.123866081237793 -3.6801681518554688 7.996029376983643 -0.22410610208362575 -0.409943936246414 0.8841506795471457
7.319831848144531 -1.8761334419250488 7.996029376983643 -0.4099439610403355 -0.22410609934565845 0.8841506687452281
9.178987503051758 -1.8210124969482422 8.623678207397461 -0.2086026215864605 -0.2086026215864605 0.955494580065482
-5.000132083892822 5.510910704284357e-16 -7.483226299285889 -0.5438897141410101 6.974540553484592e-10 -0.83915670696933
-5.433903694152832 1.9081332683563232 -6.9160475730896 -0.6011713036882006 0.23356280792455525 -0.7642260649678382
-7.483226299285889 5.510910704284357e-16 -5.000132083892822 -0.8391567518054149 6.076675309860887e-10 -0.5438896449642935
-6.9160475730896 1.9081332683563232 -5.433903694152832 -0.7642260649678382 0.23356280792455525 -0.6011713036882006
-6.363961219787598 5.510910704284357e-16 -6.363961219787598 -0.7071067811865476 -3.0412286543335846e-9 -0.7071067811865476
-5.721397399902344 3.940967082977295 -5.721397399902344 -0.6327365707006265 0.4464178134842093 -0.6327365707006265
-3.444150924682617 5.510910704284357e-16 -8.314915657043457 -0.3599361406223028 -2.1497680976439484e-9 -0.9329769421984243
-1.7558128833770752 5.510910704284357e-16 -8.827067375183105 -0.16593748604730613 -2.09435072741127e-9 -0.9861362739116233
-3.6801681518554688 1.8761334419250488 -7.996029376983643 -0.40994393350844655 0.2241061303891694 -0.884150673642007
-1.8210124969482422 1.8210124969482422 -8.623678207397461 -0.20860264879508303 0.20860264879508303 -0.9554945681851628
5.510910704284357e-16 5.510910704284357e-16 -9 3.929780667544236e-10 3.929780667544236e-10 -1
5.510910704284357e-16 1.7558128833770752 -8.827067375183105 2.561135568118049e-9 0.16593748604730613 -0.9861362739116233
-1.8761334419250488 3.6801681518554688 -7.996029376983643 -0.2241060906688208 0.40994391282147535 -0.8841506933016324
-3.867896318435669 3.867896318435669 -7.146940231323242 -0.43612731534951216 0.4361272855471891 -0.7871378250390892
5.510910704284357e-16 3.444150924682617 -8.314915657043457 -6.81520159795365e-10 0.3599361406223028 -0.9329769421984243
-8.314915657043457 5.510910704284357e-16 -3.444150924682617 -0.9329769421984243 -2.1497680976439484e-9 -0.3599361406223028
-7.996029376983643 1.8761334419250488 -3.6801681518554688 -0.8841506795471457 0.22410610208362575 -0.409943936246414
-8.827067375183105 5.510910704284357e-16 -1.7558128833770752 -0.9861362739116233 -2.09435072741127e-9 -0.16593748604730613
-8.623678207397461 1.8210124969482422 -1.8210124969482422 -0.9554945681851628 0.20860264879508303 -0.20860264879508303
-7.146940231323242 3.867896318435669 -3.867896318435669 -0.7871378579444395 0.4361272707539849 -0.4361272707539849
-7.996029376983643 3.6801681518554688 -1.8761334419250488 -0.8841506933016324 0.40994391282147535 -0.2241060906688208
-1.9081332683563232 5.433903694152832 -6.9160475730896 -0.23356277974799702 0.601171307872782 -0.764226070287397
5.510910704284357e-16 5.000132083892822 -7.483226299285889 6.974540553484592e-10 0.5438897141410101 -0.83915670696933
-3.940967082977295 5.721397399902344 -5.721397399902344 -0.4464178134842093 0.6327365707006265 -0.6327365707006265
5.510910704284357e-16 6.363961219787598 -6.363961219787598 -2.5602372358529193e-10 0.7071067513842252 -0.7071068109888685
-1.9081332683563232 6.9160475730896 -5.433903694152832 -0.23356280447539404 0.7642260428345566 -0.6011713331647003
5.510910704284357e-16 7.483226299285889 -5.000132083892822 -2.1271000641767874e-9 0.8391567518054149 -0.5438896449642935
-5.721397399902344 5.721397399902344 -3.940967082977295 -0.6327365707006265 0.6327365707006265 -0.4464178134842093
-6.9160475730896 5.433903694152832 -1.9081332683563232 -0.764226070287397 0.601171307872782 -0.23356277974799702
-5.433903694152832 6.9160475730896 -1.9081332683563232 -0.6011713331647003 0.7642260428345566 -0.23356280447539404
-3.867896318435669 7.146940231323242 -3.867896318435669 -0.4361272707539849 0.7871378579444395 -0.4361272707539849
-1.8761334419250488 7.996029376983643 -3.6801681518554688 -0.22410609934565845 0.8841506687452281 -0.4099439610403355
5.510910704284357e-16 8.314915657043457 -3.444150924682617 7.867278335643688e-10 0.9329769421984243 -0.3599361406223028
-3.6801681518554688 7.996029376983643 -1.8761334419250488 -0.4099439610403355 0.8841506687452281 -0.22410609934565845
-1.8210124969482422 8.623678207397461 -1.8210124969482422 -0.2086026066852993 0.9554945800654818 -0.20860263648762162
5.510910704284357e-16 8.827067375183105 -1.7558128833770752 -2.0943507325898897e-9 0.9861362763500041 -0.16593747155645183
1.7558128833770752 5.510910704284357e-16 -8.827067375183105 0.16593748604730613 2.561135568118049e-9 -0.9861362739116233
3.444150924682617 5.510910704284357e-16 -8.314915657043457 0.3599361406223028 -2.3047456808178944e-9 -0.9329769421984243
1.8210124969482422 1.8210124969482422 -8.623678207397461 0.20860264879508303 0.20860264879508303 -0.9554945681851628
5.000132083892822 5.510910704284357e-16 -7.483226299285889 0.5220359678192257 8.702970757091953e-10 -0.8529234715395305
5.999867916107178 5.510910704284357e-16 -7.483226299285889 -0.5209907982564581 -0.0007618330555345525 -0.853561953078096
5.5 5.510910704284357e-16 -7.072995662689209 -0.04066686628422679 0.005484570180496757 -0.9991577080103801
3.6801681518554688 1.8761334419250488 -7.996029376983643 0.40994393761539766 0.2241060879308537 -0.8841506824997148
5.5 1.7725284099578857 -6.876812934875488 0.5420344394961538 0.09351768956901896 -0.835136580529055
5.433903694152832 1.9081332683563232 -6.9160475730896 0.5198546019835546 0.23512911651185378 -0.8212584802392454
5.566096305847168 1.9081332683563232 -6.9160475730896 -0.5327924565586935 0.2195239247243282 -0.8172768470400837
5.5 1.9081332683563232 -6.84995174407959 7.307438551277636e-10 0.3637014333474606 -0.9315155754902882
1.8761334419250488 3.6801681518554688 -7.996029376983643 0.2241060906688208 0.40994391282147535 -0.8841506933016324
3.867896318435669 3.867896318435669 -7.146940231323242 0.43372383538827886 0.43712600889369446 -0.7879114715275765
5.5 2.3754913806915283 -6.641391754150391 -5.794826220612962e-9 0.43366320604999253 -0.9010750377845574
5.5 3.932239055633545 -5.89167594909668 1.0483694967601394e-8 0.45775369536410704 -0.8890790484431091
5.5 4.162364482879639 -5.721397399902344 5.1887304672517445e-9 0.6470895575410935 -0.7624139981147195
7.555849075317383 5.510910704284357e-16 -8.314915657043457 -0.3599361146809913 1.2048700810542334e-10 -0.9329769522064049
7.319831848144531 1.8761334419250488 -7.996029376983643 -0.4099439610403355 0.22410609934565845 -0.8841506687452281
9.244187355041504 5.510910704284357e-16 -8.827067375183105 -0.16593748604730613 3.6134196925446885e-11 -0.9861362739116233
9.178987503051758 1.8210124969482422 -8.623678207397461 -0.20860262288331008 0.2086025930809876 -0.9554945860056411
7.13210391998291 3.867896318435669 -7.146940231323242 -0.43372389849908405 0.4371260422296798 -0.7879114182922928
9.123866081237793 3.6801681518554688 -7.996029376983643 -0.22410611897436508 0.4099439100835081 -0.8841506873964938
1.9081332683563232 5.433903694152832 -6.9160475730896 0.23356280447539404 0.6011713331647003 -0.7642260428345566
3.940967082977295 5.721397399902344 -5.721397399902344 0.43677364882173386 0.6360930669701363 -0.6360930669701363
1.9081332683563232 6.9160475730896 -5.433903694152832 0.23356280447539404 0.7642260428345566 -0.6011713331647003
9.091866493225098 5.433903694152832 -6.9160475730896 -0.23356280447539404 0.6011713331647003 -0.7642260428345566
7.059032917022705 5.721397399902344 -5.721397399902344 -0.43677364882173386 0.6360930669701363 -0.6360930669701363
9.091866493225098 6.9160475730896 -5.433903694152832 -0.23356281629371825 0.7642260923520462 -0.6011712656250865
5.5 5.721397399902344 -4.162364482879639 2.5573432916087664e-9 0.7624139981147195 -0.6470895575410935
5.5 5.89167594909668 -3.932239055633545 1.1440267737766213e-8 0.8890790605720349 -0.457753671806516
5.5 6.641391754150391 -2.3754913806915283 -5.388595697876543e-9 0.9010750494302047 -0.43366318185240776
1.8761334419250488 7.996029376983643 -3.6801681518554688 0.22410609934565845 0.8841506687452281 -0.4099439610403355
3.867896318435669 7.146940231323242 -3.867896318435669 0.43372383538827886 0.7879114715275765 -0.43712600889369446
1.8210124969482422 8.623678207397461 -1.8210124969482422 0.20860264879508303 0.9554945681851628 -0.20860264879508303
5.5 6.84995174407959 -1.9081332683563232 7.90797739282298e-9 0.9315155754902882 -0.3637014333474606
5.5 6.876812934875488 -1.7725284099578857 -1.1308879260572502e-8 0.9938516103492396 -0.11072026285293615
5.433903694152832 6.9160475730896 -1.9081332683563232 0.5198546001621417 0.8212584773618047 -0.2351291305891937
5.566096305847168 6.9160475730896 -1.9081332683563232 -0.5198545530227532 0.8212584970542304 -0.2351291660295258
3.6801681518554688 7.996029376983643 -1.8761334419250488 0.409943936246414 0.8841506795471457 -0.22410610208362575
7.13210391998291 7.146940231323242 -3.867896318435669 -0.4337238686527851 0.7879114182124043 -0.43712607198768094
9.123866081237793 7.996029376983643 -3.6801681518554688 -0.22410610208362575 0.8841506795471457 -0.409943936246414
7.319831848144531 7.996029376983643 -1.8761334419250488 -0.4099439610403355 0.8841506687452281 -0.22410609934565845
9.178987503051758 8.623678207397461 -1.8210124969482422 -0.2086026215864605 0.955494580065482 -0.2086026215864605
-9 5.510910704284357e-16 5.510910704284357e-16 -1 3.929780667544236e-10 3.929780667544236e-10
-8.827067375183105 5.510910704284357e-16 1.7558128833770752 -0.9861362739116233 -6.949676504535015e-10 0.16593748604730613
-8.827067375183105 1.7558128833770752 5.510910704284357e-16 -0.9861362739116233 0.16593748604730613 2.4086899539142475e-9
-8.623678207397461 1.8210124969482422 1.8210124969482422 -0.9554945681851628 0.20860264879508303 0.20860264879508303
-8.314915657043457 5.510910704284357e-16 3.444150924682617 -0.9329769522064049 -3.6180158522581425e-9 0.3599361146809913
-7.996029376983643 1.8761334419250488 3.6801681518554688 -0.8841506933016324 0.2241060906688208 0.40994391282147535
-8.314915657043457 3.444150924682617 5.510910704284357e-16 -0.9329769421984243 0.3599361406223028 -2.3047456808178944e-9
-7.996029376983643 3.6801681518554688 1.8761334419250488 -0.8841506824997148 0.40994393761539766 0.2241060879308537
-7.146940231323242 3.867896318435669 3.867896318435669 -0.7871378579444395 0.4361272707539849 0.4361272707539849
-7.483226299285889 5.510910704284357e-16 5.000132083892822 -0.83915670696933 6.974540553484592e-10 0.5438897141410101
-6.9160475730896 1.9081332683563232 5.433903694152832 -0.764226070287397 0.23356277974799702 0.601171307872782
-6.363961219787598 5.510910704284357e-16 6.363961219787598 -0.7071067811865476 -1.6680481726019522e-9 0.7071067811865476
-5.000132083892822 5.510910704284357e-16 7.483226299285889 -0.5438897141410101 6.974540553484592e-10 0.83915670696933
-5.433903694152832 1.9081332683563232 6.9160475730896 -0.6011713331647003 0.23356280447539404 0.7642260428345566
-5.721397399902344 3.940967082977295 5.721397399902344 -0.6327366232784363 0.4464177489218863 0.6327365636737915
-3.444150924682617 5.510910704284357e-16 8.314915657043457 -0.3599361406223028 -2.1497680976439484e-9 0.9329769421984243
-1.7558128833770752 5.510910704284357e-16 8.827067375183105 -0.16593748604730613 -2.09435072741127e-9 0.9861362739116233
-3.6801681518554688 1.8761334419250488 7.996029376983643 -0.40994393350844655 0.2241061303891694 0.884150673642007
-1.8210124969482422 1.8210124969482422 8.623678207397461 -0.20860264879508303 0.20860264879508303 0.9554945681851628
5.510910704284357e-16 5.510910704284357e-16 9 3.929780667544236e-10 3.929780667544236e-10 1
5.510910704284357e-16 1.7558128833770752 8.827067375183105 2.561135568118049e-9 0.16593748604730613 0.9861362739116233
-3.867896318435669 3.867896318435669 7.146940231323242 -0.4361272707539849 0.4361272707539849 0.7871378579444395
-1.8761334419250488 3.6801681518554688 7.996029376983643 -0.2241060906688208 0.40994391282147535 0.8841506933016324
5.510910704284357e-16 3.444150924682617 8.314915657043457 -6.81520159795365e-10 0.3599361406223028 0.9329769421984243
-7.483226299285889 5.000132083892822 5.510910704284357e-16 -0.83915670696933 0.5438897141410101 6.974540553484592e-10
-6.9160475730896 5.433903694152832 1.9081332683563232 -0.764226070287397 0.601171307872782 0.23356277974799702
-6.363961219787598 6.363961219787598 5.510910704284357e-16 -0.7071067811865476 0.7071067811865476 -1.6680481726019522e-9
-5.721397399902344 5.721397399902344 3.940967082977295 -0.6327366232784363 0.6327365636737915 0.4464177489218863
-5.000132083892822 7.483226299285889 5.510910704284357e-16 -0.5438896449642935 0.8391567518054149 6.076675309860887e-10
-5.433903694152832 6.9160475730896 1.9081332683563232 -0.6011713331647003 0.7642260428345566 0.23356280447539404
-3.444150924682617 8.314915657043457 5.510910704284357e-16 -0.3599361406223028 0.9329769421984243 -2.1497680976439484e-9
-1.7558128833770752 8.827067375183105 5.510910704284357e-16 -0.16593748604730613 0.9861362739116233 -2.09435072741127e-9
-3.6801681518554688 7.996029376983643 1.8761334419250488 -0.40994393350844655 0.884150673642007 0.2241061303891694
-1.8210124969482422 8.623678207397461 1.8210124969482422 -0.20860264879508303 0.9554945681851628 0.20860264879508303
5.510910704284357e-16 9 5.510910704284357e-16 3.929780667544236e-10 1 3.929780667544236e-10
5.510910704284357e-16 8.827067375183105 1.7558128833770752 2.561135568118049e-9 0.9861362739116233 0.16593748604730613
-3.867896318435669 7.146940231323242 3.867896318435669 -0.4361272707539849 0.7871378579444395 0.4361272707539849
-1.8761334419250488 7.996029376983643 3.6801681518554688 -0.22410611897436508 0.8841506873964938 0.4099439100835081
5.510910704284357e-16 8.314915657043457 3.444150924682617 -6.815200560836841e-10 0.9329769522064049 0.3599361146809913
-3.940967082977295 5.721397399902344 5.721397399902344 -0.4464178134842093 0.6327365707006265 0.6327365707006265
5.510910704284357e-16 6.363961219787598 6.363961219787598 -2.560237343758854e-10 0.7071067811865476 0.7071067811865476
-1.9081332683563232 5.433903694152832 6.9160475730896 -0.2335627961062304 0.6011713712278101 0.764226015450347
5.510910704284357e-16 5.000132083892822 7.483226299285889 6.974540553484592e-10 0.5438897141410101 0.83915670696933
-1.9081332683563232 6.9160475730896 5.433903694152832 -0.2335627961062304 0.764226015450347 0.6011713712278101
5.510910704284357e-16 7.483226299285889 5.000132083892822 6.974540553484592e-10 0.83915670696933 0.5438897141410101
1.7558128833770752 5.510910704284357e-16 8.827067375183105 0.16593748604730613 2.561135568118049e-9 0.9861362739116233
3.444150924682617 5.510910704284357e-16 8.314915657043457 0.3599361406223028 -2.3047456808178944e-9 0.9329769421984243
1.8210124969482422 1.8210124969482422 8.623678207397461 0.20860264879508303 0.20860264879508303 0.9554945681851628
5.5 5.510910704284357e-16 7.072995662689209 -0.04066686628422679 0.005484570180496757 0.9991577080103801
5.000132083892822 5.510910704284357e-16 7.483226299285889 0.5220359678192257 8.702970757091953e-10 0.8529234715395305
5.999867916107178 5.510910704284357e-16 7.483226299285889 -0.5209907982564581 -0.0007618330555345525 0.853561953078096
5.5 1.7725284099578857 6.876812934875488 0.5420344394961538 0.09351768956901896 0.835136580529055
5.5 1.9081332683563232 6.84995174407959 7.307438551277636e-10 0.3637014333474606 0.9315155754902882
5.433903694152832 1.9081332683563232 6.9160475730896 0.5198546019835546 0.23512911651185378 0.8212584802392454
5.566096305847168 1.9081332683563232 6.9160475730896 -0.5327924583015434 0.21952391054126488 0.8172768497135281
3.6801681518554688 1.8761334419250488 7.996029376983643 0.409943936246414 0.22410610208362575 0.8841506795471457
5.5 2.3754913806915283 6.641391754150391 -5.388595697876543e-9 0.43366318185240776 0.9010750494302047
5.5 3.932239055633545 5.89167594909668 1.0483694967601394e-8 0.45775369536410704 0.8890790484431091
5.5 4.162364482879639 5.721397399902344 -4.007092538330846e-9 0.6470895575410935 0.7624139981147195
1.8761334419250488 3.6801681518554688 7.996029376983643 0.22410611897436508 0.4099439100835081 0.8841506873964938
3.867896318435669 3.867896318435669 7.146940231323242 0.43372382973799783 0.437126033001414 0.787911461263162
7.555849075317383 5.510910704284357e-16 8.314915657043457 -0.3599361146809913 1.2048700810542334e-10 0.9329769522064049
7.319831848144531 1.8761334419250488 7.996029376983643 -0.4099440074380935 0.22410610841796721 0.8841506449329494
9.244187355041504 5.510910704284357e-16 8.827067375183105 -0.16593748604730613 3.6134196925446885e-11 0.9861362739116233
9.178987503051758 1.8210124969482422 8.623678207397461 -0.20860262288331008 0.2086025930809876 0.9554945860056411
7.13210391998291 3.867896318435669 7.146940231323242 -0.43372389849908405 0.4371260422296798 0.7879114182922928
9.123866081237793 3.6801681518554688 7.996029376983643 -0.22410611897436508 0.4099439100835081 0.8841506873964938
5.5 6.641391754150391 2.3754913806915283 -5.388595697876543e-9 0.9010750494302047 0.43366318185240776
5.5 5.89167594909668 3.932239055633545 1.0483694967601394e-8 0.8890790484431091 0.45775369536410704
5.5 5.721397399902344 4.162364482879639 -4.007092538330846e-9 0.7624139981147195 0.6470895575410935
1.7558128833770752 8.827067375183105 5.510910704284357e-16 0.16593748604730613 0.9861362739116233 2.561135568118049e-9
3.444150924682617 8.314915657043457 5.510910704284357e-16 0.3599361406223028 0.9329769421984243 -2.3047456808178944e-9
1.8210124969482422 8.623678207397461 1.8210124969482422 0.20860264879508303 0.9554945681851628 0.20860264879508303
5.5 7.072995662689209 5.510910704284357e-16 -0.04066686628422679 0.9991577080103801 0.005484570180496757
5.000132083892822 7.483226299285889 5.510910704284357e-16 0.5220359678192257 0.8529234715395305 7.468031912164198e-10
5.999867916107178 7.483226299285889 5.510910704284357e-16 -0.5209907982564351 0.8535619530780583 -0.0007618331137421808
5.5 6.876812934875488 1.7725284099578857 0.5420344394961538 0.835136580529055 0.09351768956901896
5.5 6.84995174407959 1.9081332683563232 7.307438551277636e-10 0.9315155754902882 0.3637014333474606
5.433903694152832 6.9160475730896 1.9081332683563232 0.5198546019835546 0.8212584802392454 0.23512911651185378
5.566096305847168 6.9160475730896 1.9081332683563232 -0.5327924583015434 0.8172768497135281 0.21952391054126488
3.6801681518554688 7.996029376983643 1.8761334419250488 0.409943936246414 0.8841506795471457 0.22410610208362575
1.8761334419250488 7.996029376983643 3.6801681518554688 0.2241060906688208 0.8841506933016324 0.40994391282147535
3.867896318435669 7.146940231323242 3.867896318435669 0.43372382973799783 0.787911461263162 0.437126033001414
7.555849075317383 8.314915657043457 5.510910704284357e-16 -0.3599361146809913 0.9329769522064049 1.2048700810542334e-10
7.319831848144531 7.996029376983643 1.8761334419250488 -0.4099440074380935 0.8841506449329494 0.22410610841796721
9.244187355041504 8.827067375183105 5.510910704284357e-16 -0.16593748604730613 0.9861362739116233 3.6134196925446885e-11
9.178987503051758 8.623678207397461 1.8210124969482422 -0.20860263648762162 0.9554945800654818 0.2086026066852993
7.13210391998291 7.146940231323242 3.867896318435669 -0.43372389849908405 0.7879114182922928 0.4371260422296798
9.123866081237793 7.996029376983643 3.6801681518554688 -0.22410611897436508 0.8841506873964938 0.4099439100835081
3.940967082977295 5.721397399902344 5.721397399902344 0.43677362470483694 0.6360930752500763 0.6360930752500763
1.9081332683563232 5.433903694152832 6.9160475730896 0.23356280447539404 0.6011713331647003 0.7642260428345566
1.9081332683563232 6.9160475730896 5.433903694152832 0.23356280447539404 0.7642260428345566 0.6011713331647003
7.059032917022705 5.721397399902344 5.721397399902344 -0.4367736729386299 0.6360930586901963 0.6360930586901963
9.091866493225098 5.433903694152832 6.9160475730896 -0.23356280792455525 0.6011713036882006 0.7642260649678382
9.091866493225098 6.9160475730896 5.433903694152832 -0.23356280792455525 0.7642260649678382 0.6011713036882006
11 -7.483226299285889 -5.000132083892822 6.07667344753061e-10 -0.8391567246013382 -0.5438896869369322
12.908133506774902 -6.9160475730896 -5.433903694152832 0.23356277974799702 -0.764226070287397 -0.601171307872782
11 -5.000132083892822 -7.483226299285889 6.07667344753061e-10 -0.5438896869369322 -0.8391567246013382
12.908133506774902 -5.433903694152832 -6.9160475730896 0.23356277974799702 -0.601171307872782 -0.764226070287397
11 -6.363961219787598 -6.363961219787598 -3.041228082066183e-9 -0.7071067513842252 -0.7071068109888685
14.940967559814453 -5.721397399902344 -5.721397399902344 0.43677366538161405 -0.6360930314823873 -0.636093091087033
20.091867446899414 -6.9160475730896 -5.433903694152832 -0.2335627656597177 -0.7642260729471761 -0.6011713099650724
20.091867446899414 -5.433903694152832 -6.9160475730896 -0.2335627656597177 -0.6011713099650724 -0.7642260729471761
18.059032440185547 -5.721397399902344 -5.721397399902344 -0.43677358402806005 -0.6360931190177606 -0.6360930594131177
11 -8.314915657043457 -3.444150924682617 3.7232229876165847e-9 -0.9329769421984243 -0.3599361406223028
12.876133918762207 -7.996029376983643 -3.6801681518554688 0.22410610208362575 -0.8841506795471457 -0.409943936246414
14.86789608001709 -7.146940231323242 -3.867896318435669 0.4337238743030673 -0.7879114284768195 -0.437126047879962
11 -8.827067375183105 -1.7558128833770752 -1.2994933121827157e-9 -0.9861362739116233 -0.16593748604730613
12.821012496948242 -8.623678207397461 -1.8210124969482422 0.20860263648762162 -0.9554945800654818 -0.2086026066852993
14.680168151855469 -7.996029376983643 -1.8761334419250488 0.4099439155594421 -0.88415069920677 -0.2241060623632759
18.132102966308594 -7.146940231323242 -3.867896318435669 -0.43372377569567994 -0.7879114713677967 -0.4371260684096947
20.12386703491211 -7.996029376983643 -3.6801681518554688 -0.2241060737780815 -0.8841506854522837 -0.40994393898438114
18.31983184814453 -7.996029376983643 -1.8761334419250488 -0.40994387053066866 -0.8841507259716095 -0.22410603913819557
16.43390464782715 -6.9160475730896 -1.9081332683563232 0.519854607447793 -0.821258488871567 -0.2351290742798333
16.56609535217285 -6.9160475730896 -1.9081332683563232 -0.5198545929289567 -0.8212585255395713 -0.23512897830603113
16.5 -6.84995174407959 -1.9081332683563232 7.908091882122273e-9 -0.9315155653934533 -0.36370145920756913
16.5 -6.876812934875488 -1.7725284099578857 -1.1308889733905149e-8 -0.9938516537124839 -0.11071987361337139
20.178987503051758 -8.623678207397461 -1.8210124969482422 -0.20860266110254366 -0.9554945563048419 -0.20860269090486522
16.5 -5.721397399902344 -4.162364482879639 1.2334731774549024e-8 -0.7624139981147195 -0.6470895575410935
16.5 -5.89167594909668 -3.932239055633545 1.144027040230155e-8 -0.8890790605720349 -0.457753671806516
16.5 -6.641391754150391 -2.3754913806915283 -5.79483003297655e-9 -0.9010748993452575 -0.4336634937021259
11 -3.444150924682617 -8.314915657043457 -2.1257846162635995e-9 -0.3599361406223028 -0.9329769421984243
12.876133918762207 -3.6801681518554688 -7.996029376983643 0.22410610208362575 -0.409943936246414 -0.8841506795471457
14.86789608001709 -3.867896318435669 -7.146940231323242 0.4337238743030673 -0.437126047879962 -0.7879114284768195
11 -1.7558128833770752 -8.827067375183105 -1.2994933121827157e-9 -0.16593748604730613 -0.9861362739116233
12.821012496948242 -1.8210124969482422 -8.623678207397461 0.20860263648762162 -0.2086026066852993 -0.9554945800654818
14.680168151855469 -1.8761334419250488 -7.996029376983643 0.4099439155594421 -0.2241060623632759 -0.88415069920677
18.132102966308594 -3.867896318435669 -7.146940231323242 -0.43372377569567994 -0.4371260684096947 -0.7879114713677967
20.12386703491211 -3.6801681518554688 -7.996029376983643 -0.22410610208362575 -0.409943936246414 -0.8841506795471457
16.5 -4.162364482879639 -5.721397399902344 1.2334731774549024e-8 -0.6470895575410935 -0.7624139981147195
16.5 -3.932239055633545 -5.89167594909668 1.144027040230155e-8 -0.457753671806516 -0.8890790605720349
16.5 -2.3754913806915283 -6.641391754150391 -2.3623686681890244e-10 -0.4336634937021259 -0.9010748993452575
18.31983184814453 -1.8761334419250488 -7.996029376983643 -0.40994387326863446 -0.2241060108326509 -0.8841507318767459
16.43390464782715 -1.9081332683563232 -6.9160475730896 0.519854607447793 -0.2351290742798333 -0.821258488871567
16.56609535217285 -1.9081332683563232 -6.9160475730896 -0.5198545929289567 -0.23512897830603113 -0.8212585255395713
16.5 -1.9081332683563232 -6.84995174407959 7.908091882122273e-9 -0.36370145920756913 -0.9315155653934533
16.5 -1.7725284099578857 -6.876812934875488 -1.1308889733905149e-8 -0.11071987361337139 -0.9938516537124839
20.178987503051758 -1.8210124969482422 -8.623678207397461 -0.20860266110254366 -0.20860269090486522 -0.9554945563048419
22 -7.483226299285889 -5.000132083892822 6.076676778199596e-10 -0.8391567246013382 -0.5438896869369322
23.908132553100586 -6.9160475730896 -5.433903694152832 0.23356275157143822 -0.7642260756069552 -0.6011713120573628
22 -5.000132083892822 -7.483226299285889 6.076676778199596e-10 -0.5438896869369322 -0.8391567246013382
23.908132553100586 -5.433903694152832 -6.9160475730896 0.23356275157143822 -0.6011713120573628 -0.7642260756069552
22 -6.363961219787598 -6.363961219787598 -2.5602380685201666e-10 -0.7071068109888685 -0.7071067513842252
25.940967559814453 -5.721397399902344 -5.721397399902344 0.4464177082226172 -0.632736607833491 -0.632736607833491
22 -8.314915657043457 -3.444150924682617 7.867279445866691e-10 -0.9329769421984243 -0.3599361406223028
23.87613296508789 -7.996029376983643 -3.6801681518554688 0.2241060879308537 -0.8841506824997148 -0.40994393761539766
25.867897033691406 -7.146940231323242 -3.867896318435669 0.4361271685505202 -0.7871378886371573 -0.4361273175621364
22 -8.827067375183105 -1.7558128833770752 -1.2994930869249006e-9 -0.9861362714732422 -0.16593750053816034
23.821012496948242 -8.623678207397461 -1.8210124969482422 0.20860264879508303 -0.9554945681851628 -0.20860264879508303
25.68016815185547 -7.996029376983643 -1.8761334419250488 0.40994386916168557 -0.884150723019041 -0.2241060532909677
27.43390464782715 -6.9160475730896 -1.9081332683563232 0.6011713668587914 -0.764226069500971 -0.23356263049603943
27.721397399902344 -5.721397399902344 -3.940967082977295 0.6327366218871593 -0.6327365026778701 -0.4464178373472589
28.916048049926758 -5.433903694152832 -1.9081332683563232 0.7642261331037778 -0.6011712507946201 -0.23356272112492363
22 -3.444150924682617 -8.314915657043457 8.107110929001174e-10 -0.3599361406223028 -0.9329769421984243
23.87613296508789 -3.6801681518554688 -7.996029376983643 0.22410608519288652 -0.40994396240931913 -0.8841506716977969
25.867897033691406 -3.867896318435669 -7.146940231323242 0.4361271685505202 -0.4361273175621364 -0.7871378886371573
22 -1.7558128833770752 -8.827067375183105 -1.2994930869249006e-9 -0.16593750053816034 -0.9861362714732422
23.821012496948242 -1.8210124969482422 -8.623678207397461 0.20860264879508303 -0.20860264879508303 -0.9554945681851628
25.68016815185547 -1.8761334419250488 -7.996029376983643 0.4099438457367451 -0.22410604187616154 -0.8841507367735255
27.721397399902344 -3.940967082977295 -5.721397399902344 0.6327366218871593 -0.4464178373472589 -0.6327365026778701
27.43390464782715 -1.9081332683563232 -6.9160475730896 0.6011713668587914 -0.23356263049603943 -0.764226069500971
28.916048049926758 -1.9081332683563232 -5.433903694152832 0.7642261331037778 -0.23356272112492363 -0.6011712507946201
29.146940231323242 -3.867896318435669 -3.867896318435669 0.7871379215425054 -0.43612721336196425 -0.43612721336196425
29.996028900146484 -3.6801681518554688 -1.8761334419250488 0.8841506706169078 -0.4099438426988679 -0.2241063084363276
29.996028900146484 -1.8761334419250488 -3.6801681518554688 0.8841506468046324 -0.22410631750864565 -0.40994388909662277
30.62367820739746 -1.8210124969482422 -1.8210124969482422 0.9554944390070725 -0.2086029446419197 -0.2086029446419197
11 -9 5.510910704284357e-16 3.929781222655748e-10 -1 -5.337554842554937e-10
12.755812644958496 -8.827067375183105 5.510910704284357e-16 0.16593748604730613 -0.9861362739116233 -1.5156945948500866e-9
11 -8.827067375183105 1.7558128833770752 2.408690175958856e-9 -0.9861362739116233 0.16593748604730613
12.821012496948242 -8.623678207397461 1.8210124969482422 0.20860263648762162 -0.9554945800654818 0.2086026066852993
14.444150924682617 -8.314915657043457 5.510910704284357e-16 0.3599361406223028 -0.9329769421984243 -2.1497680976439484e-9
14.680168151855469 -7.996029376983643 1.8761334419250488 0.4099439141904587 -0.8841506962542012 0.2241060765160484
11 -8.314915657043457 3.444150924682617 -2.3047452367286936e-9 -0.9329769421984243 0.3599361406223028
12.876133918762207 -7.996029376983643 3.6801681518554688 0.2241060906688208 -0.8841506933016324 0.40994391282147535
14.86789608001709 -7.146940231323242 3.867896318435669 0.4337238743030673 -0.7879114284768195 0.437126047879962
18.31983184814453 -7.996029376983643 1.8761334419250488 -0.4099438677927024 -0.8841507200664723 0.22410606744373968
16.000131607055664 -7.483226299285889 5.510910704284357e-16 0.5220359678192257 -0.8529234715395305 7.045747473266601e-10
16.999868392944336 -7.483226299285889 5.510910704284357e-16 -0.5209907283287587 -0.8535619957700298 -0.0007618218645685093
16.5 -7.072995662689209 5.510910704284357e-16 -0.04066685144406019 -0.9991577095089701 0.0054844072072750645
16.43390464782715 -6.9160475730896 1.9081332683563232 0.5198546038049675 -0.8212584831166863 0.2351291024345138
16.56609535217285 -6.9160475730896 1.9081332683563232 -0.5327924942035057 -0.8172768729594503 0.21952373686239476
16.5 -6.876812934875488 1.7725284099578857 0.5420353329803167 -0.8351360431851619 0.09351730948839833
16.5 -6.84995174407959 1.9081332683563232 7.307544022465093e-10 -0.9315155754902882 0.3637014333474606
18.555849075317383 -8.314915657043457 5.510910704284357e-16 -0.35993621252088787 -0.9329769144604373 2.2549762370117226e-9
20.244186401367188 -8.827067375183105 5.510910704284357e-16 -0.16593748604730613 -0.9861362739116233 4.857042070925817e-10
20.178987503051758 -8.623678207397461 1.8210124969482422 -0.20860264749823296 -0.9554945622450023 0.2086026773005547
18.132102966308594 -7.146940231323242 3.867896318435669 -0.43372378134596073 -0.7879114816322124 0.4371260443019758
20.12386703491211 -7.996029376983643 3.6801681518554688 -0.2241060765160484 -0.8841506962542012 0.4099439141904587
16.5 -6.641391754150391 2.3754913806915283 -5.79483003297655e-9 -0.9010748993452575 0.4336634937021259
16.5 -5.89167594909668 3.932239055633545 1.0483696886978141e-8 -0.8890790605720349 0.457753671806516
16.5 -5.721397399902344 4.162364482879639 5.188731799519408e-9 -0.7624139981147195 0.6470895575410935
11 -7.483226299285889 5.000132083892822 6.974539320514616e-10 -0.8391567518054149 0.5438896449642935
12.908133506774902 -6.9160475730896 5.433903694152832 0.2335627656597177 -0.7642260729471761 0.6011713099650724
11 -6.363961219787598 6.363961219787598 -1.668047839535039e-9 -0.7071067811865476 0.7071067811865476
14.940967559814453 -5.721397399902344 5.721397399902344 0.43677362470483694 -0.6360930752500763 0.6360930752500763
11 -5.000132083892822 7.483226299285889 6.07667344753061e-10 -0.5438896869369322 0.8391567246013382
12.908133506774902 -5.433903694152832 6.9160475730896 0.23356277974799702 -0.601171307872782 0.764226070287397
20.091867446899414 -6.9160475730896 5.433903694152832 -0.23356275157143822 -0.7642260756069552 0.6011713120573628
18.059032440185547 -5.721397399902344 5.721397399902344 -0.43677358402806005 -0.6360931190177606 0.6360930594131177
20.091867446899414 -5.433903694152832 6.9160475730896 -0.2335627656597177 -0.6011713099650724 0.7642260729471761
11 -3.444150924682617 8.314915657043457 -2.1257846162635995e-9 -0.3599361406223028 0.9329769421984243
12.876133918762207 -3.6801681518554688 7.996029376983643 0.22410610208362575 -0.409943936246414 0.8841506795471457
14.86789608001709 -3.867896318435669 7.146940231323242 0.43372382973799783 -0.437126033001414 0.787911461263162
11 -1.7558128833770752 8.827067375183105 -1.2994933121827157e-9 -0.16593748604730613 0.9861362739116233
12.821012496948242 -1.8210124969482422 8.623678207397461 0.20860263648762162 -0.2086026066852993 0.9554945800654818
14.680168151855469 -1.8761334419250488 7.996029376983643 0.4099439155594421 -0.2241060623632759 0.88415069920677
16.5 -4.162364482879639 5.721397399902344 2.557344179787209e-9 -0.6470895575410935 0.7624139981147195
16.5 -3.932239055633545 5.89167594909668 1.144027040230155e-8 -0.457753671806516 0.8890790605720349
16.5 -2.3754913806915283 6.641391754150391 2.5264839554668205e-10 -0.433663446213242 0.9010749222003988
18.132102966308594 -3.867896318435669 7.146940231323242 -0.43372377004539897 -0.43712609251741263 0.787911461103381
20.12386703491211 -3.6801681518554688 7.996029376983643 -0.2241060765160484 -0.4099439141904587 0.8841506962542012
16.5 -1.9081332683563232 6.84995174407959 7.908091882122273e-9 -0.36370145920756913 0.9315155653934533
16.43390464782715 -1.9081332683563232 6.9160475730896 0.5198546019835546 -0.23512911651185378 0.8212584802392454
16.56609535217285 -1.9081332683563232 6.9160475730896 -0.5198545929289567 -0.23512897830603113 0.8212585255395713
16.5 -1.7725284099578857 6.876812934875488 -1.1308889733905149e-8 -0.11071987361337139 0.9938516537124839
18.31983184814453 -1.8761334419250488 7.996029376983643 -0.40994387053066866 -0.22410603913819557 0.8841507259716095
20.178987503051758 -1.8210124969482422 8.623678207397461 -0.20860266110254366 -0.20860269090486522 0.9554945563048419
22 -9 5.510910704284357e-16 3.929779279765455e-10 -1 7.56417484204519e-10
22 -8.827067375183105 1.7558128833770752 -2.2467961140148973e-9 -0.9861362714732422 0.16593750053816034
23.755813598632812 -8.827067375183105 5.510910704284357e-16 0.16593748604730613 -0.9861362739116233 -5.825041239946312e-11
25.444150924682617 -8.314915657043457 5.510910704284357e-16 0.35993621252088787 -0.9329769144604373 1.9499724327908754e-9
23.821012496948242 -8.623678207397461 1.8210124969482422 0.20860266110254366 -0.9554945563048419 0.20860269090486522
25.68016815185547 -7.996029376983643 1.8761334419250488 0.4099438209428206 -0.8841507475754411 0.22410604461412742
22 -8.314915657043457 3.444150924682617 6.317504169238731e-10 -0.9329769421984243 0.3599361406223028
23.87613296508789 -7.996029376983643 3.6801681518554688 0.2241060737780815 -0.8841506854522837 0.40994393898438114
25.867897033691406 -7.146940231323242 3.867896318435669 0.4361271685505202 -0.7871378886371573 0.4361273175621364
27.000131607055664 -7.483226299285889 5.510910704284357e-16 0.5438897141410101 -0.83915670696933 1.1360970209426792e-9
27.43390464782715 -6.9160475730896 1.9081332683563232 0.6011713668587914 -0.764226069500971 0.23356263049603943
28.36396026611328 -6.363961219787598 5.510910704284357e-16 0.7071067215818992 -0.7071068407911908 2.7589828672016282e-9
29.483226776123047 -5.000132083892822 5.510910704284357e-16 0.8391566349291562 -0.5438898252903567 1.893997641819654e-9
28.916048049926758 -5.433903694152832 1.9081332683563232 0.7642261277842199 -0.6011712466100403 0.2335627493014828
27.721397399902344 -5.721397399902344 3.940967082977295 0.6327366218871593 -0.6327365026778701 0.4464178373472589
22 -7.483226299285889 5.000132083892822 1.132940303803677e-9 -0.8391567518054149 0.5438896449642935
23.908132553100586 -6.9160475730896 5.433903694152832 0.23356273748315856 -0.764226078266734 0.601171314149653
22 -6.363961219787598 6.363961219787598 -2.754457981584461e-10 -0.7071068109888685 0.7071067513842252
25.940967559814453 -5.721397399902344 5.721397399902344 0.44641772505883265 -0.6327365720918994 0.6327366316965449
22 -5.000132083892822 7.483226299285889 6.076676778199596e-10 -0.5438896869369322 0.8391567246013382
23.908132553100586 -5.433903694152832 6.9160475730896 0.2335627656597177 -0.6011713099650724 0.7642260729471761
30.314916610717773 -3.444150924682617 5.510910704284357e-16 0.9329768844364864 -0.3599362903448153 2.9350619174646553e-9
29.996028900146484 -3.6801681518554688 1.8761334419250488 0.8841506706169078 -0.4099438426988679 0.2241063084363276
29.146940231323242 -3.867896318435669 3.867896318435669 0.7871379215425054 -0.43612721336196425 0.43612721336196425
30.827068328857422 -1.7558128833770752 5.510910704284357e-16 0.9861362763500041 -0.16593747155645183 -1.58815241749575e-9
30.62367820739746 -1.8210124969482422 1.8210124969482422 0.9554944219393204 -0.20860296882970908 0.20860299863203202
29.996028900146484 -1.8761334419250488 3.6801681518554688 0.8841506873239658 -0.22410628286875514 0.4099438206429124
22 -3.444150924682617 8.314915657043457 8.107110929001174e-10 -0.3599361406223028 0.9329769421984243
25.867897033691406 -3.867896318435669 7.146940231323242 0.4361271685505202 -0.4361273175621364 0.7871378886371573
23.87613296508789 -3.6801681518554688 7.996029376983643 0.2241060879308537 -0.40994393761539766 0.8841506824997148
22 -1.7558128833770752 8.827067375183105 -1.2994930869249006e-9 -0.16593750053816034 0.9861362714732422
23.821012496948242 -1.8210124969482422 8.623678207397461 0.20860264879508303 -0.20860264879508303 0.9554945681851628
25.68016815185547 -1.8761334419250488 7.996029376983643 0.4099438457367451 -0.22410604187616154 0.8841507367735255
27.721397399902344 -3.940967082977295 5.721397399902344 0.6327366218871593 -0.4464178373472589 0.6327365026778701
28.916048049926758 -1.9081332683563232 5.433903694152832 0.7642261331037778 -0.23356272112492363 0.6011712507946201
27.43390464782715 -1.9081332683563232 6.9160475730896 0.6011713668587914 -0.23356263049603943 0.764226069500971
11 5.510910704284357e-16 -9 3.929781222655748e-10 -5.337554842554937e-10 -1
12.755812644958496 5.510910704284357e-16 -8.827067375183105 0.16593748604730613 -1.5156945948500866e-9 -0.9861362739116233
11 1.7558128833770752 -8.827067375183105 2.408690175958856e-9 0.16593748604730613 -0.9861362739116233
12.821012496948242 1.8210124969482422 -8.623678207397461 0.20860263648762162 0.2086026066852993 -0.9554945800654818
14.444150924682617 5.510910704284357e-16 -8.314915657043457 0.3599361406223028 -2.1497680976439484e-9 -0.9329769421984243
14.680168151855469 1.8761334419250488 -7.996029376983643 0.4099439141904587 0.2241060765160484 -0.8841506962542012
11 3.444150924682617 -8.314915657043457 -2.3047452367286936e-9 0.3599361406223028 -0.9329769421984243
12.876133918762207 3.6801681518554688 -7.996029376983643 0.2241060906688208 0.40994391282147535 -0.8841506933016324
14.86789608001709 3.867896318435669 -7.146940231323242 0.4337238743030673 0.437126047879962 -0.7879114284768195
16.000131607055664 5.510910704284357e-16 -7.483226299285889 0.5220359412798571 7.045747115073487e-10 -0.85292348778308
16.999868392944336 5.510910704284357e-16 -7.483226299285889 -0.5209907283287587 -0.0007618218645685093 -0.8535619957700298
16.5 5.510910704284357e-16 -7.072995662689209 -0.04066685144406019 0.0054844072072750645 -0.9991577095089701
18.31983184814453 1.8761334419250488 -7.996029376983643 -0.4099438677927024 0.22410606744373968 -0.8841507200664723
16.5 1.7725284099578857 -6.876812934875488 0.5420353329803167 0.09351730948839833 -0.8351360431851619
16.43390464782715 1.9081332683563232 -6.9160475730896 0.5198546038049675 0.2351291024345138 -0.8212584831166863
16.56609535217285 1.9081332683563232 -6.9160475730896 -0.5327924942035057 0.21952373686239476 -0.8172768729594503
16.5 1.9081332683563232 -6.84995174407959 7.307544022465093e-10 0.3637014333474606 -0.9315155754902882
18.555849075317383 5.510910704284357e-16 -8.314915657043457 -0.35993621252088787 2.2549762370117226e-9 -0.9329769144604373
20.244186401367188 5.510910704284357e-16 -8.827067375183105 -0.16593748604730613 4.857042070925817e-10 -0.9861362739116233
20.178987503051758 1.8210124969482422 -8.623678207397461 -0.20860264749823296 0.2086026773005547 -0.9554945622450023
18.132102966308594 3.867896318435669 -7.146940231323242 -0.43372378134596073 0.4371260443019758 -0.7879114816322124
20.12386703491211 3.6801681518554688 -7.996029376983643 -0.2241060765160484 0.4099439141904587 -0.8841506962542012
16.5 2.3754913806915283 -6.641391754150391 -5.79483003297655e-9 0.4336634937021259 -0.9010748993452575
16.5 3.932239055633545 -5.89167594909668 1.0483696886978141e-8 0.457753671806516 -0.8890790605720349
16.5 4.162364482879639 -5.721397399902344 5.188731799519408e-9 0.6470895575410935 -0.7624139981147195
11 5.000132083892822 -7.483226299285889 6.974539320514616e-10 0.5438896449642935 -0.8391567518054149
12.908133506774902 5.433903694152832 -6.9160475730896 0.2335627656597177 0.6011713099650724 -0.7642260729471761
11 6.363961219787598 -6.363961219787598 -1.668047839535039e-9 0.7071067811865476 -0.7071067811865476
14.940967559814453 5.721397399902344 -5.721397399902344 0.43677362470483694 0.6360930752500763 -0.6360930752500763
11 7.483226299285889 -5.000132083892822 6.07667344753061e-10 0.8391567246013382 -0.5438896869369322
12.908133506774902 6.9160475730896 -5.433903694152832 0.23356277974799702 0.764226070287397 -0.601171307872782
20.091867446899414 5.433903694152832 -6.9160475730896 -0.23356275157143822 0.6011713120573628 -0.7642260756069552
18.059032440185547 5.721397399902344 -5.721397399902344 -0.43677358402806005 0.6360930594131177 -0.6360931190177606
20.091867446899414 6.9160475730896 -5.433903694152832 -0.2335627656597177 0.7642260729471761 -0.6011713099650724
11 8.314915657043457 -3.444150924682617 -2.1257846162635995e-9 0.9329769421984243 -0.3599361406223028
12.876133918762207 7.996029376983643 -3.6801681518554688 0.22410610208362575 0.8841506795471457 -0.409943936246414
14.86789608001709 7.146940231323242 -3.867896318435669 0.43372382973799783 0.787911461263162 -0.437126033001414
11 8.827067375183105 -1.7558128833770752 -1.2994933121827157e-9 0.9861362739116233 -0.16593748604730613
12.821012496948242 8.623678207397461 -1.8210124969482422 0.20860263648762162 0.9554945800654818 -0.2086026066852993
14.680168151855469 7.996029376983643 -1.8761334419250488 0.4099439155594421 0.88415069920677 -0.2241060623632759
16.5 5.721397399902344 -4.162364482879639 2.557344179787209e-9 0.7624139981147195 -0.6470895575410935
16.5 5.89167594909668 -3.932239055633545 1.144027040230155e-8 0.8890790605720349 -0.457753671806516
16.5 6.641391754150391 -2.3754913806915283 2.5264839554668205e-10 0.9010749222003988 -0.433663446213242
18.132102966308594 7.146940231323242 -3.867896318435669 -0.43372377004539897 0.787911461103381 -0.43712609251741263
20.12386703491211 7.996029376983643 -3.6801681518554688 -0.2241060765160484 0.8841506962542012 -0.4099439141904587
16.5 6.84995174407959 -1.9081332683563232 7.908091882122273e-9 0.9315155653934533 -0.36370145920756913
16.5 6.876812934875488 -1.7725284099578857 -1.1308889733905149e-8 0.9938516537124839 -0.11071987361337139
16.43390464782715 6.9160475730896 -1.9081332683563232 0.5198546019835546 0.8212584802392454 -0.23512911651185378
16.56609535217285 6.9160475730896 -1.9081332683563232 -0.5198545929289567 0.8212585255395713 -0.23512897830603113
18.31983184814453 7.996029376983643 -1.8761334419250488 -0.40994387053066866 0.8841507259716095 -0.22410603913819557
20.178987503051758 8.623678207397461 -1.8210124969482422 -0.20860266110254366 0.9554945563048419 -0.20860269090486522
22 5.510910704284357e-16 -9 3.929779279765455e-10 7.56417484204519e-10 -1
22 1.7558128833770752 -8.827067375183105 -2.2467961140148973e-9 0.16593750053816034 -0.9861362714732422
23.755813598632812 5.510910704284357e-16 -8.827067375183105 0.16593748604730613 -5.825041239946312e-11 -0.9861362739116233
25.444150924682617 5.510910704284357e-16 -8.314915657043457 0.35993621252088787 1.9499724327908754e-9 -0.9329769144604373
23.821012496948242 1.8210124969482422 -8.623678207397461 0.20860266110254366 0.20860269090486522 -0.9554945563048419
25.68016815185547 1.8761334419250488 -7.996029376983643 0.4099438209428206 0.22410604461412742 -0.8841507475754411
22 3.444150924682617 -8.314915657043457 6.317504169238731e-10 0.3599361406223028 -0.9329769421984243
23.87613296508789 3.6801681518554688 -7.996029376983643 0.2241060737780815 0.40994393898438114 -0.8841506854522837
25.867897033691406 3.867896318435669 -7.146940231323242 0.4361271685505202 0.4361273175621364 -0.7871378886371573
27.000131607055664 5.510910704284357e-16 -7.483226299285889 0.5438897141410101 1.1360970209426792e-9 -0.83915670696933
27.43390464782715 1.9081332683563232 -6.9160475730896 0.6011713267033921 0.2335626529534777 -0.7642260942254044
28.36396026611328 5.510910704284357e-16 -6.363961219787598 0.7071067215818992 2.7589828672016282e-9 -0.7071068407911908
29.483226776123047 5.510910704284357e-16 -5.000132083892822 0.8391566349291562 1.893997641819654e-9 -0.5438898252903567
28.916048049926758 1.9081332683563232 -5.433903694152832 0.7642261277842199 0.2335627493014828 -0.6011712466100403
27.721397399902344 3.940967082977295 -5.721397399902344 0.6327366218871593 0.4464178373472589 -0.6327365026778701
30.314916610717773 5.510910704284357e-16 -3.444150924682617 0.9329768844364864 2.9350619174646553e-9 -0.3599362903448153
29.996028900146484 1.8761334419250488 -3.6801681518554688 0.8841506706169078 0.2241063084363276 -0.4099438426988679
30.827068328857422 5.510910704284357e-16 -1.7558128833770752 0.9861362763500041 -1.8056916304900621e-9 -0.16593747155645183
30.62367820739746 1.8210124969482422 -1.8210124969482422 0.9554944219393204 0.20860299863203202 -0.20860296882970908
29.146940231323242 3.867896318435669 -3.867896318435669 0.7871379215425054 0.43612721336196425 -0.43612721336196425
29.996028900146484 3.6801681518554688 -1.8761334419250488 0.8841506873239658 0.4099438206429124 -0.22410628286875514
22 5.000132083892822 -7.483226299285889 1.132940303803677e-9 0.5438896449642935 -0.8391567518054149
23.908132553100586 5.433903694152832 -6.9160475730896 0.23356273748315856 0.601171314149653 -0.764226078266734
22 6.363961219787598 -6.363961219787598 -2.754457981584461e-10 0.7071067513842252 -0.7071068109888685
25.940967559814453 5.721397399902344 -5.721397399902344 0.44641772505883265 0.6327366316965449 -0.6327365720918994
22 7.483226299285889 -5.000132083892822 6.076676778199596e-10 0.8391567246013382 -0.5438896869369322
23.908132553100586 6.9160475730896 -5.433903694152832 0.2335627656597177 0.7642260729471761 -0.6011713099650724
22 8.314915657043457 -3.444150924682617 8.107110929001174e-10 0.9329769421984243 -0.3599361406223028
25.867897033691406 7.146940231323242 -3.867896318435669 0.4361271685505202 0.7871378886371573 -0.4361273175621364
23.87613296508789 7.996029376983643 -3.6801681518554688 0.2241060879308537 0.8841506824997148 -0.40994393761539766
22 8.827067375183105 -1.7558128833770752 -1.2994930869249006e-9 0.9861362714732422 -0.16593750053816034
23.821012496948242 8.623678207397461 -1.8210124969482422 0.20860264879508303 0.9554945681851628 -0.20860264879508303
25.68016815185547 7.996029376983643 -1.8761334419250488 0.4099438457367451 0.8841507367735255 -0.22410604187616154
27.721397399902344 5.721397399902344 -3.940967082977295 0.6327366218871593 0.6327365026778701 -0.4464178373472589
28.916048049926758 5.433903694152832 -1.9081332683563232 0.7642261331037778 0.6011712507946201 -0.23356272112492363
27.43390464782715 6.9160475730896 -1.9081332683563232 0.6011713668587914 0.764226069500971 -0.23356263049603943
11 5.510910704284357e-16 9 3.929781222655748e-10 -5.337554842554937e-10 1
12.755812644958496 5.510910704284357e-16 8.827067375183105 0.16593748604730613 -1.5156945948500866e-9 0.9861362739116233
11 1.7558128833770752 8.827067375183105 2.408690175958856e-9 0.16593748604730613 0.9861362739116233
12.821012496948242 1.8210124969482422 8.623678207397461 0.20860263648762162 0.2086026066852993 0.9554945800654818
14.444150924682617 5.510910704284357e-16 8.314915657043457 0.3599361406223028 -2.1497680976439484e-9 0.9329769421984243
14.680168151855469 1.8761334419250488 7.996029376983643 0.40994393898438114 0.2241060737780815 0.8841506854522837
11 3.444150924682617 8.314915657043457 -2.3047452367286936e-9 0.3599361406223028 0.9329769421984243
12.876133918762207 3.6801681518554688 7.996029376983643 0.2241060906688208 0.40994391282147535 0.8841506933016324
14.86789608001709 3.867896318435669 7.146940231323242 0.4337238743030673 0.437126047879962 0.7879114284768195
16.5 5.510910704284357e-16 7.072995662689209 -0.04066685144406019 0.0054844072072750645 0.9991577095089701
16.000131607055664 5.510910704284357e-16 7.483226299285889 0.5220359412798571 7.045747115073487e-10 0.85292348778308
16.999868392944336 5.510910704284357e-16 7.483226299285889 -0.5209907283287587 -0.0007618218645685093 0.8535619957700298
16.5 1.7725284099578857 6.876812934875488 0.5420353329803167 0.09351730948839833 0.8351360431851619
16.5 1.9081332683563232 6.84995174407959 7.307544022465093e-10 0.3637014333474606 0.9315155754902882
16.43390464782715 1.9081332683563232 6.9160475730896 0.5198546038049675 0.2351291024345138 0.8212584831166863
16.56609535217285 1.9081332683563232 6.9160475730896 -0.5327924942035057 0.21952373686239476 0.8172768729594503
18.31983184814453 1.8761334419250488 7.996029376983643 -0.4099439155594421 0.2241060623632759 0.88415069920677
18.555849075317383 5.510910704284357e-16 8.314915657043457 -0.35993621252088787 2.2549762370117226e-9 0.9329769144604373
20.244186401367188 5.510910704284357e-16 8.827067375183105 -0.16593748604730613 4.857042070925817e-10 0.9861362739116233
20.178987503051758 1.8210124969482422 8.623678207397461 -0.20860264749823296 0.2086026773005547 0.9554945622450023
16.5 2.3754913806915283 6.641391754150391 -5.388599272269147e-9 0.4336634220156632 0.9010749338460508
16.5 3.932239055633545 5.89167594909668 1.0483696886978141e-8 0.457753671806516 0.8890790605720349
16.5 4.162364482879639 5.721397399902344 -4.00709387059851e-9 0.6470895575410935 0.7624139981147195
18.132102966308594 3.867896318435669 7.146940231323242 -0.43372377569567994 0.4371260684096947 0.7879114713677967
20.12386703491211 3.6801681518554688 7.996029376983643 -0.2241060906688208 0.40994391282147535 0.8841506933016324
11 9 5.510910704284357e-16 3.929781222655748e-10 1 -5.337554842554937e-10
12.755812644958496 8.827067375183105 5.510910704284357e-16 0.16593748604730613 0.9861362739116233 -1.5156945948500866e-9
11 8.827067375183105 1.7558128833770752 2.408690175958856e-9 0.9861362739116233 0.16593748604730613
12.821012496948242 8.623678207397461 1.8210124969482422 0.20860263648762162 0.9554945800654818 0.2086026066852993
14.444150924682617 8.314915657043457 5.510910704284357e-16 0.3599361406223028 0.9329769421984243 -2.1497680976439484e-9
14.680168151855469 7.996029376983643 1.8761334419250488 0.4099439155594421 0.88415069920677 0.2241060623632759
11 8.314915657043457 3.444150924682617 -8.364974654135605e-10 0.9329769421984243 0.3599361406223028
12.876133918762207 7.996029376983643 3.6801681518554688 0.2241060906688208 0.8841506933016324 0.40994391282147535
14.86789608001709 7.146940231323242 3.867896318435669 0.4337238743030673 0.7879114284768195 0.437126047879962
16.5 6.641391754150391 2.3754913806915283 2.4335648410682e-9 0.9010749222003988 0.433663446213242
16.5 5.89167594909668 3.932239055633545 1.0483696886978141e-8 0.8890790605720349 0.457753671806516
16.5 5.721397399902344 4.162364482879639 -4.00709387059851e-9 0.7624139981147195 0.6470895575410935
16.5 7.072995662689209 5.510910704284357e-16 -0.04066685144406019 0.9991577095089701 0.0054844072072750645
16.000131607055664 7.483226299285889 5.510910704284357e-16 0.5220359412798571 0.85292348778308 -1.6324606471723852e-10
16.999868392944336 7.483226299285889 5.510910704284357e-16 -0.5209907283284121 0.853561995769462 -0.0007618227376829145
16.5 6.876812934875488 1.7725284099578857 0.5420353329803167 0.8351360431851619 0.09351730948839833
16.5 6.84995174407959 1.9081332683563232 7.307544022465093e-10 0.9315155754902882 0.3637014333474606
16.43390464782715 6.9160475730896 1.9081332683563232 0.5198546038049675 0.8212584831166863 0.2351291024345138
16.56609535217285 6.9160475730896 1.9081332683563232 -0.5327924942035057 0.8172768729594503 0.21952373686239476
18.31983184814453 7.996029376983643 1.8761334419250488 -0.40994387053066866 0.8841507259716095 0.22410603913819557
18.555849075317383 8.314915657043457 5.510910704284357e-16 -0.35993621252088787 0.9329769144604373 2.2549762370117226e-9
20.244186401367188 8.827067375183105 5.510910704284357e-16 -0.16593748604730613 0.9861362739116233 4.857042070925817e-10
20.178987503051758 8.623678207397461 1.8210124969482422 -0.20860264749823296 0.9554945622450023 0.2086026773005547
18.132102966308594 7.146940231323242 3.867896318435669 -0.43372377569567994 0.7879114713677967 0.4371260684096947
20.12386703491211 7.996029376983643 3.6801681518554688 -0.22410610208362575 0.8841506795471457 0.409943936246414
11 6.363961219787598 6.363961219787598 -2.754456709897384e-10 0.7071067811865476 0.7071067811865476
14.940967559814453 5.721397399902344 5.721397399902344 0.4367736729386299 0.6360930586901963 0.6360930586901963
11 5.000132083892822 7.483226299285889 6.974539320514616e-10 0.5438896449642935 0.8391567518054149
12.908133506774902 5.433903694152832 6.9160475730896 0.23356277974799702 0.601171307872782 0.764226070287397
11 7.483226299285889 5.000132083892822 6.974539320514616e-10 0.8391567518054149 0.5438896449642935
12.908133506774902 6.9160475730896 5.433903694152832 0.23356277974799702 0.764226070287397 0.601171307872782
18.059032440185547 5.721397399902344 5.721397399902344 -0.43677357647104026 0.6360930918099554 0.6360930918099554
20.091867446899414 5.433903694152832 6.9160475730896 -0.23356275157143822 0.6011713120573628 0.7642260756069552
20.091867446899414 6.9160475730896 5.433903694152832 -0.23356275157143822 0.7642260756069552 0.6011713120573628
31 5.510910704284357e-16 5.510910704284357e-16 1 -5.656908275142314e-11 -5.656908275142314e-11
30.827068328857422 5.510910704284357e-16 1.7558128833770752 0.9861362763500041 2.450305782558997e-9 0.16593747155645183
30.827068328857422 1.7558128833770752 5.510910704284357e-16 0.9861362763500041 0.16593747155645183 2.450305782558997e-9
30.62367820739746 1.8210124969482422 1.8210124969482422 0.9554944159991515 0.20860299733517773 0.20860299733517773
30.314916610717773 5.510910704284357e-16 3.444150924682617 0.9329768944444705 -1.4338356781774348e-12 0.359936264403507
29.996028900146484 1.8761334419250488 3.6801681518554688 0.8841506843713942 0.22410629702152599 0.40994381927392803
30.314916610717773 3.444150924682617 5.510910704284357e-16 0.9329768844364864 0.3599362903448153 5.008119938029756e-10
29.996028900146484 3.6801681518554688 1.8761334419250488 0.8841506843713942 0.40994381927392803 0.22410629702152599
29.146940231323242 3.867896318435669 3.867896318435669 0.7871379215425054 0.43612721336196425 0.43612721336196425
22 5.510910704284357e-16 9 3.929779279765455e-10 7.56417484204519e-10 1
22 1.7558128833770752 8.827067375183105 -2.2467961140148973e-9 0.16593750053816034 0.9861362714732422
23.755813598632812 5.510910704284357e-16 8.827067375183105 0.16593748604730613 -5.825041239946312e-11 0.9861362739116233
25.444150924682617 5.510910704284357e-16 8.314915657043457 0.35993621252088787 1.9499724327908754e-9 0.9329769144604373
23.821012496948242 1.8210124969482422 8.623678207397461 0.20860266110254366 0.20860269090486522 0.9554945563048419
25.68016815185547 1.8761334419250488 7.996029376983643 0.40994386916168557 0.2241060532909677 0.884150723019041
22 3.444150924682617 8.314915657043457 6.317504169238731e-10 0.3599361406223028 0.9329769421984243
25.867897033691406 3.867896318435669 7.146940231323242 0.43612718701562525 0.4361273360272376 0.7871378681753425
23.87613296508789 3.6801681518554688 7.996029376983643 0.2241060906688208 0.40994391282147535 0.8841506933016324
28.36396026611328 5.510910704284357e-16 6.363961219787598 0.7071067215818992 -2.781549926920193e-9 0.7071068407911908
29.483226776123047 5.510910704284357e-16 5.000132083892822 0.8391566349291562 3.3535114975874276e-9 0.5438898252903567
28.916048049926758 1.9081332683563232 5.433903694152832 0.7642261304439989 0.23356273521320325 0.6011712487023302
27.000131607055664 5.510910704284357e-16 7.483226299285889 0.5438897141410101 1.1360970209426792e-9 0.83915670696933
27.43390464782715 1.9081332683563232 6.9160475730896 0.6011713668587914 0.23356263049603943 0.764226069500971
27.721397399902344 3.940967082977295 5.721397399902344 0.6327366899099084 0.44641781348420295 0.6327364514913266
22 9 5.510910704284357e-16 3.929779279765455e-10 1 7.56417484204519e-10
22 8.827067375183105 1.7558128833770752 -2.2467961140148973e-9 0.9861362714732422 0.16593750053816034
23.755813598632812 8.827067375183105 5.510910704284357e-16 0.16593748604730613 0.9861362739116233 -5.825041239946312e-11
25.444150924682617 8.314915657043457 5.510910704284357e-16 0.35993621252088787 0.9329769144604373 1.9499724327908754e-9
23.821012496948242 8.623678207397461 1.8210124969482422 0.20860266110254366 0.9554945563048419 0.20860269090486522
25.68016815185547 7.996029376983643 1.8761334419250488 0.40994386916168557 0.884150723019041 0.2241060532909677
22 8.314915657043457 3.444150924682617 6.317504169238731e-10 0.9329769421984243 0.3599361406223028
25.867897033691406 7.146940231323242 3.867896318435669 0.43612718701562525 0.7871378681753425 0.4361273360272376
23.87613296508789 7.996029376983643 3.6801681518554688 0.2241060765160484 0.8841506962542012 0.4099439141904587
28.36396026611328 6.363961219787598 5.510910704284357e-16 0.7071067215818992 0.7071068407911908 -2.781549926920193e-9
29.483226776123047 5.000132083892822 5.510910704284357e-16 0.8391566349291562 0.5438898252903567 3.3535114975874276e-9
28.916048049926758 5.433903694152832 1.9081332683563232 0.7642261304439989 0.6011712487023302 0.23356273521320325
27.721397399902344 5.721397399902344 3.940967082977295 0.6327366899099084 0.6327364514913266 0.44641781348420295
27.000131607055664 7.483226299285889 5.510910704284357e-16 0.5438896449642935 0.8391567518054149 4.633603528175473e-10
27.43390464782715 6.9160475730896 1.9081332683563232 0.6011713668587914 0.764226069500971 0.23356263049603943
22 6.363961219787598 6.363961219787598 -2.7544580976761887e-10 0.7071067811865476 0.7071067811865476
25.940967559814453 5.721397399902344 5.721397399902344 0.44641768435956314 0.6327366162515985 0.6327366162515985
22 5.000132083892822 7.483226299285889 1.132940303803677e-9 0.5438896449642935 0.8391567518054149
23.908132553100586 5.433903694152832 6.9160475730896 0.23356275157143822 0.6011713120573628 0.7642260756069552
22 7.483226299285889 5.000132083892822 6.974543206295225e-10 0.8391567518054149 0.5438896449642935
23.908132553100586 6.9160475730896 5.433903694152832 0.23356275157143822 0.7642260756069552 0.6011713120573628
3 4 10 7
3 4 15 19
3 7 24 15
3 4 7 15
3 0 1 9
3 0 5 1
3 1 5 28
3 2 3 5
3 2 18 3
3 3 29 5
3 0 4 2
3 0 10 4
3 2 4 19
3 0 2 5
3 6 10 12
3 12 70 64
3 6 12 64
3 6 64 68
3 7 8 24
3 6 8 7
3 6 7 10
3 8 66 25
3 8 68 66
3 6 68 8
3 9 13 12
3 0 9 10
3 10 9 12
3 9 1 11
3 1 34 11
3 13 11 14
3 9 11 13
3 11 36 14
3 12 13 70
3 13 71 70
3 13 14 71
3 14 74 71
3 14 100 74
3 16 21 19
3 15 24 17
3 15 17 16
3 15 16 19
3 16 143 21
3 21 143 149
3 16 147 143
3 17 26 145
3 17 145 147
3 16 17 147
3 2 19 18
3 18 21 22
3 19 21 18
3 18 20 3
3 3 20 49
3 18 22 20
3 22 23 20
3 20 23 54
3 21 149 22
3 22 149 150
3 22 150 23
3 23 150 153
3 23 153 179
3 8 25 24
3 17 24 26
3 25 27 26
3 24 25 26
3 25 66 85
3 25 85 27
3 27 85 88
3 26 27 158
3 26 158 145
3 27 160 158
3 27 88 160
3 88 222 160
3 1 28 34
3 3 49 29
3 5 29 28
3 28 29 30
3 28 30 35
3 29 50 30
3 30 42 35
3 30 50 51
3 30 51 42
3 11 34 36
3 36 34 37
3 28 35 34
3 34 35 37
3 35 38 37
3 35 44 38
3 14 36 100
3 36 37 101
3 36 101 100
3 37 104 101
3 37 38 104
3 38 44 40
3 38 40 41
3 38 41 104
3 104 41 106
3 35 42 43
3 35 43 44
3 29 49 50
3 20 54 49
3 54 55 49
3 49 55 50
3 50 55 56
3 50 56 53
3 50 52 51
3 50 53 52
3 23 179 54
3 54 180 55
3 54 179 180
3 55 182 56
3 56 58 53
3 56 59 58
3 56 182 59
3 55 180 182
3 182 184 59
3 72 64 70
3 65 68 64
3 65 64 72
3 65 72 77
3 66 68 67
3 66 67 86
3 65 67 68
3 67 69 87
3 65 69 67
3 65 77 69
3 70 71 73
3 72 70 73
3 71 74 75
3 74 100 75
3 71 75 73
3 72 73 76
3 72 76 77
3 77 76 79
3 73 75 78
3 73 78 76
3 75 102 78
3 76 78 80
3 78 111 80
3 69 77 81
3 69 91 87
3 69 81 91
3 81 94 91
3 76 80 79
3 79 80 82
3 80 122 82
3 77 79 81
3 79 83 81
3 81 83 94
3 79 82 83
3 83 82 84
3 83 84 95
3 82 124 84
3 66 86 85
3 85 89 88
3 85 86 89
3 67 87 86
3 86 90 89
3 86 87 90
3 87 92 90
3 88 89 223
3 88 223 222
3 89 90 226
3 89 226 223
3 90 231 226
3 87 91 92
3 91 93 92
3 91 94 93
3 93 94 97
3 90 92 231
3 92 233 231
3 92 93 233
3 93 97 234
3 93 234 233
3 97 237 234
3 83 95 94
3 94 95 97
3 95 98 97
3 95 84 96
3 84 131 96
3 95 96 98
3 98 96 99
3 96 133 99
3 97 98 237
3 98 238 237
3 98 99 238
3 99 241 238
3 99 267 241
3 100 101 102
3 75 100 102
3 102 101 103
3 101 104 103
3 104 106 109
3 103 104 107
3 104 109 107
3 107 109 110
3 107 110 113
3 102 111 78
3 102 103 111
3 103 112 111
3 111 112 122
3 103 107 112
3 107 113 112
3 112 113 114
3 112 114 115
3 111 122 80
3 112 123 122
3 82 122 124
3 122 123 124
3 123 132 124
3 112 115 123
3 123 115 128
3 123 128 132
3 84 124 131
3 132 128 129
3 132 129 130
3 124 132 131
3 131 132 138
3 96 131 133
3 133 131 138
3 132 135 138
3 132 130 135
3 99 133 267
3 133 138 268
3 133 268 267
3 138 135 271
3 135 130 134
3 135 134 137
3 135 137 271
3 271 137 270
3 138 271 268
3 143 151 149
3 144 143 147
3 144 151 143
3 145 146 147
3 145 159 146
3 144 147 146
3 144 156 151
3 146 162 148
3 144 146 148
3 144 148 156
3 149 152 150
3 151 152 149
3 150 154 153
3 153 154 179
3 150 152 154
3 151 155 152
3 151 156 155
3 156 164 155
3 152 157 154
3 152 155 157
3 154 157 181
3 155 165 157
3 157 165 190
3 145 158 159
3 158 160 161
3 158 161 159
3 160 222 224
3 160 224 161
3 146 159 162
3 159 161 163
3 159 163 162
3 162 163 171
3 161 228 163
3 161 224 228
3 163 228 246
3 148 166 156
3 148 162 170
3 148 170 166
3 166 170 173
3 155 164 165
3 164 167 165
3 165 167 201
3 156 166 164
3 164 166 168
3 166 173 168
3 164 168 167
3 168 169 167
3 168 174 169
3 167 169 203
3 162 171 170
3 170 171 172
3 170 172 173
3 163 246 171
3 171 246 248
3 171 248 172
3 172 176 173
3 172 250 176
3 172 248 250
3 176 250 252
3 168 173 174
3 173 176 174
3 174 176 177
3 174 175 169
3 169 175 210
3 174 177 175
3 177 178 175
3 175 178 212
3 176 252 177
3 177 252 253
3 177 253 178
3 178 253 256
3 178 256 292
3 179 181 180
3 154 181 179
3 181 185 180
3 180 185 182
3 182 186 184
3 185 187 182
3 182 187 186
3 187 189 186
3 187 192 189
3 181 157 190
3 181 190 185
3 185 190 191
3 190 201 191
3 185 191 187
3 187 191 192
3 191 193 192
3 191 194 193
3 190 165 201
3 191 201 202
3 167 203 201
3 201 203 202
3 202 203 211
3 191 202 194
3 202 207 194
3 202 211 207
3 169 210 203
3 211 208 207
3 211 209 208
3 203 210 211
3 210 217 211
3 175 212 210
3 212 217 210
3 211 217 215
3 211 215 209
3 178 292 212
3 212 293 217
3 212 292 293
3 217 296 215
3 215 213 209
3 215 214 213
3 215 296 214
3 296 295 214
3 217 293 296
3 222 223 224
3 223 225 224
3 223 226 225
3 226 231 227
3 225 226 227
3 224 225 228
3 225 229 228
3 228 229 246
3 225 227 229
3 227 230 229
3 227 232 230
3 229 230 247
3 231 233 232
3 227 231 232
3 233 235 232
3 233 234 235
3 234 237 239
3 235 234 239
3 230 232 236
3 232 235 236
3 235 243 236
3 235 239 243
3 237 238 240
3 239 237 240
3 238 241 242
3 241 267 242
3 238 242 240
3 239 244 243
3 239 240 244
3 243 244 263
3 240 242 245
3 240 245 244
3 242 269 245
3 244 245 264
3 245 281 264
3 246 247 248
3 229 247 246
3 247 251 248
3 230 249 247
3 247 249 251
3 249 258 251
3 248 251 250
3 251 254 250
3 250 254 252
3 251 258 254
3 252 255 253
3 254 255 252
3 253 257 256
3 256 257 292
3 253 255 257
3 254 258 259
3 258 265 259
3 254 259 255
3 255 259 260
3 255 260 257
3 257 260 294
3 259 266 260
3 260 266 303
3 230 236 249
3 236 261 249
3 236 243 261
3 249 261 258
3 243 263 261
3 258 261 265
3 261 263 265
3 263 262 265
3 244 264 263
3 263 264 262
3 262 264 312
3 265 262 266
3 259 265 266
3 262 313 266
3 267 268 269
3 242 267 269
3 269 268 277
3 271 270 273
3 268 271 277
3 277 271 275
3 271 273 275
3 275 273 274
3 275 274 278
3 282 278 279
3 282 279 280
3 277 282 281
3 269 281 245
3 269 277 281
3 281 282 312
3 277 275 282
3 275 278 282
3 304 290 289
3 304 291 290
3 292 294 293
3 257 294 292
3 294 302 293
3 296 298 295
3 302 300 296
3 296 300 298
3 300 299 298
3 300 289 299
3 293 302 296
3 302 303 304
3 303 313 304
3 294 260 303
3 294 303 302
3 302 304 300
3 300 304 289
3 282 311 312
3 304 313 311
3 262 312 313
3 311 313 312
3 311 280 291
3 282 280 311
3 304 311 291
3 281 312 264
3 303 266 313
3 31 317 46
3 31 321 317
3 32 61 319
3 32 319 321
3 31 33 32
3 33 45 42
3 31 45 33
3 33 51 60
3 32 33 60
3 33 42 51
3 31 32 321
3 39 40 44
3 39 41 40
3 39 105 41
3 41 105 106
3 31 46 45
3 45 47 39
3 45 39 44
3 45 46 47
3 317 326 46
3 46 48 47
3 326 329 48
3 46 326 48
3 47 48 116
3 47 116 105
3 39 47 105
3 48 329 118
3 48 118 116
3 329 388 118
3 45 43 42
3 45 44 43
3 53 58 57
3 57 58 59
3 57 59 183
3 59 184 183
3 32 60 61
3 60 57 62
3 60 53 57
3 60 62 61
3 319 61 343
3 61 62 63
3 61 63 343
3 343 63 346
3 60 51 52
3 60 52 53
3 62 195 63
3 57 183 62
3 62 183 195
3 63 197 346
3 63 195 197
3 346 197 475
3 105 108 106
3 106 108 109
3 108 110 109
3 108 113 110
3 105 116 117
3 116 119 117
3 105 117 108
3 116 118 119
3 118 388 390
3 118 390 119
3 108 117 120
3 108 120 113
3 117 121 120
3 120 121 125
3 117 119 121
3 119 390 394
3 121 119 394
3 121 394 413
3 120 114 113
3 120 115 114
3 121 413 125
3 125 413 415
3 120 126 115
3 120 125 126
3 125 127 126
3 115 126 128
3 126 139 128
3 126 127 139
3 125 415 127
3 127 417 140
3 127 415 417
3 130 136 134
3 134 136 137
3 136 272 137
3 137 272 270
3 128 139 129
3 129 139 130
3 127 140 139
3 130 139 136
3 139 141 136
3 139 140 141
3 417 422 140
3 140 142 141
3 140 422 142
3 422 425 142
3 136 141 272
3 141 142 283
3 141 283 272
3 142 425 285
3 142 285 283
3 425 562 285
3 183 184 188
3 184 186 188
3 186 189 188
3 188 189 192
3 183 196 195
3 195 196 198
3 183 188 196
3 195 198 197
3 197 477 475
3 197 198 477
3 188 199 196
3 188 192 199
3 196 199 200
3 199 204 200
3 196 200 198
3 198 481 477
3 200 481 198
3 200 500 481
3 199 192 193
3 199 193 194
3 200 204 500
3 204 502 500
3 199 194 205
3 199 205 204
3 194 207 205
3 204 205 206
3 205 207 218
3 205 218 206
3 204 206 502
3 206 219 504
3 206 504 502
3 209 213 216
3 213 214 216
3 214 297 216
3 214 295 297
3 207 208 218
3 208 209 218
3 206 218 219
3 209 216 218
3 218 216 220
3 218 220 219
3 504 219 509
3 219 220 221
3 219 221 509
3 509 221 512
3 216 297 220
3 220 305 221
3 220 297 305
3 221 307 512
3 221 305 307
3 512 307 587
3 270 272 276
3 270 276 273
3 273 276 274
3 274 276 278
3 272 283 284
3 272 284 276
3 283 286 284
3 283 285 286
3 285 562 564
3 285 564 286
3 278 287 279
3 279 287 280
3 276 287 278
3 276 284 287
3 284 288 287
3 287 288 315
3 284 286 288
3 286 564 568
3 288 286 568
3 288 568 614
3 295 301 297
3 295 298 301
3 298 299 301
3 289 301 299
3 289 290 309
3 290 291 309
3 297 301 306
3 297 306 305
3 305 306 308
3 305 308 307
3 307 589 587
3 307 308 589
3 289 309 301
3 301 309 306
3 306 309 310
3 309 316 310
3 306 310 308
3 310 593 308
3 308 593 589
3 310 616 593
3 280 314 291
3 280 287 314
3 287 315 314
3 291 314 309
3 309 314 316
3 314 315 316
3 315 612 316
3 288 614 315
3 315 614 612
3 310 316 616
3 316 612 616
3 317 321 318
3 317 318 327
3 319 320 321
3 319 344 320
3 321 320 318
3 318 320 322
3 318 322 328
3 322 340 328
3 320 345 322
3 322 345 351
3 322 351 340
3 317 327 326
3 326 330 329
3 326 327 330
3 327 331 330
3 318 328 327
3 327 328 331
3 328 335 331
3 328 342 335
3 329 330 389
3 329 389 388
3 330 392 389
3 330 331 392
3 331 398 392
3 331 335 398
3 328 340 341
3 328 341 342
3 335 342 337
3 335 337 338
3 335 338 398
3 398 338 400
3 319 343 344
3 343 347 344
3 343 346 347
3 344 347 348
3 320 344 345
3 344 348 345
3 345 348 355
3 345 355 353
3 345 352 351
3 345 353 352
3 346 476 347
3 346 475 476
3 347 476 479
3 347 479 348
3 348 484 355
3 348 479 484
3 355 357 353
3 355 358 357
3 355 484 358
3 484 486 358
3 388 389 390
3 389 392 391
3 390 389 391
3 392 398 393
3 392 393 391
3 393 398 401
3 390 391 394
3 394 391 395
3 391 393 395
3 394 395 413
3 393 396 395
3 393 401 396
3 396 401 410
3 395 396 414
3 396 410 411
3 396 411 412
3 398 400 403
3 398 403 401
3 401 403 404
3 401 404 410
3 413 414 415
3 413 395 414
3 415 414 418
3 396 416 414
3 396 412 416
3 414 416 418
3 416 412 428
3 416 424 418
3 416 428 424
3 415 418 417
3 417 418 423
3 424 428 429
3 424 429 430
3 417 423 422
3 422 423 426
3 422 426 425
3 423 427 426
3 418 424 423
3 423 424 427
3 424 430 434
3 424 434 427
3 425 426 563
3 425 563 562
3 426 566 563
3 427 434 572
3 426 427 566
3 427 572 566
3 434 430 433
3 434 433 436
3 434 436 572
3 572 436 571
3 475 477 476
3 476 478 479
3 477 478 476
3 479 480 484
3 479 478 480
3 484 480 489
3 477 481 478
3 481 482 478
3 478 482 480
3 481 500 482
3 480 482 483
3 480 483 489
3 483 497 489
3 482 501 483
3 483 498 497
3 483 499 498
3 484 488 486
3 484 489 488
3 489 491 488
3 489 497 491
3 500 502 501
3 500 501 482
3 502 505 501
3 483 501 503
3 483 503 499
3 503 515 499
3 501 505 503
3 503 505 511
3 503 511 515
3 502 504 505
3 504 510 505
3 511 516 515
3 511 517 516
3 504 509 510
3 509 513 510
3 509 512 513
3 510 513 514
3 505 510 511
3 510 514 511
3 511 522 517
3 511 514 522
3 512 588 513
3 512 587 588
3 513 588 591
3 514 600 522
3 513 591 514
3 514 591 600
3 522 520 517
3 522 521 520
3 522 600 521
3 600 599 521
3 562 563 564
3 563 566 565
3 564 563 565
3 566 572 567
3 572 576 567
3 566 567 565
3 570 582 583
3 570 583 584
3 564 565 568
3 568 565 569
3 565 567 569
3 568 569 614
3 567 570 569
3 570 576 582
3 567 576 570
3 569 570 615
3 572 571 574
3 572 574 576
3 576 574 575
3 576 575 582
3 595 597 596
3 595 598 597
3 587 589 588
3 588 590 591
3 589 590 588
3 600 592 604
3 591 592 600
3 591 590 592
3 593 594 590
3 589 593 590
3 590 594 592
3 593 616 594
3 592 594 595
3 595 596 604
3 592 595 604
3 594 617 595
3 600 602 599
3 600 604 602
3 604 603 602
3 604 596 603
3 612 615 617
3 613 584 598
3 570 613 615
3 570 584 613
3 595 617 613
3 595 613 598
3 613 617 615
3 612 614 615
3 614 569 615
3 612 617 616
3 616 617 594
3 323 360 333
3 324 350 362
3 325 332 340
3 325 351 349
3 325 340 351
3 325 324 323
3 323 324 364
3 325 323 332
3 325 349 324
3 336 342 332
3 336 332 334
3 334 333 339
3 333 366 339
3 323 333 332
3 332 333 334
3 334 405 399
3 336 337 342
3 336 338 337
3 336 399 338
3 336 334 399
3 399 400 338
3 334 339 405
3 339 369 406
3 339 406 405
3 332 341 340
3 332 342 341
3 356 349 353
3 356 354 349
3 324 349 350
3 354 359 350
3 350 359 375
3 349 354 350
3 349 351 352
3 349 352 353
3 356 353 357
3 356 357 358
3 356 358 485
3 356 485 354
3 354 485 492
3 485 358 486
3 354 492 359
3 359 493 378
3 359 492 493
3 323 364 360
3 360 361 367
3 360 364 361
3 324 362 364
3 362 363 364
3 362 376 363
3 361 364 363
3 361 363 365
3 361 365 368
3 363 377 365
3 365 373 368
3 365 377 381
3 365 381 373
3 373 381 384
3 333 360 366
3 360 367 366
3 339 366 369
3 366 370 369
3 366 367 370
3 367 371 370
3 361 368 367
3 367 368 371
3 369 370 441
3 406 369 439
3 369 441 439
3 370 371 442
3 370 442 441
3 368 372 371
3 371 448 442
3 371 372 448
3 372 450 448
3 368 373 372
3 372 373 374
3 373 384 374
3 372 374 450
3 374 385 451
3 374 451 450
3 350 375 362
3 362 375 376
3 359 378 375
3 375 379 376
3 375 378 379
3 363 376 377
3 376 379 380
3 376 380 377
3 378 528 379
3 493 526 378
3 378 526 528
3 379 529 380
3 379 528 529
3 377 380 382
3 377 382 381
3 381 382 383
3 381 383 384
3 380 535 382
3 380 529 535
3 382 535 537
3 382 537 383
3 383 538 386
3 383 537 538
3 374 384 385
3 383 386 384
3 384 386 385
3 385 386 387
3 385 460 451
3 385 387 460
3 387 463 460
3 386 541 387
3 386 538 541
3 387 541 543
3 387 543 463
3 463 543 621
3 399 405 397
3 399 402 400
3 402 403 400
3 402 404 403
3 402 410 404
3 399 397 402
3 405 406 407
3 405 407 397
3 406 440 407
3 402 408 410
3 402 397 408
3 397 407 409
3 407 445 409
3 397 409 408
3 408 409 419
3 408 411 410
3 408 412 411
3 409 454 419
3 408 420 412
3 420 428 412
3 420 431 428
3 408 419 420
3 420 419 421
3 419 456 421
3 420 421 431
3 421 458 432
3 431 429 428
3 431 430 429
3 435 430 431
3 435 431 437
3 421 432 431
3 431 432 437
3 437 432 438
3 432 466 438
3 435 433 430
3 435 436 433
3 435 573 436
3 435 437 573
3 573 571 436
3 437 579 573
3 437 438 579
3 438 469 580
3 438 580 579
3 406 439 440
3 439 441 440
3 440 441 443
3 441 442 443
3 443 442 444
3 407 440 445
3 440 443 445
3 443 446 445
3 409 445 454
3 445 446 454
3 443 444 446
3 446 444 447
3 446 447 455
3 442 448 444
3 448 450 449
3 444 448 449
3 444 449 447
3 449 450 452
3 450 451 452
3 451 461 452
3 447 449 453
3 449 452 453
3 453 452 462
3 419 454 456
3 446 455 454
3 454 455 456
3 455 459 456
3 447 457 455
3 455 457 459
3 459 457 467
3 421 456 458
3 456 459 458
3 458 459 468
3 447 453 457
3 457 453 472
3 453 462 472
3 457 472 467
3 451 460 461
3 460 463 464
3 460 464 461
3 452 461 462
3 461 465 462
3 461 464 465
3 462 465 473
3 463 622 464
3 463 621 622
3 464 625 465
3 464 622 625
3 465 625 640
3 432 458 466
3 458 468 466
3 438 466 469
3 466 468 470
3 466 470 469
3 459 467 468
3 468 467 471
3 468 471 470
3 469 470 632
3 580 469 630
3 469 632 630
3 470 471 633
3 470 633 632
3 467 472 474
3 472 473 474
3 462 473 472
3 467 474 471
3 474 473 639
3 465 640 473
3 473 640 639
3 471 474 642
3 474 639 642
3 471 642 633
3 485 487 492
3 485 486 490
3 490 486 488
3 490 488 491
3 490 491 497
3 485 490 487
3 492 494 493
3 492 487 494
3 493 494 527
3 490 497 495
3 490 495 487
3 487 496 494
3 494 496 532
3 487 495 496
3 495 506 496
3 495 497 498
3 495 498 499
3 496 506 547
3 495 499 507
3 507 499 515
3 507 515 518
3 495 507 506
3 507 508 506
3 506 508 549
3 507 518 508
3 508 519 551
3 518 515 516
3 518 516 517
3 523 518 517
3 523 524 518
3 508 518 519
3 518 524 519
3 524 525 519
3 519 525 553
3 523 517 520
3 523 520 521
3 523 521 601
3 523 601 524
3 601 521 599
3 524 601 607
3 524 607 525
3 525 608 556
3 525 607 608
3 493 527 526
3 526 527 528
3 527 530 528
3 528 530 529
3 530 531 529
3 494 532 527
3 527 532 530
3 530 532 533
3 496 547 532
3 532 547 533
3 530 533 531
3 533 534 531
3 533 548 534
3 529 531 535
3 535 536 537
3 531 536 535
3 536 539 537
3 537 539 538
3 538 539 542
3 531 534 536
3 534 540 536
3 536 540 539
3 540 545 539
3 538 542 541
3 541 544 543
3 541 542 544
3 543 623 621
3 543 544 623
3 539 545 542
3 542 545 546
3 542 546 544
3 545 560 546
3 544 546 627
3 544 627 623
3 546 655 627
3 506 549 547
3 533 547 548
3 547 549 548
3 548 549 552
3 534 548 550
3 548 552 550
3 552 554 550
3 508 551 549
3 549 551 552
3 551 555 552
3 534 550 540
3 550 559 540
3 540 559 545
3 550 554 559
3 519 553 551
3 551 553 555
3 525 556 553
3 553 557 555
3 553 556 557
3 552 555 554
3 555 558 554
3 555 557 558
3 556 647 557
3 608 645 556
3 556 645 647
3 557 648 558
3 557 647 648
3 554 561 559
3 559 561 560
3 545 559 560
3 561 654 560
3 546 560 655
3 560 654 655
3 554 558 561
3 558 658 561
3 561 658 654
3 558 648 658
3 573 577 571
3 573 579 578
3 577 574 571
3 577 575 574
3 577 582 575
3 573 578 577
3 579 580 581
3 579 581 578
3 580 631 581
3 585 583 582
3 585 584 583
3 577 585 582
3 577 578 585
3 578 586 585
3 578 581 586
3 581 636 586
3 585 586 619
3 610 596 597
3 610 597 598
3 601 599 605
3 605 599 602
3 605 602 603
3 605 603 596
3 601 605 606
3 601 606 607
3 607 609 608
3 607 606 609
3 608 609 646
3 605 596 610
3 605 610 606
3 606 610 611
3 610 620 611
3 606 611 609
3 609 611 651
3 618 598 584
3 585 618 584
3 610 598 618
3 585 619 618
3 610 618 620
3 618 619 620
3 619 660 620
3 586 662 619
3 611 620 664
3 621 623 622
3 622 623 624
3 622 624 625
3 625 626 640
3 624 626 625
3 623 627 624
3 624 627 628
3 627 655 628
3 626 628 629
3 624 628 626
3 626 629 641
3 628 656 629
3 580 630 631
3 630 632 631
3 631 632 634
3 632 633 634
3 634 633 635
3 581 631 636
3 631 634 636
3 634 638 636
3 586 636 662
3 636 638 662
3 638 635 637
3 634 635 638
3 638 637 663
3 639 641 643
3 639 640 641
3 626 641 640
3 639 643 642
3 633 642 635
3 635 642 643
3 637 643 644
3 643 641 644
3 629 644 641
3 635 643 637
3 608 646 645
3 645 646 647
3 646 649 647
3 647 649 648
3 649 650 648
3 609 651 646
3 649 651 653
3 646 651 649
3 611 664 651
3 651 664 653
3 653 652 650
3 653 665 652
3 649 653 650
3 654 659 656
3 654 656 655
3 628 655 656
3 652 657 659
3 657 656 659
3 629 656 657
3 654 658 659
3 650 659 658
3 648 650 658
3 650 652 659
3 660 663 665
3 637 661 663
3 652 665 661
3 663 661 665
3 619 662 660
3 638 663 662
3 660 662 663
3 620 660 664
3 660 665 664
3 653 664 665
3 661 644 657
3 629 657 644
3 637 644 661
3 652 661 657

