o 
usemtl rect-unit-cube-material
v 0 0 0
v 0 0 1
v 0 1 0
v 0 1 1
v 1 0 0
v 1 0 1
v 1 1 0
v 1 1 1
vn -0.816496580927726 -0.408248290463863 -0.408248290463863
vn -0.408248290463863 -0.816496580927726 0.408248290463863
vn -0.3333333333333333 0.6666666666666666 -0.6666666666666666
vn -0.6666666666666666 0.3333333333333333 0.6666666666666666
vn 0.3333333333333333 -0.6666666666666666 -0.6666666666666666
vn 0.6666666666666666 -0.3333333333333333 0.6666666666666666
vn 0.816496580927726 0.408248290463863 -0.408248290463863
vn 0.408248290463863 0.816496580927726 0.408248290463863
f 2//2 1//1 5//5
f 3//3 5//5 1//1
f 2//2 4//4 1//1
f 4//4 2//2 6//6
f 4//4 3//3 1//1
f 4//4 8//8 3//3
f 6//6 5//5 7//7
f 6//6 2//2 5//5
f 7//7 5//5 3//3
f 8//8 7//7 3//3
f 8//8 4//4 6//6
f 8//8 6//6 7//7
