solid exported
	facet normal 0 0 -1
		outer loop
			vertex -0.04330126941204071 0.02500000037252903 -30
			vertex -0.04330126941204071 -0.02500000037252903 -30
			vertex -0.04829629138112068 -0.012940952554345131 -30
		endloop
	endfacet
	facet normal 0 0 -1
		outer loop
			vertex -0.0353553406894207 0.0353553406894207 -30
			vertex -0.0353553406894207 -0.0353553406894207 -30
			vertex -0.04330126941204071 -0.02500000037252903 -30
		endloop
	endfacet
	facet normal 0 0 -1
		outer loop
			vertex -0.02500000037252903 0.04330126941204071 -30
			vertex -0.02500000037252903 -0.04330126941204071 -30
			vertex -0.0353553406894207 -0.0353553406894207 -30
		endloop
	endfacet
	facet normal -0.7933531942915278 -0.6087610586221289 0.0008262037849542486
		outer loop
			vertex 0 0 30
			vertex -0.04330126941204071 -0.02500000037252903 -30
			vertex -0.0353553406894207 -0.0353553406894207 -30
		endloop
	endfacet
	facet normal -0.923879195150686 -0.38268335494904687 0.0008262037658281003
		outer loop
			vertex 0 0 30
			vertex -0.04829629138112068 -0.012940952554345131 -30
			vertex -0.04330126941204071 -0.02500000037252903 -30
		endloop
	endfacet
	facet normal -0.9914445166520257 -0.13052619579207642 0.0008262037761880836
		outer loop
			vertex 0 0 30
			vertex -0.05000000074505806 0 -30
			vertex -0.04829629138112068 -0.012940952554345131 -30
		endloop
	endfacet
	facet normal -0.6087610586221289 -0.7933531942915278 0.0008262037849542486
		outer loop
			vertex 0 0 30
			vertex -0.0353553406894207 -0.0353553406894207 -30
			vertex -0.02500000037252903 -0.04330126941204071 -30
		endloop
	endfacet
	facet normal -0.38268335494904687 -0.923879195150686 0.0008262037658281003
		outer loop
			vertex 0 0 30
			vertex -0.02500000037252903 -0.04330126941204071 -30
			vertex -0.012940952554345131 -0.04829629138112068 -30
		endloop
	endfacet
	facet normal -0.13052619579207642 -0.9914445166520257 0.0008262037761880836
		outer loop
			vertex 0 0 30
			vertex -0.012940952554345131 -0.04829629138112068 -30
			vertex 0 -0.05000000074505806 -30
		endloop
	endfacet
	facet normal 0 0 -1
		outer loop
			vertex -0.012940952554345131 0.04829629138112068 -30
			vertex -0.012940952554345131 -0.04829629138112068 -30
			vertex -0.02500000037252903 -0.04330126941204071 -30
		endloop
	endfacet
	facet normal 0 0 -1
		outer loop
			vertex 0 0.05000000074505806 -30
			vertex 0 -0.05000000074505806 -30
			vertex -0.012940952554345131 -0.04829629138112068 -30
		endloop
	endfacet
	facet normal 0 0 -1
		outer loop
			vertex -0.04829629138112068 0.012940952554345131 -30
			vertex -0.04829629138112068 -0.012940952554345131 -30
			vertex -0.05000000074505806 0 -30
		endloop
	endfacet
	facet normal 0 0 -1
		outer loop
			vertex -0.04330126941204071 0.02500000037252903 -30
			vertex -0.04829629138112068 -0.012940952554345131 -30
			vertex -0.04829629138112068 0.012940952554345131 -30
		endloop
	endfacet
	facet normal 0 0 -1
		outer loop
			vertex -0.0353553406894207 0.0353553406894207 -30
			vertex -0.04330126941204071 -0.02500000037252903 -30
			vertex -0.04330126941204071 0.02500000037252903 -30
		endloop
	endfacet
	facet normal 0 0 -1
		outer loop
			vertex -0.02500000037252903 0.04330126941204071 -30
			vertex -0.0353553406894207 -0.0353553406894207 -30
			vertex -0.0353553406894207 0.0353553406894207 -30
		endloop
	endfacet
	facet normal -0.9914445166520257 0.13052619579207642 0.0008262037761880836
		outer loop
			vertex 0 0 30
			vertex -0.04829629138112068 0.012940952554345131 -30
			vertex -0.05000000074505806 0 -30
		endloop
	endfacet
	facet normal -0.923879195150686 0.38268335494904687 0.0008262037658281003
		outer loop
			vertex 0 0 30
			vertex -0.04330126941204071 0.02500000037252903 -30
			vertex -0.04829629138112068 0.012940952554345131 -30
		endloop
	endfacet
	facet normal -0.7933531942915278 0.6087610586221289 0.0008262037849542486
		outer loop
			vertex 0 0 30
			vertex -0.0353553406894207 0.0353553406894207 -30
			vertex -0.04330126941204071 0.02500000037252903 -30
		endloop
	endfacet
	facet normal 0 0 -1
		outer loop
			vertex -0.012940952554345131 0.04829629138112068 -30
			vertex -0.02500000037252903 -0.04330126941204071 -30
			vertex -0.02500000037252903 0.04330126941204071 -30
		endloop
	endfacet
	facet normal 0 0 -1
		outer loop
			vertex 0 0.05000000074505806 -30
			vertex -0.012940952554345131 -0.04829629138112068 -30
			vertex -0.012940952554345131 0.04829629138112068 -30
		endloop
	endfacet
	facet normal -0.6087610586221289 0.7933531942915278 0.0008262037849542486
		outer loop
			vertex 0 0 30
			vertex -0.02500000037252903 0.04330126941204071 -30
			vertex -0.0353553406894207 0.0353553406894207 -30
		endloop
	endfacet
	facet normal -0.38268335494904687 0.923879195150686 0.0008262037658281003
		outer loop
			vertex 0 0 30
			vertex -0.012940952554345131 0.04829629138112068 -30
			vertex -0.02500000037252903 0.04330126941204071 -30
		endloop
	endfacet
	facet normal -0.13052619579207642 0.9914445166520257 0.0008262037761880836
		outer loop
			vertex 0 0 30
			vertex 0 0.05000000074505806 -30
			vertex -0.012940952554345131 0.04829629138112068 -30
		endloop
	endfacet
	facet normal 0.13052619579207642 -0.9914445166520257 0.0008262037761880836
		outer loop
			vertex 0 0 30
			vertex 0 -0.05000000074505806 -30
			vertex 0.012940952554345131 -0.04829629138112068 -30
		endloop
	endfacet
	facet normal 0.38268335494904687 -0.923879195150686 0.0008262037658281003
		outer loop
			vertex 0 0 30
			vertex 0.012940952554345131 -0.04829629138112068 -30
			vertex 0.02500000037252903 -0.04330126941204071 -30
		endloop
	endfacet
	facet normal 0.6087610586221289 -0.7933531942915278 0.0008262037849542486
		outer loop
			vertex 0 0 30
			vertex 0.02500000037252903 -0.04330126941204071 -30
			vertex 0.0353553406894207 -0.0353553406894207 -30
		endloop
	endfacet
	facet normal 0 0 -1
		outer loop
			vertex 0.012940952554345131 0.04829629138112068 -30
			vertex 0.012940952554345131 -0.04829629138112068 -30
			vertex 0 -0.05000000074505806 -30
		endloop
	endfacet
	facet normal 0 0 -1
		outer loop
			vertex 0.02500000037252903 0.04330126941204071 -30
			vertex 0.02500000037252903 -0.04330126941204071 -30
			vertex 0.012940952554345131 -0.04829629138112068 -30
		endloop
	endfacet
	facet normal 0 0 -1
		outer loop
			vertex 0.0353553406894207 0.0353553406894207 -30
			vertex 0.0353553406894207 -0.0353553406894207 -30
			vertex 0.02500000037252903 -0.04330126941204071 -30
		endloop
	endfacet
	facet normal 0 0 -1
		outer loop
			vertex 0.04330126941204071 0.02500000037252903 -30
			vertex 0.04330126941204071 -0.02500000037252903 -30
			vertex 0.0353553406894207 -0.0353553406894207 -30
		endloop
	endfacet
	facet normal 0 0 -1
		outer loop
			vertex 0.04829629138112068 0.012940952554345131 -30
			vertex 0.04829629138112068 -0.012940952554345131 -30
			vertex 0.04330126941204071 -0.02500000037252903 -30
		endloop
	endfacet
	facet normal 0.7933531942915278 -0.6087610586221289 0.0008262037849542486
		outer loop
			vertex 0 0 30
			vertex 0.0353553406894207 -0.0353553406894207 -30
			vertex 0.04330126941204071 -0.02500000037252903 -30
		endloop
	endfacet
	facet normal 0.923879195150686 -0.38268335494904687 0.0008262037658281003
		outer loop
			vertex 0 0 30
			vertex 0.04330126941204071 -0.02500000037252903 -30
			vertex 0.04829629138112068 -0.012940952554345131 -30
		endloop
	endfacet
	facet normal 0.9914445166520257 -0.13052619579207642 0.0008262037761880836
		outer loop
			vertex 0 0 30
			vertex 0.04829629138112068 -0.012940952554345131 -30
			vertex 0.05000000074505806 0 -30
		endloop
	endfacet
	facet normal 0 0 -1
		outer loop
			vertex 0.012940952554345131 0.04829629138112068 -30
			vertex 0 -0.05000000074505806 -30
			vertex 0 0.05000000074505806 -30
		endloop
	endfacet
	facet normal 0 0 -1
		outer loop
			vertex 0.02500000037252903 0.04330126941204071 -30
			vertex 0.012940952554345131 -0.04829629138112068 -30
			vertex 0.012940952554345131 0.04829629138112068 -30
		endloop
	endfacet
	facet normal 0.13052619579207642 0.9914445166520257 0.0008262037761880836
		outer loop
			vertex 0 0 30
			vertex 0.012940952554345131 0.04829629138112068 -30
			vertex 0 0.05000000074505806 -30
		endloop
	endfacet
	facet normal 0.38268335494904687 0.923879195150686 0.0008262037658281003
		outer loop
			vertex 0 0 30
			vertex 0.02500000037252903 0.04330126941204071 -30
			vertex 0.012940952554345131 0.04829629138112068 -30
		endloop
	endfacet
	facet normal 0.6087610586221289 0.7933531942915278 0.0008262037849542486
		outer loop
			vertex 0 0 30
			vertex 0.0353553406894207 0.0353553406894207 -30
			vertex 0.02500000037252903 0.04330126941204071 -30
		endloop
	endfacet
	facet normal 0 0 -1
		outer loop
			vertex 0.0353553406894207 0.0353553406894207 -30
			vertex 0.02500000037252903 -0.04330126941204071 -30
			vertex 0.02500000037252903 0.04330126941204071 -30
		endloop
	endfacet
	facet normal 0 0 -1
		outer loop
			vertex 0.04330126941204071 0.02500000037252903 -30
			vertex 0.0353553406894207 -0.0353553406894207 -30
			vertex 0.0353553406894207 0.0353553406894207 -30
		endloop
	endfacet
	facet normal 0 0 -1
		outer loop
			vertex 0.04829629138112068 0.012940952554345131 -30
			vertex 0.04330126941204071 -0.02500000037252903 -30
			vertex 0.04330126941204071 0.02500000037252903 -30
		endloop
	endfacet
	facet normal 0 0 -1
		outer loop
			vertex 0.05000000074505806 0 -30
			vertex 0.04829629138112068 -0.012940952554345131 -30
			vertex 0.04829629138112068 0.012940952554345131 -30
		endloop
	endfacet
	facet normal 0.9914445166520257 0.13052619579207642 0.0008262037761880836
		outer loop
			vertex 0 0 30
			vertex 0.05000000074505806 0 -30
			vertex 0.04829629138112068 0.012940952554345131 -30
		endloop
	endfacet
	facet normal 0.923879195150686 0.38268335494904687 0.0008262037658281003
		outer loop
			vertex 0 0 30
			vertex 0.04829629138112068 0.012940952554345131 -30
			vertex 0.04330126941204071 0.02500000037252903 -30
		endloop
	endfacet
	facet normal 0.7933531942915278 0.6087610586221289 0.0008262037849542486
		outer loop
			vertex 0 0 30
			vertex 0.04330126941204071 0.02500000037252903 -30
			vertex 0.0353553406894207 0.0353553406894207 -30
		endloop
	endfacet
endsolid exported
