solid exported
	facet normal 0 0 -1
		outer loop
			vertex 0 0 0
			vertex 0.0010000020265579224 0.0005000010132789612 0
			vertex 0.001999996602535248 0.0005000010132789612 0
		endloop
	endfacet
	facet normal 0 0 -1
		outer loop
			vertex 0 0 0
			vertex 0.0010000020265579224 0.0015000030398368835 0
			vertex 0.0010000020265579224 0.0005000010132789612 0
		endloop
	endfacet
	facet normal 0 0 -1
		outer loop
			vertex 0 0 0
			vertex 0.001999996602535248 0.0005000010132789612 0
			vertex 0.0040000006556510925 0 0
		endloop
	endfacet
	facet normal 0 -1 0
		outer loop
			vertex 0 0 0.0002500000118743628
			vertex 0 0 0
			vertex 0.0040000006556510925 0 0
		endloop
	endfacet
	facet normal 1 0 0
		outer loop
			vertex 0.0010000020265579224 0.0005000010132789612 0.0002500000118743628
			vertex 0.0010000020265579224 0.0005000010132789612 0
			vertex 0.0010000020265579224 0.0015000030398368835 0
		endloop
	endfacet
	facet normal 0 1 0
		outer loop
			vertex 0.001999996602535248 0.0005000010132789612 0.0002500000118743628
			vertex 0.001999996602535248 0.0005000010132789612 0
			vertex 0.0010000020265579224 0.0005000010132789612 0
		endloop
	endfacet
	facet normal 0 0 1
		outer loop
			vertex 0 0 0.0002500000118743628
			vertex 0.001999996602535248 0.0005000010132789612 0.0002500000118743628
			vertex 0.0010000020265579224 0.0005000010132789612 0.0002500000118743628
		endloop
	endfacet
	facet normal -1 0 0
		outer loop
			vertex 0 0 0.0002500000118743628
			vertex 0 0.001999996602535248 0.0002500000118743628
			vertex 0 0 0
		endloop
	endfacet
	facet normal 0 0 1
		outer loop
			vertex 0 0 0.0002500000118743628
			vertex 0.0010000020265579224 0.0005000010132789612 0.0002500000118743628
			vertex 0.0010000020265579224 0.0015000030398368835 0.0002500000118743628
		endloop
	endfacet
	facet normal 0 0 1
		outer loop
			vertex 0 0 0.0002500000118743628
			vertex 0.0040000006556510925 0 0.0002500000118743628
			vertex 0.001999996602535248 0.0005000010132789612 0.0002500000118743628
		endloop
	endfacet
	facet normal 0 1 0
		outer loop
			vertex 0.0010000020265579224 0.0005000010132789612 0.0002500000118743628
			vertex 0.001999996602535248 0.0005000010132789612 0.0002500000118743628
			vertex 0.0010000020265579224 0.0005000010132789612 0
		endloop
	endfacet
	facet normal -1 0 0
		outer loop
			vertex 0.001999996602535248 0.0005000010132789612 0.0002500000118743628
			vertex 0.001999996602535248 0.0015000030398368835 0.0002500000118743628
			vertex 0.001999996602535248 0.0005000010132789612 0
		endloop
	endfacet
	facet normal 0 0 -1
		outer loop
			vertex 0 0.001999996602535248 0
			vertex 0.0010000020265579224 0.0015000030398368835 0
			vertex 0 0 0
		endloop
	endfacet
	facet normal -1 0 0
		outer loop
			vertex 0 0.001999996602535248 0.0002500000118743628
			vertex 0 0.001999996602535248 0
			vertex 0 0 0
		endloop
	endfacet
	facet normal -1 0 0
		outer loop
			vertex 0.001999996602535248 0.0015000030398368835 0.0002500000118743628
			vertex 0.001999996602535248 0.0015000030398368835 0
			vertex 0.001999996602535248 0.0005000010132789612 0
		endloop
	endfacet
	facet normal 0 0 -1
		outer loop
			vertex 0.0040000006556510925 0.001999996602535248 0
			vertex 0.0010000020265579224 0.0015000030398368835 0
			vertex 0 0.001999996602535248 0
		endloop
	endfacet
	facet normal 0 -1 0
		outer loop
			vertex 0.0010000020265579224 0.0015000030398368835 0.0002500000118743628
			vertex 0.0010000020265579224 0.0015000030398368835 0
			vertex 0.001999996602535248 0.0015000030398368835 0
		endloop
	endfacet
	facet normal 0 0 1
		outer loop
			vertex 0 0.001999996602535248 0.0002500000118743628
			vertex 0 0 0.0002500000118743628
			vertex 0.0010000020265579224 0.0015000030398368835 0.0002500000118743628
		endloop
	endfacet
	facet normal 1 0 0
		outer loop
			vertex 0.0010000020265579224 0.0015000030398368835 0.0002500000118743628
			vertex 0.0010000020265579224 0.0005000010132789612 0.0002500000118743628
			vertex 0.0010000020265579224 0.0015000030398368835 0
		endloop
	endfacet
	facet normal 0 1 0
		outer loop
			vertex 0 0.001999996602535248 0.0002500000118743628
			vertex 0.0040000006556510925 0.001999996602535248 0.0002500000118743628
			vertex 0 0.001999996602535248 0
		endloop
	endfacet
	facet normal 0 -1 0
		outer loop
			vertex 0.001999996602535248 0.0015000030398368835 0.0002500000118743628
			vertex 0.0010000020265579224 0.0015000030398368835 0.0002500000118743628
			vertex 0.001999996602535248 0.0015000030398368835 0
		endloop
	endfacet
	facet normal 0 0 1
		outer loop
			vertex 0.0040000006556510925 0.001999996602535248 0.0002500000118743628
			vertex 0 0.001999996602535248 0.0002500000118743628
			vertex 0.0010000020265579224 0.0015000030398368835 0.0002500000118743628
		endloop
	endfacet
	facet normal 0 0 -1
		outer loop
			vertex 0.0040000006556510925 0 0
			vertex 0.001999996602535248 0.0005000010132789612 0
			vertex 0.0040000006556510925 0.001999996602535248 0
		endloop
	endfacet
	facet normal 1 0 0
		outer loop
			vertex 0.0040000006556510925 0 0.0002500000118743628
			vertex 0.0040000006556510925 0 0
			vertex 0.0040000006556510925 0.001999996602535248 0
		endloop
	endfacet
	facet normal 0 -1 0
		outer loop
			vertex 0.0040000006556510925 0 0.0002500000118743628
			vertex 0 0 0.0002500000118743628
			vertex 0.0040000006556510925 0 0
		endloop
	endfacet
	facet normal 0 0 1
		outer loop
			vertex 0.0040000006556510925 0 0.0002500000118743628
			vertex 0.0040000006556510925 0.001999996602535248 0.0002500000118743628
			vertex 0.001999996602535248 0.0005000010132789612 0.0002500000118743628
		endloop
	endfacet
	facet normal 0 0 -1
		outer loop
			vertex 0.0040000006556510925 0.001999996602535248 0
			vertex 0.001999996602535248 0.0005000010132789612 0
			vertex 0.001999996602535248 0.0015000030398368835 0
		endloop
	endfacet
	facet normal 0 0 -1
		outer loop
			vertex 0.001999996602535248 0.0015000030398368835 0
			vertex 0.0010000020265579224 0.0015000030398368835 0
			vertex 0.0040000006556510925 0.001999996602535248 0
		endloop
	endfacet
	facet normal 0 1 0
		outer loop
			vertex 0.0040000006556510925 0.001999996602535248 0.0002500000118743628
			vertex 0.0040000006556510925 0.001999996602535248 0
			vertex 0 0.001999996602535248 0
		endloop
	endfacet
	facet normal 0 0 1
		outer loop
			vertex 0.0040000006556510925 0.001999996602535248 0.0002500000118743628
			vertex 0.001999996602535248 0.0015000030398368835 0.0002500000118743628
			vertex 0.001999996602535248 0.0005000010132789612 0.0002500000118743628
		endloop
	endfacet
	facet normal 0 0 1
		outer loop
			vertex 0.001999996602535248 0.0015000030398368835 0.0002500000118743628
			vertex 0.0040000006556510925 0.001999996602535248 0.0002500000118743628
			vertex 0.0010000020265579224 0.0015000030398368835 0.0002500000118743628
		endloop
	endfacet
	facet normal 1 0 0
		outer loop
			vertex 0.0040000006556510925 0.001999996602535248 0.0002500000118743628
			vertex 0.0040000006556510925 0 0.0002500000118743628
			vertex 0.0040000006556510925 0.001999996602535248 0
		endloop
	endfacet
endsolid exported
