{
    "extensionsUsed": [
        "KHR_materials_transmission",
        "KHR_materials_clearcoat",
        "KHR_materials_ior",
        "KHR_materials_specular",
        "KHR_materials_emissive_strength",
        "KHR_texture_transform"
    ],
    "accessors": [
        {
            "bufferView": 0,
            "componentType": 5126,
            "count": 2,
            "type": "VEC3",
            "max": [0.0, 0.0, 0.0],
            "min": [-1.0, 0.0, 0.0]
        },
        {
            "bufferView": 1,
            "componentType": 5126,
            "count": 2,
            "type": "VEC3",
            "max": [0.0, 0.0, 1.0],
            "min": [0.0, 0.0, 0.0]
        },
        {
            "bufferView": 2,
            "componentType": 5126,
            "count": 2,
            "type": "VEC3",
            "max": [1.0, 0.0, 1.0],
            "min": [1.0, 0.0, -1.0]
        },
        {
            "bufferView": 3,
            "componentType": 5126,
            "count": 2,
            "type": "VEC3",
            "max": [0.6666667, 0.0, 1.0],
            "min": [0.6666667, 0.0, -1.0]
        },
        {
            "bufferView": 4,
            "componentType": 5126,
            "count": 2,
            "type": "VEC3",
            "max": [0.33333334, 0.0, 1.0],
            "min": [0.33333334, 0.0, -1.0]
        },
        {
            "bufferView": 5,
            "componentType": 5126,
            "count": 2,
            "type": "VEC3",
            "max": [-0.33333334, 0.0, 1.0],
            "min": [-0.33333334, 0.0, -1.0]
        },
        {
            "bufferView": 6,
            "componentType": 5126,
            "count": 2,
            "type": "VEC3",
            "max": [-0.6666667, 0.0, 1.0],
            "min": [-0.6666667, 0.0, -1.0]
        },
        {
            "bufferView": 7,
            "componentType": 5126,
            "count": 2,
            "type": "VEC3",
            "max": [1.0, 0.0, 1.0],
            "min": [-1.0, 0.0, 1.0]
        },
        {
            "bufferView": 8,
            "componentType": 5126,
            "count": 2,
            "type": "VEC3",
            "max": [1.0, 0.0, 0.6666667],
            "min": [-1.0, 0.0, 0.6666667]
        },
        {
            "bufferView": 9,
            "componentType": 5126,
            "count": 2,
            "type": "VEC3",
            "max": [1.0, 0.0, 0.33333334],
            "min": [-1.0, 0.0, 0.33333334]
        },
        {
            "bufferView": 10,
            "componentType": 5126,
            "count": 2,
            "type": "VEC3",
            "max": [1.0, 0.0, -0.33333334],
            "min": [-1.0, 0.0, -0.33333334]
        },
        {
            "bufferView": 11,
            "componentType": 5126,
            "count": 2,
            "type": "VEC3",
            "max": [1.0, 0.0, -0.6666667],
            "min": [-1.0, 0.0, -0.6666667]
        },
        {
            "bufferView": 12,
            "componentType": 5126,
            "count": 2,
            "type": "VEC3",
            "max": [-1.0, 0.0, 1.0],
            "min": [-1.0, 0.0, -1.0]
        },
        {
            "bufferView": 13,
            "componentType": 5126,
            "count": 2,
            "type": "VEC3",
            "max": [1.0, 0.0, -1.0],
            "min": [-1.0, 0.0, -1.0]
        },
        {
            "bufferView": 14,
            "componentType": 5126,
            "count": 2,
            "type": "VEC3",
            "max": [0.0, 0.0, 0.0],
            "min": [0.0, 0.0, -1.0]
        },
        {
            "bufferView": 15,
            "componentType": 5126,
            "count": 2,
            "type": "VEC3",
            "max": [1.0, 0.0, 0.0],
            "min": [0.0, 0.0, 0.0]
        }
    ],
    "asset": {
        "version": "2.0"
    },
    "buffers": [
        {
            "uri": "data:application/octet-stream;base64,",
            "byteLength": 24
        },
        {
            "uri": "data:application/octet-stream;base64,",
            "byteLength": 24
        },
        {
            "uri": "data:application/octet-stream;base64,",
            "byteLength": 24
        },
        {
            "uri": "data:application/octet-stream;base64,",
            "byteLength": 24
        },
        {
            "uri": "data:application/octet-stream;base64,",
            "byteLength": 24
        },
        {
            "uri": "data:application/octet-stream;base64,",
            "byteLength": 24
        },
        {
            "uri": "data:application/octet-stream;base64,",
            "byteLength": 24
        },
        {
            "uri": "data:application/octet-stream;base64,",
            "byteLength": 24
        },
        {
            "uri": "data:application/octet-stream;base64,",
            "byteLength": 24
        },
        {
            "uri": "data:application/octet-stream;base64,",
            "byteLength": 24
        },
        {
            "uri": "data:application/octet-stream;base64,",
            "byteLength": 24
        },
        {
            "uri": "data:application/octet-stream;base64,",
            "byteLength": 24
        },
        {
            "uri": "data:application/octet-stream;base64,",
            "byteLength": 24
        },
        {
            "uri": "data:application/octet-stream;base64,",
            "byteLength": 24
        },
        {
            "uri": "data:application/octet-stream;base64,",
            "byteLength": 24
        },
        {
            "uri": "data:application/octet-stream;base64,",
            "byteLength": 24
        }
    ],
    "bufferViews": [
        {
            "buffer": 0,
            "byteLength": 24,
            "target": 34962
        },
        {
            "buffer": 1,
            "byteLength": 24,
            "target": 34962
        },
        {
            "buffer": 2,
            "byteLength": 24,
            "target": 34962
        },
        {
            "buffer": 3,
            "byteLength": 24,
            "target": 34962
        },
        {
            "buffer": 4,
            "byteLength": 24,
            "target": 34962
        },
        {
            "buffer": 5,
            "byteLength": 24,
            "target": 34962
        },
        {
            "buffer": 6,
            "byteLength": 24,
            "target": 34962
        },
        {
            "buffer": 7,
            "byteLength": 24,
            "target": 34962
        },
        {
            "buffer": 8,
            "byteLength": 24,
            "target": 34962
        },
        {
            "buffer": 9,
            "byteLength": 24,
            "target": 34962
        },
        {
            "buffer": 10,
            "byteLength": 24,
            "target": 34962
        },
        {
            "buffer": 11,
            "byteLength": 24,
            "target": 34962
        },
        {
            "buffer": 12,
            "byteLength": 24,
            "target": 34962
        },
        {
            "buffer": 13,
            "byteLength": 24,
            "target": 34962
        },
        {
            "buffer": 14,
            "byteLength": 24,
            "target": 34962
        },
        {
            "buffer": 15,
            "byteLength": 24,
            "target": 34962
        }
    ],
    "materials": [
        {
            "pbrMetallicRoughness": {
                "baseColorFactor": [0.96862745, 0.9529412, 0.8901961, 1.0]
            }
        },
        {
            "pbrMetallicRoughness": {
                "baseColorFactor": [0.96862745, 0.9529412, 0.8901961, 1.0]
            }
        },
        {
            "pbrMetallicRoughness": {
                "baseColorFactor": [0.96862745, 0.9529412, 0.8901961, 1.0]
            }
        },
        {
            "pbrMetallicRoughness": {
                "baseColorFactor": [0.96862745, 0.9529412, 0.8901961, 1.0]
            }
        },
        {
            "pbrMetallicRoughness": {
                "baseColorFactor": [0.96862745, 0.9529412, 0.8901961, 1.0]
            }
        },
        {
            "pbrMetallicRoughness": {
                "baseColorFactor": [0.96862745, 0.9529412, 0.8901961, 1.0]
            }
        },
        {
            "pbrMetallicRoughness": {
                "baseColorFactor": [0.96862745, 0.9529412, 0.8901961, 1.0]
            }
        },
        {
            "pbrMetallicRoughness": {
                "baseColorFactor": [0.96862745, 0.9529412, 0.8901961, 1.0]
            }
        },
        {
            "pbrMetallicRoughness": {
                "baseColorFactor": [0.96862745, 0.9529412, 0.8901961, 1.0]
            }
        },
        {
            "pbrMetallicRoughness": {
                "baseColorFactor": [0.96862745, 0.9529412, 0.8901961, 1.0]
            }
        },
        {
            "pbrMetallicRoughness": {
                "baseColorFactor": [0.96862745, 0.9529412, 0.8901961, 1.0]
            }
        },
        {
            "pbrMetallicRoughness": {
                "baseColorFactor": [0.96862745, 0.9529412, 0.8901961, 1.0]
            }
        },
        {
            "pbrMetallicRoughness": {
                "baseColorFactor": [0.96862745, 0.9529412, 0.8901961, 1.0]
            }
        },
        {
            "pbrMetallicRoughness": {
                "baseColorFactor": [0.96862745, 0.9529412, 0.8901961, 1.0]
            }
        },
        {
            "pbrMetallicRoughness": {
                "baseColorFactor": [0.0, 0.6509804, 0.6156863, 1.0]
            }
        },
        {
            "pbrMetallicRoughness": {
                "baseColorFactor": [1.0, 0.20392157, 0.30980393, 1.0]
            }
        }
    ],
    "meshes": [
        {
            "primitives": [
                {
                    "attributes": {
                        "POSITION": 0
                    },
                    "material": 0,
                    "mode": 3
                }
            ]
        },
        {
            "primitives": [
                {
                    "attributes": {
                        "POSITION": 1
                    },
                    "material": 1,
                    "mode": 3
                }
            ]
        },
        {
            "primitives": [
                {
                    "attributes": {
                        "POSITION": 2
                    },
                    "material": 2,
                    "mode": 3
                }
            ]
        },
        {
            "primitives": [
                {
                    "attributes": {
                        "POSITION": 3
                    },
                    "material": 3,
                    "mode": 3
                }
            ]
        },
        {
            "primitives": [
                {
                    "attributes": {
                        "POSITION": 4
                    },
                    "material": 4,
                    "mode": 3
                }
            ]
        },
        {
            "primitives": [
                {
                    "attributes": {
                        "POSITION": 5
                    },
                    "material": 5,
                    "mode": 3
                }
            ]
        },
        {
            "primitives": [
                {
                    "attributes": {
                        "POSITION": 6
                    },
                    "material": 6,
                    "mode": 3
                }
            ]
        },
        {
            "primitives": [
                {
                    "attributes": {
                        "POSITION": 7
                    },
                    "material": 7,
                    "mode": 3
                }
            ]
        },
        {
            "primitives": [
                {
                    "attributes": {
                        "POSITION": 8
                    },
                    "material": 8,
                    "mode": 3
                }
            ]
        },
        {
            "primitives": [
                {
                    "attributes": {
                        "POSITION": 9
                    },
                    "material": 9,
                    "mode": 3
                }
            ]
        },
        {
            "primitives": [
                {
                    "attributes": {
                        "POSITION": 10
                    },
                    "material": 10,
                    "mode": 3
                }
            ]
        },
        {
            "primitives": [
                {
                    "attributes": {
                        "POSITION": 11
                    },
                    "material": 11,
                    "mode": 3
                }
            ]
        },
        {
            "primitives": [
                {
                    "attributes": {
                        "POSITION": 12
                    },
                    "material": 12,
                    "mode": 3
                }
            ]
        },
        {
            "primitives": [
                {
                    "attributes": {
                        "POSITION": 13
                    },
                    "material": 13,
                    "mode": 3
                }
            ]
        },
        {
            "primitives": [
                {
                    "attributes": {
                        "POSITION": 14
                    },
                    "material": 14,
                    "mode": 3
                }
            ]
        },
        {
            "primitives": [
                {
                    "attributes": {
                        "POSITION": 15
                    },
                    "material": 15,
                    "mode": 3
                }
            ]
        }
    ],
    "nodes": [
        {
            "mesh": 0
        },
        {
            "children": [0, 3, 4, 5, 6, 7, 8, 9, 10, 11, 12, 13, 14, 15],
            "name": "grid"
        },
        {
            "children": [1, 17, 19],
            "name": "coordinateSystem"
        },
        {
            "mesh": 1
        },
        {
            "mesh": 2
        },
        {
            "mesh": 3
        },
        {
            "mesh": 4
        },
        {
            "mesh": 5
        },
        {
            "mesh": 6
        },
        {
            "mesh": 7
        },
        {
            "mesh": 8
        },
        {
            "mesh": 9
        },
        {
            "mesh": 10
        },
        {
            "mesh": 11
        },
        {
            "mesh": 12
        },
        {
            "mesh": 13
        },
        {
            "mesh": 14
        },
        {
            "children": [16],
            "name": "y"
        },
        {
            "mesh": 15
        },
        {
            "children": [18],
            "name": "x"
        }
    ],
    "samplers": [
        {
            "magFilter": 9729,
            "minFilter": 9729
        }
    ],
    "scene": 0,
    "scenes": [
        {
            "nodes": [2],
            "extensions": {}
        }
    ],
    "extensions": {}
}
