ISO-10303-21;
HEADER;
FILE_DESCRIPTION(('Open CASCADE Model'),'2;1');
FILE_NAME('Open CASCADE Shape Model','1970-01-01T00:00:00',('Author'),(
    'Open CASCADE'),'Open CASCADE STEP processor 8.0','Open CASCADE 8.0'
  ,'Unknown');
FILE_SCHEMA((
'AP242_MANAGED_MODEL_BASED_3D_ENGINEERING_MIM_LF {1 0 10303 442 1 1 4 }'
    ));
ENDSEC;
DATA;
#1 = APPLICATION_PROTOCOL_DEFINITION('international standard',
  'ap242_managed_model_based_3d_engineering',2013,#2);
#2 = APPLICATION_CONTEXT('Managed model based 3d engineering');
#3 = SHAPE_DEFINITION_REPRESENTATION(#4,#10);
#4 = PRODUCT_DEFINITION_SHAPE('','',#5);
#5 = PRODUCT_DEFINITION('design','',#6,#9);
#6 = PRODUCT_DEFINITION_FORMATION('','',#7);
#7 = PRODUCT('Open CASCADE STEP translator 8.0',
  'Open CASCADE STEP translator 8.0','',(#8));
#8 = PRODUCT_CONTEXT('',#2,'mechanical');
#9 = PRODUCT_DEFINITION_CONTEXT('part definition',#2,'design');
#10 = ADVANCED_BREP_SHAPE_REPRESENTATION('',(#11,#15),#306);
#11 = AXIS2_PLACEMENT_3D('',#12,#13,#14);
#12 = CARTESIAN_POINT('',(0.,0.,0.));
#13 = DIRECTION('',(0.,0.,1.));
#14 = DIRECTION('',(1.,0.,-0.));
#15 = MANIFOLD_SOLID_BREP('',#16);
#16 = CLOSED_SHELL('',(#17,#179,#301));
#17 = ADVANCED_FACE('',(#18),#33,.T.);
#18 = FACE_BOUND('',#19,.T.);
#19 = EDGE_LOOP('',(#20,#56));
#20 = ORIENTED_EDGE('',*,*,#21,.T.);
#21 = EDGE_CURVE('',#22,#24,#26,.T.);
#22 = VERTEX_POINT('',#23);
#23 = CARTESIAN_POINT('',(6.,-1.469576158977E-15,-8.));
#24 = VERTEX_POINT('',#25);
#25 = CARTESIAN_POINT('',(6.,-1.469576158977E-15,8.));
#26 = SURFACE_CURVE('',#27,(#32,#44),.PCURVE_S1.);
#27 = CIRCLE('',#28,10.);
#28 = AXIS2_PLACEMENT_3D('',#29,#30,#31);
#29 = CARTESIAN_POINT('',(0.,0.,0.));
#30 = DIRECTION('',(-2.449293598295E-16,-1.,0.));
#31 = DIRECTION('',(1.,-2.449293598295E-16,0.));
#32 = PCURVE('',#33,#38);
#33 = SPHERICAL_SURFACE('',#34,10.);
#34 = AXIS2_PLACEMENT_3D('',#35,#36,#37);
#35 = CARTESIAN_POINT('',(0.,0.,0.));
#36 = DIRECTION('',(0.,0.,1.));
#37 = DIRECTION('',(1.,0.,0.));
#38 = DEFINITIONAL_REPRESENTATION('',(#39),#43);
#39 = LINE('',#40,#41);
#40 = CARTESIAN_POINT('',(6.28318530718,-6.28318530718));
#41 = VECTOR('',#42,1.);
#42 = DIRECTION('',(0.,1.));
#43 = ( GEOMETRIC_REPRESENTATION_CONTEXT(2) 
PARAMETRIC_REPRESENTATION_CONTEXT() REPRESENTATION_CONTEXT('2D SPACE',''
  ) );
#44 = PCURVE('',#45,#50);
#45 = SPHERICAL_SURFACE('',#46,10.);
#46 = AXIS2_PLACEMENT_3D('',#47,#48,#49);
#47 = CARTESIAN_POINT('',(0.,0.,0.));
#48 = DIRECTION('',(0.,0.,1.));
#49 = DIRECTION('',(1.,0.,0.));
#50 = DEFINITIONAL_REPRESENTATION('',(#51),#55);
#51 = LINE('',#52,#53);
#52 = CARTESIAN_POINT('',(0.,-6.28318530718));
#53 = VECTOR('',#54,1.);
#54 = DIRECTION('',(0.,1.));
#55 = ( GEOMETRIC_REPRESENTATION_CONTEXT(2) 
PARAMETRIC_REPRESENTATION_CONTEXT() REPRESENTATION_CONTEXT('2D SPACE',''
  ) );
#56 = ORIENTED_EDGE('',*,*,#57,.T.);
#57 = EDGE_CURVE('',#24,#22,#58,.T.);
#58 = SURFACE_CURVE('',#59,(#64,#119),.PCURVE_S1.);
#59 = CIRCLE('',#60,8.);
#60 = AXIS2_PLACEMENT_3D('',#61,#62,#63);
#61 = CARTESIAN_POINT('',(6.,0.,0.));
#62 = DIRECTION('',(1.,0.,0.));
#63 = DIRECTION('',(-0.,0.,1.));
#64 = PCURVE('',#33,#65);
#65 = DEFINITIONAL_REPRESENTATION('',(#66),#118);
#66 = B_SPLINE_CURVE_WITH_KNOTS('',8,(#67,#68,#69,#70,#71,#72,#73,#74,
    #75,#76,#77,#78,#79,#80,#81,#82,#83,#84,#85,#86,#87,#88,#89,#90,#91,
    #92,#93,#94,#95,#96,#97,#98,#99,#100,#101,#102,#103,#104,#105,#106,
    #107,#108,#109,#110,#111,#112,#113,#114,#115,#116,#117),
  .UNSPECIFIED.,.F.,.F.,(9,7,7,7,7,7,7,9),(0.,0.392699081699,
    0.736310778185,1.337631247036,1.788621598675,2.465107126132,
    2.803349889861,3.14159265359),.UNSPECIFIED.);
#67 = CARTESIAN_POINT('',(6.28318530718,0.927295218002));
#68 = CARTESIAN_POINT('',(6.21773546023,0.927295218002));
#69 = CARTESIAN_POINT('',(6.152285714076,0.923623462434));
#70 = CARTESIAN_POINT('',(6.087929972507,0.916280210552));
#71 = CARTESIAN_POINT('',(6.025766304098,0.905383831458));
#72 = CARTESIAN_POINT('',(5.96667400493,0.891176931237));
#73 = CARTESIAN_POINT('',(5.911128891612,0.873961550173));
#74 = CARTESIAN_POINT('',(5.859352653477,0.854048812801));
#75 = CARTESIAN_POINT('',(5.76939580123,0.812217252254));
#76 = CARTESIAN_POINT('',(5.730324772745,0.790860307287));
#77 = CARTESIAN_POINT('',(5.69418412242,0.767868643526));
#78 = CARTESIAN_POINT('',(5.660885023268,0.743435969851));
#79 = CARTESIAN_POINT('',(5.630279270502,0.717736957307));
#80 = CARTESIAN_POINT('',(5.602195680324,0.690924974363));
#81 = CARTESIAN_POINT('',(5.576461800341,0.663134421241));
#82 = CARTESIAN_POINT('',(5.511696648164,0.584341944934));
#83 = CARTESIAN_POINT('',(5.477167828523,0.531563678415));
#84 = CARTESIAN_POINT('',(5.448431568457,0.476776911474));
#85 = CARTESIAN_POINT('',(5.424660595445,0.420450975137));
#86 = CARTESIAN_POINT('',(5.405243634843,0.362938467782));
#87 = CARTESIAN_POINT('',(5.38971265968,0.304524474481));
#88 = CARTESIAN_POINT('',(5.377738367745,0.245446394669));
#89 = CARTESIAN_POINT('',(5.362633566674,0.141267599968));
#90 = CARTESIAN_POINT('',(5.358040533224,9.636494029043E-02));
#91 = CARTESIAN_POINT('',(5.3552379569,5.129670207673E-02));
#92 = CARTESIAN_POINT('',(5.35417314497,6.143829714674E-03));
#93 = CARTESIAN_POINT('',(5.354827096986,-3.901687792508E-02));
#94 = CARTESIAN_POINT('',(5.35721322228,-8.41088642891E-02));
#95 = CARTESIAN_POINT('',(5.361378385522,-0.129051945104));
#96 = CARTESIAN_POINT('',(5.376448122598,-0.240818261096));
#97 = CARTESIAN_POINT('',(5.389680972097,-0.307345795744));
#98 = CARTESIAN_POINT('',(5.407388491565,-0.373044453434));
#99 = CARTESIAN_POINT('',(5.430034278091,-0.437580218821));
#100 = CARTESIAN_POINT('',(5.458311969784,-0.500539673538));
#101 = CARTESIAN_POINT('',(5.493130665352,-0.561402768279));
#102 = CARTESIAN_POINT('',(5.535802124697,-0.619435311277));
#103 = CARTESIAN_POINT('',(5.613523462875,-0.700717879179));
#104 = CARTESIAN_POINT('',(5.641716161482,-0.726851042972));
#105 = CARTESIAN_POINT('',(5.672356000265,-0.751896555907));
#106 = CARTESIAN_POINT('',(5.70560104031,-0.775710508178));
#107 = CARTESIAN_POINT('',(5.741596559412,-0.798130261081));
#108 = CARTESIAN_POINT('',(5.780444721215,-0.81897402299));
#109 = CARTESIAN_POINT('',(5.822162368883,-0.838046179187));
#110 = CARTESIAN_POINT('',(5.911109848293,-0.872260038747));
#111 = CARTESIAN_POINT('',(5.958339737687,-0.887401746231));
#112 = CARTESIAN_POINT('',(6.008213231735,-0.900384514809));
#113 = CARTESIAN_POINT('',(6.060488557911,-0.911016817417));
#114 = CARTESIAN_POINT('',(6.114763395748,-0.919123261712));
#115 = CARTESIAN_POINT('',(6.170437737143,-0.924571205031));
#116 = CARTESIAN_POINT('',(6.226811513225,-0.927295218002));
#117 = CARTESIAN_POINT('',(6.28318530718,-0.927295218002));
#118 = ( GEOMETRIC_REPRESENTATION_CONTEXT(2) 
PARAMETRIC_REPRESENTATION_CONTEXT() REPRESENTATION_CONTEXT('2D SPACE',''
  ) );
#119 = PCURVE('',#120,#125);
#120 = SPHERICAL_SURFACE('',#121,10.);
#121 = AXIS2_PLACEMENT_3D('',#122,#123,#124);
#122 = CARTESIAN_POINT('',(12.,0.,0.));
#123 = DIRECTION('',(0.,0.,1.));
#124 = DIRECTION('',(1.,0.,0.));
#125 = DEFINITIONAL_REPRESENTATION('',(#126),#178);
#126 = B_SPLINE_CURVE_WITH_KNOTS('',8,(#127,#128,#129,#130,#131,#132,
    #133,#134,#135,#136,#137,#138,#139,#140,#141,#142,#143,#144,#145,
    #146,#147,#148,#149,#150,#151,#152,#153,#154,#155,#156,#157,#158,
    #159,#160,#161,#162,#163,#164,#165,#166,#167,#168,#169,#170,#171,
    #172,#173,#174,#175,#176,#177),.UNSPECIFIED.,.F.,.F.,(9,7,7,7,7,7,7,
    9),(0.,0.392699081699,0.736310778185,1.337631247036,1.788621598675,
    2.465107126132,2.803349889861,3.14159265359),.UNSPECIFIED.);
#127 = CARTESIAN_POINT('',(3.14159265359,0.927295218002));
#128 = CARTESIAN_POINT('',(3.20704250054,0.927295218002));
#129 = CARTESIAN_POINT('',(3.272492246692,0.923623462434));
#130 = CARTESIAN_POINT('',(3.336847988259,0.916280210552));
#131 = CARTESIAN_POINT('',(3.399011656669,0.905383831458));
#132 = CARTESIAN_POINT('',(3.458103955829,0.891176931237));
#133 = CARTESIAN_POINT('',(3.513649069157,0.873961550173));
#134 = CARTESIAN_POINT('',(3.565425307292,0.854048812801));
#135 = CARTESIAN_POINT('',(3.65538215954,0.812217252254));
#136 = CARTESIAN_POINT('',(3.694453188025,0.790860307287));
#137 = CARTESIAN_POINT('',(3.730593838348,0.767868643526));
#138 = CARTESIAN_POINT('',(3.763892937501,0.743435969851));
#139 = CARTESIAN_POINT('',(3.794498690268,0.717736957307));
#140 = CARTESIAN_POINT('',(3.822582280446,0.690924974363));
#141 = CARTESIAN_POINT('',(3.848316160428,0.663134421241));
#142 = CARTESIAN_POINT('',(3.913081312605,0.584341944934));
#143 = CARTESIAN_POINT('',(3.947610132248,0.531563678415));
#144 = CARTESIAN_POINT('',(3.976346392285,0.476776911474));
#145 = CARTESIAN_POINT('',(4.000117365333,0.420450975137));
#146 = CARTESIAN_POINT('',(4.019534325909,0.362938467782));
#147 = CARTESIAN_POINT('',(4.03506530109,0.304524474481));
#148 = CARTESIAN_POINT('',(4.047039593024,0.245446394669));
#149 = CARTESIAN_POINT('',(4.062144394095,0.141267599968));
#150 = CARTESIAN_POINT('',(4.066737427546,9.636494029043E-02));
#151 = CARTESIAN_POINT('',(4.06954000387,5.129670207673E-02));
#152 = CARTESIAN_POINT('',(4.0706048158,6.143829714674E-03));
#153 = CARTESIAN_POINT('',(4.069950863783,-3.901687792508E-02));
#154 = CARTESIAN_POINT('',(4.067564738489,-8.41088642891E-02));
#155 = CARTESIAN_POINT('',(4.063399575248,-0.129051945104));
#156 = CARTESIAN_POINT('',(4.048329838171,-0.240818261096));
#157 = CARTESIAN_POINT('',(4.035096988676,-0.307345795744));
#158 = CARTESIAN_POINT('',(4.017389469191,-0.373044453434));
#159 = CARTESIAN_POINT('',(3.994743682695,-0.437580218821));
#160 = CARTESIAN_POINT('',(3.966465990967,-0.500539673538));
#161 = CARTESIAN_POINT('',(3.931647295421,-0.561402768279));
#162 = CARTESIAN_POINT('',(3.888975836073,-0.619435311277));
#163 = CARTESIAN_POINT('',(3.811254497895,-0.700717879179));
#164 = CARTESIAN_POINT('',(3.783061799287,-0.726851042972));
#165 = CARTESIAN_POINT('',(3.752421960505,-0.751896555907));
#166 = CARTESIAN_POINT('',(3.719176920459,-0.775710508178));
#167 = CARTESIAN_POINT('',(3.683181401357,-0.798130261081));
#168 = CARTESIAN_POINT('',(3.644333239555,-0.81897402299));
#169 = CARTESIAN_POINT('',(3.602615591886,-0.838046179187));
#170 = CARTESIAN_POINT('',(3.513668112477,-0.872260038747));
#171 = CARTESIAN_POINT('',(3.46643822308,-0.887401746231));
#172 = CARTESIAN_POINT('',(3.416564729041,-0.900384514809));
#173 = CARTESIAN_POINT('',(3.36428940286,-0.911016817417));
#174 = CARTESIAN_POINT('',(3.310014565033,-0.919123261712));
#175 = CARTESIAN_POINT('',(3.254340223624,-0.924571205031));
#176 = CARTESIAN_POINT('',(3.197966447545,-0.927295218002));
#177 = CARTESIAN_POINT('',(3.14159265359,-0.927295218002));
#178 = ( GEOMETRIC_REPRESENTATION_CONTEXT(2) 
PARAMETRIC_REPRESENTATION_CONTEXT() REPRESENTATION_CONTEXT('2D SPACE',''
  ) );
#179 = ADVANCED_FACE('',(#180),#45,.T.);
#180 = FACE_BOUND('',#181,.T.);
#181 = EDGE_LOOP('',(#182,#300));
#182 = ORIENTED_EDGE('',*,*,#183,.T.);
#183 = EDGE_CURVE('',#22,#24,#184,.T.);
#184 = SURFACE_CURVE('',#185,(#190,#245),.PCURVE_S1.);
#185 = CIRCLE('',#186,8.);
#186 = AXIS2_PLACEMENT_3D('',#187,#188,#189);
#187 = CARTESIAN_POINT('',(6.,0.,0.));
#188 = DIRECTION('',(1.,0.,0.));
#189 = DIRECTION('',(-0.,0.,1.));
#190 = PCURVE('',#45,#191);
#191 = DEFINITIONAL_REPRESENTATION('',(#192),#244);
#192 = B_SPLINE_CURVE_WITH_KNOTS('',8,(#193,#194,#195,#196,#197,#198,
    #199,#200,#201,#202,#203,#204,#205,#206,#207,#208,#209,#210,#211,
    #212,#213,#214,#215,#216,#217,#218,#219,#220,#221,#222,#223,#224,
    #225,#226,#227,#228,#229,#230,#231,#232,#233,#234,#235,#236,#237,
    #238,#239,#240,#241,#242,#243),.UNSPECIFIED.,.F.,.F.,(9,7,7,7,7,7,7,
    9),(3.14159265359,3.534291735289,3.877903431775,4.479223900626,
    4.930214252264,5.606699779722,5.944942543451,6.28318530718),
  .UNSPECIFIED.);
#193 = CARTESIAN_POINT('',(0.,-0.927295218002));
#194 = CARTESIAN_POINT('',(6.544984694979E-02,-0.927295218002));
#195 = CARTESIAN_POINT('',(0.130899593103,-0.923623462433));
#196 = CARTESIAN_POINT('',(0.195255334671,-0.916280210553));
#197 = CARTESIAN_POINT('',(0.257419003084,-0.905383831456));
#198 = CARTESIAN_POINT('',(0.316511302248,-0.891176931238));
#199 = CARTESIAN_POINT('',(0.372056415568,-0.873961550172));
#200 = CARTESIAN_POINT('',(0.423832653702,-0.854048812801));
#201 = CARTESIAN_POINT('',(0.51378950595,-0.812217252254));
#202 = CARTESIAN_POINT('',(0.552860534435,-0.790860307287));
#203 = CARTESIAN_POINT('',(0.589001184759,-0.767868643526));
#204 = CARTESIAN_POINT('',(0.622300283911,-0.743435969851));
#205 = CARTESIAN_POINT('',(0.652906036678,-0.717736957307));
#206 = CARTESIAN_POINT('',(0.680989626856,-0.690924974363));
#207 = CARTESIAN_POINT('',(0.706723506838,-0.663134421241));
#208 = CARTESIAN_POINT('',(0.771488659015,-0.584341944934));
#209 = CARTESIAN_POINT('',(0.806017478657,-0.531563678415));
#210 = CARTESIAN_POINT('',(0.834753738727,-0.476776911473));
#211 = CARTESIAN_POINT('',(0.85852471173,-0.420450975136));
#212 = CARTESIAN_POINT('',(0.877941672342,-0.36293846778));
#213 = CARTESIAN_POINT('',(0.893472647499,-0.304524474481));
#214 = CARTESIAN_POINT('',(0.905446939435,-0.245446394669));
#215 = CARTESIAN_POINT('',(0.920551740506,-0.141267599968));
#216 = CARTESIAN_POINT('',(0.925144773956,-9.636494029043E-02));
#217 = CARTESIAN_POINT('',(0.92794735028,-5.129670207673E-02));
#218 = CARTESIAN_POINT('',(0.92901216221,-6.143829714674E-03));
#219 = CARTESIAN_POINT('',(0.928358210193,3.901687792508E-02));
#220 = CARTESIAN_POINT('',(0.925972084899,8.41088642891E-02));
#221 = CARTESIAN_POINT('',(0.921806921658,0.129051945104));
#222 = CARTESIAN_POINT('',(0.906737184581,0.240818261096));
#223 = CARTESIAN_POINT('',(0.893504335083,0.307345795744));
#224 = CARTESIAN_POINT('',(0.875796815613,0.373044453435));
#225 = CARTESIAN_POINT('',(0.85315102909,0.437580218819));
#226 = CARTESIAN_POINT('',(0.824873337391,0.500539673539));
#227 = CARTESIAN_POINT('',(0.790054641829,0.561402768279));
#228 = CARTESIAN_POINT('',(0.747383182483,0.619435311277));
#229 = CARTESIAN_POINT('',(0.669661844305,0.700717879179));
#230 = CARTESIAN_POINT('',(0.641469145697,0.726851042972));
#231 = CARTESIAN_POINT('',(0.610829306914,0.751896555906));
#232 = CARTESIAN_POINT('',(0.577584266869,0.775710508178));
#233 = CARTESIAN_POINT('',(0.541588747768,0.798130261081));
#234 = CARTESIAN_POINT('',(0.502740585965,0.81897402299));
#235 = CARTESIAN_POINT('',(0.461022938297,0.838046179187));
#236 = CARTESIAN_POINT('',(0.372075458887,0.872260038747));
#237 = CARTESIAN_POINT('',(0.324845569493,0.88740174623));
#238 = CARTESIAN_POINT('',(0.274972075445,0.900384514813));
#239 = CARTESIAN_POINT('',(0.222696749268,0.911016817412));
#240 = CARTESIAN_POINT('',(0.168421911431,0.919123261716));
#241 = CARTESIAN_POINT('',(0.112747570037,0.924571205031));
#242 = CARTESIAN_POINT('',(5.63737939548E-02,0.927295218002));
#243 = CARTESIAN_POINT('',(3.265724797726E-16,0.927295218002));
#244 = ( GEOMETRIC_REPRESENTATION_CONTEXT(2) 
PARAMETRIC_REPRESENTATION_CONTEXT() REPRESENTATION_CONTEXT('2D SPACE',''
  ) );
#245 = PCURVE('',#120,#246);
#246 = DEFINITIONAL_REPRESENTATION('',(#247),#299);
#247 = B_SPLINE_CURVE_WITH_KNOTS('',8,(#248,#249,#250,#251,#252,#253,
    #254,#255,#256,#257,#258,#259,#260,#261,#262,#263,#264,#265,#266,
    #267,#268,#269,#270,#271,#272,#273,#274,#275,#276,#277,#278,#279,
    #280,#281,#282,#283,#284,#285,#286,#287,#288,#289,#290,#291,#292,
    #293,#294,#295,#296,#297,#298),.UNSPECIFIED.,.F.,.F.,(9,7,7,7,7,7,7,
    9),(3.14159265359,3.534291735289,3.877903431775,4.479223900626,
    4.930214252264,5.606699779722,5.944942543451,6.28318530718),
  .UNSPECIFIED.);
#248 = CARTESIAN_POINT('',(3.14159265359,-0.927295218002));
#249 = CARTESIAN_POINT('',(3.07614280664,-0.927295218002));
#250 = CARTESIAN_POINT('',(3.010693060487,-0.923623462433));
#251 = CARTESIAN_POINT('',(2.946337318906,-0.916280210553));
#252 = CARTESIAN_POINT('',(2.884173650504,-0.905383831456));
#253 = CARTESIAN_POINT('',(2.825081351331,-0.891176931238));
#254 = CARTESIAN_POINT('',(2.769536238022,-0.873961550172));
#255 = CARTESIAN_POINT('',(2.717759999887,-0.854048812801));
#256 = CARTESIAN_POINT('',(2.62780314764,-0.812217252254));
#257 = CARTESIAN_POINT('',(2.588732119155,-0.790860307287));
#258 = CARTESIAN_POINT('',(2.55259146883,-0.767868643526));
#259 = CARTESIAN_POINT('',(2.519292369678,-0.743435969851));
#260 = CARTESIAN_POINT('',(2.488686616913,-0.717736957307));
#261 = CARTESIAN_POINT('',(2.460603026734,-0.690924974363));
#262 = CARTESIAN_POINT('',(2.434869146752,-0.663134421241));
#263 = CARTESIAN_POINT('',(2.370103994574,-0.584341944934));
#264 = CARTESIAN_POINT('',(2.33557517493,-0.531563678415));
#265 = CARTESIAN_POINT('',(2.306838914863,-0.476776911473));
#266 = CARTESIAN_POINT('',(2.283067941849,-0.420450975136));
#267 = CARTESIAN_POINT('',(2.263650981247,-0.36293846778));
#268 = CARTESIAN_POINT('',(2.248120006089,-0.304524474481));
#269 = CARTESIAN_POINT('',(2.236145714155,-0.245446394669));
#270 = CARTESIAN_POINT('',(2.221040913084,-0.141267599968));
#271 = CARTESIAN_POINT('',(2.216447879634,-9.636494029043E-02));
#272 = CARTESIAN_POINT('',(2.21364530331,-5.129670207673E-02));
#273 = CARTESIAN_POINT('',(2.21258049138,-6.143829714674E-03));
#274 = CARTESIAN_POINT('',(2.213234443396,3.901687792508E-02));
#275 = CARTESIAN_POINT('',(2.21562056869,8.41088642891E-02));
#276 = CARTESIAN_POINT('',(2.219785731932,0.129051945104));
#277 = CARTESIAN_POINT('',(2.234855469008,0.240818261096));
#278 = CARTESIAN_POINT('',(2.248088318503,0.307345795744));
#279 = CARTESIAN_POINT('',(2.265795837977,0.373044453435));
#280 = CARTESIAN_POINT('',(2.288441624489,0.437580218819));
#281 = CARTESIAN_POINT('',(2.316719316195,0.500539673539));
#282 = CARTESIAN_POINT('',(2.351538011757,0.561402768279));
#283 = CARTESIAN_POINT('',(2.394209471107,0.619435311277));
#284 = CARTESIAN_POINT('',(2.471930809285,0.700717879179));
#285 = CARTESIAN_POINT('',(2.500123507893,0.726851042972));
#286 = CARTESIAN_POINT('',(2.530763346676,0.751896555906));
#287 = CARTESIAN_POINT('',(2.564008386721,0.775710508178));
#288 = CARTESIAN_POINT('',(2.600003905823,0.798130261081));
#289 = CARTESIAN_POINT('',(2.638852067625,0.81897402299));
#290 = CARTESIAN_POINT('',(2.680569715293,0.838046179187));
#291 = CARTESIAN_POINT('',(2.769517194703,0.872260038747));
#292 = CARTESIAN_POINT('',(2.816747084095,0.88740174623));
#293 = CARTESIAN_POINT('',(2.866620578139,0.900384514813));
#294 = CARTESIAN_POINT('',(2.91889590432,0.911016817412));
#295 = CARTESIAN_POINT('',(2.973170742154,0.919123261716));
#296 = CARTESIAN_POINT('',(3.028845083554,0.924571205031));
#297 = CARTESIAN_POINT('',(3.085218859635,0.927295218002));
#298 = CARTESIAN_POINT('',(3.14159265359,0.927295218002));
#299 = ( GEOMETRIC_REPRESENTATION_CONTEXT(2) 
PARAMETRIC_REPRESENTATION_CONTEXT() REPRESENTATION_CONTEXT('2D SPACE',''
  ) );
#300 = ORIENTED_EDGE('',*,*,#21,.F.);
#301 = ADVANCED_FACE('',(#302),#120,.T.);
#302 = FACE_BOUND('',#303,.T.);
#303 = EDGE_LOOP('',(#304,#305));
#304 = ORIENTED_EDGE('',*,*,#57,.F.);
#305 = ORIENTED_EDGE('',*,*,#183,.F.);
#306 = ( GEOMETRIC_REPRESENTATION_CONTEXT(3) 
GLOBAL_UNCERTAINTY_ASSIGNED_CONTEXT((#310)) GLOBAL_UNIT_ASSIGNED_CONTEXT
((#307,#308,#309)) REPRESENTATION_CONTEXT('Context #1',
  '3D Context with UNIT and UNCERTAINTY') );
#307 = ( LENGTH_UNIT() NAMED_UNIT(*) SI_UNIT(.MILLI.,.METRE.) );
#308 = ( NAMED_UNIT(*) PLANE_ANGLE_UNIT() SI_UNIT($,.RADIAN.) );
#309 = ( NAMED_UNIT(*) SI_UNIT($,.STERADIAN.) SOLID_ANGLE_UNIT() );
#310 = UNCERTAINTY_MEASURE_WITH_UNIT(LENGTH_MEASURE(1.E-07),#307,
  'distance_accuracy_value','confusion accuracy');
#311 = PRODUCT_RELATED_PRODUCT_CATEGORY('part',$,(#7));
ENDSEC;
END-ISO-10303-21;
