ply
format ascii 1.0
element vertex 17
property float x
property float y
property float z
property float nx
property float ny
property float nz
element face 30
property list uchar int vertex_index
end_header
-8.485280990600586 -8.485280990600586 -15 -0.6747671574976284 -0.6747671574976284 -0.29896248313984347
-11.086554527282715 -4.592201232910156 -15 -0.9170107204360358 -0.37983834573320524 0.12171347384757722
-4.592201232910156 -11.086554527282715 -15 -0.31603278757861986 -0.7629704841627304 -0.5639142820250039
-12 0 -15 -0.937998581793693 0 0.346639092649719
-11.086554527282715 4.592201232910156 -15 -0.8890034605979176 0.36823737826717257 0.27216553839868485
-8.485280990600586 8.485280990600586 -15 -0.7044634951690829 0.7044634951690829 -0.08638499839855956
-4.592201232910156 11.086554527282715 -15 -0.33915808376371603 0.8187998431728585 -0.463183129051379
0 -12 -15 0 -0.7925010123739791 -0.6098705972468407
4.592201232910156 -11.086554527282715 -15 0.33915808376371603 -0.8187998431728585 -0.463183129051379
8.485280990600586 -8.485280990600586 -15 0.7044634960758942 -0.7044634960758942 -0.08638498360859602
11.086554527282715 -4.592201232910156 -15 0.8890034605979176 -0.36823737826717257 0.27216553839868485
0 12 -15 0 0.7925009902044986 -0.6098706260551405
4.592201232910156 11.086554527282715 -15 0.3160327982010853 0.7629705098076252 -0.5639142413745947
12 0 -15 0.937998581793693 0 0.346639092649719
11.086554527282715 4.592201232910156 -15 0.9170107220991923 0.37983834642210734 0.12171345916716438
8.485280990600586 8.485280990600586 -15 0.6747671574976284 0.6747671574976284 -0.29896248313984347
0 0 15 -1.2979537444834932e-8 -2.163256240805822e-9 1
3 5 0 1
3 16 1 0
3 16 3 1
3 16 0 2
3 16 2 7
3 6 2 0
3 11 7 2
3 4 1 3
3 5 1 4
3 6 0 5
3 16 4 3
3 16 5 4
3 11 2 6
3 16 6 5
3 16 11 6
3 16 7 8
3 16 8 9
3 12 8 7
3 15 9 8
3 14 10 9
3 16 9 10
3 16 10 13
3 12 7 11
3 15 8 12
3 16 12 11
3 16 15 12
3 14 9 15
3 13 10 14
3 16 13 14
3 16 14 15

