{"asset":{"version":"2.0","generator":"THREE.GLTFExporter r182"},"scenes":[{"name":"AuxScene","nodes":[0]}],"scene":0,"nodes":[{"mesh":0}],"bufferViews":[{"buffer":0,"byteOffset":0,"byteLength":204,"target":34962,"byteStride":12},{"buffer":0,"byteOffset":204,"byteLength":204,"target":34962,"byteStride":12},{"buffer":0,"byteOffset":408,"byteLength":360,"target":34963}],"buffers":[{"byteLength":768,"uri":"data:application/octet-stream;base64,"}],"accessors":[{"bufferView":0,"componentType":5126,"count":17,"max":[12,12,15],"min":[-12,-12,-15],"type":"VEC3"},{"bufferView":1,"componentType":5126,"count":17,"max":[0.9379985928535461,0.8187998533248901,1],"min":[-0.9379985928535461,-0.8187998533248901,-0.6098706126213074],"type":"VEC3"},{"bufferView":2,"componentType":5125,"count":90,"max":[16],"min":[0],"type":"SCALAR"}],"materials":[{"pbrMetallicRoughness":{"baseColorFactor":[0.06847816983662762,0.2788942634659966,0.6938717612856897,1],"metallicFactor":0.25,"roughnessFactor":0.4},"name":"primitives-cone-16-material"}],"meshes":[{"primitives":[{"mode":4,"attributes":{"POSITION":0,"NORMAL":1},"indices":2,"material":0}]}]}