{"asset":{"version":"2.0","generator":"THREE.GLTFExporter r182"},"scenes":[{"name":"AuxScene","nodes":[0]}],"scene":0,"nodes":[{"mesh":0}],"bufferViews":[{"buffer":0,"byteOffset":0,"byteLength":864,"target":34962,"byteStride":12},{"buffer":0,"byteOffset":864,"byteLength":864,"target":34962,"byteStride":12},{"buffer":0,"byteOffset":1728,"byteLength":1632,"target":34963}],"buffers":[{"byteLength":3360,"uri":"data:application/octet-stream;base64,"}],"accessors":[{"bufferView":0,"componentType":5126,"count":72,"max":[15,8,8],"min":[-15,-8,-8],"type":"VEC3"},{"bufferView":1,"componentType":5126,"count":72,"max":[0.6021679639816284,0.9288632273674011,0.9994582533836365],"min":[-0.6021679639816284,-0.9288632273674011,-0.9994582533836365],"type":"VEC3"},{"bufferView":2,"componentType":5125,"count":408,"max":[71],"min":[0],"type":"SCALAR"}],"materials":[{"pbrMetallicRoughness":{"baseColorFactor":[0.10702310296918527,0.4793201830913402,0.10702310296918527,1],"metallicFactor":0.25,"roughnessFactor":0.4},"name":"topology-genus1-single-bore-material"}],"meshes":[{"primitives":[{"mode":4,"attributes":{"POSITION":0,"NORMAL":1},"indices":2,"material":0}]}]}