o 
usemtl topology-genus1-single-bore-material
v -15 -8 -8
v -10 -3.325878381729126 -2.222280979156494
v -10 -2.222280979156494 -3.325878381729126
v -10 -2.8284270763397217 -2.8284270763397217
v -10 -3.6955180168151855 -1.5307337045669556
v -10 -3.9231410026550293 -0.7803612947463989
v -10 -1.5307337045669556 -3.6955180168151855
v -10 -0.7803612947463989 -3.9231410026550293
v -15 -8 8
v -10 -4 0
v -10 -3.9231410026550293 0.7803612947463989
v -10 -3.6955180168151855 1.5307337045669556
v -10 -3.325878381729126 2.222280979156494
v -10 -2.8284270763397217 2.8284270763397217
v -10 -2.222280979156494 3.325878381729126
v -10 -1.5307337045669556 3.6955180168151855
v -10 -0.7803612947463989 3.9231410026550293
v -10 0 -4
v -10 0.7803612947463989 -3.9231410026550293
v -10 1.5307337045669556 -3.6955180168151855
v -10 2.222280979156494 -3.325878381729126
v -10 2.8284270763397217 -2.8284270763397217
v -10 3.325878381729126 -2.222280979156494
v -10 3.6955180168151855 -1.5307337045669556
v -10 3.9231410026550293 -0.7803612947463989
v -15 8 -8
v -10 0.7803612947463989 3.9231410026550293
v -10 1.5307337045669556 3.6955180168151855
v -10 3.9231410026550293 0.7803612947463989
v -10 3.6955180168151855 1.5307337045669556
v -10 2.8284270763397217 2.8284270763397217
v -10 2.222280979156494 3.325878381729126
v -10 3.325878381729126 2.222280979156494
v -10 0 4
v -10 4 0
v -15 8 8
v 15 -8 -8
v 10 -3.325878381729126 -2.222280979156494
v 10 -2.222280979156494 -3.325878381729126
v 10 -2.8284270763397217 -2.8284270763397217
v 10 -3.6955180168151855 -1.5307337045669556
v 10 -3.9231410026550293 -0.7803612947463989
v 10 -1.5307337045669556 -3.6955180168151855
v 10 -0.7803612947463989 -3.9231410026550293
v 15 -8 8
v 10 -4 0
v 10 -3.9231410026550293 0.7803612947463989
v 10 -3.6955180168151855 1.5307337045669556
v 10 -3.325878381729126 2.222280979156494
v 10 -2.8284270763397217 2.8284270763397217
v 10 -2.222280979156494 3.325878381729126
v 10 -1.5307337045669556 3.6955180168151855
v 10 -0.7803612947463989 3.9231410026550293
v 10 0 -4
v 10 0.7803612947463989 -3.9231410026550293
v 10 1.5307337045669556 -3.6955180168151855
v 10 2.222280979156494 -3.325878381729126
v 10 2.8284270763397217 -2.8284270763397217
v 10 3.325878381729126 -2.222280979156494
v 10 3.6955180168151855 -1.5307337045669556
v 10 3.9231410026550293 -0.7803612947463989
v 15 8 -8
v 10 0.7803612947463989 3.9231410026550293
v 10 1.5307337045669556 3.6955180168151855
v 10 3.9231410026550293 0.7803612947463989
v 10 3.6955180168151855 1.5307337045669556
v 10 2.8284270763397217 2.8284270763397217
v 10 2.222280979156494 3.325878381729126
v 10 3.325878381729126 2.222280979156494
v 10 0 4
v 10 4 0
v 15 8 8
vn -0.6021679486615356 -0.5645324444196091 -0.5645324444196091
vn 0.24932169078320432 0.822432956817563 0.5113147035293671
vn 0.10582312918731848 0.5792828785802597 0.8082281929707551
vn 0.17758843063649632 0.7183258436773696 0.6726591496510409
vn 0.30967420992730077 0.8899307438675261 0.3348509441905364
vn 0.3509308362233655 0.9239084627053926 0.1524490102589305
vn 0.046564179794759464 0.41234462913831926 0.9098371744333286
vn 0.01014341255375697 0.2271559300389033 0.9738055733204266
vn -0.23200591152660316 -0.8700221868512136 0.4350110934256068
vn 0.3691655324302847 0.9288632089714967 -0.03049506000384388
vn 0.3630546362394811 0.9074074107375851 -0.21166747989128945
vn 0.33301185953838863 0.8588376484535895 -0.38923128729008055
vn 0.281500608552946 0.7799236201227484 -0.5589960233838412
vn 0.21423543511870485 0.6676538437716355 -0.712980731322004
vn 0.1409125773297266 0.5227199190132638 -0.8407779325226495
vn 0.07389805653309606 0.35119939740889927 -0.9333799122009522
vn 0.02501137701274924 0.16275213400898958 -0.9863499246694583
vn 0.0025605787109807313 0.03281273267356733 0.9994582372521414
vn 0.02501137701274924 -0.16275213400898958 0.9863499246694583
vn 0.07389805653309606 -0.35119939740889927 0.9333799122009522
vn 0.1409125773297266 -0.5227199190132638 0.8407779325226495
vn 0.21423543511870485 -0.6676538437716355 0.712980731322004
vn 0.281500608552946 -0.7799236201227484 0.5589960233838412
vn 0.33301185953838863 -0.8588376484535895 0.38923128729008055
vn 0.3630546621135988 -0.9074074009195534 0.2116674776010745
vn -0.18529641417041406 0.6948615829413748 -0.6948615829413748
vn 0.01014341255375697 -0.2271559300389033 -0.9738055733204266
vn 0.046564179794759464 -0.41234462913831926 -0.9098371744333286
vn 0.3509308100912721 -0.9239084723681388 -0.15244901185332665
vn 0.30967420992730077 -0.8899307438675261 -0.3348509441905364
vn 0.17758843063649632 -0.7183258436773696 -0.6726591496510409
vn 0.10582312182017348 -0.5792828790369916 -0.8082281936079976
vn 0.24932169078320432 -0.822432956817563 -0.5113147035293671
vn 0.0025605787109807313 -0.03281273267356733 -0.9994582372521414
vn 0.3691655324302847 -0.9288632089714967 0.03049506000384388
vn -0.4305495569184169 0.4036402058857256 0.8072804117714512
vn 0.18529641417041406 -0.6948615829413748 -0.6948615829413748
vn -0.2493217000687995 0.7871246963182333 0.5641572496394356
vn -0.10582312203973594 0.5250235203639579 0.8444831377276871
vn -0.17758843063649632 0.6726591496510409 0.7183258436773696
vn -0.30967421071732865 0.8660514559462379 0.39250064824150455
vn -0.3509308480902892 0.9119197942276858 0.2127200713481589
vn -0.046564179700976316 0.35178026025892 0.9349237539291329
vn -0.010143412022530414 0.16279469021876225 0.9866078248367577
vn 0.4305495569184169 -0.4036402058857256 0.8072804117714512
vn -0.3691655324302847 0.9288632089714967 0.03049506000384388
vn -0.3630546386484074 0.9193367501493498 -0.15169465771973123
vn -0.33301185993870763 0.8825180380097721 -0.332061761917185
vn -0.28150060604420013 0.81490885723679 -0.5066369145589146
vn -0.21423543511870485 0.712980731322004 -0.6676538437716355
vn -0.14091258016320937 0.5767411698220626 -0.8046820911291775
vn -0.07389804714975848 0.41166368093986744 -0.9083347909347583
vn -0.02501137707993053 0.22709653972725172 -0.9735510221146473
vn -0.0025605787109807313 -0.03281273267356733 0.9994582372521414
vn -0.02501137707993053 -0.22709653972725172 0.9735510221146473
vn -0.07389804533651703 -0.4116637304434908 0.9083347686468854
vn -0.14091257531913465 -0.5767412096003905 0.8046820634670612
vn -0.21423543511870485 -0.712980731322004 0.6676538437716355
vn -0.28150060604420013 -0.81490885723679 0.5066369145589146
vn -0.33301185993870763 -0.8825180380097721 0.332061761917185
vn -0.36305466452252527 -0.9193367402022439 0.15169465607841445
vn 0.6021679486615356 0.5645324444196091 -0.5645324444196091
vn -0.010143412022530414 -0.16279469021876225 -0.9866078248367577
vn -0.046564179700976316 -0.35178026025892 -0.9349237539291329
vn -0.3509308028834713 -0.9119198138026055 -0.21272006201057705
vn -0.3096741714097888 -0.8660514889680824 -0.39250060639166934
vn -0.17758843063649632 -0.6726591496510409 -0.7183258436773696
vn -0.10582311467259091 -0.5250235207779095 -0.8444831383935146
vn -0.2493216777101249 -0.787124672774381 -0.5641572923694527
vn -0.0025605787109807313 0.03281273267356733 -0.9994582372521414
vn -0.3691655324302847 -0.9288632089714967 -0.03049506000384388
vn 0.23200591152660316 0.8700221868512136 0.4350110934256068
f 1//1 37//37 9//9
f 1//1 26//26 37//37
f 1//1 9//9 36//36
f 9//9 45//45 36//36
f 1//1 36//36 26//26
f 26//26 36//36 72//72
f 37//37 62//62 45//45
f 9//9 37//37 45//45
f 26//26 62//62 37//37
f 26//26 72//72 62//62
f 36//36 45//45 72//72
f 45//45 62//62 72//72
f 2//2 4//4 22//22
f 7//7 8//8 19//19
f 3//3 7//7 20//20
f 4//4 3//3 21//21
f 5//5 2//2 23//23
f 6//6 5//5 24//24
f 10//10 6//6 25//25
f 2//2 38//38 4//4
f 4//4 40//40 3//3
f 5//5 41//41 2//2
f 6//6 42//42 5//5
f 10//10 46//46 6//6
f 3//3 39//39 7//7
f 7//7 43//43 8//8
f 8//8 44//44 18//18
f 11//11 10//10 35//35
f 12//12 11//11 29//29
f 13//13 12//12 30//30
f 13//13 33//33 14//14
f 15//15 14//14 31//31
f 15//15 32//32 16//16
f 16//16 28//28 17//17
f 11//11 47//47 10//10
f 12//12 48//48 11//11
f 13//13 49//49 12//12
f 13//13 14//14 50//50
f 15//15 51//51 14//14
f 15//15 16//16 52//52
f 16//16 17//17 53//53
f 17//17 34//34 70//70
f 8//8 18//18 19//19
f 7//7 19//19 20//20
f 3//3 20//20 21//21
f 4//4 21//21 22//22
f 2//2 22//22 23//23
f 5//5 23//23 24//24
f 6//6 24//24 25//25
f 10//10 25//25 35//35
f 18//18 54//54 19//19
f 19//19 55//55 20//20
f 20//20 56//56 21//21
f 22//22 21//21 57//57
f 22//22 58//58 23//23
f 24//24 23//23 59//59
f 25//25 24//24 60//60
f 35//35 25//25 61//61
f 11//11 35//35 29//29
f 12//12 29//29 30//30
f 13//13 30//30 33//33
f 17//17 27//27 34//34
f 15//15 31//31 32//32
f 16//16 32//32 28//28
f 17//17 28//28 27//27
f 14//14 33//33 31//31
f 34//34 27//27 63//63
f 27//27 28//28 64//64
f 28//28 32//32 68//68
f 29//29 35//35 71//71
f 30//30 29//29 65//65
f 33//33 30//30 66//66
f 32//32 31//31 67//67
f 31//31 33//33 69//69
f 3//3 40//40 39//39
f 4//4 38//38 40//40
f 5//5 42//42 41//41
f 2//2 41//41 38//38
f 6//6 46//46 42//42
f 7//7 39//39 43//43
f 8//8 43//43 44//44
f 44//44 54//54 18//18
f 38//38 58//58 40//40
f 43//43 55//55 44//44
f 39//39 56//56 43//43
f 40//40 57//57 39//39
f 41//41 59//59 38//38
f 42//42 60//60 41//41
f 46//46 61//61 42//42
f 47//47 46//46 10//10
f 11//11 48//48 47//47
f 12//12 49//49 48//48
f 13//13 50//50 49//49
f 14//14 51//51 50//50
f 15//15 52//52 51//51
f 16//16 53//53 52//52
f 17//17 70//70 53//53
f 47//47 71//71 46//46
f 48//48 65//65 47//47
f 49//49 66//66 48//48
f 49//49 50//50 69//69
f 51//51 67//67 50//50
f 51//51 52//52 68//68
f 52//52 53//53 64//64
f 19//19 54//54 55//55
f 20//20 55//55 56//56
f 21//21 56//56 57//57
f 22//22 57//57 58//58
f 23//23 58//58 59//59
f 24//24 59//59 60//60
f 25//25 60//60 61//61
f 35//35 61//61 71//71
f 44//44 55//55 54//54
f 43//43 56//56 55//55
f 39//39 57//57 56//56
f 40//40 58//58 57//57
f 38//38 59//59 58//58
f 41//41 60//60 59//59
f 42//42 61//61 60//60
f 46//46 71//71 61//61
f 34//34 63//63 70//70
f 27//27 64//64 63//63
f 28//28 68//68 64//64
f 29//29 71//71 65//65
f 33//33 66//66 69//69
f 30//30 65//65 66//66
f 31//31 69//69 67//67
f 32//32 67//67 68//68
f 47//47 65//65 71//71
f 48//48 66//66 65//65
f 49//49 69//69 66//66
f 53//53 70//70 63//63
f 51//51 68//68 67//67
f 52//52 64//64 68//68
f 53//53 63//63 64//64
f 50//50 67//67 69//69
