ply
format ascii 1.0
element vertex 72
property float x
property float y
property float z
property float nx
property float ny
property float nz
element face 136
property list uchar int vertex_index
end_header
-15 -8 -8 -0.6021679486615356 -0.5645324444196091 -0.5645324444196091
-10 -3.325878381729126 -2.222280979156494 0.24932169078320432 0.822432956817563 0.5113147035293671
-10 -2.222280979156494 -3.325878381729126 0.10582312918731848 0.5792828785802597 0.8082281929707551
-10 -2.8284270763397217 -2.8284270763397217 0.17758843063649632 0.7183258436773696 0.6726591496510409
-10 -3.6955180168151855 -1.5307337045669556 0.30967420992730077 0.8899307438675261 0.3348509441905364
-10 -3.9231410026550293 -0.7803612947463989 0.3509308362233655 0.9239084627053926 0.1524490102589305
-10 -1.5307337045669556 -3.6955180168151855 0.046564179794759464 0.41234462913831926 0.9098371744333286
-10 -0.7803612947463989 -3.9231410026550293 0.01014341255375697 0.2271559300389033 0.9738055733204266
-15 -8 8 -0.23200591152660316 -0.8700221868512136 0.4350110934256068
-10 -4 0 0.3691655324302847 0.9288632089714967 -0.03049506000384388
-10 -3.9231410026550293 0.7803612947463989 0.3630546362394811 0.9074074107375851 -0.21166747989128945
-10 -3.6955180168151855 1.5307337045669556 0.33301185953838863 0.8588376484535895 -0.38923128729008055
-10 -3.325878381729126 2.222280979156494 0.281500608552946 0.7799236201227484 -0.5589960233838412
-10 -2.8284270763397217 2.8284270763397217 0.21423543511870485 0.6676538437716355 -0.712980731322004
-10 -2.222280979156494 3.325878381729126 0.1409125773297266 0.5227199190132638 -0.8407779325226495
-10 -1.5307337045669556 3.6955180168151855 0.07389805653309606 0.35119939740889927 -0.9333799122009522
-10 -0.7803612947463989 3.9231410026550293 0.02501137701274924 0.16275213400898958 -0.9863499246694583
-10 0 -4 0.0025605787109807313 0.03281273267356733 0.9994582372521414
-10 0.7803612947463989 -3.9231410026550293 0.02501137701274924 -0.16275213400898958 0.9863499246694583
-10 1.5307337045669556 -3.6955180168151855 0.07389805653309606 -0.35119939740889927 0.9333799122009522
-10 2.222280979156494 -3.325878381729126 0.1409125773297266 -0.5227199190132638 0.8407779325226495
-10 2.8284270763397217 -2.8284270763397217 0.21423543511870485 -0.6676538437716355 0.712980731322004
-10 3.325878381729126 -2.222280979156494 0.281500608552946 -0.7799236201227484 0.5589960233838412
-10 3.6955180168151855 -1.5307337045669556 0.33301185953838863 -0.8588376484535895 0.38923128729008055
-10 3.9231410026550293 -0.7803612947463989 0.3630546621135988 -0.9074074009195534 0.2116674776010745
-15 8 -8 -0.18529641417041406 0.6948615829413748 -0.6948615829413748
-10 0.7803612947463989 3.9231410026550293 0.01014341255375697 -0.2271559300389033 -0.9738055733204266
-10 1.5307337045669556 3.6955180168151855 0.046564179794759464 -0.41234462913831926 -0.9098371744333286
-10 3.9231410026550293 0.7803612947463989 0.3509308100912721 -0.9239084723681388 -0.15244901185332665
-10 3.6955180168151855 1.5307337045669556 0.30967420992730077 -0.8899307438675261 -0.3348509441905364
-10 2.8284270763397217 2.8284270763397217 0.17758843063649632 -0.7183258436773696 -0.6726591496510409
-10 2.222280979156494 3.325878381729126 0.10582312182017348 -0.5792828790369916 -0.8082281936079976
-10 3.325878381729126 2.222280979156494 0.24932169078320432 -0.822432956817563 -0.5113147035293671
-10 0 4 0.0025605787109807313 -0.03281273267356733 -0.9994582372521414
-10 4 0 0.3691655324302847 -0.9288632089714967 0.03049506000384388
-15 8 8 -0.4305495569184169 0.4036402058857256 0.8072804117714512
15 -8 -8 0.18529641417041406 -0.6948615829413748 -0.6948615829413748
10 -3.325878381729126 -2.222280979156494 -0.2493217000687995 0.7871246963182333 0.5641572496394356
10 -2.222280979156494 -3.325878381729126 -0.10582312203973594 0.5250235203639579 0.8444831377276871
10 -2.8284270763397217 -2.8284270763397217 -0.17758843063649632 0.6726591496510409 0.7183258436773696
10 -3.6955180168151855 -1.5307337045669556 -0.30967421071732865 0.8660514559462379 0.39250064824150455
10 -3.9231410026550293 -0.7803612947463989 -0.3509308480902892 0.9119197942276858 0.2127200713481589
10 -1.5307337045669556 -3.6955180168151855 -0.046564179700976316 0.35178026025892 0.9349237539291329
10 -0.7803612947463989 -3.9231410026550293 -0.010143412022530414 0.16279469021876225 0.9866078248367577
15 -8 8 0.4305495569184169 -0.4036402058857256 0.8072804117714512
10 -4 0 -0.3691655324302847 0.9288632089714967 0.03049506000384388
10 -3.9231410026550293 0.7803612947463989 -0.3630546386484074 0.9193367501493498 -0.15169465771973123
10 -3.6955180168151855 1.5307337045669556 -0.33301185993870763 0.8825180380097721 -0.332061761917185
10 -3.325878381729126 2.222280979156494 -0.28150060604420013 0.81490885723679 -0.5066369145589146
10 -2.8284270763397217 2.8284270763397217 -0.21423543511870485 0.712980731322004 -0.6676538437716355
10 -2.222280979156494 3.325878381729126 -0.14091258016320937 0.5767411698220626 -0.8046820911291775
10 -1.5307337045669556 3.6955180168151855 -0.07389804714975848 0.41166368093986744 -0.9083347909347583
10 -0.7803612947463989 3.9231410026550293 -0.02501137707993053 0.22709653972725172 -0.9735510221146473
10 0 -4 -0.0025605787109807313 -0.03281273267356733 0.9994582372521414
10 0.7803612947463989 -3.9231410026550293 -0.02501137707993053 -0.22709653972725172 0.9735510221146473
10 1.5307337045669556 -3.6955180168151855 -0.07389804533651703 -0.4116637304434908 0.9083347686468854
10 2.222280979156494 -3.325878381729126 -0.14091257531913465 -0.5767412096003905 0.8046820634670612
10 2.8284270763397217 -2.8284270763397217 -0.21423543511870485 -0.712980731322004 0.6676538437716355
10 3.325878381729126 -2.222280979156494 -0.28150060604420013 -0.81490885723679 0.5066369145589146
10 3.6955180168151855 -1.5307337045669556 -0.33301185993870763 -0.8825180380097721 0.332061761917185
10 3.9231410026550293 -0.7803612947463989 -0.36305466452252527 -0.9193367402022439 0.15169465607841445
15 8 -8 0.6021679486615356 0.5645324444196091 -0.5645324444196091
10 0.7803612947463989 3.9231410026550293 -0.010143412022530414 -0.16279469021876225 -0.9866078248367577
10 1.5307337045669556 3.6955180168151855 -0.046564179700976316 -0.35178026025892 -0.9349237539291329
10 3.9231410026550293 0.7803612947463989 -0.3509308028834713 -0.9119198138026055 -0.21272006201057705
10 3.6955180168151855 1.5307337045669556 -0.3096741714097888 -0.8660514889680824 -0.39250060639166934
10 2.8284270763397217 2.8284270763397217 -0.17758843063649632 -0.6726591496510409 -0.7183258436773696
10 2.222280979156494 3.325878381729126 -0.10582311467259091 -0.5250235207779095 -0.8444831383935146
10 3.325878381729126 2.222280979156494 -0.2493216777101249 -0.787124672774381 -0.5641572923694527
10 0 4 -0.0025605787109807313 0.03281273267356733 -0.9994582372521414
10 4 0 -0.3691655324302847 -0.9288632089714967 -0.03049506000384388
15 8 8 0.23200591152660316 0.8700221868512136 0.4350110934256068
3 0 36 8
3 0 25 36
3 0 8 35
3 8 44 35
3 0 35 25
3 25 35 71
3 36 61 44
3 8 36 44
3 25 61 36
3 25 71 61
3 35 44 71
3 44 61 71
3 1 3 21
3 6 7 18
3 2 6 19
3 3 2 20
3 4 1 22
3 5 4 23
3 9 5 24
3 1 37 3
3 3 39 2
3 4 40 1
3 5 41 4
3 9 45 5
3 2 38 6
3 6 42 7
3 7 43 17
3 10 9 34
3 11 10 28
3 12 11 29
3 12 32 13
3 14 13 30
3 14 31 15
3 15 27 16
3 10 46 9
3 11 47 10
3 12 48 11
3 12 13 49
3 14 50 13
3 14 15 51
3 15 16 52
3 16 33 69
3 7 17 18
3 6 18 19
3 2 19 20
3 3 20 21
3 1 21 22
3 4 22 23
3 5 23 24
3 9 24 34
3 17 53 18
3 18 54 19
3 19 55 20
3 21 20 56
3 21 57 22
3 23 22 58
3 24 23 59
3 34 24 60
3 10 34 28
3 11 28 29
3 12 29 32
3 16 26 33
3 14 30 31
3 15 31 27
3 16 27 26
3 13 32 30
3 33 26 62
3 26 27 63
3 27 31 67
3 28 34 70
3 29 28 64
3 32 29 65
3 31 30 66
3 30 32 68
3 2 39 38
3 3 37 39
3 4 41 40
3 1 40 37
3 5 45 41
3 6 38 42
3 7 42 43
3 43 53 17
3 37 57 39
3 42 54 43
3 38 55 42
3 39 56 38
3 40 58 37
3 41 59 40
3 45 60 41
3 46 45 9
3 10 47 46
3 11 48 47
3 12 49 48
3 13 50 49
3 14 51 50
3 15 52 51
3 16 69 52
3 46 70 45
3 47 64 46
3 48 65 47
3 48 49 68
3 50 66 49
3 50 51 67
3 51 52 63
3 18 53 54
3 19 54 55
3 20 55 56
3 21 56 57
3 22 57 58
3 23 58 59
3 24 59 60
3 34 60 70
3 43 54 53
3 42 55 54
3 38 56 55
3 39 57 56
3 37 58 57
3 40 59 58
3 41 60 59
3 45 70 60
3 33 62 69
3 26 63 62
3 27 67 63
3 28 70 64
3 32 65 68
3 29 64 65
3 30 68 66
3 31 66 67
3 46 64 70
3 47 65 64
3 48 68 65
3 52 69 62
3 50 67 66
3 51 63 67
3 52 62 63
3 49 66 68

