ISO-10303-21;
HEADER;
FILE_DESCRIPTION(('Open CASCADE Model'),'2;1');
FILE_NAME('Open CASCADE Shape Model','1970-01-01T00:00:00',('Author'),(
    'Open CASCADE'),'Open CASCADE STEP processor 8.0','Open CASCADE 8.0'
  ,'Unknown');
FILE_SCHEMA((
'AP242_MANAGED_MODEL_BASED_3D_ENGINEERING_MIM_LF {1 0 10303 442 1 1 4 }'
    ));
ENDSEC;
DATA;
#1 = APPLICATION_PROTOCOL_DEFINITION('international standard',
  'ap242_managed_model_based_3d_engineering',2013,#2);
#2 = APPLICATION_CONTEXT('Managed model based 3d engineering');
#3 = SHAPE_DEFINITION_REPRESENTATION(#4,#10);
#4 = PRODUCT_DEFINITION_SHAPE('','',#5);
#5 = PRODUCT_DEFINITION('design','',#6,#9);
#6 = PRODUCT_DEFINITION_FORMATION('','',#7);
#7 = PRODUCT('Open CASCADE STEP translator 8.0',
  'Open CASCADE STEP translator 8.0','',(#8));
#8 = PRODUCT_CONTEXT('',#2,'mechanical');
#9 = PRODUCT_DEFINITION_CONTEXT('part definition',#2,'design');
#10 = ADVANCED_BREP_SHAPE_REPRESENTATION('',(#11,#15),#479);
#11 = AXIS2_PLACEMENT_3D('',#12,#13,#14);
#12 = CARTESIAN_POINT('',(0.,0.,0.));
#13 = DIRECTION('',(0.,0.,1.));
#14 = DIRECTION('',(1.,0.,-0.));
#15 = MANIFOLD_SOLID_BREP('',#16);
#16 = CLOSED_SHELL('',(#17,#471,#475));
#17 = ADVANCED_FACE('',(#18),#74,.T.);
#18 = FACE_BOUND('',#19,.T.);
#19 = EDGE_LOOP('',(#20,#402,#436,#437));
#20 = ORIENTED_EDGE('',*,*,#21,.T.);
#21 = EDGE_CURVE('',#22,#24,#26,.T.);
#22 = VERTEX_POINT('',#23);
#23 = CARTESIAN_POINT('',(9.,6.68345587207E-15,1.5));
#24 = VERTEX_POINT('',#25);
#25 = CARTESIAN_POINT('',(8.672679443453,0.310930269159,22.569551251885)
  );
#26 = SEAM_CURVE('',#27,(#73,#395),.PCURVE_S1.);
#27 = ( BOUNDED_CURVE() B_SPLINE_CURVE(11,(#28,#29,#30,#31,#32,#33,#34,
    #35,#36,#37,#38,#39,#40,#41,#42,#43,#44,#45,#46,#47,#48,#49,#50,#51,
    #52,#53,#54,#55,#56,#57,#58,#59,#60,#61,#62,#63,#64,#65,#66,#67,#68,
#69,#70,#71,#72),.UNSPECIFIED.,.F.,.F.) B_SPLINE_CURVE_WITH_KNOTS((12,11
    ,11,11,12),(0.,8.687831582412,17.375663164824,26.063494747236,
34.751326329648),.PIECEWISE_BEZIER_KNOTS.) CURVE() 
GEOMETRIC_REPRESENTATION_ITEM() RATIONAL_B_SPLINE_CURVE((1.669078461068,
    1.669078461068,1.669078461068,1.669078461069,1.669078461067,
    1.66907846107,1.669078461067,1.669078461069,1.669078461068,
    1.669078461068,1.669078461068,1.669078461068,1.669078461068,
    1.669078461067,1.66907846107,1.669078461065,1.669078461072,
    1.669078461064,1.669078461071,1.669078461067,1.669078461069,
    1.669078461068,1.669078461068,1.669078461068,1.669078461069,
    1.669078461067,1.66907846107,1.669078461066,1.669078461071,
    1.669078461066,1.669078461069,1.669078461068,1.669078461068,
    1.669078461068,1.669078461068,1.669078461069,1.669078461067,
    1.66907846107,1.669078461066,1.66907846107,1.669078461067,
    1.669078461069,1.669078461068,1.669078461068,1.669078461068)) 
REPRESENTATION_ITEM('') );
#28 = CARTESIAN_POINT('',(9.,6.68345587207E-15,1.5));
#29 = CARTESIAN_POINT('',(8.90094981936,5.140784590937,2.045455914445));
#30 = CARTESIAN_POINT('',(5.572786125126,10.157996843244,2.583722772894)
  );
#31 = CARTESIAN_POINT('',(-0.862777616728,12.796161197026,3.114765756879
    ));
#32 = CARTESIAN_POINT('',(-8.47174339988,10.936890521881,3.638871570296)
  );
#33 = CARTESIAN_POINT('',(-13.83973981982,4.190306425191,4.15539990688)
  );
#34 = CARTESIAN_POINT('',(-13.40612976934,-4.75212240953,4.666056141094)
  );
#35 = CARTESIAN_POINT('',(-7.713703657977,-10.78087679813,5.168769079203
    ));
#36 = CARTESIAN_POINT('',(-0.445536555373,-12.01507383561,5.666275431765
    ));
#37 = CARTESIAN_POINT('',(5.322075748163,-9.22516849012,6.156903358187)
  );
#38 = CARTESIAN_POINT('',(8.101851097426,-4.539391851222,6.64212534126)
  );
#39 = CARTESIAN_POINT('',(8.005185072451,4.01141328389E-02,
    7.121933204907));
#40 = CARTESIAN_POINT('',(7.9084668194,4.619629540647,7.601697791611));
#41 = CARTESIAN_POINT('',(4.935540840134,9.092639168071,8.076287681169)
  );
#42 = CARTESIAN_POINT('',(-0.813247660269,11.454286538254,8.545327263905
    ));
#43 = CARTESIAN_POINT('',(-7.635506704695,9.80752376321,9.011155345298)
  );
#44 = CARTESIAN_POINT('',(-12.49060054842,3.776222358853,9.470625070512)
  );
#45 = CARTESIAN_POINT('',(-12.19311041617,-4.309847262795,9.929545674685
    ));
#46 = CARTESIAN_POINT('',(-7.058241738904,-9.884250056575,
    10.382292306184));
#47 = CARTESIAN_POINT('',(-0.3738834936,-11.08375839492,10.83499943641)
  );
#48 = CARTESIAN_POINT('',(4.995915640984,-8.532459986564,11.284314538679
    ));
#49 = CARTESIAN_POINT('',(7.608391302325,-4.164347169735,11.73283085434)
  );
#50 = CARTESIAN_POINT('',(7.517491030413,0.140007788576,12.180457679893)
  );
#51 = CARTESIAN_POINT('',(7.426581663596,4.444370573158,12.628017491636)
  );
#52 = CARTESIAN_POINT('',(4.632350785451,8.68474051569,13.075053675306)
  );
#53 = CARTESIAN_POINT('',(-0.820715915706,10.979979909857,
    13.521046113432));
#54 = CARTESIAN_POINT('',(-7.390345727488,9.484026413164,13.969183096382
    ));
#55 = CARTESIAN_POINT('',(-12.19934775269,3.733792528876,14.41542946479)
  );
#56 = CARTESIAN_POINT('',(-12.10475225252,-4.225408358331,
    14.866726331285));
#57 = CARTESIAN_POINT('',(-7.082434519833,-9.907582307169,15.31676253319
    ));
#58 = CARTESIAN_POINT('',(-0.348415442349,-11.22128149763,
    15.771953814272));
#59 = CARTESIAN_POINT('',(5.156332892478,-8.679887354616,16.228961868299
    ));
#60 = CARTESIAN_POINT('',(7.870150121257,-4.206828661352,16.690189132045
    ));
#61 = CARTESIAN_POINT('',(7.78552676347,0.248758772791,17.155503800652)
  );
#62 = CARTESIAN_POINT('',(7.700944093988,4.70434845717,17.620761776271)
  );
#63 = CARTESIAN_POINT('',(4.817762402053,9.142232742381,18.090415857763)
  );
#64 = CARTESIAN_POINT('',(-0.881351129578,11.615026353728,
    18.564058598072));
#65 = CARTESIAN_POINT('',(-7.861283207227,10.131304640031,
    19.044125661141));
#66 = CARTESIAN_POINT('',(-13.11437465228,4.084647964356,19.527696654926
    ));
#67 = CARTESIAN_POINT('',(-13.18619706342,-4.541851986702,
    20.019407563184));
#68 = CARTESIAN_POINT('',(-7.77384161195,-10.8389770494,20.515324424557)
  );
#69 = CARTESIAN_POINT('',(-0.382212071812,-12.35754111157,
    21.019062696231));
#70 = CARTESIAN_POINT('',(5.721625171318,-9.592295698831,21.528809955216
    ));
#71 = CARTESIAN_POINT('',(8.753647573696,-4.645181850811,22.045711448673
    ));
#72 = CARTESIAN_POINT('',(8.672679443453,0.310930269159,22.569551251885)
  );
#73 = PCURVE('',#74,#390);
#74 = ( BOUNDED_SURFACE() B_SPLINE_SURFACE(6,11,(
    (#75,#76,#77,#78,#79,#80,#81,#82,#83,#84,#85,#86,#87,#88,#89,#90,#91
      ,#92,#93,#94,#95,#96,#97,#98,#99,#100,#101,#102,#103,#104,#105
      ,#106,#107,#108,#109,#110,#111,#112,#113,#114,#115,#116,#117,#118
      ,#119)
    ,(#120,#121,#122,#123,#124,#125,#126,#127,#128,#129,#130,#131,#132
      ,#133,#134,#135,#136,#137,#138,#139,#140,#141,#142,#143,#144,#145
      ,#146,#147,#148,#149,#150,#151,#152,#153,#154,#155,#156,#157,#158
      ,#159,#160,#161,#162,#163,#164)
    ,(#165,#166,#167,#168,#169,#170,#171,#172,#173,#174,#175,#176,#177
      ,#178,#179,#180,#181,#182,#183,#184,#185,#186,#187,#188,#189,#190
      ,#191,#192,#193,#194,#195,#196,#197,#198,#199,#200,#201,#202,#203
      ,#204,#205,#206,#207,#208,#209)
    ,(#210,#211,#212,#213,#214,#215,#216,#217,#218,#219,#220,#221,#222
      ,#223,#224,#225,#226,#227,#228,#229,#230,#231,#232,#233,#234,#235
      ,#236,#237,#238,#239,#240,#241,#242,#243,#244,#245,#246,#247,#248
      ,#249,#250,#251,#252,#253,#254)
    ,(#255,#256,#257,#258,#259,#260,#261,#262,#263,#264,#265,#266,#267
      ,#268,#269,#270,#271,#272,#273,#274,#275,#276,#277,#278,#279,#280
      ,#281,#282,#283,#284,#285,#286,#287,#288,#289,#290,#291,#292,#293
      ,#294,#295,#296,#297,#298,#299)
    ,(#300,#301,#302,#303,#304,#305,#306,#307,#308,#309,#310,#311,#312
      ,#313,#314,#315,#316,#317,#318,#319,#320,#321,#322,#323,#324,#325
      ,#326,#327,#328,#329,#330,#331,#332,#333,#334,#335,#336,#337,#338
      ,#339,#340,#341,#342,#343,#344)
    ,(#345,#346,#347,#348,#349,#350,#351,#352,#353,#354,#355,#356,#357
      ,#358,#359,#360,#361,#362,#363,#364,#365,#366,#367,#368,#369,#370
      ,#371,#372,#373,#374,#375,#376,#377,#378,#379,#380,#381,#382,#383
      ,#384,#385,#386,#387,#388,#389
)),.UNSPECIFIED.,.T.,.F.,.F.) B_SPLINE_SURFACE_WITH_KNOTS((1,6,6,1),(12,
    11,11,11,12),(-6.28318530718,0.,6.28318530718,12.566370614359),(0.,
    8.687831582412,17.375663164824,26.063494747236,34.751326329648),
.UNSPECIFIED.) GEOMETRIC_REPRESENTATION_ITEM() RATIONAL_B_SPLINE_SURFACE
((
    (1.669078461068,1.669078461068,1.669078461068,1.669078461069
      ,1.669078461067,1.66907846107,1.669078461067,1.669078461069
      ,1.669078461068,1.669078461068,1.669078461068,1.669078461068
      ,1.669078461068,1.669078461067,1.66907846107,1.669078461065
      ,1.669078461072,1.669078461064,1.669078461071,1.669078461067
      ,1.669078461069,1.669078461068,1.669078461068,1.669078461068
      ,1.669078461069,1.669078461067,1.66907846107,1.669078461066
      ,1.669078461071,1.669078461066,1.669078461069,1.669078461068
      ,1.669078461068,1.669078461068,1.669078461068,1.669078461069
      ,1.669078461067,1.66907846107,1.669078461066,1.66907846107
      ,1.669078461067,1.669078461069,1.669078461068,1.669078461068
      ,1.669078461068)
    ,(1.03672962321,1.03672962321,1.036729623209,1.03672962321
      ,1.036729623209,1.036729623211,1.036729623208,1.036729623211
      ,1.036729623209,1.03672962321,1.03672962321,1.03672962321
      ,1.03672962321,1.036729623209,1.036729623211,1.036729623207
      ,1.036729623212,1.036729623207,1.036729623212,1.036729623209
      ,1.03672962321,1.03672962321,1.03672962321,1.03672962321
      ,1.03672962321,1.036729623209,1.036729623211,1.036729623208
      ,1.036729623211,1.036729623208,1.03672962321,1.036729623209
      ,1.03672962321,1.03672962321,1.03672962321,1.03672962321
      ,1.036729623209,1.036729623211,1.036729623208,1.036729623211
      ,1.036729623208,1.03672962321,1.036729623209,1.03672962321
      ,1.03672962321)
    ,(1.038346699848,1.038346699848,1.038346699847,1.038346699848
      ,1.038346699847,1.038346699849,1.038346699846,1.038346699848
      ,1.038346699847,1.038346699848,1.038346699847,1.038346699848
      ,1.038346699848,1.038346699847,1.038346699849,1.038346699846
      ,1.03834669985,1.038346699845,1.038346699849,1.038346699847
      ,1.038346699848,1.038346699847,1.038346699848,1.038346699847
      ,1.038346699848,1.038346699847,1.038346699849,1.038346699846
      ,1.038346699849,1.038346699846,1.038346699848,1.038346699847
      ,1.038346699848,1.038346699848,1.038346699847,1.038346699848
      ,1.038346699847,1.038346699849,1.038346699846,1.038346699849
      ,1.038346699846,1.038346699848,1.038346699847,1.038346699848
      ,1.038346699848)
    ,(0.853534330196,0.853534330196,0.853534330196,0.853534330197
      ,0.853534330195,0.853534330197,0.853534330195,0.853534330197
      ,0.853534330196,0.853534330196,0.853534330196,0.853534330196
      ,0.853534330196,0.853534330196,0.853534330197,0.853534330195
      ,0.853534330198,0.853534330195,0.853534330197,0.853534330195
      ,0.853534330196,0.853534330196,0.853534330196,0.853534330196
      ,0.853534330196,0.853534330196,0.853534330197,0.853534330195
      ,0.853534330197,0.853534330196,0.853534330196,0.853534330196
      ,0.853534330196,0.853534330196,0.853534330196,0.853534330196
      ,0.853534330196,0.853534330197,0.853534330195,0.853534330197
      ,0.853534330195,0.853534330197,0.853534330196,0.853534330196
      ,0.853534330196)
    ,(1.038346699848,1.038346699848,1.038346699847,1.038346699848
      ,1.038346699847,1.038346699849,1.038346699846,1.038346699848
      ,1.038346699847,1.038346699848,1.038346699847,1.038346699848
      ,1.038346699848,1.038346699847,1.038346699849,1.038346699846
      ,1.03834669985,1.038346699845,1.038346699849,1.038346699847
      ,1.038346699848,1.038346699847,1.038346699848,1.038346699847
      ,1.038346699848,1.038346699847,1.038346699848,1.038346699846
      ,1.038346699848,1.038346699847,1.038346699848,1.038346699847
      ,1.038346699848,1.038346699848,1.038346699847,1.038346699848
      ,1.038346699847,1.038346699849,1.038346699846,1.038346699849
      ,1.038346699846,1.038346699848,1.038346699847,1.038346699848
      ,1.038346699848)
    ,(1.03672962321,1.03672962321,1.03672962321,1.03672962321
      ,1.036729623209,1.036729623211,1.036729623209,1.03672962321
      ,1.036729623209,1.03672962321,1.03672962321,1.03672962321
      ,1.03672962321,1.036729623209,1.036729623211,1.036729623208
      ,1.036729623212,1.036729623207,1.036729623211,1.036729623209
      ,1.03672962321,1.03672962321,1.03672962321,1.03672962321
      ,1.03672962321,1.036729623209,1.03672962321,1.036729623209
      ,1.036729623211,1.036729623209,1.03672962321,1.036729623209
      ,1.03672962321,1.03672962321,1.03672962321,1.03672962321
      ,1.036729623209,1.036729623211,1.036729623208,1.036729623212
      ,1.036729623208,1.03672962321,1.036729623209,1.03672962321
      ,1.03672962321)
    ,(1.669078461068,1.669078461068,1.669078461068,1.669078461069
      ,1.669078461067,1.66907846107,1.669078461067,1.669078461069
      ,1.669078461068,1.669078461068,1.669078461068,1.669078461068
      ,1.669078461068,1.669078461067,1.66907846107,1.669078461065
      ,1.669078461072,1.669078461064,1.669078461071,1.669078461067
      ,1.669078461069,1.669078461068,1.669078461068,1.669078461068
      ,1.669078461069,1.669078461067,1.66907846107,1.669078461066
      ,1.669078461071,1.669078461066,1.669078461069,1.669078461068
      ,1.669078461068,1.669078461068,1.669078461068,1.669078461069
      ,1.669078461067,1.66907846107,1.669078461066,1.66907846107
      ,1.669078461067,1.669078461069,1.669078461068,1.669078461068
,1.669078461068))) REPRESENTATION_ITEM('') SURFACE() );
#75 = CARTESIAN_POINT('',(9.,6.68345587207E-15,1.5));
#76 = CARTESIAN_POINT('',(8.90094981936,5.140784590937,2.045455914445));
#77 = CARTESIAN_POINT('',(5.572786125126,10.157996843244,2.583722772894)
  );
#78 = CARTESIAN_POINT('',(-0.862777616728,12.796161197026,3.114765756879
    ));
#79 = CARTESIAN_POINT('',(-8.47174339988,10.936890521881,3.638871570296)
  );
#80 = CARTESIAN_POINT('',(-13.83973981982,4.190306425191,4.15539990688)
  );
#81 = CARTESIAN_POINT('',(-13.40612976934,-4.75212240953,4.666056141094)
  );
#82 = CARTESIAN_POINT('',(-7.713703657977,-10.78087679813,5.168769079203
    ));
#83 = CARTESIAN_POINT('',(-0.445536555373,-12.01507383561,5.666275431765
    ));
#84 = CARTESIAN_POINT('',(5.322075748163,-9.22516849012,6.156903358187)
  );
#85 = CARTESIAN_POINT('',(8.101851097426,-4.539391851222,6.64212534126)
  );
#86 = CARTESIAN_POINT('',(8.005185072451,4.01141328389E-02,
    7.121933204907));
#87 = CARTESIAN_POINT('',(7.9084668194,4.619629540647,7.601697791611));
#88 = CARTESIAN_POINT('',(4.935540840134,9.092639168071,8.076287681169)
  );
#89 = CARTESIAN_POINT('',(-0.813247660269,11.454286538254,8.545327263905
    ));
#90 = CARTESIAN_POINT('',(-7.635506704695,9.80752376321,9.011155345298)
  );
#91 = CARTESIAN_POINT('',(-12.49060054842,3.776222358853,9.470625070512)
  );
#92 = CARTESIAN_POINT('',(-12.19311041617,-4.309847262795,9.929545674685
    ));
#93 = CARTESIAN_POINT('',(-7.058241738904,-9.884250056575,
    10.382292306184));
#94 = CARTESIAN_POINT('',(-0.3738834936,-11.08375839492,10.83499943641)
  );
#95 = CARTESIAN_POINT('',(4.995915640984,-8.532459986564,11.284314538679
    ));
#96 = CARTESIAN_POINT('',(7.608391302325,-4.164347169735,11.73283085434)
  );
#97 = CARTESIAN_POINT('',(7.517491030413,0.140007788576,12.180457679893)
  );
#98 = CARTESIAN_POINT('',(7.426581663596,4.444370573158,12.628017491636)
  );
#99 = CARTESIAN_POINT('',(4.632350785451,8.68474051569,13.075053675306)
  );
#100 = CARTESIAN_POINT('',(-0.820715915706,10.979979909857,
    13.521046113432));
#101 = CARTESIAN_POINT('',(-7.390345727488,9.484026413164,
    13.969183096382));
#102 = CARTESIAN_POINT('',(-12.19934775269,3.733792528876,14.41542946479
    ));
#103 = CARTESIAN_POINT('',(-12.10475225252,-4.225408358331,
    14.866726331285));
#104 = CARTESIAN_POINT('',(-7.082434519833,-9.907582307169,
    15.31676253319));
#105 = CARTESIAN_POINT('',(-0.348415442349,-11.22128149763,
    15.771953814272));
#106 = CARTESIAN_POINT('',(5.156332892478,-8.679887354616,
    16.228961868299));
#107 = CARTESIAN_POINT('',(7.870150121257,-4.206828661352,
    16.690189132045));
#108 = CARTESIAN_POINT('',(7.78552676347,0.248758772791,17.155503800652)
  );
#109 = CARTESIAN_POINT('',(7.700944093988,4.70434845717,17.620761776271)
  );
#110 = CARTESIAN_POINT('',(4.817762402053,9.142232742381,18.090415857763
    ));
#111 = CARTESIAN_POINT('',(-0.881351129578,11.615026353728,
    18.564058598072));
#112 = CARTESIAN_POINT('',(-7.861283207227,10.131304640031,
    19.044125661141));
#113 = CARTESIAN_POINT('',(-13.11437465228,4.084647964356,
    19.527696654926));
#114 = CARTESIAN_POINT('',(-13.18619706342,-4.541851986702,
    20.019407563184));
#115 = CARTESIAN_POINT('',(-7.77384161195,-10.8389770494,20.515324424557
    ));
#116 = CARTESIAN_POINT('',(-0.382212071812,-12.35754111157,
    21.019062696231));
#117 = CARTESIAN_POINT('',(5.721625171318,-9.592295698831,
    21.528809955216));
#118 = CARTESIAN_POINT('',(8.753647573696,-4.645181850811,
    22.045711448673));
#119 = CARTESIAN_POINT('',(8.672679443453,0.310930269159,22.569551251885
    ));
#120 = CARTESIAN_POINT('',(11.492314613357,-7.719085787228E-15,1.5));
#121 = CARTESIAN_POINT('',(11.39326673296,6.546937109831,2.210032056221)
  );
#122 = CARTESIAN_POINT('',(7.180817343529,12.970318392809,2.912417638264
    ));
#123 = CARTESIAN_POINT('',(-1.026636493106,16.387863725913,
    3.608003973544));
#124 = CARTESIAN_POINT('',(-10.7731986944,14.054607503158,4.291740549797
    ));
#125 = CARTESIAN_POINT('',(-17.68340640462,5.428850450167,4.96969325128)
  );
#126 = CARTESIAN_POINT('',(-17.07934032324,-6.025982923915,
    5.632183718705));
#127 = CARTESIAN_POINT('',(-9.788656740398,-13.60704149211,6.28736632956
    ));
#128 = CARTESIAN_POINT('',(-0.637148503502,-15.09248790401,
    6.927731155595));
#129 = CARTESIAN_POINT('',(6.54044665482,-11.57067867085,7.556866901893)
  );
#130 = CARTESIAN_POINT('',(9.969042415258,-5.762520788404,8.172510944997
    ));
#131 = CARTESIAN_POINT('',(9.862253491415,-0.135266959557,8.774861059251
    ));
#132 = CARTESIAN_POINT('',(9.755337628388,5.491994231503,9.377255433972)
  );
#133 = CARTESIAN_POINT('',(6.113579425542,10.938117242775,9.96612564725)
  );
#134 = CARTESIAN_POINT('',(-0.865936351,13.729330386725,10.541704000382)
  );
#135 = CARTESIAN_POINT('',(-8.990122094523,11.627457476018,
    11.102694619638));
#136 = CARTESIAN_POINT('',(-14.54544160847,4.348075586795,
    11.650203220877));
#137 = CARTESIAN_POINT('',(-13.82328408611,-4.969636883223,
    12.183480479647));
#138 = CARTESIAN_POINT('',(-7.849002539883,-10.9781844967,
    12.702212750996));
#139 = CARTESIAN_POINT('',(-0.495542488979,-12.07810427228,
    13.207925957263));
#140 = CARTESIAN_POINT('',(5.203533826996,-9.215507709698,
    13.699355073217));
#141 = CARTESIAN_POINT('',(7.898632086219,-4.580933247725,
    14.177928431746));
#142 = CARTESIAN_POINT('',(7.792646538379,-0.121351420431,
    14.643710192782));
#143 = CARTESIAN_POINT('',(7.686538026324,4.338247278919,15.109441181501
    ));
#144 = CARTESIAN_POINT('',(4.779875018626,8.622616739758,15.562663288512
    ));
#145 = CARTESIAN_POINT('',(-0.735375620471,10.778629513921,
    16.002880281066));
#146 = CARTESIAN_POINT('',(-7.107586986558,9.078440079113,
    16.433201136446));
#147 = CARTESIAN_POINT('',(-11.41787918912,3.347444742791,16.84922183786
    ));
#148 = CARTESIAN_POINT('',(-10.86088510776,-3.934790056317,
    17.259493431289));
#149 = CARTESIAN_POINT('',(-6.185901611749,-8.711638043882,
    17.655394132918));
#150 = CARTESIAN_POINT('',(-0.338104102793,-9.625677403361,
    18.04671850091));
#151 = CARTESIAN_POINT('',(4.247362070616,-7.352279447107,
    18.427978552101));
#152 = CARTESIAN_POINT('',(6.435486054054,-3.604511274258,
    18.803575841805));
#153 = CARTESIAN_POINT('',(6.338504974552,3.465297581307E-02,
    19.173403397274));
#154 = CARTESIAN_POINT('',(6.241468845565,3.673835373028,19.543107580003
    ));
#155 = CARTESIAN_POINT('',(3.859573095722,7.204174005684,19.90771803831)
  );
#156 = CARTESIAN_POINT('',(-0.701494359704,9.039927173706,
    20.266160144192));
#157 = CARTESIAN_POINT('',(-6.085272353853,7.706943043102,
    20.624635216425));
#158 = CARTESIAN_POINT('',(-9.894989976946,2.937058947968,
    20.974915482318));
#159 = CARTESIAN_POINT('',(-9.702330285064,-3.44899014867,
    21.331426417039));
#160 = CARTESIAN_POINT('',(-5.647075746123,-7.962784471935,
    21.68033778631));
#161 = CARTESIAN_POINT('',(-0.24515030251,-8.985385745323,
    22.036233416771));
#162 = CARTESIAN_POINT('',(4.159398697131,-6.930786141237,
    22.390702484365));
#163 = CARTESIAN_POINT('',(6.325435635666,-3.331008637047,
    22.750133070415));
#164 = CARTESIAN_POINT('',(6.241111718396,0.253225227568,23.113408456108
    ));
#165 = CARTESIAN_POINT('',(11.850168574868,-3.404828502473E-15,
    -1.581822285822));
#166 = CARTESIAN_POINT('',(11.954624394154,6.748843640205,
    -0.848162709239));
#167 = CARTESIAN_POINT('',(7.818208484276,13.627779790846,
    -0.107445022311));
#168 = CARTESIAN_POINT('',(-0.704989070396,17.66822831475,0.641376185378
    ));
#169 = CARTESIAN_POINT('',(-11.35332048656,15.738620316676,
    1.391895021177));
#170 = CARTESIAN_POINT('',(-19.55607566432,6.774173419008,2.152455804251
    ));
#171 = CARTESIAN_POINT('',(-19.81840774262,-6.222098725564,
    2.908241890893));
#172 = CARTESIAN_POINT('',(-11.8936858498,-15.56973007291,3.673131243865
    ));
#173 = CARTESIAN_POINT('',(-1.176727817202,-17.90379104774,
    4.432519988338));
#174 = CARTESIAN_POINT('',(7.63698575781,-14.07765470602,5.194187031203)
  );
#175 = CARTESIAN_POINT('',(12.082429513197,-7.173738612534,5.95230816452
    ));
#176 = CARTESIAN_POINT('',(12.172792120061,-0.242865118635,
    6.707127531724));
#177 = CARTESIAN_POINT('',(12.263124365591,6.687996079931,7.462092642843
    ));
#178 = CARTESIAN_POINT('',(7.998482089497,13.645585056452,8.212966416203
    ));
#179 = CARTESIAN_POINT('',(-0.630088464063,17.577591349507,
    8.960840146955));
#180 = CARTESIAN_POINT('',(-11.1523823797,15.445469129834,9.699090894724
    ));
#181 = CARTESIAN_POINT('',(-18.93313761586,6.448428772831,
    10.435900337055));
#182 = CARTESIAN_POINT('',(-18.76121289674,-5.986258157833,
    11.157642098426));
#183 = CARTESIAN_POINT('',(-11.11632159332,-14.53431714356,
    11.876321661505));
#184 = CARTESIAN_POINT('',(-1.172292417578,-16.50374672922,
    12.58019967231));
#185 = CARTESIAN_POINT('',(6.825057699423,-12.90698543214,
    13.275198762926));
#186 = CARTESIAN_POINT('',(10.79943285491,-6.646892615638,
    13.957252065884));
#187 = CARTESIAN_POINT('',(10.878040307358,-0.446530903426,
    14.626632331583));
#188 = CARTESIAN_POINT('',(10.956527131822,5.753832900209,
    15.296101840069));
#189 = CARTESIAN_POINT('',(7.139731938258,11.894232831525,15.95241740751
    ));
#190 = CARTESIAN_POINT('',(-0.464365229568,15.245808234402,
    16.596154837029));
#191 = CARTESIAN_POINT('',(-9.538443255316,13.241545825677,
    17.223861221623));
#192 = CARTESIAN_POINT('',(-15.99672231053,5.397390701386,
    17.839370012362));
#193 = CARTESIAN_POINT('',(-15.56768667623,-4.98843272672,
    18.437202563662));
#194 = CARTESIAN_POINT('',(-9.161248770494,-11.89104584741,
    19.021371913934));
#195 = CARTESIAN_POINT('',(-1.048230675964,-13.39689928114,
    19.588976306609));
#196 = CARTESIAN_POINT('',(5.378977791093,-10.45216460829,
    20.141077812706));
#197 = CARTESIAN_POINT('',(8.550823734663,-5.436893173674,
    20.677429104699));
#198 = CARTESIAN_POINT('',(8.62593106326,-0.507175859265,21.198197574797
    ));
#199 = CARTESIAN_POINT('',(8.700885999973,4.422557261599,21.718949576556
    ));
#200 = CARTESIAN_POINT('',(5.679731267949,9.266497937283,22.224213264371
    ));
#201 = CARTESIAN_POINT('',(-0.292335042703,11.861542445707,
    22.713655334154));
#202 = CARTESIAN_POINT('',(-7.334159286198,10.250322709878,
    23.189013599401));
#203 = CARTESIAN_POINT('',(-12.24382297502,4.156854221419,
    23.647298324458));
#204 = CARTESIAN_POINT('',(-11.86562554953,-3.737295616673,
    24.094815736503));
#205 = CARTESIAN_POINT('',(-7.025253199544,-8.987341831551,
    24.524397178135));
#206 = CARTESIAN_POINT('',(-0.867640867257,-10.16702496194,
    24.94477321638));
#207 = CARTESIAN_POINT('',(4.035797795148,-7.964558814652,
    25.350309319117));
#208 = CARTESIAN_POINT('',(6.482928659055,-4.160562402678,
    25.745793384225));
#209 = CARTESIAN_POINT('',(6.564475833368,-0.393881456204,
    26.130422981782));
#210 = CARTESIAN_POINT('',(9.,4.229255834431E-15,-4.123675381513));
#211 = CARTESIAN_POINT('',(9.272300527622,5.140797291685,-3.578224599572
    ));
#212 = CARTESIAN_POINT('',(6.314572384841,10.620872612163,
    -3.013010262156));
#213 = CARTESIAN_POINT('',(-0.232906498736,14.191499298679,
    -2.427936649186));
#214 = CARTESIAN_POINT('',(-8.927342081555,13.192989770559,
    -1.82379194328));
#215 = CARTESIAN_POINT('',(-16.24989220425,6.320727729798,
    -1.198815867522));
#216 = CARTESIAN_POINT('',(-17.44193693129,-4.776229900817,
    -0.557696695834));
#217 = CARTESIAN_POINT('',(-11.01128196274,-13.62188973831,
    0.105259525605));
#218 = CARTESIAN_POINT('',(-1.379950960654,-16.3387997808,0.782529259484
    ));
#219 = CARTESIAN_POINT('',(7.003804524414,-13.1853268221,1.478708591032)
  );
#220 = CARTESIAN_POINT('',(11.469116345651,-6.794096248612,2.18974949293
    ));
#221 = CARTESIAN_POINT('',(11.734862550597,-0.110278441359,2.91567444215
    ));
#222 = CARTESIAN_POINT('',(12.000752336625,6.573513458908,3.641718364746
    ));
#223 = CARTESIAN_POINT('',(8.06643418064,13.549665423912,4.381988134827)
  );
#224 = CARTESIAN_POINT('',(-0.36907014011,17.880469628948,5.137516347307
    ));
#225 = CARTESIAN_POINT('',(-11.2262545303,16.297751036919,5.901873352479
    ));
#226 = CARTESIAN_POINT('',(-19.95883380401,7.45909324319,6.683710222194)
  );
#227 = CARTESIAN_POINT('',(-20.77666896058,-5.992095990362,
    7.467056689884));
#228 = CARTESIAN_POINT('',(-12.8132234156,-16.08682148541,8.267376130293
    ));
#229 = CARTESIAN_POINT('',(-1.576933605159,-18.89909481758,
    9.067804164335));
#230 = CARTESIAN_POINT('',(7.900456793989,-15.08966349056,9.877557279829
    ));
#231 = CARTESIAN_POINT('',(12.825695018208,-7.825137928624,
    10.689506353101));
#232 = CARTESIAN_POINT('',(13.075590493838,-0.384897780647,
    11.503900738679));
#233 = CARTESIAN_POINT('',(13.325510972436,7.055320851991,
    12.318479353059));
#234 = CARTESIAN_POINT('',(8.899939090225,14.671026511208,
    13.134497482227));
#235 = CARTESIAN_POINT('',(-0.348539032695,19.184394006892,
    13.953384989962));
#236 = CARTESIAN_POINT('',(-11.90023072108,17.187083075716,
    14.766376893157));
#237 = CARTESIAN_POINT('',(-20.75952179314,7.575737806807,
    15.584566316913));
#238 = CARTESIAN_POINT('',(-21.01957588333,-6.224228411381,
    16.388871330742));
#239 = CARTESIAN_POINT('',(-12.74671463215,-16.02267840058,
    17.196642059116));
#240 = CARTESIAN_POINT('',(-1.646948255863,-18.52102772882,
    17.990240871932));
#241 = CARTESIAN_POINT('',(7.459451013523,-14.68436841845,
    18.778845163616));
#242 = CARTESIAN_POINT('',(12.106089419849,-7.708351341185,
    19.555850354407));
#243 = CARTESIAN_POINT('',(12.338728924654,-0.683866951529,
    20.321618791356));
#244 = CARTESIAN_POINT('',(12.571256572554,6.340611251968,
    21.087543083959));
#245 = CARTESIAN_POINT('',(8.39022087769,13.413326889581,21.841381967463
    ));
#246 = CARTESIAN_POINT('',(-0.181845740268,17.438577082425,
    22.584255561703));
#247 = CARTESIAN_POINT('',(-10.60556852674,15.407639549635,
    23.309467941206));
#248 = CARTESIAN_POINT('',(-18.24400586034,6.611195192289,
    24.025047605859));
#249 = CARTESIAN_POINT('',(-18.04655765455,-5.35428787805,
    24.718249693697));
#250 = CARTESIAN_POINT('',(-10.84595569588,-13.46216535461,
    25.399889124564));
#251 = CARTESIAN_POINT('',(-1.554037369961,-15.39731719746,
    26.060026584332));
#252 = CARTESIAN_POINT('',(5.905396444465,-12.17605120051,
    26.703644635088));
#253 = CARTESIAN_POINT('',(9.677251623674,-6.503267170662,
    27.327594858993));
#254 = CARTESIAN_POINT('',(9.899842480597,-0.854783664199,
    27.932470858077));
#255 = CARTESIAN_POINT('',(6.149831425132,5.668642638623E-15,
    -1.581822285822));
#256 = CARTESIAN_POINT('',(6.254281983377,3.532739461908,-1.224575658829
    ));
#257 = CARTESIAN_POINT('',(4.140374216053,7.195533669079,-0.859224730202
    ));
#258 = CARTESIAN_POINT('',(-0.330216625812,9.453408545809,
    -0.486741474825));
#259 = CARTESIAN_POINT('',(-6.08951027434,8.607884158611,-0.101324686256
    ));
#260 = CARTESIAN_POINT('',(-10.76497228311,3.94141768291,0.290031784042)
  );
#261 = CARTESIAN_POINT('',(-11.41716559325,-3.308568317006,
    0.698547780623));
#262 = CARTESIAN_POINT('',(-7.147923787391,-9.105822382411,
    1.114713687907));
#263 = CARTESIAN_POINT('',(-0.738479491564,-10.86523434017,
    1.547361394485));
#264 = CARTESIAN_POINT('',(4.850369291266,-8.713083657627,1.992238066297
    ));
#265 = CARTESIAN_POINT('',(7.811853086907,-4.376239740534,2.452062303241
    ));
#266 = CARTESIAN_POINT('',(7.925368443494,0.158260546234,2.926607205976)
  );
#267 = CARTESIAN_POINT('',(8.039024315454,4.69275325274,3.401097640041)
  );
#268 = CARTESIAN_POINT('',(5.304112335274,9.424670420761,3.890593346888)
  );
#269 = CARTESIAN_POINT('',(-0.509580684044,12.37418849771,4.394795228375
    ));
#270 = CARTESIAN_POINT('',(-8.054152168795,11.282978689188,
    4.915393458714));
#271 = CARTESIAN_POINT('',(-14.23337508643,5.14050553475,5.450843380477)
  );
#272 = CARTESIAN_POINT('',(-15.03273516708,-4.477209796059,
    6.002519132431));
#273 = CARTESIAN_POINT('',(-9.307720405398,-12.03230752764,
    6.570278586071));
#274 = CARTESIAN_POINT('',(-0.894038104407,-14.22951268428,
    7.152922903993));
#275 = CARTESIAN_POINT('',(6.350200451331,-11.34474192951,7.75160025599)
  );
#276 = CARTESIAN_POINT('',(10.135604013265,-5.694091117905,
    8.364908113589));
#277 = CARTESIAN_POINT('',(10.24871399534,0.151240983215,8.992765028813)
  );
#278 = CARTESIAN_POINT('',(10.361963787441,5.996554486548,9.620674039836
    ));
#279 = CARTESIAN_POINT('',(6.802319533601,12.036320217257,10.26284137397
    ));
#280 = CARTESIAN_POINT('',(-0.659552647998,15.706330006377,
    10.91978820601));
#281 = CARTESIAN_POINT('',(-10.18515942297,14.169189083493,
    11.588243031163));
#282 = CARTESIAN_POINT('',(-17.78407060932,6.281032207127,
    12.272882938607));
#283 = CARTESIAN_POINT('',(-18.41261727073,-5.653125014959,
    12.964547098055));
#284 = CARTESIAN_POINT('',(-11.21176832148,-14.62636885859,
    13.672533321866));
#285 = CARTESIAN_POINT('',(-1.071814420819,-17.04631065405,
    14.386211944256));
#286 = CARTESIAN_POINT('',(7.457944915112,-13.48862422495,
    15.111561704106));
#287 = CARTESIAN_POINT('',(11.832138555773,-6.81449299963,15.84376295804
    ));
#288 = CARTESIAN_POINT('',(11.935510044842,-1.748036819481E-02,
    16.582926303098));
#289 = CARTESIAN_POINT('',(12.038948110239,6.779511710826,
    17.322225687473));
#290 = CARTESIAN_POINT('',(7.871269234341,13.699159911801,
    18.067741574742));
#291 = CARTESIAN_POINT('',(-0.703697324764,17.751221638487,
    18.820666614362));
#292 = CARTESIAN_POINT('',(-11.39619085778,15.795240033434,
    19.574125942276));
#293 = CARTESIAN_POINT('',(-19.60709002237,6.781580757831,
    20.337268683191));
#294 = CARTESIAN_POINT('',(-19.83380706038,-6.236852013557,
    21.094010872738));
#295 = CARTESIAN_POINT('',(-11.88951969657,-15.56567159428,
    21.859818272109));
#296 = CARTESIAN_POINT('',(-1.18112388066,-17.87970393348,
    22.618334967029));
#297 = CARTESIAN_POINT('',(7.608869011511,-14.05187288175,
    23.379018063729));
#298 = CARTESIAN_POINT('',(12.036652351727,-7.166294645093,
    24.13466422823));
#299 = CARTESIAN_POINT('',(12.125874767903,-0.261900449253,
    24.886531296211));
#300 = CARTESIAN_POINT('',(6.507685386643,-3.91527088528E-15,1.5));
#301 = CARTESIAN_POINT('',(6.408632905759,3.734632072044,1.88087977267)
  );
#302 = CARTESIAN_POINT('',(3.964754906723,7.345675293678,2.255027907525)
  );
#303 = CARTESIAN_POINT('',(-0.69891874035,9.204458668141,2.621527540214)
  );
#304 = CARTESIAN_POINT('',(-6.170288105357,7.8191735406,2.986002590796)
  );
#305 = CARTESIAN_POINT('',(-9.99607323502,2.951762400222,3.34110656248)
  );
#306 = CARTESIAN_POINT('',(-9.732919215444,-3.478261895155,
    3.699928563483));
#307 = CARTESIAN_POINT('',(-5.638750575558,-7.954712104139,
    4.050171828846));
#308 = CARTESIAN_POINT('',(-0.253924607242,-8.937659767216,
    4.404819707935));
#309 = CARTESIAN_POINT('',(4.103704841504,-6.879658309386,4.756939814481
    ));
#310 = CARTESIAN_POINT('',(6.234659779595,-3.31626291404,5.111739737523)
  );
#311 = CARTESIAN_POINT('',(6.148116653487,0.215495225235,5.469005350563)
  );
#312 = CARTESIAN_POINT('',(6.061596010413,3.747264849792,5.826140149249)
  );
#313 = CARTESIAN_POINT('',(3.757502254723,7.247161093367,6.186449715088)
  );
#314 = CARTESIAN_POINT('',(-0.760558969534,9.179242689783,6.548950527427
    ));
#315 = CARTESIAN_POINT('',(-6.280891314876,7.987590050404,6.919616070959
    ));
#316 = CARTESIAN_POINT('',(-10.43575948837,3.204369130913,7.291046920146
    ));
#317 = CARTESIAN_POINT('',(-10.56293674625,-3.650057642371,
    7.675610869722));
#318 = CARTESIAN_POINT('',(-6.267480937915,-8.790315616437,
    8.062371861372));
#319 = CARTESIAN_POINT('',(-0.252224498225,-10.08941251756,
    8.462072915557));
#320 = CARTESIAN_POINT('',(4.788297454974,-7.849412263429,8.869274004141
    ));
#321 = CARTESIAN_POINT('',(7.318150518431,-3.747761091745,9.287733276933
    ));
#322 = CARTESIAN_POINT('',(7.242335522448,0.401366997583,9.717205167004)
  );
#323 = CARTESIAN_POINT('',(7.166625300868,4.550493867398,10.146593801772
    ));
#324 = CARTESIAN_POINT('',(4.484826552277,8.746864291624,10.587444062101
    ));
#325 = CARTESIAN_POINT('',(-0.906056210941,11.181330305791,
    11.039211945796));
#326 = CARTESIAN_POINT('',(-7.673104468421,9.88961274722,11.505165056322
    ));
#327 = CARTESIAN_POINT('',(-12.98081631625,4.12014031496,11.981637091714
    ));
#328 = CARTESIAN_POINT('',(-13.34861939729,-4.516026660348,
    12.473959231287));
#329 = CARTESIAN_POINT('',(-7.978967427912,-11.10352657045,
    12.978130933456));
#330 = CARTESIAN_POINT('',(-0.358726781907,-12.81688559191,
    13.497189127636));
#331 = CARTESIAN_POINT('',(6.065303714339,-10.00749526212,
    14.029945184495));
#332 = CARTESIAN_POINT('',(9.304814188461,-4.809146048447,
    14.576802422284));
#333 = CARTESIAN_POINT('',(9.232548552389,0.462864569769,15.137604204031
    ));
#334 = CARTESIAN_POINT('',(9.160419342412,5.734861541312,15.698415972539
    ));
#335 = CARTESIAN_POINT('',(5.775951708383,11.080291479076,
    16.273113677216));
#336 = CARTESIAN_POINT('',(-1.061207899455,14.190125533756,
    16.861957051956));
#337 = CARTESIAN_POINT('',(-9.637294060588,12.555666236953,
    17.463616105852));
#338 = CARTESIAN_POINT('',(-16.33375932763,5.232236980747,
    18.080477827545));
#339 = CARTESIAN_POINT('',(-16.67006384176,-5.634713824725,
    18.707388709317));
#340 = CARTESIAN_POINT('',(-9.900607477788,-13.71516962688,
    19.350311062814));
#341 = CARTESIAN_POINT('',(-0.519273841112,-15.7296964778,
    20.001891975684));
#342 = CARTESIAN_POINT('',(7.283851645506,-12.25380525642,20.66691742607
    ));
#343 = CARTESIAN_POINT('',(11.181859511726,-5.959355064575,
    21.341289826931));
#344 = CARTESIAN_POINT('',(11.104247168511,0.36863531075,22.025694047663
    ));
#345 = CARTESIAN_POINT('',(9.,6.68345587207E-15,1.5));
#346 = CARTESIAN_POINT('',(8.90094981936,5.140784590937,2.045455914445)
  );
#347 = CARTESIAN_POINT('',(5.572786125126,10.157996843244,2.583722772894
    ));
#348 = CARTESIAN_POINT('',(-0.862777616728,12.796161197026,
    3.114765756879));
#349 = CARTESIAN_POINT('',(-8.47174339988,10.936890521881,3.638871570296
    ));
#350 = CARTESIAN_POINT('',(-13.83973981982,4.190306425191,4.15539990688)
  );
#351 = CARTESIAN_POINT('',(-13.40612976934,-4.75212240953,4.666056141094
    ));
#352 = CARTESIAN_POINT('',(-7.713703657977,-10.78087679813,
    5.168769079203));
#353 = CARTESIAN_POINT('',(-0.445536555373,-12.01507383561,
    5.666275431765));
#354 = CARTESIAN_POINT('',(5.322075748163,-9.22516849012,6.156903358187)
  );
#355 = CARTESIAN_POINT('',(8.101851097426,-4.539391851222,6.64212534126)
  );
#356 = CARTESIAN_POINT('',(8.005185072451,4.01141328389E-02,
    7.121933204907));
#357 = CARTESIAN_POINT('',(7.9084668194,4.619629540647,7.601697791611));
#358 = CARTESIAN_POINT('',(4.935540840134,9.092639168071,8.076287681169)
  );
#359 = CARTESIAN_POINT('',(-0.813247660269,11.454286538254,
    8.545327263905));
#360 = CARTESIAN_POINT('',(-7.635506704695,9.80752376321,9.011155345298)
  );
#361 = CARTESIAN_POINT('',(-12.49060054842,3.776222358853,9.470625070512
    ));
#362 = CARTESIAN_POINT('',(-12.19311041617,-4.309847262795,
    9.929545674685));
#363 = CARTESIAN_POINT('',(-7.058241738904,-9.884250056575,
    10.382292306184));
#364 = CARTESIAN_POINT('',(-0.3738834936,-11.08375839492,10.83499943641)
  );
#365 = CARTESIAN_POINT('',(4.995915640984,-8.532459986564,
    11.284314538679));
#366 = CARTESIAN_POINT('',(7.608391302325,-4.164347169735,11.73283085434
    ));
#367 = CARTESIAN_POINT('',(7.517491030413,0.140007788576,12.180457679893
    ));
#368 = CARTESIAN_POINT('',(7.426581663596,4.444370573158,12.628017491636
    ));
#369 = CARTESIAN_POINT('',(4.632350785451,8.68474051569,13.075053675306)
  );
#370 = CARTESIAN_POINT('',(-0.820715915706,10.979979909857,
    13.521046113432));
#371 = CARTESIAN_POINT('',(-7.390345727488,9.484026413164,
    13.969183096382));
#372 = CARTESIAN_POINT('',(-12.19934775269,3.733792528876,14.41542946479
    ));
#373 = CARTESIAN_POINT('',(-12.10475225252,-4.225408358331,
    14.866726331285));
#374 = CARTESIAN_POINT('',(-7.082434519833,-9.907582307169,
    15.31676253319));
#375 = CARTESIAN_POINT('',(-0.348415442349,-11.22128149763,
    15.771953814272));
#376 = CARTESIAN_POINT('',(5.156332892478,-8.679887354616,
    16.228961868299));
#377 = CARTESIAN_POINT('',(7.870150121257,-4.206828661352,
    16.690189132045));
#378 = CARTESIAN_POINT('',(7.78552676347,0.248758772791,17.155503800652)
  );
#379 = CARTESIAN_POINT('',(7.700944093988,4.70434845717,17.620761776271)
  );
#380 = CARTESIAN_POINT('',(4.817762402053,9.142232742381,18.090415857763
    ));
#381 = CARTESIAN_POINT('',(-0.881351129578,11.615026353728,
    18.564058598072));
#382 = CARTESIAN_POINT('',(-7.861283207227,10.131304640031,
    19.044125661141));
#383 = CARTESIAN_POINT('',(-13.11437465228,4.084647964356,
    19.527696654926));
#384 = CARTESIAN_POINT('',(-13.18619706342,-4.541851986702,
    20.019407563184));
#385 = CARTESIAN_POINT('',(-7.77384161195,-10.8389770494,20.515324424557
    ));
#386 = CARTESIAN_POINT('',(-0.382212071812,-12.35754111157,
    21.019062696231));
#387 = CARTESIAN_POINT('',(5.721625171318,-9.592295698831,
    21.528809955216));
#388 = CARTESIAN_POINT('',(8.753647573696,-4.645181850811,
    22.045711448673));
#389 = CARTESIAN_POINT('',(8.672679443453,0.310930269159,22.569551251885
    ));
#390 = DEFINITIONAL_REPRESENTATION('',(#391),#394);
#391 = B_SPLINE_CURVE_WITH_KNOTS('',1,(#392,#393),.UNSPECIFIED.,.F.,.F.,
  (2,2),(0.,34.751326329648),.PIECEWISE_BEZIER_KNOTS.);
#392 = CARTESIAN_POINT('',(6.28318530718,0.));
#393 = CARTESIAN_POINT('',(6.28318530718,34.751326329648));
#394 = ( GEOMETRIC_REPRESENTATION_CONTEXT(2) 
PARAMETRIC_REPRESENTATION_CONTEXT() REPRESENTATION_CONTEXT('2D SPACE',''
  ) );
#395 = PCURVE('',#74,#396);
#396 = DEFINITIONAL_REPRESENTATION('',(#397),#401);
#397 = LINE('',#398,#399);
#398 = CARTESIAN_POINT('',(0.,0.));
#399 = VECTOR('',#400,1.);
#400 = DIRECTION('',(0.,1.));
#401 = ( GEOMETRIC_REPRESENTATION_CONTEXT(2) 
PARAMETRIC_REPRESENTATION_CONTEXT() REPRESENTATION_CONTEXT('2D SPACE',''
  ) );
#402 = ORIENTED_EDGE('',*,*,#403,.F.);
#403 = EDGE_CURVE('',#24,#24,#404,.T.);
#404 = SURFACE_CURVE('',#405,(#413,#420),.PCURVE_S1.);
#405 = ( BOUNDED_CURVE() B_SPLINE_CURVE(6,(#406,#407,#408,#409,#410,#411
,#412),.UNSPECIFIED.,.T.,.F.) B_SPLINE_CURVE_WITH_KNOTS((1,6,6,1),(
    -6.28318530718,0.,6.28318530718,12.566370614359),.UNSPECIFIED.) 
CURVE() GEOMETRIC_REPRESENTATION_ITEM() RATIONAL_B_SPLINE_CURVE((
    1.669078461068,1.03672962321,1.038346699848,0.853534330196,
1.038346699848,1.03672962321,1.669078461068)) REPRESENTATION_ITEM('') );
#406 = CARTESIAN_POINT('',(8.672679443453,0.310930269159,22.569551251885
    ));
#407 = CARTESIAN_POINT('',(6.241111718396,0.253225227568,23.113408456108
    ));
#408 = CARTESIAN_POINT('',(6.564475833368,-0.393881456204,
    26.130422981782));
#409 = CARTESIAN_POINT('',(9.899842480597,-0.854783664199,
    27.932470858077));
#410 = CARTESIAN_POINT('',(12.125874767903,-0.261900449253,
    24.886531296211));
#411 = CARTESIAN_POINT('',(11.104247168511,0.36863531075,22.025694047663
    ));
#412 = CARTESIAN_POINT('',(8.672679443453,0.310930269159,22.569551251885
    ));
#413 = PCURVE('',#74,#414);
#414 = DEFINITIONAL_REPRESENTATION('',(#415),#419);
#415 = LINE('',#416,#417);
#416 = CARTESIAN_POINT('',(0.,34.751326329648));
#417 = VECTOR('',#418,1.);
#418 = DIRECTION('',(1.,0.));
#419 = ( GEOMETRIC_REPRESENTATION_CONTEXT(2) 
PARAMETRIC_REPRESENTATION_CONTEXT() REPRESENTATION_CONTEXT('2D SPACE',''
  ) );
#420 = PCURVE('',#421,#426);
#421 = PLANE('',#422);
#422 = AXIS2_PLACEMENT_3D('',#423,#424,#425);
#423 = CARTESIAN_POINT('',(8.999948144819,4.925857903313E-05,
    23.999773383682));
#424 = DIRECTION('',(2.315319313353E-02,0.978006182536,0.207286846106));
#425 = DIRECTION('',(0.,-0.20734242862,0.978268428037));
#426 = DEFINITIONAL_REPRESENTATION('',(#427),#435);
#427 = ( BOUNDED_CURVE() B_SPLINE_CURVE(6,(#428,#429,#430,#431,#432,#433
,#434),.UNSPECIFIED.,.T.,.F.) B_SPLINE_CURVE_WITH_KNOTS((1,6,6,1),(
    -6.28318530718,0.,6.28318530718,12.566370614359),.UNSPECIFIED.) 
CURVE() GEOMETRIC_REPRESENTATION_ITEM() RATIONAL_B_SPLINE_CURVE((
    1.669078461068,1.03672962321,1.038346699848,0.853534330196,
1.038346699848,1.03672962321,1.669078461068)) REPRESENTATION_ITEM('') );
#428 = CARTESIAN_POINT('',(-1.463599980362,-0.327356456173));
#429 = CARTESIAN_POINT('',(-0.919596944643,-2.759576189067));
#430 = CARTESIAN_POINT('',(2.166025784142,-2.436125366274));
#431 = CARTESIAN_POINT('',(4.024476910495,0.900135636135));
#432 = CARTESIAN_POINT('',(0.921800557737,3.126764818391));
#433 = CARTESIAN_POINT('',(-2.00760301608,2.104863276721));
#434 = CARTESIAN_POINT('',(-1.463599980362,-0.327356456173));
#435 = ( GEOMETRIC_REPRESENTATION_CONTEXT(2) 
PARAMETRIC_REPRESENTATION_CONTEXT() REPRESENTATION_CONTEXT('2D SPACE',''
  ) );
#436 = ORIENTED_EDGE('',*,*,#21,.F.);
#437 = ORIENTED_EDGE('',*,*,#438,.T.);
#438 = EDGE_CURVE('',#22,#22,#439,.T.);
#439 = SURFACE_CURVE('',#440,(#448,#455),.PCURVE_S1.);
#440 = ( BOUNDED_CURVE() B_SPLINE_CURVE(6,(#441,#442,#443,#444,#445,#446
,#447),.UNSPECIFIED.,.T.,.F.) B_SPLINE_CURVE_WITH_KNOTS((1,6,6,1),(
    -6.28318530718,0.,6.28318530718,12.566370614359),.UNSPECIFIED.) 
CURVE() GEOMETRIC_REPRESENTATION_ITEM() RATIONAL_B_SPLINE_CURVE((
    1.669078461068,1.03672962321,1.038346699848,0.853534330196,
1.038346699848,1.03672962321,1.669078461068)) REPRESENTATION_ITEM('') );
#441 = CARTESIAN_POINT('',(9.,6.68345587207E-15,1.5));
#442 = CARTESIAN_POINT('',(11.492314613357,-7.719085787228E-15,1.5));
#443 = CARTESIAN_POINT('',(11.850168574868,-3.404828502473E-15,
    -1.581822285822));
#444 = CARTESIAN_POINT('',(9.,4.229255834431E-15,-4.123675381513));
#445 = CARTESIAN_POINT('',(6.149831425132,5.668642638623E-15,
    -1.581822285822));
#446 = CARTESIAN_POINT('',(6.507685386643,-3.91527088528E-15,1.5));
#447 = CARTESIAN_POINT('',(9.,6.68345587207E-15,1.5));
#448 = PCURVE('',#74,#449);
#449 = DEFINITIONAL_REPRESENTATION('',(#450),#454);
#450 = LINE('',#451,#452);
#451 = CARTESIAN_POINT('',(0.,0.));
#452 = VECTOR('',#453,1.);
#453 = DIRECTION('',(1.,0.));
#454 = ( GEOMETRIC_REPRESENTATION_CONTEXT(2) 
PARAMETRIC_REPRESENTATION_CONTEXT() REPRESENTATION_CONTEXT('2D SPACE',''
  ) );
#455 = PCURVE('',#456,#461);
#456 = PLANE('',#457);
#457 = AXIS2_PLACEMENT_3D('',#458,#459,#460);
#458 = CARTESIAN_POINT('',(9.,1.916107389149E-15,2.376348523003E-04));
#459 = DIRECTION('',(1.131562794838E-15,1.,-1.473275086844E-15));
#460 = DIRECTION('',(0.,1.473275086844E-15,1.));
#461 = DEFINITIONAL_REPRESENTATION('',(#462),#470);
#462 = ( BOUNDED_CURVE() B_SPLINE_CURVE(6,(#463,#464,#465,#466,#467,#468
,#469),.UNSPECIFIED.,.T.,.F.) B_SPLINE_CURVE_WITH_KNOTS((1,6,6,1),(
    -6.28318530718,0.,6.28318530718,12.566370614359),.UNSPECIFIED.) 
CURVE() GEOMETRIC_REPRESENTATION_ITEM() RATIONAL_B_SPLINE_CURVE((
    1.669078461068,1.03672962321,1.038346699848,0.853534330196,
1.038346699848,1.03672962321,1.669078461068)) REPRESENTATION_ITEM('') );
#463 = CARTESIAN_POINT('',(1.499762365148,-7.006492321624E-46));
#464 = CARTESIAN_POINT('',(1.499762365148,2.492314613357));
#465 = CARTESIAN_POINT('',(-1.582059920675,2.850168574868));
#466 = CARTESIAN_POINT('',(-4.123913016365,1.42108547152E-14));
#467 = CARTESIAN_POINT('',(-1.582059920675,-2.850168574868));
#468 = CARTESIAN_POINT('',(1.499762365148,-2.492314613357));
#469 = CARTESIAN_POINT('',(1.499762365148,-7.006492321624E-46));
#470 = ( GEOMETRIC_REPRESENTATION_CONTEXT(2) 
PARAMETRIC_REPRESENTATION_CONTEXT() REPRESENTATION_CONTEXT('2D SPACE',''
  ) );
#471 = ADVANCED_FACE('',(#472),#456,.F.);
#472 = FACE_BOUND('',#473,.F.);
#473 = EDGE_LOOP('',(#474));
#474 = ORIENTED_EDGE('',*,*,#438,.T.);
#475 = ADVANCED_FACE('',(#476),#421,.T.);
#476 = FACE_BOUND('',#477,.T.);
#477 = EDGE_LOOP('',(#478));
#478 = ORIENTED_EDGE('',*,*,#403,.T.);
#479 = ( GEOMETRIC_REPRESENTATION_CONTEXT(3) 
GLOBAL_UNCERTAINTY_ASSIGNED_CONTEXT((#483)) GLOBAL_UNIT_ASSIGNED_CONTEXT
((#480,#481,#482)) REPRESENTATION_CONTEXT('Context #1',
  '3D Context with UNIT and UNCERTAINTY') );
#480 = ( LENGTH_UNIT() NAMED_UNIT(*) SI_UNIT(.MILLI.,.METRE.) );
#481 = ( NAMED_UNIT(*) PLANE_ANGLE_UNIT() SI_UNIT($,.RADIAN.) );
#482 = ( NAMED_UNIT(*) SI_UNIT($,.STERADIAN.) SOLID_ANGLE_UNIT() );
#483 = UNCERTAINTY_MEASURE_WITH_UNIT(LENGTH_MEASURE(2.E-05),#480,
  'distance_accuracy_value','confusion accuracy');
#484 = PRODUCT_RELATED_PRODUCT_CATEGORY('part',$,(#7));
ENDSEC;
END-ISO-10303-21;
