o 
usemtl boolean-union-overlapping-spheres-material
v -2.120148181915283 -7.684497356414795 -6.037671089172363
v -2.120148181915283 -6.037671089172363 -7.684497356414795
v -4.378852367401123 -6.357108116149902 -6.357108116149902
v -6.037671089172363 -7.684497356414795 -2.120148181915283
v -6.357108116149902 -6.357108116149902 -4.378852367401123
v -7.684497356414795 -6.037671089172363 -2.120148181915283
v -4.297662734985352 -7.941044807434082 -4.297662734985352
v -2.084592819213867 -8.884476661682129 -4.089075565338135
v -4.089075565338135 -8.884476661682129 -2.084592819213867
v -2.0233471393585205 -9.581864356994629 -2.0233471393585205
v -6.357108116149902 -4.378852367401123 -6.357108116149902
v -6.037671089172363 -2.120148181915283 -7.684497356414795
v -7.684497356414795 -2.120148181915283 -6.037671089172363
v -4.297662734985352 -4.297662734985352 -7.941044807434082
v -2.084592819213867 -4.089075565338135 -8.884476661682129
v -4.089075565338135 -2.084592819213867 -8.884476661682129
v -2.0233471393585205 -2.0233471393585205 -9.581864356994629
v -7.941044807434082 -4.297662734985352 -4.297662734985352
v -8.884476661682129 -4.089075565338135 -2.084592819213867
v -8.884476661682129 -2.084592819213867 -4.089075565338135
v -9.581864356994629 -2.0233471393585205 -2.0233471393585205
v 6.123233998228043e-16 -8.314696311950684 -5.555702209472656
v 6.123233998228043e-16 -5.555702209472656 -8.314696311950684
v 6.123233998228043e-16 -7.071067810058594 -7.071067810058594
v 2.120148181915283 -7.684497356414795 -6.037671089172363
v 2.120148181915283 -6.037671089172363 -7.684497356414795
v 4.378852367401123 -6.357108116149902 -6.357108116149902
v 6.123233998228043e-16 -9.238795280456543 -3.8268344402313232
v 6.123233998228043e-16 -9.807852745056152 -1.9509031772613525
v 2.084592819213867 -8.884476661682129 -4.089075565338135
v 4.297662734985352 -7.941044807434082 -4.297662734985352
v 2.0233471393585205 -9.581864356994629 -2.0233471393585205
v 4.089075565338135 -8.884476661682129 -2.084592819213867
v 6.123233998228043e-16 -3.8268344402313232 -9.238795280456543
v 6.123233998228043e-16 -1.9509031772613525 -9.807852745056152
v 2.084592819213867 -4.089075565338135 -8.884476661682129
v 4.297662734985352 -4.297662734985352 -7.941044807434082
v 2.0233471393585205 -2.0233471393585205 -9.581864356994629
v 4.089075565338135 -2.084592819213867 -8.884476661682129
v -6.037671089172363 -7.684497356414795 2.120148181915283
v -8.314696311950684 -5.555702209472656 6.123233998228043e-16
v -7.071067810058594 -7.071067810058594 6.123233998228043e-16
v -7.684497356414795 -6.037671089172363 2.120148181915283
v -6.357108116149902 -6.357108116149902 4.378852367401123
v -4.089075565338135 -8.884476661682129 2.084592819213867
v -5.555702209472656 -8.314696311950684 6.123233998228043e-16
v -3.8268344402313232 -9.238795280456543 6.123233998228043e-16
v -2.0233471393585205 -9.581864356994629 2.0233471393585205
v -4.297662734985352 -7.941044807434082 4.297662734985352
v -2.084592819213867 -8.884476661682129 4.089075565338135
v -2.120148181915283 -7.684497356414795 6.037671089172363
v -4.378852367401123 -6.357108116149902 6.357108116149902
v -2.120148181915283 -6.037671089172363 7.684497356414795
v -9.238795280456543 -3.8268344402313232 6.123233998228043e-16
v -8.884476661682129 -4.089075565338135 2.084592819213867
v -7.941044807434082 -4.297662734985352 4.297662734985352
v -9.807852745056152 -1.9509031772613525 6.123233998228043e-16
v -9.581864356994629 -2.0233471393585205 2.0233471393585205
v -8.884476661682129 -2.084592819213867 4.089075565338135
v -6.357108116149902 -4.378852367401123 6.357108116149902
v -7.684497356414795 -2.120148181915283 6.037671089172363
v -6.037671089172363 -2.120148181915283 7.684497356414795
v -4.297662734985352 -4.297662734985352 7.941044807434082
v -2.084592819213867 -4.089075565338135 8.884476661682129
v -4.089075565338135 -2.084592819213867 8.884476661682129
v -2.0233471393585205 -2.0233471393585205 9.581864356994629
v -1.9509031772613525 -9.807852745056152 6.123233998228043e-16
v 6.123233998228043e-16 -10 6.123233998228043e-16
v 1.9509031772613525 -9.807852745056152 6.123233998228043e-16
v 6.123233998228043e-16 -9.807852745056152 1.9509031772613525
v 6.123233998228043e-16 -9.238795280456543 3.8268344402313232
v 3.8268344402313232 -9.238795280456543 6.123233998228043e-16
v 2.0233471393585205 -9.581864356994629 2.0233471393585205
v 4.089075565338135 -8.884476661682129 2.084592819213867
v 5.555702209472656 -8.314696311950684 6.123233998228043e-16
v 2.084592819213867 -8.884476661682129 4.089075565338135
v 4.297662734985352 -7.941044807434082 4.297662734985352
v 6.123233998228043e-16 -8.314696311950684 5.555702209472656
v 6.123233998228043e-16 -7.071067810058594 7.071067810058594
v 6.123233998228043e-16 -5.555702209472656 8.314696311950684
v 2.120148181915283 -7.684497356414795 6.037671089172363
v 4.378852367401123 -6.357108116149902 6.357108116149902
v 2.120148181915283 -6.037671089172363 7.684497356414795
v 6.123233998228043e-16 -3.8268344402313232 9.238795280456543
v 6.123233998228043e-16 -1.9509031772613525 9.807852745056152
v 6 -4.735960483551025 6.357108116149902
v 2.084592819213867 -4.089075565338135 8.884476661682129
v 4.297662734985352 -4.297662734985352 7.941044807434082
v 2.0233471393585205 -2.0233471393585205 9.581864356994629
v 4.089075565338135 -2.084592819213867 8.884476661682129
v -6.037671089172363 2.120148181915283 -7.684497356414795
v -8.314696311950684 6.123233998228043e-16 -5.555702209472656
v -7.071067810058594 6.123233998228043e-16 -7.071067810058594
v -7.684497356414795 2.120148181915283 -6.037671089172363
v -6.357108116149902 4.378852367401123 -6.357108116149902
v -5.555702209472656 6.123233998228043e-16 -8.314696311950684
v -4.089075565338135 2.084592819213867 -8.884476661682129
v -3.8268344402313232 6.123233998228043e-16 -9.238795280456543
v -2.0233471393585205 2.0233471393585205 -9.581864356994629
v -4.297662734985352 4.297662734985352 -7.941044807434082
v -2.084592819213867 4.089075565338135 -8.884476661682129
v -9.238795280456543 6.123233998228043e-16 -3.8268344402313232
v -8.884476661682129 2.084592819213867 -4.089075565338135
v -9.807852745056152 6.123233998228043e-16 -1.9509031772613525
v -9.581864356994629 2.0233471393585205 -2.0233471393585205
v -7.941044807434082 4.297662734985352 -4.297662734985352
v -8.884476661682129 4.089075565338135 -2.084592819213867
v -2.120148181915283 6.037671089172363 -7.684497356414795
v -4.378852367401123 6.357108116149902 -6.357108116149902
v -2.120148181915283 7.684497356414795 -6.037671089172363
v -6.357108116149902 6.357108116149902 -4.378852367401123
v -7.684497356414795 6.037671089172363 -2.120148181915283
v -6.037671089172363 7.684497356414795 -2.120148181915283
v -4.297662734985352 7.941044807434082 -4.297662734985352
v -2.084592819213867 8.884476661682129 -4.089075565338135
v -4.089075565338135 8.884476661682129 -2.084592819213867
v -2.0233471393585205 9.581864356994629 -2.0233471393585205
v -1.9509031772613525 6.123233998228043e-16 -9.807852745056152
v 6.123233998228043e-16 6.123233998228043e-16 -10
v 1.9509031772613525 6.123233998228043e-16 -9.807852745056152
v 6.123233998228043e-16 1.9509031772613525 -9.807852745056152
v 6.123233998228043e-16 3.8268344402313232 -9.238795280456543
v 3.8268344402313232 6.123233998228043e-16 -9.238795280456543
v 2.0233471393585205 2.0233471393585205 -9.581864356994629
v 5.555702209472656 6.123233998228043e-16 -8.314696311950684
v 4.089075565338135 2.084592819213867 -8.884476661682129
v 2.084592819213867 4.089075565338135 -8.884476661682129
v 4.297662734985352 4.297662734985352 -7.941044807434082
v 6.123233998228043e-16 5.555702209472656 -8.314696311950684
v 6.123233998228043e-16 7.071067810058594 -7.071067810058594
v 6.123233998228043e-16 8.314696311950684 -5.555702209472656
v 2.120148181915283 6.037671089172363 -7.684497356414795
v 4.378852367401123 6.357108116149902 -6.357108116149902
v 2.120148181915283 7.684497356414795 -6.037671089172363
v 6.123233998228043e-16 9.238795280456543 -3.8268344402313232
v 6.123233998228043e-16 9.807852745056152 -1.9509031772613525
v 6 6.631762981414795 -4.364774227142334
v 2.084592819213867 8.884476661682129 -4.089075565338135
v 4.297662734985352 7.941044807434082 -4.297662734985352
v 2.0233471393585205 9.581864356994629 -2.0233471393585205
v 4.089075565338135 8.884476661682129 -2.084592819213867
v -10 6.123233998228043e-16 6.123233998228043e-16
v -9.807852745056152 6.123233998228043e-16 1.9509031772613525
v -9.807852745056152 1.9509031772613525 6.123233998228043e-16
v -9.581864356994629 2.0233471393585205 2.0233471393585205
v -9.238795280456543 6.123233998228043e-16 3.8268344402313232
v -8.884476661682129 2.084592819213867 4.089075565338135
v -9.238795280456543 3.8268344402313232 6.123233998228043e-16
v -8.884476661682129 4.089075565338135 2.084592819213867
v -7.941044807434082 4.297662734985352 4.297662734985352
v -8.314696311950684 6.123233998228043e-16 5.555702209472656
v -7.071067810058594 6.123233998228043e-16 7.071067810058594
v -7.684497356414795 2.120148181915283 6.037671089172363
v -6.037671089172363 2.120148181915283 7.684497356414795
v -6.357108116149902 4.378852367401123 6.357108116149902
v -5.555702209472656 6.123233998228043e-16 8.314696311950684
v -4.089075565338135 2.084592819213867 8.884476661682129
v -3.8268344402313232 6.123233998228043e-16 9.238795280456543
v -2.0233471393585205 2.0233471393585205 9.581864356994629
v -4.297662734985352 4.297662734985352 7.941044807434082
v -2.084592819213867 4.089075565338135 8.884476661682129
v -8.314696311950684 5.555702209472656 6.123233998228043e-16
v -7.684497356414795 6.037671089172363 2.120148181915283
v -7.071067810058594 7.071067810058594 6.123233998228043e-16
v -6.357108116149902 6.357108116149902 4.378852367401123
v -6.037671089172363 7.684497356414795 2.120148181915283
v -5.555702209472656 8.314696311950684 6.123233998228043e-16
v -4.089075565338135 8.884476661682129 2.084592819213867
v -3.8268344402313232 9.238795280456543 6.123233998228043e-16
v -2.0233471393585205 9.581864356994629 2.0233471393585205
v -4.297662734985352 7.941044807434082 4.297662734985352
v -2.084592819213867 8.884476661682129 4.089075565338135
v -4.378852367401123 6.357108116149902 6.357108116149902
v -2.120148181915283 6.037671089172363 7.684497356414795
v -2.120148181915283 7.684497356414795 6.037671089172363
v -1.9509031772613525 6.123233998228043e-16 9.807852745056152
v 6.123233998228043e-16 6.123233998228043e-16 10
v 1.9509031772613525 6.123233998228043e-16 9.807852745056152
v 6.123233998228043e-16 1.9509031772613525 9.807852745056152
v 6.123233998228043e-16 3.8268344402313232 9.238795280456543
v 3.8268344402313232 6.123233998228043e-16 9.238795280456543
v 2.0233471393585205 2.0233471393585205 9.581864356994629
v 5.555702209472656 6.123233998228043e-16 8.314696311950684
v 4.089075565338135 2.084592819213867 8.884476661682129
v 2.084592819213867 4.089075565338135 8.884476661682129
v 4.297662734985352 4.297662734985352 7.941044807434082
v -1.9509031772613525 9.807852745056152 6.123233998228043e-16
v 6.123233998228043e-16 10 6.123233998228043e-16
v 1.9509031772613525 9.807852745056152 6.123233998228043e-16
v 6.123233998228043e-16 9.807852745056152 1.9509031772613525
v 6.123233998228043e-16 9.238795280456543 3.8268344402313232
v 6 6.631762981414795 4.364774227142334
v 6 6.357108116149902 4.735960483551025
v 3.8268344402313232 9.238795280456543 6.123233998228043e-16
v 2.0233471393585205 9.581864356994629 2.0233471393585205
v 5.555702209472656 8.314696311950684 6.123233998228043e-16
v 4.089075565338135 8.884476661682129 2.084592819213867
v 2.084592819213867 8.884476661682129 4.089075565338135
v 4.297662734985352 7.941044807434082 4.297662734985352
v 6.123233998228043e-16 7.071067810058594 7.071067810058594
v 6.123233998228043e-16 5.555702209472656 8.314696311950684
v 6.123233998228043e-16 8.314696311950684 5.555702209472656
v 4.378852367401123 6.357108116149902 6.357108116149902
v 2.120148181915283 6.037671089172363 7.684497356414795
v 2.120148181915283 7.684497356414795 6.037671089172363
v 9.879852294921875 -7.684497356414795 -6.037671089172363
v 9.879852294921875 -6.037671089172363 -7.684497356414795
v 7.621147632598877 -6.357108116149902 -6.357108116149902
v 12 -8.314696311950684 -5.555702209472656
v 12 -5.555702209472656 -8.314696311950684
v 12 -7.071067810058594 -7.071067810058594
v 7.702337265014648 -7.941044807434082 -4.297662734985352
v 9.915407180786133 -8.884476661682129 -4.089075565338135
v 7.910924434661865 -8.884476661682129 -2.084592819213867
v 6 -7.707695960998535 -2.1194608211517334
v 6 -7.690051555633545 -2.1672909259796143
v 6 -7.7337541580200195 -1.9544360637664795
v 9.976653099060059 -9.581864356994629 -2.0233471393585205
v 6 -6.357108116149902 -4.735960483551025
v 6 -6.631762981414795 -4.364774227142334
v 12 -9.238795280456543 -3.8268344402313232
v 12 -9.807852745056152 -1.9509031772613525
v 7.702337265014648 -4.297662734985352 -7.941044807434082
v 9.915407180786133 -4.089075565338135 -8.884476661682129
v 6 -4.735960483551025 -6.357108116149902
v 6 -4.364774227142334 -6.631762981414795
v 7.910924434661865 -2.084592819213867 -8.884476661682129
v 6 -2.1672909259796143 -7.690051555633545
v 6 -2.1194608211517334 -7.707695960998535
v 6 -1.9544360637664795 -7.7337541580200195
v 9.976653099060059 -2.0233471393585205 -9.581864356994629
v 12 -3.8268344402313232 -9.238795280456543
v 12 -1.9509031772613525 -9.807852745056152
v 14.120147705078125 -7.684497356414795 -6.037671089172363
v 14.120147705078125 -6.037671089172363 -7.684497356414795
v 16.37885284423828 -6.357108116149902 -6.357108116149902
v 14.084592819213867 -8.884476661682129 -4.089075565338135
v 16.29766273498535 -7.941044807434082 -4.297662734985352
v 14.023346900939941 -9.581864356994629 -2.0233471393585205
v 16.089075088500977 -8.884476661682129 -2.084592819213867
v 18.037670135498047 -7.684497356414795 -2.120148181915283
v 18.35710906982422 -6.357108116149902 -4.378852367401123
v 19.684497833251953 -6.037671089172363 -2.120148181915283
v 14.084592819213867 -4.089075565338135 -8.884476661682129
v 16.29766273498535 -4.297662734985352 -7.941044807434082
v 14.023346900939941 -2.0233471393585205 -9.581864356994629
v 16.089075088500977 -2.084592819213867 -8.884476661682129
v 18.35710906982422 -4.378852367401123 -6.357108116149902
v 18.037670135498047 -2.120148181915283 -7.684497356414795
v 19.684497833251953 -2.120148181915283 -6.037671089172363
v 19.9410457611084 -4.297662734985352 -4.297662734985352
v 20.884477615356445 -4.089075565338135 -2.084592819213867
v 20.884477615356445 -2.084592819213867 -4.089075565338135
v 21.581865310668945 -2.0233471393585205 -2.0233471393585205
v 7.910924434661865 -8.884476661682129 2.084592819213867
v 6.444297790527344 -8.314696311950684 6.123233998228043e-16
v 6 -7.950070381164551 6.123233998228043e-16
v 6 -7.7337541580200195 1.9544360637664795
v 6 -7.707695960998535 2.1194608211517334
v 6 -7.690051555633545 2.1672909259796143
v 8.173165321350098 -9.238795280456543 6.123233998228043e-16
v 9.976653099060059 -9.581864356994629 2.0233471393585205
v 7.702337265014648 -7.941044807434082 4.297662734985352
v 9.915407180786133 -8.884476661682129 4.089075565338135
v 6 -6.631762981414795 4.364774227142334
v 6 -6.357108116149902 4.735960483551025
v 10.049097061157227 -9.807852745056152 6.123233998228043e-16
v 12 -10 6.123233998228043e-16
v 13.950902938842773 -9.807852745056152 6.123233998228043e-16
v 12 -9.807852745056152 1.9509031772613525
v 12 -9.238795280456543 3.8268344402313232
v 9.879852294921875 -7.684497356414795 6.037671089172363
v 7.621147632598877 -6.357108116149902 6.357108116149902
v 9.879852294921875 -6.037671089172363 7.684497356414795
v 12 -8.314696311950684 5.555702209472656
v 12 -7.071067810058594 7.071067810058594
v 12 -5.555702209472656 8.314696311950684
v 6 -4.364774227142334 6.631762981414795
v 7.702337265014648 -4.297662734985352 7.941044807434082
v 9.915407180786133 -4.089075565338135 8.884476661682129
v 6 -2.1672909259796143 7.690051555633545
v 6 -2.1194608211517334 7.707695960998535
v 6 -1.9544360637664795 7.7337541580200195
v 7.910924434661865 -2.084592819213867 8.884476661682129
v 9.976653099060059 -2.0233471393585205 9.581864356994629
v 12 -3.8268344402313232 9.238795280456543
v 12 -1.9509031772613525 9.807852745056152
v 15.826834678649902 -9.238795280456543 6.123233998228043e-16
v 14.023346900939941 -9.581864356994629 2.0233471393585205
v 16.089075088500977 -8.884476661682129 2.084592819213867
v 17.555702209472656 -8.314696311950684 6.123233998228043e-16
v 14.084592819213867 -8.884476661682129 4.089075565338135
v 16.29766273498535 -7.941044807434082 4.297662734985352
v 18.037670135498047 -7.684497356414795 2.120148181915283
v 19.071067810058594 -7.071067810058594 6.123233998228043e-16
v 19.684497833251953 -6.037671089172363 2.120148181915283
v 20.314695358276367 -5.555702209472656 6.123233998228043e-16
v 18.35710906982422 -6.357108116149902 4.378852367401123
v 14.120147705078125 -7.684497356414795 6.037671089172363
v 16.37885284423828 -6.357108116149902 6.357108116149902
v 14.120147705078125 -6.037671089172363 7.684497356414795
v 21.23879623413086 -3.8268344402313232 6.123233998228043e-16
v 20.884477615356445 -4.089075565338135 2.084592819213867
v 19.9410457611084 -4.297662734985352 4.297662734985352
v 21.80785369873047 -1.9509031772613525 6.123233998228043e-16
v 21.581865310668945 -2.0233471393585205 2.0233471393585205
v 20.884477615356445 -2.084592819213867 4.089075565338135
v 14.084592819213867 -4.089075565338135 8.884476661682129
v 16.29766273498535 -4.297662734985352 7.941044807434082
v 14.023346900939941 -2.0233471393585205 9.581864356994629
v 16.089075088500977 -2.084592819213867 8.884476661682129
v 18.35710906982422 -4.378852367401123 6.357108116149902
v 19.684497833251953 -2.120148181915283 6.037671089172363
v 18.037670135498047 -2.120148181915283 7.684497356414795
v 6.444297790527344 6.123233998228043e-16 -8.314696311950684
v 6 6.123233998228043e-16 -7.950070381164551
v 7.910924434661865 2.084592819213867 -8.884476661682129
v 6 1.9544360637664795 -7.7337541580200195
v 6 2.1194608211517334 -7.707695960998535
v 6 2.1672909259796143 -7.690051555633545
v 8.173165321350098 6.123233998228043e-16 -9.238795280456543
v 9.976653099060059 2.0233471393585205 -9.581864356994629
v 7.702337265014648 4.297662734985352 -7.941044807434082
v 9.915407180786133 4.089075565338135 -8.884476661682129
v 6 4.364774227142334 -6.631762981414795
v 6 4.735960483551025 -6.357108116149902
v 10.049097061157227 6.123233998228043e-16 -9.807852745056152
v 12 6.123233998228043e-16 -10
v 13.950902938842773 6.123233998228043e-16 -9.807852745056152
v 12 1.9509031772613525 -9.807852745056152
v 12 3.8268344402313232 -9.238795280456543
v 9.879852294921875 6.037671089172363 -7.684497356414795
v 7.621147632598877 6.357108116149902 -6.357108116149902
v 9.879852294921875 7.684497356414795 -6.037671089172363
v 12 5.555702209472656 -8.314696311950684
v 12 7.071067810058594 -7.071067810058594
v 12 8.314696311950684 -5.555702209472656
v 6 6.357108116149902 -4.735960483551025
v 7.702337265014648 7.941044807434082 -4.297662734985352
v 9.915407180786133 8.884476661682129 -4.089075565338135
v 6 7.690051555633545 -2.1672909259796143
v 6 7.707695960998535 -2.1194608211517334
v 6 7.7337541580200195 -1.9544360637664795
v 7.910924434661865 8.884476661682129 -2.084592819213867
v 9.976653099060059 9.581864356994629 -2.0233471393585205
v 12 9.238795280456543 -3.8268344402313232
v 12 9.807852745056152 -1.9509031772613525
v 15.826834678649902 6.123233998228043e-16 -9.238795280456543
v 14.023346900939941 2.0233471393585205 -9.581864356994629
v 17.555702209472656 6.123233998228043e-16 -8.314696311950684
v 16.089075088500977 2.084592819213867 -8.884476661682129
v 14.084592819213867 4.089075565338135 -8.884476661682129
v 16.29766273498535 4.297662734985352 -7.941044807434082
v 18.037670135498047 2.120148181915283 -7.684497356414795
v 19.071067810058594 6.123233998228043e-16 -7.071067810058594
v 19.684497833251953 2.120148181915283 -6.037671089172363
v 20.314695358276367 6.123233998228043e-16 -5.555702209472656
v 18.35710906982422 4.378852367401123 -6.357108116149902
v 21.23879623413086 6.123233998228043e-16 -3.8268344402313232
v 20.884477615356445 2.084592819213867 -4.089075565338135
v 21.80785369873047 6.123233998228043e-16 -1.9509031772613525
v 21.581865310668945 2.0233471393585205 -2.0233471393585205
v 19.9410457611084 4.297662734985352 -4.297662734985352
v 20.884477615356445 4.089075565338135 -2.084592819213867
v 14.120147705078125 6.037671089172363 -7.684497356414795
v 16.37885284423828 6.357108116149902 -6.357108116149902
v 14.120147705078125 7.684497356414795 -6.037671089172363
v 14.084592819213867 8.884476661682129 -4.089075565338135
v 16.29766273498535 7.941044807434082 -4.297662734985352
v 14.023346900939941 9.581864356994629 -2.0233471393585205
v 16.089075088500977 8.884476661682129 -2.084592819213867
v 18.35710906982422 6.357108116149902 -4.378852367401123
v 19.684497833251953 6.037671089172363 -2.120148181915283
v 18.037670135498047 7.684497356414795 -2.120148181915283
v 6 6.123233998228043e-16 7.950070381164551
v 6.444297790527344 6.123233998228043e-16 8.314696311950684
v 6 1.9544360637664795 7.7337541580200195
v 6 2.1194608211517334 7.707695960998535
v 6 2.1672909259796143 7.690051555633545
v 7.910924434661865 2.084592819213867 8.884476661682129
v 8.173165321350098 6.123233998228043e-16 9.238795280456543
v 9.976653099060059 2.0233471393585205 9.581864356994629
v 6 4.364774227142334 6.631762981414795
v 6 4.735960483551025 6.357108116149902
v 7.702337265014648 4.297662734985352 7.941044807434082
v 9.915407180786133 4.089075565338135 8.884476661682129
v 10.049097061157227 6.123233998228043e-16 9.807852745056152
v 12 6.123233998228043e-16 10
v 13.950902938842773 6.123233998228043e-16 9.807852745056152
v 12 1.9509031772613525 9.807852745056152
v 12 3.8268344402313232 9.238795280456543
v 6 7.950070381164551 6.123233998228043e-16
v 6.444297790527344 8.314696311950684 6.123233998228043e-16
v 6 7.7337541580200195 1.9544360637664795
v 6 7.690051555633545 2.1672909259796143
v 6 7.707695960998535 2.1194608211517334
v 7.910924434661865 8.884476661682129 2.084592819213867
v 8.173165321350098 9.238795280456543 6.123233998228043e-16
v 9.976653099060059 9.581864356994629 2.0233471393585205
v 7.702337265014648 7.941044807434082 4.297662734985352
v 9.915407180786133 8.884476661682129 4.089075565338135
v 10.049097061157227 9.807852745056152 6.123233998228043e-16
v 12 10 6.123233998228043e-16
v 13.950902938842773 9.807852745056152 6.123233998228043e-16
v 12 9.807852745056152 1.9509031772613525
v 12 9.238795280456543 3.8268344402313232
v 7.621147632598877 6.357108116149902 6.357108116149902
v 9.879852294921875 6.037671089172363 7.684497356414795
v 9.879852294921875 7.684497356414795 6.037671089172363
v 12 7.071067810058594 7.071067810058594
v 12 5.555702209472656 8.314696311950684
v 12 8.314696311950684 5.555702209472656
v 22 6.123233998228043e-16 6.123233998228043e-16
v 21.80785369873047 6.123233998228043e-16 1.9509031772613525
v 21.80785369873047 1.9509031772613525 6.123233998228043e-16
v 21.581865310668945 2.0233471393585205 2.0233471393585205
v 21.23879623413086 6.123233998228043e-16 3.8268344402313232
v 20.884477615356445 2.084592819213867 4.089075565338135
v 21.23879623413086 3.8268344402313232 6.123233998228043e-16
v 20.884477615356445 4.089075565338135 2.084592819213867
v 19.9410457611084 4.297662734985352 4.297662734985352
v 15.826834678649902 6.123233998228043e-16 9.238795280456543
v 14.023346900939941 2.0233471393585205 9.581864356994629
v 17.555702209472656 6.123233998228043e-16 8.314696311950684
v 16.089075088500977 2.084592819213867 8.884476661682129
v 14.084592819213867 4.089075565338135 8.884476661682129
v 16.29766273498535 4.297662734985352 7.941044807434082
v 19.071067810058594 6.123233998228043e-16 7.071067810058594
v 19.684497833251953 2.120148181915283 6.037671089172363
v 20.314695358276367 6.123233998228043e-16 5.555702209472656
v 18.037670135498047 2.120148181915283 7.684497356414795
v 18.35710906982422 4.378852367401123 6.357108116149902
v 15.826834678649902 9.238795280456543 6.123233998228043e-16
v 14.023346900939941 9.581864356994629 2.0233471393585205
v 17.555702209472656 8.314696311950684 6.123233998228043e-16
v 16.089075088500977 8.884476661682129 2.084592819213867
v 14.084592819213867 8.884476661682129 4.089075565338135
v 16.29766273498535 7.941044807434082 4.297662734985352
v 19.684497833251953 6.037671089172363 2.120148181915283
v 19.071067810058594 7.071067810058594 6.123233998228043e-16
v 20.314695358276367 5.555702209472656 6.123233998228043e-16
v 18.35710906982422 6.357108116149902 4.378852367401123
v 18.037670135498047 7.684497356414795 2.120148181915283
v 16.37885284423828 6.357108116149902 6.357108116149902
v 14.120147705078125 6.037671089172363 7.684497356414795
v 14.120147705078125 7.684497356414795 6.037671089172363
vn -0.23356277974799702 -0.764226070287397 -0.601171307872782
vn -0.23356277974799702 -0.601171307872782 -0.764226070287397
vn -0.4464178373472605 -0.632736562282517 -0.632736562282517
vn -0.6011712466100403 -0.7642261277842199 -0.2335627493014828
vn -0.632736562282517 -0.632736562282517 -0.4464178373472605
vn -0.7642261251244409 -0.6011712445177503 -0.23356276338976217
vn -0.43612725228888244 -0.7871378784062543 -0.43612725228888244
vn -0.22410611811595477 -0.8841507436145106 -0.40994378930397996
vn -0.40994378930397996 -0.8841507436145106 -0.22410611811595477
vn -0.20860274230126877 -0.9554945273567927 -0.20860274230126877
vn -0.632736562282517 -0.4464178373472605 -0.632736562282517
vn -0.601171314149653 -0.23356273748315856 -0.764226078266734
vn -0.7642261251244409 -0.23356276338976217 -0.6011712445177503
vn -0.43612725228888244 -0.43612725228888244 -0.7871378784062543
vn -0.22410611811595477 -0.40994378930397996 -0.8841507436145106
vn -0.40994378930397996 -0.22410611811595477 -0.8841507436145106
vn -0.20860274230126877 -0.20860274230126877 -0.9554945273567927
vn -0.7871378784062543 -0.43612725228888244 -0.43612725228888244
vn -0.8841507436145106 -0.40994378930397996 -0.22410611811595477
vn -0.8841507436145106 -0.22410611811595477 -0.40994378930397996
vn -0.9554945273567927 -0.20860274230126877 -0.20860274230126877
vn 7.402229428586252e-10 -0.8391567518054149 -0.5438896449642935
vn 7.402229428586252e-10 -0.5438896449642935 -0.8391567518054149
vn 5.861987970398887e-10 -0.7071067513842252 -0.7071068109888685
vn 0.2335627493014828 -0.7642261277842199 -0.6011712466100403
vn 0.2335627493014828 -0.6011712466100403 -0.7642261277842199
vn 0.4321174830361016 -0.6376811730293043 -0.6376811134246607
vn 3.3487901379546005e-9 -0.932976962214385 -0.359936088739679
vn 6.760667070834742e-10 -0.9861362641580977 -0.16593754401072225
vn 0.2241061153779882 -0.8841507328125958 -0.40994381409790503
vn 0.4307660141017637 -0.7886580189568639 -0.4387016870607109
vn 0.20860272869695856 -0.9554945332969552 -0.20860272869695856
vn 0.40990814111950735 -0.8841630718390143 -0.22412268568832594
vn 3.3487901379546005e-9 -0.359936088739679 -0.932976962214385
vn 6.760667070834742e-10 -0.16593754401072225 -0.9861362641580977
vn 0.2241061153779882 -0.40994381409790503 -0.8841507328125958
vn 0.4307660141017637 -0.4387016870607109 -0.7886580189568639
vn 0.20860272869695856 -0.20860272869695856 -0.9554945332969552
vn 0.40990811632471064 -0.22412268842625668 -0.8841630826401399
vn -0.6011712466100403 -0.7642261277842199 0.2335627493014828
vn -0.8391567518054149 -0.5438896449642935 -4.0372147529629623e-10
vn -0.7071067811865476 -0.7071067811865476 -1.5915967705279218e-9
vn -0.7642261277842199 -0.6011712466100403 0.2335627493014828
vn -0.6327365707006265 -0.6327365707006265 0.4464178134842093
vn -0.4099438127289217 -0.8841507298600263 0.22410612953075992
vn -0.5438896449642935 -0.8391567518054149 -1.2913623579900524e-9
vn -0.359936088739679 -0.932976962214385 3.3487901379546005e-9
vn -0.20860272869695856 -0.9554945332969552 0.20860272869695856
vn -0.43612721336196425 -0.7871379215425054 0.43612721336196425
vn -0.22410611811595477 -0.8841507436145106 0.40994378930397996
vn -0.23356277974799702 -0.764226070287397 0.601171307872782
vn -0.4464178373472589 -0.6327365026778701 0.6327366218871593
vn -0.23356277974799702 -0.601171307872782 0.764226070287397
vn -0.932976962214385 -0.359936088739679 3.3487901379546005e-9
vn -0.8841507328125958 -0.40994381409790503 0.2241061153779882
vn -0.7871378784062543 -0.43612725228888244 0.43612725228888244
vn -0.9861362641580977 -0.16593754401072225 6.760667070834742e-10
vn -0.9554945332969552 -0.20860272869695856 0.20860272869695856
vn -0.8841507436145106 -0.22410611811595477 0.40994378930397996
vn -0.6327365026778701 -0.4464178373472589 0.6327366218871593
vn -0.764226070287397 -0.23356277974799702 0.601171307872782
vn -0.6011713120573628 -0.23356275157143822 0.7642260756069552
vn -0.43612725228888244 -0.43612725228888244 0.7871378784062543
vn -0.22410611811595477 -0.40994378930397996 0.8841507436145106
vn -0.40994378930397996 -0.22410611811595477 0.8841507436145106
vn -0.20860274230126877 -0.20860274230126877 0.9554945273567927
vn -0.16593752951986837 -0.9861362665964795 1.3998915487270587e-9
vn -9.046949300817175e-10 -1 -9.046949300817175e-10
vn 0.16593754401072225 -0.9861362641580977 8.739564685237914e-10
vn -1.6400061457796429e-9 -0.9861362665964795 0.16593752951986837
vn 3.148121067010234e-9 -0.9329769522064049 0.3599361146809913
vn 0.3599361146809913 -0.9329769522064049 3.148121067010234e-9
vn 0.20860274230126877 -0.9554945273567927 0.20860274230126877
vn 0.40990811632471064 -0.8841630826401399 0.22412268842625668
vn 0.5148517436441226 -0.8572792322613483 -2.4501702636624534e-9
vn 0.22410611811595477 -0.8841507436145106 0.40994378930397996
vn 0.4307659898295408 -0.7886580290815194 0.4387016926926874
vn 9.965264228086389e-10 -0.8391567518054149 0.5438896449642935
vn 6.644188921479887e-10 -0.7071067513842252 0.7071068109888685
vn 7.402229428586252e-10 -0.5438896449642935 0.8391567518054149
vn 0.23356275157143822 -0.7642260756069552 0.6011713120573628
vn 0.43211749946035105 -0.6376811376621287 0.6376811376621287
vn 0.2335627493014828 -0.6011712466100403 0.7642261277842199
vn 3.3487901379546005e-9 -0.359936088739679 0.932976962214385
vn 6.760667070834742e-10 -0.16593754401072225 0.9861362641580977
vn -3.096839296750894e-9 -0.6438601752866443 0.7651431726676071
vn 0.2241061153779882 -0.40994381409790503 0.8841507328125958
vn 0.4307660197337402 -0.43870166299411834 0.7886580292680382
vn 0.20860272869695856 -0.20860272869695856 0.9554945332969552
vn 0.40990811632471064 -0.22412268842625668 0.8841630826401399
vn -0.6011712466100403 0.2335627493014828 -0.7642261277842199
vn -0.8391567518054149 -4.0372147529629623e-10 -0.5438896449642935
vn -0.7071067811865476 -1.6698168689327524e-9 -0.7071067811865476
vn -0.7642261277842199 0.2335627493014828 -0.6011712466100403
vn -0.6327365707006265 0.4464178134842093 -0.6327365707006265
vn -0.5438896449642935 -1.2913623579900524e-9 -0.8391567518054149
vn -0.4099438127289217 0.22410612953075992 -0.8841507298600263
vn -0.359936088739679 3.3487901379546005e-9 -0.932976962214385
vn -0.20860272869695856 0.20860272869695856 -0.9554945332969552
vn -0.43612721336196425 0.43612721336196425 -0.7871379215425054
vn -0.22410611811595477 0.40994378930397996 -0.8841507436145106
vn -0.932976962214385 3.3487901379546005e-9 -0.359936088739679
vn -0.8841507328125958 0.2241061153779882 -0.40994381409790503
vn -0.9861362665964795 1.3998915487270587e-9 -0.16593752951986837
vn -0.9554945332969552 0.20860272869695856 -0.20860272869695856
vn -0.7871379215425054 0.43612721336196425 -0.43612721336196425
vn -0.8841507436145106 0.40994378930397996 -0.22410611811595477
vn -0.23356277974799702 0.601171307872782 -0.764226070287397
vn -0.4464178373472589 0.6327366218871593 -0.6327365026778701
vn -0.23356277974799702 0.764226070287397 -0.601171307872782
vn -0.6327365026778701 0.6327366218871593 -0.4464178373472589
vn -0.764226070287397 0.601171307872782 -0.23356277974799702
vn -0.6011713120573628 0.7642260756069552 -0.23356275157143822
vn -0.43612725228888244 0.7871378784062543 -0.43612725228888244
vn -0.22410611811595477 0.8841507436145106 -0.40994378930397996
vn -0.40994378930397996 0.8841507436145106 -0.22410611811595477
vn -0.20860274230126877 0.9554945273567927 -0.20860274230126877
vn -0.16593752951986837 1.3998915487270587e-9 -0.9861362665964795
vn -9.046949300817175e-10 -9.046949300817175e-10 -1
vn 0.16593754401072225 8.739564685237914e-10 -0.9861362641580977
vn -1.6400061457796429e-9 0.16593752951986837 -0.9861362665964795
vn 3.148121067010234e-9 0.3599361146809913 -0.9329769522064049
vn 0.3599361146809913 3.148121067010234e-9 -0.9329769522064049
vn 0.20860274230126877 0.20860274230126877 -0.9554945273567927
vn 0.5148517436441226 -2.4501702636624534e-9 -0.8572792322613483
vn 0.40990811632471064 0.22412268842625668 -0.8841630826401399
vn 0.22410611811595477 0.40994378930397996 -0.8841507436145106
vn 0.4307659898295408 0.4387016926926874 -0.7886580290815194
vn 9.965264228086389e-10 0.5438896449642935 -0.8391567518054149
vn 6.644188921479887e-10 0.7071068109888685 -0.7071067513842252
vn 7.402229428586252e-10 0.8391567518054149 -0.5438896449642935
vn 0.23356275157143822 0.6011713120573628 -0.7642260756069552
vn 0.43211749946035105 0.6376811376621287 -0.6376811376621287
vn 0.2335627493014828 0.7642261277842199 -0.6011712466100403
vn 3.3487901379546005e-9 0.932976962214385 -0.359936088739679
vn 6.760667070834742e-10 0.9861362641580977 -0.16593754401072225
vn 1.777821979320837e-8 0.8876075152573842 -0.4606005849525295
vn 0.2241061153779882 0.8841507328125958 -0.40994381409790503
vn 0.4307660197337402 0.7886580292680382 -0.43870166299411834
vn 0.20860272869695856 0.9554945332969552 -0.20860272869695856
vn 0.40990811632471064 0.8841630826401399 -0.22412268842625668
vn -1 -9.046949300817175e-10 -9.046949300817175e-10
vn -0.9861362641580977 8.739564685237914e-10 0.16593754401072225
vn -0.9861362641580977 0.16593754401072225 8.739564685237914e-10
vn -0.9554945273567927 0.20860274230126877 0.20860274230126877
vn -0.932976962214385 3.3487901379546005e-9 0.359936088739679
vn -0.8841507436145106 0.22410611811595477 0.40994378930397996
vn -0.9329769522064049 0.3599361146809913 3.148121067010234e-9
vn -0.8841507436145106 0.40994378930397996 0.22410611811595477
vn -0.7871379420043191 0.4361271948968587 0.4361271948968587
vn -0.8391567518054149 6.738059039319461e-10 0.5438896449642935
vn -0.7071067811865476 2.9204346108302264e-9 0.7071067811865476
vn -0.7642260756069552 0.23356275157143822 0.6011713120573628
vn -0.6011712466100403 0.2335627493014828 0.7642261277842199
vn -0.632736562282517 0.4464178373472605 0.632736562282517
vn -0.5438896449642935 -1.2913623579900524e-9 0.8391567518054149
vn -0.4099438127289217 0.22410612953075992 0.8841507298600263
vn -0.359936088739679 3.3487901379546005e-9 0.932976962214385
vn -0.20860272869695856 0.20860272869695856 0.9554945332969552
vn -0.43612721336196425 0.43612721336196425 0.7871379215425054
vn -0.22410611811595477 0.40994378930397996 0.8841507436145106
vn -0.8391567518054149 0.5438896449642935 6.738059039319461e-10
vn -0.7642260756069552 0.6011713120573628 0.23356275157143822
vn -0.7071067811865476 0.7071067811865476 -1.5915967705279218e-9
vn -0.632736562282517 0.632736562282517 0.4464178373472605
vn -0.6011713120573628 0.7642260756069552 0.23356275157143822
vn -0.5438896449642935 0.8391567518054149 -1.5476658934512177e-9
vn -0.40994381409790503 0.8841507328125958 0.2241061153779882
vn -0.359936088739679 0.932976962214385 3.3487901379546005e-9
vn -0.20860272869695856 0.9554945332969552 0.20860272869695856
vn -0.43612721336196425 0.7871379215425054 0.43612721336196425
vn -0.22410611811595477 0.8841507436145106 0.40994378930397996
vn -0.4464178134842093 0.6327365707006265 0.6327365707006265
vn -0.23356277974799702 0.601171307872782 0.764226070287397
vn -0.23356277974799702 0.764226070287397 0.601171307872782
vn -0.16593752951986837 1.3998915487270587e-9 0.9861362665964795
vn -9.046949300817175e-10 -9.046949300817175e-10 1
vn 0.16593754401072225 8.739564685237914e-10 0.9861362641580977
vn -1.6400061457796429e-9 0.16593752951986837 0.9861362665964795
vn 3.148121067010234e-9 0.3599361146809913 0.9329769522064049
vn 0.3599361146809913 3.148121067010234e-9 0.9329769522064049
vn 0.20860274230126877 0.20860274230126877 0.9554945273567927
vn 0.5148517436441226 3.732305537294474e-9 0.8572792322613483
vn 0.40990811632471064 0.22412268842625668 0.8841630826401399
vn 0.22410611811595477 0.40994378930397996 0.8841507436145106
vn 0.430765965557317 0.43870169832466377 0.7886580392061746
vn -0.16593752951986837 0.9861362665964795 1.3998915487270587e-9
vn -9.046949300817175e-10 1 -9.046949300817175e-10
vn 0.16593754401072225 0.9861362641580977 8.739564685237914e-10
vn -1.6400061457796429e-9 0.9861362665964795 0.16593752951986837
vn 3.148121067010234e-9 0.9329769522064049 0.3599361146809913
vn -1.762832240521495e-8 0.887607539625702 0.4606005379931809
vn -1.0177136297333212e-8 0.7651431433036637 0.6438602101818293
vn 0.3599361146809913 0.9329769522064049 3.148121067010234e-9
vn 0.20860274230126877 0.9554945273567927 0.20860274230126877
vn 0.5148517436441226 0.8572792322613483 2.5457573564743626e-9
vn 0.40990814111950735 0.8841630718390143 0.22412268568832594
vn 0.22410611811595477 0.8841507436145106 0.40994378930397996
vn 0.430765965557317 0.7886580392061746 0.43870169832466377
vn 6.644189201511522e-10 0.7071067811865476 0.7071067811865476
vn 9.965264228086389e-10 0.5438896449642935 0.8391567518054149
vn 9.965264228086389e-10 0.8391567518054149 0.5438896449642935
vn 0.43211749946035105 0.6376811376621287 0.6376811376621287
vn 0.2335627493014828 0.6011712466100403 0.7642261277842199
vn 0.2335627493014828 0.7642261277842199 0.6011712466100403
vn -0.23356277974799702 -0.764226070287397 -0.601171307872782
vn -0.23356277974799702 -0.601171307872782 -0.764226070287397
vn -0.4321174752228823 -0.6376811458742534 -0.6376811458742534
vn 7.402230538809284e-10 -0.8391567518054149 -0.5438896449642935
vn 7.402230538809284e-10 -0.5438896449642935 -0.8391567518054149
vn 5.861989882797781e-10 -0.7071067811865476 -0.7071067811865476
vn -0.4307659898295408 -0.7886580290815194 -0.4387016926926874
vn -0.22410611811595477 -0.8841507436145106 -0.40994378930397996
vn -0.40990813975054186 -0.8841630688861851 -0.22412269984098698
vn 2.5068178439057906e-9 -0.9795663872741966 -0.20112109019836458
vn 1.0033868978988102e-8 -0.9215529086308217 -0.38825279985348743
vn 7.03653018601372e-9 -0.9889849650221242 -0.14801600913478072
vn -0.20860272804853305 -0.955494530326874 -0.20860274294969436
vn -3.096839177903315e-9 -0.7651431433036637 -0.6438602101818293
vn 1.777821979320837e-8 -0.8876075152573842 -0.4606005849525295
vn 3.3487903240769604e-9 -0.9329769522064049 -0.3599361146809913
vn 6.760667609229412e-10 -0.986136261719716 -0.16593755850157602
vn -0.4307659898295408 -0.4387016926926874 -0.7886580290815194
vn -0.22410611811595477 -0.40994378930397996 -0.8841507436145106
vn -3.096839177903315e-9 -0.6438602101818293 -0.7651431433036637
vn 1.777821979320837e-8 -0.4606005849525295 -0.8876075152573842
vn -0.4099081149557452 -0.2241227025789179 -0.8841630796873106
vn 6.722547052039202e-9 -0.38825279985348743 -0.9215529086308217
vn 2.5068178439057906e-9 -0.20112109019836458 -0.9795663872741966
vn 1.295940187642514e-8 -0.1480159945600848 -0.9889849672034396
vn -0.20860272804853305 -0.20860274294969436 -0.955494530326874
vn 3.3487903240769604e-9 -0.3599361146809913 -0.9329769522064049
vn 6.760667609229412e-10 -0.16593755850157602 -0.986136261719716
vn 0.23356275157143822 -0.7642260756069552 -0.6011713120573628
vn 0.23356275157143822 -0.6011713120573628 -0.7642260756069552
vn 0.4464177011957781 -0.6327366401146534 -0.632736580510007
vn 0.2241061350066932 -0.8841507514638549 -0.40994376314107056
vn 0.43612720423736684 -0.7871379646787504 -0.4361271446327236
vn 0.20860274230126877 -0.9554945273567927 -0.20860274230126877
vn 0.40994385638870984 -0.8841507001426175 -0.22410616690861587
vn 0.6011711874395836 -0.7642261879408152 -0.23356270476668714
vn 0.6327365482288454 -0.6327366674381321 -0.4464177082226157
vn 0.7642260359421359 -0.6011714469521335 -0.23356253414802475
vn 0.22410611811595477 -0.40994378930397996 -0.8841507436145106
vn 0.43612720423736684 -0.4361271446327236 -0.7871379646787504
vn 0.20860274230126877 -0.20860274230126877 -0.9554945273567927
vn 0.40994385638870984 -0.22410616690861587 -0.8841507001426175
vn 0.6327365482288454 -0.4464177082226157 -0.6327366674381321
vn 0.6011711874395836 -0.23356270476668714 -0.7642261879408152
vn 0.7642260359421359 -0.23356253414802475 -0.6011714469521335
vn 0.7871378784062543 -0.43612725228888244 -0.43612725228888244
vn 0.8841506845164235 -0.4099439981551065 -0.22410596923274018
vn 0.8841506845164235 -0.22410596923274018 -0.4099439981551065
vn 0.9554945273567927 -0.20860274230126877 -0.20860274230126877
vn -0.4099081149557452 -0.8841630796873106 0.2241227025789179
vn -0.5148517436441226 -0.8572792322613483 -2.450170485707056e-9
vn 3.2265869975844907e-9 -1 9.88727322237537e-10
vn -1.2738479451304703e-9 -0.9889849650221242 0.14801600913478072
vn 6.743575017007518e-9 -0.9795663931455952 0.20112106160153698
vn 1.0033868978988102e-8 -0.9215529086308217 0.38825279985348743
vn -0.359936088739679 -0.932976962214385 -9.16386412257631e-10
vn -0.20860272804853305 -0.955494530326874 0.20860274294969436
vn -0.4307659599253406 -0.7886580288949991 0.4387017223912556
vn -0.22410611811595477 -0.8841507436145106 0.40994378930397996
vn -1.762832240521495e-8 -0.887607539625702 0.4606005379931809
vn -1.0117644331416047e-8 -0.7651431433036637 0.6438602101818293
vn -0.16593752951986837 -0.9861362665964795 1.6413487384955044e-9
vn -9.046950966151712e-10 -1 1.3142909070090747e-12
vn 0.16593752951986837 -0.9861362665964795 3.9104209114789883e-10
vn -1.6400063678242496e-9 -0.9861362665964795 0.16593752951986837
vn 3.148121067010234e-9 -0.9329769522064049 0.3599361146809913
vn -0.23356277974799702 -0.764226070287397 0.601171307872782
vn -0.4321174752228823 -0.6376811458742534 0.6376811458742534
vn -0.2335627656597177 -0.6011713099650724 0.7642260729471761
vn 9.965266448532453e-10 -0.8391567518054149 0.5438896449642935
vn 6.644190866846087e-10 -0.7071067811865476 0.7071067811865476
vn 7.402230538809284e-10 -0.5438896449642935 0.8391567518054149
vn 1.777821979320837e-8 -0.4606005849525295 0.8876075152573842
vn -0.4307659898295408 -0.4387016926926874 0.7886580290815194
vn -0.22410611811595477 -0.40994378930397996 0.8841507436145106
vn 8.856463235019211e-9 -0.38825279985348743 0.9215529086308217
vn 2.5068178439057906e-9 -0.20112109019836458 0.9795663872741966
vn 1.295940187642514e-8 -0.1480159945600848 0.9889849672034396
vn -0.4099081149557452 -0.2241227025789179 0.8841630796873106
vn -0.20860272804853305 -0.20860274294969436 0.955494530326874
vn 3.3487903240769604e-9 -0.3599361146809913 0.9329769522064049
vn 6.760667609229412e-10 -0.16593755850157602 0.986136261719716
vn 0.3599361146809913 -0.9329769522064049 -1.0815603517523983e-11
vn 0.20860274230126877 -0.9554945273567927 0.20860274230126877
vn 0.4099438825516175 -0.8841506922932711 0.22410615001787637
vn 0.5438896869369322 -0.8391567246013382 4.405694581067055e-10
vn 0.2241061350066932 -0.8841507514638549 0.40994376314107056
vn 0.43612718010365303 -0.7871379749096571 0.43612715030133103
vn 0.6011712549791995 -0.7642261384233352 0.23356269294836388
vn 0.7071067513842252 -0.7071068109888685 3.096100243062026e-10
vn 0.7642260359421359 -0.6011714469521335 0.23356253414802475
vn 0.8391566349291562 -0.5438898252903567 9.879644965613667e-10
vn 0.6327365040691422 -0.6327366828830765 0.44641774892188313
vn 0.23356275157143822 -0.7642260756069552 0.6011713120573628
vn 0.4464177082226172 -0.632736607833491 0.632736607833491
vn 0.23356275157143822 -0.6011713120573628 0.7642260756069552
vn 0.9329768466904991 -0.359936388184708 9.702284580884622e-10
vn 0.8841506786112883 -0.40994399541714027 0.22410599753828578
vn 0.7871378784062543 -0.43612725228888244 0.43612725228888244
vn 0.9861362901831325 -0.16593738934866023 -2.3770174064936976e-9
vn 0.9554945332969552 -0.20860272869695856 0.20860272869695856
vn 0.8841506786112883 -0.22410599753828578 0.40994399541714027
vn 0.22410611811595477 -0.40994378930397996 0.8841507436145106
vn 0.43612721903057283 -0.4361271892282502 0.787137931773412
vn 0.20860274230126877 -0.20860274230126877 0.9554945273567927
vn 0.40994385638870984 -0.22410616690861587 0.8841507001426175
vn 0.6327365124872493 -0.4464177250588295 0.6327366913011859
vn 0.7642260058981453 -0.2335625398671502 0.6011714829229459
vn 0.6011711874395836 -0.23356270476668714 0.7642261879408152
vn -0.5148517436441226 -2.4501702636624534e-9 -0.8572792322613483
vn 3.2265869975844907e-9 9.88727322237537e-10 -1
vn -0.4099081149557452 0.2241227025789179 -0.8841630796873106
vn -1.2738479451304703e-9 0.14801600913478072 -0.9889849650221242
vn 6.743575017007518e-9 0.20112106160153698 -0.9795663931455952
vn 1.0033868978988102e-8 0.38825279985348743 -0.9215529086308217
vn -0.359936088739679 -9.16386412257631e-10 -0.932976962214385
vn -0.20860272804853305 0.20860274294969436 -0.955494530326874
vn -0.4307659599253406 0.4387017223912556 -0.7886580288949991
vn -0.22410611811595477 0.40994378930397996 -0.8841507436145106
vn -1.762832240521495e-8 0.4606005379931809 -0.887607539625702
vn -1.0117644331416047e-8 0.6438602101818293 -0.7651431433036637
vn -0.16593752951986837 1.6413487384955044e-9 -0.9861362665964795
vn -9.046950966151712e-10 1.3142909070090747e-12 -1
vn 0.16593752951986837 3.9104209114789883e-10 -0.9861362665964795
vn -1.6400063678242496e-9 0.16593752951986837 -0.9861362665964795
vn 3.148121067010234e-9 0.3599361146809913 -0.9329769522064049
vn -0.23356277974799702 0.601171307872782 -0.764226070287397
vn -0.4321174752228823 0.6376811458742534 -0.6376811458742534
vn -0.2335627656597177 0.7642260729471761 -0.6011713099650724
vn 9.965266448532453e-10 0.5438896449642935 -0.8391567518054149
vn 6.644190866846087e-10 0.7071067811865476 -0.7071067811865476
vn 7.402230538809284e-10 0.8391567518054149 -0.5438896449642935
vn -3.096839296750894e-9 0.7651431726676071 -0.6438601752866443
vn -0.4307659898295408 0.7886580290815194 -0.4387016926926874
vn -0.22410611811595477 0.8841507436145106 -0.40994378930397996
vn 8.856463235019211e-9 0.9215529086308217 -0.38825279985348743
vn 2.5068178439057906e-9 0.9795663872741966 -0.20112109019836458
vn 1.295940187642514e-8 0.9889849672034396 -0.1480159945600848
vn -0.4099081149557452 0.8841630796873106 -0.2241227025789179
vn -0.20860272804853305 0.955494530326874 -0.20860274294969436
vn 3.3487903240769604e-9 0.9329769522064049 -0.3599361146809913
vn 6.760667609229412e-10 0.986136261719716 -0.16593755850157602
vn 0.3599361146809913 -1.0815603517523983e-11 -0.9329769522064049
vn 0.20860274230126877 0.20860274230126877 -0.9554945273567927
vn 0.5438896869369322 4.405694581067055e-10 -0.8391567246013382
vn 0.4099438825516175 0.22410615001787637 -0.8841506922932711
vn 0.2241061350066932 0.40994376314107056 -0.8841507514638549
vn 0.43612718010365303 0.43612715030133103 -0.7871379749096571
vn 0.6011712549791995 0.23356269294836388 -0.7642261384233352
vn 0.7071067513842252 -2.554953962166738e-10 -0.7071068109888685
vn 0.7642260359421359 0.23356253414802475 -0.6011714469521335
vn 0.8391566349291562 9.879644965613667e-10 -0.5438898252903567
vn 0.6327365040691422 0.44641774892188313 -0.6327366828830765
vn 0.9329768466904991 9.702284580884622e-10 -0.359936388184708
vn 0.8841506786112883 0.22410599753828578 -0.40994399541714027
vn 0.9861362926215118 -2.3710521842089404e-9 -0.1659373748578061
vn 0.9554945332969552 0.20860272869695856 -0.20860272869695856
vn 0.7871379215425054 0.43612721336196425 -0.43612721336196425
vn 0.8841506786112883 0.40994399541714027 -0.22410599753828578
vn 0.23356275157143822 0.6011713120573628 -0.7642260756069552
vn 0.4464177082226172 0.632736607833491 -0.632736607833491
vn 0.23356275157143822 0.7642260756069552 -0.6011713120573628
vn 0.22410611811595477 0.8841507436145106 -0.40994378930397996
vn 0.43612721903057283 0.787137931773412 -0.4361271892282502
vn 0.20860274230126877 0.9554945273567927 -0.20860274230126877
vn 0.40994385638870984 0.8841507001426175 -0.22410616690861587
vn 0.6327365124872493 0.6327366913011859 -0.4464177250588295
vn 0.7642260058981453 0.6011714829229459 -0.2335625398671502
vn 0.6011711874395836 0.7642261879408152 -0.23356270476668714
vn 3.2265869975844907e-9 9.88727322237537e-10 1
vn -0.5148517436441226 -2.4501702636624534e-9 0.8572792322613483
vn -1.2738479451304703e-9 0.14801600913478072 0.9889849650221242
vn 6.743575017007518e-9 0.20112106160153698 0.9795663931455952
vn 1.2122322335179223e-8 0.38825275321730157 0.921552928278775
vn -0.4099081149557452 0.2241227025789179 0.8841630796873106
vn -0.359936088739679 -9.16386412257631e-10 0.932976962214385
vn -0.20860272804853305 0.20860274294969436 0.955494530326874
vn -1.762832240521495e-8 0.4606005379931809 0.887607539625702
vn -1.0177136297333212e-8 0.6438602101818293 0.7651431433036637
vn -0.4307659599253406 0.4387017223912556 0.7886580288949991
vn -0.22410611811595477 0.40994378930397996 0.8841507436145106
vn -0.16593752951986837 1.6413487384955044e-9 0.9861362665964795
vn -9.046950966151712e-10 1.3142909070090747e-12 1
vn 0.16593752951986837 3.9104209114789883e-10 0.9861362665964795
vn -1.6400063678242496e-9 0.16593752951986837 0.9861362665964795
vn 3.148121067010234e-9 0.3599361146809913 0.9329769522064049
vn 3.2265869975844907e-9 1 9.88727322237537e-10
vn -0.5148517436441226 0.8572792322613483 -2.7738879796277074e-9
vn 5.427839635143162e-9 0.9889849650221242 0.14801600913478072
vn 1.2122322335179223e-8 0.921552928278775 0.38825275321730157
vn 6.743575017007518e-9 0.9795663931455952 0.20112106160153698
vn -0.4099081149557452 0.8841630796873106 0.2241227025789179
vn -0.359936088739679 0.932976962214385 -9.16386412257631e-10
vn -0.20860272804853305 0.955494530326874 0.20860274294969436
vn -0.4307659599253406 0.7886580288949991 0.4387017223912556
vn -0.22410611811595477 0.8841507436145106 0.40994378930397996
vn -0.16593752951986837 0.9861362665964795 1.6413487384955044e-9
vn -9.046950966151712e-10 1 1.3142909070090747e-12
vn 0.16593752951986837 0.9861362665964795 3.9104209114789883e-10
vn -1.6400063678242496e-9 0.9861362665964795 0.16593752951986837
vn 3.148121067010234e-9 0.9329769522064049 0.3599361146809913
vn -0.43211745879863334 0.6376811812414288 0.6376811216367845
vn -0.23356277974799702 0.601171307872782 0.764226070287397
vn -0.23356277974799702 0.764226070287397 0.601171307872782
vn 6.644190866846087e-10 0.7071067811865476 0.7071067811865476
vn 9.965266448532453e-10 0.5438896449642935 0.8391567518054149
vn 9.965266448532453e-10 0.8391567518054149 0.5438896449642935
vn 1 2.13273523841373e-10 2.13273523841373e-10
vn 0.9861362926215118 3.3879191938294375e-9 0.1659373748578061
vn 0.9861362926215118 0.1659373748578061 3.3879191938294375e-9
vn 0.9554945273567927 0.20860274230126877 0.20860274230126877
vn 0.9329768466904991 9.702284580884622e-10 0.359936388184708
vn 0.8841506786112883 0.22410599753828578 0.40994399541714027
vn 0.9329768366825119 0.35993641412601396 2.21639994000146e-9
vn 0.8841506786112883 0.40994399541714027 0.22410599753828578
vn 0.7871379420043191 0.4361271948968587 0.4361271948968587
vn 0.3599361146809913 -1.0815603517523983e-11 0.9329769522064049
vn 0.20860274230126877 0.20860274230126877 0.9554945273567927
vn 0.5438896869369322 4.405694581067055e-10 0.8391567246013382
vn 0.4099438825516175 0.22410615001787637 0.8841506922932711
vn 0.2241061350066932 0.40994376314107056 0.8841507514638549
vn 0.4361271744350456 0.4361271744350456 0.7871379646787511
vn 0.7071067513842252 1.5624394719927965e-9 0.7071068109888685
vn 0.7642260359421359 0.23356253414802475 0.6011714469521335
vn 0.8391566349291562 1.8612483937776807e-9 0.5438898252903567
vn 0.6011712549791995 0.23356269294836388 0.7642261384233352
vn 0.6327364528825947 0.44641772505882316 0.6327367509058225
vn 0.3599361146809913 0.9329769522064049 -1.0815603517523983e-11
vn 0.20860274230126877 0.9554945273567927 0.20860274230126877
vn 0.5438896449642935 0.8391567518054149 4.4056944463366484e-10
vn 0.4099438825516175 0.8841506922932711 0.22410615001787637
vn 0.22410611811595477 0.8841507436145106 0.40994378930397996
vn 0.4361271744350456 0.7871379646787511 0.4361271744350456
vn 0.7642260359421359 0.6011714469521335 0.23356253414802475
vn 0.7071067513842252 0.7071068109888685 1.5624394719927965e-9
vn 0.8391566349291562 0.5438898252903567 1.8612483937776807e-9
vn 0.6327364528825947 0.6327367509058225 0.44641772505882316
vn 0.6011711874395836 0.7642261879408152 0.23356270476668714
vn 0.44641772505883265 0.6327366316965449 0.6327365720918994
vn 0.23356275157143822 0.6011713120573628 0.7642260756069552
vn 0.23356275157143822 0.7642260756069552 0.6011713120573628
f 5//5 18//18 11//11
f 5//5 3//3 7//7
f 11//11 14//14 3//3
f 5//5 11//11 3//3
f 3//3 2//2 1//1
f 3//3 1//1 7//7
f 3//3 14//14 2//2
f 4//4 46//46 42//42
f 6//6 5//5 4//4
f 6//6 18//18 5//5
f 6//6 41//41 19//19
f 6//6 4//4 42//42
f 6//6 42//42 41//41
f 4//4 7//7 9//9
f 9//9 8//8 10//10
f 1//1 8//8 7//7
f 7//7 8//8 9//9
f 9//9 47//47 46//46
f 4//4 9//9 46//46
f 9//9 10//10 47//47
f 10//10 67//67 47//47
f 4//4 5//5 7//7
f 13//13 12//12 11//11
f 13//13 11//11 18//18
f 12//12 93//93 96//96
f 13//13 20//20 92//92
f 13//13 93//93 12//12
f 13//13 92//92 93//93
f 12//12 16//16 14//14
f 2//2 14//14 15//15
f 16//16 17//17 15//15
f 14//14 16//16 15//15
f 11//11 12//12 14//14
f 12//12 96//96 16//16
f 16//16 96//96 98//98
f 16//16 98//98 17//17
f 17//17 98//98 118//118
f 6//6 19//19 18//18
f 13//13 18//18 20//20
f 19//19 21//21 20//20
f 18//18 19//19 20//20
f 19//19 41//41 54//54
f 19//19 54//54 21//21
f 21//21 54//54 57//57
f 20//20 21//21 102//102
f 20//20 102//102 92//92
f 21//21 104//104 102//102
f 21//21 57//57 104//104
f 57//57 142//142 104//104
f 1//1 22//22 8//8
f 1//1 24//24 22//22
f 22//22 24//24 25//25
f 22//22 25//25 30//30
f 2//2 15//15 23//23
f 2//2 23//23 24//24
f 23//23 26//26 24//24
f 23//23 36//36 26//26
f 1//1 2//2 24//24
f 25//25 24//24 26//26
f 25//25 26//26 27//27
f 25//25 27//27 31//31
f 26//26 37//37 27//27
f 27//27 219//219 31//31
f 27//27 37//37 225//225
f 27//27 225//225 219//219
f 8//8 22//22 28//28
f 8//8 28//28 10//10
f 10//10 28//28 29//29
f 22//22 30//30 28//28
f 28//28 32//32 29//29
f 28//28 30//30 32//32
f 10//10 29//29 67//67
f 67//67 29//29 68//68
f 29//29 32//32 69//69
f 29//29 69//69 68//68
f 30//30 33//33 32//32
f 25//25 31//31 30//30
f 30//30 31//31 33//33
f 31//31 216//216 33//33
f 32//32 33//33 72//72
f 32//32 72//72 69//69
f 33//33 75//75 72//72
f 33//33 217//217 75//75
f 33//33 216//216 215//215
f 33//33 215//215 217//217
f 75//75 217//217 257//257
f 31//31 219//219 220//220
f 31//31 220//220 216//216
f 15//15 34//34 23//23
f 15//15 17//17 34//34
f 17//17 35//35 34//34
f 23//23 34//34 36//36
f 34//34 35//35 38//38
f 34//34 38//38 36//36
f 17//17 118//118 35//35
f 118//118 119//119 35//35
f 35//35 120//120 38//38
f 35//35 119//119 120//120
f 26//26 36//36 37//37
f 36//36 38//38 39//39
f 36//36 39//39 37//37
f 37//37 39//39 228//228
f 37//37 226//226 225//225
f 37//37 228//228 226//226
f 38//38 123//123 39//39
f 38//38 120//120 123//123
f 39//39 229//229 228//228
f 39//39 230//230 229//229
f 39//39 125//125 230//230
f 39//39 123//123 125//125
f 125//125 316//316 230//230
f 46//46 40//40 42//42
f 41//41 43//43 55//55
f 43//43 42//42 40//40
f 41//41 42//42 43//43
f 43//43 40//40 44//44
f 43//43 44//44 56//56
f 46//46 47//47 45//45
f 46//46 45//45 40//40
f 47//47 67//67 48//48
f 47//47 48//48 45//45
f 40//40 45//45 49//49
f 45//45 48//48 50//50
f 45//45 50//50 49//49
f 49//49 50//50 51//51
f 40//40 49//49 44//44
f 44//44 60//60 56//56
f 44//44 49//49 52//52
f 44//44 52//52 60//60
f 60//60 52//52 63//63
f 49//49 51//51 52//52
f 52//52 51//51 53//53
f 52//52 53//53 63//63
f 41//41 55//55 54//54
f 54//54 58//58 57//57
f 54//54 55//55 58//58
f 43//43 56//56 55//55
f 55//55 59//59 58//58
f 55//55 56//56 59//59
f 56//56 61//61 59//59
f 57//57 58//58 143//143
f 57//57 143//143 142//142
f 58//58 59//59 146//146
f 58//58 146//146 143//143
f 59//59 151//151 146//146
f 56//56 60//60 61//61
f 61//61 60//60 62//62
f 59//59 61//61 151//151
f 61//61 62//62 152//152
f 61//61 152//152 151//151
f 62//62 156//156 152//152
f 60//60 63//63 62//62
f 62//62 63//63 65//65
f 53//53 64//64 63//63
f 63//63 64//64 65//65
f 65//65 64//64 66//66
f 62//62 65//65 156//156
f 65//65 158//158 156//156
f 65//65 66//66 158//158
f 66//66 176//176 158//158
f 67//67 68//68 70//70
f 67//67 70//70 48//48
f 68//68 69//69 70//70
f 70//70 69//69 73//73
f 48//48 71//71 50//50
f 48//48 70//70 71//71
f 50//50 71//71 78//78
f 70//70 73//73 71//71
f 73//73 76//76 71//71
f 71//71 76//76 78//78
f 69//69 72//72 73//73
f 73//73 72//72 74//74
f 72//72 75//75 74//74
f 75//75 257//257 258//258
f 74//74 75//75 258//258
f 74//74 258//258 259//259
f 74//74 259//259 260//260
f 73//73 74//74 76//76
f 76//76 74//74 77//77
f 76//76 77//77 81//81
f 74//74 260//260 77//77
f 77//77 260//260 265//265
f 77//77 265//265 266//266
f 50//50 78//78 51//51
f 51//51 78//78 79//79
f 78//78 81//81 79//79
f 76//76 81//81 78//78
f 51//51 79//79 53//53
f 81//81 83//83 79//79
f 53//53 80//80 64//64
f 53//53 79//79 80//80
f 79//79 83//83 80//80
f 80//80 83//83 87//87
f 77//77 82//82 81//81
f 81//81 82//82 83//83
f 83//83 82//82 88//88
f 77//77 266//266 82//82
f 82//82 266//266 86//86
f 82//82 86//86 88//88
f 64//64 80//80 84//84
f 64//64 84//84 66//66
f 66//66 84//84 85//85
f 80//80 87//87 84//84
f 84//84 89//89 85//85
f 84//84 87//87 89//89
f 66//66 85//85 176//176
f 176//176 85//85 177//177
f 85//85 89//89 178//178
f 85//85 178//178 177//177
f 88//88 86//86 278//278
f 88//88 278//278 281//281
f 83//83 88//88 87//87
f 87//87 88//88 90//90
f 87//87 90//90 89//89
f 88//88 281//281 90//90
f 89//89 90//90 181//181
f 89//89 181//181 178//178
f 90//90 281//281 282//282
f 90//90 282//282 283//283
f 90//90 283//283 183//183
f 183//183 283//283 375//375
f 90//90 183//183 181//181
f 96//96 93//93 91//91
f 92//92 103//103 94//94
f 92//92 94//94 93//93
f 94//94 91//91 93//93
f 94//94 95//95 91//91
f 94//94 106//106 95//95
f 96//96 97//97 98//98
f 96//96 91//91 97//97
f 98//98 99//99 118//118
f 98//98 97//97 99//99
f 91//91 100//100 97//97
f 97//97 101//101 99//99
f 97//97 100//100 101//101
f 100//100 108//108 101//101
f 91//91 95//95 100//100
f 92//92 102//102 103//103
f 102//102 104//104 105//105
f 102//102 105//105 103//103
f 104//104 142//142 144//144
f 104//104 144//144 105//105
f 94//94 103//103 106//106
f 103//103 105//105 107//107
f 103//103 107//107 106//106
f 106//106 107//107 112//112
f 105//105 148//148 107//107
f 105//105 144//144 148//148
f 107//107 148//148 162//162
f 95//95 106//106 111//111
f 95//95 109//109 100//100
f 95//95 111//111 109//109
f 111//111 114//114 109//109
f 100//100 109//109 108//108
f 109//109 110//110 108//108
f 109//109 114//114 110//110
f 106//106 112//112 111//111
f 112//112 113//113 111//111
f 107//107 162//162 112//112
f 112//112 162//162 164//164
f 112//112 164//164 113//113
f 113//113 164//164 167//167
f 111//111 113//113 114//114
f 113//113 116//116 114//114
f 110//110 114//114 115//115
f 114//114 116//116 115//115
f 116//116 117//117 115//115
f 113//113 167//167 116//116
f 116//116 167//167 169//169
f 116//116 169//169 117//117
f 117//117 169//169 187//187
f 118//118 121//121 119//119
f 118//118 99//99 121//121
f 119//119 121//121 120//120
f 121//121 124//124 120//120
f 99//99 101//101 122//122
f 99//99 122//122 121//121
f 101//101 129//129 122//122
f 121//121 122//122 124//124
f 124//124 122//122 127//127
f 122//122 129//129 127//127
f 120//120 124//124 123//123
f 124//124 126//126 123//123
f 123//123 126//126 125//125
f 125//125 318//318 316//316
f 126//126 318//318 125//125
f 126//126 319//319 318//318
f 126//126 320//320 319//319
f 124//124 127//127 126//126
f 127//127 128//128 126//126
f 127//127 132//132 128//128
f 126//126 128//128 320//320
f 128//128 325//325 320//320
f 128//128 326//326 325//325
f 101//101 108//108 129//129
f 108//108 130//130 129//129
f 129//129 130//130 132//132
f 127//127 129//129 132//132
f 108//108 110//110 130//130
f 132//132 130//130 134//134
f 110//110 115//115 131//131
f 110//110 131//131 130//130
f 130//130 131//131 134//134
f 131//131 138//138 134//134
f 128//128 132//132 133//133
f 132//132 134//134 133//133
f 134//134 139//139 133//133
f 128//128 133//133 326//326
f 133//133 338//338 326//326
f 133//133 139//139 338//338
f 115//115 135//135 131//131
f 115//115 117//117 135//135
f 117//117 136//136 135//135
f 131//131 135//135 138//138
f 135//135 136//136 140//140
f 135//135 140//140 138//138
f 117//117 187//187 136//136
f 187//187 188//188 136//136
f 136//136 189//189 140//140
f 136//136 188//188 189//189
f 139//139 137//137 338//338
f 139//139 341//341 137//137
f 134//134 138//138 139//139
f 138//138 141//141 139//139
f 138//138 140//140 141//141
f 139//139 141//141 341//341
f 140//140 194//194 141//141
f 140//140 189//189 194//194
f 141//141 342//342 341//341
f 141//141 343//343 342//342
f 141//141 196//196 343//343
f 196//196 392//392 343//343
f 141//141 194//194 196//196
f 142//142 143//143 144//144
f 143//143 145//145 144//144
f 143//143 146//146 145//145
f 146//146 151//151 147//147
f 145//145 146//146 147//147
f 144//144 145//145 148//148
f 145//145 149//149 148//148
f 148//148 149//149 162//162
f 145//145 147//147 149//149
f 147//147 150//150 149//149
f 147//147 153//153 150//150
f 149//149 150//150 163//163
f 147//147 151//151 153//153
f 151//151 152//152 153//153
f 153//153 152//152 154//154
f 152//152 156//156 154//154
f 150//150 153//153 155//155
f 153//153 154//154 155//155
f 156//156 158//158 157//157
f 156//156 157//157 154//154
f 158//158 176//176 159//159
f 158//158 159//159 157//157
f 154//154 160//160 155//155
f 154//154 157//157 160//160
f 157//157 161//161 160//160
f 157//157 159//159 161//161
f 160//160 161//161 174//174
f 149//149 163//163 162//162
f 162//162 163//163 164//164
f 163//163 166//166 164//164
f 150//150 165//165 163//163
f 163//163 165//165 166//166
f 164//164 166//166 167//167
f 165//165 171//171 166//166
f 167//167 166//166 168//168
f 167//167 168//168 169//169
f 169//169 170//170 187//187
f 169//169 168//168 170//170
f 166//166 171//171 168//168
f 168//168 171//171 172//172
f 171//171 175//175 172//172
f 168//168 172//172 170//170
f 150//150 155//155 165//165
f 155//155 173//173 165//165
f 155//155 160//160 173//173
f 165//165 173//173 171//171
f 160//160 174//174 173//173
f 171//171 173//173 175//175
f 173//173 174//174 175//175
f 176//176 177//177 179//179
f 176//176 179//179 159//159
f 177//177 178//178 179//179
f 179//179 178//178 182//182
f 159//159 180//180 161//161
f 159//159 179//179 180//180
f 161//161 180//180 201//201
f 179//179 182//182 180//180
f 182//182 185//185 180//180
f 180//180 185//185 201//201
f 178//178 181//181 182//182
f 182//182 181//181 184//184
f 183//183 375//375 377//377
f 181//181 183//183 184//184
f 184//184 183//183 377//377
f 184//184 377//377 378//378
f 184//184 378//378 379//379
f 186//186 379//379 383//383
f 186//186 383//383 384//384
f 185//185 184//184 186//186
f 182//182 184//184 185//185
f 185//185 186//186 204//204
f 184//184 379//379 186//186
f 187//187 190//190 188//188
f 187//187 170//170 190//190
f 188//188 190//190 189//189
f 190//190 195//195 189//189
f 170//170 172//172 191//191
f 170//170 191//191 190//190
f 172//172 202//202 191//191
f 190//190 191//191 195//195
f 195//195 191//191 198//198
f 191//191 202//202 198//198
f 199//199 192//192 395//395
f 199//199 193//193 192//192
f 189//189 195//195 194//194
f 195//195 197//197 194//194
f 196//196 394//394 392//392
f 197//197 396//396 394//394
f 197//197 395//395 396//396
f 197//197 394//394 196//196
f 194//194 197//197 196//196
f 198//198 199//199 197//197
f 198//198 205//205 199//199
f 195//195 198//198 197//197
f 197//197 199//199 395//395
f 174//174 200//200 175//175
f 200//200 204//204 205//205
f 161//161 201//201 174//174
f 174//174 201//201 200//200
f 200//200 201//201 204//204
f 185//185 204//204 201//201
f 172//172 175//175 202//202
f 175//175 200//200 202//202
f 200//200 205//205 202//202
f 198//198 202//202 205//205
f 186//186 203//203 204//204
f 199//199 205//205 203//203
f 204//204 203//203 205//205
f 203//203 384//384 193//193
f 186//186 384//384 203//203
f 199//199 203//203 193//193
f 208//208 212//212 219//219
f 208//208 225//225 223//223
f 208//208 219//219 225//225
f 208//208 207//207 206//206
f 208//208 206//206 212//212
f 208//208 223//223 207//207
f 206//206 209//209 213//213
f 206//206 211//211 209//209
f 209//209 211//211 234//234
f 209//209 234//234 237//237
f 207//207 224//224 210//210
f 207//207 210//210 211//211
f 210//210 235//235 211//211
f 210//210 244//244 235//235
f 206//206 207//207 211//211
f 234//234 211//211 235//235
f 212//212 214//214 216//216
f 214//214 213//213 218//218
f 206//206 213//213 212//212
f 212//212 213//213 214//214
f 214//214 261//261 256//256
f 214//214 256//256 217//217
f 214//214 215//215 216//216
f 214//214 217//217 215//215
f 256//256 257//257 217//217
f 214//214 218//218 261//261
f 218//218 267//267 261//261
f 212//212 220//220 219//219
f 212//212 216//216 220//220
f 213//213 209//209 221//221
f 213//213 221//221 218//218
f 218//218 221//221 222//222
f 209//209 237//237 221//221
f 221//221 239//239 222//222
f 221//221 237//237 239//239
f 218//218 222//222 267//267
f 267//267 222//222 268//268
f 222//222 239//239 269//269
f 222//222 269//269 268//268
f 223//223 228//228 227//227
f 207//207 223//223 224//224
f 227//227 231//231 224//224
f 223//223 227//227 224//224
f 223//223 225//225 226//226
f 223//223 226//226 228//228
f 227//227 228//228 229//229
f 227//227 229//229 230//230
f 227//227 230//230 315//315
f 227//227 315//315 321//321
f 315//315 230//230 316//316
f 227//227 321//321 231//231
f 231//231 321//321 327//327
f 224//224 232//232 210//210
f 224//224 231//231 232//232
f 231//231 233//233 232//232
f 210//210 232//232 244//244
f 232//232 233//233 246//246
f 232//232 246//246 244//244
f 231//231 327//327 233//233
f 327//327 328//328 233//233
f 233//233 329//329 246//246
f 233//233 328//328 329//329
f 234//234 235//235 236//236
f 234//234 236//236 238//238
f 235//235 245//245 236//236
f 236//236 242//242 238//238
f 236//236 245//245 248//248
f 236//236 248//248 242//242
f 242//242 248//248 251//251
f 237//237 240//240 239//239
f 234//234 238//238 237//237
f 237//237 238//238 240//240
f 238//238 241//241 240//240
f 239//239 240//240 288//288
f 239//239 288//288 269//269
f 240//240 291//291 288//288
f 240//240 241//241 291//291
f 238//238 242//242 241//241
f 241//241 295//295 291//291
f 241//241 242//242 243//243
f 242//242 251//251 243//243
f 241//241 243//243 295//295
f 243//243 297//297 295//295
f 243//243 252//252 297//297
f 235//235 244//244 245//245
f 244//244 246//246 247//247
f 244//244 247//247 245//245
f 245//245 247//247 249//249
f 245//245 249//249 248//248
f 246//246 348//348 247//247
f 246//246 329//329 348//348
f 247//247 350//350 249//249
f 247//247 348//348 350//350
f 248//248 249//249 250//250
f 248//248 250//250 251//251
f 249//249 350//350 355//355
f 249//249 355//355 250//250
f 250//250 355//355 357//357
f 250//250 357//357 253//253
f 243//243 251//251 252//252
f 250//250 253//253 251//251
f 251//251 253//253 252//252
f 252//252 253//253 254//254
f 252//252 302//302 297//297
f 252//252 254//254 302//302
f 254//254 305//305 302//302
f 253//253 359//359 254//254
f 253//253 357//357 359//359
f 254//254 359//359 361//361
f 254//254 361//361 305//305
f 305//305 361//361 413//413
f 256//256 261//261 255//255
f 256//256 258//258 257//257
f 256//256 255//255 258//258
f 255//255 259//259 258//258
f 255//255 260//260 259//259
f 261//261 267//267 262//262
f 261//261 262//262 255//255
f 255//255 263//263 260//260
f 255//255 262//262 264//264
f 255//255 264//264 263//263
f 263//263 264//264 272//272
f 263//263 265//265 260//260
f 263//263 266//266 265//265
f 267//267 268//268 270//270
f 267//267 270//270 262//262
f 268//268 269//269 270//270
f 270//270 269//269 289//289
f 262//262 271//271 264//264
f 262//262 270//270 271//271
f 264//264 271//271 275//275
f 270//270 289//289 271//271
f 289//289 292//292 271//271
f 271//271 292//292 275//275
f 263//263 273//273 266//266
f 273//273 86//86 266//266
f 273//273 279//279 86//86
f 263//263 272//272 273//273
f 273//273 272//272 274//274
f 273//273 274//274 279//279
f 264//264 275//275 272//272
f 272//272 275//275 276//276
f 275//275 299//299 276//276
f 292//292 299//299 275//275
f 272//272 276//276 274//274
f 299//299 301//301 276//276
f 274//274 277//277 280//280
f 274//274 276//276 277//277
f 276//276 301//301 277//277
f 277//277 301//301 308//308
f 279//279 278//278 86//86
f 279//279 281//281 278//278
f 279//279 284//284 281//281
f 274//274 280//280 279//279
f 279//279 280//280 284//284
f 284//284 280//280 285//285
f 284//284 282//282 281//281
f 284//284 283//283 282//282
f 284//284 376//376 283//283
f 376//376 375//375 283//283
f 284//284 381//381 376//376
f 284//284 285//285 381//381
f 285//285 387//387 381//381
f 280//280 277//277 286//286
f 280//280 286//286 285//285
f 285//285 286//286 287//287
f 277//277 308//308 286//286
f 286//286 310//310 287//287
f 286//286 308//308 310//310
f 285//285 287//287 387//387
f 387//387 287//287 388//388
f 287//287 310//310 389//389
f 287//287 389//389 388//388
f 269//269 288//288 289//289
f 289//289 288//288 290//290
f 288//288 291//291 290//290
f 290//290 291//291 294//294
f 289//289 290//290 292//292
f 292//292 290//290 293//293
f 292//292 293//293 299//299
f 290//290 294//294 293//293
f 293//293 294//294 298//298
f 291//291 295//295 294//294
f 294//294 295//295 296//296
f 295//295 297//297 296//296
f 297//297 303//303 296//296
f 294//294 296//296 298//298
f 298//298 296//296 304//304
f 293//293 300//300 299//299
f 299//299 300//300 301//301
f 301//301 300//300 309//309
f 293//293 298//298 300//300
f 300//300 298//298 312//312
f 300//300 312//312 309//309
f 298//298 304//304 312//312
f 297//297 302//302 303//303
f 302//302 305//305 306//306
f 302//302 306//306 303//303
f 296//296 303//303 304//304
f 303//303 307//307 304//304
f 303//303 306//306 307//307
f 304//304 307//307 313//313
f 305//305 414//414 306//306
f 305//305 413//413 414//414
f 306//306 417//417 307//307
f 306//306 414//414 417//417
f 307//307 417//417 430//430
f 309//309 312//312 314//314
f 301//301 309//309 308//308
f 308//308 309//309 311//311
f 308//308 311//311 310//310
f 309//309 314//314 311//311
f 310//310 311//311 422//422
f 310//310 422//422 389//389
f 311//311 314//314 424//424
f 311//311 424//424 422//422
f 304//304 313//313 312//312
f 312//312 313//313 314//314
f 314//314 313//313 428//428
f 313//313 430//430 428//428
f 307//307 430//430 313//313
f 314//314 428//428 424//424
f 315//315 317//317 321//321
f 315//315 316//316 318//318
f 315//315 318//318 317//317
f 317//317 318//318 319//319
f 317//317 319//319 320//320
f 321//321 322//322 327//327
f 321//321 317//317 322//322
f 317//317 320//320 323//323
f 317//317 324//324 322//322
f 317//317 323//323 324//324
f 323//323 332//332 324//324
f 323//323 320//320 325//325
f 323//323 325//325 326//326
f 327//327 330//330 328//328
f 327//327 322//322 330//330
f 328//328 330//330 329//329
f 330//330 349//349 329//329
f 322//322 324//324 331//331
f 322//322 331//331 330//330
f 324//324 335//335 331//331
f 330//330 331//331 349//349
f 349//349 331//331 352//352
f 331//331 335//335 352//352
f 323//323 326//326 333//333
f 333//333 326//326 338//338
f 333//333 338//338 339//339
f 323//323 333//333 332//332
f 333//333 334//334 332//332
f 333//333 339//339 334//334
f 324//324 332//332 335//335
f 332//332 336//336 335//335
f 335//335 336//336 365//365
f 352//352 335//335 365//365
f 332//332 334//334 336//336
f 365//365 336//336 367//367
f 334//334 340//340 337//337
f 334//334 337//337 336//336
f 336//336 337//337 367//367
f 337//337 368//368 367//367
f 339//339 338//338 137//137
f 339//339 137//137 341//341
f 339//339 341//341 344//344
f 334//334 339//339 340//340
f 339//339 344//344 340//340
f 344//344 345//345 340//340
f 344//344 341//341 342//342
f 344//344 342//342 343//343
f 344//344 343//343 393//393
f 393//393 343//343 392//392
f 344//344 393//393 398//398
f 344//344 398//398 345//345
f 345//345 398//398 402//402
f 340//340 346//346 337//337
f 340//340 345//345 346//346
f 345//345 347//347 346//346
f 337//337 346//346 368//368
f 346//346 347//347 370//370
f 346//346 370//370 368//368
f 345//345 402//402 347//347
f 402//402 403//403 347//347
f 347//347 404//404 370//370
f 347//347 403//403 404//404
f 329//329 349//349 348//348
f 349//349 351//351 348//348
f 348//348 351//351 350//350
f 351//351 354//354 350//350
f 349//349 352//352 351//351
f 352//352 353//353 351//351
f 352//352 365//365 353//353
f 351//351 353//353 354//354
f 353//353 358//358 354//354
f 350//350 354//354 355//355
f 355//355 356//356 357//357
f 354//354 356//356 355//355
f 357//357 356//356 360//360
f 354//354 358//358 356//356
f 358//358 363//363 356//356
f 357//357 360//360 359//359
f 359//359 362//362 361//361
f 359//359 360//360 362//362
f 361//361 415//415 413//413
f 361//361 362//362 415//415
f 356//356 363//363 360//360
f 360//360 363//363 364//364
f 360//360 364//364 362//362
f 363//363 373//373 364//364
f 362//362 364//364 419//419
f 362//362 419//419 415//415
f 364//364 441//441 419//419
f 353//353 365//365 366//366
f 365//365 367//367 366//366
f 367//367 369//369 366//366
f 353//353 366//366 358//358
f 366//366 372//372 358//358
f 366//366 369//369 372//372
f 358//358 372//372 363//363
f 369//369 374//374 372//372
f 367//367 368//368 369//369
f 368//368 371//371 369//369
f 368//368 370//370 371//371
f 369//369 371//371 374//374
f 370//370 433//433 371//371
f 370//370 404//404 433//433
f 371//371 435//435 374//374
f 371//371 433//433 435//435
f 363//363 372//372 373//373
f 372//372 374//374 373//373
f 373//373 440//440 441//441
f 374//374 440//440 373//373
f 364//364 373//373 441//441
f 374//374 435//435 440//440
f 376//376 377//377 375//375
f 376//376 381//381 380//380
f 376//376 380//380 377//377
f 380//380 378//378 377//377
f 380//380 379//379 378//378
f 381//381 387//387 382//382
f 381//381 382//382 380//380
f 385//385 383//383 379//379
f 385//385 384//384 383//383
f 380//380 385//385 379//379
f 380//380 386//386 385//385
f 380//380 382//382 386//386
f 385//385 386//386 408//408
f 387//387 388//388 390//390
f 387//387 390//390 382//382
f 388//388 389//389 390//390
f 390//390 389//389 423//423
f 382//382 391//391 386//386
f 382//382 390//390 391//391
f 386//386 391//391 411//411
f 390//390 423//423 391//391
f 423//423 426//426 391//391
f 391//391 426//426 411//411
f 400//400 395//395 192//192
f 400//400 192//192 193//193
f 393//393 392//392 394//394
f 397//397 394//394 396//396
f 397//397 396//396 395//395
f 393//393 394//394 397//397
f 393//393 397//397 398//398
f 398//398 399//399 402//402
f 398//398 397//397 399//399
f 397//397 395//395 400//400
f 397//397 400//400 401//401
f 400//400 409//409 401//401
f 397//397 401//401 399//399
f 402//402 405//405 403//403
f 402//402 399//399 405//405
f 403//403 405//405 404//404
f 405//405 434//434 404//404
f 399//399 401//401 406//406
f 399//399 406//406 405//405
f 401//401 412//412 406//406
f 405//405 406//406 434//434
f 434//434 406//406 437//437
f 406//406 412//412 437//437
f 407//407 193//193 384//384
f 385//385 407//407 384//384
f 400//400 193//193 407//407
f 385//385 408//408 407//407
f 400//400 407//407 409//409
f 407//407 408//408 409//409
f 408//408 410//410 409//409
f 410//410 445//445 446//446
f 386//386 411//411 408//408
f 408//408 411//411 410//410
f 410//410 411//411 445//445
f 426//426 445//445 411//411
f 401//401 409//409 412//412
f 409//409 410//410 412//412
f 410//410 446//446 412//412
f 437//437 412//412 446//446
f 413//413 415//415 414//414
f 414//414 415//415 416//416
f 414//414 416//416 417//417
f 417//417 418//418 430//430
f 416//416 418//418 417//417
f 415//415 419//419 416//416
f 416//416 419//419 420//420
f 419//419 441//441 420//420
f 418//418 420//420 421//421
f 416//416 420//420 418//418
f 418//418 421//421 429//429
f 420//420 439//439 421//421
f 389//389 422//422 423//423
f 423//423 422//422 425//425
f 422//422 424//424 425//425
f 425//425 424//424 431//431
f 427//427 431//431 432//432
f 426//426 425//425 427//427
f 423//423 425//425 426//426
f 426//426 427//427 445//445
f 425//425 431//431 427//427
f 428//428 430//430 429//429
f 428//428 429//429 431//431
f 418//418 429//429 430//430
f 428//428 431//431 424//424
f 421//421 432//432 429//429
f 431//431 429//429 432//432
f 438//438 442//442 443//443
f 404//404 434//434 433//433
f 434//434 436//436 433//433
f 436//436 443//443 435//435
f 433//433 436//436 435//435
f 437//437 438//438 436//436
f 437//437 446//446 438//438
f 434//434 437//437 436//436
f 436//436 438//438 443//443
f 440//440 439//439 441//441
f 440//440 443//443 439//439
f 420//420 441//441 439//439
f 421//421 439//439 442//442
f 442//442 439//439 443//443
f 440//440 435//435 443//443
f 427//427 444//444 445//445
f 438//438 446//446 444//444
f 445//445 444//444 446//446
f 444//444 432//432 442//442
f 427//427 432//432 444//444
f 438//438 444//444 442//442
f 421//421 442//442 432//432
