ISO-10303-21;
HEADER;
FILE_DESCRIPTION((''),'2;1');
FILE_NAME('hexagonal-cut-concrete-forest-left-mutated','2026-09-02T23:41:40','F1',('semio'),(''),'','');
FILE_SCHEMA(('AUTOMOTIVE_DESIGN'));
ENDSEC;
DATA;
#10=SHAPE_REPRESENTATION_RELATIONSHIP('','',#836,#13);
#11=PRESENTATION_LAYER_ASSIGNMENT('3D_UG','',(#12));
#12=MANIFOLD_SOLID_BREP('brep_1',#14);
#13=ADVANCED_BREP_SHAPE_REPRESENTATION('brep_rep_0',(#12,#895),#835);
#14=CLOSED_SHELL('',(#15,#16,#17,#18,#19,#20,#21,#22,#23,#24,#25,#26,#27,#28,#29,#30,#31,#32,#33,#34,#35,#36,#37,#38,#39,#40,#41,#42,#43,#44,#45,#46,#47,#48,#49,#50,#51,#52,#53,#54,#55,#56,#57,#58,#59,#60,#61,#62,#63,#64,#65,#66,#67,#68,#69,#70,#71));
#15=ADVANCED_FACE('',(#72),#762,.T.);
#16=ADVANCED_FACE('',(#73),#763,.T.);
#17=ADVANCED_FACE('',(#74),#764,.T.);
#18=ADVANCED_FACE('',(#75),#765,.T.);
#19=ADVANCED_FACE('',(#76),#766,.T.);
#20=ADVANCED_FACE('',(#77),#767,.T.);
#21=ADVANCED_FACE('',(#78),#768,.T.);
#22=ADVANCED_FACE('',(#79),#769,.T.);
#23=ADVANCED_FACE('',(#80),#803,.T.);
#24=ADVANCED_FACE('',(#81),#770,.T.);
#25=ADVANCED_FACE('',(#82),#771,.T.);
#26=ADVANCED_FACE('',(#83),#772,.T.);
#27=ADVANCED_FACE('',(#84),#804,.T.);
#28=ADVANCED_FACE('',(#85),#773,.T.);
#29=ADVANCED_FACE('',(#86),#774,.T.);
#30=ADVANCED_FACE('',(#87),#775,.T.);
#31=ADVANCED_FACE('',(#88),#805,.T.);
#32=ADVANCED_FACE('',(#89),#776,.T.);
#33=ADVANCED_FACE('',(#90),#777,.T.);
#34=ADVANCED_FACE('',(#91),#778,.T.);
#35=ADVANCED_FACE('',(#92),#806,.T.);
#36=ADVANCED_FACE('',(#93),#779,.T.);
#37=ADVANCED_FACE('',(#94),#780,.T.);
#38=ADVANCED_FACE('',(#95),#781,.T.);
#39=ADVANCED_FACE('',(#96),#807,.T.);
#40=ADVANCED_FACE('',(#97),#782,.T.);
#41=ADVANCED_FACE('',(#98),#783,.T.);
#42=ADVANCED_FACE('',(#99),#784,.T.);
#43=ADVANCED_FACE('',(#100),#808,.T.);
#44=ADVANCED_FACE('',(#101),#785,.T.);
#45=ADVANCED_FACE('',(#102),#786,.T.);
#46=ADVANCED_FACE('',(#103),#787,.T.);
#47=ADVANCED_FACE('',(#104),#809,.T.);
#48=ADVANCED_FACE('',(#105),#788,.T.);
#49=ADVANCED_FACE('',(#106),#789,.T.);
#50=ADVANCED_FACE('',(#107),#790,.T.);
#51=ADVANCED_FACE('',(#108),#810,.T.);
#52=ADVANCED_FACE('',(#109),#791,.T.);
#53=ADVANCED_FACE('',(#110),#792,.T.);
#54=ADVANCED_FACE('',(#111),#793,.T.);
#55=ADVANCED_FACE('',(#112),#794,.T.);
#56=ADVANCED_FACE('',(#113),#795,.T.);
#57=ADVANCED_FACE('',(#114),#796,.T.);
#58=ADVANCED_FACE('',(#115),#811,.T.);
#59=ADVANCED_FACE('',(#116),#797,.T.);
#60=ADVANCED_FACE('',(#117),#798,.T.);
#61=ADVANCED_FACE('',(#118),#799,.T.);
#62=ADVANCED_FACE('',(#119),#800,.T.);
#63=ADVANCED_FACE('',(#120),#801,.T.);
#64=ADVANCED_FACE('',(#121),#802,.T.);
#65=ADVANCED_FACE('',(#122),#812,.T.);
#66=ADVANCED_FACE('',(#123),#813,.T.);
#67=ADVANCED_FACE('',(#124),#814,.T.);
#68=ADVANCED_FACE('',(#125),#815,.T.);
#69=ADVANCED_FACE('',(#126),#816,.T.);
#70=ADVANCED_FACE('',(#127),#817,.T.);
#71=ADVANCED_FACE('',(#128),#761,.T.);
#72=FACE_OUTER_BOUND('',#129,.T.);
#73=FACE_OUTER_BOUND('',#130,.T.);
#74=FACE_OUTER_BOUND('',#131,.T.);
#75=FACE_OUTER_BOUND('',#132,.T.);
#76=FACE_OUTER_BOUND('',#133,.T.);
#77=FACE_OUTER_BOUND('',#134,.T.);
#78=FACE_OUTER_BOUND('',#135,.T.);
#79=FACE_OUTER_BOUND('',#136,.T.);
#80=FACE_OUTER_BOUND('',#137,.T.);
#81=FACE_OUTER_BOUND('',#138,.T.);
#82=FACE_OUTER_BOUND('',#139,.T.);
#83=FACE_OUTER_BOUND('',#140,.T.);
#84=FACE_OUTER_BOUND('',#141,.T.);
#85=FACE_OUTER_BOUND('',#142,.T.);
#86=FACE_OUTER_BOUND('',#143,.T.);
#87=FACE_OUTER_BOUND('',#144,.T.);
#88=FACE_OUTER_BOUND('',#145,.T.);
#89=FACE_OUTER_BOUND('',#146,.T.);
#90=FACE_OUTER_BOUND('',#147,.T.);
#91=FACE_OUTER_BOUND('',#148,.T.);
#92=FACE_OUTER_BOUND('',#149,.T.);
#93=FACE_OUTER_BOUND('',#150,.T.);
#94=FACE_OUTER_BOUND('',#151,.T.);
#95=FACE_OUTER_BOUND('',#152,.T.);
#96=FACE_OUTER_BOUND('',#153,.T.);
#97=FACE_OUTER_BOUND('',#154,.T.);
#98=FACE_OUTER_BOUND('',#155,.T.);
#99=FACE_OUTER_BOUND('',#156,.T.);
#100=FACE_OUTER_BOUND('',#157,.T.);
#101=FACE_OUTER_BOUND('',#158,.T.);
#102=FACE_OUTER_BOUND('',#159,.T.);
#103=FACE_OUTER_BOUND('',#160,.T.);
#104=FACE_OUTER_BOUND('',#161,.T.);
#105=FACE_OUTER_BOUND('',#162,.T.);
#106=FACE_OUTER_BOUND('',#163,.T.);
#107=FACE_OUTER_BOUND('',#164,.T.);
#108=FACE_OUTER_BOUND('',#165,.T.);
#109=FACE_OUTER_BOUND('',#166,.T.);
#110=FACE_OUTER_BOUND('',#167,.T.);
#111=FACE_OUTER_BOUND('',#168,.T.);
#112=FACE_OUTER_BOUND('',#169,.T.);
#113=FACE_OUTER_BOUND('',#170,.T.);
#114=FACE_OUTER_BOUND('',#171,.T.);
#115=FACE_OUTER_BOUND('',#172,.T.);
#116=FACE_OUTER_BOUND('',#173,.T.);
#117=FACE_OUTER_BOUND('',#174,.T.);
#118=FACE_OUTER_BOUND('',#175,.T.);
#119=FACE_OUTER_BOUND('',#176,.T.);
#120=FACE_OUTER_BOUND('',#177,.T.);
#121=FACE_OUTER_BOUND('',#178,.T.);
#122=FACE_OUTER_BOUND('',#179,.T.);
#123=FACE_OUTER_BOUND('',#180,.T.);
#124=FACE_OUTER_BOUND('',#181,.T.);
#125=FACE_OUTER_BOUND('',#182,.T.);
#126=FACE_OUTER_BOUND('',#183,.T.);
#127=FACE_OUTER_BOUND('',#184,.T.);
#128=FACE_OUTER_BOUND('',#185,.T.);
#129=EDGE_LOOP('',(#186,#187,#188,#189));
#130=EDGE_LOOP('',(#190,#191,#192,#193,#194,#195,#196,#197,#198,#199));
#131=EDGE_LOOP('',(#200,#201,#202,#203,#204,#205));
#132=EDGE_LOOP('',(#206,#207,#208,#209,#210,#211,#212,#213,#214,#215));
#133=EDGE_LOOP('',(#216,#217,#218,#219));
#134=EDGE_LOOP('',(#220,#221,#222,#223));
#135=EDGE_LOOP('',(#224,#225,#226,#227));
#136=EDGE_LOOP('',(#228,#229,#230,#231));
#137=EDGE_LOOP('',(#232,#233,#234,#235));
#138=EDGE_LOOP('',(#236,#237,#238,#239));
#139=EDGE_LOOP('',(#240,#241,#242,#243));
#140=EDGE_LOOP('',(#244,#245,#246,#247));
#141=EDGE_LOOP('',(#248,#249,#250,#251));
#142=EDGE_LOOP('',(#252,#253,#254,#255));
#143=EDGE_LOOP('',(#256,#257,#258,#259));
#144=EDGE_LOOP('',(#260,#261,#262,#263));
#145=EDGE_LOOP('',(#264,#265,#266,#267));
#146=EDGE_LOOP('',(#268,#269,#270,#271));
#147=EDGE_LOOP('',(#272,#273,#274,#275));
#148=EDGE_LOOP('',(#276,#277,#278,#279));
#149=EDGE_LOOP('',(#280,#281,#282,#283));
#150=EDGE_LOOP('',(#284,#285,#286,#287));
#151=EDGE_LOOP('',(#288,#289,#290,#291));
#152=EDGE_LOOP('',(#292,#293,#294,#295));
#153=EDGE_LOOP('',(#296,#297,#298,#299));
#154=EDGE_LOOP('',(#300,#301,#302,#303));
#155=EDGE_LOOP('',(#304,#305,#306,#307));
#156=EDGE_LOOP('',(#308,#309,#310,#311));
#157=EDGE_LOOP('',(#312,#313,#314,#315));
#158=EDGE_LOOP('',(#316,#317,#318,#319));
#159=EDGE_LOOP('',(#320,#321,#322,#323));
#160=EDGE_LOOP('',(#324,#325,#326,#327));
#161=EDGE_LOOP('',(#328,#329,#330,#331));
#162=EDGE_LOOP('',(#332,#333,#334,#335));
#163=EDGE_LOOP('',(#336,#337,#338,#339));
#164=EDGE_LOOP('',(#340,#341,#342,#343));
#165=EDGE_LOOP('',(#344,#345,#346,#347,#348,#349));
#166=EDGE_LOOP('',(#350,#351,#352,#353));
#167=EDGE_LOOP('',(#354,#355,#356,#357,#358));
#168=EDGE_LOOP('',(#359,#360,#361,#362,#363));
#169=EDGE_LOOP('',(#364,#365,#366,#367));
#170=EDGE_LOOP('',(#368,#369,#370,#371));
#171=EDGE_LOOP('',(#372,#373,#374,#375));
#172=EDGE_LOOP('',(#376,#377,#378,#379,#380,#381));
#173=EDGE_LOOP('',(#382,#383,#384,#385));
#174=EDGE_LOOP('',(#386,#387,#388,#389));
#175=EDGE_LOOP('',(#390,#391,#392,#393));
#176=EDGE_LOOP('',(#394,#395,#396,#397));
#177=EDGE_LOOP('',(#398,#399,#400,#401,#402,#403));
#178=EDGE_LOOP('',(#404,#405,#406,#407));
#179=EDGE_LOOP('',(#408,#409,#410));
#180=EDGE_LOOP('',(#411,#412,#413));
#181=EDGE_LOOP('',(#414,#415,#416,#417));
#182=EDGE_LOOP('',(#418,#419,#420,#421));
#183=EDGE_LOOP('',(#422,#423,#424,#425));
#184=EDGE_LOOP('',(#426,#427,#428,#429,#430,#431,#432));
#185=EDGE_LOOP('',(#433,#434,#435,#436,#437));
#186=ORIENTED_EDGE('',*,*,#438,.T.);
#187=ORIENTED_EDGE('',*,*,#444,.F.);
#188=ORIENTED_EDGE('',*,*,#443,.F.);
#189=ORIENTED_EDGE('',*,*,#442,.F.);
#190=ORIENTED_EDGE('',*,*,#439,.T.);
#191=ORIENTED_EDGE('',*,*,#555,.F.);
#192=ORIENTED_EDGE('',*,*,#554,.T.);
#193=ORIENTED_EDGE('',*,*,#553,.F.);
#194=ORIENTED_EDGE('',*,*,#552,.T.);
#195=ORIENTED_EDGE('',*,*,#551,.F.);
#196=ORIENTED_EDGE('',*,*,#550,.T.);
#197=ORIENTED_EDGE('',*,*,#446,.F.);
#198=ORIENTED_EDGE('',*,*,#445,.F.);
#199=ORIENTED_EDGE('',*,*,#444,.T.);
#200=ORIENTED_EDGE('',*,*,#440,.T.);
#201=ORIENTED_EDGE('',*,*,#557,.F.);
#202=ORIENTED_EDGE('',*,*,#556,.T.);
#203=ORIENTED_EDGE('',*,*,#448,.F.);
#204=ORIENTED_EDGE('',*,*,#447,.F.);
#205=ORIENTED_EDGE('',*,*,#446,.T.);
#206=ORIENTED_EDGE('',*,*,#441,.T.);
#207=ORIENTED_EDGE('',*,*,#563,.F.);
#208=ORIENTED_EDGE('',*,*,#562,.T.);
#209=ORIENTED_EDGE('',*,*,#561,.F.);
#210=ORIENTED_EDGE('',*,*,#560,.T.);
#211=ORIENTED_EDGE('',*,*,#559,.F.);
#212=ORIENTED_EDGE('',*,*,#558,.T.);
#213=ORIENTED_EDGE('',*,*,#442,.T.);
#214=ORIENTED_EDGE('',*,*,#449,.F.);
#215=ORIENTED_EDGE('',*,*,#448,.T.);
#216=ORIENTED_EDGE('',*,*,#447,.T.);
#217=ORIENTED_EDGE('',*,*,#449,.T.);
#218=ORIENTED_EDGE('',*,*,#443,.T.);
#219=ORIENTED_EDGE('',*,*,#445,.T.);
#220=ORIENTED_EDGE('',*,*,#456,.F.);
#221=ORIENTED_EDGE('',*,*,#450,.F.);
#222=ORIENTED_EDGE('',*,*,#453,.T.);
#223=ORIENTED_EDGE('',*,*,#457,.F.);
#224=ORIENTED_EDGE('',*,*,#454,.F.);
#225=ORIENTED_EDGE('',*,*,#451,.T.);
#226=ORIENTED_EDGE('',*,*,#455,.T.);
#227=ORIENTED_EDGE('',*,*,#458,.F.);
#228=ORIENTED_EDGE('',*,*,#459,.T.);
#229=ORIENTED_EDGE('',*,*,#455,.F.);
#230=ORIENTED_EDGE('',*,*,#452,.T.);
#231=ORIENTED_EDGE('',*,*,#456,.T.);
#232=ORIENTED_EDGE('',*,*,#459,.F.);
#233=ORIENTED_EDGE('',*,*,#457,.T.);
#234=ORIENTED_EDGE('',*,*,#561,.T.);
#235=ORIENTED_EDGE('',*,*,#458,.T.);
#236=ORIENTED_EDGE('',*,*,#464,.F.);
#237=ORIENTED_EDGE('',*,*,#460,.F.);
#238=ORIENTED_EDGE('',*,*,#538,.T.);
#239=ORIENTED_EDGE('',*,*,#465,.F.);
#240=ORIENTED_EDGE('',*,*,#539,.F.);
#241=ORIENTED_EDGE('',*,*,#461,.T.);
#242=ORIENTED_EDGE('',*,*,#463,.T.);
#243=ORIENTED_EDGE('',*,*,#466,.F.);
#244=ORIENTED_EDGE('',*,*,#467,.T.);
#245=ORIENTED_EDGE('',*,*,#463,.F.);
#246=ORIENTED_EDGE('',*,*,#462,.T.);
#247=ORIENTED_EDGE('',*,*,#464,.T.);
#248=ORIENTED_EDGE('',*,*,#467,.F.);
#249=ORIENTED_EDGE('',*,*,#465,.T.);
#250=ORIENTED_EDGE('',*,*,#555,.T.);
#251=ORIENTED_EDGE('',*,*,#466,.T.);
#252=ORIENTED_EDGE('',*,*,#473,.F.);
#253=ORIENTED_EDGE('',*,*,#468,.F.);
#254=ORIENTED_EDGE('',*,*,#470,.T.);
#255=ORIENTED_EDGE('',*,*,#474,.F.);
#256=ORIENTED_EDGE('',*,*,#471,.F.);
#257=ORIENTED_EDGE('',*,*,#460,.T.);
#258=ORIENTED_EDGE('',*,*,#472,.T.);
#259=ORIENTED_EDGE('',*,*,#475,.F.);
#260=ORIENTED_EDGE('',*,*,#476,.T.);
#261=ORIENTED_EDGE('',*,*,#472,.F.);
#262=ORIENTED_EDGE('',*,*,#469,.T.);
#263=ORIENTED_EDGE('',*,*,#473,.T.);
#264=ORIENTED_EDGE('',*,*,#476,.F.);
#265=ORIENTED_EDGE('',*,*,#474,.T.);
#266=ORIENTED_EDGE('',*,*,#553,.T.);
#267=ORIENTED_EDGE('',*,*,#475,.T.);
#268=ORIENTED_EDGE('',*,*,#481,.F.);
#269=ORIENTED_EDGE('',*,*,#477,.F.);
#270=ORIENTED_EDGE('',*,*,#540,.T.);
#271=ORIENTED_EDGE('',*,*,#482,.F.);
#272=ORIENTED_EDGE('',*,*,#541,.F.);
#273=ORIENTED_EDGE('',*,*,#478,.T.);
#274=ORIENTED_EDGE('',*,*,#480,.T.);
#275=ORIENTED_EDGE('',*,*,#483,.F.);
#276=ORIENTED_EDGE('',*,*,#484,.T.);
#277=ORIENTED_EDGE('',*,*,#480,.F.);
#278=ORIENTED_EDGE('',*,*,#479,.T.);
#279=ORIENTED_EDGE('',*,*,#481,.T.);
#280=ORIENTED_EDGE('',*,*,#484,.F.);
#281=ORIENTED_EDGE('',*,*,#482,.T.);
#282=ORIENTED_EDGE('',*,*,#551,.T.);
#283=ORIENTED_EDGE('',*,*,#483,.T.);
#284=ORIENTED_EDGE('',*,*,#488,.F.);
#285=ORIENTED_EDGE('',*,*,#451,.F.);
#286=ORIENTED_EDGE('',*,*,#542,.T.);
#287=ORIENTED_EDGE('',*,*,#489,.F.);
#288=ORIENTED_EDGE('',*,*,#543,.F.);
#289=ORIENTED_EDGE('',*,*,#485,.F.);
#290=ORIENTED_EDGE('',*,*,#487,.T.);
#291=ORIENTED_EDGE('',*,*,#490,.F.);
#292=ORIENTED_EDGE('',*,*,#491,.T.);
#293=ORIENTED_EDGE('',*,*,#487,.F.);
#294=ORIENTED_EDGE('',*,*,#486,.T.);
#295=ORIENTED_EDGE('',*,*,#488,.T.);
#296=ORIENTED_EDGE('',*,*,#491,.F.);
#297=ORIENTED_EDGE('',*,*,#489,.T.);
#298=ORIENTED_EDGE('',*,*,#563,.T.);
#299=ORIENTED_EDGE('',*,*,#490,.T.);
#300=ORIENTED_EDGE('',*,*,#496,.F.);
#301=ORIENTED_EDGE('',*,*,#492,.F.);
#302=ORIENTED_EDGE('',*,*,#544,.T.);
#303=ORIENTED_EDGE('',*,*,#497,.F.);
#304=ORIENTED_EDGE('',*,*,#545,.F.);
#305=ORIENTED_EDGE('',*,*,#493,.F.);
#306=ORIENTED_EDGE('',*,*,#495,.T.);
#307=ORIENTED_EDGE('',*,*,#498,.F.);
#308=ORIENTED_EDGE('',*,*,#499,.T.);
#309=ORIENTED_EDGE('',*,*,#495,.F.);
#310=ORIENTED_EDGE('',*,*,#494,.T.);
#311=ORIENTED_EDGE('',*,*,#496,.T.);
#312=ORIENTED_EDGE('',*,*,#499,.F.);
#313=ORIENTED_EDGE('',*,*,#497,.T.);
#314=ORIENTED_EDGE('',*,*,#559,.T.);
#315=ORIENTED_EDGE('',*,*,#498,.T.);
#316=ORIENTED_EDGE('',*,*,#503,.F.);
#317=ORIENTED_EDGE('',*,*,#485,.T.);
#318=ORIENTED_EDGE('',*,*,#546,.T.);
#319=ORIENTED_EDGE('',*,*,#504,.F.);
#320=ORIENTED_EDGE('',*,*,#547,.F.);
#321=ORIENTED_EDGE('',*,*,#500,.T.);
#322=ORIENTED_EDGE('',*,*,#502,.T.);
#323=ORIENTED_EDGE('',*,*,#505,.F.);
#324=ORIENTED_EDGE('',*,*,#506,.T.);
#325=ORIENTED_EDGE('',*,*,#502,.F.);
#326=ORIENTED_EDGE('',*,*,#501,.T.);
#327=ORIENTED_EDGE('',*,*,#503,.T.);
#328=ORIENTED_EDGE('',*,*,#506,.F.);
#329=ORIENTED_EDGE('',*,*,#504,.T.);
#330=ORIENTED_EDGE('',*,*,#557,.T.);
#331=ORIENTED_EDGE('',*,*,#505,.T.);
#332=ORIENTED_EDGE('',*,*,#548,.T.);
#333=ORIENTED_EDGE('',*,*,#468,.T.);
#334=ORIENTED_EDGE('',*,*,#510,.F.);
#335=ORIENTED_EDGE('',*,*,#478,.F.);
#336=ORIENTED_EDGE('',*,*,#450,.T.);
#337=ORIENTED_EDGE('',*,*,#509,.T.);
#338=ORIENTED_EDGE('',*,*,#493,.T.);
#339=ORIENTED_EDGE('',*,*,#549,.F.);
#340=ORIENTED_EDGE('',*,*,#508,.T.);
#341=ORIENTED_EDGE('',*,*,#510,.T.);
#342=ORIENTED_EDGE('',*,*,#507,.T.);
#343=ORIENTED_EDGE('',*,*,#509,.F.);
#344=ORIENTED_EDGE('',*,*,#512,.F.);
#345=ORIENTED_EDGE('',*,*,#520,.F.);
#346=ORIENTED_EDGE('',*,*,#519,.F.);
#347=ORIENTED_EDGE('',*,*,#511,.F.);
#348=ORIENTED_EDGE('',*,*,#517,.F.);
#349=ORIENTED_EDGE('',*,*,#514,.F.);
#350=ORIENTED_EDGE('',*,*,#513,.F.);
#351=ORIENTED_EDGE('',*,*,#514,.T.);
#352=ORIENTED_EDGE('',*,*,#533,.F.);
#353=ORIENTED_EDGE('',*,*,#494,.F.);
#354=ORIENTED_EDGE('',*,*,#517,.T.);
#355=ORIENTED_EDGE('',*,*,#516,.F.);
#356=ORIENTED_EDGE('',*,*,#515,.F.);
#357=ORIENTED_EDGE('',*,*,#492,.T.);
#358=ORIENTED_EDGE('',*,*,#533,.T.);
#359=ORIENTED_EDGE('',*,*,#511,.T.);
#360=ORIENTED_EDGE('',*,*,#537,.F.);
#361=ORIENTED_EDGE('',*,*,#461,.F.);
#362=ORIENTED_EDGE('',*,*,#518,.F.);
#363=ORIENTED_EDGE('',*,*,#516,.T.);
#364=ORIENTED_EDGE('',*,*,#537,.T.);
#365=ORIENTED_EDGE('',*,*,#519,.T.);
#366=ORIENTED_EDGE('',*,*,#536,.F.);
#367=ORIENTED_EDGE('',*,*,#462,.F.);
#368=ORIENTED_EDGE('',*,*,#536,.T.);
#369=ORIENTED_EDGE('',*,*,#520,.T.);
#370=ORIENTED_EDGE('',*,*,#521,.F.);
#371=ORIENTED_EDGE('',*,*,#469,.F.);
#372=ORIENTED_EDGE('',*,*,#521,.T.);
#373=ORIENTED_EDGE('',*,*,#512,.T.);
#374=ORIENTED_EDGE('',*,*,#513,.T.);
#375=ORIENTED_EDGE('',*,*,#507,.F.);
#376=ORIENTED_EDGE('',*,*,#523,.F.);
#377=ORIENTED_EDGE('',*,*,#529,.F.);
#378=ORIENTED_EDGE('',*,*,#527,.F.);
#379=ORIENTED_EDGE('',*,*,#522,.F.);
#380=ORIENTED_EDGE('',*,*,#526,.F.);
#381=ORIENTED_EDGE('',*,*,#525,.F.);
#382=ORIENTED_EDGE('',*,*,#524,.F.);
#383=ORIENTED_EDGE('',*,*,#525,.T.);
#384=ORIENTED_EDGE('',*,*,#534,.F.);
#385=ORIENTED_EDGE('',*,*,#486,.F.);
#386=ORIENTED_EDGE('',*,*,#534,.T.);
#387=ORIENTED_EDGE('',*,*,#526,.T.);
#388=ORIENTED_EDGE('',*,*,#530,.F.);
#389=ORIENTED_EDGE('',*,*,#452,.F.);
#390=ORIENTED_EDGE('',*,*,#530,.T.);
#391=ORIENTED_EDGE('',*,*,#522,.T.);
#392=ORIENTED_EDGE('',*,*,#531,.F.);
#393=ORIENTED_EDGE('',*,*,#508,.F.);
#394=ORIENTED_EDGE('',*,*,#531,.T.);
#395=ORIENTED_EDGE('',*,*,#527,.T.);
#396=ORIENTED_EDGE('',*,*,#535,.F.);
#397=ORIENTED_EDGE('',*,*,#479,.F.);
#398=ORIENTED_EDGE('',*,*,#529,.T.);
#399=ORIENTED_EDGE('',*,*,#532,.F.);
#400=ORIENTED_EDGE('',*,*,#500,.F.);
#401=ORIENTED_EDGE('',*,*,#528,.F.);
#402=ORIENTED_EDGE('',*,*,#477,.T.);
#403=ORIENTED_EDGE('',*,*,#535,.T.);
#404=ORIENTED_EDGE('',*,*,#532,.T.);
#405=ORIENTED_EDGE('',*,*,#523,.T.);
#406=ORIENTED_EDGE('',*,*,#524,.T.);
#407=ORIENTED_EDGE('',*,*,#501,.F.);
#408=ORIENTED_EDGE('',*,*,#471,.T.);
#409=ORIENTED_EDGE('',*,*,#554,.F.);
#410=ORIENTED_EDGE('',*,*,#538,.F.);
#411=ORIENTED_EDGE('',*,*,#454,.T.);
#412=ORIENTED_EDGE('',*,*,#562,.F.);
#413=ORIENTED_EDGE('',*,*,#542,.F.);
#414=ORIENTED_EDGE('',*,*,#543,.T.);
#415=ORIENTED_EDGE('',*,*,#441,.F.);
#416=ORIENTED_EDGE('',*,*,#556,.F.);
#417=ORIENTED_EDGE('',*,*,#546,.F.);
#418=ORIENTED_EDGE('',*,*,#541,.T.);
#419=ORIENTED_EDGE('',*,*,#552,.F.);
#420=ORIENTED_EDGE('',*,*,#470,.F.);
#421=ORIENTED_EDGE('',*,*,#548,.F.);
#422=ORIENTED_EDGE('',*,*,#549,.T.);
#423=ORIENTED_EDGE('',*,*,#545,.T.);
#424=ORIENTED_EDGE('',*,*,#560,.F.);
#425=ORIENTED_EDGE('',*,*,#453,.F.);
#426=ORIENTED_EDGE('',*,*,#518,.T.);
#427=ORIENTED_EDGE('',*,*,#539,.T.);
#428=ORIENTED_EDGE('',*,*,#439,.F.);
#429=ORIENTED_EDGE('',*,*,#438,.F.);
#430=ORIENTED_EDGE('',*,*,#558,.F.);
#431=ORIENTED_EDGE('',*,*,#544,.F.);
#432=ORIENTED_EDGE('',*,*,#515,.T.);
#433=ORIENTED_EDGE('',*,*,#528,.T.);
#434=ORIENTED_EDGE('',*,*,#547,.T.);
#435=ORIENTED_EDGE('',*,*,#440,.F.);
#436=ORIENTED_EDGE('',*,*,#550,.F.);
#437=ORIENTED_EDGE('',*,*,#540,.F.);
#438=EDGE_CURVE('',#690,#691,#564,.T.);
#439=EDGE_CURVE('',#691,#741,#565,.T.);
#440=EDGE_CURVE('',#692,#758,#566,.T.);
#441=EDGE_CURVE('',#693,#752,#567,.T.);
#442=EDGE_CURVE('',#690,#694,#568,.T.);
#443=EDGE_CURVE('',#694,#695,#569,.T.);
#444=EDGE_CURVE('',#695,#691,#570,.T.);
#445=EDGE_CURVE('',#695,#696,#571,.T.);
#446=EDGE_CURVE('',#696,#692,#572,.T.);
#447=EDGE_CURVE('',#696,#697,#573,.T.);
#448=EDGE_CURVE('',#697,#693,#574,.T.);
#449=EDGE_CURVE('',#697,#694,#575,.T.);
#450=EDGE_CURVE('',#735,#698,#576,.T.);
#451=EDGE_CURVE('',#738,#699,#577,.T.);
#452=EDGE_CURVE('',#699,#698,#578,.T.);
#453=EDGE_CURVE('',#735,#736,#579,.T.);
#454=EDGE_CURVE('',#738,#737,#580,.T.);
#455=EDGE_CURVE('',#699,#701,#581,.T.);
#456=EDGE_CURVE('',#698,#700,#582,.T.);
#457=EDGE_CURVE('',#700,#736,#583,.T.);
#458=EDGE_CURVE('',#737,#701,#584,.T.);
#459=EDGE_CURVE('',#700,#701,#585,.T.);
#460=EDGE_CURVE('',#739,#702,#586,.T.);
#461=EDGE_CURVE('',#742,#703,#587,.T.);
#462=EDGE_CURVE('',#703,#702,#588,.T.);
#463=EDGE_CURVE('',#703,#705,#589,.T.);
#464=EDGE_CURVE('',#702,#704,#590,.T.);
#465=EDGE_CURVE('',#704,#740,#591,.T.);
#466=EDGE_CURVE('',#741,#705,#592,.T.);
#467=EDGE_CURVE('',#704,#705,#593,.T.);
#468=EDGE_CURVE('',#743,#706,#594,.T.);
#469=EDGE_CURVE('',#702,#706,#595,.T.);
#470=EDGE_CURVE('',#743,#744,#596,.T.);
#471=EDGE_CURVE('',#739,#745,#597,.T.);
#472=EDGE_CURVE('',#702,#708,#598,.T.);
#473=EDGE_CURVE('',#706,#707,#599,.T.);
#474=EDGE_CURVE('',#707,#744,#600,.T.);
#475=EDGE_CURVE('',#745,#708,#601,.T.);
#476=EDGE_CURVE('',#707,#708,#602,.T.);
#477=EDGE_CURVE('',#746,#709,#603,.T.);
#478=EDGE_CURVE('',#749,#710,#604,.T.);
#479=EDGE_CURVE('',#710,#709,#605,.T.);
#480=EDGE_CURVE('',#710,#712,#606,.T.);
#481=EDGE_CURVE('',#709,#711,#607,.T.);
#482=EDGE_CURVE('',#711,#747,#608,.T.);
#483=EDGE_CURVE('',#748,#712,#609,.T.);
#484=EDGE_CURVE('',#711,#712,#610,.T.);
#485=EDGE_CURVE('',#713,#751,#611,.T.);
#486=EDGE_CURVE('',#713,#699,#612,.T.);
#487=EDGE_CURVE('',#713,#715,#613,.T.);
#488=EDGE_CURVE('',#699,#714,#614,.T.);
#489=EDGE_CURVE('',#714,#750,#615,.T.);
#490=EDGE_CURVE('',#752,#715,#616,.T.);
#491=EDGE_CURVE('',#714,#715,#617,.T.);
#492=EDGE_CURVE('',#753,#716,#618,.T.);
#493=EDGE_CURVE('',#717,#755,#619,.T.);
#494=EDGE_CURVE('',#717,#716,#620,.T.);
#495=EDGE_CURVE('',#717,#719,#621,.T.);
#496=EDGE_CURVE('',#716,#718,#622,.T.);
#497=EDGE_CURVE('',#718,#754,#623,.T.);
#498=EDGE_CURVE('',#756,#719,#624,.T.);
#499=EDGE_CURVE('',#718,#719,#625,.T.);
#500=EDGE_CURVE('',#759,#720,#626,.T.);
#501=EDGE_CURVE('',#720,#713,#627,.T.);
#502=EDGE_CURVE('',#720,#722,#628,.T.);
#503=EDGE_CURVE('',#713,#721,#629,.T.);
#504=EDGE_CURVE('',#721,#757,#630,.T.);
#505=EDGE_CURVE('',#758,#722,#631,.T.);
#506=EDGE_CURVE('',#721,#722,#632,.T.);
#507=EDGE_CURVE('',#706,#717,#633,.T.);
#508=EDGE_CURVE('',#698,#710,#634,.T.);
#509=EDGE_CURVE('',#698,#717,#635,.T.);
#510=EDGE_CURVE('',#710,#706,#636,.T.);
#511=EDGE_CURVE('',#725,#726,#637,.T.);
#512=EDGE_CURVE('',#728,#723,#638,.T.);
#513=EDGE_CURVE('',#723,#717,#639,.T.);
#514=EDGE_CURVE('',#723,#724,#640,.T.);
#515=EDGE_CURVE('',#753,#760,#641,.T.);
#516=EDGE_CURVE('',#760,#725,#642,.T.);
#517=EDGE_CURVE('',#724,#725,#643,.T.);
#518=EDGE_CURVE('',#760,#742,#644,.T.);
#519=EDGE_CURVE('',#726,#727,#645,.T.);
#520=EDGE_CURVE('',#727,#728,#646,.T.);
#521=EDGE_CURVE('',#706,#728,#647,.T.);
#522=EDGE_CURVE('',#731,#732,#648,.T.);
#523=EDGE_CURVE('',#734,#729,#649,.T.);
#524=EDGE_CURVE('',#729,#713,#650,.T.);
#525=EDGE_CURVE('',#729,#730,#651,.T.);
#526=EDGE_CURVE('',#730,#731,#652,.T.);
#527=EDGE_CURVE('',#732,#733,#653,.T.);
#528=EDGE_CURVE('',#746,#759,#654,.T.);
#529=EDGE_CURVE('',#733,#734,#655,.T.);
#530=EDGE_CURVE('',#698,#731,#656,.T.);
#531=EDGE_CURVE('',#710,#732,#657,.T.);
#532=EDGE_CURVE('',#720,#734,#658,.T.);
#533=EDGE_CURVE('',#716,#724,#659,.T.);
#534=EDGE_CURVE('',#699,#730,#660,.T.);
#535=EDGE_CURVE('',#709,#733,#661,.T.);
#536=EDGE_CURVE('',#702,#727,#662,.T.);
#537=EDGE_CURVE('',#703,#726,#663,.T.);
#538=EDGE_CURVE('',#739,#740,#664,.T.);
#539=EDGE_CURVE('',#742,#741,#665,.T.);
#540=EDGE_CURVE('',#746,#747,#666,.T.);
#541=EDGE_CURVE('',#749,#748,#667,.T.);
#542=EDGE_CURVE('',#738,#750,#668,.T.);
#543=EDGE_CURVE('',#751,#752,#669,.T.);
#544=EDGE_CURVE('',#753,#754,#670,.T.);
#545=EDGE_CURVE('',#755,#756,#671,.T.);
#546=EDGE_CURVE('',#751,#757,#672,.T.);
#547=EDGE_CURVE('',#759,#758,#673,.T.);
#548=EDGE_CURVE('',#749,#743,#674,.T.);
#549=EDGE_CURVE('',#735,#755,#675,.T.);
#550=EDGE_CURVE('',#747,#692,#676,.T.);
#551=EDGE_CURVE('',#747,#748,#677,.T.);
#552=EDGE_CURVE('',#744,#748,#678,.T.);
#553=EDGE_CURVE('',#744,#745,#679,.T.);
#554=EDGE_CURVE('',#740,#745,#680,.T.);
#555=EDGE_CURVE('',#740,#741,#681,.T.);
#556=EDGE_CURVE('',#757,#693,#682,.T.);
#557=EDGE_CURVE('',#757,#758,#683,.T.);
#558=EDGE_CURVE('',#754,#690,#684,.T.);
#559=EDGE_CURVE('',#754,#756,#685,.T.);
#560=EDGE_CURVE('',#736,#756,#686,.T.);
#561=EDGE_CURVE('',#736,#737,#687,.T.);
#562=EDGE_CURVE('',#750,#737,#688,.T.);
#563=EDGE_CURVE('',#750,#752,#689,.T.);
#564=B_SPLINE_CURVE_WITH_KNOTS('',1,(#1086,#1087),.UNSPECIFIED.,.F.,.F.,(2,2),(0.0,5.4),.UNSPECIFIED.);
#565=B_SPLINE_CURVE_WITH_KNOTS('',1,(#1088,#1089),.UNSPECIFIED.,.F.,.F.,(2,2),(-16.2000205649649,-15.0232153632393),.UNSPECIFIED.);
#566=B_SPLINE_CURVE_WITH_KNOTS('',1,(#1090,#1091),.UNSPECIFIED.,.F.,.F.,(2,2),(0.0,2.52679491924311),.UNSPECIFIED.);
#567=B_SPLINE_CURVE_WITH_KNOTS('',1,(#1092,#1093),.UNSPECIFIED.,.F.,.F.,(2,2),(8.10001028248244,9.27680520172555),.UNSPECIFIED.);
#568=B_SPLINE_CURVE_WITH_KNOTS('',1,(#1094,#1095),.UNSPECIFIED.,.F.,.F.,(2,2),(0.0,0.265),.UNSPECIFIED.);
#569=B_SPLINE_CURVE_WITH_KNOTS('',1,(#1096,#1097),.UNSPECIFIED.,.F.,.F.,(2,2),(0.0,5.4),.UNSPECIFIED.);
#570=B_SPLINE_CURVE_WITH_KNOTS('',1,(#1098,#1099),.UNSPECIFIED.,.F.,.F.,(2,2),(-0.265,0.0),.UNSPECIFIED.);
#571=B_SPLINE_CURVE_WITH_KNOTS('',1,(#1100,#1101),.UNSPECIFIED.,.F.,.F.,(2,2),(-16.2000205649649,-8.10001028248244),.UNSPECIFIED.);
#572=B_SPLINE_CURVE_WITH_KNOTS('',1,(#1102,#1103),.UNSPECIFIED.,.F.,.F.,(2,2),(-0.265,0.0),.UNSPECIFIED.);
#573=B_SPLINE_CURVE_WITH_KNOTS('',1,(#1104,#1105,#1106),.UNSPECIFIED.,.F.,.F.,(2,1,2),(0.0,2.7,5.4),.UNSPECIFIED.);
#574=B_SPLINE_CURVE_WITH_KNOTS('',1,(#1107,#1108),.UNSPECIFIED.,.F.,.F.,(2,2),(-0.265,0.0),.UNSPECIFIED.);
#575=B_SPLINE_CURVE_WITH_KNOTS('',1,(#1109,#1110),.UNSPECIFIED.,.F.,.F.,(2,2),(8.10001028248244,16.2000205649649),.UNSPECIFIED.);
#576=B_SPLINE_CURVE_WITH_KNOTS('',1,(#1111,#1112),.UNSPECIFIED.,.F.,.F.,(2,2),(-0.45,0.0),.UNSPECIFIED.);
#577=B_SPLINE_CURVE_WITH_KNOTS('',1,(#1113,#1114),.UNSPECIFIED.,.F.,.F.,(2,2),(-0.45,0.0),.UNSPECIFIED.);
#578=B_SPLINE_CURVE_WITH_KNOTS('',1,(#1115,#1116),.UNSPECIFIED.,.F.,.F.,(2,2),(0.0,0.3),.UNSPECIFIED.);
#579=B_SPLINE_CURVE_WITH_KNOTS('',3,(#1117,#1118,#1119,#1120),.UNSPECIFIED.,.F.,.F.,(4,4),(0.259806262832388,2.78660418819598),.UNSPECIFIED.);
#580=B_SPLINE_CURVE_WITH_KNOTS('',3,(#1121,#1122,#1123,#1124),.UNSPECIFIED.,.F.,.F.,(4,4),(0.259806262832388,2.61339993530005),.UNSPECIFIED.);
#581=B_SPLINE_CURVE_WITH_KNOTS('',3,(#1125,#1126,#1127,#1128),.UNSPECIFIED.,.F.,.F.,(4,4),(0.259806262832388,2.61339993530005),.UNSPECIFIED.);
#582=B_SPLINE_CURVE_WITH_KNOTS('',3,(#1129,#1130,#1131,#1132),.UNSPECIFIED.,.F.,.F.,(4,4),(0.259806262832388,2.78660418819598),.UNSPECIFIED.);
#583=B_SPLINE_CURVE_WITH_KNOTS('',1,(#1133,#1134),.UNSPECIFIED.,.F.,.F.,(2,2),(3.0,4.0),.UNSPECIFIED.);
#584=B_SPLINE_CURVE_WITH_KNOTS('',1,(#1135,#1136),.UNSPECIFIED.,.F.,.F.,(2,2),(1.0,2.0),.UNSPECIFIED.);
#585=B_SPLINE_CURVE_WITH_KNOTS('',1,(#1137,#1138),.UNSPECIFIED.,.F.,.F.,(2,2),(-4.22320508075689,-3.87679491924311),.UNSPECIFIED.);
#586=B_SPLINE_CURVE_WITH_KNOTS('',1,(#1139,#1140),.UNSPECIFIED.,.F.,.F.,(2,2),(-0.45,0.0),.UNSPECIFIED.);
#587=B_SPLINE_CURVE_WITH_KNOTS('',1,(#1141,#1142),.UNSPECIFIED.,.F.,.F.,(2,2),(-0.45,0.0),.UNSPECIFIED.);
#588=B_SPLINE_CURVE_WITH_KNOTS('',1,(#1143,#1144),.UNSPECIFIED.,.F.,.F.,(2,2),(0.0,0.3),.UNSPECIFIED.);
#589=B_SPLINE_CURVE_WITH_KNOTS('',3,(#1145,#1146,#1147,#1148),.UNSPECIFIED.,.F.,.F.,(4,4),(0.259806262832387,2.78660418819598),.UNSPECIFIED.);
#590=B_SPLINE_CURVE_WITH_KNOTS('',3,(#1149,#1150,#1151,#1152),.UNSPECIFIED.,.F.,.F.,(4,4),(0.259806262832387,2.61339993530006),.UNSPECIFIED.);
#591=B_SPLINE_CURVE_WITH_KNOTS('',1,(#1153,#1154),.UNSPECIFIED.,.F.,.F.,(2,2),(3.0,4.0),.UNSPECIFIED.);
#592=B_SPLINE_CURVE_WITH_KNOTS('',1,(#1155,#1156),.UNSPECIFIED.,.F.,.F.,(2,2),(1.0,2.0),.UNSPECIFIED.);
#593=B_SPLINE_CURVE_WITH_KNOTS('',1,(#1157,#1158),.UNSPECIFIED.,.F.,.F.,(2,2),(-15.0232256457218,-14.676815484208),.UNSPECIFIED.);
#594=B_SPLINE_CURVE_WITH_KNOTS('',1,(#1159,#1160),.UNSPECIFIED.,.F.,.F.,(2,2),(-0.45,0.0),.UNSPECIFIED.);
#595=B_SPLINE_CURVE_WITH_KNOTS('',1,(#1161,#1162),.UNSPECIFIED.,.F.,.F.,(2,2),(0.0,0.3),.UNSPECIFIED.);
#596=B_SPLINE_CURVE_WITH_KNOTS('',3,(#1163,#1164,#1165,#1166),.UNSPECIFIED.,.F.,.F.,(4,4),(0.259806262832387,2.78660418819598),.UNSPECIFIED.);
#597=B_SPLINE_CURVE_WITH_KNOTS('',3,(#1167,#1168,#1169,#1170),.UNSPECIFIED.,.F.,.F.,(4,4),(0.259806262832387,2.61339993530005),.UNSPECIFIED.);
#598=B_SPLINE_CURVE_WITH_KNOTS('',3,(#1171,#1172,#1173,#1174),.UNSPECIFIED.,.F.,.F.,(4,4),(0.259806262832387,2.61339993530005),.UNSPECIFIED.);
#599=B_SPLINE_CURVE_WITH_KNOTS('',3,(#1175,#1176,#1177,#1178),.UNSPECIFIED.,.F.,.F.,(4,4),(0.259806262832387,2.78660418819598),.UNSPECIFIED.);
#600=B_SPLINE_CURVE_WITH_KNOTS('',1,(#1179,#1180),.UNSPECIFIED.,.F.,.F.,(2,2),(3.0,4.0),.UNSPECIFIED.);
#601=B_SPLINE_CURVE_WITH_KNOTS('',1,(#1181,#1182),.UNSPECIFIED.,.F.,.F.,(2,2),(1.0,2.0),.UNSPECIFIED.);
#602=B_SPLINE_CURVE_WITH_KNOTS('',1,(#1183,#1184),.UNSPECIFIED.,.F.,.F.,(2,2),(-17.7232256457218,-17.376815484208),.UNSPECIFIED.);
#603=B_SPLINE_CURVE_WITH_KNOTS('',1,(#1185,#1186),.UNSPECIFIED.,.F.,.F.,(2,2),(-0.45,0.0),.UNSPECIFIED.);
#604=B_SPLINE_CURVE_WITH_KNOTS('',1,(#1187,#1188),.UNSPECIFIED.,.F.,.F.,(2,2),(-0.45,0.0),.UNSPECIFIED.);
#605=B_SPLINE_CURVE_WITH_KNOTS('',1,(#1189,#1190),.UNSPECIFIED.,.F.,.F.,(2,2),(0.0,0.3),.UNSPECIFIED.);
#606=B_SPLINE_CURVE_WITH_KNOTS('',3,(#1191,#1192,#1193,#1194),.UNSPECIFIED.,.F.,.F.,(4,4),(0.259806262832387,2.78660418819598),.UNSPECIFIED.);
#607=B_SPLINE_CURVE_WITH_KNOTS('',3,(#1195,#1196,#1197,#1198),.UNSPECIFIED.,.F.,.F.,(4,4),(0.259806262832387,2.61339993530005),.UNSPECIFIED.);
#608=B_SPLINE_CURVE_WITH_KNOTS('',1,(#1199,#1200),.UNSPECIFIED.,.F.,.F.,(2,2),(3.0,4.0),.UNSPECIFIED.);
#609=B_SPLINE_CURVE_WITH_KNOTS('',1,(#1201,#1202),.UNSPECIFIED.,.F.,.F.,(2,2),(1.0,2.0),.UNSPECIFIED.);
#610=B_SPLINE_CURVE_WITH_KNOTS('',1,(#1203,#1204),.UNSPECIFIED.,.F.,.F.,(2,2),(-20.4232256457218,-20.076815484208),.UNSPECIFIED.);
#611=B_SPLINE_CURVE_WITH_KNOTS('',1,(#1205,#1206),.UNSPECIFIED.,.F.,.F.,(2,2),(0.0,0.45),.UNSPECIFIED.);
#612=B_SPLINE_CURVE_WITH_KNOTS('',1,(#1207,#1208),.UNSPECIFIED.,.F.,.F.,(2,2),(0.0,0.3),.UNSPECIFIED.);
#613=B_SPLINE_CURVE_WITH_KNOTS('',3,(#1209,#1210,#1211,#1212),.UNSPECIFIED.,.F.,.F.,(4,4),(0.259806262832387,2.78660418819598),.UNSPECIFIED.);
#614=B_SPLINE_CURVE_WITH_KNOTS('',3,(#1213,#1214,#1215,#1216),.UNSPECIFIED.,.F.,.F.,(4,4),(0.259806262832388,2.61339993530006),.UNSPECIFIED.);
#615=B_SPLINE_CURVE_WITH_KNOTS('',1,(#1217,#1218),.UNSPECIFIED.,.F.,.F.,(2,2),(0.0,0.45),.UNSPECIFIED.);
#616=B_SPLINE_CURVE_WITH_KNOTS('',1,(#1219,#1220),.UNSPECIFIED.,.F.,.F.,(2,2),(-0.45,0.0),.UNSPECIFIED.);
#617=B_SPLINE_CURVE_WITH_KNOTS('',1,(#1221,#1222),.UNSPECIFIED.,.F.,.F.,(2,2),(-1.52320508075689,-1.17679491924311),.UNSPECIFIED.);
#618=B_SPLINE_CURVE_WITH_KNOTS('',1,(#1223,#1224),.UNSPECIFIED.,.F.,.F.,(2,2),(-0.45,0.0),.UNSPECIFIED.);
#619=B_SPLINE_CURVE_WITH_KNOTS('',1,(#1225,#1226),.UNSPECIFIED.,.F.,.F.,(2,2),(0.0,0.45),.UNSPECIFIED.);
#620=B_SPLINE_CURVE_WITH_KNOTS('',1,(#1227,#1228),.UNSPECIFIED.,.F.,.F.,(2,2),(0.0,0.3),.UNSPECIFIED.);
#621=B_SPLINE_CURVE_WITH_KNOTS('',3,(#1229,#1230,#1231,#1232),.UNSPECIFIED.,.F.,.F.,(4,4),(0.259806262832388,2.78660418819598),.UNSPECIFIED.);
#622=B_SPLINE_CURVE_WITH_KNOTS('',3,(#1233,#1234,#1235,#1236),.UNSPECIFIED.,.F.,.F.,(4,4),(0.259806262832388,2.61339993530005),.UNSPECIFIED.);
#623=B_SPLINE_CURVE_WITH_KNOTS('',1,(#1237,#1238),.UNSPECIFIED.,.F.,.F.,(2,2),(3.0,4.0),.UNSPECIFIED.);
#624=B_SPLINE_CURVE_WITH_KNOTS('',1,(#1239,#1240),.UNSPECIFIED.,.F.,.F.,(2,2),(1.0,2.0),.UNSPECIFIED.);
#625=B_SPLINE_CURVE_WITH_KNOTS('',1,(#1241,#1242),.UNSPECIFIED.,.F.,.F.,(2,2),(-6.92320508075689,-6.57679491924311),.UNSPECIFIED.);
#626=B_SPLINE_CURVE_WITH_KNOTS('',1,(#1243,#1244),.UNSPECIFIED.,.F.,.F.,(2,2),(-0.45,0.0),.UNSPECIFIED.);
#627=B_SPLINE_CURVE_WITH_KNOTS('',1,(#1245,#1246),.UNSPECIFIED.,.F.,.F.,(2,2),(0.0,0.3),.UNSPECIFIED.);
#628=B_SPLINE_CURVE_WITH_KNOTS('',3,(#1247,#1248,#1249,#1250),.UNSPECIFIED.,.F.,.F.,(4,4),(0.25980741334,1.26339804038833),.UNSPECIFIED.);
#629=B_SPLINE_CURVE_WITH_KNOTS('',3,(#1251,#1252,#1253,#1254),.UNSPECIFIED.,.F.,.F.,(4,4),(0.259807413340002,1.43660299824997),.UNSPECIFIED.);
#630=B_SPLINE_CURVE_WITH_KNOTS('',1,(#1255,#1256),.UNSPECIFIED.,.F.,.F.,(2,2),(3.0,4.0),.UNSPECIFIED.);
#631=B_SPLINE_CURVE_WITH_KNOTS('',1,(#1257,#1258),.UNSPECIFIED.,.F.,.F.,(2,2),(1.0,2.0),.UNSPECIFIED.);
#632=B_SPLINE_CURVE_WITH_KNOTS('',1,(#1259,#1260,#1261),.UNSPECIFIED.,.F.,.F.,(2,1,2),(-24.4732256457218,-24.3000205649649,-24.126815484208),.UNSPECIFIED.);
#633=B_SPLINE_CURVE_WITH_KNOTS('',1,(#1262,#1263),.UNSPECIFIED.,.F.,.F.,(2,2),(0.0,0.3),.UNSPECIFIED.);
#634=B_SPLINE_CURVE_WITH_KNOTS('',1,(#1264,#1265),.UNSPECIFIED.,.F.,.F.,(2,2),(0.0,0.3),.UNSPECIFIED.);
#635=B_SPLINE_CURVE_WITH_KNOTS('',3,(#1266,#1267,#1268,#1269),.UNSPECIFIED.,.F.,.F.,(4,4),(0.259807621135333,5.14019237886467),.UNSPECIFIED.);
#636=B_SPLINE_CURVE_WITH_KNOTS('',3,(#1270,#1271,#1272,#1273),.UNSPECIFIED.,.F.,.F.,(4,4),(0.259807621135332,5.14019237886467),.UNSPECIFIED.);
#637=B_SPLINE_CURVE_WITH_KNOTS('',1,(#1274,#1275),.UNSPECIFIED.,.F.,.F.,(2,2),(0.0,0.3),.UNSPECIFIED.);
#638=B_SPLINE_CURVE_WITH_KNOTS('',1,(#1276,#1277),.UNSPECIFIED.,.F.,.F.,(2,2),(0.0,0.3),.UNSPECIFIED.);
#639=B_SPLINE_CURVE_WITH_KNOTS('',1,(#1278,#1279),.UNSPECIFIED.,.F.,.F.,(2,2),(0.0,2.285),.UNSPECIFIED.);
#640=B_SPLINE_CURVE_WITH_KNOTS('',1,(#1280,#1281),.UNSPECIFIED.,.F.,.F.,(2,2),(0.0,0.3),.UNSPECIFIED.);
#641=B_SPLINE_CURVE_WITH_KNOTS('',1,(#1282,#1283),.UNSPECIFIED.,.F.,.F.,(2,2),(0.0,0.3),.UNSPECIFIED.);
#642=B_SPLINE_CURVE_WITH_KNOTS('',1,(#1284,#1285),.UNSPECIFIED.,.F.,.F.,(2,2),(-2.735,0.0),.UNSPECIFIED.);
#643=B_SPLINE_CURVE_WITH_KNOTS('',1,(#1286,#1287),.UNSPECIFIED.,.F.,.F.,(2,2),(0.0,0.3),.UNSPECIFIED.);
#644=B_SPLINE_CURVE_WITH_KNOTS('',1,(#1288,#1289),.UNSPECIFIED.,.F.,.F.,(2,2),(0.0,0.3),.UNSPECIFIED.);
#645=B_SPLINE_CURVE_WITH_KNOTS('',1,(#1290,#1291),.UNSPECIFIED.,.F.,.F.,(2,2),(0.0,0.3),.UNSPECIFIED.);
#646=B_SPLINE_CURVE_WITH_KNOTS('',1,(#1292,#1293),.UNSPECIFIED.,.F.,.F.,(2,2),(0.0,0.3),.UNSPECIFIED.);
#647=B_SPLINE_CURVE_WITH_KNOTS('',1,(#1294,#1295),.UNSPECIFIED.,.F.,.F.,(2,2),(-2.285,0.0),.UNSPECIFIED.);
#648=B_SPLINE_CURVE_WITH_KNOTS('',1,(#1296,#1297),.UNSPECIFIED.,.F.,.F.,(2,2),(0.0,0.3),.UNSPECIFIED.);
#649=B_SPLINE_CURVE_WITH_KNOTS('',1,(#1298,#1299),.UNSPECIFIED.,.F.,.F.,(2,2),(0.0,0.3),.UNSPECIFIED.);
#650=B_SPLINE_CURVE_WITH_KNOTS('',1,(#1300,#1301),.UNSPECIFIED.,.F.,.F.,(2,2),(0.0,2.285),.UNSPECIFIED.);
#651=B_SPLINE_CURVE_WITH_KNOTS('',1,(#1302,#1303),.UNSPECIFIED.,.F.,.F.,(2,2),(0.0,0.3),.UNSPECIFIED.);
#652=B_SPLINE_CURVE_WITH_KNOTS('',1,(#1304,#1305),.UNSPECIFIED.,.F.,.F.,(2,2),(0.0,0.3),.UNSPECIFIED.);
#653=B_SPLINE_CURVE_WITH_KNOTS('',1,(#1306,#1307),.UNSPECIFIED.,.F.,.F.,(2,2),(0.0,0.3),.UNSPECIFIED.);
#654=B_SPLINE_CURVE_WITH_KNOTS('',1,(#1308,#1309),.UNSPECIFIED.,.F.,.F.,(2,2),(0.0,0.3),.UNSPECIFIED.);
#655=B_SPLINE_CURVE_WITH_KNOTS('',1,(#1310,#1311),.UNSPECIFIED.,.F.,.F.,(2,2),(0.0,0.3),.UNSPECIFIED.);
#656=B_SPLINE_CURVE_WITH_KNOTS('',1,(#1312,#1313),.UNSPECIFIED.,.F.,.F.,(2,2),(-2.285,0.0),.UNSPECIFIED.);
#657=B_SPLINE_CURVE_WITH_KNOTS('',1,(#1314,#1315),.UNSPECIFIED.,.F.,.F.,(2,2),(-2.285,0.0),.UNSPECIFIED.);
#658=B_SPLINE_CURVE_WITH_KNOTS('',1,(#1316,#1317),.UNSPECIFIED.,.F.,.F.,(2,2),(-2.285,0.0),.UNSPECIFIED.);
#659=B_SPLINE_CURVE_WITH_KNOTS('',1,(#1318,#1319),.UNSPECIFIED.,.F.,.F.,(2,2),(-2.285,0.0),.UNSPECIFIED.);
#660=B_SPLINE_CURVE_WITH_KNOTS('',1,(#1320,#1321),.UNSPECIFIED.,.F.,.F.,(2,2),(-2.285,0.0),.UNSPECIFIED.);
#661=B_SPLINE_CURVE_WITH_KNOTS('',1,(#1322,#1323),.UNSPECIFIED.,.F.,.F.,(2,2),(-2.285,0.0),.UNSPECIFIED.);
#662=B_SPLINE_CURVE_WITH_KNOTS('',1,(#1324,#1325),.UNSPECIFIED.,.F.,.F.,(2,2),(-2.285,0.0),.UNSPECIFIED.);
#663=B_SPLINE_CURVE_WITH_KNOTS('',1,(#1326,#1327),.UNSPECIFIED.,.F.,.F.,(2,2),(-2.285,0.0),.UNSPECIFIED.);
#664=B_SPLINE_CURVE_WITH_KNOTS('',3,(#1328,#1329,#1330,#1331),.UNSPECIFIED.,.F.,.F.,(4,4),(0.259806262832387,2.61339993530005),.UNSPECIFIED.);
#665=B_SPLINE_CURVE_WITH_KNOTS('',3,(#1332,#1333,#1334,#1335),.UNSPECIFIED.,.F.,.F.,(4,4),(0.259806262832387,2.78660418819598),.UNSPECIFIED.);
#666=B_SPLINE_CURVE_WITH_KNOTS('',3,(#1336,#1337,#1338,#1339),.UNSPECIFIED.,.F.,.F.,(4,4),(0.259806262832387,2.61339993530006),.UNSPECIFIED.);
#667=B_SPLINE_CURVE_WITH_KNOTS('',3,(#1340,#1341,#1342,#1343),.UNSPECIFIED.,.F.,.F.,(4,4),(0.259806262832387,2.78660418819598),.UNSPECIFIED.);
#668=B_SPLINE_CURVE_WITH_KNOTS('',3,(#1344,#1345,#1346,#1347),.UNSPECIFIED.,.F.,.F.,(4,4),(0.259806262832388,2.61339993530006),.UNSPECIFIED.);
#669=B_SPLINE_CURVE_WITH_KNOTS('',3,(#1348,#1349,#1350,#1351),.UNSPECIFIED.,.F.,.F.,(4,4),(0.259806262832387,2.78660418819598),.UNSPECIFIED.);
#670=B_SPLINE_CURVE_WITH_KNOTS('',3,(#1352,#1353,#1354,#1355),.UNSPECIFIED.,.F.,.F.,(4,4),(0.259806262832388,2.61339993530005),.UNSPECIFIED.);
#671=B_SPLINE_CURVE_WITH_KNOTS('',3,(#1356,#1357,#1358,#1359),.UNSPECIFIED.,.F.,.F.,(4,4),(0.259806262832388,2.78660418819598),.UNSPECIFIED.);
#672=B_SPLINE_CURVE_WITH_KNOTS('',3,(#1360,#1361,#1362,#1363),.UNSPECIFIED.,.F.,.F.,(4,4),(0.259807413340002,1.43660299824997),.UNSPECIFIED.);
#673=B_SPLINE_CURVE_WITH_KNOTS('',3,(#1364,#1365,#1366,#1367),.UNSPECIFIED.,.F.,.F.,(4,4),(0.25980741334,1.26339804038833),.UNSPECIFIED.);
#674=B_SPLINE_CURVE_WITH_KNOTS('',3,(#1368,#1369,#1370,#1371),.UNSPECIFIED.,.F.,.F.,(4,4),(0.259807621135332,5.14019237886467),.UNSPECIFIED.);
#675=B_SPLINE_CURVE_WITH_KNOTS('',3,(#1372,#1373,#1374,#1375),.UNSPECIFIED.,.F.,.F.,(4,4),(0.259807621135333,5.14019237886467),.UNSPECIFIED.);
#676=B_SPLINE_CURVE_WITH_KNOTS('',1,(#1376,#1377),.UNSPECIFIED.,.F.,.F.,(2,2),(-9.27680520172555,-8.10001028248244),.UNSPECIFIED.);
#677=B_SPLINE_CURVE_WITH_KNOTS('',1,(#1378,#1379),.UNSPECIFIED.,.F.,.F.,(2,2),(9.27680520172555,9.62321536323933),.UNSPECIFIED.);
#678=B_SPLINE_CURVE_WITH_KNOTS('',1,(#1380,#1381),.UNSPECIFIED.,.F.,.F.,(2,2),(-11.9768052017256,-9.62321536323933),.UNSPECIFIED.);
#679=B_SPLINE_CURVE_WITH_KNOTS('',1,(#1382,#1383),.UNSPECIFIED.,.F.,.F.,(2,2),(11.9768052017256,12.3232153632393),.UNSPECIFIED.);
#680=B_SPLINE_CURVE_WITH_KNOTS('',1,(#1384,#1385),.UNSPECIFIED.,.F.,.F.,(2,2),(-14.6768052017255,-12.3232153632393),.UNSPECIFIED.);
#681=B_SPLINE_CURVE_WITH_KNOTS('',1,(#1386,#1387),.UNSPECIFIED.,.F.,.F.,(2,2),(14.6768052017255,15.0232153632393),.UNSPECIFIED.);
#682=B_SPLINE_CURVE_WITH_KNOTS('',1,(#1388,#1389),.UNSPECIFIED.,.F.,.F.,(2,2),(2.87320508075689,5.4),.UNSPECIFIED.);
#683=B_SPLINE_CURVE_WITH_KNOTS('',1,(#1390,#1391,#1392),.UNSPECIFIED.,.F.,.F.,(2,1,2),(-2.87320508075689,-2.7,-2.52679491924311),.UNSPECIFIED.);
#684=B_SPLINE_CURVE_WITH_KNOTS('',1,(#1393,#1394),.UNSPECIFIED.,.F.,.F.,(2,2),(15.0232153632393,16.2000205649649),.UNSPECIFIED.);
#685=B_SPLINE_CURVE_WITH_KNOTS('',1,(#1395,#1396),.UNSPECIFIED.,.F.,.F.,(2,2),(-15.0232153632393,-14.6768052017256),.UNSPECIFIED.);
#686=B_SPLINE_CURVE_WITH_KNOTS('',1,(#1397,#1398),.UNSPECIFIED.,.F.,.F.,(2,2),(12.3232153632393,14.6768052017256),.UNSPECIFIED.);
#687=B_SPLINE_CURVE_WITH_KNOTS('',1,(#1399,#1400),.UNSPECIFIED.,.F.,.F.,(2,2),(-12.3232153632393,-11.9768052017256),.UNSPECIFIED.);
#688=B_SPLINE_CURVE_WITH_KNOTS('',1,(#1401,#1402),.UNSPECIFIED.,.F.,.F.,(2,2),(9.62321536323933,11.9768052017256),.UNSPECIFIED.);
#689=B_SPLINE_CURVE_WITH_KNOTS('',1,(#1403,#1404),.UNSPECIFIED.,.F.,.F.,(2,2),(-9.62321536323933,-9.27680520172555),.UNSPECIFIED.);
#690=VERTEX_POINT('',#1015);
#691=VERTEX_POINT('',#1016);
#692=VERTEX_POINT('',#1017);
#693=VERTEX_POINT('',#1018);
#694=VERTEX_POINT('',#1019);
#695=VERTEX_POINT('',#1020);
#696=VERTEX_POINT('',#1021);
#697=VERTEX_POINT('',#1022);
#698=VERTEX_POINT('',#1023);
#699=VERTEX_POINT('',#1024);
#700=VERTEX_POINT('',#1025);
#701=VERTEX_POINT('',#1026);
#702=VERTEX_POINT('',#1027);
#703=VERTEX_POINT('',#1028);
#704=VERTEX_POINT('',#1029);
#705=VERTEX_POINT('',#1030);
#706=VERTEX_POINT('',#1031);
#707=VERTEX_POINT('',#1032);
#708=VERTEX_POINT('',#1033);
#709=VERTEX_POINT('',#1034);
#710=VERTEX_POINT('',#1035);
#711=VERTEX_POINT('',#1036);
#712=VERTEX_POINT('',#1037);
#713=VERTEX_POINT('',#1038);
#714=VERTEX_POINT('',#1039);
#715=VERTEX_POINT('',#1040);
#716=VERTEX_POINT('',#1041);
#717=VERTEX_POINT('',#1042);
#718=VERTEX_POINT('',#1043);
#719=VERTEX_POINT('',#1044);
#720=VERTEX_POINT('',#1045);
#721=VERTEX_POINT('',#1046);
#722=VERTEX_POINT('',#1047);
#723=VERTEX_POINT('',#1048);
#724=VERTEX_POINT('',#1049);
#725=VERTEX_POINT('',#1050);
#726=VERTEX_POINT('',#1051);
#727=VERTEX_POINT('',#1052);
#728=VERTEX_POINT('',#1053);
#729=VERTEX_POINT('',#1054);
#730=VERTEX_POINT('',#1055);
#731=VERTEX_POINT('',#1056);
#732=VERTEX_POINT('',#1057);
#733=VERTEX_POINT('',#1058);
#734=VERTEX_POINT('',#1059);
#735=VERTEX_POINT('',#1060);
#736=VERTEX_POINT('',#1061);
#737=VERTEX_POINT('',#1062);
#738=VERTEX_POINT('',#1063);
#739=VERTEX_POINT('',#1064);
#740=VERTEX_POINT('',#1065);
#741=VERTEX_POINT('',#1066);
#742=VERTEX_POINT('',#1067);
#743=VERTEX_POINT('',#1068);
#744=VERTEX_POINT('',#1069);
#745=VERTEX_POINT('',#1070);
#746=VERTEX_POINT('',#1071);
#747=VERTEX_POINT('',#1072);
#748=VERTEX_POINT('',#1073);
#749=VERTEX_POINT('',#1074);
#750=VERTEX_POINT('',#1075);
#751=VERTEX_POINT('',#1076);
#752=VERTEX_POINT('',#1077);
#753=VERTEX_POINT('',#1078);
#754=VERTEX_POINT('',#1079);
#755=VERTEX_POINT('',#1080);
#756=VERTEX_POINT('',#1081);
#757=VERTEX_POINT('',#1082);
#758=VERTEX_POINT('',#1083);
#759=VERTEX_POINT('',#1084);
#760=VERTEX_POINT('',#1085);
#761=PLANE('',#838);
#762=PLANE('',#839);
#763=PLANE('',#840);
#764=PLANE('',#841);
#765=PLANE('',#842);
#766=PLANE('',#843);
#767=PLANE('',#844);
#768=PLANE('',#845);
#769=PLANE('',#846);
#770=PLANE('',#847);
#771=PLANE('',#848);
#772=PLANE('',#849);
#773=PLANE('',#850);
#774=PLANE('',#851);
#775=PLANE('',#852);
#776=PLANE('',#853);
#777=PLANE('',#854);
#778=PLANE('',#855);
#779=PLANE('',#856);
#780=PLANE('',#857);
#781=PLANE('',#858);
#782=PLANE('',#859);
#783=PLANE('',#860);
#784=PLANE('',#861);
#785=PLANE('',#862);
#786=PLANE('',#863);
#787=PLANE('',#864);
#788=PLANE('',#865);
#789=PLANE('',#866);
#790=PLANE('',#867);
#791=PLANE('',#868);
#792=PLANE('',#869);
#793=PLANE('',#870);
#794=PLANE('',#871);
#795=PLANE('',#872);
#796=PLANE('',#873);
#797=PLANE('',#874);
#798=PLANE('',#875);
#799=PLANE('',#876);
#800=PLANE('',#877);
#801=PLANE('',#878);
#802=PLANE('',#879);
#803=PLANE('',#880);
#804=PLANE('',#881);
#805=PLANE('',#882);
#806=PLANE('',#883);
#807=PLANE('',#884);
#808=PLANE('',#885);
#809=PLANE('',#886);
#810=PLANE('',#887);
#811=PLANE('',#888);
#812=PLANE('',#889);
#813=PLANE('',#890);
#814=PLANE('',#891);
#815=PLANE('',#892);
#816=PLANE('',#893);
#817=PLANE('',#894);
#818=SHAPE_DEFINITION_REPRESENTATION(#819,#836);
#819=PRODUCT_DEFINITION_SHAPE($,$,#821);
#820=PRODUCT_DEFINITION_CONTEXT('3D Mechanical Parts',#825,'design');
#821=PRODUCT_DEFINITION('A','First version',#822,#820);
#822=PRODUCT_DEFINITION_FORMATION_WITH_SPECIFIED_SOURCE('A','First version',#827,.MADE.);
#823=PRODUCT_RELATED_PRODUCT_CATEGORY('tool','tool',(#827));
#824=APPLICATION_PROTOCOL_DEFINITION('Draft International Standard','automotive_design',1999,#825);
#825=APPLICATION_CONTEXT('data for automotive mechanical design processes');
#826=PRODUCT_CONTEXT('3D Mechanical Parts',#825,'mechanical');
#827=PRODUCT('Document','Document','',(#826));
#828=(LENGTH_UNIT()NAMED_UNIT(*)SI_UNIT($,.METRE.));
#829=(NAMED_UNIT(*)PLANE_ANGLE_UNIT()SI_UNIT($,.RADIAN.));
#830=DIMENSIONAL_EXPONENTS(0.0,0.0,0.0,0.0,0.0,0.0,0.0);
#831=PLANE_ANGLE_MEASURE_WITH_UNIT(PLANE_ANGLE_MEASURE(0.01745329252),#829);
#832=(CONVERSION_BASED_UNIT('DEGREES',#831)NAMED_UNIT(#830)PLANE_ANGLE_UNIT());
#833=(NAMED_UNIT(*)SI_UNIT($,.STERADIAN.)SOLID_ANGLE_UNIT());
#834=UNCERTAINTY_MEASURE_WITH_UNIT(LENGTH_MEASURE(0.001),#828,'DISTANCE_ACCURACY_VALUE','Maximum model space distance between geometric entities at asserted connectivities');
#835=(GEOMETRIC_REPRESENTATION_CONTEXT(3)GLOBAL_UNCERTAINTY_ASSIGNED_CONTEXT((#834))GLOBAL_UNIT_ASSIGNED_CONTEXT((#833,#832,#828))REPRESENTATION_CONTEXT('ID1','3D'));
#836=SHAPE_REPRESENTATION('Document',(#837,#895),#835);
#837=AXIS2_PLACEMENT_3D($,#957,#896,#897);
#838=AXIS2_PLACEMENT_3D('',#958,#898,$);
#839=AXIS2_PLACEMENT_3D('',#959,#899,$);
#840=AXIS2_PLACEMENT_3D('',#960,#900,$);
#841=AXIS2_PLACEMENT_3D('',#961,#901,$);
#842=AXIS2_PLACEMENT_3D('',#962,#902,$);
#843=AXIS2_PLACEMENT_3D('',#963,#903,$);
#844=AXIS2_PLACEMENT_3D('',#964,#904,$);
#845=AXIS2_PLACEMENT_3D('',#965,#905,$);
#846=AXIS2_PLACEMENT_3D('',#966,#906,$);
#847=AXIS2_PLACEMENT_3D('',#967,#907,$);
#848=AXIS2_PLACEMENT_3D('',#968,#908,$);
#849=AXIS2_PLACEMENT_3D('',#969,#909,$);
#850=AXIS2_PLACEMENT_3D('',#970,#910,$);
#851=AXIS2_PLACEMENT_3D('',#971,#911,$);
#852=AXIS2_PLACEMENT_3D('',#972,#912,$);
#853=AXIS2_PLACEMENT_3D('',#973,#913,$);
#854=AXIS2_PLACEMENT_3D('',#974,#914,$);
#855=AXIS2_PLACEMENT_3D('',#975,#915,$);
#856=AXIS2_PLACEMENT_3D('',#976,#916,$);
#857=AXIS2_PLACEMENT_3D('',#977,#917,$);
#858=AXIS2_PLACEMENT_3D('',#978,#918,$);
#859=AXIS2_PLACEMENT_3D('',#979,#919,$);
#860=AXIS2_PLACEMENT_3D('',#980,#920,$);
#861=AXIS2_PLACEMENT_3D('',#981,#921,$);
#862=AXIS2_PLACEMENT_3D('',#982,#922,$);
#863=AXIS2_PLACEMENT_3D('',#983,#923,$);
#864=AXIS2_PLACEMENT_3D('',#984,#924,$);
#865=AXIS2_PLACEMENT_3D('',#985,#925,$);
#866=AXIS2_PLACEMENT_3D('',#986,#926,$);
#867=AXIS2_PLACEMENT_3D('',#987,#927,$);
#868=AXIS2_PLACEMENT_3D('',#988,#928,$);
#869=AXIS2_PLACEMENT_3D('',#989,#929,$);
#870=AXIS2_PLACEMENT_3D('',#990,#930,$);
#871=AXIS2_PLACEMENT_3D('',#991,#931,$);
#872=AXIS2_PLACEMENT_3D('',#992,#932,$);
#873=AXIS2_PLACEMENT_3D('',#993,#933,$);
#874=AXIS2_PLACEMENT_3D('',#994,#934,$);
#875=AXIS2_PLACEMENT_3D('',#995,#935,$);
#876=AXIS2_PLACEMENT_3D('',#996,#936,$);
#877=AXIS2_PLACEMENT_3D('',#997,#937,$);
#878=AXIS2_PLACEMENT_3D('',#998,#938,$);
#879=AXIS2_PLACEMENT_3D('',#999,#939,$);
#880=AXIS2_PLACEMENT_3D('',#1000,#940,$);
#881=AXIS2_PLACEMENT_3D('',#1001,#941,$);
#882=AXIS2_PLACEMENT_3D('',#1002,#942,$);
#883=AXIS2_PLACEMENT_3D('',#1003,#943,$);
#884=AXIS2_PLACEMENT_3D('',#1004,#944,$);
#885=AXIS2_PLACEMENT_3D('',#1005,#945,$);
#886=AXIS2_PLACEMENT_3D('',#1006,#946,$);
#887=AXIS2_PLACEMENT_3D('',#1007,#947,$);
#888=AXIS2_PLACEMENT_3D('',#1008,#948,$);
#889=AXIS2_PLACEMENT_3D('',#1009,#949,$);
#890=AXIS2_PLACEMENT_3D('',#1010,#950,$);
#891=AXIS2_PLACEMENT_3D('',#1011,#951,$);
#892=AXIS2_PLACEMENT_3D('',#1012,#952,$);
#893=AXIS2_PLACEMENT_3D('',#1013,#953,$);
#894=AXIS2_PLACEMENT_3D('',#1014,#954,$);
#895=AXIS2_PLACEMENT_3D($,#1405,#955,#956);
#896=DIRECTION('',(0.0,0.0,1.0));
#897=DIRECTION('',(1.0,0.0,0.0));
#898=DIRECTION('',(0.0,0.0,-1.0));
#899=DIRECTION('',(-0.866025403784439,0.5,3.96016925049725E-16));
#900=DIRECTION('',(0.0,-1.0,0.0));
#901=DIRECTION('',(0.866025403784439,-0.5,-1.3632999317362E-15));
#902=DIRECTION('',(0.0,1.0,0.0));
#903=DIRECTION('',(0.0,0.0,1.0));
#904=DIRECTION('',(-0.866025403784439,-0.5,2.13662520709285E-16));
#905=DIRECTION('',(0.866025403784439,0.5,-1.70930016567428E-15));
#906=DIRECTION('',(0.0,0.0,-1.0));
#907=DIRECTION('',(0.866025403784439,-0.5,-2.67078150886606E-16));
#908=DIRECTION('',(-0.866025403784439,0.5,5.19843626804E-16));
#909=DIRECTION('',(0.0,0.0,-1.0));
#910=DIRECTION('',(0.866025403784439,0.5,-9.4716866822257E-16));
#911=DIRECTION('',(-0.866025403784439,-0.5,6.16790569236198E-17));
#912=DIRECTION('',(0.0,0.0,-1.0));
#913=DIRECTION('',(0.866025403784438,-0.500000000000002,-1.12777748194666E-15));
#914=DIRECTION('',(-0.866025403784438,0.500000000000001,1.28418930277909E-15));
#915=DIRECTION('',(0.0,0.0,-1.0));
#916=DIRECTION('',(-0.866025403784439,0.5,-1.80608813724091E-16));
#917=DIRECTION('',(0.866025403784438,-0.500000000000001,2.079374507216E-15));
#918=DIRECTION('',(0.0,0.0,-1.0));
#919=DIRECTION('',(-0.866025403784439,0.5,1.80608813724091E-16));
#920=DIRECTION('',(0.866025403784439,-0.5,2.79769934679674E-16));
#921=DIRECTION('',(0.0,0.0,-1.0));
#922=DIRECTION('',(0.0,1.0,0.0));
#923=DIRECTION('',(0.0,-1.0,0.0));
#924=DIRECTION('',(0.0,0.0,-1.0));
#925=DIRECTION('',(0.0,-1.0,0.0));
#926=DIRECTION('',(0.0,1.0,0.0));
#927=DIRECTION('',(0.0,0.0,-1.0));
#928=DIRECTION('',(0.5,0.866025403784439,3.39485466181405E-17));
#929=DIRECTION('',(-0.5,0.866025403784439,-1.32839029246971E-17));
#930=DIRECTION('',(-1.0,0.0,0.0));
#931=DIRECTION('',(-0.5,-0.866025403784438,7.8767706784746E-18));
#932=DIRECTION('',(0.499999999999999,-0.866025403784439,3.5408009825641E-17));
#933=DIRECTION('',(1.0,0.0,0.0));
#934=DIRECTION('',(0.500000000000003,0.866025403784437,-8.2738669584085E-18));
#935=DIRECTION('',(-0.499999999999998,0.86602540378444,-2.97292083305934E-17));
#936=DIRECTION('',(-1.0,0.0,0.0));
#937=DIRECTION('',(-0.500000000000001,-0.866025403784438,8.75357801098747E-17));
#938=DIRECTION('',(0.499999999999998,-0.86602540378444,8.16892904819756E-17));
#939=DIRECTION('',(1.0,0.0,0.0));
#940=DIRECTION('',(0.0,1.0,0.0));
#941=DIRECTION('',(0.0,-1.0,0.0));
#942=DIRECTION('',(0.0,-1.0,0.0));
#943=DIRECTION('',(0.0,-1.0,0.0));
#944=DIRECTION('',(0.0,1.0,0.0));
#945=DIRECTION('',(0.0,1.0,0.0));
#946=DIRECTION('',(0.866025403784433,-0.500000000000009,-9.4116006587401E-16));
#947=DIRECTION('',(0.0,0.0,-1.0));
#948=DIRECTION('',(0.0,0.0,-1.0));
#949=DIRECTION('',(0.0,0.0,-1.0));
#950=DIRECTION('',(0.0,0.0,-1.0));
#951=DIRECTION('',(0.0,0.0,-1.0));
#952=DIRECTION('',(0.0,0.0,-1.0));
#953=DIRECTION('',(0.0,0.0,-1.0));
#954=DIRECTION('',(0.0,0.0,-1.0));
#955=DIRECTION('',(0.0,0.0,1.0));
#956=DIRECTION('',(1.0,0.0,0.0));
#957=CARTESIAN_POINT('',(0.0,0.0,0.0));
#958=CARTESIAN_POINT('',(18.9000205649649,4.67653718043597,2.735));
#959=CARTESIAN_POINT('',(2.7,4.67653718043597,2.735));
#960=CARTESIAN_POINT('',(0.0,8.88178419700125E-16,2.735));
#961=CARTESIAN_POINT('',(8.10001028248245,1.33226762955019E-15,2.735));
#962=CARTESIAN_POINT('',(10.8000102824825,4.67653718043597,2.735));
#963=CARTESIAN_POINT('',(18.9000205649649,4.67653718043597,3.0));
#964=CARTESIAN_POINT('',(7.97010647191478,2.26326859021798,2.285));
#965=CARTESIAN_POINT('',(8.22991409305012,2.41326859021799,2.735));
#966=CARTESIAN_POINT('',(8.22991409305012,2.41326859021799,2.285));
#967=CARTESIAN_POINT('',(2.82991409305011,2.26326859021798,2.285));
#968=CARTESIAN_POINT('',(2.57010647191478,2.41326859021799,2.735));
#969=CARTESIAN_POINT('',(2.57010647191478,2.41326859021799,2.285));
#970=CARTESIAN_POINT('',(2.82991409305012,2.41326859021799,2.285));
#971=CARTESIAN_POINT('',(2.57010647191478,2.26326859021798,2.735));
#972=CARTESIAN_POINT('',(2.57010647191478,2.26326859021798,2.285));
#973=CARTESIAN_POINT('',(8.22991409305012,2.26326859021798,2.285));
#974=CARTESIAN_POINT('',(7.97010647191478,2.41326859021799,2.735));
#975=CARTESIAN_POINT('',(7.97010647191478,2.41326859021799,2.285));
#976=CARTESIAN_POINT('',(7.97010647191478,2.41326859021799,2.285));
#977=CARTESIAN_POINT('',(8.22991409305012,2.26326859021798,2.735));
#978=CARTESIAN_POINT('',(8.22991409305012,2.26326859021798,2.285));
#979=CARTESIAN_POINT('',(2.57010647191478,2.41326859021799,2.285));
#980=CARTESIAN_POINT('',(2.82991409305011,2.26326859021798,2.735));
#981=CARTESIAN_POINT('',(2.82991409305011,2.26326859021798,2.285));
#982=CARTESIAN_POINT('',(8.10001028248245,2.48826859021798,2.285));
#983=CARTESIAN_POINT('',(8.10001028248245,2.18826859021799,2.735));
#984=CARTESIAN_POINT('',(8.10001028248245,2.18826859021799,2.285));
#985=CARTESIAN_POINT('',(8.10001028248245,2.18826859021799,2.285));
#986=CARTESIAN_POINT('',(8.10001028248245,2.48826859021798,2.735));
#987=CARTESIAN_POINT('',(8.10001028248245,2.48826859021798,2.285));
#988=CARTESIAN_POINT('',(2.95981790361778,2.48826859021798,0.0));
#989=CARTESIAN_POINT('',(2.70001028248245,2.63826859021798,0.0));
#990=CARTESIAN_POINT('',(2.44020266134712,2.48826859021798,0.0));
#991=CARTESIAN_POINT('',(2.44020266134712,2.18826859021799,0.0));
#992=CARTESIAN_POINT('',(2.70001028248245,2.03826859021799,0.0));
#993=CARTESIAN_POINT('',(2.95981790361778,2.18826859021798,0.0));
#994=CARTESIAN_POINT('',(8.35981790361778,2.48826859021798,0.0));
#995=CARTESIAN_POINT('',(8.10001028248245,2.63826859021799,0.0));
#996=CARTESIAN_POINT('',(7.84020266134712,2.48826859021798,0.0));
#997=CARTESIAN_POINT('',(7.84020266134712,2.18826859021799,0.0));
#998=CARTESIAN_POINT('',(8.10001028248245,2.03826859021799,0.0));
#999=CARTESIAN_POINT('',(8.35981790361778,2.18826859021798,0.0));
#1000=CARTESIAN_POINT('',(6.57680520172556,4.67653718043597,2.735));
#1001=CARTESIAN_POINT('',(1.17680520172556,8.88178419700125E-16,2.285));
#1002=CARTESIAN_POINT('',(3.87680520172556,8.88178419700125E-16,2.285));
#1003=CARTESIAN_POINT('',(6.57680520172556,8.88178419700125E-16,2.285));
#1004=CARTESIAN_POINT('',(9.27680520172556,4.67653718043597,2.735));
#1005=CARTESIAN_POINT('',(3.87680520172556,4.67653718043597,2.735));
#1006=CARTESIAN_POINT('',(9.358407742104,2.17960833618014,2.275));
#1007=CARTESIAN_POINT('',(2.43020266134712,2.02826859021798,0.0));
#1008=CARTESIAN_POINT('',(7.83020266134712,2.02826859021799,0.0));
#1009=CARTESIAN_POINT('',(18.9000205649649,4.67653718043597,2.735));
#1010=CARTESIAN_POINT('',(18.9000205649649,4.67653718043597,2.735));
#1011=CARTESIAN_POINT('',(18.9000205649649,4.67653718043597,2.735));
#1012=CARTESIAN_POINT('',(18.9000205649649,4.67653718043597,2.735));
#1013=CARTESIAN_POINT('',(18.9000205649649,4.67653718043597,2.735));
#1014=CARTESIAN_POINT('',(18.9000205649649,4.67653718043597,2.735));
#1015=CARTESIAN_POINT('',(2.7,4.67653718043597,2.735));
#1016=CARTESIAN_POINT('',(0.0,8.88178419700125E-16,2.735));
#1017=CARTESIAN_POINT('',(8.10001028248245,4.44089209850063E-16,2.735));
#1018=CARTESIAN_POINT('',(10.8000102824825,4.67653718043597,2.735));
#1019=CARTESIAN_POINT('',(2.7,4.67653718043597,3.0));
#1020=CARTESIAN_POINT('',(0.0,8.88178419700125E-16,3.0));
#1021=CARTESIAN_POINT('',(8.10001028248245,4.44089209850063E-16,3.0));
#1022=CARTESIAN_POINT('',(10.8000102824825,4.67653718043597,3.0));
#1023=CARTESIAN_POINT('',(7.84020266134712,2.48826859021799,2.285));
#1024=CARTESIAN_POINT('',(8.10001028248245,2.63826859021798,2.285));
#1025=CARTESIAN_POINT('',(6.57680520172556,4.67653718043597,2.285));
#1026=CARTESIAN_POINT('',(6.92321536323934,4.67653718043597,2.285));
#1027=CARTESIAN_POINT('',(2.70001028248245,2.03826859021799,2.285));
#1028=CARTESIAN_POINT('',(2.44020266134712,2.18826859021799,2.285));
#1029=CARTESIAN_POINT('',(1.52321536323934,4.44089209850063E-16,2.285));
#1030=CARTESIAN_POINT('',(1.17680520172556,8.88178419700125E-16,2.285));
#1031=CARTESIAN_POINT('',(2.95981790361778,2.18826859021799,2.285));
#1032=CARTESIAN_POINT('',(4.22321536323934,4.44089209850063E-16,2.285));
#1033=CARTESIAN_POINT('',(3.87680520172556,8.88178419700125E-16,2.285));
#1034=CARTESIAN_POINT('',(8.10001028248245,2.03826859021798,2.285));
#1035=CARTESIAN_POINT('',(7.84020266134712,2.18826859021799,2.285));
#1036=CARTESIAN_POINT('',(6.92321536323934,1.33226762955019E-15,2.285));
#1037=CARTESIAN_POINT('',(6.57680520172556,8.88178419700125E-16,2.285));
#1038=CARTESIAN_POINT('',(8.35981790361778,2.48826859021798,2.285));
#1039=CARTESIAN_POINT('',(9.27680520172556,4.67653718043597,2.285));
#1040=CARTESIAN_POINT('',(9.62321536323934,4.67653718043597,2.285));
#1041=CARTESIAN_POINT('',(2.70001028248245,2.63826859021798,2.285));
#1042=CARTESIAN_POINT('',(2.95981790361778,2.48826859021798,2.285));
#1043=CARTESIAN_POINT('',(3.87680520172556,4.67653718043597,2.285));
#1044=CARTESIAN_POINT('',(4.22321536323934,4.67653718043597,2.285));
#1045=CARTESIAN_POINT('',(8.35981790361778,2.18826859021799,2.285));
#1046=CARTESIAN_POINT('',(9.53661282286089,2.48826859021798,2.285));
#1047=CARTESIAN_POINT('',(9.36340774210401,2.18826859021798,2.285));
#1048=CARTESIAN_POINT('',(2.95981790361778,2.48826859021798,0.0));
#1049=CARTESIAN_POINT('',(2.70001028248245,2.63826859021798,0.0));
#1050=CARTESIAN_POINT('',(2.44020266134712,2.48826859021798,0.0));
#1051=CARTESIAN_POINT('',(2.44020266134712,2.18826859021799,0.0));
#1052=CARTESIAN_POINT('',(2.70001028248245,2.03826859021799,0.0));
#1053=CARTESIAN_POINT('',(2.95981790361778,2.18826859021798,0.0));
#1054=CARTESIAN_POINT('',(8.35981790361778,2.48826859021798,0.0));
#1055=CARTESIAN_POINT('',(8.10001028248245,2.63826859021799,0.0));
#1056=CARTESIAN_POINT('',(7.84020266134712,2.48826859021798,0.0));
#1057=CARTESIAN_POINT('',(7.84020266134712,2.18826859021799,0.0));
#1058=CARTESIAN_POINT('',(8.10001028248245,2.03826859021799,0.0));
#1059=CARTESIAN_POINT('',(8.35981790361778,2.18826859021798,0.0));
#1060=CARTESIAN_POINT('',(7.84020266134712,2.48826859021798,2.735));
#1061=CARTESIAN_POINT('',(6.57680520172556,4.67653718043597,2.735));
#1062=CARTESIAN_POINT('',(6.92321536323934,4.67653718043597,2.735));
#1063=CARTESIAN_POINT('',(8.10001028248245,2.63826859021799,2.735));
#1064=CARTESIAN_POINT('',(2.70001028248245,2.03826859021799,2.735));
#1065=CARTESIAN_POINT('',(1.52321536323934,1.33226762955019E-15,2.735));
#1066=CARTESIAN_POINT('',(1.17680520172556,8.88178419700125E-16,2.735));
#1067=CARTESIAN_POINT('',(2.44020266134712,2.18826859021799,2.735));
#1068=CARTESIAN_POINT('',(2.95981790361778,2.18826859021798,2.735));
#1069=CARTESIAN_POINT('',(4.22321536323934,8.88178419700125E-16,2.735));
#1070=CARTESIAN_POINT('',(3.87680520172556,8.88178419700125E-16,2.735));
#1071=CARTESIAN_POINT('',(8.10001028248245,2.03826859021799,2.735));
#1072=CARTESIAN_POINT('',(6.92321536323933,4.44089209850063E-16,2.735));
#1073=CARTESIAN_POINT('',(6.57680520172556,4.44089209850063E-16,2.735));
#1074=CARTESIAN_POINT('',(7.84020266134712,2.18826859021799,2.735));
#1075=CARTESIAN_POINT('',(9.27680520172556,4.67653718043597,2.735));
#1076=CARTESIAN_POINT('',(8.35981790361778,2.48826859021798,2.735));
#1077=CARTESIAN_POINT('',(9.62321536323934,4.67653718043597,2.735));
#1078=CARTESIAN_POINT('',(2.70001028248245,2.63826859021798,2.735));
#1079=CARTESIAN_POINT('',(3.87680520172556,4.67653718043597,2.735));
#1080=CARTESIAN_POINT('',(2.95981790361778,2.48826859021798,2.735));
#1081=CARTESIAN_POINT('',(4.22321536323934,4.67653718043597,2.735));
#1082=CARTESIAN_POINT('',(9.53661282286089,2.48826859021798,2.735));
#1083=CARTESIAN_POINT('',(9.36340774210401,2.18826859021798,2.735));
#1084=CARTESIAN_POINT('',(8.35981790361778,2.18826859021798,2.735));
#1085=CARTESIAN_POINT('',(2.44020266134712,2.48826859021798,2.735));
#1086=CARTESIAN_POINT('',(2.7,4.67653718043597,2.735));
#1087=CARTESIAN_POINT('',(0.0,8.88178419700125E-16,2.735));
#1088=CARTESIAN_POINT('',(0.0,8.88178419700125E-16,2.735));
#1089=CARTESIAN_POINT('',(1.17680520172556,8.88178419700125E-16,2.735));
#1090=CARTESIAN_POINT('',(8.10001028248245,4.44089209850063E-16,2.735));
#1091=CARTESIAN_POINT('',(9.36340774210401,2.18826859021798,2.735));
#1092=CARTESIAN_POINT('',(10.8000102824825,4.67653718043597,2.735));
#1093=CARTESIAN_POINT('',(9.62321536323934,4.67653718043597,2.735));
#1094=CARTESIAN_POINT('',(2.7,4.67653718043597,2.735));
#1095=CARTESIAN_POINT('',(2.7,4.67653718043597,3.0));
#1096=CARTESIAN_POINT('',(2.7,4.67653718043597,3.0));
#1097=CARTESIAN_POINT('',(0.0,8.88178419700125E-16,3.0));
#1098=CARTESIAN_POINT('',(0.0,8.88178419700125E-16,3.0));
#1099=CARTESIAN_POINT('',(0.0,8.88178419700125E-16,2.735));
#1100=CARTESIAN_POINT('',(0.0,8.88178419700125E-16,3.0));
#1101=CARTESIAN_POINT('',(8.10001028248245,4.44089209850063E-16,3.0));
#1102=CARTESIAN_POINT('',(8.10001028248245,4.44089209850063E-16,3.0));
#1103=CARTESIAN_POINT('',(8.10001028248245,4.44089209850063E-16,2.735));
#1104=CARTESIAN_POINT('',(8.10001028248245,4.44089209850063E-16,3.0));
#1105=CARTESIAN_POINT('',(9.45001028248245,2.33826859021798,3.0));
#1106=CARTESIAN_POINT('',(10.8000102824825,4.67653718043597,3.0));
#1107=CARTESIAN_POINT('',(10.8000102824825,4.67653718043597,3.0));
#1108=CARTESIAN_POINT('',(10.8000102824825,4.67653718043597,2.735));
#1109=CARTESIAN_POINT('',(10.8000102824825,4.67653718043597,3.0));
#1110=CARTESIAN_POINT('',(2.7,4.67653718043597,3.0));
#1111=CARTESIAN_POINT('',(7.84020266134712,2.48826859021798,2.735));
#1112=CARTESIAN_POINT('',(7.84020266134712,2.48826859021799,2.285));
#1113=CARTESIAN_POINT('',(8.10001028248245,2.63826859021799,2.735));
#1114=CARTESIAN_POINT('',(8.10001028248245,2.63826859021798,2.285));
#1115=CARTESIAN_POINT('',(8.10001028248245,2.63826859021798,2.285));
#1116=CARTESIAN_POINT('',(7.84020266134712,2.48826859021799,2.285));
#1117=CARTESIAN_POINT('',(7.84020266134712,2.48826859021798,2.735));
#1118=CARTESIAN_POINT('',(7.41906823597977,3.21769481177056,2.735));
#1119=CARTESIAN_POINT('',(6.99794072846573,3.94710905124972,2.735));
#1120=CARTESIAN_POINT('',(6.57680520172556,4.67653718043597,2.735));
#1121=CARTESIAN_POINT('',(8.10001028248245,2.63826859021799,2.735));
#1122=CARTESIAN_POINT('',(7.707743331155,3.31769488004728,2.735));
#1123=CARTESIAN_POINT('',(7.31548238179037,3.99711077417201,2.735));
#1124=CARTESIAN_POINT('',(6.92321536323934,4.67653718043597,2.735));
#1125=CARTESIAN_POINT('',(8.10001028248245,2.63826859021798,2.285));
#1126=CARTESIAN_POINT('',(7.707743331155,3.31769488004728,2.285));
#1127=CARTESIAN_POINT('',(7.31548238179038,3.99711077417201,2.285));
#1128=CARTESIAN_POINT('',(6.92321536323934,4.67653718043597,2.285));
#1129=CARTESIAN_POINT('',(7.84020266134712,2.48826859021799,2.285));
#1130=CARTESIAN_POINT('',(7.41906823597977,3.21769481177056,2.285));
#1131=CARTESIAN_POINT('',(6.99794072846573,3.94710905124972,2.285));
#1132=CARTESIAN_POINT('',(6.57680520172556,4.67653718043597,2.285));
#1133=CARTESIAN_POINT('',(6.57680520172556,4.67653718043597,2.285));
#1134=CARTESIAN_POINT('',(6.57680520172556,4.67653718043597,2.735));
#1135=CARTESIAN_POINT('',(6.92321536323934,4.67653718043597,2.735));
#1136=CARTESIAN_POINT('',(6.92321536323934,4.67653718043597,2.285));
#1137=CARTESIAN_POINT('',(6.57680520172556,4.67653718043597,2.285));
#1138=CARTESIAN_POINT('',(6.92321536323934,4.67653718043597,2.285));
#1139=CARTESIAN_POINT('',(2.70001028248245,2.03826859021799,2.735));
#1140=CARTESIAN_POINT('',(2.70001028248245,2.03826859021799,2.285));
#1141=CARTESIAN_POINT('',(2.44020266134712,2.18826859021799,2.735));
#1142=CARTESIAN_POINT('',(2.44020266134712,2.18826859021799,2.285));
#1143=CARTESIAN_POINT('',(2.44020266134712,2.18826859021799,2.285));
#1144=CARTESIAN_POINT('',(2.70001028248245,2.03826859021799,2.285));
#1145=CARTESIAN_POINT('',(2.44020266134712,2.18826859021799,2.285));
#1146=CARTESIAN_POINT('',(2.01906823597976,1.45884236866541,2.285));
#1147=CARTESIAN_POINT('',(1.59794072846573,0.729428129186258,2.285));
#1148=CARTESIAN_POINT('',(1.17680520172556,8.88178419700125E-16,2.285));
#1149=CARTESIAN_POINT('',(2.70001028248245,2.03826859021799,2.285));
#1150=CARTESIAN_POINT('',(2.307743331155,1.35884230038869,2.285));
#1151=CARTESIAN_POINT('',(1.91548238179038,0.679426406263963,2.285));
#1152=CARTESIAN_POINT('',(1.52321536323934,4.44089209850063E-16,2.285));
#1153=CARTESIAN_POINT('',(1.52321536323934,4.44089209850063E-16,2.285));
#1154=CARTESIAN_POINT('',(1.52321536323934,1.33226762955019E-15,2.735));
#1155=CARTESIAN_POINT('',(1.17680520172556,8.88178419700125E-16,2.735));
#1156=CARTESIAN_POINT('',(1.17680520172556,8.88178419700125E-16,2.285));
#1157=CARTESIAN_POINT('',(1.52321536323934,4.44089209850063E-16,2.285));
#1158=CARTESIAN_POINT('',(1.17680520172556,8.88178419700125E-16,2.285));
#1159=CARTESIAN_POINT('',(2.95981790361778,2.18826859021798,2.735));
#1160=CARTESIAN_POINT('',(2.95981790361778,2.18826859021799,2.285));
#1161=CARTESIAN_POINT('',(2.70001028248245,2.03826859021799,2.285));
#1162=CARTESIAN_POINT('',(2.95981790361778,2.18826859021799,2.285));
#1163=CARTESIAN_POINT('',(2.95981790361778,2.18826859021798,2.735));
#1164=CARTESIAN_POINT('',(3.38095232898513,1.45884236866541,2.735));
#1165=CARTESIAN_POINT('',(3.80207983649917,0.729428129186258,2.735));
#1166=CARTESIAN_POINT('',(4.22321536323934,8.88178419700125E-16,2.735));
#1167=CARTESIAN_POINT('',(2.70001028248245,2.03826859021799,2.735));
#1168=CARTESIAN_POINT('',(3.0922772338099,1.35884230038869,2.735));
#1169=CARTESIAN_POINT('',(3.48453818317452,0.679426406263964,2.735));
#1170=CARTESIAN_POINT('',(3.87680520172556,8.88178419700125E-16,2.735));
#1171=CARTESIAN_POINT('',(2.70001028248245,2.03826859021799,2.285));
#1172=CARTESIAN_POINT('',(3.0922772338099,1.35884230038869,2.285));
#1173=CARTESIAN_POINT('',(3.48453818317452,0.679426406263964,2.285));
#1174=CARTESIAN_POINT('',(3.87680520172556,8.88178419700125E-16,2.285));
#1175=CARTESIAN_POINT('',(2.95981790361778,2.18826859021799,2.285));
#1176=CARTESIAN_POINT('',(3.38095232898513,1.45884236866541,2.285));
#1177=CARTESIAN_POINT('',(3.80207983649917,0.729428129186258,2.285));
#1178=CARTESIAN_POINT('',(4.22321536323934,4.44089209850063E-16,2.285));
#1179=CARTESIAN_POINT('',(4.22321536323934,4.44089209850063E-16,2.285));
#1180=CARTESIAN_POINT('',(4.22321536323934,8.88178419700125E-16,2.735));
#1181=CARTESIAN_POINT('',(3.87680520172556,8.88178419700125E-16,2.735));
#1182=CARTESIAN_POINT('',(3.87680520172556,8.88178419700125E-16,2.285));
#1183=CARTESIAN_POINT('',(4.22321536323934,4.44089209850063E-16,2.285));
#1184=CARTESIAN_POINT('',(3.87680520172556,8.88178419700125E-16,2.285));
#1185=CARTESIAN_POINT('',(8.10001028248245,2.03826859021799,2.735));
#1186=CARTESIAN_POINT('',(8.10001028248245,2.03826859021798,2.285));
#1187=CARTESIAN_POINT('',(7.84020266134712,2.18826859021799,2.735));
#1188=CARTESIAN_POINT('',(7.84020266134712,2.18826859021799,2.285));
#1189=CARTESIAN_POINT('',(7.84020266134712,2.18826859021799,2.285));
#1190=CARTESIAN_POINT('',(8.10001028248245,2.03826859021798,2.285));
#1191=CARTESIAN_POINT('',(7.84020266134712,2.18826859021799,2.285));
#1192=CARTESIAN_POINT('',(7.41906823597976,1.45884236866541,2.285));
#1193=CARTESIAN_POINT('',(6.99794072846573,0.729428129186257,2.285));
#1194=CARTESIAN_POINT('',(6.57680520172556,8.88178419700125E-16,2.285));
#1195=CARTESIAN_POINT('',(8.10001028248245,2.03826859021798,2.285));
#1196=CARTESIAN_POINT('',(7.707743331155,1.35884230038869,2.285));
#1197=CARTESIAN_POINT('',(7.31548238179037,0.679426406263964,2.285));
#1198=CARTESIAN_POINT('',(6.92321536323934,1.33226762955019E-15,2.285));
#1199=CARTESIAN_POINT('',(6.92321536323934,1.33226762955019E-15,2.285));
#1200=CARTESIAN_POINT('',(6.92321536323933,4.44089209850063E-16,2.735));
#1201=CARTESIAN_POINT('',(6.57680520172556,4.44089209850063E-16,2.735));
#1202=CARTESIAN_POINT('',(6.57680520172556,8.88178419700125E-16,2.285));
#1203=CARTESIAN_POINT('',(6.92321536323934,1.33226762955019E-15,2.285));
#1204=CARTESIAN_POINT('',(6.57680520172556,8.88178419700125E-16,2.285));
#1205=CARTESIAN_POINT('',(8.35981790361778,2.48826859021798,2.285));
#1206=CARTESIAN_POINT('',(8.35981790361778,2.48826859021798,2.735));
#1207=CARTESIAN_POINT('',(8.35981790361778,2.48826859021798,2.285));
#1208=CARTESIAN_POINT('',(8.10001028248245,2.63826859021798,2.285));
#1209=CARTESIAN_POINT('',(8.35981790361778,2.48826859021798,2.285));
#1210=CARTESIAN_POINT('',(8.78095232898513,3.21769481177056,2.285));
#1211=CARTESIAN_POINT('',(9.20207983649917,3.94710905124971,2.285));
#1212=CARTESIAN_POINT('',(9.62321536323934,4.67653718043597,2.285));
#1213=CARTESIAN_POINT('',(8.10001028248245,2.63826859021798,2.285));
#1214=CARTESIAN_POINT('',(8.4922772338099,3.31769488004728,2.285));
#1215=CARTESIAN_POINT('',(8.88453818317452,3.99711077417201,2.285));
#1216=CARTESIAN_POINT('',(9.27680520172556,4.67653718043597,2.285));
#1217=CARTESIAN_POINT('',(9.27680520172556,4.67653718043597,2.285));
#1218=CARTESIAN_POINT('',(9.27680520172556,4.67653718043597,2.735));
#1219=CARTESIAN_POINT('',(9.62321536323934,4.67653718043597,2.735));
#1220=CARTESIAN_POINT('',(9.62321536323934,4.67653718043597,2.285));
#1221=CARTESIAN_POINT('',(9.27680520172556,4.67653718043597,2.285));
#1222=CARTESIAN_POINT('',(9.62321536323934,4.67653718043597,2.285));
#1223=CARTESIAN_POINT('',(2.70001028248245,2.63826859021798,2.735));
#1224=CARTESIAN_POINT('',(2.70001028248245,2.63826859021798,2.285));
#1225=CARTESIAN_POINT('',(2.95981790361778,2.48826859021798,2.285));
#1226=CARTESIAN_POINT('',(2.95981790361778,2.48826859021798,2.735));
#1227=CARTESIAN_POINT('',(2.95981790361778,2.48826859021798,2.285));
#1228=CARTESIAN_POINT('',(2.70001028248245,2.63826859021798,2.285));
#1229=CARTESIAN_POINT('',(2.95981790361778,2.48826859021798,2.285));
#1230=CARTESIAN_POINT('',(3.38095232898513,3.21769481177056,2.285));
#1231=CARTESIAN_POINT('',(3.80207983649917,3.94710905124972,2.285));
#1232=CARTESIAN_POINT('',(4.22321536323934,4.67653718043597,2.285));
#1233=CARTESIAN_POINT('',(2.70001028248245,2.63826859021798,2.285));
#1234=CARTESIAN_POINT('',(3.0922772338099,3.31769488004728,2.285));
#1235=CARTESIAN_POINT('',(3.48453818317452,3.99711077417201,2.285));
#1236=CARTESIAN_POINT('',(3.87680520172556,4.67653718043597,2.285));
#1237=CARTESIAN_POINT('',(3.87680520172556,4.67653718043597,2.285));
#1238=CARTESIAN_POINT('',(3.87680520172556,4.67653718043597,2.735));
#1239=CARTESIAN_POINT('',(4.22321536323934,4.67653718043597,2.735));
#1240=CARTESIAN_POINT('',(4.22321536323934,4.67653718043597,2.285));
#1241=CARTESIAN_POINT('',(3.87680520172556,4.67653718043597,2.285));
#1242=CARTESIAN_POINT('',(4.22321536323934,4.67653718043597,2.285));
#1243=CARTESIAN_POINT('',(8.35981790361778,2.18826859021798,2.735));
#1244=CARTESIAN_POINT('',(8.35981790361778,2.18826859021799,2.285));
#1245=CARTESIAN_POINT('',(8.35981790361778,2.18826859021799,2.285));
#1246=CARTESIAN_POINT('',(8.35981790361778,2.48826859021798,2.285));
#1247=CARTESIAN_POINT('',(8.35981790361778,2.18826859021799,2.285));
#1248=CARTESIAN_POINT('',(8.69434811777102,2.18826859021798,2.285));
#1249=CARTESIAN_POINT('',(9.0288774715812,2.18826859021798,2.285));
#1250=CARTESIAN_POINT('',(9.36340774210401,2.18826859021798,2.285));
#1251=CARTESIAN_POINT('',(8.35981790361778,2.48826859021798,2.285));
#1252=CARTESIAN_POINT('',(8.7520831046115,2.48826859021798,2.285));
#1253=CARTESIAN_POINT('',(9.14434712267118,2.48826859021798,2.285));
#1254=CARTESIAN_POINT('',(9.53661282286089,2.48826859021798,2.285));
#1255=CARTESIAN_POINT('',(9.53661282286089,2.48826859021798,2.285));
#1256=CARTESIAN_POINT('',(9.53661282286089,2.48826859021798,2.735));
#1257=CARTESIAN_POINT('',(9.36340774210401,2.18826859021798,2.735));
#1258=CARTESIAN_POINT('',(9.36340774210401,2.18826859021798,2.285));
#1259=CARTESIAN_POINT('',(9.53661282286089,2.48826859021798,2.285));
#1260=CARTESIAN_POINT('',(9.45001028248245,2.33826859021799,2.285));
#1261=CARTESIAN_POINT('',(9.36340774210401,2.18826859021798,2.285));
#1262=CARTESIAN_POINT('',(2.95981790361778,2.18826859021799,2.285));
#1263=CARTESIAN_POINT('',(2.95981790361778,2.48826859021798,2.285));
#1264=CARTESIAN_POINT('',(7.84020266134712,2.48826859021799,2.285));
#1265=CARTESIAN_POINT('',(7.84020266134712,2.18826859021799,2.285));
#1266=CARTESIAN_POINT('',(7.84020266134712,2.48826859021799,2.285));
#1267=CARTESIAN_POINT('',(6.21340774210401,2.48826859021799,2.285));
#1268=CARTESIAN_POINT('',(4.58661282286089,2.48826859021799,2.285));
#1269=CARTESIAN_POINT('',(2.95981790361778,2.48826859021798,2.285));
#1270=CARTESIAN_POINT('',(7.84020266134712,2.18826859021799,2.285));
#1271=CARTESIAN_POINT('',(6.21340774210401,2.18826859021799,2.285));
#1272=CARTESIAN_POINT('',(4.58661282286089,2.18826859021799,2.285));
#1273=CARTESIAN_POINT('',(2.95981790361778,2.18826859021799,2.285));
#1274=CARTESIAN_POINT('',(2.44020266134712,2.48826859021798,0.0));
#1275=CARTESIAN_POINT('',(2.44020266134712,2.18826859021799,0.0));
#1276=CARTESIAN_POINT('',(2.95981790361778,2.18826859021798,0.0));
#1277=CARTESIAN_POINT('',(2.95981790361778,2.48826859021798,0.0));
#1278=CARTESIAN_POINT('',(2.95981790361778,2.48826859021798,0.0));
#1279=CARTESIAN_POINT('',(2.95981790361778,2.48826859021798,2.285));
#1280=CARTESIAN_POINT('',(2.95981790361778,2.48826859021798,0.0));
#1281=CARTESIAN_POINT('',(2.70001028248245,2.63826859021798,0.0));
#1282=CARTESIAN_POINT('',(2.70001028248245,2.63826859021798,2.735));
#1283=CARTESIAN_POINT('',(2.44020266134712,2.48826859021798,2.735));
#1284=CARTESIAN_POINT('',(2.44020266134712,2.48826859021798,2.735));
#1285=CARTESIAN_POINT('',(2.44020266134712,2.48826859021798,0.0));
#1286=CARTESIAN_POINT('',(2.70001028248245,2.63826859021798,0.0));
#1287=CARTESIAN_POINT('',(2.44020266134712,2.48826859021798,0.0));
#1288=CARTESIAN_POINT('',(2.44020266134712,2.48826859021798,2.735));
#1289=CARTESIAN_POINT('',(2.44020266134712,2.18826859021799,2.735));
#1290=CARTESIAN_POINT('',(2.44020266134712,2.18826859021799,0.0));
#1291=CARTESIAN_POINT('',(2.70001028248245,2.03826859021799,0.0));
#1292=CARTESIAN_POINT('',(2.70001028248245,2.03826859021799,0.0));
#1293=CARTESIAN_POINT('',(2.95981790361778,2.18826859021798,0.0));
#1294=CARTESIAN_POINT('',(2.95981790361778,2.18826859021799,2.285));
#1295=CARTESIAN_POINT('',(2.95981790361778,2.18826859021798,0.0));
#1296=CARTESIAN_POINT('',(7.84020266134712,2.48826859021798,0.0));
#1297=CARTESIAN_POINT('',(7.84020266134712,2.18826859021799,0.0));
#1298=CARTESIAN_POINT('',(8.35981790361778,2.18826859021798,0.0));
#1299=CARTESIAN_POINT('',(8.35981790361778,2.48826859021798,0.0));
#1300=CARTESIAN_POINT('',(8.35981790361778,2.48826859021798,0.0));
#1301=CARTESIAN_POINT('',(8.35981790361778,2.48826859021798,2.285));
#1302=CARTESIAN_POINT('',(8.35981790361778,2.48826859021798,0.0));
#1303=CARTESIAN_POINT('',(8.10001028248245,2.63826859021799,0.0));
#1304=CARTESIAN_POINT('',(8.10001028248245,2.63826859021799,0.0));
#1305=CARTESIAN_POINT('',(7.84020266134712,2.48826859021798,0.0));
#1306=CARTESIAN_POINT('',(7.84020266134712,2.18826859021799,0.0));
#1307=CARTESIAN_POINT('',(8.10001028248245,2.03826859021799,0.0));
#1308=CARTESIAN_POINT('',(8.10001028248245,2.03826859021799,2.735));
#1309=CARTESIAN_POINT('',(8.35981790361778,2.18826859021798,2.735));
#1310=CARTESIAN_POINT('',(8.10001028248245,2.03826859021799,0.0));
#1311=CARTESIAN_POINT('',(8.35981790361778,2.18826859021798,0.0));
#1312=CARTESIAN_POINT('',(7.84020266134712,2.48826859021799,2.285));
#1313=CARTESIAN_POINT('',(7.84020266134712,2.48826859021798,0.0));
#1314=CARTESIAN_POINT('',(7.84020266134712,2.18826859021799,2.285));
#1315=CARTESIAN_POINT('',(7.84020266134712,2.18826859021799,0.0));
#1316=CARTESIAN_POINT('',(8.35981790361778,2.18826859021799,2.285));
#1317=CARTESIAN_POINT('',(8.35981790361778,2.18826859021798,0.0));
#1318=CARTESIAN_POINT('',(2.70001028248245,2.63826859021798,2.285));
#1319=CARTESIAN_POINT('',(2.70001028248245,2.63826859021798,0.0));
#1320=CARTESIAN_POINT('',(8.10001028248245,2.63826859021798,2.285));
#1321=CARTESIAN_POINT('',(8.10001028248245,2.63826859021799,0.0));
#1322=CARTESIAN_POINT('',(8.10001028248245,2.03826859021798,2.285));
#1323=CARTESIAN_POINT('',(8.10001028248245,2.03826859021799,0.0));
#1324=CARTESIAN_POINT('',(2.70001028248245,2.03826859021799,2.285));
#1325=CARTESIAN_POINT('',(2.70001028248245,2.03826859021799,0.0));
#1326=CARTESIAN_POINT('',(2.44020266134712,2.18826859021799,2.285));
#1327=CARTESIAN_POINT('',(2.44020266134712,2.18826859021799,0.0));
#1328=CARTESIAN_POINT('',(2.70001028248245,2.03826859021799,2.735));
#1329=CARTESIAN_POINT('',(2.307743331155,1.35884230038869,2.735));
#1330=CARTESIAN_POINT('',(1.91548238179038,0.679426406263964,2.735));
#1331=CARTESIAN_POINT('',(1.52321536323934,1.33226762955019E-15,2.735));
#1332=CARTESIAN_POINT('',(2.44020266134712,2.18826859021799,2.735));
#1333=CARTESIAN_POINT('',(2.01906823597976,1.45884236866541,2.735));
#1334=CARTESIAN_POINT('',(1.59794072846573,0.729428129186258,2.735));
#1335=CARTESIAN_POINT('',(1.17680520172556,8.88178419700125E-16,2.735));
#1336=CARTESIAN_POINT('',(8.10001028248245,2.03826859021799,2.735));
#1337=CARTESIAN_POINT('',(7.707743331155,1.35884230038869,2.735));
#1338=CARTESIAN_POINT('',(7.31548238179037,0.679426406263963,2.735));
#1339=CARTESIAN_POINT('',(6.92321536323933,4.44089209850063E-16,2.735));
#1340=CARTESIAN_POINT('',(7.84020266134712,2.18826859021799,2.735));
#1341=CARTESIAN_POINT('',(7.41906823597976,1.45884236866541,2.735));
#1342=CARTESIAN_POINT('',(6.99794072846573,0.729428129186257,2.735));
#1343=CARTESIAN_POINT('',(6.57680520172556,4.44089209850063E-16,2.735));
#1344=CARTESIAN_POINT('',(8.10001028248245,2.63826859021799,2.735));
#1345=CARTESIAN_POINT('',(8.4922772338099,3.31769488004728,2.735));
#1346=CARTESIAN_POINT('',(8.88453818317452,3.99711077417201,2.735));
#1347=CARTESIAN_POINT('',(9.27680520172556,4.67653718043597,2.735));
#1348=CARTESIAN_POINT('',(8.35981790361778,2.48826859021798,2.735));
#1349=CARTESIAN_POINT('',(8.78095232898513,3.21769481177056,2.735));
#1350=CARTESIAN_POINT('',(9.20207983649917,3.94710905124971,2.735));
#1351=CARTESIAN_POINT('',(9.62321536323934,4.67653718043597,2.735));
#1352=CARTESIAN_POINT('',(2.70001028248245,2.63826859021798,2.735));
#1353=CARTESIAN_POINT('',(3.0922772338099,3.31769488004728,2.735));
#1354=CARTESIAN_POINT('',(3.48453818317452,3.99711077417201,2.735));
#1355=CARTESIAN_POINT('',(3.87680520172556,4.67653718043597,2.735));
#1356=CARTESIAN_POINT('',(2.95981790361778,2.48826859021798,2.735));
#1357=CARTESIAN_POINT('',(3.38095232898513,3.21769481177056,2.735));
#1358=CARTESIAN_POINT('',(3.80207983649917,3.94710905124972,2.735));
#1359=CARTESIAN_POINT('',(4.22321536323934,4.67653718043597,2.735));
#1360=CARTESIAN_POINT('',(8.35981790361778,2.48826859021798,2.735));
#1361=CARTESIAN_POINT('',(8.7520831046115,2.48826859021798,2.735));
#1362=CARTESIAN_POINT('',(9.14434712267118,2.48826859021798,2.735));
#1363=CARTESIAN_POINT('',(9.53661282286089,2.48826859021798,2.735));
#1364=CARTESIAN_POINT('',(8.35981790361778,2.18826859021798,2.735));
#1365=CARTESIAN_POINT('',(8.69434811777102,2.18826859021798,2.735));
#1366=CARTESIAN_POINT('',(9.0288774715812,2.18826859021798,2.735));
#1367=CARTESIAN_POINT('',(9.36340774210401,2.18826859021798,2.735));
#1368=CARTESIAN_POINT('',(7.84020266134712,2.18826859021799,2.735));
#1369=CARTESIAN_POINT('',(6.21340774210401,2.18826859021799,2.735));
#1370=CARTESIAN_POINT('',(4.58661282286089,2.18826859021799,2.735));
#1371=CARTESIAN_POINT('',(2.95981790361778,2.18826859021798,2.735));
#1372=CARTESIAN_POINT('',(7.84020266134712,2.48826859021798,2.735));
#1373=CARTESIAN_POINT('',(6.21340774210401,2.48826859021798,2.735));
#1374=CARTESIAN_POINT('',(4.58661282286089,2.48826859021798,2.735));
#1375=CARTESIAN_POINT('',(2.95981790361778,2.48826859021798,2.735));
#1376=CARTESIAN_POINT('',(6.92321536323933,4.44089209850063E-16,2.735));
#1377=CARTESIAN_POINT('',(8.10001028248245,4.44089209850063E-16,2.735));
#1378=CARTESIAN_POINT('',(6.92321536323933,4.44089209850063E-16,2.735));
#1379=CARTESIAN_POINT('',(6.57680520172556,4.44089209850063E-16,2.735));
#1380=CARTESIAN_POINT('',(4.22321536323934,8.88178419700125E-16,2.735));
#1381=CARTESIAN_POINT('',(6.57680520172556,4.44089209850063E-16,2.735));
#1382=CARTESIAN_POINT('',(4.22321536323934,8.88178419700125E-16,2.735));
#1383=CARTESIAN_POINT('',(3.87680520172556,8.88178419700125E-16,2.735));
#1384=CARTESIAN_POINT('',(1.52321536323934,1.33226762955019E-15,2.735));
#1385=CARTESIAN_POINT('',(3.87680520172556,8.88178419700125E-16,2.735));
#1386=CARTESIAN_POINT('',(1.52321536323934,1.33226762955019E-15,2.735));
#1387=CARTESIAN_POINT('',(1.17680520172556,8.88178419700125E-16,2.735));
#1388=CARTESIAN_POINT('',(9.53661282286089,2.48826859021798,2.735));
#1389=CARTESIAN_POINT('',(10.8000102824825,4.67653718043597,2.735));
#1390=CARTESIAN_POINT('',(9.53661282286089,2.48826859021798,2.735));
#1391=CARTESIAN_POINT('',(9.45001028248245,2.33826859021798,2.735));
#1392=CARTESIAN_POINT('',(9.36340774210401,2.18826859021798,2.735));
#1393=CARTESIAN_POINT('',(3.87680520172556,4.67653718043597,2.735));
#1394=CARTESIAN_POINT('',(2.7,4.67653718043597,2.735));
#1395=CARTESIAN_POINT('',(3.87680520172556,4.67653718043597,2.735));
#1396=CARTESIAN_POINT('',(4.22321536323934,4.67653718043597,2.735));
#1397=CARTESIAN_POINT('',(6.57680520172556,4.67653718043597,2.735));
#1398=CARTESIAN_POINT('',(4.22321536323934,4.67653718043597,2.735));
#1399=CARTESIAN_POINT('',(6.57680520172556,4.67653718043597,2.735));
#1400=CARTESIAN_POINT('',(6.92321536323934,4.67653718043597,2.735));
#1401=CARTESIAN_POINT('',(9.27680520172556,4.67653718043597,2.735));
#1402=CARTESIAN_POINT('',(6.92321536323934,4.67653718043597,2.735));
#1403=CARTESIAN_POINT('',(9.27680520172556,4.67653718043597,2.735));
#1404=CARTESIAN_POINT('',(9.62321536323934,4.67653718043597,2.735));
#1405=CARTESIAN_POINT('',(0.0,0.0,0.0));
ENDSEC;
END-ISO-10303-21;
