<?xml version="1.0" encoding="utf-8" standalone="no"?>
<!DOCTYPE svg PUBLIC "-//W3C//DTD SVG 1.1//EN" "http://www.w3.org/Graphics/SVG/1.1/DTD/svg11.dtd">
<svg version="1.1" width="419.52pt" height="595.2pt" viewBox="0 0 419.52 595.2" overflow="visible" xmlns="http://www.w3.org/2000/svg">
  <path d="M231.3026,290.5482 L230.9122,291.6618" stroke="#000000" stroke-width="0.24" fill="none" />
  <path d="M221.0838,244.5814 L220.9506,246.8591 L221.9604,250.6778 L223.4497,255.7915" stroke="#000000" stroke-width="0.24" fill="none" />
  <path d="M229.5261,247.7119 L228.9899,248.5602 L231.0334,254.4705" stroke="#000000" stroke-width="0.24" fill="none" />
  <path d="M223.9994,234.3599 L222.2897,239.1081 L222.8098,237.8296" stroke="#000000" stroke-width="0.24" fill="none" />
  <path d="M223.9994,234.3599 L223.6478,235.6979 L222.2897,239.1081" stroke="#000000" stroke-width="0.24" fill="none" />
  <path d="M222.8098,237.8296 L223.1283,236.7792" stroke="#000000" stroke-width="0.24" fill="none" />
  <path d="M230.9298,291.6704 L232.5753,290.3075 L234.1192,288.6826 L235.8131,286.3678" stroke="#000000" stroke-width="0.24" fill="none" />
  <path d="M226.2516,296.3693 L225.8799,296.9247" stroke="#000000" stroke-width="0.24" fill="none" />
  <path d="M216.7411,251.3526 L218.3768,252.3515" stroke="#000000" stroke-width="0.24" fill="none" />
  <path d="M216.7411,251.3526 L217.3988,251.8338" stroke="#000000" stroke-width="0.24" fill="none" />
  <path d="M235.4437,235.9485 L234.7982,237.6772 L233.9315,241.5529 L231.9519,245.0639 L228.836,248.4574" stroke="#000000" stroke-width="0.24" fill="none" />
  <path d="M257.1741,344.6748 L260.9612,348.051" stroke="#000000" stroke-width="0.24" fill="none" />
  <path d="M230.2521,233.5959 L225.9702,232.3025 L224.6253,231.3834" stroke="#000000" stroke-width="0.24" fill="none" />
  <path d="M233.4269,279.1842 L233.1419,283.2327 L232.8681,285.957" stroke="#000000" stroke-width="0.24" fill="none" />
  <path d="M227.4122,305.9208 L226.9745,308.6493 L226.7321,309.4955" stroke="#000000" stroke-width="0.24" fill="none" />
  <path d="M217.8049,332.7276 L218.6219,335.0021 L219.5447,337.6078 L220.8905,341.7129 L221.5619,345.2695 L221.9847,348.1517 L222.6492,351.8235 L224.0269,357.5834" stroke="#000000" stroke-width="0.24" fill="none" />
  <path d="M224.2899,333.6953 L217.6985,331.0085 L212.2923,330.99" stroke="#000000" stroke-width="0.24" fill="none" />
  <path d="M225.3282,295.0369 L226.3965,297.4641 L226.8873,300.5231 L227.4122,305.9208" stroke="#000000" stroke-width="0.24" fill="none" />
  <path d="M265.1055,352.7361 L259.9798,347.1387" stroke="#000000" stroke-width="0.24" fill="none" />
  <path d="M151.359,274.6293 L152.0412,271.5387" stroke="#000000" stroke-width="0.24" fill="none" />
  <path d="M160.7249,303.3981 L162.6699,307.6836 L165.6736,312.5461" stroke="#000000" stroke-width="0.24" fill="none" />
  <path d="M231.3985,290.4226 L230.809,292.6627" stroke="#000000" stroke-width="0.24" fill="none" />
  <path d="M231.9626,284.7894 L232.6938,281.8638 L233.2948,277.3653 L233.4171,272.4352 L233.2752,270.1895 L232.9261,268.0069 L231.9757,264.7544 L230.4666,262.5496 L227.9429,259.8506 L223.3571,255.7078 L220.8748,253.5488 L219.9263,252.8805 L217.6364,251.8502 L214.2678,250.7242" stroke="#000000" stroke-width="0.24" fill="none" />
  <path d="M175.4217,231.3733 L175.5645,229.9644 L176.9701,228.6377 L177.7935,228.228 L179.344,227.6563 L182.0762,226.8905 L185.0406,226.7711 L190.0304,226.7339 L193.7807,227.0982 L197.8258,227.6491" stroke="#000000" stroke-width="0.24" fill="none" />
  <path d="M159.014,247.9689 L158.9881,247.3332 L159.4126,243.4246 L159.809,241.1639 L160.8977,239.3 L161.1544,238.3554 L161.5995,236.9075" stroke="#000000" stroke-width="0.24" fill="none" />
  <path d="M161.4376,239.8855 L161.5996,236.9075" stroke="#000000" stroke-width="0.24" fill="none" />
  <path d="M161.4869,241.4162 L161.4362,238.225 L161.5898,234.9768" stroke="#000000" stroke-width="0.24" fill="none" />
  <path d="M217.4785,331.0078 L218.1761,334.701" stroke="#000000" stroke-width="0.24" fill="none" />
  <path d="M203.197,332.1216 L204.6042,332.6514" stroke="#000000" stroke-width="0.24" fill="none" />
  <path d="M154.5555,290.9857 L154.2068,290.2428" stroke="#000000" stroke-width="0.24" fill="none" />
  <path d="M160.97,303.6579 L158.6023,300.8971 L156.4112,297.473 L154.9684,293.6322 L154.3347,290.443" stroke="#000000" stroke-width="0.24" fill="none" />
  <path d="M178.0044,285.7284 L176.7681,281.7147" stroke="#000000" stroke-width="0.24" fill="none" />
  <path d="M220.6449,332.0513 L227.61,336.2966" stroke="#000000" stroke-width="0.24" fill="none" />
  <path d="M176.3214,274.6942 L176.5889,277.1194" stroke="#000000" stroke-width="0.24" fill="none" />
  <path d="M204.2545,332.2809 L199.7664,331.6298" stroke="#000000" stroke-width="0.24" fill="none" />
  <path d="M176.594,277.0853 L175.9048,272.8503" stroke="#000000" stroke-width="0.24" fill="none" />
  <path d="M176.6029,270.3135 L177.0902,268.5429" stroke="#000000" stroke-width="0.24" fill="none" />
  <path d="M183.2637,319.239 L181.0921,315.1787 L179.9471,313.0005 L181.1022,315.1733" stroke="#000000" stroke-width="0.24" fill="none" />
  <path d="M151.4538,279.7563 L151.7811,277.8307" stroke="#000000" stroke-width="0.24" fill="none" />
  <path d="M154.5555,290.9857 L153.588,289.6155 L152.2338,286.3727 L151.3286,282.6227 L151.4537,279.7562" stroke="#000000" stroke-width="0.24" fill="none" />
  <path d="M152.1251,270.1221 L151.7834,272.7065" stroke="#000000" stroke-width="0.24" fill="none" />
  <path d="M174.2672,270.9197 L175.2673,265.7898" stroke="#000000" stroke-width="0.24" fill="none" />
  <path d="M175.3878,260.5216 L174.8785,267.8207" stroke="#000000" stroke-width="0.24" fill="none" />
  <path d="M163.4039,308.0332 L165.9814,313.5516 L168.3532,316.3363 L171.7454,318.7389" stroke="#000000" stroke-width="0.24" fill="none" />
  <path d="M154.2371,257.2643 L153.0832,259.1859" stroke="#000000" stroke-width="0.24" fill="none" />
  <path d="M183.2637,319.239 L186.4782,324.3267 L187.7085,326.3994 L189.2915,328.3811" stroke="#000000" stroke-width="0.24" fill="none" />
  <path d="M177.92,244.8019 L177.447,250.9071" stroke="#000000" stroke-width="0.24" fill="none" />
  <path d="M179.9471,313.0005 L178.519,309.5809 L177.2081,305.5686 L175.3693,299.398" stroke="#000000" stroke-width="0.24" fill="none" />
  <path d="M208.7128,346.0421 L207.2582,340.7389 L206.3845,337.7538 L204.5264,332.3203" stroke="#000000" stroke-width="0.24" fill="none" />
  <path d="M213.4295,358.995 L213.9734,361.0081 L216.1922,364.0031" stroke="#000000" stroke-width="0.24" fill="none" />
  <path d="M161.2922,246.5052 L157.6253,248.8611 L156.0421,250.8705" stroke="#000000" stroke-width="0.24" fill="none" />
  <path d="M177.1754,240.6546 L176.433,237.6741 L176.3392,237.2935" stroke="#000000" stroke-width="0.24" fill="none" />
  <path d="M176.9072,235.9595 L176.2773,233.8228 L175.6731,231.5834" stroke="#000000" stroke-width="0.24" fill="none" />
  <path d="M206.056,335.78 L204.272,332.2834" stroke="#000000" stroke-width="0.24" fill="none" />
  <path d="M176.433,237.6741 L175.5602,233.1813 L175.5006,232.403" stroke="#000000" stroke-width="0.24" fill="none" />
  <path d="M209.2413,349.0442 L210.9795,351.666" stroke="#000000" stroke-width="0.24" fill="none" />
  <path d="M209.2413,349.0442 L208.6453,346.0556" stroke="#000000" stroke-width="0.24" fill="none" />
  <path d="M175.3693,299.398 L175.6355,295.6043 L177.0925,293.1412 L178.6748,291.621 L182.0113,289.6284 L186.3917,287.8759 L188.3017,287.4401" stroke="#000000" stroke-width="0.24" fill="none" />
  <path d="M209.0846,348.261 L210.2784,351.7481 L211.1194,354.4048 L212.5896,357.6987 L214.3128,360.3582" stroke="#000000" stroke-width="0.24" fill="none" />
  <path d="M206.4903,249.0893 L206.9726,249.1818" stroke="#000000" stroke-width="0.24" fill="none" />
  <path d="M217.7872,252.118 L214.2678,250.7243" stroke="#000000" stroke-width="0.24" fill="none" />
  <path d="M211.3316,227.0793 L216.2334,227.1154 L219.2091,227.1936" stroke="#000000" stroke-width="0.24" fill="none" />
  <path d="M233.3533,275.0078 L233.3883,275.319" stroke="#000000" stroke-width="0.24" fill="none" />
  <path d="M230.6844,253.4609 L233.4129,259.1281 L236.3026,266.4205 L237.8874,271.1139 L238.1929,274.3351 L238.1402,278.6999 L237.1672,283.2265" stroke="#000000" stroke-width="0.24" fill="none" />
  <path d="M231.3985,290.4226 L230.9342,291.6789" stroke="#000000" stroke-width="0.24" fill="none" />
  <path d="M226.436,297.7104 L226.6198,297.218" stroke="#000000" stroke-width="0.24" fill="none" />
  <path d="M224.6386,231.3925 L224.9154,230.2054 L224.6262,229.3048 L224.2042,228.6829 L223.6098,228.0177" stroke="#000000" stroke-width="0.24" fill="none" />
  <path d="M224.3225,231.9157 L224.2247,232.6554" stroke="#000000" stroke-width="0.24" fill="none" />
  <path d="M226.955,301.2215 L227.4594,300.3967 L229.8474,296.2574" stroke="#000000" stroke-width="0.24" fill="none" />
  <path d="M162.4733,233.9725 L163.1773,233.6883 L165.9749,232.6081" stroke="#000000" stroke-width="0.24" fill="none" />
  <path d="M205.0134,227.7096 L211.0937,227.1279 L211.3316,227.0793" stroke="#000000" stroke-width="0.24" fill="none" />
  <path d="M151.5608,279.1265 L151.4124,278.5844" stroke="#000000" stroke-width="0.24" fill="none" />
  <path d="M151.123,275.5648 L151.359,274.6293" stroke="#000000" stroke-width="0.24" fill="none" />
  <path d="M215.7413,363.3944 L216.0794,364.1333 L218.1989,366.6242 L221.2939,368.4662 L224.7854,368.2159 L226.4267,367.0748 L227.4151,365.0371 L227.2189,361.2197 L225.379,357.3207 L223.3292,354.6665" stroke="#000000" stroke-width="0.24" fill="none" />
  <path d="M207.2033,340.8612 L207.6554,342.3274" stroke="#000000" stroke-width="0.24" fill="none" />
  <path d="M232.0726,287.8612 L231.7062,289.2533" stroke="#000000" stroke-width="0.24" fill="none" />
  <path d="M159.1656,247.8715 L159.4126,243.4246" stroke="#000000" stroke-width="0.24" fill="none" />
  <path d="M223.4633,355.2268 L225.5412,358.7003" stroke="#000000" stroke-width="0.24" fill="none" />
  <path d="M226.9745,308.6493 L226.0249,315.2363" stroke="#000000" stroke-width="0.24" fill="none" />
  <path d="M155.537,292.324 L154.3347,290.443" stroke="#000000" stroke-width="0.24" fill="none" />
  <path d="M176.3714,275.7173 L176.3214,274.6942" stroke="#000000" stroke-width="0.24" fill="none" />
  <path d="M176.672,270.0625 L176.6192,270.3578" stroke="#000000" stroke-width="0.24" fill="none" />
  <path d="M152.129,270.4685 L152.1251,270.1221" stroke="#000000" stroke-width="0.24" fill="none" />
  <path d="M152.6282,268.4462 L152.1312,270.4657" stroke="#000000" stroke-width="0.24" fill="none" />
  <path d="M152.366,261.4644 L153.0832,259.1859" stroke="#000000" stroke-width="0.24" fill="none" />
  <path d="M175.3878,260.5216 L176.4829,255.1262 L177.447,250.9071" stroke="#000000" stroke-width="0.24" fill="none" />
  <path d="M226.3168,335.5084 L226.7487,335.8961 L233.4221,339.9342 L241.0758,343.9475 L246.718,346.2042 L254.6385,349.6432 L260.0349,352.9204 L263.4878,355.5012 L265.4295,356.3208 L266.9312,356.424 L267.4735,356.249 L268.243,353.3517 L268.397,349.702 L267.3958,344.3807 L265.4971,339.0851 L263.4319,336.1024 L260.7998,333.4568 L256.6312,330.0523 L252.4297,327.8711 L248.5194,326.7525 L242.4987,325.4105 L237.6589,323.9005 L231.9075,321.8353 L229.1349,320.9746" stroke="#000000" stroke-width="0.24" fill="none" />
  <path d="M177.779,246.6221 L177.701,245.4902" stroke="#000000" stroke-width="0.24" fill="none" />
  <path d="M197.8259,227.6491 L190.6674,227.0675" stroke="#000000" stroke-width="0.24" fill="none" />
  <path d="M219.2091,227.1936 L220.2188,227.4217 L223.6098,228.0177" stroke="#000000" stroke-width="0.24" fill="none" />
  <path d="M237.1672,283.2265 L236.2608,285.1776 L235.8131,286.3678" stroke="#000000" stroke-width="0.24" fill="none" />
  <path d="M226.6198,297.218 L226.459,297.9073" stroke="#000000" stroke-width="0.24" fill="none" />
  <path d="M232.8681,285.957 L231.9506,288.9286 L231.7091,289.5822" stroke="#000000" stroke-width="0.24" fill="none" />
  <path d="M221.6638,243.2646 L221.0547,244.9431" stroke="#000000" stroke-width="0.24" fill="none" />
  <path d="M230.2521,233.5959 L224.4991,231.9913" stroke="#000000" stroke-width="0.24" fill="none" />
  <path d="M233.4269,279.1842 L233.3883,275.319" stroke="#000000" stroke-width="0.24" fill="none" />
  <path d="M175.3348,233.2155 L175.46,232.4095" stroke="#000000" stroke-width="0.24" fill="none" />
  <path d="M265.1055,352.7361 L260.9612,348.051" stroke="#000000" stroke-width="0.24" fill="none" />
  <path d="M235.4437,235.9485 L234.7911,234.4286 L234.2935,234.0395 L230.3589,232.9435 L225.6926,232.1205" stroke="#000000" stroke-width="0.24" fill="none" />
  <path d="M226.0248,315.2363 L226.4299,319.1835 L229.1746,320.9116" stroke="#000000" stroke-width="0.24" fill="none" />
  <path d="M151.123,275.5648 L151.2783,278.7875 L151.502,279.4726" stroke="#000000" stroke-width="0.24" fill="none" />
  <path d="M230.809,292.6627 L229.8474,296.2574" stroke="#000000" stroke-width="0.24" fill="none" />
  <path d="M161.5898,234.9768 L162.4733,233.9725" stroke="#000000" stroke-width="0.24" fill="none" />
  <path d="M179.9834,322.6295 L175.3019,320.9995 L171.7454,318.7389" stroke="#000000" stroke-width="0.24" fill="none" />
  <path d="M188.7893,285.4625 L188.0656,287.494" stroke="#000000" stroke-width="0.24" fill="none" />
  <path d="M188.7893,285.4625 L188.343,287.4308" stroke="#000000" stroke-width="0.24" fill="none" />
  <path d="M176.7836,284.9385 L178.7035,291.6039" stroke="#000000" stroke-width="0.24" fill="none" />
  <path d="M176.7836,284.9384 L177.916,289.3841 L178.6776,291.6484" stroke="#000000" stroke-width="0.24" fill="none" />
  <path d="M185.0941,323.541 L180.1609,322.6095" stroke="#000000" stroke-width="0.24" fill="none" />
  <path d="M185.0942,323.5411 L186.0025,323.599" stroke="#000000" stroke-width="0.24" fill="none" />
  <path d="M220.6449,332.0513 L224.3246,333.7056" stroke="#000000" stroke-width="0.24" fill="none" />
  <path d="M175.3693,299.398 L175.3828,300.1911 L176.0479,301.6754" stroke="#000000" stroke-width="0.24" fill="none" />
  <path d="M199.7664,331.6298 L198.1837,331.2803 L194.5599,330.498 L189.2915,328.3811" stroke="#000000" stroke-width="0.24" fill="none" />
  <path d="M177.7193,264.2036 L177.3105,267.4134 L177.0519,268.5145" stroke="#000000" stroke-width="0.24" fill="none" />
  <path d="M158.3826,270.3987 L156.97,274.7804 L156.9756,275.4603" stroke="#000000" stroke-width="0.24" fill="none" />
  <path d="M158.3827,270.3987 L156.9756,275.4603" stroke="#000000" stroke-width="0.24" fill="none" />
  <path d="M152.1251,270.1221 L152.5682,268.4315 L153.0882,266.5768" stroke="#000000" stroke-width="0.24" fill="none" />
  <path d="M163.4039,308.0332 L165.6736,312.5461" stroke="#000000" stroke-width="0.24" fill="none" />
  <path d="M152.3659,261.4643 L151.9482,264.0019 L152.1121,266.4762 L151.3594,270.6535 L151.359,274.6293" stroke="#000000" stroke-width="0.24" fill="none" />
  <path d="M166.3313,313.2025 L169.1994,316.5406 L171.7454,318.7389" stroke="#000000" stroke-width="0.24" fill="none" />
  <path d="M154.072,256.1007 L153.6941,258.1685" stroke="#000000" stroke-width="0.24" fill="none" />
  <path d="M154.072,256.1007 L154.6715,253.7234 L154.8106,253.2414" stroke="#000000" stroke-width="0.24" fill="none" />
  <path d="M208.7129,346.0421 L208.1308,343.4763" stroke="#000000" stroke-width="0.24" fill="none" />
  <path d="M156.0421,250.8705 L154.7311,254.0901 L154.237,257.2643" stroke="#000000" stroke-width="0.24" fill="none" />
  <path d="M156.0422,250.8706 L154.8106,253.2414" stroke="#000000" stroke-width="0.24" fill="none" />
  <path d="M176.433,237.6742 L176.3736,237.3043" stroke="#000000" stroke-width="0.24" fill="none" />
  <path d="M206.056,335.78 L204.6101,332.3325" stroke="#000000" stroke-width="0.24" fill="none" />
  <path d="M175.6066,231.4652 L170.3821,231.9614 L165.9749,232.6081" stroke="#000000" stroke-width="0.24" fill="none" />
  <path d="M211.3316,227.0793 L203.021,227.7372 L190.6674,227.0675" stroke="#000000" stroke-width="0.24" fill="none" />
</svg>