<?xml version="1.0" encoding="utf-8" standalone="no"?>
<!DOCTYPE svg PUBLIC "-//W3C//DTD SVG 1.1//EN" "http://www.w3.org/Graphics/SVG/1.1/DTD/svg11.dtd">
<svg version="1.1" width="419.52pt" height="595.2pt" viewBox="0 0 419.52 595.2" overflow="visible" xmlns="http://www.w3.org/2000/svg">
  <path d="M208.1884,227.0793 L216.499,227.7372 L228.8526,227.0675" stroke="#000000" stroke-width="0.24" fill="none" />
  <path d="M188.2175,290.5482 L188.6078,291.6618" stroke="#000000" stroke-width="0.24" fill="none" />
  <path d="M198.4362,244.5814 L198.5694,246.8591 L197.5596,250.6778 L196.0703,255.7915" stroke="#000000" stroke-width="0.24" fill="none" />
  <path d="M189.9939,247.7119 L190.5301,248.5602 L188.4866,254.4705" stroke="#000000" stroke-width="0.24" fill="none" />
  <path d="M195.5206,234.3599 L197.2303,239.1081 L196.7102,237.8296" stroke="#000000" stroke-width="0.24" fill="none" />
  <path d="M195.5206,234.3599 L195.8722,235.6979 L197.2303,239.1081" stroke="#000000" stroke-width="0.24" fill="none" />
  <path d="M196.7102,237.8296 L196.3917,236.7792" stroke="#000000" stroke-width="0.24" fill="none" />
  <path d="M188.5902,291.6704 L186.9447,290.3075 L185.4008,288.6826 L183.7069,286.3678" stroke="#000000" stroke-width="0.24" fill="none" />
  <path d="M193.2684,296.3693 L193.6402,296.9247" stroke="#000000" stroke-width="0.24" fill="none" />
  <path d="M202.7789,251.3526 L201.1432,252.3515" stroke="#000000" stroke-width="0.24" fill="none" />
  <path d="M202.7789,251.3526 L202.1213,251.8338" stroke="#000000" stroke-width="0.24" fill="none" />
  <path d="M184.0763,235.9485 L184.7218,237.6772 L185.5885,241.5529 L187.5681,245.0639 L190.6839,248.4574" stroke="#000000" stroke-width="0.24" fill="none" />
  <path d="M162.346,344.6748 L158.5588,348.051" stroke="#000000" stroke-width="0.24" fill="none" />
  <path d="M189.2679,233.5959 L193.5498,232.3025 L194.8947,231.3834" stroke="#000000" stroke-width="0.24" fill="none" />
  <path d="M186.0931,279.1842 L186.3781,283.2327 L186.6519,285.957" stroke="#000000" stroke-width="0.24" fill="none" />
  <path d="M192.1078,305.9208 L192.5455,308.6493 L192.7879,309.4955" stroke="#000000" stroke-width="0.24" fill="none" />
  <path d="M201.7151,332.7276 L200.8981,335.0021 L199.9753,337.6078 L198.6295,341.7129 L197.9581,345.2695 L197.5353,348.1517 L196.8708,351.8235 L195.4931,357.5834" stroke="#000000" stroke-width="0.24" fill="none" />
  <path d="M195.2301,333.6953 L201.8214,331.0085 L207.2278,330.99" stroke="#000000" stroke-width="0.24" fill="none" />
  <path d="M194.1918,295.0369 L193.1236,297.4641 L192.6327,300.5231 L192.1078,305.9208" stroke="#000000" stroke-width="0.24" fill="none" />
  <path d="M154.4146,352.7361 L159.5403,347.1387" stroke="#000000" stroke-width="0.24" fill="none" />
  <path d="M268.161,274.6293 L267.4789,271.5387" stroke="#000000" stroke-width="0.24" fill="none" />
  <path d="M258.7951,303.3981 L256.8501,307.6836 L253.8464,312.5461" stroke="#000000" stroke-width="0.24" fill="none" />
  <path d="M188.1216,290.4226 L188.7111,292.6627" stroke="#000000" stroke-width="0.24" fill="none" />
  <path d="M187.5574,284.7894 L186.8262,281.8638 L186.2252,277.3653 L186.1029,272.4352 L186.2448,270.1895 L186.5939,268.0069 L187.5443,264.7544 L189.0535,262.5496 L191.5771,259.8506 L196.1629,255.7078 L198.6452,253.5488 L199.5937,252.8805 L201.8836,251.8502 L205.2522,250.7242" stroke="#000000" stroke-width="0.24" fill="none" />
  <path d="M244.0983,231.3733 L243.9555,229.9644 L242.5499,228.6377 L241.7265,228.228 L240.176,227.6563 L237.4438,226.8905 L234.4794,226.7711 L229.4896,226.7339 L225.7393,227.0982 L221.6942,227.6491" stroke="#000000" stroke-width="0.24" fill="none" />
  <path d="M260.506,247.9689 L260.5319,247.3332 L260.1075,243.4246 L259.711,241.1639 L258.6223,239.3 L258.3656,238.3554 L257.9205,236.9075" stroke="#000000" stroke-width="0.24" fill="none" />
  <path d="M258.0825,239.8855 L257.9205,236.9075" stroke="#000000" stroke-width="0.24" fill="none" />
  <path d="M258.0332,241.4162 L258.0839,238.225 L257.9302,234.9768" stroke="#000000" stroke-width="0.24" fill="none" />
  <path d="M202.0415,331.0078 L201.3439,334.701" stroke="#000000" stroke-width="0.24" fill="none" />
  <path d="M216.3231,332.1216 L214.9158,332.6514" stroke="#000000" stroke-width="0.24" fill="none" />
  <path d="M264.9646,290.9857 L265.3133,290.2428" stroke="#000000" stroke-width="0.24" fill="none" />
  <path d="M258.55,303.6579 L260.9177,300.8971 L263.1088,297.473 L264.5516,293.6322 L265.1853,290.443" stroke="#000000" stroke-width="0.24" fill="none" />
  <path d="M241.5156,285.7284 L242.752,281.7147" stroke="#000000" stroke-width="0.24" fill="none" />
  <path d="M198.8751,332.0513 L191.91,336.2966" stroke="#000000" stroke-width="0.24" fill="none" />
  <path d="M243.1986,274.6942 L242.9311,277.1194" stroke="#000000" stroke-width="0.24" fill="none" />
  <path d="M215.2655,332.2809 L219.7537,331.6298" stroke="#000000" stroke-width="0.24" fill="none" />
  <path d="M242.926,277.0853 L243.6152,272.8503" stroke="#000000" stroke-width="0.24" fill="none" />
  <path d="M242.9171,270.3135 L242.4299,268.5429" stroke="#000000" stroke-width="0.24" fill="none" />
  <path d="M236.2563,319.239 L238.4279,315.1787 L239.5729,313.0005 L238.4178,315.1733" stroke="#000000" stroke-width="0.24" fill="none" />
  <path d="M268.0663,279.7563 L267.739,277.8307" stroke="#000000" stroke-width="0.24" fill="none" />
  <path d="M264.9646,290.9857 L265.932,289.6155 L267.2862,286.3727 L268.1914,282.6227 L268.0663,279.7562" stroke="#000000" stroke-width="0.24" fill="none" />
  <path d="M267.395,270.1221 L267.7366,272.7065" stroke="#000000" stroke-width="0.24" fill="none" />
  <path d="M245.2528,270.9197 L244.2528,265.7898" stroke="#000000" stroke-width="0.24" fill="none" />
  <path d="M244.1322,260.5216 L244.6416,267.8207" stroke="#000000" stroke-width="0.24" fill="none" />
  <path d="M256.1161,308.0332 L253.5385,313.5516 L251.1668,316.3363 L247.7746,318.7389" stroke="#000000" stroke-width="0.24" fill="none" />
  <path d="M265.283,257.2643 L266.4368,259.1859" stroke="#000000" stroke-width="0.24" fill="none" />
  <path d="M236.2563,319.239 L233.0418,324.3267 L231.8116,326.3994 L230.2285,328.3811" stroke="#000000" stroke-width="0.24" fill="none" />
  <path d="M241.6,244.8019 L242.0731,250.9071" stroke="#000000" stroke-width="0.24" fill="none" />
  <path d="M239.5729,313.0005 L241.0011,309.5809 L242.3119,305.5686 L244.1507,299.398" stroke="#000000" stroke-width="0.24" fill="none" />
  <path d="M210.8072,346.0421 L212.2618,340.7389 L213.1355,337.7538 L214.9936,332.3203" stroke="#000000" stroke-width="0.24" fill="none" />
  <path d="M206.0905,358.995 L205.5466,361.0081 L203.3278,364.0031" stroke="#000000" stroke-width="0.24" fill="none" />
  <path d="M258.2278,246.5052 L261.8947,248.8611 L263.4779,250.8705" stroke="#000000" stroke-width="0.24" fill="none" />
  <path d="M242.3446,240.6546 L243.087,237.6741 L243.1808,237.2935" stroke="#000000" stroke-width="0.24" fill="none" />
  <path d="M242.6128,235.9595 L243.2427,233.8228 L243.8469,231.5834" stroke="#000000" stroke-width="0.24" fill="none" />
  <path d="M213.4641,335.78 L215.248,332.2834" stroke="#000000" stroke-width="0.24" fill="none" />
  <path d="M243.087,237.6741 L243.9598,233.1813 L244.0194,232.403" stroke="#000000" stroke-width="0.24" fill="none" />
  <path d="M210.2787,349.0442 L208.5405,351.666" stroke="#000000" stroke-width="0.24" fill="none" />
  <path d="M210.2787,349.0442 L210.8748,346.0556" stroke="#000000" stroke-width="0.24" fill="none" />
  <path d="M244.1507,299.398 L243.8845,295.6043 L242.4275,293.1412 L240.8452,291.621 L237.5087,289.6284 L233.1283,287.8759 L231.2183,287.4401" stroke="#000000" stroke-width="0.24" fill="none" />
  <path d="M210.4354,348.261 L209.2416,351.7481 L208.4006,354.4048 L206.9304,357.6987 L205.2072,360.3582" stroke="#000000" stroke-width="0.24" fill="none" />
  <path d="M213.0297,249.0893 L212.5474,249.1818" stroke="#000000" stroke-width="0.24" fill="none" />
  <path d="M201.7329,252.118 L205.2522,250.7243" stroke="#000000" stroke-width="0.24" fill="none" />
  <path d="M208.1884,227.0793 L203.2866,227.1154 L200.3109,227.1936" stroke="#000000" stroke-width="0.24" fill="none" />
  <path d="M186.1667,275.0078 L186.1318,275.319" stroke="#000000" stroke-width="0.24" fill="none" />
  <path d="M188.8356,253.4609 L186.1071,259.1281 L183.2174,266.4205 L181.6326,271.1139 L181.3271,274.3351 L181.3797,278.6999 L182.3528,283.2265" stroke="#000000" stroke-width="0.24" fill="none" />
  <path d="M188.1216,290.4226 L188.5859,291.6789" stroke="#000000" stroke-width="0.24" fill="none" />
  <path d="M193.0841,297.7104 L192.9002,297.218" stroke="#000000" stroke-width="0.24" fill="none" />
  <path d="M194.8814,231.3925 L194.6046,230.2054 L194.8938,229.3048 L195.3158,228.6829 L195.9102,228.0177" stroke="#000000" stroke-width="0.24" fill="none" />
  <path d="M195.1976,231.9157 L195.2953,232.6554" stroke="#000000" stroke-width="0.24" fill="none" />
  <path d="M192.565,301.2215 L192.0606,300.3967 L189.6726,296.2574" stroke="#000000" stroke-width="0.24" fill="none" />
  <path d="M257.0467,233.9725 L256.3427,233.6883 L253.5451,232.6081" stroke="#000000" stroke-width="0.24" fill="none" />
  <path d="M214.5066,227.7096 L208.4263,227.1279 L208.1884,227.0793" stroke="#000000" stroke-width="0.24" fill="none" />
  <path d="M267.9592,279.1265 L268.1076,278.5844" stroke="#000000" stroke-width="0.24" fill="none" />
  <path d="M268.3971,275.5648 L268.161,274.6293" stroke="#000000" stroke-width="0.24" fill="none" />
  <path d="M203.7787,363.3944 L203.4406,364.1333 L201.3211,366.6242 L198.2262,368.4662 L194.7346,368.2159 L193.0933,367.0748 L192.1049,365.0371 L192.3011,361.2197 L194.1409,357.3207 L196.1908,354.6665" stroke="#000000" stroke-width="0.24" fill="none" />
  <path d="M212.3167,340.8612 L211.8646,342.3274" stroke="#000000" stroke-width="0.24" fill="none" />
  <path d="M187.4475,287.8612 L187.8138,289.2533" stroke="#000000" stroke-width="0.24" fill="none" />
  <path d="M260.3544,247.8715 L260.1075,243.4246" stroke="#000000" stroke-width="0.24" fill="none" />
  <path d="M196.0568,355.2268 L193.9789,358.7003" stroke="#000000" stroke-width="0.24" fill="none" />
  <path d="M192.5455,308.6493 L193.4952,315.2363" stroke="#000000" stroke-width="0.24" fill="none" />
  <path d="M263.983,292.324 L265.1853,290.443" stroke="#000000" stroke-width="0.24" fill="none" />
  <path d="M243.1487,275.7173 L243.1986,274.6942" stroke="#000000" stroke-width="0.24" fill="none" />
  <path d="M242.8481,270.0625 L242.9008,270.3578" stroke="#000000" stroke-width="0.24" fill="none" />
  <path d="M267.3911,270.4685 L267.395,270.1221" stroke="#000000" stroke-width="0.24" fill="none" />
  <path d="M266.8919,268.4462 L267.3888,270.4657" stroke="#000000" stroke-width="0.24" fill="none" />
  <path d="M267.1541,261.4644 L266.4368,259.1859" stroke="#000000" stroke-width="0.24" fill="none" />
  <path d="M244.1322,260.5216 L243.0371,255.1262 L242.073,250.9071" stroke="#000000" stroke-width="0.24" fill="none" />
  <path d="M193.2032,335.5084 L192.7713,335.8961 L186.0979,339.9342 L178.4442,343.9475 L172.802,346.2042 L164.8815,349.6432 L159.4851,352.9204 L156.0322,355.5012 L154.0905,356.3208 L152.5888,356.424 L152.0465,356.249 L151.2771,353.3517 L151.123,349.702 L152.1242,344.3807 L154.0229,339.0851 L156.0881,336.1024 L158.7202,333.4568 L162.8888,330.0523 L167.0903,327.8711 L171.0006,326.7525 L177.0213,325.4105 L181.8611,323.9005 L187.6125,321.8353 L190.385,320.9746" stroke="#000000" stroke-width="0.24" fill="none" />
  <path d="M241.741,246.6221 L241.819,245.4902" stroke="#000000" stroke-width="0.24" fill="none" />
  <path d="M221.6942,227.6491 L228.8526,227.0675" stroke="#000000" stroke-width="0.24" fill="none" />
  <path d="M200.3109,227.1936 L199.3012,227.4217 L195.9102,228.0177" stroke="#000000" stroke-width="0.24" fill="none" />
  <path d="M182.3528,283.2265 L183.2592,285.1776 L183.7069,286.3678" stroke="#000000" stroke-width="0.24" fill="none" />
  <path d="M192.9002,297.218 L193.061,297.9073" stroke="#000000" stroke-width="0.24" fill="none" />
  <path d="M186.6519,285.957 L187.5694,288.9286 L187.8109,289.5822" stroke="#000000" stroke-width="0.24" fill="none" />
  <path d="M197.8563,243.2646 L198.4653,244.9431" stroke="#000000" stroke-width="0.24" fill="none" />
  <path d="M189.2679,233.5959 L195.021,231.9913" stroke="#000000" stroke-width="0.24" fill="none" />
  <path d="M186.0932,279.1842 L186.1318,275.319" stroke="#000000" stroke-width="0.24" fill="none" />
  <path d="M244.1852,233.2155 L244.0601,232.4095" stroke="#000000" stroke-width="0.24" fill="none" />
  <path d="M154.4146,352.7361 L158.5588,348.051" stroke="#000000" stroke-width="0.24" fill="none" />
  <path d="M184.0763,235.9485 L184.7289,234.4286 L185.2265,234.0395 L189.1611,232.9435 L193.8274,232.1205" stroke="#000000" stroke-width="0.24" fill="none" />
  <path d="M193.4951,315.2363 L193.0901,319.1835 L190.3454,320.9116" stroke="#000000" stroke-width="0.24" fill="none" />
  <path d="M268.397,275.5648 L268.2417,278.7875 L268.018,279.4726" stroke="#000000" stroke-width="0.24" fill="none" />
  <path d="M188.7111,292.6627 L189.6726,296.2574" stroke="#000000" stroke-width="0.24" fill="none" />
  <path d="M257.9302,234.9768 L257.0467,233.9725" stroke="#000000" stroke-width="0.24" fill="none" />
  <path d="M239.5366,322.6295 L244.2181,320.9995 L247.7746,318.7389" stroke="#000000" stroke-width="0.24" fill="none" />
  <path d="M230.7308,285.4625 L231.4544,287.494" stroke="#000000" stroke-width="0.24" fill="none" />
  <path d="M230.7308,285.4625 L231.1771,287.4308" stroke="#000000" stroke-width="0.24" fill="none" />
  <path d="M242.7365,284.9385 L240.8166,291.6039" stroke="#000000" stroke-width="0.24" fill="none" />
  <path d="M242.7364,284.9384 L241.604,289.3841 L240.8424,291.6484" stroke="#000000" stroke-width="0.24" fill="none" />
  <path d="M234.4258,323.541 L239.3591,322.6095" stroke="#000000" stroke-width="0.24" fill="none" />
  <path d="M234.4259,323.5411 L233.5175,323.599" stroke="#000000" stroke-width="0.24" fill="none" />
  <path d="M198.8751,332.0513 L195.1954,333.7056" stroke="#000000" stroke-width="0.24" fill="none" />
  <path d="M244.1507,299.398 L244.1372,300.1911 L243.472,301.6754" stroke="#000000" stroke-width="0.24" fill="none" />
  <path d="M219.7536,331.6298 L221.3363,331.2803 L224.9601,330.498 L230.2285,328.3811" stroke="#000000" stroke-width="0.24" fill="none" />
  <path d="M241.8007,264.2036 L242.2095,267.4134 L242.4681,268.5145" stroke="#000000" stroke-width="0.24" fill="none" />
  <path d="M261.1374,270.3987 L262.55,274.7804 L262.5444,275.4603" stroke="#000000" stroke-width="0.24" fill="none" />
  <path d="M261.1374,270.3987 L262.5444,275.4603" stroke="#000000" stroke-width="0.24" fill="none" />
  <path d="M267.3949,270.1221 L266.9518,268.4315 L266.4319,266.5768" stroke="#000000" stroke-width="0.24" fill="none" />
  <path d="M256.1162,308.0332 L253.8465,312.5461" stroke="#000000" stroke-width="0.24" fill="none" />
  <path d="M267.1541,261.4643 L267.5718,264.0019 L267.4079,266.4762 L268.1606,270.6535 L268.161,274.6293" stroke="#000000" stroke-width="0.24" fill="none" />
  <path d="M253.1887,313.2025 L250.3206,316.5406 L247.7746,318.7389" stroke="#000000" stroke-width="0.24" fill="none" />
  <path d="M265.448,256.1007 L265.8259,258.1685" stroke="#000000" stroke-width="0.24" fill="none" />
  <path d="M265.448,256.1007 L264.8485,253.7234 L264.7094,253.2414" stroke="#000000" stroke-width="0.24" fill="none" />
  <path d="M210.8072,346.0421 L211.3892,343.4763" stroke="#000000" stroke-width="0.24" fill="none" />
  <path d="M263.4779,250.8705 L264.7889,254.0901 L265.283,257.2643" stroke="#000000" stroke-width="0.24" fill="none" />
  <path d="M263.4779,250.8706 L264.7094,253.2414" stroke="#000000" stroke-width="0.24" fill="none" />
  <path d="M243.0871,237.6742 L243.1464,237.3043" stroke="#000000" stroke-width="0.24" fill="none" />
  <path d="M213.4641,335.78 L214.9099,332.3325" stroke="#000000" stroke-width="0.24" fill="none" />
  <path d="M243.9134,231.4652 L249.1379,231.9614 L253.5451,232.6081" stroke="#000000" stroke-width="0.24" fill="none" />
</svg>