<?xml version="1.0" encoding="UTF-8" standalone="no"?>
<svg
   version="1.1"
   width="572.72919pt"
   height="401.16568pt"
   viewBox="0 0 572.71557 401.16567"
   id="svg41"
   sodipodi:docname="base_blob.svg"
   inkscape:version="1.3.2 (091e20e, 2023-11-25, custom)"
   xmlns:inkscape="http://www.inkscape.org/namespaces/inkscape"
   xmlns:sodipodi="http://sodipodi.sourceforge.net/DTD/sodipodi-0.dtd"
   xmlns="http://www.w3.org/2000/svg"
   xmlns:svg="http://www.w3.org/2000/svg">
  <sodipodi:namedview
     id="namedview41"
     pagecolor="#ffffff"
     bordercolor="#000000"
     borderopacity="0.25"
     inkscape:showpageshadow="2"
     inkscape:pageopacity="0.0"
     inkscape:pagecheckerboard="0"
     inkscape:deskcolor="#d1d1d1"
     inkscape:document-units="pt"
     inkscape:zoom="0.81620529"
     inkscape:cx="442.29069"
     inkscape:cy="259.73858"
     inkscape:window-width="1920"
     inkscape:window-height="1010"
     inkscape:window-x="-6"
     inkscape:window-y="1077"
     inkscape:window-maximized="1"
     inkscape:current-layer="svg41" />
  <defs
     id="defs1" />
  <g
     id="shaft"
     transform="translate(-89.376082,-102.7489)">
    <path
       d="M 154.2475,330.33023 V 294.69397"
       stroke="#000000"
       stroke-width="3.9685"
       stroke-linecap="round"
       stroke-linejoin="round"
       fill="none"
       id="path1" />
    <path
       d="M 235.75964,377.3913 V 341.75504"
       stroke="#000000"
       stroke-width="3.9685"
       stroke-linecap="round"
       stroke-linejoin="round"
       fill="none"
       id="path2" />
    <path
       d="M 243.3187,346.11926 V 377.3913"
       stroke="#000000"
       stroke-width="3.9685"
       stroke-linecap="round"
       stroke-linejoin="round"
       fill="none"
       id="path3" />
    <path
       d="M 315.93555,423.68085 V 388.04462"
       stroke="#000000"
       stroke-width="3.9685"
       stroke-linecap="round"
       stroke-linejoin="round"
       fill="none"
       id="path4" />
    <path
       d="m 323.4946,392.40884 v 31.27201"
       stroke="#000000"
       stroke-width="3.9685"
       stroke-linecap="round"
       stroke-linejoin="round"
       fill="none"
       id="path5" />
    <path
       d="M 397.44766,470.7419 V 435.10568"
       stroke="#000000"
       stroke-width="3.9685"
       stroke-linecap="round"
       stroke-linejoin="round"
       fill="none"
       id="path6" />
    <path
       d="m 405.00674,439.4699 v 31.272"
       stroke="#000000"
       stroke-width="3.9685"
       stroke-linecap="round"
       stroke-linejoin="round"
       fill="none"
       id="path7" />
    <path
       d="m 405.00674,470.7419 c -0.0401,0.6112 -0.37957,1.17897 -1.05938,1.55748 -1.35962,0.75705 -4.08066,0.75705 -5.44028,0 -0.67984,-0.37851 -1.01928,-0.94628 -1.05942,-1.55748"
       stroke="#000000"
       stroke-width="3.9685"
       stroke-linecap="round"
       stroke-linejoin="round"
       fill="none"
       id="path8" />
    <path
       d="m 323.4946,423.68085 c -0.0401,0.61117 -0.37958,1.17895 -1.05942,1.55749 -1.35962,0.75702 -4.08063,0.75702 -5.44028,0 -0.6798,-0.37854 -1.01928,-0.94632 -1.05935,-1.55749"
       stroke="#000000"
       stroke-width="3.9685"
       stroke-linecap="round"
       stroke-linejoin="round"
       fill="none"
       id="path9" />
    <path
       d="m 243.3187,377.3913 c -0.0401,0.61117 -0.37958,1.17892 -1.05938,1.55746 -1.35965,0.75702 -4.08067,0.75702 -5.44029,0 -0.67981,-0.37854 -1.01929,-0.94629 -1.05939,-1.55746"
       stroke="#000000"
       stroke-width="3.9685"
       stroke-linecap="round"
       stroke-linejoin="round"
       fill="none"
       id="path10" />
    <path
       d="m 161.80655,330.33023 c -0.0401,0.61117 -0.37956,1.17893 -1.05939,1.55747 -1.35963,0.75704 -4.08064,0.75704 -5.44028,0 -0.67982,-0.37854 -1.01928,-0.9463 -1.05938,-1.55747"
       stroke="#000000"
       stroke-width="3.9685"
       stroke-linecap="round"
       stroke-linejoin="round"
       fill="none"
       id="path11" />
    <path
       d="m 135.08125,314.90036 c -0.0401,0.61118 -0.37956,1.17894 -1.05938,1.5575 -1.35964,0.75701 -4.08065,0.75701 -5.44028,0 -0.67983,-0.37856 -1.01929,-0.94632 -1.0594,-1.5575"
       stroke="#000000"
       stroke-width="3.9685"
       stroke-linecap="round"
       stroke-linejoin="round"
       fill="none"
       id="path12" />
    <path
       d="m 421.1518,448.79126 c -0.44224,-0.25531 -0.84656,-0.63284 -1.21155,-1.19104 -3.39252,-5.18792 -3.39252,-25.98395 0,-41.66064 0.78961,-3.64893 1.76303,-7.02051 2.90683,-10.66562"
       stroke="#000000"
       stroke-width="3.9685"
       stroke-linecap="round"
       stroke-linejoin="round"
       fill="none"
       id="path13" />
    <path
       d="M 421.1518,448.79126 102.98411,265.09705"
       stroke="#000000"
       stroke-width="3.9685"
       stroke-linecap="round"
       stroke-linejoin="round"
       fill="none"
       id="path14" />
    <path
       d="m 517.0665,442.7464 c 5.08597,-6.6672 4.80966,-26.1879 -0.8289,-40.73483 -1.38006,-3.56047 -3.08135,-6.82294 -5.0803,-10.33982"
       stroke="#000000"
       stroke-width="3.9685"
       stroke-linecap="round"
       stroke-linejoin="round"
       fill="none"
       id="path15" />
    <path
       d="M 655.1839,261.6869 517.0665,442.7464"
       stroke="#000000"
       stroke-width="3.9685"
       stroke-linecap="round"
       stroke-linejoin="round"
       fill="none"
       id="path16" />
    <path
       d="m 511.1573,445.67624 -88.31022,3.60223"
       stroke="#000000"
       stroke-width="3.9685"
       stroke-linecap="round"
       stroke-linejoin="round"
       fill="none"
       id="path17" />
    <path
       d="M 108.23496,213.6326 422.84708,395.27396"
       stroke="#000000"
       stroke-width="3.9685"
       stroke-linecap="round"
       stroke-linejoin="round"
       fill="none"
       id="path18" />
    <path
       d="m 422.84708,395.27396 88.31022,-3.60221"
       stroke="#000000"
       stroke-width="3.9685"
       stroke-linecap="round"
       stroke-linejoin="round"
       fill="none"
       id="path19" />
    <path
       d="M 511.1573,391.67175 647.1374,213.41408"
       stroke="#000000"
       stroke-width="3.9685"
       stroke-linecap="round"
       stroke-linejoin="round"
       fill="none"
       id="path20" />
    <path
       d="M 191.35126,104.73315 108.23496,213.6326"
       stroke="#000000"
       stroke-width="3.9685"
       stroke-linecap="round"
       stroke-linejoin="round"
       fill="none"
       id="path21" />
    <path
       d="m 161.80655,299.05823 v 31.272"
       stroke="#000000"
       stroke-width="3.9685"
       stroke-linecap="round"
       stroke-linejoin="round"
       fill="none"
       id="path22" />
    <path
       d="m 620.96045,306.55075 v 18.5466"
       stroke="#000000"
       stroke-width="3.9685"
       stroke-linecap="round"
       stroke-linejoin="round"
       fill="none"
       id="path23" />
    <path
       d="M 554.33673,393.84973 V 412.4351"
       stroke="#000000"
       stroke-width="3.9685"
       stroke-linecap="round"
       stroke-linejoin="round"
       fill="none"
       id="path24" />
    <path
       d="m 487.71298,446.63257 v 53.14026"
       stroke="#000000"
       stroke-width="3.9685"
       stroke-linecap="round"
       stroke-linejoin="round"
       fill="none"
       id="path25" />
    <path
       d="m 102.98411,265.09705 c -1.36982,-0.79087 -2.62211,-1.65793 -3.75274,-2.65821 -9.994096,-8.84149 -10.482644,-28.08618 -1.46567,-39.90028"
       stroke="#000000"
       stroke-width="3.9685"
       stroke-linecap="round"
       stroke-linejoin="round"
       fill="none"
       id="path26" />
    <path
       d="m 183.30798,110.46059 a 18.673916,18.673916 0 0 1 8.04328,-5.72744"
       stroke="#000000"
       stroke-width="3.9685"
       stroke-linecap="round"
       stroke-linejoin="round"
       fill="none"
       id="path27" />
    <path
       d="m 97.7657,222.53856 a 38.277645,38.277645 0 0 1 10.46926,-8.90598"
       stroke="#000000"
       stroke-width="3.9685"
       stroke-linecap="round"
       stroke-linejoin="round"
       fill="none"
       id="path28" />
    <path
       d="M 97.7657,222.53856 183.30798,110.46059"
       stroke="#000000"
       stroke-width="3.9685"
       stroke-linecap="round"
       stroke-linejoin="round"
       fill="none"
       id="path29" />
    <path
       d="M 191.35126,104.73315 647.1374,213.41408"
       stroke="#000000"
       stroke-width="3.9685"
       stroke-linecap="round"
       stroke-linejoin="round"
       fill="none"
       id="path30" />
    <path
       d="m 511.1573,445.67624 a 7.801042,7.801042 0 0 0 5.9092,-2.92984"
       stroke="#000000"
       stroke-width="3.9685"
       stroke-linecap="round"
       stroke-linejoin="round"
       fill="none"
       id="path31" />
    <path
       d="m 422.84708,449.27847 a 4.082576,4.082576 0 0 1 -1.69526,-0.48721"
       stroke="#000000"
       stroke-width="3.9685"
       stroke-linecap="round"
       stroke-linejoin="round"
       fill="none"
       id="path32" />
    <path
       d="m 647.1374,213.41408 c 2.722,2.56907 5.03856,5.0249 6.9178,7.93098 7.67795,11.87344 8.0542,31.26314 1.1287,40.34184"
       stroke="#000000"
       stroke-width="3.9685"
       stroke-linecap="round"
       stroke-linejoin="round"
       fill="none"
       id="path33" />
    <path
       d="m 546.77765,412.4351 v -8.69792"
       stroke="#000000"
       stroke-width="3.9685"
       stroke-linecap="round"
       stroke-linejoin="round"
       fill="none"
       id="path34" />
    <path
       d="M 480.15393,499.77283 V 446.9409"
       stroke="#000000"
       stroke-width="3.9685"
       stroke-linecap="round"
       stroke-linejoin="round"
       fill="none"
       id="path35" />
    <path
       d="m 613.40137,325.09735 v -8.63733"
       stroke="#000000"
       stroke-width="3.9685"
       stroke-linecap="round"
       stroke-linejoin="round"
       fill="none"
       id="path36" />
    <path
       d="m 620.96045,325.09735 c -0.0226,0.31665 -0.0838,0.6247 -0.28162,0.8978 -0.72283,0.99765 -3.26973,1.52942 -5.05908,1.10577 -1.284,-0.30395 -2.17795,-1.09979 -2.21802,-1.97314"
       stroke="#000000"
       stroke-width="3.9685"
       stroke-linecap="round"
       stroke-linejoin="round"
       fill="none"
       id="path37" />
    <path
       d="m 554.33673,412.4351 c -0.0225,0.3166 -0.0837,0.62465 -0.28163,0.8978 -0.7228,0.9976 -3.2697,1.5294 -5.05907,1.10576 -1.28399,-0.30396 -2.17798,-1.09979 -2.21803,-1.97316"
       stroke="#000000"
       stroke-width="3.9685"
       stroke-linecap="round"
       stroke-linejoin="round"
       fill="none"
       id="path38" />
    <path
       d="m 487.71298,499.77283 c -0.0225,0.31662 -0.0837,0.62467 -0.28158,0.89777 -0.72287,0.99767 -3.2697,1.5294 -5.05912,1.10577 -1.28396,-0.30393 -2.17801,-1.0998 -2.21798,-1.97315"
       stroke="#000000"
       stroke-width="3.9685"
       stroke-linecap="round"
       stroke-linejoin="round"
       fill="none"
       id="path39" />
    <path
       d="M 127.52219,314.90036 V 279.26413"
       stroke="#000000"
       stroke-width="3.9685"
       stroke-linecap="round"
       stroke-linejoin="round"
       fill="none"
       id="path40" />
    <path
       d="m 135.08125,283.62836 v 31.272"
       stroke="#000000"
       stroke-width="3.9685"
       stroke-linecap="round"
       stroke-linejoin="round"
       fill="none"
       id="path41" />
  </g>
</svg>
