<?xml version="1.0" encoding="UTF-8" standalone="no"?>
<svg
   version="1.1"
   width="131.8456pt"
   height="128.99916pt"
   viewBox="0 0 131.84559 128.99916"
   overflow="visible"
   id="svg50"
   sodipodi:docname="capsule_6.svg"
   inkscape:version="1.3.2 (091e20e, 2023-11-25, custom)"
   xmlns:inkscape="http://www.inkscape.org/namespaces/inkscape"
   xmlns:sodipodi="http://sodipodi.sourceforge.net/DTD/sodipodi-0.dtd"
   xmlns="http://www.w3.org/2000/svg"
   xmlns:svg="http://www.w3.org/2000/svg">
  <defs
     id="defs50" />
  <sodipodi:namedview
     id="namedview50"
     pagecolor="#ffffff"
     bordercolor="#000000"
     borderopacity="0.25"
     inkscape:showpageshadow="2"
     inkscape:pageopacity="0.0"
     inkscape:pagecheckerboard="0"
     inkscape:deskcolor="#d1d1d1"
     inkscape:document-units="pt"
     showgrid="false"
     inkscape:zoom="0.74315655"
     inkscape:cx="78.045467"
     inkscape:cy="76.699855"
     inkscape:window-width="1920"
     inkscape:window-height="1010"
     inkscape:window-x="640"
     inkscape:window-y="-6"
     inkscape:window-maximized="1"
     inkscape:current-layer="svg50" />
  <g
     id="window"
     transform="translate(-239.2466,-362.9616)">
    <path
       d="m 337.40527,467.2921 c 1.22363,0.5399 2.70761,0.6123 4.14746,0.39567 1.43985,-0.21655 2.83561,-0.72204 4.30417,-1.58145 3.21933,-1.88402 6.78842,-5.46896 9.28116,-9.79572 2.4928,-4.32677 3.90921,-9.39535 3.81601,-12.84093"
       stroke="#000000"
       stroke-width="0.708661"
       stroke-linecap="round"
       stroke-linejoin="round"
       fill="none"
       id="path1" />
    <path
       d="m 360.29034,444.24115 c 0.0951,3.44269 -1.32704,8.51993 -3.81597,12.84097 -2.48899,4.32102 -6.04474,7.88584 -9.28415,9.80168 -1.61972,0.9579 -3.16032,1.50356 -4.72422,1.63607 -1.5639,0.1325 -3.15106,-0.14817 -4.42556,-0.84737 -2.54898,-1.39845 -3.84724,-4.47108 -3.80729,-8.38722 0.04,-3.91618 1.41819,-8.67581 3.81598,-12.84098 2.39783,-4.16513 5.81525,-7.73577 9.21262,-9.7252 3.39735,-1.98942 6.77463,-2.39757 9.21262,-0.91258 2.43793,1.48498 3.93655,4.86313 3.81597,8.43463 z"
       stroke="#000000"
       stroke-width="0.708661"
       stroke-linecap="round"
       stroke-linejoin="round"
       fill="none"
       id="path2" />
    <path
       d="m 358.95407,443.46967 a 9.772267,9.772267 0 0 0 -3.17212,-8.00687"
       stroke="#000000"
       stroke-width="0.708661"
       stroke-linecap="round"
       stroke-linejoin="round"
       fill="none"
       id="path3" />
  </g>
  <g
     id="door"
     transform="translate(-239.2466,-362.9616)">
    <path
       d="M 246.0397,446.55563 V 400.26605"
       stroke="#000000"
       stroke-width="0.708661"
       stroke-linecap="round"
       stroke-linejoin="round"
       fill="none"
       id="path4" />
    <path
       d="m 250.04848,402.58054 v 41.66061"
       stroke="#000000"
       stroke-width="0.708661"
       stroke-linecap="round"
       stroke-linejoin="round"
       fill="none"
       id="path5" />
    <path
       d="m 246.0397,446.55563 4.00878,-2.31448"
       stroke="#000000"
       stroke-width="0.708661"
       stroke-linecap="round"
       stroke-linejoin="round"
       fill="none"
       id="path6" />
    <path
       d="m 262.07486,409.52396 v 46.28961"
       stroke="#000000"
       stroke-width="0.708661"
       stroke-linecap="round"
       stroke-linejoin="round"
       fill="none"
       id="path7" />
    <path
       d="m 250.04848,444.24115 12.02638,6.94345"
       stroke="#000000"
       stroke-width="0.708661"
       stroke-linecap="round"
       stroke-linejoin="round"
       fill="none"
       id="path8" />
  </g>
  <g
     id="shell"
     transform="translate(-239.2466,-362.9616)">
    <path
       d="M 239.95526,441.34805 V 395.05847"
       stroke="#000000"
       stroke-width="1.41732"
       stroke-linecap="round"
       stroke-linejoin="round"
       fill="none"
       id="path9" />
    <path
       d="m 242.0309,444.24115 a 3.569536,3.569536 0 0 0 1.46768,3.24408"
       stroke="#000000"
       stroke-width="1.41732"
       stroke-linecap="round"
       stroke-linejoin="round"
       fill="none"
       id="path10" />
    <path
       d="M 368.30792,462.75696 326.21558,487.059"
       stroke="#000000"
       stroke-width="1.41732"
       stroke-linecap="round"
       stroke-linejoin="round"
       fill="none"
       id="path11" />
    <path
       d="m 368.30792,416.4674 v 46.28956"
       stroke="#000000"
       stroke-width="1.41732"
       stroke-linecap="round"
       stroke-linejoin="round"
       fill="none"
       id="path12" />
    <path
       d="M 316.19357,487.059 242.03088,444.24115"
       stroke="#000000"
       stroke-width="1.41732"
       stroke-linecap="round"
       stroke-linejoin="round"
       fill="none"
       id="path13" />
    <path
       d="m 316.19357,487.059 a 11.076015,11.076015 0 0 0 10.02201,0"
       stroke="#000000"
       stroke-width="1.41732"
       stroke-linecap="round"
       stroke-linejoin="round"
       fill="none"
       id="path14" />
    <path
       d="m 243.49858,447.48523 a 7.086614,7.086614 0 0 1 -3.5433,-6.13718"
       stroke="#000000"
       stroke-width="1.41732"
       stroke-linecap="round"
       stroke-linejoin="round"
       fill="none"
       id="path15" />
    <path
       d="m 324.7479,490.3031 a 7.086614,7.086614 0 0 1 -7.0866,0"
       stroke="#000000"
       stroke-width="1.41732"
       stroke-linecap="round"
       stroke-linejoin="round"
       fill="none"
       id="path16" />
    <path
       d="m 368.30792,462.757 a 3.569536,3.569536 0 0 0 2.07562,-2.8931"
       stroke="#000000"
       stroke-width="1.41732"
       stroke-linecap="round"
       stroke-linejoin="round"
       fill="none"
       id="path17" />
    <path
       d="M 363.29694,407.78812 289.13422,364.97028"
       stroke="#000000"
       stroke-width="1.41732"
       stroke-linecap="round"
       stroke-linejoin="round"
       fill="none"
       id="path18" />
    <path
       d="m 321.2046,432.09015 42.09234,-24.30203"
       stroke="#000000"
       stroke-width="1.41732"
       stroke-linecap="round"
       stroke-linejoin="round"
       fill="none"
       id="path19" />
    <path
       d="M 289.13422,364.97028 247.04189,389.2723"
       stroke="#000000"
       stroke-width="1.41732"
       stroke-linecap="round"
       stroke-linejoin="round"
       fill="none"
       id="path20" />
    <path
       d="m 247.04189,389.2723 74.16271,42.81785"
       stroke="#000000"
       stroke-width="1.41732"
       stroke-linecap="round"
       stroke-linejoin="round"
       fill="none"
       id="path21" />
    <path
       d="m 326.21558,487.059 a 3.569536,3.569536 0 0 1 -1.46768,3.2441"
       stroke="#000000"
       stroke-width="1.41732"
       stroke-linecap="round"
       stroke-linejoin="round"
       fill="none"
       id="path22" />
    <path
       d="M 316.19357,440.76944 V 487.059"
       stroke="#000000"
       stroke-width="1.41732"
       stroke-linecap="round"
       stroke-linejoin="round"
       fill="none"
       id="path23" />
    <path
       d="M 326.21558,440.76944 V 487.059"
       stroke="#000000"
       stroke-width="1.41732"
       stroke-linecap="round"
       stroke-linejoin="round"
       fill="none"
       id="path24" />
    <path
       d="M 326.21558,440.76944 368.30792,416.4674"
       stroke="#000000"
       stroke-width="1.41732"
       stroke-linecap="round"
       stroke-linejoin="round"
       fill="none"
       id="path25" />
    <path
       d="m 242.0309,397.95157 a 3.569536,3.569536 0 0 1 -2.07562,-2.8931"
       stroke="#000000"
       stroke-width="1.41732"
       stroke-linecap="round"
       stroke-linejoin="round"
       fill="none"
       id="path26" />
    <path
       d="m 366.84024,407.43713 a 7.086614,7.086614 0 0 1 3.5433,6.13717"
       stroke="#000000"
       stroke-width="1.41732"
       stroke-linecap="round"
       stroke-linejoin="round"
       fill="none"
       id="path27" />
    <path
       d="m 242.03088,397.95157 v 46.28958"
       stroke="#000000"
       stroke-width="1.41732"
       stroke-linecap="round"
       stroke-linejoin="round"
       fill="none"
       id="path28" />
    <path
       d="m 242.03088,397.95157 74.16269,42.81787"
       stroke="#000000"
       stroke-width="1.41732"
       stroke-linecap="round"
       stroke-linejoin="round"
       fill="none"
       id="path29" />
    <path
       d="M 243.49858,388.9213 285.5909,364.61926"
       stroke="#000000"
       stroke-width="1.41732"
       stroke-linecap="round"
       stroke-linejoin="round"
       fill="none"
       id="path30" />
    <path
       d="m 321.2046,432.09015 a 11.076015,11.076015 0 0 0 -5.01103,8.67929"
       stroke="#000000"
       stroke-width="1.41732"
       stroke-linecap="round"
       stroke-linejoin="round"
       fill="none"
       id="path31" />
    <path
       d="m 239.95528,441.34805 a 3.569536,3.569536 0 0 0 2.07562,2.8931"
       stroke="#000000"
       stroke-width="1.41732"
       stroke-linecap="round"
       stroke-linejoin="round"
       fill="none"
       id="path32" />
    <path
       d="M 366.84024,466.00107 324.7479,490.3031"
       stroke="#000000"
       stroke-width="1.41732"
       stroke-linecap="round"
       stroke-linejoin="round"
       fill="none"
       id="path33" />
    <path
       d="m 370.38354,413.5743 v 46.2896"
       stroke="#000000"
       stroke-width="1.41732"
       stroke-linecap="round"
       stroke-linejoin="round"
       fill="none"
       id="path34" />
    <path
       d="m 366.84024,466.00107 a 3.569536,3.569536 0 0 0 1.46768,-3.24407"
       stroke="#000000"
       stroke-width="1.41732"
       stroke-linecap="round"
       stroke-linejoin="round"
       fill="none"
       id="path35" />
    <path
       d="m 317.6613,490.3031 a 3.5434542,3.5434542 0 0 1 -1.46773,-3.2441"
       stroke="#000000"
       stroke-width="1.41732"
       stroke-linecap="round"
       stroke-linejoin="round"
       fill="none"
       id="path36" />
    <path
       d="M 317.66125,490.3031 243.49858,447.48523"
       stroke="#000000"
       stroke-width="1.41732"
       stroke-linecap="round"
       stroke-linejoin="round"
       fill="none"
       id="path37" />
    <path
       d="m 370.38354,459.8639 a 7.086614,7.086614 0 0 1 -3.5433,6.13717"
       stroke="#000000"
       stroke-width="1.41732"
       stroke-linecap="round"
       stroke-linejoin="round"
       fill="none"
       id="path38" />
    <path
       d="m 368.30792,416.4674 a 3.569536,3.569536 0 0 0 2.07562,-2.8931"
       stroke="#000000"
       stroke-width="1.41732"
       stroke-linecap="round"
       stroke-linejoin="round"
       fill="none"
       id="path39" />
    <path
       d="m 363.2969,407.78812 a 3.569536,3.569536 0 0 1 3.54334,-0.35099"
       stroke="#000000"
       stroke-width="1.41732"
       stroke-linecap="round"
       stroke-linejoin="round"
       fill="none"
       id="path40" />
    <path
       d="m 368.30792,416.4674 a 11.076015,11.076015 0 0 0 -5.01102,-8.67928"
       stroke="#000000"
       stroke-width="1.41732"
       stroke-linecap="round"
       stroke-linejoin="round"
       fill="none"
       id="path41" />
    <path
       d="m 326.21558,440.76944 a 11.076015,11.076015 0 0 0 -5.01098,-8.67929"
       stroke="#000000"
       stroke-width="1.41732"
       stroke-linecap="round"
       stroke-linejoin="round"
       fill="none"
       id="path42" />
    <path
       d="m 242.0309,397.95157 a 11.076015,11.076015 0 0 1 5.01099,-8.67929"
       stroke="#000000"
       stroke-width="1.41732"
       stroke-linecap="round"
       stroke-linejoin="round"
       fill="none"
       id="path43" />
    <path
       d="m 247.04189,389.27228 a 3.569536,3.569536 0 0 0 -3.54331,-0.35098"
       stroke="#000000"
       stroke-width="1.41732"
       stroke-linecap="round"
       stroke-linejoin="round"
       fill="none"
       id="path44" />
    <path
       d="M 289.13422,364.97028 A 3.6452935,3.6452935 0 0 0 285.6997,364.5602"
       stroke="#000000"
       stroke-width="1.41732"
       stroke-linecap="round"
       stroke-linejoin="round"
       fill="none"
       id="path45" />
    <path
       d="m 239.95528,395.05847 a 7.086614,7.086614 0 0 1 3.5433,-6.13717"
       stroke="#000000"
       stroke-width="1.41732"
       stroke-linecap="round"
       stroke-linejoin="round"
       fill="none"
       id="path46" />
    <path
       d="m 292.67755,364.61926 74.16269,42.81787"
       stroke="#000000"
       stroke-width="1.41732"
       stroke-linecap="round"
       stroke-linejoin="round"
       fill="none"
       id="path47" />
    <path
       d="m 316.19357,440.76944 a 11.076015,11.076015 0 0 0 10.02201,0"
       stroke="#000000"
       stroke-width="1.41732"
       stroke-linecap="round"
       stroke-linejoin="round"
       fill="none"
       id="path48" />
    <path
       d="m 292.67752,364.61926 a 3.5434542,3.5434542 0 0 0 -3.5433,0.35102"
       stroke="#000000"
       stroke-width="1.41732"
       stroke-linecap="round"
       stroke-linejoin="round"
       fill="none"
       id="path49" />
    <path
       d="m 285.5909,364.61926 a 7.086614,7.086614 0 0 1 7.08662,0"
       stroke="#000000"
       stroke-width="1.41732"
       stroke-linecap="round"
       stroke-linejoin="round"
       fill="none"
       id="path50" />
  </g>
</svg>
