<?xml version="1.0" encoding="UTF-8" standalone="no"?>
<svg
   version="1.1"
   width="131.8456pt"
   height="128.99916pt"
   viewBox="0 0 131.84559 128.99916"
   overflow="visible"
   id="svg77"
   sodipodi:docname="capsule_1.svg"
   inkscape:version="1.3.2 (091e20e, 2023-11-25, custom)"
   xmlns:inkscape="http://www.inkscape.org/namespaces/inkscape"
   xmlns:sodipodi="http://sodipodi.sourceforge.net/DTD/sodipodi-0.dtd"
   xmlns="http://www.w3.org/2000/svg"
   xmlns:svg="http://www.w3.org/2000/svg">
  <defs
     id="defs77" />
  <sodipodi:namedview
     id="namedview77"
     pagecolor="#ffffff"
     bordercolor="#000000"
     borderopacity="0.25"
     inkscape:showpageshadow="2"
     inkscape:pageopacity="0.0"
     inkscape:pagecheckerboard="0"
     inkscape:deskcolor="#d1d1d1"
     inkscape:document-units="pt"
     showgrid="false"
     inkscape:zoom="0.74315655"
     inkscape:cx="133.21554"
     inkscape:cy="87.464747"
     inkscape:window-width="1920"
     inkscape:window-height="1010"
     inkscape:window-x="640"
     inkscape:window-y="-6"
     inkscape:window-maximized="1"
     inkscape:current-layer="svg77" />
  <g
     id="window"
     transform="translate(-197.9479,-355.06283)">
    <path
       d="m 296.10657,459.39337 c 1.22363,0.53989 2.70758,0.61221 4.14746,0.39566 1.43985,-0.21658 2.83563,-0.72203 4.30417,-1.58151 3.2193,-1.884 6.7884,-5.4689 9.2812,-9.79569 2.49272,-4.32675 3.90914,-9.39538 3.81596,-12.84093"
       stroke="#000000"
       stroke-width="0.708661"
       stroke-linecap="round"
       stroke-linejoin="round"
       fill="none"
       id="path1" />
    <path
       d="m 318.9916,436.34238 c 0.0951,3.44272 -1.32702,8.51992 -3.81597,12.84094 -2.48895,4.32101 -6.04473,7.88586 -9.28415,9.8017 -1.61966,0.95791 -3.16031,1.5036 -4.72421,1.6361 -1.56387,0.13248 -3.15103,-0.14816 -4.42554,-0.84738 -2.54898,-1.39844 -3.84726,-4.4711 -3.80728,-8.38727 0.04,-3.91613 1.41818,-8.67577 3.81601,-12.84094 2.39779,-4.16513 5.81521,-7.73581 9.21254,-9.72523 3.39738,-1.98937 6.77467,-2.39754 9.21263,-0.91255 2.43799,1.48498 3.93657,4.86312 3.81597,8.43463 z"
       stroke="#000000"
       stroke-width="0.708661"
       stroke-linecap="round"
       stroke-linejoin="round"
       fill="none"
       id="path2" />
    <path
       d="m 317.65536,435.5709 a 9.772267,9.772267 0 0 0 -3.17211,-8.00687"
       stroke="#000000"
       stroke-width="0.708661"
       stroke-linecap="round"
       stroke-linejoin="round"
       fill="none"
       id="path3" />
  </g>
  <g
     id="door"
     transform="translate(-197.9479,-355.06283)">
    <path
       d="m 204.74098,383.10938 4.00879,2.31448"
       stroke="#000000"
       stroke-width="0.708661"
       stroke-linecap="round"
       stroke-linejoin="round"
       fill="none"
       id="path4" />
    <path
       d="m 220.77615,420.14102 -5.56271,3.21164"
       stroke="#000000"
       stroke-width="0.708661"
       stroke-linecap="round"
       stroke-linejoin="round"
       fill="none"
       id="path5" />
    <path
       d="m 210.3037,426.1873 -5.56272,3.21163"
       stroke="#000000"
       stroke-width="0.708661"
       stroke-linecap="round"
       stroke-linejoin="round"
       fill="none"
       id="path6" />
    <path
       d="m 208.74977,431.7134 v -3.30224"
       stroke="#000000"
       stroke-width="0.708661"
       stroke-linecap="round"
       stroke-linejoin="round"
       fill="none"
       id="path7" />
    <path
       d="m 208.74977,422.74185 v -5.66928"
       stroke="#000000"
       stroke-width="0.708661"
       stroke-linecap="butt"
       stroke-linejoin="round"
       fill="none"
       id="path8" />
    <path
       d="M 208.74977,411.40326 V 405.734"
       stroke="#000000"
       stroke-width="0.708661"
       stroke-linecap="butt"
       stroke-linejoin="round"
       fill="none"
       id="path9" />
    <path
       d="m 208.74977,400.0647 v -5.66928"
       stroke="#000000"
       stroke-width="0.708661"
       stroke-linecap="butt"
       stroke-linejoin="round"
       fill="none"
       id="path10" />
    <path
       d="m 208.74977,388.7261 v -3.30224"
       stroke="#000000"
       stroke-width="0.708661"
       stroke-linecap="round"
       stroke-linejoin="round"
       fill="none"
       id="path11" />
    <path
       d="m 220.77615,420.14102 4.00879,2.31448"
       stroke="#000000"
       stroke-width="0.708661"
       stroke-linecap="round"
       stroke-linejoin="round"
       fill="none"
       id="path12" />
    <path
       d="m 220.77615,420.14102 v -3.30227"
       stroke="#000000"
       stroke-width="0.708661"
       stroke-linecap="round"
       stroke-linejoin="round"
       fill="none"
       id="path13" />
    <path
       d="m 220.77615,411.1695 v -5.66932"
       stroke="#000000"
       stroke-width="0.708661"
       stroke-linecap="butt"
       stroke-linejoin="round"
       fill="none"
       id="path14" />
    <path
       d="m 220.77615,399.8309 v -5.6693"
       stroke="#000000"
       stroke-width="0.708661"
       stroke-linecap="butt"
       stroke-linejoin="round"
       fill="none"
       id="path15" />
    <path
       d="m 220.77615,388.4923 v -5.66927"
       stroke="#000000"
       stroke-width="0.708661"
       stroke-linecap="butt"
       stroke-linejoin="round"
       fill="none"
       id="path16" />
    <path
       d="m 220.77615,377.15372 v -3.30228"
       stroke="#000000"
       stroke-width="0.708661"
       stroke-linecap="round"
       stroke-linejoin="round"
       fill="none"
       id="path17" />
    <path
       d="m 224.78494,422.4555 -5.56271,3.2116"
       stroke="#000000"
       stroke-width="0.708661"
       stroke-linecap="round"
       stroke-linejoin="round"
       fill="none"
       id="path18" />
    <path
       d="m 214.31248,428.50177 -5.56271,3.21163"
       stroke="#000000"
       stroke-width="0.708661"
       stroke-linecap="round"
       stroke-linejoin="round"
       fill="none"
       id="path19" />
    <path
       d="m 224.78494,376.16592 v 3.30228"
       stroke="#000000"
       stroke-width="0.708661"
       stroke-linecap="round"
       stroke-linejoin="round"
       fill="none"
       id="path20" />
    <path
       d="m 224.78494,385.13748 v 5.66928"
       stroke="#000000"
       stroke-width="0.708661"
       stroke-linecap="butt"
       stroke-linejoin="round"
       fill="none"
       id="path21" />
    <path
       d="m 224.78494,396.47607 v 5.66933"
       stroke="#000000"
       stroke-width="0.708661"
       stroke-linecap="butt"
       stroke-linejoin="round"
       fill="none"
       id="path22" />
    <path
       d="m 224.78494,407.81467 v 5.66931"
       stroke="#000000"
       stroke-width="0.708661"
       stroke-linecap="butt"
       stroke-linejoin="round"
       fill="none"
       id="path23" />
    <path
       d="m 224.78494,419.15323 v 3.30227"
       stroke="#000000"
       stroke-width="0.708661"
       stroke-linecap="round"
       stroke-linejoin="round"
       fill="none"
       id="path24" />
    <path
       d="m 204.74098,383.10938 v 3.30224"
       stroke="#000000"
       stroke-width="0.708661"
       stroke-linecap="round"
       stroke-linejoin="round"
       fill="none"
       id="path25" />
    <path
       d="m 204.74098,392.08093 v 5.66927"
       stroke="#000000"
       stroke-width="0.708661"
       stroke-linecap="butt"
       stroke-linejoin="round"
       fill="none"
       id="path26" />
    <path
       d="m 204.74098,403.41953 v 5.66927"
       stroke="#000000"
       stroke-width="0.708661"
       stroke-linecap="butt"
       stroke-linejoin="round"
       fill="none"
       id="path27" />
    <path
       d="m 204.74098,414.7581 v 5.66927"
       stroke="#000000"
       stroke-width="0.708661"
       stroke-linecap="butt"
       stroke-linejoin="round"
       fill="none"
       id="path28" />
    <path
       d="m 204.74098,426.09668 v 3.30225"
       stroke="#000000"
       stroke-width="0.708661"
       stroke-linecap="round"
       stroke-linejoin="round"
       fill="none"
       id="path29" />
    <path
       d="m 204.74098,429.39893 4.00879,2.31447"
       stroke="#000000"
       stroke-width="0.708661"
       stroke-linecap="round"
       stroke-linejoin="round"
       fill="none"
       id="path30" />
    <path
       d="m 220.77615,373.85144 4.00879,2.31448"
       stroke="#000000"
       stroke-width="0.708661"
       stroke-linecap="round"
       stroke-linejoin="round"
       fill="none"
       id="path31" />
    <path
       d="m 208.74977,385.42386 5.56271,-3.21164"
       stroke="#000000"
       stroke-width="0.708661"
       stroke-linecap="round"
       stroke-linejoin="round"
       fill="none"
       id="path32" />
    <path
       d="m 219.22223,379.37756 5.56271,-3.21164"
       stroke="#000000"
       stroke-width="0.708661"
       stroke-linecap="round"
       stroke-linejoin="round"
       fill="none"
       id="path33" />
    <path
       d="m 220.77615,373.85144 -5.56271,3.21164"
       stroke="#000000"
       stroke-width="0.708661"
       stroke-linecap="round"
       stroke-linejoin="round"
       fill="none"
       id="path34" />
    <path
       d="m 210.3037,379.89774 -5.56272,3.21164"
       stroke="#000000"
       stroke-width="0.708661"
       stroke-linecap="round"
       stroke-linejoin="round"
       fill="none"
       id="path35" />
  </g>
  <g
     id="shell"
     transform="translate(-197.9479,-355.06283)">
    <path
       d="M 279.90585,424.19135 321.9982,399.88934"
       stroke="#000000"
       stroke-width="1.41732"
       stroke-linecap="round"
       stroke-linejoin="round"
       fill="none"
       id="path36" />
    <path
       d="m 327.0092,454.85822 -42.09233,24.30203"
       stroke="#000000"
       stroke-width="1.41732"
       stroke-linecap="round"
       stroke-linejoin="round"
       fill="none"
       id="path37" />
    <path
       d="M 247.83551,357.07147 205.74318,381.3735"
       stroke="#000000"
       stroke-width="1.41732"
       stroke-linecap="round"
       stroke-linejoin="round"
       fill="none"
       id="path38" />
    <path
       d="m 279.90588,424.19138 a 11.076015,11.076015 0 0 0 -5.01101,8.67929"
       stroke="#000000"
       stroke-width="1.41732"
       stroke-linecap="round"
       stroke-linejoin="round"
       fill="none"
       id="path39" />
    <path
       d="m 327.00922,408.56863 a 11.076015,11.076015 0 0 0 -5.01102,-8.67929"
       stroke="#000000"
       stroke-width="1.41732"
       stroke-linecap="round"
       stroke-linejoin="round"
       fill="none"
       id="path40" />
    <path
       d="M 284.91687,432.87067 327.0092,408.56863"
       stroke="#000000"
       stroke-width="1.41732"
       stroke-linecap="round"
       stroke-linejoin="round"
       fill="none"
       id="path41" />
    <path
       d="m 274.89487,479.16022 a 11.076015,11.076015 0 0 0 10.022,0"
       stroke="#000000"
       stroke-width="1.41732"
       stroke-linecap="round"
       stroke-linejoin="round"
       fill="none"
       id="path42" />
    <path
       d="m 325.5415,458.1023 -42.09234,24.302"
       stroke="#000000"
       stroke-width="1.41732"
       stroke-linecap="round"
       stroke-linejoin="round"
       fill="none"
       id="path43" />
    <path
       d="m 200.73218,390.0528 a 11.076015,11.076015 0 0 1 5.011,-8.6793"
       stroke="#000000"
       stroke-width="1.41732"
       stroke-linecap="round"
       stroke-linejoin="round"
       fill="none"
       id="path44" />
    <path
       d="m 205.74318,381.3735 a 3.569536,3.569536 0 0 0 -3.54331,-0.35098"
       stroke="#000000"
       stroke-width="1.41732"
       stroke-linecap="round"
       stroke-linejoin="round"
       fill="none"
       id="path45" />
    <path
       d="m 274.8949,432.87067 v 46.28958"
       stroke="#000000"
       stroke-width="1.41732"
       stroke-linecap="round"
       stroke-linejoin="round"
       fill="none"
       id="path46" />
    <path
       d="m 325.54153,399.53836 a 7.086614,7.086614 0 0 1 3.54331,6.13718"
       stroke="#000000"
       stroke-width="1.41732"
       stroke-linecap="round"
       stroke-linejoin="round"
       fill="none"
       id="path47" />
    <path
       d="m 325.54153,458.1023 a 3.569536,3.569536 0 0 0 1.46769,-3.24408"
       stroke="#000000"
       stroke-width="1.41732"
       stroke-linecap="round"
       stroke-linejoin="round"
       fill="none"
       id="path48" />
    <path
       d="m 276.36258,482.40433 a 3.5434542,3.5434542 0 0 1 -1.46771,-3.24411"
       stroke="#000000"
       stroke-width="1.41732"
       stroke-linecap="round"
       stroke-linejoin="round"
       fill="none"
       id="path49" />
    <path
       d="m 251.37883,356.7205 a 3.5434542,3.5434542 0 0 0 -3.5433,0.351"
       stroke="#000000"
       stroke-width="1.41732"
       stroke-linecap="round"
       stroke-linejoin="round"
       fill="none"
       id="path50" />
    <path
       d="m 274.89487,432.87067 a 11.076015,11.076015 0 0 0 10.022,0"
       stroke="#000000"
       stroke-width="1.41732"
       stroke-linecap="round"
       stroke-linejoin="round"
       fill="none"
       id="path51" />
    <path
       d="m 327.00922,454.85822 a 3.569536,3.569536 0 0 0 2.07562,-2.8931"
       stroke="#000000"
       stroke-width="1.41732"
       stroke-linecap="round"
       stroke-linejoin="round"
       fill="none"
       id="path52" />
    <path
       d="m 251.37881,356.72052 74.16269,42.81784"
       stroke="#000000"
       stroke-width="1.41732"
       stroke-linecap="round"
       stroke-linejoin="round"
       fill="none"
       id="path53" />
    <path
       d="M 274.8949,479.16025 200.73218,436.34238"
       stroke="#000000"
       stroke-width="1.41732"
       stroke-linecap="round"
       stroke-linejoin="round"
       fill="none"
       id="path54" />
    <path
       d="m 321.9982,399.88934 a 3.569536,3.569536 0 0 1 3.54333,-0.35098"
       stroke="#000000"
       stroke-width="1.41732"
       stroke-linecap="round"
       stroke-linejoin="round"
       fill="none"
       id="path55" />
    <path
       d="m 200.73218,390.05283 v 46.28955"
       stroke="#000000"
       stroke-width="1.41732"
       stroke-linecap="round"
       stroke-linejoin="round"
       fill="none"
       id="path56" />
    <path
       d="m 202.19987,439.58646 a 7.086614,7.086614 0 0 1 -3.5433,-6.13718"
       stroke="#000000"
       stroke-width="1.41732"
       stroke-linecap="round"
       stroke-linejoin="round"
       fill="none"
       id="path57" />
    <path
       d="m 200.73218,390.0528 a 3.569536,3.569536 0 0 1 -2.07561,-2.8931"
       stroke="#000000"
       stroke-width="1.41732"
       stroke-linecap="round"
       stroke-linejoin="round"
       fill="none"
       id="path58" />
    <path
       d="m 200.73218,390.05283 74.16272,42.81784"
       stroke="#000000"
       stroke-width="1.41732"
       stroke-linecap="round"
       stroke-linejoin="round"
       fill="none"
       id="path59" />
    <path
       d="m 198.65657,387.1597 a 7.086614,7.086614 0 0 1 3.5433,-6.13718"
       stroke="#000000"
       stroke-width="1.41732"
       stroke-linecap="round"
       stroke-linejoin="round"
       fill="none"
       id="path60" />
    <path
       d="m 202.19987,381.02252 42.09233,-24.302"
       stroke="#000000"
       stroke-width="1.41732"
       stroke-linecap="round"
       stroke-linejoin="round"
       fill="none"
       id="path61" />
    <path
       d="m 283.4492,482.40433 a 7.086614,7.086614 0 0 1 -7.08662,0"
       stroke="#000000"
       stroke-width="1.41732"
       stroke-linecap="round"
       stroke-linejoin="round"
       fill="none"
       id="path62" />
    <path
       d="M 321.9982,399.88934 247.83551,357.07147"
       stroke="#000000"
       stroke-width="1.41732"
       stroke-linecap="round"
       stroke-linejoin="round"
       fill="none"
       id="path63" />
    <path
       d="M 276.36258,482.4043 202.19987,439.58646"
       stroke="#000000"
       stroke-width="1.41732"
       stroke-linecap="round"
       stroke-linejoin="round"
       fill="none"
       id="path64" />
    <path
       d="m 327.00922,408.56863 a 3.569536,3.569536 0 0 0 2.07562,-2.89309"
       stroke="#000000"
       stroke-width="1.41732"
       stroke-linecap="round"
       stroke-linejoin="round"
       fill="none"
       id="path65" />
    <path
       d="m 327.0092,408.56863 v 46.28959"
       stroke="#000000"
       stroke-width="1.41732"
       stroke-linecap="round"
       stroke-linejoin="round"
       fill="none"
       id="path66" />
    <path
       d="m 198.65657,433.44928 a 3.569536,3.569536 0 0 0 2.07561,2.8931"
       stroke="#000000"
       stroke-width="1.41732"
       stroke-linecap="round"
       stroke-linejoin="round"
       fill="none"
       id="path67" />
    <path
       d="m 329.08484,451.96512 a 7.086614,7.086614 0 0 1 -3.54331,6.13718"
       stroke="#000000"
       stroke-width="1.41732"
       stroke-linecap="round"
       stroke-linejoin="round"
       fill="none"
       id="path68" />
    <path
       d="m 284.91687,432.87067 a 11.076015,11.076015 0 0 0 -5.01099,-8.67929"
       stroke="#000000"
       stroke-width="1.41732"
       stroke-linecap="round"
       stroke-linejoin="round"
       fill="none"
       id="path69" />
    <path
       d="m 244.2922,356.7205 a 7.086614,7.086614 0 0 1 7.08663,0"
       stroke="#000000"
       stroke-width="1.41732"
       stroke-linecap="round"
       stroke-linejoin="round"
       fill="none"
       id="path70" />
    <path
       d="m 200.73218,436.34238 a 3.569536,3.569536 0 0 0 1.46769,3.24408"
       stroke="#000000"
       stroke-width="1.41732"
       stroke-linecap="round"
       stroke-linejoin="round"
       fill="none"
       id="path71" />
    <path
       d="M 247.83553,357.0715 A 3.6452935,3.6452935 0 0 0 244.401,356.66144"
       stroke="#000000"
       stroke-width="1.41732"
       stroke-linecap="round"
       stroke-linejoin="round"
       fill="none"
       id="path72" />
    <path
       d="m 284.91687,479.16022 a 3.569536,3.569536 0 0 1 -1.46767,3.24411"
       stroke="#000000"
       stroke-width="1.41732"
       stroke-linecap="round"
       stroke-linejoin="round"
       fill="none"
       id="path73" />
    <path
       d="m 284.91687,432.87067 v 46.28958"
       stroke="#000000"
       stroke-width="1.41732"
       stroke-linecap="round"
       stroke-linejoin="round"
       fill="none"
       id="path74" />
    <path
       d="m 329.08484,405.67554 v 46.28958"
       stroke="#000000"
       stroke-width="1.41732"
       stroke-linecap="round"
       stroke-linejoin="round"
       fill="none"
       id="path75" />
    <path
       d="M 198.65656,433.44928 V 387.1597"
       stroke="#000000"
       stroke-width="1.41732"
       stroke-linecap="round"
       stroke-linejoin="round"
       fill="none"
       id="path76" />
    <path
       d="m 205.74318,381.3735 74.16267,42.81785"
       stroke="#000000"
       stroke-width="1.41732"
       stroke-linecap="round"
       stroke-linejoin="round"
       fill="none"
       id="path77" />
  </g>
</svg>
