<?xml version="1.0" encoding="UTF-8" standalone="no"?>
<svg
   version="1.1"
   width="131.8456pt"
   height="128.99916pt"
   viewBox="0 0 131.84559 128.99916"
   overflow="visible"
   id="svg77"
   sodipodi:docname="capsule_7.svg"
   inkscape:version="1.3.2 (091e20e, 2023-11-25, custom)"
   xmlns:inkscape="http://www.inkscape.org/namespaces/inkscape"
   xmlns:sodipodi="http://sodipodi.sourceforge.net/DTD/sodipodi-0.dtd"
   xmlns="http://www.w3.org/2000/svg"
   xmlns:svg="http://www.w3.org/2000/svg">
  <defs
     id="defs77" />
  <sodipodi:namedview
     id="namedview77"
     pagecolor="#ffffff"
     bordercolor="#000000"
     borderopacity="0.25"
     inkscape:showpageshadow="2"
     inkscape:pageopacity="0.0"
     inkscape:pagecheckerboard="0"
     inkscape:deskcolor="#d1d1d1"
     inkscape:document-units="pt"
     showgrid="false"
     inkscape:zoom="0.74315655"
     inkscape:cx="9.4192805"
     inkscape:cy="121.10503"
     inkscape:window-width="1920"
     inkscape:window-height="1010"
     inkscape:window-x="640"
     inkscape:window-y="-6"
     inkscape:window-maximized="1"
     inkscape:current-layer="svg77" />
  <g
     id="window"
     transform="translate(-290.22469,-330.2723)">
    <path
       d="m 340.61188,404.50937 c -0.20566,0.15811 -0.40448,0.32363 -0.59271,0.50463 -0.88395,0.85014 -1.53312,2.0418 -1.96707,3.29786 -0.43394,1.2561 -0.65266,2.57666 -0.6444,4.1066 0.0201,3.7109 1.37547,8.65359 3.84807,12.93872 2.47256,4.28509 6.06231,7.91262 9.28383,9.80118 1.46952,0.86151 2.86244,1.36108 4.30153,1.57598 1.43902,0.21494 2.92419,0.14509 4.14743,-0.39566"
       stroke="#000000"
       stroke-width="0.708661"
       stroke-linecap="round"
       stroke-linejoin="round"
       fill="none"
       id="path1" />
    <path
       d="m 340.34705,404.72177 c -0.11179,0.0947 -0.22065,0.19357 -0.32642,0.29645"
       stroke="#000000"
       stroke-width="0.708661"
       stroke-linecap="round"
       stroke-linejoin="round"
       fill="none"
       id="path2" />
    <path
       d="m 362.16068,428.33182 a 9.280793,9.280793 0 0 1 -3.81598,8.43463 c -1.2518,0.75857 -2.8504,0.95743 -4.41684,0.79999 -1.56646,-0.15744 -3.10074,-0.67114 -4.72132,-1.62821 -3.24121,-1.91418 -6.82774,-5.60187 -9.28701,-9.80957 -2.45936,-4.20773 -3.79148,-8.93548 -3.81601,-12.84094 -0.0245,-3.90549 1.25848,-6.98868 3.80528,-8.38862 1.27345,-0.69997 2.8628,-0.9791 4.42753,-0.846 1.56479,0.13312 3.10495,0.67847 4.72443,1.63623 3.23892,1.9155 6.79489,5.48047 9.28394,9.80155 2.48904,4.32107 3.91104,9.39822 3.81598,12.84094 z"
       stroke="#000000"
       stroke-width="0.708661"
       stroke-linecap="round"
       stroke-linejoin="round"
       fill="none"
       id="path3" />
  </g>
  <g
     id="door"
     transform="translate(-290.22469,-330.2723)">
    <path
       d="m 349.13208,338.64578 -4.00876,2.31449"
       stroke="#000000"
       stroke-width="0.708661"
       stroke-linecap="round"
       stroke-linejoin="round"
       fill="none"
       id="path4" />
    <path
       d="m 361.15848,350.21817 v 3.30228"
       stroke="#000000"
       stroke-width="0.708661"
       stroke-linecap="round"
       stroke-linejoin="round"
       fill="none"
       id="path5" />
    <path
       d="m 361.15848,359.18973 v 5.66931"
       stroke="#000000"
       stroke-width="0.708661"
       stroke-linecap="butt"
       stroke-linejoin="round"
       fill="none"
       id="path6" />
    <path
       d="m 361.15848,370.52832 v 5.66928"
       stroke="#000000"
       stroke-width="0.708661"
       stroke-linecap="butt"
       stroke-linejoin="round"
       fill="none"
       id="path7" />
    <path
       d="m 361.15848,381.86688 v 5.66932"
       stroke="#000000"
       stroke-width="0.708661"
       stroke-linecap="butt"
       stroke-linejoin="round"
       fill="none"
       id="path8" />
    <path
       d="m 361.15848,393.20547 v 3.30228"
       stroke="#000000"
       stroke-width="0.708661"
       stroke-linecap="round"
       stroke-linejoin="round"
       fill="none"
       id="path9" />
    <path
       d="m 345.12332,340.96027 5.56272,3.21163"
       stroke="#000000"
       stroke-width="0.708661"
       stroke-linecap="round"
       stroke-linejoin="round"
       fill="none"
       id="path10" />
    <path
       d="m 355.59576,347.00653 5.56272,3.21164"
       stroke="#000000"
       stroke-width="0.708661"
       stroke-linecap="round"
       stroke-linejoin="round"
       fill="none"
       id="path11" />
    <path
       d="m 365.16727,347.9037 -4.00879,2.31447"
       stroke="#000000"
       stroke-width="0.708661"
       stroke-linecap="round"
       stroke-linejoin="round"
       fill="none"
       id="path12" />
    <path
       d="m 365.16727,394.19327 -5.56272,-3.21164"
       stroke="#000000"
       stroke-width="0.708661"
       stroke-linecap="round"
       stroke-linejoin="round"
       fill="none"
       id="path13" />
    <path
       d="m 354.6948,388.147 -5.56272,-3.21164"
       stroke="#000000"
       stroke-width="0.708661"
       stroke-linecap="round"
       stroke-linejoin="round"
       fill="none"
       id="path14" />
    <path
       d="m 365.16727,394.19327 -4.00879,2.31448"
       stroke="#000000"
       stroke-width="0.708661"
       stroke-linecap="round"
       stroke-linejoin="round"
       fill="none"
       id="path15" />
    <path
       d="m 361.15848,396.50775 -5.56272,-3.21165"
       stroke="#000000"
       stroke-width="0.708661"
       stroke-linecap="round"
       stroke-linejoin="round"
       fill="none"
       id="path16" />
    <path
       d="m 350.68604,390.46146 -5.56272,-3.21161"
       stroke="#000000"
       stroke-width="0.708661"
       stroke-linecap="round"
       stroke-linejoin="round"
       fill="none"
       id="path17" />
    <path
       d="M 365.16727,394.19327 V 390.891"
       stroke="#000000"
       stroke-width="0.708661"
       stroke-linecap="round"
       stroke-linejoin="round"
       fill="none"
       id="path18" />
    <path
       d="m 365.16727,385.2217 v -5.6693"
       stroke="#000000"
       stroke-width="0.708661"
       stroke-linecap="butt"
       stroke-linejoin="round"
       fill="none"
       id="path19" />
    <path
       d="m 365.16727,373.88312 v -5.66928"
       stroke="#000000"
       stroke-width="0.708661"
       stroke-linecap="butt"
       stroke-linejoin="round"
       fill="none"
       id="path20" />
    <path
       d="m 365.16727,362.54456 v -5.66932"
       stroke="#000000"
       stroke-width="0.708661"
       stroke-linecap="butt"
       stroke-linejoin="round"
       fill="none"
       id="path21" />
    <path
       d="M 365.16727,351.20596 V 347.9037"
       stroke="#000000"
       stroke-width="0.708661"
       stroke-linecap="round"
       stroke-linejoin="round"
       fill="none"
       id="path22" />
    <path
       d="m 365.16727,347.9037 -5.56272,-3.21165"
       stroke="#000000"
       stroke-width="0.708661"
       stroke-linecap="round"
       stroke-linejoin="round"
       fill="none"
       id="path23" />
    <path
       d="m 354.6948,341.85742 -5.56272,-3.21164"
       stroke="#000000"
       stroke-width="0.708661"
       stroke-linecap="round"
       stroke-linejoin="round"
       fill="none"
       id="path24" />
    <path
       d="m 345.12332,387.24985 v -3.30228"
       stroke="#000000"
       stroke-width="0.708661"
       stroke-linecap="round"
       stroke-linejoin="round"
       fill="none"
       id="path25" />
    <path
       d="M 345.12332,378.27826 V 372.609"
       stroke="#000000"
       stroke-width="0.708661"
       stroke-linecap="butt"
       stroke-linejoin="round"
       fill="none"
       id="path26" />
    <path
       d="m 345.12332,366.9397 v -5.6693"
       stroke="#000000"
       stroke-width="0.708661"
       stroke-linecap="butt"
       stroke-linejoin="round"
       fill="none"
       id="path27" />
    <path
       d="m 345.12332,355.6011 v -5.6693"
       stroke="#000000"
       stroke-width="0.708661"
       stroke-linecap="butt"
       stroke-linejoin="round"
       fill="none"
       id="path28" />
    <path
       d="m 345.12332,344.26254 v -3.30227"
       stroke="#000000"
       stroke-width="0.708661"
       stroke-linecap="round"
       stroke-linejoin="round"
       fill="none"
       id="path29" />
    <path
       d="m 349.13208,338.64578 v 3.30228"
       stroke="#000000"
       stroke-width="0.708661"
       stroke-linecap="round"
       stroke-linejoin="round"
       fill="none"
       id="path30" />
    <path
       d="m 349.13208,347.61734 v 5.66928"
       stroke="#000000"
       stroke-width="0.708661"
       stroke-linecap="butt"
       stroke-linejoin="round"
       fill="none"
       id="path31" />
    <path
       d="m 349.13208,358.95593 v 5.66927"
       stroke="#000000"
       stroke-width="0.708661"
       stroke-linecap="butt"
       stroke-linejoin="round"
       fill="none"
       id="path32" />
    <path
       d="m 349.13208,370.29453 v 5.66927"
       stroke="#000000"
       stroke-width="0.708661"
       stroke-linecap="butt"
       stroke-linejoin="round"
       fill="none"
       id="path33" />
    <path
       d="m 349.13208,381.6331 v 3.30226"
       stroke="#000000"
       stroke-width="0.708661"
       stroke-linecap="round"
       stroke-linejoin="round"
       fill="none"
       id="path34" />
    <path
       d="m 349.13208,384.93536 -4.00876,2.31449"
       stroke="#000000"
       stroke-width="0.708661"
       stroke-linecap="round"
       stroke-linejoin="round"
       fill="none"
       id="path35" />
  </g>
  <g
     id="shell"
     transform="translate(-290.22469,-330.2723)">
    <path
       d="m 372.18268,399.40085 42.09234,-24.30203"
       stroke="#000000"
       stroke-width="1.41732"
       stroke-linecap="round"
       stroke-linejoin="round"
       fill="none"
       id="path36" />
    <path
       d="m 419.286,430.0677 -42.09234,24.30202"
       stroke="#000000"
       stroke-width="1.41732"
       stroke-linecap="round"
       stroke-linejoin="round"
       fill="none"
       id="path37" />
    <path
       d="m 340.1123,332.28098 -42.09234,24.302"
       stroke="#000000"
       stroke-width="1.41732"
       stroke-linecap="round"
       stroke-linejoin="round"
       fill="none"
       id="path38" />
    <path
       d="m 372.18268,399.40085 a 11.076015,11.076015 0 0 0 -5.01102,8.67929"
       stroke="#000000"
       stroke-width="1.41732"
       stroke-linecap="round"
       stroke-linejoin="round"
       fill="none"
       id="path39" />
    <path
       d="m 419.286,383.7781 a 11.076015,11.076015 0 0 0 -5.011,-8.67928"
       stroke="#000000"
       stroke-width="1.41732"
       stroke-linecap="round"
       stroke-linejoin="round"
       fill="none"
       id="path40" />
    <path
       d="M 377.19366,408.08014 419.286,383.7781"
       stroke="#000000"
       stroke-width="1.41732"
       stroke-linecap="round"
       stroke-linejoin="round"
       fill="none"
       id="path41" />
    <path
       d="m 367.17166,454.36972 a 11.076015,11.076015 0 0 0 10.022,0"
       stroke="#000000"
       stroke-width="1.41732"
       stroke-linecap="round"
       stroke-linejoin="round"
       fill="none"
       id="path42" />
    <path
       d="M 417.81833,433.31177 375.72598,457.6138"
       stroke="#000000"
       stroke-width="1.41732"
       stroke-linecap="round"
       stroke-linejoin="round"
       fill="none"
       id="path43" />
    <path
       d="m 293.00897,365.2623 a 11.076015,11.076015 0 0 1 5.01099,-8.6793"
       stroke="#000000"
       stroke-width="1.41732"
       stroke-linecap="round"
       stroke-linejoin="round"
       fill="none"
       id="path44" />
    <path
       d="m 298.01996,356.583 a 3.569536,3.569536 0 0 0 -3.54331,-0.351"
       stroke="#000000"
       stroke-width="1.41732"
       stroke-linecap="round"
       stroke-linejoin="round"
       fill="none"
       id="path45" />
    <path
       d="m 367.17166,408.08014 v 46.28958"
       stroke="#000000"
       stroke-width="1.41732"
       stroke-linecap="round"
       stroke-linejoin="round"
       fill="none"
       id="path46" />
    <path
       d="m 417.8183,374.74783 a 7.086614,7.086614 0 0 1 3.5433,6.13717"
       stroke="#000000"
       stroke-width="1.41732"
       stroke-linecap="round"
       stroke-linejoin="round"
       fill="none"
       id="path47" />
    <path
       d="m 417.8183,433.31177 a 3.569536,3.569536 0 0 0 1.4677,-3.24407"
       stroke="#000000"
       stroke-width="1.41732"
       stroke-linecap="round"
       stroke-linejoin="round"
       fill="none"
       id="path48" />
    <path
       d="m 368.63934,457.6138 a 3.5434542,3.5434542 0 0 1 -1.46768,-3.24408"
       stroke="#000000"
       stroke-width="1.41732"
       stroke-linecap="round"
       stroke-linejoin="round"
       fill="none"
       id="path49" />
    <path
       d="m 343.6556,331.92996 a 3.5434542,3.5434542 0 0 0 -3.5433,0.35102"
       stroke="#000000"
       stroke-width="1.41732"
       stroke-linecap="round"
       stroke-linejoin="round"
       fill="none"
       id="path50" />
    <path
       d="m 367.17166,408.08014 a 11.076015,11.076015 0 0 0 10.022,0"
       stroke="#000000"
       stroke-width="1.41732"
       stroke-linecap="round"
       stroke-linejoin="round"
       fill="none"
       id="path51" />
    <path
       d="m 419.286,430.0677 a 3.569536,3.569536 0 0 0 2.0756,-2.8931"
       stroke="#000000"
       stroke-width="1.41732"
       stroke-linecap="round"
       stroke-linejoin="round"
       fill="none"
       id="path52" />
    <path
       d="m 343.65564,331.93 74.16269,42.81783"
       stroke="#000000"
       stroke-width="1.41732"
       stroke-linecap="round"
       stroke-linejoin="round"
       fill="none"
       id="path53" />
    <path
       d="M 367.17166,454.36972 293.00897,411.55188"
       stroke="#000000"
       stroke-width="1.41732"
       stroke-linecap="round"
       stroke-linejoin="round"
       fill="none"
       id="path54" />
    <path
       d="m 414.275,375.09882 a 3.569536,3.569536 0 0 1 3.5433,-0.35099"
       stroke="#000000"
       stroke-width="1.41732"
       stroke-linecap="round"
       stroke-linejoin="round"
       fill="none"
       id="path55" />
    <path
       d="m 293.00897,365.26227 v 46.28961"
       stroke="#000000"
       stroke-width="1.41732"
       stroke-linecap="round"
       stroke-linejoin="round"
       fill="none"
       id="path56" />
    <path
       d="m 294.47665,414.79596 a 7.086614,7.086614 0 0 1 -3.5433,-6.13721"
       stroke="#000000"
       stroke-width="1.41732"
       stroke-linecap="round"
       stroke-linejoin="round"
       fill="none"
       id="path57" />
    <path
       d="m 293.00897,365.2623 a 3.569536,3.569536 0 0 1 -2.07562,-2.8931"
       stroke="#000000"
       stroke-width="1.41732"
       stroke-linecap="round"
       stroke-linejoin="round"
       fill="none"
       id="path58" />
    <path
       d="m 293.00897,365.26227 74.16269,42.81787"
       stroke="#000000"
       stroke-width="1.41732"
       stroke-linecap="round"
       stroke-linejoin="round"
       fill="none"
       id="path59" />
    <path
       d="m 290.93335,362.3692 a 7.086614,7.086614 0 0 1 3.5433,-6.1372"
       stroke="#000000"
       stroke-width="1.41732"
       stroke-linecap="round"
       stroke-linejoin="round"
       fill="none"
       id="path60" />
    <path
       d="M 294.47665,356.23203 336.569,331.93"
       stroke="#000000"
       stroke-width="1.41732"
       stroke-linecap="round"
       stroke-linejoin="round"
       fill="none"
       id="path61" />
    <path
       d="m 375.72598,457.6138 a 7.086614,7.086614 0 0 1 -7.08664,0"
       stroke="#000000"
       stroke-width="1.41732"
       stroke-linecap="round"
       stroke-linejoin="round"
       fill="none"
       id="path62" />
    <path
       d="M 414.27502,375.09882 340.1123,332.28098"
       stroke="#000000"
       stroke-width="1.41732"
       stroke-linecap="round"
       stroke-linejoin="round"
       fill="none"
       id="path63" />
    <path
       d="M 368.63934,457.6138 294.47665,414.79593"
       stroke="#000000"
       stroke-width="1.41732"
       stroke-linecap="round"
       stroke-linejoin="round"
       fill="none"
       id="path64" />
    <path
       d="m 419.286,383.7781 a 3.569536,3.569536 0 0 0 2.0756,-2.8931"
       stroke="#000000"
       stroke-width="1.41732"
       stroke-linecap="round"
       stroke-linejoin="round"
       fill="none"
       id="path65" />
    <path
       d="m 419.286,383.7781 v 46.2896"
       stroke="#000000"
       stroke-width="1.41732"
       stroke-linecap="round"
       stroke-linejoin="round"
       fill="none"
       id="path66" />
    <path
       d="m 290.93335,408.65875 a 3.569536,3.569536 0 0 0 2.07562,2.8931"
       stroke="#000000"
       stroke-width="1.41732"
       stroke-linecap="round"
       stroke-linejoin="round"
       fill="none"
       id="path67" />
    <path
       d="m 421.3616,427.1746 a 7.086614,7.086614 0 0 1 -3.5433,6.13717"
       stroke="#000000"
       stroke-width="1.41732"
       stroke-linecap="round"
       stroke-linejoin="round"
       fill="none"
       id="path68" />
    <path
       d="m 377.19366,408.08014 a 11.076015,11.076015 0 0 0 -5.01098,-8.67929"
       stroke="#000000"
       stroke-width="1.41732"
       stroke-linecap="round"
       stroke-linejoin="round"
       fill="none"
       id="path69" />
    <path
       d="m 336.569,331.92996 a 7.086614,7.086614 0 0 1 7.0866,0"
       stroke="#000000"
       stroke-width="1.41732"
       stroke-linecap="round"
       stroke-linejoin="round"
       fill="none"
       id="path70" />
    <path
       d="m 293.00897,411.55185 a 3.569536,3.569536 0 0 0 1.46768,3.24411"
       stroke="#000000"
       stroke-width="1.41732"
       stroke-linecap="round"
       stroke-linejoin="round"
       fill="none"
       id="path71" />
    <path
       d="m 340.1123,332.28098 a 3.6452935,3.6452935 0 0 0 -3.4345,-0.41008"
       stroke="#000000"
       stroke-width="1.41732"
       stroke-linecap="round"
       stroke-linejoin="round"
       fill="none"
       id="path72" />
    <path
       d="m 377.19366,454.36972 a 3.569536,3.569536 0 0 1 -1.46768,3.24408"
       stroke="#000000"
       stroke-width="1.41732"
       stroke-linecap="round"
       stroke-linejoin="round"
       fill="none"
       id="path73" />
    <path
       d="m 377.19366,408.08014 v 46.28958"
       stroke="#000000"
       stroke-width="1.41732"
       stroke-linecap="round"
       stroke-linejoin="round"
       fill="none"
       id="path74" />
    <path
       d="m 421.36163,380.885 v 46.2896"
       stroke="#000000"
       stroke-width="1.41732"
       stroke-linecap="round"
       stroke-linejoin="round"
       fill="none"
       id="path75" />
    <path
       d="M 290.93335,408.65878 V 362.36917"
       stroke="#000000"
       stroke-width="1.41732"
       stroke-linecap="round"
       stroke-linejoin="round"
       fill="none"
       id="path76" />
    <path
       d="m 298.01996,356.58298 74.16272,42.81787"
       stroke="#000000"
       stroke-width="1.41732"
       stroke-linecap="round"
       stroke-linejoin="round"
       fill="none"
       id="path77" />
  </g>
</svg>
