<?xml version="1.0" encoding="UTF-8" standalone="no"?>
<svg
   version="1.1"
   width="131.8456pt"
   height="128.99915pt"
   viewBox="0 0 131.84559 128.99915"
   overflow="visible"
   id="svg77"
   sodipodi:docname="capsule_5.svg"
   inkscape:version="1.3.2 (091e20e, 2023-11-25, custom)"
   xmlns:inkscape="http://www.inkscape.org/namespaces/inkscape"
   xmlns:sodipodi="http://sodipodi.sourceforge.net/DTD/sodipodi-0.dtd"
   xmlns="http://www.w3.org/2000/svg"
   xmlns:svg="http://www.w3.org/2000/svg">
  <defs
     id="defs77" />
  <sodipodi:namedview
     id="namedview77"
     pagecolor="#ffffff"
     bordercolor="#000000"
     borderopacity="0.25"
     inkscape:showpageshadow="2"
     inkscape:pageopacity="0.0"
     inkscape:pagecheckerboard="0"
     inkscape:deskcolor="#d1d1d1"
     inkscape:document-units="pt"
     showgrid="false"
     inkscape:zoom="0.74315655"
     inkscape:cx="156.09093"
     inkscape:cy="64.589352"
     inkscape:window-width="1920"
     inkscape:window-height="1010"
     inkscape:window-x="640"
     inkscape:window-y="-6"
     inkscape:window-maximized="1"
     inkscape:current-layer="svg77" />
  <g
     id="window"
     transform="translate(-180.73505,-372.25301)">
    <path
       d="m 278.8937,476.58356 c 1.22364,0.53984 2.70762,0.61224 4.14747,0.39564 1.43988,-0.21657 2.83563,-0.72206 4.3042,-1.58146 3.21927,-1.88404 6.78839,-5.46894 9.28116,-9.79572 2.49273,-4.32675 3.90921,-9.39535 3.81597,-12.84094"
       stroke="#000000"
       stroke-width="0.708661"
       stroke-linecap="round"
       stroke-linejoin="round"
       fill="none"
       id="path1" />
    <path
       d="m 301.77875,453.53256 c 0.0951,3.44269 -1.32703,8.51994 -3.81598,12.84098 -2.48892,4.32101 -6.04471,7.88583 -9.28412,9.80166 -1.61969,0.95792 -3.16035,1.50357 -4.72421,1.63608 -1.56388,0.13252 -3.15106,-0.14813 -4.42554,-0.84738 -2.549,-1.3984 -3.84726,-4.47107 -3.80728,-8.3872 0.04,-3.91618 1.41815,-8.67582 3.81598,-12.84098 2.3978,-4.16512 5.8152,-7.73578 9.21258,-9.72522 3.39737,-1.9894 6.77466,-2.3976 9.21259,-0.91257 2.43799,1.48499 3.93661,4.86313 3.81598,8.43463 z"
       stroke="#000000"
       stroke-width="0.708661"
       stroke-linecap="round"
       stroke-linejoin="round"
       fill="none"
       id="path2" />
    <path
       d="m 300.4425,452.76108 a 9.772267,9.772267 0 0 0 -3.1721,-8.00688"
       stroke="#000000"
       stroke-width="0.708661"
       stroke-linecap="round"
       stroke-linejoin="round"
       fill="none"
       id="path3" />
  </g>
  <g
     id="door"
     transform="translate(-180.73505,-372.25301)">
    <path
       d="m 239.64246,380.6265 -4.00879,2.31448"
       stroke="#000000"
       stroke-width="0.708661"
       stroke-linecap="round"
       stroke-linejoin="round"
       fill="none"
       id="path4" />
    <path
       d="m 251.66882,392.19888 v 3.30228"
       stroke="#000000"
       stroke-width="0.708661"
       stroke-linecap="round"
       stroke-linejoin="round"
       fill="none"
       id="path5" />
    <path
       d="m 251.66882,401.17044 v 5.66928"
       stroke="#000000"
       stroke-width="0.708661"
       stroke-linecap="butt"
       stroke-linejoin="round"
       fill="none"
       id="path6" />
    <path
       d="m 251.66882,412.50903 v 5.66927"
       stroke="#000000"
       stroke-width="0.708661"
       stroke-linecap="butt"
       stroke-linejoin="round"
       fill="none"
       id="path7" />
    <path
       d="m 251.66882,423.84763 v 5.66925"
       stroke="#000000"
       stroke-width="0.708661"
       stroke-linecap="butt"
       stroke-linejoin="round"
       fill="none"
       id="path8" />
    <path
       d="m 251.66882,435.1862 v 3.30226"
       stroke="#000000"
       stroke-width="0.708661"
       stroke-linecap="round"
       stroke-linejoin="round"
       fill="none"
       id="path9" />
    <path
       d="m 235.63367,382.94098 5.56271,3.21164"
       stroke="#000000"
       stroke-width="0.708661"
       stroke-linecap="round"
       stroke-linejoin="round"
       fill="none"
       id="path10" />
    <path
       d="m 246.10614,388.98727 5.56268,3.21161"
       stroke="#000000"
       stroke-width="0.708661"
       stroke-linecap="round"
       stroke-linejoin="round"
       fill="none"
       id="path11" />
    <path
       d="m 255.67764,389.8844 -4.00882,2.31448"
       stroke="#000000"
       stroke-width="0.708661"
       stroke-linecap="round"
       stroke-linejoin="round"
       fill="none"
       id="path12" />
    <path
       d="m 255.67764,436.17398 -5.56271,-3.21164"
       stroke="#000000"
       stroke-width="0.708661"
       stroke-linecap="round"
       stroke-linejoin="round"
       fill="none"
       id="path13" />
    <path
       d="m 245.20517,430.1277 -5.56271,-3.21165"
       stroke="#000000"
       stroke-width="0.708661"
       stroke-linecap="round"
       stroke-linejoin="round"
       fill="none"
       id="path14" />
    <path
       d="m 255.67764,436.17398 -4.00882,2.31448"
       stroke="#000000"
       stroke-width="0.708661"
       stroke-linecap="round"
       stroke-linejoin="round"
       fill="none"
       id="path15" />
    <path
       d="m 251.66882,438.48846 -5.56268,-3.21164"
       stroke="#000000"
       stroke-width="0.708661"
       stroke-linecap="round"
       stroke-linejoin="round"
       fill="none"
       id="path16" />
    <path
       d="m 241.19638,432.44217 -5.56271,-3.21164"
       stroke="#000000"
       stroke-width="0.708661"
       stroke-linecap="round"
       stroke-linejoin="round"
       fill="none"
       id="path17" />
    <path
       d="M 255.67764,436.17398 V 432.8717"
       stroke="#000000"
       stroke-width="0.708661"
       stroke-linecap="round"
       stroke-linejoin="round"
       fill="none"
       id="path18" />
    <path
       d="m 255.67764,427.20242 v -5.66928"
       stroke="#000000"
       stroke-width="0.708661"
       stroke-linecap="butt"
       stroke-linejoin="round"
       fill="none"
       id="path19" />
    <path
       d="m 255.67764,415.86383 v -5.66928"
       stroke="#000000"
       stroke-width="0.708661"
       stroke-linecap="butt"
       stroke-linejoin="round"
       fill="none"
       id="path20" />
    <path
       d="M 255.67764,404.52524 V 398.856"
       stroke="#000000"
       stroke-width="0.708661"
       stroke-linecap="butt"
       stroke-linejoin="round"
       fill="none"
       id="path21" />
    <path
       d="M 255.67764,393.18668 V 389.8844"
       stroke="#000000"
       stroke-width="0.708661"
       stroke-linecap="round"
       stroke-linejoin="round"
       fill="none"
       id="path22" />
    <path
       d="m 255.67764,389.8844 -5.56271,-3.2116"
       stroke="#000000"
       stroke-width="0.708661"
       stroke-linecap="round"
       stroke-linejoin="round"
       fill="none"
       id="path23" />
    <path
       d="m 245.20517,383.83813 -5.56271,-3.21163"
       stroke="#000000"
       stroke-width="0.708661"
       stroke-linecap="round"
       stroke-linejoin="round"
       fill="none"
       id="path24" />
    <path
       d="m 235.63367,429.23053 v -3.30225"
       stroke="#000000"
       stroke-width="0.708661"
       stroke-linecap="round"
       stroke-linejoin="round"
       fill="none"
       id="path25" />
    <path
       d="M 235.63367,420.25897 V 414.5897"
       stroke="#000000"
       stroke-width="0.708661"
       stroke-linecap="butt"
       stroke-linejoin="round"
       fill="none"
       id="path26" />
    <path
       d="m 235.63367,408.92038 v -5.66925"
       stroke="#000000"
       stroke-width="0.708661"
       stroke-linecap="butt"
       stroke-linejoin="round"
       fill="none"
       id="path27" />
    <path
       d="m 235.63367,397.58182 v -5.66928"
       stroke="#000000"
       stroke-width="0.708661"
       stroke-linecap="butt"
       stroke-linejoin="round"
       fill="none"
       id="path28" />
    <path
       d="m 235.63367,386.24323 v -3.30225"
       stroke="#000000"
       stroke-width="0.708661"
       stroke-linecap="round"
       stroke-linejoin="round"
       fill="none"
       id="path29" />
    <path
       d="M 239.64246,426.91605 V 423.6138"
       stroke="#000000"
       stroke-width="0.708661"
       stroke-linecap="round"
       stroke-linejoin="round"
       fill="none"
       id="path30" />
    <path
       d="m 239.64246,417.9445 v -5.6693"
       stroke="#000000"
       stroke-width="0.708661"
       stroke-linecap="butt"
       stroke-linejoin="round"
       fill="none"
       id="path31" />
    <path
       d="m 239.64246,406.60593 v -5.66928"
       stroke="#000000"
       stroke-width="0.708661"
       stroke-linecap="butt"
       stroke-linejoin="round"
       fill="none"
       id="path32" />
    <path
       d="m 239.64246,395.26733 v -5.66928"
       stroke="#000000"
       stroke-width="0.708661"
       stroke-linecap="butt"
       stroke-linejoin="round"
       fill="none"
       id="path33" />
    <path
       d="M 239.64246,383.92874 V 380.6265"
       stroke="#000000"
       stroke-width="0.708661"
       stroke-linecap="round"
       stroke-linejoin="round"
       fill="none"
       id="path34" />
    <path
       d="m 239.64246,426.91605 -4.00879,2.31448"
       stroke="#000000"
       stroke-width="0.708661"
       stroke-linecap="round"
       stroke-linejoin="round"
       fill="none"
       id="path35" />
  </g>
  <g
     id="shell"
     transform="translate(-180.73505,-372.25301)">
    <path
       d="m 262.69302,441.38156 42.09235,-24.30203"
       stroke="#000000"
       stroke-width="1.41732"
       stroke-linecap="round"
       stroke-linejoin="round"
       fill="none"
       id="path36" />
    <path
       d="m 309.79636,472.0484 -42.09232,24.302"
       stroke="#000000"
       stroke-width="1.41732"
       stroke-linecap="round"
       stroke-linejoin="round"
       fill="none"
       id="path37" />
    <path
       d="m 230.62267,374.2617 -42.09234,24.30202"
       stroke="#000000"
       stroke-width="1.41732"
       stroke-linecap="round"
       stroke-linejoin="round"
       fill="none"
       id="path38" />
    <path
       d="m 262.69302,441.38156 a 11.076015,11.076015 0 0 0 -5.01098,8.67929"
       stroke="#000000"
       stroke-width="1.41732"
       stroke-linecap="round"
       stroke-linejoin="round"
       fill="none"
       id="path39" />
    <path
       d="m 309.79636,425.75882 a 11.076015,11.076015 0 0 0 -5.01099,-8.67929"
       stroke="#000000"
       stroke-width="1.41732"
       stroke-linecap="round"
       stroke-linejoin="round"
       fill="none"
       id="path40" />
    <path
       d="m 267.70404,450.06085 42.09232,-24.30203"
       stroke="#000000"
       stroke-width="1.41732"
       stroke-linecap="round"
       stroke-linejoin="round"
       fill="none"
       id="path41" />
    <path
       d="m 257.68204,496.3504 a 11.076015,11.076015 0 0 0 10.02196,0"
       stroke="#000000"
       stroke-width="1.41732"
       stroke-linecap="round"
       stroke-linejoin="round"
       fill="none"
       id="path42" />
    <path
       d="M 308.32867,475.29248 266.23636,499.5945"
       stroke="#000000"
       stroke-width="1.41732"
       stroke-linecap="round"
       stroke-linejoin="round"
       fill="none"
       id="path43" />
    <path
       d="m 183.51933,407.24298 a 11.076015,11.076015 0 0 1 5.011,-8.67928"
       stroke="#000000"
       stroke-width="1.41732"
       stroke-linecap="round"
       stroke-linejoin="round"
       fill="none"
       id="path44" />
    <path
       d="m 188.53033,398.5637 a 3.569536,3.569536 0 0 0 -3.5433,-0.351"
       stroke="#000000"
       stroke-width="1.41732"
       stroke-linecap="round"
       stroke-linejoin="round"
       fill="none"
       id="path45" />
    <path
       d="M 257.68204,450.06085 V 496.3504"
       stroke="#000000"
       stroke-width="1.41732"
       stroke-linecap="round"
       stroke-linejoin="round"
       fill="none"
       id="path46" />
    <path
       d="m 308.32867,416.72855 a 7.086614,7.086614 0 0 1 3.54331,6.13717"
       stroke="#000000"
       stroke-width="1.41732"
       stroke-linecap="round"
       stroke-linejoin="round"
       fill="none"
       id="path47" />
    <path
       d="m 308.32867,475.29248 a 3.569536,3.569536 0 0 0 1.46769,-3.24408"
       stroke="#000000"
       stroke-width="1.41732"
       stroke-linecap="round"
       stroke-linejoin="round"
       fill="none"
       id="path48" />
    <path
       d="m 259.14972,499.5945 a 3.5434542,3.5434542 0 0 1 -1.46768,-3.2441"
       stroke="#000000"
       stroke-width="1.41732"
       stroke-linecap="round"
       stroke-linejoin="round"
       fill="none"
       id="path49" />
    <path
       d="m 234.16599,373.91068 a 3.5434542,3.5434542 0 0 0 -3.54332,0.35102"
       stroke="#000000"
       stroke-width="1.41732"
       stroke-linecap="round"
       stroke-linejoin="round"
       fill="none"
       id="path50" />
    <path
       d="m 257.68204,450.06085 a 11.076015,11.076015 0 0 0 10.02196,0"
       stroke="#000000"
       stroke-width="1.41732"
       stroke-linecap="round"
       stroke-linejoin="round"
       fill="none"
       id="path51" />
    <path
       d="m 309.79636,472.0484 a 3.569536,3.569536 0 0 0 2.07562,-2.8931"
       stroke="#000000"
       stroke-width="1.41732"
       stroke-linecap="round"
       stroke-linejoin="round"
       fill="none"
       id="path52" />
    <path
       d="m 234.16599,373.91068 74.16268,42.81787"
       stroke="#000000"
       stroke-width="1.41732"
       stroke-linecap="round"
       stroke-linejoin="round"
       fill="none"
       id="path53" />
    <path
       d="M 257.68204,496.3504 183.51933,453.53256"
       stroke="#000000"
       stroke-width="1.41732"
       stroke-linecap="round"
       stroke-linejoin="round"
       fill="none"
       id="path54" />
    <path
       d="m 304.78537,417.07953 a 3.569536,3.569536 0 0 1 3.5433,-0.35098"
       stroke="#000000"
       stroke-width="1.41732"
       stroke-linecap="round"
       stroke-linejoin="round"
       fill="none"
       id="path55" />
    <path
       d="m 183.51933,407.243 v 46.28956"
       stroke="#000000"
       stroke-width="1.41732"
       stroke-linecap="round"
       stroke-linejoin="round"
       fill="none"
       id="path56" />
    <path
       d="m 184.98703,456.77664 a 7.086614,7.086614 0 0 1 -3.54332,-6.13717"
       stroke="#000000"
       stroke-width="1.41732"
       stroke-linecap="round"
       stroke-linejoin="round"
       fill="none"
       id="path57" />
    <path
       d="m 183.51933,407.24298 a 3.569536,3.569536 0 0 1 -2.07562,-2.8931"
       stroke="#000000"
       stroke-width="1.41732"
       stroke-linecap="round"
       stroke-linejoin="round"
       fill="none"
       id="path58" />
    <path
       d="m 183.51933,407.243 74.16271,42.81785"
       stroke="#000000"
       stroke-width="1.41732"
       stroke-linecap="round"
       stroke-linejoin="round"
       fill="none"
       id="path59" />
    <path
       d="m 181.44371,404.34988 a 7.086614,7.086614 0 0 1 3.54332,-6.13718"
       stroke="#000000"
       stroke-width="1.41732"
       stroke-linecap="round"
       stroke-linejoin="round"
       fill="none"
       id="path60" />
    <path
       d="m 184.98701,398.2127 42.09235,-24.30202"
       stroke="#000000"
       stroke-width="1.41732"
       stroke-linecap="round"
       stroke-linejoin="round"
       fill="none"
       id="path61" />
    <path
       d="m 266.23633,499.5945 a 7.086614,7.086614 0 0 1 -7.08661,0"
       stroke="#000000"
       stroke-width="1.41732"
       stroke-linecap="round"
       stroke-linejoin="round"
       fill="none"
       id="path62" />
    <path
       d="M 304.78537,417.07953 230.62267,374.2617"
       stroke="#000000"
       stroke-width="1.41732"
       stroke-linecap="round"
       stroke-linejoin="round"
       fill="none"
       id="path63" />
    <path
       d="M 259.14972,499.5945 184.98701,456.77667"
       stroke="#000000"
       stroke-width="1.41732"
       stroke-linecap="round"
       stroke-linejoin="round"
       fill="none"
       id="path64" />
    <path
       d="m 309.79636,425.75882 a 3.569536,3.569536 0 0 0 2.07562,-2.8931"
       stroke="#000000"
       stroke-width="1.41732"
       stroke-linecap="round"
       stroke-linejoin="round"
       fill="none"
       id="path65" />
    <path
       d="M 309.79636,425.75882 V 472.0484"
       stroke="#000000"
       stroke-width="1.41732"
       stroke-linecap="round"
       stroke-linejoin="round"
       fill="none"
       id="path66" />
    <path
       d="m 181.44371,450.63947 a 3.569536,3.569536 0 0 0 2.07562,2.89309"
       stroke="#000000"
       stroke-width="1.41732"
       stroke-linecap="round"
       stroke-linejoin="round"
       fill="none"
       id="path67" />
    <path
       d="m 311.87198,469.1553 a 7.086614,7.086614 0 0 1 -3.54331,6.13718"
       stroke="#000000"
       stroke-width="1.41732"
       stroke-linecap="round"
       stroke-linejoin="round"
       fill="none"
       id="path68" />
    <path
       d="m 267.704,450.06085 a 11.076015,11.076015 0 0 0 -5.01098,-8.67929"
       stroke="#000000"
       stroke-width="1.41732"
       stroke-linecap="round"
       stroke-linejoin="round"
       fill="none"
       id="path69" />
    <path
       d="m 227.07936,373.91068 a 7.086614,7.086614 0 0 1 7.08663,0"
       stroke="#000000"
       stroke-width="1.41732"
       stroke-linecap="round"
       stroke-linejoin="round"
       fill="none"
       id="path70" />
    <path
       d="m 183.51933,453.53256 a 3.569536,3.569536 0 0 0 1.4677,3.24408"
       stroke="#000000"
       stroke-width="1.41732"
       stroke-linecap="round"
       stroke-linejoin="round"
       fill="none"
       id="path71" />
    <path
       d="m 230.62267,374.2617 a 3.6452935,3.6452935 0 0 0 -3.43453,-0.41008"
       stroke="#000000"
       stroke-width="1.41732"
       stroke-linecap="round"
       stroke-linejoin="round"
       fill="none"
       id="path72" />
    <path
       d="m 267.704,496.3504 a 3.569536,3.569536 0 0 1 -1.46767,3.2441"
       stroke="#000000"
       stroke-width="1.41732"
       stroke-linecap="round"
       stroke-linejoin="round"
       fill="none"
       id="path73" />
    <path
       d="M 267.70404,450.06085 V 496.3504"
       stroke="#000000"
       stroke-width="1.41732"
       stroke-linecap="round"
       stroke-linejoin="round"
       fill="none"
       id="path74" />
    <path
       d="M 311.87198,422.86572 V 469.1553"
       stroke="#000000"
       stroke-width="1.41732"
       stroke-linecap="round"
       stroke-linejoin="round"
       fill="none"
       id="path75" />
    <path
       d="M 181.44373,450.63947 V 404.3499"
       stroke="#000000"
       stroke-width="1.41732"
       stroke-linecap="round"
       stroke-linejoin="round"
       fill="none"
       id="path76" />
    <path
       d="m 188.53033,398.56372 74.16269,42.81784"
       stroke="#000000"
       stroke-width="1.41732"
       stroke-linecap="round"
       stroke-linejoin="round"
       fill="none"
       id="path77" />
  </g>
</svg>
