<?xml version="1.0" encoding="UTF-8" standalone="no"?>
<svg
   version="1.1"
   width="131.8456pt"
   height="128.99911pt"
   viewBox="0 0 131.84559 128.99912"
   overflow="visible"
   id="svg81"
   sodipodi:docname="capsule_3.svg"
   inkscape:version="1.3.2 (091e20e, 2023-11-25, custom)"
   xmlns:inkscape="http://www.inkscape.org/namespaces/inkscape"
   xmlns:sodipodi="http://sodipodi.sourceforge.net/DTD/sodipodi-0.dtd"
   xmlns="http://www.w3.org/2000/svg"
   xmlns:svg="http://www.w3.org/2000/svg">
  <defs
     id="defs81" />
  <sodipodi:namedview
     id="namedview81"
     pagecolor="#ffffff"
     bordercolor="#000000"
     borderopacity="0.25"
     inkscape:showpageshadow="2"
     inkscape:pageopacity="0.0"
     inkscape:pagecheckerboard="0"
     inkscape:deskcolor="#d1d1d1"
     inkscape:document-units="pt"
     showgrid="false"
     inkscape:zoom="0.74315655"
     inkscape:cx="123.79626"
     inkscape:cy="108.99453"
     inkscape:window-width="1920"
     inkscape:window-height="1010"
     inkscape:window-x="640"
     inkscape:window-y="-6"
     inkscape:window-maximized="1"
     inkscape:current-layer="svg81" />
  <g
     id="window"
     transform="translate(-204.72553,-339.44654)">
    <path
       d="m 302.7187,392.37372 a 20.504965,20.504965 0 0 0 0.3763,3.80698"
       stroke="#000000"
       stroke-width="0.708661"
       stroke-linecap="round"
       stroke-linejoin="round"
       fill="none"
       id="path1" />
    <path
       d="m 304.7423,401.5948 a 31.647713,31.647713 0 0 0 2.64225,5.00872 22.80585,22.80585 0 0 0 7.86609,8.03868"
       stroke="#000000"
       stroke-width="0.708661"
       stroke-linecap="butt"
       stroke-linejoin="round"
       fill="none"
       id="path2" />
    <path
       d="m 320.50873,416.64822 a 7.298581,7.298581 0 0 0 3.75873,-0.45205"
       stroke="#000000"
       stroke-width="0.708661"
       stroke-linecap="round"
       stroke-linejoin="round"
       fill="none"
       id="path3" />
    <path
       d="m 323.6236,416.62393 a 6.904304,6.904304 0 0 1 -4.06833,0.83512"
       stroke="#000000"
       stroke-width="0.708661"
       stroke-linecap="round"
       stroke-linejoin="round"
       fill="none"
       id="path4" />
    <path
       d="m 314.2451,415.61435 a 22.182983,22.182983 0 0 1 -4.42534,-3.5188 31.722656,31.722656 0 0 1 -6.26254,-9.37292"
       stroke="#000000"
       stroke-width="0.708661"
       stroke-linecap="butt"
       stroke-linejoin="round"
       fill="none"
       id="path5" />
    <path
       d="m 301.83377,397.33136 a 20.799416,20.799416 0 0 1 -0.45135,-4.18616"
       stroke="#000000"
       stroke-width="0.708661"
       stroke-linecap="round"
       stroke-linejoin="round"
       fill="none"
       id="path6" />
    <path
       d="m 305.48123,384.557 a 6.7790093,6.7790093 0 0 1 3.12335,-0.70956"
       stroke="#000000"
       stroke-width="0.708661"
       stroke-linecap="round"
       stroke-linejoin="round"
       fill="none"
       id="path7" />
    <path
       d="m 313.99716,385.3918 a 21.084757,21.084757 0 0 1 4.53494,3.3831 31.784605,31.784605 0 0 1 6.4647,9.23404 20.546436,20.546436 0 0 1 2.4242,10.97296"
       stroke="#000000"
       stroke-width="0.708661"
       stroke-linecap="butt"
       stroke-linejoin="round"
       fill="none"
       id="path8" />
    <path
       d="m 325.9075,414.38284 a 6.6068535,6.6068535 0 0 1 -2.2839,2.24109"
       stroke="#000000"
       stroke-width="0.708661"
       stroke-linecap="round"
       stroke-linejoin="round"
       fill="none"
       id="path9" />
    <path
       d="m 305.8908,384.36685 a 9.772267,9.772267 0 0 0 -3.1721,8.00687"
       stroke="#000000"
       stroke-width="0.708661"
       stroke-linecap="round"
       stroke-linejoin="round"
       fill="none"
       id="path10" />
    <path
       d="m 305.1984,384.71057 0.36596,-0.2113"
       stroke="#000000"
       stroke-width="0.708661"
       stroke-linecap="round"
       stroke-linejoin="round"
       fill="none"
       id="path11" />
    <path
       d="m 324.26746,416.19617 a 6.506612,6.506612 0 0 0 3.06076,-2.72205"
       stroke="#000000"
       stroke-width="0.708661"
       stroke-linecap="round"
       stroke-linejoin="round"
       fill="none"
       id="path12" />
    <path
       d="m 328.76407,408.0502 a 20.817556,20.817556 0 0 0 -0.61899,-5.62088 31.787075,31.787075 0 0 0 -4.7099,-10.24072 20.819248,20.819248 0 0 0 -8.23883,-7.64157"
       stroke="#000000"
       stroke-width="0.708661"
       stroke-linecap="butt"
       stroke-linejoin="round"
       fill="none"
       id="path13" />
    <path
       d="m 309.7789,383.07718 a 6.5066967,6.5066967 0 0 0 -3.8881,1.28967"
       stroke="#000000"
       stroke-width="0.708661"
       stroke-linecap="round"
       stroke-linejoin="round"
       fill="none"
       id="path14" />
    <path
       d="m 301.38242,393.1452 a 9.280793,9.280793 0 0 1 3.81598,-8.43463"
       stroke="#000000"
       stroke-width="0.708661"
       stroke-linecap="round"
       stroke-linejoin="round"
       fill="none"
       id="path15" />
  </g>
  <g
     id="door"
     transform="translate(-204.72553,-339.44654)">
    <path
       d="m 227.55379,358.23517 -5.56272,3.21161"
       stroke="#000000"
       stroke-width="0.708661"
       stroke-linecap="round"
       stroke-linejoin="round"
       fill="none"
       id="path16" />
    <path
       d="m 217.08131,364.2814 -5.56269,3.21164"
       stroke="#000000"
       stroke-width="0.708661"
       stroke-linecap="round"
       stroke-linejoin="round"
       fill="none"
       id="path17" />
    <path
       d="m 227.55379,358.23517 4.0088,2.31448"
       stroke="#000000"
       stroke-width="0.708661"
       stroke-linecap="round"
       stroke-linejoin="round"
       fill="none"
       id="path18" />
    <path
       d="m 211.51862,413.78262 4.00878,2.31448"
       stroke="#000000"
       stroke-width="0.708661"
       stroke-linecap="round"
       stroke-linejoin="round"
       fill="none"
       id="path19" />
    <path
       d="m 215.5274,416.0971 v -3.30227"
       stroke="#000000"
       stroke-width="0.708661"
       stroke-linecap="round"
       stroke-linejoin="round"
       fill="none"
       id="path20" />
    <path
       d="m 215.5274,407.12555 v -5.66931"
       stroke="#000000"
       stroke-width="0.708661"
       stroke-linecap="butt"
       stroke-linejoin="round"
       fill="none"
       id="path21" />
    <path
       d="m 215.5274,395.787 v -5.66932"
       stroke="#000000"
       stroke-width="0.708661"
       stroke-linecap="butt"
       stroke-linejoin="round"
       fill="none"
       id="path22" />
    <path
       d="m 215.5274,384.4484 v -5.66932"
       stroke="#000000"
       stroke-width="0.708661"
       stroke-linecap="butt"
       stroke-linejoin="round"
       fill="none"
       id="path23" />
    <path
       d="m 215.5274,373.1098 v -3.30227"
       stroke="#000000"
       stroke-width="0.708661"
       stroke-linecap="round"
       stroke-linejoin="round"
       fill="none"
       id="path24" />
    <path
       d="m 215.5274,369.80753 5.56272,-3.21163"
       stroke="#000000"
       stroke-width="0.708661"
       stroke-linecap="round"
       stroke-linejoin="round"
       fill="none"
       id="path25" />
    <path
       d="m 225.99988,363.76126 5.56271,-3.21161"
       stroke="#000000"
       stroke-width="0.708661"
       stroke-linecap="round"
       stroke-linejoin="round"
       fill="none"
       id="path26" />
    <path
       d="m 211.51862,367.49304 4.00878,2.31449"
       stroke="#000000"
       stroke-width="0.708661"
       stroke-linecap="round"
       stroke-linejoin="round"
       fill="none"
       id="path27" />
    <path
       d="m 231.56259,360.54965 v 3.30225"
       stroke="#000000"
       stroke-width="0.708661"
       stroke-linecap="round"
       stroke-linejoin="round"
       fill="none"
       id="path28" />
    <path
       d="m 231.56259,369.52118 v 5.66928"
       stroke="#000000"
       stroke-width="0.708661"
       stroke-linecap="butt"
       stroke-linejoin="round"
       fill="none"
       id="path29" />
    <path
       d="m 231.56259,380.85974 v 5.66931"
       stroke="#000000"
       stroke-width="0.708661"
       stroke-linecap="butt"
       stroke-linejoin="round"
       fill="none"
       id="path30" />
    <path
       d="m 231.56259,392.19836 v 5.66929"
       stroke="#000000"
       stroke-width="0.708661"
       stroke-linecap="butt"
       stroke-linejoin="round"
       fill="none"
       id="path31" />
    <path
       d="m 231.56259,403.53696 v 3.30224"
       stroke="#000000"
       stroke-width="0.708661"
       stroke-linecap="round"
       stroke-linejoin="round"
       fill="none"
       id="path32" />
    <path
       d="m 231.56259,406.8392 -5.56271,3.21164"
       stroke="#000000"
       stroke-width="0.708661"
       stroke-linecap="round"
       stroke-linejoin="round"
       fill="none"
       id="path33" />
    <path
       d="m 221.09012,412.8855 -5.56272,3.2116"
       stroke="#000000"
       stroke-width="0.708661"
       stroke-linecap="round"
       stroke-linejoin="round"
       fill="none"
       id="path34" />
    <path
       d="m 211.51862,367.49304 v 3.30228"
       stroke="#000000"
       stroke-width="0.708661"
       stroke-linecap="round"
       stroke-linejoin="round"
       fill="none"
       id="path35" />
    <path
       d="m 211.51862,376.4646 v 5.6693"
       stroke="#000000"
       stroke-width="0.708661"
       stroke-linecap="butt"
       stroke-linejoin="round"
       fill="none"
       id="path36" />
    <path
       d="m 211.51862,387.8032 v 5.6693"
       stroke="#000000"
       stroke-width="0.708661"
       stroke-linecap="butt"
       stroke-linejoin="round"
       fill="none"
       id="path37" />
    <path
       d="m 211.51862,399.14178 v 5.66929"
       stroke="#000000"
       stroke-width="0.708661"
       stroke-linecap="butt"
       stroke-linejoin="round"
       fill="none"
       id="path38" />
    <path
       d="m 211.51862,410.48035 v 3.30227"
       stroke="#000000"
       stroke-width="0.708661"
       stroke-linecap="round"
       stroke-linejoin="round"
       fill="none"
       id="path39" />
  </g>
  <g
     id="shell"
     transform="translate(-204.72553,-339.44654)">
    <path
       d="m 212.52081,365.7572 74.16269,42.81787"
       stroke="#000000"
       stroke-width="1.41732"
       stroke-linecap="round"
       stroke-linejoin="round"
       fill="none"
       id="path40" />
    <path
       d="M 333.78683,439.24188 291.69452,463.5439"
       stroke="#000000"
       stroke-width="1.41732"
       stroke-linecap="round"
       stroke-linejoin="round"
       fill="none"
       id="path41" />
    <path
       d="M 328.77585,384.273 254.61316,341.45517"
       stroke="#000000"
       stroke-width="1.41732"
       stroke-linecap="round"
       stroke-linejoin="round"
       fill="none"
       id="path42" />
    <path
       d="m 207.50981,374.4365 a 3.569536,3.569536 0 0 1 -2.07562,-2.8931"
       stroke="#000000"
       stroke-width="1.41732"
       stroke-linecap="round"
       stroke-linejoin="round"
       fill="none"
       id="path43" />
    <path
       d="m 328.77585,384.27304 a 3.569536,3.569536 0 0 1 3.5433,-0.35101"
       stroke="#000000"
       stroke-width="1.41732"
       stroke-linecap="round"
       stroke-linejoin="round"
       fill="none"
       id="path44" />
    <path
       d="m 291.69452,417.25436 42.09231,-24.30203"
       stroke="#000000"
       stroke-width="1.41732"
       stroke-linecap="round"
       stroke-linejoin="round"
       fill="none"
       id="path45" />
    <path
       d="m 281.67252,417.25433 a 11.076015,11.076015 0 0 0 10.02198,0"
       stroke="#000000"
       stroke-width="1.41732"
       stroke-linecap="round"
       stroke-linejoin="round"
       fill="none"
       id="path46" />
    <path
       d="m 291.6945,417.25433 a 11.076015,11.076015 0 0 0 -5.011,-8.67929"
       stroke="#000000"
       stroke-width="1.41732"
       stroke-linecap="round"
       stroke-linejoin="round"
       fill="none"
       id="path47" />
    <path
       d="m 207.50981,374.4365 a 11.076015,11.076015 0 0 1 5.011,-8.6793"
       stroke="#000000"
       stroke-width="1.41732"
       stroke-linecap="round"
       stroke-linejoin="round"
       fill="none"
       id="path48" />
    <path
       d="m 207.50981,420.72607 a 3.569536,3.569536 0 0 0 1.4677,3.24408"
       stroke="#000000"
       stroke-width="1.41732"
       stroke-linecap="round"
       stroke-linejoin="round"
       fill="none"
       id="path49" />
    <path
       d="M 281.67252,417.25436 V 463.5439"
       stroke="#000000"
       stroke-width="1.41732"
       stroke-linecap="round"
       stroke-linejoin="round"
       fill="none"
       id="path50" />
    <path
       d="m 258.15646,341.1042 a 3.5434542,3.5434542 0 0 0 -3.54332,0.35097"
       stroke="#000000"
       stroke-width="1.41732"
       stroke-linecap="round"
       stroke-linejoin="round"
       fill="none"
       id="path51" />
    <path
       d="m 332.31915,442.486 -42.09231,24.30202"
       stroke="#000000"
       stroke-width="1.41732"
       stroke-linecap="round"
       stroke-linejoin="round"
       fill="none"
       id="path52" />
    <path
       d="M 208.97751,365.40622 251.06985,341.1042"
       stroke="#000000"
       stroke-width="1.41732"
       stroke-linecap="round"
       stroke-linejoin="round"
       fill="none"
       id="path53" />
    <path
       d="m 332.31915,442.486 a 3.569536,3.569536 0 0 0 1.46768,-3.24412"
       stroke="#000000"
       stroke-width="1.41732"
       stroke-linecap="round"
       stroke-linejoin="round"
       fill="none"
       id="path54" />
    <path
       d="m 333.78683,392.95233 a 3.569536,3.569536 0 0 0 2.07563,-2.8931"
       stroke="#000000"
       stroke-width="1.41732"
       stroke-linecap="round"
       stroke-linejoin="round"
       fill="none"
       id="path55" />
    <path
       d="m 333.78683,439.24188 a 3.569536,3.569536 0 0 0 2.07563,-2.89308"
       stroke="#000000"
       stroke-width="1.41732"
       stroke-linecap="round"
       stroke-linejoin="round"
       fill="none"
       id="path56" />
    <path
       d="M 335.86246,390.05923 V 436.3488"
       stroke="#000000"
       stroke-width="1.41732"
       stroke-linecap="round"
       stroke-linejoin="round"
       fill="none"
       id="path57" />
    <path
       d="M 281.67252,463.5439 207.50983,420.72607"
       stroke="#000000"
       stroke-width="1.41732"
       stroke-linecap="round"
       stroke-linejoin="round"
       fill="none"
       id="path58" />
    <path
       d="m 281.67252,463.5439 a 11.076015,11.076015 0 0 0 10.02198,0"
       stroke="#000000"
       stroke-width="1.41732"
       stroke-linecap="round"
       stroke-linejoin="round"
       fill="none"
       id="path59" />
    <path
       d="m 290.2268,466.788 a 7.086614,7.086614 0 0 1 -7.0866,0"
       stroke="#000000"
       stroke-width="1.41732"
       stroke-linecap="round"
       stroke-linejoin="round"
       fill="none"
       id="path60" />
    <path
       d="m 207.50983,374.4365 v 46.28957"
       stroke="#000000"
       stroke-width="1.41732"
       stroke-linecap="round"
       stroke-linejoin="round"
       fill="none"
       id="path61" />
    <path
       d="m 286.6835,408.57504 a 11.076015,11.076015 0 0 0 -5.01098,8.67929"
       stroke="#000000"
       stroke-width="1.41732"
       stroke-linecap="round"
       stroke-linejoin="round"
       fill="none"
       id="path62" />
    <path
       d="m 207.50983,374.4365 74.16269,42.81786"
       stroke="#000000"
       stroke-width="1.41732"
       stroke-linecap="round"
       stroke-linejoin="round"
       fill="none"
       id="path63" />
    <path
       d="m 258.15643,341.1042 74.16272,42.81783"
       stroke="#000000"
       stroke-width="1.41732"
       stroke-linecap="round"
       stroke-linejoin="round"
       fill="none"
       id="path64" />
    <path
       d="m 333.78683,392.95233 v 46.28955"
       stroke="#000000"
       stroke-width="1.41732"
       stroke-linecap="round"
       stroke-linejoin="round"
       fill="none"
       id="path65" />
    <path
       d="m 208.97751,423.97015 a 7.086614,7.086614 0 0 1 -3.54332,-6.13717"
       stroke="#000000"
       stroke-width="1.41732"
       stroke-linecap="round"
       stroke-linejoin="round"
       fill="none"
       id="path66" />
    <path
       d="m 283.1402,466.788 a 3.5434542,3.5434542 0 0 1 -1.46768,-3.2441"
       stroke="#000000"
       stroke-width="1.41732"
       stroke-linecap="round"
       stroke-linejoin="round"
       fill="none"
       id="path67" />
    <path
       d="M 283.1402,466.78802 208.97751,423.97015"
       stroke="#000000"
       stroke-width="1.41732"
       stroke-linecap="round"
       stroke-linejoin="round"
       fill="none"
       id="path68" />
    <path
       d="m 251.06984,341.1042 a 7.086614,7.086614 0 0 1 7.08662,0"
       stroke="#000000"
       stroke-width="1.41732"
       stroke-linecap="round"
       stroke-linejoin="round"
       fill="none"
       id="path69" />
    <path
       d="m 291.6945,463.5439 a 3.569536,3.569536 0 0 1 -1.4677,3.2441"
       stroke="#000000"
       stroke-width="1.41732"
       stroke-linecap="round"
       stroke-linejoin="round"
       fill="none"
       id="path70" />
    <path
       d="m 205.43419,371.5434 a 7.086614,7.086614 0 0 1 3.54332,-6.13718"
       stroke="#000000"
       stroke-width="1.41732"
       stroke-linecap="round"
       stroke-linejoin="round"
       fill="none"
       id="path71" />
    <path
       d="m 333.78683,392.95233 a 11.076015,11.076015 0 0 0 -5.01098,-8.67929"
       stroke="#000000"
       stroke-width="1.41732"
       stroke-linecap="round"
       stroke-linejoin="round"
       fill="none"
       id="path72" />
    <path
       d="M 291.69452,417.25436 V 463.5439"
       stroke="#000000"
       stroke-width="1.41732"
       stroke-linecap="round"
       stroke-linejoin="round"
       fill="none"
       id="path73" />
    <path
       d="m 335.86246,436.3488 a 7.086614,7.086614 0 0 1 -3.54331,6.1372"
       stroke="#000000"
       stroke-width="1.41732"
       stroke-linecap="round"
       stroke-linejoin="round"
       fill="none"
       id="path74" />
    <path
       d="m 212.52081,365.7572 a 3.569536,3.569536 0 0 0 -3.5433,-0.35098"
       stroke="#000000"
       stroke-width="1.41732"
       stroke-linecap="round"
       stroke-linejoin="round"
       fill="none"
       id="path75" />
    <path
       d="m 254.61314,341.45517 a 3.6452935,3.6452935 0 0 0 -3.43451,-0.41003"
       stroke="#000000"
       stroke-width="1.41732"
       stroke-linecap="round"
       stroke-linejoin="round"
       fill="none"
       id="path76" />
    <path
       d="m 332.31915,383.92203 a 7.086614,7.086614 0 0 1 3.54331,6.1372"
       stroke="#000000"
       stroke-width="1.41732"
       stroke-linecap="round"
       stroke-linejoin="round"
       fill="none"
       id="path77" />
    <path
       d="M 254.61316,341.45517 212.52081,365.7572"
       stroke="#000000"
       stroke-width="1.41732"
       stroke-linecap="round"
       stroke-linejoin="round"
       fill="none"
       id="path78" />
    <path
       d="m 205.43419,417.83298 a 3.569536,3.569536 0 0 0 2.07562,2.89309"
       stroke="#000000"
       stroke-width="1.41732"
       stroke-linecap="round"
       stroke-linejoin="round"
       fill="none"
       id="path79" />
    <path
       d="M 286.6835,408.57507 328.77585,384.273"
       stroke="#000000"
       stroke-width="1.41732"
       stroke-linecap="round"
       stroke-linejoin="round"
       fill="none"
       id="path80" />
    <path
       d="M 205.4342,417.83298 V 371.5434"
       stroke="#000000"
       stroke-width="1.41732"
       stroke-linecap="round"
       stroke-linejoin="round"
       fill="none"
       id="path81" />
  </g>
</svg>
