<?xml version="1.0" encoding="UTF-8" standalone="no"?>
<svg
   version="1.1"
   width="189.92537pt"
   height="302.41138pt"
   viewBox="0 0 189.92537 302.40419"
   id="svg4"
   sodipodi:docname="cylindric-capital.svg"
   inkscape:version="1.3.2 (091e20e, 2023-11-25, custom)"
   xmlns:inkscape="http://www.inkscape.org/namespaces/inkscape"
   xmlns:sodipodi="http://sodipodi.sourceforge.net/DTD/sodipodi-0.dtd"
   xmlns="http://www.w3.org/2000/svg"
   xmlns:svg="http://www.w3.org/2000/svg">
  <sodipodi:namedview
     id="namedview4"
     pagecolor="#ffffff"
     bordercolor="#000000"
     borderopacity="0.25"
     inkscape:showpageshadow="2"
     inkscape:pageopacity="0.0"
     inkscape:pagecheckerboard="0"
     inkscape:deskcolor="#d1d1d1"
     inkscape:document-units="pt"
     inkscape:zoom="0.74313887"
     inkscape:cx="84.775541"
     inkscape:cy="191.08138"
     inkscape:window-width="1920"
     inkscape:window-height="1010"
     inkscape:window-x="-6"
     inkscape:window-y="1077"
     inkscape:window-maximized="1"
     inkscape:current-layer="svg4" />
  <defs
     id="defs1" />
  <g
     id="capital"
     transform="translate(-233.98473,-277.61593)">
    <g
       id="capital::boundary">
      <path
         d="m 236.81953,294.83154 c 0,-7.99474 3.1075,-12.31694 8.14203,-13.78004 0.0125,-0.004 0.025,-0.007 0.0375,-0.0108 4.9244,-1.41452 11.55434,-0.0944 18.71886,2.75892 0.0282,0.0113 0.0564,0.0225 0.0847,0.0338 9.20226,3.6782 19.72129,10.03492 30.39036,17.7291 0.0694,0.05 0.1388,0.10016 0.2082,0.15033 10.6452,7.69284 21.8443,17.0022 32.99416,27.30444 0.18144,0.16767 0.363,0.33567 0.54461,0.50403 11.28745,10.46362 22.81198,22.2108 33.90848,34.76068 0.11591,0.13104 0.23175,0.26224 0.34759,0.3935 5.5412,6.28045 11.02512,12.82006 16.32093,19.53204 5.39083,6.83243 10.63717,13.90762 15.53243,21.07883 0.013,0.0191 0.0261,0.0381 0.0391,0.0572 7.34873,10.77017 14.04697,21.96801 18.97397,32.64947 0.007,0.0156 0.0144,0.0313 0.0216,0.0469 5.00845,10.86795 7.9823,20.8041 7.98745,28.61264 0,0.007 0,0.0135 0,0.0202 v 57.2877 c 0.2471,14.8345 -11.50766,28.9211 -26.9831,37.61024 -14.91915,8.99542 -39.7234,15.59466 -65.06673,15.61186 -12.67169,0.009 -25.47812,-1.62834 -36.66651,-4.40837 -11.18838,-2.78003 -20.75876,-6.70313 -28.6318,-11.24613 -3.93656,-2.2715 -7.44873,-4.69796 -10.6868,-7.42886 -3.2381,-2.73094 -6.20204,-5.76634 -8.63478,-9.00594 -4.86546,-6.4792 -7.60608,-13.7753 -7.58225,-21.1328 z"
         stroke="#000000"
         stroke-width="5.66929"
         stroke-linecap="round"
         stroke-linejoin="round"
         fill="none"
         id="path1" />
    </g>
    <path
       d="m 421.0715,466.6728 c 0,7.80935 -2.97293,12.58892 -7.9831,14.69204"
       stroke="#000000"
       stroke-width="2.83465"
       stroke-linecap="round"
       stroke-linejoin="round"
       fill="none"
       id="path2" />
    <path
       d="m 413.08405,481.36664 c -4.92905,2.06701 -11.63611,1.48532 -18.99565,-0.80258 -4.90636,-1.52533 -10.16625,-3.8252 -15.57143,-6.69146 -5.2815,-2.80067 -10.75003,-6.16713 -16.27594,-9.9587 -0.1308,-0.0898 -0.26166,-0.1798 -0.39258,-0.27 -11.08151,-7.64018 -22.58985,-17.11952 -33.8627,-27.70802 -0.19687,-0.1849 -0.39365,-0.37015 -0.59039,-0.55575 -11.13466,-10.50461 -22.31849,-22.35388 -32.95063,-34.99918 -0.084,-0.0999 -0.16783,-0.19977 -0.25173,-0.29968 -10.66907,-12.71222 -21.1881,-26.72321 -30.39036,-41.02725 -0.0158,-0.0246 -0.0316,-0.0492 -0.0474,-0.0738 -7.17878,-11.16508 -13.82315,-22.9358 -18.7561,-34.11872 -0.004,-0.009 -0.008,-0.0181 -0.012,-0.0272 -5.04528,-11.44313 -8.16232,-21.97676 -8.16757,-29.9825 0,-0.007 0,-0.0135 0,-0.0203"
       stroke="#000000"
       stroke-width="2.83465"
       stroke-linecap="round"
       stroke-linejoin="round"
       fill="none"
       id="path3" />
    <path
       d="m 405.30948,472.29694 c 4.54822,-1.87954 7.25342,-6.19437 7.25809,-13.2822 0,-0.006 0,-0.0122 0,-0.0183 0,-7.08856 -2.69817,-16.12317 -7.23847,-26.00467 -0.007,-0.0142 -0.0131,-0.0284 -0.0196,-0.0426 -4.46695,-9.71298 -10.53964,-19.89873 -17.1991,-29.6904 -0.0117,-0.0172 -0.0234,-0.0345 -0.0352,-0.0517 -4.42783,-6.50746 -9.17753,-12.93846 -14.09308,-19.18561 -4.82892,-6.13699 -9.81795,-12.09655 -14.81915,-17.77691 -0.10453,-0.11874 -0.20914,-0.23744 -0.3138,-0.35599 -10.01912,-11.35522 -20.42748,-21.98361 -30.62703,-31.45023 -0.16407,-0.15228 -0.32819,-0.30432 -0.49227,-0.45614 -10.12944,-9.37058 -20.30806,-17.83136 -29.98823,-24.8176 -0.0631,-0.0456 -0.12627,-0.0911 -0.18939,-0.13653 -9.70685,-6.99082 -19.28052,-12.75735 -27.65888,-16.08405 -0.0259,-0.0103 -0.0518,-0.0205 -0.0776,-0.0307 -6.52265,-2.58041 -12.55826,-3.7626 -17.04178,-2.46243 -0.0114,0.003 -0.0228,0.007 -0.0342,0.01 -4.58435,1.3447 -7.41159,5.28398 -7.41637,12.53816 -1e-5,0.006 -1e-5,0.0123 -1e-5,0.0184 0,7.26596 2.82814,16.81738 7.41638,27.19833 0.004,0.008 0.007,0.0165 0.0109,0.0247 4.48587,10.1445 10.53113,20.82031 17.06507,30.94995 0.0145,0.0224 0.029,0.0449 0.0434,0.0674 8.37513,12.97666 17.94699,25.68494 27.65348,37.21903 0.0763,0.0907 0.15261,0.1813 0.22894,0.27182 9.66699,11.4663 19.83108,22.21185 29.94683,31.74283 0.17792,0.16763 0.3558,0.3349 0.53367,0.50176 10.18573,9.55552 20.57973,18.12046 30.58643,25.04056 0.11816,0.0817 0.23632,0.16324 0.3544,0.24451 4.9877,3.43297 9.96322,6.51144 14.7799,9.08102 4.92957,2.62975 9.69272,4.72655 14.13233,6.12491 6.67123,2.10132 12.75589,2.66164 17.23031,0.81442 z"
       stroke="#000000"
       stroke-width="2.83465"
       stroke-linecap="round"
       stroke-linejoin="round"
       fill="none"
       id="path4" />
  </g>
</svg>
