<?xml version="1.0" encoding="UTF-8" standalone="no"?>
<svg
   version="1.1"
   width="189.93741pt"
   height="557.53418pt"
   viewBox="0 0 189.9374 557.52092"
   id="svg27"
   sodipodi:docname="cylindric-shaft_3.svg"
   inkscape:version="1.3.2 (091e20e, 2023-11-25, custom)"
   xmlns:inkscape="http://www.inkscape.org/namespaces/inkscape"
   xmlns:sodipodi="http://sodipodi.sourceforge.net/DTD/sodipodi-0.dtd"
   xmlns="http://www.w3.org/2000/svg"
   xmlns:svg="http://www.w3.org/2000/svg">
  <sodipodi:namedview
     id="namedview27"
     pagecolor="#ffffff"
     bordercolor="#000000"
     borderopacity="0.25"
     inkscape:showpageshadow="2"
     inkscape:pageopacity="0.0"
     inkscape:pagecheckerboard="0"
     inkscape:deskcolor="#d1d1d1"
     inkscape:document-units="pt"
     inkscape:zoom="0.74313887"
     inkscape:cx="104.28737"
     inkscape:cy="257.01791"
     inkscape:window-width="1920"
     inkscape:window-height="1010"
     inkscape:window-x="-6"
     inkscape:window-y="1077"
     inkscape:window-maximized="1"
     inkscape:current-layer="svg27" />
  <defs
     id="defs1" />
  <g
     id="windows"
     transform="translate(-219.2678,-228.58915)">
    <path
       d="m 241.2793,546.4122 -11.73769,-11.2025 v -46.28953 l 11.73769,11.20239 z"
       stroke="#000000"
       stroke-width="2.83465"
       stroke-linecap="round"
       stroke-linejoin="round"
       fill="none"
       id="path1" />
    <path
       d="m 276.2528,540.9624 -19.4031,-6.7768 v -46.28954 l 19.4031,6.77676 z"
       stroke="#000000"
       stroke-width="2.83465"
       stroke-linecap="round"
       stroke-linejoin="round"
       fill="none"
       id="path2" />
    <path
       d="m 241.2793,419.1158 -11.73769,-11.20238 v -46.28958 l 11.73769,11.20239 z"
       stroke="#000000"
       stroke-width="2.83465"
       stroke-linecap="round"
       stroke-linejoin="round"
       fill="none"
       id="path3" />
    <path
       d="m 371.6215,406.8893 -19.40312,6.77678 v -46.28955 l 19.40312,-6.77677 z"
       stroke="#000000"
       stroke-width="2.83465"
       stroke-linecap="round"
       stroke-linejoin="round"
       fill="none"
       id="path4" />
    <path
       d="m 398.92953,429.12946 -11.73767,11.20239 V 394.0423 l 11.73767,-11.2024 z"
       stroke="#000000"
       stroke-width="2.83465"
       stroke-linecap="round"
       stroke-linejoin="round"
       fill="none"
       id="path5" />
    <path
       d="m 276.2528,413.66608 -19.4031,-6.77678 v -46.28954 l 19.4031,6.77677 z"
       stroke="#000000"
       stroke-width="2.83465"
       stroke-linecap="round"
       stroke-linejoin="round"
       fill="none"
       id="path6" />
    <path
       d="m 241.2793,673.70844 -11.73769,-11.2024 V 616.2165 l 11.73769,11.2024 z"
       stroke="#000000"
       stroke-width="2.83465"
       stroke-linecap="round"
       stroke-linejoin="round"
       fill="none"
       id="path7" />
    <path
       d="m 398.92953,620.0739 -11.73767,11.20247 v -46.28961 l 11.73767,-11.20236 z"
       stroke="#000000"
       stroke-width="2.83465"
       stroke-linecap="round"
       stroke-linejoin="round"
       fill="none"
       id="path8" />
    <path
       d="m 371.6215,597.8338 -19.40312,6.7768 V 558.321 l 19.40312,-6.77675 z"
       stroke="#000000"
       stroke-width="2.83465"
       stroke-linecap="round"
       stroke-linejoin="round"
       fill="none"
       id="path9" />
    <path
       d="m 398.92953,556.4258 -11.73767,11.2024 v -46.2896 l 11.73767,-11.20237 z"
       stroke="#000000"
       stroke-width="2.83465"
       stroke-linecap="round"
       stroke-linejoin="round"
       fill="none"
       id="path10" />
    <path
       d="m 398.92953,747.37024 -11.73767,11.20246 v -46.2896 l 11.73767,-11.20235 z"
       stroke="#000000"
       stroke-width="2.83465"
       stroke-linecap="round"
       stroke-linejoin="round"
       fill="none"
       id="path11" />
    <path
       d="m 276.2528,604.6106 -19.4031,-6.7768 v -46.28955 l 19.4031,6.77675 z"
       stroke="#000000"
       stroke-width="2.83465"
       stroke-linecap="round"
       stroke-linejoin="round"
       fill="none"
       id="path12" />
    <path
       d="M 398.92953,492.77765 387.19186,503.98 v -46.28954 l 11.73767,-11.20239 z"
       stroke="#000000"
       stroke-width="2.83465"
       stroke-linecap="round"
       stroke-linejoin="round"
       fill="none"
       id="path13" />
    <path
       d="m 276.2528,477.31424 -19.4031,-6.77676 v -46.28956 l 19.4031,6.77678 z"
       stroke="#000000"
       stroke-width="2.83465"
       stroke-linecap="round"
       stroke-linejoin="round"
       fill="none"
       id="path14" />
    <path
       d="m 371.6215,470.53748 -19.40312,6.77676 V 431.0247 l 19.40312,-6.77678 z"
       stroke="#000000"
       stroke-width="2.83465"
       stroke-linecap="round"
       stroke-linejoin="round"
       fill="none"
       id="path15" />
    <path
       d="m 241.2793,610.0603 -11.73769,-11.2024 v -46.2896 l 11.73769,11.20245 z"
       stroke="#000000"
       stroke-width="2.83465"
       stroke-linecap="round"
       stroke-linejoin="round"
       fill="none"
       id="path16" />
    <path
       d="m 276.2528,668.2587 -19.4031,-6.77677 v -46.28949 l 19.4031,6.77666 z"
       stroke="#000000"
       stroke-width="2.83465"
       stroke-linecap="round"
       stroke-linejoin="round"
       fill="none"
       id="path17" />
    <path
       d="m 276.2528,731.9069 -19.4031,-6.7768 v -46.2896 l 19.4031,6.7768 z"
       stroke="#000000"
       stroke-width="2.83465"
       stroke-linecap="round"
       stroke-linejoin="round"
       fill="none"
       id="path18" />
    <path
       d="m 371.6215,725.1301 -19.40312,6.7768 v -46.2896 l 19.40312,-6.7768 z"
       stroke="#000000"
       stroke-width="2.83465"
       stroke-linecap="round"
       stroke-linejoin="round"
       fill="none"
       id="path19" />
    <path
       d="m 398.92953,683.7221 -11.73767,11.2024 v -46.28955 l 11.73767,-11.20239 z"
       stroke="#000000"
       stroke-width="2.83465"
       stroke-linecap="round"
       stroke-linejoin="round"
       fill="none"
       id="path20" />
    <path
       d="m 371.6215,661.48193 -19.40312,6.77677 v -46.2896 l 19.40312,-6.77666 z"
       stroke="#000000"
       stroke-width="2.83465"
       stroke-linecap="round"
       stroke-linejoin="round"
       fill="none"
       id="path21" />
    <path
       d="M 241.2793,737.35657 229.54161,726.15424 V 679.8646 l 11.73769,11.2025 z"
       stroke="#000000"
       stroke-width="2.83465"
       stroke-linecap="round"
       stroke-linejoin="round"
       fill="none"
       id="path22" />
    <path
       d="m 371.6215,534.1856 -19.40312,6.7768 v -46.28958 l 19.40312,-6.77676 z"
       stroke="#000000"
       stroke-width="2.83465"
       stroke-linecap="round"
       stroke-linejoin="round"
       fill="none"
       id="path23" />
    <path
       d="M 241.2793,482.76395 229.54161,471.56158 V 425.272 l 11.73769,11.2024 z"
       stroke="#000000"
       stroke-width="2.83465"
       stroke-linecap="round"
       stroke-linejoin="round"
       fill="none"
       id="path24" />
  </g>
  <g
     id="shaft"
     transform="translate(-219.2678,-228.58915)">
    <path
       d="M 222.1096,284.53275 V 730.0699 c -0.31494,13.60576 10.09667,28.11797 26.98307,37.6102 11.79658,7.0252 29.17247,12.4374 47.17003,14.5567 17.99755,2.11934 36.61682,0.9457 53.228,-3.0268 16.61114,-3.97245 31.2143,-10.7439 41.34484,-19.58994 10.13059,-8.84601 15.78861,-19.76673 15.52603,-29.55016 V 284.53275"
       stroke="#000000"
       stroke-width="5.66929"
       stroke-linecap="round"
       stroke-linejoin="round"
       fill="none"
       id="path25" />
    <path
       d="m 222.1096,284.53275 c 0.02,-5.62705 1.51627,-11.56711 5.06577,-17.39463 3.54948,-5.82748 9.15216,-11.5424 16.021,-16.41148 13.73765,-9.73819 32.54003,-16.09305 53.06633,-18.36086 20.5263,-2.26778 42.7766,-0.4485 61.40075,5.25849 18.62418,5.70697 33.62215,15.30166 41.68545,26.55395 8.0633,11.25228 9.19193,24.16218 3.04575,35.79448 -6.14615,11.63225 -19.5671,21.9869 -36.97659,28.78505 -17.40956,6.79813 -38.80756,10.03983 -60.2124,8.70783 -21.40486,-1.33198 -42.8165,-7.23761 -56.11299,-15.32258"
       stroke="#000000"
       stroke-width="5.66929"
       stroke-linecap="round"
       stroke-linejoin="round"
       fill="none"
       id="path26" />
    <path
       d="m 249.09267,322.143 c -16.8864,-9.4922 -27.29801,-24.00442 -26.98307,-37.61025"
       stroke="#000000"
       stroke-width="5.66929"
       stroke-linecap="round"
       stroke-linejoin="round"
       fill="none"
       id="path27" />
  </g>
</svg>
