<?xml version="1.0" encoding="UTF-8" standalone="no"?>
<svg
   version="1.1"
   width="189.93741pt"
   height="684.92407pt"
   viewBox="0 0 189.9374 684.90779"
   id="svg34"
   sodipodi:docname="cylindric-shaft_4.svg"
   inkscape:version="1.3.2 (091e20e, 2023-11-25, custom)"
   xmlns:inkscape="http://www.inkscape.org/namespaces/inkscape"
   xmlns:sodipodi="http://sodipodi.sourceforge.net/DTD/sodipodi-0.dtd"
   xmlns="http://www.w3.org/2000/svg"
   xmlns:svg="http://www.w3.org/2000/svg">
  <sodipodi:namedview
     id="namedview34"
     pagecolor="#ffffff"
     bordercolor="#000000"
     borderopacity="0.25"
     inkscape:showpageshadow="2"
     inkscape:pageopacity="0.0"
     inkscape:pagecheckerboard="0"
     inkscape:deskcolor="#d1d1d1"
     inkscape:document-units="pt"
     inkscape:zoom="0.74313887"
     inkscape:cx="251.63534"
     inkscape:cy="353.90424"
     inkscape:window-width="1920"
     inkscape:window-height="1010"
     inkscape:window-x="-6"
     inkscape:window-y="1077"
     inkscape:window-maximized="1"
     inkscape:current-layer="svg34" />
  <defs
     id="defs1" />
  <g
     id="windows"
     transform="translate(-109.09382,-155.76185)">
    <path
       d="m 288.75555,589.7723 -11.73767,11.20243 V 554.6851 l 11.73767,-11.2024 z"
       stroke="#000000"
       stroke-width="2.83465"
       stroke-linecap="round"
       stroke-linejoin="round"
       fill="none"
       id="path1" />
    <path
       d="m 131.10532,494.8944 -11.73768,-11.20238 v -46.28955 l 11.73768,11.20239 z"
       stroke="#000000"
       stroke-width="2.83465"
       stroke-linecap="round"
       stroke-linejoin="round"
       fill="none"
       id="path2" />
    <path
       d="m 131.10532,367.5981 -11.73768,-11.20238 v -46.28958 l 11.73768,11.20239 z"
       stroke="#000000"
       stroke-width="2.83465"
       stroke-linecap="round"
       stroke-linejoin="round"
       fill="none"
       id="path3" />
    <path
       d="m 166.07883,574.3089 -19.40311,-6.77673 v -46.28962 l 19.40311,6.7768 z"
       stroke="#000000"
       stroke-width="2.83465"
       stroke-linecap="round"
       stroke-linejoin="round"
       fill="none"
       id="path4" />
    <path
       d="m 166.07883,383.36444 -19.40311,-6.77676 V 330.2981 l 19.40311,6.77676 z"
       stroke="#000000"
       stroke-width="2.83465"
       stroke-linecap="round"
       stroke-linejoin="round"
       fill="none"
       id="path5" />
    <path
       d="m 166.07883,765.25336 -19.40311,-6.77676 v -46.2895 l 19.40311,6.7767 z"
       stroke="#000000"
       stroke-width="2.83465"
       stroke-linecap="round"
       stroke-linejoin="round"
       fill="none"
       id="path6" />
    <path
       d="m 261.4475,822.1248 -19.40311,6.77675 V 782.612 l 19.40311,-6.7768 z"
       stroke="#000000"
       stroke-width="2.83465"
       stroke-linecap="round"
       stroke-linejoin="round"
       fill="none"
       id="path7" />
    <path
       d="m 166.07883,701.6052 -19.40311,-6.7767 v -46.2896 l 19.40311,6.7768 z"
       stroke="#000000"
       stroke-width="2.83465"
       stroke-linecap="round"
       stroke-linejoin="round"
       fill="none"
       id="path8" />
    <path
       d="m 288.75555,653.4205 -11.73767,11.20236 v -46.28961 l 11.73767,-11.20239 z"
       stroke="#000000"
       stroke-width="2.83465"
       stroke-linecap="round"
       stroke-linejoin="round"
       fill="none"
       id="path9" />
    <path
       d="M 131.10532,622.19073 119.36764,610.98834 V 564.6988 l 11.73768,11.2023 z"
       stroke="#000000"
       stroke-width="2.83465"
       stroke-linecap="round"
       stroke-linejoin="round"
       fill="none"
       id="path10" />
    <path
       d="m 261.4475,567.53217 -19.40311,6.77673 v -46.28955 l 19.40311,-6.7768 z"
       stroke="#000000"
       stroke-width="2.83465"
       stroke-linecap="round"
       stroke-linejoin="round"
       fill="none"
       id="path11" />
    <path
       d="m 288.75555,717.0686 -11.73767,11.2024 v -46.28955 l 11.73767,-11.2024 z"
       stroke="#000000"
       stroke-width="2.83465"
       stroke-linecap="round"
       stroke-linejoin="round"
       fill="none"
       id="path12" />
    <path
       d="m 146.93452,584.98114 19.14431,6.68636 v 46.2896 l -19.40311,-6.7768 v -46.28955"
       stroke="#000000"
       stroke-width="2.83465"
       stroke-linecap="round"
       stroke-linejoin="round"
       fill="none"
       id="path13" />
    <path
       d="m 288.75555,780.7168 -11.73767,11.2023 v -46.28946 l 11.73767,-11.20244 z"
       stroke="#000000"
       stroke-width="2.83465"
       stroke-linecap="round"
       stroke-linejoin="round"
       fill="none"
       id="path14" />
    <path
       d="m 261.4475,758.4766 -19.40311,6.77676 V 718.9638 l 19.40311,-6.7767 z"
       stroke="#000000"
       stroke-width="2.83465"
       stroke-linecap="round"
       stroke-linejoin="round"
       fill="none"
       id="path15" />
    <path
       d="m 288.75555,526.12415 -11.73767,11.20239 v -46.28958 l 11.73767,-11.2024 z"
       stroke="#000000"
       stroke-width="2.83465"
       stroke-linecap="round"
       stroke-linejoin="round"
       fill="none"
       id="path16" />
    <path
       d="M 131.10532,813.13525 119.36764,801.9328 v -46.2895 l 11.73768,11.20234 z"
       stroke="#000000"
       stroke-width="2.83465"
       stroke-linecap="round"
       stroke-linejoin="round"
       fill="none"
       id="path17" />
    <path
       d="M 131.10532,749.48706 119.36764,738.28467 V 691.9951 l 11.73768,11.2024 z"
       stroke="#000000"
       stroke-width="2.83465"
       stroke-linecap="round"
       stroke-linejoin="round"
       fill="none"
       id="path18" />
    <path
       d="m 131.10532,431.24625 -11.73768,-11.2024 V 373.7543 l 11.73768,11.2024 z"
       stroke="#000000"
       stroke-width="2.83465"
       stroke-linecap="round"
       stroke-linejoin="round"
       fill="none"
       id="path19" />
    <path
       d="m 288.75555,462.47598 -11.73767,11.2024 V 427.3888 l 11.73767,-11.2024 z"
       stroke="#000000"
       stroke-width="2.83465"
       stroke-linecap="round"
       stroke-linejoin="round"
       fill="none"
       id="path20" />
    <path
       d="m 288.75555,335.17966 -11.73767,11.20239 V 300.0925 l 11.73767,-11.2024 z"
       stroke="#000000"
       stroke-width="2.83465"
       stroke-linecap="round"
       stroke-linejoin="round"
       fill="none"
       id="path21" />
    <path
       d="m 261.4475,376.58768 -19.40311,6.77676 v -46.28958 l 19.40311,-6.77676 z"
       stroke="#000000"
       stroke-width="2.83465"
       stroke-linecap="round"
       stroke-linejoin="round"
       fill="none"
       id="path22" />
    <path
       d="M 131.10532,558.5426 119.36764,547.3402 V 501.05063 L 131.10532,512.253 Z"
       stroke="#000000"
       stroke-width="2.83465"
       stroke-linecap="round"
       stroke-linejoin="round"
       fill="none"
       id="path23" />
    <path
       d="m 166.07883,510.66077 -19.40311,-6.7768 v -46.28955 l 19.40311,6.77678 z"
       stroke="#000000"
       stroke-width="2.83465"
       stroke-linecap="round"
       stroke-linejoin="round"
       fill="none"
       id="path24" />
    <path
       d="m 261.4475,503.88397 -19.40311,6.7768 V 464.3712 l 19.40311,-6.77678 z"
       stroke="#000000"
       stroke-width="2.83465"
       stroke-linecap="round"
       stroke-linejoin="round"
       fill="none"
       id="path25" />
    <path
       d="m 261.4475,440.2358 -19.40311,6.7768 v -46.28958 l 19.40311,-6.77676 z"
       stroke="#000000"
       stroke-width="2.83465"
       stroke-linecap="round"
       stroke-linejoin="round"
       fill="none"
       id="path26" />
    <path
       d="m 288.75555,398.82782 -11.73767,11.20238 v -46.28957 l 11.73767,-11.20236 z"
       stroke="#000000"
       stroke-width="2.83465"
       stroke-linecap="round"
       stroke-linejoin="round"
       fill="none"
       id="path27" />
    <path
       d="m 166.07883,447.0126 -19.40311,-6.7768 v -46.28954 l 19.40311,6.77676 z"
       stroke="#000000"
       stroke-width="2.83465"
       stroke-linecap="round"
       stroke-linejoin="round"
       fill="none"
       id="path28" />
    <path
       d="m 131.10532,685.8389 -11.73768,-11.2024 v -46.2896 l 11.73768,11.2024 z"
       stroke="#000000"
       stroke-width="2.83465"
       stroke-linecap="round"
       stroke-linejoin="round"
       fill="none"
       id="path29" />
    <path
       d="m 261.4475,694.8285 -19.40311,6.7767 v -46.2895 l 19.40311,-6.7768 z"
       stroke="#000000"
       stroke-width="2.83465"
       stroke-linecap="round"
       stroke-linejoin="round"
       fill="none"
       id="path30" />
    <path
       d="m 166.07883,828.90155 -19.40311,-6.77675 v -46.2896 l 19.40311,6.7768 z"
       stroke="#000000"
       stroke-width="2.83465"
       stroke-linecap="round"
       stroke-linejoin="round"
       fill="none"
       id="path31" />
    <path
       d="m 261.4475,631.1803 -19.40311,6.7768 v -46.2896 l 19.40311,-6.77675 z"
       stroke="#000000"
       stroke-width="2.83465"
       stroke-linecap="round"
       stroke-linejoin="round"
       fill="none"
       id="path32" />
  </g>
  <g
     id="shaft"
     transform="translate(-109.09382,-155.76185)">
    <path
       d="m 296.1876,211.799 v 572.83345 c 0.26256,9.78345 -5.39546,20.70415 -15.52604,29.55015 -10.13056,8.8461 -24.7337,15.6175 -41.34486,19.59 -16.6112,3.97246 -35.23043,5.1461 -53.22797,3.0268 -17.99757,-2.11935 -35.37346,-7.5316 -47.17003,-14.5567 -16.8864,-9.4923 -27.29803,-24.0045 -26.98308,-37.61025 V 211.799"
       stroke="#000000"
       stroke-width="5.66929"
       stroke-linecap="round"
       stroke-linejoin="round"
       fill="none"
       id="path33" />
    <path
       d="m 138.9187,249.40924 c -7.67316,-4.41548 -14.5713,-10.02243 -19.40497,-16.4848 -4.83366,-6.46237 -7.60286,-13.78021 -7.57811,-21.12544 0.0247,-7.34526 2.84346,-14.71795 7.57811,-21.12548 4.73465,-6.40752 11.38526,-11.84988 19.40497,-16.48482 8.0197,-4.63493 17.4085,-8.46243 28.55255,-11.20346 11.14408,-2.74102 24.04341,-4.39555 36.70439,-4.39874 25.32198,-0.006 49.69054,6.59262 65.33606,15.65879 3.91133,2.26654 7.2775,4.68728 10.45888,7.41499 3.18134,2.72772 6.17786,5.7624 8.62532,9.00366 4.8949,6.48254 7.59368,13.79136 7.59593,21.13109 0.001,3.66986 -0.67175,7.34746 -1.95907,10.90287 -1.28729,3.55544 -3.18894,6.98868 -5.62326,10.22654 -2.43436,3.23786 -5.40146,6.2803 -8.63892,9.01326 -3.23746,2.73295 -6.7453,5.15642 -10.6835,7.42798 -7.8764,4.5431 -17.47429,8.47852 -28.63512,11.24705 -11.16083,2.76853 -23.8846,4.37017 -36.59035,4.37522 -12.70576,0.005 -25.39351,-1.58658 -36.59036,-4.37522 -11.19685,-2.78866 -20.90283,-6.77441 -28.55255,-11.20349 z"
       stroke="#000000"
       stroke-width="5.66929"
       stroke-linecap="round"
       stroke-linejoin="round"
       fill="none"
       id="path34" />
  </g>
</svg>
