<?xml version="1.0" encoding="UTF-8" standalone="no"?>
<svg
   version="1.1"
   width="130.87509pt"
   height="596.88757pt"
   viewBox="0 0 130.87509 596.87338"
   id="svg46"
   sodipodi:docname="cylindric-shaft_2.svg"
   inkscape:version="1.3.2 (091e20e, 2023-11-25, custom)"
   xmlns:inkscape="http://www.inkscape.org/namespaces/inkscape"
   xmlns:sodipodi="http://sodipodi.sourceforge.net/DTD/sodipodi-0.dtd"
   xmlns="http://www.w3.org/2000/svg"
   xmlns:svg="http://www.w3.org/2000/svg">
  <sodipodi:namedview
     id="namedview46"
     pagecolor="#ffffff"
     bordercolor="#000000"
     borderopacity="0.25"
     inkscape:showpageshadow="2"
     inkscape:pageopacity="0.0"
     inkscape:pagecheckerboard="0"
     inkscape:deskcolor="#d1d1d1"
     inkscape:document-units="pt"
     inkscape:zoom="0.74313887"
     inkscape:cx="72.664749"
     inkscape:cy="464.24701"
     inkscape:window-width="1920"
     inkscape:window-height="1010"
     inkscape:window-x="640"
     inkscape:window-y="-6"
     inkscape:window-maximized="1"
     inkscape:current-layer="svg46" />
  <defs
     id="defs1" />
  <g
     id="windows"
     transform="translate(-243.46566,-73.041317)">
    <path
       d="m 366.45212,325.5604 -7.97562,7.61184 V 301.7191 l 7.97562,-7.6119 z"
       stroke="#000000"
       stroke-width="2.83465"
       stroke-linecap="round"
       stroke-linejoin="round"
       fill="none"
       id="path1" />
    <path
       d="m 347.8966,267.20038 -13.18414,4.6047 v -31.45314 l 13.18414,-4.6047 z"
       stroke="#000000"
       stroke-width="2.83465"
       stroke-linecap="round"
       stroke-linejoin="round"
       fill="none"
       id="path2" />
    <path
       d="m 283.09485,271.80508 -13.18415,-4.6047 v -31.45314 l 13.18415,4.6047 z"
       stroke="#000000"
       stroke-width="2.83465"
       stroke-linecap="round"
       stroke-linejoin="round"
       fill="none"
       id="path3" />
    <path
       d="m 347.8966,656.4332 -13.18414,4.6047 v -31.4531 l 13.18414,-4.6047 z"
       stroke="#000000"
       stroke-width="2.83465"
       stroke-linecap="round"
       stroke-linejoin="round"
       fill="none"
       id="path4" />
    <path
       d="m 347.8966,223.9523 -13.18414,4.6047 v -31.45315 l 13.18414,-4.60472 z"
       stroke="#000000"
       stroke-width="2.83465"
       stroke-linecap="round"
       stroke-linejoin="round"
       fill="none"
       id="path5" />
    <path
       d="m 269.9107,192.49913 13.18415,4.60472 V 228.557 l -13.18415,-4.6047 v -31.03082"
       stroke="#000000"
       stroke-width="2.83465"
       stroke-linecap="round"
       stroke-linejoin="round"
       fill="none"
       id="path6" />
    <path
       d="m 259.3308,217.84401 -7.97559,-7.61189 v -31.45316 l 7.97559,7.61188 z"
       stroke="#000000"
       stroke-width="2.83465"
       stroke-linecap="round"
       stroke-linejoin="round"
       fill="none"
       id="path7" />
    <path
       d="m 366.45212,239.06418 -7.97562,7.61188 V 215.2229 l 7.97562,-7.61188 z"
       stroke="#000000"
       stroke-width="2.83465"
       stroke-linecap="round"
       stroke-linejoin="round"
       fill="none"
       id="path8" />
    <path
       d="m 283.09485,488.04556 -13.18415,-4.6047 V 451.9877 l 13.18415,4.6047 z"
       stroke="#000000"
       stroke-width="2.83465"
       stroke-linecap="round"
       stroke-linejoin="round"
       fill="none"
       id="path9" />
    <path
       d="m 259.3308,261.09207 -7.97559,-7.61185 v -31.45317 l 7.97559,7.61188 z"
       stroke="#000000"
       stroke-width="2.83465"
       stroke-linecap="round"
       stroke-linejoin="round"
       fill="none"
       id="path10" />
    <path
       d="m 366.45212,412.05655 -7.97562,7.61191 v -31.45319 l 7.97562,-7.61187 z"
       stroke="#000000"
       stroke-width="2.83465"
       stroke-linecap="round"
       stroke-linejoin="round"
       fill="none"
       id="path11" />
    <path
       d="m 347.8966,440.19275 -13.18414,4.60475 v -31.4532 l 13.18414,-4.6047 z"
       stroke="#000000"
       stroke-width="2.83465"
       stroke-linecap="round"
       stroke-linejoin="round"
       fill="none"
       id="path12" />
    <path
       d="m 259.3308,477.33255 -7.97559,-7.61185 v -31.45318 l 7.97559,7.61188 z"
       stroke="#000000"
       stroke-width="2.83465"
       stroke-linecap="round"
       stroke-linejoin="round"
       fill="none"
       id="path13" />
    <path
       d="M 283.09485,444.7975 269.9107,440.19275 V 408.7396 l 13.18415,4.6047 z"
       stroke="#000000"
       stroke-width="2.83465"
       stroke-linecap="round"
       stroke-linejoin="round"
       fill="none"
       id="path14" />
    <path
       d="m 259.3308,347.5883 -7.97559,-7.6119 v -31.45315 l 7.97559,7.61185 z"
       stroke="#000000"
       stroke-width="2.83465"
       stroke-linecap="round"
       stroke-linejoin="round"
       fill="none"
       id="path15" />
    <path
       d="M 283.09485,358.30127 269.9107,353.69656 V 322.2434 l 13.18415,4.6047 z"
       stroke="#000000"
       stroke-width="2.83465"
       stroke-linecap="round"
       stroke-linejoin="round"
       fill="none"
       id="path16" />
    <path
       d="m 347.8966,396.94467 -13.18414,4.60471 v -31.45316 l 13.18414,-4.6047 z"
       stroke="#000000"
       stroke-width="2.83465"
       stroke-linecap="round"
       stroke-linejoin="round"
       fill="none"
       id="path17" />
    <path
       d="m 347.8966,353.69656 -13.18414,4.60471 V 326.8481 l 13.18414,-4.6047 z"
       stroke="#000000"
       stroke-width="2.83465"
       stroke-linecap="round"
       stroke-linejoin="round"
       fill="none"
       id="path18" />
    <path
       d="m 283.09485,315.0532 -13.18415,-4.6047 v -31.4532 l 13.18415,4.60474 z"
       stroke="#000000"
       stroke-width="2.83465"
       stroke-linecap="round"
       stroke-linejoin="round"
       fill="none"
       id="path19" />
    <path
       d="m 366.45212,282.3123 -7.97562,7.61186 V 258.471 l 7.97562,-7.61188 z"
       stroke="#000000"
       stroke-width="2.83465"
       stroke-linecap="round"
       stroke-linejoin="round"
       fill="none"
       id="path20" />
    <path
       d="m 347.8966,483.44086 -13.18414,4.6047 V 456.5924 l 13.18414,-4.6047 z"
       stroke="#000000"
       stroke-width="2.83465"
       stroke-linecap="round"
       stroke-linejoin="round"
       fill="none"
       id="path21" />
    <path
       d="m 259.3308,304.34018 -7.97559,-7.61188 v -31.45315 l 7.97559,7.61187 z"
       stroke="#000000"
       stroke-width="2.83465"
       stroke-linecap="round"
       stroke-linejoin="round"
       fill="none"
       id="path22" />
    <path
       d="m 366.45212,195.8161 -7.97562,7.61186 v -31.45315 l 7.97562,-7.61188 z"
       stroke="#000000"
       stroke-width="2.83465"
       stroke-linecap="round"
       stroke-linejoin="round"
       fill="none"
       id="path23" />
    <path
       d="m 259.3308,650.32495 -7.97559,-7.61185 v -31.4532 l 7.97559,7.61187 z"
       stroke="#000000"
       stroke-width="2.83465"
       stroke-linecap="round"
       stroke-linejoin="round"
       fill="none"
       id="path24" />
    <path
       d="m 347.8966,613.1851 -13.18414,4.60476 V 586.3367 l 13.18414,-4.6047 z"
       stroke="#000000"
       stroke-width="2.83465"
       stroke-linecap="round"
       stroke-linejoin="round"
       fill="none"
       id="path25" />
    <path
       d="m 366.45212,585.04895 -7.97562,7.61185 v -31.45316 l 7.97562,-7.61184 z"
       stroke="#000000"
       stroke-width="2.83465"
       stroke-linecap="round"
       stroke-linejoin="round"
       fill="none"
       id="path26" />
    <path
       d="M 283.09485,617.78986 269.9107,613.1851 V 581.732 l 13.18415,4.6047 z"
       stroke="#000000"
       stroke-width="2.83465"
       stroke-linecap="round"
       stroke-linejoin="round"
       fill="none"
       id="path27" />
    <path
       d="m 259.3308,607.07684 -7.97559,-7.61187 V 568.0118 l 7.97559,7.6119 z"
       stroke="#000000"
       stroke-width="2.83465"
       stroke-linecap="round"
       stroke-linejoin="round"
       fill="none"
       id="path28" />
    <path
       d="m 259.3308,563.82874 -7.97559,-7.61188 V 524.7637 l 7.97559,7.6119 z"
       stroke="#000000"
       stroke-width="2.83465"
       stroke-linecap="round"
       stroke-linejoin="round"
       fill="none"
       id="path29" />
    <path
       d="m 347.8966,526.68896 -13.18414,4.60474 v -31.45322 l 13.18414,-4.6047 z"
       stroke="#000000"
       stroke-width="2.83465"
       stroke-linecap="round"
       stroke-linejoin="round"
       fill="none"
       id="path30" />
    <path
       d="M 283.09485,574.54175 269.9107,569.9371 v -31.4532 l 13.18415,4.6047 z"
       stroke="#000000"
       stroke-width="2.83465"
       stroke-linecap="round"
       stroke-linejoin="round"
       fill="none"
       id="path31" />
    <path
       d="m 347.8966,569.9371 -13.18414,4.60465 V 543.0886 l 13.18414,-4.6047 z"
       stroke="#000000"
       stroke-width="2.83465"
       stroke-linecap="round"
       stroke-linejoin="round"
       fill="none"
       id="path32" />
    <path
       d="m 259.3308,520.5807 -7.97559,-7.61195 v -31.45313 l 7.97559,7.61188 z"
       stroke="#000000"
       stroke-width="2.83465"
       stroke-linecap="round"
       stroke-linejoin="round"
       fill="none"
       id="path33" />
    <path
       d="m 270.08655,495.29718 13.0083,4.5433 v 31.45322 l -13.18415,-4.60474 v -31.45318"
       stroke="#000000"
       stroke-width="2.83465"
       stroke-linecap="round"
       stroke-linejoin="round"
       fill="none"
       id="path34" />
    <path
       d="m 366.45212,498.55276 -7.97562,7.61188 V 474.7115 l 7.97562,-7.61192 z"
       stroke="#000000"
       stroke-width="2.83465"
       stroke-linecap="round"
       stroke-linejoin="round"
       fill="none"
       id="path35" />
    <path
       d="m 259.3308,390.83636 -7.97559,-7.61186 v -31.45317 l 7.97559,7.61187 z"
       stroke="#000000"
       stroke-width="2.83465"
       stroke-linecap="round"
       stroke-linejoin="round"
       fill="none"
       id="path36" />
    <path
       d="m 283.09485,401.54938 -13.18415,-4.60471 v -31.45315 l 13.18415,4.6047 z"
       stroke="#000000"
       stroke-width="2.83465"
       stroke-linecap="round"
       stroke-linejoin="round"
       fill="none"
       id="path37" />
    <path
       d="m 366.45212,368.80847 -7.97562,7.61188 V 344.9672 l 7.97562,-7.61188 z"
       stroke="#000000"
       stroke-width="2.83465"
       stroke-linecap="round"
       stroke-linejoin="round"
       fill="none"
       id="path38" />
    <path
       d="m 366.45212,628.29706 -7.97562,7.61184 v -31.45315 l 7.97562,-7.61185 z"
       stroke="#000000"
       stroke-width="2.83465"
       stroke-linecap="round"
       stroke-linejoin="round"
       fill="none"
       id="path39" />
    <path
       d="m 366.45212,541.80084 -7.97562,7.61186 v -31.45317 l 7.97562,-7.61183 z"
       stroke="#000000"
       stroke-width="2.83465"
       stroke-linecap="round"
       stroke-linejoin="round"
       fill="none"
       id="path40" />
    <path
       d="m 366.45212,455.30463 -7.97562,7.6119 v -31.45315 l 7.97562,-7.61191 z"
       stroke="#000000"
       stroke-width="2.83465"
       stroke-linecap="round"
       stroke-linejoin="round"
       fill="none"
       id="path41" />
    <path
       d="m 259.3308,434.08447 -7.97559,-7.61187 v -31.45316 l 7.97559,7.61188 z"
       stroke="#000000"
       stroke-width="2.83465"
       stroke-linecap="round"
       stroke-linejoin="round"
       fill="none"
       id="path42" />
    <path
       d="m 283.09485,661.0379 -13.18415,-4.6047 v -31.4531 l 13.18415,4.6047 z"
       stroke="#000000"
       stroke-width="2.83465"
       stroke-linecap="round"
       stroke-linejoin="round"
       fill="none"
       id="path43" />
    <path
       d="m 347.8966,310.4485 -13.18414,4.6047 v -31.45316 l 13.18414,-4.60474 z"
       stroke="#000000"
       stroke-width="2.83465"
       stroke-linecap="round"
       stroke-linejoin="round"
       fill="none"
       id="path44" />
  </g>
  <g
     id="shaft"
     transform="translate(-243.46566,-73.041317)">
    <path
       d="m 371.50208,111.98053 v 518.97711 c 0.088,6.68126 -3.48588,14.00092 -10.54645,20.08002 -3.53031,3.03954 -7.93228,5.76904 -12.65668,8.00659 -4.72443,2.23755 -9.7713,3.98322 -15.29452,5.29199 -11.04643,2.61756 -23.9982,3.48746 -36.31313,2.06816 -12.3149,-1.4193 -23.99287,-5.1279 -32.0514,-9.8911 -11.47408,-6.4498 -18.54864,-16.31066 -18.33466,-25.55566 V 111.98053"
       stroke="#000000"
       stroke-width="5.66929"
       stroke-linecap="round"
       stroke-linejoin="round"
       fill="none"
       id="path45" />
    <path
       d="m 264.6399,137.53621 c -5.21885,-2.99555 -9.89048,-6.82094 -13.18798,-11.1931 -1.64874,-2.18609 -2.95398,-4.50886 -3.81839,-6.95691 -0.8644,-2.44804 -1.28798,-5.02135 -1.27983,-7.52569 0.0325,-10.01732 6.97189,-18.931006 18.2862,-25.435675 11.31432,-6.504669 27.00344,-10.600315 44.06368,-10.558555 8.53012,0.02088 17.40302,1.07611 25.06275,2.945945 7.65977,1.869835 14.10629,4.554285 19.44745,7.644175 2.67056,1.544935 5.06478,3.191244 7.26904,5.04527 2.20422,1.85402 4.2185,3.915765 5.86966,6.118 3.30222,4.40446 5.15188,9.37091 5.15362,14.3582 9e-4,2.49365 -0.4602,4.99251 -1.33233,7.40833 -0.87207,2.41583 -2.15515,4.74863 -3.82093,6.94879 -1.66574,2.20017 -3.7142,4.26769 -5.87002,6.12441 -2.15582,1.8567 -4.41907,3.50259 -7.07252,5.0424 -10.61376,6.15926 -27.47118,10.62112 -44.5066,10.61993 -17.0355,-0.001 -34.24907,-4.46542 -44.2638,-10.58552 z"
       stroke="#000000"
       stroke-width="5.66929"
       stroke-linecap="round"
       stroke-linejoin="round"
       fill="none"
       id="path46" />
  </g>
</svg>
