<?xml version="1.0" encoding="UTF-8" standalone="no"?>
<svg
   version="1.1"
   width="189.93741pt"
   height="748.5722pt"
   viewBox="0 0 189.9374 748.55441"
   id="svg38"
   sodipodi:docname="cylindric-shaft_1.svg"
   inkscape:version="1.3.2 (091e20e, 2023-11-25, custom)"
   xmlns:inkscape="http://www.inkscape.org/namespaces/inkscape"
   xmlns:sodipodi="http://sodipodi.sourceforge.net/DTD/sodipodi-0.dtd"
   xmlns="http://www.w3.org/2000/svg"
   xmlns:svg="http://www.w3.org/2000/svg">
  <sodipodi:namedview
     id="namedview38"
     pagecolor="#ffffff"
     bordercolor="#000000"
     borderopacity="0.25"
     inkscape:showpageshadow="2"
     inkscape:pageopacity="0.0"
     inkscape:pagecheckerboard="0"
     inkscape:deskcolor="#d1d1d1"
     inkscape:document-units="pt"
     inkscape:zoom="0.74313887"
     inkscape:cx="133.21871"
     inkscape:cy="524.80097"
     inkscape:window-width="1920"
     inkscape:window-height="1010"
     inkscape:window-x="640"
     inkscape:window-y="-6"
     inkscape:window-maximized="1"
     inkscape:current-layer="svg38" />
  <defs
     id="defs1" />
  <g
     id="windows"
     transform="translate(-197.9581,-27.551279)">
    <path
       d="M 254.9431,276.3699 235.54,269.59314 v -46.28957 l 19.4031,6.77677 z"
       stroke="#000000"
       stroke-width="2.83465"
       stroke-linecap="round"
       stroke-linejoin="round"
       fill="none"
       id="path1" />
    <path
       d="M 254.9431,530.9626 235.54,524.1858 v -46.2896 l 19.4031,6.77677 z"
       stroke="#000000"
       stroke-width="2.83465"
       stroke-linecap="round"
       stroke-linejoin="round"
       fill="none"
       id="path2" />
    <path
       d="m 350.3118,205.94499 -19.40314,6.77677 v -46.28959 l 19.40314,-6.77676 z"
       stroke="#000000"
       stroke-width="2.83465"
       stroke-linecap="round"
       stroke-linejoin="round"
       fill="none"
       id="path3" />
    <path
       d="m 219.96959,472.7641 -11.73767,-11.2024 v -46.28954 l 11.73767,11.20239 z"
       stroke="#000000"
       stroke-width="2.83465"
       stroke-linecap="round"
       stroke-linejoin="round"
       fill="none"
       id="path4" />
    <path
       d="M 219.96959,727.35675 208.23192,716.15436 V 669.8648 l 11.73767,11.20234 z"
       stroke="#000000"
       stroke-width="2.83465"
       stroke-linecap="round"
       stroke-linejoin="round"
       fill="none"
       id="path5" />
    <path
       d="M 254.9431,594.6107 235.54,587.8339 v -46.2895 l 19.4031,6.7767 z"
       stroke="#000000"
       stroke-width="2.83465"
       stroke-linecap="round"
       stroke-linejoin="round"
       fill="none"
       id="path6" />
    <path
       d="M 219.96959,536.41223 208.23192,525.2099 v -46.2896 l 11.73767,11.20238 z"
       stroke="#000000"
       stroke-width="2.83465"
       stroke-linecap="round"
       stroke-linejoin="round"
       fill="none"
       id="path7" />
    <path
       d="M 219.96959,600.0604 208.23192,588.85803 V 542.5685 l 11.73767,11.2024 z"
       stroke="#000000"
       stroke-width="2.83465"
       stroke-linecap="round"
       stroke-linejoin="round"
       fill="none"
       id="path8" />
    <path
       d="m 377.61984,546.4259 -11.73767,11.20246 v -46.28961 l 11.73767,-11.20237 z"
       stroke="#000000"
       stroke-width="2.83465"
       stroke-linecap="round"
       stroke-linejoin="round"
       fill="none"
       id="path9" />
    <path
       d="m 350.3118,587.8339 -19.40314,6.7768 v -46.2896 l 19.40314,-6.7767 z"
       stroke="#000000"
       stroke-width="2.83465"
       stroke-linecap="round"
       stroke-linejoin="round"
       fill="none"
       id="path10" />
    <path
       d="m 377.61984,737.3704 -11.73767,11.20235 v -46.28949 l 11.73767,-11.20246 z"
       stroke="#000000"
       stroke-width="2.83465"
       stroke-linecap="round"
       stroke-linejoin="round"
       fill="none"
       id="path11" />
    <path
       d="m 377.61984,673.7222 -11.73767,11.2024 v -46.2895 l 11.73767,-11.2024 z"
       stroke="#000000"
       stroke-width="2.83465"
       stroke-linecap="round"
       stroke-linejoin="round"
       fill="none"
       id="path12" />
    <path
       d="M 254.9431,212.72176 235.54,205.94499 v -46.28958 l 19.4031,6.77676 z"
       stroke="#000000"
       stroke-width="2.83465"
       stroke-linecap="round"
       stroke-linejoin="round"
       fill="none"
       id="path13" />
    <path
       d="m 350.3118,269.59314 -19.40314,6.77676 v -46.28956 l 19.40314,-6.77677 z"
       stroke="#000000"
       stroke-width="2.83465"
       stroke-linecap="round"
       stroke-linejoin="round"
       fill="none"
       id="path14" />
    <path
       d="m 219.96959,281.8196 -11.73767,-11.20235 v -46.28958 l 11.73767,11.20239 z"
       stroke="#000000"
       stroke-width="2.83465"
       stroke-linecap="round"
       stroke-linejoin="round"
       fill="none"
       id="path15" />
    <path
       d="m 377.61984,228.18513 -11.73767,11.20238 v -46.28955 l 11.73767,-11.20239 z"
       stroke="#000000"
       stroke-width="2.83465"
       stroke-linecap="round"
       stroke-linejoin="round"
       fill="none"
       id="path16" />
    <path
       d="M 254.9431,403.66623 235.54,396.8895 v -46.28962 l 19.4031,6.77677 z"
       stroke="#000000"
       stroke-width="2.83465"
       stroke-linecap="round"
       stroke-linejoin="round"
       fill="none"
       id="path17" />
    <path
       d="m 377.61984,355.48145 -11.73767,11.20239 V 320.3943 l 11.73767,-11.2024 z"
       stroke="#000000"
       stroke-width="2.83465"
       stroke-linecap="round"
       stroke-linejoin="round"
       fill="none"
       id="path18" />
    <path
       d="m 350.3118,524.1858 -19.40314,6.7768 v -46.28963 l 19.40314,-6.77677 z"
       stroke="#000000"
       stroke-width="2.83465"
       stroke-linecap="round"
       stroke-linejoin="round"
       fill="none"
       id="path19" />
    <path
       d="m 377.61984,482.77777 -11.73767,11.20239 v -46.28958 l 11.73767,-11.20238 z"
       stroke="#000000"
       stroke-width="2.83465"
       stroke-linecap="round"
       stroke-linejoin="round"
       fill="none"
       id="path20" />
    <path
       d="m 377.61984,419.1296 -11.73767,11.2024 v -46.28958 l 11.73767,-11.20239 z"
       stroke="#000000"
       stroke-width="2.83465"
       stroke-linecap="round"
       stroke-linejoin="round"
       fill="none"
       id="path21" />
    <path
       d="M 254.9431,467.3144 235.54,460.53763 v -46.28958 l 19.4031,6.77675 z"
       stroke="#000000"
       stroke-width="2.83465"
       stroke-linecap="round"
       stroke-linejoin="round"
       fill="none"
       id="path22" />
    <path
       d="m 377.61984,291.83328 -11.73767,11.2024 v -46.28956 l 11.73767,-11.20239 z"
       stroke="#000000"
       stroke-width="2.83465"
       stroke-linecap="round"
       stroke-linejoin="round"
       fill="none"
       id="path23" />
    <path
       d="M 254.9431,340.01807 235.54,333.24133 v -46.28961 l 19.4031,6.7768 z"
       stroke="#000000"
       stroke-width="2.83465"
       stroke-linecap="round"
       stroke-linejoin="round"
       fill="none"
       id="path24" />
    <path
       d="m 350.3118,460.53763 -19.40314,6.77677 v -46.2896 l 19.40314,-6.77675 z"
       stroke="#000000"
       stroke-width="2.83465"
       stroke-linecap="round"
       stroke-linejoin="round"
       fill="none"
       id="path25" />
    <path
       d="M 219.96959,663.70856 208.23192,652.5062 v -46.2896 l 11.73767,11.2024 z"
       stroke="#000000"
       stroke-width="2.83465"
       stroke-linecap="round"
       stroke-linejoin="round"
       fill="none"
       id="path26" />
    <path
       d="m 377.61984,610.0741 -11.73767,11.2024 v -46.28956 l 11.73767,-11.20244 z"
       stroke="#000000"
       stroke-width="2.83465"
       stroke-linecap="round"
       stroke-linejoin="round"
       fill="none"
       id="path27" />
    <path
       d="m 350.3118,651.4821 -19.40314,6.77675 V 611.9693 l 19.40314,-6.7768 z"
       stroke="#000000"
       stroke-width="2.83465"
       stroke-linecap="round"
       stroke-linejoin="round"
       fill="none"
       id="path28" />
    <path
       d="M 254.9431,721.907 235.54,715.13025 V 668.8407 l 19.4031,6.77673 z"
       stroke="#000000"
       stroke-width="2.83465"
       stroke-linecap="round"
       stroke-linejoin="round"
       fill="none"
       id="path29" />
    <path
       d="M 350.3118,715.13025 330.90866,721.907 V 675.61743 L 350.3118,668.8407 Z"
       stroke="#000000"
       stroke-width="2.83465"
       stroke-linecap="round"
       stroke-linejoin="round"
       fill="none"
       id="path30" />
    <path
       d="M 254.9431,658.25885 235.54,651.4821 v -46.2896 l 19.4031,6.7768 z"
       stroke="#000000"
       stroke-width="2.83465"
       stroke-linecap="round"
       stroke-linejoin="round"
       fill="none"
       id="path31" />
    <path
       d="m 219.96959,345.46777 -11.73767,-11.20239 v -46.28955 l 11.73767,11.20239 z"
       stroke="#000000"
       stroke-width="2.83465"
       stroke-linecap="round"
       stroke-linejoin="round"
       fill="none"
       id="path32" />
    <path
       d="m 350.3118,396.8895 -19.40314,6.77673 v -46.28958 l 19.40314,-6.77677 z"
       stroke="#000000"
       stroke-width="2.83465"
       stroke-linecap="round"
       stroke-linejoin="round"
       fill="none"
       id="path33" />
    <path
       d="m 350.3118,333.24133 -19.40314,6.77674 v -46.28955 l 19.40314,-6.7768 z"
       stroke="#000000"
       stroke-width="2.83465"
       stroke-linecap="round"
       stroke-linejoin="round"
       fill="none"
       id="path34" />
    <path
       d="m 219.96959,218.17146 -11.73767,-11.20239 v -46.28955 l 11.73767,11.20239 z"
       stroke="#000000"
       stroke-width="2.83465"
       stroke-linecap="round"
       stroke-linejoin="round"
       fill="none"
       id="path35" />
    <path
       d="m 219.96959,409.11594 -11.73767,-11.2024 V 351.624 l 11.73767,11.2024 z"
       stroke="#000000"
       stroke-width="2.83465"
       stroke-linecap="round"
       stroke-linejoin="round"
       fill="none"
       id="path36" />
  </g>
  <g
     id="shaft"
     transform="translate(-197.9581,-27.551279)">
    <path
       d="M 385.05188,83.58841 V 720.07 c 0.26254,9.7834 -5.39548,20.7041 -15.52603,29.5502 -10.13055,8.84605 -24.73371,15.6175 -41.34485,19.59 -16.6112,3.9725 -35.23044,5.14606 -53.228,3.02674 C 256.95544,770.1176 239.57954,764.7054 227.78299,757.6803 210.89658,748.18805 200.48495,733.67584 200.7999,720.07 V 83.58841"
       stroke="#000000"
       stroke-width="5.66929"
       stroke-linecap="round"
       stroke-linejoin="round"
       fill="none"
       id="path37" />
    <path
       d="m 227.78299,121.19868 c -7.67317,-4.41551 -14.5713,-10.02244 -19.40499,-16.48482 -4.83366,-6.46238 -7.60285,-13.780205 -7.5781,-21.12545 0.0248,-7.34525 2.84346,-14.717934 7.5781,-21.12546 4.73466,-6.40752 11.38528,-11.849886 19.40499,-16.48482 8.01968,-4.634937 17.40848,-8.46244 28.55255,-11.20346 11.14404,-2.74102 24.0434,-4.395556 36.70441,-4.398743 25.32195,-0.0064 49.69052,6.592621 65.336,15.658779 3.91137,2.266544 7.27755,4.687284 10.45889,7.414994 3.18136,2.727714 6.17789,5.762405 8.62533,9.003665 4.89493,6.482535 7.59366,13.791355 7.59595,21.131085 10e-4,3.66986 -0.67178,7.34746 -1.95907,10.90288 -1.28733,3.555425 -3.18895,6.98868 -5.6233,10.22653 -2.43435,3.23785 -5.40145,6.2803 -8.63891,9.01325 -3.23744,2.73297 -6.74527,5.15643 -10.68347,7.42799 -7.87641,4.5431 -17.47431,8.4785 -28.63513,11.24705 -11.16084,2.76853 -23.88459,4.37017 -36.59034,4.37522 -12.70578,0.005 -25.39352,-1.58656 -36.59036,-4.37522 -11.19687,-2.78867 -20.90283,-6.7744 -28.55255,-11.20347 z"
       stroke="#000000"
       stroke-width="5.66929"
       stroke-linecap="round"
       stroke-linejoin="round"
       fill="none"
       id="path38" />
  </g>
</svg>
