<?xml version="1.0" encoding="UTF-8" standalone="no"?>
<svg
   version="1.1"
   width="408.37225pt"
   height="395.64966pt"
   viewBox="0 0 408.37225 395.64025"
   id="svg18"
   sodipodi:docname="ellipsoid-capsule_5.svg"
   inkscape:version="1.3.2 (091e20e, 2023-11-25, custom)"
   xmlns:inkscape="http://www.inkscape.org/namespaces/inkscape"
   xmlns:sodipodi="http://sodipodi.sourceforge.net/DTD/sodipodi-0.dtd"
   xmlns="http://www.w3.org/2000/svg"
   xmlns:svg="http://www.w3.org/2000/svg">
  <sodipodi:namedview
     id="namedview18"
     pagecolor="#ffffff"
     bordercolor="#000000"
     borderopacity="0.25"
     inkscape:showpageshadow="2"
     inkscape:pageopacity="0.0"
     inkscape:pagecheckerboard="0"
     inkscape:deskcolor="#d1d1d1"
     inkscape:document-units="pt"
     inkscape:zoom="0.74313887"
     inkscape:cx="234.14197"
     inkscape:cy="383.5084"
     inkscape:window-width="1920"
     inkscape:window-height="1010"
     inkscape:window-x="-6"
     inkscape:window-y="1077"
     inkscape:window-maximized="1"
     inkscape:current-layer="svg18" />
  <defs
     id="defs1" />
  <g
     id="window"
     transform="translate(-121.85861,-132.96461)">
    <path
       d="m 438.78897,421.55505 c 4.66893,-7.3623 10.01193,-14.16372 15.74823,-20.1029 6.25906,-6.48047 12.99066,-11.93637 19.72925,-15.8396 6.73575,-3.90152 13.46539,-6.24405 19.72439,-7.017 5.77552,-0.7132 11.15372,-0.0924 15.84826,1.88685 1.38813,0.58523 2.7134,1.28774 3.9705,2.1065 4.19016,2.72915 7.58505,6.72958 9.98966,11.8425 2.55384,5.43032 3.97131,12.0844 3.97184,19.61 5.7e-4,7.52366 -1.41514,15.8155 -3.96684,24.19948 -2.41146,7.92322 -5.82016,15.88046 -10.02926,23.48342 -1.2371,2.23468 -2.54014,4.43332 -3.90397,6.5889 -4.7138,7.45044 -10.11837,14.32868 -15.92337,20.3238 -6.26043,6.46548 -12.99054,11.90545 -19.7254,15.79302 -6.73782,3.88916 -13.46753,6.2172 -19.72379,6.97406 -5.76184,0.69712 -11.12567,0.0641 -15.80691,-1.92263 -1.40586,-0.59665 -2.74698,-1.31385 -4.01773,-2.15045 -4.15509,-2.73557 -7.52153,-6.72767 -9.9075,-11.8194 -2.54761,-5.43674 -3.95813,-12.0958 -3.952,-19.625 0.006,-7.53116 1.42963,-15.82935 3.98969,-24.21805 2.38864,-7.827 5.75012,-15.68659 9.8941,-23.20361 1.29294,-2.34534 2.65854,-4.65134 4.09085,-6.90989 z"
       stroke="#000000"
       stroke-width="2.83465"
       stroke-linecap="round"
       stroke-linejoin="round"
       fill="none"
       id="path1" />
  </g>
  <g
     id="shell"
     transform="translate(-121.85861,-132.96461)">
    <path
       d="M 316.17902,198.51111 362.1487,171.97049"
       stroke="#000000"
       stroke-width="3.9685"
       stroke-linecap="round"
       stroke-linejoin="round"
       fill="none"
       id="path2" />
    <path
       d="m 203.81609,204.83267 c 1.96479,-0.21607 3.99195,-0.35327 6.07746,-0.41387"
       stroke="#000000"
       stroke-width="3.9685"
       stroke-linecap="round"
       stroke-linejoin="round"
       fill="none"
       id="path3" />
    <path
       d="m 488.42575,312.57504 a 131.07642,131.07642 0 0 1 28.89565,42.2363"
       stroke="#000000"
       stroke-width="3.9685"
       stroke-linecap="round"
       stroke-linejoin="round"
       fill="none"
       id="path4" />
    <path
       d="m 488.42575,312.57504 c -0.36105,0.97284 -1.31192,2.79639 -3.04257,5.05161 -1.73065,2.25522 -4.24108,4.94208 -7.57708,7.91615 -3.33598,2.97398 -7.49748,6.23515 -12.42964,9.67922 -4.93212,3.44408 -10.63488,7.0711 -17.05336,10.77682 -6.41853,3.70572 -13.5527,7.49016 -21.03746,11.21494 -7.48474,3.72482 -15.31997,7.38995 -23.14054,10.85714 -7.8205,3.46723 -15.62636,6.73645 -22.75325,9.59516 -7.12687,2.85867 -13.57483,5.30682 -17.12079,6.58975"
       stroke="#000000"
       stroke-width="3.9685"
       stroke-linecap="round"
       stroke-linejoin="round"
       fill="none"
       id="path5" />
    <path
       d="m 163.71341,268.4638 a 12586.551,12586.551 0 0 0 200.55762,115.792"
       stroke="#000000"
       stroke-width="3.9685"
       stroke-linecap="round"
       stroke-linejoin="round"
       fill="none"
       id="path6" />
    <path
       d="m 193.77937,195.11526 16.11418,9.30354"
       stroke="#000000"
       stroke-width="3.9685"
       stroke-linecap="round"
       stroke-linejoin="round"
       fill="none"
       id="path7" />
    <path
       d="m 257.91843,491.34207 c 8.02444,4.27655 16.24463,8.11633 24.46927,11.5044 10.8191,4.45687 21.64587,8.13217 32.045,10.99213 10.3991,2.85995 20.37055,4.9045 29.20542,6.21255 8.8349,1.30805 16.53321,1.87955 20.63294,2.05225"
       stroke="#000000"
       stroke-width="3.9685"
       stroke-linecap="round"
       stroke-linejoin="round"
       fill="none"
       id="path8" />
    <path
       d="M 364.27103,522.10345 A 139.68266,139.68266 0 0 0 411.3649,525.453"
       stroke="#000000"
       stroke-width="3.9685"
       stroke-linecap="round"
       stroke-linejoin="round"
       fill="none"
       id="path9" />
    <path
       d="m 364.27106,522.1034 c 0.62262,-0.69196 1.66168,-2.2244 2.68554,-4.6166 1.02387,-2.39226 2.0325,-5.64433 2.88672,-9.74177 0.85418,-4.09753 1.55396,-9.04043 2.04016,-14.74053 0.48622,-5.70015 0.75885,-12.15748 0.75885,-19.2839 0,-7.12636 -0.27263,-14.92177 -0.75885,-23.00795 -0.4862,-8.08619 -1.18598,-16.46315 -2.04016,-24.7526 -0.85422,-8.28949 -1.86285,-16.49148 -2.88672,-23.93249 -1.02386,-7.44101 -2.06292,-14.1211 -2.68554,-17.77173"
       stroke="#000000"
       stroke-width="3.9685"
       stroke-linecap="round"
       stroke-linejoin="round"
       fill="none"
       id="path10" />
    <path
       d="m 163.71341,268.4638 c -2.56229,1.81187 -7.02029,5.31815 -11.39267,9.64368 -4.37239,4.3255 -8.65914,9.47022 -12.28949,15.1705 -3.63035,5.70032 -6.60432,11.95624 -8.67072,18.56867 -2.06637,6.61245 -3.22517,13.58142 -3.22517,20.70779 0,7.12638 1.1588,14.41019 3.22517,21.58406 0.96355,3.34517 2.12444,6.6664 3.4572,9.93663"
       stroke="#000000"
       stroke-width="3.9685"
       stroke-linecap="round"
       stroke-linejoin="round"
       fill="none"
       id="path11" />
    <path
       d="m 488.42575,312.57504 c -2.16003,-3.44137 -6.43942,-9.78518 -11.92578,-16.74551 -5.48639,-6.96033 -12.17972,-14.53717 -19.80267,-22.08225 -7.62296,-7.54513 -16.17554,-15.05848 -25.41446,-22.18211 -9.23894,-7.12364 -19.16419,-13.85754 -29.53254,-19.8437 -2.48635,-1.43551 -4.99822,-2.82804 -7.52957,-4.17707"
       stroke="#000000"
       stroke-width="3.9685"
       stroke-linecap="round"
       stroke-linejoin="round"
       fill="none"
       id="path12" />
    <path
       d="m 163.71341,268.4638 c 0.36107,-3.1217 1.31192,-8.74362 3.04257,-14.7178 1.73065,-5.97421 4.24111,-12.30075 7.57709,-18.35711 3.33597,-6.05636 7.49748,-11.84256 12.42963,-17.04108 4.93212,-5.19855 10.6349,-9.80942 17.05339,-13.51514"
       stroke="#000000"
       stroke-width="3.9685"
       stroke-linecap="round"
       stroke-linejoin="round"
       fill="none"
       id="path13" />
    <path
       d="m 317.78726,198.85464 a 310.72745,310.72745 0 0 1 44.36148,13.88425"
       stroke="#000000"
       stroke-width="3.9685"
       stroke-linecap="round"
       stroke-linejoin="round"
       fill="none"
       id="path14" />
    <path
       d="m 209.89355,204.4188 c 6.61387,-3.81852 14.7091,-6.62484 23.41481,-8.52912 9.75574,-2.13398 20.23491,-3.13271 30.63286,-3.24738 6.62055,-0.073 13.28518,0.20914 19.83028,0.77724 7.52946,0.65353 14.93278,1.68718 22.1878,3.01413 3.4417,0.6295 6.85265,1.32556 10.21972,2.07744"
       stroke="#000000"
       stroke-width="3.9685"
       stroke-linecap="round"
       stroke-linejoin="round"
       fill="none"
       id="path15" />
    <path
       d="m 193.77937,206.7597 a 61.519676,61.519676 0 0 1 10.03673,-1.92703"
       stroke="#000000"
       stroke-width="3.9685"
       stroke-linecap="round"
       stroke-linejoin="round"
       fill="none"
       id="path16" />
    <path
       d="m 470.8781,506.7121 a 135.2543,135.2543 0 0 1 -34.65862,14.19336 172.49542,172.49542 0 0 1 -24.85458,4.54754 193.1805,193.1805 0 0 1 -11.7246,0.92505 221.54205,221.54205 0 0 1 -38.06938,-1.4989 c -2.53827,-0.31205 -5.05319,-0.66199 -7.56024,-1.04885 a 283.73398,283.73398 0 0 1 -30.73071,-6.5775 318.36496,318.36496 0 0 1 -37.38237,-12.75756 312.9842,312.9842 0 0 1 -27.97917,-13.15317 c -2.90273,-1.54697 -5.7892,-3.14715 -8.65097,-4.79937 a 307.4429,307.4429 0 0 1 -33.94234,-22.8117 312.53284,312.53284 0 0 1 -29.8349,-26.18123 282.0585,282.0585 0 0 1 -12.22951,-13.01837 248.56335,248.56335 0 0 1 -13.86185,-17.18738 216.41055,216.41055 0 0 1 -15.65538,-24.52694 184.98653,184.98653 0 0 1 -8.92575,-18.74195 161.6526,161.6526 0 0 1 -5.63005,-16.16876 130.22083,130.22083 0 0 1 -5.34481,-36.13337 114.84949,114.84949 0 0 1 5.89646,-36.20617 c 0.9524,-2.85467 2.01717,-5.67178 3.19216,-8.44476 a 115.27957,115.27957 0 0 1 16.02272,-26.8891 c 1.62445,-2.03688 3.31686,-4.01884 5.07388,-5.94284 a 118.93263,118.93263 0 0 1 28.33246,-22.75865 c 1.14037,-0.65838 2.29141,-1.29781 3.45284,-1.91866 2.61019,-1.39531 5.268,-2.69413 7.96598,-3.90089 v -10.59667 l 104.22866,-60.17643 64.14067,37.03166 v 40.7684 c 1.37233,0.54308 2.73692,1.09401 4.09285,1.65235 a 312.9842,312.9842 0 0 1 27.97918,13.15316 c 2.90274,1.54698 5.78922,3.14714 8.651,4.79941 a 307.4429,307.4429 0 0 1 33.94233,22.81169 312.53284,312.53284 0 0 1 29.8349,26.1812 282.0585,282.0585 0 0 1 12.22949,13.01837 248.56335,248.56335 0 0 1 13.86185,17.18738 216.41055,216.41055 0 0 1 15.6554,24.52698 244.98674,244.98674 0 0 1 8.9257,18.74191 161.6526,161.6526 0 0 1 5.6301,16.16876 c 12.8678,44.59357 5.0841,94.34638 -52.07342,135.73197 z"
       stroke="#000000"
       stroke-width="3.9685"
       stroke-linecap="round"
       stroke-linejoin="round"
       fill="none"
       id="path17" />
    <path
       d="m 193.77937,206.7597 v -1.04777"
       stroke="#000000"
       stroke-width="3.9685"
       stroke-linecap="round"
       stroke-linejoin="round"
       fill="none"
       id="path18" />
  </g>
</svg>
