<?xml version="1.0" encoding="UTF-8" standalone="no"?>
<svg
   version="1.1"
   width="410.12274pt"
   height="397.35046pt"
   viewBox="0 0 410.12273 397.34102"
   id="svg18"
   sodipodi:docname="ellipsoid-capsule_4.svg"
   inkscape:version="1.3.2 (091e20e, 2023-11-25, custom)"
   xmlns:inkscape="http://www.inkscape.org/namespaces/inkscape"
   xmlns:sodipodi="http://sodipodi.sourceforge.net/DTD/sodipodi-0.dtd"
   xmlns="http://www.w3.org/2000/svg"
   xmlns:svg="http://www.w3.org/2000/svg">
  <sodipodi:namedview
     id="namedview18"
     pagecolor="#ffffff"
     bordercolor="#000000"
     borderopacity="0.25"
     inkscape:showpageshadow="2"
     inkscape:pageopacity="0.0"
     inkscape:pagecheckerboard="0"
     inkscape:deskcolor="#d1d1d1"
     inkscape:document-units="pt"
     inkscape:zoom="0.74313887"
     inkscape:cx="250.28969"
     inkscape:cy="348.52167"
     inkscape:window-width="1920"
     inkscape:window-height="1010"
     inkscape:window-x="-6"
     inkscape:window-y="1077"
     inkscape:window-maximized="1"
     inkscape:current-layer="svg18" />
  <defs
     id="defs1" />
  <g
     id="boundary"
     transform="translate(-110.11463,-159.01735)">
    <path
       d="m 506.42786,381.71445 a 161.6526,161.6526 0 0 1 5.63004,16.16879 130.22083,130.22083 0 0 1 5.3448,36.13336 114.84949,114.84949 0 0 1 -5.89644,36.20618 c -0.95236,2.85467 -2.01719,5.67175 -3.19216,8.44472 a 115.27957,115.27957 0 0 1 -16.02272,26.88914 c -1.62445,2.03686 -3.31686,4.01886 -5.07388,5.94284 a 118.93263,118.93263 0 0 1 -28.33246,22.75862 c -1.14038,0.6584 -2.29141,1.29787 -3.45284,1.91866 a 138.08821,138.08821 0 0 1 -30.1063,11.63184 172.49542,172.49542 0 0 1 -24.8546,4.54754 193.1805,193.1805 0 0 1 -11.7246,0.92506 221.54205,221.54205 0 0 1 -38.0694,-1.4989 c -2.53823,-0.31215 -5.05312,-0.66194 -7.56017,-1.0488 a 283.73398,283.73398 0 0 1 -30.73075,-6.5776 318.36496,318.36496 0 0 1 -37.38235,-12.7575 312.9842,312.9842 0 0 1 -27.97919,-13.1532 c -2.90274,-1.547 -5.7892,-3.1471 -8.65098,-4.7994 a 307.4429,307.4429 0 0 1 -33.94233,-22.8117 312.53284,312.53284 0 0 1 -29.8349,-26.1812 282.0585,282.0585 0 0 1 -12.2295,-13.0184 248.56335,248.56335 0 0 1 -13.86185,-17.18737 216.41055,216.41055 0 0 1 -15.65538,-24.52695 184.98653,184.98653 0 0 1 -8.92575,-18.74191 161.6526,161.6526 0 0 1 -5.63004,-16.16877 130.22083,130.22083 0 0 1 -5.34483,-36.13338 114.84949,114.84949 0 0 1 5.89647,-36.20618 c 0.95238,-2.85468 2.01715,-5.67174 3.19215,-8.44474 a 115.27957,115.27957 0 0 1 16.02272,-26.8891 c 1.62445,-2.03692 3.31687,-4.01885 5.07387,-5.94286 a 117.93581,117.93581 0 0 1 7.71123,-7.69647 l -0.0303,-54.62317 64.1407,-37.03165 131.75005,76.05228 c 2.91577,1.0905 5.79772,2.22903 8.64182,3.40013 a 312.9842,312.9842 0 0 1 27.97915,13.15317 c 2.90275,1.54697 5.78918,3.14714 8.65097,4.79942 a 307.4429,307.4429 0 0 1 33.94235,22.81167 312.53284,312.53284 0 0 1 29.8349,26.18122 282.0585,282.0585 0 0 1 12.22949,13.01836 248.56335,248.56335 0 0 1 13.86184,17.1874 216.41055,216.41055 0 0 1 15.6554,24.52693 244.98674,244.98674 0 0 1 8.92576,18.74192"
       stroke="#000000"
       stroke-width="5.66929"
       stroke-linecap="round"
       stroke-linejoin="round"
       fill="none"
       id="path1" />
  </g>
  <g
     id="window"
     transform="translate(-110.11463,-159.01735)">
    <path
       d="m 359.21124,533.34186 c 8.00919,-2.0409 15.2966,-5.74776 20.49741,-11.44013 4.51999,-4.94726 7.40039,-11.36783 7.4689,-19.01559 0.0682,-7.61832 -2.66049,-15.76306 -7.05221,-23.47624 -5.23859,-9.20055 -12.73896,-17.66872 -21.00114,-24.83086 -0.79446,-0.68869 -1.5975,-1.36682 -2.40832,-2.03436 -9.86188,-8.11936 -20.95834,-14.76988 -32.06106,-19.88114 -11.40949,-5.2525 -23.33014,-9.12619 -34.81955,-11.44009 -10.07459,-2.02902 -20.23977,-2.94482 -29.66883,-2.33157 -3.05911,0.19894 -6.0626,0.56036 -8.97201,1.10516 -8.76764,1.64176 -16.92835,5.00816 -22.79817,10.74069 -5.35379,5.22857 -8.56904,12.24091 -8.48447,20.82315 0.0851,8.6362 3.49893,17.67768 8.99586,26.18202 5.79045,8.9584 13.66333,17.0112 22.12075,23.81298 3.4485,2.77347 7.0319,5.371 10.687,7.78827 8.92764,5.9042 18.4735,10.85922 27.9601,14.78465 11.5172,4.7655 23.47037,8.2285 34.92033,9.9888 10.6705,1.6405 21.32797,1.85664 30.89687,0.0467 1.25785,-0.23797 2.49842,-0.5115 3.71854,-0.82244 z"
       stroke="#000000"
       stroke-width="2.83465"
       stroke-linecap="round"
       stroke-linejoin="round"
       fill="none"
       id="path2" />
  </g>
  <g
     id="shell"
     transform="translate(-110.11463,-159.01735)">
    <path
       d="M 150.84572,253.49677 A 119.47049,119.47049 0 0 1 178.10538,234.8722"
       stroke="#000000"
       stroke-width="3.9685"
       stroke-linecap="round"
       stroke-linejoin="round"
       fill="none"
       id="path3" />
    <path
       d="m 227.33813,431.82468 0.87317,-0.944"
       stroke="#000000"
       stroke-width="3.9685"
       stroke-linecap="round"
       stroke-linejoin="round"
       fill="none"
       id="path4" />
    <path
       d="m 477.53217,339.47818 a 131.07642,131.07642 0 0 1 28.89569,42.23627"
       stroke="#000000"
       stroke-width="3.9685"
       stroke-linecap="round"
       stroke-linejoin="round"
       fill="none"
       id="path5" />
    <path
       d="m 152.81982,295.36694 a 12586.551,12586.551 0 0 0 200.55762,115.792"
       stroke="#000000"
       stroke-width="3.9685"
       stroke-linecap="round"
       stroke-linejoin="round"
       fill="none"
       id="path6" />
    <path
       d="m 152.81982,295.36694 c -2.56228,1.81183 -7.02029,5.31818 -11.39267,9.64368 -4.37237,4.32548 -8.65911,9.47018 -12.28949,15.17048 -3.63036,5.7003 -6.60433,11.95623 -8.67071,18.5687 -2.06638,6.6124 -3.22517,13.58138 -3.22517,20.70778 0,7.12637 1.15879,14.41019 3.22517,21.58405 0.96355,3.34515 2.12444,6.66637 3.45719,9.93661"
       stroke="#000000"
       stroke-width="3.9685"
       stroke-linecap="round"
       stroke-linejoin="round"
       fill="none"
       id="path7" />
    <path
       d="m 150.81543,198.8736 52.38897,30.2468"
       stroke="#000000"
       stroke-width="3.9685"
       stroke-linecap="round"
       stroke-linejoin="round"
       fill="none"
       id="path8" />
    <path
       d="m 178.10535,234.87215 a 55.957966,55.957966 0 0 1 18.91771,-5.3348"
       stroke="#000000"
       stroke-width="3.9685"
       stroke-linecap="round"
       stroke-linejoin="round"
       fill="none"
       id="path9" />
    <path
       d="m 477.53217,339.47818 c -0.36109,0.97284 -1.31189,2.79636 -3.04255,5.05157 -1.73068,2.25522 -4.24112,4.94208 -7.57708,7.91615 -3.336,2.974 -7.49754,6.23516 -12.42966,9.67925 -4.93213,3.44409 -10.63488,7.07111 -17.05338,10.77683 -6.4185,3.70572 -13.55273,7.49014 -21.03744,11.2149 -7.48474,3.72482 -15.31998,7.39002 -23.1405,10.85722 -7.82056,3.46718 -15.62641,6.73638 -22.7533,9.59508 -7.12689,2.85872 -13.57483,5.30686 -17.12082,6.58976"
       stroke="#000000"
       stroke-width="3.9685"
       stroke-linecap="round"
       stroke-linejoin="round"
       fill="none"
       id="path10" />
    <path
       d="m 247.02484,518.2452 c 8.02446,4.2766 16.24463,8.1163 24.46926,11.50443 10.81907,4.45687 21.64588,8.13217 32.045,10.99213 10.39913,2.85984 20.37054,4.90448 29.20544,6.21259 8.83486,1.30805 16.5332,1.87951 20.6329,2.05225"
       stroke="#000000"
       stroke-width="3.9685"
       stroke-linecap="round"
       stroke-linejoin="round"
       fill="none"
       id="path11" />
    <path
       d="m 197.02306,229.53735 c 2.02731,-0.22295 4.09176,-0.35876 6.18134,-0.41695"
       stroke="#000000"
       stroke-width="3.9685"
       stroke-linecap="round"
       stroke-linejoin="round"
       fill="none"
       id="path12" />
    <path
       d="m 353.37744,549.00653 a 139.68266,139.68266 0 0 0 47.09386,3.34961"
       stroke="#000000"
       stroke-width="3.9685"
       stroke-linecap="round"
       stroke-linejoin="round"
       fill="none"
       id="path13" />
    <path
       d="m 359.12418,454.579 a 702.9534,702.9534 0 0 0 -5.74674,-43.42006"
       stroke="#000000"
       stroke-width="3.9685"
       stroke-linecap="round"
       stroke-linejoin="round"
       fill="none"
       id="path14" />
    <path
       d="m 152.81982,295.36694 c 0.36108,-3.1217 1.31194,-8.74362 3.04258,-14.71784 1.73065,-5.9742 4.2411,-12.3007 7.57707,-18.35708 3.336,-6.05636 7.4975,-11.84256 12.42964,-17.0411 4.93214,-5.19854 10.63492,-9.80941 17.05341,-13.51512 1.33688,-0.77187 2.70483,-1.50445 4.10054,-2.19845"
       stroke="#000000"
       stroke-width="3.9685"
       stroke-linecap="round"
       stroke-linejoin="round"
       fill="none"
       id="path15" />
    <path
       d="m 477.53217,339.47818 c -2.16004,-3.44141 -6.43947,-9.78522 -11.92582,-16.74554 -5.48632,-6.9603 -12.17968,-14.53717 -19.80265,-22.08224 -7.62294,-7.5451 -16.17553,-15.05848 -25.41445,-22.1821 -9.23892,-7.12366 -19.16418,-13.85755 -29.53253,-19.84373 -2.48636,-1.43547 -4.99822,-2.82802 -7.52954,-4.17704"
       stroke="#000000"
       stroke-width="3.9685"
       stroke-linecap="round"
       stroke-linejoin="round"
       fill="none"
       id="path16" />
    <path
       d="m 203.2044,229.1204 c 5.73263,-2.7243 12.28307,-4.81234 19.21036,-6.32761 9.75576,-2.13398 20.23494,-3.13269 30.63286,-3.24736 6.62053,-0.073 13.28518,0.20913 19.83034,0.77722 7.52942,0.65355 14.93271,1.68718 22.18771,3.01415 7.30869,1.33677 14.52427,2.98243 21.4845,4.83526 10.41849,2.77342 20.57223,6.09361 30.15173,9.73335"
       stroke="#000000"
       stroke-width="3.9685"
       stroke-linecap="round"
       stroke-linejoin="round"
       fill="none"
       id="path17" />
    <path
       d="m 353.37744,549.0066 c 0.62266,-0.692 1.66171,-2.22443 2.68558,-4.61665 1.13038,-2.64111 2.24218,-6.33025 3.14813,-11.04805"
       stroke="#000000"
       stroke-width="3.9685"
       stroke-linecap="round"
       stroke-linejoin="round"
       fill="none"
       id="path18" />
  </g>
</svg>
