<?xml version="1.0" encoding="UTF-8" standalone="no"?>
<svg
   version="1.1"
   width="410.12274pt"
   height="397.35043pt"
   viewBox="0 0 410.12273 397.34099"
   id="svg20"
   sodipodi:docname="ellipsoid-capsule_7.svg"
   inkscape:version="1.3.2 (091e20e, 2023-11-25, custom)"
   xmlns:inkscape="http://www.inkscape.org/namespaces/inkscape"
   xmlns:sodipodi="http://sodipodi.sourceforge.net/DTD/sodipodi-0.dtd"
   xmlns="http://www.w3.org/2000/svg"
   xmlns:svg="http://www.w3.org/2000/svg">
  <sodipodi:namedview
     id="namedview20"
     pagecolor="#ffffff"
     bordercolor="#000000"
     borderopacity="0.25"
     inkscape:showpageshadow="2"
     inkscape:pageopacity="0.0"
     inkscape:pagecheckerboard="0"
     inkscape:deskcolor="#d1d1d1"
     inkscape:document-units="pt"
     inkscape:zoom="0.74313887"
     inkscape:cx="378.12582"
     inkscape:cy="440.02543"
     inkscape:window-width="1920"
     inkscape:window-height="1010"
     inkscape:window-x="-6"
     inkscape:window-y="1077"
     inkscape:window-maximized="1"
     inkscape:current-layer="svg20" />
  <defs
     id="defs1" />
  <g
     id="boundary"
     transform="translate(-14.430294,-91.2681)">
    <path
       d="m 410.7435,313.9652 a 161.6526,161.6526 0 0 1 5.63007,16.16877 130.22083,130.22083 0 0 1 5.34481,36.13339 114.84949,114.84949 0 0 1 -5.89648,36.20614 c -0.9524,2.85472 -2.01715,5.67182 -3.19214,8.44477 a 115.27957,115.27957 0 0 1 -16.02273,26.8891 c -1.62446,2.0369 -3.31687,4.01886 -5.07386,5.94283 a 118.93263,118.93263 0 0 1 -28.33249,22.75868 c -1.14035,0.65839 -2.29138,1.29779 -3.45282,1.91864 a 138.08821,138.08821 0 0 1 -30.10629,11.63181 172.49542,172.49542 0 0 1 -24.85461,4.54757 193.1805,193.1805 0 0 1 -11.72458,0.92502 221.54205,221.54205 0 0 1 -38.0694,-1.49887 c -2.53827,-0.31213 -5.05316,-0.66199 -7.56021,-1.0488 a 283.73398,283.73398 0 0 1 -30.73071,-6.5776 318.36496,318.36496 0 0 1 -37.38239,-12.75751 312.9842,312.9842 0 0 1 -27.97917,-13.15317 c -2.90274,-1.547 -5.7892,-3.14715 -8.65099,-4.79941 A 307.4429,307.4429 0 0 1 108.74719,422.88486 312.53284,312.53284 0 0 1 78.91229,396.70364 282.0585,282.0585 0 0 1 66.68279,383.68527 248.56335,248.56335 0 0 1 52.820942,366.4979 216.41055,216.41055 0 0 1 37.165558,341.97095 184.98653,184.98653 0 0 1 28.239805,323.229 161.6526,161.6526 0 0 1 22.60976,307.06024 130.22083,130.22083 0 0 1 17.26494,270.92688 114.84949,114.84949 0 0 1 23.161406,234.7207 c 0.952392,-2.85467 2.017158,-5.67177 3.192157,-8.44474 a 115.27957,115.27957 0 0 1 16.022717,-26.8891 c 1.624452,-2.0369 3.316873,-4.01886 5.073877,-5.94286 A 118.93263,118.93263 0 0 1 75.78262,170.68535 c 1.14037,-0.65839 2.29142,-1.29781 3.45283,-1.91865 2.610215,-1.3953 5.26801,-2.69414 7.966,-3.9009 V 154.26913 L 191.4301,94.0927 l 64.14072,37.03166 v 40.7684 c 1.37226,0.54308 2.73686,1.09401 4.09282,1.65234 a 312.9842,312.9842 0 0 1 27.97918,13.15317 c 2.90271,1.54698 5.78918,3.14714 8.65098,4.79941 a 307.4429,307.4429 0 0 1 33.9423,22.81169 312.53284,312.53284 0 0 1 29.8349,26.18122 282.0585,282.0585 0 0 1 12.22954,13.01837 248.56335,248.56335 0 0 1 13.86184,17.18739 216.41055,216.41055 0 0 1 15.65537,24.52695 244.98674,244.98674 0 0 1 8.92575,18.7419"
       stroke="#000000"
       stroke-width="5.66929"
       stroke-linecap="round"
       stroke-linejoin="round"
       fill="none"
       id="path1" />
  </g>
  <g
     id="window"
     transform="translate(-14.430294,-91.2681)">
    <path
       d="m 263.43988,386.82977 c -0.79446,-0.68867 -1.59753,-1.36679 -2.40836,-2.03437 -9.86189,-8.1193 -20.95831,-14.76983 -32.06103,-19.88112 -11.40952,-5.25248 -23.33012,-9.12613 -34.81955,-11.4401 -10.07457,-2.02898 -20.23979,-2.94478 -29.66884,-2.33158 -3.0591,0.19898 -6.06262,0.5604 -8.972,1.10517 -8.76765,1.64179 -16.92836,5.00821 -22.79819,10.74073 -5.35378,5.22854 -8.56903,12.2409 -8.48446,20.8231 0.0851,8.63625 3.49893,17.67772 8.99586,26.18202 5.79045,8.95844 13.66335,17.01123 22.12076,23.81302 3.44849,2.77344 7.03188,5.371 10.687,7.7883 8.92764,5.90421 18.47349,10.85922 27.96013,14.78458 11.51713,4.76548 23.47032,8.22854 34.92028,9.98886 10.67049,1.64047 21.32796,1.85666 30.8969,0.0467 1.25782,-0.23792 2.49842,-0.51151 3.71854,-0.82242 8.00918,-2.04095 15.2966,-5.74774 20.49738,-11.44015 4.51998,-4.94724 7.40038,-11.36783 7.46893,-19.0156 0.0682,-7.61827 -2.6605,-15.76307 -7.05223,-23.47619 -5.2386,-9.20058 -12.73897,-17.66871 -21.00112,-24.83091 z"
       stroke="#000000"
       stroke-width="2.83465"
       stroke-linecap="round"
       stroke-linejoin="round"
       fill="none"
       id="path2" />
  </g>
  <g
     id="shell"
     transform="translate(-14.430294,-91.2681)">
    <path
       d="m 211.20932,158.00851 a 310.72745,310.72745 0 0 1 44.36148,13.88425"
       stroke="#000000"
       stroke-width="3.9685"
       stroke-linecap="round"
       stroke-linejoin="round"
       fill="none"
       id="path3" />
    <path
       d="m 32.066788,331.58163 c 0.450642,0.8844 0.913006,1.76301 1.386535,2.6352 0.493927,0.90977 1.000004,1.81253 1.516793,2.70721"
       stroke="#000000"
       stroke-width="3.9685"
       stroke-linecap="round"
       stroke-linejoin="round"
       fill="none"
       id="path4" />
    <path
       d="m 103.31563,163.57268 c 6.61385,-3.81851 14.7091,-6.62485 23.4148,-8.52913 9.75575,-2.13397 20.23493,-3.13271 30.63287,-3.24738 6.62053,-0.073 13.28515,0.20914 19.8303,0.77724 7.52945,0.65353 14.93276,1.68718 22.18775,3.01413 3.44169,0.6295 6.85267,1.32558 10.21974,2.07744"
       stroke="#000000"
       stroke-width="3.9685"
       stroke-linecap="round"
       stroke-linejoin="round"
       fill="none"
       id="path5" />
    <path
       d="m 381.8478,271.7289 c -0.36104,0.97285 -1.31188,2.7964 -3.04253,5.05162 -1.73067,2.25518 -4.24112,4.94211 -7.57709,7.9161 -3.33598,2.97403 -7.4975,6.2352 -12.42966,9.6793 -4.93212,3.44406 -10.63485,7.07108 -17.05337,10.77678 -6.41852,3.70573 -13.55271,7.49015 -21.03745,11.21498 -7.48474,3.72479 -15.31997,7.38995 -23.1405,10.85714 -7.82056,3.4672 -15.62637,6.73645 -22.7533,9.59513 -7.12686,2.85867 -13.5748,5.30685 -17.1208,6.58972"
       stroke="#000000"
       stroke-width="3.9685"
       stroke-linecap="round"
       stroke-linejoin="round"
       fill="none"
       id="path6" />
    <path
       d="M 57.135487,227.61769 A 12586.551,12586.551 0 0 0 257.6931,343.4097"
       stroke="#000000"
       stroke-width="3.9685"
       stroke-linecap="round"
       stroke-linejoin="round"
       fill="none"
       id="path7" />
    <path
       d="m 209.60109,157.66498 45.96973,-26.54062"
       stroke="#000000"
       stroke-width="3.9685"
       stroke-linecap="round"
       stroke-linejoin="round"
       fill="none"
       id="path8" />
    <path
       d="m 87.20145,154.26913 16.11418,9.30355"
       stroke="#000000"
       stroke-width="3.9685"
       stroke-linecap="round"
       stroke-linejoin="round"
       fill="none"
       id="path9" />
    <path
       d="m 381.84784,271.7289 a 131.07642,131.07642 0 0 1 28.89566,42.2363"
       stroke="#000000"
       stroke-width="3.9685"
       stroke-linecap="round"
       stroke-linejoin="round"
       fill="none"
       id="path10" />
    <path
       d="m 151.3405,450.49597 c 8.02446,4.27655 16.24464,8.11627 24.46925,11.5044 10.81911,4.45681 21.64589,8.13213 32.04502,10.99213 10.39911,2.85992 20.37056,4.9045 29.20544,6.21255 8.83487,1.30805 16.53319,1.87958 20.63289,2.05225"
       stroke="#000000"
       stroke-width="3.9685"
       stroke-linecap="round"
       stroke-linejoin="round"
       fill="none"
       id="path11" />
    <path
       d="m 257.6931,481.2573 a 139.68266,139.68266 0 0 0 47.09386,3.3496"
       stroke="#000000"
       stroke-width="3.9685"
       stroke-linecap="round"
       stroke-linejoin="round"
       fill="none"
       id="path12" />
    <path
       d="m 57.135487,227.61769 c -2.562287,1.81183 -7.020297,5.31816 -11.392674,9.64366 -4.372379,4.32552 -8.65913,9.47019 -12.28949,15.17052 -3.630359,5.7003 -6.60433,11.95623 -8.670713,18.56865 -2.066383,6.61246 -3.225174,13.58142 -3.225174,20.70778 0,7.1264 1.158791,14.4102 3.225174,21.58406 0.963549,3.34514 2.124437,6.66644 3.457195,9.93667"
       stroke="#000000"
       stroke-width="3.9685"
       stroke-linecap="round"
       stroke-linejoin="round"
       fill="none"
       id="path13" />
    <path
       d="m 257.6931,481.2573 c 0.62263,-0.692 1.6617,-2.2244 2.68556,-4.6166 1.13037,-2.6411 2.24222,-6.33028 3.14814,-11.04805"
       stroke="#000000"
       stroke-width="3.9685"
       stroke-linecap="round"
       stroke-linejoin="round"
       fill="none"
       id="path14" />
    <path
       d="m 57.135487,227.61769 c 0.361057,-3.12172 1.311916,-8.74361 3.042568,-14.71783 1.730659,-5.9742 4.241105,-12.30072 7.577085,-18.35709 3.33598,-6.05637 7.497485,-11.84254 12.42963,-17.04109 4.932135,-5.19853 10.6349,-9.80942 17.0534,-13.51514"
       stroke="#000000"
       stroke-width="3.9685"
       stroke-linecap="round"
       stroke-linejoin="round"
       fill="none"
       id="path15" />
    <path
       d="m 381.8478,271.7289 c -2.16,-3.4414 -6.4394,-9.78517 -11.92577,-16.74552 -5.48636,-6.96031 -12.17973,-14.53715 -19.80268,-22.08224 -7.62295,-7.54511 -16.17553,-15.05847 -25.41442,-22.1821 -9.23893,-7.12364 -19.16423,-13.85753 -29.53253,-19.8437 -2.4864,-1.43551 -4.99824,-2.82802 -7.52958,-4.17707"
       stroke="#000000"
       stroke-width="3.9685"
       stroke-linecap="round"
       stroke-linejoin="round"
       fill="none"
       id="path16" />
    <path
       d="m 97.23817,163.98654 c 1.964795,-0.21606 3.99195,-0.35327 6.07746,-0.41386"
       stroke="#000000"
       stroke-width="3.9685"
       stroke-linecap="round"
       stroke-linejoin="round"
       fill="none"
       id="path17" />
    <path
       d="m 87.20145,165.91357 a 61.519676,61.519676 0 0 1 10.03672,-1.92703"
       stroke="#000000"
       stroke-width="3.9685"
       stroke-linecap="round"
       stroke-linejoin="round"
       fill="none"
       id="path18" />
    <path
       d="m 87.20145,164.8658 v 1.04777"
       stroke="#000000"
       stroke-width="3.9685"
       stroke-linecap="round"
       stroke-linejoin="round"
       fill="none"
       id="path19" />
    <path
       d="M 263.43985,386.82977 A 702.9534,702.9534 0 0 0 257.6931,343.4097"
       stroke="#000000"
       stroke-width="3.9685"
       stroke-linecap="round"
       stroke-linejoin="round"
       fill="none"
       id="path20" />
  </g>
</svg>
