<?xml version="1.0" encoding="UTF-8" standalone="no"?>
<svg
   version="1.1"
   width="444.41489pt"
   height="355.68982pt"
   viewBox="0 0 444.41488 355.68136"
   id="svg40"
   sodipodi:docname="ellipsoid-capsule_3.svg"
   inkscape:version="1.3.2 (091e20e, 2023-11-25, custom)"
   xmlns:inkscape="http://www.inkscape.org/namespaces/inkscape"
   xmlns:sodipodi="http://sodipodi.sourceforge.net/DTD/sodipodi-0.dtd"
   xmlns="http://www.w3.org/2000/svg"
   xmlns:svg="http://www.w3.org/2000/svg">
  <sodipodi:namedview
     id="namedview40"
     pagecolor="#ffffff"
     bordercolor="#000000"
     borderopacity="0.25"
     inkscape:showpageshadow="2"
     inkscape:pageopacity="0.0"
     inkscape:pagecheckerboard="0"
     inkscape:deskcolor="#d1d1d1"
     inkscape:document-units="pt"
     inkscape:zoom="0.74313887"
     inkscape:cx="290.659"
     inkscape:cy="413.11256"
     inkscape:window-width="1920"
     inkscape:window-height="1010"
     inkscape:window-x="-6"
     inkscape:window-y="1077"
     inkscape:window-maximized="1"
     inkscape:current-layer="svg40" />
  <defs
     id="defs1" />
  <g
     id="boundary"
     transform="translate(-79.272484,-111.36781)">
    <path
       d="m 192.33018,140.79807 a 147.06436,147.06436 0 0 1 16.14591,-5.22407 172.49542,172.49542 0 0 1 24.8546,-4.54757 193.1805,193.1805 0 0 1 11.72459,-0.92502 221.54205,221.54205 0 0 1 38.06938,1.49887 c 2.53827,0.31213 5.05317,0.66197 7.56022,1.04882 a 283.73398,283.73398 0 0 1 30.73072,6.57757 318.36496,318.36496 0 0 1 37.38237,12.75752 312.9842,312.9842 0 0 1 27.97919,13.15317 c 2.90274,1.547 5.78919,3.14716 8.65097,4.79941 a 307.4429,307.4429 0 0 1 33.94232,22.81169 312.53284,312.53284 0 0 1 29.8349,26.18121 282.0585,282.0585 0 0 1 12.22949,13.01837 248.56335,248.56335 0 0 1 13.86186,17.18738 c 1.6845,2.29387 3.32833,4.61829 4.9285,6.97832 a 200.1924,200.1924 0 0 1 14.65444,25.70123 186.8148,186.8148 0 0 1 11.91346,32.26737 123.29918,123.29918 0 0 1 3.23424,16.62848 119.86537,119.86537 0 0 1 0.82536,13.99563 114.84949,114.84949 0 0 1 -5.89646,36.20618 c -0.95239,2.85467 -2.01714,5.67175 -3.19217,8.44473 a 115.27957,115.27957 0 0 1 -16.02271,26.8891 c -1.62442,2.03694 -3.31686,4.01886 -5.07388,5.94287 a 118.93263,118.93263 0 0 1 -28.33246,22.75864 c -1.14035,0.65841 -2.29142,1.29783 -3.45282,1.91863 a 138.08821,138.08821 0 0 1 -30.10632,11.6318 172.49542,172.49542 0 0 1 -24.85458,4.5476 193.1805,193.1805 0 0 1 -11.7246,0.925 221.54205,221.54205 0 0 1 -38.06938,-1.49886 c -2.53827,-0.31214 -5.05316,-0.66199 -7.56024,-1.04884 a 283.73398,283.73398 0 0 1 -30.73068,-6.57757 318.36496,318.36496 0 0 1 -37.3824,-12.7575 317.3512,317.3512 0 0 1 -27.97834,-13.13688 l 8.1e-4,4.6391 -168.36934,-97.2081 V 151.22406 l 64.1407,-37.03165 z"
       stroke="#000000"
       stroke-width="5.66929"
       stroke-linecap="round"
       stroke-linejoin="round"
       fill="none"
       id="path1" />
  </g>
  <g
     id="window"
     transform="translate(-79.272484,-111.36781)">
    <path
       d="m 504.87967,281.81497 c 0.75403,1.62076 1.48791,3.25199 2.20108,4.89289"
       stroke="#000000"
       stroke-width="2.83465"
       stroke-linecap="butt"
       stroke-linejoin="round"
       fill="none"
       id="path2" />
    <path
       d="m 509.2707,291.9382 c 0.70638,1.75318 1.38936,3.5162 2.04848,5.28818"
       stroke="#000000"
       stroke-width="2.83465"
       stroke-linecap="butt"
       stroke-linejoin="round"
       fill="none"
       id="path3" />
    <path
       d="m 513.2246,302.568 c 0.61103,1.7888 1.1979,3.5855 1.7602,5.3892"
       stroke="#000000"
       stroke-width="2.83465"
       stroke-linecap="butt"
       stroke-linejoin="round"
       fill="none"
       id="path4" />
    <path
       d="m 516.59827,313.38812 c 0.0662,0.23505 0.12903,0.45768 0.19083,0.67958 0.45004,1.6151 0.84945,3.19323 1.21804,4.80828"
       stroke="#000000"
       stroke-width="2.83465"
       stroke-linecap="butt"
       stroke-linejoin="round"
       fill="none"
       id="path5" />
    <path
       d="m 519.1166,324.43872 c 0.3192,1.86428 0.58726,3.73785 0.804,5.61648"
       stroke="#000000"
       stroke-width="2.83465"
       stroke-linecap="butt"
       stroke-linejoin="round"
       fill="none"
       id="path6" />
    <path
       d="m 520.41583,335.7021 c 0.0747,1.241 0.12714,2.48244 0.15717,3.72304 0.0337,0.64038 0.0483,1.28449 0.0435,1.93051 a 32.151882,32.151882 0 0 1 -2.07386,11.11948 11.729264,11.729264 0 0 1 -6.8065,8.65051 19.230835,19.230835 0 0 1 -11.03288,0.14696"
       stroke="#000000"
       stroke-width="2.83465"
       stroke-linecap="butt"
       stroke-linejoin="round"
       fill="none"
       id="path7" />
    <path
       d="m 495.57166,358.96262 c -1.57163,-0.87125 -3.16626,-1.89487 -4.7706,-3.04987"
       stroke="#000000"
       stroke-width="2.83465"
       stroke-linecap="butt"
       stroke-linejoin="round"
       fill="none"
       id="path8" />
    <path
       d="m 486.34198,352.35486 c -1.40628,-1.25956 -2.78702,-2.55051 -4.14014,-3.87113"
       stroke="#000000"
       stroke-width="2.83465"
       stroke-linecap="butt"
       stroke-linejoin="round"
       fill="none"
       id="path9" />
    <path
       d="m 478.2286,344.43607 c -1.2955,-1.37754 -2.5615,-2.78299 -3.79638,-4.21437"
       stroke="#000000"
       stroke-width="2.83465"
       stroke-linecap="butt"
       stroke-linejoin="round"
       fill="none"
       id="path10" />
    <path
       d="m 470.82257,335.85193 c -0.68341,-0.8667 -1.25272,-1.60007 -1.96397,-2.54758 -0.4581,-0.61023 -0.97502,-1.30929 -1.45586,-1.9678"
       stroke="#000000"
       stroke-width="2.83465"
       stroke-linecap="butt"
       stroke-linejoin="round"
       fill="none"
       id="path11" />
    <path
       d="m 464.12488,326.71082 c -1.07071,-1.55747 -2.11945,-3.13042 -3.1456,-4.71792"
       stroke="#000000"
       stroke-width="2.83465"
       stroke-linecap="butt"
       stroke-linejoin="round"
       fill="none"
       id="path12" />
    <path
       d="m 457.9693,317.1877 c -0.98032,-1.61562 -1.93744,-3.24483 -2.87082,-4.88658"
       stroke="#000000"
       stroke-width="2.83465"
       stroke-linecap="butt"
       stroke-linejoin="round"
       fill="none"
       id="path13" />
    <path
       d="m 452.37253,307.33118 c -0.88723,-1.66864 -1.75363,-3.34845 -2.59885,-5.03864"
       stroke="#000000"
       stroke-width="2.83465"
       stroke-linecap="butt"
       stroke-linejoin="round"
       fill="none"
       id="path14" />
    <path
       d="m 447.33142,297.17743 c -0.78172,-1.71988 -1.54144,-3.4505 -2.27869,-5.19107"
       stroke="#000000"
       stroke-width="2.83465"
       stroke-linecap="butt"
       stroke-linejoin="round"
       fill="none"
       id="path15" />
    <path
       d="m 442.90906,286.73663 c -0.69186,-1.75918 -1.36084,-3.52743 -2.00676,-5.3038"
       stroke="#000000"
       stroke-width="2.83465"
       stroke-linecap="butt"
       stroke-linejoin="round"
       fill="none"
       id="path16" />
    <path
       d="m 439.03452,276.08014 c -0.53696,-1.60529 -1.06112,-3.2356 -1.55466,-4.8349 -0.0588,-0.19058 -0.11719,-0.38068 -0.17194,-0.56177"
       stroke="#000000"
       stroke-width="2.83465"
       stroke-linecap="butt"
       stroke-linejoin="round"
       fill="none"
       id="path17" />
    <path
       d="m 435.80627,265.2195 c -0.45333,-1.83464 -0.8594,-3.6829 -1.21725,-5.54106"
       stroke="#000000"
       stroke-width="2.83465"
       stroke-linecap="butt"
       stroke-linejoin="round"
       fill="none"
       id="path18" />
    <path
       d="m 433.66116,254.08011 c -0.26066,-1.87348 -0.4725,-3.75305 -0.63526,-5.63484"
       stroke="#000000"
       stroke-width="2.83465"
       stroke-linecap="butt"
       stroke-linejoin="round"
       fill="none"
       id="path19" />
    <path
       d="m 432.6846,242.79681 c -9.8e-4,-0.0295 -0.002,-0.0589 -0.003,-0.0883 -0.0183,-1.99025 0.0563,-3.84894 0.2164,-5.57715 a 23.380053,23.380053 0 0 1 2.88932,-10.92621 11.42432,11.42432 0 0 1 8.62078,-6.64777 20.366795,20.366795 0 0 1 10.93385,2.22835 57.366085,57.366085 0 0 1 9.62338,5.98166"
       stroke="#000000"
       stroke-width="2.83465"
       stroke-linecap="butt"
       stroke-linejoin="round"
       fill="none"
       id="path20" />
    <path
       d="m 469.27673,231.43085 c 1.3833,1.28468 2.741,2.59971 4.07117,3.94349"
       stroke="#000000"
       stroke-width="2.83465"
       stroke-linecap="butt"
       stroke-linejoin="round"
       fill="none"
       id="path21" />
    <path
       d="m 477.25232,239.48834 c 1.27258,1.39868 2.51588,2.8243 3.72818,4.27496"
       stroke="#000000"
       stroke-width="2.83465"
       stroke-linecap="butt"
       stroke-linejoin="round"
       fill="none"
       id="path22" />
    <path
       d="m 484.5233,248.18835 c 0.81093,1.05985 1.49678,1.97789 2.35097,3.16114 0.31413,0.43509 0.651,0.90606 1.00293,1.40297"
       stroke="#000000"
       stroke-width="2.83465"
       stroke-linecap="butt"
       stroke-linejoin="round"
       fill="none"
       id="path23" />
    <path
       d="m 491.08472,257.42535 c 1.04666,1.57352 2.07074,3.16297 3.07153,4.76731"
       stroke="#000000"
       stroke-width="2.83465"
       stroke-linecap="butt"
       stroke-linejoin="round"
       fill="none"
       id="path24" />
    <path
       d="m 497.0877,267.04828 c 0.95344,1.63275 1.88303,3.27936 2.78812,4.93878"
       stroke="#000000"
       stroke-width="2.83465"
       stroke-linecap="round"
       stroke-linejoin="round"
       fill="none"
       id="path25" />
    <path
       d="m 502.51727,277.0026 c 0.80997,1.59396 1.59751,3.1984 2.3624,4.81237"
       stroke="#000000"
       stroke-width="2.83465"
       stroke-linecap="round"
       stroke-linejoin="round"
       fill="none"
       id="path26" />
  </g>
  <g
     id="shell"
     transform="translate(-79.272484,-111.36781)">
    <path
       d="m 195.7643,142.78075 a 94.70056,94.70056 0 0 1 37.56639,-11.75432"
       stroke="#000000"
       stroke-width="3.9685"
       stroke-linecap="round"
       stroke-linejoin="round"
       fill="none"
       id="path27" />
    <path
       d="m 250.47647,433.59045 4.23671,-2.44607"
       stroke="#000000"
       stroke-width="3.9685"
       stroke-linecap="round"
       stroke-linejoin="round"
       fill="none"
       id="path28" />
    <path
       d="m 250.47484,428.93506 c 8.02446,4.27654 16.24464,8.11627 24.46926,11.50436 10.81908,4.45688 21.6459,8.13218 32.045,10.99213 10.3991,2.85998 20.37055,4.90455 29.20542,6.21258 8.8349,1.30805 16.53323,1.87961 20.63293,2.05225"
       stroke="#000000"
       stroke-width="3.9685"
       stroke-linecap="round"
       stroke-linejoin="round"
       fill="none"
       id="path29" />
    <path
       d="m 480.98218,250.16801 a 137.3918,137.3918 0 0 1 23.68216,31.24849"
       stroke="#000000"
       stroke-width="3.9685"
       stroke-linecap="round"
       stroke-linejoin="round"
       fill="none"
       id="path30" />
    <path
       d="m 480.98218,250.16801 c -0.36108,0.97283 -1.31195,2.79639 -3.0426,5.05159 -1.73066,2.25522 -4.24106,4.9421 -7.57708,7.9161 -3.33598,2.97404 -7.49748,6.2352 -12.4296,9.6793 -4.93217,3.44406 -10.63493,7.07108 -17.0534,10.77683 -6.4185,3.70569 -13.55272,7.49011 -21.03746,11.21493 -7.48471,3.7248 -15.31994,7.38996 -23.1405,10.85714 -7.82056,3.4672 -15.62641,6.73643 -22.7533,9.59513 -7.12686,2.85867 -13.57484,5.30687 -17.12079,6.58977"
       stroke="#000000"
       stroke-width="3.9685"
       stroke-linecap="round"
       stroke-linejoin="round"
       fill="none"
       id="path31" />
    <path
       d="m 356.82745,459.69638 c 0.62262,-0.69195 1.66172,-2.22436 2.68555,-4.61661 1.02387,-2.39221 2.03253,-5.64427 2.88672,-9.74179 0.85418,-4.09748 1.55395,-9.0404 2.04016,-14.74054 0.48622,-5.7001 0.75888,-12.15747 0.75888,-19.28384 0,-7.1264 -0.27266,-14.92182 -0.75888,-23.008 -0.48621,-8.08618 -1.18598,-16.46313 -2.04016,-24.7526 -0.85419,-8.28948 -1.86285,-16.49148 -2.88672,-23.9325 -1.02383,-7.44103 -2.06293,-14.12105 -2.68555,-17.7717"
       stroke="#000000"
       stroke-width="3.9685"
       stroke-linecap="round"
       stroke-linejoin="round"
       fill="none"
       id="path32" />
    <path
       d="m 480.98218,250.16801 c -2.16008,-3.44139 -6.43946,-9.7852 -11.92581,-16.74552 -5.48639,-6.96033 -12.17972,-14.53716 -19.80267,-22.08226 -7.62296,-7.54511 -16.17554,-15.05848 -25.41447,-22.1821 -9.23893,-7.12365 -19.16415,-13.85753 -29.5325,-19.84369 -2.48639,-1.43552 -4.99826,-2.82804 -7.5296,-4.17708"
       stroke="#000000"
       stroke-width="3.9685"
       stroke-linecap="round"
       stroke-linejoin="round"
       fill="none"
       id="path33" />
    <path
       d="M 82.10713,151.22406 213.8529,227.28754"
       stroke="#000000"
       stroke-width="3.9685"
       stroke-linecap="round"
       stroke-linejoin="round"
       fill="none"
       id="path34" />
    <path
       d="m 490.01898,255.81302 c 0.0683,0.10034 0.13657,0.20088 0.20487,0.30163"
       stroke="#000000"
       stroke-width="3.9685"
       stroke-linecap="round"
       stroke-linejoin="round"
       fill="none"
       id="path35" />
    <path
       d="m 249.83649,428.59372 c 0.21263,0.11408 0.42541,0.22788 0.63835,0.34134"
       stroke="#000000"
       stroke-width="3.9685"
       stroke-linecap="round"
       stroke-linejoin="round"
       fill="none"
       id="path36" />
    <path
       d="M 356.82745,459.69638 A 139.68266,139.68266 0 0 0 403.9213,463.046"
       stroke="#000000"
       stroke-width="3.9685"
       stroke-linecap="round"
       stroke-linejoin="round"
       fill="none"
       id="path37" />
    <path
       d="M 174.32133,216.74866 A 14474.212,14474.212 0 0 0 356.82745,321.8488"
       stroke="#000000"
       stroke-width="3.9685"
       stroke-linecap="round"
       stroke-linejoin="round"
       fill="none"
       id="path38" />
    <path
       d="m 250.47484,428.93506 c -2.90274,-1.547 -5.7892,-3.14716 -8.65097,-4.79944 -11.8029,-6.81439 -23.21869,-14.53542 -33.94234,-22.81168 -10.34474,-7.98379 -20.4753,-16.82391 -29.8349,-26.18121 -4.17818,-4.17713 -8.29445,-8.54919 -12.22951,-13.01833 -4.8356,-5.49195 -9.44458,-11.17222 -13.86184,-17.18742 -5.70655,-7.77088 -10.94628,-15.89218 -15.6554,-24.52695 -7.07868,-12.97967 -12.82817,-26.96237 -16.3928,-41.85705 -1.56534,-6.58005 -2.45838,-13.00034 -2.45838,-18.97424 0,-7.2809 1.32655,-13.69312 3.60882,-19.13886 2.40008,-5.7269 5.85319,-10.38426 9.96729,-13.96654 2.82105,-2.45639 5.99696,-4.44668 9.36221,-5.99289 1.83471,-0.84295 3.74078,-1.56097 5.70202,-2.15429 6.35513,-1.92258 13.06849,-2.52442 20.30325,-2.23278 2.60286,0.10492 5.25901,0.33055 7.92904,0.65529 a 167.2288,167.2288 0 0 1 39.53157,10.53885 c -6.30421,-5.53075 -12.05494,-11.39299 -16.85867,-17.40812 -3.20918,-4.0185 -6.05952,-8.18441 -8.37491,-12.40407 -2.29835,-4.18866 -4.08868,-8.46297 -5.22064,-12.81009 -0.98398,-3.77884 -1.47267,-7.62667 -1.34622,-11.44904 0.19862,-6.00326 1.92847,-12.05342 5.62462,-17.6859 2.62454,-3.99948 6.24112,-7.78138 10.95975,-11.09109"
       stroke="#000000"
       stroke-width="3.9685"
       stroke-linecap="round"
       stroke-linejoin="round"
       fill="none"
       id="path39" />
  </g>
  <g
     id="Default"
     transform="translate(-79.272484,-111.36781)">
    <path
       d="m 198.63683,144.43921 -6.30665,-3.64114"
       stroke="#000000"
       stroke-width="0.24"
       stroke-linecap="round"
       stroke-linejoin="round"
       fill="none"
       id="path40" />
  </g>
</svg>
