<?xml version="1.0" encoding="UTF-8" standalone="no"?>
<svg
   version="1.1"
   width="408.42203pt"
   height="395.65744pt"
   viewBox="0 0 408.42202 395.64803"
   id="svg19"
   sodipodi:docname="ellipsoid-capsule_2.svg"
   inkscape:version="1.3.2 (091e20e, 2023-11-25, custom)"
   xmlns:inkscape="http://www.inkscape.org/namespaces/inkscape"
   xmlns:sodipodi="http://sodipodi.sourceforge.net/DTD/sodipodi-0.dtd"
   xmlns="http://www.w3.org/2000/svg"
   xmlns:svg="http://www.w3.org/2000/svg">
  <sodipodi:namedview
     id="namedview19"
     pagecolor="#ffffff"
     bordercolor="#000000"
     borderopacity="0.25"
     inkscape:showpageshadow="2"
     inkscape:pageopacity="0.0"
     inkscape:pagecheckerboard="0"
     inkscape:deskcolor="#d1d1d1"
     inkscape:document-units="pt"
     inkscape:zoom="0.74313887"
     inkscape:cx="278.54821"
     inkscape:cy="360.63246"
     inkscape:window-width="1920"
     inkscape:window-height="1010"
     inkscape:window-x="-6"
     inkscape:window-y="1077"
     inkscape:window-maximized="1"
     inkscape:current-layer="svg19" />
  <defs
     id="defs1" />
  <g
     id="window"
     transform="translate(-89.295618,-150.08814)">
    <path
       d="m 406.22595,438.6786 c 4.66895,-7.36232 10.01195,-14.16374 15.74829,-20.10292 6.25904,-6.48043 12.9906,-11.93638 19.72926,-15.83958 6.73568,-3.90154 13.46535,-6.2441 19.72433,-7.01698 5.77551,-0.71322 11.15374,-0.0924 15.84827,1.88681 1.38815,0.58523 2.71343,1.28775 3.97048,2.1065 4.19019,2.72919 7.58509,6.72957 9.98966,11.8425 2.55386,5.43037 3.97136,12.08441 3.97189,19.61005 5.2e-4,7.52362 -1.41516,15.81546 -3.96686,24.19942 -2.4115,7.92323 -5.82025,15.88047 -10.02923,23.48347 -1.23714,2.23468 -2.5402,4.43329 -3.904,6.5889 -4.71384,7.45041 -10.1184,14.32867 -15.92337,20.32373 -6.2604,6.4655 -12.99054,11.9055 -19.72543,15.793 -6.73779,3.88925 -13.4675,6.21725 -19.72378,6.97415 -5.76181,0.69708 -11.12562,0.0641 -15.80692,-1.92275 -1.40579,-0.59654 -2.74692,-1.31376 -4.01767,-2.1504 -4.15512,-2.7355 -7.52157,-6.7277 -9.9075,-11.81937 -2.54764,-5.43673 -3.95819,-12.09579 -3.95203,-19.62497 0.006,-7.53122 1.42963,-15.82936 3.98966,-24.21806 2.38867,-7.827 5.75012,-15.68657 9.89413,-23.20363 1.29291,-2.34537 2.65854,-4.65134 4.09082,-6.90987 z"
       stroke="#000000"
       stroke-width="2.83465"
       stroke-linecap="round"
       stroke-linejoin="round"
       fill="none"
       id="path1" />
  </g>
  <g
     id="shell"
     transform="translate(-89.295618,-150.08814)">
    <path
       d="m 331.70804,539.227 a 139.68266,139.68266 0 0 0 47.09386,3.34954"
       stroke="#000000"
       stroke-width="3.9685"
       stroke-linecap="round"
       stroke-linejoin="round"
       fill="none"
       id="path2" />
    <path
       d="m 455.86276,329.6986 c -2.16003,-3.44143 -6.43946,-9.7852 -11.92581,-16.74554 -5.48635,-6.96032 -12.17972,-14.53714 -19.80267,-22.08226 -7.62293,-7.5451 -16.17551,-15.05848 -25.41443,-22.1821 -9.23892,-7.12364 -19.16419,-13.85754 -29.53253,-19.84368 -2.48639,-1.43552 -4.99822,-2.82802 -7.52957,-4.17708"
       stroke="#000000"
       stroke-width="3.9685"
       stroke-linecap="round"
       stroke-linejoin="round"
       fill="none"
       id="path3" />
    <path
       d="m 406.22595,438.6786 c 4.66895,-7.36232 10.01195,-14.16374 15.74829,-20.10292 6.25904,-6.48043 12.9906,-11.93638 19.72926,-15.83958 6.73568,-3.90154 13.46535,-6.2441 19.72433,-7.01698 5.77551,-0.71322 11.15374,-0.0924 15.84827,1.88681 1.38815,0.58523 2.71343,1.28775 3.97048,2.1065 4.19019,2.72919 7.58509,6.72957 9.98966,11.8425 2.55386,5.43037 3.97136,12.08441 3.97189,19.61005 2.4e-4,3.81778 -0.36411,7.83334 -1.05658,11.9584"
       stroke="#000000"
       stroke-width="3.9685"
       stroke-linecap="round"
       stroke-linejoin="round"
       fill="none"
       id="path4" />
    <path
       d="m 455.86276,329.6986 a 131.07642,131.07642 0 0 1 28.89569,42.23628"
       stroke="#000000"
       stroke-width="3.9685"
       stroke-linecap="round"
       stroke-linejoin="round"
       fill="none"
       id="path5" />
    <path
       d="m 455.86276,329.6986 c -0.36108,0.97282 -1.31192,2.7964 -3.04256,5.05158 -1.7307,2.25519 -4.2411,4.94212 -7.5771,7.91612 -3.336,2.97402 -7.4975,6.2352 -12.42962,9.67928 -4.93216,3.44409 -10.63488,7.07108 -17.05341,10.7768 -6.41849,3.70572 -13.5527,7.49014 -21.03744,11.21496 -7.48473,3.72479 -15.31995,7.38996 -23.14048,10.85716 -7.82058,3.46718 -15.6264,6.73644 -22.75332,9.5951 -7.12686,2.85872 -13.5748,5.30687 -17.12079,6.58973"
       stroke="#000000"
       stroke-width="3.9685"
       stroke-linecap="round"
       stroke-linejoin="round"
       fill="none"
       id="path6" />
    <path
       d="m 331.70804,539.227 c 0.62266,-0.692 1.66171,-2.22444 2.68556,-4.61665 1.02385,-2.39225 2.03252,-5.64429 2.8867,-9.74175 0.85422,-4.09754 1.55396,-9.0405 2.04017,-14.74058 0.48623,-5.7001 0.75888,-12.1575 0.75888,-19.28387 0,-7.12638 -0.27265,-14.92179 -0.75888,-23.00797 -0.48621,-8.08618 -1.18595,-16.46313 -2.04017,-24.75262 -0.85418,-8.28946 -1.86285,-16.49143 -2.8867,-23.93246 -1.02385,-7.44102 -2.0629,-14.1211 -2.68556,-17.77177"
       stroke="#000000"
       stroke-width="3.9685"
       stroke-linecap="round"
       stroke-linejoin="round"
       fill="none"
       id="path7" />
    <path
       d="M 131.15042,285.58734 A 12586.551,12586.551 0 0 0 331.70804,401.37936"
       stroke="#000000"
       stroke-width="3.9685"
       stroke-linecap="round"
       stroke-linejoin="round"
       fill="none"
       id="path8" />
    <path
       d="m 131.15042,285.58734 c -2.56229,1.81186 -7.02029,5.31818 -11.39268,9.64368 -4.37238,4.3255 -8.65913,9.47018 -12.28949,15.1705 -3.63035,5.70032 -6.60433,11.95624 -8.6707,18.56868 -2.06639,6.61244 -3.225185,13.5814 -3.225185,20.70778 0,7.1264 1.158795,14.41019 3.225185,21.58407 0.963536,3.34513 2.12442,6.66642 3.45719,9.93665"
       stroke="#000000"
       stroke-width="3.9685"
       stroke-linecap="round"
       stroke-linejoin="round"
       fill="none"
       id="path9" />
    <path
       d="m 156.43594,225.09258 a 55.957966,55.957966 0 0 1 18.9177,-5.33481"
       stroke="#000000"
       stroke-width="3.9685"
       stroke-linecap="round"
       stroke-linejoin="round"
       fill="none"
       id="path10" />
    <path
       d="m 494.15155,443.12338 c -0.67218,4.00412 -1.65338,8.11139 -2.91028,12.24102 -2.4115,7.92323 -5.82025,15.88047 -10.02923,23.48347 -1.23714,2.23468 -2.5402,4.43329 -3.904,6.5889 -4.71384,7.45041 -10.1184,14.32867 -15.92337,20.32373 -3.68499,3.80572 -7.53271,7.25616 -11.44837,10.2437"
       stroke="#000000"
       stroke-width="3.9685"
       stroke-linecap="round"
       stroke-linejoin="round"
       fill="none"
       id="path11" />
    <path
       d="m 225.35542,508.4656 c 8.02446,4.2766 16.24465,8.1163 24.46926,11.50443 10.81909,4.45687 21.6459,8.13217 32.04502,10.99213 10.39913,2.85994 20.37053,4.90454 29.20543,6.21258 8.83487,1.30806 16.53321,1.87956 20.63291,2.05226"
       stroke="#000000"
       stroke-width="3.9685"
       stroke-linecap="round"
       stroke-linejoin="round"
       fill="none"
       id="path12" />
    <path
       d="m 175.35365,219.75778 c 2.0273,-0.22294 4.09175,-0.35878 6.18135,-0.41696"
       stroke="#000000"
       stroke-width="3.9685"
       stroke-linecap="round"
       stroke-linejoin="round"
       fill="none"
       id="path13" />
    <path
       d="m 325.03674,228.11465 a 312.84665,312.84665 0 0 1 36.62101,16.55329 c 2.90275,1.54698 5.78918,3.14716 8.65097,4.79941 11.80288,6.81439 23.21868,14.53543 33.94235,22.81167 10.34473,7.98386 20.47528,16.82395 29.83487,26.18122 4.17816,4.17716 8.29443,8.54922 12.22952,13.0184 4.8356,5.49194 9.44458,11.17216 13.86184,17.18736 5.70652,7.7709 10.94627,15.8922 15.6554,24.52696 3.2906,6.03372 6.29395,12.28421 8.92572,18.74192 a 139.1709,139.1709 0 0 1 10.97495,52.22302 C 493.59714,490.395 451.4949,525.4812 403.6565,538.029 a 172.49542,172.49542 0 0 1 -24.8546,4.54754 c -3.91283,0.4303 -7.82302,0.73511 -11.7246,0.92506 -12.9696,0.6314 -25.5391,0.042 -38.06937,-1.49885 -2.53829,-0.3122 -5.05316,-0.66199 -7.56023,-1.04885 -10.30753,-1.5904 -20.8529,-3.89164 -30.73072,-6.57756 -12.72006,-3.4588 -25.38806,-7.81874 -37.38235,-12.75754 -9.50818,-3.91506 -18.89498,-8.31185 -27.97921,-13.1532 -2.90272,-1.54693 -5.78918,-3.14712 -8.65097,-4.79934 -11.80288,-6.81446 -23.21867,-14.53549 -33.94232,-22.81174 -10.34474,-7.98379 -20.47528,-16.82388 -29.8349,-26.18122 -4.17818,-4.1771 -8.29445,-8.5492 -12.22951,-13.01836 -4.8356,-5.49194 -9.44459,-11.17214 -13.86185,-17.18738 -5.70654,-7.77086 -10.94626,-15.89221 -15.65538,-24.52696 -3.2906,-6.0337 -6.29397,-12.2842 -8.92575,-18.7419 A 139.15602,139.15602 0 0 1 91.27987,328.89655 115.07221,115.07221 0 0 1 129.1763,243.7172 l -0.0303,-54.62318 64.14072,-37.03166 z"
       stroke="#000000"
       stroke-width="3.9685"
       stroke-linecap="round"
       stroke-linejoin="round"
       fill="none"
       id="path14" />
    <path
       d="m 449.9363,516.0042 c -2.73665,2.0881 -5.50646,3.9501 -8.27706,5.5493 -6.73779,3.88925 -13.4675,6.21725 -19.72378,6.97415 -5.76181,0.69708 -11.12562,0.0641 -15.80692,-1.92275 -1.40579,-0.59654 -2.74692,-1.31376 -4.01767,-2.1504 -4.15512,-2.7355 -7.52157,-6.7277 -9.9075,-11.81937 -2.54764,-5.43673 -3.95819,-12.09579 -3.95203,-19.62497 0.006,-7.53122 1.42963,-15.82936 3.98966,-24.21806 2.38867,-7.827 5.75012,-15.68657 9.89413,-23.20363 1.29291,-2.34537 2.65854,-4.65134 4.09082,-6.90987"
       stroke="#000000"
       stroke-width="3.9685"
       stroke-linecap="round"
       stroke-linejoin="round"
       fill="none"
       id="path15" />
    <path
       d="m 131.15042,285.58734 c 0.36105,-3.1217 1.31192,-8.74359 3.04258,-14.7178 1.73065,-5.97422 4.2411,-12.30074 7.57707,-18.3571 3.33598,-6.05637 7.49749,-11.84255 12.42962,-17.0411 4.93215,-5.19853 10.63492,-9.80941 17.05341,-13.51512 1.3369,-0.77186 2.70485,-1.50445 4.10055,-2.19844"
       stroke="#000000"
       stroke-width="3.9685"
       stroke-linecap="round"
       stroke-linejoin="round"
       fill="none"
       id="path16" />
    <path
       d="m 129.14601,189.09402 52.38899,30.2468"
       stroke="#000000"
       stroke-width="3.9685"
       stroke-linecap="round"
       stroke-linejoin="round"
       fill="none"
       id="path17" />
    <path
       d="m 181.535,219.34082 c 5.73261,-2.7243 12.28305,-4.81233 19.21035,-6.32761 9.75576,-2.13397 20.23494,-3.1327 30.63288,-3.24737 6.62053,-0.073 13.28516,0.20914 19.83031,0.77724 7.52944,0.65353 14.93273,1.68718 22.18773,3.01412 7.30866,1.3368 14.52426,2.98244 21.48447,4.83527 10.41852,2.77344 20.57226,6.09361 30.15176,9.73335"
       stroke="#000000"
       stroke-width="3.9685"
       stroke-linecap="round"
       stroke-linejoin="round"
       fill="none"
       id="path18" />
    <path
       d="m 129.1763,243.7172 a 119.47049,119.47049 0 0 1 27.25966,-18.62458"
       stroke="#000000"
       stroke-width="3.9685"
       stroke-linecap="round"
       stroke-linejoin="round"
       fill="none"
       id="path19" />
  </g>
</svg>
