<?xml version="1.0" encoding="UTF-8" standalone="no"?>
<svg
   version="1.1"
   width="442.72153pt"
   height="338.32208pt"
   viewBox="0 0 442.72152 338.31404"
   id="svg14"
   sodipodi:docname="ellipsoid-capsule_6.svg"
   inkscape:version="1.3.2 (091e20e, 2023-11-25, custom)"
   xmlns:inkscape="http://www.inkscape.org/namespaces/inkscape"
   xmlns:sodipodi="http://sodipodi.sourceforge.net/DTD/sodipodi-0.dtd"
   xmlns="http://www.w3.org/2000/svg"
   xmlns:svg="http://www.w3.org/2000/svg">
  <sodipodi:namedview
     id="namedview14"
     pagecolor="#ffffff"
     bordercolor="#000000"
     borderopacity="0.25"
     inkscape:showpageshadow="2"
     inkscape:pageopacity="0.0"
     inkscape:pagecheckerboard="0"
     inkscape:deskcolor="#d1d1d1"
     inkscape:document-units="pt"
     inkscape:zoom="0.74313887"
     inkscape:cx="286.62207"
     inkscape:cy="222.03118"
     inkscape:window-width="1920"
     inkscape:window-height="1010"
     inkscape:window-x="-6"
     inkscape:window-y="1077"
     inkscape:window-maximized="1"
     inkscape:current-layer="svg14" />
  <defs
     id="defs1" />
  <g
     id="window"
     transform="translate(-82.731008,-254.6442)">
    <path
       d="m 433.95352,485.907 c 4.66892,-7.3623 10.01193,-14.1637 15.74823,-20.1029 6.25907,-6.48043 12.99063,-11.93633 19.72925,-15.83956 6.73572,-3.90154 13.46536,-6.24408 19.72436,-7.017 5.77549,-0.7132 11.15369,-0.0924 15.8483,1.88684 1.38812,0.58524 2.71341,1.28775 3.97049,2.10652 4.19015,2.72914 7.58505,6.72954 9.98965,11.8425 2.55384,5.43035 3.9713,12.0844 3.9718,19.61003 6e-4,7.52359 -1.4151,15.81543 -3.96685,24.19943 -2.41145,7.92322 -5.82015,15.88044 -10.02917,23.48344 -1.2371,2.23474 -2.54018,4.43334 -3.904,6.58886 -4.7138,7.4505 -10.11838,14.32874 -15.92334,20.32379 -6.26046,6.46552 -12.99057,11.90545 -19.72546,15.79305 -6.73778,3.88914 -13.4675,6.21715 -19.72376,6.9741 -5.76184,0.6971 -11.12567,0.0641 -15.80692,-1.9227 -1.40584,-0.59664 -2.74697,-1.3138 -4.01772,-2.1504 -4.15508,-2.73555 -7.52155,-6.7277 -9.9075,-11.8194 -2.54761,-5.4368 -3.95813,-12.09584 -3.952,-19.625 0.006,-7.5312 1.4296,-15.8294 3.98969,-24.2181 2.38863,-7.82696 5.75013,-15.68655 9.89407,-23.20357 1.29296,-2.34533 2.65854,-4.65137 4.09088,-6.90993 z"
       stroke="#000000"
       stroke-width="2.83465"
       stroke-linecap="round"
       stroke-linejoin="round"
       fill="none"
       id="path1" />
  </g>
  <g
     id="shell"
     transform="translate(-82.731008,-254.6442)">
    <path
       d="M 148.85597,541.8336 V 356.67535"
       stroke="#000000"
       stroke-width="3.9685"
       stroke-linecap="round"
       stroke-linejoin="round"
       fill="none"
       id="path2" />
    <path
       d="m 84.71526,319.6437 64.14071,37.03165"
       stroke="#000000"
       stroke-width="3.9685"
       stroke-linecap="round"
       stroke-linejoin="round"
       fill="none"
       id="path3" />
    <path
       d="m 483.5903,376.92703 a 131.07642,131.07642 0 0 1 28.89566,42.2363"
       stroke="#000000"
       stroke-width="3.9685"
       stroke-linecap="round"
       stroke-linejoin="round"
       fill="none"
       id="path4" />
    <path
       d="m 483.5903,376.92703 c -0.36105,0.97284 -1.31192,2.79639 -3.04257,5.05161 -1.73065,2.25522 -4.24109,4.94208 -7.57709,7.9161 -3.33597,2.97403 -7.4975,6.2352 -12.42962,9.67926 -4.93212,3.4441 -10.63492,7.0711 -17.05338,10.77683 -6.41852,3.70572 -13.5527,7.49014 -21.03744,11.21494 -7.48475,3.72483 -15.31998,7.38995 -23.14054,10.85717 -7.82052,3.4672 -15.6264,6.73642 -22.75326,9.5951 -7.1269,2.8587 -13.57483,5.30686 -17.12082,6.58976"
       stroke="#000000"
       stroke-width="3.9685"
       stroke-linecap="round"
       stroke-linejoin="round"
       fill="none"
       id="path5" />
    <path
       d="m 349.17523,588.1824 c 2.50705,0.38675 5.02197,0.7366 7.56021,1.0488 a 221.54205,221.54205 0 0 0 38.0694,1.49884 193.1805,193.1805 0 0 0 11.72461,-0.92504 c 8.33969,-0.9171 16.69702,-2.40784 24.85458,-4.5476 16.59457,-4.3526 32.4989,-11.4174 46.26929,-22.03834 3.92615,-2.974 7.7739,-6.42436 11.45892,-10.23011 5.80496,-5.99505 11.20954,-12.87329 15.92334,-20.32379 1.36382,-2.15552 2.6669,-4.35412 3.904,-6.58886 4.20902,-7.603 7.61772,-15.56022 10.02917,-23.48344 1.2569,-4.1296 2.23815,-8.23693 2.88395,-12.24569 3.24593,-18.58997 1.4001,-37.21359 -3.73673,-55.01507 -1.58387,-5.48914 -3.47977,-10.89262 -5.63001,-16.1688 A 244.98674,244.98674 0 0 0 503.5602,400.4214 216.41055,216.41055 0 0 0 487.90485,375.89444 248.56335,248.56335 0 0 0 474.043,358.70706 282.0585,282.0585 0 0 0 461.81348,345.6887 312.53284,312.53284 0 0 0 431.97858,319.50748 307.4429,307.4429 0 0 0 398.03625,296.6958 c -2.86178,-1.65228 -5.74823,-3.25244 -8.65097,-4.79944 A 312.9842,312.9842 0 0 0 361.4061,278.74323 318.36496,318.36496 0 0 0 324.02374,265.9857 283.73398,283.73398 0 0 0 293.29303,259.4081 c -2.50708,-0.38683 -5.02197,-0.73665 -7.56023,-1.04882 a 221.54205,221.54205 0 0 0 -38.06938,-1.49888 193.1805,193.1805 0 0 0 -11.72461,0.92503 172.49542,172.49542 0 0 0 -24.85458,4.54757 145.25232,145.25232 0 0 0 -11.22031,3.41987 L 188.94391,259.46725 84.71526,319.6437 v 185.15827 l 64.14071,37.03163 46.1987,-26.6728 a 308.86978,308.86978 0 0 0 57.12032,39.523 226.22124,226.22124 0 0 0 28.88714,14.1634 318.36496,318.36496 0 0 0 37.38239,12.75754 283.73398,283.73398 0 0 0 30.73071,6.57766"
       stroke="#000000"
       stroke-width="3.9685"
       stroke-linecap="round"
       stroke-linejoin="round"
       fill="none"
       id="path6" />
    <path
       d="M 183.39583,347.30927 A 14948.524,14948.524 0 0 0 359.43558,448.6078"
       stroke="#000000"
       stroke-width="3.9685"
       stroke-linecap="round"
       stroke-linejoin="round"
       fill="none"
       id="path7" />
    <path
       d="m 202.40504,267.32654 a 97.88376,97.88376 0 0 1 33.53377,-9.54111"
       stroke="#000000"
       stroke-width="3.9685"
       stroke-linecap="round"
       stroke-linejoin="round"
       fill="none"
       id="path8" />
    <path
       d="m 359.43558,586.4554 a 139.68266,139.68266 0 0 0 47.09387,3.3496"
       stroke="#000000"
       stroke-width="3.9685"
       stroke-linecap="round"
       stroke-linejoin="round"
       fill="none"
       id="path9" />
    <path
       d="m 359.43558,586.4554 c 0.62265,-0.692 1.66172,-2.2244 2.68557,-4.6166 1.02385,-2.39227 2.03251,-5.64434 2.88672,-9.7418 0.85416,-4.0975 1.55396,-9.0404 2.04013,-14.74055 0.4862,-5.70005 0.7589,-12.15745 0.7589,-19.28382 0,-7.12643 -0.2727,-14.92187 -0.7589,-23.00799 -0.48617,-8.08622 -1.18597,-16.46317 -2.04013,-24.7526 -0.85421,-8.28949 -1.86287,-16.49148 -2.88672,-23.93252 -1.02385,-7.44102 -2.06292,-14.12107 -2.68557,-17.77172"
       stroke="#000000"
       stroke-width="3.9685"
       stroke-linecap="round"
       stroke-linejoin="round"
       fill="none"
       id="path10" />
    <path
       d="m 483.5903,376.92703 c -2.16006,-3.44137 -6.43945,-9.78523 -11.92578,-16.74553 -5.48639,-6.96034 -12.17972,-14.53715 -19.80267,-22.08226 -7.62295,-7.5451 -16.17555,-15.05844 -25.41445,-22.1821 -9.23896,-7.12362 -19.1642,-13.85754 -29.53254,-19.84368 -2.48636,-1.43552 -4.99823,-2.82804 -7.52958,-4.1771"
       stroke="#000000"
       stroke-width="3.9685"
       stroke-linecap="round"
       stroke-linejoin="round"
       fill="none"
       id="path11" />
    <path
       d="M 148.85597,356.67535 194.82568,330.1347"
       stroke="#000000"
       stroke-width="3.9685"
       stroke-linecap="round"
       stroke-linejoin="round"
       fill="none"
       id="path12" />
    <path
       d="m 195.05466,515.1608 a 297.14084,297.14084 0 0 1 -22.86879,-22.12082 c -3.38773,-3.88953 -6.22472,-8.5054 -8.52431,-13.68778 -2.39259,-5.3919 -4.21143,-11.41418 -5.43895,-17.88067 -1.25128,-6.59168 -1.89889,-13.70108 -1.89889,-21.15747 0,-7.45646 0.64761,-15.31366 1.89889,-23.35016 1.22752,-7.88394 3.04636,-16.00644 5.43895,-24.16107 2.29959,-7.83773 5.13658,-15.72943 8.52432,-23.53077 3.25685,-7.49996 6.9876,-14.837 11.20995,-21.96279 a 199.1722,199.1722 0 0 1 11.42985,-17.17453 c -1.30229,-1.94401 -2.5079,-3.91334 -3.5982,-5.9004 -2.29837,-4.18864 -4.0887,-8.46294 -5.22066,-12.81008 -0.98399,-3.77886 -1.47267,-7.62668 -1.34622,-11.44904 0.19862,-6.00327 1.92847,-12.05342 5.62462,-17.68592 3.29832,-5.02624 8.15902,-9.7 14.77288,-13.51852 l -5.20242,-3.00363"
       stroke="#000000"
       stroke-width="3.9685"
       stroke-linecap="round"
       stroke-linejoin="round"
       fill="none"
       id="path13" />
    <path
       d="m 252.17499,554.6838 c 8.93243,5.28684 17.15261,9.1265 25.37726,12.5147 10.81909,4.45683 21.64587,8.1321 32.04501,10.9921 10.39908,2.85994 20.37051,4.9045 29.20538,6.21254 8.8349,1.30806 16.53324,1.87956 20.63294,2.05226"
       stroke="#000000"
       stroke-width="3.9685"
       stroke-linecap="round"
       stroke-linejoin="round"
       fill="none"
       id="path14" />
  </g>
</svg>
