<?xml version="1.0" encoding="UTF-8" standalone="no"?>
<svg
   version="1.1"
   width="444.39639pt"
   height="355.69757pt"
   viewBox="0 0 444.39638 355.68911"
   id="svg15"
   sodipodi:docname="ellipsoid-capsule_1.svg"
   inkscape:version="1.3.2 (091e20e, 2023-11-25, custom)"
   xmlns:inkscape="http://www.inkscape.org/namespaces/inkscape"
   xmlns:sodipodi="http://sodipodi.sourceforge.net/DTD/sodipodi-0.dtd"
   xmlns="http://www.w3.org/2000/svg"
   xmlns:svg="http://www.w3.org/2000/svg">
  <sodipodi:namedview
     id="namedview15"
     pagecolor="#ffffff"
     bordercolor="#000000"
     borderopacity="0.25"
     inkscape:showpageshadow="2"
     inkscape:pageopacity="0.0"
     inkscape:pagecheckerboard="0"
     inkscape:deskcolor="#d1d1d1"
     inkscape:document-units="pt"
     inkscape:zoom="0.74313887"
     inkscape:cx="238.1789"
     inkscape:cy="290.659"
     inkscape:window-width="1920"
     inkscape:window-height="1010"
     inkscape:window-x="-6"
     inkscape:window-y="1077"
     inkscape:window-maximized="1"
     inkscape:current-layer="svg15" />
  <defs
     id="defs1" />
  <g
     id="boundary"
     transform="translate(-119.30192,-202.84702)">
    <path
       d="m 549.9073,383.8835 c -2.6318,-6.4577 -5.63514,-12.70818 -8.92573,-18.7419 -4.70911,-8.63476 -9.94887,-16.75607 -15.65547,-24.52698 -4.4172,-6.01519 -9.02623,-11.6954 -13.86178,-17.18734 -3.93512,-4.46918 -8.05136,-8.84125 -12.22952,-13.01841 -9.35962,-9.35727 -19.49014,-18.19735 -29.8349,-26.18121 -10.72366,-8.27624 -22.13943,-15.99728 -33.94232,-22.81166 -2.86178,-1.65227 -5.74823,-3.25243 -8.65098,-4.79942 -9.08422,-4.84134 -18.471,-9.23807 -27.97918,-13.15316 -11.99429,-4.93878 -24.66229,-9.29878 -37.38238,-12.75753 -9.87781,-2.68593 -20.42319,-4.98716 -30.73072,-6.57759 -2.50704,-0.38683 -5.02197,-0.73665 -7.56022,-1.0488 -12.5303,-1.54093 -25.09978,-2.13028 -38.06938,-1.49889 -3.90158,0.18996 -7.81177,0.49474 -11.72462,0.92504 a 161.84966,161.84966 0 0 0 -41.00047,9.77163 l -46.08235,-26.60566 -64.14071,37.03166 v 185.15826 l 168.36938,97.2081 -8.2e-4,-4.6391 c 9.08847,4.82746 18.47274,9.22286 27.97833,13.1369 11.99429,4.93876 24.66229,9.29871 37.38238,12.75751 9.87781,2.68595 20.42319,4.98718 30.73072,6.57755 2.50704,0.38687 5.02194,0.7367 7.56021,1.04885 12.5303,1.5409 25.09976,2.13032 38.06937,1.49891 3.90158,-0.19001 7.81182,-0.49476 11.7246,-0.92506 8.33976,-0.91717 16.69703,-2.4079 24.85459,-4.54754 21.46837,-5.63106 41.78149,-15.80116 57.79067,-32.36749 35.8781,-37.83631 39.90327,-79.56915 28.94135,-117.55789 A 161.6526,161.6526 0 0 0 549.9073,383.8835"
       stroke="#000000"
       stroke-width="5.66929"
       stroke-linecap="round"
       stroke-linejoin="round"
       fill="none"
       id="path1" />
  </g>
  <g
     id="window"
     transform="translate(-119.30192,-202.84702)">
    <path
       d="m 471.37482,450.62723 c 4.66894,-7.36231 10.01196,-14.16373 15.74826,-20.10291 6.25902,-6.48044 12.99062,-11.93637 19.72922,-15.83957 6.7358,-3.90155 13.4654,-6.24411 19.7244,-7.01699 5.7755,-0.71323 11.15365,-0.0924 15.8483,1.88681 1.3881,0.58523 2.71337,1.28775 3.97045,2.1065 4.19018,2.72919 7.58505,6.72955 9.98965,11.8425 2.55386,5.43036 3.9713,12.08441 3.97183,19.61005 6.1e-4,7.52362 -1.4151,15.81546 -3.96679,24.19943 -2.41154,7.92322 -5.82024,15.88045 -10.02924,23.48345 -1.2371,2.2347 -2.54016,4.4333 -3.904,6.5889 -4.7138,7.45045 -10.1184,14.32865 -15.9234,20.32377 -6.26037,6.46543 -12.99053,11.90553 -19.7254,15.79303 -6.73782,3.8892 -13.46752,6.2172 -19.72375,6.97406 -5.76187,0.69708 -11.12567,0.0641 -15.80695,-1.92266 -1.40582,-0.5966 -2.74694,-1.31385 -4.0177,-2.15046 -4.1551,-2.73554 -7.52157,-6.72764 -9.9075,-11.81934 -2.54763,-5.4367 -3.95816,-12.09576 -3.952,-19.62503 0.006,-7.53117 1.4296,-15.82937 3.98966,-24.21802 2.38864,-7.82702 5.75014,-15.68658 9.89411,-23.20365 1.29293,-2.34533 2.65857,-4.65133 4.09085,-6.90987 z"
       stroke="#000000"
       stroke-width="2.83465"
       stroke-linecap="round"
       stroke-linejoin="round"
       fill="none"
       id="path2" />
  </g>
  <g
     id="shell"
     transform="translate(-119.30192,-202.84702)">
    <path
       d="m 235.79375,234.25996 a 94.70056,94.70056 0 0 1 37.56639,-11.75431"
       stroke="#000000"
       stroke-width="3.9685"
       stroke-linecap="round"
       stroke-linejoin="round"
       fill="none"
       id="path3" />
    <path
       d="m 289.8659,520.07294 c 0.21265,0.11406 0.42548,0.22786 0.63837,0.34136"
       stroke="#000000"
       stroke-width="3.9685"
       stroke-linecap="round"
       stroke-linejoin="round"
       fill="none"
       id="path4" />
    <path
       d="m 290.50427,520.4143 c 8.02448,4.2765 16.24463,8.1163 24.46927,11.50434 10.81909,4.45686 21.64588,8.1322 32.04501,10.99213 10.39911,2.85998 20.37055,4.90453 29.20545,6.21258 8.83487,1.30811 16.5332,1.87965 20.6329,2.05225"
       stroke="#000000"
       stroke-width="3.9685"
       stroke-linecap="round"
       stroke-linejoin="round"
       fill="none"
       id="path5" />
    <path
       d="m 521.0116,341.64725 a 131.07642,131.07642 0 0 1 28.8957,42.23625"
       stroke="#000000"
       stroke-width="3.9685"
       stroke-linecap="round"
       stroke-linejoin="round"
       fill="none"
       id="path6" />
    <path
       d="m 521.0116,341.64725 c -0.3611,0.97281 -1.31195,2.79638 -3.04254,5.05157 -1.73072,2.25518 -4.24116,4.94211 -7.57712,7.91611 -3.33597,2.97403 -7.4975,6.2352 -12.42964,9.67929 -4.93212,3.44408 -10.63488,7.07111 -17.05336,10.77678 -6.41852,3.70573 -13.55271,7.49016 -21.03744,11.21498 -7.48475,3.72479 -15.32,7.38995 -23.1405,10.85715 -7.82057,3.46719 -15.62642,6.73645 -22.7533,9.59512 -7.1269,2.8587 -13.5748,5.30685 -17.1208,6.58975"
       stroke="#000000"
       stroke-width="3.9685"
       stroke-linecap="round"
       stroke-linejoin="round"
       fill="none"
       id="path7" />
    <path
       d="M 214.35077,308.22787 A 14474.212,14474.212 0 0 0 396.8569,413.328"
       stroke="#000000"
       stroke-width="3.9685"
       stroke-linecap="round"
       stroke-linejoin="round"
       fill="none"
       id="path8" />
    <path
       d="m 122.13657,242.70328 131.74578,76.06347"
       stroke="#000000"
       stroke-width="3.9685"
       stroke-linecap="round"
       stroke-linejoin="round"
       fill="none"
       id="path9" />
    <path
       d="m 290.50595,525.06964 4.23665,-2.44604"
       stroke="#000000"
       stroke-width="3.9685"
       stroke-linecap="round"
       stroke-linejoin="round"
       fill="none"
       id="path10" />
    <path
       d="m 396.8569,551.1756 a 139.68266,139.68266 0 0 0 47.09384,3.3496"
       stroke="#000000"
       stroke-width="3.9685"
       stroke-linecap="round"
       stroke-linejoin="round"
       fill="none"
       id="path11" />
    <path
       d="m 396.8569,551.1756 c 0.62262,-0.69196 1.6617,-2.22437 2.68555,-4.61664 1.02385,-2.39221 2.0325,-5.64423 2.88672,-9.74176 0.85423,-4.0975 1.55395,-9.0404 2.04019,-14.74054 0.48618,-5.70016 0.75882,-12.15746 0.75882,-19.28386 0,-7.12636 -0.27264,-14.9218 -0.75882,-23.00798 -0.48624,-8.08618 -1.18596,-16.46312 -2.04019,-24.75262 -0.85422,-8.28946 -1.86287,-16.49143 -2.88672,-23.93247 -1.02385,-7.44101 -2.06293,-14.12109 -2.68555,-17.77173"
       stroke="#000000"
       stroke-width="3.9685"
       stroke-linecap="round"
       stroke-linejoin="round"
       fill="none"
       id="path12" />
    <path
       d="m 521.0116,341.64725 c -2.16004,-3.44145 -6.4394,-9.78522 -11.92578,-16.74555 -5.48636,-6.96032 -12.17969,-14.53714 -19.80268,-22.08224 -7.62294,-7.54511 -16.17554,-15.0585 -25.41444,-22.18213 -9.23894,-7.1236 -19.1642,-13.85751 -29.53255,-19.84366 -2.48635,-1.43552 -4.9982,-2.82803 -7.52955,-4.17709"
       stroke="#000000"
       stroke-width="3.9685"
       stroke-linecap="round"
       stroke-linejoin="round"
       fill="none"
       id="path13" />
    <path
       d="m 238.66628,235.91841 -6.30665,-3.64113"
       stroke="#000000"
       stroke-width="3.9685"
       stroke-linecap="round"
       stroke-linejoin="round"
       fill="none"
       id="path14" />
    <path
       d="m 290.50427,520.4143 c -2.90274,-1.547 -5.78917,-3.1472 -8.65097,-4.79943 -11.8029,-6.81439 -23.21866,-14.5354 -33.94232,-22.81174 -10.34474,-7.98379 -20.4753,-16.82388 -29.8349,-26.18118 -4.17818,-4.17713 -8.29445,-8.5492 -12.22951,-13.01837 -4.8356,-5.49195 -9.44457,-11.17215 -13.86184,-17.18738 -5.70655,-7.77088 -10.94628,-15.89218 -15.6554,-24.52695 -7.33417,-13.44815 -13.2415,-27.97308 -16.77011,-43.47325 -1.32866,-6.01506 -2.08107,-11.87462 -2.08107,-17.35808 0,-7.28085 1.32654,-13.69305 3.60881,-19.13882 2.40009,-5.7269 5.8532,-10.38425 9.9673,-13.96652 2.82104,-2.45638 5.99696,-4.44672 9.36221,-5.99288 1.8347,-0.84297 3.74079,-1.56102 5.702,-2.15434 6.35515,-1.92258 13.06851,-2.52438 20.30325,-2.23276 2.60288,0.10492 5.25904,0.33057 7.92905,0.65527 a 167.2288,167.2288 0 0 1 39.53158,10.53888 c -6.30421,-5.53075 -12.05494,-11.39303 -16.85867,-17.40815 -3.20918,-4.01845 -6.05952,-8.1844 -8.37491,-12.40404 -2.29837,-4.18866 -4.08868,-8.46298 -5.22064,-12.81009 -0.98398,-3.77887 -1.47267,-7.62667 -1.34622,-11.44904 0.19862,-6.00326 1.92847,-12.05342 5.62462,-17.68593 2.62454,-3.99944 6.24112,-7.78135 10.95975,-11.09109"
       stroke="#000000"
       stroke-width="3.9685"
       stroke-linecap="round"
       stroke-linejoin="round"
       fill="none"
       id="path15" />
  </g>
</svg>
