<?xml version="1.0" encoding="utf-8" standalone="no"?>
<!DOCTYPE svg PUBLIC "-//W3C//DTD SVG 1.1//EN" "http://www.w3.org/Graphics/SVG/1.1/DTD/svg11.dtd">
<svg version="1.1" width="595.2pt" height="841.7pt" viewBox="0 0 595.2 841.68" xmlns="http://www.w3.org/2000/svg">
  <defs />
  <g id="windows">
    <path d="M371.90683,383.95026 L355.87167,393.2082 L355.87167,346.91858 L371.90683,337.6607 z" stroke="#000000" stroke-width="2.8346457" stroke-linecap="round" stroke-linejoin="round" fill="none" />
    <path d="M297.74414,711.449 L281.70895,702.1911 L281.70895,655.9015 L297.74414,665.1594 z" stroke="#000000" stroke-width="2.8346457" stroke-linecap="round" stroke-linejoin="round" fill="none" />
    <path d="M261.66498,308.7297 L245.6298,299.4718 L245.6298,253.18222 L261.66498,262.44016 z" stroke="#000000" stroke-width="2.8346457" stroke-linecap="round" stroke-linejoin="round" fill="none" />
    <path d="M371.90683,765.83923 L355.87167,775.0971 L355.87167,728.80756 L371.90683,719.5496 z" stroke="#000000" stroke-width="2.8346457" stroke-linecap="round" stroke-linejoin="round" fill="none" />
    <path d="M261.66498,372.37787 L245.6298,363.11993 L245.6298,316.83038 L261.66498,326.08832 z" stroke="#000000" stroke-width="2.8346457" stroke-linecap="round" stroke-linejoin="round" fill="none" />
    <path d="M407.986,341.9039 L391.9508,351.1618 L391.9508,304.87225 L407.986,295.61435 z" stroke="#000000" stroke-width="2.8346457" stroke-linecap="round" stroke-linejoin="round" fill="none" />
    <path d="M297.74414,647.80084 L281.70895,638.5429 L281.70895,592.2533 L297.74414,601.5112 z" stroke="#000000" stroke-width="2.8346457" stroke-linecap="round" stroke-linejoin="round" fill="none" />
    <path d="M407.986,469.20023 L391.9508,478.45813 L391.9508,432.16858 L407.986,422.91064 z" stroke="#000000" stroke-width="2.8346457" stroke-linecap="round" stroke-linejoin="round" fill="none" />
    <path d="M261.66498,626.9705 L245.6298,617.7126 L245.6298,571.42303 L261.66498,580.6809 z" stroke="#000000" stroke-width="2.8346457" stroke-linecap="round" stroke-linejoin="round" fill="none" />
    <path d="M261.66498,754.2668 L245.6298,745.0089 L245.6298,698.71936 L261.66498,707.9773 z" stroke="#000000" stroke-width="2.8346457" stroke-linecap="round" stroke-linejoin="round" fill="none" />
    <path d="M407.986,723.79285 L391.9508,733.0508 L391.9508,686.76117 L407.986,677.5033 z" stroke="#000000" stroke-width="2.8346457" stroke-linecap="round" stroke-linejoin="round" fill="none" />
    <path d="M261.66498,436.02603 L245.6298,426.7681 L245.6298,380.47855 L261.66498,389.73645 z" stroke="#000000" stroke-width="2.8346457" stroke-linecap="round" stroke-linejoin="round" fill="none" />
    <path d="M297.74414,456.85635 L281.70895,447.59842 L281.70895,401.30887 L297.74414,410.56677 z" stroke="#000000" stroke-width="2.8346457" stroke-linecap="round" stroke-linejoin="round" fill="none" />
    <path d="M407.986,405.55206 L391.9508,414.80997 L391.9508,368.52042 L407.986,359.26248 z" stroke="#000000" stroke-width="2.8346457" stroke-linecap="round" stroke-linejoin="round" fill="none" />
    <path d="M297.74414,393.2082 L281.70895,383.95026 L281.70895,337.6607 L297.74414,346.91858 z" stroke="#000000" stroke-width="2.8346457" stroke-linecap="round" stroke-linejoin="round" fill="none" />
    <path d="M407.986,596.4966 L391.9508,605.75446 L391.9508,559.4649 L407.986,550.207 z" stroke="#000000" stroke-width="2.8346457" stroke-linecap="round" stroke-linejoin="round" fill="none" />
    <path d="M297.74414,775.0971 L281.70895,765.83923 L281.70895,719.5496 L297.74414,728.80756 z" stroke="#000000" stroke-width="2.8346457" stroke-linecap="round" stroke-linejoin="round" fill="none" />
    <path d="M261.66498,499.6742 L245.6298,490.41626 L245.6298,444.1267 L261.66498,453.3846 z" stroke="#000000" stroke-width="2.8346457" stroke-linecap="round" stroke-linejoin="round" fill="none" />
    <path d="M297.74414,520.5045 L281.70895,511.24658 L281.70895,464.95703 L297.74414,474.21494 z" stroke="#000000" stroke-width="2.8346457" stroke-linecap="round" stroke-linejoin="round" fill="none" />
    <path d="M261.66498,563.3224 L245.6298,554.06445 L245.6298,507.77484 L261.66498,517.0328 z" stroke="#000000" stroke-width="2.8346457" stroke-linecap="round" stroke-linejoin="round" fill="none" />
    <path d="M261.66498,690.6187 L245.6298,681.3608 L245.6298,635.07117 L261.66498,644.3291 z" stroke="#000000" stroke-width="2.8346457" stroke-linecap="round" stroke-linejoin="round" fill="none" />
    <path d="M371.90683,447.59842 L355.87167,456.85635 L355.87167,410.56677 L371.90683,401.30887 z" stroke="#000000" stroke-width="2.8346457" stroke-linecap="round" stroke-linejoin="round" fill="none" />
    <path d="M297.74414,584.15265 L281.70895,574.8948 L281.70895,528.60516 L297.74414,537.8631 z" stroke="#000000" stroke-width="2.8346457" stroke-linecap="round" stroke-linejoin="round" fill="none" />
    <path d="M371.90683,320.3021 L355.87167,329.56003 L355.87167,283.27045 L371.90683,274.01254 z" stroke="#000000" stroke-width="2.8346457" stroke-linecap="round" stroke-linejoin="round" fill="none" />
    <path d="M297.74414,329.56003 L281.70895,320.3021 L281.70895,274.01254 L297.74414,283.27045 z" stroke="#000000" stroke-width="2.8346457" stroke-linecap="round" stroke-linejoin="round" fill="none" />
    <path d="M407.986,278.25574 L391.9508,287.51367 L391.9508,241.22408 L407.986,231.96617 z" stroke="#000000" stroke-width="2.8346457" stroke-linecap="round" stroke-linejoin="round" fill="none" />
    <path d="M371.90683,638.5429 L355.87167,647.80084 L355.87167,601.5112 L371.90683,592.2533 z" stroke="#000000" stroke-width="2.8346457" stroke-linecap="round" stroke-linejoin="round" fill="none" />
    <path d="M371.90683,702.1911 L355.87167,711.449 L355.87167,665.1594 L371.90683,655.9015 z" stroke="#000000" stroke-width="2.8346457" stroke-linecap="round" stroke-linejoin="round" fill="none" />
    <path d="M407.986,660.14465 L391.9508,669.4026 L391.9508,623.11304 L407.986,613.85516 z" stroke="#000000" stroke-width="2.8346457" stroke-linecap="round" stroke-linejoin="round" fill="none" />
    <path d="M407.986,532.8484 L391.9508,542.10626 L391.9508,495.81674 L407.986,486.5588 z" stroke="#000000" stroke-width="2.8346457" stroke-linecap="round" stroke-linejoin="round" fill="none" />
    <path d="M371.90683,574.8948 L355.87167,584.15265 L355.87167,537.8631 L371.90683,528.60516 z" stroke="#000000" stroke-width="2.8346457" stroke-linecap="round" stroke-linejoin="round" fill="none" />
    <path d="M371.90683,511.24658 L355.87167,520.5045 L355.87167,474.21494 L371.90683,464.95703 z" stroke="#000000" stroke-width="2.8346457" stroke-linecap="round" stroke-linejoin="round" fill="none" />
  </g>
  <g id="shaft">
    <path d="M216.56604,732.85785 L216.56604,160.02448" stroke="#000000" stroke-width="5.6692915" stroke-linecap="round" stroke-linejoin="round" fill="none" />
    <path d="M437.04974,732.85785 L437.04974,160.02448" stroke="#000000" stroke-width="5.6692915" stroke-linecap="round" stroke-linejoin="round" fill="none" />
    <path d="M437.04974,160.02448 L326.8079,96.37631" stroke="#000000" stroke-width="5.6692915" stroke-linecap="round" stroke-linejoin="round" fill="none" />
    <path d="M326.8079,96.37631 L216.56604,160.02448" stroke="#000000" stroke-width="5.6692915" stroke-linecap="round" stroke-linejoin="round" fill="none" />
    <path d="M326.8079,796.50604 L437.04974,732.85785" stroke="#000000" stroke-width="5.6692915" stroke-linecap="round" stroke-linejoin="round" fill="none" />
    <path d="M216.56604,732.85785 L326.8079,796.50604" stroke="#000000" stroke-width="5.6692915" stroke-linecap="round" stroke-linejoin="round" fill="none" />
    <path d="M326.8079,796.50604 L326.8079,223.67264" stroke="#000000" stroke-width="5.6692915" stroke-linecap="round" stroke-linejoin="round" fill="none" />
    <path d="M326.8079,223.67264 L437.04974,160.02448" stroke="#000000" stroke-width="5.6692915" stroke-linecap="round" stroke-linejoin="round" fill="none" />
    <path d="M216.56604,160.02448 L326.8079,223.67264" stroke="#000000" stroke-width="5.6692915" stroke-linecap="round" stroke-linejoin="round" fill="none" />
  </g>
</svg>