o 
usemtl primitives-cube-rectangular-material
v -10 -17.5 -4
v -10 -17.5 4
v -10 17.5 -4
v -10 17.5 4
v 10 -17.5 -4
v 10 -17.5 4
v 10 17.5 -4
v 10 17.5 4
vn -0.6149762865043815 -0.17570751894477252 -0.7687203879327992
vn -0.341870396725191 -0.39070904185868816 0.8546760067141387
vn -0.19136829595246646 0.21870662181693865 -0.956841464861171
vn -0.369317299741887 0.10551922956205068 0.9232932493547175
vn 0.19136829595246646 -0.21870662181693865 -0.956841464861171
vn 0.369317299741887 -0.10551922956205068 0.9232932493547175
vn 0.6149762865043815 0.17570751894477252 -0.7687203879327992
vn 0.341870396725191 0.39070904185868816 0.8546760067141387
f 2//2 1//1 5//5
f 3//3 5//5 1//1
f 2//2 4//4 1//1
f 4//4 2//2 6//6
f 4//4 3//3 1//1
f 4//4 8//8 3//3
f 6//6 5//5 7//7
f 6//6 2//2 5//5
f 7//7 5//5 3//3
f 8//8 7//7 3//3
f 8//8 4//4 6//6
f 8//8 6//6 7//7
