solid exported
	facet normal -0.8628562092686948 -0.3574067445687466 -0.3574067445687466
		outer loop
			vertex -7.071067810058594 6.123233998228043e-16 -7.071067810058594
			vertex -7.071067810058594 -7.071067810058594 6.123233998228043e-16
			vertex -10 6.123233998228043e-16 6.123233998228043e-16
		endloop
	endfacet
	facet normal -0.3574067445687466 -0.8628562092686948 -0.3574067445687466
		outer loop
			vertex 6.123233998228043e-16 -7.071067810058594 -7.071067810058594
			vertex 6.123233998228043e-16 -10 6.123233998228043e-16
			vertex -7.071067810058594 -7.071067810058594 6.123233998228043e-16
		endloop
	endfacet
	facet normal -0.3574067445687466 -0.3574067445687466 -0.8628562092686948
		outer loop
			vertex -7.071067810058594 6.123233998228043e-16 -7.071067810058594
			vertex 6.123233998228043e-16 6.123233998228043e-16 -10
			vertex 6.123233998228043e-16 -7.071067810058594 -7.071067810058594
		endloop
	endfacet
	facet normal -0.5773502691896257 -0.5773502691896257 -0.5773502691896257
		outer loop
			vertex -7.071067810058594 6.123233998228043e-16 -7.071067810058594
			vertex 6.123233998228043e-16 -7.071067810058594 -7.071067810058594
			vertex -7.071067810058594 -7.071067810058594 6.123233998228043e-16
		endloop
	endfacet
	facet normal -0.8628562092686947 -0.35740674456874655 0.35740674456874666
		outer loop
			vertex -7.071067810058594 -7.071067810058594 6.123233998228043e-16
			vertex -7.071067810058594 6.123233998228043e-16 7.071067810058594
			vertex -10 6.123233998228043e-16 6.123233998228043e-16
		endloop
	endfacet
	facet normal -0.35740674456874655 -0.8628562092686947 0.35740674456874666
		outer loop
			vertex -7.071067810058594 -7.071067810058594 6.123233998228043e-16
			vertex 6.123233998228043e-16 -10 6.123233998228043e-16
			vertex 6.123233998228043e-16 -7.071067810058594 7.071067810058594
		endloop
	endfacet
	facet normal -0.5773502691896257 -0.5773502691896257 0.5773502691896258
		outer loop
			vertex -7.071067810058594 -7.071067810058594 6.123233998228043e-16
			vertex 6.123233998228043e-16 -7.071067810058594 7.071067810058594
			vertex -7.071067810058594 6.123233998228043e-16 7.071067810058594
		endloop
	endfacet
	facet normal -0.3574067445687466 -0.3574067445687466 0.8628562092686948
		outer loop
			vertex 6.123233998228043e-16 -7.071067810058594 7.071067810058594
			vertex 6.123233998228043e-16 6.123233998228043e-16 10
			vertex -7.071067810058594 6.123233998228043e-16 7.071067810058594
		endloop
	endfacet
	facet normal -0.8628562092686947 0.35740674456874666 -0.35740674456874655
		outer loop
			vertex -7.071067810058594 6.123233998228043e-16 -7.071067810058594
			vertex -10 6.123233998228043e-16 6.123233998228043e-16
			vertex -7.071067810058594 7.071067810058594 6.123233998228043e-16
		endloop
	endfacet
	facet normal -0.35740674456874655 0.35740674456874666 -0.8628562092686947
		outer loop
			vertex 6.123233998228043e-16 7.071067810058594 -7.071067810058594
			vertex 6.123233998228043e-16 6.123233998228043e-16 -10
			vertex -7.071067810058594 6.123233998228043e-16 -7.071067810058594
		endloop
	endfacet
	facet normal -0.5773502691896257 0.5773502691896258 -0.5773502691896257
		outer loop
			vertex 6.123233998228043e-16 7.071067810058594 -7.071067810058594
			vertex -7.071067810058594 6.123233998228043e-16 -7.071067810058594
			vertex -7.071067810058594 7.071067810058594 6.123233998228043e-16
		endloop
	endfacet
	facet normal -0.3574067445687466 0.8628562092686948 -0.3574067445687466
		outer loop
			vertex 6.123233998228043e-16 7.071067810058594 -7.071067810058594
			vertex -7.071067810058594 7.071067810058594 6.123233998228043e-16
			vertex 6.123233998228043e-16 10 6.123233998228043e-16
		endloop
	endfacet
	facet normal -0.8628562092686948 0.35740674456874666 0.35740674456874666
		outer loop
			vertex -7.071067810058594 7.071067810058594 6.123233998228043e-16
			vertex -10 6.123233998228043e-16 6.123233998228043e-16
			vertex -7.071067810058594 6.123233998228043e-16 7.071067810058594
		endloop
	endfacet
	facet normal -0.5773502691896257 0.5773502691896258 0.5773502691896258
		outer loop
			vertex -7.071067810058594 7.071067810058594 6.123233998228043e-16
			vertex -7.071067810058594 6.123233998228043e-16 7.071067810058594
			vertex 6.123233998228043e-16 7.071067810058594 7.071067810058594
		endloop
	endfacet
	facet normal -0.35740674456874655 0.35740674456874666 0.8628562092686947
		outer loop
			vertex -7.071067810058594 6.123233998228043e-16 7.071067810058594
			vertex 6.123233998228043e-16 6.123233998228043e-16 10
			vertex 6.123233998228043e-16 7.071067810058594 7.071067810058594
		endloop
	endfacet
	facet normal -0.35740674456874655 0.8628562092686947 0.35740674456874666
		outer loop
			vertex -7.071067810058594 7.071067810058594 6.123233998228043e-16
			vertex 6.123233998228043e-16 7.071067810058594 7.071067810058594
			vertex 6.123233998228043e-16 10 6.123233998228043e-16
		endloop
	endfacet
	facet normal 0.35740674456874666 -0.8628562092686947 -0.35740674456874655
		outer loop
			vertex 6.123233998228043e-16 -7.071067810058594 -7.071067810058594
			vertex 7.071067810058594 -7.071067810058594 6.123233998228043e-16
			vertex 6.123233998228043e-16 -10 6.123233998228043e-16
		endloop
	endfacet
	facet normal 0.35740674456874666 -0.35740674456874655 -0.8628562092686947
		outer loop
			vertex 6.123233998228043e-16 -7.071067810058594 -7.071067810058594
			vertex 6.123233998228043e-16 6.123233998228043e-16 -10
			vertex 7.071067810058594 6.123233998228043e-16 -7.071067810058594
		endloop
	endfacet
	facet normal 0.5773502691896258 -0.5773502691896257 -0.5773502691896257
		outer loop
			vertex 6.123233998228043e-16 -7.071067810058594 -7.071067810058594
			vertex 7.071067810058594 6.123233998228043e-16 -7.071067810058594
			vertex 7.071067810058594 -7.071067810058594 6.123233998228043e-16
		endloop
	endfacet
	facet normal 0.8628562092686948 -0.3574067445687466 -0.3574067445687466
		outer loop
			vertex 7.071067810058594 6.123233998228043e-16 -7.071067810058594
			vertex 10 6.123233998228043e-16 6.123233998228043e-16
			vertex 7.071067810058594 -7.071067810058594 6.123233998228043e-16
		endloop
	endfacet
	facet normal 0.35740674456874666 -0.8628562092686948 0.35740674456874666
		outer loop
			vertex 7.071067810058594 -7.071067810058594 6.123233998228043e-16
			vertex 6.123233998228043e-16 -7.071067810058594 7.071067810058594
			vertex 6.123233998228043e-16 -10 6.123233998228043e-16
		endloop
	endfacet
	facet normal 0.5773502691896258 -0.5773502691896257 0.5773502691896258
		outer loop
			vertex 7.071067810058594 -7.071067810058594 6.123233998228043e-16
			vertex 7.071067810058594 6.123233998228043e-16 7.071067810058594
			vertex 6.123233998228043e-16 -7.071067810058594 7.071067810058594
		endloop
	endfacet
	facet normal 0.35740674456874666 -0.35740674456874655 0.8628562092686947
		outer loop
			vertex 7.071067810058594 6.123233998228043e-16 7.071067810058594
			vertex 6.123233998228043e-16 6.123233998228043e-16 10
			vertex 6.123233998228043e-16 -7.071067810058594 7.071067810058594
		endloop
	endfacet
	facet normal 0.8628562092686947 -0.35740674456874655 0.35740674456874666
		outer loop
			vertex 7.071067810058594 -7.071067810058594 6.123233998228043e-16
			vertex 10 6.123233998228043e-16 6.123233998228043e-16
			vertex 7.071067810058594 6.123233998228043e-16 7.071067810058594
		endloop
	endfacet
	facet normal 0.35740674456874666 0.35740674456874666 -0.8628562092686948
		outer loop
			vertex 7.071067810058594 6.123233998228043e-16 -7.071067810058594
			vertex 6.123233998228043e-16 6.123233998228043e-16 -10
			vertex 6.123233998228043e-16 7.071067810058594 -7.071067810058594
		endloop
	endfacet
	facet normal 0.5773502691896258 0.5773502691896258 -0.5773502691896257
		outer loop
			vertex 7.071067810058594 6.123233998228043e-16 -7.071067810058594
			vertex 6.123233998228043e-16 7.071067810058594 -7.071067810058594
			vertex 7.071067810058594 7.071067810058594 6.123233998228043e-16
		endloop
	endfacet
	facet normal 0.35740674456874666 0.8628562092686947 -0.35740674456874655
		outer loop
			vertex 6.123233998228043e-16 7.071067810058594 -7.071067810058594
			vertex 6.123233998228043e-16 10 6.123233998228043e-16
			vertex 7.071067810058594 7.071067810058594 6.123233998228043e-16
		endloop
	endfacet
	facet normal 0.8628562092686947 0.35740674456874666 -0.35740674456874655
		outer loop
			vertex 7.071067810058594 6.123233998228043e-16 -7.071067810058594
			vertex 7.071067810058594 7.071067810058594 6.123233998228043e-16
			vertex 10 6.123233998228043e-16 6.123233998228043e-16
		endloop
	endfacet
	facet normal 0.5773502691896257 0.5773502691896257 0.5773502691896257
		outer loop
			vertex 7.071067810058594 7.071067810058594 6.123233998228043e-16
			vertex 6.123233998228043e-16 7.071067810058594 7.071067810058594
			vertex 7.071067810058594 6.123233998228043e-16 7.071067810058594
		endloop
	endfacet
	facet normal 0.35740674456874666 0.35740674456874666 0.8628562092686948
		outer loop
			vertex 6.123233998228043e-16 7.071067810058594 7.071067810058594
			vertex 6.123233998228043e-16 6.123233998228043e-16 10
			vertex 7.071067810058594 6.123233998228043e-16 7.071067810058594
		endloop
	endfacet
	facet normal 0.35740674456874666 0.8628562092686948 0.35740674456874666
		outer loop
			vertex 7.071067810058594 7.071067810058594 6.123233998228043e-16
			vertex 6.123233998228043e-16 10 6.123233998228043e-16
			vertex 6.123233998228043e-16 7.071067810058594 7.071067810058594
		endloop
	endfacet
	facet normal 0.8628562092686948 0.35740674456874666 0.35740674456874666
		outer loop
			vertex 7.071067810058594 7.071067810058594 6.123233998228043e-16
			vertex 7.071067810058594 6.123233998228043e-16 7.071067810058594
			vertex 10 6.123233998228043e-16 6.123233998228043e-16
		endloop
	endfacet
endsolid exported
