ply
format ascii 1.0
element vertex 18
property float x
property float y
property float z
property float nx
property float ny
property float nz
element face 32
property list uchar int vertex_index
end_header
-7.071067810058594 -7.071067810058594 6.123233998228043e-16 -0.7071067811865476 -0.7071067811865476 -7.484343828437095e-11
-7.071067810058594 6.123233998228043e-16 -7.071067810058594 -0.7071067811865476 -7.484343828437095e-11 -0.7071067811865476
-10 6.123233998228043e-16 6.123233998228043e-16 -1 1.2776579794149256e-10 1.2776579794149256e-10
-7.071067810058594 6.123233998228043e-16 7.071067810058594 -0.7071067811865476 7.484349379552313e-11 0.7071067811865476
-7.071067810058594 7.071067810058594 6.123233998228043e-16 -0.7071067811865476 0.7071067811865476 7.484349379552313e-11
6.123233998228043e-16 -7.071067810058594 -7.071067810058594 -7.484343828437095e-11 -0.7071067811865476 -0.7071067811865476
6.123233998228043e-16 -10 6.123233998228043e-16 1.2776579794149256e-10 -1 1.2776579794149256e-10
6.123233998228043e-16 -7.071067810058594 7.071067810058594 7.484349379552313e-11 -0.7071067811865476 0.7071067811865476
7.071067810058594 -7.071067810058594 6.123233998228043e-16 0.7071067811865476 -0.7071067811865476 7.484349379552313e-11
6.123233998228043e-16 6.123233998228043e-16 -10 1.2776579794149256e-10 1.2776579794149256e-10 -1
6.123233998228043e-16 7.071067810058594 -7.071067810058594 7.484349379552313e-11 0.7071067811865476 -0.7071067811865476
7.071067810058594 6.123233998228043e-16 -7.071067810058594 0.7071067811865476 7.484349379552313e-11 -0.7071067811865476
6.123233998228043e-16 6.123233998228043e-16 10 1.2776579794149256e-10 1.2776579794149256e-10 1
6.123233998228043e-16 10 6.123233998228043e-16 1.2776579794149256e-10 1 1.2776579794149256e-10
6.123233998228043e-16 7.071067810058594 7.071067810058594 7.484347297884106e-11 0.7071067811865476 0.7071067811865476
10 6.123233998228043e-16 6.123233998228043e-16 1 1.2776579794149256e-10 1.2776579794149256e-10
7.071067810058594 6.123233998228043e-16 7.071067810058594 0.7071067811865476 7.484347297884106e-11 0.7071067811865476
7.071067810058594 7.071067810058594 6.123233998228043e-16 0.7071067811865476 0.7071067811865476 7.484347297884106e-11
3 1 0 2
3 5 6 0
3 1 9 5
3 1 5 0
3 0 3 2
3 0 6 7
3 0 7 3
3 7 12 3
3 1 2 4
3 10 9 1
3 10 1 4
3 10 4 13
3 4 2 3
3 4 3 14
3 3 12 14
3 4 14 13
3 5 8 6
3 5 9 11
3 5 11 8
3 11 15 8
3 8 7 6
3 8 16 7
3 16 12 7
3 8 15 16
3 11 9 10
3 11 10 17
3 10 13 17
3 11 17 15
3 17 14 16
3 14 12 16
3 17 13 14
3 17 16 15

