o 
usemtl degenerate-tiny-bore-below-tolerance-material
v -50 -50 -50
v -0.00035355339059606194 -0.00035355339059606194 -50
v -0.0002500000118743628 -0.00043301269761286676 -50
v -0.00043301269761286676 -0.0002500000118743628 -50
v -0.00048296290333382785 -0.00012940952728968114 -50
v -0.00012940952728968114 -0.00048296290333382785 -50
v -50 -50 50
v -0.00035355339059606194 -0.00035355339059606194 50
v -0.0002500000118743628 -0.00043301269761286676 50
v -0.00043301269761286676 -0.0002500000118743628 50
v -0.00048296290333382785 -0.00012940952728968114 50
v -0.00012940952728968114 -0.00048296290333382785 50
v -50 50 -50
v -0.0005000000237487257 0 -50
v -0.00048296290333382785 0.00012940952728968114 -50
v -0.00043301269761286676 0.0002500000118743628 -50
v -0.00035355339059606194 0.00035355339059606194 -50
v -0.0002500000118743628 0.00043301269761286676 -50
v -0.00012940952728968114 0.00048296290333382785 -50
v -50 50 50
v -0.00035355339059606194 0.00035355339059606194 50
v -0.0005000000237487257 0 50
v -0.00048296290333382785 0.00012940952728968114 50
v -0.00043301269761286676 0.0002500000118743628 50
v -0.0002500000118743628 0.00043301269761286676 50
v -0.00012940952728968114 0.00048296290333382785 50
v 0 -0.0005000000237487257 -50
v 0.00012940952728968114 -0.00048296290333382785 -50
v 0.0002500000118743628 -0.00043301269761286676 -50
v 0.00035355339059606194 -0.00035355339059606194 -50
v 0.00043301269761286676 -0.0002500000118743628 -50
v 0.00048296290333382785 -0.00012940952728968114 -50
v 50 -50 -50
v 0.00035355339059606194 -0.00035355339059606194 50
v 0 -0.0005000000237487257 50
v 0.00012940952728968114 -0.00048296290333382785 50
v 0.0002500000118743628 -0.00043301269761286676 50
v 0.00043301269761286676 -0.0002500000118743628 50
v 0.00048296290333382785 -0.00012940952728968114 50
v 50 -50 50
v 0.0005000000237487257 0 -50
v 0 0.0005000000237487257 -50
v 0.00012940952728968114 0.00048296290333382785 -50
v 0.00048296290333382785 0.00012940952728968114 -50
v 0.00043301269761286676 0.0002500000118743628 -50
v 0.0002500000118743628 0.00043301269761286676 -50
v 0.00035355339059606194 0.00035355339059606194 -50
v 50 50 -50
v 0.0005000000237487257 0 50
v 0 0.0005000000237487257 50
v 0.00012940952728968114 0.00048296290333382785 50
v 0.00048296290333382785 0.00012940952728968114 50
v 0.00043301269761286676 0.0002500000118743628 50
v 0.0002500000118743628 0.00043301269761286676 50
v 0.00035355339059606194 0.00035355339059606194 50
v 50 50 50
vn -0.816496580927726 -0.408248290463863 -0.408248290463863
vn 0.6671460341922478 0.6110532944897216 -0.42606342292528904
vn 0.48924509337990923 0.7675835591760105 -0.4140709097321034
vn 0.8074904818723943 0.4201242697758027 -0.41407091135557567
vn 0.9040442490814059 0.2002105963445806 -0.3776502519715619
vn 0.2786348127012066 0.8830305220427718 -0.3776502857033652
vn -0.408248290463863 -0.816496580927726 0.408248290463863
vn 0.6110532944897216 0.6671460341922478 0.42606342292528904
vn 0.4201242995023331 0.807490481726719 0.4140708814785523
vn 0.7675835591760105 0.48924509337990923 0.4140709097321034
vn 0.8830305220427718 0.2786348127012066 0.3776502857033652
vn 0.20021061918349364 0.904044225319412 0.37765029674658823
vn -0.4082487722666417 0.8164975445332834 -0.40824588144144014
vn 0.947863170127153 -0.04159626402287257 -0.31595120119386005
vn 0.9282623168698689 -0.29290742424561683 -0.22920364722486677
vn 0.8370765589616123 -0.5335388274101924 -0.12099237200230159
vn 0.000002624737817294053 -0.000002865680244191216 -0.9999999999924494
vn 0.458160135893644 -0.880596466069374 -0.1209923709332423
vn 0.21046605648944364 -0.9503524277575959 -0.22920362588978838
vn -0.8164975445332834 0.4082487722666417 0.40824588144144014
vn 0.000002865680244191216 -0.000002624737817294053 0.9999999999924494
vn 0.947863170127153 0.04159626402287257 0.31595120119386005
vn 0.9503524215312774 -0.2104660700117176 0.2292036392893015
vn 0.8805964540455018 -0.4581601594401395 0.12099236928118388
vn 0.5335387576716578 -0.8370766026670546 0.1209923771547863
vn 0.29290742424561683 -0.9282623168698689 0.22920364722486677
vn 0.04159626402287257 0.947863170127153 -0.31595120119386005
vn -0.2104660700117176 0.9503524215312774 -0.2292036392893015
vn -0.4581601594401395 0.8805964540455018 -0.12099236928118388
vn -0.000002624737817294053 0.000002865680244191216 -0.9999999999924494
vn -0.8370766026670546 0.5335387576716578 -0.1209923771547863
vn -0.9282623168698689 0.29290742424561683 -0.22920364722486677
vn 0.4082487722666417 -0.8164975445332834 -0.40824588144144014
vn -0.000002865680244191216 0.000002624737817294053 0.9999999999924494
vn -0.04159626402287257 0.947863170127153 0.31595120119386005
vn -0.29290742424561683 0.9282623168698689 0.22920364722486677
vn -0.5335387576716578 0.8370766026670546 0.1209923771547863
vn -0.8805964540455018 0.4581601594401395 0.12099236928118388
vn -0.9503524215312774 0.2104660700117176 0.2292036392893015
vn 0.8164975445332834 -0.4082487722666417 0.40824588144144014
vn -0.947863170127153 0.04159626402287257 -0.31595120119386005
vn -0.04159626402287257 -0.947863170127153 -0.31595120119386005
vn -0.2786348127012066 -0.8830305220427718 -0.3776502857033652
vn -0.904044225319412 -0.20021061918349364 -0.37765029674658823
vn -0.807490481726719 -0.4201242995023331 -0.4140708814785523
vn -0.48924512208614385 -0.7675835574563423 -0.41407087900211026
vn -0.6671460341922478 -0.6110532944897216 -0.42606342292528904
vn 0.816496580927726 0.408248290463863 -0.408248290463863
vn -0.947863170127153 -0.04159626402287257 0.31595120119386005
vn 0.04159626402287257 -0.947863170127153 0.31595120119386005
vn -0.20021061918349364 -0.904044225319412 0.37765029674658823
vn -0.8830305220427718 -0.2786348127012066 0.3776502857033652
vn -0.7675835591760105 -0.48924509337990923 0.4140709097321034
vn -0.4201242995023331 -0.807490481726719 0.4140708814785523
vn -0.611053331838817 -0.667146009893712 0.42606340740737114
vn 0.408248290463863 0.816496580927726 0.408248290463863
f 1//1 33//33 7//7
f 1//1 29//29 30//30
f 1//1 28//28 29//29
f 1//1 27//27 28//28
f 1//1 6//6 27//27
f 1//1 3//3 6//6
f 1//1 2//2 3//3
f 1//1 17//17 16//16
f 1//1 16//16 15//15
f 1//1 15//15 14//14
f 1//1 14//14 5//5
f 1//1 5//5 4//4
f 1//1 4//4 2//2
f 1//1 7//7 20//20
f 7//7 34//34 37//37
f 7//7 37//37 36//36
f 7//7 36//36 35//35
f 7//7 35//35 12//12
f 7//7 12//12 9//9
f 7//7 9//9 8//8
f 7//7 24//24 21//21
f 7//7 23//23 24//24
f 7//7 22//22 23//23
f 7//7 11//11 22//22
f 7//7 10//10 11//11
f 7//7 8//8 10//10
f 1//1 13//13 17//17
f 1//1 20//20 13//13
f 13//13 48//48 17//17
f 7//7 21//21 20//20
f 13//13 20//20 56//56
f 20//20 21//21 56//56
f 1//1 30//30 33//33
f 33//33 30//30 48//48
f 33//33 48//48 40//40
f 7//7 33//33 40//40
f 7//7 40//40 34//34
f 40//40 56//56 34//34
f 48//48 18//18 17//17
f 48//48 19//19 18//18
f 48//48 42//42 19//19
f 48//48 43//43 42//42
f 48//48 46//46 43//43
f 48//48 47//47 46//46
f 48//48 30//30 31//31
f 48//48 31//31 32//32
f 48//48 32//32 41//41
f 48//48 41//41 44//44
f 48//48 44//44 45//45
f 48//48 45//45 47//47
f 13//13 56//56 48//48
f 56//56 21//21 25//25
f 56//56 25//25 26//26
f 56//56 26//26 50//50
f 56//56 50//50 51//51
f 56//56 51//51 54//54
f 56//56 54//54 55//55
f 56//56 38//38 34//34
f 56//56 39//39 38//38
f 56//56 49//49 39//39
f 56//56 52//52 49//49
f 56//56 53//53 52//52
f 56//56 55//55 53//53
f 40//40 48//48 56//56
f 2//2 4//4 10//10
f 3//3 2//2 8//8
f 4//4 5//5 11//11
f 5//5 14//14 22//22
f 6//6 3//3 9//9
f 6//6 12//12 27//27
f 2//2 10//10 8//8
f 3//3 8//8 9//9
f 4//4 11//11 10//10
f 5//5 22//22 11//11
f 6//6 9//9 12//12
f 27//27 12//12 35//35
f 14//14 15//15 23//23
f 15//15 16//16 24//24
f 16//16 17//17 21//21
f 17//17 18//18 25//25
f 18//18 19//19 26//26
f 19//19 42//42 50//50
f 14//14 23//23 22//22
f 15//15 24//24 23//23
f 16//16 21//21 24//24
f 17//17 25//25 21//21
f 18//18 26//26 25//25
f 19//19 50//50 26//26
f 27//27 35//35 28//28
f 29//29 28//28 36//36
f 30//30 29//29 37//37
f 31//31 30//30 34//34
f 32//32 31//31 38//38
f 32//32 39//39 41//41
f 28//28 35//35 36//36
f 29//29 36//36 37//37
f 30//30 37//37 34//34
f 31//31 34//34 38//38
f 32//32 38//38 39//39
f 41//41 39//39 49//49
f 42//42 43//43 51//51
f 43//43 46//46 54//54
f 41//41 49//49 44//44
f 45//45 44//44 52//52
f 46//46 47//47 55//55
f 47//47 45//45 53//53
f 42//42 51//51 50//50
f 43//43 54//54 51//51
f 44//44 49//49 52//52
f 45//45 52//52 53//53
f 46//46 55//55 54//54
f 47//47 53//53 55//55
