solid exported
	facet normal 0 -1 0
		outer loop
			vertex -50 -50 -50
			vertex 50 -50 -50
			vertex -50 -50 50
		endloop
	endfacet
	facet normal 0 0 -1
		outer loop
			vertex -50 -50 -50
			vertex 0.0002500000118743628 -0.00043301269761286676 -50
			vertex 0.00035355339059606194 -0.00035355339059606194 -50
		endloop
	endfacet
	facet normal 0 0 -1
		outer loop
			vertex -50 -50 -50
			vertex 0.00012940952728968114 -0.00048296290333382785 -50
			vertex 0.0002500000118743628 -0.00043301269761286676 -50
		endloop
	endfacet
	facet normal 0 0 -1
		outer loop
			vertex -50 -50 -50
			vertex 0 -0.0005000000237487257 -50
			vertex 0.00012940952728968114 -0.00048296290333382785 -50
		endloop
	endfacet
	facet normal 0 0 -1
		outer loop
			vertex -50 -50 -50
			vertex -0.00012940952728968114 -0.00048296290333382785 -50
			vertex 0 -0.0005000000237487257 -50
		endloop
	endfacet
	facet normal 0 0 -1
		outer loop
			vertex -50 -50 -50
			vertex -0.0002500000118743628 -0.00043301269761286676 -50
			vertex -0.00012940952728968114 -0.00048296290333382785 -50
		endloop
	endfacet
	facet normal 0 0 -1
		outer loop
			vertex -50 -50 -50
			vertex -0.00035355339059606194 -0.00035355339059606194 -50
			vertex -0.0002500000118743628 -0.00043301269761286676 -50
		endloop
	endfacet
	facet normal 0 0 -1
		outer loop
			vertex -50 -50 -50
			vertex -0.00035355339059606194 0.00035355339059606194 -50
			vertex -0.00043301269761286676 0.0002500000118743628 -50
		endloop
	endfacet
	facet normal 0 0 -1
		outer loop
			vertex -50 -50 -50
			vertex -0.00043301269761286676 0.0002500000118743628 -50
			vertex -0.00048296290333382785 0.00012940952728968114 -50
		endloop
	endfacet
	facet normal 0 0 -1
		outer loop
			vertex -50 -50 -50
			vertex -0.00048296290333382785 0.00012940952728968114 -50
			vertex -0.0005000000237487257 0 -50
		endloop
	endfacet
	facet normal 0 0 -1
		outer loop
			vertex -50 -50 -50
			vertex -0.0005000000237487257 0 -50
			vertex -0.00048296290333382785 -0.00012940952728968114 -50
		endloop
	endfacet
	facet normal 0 0 -1
		outer loop
			vertex -50 -50 -50
			vertex -0.00048296290333382785 -0.00012940952728968114 -50
			vertex -0.00043301269761286676 -0.0002500000118743628 -50
		endloop
	endfacet
	facet normal 0 0 -1
		outer loop
			vertex -50 -50 -50
			vertex -0.00043301269761286676 -0.0002500000118743628 -50
			vertex -0.00035355339059606194 -0.00035355339059606194 -50
		endloop
	endfacet
	facet normal -1 0 0
		outer loop
			vertex -50 -50 -50
			vertex -50 -50 50
			vertex -50 50 50
		endloop
	endfacet
	facet normal 0 0 1
		outer loop
			vertex -50 -50 50
			vertex 0.00035355339059606194 -0.00035355339059606194 50
			vertex 0.0002500000118743628 -0.00043301269761286676 50
		endloop
	endfacet
	facet normal 0 0 1
		outer loop
			vertex -50 -50 50
			vertex 0.0002500000118743628 -0.00043301269761286676 50
			vertex 0.00012940952728968114 -0.00048296290333382785 50
		endloop
	endfacet
	facet normal 0 0 1
		outer loop
			vertex -50 -50 50
			vertex 0.00012940952728968114 -0.00048296290333382785 50
			vertex 0 -0.0005000000237487257 50
		endloop
	endfacet
	facet normal 0 0 1
		outer loop
			vertex -50 -50 50
			vertex 0 -0.0005000000237487257 50
			vertex -0.00012940952728968114 -0.00048296290333382785 50
		endloop
	endfacet
	facet normal 0 0 1
		outer loop
			vertex -50 -50 50
			vertex -0.00012940952728968114 -0.00048296290333382785 50
			vertex -0.0002500000118743628 -0.00043301269761286676 50
		endloop
	endfacet
	facet normal 0 0 1
		outer loop
			vertex -50 -50 50
			vertex -0.0002500000118743628 -0.00043301269761286676 50
			vertex -0.00035355339059606194 -0.00035355339059606194 50
		endloop
	endfacet
	facet normal 0 0 1
		outer loop
			vertex -50 -50 50
			vertex -0.00043301269761286676 0.0002500000118743628 50
			vertex -0.00035355339059606194 0.00035355339059606194 50
		endloop
	endfacet
	facet normal 0 0 1
		outer loop
			vertex -50 -50 50
			vertex -0.00048296290333382785 0.00012940952728968114 50
			vertex -0.00043301269761286676 0.0002500000118743628 50
		endloop
	endfacet
	facet normal 0 0 1
		outer loop
			vertex -50 -50 50
			vertex -0.0005000000237487257 0 50
			vertex -0.00048296290333382785 0.00012940952728968114 50
		endloop
	endfacet
	facet normal 0 0 1
		outer loop
			vertex -50 -50 50
			vertex -0.00048296290333382785 -0.00012940952728968114 50
			vertex -0.0005000000237487257 0 50
		endloop
	endfacet
	facet normal 0 0 1
		outer loop
			vertex -50 -50 50
			vertex -0.00043301269761286676 -0.0002500000118743628 50
			vertex -0.00048296290333382785 -0.00012940952728968114 50
		endloop
	endfacet
	facet normal 0 0 1
		outer loop
			vertex -50 -50 50
			vertex -0.00035355339059606194 -0.00035355339059606194 50
			vertex -0.00043301269761286676 -0.0002500000118743628 50
		endloop
	endfacet
	facet normal 0 0 -1
		outer loop
			vertex -50 -50 -50
			vertex -50 50 -50
			vertex -0.00035355339059606194 0.00035355339059606194 -50
		endloop
	endfacet
	facet normal -1 0 0
		outer loop
			vertex -50 -50 -50
			vertex -50 50 50
			vertex -50 50 -50
		endloop
	endfacet
	facet normal 0 0 -1
		outer loop
			vertex -50 50 -50
			vertex 50 50 -50
			vertex -0.00035355339059606194 0.00035355339059606194 -50
		endloop
	endfacet
	facet normal 0 0 1
		outer loop
			vertex -50 -50 50
			vertex -0.00035355339059606194 0.00035355339059606194 50
			vertex -50 50 50
		endloop
	endfacet
	facet normal 0 1 0
		outer loop
			vertex -50 50 -50
			vertex -50 50 50
			vertex 50 50 50
		endloop
	endfacet
	facet normal 0 0 1
		outer loop
			vertex -50 50 50
			vertex -0.00035355339059606194 0.00035355339059606194 50
			vertex 50 50 50
		endloop
	endfacet
	facet normal 0 0 -1
		outer loop
			vertex -50 -50 -50
			vertex 0.00035355339059606194 -0.00035355339059606194 -50
			vertex 50 -50 -50
		endloop
	endfacet
	facet normal 0 0 -1
		outer loop
			vertex 50 -50 -50
			vertex 0.00035355339059606194 -0.00035355339059606194 -50
			vertex 50 50 -50
		endloop
	endfacet
	facet normal 1 0 0
		outer loop
			vertex 50 -50 -50
			vertex 50 50 -50
			vertex 50 -50 50
		endloop
	endfacet
	facet normal 0 -1 0
		outer loop
			vertex -50 -50 50
			vertex 50 -50 -50
			vertex 50 -50 50
		endloop
	endfacet
	facet normal 0 0 1
		outer loop
			vertex -50 -50 50
			vertex 50 -50 50
			vertex 0.00035355339059606194 -0.00035355339059606194 50
		endloop
	endfacet
	facet normal 0 0 1
		outer loop
			vertex 50 -50 50
			vertex 50 50 50
			vertex 0.00035355339059606194 -0.00035355339059606194 50
		endloop
	endfacet
	facet normal 0 0 -1
		outer loop
			vertex 50 50 -50
			vertex -0.0002500000118743628 0.00043301269761286676 -50
			vertex -0.00035355339059606194 0.00035355339059606194 -50
		endloop
	endfacet
	facet normal 0 0 -1
		outer loop
			vertex 50 50 -50
			vertex -0.00012940952728968114 0.00048296290333382785 -50
			vertex -0.0002500000118743628 0.00043301269761286676 -50
		endloop
	endfacet
	facet normal 0 0 -1
		outer loop
			vertex 50 50 -50
			vertex 0 0.0005000000237487257 -50
			vertex -0.00012940952728968114 0.00048296290333382785 -50
		endloop
	endfacet
	facet normal 0 0 -1
		outer loop
			vertex 50 50 -50
			vertex 0.00012940952728968114 0.00048296290333382785 -50
			vertex 0 0.0005000000237487257 -50
		endloop
	endfacet
	facet normal 0 0 -1
		outer loop
			vertex 50 50 -50
			vertex 0.0002500000118743628 0.00043301269761286676 -50
			vertex 0.00012940952728968114 0.00048296290333382785 -50
		endloop
	endfacet
	facet normal 0 0 -1
		outer loop
			vertex 50 50 -50
			vertex 0.00035355339059606194 0.00035355339059606194 -50
			vertex 0.0002500000118743628 0.00043301269761286676 -50
		endloop
	endfacet
	facet normal 0 0 -1
		outer loop
			vertex 50 50 -50
			vertex 0.00035355339059606194 -0.00035355339059606194 -50
			vertex 0.00043301269761286676 -0.0002500000118743628 -50
		endloop
	endfacet
	facet normal 0 0 -1
		outer loop
			vertex 50 50 -50
			vertex 0.00043301269761286676 -0.0002500000118743628 -50
			vertex 0.00048296290333382785 -0.00012940952728968114 -50
		endloop
	endfacet
	facet normal 0 0 -1
		outer loop
			vertex 50 50 -50
			vertex 0.00048296290333382785 -0.00012940952728968114 -50
			vertex 0.0005000000237487257 0 -50
		endloop
	endfacet
	facet normal 0 0 -1
		outer loop
			vertex 50 50 -50
			vertex 0.0005000000237487257 0 -50
			vertex 0.00048296290333382785 0.00012940952728968114 -50
		endloop
	endfacet
	facet normal 0 0 -1
		outer loop
			vertex 50 50 -50
			vertex 0.00048296290333382785 0.00012940952728968114 -50
			vertex 0.00043301269761286676 0.0002500000118743628 -50
		endloop
	endfacet
	facet normal 0 0 -1
		outer loop
			vertex 50 50 -50
			vertex 0.00043301269761286676 0.0002500000118743628 -50
			vertex 0.00035355339059606194 0.00035355339059606194 -50
		endloop
	endfacet
	facet normal 0 1 0
		outer loop
			vertex -50 50 -50
			vertex 50 50 50
			vertex 50 50 -50
		endloop
	endfacet
	facet normal 0 0 1
		outer loop
			vertex 50 50 50
			vertex -0.00035355339059606194 0.00035355339059606194 50
			vertex -0.0002500000118743628 0.00043301269761286676 50
		endloop
	endfacet
	facet normal 0 0 1
		outer loop
			vertex 50 50 50
			vertex -0.0002500000118743628 0.00043301269761286676 50
			vertex -0.00012940952728968114 0.00048296290333382785 50
		endloop
	endfacet
	facet normal 0 0 1
		outer loop
			vertex 50 50 50
			vertex -0.00012940952728968114 0.00048296290333382785 50
			vertex 0 0.0005000000237487257 50
		endloop
	endfacet
	facet normal 0 0 1
		outer loop
			vertex 50 50 50
			vertex 0 0.0005000000237487257 50
			vertex 0.00012940952728968114 0.00048296290333382785 50
		endloop
	endfacet
	facet normal 0 0 1
		outer loop
			vertex 50 50 50
			vertex 0.00012940952728968114 0.00048296290333382785 50
			vertex 0.0002500000118743628 0.00043301269761286676 50
		endloop
	endfacet
	facet normal 0 0 1
		outer loop
			vertex 50 50 50
			vertex 0.0002500000118743628 0.00043301269761286676 50
			vertex 0.00035355339059606194 0.00035355339059606194 50
		endloop
	endfacet
	facet normal 0 0 1
		outer loop
			vertex 50 50 50
			vertex 0.00043301269761286676 -0.0002500000118743628 50
			vertex 0.00035355339059606194 -0.00035355339059606194 50
		endloop
	endfacet
	facet normal 0 0 1
		outer loop
			vertex 50 50 50
			vertex 0.00048296290333382785 -0.00012940952728968114 50
			vertex 0.00043301269761286676 -0.0002500000118743628 50
		endloop
	endfacet
	facet normal 0 0 1
		outer loop
			vertex 50 50 50
			vertex 0.0005000000237487257 0 50
			vertex 0.00048296290333382785 -0.00012940952728968114 50
		endloop
	endfacet
	facet normal 0 0 1
		outer loop
			vertex 50 50 50
			vertex 0.00048296290333382785 0.00012940952728968114 50
			vertex 0.0005000000237487257 0 50
		endloop
	endfacet
	facet normal 0 0 1
		outer loop
			vertex 50 50 50
			vertex 0.00043301269761286676 0.0002500000118743628 50
			vertex 0.00048296290333382785 0.00012940952728968114 50
		endloop
	endfacet
	facet normal 0 0 1
		outer loop
			vertex 50 50 50
			vertex 0.00035355339059606194 0.00035355339059606194 50
			vertex 0.00043301269761286676 0.0002500000118743628 50
		endloop
	endfacet
	facet normal 1 0 0
		outer loop
			vertex 50 -50 50
			vertex 50 50 -50
			vertex 50 50 50
		endloop
	endfacet
	facet normal 0.7933533224298577 0.6087614522861204 0
		outer loop
			vertex -0.00035355339059606194 -0.00035355339059606194 -50
			vertex -0.00043301269761286676 -0.0002500000118743628 -50
			vertex -0.00043301269761286676 -0.0002500000118743628 50
		endloop
	endfacet
	facet normal 0.6087614522861204 0.7933533224298577 0
		outer loop
			vertex -0.0002500000118743628 -0.00043301269761286676 -50
			vertex -0.00035355339059606194 -0.00035355339059606194 -50
			vertex -0.00035355339059606194 -0.00035355339059606194 50
		endloop
	endfacet
	facet normal 0.9238795555002595 0.3826833768647955 0
		outer loop
			vertex -0.00043301269761286676 -0.0002500000118743628 -50
			vertex -0.00048296290333382785 -0.00012940952728968114 -50
			vertex -0.00048296290333382785 -0.00012940952728968114 50
		endloop
	endfacet
	facet normal 0.9914448287199433 0.13052644025055707 0
		outer loop
			vertex -0.00048296290333382785 -0.00012940952728968114 -50
			vertex -0.0005000000237487257 0 -50
			vertex -0.0005000000237487257 0 50
		endloop
	endfacet
	facet normal 0.3826833768647955 0.9238795555002595 0
		outer loop
			vertex -0.00012940952728968114 -0.00048296290333382785 -50
			vertex -0.0002500000118743628 -0.00043301269761286676 -50
			vertex -0.0002500000118743628 -0.00043301269761286676 50
		endloop
	endfacet
	facet normal 0.13052644025055707 0.9914448287199433 0
		outer loop
			vertex -0.00012940952728968114 -0.00048296290333382785 -50
			vertex -0.00012940952728968114 -0.00048296290333382785 50
			vertex 0 -0.0005000000237487257 -50
		endloop
	endfacet
	facet normal 0.7933533224298577 0.6087614522861204 0
		outer loop
			vertex -0.00035355339059606194 -0.00035355339059606194 -50
			vertex -0.00043301269761286676 -0.0002500000118743628 50
			vertex -0.00035355339059606194 -0.00035355339059606194 50
		endloop
	endfacet
	facet normal 0.6087614522861204 0.7933533224298577 0
		outer loop
			vertex -0.0002500000118743628 -0.00043301269761286676 -50
			vertex -0.00035355339059606194 -0.00035355339059606194 50
			vertex -0.0002500000118743628 -0.00043301269761286676 50
		endloop
	endfacet
	facet normal 0.9238795555002595 0.3826833768647955 0
		outer loop
			vertex -0.00043301269761286676 -0.0002500000118743628 -50
			vertex -0.00048296290333382785 -0.00012940952728968114 50
			vertex -0.00043301269761286676 -0.0002500000118743628 50
		endloop
	endfacet
	facet normal 0.9914448287199433 0.13052644025055707 0
		outer loop
			vertex -0.00048296290333382785 -0.00012940952728968114 -50
			vertex -0.0005000000237487257 0 50
			vertex -0.00048296290333382785 -0.00012940952728968114 50
		endloop
	endfacet
	facet normal 0.3826833768647955 0.9238795555002595 0
		outer loop
			vertex -0.00012940952728968114 -0.00048296290333382785 -50
			vertex -0.0002500000118743628 -0.00043301269761286676 50
			vertex -0.00012940952728968114 -0.00048296290333382785 50
		endloop
	endfacet
	facet normal 0.13052644025055707 0.9914448287199433 0
		outer loop
			vertex 0 -0.0005000000237487257 -50
			vertex -0.00012940952728968114 -0.00048296290333382785 50
			vertex 0 -0.0005000000237487257 50
		endloop
	endfacet
	facet normal 0.9914448287199433 -0.13052644025055707 0
		outer loop
			vertex -0.0005000000237487257 0 -50
			vertex -0.00048296290333382785 0.00012940952728968114 -50
			vertex -0.00048296290333382785 0.00012940952728968114 50
		endloop
	endfacet
	facet normal 0.9238795555002595 -0.3826833768647955 0
		outer loop
			vertex -0.00048296290333382785 0.00012940952728968114 -50
			vertex -0.00043301269761286676 0.0002500000118743628 -50
			vertex -0.00043301269761286676 0.0002500000118743628 50
		endloop
	endfacet
	facet normal 0.7933533224298577 -0.6087614522861204 0
		outer loop
			vertex -0.00043301269761286676 0.0002500000118743628 -50
			vertex -0.00035355339059606194 0.00035355339059606194 -50
			vertex -0.00035355339059606194 0.00035355339059606194 50
		endloop
	endfacet
	facet normal 0.6087614522861204 -0.7933533224298577 0
		outer loop
			vertex -0.00035355339059606194 0.00035355339059606194 -50
			vertex -0.0002500000118743628 0.00043301269761286676 -50
			vertex -0.0002500000118743628 0.00043301269761286676 50
		endloop
	endfacet
	facet normal 0.3826833768647955 -0.9238795555002595 0
		outer loop
			vertex -0.0002500000118743628 0.00043301269761286676 -50
			vertex -0.00012940952728968114 0.00048296290333382785 -50
			vertex -0.00012940952728968114 0.00048296290333382785 50
		endloop
	endfacet
	facet normal 0.13052644025055707 -0.9914448287199433 0
		outer loop
			vertex -0.00012940952728968114 0.00048296290333382785 -50
			vertex 0 0.0005000000237487257 -50
			vertex 0 0.0005000000237487257 50
		endloop
	endfacet
	facet normal 0.9914448287199433 -0.13052644025055707 0
		outer loop
			vertex -0.0005000000237487257 0 -50
			vertex -0.00048296290333382785 0.00012940952728968114 50
			vertex -0.0005000000237487257 0 50
		endloop
	endfacet
	facet normal 0.9238795555002595 -0.3826833768647955 0
		outer loop
			vertex -0.00048296290333382785 0.00012940952728968114 -50
			vertex -0.00043301269761286676 0.0002500000118743628 50
			vertex -0.00048296290333382785 0.00012940952728968114 50
		endloop
	endfacet
	facet normal 0.7933533224298577 -0.6087614522861204 0
		outer loop
			vertex -0.00043301269761286676 0.0002500000118743628 -50
			vertex -0.00035355339059606194 0.00035355339059606194 50
			vertex -0.00043301269761286676 0.0002500000118743628 50
		endloop
	endfacet
	facet normal 0.6087614522861204 -0.7933533224298577 0
		outer loop
			vertex -0.00035355339059606194 0.00035355339059606194 -50
			vertex -0.0002500000118743628 0.00043301269761286676 50
			vertex -0.00035355339059606194 0.00035355339059606194 50
		endloop
	endfacet
	facet normal 0.3826833768647955 -0.9238795555002595 0
		outer loop
			vertex -0.0002500000118743628 0.00043301269761286676 -50
			vertex -0.00012940952728968114 0.00048296290333382785 50
			vertex -0.0002500000118743628 0.00043301269761286676 50
		endloop
	endfacet
	facet normal 0.13052644025055707 -0.9914448287199433 0
		outer loop
			vertex -0.00012940952728968114 0.00048296290333382785 -50
			vertex 0 0.0005000000237487257 50
			vertex -0.00012940952728968114 0.00048296290333382785 50
		endloop
	endfacet
	facet normal -0.13052644025055707 0.9914448287199433 0
		outer loop
			vertex 0 -0.0005000000237487257 -50
			vertex 0 -0.0005000000237487257 50
			vertex 0.00012940952728968114 -0.00048296290333382785 -50
		endloop
	endfacet
	facet normal -0.3826833768647955 0.9238795555002595 0
		outer loop
			vertex 0.0002500000118743628 -0.00043301269761286676 -50
			vertex 0.00012940952728968114 -0.00048296290333382785 -50
			vertex 0.00012940952728968114 -0.00048296290333382785 50
		endloop
	endfacet
	facet normal -0.6087614522861204 0.7933533224298577 0
		outer loop
			vertex 0.00035355339059606194 -0.00035355339059606194 -50
			vertex 0.0002500000118743628 -0.00043301269761286676 -50
			vertex 0.0002500000118743628 -0.00043301269761286676 50
		endloop
	endfacet
	facet normal -0.7933533224298577 0.6087614522861204 0
		outer loop
			vertex 0.00043301269761286676 -0.0002500000118743628 -50
			vertex 0.00035355339059606194 -0.00035355339059606194 -50
			vertex 0.00035355339059606194 -0.00035355339059606194 50
		endloop
	endfacet
	facet normal -0.9238795555002595 0.3826833768647955 0
		outer loop
			vertex 0.00048296290333382785 -0.00012940952728968114 -50
			vertex 0.00043301269761286676 -0.0002500000118743628 -50
			vertex 0.00043301269761286676 -0.0002500000118743628 50
		endloop
	endfacet
	facet normal -0.9914448287199433 0.13052644025055707 0
		outer loop
			vertex 0.00048296290333382785 -0.00012940952728968114 -50
			vertex 0.00048296290333382785 -0.00012940952728968114 50
			vertex 0.0005000000237487257 0 -50
		endloop
	endfacet
	facet normal -0.13052644025055707 0.9914448287199433 0
		outer loop
			vertex 0.00012940952728968114 -0.00048296290333382785 -50
			vertex 0 -0.0005000000237487257 50
			vertex 0.00012940952728968114 -0.00048296290333382785 50
		endloop
	endfacet
	facet normal -0.3826833768647955 0.9238795555002595 0
		outer loop
			vertex 0.0002500000118743628 -0.00043301269761286676 -50
			vertex 0.00012940952728968114 -0.00048296290333382785 50
			vertex 0.0002500000118743628 -0.00043301269761286676 50
		endloop
	endfacet
	facet normal -0.6087614522861204 0.7933533224298577 0
		outer loop
			vertex 0.00035355339059606194 -0.00035355339059606194 -50
			vertex 0.0002500000118743628 -0.00043301269761286676 50
			vertex 0.00035355339059606194 -0.00035355339059606194 50
		endloop
	endfacet
	facet normal -0.7933533224298577 0.6087614522861204 0
		outer loop
			vertex 0.00043301269761286676 -0.0002500000118743628 -50
			vertex 0.00035355339059606194 -0.00035355339059606194 50
			vertex 0.00043301269761286676 -0.0002500000118743628 50
		endloop
	endfacet
	facet normal -0.9238795555002595 0.3826833768647955 0
		outer loop
			vertex 0.00048296290333382785 -0.00012940952728968114 -50
			vertex 0.00043301269761286676 -0.0002500000118743628 50
			vertex 0.00048296290333382785 -0.00012940952728968114 50
		endloop
	endfacet
	facet normal -0.9914448287199433 0.13052644025055707 0
		outer loop
			vertex 0.0005000000237487257 0 -50
			vertex 0.00048296290333382785 -0.00012940952728968114 50
			vertex 0.0005000000237487257 0 50
		endloop
	endfacet
	facet normal -0.13052644025055707 -0.9914448287199433 0
		outer loop
			vertex 0 0.0005000000237487257 -50
			vertex 0.00012940952728968114 0.00048296290333382785 -50
			vertex 0.00012940952728968114 0.00048296290333382785 50
		endloop
	endfacet
	facet normal -0.3826833768647955 -0.9238795555002595 0
		outer loop
			vertex 0.00012940952728968114 0.00048296290333382785 -50
			vertex 0.0002500000118743628 0.00043301269761286676 -50
			vertex 0.0002500000118743628 0.00043301269761286676 50
		endloop
	endfacet
	facet normal -0.9914448287199433 -0.13052644025055707 0
		outer loop
			vertex 0.0005000000237487257 0 -50
			vertex 0.0005000000237487257 0 50
			vertex 0.00048296290333382785 0.00012940952728968114 -50
		endloop
	endfacet
	facet normal -0.9238795555002595 -0.3826833768647955 0
		outer loop
			vertex 0.00043301269761286676 0.0002500000118743628 -50
			vertex 0.00048296290333382785 0.00012940952728968114 -50
			vertex 0.00048296290333382785 0.00012940952728968114 50
		endloop
	endfacet
	facet normal -0.6087614522861204 -0.7933533224298577 0
		outer loop
			vertex 0.0002500000118743628 0.00043301269761286676 -50
			vertex 0.00035355339059606194 0.00035355339059606194 -50
			vertex 0.00035355339059606194 0.00035355339059606194 50
		endloop
	endfacet
	facet normal -0.7933533224298577 -0.6087614522861204 0
		outer loop
			vertex 0.00035355339059606194 0.00035355339059606194 -50
			vertex 0.00043301269761286676 0.0002500000118743628 -50
			vertex 0.00043301269761286676 0.0002500000118743628 50
		endloop
	endfacet
	facet normal -0.13052644025055707 -0.9914448287199433 0
		outer loop
			vertex 0 0.0005000000237487257 -50
			vertex 0.00012940952728968114 0.00048296290333382785 50
			vertex 0 0.0005000000237487257 50
		endloop
	endfacet
	facet normal -0.3826833768647955 -0.9238795555002595 0
		outer loop
			vertex 0.00012940952728968114 0.00048296290333382785 -50
			vertex 0.0002500000118743628 0.00043301269761286676 50
			vertex 0.00012940952728968114 0.00048296290333382785 50
		endloop
	endfacet
	facet normal -0.9914448287199433 -0.13052644025055707 0
		outer loop
			vertex 0.00048296290333382785 0.00012940952728968114 -50
			vertex 0.0005000000237487257 0 50
			vertex 0.00048296290333382785 0.00012940952728968114 50
		endloop
	endfacet
	facet normal -0.9238795555002595 -0.3826833768647955 0
		outer loop
			vertex 0.00043301269761286676 0.0002500000118743628 -50
			vertex 0.00048296290333382785 0.00012940952728968114 50
			vertex 0.00043301269761286676 0.0002500000118743628 50
		endloop
	endfacet
	facet normal -0.6087614522861204 -0.7933533224298577 0
		outer loop
			vertex 0.0002500000118743628 0.00043301269761286676 -50
			vertex 0.00035355339059606194 0.00035355339059606194 50
			vertex 0.0002500000118743628 0.00043301269761286676 50
		endloop
	endfacet
	facet normal -0.7933533224298577 -0.6087614522861204 0
		outer loop
			vertex 0.00035355339059606194 0.00035355339059606194 -50
			vertex 0.00043301269761286676 0.0002500000118743628 50
			vertex 0.00035355339059606194 0.00035355339059606194 50
		endloop
	endfacet
endsolid exported
