o 
usemtl degenerate-sliver-outline-material
v 0 0 0
v 0 0 0.10000000149011612
v 0 0.009999997913837433 0
v 0 0.009999997913837433 0.10000000149011612
v 5 0 0
v 5 0 0.10000000149011612
v 5 0.009999997913837433 0
v 5 0.009999997913837433 0.10000000149011612
vn -0.0039801163749766276 -0.9950293107423126 -0.09950291170272209
vn -0.0009987516315716 -0.9987518411191837 0.04993758460537843
vn -0.000995036542289836 0.9950366996833476 -0.09950364910670954
vn -0.003922292121623072 0.9805731403018343 0.19611458931734685
vn 0.000995036542289836 -0.9950366996833476 -0.09950364910670954
vn 0.003922292121623072 -0.9805731403018343 0.19611458931734685
vn 0.0039801163749766276 0.9950293107423126 -0.09950291170272209
vn 0.0009987516315716 0.9987518411191837 0.04993758460537843
f 2//2 1//1 5//5
f 3//3 5//5 1//1
f 2//2 4//4 1//1
f 4//4 2//2 6//6
f 4//4 3//3 1//1
f 4//4 8//8 3//3
f 6//6 5//5 7//7
f 6//6 2//2 5//5
f 7//7 5//5 3//3
f 8//8 7//7 3//3
f 8//8 4//4 6//6
f 8//8 6//6 7//7
