ISO-10303-21;
HEADER;
FILE_DESCRIPTION(('Open CASCADE Model'),'2;1');
FILE_NAME('Open CASCADE Shape Model','2026-08-27T16:38:02',('Author'),(
    'Open CASCADE'),'Open CASCADE STEP processor 8.0','Open CASCADE 8.0'
  ,'Unknown');
FILE_SCHEMA((
'AP242_MANAGED_MODEL_BASED_3D_ENGINEERING_MIM_LF {1 0 10303 442 1 1 4 }'
    ));
ENDSEC;
DATA;
#1 = APPLICATION_PROTOCOL_DEFINITION('international standard',
  'ap242_managed_model_based_3d_engineering',2013,#2);
#2 = APPLICATION_CONTEXT('Managed model based 3d engineering');
#3 = SHAPE_DEFINITION_REPRESENTATION(#4,#10);
#4 = PRODUCT_DEFINITION_SHAPE('','',#5);
#5 = PRODUCT_DEFINITION('design','',#6,#9);
#6 = PRODUCT_DEFINITION_FORMATION('','',#7);
#7 = PRODUCT('Open CASCADE STEP translator 8.0 61',
  'Open CASCADE STEP translator 8.0 61','',(#8));
#8 = PRODUCT_CONTEXT('',#2,'mechanical');
#9 = PRODUCT_DEFINITION_CONTEXT('part definition',#2,'design');
#10 = ADVANCED_BREP_SHAPE_REPRESENTATION('',(#11,#15),#1230);
#11 = AXIS2_PLACEMENT_3D('',#12,#13,#14);
#12 = CARTESIAN_POINT('',(0.,0.,0.));
#13 = DIRECTION('',(0.,0.,1.));
#14 = DIRECTION('',(1.,0.,-0.));
#15 = MANIFOLD_SOLID_BREP('',#16);
#16 = CLOSED_SHELL('',(#17,#168,#244,#324,#404,#431,#1165,#1175,#1202));
#17 = ADVANCED_FACE('',(#18,#137),#32,.F.);
#18 = FACE_BOUND('',#19,.F.);
#19 = EDGE_LOOP('',(#20,#55,#83,#111));
#20 = ORIENTED_EDGE('',*,*,#21,.F.);
#21 = EDGE_CURVE('',#22,#24,#26,.T.);
#22 = VERTEX_POINT('',#23);
#23 = CARTESIAN_POINT('',(0.,0.,0.));
#24 = VERTEX_POINT('',#25);
#25 = CARTESIAN_POINT('',(0.,0.,30.));
#26 = SURFACE_CURVE('',#27,(#31,#43),.PCURVE_S1.);
#27 = LINE('',#28,#29);
#28 = CARTESIAN_POINT('',(0.,0.,0.));
#29 = VECTOR('',#30,1.);
#30 = DIRECTION('',(0.,0.,1.));
#31 = PCURVE('',#32,#37);
#32 = PLANE('',#33);
#33 = AXIS2_PLACEMENT_3D('',#34,#35,#36);
#34 = CARTESIAN_POINT('',(0.,0.,0.));
#35 = DIRECTION('',(1.,0.,-0.));
#36 = DIRECTION('',(0.,0.,1.));
#37 = DEFINITIONAL_REPRESENTATION('',(#38),#42);
#38 = LINE('',#39,#40);
#39 = CARTESIAN_POINT('',(0.,0.));
#40 = VECTOR('',#41,1.);
#41 = DIRECTION('',(1.,0.));
#42 = ( GEOMETRIC_REPRESENTATION_CONTEXT(2) 
PARAMETRIC_REPRESENTATION_CONTEXT() REPRESENTATION_CONTEXT('2D SPACE',''
  ) );
#43 = PCURVE('',#44,#49);
#44 = PLANE('',#45);
#45 = AXIS2_PLACEMENT_3D('',#46,#47,#48);
#46 = CARTESIAN_POINT('',(0.,0.,0.));
#47 = DIRECTION('',(-0.,1.,0.));
#48 = DIRECTION('',(0.,0.,1.));
#49 = DEFINITIONAL_REPRESENTATION('',(#50),#54);
#50 = LINE('',#51,#52);
#51 = CARTESIAN_POINT('',(0.,0.));
#52 = VECTOR('',#53,1.);
#53 = DIRECTION('',(1.,0.));
#54 = ( GEOMETRIC_REPRESENTATION_CONTEXT(2) 
PARAMETRIC_REPRESENTATION_CONTEXT() REPRESENTATION_CONTEXT('2D SPACE',''
  ) );
#55 = ORIENTED_EDGE('',*,*,#56,.T.);
#56 = EDGE_CURVE('',#22,#57,#59,.T.);
#57 = VERTEX_POINT('',#58);
#58 = CARTESIAN_POINT('',(0.,30.,0.));
#59 = SURFACE_CURVE('',#60,(#64,#71),.PCURVE_S1.);
#60 = LINE('',#61,#62);
#61 = CARTESIAN_POINT('',(0.,0.,0.));
#62 = VECTOR('',#63,1.);
#63 = DIRECTION('',(-0.,1.,0.));
#64 = PCURVE('',#32,#65);
#65 = DEFINITIONAL_REPRESENTATION('',(#66),#70);
#66 = LINE('',#67,#68);
#67 = CARTESIAN_POINT('',(0.,0.));
#68 = VECTOR('',#69,1.);
#69 = DIRECTION('',(0.,-1.));
#70 = ( GEOMETRIC_REPRESENTATION_CONTEXT(2) 
PARAMETRIC_REPRESENTATION_CONTEXT() REPRESENTATION_CONTEXT('2D SPACE',''
  ) );
#71 = PCURVE('',#72,#77);
#72 = PLANE('',#73);
#73 = AXIS2_PLACEMENT_3D('',#74,#75,#76);
#74 = CARTESIAN_POINT('',(0.,0.,0.));
#75 = DIRECTION('',(0.,0.,1.));
#76 = DIRECTION('',(1.,0.,-0.));
#77 = DEFINITIONAL_REPRESENTATION('',(#78),#82);
#78 = LINE('',#79,#80);
#79 = CARTESIAN_POINT('',(0.,0.));
#80 = VECTOR('',#81,1.);
#81 = DIRECTION('',(0.,1.));
#82 = ( GEOMETRIC_REPRESENTATION_CONTEXT(2) 
PARAMETRIC_REPRESENTATION_CONTEXT() REPRESENTATION_CONTEXT('2D SPACE',''
  ) );
#83 = ORIENTED_EDGE('',*,*,#84,.T.);
#84 = EDGE_CURVE('',#57,#85,#87,.T.);
#85 = VERTEX_POINT('',#86);
#86 = CARTESIAN_POINT('',(0.,30.,30.));
#87 = SURFACE_CURVE('',#88,(#92,#99),.PCURVE_S1.);
#88 = LINE('',#89,#90);
#89 = CARTESIAN_POINT('',(0.,30.,0.));
#90 = VECTOR('',#91,1.);
#91 = DIRECTION('',(0.,0.,1.));
#92 = PCURVE('',#32,#93);
#93 = DEFINITIONAL_REPRESENTATION('',(#94),#98);
#94 = LINE('',#95,#96);
#95 = CARTESIAN_POINT('',(0.,-30.));
#96 = VECTOR('',#97,1.);
#97 = DIRECTION('',(1.,0.));
#98 = ( GEOMETRIC_REPRESENTATION_CONTEXT(2) 
PARAMETRIC_REPRESENTATION_CONTEXT() REPRESENTATION_CONTEXT('2D SPACE',''
  ) );
#99 = PCURVE('',#100,#105);
#100 = PLANE('',#101);
#101 = AXIS2_PLACEMENT_3D('',#102,#103,#104);
#102 = CARTESIAN_POINT('',(0.,30.,0.));
#103 = DIRECTION('',(-0.,1.,0.));
#104 = DIRECTION('',(0.,0.,1.));
#105 = DEFINITIONAL_REPRESENTATION('',(#106),#110);
#106 = LINE('',#107,#108);
#107 = CARTESIAN_POINT('',(0.,0.));
#108 = VECTOR('',#109,1.);
#109 = DIRECTION('',(1.,0.));
#110 = ( GEOMETRIC_REPRESENTATION_CONTEXT(2) 
PARAMETRIC_REPRESENTATION_CONTEXT() REPRESENTATION_CONTEXT('2D SPACE',''
  ) );
#111 = ORIENTED_EDGE('',*,*,#112,.F.);
#112 = EDGE_CURVE('',#24,#85,#113,.T.);
#113 = SURFACE_CURVE('',#114,(#118,#125),.PCURVE_S1.);
#114 = LINE('',#115,#116);
#115 = CARTESIAN_POINT('',(0.,0.,30.));
#116 = VECTOR('',#117,1.);
#117 = DIRECTION('',(-0.,1.,0.));
#118 = PCURVE('',#32,#119);
#119 = DEFINITIONAL_REPRESENTATION('',(#120),#124);
#120 = LINE('',#121,#122);
#121 = CARTESIAN_POINT('',(30.,0.));
#122 = VECTOR('',#123,1.);
#123 = DIRECTION('',(0.,-1.));
#124 = ( GEOMETRIC_REPRESENTATION_CONTEXT(2) 
PARAMETRIC_REPRESENTATION_CONTEXT() REPRESENTATION_CONTEXT('2D SPACE',''
  ) );
#125 = PCURVE('',#126,#131);
#126 = PLANE('',#127);
#127 = AXIS2_PLACEMENT_3D('',#128,#129,#130);
#128 = CARTESIAN_POINT('',(0.,0.,30.));
#129 = DIRECTION('',(0.,0.,1.));
#130 = DIRECTION('',(1.,0.,-0.));
#131 = DEFINITIONAL_REPRESENTATION('',(#132),#136);
#132 = LINE('',#133,#134);
#133 = CARTESIAN_POINT('',(0.,0.));
#134 = VECTOR('',#135,1.);
#135 = DIRECTION('',(0.,1.));
#136 = ( GEOMETRIC_REPRESENTATION_CONTEXT(2) 
PARAMETRIC_REPRESENTATION_CONTEXT() REPRESENTATION_CONTEXT('2D SPACE',''
  ) );
#137 = FACE_BOUND('',#138,.F.);
#138 = EDGE_LOOP('',(#139));
#139 = ORIENTED_EDGE('',*,*,#140,.F.);
#140 = EDGE_CURVE('',#141,#141,#143,.T.);
#141 = VERTEX_POINT('',#142);
#142 = CARTESIAN_POINT('',(0.,15.,7.));
#143 = SURFACE_CURVE('',#144,(#149,#156),.PCURVE_S1.);
#144 = CIRCLE('',#145,8.);
#145 = AXIS2_PLACEMENT_3D('',#146,#147,#148);
#146 = CARTESIAN_POINT('',(0.,15.,15.));
#147 = DIRECTION('',(1.,0.,1.110223024625E-16));
#148 = DIRECTION('',(1.110223024625E-16,0.,-1.));
#149 = PCURVE('',#32,#150);
#150 = DEFINITIONAL_REPRESENTATION('',(#151),#155);
#151 = CIRCLE('',#152,8.);
#152 = AXIS2_PLACEMENT_2D('',#153,#154);
#153 = CARTESIAN_POINT('',(15.,-15.));
#154 = DIRECTION('',(-1.,0.));
#155 = ( GEOMETRIC_REPRESENTATION_CONTEXT(2) 
PARAMETRIC_REPRESENTATION_CONTEXT() REPRESENTATION_CONTEXT('2D SPACE',''
  ) );
#156 = PCURVE('',#157,#162);
#157 = CYLINDRICAL_SURFACE('',#158,8.);
#158 = AXIS2_PLACEMENT_3D('',#159,#160,#161);
#159 = CARTESIAN_POINT('',(-10.,15.,15.));
#160 = DIRECTION('',(1.,0.,1.110223024625E-16));
#161 = DIRECTION('',(1.110223024625E-16,0.,-1.));
#162 = DEFINITIONAL_REPRESENTATION('',(#163),#167);
#163 = LINE('',#164,#165);
#164 = CARTESIAN_POINT('',(0.,10.));
#165 = VECTOR('',#166,1.);
#166 = DIRECTION('',(1.,0.));
#167 = ( GEOMETRIC_REPRESENTATION_CONTEXT(2) 
PARAMETRIC_REPRESENTATION_CONTEXT() REPRESENTATION_CONTEXT('2D SPACE',''
  ) );
#168 = ADVANCED_FACE('',(#169),#44,.F.);
#169 = FACE_BOUND('',#170,.F.);
#170 = EDGE_LOOP('',(#171,#194,#195,#218));
#171 = ORIENTED_EDGE('',*,*,#172,.F.);
#172 = EDGE_CURVE('',#22,#173,#175,.T.);
#173 = VERTEX_POINT('',#174);
#174 = CARTESIAN_POINT('',(60.,0.,0.));
#175 = SURFACE_CURVE('',#176,(#180,#187),.PCURVE_S1.);
#176 = LINE('',#177,#178);
#177 = CARTESIAN_POINT('',(0.,0.,0.));
#178 = VECTOR('',#179,1.);
#179 = DIRECTION('',(1.,0.,-0.));
#180 = PCURVE('',#44,#181);
#181 = DEFINITIONAL_REPRESENTATION('',(#182),#186);
#182 = LINE('',#183,#184);
#183 = CARTESIAN_POINT('',(0.,0.));
#184 = VECTOR('',#185,1.);
#185 = DIRECTION('',(0.,1.));
#186 = ( GEOMETRIC_REPRESENTATION_CONTEXT(2) 
PARAMETRIC_REPRESENTATION_CONTEXT() REPRESENTATION_CONTEXT('2D SPACE',''
  ) );
#187 = PCURVE('',#72,#188);
#188 = DEFINITIONAL_REPRESENTATION('',(#189),#193);
#189 = LINE('',#190,#191);
#190 = CARTESIAN_POINT('',(0.,0.));
#191 = VECTOR('',#192,1.);
#192 = DIRECTION('',(1.,0.));
#193 = ( GEOMETRIC_REPRESENTATION_CONTEXT(2) 
PARAMETRIC_REPRESENTATION_CONTEXT() REPRESENTATION_CONTEXT('2D SPACE',''
  ) );
#194 = ORIENTED_EDGE('',*,*,#21,.T.);
#195 = ORIENTED_EDGE('',*,*,#196,.T.);
#196 = EDGE_CURVE('',#24,#197,#199,.T.);
#197 = VERTEX_POINT('',#198);
#198 = CARTESIAN_POINT('',(60.,0.,30.));
#199 = SURFACE_CURVE('',#200,(#204,#211),.PCURVE_S1.);
#200 = LINE('',#201,#202);
#201 = CARTESIAN_POINT('',(0.,0.,30.));
#202 = VECTOR('',#203,1.);
#203 = DIRECTION('',(1.,0.,-0.));
#204 = PCURVE('',#44,#205);
#205 = DEFINITIONAL_REPRESENTATION('',(#206),#210);
#206 = LINE('',#207,#208);
#207 = CARTESIAN_POINT('',(30.,0.));
#208 = VECTOR('',#209,1.);
#209 = DIRECTION('',(0.,1.));
#210 = ( GEOMETRIC_REPRESENTATION_CONTEXT(2) 
PARAMETRIC_REPRESENTATION_CONTEXT() REPRESENTATION_CONTEXT('2D SPACE',''
  ) );
#211 = PCURVE('',#126,#212);
#212 = DEFINITIONAL_REPRESENTATION('',(#213),#217);
#213 = LINE('',#214,#215);
#214 = CARTESIAN_POINT('',(0.,0.));
#215 = VECTOR('',#216,1.);
#216 = DIRECTION('',(1.,0.));
#217 = ( GEOMETRIC_REPRESENTATION_CONTEXT(2) 
PARAMETRIC_REPRESENTATION_CONTEXT() REPRESENTATION_CONTEXT('2D SPACE',''
  ) );
#218 = ORIENTED_EDGE('',*,*,#219,.F.);
#219 = EDGE_CURVE('',#173,#197,#220,.T.);
#220 = SURFACE_CURVE('',#221,(#225,#232),.PCURVE_S1.);
#221 = LINE('',#222,#223);
#222 = CARTESIAN_POINT('',(60.,0.,0.));
#223 = VECTOR('',#224,1.);
#224 = DIRECTION('',(0.,0.,1.));
#225 = PCURVE('',#44,#226);
#226 = DEFINITIONAL_REPRESENTATION('',(#227),#231);
#227 = LINE('',#228,#229);
#228 = CARTESIAN_POINT('',(0.,60.));
#229 = VECTOR('',#230,1.);
#230 = DIRECTION('',(1.,0.));
#231 = ( GEOMETRIC_REPRESENTATION_CONTEXT(2) 
PARAMETRIC_REPRESENTATION_CONTEXT() REPRESENTATION_CONTEXT('2D SPACE',''
  ) );
#232 = PCURVE('',#233,#238);
#233 = PLANE('',#234);
#234 = AXIS2_PLACEMENT_3D('',#235,#236,#237);
#235 = CARTESIAN_POINT('',(60.,0.,0.));
#236 = DIRECTION('',(1.,0.,-0.));
#237 = DIRECTION('',(0.,0.,1.));
#238 = DEFINITIONAL_REPRESENTATION('',(#239),#243);
#239 = LINE('',#240,#241);
#240 = CARTESIAN_POINT('',(0.,0.));
#241 = VECTOR('',#242,1.);
#242 = DIRECTION('',(1.,0.));
#243 = ( GEOMETRIC_REPRESENTATION_CONTEXT(2) 
PARAMETRIC_REPRESENTATION_CONTEXT() REPRESENTATION_CONTEXT('2D SPACE',''
  ) );
#244 = ADVANCED_FACE('',(#245,#293),#126,.T.);
#245 = FACE_BOUND('',#246,.T.);
#246 = EDGE_LOOP('',(#247,#248,#249,#272));
#247 = ORIENTED_EDGE('',*,*,#112,.F.);
#248 = ORIENTED_EDGE('',*,*,#196,.T.);
#249 = ORIENTED_EDGE('',*,*,#250,.T.);
#250 = EDGE_CURVE('',#197,#251,#253,.T.);
#251 = VERTEX_POINT('',#252);
#252 = CARTESIAN_POINT('',(60.,30.,30.));
#253 = SURFACE_CURVE('',#254,(#258,#265),.PCURVE_S1.);
#254 = LINE('',#255,#256);
#255 = CARTESIAN_POINT('',(60.,0.,30.));
#256 = VECTOR('',#257,1.);
#257 = DIRECTION('',(-0.,1.,0.));
#258 = PCURVE('',#126,#259);
#259 = DEFINITIONAL_REPRESENTATION('',(#260),#264);
#260 = LINE('',#261,#262);
#261 = CARTESIAN_POINT('',(60.,0.));
#262 = VECTOR('',#263,1.);
#263 = DIRECTION('',(0.,1.));
#264 = ( GEOMETRIC_REPRESENTATION_CONTEXT(2) 
PARAMETRIC_REPRESENTATION_CONTEXT() REPRESENTATION_CONTEXT('2D SPACE',''
  ) );
#265 = PCURVE('',#233,#266);
#266 = DEFINITIONAL_REPRESENTATION('',(#267),#271);
#267 = LINE('',#268,#269);
#268 = CARTESIAN_POINT('',(30.,0.));
#269 = VECTOR('',#270,1.);
#270 = DIRECTION('',(0.,-1.));
#271 = ( GEOMETRIC_REPRESENTATION_CONTEXT(2) 
PARAMETRIC_REPRESENTATION_CONTEXT() REPRESENTATION_CONTEXT('2D SPACE',''
  ) );
#272 = ORIENTED_EDGE('',*,*,#273,.F.);
#273 = EDGE_CURVE('',#85,#251,#274,.T.);
#274 = SURFACE_CURVE('',#275,(#279,#286),.PCURVE_S1.);
#275 = LINE('',#276,#277);
#276 = CARTESIAN_POINT('',(0.,30.,30.));
#277 = VECTOR('',#278,1.);
#278 = DIRECTION('',(1.,0.,-0.));
#279 = PCURVE('',#126,#280);
#280 = DEFINITIONAL_REPRESENTATION('',(#281),#285);
#281 = LINE('',#282,#283);
#282 = CARTESIAN_POINT('',(0.,30.));
#283 = VECTOR('',#284,1.);
#284 = DIRECTION('',(1.,0.));
#285 = ( GEOMETRIC_REPRESENTATION_CONTEXT(2) 
PARAMETRIC_REPRESENTATION_CONTEXT() REPRESENTATION_CONTEXT('2D SPACE',''
  ) );
#286 = PCURVE('',#100,#287);
#287 = DEFINITIONAL_REPRESENTATION('',(#288),#292);
#288 = LINE('',#289,#290);
#289 = CARTESIAN_POINT('',(30.,0.));
#290 = VECTOR('',#291,1.);
#291 = DIRECTION('',(0.,1.));
#292 = ( GEOMETRIC_REPRESENTATION_CONTEXT(2) 
PARAMETRIC_REPRESENTATION_CONTEXT() REPRESENTATION_CONTEXT('2D SPACE',''
  ) );
#293 = FACE_BOUND('',#294,.T.);
#294 = EDGE_LOOP('',(#295));
#295 = ORIENTED_EDGE('',*,*,#296,.F.);
#296 = EDGE_CURVE('',#297,#297,#299,.T.);
#297 = VERTEX_POINT('',#298);
#298 = CARTESIAN_POINT('',(35.,15.,30.));
#299 = SURFACE_CURVE('',#300,(#305,#312),.PCURVE_S1.);
#300 = CIRCLE('',#301,5.);
#301 = AXIS2_PLACEMENT_3D('',#302,#303,#304);
#302 = CARTESIAN_POINT('',(30.,15.,30.));
#303 = DIRECTION('',(0.,0.,1.));
#304 = DIRECTION('',(1.,0.,-0.));
#305 = PCURVE('',#126,#306);
#306 = DEFINITIONAL_REPRESENTATION('',(#307),#311);
#307 = CIRCLE('',#308,5.);
#308 = AXIS2_PLACEMENT_2D('',#309,#310);
#309 = CARTESIAN_POINT('',(30.,15.));
#310 = DIRECTION('',(1.,0.));
#311 = ( GEOMETRIC_REPRESENTATION_CONTEXT(2) 
PARAMETRIC_REPRESENTATION_CONTEXT() REPRESENTATION_CONTEXT('2D SPACE',''
  ) );
#312 = PCURVE('',#313,#318);
#313 = CYLINDRICAL_SURFACE('',#314,5.);
#314 = AXIS2_PLACEMENT_3D('',#315,#316,#317);
#315 = CARTESIAN_POINT('',(30.,15.,-10.));
#316 = DIRECTION('',(0.,0.,1.));
#317 = DIRECTION('',(1.,0.,-0.));
#318 = DEFINITIONAL_REPRESENTATION('',(#319),#323);
#319 = LINE('',#320,#321);
#320 = CARTESIAN_POINT('',(0.,40.));
#321 = VECTOR('',#322,1.);
#322 = DIRECTION('',(1.,0.));
#323 = ( GEOMETRIC_REPRESENTATION_CONTEXT(2) 
PARAMETRIC_REPRESENTATION_CONTEXT() REPRESENTATION_CONTEXT('2D SPACE',''
  ) );
#324 = ADVANCED_FACE('',(#325,#373),#72,.F.);
#325 = FACE_BOUND('',#326,.F.);
#326 = EDGE_LOOP('',(#327,#328,#329,#352));
#327 = ORIENTED_EDGE('',*,*,#56,.F.);
#328 = ORIENTED_EDGE('',*,*,#172,.T.);
#329 = ORIENTED_EDGE('',*,*,#330,.T.);
#330 = EDGE_CURVE('',#173,#331,#333,.T.);
#331 = VERTEX_POINT('',#332);
#332 = CARTESIAN_POINT('',(60.,30.,0.));
#333 = SURFACE_CURVE('',#334,(#338,#345),.PCURVE_S1.);
#334 = LINE('',#335,#336);
#335 = CARTESIAN_POINT('',(60.,0.,0.));
#336 = VECTOR('',#337,1.);
#337 = DIRECTION('',(-0.,1.,0.));
#338 = PCURVE('',#72,#339);
#339 = DEFINITIONAL_REPRESENTATION('',(#340),#344);
#340 = LINE('',#341,#342);
#341 = CARTESIAN_POINT('',(60.,0.));
#342 = VECTOR('',#343,1.);
#343 = DIRECTION('',(0.,1.));
#344 = ( GEOMETRIC_REPRESENTATION_CONTEXT(2) 
PARAMETRIC_REPRESENTATION_CONTEXT() REPRESENTATION_CONTEXT('2D SPACE',''
  ) );
#345 = PCURVE('',#233,#346);
#346 = DEFINITIONAL_REPRESENTATION('',(#347),#351);
#347 = LINE('',#348,#349);
#348 = CARTESIAN_POINT('',(0.,0.));
#349 = VECTOR('',#350,1.);
#350 = DIRECTION('',(0.,-1.));
#351 = ( GEOMETRIC_REPRESENTATION_CONTEXT(2) 
PARAMETRIC_REPRESENTATION_CONTEXT() REPRESENTATION_CONTEXT('2D SPACE',''
  ) );
#352 = ORIENTED_EDGE('',*,*,#353,.F.);
#353 = EDGE_CURVE('',#57,#331,#354,.T.);
#354 = SURFACE_CURVE('',#355,(#359,#366),.PCURVE_S1.);
#355 = LINE('',#356,#357);
#356 = CARTESIAN_POINT('',(0.,30.,0.));
#357 = VECTOR('',#358,1.);
#358 = DIRECTION('',(1.,0.,-0.));
#359 = PCURVE('',#72,#360);
#360 = DEFINITIONAL_REPRESENTATION('',(#361),#365);
#361 = LINE('',#362,#363);
#362 = CARTESIAN_POINT('',(0.,30.));
#363 = VECTOR('',#364,1.);
#364 = DIRECTION('',(1.,0.));
#365 = ( GEOMETRIC_REPRESENTATION_CONTEXT(2) 
PARAMETRIC_REPRESENTATION_CONTEXT() REPRESENTATION_CONTEXT('2D SPACE',''
  ) );
#366 = PCURVE('',#100,#367);
#367 = DEFINITIONAL_REPRESENTATION('',(#368),#372);
#368 = LINE('',#369,#370);
#369 = CARTESIAN_POINT('',(0.,0.));
#370 = VECTOR('',#371,1.);
#371 = DIRECTION('',(0.,1.));
#372 = ( GEOMETRIC_REPRESENTATION_CONTEXT(2) 
PARAMETRIC_REPRESENTATION_CONTEXT() REPRESENTATION_CONTEXT('2D SPACE',''
  ) );
#373 = FACE_BOUND('',#374,.F.);
#374 = EDGE_LOOP('',(#375));
#375 = ORIENTED_EDGE('',*,*,#376,.F.);
#376 = EDGE_CURVE('',#377,#377,#379,.T.);
#377 = VERTEX_POINT('',#378);
#378 = CARTESIAN_POINT('',(35.,15.,0.));
#379 = SURFACE_CURVE('',#380,(#385,#392),.PCURVE_S1.);
#380 = CIRCLE('',#381,5.);
#381 = AXIS2_PLACEMENT_3D('',#382,#383,#384);
#382 = CARTESIAN_POINT('',(30.,15.,0.));
#383 = DIRECTION('',(0.,0.,1.));
#384 = DIRECTION('',(1.,0.,-0.));
#385 = PCURVE('',#72,#386);
#386 = DEFINITIONAL_REPRESENTATION('',(#387),#391);
#387 = CIRCLE('',#388,5.);
#388 = AXIS2_PLACEMENT_2D('',#389,#390);
#389 = CARTESIAN_POINT('',(30.,15.));
#390 = DIRECTION('',(1.,0.));
#391 = ( GEOMETRIC_REPRESENTATION_CONTEXT(2) 
PARAMETRIC_REPRESENTATION_CONTEXT() REPRESENTATION_CONTEXT('2D SPACE',''
  ) );
#392 = PCURVE('',#393,#398);
#393 = CYLINDRICAL_SURFACE('',#394,5.);
#394 = AXIS2_PLACEMENT_3D('',#395,#396,#397);
#395 = CARTESIAN_POINT('',(30.,15.,-10.));
#396 = DIRECTION('',(0.,0.,1.));
#397 = DIRECTION('',(1.,0.,-0.));
#398 = DEFINITIONAL_REPRESENTATION('',(#399),#403);
#399 = LINE('',#400,#401);
#400 = CARTESIAN_POINT('',(0.,10.));
#401 = VECTOR('',#402,1.);
#402 = DIRECTION('',(1.,0.));
#403 = ( GEOMETRIC_REPRESENTATION_CONTEXT(2) 
PARAMETRIC_REPRESENTATION_CONTEXT() REPRESENTATION_CONTEXT('2D SPACE',''
  ) );
#404 = ADVANCED_FACE('',(#405),#100,.T.);
#405 = FACE_BOUND('',#406,.T.);
#406 = EDGE_LOOP('',(#407,#408,#409,#410));
#407 = ORIENTED_EDGE('',*,*,#353,.F.);
#408 = ORIENTED_EDGE('',*,*,#84,.T.);
#409 = ORIENTED_EDGE('',*,*,#273,.T.);
#410 = ORIENTED_EDGE('',*,*,#411,.F.);
#411 = EDGE_CURVE('',#331,#251,#412,.T.);
#412 = SURFACE_CURVE('',#413,(#417,#424),.PCURVE_S1.);
#413 = LINE('',#414,#415);
#414 = CARTESIAN_POINT('',(60.,30.,0.));
#415 = VECTOR('',#416,1.);
#416 = DIRECTION('',(0.,0.,1.));
#417 = PCURVE('',#100,#418);
#418 = DEFINITIONAL_REPRESENTATION('',(#419),#423);
#419 = LINE('',#420,#421);
#420 = CARTESIAN_POINT('',(0.,60.));
#421 = VECTOR('',#422,1.);
#422 = DIRECTION('',(1.,0.));
#423 = ( GEOMETRIC_REPRESENTATION_CONTEXT(2) 
PARAMETRIC_REPRESENTATION_CONTEXT() REPRESENTATION_CONTEXT('2D SPACE',''
  ) );
#424 = PCURVE('',#233,#425);
#425 = DEFINITIONAL_REPRESENTATION('',(#426),#430);
#426 = LINE('',#427,#428);
#427 = CARTESIAN_POINT('',(0.,-30.));
#428 = VECTOR('',#429,1.);
#429 = DIRECTION('',(1.,0.));
#430 = ( GEOMETRIC_REPRESENTATION_CONTEXT(2) 
PARAMETRIC_REPRESENTATION_CONTEXT() REPRESENTATION_CONTEXT('2D SPACE',''
  ) );
#431 = ADVANCED_FACE('',(#432,#843),#157,.F.);
#432 = FACE_BOUND('',#433,.F.);
#433 = EDGE_LOOP('',(#434,#459,#481,#482,#652,#673,#674,#675));
#434 = ORIENTED_EDGE('',*,*,#435,.T.);
#435 = EDGE_CURVE('',#436,#438,#440,.T.);
#436 = VERTEX_POINT('',#437);
#437 = CARTESIAN_POINT('',(35.,15.,7.));
#438 = VERTEX_POINT('',#439);
#439 = CARTESIAN_POINT('',(60.,15.,7.));
#440 = SEAM_CURVE('',#441,(#445,#452),.PCURVE_S1.);
#441 = LINE('',#442,#443);
#442 = CARTESIAN_POINT('',(-10.,15.,7.));
#443 = VECTOR('',#444,1.);
#444 = DIRECTION('',(1.,0.,1.110223024625E-16));
#445 = PCURVE('',#157,#446);
#446 = DEFINITIONAL_REPRESENTATION('',(#447),#451);
#447 = LINE('',#448,#449);
#448 = CARTESIAN_POINT('',(6.28318530718,-0.));
#449 = VECTOR('',#450,1.);
#450 = DIRECTION('',(0.,1.));
#451 = ( GEOMETRIC_REPRESENTATION_CONTEXT(2) 
PARAMETRIC_REPRESENTATION_CONTEXT() REPRESENTATION_CONTEXT('2D SPACE',''
  ) );
#452 = PCURVE('',#157,#453);
#453 = DEFINITIONAL_REPRESENTATION('',(#454),#458);
#454 = LINE('',#455,#456);
#455 = CARTESIAN_POINT('',(0.,-0.));
#456 = VECTOR('',#457,1.);
#457 = DIRECTION('',(0.,1.));
#458 = ( GEOMETRIC_REPRESENTATION_CONTEXT(2) 
PARAMETRIC_REPRESENTATION_CONTEXT() REPRESENTATION_CONTEXT('2D SPACE',''
  ) );
#459 = ORIENTED_EDGE('',*,*,#460,.F.);
#460 = EDGE_CURVE('',#438,#438,#461,.T.);
#461 = SURFACE_CURVE('',#462,(#467,#474),.PCURVE_S1.);
#462 = CIRCLE('',#463,8.);
#463 = AXIS2_PLACEMENT_3D('',#464,#465,#466);
#464 = CARTESIAN_POINT('',(60.,15.,15.));
#465 = DIRECTION('',(1.,0.,1.110223024625E-16));
#466 = DIRECTION('',(1.110223024625E-16,0.,-1.));
#467 = PCURVE('',#157,#468);
#468 = DEFINITIONAL_REPRESENTATION('',(#469),#473);
#469 = LINE('',#470,#471);
#470 = CARTESIAN_POINT('',(0.,70.));
#471 = VECTOR('',#472,1.);
#472 = DIRECTION('',(1.,0.));
#473 = ( GEOMETRIC_REPRESENTATION_CONTEXT(2) 
PARAMETRIC_REPRESENTATION_CONTEXT() REPRESENTATION_CONTEXT('2D SPACE',''
  ) );
#474 = PCURVE('',#233,#475);
#475 = DEFINITIONAL_REPRESENTATION('',(#476),#480);
#476 = CIRCLE('',#477,8.);
#477 = AXIS2_PLACEMENT_2D('',#478,#479);
#478 = CARTESIAN_POINT('',(15.,-15.));
#479 = DIRECTION('',(-1.,0.));
#480 = ( GEOMETRIC_REPRESENTATION_CONTEXT(2) 
PARAMETRIC_REPRESENTATION_CONTEXT() REPRESENTATION_CONTEXT('2D SPACE',''
  ) );
#481 = ORIENTED_EDGE('',*,*,#435,.F.);
#482 = ORIENTED_EDGE('',*,*,#483,.T.);
#483 = EDGE_CURVE('',#436,#484,#486,.T.);
#484 = VERTEX_POINT('',#485);
#485 = CARTESIAN_POINT('',(25.,15.,7.));
#486 = SURFACE_CURVE('',#487,(#540,#596),.PCURVE_S1.);
#487 = B_SPLINE_CURVE_WITH_KNOTS('',6,(#488,#489,#490,#491,#492,#493,
    #494,#495,#496,#497,#498,#499,#500,#501,#502,#503,#504,#505,#506,
    #507,#508,#509,#510,#511,#512,#513,#514,#515,#516,#517,#518,#519,
    #520,#521,#522,#523,#524,#525,#526,#527,#528,#529,#530,#531,#532,
    #533,#534,#535,#536,#537,#538,#539),.UNSPECIFIED.,.F.,.F.,(7,5,5,5,5
    ,5,5,5,5,5,7),(0.,0.106316964056,0.157817452518,0.295574656436,
    0.399180875489,0.499902762515,0.60033520718,0.703346567293,
    0.843995489393,0.933527957921,1.),.UNSPECIFIED.);
#488 = CARTESIAN_POINT('',(35.,15.,7.));
#489 = CARTESIAN_POINT('',(35.,15.350635007679,7.));
#490 = CARTESIAN_POINT('',(34.970492870702,15.698158779123,
    7.018442190509));
#491 = CARTESIAN_POINT('',(34.912462729087,16.03743105277,7.05470987334)
  );
#492 = CARTESIAN_POINT('',(34.828447442538,16.363469636389,
    7.106725086896));
#493 = CARTESIAN_POINT('',(34.722535085268,16.671691608966,
    7.171034205146));
#494 = CARTESIAN_POINT('',(34.541585239218,17.096840171832,
    7.278359222191));
#495 = CARTESIAN_POINT('',(34.478481429083,17.231172184327,
    7.315437742293));
#496 = CARTESIAN_POINT('',(34.411678998184,17.361115216374,
    7.354263049622));
#497 = CARTESIAN_POINT('',(34.341502583499,17.486701905053,
    7.394544534046));
#498 = CARTESIAN_POINT('',(34.268246213342,17.607979540122,
    7.436010548019));
#499 = CARTESIAN_POINT('',(33.988690510635,18.038050004173,
    7.591821496914));
#500 = CARTESIAN_POINT('',(33.764809652061,18.321083907114,
    7.712048730802));
#501 = CARTESIAN_POINT('',(33.525016363787,18.575862777143,
    7.834566741936));
#502 = CARTESIAN_POINT('',(33.272040046909,18.804318204826,
    7.955904668363));
#503 = CARTESIAN_POINT('',(33.007305246144,19.008077394255,
    8.073244349429));
#504 = CARTESIAN_POINT('',(32.523740675355,19.323441282047,
    8.267014097192));
#505 = CARTESIAN_POINT('',(32.309821952823,19.445355461,8.346366302553)
  );
#506 = CARTESIAN_POINT('',(32.090265687451,19.55389194327,8.420530379682
    ));
#507 = CARTESIAN_POINT('',(31.86564342846,19.649084314029,8.488208975202
    ));
#508 = CARTESIAN_POINT('',(31.636406168448,19.730893910452,
    8.548184650206));
#509 = CARTESIAN_POINT('',(31.175902757659,19.865509810331,
    8.649118709289));
#510 = CARTESIAN_POINT('',(30.944809253922,19.919078006085,
    8.690573415092));
#511 = CARTESIAN_POINT('',(30.710728878448,19.959459051824,
    8.722543228669));
#512 = CARTESIAN_POINT('',(30.474638928878,19.986469643929,
    8.744169057439));
#513 = CARTESIAN_POINT('',(30.237438083731,20.,8.755002001602));
#514 = CARTESIAN_POINT('',(29.763244237079,20.,8.755002001602));
#515 = CARTESIAN_POINT('',(29.526722602021,19.98654729469,8.744231227576
    ));
#516 = CARTESIAN_POINT('',(29.29130237957,19.95969120765,8.722729102915)
  );
#517 = CARTESIAN_POINT('',(29.057875487531,19.91954045078,8.690939536296
    ));
#518 = CARTESIAN_POINT('',(28.827411429758,19.866276735065,
    8.649712287061));
#519 = CARTESIAN_POINT('',(28.36878696725,19.732615557303,8.549456831884
    ));
#520 = CARTESIAN_POINT('',(28.140774004137,19.65153803494,8.489984905196
    ));
#521 = CARTESIAN_POINT('',(27.917313825568,19.557227214389,
    8.422877561439));
#522 = CARTESIAN_POINT('',(27.698851686257,19.44972344366,8.34933079156)
  );
#523 = CARTESIAN_POINT('',(27.485950278754,19.328997297764,
    8.270619939122));
#524 = CARTESIAN_POINT('',(26.997159273861,19.011986950125,
    8.075395697767));
#525 = CARTESIAN_POINT('',(26.726736848574,18.804250831678,
    7.955601173548));
#526 = CARTESIAN_POINT('',(26.468546510487,18.570789620641,
    7.831623294561));
#527 = CARTESIAN_POINT('',(26.224099925473,18.309861351382,
    7.706451423002));
#528 = CARTESIAN_POINT('',(25.996332056015,18.019397632215,
    7.583793764882));
#529 = CARTESIAN_POINT('',(25.65882241515,17.492666683421,7.39513488508)
  );
#530 = CARTESIAN_POINT('',(25.535890077349,17.274474128182,
    7.324531315666));
#531 = CARTESIAN_POINT('',(25.423055256034,17.042978891739,7.25821590544
    ));
#532 = CARTESIAN_POINT('',(25.322161141696,16.7983345773,7.197818454045)
  );
#533 = CARTESIAN_POINT('',(25.235187080645,16.540881801852,
    7.145046146857));
#534 = CARTESIAN_POINT('',(25.111657025315,16.070964247773,
    7.069415843077));
#535 = CARTESIAN_POINT('',(25.067890392125,15.864011798134,
    7.042356924126));
#536 = CARTESIAN_POINT('',(25.034207279605,15.651841587382,7.02137953414
    ));
#537 = CARTESIAN_POINT('',(25.011427559336,15.43603293344,7.007142228708
    ));
#538 = CARTESIAN_POINT('',(25.,15.218207964402,7.));
#539 = CARTESIAN_POINT('',(25.,15.,7.));
#540 = PCURVE('',#157,#541);
#541 = DEFINITIONAL_REPRESENTATION('',(#542),#595);
#542 = B_SPLINE_CURVE_WITH_KNOTS('',6,(#543,#544,#545,#546,#547,#548,
    #549,#550,#551,#552,#553,#554,#555,#556,#557,#558,#559,#560,#561,
    #562,#563,#564,#565,#566,#567,#568,#569,#570,#571,#572,#573,#574,
    #575,#576,#577,#578,#579,#580,#581,#582,#583,#584,#585,#586,#587,
    #588,#589,#590,#591,#592,#593,#594),.UNSPECIFIED.,.F.,.F.,(7,5,5,5,5
    ,5,5,5,5,5,7),(0.,0.106316964056,0.157817452518,0.295574656436,
    0.399180875489,0.499902762515,0.60033520718,0.703346567293,
    0.843995489393,0.933527957921,1.),.UNSPECIFIED.);
#543 = CARTESIAN_POINT('',(0.,45.));
#544 = CARTESIAN_POINT('',(4.382937595992E-02,45.));
#545 = CARTESIAN_POINT('',(8.726991744933E-02,44.970492870702));
#546 = CARTESIAN_POINT('',(0.129830167303,44.912462729087));
#547 = CARTESIAN_POINT('',(0.171027095721,44.828447442538));
#548 = CARTESIAN_POINT('',(0.210350563364,44.722535085268));
#549 = CARTESIAN_POINT('',(0.265161311596,44.541585239218));
#550 = CARTESIAN_POINT('',(0.282576497015,44.478481429083));
#551 = CARTESIAN_POINT('',(0.299523487432,44.411678998184));
#552 = CARTESIAN_POINT('',(0.316004942943,44.341502583499));
#553 = CARTESIAN_POINT('',(0.332023629312,44.268246213342));
#554 = CARTESIAN_POINT('',(0.389201757758,43.988690510635));
#555 = CARTESIAN_POINT('',(0.427584372662,43.764809652061));
#556 = CARTESIAN_POINT('',(0.46287344764,43.525016363787));
#557 = CARTESIAN_POINT('',(0.495177744423,43.272040046909));
#558 = CARTESIAN_POINT('',(0.524557181436,43.007305246144));
#559 = CARTESIAN_POINT('',(0.570824255459,42.523740675355));
#560 = CARTESIAN_POINT('',(0.589001121113,42.309821952823));
#561 = CARTESIAN_POINT('',(0.605427826858,42.090265687451));
#562 = CARTESIAN_POINT('',(0.620025195981,41.86564342846));
#563 = CARTESIAN_POINT('',(0.63270434851,41.636406168448));
#564 = CARTESIAN_POINT('',(0.653735993114,41.175902757659));
#565 = CARTESIAN_POINT('',(0.662201890156,40.944809253922));
#566 = CARTESIAN_POINT('',(0.668639756919,40.710728878448));
#567 = CARTESIAN_POINT('',(0.672964949875,40.474638928878));
#568 = CARTESIAN_POINT('',(0.675131532937,40.237438083731));
#569 = CARTESIAN_POINT('',(0.675131532937,39.763244237079));
#570 = CARTESIAN_POINT('',(0.672977383784,39.526722602021));
#571 = CARTESIAN_POINT('',(0.668676932214,39.29130237957));
#572 = CARTESIAN_POINT('',(0.662275616686,39.057875487531));
#573 = CARTESIAN_POINT('',(0.65385720384,38.827411429758));
#574 = CARTESIAN_POINT('',(0.632971926904,38.36878696725));
#575 = CARTESIAN_POINT('',(0.620403787277,38.140774004137));
#576 = CARTESIAN_POINT('',(0.605937536972,37.917313825568));
#577 = CARTESIAN_POINT('',(0.589660804569,37.698851686257));
#578 = CARTESIAN_POINT('',(0.571651956733,37.485950278754));
#579 = CARTESIAN_POINT('',(0.525114326643,36.997159273861));
#580 = CARTESIAN_POINT('',(0.495151554273,36.726736848574));
#581 = CARTESIAN_POINT('',(0.462141759592,36.468546510487));
#582 = CARTESIAN_POINT('',(0.426019665894,36.224099925473));
#583 = CARTESIAN_POINT('',(0.386668109932,35.996332056015));
#584 = CARTESIAN_POINT('',(0.316730898657,35.65882241515));
#585 = CARTESIAN_POINT('',(0.288078207355,35.535890077349));
#586 = CARTESIAN_POINT('',(0.258004701254,35.423055256034));
#587 = CARTESIAN_POINT('',(0.226541300973,35.322161141696));
#588 = CARTESIAN_POINT('',(0.193720427357,35.235187080645));
#589 = CARTESIAN_POINT('',(0.134224832656,35.111657025315));
#590 = CARTESIAN_POINT('',(0.108146987701,35.067890392125));
#591 = CARTESIAN_POINT('',(8.15167060962E-02,35.034207279605));
#592 = CARTESIAN_POINT('',(5.450412166627E-02,35.011427559336));
#593 = CARTESIAN_POINT('',(2.727599555025E-02,35.));
#594 = CARTESIAN_POINT('',(0.,35.));
#595 = ( GEOMETRIC_REPRESENTATION_CONTEXT(2) 
PARAMETRIC_REPRESENTATION_CONTEXT() REPRESENTATION_CONTEXT('2D SPACE',''
  ) );
#596 = PCURVE('',#393,#597);
#597 = DEFINITIONAL_REPRESENTATION('',(#598),#651);
#598 = B_SPLINE_CURVE_WITH_KNOTS('',6,(#599,#600,#601,#602,#603,#604,
    #605,#606,#607,#608,#609,#610,#611,#612,#613,#614,#615,#616,#617,
    #618,#619,#620,#621,#622,#623,#624,#625,#626,#627,#628,#629,#630,
    #631,#632,#633,#634,#635,#636,#637,#638,#639,#640,#641,#642,#643,
    #644,#645,#646,#647,#648,#649,#650),.UNSPECIFIED.,.F.,.F.,(7,5,5,5,5
    ,5,5,5,5,5,7),(0.,0.106316964056,0.157817452518,0.295574656436,
    0.399180875489,0.499902762515,0.60033520718,0.703346567293,
    0.843995489393,0.933527957921,1.),.UNSPECIFIED.);
#599 = CARTESIAN_POINT('',(0.,17.));
#600 = CARTESIAN_POINT('',(7.012700153587E-02,17.));
#601 = CARTESIAN_POINT('',(0.139631723578,17.018442190509));
#602 = CARTESIAN_POINT('',(0.208107143026,17.05470987334));
#603 = CARTESIAN_POINT('',(0.275121332711,17.106725086896));
#604 = CARTESIAN_POINT('',(0.340137454317,17.171034205146));
#605 = CARTESIAN_POINT('',(0.432548308072,17.278359222191));
#606 = CARTESIAN_POINT('',(0.46221136365,17.315437742293));
#607 = CARTESIAN_POINT('',(0.491405755106,17.354263049622));
#608 = CARTESIAN_POINT('',(0.5201534462,17.394544534046));
#609 = CARTESIAN_POINT('',(0.54847508721,17.436010548019));
#610 = CARTESIAN_POINT('',(0.651063974516,17.591821496914));
#611 = CARTESIAN_POINT('',(0.722928357958,17.712048730802));
#612 = CARTESIAN_POINT('',(0.792537524082,17.834566741936));
#613 = CARTESIAN_POINT('',(0.86039045683,17.955904668363));
#614 = CARTESIAN_POINT('',(0.927000949896,18.073244349429));
#615 = CARTESIAN_POINT('',(1.042463337857,18.267014097192));
#616 = CARTESIAN_POINT('',(1.091619043146,18.346366302553));
#617 = CARTESIAN_POINT('',(1.140476699045,18.420530379682));
#618 = CARTESIAN_POINT('',(1.189145652795,18.488208975202));
#619 = CARTESIAN_POINT('',(1.237742283286,18.548184650206));
#620 = CARTESIAN_POINT('',(1.333697446117,18.649118709289));
#621 = CARTESIAN_POINT('',(1.38106557986,18.690573415092));
#622 = CARTESIAN_POINT('',(1.428457698991,18.722543228669));
#623 = CARTESIAN_POINT('',(1.475868565737,18.744169057439));
#624 = CARTESIAN_POINT('',(1.523308710049,18.755002001602));
#625 = CARTESIAN_POINT('',(1.618147479379,18.755002001602));
#626 = CARTESIAN_POINT('',(1.665451782112,18.744231227576));
#627 = CARTESIAN_POINT('',(1.712727044328,18.722729102915));
#628 = CARTESIAN_POINT('',(1.759983537269,18.690939536296));
#629 = CARTESIAN_POINT('',(1.807215943289,18.649712287061));
#630 = CARTESIAN_POINT('',(1.902756868143,18.549456831884));
#631 = CARTESIAN_POINT('',(1.95107512159,18.489984905196));
#632 = CARTESIAN_POINT('',(1.999463435469,18.422877561439));
#633 = CARTESIAN_POINT('',(2.048035671281,18.34933079156));
#634 = CARTESIAN_POINT('',(2.096898690504,18.270619939122));
#635 = CARTESIAN_POINT('',(2.213416879123,18.075395697767));
#636 = CARTESIAN_POINT('',(2.281401162736,17.955601173548));
#637 = CARTESIAN_POINT('',(2.350679003546,17.831623294561));
#638 = CARTESIAN_POINT('',(2.421797693173,17.706451423002));
#639 = CARTESIAN_POINT('',(2.495287397598,17.583793764882));
#640 = CARTESIAN_POINT('',(2.620404662608,17.39513488508));
#641 = CARTESIAN_POINT('',(2.670411784474,17.324531315666));
#642 = CARTESIAN_POINT('',(2.721777866103,17.25821590544));
#643 = CARTESIAN_POINT('',(2.774540640914,17.197818454045));
#644 = CARTESIAN_POINT('',(2.828762017642,17.145046146857));
#645 = CARTESIAN_POINT('',(2.92593859552,17.069415843077));
#646 = CARTESIAN_POINT('',(2.968194489143,17.042356924126));
#647 = CARTESIAN_POINT('',(3.011074712665,17.02137953414));
#648 = CARTESIAN_POINT('',(3.054386068745,17.007142228708));
#649 = CARTESIAN_POINT('',(3.097951060709,17.));
#650 = CARTESIAN_POINT('',(3.14159265359,17.));
#651 = ( GEOMETRIC_REPRESENTATION_CONTEXT(2) 
PARAMETRIC_REPRESENTATION_CONTEXT() REPRESENTATION_CONTEXT('2D SPACE',''
  ) );
#652 = ORIENTED_EDGE('',*,*,#653,.F.);
#653 = EDGE_CURVE('',#141,#484,#654,.T.);
#654 = SEAM_CURVE('',#655,(#659,#666),.PCURVE_S1.);
#655 = LINE('',#656,#657);
#656 = CARTESIAN_POINT('',(-10.,15.,7.));
#657 = VECTOR('',#658,1.);
#658 = DIRECTION('',(1.,0.,1.110223024625E-16));
#659 = PCURVE('',#157,#660);
#660 = DEFINITIONAL_REPRESENTATION('',(#661),#665);
#661 = LINE('',#662,#663);
#662 = CARTESIAN_POINT('',(6.28318530718,-0.));
#663 = VECTOR('',#664,1.);
#664 = DIRECTION('',(0.,1.));
#665 = ( GEOMETRIC_REPRESENTATION_CONTEXT(2) 
PARAMETRIC_REPRESENTATION_CONTEXT() REPRESENTATION_CONTEXT('2D SPACE',''
  ) );
#666 = PCURVE('',#157,#667);
#667 = DEFINITIONAL_REPRESENTATION('',(#668),#672);
#668 = LINE('',#669,#670);
#669 = CARTESIAN_POINT('',(0.,-0.));
#670 = VECTOR('',#671,1.);
#671 = DIRECTION('',(0.,1.));
#672 = ( GEOMETRIC_REPRESENTATION_CONTEXT(2) 
PARAMETRIC_REPRESENTATION_CONTEXT() REPRESENTATION_CONTEXT('2D SPACE',''
  ) );
#673 = ORIENTED_EDGE('',*,*,#140,.T.);
#674 = ORIENTED_EDGE('',*,*,#653,.T.);
#675 = ORIENTED_EDGE('',*,*,#676,.T.);
#676 = EDGE_CURVE('',#484,#436,#677,.T.);
#677 = SURFACE_CURVE('',#678,(#731,#787),.PCURVE_S1.);
#678 = B_SPLINE_CURVE_WITH_KNOTS('',6,(#679,#680,#681,#682,#683,#684,
    #685,#686,#687,#688,#689,#690,#691,#692,#693,#694,#695,#696,#697,
    #698,#699,#700,#701,#702,#703,#704,#705,#706,#707,#708,#709,#710,
    #711,#712,#713,#714,#715,#716,#717,#718,#719,#720,#721,#722,#723,
    #724,#725,#726,#727,#728,#729,#730),.UNSPECIFIED.,.F.,.F.,(7,5,5,5,5
    ,5,5,5,5,5,7),(0.,0.1063169639,0.157817452366,0.295574656309,
    0.399180875381,0.499902762425,0.600335207107,0.703346567239,
    0.843995489364,0.933527957908,1.),.UNSPECIFIED.);
#679 = CARTESIAN_POINT('',(25.,15.,7.));
#680 = CARTESIAN_POINT('',(25.,14.649364991874,7.));
#681 = CARTESIAN_POINT('',(25.029507129373,14.301841220981,
    7.018442190557));
#682 = CARTESIAN_POINT('',(25.087537270826,13.962568947663,
    7.054709873281));
#683 = CARTESIAN_POINT('',(25.171552557336,13.63653036374,7.106725086824
    ));
#684 = CARTESIAN_POINT('',(25.277464914908,13.328308390622,7.17103420525
    ));
#685 = CARTESIAN_POINT('',(25.458414760788,12.903159828153,
    7.278359222195));
#686 = CARTESIAN_POINT('',(25.521518570916,12.768827815677,
    7.315437742293));
#687 = CARTESIAN_POINT('',(25.588321001809,12.638884783639,
    7.354263049618));
#688 = CARTESIAN_POINT('',(25.658497416498,12.513298094949,
    7.394544534045));
#689 = CARTESIAN_POINT('',(25.731753786666,12.392020459866,
    7.436010548023));
#690 = CARTESIAN_POINT('',(26.011309489365,11.961949995827,
    7.591821496914));
#691 = CARTESIAN_POINT('',(26.235190347938,11.678916092887,
    7.712048730801));
#692 = CARTESIAN_POINT('',(26.474983636215,11.424137222855,
    7.834566741937));
#693 = CARTESIAN_POINT('',(26.72795995309,11.195681795175,7.955904668363
    ));
#694 = CARTESIAN_POINT('',(26.992694753856,10.991922605745,8.07324434943
    ));
#695 = CARTESIAN_POINT('',(27.476259324645,10.676558717953,
    8.267014097192));
#696 = CARTESIAN_POINT('',(27.690178047179,10.554644539,8.346366302553)
  );
#697 = CARTESIAN_POINT('',(27.909734312547,10.44610805673,8.420530379682
    ));
#698 = CARTESIAN_POINT('',(28.134356571541,10.350915685971,
    8.488208975202));
#699 = CARTESIAN_POINT('',(28.363593831552,10.269106089548,
    8.548184650206));
#700 = CARTESIAN_POINT('',(28.824097242341,10.134490189669,
    8.649118709289));
#701 = CARTESIAN_POINT('',(29.055190746078,10.080921993915,
    8.690573415092));
#702 = CARTESIAN_POINT('',(29.289271121552,10.040540948176,
    8.722543228669));
#703 = CARTESIAN_POINT('',(29.525361071122,10.013530356071,
    8.744169057439));
#704 = CARTESIAN_POINT('',(29.762561916269,10.,8.755002001602));
#705 = CARTESIAN_POINT('',(30.236755762921,10.,8.755002001602));
#706 = CARTESIAN_POINT('',(30.473277397979,10.01345270531,8.744231227576
    ));
#707 = CARTESIAN_POINT('',(30.70869762043,10.04030879235,8.722729102915)
  );
#708 = CARTESIAN_POINT('',(30.942124512469,10.08045954922,8.690939536296
    ));
#709 = CARTESIAN_POINT('',(31.172588570242,10.133723264935,8.64971228706
    ));
#710 = CARTESIAN_POINT('',(31.63121303275,10.267384442697,8.549456831884
    ));
#711 = CARTESIAN_POINT('',(31.859225995863,10.34846196506,8.489984905196
    ));
#712 = CARTESIAN_POINT('',(32.082686174432,10.442772785611,
    8.422877561439));
#713 = CARTESIAN_POINT('',(32.301148313743,10.55027655634,8.34933079156)
  );
#714 = CARTESIAN_POINT('',(32.514049721246,10.671002702236,
    8.270619939122));
#715 = CARTESIAN_POINT('',(33.00284072614,10.988013049875,8.075395697767
    ));
#716 = CARTESIAN_POINT('',(33.273263151426,11.195749168322,
    7.955601173548));
#717 = CARTESIAN_POINT('',(33.531453489513,11.429210379359,
    7.831623294561));
#718 = CARTESIAN_POINT('',(33.775900074527,11.690138648618,
    7.706451423002));
#719 = CARTESIAN_POINT('',(34.003667943985,11.980602367786,
    7.583793764882));
#720 = CARTESIAN_POINT('',(34.34117758485,12.507333316579,7.39513488508)
  );
#721 = CARTESIAN_POINT('',(34.464109922651,12.725525871818,
    7.324531315666));
#722 = CARTESIAN_POINT('',(34.576944743966,12.957021108261,7.25821590544
    ));
#723 = CARTESIAN_POINT('',(34.677838858304,13.2016654227,7.197818454045)
  );
#724 = CARTESIAN_POINT('',(34.764812919356,13.459118198148,
    7.145046146857));
#725 = CARTESIAN_POINT('',(34.888342974685,13.929035752227,
    7.069415843077));
#726 = CARTESIAN_POINT('',(34.932109607875,14.135988201866,
    7.042356924126));
#727 = CARTESIAN_POINT('',(34.965792720395,14.348158412619,7.02137953414
    ));
#728 = CARTESIAN_POINT('',(34.988572440664,14.563967066561,
    7.007142228708));
#729 = CARTESIAN_POINT('',(35.,14.781792035598,7.));
#730 = CARTESIAN_POINT('',(35.,15.,7.));
#731 = PCURVE('',#157,#732);
#732 = DEFINITIONAL_REPRESENTATION('',(#733),#786);
#733 = B_SPLINE_CURVE_WITH_KNOTS('',6,(#734,#735,#736,#737,#738,#739,
    #740,#741,#742,#743,#744,#745,#746,#747,#748,#749,#750,#751,#752,
    #753,#754,#755,#756,#757,#758,#759,#760,#761,#762,#763,#764,#765,
    #766,#767,#768,#769,#770,#771,#772,#773,#774,#775,#776,#777,#778,
    #779,#780,#781,#782,#783,#784,#785),.UNSPECIFIED.,.F.,.F.,(7,5,5,5,5
    ,5,5,5,5,5,7),(0.,0.1063169639,0.157817452366,0.295574656309,
    0.399180875381,0.499902762425,0.600335207107,0.703346567239,
    0.843995489364,0.933527957908,1.),.UNSPECIFIED.);
#734 = CARTESIAN_POINT('',(6.28318530718,35.));
#735 = CARTESIAN_POINT('',(6.239355931164,35.));
#736 = CARTESIAN_POINT('',(6.195915389743,35.029507129373));
#737 = CARTESIAN_POINT('',(6.15335513993,35.087537270826));
#738 = CARTESIAN_POINT('',(6.112158211476,35.171552557336));
#739 = CARTESIAN_POINT('',(6.072834743762,35.277464914908));
#740 = CARTESIAN_POINT('',(6.018023995582,35.458414760788));
#741 = CARTESIAN_POINT('',(6.000608810165,35.521518570916));
#742 = CARTESIAN_POINT('',(5.98366181975,35.588321001809));
#743 = CARTESIAN_POINT('',(5.967180364237,35.658497416498));
#744 = CARTESIAN_POINT('',(5.951161677866,35.731753786666));
#745 = CARTESIAN_POINT('',(5.893983549421,36.011309489365));
#746 = CARTESIAN_POINT('',(5.855600934518,36.235190347938));
#747 = CARTESIAN_POINT('',(5.82031185954,36.474983636215));
#748 = CARTESIAN_POINT('',(5.788007562757,36.72795995309));
#749 = CARTESIAN_POINT('',(5.758628125743,36.992694753856));
#750 = CARTESIAN_POINT('',(5.712361051721,37.476259324645));
#751 = CARTESIAN_POINT('',(5.694184186066,37.690178047179));
#752 = CARTESIAN_POINT('',(5.677757480322,37.909734312547));
#753 = CARTESIAN_POINT('',(5.663160111199,38.134356571541));
#754 = CARTESIAN_POINT('',(5.65048095867,38.363593831552));
#755 = CARTESIAN_POINT('',(5.629449314066,38.824097242341));
#756 = CARTESIAN_POINT('',(5.620983417024,39.055190746078));
#757 = CARTESIAN_POINT('',(5.61454555026,39.289271121552));
#758 = CARTESIAN_POINT('',(5.610220357304,39.525361071122));
#759 = CARTESIAN_POINT('',(5.608053774243,39.762561916269));
#760 = CARTESIAN_POINT('',(5.608053774243,40.236755762921));
#761 = CARTESIAN_POINT('',(5.610207923396,40.473277397979));
#762 = CARTESIAN_POINT('',(5.614508374965,40.70869762043));
#763 = CARTESIAN_POINT('',(5.620909690494,40.942124512469));
#764 = CARTESIAN_POINT('',(5.629328103339,41.172588570242));
#765 = CARTESIAN_POINT('',(5.650213380276,41.63121303275));
#766 = CARTESIAN_POINT('',(5.662781519903,41.859225995863));
#767 = CARTESIAN_POINT('',(5.677247770208,42.082686174432));
#768 = CARTESIAN_POINT('',(5.69352450261,42.301148313743));
#769 = CARTESIAN_POINT('',(5.711533350447,42.514049721246));
#770 = CARTESIAN_POINT('',(5.758070980537,43.00284072614));
#771 = CARTESIAN_POINT('',(5.788033752907,43.273263151426));
#772 = CARTESIAN_POINT('',(5.821043547587,43.531453489513));
#773 = CARTESIAN_POINT('',(5.857165641286,43.775900074527));
#774 = CARTESIAN_POINT('',(5.896517197247,44.003667943985));
#775 = CARTESIAN_POINT('',(5.966454408523,44.34117758485));
#776 = CARTESIAN_POINT('',(5.995107099824,44.464109922651));
#777 = CARTESIAN_POINT('',(6.025180605925,44.576944743966));
#778 = CARTESIAN_POINT('',(6.056644006207,44.677838858304));
#779 = CARTESIAN_POINT('',(6.089464879823,44.764812919356));
#780 = CARTESIAN_POINT('',(6.148960474524,44.888342974685));
#781 = CARTESIAN_POINT('',(6.175038319478,44.932109607875));
#782 = CARTESIAN_POINT('',(6.201668601083,44.965792720395));
#783 = CARTESIAN_POINT('',(6.228681185513,44.988572440664));
#784 = CARTESIAN_POINT('',(6.255909311629,45.));
#785 = CARTESIAN_POINT('',(6.28318530718,45.));
#786 = ( GEOMETRIC_REPRESENTATION_CONTEXT(2) 
PARAMETRIC_REPRESENTATION_CONTEXT() REPRESENTATION_CONTEXT('2D SPACE',''
  ) );
#787 = PCURVE('',#393,#788);
#788 = DEFINITIONAL_REPRESENTATION('',(#789),#842);
#789 = B_SPLINE_CURVE_WITH_KNOTS('',6,(#790,#791,#792,#793,#794,#795,
    #796,#797,#798,#799,#800,#801,#802,#803,#804,#805,#806,#807,#808,
    #809,#810,#811,#812,#813,#814,#815,#816,#817,#818,#819,#820,#821,
    #822,#823,#824,#825,#826,#827,#828,#829,#830,#831,#832,#833,#834,
    #835,#836,#837,#838,#839,#840,#841),.UNSPECIFIED.,.F.,.F.,(7,5,5,5,5
    ,5,5,5,5,5,7),(0.,0.1063169639,0.157817452366,0.295574656309,
    0.399180875381,0.499902762425,0.600335207107,0.703346567239,
    0.843995489364,0.933527957908,1.),.UNSPECIFIED.);
#790 = CARTESIAN_POINT('',(3.14159265359,17.));
#791 = CARTESIAN_POINT('',(3.211719655215,17.));
#792 = CARTESIAN_POINT('',(3.281224377147,17.018442190557));
#793 = CARTESIAN_POINT('',(3.349699796531,17.054709873281));
#794 = CARTESIAN_POINT('',(3.416713986267,17.106725086824));
#795 = CARTESIAN_POINT('',(3.481730107997,17.17103420525));
#796 = CARTESIAN_POINT('',(3.574140961665,17.278359222195));
#797 = CARTESIAN_POINT('',(3.603804017239,17.315437742293));
#798 = CARTESIAN_POINT('',(3.632998408693,17.354263049618));
#799 = CARTESIAN_POINT('',(3.661746099789,17.394544534045));
#800 = CARTESIAN_POINT('',(3.690067740803,17.436010548023));
#801 = CARTESIAN_POINT('',(3.792656628106,17.591821496914));
#802 = CARTESIAN_POINT('',(3.864521011547,17.712048730801));
#803 = CARTESIAN_POINT('',(3.934130177672,17.834566741937));
#804 = CARTESIAN_POINT('',(4.00198311042,17.955904668363));
#805 = CARTESIAN_POINT('',(4.068593603486,18.07324434943));
#806 = CARTESIAN_POINT('',(4.184055991447,18.267014097192));
#807 = CARTESIAN_POINT('',(4.233211696736,18.346366302553));
#808 = CARTESIAN_POINT('',(4.282069352635,18.420530379682));
#809 = CARTESIAN_POINT('',(4.330738306385,18.488208975202));
#810 = CARTESIAN_POINT('',(4.379334936876,18.548184650206));
#811 = CARTESIAN_POINT('',(4.475290099707,18.649118709289));
#812 = CARTESIAN_POINT('',(4.52265823345,18.690573415092));
#813 = CARTESIAN_POINT('',(4.570050352581,18.722543228669));
#814 = CARTESIAN_POINT('',(4.617461219327,18.744169057439));
#815 = CARTESIAN_POINT('',(4.664901363638,18.755002001602));
#816 = CARTESIAN_POINT('',(4.759740132969,18.755002001602));
#817 = CARTESIAN_POINT('',(4.807044435701,18.744231227576));
#818 = CARTESIAN_POINT('',(4.854319697918,18.722729102915));
#819 = CARTESIAN_POINT('',(4.901576190858,18.690939536296));
#820 = CARTESIAN_POINT('',(4.948808596879,18.64971228706));
#821 = CARTESIAN_POINT('',(5.044349521733,18.549456831884));
#822 = CARTESIAN_POINT('',(5.092667775179,18.489984905196));
#823 = CARTESIAN_POINT('',(5.141056089059,18.422877561439));
#824 = CARTESIAN_POINT('',(5.189628324871,18.34933079156));
#825 = CARTESIAN_POINT('',(5.238491344094,18.270619939122));
#826 = CARTESIAN_POINT('',(5.355009532712,18.075395697767));
#827 = CARTESIAN_POINT('',(5.422993816326,17.955601173548));
#828 = CARTESIAN_POINT('',(5.492271657136,17.831623294561));
#829 = CARTESIAN_POINT('',(5.563390346763,17.706451423002));
#830 = CARTESIAN_POINT('',(5.636880051187,17.583793764882));
#831 = CARTESIAN_POINT('',(5.761997316198,17.39513488508));
#832 = CARTESIAN_POINT('',(5.812004438064,17.324531315666));
#833 = CARTESIAN_POINT('',(5.863370519693,17.25821590544));
#834 = CARTESIAN_POINT('',(5.916133294503,17.197818454045));
#835 = CARTESIAN_POINT('',(5.970354671232,17.145046146857));
#836 = CARTESIAN_POINT('',(6.06753124911,17.069415843077));
#837 = CARTESIAN_POINT('',(6.109787142733,17.042356924126));
#838 = CARTESIAN_POINT('',(6.152667366255,17.02137953414));
#839 = CARTESIAN_POINT('',(6.195978722334,17.007142228708));
#840 = CARTESIAN_POINT('',(6.239543714299,17.));
#841 = CARTESIAN_POINT('',(6.28318530718,17.));
#842 = ( GEOMETRIC_REPRESENTATION_CONTEXT(2) 
PARAMETRIC_REPRESENTATION_CONTEXT() REPRESENTATION_CONTEXT('2D SPACE',''
  ) );
#843 = FACE_BOUND('',#844,.F.);
#844 = EDGE_LOOP('',(#845));
#845 = ORIENTED_EDGE('',*,*,#846,.F.);
#846 = EDGE_CURVE('',#847,#847,#849,.T.);
#847 = VERTEX_POINT('',#848);
#848 = CARTESIAN_POINT('',(35.,15.,23.));
#849 = SURFACE_CURVE('',#850,(#953,#1059),.PCURVE_S1.);
#850 = B_SPLINE_CURVE_WITH_KNOTS('',6,(#851,#852,#853,#854,#855,#856,
    #857,#858,#859,#860,#861,#862,#863,#864,#865,#866,#867,#868,#869,
    #870,#871,#872,#873,#874,#875,#876,#877,#878,#879,#880,#881,#882,
    #883,#884,#885,#886,#887,#888,#889,#890,#891,#892,#893,#894,#895,
    #896,#897,#898,#899,#900,#901,#902,#903,#904,#905,#906,#907,#908,
    #909,#910,#911,#912,#913,#914,#915,#916,#917,#918,#919,#920,#921,
    #922,#923,#924,#925,#926,#927,#928,#929,#930,#931,#932,#933,#934,
    #935,#936,#937,#938,#939,#940,#941,#942,#943,#944,#945,#946,#947,
    #948,#949,#950,#951,#952),.UNSPECIFIED.,.T.,.F.,(7,5,5,5,5,5,5,5,5,5
    ,5,5,5,5,5,5,5,5,5,5,7),(0.,5.325722522973E-02,7.905530121757E-02,
    0.148061846993,0.19996118216,0.250415672451,0.300725172738,
    0.352326525951,0.422781616539,0.467631005261,0.523000838133,
    0.554114657565,0.579809800037,0.648541011856,0.7002332703,
    0.750486448755,0.800595215711,0.85199068114,0.922164658122,
    0.966835099188,1.),.UNSPECIFIED.);
#851 = CARTESIAN_POINT('',(35.,15.,23.));
#852 = CARTESIAN_POINT('',(35.,15.350635008134,23.));
#853 = CARTESIAN_POINT('',(34.970492870626,15.698158779017,
    22.981557809443));
#854 = CARTESIAN_POINT('',(34.912462729176,16.037431052329,
    22.94529012672));
#855 = CARTESIAN_POINT('',(34.828447442666,16.363469636258,
    22.893274913178));
#856 = CARTESIAN_POINT('',(34.722535085089,16.671691609385,
    22.828965794748));
#857 = CARTESIAN_POINT('',(34.541585239218,17.096840171832,
    22.721640777809));
#858 = CARTESIAN_POINT('',(34.478481429083,17.231172184327,
    22.684562257707));
#859 = CARTESIAN_POINT('',(34.411678998184,17.361115216374,
    22.645736950378));
#860 = CARTESIAN_POINT('',(34.341502583499,17.486701905053,
    22.605455465954));
#861 = CARTESIAN_POINT('',(34.268246213342,17.607979540122,
    22.563989451981));
#862 = CARTESIAN_POINT('',(33.988690510634,18.038050004173,
    22.408178503086));
#863 = CARTESIAN_POINT('',(33.764809652062,18.321083907113,
    22.287951269199));
#864 = CARTESIAN_POINT('',(33.525016363785,18.575862777145,
    22.165433258063));
#865 = CARTESIAN_POINT('',(33.27204004691,18.804318204825,
    22.044095331638));
#866 = CARTESIAN_POINT('',(33.007305246144,19.008077394255,
    21.92675565057));
#867 = CARTESIAN_POINT('',(32.523740675355,19.323441282047,
    21.732985902808));
#868 = CARTESIAN_POINT('',(32.309821952821,19.445355461001,
    21.653633697447));
#869 = CARTESIAN_POINT('',(32.090265687453,19.553891943269,
    21.579469620319));
#870 = CARTESIAN_POINT('',(31.865643428458,19.64908431403,
    21.511791024798));
#871 = CARTESIAN_POINT('',(31.636406168448,19.730893910452,
    21.451815349794));
#872 = CARTESIAN_POINT('',(31.175902757659,19.865509810331,
    21.350881290711));
#873 = CARTESIAN_POINT('',(30.944809253921,19.919078006085,
    21.309426584908));
#874 = CARTESIAN_POINT('',(30.710728878449,19.959459051824,
    21.277456771331));
#875 = CARTESIAN_POINT('',(30.474638928877,19.986469643929,
    21.255830942561));
#876 = CARTESIAN_POINT('',(30.237438083732,20.,21.244997998398));
#877 = CARTESIAN_POINT('',(29.763244237079,20.,21.244997998398));
#878 = CARTESIAN_POINT('',(29.526722602022,19.98654729469,
    21.255768772423));
#879 = CARTESIAN_POINT('',(29.291302379569,19.95969120765,
    21.277270897085));
#880 = CARTESIAN_POINT('',(29.057875487532,19.91954045078,
    21.309060463704));
#881 = CARTESIAN_POINT('',(28.827411429758,19.866276735065,
    21.350287712939));
#882 = CARTESIAN_POINT('',(28.36878696725,19.732615557303,
    21.450543168116));
#883 = CARTESIAN_POINT('',(28.140774004137,19.651538034941,
    21.510015094804));
#884 = CARTESIAN_POINT('',(27.917313825567,19.557227214388,
    21.577122438561));
#885 = CARTESIAN_POINT('',(27.698851686257,19.44972344366,
    21.650669208439));
#886 = CARTESIAN_POINT('',(27.485950278754,19.328997297764,
    21.729380060877));
#887 = CARTESIAN_POINT('',(26.99715927386,19.011986950125,
    21.924604302233));
#888 = CARTESIAN_POINT('',(26.726736848574,18.804250831678,
    22.044398826452));
#889 = CARTESIAN_POINT('',(26.468546510487,18.570789620642,
    22.168376705439));
#890 = CARTESIAN_POINT('',(26.224099925473,18.309861351382,
    22.293548576998));
#891 = CARTESIAN_POINT('',(25.996332056015,18.019397632214,
    22.416206235118));
#892 = CARTESIAN_POINT('',(25.65882241515,17.492666683421,22.60486511492
    ));
#893 = CARTESIAN_POINT('',(25.535890077349,17.274474128182,
    22.675468684334));
#894 = CARTESIAN_POINT('',(25.423055256034,17.042978891739,
    22.74178409456));
#895 = CARTESIAN_POINT('',(25.322161141696,16.7983345773,22.802181545955
    ));
#896 = CARTESIAN_POINT('',(25.235187080645,16.540881801852,
    22.854953853143));
#897 = CARTESIAN_POINT('',(25.07676688828,15.938239561355,22.95194536862
    ));
#898 = CARTESIAN_POINT('',(25.013436551595,15.585448772244,
    22.991446536518));
#899 = CARTESIAN_POINT('',(24.980568790248,15.220753675857,
    23.012248068217));
#900 = CARTESIAN_POINT('',(24.980788095395,14.85265275498,
    23.012029830902));
#901 = CARTESIAN_POINT('',(25.013470889795,14.489768350718,
    22.991444169376));
#902 = CARTESIAN_POINT('',(25.108721087858,13.94400932402,
    22.932457718925));
#903 = CARTESIAN_POINT('',(25.151876596028,13.752194289527,
    22.905841779883));
#904 = CARTESIAN_POINT('',(25.203276146436,13.565532196983,
    22.874336729364));
#905 = CARTESIAN_POINT('',(25.262204262406,13.384593310223,
    22.838530039385));
#906 = CARTESIAN_POINT('',(25.327863713343,13.209894492005,
    22.799073247068));
#907 = CARTESIAN_POINT('',(25.458414760782,12.903159828168,
    22.721640777809));
#908 = CARTESIAN_POINT('',(25.521518570917,12.768827815673,
    22.684562257707));
#909 = CARTESIAN_POINT('',(25.588321001816,12.638884783626,
    22.645736950378));
#910 = CARTESIAN_POINT('',(25.658497416501,12.513298094947,
    22.605455465954));
#911 = CARTESIAN_POINT('',(25.731753786658,12.392020459878,
    22.563989451981));
#912 = CARTESIAN_POINT('',(26.011309489365,11.961949995827,
    22.408178503086));
#913 = CARTESIAN_POINT('',(26.235190347939,11.678916092886,
    22.287951269199));
#914 = CARTESIAN_POINT('',(26.474983636214,11.424137222856,
    22.165433258063));
#915 = CARTESIAN_POINT('',(26.72795995309,11.195681795174,
    22.044095331637));
#916 = CARTESIAN_POINT('',(26.992694753856,10.991922605745,
    21.92675565057));
#917 = CARTESIAN_POINT('',(27.476259324645,10.676558717953,
    21.732985902808));
#918 = CARTESIAN_POINT('',(27.690178047178,10.554644539,21.653633697447)
  );
#919 = CARTESIAN_POINT('',(27.909734312548,10.44610805673,
    21.579469620318));
#920 = CARTESIAN_POINT('',(28.134356571541,10.350915685971,
    21.511791024798));
#921 = CARTESIAN_POINT('',(28.363593831552,10.269106089548,
    21.451815349794));
#922 = CARTESIAN_POINT('',(28.824097242341,10.134490189669,
    21.350881290711));
#923 = CARTESIAN_POINT('',(29.055190746079,10.080921993915,
    21.309426584908));
#924 = CARTESIAN_POINT('',(29.289271121551,10.040540948176,
    21.277456771331));
#925 = CARTESIAN_POINT('',(29.525361071123,10.013530356071,
    21.255830942561));
#926 = CARTESIAN_POINT('',(29.762561916268,10.,21.244997998398));
#927 = CARTESIAN_POINT('',(30.236755762921,10.,21.244997998398));
#928 = CARTESIAN_POINT('',(30.473277397978,10.01345270531,
    21.255768772423));
#929 = CARTESIAN_POINT('',(30.708697620431,10.04030879235,
    21.277270897085));
#930 = CARTESIAN_POINT('',(30.942124512469,10.08045954922,
    21.309060463704));
#931 = CARTESIAN_POINT('',(31.172588570242,10.133723264935,
    21.350287712939));
#932 = CARTESIAN_POINT('',(31.63121303275,10.267384442696,
    21.450543168116));
#933 = CARTESIAN_POINT('',(31.859225995863,10.34846196506,
    21.510015094804));
#934 = CARTESIAN_POINT('',(32.082686174433,10.442772785612,
    21.577122438561));
#935 = CARTESIAN_POINT('',(32.301148313743,10.550276556341,
    21.65066920844));
#936 = CARTESIAN_POINT('',(32.514049721246,10.671002702236,
    21.729380060877));
#937 = CARTESIAN_POINT('',(33.002840726139,10.988013049875,
    21.924604302233));
#938 = CARTESIAN_POINT('',(33.273263151427,11.195749168322,
    22.044398826452));
#939 = CARTESIAN_POINT('',(33.531453489511,11.429210379358,
    22.168376705439));
#940 = CARTESIAN_POINT('',(33.775900074528,11.690138648619,
    22.293548576999));
#941 = CARTESIAN_POINT('',(34.003667943985,11.980602367785,
    22.416206235118));
#942 = CARTESIAN_POINT('',(34.34117758485,12.507333316579,22.60486511492
    ));
#943 = CARTESIAN_POINT('',(34.464109922651,12.725525871818,
    22.675468684334));
#944 = CARTESIAN_POINT('',(34.576944743967,12.957021108261,
    22.74178409456));
#945 = CARTESIAN_POINT('',(34.677838858304,13.2016654227,22.802181545955
    ));
#946 = CARTESIAN_POINT('',(34.764812919355,13.459118198148,
    22.854953853143));
#947 = CARTESIAN_POINT('',(34.888342974685,13.929035752227,
    22.930584156923));
#948 = CARTESIAN_POINT('',(34.932109607875,14.135988201866,
    22.957643075875));
#949 = CARTESIAN_POINT('',(34.965792720395,14.348158412618,
    22.97862046586));
#950 = CARTESIAN_POINT('',(34.988572440664,14.563967066561,
    22.992857771292));
#951 = CARTESIAN_POINT('',(35.,14.781792035598,23.));
#952 = CARTESIAN_POINT('',(35.,15.,23.));
#953 = PCURVE('',#157,#954);
#954 = DEFINITIONAL_REPRESENTATION('',(#955),#1058);
#955 = B_SPLINE_CURVE_WITH_KNOTS('',6,(#956,#957,#958,#959,#960,#961,
    #962,#963,#964,#965,#966,#967,#968,#969,#970,#971,#972,#973,#974,
    #975,#976,#977,#978,#979,#980,#981,#982,#983,#984,#985,#986,#987,
    #988,#989,#990,#991,#992,#993,#994,#995,#996,#997,#998,#999,#1000,
    #1001,#1002,#1003,#1004,#1005,#1006,#1007,#1008,#1009,#1010,#1011,
    #1012,#1013,#1014,#1015,#1016,#1017,#1018,#1019,#1020,#1021,#1022,
    #1023,#1024,#1025,#1026,#1027,#1028,#1029,#1030,#1031,#1032,#1033,
    #1034,#1035,#1036,#1037,#1038,#1039,#1040,#1041,#1042,#1043,#1044,
    #1045,#1046,#1047,#1048,#1049,#1050,#1051,#1052,#1053,#1054,#1055,
    #1056,#1057),.UNSPECIFIED.,.T.,.F.,(7,5,5,5,5,5,5,5,5,5,5,5,5,5,5,5,
    5,5,5,5,7),(0.,5.325722522973E-02,7.905530121757E-02,0.148061846993,
    0.19996118216,0.250415672451,0.300725172738,0.352326525951,
    0.422781616539,0.467631005261,0.523000838133,0.554114657565,
    0.579809800037,0.648541011856,0.7002332703,0.750486448755,
    0.800595215711,0.85199068114,0.922164658122,0.966835099188,1.),
  .UNSPECIFIED.);
#956 = CARTESIAN_POINT('',(3.14159265359,45.));
#957 = CARTESIAN_POINT('',(3.097763277573,45.));
#958 = CARTESIAN_POINT('',(3.054322736154,44.970492870626));
#959 = CARTESIAN_POINT('',(3.011762486341,44.912462729176));
#960 = CARTESIAN_POINT('',(2.970565557886,44.828447442666));
#961 = CARTESIAN_POINT('',(2.931242090172,44.722535085089));
#962 = CARTESIAN_POINT('',(2.876431341994,44.541585239218));
#963 = CARTESIAN_POINT('',(2.859016156575,44.478481429083));
#964 = CARTESIAN_POINT('',(2.842069166158,44.411678998184));
#965 = CARTESIAN_POINT('',(2.825587710647,44.341502583499));
#966 = CARTESIAN_POINT('',(2.809569024278,44.268246213342));
#967 = CARTESIAN_POINT('',(2.752390895832,43.988690510634));
#968 = CARTESIAN_POINT('',(2.714008280928,43.764809652062));
#969 = CARTESIAN_POINT('',(2.67871920595,43.525016363785));
#970 = CARTESIAN_POINT('',(2.646414909167,43.27204004691));
#971 = CARTESIAN_POINT('',(2.617035472154,43.007305246144));
#972 = CARTESIAN_POINT('',(2.570768398131,42.523740675355));
#973 = CARTESIAN_POINT('',(2.552591532476,42.309821952821));
#974 = CARTESIAN_POINT('',(2.536164826732,42.090265687453));
#975 = CARTESIAN_POINT('',(2.521567457609,41.865643428458));
#976 = CARTESIAN_POINT('',(2.50888830508,41.636406168448));
#977 = CARTESIAN_POINT('',(2.487856660476,41.175902757659));
#978 = CARTESIAN_POINT('',(2.479390763434,40.944809253921));
#979 = CARTESIAN_POINT('',(2.47295289667,40.710728878449));
#980 = CARTESIAN_POINT('',(2.468627703714,40.474638928877));
#981 = CARTESIAN_POINT('',(2.466461120653,40.237438083732));
#982 = CARTESIAN_POINT('',(2.466461120653,39.763244237079));
#983 = CARTESIAN_POINT('',(2.468615269806,39.526722602022));
#984 = CARTESIAN_POINT('',(2.472915721375,39.291302379569));
#985 = CARTESIAN_POINT('',(2.479317036904,39.057875487532));
#986 = CARTESIAN_POINT('',(2.48773544975,38.827411429758));
#987 = CARTESIAN_POINT('',(2.508620726686,38.36878696725));
#988 = CARTESIAN_POINT('',(2.521188866313,38.140774004137));
#989 = CARTESIAN_POINT('',(2.535655116618,37.917313825567));
#990 = CARTESIAN_POINT('',(2.551931849021,37.698851686257));
#991 = CARTESIAN_POINT('',(2.569940696857,37.485950278754));
#992 = CARTESIAN_POINT('',(2.616478326947,36.99715927386));
#993 = CARTESIAN_POINT('',(2.646441099317,36.726736848574));
#994 = CARTESIAN_POINT('',(2.679450893998,36.468546510487));
#995 = CARTESIAN_POINT('',(2.715572987696,36.224099925473));
#996 = CARTESIAN_POINT('',(2.754924543658,35.996332056015));
#997 = CARTESIAN_POINT('',(2.824861754933,35.65882241515));
#998 = CARTESIAN_POINT('',(2.853514446234,35.535890077349));
#999 = CARTESIAN_POINT('',(2.883587952335,35.423055256034));
#1000 = CARTESIAN_POINT('',(2.915051352617,35.322161141696));
#1001 = CARTESIAN_POINT('',(2.947872226233,35.235187080645));
#1002 = CARTESIAN_POINT('',(3.024171905142,35.07676688828));
#1003 = CARTESIAN_POINT('',(3.068495288519,35.013436551595));
#1004 = CARTESIAN_POINT('',(3.114049868478,34.980568790248));
#1005 = CARTESIAN_POINT('',(3.159950472825,34.980788095395));
#1006 = CARTESIAN_POINT('',(3.205325118684,35.013470889795));
#1007 = CARTESIAN_POINT('',(3.273942299085,35.108721087858));
#1008 = CARTESIAN_POINT('',(3.298137832357,35.151876596028));
#1009 = CARTESIAN_POINT('',(3.321785806531,35.203276146436));
#1010 = CARTESIAN_POINT('',(3.344828962488,35.262204262406));
#1011 = CARTESIAN_POINT('',(3.367209302679,35.327863713343));
#1012 = CARTESIAN_POINT('',(3.406753965186,35.458414760782));
#1013 = CARTESIAN_POINT('',(3.424169150605,35.521518570917));
#1014 = CARTESIAN_POINT('',(3.441116141022,35.588321001816));
#1015 = CARTESIAN_POINT('',(3.457597596533,35.658497416501));
#1016 = CARTESIAN_POINT('',(3.473616282902,35.731753786658));
#1017 = CARTESIAN_POINT('',(3.530794411348,36.011309489365));
#1018 = CARTESIAN_POINT('',(3.569177026252,36.235190347939));
#1019 = CARTESIAN_POINT('',(3.604466101229,36.474983636214));
#1020 = CARTESIAN_POINT('',(3.636770398012,36.72795995309));
#1021 = CARTESIAN_POINT('',(3.666149835026,36.992694753856));
#1022 = CARTESIAN_POINT('',(3.712416909048,37.476259324645));
#1023 = CARTESIAN_POINT('',(3.730593774703,37.690178047178));
#1024 = CARTESIAN_POINT('',(3.747020480448,37.909734312548));
#1025 = CARTESIAN_POINT('',(3.761617849571,38.134356571541));
#1026 = CARTESIAN_POINT('',(3.7742970021,38.363593831552));
#1027 = CARTESIAN_POINT('',(3.795328646704,38.824097242341));
#1028 = CARTESIAN_POINT('',(3.803794543746,39.055190746079));
#1029 = CARTESIAN_POINT('',(3.810232410509,39.289271121551));
#1030 = CARTESIAN_POINT('',(3.814557603465,39.525361071123));
#1031 = CARTESIAN_POINT('',(3.816724186527,39.762561916268));
#1032 = CARTESIAN_POINT('',(3.816724186527,40.236755762921));
#1033 = CARTESIAN_POINT('',(3.814570037373,40.473277397978));
#1034 = CARTESIAN_POINT('',(3.810269585804,40.708697620431));
#1035 = CARTESIAN_POINT('',(3.803868270276,40.942124512469));
#1036 = CARTESIAN_POINT('',(3.79544985743,41.172588570242));
#1037 = CARTESIAN_POINT('',(3.774564580494,41.63121303275));
#1038 = CARTESIAN_POINT('',(3.761996440867,41.859225995863));
#1039 = CARTESIAN_POINT('',(3.747530190561,42.082686174433));
#1040 = CARTESIAN_POINT('',(3.731253458159,42.301148313743));
#1041 = CARTESIAN_POINT('',(3.713244610323,42.514049721246));
#1042 = CARTESIAN_POINT('',(3.666706980233,43.002840726139));
#1043 = CARTESIAN_POINT('',(3.636744207863,43.273263151427));
#1044 = CARTESIAN_POINT('',(3.603734413182,43.531453489511));
#1045 = CARTESIAN_POINT('',(3.567612319484,43.775900074528));
#1046 = CARTESIAN_POINT('',(3.528260763522,44.003667943985));
#1047 = CARTESIAN_POINT('',(3.458323552246,44.34117758485));
#1048 = CARTESIAN_POINT('',(3.429670860945,44.464109922651));
#1049 = CARTESIAN_POINT('',(3.399597354844,44.576944743967));
#1050 = CARTESIAN_POINT('',(3.368133954562,44.677838858304));
#1051 = CARTESIAN_POINT('',(3.335313080946,44.764812919355));
#1052 = CARTESIAN_POINT('',(3.275817486246,44.888342974685));
#1053 = CARTESIAN_POINT('',(3.249739641291,44.932109607875));
#1054 = CARTESIAN_POINT('',(3.223109359686,44.965792720395));
#1055 = CARTESIAN_POINT('',(3.196096775256,44.988572440664));
#1056 = CARTESIAN_POINT('',(3.16886864914,45.));
#1057 = CARTESIAN_POINT('',(3.14159265359,45.));
#1058 = ( GEOMETRIC_REPRESENTATION_CONTEXT(2) 
PARAMETRIC_REPRESENTATION_CONTEXT() REPRESENTATION_CONTEXT('2D SPACE',''
  ) );
#1059 = PCURVE('',#313,#1060);
#1060 = DEFINITIONAL_REPRESENTATION('',(#1061),#1164);
#1061 = B_SPLINE_CURVE_WITH_KNOTS('',6,(#1062,#1063,#1064,#1065,#1066,
    #1067,#1068,#1069,#1070,#1071,#1072,#1073,#1074,#1075,#1076,#1077,
    #1078,#1079,#1080,#1081,#1082,#1083,#1084,#1085,#1086,#1087,#1088,
    #1089,#1090,#1091,#1092,#1093,#1094,#1095,#1096,#1097,#1098,#1099,
    #1100,#1101,#1102,#1103,#1104,#1105,#1106,#1107,#1108,#1109,#1110,
    #1111,#1112,#1113,#1114,#1115,#1116,#1117,#1118,#1119,#1120,#1121,
    #1122,#1123,#1124,#1125,#1126,#1127,#1128,#1129,#1130,#1131,#1132,
    #1133,#1134,#1135,#1136,#1137,#1138,#1139,#1140,#1141,#1142,#1143,
    #1144,#1145,#1146,#1147,#1148,#1149,#1150,#1151,#1152,#1153,#1154,
    #1155,#1156,#1157,#1158,#1159,#1160,#1161,#1162,#1163),
  .UNSPECIFIED.,.F.,.F.,(7,5,5,5,5,5,5,5,5,5,5,5,5,5,5,5,5,5,5,5,7),(0.,
    5.325722522973E-02,7.905530121757E-02,0.148061846993,0.19996118216,
    0.250415672451,0.300725172738,0.352326525951,0.422781616539,
    0.467631005261,0.523000838133,0.554114657565,0.579809800037,
    0.648541011856,0.7002332703,0.750486448755,0.800595215711,
    0.85199068114,0.922164658122,0.966835099188,1.),.UNSPECIFIED.);
#1062 = CARTESIAN_POINT('',(0.,33.));
#1063 = CARTESIAN_POINT('',(7.012700162679E-02,33.));
#1064 = CARTESIAN_POINT('',(0.139631723557,32.981557809443));
#1065 = CARTESIAN_POINT('',(0.20810714294,32.94529012672));
#1066 = CARTESIAN_POINT('',(0.275121332677,32.893274913178));
#1067 = CARTESIAN_POINT('',(0.340137454408,32.828965794748));
#1068 = CARTESIAN_POINT('',(0.432548308072,32.721640777809));
#1069 = CARTESIAN_POINT('',(0.46221136365,32.684562257707));
#1070 = CARTESIAN_POINT('',(0.491405755106,32.645736950378));
#1071 = CARTESIAN_POINT('',(0.5201534462,32.605455465954));
#1072 = CARTESIAN_POINT('',(0.54847508721,32.563989451981));
#1073 = CARTESIAN_POINT('',(0.651063974516,32.408178503086));
#1074 = CARTESIAN_POINT('',(0.722928357958,32.287951269199));
#1075 = CARTESIAN_POINT('',(0.792537524082,32.165433258063));
#1076 = CARTESIAN_POINT('',(0.86039045683,32.044095331638));
#1077 = CARTESIAN_POINT('',(0.927000949896,31.92675565057));
#1078 = CARTESIAN_POINT('',(1.042463337857,31.732985902808));
#1079 = CARTESIAN_POINT('',(1.091619043146,31.653633697447));
#1080 = CARTESIAN_POINT('',(1.140476699045,31.579469620319));
#1081 = CARTESIAN_POINT('',(1.189145652795,31.511791024798));
#1082 = CARTESIAN_POINT('',(1.237742283286,31.451815349794));
#1083 = CARTESIAN_POINT('',(1.333697446117,31.350881290711));
#1084 = CARTESIAN_POINT('',(1.38106557986,31.309426584908));
#1085 = CARTESIAN_POINT('',(1.428457698991,31.277456771331));
#1086 = CARTESIAN_POINT('',(1.475868565738,31.255830942561));
#1087 = CARTESIAN_POINT('',(1.523308710049,31.244997998398));
#1088 = CARTESIAN_POINT('',(1.618147479379,31.244997998398));
#1089 = CARTESIAN_POINT('',(1.665451782111,31.255768772423));
#1090 = CARTESIAN_POINT('',(1.712727044328,31.277270897085));
#1091 = CARTESIAN_POINT('',(1.759983537268,31.309060463704));
#1092 = CARTESIAN_POINT('',(1.807215943289,31.350287712939));
#1093 = CARTESIAN_POINT('',(1.902756868143,31.450543168116));
#1094 = CARTESIAN_POINT('',(1.951075121589,31.510015094804));
#1095 = CARTESIAN_POINT('',(1.999463435469,31.577122438561));
#1096 = CARTESIAN_POINT('',(2.048035671281,31.650669208439));
#1097 = CARTESIAN_POINT('',(2.096898690504,31.729380060877));
#1098 = CARTESIAN_POINT('',(2.213416879123,31.924604302233));
#1099 = CARTESIAN_POINT('',(2.281401162736,32.044398826452));
#1100 = CARTESIAN_POINT('',(2.350679003546,32.168376705439));
#1101 = CARTESIAN_POINT('',(2.421797693173,32.293548576998));
#1102 = CARTESIAN_POINT('',(2.495287397598,32.416206235118));
#1103 = CARTESIAN_POINT('',(2.620404662608,32.60486511492));
#1104 = CARTESIAN_POINT('',(2.670411784474,32.675468684334));
#1105 = CARTESIAN_POINT('',(2.721777866103,32.74178409456));
#1106 = CARTESIAN_POINT('',(2.774540640914,32.802181545955));
#1107 = CARTESIAN_POINT('',(2.828762017642,32.854953853143));
#1108 = CARTESIAN_POINT('',(2.953385390632,32.95194536862));
#1109 = CARTESIAN_POINT('',(3.024845230849,32.991446536518));
#1110 = CARTESIAN_POINT('',(3.097646755685,33.012248068217));
#1111 = CARTESIAN_POINT('',(3.170821246035,33.012029830902));
#1112 = CARTESIAN_POINT('',(3.243441148092,32.991444169376));
#1113 = CARTESIAN_POINT('',(3.354242865669,32.932457718925));
#1114 = CARTESIAN_POINT('',(3.393518586124,32.905841779883));
#1115 = CARTESIAN_POINT('',(3.43217645793,32.874336729364));
#1116 = CARTESIAN_POINT('',(3.47017699957,32.838530039385));
#1117 = CARTESIAN_POINT('',(3.507468709566,32.799073247068));
#1118 = CARTESIAN_POINT('',(3.574140961662,32.721640777809));
#1119 = CARTESIAN_POINT('',(3.60380401724,32.684562257707));
#1120 = CARTESIAN_POINT('',(3.632998408696,32.645736950378));
#1121 = CARTESIAN_POINT('',(3.66174609979,32.605455465954));
#1122 = CARTESIAN_POINT('',(3.6900677408,32.563989451981));
#1123 = CARTESIAN_POINT('',(3.792656628106,32.408178503086));
#1124 = CARTESIAN_POINT('',(3.864521011547,32.287951269199));
#1125 = CARTESIAN_POINT('',(3.934130177672,32.165433258063));
#1126 = CARTESIAN_POINT('',(4.00198311042,32.044095331637));
#1127 = CARTESIAN_POINT('',(4.068593603486,31.92675565057));
#1128 = CARTESIAN_POINT('',(4.184055991447,31.732985902808));
#1129 = CARTESIAN_POINT('',(4.233211696736,31.653633697447));
#1130 = CARTESIAN_POINT('',(4.282069352635,31.579469620318));
#1131 = CARTESIAN_POINT('',(4.330738306385,31.511791024798));
#1132 = CARTESIAN_POINT('',(4.379334936876,31.451815349794));
#1133 = CARTESIAN_POINT('',(4.475290099707,31.350881290711));
#1134 = CARTESIAN_POINT('',(4.52265823345,31.309426584908));
#1135 = CARTESIAN_POINT('',(4.570050352581,31.277456771331));
#1136 = CARTESIAN_POINT('',(4.617461219327,31.255830942561));
#1137 = CARTESIAN_POINT('',(4.664901363638,31.244997998398));
#1138 = CARTESIAN_POINT('',(4.759740132969,31.244997998398));
#1139 = CARTESIAN_POINT('',(4.807044435701,31.255768772423));
#1140 = CARTESIAN_POINT('',(4.854319697918,31.277270897085));
#1141 = CARTESIAN_POINT('',(4.901576190858,31.309060463704));
#1142 = CARTESIAN_POINT('',(4.948808596878,31.350287712939));
#1143 = CARTESIAN_POINT('',(5.044349521733,31.450543168116));
#1144 = CARTESIAN_POINT('',(5.092667775179,31.510015094804));
#1145 = CARTESIAN_POINT('',(5.141056089059,31.577122438561));
#1146 = CARTESIAN_POINT('',(5.189628324871,31.65066920844));
#1147 = CARTESIAN_POINT('',(5.238491344094,31.729380060877));
#1148 = CARTESIAN_POINT('',(5.355009532712,31.924604302233));
#1149 = CARTESIAN_POINT('',(5.422993816326,32.044398826452));
#1150 = CARTESIAN_POINT('',(5.492271657136,32.168376705439));
#1151 = CARTESIAN_POINT('',(5.563390346763,32.293548576999));
#1152 = CARTESIAN_POINT('',(5.636880051187,32.416206235118));
#1153 = CARTESIAN_POINT('',(5.761997316198,32.60486511492));
#1154 = CARTESIAN_POINT('',(5.812004438064,32.675468684334));
#1155 = CARTESIAN_POINT('',(5.863370519693,32.74178409456));
#1156 = CARTESIAN_POINT('',(5.916133294503,32.802181545955));
#1157 = CARTESIAN_POINT('',(5.970354671232,32.854953853143));
#1158 = CARTESIAN_POINT('',(6.06753124911,32.930584156923));
#1159 = CARTESIAN_POINT('',(6.109787142733,32.957643075875));
#1160 = CARTESIAN_POINT('',(6.152667366255,32.97862046586));
#1161 = CARTESIAN_POINT('',(6.195978722334,32.992857771292));
#1162 = CARTESIAN_POINT('',(6.239543714299,33.));
#1163 = CARTESIAN_POINT('',(6.28318530718,33.));
#1164 = ( GEOMETRIC_REPRESENTATION_CONTEXT(2) 
PARAMETRIC_REPRESENTATION_CONTEXT() REPRESENTATION_CONTEXT('2D SPACE',''
  ) );
#1165 = ADVANCED_FACE('',(#1166,#1172),#233,.T.);
#1166 = FACE_BOUND('',#1167,.T.);
#1167 = EDGE_LOOP('',(#1168,#1169,#1170,#1171));
#1168 = ORIENTED_EDGE('',*,*,#219,.F.);
#1169 = ORIENTED_EDGE('',*,*,#330,.T.);
#1170 = ORIENTED_EDGE('',*,*,#411,.T.);
#1171 = ORIENTED_EDGE('',*,*,#250,.F.);
#1172 = FACE_BOUND('',#1173,.T.);
#1173 = EDGE_LOOP('',(#1174));
#1174 = ORIENTED_EDGE('',*,*,#460,.F.);
#1175 = ADVANCED_FACE('',(#1176),#313,.F.);
#1176 = FACE_BOUND('',#1177,.F.);
#1177 = EDGE_LOOP('',(#1178,#1179,#1200,#1201));
#1178 = ORIENTED_EDGE('',*,*,#296,.F.);
#1179 = ORIENTED_EDGE('',*,*,#1180,.F.);
#1180 = EDGE_CURVE('',#847,#297,#1181,.T.);
#1181 = SEAM_CURVE('',#1182,(#1186,#1193),.PCURVE_S1.);
#1182 = LINE('',#1183,#1184);
#1183 = CARTESIAN_POINT('',(35.,15.,-10.));
#1184 = VECTOR('',#1185,1.);
#1185 = DIRECTION('',(0.,0.,1.));
#1186 = PCURVE('',#313,#1187);
#1187 = DEFINITIONAL_REPRESENTATION('',(#1188),#1192);
#1188 = LINE('',#1189,#1190);
#1189 = CARTESIAN_POINT('',(6.28318530718,-0.));
#1190 = VECTOR('',#1191,1.);
#1191 = DIRECTION('',(0.,1.));
#1192 = ( GEOMETRIC_REPRESENTATION_CONTEXT(2) 
PARAMETRIC_REPRESENTATION_CONTEXT() REPRESENTATION_CONTEXT('2D SPACE',''
  ) );
#1193 = PCURVE('',#313,#1194);
#1194 = DEFINITIONAL_REPRESENTATION('',(#1195),#1199);
#1195 = LINE('',#1196,#1197);
#1196 = CARTESIAN_POINT('',(0.,-0.));
#1197 = VECTOR('',#1198,1.);
#1198 = DIRECTION('',(0.,1.));
#1199 = ( GEOMETRIC_REPRESENTATION_CONTEXT(2) 
PARAMETRIC_REPRESENTATION_CONTEXT() REPRESENTATION_CONTEXT('2D SPACE',''
  ) );
#1200 = ORIENTED_EDGE('',*,*,#846,.T.);
#1201 = ORIENTED_EDGE('',*,*,#1180,.T.);
#1202 = ADVANCED_FACE('',(#1203),#393,.F.);
#1203 = FACE_BOUND('',#1204,.F.);
#1204 = EDGE_LOOP('',(#1205,#1206,#1227,#1228,#1229));
#1205 = ORIENTED_EDGE('',*,*,#483,.F.);
#1206 = ORIENTED_EDGE('',*,*,#1207,.F.);
#1207 = EDGE_CURVE('',#377,#436,#1208,.T.);
#1208 = SEAM_CURVE('',#1209,(#1213,#1220),.PCURVE_S1.);
#1209 = LINE('',#1210,#1211);
#1210 = CARTESIAN_POINT('',(35.,15.,-10.));
#1211 = VECTOR('',#1212,1.);
#1212 = DIRECTION('',(0.,0.,1.));
#1213 = PCURVE('',#393,#1214);
#1214 = DEFINITIONAL_REPRESENTATION('',(#1215),#1219);
#1215 = LINE('',#1216,#1217);
#1216 = CARTESIAN_POINT('',(6.28318530718,-0.));
#1217 = VECTOR('',#1218,1.);
#1218 = DIRECTION('',(0.,1.));
#1219 = ( GEOMETRIC_REPRESENTATION_CONTEXT(2) 
PARAMETRIC_REPRESENTATION_CONTEXT() REPRESENTATION_CONTEXT('2D SPACE',''
  ) );
#1220 = PCURVE('',#393,#1221);
#1221 = DEFINITIONAL_REPRESENTATION('',(#1222),#1226);
#1222 = LINE('',#1223,#1224);
#1223 = CARTESIAN_POINT('',(0.,-0.));
#1224 = VECTOR('',#1225,1.);
#1225 = DIRECTION('',(0.,1.));
#1226 = ( GEOMETRIC_REPRESENTATION_CONTEXT(2) 
PARAMETRIC_REPRESENTATION_CONTEXT() REPRESENTATION_CONTEXT('2D SPACE',''
  ) );
#1227 = ORIENTED_EDGE('',*,*,#376,.T.);
#1228 = ORIENTED_EDGE('',*,*,#1207,.T.);
#1229 = ORIENTED_EDGE('',*,*,#676,.F.);
#1230 = ( GEOMETRIC_REPRESENTATION_CONTEXT(3) 
GLOBAL_UNCERTAINTY_ASSIGNED_CONTEXT((#1234)) 
GLOBAL_UNIT_ASSIGNED_CONTEXT((#1231,#1232,#1233)) REPRESENTATION_CONTEXT
('Context #1','3D Context with UNIT and UNCERTAINTY') );
#1231 = ( LENGTH_UNIT() NAMED_UNIT(*) SI_UNIT(.MILLI.,.METRE.) );
#1232 = ( NAMED_UNIT(*) PLANE_ANGLE_UNIT() SI_UNIT($,.RADIAN.) );
#1233 = ( NAMED_UNIT(*) SI_UNIT($,.STERADIAN.) SOLID_ANGLE_UNIT() );
#1234 = UNCERTAINTY_MEASURE_WITH_UNIT(LENGTH_MEASURE(1.E-07),#1231,
  'distance_accuracy_value','confusion accuracy');
#1235 = PRODUCT_RELATED_PRODUCT_CATEGORY('part',$,(#7));
ENDSEC;
END-ISO-10303-21;
