ISO-10303-21;
HEADER;
FILE_DESCRIPTION(('Open CASCADE Model'),'2;1');
FILE_NAME('Open CASCADE Shape Model','1970-01-01T00:00:00',('Author'),(
    'Open CASCADE'),'Open CASCADE STEP processor 8.0','Open CASCADE 8.0'
  ,'Unknown');
FILE_SCHEMA((
'AP242_MANAGED_MODEL_BASED_3D_ENGINEERING_MIM_LF {1 0 10303 442 1 1 4 }'
    ));
ENDSEC;
DATA;
#1 = APPLICATION_PROTOCOL_DEFINITION('international standard',
  'ap242_managed_model_based_3d_engineering',2013,#2);
#2 = APPLICATION_CONTEXT('Managed model based 3d engineering');
#3 = SHAPE_DEFINITION_REPRESENTATION(#4,#10);
#4 = PRODUCT_DEFINITION_SHAPE('','',#5);
#5 = PRODUCT_DEFINITION('design','',#6,#9);
#6 = PRODUCT_DEFINITION_FORMATION('','',#7);
#7 = PRODUCT('Open CASCADE STEP translator 8.0',
  'Open CASCADE STEP translator 8.0','',(#8));
#8 = PRODUCT_CONTEXT('',#2,'mechanical');
#9 = PRODUCT_DEFINITION_CONTEXT('part definition',#2,'design');
#10 = MANIFOLD_SURFACE_SHAPE_REPRESENTATION('',(#11,#15),#231);
#11 = AXIS2_PLACEMENT_3D('',#12,#13,#14);
#12 = CARTESIAN_POINT('',(0.,0.,0.));
#13 = DIRECTION('',(0.,0.,1.));
#14 = DIRECTION('',(1.,0.,-0.));
#15 = SHELL_BASED_SURFACE_MODEL('',(#16));
#16 = OPEN_SHELL('',(#17));
#17 = ADVANCED_FACE('',(#18),#33,.T.);
#18 = FACE_BOUND('',#19,.F.);
#19 = EDGE_LOOP('',(#20,#126,#171,#188));
#20 = ORIENTED_EDGE('',*,*,#21,.T.);
#21 = EDGE_CURVE('',#22,#24,#26,.T.);
#22 = VERTEX_POINT('',#23);
#23 = CARTESIAN_POINT('',(1.421085471669E-14,2.842170943338E-14,0.));
#24 = VERTEX_POINT('',#25);
#25 = CARTESIAN_POINT('',(500.,2.84217094304E-14,0.));
#26 = SURFACE_CURVE('',#27,(#32),.PCURVE_S1.);
#27 = CIRCLE('',#28,362.5);
#28 = AXIS2_PLACEMENT_3D('',#29,#30,#31);
#29 = CARTESIAN_POINT('',(250.,262.5,0.));
#30 = DIRECTION('',(0.,0.,1.));
#31 = DIRECTION('',(-0.689655172414,-0.724137931034,0.));
#32 = PCURVE('',#33,#115);
#33 = B_SPLINE_SURFACE_WITH_KNOTS('',8,8,(
    (#34,#35,#36,#37,#38,#39,#40,#41,#42)
    ,(#43,#44,#45,#46,#47,#48,#49,#50,#51)
    ,(#52,#53,#54,#55,#56,#57,#58,#59,#60)
    ,(#61,#62,#63,#64,#65,#66,#67,#68,#69)
    ,(#70,#71,#72,#73,#74,#75,#76,#77,#78)
    ,(#79,#80,#81,#82,#83,#84,#85,#86,#87)
    ,(#88,#89,#90,#91,#92,#93,#94,#95,#96)
    ,(#97,#98,#99,#100,#101,#102,#103,#104,#105)
    ,(#106,#107,#108,#109,#110,#111,#112,#113,#114
  )),.UNSPECIFIED.,.F.,.F.,.F.,(9,9),(9,9),(-366.8909454334,
    293.10903773343),(-275.,275.),.PIECEWISE_BEZIER_KNOTS.);
#34 = CARTESIAN_POINT('',(-24.99999918509,-133.3536887261,0.));
#35 = CARTESIAN_POINT('',(43.750000609392,-133.3536955258,0.));
#36 = CARTESIAN_POINT('',(112.50000522319,-133.3538001957,0.));
#37 = CARTESIAN_POINT('',(181.24999291075,-133.3531408868,0.));
#38 = CARTESIAN_POINT('',(249.99999999999,-133.3545582929,0.));
#39 = CARTESIAN_POINT('',(318.75000708926,-133.3531408868,0.));
#40 = CARTESIAN_POINT('',(387.4999947768,-133.3538001957,0.));
#41 = CARTESIAN_POINT('',(456.2499993906,-133.3536955258,0.));
#42 = CARTESIAN_POINT('',(524.99999918509,-133.3536887261,0.));
#43 = CARTESIAN_POINT('',(-25.00000052434,-50.85372769559,0.));
#44 = CARTESIAN_POINT('',(43.749998843478,-50.8537461605,0.));
#45 = CARTESIAN_POINT('',(112.50000557854,-50.8539706402,0.));
#46 = CARTESIAN_POINT('',(181.24999253251,-50.85275552635,0.));
#47 = CARTESIAN_POINT('',(249.99999999992,-50.85514662484,0.));
#48 = CARTESIAN_POINT('',(318.7500074676,-50.85275552633,0.));
#49 = CARTESIAN_POINT('',(387.49999442138,-50.85397064021,0.));
#50 = CARTESIAN_POINT('',(456.25000115654,-50.8537461605,0.));
#51 = CARTESIAN_POINT('',(525.00000052435,-50.85372769559,0.));
#52 = CARTESIAN_POINT('',(-25.00000055502,31.646276601667,0.));
#53 = CARTESIAN_POINT('',(43.749996971274,31.64625877987,0.));
#54 = CARTESIAN_POINT('',(112.49996201056,31.64486306743,0.));
#55 = CARTESIAN_POINT('',(181.25005246755,31.64937783546,0.));
#56 = CARTESIAN_POINT('',(250.00000000038,31.642310361042,0.));
#57 = CARTESIAN_POINT('',(318.7499475318,31.649377835386,0.));
#58 = CARTESIAN_POINT('',(387.50003798977,31.644863067478,0.));
#59 = CARTESIAN_POINT('',(456.25000302862,31.646258779845,0.));
#60 = CARTESIAN_POINT('',(525.00000055501,31.646276601663,0.));
#61 = CARTESIAN_POINT('',(-25.00000041046,114.14628214584,0.));
#62 = CARTESIAN_POINT('',(43.750012316168,114.14649334877,0.));
#63 = CARTESIAN_POINT('',(112.50004248318,114.14903366514,0.));
#64 = CARTESIAN_POINT('',(181.24992966738,114.13901518095,0.));
#65 = CARTESIAN_POINT('',(249.99999999911,114.15599688428,0.));
#66 = CARTESIAN_POINT('',(318.75007033405,114.13901518112,0.));
#67 = CARTESIAN_POINT('',(387.49995751608,114.14903366502,0.));
#68 = CARTESIAN_POINT('',(456.249987684,114.14649334883,0.));
#69 = CARTESIAN_POINT('',(525.00000041049,114.14628214585,0.));
#70 = CARTESIAN_POINT('',(-25.00000043571,196.64627747645,0.));
#71 = CARTESIAN_POINT('',(43.749990266474,196.64613467138,0.));
#72 = CARTESIAN_POINT('',(112.49998355019,196.64402009061,0.));
#73 = CARTESIAN_POINT('',(181.25004767996,196.65327698298,0.));
#74 = CARTESIAN_POINT('',(250.00000000098,196.63694021686,0.));
#75 = CARTESIAN_POINT('',(318.74995231841,196.65327698274,0.));
#76 = CARTESIAN_POINT('',(387.50001645058,196.64402009078,0.));
#77 = CARTESIAN_POINT('',(456.2500097333,196.6461346713,0.));
#78 = CARTESIAN_POINT('',(525.00000043568,196.64627747644,0.));
#79 = CARTESIAN_POINT('',(-25.0000005171,279.14626882625,0.));
#80 = CARTESIAN_POINT('',(43.750006794,279.14640262789,0.));
#81 = CARTESIAN_POINT('',(112.50000545686,279.14746334742,0.));
#82 = CARTESIAN_POINT('',(181.24998304717,279.14274139299,0.));
#83 = CARTESIAN_POINT('',(249.99999999937,279.1512179142,0.));
#84 = CARTESIAN_POINT('',(318.75001695383,279.14274139318,0.));
#85 = CARTESIAN_POINT('',(387.49999454259,279.14746334729,0.));
#86 = CARTESIAN_POINT('',(456.24999320615,279.14640262795,0.));
#87 = CARTESIAN_POINT('',(525.00000051713,279.14626882626,0.));
#88 = CARTESIAN_POINT('',(-25.00000041148,361.64626725469,0.));
#89 = CARTESIAN_POINT('',(43.749998865418,361.64626088088,0.));
#90 = CARTESIAN_POINT('',(112.50000114116,361.64605781356,0.));
#91 = CARTESIAN_POINT('',(181.25000277719,361.64710383266,0.));
#92 = CARTESIAN_POINT('',(250.00000000019,361.64519216066,0.));
#93 = CARTESIAN_POINT('',(318.74999722245,361.64710383257,0.));
#94 = CARTESIAN_POINT('',(387.49999885902,361.64605781361,0.));
#95 = CARTESIAN_POINT('',(456.25000113451,361.64626088085,0.));
#96 = CARTESIAN_POINT('',(525.00000041147,361.64626725468,0.));
#97 = CARTESIAN_POINT('',(-25.00000007574,444.14627578192,0.));
#98 = CARTESIAN_POINT('',(43.750000179249,444.14628273206,0.));
#99 = CARTESIAN_POINT('',(112.50000023185,444.14628769653,0.));
#100 = CARTESIAN_POINT('',(181.25000014972,444.14629067499,0.));
#101 = CARTESIAN_POINT('',(249.99999999993,444.14629166814,0.));
#102 = CARTESIAN_POINT('',(318.74999985038,444.14629067502,0.));
#103 = CARTESIAN_POINT('',(387.49999976807,444.14628769651,0.));
#104 = CARTESIAN_POINT('',(456.24999982077,444.14628273207,0.));
#105 = CARTESIAN_POINT('',(525.00000007574,444.14627578192,0.));
#106 = CARTESIAN_POINT('',(-24.99999999617,526.64627652224,0.));
#107 = CARTESIAN_POINT('',(43.750000067434,526.64627731966,0.));
#108 = CARTESIAN_POINT('',(112.5000000757,526.64627788924,0.));
#109 = CARTESIAN_POINT('',(181.25000004707,526.646278231,0.));
#110 = CARTESIAN_POINT('',(250.,526.64627834491,0.));
#111 = CARTESIAN_POINT('',(318.74999995292,526.646278231,0.));
#112 = CARTESIAN_POINT('',(387.49999992429,526.64627788924,0.));
#113 = CARTESIAN_POINT('',(456.24999993256,526.64627731966,0.));
#114 = CARTESIAN_POINT('',(524.99999999617,526.64627652224,0.));
#115 = DEFINITIONAL_REPRESENTATION('',(#116),#125);
#116 = B_SPLINE_CURVE_WITH_KNOTS('',7,(#117,#118,#119,#120,#121,#122,
    #123,#124),.UNSPECIFIED.,.F.,.F.,(8,8),(0.,1.522025508449),
  .PIECEWISE_BEZIER_KNOTS.);
#117 = CARTESIAN_POINT('',(-233.5372384241,-250.));
#118 = CARTESIAN_POINT('',(-287.8952814107,-192.924054864));
#119 = CARTESIAN_POINT('',(-327.7743889401,-122.0589732769));
#120 = CARTESIAN_POINT('',(-348.9804534574,-41.81253415699));
#121 = CARTESIAN_POINT('',(-348.9804534574,41.812534156995));
#122 = CARTESIAN_POINT('',(-327.7743889401,122.05897327691));
#123 = CARTESIAN_POINT('',(-287.8952814107,192.92405486408));
#124 = CARTESIAN_POINT('',(-233.5372384241,250.));
#125 = ( GEOMETRIC_REPRESENTATION_CONTEXT(2) 
PARAMETRIC_REPRESENTATION_CONTEXT() REPRESENTATION_CONTEXT('2D SPACE',''
  ) );
#126 = ORIENTED_EDGE('',*,*,#127,.T.);
#127 = EDGE_CURVE('',#24,#128,#130,.T.);
#128 = VERTEX_POINT('',#129);
#129 = CARTESIAN_POINT('',(500.,500.,0.));
#130 = SURFACE_CURVE('',#131,(#135),.PCURVE_S1.);
#131 = LINE('',#132,#133);
#132 = CARTESIAN_POINT('',(500.,0.,0.));
#133 = VECTOR('',#134,1.);
#134 = DIRECTION('',(0.,1.,0.));
#135 = PCURVE('',#33,#136);
#136 = DEFINITIONAL_REPRESENTATION('',(#137),#170);
#137 = B_SPLINE_CURVE_WITH_KNOTS('',7,(#138,#139,#140,#141,#142,#143,
    #144,#145,#146,#147,#148,#149,#150,#151,#152,#153,#154,#155,#156,
    #157,#158,#159,#160,#161,#162,#163,#164,#165,#166,#167,#168,#169),
  .UNSPECIFIED.,.F.,.F.,(8,6,6,6,6,8),(0.,31.25,62.5,125.,250.,500.),
  .UNSPECIFIED.);
#138 = CARTESIAN_POINT('',(-233.5372384241,250.));
#139 = CARTESIAN_POINT('',(-229.0729532719,250.));
#140 = CARTESIAN_POINT('',(-224.6086609279,249.99999999999));
#141 = CARTESIAN_POINT('',(-220.1443574137,250.));
#142 = CARTESIAN_POINT('',(-215.6800908561,249.99999999999));
#143 = CARTESIAN_POINT('',(-211.2158020813,250.));
#144 = CARTESIAN_POINT('',(-206.7515174263,250.));
#145 = CARTESIAN_POINT('',(-197.8229466769,250.));
#146 = CARTESIAN_POINT('',(-193.3586616415,250.));
#147 = CARTESIAN_POINT('',(-188.8943767079,249.99999999999));
#148 = CARTESIAN_POINT('',(-184.4300917272,250.));
#149 = CARTESIAN_POINT('',(-179.9658066382,249.99999999999));
#150 = CARTESIAN_POINT('',(-175.5015214682,250.));
#151 = CARTESIAN_POINT('',(-162.108666062,250.));
#152 = CARTESIAN_POINT('',(-153.1800956493,250.));
#153 = CARTESIAN_POINT('',(-144.2515250919,249.99999999999));
#154 = CARTESIAN_POINT('',(-135.3229543872,250.));
#155 = CARTESIAN_POINT('',(-126.3943835324,250.));
#156 = CARTESIAN_POINT('',(-117.4658125247,250.));
#157 = CARTESIAN_POINT('',(-90.68009903478,249.99999999999));
#158 = CARTESIAN_POINT('',(-72.82295616906,250.));
#159 = CARTESIAN_POINT('',(-54.96581291217,249.99999999999));
#160 = CARTESIAN_POINT('',(-37.10866941202,250.));
#161 = CARTESIAN_POINT('',(-19.25152581653,249.99999999999));
#162 = CARTESIAN_POINT('',(-1.394382273611,250.));
#163 = CARTESIAN_POINT('',(52.177047753687,249.99999999999));
#164 = CARTESIAN_POINT('',(87.891333620704,250.));
#165 = CARTESIAN_POINT('',(123.60562029287,249.99999999999));
#166 = CARTESIAN_POINT('',(159.31990376499,250.));
#167 = CARTESIAN_POINT('',(195.0341938099,249.99999999999));
#168 = CARTESIAN_POINT('',(230.74847722879,250.));
#169 = CARTESIAN_POINT('',(266.46276157584,250.));
#170 = ( GEOMETRIC_REPRESENTATION_CONTEXT(2) 
PARAMETRIC_REPRESENTATION_CONTEXT() REPRESENTATION_CONTEXT('2D SPACE',''
  ) );
#171 = ORIENTED_EDGE('',*,*,#172,.T.);
#172 = EDGE_CURVE('',#128,#173,#175,.T.);
#173 = VERTEX_POINT('',#174);
#174 = CARTESIAN_POINT('',(0.,500.,0.));
#175 = SURFACE_CURVE('',#176,(#180),.PCURVE_S1.);
#176 = LINE('',#177,#178);
#177 = CARTESIAN_POINT('',(500.,500.,0.));
#178 = VECTOR('',#179,1.);
#179 = DIRECTION('',(-1.,0.,0.));
#180 = PCURVE('',#33,#181);
#181 = DEFINITIONAL_REPRESENTATION('',(#182),#187);
#182 = B_SPLINE_CURVE_WITH_KNOTS('',3,(#183,#184,#185,#186),
  .UNSPECIFIED.,.F.,.F.,(4,4),(0.,500.),.PIECEWISE_BEZIER_KNOTS.);
#183 = CARTESIAN_POINT('',(266.46276157584,250.));
#184 = CARTESIAN_POINT('',(266.46276157584,83.333333563432));
#185 = CARTESIAN_POINT('',(266.46276157584,-83.33333356343));
#186 = CARTESIAN_POINT('',(266.46276157584,-250.));
#187 = ( GEOMETRIC_REPRESENTATION_CONTEXT(2) 
PARAMETRIC_REPRESENTATION_CONTEXT() REPRESENTATION_CONTEXT('2D SPACE',''
  ) );
#188 = ORIENTED_EDGE('',*,*,#189,.T.);
#189 = EDGE_CURVE('',#173,#22,#190,.T.);
#190 = SURFACE_CURVE('',#191,(#195),.PCURVE_S1.);
#191 = LINE('',#192,#193);
#192 = CARTESIAN_POINT('',(0.,500.,0.));
#193 = VECTOR('',#194,1.);
#194 = DIRECTION('',(0.,-1.,0.));
#195 = PCURVE('',#33,#196);
#196 = DEFINITIONAL_REPRESENTATION('',(#197),#230);
#197 = B_SPLINE_CURVE_WITH_KNOTS('',7,(#198,#199,#200,#201,#202,#203,
    #204,#205,#206,#207,#208,#209,#210,#211,#212,#213,#214,#215,#216,
    #217,#218,#219,#220,#221,#222,#223,#224,#225,#226,#227,#228,#229),
  .UNSPECIFIED.,.F.,.F.,(8,6,6,6,6,8),(0.,250.,375.,437.5,468.75,500.),
  .UNSPECIFIED.);
#198 = CARTESIAN_POINT('',(266.46276157584,-250.));
#199 = CARTESIAN_POINT('',(230.74847722879,-250.));
#200 = CARTESIAN_POINT('',(195.03419380991,-249.9999999999));
#201 = CARTESIAN_POINT('',(159.31990376499,-250.));
#202 = CARTESIAN_POINT('',(123.60562029287,-249.9999999999));
#203 = CARTESIAN_POINT('',(87.891333620703,-250.));
#204 = CARTESIAN_POINT('',(52.177047753687,-250.));
#205 = CARTESIAN_POINT('',(-1.394382273611,-250.));
#206 = CARTESIAN_POINT('',(-19.25152581653,-250.));
#207 = CARTESIAN_POINT('',(-37.10866941202,-249.9999999999));
#208 = CARTESIAN_POINT('',(-54.96581291217,-250.));
#209 = CARTESIAN_POINT('',(-72.82295616906,-249.9999999999));
#210 = CARTESIAN_POINT('',(-90.68009903479,-250.));
#211 = CARTESIAN_POINT('',(-117.4658125247,-249.9999999999));
#212 = CARTESIAN_POINT('',(-126.3943835324,-250.));
#213 = CARTESIAN_POINT('',(-135.3229543872,-249.9999999999));
#214 = CARTESIAN_POINT('',(-144.2515250919,-250.));
#215 = CARTESIAN_POINT('',(-153.1800956493,-249.9999999999));
#216 = CARTESIAN_POINT('',(-162.108666062,-250.));
#217 = CARTESIAN_POINT('',(-175.5015214682,-249.9999999999));
#218 = CARTESIAN_POINT('',(-179.9658066382,-250.));
#219 = CARTESIAN_POINT('',(-184.4300917272,-249.9999999999));
#220 = CARTESIAN_POINT('',(-188.894376708,-250.));
#221 = CARTESIAN_POINT('',(-193.3586616415,-249.9999999999));
#222 = CARTESIAN_POINT('',(-197.8229466769,-250.));
#223 = CARTESIAN_POINT('',(-206.7515174263,-249.9999999999));
#224 = CARTESIAN_POINT('',(-211.2158020813,-250.));
#225 = CARTESIAN_POINT('',(-215.6800908561,-249.9999999999));
#226 = CARTESIAN_POINT('',(-220.1443574137,-250.));
#227 = CARTESIAN_POINT('',(-224.6086609278,-249.9999999999));
#228 = CARTESIAN_POINT('',(-229.0729532719,-250.));
#229 = CARTESIAN_POINT('',(-233.5372384241,-250.));
#230 = ( GEOMETRIC_REPRESENTATION_CONTEXT(2) 
PARAMETRIC_REPRESENTATION_CONTEXT() REPRESENTATION_CONTEXT('2D SPACE',''
  ) );
#231 = ( GEOMETRIC_REPRESENTATION_CONTEXT(3) 
GLOBAL_UNCERTAINTY_ASSIGNED_CONTEXT((#235)) GLOBAL_UNIT_ASSIGNED_CONTEXT
((#232,#233,#234)) REPRESENTATION_CONTEXT('Context #1',
  '3D Context with UNIT and UNCERTAINTY') );
#232 = ( LENGTH_UNIT() NAMED_UNIT(*) SI_UNIT(.MILLI.,.METRE.) );
#233 = ( NAMED_UNIT(*) PLANE_ANGLE_UNIT() SI_UNIT($,.RADIAN.) );
#234 = ( NAMED_UNIT(*) SI_UNIT($,.STERADIAN.) SOLID_ANGLE_UNIT() );
#235 = UNCERTAINTY_MEASURE_WITH_UNIT(LENGTH_MEASURE(1.E-05),#232,
  'distance_accuracy_value','confusion accuracy');
#236 = PRODUCT_RELATED_PRODUCT_CATEGORY('part',$,(#7));
ENDSEC;
END-ISO-10303-21;
