solid exported
	facet normal 0 0 -1
		outer loop
			vertex 1000000 500000 2000000
			vertex 0 0 2000000
			vertex 0 2000000 2000000
		endloop
	endfacet
	facet normal 0 0 -1
		outer loop
			vertex 1000000 500000 2000000
			vertex 4000000 0 2000000
			vertex 0 0 2000000
		endloop
	endfacet
	facet normal 0 -1 0
		outer loop
			vertex 0 0 2250000
			vertex 0 0 2000000
			vertex 4000000 0 2000000
		endloop
	endfacet
	facet normal 1 0 0
		outer loop
			vertex 1000000 500000 2250000
			vertex 1000000 500000 2000000
			vertex 1000000 1500000 2000000
		endloop
	endfacet
	facet normal 0 1 0
		outer loop
			vertex 2000000 500000 2250000
			vertex 2000000 500000 2000000
			vertex 1000000 500000 2000000
		endloop
	endfacet
	facet normal -1 0 0
		outer loop
			vertex 0 0 2250000
			vertex 0 2000000 2250000
			vertex 0 0 2000000
		endloop
	endfacet
	facet normal 0 0 1
		outer loop
			vertex 1000000 500000 2250000
			vertex 0 2000000 2250000
			vertex 0 0 2250000
		endloop
	endfacet
	facet normal 0 0 1
		outer loop
			vertex 1000000 500000 2250000
			vertex 0 0 2250000
			vertex 4000000 0 2250000
		endloop
	endfacet
	facet normal 0 1 0
		outer loop
			vertex 1000000 500000 2250000
			vertex 2000000 500000 2250000
			vertex 1000000 500000 2000000
		endloop
	endfacet
	facet normal 0 0 -1
		outer loop
			vertex 1000000 500000 2000000
			vertex 0 2000000 2000000
			vertex 1000000 1500000 2000000
		endloop
	endfacet
	facet normal -1 0 0
		outer loop
			vertex 0 2000000 2250000
			vertex 0 2000000 2000000
			vertex 0 0 2000000
		endloop
	endfacet
	facet normal 0 0 -1
		outer loop
			vertex 1000000 1500000 2000000
			vertex 0 2000000 2000000
			vertex 2000000 1500000 2000000
		endloop
	endfacet
	facet normal 0 -1 0
		outer loop
			vertex 1000000 1500000 2250000
			vertex 1000000 1500000 2000000
			vertex 2000000 1500000 2000000
		endloop
	endfacet
	facet normal 0 0 1
		outer loop
			vertex 1000000 500000 2250000
			vertex 1000000 1500000 2250000
			vertex 0 2000000 2250000
		endloop
	endfacet
	facet normal 1 0 0
		outer loop
			vertex 1000000 1500000 2250000
			vertex 1000000 500000 2250000
			vertex 1000000 1500000 2000000
		endloop
	endfacet
	facet normal 0 1 0
		outer loop
			vertex 0 2000000 2250000
			vertex 4000000 2000000 2250000
			vertex 0 2000000 2000000
		endloop
	endfacet
	facet normal 0 -1 0
		outer loop
			vertex 2000000 1500000 2250000
			vertex 1000000 1500000 2250000
			vertex 2000000 1500000 2000000
		endloop
	endfacet
	facet normal 0 0 1
		outer loop
			vertex 1000000 1500000 2250000
			vertex 2000000 1500000 2250000
			vertex 0 2000000 2250000
		endloop
	endfacet
	facet normal 0 0 -1
		outer loop
			vertex 1000000 500000 2000000
			vertex 2000000 500000 2000000
			vertex 4000000 0 2000000
		endloop
	endfacet
	facet normal 0 0 -1
		outer loop
			vertex 4000000 0 2000000
			vertex 2000000 500000 2000000
			vertex 4000000 2000000 2000000
		endloop
	endfacet
	facet normal 1 0 0
		outer loop
			vertex 4000000 0 2250000
			vertex 4000000 0 2000000
			vertex 4000000 2000000 2000000
		endloop
	endfacet
	facet normal 0 -1 0
		outer loop
			vertex 4000000 0 2250000
			vertex 0 0 2250000
			vertex 4000000 0 2000000
		endloop
	endfacet
	facet normal 0 0 1
		outer loop
			vertex 1000000 500000 2250000
			vertex 4000000 0 2250000
			vertex 2000000 500000 2250000
		endloop
	endfacet
	facet normal -1 0 0
		outer loop
			vertex 2000000 500000 2250000
			vertex 2000000 1500000 2250000
			vertex 2000000 500000 2000000
		endloop
	endfacet
	facet normal 0 0 1
		outer loop
			vertex 4000000 0 2250000
			vertex 4000000 2000000 2250000
			vertex 2000000 500000 2250000
		endloop
	endfacet
	facet normal 0 0 -1
		outer loop
			vertex 4000000 2000000 2000000
			vertex 2000000 500000 2000000
			vertex 2000000 1500000 2000000
		endloop
	endfacet
	facet normal -1 0 0
		outer loop
			vertex 2000000 1500000 2250000
			vertex 2000000 1500000 2000000
			vertex 2000000 500000 2000000
		endloop
	endfacet
	facet normal 0 0 -1
		outer loop
			vertex 2000000 1500000 2000000
			vertex 0 2000000 2000000
			vertex 4000000 2000000 2000000
		endloop
	endfacet
	facet normal 0 1 0
		outer loop
			vertex 4000000 2000000 2250000
			vertex 4000000 2000000 2000000
			vertex 0 2000000 2000000
		endloop
	endfacet
	facet normal 0 0 1
		outer loop
			vertex 4000000 2000000 2250000
			vertex 2000000 1500000 2250000
			vertex 2000000 500000 2250000
		endloop
	endfacet
	facet normal 0 0 1
		outer loop
			vertex 2000000 1500000 2250000
			vertex 4000000 2000000 2250000
			vertex 0 2000000 2250000
		endloop
	endfacet
	facet normal 1 0 0
		outer loop
			vertex 4000000 2000000 2250000
			vertex 4000000 0 2250000
			vertex 4000000 2000000 2000000
		endloop
	endfacet
endsolid exported
