solid exported
	facet normal -1 0 0
		outer loop
			vertex -15 -15 -5
			vertex -15 -15 5
			vertex -15 15 5
		endloop
	endfacet
	facet normal 0 -1 0
		outer loop
			vertex -15 -15 -5
			vertex 15 -15 -5
			vertex -15 -15 5
		endloop
	endfacet
	facet normal 0 0 -1
		outer loop
			vertex -15 -15 -5
			vertex -15 15 -5
			vertex 15 -15 -5
		endloop
	endfacet
	facet normal 0 0 1
		outer loop
			vertex -15 -15 5
			vertex -4.242640495300293 -4.242640495300293 5
			vertex -4.9888176918029785 -3.333421468734741 5
		endloop
	endfacet
	facet normal 0 0 1
		outer loop
			vertex -15 -15 5
			vertex -3.333421468734741 -4.9888176918029785 5
			vertex -4.242640495300293 -4.242640495300293 5
		endloop
	endfacet
	facet normal 0 0 1
		outer loop
			vertex -15 -15 5
			vertex -4.9888176918029785 -3.333421468734741 5
			vertex -5.543277263641357 -2.296100616455078 5
		endloop
	endfacet
	facet normal 0 0 1
		outer loop
			vertex -15 -15 5
			vertex -5.543277263641357 -2.296100616455078 5
			vertex -5.884711742401123 -1.1705418825149536 5
		endloop
	endfacet
	facet normal 0 0 1
		outer loop
			vertex -15 -15 5
			vertex -5.884711742401123 -1.1705418825149536 5
			vertex -6 0 5
		endloop
	endfacet
	facet normal 0 0 1
		outer loop
			vertex -15 -15 5
			vertex -6 0 5
			vertex -5.884711742401123 1.1705418825149536 5
		endloop
	endfacet
	facet normal 0 0 1
		outer loop
			vertex -15 -15 5
			vertex -2.296100616455078 -5.543277263641357 5
			vertex -3.333421468734741 -4.9888176918029785 5
		endloop
	endfacet
	facet normal 0 0 1
		outer loop
			vertex -15 -15 5
			vertex -1.1705418825149536 -5.884711742401123 5
			vertex -2.296100616455078 -5.543277263641357 5
		endloop
	endfacet
	facet normal 0 0 1
		outer loop
			vertex -15 -15 5
			vertex 0 -6 5
			vertex -1.1705418825149536 -5.884711742401123 5
		endloop
	endfacet
	facet normal 0 0 1
		outer loop
			vertex -15 -15 5
			vertex 1.1705418825149536 -5.884711742401123 5
			vertex 0 -6 5
		endloop
	endfacet
	facet normal -1 0 0
		outer loop
			vertex -15 -15 -5
			vertex -15 15 5
			vertex -15 15 -5
		endloop
	endfacet
	facet normal 0 1 0
		outer loop
			vertex -15 15 -5
			vertex -15 15 5
			vertex 15 15 5
		endloop
	endfacet
	facet normal 0 0 1
		outer loop
			vertex -15 -15 5
			vertex -5.884711742401123 1.1705418825149536 5
			vertex -15 15 5
		endloop
	endfacet
	facet normal 0 0 1
		outer loop
			vertex -15 15 5
			vertex -5.884711742401123 1.1705418825149536 5
			vertex -5.543277263641357 2.296100616455078 5
		endloop
	endfacet
	facet normal 0 0 1
		outer loop
			vertex -15 15 5
			vertex -5.543277263641357 2.296100616455078 5
			vertex -4.9888176918029785 3.333421468734741 5
		endloop
	endfacet
	facet normal 0 0 1
		outer loop
			vertex -15 15 5
			vertex -4.9888176918029785 3.333421468734741 5
			vertex -4.242640495300293 4.242640495300293 5
		endloop
	endfacet
	facet normal 0 0 1
		outer loop
			vertex -15 15 5
			vertex -4.242640495300293 4.242640495300293 5
			vertex -3.333421468734741 4.9888176918029785 5
		endloop
	endfacet
	facet normal 0 0 1
		outer loop
			vertex -15 15 5
			vertex -3.333421468734741 4.9888176918029785 5
			vertex -2.296100616455078 5.543277263641357 5
		endloop
	endfacet
	facet normal 0 0 1
		outer loop
			vertex -15 15 5
			vertex -2.296100616455078 5.543277263641357 5
			vertex -1.1705418825149536 5.884711742401123 5
		endloop
	endfacet
	facet normal 0 0 1
		outer loop
			vertex -15 15 5
			vertex -1.1705418825149536 5.884711742401123 5
			vertex 15 15 5
		endloop
	endfacet
	facet normal 0 -1 0
		outer loop
			vertex -15 -15 5
			vertex 15 -15 -5
			vertex 15 -15 5
		endloop
	endfacet
	facet normal 1 0 0
		outer loop
			vertex 15 -15 -5
			vertex 15 15 -5
			vertex 15 -15 5
		endloop
	endfacet
	facet normal 0 0 1
		outer loop
			vertex -15 -15 5
			vertex 15 -15 5
			vertex 1.1705418825149536 -5.884711742401123 5
		endloop
	endfacet
	facet normal 0 0 1
		outer loop
			vertex 15 -15 5
			vertex 2.296100616455078 -5.543277263641357 5
			vertex 1.1705418825149536 -5.884711742401123 5
		endloop
	endfacet
	facet normal 0 0 1
		outer loop
			vertex 15 -15 5
			vertex 3.333421468734741 -4.9888176918029785 5
			vertex 2.296100616455078 -5.543277263641357 5
		endloop
	endfacet
	facet normal 0 0 1
		outer loop
			vertex 15 -15 5
			vertex 4.242640495300293 -4.242640495300293 5
			vertex 3.333421468734741 -4.9888176918029785 5
		endloop
	endfacet
	facet normal 0 0 1
		outer loop
			vertex 15 -15 5
			vertex 4.9888176918029785 -3.333421468734741 5
			vertex 4.242640495300293 -4.242640495300293 5
		endloop
	endfacet
	facet normal 0 0 1
		outer loop
			vertex 15 -15 5
			vertex 5.543277263641357 -2.296100616455078 5
			vertex 4.9888176918029785 -3.333421468734741 5
		endloop
	endfacet
	facet normal 0 0 1
		outer loop
			vertex 15 -15 5
			vertex 5.884711742401123 -1.1705418825149536 5
			vertex 5.543277263641357 -2.296100616455078 5
		endloop
	endfacet
	facet normal 0 0 1
		outer loop
			vertex 15 -15 5
			vertex 15 15 5
			vertex 5.884711742401123 -1.1705418825149536 5
		endloop
	endfacet
	facet normal 0 0 -1
		outer loop
			vertex -15 15 -5
			vertex 15 15 -5
			vertex 15 -15 -5
		endloop
	endfacet
	facet normal 0 1 0
		outer loop
			vertex -15 15 -5
			vertex 15 15 5
			vertex 15 15 -5
		endloop
	endfacet
	facet normal 1 0 0
		outer loop
			vertex 15 -15 5
			vertex 15 15 -5
			vertex 15 15 5
		endloop
	endfacet
	facet normal 0 0 1
		outer loop
			vertex 15 15 5
			vertex -1.1705418825149536 5.884711742401123 5
			vertex 0 6 5
		endloop
	endfacet
	facet normal 0 0 1
		outer loop
			vertex 15 15 5
			vertex 0 6 5
			vertex 1.1705418825149536 5.884711742401123 5
		endloop
	endfacet
	facet normal 0 0 1
		outer loop
			vertex 15 15 5
			vertex 1.1705418825149536 5.884711742401123 5
			vertex 2.296100616455078 5.543277263641357 5
		endloop
	endfacet
	facet normal 0 0 1
		outer loop
			vertex 15 15 5
			vertex 2.296100616455078 5.543277263641357 5
			vertex 3.333421468734741 4.9888176918029785 5
		endloop
	endfacet
	facet normal 0 0 1
		outer loop
			vertex 15 15 5
			vertex 6 0 5
			vertex 5.884711742401123 -1.1705418825149536 5
		endloop
	endfacet
	facet normal 0 0 1
		outer loop
			vertex 15 15 5
			vertex 5.884711742401123 1.1705418825149536 5
			vertex 6 0 5
		endloop
	endfacet
	facet normal 0 0 1
		outer loop
			vertex 15 15 5
			vertex 5.543277263641357 2.296100616455078 5
			vertex 5.884711742401123 1.1705418825149536 5
		endloop
	endfacet
	facet normal 0 0 1
		outer loop
			vertex 15 15 5
			vertex 4.9888176918029785 3.333421468734741 5
			vertex 5.543277263641357 2.296100616455078 5
		endloop
	endfacet
	facet normal 0 0 1
		outer loop
			vertex 15 15 5
			vertex 3.333421468734741 4.9888176918029785 5
			vertex 4.242640495300293 4.242640495300293 5
		endloop
	endfacet
	facet normal 0 0 1
		outer loop
			vertex 15 15 5
			vertex 4.242640495300293 4.242640495300293 5
			vertex 4.9888176918029785 3.333421468734741 5
		endloop
	endfacet
	facet normal -0.6343935001681328 -0.7730102760923852 0
		outer loop
			vertex -4.242640495300293 -4.242640495300293 13
			vertex -4.242640495300293 -4.242640495300293 5
			vertex -3.333421468734741 -4.9888176918029785 5
		endloop
	endfacet
	facet normal -0.9569403429085449 -0.29028465359725186 0
		outer loop
			vertex -5.884711742401123 -1.1705418825149536 13
			vertex -5.884711742401123 -1.1705418825149536 5
			vertex -5.543277263641357 -2.296100616455078 5
		endloop
	endfacet
	facet normal -0.9951847312416165 -0.09801709393545507 0
		outer loop
			vertex -6 0 13
			vertex -6 0 5
			vertex -5.884711742401123 -1.1705418825149536 5
		endloop
	endfacet
	facet normal -0.7730102760923852 -0.6343935001681328 0
		outer loop
			vertex -4.9888176918029785 -3.333421468734741 13
			vertex -4.9888176918029785 -3.333421468734741 5
			vertex -4.242640495300293 -4.242640495300293 5
		endloop
	endfacet
	facet normal -0.8819212556035696 -0.4713967531863405 0
		outer loop
			vertex -5.543277263641357 -2.296100616455078 13
			vertex -5.543277263641357 -2.296100616455078 5
			vertex -4.9888176918029785 -3.333421468734741 5
		endloop
	endfacet
	facet normal -0.29028465359725186 -0.9569403429085449 0
		outer loop
			vertex -2.296100616455078 -5.543277263641357 13
			vertex -2.296100616455078 -5.543277263641357 5
			vertex -1.1705418825149536 -5.884711742401123 5
		endloop
	endfacet
	facet normal -0.4713967531863405 -0.8819212556035696 0
		outer loop
			vertex -3.333421468734741 -4.9888176918029785 13
			vertex -3.333421468734741 -4.9888176918029785 5
			vertex -2.296100616455078 -5.543277263641357 5
		endloop
	endfacet
	facet normal -0.09801709393545507 -0.9951847312416165 0
		outer loop
			vertex -1.1705418825149536 -5.884711742401123 13
			vertex -1.1705418825149536 -5.884711742401123 5
			vertex 0 -6 5
		endloop
	endfacet
	facet normal -0.7730102760923852 -0.6343935001681328 0
		outer loop
			vertex -4.9888176918029785 -3.333421468734741 13
			vertex -4.242640495300293 -4.242640495300293 5
			vertex -4.242640495300293 -4.242640495300293 13
		endloop
	endfacet
	facet normal -0.9569403429085449 -0.29028465359725186 0
		outer loop
			vertex -5.543277263641357 -2.296100616455078 13
			vertex -5.884711742401123 -1.1705418825149536 13
			vertex -5.543277263641357 -2.296100616455078 5
		endloop
	endfacet
	facet normal -0.9951847312416165 -0.09801709393545507 0
		outer loop
			vertex -5.884711742401123 -1.1705418825149536 13
			vertex -6 0 13
			vertex -5.884711742401123 -1.1705418825149536 5
		endloop
	endfacet
	facet normal -0.8819212556035696 -0.4713967531863405 0
		outer loop
			vertex -4.9888176918029785 -3.333421468734741 13
			vertex -5.543277263641357 -2.296100616455078 13
			vertex -4.9888176918029785 -3.333421468734741 5
		endloop
	endfacet
	facet normal 0 0 1
		outer loop
			vertex -5.543277263641357 -2.296100616455078 13
			vertex -5.543277263641357 2.296100616455078 13
			vertex -5.884711742401123 -1.1705418825149536 13
		endloop
	endfacet
	facet normal 0 0 1
		outer loop
			vertex -4.9888176918029785 -3.333421468734741 13
			vertex -4.9888176918029785 3.333421468734741 13
			vertex -5.543277263641357 -2.296100616455078 13
		endloop
	endfacet
	facet normal 0 0 1
		outer loop
			vertex -4.9888176918029785 -3.333421468734741 13
			vertex -4.242640495300293 -4.242640495300293 13
			vertex -4.242640495300293 4.242640495300293 13
		endloop
	endfacet
	facet normal -0.6343935001681328 -0.7730102760923852 0
		outer loop
			vertex -3.333421468734741 -4.9888176918029785 13
			vertex -4.242640495300293 -4.242640495300293 13
			vertex -3.333421468734741 -4.9888176918029785 5
		endloop
	endfacet
	facet normal -0.4713967531863405 -0.8819212556035696 0
		outer loop
			vertex -3.333421468734741 -4.9888176918029785 13
			vertex -2.296100616455078 -5.543277263641357 5
			vertex -2.296100616455078 -5.543277263641357 13
		endloop
	endfacet
	facet normal -0.29028465359725186 -0.9569403429085449 0
		outer loop
			vertex -2.296100616455078 -5.543277263641357 13
			vertex -1.1705418825149536 -5.884711742401123 5
			vertex -1.1705418825149536 -5.884711742401123 13
		endloop
	endfacet
	facet normal -0.09801709393545507 -0.9951847312416165 0
		outer loop
			vertex -1.1705418825149536 -5.884711742401123 13
			vertex 0 -6 5
			vertex 0 -6 13
		endloop
	endfacet
	facet normal 0 0 1
		outer loop
			vertex -3.333421468734741 -4.9888176918029785 13
			vertex -3.333421468734741 4.9888176918029785 13
			vertex -4.242640495300293 -4.242640495300293 13
		endloop
	endfacet
	facet normal 0 0 1
		outer loop
			vertex -3.333421468734741 -4.9888176918029785 13
			vertex -2.296100616455078 -5.543277263641357 13
			vertex -2.296100616455078 5.543277263641357 13
		endloop
	endfacet
	facet normal 0 0 1
		outer loop
			vertex -1.1705418825149536 -5.884711742401123 13
			vertex 0 -6 13
			vertex 0 6 13
		endloop
	endfacet
	facet normal 0 0 1
		outer loop
			vertex -2.296100616455078 -5.543277263641357 13
			vertex -1.1705418825149536 -5.884711742401123 13
			vertex -1.1705418825149536 5.884711742401123 13
		endloop
	endfacet
	facet normal -0.9951847312416165 0.09801709393545507 0
		outer loop
			vertex -5.884711742401123 1.1705418825149536 13
			vertex -5.884711742401123 1.1705418825149536 5
			vertex -6 0 5
		endloop
	endfacet
	facet normal -0.9569403429085449 0.29028465359725186 0
		outer loop
			vertex -5.543277263641357 2.296100616455078 13
			vertex -5.543277263641357 2.296100616455078 5
			vertex -5.884711742401123 1.1705418825149536 5
		endloop
	endfacet
	facet normal -0.8819212556035696 0.4713967531863405 0
		outer loop
			vertex -4.9888176918029785 3.333421468734741 13
			vertex -4.9888176918029785 3.333421468734741 5
			vertex -5.543277263641357 2.296100616455078 5
		endloop
	endfacet
	facet normal -0.7730102760923852 0.6343935001681328 0
		outer loop
			vertex -4.242640495300293 4.242640495300293 13
			vertex -4.242640495300293 4.242640495300293 5
			vertex -4.9888176918029785 3.333421468734741 5
		endloop
	endfacet
	facet normal -0.6343935001681328 0.7730102760923852 0
		outer loop
			vertex -3.333421468734741 4.9888176918029785 13
			vertex -3.333421468734741 4.9888176918029785 5
			vertex -4.242640495300293 4.242640495300293 5
		endloop
	endfacet
	facet normal -0.4713967531863405 0.8819212556035696 0
		outer loop
			vertex -2.296100616455078 5.543277263641357 13
			vertex -2.296100616455078 5.543277263641357 5
			vertex -3.333421468734741 4.9888176918029785 5
		endloop
	endfacet
	facet normal -0.29028465359725186 0.9569403429085449 0
		outer loop
			vertex -1.1705418825149536 5.884711742401123 13
			vertex -1.1705418825149536 5.884711742401123 5
			vertex -2.296100616455078 5.543277263641357 5
		endloop
	endfacet
	facet normal -0.09801709393545507 0.9951847312416165 0
		outer loop
			vertex 0 6 13
			vertex 0 6 5
			vertex -1.1705418825149536 5.884711742401123 5
		endloop
	endfacet
	facet normal -0.9951847312416165 0.09801709393545507 0
		outer loop
			vertex -6 0 13
			vertex -5.884711742401123 1.1705418825149536 13
			vertex -6 0 5
		endloop
	endfacet
	facet normal -0.9569403429085449 0.29028465359725186 0
		outer loop
			vertex -5.884711742401123 1.1705418825149536 13
			vertex -5.543277263641357 2.296100616455078 13
			vertex -5.884711742401123 1.1705418825149536 5
		endloop
	endfacet
	facet normal -0.8819212556035696 0.4713967531863405 0
		outer loop
			vertex -5.543277263641357 2.296100616455078 13
			vertex -4.9888176918029785 3.333421468734741 13
			vertex -5.543277263641357 2.296100616455078 5
		endloop
	endfacet
	facet normal -0.7730102760923852 0.6343935001681328 0
		outer loop
			vertex -4.9888176918029785 3.333421468734741 13
			vertex -4.242640495300293 4.242640495300293 13
			vertex -4.9888176918029785 3.333421468734741 5
		endloop
	endfacet
	facet normal 0 0 1
		outer loop
			vertex -5.884711742401123 -1.1705418825149536 13
			vertex -5.884711742401123 1.1705418825149536 13
			vertex -6 0 13
		endloop
	endfacet
	facet normal 0 0 1
		outer loop
			vertex -5.884711742401123 -1.1705418825149536 13
			vertex -5.543277263641357 2.296100616455078 13
			vertex -5.884711742401123 1.1705418825149536 13
		endloop
	endfacet
	facet normal 0 0 1
		outer loop
			vertex -5.543277263641357 -2.296100616455078 13
			vertex -4.9888176918029785 3.333421468734741 13
			vertex -5.543277263641357 2.296100616455078 13
		endloop
	endfacet
	facet normal 0 0 1
		outer loop
			vertex -4.9888176918029785 -3.333421468734741 13
			vertex -4.242640495300293 4.242640495300293 13
			vertex -4.9888176918029785 3.333421468734741 13
		endloop
	endfacet
	facet normal 0 0 1
		outer loop
			vertex -4.242640495300293 -4.242640495300293 13
			vertex -3.333421468734741 4.9888176918029785 13
			vertex -4.242640495300293 4.242640495300293 13
		endloop
	endfacet
	facet normal -0.6343935001681328 0.7730102760923852 0
		outer loop
			vertex -4.242640495300293 4.242640495300293 13
			vertex -3.333421468734741 4.9888176918029785 13
			vertex -4.242640495300293 4.242640495300293 5
		endloop
	endfacet
	facet normal 0 0 1
		outer loop
			vertex -3.333421468734741 -4.9888176918029785 13
			vertex -2.296100616455078 5.543277263641357 13
			vertex -3.333421468734741 4.9888176918029785 13
		endloop
	endfacet
	facet normal 0 0 1
		outer loop
			vertex -2.296100616455078 -5.543277263641357 13
			vertex -1.1705418825149536 5.884711742401123 13
			vertex -2.296100616455078 5.543277263641357 13
		endloop
	endfacet
	facet normal 0 0 1
		outer loop
			vertex -1.1705418825149536 -5.884711742401123 13
			vertex 0 6 13
			vertex -1.1705418825149536 5.884711742401123 13
		endloop
	endfacet
	facet normal -0.4713967531863405 0.8819212556035696 0
		outer loop
			vertex -3.333421468734741 4.9888176918029785 13
			vertex -2.296100616455078 5.543277263641357 13
			vertex -3.333421468734741 4.9888176918029785 5
		endloop
	endfacet
	facet normal -0.29028465359725186 0.9569403429085449 0
		outer loop
			vertex -2.296100616455078 5.543277263641357 13
			vertex -1.1705418825149536 5.884711742401123 13
			vertex -2.296100616455078 5.543277263641357 5
		endloop
	endfacet
	facet normal -0.09801709393545507 0.9951847312416165 0
		outer loop
			vertex -1.1705418825149536 5.884711742401123 13
			vertex 0 6 13
			vertex -1.1705418825149536 5.884711742401123 5
		endloop
	endfacet
	facet normal 0.09801709393545507 -0.9951847312416165 0
		outer loop
			vertex 0 -6 13
			vertex 0 -6 5
			vertex 1.1705418825149536 -5.884711742401123 5
		endloop
	endfacet
	facet normal 0.29028465359725186 -0.9569403429085449 0
		outer loop
			vertex 1.1705418825149536 -5.884711742401123 13
			vertex 1.1705418825149536 -5.884711742401123 5
			vertex 2.296100616455078 -5.543277263641357 5
		endloop
	endfacet
	facet normal 0.4713967531863405 -0.8819212556035696 0
		outer loop
			vertex 2.296100616455078 -5.543277263641357 13
			vertex 2.296100616455078 -5.543277263641357 5
			vertex 3.333421468734741 -4.9888176918029785 5
		endloop
	endfacet
	facet normal 0.6343935001681328 -0.7730102760923852 0
		outer loop
			vertex 3.333421468734741 -4.9888176918029785 13
			vertex 3.333421468734741 -4.9888176918029785 5
			vertex 4.242640495300293 -4.242640495300293 5
		endloop
	endfacet
	facet normal 0.7730102760923852 -0.6343935001681328 0
		outer loop
			vertex 4.242640495300293 -4.242640495300293 13
			vertex 4.242640495300293 -4.242640495300293 5
			vertex 4.9888176918029785 -3.333421468734741 5
		endloop
	endfacet
	facet normal 0.8819212556035696 -0.4713967531863405 0
		outer loop
			vertex 4.9888176918029785 -3.333421468734741 13
			vertex 4.9888176918029785 -3.333421468734741 5
			vertex 5.543277263641357 -2.296100616455078 5
		endloop
	endfacet
	facet normal 0.9569403429085449 -0.29028465359725186 0
		outer loop
			vertex 5.543277263641357 -2.296100616455078 13
			vertex 5.543277263641357 -2.296100616455078 5
			vertex 5.884711742401123 -1.1705418825149536 5
		endloop
	endfacet
	facet normal 0.9951847312416165 -0.09801709393545507 0
		outer loop
			vertex 5.884711742401123 -1.1705418825149536 13
			vertex 5.884711742401123 -1.1705418825149536 5
			vertex 6 0 5
		endloop
	endfacet
	facet normal 0.09801709393545507 -0.9951847312416165 0
		outer loop
			vertex 0 -6 13
			vertex 1.1705418825149536 -5.884711742401123 5
			vertex 1.1705418825149536 -5.884711742401123 13
		endloop
	endfacet
	facet normal 0.29028465359725186 -0.9569403429085449 0
		outer loop
			vertex 1.1705418825149536 -5.884711742401123 13
			vertex 2.296100616455078 -5.543277263641357 5
			vertex 2.296100616455078 -5.543277263641357 13
		endloop
	endfacet
	facet normal 0.4713967531863405 -0.8819212556035696 0
		outer loop
			vertex 2.296100616455078 -5.543277263641357 13
			vertex 3.333421468734741 -4.9888176918029785 5
			vertex 3.333421468734741 -4.9888176918029785 13
		endloop
	endfacet
	facet normal 0 0 1
		outer loop
			vertex 0 -6 13
			vertex 1.1705418825149536 -5.884711742401123 13
			vertex 1.1705418825149536 5.884711742401123 13
		endloop
	endfacet
	facet normal 0 0 1
		outer loop
			vertex 1.1705418825149536 -5.884711742401123 13
			vertex 2.296100616455078 -5.543277263641357 13
			vertex 2.296100616455078 5.543277263641357 13
		endloop
	endfacet
	facet normal 0 0 1
		outer loop
			vertex 2.296100616455078 -5.543277263641357 13
			vertex 3.333421468734741 -4.9888176918029785 13
			vertex 3.333421468734741 4.9888176918029785 13
		endloop
	endfacet
	facet normal 0.6343935001681328 -0.7730102760923852 0
		outer loop
			vertex 3.333421468734741 -4.9888176918029785 13
			vertex 4.242640495300293 -4.242640495300293 5
			vertex 4.242640495300293 -4.242640495300293 13
		endloop
	endfacet
	facet normal 0.7730102760923852 -0.6343935001681328 0
		outer loop
			vertex 4.242640495300293 -4.242640495300293 13
			vertex 4.9888176918029785 -3.333421468734741 5
			vertex 4.9888176918029785 -3.333421468734741 13
		endloop
	endfacet
	facet normal 0.8819212556035696 -0.4713967531863405 0
		outer loop
			vertex 4.9888176918029785 -3.333421468734741 13
			vertex 5.543277263641357 -2.296100616455078 5
			vertex 5.543277263641357 -2.296100616455078 13
		endloop
	endfacet
	facet normal 0.9569403429085449 -0.29028465359725186 0
		outer loop
			vertex 5.543277263641357 -2.296100616455078 13
			vertex 5.884711742401123 -1.1705418825149536 5
			vertex 5.884711742401123 -1.1705418825149536 13
		endloop
	endfacet
	facet normal 0.9951847312416165 -0.09801709393545507 0
		outer loop
			vertex 5.884711742401123 -1.1705418825149536 13
			vertex 6 0 5
			vertex 6 0 13
		endloop
	endfacet
	facet normal 0 0 1
		outer loop
			vertex 3.333421468734741 -4.9888176918029785 13
			vertex 4.242640495300293 -4.242640495300293 13
			vertex 4.242640495300293 4.242640495300293 13
		endloop
	endfacet
	facet normal 0 0 1
		outer loop
			vertex 4.242640495300293 -4.242640495300293 13
			vertex 4.9888176918029785 -3.333421468734741 13
			vertex 4.9888176918029785 3.333421468734741 13
		endloop
	endfacet
	facet normal 0 0 1
		outer loop
			vertex 4.9888176918029785 -3.333421468734741 13
			vertex 5.543277263641357 -2.296100616455078 13
			vertex 5.543277263641357 2.296100616455078 13
		endloop
	endfacet
	facet normal 0 0 1
		outer loop
			vertex 5.543277263641357 -2.296100616455078 13
			vertex 5.884711742401123 -1.1705418825149536 13
			vertex 5.884711742401123 1.1705418825149536 13
		endloop
	endfacet
	facet normal 0.09801709393545507 0.9951847312416165 0
		outer loop
			vertex 1.1705418825149536 5.884711742401123 13
			vertex 1.1705418825149536 5.884711742401123 5
			vertex 0 6 5
		endloop
	endfacet
	facet normal 0.4713967531863405 0.8819212556035696 0
		outer loop
			vertex 3.333421468734741 4.9888176918029785 13
			vertex 3.333421468734741 4.9888176918029785 5
			vertex 2.296100616455078 5.543277263641357 5
		endloop
	endfacet
	facet normal 0.29028465359725186 0.9569403429085449 0
		outer loop
			vertex 2.296100616455078 5.543277263641357 13
			vertex 2.296100616455078 5.543277263641357 5
			vertex 1.1705418825149536 5.884711742401123 5
		endloop
	endfacet
	facet normal 0.8819212556035696 0.4713967531863405 0
		outer loop
			vertex 5.543277263641357 2.296100616455078 13
			vertex 5.543277263641357 2.296100616455078 5
			vertex 4.9888176918029785 3.333421468734741 5
		endloop
	endfacet
	facet normal 0.7730102760923852 0.6343935001681328 0
		outer loop
			vertex 4.9888176918029785 3.333421468734741 13
			vertex 4.9888176918029785 3.333421468734741 5
			vertex 4.242640495300293 4.242640495300293 5
		endloop
	endfacet
	facet normal 0.9951847312416165 0.09801709393545507 0
		outer loop
			vertex 6 0 13
			vertex 6 0 5
			vertex 5.884711742401123 1.1705418825149536 5
		endloop
	endfacet
	facet normal 0.9569403429085449 0.29028465359725186 0
		outer loop
			vertex 5.884711742401123 1.1705418825149536 13
			vertex 5.884711742401123 1.1705418825149536 5
			vertex 5.543277263641357 2.296100616455078 5
		endloop
	endfacet
	facet normal 0.6343935001681328 0.7730102760923852 0
		outer loop
			vertex 4.242640495300293 4.242640495300293 13
			vertex 4.242640495300293 4.242640495300293 5
			vertex 3.333421468734741 4.9888176918029785 5
		endloop
	endfacet
	facet normal 0 0 1
		outer loop
			vertex 1.1705418825149536 -5.884711742401123 13
			vertex 2.296100616455078 5.543277263641357 13
			vertex 1.1705418825149536 5.884711742401123 13
		endloop
	endfacet
	facet normal 0 0 1
		outer loop
			vertex 0 -6 13
			vertex 1.1705418825149536 5.884711742401123 13
			vertex 0 6 13
		endloop
	endfacet
	facet normal 0 0 1
		outer loop
			vertex 2.296100616455078 -5.543277263641357 13
			vertex 3.333421468734741 4.9888176918029785 13
			vertex 2.296100616455078 5.543277263641357 13
		endloop
	endfacet
	facet normal 0 0 1
		outer loop
			vertex 3.333421468734741 -4.9888176918029785 13
			vertex 4.242640495300293 4.242640495300293 13
			vertex 3.333421468734741 4.9888176918029785 13
		endloop
	endfacet
	facet normal 0.09801709393545507 0.9951847312416165 0
		outer loop
			vertex 0 6 13
			vertex 1.1705418825149536 5.884711742401123 13
			vertex 0 6 5
		endloop
	endfacet
	facet normal 0.29028465359725186 0.9569403429085449 0
		outer loop
			vertex 1.1705418825149536 5.884711742401123 13
			vertex 2.296100616455078 5.543277263641357 13
			vertex 1.1705418825149536 5.884711742401123 5
		endloop
	endfacet
	facet normal 0.4713967531863405 0.8819212556035696 0
		outer loop
			vertex 2.296100616455078 5.543277263641357 13
			vertex 3.333421468734741 4.9888176918029785 13
			vertex 2.296100616455078 5.543277263641357 5
		endloop
	endfacet
	facet normal 0.6343935001681328 0.7730102760923852 0
		outer loop
			vertex 4.242640495300293 4.242640495300293 13
			vertex 3.333421468734741 4.9888176918029785 5
			vertex 3.333421468734741 4.9888176918029785 13
		endloop
	endfacet
	facet normal 0.8819212556035696 0.4713967531863405 0
		outer loop
			vertex 5.543277263641357 2.296100616455078 13
			vertex 4.9888176918029785 3.333421468734741 5
			vertex 4.9888176918029785 3.333421468734741 13
		endloop
	endfacet
	facet normal 0.9951847312416165 0.09801709393545507 0
		outer loop
			vertex 6 0 13
			vertex 5.884711742401123 1.1705418825149536 5
			vertex 5.884711742401123 1.1705418825149536 13
		endloop
	endfacet
	facet normal 0.9569403429085449 0.29028465359725186 0
		outer loop
			vertex 5.884711742401123 1.1705418825149536 13
			vertex 5.543277263641357 2.296100616455078 5
			vertex 5.543277263641357 2.296100616455078 13
		endloop
	endfacet
	facet normal 0 0 1
		outer loop
			vertex 4.242640495300293 -4.242640495300293 13
			vertex 4.9888176918029785 3.333421468734741 13
			vertex 4.242640495300293 4.242640495300293 13
		endloop
	endfacet
	facet normal 0 0 1
		outer loop
			vertex 4.9888176918029785 -3.333421468734741 13
			vertex 5.543277263641357 2.296100616455078 13
			vertex 4.9888176918029785 3.333421468734741 13
		endloop
	endfacet
	facet normal 0 0 1
		outer loop
			vertex 5.543277263641357 -2.296100616455078 13
			vertex 5.884711742401123 1.1705418825149536 13
			vertex 5.543277263641357 2.296100616455078 13
		endloop
	endfacet
	facet normal 0 0 1
		outer loop
			vertex 5.884711742401123 -1.1705418825149536 13
			vertex 6 0 13
			vertex 5.884711742401123 1.1705418825149536 13
		endloop
	endfacet
	facet normal 0.7730102760923852 0.6343935001681328 0
		outer loop
			vertex 4.242640495300293 4.242640495300293 13
			vertex 4.9888176918029785 3.333421468734741 13
			vertex 4.242640495300293 4.242640495300293 5
		endloop
	endfacet
endsolid exported
