o 
usemtl boolean-intersection-cube-sphere-material
v -8.264241218566895 -8.264241218566895 -5.692508220672607
v -8.264241218566895 -5.692508220672607 -8.264241218566895
v -10 -6.007394313812256 -5.603536128997803
v -10 -5.603536128997803 -6.007394313812256
v -5.692508220672607 -8.264241218566895 -8.264241218566895
v -6.007394313812256 -10 -5.603536128997803
v -5.603536128997803 -10 -6.007394313812256
v -6.007394313812256 -5.603536128997803 -10
v -5.603536128997803 -6.007394313812256 -10
v -9.989847183227539 -7.848972320556641 -2.756192445755005
v -10 -7.832484722137451 -2.7558915615081787
v -10 -7.841207027435303 -2.722034454345703
v -10 -7.78010892868042 -2.8423709869384766
v -7.848972320556641 -9.989847183227539 -2.756192445755005
v -7.832484722137451 -10 -2.7558915615081787
v -7.841207027435303 -10 -2.722034454345703
v -7.78010892868042 -10 -2.8423709869384766
v -10 -2.8423709869384766 -7.78010892868042
v -9.989847183227539 -2.756192445755005 -7.848972320556641
v -10 -2.7558915615081787 -7.832484722137451
v -10 -2.722034454345703 -7.841207027435303
v -7.848972320556641 -2.756192445755005 -9.989847183227539
v -7.832484722137451 -2.7558915615081787 -10
v -7.841207027435303 -2.722034454345703 -10
v -7.78010892868042 -2.8423709869384766 -10
v -2.8423709869384766 -10 -7.78010892868042
v -2.756192445755005 -9.989847183227539 -7.848972320556641
v -2.7558915615081787 -10 -7.832484722137451
v -2.722034454345703 -10 -7.841207027435303
v -2.8423709869384766 -7.78010892868042 -10
v -2.756192445755005 -7.848972320556641 -9.989847183227539
v -2.7558915615081787 -7.832484722137451 -10
v -2.722034454345703 -7.841207027435303 -10
v -9.192388534545898 -9.192388534545898 7.960204409454693e-16
v -10 -8.2083101272583 7.960204409454693e-16
v -8.2083101272583 -10 7.960204409454693e-16
v -10 -7.841207027435303 2.722034454345703
v -9.989847183227539 -7.848972320556641 2.756192445755005
v -10 -7.832484722137451 2.7558915615081787
v -10 -7.78010892868042 2.8423709869384766
v -7.841207027435303 -10 2.722034454345703
v -7.848972320556641 -9.989847183227539 2.756192445755005
v -7.832484722137451 -10 2.7558915615081787
v -7.78010892868042 -10 2.8423709869384766
v -8.264241218566895 -8.264241218566895 5.692508220672607
v -10 -6.007394313812256 5.603536128997803
v -10 -5.603536128997803 6.007394313812256
v -8.264241218566895 -5.692508220672607 8.264241218566895
v -6.007394313812256 -10 5.603536128997803
v -5.603536128997803 -10 6.007394313812256
v -5.692508220672607 -8.264241218566895 8.264241218566895
v -6.007394313812256 -5.603536128997803 10
v -5.603536128997803 -6.007394313812256 10
v -10 -2.8423709869384766 7.78010892868042
v -9.989847183227539 -2.756192445755005 7.848972320556641
v -10 -2.7558915615081787 7.832484722137451
v -10 -2.722034454345703 7.841207027435303
v -7.848972320556641 -2.756192445755005 9.989847183227539
v -7.832484722137451 -2.7558915615081787 10
v -7.841207027435303 -2.722034454345703 10
v -7.78010892868042 -2.8423709869384766 10
v -2.8423709869384766 -10 7.78010892868042
v -2.756192445755005 -9.989847183227539 7.848972320556641
v -2.7558915615081787 -10 7.832484722137451
v -2.722034454345703 -10 7.841207027435303
v -2.8423709869384766 -7.78010892868042 10
v -2.756192445755005 -7.848972320556641 9.989847183227539
v -2.7558915615081787 -7.832484722137451 10
v -2.722034454345703 -7.841207027435303 10
v -9.192388534545898 7.960204409454693e-16 -9.192388534545898
v -10 7.960204409454693e-16 -8.2083101272583
v -8.2083101272583 7.960204409454693e-16 -10
v -10 2.722034454345703 -7.841207027435303
v -9.989847183227539 2.756192445755005 -7.848972320556641
v -10 2.7558915615081787 -7.832484722137451
v -10 2.8423709869384766 -7.78010892868042
v -7.841207027435303 2.722034454345703 -10
v -7.848972320556641 2.756192445755005 -9.989847183227539
v -7.832484722137451 2.7558915615081787 -10
v -7.78010892868042 2.8423709869384766 -10
v -8.264241218566895 5.692508220672607 -8.264241218566895
v -10 5.603536128997803 -6.007394313812256
v -10 6.007394313812256 -5.603536128997803
v -8.264241218566895 8.264241218566895 -5.692508220672607
v -6.007394313812256 5.603536128997803 -10
v -5.603536128997803 6.007394313812256 -10
v -5.692508220672607 8.264241218566895 -8.264241218566895
v -6.007394313812256 10 -5.603536128997803
v -5.603536128997803 10 -6.007394313812256
v -10 7.78010892868042 -2.8423709869384766
v -9.989847183227539 7.848972320556641 -2.756192445755005
v -10 7.832484722137451 -2.7558915615081787
v -10 7.841207027435303 -2.722034454345703
v -7.848972320556641 9.989847183227539 -2.756192445755005
v -7.832484722137451 10 -2.7558915615081787
v -7.841207027435303 10 -2.722034454345703
v -7.78010892868042 10 -2.8423709869384766
v -2.8423709869384766 7.78010892868042 -10
v -2.756192445755005 7.848972320556641 -9.989847183227539
v -2.7558915615081787 7.832484722137451 -10
v -2.722034454345703 7.841207027435303 -10
v -2.8423709869384766 10 -7.78010892868042
v -2.756192445755005 9.989847183227539 -7.848972320556641
v -2.7558915615081787 10 -7.832484722137451
v -2.722034454345703 10 -7.841207027435303
v -10 7.960204409454693e-16 8.2083101272583
v -9.192388534545898 7.960204409454693e-16 9.192388534545898
v -8.2083101272583 7.960204409454693e-16 10
v -10 2.722034454345703 7.841207027435303
v -9.989847183227539 2.756192445755005 7.848972320556641
v -10 2.7558915615081787 7.832484722137451
v -10 2.8423709869384766 7.78010892868042
v -7.841207027435303 2.722034454345703 10
v -7.848972320556641 2.756192445755005 9.989847183227539
v -7.832484722137451 2.7558915615081787 10
v -7.78010892868042 2.8423709869384766 10
v -10 8.2083101272583 7.960204409454693e-16
v -9.192388534545898 9.192388534545898 7.960204409454693e-16
v -8.2083101272583 10 7.960204409454693e-16
v -10 7.78010892868042 2.8423709869384766
v -10 7.841207027435303 2.722034454345703
v -9.989847183227539 7.848972320556641 2.756192445755005
v -10 7.832484722137451 2.7558915615081787
v -7.841207027435303 10 2.722034454345703
v -7.848972320556641 9.989847183227539 2.756192445755005
v -7.832484722137451 10 2.7558915615081787
v -7.78010892868042 10 2.8423709869384766
v -10 5.603536128997803 6.007394313812256
v -10 6.007394313812256 5.603536128997803
v -8.264241218566895 5.692508220672607 8.264241218566895
v -8.264241218566895 8.264241218566895 5.692508220672607
v -6.007394313812256 5.603536128997803 10
v -5.603536128997803 6.007394313812256 10
v -6.007394313812256 10 5.603536128997803
v -5.603536128997803 10 6.007394313812256
v -5.692508220672607 8.264241218566895 8.264241218566895
v -2.8423709869384766 7.78010892868042 10
v -2.756192445755005 7.848972320556641 9.989847183227539
v -2.7558915615081787 7.832484722137451 10
v -2.722034454345703 7.841207027435303 10
v -2.8423709869384766 10 7.78010892868042
v -2.756192445755005 9.989847183227539 7.848972320556641
v -2.7558915615081787 10 7.832484722137451
v -2.722034454345703 10 7.841207027435303
v 7.960204409454693e-16 -9.192388534545898 -9.192388534545898
v 7.960204409454693e-16 -10 -8.2083101272583
v 7.960204409454693e-16 -8.2083101272583 -10
v 2.722034454345703 -10 -7.841207027435303
v 2.756192445755005 -9.989847183227539 -7.848972320556641
v 2.7558915615081787 -10 -7.832484722137451
v 2.8423709869384766 -10 -7.78010892868042
v 2.722034454345703 -7.841207027435303 -10
v 2.756192445755005 -7.848972320556641 -9.989847183227539
v 2.7558915615081787 -7.832484722137451 -10
v 2.8423709869384766 -7.78010892868042 -10
v 5.692508220672607 -8.264241218566895 -8.264241218566895
v 5.603536128997803 -10 -6.007394313812256
v 6.007394313812256 -10 -5.603536128997803
v 5.603536128997803 -6.007394313812256 -10
v 6.007394313812256 -5.603536128997803 -10
v 8.264241218566895 -8.264241218566895 -5.692508220672607
v 8.264241218566895 -5.692508220672607 -8.264241218566895
v 10 -6.007394313812256 -5.603536128997803
v 10 -5.603536128997803 -6.007394313812256
v 7.78010892868042 -10 -2.8423709869384766
v 7.848972320556641 -9.989847183227539 -2.756192445755005
v 7.832484722137451 -10 -2.7558915615081787
v 7.841207027435303 -10 -2.722034454345703
v 9.989847183227539 -7.848972320556641 -2.756192445755005
v 10 -7.832484722137451 -2.7558915615081787
v 10 -7.841207027435303 -2.722034454345703
v 10 -7.78010892868042 -2.8423709869384766
v 7.78010892868042 -2.8423709869384766 -10
v 7.848972320556641 -2.756192445755005 -9.989847183227539
v 7.832484722137451 -2.7558915615081787 -10
v 7.841207027435303 -2.722034454345703 -10
v 10 -2.8423709869384766 -7.78010892868042
v 9.989847183227539 -2.756192445755005 -7.848972320556641
v 10 -2.7558915615081787 -7.832484722137451
v 10 -2.722034454345703 -7.841207027435303
v 7.960204409454693e-16 -10 8.2083101272583
v 7.960204409454693e-16 -9.192388534545898 9.192388534545898
v 7.960204409454693e-16 -8.2083101272583 10
v 2.722034454345703 -10 7.841207027435303
v 2.756192445755005 -9.989847183227539 7.848972320556641
v 2.7558915615081787 -10 7.832484722137451
v 2.8423709869384766 -10 7.78010892868042
v 2.722034454345703 -7.841207027435303 10
v 2.756192445755005 -7.848972320556641 9.989847183227539
v 2.7558915615081787 -7.832484722137451 10
v 2.8423709869384766 -7.78010892868042 10
v 8.2083101272583 -10 7.960204409454693e-16
v 9.192388534545898 -9.192388534545898 7.960204409454693e-16
v 10 -8.2083101272583 7.960204409454693e-16
v 7.78010892868042 -10 2.8423709869384766
v 7.841207027435303 -10 2.722034454345703
v 7.848972320556641 -9.989847183227539 2.756192445755005
v 7.832484722137451 -10 2.7558915615081787
v 10 -7.841207027435303 2.722034454345703
v 9.989847183227539 -7.848972320556641 2.756192445755005
v 10 -7.832484722137451 2.7558915615081787
v 10 -7.78010892868042 2.8423709869384766
v 5.603536128997803 -10 6.007394313812256
v 6.007394313812256 -10 5.603536128997803
v 5.692508220672607 -8.264241218566895 8.264241218566895
v 5.603536128997803 -6.007394313812256 10
v 6.007394313812256 -5.603536128997803 10
v 8.264241218566895 -8.264241218566895 5.692508220672607
v 10 -6.007394313812256 5.603536128997803
v 10 -5.603536128997803 6.007394313812256
v 8.264241218566895 -5.692508220672607 8.264241218566895
v 7.78010892868042 -2.8423709869384766 10
v 7.848972320556641 -2.756192445755005 9.989847183227539
v 7.832484722137451 -2.7558915615081787 10
v 7.841207027435303 -2.722034454345703 10
v 10 -2.8423709869384766 7.78010892868042
v 9.989847183227539 -2.756192445755005 7.848972320556641
v 10 -2.7558915615081787 7.832484722137451
v 10 -2.722034454345703 7.841207027435303
v 7.960204409454693e-16 8.2083101272583 -10
v 7.960204409454693e-16 9.192388534545898 -9.192388534545898
v 7.960204409454693e-16 10 -8.2083101272583
v 2.722034454345703 7.841207027435303 -10
v 2.756192445755005 7.848972320556641 -9.989847183227539
v 2.7558915615081787 7.832484722137451 -10
v 2.8423709869384766 7.78010892868042 -10
v 2.722034454345703 10 -7.841207027435303
v 2.756192445755005 9.989847183227539 -7.848972320556641
v 2.7558915615081787 10 -7.832484722137451
v 2.8423709869384766 10 -7.78010892868042
v 8.2083101272583 7.960204409454693e-16 -10
v 9.192388534545898 7.960204409454693e-16 -9.192388534545898
v 10 7.960204409454693e-16 -8.2083101272583
v 7.78010892868042 2.8423709869384766 -10
v 7.841207027435303 2.722034454345703 -10
v 7.848972320556641 2.756192445755005 -9.989847183227539
v 7.832484722137451 2.7558915615081787 -10
v 10 2.722034454345703 -7.841207027435303
v 9.989847183227539 2.756192445755005 -7.848972320556641
v 10 2.7558915615081787 -7.832484722137451
v 10 2.8423709869384766 -7.78010892868042
v 5.603536128997803 6.007394313812256 -10
v 6.007394313812256 5.603536128997803 -10
v 5.692508220672607 8.264241218566895 -8.264241218566895
v 5.603536128997803 10 -6.007394313812256
v 6.007394313812256 10 -5.603536128997803
v 8.264241218566895 5.692508220672607 -8.264241218566895
v 10 5.603536128997803 -6.007394313812256
v 10 6.007394313812256 -5.603536128997803
v 8.264241218566895 8.264241218566895 -5.692508220672607
v 7.78010892868042 10 -2.8423709869384766
v 7.848972320556641 9.989847183227539 -2.756192445755005
v 7.832484722137451 10 -2.7558915615081787
v 7.841207027435303 10 -2.722034454345703
v 10 7.78010892868042 -2.8423709869384766
v 9.989847183227539 7.848972320556641 -2.756192445755005
v 10 7.832484722137451 -2.7558915615081787
v 10 7.841207027435303 -2.722034454345703
v 7.960204409454693e-16 8.2083101272583 10
v 7.960204409454693e-16 10 8.2083101272583
v 7.960204409454693e-16 9.192388534545898 9.192388534545898
v 2.722034454345703 7.841207027435303 10
v 2.756192445755005 7.848972320556641 9.989847183227539
v 2.7558915615081787 7.832484722137451 10
v 2.8423709869384766 7.78010892868042 10
v 2.722034454345703 10 7.841207027435303
v 2.756192445755005 9.989847183227539 7.848972320556641
v 2.7558915615081787 10 7.832484722137451
v 2.8423709869384766 10 7.78010892868042
v 8.2083101272583 7.960204409454693e-16 10
v 10 7.960204409454693e-16 8.2083101272583
v 9.192388534545898 7.960204409454693e-16 9.192388534545898
v 7.78010892868042 2.8423709869384766 10
v 7.841207027435303 2.722034454345703 10
v 7.848972320556641 2.756192445755005 9.989847183227539
v 7.832484722137451 2.7558915615081787 10
v 10 2.722034454345703 7.841207027435303
v 9.989847183227539 2.756192445755005 7.848972320556641
v 10 2.7558915615081787 7.832484722137451
v 10 2.8423709869384766 7.78010892868042
v 8.2083101272583 10 7.960204409454693e-16
v 10 8.2083101272583 7.960204409454693e-16
v 9.192388534545898 9.192388534545898 7.960204409454693e-16
v 7.78010892868042 10 2.8423709869384766
v 7.841207027435303 10 2.722034454345703
v 7.848972320556641 9.989847183227539 2.756192445755005
v 7.832484722137451 10 2.7558915615081787
v 10 7.78010892868042 2.8423709869384766
v 10 7.841207027435303 2.722034454345703
v 9.989847183227539 7.848972320556641 2.756192445755005
v 10 7.832484722137451 2.7558915615081787
v 5.603536128997803 6.007394313812256 10
v 6.007394313812256 5.603536128997803 10
v 5.603536128997803 10 6.007394313812256
v 6.007394313812256 10 5.603536128997803
v 5.692508220672607 8.264241218566895 8.264241218566895
v 10 5.603536128997803 6.007394313812256
v 10 6.007394313812256 5.603536128997803
v 8.264241218566895 5.692508220672607 8.264241218566895
v 8.264241218566895 8.264241218566895 5.692508220672607
vn -0.6297647901234635 -0.6341113992033127 -0.4486636184505792
vn -0.631374159436701 -0.4502591937886424 -0.631374159436701
vn -0.9978323269018932 -0.05069504078611367 -0.04196022198758898
vn -0.9993191122504939 -0.020906663931247817 -0.030401041004394596
vn -0.4469926226925806 -0.6325336335952453 -0.6325336335952453
vn -0.215426313382462 -0.9652169458176105 -0.14814773372875278
vn -0.43524663719401 -0.7307807648513436 -0.525851536590501
vn -0.215426313382462 -0.14814773372875278 -0.9652169458176105
vn -0.43524663719401 -0.525851536590501 -0.7307807648513436
vn -0.7049399217291209 -0.6792627764768234 -0.20411219278998977
vn -0.9999993955620445 -0.0009803639176922004 -0.000497757103773812
vn -0.9999987355335364 -0.0015756772862715708 -0.00021487768115839923
vn -0.989305756746595 -0.12273859506999904 -0.07879947302038189
vn -0.6792627764768234 -0.7049399217291209 -0.20411219278998977
vn -0.0008602776313545353 -0.9999995345700411 -0.0004367861015255821
vn -0.0007804371321499769 -0.999999689795275 -0.00010642949071053832
vn -0.07002231350472032 -0.9965319451007201 -0.044955066513379306
vn -0.989305756746595 -0.07879947302038189 -0.12273859506999904
vn -0.7049399217291209 -0.20411219278998977 -0.6792627764768234
vn -0.9999993955620448 -0.0004977571037738121 -0.0009803639176922006
vn -0.9999987355335364 -0.00021487768115839923 -0.0015756772862715708
vn -0.6792627764768234 -0.20411219278998977 -0.7049399217291209
vn -0.0008602776313545353 -0.0004367861015255821 -0.9999995345700411
vn -0.0007804371321499769 -0.00010642949071053832 -0.999999689795275
vn -0.07002231350472032 -0.044955066513379306 -0.9965319451007201
vn -0.35922142189431405 -0.746920929249145 -0.5595257773345398
vn -0.20411219278998977 -0.7049399217291209 -0.6792627764768234
vn -0.013015064752252845 -0.9995866680078245 -0.025633985849066628
vn -0.0007093230306060222 -0.9999862210704017 -0.005201396944668356
vn -0.35922142189431405 -0.5595257773345398 -0.746920929249145
vn -0.20411219278998977 -0.6792627764768234 -0.7049399217291209
vn -0.013015064752252845 -0.025633985849066628 -0.9995866680078245
vn -0.0007093230306060222 -0.005201396944668356 -0.9999862210704017
vn -0.7071067811865476 -0.7071067811865476 -1.885855059969595e-9
vn -0.9936517461463551 -0.11249981057894924 -1.4154272176570175e-10
vn -0.05577422947485397 -0.998443406171069 -7.017288703106733e-11
vn -0.9999862210679796 -0.005201397410317041 0.0007093230306043041
vn -0.7049399517138151 -0.679262747935768 0.20411218421366611
vn -0.9995866681153952 -0.025633982126534838 0.013015063822330865
vn -0.746920929249145 -0.5595257773345398 0.35922142189431405
vn -0.0006931378113426011 -0.9999997553125329 0.00009452432945951893
vn -0.679262747935768 -0.7049399517138151 0.20411218421366611
vn -0.0005671324191728794 -0.9999997977232397 0.00028794843144315166
vn -0.08127273832838981 -0.9953251742724746 0.052177959562186814
vn -0.631374159436701 -0.631374159436701 0.4502591937886424
vn -0.7603591169042506 -0.5351687133225581 0.3680332343977455
vn -0.9213996605074535 -0.24778923595323268 0.29937127477843023
vn -0.6297647901234635 -0.4486636184505792 0.6341113992033127
vn -0.06952516531701597 -0.9964337654190613 0.04781215870918907
vn -0.10775089141511605 -0.9856178648562925 0.1301812961810217
vn -0.446992565139854 -0.6325336539306399 0.6325336539306399
vn -0.5351687617259617 -0.3680331968923782 0.7603591009897078
vn -0.24778923595323268 -0.29937127477843023 0.9213996605074535
vn -0.9965319449338301 -0.04495507023114088 0.07002231349299365
vn -0.7049399195850399 -0.20411220707034228 0.6792627744108396
vn -0.9999995345700411 -0.0004367861015255821 0.0008602776313545353
vn -0.999999689795275 -0.00010642949071053832 0.0007804371321499769
vn -0.6792627764768234 -0.20411219278998977 0.7049399217291209
vn -0.025633983987956088 -0.013015063821709432 0.9995866680676678
vn -0.005201396944668356 -0.0007093230306060222 0.9999862210704017
vn -0.5595257773345398 -0.35922142189431405 0.746920929249145
vn -0.05217795959378209 -0.995325174875173 0.08127273092702203
vn -0.20411220707034228 -0.7049399195850399 0.6792627744108396
vn -0.0002879484314431421 -0.9999997977232066 0.0005671324773805201
vn -0.00009452432945952272 -0.9999997553125731 0.0006931377531349684
vn -0.044955066513379306 -0.07002231350472032 0.9965319451007201
vn -0.20411219278998977 -0.6792627764768234 0.7049399217291209
vn -0.0004367861015255821 -0.0008602776313545353 0.9999995345700411
vn -0.00010642949071053832 -0.0007804371321499769 0.999999689795275
vn -0.7071067811865476 -9.137354362980049e-10 -0.7071067811865476
vn -0.9936517461463551 -1.4154272176570175e-10 -0.11249981057894924
vn -0.05577422947485397 -7.017288703106733e-11 -0.998443406171069
vn -0.9999862210679796 0.0007093230306043041 -0.005201397410317041
vn -0.7049399517138151 0.20411218421366611 -0.679262747935768
vn -0.9995866681153952 0.013015063822330865 -0.025633982126534838
vn -0.746920929249145 0.35922142189431405 -0.5595257773345398
vn -0.000693137811342601 0.0000945243294595189 -0.9999997553125327
vn -0.679262747935768 0.20411218421366611 -0.7049399517138151
vn -0.0005671324191728794 0.00028794843144315166 -0.9999997977232397
vn -0.08127273832838981 0.052177959562186814 -0.9953251742724746
vn -0.631374159436701 0.4502591937886424 -0.631374159436701
vn -0.7603591169042506 0.3680332343977455 -0.5351687133225581
vn -0.9213996605074535 0.29937127477843023 -0.24778923595323268
vn -0.6325336539306399 0.6325336539306399 -0.446992565139854
vn -0.07884518701031451 0.05422149529048697 -0.9954112044445612
vn -0.04196022198758898 0.05069504078611367 -0.9978323269018932
vn -0.4486636184505792 0.6341113992033127 -0.6297647901234635
vn -0.05069504078611367 0.9978323269018932 -0.04196022198758898
vn -0.020906663931247817 0.9993191122504939 -0.030401041004394596
vn -0.9965319449338301 0.07002231349299365 -0.04495507023114088
vn -0.7049399217291209 0.6792627764768234 -0.20411219278998977
vn -0.9999995345700411 0.0008602776313545353 -0.0004367861015255821
vn -0.999999689795275 0.0007804371321499769 -0.00010642949071053832
vn -0.6792627764768234 0.7049399217291209 -0.20411219278998977
vn -0.0009803639176922004 0.9999993955620445 -0.000497757103773812
vn -0.0015756772862715708 0.9999987355335364 -0.00021487768115839923
vn -0.12273859506999904 0.989305756746595 -0.07879947302038189
vn -0.07879947316450199 0.12273858039331995 -0.9893057585559835
vn -0.20411220707034228 0.6792627744108396 -0.7049399195850399
vn -0.0004977571037738121 0.0009803639176922006 -0.9999993955620448
vn -0.00021487768115839923 0.0015756772862715708 -0.9999987355335364
vn -0.07879947302038189 0.989305756746595 -0.12273859506999904
vn -0.20411219278998977 0.7049399217291209 -0.6792627764768234
vn -0.0004977571037738121 0.9999993955620448 -0.0009803639176922006
vn -0.00021487768115839923 0.9999987355335364 -0.0015756772862715708
vn -0.998443406171069 -7.017288703106733e-11 0.05577422947485397
vn -0.7071067811865476 -9.137354362980049e-10 0.7071067811865476
vn -0.11249981057894924 -1.4154272176570175e-10 0.9936517461463551
vn -0.9999997553125327 0.0000945243294595189 0.000693137811342601
vn -0.7049399517138151 0.20411218421366611 0.679262747935768
vn -0.9999997977232394 0.0002879484314431516 0.0005671324191728793
vn -0.995325174875173 0.05217795959378209 0.08127273092702203
vn -0.001575677402686602 0.00021487768115835982 0.999998735533353
vn -0.679262747935768 0.20411218421366611 0.7049399517138151
vn -0.0009803638012769915 0.0004977571037738688 0.9999993955621587
vn -0.12273858046537997 0.07879946576018451 0.9893057591368065
vn -0.998443406171069 0.05577422947485397 -7.017288703106733e-11
vn -0.7071067811865476 0.7071067811865476 -9.137354362980049e-10
vn -0.11249981057894924 0.9936517461463551 -1.4154272176570175e-10
vn -0.995325174875173 0.08127273092702203 0.05217795959378209
vn -0.9999997553125329 0.0006931378113426011 0.00009452432945951893
vn -0.7049399517138151 0.679262747935768 0.20411218421366611
vn -0.9999997977232397 0.0005671324191728794 0.00028794843144315166
vn -0.005201397410317041 0.9999862210679796 0.0007093230306043041
vn -0.679262747935768 0.7049399517138151 0.20411218421366611
vn -0.025633982126534838 0.9995866681153952 0.013015063822330865
vn -0.5595257773345398 0.746920929249145 0.35922142189431405
vn -0.9856178667682457 0.10775089162413687 0.13018128153239314
vn -0.9964337654190613 0.06952516531701597 0.04781215870918907
vn -0.6325336335952453 0.4469926226925806 0.6325336335952453
vn -0.6313741679089652 0.6313741679089652 0.4502591700282447
vn -0.05069503336260509 0.04196021828470623 0.9978323274347571
vn -0.05422149529048697 0.07884518701031451 0.9954112044445612
vn -0.5351687133225581 0.7603591169042506 0.3680332343977455
vn -0.24778923595323268 0.9213996605074535 0.29937127477843023
vn -0.4486635946474355 0.6297647985441854 0.6341114076821541
vn -0.05217795959378209 0.08127273092702203 0.995325174875173
vn -0.20411219278998977 0.6792627764768234 0.7049399217291209
vn -0.0002879484314431421 0.0005671324773805201 0.9999997977232066
vn -0.00009452432945952272 0.0006931377531349684 0.9999997553125731
vn -0.04495507023114088 0.9965319449338301 0.07002231349299365
vn -0.20411219278998977 0.7049399217291209 0.6792627764768234
vn -0.0004367861015255821 0.9999995345700411 0.0008602776313545353
vn -0.00010642949071053832 0.999999689795275 0.0007804371321499769
vn 2.996340449300619e-10 -0.7071067811865476 -0.7071067811865476
vn -1.4154272176570175e-10 -0.9936517461463551 -0.11249981057894924
vn -1.4154272176570175e-10 -0.11249981057894924 -0.9936517461463551
vn 0.00021487768115835982 -0.999998735533353 -0.001575677402686602
vn 0.20411218421366611 -0.7049399517138151 -0.679262747935768
vn 0.0004977571037738689 -0.9999993955621589 -0.0009803638012769917
vn 0.07879946576018451 -0.9893057591368065 -0.12273858046537997
vn 0.00021487768115835982 -0.001575677402686602 -0.999998735533353
vn 0.20411218421366611 -0.679262747935768 -0.7049399517138151
vn 0.0004977571037738688 -0.0009803638012769915 -0.9999993955621587
vn 0.07879946576018451 -0.12273858046537997 -0.9893057591368065
vn 0.4502591937886424 -0.631374159436701 -0.631374159436701
vn 0.020906662072968454 -0.9993191124591723 -0.03040103542280764
vn 0.05069503707832155 -0.9978323272463127 -0.04196021827678189
vn 0.019875820337174298 -0.02890205699266721 -0.9993846220887717
vn 0.1301812961810217 -0.10775089141511605 -0.9856178648562925
vn 0.6341113992033127 -0.6297647901234635 -0.4486636184505792
vn 0.6325336539306399 -0.446992565139854 -0.6325336539306399
vn 0.9652169458176105 -0.215426313382462 -0.14814773372875278
vn 0.7307807648513436 -0.43524663719401 -0.525851536590501
vn 0.12273858039331995 -0.9893057585559835 -0.07879947316450199
vn 0.6792627764768234 -0.7049399217291209 -0.20411219278998977
vn 0.0009803639176922004 -0.9999993955620445 -0.000497757103773812
vn 0.0015756772862715708 -0.9999987355335364 -0.00021487768115839923
vn 0.7049399217291209 -0.6792627764768234 -0.20411219278998977
vn 0.9999995345700411 -0.0008602776313545353 -0.0004367861015255821
vn 0.999999689795275 -0.0007804371321499769 -0.00010642949071053832
vn 0.9965319451007201 -0.07002231350472032 -0.044955066513379306
vn 0.08127273092702203 -0.05217795959378209 -0.995325174875173
vn 0.6792627764768234 -0.20411219278998977 -0.7049399217291209
vn 0.0005671324773805201 -0.0002879484314431421 -0.9999997977232066
vn 0.0006931377531349684 -0.00009452432945952272 -0.9999997553125731
vn 0.746920929249145 -0.35922142189431405 -0.5595257773345398
vn 0.7049399217291209 -0.20411219278998977 -0.6792627764768234
vn 0.9995866680078245 -0.013015064752252845 -0.025633985849066628
vn 0.9999862210704017 -0.0007093230306060222 -0.005201396944668356
vn -7.017288703106733e-11 -0.998443406171069 0.05577422947485397
vn 2.996340449300619e-10 -0.7071067811865476 0.7071067811865476
vn -7.017288703106733e-11 -0.05577422947485397 0.998443406171069
vn 0.00010642949071053347 -0.9999996897952295 0.0007804371903576015
vn 0.20411218421366611 -0.7049399517138151 0.679262747935768
vn 0.00043678610152562584 -0.9999995345701412 0.0008602775149392982
vn 0.04495507023114088 -0.9965319449338301 0.07002231349299365
vn 0.0000945243294595189 -0.000693137811342601 0.9999997553125327
vn 0.20411218421366611 -0.679262747935768 0.7049399517138151
vn 0.00028794843144315166 -0.0005671324191728794 0.9999997977232397
vn 0.052177959562186814 -0.08127273832838981 0.9953251742724746
vn 0.11249981057894924 -0.9936517461463551 -1.4154272176570175e-10
vn 0.7071067811865476 -0.7071067811865476 -9.137354362980049e-10
vn 0.998443406171069 -0.05577422947485397 -7.017288703106733e-11
vn 0.5595257304001885 -0.7469209461629459 0.35922145983109816
vn 0.005201397410317041 -0.9999862210679796 0.0007093230306043041
vn 0.679262747935768 -0.7049399517138151 0.20411218421366611
vn 0.02563398398764537 -0.9995866680555516 0.013015064752874273
vn 0.9999997553125329 -0.0006931378113426011 0.00009452432945951893
vn 0.7049399517138151 -0.679262747935768 0.20411218421366611
vn 0.9999997977232397 -0.0005671324191728794 0.00028794843144315166
vn 0.9953251742724746 -0.08127273832838981 0.052177959562186814
vn 0.14814773420432212 -0.9652169489160554 0.215426299172841
vn 0.5258514934677218 -0.7307807877563461 0.4352466508360293
vn 0.448663594531195 -0.6341114671225127 0.6297647387763798
vn 0.10775089162413687 -0.13018128153239314 0.9856178667682457
vn 0.028902058853756404 -0.019875820336104296 0.9993846220349706
vn 0.6325336335952453 -0.6325336335952453 0.4469926226925806
vn 0.988572840801504 -0.11612585989332189 0.09611723619455995
vn 0.9954112044445612 -0.05422149529048697 0.07884518701031451
vn 0.6313741679089652 -0.4502591700282447 0.6313741679089652
vn 0.12273858039331995 -0.07879947316450199 0.9893057585559835
vn 0.6792627764768234 -0.20411219278998977 0.7049399217291209
vn 0.0009803639176922006 -0.0004977571037738121 0.9999993955620448
vn 0.0015756772862715708 -0.00021487768115839923 0.9999987355335364
vn 0.995325174875173 -0.05217795959378209 0.08127273092702203
vn 0.7049399217291209 -0.20411219278998977 0.6792627764768234
vn 0.9999997977232066 -0.0002879484314431421 0.0005671324773805201
vn 0.9999997553125731 -0.00009452432945952272 0.0006931377531349684
vn -1.4154272176570175e-10 0.11249981057894924 -0.9936517461463551
vn 2.996340449300619e-10 0.7071067811865476 -0.7071067811865476
vn -1.4154272176570175e-10 0.9936517461463551 -0.11249981057894924
vn 0.0007093230306043041 0.005201397410317041 -0.9999862210679796
vn 0.20411218421366611 0.679262747935768 -0.7049399517138151
vn 0.013015063822330865 0.025633982126534838 -0.9995866681153952
vn 0.35922145983109816 0.5595257304001885 -0.7469209461629459
vn 0.0007093230306043041 0.9999862210679796 -0.005201397410317041
vn 0.20411218421366611 0.7049399517138151 -0.679262747935768
vn 0.013015063822330865 0.9995866681153952 -0.025633982126534838
vn 0.35922142189431405 0.746920929249145 -0.5595257773345398
vn 0.05577422947485397 -7.017288703106733e-11 -0.998443406171069
vn 0.7071067811865476 2.996340449300619e-10 -0.7071067811865476
vn 0.9936517461463551 -1.4154272176570175e-10 -0.11249981057894924
vn 0.07002231349299365 0.04495507023114088 -0.9965319449338301
vn 0.0007804371903576015 0.00010642949071053347 -0.9999996897952295
vn 0.679262747935768 0.20411218421366611 -0.7049399517138151
vn 0.0008602775149392982 0.00043678610152562584 -0.9999995345701412
vn 0.999998735533353 0.00021487768115835982 -0.001575677402686602
vn 0.7049399517138151 0.20411218421366611 -0.679262747935768
vn 0.9999993955621589 0.0004977571037738689 -0.0009803638012769917
vn 0.9893057591368065 0.07879946576018451 -0.12273858046537997
vn 0.3680332343977455 0.5351687133225581 -0.7603591169042506
vn 0.29937124875246823 0.24778922417776053 -0.9213996721302712
vn 0.4502591700282447 0.6313741679089652 -0.6313741679089652
vn 0.3680332343977455 0.7603591169042506 -0.5351687133225581
vn 0.29937127477843023 0.9213996605074535 -0.24778923595323268
vn 0.6325336335952453 0.4469926226925806 -0.6325336335952453
vn 0.9976097840893419 0.04405906379538606 -0.05323079547302313
vn 0.9993846220349706 0.028902058853756404 -0.019875820336104296
vn 0.634111450164828 0.6297647219349373 -0.44866364213748144
vn 0.07002231349299365 0.9965319449338301 -0.04495507023114088
vn 0.6792627764768234 0.7049399217291209 -0.20411219278998977
vn 0.0008602776313545353 0.9999995345700411 -0.0004367861015255821
vn 0.0007804371321499769 0.999999689795275 -0.00010642949071053832
vn 0.9893057585559835 0.12273858039331995 -0.07879947316450199
vn 0.7049399217291209 0.6792627764768234 -0.20411219278998977
vn 0.9999993955620445 0.0009803639176922004 -0.000497757103773812
vn 0.9999987355335364 0.0015756772862715708 -0.00021487768115839923
vn -7.017288703106733e-11 0.05577422947485397 0.998443406171069
vn -7.017288703106733e-11 0.998443406171069 0.05577422947485397
vn 2.996340449300619e-10 0.7071067811865476 0.7071067811865476
vn 0.00010642949071053347 0.0007804371903576015 0.9999996897952295
vn 0.20411218421366611 0.679262747935768 0.7049399517138151
vn 0.00043678610152562584 0.0008602775149392982 0.9999995345701412
vn 0.04495507023114088 0.07002231349299365 0.9965319449338301
vn 0.0000945243294595189 0.9999997553125327 0.000693137811342601
vn 0.20411218421366611 0.7049399517138151 0.679262747935768
vn 0.0002879484314431516 0.9999997977232394 0.0005671324191728793
vn 0.05217795959378209 0.995325174875173 0.08127273092702203
vn 0.11249981057894924 -1.4154272176570175e-10 0.9936517461463551
vn 0.998443406171069 -7.017288703106733e-11 0.05577422947485397
vn 0.7071067811865476 2.996340449300619e-10 0.7071067811865476
vn 0.5595257304001885 0.35922145983109816 0.7469209461629459
vn 0.005201397410317041 0.0007093230306043041 0.9999862210679796
vn 0.679262747935768 0.20411218421366611 0.7049399517138151
vn 0.02563398398764537 0.013015064752874273 0.9995866680555516
vn 0.9999996897952295 0.00010642949071053347 0.0007804371903576015
vn 0.7049399517138151 0.20411218421366611 0.679262747935768
vn 0.9999995345701412 0.00043678610152562584 0.0008602775149392982
vn 0.9965319449338301 0.04495507023114088 0.07002231349299365
vn 0.05577422947485397 0.998443406171069 -7.017288703106733e-11
vn 0.9936517461463551 0.11249981057894924 -1.4154272176570175e-10
vn 0.7071067811865476 0.7071067811865476 2.996340449300619e-10
vn 0.08127273092702203 0.995325174875173 0.05217795959378209
vn 0.0006931378113426011 0.9999997553125329 0.00009452432945951893
vn 0.679262747935768 0.7049399517138151 0.20411218421366611
vn 0.0005671324191728794 0.9999997977232397 0.00028794843144315166
vn 0.7469209461629459 0.5595257304001885 0.35922145983109816
vn 0.9999862210679796 0.005201397410317041 0.0007093230306043041
vn 0.7049399517138151 0.679262747935768 0.20411218421366611
vn 0.9995866680555516 0.02563398398764537 0.013015064752874273
vn 0.14814773420432212 0.215426299172841 0.9652169489160554
vn 0.5258514934677218 0.4352466508360293 0.7307807877563461
vn 0.10775089162413687 0.9856178667682457 0.13018128153239314
vn 0.06952516531701597 0.9964337654190613 0.04781215870918907
vn 0.4486635708442909 0.6297648069649073 0.6341114161609955
vn 0.9652169489160554 0.14814773420432212 0.215426299172841
vn 0.7307807877563461 0.5258514934677218 0.4352466508360293
vn 0.6341114161609955 0.4486635708442909 0.6297648069649073
vn 0.6297648069649073 0.6341114161609955 0.4486635708442909
f 3//3 13//13 54//54
f 4//4 90//90 18//18
f 3//3 129//129 4//4
f 7//7 29//29 6//6
f 6//6 146//146 17//17
f 7//7 26//26 28//28
f 7//7 28//28 29//29
f 6//6 29//29 146//146
f 8//8 33//33 9//9
f 8//8 25//25 147//147
f 9//9 32//32 30//30
f 9//9 33//33 32//32
f 8//8 147//147 33//33
f 17//17 146//146 148//148
f 17//17 148//148 150//150
f 17//17 150//150 151//151
f 25//25 152//152 147//147
f 25//25 154//154 152//152
f 25//25 155//155 154//154
f 15//15 17//17 157//157
f 15//15 157//157 16//16
f 36//36 16//16 157//157
f 36//36 157//157 41//41
f 41//41 157//157 43//43
f 44//44 43//43 157//157
f 25//25 23//23 159//159
f 24//24 159//159 23//23
f 24//24 72//72 159//159
f 72//72 77//77 159//159
f 77//77 79//79 159//159
f 79//79 80//80 159//159
f 12//12 35//35 54//54
f 12//12 54//54 11//11
f 13//13 11//11 54//54
f 35//35 37//37 47//47
f 37//37 39//39 46//46
f 39//39 40//40 46//46
f 37//37 46//46 47//47
f 35//35 47//47 54//54
f 3//3 54//54 56//56
f 3//3 56//56 57//57
f 3//3 57//57 106//106
f 3//3 106//106 109//109
f 3//3 109//109 111//111
f 3//3 111//111 112//112
f 53//53 60//60 52//52
f 52//52 60//60 59//59
f 52//52 59//59 61//61
f 53//53 108//108 60//60
f 53//53 66//66 108//108
f 66//66 113//113 108//108
f 66//66 115//115 113//113
f 66//66 116//116 115//115
f 44//44 157//157 49//49
f 49//49 158//158 50//50
f 50//50 158//158 62//62
f 66//66 68//68 132//132
f 69//69 132//132 68//68
f 69//69 183//183 132//132
f 183//183 188//188 132//132
f 132//132 188//188 190//190
f 132//132 190//190 191//191
f 20//20 90//90 21//21
f 20//20 18//18 90//90
f 21//21 90//90 71//71
f 71//71 83//83 73//73
f 73//73 82//82 75//75
f 76//76 75//75 82//82
f 73//73 83//83 82//82
f 71//71 90//90 83//83
f 4//4 92//92 90//90
f 4//4 93//93 92//92
f 4//4 117//117 93//93
f 4//4 121//121 117//117
f 4//4 123//123 121//121
f 4//4 120//120 123//123
f 88//88 97//97 141//141
f 85//85 159//159 80//80
f 86//86 159//159 85//85
f 98//98 234//234 86//86
f 89//89 251//251 102//102
f 88//88 295//295 89//89
f 129//129 3//3 128//128
f 3//3 112//112 128//128
f 4//4 129//129 120//120
f 66//66 132//132 116//116
f 96//96 119//119 141//141
f 96//96 141//141 95//95
f 97//97 95//95 141//141
f 119//119 124//124 135//135
f 134//134 124//124 126//126
f 134//134 126//126 127//127
f 134//134 135//135 124//124
f 119//119 135//135 141//141
f 132//132 207//207 133//133
f 133//133 207//207 137//137
f 88//88 141//141 143//143
f 88//88 143//143 144//144
f 88//88 144//144 260//260
f 88//88 260//260 266//266
f 88//88 266//266 268//268
f 88//88 268//268 269//269
f 17//17 151//151 157//157
f 25//25 159//159 155//155
f 158//158 49//49 157//157
f 159//159 86//86 160//160
f 86//86 173//173 160//160
f 165//165 187//187 158//158
f 164//164 180//180 163//163
f 163//163 233//233 172//172
f 164//164 177//177 179//179
f 164//164 179//179 180//180
f 163//163 180//180 233//233
f 233//233 238//238 172//172
f 172//172 238//238 240//240
f 172//172 240//240 241//241
f 170//170 172//172 248//248
f 170//170 248//248 171//171
f 171//171 248//248 194//194
f 194//194 248//248 199//199
f 199//199 248//248 201//201
f 202//202 201//201 248//248
f 64//64 62//62 158//158
f 64//64 158//158 65//65
f 181//181 65//65 158//158
f 181//181 158//158 184//184
f 158//158 186//186 184//184
f 158//158 187//187 186//186
f 132//132 191//191 206//206
f 207//207 132//132 206//206
f 165//165 167//167 187//187
f 167//167 168//168 187//187
f 168//168 192//192 187//187
f 187//187 192//192 203//203
f 203//203 192//192 196//196
f 198//198 195//195 204//204
f 198//198 204//204 196//196
f 203//203 196//196 204//204
f 202//202 248//248 209//209
f 209//209 249//249 210//210
f 210//210 249//249 216//216
f 212//212 265//265 207//207
f 86//86 175//175 173//173
f 86//86 176//176 175//175
f 86//86 231//231 176//176
f 86//86 235//235 231//231
f 86//86 237//237 235//235
f 86//86 234//234 237//237
f 98//98 100//100 234//234
f 101//101 234//234 100//100
f 101//101 220//220 234//234
f 104//104 251//251 105//105
f 104//104 102//102 251//251
f 105//105 251//251 222//222
f 220//220 223//223 243//243
f 225//225 242//242 223//223
f 225//225 226//226 242//242
f 234//234 220//220 243//243
f 223//223 242//242 243//243
f 222//222 246//246 227//227
f 227//227 245//245 229//229
f 230//230 229//229 245//245
f 227//227 246//246 245//245
f 222//222 251//251 246//246
f 89//89 253//253 251//251
f 89//89 254//254 253//253
f 89//89 281//281 254//254
f 89//89 285//285 281//281
f 89//89 287//287 285//285
f 89//89 284//284 287//287
f 172//172 241//241 248//248
f 249//249 209//209 248//248
f 255//255 280//280 249//249
f 139//139 137//137 207//207
f 139//139 207//207 140//140
f 140//140 207//207 259//259
f 207//207 262//262 259//259
f 207//207 264//264 262//262
f 207//207 265//265 264//264
f 88//88 294//294 295//295
f 88//88 269//269 294//294
f 89//89 295//295 284//284
f 218//218 216//216 249//249
f 218//218 249//249 219//219
f 219//219 249//249 271//271
f 249//249 277//277 271//271
f 249//249 279//279 277//277
f 249//249 280//280 279//279
f 212//212 214//214 265//265
f 215//215 265//265 214//214
f 215//215 270//270 265//265
f 270//270 292//292 265//265
f 270//270 274//274 292//292
f 276//276 273//273 293//293
f 276//276 293//293 274//274
f 292//292 274//274 293//293
f 255//255 257//257 280//280
f 257//257 258//258 280//280
f 258//258 282//282 280//280
f 282//282 297//297 280//280
f 282//282 289//289 297//297
f 291//291 288//288 298//298
f 291//291 298//298 289//289
f 297//297 289//289 298//298
f 1//1 3//3 2//2
f 2//2 3//3 4//4
f 1//1 5//5 7//7
f 1//1 7//7 6//6
f 2//2 9//9 5//5
f 2//2 8//8 9//9
f 1//1 2//2 5//5
f 10//10 13//13 1//1
f 10//10 11//11 13//13
f 10//10 12//12 11//11
f 14//14 1//1 17//17
f 14//14 17//17 15//15
f 14//14 15//15 16//16
f 10//10 1//1 14//14
f 10//10 14//14 34//34
f 10//10 35//35 12//12
f 10//10 34//34 35//35
f 14//14 16//16 36//36
f 14//14 36//36 34//34
f 1//1 13//13 3//3
f 1//1 6//6 17//17
f 19//19 2//2 18//18
f 19//19 18//18 20//20
f 19//19 20//20 21//21
f 2//2 22//22 25//25
f 22//22 23//23 25//25
f 22//22 24//24 23//23
f 19//19 22//22 2//2
f 2//2 4//4 18//18
f 19//19 70//70 22//22
f 19//19 21//21 71//71
f 19//19 71//71 70//70
f 22//22 72//72 24//24
f 22//22 70//70 72//72
f 2//2 25//25 8//8
f 5//5 27//27 26//26
f 5//5 30//30 31//31
f 27//27 28//28 26//26
f 27//27 29//29 28//28
f 31//31 30//30 32//32
f 31//31 32//32 33//33
f 5//5 31//31 27//27
f 5//5 26//26 7//7
f 5//5 9//9 30//30
f 27//27 31//31 145//145
f 27//27 146//146 29//29
f 31//31 33//33 147//147
f 27//27 145//145 146//146
f 31//31 147//147 145//145
f 38//38 34//34 42//42
f 38//38 35//35 34//34
f 38//38 37//37 35//35
f 42//42 34//34 36//36
f 42//42 36//36 41//41
f 38//38 39//39 37//37
f 38//38 40//40 39//39
f 38//38 45//45 40//40
f 42//42 41//41 43//43
f 42//42 43//43 44//44
f 42//42 44//44 45//45
f 38//38 42//42 45//45
f 45//45 46//46 40//40
f 45//45 44//44 49//49
f 45//45 47//47 46//46
f 45//45 48//48 47//47
f 45//45 49//49 50//50
f 45//45 50//50 51//51
f 45//45 51//51 48//48
f 48//48 51//51 53//53
f 48//48 53//53 52//52
f 48//48 54//54 47//47
f 55//55 54//54 48//48
f 55//55 56//56 54//54
f 55//55 57//57 56//56
f 48//48 61//61 58//58
f 55//55 48//48 58//58
f 58//58 61//61 59//59
f 58//58 59//59 60//60
f 55//55 106//106 57//57
f 55//55 58//58 107//107
f 55//55 107//107 106//106
f 58//58 60//60 108//108
f 58//58 108//108 107//107
f 48//48 52//52 61//61
f 51//51 50//50 62//62
f 51//51 62//62 63//63
f 51//51 67//67 66//66
f 63//63 62//62 64//64
f 63//63 64//64 65//65
f 51//51 63//63 67//67
f 67//67 68//68 66//66
f 67//67 69//69 68//68
f 51//51 66//66 53//53
f 63//63 65//65 181//181
f 63//63 182//182 67//67
f 67//67 183//183 69//69
f 63//63 181//181 182//182
f 67//67 182//182 183//183
f 74//74 70//70 71//71
f 74//74 78//78 70//70
f 74//74 71//71 73//73
f 78//78 72//72 70//70
f 78//78 77//77 72//72
f 74//74 73//73 75//75
f 74//74 75//75 76//76
f 74//74 76//76 81//81
f 78//78 79//79 77//77
f 78//78 80//80 79//79
f 74//74 81//81 78//78
f 78//78 81//81 80//80
f 81//81 76//76 82//82
f 81//81 85//85 80//80
f 81//81 82//82 83//83
f 81//81 83//83 84//84
f 81//81 86//86 85//85
f 81//81 87//87 86//86
f 81//81 84//84 87//87
f 84//84 88//88 87//87
f 87//87 88//88 89//89
f 84//84 83//83 90//90
f 91//91 84//84 90//90
f 91//91 90//90 92//92
f 91//91 92//92 93//93
f 91//91 94//94 84//84
f 84//84 94//94 97//97
f 94//94 95//95 97//97
f 94//94 96//96 95//95
f 91//91 93//93 117//117
f 91//91 117//117 118//118
f 91//91 118//118 94//94
f 94//94 119//119 96//96
f 94//94 118//118 119//119
f 84//84 97//97 88//88
f 87//87 98//98 86//86
f 87//87 99//99 98//98
f 87//87 102//102 103//103
f 99//99 100//100 98//98
f 99//99 101//101 100//100
f 87//87 103//103 99//99
f 103//103 102//102 104//104
f 103//103 104//104 105//105
f 87//87 89//89 102//102
f 99//99 220//220 101//101
f 99//99 103//103 221//221
f 103//103 105//105 222//222
f 99//99 221//221 220//220
f 103//103 222//222 221//221
f 110//110 106//106 107//107
f 110//110 109//109 106//106
f 110//110 107//107 114//114
f 107//107 108//108 114//114
f 114//114 108//108 113//113
f 130//130 128//128 112//112
f 110//110 111//111 109//109
f 110//110 112//112 111//111
f 110//110 130//130 112//112
f 110//110 114//114 130//130
f 114//114 113//113 115//115
f 114//114 115//115 116//116
f 114//114 116//116 130//130
f 130//130 116//116 132//132
f 131//131 120//120 129//129
f 122//122 118//118 117//117
f 122//122 117//117 121//121
f 122//122 125//125 118//118
f 118//118 125//125 119//119
f 125//125 124//124 119//119
f 122//122 121//121 123//123
f 122//122 123//123 120//120
f 122//122 120//120 131//131
f 122//122 131//131 125//125
f 125//125 126//126 124//124
f 125//125 127//127 126//126
f 131//131 127//127 125//125
f 131//131 134//134 127//127
f 131//131 129//129 128//128
f 130//130 131//131 128//128
f 130//130 136//136 131//131
f 130//130 132//132 136//136
f 136//136 132//132 133//133
f 131//131 135//135 134//134
f 131//131 136//136 135//135
f 136//136 133//133 137//137
f 136//136 141//141 135//135
f 136//136 137//137 138//138
f 136//136 142//142 141//141
f 136//136 138//138 142//142
f 138//138 137//137 139//139
f 138//138 139//139 140//140
f 142//142 143//143 141//141
f 142//142 144//144 143//143
f 138//138 140//140 259//259
f 142//142 260//260 144//144
f 138//138 261//261 142//142
f 138//138 259//259 261//261
f 142//142 261//261 260//260
f 149//149 146//146 145//145
f 153//153 145//145 147//147
f 149//149 145//145 153//153
f 149//149 148//148 146//146
f 153//153 147//147 152//152
f 149//149 150//150 148//148
f 149//149 151//151 150//150
f 153//153 152//152 154//154
f 153//153 154//154 155//155
f 149//149 153//153 156//156
f 149//149 156//156 151//151
f 153//153 155//155 156//156
f 156//156 157//157 151//151
f 156//156 155//155 159//159
f 156//156 158//158 157//157
f 156//156 161//161 158//158
f 156//156 159//159 160//160
f 156//156 160//160 162//162
f 156//156 162//162 161//161
f 161//161 162//162 164//164
f 161//161 164//164 163//163
f 161//161 165//165 158//158
f 166//166 165//165 161//161
f 166//166 167//167 165//165
f 166//166 168//168 167//167
f 166//166 161//161 169//169
f 161//161 172//172 169//169
f 169//169 172//172 170//170
f 169//169 170//170 171//171
f 166//166 192//192 168//168
f 166//166 193//193 192//192
f 166//166 169//169 193//193
f 169//169 171//171 194//194
f 169//169 194//194 193//193
f 161//161 163//163 172//172
f 162//162 160//160 173//173
f 162//162 173//173 174//174
f 174//174 173//173 175//175
f 174//174 175//175 176//176
f 162//162 174//174 178//178
f 162//162 178//178 177//177
f 178//178 179//179 177//177
f 178//178 180//180 179//179
f 162//162 177//177 164//164
f 174//174 176//176 231//231
f 174//174 231//231 232//232
f 174//174 232//232 178//178
f 178//178 233//233 180//180
f 178//178 232//232 233//233
f 185//185 182//182 181//181
f 182//182 189//189 183//183
f 185//185 181//181 184//184
f 185//185 189//189 182//182
f 189//189 188//188 183//183
f 205//205 187//187 203//203
f 185//185 184//184 186//186
f 185//185 186//186 187//187
f 185//185 205//205 189//189
f 189//189 190//190 188//188
f 189//189 191//191 190//190
f 185//185 187//187 205//205
f 189//189 205//205 191//191
f 205//205 206//206 191//191
f 208//208 204//204 195//195
f 197//197 192//192 193//193
f 197//197 196//196 192//192
f 197//197 193//193 200//200
f 193//193 194//194 200//200
f 200//200 194//194 199//199
f 197//197 198//198 196//196
f 197//197 195//195 198//198
f 197//197 208//208 195//195
f 197//197 200//200 208//208
f 200//200 199//199 201//201
f 200//200 201//201 202//202
f 208//208 200//200 202//202
f 208//208 202//202 209//209
f 205//205 203//203 204//204
f 205//205 204//204 208//208
f 205//205 208//208 211//211
f 205//205 211//211 206//206
f 211//211 207//207 206//206
f 208//208 209//209 211//211
f 211//211 209//209 210//210
f 211//211 212//212 207//207
f 211//211 210//210 216//216
f 211//211 213//213 212//212
f 211//211 217//217 213//213
f 213//213 214//214 212//212
f 213//213 215//215 214//214
f 211//211 216//216 217//217
f 217//217 216//216 218//218
f 217//217 218//218 219//219
f 213//213 270//270 215//215
f 213//213 272//272 270//270
f 217//217 219//219 271//271
f 213//213 217//217 272//272
f 217//217 271//271 272//272
f 224//224 220//220 221//221
f 221//221 222//222 228//228
f 224//224 223//223 220//220
f 224//224 221//221 228//228
f 228//228 222//222 227//227
f 244//244 242//242 226//226
f 224//224 225//225 223//223
f 224//224 226//226 225//225
f 224//224 228//228 244//244
f 228//228 227//227 229//229
f 228//228 229//229 230//230
f 224//224 244//244 226//226
f 228//228 230//230 244//244
f 244//244 230//230 245//245
f 247//247 234//234 243//243
f 236//236 232//232 231//231
f 236//236 231//231 235//235
f 232//232 239//239 233//233
f 236//236 239//239 232//232
f 239//239 238//238 233//233
f 236//236 235//235 237//237
f 236//236 237//237 234//234
f 236//236 247//247 239//239
f 236//236 234//234 247//247
f 239//239 240//240 238//238
f 239//239 241//241 240//240
f 247//247 241//241 239//239
f 247//247 248//248 241//241
f 244//244 243//243 242//242
f 244//244 247//247 243//243
f 244//244 250//250 247//247
f 244//244 245//245 246//246
f 244//244 246//246 250//250
f 247//247 250//250 248//248
f 250//250 249//249 248//248
f 250//250 246//246 251//251
f 250//250 255//255 249//249
f 250//250 252//252 256//256
f 250//250 251//251 252//252
f 252//252 251//251 253//253
f 252//252 253//253 254//254
f 250//250 256//256 255//255
f 256//256 257//257 255//255
f 256//256 258//258 257//257
f 252//252 254//254 281//281
f 252//252 281//281 283//283
f 256//256 282//282 258//258
f 256//256 283//283 282//282
f 252//252 283//283 256//256
f 261//261 259//259 263//263
f 261//261 267//267 260//260
f 263//263 259//259 262//262
f 267//267 266//266 260//260
f 261//261 263//263 267//267
f 296//296 265//265 292//292
f 296//296 294//294 269//269
f 263//263 296//296 267//267
f 263//263 262//262 264//264
f 263//263 264//264 265//265
f 267//267 268//268 266//266
f 267//267 269//269 268//268
f 263//263 265//265 296//296
f 267//267 296//296 269//269
f 299//299 293//293 273//273
f 272//272 275//275 270//270
f 275//275 274//274 270//270
f 272//272 271//271 278//278
f 278//278 271//271 277//277
f 272//272 278//278 275//275
f 299//299 280//280 297//297
f 275//275 278//278 299//299
f 275//275 276//276 274//274
f 275//275 273//273 276//276
f 275//275 299//299 273//273
f 278//278 277//277 279//279
f 278//278 279//279 280//280
f 299//299 278//278 280//280
f 300//300 284//284 295//295
f 300//300 298//298 288//288
f 283//283 281//281 286//286
f 286//286 281//281 285//285
f 283//283 290//290 282//282
f 290//290 289//289 282//282
f 283//283 286//286 290//290
f 300//300 290//290 286//286
f 286//286 285//285 287//287
f 286//286 287//287 284//284
f 300//300 286//286 284//284
f 290//290 291//291 289//289
f 290//290 288//288 291//291
f 300//300 288//288 290//290
f 296//296 299//299 300//300
f 296//296 292//292 293//293
f 296//296 293//293 299//299
f 300//300 295//295 294//294
f 296//296 300//300 294//294
f 299//299 297//297 298//298
f 299//299 298//298 300//300
