{"asset":{"version":"2.0","generator":"THREE.GLTFExporter r182"},"scenes":[{"name":"AuxScene","nodes":[0]}],"scene":0,"nodes":[{"mesh":0}],"bufferViews":[{"buffer":0,"byteOffset":0,"byteLength":768,"target":34962,"byteStride":12},{"buffer":0,"byteOffset":768,"byteLength":768,"target":34962,"byteStride":12},{"buffer":0,"byteOffset":1536,"byteLength":1488,"target":34963}],"buffers":[{"byteLength":3024,"uri":"data:application/octet-stream;base64,"}],"accessors":[{"bufferView":0,"componentType":5126,"count":64,"max":[10,10,15],"min":[-10,-10,-15],"type":"VEC3"},{"bufferView":1,"componentType":5126,"count":64,"max":[0.9994524121284485,0.83683180809021,0.5520265698432922],"min":[-0.9994524121284485,-0.83683180809021,-0.5520265698432922],"type":"VEC3"},{"bufferView":2,"componentType":5125,"count":372,"max":[63],"min":[0],"type":"SCALAR"}],"materials":[{"pbrMetallicRoughness":{"baseColorFactor":[0.06847816983662762,0.2788942634659966,0.6938717612856897,1],"metallicFactor":0.25,"roughnessFactor":0.4},"name":"primitives-cylinder-32-material"}],"meshes":[{"primitives":[{"mode":4,"attributes":{"POSITION":0,"NORMAL":1},"indices":2,"material":0}]}]}