solid exported
	facet normal -0.7730104300631868 -0.6343933125542286 0
		outer loop
			vertex -8.314696311950684 -5.555702209472656 15
			vertex -8.314696311950684 -5.555702209472656 -15
			vertex -7.071067810058594 -7.071067810058594 -15
		endloop
	endfacet
	facet normal -0.6343933125542286 -0.7730104300631868 0
		outer loop
			vertex -7.071067810058594 -7.071067810058594 15
			vertex -7.071067810058594 -7.071067810058594 -15
			vertex -5.555702209472656 -8.314696311950684 -15
		endloop
	endfacet
	facet normal 0 0 -1
		outer loop
			vertex -9.238795280456543 3.8268344402313232 -15
			vertex -9.238795280456543 -3.8268344402313232 -15
			vertex -9.807852745056152 -1.9509031772613525 -15
		endloop
	endfacet
	facet normal 0 0 -1
		outer loop
			vertex -8.314696311950684 5.555702209472656 -15
			vertex -8.314696311950684 -5.555702209472656 -15
			vertex -9.238795280456543 -3.8268344402313232 -15
		endloop
	endfacet
	facet normal 0 0 -1
		outer loop
			vertex -7.071067810058594 7.071067810058594 -15
			vertex -7.071067810058594 -7.071067810058594 -15
			vertex -8.314696311950684 -5.555702209472656 -15
		endloop
	endfacet
	facet normal 0 0 -1
		outer loop
			vertex -5.555702209472656 8.314696311950684 -15
			vertex -5.555702209472656 -8.314696311950684 -15
			vertex -7.071067810058594 -7.071067810058594 -15
		endloop
	endfacet
	facet normal -0.8819212869849845 -0.47139669447584026 0
		outer loop
			vertex -9.238795280456543 -3.8268344402313232 15
			vertex -9.238795280456543 -3.8268344402313232 -15
			vertex -8.314696311950684 -5.555702209472656 -15
		endloop
	endfacet
	facet normal -0.956940344616612 -0.29028464796650855 0
		outer loop
			vertex -9.807852745056152 -1.9509031772613525 15
			vertex -9.807852745056152 -1.9509031772613525 -15
			vertex -9.238795280456543 -3.8268344402313232 -15
		endloop
	endfacet
	facet normal -0.9951847235273417 -0.09801717225980694 0
		outer loop
			vertex -10 0 15
			vertex -10 0 -15
			vertex -9.807852745056152 -1.9509031772613525 -15
		endloop
	endfacet
	facet normal -0.47139669447584026 -0.8819212869849845 0
		outer loop
			vertex -5.555702209472656 -8.314696311950684 15
			vertex -5.555702209472656 -8.314696311950684 -15
			vertex -3.8268344402313232 -9.238795280456543 -15
		endloop
	endfacet
	facet normal -0.29028464796650855 -0.956940344616612 0
		outer loop
			vertex -3.8268344402313232 -9.238795280456543 15
			vertex -3.8268344402313232 -9.238795280456543 -15
			vertex -1.9509031772613525 -9.807852745056152 -15
		endloop
	endfacet
	facet normal -0.09801717225980694 -0.9951847235273417 0
		outer loop
			vertex -1.9509031772613525 -9.807852745056152 15
			vertex -1.9509031772613525 -9.807852745056152 -15
			vertex 0 -10 -15
		endloop
	endfacet
	facet normal 0 0 -1
		outer loop
			vertex -3.8268344402313232 9.238795280456543 -15
			vertex -3.8268344402313232 -9.238795280456543 -15
			vertex -5.555702209472656 -8.314696311950684 -15
		endloop
	endfacet
	facet normal 0 0 -1
		outer loop
			vertex -1.9509031772613525 9.807852745056152 -15
			vertex -1.9509031772613525 -9.807852745056152 -15
			vertex -3.8268344402313232 -9.238795280456543 -15
		endloop
	endfacet
	facet normal 0 0 -1
		outer loop
			vertex 0 10 -15
			vertex 0 -10 -15
			vertex -1.9509031772613525 -9.807852745056152 -15
		endloop
	endfacet
	facet normal -0.6343933125542286 -0.7730104300631868 0
		outer loop
			vertex -5.555702209472656 -8.314696311950684 15
			vertex -7.071067810058594 -7.071067810058594 15
			vertex -5.555702209472656 -8.314696311950684 -15
		endloop
	endfacet
	facet normal -0.7730104300631868 -0.6343933125542286 0
		outer loop
			vertex -7.071067810058594 -7.071067810058594 15
			vertex -8.314696311950684 -5.555702209472656 15
			vertex -7.071067810058594 -7.071067810058594 -15
		endloop
	endfacet
	facet normal -0.956940344616612 -0.29028464796650855 0
		outer loop
			vertex -9.238795280456543 -3.8268344402313232 15
			vertex -9.807852745056152 -1.9509031772613525 15
			vertex -9.238795280456543 -3.8268344402313232 -15
		endloop
	endfacet
	facet normal -0.8819212869849845 -0.47139669447584026 0
		outer loop
			vertex -8.314696311950684 -5.555702209472656 15
			vertex -9.238795280456543 -3.8268344402313232 15
			vertex -8.314696311950684 -5.555702209472656 -15
		endloop
	endfacet
	facet normal -0.9951847235273417 -0.09801717225980694 0
		outer loop
			vertex -9.807852745056152 -1.9509031772613525 15
			vertex -10 0 15
			vertex -9.807852745056152 -1.9509031772613525 -15
		endloop
	endfacet
	facet normal 0 0 1
		outer loop
			vertex -9.238795280456543 3.8268344402313232 15
			vertex -9.807852745056152 -1.9509031772613525 15
			vertex -9.238795280456543 -3.8268344402313232 15
		endloop
	endfacet
	facet normal 0 0 1
		outer loop
			vertex -8.314696311950684 5.555702209472656 15
			vertex -9.238795280456543 -3.8268344402313232 15
			vertex -8.314696311950684 -5.555702209472656 15
		endloop
	endfacet
	facet normal 0 0 1
		outer loop
			vertex -7.071067810058594 7.071067810058594 15
			vertex -8.314696311950684 -5.555702209472656 15
			vertex -7.071067810058594 -7.071067810058594 15
		endloop
	endfacet
	facet normal 0 0 1
		outer loop
			vertex -5.555702209472656 8.314696311950684 15
			vertex -7.071067810058594 -7.071067810058594 15
			vertex -5.555702209472656 -8.314696311950684 15
		endloop
	endfacet
	facet normal -0.47139669447584026 -0.8819212869849845 0
		outer loop
			vertex -3.8268344402313232 -9.238795280456543 15
			vertex -5.555702209472656 -8.314696311950684 15
			vertex -3.8268344402313232 -9.238795280456543 -15
		endloop
	endfacet
	facet normal -0.29028464796650855 -0.956940344616612 0
		outer loop
			vertex -1.9509031772613525 -9.807852745056152 15
			vertex -3.8268344402313232 -9.238795280456543 15
			vertex -1.9509031772613525 -9.807852745056152 -15
		endloop
	endfacet
	facet normal -0.09801717225980694 -0.9951847235273417 0
		outer loop
			vertex 0 -10 15
			vertex -1.9509031772613525 -9.807852745056152 15
			vertex 0 -10 -15
		endloop
	endfacet
	facet normal 0 0 1
		outer loop
			vertex -3.8268344402313232 9.238795280456543 15
			vertex -5.555702209472656 -8.314696311950684 15
			vertex -3.8268344402313232 -9.238795280456543 15
		endloop
	endfacet
	facet normal 0 0 1
		outer loop
			vertex -1.9509031772613525 9.807852745056152 15
			vertex -3.8268344402313232 -9.238795280456543 15
			vertex -1.9509031772613525 -9.807852745056152 15
		endloop
	endfacet
	facet normal 0 0 1
		outer loop
			vertex 0 10 15
			vertex -1.9509031772613525 -9.807852745056152 15
			vertex 0 -10 15
		endloop
	endfacet
	facet normal 0 0 -1
		outer loop
			vertex -9.807852745056152 1.9509031772613525 -15
			vertex -9.807852745056152 -1.9509031772613525 -15
			vertex -10 0 -15
		endloop
	endfacet
	facet normal 0 0 -1
		outer loop
			vertex -9.238795280456543 3.8268344402313232 -15
			vertex -9.807852745056152 -1.9509031772613525 -15
			vertex -9.807852745056152 1.9509031772613525 -15
		endloop
	endfacet
	facet normal 0 0 -1
		outer loop
			vertex -8.314696311950684 5.555702209472656 -15
			vertex -9.238795280456543 -3.8268344402313232 -15
			vertex -9.238795280456543 3.8268344402313232 -15
		endloop
	endfacet
	facet normal 0 0 -1
		outer loop
			vertex -7.071067810058594 7.071067810058594 -15
			vertex -8.314696311950684 -5.555702209472656 -15
			vertex -8.314696311950684 5.555702209472656 -15
		endloop
	endfacet
	facet normal 0 0 -1
		outer loop
			vertex -5.555702209472656 8.314696311950684 -15
			vertex -7.071067810058594 -7.071067810058594 -15
			vertex -7.071067810058594 7.071067810058594 -15
		endloop
	endfacet
	facet normal -0.9951847235273417 0.09801717225980694 0
		outer loop
			vertex -9.807852745056152 1.9509031772613525 15
			vertex -9.807852745056152 1.9509031772613525 -15
			vertex -10 0 -15
		endloop
	endfacet
	facet normal -0.956940344616612 0.29028464796650855 0
		outer loop
			vertex -9.238795280456543 3.8268344402313232 15
			vertex -9.238795280456543 3.8268344402313232 -15
			vertex -9.807852745056152 1.9509031772613525 -15
		endloop
	endfacet
	facet normal -0.8819212869849845 0.47139669447584026 0
		outer loop
			vertex -8.314696311950684 5.555702209472656 15
			vertex -8.314696311950684 5.555702209472656 -15
			vertex -9.238795280456543 3.8268344402313232 -15
		endloop
	endfacet
	facet normal -0.7730104300631868 0.6343933125542286 0
		outer loop
			vertex -7.071067810058594 7.071067810058594 15
			vertex -7.071067810058594 7.071067810058594 -15
			vertex -8.314696311950684 5.555702209472656 -15
		endloop
	endfacet
	facet normal -0.6343933125542286 0.7730104300631868 0
		outer loop
			vertex -5.555702209472656 8.314696311950684 15
			vertex -5.555702209472656 8.314696311950684 -15
			vertex -7.071067810058594 7.071067810058594 -15
		endloop
	endfacet
	facet normal 0 0 -1
		outer loop
			vertex -3.8268344402313232 9.238795280456543 -15
			vertex -5.555702209472656 -8.314696311950684 -15
			vertex -5.555702209472656 8.314696311950684 -15
		endloop
	endfacet
	facet normal 0 0 -1
		outer loop
			vertex -1.9509031772613525 9.807852745056152 -15
			vertex -3.8268344402313232 -9.238795280456543 -15
			vertex -3.8268344402313232 9.238795280456543 -15
		endloop
	endfacet
	facet normal 0 0 -1
		outer loop
			vertex 0 10 -15
			vertex -1.9509031772613525 -9.807852745056152 -15
			vertex -1.9509031772613525 9.807852745056152 -15
		endloop
	endfacet
	facet normal -0.47139669447584026 0.8819212869849845 0
		outer loop
			vertex -3.8268344402313232 9.238795280456543 15
			vertex -3.8268344402313232 9.238795280456543 -15
			vertex -5.555702209472656 8.314696311950684 -15
		endloop
	endfacet
	facet normal -0.29028464796650855 0.956940344616612 0
		outer loop
			vertex -1.9509031772613525 9.807852745056152 15
			vertex -1.9509031772613525 9.807852745056152 -15
			vertex -3.8268344402313232 9.238795280456543 -15
		endloop
	endfacet
	facet normal -0.09801717225980694 0.9951847235273417 0
		outer loop
			vertex 0 10 15
			vertex 0 10 -15
			vertex -1.9509031772613525 9.807852745056152 -15
		endloop
	endfacet
	facet normal -0.9951847235273417 0.09801717225980694 0
		outer loop
			vertex -10 0 15
			vertex -9.807852745056152 1.9509031772613525 15
			vertex -10 0 -15
		endloop
	endfacet
	facet normal -0.956940344616612 0.29028464796650855 0
		outer loop
			vertex -9.807852745056152 1.9509031772613525 15
			vertex -9.238795280456543 3.8268344402313232 15
			vertex -9.807852745056152 1.9509031772613525 -15
		endloop
	endfacet
	facet normal -0.8819212869849845 0.47139669447584026 0
		outer loop
			vertex -9.238795280456543 3.8268344402313232 15
			vertex -8.314696311950684 5.555702209472656 15
			vertex -9.238795280456543 3.8268344402313232 -15
		endloop
	endfacet
	facet normal 0 0 1
		outer loop
			vertex -9.807852745056152 1.9509031772613525 15
			vertex -10 0 15
			vertex -9.807852745056152 -1.9509031772613525 15
		endloop
	endfacet
	facet normal 0 0 1
		outer loop
			vertex -9.238795280456543 3.8268344402313232 15
			vertex -9.807852745056152 1.9509031772613525 15
			vertex -9.807852745056152 -1.9509031772613525 15
		endloop
	endfacet
	facet normal 0 0 1
		outer loop
			vertex -8.314696311950684 5.555702209472656 15
			vertex -9.238795280456543 3.8268344402313232 15
			vertex -9.238795280456543 -3.8268344402313232 15
		endloop
	endfacet
	facet normal 0 0 1
		outer loop
			vertex -7.071067810058594 7.071067810058594 15
			vertex -8.314696311950684 5.555702209472656 15
			vertex -8.314696311950684 -5.555702209472656 15
		endloop
	endfacet
	facet normal 0 0 1
		outer loop
			vertex -5.555702209472656 8.314696311950684 15
			vertex -7.071067810058594 7.071067810058594 15
			vertex -7.071067810058594 -7.071067810058594 15
		endloop
	endfacet
	facet normal -0.7730104300631868 0.6343933125542286 0
		outer loop
			vertex -8.314696311950684 5.555702209472656 15
			vertex -7.071067810058594 7.071067810058594 15
			vertex -8.314696311950684 5.555702209472656 -15
		endloop
	endfacet
	facet normal -0.6343933125542286 0.7730104300631868 0
		outer loop
			vertex -7.071067810058594 7.071067810058594 15
			vertex -5.555702209472656 8.314696311950684 15
			vertex -7.071067810058594 7.071067810058594 -15
		endloop
	endfacet
	facet normal 0 0 1
		outer loop
			vertex -3.8268344402313232 9.238795280456543 15
			vertex -5.555702209472656 8.314696311950684 15
			vertex -5.555702209472656 -8.314696311950684 15
		endloop
	endfacet
	facet normal 0 0 1
		outer loop
			vertex -1.9509031772613525 9.807852745056152 15
			vertex -3.8268344402313232 9.238795280456543 15
			vertex -3.8268344402313232 -9.238795280456543 15
		endloop
	endfacet
	facet normal 0 0 1
		outer loop
			vertex 0 10 15
			vertex -1.9509031772613525 9.807852745056152 15
			vertex -1.9509031772613525 -9.807852745056152 15
		endloop
	endfacet
	facet normal -0.47139669447584026 0.8819212869849845 0
		outer loop
			vertex -5.555702209472656 8.314696311950684 15
			vertex -3.8268344402313232 9.238795280456543 15
			vertex -5.555702209472656 8.314696311950684 -15
		endloop
	endfacet
	facet normal -0.29028464796650855 0.956940344616612 0
		outer loop
			vertex -3.8268344402313232 9.238795280456543 15
			vertex -1.9509031772613525 9.807852745056152 15
			vertex -3.8268344402313232 9.238795280456543 -15
		endloop
	endfacet
	facet normal -0.09801717225980694 0.9951847235273417 0
		outer loop
			vertex -1.9509031772613525 9.807852745056152 15
			vertex 0 10 15
			vertex -1.9509031772613525 9.807852745056152 -15
		endloop
	endfacet
	facet normal 0.09801717225980694 -0.9951847235273417 0
		outer loop
			vertex 0 -10 15
			vertex 0 -10 -15
			vertex 1.9509031772613525 -9.807852745056152 -15
		endloop
	endfacet
	facet normal 0.29028464796650855 -0.956940344616612 0
		outer loop
			vertex 1.9509031772613525 -9.807852745056152 15
			vertex 1.9509031772613525 -9.807852745056152 -15
			vertex 3.8268344402313232 -9.238795280456543 -15
		endloop
	endfacet
	facet normal 0.47139669447584026 -0.8819212869849845 0
		outer loop
			vertex 3.8268344402313232 -9.238795280456543 15
			vertex 3.8268344402313232 -9.238795280456543 -15
			vertex 5.555702209472656 -8.314696311950684 -15
		endloop
	endfacet
	facet normal 0 0 -1
		outer loop
			vertex 1.9509031772613525 9.807852745056152 -15
			vertex 1.9509031772613525 -9.807852745056152 -15
			vertex 0 -10 -15
		endloop
	endfacet
	facet normal 0 0 -1
		outer loop
			vertex 3.8268344402313232 9.238795280456543 -15
			vertex 3.8268344402313232 -9.238795280456543 -15
			vertex 1.9509031772613525 -9.807852745056152 -15
		endloop
	endfacet
	facet normal 0 0 -1
		outer loop
			vertex 5.555702209472656 8.314696311950684 -15
			vertex 5.555702209472656 -8.314696311950684 -15
			vertex 3.8268344402313232 -9.238795280456543 -15
		endloop
	endfacet
	facet normal 0.6343933125542286 -0.7730104300631868 0
		outer loop
			vertex 5.555702209472656 -8.314696311950684 15
			vertex 5.555702209472656 -8.314696311950684 -15
			vertex 7.071067810058594 -7.071067810058594 -15
		endloop
	endfacet
	facet normal 0.7730104300631868 -0.6343933125542286 0
		outer loop
			vertex 7.071067810058594 -7.071067810058594 15
			vertex 7.071067810058594 -7.071067810058594 -15
			vertex 8.314696311950684 -5.555702209472656 -15
		endloop
	endfacet
	facet normal 0 0 -1
		outer loop
			vertex 7.071067810058594 7.071067810058594 -15
			vertex 7.071067810058594 -7.071067810058594 -15
			vertex 5.555702209472656 -8.314696311950684 -15
		endloop
	endfacet
	facet normal 0 0 -1
		outer loop
			vertex 8.314696311950684 5.555702209472656 -15
			vertex 8.314696311950684 -5.555702209472656 -15
			vertex 7.071067810058594 -7.071067810058594 -15
		endloop
	endfacet
	facet normal 0 0 -1
		outer loop
			vertex 9.238795280456543 3.8268344402313232 -15
			vertex 9.238795280456543 -3.8268344402313232 -15
			vertex 8.314696311950684 -5.555702209472656 -15
		endloop
	endfacet
	facet normal 0 0 -1
		outer loop
			vertex 9.807852745056152 1.9509031772613525 -15
			vertex 9.807852745056152 -1.9509031772613525 -15
			vertex 9.238795280456543 -3.8268344402313232 -15
		endloop
	endfacet
	facet normal 0.8819212869849845 -0.47139669447584026 0
		outer loop
			vertex 8.314696311950684 -5.555702209472656 15
			vertex 8.314696311950684 -5.555702209472656 -15
			vertex 9.238795280456543 -3.8268344402313232 -15
		endloop
	endfacet
	facet normal 0.956940344616612 -0.29028464796650855 0
		outer loop
			vertex 9.238795280456543 -3.8268344402313232 15
			vertex 9.238795280456543 -3.8268344402313232 -15
			vertex 9.807852745056152 -1.9509031772613525 -15
		endloop
	endfacet
	facet normal 0.9951847235273417 -0.09801717225980694 0
		outer loop
			vertex 9.807852745056152 -1.9509031772613525 15
			vertex 9.807852745056152 -1.9509031772613525 -15
			vertex 10 0 -15
		endloop
	endfacet
	facet normal 0.09801717225980694 -0.9951847235273417 0
		outer loop
			vertex 1.9509031772613525 -9.807852745056152 15
			vertex 0 -10 15
			vertex 1.9509031772613525 -9.807852745056152 -15
		endloop
	endfacet
	facet normal 0.29028464796650855 -0.956940344616612 0
		outer loop
			vertex 3.8268344402313232 -9.238795280456543 15
			vertex 1.9509031772613525 -9.807852745056152 15
			vertex 3.8268344402313232 -9.238795280456543 -15
		endloop
	endfacet
	facet normal 0.47139669447584026 -0.8819212869849845 0
		outer loop
			vertex 5.555702209472656 -8.314696311950684 15
			vertex 3.8268344402313232 -9.238795280456543 15
			vertex 5.555702209472656 -8.314696311950684 -15
		endloop
	endfacet
	facet normal 0 0 1
		outer loop
			vertex 1.9509031772613525 9.807852745056152 15
			vertex 0 -10 15
			vertex 1.9509031772613525 -9.807852745056152 15
		endloop
	endfacet
	facet normal 0 0 1
		outer loop
			vertex 3.8268344402313232 9.238795280456543 15
			vertex 1.9509031772613525 -9.807852745056152 15
			vertex 3.8268344402313232 -9.238795280456543 15
		endloop
	endfacet
	facet normal 0 0 1
		outer loop
			vertex 5.555702209472656 8.314696311950684 15
			vertex 3.8268344402313232 -9.238795280456543 15
			vertex 5.555702209472656 -8.314696311950684 15
		endloop
	endfacet
	facet normal 0.6343933125542286 -0.7730104300631868 0
		outer loop
			vertex 7.071067810058594 -7.071067810058594 15
			vertex 5.555702209472656 -8.314696311950684 15
			vertex 7.071067810058594 -7.071067810058594 -15
		endloop
	endfacet
	facet normal 0.7730104300631868 -0.6343933125542286 0
		outer loop
			vertex 8.314696311950684 -5.555702209472656 15
			vertex 7.071067810058594 -7.071067810058594 15
			vertex 8.314696311950684 -5.555702209472656 -15
		endloop
	endfacet
	facet normal 0.8819212869849845 -0.47139669447584026 0
		outer loop
			vertex 9.238795280456543 -3.8268344402313232 15
			vertex 8.314696311950684 -5.555702209472656 15
			vertex 9.238795280456543 -3.8268344402313232 -15
		endloop
	endfacet
	facet normal 0.956940344616612 -0.29028464796650855 0
		outer loop
			vertex 9.807852745056152 -1.9509031772613525 15
			vertex 9.238795280456543 -3.8268344402313232 15
			vertex 9.807852745056152 -1.9509031772613525 -15
		endloop
	endfacet
	facet normal 0.9951847235273417 -0.09801717225980694 0
		outer loop
			vertex 10 0 15
			vertex 9.807852745056152 -1.9509031772613525 15
			vertex 10 0 -15
		endloop
	endfacet
	facet normal 0 0 1
		outer loop
			vertex 7.071067810058594 7.071067810058594 15
			vertex 5.555702209472656 -8.314696311950684 15
			vertex 7.071067810058594 -7.071067810058594 15
		endloop
	endfacet
	facet normal 0 0 1
		outer loop
			vertex 8.314696311950684 5.555702209472656 15
			vertex 7.071067810058594 -7.071067810058594 15
			vertex 8.314696311950684 -5.555702209472656 15
		endloop
	endfacet
	facet normal 0 0 1
		outer loop
			vertex 9.238795280456543 3.8268344402313232 15
			vertex 8.314696311950684 -5.555702209472656 15
			vertex 9.238795280456543 -3.8268344402313232 15
		endloop
	endfacet
	facet normal 0 0 1
		outer loop
			vertex 9.807852745056152 1.9509031772613525 15
			vertex 9.238795280456543 -3.8268344402313232 15
			vertex 9.807852745056152 -1.9509031772613525 15
		endloop
	endfacet
	facet normal 0 0 -1
		outer loop
			vertex 1.9509031772613525 9.807852745056152 -15
			vertex 0 -10 -15
			vertex 0 10 -15
		endloop
	endfacet
	facet normal 0 0 -1
		outer loop
			vertex 3.8268344402313232 9.238795280456543 -15
			vertex 1.9509031772613525 -9.807852745056152 -15
			vertex 1.9509031772613525 9.807852745056152 -15
		endloop
	endfacet
	facet normal 0 0 -1
		outer loop
			vertex 5.555702209472656 8.314696311950684 -15
			vertex 3.8268344402313232 -9.238795280456543 -15
			vertex 3.8268344402313232 9.238795280456543 -15
		endloop
	endfacet
	facet normal 0.09801717225980694 0.9951847235273417 0
		outer loop
			vertex 1.9509031772613525 9.807852745056152 15
			vertex 1.9509031772613525 9.807852745056152 -15
			vertex 0 10 -15
		endloop
	endfacet
	facet normal 0.29028464796650855 0.956940344616612 0
		outer loop
			vertex 3.8268344402313232 9.238795280456543 15
			vertex 3.8268344402313232 9.238795280456543 -15
			vertex 1.9509031772613525 9.807852745056152 -15
		endloop
	endfacet
	facet normal 0.47139669447584026 0.8819212869849845 0
		outer loop
			vertex 5.555702209472656 8.314696311950684 15
			vertex 5.555702209472656 8.314696311950684 -15
			vertex 3.8268344402313232 9.238795280456543 -15
		endloop
	endfacet
	facet normal 0 0 -1
		outer loop
			vertex 7.071067810058594 7.071067810058594 -15
			vertex 5.555702209472656 -8.314696311950684 -15
			vertex 5.555702209472656 8.314696311950684 -15
		endloop
	endfacet
	facet normal 0 0 -1
		outer loop
			vertex 8.314696311950684 5.555702209472656 -15
			vertex 7.071067810058594 -7.071067810058594 -15
			vertex 7.071067810058594 7.071067810058594 -15
		endloop
	endfacet
	facet normal 0 0 -1
		outer loop
			vertex 9.238795280456543 3.8268344402313232 -15
			vertex 8.314696311950684 -5.555702209472656 -15
			vertex 8.314696311950684 5.555702209472656 -15
		endloop
	endfacet
	facet normal 0 0 -1
		outer loop
			vertex 10 0 -15
			vertex 9.807852745056152 -1.9509031772613525 -15
			vertex 9.807852745056152 1.9509031772613525 -15
		endloop
	endfacet
	facet normal 0 0 -1
		outer loop
			vertex 9.807852745056152 1.9509031772613525 -15
			vertex 9.238795280456543 -3.8268344402313232 -15
			vertex 9.238795280456543 3.8268344402313232 -15
		endloop
	endfacet
	facet normal 0.9951847235273417 0.09801717225980694 0
		outer loop
			vertex 10 0 15
			vertex 10 0 -15
			vertex 9.807852745056152 1.9509031772613525 -15
		endloop
	endfacet
	facet normal 0.956940344616612 0.29028464796650855 0
		outer loop
			vertex 9.807852745056152 1.9509031772613525 15
			vertex 9.807852745056152 1.9509031772613525 -15
			vertex 9.238795280456543 3.8268344402313232 -15
		endloop
	endfacet
	facet normal 0.8819212869849845 0.47139669447584026 0
		outer loop
			vertex 9.238795280456543 3.8268344402313232 15
			vertex 9.238795280456543 3.8268344402313232 -15
			vertex 8.314696311950684 5.555702209472656 -15
		endloop
	endfacet
	facet normal 0.6343933125542286 0.7730104300631868 0
		outer loop
			vertex 7.071067810058594 7.071067810058594 15
			vertex 7.071067810058594 7.071067810058594 -15
			vertex 5.555702209472656 8.314696311950684 -15
		endloop
	endfacet
	facet normal 0.7730104300631868 0.6343933125542286 0
		outer loop
			vertex 8.314696311950684 5.555702209472656 15
			vertex 8.314696311950684 5.555702209472656 -15
			vertex 7.071067810058594 7.071067810058594 -15
		endloop
	endfacet
	facet normal 0 0 1
		outer loop
			vertex 1.9509031772613525 9.807852745056152 15
			vertex 0 10 15
			vertex 0 -10 15
		endloop
	endfacet
	facet normal 0 0 1
		outer loop
			vertex 3.8268344402313232 9.238795280456543 15
			vertex 1.9509031772613525 9.807852745056152 15
			vertex 1.9509031772613525 -9.807852745056152 15
		endloop
	endfacet
	facet normal 0 0 1
		outer loop
			vertex 5.555702209472656 8.314696311950684 15
			vertex 3.8268344402313232 9.238795280456543 15
			vertex 3.8268344402313232 -9.238795280456543 15
		endloop
	endfacet
	facet normal 0.09801717225980694 0.9951847235273417 0
		outer loop
			vertex 0 10 15
			vertex 1.9509031772613525 9.807852745056152 15
			vertex 0 10 -15
		endloop
	endfacet
	facet normal 0.29028464796650855 0.956940344616612 0
		outer loop
			vertex 1.9509031772613525 9.807852745056152 15
			vertex 3.8268344402313232 9.238795280456543 15
			vertex 1.9509031772613525 9.807852745056152 -15
		endloop
	endfacet
	facet normal 0.47139669447584026 0.8819212869849845 0
		outer loop
			vertex 3.8268344402313232 9.238795280456543 15
			vertex 5.555702209472656 8.314696311950684 15
			vertex 3.8268344402313232 9.238795280456543 -15
		endloop
	endfacet
	facet normal 0.9951847235273417 0.09801717225980694 0
		outer loop
			vertex 9.807852745056152 1.9509031772613525 15
			vertex 10 0 15
			vertex 9.807852745056152 1.9509031772613525 -15
		endloop
	endfacet
	facet normal 0.8819212869849845 0.47139669447584026 0
		outer loop
			vertex 8.314696311950684 5.555702209472656 15
			vertex 9.238795280456543 3.8268344402313232 15
			vertex 8.314696311950684 5.555702209472656 -15
		endloop
	endfacet
	facet normal 0.956940344616612 0.29028464796650855 0
		outer loop
			vertex 9.238795280456543 3.8268344402313232 15
			vertex 9.807852745056152 1.9509031772613525 15
			vertex 9.238795280456543 3.8268344402313232 -15
		endloop
	endfacet
	facet normal 0 0 1
		outer loop
			vertex 7.071067810058594 7.071067810058594 15
			vertex 5.555702209472656 8.314696311950684 15
			vertex 5.555702209472656 -8.314696311950684 15
		endloop
	endfacet
	facet normal 0 0 1
		outer loop
			vertex 8.314696311950684 5.555702209472656 15
			vertex 7.071067810058594 7.071067810058594 15
			vertex 7.071067810058594 -7.071067810058594 15
		endloop
	endfacet
	facet normal 0 0 1
		outer loop
			vertex 9.238795280456543 3.8268344402313232 15
			vertex 8.314696311950684 5.555702209472656 15
			vertex 8.314696311950684 -5.555702209472656 15
		endloop
	endfacet
	facet normal 0 0 1
		outer loop
			vertex 10 0 15
			vertex 9.807852745056152 1.9509031772613525 15
			vertex 9.807852745056152 -1.9509031772613525 15
		endloop
	endfacet
	facet normal 0 0 1
		outer loop
			vertex 9.807852745056152 1.9509031772613525 15
			vertex 9.238795280456543 3.8268344402313232 15
			vertex 9.238795280456543 -3.8268344402313232 15
		endloop
	endfacet
	facet normal 0.7730104300631868 0.6343933125542286 0
		outer loop
			vertex 7.071067810058594 7.071067810058594 15
			vertex 8.314696311950684 5.555702209472656 15
			vertex 7.071067810058594 7.071067810058594 -15
		endloop
	endfacet
	facet normal 0.6343933125542286 0.7730104300631868 0
		outer loop
			vertex 5.555702209472656 8.314696311950684 15
			vertex 7.071067810058594 7.071067810058594 15
			vertex 5.555702209472656 8.314696311950684 -15
		endloop
	endfacet
endsolid exported
