o 
usemtl primitives-cylinder-32-material
v -8.314696311950684 -5.555702209472656 -15
v -5.555702209472656 -8.314696311950684 -15
v -7.071067810058594 -7.071067810058594 -15
v -9.238795280456543 -3.8268344402313232 -15
v -9.807852745056152 -1.9509031772613525 -15
v -3.8268344402313232 -9.238795280456543 -15
v -1.9509031772613525 -9.807852745056152 -15
v -8.314696311950684 -5.555702209472656 15
v -5.555702209472656 -8.314696311950684 15
v -7.071067810058594 -7.071067810058594 15
v -9.238795280456543 -3.8268344402313232 15
v -9.807852745056152 -1.9509031772613525 15
v -3.8268344402313232 -9.238795280456543 15
v -1.9509031772613525 -9.807852745056152 15
v -10 0 -15
v -9.807852745056152 1.9509031772613525 -15
v -9.238795280456543 3.8268344402313232 -15
v -8.314696311950684 5.555702209472656 -15
v -7.071067810058594 7.071067810058594 -15
v -5.555702209472656 8.314696311950684 -15
v -3.8268344402313232 9.238795280456543 -15
v -1.9509031772613525 9.807852745056152 -15
v -10 0 15
v -9.807852745056152 1.9509031772613525 15
v -9.238795280456543 3.8268344402313232 15
v -8.314696311950684 5.555702209472656 15
v -7.071067810058594 7.071067810058594 15
v -5.555702209472656 8.314696311950684 15
v -3.8268344402313232 9.238795280456543 15
v -1.9509031772613525 9.807852745056152 15
v 0 -10 -15
v 1.9509031772613525 -9.807852745056152 -15
v 3.8268344402313232 -9.238795280456543 -15
v 5.555702209472656 -8.314696311950684 -15
v 7.071067810058594 -7.071067810058594 -15
v 8.314696311950684 -5.555702209472656 -15
v 9.238795280456543 -3.8268344402313232 -15
v 9.807852745056152 -1.9509031772613525 -15
v 0 -10 15
v 1.9509031772613525 -9.807852745056152 15
v 3.8268344402313232 -9.238795280456543 15
v 5.555702209472656 -8.314696311950684 15
v 7.071067810058594 -7.071067810058594 15
v 8.314696311950684 -5.555702209472656 15
v 9.238795280456543 -3.8268344402313232 15
v 9.807852745056152 -1.9509031772613525 15
v 0 10 -15
v 1.9509031772613525 9.807852745056152 -15
v 3.8268344402313232 9.238795280456543 -15
v 10 0 -15
v 9.807852745056152 1.9509031772613525 -15
v 9.238795280456543 3.8268344402313232 -15
v 7.071067810058594 7.071067810058594 -15
v 5.555702209472656 8.314696311950684 -15
v 8.314696311950684 5.555702209472656 -15
v 0 10 15
v 1.9509031772613525 9.807852745056152 15
v 3.8268344402313232 9.238795280456543 15
v 10 0 15
v 9.807852745056152 1.9509031772613525 15
v 9.238795280456543 3.8268344402313232 15
v 7.071067810058594 7.071067810058594 15
v 5.555702209472656 8.314696311950684 15
v 8.314696311950684 5.555702209472656 15
vn -0.8263197701303853 -0.513731191573074 -0.2308157280095462
vn -0.5233467911727592 -0.7301849854600607 -0.4392471094701333
vn -0.6855601764112252 -0.6419765442869757 -0.34332690122441956
vn -0.9288818784757616 -0.3495069126795703 -0.12256987325005941
vn -0.9858019246635559 -0.1626616251971186 -0.04166246533584915
vn -0.35574060726131335 -0.7849405418419376 -0.5072641975521606
vn -0.1905193275688471 -0.8167465101237682 -0.5446352210639336
vn -0.7908446309801967 -0.5668234909035312 0.23081572695492586
vn -0.47432683192174574 -0.7629390563848443 0.43924714314572777
vn -0.6419765442869757 -0.6855601764112252 0.34332690122441956
vn -0.9039574181111458 -0.4096798858553113 0.12256988768620984
vn -0.9730101274390224 -0.22697033096843236 0.041662462255343626
vn -0.3034901391165892 -0.8065834232064133 0.5072641490068237
vn -0.13653847665078195 -0.8274839574932059 0.5446352398488974
vn -0.9994524137130019 0.03281250228719583 -0.0042676008374103154
vn -0.9737165342355064 0.22713511650612742 -0.016904135770325374
vn -0.9080886939728063 0.41155219526320863 -0.07745782370294704
vn -0.8003010621444734 0.5736012366792858 -0.17464200872190447
vn -0.6545597925546788 0.6989977375433128 -0.2880167371527319
vn -0.4852071933076557 0.780439902427448 -0.39431908178725344
vn -0.3095055763033995 0.8225706072108125 -0.4770575378190096
vn -0.13808091131265846 0.8368318169654005 -0.5297604855455459
vn -0.9994524137130019 -0.03281250228719583 0.0042676008374103154
vn -0.9865176167033215 0.16277973494736586 0.016904136312269325
vn -0.9331270560282366 0.35110423360062004 0.07745782372231622
vn -0.8362003777304983 0.5198741091262439 0.1746420308618922
vn -0.6989977375433128 0.6545597925546788 0.2880167371527319
vn -0.5353516943961178 0.7469344149785117 0.39431908783105346
vn -0.3627916969679302 0.8004987454260443 0.47705758895804057
vn -0.19267156845879133 0.825973098899127 0.5297604237790912
vn -0.027360181739105385 -0.8333775243822202 -0.5520265594242408
vn 0.13808091131265846 -0.8368318169654005 -0.5297604855455459
vn 0.30950558070377093 -0.8225706189056461 -0.4770575147992157
vn 0.4852072329625544 -0.7804398586703493 -0.39431911959658583
vn 0.6545597925546788 -0.6989977375433128 -0.2880167371527319
vn 0.8003010621444734 -0.5736012366792858 -0.17464200872190447
vn 0.9080886823108432 -0.4115522197802471 -0.07745783015878968
vn 0.9737165342661652 -0.22713511651327906 -0.01690413390821252
vn 0.027360181739105385 -0.8333775243822202 0.5520265594242408
vn 0.19267157672295368 -0.8259730704466562 0.5297604651349644
vn 0.3627917106956575 -0.8004987695621453 0.4770575380182247
vn 0.5353516943961178 -0.7469344149785117 0.39431908783105346
vn 0.6989977375433128 -0.6545597925546788 0.2880167371527319
vn 0.8362003777304983 -0.5198741091262439 0.1746420308618922
vn 0.9331270560282366 -0.35110423360062004 0.07745782372231622
vn 0.9865176167343833 -0.1627797349524912 0.01690413445015641
vn 0.027360181739105385 0.8333775243822202 -0.5520265594242408
vn 0.1905193275688471 0.8167465101237682 -0.5446352210639336
vn 0.3557405753427231 0.7849405967770434 -0.5072641349298482
vn 0.9994524137130019 -0.03281250228719583 -0.0042676008374103154
vn 0.9858019248165573 0.1626616252223645 -0.041662461617025116
vn 0.9288818784757616 0.3495069126795703 -0.12256987325005941
vn 0.6855601623820045 0.641976531149645 -0.34332695380326367
vn 0.5233467911727592 0.7301849854600607 -0.4392471094701333
vn 0.8263197391437155 0.513731231912998 -0.23081574915636807
vn -0.027360181739105385 0.8333775243822202 0.5520265594242408
vn 0.13653847665078195 0.8274839574932059 0.5446352398488974
vn 0.3034901391165892 0.8065834232064133 0.5072641490068237
vn 0.9994524137130019 0.03281250228719583 0.0042676008374103154
vn 0.9730101241481838 0.2269703451019523 0.04166246211443611
vn 0.9039574181111458 0.4096798858553113 0.12256988768620984
vn 0.641976531149645 0.6855601623820045 0.34332695380326367
vn 0.47432683192174574 0.7629390563848443 0.43924714314572777
vn 0.7908446309801967 0.5668234909035312 0.23081572695492586
f 8//8 1//1 3//3
f 10//10 3//3 2//2
f 17//17 4//4 5//5
f 18//18 1//1 4//4
f 19//19 3//3 1//1
f 20//20 2//2 3//3
f 11//11 4//4 1//1
f 12//12 5//5 4//4
f 23//23 15//15 5//5
f 9//9 2//2 6//6
f 13//13 6//6 7//7
f 14//14 7//7 31//31
f 21//21 6//6 2//2
f 22//22 7//7 6//6
f 47//47 31//31 7//7
f 9//9 10//10 2//2
f 10//10 8//8 3//3
f 11//11 12//12 4//4
f 8//8 11//11 1//1
f 12//12 23//23 5//5
f 25//25 12//12 11//11
f 26//26 11//11 8//8
f 27//27 8//8 10//10
f 28//28 10//10 9//9
f 13//13 9//9 6//6
f 14//14 13//13 7//7
f 39//39 14//14 31//31
f 29//29 9//9 13//13
f 30//30 13//13 14//14
f 56//56 14//14 39//39
f 16//16 5//5 15//15
f 17//17 5//5 16//16
f 18//18 4//4 17//17
f 19//19 1//1 18//18
f 20//20 3//3 19//19
f 24//24 16//16 15//15
f 25//25 17//17 16//16
f 26//26 18//18 17//17
f 27//27 19//19 18//18
f 28//28 20//20 19//19
f 21//21 2//2 20//20
f 22//22 6//6 21//21
f 47//47 7//7 22//22
f 29//29 21//21 20//20
f 30//30 22//22 21//21
f 56//56 47//47 22//22
f 23//23 24//24 15//15
f 24//24 25//25 16//16
f 25//25 26//26 17//17
f 24//24 23//23 12//12
f 25//25 24//24 12//12
f 26//26 25//25 11//11
f 27//27 26//26 8//8
f 28//28 27//27 10//10
f 26//26 27//27 18//18
f 27//27 28//28 19//19
f 29//29 28//28 9//9
f 30//30 29//29 13//13
f 56//56 30//30 14//14
f 28//28 29//29 20//20
f 29//29 30//30 21//21
f 30//30 56//56 22//22
f 39//39 31//31 32//32
f 40//40 32//32 33//33
f 41//41 33//33 34//34
f 48//48 32//32 31//31
f 49//49 33//33 32//32
f 54//54 34//34 33//33
f 42//42 34//34 35//35
f 43//43 35//35 36//36
f 53//53 35//35 34//34
f 55//55 36//36 35//35
f 52//52 37//37 36//36
f 51//51 38//38 37//37
f 44//44 36//36 37//37
f 45//45 37//37 38//38
f 46//46 38//38 50//50
f 40//40 39//39 32//32
f 41//41 40//40 33//33
f 42//42 41//41 34//34
f 57//57 39//39 40//40
f 58//58 40//40 41//41
f 63//63 41//41 42//42
f 43//43 42//42 35//35
f 44//44 43//43 36//36
f 45//45 44//44 37//37
f 46//46 45//45 38//38
f 59//59 46//46 50//50
f 62//62 42//42 43//43
f 64//64 43//43 44//44
f 61//61 44//44 45//45
f 60//60 45//45 46//46
f 48//48 31//31 47//47
f 49//49 32//32 48//48
f 54//54 33//33 49//49
f 57//57 48//48 47//47
f 58//58 49//49 48//48
f 63//63 54//54 49//49
f 53//53 34//34 54//54
f 55//55 35//35 53//53
f 52//52 36//36 55//55
f 50//50 38//38 51//51
f 51//51 37//37 52//52
f 59//59 50//50 51//51
f 60//60 51//51 52//52
f 61//61 52//52 55//55
f 62//62 53//53 54//54
f 64//64 55//55 53//53
f 57//57 56//56 39//39
f 58//58 57//57 40//40
f 63//63 58//58 41//41
f 56//56 57//57 47//47
f 57//57 58//58 48//48
f 58//58 63//63 49//49
f 60//60 59//59 51//51
f 64//64 61//61 55//55
f 61//61 60//60 52//52
f 62//62 63//63 42//42
f 64//64 62//62 43//43
f 61//61 64//64 44//44
f 59//59 60//60 46//46
f 60//60 61//61 45//45
f 62//62 64//64 53//53
f 63//63 62//62 54//54
