ply
format ascii 1.0
element vertex 64
property float x
property float y
property float z
property float nx
property float ny
property float nz
element face 124
property list uchar int vertex_index
end_header
-8.314696311950684 -5.555702209472656 -15 -0.8263197701303853 -0.513731191573074 -0.2308157280095462
-5.555702209472656 -8.314696311950684 -15 -0.5233467911727592 -0.7301849854600607 -0.4392471094701333
-7.071067810058594 -7.071067810058594 -15 -0.6855601764112252 -0.6419765442869757 -0.34332690122441956
-9.238795280456543 -3.8268344402313232 -15 -0.9288818784757616 -0.3495069126795703 -0.12256987325005941
-9.807852745056152 -1.9509031772613525 -15 -0.9858019246635559 -0.1626616251971186 -0.04166246533584915
-3.8268344402313232 -9.238795280456543 -15 -0.35574060726131335 -0.7849405418419376 -0.5072641975521606
-1.9509031772613525 -9.807852745056152 -15 -0.1905193275688471 -0.8167465101237682 -0.5446352210639336
-8.314696311950684 -5.555702209472656 15 -0.7908446309801967 -0.5668234909035312 0.23081572695492586
-5.555702209472656 -8.314696311950684 15 -0.47432683192174574 -0.7629390563848443 0.43924714314572777
-7.071067810058594 -7.071067810058594 15 -0.6419765442869757 -0.6855601764112252 0.34332690122441956
-9.238795280456543 -3.8268344402313232 15 -0.9039574181111458 -0.4096798858553113 0.12256988768620984
-9.807852745056152 -1.9509031772613525 15 -0.9730101274390224 -0.22697033096843236 0.041662462255343626
-3.8268344402313232 -9.238795280456543 15 -0.3034901391165892 -0.8065834232064133 0.5072641490068237
-1.9509031772613525 -9.807852745056152 15 -0.13653847665078195 -0.8274839574932059 0.5446352398488974
-10 0 -15 -0.9994524137130019 0.03281250228719583 -0.0042676008374103154
-9.807852745056152 1.9509031772613525 -15 -0.9737165342355064 0.22713511650612742 -0.016904135770325374
-9.238795280456543 3.8268344402313232 -15 -0.9080886939728063 0.41155219526320863 -0.07745782370294704
-8.314696311950684 5.555702209472656 -15 -0.8003010621444734 0.5736012366792858 -0.17464200872190447
-7.071067810058594 7.071067810058594 -15 -0.6545597925546788 0.6989977375433128 -0.2880167371527319
-5.555702209472656 8.314696311950684 -15 -0.4852071933076557 0.780439902427448 -0.39431908178725344
-3.8268344402313232 9.238795280456543 -15 -0.3095055763033995 0.8225706072108125 -0.4770575378190096
-1.9509031772613525 9.807852745056152 -15 -0.13808091131265846 0.8368318169654005 -0.5297604855455459
-10 0 15 -0.9994524137130019 -0.03281250228719583 0.0042676008374103154
-9.807852745056152 1.9509031772613525 15 -0.9865176167033215 0.16277973494736586 0.016904136312269325
-9.238795280456543 3.8268344402313232 15 -0.9331270560282366 0.35110423360062004 0.07745782372231622
-8.314696311950684 5.555702209472656 15 -0.8362003777304983 0.5198741091262439 0.1746420308618922
-7.071067810058594 7.071067810058594 15 -0.6989977375433128 0.6545597925546788 0.2880167371527319
-5.555702209472656 8.314696311950684 15 -0.5353516943961178 0.7469344149785117 0.39431908783105346
-3.8268344402313232 9.238795280456543 15 -0.3627916969679302 0.8004987454260443 0.47705758895804057
-1.9509031772613525 9.807852745056152 15 -0.19267156845879133 0.825973098899127 0.5297604237790912
0 -10 -15 -0.027360181739105385 -0.8333775243822202 -0.5520265594242408
1.9509031772613525 -9.807852745056152 -15 0.13808091131265846 -0.8368318169654005 -0.5297604855455459
3.8268344402313232 -9.238795280456543 -15 0.30950558070377093 -0.8225706189056461 -0.4770575147992157
5.555702209472656 -8.314696311950684 -15 0.4852072329625544 -0.7804398586703493 -0.39431911959658583
7.071067810058594 -7.071067810058594 -15 0.6545597925546788 -0.6989977375433128 -0.2880167371527319
8.314696311950684 -5.555702209472656 -15 0.8003010621444734 -0.5736012366792858 -0.17464200872190447
9.238795280456543 -3.8268344402313232 -15 0.9080886823108432 -0.4115522197802471 -0.07745783015878968
9.807852745056152 -1.9509031772613525 -15 0.9737165342661652 -0.22713511651327906 -0.01690413390821252
0 -10 15 0.027360181739105385 -0.8333775243822202 0.5520265594242408
1.9509031772613525 -9.807852745056152 15 0.19267157672295368 -0.8259730704466562 0.5297604651349644
3.8268344402313232 -9.238795280456543 15 0.3627917106956575 -0.8004987695621453 0.4770575380182247
5.555702209472656 -8.314696311950684 15 0.5353516943961178 -0.7469344149785117 0.39431908783105346
7.071067810058594 -7.071067810058594 15 0.6989977375433128 -0.6545597925546788 0.2880167371527319
8.314696311950684 -5.555702209472656 15 0.8362003777304983 -0.5198741091262439 0.1746420308618922
9.238795280456543 -3.8268344402313232 15 0.9331270560282366 -0.35110423360062004 0.07745782372231622
9.807852745056152 -1.9509031772613525 15 0.9865176167343833 -0.1627797349524912 0.01690413445015641
0 10 -15 0.027360181739105385 0.8333775243822202 -0.5520265594242408
1.9509031772613525 9.807852745056152 -15 0.1905193275688471 0.8167465101237682 -0.5446352210639336
3.8268344402313232 9.238795280456543 -15 0.3557405753427231 0.7849405967770434 -0.5072641349298482
10 0 -15 0.9994524137130019 -0.03281250228719583 -0.0042676008374103154
9.807852745056152 1.9509031772613525 -15 0.9858019248165573 0.1626616252223645 -0.041662461617025116
9.238795280456543 3.8268344402313232 -15 0.9288818784757616 0.3495069126795703 -0.12256987325005941
7.071067810058594 7.071067810058594 -15 0.6855601623820045 0.641976531149645 -0.34332695380326367
5.555702209472656 8.314696311950684 -15 0.5233467911727592 0.7301849854600607 -0.4392471094701333
8.314696311950684 5.555702209472656 -15 0.8263197391437155 0.513731231912998 -0.23081574915636807
0 10 15 -0.027360181739105385 0.8333775243822202 0.5520265594242408
1.9509031772613525 9.807852745056152 15 0.13653847665078195 0.8274839574932059 0.5446352398488974
3.8268344402313232 9.238795280456543 15 0.3034901391165892 0.8065834232064133 0.5072641490068237
10 0 15 0.9994524137130019 0.03281250228719583 0.0042676008374103154
9.807852745056152 1.9509031772613525 15 0.9730101241481838 0.2269703451019523 0.04166246211443611
9.238795280456543 3.8268344402313232 15 0.9039574181111458 0.4096798858553113 0.12256988768620984
7.071067810058594 7.071067810058594 15 0.641976531149645 0.6855601623820045 0.34332695380326367
5.555702209472656 8.314696311950684 15 0.47432683192174574 0.7629390563848443 0.43924714314572777
8.314696311950684 5.555702209472656 15 0.7908446309801967 0.5668234909035312 0.23081572695492586
3 7 0 2
3 9 2 1
3 16 3 4
3 17 0 3
3 18 2 0
3 19 1 2
3 10 3 0
3 11 4 3
3 22 14 4
3 8 1 5
3 12 5 6
3 13 6 30
3 20 5 1
3 21 6 5
3 46 30 6
3 8 9 1
3 9 7 2
3 10 11 3
3 7 10 0
3 11 22 4
3 24 11 10
3 25 10 7
3 26 7 9
3 27 9 8
3 12 8 5
3 13 12 6
3 38 13 30
3 28 8 12
3 29 12 13
3 55 13 38
3 15 4 14
3 16 4 15
3 17 3 16
3 18 0 17
3 19 2 18
3 23 15 14
3 24 16 15
3 25 17 16
3 26 18 17
3 27 19 18
3 20 1 19
3 21 5 20
3 46 6 21
3 28 20 19
3 29 21 20
3 55 46 21
3 22 23 14
3 23 24 15
3 24 25 16
3 23 22 11
3 24 23 11
3 25 24 10
3 26 25 7
3 27 26 9
3 25 26 17
3 26 27 18
3 28 27 8
3 29 28 12
3 55 29 13
3 27 28 19
3 28 29 20
3 29 55 21
3 38 30 31
3 39 31 32
3 40 32 33
3 47 31 30
3 48 32 31
3 53 33 32
3 41 33 34
3 42 34 35
3 52 34 33
3 54 35 34
3 51 36 35
3 50 37 36
3 43 35 36
3 44 36 37
3 45 37 49
3 39 38 31
3 40 39 32
3 41 40 33
3 56 38 39
3 57 39 40
3 62 40 41
3 42 41 34
3 43 42 35
3 44 43 36
3 45 44 37
3 58 45 49
3 61 41 42
3 63 42 43
3 60 43 44
3 59 44 45
3 47 30 46
3 48 31 47
3 53 32 48
3 56 47 46
3 57 48 47
3 62 53 48
3 52 33 53
3 54 34 52
3 51 35 54
3 49 37 50
3 50 36 51
3 58 49 50
3 59 50 51
3 60 51 54
3 61 52 53
3 63 54 52
3 56 55 38
3 57 56 39
3 62 57 40
3 55 56 46
3 56 57 47
3 57 62 48
3 59 58 50
3 63 60 54
3 60 59 51
3 61 62 41
3 63 61 42
3 60 63 43
3 58 59 45
3 59 60 44
3 61 63 52
3 62 61 53

