solid exported
	facet normal -0.7409512657197663 -0.6715587999782866 0
		outer loop
			vertex -7.730104446411133 -6.343932628631592 15
			vertex -7.730104446411133 -6.343932628631592 -15
			vertex -7.071067810058594 -7.071067810058594 -15
		endloop
	endfacet
	facet normal -0.8032073634756709 -0.5956995310208507 0
		outer loop
			vertex -8.314696311950684 -5.555702209472656 15
			vertex -8.314696311950684 -5.555702209472656 -15
			vertex -7.730104446411133 -6.343932628631592 -15
		endloop
	endfacet
	facet normal -0.5956995310208507 -0.8032073634756709 0
		outer loop
			vertex -6.343932628631592 -7.730104446411133 15
			vertex -6.343932628631592 -7.730104446411133 -15
			vertex -5.555702209472656 -8.314696311950684 -15
		endloop
	endfacet
	facet normal -0.5141028390402569 -0.8577285531511399 0
		outer loop
			vertex -5.555702209472656 -8.314696311950684 15
			vertex -5.555702209472656 -8.314696311950684 -15
			vertex -4.713967323303223 -8.819212913513184 -15
		endloop
	endfacet
	facet normal -0.6715587999782866 -0.7409512657197663 0
		outer loop
			vertex -7.071067810058594 -7.071067810058594 15
			vertex -7.071067810058594 -7.071067810058594 -15
			vertex -6.343932628631592 -7.730104446411133 -15
		endloop
	endfacet
	facet normal 0 0 -1
		outer loop
			vertex -8.819212913513184 4.713967323303223 -15
			vertex -8.819212913513184 -4.713967323303223 -15
			vertex -9.238795280456543 -3.8268344402313232 -15
		endloop
	endfacet
	facet normal 0 0 -1
		outer loop
			vertex -9.569403648376465 2.9028468132019043 -15
			vertex -9.569403648376465 -2.9028468132019043 -15
			vertex -9.807852745056152 -1.9509031772613525 -15
		endloop
	endfacet
	facet normal 0 0 -1
		outer loop
			vertex -9.807852745056152 1.9509031772613525 -15
			vertex -9.807852745056152 -1.9509031772613525 -15
			vertex -9.951847076416016 -0.9801713824272156 -15
		endloop
	endfacet
	facet normal 0 0 -1
		outer loop
			vertex -9.238795280456543 3.8268344402313232 -15
			vertex -9.238795280456543 -3.8268344402313232 -15
			vertex -9.569403648376465 -2.9028468132019043 -15
		endloop
	endfacet
	facet normal 0 0 -1
		outer loop
			vertex -8.314696311950684 5.555702209472656 -15
			vertex -8.314696311950684 -5.555702209472656 -15
			vertex -8.819212913513184 -4.713967323303223 -15
		endloop
	endfacet
	facet normal 0 0 -1
		outer loop
			vertex -7.730104446411133 6.343932628631592 -15
			vertex -7.730104446411133 -6.343932628631592 -15
			vertex -8.314696311950684 -5.555702209472656 -15
		endloop
	endfacet
	facet normal 0 0 -1
		outer loop
			vertex -5.555702209472656 8.314696311950684 -15
			vertex -5.555702209472656 -8.314696311950684 -15
			vertex -6.343932628631592 -7.730104446411133 -15
		endloop
	endfacet
	facet normal 0 0 -1
		outer loop
			vertex -7.071067810058594 7.071067810058594 -15
			vertex -7.071067810058594 -7.071067810058594 -15
			vertex -7.730104446411133 -6.343932628631592 -15
		endloop
	endfacet
	facet normal 0 0 -1
		outer loop
			vertex -6.343932628631592 7.730104446411133 -15
			vertex -6.343932628631592 -7.730104446411133 -15
			vertex -7.071067810058594 -7.071067810058594 -15
		endloop
	endfacet
	facet normal -0.9039893869716183 -0.42755489500493143 0
		outer loop
			vertex -9.238795280456543 -3.8268344402313232 15
			vertex -9.238795280456543 -3.8268344402313232 -15
			vertex -8.819212913513184 -4.713967323303223 -15
		endloop
	endfacet
	facet normal -0.9415439654539728 -0.3368901321161071 0
		outer loop
			vertex -9.569403648376465 -2.9028468132019043 15
			vertex -9.569403648376465 -2.9028468132019043 -15
			vertex -9.238795280456543 -3.8268344402313232 -15
		endloop
	endfacet
	facet normal -0.8577285531511399 -0.5141028390402569 0
		outer loop
			vertex -8.819212913513184 -4.713967323303223 15
			vertex -8.819212913513184 -4.713967323303223 -15
			vertex -8.314696311950684 -5.555702209472656 -15
		endloop
	endfacet
	facet normal -0.9700313422906005 -0.2429798242115914 0
		outer loop
			vertex -9.807852745056152 -1.9509031772613525 15
			vertex -9.807852745056152 -1.9509031772613525 -15
			vertex -9.569403648376465 -2.9028468132019043 -15
		endloop
	endfacet
	facet normal -0.9891765289051243 -0.146730346769883 0
		outer loop
			vertex -9.951847076416016 -0.9801713824272156 15
			vertex -9.951847076416016 -0.9801713824272156 -15
			vertex -9.807852745056152 -1.9509031772613525 -15
		endloop
	endfacet
	facet normal -0.9987954466501191 -0.04906786882460946 0
		outer loop
			vertex -10 0 15
			vertex -10 0 -15
			vertex -9.951847076416016 -0.9801713824272156 -15
		endloop
	endfacet
	facet normal -0.42755489500493143 -0.9039893869716183 0
		outer loop
			vertex -4.713967323303223 -8.819212913513184 15
			vertex -4.713967323303223 -8.819212913513184 -15
			vertex -3.8268344402313232 -9.238795280456543 -15
		endloop
	endfacet
	facet normal -0.3368901321161071 -0.9415439654539728 0
		outer loop
			vertex -3.8268344402313232 -9.238795280456543 15
			vertex -3.8268344402313232 -9.238795280456543 -15
			vertex -2.9028468132019043 -9.569403648376465 -15
		endloop
	endfacet
	facet normal -0.2429798242115914 -0.9700313422906005 0
		outer loop
			vertex -2.9028468132019043 -9.569403648376465 15
			vertex -2.9028468132019043 -9.569403648376465 -15
			vertex -1.9509031772613525 -9.807852745056152 -15
		endloop
	endfacet
	facet normal -0.146730346769883 -0.9891765289051243 0
		outer loop
			vertex -1.9509031772613525 -9.807852745056152 15
			vertex -1.9509031772613525 -9.807852745056152 -15
			vertex -0.9801713824272156 -9.951847076416016 -15
		endloop
	endfacet
	facet normal -0.04906786882460946 -0.9987954466501191 0
		outer loop
			vertex -0.9801713824272156 -9.951847076416016 15
			vertex -0.9801713824272156 -9.951847076416016 -15
			vertex 0 -10 -15
		endloop
	endfacet
	facet normal 0 0 -1
		outer loop
			vertex -4.713967323303223 8.819212913513184 -15
			vertex -4.713967323303223 -8.819212913513184 -15
			vertex -5.555702209472656 -8.314696311950684 -15
		endloop
	endfacet
	facet normal 0 0 -1
		outer loop
			vertex -3.8268344402313232 9.238795280456543 -15
			vertex -3.8268344402313232 -9.238795280456543 -15
			vertex -4.713967323303223 -8.819212913513184 -15
		endloop
	endfacet
	facet normal 0 0 -1
		outer loop
			vertex -2.9028468132019043 9.569403648376465 -15
			vertex -2.9028468132019043 -9.569403648376465 -15
			vertex -3.8268344402313232 -9.238795280456543 -15
		endloop
	endfacet
	facet normal 0 0 -1
		outer loop
			vertex -1.9509031772613525 9.807852745056152 -15
			vertex -1.9509031772613525 -9.807852745056152 -15
			vertex -2.9028468132019043 -9.569403648376465 -15
		endloop
	endfacet
	facet normal 0 0 -1
		outer loop
			vertex -0.9801713824272156 9.951847076416016 -15
			vertex -0.9801713824272156 -9.951847076416016 -15
			vertex -1.9509031772613525 -9.807852745056152 -15
		endloop
	endfacet
	facet normal 0 0 -1
		outer loop
			vertex 0 10 -15
			vertex 0 -10 -15
			vertex -0.9801713824272156 -9.951847076416016 -15
		endloop
	endfacet
	facet normal -0.8577285531511399 -0.5141028390402569 0
		outer loop
			vertex -8.314696311950684 -5.555702209472656 15
			vertex -8.819212913513184 -4.713967323303223 15
			vertex -8.314696311950684 -5.555702209472656 -15
		endloop
	endfacet
	facet normal -0.8032073634756709 -0.5956995310208507 0
		outer loop
			vertex -7.730104446411133 -6.343932628631592 15
			vertex -8.314696311950684 -5.555702209472656 15
			vertex -7.730104446411133 -6.343932628631592 -15
		endloop
	endfacet
	facet normal -0.6715587999782866 -0.7409512657197663 0
		outer loop
			vertex -6.343932628631592 -7.730104446411133 15
			vertex -7.071067810058594 -7.071067810058594 15
			vertex -6.343932628631592 -7.730104446411133 -15
		endloop
	endfacet
	facet normal -0.5956995310208507 -0.8032073634756709 0
		outer loop
			vertex -5.555702209472656 -8.314696311950684 15
			vertex -6.343932628631592 -7.730104446411133 15
			vertex -5.555702209472656 -8.314696311950684 -15
		endloop
	endfacet
	facet normal -0.7409512657197663 -0.6715587999782866 0
		outer loop
			vertex -7.071067810058594 -7.071067810058594 15
			vertex -7.730104446411133 -6.343932628631592 15
			vertex -7.071067810058594 -7.071067810058594 -15
		endloop
	endfacet
	facet normal -0.9039893869716183 -0.42755489500493143 0
		outer loop
			vertex -8.819212913513184 -4.713967323303223 15
			vertex -9.238795280456543 -3.8268344402313232 15
			vertex -8.819212913513184 -4.713967323303223 -15
		endloop
	endfacet
	facet normal -0.9700313422906005 -0.2429798242115914 0
		outer loop
			vertex -9.569403648376465 -2.9028468132019043 15
			vertex -9.807852745056152 -1.9509031772613525 15
			vertex -9.569403648376465 -2.9028468132019043 -15
		endloop
	endfacet
	facet normal -0.9415439654539728 -0.3368901321161071 0
		outer loop
			vertex -9.238795280456543 -3.8268344402313232 15
			vertex -9.569403648376465 -2.9028468132019043 15
			vertex -9.238795280456543 -3.8268344402313232 -15
		endloop
	endfacet
	facet normal -0.9891765289051243 -0.146730346769883 0
		outer loop
			vertex -9.807852745056152 -1.9509031772613525 15
			vertex -9.951847076416016 -0.9801713824272156 15
			vertex -9.807852745056152 -1.9509031772613525 -15
		endloop
	endfacet
	facet normal -0.9987954466501191 -0.04906786882460946 0
		outer loop
			vertex -9.951847076416016 -0.9801713824272156 15
			vertex -10 0 15
			vertex -9.951847076416016 -0.9801713824272156 -15
		endloop
	endfacet
	facet normal 0 0 1
		outer loop
			vertex -8.819212913513184 4.713967323303223 15
			vertex -9.238795280456543 -3.8268344402313232 15
			vertex -8.819212913513184 -4.713967323303223 15
		endloop
	endfacet
	facet normal 0 0 1
		outer loop
			vertex -9.569403648376465 2.9028468132019043 15
			vertex -9.807852745056152 -1.9509031772613525 15
			vertex -9.569403648376465 -2.9028468132019043 15
		endloop
	endfacet
	facet normal 0 0 1
		outer loop
			vertex -9.807852745056152 1.9509031772613525 15
			vertex -9.951847076416016 -0.9801713824272156 15
			vertex -9.807852745056152 -1.9509031772613525 15
		endloop
	endfacet
	facet normal 0 0 1
		outer loop
			vertex -9.238795280456543 3.8268344402313232 15
			vertex -9.569403648376465 -2.9028468132019043 15
			vertex -9.238795280456543 -3.8268344402313232 15
		endloop
	endfacet
	facet normal 0 0 1
		outer loop
			vertex -8.314696311950684 5.555702209472656 15
			vertex -8.819212913513184 -4.713967323303223 15
			vertex -8.314696311950684 -5.555702209472656 15
		endloop
	endfacet
	facet normal 0 0 1
		outer loop
			vertex -7.730104446411133 6.343932628631592 15
			vertex -8.314696311950684 -5.555702209472656 15
			vertex -7.730104446411133 -6.343932628631592 15
		endloop
	endfacet
	facet normal 0 0 1
		outer loop
			vertex -5.555702209472656 8.314696311950684 15
			vertex -6.343932628631592 -7.730104446411133 15
			vertex -5.555702209472656 -8.314696311950684 15
		endloop
	endfacet
	facet normal 0 0 1
		outer loop
			vertex -7.071067810058594 7.071067810058594 15
			vertex -7.730104446411133 -6.343932628631592 15
			vertex -7.071067810058594 -7.071067810058594 15
		endloop
	endfacet
	facet normal 0 0 1
		outer loop
			vertex -6.343932628631592 7.730104446411133 15
			vertex -7.071067810058594 -7.071067810058594 15
			vertex -6.343932628631592 -7.730104446411133 15
		endloop
	endfacet
	facet normal -0.42755489500493143 -0.9039893869716183 0
		outer loop
			vertex -3.8268344402313232 -9.238795280456543 15
			vertex -4.713967323303223 -8.819212913513184 15
			vertex -3.8268344402313232 -9.238795280456543 -15
		endloop
	endfacet
	facet normal -0.5141028390402569 -0.8577285531511399 0
		outer loop
			vertex -4.713967323303223 -8.819212913513184 15
			vertex -5.555702209472656 -8.314696311950684 15
			vertex -4.713967323303223 -8.819212913513184 -15
		endloop
	endfacet
	facet normal -0.3368901321161071 -0.9415439654539728 0
		outer loop
			vertex -2.9028468132019043 -9.569403648376465 15
			vertex -3.8268344402313232 -9.238795280456543 15
			vertex -2.9028468132019043 -9.569403648376465 -15
		endloop
	endfacet
	facet normal -0.2429798242115914 -0.9700313422906005 0
		outer loop
			vertex -1.9509031772613525 -9.807852745056152 15
			vertex -2.9028468132019043 -9.569403648376465 15
			vertex -1.9509031772613525 -9.807852745056152 -15
		endloop
	endfacet
	facet normal -0.146730346769883 -0.9891765289051243 0
		outer loop
			vertex -0.9801713824272156 -9.951847076416016 15
			vertex -1.9509031772613525 -9.807852745056152 15
			vertex -0.9801713824272156 -9.951847076416016 -15
		endloop
	endfacet
	facet normal -0.04906786882460946 -0.9987954466501191 0
		outer loop
			vertex 0 -10 15
			vertex -0.9801713824272156 -9.951847076416016 15
			vertex 0 -10 -15
		endloop
	endfacet
	facet normal 0 0 1
		outer loop
			vertex -4.713967323303223 8.819212913513184 15
			vertex -5.555702209472656 -8.314696311950684 15
			vertex -4.713967323303223 -8.819212913513184 15
		endloop
	endfacet
	facet normal 0 0 1
		outer loop
			vertex -3.8268344402313232 9.238795280456543 15
			vertex -4.713967323303223 -8.819212913513184 15
			vertex -3.8268344402313232 -9.238795280456543 15
		endloop
	endfacet
	facet normal 0 0 1
		outer loop
			vertex -2.9028468132019043 9.569403648376465 15
			vertex -3.8268344402313232 -9.238795280456543 15
			vertex -2.9028468132019043 -9.569403648376465 15
		endloop
	endfacet
	facet normal 0 0 1
		outer loop
			vertex -1.9509031772613525 9.807852745056152 15
			vertex -2.9028468132019043 -9.569403648376465 15
			vertex -1.9509031772613525 -9.807852745056152 15
		endloop
	endfacet
	facet normal 0 0 1
		outer loop
			vertex -0.9801713824272156 9.951847076416016 15
			vertex -1.9509031772613525 -9.807852745056152 15
			vertex -0.9801713824272156 -9.951847076416016 15
		endloop
	endfacet
	facet normal 0 0 1
		outer loop
			vertex 0 10 15
			vertex -0.9801713824272156 -9.951847076416016 15
			vertex 0 -10 15
		endloop
	endfacet
	facet normal 0 0 -1
		outer loop
			vertex -9.951847076416016 0.9801713824272156 -15
			vertex -9.951847076416016 -0.9801713824272156 -15
			vertex -10 0 -15
		endloop
	endfacet
	facet normal 0 0 -1
		outer loop
			vertex -9.807852745056152 1.9509031772613525 -15
			vertex -9.951847076416016 -0.9801713824272156 -15
			vertex -9.951847076416016 0.9801713824272156 -15
		endloop
	endfacet
	facet normal 0 0 -1
		outer loop
			vertex -9.569403648376465 2.9028468132019043 -15
			vertex -9.807852745056152 -1.9509031772613525 -15
			vertex -9.807852745056152 1.9509031772613525 -15
		endloop
	endfacet
	facet normal 0 0 -1
		outer loop
			vertex -9.238795280456543 3.8268344402313232 -15
			vertex -9.569403648376465 -2.9028468132019043 -15
			vertex -9.569403648376465 2.9028468132019043 -15
		endloop
	endfacet
	facet normal 0 0 -1
		outer loop
			vertex -8.819212913513184 4.713967323303223 -15
			vertex -9.238795280456543 -3.8268344402313232 -15
			vertex -9.238795280456543 3.8268344402313232 -15
		endloop
	endfacet
	facet normal 0 0 -1
		outer loop
			vertex -8.314696311950684 5.555702209472656 -15
			vertex -8.819212913513184 -4.713967323303223 -15
			vertex -8.819212913513184 4.713967323303223 -15
		endloop
	endfacet
	facet normal 0 0 -1
		outer loop
			vertex -7.730104446411133 6.343932628631592 -15
			vertex -8.314696311950684 -5.555702209472656 -15
			vertex -8.314696311950684 5.555702209472656 -15
		endloop
	endfacet
	facet normal 0 0 -1
		outer loop
			vertex -7.071067810058594 7.071067810058594 -15
			vertex -7.730104446411133 -6.343932628631592 -15
			vertex -7.730104446411133 6.343932628631592 -15
		endloop
	endfacet
	facet normal 0 0 -1
		outer loop
			vertex -6.343932628631592 7.730104446411133 -15
			vertex -7.071067810058594 -7.071067810058594 -15
			vertex -7.071067810058594 7.071067810058594 -15
		endloop
	endfacet
	facet normal 0 0 -1
		outer loop
			vertex -5.555702209472656 8.314696311950684 -15
			vertex -6.343932628631592 -7.730104446411133 -15
			vertex -6.343932628631592 7.730104446411133 -15
		endloop
	endfacet
	facet normal 0 0 -1
		outer loop
			vertex -4.713967323303223 8.819212913513184 -15
			vertex -5.555702209472656 -8.314696311950684 -15
			vertex -5.555702209472656 8.314696311950684 -15
		endloop
	endfacet
	facet normal -0.9987954466501191 0.04906786882460946 0
		outer loop
			vertex -9.951847076416016 0.9801713824272156 15
			vertex -9.951847076416016 0.9801713824272156 -15
			vertex -10 0 -15
		endloop
	endfacet
	facet normal -0.9891765289051243 0.146730346769883 0
		outer loop
			vertex -9.807852745056152 1.9509031772613525 15
			vertex -9.807852745056152 1.9509031772613525 -15
			vertex -9.951847076416016 0.9801713824272156 -15
		endloop
	endfacet
	facet normal -0.9700313422906005 0.2429798242115914 0
		outer loop
			vertex -9.569403648376465 2.9028468132019043 15
			vertex -9.569403648376465 2.9028468132019043 -15
			vertex -9.807852745056152 1.9509031772613525 -15
		endloop
	endfacet
	facet normal -0.9415439654539728 0.3368901321161071 0
		outer loop
			vertex -9.238795280456543 3.8268344402313232 15
			vertex -9.238795280456543 3.8268344402313232 -15
			vertex -9.569403648376465 2.9028468132019043 -15
		endloop
	endfacet
	facet normal -0.9039893869716183 0.42755489500493143 0
		outer loop
			vertex -8.819212913513184 4.713967323303223 15
			vertex -8.819212913513184 4.713967323303223 -15
			vertex -9.238795280456543 3.8268344402313232 -15
		endloop
	endfacet
	facet normal -0.8577285531511399 0.5141028390402569 0
		outer loop
			vertex -8.314696311950684 5.555702209472656 15
			vertex -8.314696311950684 5.555702209472656 -15
			vertex -8.819212913513184 4.713967323303223 -15
		endloop
	endfacet
	facet normal -0.8032073634756709 0.5956995310208507 0
		outer loop
			vertex -7.730104446411133 6.343932628631592 15
			vertex -7.730104446411133 6.343932628631592 -15
			vertex -8.314696311950684 5.555702209472656 -15
		endloop
	endfacet
	facet normal -0.7409512657197663 0.6715587999782866 0
		outer loop
			vertex -7.071067810058594 7.071067810058594 15
			vertex -7.071067810058594 7.071067810058594 -15
			vertex -7.730104446411133 6.343932628631592 -15
		endloop
	endfacet
	facet normal -0.6715587999782866 0.7409512657197663 0
		outer loop
			vertex -6.343932628631592 7.730104446411133 15
			vertex -6.343932628631592 7.730104446411133 -15
			vertex -7.071067810058594 7.071067810058594 -15
		endloop
	endfacet
	facet normal -0.5956995310208507 0.8032073634756709 0
		outer loop
			vertex -5.555702209472656 8.314696311950684 15
			vertex -5.555702209472656 8.314696311950684 -15
			vertex -6.343932628631592 7.730104446411133 -15
		endloop
	endfacet
	facet normal 0 0 -1
		outer loop
			vertex -3.8268344402313232 9.238795280456543 -15
			vertex -4.713967323303223 -8.819212913513184 -15
			vertex -4.713967323303223 8.819212913513184 -15
		endloop
	endfacet
	facet normal 0 0 -1
		outer loop
			vertex -2.9028468132019043 9.569403648376465 -15
			vertex -3.8268344402313232 -9.238795280456543 -15
			vertex -3.8268344402313232 9.238795280456543 -15
		endloop
	endfacet
	facet normal 0 0 -1
		outer loop
			vertex -1.9509031772613525 9.807852745056152 -15
			vertex -2.9028468132019043 -9.569403648376465 -15
			vertex -2.9028468132019043 9.569403648376465 -15
		endloop
	endfacet
	facet normal 0 0 -1
		outer loop
			vertex -0.9801713824272156 9.951847076416016 -15
			vertex -1.9509031772613525 -9.807852745056152 -15
			vertex -1.9509031772613525 9.807852745056152 -15
		endloop
	endfacet
	facet normal 0 0 -1
		outer loop
			vertex 0 10 -15
			vertex -0.9801713824272156 -9.951847076416016 -15
			vertex -0.9801713824272156 9.951847076416016 -15
		endloop
	endfacet
	facet normal -0.5141028390402569 0.8577285531511399 0
		outer loop
			vertex -4.713967323303223 8.819212913513184 15
			vertex -4.713967323303223 8.819212913513184 -15
			vertex -5.555702209472656 8.314696311950684 -15
		endloop
	endfacet
	facet normal -0.42755489500493143 0.9039893869716183 0
		outer loop
			vertex -3.8268344402313232 9.238795280456543 15
			vertex -3.8268344402313232 9.238795280456543 -15
			vertex -4.713967323303223 8.819212913513184 -15
		endloop
	endfacet
	facet normal -0.3368901321161071 0.9415439654539728 0
		outer loop
			vertex -2.9028468132019043 9.569403648376465 15
			vertex -2.9028468132019043 9.569403648376465 -15
			vertex -3.8268344402313232 9.238795280456543 -15
		endloop
	endfacet
	facet normal -0.2429798242115914 0.9700313422906005 0
		outer loop
			vertex -1.9509031772613525 9.807852745056152 15
			vertex -1.9509031772613525 9.807852745056152 -15
			vertex -2.9028468132019043 9.569403648376465 -15
		endloop
	endfacet
	facet normal -0.146730346769883 0.9891765289051243 0
		outer loop
			vertex -0.9801713824272156 9.951847076416016 15
			vertex -0.9801713824272156 9.951847076416016 -15
			vertex -1.9509031772613525 9.807852745056152 -15
		endloop
	endfacet
	facet normal -0.04906786882460946 0.9987954466501191 0
		outer loop
			vertex 0 10 15
			vertex 0 10 -15
			vertex -0.9801713824272156 9.951847076416016 -15
		endloop
	endfacet
	facet normal -0.9987954466501191 0.04906786882460946 0
		outer loop
			vertex -10 0 15
			vertex -9.951847076416016 0.9801713824272156 15
			vertex -10 0 -15
		endloop
	endfacet
	facet normal -0.9891765289051243 0.146730346769883 0
		outer loop
			vertex -9.951847076416016 0.9801713824272156 15
			vertex -9.807852745056152 1.9509031772613525 15
			vertex -9.951847076416016 0.9801713824272156 -15
		endloop
	endfacet
	facet normal -0.9700313422906005 0.2429798242115914 0
		outer loop
			vertex -9.807852745056152 1.9509031772613525 15
			vertex -9.569403648376465 2.9028468132019043 15
			vertex -9.807852745056152 1.9509031772613525 -15
		endloop
	endfacet
	facet normal -0.9415439654539728 0.3368901321161071 0
		outer loop
			vertex -9.569403648376465 2.9028468132019043 15
			vertex -9.238795280456543 3.8268344402313232 15
			vertex -9.569403648376465 2.9028468132019043 -15
		endloop
	endfacet
	facet normal -0.9039893869716183 0.42755489500493143 0
		outer loop
			vertex -9.238795280456543 3.8268344402313232 15
			vertex -8.819212913513184 4.713967323303223 15
			vertex -9.238795280456543 3.8268344402313232 -15
		endloop
	endfacet
	facet normal -0.8577285531511399 0.5141028390402569 0
		outer loop
			vertex -8.819212913513184 4.713967323303223 15
			vertex -8.314696311950684 5.555702209472656 15
			vertex -8.819212913513184 4.713967323303223 -15
		endloop
	endfacet
	facet normal 0 0 1
		outer loop
			vertex -9.951847076416016 0.9801713824272156 15
			vertex -10 0 15
			vertex -9.951847076416016 -0.9801713824272156 15
		endloop
	endfacet
	facet normal 0 0 1
		outer loop
			vertex -9.807852745056152 1.9509031772613525 15
			vertex -9.951847076416016 0.9801713824272156 15
			vertex -9.951847076416016 -0.9801713824272156 15
		endloop
	endfacet
	facet normal 0 0 1
		outer loop
			vertex -9.569403648376465 2.9028468132019043 15
			vertex -9.807852745056152 1.9509031772613525 15
			vertex -9.807852745056152 -1.9509031772613525 15
		endloop
	endfacet
	facet normal 0 0 1
		outer loop
			vertex -9.238795280456543 3.8268344402313232 15
			vertex -9.569403648376465 2.9028468132019043 15
			vertex -9.569403648376465 -2.9028468132019043 15
		endloop
	endfacet
	facet normal 0 0 1
		outer loop
			vertex -8.819212913513184 4.713967323303223 15
			vertex -9.238795280456543 3.8268344402313232 15
			vertex -9.238795280456543 -3.8268344402313232 15
		endloop
	endfacet
	facet normal 0 0 1
		outer loop
			vertex -8.314696311950684 5.555702209472656 15
			vertex -8.819212913513184 4.713967323303223 15
			vertex -8.819212913513184 -4.713967323303223 15
		endloop
	endfacet
	facet normal 0 0 1
		outer loop
			vertex -7.730104446411133 6.343932628631592 15
			vertex -8.314696311950684 5.555702209472656 15
			vertex -8.314696311950684 -5.555702209472656 15
		endloop
	endfacet
	facet normal 0 0 1
		outer loop
			vertex -7.071067810058594 7.071067810058594 15
			vertex -7.730104446411133 6.343932628631592 15
			vertex -7.730104446411133 -6.343932628631592 15
		endloop
	endfacet
	facet normal 0 0 1
		outer loop
			vertex -6.343932628631592 7.730104446411133 15
			vertex -7.071067810058594 7.071067810058594 15
			vertex -7.071067810058594 -7.071067810058594 15
		endloop
	endfacet
	facet normal 0 0 1
		outer loop
			vertex -5.555702209472656 8.314696311950684 15
			vertex -6.343932628631592 7.730104446411133 15
			vertex -6.343932628631592 -7.730104446411133 15
		endloop
	endfacet
	facet normal 0 0 1
		outer loop
			vertex -4.713967323303223 8.819212913513184 15
			vertex -5.555702209472656 8.314696311950684 15
			vertex -5.555702209472656 -8.314696311950684 15
		endloop
	endfacet
	facet normal -0.8032073634756709 0.5956995310208507 0
		outer loop
			vertex -8.314696311950684 5.555702209472656 15
			vertex -7.730104446411133 6.343932628631592 15
			vertex -8.314696311950684 5.555702209472656 -15
		endloop
	endfacet
	facet normal -0.7409512657197663 0.6715587999782866 0
		outer loop
			vertex -7.730104446411133 6.343932628631592 15
			vertex -7.071067810058594 7.071067810058594 15
			vertex -7.730104446411133 6.343932628631592 -15
		endloop
	endfacet
	facet normal -0.6715587999782866 0.7409512657197663 0
		outer loop
			vertex -7.071067810058594 7.071067810058594 15
			vertex -6.343932628631592 7.730104446411133 15
			vertex -7.071067810058594 7.071067810058594 -15
		endloop
	endfacet
	facet normal -0.5956995310208507 0.8032073634756709 0
		outer loop
			vertex -6.343932628631592 7.730104446411133 15
			vertex -5.555702209472656 8.314696311950684 15
			vertex -6.343932628631592 7.730104446411133 -15
		endloop
	endfacet
	facet normal -0.5141028390402569 0.8577285531511399 0
		outer loop
			vertex -5.555702209472656 8.314696311950684 15
			vertex -4.713967323303223 8.819212913513184 15
			vertex -5.555702209472656 8.314696311950684 -15
		endloop
	endfacet
	facet normal 0 0 1
		outer loop
			vertex -3.8268344402313232 9.238795280456543 15
			vertex -4.713967323303223 8.819212913513184 15
			vertex -4.713967323303223 -8.819212913513184 15
		endloop
	endfacet
	facet normal 0 0 1
		outer loop
			vertex -2.9028468132019043 9.569403648376465 15
			vertex -3.8268344402313232 9.238795280456543 15
			vertex -3.8268344402313232 -9.238795280456543 15
		endloop
	endfacet
	facet normal 0 0 1
		outer loop
			vertex -1.9509031772613525 9.807852745056152 15
			vertex -2.9028468132019043 9.569403648376465 15
			vertex -2.9028468132019043 -9.569403648376465 15
		endloop
	endfacet
	facet normal 0 0 1
		outer loop
			vertex -0.9801713824272156 9.951847076416016 15
			vertex -1.9509031772613525 9.807852745056152 15
			vertex -1.9509031772613525 -9.807852745056152 15
		endloop
	endfacet
	facet normal 0 0 1
		outer loop
			vertex 0 10 15
			vertex -0.9801713824272156 9.951847076416016 15
			vertex -0.9801713824272156 -9.951847076416016 15
		endloop
	endfacet
	facet normal -0.42755489500493143 0.9039893869716183 0
		outer loop
			vertex -4.713967323303223 8.819212913513184 15
			vertex -3.8268344402313232 9.238795280456543 15
			vertex -4.713967323303223 8.819212913513184 -15
		endloop
	endfacet
	facet normal -0.3368901321161071 0.9415439654539728 0
		outer loop
			vertex -3.8268344402313232 9.238795280456543 15
			vertex -2.9028468132019043 9.569403648376465 15
			vertex -3.8268344402313232 9.238795280456543 -15
		endloop
	endfacet
	facet normal -0.2429798242115914 0.9700313422906005 0
		outer loop
			vertex -2.9028468132019043 9.569403648376465 15
			vertex -1.9509031772613525 9.807852745056152 15
			vertex -2.9028468132019043 9.569403648376465 -15
		endloop
	endfacet
	facet normal -0.146730346769883 0.9891765289051243 0
		outer loop
			vertex -1.9509031772613525 9.807852745056152 15
			vertex -0.9801713824272156 9.951847076416016 15
			vertex -1.9509031772613525 9.807852745056152 -15
		endloop
	endfacet
	facet normal -0.04906786882460946 0.9987954466501191 0
		outer loop
			vertex -0.9801713824272156 9.951847076416016 15
			vertex 0 10 15
			vertex -0.9801713824272156 9.951847076416016 -15
		endloop
	endfacet
	facet normal 0.04906786882460946 -0.9987954466501191 0
		outer loop
			vertex 0 -10 15
			vertex 0 -10 -15
			vertex 0.9801713824272156 -9.951847076416016 -15
		endloop
	endfacet
	facet normal 0.146730346769883 -0.9891765289051243 0
		outer loop
			vertex 0.9801713824272156 -9.951847076416016 15
			vertex 0.9801713824272156 -9.951847076416016 -15
			vertex 1.9509031772613525 -9.807852745056152 -15
		endloop
	endfacet
	facet normal 0.2429798242115914 -0.9700313422906005 0
		outer loop
			vertex 1.9509031772613525 -9.807852745056152 15
			vertex 1.9509031772613525 -9.807852745056152 -15
			vertex 2.9028468132019043 -9.569403648376465 -15
		endloop
	endfacet
	facet normal 0.3368901321161071 -0.9415439654539728 0
		outer loop
			vertex 2.9028468132019043 -9.569403648376465 15
			vertex 2.9028468132019043 -9.569403648376465 -15
			vertex 3.8268344402313232 -9.238795280456543 -15
		endloop
	endfacet
	facet normal 0.42755489500493143 -0.9039893869716183 0
		outer loop
			vertex 3.8268344402313232 -9.238795280456543 15
			vertex 3.8268344402313232 -9.238795280456543 -15
			vertex 4.713967323303223 -8.819212913513184 -15
		endloop
	endfacet
	facet normal 0.5141028390402569 -0.8577285531511399 0
		outer loop
			vertex 4.713967323303223 -8.819212913513184 15
			vertex 4.713967323303223 -8.819212913513184 -15
			vertex 5.555702209472656 -8.314696311950684 -15
		endloop
	endfacet
	facet normal 0 0 -1
		outer loop
			vertex 0.9801713824272156 9.951847076416016 -15
			vertex 0.9801713824272156 -9.951847076416016 -15
			vertex 0 -10 -15
		endloop
	endfacet
	facet normal 0 0 -1
		outer loop
			vertex 1.9509031772613525 9.807852745056152 -15
			vertex 1.9509031772613525 -9.807852745056152 -15
			vertex 0.9801713824272156 -9.951847076416016 -15
		endloop
	endfacet
	facet normal 0 0 -1
		outer loop
			vertex 2.9028468132019043 9.569403648376465 -15
			vertex 2.9028468132019043 -9.569403648376465 -15
			vertex 1.9509031772613525 -9.807852745056152 -15
		endloop
	endfacet
	facet normal 0 0 -1
		outer loop
			vertex 3.8268344402313232 9.238795280456543 -15
			vertex 3.8268344402313232 -9.238795280456543 -15
			vertex 2.9028468132019043 -9.569403648376465 -15
		endloop
	endfacet
	facet normal 0 0 -1
		outer loop
			vertex 4.713967323303223 8.819212913513184 -15
			vertex 4.713967323303223 -8.819212913513184 -15
			vertex 3.8268344402313232 -9.238795280456543 -15
		endloop
	endfacet
	facet normal 0.5956995310208507 -0.8032073634756709 0
		outer loop
			vertex 5.555702209472656 -8.314696311950684 15
			vertex 5.555702209472656 -8.314696311950684 -15
			vertex 6.343932628631592 -7.730104446411133 -15
		endloop
	endfacet
	facet normal 0.6715587999782866 -0.7409512657197663 0
		outer loop
			vertex 6.343932628631592 -7.730104446411133 15
			vertex 6.343932628631592 -7.730104446411133 -15
			vertex 7.071067810058594 -7.071067810058594 -15
		endloop
	endfacet
	facet normal 0.7409512657197663 -0.6715587999782866 0
		outer loop
			vertex 7.071067810058594 -7.071067810058594 15
			vertex 7.071067810058594 -7.071067810058594 -15
			vertex 7.730104446411133 -6.343932628631592 -15
		endloop
	endfacet
	facet normal 0.8032073634756709 -0.5956995310208507 0
		outer loop
			vertex 7.730104446411133 -6.343932628631592 15
			vertex 7.730104446411133 -6.343932628631592 -15
			vertex 8.314696311950684 -5.555702209472656 -15
		endloop
	endfacet
	facet normal 0.8577285531511399 -0.5141028390402569 0
		outer loop
			vertex 8.314696311950684 -5.555702209472656 15
			vertex 8.314696311950684 -5.555702209472656 -15
			vertex 8.819212913513184 -4.713967323303223 -15
		endloop
	endfacet
	facet normal 0 0 -1
		outer loop
			vertex 5.555702209472656 8.314696311950684 -15
			vertex 5.555702209472656 -8.314696311950684 -15
			vertex 4.713967323303223 -8.819212913513184 -15
		endloop
	endfacet
	facet normal 0 0 -1
		outer loop
			vertex 6.343932628631592 7.730104446411133 -15
			vertex 6.343932628631592 -7.730104446411133 -15
			vertex 5.555702209472656 -8.314696311950684 -15
		endloop
	endfacet
	facet normal 0 0 -1
		outer loop
			vertex 7.071067810058594 7.071067810058594 -15
			vertex 7.071067810058594 -7.071067810058594 -15
			vertex 6.343932628631592 -7.730104446411133 -15
		endloop
	endfacet
	facet normal 0 0 -1
		outer loop
			vertex 7.730104446411133 6.343932628631592 -15
			vertex 7.730104446411133 -6.343932628631592 -15
			vertex 7.071067810058594 -7.071067810058594 -15
		endloop
	endfacet
	facet normal 0 0 -1
		outer loop
			vertex 8.314696311950684 5.555702209472656 -15
			vertex 8.314696311950684 -5.555702209472656 -15
			vertex 7.730104446411133 -6.343932628631592 -15
		endloop
	endfacet
	facet normal 0 0 -1
		outer loop
			vertex 8.819212913513184 4.713967323303223 -15
			vertex 8.819212913513184 -4.713967323303223 -15
			vertex 8.314696311950684 -5.555702209472656 -15
		endloop
	endfacet
	facet normal 0 0 -1
		outer loop
			vertex 9.238795280456543 3.8268344402313232 -15
			vertex 9.238795280456543 -3.8268344402313232 -15
			vertex 8.819212913513184 -4.713967323303223 -15
		endloop
	endfacet
	facet normal 0 0 -1
		outer loop
			vertex 9.569403648376465 2.9028468132019043 -15
			vertex 9.569403648376465 -2.9028468132019043 -15
			vertex 9.238795280456543 -3.8268344402313232 -15
		endloop
	endfacet
	facet normal 0 0 -1
		outer loop
			vertex 9.807852745056152 1.9509031772613525 -15
			vertex 9.807852745056152 -1.9509031772613525 -15
			vertex 9.569403648376465 -2.9028468132019043 -15
		endloop
	endfacet
	facet normal 0 0 -1
		outer loop
			vertex 9.951847076416016 0.9801713824272156 -15
			vertex 9.951847076416016 -0.9801713824272156 -15
			vertex 9.807852745056152 -1.9509031772613525 -15
		endloop
	endfacet
	facet normal 0.9039893869716183 -0.42755489500493143 0
		outer loop
			vertex 8.819212913513184 -4.713967323303223 15
			vertex 8.819212913513184 -4.713967323303223 -15
			vertex 9.238795280456543 -3.8268344402313232 -15
		endloop
	endfacet
	facet normal 0.9415439654539728 -0.3368901321161071 0
		outer loop
			vertex 9.238795280456543 -3.8268344402313232 15
			vertex 9.238795280456543 -3.8268344402313232 -15
			vertex 9.569403648376465 -2.9028468132019043 -15
		endloop
	endfacet
	facet normal 0.9700313422906005 -0.2429798242115914 0
		outer loop
			vertex 9.569403648376465 -2.9028468132019043 15
			vertex 9.569403648376465 -2.9028468132019043 -15
			vertex 9.807852745056152 -1.9509031772613525 -15
		endloop
	endfacet
	facet normal 0.9891765289051243 -0.146730346769883 0
		outer loop
			vertex 9.807852745056152 -1.9509031772613525 15
			vertex 9.807852745056152 -1.9509031772613525 -15
			vertex 9.951847076416016 -0.9801713824272156 -15
		endloop
	endfacet
	facet normal 0.9987954466501191 -0.04906786882460946 0
		outer loop
			vertex 9.951847076416016 -0.9801713824272156 15
			vertex 9.951847076416016 -0.9801713824272156 -15
			vertex 10 0 -15
		endloop
	endfacet
	facet normal 0.04906786882460946 -0.9987954466501191 0
		outer loop
			vertex 0.9801713824272156 -9.951847076416016 15
			vertex 0 -10 15
			vertex 0.9801713824272156 -9.951847076416016 -15
		endloop
	endfacet
	facet normal 0.146730346769883 -0.9891765289051243 0
		outer loop
			vertex 1.9509031772613525 -9.807852745056152 15
			vertex 0.9801713824272156 -9.951847076416016 15
			vertex 1.9509031772613525 -9.807852745056152 -15
		endloop
	endfacet
	facet normal 0.2429798242115914 -0.9700313422906005 0
		outer loop
			vertex 2.9028468132019043 -9.569403648376465 15
			vertex 1.9509031772613525 -9.807852745056152 15
			vertex 2.9028468132019043 -9.569403648376465 -15
		endloop
	endfacet
	facet normal 0.3368901321161071 -0.9415439654539728 0
		outer loop
			vertex 3.8268344402313232 -9.238795280456543 15
			vertex 2.9028468132019043 -9.569403648376465 15
			vertex 3.8268344402313232 -9.238795280456543 -15
		endloop
	endfacet
	facet normal 0.42755489500493143 -0.9039893869716183 0
		outer loop
			vertex 4.713967323303223 -8.819212913513184 15
			vertex 3.8268344402313232 -9.238795280456543 15
			vertex 4.713967323303223 -8.819212913513184 -15
		endloop
	endfacet
	facet normal 0 0 1
		outer loop
			vertex 0.9801713824272156 9.951847076416016 15
			vertex 0 -10 15
			vertex 0.9801713824272156 -9.951847076416016 15
		endloop
	endfacet
	facet normal 0 0 1
		outer loop
			vertex 1.9509031772613525 9.807852745056152 15
			vertex 0.9801713824272156 -9.951847076416016 15
			vertex 1.9509031772613525 -9.807852745056152 15
		endloop
	endfacet
	facet normal 0 0 1
		outer loop
			vertex 2.9028468132019043 9.569403648376465 15
			vertex 1.9509031772613525 -9.807852745056152 15
			vertex 2.9028468132019043 -9.569403648376465 15
		endloop
	endfacet
	facet normal 0 0 1
		outer loop
			vertex 3.8268344402313232 9.238795280456543 15
			vertex 2.9028468132019043 -9.569403648376465 15
			vertex 3.8268344402313232 -9.238795280456543 15
		endloop
	endfacet
	facet normal 0 0 1
		outer loop
			vertex 4.713967323303223 8.819212913513184 15
			vertex 3.8268344402313232 -9.238795280456543 15
			vertex 4.713967323303223 -8.819212913513184 15
		endloop
	endfacet
	facet normal 0.5141028390402569 -0.8577285531511399 0
		outer loop
			vertex 5.555702209472656 -8.314696311950684 15
			vertex 4.713967323303223 -8.819212913513184 15
			vertex 5.555702209472656 -8.314696311950684 -15
		endloop
	endfacet
	facet normal 0.5956995310208507 -0.8032073634756709 0
		outer loop
			vertex 6.343932628631592 -7.730104446411133 15
			vertex 5.555702209472656 -8.314696311950684 15
			vertex 6.343932628631592 -7.730104446411133 -15
		endloop
	endfacet
	facet normal 0.6715587999782866 -0.7409512657197663 0
		outer loop
			vertex 7.071067810058594 -7.071067810058594 15
			vertex 6.343932628631592 -7.730104446411133 15
			vertex 7.071067810058594 -7.071067810058594 -15
		endloop
	endfacet
	facet normal 0.7409512657197663 -0.6715587999782866 0
		outer loop
			vertex 7.730104446411133 -6.343932628631592 15
			vertex 7.071067810058594 -7.071067810058594 15
			vertex 7.730104446411133 -6.343932628631592 -15
		endloop
	endfacet
	facet normal 0.8032073634756709 -0.5956995310208507 0
		outer loop
			vertex 8.314696311950684 -5.555702209472656 15
			vertex 7.730104446411133 -6.343932628631592 15
			vertex 8.314696311950684 -5.555702209472656 -15
		endloop
	endfacet
	facet normal 0.8577285531511399 -0.5141028390402569 0
		outer loop
			vertex 8.819212913513184 -4.713967323303223 15
			vertex 8.314696311950684 -5.555702209472656 15
			vertex 8.819212913513184 -4.713967323303223 -15
		endloop
	endfacet
	facet normal 0.9039893869716183 -0.42755489500493143 0
		outer loop
			vertex 9.238795280456543 -3.8268344402313232 15
			vertex 8.819212913513184 -4.713967323303223 15
			vertex 9.238795280456543 -3.8268344402313232 -15
		endloop
	endfacet
	facet normal 0.9415439654539728 -0.3368901321161071 0
		outer loop
			vertex 9.569403648376465 -2.9028468132019043 15
			vertex 9.238795280456543 -3.8268344402313232 15
			vertex 9.569403648376465 -2.9028468132019043 -15
		endloop
	endfacet
	facet normal 0.9700313422906005 -0.2429798242115914 0
		outer loop
			vertex 9.807852745056152 -1.9509031772613525 15
			vertex 9.569403648376465 -2.9028468132019043 15
			vertex 9.807852745056152 -1.9509031772613525 -15
		endloop
	endfacet
	facet normal 0.9891765289051243 -0.146730346769883 0
		outer loop
			vertex 9.951847076416016 -0.9801713824272156 15
			vertex 9.807852745056152 -1.9509031772613525 15
			vertex 9.951847076416016 -0.9801713824272156 -15
		endloop
	endfacet
	facet normal 0.9987954466501191 -0.04906786882460946 0
		outer loop
			vertex 10 0 15
			vertex 9.951847076416016 -0.9801713824272156 15
			vertex 10 0 -15
		endloop
	endfacet
	facet normal 0 0 1
		outer loop
			vertex 5.555702209472656 8.314696311950684 15
			vertex 4.713967323303223 -8.819212913513184 15
			vertex 5.555702209472656 -8.314696311950684 15
		endloop
	endfacet
	facet normal 0 0 1
		outer loop
			vertex 6.343932628631592 7.730104446411133 15
			vertex 5.555702209472656 -8.314696311950684 15
			vertex 6.343932628631592 -7.730104446411133 15
		endloop
	endfacet
	facet normal 0 0 1
		outer loop
			vertex 7.071067810058594 7.071067810058594 15
			vertex 6.343932628631592 -7.730104446411133 15
			vertex 7.071067810058594 -7.071067810058594 15
		endloop
	endfacet
	facet normal 0 0 1
		outer loop
			vertex 7.730104446411133 6.343932628631592 15
			vertex 7.071067810058594 -7.071067810058594 15
			vertex 7.730104446411133 -6.343932628631592 15
		endloop
	endfacet
	facet normal 0 0 1
		outer loop
			vertex 8.314696311950684 5.555702209472656 15
			vertex 7.730104446411133 -6.343932628631592 15
			vertex 8.314696311950684 -5.555702209472656 15
		endloop
	endfacet
	facet normal 0 0 1
		outer loop
			vertex 8.819212913513184 4.713967323303223 15
			vertex 8.314696311950684 -5.555702209472656 15
			vertex 8.819212913513184 -4.713967323303223 15
		endloop
	endfacet
	facet normal 0 0 1
		outer loop
			vertex 9.238795280456543 3.8268344402313232 15
			vertex 8.819212913513184 -4.713967323303223 15
			vertex 9.238795280456543 -3.8268344402313232 15
		endloop
	endfacet
	facet normal 0 0 1
		outer loop
			vertex 9.569403648376465 2.9028468132019043 15
			vertex 9.238795280456543 -3.8268344402313232 15
			vertex 9.569403648376465 -2.9028468132019043 15
		endloop
	endfacet
	facet normal 0 0 1
		outer loop
			vertex 9.807852745056152 1.9509031772613525 15
			vertex 9.569403648376465 -2.9028468132019043 15
			vertex 9.807852745056152 -1.9509031772613525 15
		endloop
	endfacet
	facet normal 0 0 1
		outer loop
			vertex 9.951847076416016 0.9801713824272156 15
			vertex 9.807852745056152 -1.9509031772613525 15
			vertex 9.951847076416016 -0.9801713824272156 15
		endloop
	endfacet
	facet normal 0 0 -1
		outer loop
			vertex 0.9801713824272156 9.951847076416016 -15
			vertex 0 -10 -15
			vertex 0 10 -15
		endloop
	endfacet
	facet normal 0 0 -1
		outer loop
			vertex 1.9509031772613525 9.807852745056152 -15
			vertex 0.9801713824272156 -9.951847076416016 -15
			vertex 0.9801713824272156 9.951847076416016 -15
		endloop
	endfacet
	facet normal 0 0 -1
		outer loop
			vertex 2.9028468132019043 9.569403648376465 -15
			vertex 1.9509031772613525 -9.807852745056152 -15
			vertex 1.9509031772613525 9.807852745056152 -15
		endloop
	endfacet
	facet normal 0 0 -1
		outer loop
			vertex 3.8268344402313232 9.238795280456543 -15
			vertex 2.9028468132019043 -9.569403648376465 -15
			vertex 2.9028468132019043 9.569403648376465 -15
		endloop
	endfacet
	facet normal 0 0 -1
		outer loop
			vertex 4.713967323303223 8.819212913513184 -15
			vertex 3.8268344402313232 -9.238795280456543 -15
			vertex 3.8268344402313232 9.238795280456543 -15
		endloop
	endfacet
	facet normal 0 0 -1
		outer loop
			vertex 5.555702209472656 8.314696311950684 -15
			vertex 4.713967323303223 -8.819212913513184 -15
			vertex 4.713967323303223 8.819212913513184 -15
		endloop
	endfacet
	facet normal 0.04906786882460946 0.9987954466501191 0
		outer loop
			vertex 0.9801713824272156 9.951847076416016 15
			vertex 0.9801713824272156 9.951847076416016 -15
			vertex 0 10 -15
		endloop
	endfacet
	facet normal 0.146730346769883 0.9891765289051243 0
		outer loop
			vertex 1.9509031772613525 9.807852745056152 15
			vertex 1.9509031772613525 9.807852745056152 -15
			vertex 0.9801713824272156 9.951847076416016 -15
		endloop
	endfacet
	facet normal 0.2429798242115914 0.9700313422906005 0
		outer loop
			vertex 2.9028468132019043 9.569403648376465 15
			vertex 2.9028468132019043 9.569403648376465 -15
			vertex 1.9509031772613525 9.807852745056152 -15
		endloop
	endfacet
	facet normal 0.3368901321161071 0.9415439654539728 0
		outer loop
			vertex 3.8268344402313232 9.238795280456543 15
			vertex 3.8268344402313232 9.238795280456543 -15
			vertex 2.9028468132019043 9.569403648376465 -15
		endloop
	endfacet
	facet normal 0.42755489500493143 0.9039893869716183 0
		outer loop
			vertex 4.713967323303223 8.819212913513184 15
			vertex 4.713967323303223 8.819212913513184 -15
			vertex 3.8268344402313232 9.238795280456543 -15
		endloop
	endfacet
	facet normal 0 0 -1
		outer loop
			vertex 7.071067810058594 7.071067810058594 -15
			vertex 6.343932628631592 -7.730104446411133 -15
			vertex 6.343932628631592 7.730104446411133 -15
		endloop
	endfacet
	facet normal 0 0 -1
		outer loop
			vertex 7.730104446411133 6.343932628631592 -15
			vertex 7.071067810058594 -7.071067810058594 -15
			vertex 7.071067810058594 7.071067810058594 -15
		endloop
	endfacet
	facet normal 0 0 -1
		outer loop
			vertex 6.343932628631592 7.730104446411133 -15
			vertex 5.555702209472656 -8.314696311950684 -15
			vertex 5.555702209472656 8.314696311950684 -15
		endloop
	endfacet
	facet normal 0 0 -1
		outer loop
			vertex 8.314696311950684 5.555702209472656 -15
			vertex 7.730104446411133 -6.343932628631592 -15
			vertex 7.730104446411133 6.343932628631592 -15
		endloop
	endfacet
	facet normal 0 0 -1
		outer loop
			vertex 8.819212913513184 4.713967323303223 -15
			vertex 8.314696311950684 -5.555702209472656 -15
			vertex 8.314696311950684 5.555702209472656 -15
		endloop
	endfacet
	facet normal 0 0 -1
		outer loop
			vertex 9.569403648376465 2.9028468132019043 -15
			vertex 9.238795280456543 -3.8268344402313232 -15
			vertex 9.238795280456543 3.8268344402313232 -15
		endloop
	endfacet
	facet normal 0 0 -1
		outer loop
			vertex 10 0 -15
			vertex 9.951847076416016 -0.9801713824272156 -15
			vertex 9.951847076416016 0.9801713824272156 -15
		endloop
	endfacet
	facet normal 0 0 -1
		outer loop
			vertex 9.951847076416016 0.9801713824272156 -15
			vertex 9.807852745056152 -1.9509031772613525 -15
			vertex 9.807852745056152 1.9509031772613525 -15
		endloop
	endfacet
	facet normal 0 0 -1
		outer loop
			vertex 9.807852745056152 1.9509031772613525 -15
			vertex 9.569403648376465 -2.9028468132019043 -15
			vertex 9.569403648376465 2.9028468132019043 -15
		endloop
	endfacet
	facet normal 0 0 -1
		outer loop
			vertex 9.238795280456543 3.8268344402313232 -15
			vertex 8.819212913513184 -4.713967323303223 -15
			vertex 8.819212913513184 4.713967323303223 -15
		endloop
	endfacet
	facet normal 0.9987954466501191 0.04906786882460946 0
		outer loop
			vertex 10 0 15
			vertex 10 0 -15
			vertex 9.951847076416016 0.9801713824272156 -15
		endloop
	endfacet
	facet normal 0.9891765289051243 0.146730346769883 0
		outer loop
			vertex 9.951847076416016 0.9801713824272156 15
			vertex 9.951847076416016 0.9801713824272156 -15
			vertex 9.807852745056152 1.9509031772613525 -15
		endloop
	endfacet
	facet normal 0.9700313422906005 0.2429798242115914 0
		outer loop
			vertex 9.807852745056152 1.9509031772613525 15
			vertex 9.807852745056152 1.9509031772613525 -15
			vertex 9.569403648376465 2.9028468132019043 -15
		endloop
	endfacet
	facet normal 0.8577285531511399 0.5141028390402569 0
		outer loop
			vertex 8.819212913513184 4.713967323303223 15
			vertex 8.819212913513184 4.713967323303223 -15
			vertex 8.314696311950684 5.555702209472656 -15
		endloop
	endfacet
	facet normal 0.9415439654539728 0.3368901321161071 0
		outer loop
			vertex 9.569403648376465 2.9028468132019043 15
			vertex 9.569403648376465 2.9028468132019043 -15
			vertex 9.238795280456543 3.8268344402313232 -15
		endloop
	endfacet
	facet normal 0.9039893869716183 0.42755489500493143 0
		outer loop
			vertex 9.238795280456543 3.8268344402313232 15
			vertex 9.238795280456543 3.8268344402313232 -15
			vertex 8.819212913513184 4.713967323303223 -15
		endloop
	endfacet
	facet normal 0.6715587999782866 0.7409512657197663 0
		outer loop
			vertex 7.071067810058594 7.071067810058594 15
			vertex 7.071067810058594 7.071067810058594 -15
			vertex 6.343932628631592 7.730104446411133 -15
		endloop
	endfacet
	facet normal 0.5141028390402569 0.8577285531511399 0
		outer loop
			vertex 5.555702209472656 8.314696311950684 15
			vertex 5.555702209472656 8.314696311950684 -15
			vertex 4.713967323303223 8.819212913513184 -15
		endloop
	endfacet
	facet normal 0.5956995310208507 0.8032073634756709 0
		outer loop
			vertex 6.343932628631592 7.730104446411133 15
			vertex 6.343932628631592 7.730104446411133 -15
			vertex 5.555702209472656 8.314696311950684 -15
		endloop
	endfacet
	facet normal 0.8032073634756709 0.5956995310208507 0
		outer loop
			vertex 8.314696311950684 5.555702209472656 15
			vertex 8.314696311950684 5.555702209472656 -15
			vertex 7.730104446411133 6.343932628631592 -15
		endloop
	endfacet
	facet normal 0.7409512657197663 0.6715587999782866 0
		outer loop
			vertex 7.730104446411133 6.343932628631592 15
			vertex 7.730104446411133 6.343932628631592 -15
			vertex 7.071067810058594 7.071067810058594 -15
		endloop
	endfacet
	facet normal 0 0 1
		outer loop
			vertex 0.9801713824272156 9.951847076416016 15
			vertex 0 10 15
			vertex 0 -10 15
		endloop
	endfacet
	facet normal 0 0 1
		outer loop
			vertex 1.9509031772613525 9.807852745056152 15
			vertex 0.9801713824272156 9.951847076416016 15
			vertex 0.9801713824272156 -9.951847076416016 15
		endloop
	endfacet
	facet normal 0 0 1
		outer loop
			vertex 2.9028468132019043 9.569403648376465 15
			vertex 1.9509031772613525 9.807852745056152 15
			vertex 1.9509031772613525 -9.807852745056152 15
		endloop
	endfacet
	facet normal 0 0 1
		outer loop
			vertex 3.8268344402313232 9.238795280456543 15
			vertex 2.9028468132019043 9.569403648376465 15
			vertex 2.9028468132019043 -9.569403648376465 15
		endloop
	endfacet
	facet normal 0 0 1
		outer loop
			vertex 4.713967323303223 8.819212913513184 15
			vertex 3.8268344402313232 9.238795280456543 15
			vertex 3.8268344402313232 -9.238795280456543 15
		endloop
	endfacet
	facet normal 0 0 1
		outer loop
			vertex 5.555702209472656 8.314696311950684 15
			vertex 4.713967323303223 8.819212913513184 15
			vertex 4.713967323303223 -8.819212913513184 15
		endloop
	endfacet
	facet normal 0.04906786882460946 0.9987954466501191 0
		outer loop
			vertex 0 10 15
			vertex 0.9801713824272156 9.951847076416016 15
			vertex 0 10 -15
		endloop
	endfacet
	facet normal 0.146730346769883 0.9891765289051243 0
		outer loop
			vertex 0.9801713824272156 9.951847076416016 15
			vertex 1.9509031772613525 9.807852745056152 15
			vertex 0.9801713824272156 9.951847076416016 -15
		endloop
	endfacet
	facet normal 0.2429798242115914 0.9700313422906005 0
		outer loop
			vertex 1.9509031772613525 9.807852745056152 15
			vertex 2.9028468132019043 9.569403648376465 15
			vertex 1.9509031772613525 9.807852745056152 -15
		endloop
	endfacet
	facet normal 0.3368901321161071 0.9415439654539728 0
		outer loop
			vertex 2.9028468132019043 9.569403648376465 15
			vertex 3.8268344402313232 9.238795280456543 15
			vertex 2.9028468132019043 9.569403648376465 -15
		endloop
	endfacet
	facet normal 0.5141028390402569 0.8577285531511399 0
		outer loop
			vertex 4.713967323303223 8.819212913513184 15
			vertex 5.555702209472656 8.314696311950684 15
			vertex 4.713967323303223 8.819212913513184 -15
		endloop
	endfacet
	facet normal 0.42755489500493143 0.9039893869716183 0
		outer loop
			vertex 3.8268344402313232 9.238795280456543 15
			vertex 4.713967323303223 8.819212913513184 15
			vertex 3.8268344402313232 9.238795280456543 -15
		endloop
	endfacet
	facet normal 0.9987954466501191 0.04906786882460946 0
		outer loop
			vertex 9.951847076416016 0.9801713824272156 15
			vertex 10 0 15
			vertex 9.951847076416016 0.9801713824272156 -15
		endloop
	endfacet
	facet normal 0.9891765289051243 0.146730346769883 0
		outer loop
			vertex 9.807852745056152 1.9509031772613525 15
			vertex 9.951847076416016 0.9801713824272156 15
			vertex 9.807852745056152 1.9509031772613525 -15
		endloop
	endfacet
	facet normal 0.9415439654539728 0.3368901321161071 0
		outer loop
			vertex 9.238795280456543 3.8268344402313232 15
			vertex 9.569403648376465 2.9028468132019043 15
			vertex 9.238795280456543 3.8268344402313232 -15
		endloop
	endfacet
	facet normal 0.9700313422906005 0.2429798242115914 0
		outer loop
			vertex 9.569403648376465 2.9028468132019043 15
			vertex 9.807852745056152 1.9509031772613525 15
			vertex 9.569403648376465 2.9028468132019043 -15
		endloop
	endfacet
	facet normal 0.9039893869716183 0.42755489500493143 0
		outer loop
			vertex 8.819212913513184 4.713967323303223 15
			vertex 9.238795280456543 3.8268344402313232 15
			vertex 8.819212913513184 4.713967323303223 -15
		endloop
	endfacet
	facet normal 0 0 1
		outer loop
			vertex 7.071067810058594 7.071067810058594 15
			vertex 6.343932628631592 7.730104446411133 15
			vertex 6.343932628631592 -7.730104446411133 15
		endloop
	endfacet
	facet normal 0 0 1
		outer loop
			vertex 7.730104446411133 6.343932628631592 15
			vertex 7.071067810058594 7.071067810058594 15
			vertex 7.071067810058594 -7.071067810058594 15
		endloop
	endfacet
	facet normal 0 0 1
		outer loop
			vertex 6.343932628631592 7.730104446411133 15
			vertex 5.555702209472656 8.314696311950684 15
			vertex 5.555702209472656 -8.314696311950684 15
		endloop
	endfacet
	facet normal 0 0 1
		outer loop
			vertex 8.314696311950684 5.555702209472656 15
			vertex 7.730104446411133 6.343932628631592 15
			vertex 7.730104446411133 -6.343932628631592 15
		endloop
	endfacet
	facet normal 0 0 1
		outer loop
			vertex 8.819212913513184 4.713967323303223 15
			vertex 8.314696311950684 5.555702209472656 15
			vertex 8.314696311950684 -5.555702209472656 15
		endloop
	endfacet
	facet normal 0 0 1
		outer loop
			vertex 9.569403648376465 2.9028468132019043 15
			vertex 9.238795280456543 3.8268344402313232 15
			vertex 9.238795280456543 -3.8268344402313232 15
		endloop
	endfacet
	facet normal 0 0 1
		outer loop
			vertex 10 0 15
			vertex 9.951847076416016 0.9801713824272156 15
			vertex 9.951847076416016 -0.9801713824272156 15
		endloop
	endfacet
	facet normal 0 0 1
		outer loop
			vertex 9.951847076416016 0.9801713824272156 15
			vertex 9.807852745056152 1.9509031772613525 15
			vertex 9.807852745056152 -1.9509031772613525 15
		endloop
	endfacet
	facet normal 0 0 1
		outer loop
			vertex 9.807852745056152 1.9509031772613525 15
			vertex 9.569403648376465 2.9028468132019043 15
			vertex 9.569403648376465 -2.9028468132019043 15
		endloop
	endfacet
	facet normal 0 0 1
		outer loop
			vertex 9.238795280456543 3.8268344402313232 15
			vertex 8.819212913513184 4.713967323303223 15
			vertex 8.819212913513184 -4.713967323303223 15
		endloop
	endfacet
	facet normal 0.7409512657197663 0.6715587999782866 0
		outer loop
			vertex 7.071067810058594 7.071067810058594 15
			vertex 7.730104446411133 6.343932628631592 15
			vertex 7.071067810058594 7.071067810058594 -15
		endloop
	endfacet
	facet normal 0.5956995310208507 0.8032073634756709 0
		outer loop
			vertex 5.555702209472656 8.314696311950684 15
			vertex 6.343932628631592 7.730104446411133 15
			vertex 5.555702209472656 8.314696311950684 -15
		endloop
	endfacet
	facet normal 0.6715587999782866 0.7409512657197663 0
		outer loop
			vertex 6.343932628631592 7.730104446411133 15
			vertex 7.071067810058594 7.071067810058594 15
			vertex 6.343932628631592 7.730104446411133 -15
		endloop
	endfacet
	facet normal 0.8032073634756709 0.5956995310208507 0
		outer loop
			vertex 7.730104446411133 6.343932628631592 15
			vertex 8.314696311950684 5.555702209472656 15
			vertex 7.730104446411133 6.343932628631592 -15
		endloop
	endfacet
	facet normal 0.8577285531511399 0.5141028390402569 0
		outer loop
			vertex 8.314696311950684 5.555702209472656 15
			vertex 8.819212913513184 4.713967323303223 15
			vertex 8.314696311950684 5.555702209472656 -15
		endloop
	endfacet
endsolid exported
