ply
format ascii 1.0
element vertex 16
property float x
property float y
property float z
property float nx
property float ny
property float nz
element face 28
property list uchar int vertex_index
end_header
-25 -25 -2.5 -0.19518001742802313 -0.09759000871401156 -0.9759000722389541
-25 -25 2.5 -0.1561774210264402 -0.3123548420528804 0.9370395220094241
-20 -0.0010000000474974513 2.5 -0.00002576712177002107 -0.2576712071937279 0.9662326574481854
-20 -0.0010000000474974513 17.5 -0.000025000001124068213 -0.9999999974652773 0.0000666666745148203
-20 0.0010000000474974513 2.5 -0.000017313512786373647 0.6925404895688647 0.7213790057992813
-25 25 -2.5 -0.04969040023585516 0.09938080047171031 -0.9938079898159417
-25 25 2.5 -0.1951867215257169 0.09759336076285845 0.9758983961842816
-20 0.0010000000474974513 17.5 -0.00009999999937869622 0.9999999594444415 0.0002666666747111336
25 -25 -2.5 0.04969040023585516 -0.09938080047171031 -0.9938079898159417
25 -25 2.5 0.1951867215257169 -0.09759336076285845 0.9758983961842816
20 -0.0010000000474974513 2.5 0.000017313512786373647 -0.6925404895688647 0.7213790057992813
20 -0.0010000000474974513 17.5 0.00009999999937869622 -0.9999999594444415 0.0002666666747111336
20 0.0010000000474974513 2.5 0.00002576712177002107 0.2576712071937279 0.9662326574481854
25 25 -2.5 0.19518001742802313 0.09759000871401156 -0.9759000722389541
25 25 2.5 0.1561774210264402 0.3123548420528804 0.9370395220094241
20 0.0010000000474974513 17.5 0.000025000001124068213 0.9999999974652773 0.0000666666745148203
3 0 1 6
3 1 2 4
3 0 8 1
3 1 9 2
3 0 5 8
3 0 6 5
3 1 4 6
3 6 4 12
3 5 6 14
3 1 8 9
3 9 10 2
3 8 13 9
3 9 14 10
3 5 13 8
3 5 14 13
3 6 12 14
3 9 13 14
3 14 12 10
3 3 7 2
3 3 2 10
3 3 11 7
3 7 4 2
3 7 15 4
3 3 10 11
3 11 10 12
3 15 12 4
3 7 11 15
3 11 12 15

