solid exported
	facet normal 0 0 -1
		outer loop
			vertex -8.485280990600586 8.485280990600586 -15
			vertex -8.485280990600586 -8.485280990600586 -15
			vertex -11.086554527282715 -4.592201232910156 -15
		endloop
	endfacet
	facet normal -0.7740344750262916 -0.5171934616515618 0.36521439552083357
		outer loop
			vertex 0 0 15
			vertex -11.086554527282715 -4.592201232910156 -15
			vertex -8.485280990600586 -8.485280990600586 -15
		endloop
	endfacet
	facet normal -0.9130360068380364 -0.18161412459391443 0.36521440273521455
		outer loop
			vertex 0 0 15
			vertex -12 0 -15
			vertex -11.086554527282715 -4.592201232910156 -15
		endloop
	endfacet
	facet normal -0.5171934616515618 -0.7740344750262916 0.36521439552083357
		outer loop
			vertex 0 0 15
			vertex -8.485280990600586 -8.485280990600586 -15
			vertex -4.592201232910156 -11.086554527282715 -15
		endloop
	endfacet
	facet normal -0.18161412459391443 -0.9130360068380364 0.36521440273521455
		outer loop
			vertex 0 0 15
			vertex -4.592201232910156 -11.086554527282715 -15
			vertex 0 -12 -15
		endloop
	endfacet
	facet normal 0 0 -1
		outer loop
			vertex -4.592201232910156 11.086554527282715 -15
			vertex -4.592201232910156 -11.086554527282715 -15
			vertex -8.485280990600586 -8.485280990600586 -15
		endloop
	endfacet
	facet normal 0 0 -1
		outer loop
			vertex 0 12 -15
			vertex 0 -12 -15
			vertex -4.592201232910156 -11.086554527282715 -15
		endloop
	endfacet
	facet normal 0 0 -1
		outer loop
			vertex -11.086554527282715 4.592201232910156 -15
			vertex -11.086554527282715 -4.592201232910156 -15
			vertex -12 0 -15
		endloop
	endfacet
	facet normal 0 0 -1
		outer loop
			vertex -8.485280990600586 8.485280990600586 -15
			vertex -11.086554527282715 -4.592201232910156 -15
			vertex -11.086554527282715 4.592201232910156 -15
		endloop
	endfacet
	facet normal 0 0 -1
		outer loop
			vertex -4.592201232910156 11.086554527282715 -15
			vertex -8.485280990600586 -8.485280990600586 -15
			vertex -8.485280990600586 8.485280990600586 -15
		endloop
	endfacet
	facet normal -0.9130360068380364 0.18161412459391443 0.36521440273521455
		outer loop
			vertex 0 0 15
			vertex -11.086554527282715 4.592201232910156 -15
			vertex -12 0 -15
		endloop
	endfacet
	facet normal -0.7740344750262916 0.5171934616515618 0.36521439552083357
		outer loop
			vertex 0 0 15
			vertex -8.485280990600586 8.485280990600586 -15
			vertex -11.086554527282715 4.592201232910156 -15
		endloop
	endfacet
	facet normal 0 0 -1
		outer loop
			vertex 0 12 -15
			vertex -4.592201232910156 -11.086554527282715 -15
			vertex -4.592201232910156 11.086554527282715 -15
		endloop
	endfacet
	facet normal -0.5171934616515618 0.7740344750262916 0.36521439552083357
		outer loop
			vertex 0 0 15
			vertex -4.592201232910156 11.086554527282715 -15
			vertex -8.485280990600586 8.485280990600586 -15
		endloop
	endfacet
	facet normal -0.18161412459391443 0.9130360068380364 0.36521440273521455
		outer loop
			vertex 0 0 15
			vertex 0 12 -15
			vertex -4.592201232910156 11.086554527282715 -15
		endloop
	endfacet
	facet normal 0.18161412459391443 -0.9130360068380364 0.36521440273521455
		outer loop
			vertex 0 0 15
			vertex 0 -12 -15
			vertex 4.592201232910156 -11.086554527282715 -15
		endloop
	endfacet
	facet normal 0.5171934616515618 -0.7740344750262916 0.36521439552083357
		outer loop
			vertex 0 0 15
			vertex 4.592201232910156 -11.086554527282715 -15
			vertex 8.485280990600586 -8.485280990600586 -15
		endloop
	endfacet
	facet normal 0 0 -1
		outer loop
			vertex 4.592201232910156 11.086554527282715 -15
			vertex 4.592201232910156 -11.086554527282715 -15
			vertex 0 -12 -15
		endloop
	endfacet
	facet normal 0 0 -1
		outer loop
			vertex 8.485280990600586 8.485280990600586 -15
			vertex 8.485280990600586 -8.485280990600586 -15
			vertex 4.592201232910156 -11.086554527282715 -15
		endloop
	endfacet
	facet normal 0 0 -1
		outer loop
			vertex 11.086554527282715 4.592201232910156 -15
			vertex 11.086554527282715 -4.592201232910156 -15
			vertex 8.485280990600586 -8.485280990600586 -15
		endloop
	endfacet
	facet normal 0.7740344750262916 -0.5171934616515618 0.36521439552083357
		outer loop
			vertex 0 0 15
			vertex 8.485280990600586 -8.485280990600586 -15
			vertex 11.086554527282715 -4.592201232910156 -15
		endloop
	endfacet
	facet normal 0.9130360068380364 -0.18161412459391443 0.36521440273521455
		outer loop
			vertex 0 0 15
			vertex 11.086554527282715 -4.592201232910156 -15
			vertex 12 0 -15
		endloop
	endfacet
	facet normal 0 0 -1
		outer loop
			vertex 4.592201232910156 11.086554527282715 -15
			vertex 0 -12 -15
			vertex 0 12 -15
		endloop
	endfacet
	facet normal 0 0 -1
		outer loop
			vertex 8.485280990600586 8.485280990600586 -15
			vertex 4.592201232910156 -11.086554527282715 -15
			vertex 4.592201232910156 11.086554527282715 -15
		endloop
	endfacet
	facet normal 0.18161412459391443 0.9130360068380364 0.36521440273521455
		outer loop
			vertex 0 0 15
			vertex 4.592201232910156 11.086554527282715 -15
			vertex 0 12 -15
		endloop
	endfacet
	facet normal 0.5171934616515618 0.7740344750262916 0.36521439552083357
		outer loop
			vertex 0 0 15
			vertex 8.485280990600586 8.485280990600586 -15
			vertex 4.592201232910156 11.086554527282715 -15
		endloop
	endfacet
	facet normal 0 0 -1
		outer loop
			vertex 11.086554527282715 4.592201232910156 -15
			vertex 8.485280990600586 -8.485280990600586 -15
			vertex 8.485280990600586 8.485280990600586 -15
		endloop
	endfacet
	facet normal 0 0 -1
		outer loop
			vertex 12 0 -15
			vertex 11.086554527282715 -4.592201232910156 -15
			vertex 11.086554527282715 4.592201232910156 -15
		endloop
	endfacet
	facet normal 0.9130360068380364 0.18161412459391443 0.36521440273521455
		outer loop
			vertex 0 0 15
			vertex 12 0 -15
			vertex 11.086554527282715 4.592201232910156 -15
		endloop
	endfacet
	facet normal 0.7740344750262916 0.5171934616515618 0.36521439552083357
		outer loop
			vertex 0 0 15
			vertex 11.086554527282715 4.592201232910156 -15
			vertex 8.485280990600586 8.485280990600586 -15
		endloop
	endfacet
endsolid exported
