solid exported
	facet normal 0 -1 0
		outer loop
			vertex -10 -17.5 4
			vertex -10 -17.5 -4
			vertex 10 -17.5 -4
		endloop
	endfacet
	facet normal 0 0 -1
		outer loop
			vertex -10 17.5 -4
			vertex 10 -17.5 -4
			vertex -10 -17.5 -4
		endloop
	endfacet
	facet normal -1 0 0
		outer loop
			vertex -10 -17.5 4
			vertex -10 17.5 4
			vertex -10 -17.5 -4
		endloop
	endfacet
	facet normal 0 0 1
		outer loop
			vertex -10 17.5 4
			vertex -10 -17.5 4
			vertex 10 -17.5 4
		endloop
	endfacet
	facet normal -1 0 0
		outer loop
			vertex -10 17.5 4
			vertex -10 17.5 -4
			vertex -10 -17.5 -4
		endloop
	endfacet
	facet normal 0 1 0
		outer loop
			vertex -10 17.5 4
			vertex 10 17.5 4
			vertex -10 17.5 -4
		endloop
	endfacet
	facet normal 1 0 0
		outer loop
			vertex 10 -17.5 4
			vertex 10 -17.5 -4
			vertex 10 17.5 -4
		endloop
	endfacet
	facet normal 0 -1 0
		outer loop
			vertex 10 -17.5 4
			vertex -10 -17.5 4
			vertex 10 -17.5 -4
		endloop
	endfacet
	facet normal 0 0 -1
		outer loop
			vertex 10 17.5 -4
			vertex 10 -17.5 -4
			vertex -10 17.5 -4
		endloop
	endfacet
	facet normal 0 1 0
		outer loop
			vertex 10 17.5 4
			vertex 10 17.5 -4
			vertex -10 17.5 -4
		endloop
	endfacet
	facet normal 0 0 1
		outer loop
			vertex 10 17.5 4
			vertex -10 17.5 4
			vertex 10 -17.5 4
		endloop
	endfacet
	facet normal 1 0 0
		outer loop
			vertex 10 17.5 4
			vertex 10 -17.5 4
			vertex 10 17.5 -4
		endloop
	endfacet
endsolid exported
