ply
format ascii 1.0
element vertex 8
property float x
property float y
property float z
property float nx
property float ny
property float nz
element face 12
property list uchar int vertex_index
end_header
-10 -17.5 -4 -0.6149762865043815 -0.17570751894477252 -0.7687203879327992
-10 -17.5 4 -0.341870396725191 -0.39070904185868816 0.8546760067141387
-10 17.5 -4 -0.19136829595246646 0.21870662181693865 -0.956841464861171
-10 17.5 4 -0.369317299741887 0.10551922956205068 0.9232932493547175
10 -17.5 -4 0.19136829595246646 -0.21870662181693865 -0.956841464861171
10 -17.5 4 0.369317299741887 -0.10551922956205068 0.9232932493547175
10 17.5 -4 0.6149762865043815 0.17570751894477252 -0.7687203879327992
10 17.5 4 0.341870396725191 0.39070904185868816 0.8546760067141387
3 1 0 4
3 2 4 0
3 1 3 0
3 3 1 5
3 3 2 0
3 3 7 2
3 5 4 6
3 5 1 4
3 6 4 2
3 7 6 2
3 7 3 5
3 7 5 6

