o 
usemtl primitives-torus-16-material
v -10.981886863708496 -10.981886863708496 -3.6955180168151855
v -9.899495124816895 -9.899495124816895 -4
v -11.899495124816895 -11.899495124816895 -2.8284270763397217
v -12.51262092590332 -12.51262092590332 -1.5307337045669556
v -14.348526954650879 -5.943354606628418 -3.6955180168151855
v -15.547439575195312 -6.439960479736328 -2.8284270763397217
v -12.934313774108887 -5.357568264007568 -4
v -11.520099639892578 -4.7717814445495605 -3.6955180168151855
v -10.321187973022461 -4.275176048278809 -2.8284270763397217
v -16.348527908325195 -6.7717814445495605 -1.5307337045669556
v -9.520099639892578 -3.943354606628418 -1.5307337045669556
v -5.943354606628418 -14.348526954650879 -3.6955180168151855
v -6.439960479736328 -15.547439575195312 -2.8284270763397217
v -5.357568264007568 -12.934313774108887 -4
v -4.7717814445495605 -11.520099639892578 -3.6955180168151855
v -4.275176048278809 -10.321187973022461 -2.8284270763397217
v -6.7717814445495605 -16.348527908325195 -1.5307337045669556
v -3.943354606628418 -9.520099639892578 -1.5307337045669556
v -8.817102432250977 -8.817102432250977 -3.6955180168151855
v -7.8994951248168945 -7.8994951248168945 -2.8284270763397217
v -7.2863688468933105 -7.2863688468933105 -1.5307337045669556
v -12.727922439575195 -12.727922439575195 0
v -12.51262092590332 -12.51262092590332 1.5307337045669556
v -11.899495124816895 -11.899495124816895 2.8284270763397217
v -10.981886863708496 -10.981886863708496 3.6955180168151855
v -9.899495124816895 -9.899495124816895 4
v -16.629831314086914 -6.888301849365234 0
v -16.348527908325195 -6.7717814445495605 1.5307337045669556
v -9.238795280456543 -3.8268344402313232 0
v -9.520099639892578 -3.943354606628418 1.5307337045669556
v -15.547439575195312 -6.439960479736328 2.8284270763397217
v -14.348526954650879 -5.943354606628418 3.6955180168151855
v -12.934313774108887 -5.357568264007568 4
v -11.520099639892578 -4.7717814445495605 3.6955180168151855
v -10.321187973022461 -4.275176048278809 2.8284270763397217
v -6.888301849365234 -16.629831314086914 0
v -6.7717814445495605 -16.348527908325195 1.5307337045669556
v -3.8268344402313232 -9.238795280456543 0
v -3.943354606628418 -9.520099639892578 1.5307337045669556
v -6.439960479736328 -15.547439575195312 2.8284270763397217
v -5.943354606628418 -14.348526954650879 3.6955180168151855
v -5.357568264007568 -12.934313774108887 4
v -4.7717814445495605 -11.520099639892578 3.6955180168151855
v -4.275176048278809 -10.321187973022461 2.8284270763397217
v -7.071067810058594 -7.071067810058594 0
v -7.2863688468933105 -7.2863688468933105 1.5307337045669556
v -7.8994951248168945 -7.8994951248168945 2.8284270763397217
v -8.817102432250977 -8.817102432250977 3.6955180168151855
v -15.530734062194824 0 -3.6955180168151855
v -14 0 -4
v -16.828426361083984 0 -2.8284270763397217
v -14.348526954650879 5.943354606628418 -3.6955180168151855
v -15.547439575195312 6.439960479736328 -2.8284270763397217
v -12.469265937805176 0 -3.6955180168151855
v -11.1715726852417 0 -2.8284270763397217
v -10.321187973022461 4.275176048278809 -2.8284270763397217
v -12.934313774108887 5.357568264007568 -4
v -11.520099639892578 4.7717814445495605 -3.6955180168151855
v -17.695518493652344 0 -1.5307337045669556
v -16.348527908325195 6.7717814445495605 -1.5307337045669556
v -10.304481506347656 0 -1.5307337045669556
v -9.520099639892578 3.943354606628418 -1.5307337045669556
v -10.981886863708496 10.981886863708496 -3.6955180168151855
v -9.899495124816895 9.899495124816895 -4
v -11.899495124816895 11.899495124816895 -2.8284270763397217
v -12.51262092590332 12.51262092590332 -1.5307337045669556
v -8.817102432250977 8.817102432250977 -3.6955180168151855
v -7.8994951248168945 7.8994951248168945 -2.8284270763397217
v -7.2863688468933105 7.2863688468933105 -1.5307337045669556
v -4.7717814445495605 11.520099639892578 -3.6955180168151855
v -5.357568264007568 12.934313774108887 -4
v -5.943354606628418 14.348526954650879 -3.6955180168151855
v -6.439960479736328 15.547439575195312 -2.8284270763397217
v -4.275176048278809 10.321187973022461 -2.8284270763397217
v -6.7717814445495605 16.348527908325195 -1.5307337045669556
v -3.943354606628418 9.520099639892578 -1.5307337045669556
v -18 0 0
v -17.695518493652344 0 1.5307337045669556
v -16.629831314086914 6.888301849365234 0
v -16.348527908325195 6.7717814445495605 1.5307337045669556
v -10 0 0
v -9.238795280456543 3.8268344402313232 0
v -10.304481506347656 0 1.5307337045669556
v -9.520099639892578 3.943354606628418 1.5307337045669556
v -16.828426361083984 0 2.8284270763397217
v -15.530734062194824 0 3.6955180168151855
v -14 0 4
v -15.547439575195312 6.439960479736328 2.8284270763397217
v -14.348526954650879 5.943354606628418 3.6955180168151855
v -11.1715726852417 0 2.8284270763397217
v -10.321187973022461 4.275176048278809 2.8284270763397217
v -12.469265937805176 0 3.6955180168151855
v -12.934313774108887 5.357568264007568 4
v -11.520099639892578 4.7717814445495605 3.6955180168151855
v -12.727922439575195 12.727922439575195 0
v -12.51262092590332 12.51262092590332 1.5307337045669556
v -11.899495124816895 11.899495124816895 2.8284270763397217
v -10.981886863708496 10.981886863708496 3.6955180168151855
v -9.899495124816895 9.899495124816895 4
v -7.071067810058594 7.071067810058594 0
v -7.2863688468933105 7.2863688468933105 1.5307337045669556
v -7.8994951248168945 7.8994951248168945 2.8284270763397217
v -8.817102432250977 8.817102432250977 3.6955180168151855
v -6.888301849365234 16.629831314086914 0
v -6.7717814445495605 16.348527908325195 1.5307337045669556
v -3.8268344402313232 9.238795280456543 0
v -3.943354606628418 9.520099639892578 1.5307337045669556
v -4.7717814445495605 11.520099639892578 3.6955180168151855
v -5.357568264007568 12.934313774108887 4
v -6.439960479736328 15.547439575195312 2.8284270763397217
v -5.943354606628418 14.348526954650879 3.6955180168151855
v -4.275176048278809 10.321187973022461 2.8284270763397217
v 0 -15.530734062194824 -3.6955180168151855
v 0 -14 -4
v 0 -16.828426361083984 -2.8284270763397217
v 0 -12.469265937805176 -3.6955180168151855
v 0 -11.1715726852417 -2.8284270763397217
v 4.275176048278809 -10.321187973022461 -2.8284270763397217
v 5.943354606628418 -14.348526954650879 -3.6955180168151855
v 6.439960479736328 -15.547439575195312 -2.8284270763397217
v 5.357568264007568 -12.934313774108887 -4
v 4.7717814445495605 -11.520099639892578 -3.6955180168151855
v 0 -17.695518493652344 -1.5307337045669556
v 0 -10.304481506347656 -1.5307337045669556
v 3.943354606628418 -9.520099639892578 -1.5307337045669556
v 6.7717814445495605 -16.348527908325195 -1.5307337045669556
v 8.817102432250977 -8.817102432250977 -3.6955180168151855
v 7.8994951248168945 -7.8994951248168945 -2.8284270763397217
v 7.2863688468933105 -7.2863688468933105 -1.5307337045669556
v 9.899495124816895 -9.899495124816895 -4
v 10.981886863708496 -10.981886863708496 -3.6955180168151855
v 11.899495124816895 -11.899495124816895 -2.8284270763397217
v 12.51262092590332 -12.51262092590332 -1.5307337045669556
v 11.520099639892578 -4.7717814445495605 -3.6955180168151855
v 12.934313774108887 -5.357568264007568 -4
v 10.321187973022461 -4.275176048278809 -2.8284270763397217
v 14.348526954650879 -5.943354606628418 -3.6955180168151855
v 15.547439575195312 -6.439960479736328 -2.8284270763397217
v 9.520099639892578 -3.943354606628418 -1.5307337045669556
v 16.348527908325195 -6.7717814445495605 -1.5307337045669556
v 0 -18 0
v 0 -17.695518493652344 1.5307337045669556
v 0 -10 0
v 3.8268344402313232 -9.238795280456543 0
v 0 -10.304481506347656 1.5307337045669556
v 3.943354606628418 -9.520099639892578 1.5307337045669556
v 6.888301849365234 -16.629831314086914 0
v 6.7717814445495605 -16.348527908325195 1.5307337045669556
v 0 -16.828426361083984 2.8284270763397217
v 0 -15.530734062194824 3.6955180168151855
v 0 -14 4
v 0 -11.1715726852417 2.8284270763397217
v 4.275176048278809 -10.321187973022461 2.8284270763397217
v 0 -12.469265937805176 3.6955180168151855
v 6.439960479736328 -15.547439575195312 2.8284270763397217
v 5.943354606628418 -14.348526954650879 3.6955180168151855
v 5.357568264007568 -12.934313774108887 4
v 4.7717814445495605 -11.520099639892578 3.6955180168151855
v 7.071067810058594 -7.071067810058594 0
v 7.2863688468933105 -7.2863688468933105 1.5307337045669556
v 7.8994951248168945 -7.8994951248168945 2.8284270763397217
v 8.817102432250977 -8.817102432250977 3.6955180168151855
v 12.727922439575195 -12.727922439575195 0
v 12.51262092590332 -12.51262092590332 1.5307337045669556
v 11.899495124816895 -11.899495124816895 2.8284270763397217
v 9.899495124816895 -9.899495124816895 4
v 10.981886863708496 -10.981886863708496 3.6955180168151855
v 9.238795280456543 -3.8268344402313232 0
v 9.520099639892578 -3.943354606628418 1.5307337045669556
v 16.629831314086914 -6.888301849365234 0
v 16.348527908325195 -6.7717814445495605 1.5307337045669556
v 11.520099639892578 -4.7717814445495605 3.6955180168151855
v 12.934313774108887 -5.357568264007568 4
v 10.321187973022461 -4.275176048278809 2.8284270763397217
v 15.547439575195312 -6.439960479736328 2.8284270763397217
v 14.348526954650879 -5.943354606628418 3.6955180168151855
v 8.817102432250977 8.817102432250977 -3.6955180168151855
v 7.8994951248168945 7.8994951248168945 -2.8284270763397217
v 7.2863688468933105 7.2863688468933105 -1.5307337045669556
v 0 12.469265937805176 -3.6955180168151855
v 0 11.1715726852417 -2.8284270763397217
v 4.275176048278809 10.321187973022461 -2.8284270763397217
v 0 14 -4
v 0 15.530734062194824 -3.6955180168151855
v 0 16.828426361083984 -2.8284270763397217
v 4.7717814445495605 11.520099639892578 -3.6955180168151855
v 5.357568264007568 12.934313774108887 -4
v 5.943354606628418 14.348526954650879 -3.6955180168151855
v 6.439960479736328 15.547439575195312 -2.8284270763397217
v 0 10.304481506347656 -1.5307337045669556
v 3.943354606628418 9.520099639892578 -1.5307337045669556
v 0 17.695518493652344 -1.5307337045669556
v 6.7717814445495605 16.348527908325195 -1.5307337045669556
v 12.469265937805176 0 -3.6955180168151855
v 11.1715726852417 0 -2.8284270763397217
v 10.321187973022461 4.275176048278809 -2.8284270763397217
v 11.520099639892578 4.7717814445495605 -3.6955180168151855
v 12.934313774108887 5.357568264007568 -4
v 14 0 -4
v 15.530734062194824 0 -3.6955180168151855
v 16.828426361083984 0 -2.8284270763397217
v 14.348526954650879 5.943354606628418 -3.6955180168151855
v 15.547439575195312 6.439960479736328 -2.8284270763397217
v 10.304481506347656 0 -1.5307337045669556
v 9.520099639892578 3.943354606628418 -1.5307337045669556
v 17.695518493652344 0 -1.5307337045669556
v 16.348527908325195 6.7717814445495605 -1.5307337045669556
v 9.899495124816895 9.899495124816895 -4
v 10.981886863708496 10.981886863708496 -3.6955180168151855
v 11.899495124816895 11.899495124816895 -2.8284270763397217
v 12.51262092590332 12.51262092590332 -1.5307337045669556
v 7.071067810058594 7.071067810058594 0
v 7.2863688468933105 7.2863688468933105 1.5307337045669556
v 7.8994951248168945 7.8994951248168945 2.8284270763397217
v 8.817102432250977 8.817102432250977 3.6955180168151855
v 0 10 0
v 3.8268344402313232 9.238795280456543 0
v 0 10.304481506347656 1.5307337045669556
v 3.943354606628418 9.520099639892578 1.5307337045669556
v 0 18 0
v 0 17.695518493652344 1.5307337045669556
v 6.888301849365234 16.629831314086914 0
v 6.7717814445495605 16.348527908325195 1.5307337045669556
v 0 11.1715726852417 2.8284270763397217
v 4.275176048278809 10.321187973022461 2.8284270763397217
v 0 12.469265937805176 3.6955180168151855
v 0 16.828426361083984 2.8284270763397217
v 0 14 4
v 0 15.530734062194824 3.6955180168151855
v 4.7717814445495605 11.520099639892578 3.6955180168151855
v 5.357568264007568 12.934313774108887 4
v 6.439960479736328 15.547439575195312 2.8284270763397217
v 5.943354606628418 14.348526954650879 3.6955180168151855
v 10 0 0
v 9.238795280456543 3.8268344402313232 0
v 10.304481506347656 0 1.5307337045669556
v 9.520099639892578 3.943354606628418 1.5307337045669556
v 18 0 0
v 17.695518493652344 0 1.5307337045669556
v 16.629831314086914 6.888301849365234 0
v 16.348527908325195 6.7717814445495605 1.5307337045669556
v 11.1715726852417 0 2.8284270763397217
v 10.321187973022461 4.275176048278809 2.8284270763397217
v 12.469265937805176 0 3.6955180168151855
v 11.520099639892578 4.7717814445495605 3.6955180168151855
v 12.934313774108887 5.357568264007568 4
v 16.828426361083984 0 2.8284270763397217
v 14 0 4
v 15.530734062194824 0 3.6955180168151855
v 15.547439575195312 6.439960479736328 2.8284270763397217
v 14.348526954650879 5.943354606628418 3.6955180168151855
v 12.727922439575195 12.727922439575195 0
v 12.51262092590332 12.51262092590332 1.5307337045669556
v 11.899495124816895 11.899495124816895 2.8284270763397217
v 9.899495124816895 9.899495124816895 4
v 10.981886863708496 10.981886863708496 3.6955180168151855
vn -0.26430919551947407 -0.28472789890984346 -0.9214503094286932
vn 0.004199130539859895 -0.014450411584969526 -0.9998867700433557
vn -0.4934203995601436 -0.5107775405959147 -0.7040189012524427
vn -0.6488886397689406 -0.6588330189792787 -0.38063445230491566
vn -0.35315046184640014 -0.1619075111252972 -0.9214503291761776
vn -0.6513271239033005 -0.28307312323856104 -0.7040188808319141
vn -0.0016504436808806896 -0.014957381693599833 -0.9998867699737448
vn 0.3507233518214493 0.13510967629780957 -0.9266814478869365
vn 0.6509775421224613 0.2643061836448148 -0.7115971338751392
vn -0.851619384107103 -0.36036340302493847 -0.3806345259869684
vn 0.8528712471498324 0.3514446350969064 -0.3861312008199952
vn -0.13522924715297854 -0.3642011049415538 -0.9214502731421754
vn -0.2603948120189823 -0.6607206473677423 -0.7040190111179886
vn 0.009409424094745204 -0.011743504775205634 -0.9998867700063844
vn 0.15246189891133669 0.3435358351130381 -0.9266814443882735
vn 0.2734178922186641 0.647203331306927 -0.7115971501909764
vn -0.34737041236966326 -0.8570013554572825 -0.380634303964462
vn 0.354562125861909 0.8515799456942755 -0.38613118884081166
vn 0.2723219041217556 0.25904109546651605 -0.9266814400833809
vn 0.5002792033473094 0.4933054596968281 -0.7115971066070199
vn 0.6534582351008822 0.6510722015751791 -0.38613122551134027
vn -0.7071068109888685 -0.7071067513842252 -5.556127863042364e-9
vn -0.6588330856670739 -0.6488885871405338 0.3806344265948155
vn -0.5107775481069363 -0.49342037701360386 0.7040189116050928
vn -0.28472789890984346 -0.26430919551947407 0.9214503094286932
vn -0.014450413447254017 0.0041991300740937855 0.9998867700183978
vn -0.9238795498316428 -0.3826833905500378 9.055238910492995e-8
vn -0.8570013121635853 -0.3473704785856642 0.380634341011238
vn 0.9238795305660374 0.38268343706133684 -9.881405309515238e-9
vn 0.8515799195145796 0.3545621397786544 0.3861312337989819
vn -0.6607206473677423 -0.2603948120189823 0.7040190111179886
vn -0.36420105982326273 -0.13522922656494035 0.9214502939965129
vn -0.011743500119234867 0.009409424095259758 0.9998867700610631
vn 0.3435358358935031 0.15246188435654764 0.9266814464935632
vn 0.6472033365806555 0.27341786464428364 0.7115971559894172
vn -0.3826833905500379 -0.923879549831643 -8.856263499580063e-8
vn -0.36036340302493847 -0.851619384107103 0.3806345259869684
vn 0.3826834159879128 0.9238795392949353 1.2870715706994807e-8
vn 0.3514446310526197 0.8528712373353255 0.38613122617887147
vn -0.2830730958243105 -0.6513271293980499 0.7040188867711835
vn -0.16190749491072687 -0.35315048878393274 0.9214503217012854
vn -0.014957381693720533 -0.0016504387914503993 0.9998867699818135
vn 0.1351096630808798 0.3507233263911253 0.9266814594386332
vn 0.264306211365213 0.6509775369947512 0.7115971282699324
vn 0.7071067811865476 0.7071067811865476 1.2178075423338088e-9
vn 0.6510722015751791 0.6534582351008822 0.38613122551134027
vn 0.4933054596968281 0.5002792033473094 0.7115971066070199
vn 0.25904106976632985 0.27232187863188234 0.9266814547581697
vn -0.38822791995943046 -0.014438180630612375 -0.9214502814064641
vn -0.007248751955563042 -0.013187220568303182 -0.9998867699938677
vn -0.7100751914438688 -0.012273353383461033 -0.7040188827671298
vn -0.3642010590893712 0.13522924119360447 -0.9214502921397238
vn -0.6607206524951786 0.26039478423741963 -0.7040190165814364
vn 0.3757303354832953 -0.009390936227376252 -0.92668145838491
vn 0.7025703963021678 -0.004931204143959126 -0.7115971623506557
vn 0.647203331306927 -0.2734178922186641 -0.7115971501909764
vn -0.011743502912920237 -0.009409423163710889 -0.9998867700370179
vn 0.3435358351130381 -0.15246189891133669 -0.9266814443882735
vn -0.9246988160257206 -0.0070317912742013 -0.380634540671372
vn -0.8570013465852231 0.3473704385758519 -0.38063430002396625
vn 0.9224423792602273 -0.0016872130848446974 -0.38613107911269867
vn 0.8515799195145796 -0.3545621397786544 -0.3861312337989819
vn -0.2847278715235945 0.26430919776228357 -0.9214503172477079
vn -0.014450413447254017 -0.0041991300740937855 -0.9998867700183978
vn -0.5107775405959147 0.4934203995601436 -0.7040189012524427
vn -0.6588330781934095 0.6488885797796777 -0.3806344520793004
vn 0.2590410718686616 -0.2723218510396763 -0.9266814622789533
vn 0.49330541622360724 -0.5002791894831486 -0.7115971464912837
vn 0.6510722015751791 -0.6534582351008822 -0.38613122551134027
vn 0.13510966166866362 -0.35072335252755743 -0.9266814497526158
vn -0.014957384486979893 0.001650442167416627 -0.9998867699344565
vn -0.1619075094212685 0.35315048793191844 -0.9214503194781855
vn -0.28307312323856104 0.6513271239033005 -0.7040188808319141
vn 0.2643061836448148 -0.6509775421224613 -0.7115971338751392
vn -0.36036340302493847 0.851619384107103 -0.3806345259869684
vn 0.3514446270083328 -0.852871227520818 -0.38613125153774686
vn -1 -1.3275769372711466e-9 -1.3939331910961528e-9
vn -0.9246988159924141 0.007031796396222108 0.380634540657662
vn -0.9238795305660341 0.38268343706133545 -8.62235463206689e-8
vn -0.851619384107103 0.36036340302493847 0.3806345259869684
vn 1 5.300489491766314e-10 -1.0215959189707746e-9
vn 0.9238795392949353 -0.3826834159879128 1.2870715706994807e-8
vn 0.9224423686413217 0.0016872155101436968 0.3861311044699849
vn 0.8528712471498324 -0.3514446350969064 0.3861312008199952
vn -0.7100751914357523 0.012273354314643308 0.7040188827590825
vn -0.38822791998031186 0.014438176906098558 0.9214502814560257
vn -0.007248751955563042 0.013187220568303182 0.9998867699938677
vn -0.6513271239033005 0.28307312323856104 0.7040188808319141
vn -0.3531505131654214 0.1619075222277811 0.9214503075570923
vn 0.7025703665029984 0.004931203934804587 0.7115971917732644
vn 0.6509775369947512 -0.264306211365213 0.7115971282699324
vn 0.37573038667006875 0.009390936948304082 0.92668143762352
vn -0.001650442283877616 0.014957382624748553 0.9998867699621217
vn 0.3507233518214493 -0.13510967629780957 0.9266814478869365
vn -0.7071067513842252 0.7071068109888685 -8.799404873190761e-10
vn -0.6488886052612155 0.6588330444608165 0.3806344670266295
vn -0.4934203995601436 0.5107775405959147 0.7040189012524427
vn -0.26430919551947407 0.28472789890984346 0.9214503094286932
vn 0.004199132868125321 0.014450411584828246 0.99988677003358
vn 0.7071068109888685 -0.7071067513842252 -2.139831147554555e-9
vn 0.6534582351008822 -0.6510722015751791 0.38613122551134027
vn 0.5002791894831486 -0.49330541622360724 0.7115971464912837
vn 0.2723219041217556 -0.25904109546651605 0.9266814400833809
vn -0.3826833905500378 0.9238795498316428 9.055238910492995e-8
vn -0.3473704785856642 0.8570013121635853 0.380634341011238
vn 0.38268343706133684 -0.9238795305660374 -1.4437805141511472e-8
vn 0.3545621397786544 -0.8515799195145796 0.3861312337989819
vn 0.15246188435654764 -0.3435358358935031 0.9266814464935632
vn 0.009409425026499893 0.011743500119131957 0.9998867700523009
vn -0.2603948120189823 0.6607206473677423 0.7040190111179886
vn -0.13522924715297854 0.3642011049415538 0.9214502731421754
vn 0.2734178922186641 -0.647203331306927 0.7115971501909764
vn 0.014438176906098558 -0.38822791998031186 -0.9214502814560257
vn 0.013187220568303182 -0.007248751955563042 -0.9998867699938677
vn 0.012273353898485256 -0.7100752212406091 -0.7040188527050838
vn 0.009390936948304082 0.37573038667006875 -0.92668143762352
vn 0.004931203934804587 0.7025703665029984 -0.7115971917732644
vn -0.2643061836448148 0.6509775421224613 -0.7115971338751392
vn 0.1619075094212685 -0.35315048793191844 -0.9214503194781855
vn 0.2830731241276003 -0.6513271855535482 -0.7040188234383609
vn 0.014957382624748553 -0.001650442283877616 -0.9998867699621217
vn -0.13510967629780957 0.3507233518214493 -0.9266814478869365
vn 0.0070317968618603625 -0.9246988159893862 -0.38063454065641567
vn 0.001687217120537722 0.9224423580236837 -0.38613112982780107
vn -0.3514446350969064 0.8528712471498324 -0.3861312008199952
vn 0.36036340302493847 -0.851619384107103 -0.3806345259869684
vn -0.25904109546651605 0.2723219041217556 -0.9266814400833809
vn -0.49330541622360724 0.5002791894831486 -0.7115971464912837
vn -0.6510722015751791 0.6534582351008822 -0.38613122551134027
vn 0.014450411584828246 0.004199132868125321 -0.99988677003358
vn 0.28472789890984346 -0.26430919551947407 -0.9214503094286932
vn 0.5107775481069363 -0.49342037701360386 -0.7040189116050928
vn 0.6588330444608165 -0.6488886052612155 -0.3806344670266295
vn -0.3435358351130381 0.15246189891133669 -0.9266814443882735
vn 0.011743504775411456 0.009409422232264934 -0.9998867700239088
vn -0.6472033091298526 0.27341785304740285 -0.7115971854120261
vn 0.3642010790922835 -0.13522924862076202 -0.9214502831436325
vn 0.6607206473677423 -0.2603948120189823 -0.7040190111179886
vn -0.851579964492375 0.35456210388632586 -0.386131167562096
vn 0.8570013554572825 -0.34737041236966326 -0.380634303964462
vn -1.3275769372711466e-9 -1 4.017837174075112e-9
vn -0.007031794068030832 -0.9246988160075534 0.38063454066389385
vn -1.586012876586551e-9 1 -1.0636586056378405e-9
vn -0.38268343706133684 0.9238795305660374 -9.881405309515238e-9
vn -0.0016872176250293373 0.9224423792531614 0.38613107910974087
vn -0.3545621397786544 0.8515799195145796 0.3861312337989819
vn 0.38268343706133545 -0.9238795305660341 8.628876704024534e-8
vn 0.3473704785856642 -0.8570013121635853 0.380634341011238
vn -0.012273358039372403 -0.7100751914032863 0.7040188827268935
vn -0.014438176906098558 -0.38822791998031186 0.9214502814560257
vn -0.013187220568303182 -0.007248751955563042 0.9998867699938677
vn -0.004931204609609102 0.7025703963005546 0.7115971623490218
vn -0.27341785304740285 0.6472033091298526 0.7115971854120261
vn -0.00939093798470082 0.37573036107175317 0.926681447992058
vn 0.26039478423741963 -0.6607206524951786 0.7040190165814364
vn 0.13522924119360447 -0.3642010590893712 0.9214502921397238
vn -0.00940942502598534 -0.011743504775102723 0.9998867699976222
vn -0.15246189891133669 0.3435358351130381 0.9266814443882735
vn -0.7071067811865476 0.7071067811865476 1.2178075423338088e-9
vn -0.6534582351008822 0.6510722015751791 0.38613122551134027
vn -0.5002791894831486 0.49330541622360724 0.7115971464912837
vn -0.27232187652955037 0.2590410975688481 0.9266814476041649
vn 0.7071067513842252 -0.7071068109888685 -5.556127863042364e-9
vn 0.6488885797796777 -0.6588330781934095 0.3806344520793004
vn 0.49342040708463897 -0.5107775771390604 0.7040188694661389
vn -0.0041991300740937855 -0.014450413447254017 0.9998867700183978
vn 0.26430919776228357 -0.2847278715235945 0.9214503172477079
vn -0.9238795305660374 0.38268343706133684 1.5738879093908585e-8
vn -0.8528712373353255 0.3514446310526197 0.38613122617887147
vn 0.923879549831643 -0.3826833905500379 -8.856263499580063e-8
vn 0.851619384107103 -0.36036340302493847 0.3806345259869684
vn -0.35072335252755743 0.13510966166866362 0.9266814497526158
vn 0.001650442167416627 -0.014957384486979893 0.9998867699344565
vn -0.6509775369947512 0.264306211365213 0.7115971282699324
vn 0.6513271293980499 -0.2830730958243105 0.7040188867711835
vn 0.35315048878393274 -0.16190749491072687 0.9214503217012854
vn -0.2723219041217556 -0.25904109546651605 -0.9266814400833809
vn -0.5002791894831486 -0.49330541622360724 -0.7115971464912837
vn -0.6534582351008822 -0.6510722015751791 -0.38613122551134027
vn -0.009390936227376252 -0.3757303354832953 -0.92668145838491
vn -0.004931204143959126 -0.7025703963021678 -0.7115971623506557
vn -0.27341785304740285 -0.6472033091298526 -0.7115971854120261
vn -0.013187221499597354 0.007248750558563531 -0.9998867699917129
vn -0.014438176906098558 0.38822791998031186 -0.9214502814560257
vn -0.012273353383461033 0.7100751914438688 -0.7040188827671298
vn -0.15246189891133669 -0.3435358351130381 -0.9266814443882735
vn -0.00940942502639698 0.01174350105032611 -0.9998867700413651
vn 0.13522924119360447 0.3642010590893712 -0.9214502921397238
vn 0.26039478423741963 0.6607206524951786 -0.7040190165814364
vn -0.0016872130848446974 -0.9224423792602273 -0.38613107911269867
vn -0.354562125861909 -0.8515799456942755 -0.38613118884081166
vn -0.0070317912742013 0.9246988160257206 -0.380634540671372
vn 0.3473704385758519 0.8570013465852231 -0.38063430002396625
vn -0.37573038667006875 0.009390936948304082 -0.92668143762352
vn -0.7025703665126782 0.0049312011409048525 -0.7115971917830686
vn -0.6509775421224613 -0.2643061836448148 -0.7115971338751392
vn -0.3507233263911253 -0.1351096630808798 -0.9266814594386332
vn 0.0016504397227474637 0.014957382624811775 -0.9998867699663481
vn 0.007248750558652557 0.01318722056843672 -0.999886770003993
vn 0.3882279452855807 0.014438177670175934 -0.9214502707823687
vn 0.7100752212406091 0.012273353898485256 -0.7040188527050838
vn 0.3531505131654214 0.1619075222277811 -0.9214503075570923
vn 0.6513271855535482 0.2830731241276003 -0.7040188234383609
vn -0.9224423580236837 0.001687217120537722 -0.38613112982780107
vn -0.852871227520818 -0.3514446270083328 -0.38613125153774686
vn 0.9246988159893862 0.0070317968618603625 -0.38063454065641567
vn 0.8516194101437391 0.3603633888206099 -0.3806344811812975
vn -0.0041991314712225775 0.014450410653784895 -0.9998867700529018
vn 0.26430925096017527 0.2847278944242239 -0.9214502949121124
vn 0.49342038453810044 0.5107775846500822 -0.7040188798187882
vn 0.6488885797796777 0.6588330781934095 -0.3806344520793004
vn -0.7071067513842252 -0.7071068109888685 -2.139831147554555e-9
vn -0.6510722015751791 -0.6534582351008822 0.38613122551134027
vn -0.49330541622360724 -0.5002791894831486 0.7115971464912837
vn -0.2590410440661425 -0.27232185314200785 0.9266814694329576
vn 5.300489491766314e-10 -1 -1.0215959189707746e-9
vn -0.38268343706133684 -0.9238795305660374 1.5738879093908585e-8
vn 0.0016872155101436968 -0.9224423686413217 0.3861311044699849
vn -0.3514446089755675 -0.8528712560826919 0.38613120486428176
vn -1.3275769372711466e-9 1 -1.3939331910961528e-9
vn 0.007031796396222108 0.9246988159924141 0.380634540657662
vn 0.38268343706133545 0.9238795305660341 -8.62235463206689e-8
vn 0.36036340302493847 0.851619384107103 0.3806345259869684
vn 0.004931203934804587 -0.7025703665029984 0.7115971917732644
vn -0.264306211365213 -0.6509775369947512 0.7115971282699324
vn 0.009390936948304082 -0.37573038667006875 0.92668143762352
vn 0.012273354314643308 0.7100751914357523 0.7040188827590825
vn 0.01318722056843672 0.007248750558652557 0.999886770003993
vn 0.01443817783722701 0.38822791997509143 0.9214502814436352
vn -0.13510967629780957 -0.3507233518214493 0.9266814478869365
vn 0.014957381693637193 0.0016504421674856 0.9998867699762423
vn 0.28307312323856104 0.6513271239033005 0.7040188808319141
vn 0.1619075222277811 0.3531505131654214 0.9214503075570923
vn -1 -1.586012876586551e-9 -1.0636586056378405e-9
vn -0.9238795305660374 -0.38268343706133684 -1.4437805141511472e-8
vn -0.9224423792531614 -0.0016872176250293373 0.38613107910974087
vn -0.8515799195145796 -0.3545621397786544 0.3861312337989819
vn 1 -1.3275769372711466e-9 4.017837174075112e-9
vn 0.9246988160075534 -0.007031794068030832 0.38063454066389385
vn 0.9238795305660341 0.38268343706133545 8.628876704024534e-8
vn 0.8570013121635853 0.3473704785856642 0.380634341011238
vn -0.7025703963005546 -0.004931204609609102 0.7115971623490218
vn -0.6472033038561248 -0.27341788062178235 0.7115971796135856
vn -0.37573036107175317 -0.00939093798470082 0.926681447992058
vn -0.3435358351130381 -0.15246189891133669 0.9266814443882735
vn 0.011743498256640738 -0.00940942595794585 0.9998867700654102
vn 0.7100751914032863 -0.012273358039372403 0.7040188827268935
vn 0.007248750558563531 -0.013187221499597354 0.9998867699917129
vn 0.38822791998031186 -0.014438176906098558 0.9214502814560257
vn 0.6607206524951786 0.26039478423741963 0.7040190165814364
vn 0.3642011049415538 0.13522924715297854 0.9214502731421754
vn 0.7071067811865476 0.7071067811865476 -8.799405799169481e-10
vn 0.6588330369871518 0.6488885979003584 0.38063449251111425
vn 0.5107775921611039 0.4934203619915608 0.7040188901714372
vn 0.014450411585110805 -0.004199128211594468 0.9998867700531314
vn 0.2847278966670338 0.26430922323982503 0.9214503021704032
f 5//5 1//1 3//3
f 13//13 3//3 1//1
f 6//6 3//3 4//4
f 10//10 4//4 22//22
f 17//17 4//4 3//3
f 36//36 22//22 4//4
f 3//3 6//6 5//5
f 6//6 51//51 49//49
f 50//50 7//7 5//5
f 49//49 5//5 6//6
f 5//5 49//49 50//50
f 51//51 6//6 10//10
f 1//1 5//5 7//7
f 7//7 2//2 1//1
f 2//2 7//7 8//8
f 8//8 19//19 2//2
f 9//9 20//20 19//19
f 19//19 8//8 9//9
f 20//20 9//9 11//11
f 54//54 8//8 7//7
f 7//7 50//50 54//54
f 8//8 54//54 55//55
f 55//55 9//9 8//8
f 9//9 55//55 61//61
f 59//59 10//10 27//27
f 4//4 10//10 6//6
f 22//22 27//27 10//10
f 10//10 59//59 51//51
f 27//27 77//77 59//59
f 61//61 11//11 9//9
f 11//11 61//61 81//81
f 81//81 29//29 11//11
f 1//1 12//12 13//13
f 3//3 13//13 17//17
f 12//12 1//1 2//2
f 2//2 14//14 12//12
f 14//14 2//2 19//19
f 15//15 19//19 20//20
f 19//19 15//15 14//14
f 20//20 16//16 15//15
f 113//113 12//12 14//14
f 115//115 13//13 12//12
f 14//14 114//114 113//113
f 12//12 113//113 115//115
f 13//13 115//115 123//123
f 114//114 14//14 15//15
f 116//116 15//15 16//16
f 15//15 116//116 114//114
f 16//16 117//117 116//116
f 117//117 16//16 18//18
f 4//4 17//17 36//36
f 141//141 36//36 17//17
f 21//21 18//18 16//16
f 123//123 17//17 13//13
f 17//17 123//123 141//141
f 124//124 18//18 38//38
f 18//18 124//124 117//117
f 38//38 143//143 124//124
f 16//16 20//20 21//21
f 11//11 21//21 20//20
f 21//21 11//11 29//29
f 18//18 21//21 45//45
f 29//29 45//45 21//21
f 45//45 38//38 18//18
f 27//27 22//22 23//23
f 28//28 23//23 24//24
f 37//37 23//23 22//22
f 40//40 24//24 23//23
f 31//31 24//24 25//25
f 41//41 25//25 24//24
f 77//77 27//27 28//28
f 23//23 28//28 27//27
f 28//28 78//78 77//77
f 78//78 28//28 31//31
f 46//46 30//30 35//35
f 29//29 81//81 83//83
f 83//83 30//30 29//29
f 30//30 83//83 90//90
f 24//24 31//31 28//28
f 25//25 32//32 31//31
f 31//31 85//85 78//78
f 85//85 31//31 32//32
f 86//86 32//32 33//33
f 32//32 86//86 85//85
f 33//33 87//87 86//86
f 26//26 33//33 32//32
f 32//32 25//25 26//26
f 34//34 48//48 47//47
f 33//33 26//26 48//48
f 47//47 35//35 34//34
f 48//48 34//34 33//33
f 90//90 35//35 30//30
f 92//92 34//34 35//35
f 87//87 33//33 34//34
f 35//35 90//90 92//92
f 34//34 92//92 87//87
f 22//22 36//36 37//37
f 23//23 37//37 40//40
f 142//142 37//37 36//36
f 36//36 141//141 142//142
f 37//37 142//142 149//149
f 143//143 38//38 39//39
f 145//145 39//39 44//44
f 39//39 145//145 143//143
f 24//24 40//40 41//41
f 47//47 44//44 39//39
f 42//42 26//26 25//25
f 25//25 41//41 42//42
f 44//44 47//47 48//48
f 43//43 48//48 26//26
f 26//26 42//42 43//43
f 48//48 43//43 44//44
f 149//149 40//40 37//37
f 150//150 41//41 40//40
f 151//151 42//42 41//41
f 40//40 149//149 150//150
f 41//41 150//150 151//151
f 44//44 152//152 145//145
f 154//154 43//43 42//42
f 152//152 44//44 43//43
f 43//43 154//154 152//152
f 42//42 151//151 154//154
f 45//45 29//29 30//30
f 38//38 45//45 46//46
f 30//30 46//46 45//45
f 46//46 39//39 38//38
f 39//39 46//46 47//47
f 35//35 47//47 46//46
f 57//57 50//50 49//49
f 52//52 49//49 51//51
f 49//49 52//52 57//57
f 51//51 53//53 52//52
f 53//53 51//51 59//59
f 63//63 52//52 53//53
f 65//65 53//53 60//60
f 58//58 54//54 50//50
f 56//56 55//55 54//54
f 50//50 57//57 58//58
f 54//54 58//58 56//56
f 55//55 56//56 62//62
f 64//64 57//57 52//52
f 52//52 63//63 64//64
f 67//67 58//58 57//57
f 68//68 56//56 58//58
f 57//57 64//64 67//67
f 58//58 67//67 68//68
f 59//59 60//60 53//53
f 60//60 59//59 77//77
f 66//66 60//60 79//79
f 77//77 79//79 60//60
f 62//62 61//61 55//55
f 61//61 62//62 82//82
f 82//82 81//81 61//61
f 69//69 62//62 56//56
f 53//53 65//65 63//63
f 72//72 63//63 65//65
f 73//73 65//65 66//66
f 60//60 66//66 65//65
f 79//79 95//95 66//66
f 75//75 66//66 95//95
f 56//56 68//68 69//69
f 62//62 69//69 100//100
f 76//76 69//69 68//68
f 69//69 76//76 106//106
f 100//100 82//82 62//62
f 106//106 100//100 69//69
f 70//70 67//67 64//64
f 74//74 68//68 67//67
f 71//71 64//64 63//63
f 63//63 72//72 71//71
f 67//67 70//70 74//74
f 64//64 71//71 70//70
f 68//68 74//74 76//76
f 65//65 73//73 72//72
f 181//181 74//74 70//70
f 180//180 70//70 71//71
f 71//71 183//183 180//180
f 70//70 180//180 181//181
f 74//74 181//181 190//190
f 183//183 71//71 72//72
f 184//184 72//72 73//73
f 72//72 184//184 183//183
f 73//73 185//185 184//184
f 185//185 73//73 75//75
f 66//66 75//75 73//73
f 192//192 75//75 104//104
f 95//95 104//104 75//75
f 190//190 76//76 74//74
f 76//76 190//190 216//216
f 216//216 106//106 76//76
f 75//75 192//192 185//185
f 104//104 220//220 192//192
f 79//79 77//77 78//78
f 80//80 78//78 85//85
f 95//95 79//79 80//80
f 78//78 80//80 79//79
f 96//96 80//80 88//88
f 81//81 82//82 84//84
f 84//84 83//83 81//81
f 83//83 84//84 91//91
f 85//85 88//88 80//80
f 88//88 85//85 86//86
f 89//89 86//86 87//87
f 86//86 89//89 88//88
f 87//87 93//93 89//89
f 97//97 88//88 89//89
f 91//91 90//90 83//83
f 94//94 92//92 90//90
f 93//93 87//87 92//92
f 92//92 94//94 93//93
f 90//90 91//91 94//94
f 102//102 91//91 84//84
f 99//99 93//93 94//94
f 98//98 89//89 93//93
f 93//93 99//99 98//98
f 103//103 94//94 91//91
f 91//91 102//102 103//103
f 94//94 103//103 99//99
f 80//80 96//96 95//95
f 104//104 95//95 96//96
f 105//105 96//96 97//97
f 88//88 97//97 96//96
f 89//89 98//98 97//97
f 110//110 97//97 98//98
f 82//82 100//100 101//101
f 100//100 106//106 107//107
f 101//101 84//84 82//82
f 84//84 101//101 102//102
f 107//107 101//101 100//100
f 112//112 102//102 101//101
f 101//101 107//107 112//112
f 220//220 104//104 105//105
f 96//96 105//105 104//104
f 106//106 216//216 218//218
f 218//218 107//107 106//106
f 107//107 218//218 224//224
f 105//105 221//221 220//220
f 221//221 105//105 110//110
f 108//108 103//103 102//102
f 109//109 99//99 103//103
f 111//111 98//98 99//99
f 99//99 109//109 111//111
f 102//102 112//112 108//108
f 103//103 108//108 109//109
f 97//97 110//110 105//105
f 98//98 111//111 110//110
f 224//224 112//112 107//107
f 226//226 108//108 112//112
f 228//228 109//109 108//108
f 112//112 224//224 226//226
f 108//108 226//226 228//228
f 110//110 227//227 221//221
f 227//227 110//110 111//111
f 229//229 111//111 109//109
f 111//111 229//229 227//227
f 109//109 228//228 229//229
f 120//120 115//115 113//113
f 119//119 113//113 114//114
f 114//114 121//121 119//119
f 113//113 119//119 120//120
f 115//115 120//120 126//126
f 121//121 114//114 116//116
f 122//122 116//116 117//117
f 116//116 122//122 121//121
f 117//117 118//118 122//122
f 118//118 117//117 124//124
f 132//132 120//120 119//119
f 130//130 121//121 122//122
f 127//127 122//122 118//118
f 131//131 119//119 121//121
f 121//121 130//130 131//131
f 122//122 127//127 130//130
f 118//118 128//128 127//127
f 128//128 118//118 125//125
f 126//126 123//123 115//115
f 147//147 141//141 123//123
f 125//125 124//124 143//143
f 124//124 125//125 118//118
f 143//143 144//144 125//125
f 123//123 126//126 147//147
f 133//133 126//126 120//120
f 163//163 147//147 126//126
f 136//136 128//128 129//129
f 125//125 129//129 128//128
f 129//129 125//125 144//144
f 139//139 129//129 159//159
f 144//144 159//159 129//129
f 159//159 168//168 139//139
f 119//119 131//131 132//132
f 138//138 132//132 131//131
f 120//120 132//132 133//133
f 126//126 133//133 163//163
f 140//140 133//133 132//132
f 170//170 163//163 133//133
f 135//135 130//130 127//127
f 134//134 127//127 128//128
f 127//127 134//134 135//135
f 128//128 136//136 134//134
f 137//137 131//131 130//130
f 130//130 135//135 137//137
f 199//199 135//135 134//134
f 194//194 134//134 136//136
f 134//134 194//194 199//199
f 136//136 195//195 194//194
f 195//195 136//136 139//139
f 131//131 137//137 138//138
f 132//132 138//138 140//140
f 200//200 137//137 135//135
f 201//201 138//138 137//137
f 135//135 199//199 200//200
f 137//137 200//200 201//201
f 138//138 201//201 206//206
f 129//129 139//139 136//136
f 204//204 139//139 168//168
f 139//139 204//204 195//195
f 168//168 234//234 204//204
f 133//133 140//140 170//170
f 238//238 170//170 140//140
f 206//206 140//140 138//138
f 140//140 206//206 238//238
f 148//148 142//142 141//141
f 142//142 148//148 155//155
f 144//144 143//143 145//145
f 146//146 145//145 152//152
f 145//145 146//146 144//144
f 141//141 147//147 148//148
f 164//164 148//148 147//147
f 160//160 146//146 153//153
f 155//155 149//149 142//142
f 156//156 150//150 149//149
f 157//157 151//151 150//150
f 149//149 155//155 156//156
f 150//150 156//156 157//157
f 152//152 153//153 146//146
f 153//153 152//152 154//154
f 158//158 154//154 151//151
f 154//154 158//158 153//153
f 151//151 157//157 158//158
f 165//165 155//155 148//148
f 167//167 156//156 155//155
f 161//161 153//153 158//158
f 162//162 158//158 157//157
f 166//166 157//157 156//156
f 156//156 167//167 166//166
f 158//158 162//162 161//161
f 157//157 166//166 162//162
f 159//159 144//144 146//146
f 168//168 159//159 160//160
f 146//146 160//160 159//159
f 160//160 169//169 168//168
f 169//169 160//160 161//161
f 153//153 161//161 160//160
f 147//147 163//163 164//164
f 148//148 164//164 165//165
f 171//171 164//164 163//163
f 175//175 165//165 164//164
f 155//155 165//165 167//167
f 176//176 167//167 165//165
f 234//234 168//168 169//169
f 236//236 169//169 174//174
f 169//169 236//236 234//234
f 163//163 170//170 171//171
f 164//164 171//171 175//175
f 239//239 171//171 170//170
f 170//170 238//238 239//239
f 171//171 239//239 247//247
f 161//161 174//174 169//169
f 174//174 161//161 162//162
f 172//172 162//162 166//166
f 162//162 172//172 174//174
f 173//173 166//166 167//167
f 167//167 176//176 173//173
f 166//166 173//173 172//172
f 174//174 242//242 236//236
f 242//242 174//174 172//172
f 244//244 172//172 173//173
f 172//172 244//244 242//242
f 173//173 248//248 244//244
f 165//165 175//175 176//176
f 247//247 175//175 171//171
f 249//249 176//176 175//175
f 248//248 173//173 176//176
f 176//176 249//249 248//248
f 175//175 247//247 249//249
f 182//182 178//178 179//179
f 191//191 179//179 212//212
f 205//205 179//179 178//178
f 179//179 205//205 235//235
f 212//212 217//217 191//191
f 235//235 212//212 179//179
f 186//186 180//180 183//183
f 182//182 181//181 180//180
f 183//183 187//187 186//186
f 180//180 186//186 182//182
f 181//181 182//182 191//191
f 187//187 183//183 184//184
f 188//188 184//184 185//185
f 184//184 188//188 187//187
f 185//185 189//189 188//188
f 189//189 185//185 192//192
f 177//177 186//186 187//187
f 178//178 182//182 186//186
f 187//187 208//208 177//177
f 186//186 177//177 178//178
f 208//208 187//187 188//188
f 188//188 209//209 208//208
f 209//209 188//188 189//189
f 210//210 189//189 193//193
f 191//191 190//190 181//181
f 190//190 191//191 217//217
f 217//217 216//216 190//190
f 192//192 193//193 189//189
f 193//193 192//192 220//220
f 179//179 191//191 182//182
f 211//211 193//193 222//222
f 220//220 222//222 193//193
f 195//195 196//196 197//197
f 198//198 199//199 194//194
f 197//197 194//194 195//195
f 194//194 197//197 198//198
f 196//196 195//195 204//204
f 177//177 197//197 196//196
f 197//197 177//177 208//208
f 196//196 178//178 177//177
f 208//208 198//198 197//197
f 198//198 208//208 209//209
f 209//209 202//202 198//198
f 178//178 196//196 205//205
f 202//202 200//200 199//199
f 199//199 198//198 202//202
f 200//200 202//202 203//203
f 203//203 201//201 200//200
f 201//201 203//203 207//207
f 210//210 203//203 202//202
f 205//205 204//204 234//234
f 204//204 205//205 196//196
f 234//234 235//235 205//205
f 207//207 206//206 201//201
f 240//240 238//238 206//206
f 211//211 207//207 203//203
f 206//206 207//207 240//240
f 252//252 240//240 207//207
f 189//189 210//210 209//209
f 202//202 209//209 210//210
f 203//203 210//210 211//211
f 193//193 211//211 210//210
f 222//222 252//252 211//211
f 207//207 211//211 252//252
f 217//217 212//212 213//213
f 212//212 235//235 237//237
f 213//213 219//219 217//217
f 219//219 213//213 214//214
f 237//237 213//213 212//212
f 243//243 214//214 213//213
f 216//216 217//217 219//219
f 219//219 218//218 216//216
f 218//218 219//219 225//225
f 222//222 220//220 221//221
f 223//223 221//221 227//227
f 252//252 222//222 223//223
f 221//221 223//223 222//222
f 253//253 223//223 232//232
f 225//225 224//224 218//218
f 230//230 226//226 224//224
f 231//231 228//228 226//226
f 224//224 225//225 230//230
f 226//226 230//230 231//231
f 227//227 232//232 223//223
f 233//233 229//229 228//228
f 232//232 227//227 229//229
f 229//229 233//233 232//232
f 228//228 231//231 233//233
f 214//214 225//225 219//219
f 215//215 230//230 225//225
f 255//255 231//231 230//230
f 225//225 214//214 215//215
f 230//230 215//215 255//255
f 256//256 233//233 231//231
f 231//231 255//255 256//256
f 254//254 232//232 233//233
f 235//235 234//234 236//236
f 237//237 236//236 242//242
f 236//236 237//237 235//235
f 213//213 237//237 243//243
f 241//241 239//239 238//238
f 239//239 241//241 250//250
f 238//238 240//240 241//241
f 253//253 241//241 240//240
f 242//242 243//243 237//237
f 243//243 242//242 244//244
f 245//245 244//244 248//248
f 244//244 245//245 243//243
f 248//248 246//246 245//245
f 214//214 243//243 245//245
f 215//215 245//245 246//246
f 245//245 215//215 214//214
f 246//246 255//255 215//215
f 251//251 256//256 255//255
f 255//255 246//246 251//251
f 250//250 247//247 239//239
f 251//251 249//249 247//247
f 246//246 248//248 249//249
f 247//247 250//250 251//251
f 249//249 251//251 246//246
f 254//254 250//250 241//241
f 256//256 251//251 250//250
f 223//223 253//253 252//252
f 240//240 252//252 253//253
f 241//241 253//253 254//254
f 232//232 254//254 253//253
f 233//233 256//256 254//254
f 250//250 254//254 256//256
