solid exported
	facet normal 0 -1 0
		outer loop
			vertex 0 0 0.10000000149011612
			vertex 0 0 0
			vertex 5 0 0
		endloop
	endfacet
	facet normal 0 0 -1
		outer loop
			vertex 0 0.009999997913837433 0
			vertex 5 0 0
			vertex 0 0 0
		endloop
	endfacet
	facet normal -1 0 0
		outer loop
			vertex 0 0 0.10000000149011612
			vertex 0 0.009999997913837433 0.10000000149011612
			vertex 0 0 0
		endloop
	endfacet
	facet normal 0 0 1
		outer loop
			vertex 0 0.009999997913837433 0.10000000149011612
			vertex 0 0 0.10000000149011612
			vertex 5 0 0.10000000149011612
		endloop
	endfacet
	facet normal -1 0 0
		outer loop
			vertex 0 0.009999997913837433 0.10000000149011612
			vertex 0 0.009999997913837433 0
			vertex 0 0 0
		endloop
	endfacet
	facet normal 0 1 0
		outer loop
			vertex 0 0.009999997913837433 0.10000000149011612
			vertex 5 0.009999997913837433 0.10000000149011612
			vertex 0 0.009999997913837433 0
		endloop
	endfacet
	facet normal 1 0 0
		outer loop
			vertex 5 0 0.10000000149011612
			vertex 5 0 0
			vertex 5 0.009999997913837433 0
		endloop
	endfacet
	facet normal 0 -1 0
		outer loop
			vertex 5 0 0.10000000149011612
			vertex 0 0 0.10000000149011612
			vertex 5 0 0
		endloop
	endfacet
	facet normal 0 0 -1
		outer loop
			vertex 5 0.009999997913837433 0
			vertex 5 0 0
			vertex 0 0.009999997913837433 0
		endloop
	endfacet
	facet normal 0 1 0
		outer loop
			vertex 5 0.009999997913837433 0.10000000149011612
			vertex 5 0.009999997913837433 0
			vertex 0 0.009999997913837433 0
		endloop
	endfacet
	facet normal 0 0 1
		outer loop
			vertex 5 0.009999997913837433 0.10000000149011612
			vertex 0 0.009999997913837433 0.10000000149011612
			vertex 5 0 0.10000000149011612
		endloop
	endfacet
	facet normal 1 0 0
		outer loop
			vertex 5 0.009999997913837433 0.10000000149011612
			vertex 5 0 0.10000000149011612
			vertex 5 0.009999997913837433 0
		endloop
	endfacet
endsolid exported
