o 
usemtl degenerate-near-coincident-union-material
v -10 -10 -10
v 9.999899864196777 -10 -10
v 9.999899864196777 -9.999899864196777 -10
v -10 -10 10
v 9.999899864196777 -10 10
v 9.999899864196777 -9.999899864196777 10
v -10 10 -10
v 9.999899864196777 10 -10
v -10 10 10
v 9.999899864196777 10 10
v 29.999900817871094 -10 -10
v 29.999900817871094 -10 10
v 10 9.999899864196777 -10
v 29.999900817871094 10 -10
v 10 9.999899864196777 10
v 29.999900817871094 10 10
vn -0.6666681766488635 -0.6666647791841113 -0.33333408832443173
vn 0 -0.8944267260831915 -0.44721452533219824
vn 0 0 -1
vn -0.5773512228623839 -0.5773483618393834 0.5773512228623839
vn 0 -0.9999999999968665 0.0000025033953079322373
vn 0 0 1
vn -0.408250679615084 0.4082486232548891 -0.8164952199519049
vn 0 0.9701423528866205 -0.24253621407041778
vn -0.5773526931089672 0.5773497724814214 0.5773483419699703
vn 0 0.8944267260831915 0.44721452533219824
vn 0.333334061833493 -0.6666681832716315 -0.6666647858068455
vn 0.6666681170443512 -0.333334088324498 0.6666648387888886
vn 0 0 -1
vn 0.8164965610595104 0.4082483103320779 -0.4082483103320779
vn 0 0 1
vn 0.4082482656285948 0.8164965908618329 0.40824829543091645
f 1//1 7//7 3//3
f 1//1 3//3 2//2
f 1//1 2//2 5//5
f 1//1 5//5 4//4
f 1//1 4//4 9//9
f 4//4 6//6 9//9
f 4//4 5//5 6//6
f 1//1 9//9 7//7
f 7//7 9//9 8//8
f 7//7 8//8 3//3
f 3//3 8//8 13//13
f 9//9 6//6 10//10
f 10//10 6//6 15//15
f 9//9 10//10 8//8
f 3//3 13//13 2//2
f 11//11 5//5 2//2
f 11//11 2//2 13//13
f 11//11 14//14 12//12
f 12//12 6//6 5//5
f 12//12 15//15 6//6
f 11//11 12//12 5//5
f 14//14 13//13 8//8
f 11//11 13//13 14//14
f 14//14 8//8 16//16
f 16//16 8//8 10//10
f 16//16 10//10 15//15
f 12//12 14//14 16//16
f 12//12 16//16 15//15
