<?xml version="1.0" encoding="UTF-8" standalone="no"?>
<!DOCTYPE svg PUBLIC "-//W3C//DTD SVG 1.1//EN" "http://www.w3.org/Graphics/SVG/1.1/DTD/svg11.dtd">
<svg width="419.52pt" height="595.2pt" viewBox="0 0 419.52 595.2" overflow="visible" version="1.1" xmlns="http://www.w3.org/2000/svg">
  <path d="M194.9888,316.7354 L180.8156,316.7356 L183.6502,313.901 L194.9888,313.9007 z" stroke="#000000" stroke-width="0.24" fill-opacity="0" />
  <path d="M180.8153,308.2317 L194.7884,308.2314 L191.9537,311.0661 L180.8153,311.0664 z" stroke="#000000" stroke-width="0.24" fill-opacity="0" />
  <path d="M194.9888,308.4319 L192.1542,311.2665 L192.1542,313.6173 L194.9888,313.6173 z" stroke="#000000" stroke-width="0.24" fill-opacity="0" />
  <path d="M194.9888,302.5627 L181.0157,302.5624 L183.8504,305.3971 L194.9888,305.3974 z" stroke="#000000" stroke-width="0.24" fill-opacity="0" />
  <path d="M180.8153,302.7629 L183.6499,305.5975 L183.6499,307.9483 L180.8153,307.9483 z" stroke="#000000" stroke-width="0.24" fill-opacity="0" />
  <path d="M197.8235,302.5622 L197.8232,316.5352 L200.6578,313.7006 L200.6581,302.5622 z" stroke="#000000" stroke-width="0.24" fill-opacity="0" />
  <path d="M211.9967,316.7354 L198.0236,316.7357 L200.8582,313.901 L211.9967,313.9007 z" stroke="#000000" stroke-width="0.24" fill-opacity="0" />
  <path d="M200.9414,308.2318 L211.9967,308.2314 L209.162,311.0661 L200.9414,311.0664 z" stroke="#000000" stroke-width="0.24" fill-opacity="0" />
  <path d="M200.9414,302.5622 L211.9967,302.5618 L209.162,305.3965 L200.9414,305.3968 z" stroke="#000000" stroke-width="0.24" fill-opacity="0" />
  <path d="M229.0046,302.5622 L215.0315,302.5619 L217.8661,305.3965 L229.0046,305.3968 z" stroke="#000000" stroke-width="0.24" fill-opacity="0" />
  <path d="M214.8313,316.7354 L214.831,302.7623 L217.6657,305.597 L217.666,316.7354 z" stroke="#000000" stroke-width="0.24" fill-opacity="0" />
  <path d="M220.5003,305.6801 L220.4999,316.7354 L223.3345,313.9007 L223.3349,305.6801 z" stroke="#000000" stroke-width="0.24" fill-opacity="0" />
  <path d="M226.1699,305.6801 L226.1696,316.7354 L229.0042,313.9007 L229.0046,305.6801 z" stroke="#000000" stroke-width="0.24" fill-opacity="0" />
  <path d="M234.6738,316.7354 L234.6741,302.5622 L231.8395,305.3968 L231.8392,316.7354 z" stroke="#000000" stroke-width="0.24" fill-opacity="0" />
  <path d="M237.5085,316.7354 L237.5082,302.7623 L240.3428,305.597 L240.3431,316.7354 z" stroke="#000000" stroke-width="0.24" fill-opacity="0" />
  <path d="M251.6817,302.5622 L251.682,316.5352 L248.8474,313.7006 L248.8471,302.5622 z" stroke="#000000" stroke-width="0.24" fill-opacity="0" />
  <path d="M248.5636,302.5622 L237.7086,302.5619 L240.5433,305.3965 L248.5636,305.3968 z" stroke="#000000" stroke-width="0.24" fill-opacity="0" />
  <path d="M240.6266,316.7354 L251.4816,316.7357 L248.6469,313.901 L240.6266,313.9007 z" stroke="#000000" stroke-width="0.24" fill-opacity="0" />
  <path d="M202.0748,268.5464 L230.021,268.5458 L224.3517,274.2151 L202.0748,274.2157 z" stroke="#EB344F" stroke-width="0.24" fill-opacity="0" />
  <path d="M230.4213,296.8929 L230.4303,268.9384 L224.761,274.6076 L224.752,296.8929 z" stroke="#EB344F" stroke-width="0.24" fill-opacity="0" />
  <path d="M213.4134,285.5543 L219.0827,279.885 L224.1851,279.885 L224.1851,285.5543 z" stroke="#00A69D" stroke-width="0.24" fill-opacity="0" />
  <path d="M213.4134,296.8929 L219.0827,291.2236 L224.1851,291.2236 L224.1851,296.8929 z" stroke="#00A69D" stroke-width="0.24" fill-opacity="0" />
  <path d="M202.0748,274.7826 L202.0748,296.8929 L207.7441,291.2236 L207.7441,274.7826 z" stroke="#F07518" stroke-width="0.24" fill-opacity="0" />
  <path d="M202.0749,268.5464 L230.021,268.5459 L224.3517,274.2151 L202.0749,274.2157 z" stroke="#000000" stroke-width="0.96" fill-opacity="0" />
  <path d="M230.4213,296.8929 L230.4303,268.9384 L224.761,274.6077 L224.752,296.8929 z" stroke="#000000" stroke-width="0.96" fill-opacity="0" />
  <path d="M202.0749,274.7827 L202.0749,296.8929 L207.7442,291.2236 L207.7442,274.7827 z" stroke="#000000" stroke-width="0.96" fill-opacity="0" />
  <path d="M213.4135,285.5543 L219.0827,279.885 L224.1851,279.885 L224.1851,285.5543 z" stroke="#000000" stroke-width="0.96" fill-opacity="0" />
  <path d="M213.4135,296.8929 L219.0827,291.2236 L224.1851,291.2236 L224.1851,296.8929 z" stroke="#000000" stroke-width="0.96" fill-opacity="0" />
  <path d="M237.5085,316.7354 L237.5082,302.7623 L240.3429,305.597 L240.3432,316.7354 z" stroke="#000000" stroke-width="0.24" fill-opacity="0" />
  <path d="M251.6817,302.5622 L251.682,316.5352 L248.8474,313.7006 L248.8471,302.5622 z" stroke="#000000" stroke-width="0.24" fill-opacity="0" />
  <path d="M248.5636,302.5622 L237.7087,302.5619 L240.5433,305.3965 L248.5636,305.3968 z" stroke="#000000" stroke-width="0.24" fill-opacity="0" />
  <path d="M240.6266,316.7354 L251.4816,316.7357 L248.6469,313.9011 L240.6266,313.9008 z" stroke="#000000" stroke-width="0.24" fill-opacity="0" />
  <path d="M234.6739,316.7354 L234.6742,302.5622 L231.8395,305.3968 L231.8392,316.7354 z" stroke="#000000" stroke-width="0.24" fill-opacity="0" />
  <path d="M226.1699,305.6801 L226.1696,316.7354 L229.0042,313.9008 L229.0046,305.6801 z" stroke="#000000" stroke-width="0.24" fill-opacity="0" />
  <path d="M220.5003,305.6801 L220.4999,316.7354 L223.3346,313.9008 L223.3349,305.6801 z" stroke="#000000" stroke-width="0.24" fill-opacity="0" />
  <path d="M214.8314,316.7354 L214.8311,302.7623 L217.6657,305.597 L217.666,316.7354 z" stroke="#000000" stroke-width="0.24" fill-opacity="0" />
  <path d="M229.0046,302.5622 L215.0315,302.5619 L217.8661,305.3965 L229.0046,305.3968 z" stroke="#000000" stroke-width="0.24" fill-opacity="0" />
  <path d="M200.9414,302.5622 L211.9967,302.5618 L209.1621,305.3965 L200.9414,305.3968 z" stroke="#000000" stroke-width="0.24" fill-opacity="0" />
  <path d="M200.9414,308.2318 L211.9967,308.2315 L209.1621,311.0661 L200.9414,311.0665 z" stroke="#000000" stroke-width="0.24" fill-opacity="0" />
  <path d="M211.9967,316.7354 L198.0236,316.7357 L200.8583,313.9011 L211.9967,313.9008 z" stroke="#000000" stroke-width="0.24" fill-opacity="0" />
  <path d="M197.8235,302.5622 L197.8232,316.5352 L200.6578,313.7006 L200.6581,302.5622 z" stroke="#000000" stroke-width="0.24" fill-opacity="0" />
  <path d="M180.8153,302.7629 L183.65,305.5976 L183.65,307.9483 L180.8153,307.9483 z" stroke="#000000" stroke-width="0.24" fill-opacity="0" />
  <path d="M194.9888,302.5627 L181.0158,302.5625 L183.8504,305.3971 L194.9888,305.3974 z" stroke="#000000" stroke-width="0.24" fill-opacity="0" />
  <path d="M194.9888,308.4319 L192.1542,311.2665 L192.1542,313.6173 L194.9888,313.6173 z" stroke="#000000" stroke-width="0.24" fill-opacity="0" />
  <path d="M180.8153,308.2318 L194.7884,308.2315 L191.9538,311.0661 L180.8153,311.0664 z" stroke="#000000" stroke-width="0.24" fill-opacity="0" />
  <path d="M194.9888,316.7354 L180.8156,316.7356 L183.6503,313.901 L194.9888,313.9008 z" stroke="#000000" stroke-width="0.24" fill-opacity="0" />
  <path d="M213.4135,296.8929 L219.0827,291.2236 L224.1851,291.2236 L224.1851,296.8929 z" stroke="#000000" stroke-width="0.24" fill-opacity="0" />
  <path d="M213.4135,285.5543 L219.0827,279.885 L224.1851,279.885 L224.1851,285.5543 z" stroke="#000000" stroke-width="0.24" fill-opacity="0" />
  <path d="M202.0749,274.7827 L202.0749,296.8929 L207.7442,291.2236 L207.7442,274.7827 z" stroke="#000000" stroke-width="0.24" fill-opacity="0" />
  <path d="M230.4213,296.8929 L230.4303,268.9384 L224.761,274.6077 L224.752,296.8929 z" stroke="#000000" stroke-width="0.24" fill-opacity="0" />
  <path d="M202.0749,268.5464 L230.021,268.5459 L224.3517,274.2151 L202.0749,274.2157 z" stroke="#000000" stroke-width="0.24" fill-opacity="0" />
</svg>