o 
usemtl degenerate-sliver-thin-slab-material
v -25 -25 -0.0005000000237487257
v -25 -25 0.0005000000237487257
v -25 25 -0.0005000000237487257
v -25 25 0.0005000000237487257
v 25 -25 -0.0005000000237487257
v 25 -25 0.0005000000237487257
v 25 25 -0.0005000000237487257
v 25 25 0.0005000000237487257
vn -0.000039999998949515014 -0.000019999999474757507 -0.9999999990000001
vn -0.000019999999474757507 -0.000039999998949515014 0.9999999990000001
vn -0.00000999999974487875 0.0000199999994897575 -0.99999999975
vn -0.0000199999994897575 0.00000999999974487875 0.99999999975
vn 0.00000999999974487875 -0.0000199999994897575 -0.99999999975
vn 0.0000199999994897575 -0.00000999999974487875 0.99999999975
vn 0.000039999998949515014 0.000019999999474757507 -0.9999999990000001
vn 0.000019999999474757507 0.000039999998949515014 0.9999999990000001
f 2//2 1//1 5//5
f 3//3 5//5 1//1
f 2//2 4//4 1//1
f 4//4 2//2 6//6
f 4//4 3//3 1//1
f 4//4 8//8 3//3
f 6//6 5//5 7//7
f 6//6 2//2 5//5
f 7//7 5//5 3//3
f 8//8 7//7 3//3
f 8//8 4//4 6//6
f 8//8 6//6 7//7
