ply
format ascii 1.0
element vertex 8
property float x
property float y
property float z
property float nx
property float ny
property float nz
element face 12
property list uchar int vertex_index
end_header
-25 -25 -0.0005000000237487257 -0.000039999998949515014 -0.000019999999474757507 -0.9999999990000001
-25 -25 0.0005000000237487257 -0.000019999999474757507 -0.000039999998949515014 0.9999999990000001
-25 25 -0.0005000000237487257 -0.00000999999974487875 0.0000199999994897575 -0.99999999975
-25 25 0.0005000000237487257 -0.0000199999994897575 0.00000999999974487875 0.99999999975
25 -25 -0.0005000000237487257 0.00000999999974487875 -0.0000199999994897575 -0.99999999975
25 -25 0.0005000000237487257 0.0000199999994897575 -0.00000999999974487875 0.99999999975
25 25 -0.0005000000237487257 0.000039999998949515014 0.000019999999474757507 -0.9999999990000001
25 25 0.0005000000237487257 0.000019999999474757507 0.000039999998949515014 0.9999999990000001
3 1 0 4
3 2 4 0
3 1 3 0
3 3 1 5
3 3 2 0
3 3 7 2
3 5 4 6
3 5 1 4
3 6 4 2
3 7 6 2
3 7 3 5
3 7 5 6

