o 
usemtl degenerate-hairline-thickness-material
v 0 0 0
v 0 0 9.999999974752427e-7
v 0 1 0
v 0 1 9.999999974752427e-7
v 2 0 0
v 2 0 9.999999974752427e-7
v 2 1 0
v 2 1 9.999999974752427e-7
vn -9.999999974742428e-7 -9.999999974742428e-7 -0.9999999999990001
vn -4.999999987365589e-7 -0.0000019999999949462354 0.999999999997875
vn -2.499999993686779e-7 9.999999974747116e-7 -0.9999999999994689
vn -4.999999987374963e-7 4.999999987374963e-7 0.99999999999975
vn 2.499999993686779e-7 -9.999999974747116e-7 -0.9999999999994689
vn 4.999999987374963e-7 -4.999999987374963e-7 0.99999999999975
vn 9.999999974742428e-7 9.999999974742428e-7 -0.9999999999990001
vn 4.999999987365589e-7 0.0000019999999949462354 0.999999999997875
f 2//2 1//1 5//5
f 3//3 5//5 1//1
f 2//2 4//4 1//1
f 4//4 2//2 6//6
f 4//4 3//3 1//1
f 4//4 8//8 3//3
f 6//6 5//5 7//7
f 6//6 2//2 5//5
f 7//7 5//5 3//3
f 8//8 7//7 3//3
f 8//8 4//4 6//6
f 8//8 6//6 7//7
