ISO-10303-21;
HEADER;
FILE_DESCRIPTION(('Open CASCADE Model'),'2;1');
FILE_NAME('Open CASCADE Shape Model','1970-01-01T00:00:00',('Author'),(
    'Open CASCADE'),'Open CASCADE STEP processor 8.0','Open CASCADE 8.0'
  ,'Unknown');
FILE_SCHEMA((
'AP242_MANAGED_MODEL_BASED_3D_ENGINEERING_MIM_LF {1 0 10303 442 1 1 4 }'
    ));
ENDSEC;
DATA;
#1 = APPLICATION_PROTOCOL_DEFINITION('international standard',
  'ap242_managed_model_based_3d_engineering',2013,#2);
#2 = APPLICATION_CONTEXT('Managed model based 3d engineering');
#3 = SHAPE_DEFINITION_REPRESENTATION(#4,#10);
#4 = PRODUCT_DEFINITION_SHAPE('','',#5);
#5 = PRODUCT_DEFINITION('design','',#6,#9);
#6 = PRODUCT_DEFINITION_FORMATION('','',#7);
#7 = PRODUCT('Open CASCADE STEP translator 8.0',
  'Open CASCADE STEP translator 8.0','',(#8));
#8 = PRODUCT_CONTEXT('',#2,'mechanical');
#9 = PRODUCT_DEFINITION_CONTEXT('part definition',#2,'design');
#10 = MANIFOLD_SURFACE_SHAPE_REPRESENTATION('',(#11,#15),#102);
#11 = AXIS2_PLACEMENT_3D('',#12,#13,#14);
#12 = CARTESIAN_POINT('',(0.,0.,0.));
#13 = DIRECTION('',(0.,0.,1.));
#14 = DIRECTION('',(1.,0.,-0.));
#15 = SHELL_BASED_SURFACE_MODEL('',(#16));
#16 = OPEN_SHELL('',(#17));
#17 = ADVANCED_FACE('',(#18),#34,.T.);
#18 = FACE_BOUND('',#19,.F.);
#19 = EDGE_LOOP('',(#20,#59,#74,#89));
#20 = ORIENTED_EDGE('',*,*,#21,.T.);
#21 = EDGE_CURVE('',#22,#24,#26,.T.);
#22 = VERTEX_POINT('',#23);
#23 = CARTESIAN_POINT('',(0.,0.,0.));
#24 = VERTEX_POINT('',#25);
#25 = CARTESIAN_POINT('',(10.,0.,0.));
#26 = SURFACE_CURVE('',#27,(#33),.PCURVE_S1.);
#27 = B_SPLINE_CURVE_WITH_KNOTS('',4,(#28,#29,#30,#31,#32),
  .UNSPECIFIED.,.F.,.F.,(5,5),(0.,1.),.PIECEWISE_BEZIER_KNOTS.);
#28 = CARTESIAN_POINT('',(0.,0.,0.));
#29 = CARTESIAN_POINT('',(1.281658500849,-8.609066400847,0.));
#30 = CARTESIAN_POINT('',(5.,6.145421867796,0.));
#31 = CARTESIAN_POINT('',(8.718341499151,-8.609066400847,0.));
#32 = CARTESIAN_POINT('',(10.,0.,0.));
#33 = PCURVE('',#34,#51);
#34 = B_SPLINE_SURFACE_WITH_KNOTS('',3,3,(
    (#35,#36,#37,#38)
    ,(#39,#40,#41,#42)
    ,(#43,#44,#45,#46)
    ,(#47,#48,#49,#50
    )),.UNSPECIFIED.,.F.,.F.,.F.,(4,4),(4,4),(-7.978704760205,
    6.105059337575),(-5.5,5.5),.PIECEWISE_BEZIER_KNOTS.);
#35 = CARTESIAN_POINT('',(-0.5,-3.528758703455,0.));
#36 = CARTESIAN_POINT('',(3.166666666667,-3.528758703453,0.));
#37 = CARTESIAN_POINT('',(6.833333333334,-3.528758703459,0.));
#38 = CARTESIAN_POINT('',(10.5,-3.528758703452,0.));
#39 = CARTESIAN_POINT('',(-0.5,1.165829329139,0.));
#40 = CARTESIAN_POINT('',(3.166666666667,1.16582932914,0.));
#41 = CARTESIAN_POINT('',(6.833333333334,1.165829329129,0.));
#42 = CARTESIAN_POINT('',(10.5,1.165829329138,0.));
#43 = CARTESIAN_POINT('',(-0.5,5.860417361732,0.));
#44 = CARTESIAN_POINT('',(3.166666666667,5.860417361732,0.));
#45 = CARTESIAN_POINT('',(6.833333333334,5.860417361729,0.));
#46 = CARTESIAN_POINT('',(10.5,5.860417361732,0.));
#47 = CARTESIAN_POINT('',(-0.5,10.555005394325,0.));
#48 = CARTESIAN_POINT('',(3.166666666667,10.555005394325,0.));
#49 = CARTESIAN_POINT('',(6.833333333333,10.555005394325,0.));
#50 = CARTESIAN_POINT('',(10.5,10.555005394325,0.));
#51 = DEFINITIONAL_REPRESENTATION('',(#52),#58);
#52 = B_SPLINE_CURVE_WITH_KNOTS('',4,(#53,#54,#55,#56,#57),
  .UNSPECIFIED.,.F.,.F.,(5,5),(0.,1.),.PIECEWISE_BEZIER_KNOTS.);
#53 = CARTESIAN_POINT('',(-4.44994605675,-5.));
#54 = CARTESIAN_POINT('',(-13.05901245759,-3.718341499151));
#55 = CARTESIAN_POINT('',(1.695475811046,1.478817068801E-13));
#56 = CARTESIAN_POINT('',(-13.05901245759,3.718341499151));
#57 = CARTESIAN_POINT('',(-4.44994605675,5.));
#58 = ( GEOMETRIC_REPRESENTATION_CONTEXT(2) 
PARAMETRIC_REPRESENTATION_CONTEXT() REPRESENTATION_CONTEXT('2D SPACE',''
  ) );
#59 = ORIENTED_EDGE('',*,*,#60,.T.);
#60 = EDGE_CURVE('',#24,#61,#63,.T.);
#61 = VERTEX_POINT('',#62);
#62 = CARTESIAN_POINT('',(10.,10.,0.));
#63 = SURFACE_CURVE('',#64,(#68),.PCURVE_S1.);
#64 = LINE('',#65,#66);
#65 = CARTESIAN_POINT('',(10.,0.,0.));
#66 = VECTOR('',#67,1.);
#67 = DIRECTION('',(0.,1.,0.));
#68 = PCURVE('',#34,#69);
#69 = DEFINITIONAL_REPRESENTATION('',(#70),#73);
#70 = B_SPLINE_CURVE_WITH_KNOTS('',1,(#71,#72),.UNSPECIFIED.,.F.,.F.,(2,
    2),(0.,10.),.PIECEWISE_BEZIER_KNOTS.);
#71 = CARTESIAN_POINT('',(-4.44994605675,5.));
#72 = CARTESIAN_POINT('',(5.55005394325,5.));
#73 = ( GEOMETRIC_REPRESENTATION_CONTEXT(2) 
PARAMETRIC_REPRESENTATION_CONTEXT() REPRESENTATION_CONTEXT('2D SPACE',''
  ) );
#74 = ORIENTED_EDGE('',*,*,#75,.T.);
#75 = EDGE_CURVE('',#61,#76,#78,.T.);
#76 = VERTEX_POINT('',#77);
#77 = CARTESIAN_POINT('',(0.,10.,0.));
#78 = SURFACE_CURVE('',#79,(#83),.PCURVE_S1.);
#79 = LINE('',#80,#81);
#80 = CARTESIAN_POINT('',(10.,10.,0.));
#81 = VECTOR('',#82,1.);
#82 = DIRECTION('',(-1.,0.,0.));
#83 = PCURVE('',#34,#84);
#84 = DEFINITIONAL_REPRESENTATION('',(#85),#88);
#85 = B_SPLINE_CURVE_WITH_KNOTS('',1,(#86,#87),.UNSPECIFIED.,.F.,.F.,(2,
    2),(0.,10.),.PIECEWISE_BEZIER_KNOTS.);
#86 = CARTESIAN_POINT('',(5.55005394325,5.));
#87 = CARTESIAN_POINT('',(5.55005394325,-5.));
#88 = ( GEOMETRIC_REPRESENTATION_CONTEXT(2) 
PARAMETRIC_REPRESENTATION_CONTEXT() REPRESENTATION_CONTEXT('2D SPACE',''
  ) );
#89 = ORIENTED_EDGE('',*,*,#90,.T.);
#90 = EDGE_CURVE('',#76,#22,#91,.T.);
#91 = SURFACE_CURVE('',#92,(#96),.PCURVE_S1.);
#92 = LINE('',#93,#94);
#93 = CARTESIAN_POINT('',(0.,10.,0.));
#94 = VECTOR('',#95,1.);
#95 = DIRECTION('',(0.,-1.,0.));
#96 = PCURVE('',#34,#97);
#97 = DEFINITIONAL_REPRESENTATION('',(#98),#101);
#98 = B_SPLINE_CURVE_WITH_KNOTS('',1,(#99,#100),.UNSPECIFIED.,.F.,.F.,(2
    ,2),(0.,10.),.PIECEWISE_BEZIER_KNOTS.);
#99 = CARTESIAN_POINT('',(5.55005394325,-5.));
#100 = CARTESIAN_POINT('',(-4.44994605675,-5.));
#101 = ( GEOMETRIC_REPRESENTATION_CONTEXT(2) 
PARAMETRIC_REPRESENTATION_CONTEXT() REPRESENTATION_CONTEXT('2D SPACE',''
  ) );
#102 = ( GEOMETRIC_REPRESENTATION_CONTEXT(3) 
GLOBAL_UNCERTAINTY_ASSIGNED_CONTEXT((#106)) GLOBAL_UNIT_ASSIGNED_CONTEXT
((#103,#104,#105)) REPRESENTATION_CONTEXT('Context #1',
  '3D Context with UNIT and UNCERTAINTY') );
#103 = ( LENGTH_UNIT() NAMED_UNIT(*) SI_UNIT(.MILLI.,.METRE.) );
#104 = ( NAMED_UNIT(*) PLANE_ANGLE_UNIT() SI_UNIT($,.RADIAN.) );
#105 = ( NAMED_UNIT(*) SI_UNIT($,.STERADIAN.) SOLID_ANGLE_UNIT() );
#106 = UNCERTAINTY_MEASURE_WITH_UNIT(LENGTH_MEASURE(1.E-07),#103,
  'distance_accuracy_value','confusion accuracy');
#107 = PRODUCT_RELATED_PRODUCT_CATEGORY('part',$,(#7));
ENDSEC;
END-ISO-10303-21;
