ISO-10303-21;
HEADER;
FILE_DESCRIPTION(('Open CASCADE Model'),'2;1');
FILE_NAME('Open CASCADE Shape Model','1970-01-01T00:00:00',('Author'),(
    'Open CASCADE'),'Open CASCADE STEP processor 8.0','Open CASCADE 8.0'
  ,'Unknown');
FILE_SCHEMA((
'AP242_MANAGED_MODEL_BASED_3D_ENGINEERING_MIM_LF {1 0 10303 442 1 1 4 }'
    ));
ENDSEC;
DATA;
#1 = APPLICATION_PROTOCOL_DEFINITION('international standard',
  'ap242_managed_model_based_3d_engineering',2013,#2);
#2 = APPLICATION_CONTEXT('Managed model based 3d engineering');
#3 = SHAPE_DEFINITION_REPRESENTATION(#4,#10);
#4 = PRODUCT_DEFINITION_SHAPE('','',#5);
#5 = PRODUCT_DEFINITION('design','',#6,#9);
#6 = PRODUCT_DEFINITION_FORMATION('','',#7);
#7 = PRODUCT('Open CASCADE STEP translator 8.0',
  'Open CASCADE STEP translator 8.0','',(#8));
#8 = PRODUCT_CONTEXT('',#2,'mechanical');
#9 = PRODUCT_DEFINITION_CONTEXT('part definition',#2,'design');
#10 = MANIFOLD_SURFACE_SHAPE_REPRESENTATION('',(#11,#15),#161);
#11 = AXIS2_PLACEMENT_3D('',#12,#13,#14);
#12 = CARTESIAN_POINT('',(0.,0.,0.));
#13 = DIRECTION('',(0.,0.,1.));
#14 = DIRECTION('',(1.,0.,-0.));
#15 = SHELL_BASED_SURFACE_MODEL('',(#16));
#16 = OPEN_SHELL('',(#17));
#17 = ADVANCED_FACE('',(#18),#33,.T.);
#18 = FACE_BOUND('',#19,.F.);
#19 = EDGE_LOOP('',(#20,#104,#121,#146));
#20 = ORIENTED_EDGE('',*,*,#21,.T.);
#21 = EDGE_CURVE('',#22,#24,#26,.T.);
#22 = VERTEX_POINT('',#23);
#23 = CARTESIAN_POINT('',(-4.440892116083E-16,-4.440892116083E-16,0.));
#24 = VERTEX_POINT('',#25);
#25 = CARTESIAN_POINT('',(10.,-4.440892098501E-16,0.));
#26 = SURFACE_CURVE('',#27,(#32),.PCURVE_S1.);
#27 = CIRCLE('',#28,7.25);
#28 = AXIS2_PLACEMENT_3D('',#29,#30,#31);
#29 = CARTESIAN_POINT('',(5.,5.25,0.));
#30 = DIRECTION('',(0.,0.,1.));
#31 = DIRECTION('',(-0.689655172414,-0.724137931034,0.));
#32 = PCURVE('',#33,#90);
#33 = B_SPLINE_SURFACE_WITH_KNOTS('',6,7,(
    (#34,#35,#36,#37,#38,#39,#40,#41)
    ,(#42,#43,#44,#45,#46,#47,#48,#49)
    ,(#50,#51,#52,#53,#54,#55,#56,#57)
    ,(#58,#59,#60,#61,#62,#63,#64,#65)
    ,(#66,#67,#68,#69,#70,#71,#72,#73)
    ,(#74,#75,#76,#77,#78,#79,#80,#81)
    ,(#82,#83,#84,#85,#86,#87,#88,#89
  )),.UNSPECIFIED.,.F.,.F.,.F.,(7,7),(8,8),(-7.337818908669,
    5.862180754669),(-5.5,5.5),.PIECEWISE_BEZIER_KNOTS.);
#34 = CARTESIAN_POINT('',(-0.499998710744,-2.66707377453,0.));
#35 = CARTESIAN_POINT('',(1.071434862174,-2.667073929965,0.));
#36 = CARTESIAN_POINT('',(2.642840226273,-2.667073870097,0.));
#37 = CARTESIAN_POINT('',(4.214274343022,-2.667073791116,0.));
#38 = CARTESIAN_POINT('',(5.785725656978,-2.667073791116,0.));
#39 = CARTESIAN_POINT('',(7.357159773727,-2.667073870097,0.));
#40 = CARTESIAN_POINT('',(8.928565137826,-2.667073929965,0.));
#41 = CARTESIAN_POINT('',(10.499998710744,-2.66707377453,0.));
#42 = CARTESIAN_POINT('',(-0.49999453824,-0.467074813707,0.));
#43 = CARTESIAN_POINT('',(1.071443425107,-0.467075324647,0.));
#44 = CARTESIAN_POINT('',(2.642906460986,-0.467074915648,0.));
#45 = CARTESIAN_POINT('',(4.214148672782,-0.467074192751,0.));
#46 = CARTESIAN_POINT('',(5.785851327219,-0.467074192752,0.));
#47 = CARTESIAN_POINT('',(7.357093539013,-0.467074915648,0.));
#48 = CARTESIAN_POINT('',(8.928556574894,-0.467075324647,0.));
#49 = CARTESIAN_POINT('',(10.49999453824,-0.467074813707,0.));
#50 = CARTESIAN_POINT('',(-0.499993680324,1.732924831556,0.));
#51 = CARTESIAN_POINT('',(1.071394479816,1.732926887225,0.));
#52 = CARTESIAN_POINT('',(2.642924813718,1.732911268274,0.));
#53 = CARTESIAN_POINT('',(4.214413250396,1.732932457613,0.));
#54 = CARTESIAN_POINT('',(5.785586749604,1.732932457614,0.));
#55 = CARTESIAN_POINT('',(7.357075186282,1.732911268273,0.));
#56 = CARTESIAN_POINT('',(8.928605520185,1.732926887225,0.));
#57 = CARTESIAN_POINT('',(10.499993680324,1.732924831556,0.));
#58 = CARTESIAN_POINT('',(-0.49999496872,3.93292492493,0.));
#59 = CARTESIAN_POINT('',(1.071433663195,3.932925552223,0.));
#60 = CARTESIAN_POINT('',(2.642562828714,3.932939133004,0.));
#61 = CARTESIAN_POINT('',(4.214658723302,3.932919890715,0.));
#62 = CARTESIAN_POINT('',(5.785341276698,3.932919890714,0.));
#63 = CARTESIAN_POINT('',(7.357437171287,3.932939133004,0.));
#64 = CARTESIAN_POINT('',(8.928566336805,3.932925552222,0.));
#65 = CARTESIAN_POINT('',(10.49999496872,3.93292492493,0.));
#66 = CARTESIAN_POINT('',(-0.49999723515,6.132925230087,0.));
#67 = CARTESIAN_POINT('',(1.071419166723,6.132925901079,0.));
#68 = CARTESIAN_POINT('',(2.642937410614,6.132921108225,0.));
#69 = CARTESIAN_POINT('',(4.214177652133,6.132929159104,0.));
#70 = CARTESIAN_POINT('',(5.785822347867,6.132929159105,0.));
#71 = CARTESIAN_POINT('',(7.357062589386,6.132921108224,0.));
#72 = CARTESIAN_POINT('',(8.928580833277,6.13292590108,0.));
#73 = CARTESIAN_POINT('',(10.49999723515,6.132925230088,0.));
#74 = CARTESIAN_POINT('',(-0.499999311336,8.332925510702,0.));
#75 = CARTESIAN_POINT('',(1.071426836004,8.332925716443,0.));
#76 = CARTESIAN_POINT('',(2.64285521067,8.332925853604,0.));
#77 = CARTESIAN_POINT('',(4.214284921736,8.332925922185,0.));
#78 = CARTESIAN_POINT('',(5.785715078264,8.332925922184,0.));
#79 = CARTESIAN_POINT('',(7.35714478933,8.332925853605,0.));
#80 = CARTESIAN_POINT('',(8.928573163996,8.332925716443,0.));
#81 = CARTESIAN_POINT('',(10.499999311336,8.332925510702,0.));
#82 = CARTESIAN_POINT('',(-0.500000029,10.532925530445,0.));
#83 = CARTESIAN_POINT('',(1.071428076702,10.532925548671,0.));
#84 = CARTESIAN_POINT('',(2.642856656417,10.53292556082,0.));
#85 = CARTESIAN_POINT('',(4.214285520538,10.532925566896,0.));
#86 = CARTESIAN_POINT('',(5.785714479462,10.532925566895,0.));
#87 = CARTESIAN_POINT('',(7.357143343583,10.532925560821,0.));
#88 = CARTESIAN_POINT('',(8.928571923298,10.53292554867,0.));
#89 = CARTESIAN_POINT('',(10.500000029,10.532925530445,0.));
#90 = DEFINITIONAL_REPRESENTATION('',(#91),#103);
#91 = B_SPLINE_CURVE_WITH_KNOTS('',10,(#92,#93,#94,#95,#96,#97,#98,#99,
    #100,#101,#102),.UNSPECIFIED.,.F.,.F.,(11,11),(0.,1.522025508449),
  .PIECEWISE_BEZIER_KNOTS.);
#92 = CARTESIAN_POINT('',(-4.670744768483,-5.));
#93 = CARTESIAN_POINT('',(-5.431757684287,-4.200936438406));
#94 = CARTESIAN_POINT('',(-6.057634509243,-3.273225884647));
#95 = CARTESIAN_POINT('',(-6.523960478376,-2.242352410515));
#96 = CARTESIAN_POINT('',(-6.811483542294,-1.139755444873));
#97 = CARTESIAN_POINT('',(-6.909147338561,4.338751580235E-13));
#98 = CARTESIAN_POINT('',(-6.811483542295,1.139755444872));
#99 = CARTESIAN_POINT('',(-6.523960478375,2.242352410515));
#100 = CARTESIAN_POINT('',(-6.057634509243,3.273225884647));
#101 = CARTESIAN_POINT('',(-5.431757684287,4.200936438406));
#102 = CARTESIAN_POINT('',(-4.670744768483,5.));
#103 = ( GEOMETRIC_REPRESENTATION_CONTEXT(2) 
PARAMETRIC_REPRESENTATION_CONTEXT() REPRESENTATION_CONTEXT('2D SPACE',''
  ) );
#104 = ORIENTED_EDGE('',*,*,#105,.T.);
#105 = EDGE_CURVE('',#24,#106,#108,.T.);
#106 = VERTEX_POINT('',#107);
#107 = CARTESIAN_POINT('',(10.,10.,0.));
#108 = SURFACE_CURVE('',#109,(#113),.PCURVE_S1.);
#109 = LINE('',#110,#111);
#110 = CARTESIAN_POINT('',(10.,0.,0.));
#111 = VECTOR('',#112,1.);
#112 = DIRECTION('',(0.,1.,0.));
#113 = PCURVE('',#33,#114);
#114 = DEFINITIONAL_REPRESENTATION('',(#115),#120);
#115 = B_SPLINE_CURVE_WITH_KNOTS('',3,(#116,#117,#118,#119),
  .UNSPECIFIED.,.F.,.F.,(4,4),(0.,10.),.PIECEWISE_BEZIER_KNOTS.);
#116 = CARTESIAN_POINT('',(-4.670744768483,5.));
#117 = CARTESIAN_POINT('',(-1.337411048218,5.));
#118 = CARTESIAN_POINT('',(1.995922012576,5.));
#119 = CARTESIAN_POINT('',(5.329255231517,5.));
#120 = ( GEOMETRIC_REPRESENTATION_CONTEXT(2) 
PARAMETRIC_REPRESENTATION_CONTEXT() REPRESENTATION_CONTEXT('2D SPACE',''
  ) );
#121 = ORIENTED_EDGE('',*,*,#122,.T.);
#122 = EDGE_CURVE('',#106,#123,#125,.T.);
#123 = VERTEX_POINT('',#124);
#124 = CARTESIAN_POINT('',(0.,10.,0.));
#125 = SURFACE_CURVE('',#126,(#130),.PCURVE_S1.);
#126 = LINE('',#127,#128);
#127 = CARTESIAN_POINT('',(10.,10.,0.));
#128 = VECTOR('',#129,1.);
#129 = DIRECTION('',(-1.,0.,0.));
#130 = PCURVE('',#33,#131);
#131 = DEFINITIONAL_REPRESENTATION('',(#132),#145);
#132 = B_SPLINE_CURVE_WITH_KNOTS('',11,(#133,#134,#135,#136,#137,#138,
    #139,#140,#141,#142,#143,#144),.UNSPECIFIED.,.F.,.F.,(12,12),(0.,10.
    ),.PIECEWISE_BEZIER_KNOTS.);
#133 = CARTESIAN_POINT('',(5.329255231517,5.));
#134 = CARTESIAN_POINT('',(5.329255231517,4.090908761055));
#135 = CARTESIAN_POINT('',(5.329255231518,3.181816622374));
#136 = CARTESIAN_POINT('',(5.329255231515,2.272731298384));
#137 = CARTESIAN_POINT('',(5.32925523152,1.363626700761));
#138 = CARTESIAN_POINT('',(5.329255231513,0.454558319582));
#139 = CARTESIAN_POINT('',(5.329255231521,-0.454558319583));
#140 = CARTESIAN_POINT('',(5.329255231514,-1.363626700761));
#141 = CARTESIAN_POINT('',(5.329255231519,-2.272731298384));
#142 = CARTESIAN_POINT('',(5.329255231516,-3.181816622374));
#143 = CARTESIAN_POINT('',(5.329255231517,-4.090908761055));
#144 = CARTESIAN_POINT('',(5.329255231517,-5.));
#145 = ( GEOMETRIC_REPRESENTATION_CONTEXT(2) 
PARAMETRIC_REPRESENTATION_CONTEXT() REPRESENTATION_CONTEXT('2D SPACE',''
  ) );
#146 = ORIENTED_EDGE('',*,*,#147,.T.);
#147 = EDGE_CURVE('',#123,#22,#148,.T.);
#148 = SURFACE_CURVE('',#149,(#153),.PCURVE_S1.);
#149 = LINE('',#150,#151);
#150 = CARTESIAN_POINT('',(0.,10.,0.));
#151 = VECTOR('',#152,1.);
#152 = DIRECTION('',(0.,-1.,0.));
#153 = PCURVE('',#33,#154);
#154 = DEFINITIONAL_REPRESENTATION('',(#155),#160);
#155 = B_SPLINE_CURVE_WITH_KNOTS('',3,(#156,#157,#158,#159),
  .UNSPECIFIED.,.F.,.F.,(4,4),(0.,10.),.PIECEWISE_BEZIER_KNOTS.);
#156 = CARTESIAN_POINT('',(5.329255231517,-5.));
#157 = CARTESIAN_POINT('',(1.995922012576,-5.));
#158 = CARTESIAN_POINT('',(-1.337411048218,-5.));
#159 = CARTESIAN_POINT('',(-4.670744768483,-5.));
#160 = ( GEOMETRIC_REPRESENTATION_CONTEXT(2) 
PARAMETRIC_REPRESENTATION_CONTEXT() REPRESENTATION_CONTEXT('2D SPACE',''
  ) );
#161 = ( GEOMETRIC_REPRESENTATION_CONTEXT(3) 
GLOBAL_UNCERTAINTY_ASSIGNED_CONTEXT((#165)) GLOBAL_UNIT_ASSIGNED_CONTEXT
((#162,#163,#164)) REPRESENTATION_CONTEXT('Context #1',
  '3D Context with UNIT and UNCERTAINTY') );
#162 = ( LENGTH_UNIT() NAMED_UNIT(*) SI_UNIT(.MILLI.,.METRE.) );
#163 = ( NAMED_UNIT(*) PLANE_ANGLE_UNIT() SI_UNIT($,.RADIAN.) );
#164 = ( NAMED_UNIT(*) SI_UNIT($,.STERADIAN.) SOLID_ANGLE_UNIT() );
#165 = UNCERTAINTY_MEASURE_WITH_UNIT(LENGTH_MEASURE(2.E-06),#162,
  'distance_accuracy_value','confusion accuracy');
#166 = PRODUCT_RELATED_PRODUCT_CATEGORY('part',$,(#7));
ENDSEC;
END-ISO-10303-21;
