o 
usemtl degenerate-thin-fin-material
v -25 -25 -2.5
v -25 -25 2.5
v -20 -0.0010000000474974513 2.5
v -20 -0.0010000000474974513 17.5
v -20 0.0010000000474974513 2.5
v -25 25 -2.5
v -25 25 2.5
v -20 0.0010000000474974513 17.5
v 25 -25 -2.5
v 25 -25 2.5
v 20 -0.0010000000474974513 2.5
v 20 -0.0010000000474974513 17.5
v 20 0.0010000000474974513 2.5
v 25 25 -2.5
v 25 25 2.5
v 20 0.0010000000474974513 17.5
vn -0.19518001742802313 -0.09759000871401156 -0.9759000722389541
vn -0.1561774210264402 -0.3123548420528804 0.9370395220094241
vn -0.00002576712177002107 -0.2576712071937279 0.9662326574481854
vn -0.000025000001124068213 -0.9999999974652773 0.0000666666745148203
vn -0.000017313512786373647 0.6925404895688647 0.7213790057992813
vn -0.04969040023585516 0.09938080047171031 -0.9938079898159417
vn -0.1951867215257169 0.09759336076285845 0.9758983961842816
vn -0.00009999999937869622 0.9999999594444415 0.0002666666747111336
vn 0.04969040023585516 -0.09938080047171031 -0.9938079898159417
vn 0.1951867215257169 -0.09759336076285845 0.9758983961842816
vn 0.000017313512786373647 -0.6925404895688647 0.7213790057992813
vn 0.00009999999937869622 -0.9999999594444415 0.0002666666747111336
vn 0.00002576712177002107 0.2576712071937279 0.9662326574481854
vn 0.19518001742802313 0.09759000871401156 -0.9759000722389541
vn 0.1561774210264402 0.3123548420528804 0.9370395220094241
vn 0.000025000001124068213 0.9999999974652773 0.0000666666745148203
f 1//1 2//2 7//7
f 2//2 3//3 5//5
f 1//1 9//9 2//2
f 2//2 10//10 3//3
f 1//1 6//6 9//9
f 1//1 7//7 6//6
f 2//2 5//5 7//7
f 7//7 5//5 13//13
f 6//6 7//7 15//15
f 2//2 9//9 10//10
f 10//10 11//11 3//3
f 9//9 14//14 10//10
f 10//10 15//15 11//11
f 6//6 14//14 9//9
f 6//6 15//15 14//14
f 7//7 13//13 15//15
f 10//10 14//14 15//15
f 15//15 13//13 11//11
f 4//4 8//8 3//3
f 4//4 3//3 11//11
f 4//4 12//12 8//8
f 8//8 5//5 3//3
f 8//8 16//16 5//5
f 4//4 11//11 12//12
f 12//12 11//11 13//13
f 16//16 13//13 5//5
f 8//8 12//12 16//16
f 12//12 13//13 16//16
