solid exported
	facet normal 0 -1 0
		outer loop
			vertex -25 -25 2.5
			vertex -25 -25 -2.5
			vertex 25 -25 -2.5
		endloop
	endfacet
	facet normal 0 0 -1
		outer loop
			vertex -25 25 -2.5
			vertex 25 -25 -2.5
			vertex -25 -25 -2.5
		endloop
	endfacet
	facet normal -1 0 0
		outer loop
			vertex -25 -25 2.5
			vertex -25 25 2.5
			vertex -25 -25 -2.5
		endloop
	endfacet
	facet normal 0 0 1
		outer loop
			vertex -25 25 2.5
			vertex -25 -25 2.5
			vertex 25 -25 2.5
		endloop
	endfacet
	facet normal -1 0 0
		outer loop
			vertex -25 25 2.5
			vertex -25 25 -2.5
			vertex -25 -25 -2.5
		endloop
	endfacet
	facet normal 0 1 0
		outer loop
			vertex -25 25 2.5
			vertex 25 25 2.5
			vertex -25 25 -2.5
		endloop
	endfacet
	facet normal 1 0 0
		outer loop
			vertex 25 -25 2.5
			vertex 25 -25 -2.5
			vertex 25 25 -2.5
		endloop
	endfacet
	facet normal 0 -1 0
		outer loop
			vertex 25 -25 2.5
			vertex -25 -25 2.5
			vertex 25 -25 -2.5
		endloop
	endfacet
	facet normal 0 0 -1
		outer loop
			vertex 25 25 -2.5
			vertex 25 -25 -2.5
			vertex -25 25 -2.5
		endloop
	endfacet
	facet normal 0 1 0
		outer loop
			vertex 25 25 2.5
			vertex 25 25 -2.5
			vertex -25 25 -2.5
		endloop
	endfacet
	facet normal 0 0 1
		outer loop
			vertex 25 25 2.5
			vertex -25 25 2.5
			vertex 25 -25 2.5
		endloop
	endfacet
	facet normal 1 0 0
		outer loop
			vertex 25 25 2.5
			vertex 25 -25 2.5
			vertex 25 25 -2.5
		endloop
	endfacet
endsolid exported
