o 
usemtl topology-disconnected-mixed-sizes-material
v -25 -25 -25
v 25 -25 -25
v -25 -25 25
v 25 -25 25
v -25 25 -25
v 25 25 -25
v -25 25 25
v 25 25 25
v 199.75 -0.25 -0.25
v 200.25 -0.25 -0.25
v 199.75 -0.25 0.25
v 200.25 -0.25 0.25
v 199.75 0.25 -0.25
v 200.25 0.25 -0.25
v 199.75 0.25 0.25
v 200.25 0.25 0.25
vn -0.816496580927726 -0.408248290463863 -0.408248290463863
vn 0.3333333333333333 -0.6666666666666666 -0.6666666666666666
vn -0.408248290463863 -0.816496580927726 0.408248290463863
vn 0.6666666666666666 -0.3333333333333333 0.6666666666666666
vn -0.3333333333333333 0.6666666666666666 -0.6666666666666666
vn 0.816496580927726 0.408248290463863 -0.408248290463863
vn -0.6666666666666666 0.3333333333333333 0.6666666666666666
vn 0.408248290463863 0.816496580927726 0.408248290463863
vn -0.816496580927726 -0.408248290463863 -0.408248290463863
vn 0.3333333333333333 -0.6666666666666666 -0.6666666666666666
vn -0.408248290463863 -0.816496580927726 0.408248290463863
vn 0.6666666666666666 -0.3333333333333333 0.6666666666666666
vn -0.3333333333333333 0.6666666666666666 -0.6666666666666666
vn 0.816496580927726 0.408248290463863 -0.408248290463863
vn -0.6666666666666666 0.3333333333333333 0.6666666666666666
vn 0.408248290463863 0.816496580927726 0.408248290463863
f 3//3 1//1 2//2
f 5//5 2//2 1//1
f 4//4 2//2 6//6
f 4//4 3//3 2//2
f 3//3 7//7 1//1
f 7//7 3//3 4//4
f 6//6 2//2 5//5
f 7//7 5//5 1//1
f 8//8 6//6 5//5
f 8//8 4//4 6//6
f 8//8 7//7 4//4
f 7//7 8//8 5//5
f 11//11 9//9 10//10
f 13//13 10//10 9//9
f 12//12 10//10 14//14
f 12//12 11//11 10//10
f 11//11 15//15 9//9
f 15//15 11//11 12//12
f 14//14 10//10 13//13
f 15//15 13//13 9//9
f 16//16 14//14 13//13
f 16//16 12//12 14//14
f 16//16 15//15 12//12
f 15//15 16//16 13//13
