ply
format ascii 1.0
element vertex 258
property float x
property float y
property float z
property float nx
property float ny
property float nz
element face 512
property list uchar int vertex_index
end_header
-9.221397399902344 -7.245204925537109 -2.544177770614624 -0.7642260862460699 -0.6011713204265231 -0.2335626952183188
-7.245204925537109 -9.221397399902344 -2.544177770614624 -0.6011713204265231 -0.7642260862460699 -0.2335626952183188
-7.628530025482178 -7.628530025482178 -5.254622936248779 -0.6327365707006265 -0.6327365707006265 -0.4464178134842093
-9.221397399902344 -2.544177770614624 -7.245204925537109 -0.7642260862460699 -0.2335626952183188 -0.6011713204265231
-7.628530025482178 -5.254622936248779 -7.628530025482178 -0.6327365707006265 -0.4464178134842093 -0.6327365707006265
-7.245204925537109 -2.544177770614624 -9.221397399902344 -0.6011713162419432 -0.23356272339487882 -0.7642260809265129
-9.529253959655762 -5.157195091247559 -5.157195091247559 -0.7871379215425054 -0.43612721336196425 -0.43612721336196425
-10.661372184753418 -4.906890869140625 -2.501511335372925 -0.8841507030951875 -0.40994385775769354 -0.2241061527558439
-10.661372184753418 -2.501511335372925 -4.906890869140625 -0.8841507030951875 -0.2241061527558439 -0.40994385775769354
-11.498237609863281 -2.4280166625976562 -2.4280166625976562 -0.9554945273567927 -0.20860274230126877 -0.20860274230126877
-5.254622936248779 -7.628530025482178 -7.628530025482178 -0.4464178134842093 -0.6327365707006265 -0.6327365707006265
-2.544177770614624 -9.221397399902344 -7.245204925537109 -0.23356272339487882 -0.7642260809265129 -0.6011713162419432
-2.544177770614624 -7.245204925537109 -9.221397399902344 -0.23356272339487882 -0.6011713162419432 -0.7642260809265129
-5.157195091247559 -9.529253959655762 -5.157195091247559 -0.43612721336196425 -0.7871379215425054 -0.43612721336196425
-4.906890869140625 -10.661372184753418 -2.501511335372925 -0.4099438127289217 -0.8841507298600263 -0.22410612953075992
-2.501511335372925 -10.661372184753418 -4.906890869140625 -0.2241061527558439 -0.8841507030951875 -0.40994385775769354
-2.4280166625976562 -11.498237609863281 -2.4280166625976562 -0.20860274230126877 -0.9554945273567927 -0.20860274230126877
-5.157195091247559 -5.157195091247559 -9.529253959655762 -0.43612721336196425 -0.43612721336196425 -0.7871379215425054
-4.906890869140625 -2.501511335372925 -10.661372184753418 -0.4099438127289217 -0.22410612953075992 -0.8841507298600263
-2.501511335372925 -4.906890869140625 -10.661372184753418 -0.22410612953075992 -0.4099438127289217 -0.8841507298600263
-2.4280166625976562 -2.4280166625976562 -11.498237609863281 -0.20860274230126877 -0.20860274230126877 -0.9554945273567927
-9.977635383605957 -6.666842937469482 7.347880586115415e-16 -0.8391567246013382 -0.5438896869369322 1.4337514128589503e-10
-9.221397399902344 -7.245204925537109 2.544177770614624 -0.7642260862460699 -0.6011713204265231 0.2335626952183188
-6.666842937469482 -9.977635383605957 7.347880586115415e-16 -0.5438896869369322 -0.8391567246013382 1.4337514128589503e-10
-7.245204925537109 -9.221397399902344 2.544177770614624 -0.6011713204265231 -0.7642260862460699 0.2335626952183188
-8.485280990600586 -8.485280990600586 7.347880586115415e-16 -0.7071067513842252 -0.7071068109888685 -2.4777677067132894e-9
-7.628530025482178 -7.628530025482178 5.254622936248779 -0.6327365791187357 -0.6327365791187357 0.44641778962115714
-11.086554527282715 -4.592201232910156 7.347880586115415e-16 -0.93297692446842 -0.3599361865795771 -2.174210420753465e-9
-10.661372184753418 -4.906890869140625 2.501511335372925 -0.8841507298600263 -0.4099438127289217 0.22410612953075992
-9.529253959655762 -5.157195091247559 5.157195091247559 -0.7871379113115985 -0.4361272076933555 0.43612723749567733
-11.769423484802246 -2.3410837650299072 7.347880586115415e-16 -0.9861362763500041 -0.16593747155645183 2.359148254858137e-9
-11.498237609863281 -2.4280166625976562 2.4280166625976562 -0.9554945273567927 -0.20860274230126877 0.20860274230126877
-10.661372184753418 -2.501511335372925 4.906890869140625 -0.8841507030951875 -0.2241061527558439 0.40994385775769354
-9.221397399902344 -2.544177770614624 7.245204925537109 -0.7642260889058482 -0.23356268113003856 0.6011713225188129
-7.628530025482178 -5.254622936248779 7.628530025482178 -0.6327365707006265 -0.4464178134842093 0.6327365707006265
-7.245204925537109 -2.544177770614624 9.221397399902344 -0.6011713204265231 -0.2335626952183188 0.7642260862460699
-4.592201232910156 -11.086554527282715 7.347880586115415e-16 -0.3599361865795771 -0.93297692446842 -2.174210420753465e-9
-4.906890869140625 -10.661372184753418 2.501511335372925 -0.4099438127289217 -0.8841507298600263 0.22410612953075992
-5.157195091247559 -9.529253959655762 5.157195091247559 -0.4361272076933555 -0.7871379113115985 0.43612723749567733
-2.3410837650299072 -11.769423484802246 7.347880586115415e-16 -0.16593747155645183 -0.9861362763500041 2.359148254858137e-9
-2.4280166625976562 -11.498237609863281 2.4280166625976562 -0.20860274230126877 -0.9554945273567927 0.20860274230126877
-2.501511335372925 -10.661372184753418 4.906890869140625 -0.2241061527558439 -0.8841507030951875 0.40994385775769354
-5.254622936248779 -7.628530025482178 7.628530025482178 -0.4464178134842093 -0.6327365707006265 0.6327365707006265
-2.544177770614624 -9.221397399902344 7.245204925537109 -0.23356268113003856 -0.7642260889058482 0.6011713225188129
-2.544177770614624 -7.245204925537109 9.221397399902344 -0.2335626952183188 -0.6011713204265231 0.7642260862460699
-5.157195091247559 -5.157195091247559 9.529253959655762 -0.43612721336196425 -0.43612721336196425 0.7871379215425054
-4.906890869140625 -2.501511335372925 10.661372184753418 -0.4099438127289217 -0.22410612953075992 0.8841507298600263
-2.501511335372925 -4.906890869140625 10.661372184753418 -0.22410612953075992 -0.4099438127289217 0.8841507298600263
-2.4280166625976562 -2.4280166625976562 11.498237609863281 -0.20860274230126877 -0.20860274230126877 0.9554945273567927
-9.977635383605957 7.347880586115415e-16 -6.666842937469482 -0.8391567246013382 1.4337514128589503e-10 -0.5438896869369322
-9.221397399902344 2.544177770614624 -7.245204925537109 -0.7642260862460699 0.2335626952183188 -0.6011713204265231
-6.666842937469482 7.347880586115415e-16 -9.977635383605957 -0.5438896869369322 1.4337514128589503e-10 -0.8391567246013382
-7.245204925537109 2.544177770614624 -9.221397399902344 -0.6011713204265231 0.2335626952183188 -0.7642260862460699
-8.485280990600586 7.347880586115415e-16 -8.485280990600586 -0.7071067513842252 -2.4777677067132894e-9 -0.7071068109888685
-7.628530025482178 5.254622936248779 -7.628530025482178 -0.6327365791187357 0.44641778962115714 -0.6327365791187357
-11.086554527282715 7.347880586115415e-16 -4.592201232910156 -0.9329769421984243 -2.174210101124161e-9 -0.3599361406223028
-10.661372184753418 2.501511335372925 -4.906890869140625 -0.8841507298600263 0.22410612953075992 -0.4099438127289217
-11.769423484802246 7.347880586115415e-16 -2.3410837650299072 -0.9861362763500041 1.4201134981938183e-9 -0.16593747155645183
-11.498237609863281 2.4280166625976562 -2.4280166625976562 -0.9554945243867116 0.2086027416528432 -0.20860275655400443
-9.529253959655762 5.157195091247559 -5.157195091247559 -0.7871379113115985 0.4361272076933555 -0.43612723749567733
-10.661372184753418 4.906890869140625 -2.501511335372925 -0.8841507030951875 0.40994385775769354 -0.2241061527558439
-9.221397399902344 7.245204925537109 -2.544177770614624 -0.7642260889058482 0.6011713225188129 -0.23356268113003856
-7.628530025482178 7.628530025482178 -5.254622936248779 -0.6327365707006265 0.6327365707006265 -0.4464178134842093
-7.245204925537109 9.221397399902344 -2.544177770614624 -0.6011713204265231 0.7642260862460699 -0.2335626952183188
-4.592201232910156 7.347880586115415e-16 -11.086554527282715 -0.3599361865795771 -2.174210420753465e-9 -0.93297692446842
-4.906890869140625 2.501511335372925 -10.661372184753418 -0.4099438127289217 0.22410612953075992 -0.8841507298600263
-5.157195091247559 5.157195091247559 -9.529253959655762 -0.4361272076933555 0.43612723749567733 -0.7871379113115985
-2.3410837650299072 7.347880586115415e-16 -11.769423484802246 -0.16593747155645183 2.359148254858137e-9 -0.9861362763500041
-2.4280166625976562 2.4280166625976562 -11.498237609863281 -0.20860274230126877 0.20860274230126877 -0.9554945273567927
-2.501511335372925 4.906890869140625 -10.661372184753418 -0.2241061527558439 0.40994385775769354 -0.8841507030951875
-5.254622936248779 7.628530025482178 -7.628530025482178 -0.4464178134842093 0.6327365707006265 -0.6327365707006265
-2.544177770614624 7.245204925537109 -9.221397399902344 -0.23356268113003856 0.6011713225188129 -0.7642260889058482
-2.544177770614624 9.221397399902344 -7.245204925537109 -0.2335626952183188 0.7642260862460699 -0.6011713204265231
-5.157195091247559 9.529253959655762 -5.157195091247559 -0.43612721336196425 0.7871379215425054 -0.43612721336196425
-4.906890869140625 10.661372184753418 -2.501511335372925 -0.4099438127289217 0.8841507298600263 -0.22410612953075992
-2.501511335372925 10.661372184753418 -4.906890869140625 -0.22410612953075992 0.8841507298600263 -0.4099438127289217
-2.4280166625976562 11.498237609863281 -2.4280166625976562 -0.20860274230126877 0.9554945273567927 -0.20860274230126877
-12 7.347880586115415e-16 7.347880586115415e-16 -1 9.551943680463637e-10 9.551943680463637e-10
-11.769423484802246 7.347880586115415e-16 2.3410837650299072 -0.9861362739116233 -1.2548989832171565e-9 0.16593748604730613
-11.769423484802246 2.3410837650299072 7.347880586115415e-16 -0.9861362739116233 0.16593748604730613 2.2367159604744413e-9
-11.498237609863281 2.4280166625976562 2.4280166625976562 -0.9554945214166302 0.20860275590557875 0.20860275590557875
-11.086554527282715 7.347880586115415e-16 4.592201232910156 -0.93297692446842 -5.224315553151834e-10 0.3599361865795771
-10.661372184753418 2.501511335372925 4.906890869140625 -0.8841507298600263 0.22410612953075992 0.4099438127289217
-11.086554527282715 4.592201232910156 7.347880586115415e-16 -0.93297692446842 0.3599361865795771 1.4905732570541484e-10
-10.661372184753418 4.906890869140625 2.501511335372925 -0.8841507298600263 0.4099438127289217 0.22410612953075992
-9.529253959655762 5.157195091247559 5.157195091247559 -0.7871379010806919 0.43612723182706836 0.43612723182706836
-9.977635383605957 7.347880586115415e-16 6.666842937469482 -0.8391567246013382 -7.846479369020787e-10 0.5438896869369322
-9.221397399902344 2.544177770614624 7.245204925537109 -0.7642260889058482 0.23356268113003856 0.6011713225188129
-8.485280990600586 7.347880586115415e-16 8.485280990600586 -0.7071067513842252 -2.973832661177209e-9 0.7071068109888685
-6.666842937469482 7.347880586115415e-16 9.977635383605957 -0.5438896869369322 1.4337514128589503e-10 0.8391567246013382
-7.245204925537109 2.544177770614624 9.221397399902344 -0.6011713204265231 0.2335626952183188 0.7642260862460699
-7.628530025482178 5.254622936248779 7.628530025482178 -0.6327365791187357 0.44641778962115714 0.6327365791187357
-9.977635383605957 6.666842937469482 7.347880586115415e-16 -0.8391567246013382 0.5438896869369322 -7.846479369020787e-10
-9.221397399902344 7.245204925537109 2.544177770614624 -0.7642260889058482 0.6011713225188129 0.23356268113003856
-8.485280990600586 8.485280990600586 7.347880586115415e-16 -0.7071067513842252 0.7071068109888685 -2.973832661177209e-9
-7.628530025482178 7.628530025482178 5.254622936248779 -0.6327365791187357 0.6327365791187357 0.44641778962115714
-6.666842937469482 9.977635383605957 7.347880586115415e-16 -0.5438896869369322 0.8391567246013382 1.4337514128589503e-10
-7.245204925537109 9.221397399902344 2.544177770614624 -0.6011713204265231 0.7642260862460699 0.2335626952183188
-4.592201232910156 7.347880586115415e-16 11.086554527282715 -0.3599361865795771 -2.174210420753465e-9 0.93297692446842
-4.906890869140625 2.501511335372925 10.661372184753418 -0.4099438127289217 0.22410612953075992 0.8841507298600263
-5.157195091247559 5.157195091247559 9.529253959655762 -0.4361272076933555 0.43612723749567733 0.7871379113115985
-2.3410837650299072 7.347880586115415e-16 11.769423484802246 -0.16593747155645183 2.359148254858137e-9 0.9861362763500041
-2.4280166625976562 2.4280166625976562 11.498237609863281 -0.20860274230126877 0.20860274230126877 0.9554945273567927
-2.501511335372925 4.906890869140625 10.661372184753418 -0.22410612953075992 0.4099438127289217 0.8841507298600263
-4.592201232910156 11.086554527282715 7.347880586115415e-16 -0.3599361865795771 0.93297692446842 -2.174210420753465e-9
-4.906890869140625 10.661372184753418 2.501511335372925 -0.4099438127289217 0.8841507298600263 0.22410612953075992
-5.157195091247559 9.529253959655762 5.157195091247559 -0.4361272076933555 0.7871379113115985 0.43612723749567733
-2.3410837650299072 11.769423484802246 7.347880586115415e-16 -0.16593747155645183 0.9861362763500041 2.359148254858137e-9
-2.4280166625976562 11.498237609863281 2.4280166625976562 -0.20860274230126877 0.9554945273567927 0.20860274230126877
-2.501511335372925 10.661372184753418 4.906890869140625 -0.22410612953075992 0.8841507298600263 0.4099438127289217
-5.254622936248779 7.628530025482178 7.628530025482178 -0.4464178134842093 0.6327365707006265 0.6327365707006265
-2.544177770614624 7.245204925537109 9.221397399902344 -0.2335626952183188 0.6011713204265231 0.7642260862460699
-2.544177770614624 9.221397399902344 7.245204925537109 -0.2335626952183188 0.7642260862460699 0.6011713204265231
7.347880586115415e-16 -9.977635383605957 -6.666842937469482 1.4337514128589503e-10 -0.8391567246013382 -0.5438896869369322
2.544177770614624 -9.221397399902344 -7.245204925537109 0.2335626952183188 -0.7642260862460699 -0.6011713204265231
7.347880586115415e-16 -6.666842937469482 -9.977635383605957 1.4337514128589503e-10 -0.5438896869369322 -0.8391567246013382
2.544177770614624 -7.245204925537109 -9.221397399902344 0.2335626952183188 -0.6011713204265231 -0.7642260862460699
7.347880586115415e-16 -8.485280990600586 -8.485280990600586 -2.4777677067132894e-9 -0.7071067513842252 -0.7071068109888685
5.254622936248779 -7.628530025482178 -7.628530025482178 0.44641778962115714 -0.6327365791187357 -0.6327365791187357
7.347880586115415e-16 -11.086554527282715 -4.592201232910156 -2.174210101124161e-9 -0.9329769421984243 -0.3599361406223028
2.501511335372925 -10.661372184753418 -4.906890869140625 0.22410612953075992 -0.8841507298600263 -0.4099438127289217
7.347880586115415e-16 -11.769423484802246 -2.3410837650299072 1.4201134981938183e-9 -0.9861362763500041 -0.16593747155645183
2.4280166625976562 -11.498237609863281 -2.4280166625976562 0.2086027416528432 -0.9554945243867116 -0.20860275655400443
5.157195091247559 -9.529253959655762 -5.157195091247559 0.4361272076933555 -0.7871379113115985 -0.43612723749567733
4.906890869140625 -10.661372184753418 -2.501511335372925 0.40994385775769354 -0.8841507030951875 -0.2241061527558439
7.347880586115415e-16 -4.592201232910156 -11.086554527282715 -2.174210101124161e-9 -0.3599361406223028 -0.9329769421984243
2.501511335372925 -4.906890869140625 -10.661372184753418 0.22410612953075992 -0.4099438127289217 -0.8841507298600263
7.347880586115415e-16 -2.3410837650299072 -11.769423484802246 1.4201134981938183e-9 -0.16593747155645183 -0.9861362763500041
2.4280166625976562 -2.4280166625976562 -11.498237609863281 0.2086027416528432 -0.20860275655400443 -0.9554945243867116
5.157195091247559 -5.157195091247559 -9.529253959655762 0.4361272076933555 -0.43612723749567733 -0.7871379113115985
4.906890869140625 -2.501511335372925 -10.661372184753418 0.40994385775769354 -0.2241061527558439 -0.8841507030951875
7.245204925537109 -9.221397399902344 -2.544177770614624 0.6011713225188129 -0.7642260889058482 -0.23356268113003856
7.628530025482178 -7.628530025482178 -5.254622936248779 0.6327365707006265 -0.6327365707006265 -0.4464178134842093
9.221397399902344 -7.245204925537109 -2.544177770614624 0.7642260862460699 -0.6011713204265231 -0.2335626952183188
7.628530025482178 -5.254622936248779 -7.628530025482178 0.6327365707006265 -0.4464178134842093 -0.6327365707006265
7.245204925537109 -2.544177770614624 -9.221397399902344 0.6011713225188129 -0.23356268113003856 -0.7642260889058482
9.221397399902344 -2.544177770614624 -7.245204925537109 0.7642260862460699 -0.2335626952183188 -0.6011713204265231
9.529253959655762 -5.157195091247559 -5.157195091247559 0.7871379215425054 -0.43612721336196425 -0.43612721336196425
10.661372184753418 -4.906890869140625 -2.501511335372925 0.8841507298600263 -0.4099438127289217 -0.22410612953075992
10.661372184753418 -2.501511335372925 -4.906890869140625 0.8841507298600263 -0.22410612953075992 -0.4099438127289217
11.498237609863281 -2.4280166625976562 -2.4280166625976562 0.9554945273567927 -0.20860274230126877 -0.20860274230126877
7.347880586115415e-16 -12 7.347880586115415e-16 9.551943680463637e-10 -1 9.551943680463637e-10
7.347880586115415e-16 -11.769423484802246 2.3410837650299072 -1.2548989832171565e-9 -0.9861362739116233 0.16593748604730613
2.3410837650299072 -11.769423484802246 7.347880586115415e-16 0.16593748604730613 -0.9861362739116233 2.2367159604744413e-9
2.4280166625976562 -11.498237609863281 2.4280166625976562 0.20860275590557875 -0.9554945214166302 0.20860275590557875
7.347880586115415e-16 -11.086554527282715 4.592201232910156 -5.224315553151834e-10 -0.93297692446842 0.3599361865795771
2.501511335372925 -10.661372184753418 4.906890869140625 0.22410612953075992 -0.8841507298600263 0.4099438127289217
4.592201232910156 -11.086554527282715 7.347880586115415e-16 0.3599361865795771 -0.93297692446842 1.4905732570541484e-10
4.906890869140625 -10.661372184753418 2.501511335372925 0.4099438127289217 -0.8841507298600263 0.22410612953075992
5.157195091247559 -9.529253959655762 5.157195091247559 0.43612723182706836 -0.7871379010806919 0.43612723182706836
7.347880586115415e-16 -9.977635383605957 6.666842937469482 -7.846479369020787e-10 -0.8391567246013382 0.5438896869369322
2.544177770614624 -9.221397399902344 7.245204925537109 0.23356268113003856 -0.7642260889058482 0.6011713225188129
7.347880586115415e-16 -8.485280990600586 8.485280990600586 -2.973832661177209e-9 -0.7071067513842252 0.7071068109888685
7.347880586115415e-16 -6.666842937469482 9.977635383605957 1.4337514128589503e-10 -0.5438896869369322 0.8391567246013382
2.544177770614624 -7.245204925537109 9.221397399902344 0.2335626952183188 -0.6011713204265231 0.7642260862460699
5.254622936248779 -7.628530025482178 7.628530025482178 0.44641778962115714 -0.6327365791187357 0.6327365791187357
7.347880586115415e-16 -4.592201232910156 11.086554527282715 -2.174210101124161e-9 -0.3599361406223028 0.9329769421984243
2.501511335372925 -4.906890869140625 10.661372184753418 0.22410612953075992 -0.4099438127289217 0.8841507298600263
7.347880586115415e-16 -2.3410837650299072 11.769423484802246 1.4201134981938183e-9 -0.16593747155645183 0.9861362763500041
2.4280166625976562 -2.4280166625976562 11.498237609863281 0.2086027416528432 -0.20860275655400443 0.9554945243867116
5.157195091247559 -5.157195091247559 9.529253959655762 0.4361272076933555 -0.43612723749567733 0.7871379113115985
4.906890869140625 -2.501511335372925 10.661372184753418 0.4099438127289217 -0.22410612953075992 0.8841507298600263
6.666842937469482 -9.977635383605957 7.347880586115415e-16 0.5438896869369322 -0.8391567246013382 -7.846479369020787e-10
7.245204925537109 -9.221397399902344 2.544177770614624 0.6011713225188129 -0.7642260889058482 0.23356268113003856
8.485280990600586 -8.485280990600586 7.347880586115415e-16 0.7071068109888685 -0.7071067513842252 -2.973832661177209e-9
7.628530025482178 -7.628530025482178 5.254622936248779 0.6327365791187357 -0.6327365791187357 0.44641778962115714
9.977635383605957 -6.666842937469482 7.347880586115415e-16 0.8391567246013382 -0.5438896869369322 1.4337514128589503e-10
9.221397399902344 -7.245204925537109 2.544177770614624 0.7642260862460699 -0.6011713204265231 0.2335626952183188
11.086554527282715 -4.592201232910156 7.347880586115415e-16 0.93297692446842 -0.3599361865795771 -2.174210420753465e-9
10.661372184753418 -4.906890869140625 2.501511335372925 0.8841507298600263 -0.4099438127289217 0.22410612953075992
9.529253959655762 -5.157195091247559 5.157195091247559 0.7871379113115985 -0.4361272076933555 0.43612723749567733
11.769423484802246 -2.3410837650299072 7.347880586115415e-16 0.9861362763500041 -0.16593747155645183 2.359148254858137e-9
11.498237609863281 -2.4280166625976562 2.4280166625976562 0.9554945273567927 -0.20860274230126877 0.20860274230126877
10.661372184753418 -2.501511335372925 4.906890869140625 0.8841507298600263 -0.22410612953075992 0.4099438127289217
7.628530025482178 -5.254622936248779 7.628530025482178 0.6327365707006265 -0.4464178134842093 0.6327365707006265
7.245204925537109 -2.544177770614624 9.221397399902344 0.6011713204265231 -0.2335626952183188 0.7642260862460699
9.221397399902344 -2.544177770614624 7.245204925537109 0.7642260862460699 -0.2335626952183188 0.6011713204265231
7.347880586115415e-16 7.347880586115415e-16 -12 9.551943680463637e-10 9.551943680463637e-10 -1
7.347880586115415e-16 2.3410837650299072 -11.769423484802246 -1.2548989832171565e-9 0.16593748604730613 -0.9861362739116233
2.3410837650299072 7.347880586115415e-16 -11.769423484802246 0.16593748604730613 2.2367159604744413e-9 -0.9861362739116233
2.4280166625976562 2.4280166625976562 -11.498237609863281 0.20860275590557875 0.20860275590557875 -0.9554945214166302
7.347880586115415e-16 4.592201232910156 -11.086554527282715 -5.224315553151834e-10 0.3599361865795771 -0.93297692446842
2.501511335372925 4.906890869140625 -10.661372184753418 0.22410612953075992 0.4099438127289217 -0.8841507298600263
4.592201232910156 7.347880586115415e-16 -11.086554527282715 0.3599361865795771 1.4905732570541484e-10 -0.93297692446842
4.906890869140625 2.501511335372925 -10.661372184753418 0.4099438127289217 0.22410612953075992 -0.8841507298600263
5.157195091247559 5.157195091247559 -9.529253959655762 0.43612723182706836 0.43612723182706836 -0.7871379010806919
7.347880586115415e-16 6.666842937469482 -9.977635383605957 -7.846479369020787e-10 0.5438896869369322 -0.8391567246013382
2.544177770614624 7.245204925537109 -9.221397399902344 0.23356268113003856 0.6011713225188129 -0.7642260889058482
7.347880586115415e-16 8.485280990600586 -8.485280990600586 -2.973832661177209e-9 0.7071068109888685 -0.7071067513842252
7.347880586115415e-16 9.977635383605957 -6.666842937469482 1.4337514128589503e-10 0.8391567246013382 -0.5438896869369322
2.544177770614624 9.221397399902344 -7.245204925537109 0.2335626952183188 0.7642260862460699 -0.6011713204265231
5.254622936248779 7.628530025482178 -7.628530025482178 0.44641778962115714 0.6327365791187357 -0.6327365791187357
7.347880586115415e-16 11.086554527282715 -4.592201232910156 -2.174210101124161e-9 0.9329769421984243 -0.3599361406223028
2.501511335372925 10.661372184753418 -4.906890869140625 0.22410612953075992 0.8841507298600263 -0.4099438127289217
7.347880586115415e-16 11.769423484802246 -2.3410837650299072 1.4201134981938183e-9 0.9861362763500041 -0.16593747155645183
2.4280166625976562 11.498237609863281 -2.4280166625976562 0.2086027416528432 0.9554945243867116 -0.20860275655400443
5.157195091247559 9.529253959655762 -5.157195091247559 0.4361272076933555 0.7871379113115985 -0.43612723749567733
4.906890869140625 10.661372184753418 -2.501511335372925 0.4099438127289217 0.8841507298600263 -0.22410612953075992
6.666842937469482 7.347880586115415e-16 -9.977635383605957 0.5438896869369322 -7.846479369020787e-10 -0.8391567246013382
7.245204925537109 2.544177770614624 -9.221397399902344 0.6011713225188129 0.23356268113003856 -0.7642260889058482
8.485280990600586 7.347880586115415e-16 -8.485280990600586 0.7071068109888685 -2.973832661177209e-9 -0.7071067513842252
7.628530025482178 5.254622936248779 -7.628530025482178 0.6327365791187357 0.44641778962115714 -0.6327365791187357
9.977635383605957 7.347880586115415e-16 -6.666842937469482 0.8391567246013382 1.4337514128589503e-10 -0.5438896869369322
9.221397399902344 2.544177770614624 -7.245204925537109 0.7642260862460699 0.2335626952183188 -0.6011713204265231
11.086554527282715 7.347880586115415e-16 -4.592201232910156 0.9329769421984243 -2.174210101124161e-9 -0.3599361406223028
10.661372184753418 2.501511335372925 -4.906890869140625 0.8841507298600263 0.22410612953075992 -0.4099438127289217
11.769423484802246 7.347880586115415e-16 -2.3410837650299072 0.9861362763500041 1.4201134981938183e-9 -0.16593747155645183
11.498237609863281 2.4280166625976562 -2.4280166625976562 0.9554945243867116 0.2086027416528432 -0.20860275655400443
9.529253959655762 5.157195091247559 -5.157195091247559 0.7871379113115985 0.4361272076933555 -0.43612723749567733
10.661372184753418 4.906890869140625 -2.501511335372925 0.8841507298600263 0.4099438127289217 -0.22410612953075992
7.628530025482178 7.628530025482178 -5.254622936248779 0.6327365707006265 0.6327365707006265 -0.4464178134842093
7.245204925537109 9.221397399902344 -2.544177770614624 0.6011713204265231 0.7642260862460699 -0.2335626952183188
9.221397399902344 7.245204925537109 -2.544177770614624 0.7642260862460699 0.6011713204265231 -0.2335626952183188
7.347880586115415e-16 7.347880586115415e-16 12 9.551943680463637e-10 9.551943680463637e-10 1
7.347880586115415e-16 2.3410837650299072 11.769423484802246 -1.2548989832171565e-9 0.16593748604730613 0.9861362739116233
2.3410837650299072 7.347880586115415e-16 11.769423484802246 0.16593748604730613 2.2367159604744413e-9 0.9861362739116233
2.4280166625976562 2.4280166625976562 11.498237609863281 0.20860275590557875 0.20860275590557875 0.9554945214166302
7.347880586115415e-16 4.592201232910156 11.086554527282715 -5.224315553151834e-10 0.3599361865795771 0.93297692446842
2.501511335372925 4.906890869140625 10.661372184753418 0.22410612953075992 0.4099438127289217 0.8841507298600263
4.592201232910156 7.347880586115415e-16 11.086554527282715 0.3599361865795771 1.4905732570541484e-10 0.93297692446842
4.906890869140625 2.501511335372925 10.661372184753418 0.4099438127289217 0.22410612953075992 0.8841507298600263
5.157195091247559 5.157195091247559 9.529253959655762 0.43612723182706836 0.43612723182706836 0.7871379010806919
7.347880586115415e-16 12 7.347880586115415e-16 9.551943680463637e-10 1 9.551943680463637e-10
7.347880586115415e-16 11.769423484802246 2.3410837650299072 -1.2548989832171565e-9 0.9861362739116233 0.16593748604730613
2.3410837650299072 11.769423484802246 7.347880586115415e-16 0.16593748604730613 0.9861362739116233 2.2367159604744413e-9
2.4280166625976562 11.498237609863281 2.4280166625976562 0.20860275590557875 0.9554945214166302 0.20860275590557875
7.347880586115415e-16 11.086554527282715 4.592201232910156 -5.224315553151834e-10 0.93297692446842 0.3599361865795771
2.501511335372925 10.661372184753418 4.906890869140625 0.22410612953075992 0.8841507298600263 0.4099438127289217
4.592201232910156 11.086554527282715 7.347880586115415e-16 0.3599361865795771 0.93297692446842 1.4905732570541484e-10
4.906890869140625 10.661372184753418 2.501511335372925 0.4099438127289217 0.8841507298600263 0.22410612953075992
5.157195091247559 9.529253959655762 5.157195091247559 0.43612723182706836 0.7871379010806919 0.43612723182706836
7.347880586115415e-16 8.485280990600586 8.485280990600586 -2.973832661177209e-9 0.7071067513842252 0.7071068109888685
7.347880586115415e-16 6.666842937469482 9.977635383605957 -7.846479369020787e-10 0.5438896869369322 0.8391567246013382
2.544177770614624 7.245204925537109 9.221397399902344 0.2335626952183188 0.6011713204265231 0.7642260862460699
7.347880586115415e-16 9.977635383605957 6.666842937469482 -7.846479369020787e-10 0.8391567246013382 0.5438896869369322
2.544177770614624 9.221397399902344 7.245204925537109 0.2335626952183188 0.7642260862460699 0.6011713204265231
5.254622936248779 7.628530025482178 7.628530025482178 0.44641778962115714 0.6327365791187357 0.6327365791187357
12 7.347880586115415e-16 7.347880586115415e-16 1 9.551943680463637e-10 9.551943680463637e-10
11.769423484802246 7.347880586115415e-16 2.3410837650299072 0.9861362739116233 -1.2548989832171565e-9 0.16593748604730613
11.769423484802246 2.3410837650299072 7.347880586115415e-16 0.9861362739116233 0.16593748604730613 2.2367159604744413e-9
11.498237609863281 2.4280166625976562 2.4280166625976562 0.9554945214166302 0.20860275590557875 0.20860275590557875
11.086554527282715 7.347880586115415e-16 4.592201232910156 0.93297692446842 -5.224315553151834e-10 0.3599361865795771
10.661372184753418 2.501511335372925 4.906890869140625 0.8841507298600263 0.22410612953075992 0.4099438127289217
11.086554527282715 4.592201232910156 7.347880586115415e-16 0.93297692446842 0.3599361865795771 1.4905732570541484e-10
10.661372184753418 4.906890869140625 2.501511335372925 0.8841507298600263 0.4099438127289217 0.22410612953075992
9.529253959655762 5.157195091247559 5.157195091247559 0.7871379010806919 0.43612723182706836 0.43612723182706836
8.485280990600586 7.347880586115415e-16 8.485280990600586 0.7071067513842252 -2.973832661177209e-9 0.7071068109888685
6.666842937469482 7.347880586115415e-16 9.977635383605957 0.5438896869369322 -7.846479369020787e-10 0.8391567246013382
7.245204925537109 2.544177770614624 9.221397399902344 0.6011713204265231 0.2335626952183188 0.7642260862460699
7.628530025482178 5.254622936248779 7.628530025482178 0.6327365791187357 0.44641778962115714 0.6327365791187357
9.977635383605957 7.347880586115415e-16 6.666842937469482 0.8391567246013382 -7.846479369020787e-10 0.5438896869369322
9.221397399902344 2.544177770614624 7.245204925537109 0.7642260862460699 0.2335626952183188 0.6011713204265231
8.485280990600586 8.485280990600586 7.347880586115415e-16 0.7071067513842252 0.7071068109888685 -2.973832661177209e-9
7.628530025482178 7.628530025482178 5.254622936248779 0.6327365791187357 0.6327365791187357 0.44641778962115714
6.666842937469482 9.977635383605957 7.347880586115415e-16 0.5438896869369322 0.8391567246013382 -7.846479369020787e-10
7.245204925537109 9.221397399902344 2.544177770614624 0.6011713204265231 0.7642260862460699 0.2335626952183188
9.977635383605957 6.666842937469482 7.347880586115415e-16 0.8391567246013382 0.5438896869369322 -7.846479369020787e-10
9.221397399902344 7.245204925537109 2.544177770614624 0.7642260862460699 0.6011713204265231 0.2335626952183188
3 2 6 4
3 13 2 10
3 10 4 17
3 2 4 10
3 21 7 0
3 25 21 0
3 23 1 14
3 23 25 1
3 1 0 2
3 0 6 2
3 1 2 13
3 25 0 1
3 8 49 3
3 3 49 53
3 4 3 5
3 6 3 4
3 4 5 17
3 5 51 18
3 5 53 51
3 3 53 5
3 7 9 8
3 0 7 6
3 6 8 3
3 7 8 6
3 21 27 7
3 27 9 7
3 27 30 9
3 9 55 8
3 8 55 49
3 9 57 55
3 30 57 9
3 30 77 57
3 12 11 10
3 13 10 11
3 10 17 12
3 11 113 15
3 117 113 11
3 19 115 12
3 115 117 12
3 12 117 11
3 14 1 13
3 15 16 14
3 11 15 13
3 14 13 15
3 36 23 14
3 36 14 16
3 16 39 36
3 15 119 16
3 113 119 15
3 119 121 16
3 16 121 39
3 121 141 39
3 17 5 18
3 19 12 17
3 20 19 18
3 17 18 19
3 18 51 64
3 18 64 20
3 67 20 64
3 20 125 19
3 125 115 19
3 127 125 20
3 67 127 20
3 67 177 127
3 22 21 25
3 28 21 22
3 24 25 23
3 24 23 37
3 22 25 24
3 26 22 24
3 29 22 26
3 26 24 38
3 34 29 26
3 42 26 38
3 34 26 42
3 45 34 42
3 28 27 21
3 31 30 27
3 31 27 28
3 32 31 28
3 29 28 22
3 32 28 29
3 33 32 29
3 78 30 31
3 78 77 30
3 81 31 32
3 81 78 31
3 86 81 32
3 86 32 33
3 88 86 33
3 33 29 34
3 35 33 34
3 35 34 45
3 88 33 35
3 89 35 46
3 89 88 35
3 37 23 36
3 39 40 36
3 37 36 40
3 38 24 37
3 40 41 37
3 38 37 41
3 41 43 38
3 39 142 40
3 39 141 142
3 40 145 41
3 142 145 40
3 145 150 41
3 42 38 43
3 43 44 42
3 45 42 44
3 41 150 43
3 150 152 43
3 43 152 44
3 44 153 47
3 152 153 44
3 46 35 45
3 44 47 45
3 46 45 47
3 47 48 46
3 98 89 46
3 98 46 48
3 48 101 98
3 47 156 48
3 153 156 47
3 156 158 48
3 48 158 101
3 158 213 101
3 53 49 50
3 50 49 56
3 51 53 52
3 65 51 52
3 52 53 50
3 52 50 54
3 59 54 50
3 54 66 52
3 49 55 56
3 55 57 58
3 56 55 58
3 57 77 79
3 58 57 79
3 56 58 60
3 50 56 59
3 60 59 56
3 60 61 59
3 83 60 58
3 58 79 83
3 83 92 60
3 59 62 54
3 54 70 66
3 62 70 54
3 62 73 70
3 92 61 60
3 92 94 61
3 61 62 59
3 61 63 62
3 63 73 62
3 94 63 61
3 96 74 63
3 94 96 63
3 64 51 65
3 67 64 68
3 68 64 65
3 65 52 66
3 68 65 69
3 66 69 65
3 66 71 69
3 178 67 68
3 178 177 67
3 69 181 68
3 178 68 181
3 69 186 181
3 70 71 66
3 70 72 71
3 73 72 70
3 71 186 69
3 71 188 186
3 72 188 71
3 75 189 72
3 72 189 188
3 63 74 73
3 73 75 72
3 74 75 73
3 74 76 75
3 96 104 74
3 104 76 74
3 104 107 76
3 76 192 75
3 75 192 189
3 76 194 192
3 107 194 76
3 107 222 194
3 79 77 78
3 79 78 80
3 78 81 80
3 81 86 82
3 80 81 82
3 79 80 83
3 84 83 80
3 84 92 83
3 80 82 84
3 85 84 82
3 82 87 85
3 85 93 84
3 86 88 87
3 82 86 87
3 87 88 90
3 88 89 90
3 90 89 99
3 91 85 87
3 87 90 91
3 100 91 90
3 93 94 92
3 93 92 84
3 97 94 93
3 95 93 85
3 95 97 93
3 106 97 95
3 97 96 94
3 105 96 97
3 91 95 85
3 110 95 91
3 100 110 91
3 110 106 95
3 89 98 99
3 98 101 102
3 99 98 102
3 90 99 100
3 103 100 99
3 99 102 103
3 103 111 100
3 102 101 214
3 101 213 214
3 217 103 102
3 102 214 217
3 217 232 103
3 105 104 96
3 108 107 104
3 108 104 105
3 106 105 97
3 109 105 106
3 112 109 106
3 109 108 105
3 223 107 108
3 223 222 107
3 226 108 109
3 226 223 108
3 234 226 109
3 111 110 100
3 112 106 110
3 111 112 110
3 231 112 111
3 232 111 103
3 232 231 111
3 234 109 112
3 231 234 112
3 114 113 117
3 120 113 114
3 116 117 115
3 116 115 126
3 114 117 116
3 118 114 116
3 123 114 118
3 118 116 129
3 120 119 113
3 122 121 119
3 122 119 120
3 143 141 121
3 143 121 122
3 124 122 120
3 123 120 114
3 124 120 123
3 131 124 123
3 147 122 124
3 147 143 122
3 162 147 124
3 126 115 125
3 127 128 125
3 126 125 128
3 127 177 179
3 127 179 128
3 129 116 126
3 128 130 126
3 129 126 130
3 130 135 129
3 128 183 130
3 179 183 128
3 183 198 130
3 132 123 118
3 134 118 129
3 132 118 134
3 137 132 134
3 162 124 131
3 164 162 131
3 131 123 132
3 133 131 132
3 133 132 137
3 164 131 133
3 166 133 138
3 166 164 133
3 134 129 135
3 135 136 134
3 137 134 136
3 130 198 135
3 198 200 135
3 135 200 136
3 136 202 139
3 200 202 136
3 138 133 137
3 136 139 137
3 138 137 139
3 139 140 138
3 168 166 138
3 168 138 140
3 140 171 168
3 139 204 140
3 202 204 139
3 204 206 140
3 140 206 171
3 206 237 171
3 142 141 143
3 142 143 144
3 145 142 144
3 150 145 146
3 145 144 146
3 144 143 147
3 144 147 148
3 148 147 162
3 146 144 148
3 146 148 149
3 151 146 149
3 149 148 163
3 152 150 151
3 150 146 151
3 152 151 154
3 153 152 154
3 153 154 157
3 151 149 155
3 154 151 155
3 154 155 160
3 156 153 157
3 159 158 156
3 156 157 159
3 215 213 158
3 159 215 158
3 157 154 160
3 157 160 161
3 161 159 157
3 175 161 160
3 161 219 159
3 219 215 159
3 247 219 161
3 163 162 164
3 148 162 163
3 163 164 167
3 149 163 165
3 165 163 167
3 165 167 170
3 167 164 166
3 167 166 169
3 155 149 165
3 155 165 174
3 160 155 174
3 174 165 170
3 169 166 168
3 171 172 168
3 169 168 172
3 170 167 169
3 170 169 173
3 173 176 170
3 172 173 169
3 171 238 172
3 171 237 238
3 172 241 173
3 238 241 172
3 241 250 173
3 160 174 175
3 174 170 176
3 176 175 174
3 176 246 175
3 175 247 161
3 246 247 175
3 173 250 176
3 250 246 176
3 179 177 178
3 179 178 180
3 178 181 180
3 181 186 182
3 180 181 182
3 179 180 183
3 184 183 180
3 184 198 183
3 180 182 184
3 185 184 182
3 182 187 185
3 185 199 184
3 186 188 187
3 182 186 187
3 187 188 190
3 188 189 190
3 190 189 193
3 191 185 187
3 187 190 191
3 196 191 190
3 189 192 193
3 192 194 195
3 193 192 195
3 194 222 224
3 195 194 224
3 190 193 196
3 197 196 193
3 193 195 197
3 197 211 196
3 228 197 195
3 195 224 228
3 228 254 197
3 199 200 198
3 199 198 184
3 203 200 199
3 201 199 185
3 201 203 199
3 208 203 201
3 203 202 200
3 205 202 203
3 205 204 202
3 207 206 204
3 207 204 205
3 239 237 206
3 239 206 207
3 208 205 203
3 209 205 208
3 212 209 208
3 209 207 205
3 243 207 209
3 243 239 207
3 256 243 209
3 191 201 185
3 210 201 191
3 196 210 191
3 210 208 201
3 211 210 196
3 212 208 210
3 211 212 210
3 252 212 211
3 254 211 197
3 254 252 211
3 256 209 212
3 252 256 212
3 214 213 215
3 216 214 215
3 217 214 216
3 232 217 218
3 218 217 216
3 216 215 219
3 219 220 216
3 219 247 220
3 220 221 218
3 218 216 220
3 233 218 221
3 220 248 221
3 224 222 223
3 224 223 225
3 223 226 225
3 226 234 227
3 225 226 227
3 224 225 228
3 229 228 225
3 229 254 228
3 230 229 227
3 227 235 230
3 225 227 229
3 230 255 229
3 235 231 233
3 231 232 233
3 233 232 218
3 234 231 235
3 227 234 235
3 221 236 233
3 236 230 235
3 235 233 236
3 238 237 239
3 238 239 240
3 241 238 240
3 250 241 242
3 241 240 242
3 240 239 243
3 240 243 244
3 244 243 256
3 242 244 245
3 251 242 245
3 245 244 257
3 242 240 244
3 246 251 248
3 247 246 248
3 247 248 220
3 248 249 221
3 251 245 249
3 248 251 249
3 246 250 251
3 250 242 251
3 257 252 255
3 253 255 230
3 245 257 253
3 253 257 255
3 255 252 254
3 255 254 229
3 257 256 252
3 244 256 257
3 249 253 236
3 221 249 236
3 236 253 230
3 249 245 253

