solid exported
	facet normal 0 -1 0
		outer loop
			vertex 0 0 9.999999974752427e-7
			vertex 0 0 0
			vertex 2 0 0
		endloop
	endfacet
	facet normal 0 0 -1
		outer loop
			vertex 0 1 0
			vertex 2 0 0
			vertex 0 0 0
		endloop
	endfacet
	facet normal -1 0 0
		outer loop
			vertex 0 0 9.999999974752427e-7
			vertex 0 1 9.999999974752427e-7
			vertex 0 0 0
		endloop
	endfacet
	facet normal 0 0 1
		outer loop
			vertex 0 1 9.999999974752427e-7
			vertex 0 0 9.999999974752427e-7
			vertex 2 0 9.999999974752427e-7
		endloop
	endfacet
	facet normal -1 0 0
		outer loop
			vertex 0 1 9.999999974752427e-7
			vertex 0 1 0
			vertex 0 0 0
		endloop
	endfacet
	facet normal 0 1 0
		outer loop
			vertex 0 1 9.999999974752427e-7
			vertex 2 1 9.999999974752427e-7
			vertex 0 1 0
		endloop
	endfacet
	facet normal 1 0 0
		outer loop
			vertex 2 0 9.999999974752427e-7
			vertex 2 0 0
			vertex 2 1 0
		endloop
	endfacet
	facet normal 0 -1 0
		outer loop
			vertex 2 0 9.999999974752427e-7
			vertex 0 0 9.999999974752427e-7
			vertex 2 0 0
		endloop
	endfacet
	facet normal 0 0 -1
		outer loop
			vertex 2 1 0
			vertex 2 0 0
			vertex 0 1 0
		endloop
	endfacet
	facet normal 0 1 0
		outer loop
			vertex 2 1 9.999999974752427e-7
			vertex 2 1 0
			vertex 0 1 0
		endloop
	endfacet
	facet normal 0 0 1
		outer loop
			vertex 2 1 9.999999974752427e-7
			vertex 0 1 9.999999974752427e-7
			vertex 2 0 9.999999974752427e-7
		endloop
	endfacet
	facet normal 1 0 0
		outer loop
			vertex 2 1 9.999999974752427e-7
			vertex 2 0 9.999999974752427e-7
			vertex 2 1 0
		endloop
	endfacet
endsolid exported
