solid exported
	facet normal 0 -1 0
		outer loop
			vertex -15 -15 -15
			vertex 15 -15 -15
			vertex -15 -15 15
		endloop
	endfacet
	facet normal 0 0 -1
		outer loop
			vertex -15 -15 -15
			vertex -15 15 -15
			vertex 15 -15 -15
		endloop
	endfacet
	facet normal -1 0 0
		outer loop
			vertex -15 -15 -15
			vertex -15 -15 15
			vertex -15 15 15
		endloop
	endfacet
	facet normal 0 0 1
		outer loop
			vertex -15 -15 15
			vertex 15 -15 15
			vertex -15 15 15
		endloop
	endfacet
	facet normal -1 0 0
		outer loop
			vertex -15 -15 -15
			vertex -15 15 15
			vertex -15 15 -15
		endloop
	endfacet
	facet normal 0 1 0
		outer loop
			vertex -15 15 -15
			vertex -15 15 15
			vertex 15 15 15
		endloop
	endfacet
	facet normal 1 0 0
		outer loop
			vertex 15 -15 -15
			vertex 15 15 -15
			vertex 15 -15 15
		endloop
	endfacet
	facet normal 0 -1 0
		outer loop
			vertex -15 -15 15
			vertex 15 -15 -15
			vertex 15 -15 15
		endloop
	endfacet
	facet normal 0 0 -1
		outer loop
			vertex -15 15 -15
			vertex 15 15 -15
			vertex 15 -15 -15
		endloop
	endfacet
	facet normal 0 1 0
		outer loop
			vertex -15 15 -15
			vertex 15 15 15
			vertex 15 15 -15
		endloop
	endfacet
	facet normal 0 0 1
		outer loop
			vertex -15 15 15
			vertex 15 -15 15
			vertex 15 15 15
		endloop
	endfacet
	facet normal 1 0 0
		outer loop
			vertex 15 -15 15
			vertex 15 15 -15
			vertex 15 15 15
		endloop
	endfacet
	facet normal 0 1 0
		outer loop
			vertex -14 -14 -14
			vertex -14 -14 14
			vertex 14 -14 -14
		endloop
	endfacet
	facet normal 0 0 1
		outer loop
			vertex -14 -14 -14
			vertex 14 -14 -14
			vertex -14 14 -14
		endloop
	endfacet
	facet normal 1 0 0
		outer loop
			vertex -14 -14 -14
			vertex -14 14 14
			vertex -14 -14 14
		endloop
	endfacet
	facet normal 0 0 -1
		outer loop
			vertex -14 -14 14
			vertex -14 14 14
			vertex 14 -14 14
		endloop
	endfacet
	facet normal 1 0 0
		outer loop
			vertex -14 -14 -14
			vertex -14 14 -14
			vertex -14 14 14
		endloop
	endfacet
	facet normal 0 -1 0
		outer loop
			vertex -14 14 -14
			vertex 14 14 14
			vertex -14 14 14
		endloop
	endfacet
	facet normal -1 0 0
		outer loop
			vertex 14 -14 -14
			vertex 14 -14 14
			vertex 14 14 -14
		endloop
	endfacet
	facet normal 0 1 0
		outer loop
			vertex -14 -14 14
			vertex 14 -14 14
			vertex 14 -14 -14
		endloop
	endfacet
	facet normal 0 0 1
		outer loop
			vertex -14 14 -14
			vertex 14 -14 -14
			vertex 14 14 -14
		endloop
	endfacet
	facet normal 0 -1 0
		outer loop
			vertex -14 14 -14
			vertex 14 14 -14
			vertex 14 14 14
		endloop
	endfacet
	facet normal 0 0 -1
		outer loop
			vertex -14 14 14
			vertex 14 14 14
			vertex 14 -14 14
		endloop
	endfacet
	facet normal -1 0 0
		outer loop
			vertex 14 -14 14
			vertex 14 14 14
			vertex 14 14 -14
		endloop
	endfacet
endsolid exported
