{"asset":{"version":"2.0","generator":"THREE.GLTFExporter r182"},"scenes":[{"name":"AuxScene","nodes":[0]}],"scene":0,"nodes":[{"mesh":0}],"bufferViews":[{"buffer":0,"byteOffset":0,"byteLength":1248,"target":34962,"byteStride":12},{"buffer":0,"byteOffset":1248,"byteLength":1248,"target":34962,"byteStride":12},{"buffer":0,"byteOffset":2496,"byteLength":2400,"target":34963}],"buffers":[{"byteLength":4896,"uri":"data:application/octet-stream;base64,"}],"accessors":[{"bufferView":0,"componentType":5126,"count":104,"max":[25,8,8],"min":[-25,-8,-8],"type":"VEC3"},{"bufferView":1,"componentType":5126,"count":104,"max":[0.4122944474220276,1,1],"min":[-0.4122944474220276,-1,-1],"type":"VEC3"},{"bufferView":2,"componentType":5125,"count":600,"max":[103],"min":[0],"type":"SCALAR"}],"materials":[{"pbrMetallicRoughness":{"baseColorFactor":[0.10702310296918527,0.4793201830913402,0.10702310296918527,1],"metallicFactor":0.25,"roughnessFactor":0.4},"name":"topology-genus2-two-bores-material"}],"meshes":[{"primitives":[{"mode":4,"attributes":{"POSITION":0,"NORMAL":1},"indices":2,"material":0}]}]}