ply
format ascii 1.0
element vertex 104
property float x
property float y
property float z
property float nx
property float ny
property float nz
element face 200
property list uchar int vertex_index
end_header
-25 -8 -8 -0.41229444377171753 -0.6442100944703405 -0.6442100944703405
-20 -3.325878381729126 -2.222280979156494 0.24932169078320432 0.822432956817563 0.5113147035293671
-20 -2.222280979156494 -3.325878381729126 0.10582312918731848 0.5792828785802597 0.8082281929707551
-20 -2.8284270763397217 -2.8284270763397217 0.17758843063649632 0.7183258436773696 0.6726591496510409
-20 -3.6955180168151855 -1.5307337045669556 0.30967420992730077 0.8899307438675261 0.3348509441905364
-20 -3.9231410026550293 -0.7803612947463989 0.3509308362233655 0.9239084627053926 0.1524490102589305
-20 -1.5307337045669556 -3.6955180168151855 0.046564179794759464 0.41234462913831926 0.9098371744333286
-20 -0.7803612947463989 -3.9231410026550293 0.01014341255375697 0.2271559300389033 0.9738055733204266
-25 -8 8 -0.14166506024654862 -0.8854065781121536 0.4427032890560768
-20 -4 0 0.3691655324302847 0.9288632089714967 -0.03049506000384388
-20 -3.9231410026550293 0.7803612947463989 0.3630546362394811 0.9074074107375851 -0.21166747989128945
-20 -3.6955180168151855 1.5307337045669556 0.33301185953838863 0.8588376484535895 -0.38923128729008055
-20 -3.325878381729126 2.222280979156494 0.281500608552946 0.7799236201227484 -0.5589960233838412
-20 -2.8284270763397217 2.8284270763397217 0.21423543511870485 0.6676538437716355 -0.712980731322004
-20 -2.222280979156494 3.325878381729126 0.1409125773297266 0.5227199190132638 -0.8407779325226495
-20 -1.5307337045669556 3.6955180168151855 0.07389805653309606 0.35119939740889927 -0.9333799122009522
-20 -0.7803612947463989 3.9231410026550293 0.02501137701274924 0.16275213400898958 -0.9863499246694583
-20 0 -4 0.0025605787109807313 0.03281273267356733 0.9994582372521414
-20 0.7803612947463989 -3.9231410026550293 0.02501137701274924 -0.16275213400898958 0.9863499246694583
-20 1.5307337045669556 -3.6955180168151855 0.07389805653309606 -0.35119939740889927 0.9333799122009522
-20 2.222280979156494 -3.325878381729126 0.1409125773297266 -0.5227199190132638 0.8407779325226495
-20 2.8284270763397217 -2.8284270763397217 0.21423543511870485 -0.6676538437716355 0.712980731322004
-20 3.325878381729126 -2.222280979156494 0.281500608552946 -0.7799236201227484 0.5589960233838412
-20 3.6955180168151855 -1.5307337045669556 0.33301185953838863 -0.8588376484535895 0.38923128729008055
-20 3.9231410026550293 -0.7803612947463989 0.3630546621135988 -0.9074074009195534 0.2116674776010745
-25 8 -8 -0.11241989193751699 0.7026242836312866 -0.7026242836312866
-20 0.7803612947463989 3.9231410026550293 0.01014341255375697 -0.2271559300389033 -0.9738055733204266
-20 1.5307337045669556 3.6955180168151855 0.046564179794759464 -0.41234462913831926 -0.9098371744333286
-20 3.9231410026550293 0.7803612947463989 0.3509308100912721 -0.9239084723681388 -0.15244901185332665
-20 3.6955180168151855 1.5307337045669556 0.30967420992730077 -0.8899307438675261 -0.3348509441905364
-20 2.8284270763397217 2.8284270763397217 0.17758843063649632 -0.7183258436773696 -0.6726591496510409
-20 2.222280979156494 3.325878381729126 0.10582312182017348 -0.5792828790369916 -0.8082281936079976
-20 3.325878381729126 2.222280979156494 0.24932169078320432 -0.822432956817563 -0.5113147035293671
-20 0 4 0.0025605787109807313 -0.03281273267356733 -0.9994582372521414
-20 4 0 0.3691655324302847 -0.9288632089714967 0.03049506000384388
-25 8 8 -0.27516768072350783 0.42994947319080307 0.8598989463816061
0 -3.325878381729126 -2.222280979156494 0 0.8314696475898097 0.5555701802084753
0 -2.222280979156494 -3.325878381729126 0 0.555570248949409 0.8314696016585884
0 -2.8284270763397217 -2.8284270763397217 0 0.7071067811865476 0.7071067811865476
0 -3.6955180168151855 -1.5307337045669556 0 0.9238795392949354 0.3826834159879129
0 -3.9231410026550293 -0.7803612947463989 0 0.9807852646956361 0.1950904009835211
0 -1.5307337045669556 -3.6955180168151855 0 0.38268336511216505 0.9238795603683574
0 -0.7803612947463989 -3.9231410026550293 0 0.1950904009835211 0.9807852646956361
25 -8 -8 0.11241989193751699 -0.7026242836312866 -0.7026242836312866
20 -3.325878381729126 -2.222280979156494 -0.2493217000687995 0.7871246963182333 0.5641572496394356
20 -2.222280979156494 -3.325878381729126 -0.10582312203973594 0.5250235203639579 0.8444831377276871
20 -2.8284270763397217 -2.8284270763397217 -0.17758843063649632 0.6726591496510409 0.7183258436773696
20 -3.6955180168151855 -1.5307337045669556 -0.30967421071732865 0.8660514559462379 0.39250064824150455
20 -3.9231410026550293 -0.7803612947463989 -0.3509308480902892 0.9119197942276858 0.2127200713481589
20 -1.5307337045669556 -3.6955180168151855 -0.046564179700976316 0.35178026025892 0.9349237539291329
20 -0.7803612947463989 -3.9231410026550293 -0.010143412022530414 0.16279469021876225 0.9866078248367577
0 -4 0 0 1 0
0 -3.9231410026550293 0.7803612947463989 0 0.9807852675468509 -0.19509038664950176
0 -3.6955180168151855 1.5307337045669556 0 0.9238795603683574 -0.38268336511216505
0 -3.325878381729126 2.222280979156494 0 0.8314696016585884 -0.555570248949409
0 -2.8284270763397217 2.8284270763397217 0 0.7071067811865476 -0.7071067811865476
0 -2.222280979156494 3.325878381729126 0 0.5555701802084753 -0.8314696475898097
0 -1.5307337045669556 3.6955180168151855 0 0.3826833905500394 -0.9238795498316468
0 -0.7803612947463989 3.9231410026550293 0 0.1950904009835211 -0.9807852646956361
25 -8 8 0.27516768072350783 -0.42994947319080307 0.8598989463816061
20 -4 0 -0.3691655324302847 0.9288632089714967 0.03049506000384388
20 -3.9231410026550293 0.7803612947463989 -0.3630546386484074 0.9193367501493498 -0.15169465771973123
20 -3.6955180168151855 1.5307337045669556 -0.33301185993870763 0.8825180380097721 -0.332061761917185
20 -3.325878381729126 2.222280979156494 -0.28150060604420013 0.81490885723679 -0.5066369145589146
20 -2.8284270763397217 2.8284270763397217 -0.21423543511870485 0.712980731322004 -0.6676538437716355
20 -2.222280979156494 3.325878381729126 -0.14091258016320937 0.5767411698220626 -0.8046820911291775
20 -1.5307337045669556 3.6955180168151855 -0.07389804714975848 0.41166368093986744 -0.9083347909347583
20 -0.7803612947463989 3.9231410026550293 -0.02501137707993053 0.22709653972725172 -0.9735510221146473
0 0 -4 0 0 1
0 0.7803612947463989 -3.9231410026550293 0 -0.19509038664950176 0.9807852675468509
0 1.5307337045669556 -3.6955180168151855 0 -0.3826833905500394 0.9238795498316468
0 2.222280979156494 -3.325878381729126 0 -0.555570248949409 0.8314696016585884
0 2.8284270763397217 -2.8284270763397217 0 -0.7071067811865476 0.7071067811865476
0 3.325878381729126 -2.222280979156494 0 -0.8314696016585884 0.555570248949409
0 3.6955180168151855 -1.5307337045669556 0 -0.9238795603683574 0.38268336511216505
0 3.9231410026550293 -0.7803612947463989 0 -0.9807852646956361 0.1950904009835211
20 0 -4 -0.0025605787109807313 -0.03281273267356733 0.9994582372521414
20 0.7803612947463989 -3.9231410026550293 -0.02501137707993053 -0.22709653972725172 0.9735510221146473
20 1.5307337045669556 -3.6955180168151855 -0.07389804533651703 -0.4116637304434908 0.9083347686468854
20 2.222280979156494 -3.325878381729126 -0.14091257531913465 -0.5767412096003905 0.8046820634670612
20 2.8284270763397217 -2.8284270763397217 -0.21423543511870485 -0.712980731322004 0.6676538437716355
20 3.325878381729126 -2.222280979156494 -0.28150060604420013 -0.81490885723679 0.5066369145589146
20 3.6955180168151855 -1.5307337045669556 -0.33301185993870763 -0.8825180380097721 0.332061761917185
20 3.9231410026550293 -0.7803612947463989 -0.36305466452252527 -0.9193367402022439 0.15169465607841445
25 8 -8 0.41229444377171753 0.6442100944703405 -0.6442100944703405
0 0.7803612947463989 3.9231410026550293 0 -0.19509038664950176 -0.9807852675468509
0 1.5307337045669556 3.6955180168151855 0 -0.38268336511216505 -0.9238795603683574
0 3.9231410026550293 0.7803612947463989 0 -0.9807852675468509 -0.19509038664950176
0 3.6955180168151855 1.5307337045669556 0 -0.9238795498316468 -0.3826833905500394
0 2.8284270763397217 2.8284270763397217 0 -0.7071067811865476 -0.7071067811865476
0 2.222280979156494 3.325878381729126 0 -0.555570248949409 -0.8314696016585884
0 3.325878381729126 2.222280979156494 0 -0.8314696016585884 -0.555570248949409
0 0 4 0 0 -1
0 4 0 0 -1 0
20 0.7803612947463989 3.9231410026550293 -0.010143412022530414 -0.16279469021876225 -0.9866078248367577
20 1.5307337045669556 3.6955180168151855 -0.046564179700976316 -0.35178026025892 -0.9349237539291329
20 3.9231410026550293 0.7803612947463989 -0.3509308028834713 -0.9119198138026055 -0.21272006201057705
20 3.6955180168151855 1.5307337045669556 -0.3096741714097888 -0.8660514889680824 -0.39250060639166934
20 2.8284270763397217 2.8284270763397217 -0.17758843063649632 -0.6726591496510409 -0.7183258436773696
20 2.222280979156494 3.325878381729126 -0.10582311467259091 -0.5250235207779095 -0.8444831383935146
20 3.325878381729126 2.222280979156494 -0.2493216777101249 -0.787124672774381 -0.5641572923694527
20 0 4 -0.0025605787109807313 0.03281273267356733 -0.9994582372521414
20 4 0 -0.3691655324302847 -0.9288632089714967 -0.03049506000384388
25 8 8 0.14166506024654862 0.8854065781121536 0.4427032890560768
3 1 3 21
3 6 7 18
3 2 6 19
3 2 20 3
3 1 22 4
3 4 23 5
3 5 24 9
3 1 36 3
3 2 3 38
3 1 4 39
3 4 5 40
3 5 9 51
3 2 37 6
3 6 41 7
3 7 42 17
3 2 38 37
3 3 36 38
3 4 40 39
3 1 39 36
3 5 51 40
3 6 37 41
3 7 41 42
3 17 42 68
3 9 34 10
3 10 28 11
3 11 29 12
3 12 32 13
3 13 30 14
3 14 31 15
3 15 27 16
3 9 10 52
3 10 11 53
3 11 12 54
3 12 13 55
3 13 14 56
3 14 15 57
3 15 16 58
3 16 33 92
3 9 52 51
3 10 53 52
3 11 54 53
3 12 55 54
3 13 56 55
3 14 57 56
3 15 58 57
3 16 92 58
3 7 17 18
3 6 18 19
3 2 19 20
3 3 20 21
3 1 21 22
3 4 22 23
3 5 23 24
3 9 24 34
3 17 68 18
3 18 69 19
3 19 70 20
3 20 71 21
3 21 72 22
3 22 73 23
3 23 74 24
3 24 75 34
3 18 68 69
3 19 69 70
3 20 70 71
3 21 71 72
3 22 72 73
3 23 73 74
3 24 74 75
3 34 75 93
3 10 34 28
3 11 28 29
3 12 29 32
3 16 26 33
3 14 30 31
3 15 31 27
3 16 27 26
3 13 32 30
3 26 85 33
3 26 27 86
3 27 31 90
3 28 34 93
3 28 87 29
3 29 88 32
3 30 89 31
3 30 32 91
3 33 85 92
3 26 86 85
3 27 90 86
3 28 93 87
3 32 88 91
3 29 87 88
3 30 91 89
3 31 89 90
3 44 38 36
3 46 37 38
3 47 36 39
3 48 39 40
3 60 40 51
3 45 41 37
3 49 42 41
3 50 68 42
3 46 45 37
3 44 46 38
3 48 47 39
3 47 44 36
3 60 48 40
3 45 49 41
3 49 50 42
3 50 76 68
3 44 80 46
3 49 77 50
3 45 78 49
3 46 79 45
3 47 81 44
3 48 82 47
3 60 83 48
3 61 51 52
3 62 52 53
3 63 53 54
3 64 54 55
3 65 55 56
3 66 56 57
3 67 57 58
3 101 58 92
3 61 60 51
3 62 61 52
3 63 62 53
3 63 54 64
3 65 64 55
3 65 56 66
3 66 57 67
3 67 58 101
3 61 102 60
3 62 96 61
3 63 97 62
3 63 64 100
3 65 98 64
3 65 66 99
3 66 67 95
3 76 69 68
3 77 70 69
3 78 71 70
3 79 72 71
3 80 73 72
3 81 74 73
3 82 75 74
3 83 93 75
3 76 77 69
3 77 78 70
3 78 79 71
3 80 72 79
3 80 81 73
3 82 74 81
3 83 75 82
3 102 93 83
3 50 77 76
3 49 78 77
3 45 79 78
3 46 80 79
3 44 81 80
3 47 82 81
3 48 83 82
3 60 102 83
3 94 92 85
3 95 85 86
3 99 86 90
3 102 87 93
3 96 88 87
3 97 91 88
3 98 90 89
3 100 89 91
3 101 92 94
3 94 85 95
3 95 86 99
3 96 87 102
3 100 91 97
3 97 88 96
3 98 89 100
3 99 90 98
3 61 96 102
3 62 97 96
3 63 100 97
3 67 101 94
3 65 99 98
3 66 95 99
3 67 94 95
3 64 98 100
3 0 43 8
3 0 25 43
3 0 8 35
3 8 59 35
3 0 35 25
3 25 35 103
3 43 84 59
3 8 43 59
3 25 84 43
3 25 103 84
3 35 59 103
3 59 84 103

