solid exported
	facet normal 0 -1 0
		outer loop
			vertex -20 -12 6
			vertex -20 -12 -6
			vertex 20 -12 -6
		endloop
	endfacet
	facet normal 0 0 -1
		outer loop
			vertex -20 12 -6
			vertex 20 -12 -6
			vertex -20 -12 -6
		endloop
	endfacet
	facet normal -1 0 0
		outer loop
			vertex -20 -12 6
			vertex -20 12 6
			vertex -20 -12 -6
		endloop
	endfacet
	facet normal 0 0 1
		outer loop
			vertex -20 12 6
			vertex -20 -12 6
			vertex 20 -12 6
		endloop
	endfacet
	facet normal -1 0 0
		outer loop
			vertex -20 12 6
			vertex -20 12 -6
			vertex -20 -12 -6
		endloop
	endfacet
	facet normal 0 1 0
		outer loop
			vertex -20 12 6
			vertex 20 12 6
			vertex -20 12 -6
		endloop
	endfacet
	facet normal 1 0 0
		outer loop
			vertex 20 -12 6
			vertex 20 -12 -6
			vertex 20 12 -6
		endloop
	endfacet
	facet normal 0 -1 0
		outer loop
			vertex 20 -12 6
			vertex -20 -12 6
			vertex 20 -12 -6
		endloop
	endfacet
	facet normal 0 0 -1
		outer loop
			vertex 20 12 -6
			vertex 20 -12 -6
			vertex -20 12 -6
		endloop
	endfacet
	facet normal 0 1 0
		outer loop
			vertex 20 12 6
			vertex 20 12 -6
			vertex -20 12 -6
		endloop
	endfacet
	facet normal 0 0 1
		outer loop
			vertex 20 12 6
			vertex -20 12 6
			vertex 20 -12 6
		endloop
	endfacet
	facet normal 1 0 0
		outer loop
			vertex 20 12 6
			vertex 20 -12 6
			vertex 20 12 -6
		endloop
	endfacet
endsolid exported
