solid exported
	facet normal 0 -1 0
		outer loop
			vertex -5 -20 3
			vertex -5 -20 -3
			vertex 5 -20 -3
		endloop
	endfacet
	facet normal 0 0 -1
		outer loop
			vertex -5 20 -3
			vertex 5 -20 -3
			vertex -5 -20 -3
		endloop
	endfacet
	facet normal -1 0 0
		outer loop
			vertex -5 -20 3
			vertex -5 20 3
			vertex -5 -20 -3
		endloop
	endfacet
	facet normal 0 0 1
		outer loop
			vertex -5 20 3
			vertex -5 -20 3
			vertex 5 -20 3
		endloop
	endfacet
	facet normal -1 0 0
		outer loop
			vertex -5 20 3
			vertex -5 20 -3
			vertex -5 -20 -3
		endloop
	endfacet
	facet normal 0 1 0
		outer loop
			vertex -5 20 3
			vertex 5 20 3
			vertex -5 20 -3
		endloop
	endfacet
	facet normal 1 0 0
		outer loop
			vertex 5 -20 3
			vertex 5 -20 -3
			vertex 5 20 -3
		endloop
	endfacet
	facet normal 0 -1 0
		outer loop
			vertex 5 -20 3
			vertex -5 -20 3
			vertex 5 -20 -3
		endloop
	endfacet
	facet normal 0 0 -1
		outer loop
			vertex 5 20 -3
			vertex 5 -20 -3
			vertex -5 20 -3
		endloop
	endfacet
	facet normal 0 1 0
		outer loop
			vertex 5 20 3
			vertex 5 20 -3
			vertex -5 20 -3
		endloop
	endfacet
	facet normal 0 0 1
		outer loop
			vertex 5 20 3
			vertex -5 20 3
			vertex 5 -20 3
		endloop
	endfacet
	facet normal 1 0 0
		outer loop
			vertex 5 20 3
			vertex 5 -20 3
			vertex 5 20 -3
		endloop
	endfacet
endsolid exported
