{"asset":{"version":"2.0","generator":"THREE.GLTFExporter r182"},"scenes":[{"name":"AuxScene","nodes":[0]}],"scene":0,"nodes":[{"mesh":0}],"bufferViews":[{"buffer":0,"byteOffset":0,"byteLength":192,"target":34962,"byteStride":12},{"buffer":0,"byteOffset":192,"byteLength":192,"target":34962,"byteStride":12},{"buffer":0,"byteOffset":384,"byteLength":384,"target":34963}],"buffers":[{"byteLength":768,"uri":"data:application/octet-stream;base64,"}],"accessors":[{"bufferView":0,"componentType":5126,"count":16,"max":[20,12,6],"min":[-20,-12,-6],"type":"VEC3"},{"bufferView":1,"componentType":5126,"count":16,"max":[0.5115654468536377,0.7460329532623291,0.9374696016311646],"min":[-0.5115654468536377,-0.7460329532623291,-0.9773373007774353],"type":"VEC3"},{"bufferView":2,"componentType":5125,"count":96,"max":[15],"min":[0],"type":"SCALAR"}],"materials":[{"pbrMetallicRoughness":{"baseColorFactor":[0.7454042095350284,0.3005437944049895,0.07036009568874305,1],"metallicFactor":0.25,"roughnessFactor":0.4},"name":"boolean-difference-cube-slot-through-material"}],"meshes":[{"primitives":[{"mode":4,"attributes":{"POSITION":0,"NORMAL":1},"indices":2,"material":0}]}]}