o 
usemtl boolean-difference-cube-slot-through-material
v -20 -12 -6
v -5 -12 -3
v -20 -12 6
v -5 -12 3
v -20 12 -6
v -5 12 -3
v -20 12 6
v -5 12 3
v 5 -12 -3
v 20 -12 -6
v 5 -12 3
v 20 -12 6
v 5 12 -3
v 20 12 -6
v 5 12 3
v 20 12 6
vn -0.4817131259313513 -0.35124916550081475 -0.8028552098855855
vn 0.2794478542045682 -0.2328732168041939 0.9314928672167756
vn -0.2752807666248927 -0.2867507861499626 0.9176025752845235
vn 0.5115654616256284 -0.7460329748048159 -0.4263045612887981
vn -0.14660060670734143 0.15270896532014733 -0.9773373184442969
vn 0.5115654616256284 0.7460329748048159 0.4263045612887981
vn -0.2812408807180204 0.20507147924884683 0.9374696023934014
vn 0.2794478542045682 0.2328732168041939 -0.9314928672167756
vn -0.5115654616256284 -0.7460329748048159 0.4263045612887981
vn 0.14660060670734143 -0.15270896532014733 -0.9773373184442969
vn -0.2794478542045682 -0.2328732168041939 -0.9314928672167756
vn 0.2812408807180204 -0.20507147924884683 0.9374696023934014
vn -0.2794478542045682 0.2328732168041939 0.9314928672167756
vn 0.4817131259313513 0.35124916550081475 -0.8028552098855855
vn -0.5115654616256284 0.7460329748048159 -0.4263045612887981
vn 0.2752807666248927 0.2867507861499626 0.9176025752845235
f 1//1 9//9 2//2
f 1//1 2//2 4//4
f 1//1 5//5 10//10
f 1//1 4//4 3//3
f 1//1 3//3 7//7
f 3//3 4//4 12//12
f 3//3 12//12 7//7
f 1//1 7//7 5//5
f 5//5 7//7 6//6
f 5//5 6//6 14//14
f 7//7 8//8 6//6
f 7//7 15//15 8//8
f 1//1 10//10 9//9
f 10//10 12//12 9//9
f 10//10 14//14 12//12
f 12//12 4//4 11//11
f 12//12 11//11 9//9
f 5//5 14//14 10//10
f 14//14 6//6 13//13
f 14//14 13//13 15//15
f 7//7 12//12 16//16
f 7//7 16//16 15//15
f 12//12 14//14 16//16
f 14//14 15//15 16//16
f 2//2 6//6 4//4
f 4//4 8//8 11//11
f 13//13 6//6 2//2
f 8//8 4//4 6//6
f 2//2 9//9 13//13
f 15//15 9//9 11//11
f 9//9 15//15 13//13
f 8//8 15//15 11//11
