ISO-10303-21;
HEADER;
FILE_DESCRIPTION(('Open CASCADE Model'),'2;1');
FILE_NAME('Open CASCADE Shape Model','1970-01-01T00:00:00',('Author'),(
    'Open CASCADE'),'Open CASCADE STEP processor 8.0','Open CASCADE 8.0'
  ,'Unknown');
FILE_SCHEMA((
'AP242_MANAGED_MODEL_BASED_3D_ENGINEERING_MIM_LF {1 0 10303 442 1 1 4 }'
    ));
ENDSEC;
DATA;
#1 = APPLICATION_PROTOCOL_DEFINITION('international standard',
  'ap242_managed_model_based_3d_engineering',2013,#2);
#2 = APPLICATION_CONTEXT('Managed model based 3d engineering');
#3 = SHAPE_DEFINITION_REPRESENTATION(#4,#10);
#4 = PRODUCT_DEFINITION_SHAPE('','',#5);
#5 = PRODUCT_DEFINITION('design','',#6,#9);
#6 = PRODUCT_DEFINITION_FORMATION('','',#7);
#7 = PRODUCT('Open CASCADE STEP translator 8.0',
  'Open CASCADE STEP translator 8.0','',(#8));
#8 = PRODUCT_CONTEXT('',#2,'mechanical');
#9 = PRODUCT_DEFINITION_CONTEXT('part definition',#2,'design');
#10 = ADVANCED_BREP_SHAPE_REPRESENTATION('',(#11,#15),#282);
#11 = AXIS2_PLACEMENT_3D('',#12,#13,#14);
#12 = CARTESIAN_POINT('',(0.,0.,0.));
#13 = DIRECTION('',(0.,0.,1.));
#14 = DIRECTION('',(1.,0.,-0.));
#15 = MANIFOLD_SOLID_BREP('',#16);
#16 = CLOSED_SHELL('',(#17,#105,#183,#255));
#17 = ADVANCED_FACE('',(#18),#31,.T.);
#18 = FACE_BOUND('',#19,.T.);
#19 = EDGE_LOOP('',(#20,#54,#77,#104));
#20 = ORIENTED_EDGE('',*,*,#21,.F.);
#21 = EDGE_CURVE('',#22,#22,#24,.T.);
#22 = VERTEX_POINT('',#23);
#23 = CARTESIAN_POINT('',(45.,30.,30.));
#24 = SURFACE_CURVE('',#25,(#30,#42),.PCURVE_S1.);
#25 = CIRCLE('',#26,15.);
#26 = AXIS2_PLACEMENT_3D('',#27,#28,#29);
#27 = CARTESIAN_POINT('',(30.,30.,30.));
#28 = DIRECTION('',(0.,0.,1.));
#29 = DIRECTION('',(1.,0.,-0.));
#30 = PCURVE('',#31,#36);
#31 = CYLINDRICAL_SURFACE('',#32,15.);
#32 = AXIS2_PLACEMENT_3D('',#33,#34,#35);
#33 = CARTESIAN_POINT('',(30.,30.,0.));
#34 = DIRECTION('',(0.,0.,1.));
#35 = DIRECTION('',(1.,0.,-0.));
#36 = DEFINITIONAL_REPRESENTATION('',(#37),#41);
#37 = LINE('',#38,#39);
#38 = CARTESIAN_POINT('',(0.,30.));
#39 = VECTOR('',#40,1.);
#40 = DIRECTION('',(1.,0.));
#41 = ( GEOMETRIC_REPRESENTATION_CONTEXT(2) 
PARAMETRIC_REPRESENTATION_CONTEXT() REPRESENTATION_CONTEXT('2D SPACE',''
  ) );
#42 = PCURVE('',#43,#48);
#43 = PLANE('',#44);
#44 = AXIS2_PLACEMENT_3D('',#45,#46,#47);
#45 = CARTESIAN_POINT('',(30.340675146862,30.,30.));
#46 = DIRECTION('',(3.24021886637E-16,0.,1.));
#47 = DIRECTION('',(1.,0.,-3.24021886637E-16));
#48 = DEFINITIONAL_REPRESENTATION('',(#49),#53);
#49 = CIRCLE('',#50,15.);
#50 = AXIS2_PLACEMENT_2D('',#51,#52);
#51 = CARTESIAN_POINT('',(-0.340675146862,-3.552713678801E-15));
#52 = DIRECTION('',(1.,0.));
#53 = ( GEOMETRIC_REPRESENTATION_CONTEXT(2) 
PARAMETRIC_REPRESENTATION_CONTEXT() REPRESENTATION_CONTEXT('2D SPACE',''
  ) );
#54 = ORIENTED_EDGE('',*,*,#55,.F.);
#55 = EDGE_CURVE('',#56,#22,#58,.T.);
#56 = VERTEX_POINT('',#57);
#57 = CARTESIAN_POINT('',(45.,30.,0.));
#58 = SEAM_CURVE('',#59,(#63,#70),.PCURVE_S1.);
#59 = LINE('',#60,#61);
#60 = CARTESIAN_POINT('',(45.,30.,0.));
#61 = VECTOR('',#62,1.);
#62 = DIRECTION('',(0.,0.,1.));
#63 = PCURVE('',#31,#64);
#64 = DEFINITIONAL_REPRESENTATION('',(#65),#69);
#65 = LINE('',#66,#67);
#66 = CARTESIAN_POINT('',(6.28318530718,-0.));
#67 = VECTOR('',#68,1.);
#68 = DIRECTION('',(0.,1.));
#69 = ( GEOMETRIC_REPRESENTATION_CONTEXT(2) 
PARAMETRIC_REPRESENTATION_CONTEXT() REPRESENTATION_CONTEXT('2D SPACE',''
  ) );
#70 = PCURVE('',#31,#71);
#71 = DEFINITIONAL_REPRESENTATION('',(#72),#76);
#72 = LINE('',#73,#74);
#73 = CARTESIAN_POINT('',(0.,-0.));
#74 = VECTOR('',#75,1.);
#75 = DIRECTION('',(0.,1.));
#76 = ( GEOMETRIC_REPRESENTATION_CONTEXT(2) 
PARAMETRIC_REPRESENTATION_CONTEXT() REPRESENTATION_CONTEXT('2D SPACE',''
  ) );
#77 = ORIENTED_EDGE('',*,*,#78,.T.);
#78 = EDGE_CURVE('',#56,#56,#79,.T.);
#79 = SURFACE_CURVE('',#80,(#85,#92),.PCURVE_S1.);
#80 = CIRCLE('',#81,15.);
#81 = AXIS2_PLACEMENT_3D('',#82,#83,#84);
#82 = CARTESIAN_POINT('',(30.,30.,0.));
#83 = DIRECTION('',(0.,0.,1.));
#84 = DIRECTION('',(1.,0.,-0.));
#85 = PCURVE('',#31,#86);
#86 = DEFINITIONAL_REPRESENTATION('',(#87),#91);
#87 = LINE('',#88,#89);
#88 = CARTESIAN_POINT('',(0.,0.));
#89 = VECTOR('',#90,1.);
#90 = DIRECTION('',(1.,0.));
#91 = ( GEOMETRIC_REPRESENTATION_CONTEXT(2) 
PARAMETRIC_REPRESENTATION_CONTEXT() REPRESENTATION_CONTEXT('2D SPACE',''
  ) );
#92 = PCURVE('',#93,#98);
#93 = PLANE('',#94);
#94 = AXIS2_PLACEMENT_3D('',#95,#96,#97);
#95 = CARTESIAN_POINT('',(30.340675146862,30.,0.));
#96 = DIRECTION('',(0.,0.,1.));
#97 = DIRECTION('',(1.,0.,-0.));
#98 = DEFINITIONAL_REPRESENTATION('',(#99),#103);
#99 = CIRCLE('',#100,15.);
#100 = AXIS2_PLACEMENT_2D('',#101,#102);
#101 = CARTESIAN_POINT('',(-0.340675146862,-3.552713678801E-15));
#102 = DIRECTION('',(1.,0.));
#103 = ( GEOMETRIC_REPRESENTATION_CONTEXT(2) 
PARAMETRIC_REPRESENTATION_CONTEXT() REPRESENTATION_CONTEXT('2D SPACE',''
  ) );
#104 = ORIENTED_EDGE('',*,*,#55,.T.);
#105 = ADVANCED_FACE('',(#106),#93,.T.);
#106 = FACE_BOUND('',#107,.F.);
#107 = EDGE_LOOP('',(#108,#109,#132,#182));
#108 = ORIENTED_EDGE('',*,*,#78,.T.);
#109 = ORIENTED_EDGE('',*,*,#110,.T.);
#110 = EDGE_CURVE('',#56,#111,#113,.T.);
#111 = VERTEX_POINT('',#112);
#112 = CARTESIAN_POINT('',(47.,30.,0.));
#113 = SURFACE_CURVE('',#114,(#118,#125),.PCURVE_S1.);
#114 = LINE('',#115,#116);
#115 = CARTESIAN_POINT('',(45.,30.,0.));
#116 = VECTOR('',#117,1.);
#117 = DIRECTION('',(1.,6.752177905597E-16,0.));
#118 = PCURVE('',#93,#119);
#119 = DEFINITIONAL_REPRESENTATION('',(#120),#124);
#120 = LINE('',#121,#122);
#121 = CARTESIAN_POINT('',(14.659324853138,-7.105427357601E-15));
#122 = VECTOR('',#123,1.);
#123 = DIRECTION('',(1.,6.752177905597E-16));
#124 = ( GEOMETRIC_REPRESENTATION_CONTEXT(2) 
PARAMETRIC_REPRESENTATION_CONTEXT() REPRESENTATION_CONTEXT('2D SPACE',''
  ) );
#125 = PCURVE('',#93,#126);
#126 = DEFINITIONAL_REPRESENTATION('',(#127),#131);
#127 = LINE('',#128,#129);
#128 = CARTESIAN_POINT('',(14.659324853138,-7.105427357601E-15));
#129 = VECTOR('',#130,1.);
#130 = DIRECTION('',(1.,6.752177905597E-16));
#131 = ( GEOMETRIC_REPRESENTATION_CONTEXT(2) 
PARAMETRIC_REPRESENTATION_CONTEXT() REPRESENTATION_CONTEXT('2D SPACE',''
  ) );
#132 = ORIENTED_EDGE('',*,*,#133,.F.);
#133 = EDGE_CURVE('',#111,#111,#134,.T.);
#134 = SURFACE_CURVE('',#135,(#151,#170),.PCURVE_S1.);
#135 = B_SPLINE_CURVE_WITH_KNOTS('',14,(#136,#137,#138,#139,#140,#141,
    #142,#143,#144,#145,#146,#147,#148,#149,#150),.UNSPECIFIED.,.T.,.F.,
  (15,15),(0.,6.28318530718),.PIECEWISE_BEZIER_KNOTS.);
#136 = CARTESIAN_POINT('',(47.,30.,0.));
#137 = CARTESIAN_POINT('',(47.000000000004,37.629582158723,0.));
#138 = CARTESIAN_POINT('',(43.312455859593,45.259167133688,0.));
#139 = CARTESIAN_POINT('',(35.937362864691,50.957928891747,0.));
#140 = CARTESIAN_POINT('',(25.977619549392,52.795259129036,0.));
#141 = CARTESIAN_POINT('',(15.638813773223,49.532606637184,0.));
#142 = CARTESIAN_POINT('',(7.746291071701,41.320049169479,0.));
#143 = CARTESIAN_POINT('',(4.774913765286,30.00000000024,0.));
#144 = CARTESIAN_POINT('',(7.7462910717,18.679950830081,0.));
#145 = CARTESIAN_POINT('',(15.638813773226,10.467393363151,0.));
#146 = CARTESIAN_POINT('',(25.97761954939,7.204740870755,0.));
#147 = CARTESIAN_POINT('',(35.937362864692,9.042071108356,0.));
#148 = CARTESIAN_POINT('',(43.312455859592,14.740832866275,0.));
#149 = CARTESIAN_POINT('',(47.000000000004,22.370417841285,0.));
#150 = CARTESIAN_POINT('',(47.,30.,0.));
#151 = PCURVE('',#93,#152);
#152 = DEFINITIONAL_REPRESENTATION('',(#153),#169);
#153 = B_SPLINE_CURVE_WITH_KNOTS('',14,(#154,#155,#156,#157,#158,#159,
    #160,#161,#162,#163,#164,#165,#166,#167,#168),.UNSPECIFIED.,.F.,.F.,
  (15,15),(0.,6.28318530718),.PIECEWISE_BEZIER_KNOTS.);
#154 = CARTESIAN_POINT('',(16.659324853138,-2.13162820728E-14));
#155 = CARTESIAN_POINT('',(16.659324853142,7.629582158723));
#156 = CARTESIAN_POINT('',(12.971780712731,15.259167133688));
#157 = CARTESIAN_POINT('',(5.596687717829,20.957928891747));
#158 = CARTESIAN_POINT('',(-4.363055597469,22.795259129036));
#159 = CARTESIAN_POINT('',(-14.70186137363,19.532606637184));
#160 = CARTESIAN_POINT('',(-22.59438407516,11.320049169479));
#161 = CARTESIAN_POINT('',(-25.56576138157,2.404405563539E-10));
#162 = CARTESIAN_POINT('',(-22.59438407516,-11.32004916991));
#163 = CARTESIAN_POINT('',(-14.70186137363,-19.53260663684));
#164 = CARTESIAN_POINT('',(-4.363055597472,-22.79525912924));
#165 = CARTESIAN_POINT('',(5.596687717831,-20.95792889164));
#166 = CARTESIAN_POINT('',(12.97178071273,-15.25916713372));
#167 = CARTESIAN_POINT('',(16.659324853143,-7.629582158715));
#168 = CARTESIAN_POINT('',(16.659324853138,1.06581410364E-14));
#169 = ( GEOMETRIC_REPRESENTATION_CONTEXT(2) 
PARAMETRIC_REPRESENTATION_CONTEXT() REPRESENTATION_CONTEXT('2D SPACE',''
  ) );
#170 = PCURVE('',#171,#176);
#171 = CYLINDRICAL_SURFACE('',#172,17.);
#172 = AXIS2_PLACEMENT_3D('',#173,#174,#175);
#173 = CARTESIAN_POINT('',(30.,30.,0.));
#174 = DIRECTION('',(0.,0.,1.));
#175 = DIRECTION('',(1.,0.,-0.));
#176 = DEFINITIONAL_REPRESENTATION('',(#177),#181);
#177 = LINE('',#178,#179);
#178 = CARTESIAN_POINT('',(0.,0.));
#179 = VECTOR('',#180,1.);
#180 = DIRECTION('',(1.,0.));
#181 = ( GEOMETRIC_REPRESENTATION_CONTEXT(2) 
PARAMETRIC_REPRESENTATION_CONTEXT() REPRESENTATION_CONTEXT('2D SPACE',''
  ) );
#182 = ORIENTED_EDGE('',*,*,#110,.F.);
#183 = ADVANCED_FACE('',(#184),#171,.F.);
#184 = FACE_BOUND('',#185,.F.);
#185 = EDGE_LOOP('',(#186,#233,#253,#254));
#186 = ORIENTED_EDGE('',*,*,#187,.F.);
#187 = EDGE_CURVE('',#188,#188,#190,.T.);
#188 = VERTEX_POINT('',#189);
#189 = CARTESIAN_POINT('',(47.,30.,30.));
#190 = SURFACE_CURVE('',#191,(#207,#214),.PCURVE_S1.);
#191 = B_SPLINE_CURVE_WITH_KNOTS('',14,(#192,#193,#194,#195,#196,#197,
    #198,#199,#200,#201,#202,#203,#204,#205,#206),.UNSPECIFIED.,.T.,.F.,
  (15,15),(0.,6.28318530718),.PIECEWISE_BEZIER_KNOTS.);
#192 = CARTESIAN_POINT('',(47.,30.,30.));
#193 = CARTESIAN_POINT('',(47.000000000004,37.629582158723,
    30.000000000004));
#194 = CARTESIAN_POINT('',(43.312455859593,45.259167133688,
    29.999999999986));
#195 = CARTESIAN_POINT('',(35.937362864691,50.957928891747,
    30.000000000029));
#196 = CARTESIAN_POINT('',(25.977619549392,52.795259129036,
    29.999999999963));
#197 = CARTESIAN_POINT('',(15.638813773223,49.532606637184,
    30.00000000002));
#198 = CARTESIAN_POINT('',(7.746291071701,41.320049169479,
    30.000000000025));
#199 = CARTESIAN_POINT('',(4.774913765286,30.00000000024,29.999999999924
    ));
#200 = CARTESIAN_POINT('',(7.7462910717,18.679950830081,30.000000000105)
  );
#201 = CARTESIAN_POINT('',(15.638813773226,10.467393363151,29.9999999999
    ));
#202 = CARTESIAN_POINT('',(25.97761954939,7.204740870755,30.000000000071
    ));
#203 = CARTESIAN_POINT('',(35.937362864692,9.042071108356,
    29.999999999962));
#204 = CARTESIAN_POINT('',(43.312455859592,14.740832866275,
    30.000000000014));
#205 = CARTESIAN_POINT('',(47.000000000004,22.370417841285,
    29.999999999997));
#206 = CARTESIAN_POINT('',(47.,30.,30.));
#207 = PCURVE('',#171,#208);
#208 = DEFINITIONAL_REPRESENTATION('',(#209),#213);
#209 = LINE('',#210,#211);
#210 = CARTESIAN_POINT('',(0.,30.));
#211 = VECTOR('',#212,1.);
#212 = DIRECTION('',(1.,0.));
#213 = ( GEOMETRIC_REPRESENTATION_CONTEXT(2) 
PARAMETRIC_REPRESENTATION_CONTEXT() REPRESENTATION_CONTEXT('2D SPACE',''
  ) );
#214 = PCURVE('',#43,#215);
#215 = DEFINITIONAL_REPRESENTATION('',(#216),#232);
#216 = B_SPLINE_CURVE_WITH_KNOTS('',14,(#217,#218,#219,#220,#221,#222,
    #223,#224,#225,#226,#227,#228,#229,#230,#231),.UNSPECIFIED.,.F.,.F.,
  (15,15),(0.,6.28318530718),.PIECEWISE_BEZIER_KNOTS.);
#217 = CARTESIAN_POINT('',(16.659324853138,-2.13162820728E-14));
#218 = CARTESIAN_POINT('',(16.659324853142,7.629582158723));
#219 = CARTESIAN_POINT('',(12.971780712731,15.259167133688));
#220 = CARTESIAN_POINT('',(5.596687717829,20.957928891747));
#221 = CARTESIAN_POINT('',(-4.363055597469,22.795259129036));
#222 = CARTESIAN_POINT('',(-14.70186137363,19.532606637184));
#223 = CARTESIAN_POINT('',(-22.59438407516,11.320049169479));
#224 = CARTESIAN_POINT('',(-25.56576138157,2.404405563539E-10));
#225 = CARTESIAN_POINT('',(-22.59438407516,-11.32004916991));
#226 = CARTESIAN_POINT('',(-14.70186137363,-19.53260663684));
#227 = CARTESIAN_POINT('',(-4.363055597472,-22.79525912924));
#228 = CARTESIAN_POINT('',(5.596687717831,-20.95792889164));
#229 = CARTESIAN_POINT('',(12.97178071273,-15.25916713372));
#230 = CARTESIAN_POINT('',(16.659324853143,-7.629582158715));
#231 = CARTESIAN_POINT('',(16.659324853138,1.06581410364E-14));
#232 = ( GEOMETRIC_REPRESENTATION_CONTEXT(2) 
PARAMETRIC_REPRESENTATION_CONTEXT() REPRESENTATION_CONTEXT('2D SPACE',''
  ) );
#233 = ORIENTED_EDGE('',*,*,#234,.F.);
#234 = EDGE_CURVE('',#111,#188,#235,.T.);
#235 = SEAM_CURVE('',#236,(#239,#246),.PCURVE_S1.);
#236 = B_SPLINE_CURVE_WITH_KNOTS('',1,(#237,#238),.UNSPECIFIED.,.F.,.F.,
  (2,2),(0.,30.),.PIECEWISE_BEZIER_KNOTS.);
#237 = CARTESIAN_POINT('',(47.,30.,0.));
#238 = CARTESIAN_POINT('',(47.,30.,30.));
#239 = PCURVE('',#171,#240);
#240 = DEFINITIONAL_REPRESENTATION('',(#241),#245);
#241 = LINE('',#242,#243);
#242 = CARTESIAN_POINT('',(6.28318530718,-0.));
#243 = VECTOR('',#244,1.);
#244 = DIRECTION('',(0.,1.));
#245 = ( GEOMETRIC_REPRESENTATION_CONTEXT(2) 
PARAMETRIC_REPRESENTATION_CONTEXT() REPRESENTATION_CONTEXT('2D SPACE',''
  ) );
#246 = PCURVE('',#171,#247);
#247 = DEFINITIONAL_REPRESENTATION('',(#248),#252);
#248 = LINE('',#249,#250);
#249 = CARTESIAN_POINT('',(0.,-0.));
#250 = VECTOR('',#251,1.);
#251 = DIRECTION('',(0.,1.));
#252 = ( GEOMETRIC_REPRESENTATION_CONTEXT(2) 
PARAMETRIC_REPRESENTATION_CONTEXT() REPRESENTATION_CONTEXT('2D SPACE',''
  ) );
#253 = ORIENTED_EDGE('',*,*,#133,.T.);
#254 = ORIENTED_EDGE('',*,*,#234,.T.);
#255 = ADVANCED_FACE('',(#256),#43,.F.);
#256 = FACE_BOUND('',#257,.T.);
#257 = EDGE_LOOP('',(#258,#259,#280,#281));
#258 = ORIENTED_EDGE('',*,*,#21,.T.);
#259 = ORIENTED_EDGE('',*,*,#260,.T.);
#260 = EDGE_CURVE('',#22,#188,#261,.T.);
#261 = SURFACE_CURVE('',#262,(#266,#273),.PCURVE_S1.);
#262 = LINE('',#263,#264);
#263 = CARTESIAN_POINT('',(45.,30.,30.));
#264 = VECTOR('',#265,1.);
#265 = DIRECTION('',(1.,6.752177905597E-16,0.));
#266 = PCURVE('',#43,#267);
#267 = DEFINITIONAL_REPRESENTATION('',(#268),#272);
#268 = LINE('',#269,#270);
#269 = CARTESIAN_POINT('',(14.659324853138,-7.105427357601E-15));
#270 = VECTOR('',#271,1.);
#271 = DIRECTION('',(1.,6.752177905597E-16));
#272 = ( GEOMETRIC_REPRESENTATION_CONTEXT(2) 
PARAMETRIC_REPRESENTATION_CONTEXT() REPRESENTATION_CONTEXT('2D SPACE',''
  ) );
#273 = PCURVE('',#43,#274);
#274 = DEFINITIONAL_REPRESENTATION('',(#275),#279);
#275 = LINE('',#276,#277);
#276 = CARTESIAN_POINT('',(14.659324853138,-7.105427357601E-15));
#277 = VECTOR('',#278,1.);
#278 = DIRECTION('',(1.,6.752177905597E-16));
#279 = ( GEOMETRIC_REPRESENTATION_CONTEXT(2) 
PARAMETRIC_REPRESENTATION_CONTEXT() REPRESENTATION_CONTEXT('2D SPACE',''
  ) );
#280 = ORIENTED_EDGE('',*,*,#187,.F.);
#281 = ORIENTED_EDGE('',*,*,#260,.F.);
#282 = ( GEOMETRIC_REPRESENTATION_CONTEXT(3) 
GLOBAL_UNCERTAINTY_ASSIGNED_CONTEXT((#286)) GLOBAL_UNIT_ASSIGNED_CONTEXT
((#283,#284,#285)) REPRESENTATION_CONTEXT('Context #1',
  '3D Context with UNIT and UNCERTAINTY') );
#283 = ( LENGTH_UNIT() NAMED_UNIT(*) SI_UNIT(.MILLI.,.METRE.) );
#284 = ( NAMED_UNIT(*) PLANE_ANGLE_UNIT() SI_UNIT($,.RADIAN.) );
#285 = ( NAMED_UNIT(*) SI_UNIT($,.STERADIAN.) SOLID_ANGLE_UNIT() );
#286 = UNCERTAINTY_MEASURE_WITH_UNIT(LENGTH_MEASURE(1.E-07),#283,
  'distance_accuracy_value','confusion accuracy');
#287 = PRODUCT_RELATED_PRODUCT_CATEGORY('part',$,(#7));
ENDSEC;
END-ISO-10303-21;
