o 
usemtl topology-high-aspect-ratio-plate-material
v -100 -100 -0.25
v -100 -100 0.25
v -100 100 -0.25
v -100 100 0.25
v 100 -100 -0.25
v 100 -100 0.25
v 100 100 -0.25
v 100 100 0.25
vn -0.0049999216160688375 -0.0024999608080344187 -0.9999843753678314
vn -0.0024999608080344187 -0.0049999216160688375 0.9999843753678314
vn -0.00124999511721611 0.00249999023443222 -0.9999960937728879
vn -0.00249999023443222 0.00124999511721611 0.9999960937728879
vn 0.00124999511721611 -0.00249999023443222 -0.9999960937728879
vn 0.00249999023443222 -0.00124999511721611 0.9999960937728879
vn 0.0049999216160688375 0.0024999608080344187 -0.9999843753678314
vn 0.0024999608080344187 0.0049999216160688375 0.9999843753678314
f 2//2 1//1 5//5
f 3//3 5//5 1//1
f 2//2 4//4 1//1
f 4//4 2//2 6//6
f 4//4 3//3 1//1
f 4//4 8//8 3//3
f 6//6 5//5 7//7
f 6//6 2//2 5//5
f 7//7 5//5 3//3
f 8//8 7//7 3//3
f 8//8 4//4 6//6
f 8//8 6//6 7//7
