o 
usemtl boolean-difference-nested-cavity-sphere-material
v -11.526745796203613 -9.056506156921387 -3.1802220344543457
v -9.056506156921387 -11.526745796203613 -3.1802220344543457
v -9.535662651062012 -9.535662651062012 -6.5682783126831055
v -11.526745796203613 -3.1802220344543457 -9.056506156921387
v -9.535662651062012 -6.5682783126831055 -9.535662651062012
v -9.056506156921387 -3.1802220344543457 -11.526745796203613
v -11.911567687988281 -6.446493625640869 -6.446493625640869
v -13.326715469360352 -6.133613586425781 -3.1268889904022217
v -13.326715469360352 -3.1268889904022217 -6.133613586425781
v -14.372797012329102 -3.0350208282470703 -3.0350208282470703
v -7.996029376983643 -3.6801681518554688 -1.8761334419250488
v -7.996029376983643 -1.8761334419250488 -3.6801681518554688
v -8.623678207397461 -1.8210124969482422 -1.8210124969482422
v -6.5682783126831055 -9.535662651062012 -9.535662651062012
v -3.1802220344543457 -11.526745796203613 -9.056506156921387
v -3.1802220344543457 -9.056506156921387 -11.526745796203613
v -6.446493625640869 -11.911567687988281 -6.446493625640869
v -6.133613586425781 -13.326715469360352 -3.1268889904022217
v -3.1268889904022217 -13.326715469360352 -6.133613586425781
v -3.0350208282470703 -14.372797012329102 -3.0350208282470703
v -3.6801681518554688 -7.996029376983643 -1.8761334419250488
v -1.8761334419250488 -7.996029376983643 -3.6801681518554688
v -1.8210124969482422 -8.623678207397461 -1.8210124969482422
v -6.446493625640869 -6.446493625640869 -11.911567687988281
v -6.133613586425781 -3.1268889904022217 -13.326715469360352
v -3.1268889904022217 -6.133613586425781 -13.326715469360352
v -3.0350208282470703 -3.0350208282470703 -14.372797012329102
v -3.6801681518554688 -1.8761334419250488 -7.996029376983643
v -1.8761334419250488 -3.6801681518554688 -7.996029376983643
v -1.8210124969482422 -1.8210124969482422 -8.623678207397461
v -5.721397399902344 -5.721397399902344 -3.940967082977295
v -5.721397399902344 -3.940967082977295 -5.721397399902344
v -7.146940231323242 -3.867896318435669 -3.867896318435669
v -3.940967082977295 -5.721397399902344 -5.721397399902344
v -3.867896318435669 -7.146940231323242 -3.867896318435669
v -3.867896318435669 -3.867896318435669 -7.146940231323242
v -6.9160475730896 -5.433903694152832 -1.9081332683563232
v -5.433903694152832 -6.9160475730896 -1.9081332683563232
v -6.9160475730896 -1.9081332683563232 -5.433903694152832
v -5.433903694152832 -1.9081332683563232 -6.9160475730896
v -1.9081332683563232 -6.9160475730896 -5.433903694152832
v -1.9081332683563232 -5.433903694152832 -6.9160475730896
v -12.472043991088867 -8.333553314208984 9.184850467946473e-16
v -11.526745796203613 -9.056506156921387 3.1802220344543457
v -8.333553314208984 -12.472043991088867 9.184850467946473e-16
v -9.056506156921387 -11.526745796203613 3.1802220344543457
v -10.60660171508789 -10.60660171508789 9.184850467946473e-16
v -9.535662651062012 -9.535662651062012 6.5682783126831055
v -13.858193397521973 -5.740251541137695 9.184850467946473e-16
v -13.326715469360352 -6.133613586425781 3.1268889904022217
v -11.911567687988281 -6.446493625640869 6.446493625640869
v -14.711779594421387 -2.9263548851013184 9.184850467946473e-16
v -14.372797012329102 -3.0350208282470703 3.0350208282470703
v -13.326715469360352 -3.1268889904022217 6.133613586425781
v -8.314915657043457 -3.444150924682617 5.510910704284357e-16
v -7.996029376983643 -3.6801681518554688 1.8761334419250488
v -7.996029376983643 -1.8761334419250488 3.6801681518554688
v -8.827067375183105 -1.7558128833770752 5.510910704284357e-16
v -8.623678207397461 -1.8210124969482422 1.8210124969482422
v -11.526745796203613 -3.1802220344543457 9.056506156921387
v -9.535662651062012 -6.5682783126831055 9.535662651062012
v -9.056506156921387 -3.1802220344543457 11.526745796203613
v -5.740251541137695 -13.858193397521973 9.184850467946473e-16
v -6.133613586425781 -13.326715469360352 3.1268889904022217
v -6.446493625640869 -11.911567687988281 6.446493625640869
v -2.9263548851013184 -14.711779594421387 9.184850467946473e-16
v -3.0350208282470703 -14.372797012329102 3.0350208282470703
v -3.1268889904022217 -13.326715469360352 6.133613586425781
v -3.444150924682617 -8.314915657043457 5.510910704284357e-16
v -3.6801681518554688 -7.996029376983643 1.8761334419250488
v -1.8761334419250488 -7.996029376983643 3.6801681518554688
v -1.7558128833770752 -8.827067375183105 5.510910704284357e-16
v -1.8210124969482422 -8.623678207397461 1.8210124969482422
v -6.5682783126831055 -9.535662651062012 9.535662651062012
v -3.1802220344543457 -11.526745796203613 9.056506156921387
v -3.1802220344543457 -9.056506156921387 11.526745796203613
v -6.363961219787598 -6.363961219787598 5.510910704284357e-16
v -7.483226299285889 -5.000132083892822 5.510910704284357e-16
v -6.9160475730896 -5.433903694152832 1.9081332683563232
v -5.000132083892822 -7.483226299285889 5.510910704284357e-16
v -5.433903694152832 -6.9160475730896 1.9081332683563232
v -5.721397399902344 -5.721397399902344 3.940967082977295
v -7.146940231323242 -3.867896318435669 3.867896318435669
v -5.721397399902344 -3.940967082977295 5.721397399902344
v -3.867896318435669 -7.146940231323242 3.867896318435669
v -3.940967082977295 -5.721397399902344 5.721397399902344
v -3.867896318435669 -3.867896318435669 7.146940231323242
v -6.9160475730896 -1.9081332683563232 5.433903694152832
v -5.433903694152832 -1.9081332683563232 6.9160475730896
v -1.9081332683563232 -6.9160475730896 5.433903694152832
v -1.9081332683563232 -5.433903694152832 6.9160475730896
v -6.446493625640869 -6.446493625640869 11.911567687988281
v -6.133613586425781 -3.1268889904022217 13.326715469360352
v -3.1268889904022217 -6.133613586425781 13.326715469360352
v -3.6801681518554688 -1.8761334419250488 7.996029376983643
v -1.8761334419250488 -3.6801681518554688 7.996029376983643
v -1.8210124969482422 -1.8210124969482422 8.623678207397461
v -3.0350208282470703 -3.0350208282470703 14.372797012329102
v -12.472043991088867 9.184850467946473e-16 -8.333553314208984
v -11.526745796203613 3.1802220344543457 -9.056506156921387
v -8.333553314208984 9.184850467946473e-16 -12.472043991088867
v -9.056506156921387 3.1802220344543457 -11.526745796203613
v -10.60660171508789 9.184850467946473e-16 -10.60660171508789
v -9.535662651062012 6.5682783126831055 -9.535662651062012
v -13.858193397521973 9.184850467946473e-16 -5.740251541137695
v -13.326715469360352 3.1268889904022217 -6.133613586425781
v -14.711779594421387 9.184850467946473e-16 -2.9263548851013184
v -14.372797012329102 3.0350208282470703 -3.0350208282470703
v -11.911567687988281 6.446493625640869 -6.446493625640869
v -13.326715469360352 6.133613586425781 -3.1268889904022217
v -8.314915657043457 5.510910704284357e-16 -3.444150924682617
v -8.827067375183105 5.510910704284357e-16 -1.7558128833770752
v -8.623678207397461 1.8210124969482422 -1.8210124969482422
v -7.996029376983643 1.8761334419250488 -3.6801681518554688
v -7.996029376983643 3.6801681518554688 -1.8761334419250488
v -11.526745796203613 9.056506156921387 -3.1802220344543457
v -9.535662651062012 9.535662651062012 -6.5682783126831055
v -9.056506156921387 11.526745796203613 -3.1802220344543457
v -5.740251541137695 9.184850467946473e-16 -13.858193397521973
v -6.133613586425781 3.1268889904022217 -13.326715469360352
v -6.446493625640869 6.446493625640869 -11.911567687988281
v -2.9263548851013184 9.184850467946473e-16 -14.711779594421387
v -3.0350208282470703 3.0350208282470703 -14.372797012329102
v -3.444150924682617 5.510910704284357e-16 -8.314915657043457
v -3.6801681518554688 1.8761334419250488 -7.996029376983643
v -1.8761334419250488 3.6801681518554688 -7.996029376983643
v -1.7558128833770752 5.510910704284357e-16 -8.827067375183105
v -1.8210124969482422 1.8210124969482422 -8.623678207397461
v -3.1268889904022217 6.133613586425781 -13.326715469360352
v -6.363961219787598 5.510910704284357e-16 -6.363961219787598
v -7.483226299285889 5.510910704284357e-16 -5.000132083892822
v -6.9160475730896 1.9081332683563232 -5.433903694152832
v -5.000132083892822 5.510910704284357e-16 -7.483226299285889
v -5.433903694152832 1.9081332683563232 -6.9160475730896
v -5.721397399902344 3.940967082977295 -5.721397399902344
v -7.146940231323242 3.867896318435669 -3.867896318435669
v -5.721397399902344 5.721397399902344 -3.940967082977295
v -3.867896318435669 3.867896318435669 -7.146940231323242
v -3.940967082977295 5.721397399902344 -5.721397399902344
v -3.867896318435669 7.146940231323242 -3.867896318435669
v -6.9160475730896 5.433903694152832 -1.9081332683563232
v -5.433903694152832 6.9160475730896 -1.9081332683563232
v -1.9081332683563232 5.433903694152832 -6.9160475730896
v -1.9081332683563232 6.9160475730896 -5.433903694152832
v -6.5682783126831055 9.535662651062012 -9.535662651062012
v -3.1802220344543457 9.056506156921387 -11.526745796203613
v -3.1802220344543457 11.526745796203613 -9.056506156921387
v -6.446493625640869 11.911567687988281 -6.446493625640869
v -6.133613586425781 13.326715469360352 -3.1268889904022217
v -3.6801681518554688 7.996029376983643 -1.8761334419250488
v -1.8761334419250488 7.996029376983643 -3.6801681518554688
v -1.8210124969482422 8.623678207397461 -1.8210124969482422
v -3.1268889904022217 13.326715469360352 -6.133613586425781
v -3.0350208282470703 14.372797012329102 -3.0350208282470703
v -15 9.184850467946473e-16 9.184850467946473e-16
v -14.711779594421387 9.184850467946473e-16 2.9263548851013184
v -14.711779594421387 2.9263548851013184 9.184850467946473e-16
v -14.372797012329102 3.0350208282470703 3.0350208282470703
v -13.858193397521973 9.184850467946473e-16 5.740251541137695
v -13.326715469360352 3.1268889904022217 6.133613586425781
v -13.858193397521973 5.740251541137695 9.184850467946473e-16
v -13.326715469360352 6.133613586425781 3.1268889904022217
v -11.911567687988281 6.446493625640869 6.446493625640869
v -9 5.510910704284357e-16 5.510910704284357e-16
v -8.827067375183105 5.510910704284357e-16 1.7558128833770752
v -8.827067375183105 1.7558128833770752 5.510910704284357e-16
v -8.623678207397461 1.8210124969482422 1.8210124969482422
v -8.314915657043457 5.510910704284357e-16 3.444150924682617
v -8.314915657043457 3.444150924682617 5.510910704284357e-16
v -7.996029376983643 1.8761334419250488 3.6801681518554688
v -7.996029376983643 3.6801681518554688 1.8761334419250488
v -12.472043991088867 9.184850467946473e-16 8.333553314208984
v -11.526745796203613 3.1802220344543457 9.056506156921387
v -10.60660171508789 9.184850467946473e-16 10.60660171508789
v -8.333553314208984 9.184850467946473e-16 12.472043991088867
v -9.056506156921387 3.1802220344543457 11.526745796203613
v -9.535662651062012 6.5682783126831055 9.535662651062012
v -12.472043991088867 8.333553314208984 9.184850467946473e-16
v -11.526745796203613 9.056506156921387 3.1802220344543457
v -10.60660171508789 10.60660171508789 9.184850467946473e-16
v -9.535662651062012 9.535662651062012 6.5682783126831055
v -8.333553314208984 12.472043991088867 9.184850467946473e-16
v -9.056506156921387 11.526745796203613 3.1802220344543457
v -7.483226299285889 5.510910704284357e-16 5.000132083892822
v -6.363961219787598 5.510910704284357e-16 6.363961219787598
v -6.9160475730896 1.9081332683563232 5.433903694152832
v -5.000132083892822 5.510910704284357e-16 7.483226299285889
v -5.433903694152832 1.9081332683563232 6.9160475730896
v -7.483226299285889 5.000132083892822 5.510910704284357e-16
v -6.9160475730896 5.433903694152832 1.9081332683563232
v -6.363961219787598 6.363961219787598 5.510910704284357e-16
v -5.000132083892822 7.483226299285889 5.510910704284357e-16
v -5.433903694152832 6.9160475730896 1.9081332683563232
v -7.146940231323242 3.867896318435669 3.867896318435669
v -5.721397399902344 3.940967082977295 5.721397399902344
v -5.721397399902344 5.721397399902344 3.940967082977295
v -3.867896318435669 3.867896318435669 7.146940231323242
v -3.867896318435669 7.146940231323242 3.867896318435669
v -3.940967082977295 5.721397399902344 5.721397399902344
v -1.9081332683563232 5.433903694152832 6.9160475730896
v -1.9081332683563232 6.9160475730896 5.433903694152832
v -5.740251541137695 9.184850467946473e-16 13.858193397521973
v -6.133613586425781 3.1268889904022217 13.326715469360352
v -6.446493625640869 6.446493625640869 11.911567687988281
v -3.444150924682617 5.510910704284357e-16 8.314915657043457
v -3.6801681518554688 1.8761334419250488 7.996029376983643
v -1.8761334419250488 3.6801681518554688 7.996029376983643
v -1.7558128833770752 5.510910704284357e-16 8.827067375183105
v -1.8210124969482422 1.8210124969482422 8.623678207397461
v -2.9263548851013184 9.184850467946473e-16 14.711779594421387
v -3.0350208282470703 3.0350208282470703 14.372797012329102
v -3.1268889904022217 6.133613586425781 13.326715469360352
v -5.740251541137695 13.858193397521973 9.184850467946473e-16
v -6.133613586425781 13.326715469360352 3.1268889904022217
v -6.446493625640869 11.911567687988281 6.446493625640869
v -3.444150924682617 8.314915657043457 5.510910704284357e-16
v -3.6801681518554688 7.996029376983643 1.8761334419250488
v -1.8761334419250488 7.996029376983643 3.6801681518554688
v -1.7558128833770752 8.827067375183105 5.510910704284357e-16
v -1.8210124969482422 8.623678207397461 1.8210124969482422
v -2.9263548851013184 14.711779594421387 9.184850467946473e-16
v -3.0350208282470703 14.372797012329102 3.0350208282470703
v -3.1268889904022217 13.326715469360352 6.133613586425781
v -6.5682783126831055 9.535662651062012 9.535662651062012
v -3.1802220344543457 9.056506156921387 11.526745796203613
v -3.1802220344543457 11.526745796203613 9.056506156921387
v 9.184850467946473e-16 -12.472043991088867 -8.333553314208984
v 3.1802220344543457 -11.526745796203613 -9.056506156921387
v 9.184850467946473e-16 -8.333553314208984 -12.472043991088867
v 3.1802220344543457 -9.056506156921387 -11.526745796203613
v 9.184850467946473e-16 -10.60660171508789 -10.60660171508789
v 6.5682783126831055 -9.535662651062012 -9.535662651062012
v 9.184850467946473e-16 -13.858193397521973 -5.740251541137695
v 3.1268889904022217 -13.326715469360352 -6.133613586425781
v 9.184850467946473e-16 -14.711779594421387 -2.9263548851013184
v 3.0350208282470703 -14.372797012329102 -3.0350208282470703
v 5.510910704284357e-16 -8.314915657043457 -3.444150924682617
v 5.510910704284357e-16 -8.827067375183105 -1.7558128833770752
v 1.8210124969482422 -8.623678207397461 -1.8210124969482422
v 1.8761334419250488 -7.996029376983643 -3.6801681518554688
v 3.6801681518554688 -7.996029376983643 -1.8761334419250488
v 6.446493625640869 -11.911567687988281 -6.446493625640869
v 6.133613586425781 -13.326715469360352 -3.1268889904022217
v 9.184850467946473e-16 -5.740251541137695 -13.858193397521973
v 3.1268889904022217 -6.133613586425781 -13.326715469360352
v 9.184850467946473e-16 -2.9263548851013184 -14.711779594421387
v 3.0350208282470703 -3.0350208282470703 -14.372797012329102
v 5.510910704284357e-16 -3.444150924682617 -8.314915657043457
v 5.510910704284357e-16 -1.7558128833770752 -8.827067375183105
v 1.8210124969482422 -1.8210124969482422 -8.623678207397461
v 1.8761334419250488 -3.6801681518554688 -7.996029376983643
v 3.6801681518554688 -1.8761334419250488 -7.996029376983643
v 6.446493625640869 -6.446493625640869 -11.911567687988281
v 6.133613586425781 -3.1268889904022217 -13.326715469360352
v 5.510910704284357e-16 -6.363961219787598 -6.363961219787598
v 5.510910704284357e-16 -7.483226299285889 -5.000132083892822
v 5.510910704284357e-16 -5.000132083892822 -7.483226299285889
v 1.9081332683563232 -6.9160475730896 -5.433903694152832
v 1.9081332683563232 -5.433903694152832 -6.9160475730896
v 3.940967082977295 -5.721397399902344 -5.721397399902344
v 3.867896318435669 -7.146940231323242 -3.867896318435669
v 3.867896318435669 -3.867896318435669 -7.146940231323242
v 5.721397399902344 -5.721397399902344 -3.940967082977295
v 5.721397399902344 -3.940967082977295 -5.721397399902344
v 7.146940231323242 -3.867896318435669 -3.867896318435669
v 5.433903694152832 -6.9160475730896 -1.9081332683563232
v 6.9160475730896 -5.433903694152832 -1.9081332683563232
v 5.433903694152832 -1.9081332683563232 -6.9160475730896
v 6.9160475730896 -1.9081332683563232 -5.433903694152832
v 9.056506156921387 -11.526745796203613 -3.1802220344543457
v 9.535662651062012 -9.535662651062012 -6.5682783126831055
v 11.526745796203613 -9.056506156921387 -3.1802220344543457
v 9.535662651062012 -6.5682783126831055 -9.535662651062012
v 9.056506156921387 -3.1802220344543457 -11.526745796203613
v 11.526745796203613 -3.1802220344543457 -9.056506156921387
v 7.996029376983643 -3.6801681518554688 -1.8761334419250488
v 7.996029376983643 -1.8761334419250488 -3.6801681518554688
v 8.623678207397461 -1.8210124969482422 -1.8210124969482422
v 11.911567687988281 -6.446493625640869 -6.446493625640869
v 13.326715469360352 -6.133613586425781 -3.1268889904022217
v 13.326715469360352 -3.1268889904022217 -6.133613586425781
v 14.372797012329102 -3.0350208282470703 -3.0350208282470703
v 9.184850467946473e-16 -15 9.184850467946473e-16
v 9.184850467946473e-16 -14.711779594421387 2.9263548851013184
v 2.9263548851013184 -14.711779594421387 9.184850467946473e-16
v 3.0350208282470703 -14.372797012329102 3.0350208282470703
v 9.184850467946473e-16 -13.858193397521973 5.740251541137695
v 3.1268889904022217 -13.326715469360352 6.133613586425781
v 5.510910704284357e-16 -9 5.510910704284357e-16
v 5.510910704284357e-16 -8.827067375183105 1.7558128833770752
v 1.7558128833770752 -8.827067375183105 5.510910704284357e-16
v 1.8210124969482422 -8.623678207397461 1.8210124969482422
v 5.510910704284357e-16 -8.314915657043457 3.444150924682617
v 3.444150924682617 -8.314915657043457 5.510910704284357e-16
v 1.8761334419250488 -7.996029376983643 3.6801681518554688
v 3.6801681518554688 -7.996029376983643 1.8761334419250488
v 5.740251541137695 -13.858193397521973 9.184850467946473e-16
v 6.133613586425781 -13.326715469360352 3.1268889904022217
v 6.446493625640869 -11.911567687988281 6.446493625640869
v 9.184850467946473e-16 -12.472043991088867 8.333553314208984
v 3.1802220344543457 -11.526745796203613 9.056506156921387
v 9.184850467946473e-16 -10.60660171508789 10.60660171508789
v 9.184850467946473e-16 -8.333553314208984 12.472043991088867
v 3.1802220344543457 -9.056506156921387 11.526745796203613
v 6.5682783126831055 -9.535662651062012 9.535662651062012
v 5.510910704284357e-16 -7.483226299285889 5.000132083892822
v 5.510910704284357e-16 -6.363961219787598 6.363961219787598
v 5.510910704284357e-16 -5.000132083892822 7.483226299285889
v 1.9081332683563232 -6.9160475730896 5.433903694152832
v 1.9081332683563232 -5.433903694152832 6.9160475730896
v 5.000132083892822 -7.483226299285889 5.510910704284357e-16
v 5.433903694152832 -6.9160475730896 1.9081332683563232
v 6.363961219787598 -6.363961219787598 5.510910704284357e-16
v 7.483226299285889 -5.000132083892822 5.510910704284357e-16
v 6.9160475730896 -5.433903694152832 1.9081332683563232
v 3.867896318435669 -7.146940231323242 3.867896318435669
v 3.940967082977295 -5.721397399902344 5.721397399902344
v 3.867896318435669 -3.867896318435669 7.146940231323242
v 5.721397399902344 -5.721397399902344 3.940967082977295
v 7.146940231323242 -3.867896318435669 3.867896318435669
v 5.721397399902344 -3.940967082977295 5.721397399902344
v 5.433903694152832 -1.9081332683563232 6.9160475730896
v 6.9160475730896 -1.9081332683563232 5.433903694152832
v 9.184850467946473e-16 -5.740251541137695 13.858193397521973
v 3.1268889904022217 -6.133613586425781 13.326715469360352
v 5.510910704284357e-16 -3.444150924682617 8.314915657043457
v 5.510910704284357e-16 -1.7558128833770752 8.827067375183105
v 1.8210124969482422 -1.8210124969482422 8.623678207397461
v 1.8761334419250488 -3.6801681518554688 7.996029376983643
v 3.6801681518554688 -1.8761334419250488 7.996029376983643
v 9.184850467946473e-16 -2.9263548851013184 14.711779594421387
v 3.0350208282470703 -3.0350208282470703 14.372797012329102
v 6.446493625640869 -6.446493625640869 11.911567687988281
v 6.133613586425781 -3.1268889904022217 13.326715469360352
v 8.333553314208984 -12.472043991088867 9.184850467946473e-16
v 9.056506156921387 -11.526745796203613 3.1802220344543457
v 10.60660171508789 -10.60660171508789 9.184850467946473e-16
v 9.535662651062012 -9.535662651062012 6.5682783126831055
v 12.472043991088867 -8.333553314208984 9.184850467946473e-16
v 11.526745796203613 -9.056506156921387 3.1802220344543457
v 8.314915657043457 -3.444150924682617 5.510910704284357e-16
v 7.996029376983643 -3.6801681518554688 1.8761334419250488
v 7.996029376983643 -1.8761334419250488 3.6801681518554688
v 8.827067375183105 -1.7558128833770752 5.510910704284357e-16
v 8.623678207397461 -1.8210124969482422 1.8210124969482422
v 13.858193397521973 -5.740251541137695 9.184850467946473e-16
v 13.326715469360352 -6.133613586425781 3.1268889904022217
v 11.911567687988281 -6.446493625640869 6.446493625640869
v 14.711779594421387 -2.9263548851013184 9.184850467946473e-16
v 14.372797012329102 -3.0350208282470703 3.0350208282470703
v 13.326715469360352 -3.1268889904022217 6.133613586425781
v 9.535662651062012 -6.5682783126831055 9.535662651062012
v 9.056506156921387 -3.1802220344543457 11.526745796203613
v 11.526745796203613 -3.1802220344543457 9.056506156921387
v 9.184850467946473e-16 9.184850467946473e-16 -15
v 9.184850467946473e-16 2.9263548851013184 -14.711779594421387
v 2.9263548851013184 9.184850467946473e-16 -14.711779594421387
v 3.0350208282470703 3.0350208282470703 -14.372797012329102
v 5.510910704284357e-16 5.510910704284357e-16 -9
v 5.510910704284357e-16 1.7558128833770752 -8.827067375183105
v 1.7558128833770752 5.510910704284357e-16 -8.827067375183105
v 1.8210124969482422 1.8210124969482422 -8.623678207397461
v 5.510910704284357e-16 3.444150924682617 -8.314915657043457
v 3.444150924682617 5.510910704284357e-16 -8.314915657043457
v 1.8761334419250488 3.6801681518554688 -7.996029376983643
v 3.6801681518554688 1.8761334419250488 -7.996029376983643
v 9.184850467946473e-16 5.740251541137695 -13.858193397521973
v 3.1268889904022217 6.133613586425781 -13.326715469360352
v 5.740251541137695 9.184850467946473e-16 -13.858193397521973
v 6.133613586425781 3.1268889904022217 -13.326715469360352
v 6.446493625640869 6.446493625640869 -11.911567687988281
v 5.510910704284357e-16 5.000132083892822 -7.483226299285889
v 5.510910704284357e-16 6.363961219787598 -6.363961219787598
v 5.510910704284357e-16 7.483226299285889 -5.000132083892822
v 1.9081332683563232 5.433903694152832 -6.9160475730896
v 1.9081332683563232 6.9160475730896 -5.433903694152832
v 5.000132083892822 5.510910704284357e-16 -7.483226299285889
v 5.433903694152832 1.9081332683563232 -6.9160475730896
v 6.363961219787598 5.510910704284357e-16 -6.363961219787598
v 7.483226299285889 5.510910704284357e-16 -5.000132083892822
v 6.9160475730896 1.9081332683563232 -5.433903694152832
v 3.867896318435669 3.867896318435669 -7.146940231323242
v 3.940967082977295 5.721397399902344 -5.721397399902344
v 3.867896318435669 7.146940231323242 -3.867896318435669
v 5.721397399902344 3.940967082977295 -5.721397399902344
v 7.146940231323242 3.867896318435669 -3.867896318435669
v 5.721397399902344 5.721397399902344 -3.940967082977295
v 5.433903694152832 6.9160475730896 -1.9081332683563232
v 6.9160475730896 5.433903694152832 -1.9081332683563232
v 9.184850467946473e-16 8.333553314208984 -12.472043991088867
v 3.1802220344543457 9.056506156921387 -11.526745796203613
v 9.184850467946473e-16 10.60660171508789 -10.60660171508789
v 9.184850467946473e-16 12.472043991088867 -8.333553314208984
v 3.1802220344543457 11.526745796203613 -9.056506156921387
v 6.5682783126831055 9.535662651062012 -9.535662651062012
v 5.510910704284357e-16 8.314915657043457 -3.444150924682617
v 5.510910704284357e-16 8.827067375183105 -1.7558128833770752
v 1.8210124969482422 8.623678207397461 -1.8210124969482422
v 1.8761334419250488 7.996029376983643 -3.6801681518554688
v 3.6801681518554688 7.996029376983643 -1.8761334419250488
v 9.184850467946473e-16 13.858193397521973 -5.740251541137695
v 3.1268889904022217 13.326715469360352 -6.133613586425781
v 9.184850467946473e-16 14.711779594421387 -2.9263548851013184
v 3.0350208282470703 14.372797012329102 -3.0350208282470703
v 6.446493625640869 11.911567687988281 -6.446493625640869
v 6.133613586425781 13.326715469360352 -3.1268889904022217
v 8.333553314208984 9.184850467946473e-16 -12.472043991088867
v 9.056506156921387 3.1802220344543457 -11.526745796203613
v 10.60660171508789 9.184850467946473e-16 -10.60660171508789
v 9.535662651062012 6.5682783126831055 -9.535662651062012
v 12.472043991088867 9.184850467946473e-16 -8.333553314208984
v 11.526745796203613 3.1802220344543457 -9.056506156921387
v 8.314915657043457 5.510910704284357e-16 -3.444150924682617
v 8.827067375183105 5.510910704284357e-16 -1.7558128833770752
v 8.623678207397461 1.8210124969482422 -1.8210124969482422
v 7.996029376983643 1.8761334419250488 -3.6801681518554688
v 7.996029376983643 3.6801681518554688 -1.8761334419250488
v 13.858193397521973 9.184850467946473e-16 -5.740251541137695
v 13.326715469360352 3.1268889904022217 -6.133613586425781
v 14.711779594421387 9.184850467946473e-16 -2.9263548851013184
v 14.372797012329102 3.0350208282470703 -3.0350208282470703
v 11.911567687988281 6.446493625640869 -6.446493625640869
v 13.326715469360352 6.133613586425781 -3.1268889904022217
v 9.535662651062012 9.535662651062012 -6.5682783126831055
v 9.056506156921387 11.526745796203613 -3.1802220344543457
v 11.526745796203613 9.056506156921387 -3.1802220344543457
v 5.510910704284357e-16 5.000132083892822 7.483226299285889
v 5.510910704284357e-16 7.483226299285889 5.000132083892822
v 5.510910704284357e-16 6.363961219787598 6.363961219787598
v 1.9081332683563232 5.433903694152832 6.9160475730896
v 1.9081332683563232 6.9160475730896 5.433903694152832
v 5.000132083892822 5.510910704284357e-16 7.483226299285889
v 5.433903694152832 1.9081332683563232 6.9160475730896
v 7.483226299285889 5.510910704284357e-16 5.000132083892822
v 6.363961219787598 5.510910704284357e-16 6.363961219787598
v 6.9160475730896 1.9081332683563232 5.433903694152832
v 5.000132083892822 7.483226299285889 5.510910704284357e-16
v 5.433903694152832 6.9160475730896 1.9081332683563232
v 7.483226299285889 5.000132083892822 5.510910704284357e-16
v 6.9160475730896 5.433903694152832 1.9081332683563232
v 6.363961219787598 6.363961219787598 5.510910704284357e-16
v 3.867896318435669 3.867896318435669 7.146940231323242
v 3.867896318435669 7.146940231323242 3.867896318435669
v 3.940967082977295 5.721397399902344 5.721397399902344
v 7.146940231323242 3.867896318435669 3.867896318435669
v 5.721397399902344 3.940967082977295 5.721397399902344
v 5.721397399902344 5.721397399902344 3.940967082977295
v 5.510910704284357e-16 5.510910704284357e-16 9
v 5.510910704284357e-16 1.7558128833770752 8.827067375183105
v 1.7558128833770752 5.510910704284357e-16 8.827067375183105
v 1.8210124969482422 1.8210124969482422 8.623678207397461
v 5.510910704284357e-16 3.444150924682617 8.314915657043457
v 3.444150924682617 5.510910704284357e-16 8.314915657043457
v 1.8761334419250488 3.6801681518554688 7.996029376983643
v 3.6801681518554688 1.8761334419250488 7.996029376983643
v 9.184850467946473e-16 9.184850467946473e-16 15
v 9.184850467946473e-16 2.9263548851013184 14.711779594421387
v 2.9263548851013184 9.184850467946473e-16 14.711779594421387
v 3.0350208282470703 3.0350208282470703 14.372797012329102
v 9.184850467946473e-16 5.740251541137695 13.858193397521973
v 3.1268889904022217 6.133613586425781 13.326715469360352
v 5.740251541137695 9.184850467946473e-16 13.858193397521973
v 6.133613586425781 3.1268889904022217 13.326715469360352
v 6.446493625640869 6.446493625640869 11.911567687988281
v 5.510910704284357e-16 9 5.510910704284357e-16
v 5.510910704284357e-16 8.827067375183105 1.7558128833770752
v 1.7558128833770752 8.827067375183105 5.510910704284357e-16
v 1.8210124969482422 8.623678207397461 1.8210124969482422
v 5.510910704284357e-16 8.314915657043457 3.444150924682617
v 3.444150924682617 8.314915657043457 5.510910704284357e-16
v 1.8761334419250488 7.996029376983643 3.6801681518554688
v 3.6801681518554688 7.996029376983643 1.8761334419250488
v 9.184850467946473e-16 15 9.184850467946473e-16
v 9.184850467946473e-16 14.711779594421387 2.9263548851013184
v 2.9263548851013184 14.711779594421387 9.184850467946473e-16
v 3.0350208282470703 14.372797012329102 3.0350208282470703
v 9.184850467946473e-16 13.858193397521973 5.740251541137695
v 3.1268889904022217 13.326715469360352 6.133613586425781
v 5.740251541137695 13.858193397521973 9.184850467946473e-16
v 6.133613586425781 13.326715469360352 3.1268889904022217
v 6.446493625640869 11.911567687988281 6.446493625640869
v 9.184850467946473e-16 10.60660171508789 10.60660171508789
v 9.184850467946473e-16 8.333553314208984 12.472043991088867
v 3.1802220344543457 9.056506156921387 11.526745796203613
v 9.184850467946473e-16 12.472043991088867 8.333553314208984
v 3.1802220344543457 11.526745796203613 9.056506156921387
v 6.5682783126831055 9.535662651062012 9.535662651062012
v 9 5.510910704284357e-16 5.510910704284357e-16
v 8.827067375183105 5.510910704284357e-16 1.7558128833770752
v 8.827067375183105 1.7558128833770752 5.510910704284357e-16
v 8.623678207397461 1.8210124969482422 1.8210124969482422
v 8.314915657043457 5.510910704284357e-16 3.444150924682617
v 8.314915657043457 3.444150924682617 5.510910704284357e-16
v 7.996029376983643 1.8761334419250488 3.6801681518554688
v 7.996029376983643 3.6801681518554688 1.8761334419250488
v 15 9.184850467946473e-16 9.184850467946473e-16
v 14.711779594421387 9.184850467946473e-16 2.9263548851013184
v 14.711779594421387 2.9263548851013184 9.184850467946473e-16
v 14.372797012329102 3.0350208282470703 3.0350208282470703
v 13.858193397521973 9.184850467946473e-16 5.740251541137695
v 13.326715469360352 3.1268889904022217 6.133613586425781
v 13.858193397521973 5.740251541137695 9.184850467946473e-16
v 13.326715469360352 6.133613586425781 3.1268889904022217
v 11.911567687988281 6.446493625640869 6.446493625640869
v 10.60660171508789 9.184850467946473e-16 10.60660171508789
v 8.333553314208984 9.184850467946473e-16 12.472043991088867
v 9.056506156921387 3.1802220344543457 11.526745796203613
v 9.535662651062012 6.5682783126831055 9.535662651062012
v 12.472043991088867 9.184850467946473e-16 8.333553314208984
v 11.526745796203613 3.1802220344543457 9.056506156921387
v 10.60660171508789 10.60660171508789 9.184850467946473e-16
v 9.535662651062012 9.535662651062012 6.5682783126831055
v 8.333553314208984 12.472043991088867 9.184850467946473e-16
v 9.056506156921387 11.526745796203613 3.1802220344543457
v 12.472043991088867 8.333553314208984 9.184850467946473e-16
v 11.526745796203613 9.056506156921387 3.1802220344543457
vn -0.7642260588618598 -0.6011713584896329 -0.2335626868491594
vn -0.6011713584896329 -0.7642260588618598 -0.2335626868491594
vn -0.632736607833491 -0.632736607833491 -0.4464177082226172
vn -0.7642260588618598 -0.2335626868491594 -0.6011713584896329
vn -0.632736607833491 -0.4464177082226172 -0.632736607833491
vn -0.6011713183342331 -0.23356270930659886 -0.7642260835862914
vn -0.7871379215425054 -0.43612721336196425 -0.43612721336196425
vn -0.884150673642007 -0.40994393350844655 -0.2241061303891694
vn -0.884150673642007 -0.2241061303891694 -0.40994393350844655
vn -0.9554945214166302 -0.20860275590557875 -0.20860275590557875
vn 0.8841506873964938 0.4099439100835081 0.22410611897436508
vn 0.8841506873964938 0.22410611897436508 0.4099439100835081
vn 0.9554945800654818 0.20860263648762162 0.2086026066852993
vn -0.4464177082226172 -0.632736607833491 -0.632736607833491
vn -0.23356270930659886 -0.7642260835862914 -0.6011713183342331
vn -0.23356270930659886 -0.6011713183342331 -0.7642260835862914
vn -0.43612721336196425 -0.7871379215425054 -0.43612721336196425
vn -0.40994395693338403 -0.8841506598875201 -0.22410614180397326
vn -0.2241061303891694 -0.884150673642007 -0.40994393350844655
vn -0.20860275590557875 -0.9554945214166302 -0.20860275590557875
vn 0.4099439100835081 0.8841506873964938 0.22410611897436508
vn 0.22410611897436508 0.8841506873964938 0.4099439100835081
vn 0.20860263648762162 0.9554945800654818 0.2086026066852993
vn -0.43612721336196425 -0.43612721336196425 -0.7871379215425054
vn -0.40994395693338403 -0.22410614180397326 -0.8841506598875201
vn -0.22410614180397326 -0.40994395693338403 -0.8841506598875201
vn -0.20860275590557875 -0.20860275590557875 -0.9554945214166302
vn 0.4099439100835081 0.22410611897436508 0.8841506873964938
vn 0.22410611897436508 0.4099439100835081 0.8841506873964938
vn 0.20860263648762162 0.2086026066852993 0.9554945800654818
vn 0.6327365707006265 0.6327365707006265 0.4464178134842093
vn 0.6327365707006265 0.4464178134842093 0.6327365707006265
vn 0.7871378250390892 0.43612731534951216 0.4361272855471891
vn 0.4464178134842093 0.6327365707006265 0.6327365707006265
vn 0.43612731534951216 0.7871378250390892 0.4361272855471891
vn 0.43612731534951216 0.4361272855471891 0.7871378250390892
vn 0.7642260428345566 0.6011713331647003 0.23356280447539404
vn 0.6011713331647003 0.7642260428345566 0.23356280447539404
vn 0.764226040174777 0.23356281856367364 0.6011713310724094
vn 0.6011713331647003 0.23356280447539404 0.7642260428345566
vn 0.23356281856367364 0.764226040174777 0.6011713310724094
vn 0.23356281856367364 0.6011713310724094 0.764226040174777
vn -0.8391566797652508 -0.5438897561136451 1.0730064518776676e-9
vn -0.7642260835862914 -0.6011713183342331 0.23356270930659886
vn -0.5438897561136451 -0.8391566797652508 1.0730064518776676e-9
vn -0.6011713183342331 -0.7642260835862914 0.23356270930659886
vn -0.7071067513842252 -0.7071068109888685 -2.533611590387111e-10
vn -0.6327366232784363 -0.6327365636737915 0.4464177489218863
vn -0.9329769044524542 -0.35993623846219786 -4.835970181125774e-11
vn -0.8841506844439242 -0.40994390871452435 0.22410613312713698
vn -0.7871379215425054 -0.43612721336196425 0.43612721336196425
vn -0.9861362714732422 -0.16593750053816034 -2.9098466267013943e-9
vn -0.9554945154764671 -0.20860276950988846 0.20860276950988846
vn -0.884150673642007 -0.2241061303891694 0.40994393350844655
vn 0.9329769421984243 0.3599361406223028 -3.7232238757949866e-9
vn 0.8841506873964938 0.4099439100835081 -0.22410611897436508
vn 0.8841506873964938 0.22410611897436508 -0.4099439100835081
vn 0.9861362739116233 0.16593748604730613 1.2994932011604114e-9
vn 0.9554945681851628 0.20860264879508303 -0.20860264879508303
vn -0.7642260835862914 -0.23356270930659886 0.6011713183342331
vn -0.6327366232784363 -0.4464177489218863 0.6327365636737915
vn -0.6011713584896329 -0.2335626868491594 0.7642260588618598
vn -0.35993623846219786 -0.9329769044524542 -4.835970181125774e-11
vn -0.40994390871452435 -0.8841506844439242 0.22410613312713698
vn -0.43612721336196425 -0.7871379215425054 0.43612721336196425
vn -0.16593750053816034 -0.9861362714732422 -2.9098466267013943e-9
vn -0.20860276950988846 -0.9554945154764671 0.20860276950988846
vn -0.2241061303891694 -0.884150673642007 0.40994393350844655
vn 0.3599361406223028 0.9329769421984243 2.1257850603528003e-9
vn 0.4099439100835081 0.8841506873964938 -0.22410611897436508
vn 0.22410611897436508 0.8841506873964938 -0.4099439100835081
vn 0.16593748604730613 0.9861362739116233 1.2994932011604114e-9
vn 0.20860264879508303 0.9554945681851628 -0.20860264879508303
vn -0.4464177489218863 -0.6327366232784363 0.6327365636737915
vn -0.23356270930659886 -0.7642260835862914 0.6011713183342331
vn -0.2335626868491594 -0.6011713584896329 0.7642260588618598
vn 0.7071067811865476 0.7071067811865476 2.7544569874531455e-10
vn 0.83915670696933 0.5438897141410101 -6.974540553484592e-10
vn 0.7642260649678382 0.6011713036882006 -0.23356280792455525
vn 0.5438897141410101 0.83915670696933 -6.974540553484592e-10
vn 0.6011713036882006 0.7642260649678382 -0.23356280792455525
vn 0.6327365707006265 0.6327365707006265 -0.4464178134842093
vn 0.7871378579444395 0.4361272707539849 -0.4361272707539849
vn 0.6327365707006265 0.4464178134842093 -0.6327365707006265
vn 0.4361272707539849 0.7871378579444395 -0.4361272707539849
vn 0.4464178134842093 0.6327365707006265 -0.6327365707006265
vn 0.4361272707539849 0.4361272707539849 -0.7871378579444395
vn 0.764226070287397 0.23356277974799702 -0.601171307872782
vn 0.6011713331647003 0.23356280447539404 -0.7642260428345566
vn 0.23356277974799702 0.764226070287397 -0.601171307872782
vn 0.23356281856367364 0.6011713310724094 -0.764226040174777
vn -0.43612721336196425 -0.43612721336196425 0.7871379215425054
vn -0.40994395830236785 -0.22410612765120178 0.8841506628400895
vn -0.22410612765120178 -0.40994395830236785 0.8841506628400895
vn 0.4099439610403355 0.22410609934565845 -0.8841506687452281
vn 0.22410609934565845 0.4099439610403355 -0.8841506687452281
vn 0.20860263648762162 0.2086026066852993 -0.9554945800654818
vn -0.20860275590557875 -0.20860275590557875 0.9554945214166302
vn -0.8391566797652508 1.0730064518776676e-9 -0.5438897561136451
vn -0.7642260835862914 0.23356270930659886 -0.6011713183342331
vn -0.5438897561136451 1.0730064518776676e-9 -0.8391566797652508
vn -0.6011713183342331 0.23356270930659886 -0.7642260835862914
vn -0.7071067513842252 -2.533611590387111e-10 -0.7071068109888685
vn -0.6327366232784363 0.4464177489218863 -0.6327365636737915
vn -0.9329769144604373 -4.835970579945615e-11 -0.35993621252088787
vn -0.8841506844439242 0.22410613312713698 -0.40994390871452435
vn -0.9861362714732422 -3.708519321442147e-9 -0.16593750053816034
vn -0.9554945154764671 0.20860276950988846 -0.20860276950988846
vn -0.7871378784062543 0.43612725228888244 -0.43612725228888244
vn -0.884150673642007 0.40994393350844655 -0.2241061303891694
vn 0.9329769421984243 -3.7232238757949866e-9 0.3599361406223028
vn 0.9861362739116233 2.09435072741127e-9 0.16593748604730613
vn 0.9554945681851628 -0.20860264879508303 0.20860264879508303
vn 0.8841506933016324 -0.2241060906688208 0.40994391282147535
vn 0.8841506873964938 -0.4099439100835081 0.22410611897436508
vn -0.7642260835862914 0.6011713183342331 -0.23356270930659886
vn -0.6327366232784363 0.6327365636737915 -0.4464177489218863
vn -0.6011713584896329 0.7642260588618598 -0.2335626868491594
vn -0.35993623846219786 -4.835970181125774e-11 -0.9329769044524542
vn -0.40994390871452435 0.22410613312713698 -0.8841506844439242
vn -0.43612721336196425 0.43612721336196425 -0.7871379215425054
vn -0.16593750053816034 -2.9098466267013943e-9 -0.9861362714732422
vn -0.20860276950988846 0.20860276950988846 -0.9554945154764671
vn 0.3599361406223028 2.1257850603528003e-9 0.9329769421984243
vn 0.4099439100835081 -0.22410611897436508 0.8841506873964938
vn 0.22410611897436508 -0.4099439100835081 0.8841506873964938
vn 0.16593748604730613 1.2994932011604114e-9 0.9861362739116233
vn 0.20860264879508303 -0.20860264879508303 0.9554945681851628
vn -0.2241061303891694 0.40994393350844655 -0.884150673642007
vn 0.7071067811865476 2.7544569874531455e-10 0.7071067811865476
vn 0.83915670696933 -6.974540553484592e-10 0.5438897141410101
vn 0.7642260428345566 -0.23356280447539404 0.6011713331647003
vn 0.5438897141410101 -6.974540553484592e-10 0.83915670696933
vn 0.6011713036882006 -0.23356280792455525 0.7642260649678382
vn 0.6327365707006265 -0.4464178134842093 0.6327365707006265
vn 0.7871378579444395 -0.4361272707539849 0.4361272707539849
vn 0.6327365707006265 -0.6327365707006265 0.4464178134842093
vn 0.4361272707539849 -0.4361272707539849 0.7871378579444395
vn 0.4464178134842093 -0.6327365707006265 0.6327365707006265
vn 0.4361272707539849 -0.7871378579444395 0.4361272707539849
vn 0.764226070287397 -0.601171307872782 0.23356277974799702
vn 0.6011713331647003 -0.7642260428345566 0.23356280447539404
vn 0.23356277974799702 -0.601171307872782 0.764226070287397
vn 0.23356281856367364 -0.764226040174777 0.6011713310724094
vn -0.4464177489218863 0.6327365636737915 -0.6327366232784363
vn -0.23356270930659886 0.6011713183342331 -0.7642260835862914
vn -0.2335626868491594 0.7642260588618598 -0.6011713584896329
vn -0.43612721336196425 0.7871379215425054 -0.43612721336196425
vn -0.40994395830236785 0.8841506628400895 -0.22410612765120178
vn 0.4099439610403355 -0.8841506687452281 0.22410609934565845
vn 0.22410609934565845 -0.8841506687452281 0.4099439610403355
vn 0.20860263648762162 -0.9554945800654818 0.2086026066852993
vn -0.22410612765120178 0.8841506628400895 -0.40994395830236785
vn -0.20860275590557875 0.9554945214166302 -0.20860275590557875
vn -1 6.885156889069322e-10 6.885156889069322e-10
vn -0.9861362714732422 -2.4566868883872382e-9 0.16593750053816034
vn -0.9861362763500041 0.16593747155645183 2.0125799186956443e-9
vn -0.9554945214166302 0.20860275590557875 0.20860275590557875
vn -0.9329769144604373 2.065917465751348e-9 0.35993621252088787
vn -0.884150673642007 0.2241061303891694 0.40994393350844655
vn -0.9329769144604373 0.35993621252088787 1.1155315714764667e-9
vn -0.8841506598875201 0.40994395693338403 0.22410614180397326
vn -0.7871378784062543 0.43612725228888244 0.43612725228888244
vn 1 -3.929780667544236e-10 -3.929780667544236e-10
vn 0.9861362739116233 6.949676504535015e-10 -0.16593748604730613
vn 0.9861362739116233 -0.16593748604730613 -2.4086899539142475e-9
vn 0.9554945681851628 -0.20860264879508303 -0.20860264879508303
vn 0.9329769421984243 2.3047456808178944e-9 -0.3599361406223028
vn 0.9329769421984243 -0.3599361406223028 2.3047456808178944e-9
vn 0.8841506873964938 -0.22410611897436508 -0.4099439100835081
vn 0.8841506873964938 -0.4099439100835081 -0.22410611897436508
vn -0.8391566797652508 -8.217135926024577e-11 0.5438897561136451
vn -0.7642260588618598 0.2335626868491594 0.6011713584896329
vn -0.7071067811865476 4.036949177421964e-10 0.7071067811865476
vn -0.5438897561136451 1.0730064518776676e-9 0.8391566797652508
vn -0.6011713183342331 0.23356270930659886 0.7642260835862914
vn -0.6327366232784363 0.4464177489218863 0.6327365636737915
vn -0.8391566797652508 0.5438897561136451 -8.217135926024577e-11
vn -0.7642260588618598 0.6011713584896329 0.2335626868491594
vn -0.7071067811865476 0.7071067811865476 4.036949177421964e-10
vn -0.6327366232784363 0.6327365636737915 0.4464177489218863
vn -0.5438897561136451 0.8391566797652508 1.0730064518776676e-9
vn -0.6011713584896329 0.7642260588618598 0.2335626868491594
vn 0.83915670696933 -6.974540553484592e-10 -0.5438897141410101
vn 0.7071067811865476 1.6680481726019522e-9 -0.7071067811865476
vn 0.7642260649678382 -0.23356280792455525 -0.6011713036882006
vn 0.5438896449642935 -6.076675309860887e-10 -0.8391567518054149
vn 0.6011713036882006 -0.23356280792455525 -0.7642260649678382
vn 0.83915670696933 -0.5438897141410101 -6.974540553484592e-10
vn 0.764226070287397 -0.601171307872782 -0.23356277974799702
vn 0.7071067811865476 -0.7071067811865476 1.6680481726019522e-9
vn 0.5438896449642935 -0.8391567518054149 -6.076675309860887e-10
vn 0.6011713036882006 -0.7642260649678382 -0.23356280792455525
vn 0.7871378579444395 -0.4361272707539849 -0.4361272707539849
vn 0.6327366232784363 -0.4464177489218863 -0.6327365636737915
vn 0.6327366232784363 -0.6327365636737915 -0.4464177489218863
vn 0.43612729488769636 -0.43612726508537464 -0.7871378477135321
vn 0.43612729488769636 -0.7871378477135321 -0.43612726508537464
vn 0.4464178134842093 -0.6327365707006265 -0.6327365707006265
vn 0.23356277974799702 -0.601171307872782 -0.764226070287397
vn 0.23356277974799702 -0.764226070287397 -0.601171307872782
vn -0.35993623846219786 -4.835970181125774e-11 0.9329769044524542
vn -0.4099439100835081 0.22410611897436508 0.8841506873964938
vn -0.43612721336196425 0.43612721336196425 0.7871379215425054
vn 0.3599361406223028 2.1257850603528003e-9 -0.9329769421984243
vn 0.40994395967135167 -0.22410611349843015 -0.8841506657926588
vn 0.22410609934565845 -0.4099439610403355 -0.8841506687452281
vn 0.16593748604730613 1.2994932011604114e-9 -0.9861362739116233
vn 0.20860264879508303 -0.20860264879508303 -0.9554945681851628
vn -0.16593750053816034 -2.9098466267013943e-9 0.9861362714732422
vn -0.20860276950988846 0.20860276950988846 0.9554945154764671
vn -0.22410612765120178 0.40994395830236785 0.8841506628400895
vn -0.35993623846219786 0.9329769044524542 -4.835970181125774e-11
vn -0.4099439100835081 0.8841506873964938 0.22410611897436508
vn -0.43612721336196425 0.7871379215425054 0.43612721336196425
vn 0.3599361406223028 -0.9329769421984243 2.1257850603528003e-9
vn 0.40994395967135167 -0.8841506657926588 -0.22410611349843015
vn 0.22410609934565845 -0.8841506687452281 -0.4099439610403355
vn 0.16593748604730613 -0.9861362739116233 1.2994932011604114e-9
vn 0.20860264879508303 -0.9554945681851628 -0.20860264879508303
vn -0.16593750053816034 0.9861362714732422 -2.9098466267013943e-9
vn -0.20860276950988846 0.9554945154764671 0.20860276950988846
vn -0.22410612765120178 0.8841506628400895 0.40994395830236785
vn -0.4464177489218863 0.6327365636737915 0.6327366232784363
vn -0.23356271157655234 0.6011713837815535 0.76422603140902
vn -0.23356271157655234 0.76422603140902 0.6011713837815535
vn 1.0730064518776676e-9 -0.8391566797652508 -0.5438897561136451
vn 0.23356270930659886 -0.7642260835862914 -0.6011713183342331
vn 1.0730064518776676e-9 -0.5438897561136451 -0.8391566797652508
vn 0.23356270930659886 -0.6011713183342331 -0.7642260835862914
vn -2.533611590387111e-10 -0.7071067513842252 -0.7071068109888685
vn 0.4464177489218863 -0.6327366232784363 -0.6327365636737915
vn -4.835970579945615e-11 -0.9329769144604373 -0.35993621252088787
vn 0.22410613312713698 -0.8841506844439242 -0.40994390871452435
vn -3.708519321442147e-9 -0.9861362714732422 -0.16593750053816034
vn 0.20860276950988846 -0.9554945154764671 -0.20860276950988846
vn 2.1497680976439484e-9 0.9329769421984243 0.3599361406223028
vn 2.09435072741127e-9 0.9861362739116233 0.16593748604730613
vn -0.20860264879508303 0.9554945681851628 0.20860264879508303
vn -0.2241060906688208 0.8841506933016324 0.40994391282147535
vn -0.4099439100835081 0.8841506873964938 0.22410611897436508
vn 0.43612725228888244 -0.7871378784062543 -0.43612725228888244
vn 0.40994393350844655 -0.884150673642007 -0.2241061303891694
vn -4.835970579945615e-11 -0.35993621252088787 -0.9329769144604373
vn 0.22410613312713698 -0.40994390871452435 -0.8841506844439242
vn -3.708519321442147e-9 -0.16593750053816034 -0.9861362714732422
vn 0.20860276950988846 -0.20860276950988846 -0.9554945154764671
vn 2.1497680976439484e-9 0.3599361406223028 0.9329769421984243
vn 2.09435072741127e-9 0.16593748604730613 0.9861362739116233
vn -0.20860264879508303 0.20860264879508303 0.9554945681851628
vn -0.2241060906688208 0.40994391282147535 0.8841506933016324
vn -0.4099439100835081 0.22410611897436508 0.8841506873964938
vn 0.43612725228888244 -0.43612725228888244 -0.7871378784062543
vn 0.40994393350844655 -0.2241061303891694 -0.884150673642007
vn 2.7544569874531455e-10 0.7071067811865476 0.7071067811865476
vn -6.974540553484592e-10 0.83915670696933 0.5438897141410101
vn -6.974540553484592e-10 0.5438897141410101 0.83915670696933
vn -0.23356280447539404 0.7642260428345566 0.6011713331647003
vn -0.23356280447539404 0.6011713331647003 0.7642260428345566
vn -0.4464178134842093 0.6327365707006265 0.6327365707006265
vn -0.4361272707539849 0.7871378579444395 0.4361272707539849
vn -0.4361272707539849 0.4361272707539849 0.7871378579444395
vn -0.6327365707006265 0.6327365707006265 0.4464178134842093
vn -0.6327365707006265 0.4464178134842093 0.6327365707006265
vn -0.7871378579444395 0.4361272707539849 0.4361272707539849
vn -0.601171307872782 0.764226070287397 0.23356277974799702
vn -0.7642260428345566 0.6011713331647003 0.23356280447539404
vn -0.601171307872782 0.23356277974799702 0.764226070287397
vn -0.764226040174777 0.23356281856367364 0.6011713310724094
vn 0.6011713183342331 -0.7642260835862914 -0.23356270930659886
vn 0.6327365636737915 -0.6327366232784363 -0.4464177489218863
vn 0.7642260588618598 -0.6011713584896329 -0.2335626868491594
vn 0.6327365636737915 -0.4464177489218863 -0.6327366232784363
vn 0.6011713183342331 -0.23356270930659886 -0.7642260835862914
vn 0.7642260588618598 -0.2335626868491594 -0.6011713584896329
vn -0.8841506687452281 0.4099439610403355 0.22410609934565845
vn -0.8841506687452281 0.22410609934565845 0.4099439610403355
vn -0.9554945800654818 0.20860263648762162 0.2086026066852993
vn 0.7871379215425054 -0.43612721336196425 -0.43612721336196425
vn 0.8841506628400895 -0.40994395830236785 -0.22410612765120178
vn 0.8841506628400895 -0.22410612765120178 -0.40994395830236785
vn 0.9554945214166302 -0.20860275590557875 -0.20860275590557875
vn 6.885156889069322e-10 -1 6.885156889069322e-10
vn -2.4566868883872382e-9 -0.9861362714732422 0.16593750053816034
vn 0.16593747155645183 -0.9861362763500041 2.0125799186956443e-9
vn 0.20860275590557875 -0.9554945214166302 0.20860275590557875
vn 2.065917465751348e-9 -0.9329769144604373 0.35993621252088787
vn 0.2241061303891694 -0.884150673642007 0.40994393350844655
vn -3.929780667544236e-10 1 -3.929780667544236e-10
vn 6.949676504535015e-10 0.9861362739116233 -0.16593748604730613
vn -0.16593748604730613 0.9861362739116233 -2.4086899539142475e-9
vn -0.20860264879508303 0.9554945681851628 -0.20860264879508303
vn 2.3047456808178944e-9 0.9329769421984243 -0.3599361406223028
vn -0.3599361406223028 0.9329769421984243 2.3047456808178944e-9
vn -0.22410611897436508 0.8841506873964938 -0.4099439100835081
vn -0.4099439100835081 0.8841506873964938 -0.22410611897436508
vn 0.35993621252088787 -0.9329769144604373 1.1155315714764667e-9
vn 0.40994395693338403 -0.8841506598875201 0.22410614180397326
vn 0.43612725228888244 -0.7871378784062543 0.43612725228888244
vn -8.217135926024577e-11 -0.8391566797652508 0.5438897561136451
vn 0.2335626868491594 -0.7642260588618598 0.6011713584896329
vn 4.036949177421964e-10 -0.7071067811865476 0.7071067811865476
vn 1.0730064518776676e-9 -0.5438897561136451 0.8391566797652508
vn 0.23356270930659886 -0.6011713183342331 0.7642260835862914
vn 0.4464177489218863 -0.6327366232784363 0.6327365636737915
vn -6.974540553484592e-10 0.83915670696933 -0.5438897141410101
vn 1.6680481726019522e-9 0.7071067811865476 -0.7071067811865476
vn -6.076675309860887e-10 0.5438896449642935 -0.8391567518054149
vn -0.23356280792455525 0.7642260649678382 -0.6011713036882006
vn -0.23356280447539404 0.6011713331647003 -0.7642260428345566
vn -0.5438897141410101 0.83915670696933 -6.974540553484592e-10
vn -0.601171307872782 0.764226070287397 -0.23356277974799702
vn -0.7071067811865476 0.7071067811865476 1.6680481726019522e-9
vn -0.8391567518054149 0.5438896449642935 -6.076675309860887e-10
vn -0.7642260649678382 0.6011713036882006 -0.23356280792455525
vn -0.4361272707539849 0.7871378579444395 -0.4361272707539849
vn -0.4464177489218863 0.6327366232784363 -0.6327365636737915
vn -0.4361272707539849 0.4361272707539849 -0.7871378579444395
vn -0.6327365636737915 0.6327366232784363 -0.4464177489218863
vn -0.7871378477135321 0.43612729488769636 -0.43612726508537464
vn -0.6327365707006265 0.4464178134842093 -0.6327365707006265
vn -0.601171307872782 0.23356277974799702 -0.764226070287397
vn -0.764226070287397 0.23356277974799702 -0.601171307872782
vn -4.835970579945615e-11 -0.35993621252088787 0.9329769144604373
vn 0.22410611897436508 -0.4099439100835081 0.8841506873964938
vn 2.1497680976439484e-9 0.3599361406223028 -0.9329769421984243
vn 2.09435072741127e-9 0.16593748604730613 -0.9861362739116233
vn -0.20860264879508303 0.20860264879508303 -0.9554945681851628
vn -0.2241061303891694 0.40994393350844655 -0.884150673642007
vn -0.4099439610403355 0.22410609934565845 -0.8841506687452281
vn -3.708519321442147e-9 -0.16593750053816034 0.9861362714732422
vn 0.20860276950988846 -0.20860276950988846 0.9554945154764671
vn 0.43612725228888244 -0.43612725228888244 0.7871378784062543
vn 0.40994395830236785 -0.22410612765120178 0.8841506628400895
vn 0.5438897561136451 -0.8391566797652508 -8.217135926024577e-11
vn 0.6011713584896329 -0.7642260588618598 0.2335626868491594
vn 0.7071067811865476 -0.7071067811865476 4.036949177421964e-10
vn 0.6327365636737915 -0.6327366232784363 0.4464177489218863
vn 0.8391566797652508 -0.5438897561136451 1.0730064518776676e-9
vn 0.7642260588618598 -0.6011713584896329 0.2335626868491594
vn -0.9329769421984243 0.3599361406223028 2.1257850603528003e-9
vn -0.8841506657926588 0.40994395967135167 -0.22410611349843015
vn -0.8841506687452281 0.22410609934565845 -0.4099439610403355
vn -0.9861362739116233 0.16593748604730613 1.2994932011604114e-9
vn -0.9554945681851628 0.20860264879508303 -0.20860264879508303
vn 0.9329769044524542 -0.35993623846219786 -4.835970181125774e-11
vn 0.8841506873964938 -0.4099439100835081 0.22410611897436508
vn 0.7871379215425054 -0.43612721336196425 0.43612721336196425
vn 0.9861362714732422 -0.16593750053816034 -2.9098466267013943e-9
vn 0.9554945154764671 -0.20860276950988846 0.20860276950988846
vn 0.8841506628400895 -0.22410612765120178 0.40994395830236785
vn 0.6327365636737915 -0.4464177489218863 0.6327366232784363
vn 0.6011713837815535 -0.23356271157655234 0.76422603140902
vn 0.76422603140902 -0.23356271157655234 0.6011713837815535
vn 6.885156889069322e-10 6.885156889069322e-10 -1
vn -2.4566868883872382e-9 0.16593750053816034 -0.9861362714732422
vn 0.16593747155645183 2.0125799186956443e-9 -0.9861362763500041
vn 0.20860275590557875 0.20860275590557875 -0.9554945214166302
vn -3.929780667544236e-10 -3.929780667544236e-10 1
vn 6.949676504535015e-10 -0.16593748604730613 0.9861362739116233
vn -0.16593748604730613 -2.4086899539142475e-9 0.9861362739116233
vn -0.20860264879508303 -0.20860264879508303 0.9554945681851628
vn 2.3047456808178944e-9 -0.3599361406223028 0.9329769421984243
vn -0.3599361406223028 2.3047456808178944e-9 0.9329769421984243
vn -0.22410611897436508 -0.4099439100835081 0.8841506873964938
vn -0.4099439100835081 -0.22410611897436508 0.8841506873964938
vn 2.065917465751348e-9 0.35993621252088787 -0.9329769144604373
vn 0.2241061303891694 0.40994393350844655 -0.884150673642007
vn 0.35993621252088787 1.1155315714764667e-9 -0.9329769144604373
vn 0.40994395693338403 0.22410614180397326 -0.8841506598875201
vn 0.43612725228888244 0.43612725228888244 -0.7871378784062543
vn -6.974540553484592e-10 -0.5438897141410101 0.83915670696933
vn 1.6680481726019522e-9 -0.7071067811865476 0.7071067811865476
vn -6.076675309860887e-10 -0.8391567518054149 0.5438896449642935
vn -0.23356280792455525 -0.6011713036882006 0.7642260649678382
vn -0.23356280447539404 -0.7642260428345566 0.6011713331647003
vn -0.5438897141410101 -6.974540553484592e-10 0.83915670696933
vn -0.601171307872782 -0.23356277974799702 0.764226070287397
vn -0.7071067811865476 1.6680481726019522e-9 0.7071067811865476
vn -0.8391567518054149 -6.076675309860887e-10 0.5438896449642935
vn -0.7642260428345566 -0.23356280447539404 0.6011713331647003
vn -0.4361272707539849 -0.4361272707539849 0.7871378579444395
vn -0.4464177489218863 -0.6327365636737915 0.6327366232784363
vn -0.4361272707539849 -0.7871378579444395 0.4361272707539849
vn -0.6327365636737915 -0.4464177489218863 0.6327366232784363
vn -0.7871378579444395 -0.4361272707539849 0.4361272707539849
vn -0.6327365707006265 -0.6327365707006265 0.4464178134842093
vn -0.601171307872782 -0.764226070287397 0.23356277974799702
vn -0.764226070287397 -0.601171307872782 0.23356277974799702
vn -8.217135926024577e-11 0.5438897561136451 -0.8391566797652508
vn 0.2335626868491594 0.6011713584896329 -0.7642260588618598
vn 4.036949177421964e-10 0.7071067811865476 -0.7071067811865476
vn 1.0730064518776676e-9 0.8391566797652508 -0.5438897561136451
vn 0.23356270930659886 0.7642260835862914 -0.6011713183342331
vn 0.4464177489218863 0.6327365636737915 -0.6327366232784363
vn 2.1497680976439484e-9 -0.9329769421984243 0.3599361406223028
vn 2.09435072741127e-9 -0.9861362739116233 0.16593748604730613
vn -0.20860264879508303 -0.9554945681851628 0.20860264879508303
vn -0.2241061303891694 -0.884150673642007 0.40994393350844655
vn -0.4099439610403355 -0.8841506687452281 0.22410609934565845
vn -4.835970579945615e-11 0.9329769144604373 -0.35993621252088787
vn 0.22410611897436508 0.8841506873964938 -0.4099439100835081
vn -3.708519321442147e-9 0.9861362714732422 -0.16593750053816034
vn 0.20860276950988846 0.9554945154764671 -0.20860276950988846
vn 0.43612725228888244 0.7871378784062543 -0.43612725228888244
vn 0.40994395830236785 0.8841506628400895 -0.22410612765120178
vn 0.5438897561136451 -8.217135926024577e-11 -0.8391566797652508
vn 0.6011713584896329 0.2335626868491594 -0.7642260588618598
vn 0.7071067811865476 4.036949177421964e-10 -0.7071067811865476
vn 0.6327365636737915 0.4464177489218863 -0.6327366232784363
vn 0.8391566797652508 1.0730064518776676e-9 -0.5438897561136451
vn 0.7642260588618598 0.2335626868491594 -0.6011713584896329
vn -0.9329769421984243 2.1257850603528003e-9 0.3599361406223028
vn -0.9861362739116233 2.09435072741127e-9 0.16593748604730613
vn -0.9554945681851628 -0.20860264879508303 0.20860264879508303
vn -0.884150673642007 -0.2241061303891694 0.40994393350844655
vn -0.8841506687452281 -0.4099439610403355 0.22410609934565845
vn 0.9329769144604373 -4.835970579945615e-11 -0.35993621252088787
vn 0.8841506873964938 0.22410611897436508 -0.4099439100835081
vn 0.9861362714732422 -3.708519321442147e-9 -0.16593750053816034
vn 0.9554945154764671 0.20860276950988846 -0.20860276950988846
vn 0.7871378784062543 0.43612725228888244 -0.43612725228888244
vn 0.8841506628400895 0.40994395830236785 -0.22410612765120178
vn 0.6327365636737915 0.6327366232784363 -0.4464177489218863
vn 0.6011713837815535 0.76422603140902 -0.23356271157655234
vn 0.76422603140902 0.6011713837815535 -0.23356271157655234
vn -6.076675309860887e-10 -0.5438896449642935 -0.8391567518054149
vn -6.076675309860887e-10 -0.8391567518054149 -0.5438896449642935
vn 3.0412286543335846e-9 -0.7071067811865476 -0.7071067811865476
vn -0.23356280792455525 -0.6011713036882006 -0.7642260649678382
vn -0.23356280792455525 -0.7642260649678382 -0.6011713036882006
vn -0.5438896449642935 -6.076675309860887e-10 -0.8391567518054149
vn -0.601171307872782 -0.23356277974799702 -0.764226070287397
vn -0.8391567518054149 -6.076675309860887e-10 -0.5438896449642935
vn -0.7071067811865476 3.0412286543335846e-9 -0.7071067811865476
vn -0.7642260649678382 -0.23356280792455525 -0.6011713036882006
vn -0.5438896449642935 -0.8391567518054149 -6.076675309860887e-10
vn -0.601171307872782 -0.764226070287397 -0.23356277974799702
vn -0.8391567518054149 -0.5438896449642935 -6.076675309860887e-10
vn -0.764226070287397 -0.601171307872782 -0.23356277974799702
vn -0.7071067811865476 -0.7071067811865476 3.0412286543335846e-9
vn -0.43612726508537464 -0.43612729488769636 -0.7871378477135321
vn -0.43612726508537464 -0.7871378477135321 -0.43612729488769636
vn -0.4464177489218863 -0.6327365636737915 -0.6327366232784363
vn -0.7871378477135321 -0.43612726508537464 -0.43612729488769636
vn -0.6327365636737915 -0.4464177489218863 -0.6327366232784363
vn -0.6327365636737915 -0.6327366232784363 -0.4464177489218863
vn -3.929780667544236e-10 -3.929780667544236e-10 -1
vn 6.949676504535015e-10 -0.16593748604730613 -0.9861362739116233
vn -0.16593748604730613 -2.4086899539142475e-9 -0.9861362739116233
vn -0.20860264879508303 -0.20860264879508303 -0.9554945681851628
vn 2.3047456808178944e-9 -0.3599361406223028 -0.9329769421984243
vn -0.3599361406223028 2.3047456808178944e-9 -0.9329769421984243
vn -0.22410611349843015 -0.40994395967135167 -0.8841506657926588
vn -0.40994395967135167 -0.22410611349843015 -0.8841506657926588
vn 6.885156889069322e-10 6.885156889069322e-10 1
vn -2.4566868883872382e-9 0.16593750053816034 0.9861362714732422
vn 0.16593747155645183 2.0125799186956443e-9 0.9861362763500041
vn 0.20860275590557875 0.20860275590557875 0.9554945214166302
vn 2.065917465751348e-9 0.35993621252088787 0.9329769144604373
vn 0.2241061303891694 0.40994393350844655 0.884150673642007
vn 0.35993621252088787 1.1155315714764667e-9 0.9329769144604373
vn 0.40994395693338403 0.22410614180397326 0.8841506598875201
vn 0.43612725228888244 0.43612725228888244 0.7871378784062543
vn -3.929780667544236e-10 -1 -3.929780667544236e-10
vn 6.949676504535015e-10 -0.9861362739116233 -0.16593748604730613
vn -0.16593748604730613 -0.9861362739116233 -2.4086899539142475e-9
vn -0.20860264879508303 -0.9554945681851628 -0.20860264879508303
vn 2.3047456808178944e-9 -0.9329769421984243 -0.3599361406223028
vn -0.3599361406223028 -0.9329769421984243 2.3047456808178944e-9
vn -0.22410611349843015 -0.8841506657926588 -0.40994395967135167
vn -0.40994395967135167 -0.8841506657926588 -0.22410611349843015
vn 6.885156889069322e-10 1 6.885156889069322e-10
vn -2.4566868883872382e-9 0.9861362714732422 0.16593750053816034
vn 0.16593747155645183 0.9861362763500041 2.0125799186956443e-9
vn 0.20860275590557875 0.9554945214166302 0.20860275590557875
vn 2.065917465751348e-9 0.9329769144604373 0.35993621252088787
vn 0.2241061162363977 0.8841506765945766 0.4099439348774304
vn 0.35993621252088787 0.9329769144604373 1.1155315714764667e-9
vn 0.40994395693338403 0.8841506598875201 0.22410614180397326
vn 0.43612725228888244 0.7871378784062543 0.43612725228888244
vn 4.036949007277279e-10 0.7071067513842252 0.7071068109888685
vn -8.217135926024577e-11 0.5438897561136451 0.8391566797652508
vn 0.23356270930659886 0.6011713183342331 0.7642260835862914
vn -8.217135926024577e-11 0.8391566797652508 0.5438897561136451
vn 0.23356270930659886 0.7642260835862914 0.6011713183342331
vn 0.44641776575810393 0.6327365875368447 0.6327365875368447
vn -1 -3.929780667544236e-10 -3.929780667544236e-10
vn -0.9861362739116233 6.949676504535015e-10 -0.16593748604730613
vn -0.9861362739116233 -0.16593748604730613 -2.4086899539142475e-9
vn -0.9554945681851628 -0.20860264879508303 -0.20860264879508303
vn -0.93297692446842 8.364976694913885e-10 -0.3599361865795771
vn -0.93297692446842 -0.3599361865795771 8.364976694913885e-10
vn -0.8841506657926588 -0.22410611349843015 -0.40994395967135167
vn -0.8841506657926588 -0.40994395967135167 -0.22410611349843015
vn 1 6.885156889069322e-10 6.885156889069322e-10
vn 0.9861362714732422 -2.4566868883872382e-9 0.16593750053816034
vn 0.9861362763500041 0.16593747155645183 2.0125799186956443e-9
vn 0.9554945214166302 0.20860275590557875 0.20860275590557875
vn 0.9329769144604373 2.065917465751348e-9 0.35993621252088787
vn 0.8841506765945766 0.2241061162363977 0.4099439348774304
vn 0.9329769144604373 0.35993621252088787 1.1155315714764667e-9
vn 0.8841506628400895 0.40994395830236785 0.22410612765120178
vn 0.7871378784062543 0.43612725228888244 0.43612725228888244
vn 0.7071067513842252 4.036949007277279e-10 0.7071068109888685
vn 0.5438897561136451 -8.217135926024577e-11 0.8391566797652508
vn 0.6011713183342331 0.23356270930659886 0.7642260835862914
vn 0.6327365875368447 0.44641776575810393 0.6327365875368447
vn 0.8391566797652508 -8.217135926024577e-11 0.5438897561136451
vn 0.7642260835862914 0.23356270930659886 0.6011713183342331
vn 0.7071067513842252 0.7071068109888685 4.036949007277279e-10
vn 0.6327365875368447 0.6327365875368447 0.44641776575810393
vn 0.5438897561136451 0.8391566797652508 -8.217135926024577e-11
vn 0.6011713183342331 0.7642260835862914 0.23356270930659886
vn 0.8391566797652508 0.5438897561136451 -8.217135926024577e-11
vn 0.7642260835862914 0.6011713183342331 0.23356270930659886
f 3//3 7//7 5//5
f 3//3 14//14 17//17
f 5//5 24//24 14//14
f 3//3 5//5 14//14
f 1//1 43//43 8//8
f 1//1 47//47 43//43
f 2//2 18//18 45//45
f 2//2 45//45 47//47
f 1//1 3//3 2//2
f 1//1 7//7 3//3
f 2//2 3//3 17//17
f 1//1 2//2 47//47
f 4//4 9//9 99//99
f 4//4 99//99 103//103
f 4//4 6//6 5//5
f 4//4 5//5 7//7
f 5//5 6//6 24//24
f 6//6 101//101 25//25
f 6//6 103//103 101//101
f 4//4 103//103 6//6
f 8//8 10//10 9//9
f 1//1 8//8 7//7
f 4//4 7//7 9//9
f 7//7 8//8 9//9
f 8//8 43//43 49//49
f 8//8 49//49 10//10
f 10//10 49//49 52//52
f 9//9 10//10 105//105
f 9//9 105//105 99//99
f 10//10 107//107 105//105
f 10//10 52//52 107//107
f 52//52 155//155 107//107
f 14//14 16//16 15//15
f 14//14 15//15 17//17
f 14//14 24//24 16//16
f 15//15 227//227 19//19
f 15//15 231//231 227//227
f 16//16 26//26 229//229
f 16//16 229//229 231//231
f 15//15 16//16 231//231
f 2//2 17//17 18//18
f 18//18 19//19 20//20
f 15//15 19//19 17//17
f 17//17 19//19 18//18
f 18//18 63//63 45//45
f 18//18 20//20 63//63
f 20//20 66//66 63//63
f 19//19 233//233 20//20
f 19//19 227//227 233//233
f 20//20 233//233 235//235
f 20//20 235//235 66//66
f 66//66 235//235 283//283
f 6//6 25//25 24//24
f 16//16 24//24 26//26
f 25//25 27//27 26//26
f 24//24 25//25 26//26
f 25//25 101//101 119//119
f 25//25 119//119 27//27
f 27//27 119//119 122//122
f 26//26 27//27 244//244
f 26//26 244//244 229//229
f 27//27 246//246 244//244
f 27//27 122//122 246//246
f 122//122 355//355 246//246
f 43//43 47//47 44//44
f 43//43 44//44 50//50
f 45//45 46//46 47//47
f 45//45 64//64 46//46
f 44//44 47//47 46//46
f 44//44 46//46 48//48
f 44//44 48//48 51//51
f 46//46 65//65 48//48
f 48//48 61//61 51//51
f 48//48 65//65 74//74
f 48//48 74//74 61//61
f 61//61 74//74 92//92
f 43//43 50//50 49//49
f 49//49 53//53 52//52
f 49//49 50//50 53//53
f 50//50 54//54 53//53
f 44//44 51//51 50//50
f 50//50 51//51 54//54
f 51//51 60//60 54//54
f 52//52 53//53 156//156
f 52//52 156//156 155//155
f 53//53 54//54 159//159
f 53//53 159//159 156//156
f 54//54 172//172 159//159
f 54//54 60//60 172//172
f 60//60 174//174 172//172
f 51//51 61//61 60//60
f 60//60 61//61 62//62
f 61//61 92//92 62//62
f 60//60 62//62 174//174
f 62//62 93//93 175//175
f 62//62 175//175 174//174
f 45//45 63//63 64//64
f 63//63 66//66 67//67
f 63//63 67//67 64//64
f 46//46 64//64 65//65
f 64//64 67//67 68//68
f 64//64 68//68 65//65
f 65//65 68//68 75//75
f 66//66 284//284 67//67
f 66//66 283//283 284//284
f 67//67 287//287 68//68
f 67//67 284//284 287//287
f 68//68 287//287 300//300
f 65//65 75//75 74//74
f 74//74 75//75 76//76
f 74//74 76//76 92//92
f 68//68 300//300 75//75
f 75//75 300//300 302//302
f 75//75 302//302 76//76
f 76//76 303//303 94//94
f 76//76 302//302 303//303
f 62//62 92//92 93//93
f 76//76 94//94 92//92
f 92//92 94//94 93//93
f 93//93 94//94 98//98
f 93//93 202//202 175//175
f 93//93 98//98 202//202
f 98//98 210//210 202//202
f 94//94 324//324 98//98
f 94//94 303//303 324//324
f 98//98 324//324 331//331
f 98//98 331//331 210//210
f 210//210 331//331 456//456
f 99//99 100//100 103//103
f 99//99 106//106 100//100
f 101//101 103//103 102//102
f 101//101 102//102 120//120
f 100//100 102//102 103//103
f 100//100 104//104 102//102
f 100//100 109//109 104//104
f 102//102 104//104 121//121
f 99//99 105//105 106//106
f 105//105 107//107 108//108
f 105//105 108//108 106//106
f 107//107 155//155 157//157
f 107//107 157//157 108//108
f 106//106 108//108 110//110
f 100//100 106//106 109//109
f 106//106 110//110 109//109
f 109//109 110//110 116//116
f 108//108 161//161 110//110
f 108//108 157//157 161//161
f 110//110 161//161 178//178
f 104//104 109//109 117//117
f 104//104 145//145 121//121
f 104//104 117//117 145//145
f 117//117 148//148 145//145
f 110//110 178//178 116//116
f 116//116 178//178 180//180
f 109//109 116//116 117//117
f 116//116 118//118 117//117
f 117//117 118//118 148//148
f 116//116 180//180 118//118
f 118//118 182//182 149//149
f 118//118 180//180 182//182
f 101//101 120//120 119//119
f 119//119 123//123 122//122
f 119//119 120//120 123//123
f 102//102 121//121 120//120
f 120//120 129//129 123//123
f 120//120 121//121 129//129
f 121//121 146//146 129//129
f 122//122 123//123 356//356
f 122//122 356//356 355//355
f 123//123 129//129 367//367
f 123//123 367//367 356//356
f 129//129 390//390 367//367
f 121//121 145//145 146//146
f 145//145 147//147 146//146
f 145//145 148//148 147//147
f 129//129 146//146 390//390
f 146//146 392//392 390//390
f 146//146 147//147 392//392
f 147//147 153//153 393//393
f 147//147 393//393 392//392
f 118//118 149//149 148//148
f 147//147 148//148 153//153
f 148//148 149//149 153//153
f 149//149 154//154 153//153
f 149//149 182//182 213//213
f 149//149 213//213 154//154
f 154//154 213//213 221//221
f 153//153 154//154 401//401
f 153//153 401//401 393//393
f 154//154 403//403 401//401
f 154//154 221//221 403//403
f 221//221 473//473 403//403
f 155//155 156//156 157//157
f 156//156 158//158 157//157
f 156//156 159//159 158//158
f 159//159 172//172 160//160
f 158//158 159//159 160//160
f 157//157 158//158 161//161
f 158//158 162//162 161//161
f 161//161 162//162 178//178
f 158//158 160//160 162//162
f 160//160 163//163 162//162
f 160//160 173//173 163//163
f 162//162 163//163 179//179
f 172//172 174//174 173//173
f 160//160 172//172 173//173
f 173//173 174//174 176//176
f 174//174 175//175 176//176
f 175//175 203//203 176//176
f 163//163 173//173 177//177
f 173//173 176//176 177//177
f 176//176 204//204 177//177
f 178//178 179//179 180//180
f 162//162 179//179 178//178
f 179//179 183//183 180//180
f 163//163 181//181 179//179
f 179//179 181//181 183//183
f 181//181 215//215 183//183
f 180//180 183//183 182//182
f 182//182 183//183 214//214
f 163//163 177//177 181//181
f 177//177 224//224 181//181
f 177//177 204//204 224//224
f 181//181 224//224 215//215
f 175//175 202//202 203//203
f 202//202 210//210 211//211
f 202//202 211//211 203//203
f 176//176 203//203 204//204
f 203//203 212//212 204//204
f 203//203 211//211 212//212
f 204//204 212//212 225//225
f 210//210 457//457 211//211
f 210//210 456//456 457//457
f 211//211 460//460 212//212
f 211//211 457//457 460//460
f 212//212 460//460 483//483
f 182//182 214//214 213//213
f 213//213 222//222 221//221
f 213//213 214//214 222//222
f 183//183 215//215 214//214
f 214//214 215//215 223//223
f 215//215 226//226 223//223
f 214//214 223//223 222//222
f 221//221 222//222 474//474
f 221//221 474//474 473//473
f 222//222 223//223 477//477
f 222//222 477//477 474//474
f 223//223 485//485 477//477
f 204//204 225//225 224//224
f 215//215 224//224 226//226
f 224//224 225//225 226//226
f 225//225 482//482 226//226
f 212//212 483//483 225//225
f 225//225 483//483 482//482
f 223//223 226//226 485//485
f 226//226 482//482 485//485
f 227//227 231//231 228//228
f 227//227 228//228 234//234
f 229//229 230//230 231//231
f 229//229 245//245 230//230
f 228//228 231//231 230//230
f 228//228 230//230 232//232
f 228//228 232//232 242//242
f 230//230 253//253 232//232
f 227//227 234//234 233//233
f 233//233 236//236 235//235
f 233//233 234//234 236//236
f 235//235 285//285 283//283
f 235//235 236//236 285//285
f 234//234 243//243 236//236
f 228//228 242//242 234//234
f 234//234 242//242 243//243
f 242//242 270//270 243//243
f 236//236 243//243 297//297
f 236//236 297//297 285//285
f 243//243 335//335 297//297
f 229//229 244//244 245//245
f 244//244 246//246 247//247
f 244//244 247//247 245//245
f 246//246 355//355 357//357
f 246//246 357//357 247//247
f 230//230 245//245 253//253
f 245//245 247//247 254//254
f 245//245 254//254 253//253
f 253//253 254//254 274//274
f 247//247 369//369 254//254
f 247//247 357//357 369//369
f 254//254 369//369 407//407
f 232//232 271//271 242//242
f 232//232 253//253 273//273
f 232//232 273//273 271//271
f 271//271 273//273 279//279
f 243//243 270//270 335//335
f 270//270 337//337 335//335
f 242//242 271//271 270//270
f 270//270 271//271 272//272
f 271//271 279//279 272//272
f 270//270 272//272 337//337
f 272//272 280//280 339//339
f 272//272 339//339 337//337
f 253//253 274//274 273//273
f 273//273 274//274 275//275
f 273//273 275//275 279//279
f 254//254 407//407 274//274
f 274//274 407//407 409//409
f 274//274 409//409 275//275
f 275//275 411//411 281//281
f 275//275 409//409 411//411
f 272//272 279//279 280//280
f 275//275 281//281 279//279
f 279//279 281//281 280//280
f 280//280 281//281 282//282
f 280//280 346//346 339//339
f 280//280 282//282 346//346
f 282//282 349//349 346//346
f 281//281 418//418 282//282
f 281//281 411//411 418//418
f 282//282 418//418 420//420
f 282//282 420//420 349//349
f 349//349 420//420 496//496
f 283//283 285//285 284//284
f 284//284 285//285 286//286
f 284//284 286//286 287//287
f 287//287 288//288 300//300
f 286//286 288//288 287//287
f 285//285 297//297 286//286
f 286//286 297//297 298//298
f 297//297 335//335 298//298
f 286//286 298//298 288//288
f 288//288 298//298 299//299
f 288//288 299//299 301//301
f 298//298 336//336 299//299
f 300//300 301//301 302//302
f 288//288 301//301 300//300
f 301//301 304//304 302//302
f 302//302 304//304 303//303
f 303//303 304//304 325//325
f 299//299 305//305 301//301
f 301//301 305//305 304//304
f 304//304 305//305 333//333
f 303//303 325//325 324//324
f 324//324 332//332 331//331
f 324//324 325//325 332//332
f 331//331 458//458 456//456
f 331//331 332//332 458//458
f 304//304 333//333 325//325
f 325//325 333//333 334//334
f 325//325 334//334 332//332
f 333//333 353//353 334//334
f 332//332 334//334 462//462
f 332//332 462//462 458//458
f 334//334 506//506 462//462
f 335//335 337//337 336//336
f 298//298 335//335 336//336
f 336//336 337//337 340//340
f 299//299 336//336 338//338
f 336//336 340//340 338//338
f 338//338 340//340 348//348
f 337//337 339//339 340//340
f 339//339 347//347 340//340
f 299//299 338//338 305//305
f 305//305 338//338 352//352
f 305//305 352//352 333//333
f 338//338 348//348 352//352
f 339//339 346//346 347//347
f 346//346 349//349 350//350
f 346//346 350//350 347//347
f 340//340 347//347 348//348
f 347//347 351//351 348//348
f 348//348 351//351 354//354
f 347//347 350//350 351//351
f 349//349 497//497 350//350
f 349//349 496//496 497//497
f 350//350 500//500 351//351
f 350//350 497//497 500//500
f 351//351 500//500 509//509
f 333//333 352//352 353//353
f 348//348 354//354 352//352
f 352//352 354//354 353//353
f 353//353 354//354 505//505
f 334//334 353//353 506//506
f 353//353 505//505 506//506
f 351//351 509//509 354//354
f 354//354 509//509 505//505
f 355//355 356//356 357//357
f 356//356 358//358 357//357
f 356//356 367//367 358//358
f 367//367 390//390 368//368
f 358//358 367//367 368//368
f 357//357 358//358 369//369
f 358//358 370//370 369//369
f 369//369 370//370 407//407
f 358//358 368//368 370//370
f 368//368 371//371 370//370
f 368//368 391//391 371//371
f 370//370 371//371 408//408
f 390//390 392//392 391//391
f 368//368 390//390 391//391
f 391//391 392//392 394//394
f 392//392 393//393 394//394
f 393//393 402//402 394//394
f 371//371 391//391 395//395
f 391//391 394//394 395//395
f 394//394 405//405 395//395
f 393//393 401//401 402//402
f 401//401 403//403 404//404
f 401//401 404//404 402//402
f 403//403 473//473 475//475
f 403//403 475//475 404//404
f 394//394 402//402 405//405
f 402//402 406//406 405//405
f 402//402 404//404 406//406
f 405//405 406//406 425//425
f 404//404 479//479 406//406
f 404//404 475//475 479//479
f 406//406 479//479 513//513
f 407//407 408//408 409//409
f 370//370 408//408 407//407
f 408//408 412//412 409//409
f 371//371 410//410 408//408
f 408//408 410//410 412//412
f 410//410 422//422 412//412
f 409//409 412//412 411//411
f 411//411 412//412 419//419
f 411//411 419//419 418//418
f 418//418 421//421 420//420
f 418//418 419//419 421//421
f 420//420 498//498 496//496
f 420//420 421//421 498//498
f 412//412 422//422 419//419
f 419//419 422//422 423//423
f 422//422 426//426 423//423
f 419//419 423//423 421//421
f 421//421 423//423 502//502
f 421//421 502//502 498//498
f 423//423 515//515 502//502
f 371//371 395//395 410//410
f 395//395 424//424 410//410
f 395//395 405//405 424//424
f 410//410 424//424 422//422
f 405//405 425//425 424//424
f 422//422 424//424 426//426
f 424//424 425//425 426//426
f 425//425 511//511 426//426
f 406//406 513//513 425//425
f 425//425 513//513 511//511
f 423//423 426//426 515//515
f 426//426 511//511 515//515
f 456//456 458//458 457//457
f 457//457 458//458 459//459
f 457//457 459//459 460//460
f 460//460 461//461 483//483
f 459//459 461//461 460//460
f 458//458 462//462 459//459
f 459//459 462//462 463//463
f 462//462 506//506 463//463
f 461//461 463//463 464//464
f 459//459 463//463 461//461
f 461//461 464//464 484//484
f 463//463 507//507 464//464
f 473//473 474//474 475//475
f 474//474 476//476 475//475
f 474//474 477//477 476//476
f 477//477 485//485 478//478
f 476//476 477//477 478//478
f 475//475 476//476 479//479
f 476//476 480//480 479//479
f 479//479 480//480 513//513
f 478//478 481//481 480//480
f 478//478 486//486 481//481
f 476//476 478//478 480//480
f 480//480 481//481 514//514
f 482//482 484//484 486//486
f 482//482 483//483 484//484
f 461//461 484//484 483//483
f 482//482 486//486 485//485
f 478//478 485//485 486//486
f 464//464 487//487 484//484
f 481//481 486//486 487//487
f 484//484 487//487 486//486
f 496//496 498//498 497//497
f 497//497 498//498 499//499
f 497//497 499//499 500//500
f 500//500 501//501 509//509
f 499//499 501//501 500//500
f 498//498 502//502 499//499
f 499//499 502//502 503//503
f 502//502 515//515 503//503
f 501//501 503//503 504//504
f 501//501 504//504 510//510
f 503//503 516//516 504//504
f 499//499 503//503 501//501
f 505//505 510//510 507//507
f 505//505 507//507 506//506
f 463//463 506//506 507//507
f 464//464 507//507 508//508
f 504//504 508//508 510//510
f 507//507 510//510 508//508
f 505//505 509//509 510//510
f 501//501 510//510 509//509
f 511//511 514//514 516//516
f 481//481 512//512 514//514
f 504//504 516//516 512//512
f 512//512 516//516 514//514
f 511//511 513//513 514//514
f 480//480 514//514 513//513
f 511//511 516//516 515//515
f 503//503 515//515 516//516
f 487//487 508//508 512//512
f 464//464 508//508 487//487
f 481//481 487//487 512//512
f 504//504 512//512 508//508
f 11//11 55//55 78//78
f 12//12 131//131 111//111
f 33//33 12//12 11//11
f 11//11 12//12 13//13
f 13//13 58//58 55//55
f 11//11 13//13 55//55
f 13//13 111//111 112//112
f 12//12 111//111 13//13
f 13//13 112//112 58//58
f 58//58 112//112 164//164
f 21//21 80//80 69//69
f 22//22 237//237 256//256
f 35//35 21//21 22//22
f 21//21 23//23 22//22
f 21//21 69//69 23//23
f 23//23 69//69 72//72
f 22//22 23//23 237//237
f 23//23 238//238 237//237
f 23//23 72//72 238//238
f 72//72 289//289 238//238
f 28//28 124//124 133//133
f 29//29 257//257 248//248
f 36//36 29//29 28//28
f 28//28 29//29 30//30
f 28//28 30//30 124//124
f 30//30 127//127 124//124
f 29//29 248//248 30//30
f 30//30 248//248 249//249
f 30//30 249//249 127//127
f 127//127 249//249 359//359
f 31//31 32//32 33//33
f 31//31 35//35 34//34
f 32//32 34//34 36//36
f 31//31 34//34 32//32
f 37//37 38//38 31//31
f 37//37 77//77 38//38
f 37//37 31//31 33//33
f 37//37 33//33 11//11
f 37//37 11//11 78//78
f 37//37 78//78 77//77
f 38//38 35//35 31//31
f 38//38 21//21 35//35
f 38//38 80//80 21//21
f 38//38 77//77 80//80
f 39//39 32//32 40//40
f 39//39 33//33 32//32
f 39//39 12//12 33//33
f 39//39 40//40 130//130
f 39//39 131//131 12//12
f 39//39 130//130 131//131
f 32//32 36//36 40//40
f 40//40 36//36 28//28
f 40//40 28//28 133//133
f 40//40 133//133 130//130
f 34//34 41//41 42//42
f 34//34 35//35 41//41
f 41//41 35//35 22//22
f 34//34 42//42 36//36
f 42//42 29//29 36//36
f 41//41 255//255 42//42
f 41//41 22//22 256//256
f 41//41 256//256 255//255
f 42//42 257//257 29//29
f 42//42 255//255 257//257
f 78//78 55//55 56//56
f 55//55 58//58 59//59
f 55//55 59//59 56//56
f 56//56 57//57 83//83
f 56//56 59//59 57//57
f 58//58 165//165 59//59
f 58//58 164//164 165//165
f 59//59 165//165 168//168
f 59//59 168//168 57//57
f 57//57 168//168 184//184
f 80//80 70//70 69//69
f 69//69 70//70 73//73
f 69//69 73//73 72//72
f 70//70 85//85 71//71
f 70//70 71//71 73//73
f 72//72 73//73 290//290
f 72//72 290//290 289//289
f 73//73 71//71 293//293
f 73//73 293//293 290//290
f 71//71 306//306 293//293
f 79//79 81//81 77//77
f 79//79 82//82 81//81
f 78//78 79//79 77//77
f 78//78 56//56 79//79
f 79//79 83//83 82//82
f 79//79 56//56 83//83
f 80//80 77//77 81//81
f 80//80 81//81 70//70
f 81//81 82//82 85//85
f 81//81 85//85 70//70
f 82//82 83//83 84//84
f 82//82 86//86 85//85
f 82//82 84//84 86//86
f 84//84 87//87 86//86
f 83//83 88//88 84//84
f 83//83 57//57 88//88
f 88//88 89//89 84//84
f 57//57 184//184 88//88
f 88//88 184//184 185//185
f 88//88 185//185 89//89
f 84//84 89//89 87//87
f 89//89 95//95 87//87
f 89//89 187//187 95//95
f 89//89 185//185 187//187
f 85//85 86//86 90//90
f 85//85 90//90 71//71
f 86//86 91//91 90//90
f 86//86 87//87 91//91
f 91//91 87//87 96//96
f 71//71 90//90 306//306
f 90//90 307//307 306//306
f 90//90 91//91 307//307
f 91//91 96//96 308//308
f 91//91 308//308 307//307
f 95//95 187//187 205//205
f 96//96 326//326 308//308
f 87//87 95//95 96//96
f 95//95 97//97 96//96
f 95//95 205//205 97//97
f 97//97 205//205 208//208
f 96//96 97//97 326//326
f 97//97 327//327 326//326
f 97//97 208//208 327//327
f 208//208 448//448 327//327
f 131//131 114//114 111//111
f 111//111 113//113 112//112
f 111//111 114//114 113//113
f 112//112 166//166 164//164
f 112//112 113//113 166//166
f 114//114 115//115 113//113
f 114//114 136//136 115//115
f 113//113 169//169 166//166
f 113//113 115//115 169//169
f 115//115 189//189 169//169
f 133//133 124//124 125//125
f 124//124 128//128 125//125
f 124//124 127//127 128//128
f 125//125 126//126 138//138
f 125//125 128//128 126//126
f 127//127 360//360 128//128
f 127//127 359//359 360//360
f 128//128 363//363 126//126
f 128//128 360//360 363//363
f 126//126 363//363 372//372
f 132//132 130//130 134//134
f 131//131 130//130 132//132
f 131//131 132//132 114//114
f 132//132 134//134 135//135
f 132//132 136//136 114//114
f 132//132 135//135 136//136
f 133//133 134//134 130//130
f 133//133 125//125 134//134
f 134//134 138//138 135//135
f 134//134 125//125 138//138
f 135//135 137//137 136//136
f 135//135 138//138 139//139
f 135//135 139//139 137//137
f 137//137 139//139 140//140
f 136//136 141//141 115//115
f 136//136 137//137 141//141
f 115//115 141//141 189//189
f 141//141 191//191 189//189
f 141//141 137//137 142//142
f 141//141 142//142 191//191
f 137//137 140//140 142//142
f 142//142 140//140 150//150
f 142//142 150//150 192//192
f 142//142 192//192 191//191
f 138//138 143//143 139//139
f 138//138 126//126 143//143
f 139//139 143//143 144//144
f 139//139 144//144 140//140
f 144//144 151//151 140//140
f 126//126 372//372 143//143
f 143//143 372//372 373//373
f 143//143 373//373 144//144
f 144//144 374//374 151//151
f 144//144 373//373 374//374
f 150//150 216//216 192//192
f 151//151 374//374 396//396
f 140//140 151//151 150//150
f 150//150 151//151 152//152
f 150//150 152//152 216//216
f 152//152 219//219 216//216
f 151//151 396//396 152//152
f 152//152 396//396 397//397
f 152//152 397//397 219//219
f 219//219 397//397 465//465
f 164//164 166//166 165//165
f 165//165 166//166 167//167
f 165//165 167//167 168//168
f 167//167 170//170 168//168
f 166//166 169//169 167//167
f 167//167 169//169 171//171
f 167//167 171//171 170//170
f 170//170 171//171 194//194
f 168//168 170//170 184//184
f 169//169 189//189 171//171
f 184//184 186//186 185//185
f 170//170 186//186 184//184
f 186//186 188//188 185//185
f 170//170 194//194 186//186
f 194//194 195//195 186//186
f 186//186 195//195 188//188
f 185//185 188//188 187//187
f 187//187 188//188 206//206
f 188//188 195//195 197//197
f 188//188 197//197 206//206
f 189//189 191//191 190//190
f 171//171 189//189 190//190
f 171//171 190//190 194//194
f 194//194 190//190 196//196
f 190//190 191//191 193//193
f 190//190 193//193 196//196
f 191//191 192//192 193//193
f 192//192 217//217 193//193
f 196//196 193//193 198//198
f 193//193 217//217 198//198
f 194//194 196//196 195//195
f 195//195 196//196 199//199
f 195//195 199//199 197//197
f 196//196 198//198 199//199
f 197//197 199//199 200//200
f 197//197 200//200 207//207
f 198//198 201//201 199//199
f 198//198 218//218 201//201
f 199//199 201//201 200//200
f 207//207 200//200 427//427
f 200//200 429//429 427//427
f 218//218 428//428 201//201
f 201//201 428//428 429//429
f 200//200 201//201 429//429
f 187//187 206//206 205//205
f 205//205 206//206 209//209
f 205//205 209//209 208//208
f 206//206 197//197 207//207
f 206//206 207//207 209//209
f 208//208 209//209 449//449
f 208//208 449//449 448//448
f 209//209 207//207 452//452
f 209//209 452//452 449//449
f 207//207 427//427 452//452
f 192//192 216//216 217//217
f 216//216 220//220 217//217
f 216//216 219//219 220//220
f 217//217 218//218 198//198
f 217//217 220//220 218//218
f 219//219 466//466 220//220
f 219//219 465//465 466//466
f 220//220 469//469 218//218
f 220//220 466//466 469//469
f 218//218 469//469 428//428
f 256//256 237//237 240//240
f 237//237 238//238 239//239
f 237//237 239//239 240//240
f 238//238 289//289 291//291
f 238//238 291//291 239//239
f 240//240 239//239 241//241
f 240//240 241//241 261//261
f 239//239 291//291 294//294
f 239//239 294//294 241//241
f 241//241 294//294 311//311
f 257//257 251//251 248//248
f 248//248 250//250 249//249
f 248//248 251//251 250//250
f 249//249 361//361 359//359
f 249//249 250//250 361//361
f 251//251 252//252 250//250
f 251//251 262//262 252//252
f 250//250 364//364 361//361
f 250//250 252//252 364//364
f 252//252 377//377 364//364
f 258//258 259//259 255//255
f 256//256 258//258 255//255
f 256//256 240//240 258//258
f 257//257 255//255 259//259
f 257//257 259//259 251//251
f 258//258 260//260 259//259
f 258//258 240//240 261//261
f 258//258 261//261 260//260
f 259//259 262//262 251//251
f 259//259 260//260 262//262
f 260//260 261//261 263//263
f 260//260 264//264 262//262
f 260//260 263//263 264//264
f 263//263 265//265 264//264
f 261//261 241//241 266//266
f 261//261 266//266 263//263
f 241//241 311//311 266//266
f 266//266 311//311 313//313
f 266//266 267//267 263//263
f 266//266 313//313 267//267
f 263//263 267//267 265//265
f 267//267 276//276 265//265
f 267//267 314//314 276//276
f 267//267 313//313 314//314
f 262//262 268//268 252//252
f 262//262 264//264 268//268
f 252//252 268//268 377//377
f 268//268 379//379 377//377
f 264//264 269//269 268//268
f 264//264 265//265 269//269
f 269//269 265//265 277//277
f 268//268 269//269 379//379
f 269//269 277//277 380//380
f 269//269 380//380 379//379
f 276//276 314//314 341//341
f 277//277 413//413 380//380
f 265//265 276//276 277//277
f 276//276 278//278 277//277
f 276//276 341//341 278//278
f 278//278 341//341 344//344
f 277//277 278//278 413//413
f 278//278 414//414 413//413
f 278//278 344//344 414//414
f 344//344 488//488 414//414
f 289//289 290//290 291//291
f 290//290 292//292 291//291
f 290//290 293//293 292//292
f 292//292 293//293 295//295
f 291//291 292//292 294//294
f 292//292 296//296 294//294
f 292//292 295//295 296//296
f 295//295 316//316 296//296
f 293//293 306//306 295//295
f 294//294 296//296 311//311
f 306//306 307//307 309//309
f 295//295 306//306 309//309
f 309//309 307//307 310//310
f 307//307 308//308 310//310
f 308//308 329//329 310//310
f 295//295 309//309 316//316
f 316//316 309//309 317//317
f 309//309 310//310 317//317
f 310//310 329//329 318//318
f 310//310 318//318 317//317
f 311//311 312//312 313//313
f 296//296 312//312 311//311
f 296//296 316//316 312//312
f 316//316 319//319 312//312
f 312//312 315//315 313//313
f 312//312 319//319 315//315
f 313//313 315//315 314//314
f 314//314 315//315 342//342
f 319//319 320//320 315//315
f 315//315 320//320 342//342
f 316//316 317//317 319//319
f 317//317 321//321 319//319
f 317//317 318//318 321//321
f 319//319 321//321 320//320
f 318//318 330//330 322//322
f 318//318 322//322 321//321
f 330//330 432//432 322//322
f 322//322 432//432 435//435
f 320//320 321//321 323//323
f 320//320 323//323 343//343
f 321//321 322//322 323//323
f 343//343 323//323 434//434
f 323//323 435//435 434//434
f 322//322 435//435 323//323
f 308//308 326//326 329//329
f 326//326 327//327 328//328
f 326//326 328//328 329//329
f 327//327 448//448 450//450
f 327//327 450//450 328//328
f 329//329 328//328 330//330
f 329//329 330//330 318//318
f 328//328 450//450 453//453
f 328//328 453//453 330//330
f 330//330 453//453 432//432
f 314//314 342//342 341//341
f 341//341 342//342 345//345
f 341//341 345//345 344//344
f 342//342 320//320 343//343
f 342//342 343//343 345//345
f 344//344 345//345 489//489
f 344//344 489//489 488//488
f 345//345 343//343 492//492
f 345//345 492//492 489//489
f 343//343 434//434 492//492
f 359//359 361//361 360//360
f 360//360 361//361 362//362
f 360//360 362//362 363//363
f 362//362 365//365 363//363
f 361//361 364//364 362//362
f 362//362 364//364 366//366
f 362//362 366//366 365//365
f 365//365 366//366 382//382
f 363//363 365//365 372//372
f 364//364 377//377 366//366
f 372//372 375//375 373//373
f 365//365 375//375 372//372
f 375//375 376//376 373//373
f 373//373 376//376 374//374
f 374//374 376//376 399//399
f 365//365 382//382 375//375
f 382//382 383//383 375//375
f 375//375 383//383 376//376
f 376//376 384//384 399//399
f 376//376 383//383 384//384
f 377//377 379//379 378//378
f 366//366 377//377 378//378
f 366//366 378//378 382//382
f 382//382 378//378 385//385
f 378//378 379//379 381//381
f 379//379 380//380 381//381
f 380//380 416//416 381//381
f 378//378 381//381 385//385
f 381//381 416//416 386//386
f 385//385 381//381 386//386
f 382//382 385//385 383//383
f 383//383 385//385 387//387
f 383//383 387//387 384//384
f 385//385 386//386 387//387
f 384//384 388//388 400//400
f 384//384 387//387 388//388
f 400//400 388//388 437//437
f 388//388 441//441 437//437
f 386//386 417//417 389//389
f 386//386 389//389 387//387
f 417//417 439//439 389//389
f 389//389 439//439 441//441
f 387//387 389//389 388//388
f 388//388 389//389 441//441
f 374//374 399//399 396//396
f 396//396 398//398 397//397
f 396//396 399//399 398//398
f 397//397 467//467 465//465
f 397//397 398//398 467//467
f 399//399 400//400 398//398
f 399//399 384//384 400//400
f 398//398 470//470 467//467
f 398//398 400//400 470//470
f 400//400 437//437 470//470
f 380//380 413//413 416//416
f 413//413 415//415 416//416
f 413//413 414//414 415//415
f 414//414 488//488 490//490
f 414//414 490//490 415//415
f 416//416 415//415 417//417
f 416//416 417//417 386//386
f 415//415 493//493 417//417
f 415//415 490//490 493//493
f 417//417 493//493 439//439
f 429//429 430//430 427//427
f 454//454 427//427 430//430
f 429//429 428//428 431//431
f 471//471 431//431 428//428
f 429//429 431//431 430//430
f 454//454 430//430 442//442
f 442//442 430//430 444//444
f 471//471 443//443 431//431
f 443//443 444//444 431//431
f 430//430 431//431 444//444
f 435//435 432//432 433//433
f 455//455 433//433 432//432
f 455//455 442//442 433//433
f 442//442 446//446 433//433
f 435//435 436//436 434//434
f 494//494 434//434 436//436
f 435//435 433//433 436//436
f 494//494 436//436 445//445
f 445//445 436//436 446//446
f 433//433 446//446 436//436
f 441//441 438//438 437//437
f 472//472 437//437 438//438
f 472//472 438//438 443//443
f 443//443 438//438 447//447
f 441//441 439//439 440//440
f 495//495 440//440 439//439
f 495//495 445//445 440//440
f 445//445 447//447 440//440
f 441//441 440//440 438//438
f 447//447 438//438 440//440
f 444//444 447//447 446//446
f 442//442 444//444 446//446
f 443//443 447//447 444//444
f 445//445 446//446 447//447
f 448//448 449//449 450//450
f 449//449 451//451 450//450
f 449//449 452//452 451//451
f 451//451 452//452 454//454
f 450//450 451//451 453//453
f 451//451 455//455 453//453
f 451//451 454//454 455//455
f 454//454 442//442 455//455
f 452//452 427//427 454//454
f 453//453 455//455 432//432
f 465//465 467//467 466//466
f 466//466 467//467 468//468
f 466//466 468//468 469//469
f 468//468 471//471 469//469
f 467//467 470//470 468//468
f 468//468 470//470 472//472
f 468//468 472//472 471//471
f 471//471 472//472 443//443
f 469//469 471//471 428//428
f 470//470 437//437 472//472
f 488//488 489//489 490//490
f 489//489 491//491 490//490
f 491//491 492//492 494//494
f 489//489 492//492 491//491
f 491//491 495//495 493//493
f 490//490 491//491 493//493
f 491//491 494//494 495//495
f 494//494 445//445 495//495
f 492//492 434//434 494//494
f 493//493 495//495 439//439
