ply
format ascii 1.0
element vertex 516
property float x
property float y
property float z
property float nx
property float ny
property float nz
element face 1024
property list uchar int vertex_index
end_header
-11.526745796203613 -9.056506156921387 -3.1802220344543457 -0.7642260588618598 -0.6011713584896329 -0.2335626868491594
-9.056506156921387 -11.526745796203613 -3.1802220344543457 -0.6011713584896329 -0.7642260588618598 -0.2335626868491594
-9.535662651062012 -9.535662651062012 -6.5682783126831055 -0.632736607833491 -0.632736607833491 -0.4464177082226172
-11.526745796203613 -3.1802220344543457 -9.056506156921387 -0.7642260588618598 -0.2335626868491594 -0.6011713584896329
-9.535662651062012 -6.5682783126831055 -9.535662651062012 -0.632736607833491 -0.4464177082226172 -0.632736607833491
-9.056506156921387 -3.1802220344543457 -11.526745796203613 -0.6011713183342331 -0.23356270930659886 -0.7642260835862914
-11.911567687988281 -6.446493625640869 -6.446493625640869 -0.7871379215425054 -0.43612721336196425 -0.43612721336196425
-13.326715469360352 -6.133613586425781 -3.1268889904022217 -0.884150673642007 -0.40994393350844655 -0.2241061303891694
-13.326715469360352 -3.1268889904022217 -6.133613586425781 -0.884150673642007 -0.2241061303891694 -0.40994393350844655
-14.372797012329102 -3.0350208282470703 -3.0350208282470703 -0.9554945214166302 -0.20860275590557875 -0.20860275590557875
-7.996029376983643 -3.6801681518554688 -1.8761334419250488 0.8841506873964938 0.4099439100835081 0.22410611897436508
-7.996029376983643 -1.8761334419250488 -3.6801681518554688 0.8841506873964938 0.22410611897436508 0.4099439100835081
-8.623678207397461 -1.8210124969482422 -1.8210124969482422 0.9554945800654818 0.20860263648762162 0.2086026066852993
-6.5682783126831055 -9.535662651062012 -9.535662651062012 -0.4464177082226172 -0.632736607833491 -0.632736607833491
-3.1802220344543457 -11.526745796203613 -9.056506156921387 -0.23356270930659886 -0.7642260835862914 -0.6011713183342331
-3.1802220344543457 -9.056506156921387 -11.526745796203613 -0.23356270930659886 -0.6011713183342331 -0.7642260835862914
-6.446493625640869 -11.911567687988281 -6.446493625640869 -0.43612721336196425 -0.7871379215425054 -0.43612721336196425
-6.133613586425781 -13.326715469360352 -3.1268889904022217 -0.40994395693338403 -0.8841506598875201 -0.22410614180397326
-3.1268889904022217 -13.326715469360352 -6.133613586425781 -0.2241061303891694 -0.884150673642007 -0.40994393350844655
-3.0350208282470703 -14.372797012329102 -3.0350208282470703 -0.20860275590557875 -0.9554945214166302 -0.20860275590557875
-3.6801681518554688 -7.996029376983643 -1.8761334419250488 0.4099439100835081 0.8841506873964938 0.22410611897436508
-1.8761334419250488 -7.996029376983643 -3.6801681518554688 0.22410611897436508 0.8841506873964938 0.4099439100835081
-1.8210124969482422 -8.623678207397461 -1.8210124969482422 0.20860263648762162 0.9554945800654818 0.2086026066852993
-6.446493625640869 -6.446493625640869 -11.911567687988281 -0.43612721336196425 -0.43612721336196425 -0.7871379215425054
-6.133613586425781 -3.1268889904022217 -13.326715469360352 -0.40994395693338403 -0.22410614180397326 -0.8841506598875201
-3.1268889904022217 -6.133613586425781 -13.326715469360352 -0.22410614180397326 -0.40994395693338403 -0.8841506598875201
-3.0350208282470703 -3.0350208282470703 -14.372797012329102 -0.20860275590557875 -0.20860275590557875 -0.9554945214166302
-3.6801681518554688 -1.8761334419250488 -7.996029376983643 0.4099439100835081 0.22410611897436508 0.8841506873964938
-1.8761334419250488 -3.6801681518554688 -7.996029376983643 0.22410611897436508 0.4099439100835081 0.8841506873964938
-1.8210124969482422 -1.8210124969482422 -8.623678207397461 0.20860263648762162 0.2086026066852993 0.9554945800654818
-5.721397399902344 -5.721397399902344 -3.940967082977295 0.6327365707006265 0.6327365707006265 0.4464178134842093
-5.721397399902344 -3.940967082977295 -5.721397399902344 0.6327365707006265 0.4464178134842093 0.6327365707006265
-7.146940231323242 -3.867896318435669 -3.867896318435669 0.7871378250390892 0.43612731534951216 0.4361272855471891
-3.940967082977295 -5.721397399902344 -5.721397399902344 0.4464178134842093 0.6327365707006265 0.6327365707006265
-3.867896318435669 -7.146940231323242 -3.867896318435669 0.43612731534951216 0.7871378250390892 0.4361272855471891
-3.867896318435669 -3.867896318435669 -7.146940231323242 0.43612731534951216 0.4361272855471891 0.7871378250390892
-6.9160475730896 -5.433903694152832 -1.9081332683563232 0.7642260428345566 0.6011713331647003 0.23356280447539404
-5.433903694152832 -6.9160475730896 -1.9081332683563232 0.6011713331647003 0.7642260428345566 0.23356280447539404
-6.9160475730896 -1.9081332683563232 -5.433903694152832 0.764226040174777 0.23356281856367364 0.6011713310724094
-5.433903694152832 -1.9081332683563232 -6.9160475730896 0.6011713331647003 0.23356280447539404 0.7642260428345566
-1.9081332683563232 -6.9160475730896 -5.433903694152832 0.23356281856367364 0.764226040174777 0.6011713310724094
-1.9081332683563232 -5.433903694152832 -6.9160475730896 0.23356281856367364 0.6011713310724094 0.764226040174777
-12.472043991088867 -8.333553314208984 9.184850467946473e-16 -0.8391566797652508 -0.5438897561136451 1.0730064518776676e-9
-11.526745796203613 -9.056506156921387 3.1802220344543457 -0.7642260835862914 -0.6011713183342331 0.23356270930659886
-8.333553314208984 -12.472043991088867 9.184850467946473e-16 -0.5438897561136451 -0.8391566797652508 1.0730064518776676e-9
-9.056506156921387 -11.526745796203613 3.1802220344543457 -0.6011713183342331 -0.7642260835862914 0.23356270930659886
-10.60660171508789 -10.60660171508789 9.184850467946473e-16 -0.7071067513842252 -0.7071068109888685 -2.533611590387111e-10
-9.535662651062012 -9.535662651062012 6.5682783126831055 -0.6327366232784363 -0.6327365636737915 0.4464177489218863
-13.858193397521973 -5.740251541137695 9.184850467946473e-16 -0.9329769044524542 -0.35993623846219786 -4.835970181125774e-11
-13.326715469360352 -6.133613586425781 3.1268889904022217 -0.8841506844439242 -0.40994390871452435 0.22410613312713698
-11.911567687988281 -6.446493625640869 6.446493625640869 -0.7871379215425054 -0.43612721336196425 0.43612721336196425
-14.711779594421387 -2.9263548851013184 9.184850467946473e-16 -0.9861362714732422 -0.16593750053816034 -2.9098466267013943e-9
-14.372797012329102 -3.0350208282470703 3.0350208282470703 -0.9554945154764671 -0.20860276950988846 0.20860276950988846
-13.326715469360352 -3.1268889904022217 6.133613586425781 -0.884150673642007 -0.2241061303891694 0.40994393350844655
-8.314915657043457 -3.444150924682617 5.510910704284357e-16 0.9329769421984243 0.3599361406223028 -3.7232238757949866e-9
-7.996029376983643 -3.6801681518554688 1.8761334419250488 0.8841506873964938 0.4099439100835081 -0.22410611897436508
-7.996029376983643 -1.8761334419250488 3.6801681518554688 0.8841506873964938 0.22410611897436508 -0.4099439100835081
-8.827067375183105 -1.7558128833770752 5.510910704284357e-16 0.9861362739116233 0.16593748604730613 1.2994932011604114e-9
-8.623678207397461 -1.8210124969482422 1.8210124969482422 0.9554945681851628 0.20860264879508303 -0.20860264879508303
-11.526745796203613 -3.1802220344543457 9.056506156921387 -0.7642260835862914 -0.23356270930659886 0.6011713183342331
-9.535662651062012 -6.5682783126831055 9.535662651062012 -0.6327366232784363 -0.4464177489218863 0.6327365636737915
-9.056506156921387 -3.1802220344543457 11.526745796203613 -0.6011713584896329 -0.2335626868491594 0.7642260588618598
-5.740251541137695 -13.858193397521973 9.184850467946473e-16 -0.35993623846219786 -0.9329769044524542 -4.835970181125774e-11
-6.133613586425781 -13.326715469360352 3.1268889904022217 -0.40994390871452435 -0.8841506844439242 0.22410613312713698
-6.446493625640869 -11.911567687988281 6.446493625640869 -0.43612721336196425 -0.7871379215425054 0.43612721336196425
-2.9263548851013184 -14.711779594421387 9.184850467946473e-16 -0.16593750053816034 -0.9861362714732422 -2.9098466267013943e-9
-3.0350208282470703 -14.372797012329102 3.0350208282470703 -0.20860276950988846 -0.9554945154764671 0.20860276950988846
-3.1268889904022217 -13.326715469360352 6.133613586425781 -0.2241061303891694 -0.884150673642007 0.40994393350844655
-3.444150924682617 -8.314915657043457 5.510910704284357e-16 0.3599361406223028 0.9329769421984243 2.1257850603528003e-9
-3.6801681518554688 -7.996029376983643 1.8761334419250488 0.4099439100835081 0.8841506873964938 -0.22410611897436508
-1.8761334419250488 -7.996029376983643 3.6801681518554688 0.22410611897436508 0.8841506873964938 -0.4099439100835081
-1.7558128833770752 -8.827067375183105 5.510910704284357e-16 0.16593748604730613 0.9861362739116233 1.2994932011604114e-9
-1.8210124969482422 -8.623678207397461 1.8210124969482422 0.20860264879508303 0.9554945681851628 -0.20860264879508303
-6.5682783126831055 -9.535662651062012 9.535662651062012 -0.4464177489218863 -0.6327366232784363 0.6327365636737915
-3.1802220344543457 -11.526745796203613 9.056506156921387 -0.23356270930659886 -0.7642260835862914 0.6011713183342331
-3.1802220344543457 -9.056506156921387 11.526745796203613 -0.2335626868491594 -0.6011713584896329 0.7642260588618598
-6.363961219787598 -6.363961219787598 5.510910704284357e-16 0.7071067811865476 0.7071067811865476 2.7544569874531455e-10
-7.483226299285889 -5.000132083892822 5.510910704284357e-16 0.83915670696933 0.5438897141410101 -6.974540553484592e-10
-6.9160475730896 -5.433903694152832 1.9081332683563232 0.7642260649678382 0.6011713036882006 -0.23356280792455525
-5.000132083892822 -7.483226299285889 5.510910704284357e-16 0.5438897141410101 0.83915670696933 -6.974540553484592e-10
-5.433903694152832 -6.9160475730896 1.9081332683563232 0.6011713036882006 0.7642260649678382 -0.23356280792455525
-5.721397399902344 -5.721397399902344 3.940967082977295 0.6327365707006265 0.6327365707006265 -0.4464178134842093
-7.146940231323242 -3.867896318435669 3.867896318435669 0.7871378579444395 0.4361272707539849 -0.4361272707539849
-5.721397399902344 -3.940967082977295 5.721397399902344 0.6327365707006265 0.4464178134842093 -0.6327365707006265
-3.867896318435669 -7.146940231323242 3.867896318435669 0.4361272707539849 0.7871378579444395 -0.4361272707539849
-3.940967082977295 -5.721397399902344 5.721397399902344 0.4464178134842093 0.6327365707006265 -0.6327365707006265
-3.867896318435669 -3.867896318435669 7.146940231323242 0.4361272707539849 0.4361272707539849 -0.7871378579444395
-6.9160475730896 -1.9081332683563232 5.433903694152832 0.764226070287397 0.23356277974799702 -0.601171307872782
-5.433903694152832 -1.9081332683563232 6.9160475730896 0.6011713331647003 0.23356280447539404 -0.7642260428345566
-1.9081332683563232 -6.9160475730896 5.433903694152832 0.23356277974799702 0.764226070287397 -0.601171307872782
-1.9081332683563232 -5.433903694152832 6.9160475730896 0.23356281856367364 0.6011713310724094 -0.764226040174777
-6.446493625640869 -6.446493625640869 11.911567687988281 -0.43612721336196425 -0.43612721336196425 0.7871379215425054
-6.133613586425781 -3.1268889904022217 13.326715469360352 -0.40994395830236785 -0.22410612765120178 0.8841506628400895
-3.1268889904022217 -6.133613586425781 13.326715469360352 -0.22410612765120178 -0.40994395830236785 0.8841506628400895
-3.6801681518554688 -1.8761334419250488 7.996029376983643 0.4099439610403355 0.22410609934565845 -0.8841506687452281
-1.8761334419250488 -3.6801681518554688 7.996029376983643 0.22410609934565845 0.4099439610403355 -0.8841506687452281
-1.8210124969482422 -1.8210124969482422 8.623678207397461 0.20860263648762162 0.2086026066852993 -0.9554945800654818
-3.0350208282470703 -3.0350208282470703 14.372797012329102 -0.20860275590557875 -0.20860275590557875 0.9554945214166302
-12.472043991088867 9.184850467946473e-16 -8.333553314208984 -0.8391566797652508 1.0730064518776676e-9 -0.5438897561136451
-11.526745796203613 3.1802220344543457 -9.056506156921387 -0.7642260835862914 0.23356270930659886 -0.6011713183342331
-8.333553314208984 9.184850467946473e-16 -12.472043991088867 -0.5438897561136451 1.0730064518776676e-9 -0.8391566797652508
-9.056506156921387 3.1802220344543457 -11.526745796203613 -0.6011713183342331 0.23356270930659886 -0.7642260835862914
-10.60660171508789 9.184850467946473e-16 -10.60660171508789 -0.7071067513842252 -2.533611590387111e-10 -0.7071068109888685
-9.535662651062012 6.5682783126831055 -9.535662651062012 -0.6327366232784363 0.4464177489218863 -0.6327365636737915
-13.858193397521973 9.184850467946473e-16 -5.740251541137695 -0.9329769144604373 -4.835970579945615e-11 -0.35993621252088787
-13.326715469360352 3.1268889904022217 -6.133613586425781 -0.8841506844439242 0.22410613312713698 -0.40994390871452435
-14.711779594421387 9.184850467946473e-16 -2.9263548851013184 -0.9861362714732422 -3.708519321442147e-9 -0.16593750053816034
-14.372797012329102 3.0350208282470703 -3.0350208282470703 -0.9554945154764671 0.20860276950988846 -0.20860276950988846
-11.911567687988281 6.446493625640869 -6.446493625640869 -0.7871378784062543 0.43612725228888244 -0.43612725228888244
-13.326715469360352 6.133613586425781 -3.1268889904022217 -0.884150673642007 0.40994393350844655 -0.2241061303891694
-8.314915657043457 5.510910704284357e-16 -3.444150924682617 0.9329769421984243 -3.7232238757949866e-9 0.3599361406223028
-8.827067375183105 5.510910704284357e-16 -1.7558128833770752 0.9861362739116233 2.09435072741127e-9 0.16593748604730613
-8.623678207397461 1.8210124969482422 -1.8210124969482422 0.9554945681851628 -0.20860264879508303 0.20860264879508303
-7.996029376983643 1.8761334419250488 -3.6801681518554688 0.8841506933016324 -0.2241060906688208 0.40994391282147535
-7.996029376983643 3.6801681518554688 -1.8761334419250488 0.8841506873964938 -0.4099439100835081 0.22410611897436508
-11.526745796203613 9.056506156921387 -3.1802220344543457 -0.7642260835862914 0.6011713183342331 -0.23356270930659886
-9.535662651062012 9.535662651062012 -6.5682783126831055 -0.6327366232784363 0.6327365636737915 -0.4464177489218863
-9.056506156921387 11.526745796203613 -3.1802220344543457 -0.6011713584896329 0.7642260588618598 -0.2335626868491594
-5.740251541137695 9.184850467946473e-16 -13.858193397521973 -0.35993623846219786 -4.835970181125774e-11 -0.9329769044524542
-6.133613586425781 3.1268889904022217 -13.326715469360352 -0.40994390871452435 0.22410613312713698 -0.8841506844439242
-6.446493625640869 6.446493625640869 -11.911567687988281 -0.43612721336196425 0.43612721336196425 -0.7871379215425054
-2.9263548851013184 9.184850467946473e-16 -14.711779594421387 -0.16593750053816034 -2.9098466267013943e-9 -0.9861362714732422
-3.0350208282470703 3.0350208282470703 -14.372797012329102 -0.20860276950988846 0.20860276950988846 -0.9554945154764671
-3.444150924682617 5.510910704284357e-16 -8.314915657043457 0.3599361406223028 2.1257850603528003e-9 0.9329769421984243
-3.6801681518554688 1.8761334419250488 -7.996029376983643 0.4099439100835081 -0.22410611897436508 0.8841506873964938
-1.8761334419250488 3.6801681518554688 -7.996029376983643 0.22410611897436508 -0.4099439100835081 0.8841506873964938
-1.7558128833770752 5.510910704284357e-16 -8.827067375183105 0.16593748604730613 1.2994932011604114e-9 0.9861362739116233
-1.8210124969482422 1.8210124969482422 -8.623678207397461 0.20860264879508303 -0.20860264879508303 0.9554945681851628
-3.1268889904022217 6.133613586425781 -13.326715469360352 -0.2241061303891694 0.40994393350844655 -0.884150673642007
-6.363961219787598 5.510910704284357e-16 -6.363961219787598 0.7071067811865476 2.7544569874531455e-10 0.7071067811865476
-7.483226299285889 5.510910704284357e-16 -5.000132083892822 0.83915670696933 -6.974540553484592e-10 0.5438897141410101
-6.9160475730896 1.9081332683563232 -5.433903694152832 0.7642260428345566 -0.23356280447539404 0.6011713331647003
-5.000132083892822 5.510910704284357e-16 -7.483226299285889 0.5438897141410101 -6.974540553484592e-10 0.83915670696933
-5.433903694152832 1.9081332683563232 -6.9160475730896 0.6011713036882006 -0.23356280792455525 0.7642260649678382
-5.721397399902344 3.940967082977295 -5.721397399902344 0.6327365707006265 -0.4464178134842093 0.6327365707006265
-7.146940231323242 3.867896318435669 -3.867896318435669 0.7871378579444395 -0.4361272707539849 0.4361272707539849
-5.721397399902344 5.721397399902344 -3.940967082977295 0.6327365707006265 -0.6327365707006265 0.4464178134842093
-3.867896318435669 3.867896318435669 -7.146940231323242 0.4361272707539849 -0.4361272707539849 0.7871378579444395
-3.940967082977295 5.721397399902344 -5.721397399902344 0.4464178134842093 -0.6327365707006265 0.6327365707006265
-3.867896318435669 7.146940231323242 -3.867896318435669 0.4361272707539849 -0.7871378579444395 0.4361272707539849
-6.9160475730896 5.433903694152832 -1.9081332683563232 0.764226070287397 -0.601171307872782 0.23356277974799702
-5.433903694152832 6.9160475730896 -1.9081332683563232 0.6011713331647003 -0.7642260428345566 0.23356280447539404
-1.9081332683563232 5.433903694152832 -6.9160475730896 0.23356277974799702 -0.601171307872782 0.764226070287397
-1.9081332683563232 6.9160475730896 -5.433903694152832 0.23356281856367364 -0.764226040174777 0.6011713310724094
-6.5682783126831055 9.535662651062012 -9.535662651062012 -0.4464177489218863 0.6327365636737915 -0.6327366232784363
-3.1802220344543457 9.056506156921387 -11.526745796203613 -0.23356270930659886 0.6011713183342331 -0.7642260835862914
-3.1802220344543457 11.526745796203613 -9.056506156921387 -0.2335626868491594 0.7642260588618598 -0.6011713584896329
-6.446493625640869 11.911567687988281 -6.446493625640869 -0.43612721336196425 0.7871379215425054 -0.43612721336196425
-6.133613586425781 13.326715469360352 -3.1268889904022217 -0.40994395830236785 0.8841506628400895 -0.22410612765120178
-3.6801681518554688 7.996029376983643 -1.8761334419250488 0.4099439610403355 -0.8841506687452281 0.22410609934565845
-1.8761334419250488 7.996029376983643 -3.6801681518554688 0.22410609934565845 -0.8841506687452281 0.4099439610403355
-1.8210124969482422 8.623678207397461 -1.8210124969482422 0.20860263648762162 -0.9554945800654818 0.2086026066852993
-3.1268889904022217 13.326715469360352 -6.133613586425781 -0.22410612765120178 0.8841506628400895 -0.40994395830236785
-3.0350208282470703 14.372797012329102 -3.0350208282470703 -0.20860275590557875 0.9554945214166302 -0.20860275590557875
-15 9.184850467946473e-16 9.184850467946473e-16 -1 6.885156889069322e-10 6.885156889069322e-10
-14.711779594421387 9.184850467946473e-16 2.9263548851013184 -0.9861362714732422 -2.4566868883872382e-9 0.16593750053816034
-14.711779594421387 2.9263548851013184 9.184850467946473e-16 -0.9861362763500041 0.16593747155645183 2.0125799186956443e-9
-14.372797012329102 3.0350208282470703 3.0350208282470703 -0.9554945214166302 0.20860275590557875 0.20860275590557875
-13.858193397521973 9.184850467946473e-16 5.740251541137695 -0.9329769144604373 2.065917465751348e-9 0.35993621252088787
-13.326715469360352 3.1268889904022217 6.133613586425781 -0.884150673642007 0.2241061303891694 0.40994393350844655
-13.858193397521973 5.740251541137695 9.184850467946473e-16 -0.9329769144604373 0.35993621252088787 1.1155315714764667e-9
-13.326715469360352 6.133613586425781 3.1268889904022217 -0.8841506598875201 0.40994395693338403 0.22410614180397326
-11.911567687988281 6.446493625640869 6.446493625640869 -0.7871378784062543 0.43612725228888244 0.43612725228888244
-9 5.510910704284357e-16 5.510910704284357e-16 1 -3.929780667544236e-10 -3.929780667544236e-10
-8.827067375183105 5.510910704284357e-16 1.7558128833770752 0.9861362739116233 6.949676504535015e-10 -0.16593748604730613
-8.827067375183105 1.7558128833770752 5.510910704284357e-16 0.9861362739116233 -0.16593748604730613 -2.4086899539142475e-9
-8.623678207397461 1.8210124969482422 1.8210124969482422 0.9554945681851628 -0.20860264879508303 -0.20860264879508303
-8.314915657043457 5.510910704284357e-16 3.444150924682617 0.9329769421984243 2.3047456808178944e-9 -0.3599361406223028
-8.314915657043457 3.444150924682617 5.510910704284357e-16 0.9329769421984243 -0.3599361406223028 2.3047456808178944e-9
-7.996029376983643 1.8761334419250488 3.6801681518554688 0.8841506873964938 -0.22410611897436508 -0.4099439100835081
-7.996029376983643 3.6801681518554688 1.8761334419250488 0.8841506873964938 -0.4099439100835081 -0.22410611897436508
-12.472043991088867 9.184850467946473e-16 8.333553314208984 -0.8391566797652508 -8.217135926024577e-11 0.5438897561136451
-11.526745796203613 3.1802220344543457 9.056506156921387 -0.7642260588618598 0.2335626868491594 0.6011713584896329
-10.60660171508789 9.184850467946473e-16 10.60660171508789 -0.7071067811865476 4.036949177421964e-10 0.7071067811865476
-8.333553314208984 9.184850467946473e-16 12.472043991088867 -0.5438897561136451 1.0730064518776676e-9 0.8391566797652508
-9.056506156921387 3.1802220344543457 11.526745796203613 -0.6011713183342331 0.23356270930659886 0.7642260835862914
-9.535662651062012 6.5682783126831055 9.535662651062012 -0.6327366232784363 0.4464177489218863 0.6327365636737915
-12.472043991088867 8.333553314208984 9.184850467946473e-16 -0.8391566797652508 0.5438897561136451 -8.217135926024577e-11
-11.526745796203613 9.056506156921387 3.1802220344543457 -0.7642260588618598 0.6011713584896329 0.2335626868491594
-10.60660171508789 10.60660171508789 9.184850467946473e-16 -0.7071067811865476 0.7071067811865476 4.036949177421964e-10
-9.535662651062012 9.535662651062012 6.5682783126831055 -0.6327366232784363 0.6327365636737915 0.4464177489218863
-8.333553314208984 12.472043991088867 9.184850467946473e-16 -0.5438897561136451 0.8391566797652508 1.0730064518776676e-9
-9.056506156921387 11.526745796203613 3.1802220344543457 -0.6011713584896329 0.7642260588618598 0.2335626868491594
-7.483226299285889 5.510910704284357e-16 5.000132083892822 0.83915670696933 -6.974540553484592e-10 -0.5438897141410101
-6.363961219787598 5.510910704284357e-16 6.363961219787598 0.7071067811865476 1.6680481726019522e-9 -0.7071067811865476
-6.9160475730896 1.9081332683563232 5.433903694152832 0.7642260649678382 -0.23356280792455525 -0.6011713036882006
-5.000132083892822 5.510910704284357e-16 7.483226299285889 0.5438896449642935 -6.076675309860887e-10 -0.8391567518054149
-5.433903694152832 1.9081332683563232 6.9160475730896 0.6011713036882006 -0.23356280792455525 -0.7642260649678382
-7.483226299285889 5.000132083892822 5.510910704284357e-16 0.83915670696933 -0.5438897141410101 -6.974540553484592e-10
-6.9160475730896 5.433903694152832 1.9081332683563232 0.764226070287397 -0.601171307872782 -0.23356277974799702
-6.363961219787598 6.363961219787598 5.510910704284357e-16 0.7071067811865476 -0.7071067811865476 1.6680481726019522e-9
-5.000132083892822 7.483226299285889 5.510910704284357e-16 0.5438896449642935 -0.8391567518054149 -6.076675309860887e-10
-5.433903694152832 6.9160475730896 1.9081332683563232 0.6011713036882006 -0.7642260649678382 -0.23356280792455525
-7.146940231323242 3.867896318435669 3.867896318435669 0.7871378579444395 -0.4361272707539849 -0.4361272707539849
-5.721397399902344 3.940967082977295 5.721397399902344 0.6327366232784363 -0.4464177489218863 -0.6327365636737915
-5.721397399902344 5.721397399902344 3.940967082977295 0.6327366232784363 -0.6327365636737915 -0.4464177489218863
-3.867896318435669 3.867896318435669 7.146940231323242 0.43612729488769636 -0.43612726508537464 -0.7871378477135321
-3.867896318435669 7.146940231323242 3.867896318435669 0.43612729488769636 -0.7871378477135321 -0.43612726508537464
-3.940967082977295 5.721397399902344 5.721397399902344 0.4464178134842093 -0.6327365707006265 -0.6327365707006265
-1.9081332683563232 5.433903694152832 6.9160475730896 0.23356277974799702 -0.601171307872782 -0.764226070287397
-1.9081332683563232 6.9160475730896 5.433903694152832 0.23356277974799702 -0.764226070287397 -0.601171307872782
-5.740251541137695 9.184850467946473e-16 13.858193397521973 -0.35993623846219786 -4.835970181125774e-11 0.9329769044524542
-6.133613586425781 3.1268889904022217 13.326715469360352 -0.4099439100835081 0.22410611897436508 0.8841506873964938
-6.446493625640869 6.446493625640869 11.911567687988281 -0.43612721336196425 0.43612721336196425 0.7871379215425054
-3.444150924682617 5.510910704284357e-16 8.314915657043457 0.3599361406223028 2.1257850603528003e-9 -0.9329769421984243
-3.6801681518554688 1.8761334419250488 7.996029376983643 0.40994395967135167 -0.22410611349843015 -0.8841506657926588
-1.8761334419250488 3.6801681518554688 7.996029376983643 0.22410609934565845 -0.4099439610403355 -0.8841506687452281
-1.7558128833770752 5.510910704284357e-16 8.827067375183105 0.16593748604730613 1.2994932011604114e-9 -0.9861362739116233
-1.8210124969482422 1.8210124969482422 8.623678207397461 0.20860264879508303 -0.20860264879508303 -0.9554945681851628
-2.9263548851013184 9.184850467946473e-16 14.711779594421387 -0.16593750053816034 -2.9098466267013943e-9 0.9861362714732422
-3.0350208282470703 3.0350208282470703 14.372797012329102 -0.20860276950988846 0.20860276950988846 0.9554945154764671
-3.1268889904022217 6.133613586425781 13.326715469360352 -0.22410612765120178 0.40994395830236785 0.8841506628400895
-5.740251541137695 13.858193397521973 9.184850467946473e-16 -0.35993623846219786 0.9329769044524542 -4.835970181125774e-11
-6.133613586425781 13.326715469360352 3.1268889904022217 -0.4099439100835081 0.8841506873964938 0.22410611897436508
-6.446493625640869 11.911567687988281 6.446493625640869 -0.43612721336196425 0.7871379215425054 0.43612721336196425
-3.444150924682617 8.314915657043457 5.510910704284357e-16 0.3599361406223028 -0.9329769421984243 2.1257850603528003e-9
-3.6801681518554688 7.996029376983643 1.8761334419250488 0.40994395967135167 -0.8841506657926588 -0.22410611349843015
-1.8761334419250488 7.996029376983643 3.6801681518554688 0.22410609934565845 -0.8841506687452281 -0.4099439610403355
-1.7558128833770752 8.827067375183105 5.510910704284357e-16 0.16593748604730613 -0.9861362739116233 1.2994932011604114e-9
-1.8210124969482422 8.623678207397461 1.8210124969482422 0.20860264879508303 -0.9554945681851628 -0.20860264879508303
-2.9263548851013184 14.711779594421387 9.184850467946473e-16 -0.16593750053816034 0.9861362714732422 -2.9098466267013943e-9
-3.0350208282470703 14.372797012329102 3.0350208282470703 -0.20860276950988846 0.9554945154764671 0.20860276950988846
-3.1268889904022217 13.326715469360352 6.133613586425781 -0.22410612765120178 0.8841506628400895 0.40994395830236785
-6.5682783126831055 9.535662651062012 9.535662651062012 -0.4464177489218863 0.6327365636737915 0.6327366232784363
-3.1802220344543457 9.056506156921387 11.526745796203613 -0.23356271157655234 0.6011713837815535 0.76422603140902
-3.1802220344543457 11.526745796203613 9.056506156921387 -0.23356271157655234 0.76422603140902 0.6011713837815535
9.184850467946473e-16 -12.472043991088867 -8.333553314208984 1.0730064518776676e-9 -0.8391566797652508 -0.5438897561136451
3.1802220344543457 -11.526745796203613 -9.056506156921387 0.23356270930659886 -0.7642260835862914 -0.6011713183342331
9.184850467946473e-16 -8.333553314208984 -12.472043991088867 1.0730064518776676e-9 -0.5438897561136451 -0.8391566797652508
3.1802220344543457 -9.056506156921387 -11.526745796203613 0.23356270930659886 -0.6011713183342331 -0.7642260835862914
9.184850467946473e-16 -10.60660171508789 -10.60660171508789 -2.533611590387111e-10 -0.7071067513842252 -0.7071068109888685
6.5682783126831055 -9.535662651062012 -9.535662651062012 0.4464177489218863 -0.6327366232784363 -0.6327365636737915
9.184850467946473e-16 -13.858193397521973 -5.740251541137695 -4.835970579945615e-11 -0.9329769144604373 -0.35993621252088787
3.1268889904022217 -13.326715469360352 -6.133613586425781 0.22410613312713698 -0.8841506844439242 -0.40994390871452435
9.184850467946473e-16 -14.711779594421387 -2.9263548851013184 -3.708519321442147e-9 -0.9861362714732422 -0.16593750053816034
3.0350208282470703 -14.372797012329102 -3.0350208282470703 0.20860276950988846 -0.9554945154764671 -0.20860276950988846
5.510910704284357e-16 -8.314915657043457 -3.444150924682617 2.1497680976439484e-9 0.9329769421984243 0.3599361406223028
5.510910704284357e-16 -8.827067375183105 -1.7558128833770752 2.09435072741127e-9 0.9861362739116233 0.16593748604730613
1.8210124969482422 -8.623678207397461 -1.8210124969482422 -0.20860264879508303 0.9554945681851628 0.20860264879508303
1.8761334419250488 -7.996029376983643 -3.6801681518554688 -0.2241060906688208 0.8841506933016324 0.40994391282147535
3.6801681518554688 -7.996029376983643 -1.8761334419250488 -0.4099439100835081 0.8841506873964938 0.22410611897436508
6.446493625640869 -11.911567687988281 -6.446493625640869 0.43612725228888244 -0.7871378784062543 -0.43612725228888244
6.133613586425781 -13.326715469360352 -3.1268889904022217 0.40994393350844655 -0.884150673642007 -0.2241061303891694
9.184850467946473e-16 -5.740251541137695 -13.858193397521973 -4.835970579945615e-11 -0.35993621252088787 -0.9329769144604373
3.1268889904022217 -6.133613586425781 -13.326715469360352 0.22410613312713698 -0.40994390871452435 -0.8841506844439242
9.184850467946473e-16 -2.9263548851013184 -14.711779594421387 -3.708519321442147e-9 -0.16593750053816034 -0.9861362714732422
3.0350208282470703 -3.0350208282470703 -14.372797012329102 0.20860276950988846 -0.20860276950988846 -0.9554945154764671
5.510910704284357e-16 -3.444150924682617 -8.314915657043457 2.1497680976439484e-9 0.3599361406223028 0.9329769421984243
5.510910704284357e-16 -1.7558128833770752 -8.827067375183105 2.09435072741127e-9 0.16593748604730613 0.9861362739116233
1.8210124969482422 -1.8210124969482422 -8.623678207397461 -0.20860264879508303 0.20860264879508303 0.9554945681851628
1.8761334419250488 -3.6801681518554688 -7.996029376983643 -0.2241060906688208 0.40994391282147535 0.8841506933016324
3.6801681518554688 -1.8761334419250488 -7.996029376983643 -0.4099439100835081 0.22410611897436508 0.8841506873964938
6.446493625640869 -6.446493625640869 -11.911567687988281 0.43612725228888244 -0.43612725228888244 -0.7871378784062543
6.133613586425781 -3.1268889904022217 -13.326715469360352 0.40994393350844655 -0.2241061303891694 -0.884150673642007
5.510910704284357e-16 -6.363961219787598 -6.363961219787598 2.7544569874531455e-10 0.7071067811865476 0.7071067811865476
5.510910704284357e-16 -7.483226299285889 -5.000132083892822 -6.974540553484592e-10 0.83915670696933 0.5438897141410101
5.510910704284357e-16 -5.000132083892822 -7.483226299285889 -6.974540553484592e-10 0.5438897141410101 0.83915670696933
1.9081332683563232 -6.9160475730896 -5.433903694152832 -0.23356280447539404 0.7642260428345566 0.6011713331647003
1.9081332683563232 -5.433903694152832 -6.9160475730896 -0.23356280447539404 0.6011713331647003 0.7642260428345566
3.940967082977295 -5.721397399902344 -5.721397399902344 -0.4464178134842093 0.6327365707006265 0.6327365707006265
3.867896318435669 -7.146940231323242 -3.867896318435669 -0.4361272707539849 0.7871378579444395 0.4361272707539849
3.867896318435669 -3.867896318435669 -7.146940231323242 -0.4361272707539849 0.4361272707539849 0.7871378579444395
5.721397399902344 -5.721397399902344 -3.940967082977295 -0.6327365707006265 0.6327365707006265 0.4464178134842093
5.721397399902344 -3.940967082977295 -5.721397399902344 -0.6327365707006265 0.4464178134842093 0.6327365707006265
7.146940231323242 -3.867896318435669 -3.867896318435669 -0.7871378579444395 0.4361272707539849 0.4361272707539849
5.433903694152832 -6.9160475730896 -1.9081332683563232 -0.601171307872782 0.764226070287397 0.23356277974799702
6.9160475730896 -5.433903694152832 -1.9081332683563232 -0.7642260428345566 0.6011713331647003 0.23356280447539404
5.433903694152832 -1.9081332683563232 -6.9160475730896 -0.601171307872782 0.23356277974799702 0.764226070287397
6.9160475730896 -1.9081332683563232 -5.433903694152832 -0.764226040174777 0.23356281856367364 0.6011713310724094
9.056506156921387 -11.526745796203613 -3.1802220344543457 0.6011713183342331 -0.7642260835862914 -0.23356270930659886
9.535662651062012 -9.535662651062012 -6.5682783126831055 0.6327365636737915 -0.6327366232784363 -0.4464177489218863
11.526745796203613 -9.056506156921387 -3.1802220344543457 0.7642260588618598 -0.6011713584896329 -0.2335626868491594
9.535662651062012 -6.5682783126831055 -9.535662651062012 0.6327365636737915 -0.4464177489218863 -0.6327366232784363
9.056506156921387 -3.1802220344543457 -11.526745796203613 0.6011713183342331 -0.23356270930659886 -0.7642260835862914
11.526745796203613 -3.1802220344543457 -9.056506156921387 0.7642260588618598 -0.2335626868491594 -0.6011713584896329
7.996029376983643 -3.6801681518554688 -1.8761334419250488 -0.8841506687452281 0.4099439610403355 0.22410609934565845
7.996029376983643 -1.8761334419250488 -3.6801681518554688 -0.8841506687452281 0.22410609934565845 0.4099439610403355
8.623678207397461 -1.8210124969482422 -1.8210124969482422 -0.9554945800654818 0.20860263648762162 0.2086026066852993
11.911567687988281 -6.446493625640869 -6.446493625640869 0.7871379215425054 -0.43612721336196425 -0.43612721336196425
13.326715469360352 -6.133613586425781 -3.1268889904022217 0.8841506628400895 -0.40994395830236785 -0.22410612765120178
13.326715469360352 -3.1268889904022217 -6.133613586425781 0.8841506628400895 -0.22410612765120178 -0.40994395830236785
14.372797012329102 -3.0350208282470703 -3.0350208282470703 0.9554945214166302 -0.20860275590557875 -0.20860275590557875
9.184850467946473e-16 -15 9.184850467946473e-16 6.885156889069322e-10 -1 6.885156889069322e-10
9.184850467946473e-16 -14.711779594421387 2.9263548851013184 -2.4566868883872382e-9 -0.9861362714732422 0.16593750053816034
2.9263548851013184 -14.711779594421387 9.184850467946473e-16 0.16593747155645183 -0.9861362763500041 2.0125799186956443e-9
3.0350208282470703 -14.372797012329102 3.0350208282470703 0.20860275590557875 -0.9554945214166302 0.20860275590557875
9.184850467946473e-16 -13.858193397521973 5.740251541137695 2.065917465751348e-9 -0.9329769144604373 0.35993621252088787
3.1268889904022217 -13.326715469360352 6.133613586425781 0.2241061303891694 -0.884150673642007 0.40994393350844655
5.510910704284357e-16 -9 5.510910704284357e-16 -3.929780667544236e-10 1 -3.929780667544236e-10
5.510910704284357e-16 -8.827067375183105 1.7558128833770752 6.949676504535015e-10 0.9861362739116233 -0.16593748604730613
1.7558128833770752 -8.827067375183105 5.510910704284357e-16 -0.16593748604730613 0.9861362739116233 -2.4086899539142475e-9
1.8210124969482422 -8.623678207397461 1.8210124969482422 -0.20860264879508303 0.9554945681851628 -0.20860264879508303
5.510910704284357e-16 -8.314915657043457 3.444150924682617 2.3047456808178944e-9 0.9329769421984243 -0.3599361406223028
3.444150924682617 -8.314915657043457 5.510910704284357e-16 -0.3599361406223028 0.9329769421984243 2.3047456808178944e-9
1.8761334419250488 -7.996029376983643 3.6801681518554688 -0.22410611897436508 0.8841506873964938 -0.4099439100835081
3.6801681518554688 -7.996029376983643 1.8761334419250488 -0.4099439100835081 0.8841506873964938 -0.22410611897436508
5.740251541137695 -13.858193397521973 9.184850467946473e-16 0.35993621252088787 -0.9329769144604373 1.1155315714764667e-9
6.133613586425781 -13.326715469360352 3.1268889904022217 0.40994395693338403 -0.8841506598875201 0.22410614180397326
6.446493625640869 -11.911567687988281 6.446493625640869 0.43612725228888244 -0.7871378784062543 0.43612725228888244
9.184850467946473e-16 -12.472043991088867 8.333553314208984 -8.217135926024577e-11 -0.8391566797652508 0.5438897561136451
3.1802220344543457 -11.526745796203613 9.056506156921387 0.2335626868491594 -0.7642260588618598 0.6011713584896329
9.184850467946473e-16 -10.60660171508789 10.60660171508789 4.036949177421964e-10 -0.7071067811865476 0.7071067811865476
9.184850467946473e-16 -8.333553314208984 12.472043991088867 1.0730064518776676e-9 -0.5438897561136451 0.8391566797652508
3.1802220344543457 -9.056506156921387 11.526745796203613 0.23356270930659886 -0.6011713183342331 0.7642260835862914
6.5682783126831055 -9.535662651062012 9.535662651062012 0.4464177489218863 -0.6327366232784363 0.6327365636737915
5.510910704284357e-16 -7.483226299285889 5.000132083892822 -6.974540553484592e-10 0.83915670696933 -0.5438897141410101
5.510910704284357e-16 -6.363961219787598 6.363961219787598 1.6680481726019522e-9 0.7071067811865476 -0.7071067811865476
5.510910704284357e-16 -5.000132083892822 7.483226299285889 -6.076675309860887e-10 0.5438896449642935 -0.8391567518054149
1.9081332683563232 -6.9160475730896 5.433903694152832 -0.23356280792455525 0.7642260649678382 -0.6011713036882006
1.9081332683563232 -5.433903694152832 6.9160475730896 -0.23356280447539404 0.6011713331647003 -0.7642260428345566
5.000132083892822 -7.483226299285889 5.510910704284357e-16 -0.5438897141410101 0.83915670696933 -6.974540553484592e-10
5.433903694152832 -6.9160475730896 1.9081332683563232 -0.601171307872782 0.764226070287397 -0.23356277974799702
6.363961219787598 -6.363961219787598 5.510910704284357e-16 -0.7071067811865476 0.7071067811865476 1.6680481726019522e-9
7.483226299285889 -5.000132083892822 5.510910704284357e-16 -0.8391567518054149 0.5438896449642935 -6.076675309860887e-10
6.9160475730896 -5.433903694152832 1.9081332683563232 -0.7642260649678382 0.6011713036882006 -0.23356280792455525
3.867896318435669 -7.146940231323242 3.867896318435669 -0.4361272707539849 0.7871378579444395 -0.4361272707539849
3.940967082977295 -5.721397399902344 5.721397399902344 -0.4464177489218863 0.6327366232784363 -0.6327365636737915
3.867896318435669 -3.867896318435669 7.146940231323242 -0.4361272707539849 0.4361272707539849 -0.7871378579444395
5.721397399902344 -5.721397399902344 3.940967082977295 -0.6327365636737915 0.6327366232784363 -0.4464177489218863
7.146940231323242 -3.867896318435669 3.867896318435669 -0.7871378477135321 0.43612729488769636 -0.43612726508537464
5.721397399902344 -3.940967082977295 5.721397399902344 -0.6327365707006265 0.4464178134842093 -0.6327365707006265
5.433903694152832 -1.9081332683563232 6.9160475730896 -0.601171307872782 0.23356277974799702 -0.764226070287397
6.9160475730896 -1.9081332683563232 5.433903694152832 -0.764226070287397 0.23356277974799702 -0.601171307872782
9.184850467946473e-16 -5.740251541137695 13.858193397521973 -4.835970579945615e-11 -0.35993621252088787 0.9329769144604373
3.1268889904022217 -6.133613586425781 13.326715469360352 0.22410611897436508 -0.4099439100835081 0.8841506873964938
5.510910704284357e-16 -3.444150924682617 8.314915657043457 2.1497680976439484e-9 0.3599361406223028 -0.9329769421984243
5.510910704284357e-16 -1.7558128833770752 8.827067375183105 2.09435072741127e-9 0.16593748604730613 -0.9861362739116233
1.8210124969482422 -1.8210124969482422 8.623678207397461 -0.20860264879508303 0.20860264879508303 -0.9554945681851628
1.8761334419250488 -3.6801681518554688 7.996029376983643 -0.2241061303891694 0.40994393350844655 -0.884150673642007
3.6801681518554688 -1.8761334419250488 7.996029376983643 -0.4099439610403355 0.22410609934565845 -0.8841506687452281
9.184850467946473e-16 -2.9263548851013184 14.711779594421387 -3.708519321442147e-9 -0.16593750053816034 0.9861362714732422
3.0350208282470703 -3.0350208282470703 14.372797012329102 0.20860276950988846 -0.20860276950988846 0.9554945154764671
6.446493625640869 -6.446493625640869 11.911567687988281 0.43612725228888244 -0.43612725228888244 0.7871378784062543
6.133613586425781 -3.1268889904022217 13.326715469360352 0.40994395830236785 -0.22410612765120178 0.8841506628400895
8.333553314208984 -12.472043991088867 9.184850467946473e-16 0.5438897561136451 -0.8391566797652508 -8.217135926024577e-11
9.056506156921387 -11.526745796203613 3.1802220344543457 0.6011713584896329 -0.7642260588618598 0.2335626868491594
10.60660171508789 -10.60660171508789 9.184850467946473e-16 0.7071067811865476 -0.7071067811865476 4.036949177421964e-10
9.535662651062012 -9.535662651062012 6.5682783126831055 0.6327365636737915 -0.6327366232784363 0.4464177489218863
12.472043991088867 -8.333553314208984 9.184850467946473e-16 0.8391566797652508 -0.5438897561136451 1.0730064518776676e-9
11.526745796203613 -9.056506156921387 3.1802220344543457 0.7642260588618598 -0.6011713584896329 0.2335626868491594
8.314915657043457 -3.444150924682617 5.510910704284357e-16 -0.9329769421984243 0.3599361406223028 2.1257850603528003e-9
7.996029376983643 -3.6801681518554688 1.8761334419250488 -0.8841506657926588 0.40994395967135167 -0.22410611349843015
7.996029376983643 -1.8761334419250488 3.6801681518554688 -0.8841506687452281 0.22410609934565845 -0.4099439610403355
8.827067375183105 -1.7558128833770752 5.510910704284357e-16 -0.9861362739116233 0.16593748604730613 1.2994932011604114e-9
8.623678207397461 -1.8210124969482422 1.8210124969482422 -0.9554945681851628 0.20860264879508303 -0.20860264879508303
13.858193397521973 -5.740251541137695 9.184850467946473e-16 0.9329769044524542 -0.35993623846219786 -4.835970181125774e-11
13.326715469360352 -6.133613586425781 3.1268889904022217 0.8841506873964938 -0.4099439100835081 0.22410611897436508
11.911567687988281 -6.446493625640869 6.446493625640869 0.7871379215425054 -0.43612721336196425 0.43612721336196425
14.711779594421387 -2.9263548851013184 9.184850467946473e-16 0.9861362714732422 -0.16593750053816034 -2.9098466267013943e-9
14.372797012329102 -3.0350208282470703 3.0350208282470703 0.9554945154764671 -0.20860276950988846 0.20860276950988846
13.326715469360352 -3.1268889904022217 6.133613586425781 0.8841506628400895 -0.22410612765120178 0.40994395830236785
9.535662651062012 -6.5682783126831055 9.535662651062012 0.6327365636737915 -0.4464177489218863 0.6327366232784363
9.056506156921387 -3.1802220344543457 11.526745796203613 0.6011713837815535 -0.23356271157655234 0.76422603140902
11.526745796203613 -3.1802220344543457 9.056506156921387 0.76422603140902 -0.23356271157655234 0.6011713837815535
9.184850467946473e-16 9.184850467946473e-16 -15 6.885156889069322e-10 6.885156889069322e-10 -1
9.184850467946473e-16 2.9263548851013184 -14.711779594421387 -2.4566868883872382e-9 0.16593750053816034 -0.9861362714732422
2.9263548851013184 9.184850467946473e-16 -14.711779594421387 0.16593747155645183 2.0125799186956443e-9 -0.9861362763500041
3.0350208282470703 3.0350208282470703 -14.372797012329102 0.20860275590557875 0.20860275590557875 -0.9554945214166302
5.510910704284357e-16 5.510910704284357e-16 -9 -3.929780667544236e-10 -3.929780667544236e-10 1
5.510910704284357e-16 1.7558128833770752 -8.827067375183105 6.949676504535015e-10 -0.16593748604730613 0.9861362739116233
1.7558128833770752 5.510910704284357e-16 -8.827067375183105 -0.16593748604730613 -2.4086899539142475e-9 0.9861362739116233
1.8210124969482422 1.8210124969482422 -8.623678207397461 -0.20860264879508303 -0.20860264879508303 0.9554945681851628
5.510910704284357e-16 3.444150924682617 -8.314915657043457 2.3047456808178944e-9 -0.3599361406223028 0.9329769421984243
3.444150924682617 5.510910704284357e-16 -8.314915657043457 -0.3599361406223028 2.3047456808178944e-9 0.9329769421984243
1.8761334419250488 3.6801681518554688 -7.996029376983643 -0.22410611897436508 -0.4099439100835081 0.8841506873964938
3.6801681518554688 1.8761334419250488 -7.996029376983643 -0.4099439100835081 -0.22410611897436508 0.8841506873964938
9.184850467946473e-16 5.740251541137695 -13.858193397521973 2.065917465751348e-9 0.35993621252088787 -0.9329769144604373
3.1268889904022217 6.133613586425781 -13.326715469360352 0.2241061303891694 0.40994393350844655 -0.884150673642007
5.740251541137695 9.184850467946473e-16 -13.858193397521973 0.35993621252088787 1.1155315714764667e-9 -0.9329769144604373
6.133613586425781 3.1268889904022217 -13.326715469360352 0.40994395693338403 0.22410614180397326 -0.8841506598875201
6.446493625640869 6.446493625640869 -11.911567687988281 0.43612725228888244 0.43612725228888244 -0.7871378784062543
5.510910704284357e-16 5.000132083892822 -7.483226299285889 -6.974540553484592e-10 -0.5438897141410101 0.83915670696933
5.510910704284357e-16 6.363961219787598 -6.363961219787598 1.6680481726019522e-9 -0.7071067811865476 0.7071067811865476
5.510910704284357e-16 7.483226299285889 -5.000132083892822 -6.076675309860887e-10 -0.8391567518054149 0.5438896449642935
1.9081332683563232 5.433903694152832 -6.9160475730896 -0.23356280792455525 -0.6011713036882006 0.7642260649678382
1.9081332683563232 6.9160475730896 -5.433903694152832 -0.23356280447539404 -0.7642260428345566 0.6011713331647003
5.000132083892822 5.510910704284357e-16 -7.483226299285889 -0.5438897141410101 -6.974540553484592e-10 0.83915670696933
5.433903694152832 1.9081332683563232 -6.9160475730896 -0.601171307872782 -0.23356277974799702 0.764226070287397
6.363961219787598 5.510910704284357e-16 -6.363961219787598 -0.7071067811865476 1.6680481726019522e-9 0.7071067811865476
7.483226299285889 5.510910704284357e-16 -5.000132083892822 -0.8391567518054149 -6.076675309860887e-10 0.5438896449642935
6.9160475730896 1.9081332683563232 -5.433903694152832 -0.7642260428345566 -0.23356280447539404 0.6011713331647003
3.867896318435669 3.867896318435669 -7.146940231323242 -0.4361272707539849 -0.4361272707539849 0.7871378579444395
3.940967082977295 5.721397399902344 -5.721397399902344 -0.4464177489218863 -0.6327365636737915 0.6327366232784363
3.867896318435669 7.146940231323242 -3.867896318435669 -0.4361272707539849 -0.7871378579444395 0.4361272707539849
5.721397399902344 3.940967082977295 -5.721397399902344 -0.6327365636737915 -0.4464177489218863 0.6327366232784363
7.146940231323242 3.867896318435669 -3.867896318435669 -0.7871378579444395 -0.4361272707539849 0.4361272707539849
5.721397399902344 5.721397399902344 -3.940967082977295 -0.6327365707006265 -0.6327365707006265 0.4464178134842093
5.433903694152832 6.9160475730896 -1.9081332683563232 -0.601171307872782 -0.764226070287397 0.23356277974799702
6.9160475730896 5.433903694152832 -1.9081332683563232 -0.764226070287397 -0.601171307872782 0.23356277974799702
9.184850467946473e-16 8.333553314208984 -12.472043991088867 -8.217135926024577e-11 0.5438897561136451 -0.8391566797652508
3.1802220344543457 9.056506156921387 -11.526745796203613 0.2335626868491594 0.6011713584896329 -0.7642260588618598
9.184850467946473e-16 10.60660171508789 -10.60660171508789 4.036949177421964e-10 0.7071067811865476 -0.7071067811865476
9.184850467946473e-16 12.472043991088867 -8.333553314208984 1.0730064518776676e-9 0.8391566797652508 -0.5438897561136451
3.1802220344543457 11.526745796203613 -9.056506156921387 0.23356270930659886 0.7642260835862914 -0.6011713183342331
6.5682783126831055 9.535662651062012 -9.535662651062012 0.4464177489218863 0.6327365636737915 -0.6327366232784363
5.510910704284357e-16 8.314915657043457 -3.444150924682617 2.1497680976439484e-9 -0.9329769421984243 0.3599361406223028
5.510910704284357e-16 8.827067375183105 -1.7558128833770752 2.09435072741127e-9 -0.9861362739116233 0.16593748604730613
1.8210124969482422 8.623678207397461 -1.8210124969482422 -0.20860264879508303 -0.9554945681851628 0.20860264879508303
1.8761334419250488 7.996029376983643 -3.6801681518554688 -0.2241061303891694 -0.884150673642007 0.40994393350844655
3.6801681518554688 7.996029376983643 -1.8761334419250488 -0.4099439610403355 -0.8841506687452281 0.22410609934565845
9.184850467946473e-16 13.858193397521973 -5.740251541137695 -4.835970579945615e-11 0.9329769144604373 -0.35993621252088787
3.1268889904022217 13.326715469360352 -6.133613586425781 0.22410611897436508 0.8841506873964938 -0.4099439100835081
9.184850467946473e-16 14.711779594421387 -2.9263548851013184 -3.708519321442147e-9 0.9861362714732422 -0.16593750053816034
3.0350208282470703 14.372797012329102 -3.0350208282470703 0.20860276950988846 0.9554945154764671 -0.20860276950988846
6.446493625640869 11.911567687988281 -6.446493625640869 0.43612725228888244 0.7871378784062543 -0.43612725228888244
6.133613586425781 13.326715469360352 -3.1268889904022217 0.40994395830236785 0.8841506628400895 -0.22410612765120178
8.333553314208984 9.184850467946473e-16 -12.472043991088867 0.5438897561136451 -8.217135926024577e-11 -0.8391566797652508
9.056506156921387 3.1802220344543457 -11.526745796203613 0.6011713584896329 0.2335626868491594 -0.7642260588618598
10.60660171508789 9.184850467946473e-16 -10.60660171508789 0.7071067811865476 4.036949177421964e-10 -0.7071067811865476
9.535662651062012 6.5682783126831055 -9.535662651062012 0.6327365636737915 0.4464177489218863 -0.6327366232784363
12.472043991088867 9.184850467946473e-16 -8.333553314208984 0.8391566797652508 1.0730064518776676e-9 -0.5438897561136451
11.526745796203613 3.1802220344543457 -9.056506156921387 0.7642260588618598 0.2335626868491594 -0.6011713584896329
8.314915657043457 5.510910704284357e-16 -3.444150924682617 -0.9329769421984243 2.1257850603528003e-9 0.3599361406223028
8.827067375183105 5.510910704284357e-16 -1.7558128833770752 -0.9861362739116233 2.09435072741127e-9 0.16593748604730613
8.623678207397461 1.8210124969482422 -1.8210124969482422 -0.9554945681851628 -0.20860264879508303 0.20860264879508303
7.996029376983643 1.8761334419250488 -3.6801681518554688 -0.884150673642007 -0.2241061303891694 0.40994393350844655
7.996029376983643 3.6801681518554688 -1.8761334419250488 -0.8841506687452281 -0.4099439610403355 0.22410609934565845
13.858193397521973 9.184850467946473e-16 -5.740251541137695 0.9329769144604373 -4.835970579945615e-11 -0.35993621252088787
13.326715469360352 3.1268889904022217 -6.133613586425781 0.8841506873964938 0.22410611897436508 -0.4099439100835081
14.711779594421387 9.184850467946473e-16 -2.9263548851013184 0.9861362714732422 -3.708519321442147e-9 -0.16593750053816034
14.372797012329102 3.0350208282470703 -3.0350208282470703 0.9554945154764671 0.20860276950988846 -0.20860276950988846
11.911567687988281 6.446493625640869 -6.446493625640869 0.7871378784062543 0.43612725228888244 -0.43612725228888244
13.326715469360352 6.133613586425781 -3.1268889904022217 0.8841506628400895 0.40994395830236785 -0.22410612765120178
9.535662651062012 9.535662651062012 -6.5682783126831055 0.6327365636737915 0.6327366232784363 -0.4464177489218863
9.056506156921387 11.526745796203613 -3.1802220344543457 0.6011713837815535 0.76422603140902 -0.23356271157655234
11.526745796203613 9.056506156921387 -3.1802220344543457 0.76422603140902 0.6011713837815535 -0.23356271157655234
5.510910704284357e-16 5.000132083892822 7.483226299285889 -6.076675309860887e-10 -0.5438896449642935 -0.8391567518054149
5.510910704284357e-16 7.483226299285889 5.000132083892822 -6.076675309860887e-10 -0.8391567518054149 -0.5438896449642935
5.510910704284357e-16 6.363961219787598 6.363961219787598 3.0412286543335846e-9 -0.7071067811865476 -0.7071067811865476
1.9081332683563232 5.433903694152832 6.9160475730896 -0.23356280792455525 -0.6011713036882006 -0.7642260649678382
1.9081332683563232 6.9160475730896 5.433903694152832 -0.23356280792455525 -0.7642260649678382 -0.6011713036882006
5.000132083892822 5.510910704284357e-16 7.483226299285889 -0.5438896449642935 -6.076675309860887e-10 -0.8391567518054149
5.433903694152832 1.9081332683563232 6.9160475730896 -0.601171307872782 -0.23356277974799702 -0.764226070287397
7.483226299285889 5.510910704284357e-16 5.000132083892822 -0.8391567518054149 -6.076675309860887e-10 -0.5438896449642935
6.363961219787598 5.510910704284357e-16 6.363961219787598 -0.7071067811865476 3.0412286543335846e-9 -0.7071067811865476
6.9160475730896 1.9081332683563232 5.433903694152832 -0.7642260649678382 -0.23356280792455525 -0.6011713036882006
5.000132083892822 7.483226299285889 5.510910704284357e-16 -0.5438896449642935 -0.8391567518054149 -6.076675309860887e-10
5.433903694152832 6.9160475730896 1.9081332683563232 -0.601171307872782 -0.764226070287397 -0.23356277974799702
7.483226299285889 5.000132083892822 5.510910704284357e-16 -0.8391567518054149 -0.5438896449642935 -6.076675309860887e-10
6.9160475730896 5.433903694152832 1.9081332683563232 -0.764226070287397 -0.601171307872782 -0.23356277974799702
6.363961219787598 6.363961219787598 5.510910704284357e-16 -0.7071067811865476 -0.7071067811865476 3.0412286543335846e-9
3.867896318435669 3.867896318435669 7.146940231323242 -0.43612726508537464 -0.43612729488769636 -0.7871378477135321
3.867896318435669 7.146940231323242 3.867896318435669 -0.43612726508537464 -0.7871378477135321 -0.43612729488769636
3.940967082977295 5.721397399902344 5.721397399902344 -0.4464177489218863 -0.6327365636737915 -0.6327366232784363
7.146940231323242 3.867896318435669 3.867896318435669 -0.7871378477135321 -0.43612726508537464 -0.43612729488769636
5.721397399902344 3.940967082977295 5.721397399902344 -0.6327365636737915 -0.4464177489218863 -0.6327366232784363
5.721397399902344 5.721397399902344 3.940967082977295 -0.6327365636737915 -0.6327366232784363 -0.4464177489218863
5.510910704284357e-16 5.510910704284357e-16 9 -3.929780667544236e-10 -3.929780667544236e-10 -1
5.510910704284357e-16 1.7558128833770752 8.827067375183105 6.949676504535015e-10 -0.16593748604730613 -0.9861362739116233
1.7558128833770752 5.510910704284357e-16 8.827067375183105 -0.16593748604730613 -2.4086899539142475e-9 -0.9861362739116233
1.8210124969482422 1.8210124969482422 8.623678207397461 -0.20860264879508303 -0.20860264879508303 -0.9554945681851628
5.510910704284357e-16 3.444150924682617 8.314915657043457 2.3047456808178944e-9 -0.3599361406223028 -0.9329769421984243
3.444150924682617 5.510910704284357e-16 8.314915657043457 -0.3599361406223028 2.3047456808178944e-9 -0.9329769421984243
1.8761334419250488 3.6801681518554688 7.996029376983643 -0.22410611349843015 -0.40994395967135167 -0.8841506657926588
3.6801681518554688 1.8761334419250488 7.996029376983643 -0.40994395967135167 -0.22410611349843015 -0.8841506657926588
9.184850467946473e-16 9.184850467946473e-16 15 6.885156889069322e-10 6.885156889069322e-10 1
9.184850467946473e-16 2.9263548851013184 14.711779594421387 -2.4566868883872382e-9 0.16593750053816034 0.9861362714732422
2.9263548851013184 9.184850467946473e-16 14.711779594421387 0.16593747155645183 2.0125799186956443e-9 0.9861362763500041
3.0350208282470703 3.0350208282470703 14.372797012329102 0.20860275590557875 0.20860275590557875 0.9554945214166302
9.184850467946473e-16 5.740251541137695 13.858193397521973 2.065917465751348e-9 0.35993621252088787 0.9329769144604373
3.1268889904022217 6.133613586425781 13.326715469360352 0.2241061303891694 0.40994393350844655 0.884150673642007
5.740251541137695 9.184850467946473e-16 13.858193397521973 0.35993621252088787 1.1155315714764667e-9 0.9329769144604373
6.133613586425781 3.1268889904022217 13.326715469360352 0.40994395693338403 0.22410614180397326 0.8841506598875201
6.446493625640869 6.446493625640869 11.911567687988281 0.43612725228888244 0.43612725228888244 0.7871378784062543
5.510910704284357e-16 9 5.510910704284357e-16 -3.929780667544236e-10 -1 -3.929780667544236e-10
5.510910704284357e-16 8.827067375183105 1.7558128833770752 6.949676504535015e-10 -0.9861362739116233 -0.16593748604730613
1.7558128833770752 8.827067375183105 5.510910704284357e-16 -0.16593748604730613 -0.9861362739116233 -2.4086899539142475e-9
1.8210124969482422 8.623678207397461 1.8210124969482422 -0.20860264879508303 -0.9554945681851628 -0.20860264879508303
5.510910704284357e-16 8.314915657043457 3.444150924682617 2.3047456808178944e-9 -0.9329769421984243 -0.3599361406223028
3.444150924682617 8.314915657043457 5.510910704284357e-16 -0.3599361406223028 -0.9329769421984243 2.3047456808178944e-9
1.8761334419250488 7.996029376983643 3.6801681518554688 -0.22410611349843015 -0.8841506657926588 -0.40994395967135167
3.6801681518554688 7.996029376983643 1.8761334419250488 -0.40994395967135167 -0.8841506657926588 -0.22410611349843015
9.184850467946473e-16 15 9.184850467946473e-16 6.885156889069322e-10 1 6.885156889069322e-10
9.184850467946473e-16 14.711779594421387 2.9263548851013184 -2.4566868883872382e-9 0.9861362714732422 0.16593750053816034
2.9263548851013184 14.711779594421387 9.184850467946473e-16 0.16593747155645183 0.9861362763500041 2.0125799186956443e-9
3.0350208282470703 14.372797012329102 3.0350208282470703 0.20860275590557875 0.9554945214166302 0.20860275590557875
9.184850467946473e-16 13.858193397521973 5.740251541137695 2.065917465751348e-9 0.9329769144604373 0.35993621252088787
3.1268889904022217 13.326715469360352 6.133613586425781 0.2241061162363977 0.8841506765945766 0.4099439348774304
5.740251541137695 13.858193397521973 9.184850467946473e-16 0.35993621252088787 0.9329769144604373 1.1155315714764667e-9
6.133613586425781 13.326715469360352 3.1268889904022217 0.40994395693338403 0.8841506598875201 0.22410614180397326
6.446493625640869 11.911567687988281 6.446493625640869 0.43612725228888244 0.7871378784062543 0.43612725228888244
9.184850467946473e-16 10.60660171508789 10.60660171508789 4.036949007277279e-10 0.7071067513842252 0.7071068109888685
9.184850467946473e-16 8.333553314208984 12.472043991088867 -8.217135926024577e-11 0.5438897561136451 0.8391566797652508
3.1802220344543457 9.056506156921387 11.526745796203613 0.23356270930659886 0.6011713183342331 0.7642260835862914
9.184850467946473e-16 12.472043991088867 8.333553314208984 -8.217135926024577e-11 0.8391566797652508 0.5438897561136451
3.1802220344543457 11.526745796203613 9.056506156921387 0.23356270930659886 0.7642260835862914 0.6011713183342331
6.5682783126831055 9.535662651062012 9.535662651062012 0.44641776575810393 0.6327365875368447 0.6327365875368447
9 5.510910704284357e-16 5.510910704284357e-16 -1 -3.929780667544236e-10 -3.929780667544236e-10
8.827067375183105 5.510910704284357e-16 1.7558128833770752 -0.9861362739116233 6.949676504535015e-10 -0.16593748604730613
8.827067375183105 1.7558128833770752 5.510910704284357e-16 -0.9861362739116233 -0.16593748604730613 -2.4086899539142475e-9
8.623678207397461 1.8210124969482422 1.8210124969482422 -0.9554945681851628 -0.20860264879508303 -0.20860264879508303
8.314915657043457 5.510910704284357e-16 3.444150924682617 -0.93297692446842 8.364976694913885e-10 -0.3599361865795771
8.314915657043457 3.444150924682617 5.510910704284357e-16 -0.93297692446842 -0.3599361865795771 8.364976694913885e-10
7.996029376983643 1.8761334419250488 3.6801681518554688 -0.8841506657926588 -0.22410611349843015 -0.40994395967135167
7.996029376983643 3.6801681518554688 1.8761334419250488 -0.8841506657926588 -0.40994395967135167 -0.22410611349843015
15 9.184850467946473e-16 9.184850467946473e-16 1 6.885156889069322e-10 6.885156889069322e-10
14.711779594421387 9.184850467946473e-16 2.9263548851013184 0.9861362714732422 -2.4566868883872382e-9 0.16593750053816034
14.711779594421387 2.9263548851013184 9.184850467946473e-16 0.9861362763500041 0.16593747155645183 2.0125799186956443e-9
14.372797012329102 3.0350208282470703 3.0350208282470703 0.9554945214166302 0.20860275590557875 0.20860275590557875
13.858193397521973 9.184850467946473e-16 5.740251541137695 0.9329769144604373 2.065917465751348e-9 0.35993621252088787
13.326715469360352 3.1268889904022217 6.133613586425781 0.8841506765945766 0.2241061162363977 0.4099439348774304
13.858193397521973 5.740251541137695 9.184850467946473e-16 0.9329769144604373 0.35993621252088787 1.1155315714764667e-9
13.326715469360352 6.133613586425781 3.1268889904022217 0.8841506628400895 0.40994395830236785 0.22410612765120178
11.911567687988281 6.446493625640869 6.446493625640869 0.7871378784062543 0.43612725228888244 0.43612725228888244
10.60660171508789 9.184850467946473e-16 10.60660171508789 0.7071067513842252 4.036949007277279e-10 0.7071068109888685
8.333553314208984 9.184850467946473e-16 12.472043991088867 0.5438897561136451 -8.217135926024577e-11 0.8391566797652508
9.056506156921387 3.1802220344543457 11.526745796203613 0.6011713183342331 0.23356270930659886 0.7642260835862914
9.535662651062012 6.5682783126831055 9.535662651062012 0.6327365875368447 0.44641776575810393 0.6327365875368447
12.472043991088867 9.184850467946473e-16 8.333553314208984 0.8391566797652508 -8.217135926024577e-11 0.5438897561136451
11.526745796203613 3.1802220344543457 9.056506156921387 0.7642260835862914 0.23356270930659886 0.6011713183342331
10.60660171508789 10.60660171508789 9.184850467946473e-16 0.7071067513842252 0.7071068109888685 4.036949007277279e-10
9.535662651062012 9.535662651062012 6.5682783126831055 0.6327365875368447 0.6327365875368447 0.44641776575810393
8.333553314208984 12.472043991088867 9.184850467946473e-16 0.5438897561136451 0.8391566797652508 -8.217135926024577e-11
9.056506156921387 11.526745796203613 3.1802220344543457 0.6011713183342331 0.7642260835862914 0.23356270930659886
12.472043991088867 8.333553314208984 9.184850467946473e-16 0.8391566797652508 0.5438897561136451 -8.217135926024577e-11
11.526745796203613 9.056506156921387 3.1802220344543457 0.7642260835862914 0.6011713183342331 0.23356270930659886
3 2 6 4
3 2 13 16
3 4 23 13
3 2 4 13
3 0 42 7
3 0 46 42
3 1 17 44
3 1 44 46
3 0 2 1
3 0 6 2
3 1 2 16
3 0 1 46
3 3 8 98
3 3 98 102
3 3 5 4
3 3 4 6
3 4 5 23
3 5 100 24
3 5 102 100
3 3 102 5
3 7 9 8
3 0 7 6
3 3 6 8
3 6 7 8
3 7 42 48
3 7 48 9
3 9 48 51
3 8 9 104
3 8 104 98
3 9 106 104
3 9 51 106
3 51 154 106
3 13 15 14
3 13 14 16
3 13 23 15
3 14 226 18
3 14 230 226
3 15 25 228
3 15 228 230
3 14 15 230
3 1 16 17
3 17 18 19
3 14 18 16
3 16 18 17
3 17 62 44
3 17 19 62
3 19 65 62
3 18 232 19
3 18 226 232
3 19 232 234
3 19 234 65
3 65 234 282
3 5 24 23
3 15 23 25
3 24 26 25
3 23 24 25
3 24 100 118
3 24 118 26
3 26 118 121
3 25 26 243
3 25 243 228
3 26 245 243
3 26 121 245
3 121 354 245
3 42 46 43
3 42 43 49
3 44 45 46
3 44 63 45
3 43 46 45
3 43 45 47
3 43 47 50
3 45 64 47
3 47 60 50
3 47 64 73
3 47 73 60
3 60 73 91
3 42 49 48
3 48 52 51
3 48 49 52
3 49 53 52
3 43 50 49
3 49 50 53
3 50 59 53
3 51 52 155
3 51 155 154
3 52 53 158
3 52 158 155
3 53 171 158
3 53 59 171
3 59 173 171
3 50 60 59
3 59 60 61
3 60 91 61
3 59 61 173
3 61 92 174
3 61 174 173
3 44 62 63
3 62 65 66
3 62 66 63
3 45 63 64
3 63 66 67
3 63 67 64
3 64 67 74
3 65 283 66
3 65 282 283
3 66 286 67
3 66 283 286
3 67 286 299
3 64 74 73
3 73 74 75
3 73 75 91
3 67 299 74
3 74 299 301
3 74 301 75
3 75 302 93
3 75 301 302
3 61 91 92
3 75 93 91
3 91 93 92
3 92 93 97
3 92 201 174
3 92 97 201
3 97 209 201
3 93 323 97
3 93 302 323
3 97 323 330
3 97 330 209
3 209 330 455
3 98 99 102
3 98 105 99
3 100 102 101
3 100 101 119
3 99 101 102
3 99 103 101
3 99 108 103
3 101 103 120
3 98 104 105
3 104 106 107
3 104 107 105
3 106 154 156
3 106 156 107
3 105 107 109
3 99 105 108
3 105 109 108
3 108 109 115
3 107 160 109
3 107 156 160
3 109 160 177
3 103 108 116
3 103 144 120
3 103 116 144
3 116 147 144
3 109 177 115
3 115 177 179
3 108 115 116
3 115 117 116
3 116 117 147
3 115 179 117
3 117 181 148
3 117 179 181
3 100 119 118
3 118 122 121
3 118 119 122
3 101 120 119
3 119 128 122
3 119 120 128
3 120 145 128
3 121 122 355
3 121 355 354
3 122 128 366
3 122 366 355
3 128 389 366
3 120 144 145
3 144 146 145
3 144 147 146
3 128 145 389
3 145 391 389
3 145 146 391
3 146 152 392
3 146 392 391
3 117 148 147
3 146 147 152
3 147 148 152
3 148 153 152
3 148 181 212
3 148 212 153
3 153 212 220
3 152 153 400
3 152 400 392
3 153 402 400
3 153 220 402
3 220 472 402
3 154 155 156
3 155 157 156
3 155 158 157
3 158 171 159
3 157 158 159
3 156 157 160
3 157 161 160
3 160 161 177
3 157 159 161
3 159 162 161
3 159 172 162
3 161 162 178
3 171 173 172
3 159 171 172
3 172 173 175
3 173 174 175
3 174 202 175
3 162 172 176
3 172 175 176
3 175 203 176
3 177 178 179
3 161 178 177
3 178 182 179
3 162 180 178
3 178 180 182
3 180 214 182
3 179 182 181
3 181 182 213
3 162 176 180
3 176 223 180
3 176 203 223
3 180 223 214
3 174 201 202
3 201 209 210
3 201 210 202
3 175 202 203
3 202 211 203
3 202 210 211
3 203 211 224
3 209 456 210
3 209 455 456
3 210 459 211
3 210 456 459
3 211 459 482
3 181 213 212
3 212 221 220
3 212 213 221
3 182 214 213
3 213 214 222
3 214 225 222
3 213 222 221
3 220 221 473
3 220 473 472
3 221 222 476
3 221 476 473
3 222 484 476
3 203 224 223
3 214 223 225
3 223 224 225
3 224 481 225
3 211 482 224
3 224 482 481
3 222 225 484
3 225 481 484
3 226 230 227
3 226 227 233
3 228 229 230
3 228 244 229
3 227 230 229
3 227 229 231
3 227 231 241
3 229 252 231
3 226 233 232
3 232 235 234
3 232 233 235
3 234 284 282
3 234 235 284
3 233 242 235
3 227 241 233
3 233 241 242
3 241 269 242
3 235 242 296
3 235 296 284
3 242 334 296
3 228 243 244
3 243 245 246
3 243 246 244
3 245 354 356
3 245 356 246
3 229 244 252
3 244 246 253
3 244 253 252
3 252 253 273
3 246 368 253
3 246 356 368
3 253 368 406
3 231 270 241
3 231 252 272
3 231 272 270
3 270 272 278
3 242 269 334
3 269 336 334
3 241 270 269
3 269 270 271
3 270 278 271
3 269 271 336
3 271 279 338
3 271 338 336
3 252 273 272
3 272 273 274
3 272 274 278
3 253 406 273
3 273 406 408
3 273 408 274
3 274 410 280
3 274 408 410
3 271 278 279
3 274 280 278
3 278 280 279
3 279 280 281
3 279 345 338
3 279 281 345
3 281 348 345
3 280 417 281
3 280 410 417
3 281 417 419
3 281 419 348
3 348 419 495
3 282 284 283
3 283 284 285
3 283 285 286
3 286 287 299
3 285 287 286
3 284 296 285
3 285 296 297
3 296 334 297
3 285 297 287
3 287 297 298
3 287 298 300
3 297 335 298
3 299 300 301
3 287 300 299
3 300 303 301
3 301 303 302
3 302 303 324
3 298 304 300
3 300 304 303
3 303 304 332
3 302 324 323
3 323 331 330
3 323 324 331
3 330 457 455
3 330 331 457
3 303 332 324
3 324 332 333
3 324 333 331
3 332 352 333
3 331 333 461
3 331 461 457
3 333 505 461
3 334 336 335
3 297 334 335
3 335 336 339
3 298 335 337
3 335 339 337
3 337 339 347
3 336 338 339
3 338 346 339
3 298 337 304
3 304 337 351
3 304 351 332
3 337 347 351
3 338 345 346
3 345 348 349
3 345 349 346
3 339 346 347
3 346 350 347
3 347 350 353
3 346 349 350
3 348 496 349
3 348 495 496
3 349 499 350
3 349 496 499
3 350 499 508
3 332 351 352
3 347 353 351
3 351 353 352
3 352 353 504
3 333 352 505
3 352 504 505
3 350 508 353
3 353 508 504
3 354 355 356
3 355 357 356
3 355 366 357
3 366 389 367
3 357 366 367
3 356 357 368
3 357 369 368
3 368 369 406
3 357 367 369
3 367 370 369
3 367 390 370
3 369 370 407
3 389 391 390
3 367 389 390
3 390 391 393
3 391 392 393
3 392 401 393
3 370 390 394
3 390 393 394
3 393 404 394
3 392 400 401
3 400 402 403
3 400 403 401
3 402 472 474
3 402 474 403
3 393 401 404
3 401 405 404
3 401 403 405
3 404 405 424
3 403 478 405
3 403 474 478
3 405 478 512
3 406 407 408
3 369 407 406
3 407 411 408
3 370 409 407
3 407 409 411
3 409 421 411
3 408 411 410
3 410 411 418
3 410 418 417
3 417 420 419
3 417 418 420
3 419 497 495
3 419 420 497
3 411 421 418
3 418 421 422
3 421 425 422
3 418 422 420
3 420 422 501
3 420 501 497
3 422 514 501
3 370 394 409
3 394 423 409
3 394 404 423
3 409 423 421
3 404 424 423
3 421 423 425
3 423 424 425
3 424 510 425
3 405 512 424
3 424 512 510
3 422 425 514
3 425 510 514
3 455 457 456
3 456 457 458
3 456 458 459
3 459 460 482
3 458 460 459
3 457 461 458
3 458 461 462
3 461 505 462
3 460 462 463
3 458 462 460
3 460 463 483
3 462 506 463
3 472 473 474
3 473 475 474
3 473 476 475
3 476 484 477
3 475 476 477
3 474 475 478
3 475 479 478
3 478 479 512
3 477 480 479
3 477 485 480
3 475 477 479
3 479 480 513
3 481 483 485
3 481 482 483
3 460 483 482
3 481 485 484
3 477 484 485
3 463 486 483
3 480 485 486
3 483 486 485
3 495 497 496
3 496 497 498
3 496 498 499
3 499 500 508
3 498 500 499
3 497 501 498
3 498 501 502
3 501 514 502
3 500 502 503
3 500 503 509
3 502 515 503
3 498 502 500
3 504 509 506
3 504 506 505
3 462 505 506
3 463 506 507
3 503 507 509
3 506 509 507
3 504 508 509
3 500 509 508
3 510 513 515
3 480 511 513
3 503 515 511
3 511 515 513
3 510 512 513
3 479 513 512
3 510 515 514
3 502 514 515
3 486 507 511
3 463 507 486
3 480 486 511
3 503 511 507
3 10 54 77
3 11 130 110
3 32 11 10
3 10 11 12
3 12 57 54
3 10 12 54
3 12 110 111
3 11 110 12
3 12 111 57
3 57 111 163
3 20 79 68
3 21 236 255
3 34 20 21
3 20 22 21
3 20 68 22
3 22 68 71
3 21 22 236
3 22 237 236
3 22 71 237
3 71 288 237
3 27 123 132
3 28 256 247
3 35 28 27
3 27 28 29
3 27 29 123
3 29 126 123
3 28 247 29
3 29 247 248
3 29 248 126
3 126 248 358
3 30 31 32
3 30 34 33
3 31 33 35
3 30 33 31
3 36 37 30
3 36 76 37
3 36 30 32
3 36 32 10
3 36 10 77
3 36 77 76
3 37 34 30
3 37 20 34
3 37 79 20
3 37 76 79
3 38 31 39
3 38 32 31
3 38 11 32
3 38 39 129
3 38 130 11
3 38 129 130
3 31 35 39
3 39 35 27
3 39 27 132
3 39 132 129
3 33 40 41
3 33 34 40
3 40 34 21
3 33 41 35
3 41 28 35
3 40 254 41
3 40 21 255
3 40 255 254
3 41 256 28
3 41 254 256
3 77 54 55
3 54 57 58
3 54 58 55
3 55 56 82
3 55 58 56
3 57 164 58
3 57 163 164
3 58 164 167
3 58 167 56
3 56 167 183
3 79 69 68
3 68 69 72
3 68 72 71
3 69 84 70
3 69 70 72
3 71 72 289
3 71 289 288
3 72 70 292
3 72 292 289
3 70 305 292
3 78 80 76
3 78 81 80
3 77 78 76
3 77 55 78
3 78 82 81
3 78 55 82
3 79 76 80
3 79 80 69
3 80 81 84
3 80 84 69
3 81 82 83
3 81 85 84
3 81 83 85
3 83 86 85
3 82 87 83
3 82 56 87
3 87 88 83
3 56 183 87
3 87 183 184
3 87 184 88
3 83 88 86
3 88 94 86
3 88 186 94
3 88 184 186
3 84 85 89
3 84 89 70
3 85 90 89
3 85 86 90
3 90 86 95
3 70 89 305
3 89 306 305
3 89 90 306
3 90 95 307
3 90 307 306
3 94 186 204
3 95 325 307
3 86 94 95
3 94 96 95
3 94 204 96
3 96 204 207
3 95 96 325
3 96 326 325
3 96 207 326
3 207 447 326
3 130 113 110
3 110 112 111
3 110 113 112
3 111 165 163
3 111 112 165
3 113 114 112
3 113 135 114
3 112 168 165
3 112 114 168
3 114 188 168
3 132 123 124
3 123 127 124
3 123 126 127
3 124 125 137
3 124 127 125
3 126 359 127
3 126 358 359
3 127 362 125
3 127 359 362
3 125 362 371
3 131 129 133
3 130 129 131
3 130 131 113
3 131 133 134
3 131 135 113
3 131 134 135
3 132 133 129
3 132 124 133
3 133 137 134
3 133 124 137
3 134 136 135
3 134 137 138
3 134 138 136
3 136 138 139
3 135 140 114
3 135 136 140
3 114 140 188
3 140 190 188
3 140 136 141
3 140 141 190
3 136 139 141
3 141 139 149
3 141 149 191
3 141 191 190
3 137 142 138
3 137 125 142
3 138 142 143
3 138 143 139
3 143 150 139
3 125 371 142
3 142 371 372
3 142 372 143
3 143 373 150
3 143 372 373
3 149 215 191
3 150 373 395
3 139 150 149
3 149 150 151
3 149 151 215
3 151 218 215
3 150 395 151
3 151 395 396
3 151 396 218
3 218 396 464
3 163 165 164
3 164 165 166
3 164 166 167
3 166 169 167
3 165 168 166
3 166 168 170
3 166 170 169
3 169 170 193
3 167 169 183
3 168 188 170
3 183 185 184
3 169 185 183
3 185 187 184
3 169 193 185
3 193 194 185
3 185 194 187
3 184 187 186
3 186 187 205
3 187 194 196
3 187 196 205
3 188 190 189
3 170 188 189
3 170 189 193
3 193 189 195
3 189 190 192
3 189 192 195
3 190 191 192
3 191 216 192
3 195 192 197
3 192 216 197
3 193 195 194
3 194 195 198
3 194 198 196
3 195 197 198
3 196 198 199
3 196 199 206
3 197 200 198
3 197 217 200
3 198 200 199
3 206 199 426
3 199 428 426
3 217 427 200
3 200 427 428
3 199 200 428
3 186 205 204
3 204 205 208
3 204 208 207
3 205 196 206
3 205 206 208
3 207 208 448
3 207 448 447
3 208 206 451
3 208 451 448
3 206 426 451
3 191 215 216
3 215 219 216
3 215 218 219
3 216 217 197
3 216 219 217
3 218 465 219
3 218 464 465
3 219 468 217
3 219 465 468
3 217 468 427
3 255 236 239
3 236 237 238
3 236 238 239
3 237 288 290
3 237 290 238
3 239 238 240
3 239 240 260
3 238 290 293
3 238 293 240
3 240 293 310
3 256 250 247
3 247 249 248
3 247 250 249
3 248 360 358
3 248 249 360
3 250 251 249
3 250 261 251
3 249 363 360
3 249 251 363
3 251 376 363
3 257 258 254
3 255 257 254
3 255 239 257
3 256 254 258
3 256 258 250
3 257 259 258
3 257 239 260
3 257 260 259
3 258 261 250
3 258 259 261
3 259 260 262
3 259 263 261
3 259 262 263
3 262 264 263
3 260 240 265
3 260 265 262
3 240 310 265
3 265 310 312
3 265 266 262
3 265 312 266
3 262 266 264
3 266 275 264
3 266 313 275
3 266 312 313
3 261 267 251
3 261 263 267
3 251 267 376
3 267 378 376
3 263 268 267
3 263 264 268
3 268 264 276
3 267 268 378
3 268 276 379
3 268 379 378
3 275 313 340
3 276 412 379
3 264 275 276
3 275 277 276
3 275 340 277
3 277 340 343
3 276 277 412
3 277 413 412
3 277 343 413
3 343 487 413
3 288 289 290
3 289 291 290
3 289 292 291
3 291 292 294
3 290 291 293
3 291 295 293
3 291 294 295
3 294 315 295
3 292 305 294
3 293 295 310
3 305 306 308
3 294 305 308
3 308 306 309
3 306 307 309
3 307 328 309
3 294 308 315
3 315 308 316
3 308 309 316
3 309 328 317
3 309 317 316
3 310 311 312
3 295 311 310
3 295 315 311
3 315 318 311
3 311 314 312
3 311 318 314
3 312 314 313
3 313 314 341
3 318 319 314
3 314 319 341
3 315 316 318
3 316 320 318
3 316 317 320
3 318 320 319
3 317 329 321
3 317 321 320
3 329 431 321
3 321 431 434
3 319 320 322
3 319 322 342
3 320 321 322
3 342 322 433
3 322 434 433
3 321 434 322
3 307 325 328
3 325 326 327
3 325 327 328
3 326 447 449
3 326 449 327
3 328 327 329
3 328 329 317
3 327 449 452
3 327 452 329
3 329 452 431
3 313 341 340
3 340 341 344
3 340 344 343
3 341 319 342
3 341 342 344
3 343 344 488
3 343 488 487
3 344 342 491
3 344 491 488
3 342 433 491
3 358 360 359
3 359 360 361
3 359 361 362
3 361 364 362
3 360 363 361
3 361 363 365
3 361 365 364
3 364 365 381
3 362 364 371
3 363 376 365
3 371 374 372
3 364 374 371
3 374 375 372
3 372 375 373
3 373 375 398
3 364 381 374
3 381 382 374
3 374 382 375
3 375 383 398
3 375 382 383
3 376 378 377
3 365 376 377
3 365 377 381
3 381 377 384
3 377 378 380
3 378 379 380
3 379 415 380
3 377 380 384
3 380 415 385
3 384 380 385
3 381 384 382
3 382 384 386
3 382 386 383
3 384 385 386
3 383 387 399
3 383 386 387
3 399 387 436
3 387 440 436
3 385 416 388
3 385 388 386
3 416 438 388
3 388 438 440
3 386 388 387
3 387 388 440
3 373 398 395
3 395 397 396
3 395 398 397
3 396 466 464
3 396 397 466
3 398 399 397
3 398 383 399
3 397 469 466
3 397 399 469
3 399 436 469
3 379 412 415
3 412 414 415
3 412 413 414
3 413 487 489
3 413 489 414
3 415 414 416
3 415 416 385
3 414 492 416
3 414 489 492
3 416 492 438
3 428 429 426
3 453 426 429
3 428 427 430
3 470 430 427
3 428 430 429
3 453 429 441
3 441 429 443
3 470 442 430
3 442 443 430
3 429 430 443
3 434 431 432
3 454 432 431
3 454 441 432
3 441 445 432
3 434 435 433
3 493 433 435
3 434 432 435
3 493 435 444
3 444 435 445
3 432 445 435
3 440 437 436
3 471 436 437
3 471 437 442
3 442 437 446
3 440 438 439
3 494 439 438
3 494 444 439
3 444 446 439
3 440 439 437
3 446 437 439
3 443 446 445
3 441 443 445
3 442 446 443
3 444 445 446
3 447 448 449
3 448 450 449
3 448 451 450
3 450 451 453
3 449 450 452
3 450 454 452
3 450 453 454
3 453 441 454
3 451 426 453
3 452 454 431
3 464 466 465
3 465 466 467
3 465 467 468
3 467 470 468
3 466 469 467
3 467 469 471
3 467 471 470
3 470 471 442
3 468 470 427
3 469 436 471
3 487 488 489
3 488 490 489
3 490 491 493
3 488 491 490
3 490 494 492
3 489 490 492
3 490 493 494
3 493 444 494
3 491 433 493
3 492 494 438

