ISO-10303-21;
HEADER;
FILE_DESCRIPTION(('Open CASCADE Model'),'2;1');
FILE_NAME('Open CASCADE Shape Model','1970-01-01T00:00:00',('Author'),(
    'Open CASCADE'),'Open CASCADE STEP processor 8.0','Open CASCADE 8.0'
  ,'Unknown');
FILE_SCHEMA((
'AP242_MANAGED_MODEL_BASED_3D_ENGINEERING_MIM_LF {1 0 10303 442 1 1 4 }'
    ));
ENDSEC;
DATA;
#1 = APPLICATION_PROTOCOL_DEFINITION('international standard',
  'ap242_managed_model_based_3d_engineering',2013,#2);
#2 = APPLICATION_CONTEXT('Managed model based 3d engineering');
#3 = SHAPE_DEFINITION_REPRESENTATION(#4,#10);
#4 = PRODUCT_DEFINITION_SHAPE('','',#5);
#5 = PRODUCT_DEFINITION('design','',#6,#9);
#6 = PRODUCT_DEFINITION_FORMATION('','',#7);
#7 = PRODUCT('Open CASCADE STEP translator 8.0',
  'Open CASCADE STEP translator 8.0','',(#8));
#8 = PRODUCT_CONTEXT('',#2,'mechanical');
#9 = PRODUCT_DEFINITION_CONTEXT('part definition',#2,'design');
#10 = ADVANCED_BREP_SHAPE_REPRESENTATION('',(#11,#15),#720);
#11 = AXIS2_PLACEMENT_3D('',#12,#13,#14);
#12 = CARTESIAN_POINT('',(0.,0.,0.));
#13 = DIRECTION('',(0.,0.,1.));
#14 = DIRECTION('',(1.,0.,-0.));
#15 = MANIFOLD_SOLID_BREP('',#16);
#16 = CLOSED_SHELL('',(#17,#624,#702,#708,#712,#716));
#17 = ADVANCED_FACE('',(#18),#32,.T.);
#18 = FACE_BOUND('',#19,.T.);
#19 = EDGE_LOOP('',(#20,#50,#77,#78,#271,#300,#323,#350,#351,#375));
#20 = ORIENTED_EDGE('',*,*,#21,.T.);
#21 = EDGE_CURVE('',#22,#24,#26,.T.);
#22 = VERTEX_POINT('',#23);
#23 = CARTESIAN_POINT('',(8.,-1.347111479062E-15,22.5));
#24 = VERTEX_POINT('',#25);
#25 = CARTESIAN_POINT('',(8.,-1.959434878636E-15,30.));
#26 = SEAM_CURVE('',#27,(#31,#43),.PCURVE_S1.);
#27 = LINE('',#28,#29);
#28 = CARTESIAN_POINT('',(8.,-1.959434878636E-15,0.));
#29 = VECTOR('',#30,1.);
#30 = DIRECTION('',(0.,0.,1.));
#31 = PCURVE('',#32,#37);
#32 = CYLINDRICAL_SURFACE('',#33,8.);
#33 = AXIS2_PLACEMENT_3D('',#34,#35,#36);
#34 = CARTESIAN_POINT('',(0.,0.,0.));
#35 = DIRECTION('',(0.,0.,1.));
#36 = DIRECTION('',(1.,0.,-0.));
#37 = DEFINITIONAL_REPRESENTATION('',(#38),#42);
#38 = LINE('',#39,#40);
#39 = CARTESIAN_POINT('',(6.28318530718,-0.));
#40 = VECTOR('',#41,1.);
#41 = DIRECTION('',(0.,1.));
#42 = ( GEOMETRIC_REPRESENTATION_CONTEXT(2) 
PARAMETRIC_REPRESENTATION_CONTEXT() REPRESENTATION_CONTEXT('2D SPACE',''
  ) );
#43 = PCURVE('',#32,#44);
#44 = DEFINITIONAL_REPRESENTATION('',(#45),#49);
#45 = LINE('',#46,#47);
#46 = CARTESIAN_POINT('',(0.,-0.));
#47 = VECTOR('',#48,1.);
#48 = DIRECTION('',(0.,1.));
#49 = ( GEOMETRIC_REPRESENTATION_CONTEXT(2) 
PARAMETRIC_REPRESENTATION_CONTEXT() REPRESENTATION_CONTEXT('2D SPACE',''
  ) );
#50 = ORIENTED_EDGE('',*,*,#51,.F.);
#51 = EDGE_CURVE('',#24,#24,#52,.T.);
#52 = SURFACE_CURVE('',#53,(#58,#65),.PCURVE_S1.);
#53 = CIRCLE('',#54,8.);
#54 = AXIS2_PLACEMENT_3D('',#55,#56,#57);
#55 = CARTESIAN_POINT('',(0.,0.,30.));
#56 = DIRECTION('',(0.,0.,1.));
#57 = DIRECTION('',(1.,0.,-0.));
#58 = PCURVE('',#32,#59);
#59 = DEFINITIONAL_REPRESENTATION('',(#60),#64);
#60 = LINE('',#61,#62);
#61 = CARTESIAN_POINT('',(0.,30.));
#62 = VECTOR('',#63,1.);
#63 = DIRECTION('',(1.,0.));
#64 = ( GEOMETRIC_REPRESENTATION_CONTEXT(2) 
PARAMETRIC_REPRESENTATION_CONTEXT() REPRESENTATION_CONTEXT('2D SPACE',''
  ) );
#65 = PCURVE('',#66,#71);
#66 = PLANE('',#67);
#67 = AXIS2_PLACEMENT_3D('',#68,#69,#70);
#68 = CARTESIAN_POINT('',(0.,0.,30.));
#69 = DIRECTION('',(0.,0.,1.));
#70 = DIRECTION('',(1.,0.,-0.));
#71 = DEFINITIONAL_REPRESENTATION('',(#72),#76);
#72 = CIRCLE('',#73,8.);
#73 = AXIS2_PLACEMENT_2D('',#74,#75);
#74 = CARTESIAN_POINT('',(0.,0.));
#75 = DIRECTION('',(1.,0.));
#76 = ( GEOMETRIC_REPRESENTATION_CONTEXT(2) 
PARAMETRIC_REPRESENTATION_CONTEXT() REPRESENTATION_CONTEXT('2D SPACE',''
  ) );
#77 = ORIENTED_EDGE('',*,*,#21,.F.);
#78 = ORIENTED_EDGE('',*,*,#79,.T.);
#79 = EDGE_CURVE('',#22,#80,#82,.T.);
#80 = VERTEX_POINT('',#81);
#81 = CARTESIAN_POINT('',(-1.1,7.924014134263,5.));
#82 = SURFACE_CURVE('',#83,(#142,#204),.PCURVE_S1.);
#83 = B_SPLINE_CURVE_WITH_KNOTS('',8,(#84,#85,#86,#87,#88,#89,#90,#91,
    #92,#93,#94,#95,#96,#97,#98,#99,#100,#101,#102,#103,#104,#105,#106,
    #107,#108,#109,#110,#111,#112,#113,#114,#115,#116,#117,#118,#119,
    #120,#121,#122,#123,#124,#125,#126,#127,#128,#129,#130,#131,#132,
    #133,#134,#135,#136,#137,#138,#139,#140,#141),.UNSPECIFIED.,.F.,.F.,
  (9,7,7,7,7,7,7,7,9),(0.,2.850099317414E-02,4.96249106831E-02,
    7.619562092844E-02,0.153775650083,0.312317690558,0.487815170005,
    0.756652120539,1.),.UNSPECIFIED.);
#84 = CARTESIAN_POINT('',(8.,-1.959434878636E-15,22.5));
#85 = CARTESIAN_POINT('',(8.,0.117108616065,22.5));
#86 = CARTESIAN_POINT('',(7.998040576311,0.233441493711,22.491836109823)
  );
#87 = CARTESIAN_POINT('',(7.994168221292,0.347260804957,22.475700078856)
  );
#88 = CARTESIAN_POINT('',(7.988585923502,0.457628638943,22.452492142596)
  );
#89 = CARTESIAN_POINT('',(7.98153874405,0.564007170648,22.423320165372)
  );
#90 = CARTESIAN_POINT('',(7.973270116095,0.666096319976,22.38928384577)
  );
#91 = CARTESIAN_POINT('',(7.964008919826,0.7637933277,22.351397872878));
#92 = CARTESIAN_POINT('',(7.946490135319,0.926357733022,22.280201750916)
  );
#93 = CARTESIAN_POINT('',(7.938572322044,0.993372046864,22.248160355471)
  );
#94 = CARTESIAN_POINT('',(7.930251622895,1.05835495253,22.214645532327)
  );
#95 = CARTESIAN_POINT('',(7.921576086733,1.12144313331,22.179875419493)
  );
#96 = CARTESIAN_POINT('',(7.912585313378,1.182764751336,22.144029615961)
  );
#97 = CARTESIAN_POINT('',(7.903311163851,1.242445233047,22.10725278191)
  );
#98 = CARTESIAN_POINT('',(7.893778001236,1.300610708272,22.06965671894)
  );
#99 = CARTESIAN_POINT('',(7.871706304668,1.428807781396,21.98310027568)
  );
#100 = CARTESIAN_POINT('',(7.859032715129,1.497997177548,21.933732968395
    ));
#101 = CARTESIAN_POINT('',(7.846019977599,1.565189013922,21.883396877423
    ));
#102 = CARTESIAN_POINT('',(7.832698622289,1.630567092424,21.832233551051
    ));
#103 = CARTESIAN_POINT('',(7.81909309505,1.69428488324,21.780356163224)
  );
#104 = CARTESIAN_POINT('',(7.80522281793,1.756477628018,21.727854944654)
  );
#105 = CARTESIAN_POINT('',(7.791102640825,1.817268957319,21.674800098691
    ));
#106 = CARTESIAN_POINT('',(7.73481509386,2.050506539648,21.464866134127)
  );
#107 = CARTESIAN_POINT('',(7.690882749055,2.213098568078,21.304348477348
    ));
#108 = CARTESIAN_POINT('',(7.64521144145,2.367383133979,21.140989365964)
  );
#109 = CARTESIAN_POINT('',(7.597949448011,2.514712102997,20.975508611416
    ));
#110 = CARTESIAN_POINT('',(7.549212637789,2.656198955156,20.808446495179
    ));
#111 = CARTESIAN_POINT('',(7.499068334824,2.792599268546,20.640121700805
    ));
#112 = CARTESIAN_POINT('',(7.44755144239,2.924584200722,20.470725286537)
  );
#113 = CARTESIAN_POINT('',(7.286558942839,3.314559829006,19.952047361032
    ));
#114 = CARTESIAN_POINT('',(7.172870997188,3.559907865316,19.600063541853
    ));
#115 = CARTESIAN_POINT('',(7.0538319342,3.793028447799,19.245663823841)
  );
#116 = CARTESIAN_POINT('',(6.92957213769,4.015700206135,18.889514903074)
  );
#117 = CARTESIAN_POINT('',(6.800201730423,4.229371604654,18.532125942639
    ));
#118 = CARTESIAN_POINT('',(6.665784719042,4.434880415868,18.173783711064
    ));
#119 = CARTESIAN_POINT('',(6.526354358695,4.632935101991,17.814667148617
    ));
#120 = CARTESIAN_POINT('',(6.221993884741,5.035584611308,17.056505768954
    ));
#121 = CARTESIAN_POINT('',(6.055985996272,5.238543222355,16.657434333411
    ));
#122 = CARTESIAN_POINT('',(5.883921584675,5.433550144649,16.257825029932
    ));
#123 = CARTESIAN_POINT('',(5.705842418878,5.620954490607,15.857834717501
    ));
#124 = CARTESIAN_POINT('',(5.521788037438,5.800955964663,15.457588035755
    ));
#125 = CARTESIAN_POINT('',(5.331795925795,5.973656305947,15.057185925602
    ));
#126 = CARTESIAN_POINT('',(5.135900646884,6.139073905258,14.656708245685
    ));
#127 = CARTESIAN_POINT('',(4.625054801532,6.539346125393,13.642724893059
    ));
#128 = CARTESIAN_POINT('',(4.302220147506,6.76432116747,13.029248342083)
  );
#129 = CARTESIAN_POINT('',(3.96574883082,6.971943648593,12.41602291933)
  );
#130 = CARTESIAN_POINT('',(3.615782352808,7.161696296999,11.803268689948
    ));
#131 = CARTESIAN_POINT('',(3.252489083286,7.332818298265,11.191205502953
    ));
#132 = CARTESIAN_POINT('',(2.876067171151,7.48434275726,10.580057277587)
  );
#133 = CARTESIAN_POINT('',(2.486745322313,7.615080108685,9.970051055728)
  );
#134 = CARTESIAN_POINT('',(1.72092828127,7.821792668282,8.810485949747)
  );
#135 = CARTESIAN_POINT('',(1.346762211878,7.901772521088,8.260748351409)
  );
#136 = CARTESIAN_POINT('',(0.962458654952,7.962454760831,7.712341303746)
  );
#137 = CARTESIAN_POINT('',(0.568255672305,8.002584006502,7.165474704691)
  );
#138 = CARTESIAN_POINT('',(0.164465069031,8.02068850538,6.620427999346)
  );
#139 = CARTESIAN_POINT('',(-0.248517340627,8.015060108519,6.077548030196
    ));
#140 = CARTESIAN_POINT('',(-0.670202515227,7.983677989632,5.537246855966
    ));
#141 = CARTESIAN_POINT('',(-1.1,7.924014134263,5.));
#142 = PCURVE('',#32,#143);
#143 = DEFINITIONAL_REPRESENTATION('',(#144),#203);
#144 = B_SPLINE_CURVE_WITH_KNOTS('',8,(#145,#146,#147,#148,#149,#150,
    #151,#152,#153,#154,#155,#156,#157,#158,#159,#160,#161,#162,#163,
    #164,#165,#166,#167,#168,#169,#170,#171,#172,#173,#174,#175,#176,
    #177,#178,#179,#180,#181,#182,#183,#184,#185,#186,#187,#188,#189,
    #190,#191,#192,#193,#194,#195,#196,#197,#198,#199,#200,#201,#202),
  .UNSPECIFIED.,.F.,.F.,(9,7,7,7,7,7,7,7,9),(0.,2.850099317414E-02,
    4.96249106831E-02,7.619562092844E-02,0.153775650083,0.312317690558,
    0.487815170005,0.756652120539,1.),.UNSPECIFIED.);
#145 = CARTESIAN_POINT('',(0.,22.5));
#146 = CARTESIAN_POINT('',(1.463857700818E-02,22.5));
#147 = CARTESIAN_POINT('',(2.918018036658E-02,22.491836109823));
#148 = CARTESIAN_POINT('',(4.341239442185E-02,22.475700078856));
#149 = CARTESIAN_POINT('',(5.722241865175E-02,22.452492142596));
#150 = CARTESIAN_POINT('',(7.054592190822E-02,22.423320165372));
#151 = CARTESIAN_POINT('',(8.334679943581E-02,22.38928384577));
#152 = CARTESIAN_POINT('',(9.561266428577E-02,22.351397872878));
#153 = CARTESIAN_POINT('',(0.116050869047,22.280201750916));
#154 = CARTESIAN_POINT('',(0.124485481135,22.248160355471));
#155 = CARTESIAN_POINT('',(0.132674026768,22.214645532327));
#156 = CARTESIAN_POINT('',(0.140633599377,22.179875419493));
#157 = CARTESIAN_POINT('',(0.148380163703,22.144029615961));
#158 = CARTESIAN_POINT('',(0.155929320699,22.10725278191));
#159 = CARTESIAN_POINT('',(0.163296773687,22.06965671894));
#160 = CARTESIAN_POINT('',(0.179557178696,21.98310027568));
#161 = CARTESIAN_POINT('',(0.188349247675,21.933732968395));
#162 = CARTESIAN_POINT('',(0.196903564789,21.883396877423));
#163 = CARTESIAN_POINT('',(0.205242984996,21.832233551051));
#164 = CARTESIAN_POINT('',(0.213386572868,21.780356163224));
#165 = CARTESIAN_POINT('',(0.221351132986,21.727854944654));
#166 = CARTESIAN_POINT('',(0.229152054001,21.674800098691));
#167 = CARTESIAN_POINT('',(0.259143734554,21.464866134127));
#168 = CARTESIAN_POINT('',(0.280188854884,21.304348477348));
#169 = CARTESIAN_POINT('',(0.30029246613,21.140989365964));
#170 = CARTESIAN_POINT('',(0.31962340851,20.975508611416));
#171 = CARTESIAN_POINT('',(0.33832106073,20.808446495179));
#172 = CARTESIAN_POINT('',(0.356480654351,20.640121700805));
#173 = CARTESIAN_POINT('',(0.374187686209,20.470725286537));
#174 = CARTESIAN_POINT('',(0.426925181109,19.952047361032));
#175 = CARTESIAN_POINT('',(0.46069584398,19.600063541853));
#176 = CARTESIAN_POINT('',(0.493376469706,19.245663823841));
#177 = CARTESIAN_POINT('',(0.52520848634,18.889514903074));
#178 = CARTESIAN_POINT('',(0.556393450174,18.532125942639));
#179 = CARTESIAN_POINT('',(0.587058700674,18.173783711064));
#180 = CARTESIAN_POINT('',(0.617317839096,17.814667148617));
#181 = CARTESIAN_POINT('',(0.680410271964,17.056505768954));
#182 = CARTESIAN_POINT('',(0.713161685918,16.657434333411));
#183 = CARTESIAN_POINT('',(0.745632160023,16.257825029932));
#184 = CARTESIAN_POINT('',(0.777903404648,15.857834717501));
#185 = CARTESIAN_POINT('',(0.810040624267,15.457588035755));
#186 = CARTESIAN_POINT('',(0.84209920058,15.057185925602));
#187 = CARTESIAN_POINT('',(0.874126973835,14.656708245685));
#188 = CARTESIAN_POINT('',(0.955250079352,13.642724893059));
#189 = CARTESIAN_POINT('',(1.004359473296,13.029248342083));
#190 = CARTESIAN_POINT('',(1.053652967942,12.41602291933));
#191 = CARTESIAN_POINT('',(1.103257877226,11.803268689948));
#192 = CARTESIAN_POINT('',(1.153291284444,11.191205502953));
#193 = CARTESIAN_POINT('',(1.203868931221,10.580057277587));
#194 = CARTESIAN_POINT('',(1.255111378667,9.970051055728));
#195 = CARTESIAN_POINT('',(1.354264497523,8.810485949747));
#196 = CARTESIAN_POINT('',(1.402024497462,8.260748351409));
#197 = CARTESIAN_POINT('',(1.450538756944,7.712341303746));
#198 = CARTESIAN_POINT('',(1.499914962042,7.165474704691));
#199 = CARTESIAN_POINT('',(1.55027181015,6.620427999346));
#200 = CARTESIAN_POINT('',(1.601744058773,6.077548030196));
#201 = CARTESIAN_POINT('',(1.654493454696,5.537246855966));
#202 = CARTESIAN_POINT('',(1.708733323213,5.));
#203 = ( GEOMETRIC_REPRESENTATION_CONTEXT(2) 
PARAMETRIC_REPRESENTATION_CONTEXT() REPRESENTATION_CONTEXT('2D SPACE',''
  ) );
#204 = PCURVE('',#205,#210);
#205 = CONICAL_SURFACE('',#206,10.,0.380506377112);
#206 = AXIS2_PLACEMENT_3D('',#207,#208,#209);
#207 = CARTESIAN_POINT('',(5.,0.,5.));
#208 = DIRECTION('',(-0.,-0.,-1.));
#209 = DIRECTION('',(1.,0.,-0.));
#210 = DEFINITIONAL_REPRESENTATION('',(#211),#270);
#211 = B_SPLINE_CURVE_WITH_KNOTS('',8,(#212,#213,#214,#215,#216,#217,
    #218,#219,#220,#221,#222,#223,#224,#225,#226,#227,#228,#229,#230,
    #231,#232,#233,#234,#235,#236,#237,#238,#239,#240,#241,#242,#243,
    #244,#245,#246,#247,#248,#249,#250,#251,#252,#253,#254,#255,#256,
    #257,#258,#259,#260,#261,#262,#263,#264,#265,#266,#267,#268,#269),
  .UNSPECIFIED.,.F.,.F.,(9,7,7,7,7,7,7,7,9),(0.,2.850099317414E-02,
    4.96249106831E-02,7.619562092844E-02,0.153775650083,0.312317690558,
    0.487815170005,0.756652120539,1.),.UNSPECIFIED.);
#212 = CARTESIAN_POINT('',(0.,-17.5));
#213 = CARTESIAN_POINT('',(-3.903620535515E-02,-17.5));
#214 = CARTESIAN_POINT('',(-7.781391422556E-02,-17.49183610982));
#215 = CARTESIAN_POINT('',(-0.115674123039,-17.47570007885));
#216 = CARTESIAN_POINT('',(-0.152230178259,-17.45249214259));
#217 = CARTESIAN_POINT('',(-0.187258881109,-17.42332016537));
#218 = CARTESIAN_POINT('',(-0.220644628775,-17.38928384577));
#219 = CARTESIAN_POINT('',(-0.252353963316,-17.35139787287));
#220 = CARTESIAN_POINT('',(-0.304700214506,-17.28020175091));
#221 = CARTESIAN_POINT('',(-0.326141363836,-17.24816035547));
#222 = CARTESIAN_POINT('',(-0.346794004616,-17.21464553232));
#223 = CARTESIAN_POINT('',(-0.366707203461,-17.17987541949));
#224 = CARTESIAN_POINT('',(-0.385928181718,-17.14402961596));
#225 = CARTESIAN_POINT('',(-0.404503476266,-17.10725278191));
#226 = CARTESIAN_POINT('',(-0.422479515899,-17.06965671894));
#227 = CARTESIAN_POINT('',(-0.461818248529,-16.98310027568));
#228 = CARTESIAN_POINT('',(-0.482848391291,-16.93373296839));
#229 = CARTESIAN_POINT('',(-0.503078514137,-16.88339687742));
#230 = CARTESIAN_POINT('',(-0.522578085834,-16.83223355105));
#231 = CARTESIAN_POINT('',(-0.541406098211,-16.78035616322));
#232 = CARTESIAN_POINT('',(-0.559614845949,-16.72785494465));
#233 = CARTESIAN_POINT('',(-0.577251959288,-16.67480009869));
#234 = CARTESIAN_POINT('',(-0.644314032525,-16.46486613412));
#235 = CARTESIAN_POINT('',(-0.689716988186,-16.30434847734));
#236 = CARTESIAN_POINT('',(-0.73165605371,-16.14098936597));
#237 = CARTESIAN_POINT('',(-0.770697357418,-15.9755086114));
#238 = CARTESIAN_POINT('',(-0.807307907884,-15.80844649518));
#239 = CARTESIAN_POINT('',(-0.841816849762,-15.6401217008));
#240 = CARTESIAN_POINT('',(-0.874509236768,-15.47072528653));
#241 = CARTESIAN_POINT('',(-0.969193338608,-14.95204736103));
#242 = CARTESIAN_POINT('',(-1.026060508989,-14.60006354185));
#243 = CARTESIAN_POINT('',(-1.078104880465,-14.24566382384));
#244 = CARTESIAN_POINT('',(-1.126247029909,-13.88951490307));
#245 = CARTESIAN_POINT('',(-1.171235354314,-13.53212594263));
#246 = CARTESIAN_POINT('',(-1.213562373619,-13.17378371106));
#247 = CARTESIAN_POINT('',(-1.253644972353,-12.81466714861));
#248 = CARTESIAN_POINT('',(-1.334049524811,-12.05650576895));
#249 = CARTESIAN_POINT('',(-1.373924838654,-11.65743433341));
#250 = CARTESIAN_POINT('',(-1.411863379889,-11.25782502993));
#251 = CARTESIAN_POINT('',(-1.448171040989,-10.8578347175));
#252 = CARTESIAN_POINT('',(-1.483086123428,-10.45758803575));
#253 = CARTESIAN_POINT('',(-1.516803001289,-10.0571859256));
#254 = CARTESIAN_POINT('',(-1.549480788066,-9.656708245685));
#255 = CARTESIAN_POINT('',(-1.629930231567,-8.642724893059));
#256 = CARTESIAN_POINT('',(-1.676482358187,-8.029248342082));
#257 = CARTESIAN_POINT('',(-1.72139946303,-7.416022919331));
#258 = CARTESIAN_POINT('',(-1.765031007952,-6.803268689948));
#259 = CARTESIAN_POINT('',(-1.807655440264,-6.191205502952));
#260 = CARTESIAN_POINT('',(-1.849508460113,-5.580057277587));
#261 = CARTESIAN_POINT('',(-1.890795080903,-4.970051055728));
#262 = CARTESIAN_POINT('',(-1.96874176136,-3.810485949747));
#263 = CARTESIAN_POINT('',(-2.005464635379,-3.260748351409));
#264 = CARTESIAN_POINT('',(-2.042021367774,-2.712341303746));
#265 = CARTESIAN_POINT('',(-2.078542242539,-2.165474704691));
#266 = CARTESIAN_POINT('',(-2.115152772168,-1.620427999346));
#267 = CARTESIAN_POINT('',(-2.151979856081,-1.077548030196));
#268 = CARTESIAN_POINT('',(-2.1891602091,-0.537246855966));
#269 = CARTESIAN_POINT('',(-2.22685691772,0.));
#270 = ( GEOMETRIC_REPRESENTATION_CONTEXT(2) 
PARAMETRIC_REPRESENTATION_CONTEXT() REPRESENTATION_CONTEXT('2D SPACE',''
  ) );
#271 = ORIENTED_EDGE('',*,*,#272,.F.);
#272 = EDGE_CURVE('',#273,#80,#275,.T.);
#273 = VERTEX_POINT('',#274);
#274 = CARTESIAN_POINT('',(8.,-1.959434878636E-15,5.));
#275 = SURFACE_CURVE('',#276,(#281,#288),.PCURVE_S1.);
#276 = CIRCLE('',#277,8.);
#277 = AXIS2_PLACEMENT_3D('',#278,#279,#280);
#278 = CARTESIAN_POINT('',(0.,0.,5.));
#279 = DIRECTION('',(0.,0.,1.));
#280 = DIRECTION('',(1.,0.,-0.));
#281 = PCURVE('',#32,#282);
#282 = DEFINITIONAL_REPRESENTATION('',(#283),#287);
#283 = LINE('',#284,#285);
#284 = CARTESIAN_POINT('',(0.,5.));
#285 = VECTOR('',#286,1.);
#286 = DIRECTION('',(1.,0.));
#287 = ( GEOMETRIC_REPRESENTATION_CONTEXT(2) 
PARAMETRIC_REPRESENTATION_CONTEXT() REPRESENTATION_CONTEXT('2D SPACE',''
  ) );
#288 = PCURVE('',#289,#294);
#289 = PLANE('',#290);
#290 = AXIS2_PLACEMENT_3D('',#291,#292,#293);
#291 = CARTESIAN_POINT('',(5.,0.,5.));
#292 = DIRECTION('',(0.,0.,1.));
#293 = DIRECTION('',(1.,0.,-0.));
#294 = DEFINITIONAL_REPRESENTATION('',(#295),#299);
#295 = CIRCLE('',#296,8.);
#296 = AXIS2_PLACEMENT_2D('',#297,#298);
#297 = CARTESIAN_POINT('',(-5.,0.));
#298 = DIRECTION('',(1.,0.));
#299 = ( GEOMETRIC_REPRESENTATION_CONTEXT(2) 
PARAMETRIC_REPRESENTATION_CONTEXT() REPRESENTATION_CONTEXT('2D SPACE',''
  ) );
#300 = ORIENTED_EDGE('',*,*,#301,.F.);
#301 = EDGE_CURVE('',#302,#273,#304,.T.);
#302 = VERTEX_POINT('',#303);
#303 = CARTESIAN_POINT('',(8.,-1.959434878636E-15,0.));
#304 = SEAM_CURVE('',#305,(#309,#316),.PCURVE_S1.);
#305 = LINE('',#306,#307);
#306 = CARTESIAN_POINT('',(8.,-1.959434878636E-15,0.));
#307 = VECTOR('',#308,1.);
#308 = DIRECTION('',(0.,0.,1.));
#309 = PCURVE('',#32,#310);
#310 = DEFINITIONAL_REPRESENTATION('',(#311),#315);
#311 = LINE('',#312,#313);
#312 = CARTESIAN_POINT('',(6.28318530718,-0.));
#313 = VECTOR('',#314,1.);
#314 = DIRECTION('',(0.,1.));
#315 = ( GEOMETRIC_REPRESENTATION_CONTEXT(2) 
PARAMETRIC_REPRESENTATION_CONTEXT() REPRESENTATION_CONTEXT('2D SPACE',''
  ) );
#316 = PCURVE('',#32,#317);
#317 = DEFINITIONAL_REPRESENTATION('',(#318),#322);
#318 = LINE('',#319,#320);
#319 = CARTESIAN_POINT('',(0.,-0.));
#320 = VECTOR('',#321,1.);
#321 = DIRECTION('',(0.,1.));
#322 = ( GEOMETRIC_REPRESENTATION_CONTEXT(2) 
PARAMETRIC_REPRESENTATION_CONTEXT() REPRESENTATION_CONTEXT('2D SPACE',''
  ) );
#323 = ORIENTED_EDGE('',*,*,#324,.T.);
#324 = EDGE_CURVE('',#302,#302,#325,.T.);
#325 = SURFACE_CURVE('',#326,(#331,#338),.PCURVE_S1.);
#326 = CIRCLE('',#327,8.);
#327 = AXIS2_PLACEMENT_3D('',#328,#329,#330);
#328 = CARTESIAN_POINT('',(0.,0.,0.));
#329 = DIRECTION('',(0.,0.,1.));
#330 = DIRECTION('',(1.,0.,-0.));
#331 = PCURVE('',#32,#332);
#332 = DEFINITIONAL_REPRESENTATION('',(#333),#337);
#333 = LINE('',#334,#335);
#334 = CARTESIAN_POINT('',(0.,0.));
#335 = VECTOR('',#336,1.);
#336 = DIRECTION('',(1.,0.));
#337 = ( GEOMETRIC_REPRESENTATION_CONTEXT(2) 
PARAMETRIC_REPRESENTATION_CONTEXT() REPRESENTATION_CONTEXT('2D SPACE',''
  ) );
#338 = PCURVE('',#339,#344);
#339 = PLANE('',#340);
#340 = AXIS2_PLACEMENT_3D('',#341,#342,#343);
#341 = CARTESIAN_POINT('',(0.,0.,0.));
#342 = DIRECTION('',(0.,0.,1.));
#343 = DIRECTION('',(1.,0.,-0.));
#344 = DEFINITIONAL_REPRESENTATION('',(#345),#349);
#345 = CIRCLE('',#346,8.);
#346 = AXIS2_PLACEMENT_2D('',#347,#348);
#347 = CARTESIAN_POINT('',(0.,0.));
#348 = DIRECTION('',(1.,0.));
#349 = ( GEOMETRIC_REPRESENTATION_CONTEXT(2) 
PARAMETRIC_REPRESENTATION_CONTEXT() REPRESENTATION_CONTEXT('2D SPACE',''
  ) );
#350 = ORIENTED_EDGE('',*,*,#301,.T.);
#351 = ORIENTED_EDGE('',*,*,#352,.F.);
#352 = EDGE_CURVE('',#353,#273,#355,.T.);
#353 = VERTEX_POINT('',#354);
#354 = CARTESIAN_POINT('',(-1.1,-7.924014134263,5.));
#355 = SURFACE_CURVE('',#356,(#361,#368),.PCURVE_S1.);
#356 = CIRCLE('',#357,8.);
#357 = AXIS2_PLACEMENT_3D('',#358,#359,#360);
#358 = CARTESIAN_POINT('',(0.,0.,5.));
#359 = DIRECTION('',(0.,0.,1.));
#360 = DIRECTION('',(1.,0.,-0.));
#361 = PCURVE('',#32,#362);
#362 = DEFINITIONAL_REPRESENTATION('',(#363),#367);
#363 = LINE('',#364,#365);
#364 = CARTESIAN_POINT('',(0.,5.));
#365 = VECTOR('',#366,1.);
#366 = DIRECTION('',(1.,0.));
#367 = ( GEOMETRIC_REPRESENTATION_CONTEXT(2) 
PARAMETRIC_REPRESENTATION_CONTEXT() REPRESENTATION_CONTEXT('2D SPACE',''
  ) );
#368 = PCURVE('',#289,#369);
#369 = DEFINITIONAL_REPRESENTATION('',(#370),#374);
#370 = CIRCLE('',#371,8.);
#371 = AXIS2_PLACEMENT_2D('',#372,#373);
#372 = CARTESIAN_POINT('',(-5.,0.));
#373 = DIRECTION('',(1.,0.));
#374 = ( GEOMETRIC_REPRESENTATION_CONTEXT(2) 
PARAMETRIC_REPRESENTATION_CONTEXT() REPRESENTATION_CONTEXT('2D SPACE',''
  ) );
#375 = ORIENTED_EDGE('',*,*,#376,.T.);
#376 = EDGE_CURVE('',#353,#22,#377,.T.);
#377 = SURFACE_CURVE('',#378,(#458,#541),.PCURVE_S1.);
#378 = B_SPLINE_CURVE_WITH_KNOTS('',8,(#379,#380,#381,#382,#383,#384,
    #385,#386,#387,#388,#389,#390,#391,#392,#393,#394,#395,#396,#397,
    #398,#399,#400,#401,#402,#403,#404,#405,#406,#407,#408,#409,#410,
    #411,#412,#413,#414,#415,#416,#417,#418,#419,#420,#421,#422,#423,
    #424,#425,#426,#427,#428,#429,#430,#431,#432,#433,#434,#435,#436,
    #437,#438,#439,#440,#441,#442,#443,#444,#445,#446,#447,#448,#449,
    #450,#451,#452,#453,#454,#455,#456,#457),.UNSPECIFIED.,.F.,.F.,(9,7,
    7,7,7,7,7,7,7,7,7,9),(0.,0.117985026385,0.243500661712,
    0.375625867719,0.511743158092,0.695453883675,0.781758397667,
    0.860778562884,0.930930699711,0.970109732008,0.983206093056,1.),
  .UNSPECIFIED.);
#379 = CARTESIAN_POINT('',(-1.1,-7.924014134263,5.));
#380 = CARTESIAN_POINT('',(-0.891600564485,-7.952943837717,
    5.260499294394));
#381 = CARTESIAN_POINT('',(-0.685101637321,-7.975225466551,
    5.521725114959));
#382 = CARTESIAN_POINT('',(-0.480575391174,-7.991145072142,
    5.783617541802));
#383 = CARTESIAN_POINT('',(-0.278086552458,-8.000963188753,
    6.046122058967));
#384 = CARTESIAN_POINT('',(-7.769281266459E-02,-8.004917706219,
    6.309189586512));
#385 = CARTESIAN_POINT('',(0.120554760322,-8.003226742632,6.572776512586
    ));
#386 = CARTESIAN_POINT('',(0.316611310898,-7.996091517024,6.836844725513
    ));
#387 = CARTESIAN_POINT('',(0.716635585223,-7.970515966315,7.382761839854
    ));
#388 = CARTESIAN_POINT('',(0.920307232343,-7.951383171903,7.664666690557
    ));
#389 = CARTESIAN_POINT('',(1.121404867667,-7.926525031659,7.94703570794)
  );
#390 = CARTESIAN_POINT('',(1.31988500743,-7.896147448829,8.229831221439)
  );
#391 = CARTESIAN_POINT('',(1.515708337881,-7.860439580053,8.513018455773
    ));
#392 = CARTESIAN_POINT('',(1.70883951095,-7.819575378362,8.796565606744)
  );
#393 = CARTESIAN_POINT('',(1.899246939917,-7.773715136171,9.080443917059
    ));
#394 = CARTESIAN_POINT('',(2.284440073417,-7.669628664805,9.66377652077)
  );
#395 = CARTESIAN_POINT('',(2.478926990218,-7.610878760008,9.963261808244
    ));
#396 = CARTESIAN_POINT('',(2.67033030617,-7.546929382133,10.263053098818
    ));
#397 = CARTESIAN_POINT('',(2.858619579195,-7.477938087595,
    10.563121000801));
#398 = CARTESIAN_POINT('',(3.043766869362,-7.404048241659,
    10.863437261952));
#399 = CARTESIAN_POINT('',(3.225746643827,-7.325389339131,
    11.163974784896));
#400 = CARTESIAN_POINT('',(3.404535681756,-7.242077325055,
    11.464707642526));
#401 = CARTESIAN_POINT('',(3.760995240175,-7.063697795398,
    12.075606162771));
#402 = CARTESIAN_POINT('',(3.938467739053,-6.968351483903,
    12.385780562311));
#403 = CARTESIAN_POINT('',(4.112507568488,-6.868287966035,12.69610723776
    ));
#404 = CARTESIAN_POINT('',(4.283093004643,-6.763603838534,
    13.006558204129));
#405 = CARTESIAN_POINT('',(4.450203553326,-6.654380252199,
    13.317104508803));
#406 = CARTESIAN_POINT('',(4.613819952852,-6.540681525711,
    13.627716038015));
#407 = CARTESIAN_POINT('',(4.773924133726,-6.422552430847,
    13.938361166712));
#408 = CARTESIAN_POINT('',(5.141820614066,-6.134630334928,
    14.668268447129));
#409 = CARTESIAN_POINT('',(5.346706055071,-5.961220997856,
    15.087515822936));
#410 = CARTESIAN_POINT('',(5.545120825934,-5.779832398262,
    15.506677922019));
#411 = CARTESIAN_POINT('',(5.737025689525,-5.590441576504,
    15.925663777301));
#412 = CARTESIAN_POINT('',(5.922377398826,-5.392923059773,
    16.344355819904));
#413 = CARTESIAN_POINT('',(6.101129966055,-5.187033195971,
    16.762606998802));
#414 = CARTESIAN_POINT('',(6.27323445438,-4.972342933445,17.18022955985)
  );
#415 = CARTESIAN_POINT('',(6.51633787585,-4.642680382151,17.792739422699
    ));
#416 = CARTESIAN_POINT('',(6.592559396259,-4.535193662785,
    17.988314587605));
#417 = CARTESIAN_POINT('',(6.667294297074,-4.425506686413,
    18.183663221725));
#418 = CARTESIAN_POINT('',(6.740535458473,-4.313517993471,
    18.378752006452));
#419 = CARTESIAN_POINT('',(6.812274200218,-4.199105743334,
    18.573540109322));
#420 = CARTESIAN_POINT('',(6.882500215315,-4.082120220369,18.76797765617
    ));
#421 = CARTESIAN_POINT('',(6.951201282798,-3.962370788496,18.96200307567
    ));
#422 = CARTESIAN_POINT('',(7.079855615038,-3.727205391341,
    19.332740542451));
#423 = CARTESIAN_POINT('',(7.140053557757,-3.612284505302,
    19.509519446276));
#424 = CARTESIAN_POINT('',(7.198949049498,-3.494645511758,
    19.685826625642));
#425 = CARTESIAN_POINT('',(7.256528618984,-3.374055152238,
    19.861590790062));
#426 = CARTESIAN_POINT('',(7.312772480117,-3.250224834688,
    20.036713319576));
#427 = CARTESIAN_POINT('',(7.367654685497,-3.122797682194,
    20.211065034247));
#428 = CARTESIAN_POINT('',(7.42114186285,-2.99130769033,20.384476182455)
  );
#429 = CARTESIAN_POINT('',(7.519394364255,-2.734130730249,
    20.709616137094));
#430 = CARTESIAN_POINT('',(7.56442988567,-2.609539270769,20.861478444373
    ));
#431 = CARTESIAN_POINT('',(7.60829891116,-2.480753516106,21.012242835736
    ));
#432 = CARTESIAN_POINT('',(7.650965132595,-2.347129343016,
    21.161715150298));
#433 = CARTESIAN_POINT('',(7.69235973,-2.207944848196,21.30957147422));
#434 = CARTESIAN_POINT('',(7.732366129846,-2.062159798469,
    21.455270610132));
#435 = CARTESIAN_POINT('',(7.77083410208,-1.908510220817,21.598089793775
    ));
#436 = CARTESIAN_POINT('',(7.827975917149,-1.652758869035,
    21.814188979538));
#437 = CARTESIAN_POINT('',(7.847847675336,-1.558040252169,
    21.890169485823));
#438 = CARTESIAN_POINT('',(7.867105373145,-1.459677516246,
    21.964602501298));
#439 = CARTESIAN_POINT('',(7.885687864509,-1.357095491068,
    22.037197969613));
#440 = CARTESIAN_POINT('',(7.903486461178,-1.249714391479,
    22.107464745364));
#441 = CARTESIAN_POINT('',(7.920335564551,-1.136858991763,22.17465544633
    ));
#442 = CARTESIAN_POINT('',(7.936018424289,-1.017763871565,
    22.237773390072));
#443 = CARTESIAN_POINT('',(7.954954425693,-0.848830817502,
    22.314577524441));
#444 = CARTESIAN_POINT('',(7.959528487966,-0.805698018312,
    22.333184729478));
#445 = CARTESIAN_POINT('',(7.963919803933,-0.76172018889,22.351099387383
    ));
#446 = CARTESIAN_POINT('',(7.968112843519,-0.716870151143,
    22.368251436751));
#447 = CARTESIAN_POINT('',(7.97208980079,-0.671129595811,22.384560818893
    ));
#448 = CARTESIAN_POINT('',(7.975831006019,-0.624490724811,
    22.399939245652));
#449 = CARTESIAN_POINT('',(7.97931533776,-0.576957893581,22.414291967212
    ));
#450 = CARTESIAN_POINT('',(7.986630895902,-0.466473216051,
    22.444481704002));
#451 = CARTESIAN_POINT('',(7.990284945526,-0.402918591568,
    22.459604553377));
#452 = CARTESIAN_POINT('',(7.993431115263,-0.337985146563,
    22.472658610816));
#453 = CARTESIAN_POINT('',(7.996017960322,-0.271822050029,
    22.483413948226));
#454 = CARTESIAN_POINT('',(7.997998017021,-0.204633918822,
    22.491658307004));
#455 = CARTESIAN_POINT('',(7.999332937248,-0.136689571751,
    22.497220629272));
#456 = CARTESIAN_POINT('',(8.,-6.833349230254E-02,22.5));
#457 = CARTESIAN_POINT('',(8.,-1.7763568394E-15,22.5));
#458 = PCURVE('',#32,#459);
#459 = DEFINITIONAL_REPRESENTATION('',(#460),#540);
#460 = B_SPLINE_CURVE_WITH_KNOTS('',8,(#461,#462,#463,#464,#465,#466,
    #467,#468,#469,#470,#471,#472,#473,#474,#475,#476,#477,#478,#479,
    #480,#481,#482,#483,#484,#485,#486,#487,#488,#489,#490,#491,#492,
    #493,#494,#495,#496,#497,#498,#499,#500,#501,#502,#503,#504,#505,
    #506,#507,#508,#509,#510,#511,#512,#513,#514,#515,#516,#517,#518,
    #519,#520,#521,#522,#523,#524,#525,#526,#527,#528,#529,#530,#531,
    #532,#533,#534,#535,#536,#537,#538,#539),.UNSPECIFIED.,.F.,.F.,(9,7,
    7,7,7,7,7,7,7,7,7,9),(0.,0.117985026385,0.243500661712,
    0.375625867719,0.511743158092,0.695453883675,0.781758397667,
    0.860778562884,0.930930699711,0.970109732008,0.983206093056,1.),
  .UNSPECIFIED.);
#461 = CARTESIAN_POINT('',(4.574451983966,5.));
#462 = CARTESIAN_POINT('',(4.600751714379,5.260499294394));
#463 = CARTESIAN_POINT('',(4.626701901373,5.521725114959));
#464 = CARTESIAN_POINT('',(4.652326153457,5.783617541802));
#465 = CARTESIAN_POINT('',(4.67764564136,6.046122058967));
#466 = CARTESIAN_POINT('',(4.702679509308,6.309189586512));
#467 = CARTESIAN_POINT('',(4.727445286299,6.572776512586));
#468 = CARTESIAN_POINT('',(4.751959297375,6.836844725513));
#469 = CARTESIAN_POINT('',(4.802064425737,7.382761839854));
#470 = CARTESIAN_POINT('',(4.827624117563,7.664666690557));
#471 = CARTESIAN_POINT('',(4.852934592375,7.94703570794));
#472 = CARTESIAN_POINT('',(4.878012797576,8.229831221439));
#473 = CARTESIAN_POINT('',(4.902874458943,8.513018455773));
#474 = CARTESIAN_POINT('',(4.927534353603,8.796565606744));
#475 = CARTESIAN_POINT('',(4.952006583008,9.080443917059));
#476 = CARTESIAN_POINT('',(5.001882639327,9.66377652077));
#477 = CARTESIAN_POINT('',(5.027267475827,9.963261808244));
#478 = CARTESIAN_POINT('',(5.05247523588,10.263053098818));
#479 = CARTESIAN_POINT('',(5.077521012097,10.563121000801));
#480 = CARTESIAN_POINT('',(5.102419360323,10.863437261952));
#481 = CARTESIAN_POINT('',(5.127184550724,11.163974784896));
#482 = CARTESIAN_POINT('',(5.151830818889,11.464707642526));
#483 = CARTESIAN_POINT('',(5.201655930748,12.075606162771));
#484 = CARTESIAN_POINT('',(5.226828228913,12.385780562311));
#485 = CARTESIAN_POINT('',(5.251905306303,12.69610723776));
#486 = CARTESIAN_POINT('',(5.276903064227,13.006558204129));
#487 = CARTESIAN_POINT('',(5.301837768184,13.317104508803));
#488 = CARTESIAN_POINT('',(5.326726423511,13.627716038015));
#489 = CARTESIAN_POINT('',(5.351587268921,13.938361166712));
#490 = CARTESIAN_POINT('',(5.40998340449,14.668268447129));
#491 = CARTESIAN_POINT('',(5.443511137683,15.087515822936));
#492 = CARTESIAN_POINT('',(5.477074201716,15.506677922019));
#493 = CARTESIAN_POINT('',(5.510727593707,15.925663777301));
#494 = CARTESIAN_POINT('',(5.544535665463,16.344355819904));
#495 = CARTESIAN_POINT('',(5.578574662626,16.762606998802));
#496 = CARTESIAN_POINT('',(5.612941436732,17.18022955985));
#497 = CARTESIAN_POINT('',(5.66414212509,17.792739422699));
#498 = CARTESIAN_POINT('',(5.680610430905,17.988314587605));
#499 = CARTESIAN_POINT('',(5.69719646764,18.183663221725));
#500 = CARTESIAN_POINT('',(5.713916970481,18.378752006452));
#501 = CARTESIAN_POINT('',(5.73079106107,18.573540109322));
#502 = CARTESIAN_POINT('',(5.747841195263,18.76797765617));
#503 = CARTESIAN_POINT('',(5.765094792911,18.96200307567));
#504 = CARTESIAN_POINT('',(5.798601951946,19.332740542451));
#505 = CARTESIAN_POINT('',(5.814815901525,19.509519446276));
#506 = CARTESIAN_POINT('',(5.831256056368,19.685826625642));
#507 = CARTESIAN_POINT('',(5.847954062905,19.861590790062));
#508 = CARTESIAN_POINT('',(5.864948250119,20.036713319576));
#509 = CARTESIAN_POINT('',(5.882285284941,20.211065034247));
#510 = CARTESIAN_POINT('',(5.900025277344,20.384476182455));
#511 = CARTESIAN_POINT('',(5.934438561214,20.709616137094));
#512 = CARTESIAN_POINT('',(5.950995993613,20.861478444373));
#513 = CARTESIAN_POINT('',(5.967997565989,21.012242835736));
#514 = CARTESIAN_POINT('',(5.985524763261,21.161715150298));
#515 = CARTESIAN_POINT('',(6.00366806608,21.30957147422));
#516 = CARTESIAN_POINT('',(6.022557252062,21.455270610132));
#517 = CARTESIAN_POINT('',(6.042349799404,21.598089793775));
#518 = CARTESIAN_POINT('',(6.075106941032,21.814188979538));
#519 = CARTESIAN_POINT('',(6.087203504318,21.890169485823));
#520 = CARTESIAN_POINT('',(6.09973034012,21.964602501298));
#521 = CARTESIAN_POINT('',(6.112759082936,22.037197969613));
#522 = CARTESIAN_POINT('',(6.12636153729,22.107464745364));
#523 = CARTESIAN_POINT('',(6.14062142503,22.17465544633));
#524 = CARTESIAN_POINT('',(6.155634036867,22.237773390072));
#525 = CARTESIAN_POINT('',(6.176882915111,22.314577524441));
#526 = CARTESIAN_POINT('',(6.182304650509,22.333184729478));
#527 = CARTESIAN_POINT('',(6.187829041128,22.351099387383));
#528 = CARTESIAN_POINT('',(6.193459513714,22.368251436751));
#529 = CARTESIAN_POINT('',(6.199198404219,22.384560818893));
#530 = CARTESIAN_POINT('',(6.205046763006,22.399939245652));
#531 = CARTESIAN_POINT('',(6.211004160052,22.414291967212));
#532 = CARTESIAN_POINT('',(6.224844985849,22.444481704002));
#533 = CARTESIAN_POINT('',(6.232802132753,22.459604553377));
#534 = CARTESIAN_POINT('',(6.240927780436,22.472658610816));
#535 = CARTESIAN_POINT('',(6.249203749466,22.483413948226));
#536 = CARTESIAN_POINT('',(6.25760511675,22.491658307004));
#537 = CARTESIAN_POINT('',(6.266099111333,22.497220629272));
#538 = CARTESIAN_POINT('',(6.274643620642,22.5));
#539 = CARTESIAN_POINT('',(6.28318530718,22.5));
#540 = ( GEOMETRIC_REPRESENTATION_CONTEXT(2) 
PARAMETRIC_REPRESENTATION_CONTEXT() REPRESENTATION_CONTEXT('2D SPACE',''
  ) );
#541 = PCURVE('',#205,#542);
#542 = DEFINITIONAL_REPRESENTATION('',(#543),#623);
#543 = B_SPLINE_CURVE_WITH_KNOTS('',8,(#544,#545,#546,#547,#548,#549,
    #550,#551,#552,#553,#554,#555,#556,#557,#558,#559,#560,#561,#562,
    #563,#564,#565,#566,#567,#568,#569,#570,#571,#572,#573,#574,#575,
    #576,#577,#578,#579,#580,#581,#582,#583,#584,#585,#586,#587,#588,
    #589,#590,#591,#592,#593,#594,#595,#596,#597,#598,#599,#600,#601,
    #602,#603,#604,#605,#606,#607,#608,#609,#610,#611,#612,#613,#614,
    #615,#616,#617,#618,#619,#620,#621,#622),.UNSPECIFIED.,.F.,.F.,(9,7,
    7,7,7,7,7,7,7,7,7,9),(0.,0.117985026385,0.243500661712,
    0.375625867719,0.511743158092,0.695453883675,0.781758397667,
    0.860778562884,0.930930699711,0.970109732008,0.983206093056,1.),
  .UNSPECIFIED.);
#544 = CARTESIAN_POINT('',(-4.05632838946,1.33226762955E-14));
#545 = CARTESIAN_POINT('',(-4.074606702096,-0.260499294394));
#546 = CARTESIAN_POINT('',(-4.09276422125,-0.521725114959));
#547 = CARTESIAN_POINT('',(-4.110819072582,-0.783617541802));
#548 = CARTESIAN_POINT('',(-4.128788171654,-1.046122058967));
#549 = CARTESIAN_POINT('',(-4.146687531631,-1.309189586512));
#550 = CARTESIAN_POINT('',(-4.164532570983,-1.572776512586));
#551 = CARTESIAN_POINT('',(-4.182338421192,-1.836844725513));
#552 = CARTESIAN_POINT('',(-4.219037004294,-2.382761839854));
#553 = CARTESIAN_POINT('',(-4.237926344273,-2.664666690557));
#554 = CARTESIAN_POINT('',(-4.256806354257,-2.947035707939));
#555 = CARTESIAN_POINT('',(-4.275694800725,-3.229831221439));
#556 = CARTESIAN_POINT('',(-4.294609414801,-3.513018455773));
#557 = CARTESIAN_POINT('',(-4.313568190294,-3.796565606744));
#558 = CARTESIAN_POINT('',(-4.332589681741,-4.080443917059));
#559 = CARTESIAN_POINT('',(-4.371802907222,-4.66377652077));
#560 = CARTESIAN_POINT('',(-4.392003359963,-4.963261808244));
#561 = CARTESIAN_POINT('',(-4.412317335718,-5.263053098818));
#562 = CARTESIAN_POINT('',(-4.432768276303,-5.563121000801));
#563 = CARTESIAN_POINT('',(-4.45338090803,-5.863437261952));
#564 = CARTESIAN_POINT('',(-4.474181759435,-6.163974784896));
#565 = CARTESIAN_POINT('',(-4.49519967901,-6.464707642526));
#566 = CARTESIAN_POINT('',(-4.538375586726,-7.075606162771));
#567 = CARTESIAN_POINT('',(-4.56054875041,-7.385780562312));
#568 = CARTESIAN_POINT('',(-4.583020543564,-7.69610723776));
#569 = CARTESIAN_POINT('',(-4.605829005455,-8.006558204129));
#570 = CARTESIAN_POINT('',(-4.629016164074,-8.317104508803));
#571 = CARTESIAN_POINT('',(-4.652629185484,-8.627716038015));
#572 = CARTESIAN_POINT('',(-4.676722023446,-8.938361166712));
#573 = CARTESIAN_POINT('',(-4.734606938327,-9.668268447129));
#574 = CARTESIAN_POINT('',(-4.768843624952,-10.08751582293));
#575 = CARTESIAN_POINT('',(-4.804223855435,-10.50667792202));
#576 = CARTESIAN_POINT('',(-4.840930774173,-10.9256637773));
#577 = CARTESIAN_POINT('',(-4.87919097682,-11.3443558199));
#578 = CARTESIAN_POINT('',(-4.919284410055,-11.7626069988));
#579 = CARTESIAN_POINT('',(-4.961575224501,-12.18022955985));
#580 = CARTESIAN_POINT('',(-5.027738974761,-12.79273942269));
#581 = CARTESIAN_POINT('',(-5.049487831068,-12.9883145876));
#582 = CARTESIAN_POINT('',(-5.071892350448,-13.18366322172));
#583 = CARTESIAN_POINT('',(-5.095015500444,-13.37875200645));
#584 = CARTESIAN_POINT('',(-5.118929592562,-13.57354010932));
#585 = CARTESIAN_POINT('',(-5.143719370573,-13.76797765617));
#586 = CARTESIAN_POINT('',(-5.169487196441,-13.96200307567));
#587 = CARTESIAN_POINT('',(-5.220965301344,-14.33274054245));
#588 = CARTESIAN_POINT('',(-5.246495176102,-14.50951944627));
#589 = CARTESIAN_POINT('',(-5.273049300982,-14.68582662564));
#590 = CARTESIAN_POINT('',(-5.300742793818,-14.86159079006));
#591 = CARTESIAN_POINT('',(-5.329714559901,-15.03671331957));
#592 = CARTESIAN_POINT('',(-5.360132542017,-15.21106503424));
#593 = CARTESIAN_POINT('',(-5.39220888375,-15.38447618245));
#594 = CARTESIAN_POINT('',(-5.45644760203,-15.70961613709));
#595 = CARTESIAN_POINT('',(-5.488173741946,-15.86147844437));
#596 = CARTESIAN_POINT('',(-5.521637778424,-16.01224283573));
#597 = CARTESIAN_POINT('',(-5.557107097454,-16.1617151503));
#598 = CARTESIAN_POINT('',(-5.594889136039,-16.30957147421));
#599 = CARTESIAN_POINT('',(-5.635412931009,-16.45527061013));
#600 = CARTESIAN_POINT('',(-5.679197950794,-16.59808979377));
#601 = CARTESIAN_POINT('',(-5.754044594826,-16.81418897953));
#602 = CARTESIAN_POINT('',(-5.782132792156,-16.89016948582));
#603 = CARTESIAN_POINT('',(-5.811691787401,-16.96460250131));
#604 = CARTESIAN_POINT('',(-5.842935772022,-17.03719796959));
#605 = CARTESIAN_POINT('',(-5.87608803678,-17.10746474537));
#606 = CARTESIAN_POINT('',(-5.91140656413,-17.17465544632));
#607 = CARTESIAN_POINT('',(-5.949176705167,-17.23777339007));
#608 = CARTESIAN_POINT('',(-6.003426927474,-17.31457752444));
#609 = CARTESIAN_POINT('',(-6.017331476827,-17.33318472947));
#610 = CARTESIAN_POINT('',(-6.031561409541,-17.35109938738));
#611 = CARTESIAN_POINT('',(-6.046126130761,-17.36825143675));
#612 = CARTESIAN_POINT('',(-6.061031766986,-17.38456081889));
#613 = CARTESIAN_POINT('',(-6.076280423947,-17.39993924565));
#614 = CARTESIAN_POINT('',(-6.091869444475,-17.41429196721));
#615 = CARTESIAN_POINT('',(-6.128206987972,-17.444481704));
#616 = CARTESIAN_POINT('',(-6.149182226344,-17.45960455337));
#617 = CARTESIAN_POINT('',(-6.170679054358,-17.47265861081));
#618 = CARTESIAN_POINT('',(-6.192641037795,-17.48341394822));
#619 = CARTESIAN_POINT('',(-6.214989771179,-17.491658307));
#620 = CARTESIAN_POINT('',(-6.237622106724,-17.49722062927));
#621 = CARTESIAN_POINT('',(-6.260407476412,-17.5));
#622 = CARTESIAN_POINT('',(-6.28318530718,-17.5));
#623 = ( GEOMETRIC_REPRESENTATION_CONTEXT(2) 
PARAMETRIC_REPRESENTATION_CONTEXT() REPRESENTATION_CONTEXT('2D SPACE',''
  ) );
#624 = ADVANCED_FACE('',(#625),#205,.F.);
#625 = FACE_BOUND('',#626,.F.);
#626 = EDGE_LOOP('',(#627,#650,#677,#678,#679,#701));
#627 = ORIENTED_EDGE('',*,*,#628,.T.);
#628 = EDGE_CURVE('',#22,#629,#631,.T.);
#629 = VERTEX_POINT('',#630);
#630 = CARTESIAN_POINT('',(7.,-4.898587196589E-16,25.));
#631 = SEAM_CURVE('',#632,(#636,#643),.PCURVE_S1.);
#632 = LINE('',#633,#634);
#633 = CARTESIAN_POINT('',(15.,-2.449293598295E-15,5.));
#634 = VECTOR('',#635,1.);
#635 = DIRECTION('',(-0.371390676354,9.096448060604E-17,0.928476690885)
  );
#636 = PCURVE('',#205,#637);
#637 = DEFINITIONAL_REPRESENTATION('',(#638),#642);
#638 = LINE('',#639,#640);
#639 = CARTESIAN_POINT('',(-6.28318530718,0.));
#640 = VECTOR('',#641,1.);
#641 = DIRECTION('',(-0.,-1.));
#642 = ( GEOMETRIC_REPRESENTATION_CONTEXT(2) 
PARAMETRIC_REPRESENTATION_CONTEXT() REPRESENTATION_CONTEXT('2D SPACE',''
  ) );
#643 = PCURVE('',#205,#644);
#644 = DEFINITIONAL_REPRESENTATION('',(#645),#649);
#645 = LINE('',#646,#647);
#646 = CARTESIAN_POINT('',(0.,-0.));
#647 = VECTOR('',#648,1.);
#648 = DIRECTION('',(-0.,-1.));
#649 = ( GEOMETRIC_REPRESENTATION_CONTEXT(2) 
PARAMETRIC_REPRESENTATION_CONTEXT() REPRESENTATION_CONTEXT('2D SPACE',''
  ) );
#650 = ORIENTED_EDGE('',*,*,#651,.F.);
#651 = EDGE_CURVE('',#629,#629,#652,.T.);
#652 = SURFACE_CURVE('',#653,(#658,#665),.PCURVE_S1.);
#653 = CIRCLE('',#654,2.);
#654 = AXIS2_PLACEMENT_3D('',#655,#656,#657);
#655 = CARTESIAN_POINT('',(5.,0.,25.));
#656 = DIRECTION('',(0.,0.,1.));
#657 = DIRECTION('',(1.,0.,-0.));
#658 = PCURVE('',#205,#659);
#659 = DEFINITIONAL_REPRESENTATION('',(#660),#664);
#660 = LINE('',#661,#662);
#661 = CARTESIAN_POINT('',(-0.,-20.));
#662 = VECTOR('',#663,1.);
#663 = DIRECTION('',(-1.,-0.));
#664 = ( GEOMETRIC_REPRESENTATION_CONTEXT(2) 
PARAMETRIC_REPRESENTATION_CONTEXT() REPRESENTATION_CONTEXT('2D SPACE',''
  ) );
#665 = PCURVE('',#666,#671);
#666 = PLANE('',#667);
#667 = AXIS2_PLACEMENT_3D('',#668,#669,#670);
#668 = CARTESIAN_POINT('',(5.,0.,25.));
#669 = DIRECTION('',(0.,0.,1.));
#670 = DIRECTION('',(1.,0.,-0.));
#671 = DEFINITIONAL_REPRESENTATION('',(#672),#676);
#672 = CIRCLE('',#673,2.);
#673 = AXIS2_PLACEMENT_2D('',#674,#675);
#674 = CARTESIAN_POINT('',(0.,0.));
#675 = DIRECTION('',(1.,0.));
#676 = ( GEOMETRIC_REPRESENTATION_CONTEXT(2) 
PARAMETRIC_REPRESENTATION_CONTEXT() REPRESENTATION_CONTEXT('2D SPACE',''
  ) );
#677 = ORIENTED_EDGE('',*,*,#628,.F.);
#678 = ORIENTED_EDGE('',*,*,#79,.T.);
#679 = ORIENTED_EDGE('',*,*,#680,.T.);
#680 = EDGE_CURVE('',#80,#353,#681,.T.);
#681 = SURFACE_CURVE('',#682,(#687,#694),.PCURVE_S1.);
#682 = CIRCLE('',#683,10.);
#683 = AXIS2_PLACEMENT_3D('',#684,#685,#686);
#684 = CARTESIAN_POINT('',(5.,0.,5.));
#685 = DIRECTION('',(0.,0.,1.));
#686 = DIRECTION('',(1.,0.,-0.));
#687 = PCURVE('',#205,#688);
#688 = DEFINITIONAL_REPRESENTATION('',(#689),#693);
#689 = LINE('',#690,#691);
#690 = CARTESIAN_POINT('',(-0.,-0.));
#691 = VECTOR('',#692,1.);
#692 = DIRECTION('',(-1.,-0.));
#693 = ( GEOMETRIC_REPRESENTATION_CONTEXT(2) 
PARAMETRIC_REPRESENTATION_CONTEXT() REPRESENTATION_CONTEXT('2D SPACE',''
  ) );
#694 = PCURVE('',#289,#695);
#695 = DEFINITIONAL_REPRESENTATION('',(#696),#700);
#696 = CIRCLE('',#697,10.);
#697 = AXIS2_PLACEMENT_2D('',#698,#699);
#698 = CARTESIAN_POINT('',(0.,0.));
#699 = DIRECTION('',(1.,0.));
#700 = ( GEOMETRIC_REPRESENTATION_CONTEXT(2) 
PARAMETRIC_REPRESENTATION_CONTEXT() REPRESENTATION_CONTEXT('2D SPACE',''
  ) );
#701 = ORIENTED_EDGE('',*,*,#376,.T.);
#702 = ADVANCED_FACE('',(#703),#289,.T.);
#703 = FACE_BOUND('',#704,.T.);
#704 = EDGE_LOOP('',(#705,#706,#707));
#705 = ORIENTED_EDGE('',*,*,#272,.T.);
#706 = ORIENTED_EDGE('',*,*,#680,.T.);
#707 = ORIENTED_EDGE('',*,*,#352,.T.);
#708 = ADVANCED_FACE('',(#709),#339,.F.);
#709 = FACE_BOUND('',#710,.T.);
#710 = EDGE_LOOP('',(#711));
#711 = ORIENTED_EDGE('',*,*,#324,.F.);
#712 = ADVANCED_FACE('',(#713),#66,.T.);
#713 = FACE_BOUND('',#714,.T.);
#714 = EDGE_LOOP('',(#715));
#715 = ORIENTED_EDGE('',*,*,#51,.T.);
#716 = ADVANCED_FACE('',(#717),#666,.F.);
#717 = FACE_BOUND('',#718,.F.);
#718 = EDGE_LOOP('',(#719));
#719 = ORIENTED_EDGE('',*,*,#651,.T.);
#720 = ( GEOMETRIC_REPRESENTATION_CONTEXT(3) 
GLOBAL_UNCERTAINTY_ASSIGNED_CONTEXT((#724)) GLOBAL_UNIT_ASSIGNED_CONTEXT
((#721,#722,#723)) REPRESENTATION_CONTEXT('Context #1',
  '3D Context with UNIT and UNCERTAINTY') );
#721 = ( LENGTH_UNIT() NAMED_UNIT(*) SI_UNIT(.MILLI.,.METRE.) );
#722 = ( NAMED_UNIT(*) PLANE_ANGLE_UNIT() SI_UNIT($,.RADIAN.) );
#723 = ( NAMED_UNIT(*) SI_UNIT($,.STERADIAN.) SOLID_ANGLE_UNIT() );
#724 = UNCERTAINTY_MEASURE_WITH_UNIT(LENGTH_MEASURE(1.E-07),#721,
  'distance_accuracy_value','confusion accuracy');
#725 = PRODUCT_RELATED_PRODUCT_CATEGORY('part',$,(#7));
ENDSEC;
END-ISO-10303-21;
