{"asset":{"version":"2.0","generator":"THREE.GLTFExporter r182"},"scenes":[{"name":"AuxScene","nodes":[0]}],"scene":0,"nodes":[{"mesh":0}],"bufferViews":[{"buffer":0,"byteOffset":0,"byteLength":12504,"target":34962,"byteStride":12},{"buffer":0,"byteOffset":12504,"byteLength":12504,"target":34962,"byteStride":12},{"buffer":0,"byteOffset":25008,"byteLength":25056,"target":34963}],"buffers":[{"byteLength":50064,"uri":"data:application/octet-stream;base64,"}],"accessors":[{"bufferView":0,"componentType":5126,"count":1042,"max":[18,18,4],"min":[-18,-18,-4],"type":"VEC3"},{"bufferView":1,"componentType":5126,"count":1042,"max":[1,1,0.9999939203262329],"min":[-1,-1,-0.9999939203262329],"type":"VEC3"},{"bufferView":2,"componentType":5125,"count":6264,"max":[1041],"min":[0],"type":"SCALAR"}],"materials":[{"pbrMetallicRoughness":{"baseColorFactor":[0.7454042095350284,0.3005437944049895,0.07036009568874305,1],"metallicFactor":0.25,"roughnessFactor":0.4},"name":"boolean-difference-torus-minus-cube-material"}],"meshes":[{"primitives":[{"mode":4,"attributes":{"POSITION":0,"NORMAL":1},"indices":2,"material":0}]}]}