ply
format ascii 1.0
element vertex 56
property float x
property float y
property float z
property float nx
property float ny
property float nz
element face 112
property list uchar int vertex_index
end_header
-50 -50 -50 -0.816496580927726 -0.408248290463863 -0.408248290463863
-0.00035355339059606194 -0.00035355339059606194 -50 0.6671460341922478 0.6110532944897216 -0.42606342292528904
-0.0002500000118743628 -0.00043301269761286676 -50 0.48924509337990923 0.7675835591760105 -0.4140709097321034
-0.00043301269761286676 -0.0002500000118743628 -50 0.8074904818723943 0.4201242697758027 -0.41407091135557567
-0.00048296290333382785 -0.00012940952728968114 -50 0.9040442490814059 0.2002105963445806 -0.3776502519715619
-0.00012940952728968114 -0.00048296290333382785 -50 0.2786348127012066 0.8830305220427718 -0.3776502857033652
-50 -50 50 -0.408248290463863 -0.816496580927726 0.408248290463863
-0.00035355339059606194 -0.00035355339059606194 50 0.6110532944897216 0.6671460341922478 0.42606342292528904
-0.0002500000118743628 -0.00043301269761286676 50 0.4201242995023331 0.807490481726719 0.4140708814785523
-0.00043301269761286676 -0.0002500000118743628 50 0.7675835591760105 0.48924509337990923 0.4140709097321034
-0.00048296290333382785 -0.00012940952728968114 50 0.8830305220427718 0.2786348127012066 0.3776502857033652
-0.00012940952728968114 -0.00048296290333382785 50 0.20021061918349364 0.904044225319412 0.37765029674658823
-50 50 -50 -0.4082487722666417 0.8164975445332834 -0.40824588144144014
-0.0005000000237487257 0 -50 0.947863170127153 -0.04159626402287257 -0.31595120119386005
-0.00048296290333382785 0.00012940952728968114 -50 0.9282623168698689 -0.29290742424561683 -0.22920364722486677
-0.00043301269761286676 0.0002500000118743628 -50 0.8370765589616123 -0.5335388274101924 -0.12099237200230159
-0.00035355339059606194 0.00035355339059606194 -50 0.000002624737817294053 -0.000002865680244191216 -0.9999999999924494
-0.0002500000118743628 0.00043301269761286676 -50 0.458160135893644 -0.880596466069374 -0.1209923709332423
-0.00012940952728968114 0.00048296290333382785 -50 0.21046605648944364 -0.9503524277575959 -0.22920362588978838
-50 50 50 -0.8164975445332834 0.4082487722666417 0.40824588144144014
-0.00035355339059606194 0.00035355339059606194 50 0.000002865680244191216 -0.000002624737817294053 0.9999999999924494
-0.0005000000237487257 0 50 0.947863170127153 0.04159626402287257 0.31595120119386005
-0.00048296290333382785 0.00012940952728968114 50 0.9503524215312774 -0.2104660700117176 0.2292036392893015
-0.00043301269761286676 0.0002500000118743628 50 0.8805964540455018 -0.4581601594401395 0.12099236928118388
-0.0002500000118743628 0.00043301269761286676 50 0.5335387576716578 -0.8370766026670546 0.1209923771547863
-0.00012940952728968114 0.00048296290333382785 50 0.29290742424561683 -0.9282623168698689 0.22920364722486677
0 -0.0005000000237487257 -50 0.04159626402287257 0.947863170127153 -0.31595120119386005
0.00012940952728968114 -0.00048296290333382785 -50 -0.2104660700117176 0.9503524215312774 -0.2292036392893015
0.0002500000118743628 -0.00043301269761286676 -50 -0.4581601594401395 0.8805964540455018 -0.12099236928118388
0.00035355339059606194 -0.00035355339059606194 -50 -0.000002624737817294053 0.000002865680244191216 -0.9999999999924494
0.00043301269761286676 -0.0002500000118743628 -50 -0.8370766026670546 0.5335387576716578 -0.1209923771547863
0.00048296290333382785 -0.00012940952728968114 -50 -0.9282623168698689 0.29290742424561683 -0.22920364722486677
50 -50 -50 0.4082487722666417 -0.8164975445332834 -0.40824588144144014
0.00035355339059606194 -0.00035355339059606194 50 -0.000002865680244191216 0.000002624737817294053 0.9999999999924494
0 -0.0005000000237487257 50 -0.04159626402287257 0.947863170127153 0.31595120119386005
0.00012940952728968114 -0.00048296290333382785 50 -0.29290742424561683 0.9282623168698689 0.22920364722486677
0.0002500000118743628 -0.00043301269761286676 50 -0.5335387576716578 0.8370766026670546 0.1209923771547863
0.00043301269761286676 -0.0002500000118743628 50 -0.8805964540455018 0.4581601594401395 0.12099236928118388
0.00048296290333382785 -0.00012940952728968114 50 -0.9503524215312774 0.2104660700117176 0.2292036392893015
50 -50 50 0.8164975445332834 -0.4082487722666417 0.40824588144144014
0.0005000000237487257 0 -50 -0.947863170127153 0.04159626402287257 -0.31595120119386005
0 0.0005000000237487257 -50 -0.04159626402287257 -0.947863170127153 -0.31595120119386005
0.00012940952728968114 0.00048296290333382785 -50 -0.2786348127012066 -0.8830305220427718 -0.3776502857033652
0.00048296290333382785 0.00012940952728968114 -50 -0.904044225319412 -0.20021061918349364 -0.37765029674658823
0.00043301269761286676 0.0002500000118743628 -50 -0.807490481726719 -0.4201242995023331 -0.4140708814785523
0.0002500000118743628 0.00043301269761286676 -50 -0.48924512208614385 -0.7675835574563423 -0.41407087900211026
0.00035355339059606194 0.00035355339059606194 -50 -0.6671460341922478 -0.6110532944897216 -0.42606342292528904
50 50 -50 0.816496580927726 0.408248290463863 -0.408248290463863
0.0005000000237487257 0 50 -0.947863170127153 -0.04159626402287257 0.31595120119386005
0 0.0005000000237487257 50 0.04159626402287257 -0.947863170127153 0.31595120119386005
0.00012940952728968114 0.00048296290333382785 50 -0.20021061918349364 -0.904044225319412 0.37765029674658823
0.00048296290333382785 0.00012940952728968114 50 -0.8830305220427718 -0.2786348127012066 0.3776502857033652
0.00043301269761286676 0.0002500000118743628 50 -0.7675835591760105 -0.48924509337990923 0.4140709097321034
0.0002500000118743628 0.00043301269761286676 50 -0.4201242995023331 -0.807490481726719 0.4140708814785523
0.00035355339059606194 0.00035355339059606194 50 -0.611053331838817 -0.667146009893712 0.42606340740737114
50 50 50 0.408248290463863 0.816496580927726 0.408248290463863
3 0 32 6
3 0 28 29
3 0 27 28
3 0 26 27
3 0 5 26
3 0 2 5
3 0 1 2
3 0 16 15
3 0 15 14
3 0 14 13
3 0 13 4
3 0 4 3
3 0 3 1
3 0 6 19
3 6 33 36
3 6 36 35
3 6 35 34
3 6 34 11
3 6 11 8
3 6 8 7
3 6 23 20
3 6 22 23
3 6 21 22
3 6 10 21
3 6 9 10
3 6 7 9
3 0 12 16
3 0 19 12
3 12 47 16
3 6 20 19
3 12 19 55
3 19 20 55
3 0 29 32
3 32 29 47
3 32 47 39
3 6 32 39
3 6 39 33
3 39 55 33
3 47 17 16
3 47 18 17
3 47 41 18
3 47 42 41
3 47 45 42
3 47 46 45
3 47 29 30
3 47 30 31
3 47 31 40
3 47 40 43
3 47 43 44
3 47 44 46
3 12 55 47
3 55 20 24
3 55 24 25
3 55 25 49
3 55 49 50
3 55 50 53
3 55 53 54
3 55 37 33
3 55 38 37
3 55 48 38
3 55 51 48
3 55 52 51
3 55 54 52
3 39 47 55
3 1 3 9
3 2 1 7
3 3 4 10
3 4 13 21
3 5 2 8
3 5 11 26
3 1 9 7
3 2 7 8
3 3 10 9
3 4 21 10
3 5 8 11
3 26 11 34
3 13 14 22
3 14 15 23
3 15 16 20
3 16 17 24
3 17 18 25
3 18 41 49
3 13 22 21
3 14 23 22
3 15 20 23
3 16 24 20
3 17 25 24
3 18 49 25
3 26 34 27
3 28 27 35
3 29 28 36
3 30 29 33
3 31 30 37
3 31 38 40
3 27 34 35
3 28 35 36
3 29 36 33
3 30 33 37
3 31 37 38
3 40 38 48
3 41 42 50
3 42 45 53
3 40 48 43
3 44 43 51
3 45 46 54
3 46 44 52
3 41 50 49
3 42 53 50
3 43 48 51
3 44 51 52
3 45 54 53
3 46 52 54

