o 
usemtl polygon-l-shape-material
v 0 0 0
v 1 1 0
v 0 0 0.30000001192092896
v 1 1 0.30000001192092896
v 0 3 0
v 1 3 0
v 0 3 0.30000001192092896
v 1 3 0.30000001192092896
v 3 0 0
v 3 1 0
v 3 0 0.30000001192092896
v 3 1 0.30000001192092896
vn -0.2844272885994282 -0.1422136442997141 -0.9480909222616637
vn 0.059467186589742774 0.11893437317948555 -0.9911197044734322
vn -0.1422136442997141 -0.2844272885994282 0.9480909222616637
vn 0.11893437317948555 0.059467186589742774 0.9911197044734322
vn -0.17593030243382768 0.11728687325627207 -0.9773905657654512
vn 0.5102919239205411 0.12757298098013528 -0.8504865001311396
vn -0.33818102547565404 0.056363505487705794 0.9393916910732032
vn 0.27617240052322023 0.27617240052322023 0.9205746088060891
vn 0.056363505487705794 -0.33818102547565404 -0.9393916910732032
vn 0.27617240052322023 0.27617240052322023 -0.9205746088060891
vn 0.11728687325627207 -0.17593030243382768 0.9773905657654512
vn 0.12757298098013528 0.5102919239205411 0.8504865001311396
f 2//2 1//1 5//5
f 1//1 2//2 9//9
f 3//3 1//1 9//9
f 3//3 7//7 1//1
f 4//4 7//7 3//3
f 3//3 11//11 4//4
f 7//7 5//5 1//1
f 2//2 5//5 6//6
f 8//8 6//6 5//5
f 4//4 2//2 6//6
f 7//7 8//8 5//5
f 4//4 8//8 7//7
f 8//8 4//4 6//6
f 9//9 2//2 10//10
f 11//11 9//9 10//10
f 12//12 10//10 2//2
f 11//11 3//3 9//9
f 4//4 12//12 2//2
f 12//12 11//11 10//10
f 11//11 12//12 4//4
