solid exported
	facet normal 0 0 -1
		outer loop
			vertex 1 1 0
			vertex 0 0 0
			vertex 0 3 0
		endloop
	endfacet
	facet normal 0 0 -1
		outer loop
			vertex 0 0 0
			vertex 1 1 0
			vertex 3 0 0
		endloop
	endfacet
	facet normal 0 -1 0
		outer loop
			vertex 0 0 0.30000001192092896
			vertex 0 0 0
			vertex 3 0 0
		endloop
	endfacet
	facet normal -1 0 0
		outer loop
			vertex 0 0 0.30000001192092896
			vertex 0 3 0.30000001192092896
			vertex 0 0 0
		endloop
	endfacet
	facet normal 0 0 1
		outer loop
			vertex 1 1 0.30000001192092896
			vertex 0 3 0.30000001192092896
			vertex 0 0 0.30000001192092896
		endloop
	endfacet
	facet normal 0 0 1
		outer loop
			vertex 0 0 0.30000001192092896
			vertex 3 0 0.30000001192092896
			vertex 1 1 0.30000001192092896
		endloop
	endfacet
	facet normal -1 0 0
		outer loop
			vertex 0 3 0.30000001192092896
			vertex 0 3 0
			vertex 0 0 0
		endloop
	endfacet
	facet normal 0 0 -1
		outer loop
			vertex 1 1 0
			vertex 0 3 0
			vertex 1 3 0
		endloop
	endfacet
	facet normal 0 1 0
		outer loop
			vertex 1 3 0.30000001192092896
			vertex 1 3 0
			vertex 0 3 0
		endloop
	endfacet
	facet normal 1 0 0
		outer loop
			vertex 1 1 0.30000001192092896
			vertex 1 1 0
			vertex 1 3 0
		endloop
	endfacet
	facet normal 0 1 0
		outer loop
			vertex 0 3 0.30000001192092896
			vertex 1 3 0.30000001192092896
			vertex 0 3 0
		endloop
	endfacet
	facet normal 0 0 1
		outer loop
			vertex 1 1 0.30000001192092896
			vertex 1 3 0.30000001192092896
			vertex 0 3 0.30000001192092896
		endloop
	endfacet
	facet normal 1 0 0
		outer loop
			vertex 1 3 0.30000001192092896
			vertex 1 1 0.30000001192092896
			vertex 1 3 0
		endloop
	endfacet
	facet normal 0 0 -1
		outer loop
			vertex 3 0 0
			vertex 1 1 0
			vertex 3 1 0
		endloop
	endfacet
	facet normal 1 0 0
		outer loop
			vertex 3 0 0.30000001192092896
			vertex 3 0 0
			vertex 3 1 0
		endloop
	endfacet
	facet normal 0 1 0
		outer loop
			vertex 3 1 0.30000001192092896
			vertex 3 1 0
			vertex 1 1 0
		endloop
	endfacet
	facet normal 0 -1 0
		outer loop
			vertex 3 0 0.30000001192092896
			vertex 0 0 0.30000001192092896
			vertex 3 0 0
		endloop
	endfacet
	facet normal 0 1 0
		outer loop
			vertex 1 1 0.30000001192092896
			vertex 3 1 0.30000001192092896
			vertex 1 1 0
		endloop
	endfacet
	facet normal 1 0 0
		outer loop
			vertex 3 1 0.30000001192092896
			vertex 3 0 0.30000001192092896
			vertex 3 1 0
		endloop
	endfacet
	facet normal 0 0 1
		outer loop
			vertex 3 0 0.30000001192092896
			vertex 3 1 0.30000001192092896
			vertex 1 1 0.30000001192092896
		endloop
	endfacet
endsolid exported
