o 
usemtl rect-unit-square-material
v 0 0 0
v 0 0 0.10000000149011612
v 0 1 0
v 0 1 0.10000000149011612
v 1 0 0
v 1 0 0.10000000149011612
v 1 1 0
v 1 1 0.10000000149011612
vn -0.19518001742802313 -0.09759000871401156 -0.9759000722389541
vn -0.09759000871401156 -0.19518001742802313 0.9759000722389541
vn -0.04969040023585516 0.09938080047171031 -0.9938079898159417
vn -0.09938080047171031 0.04969040023585516 0.9938079898159417
vn 0.04969040023585516 -0.09938080047171031 -0.9938079898159417
vn 0.09938080047171031 -0.04969040023585516 0.9938079898159417
vn 0.19518001742802313 0.09759000871401156 -0.9759000722389541
vn 0.09759000871401156 0.19518001742802313 0.9759000722389541
f 2//2 1//1 5//5
f 3//3 5//5 1//1
f 2//2 4//4 1//1
f 4//4 2//2 6//6
f 4//4 3//3 1//1
f 4//4 8//8 3//3
f 6//6 5//5 7//7
f 6//6 2//2 5//5
f 7//7 5//5 3//3
f 8//8 7//7 3//3
f 8//8 4//4 6//6
f 8//8 6//6 7//7
