o 
usemtl scale-one-hole-1e-3-material
v 0 0 0
v 0.0010000020265579224 0.0005000010132789612 0
v 0.001999996602535248 0.0005000010132789612 0
v 0 0 0.0002500000118743628
v 0.0010000020265579224 0.0005000010132789612 0.0002500000118743628
v 0.001999996602535248 0.0005000010132789612 0.0002500000118743628
v 0 0.001999996602535248 0
v 0.0010000020265579224 0.0015000030398368835 0
v 0.001999996602535248 0.0015000030398368835 0
v 0 0.001999996602535248 0.0002500000118743628
v 0.0010000020265579224 0.0015000030398368835 0.0002500000118743628
v 0.001999996602535248 0.0015000030398368835 0.0002500000118743628
v 0.0040000006556510925 0 0
v 0.0040000006556510925 0 0.0002500000118743628
v 0.0040000006556510925 0.001999996602535248 0
v 0.0040000006556510925 0.001999996602535248 0.0002500000118743628
vn -0.1760896704671642 -0.17608999829270344 -0.9684961230980954
vn 0.15617394506352425 0.3123455655458935 -0.9370431935439856
vn -0.05869676695636092 0.029348165548692417 -0.9978443639805743
vn -0.08512540661282732 -0.34050228210238287 0.9363823263133868
vn 0.3123477018640738 0.15617270354265533 0.937042688359719
vn -0.029348382289357943 0.0586963324450477 0.9978443831652799
vn -0.11111145696486695 0.4444466921268349 -0.888887721812299
vn 0.09044378737395248 -0.04522155841085896 -0.9948743297423793
vn -0.09759026047263104 -0.19517907553262234 -0.9759002354416741
vn -0.23570317598875323 0.23570362302359985 0.9428084720251317
vn 0.04522189943110663 -0.09044312830994877 0.9948743741565329
vn -0.19518047099093191 -0.09758952023974596 0.9759000303735695
vn 0.07881083922684998 -0.3152439529538354 -0.9457325741172288
vn 0.1622210035060876 -0.1622213164304802 0.9733286138386358
vn 0.1160519109187599 0.11605213443617514 -0.9864399911119338
vn 0.05716625750088597 0.22866547703839132 0.9718251481692309
f 1//1 2//2 3//3
f 1//1 8//8 2//2
f 1//1 3//3 13//13
f 4//4 1//1 13//13
f 5//5 2//2 8//8
f 6//6 3//3 2//2
f 4//4 6//6 5//5
f 4//4 10//10 1//1
f 4//4 5//5 11//11
f 4//4 14//14 6//6
f 5//5 6//6 2//2
f 6//6 12//12 3//3
f 7//7 8//8 1//1
f 10//10 7//7 1//1
f 12//12 9//9 3//3
f 15//15 8//8 7//7
f 11//11 8//8 9//9
f 10//10 4//4 11//11
f 11//11 5//5 8//8
f 10//10 16//16 7//7
f 12//12 11//11 9//9
f 16//16 10//10 11//11
f 13//13 3//3 15//15
f 14//14 13//13 15//15
f 14//14 4//4 13//13
f 14//14 16//16 6//6
f 15//15 3//3 9//9
f 9//9 8//8 15//15
f 16//16 15//15 7//7
f 16//16 12//12 6//6
f 12//12 16//16 11//11
f 16//16 14//14 15//15
