<?xml version="1.0" encoding="utf-8" standalone="no"?>
<!DOCTYPE svg PUBLIC "-//W3C//DTD SVG 1.1//EN" "http://www.w3.org/Graphics/SVG/1.1/DTD/svg11.dtd">
<svg version="1.1" width="419.52pt" height="595.2pt" viewBox="0 0 419.52 595.2" overflow="visible" xmlns="http://www.w3.org/2000/svg">
  <path d="M137.2689,340.1197 L138.4249,339.6189" stroke="#000000" stroke-width="0.24" fill="none" />
  <path d="M104.7516,327.274 L107.3935,327.3602" stroke="#000000" stroke-width="0.24" fill="none" />
  <path d="M262.3854,306.2727 L264.373,302.8689" stroke="#000000" stroke-width="0.24" fill="none" />
  <path d="M262.3854,306.2727 L260.8559,306.6409" stroke="#000000" stroke-width="0.24" fill="none" />
  <path d="M262.3854,280.7914 L264.373,283.2119" stroke="#000000" stroke-width="0.24" fill="none" />
  <path d="M227.8362,280.3665 L226.6989,282.7485" stroke="#000000" stroke-width="0.24" fill="none" />
  <path d="M227.8362,305.8477 L228.6891,306.2453" stroke="#000000" stroke-width="0.24" fill="none" />
  <path d="M227.8362,305.8477 L226.6989,302.4055" stroke="#000000" stroke-width="0.24" fill="none" />
  <path d="M227.6624,306.424 L107.9059,327.271" stroke="#000000" stroke-width="0.24" fill="none" />
  <path d="M104.7863,327.268 L227.2581,305.9484" stroke="#000000" stroke-width="0.24" fill="none" />
  <path d="M264.373,283.2119 L264.373,302.8689" stroke="#000000" stroke-width="0.24" fill="none" />
  <path d="M226.6989,282.7485 L226.6989,302.4055" stroke="#000000" stroke-width="0.24" fill="none" />
  <path d="M101.2292,304.59 L101.2292,324.247" stroke="#000000" stroke-width="0.24" fill="none" />
  <path d="M262.9548,281.0164 L265.3409,281.9595 L268.2964,283.1277 L271.2519,284.2959 L274.2074,285.4641 L277.1629,286.6322 L280.1184,287.8004 L283.0739,288.9686 L286.0294,290.1367 L288.9849,291.3049 L291.9404,292.4731 L294.8959,293.6413 L297.8514,294.8094 L300.8069,295.9776 L303.7624,297.1458 L306.7179,298.3139 L309.6734,299.4821 L312.6289,300.6503 L315.5844,301.8185" stroke="#000000" stroke-width="0.24" fill="none" />
  <path d="M262.9293,283.1941 L227.5343,282.7588" stroke="#000000" stroke-width="0.24" fill="none" />
  <path d="M104.7863,301.7867 L227.2581,280.4671" stroke="#000000" stroke-width="0.24" fill="none" />
  <path d="M312.6396,327.0938 L260.8948,306.6414" stroke="#000000" stroke-width="0.24" fill="none" />
  <path d="M226.6989,302.4055 L101.2292,324.247" stroke="#000000" stroke-width="0.24" fill="none" />
  <path d="M318.2909,304.5231 L318.2909,324.1801" stroke="#000000" stroke-width="0.24" fill="none" />
  <path d="M226.6989,282.7485 L101.2292,304.59" stroke="#000000" stroke-width="0.24" fill="none" />
  <path d="M227.8362,280.3665 L262.3854,280.7914" stroke="#000000" stroke-width="0.24" fill="none" />
  <path d="M318.2909,304.5231 L264.373,283.2119" stroke="#000000" stroke-width="0.24" fill="none" />
  <path d="M224.6057,255.6295 L224.6057,280.9288" stroke="#000000" stroke-width="0.24" fill="none" />
  <path d="M228.788,280.3783 L228.788,255.6295" stroke="#000000" stroke-width="0.24" fill="none" />
  <path d="M197.9438,260.2708 L197.9438,285.57" stroke="#000000" stroke-width="0.24" fill="none" />
  <path d="M202.1261,284.842 L202.1261,260.2708" stroke="#000000" stroke-width="0.24" fill="none" />
  <path d="M264.373,297.7726 L226.6989,297.3093 L101.2292,319.1508" stroke="#000000" stroke-width="0.24" fill="none" />
  <path d="M226.6989,286.3887 L264.373,286.8521 L318.2909,308.1633" stroke="#000000" stroke-width="0.24" fill="none" />
  <path d="M265.9055,262.0908 L265.9055,282.1827" stroke="#000000" stroke-width="0.24" fill="none" />
  <path d="M272.4678,273.2437 L265.9059,272.1014" stroke="#000000" stroke-width="0.24" fill="none" />
  <path d="M252.9583,255.2878 L252.9583,280.6754" stroke="#000000" stroke-width="0.24" fill="none" />
  <path d="M161.8719,266.55 L161.8719,291.8494" stroke="#000000" stroke-width="0.24" fill="none" />
  <path d="M166.0541,291.1213 L166.0541,266.55" stroke="#000000" stroke-width="0.24" fill="none" />
  <path d="M256.8568,255.5515 L256.8568,280.7234" stroke="#000000" stroke-width="0.24" fill="none" />
  <path d="M135.21,271.1913 L135.21,296.4906" stroke="#000000" stroke-width="0.24" fill="none" />
  <path d="M139.3923,295.7625 L139.3923,271.1913" stroke="#000000" stroke-width="0.24" fill="none" />
  <path d="M272.4675,262.9989 L272.4675,284.7763" stroke="#000000" stroke-width="0.24" fill="none" />
  <path d="M226.6969,280.5648 L226.6969,255.2655" stroke="#000000" stroke-width="0.24" fill="none" />
  <path d="M200.035,285.206 L200.035,259.9067" stroke="#000000" stroke-width="0.24" fill="none" />
  <path d="M116.3899,299.767 L116.3899,274.4675" stroke="#000000" stroke-width="0.24" fill="none" />
  <path d="M118.481,299.4027 L118.481,274.8315" stroke="#000000" stroke-width="0.24" fill="none" />
  <path d="M137.3011,296.1267 L137.3011,270.8273" stroke="#000000" stroke-width="0.24" fill="none" />
  <path d="M163.963,291.4854 L163.963,266.186" stroke="#000000" stroke-width="0.24" fill="none" />
  <path d="M103.1129,303.1054 L101.2292,304.59" stroke="#000000" stroke-width="0.24" fill="none" />
  <path d="M260.8559,306.6409 L228.6891,306.2453" stroke="#000000" stroke-width="0.24" fill="none" />
  <path d="M229.3247,305.8661 L262.3854,306.2727" stroke="#000000" stroke-width="0.24" fill="none" />
  <path d="M262.9548,306.4977 L265.3409,307.4408 L268.2964,308.609 L271.2519,309.7772 L274.2074,310.9453 L277.1629,312.1135 L280.1184,313.2817 L283.0739,314.4499 L286.0294,315.618 L288.9849,316.7862 L291.9404,317.9544 L294.8959,319.1226 L297.8514,320.2907 L300.8069,321.4589 L303.7624,322.6271 L306.7179,323.7953 L309.6734,324.9634 L312.6289,326.1316 L315.5844,327.2998" stroke="#000000" stroke-width="0.24" fill="none" />
  <path d="M111.2314,326.6922 L138.4249,337.4348" stroke="#000000" stroke-width="0.24" fill="none" />
  <path d="M107.3935,327.3602 L138.4249,339.6189" stroke="#000000" stroke-width="0.24" fill="none" />
  <path d="M318.2909,324.1801 L264.373,302.8689" stroke="#000000" stroke-width="0.24" fill="none" />
  <path d="M101.9617,324.8691 L101.2292,324.247" stroke="#000000" stroke-width="0.24" fill="none" />
  <path d="M138.4249,339.6189 L138.4249,337.4348" stroke="#000000" stroke-width="0.24" fill="none" />
  <path d="M262.4016,306.279 L262.9548,306.4977" stroke="#000000" stroke-width="0.24" fill="none" />
  <path d="M107.9059,327.271 L107.3935,327.3602" stroke="#000000" stroke-width="0.24" fill="none" />
  <path d="M105.052,327.3927 L104.7516,327.274" stroke="#000000" stroke-width="0.24" fill="none" />
  <path d="M136.9458,339.9921 L105.052,327.3927" stroke="#000000" stroke-width="0.24" fill="none" />
  <path d="M139.1455,339.567 L312.6396,327.0938" stroke="#000000" stroke-width="0.24" fill="none" />
  <path d="M262.9293,302.8511 L227.5343,302.4158 L226.6989,302.4055" stroke="#000000" stroke-width="0.24" fill="none" />
  <path d="M227.2581,305.9484 L227.8362,305.8477" stroke="#000000" stroke-width="0.24" fill="none" />
  <path d="M104.7516,327.274 L101.9794,324.8843" stroke="#000000" stroke-width="0.24" fill="none" />
  <path d="M227.5343,282.7588 L226.6989,282.7485" stroke="#000000" stroke-width="0.24" fill="none" />
  <path d="M227.2581,280.4671 L227.8362,280.3665" stroke="#000000" stroke-width="0.24" fill="none" />
  <path d="M104.7516,301.7927 L103.1129,303.1053" stroke="#000000" stroke-width="0.24" fill="none" />
  <path d="M138.4249,337.4348 L307.9646,325.2458" stroke="#000000" stroke-width="0.24" fill="none" />
  <path d="M228.6891,306.2453 L227.6624,306.424" stroke="#000000" stroke-width="0.24" fill="none" />
  <path d="M138.4249,339.6189 L139.1455,339.567" stroke="#000000" stroke-width="0.24" fill="none" />
  <path d="M315.5844,327.2998 L312.6396,327.0938" stroke="#000000" stroke-width="0.24" fill="none" />
  <path d="M315.5844,327.2998 L137.2689,340.1197" stroke="#000000" stroke-width="0.24" fill="none" />
  <path d="M227.8362,305.8477 L229.3247,305.8661" stroke="#000000" stroke-width="0.24" fill="none" />
  <path d="M315.5844,327.2998 L318.2909,324.1801" stroke="#000000" stroke-width="0.24" fill="none" />
  <path d="M137.2689,340.1197 L136.9458,339.9921" stroke="#000000" stroke-width="0.24" fill="none" />
  <path d="M264.373,302.8689 L262.9293,302.8511" stroke="#000000" stroke-width="0.24" fill="none" />
  <path d="M264.373,283.2119 L262.9293,283.1941" stroke="#000000" stroke-width="0.24" fill="none" />
  <path d="M262.3854,280.7914 L262.9548,281.0164" stroke="#000000" stroke-width="0.24" fill="none" />
  <path d="M315.5844,301.8185 L318.2909,304.5231" stroke="#000000" stroke-width="0.24" fill="none" />
  <path d="M224.6059,259.2697 L202.1261,263.1829" stroke="#000000" stroke-width="0.24" fill="none" />
  <path d="M197.9438,263.9109 L166.0542,269.4622" stroke="#000000" stroke-width="0.24" fill="none" />
  <path d="M275.1739,262.7914 L275.1739,285.8461" stroke="#000000" stroke-width="0.24" fill="none" />
  <path d="M228.788,255.6295 L226.6969,255.2655 L224.6057,255.6295" stroke="#000000" stroke-width="0.24" fill="none" />
  <path d="M294.683,270.5025 L294.683,293.5571" stroke="#000000" stroke-width="0.24" fill="none" />
  <path d="M291.9766,270.71 L294.683,270.5025" stroke="#000000" stroke-width="0.24" fill="none" />
  <path d="M276.3659,263.2625 L275.1739,262.7914" stroke="#000000" stroke-width="0.24" fill="none" />
  <path d="M202.1261,260.2708 L200.035,259.9067 L197.9438,260.2708" stroke="#000000" stroke-width="0.24" fill="none" />
  <path d="M118.481,274.8315 L116.3899,274.4675 L114.2987,274.8315 L114.2987,300.1308" stroke="#000000" stroke-width="0.24" fill="none" />
  <path d="M276.3659,263.2625 L276.3659,286.3174" stroke="#000000" stroke-width="0.24" fill="none" />
  <path d="M135.2101,274.8315 L121.2286,277.2654" stroke="#000000" stroke-width="0.24" fill="none" />
  <path d="M255.6648,260.3077 L255.6648,280.7087" stroke="#000000" stroke-width="0.24" fill="none" />
  <path d="M161.8719,270.1902 L139.3923,274.1035" stroke="#000000" stroke-width="0.24" fill="none" />
  <path d="M255.6648,255.0803 L255.6648,260.3077" stroke="#000000" stroke-width="0.24" fill="none" />
  <path d="M252.9584,259.837 L237.1525,257.0856 L237.1525,280.481" stroke="#000000" stroke-width="0.24" fill="none" />
  <path d="M282.8155,275.045 L282.8155,288.8664" stroke="#000000" stroke-width="0.24" fill="none" />
  <path d="M282.8155,275.045 L276.3662,273.9223" stroke="#000000" stroke-width="0.24" fill="none" />
  <path d="M265.9055,262.0908 L256.8568,260.5157" stroke="#000000" stroke-width="0.24" fill="none" />
  <path d="M237.1525,257.0856 L228.788,258.5417" stroke="#000000" stroke-width="0.24" fill="none" />
  <path d="M121.2286,277.2654 L121.2286,298.9244" stroke="#000000" stroke-width="0.24" fill="none" />
  <path d="M252.9583,255.2878 L255.6648,255.0803" stroke="#000000" stroke-width="0.24" fill="none" />
  <path d="M256.8568,255.5515 L255.6648,255.0803" stroke="#000000" stroke-width="0.24" fill="none" />
  <path d="M166.0541,266.55 L163.963,266.186 L161.8719,266.55" stroke="#000000" stroke-width="0.24" fill="none" />
  <path d="M291.9766,270.71 L291.9766,292.4874" stroke="#000000" stroke-width="0.24" fill="none" />
  <path d="M139.3923,271.1913 L137.3011,270.8273 L135.21,271.1913" stroke="#000000" stroke-width="0.24" fill="none" />
  <path d="M295.875,270.9736 L295.875,294.0283" stroke="#000000" stroke-width="0.24" fill="none" />
  <path d="M294.683,270.5025 L295.875,270.9736" stroke="#000000" stroke-width="0.24" fill="none" />
  <path d="M272.4675,262.9989 L275.1739,262.7914" stroke="#000000" stroke-width="0.24" fill="none" />
  <path d="M264.373,297.7726 L318.2909,319.0839" stroke="#000000" stroke-width="0.24" fill="none" />
  <path d="M226.6989,286.3887 L101.2292,308.2302" stroke="#000000" stroke-width="0.24" fill="none" />
</svg>