<?xml version="1.0" encoding="utf-8" standalone="no"?>
<!DOCTYPE svg PUBLIC "-//W3C//DTD SVG 1.1//EN" "http://www.w3.org/Graphics/SVG/1.1/DTD/svg11.dtd">
<svg version="1.1" width="419.52pt" height="595.2pt" viewBox="0 0 419.52 595.2" overflow="visible" xmlns="http://www.w3.org/2000/svg">
  <path d="M211.5896,289.5798 L210.0321,289.8509 L210.0321,295.2734 L211.5896,295.0023 z" stroke="#000000" stroke-width="0.24" fill="none" />
  <path d="M222.2974,291.0145 L220.7399,290.7433 L220.7399,296.1659 L222.2974,296.437 z" stroke="#000000" stroke-width="0.24" fill="none" />
  <path d="M222.2974,313.3824 L220.7399,313.1112 L220.7399,318.5338 L222.2974,318.8049 z" stroke="#000000" stroke-width="0.24" fill="none" />
  <path d="M209.2533,249.6791 L209.2533,339.1507" stroke="#000000" stroke-width="0.24" fill="none" />
  <path d="M230.669,249.6791 L230.669,339.1507" stroke="#000000" stroke-width="0.24" fill="none" />
  <path d="M222.2974,283.5585 L220.7399,283.2874 L220.7399,288.7099 L222.2974,288.981 z" stroke="#000000" stroke-width="0.24" fill="none" />
  <path d="M229.8902,287.3656 L228.3327,287.0945 L228.3327,292.517 L229.8902,292.7881 z" stroke="#000000" stroke-width="0.24" fill="none" />
  <path d="M211.5896,282.1238 L210.0321,282.3949 L210.0321,287.8174 L211.5896,287.5463 z" stroke="#000000" stroke-width="0.24" fill="none" />
  <path d="M222.2974,328.2943 L220.7399,328.0232 L220.7399,333.4457 L222.2974,333.7168 z" stroke="#000000" stroke-width="0.24" fill="none" />
  <path d="M211.5896,326.8596 L210.0321,327.1307 L210.0321,332.5533 L211.5896,332.2821 z" stroke="#000000" stroke-width="0.24" fill="none" />
  <path d="M222.2974,320.8383 L220.7399,320.5672 L220.7399,325.9897 L222.2974,326.2609 z" stroke="#000000" stroke-width="0.24" fill="none" />
  <path d="M229.8902,324.6454 L228.3327,324.3743 L228.3327,329.7968 L229.8902,330.0679 z" stroke="#000000" stroke-width="0.24" fill="none" />
  <path d="M211.5896,304.4917 L210.0321,304.7628 L210.0321,310.1854 L211.5896,309.9142 z" stroke="#000000" stroke-width="0.24" fill="none" />
  <path d="M222.2974,261.1906 L220.7399,260.9195 L220.7399,266.342 L222.2974,266.6131 z" stroke="#000000" stroke-width="0.24" fill="none" />
  <path d="M222.2974,276.1025 L220.7399,275.8314 L220.7399,281.2539 L222.2974,281.5251 z" stroke="#000000" stroke-width="0.24" fill="none" />
  <path d="M211.5896,274.6678 L210.0321,274.939 L210.0321,280.3615 L211.5896,280.0904 z" stroke="#000000" stroke-width="0.24" fill="none" />
  <path d="M211.5896,319.4036 L210.0321,319.6747 L210.0321,325.0973 L211.5896,324.8261 z" stroke="#000000" stroke-width="0.24" fill="none" />
  <path d="M211.5896,259.7559 L210.0321,260.027 L210.0321,265.4496 L211.5896,265.1784 z" stroke="#000000" stroke-width="0.24" fill="none" />
  <path d="M229.8902,317.1894 L228.3327,316.9183 L228.3327,322.3408 L229.8902,322.612 z" stroke="#000000" stroke-width="0.24" fill="none" />
  <path d="M222.2974,298.4705 L220.7399,298.1993 L220.7399,303.6218 L222.2974,303.893 z" stroke="#000000" stroke-width="0.24" fill="none" />
  <path d="M211.5896,252.2999 L210.0321,252.5711 L210.0321,257.9936 L211.5896,257.7225 z" stroke="#000000" stroke-width="0.24" fill="none" />
  <path d="M222.2974,253.7346 L220.7399,253.4635 L220.7399,258.886 L222.2974,259.1572 z" stroke="#000000" stroke-width="0.24" fill="none" />
  <path d="M229.8902,250.0858 L228.3327,249.8146 L228.3327,255.2372 L229.8902,255.5083 z" stroke="#000000" stroke-width="0.24" fill="none" />
  <path d="M229.8902,257.5417 L228.3327,257.2706 L228.3327,262.6931 L229.8902,262.9642 z" stroke="#000000" stroke-width="0.24" fill="none" />
  <path d="M229.8902,264.9977 L228.3327,264.7266 L228.3327,270.1491 L229.8902,270.4202 z" stroke="#000000" stroke-width="0.24" fill="none" />
  <path d="M211.5896,267.2119 L210.0321,267.483 L210.0321,272.9055 L211.5896,272.6344 z" stroke="#000000" stroke-width="0.24" fill="none" />
  <path d="M219.9612,247.8151 L219.9612,337.2867" stroke="#000000" stroke-width="0.24" fill="none" />
  <path d="M229.8902,302.2775 L228.3327,302.0064 L228.3327,307.4289 L229.8902,307.7 z" stroke="#000000" stroke-width="0.24" fill="none" />
  <path d="M229.8902,279.9096 L228.3327,279.6385 L228.3327,285.061 L229.8902,285.3321 z" stroke="#000000" stroke-width="0.24" fill="none" />
  <path d="M222.2974,305.9264 L220.7399,305.6553 L220.7399,311.0778 L222.2974,311.3489 z" stroke="#000000" stroke-width="0.24" fill="none" />
  <path d="M229.8902,309.7335 L228.3327,309.4623 L228.3327,314.8849 L229.8902,315.156 z" stroke="#000000" stroke-width="0.24" fill="none" />
  <path d="M211.5896,311.9477 L210.0321,312.2188 L210.0321,317.6413 L211.5896,317.3702 z" stroke="#000000" stroke-width="0.24" fill="none" />
  <path d="M229.8902,294.8215 L228.3327,294.5504 L228.3327,299.9729 L229.8902,300.244 z" stroke="#000000" stroke-width="0.24" fill="none" />
  <path d="M211.5896,297.0357 L210.0321,297.3069 L210.0321,302.7294 L211.5896,302.4583 z" stroke="#000000" stroke-width="0.24" fill="none" />
  <path d="M219.9612,368.4662 L219.9612,337.2867" stroke="#000000" stroke-width="0.24" fill="none" />
  <path d="M209.2533,355.3911 L209.2533,339.1507" stroke="#000000" stroke-width="0.24" fill="none" />
  <path d="M230.669,355.3911 L230.669,339.1507" stroke="#000000" stroke-width="0.24" fill="none" />
  <path d="M219.9612,337.2867 L230.669,339.1507" stroke="#000000" stroke-width="0.24" fill="none" />
  <path d="M209.2533,355.3911 L219.9612,368.4662 L230.669,355.3911" stroke="#000000" stroke-width="0.24" fill="none" />
  <path d="M209.2533,339.1507 L219.9612,337.2867" stroke="#000000" stroke-width="0.24" fill="none" />
  <path d="M219.9612,247.8151 L230.669,249.6791" stroke="#000000" stroke-width="0.24" fill="none" />
  <path d="M209.2533,249.6791 L219.9612,247.8151" stroke="#000000" stroke-width="0.24" fill="none" />
  <path d="M229.8902,272.4536 L228.3327,272.1825 L228.3327,277.605 L229.8902,277.8762 z" stroke="#000000" stroke-width="0.24" fill="none" />
  <path d="M222.2974,268.6466 L220.7399,268.3755 L220.7399,273.798 L222.2974,274.0691 z" stroke="#000000" stroke-width="0.24" fill="none" />
</svg>