<?xml version="1.0" encoding="utf-8" standalone="no"?>
<!DOCTYPE svg PUBLIC "-//W3C//DTD SVG 1.1//EN" "http://www.w3.org/Graphics/SVG/1.1/DTD/svg11.dtd">
<svg version="1.1" width="419.52pt" height="595.2pt" viewBox="0 0 419.52 595.2" overflow="visible" xmlns="http://www.w3.org/2000/svg">
  <path d="M213.799,266.424 L213.9896,266.5128 L213.5449,265.6549" stroke="#000000" stroke-width="0.24" fill="none" />
  <path d="M221.5189,260.8253 L221.963,261.3661" stroke="#000000" stroke-width="0.24" fill="none" />
  <path d="M234.0106,269.3816 L221.963,264.6197" stroke="#000000" stroke-width="0.24" fill="none" />
  <path d="M221.5189,266.519 L221.963,265.7584" stroke="#000000" stroke-width="0.24" fill="none" />
  <path d="M213.5449,262.076 L213.5449,265.6549" stroke="#000000" stroke-width="0.24" fill="none" />
  <path d="M213.799,260.7304 L213.5449,261.2626" stroke="#000000" stroke-width="0.24" fill="none" />
  <path d="M210.5462,310.7364 L209.9232,310.8448 L209.9232,314.0984 L210.8577,313.9357" stroke="#000000" stroke-width="0.24" fill="none" />
  <path d="M223.7716,256.8497 L223.7716,261.7157" stroke="#000000" stroke-width="0.24" fill="none" />
  <path d="M209.456,268.8475 L209.456,274.6767" stroke="#000000" stroke-width="0.24" fill="none" />
  <path d="M222.3054,268.8475 L222.3054,322.5304" stroke="#000000" stroke-width="0.24" fill="none" />
  <path d="M210.8577,270.42 L209.9232,270.5826 L209.9232,273.8362 L210.8577,273.6735" stroke="#000000" stroke-width="0.24" fill="none" />
  <path d="M213.0772,255.203 L213.0772,260.856" stroke="#000000" stroke-width="0.24" fill="none" />
  <path d="M214.0117,260.733 L214.0117,255.203" stroke="#000000" stroke-width="0.24" fill="none" />
  <path d="M221.8381,295.9329 L220.9036,295.7703 L220.9036,299.0238 L221.8381,299.1864 z" stroke="#000000" stroke-width="0.24" fill="none" />
  <path d="M217.2824,275.7544 L216.3479,275.5917 L216.3479,278.8452 L217.2824,279.0079 z" stroke="#000000" stroke-width="0.24" fill="none" />
  <path d="M221.8381,291.4594 L220.9036,291.2967 L220.9036,294.5502 L221.8381,294.7129 z" stroke="#000000" stroke-width="0.24" fill="none" />
  <path d="M193.1023,258.6802 L193.1023,264.3332" stroke="#000000" stroke-width="0.24" fill="none" />
  <path d="M194.0368,264.1705 L194.0368,258.6802" stroke="#000000" stroke-width="0.24" fill="none" />
  <path d="M207.1198,256.2401 L207.1198,261.8931" stroke="#000000" stroke-width="0.24" fill="none" />
  <path d="M208.0543,261.7304 L208.0543,256.2401" stroke="#000000" stroke-width="0.24" fill="none" />
  <path d="M199.0597,257.6432 L199.0597,263.2961" stroke="#000000" stroke-width="0.24" fill="none" />
  <path d="M199.9942,263.1335 L199.9942,257.6432" stroke="#000000" stroke-width="0.24" fill="none" />
  <path d="M217.2824,280.228 L216.3479,280.0653 L216.3479,283.3188 L217.2824,283.4815 z" stroke="#000000" stroke-width="0.24" fill="none" />
  <path d="M222.3054,256.6468 L222.3054,261.1362" stroke="#000000" stroke-width="0.24" fill="none" />
  <path d="M221.8381,269.0915 L220.9036,268.9288 L220.9036,272.1823 L221.8381,272.345 z" stroke="#000000" stroke-width="0.24" fill="none" />
  <path d="M215.8807,340.1197 L215.8807,321.412" stroke="#000000" stroke-width="0.24" fill="none" />
  <path d="M213.7602,266.5528 L187.0013,271.2109" stroke="#000000" stroke-width="0.24" fill="none" />
  <path d="M221.963,261.3661 L221.963,265.7584" stroke="#000000" stroke-width="0.24" fill="none" />
  <path d="M213.5449,261.2626 L213.5449,262.076" stroke="#000000" stroke-width="0.24" fill="none" />
  <path d="M185.5094,266.143 L185.5094,270.5352" stroke="#000000" stroke-width="0.24" fill="none" />
  <path d="M221.6461,260.8756 L222.1792,261.0863 L222.8396,261.3473 L223.5,261.6084 L224.1604,261.8694 L224.8208,262.1304 L225.4812,262.3914 L226.1416,262.6524 L226.8019,262.9135 L227.4623,263.1745 L228.1227,263.4355 L228.7831,263.6965 L229.4435,263.9576 L230.1039,264.2186 L230.7643,264.4796 L231.4247,264.7406 L232.0851,265.0016 L232.7454,265.2627 L233.4058,265.5237" stroke="#000000" stroke-width="0.24" fill="none" />
  <path d="M221.6404,261.3622 L213.7316,261.2649" stroke="#000000" stroke-width="0.24" fill="none" />
  <path d="M186.3043,265.5166 L213.6699,260.7528" stroke="#000000" stroke-width="0.24" fill="none" />
  <path d="M232.7479,271.1713 L221.1858,266.6013" stroke="#000000" stroke-width="0.24" fill="none" />
  <path d="M234.0106,266.1281 L234.0106,270.5203" stroke="#000000" stroke-width="0.24" fill="none" />
  <path d="M213.5449,261.2626 L185.5094,266.143" stroke="#000000" stroke-width="0.24" fill="none" />
  <path d="M213.799,260.7304 L221.5189,260.8253" stroke="#000000" stroke-width="0.24" fill="none" />
  <path d="M234.0106,266.1281 L221.963,261.3661" stroke="#000000" stroke-width="0.24" fill="none" />
  <path d="M219.4124,255.1267 L219.4124,260.7994" stroke="#000000" stroke-width="0.24" fill="none" />
  <path d="M221.8381,273.565 L220.9036,273.4023 L220.9036,276.6559 L221.8381,276.8185 z" stroke="#000000" stroke-width="0.24" fill="none" />
  <path d="M224.6427,256.9086 L224.6427,262.0601" stroke="#000000" stroke-width="0.24" fill="none" />
  <path d="M217.2824,287.8737 L217.2824,284.7015 L216.3479,284.5388 L216.3479,287.711" stroke="#000000" stroke-width="0.24" fill="none" />
  <path d="M220.2835,255.1856 L220.2835,260.8101" stroke="#000000" stroke-width="0.24" fill="none" />
  <path d="M221.8381,278.0386 L220.9036,277.8759 L220.9036,281.1295 L221.8381,281.2921 z" stroke="#000000" stroke-width="0.24" fill="none" />
  <path d="M210.5462,301.7892 L209.9232,301.8977 L209.9232,305.1512 L210.8577,304.9885" stroke="#000000" stroke-width="0.24" fill="none" />
  <path d="M210.8577,292.7879 L209.9232,292.9505 L209.9232,296.204 L210.8577,296.0414" stroke="#000000" stroke-width="0.24" fill="none" />
  <path d="M221.963,264.6197 L213.5449,264.5161 L185.5094,269.3965" stroke="#000000" stroke-width="0.24" fill="none" />
  <path d="M185.5094,266.9564 L213.5449,262.076 L221.963,262.1795 L234.0106,266.9414" stroke="#000000" stroke-width="0.24" fill="none" />
  <path d="M213.5445,260.7747 L213.5445,255.1217" stroke="#000000" stroke-width="0.24" fill="none" />
  <path d="M209.456,310.5466 L209.456,314.9389" stroke="#000000" stroke-width="0.24" fill="none" />
  <path d="M210.5463,288.3685 L209.9232,288.477 L209.9232,291.7305 L210.8577,291.5678" stroke="#000000" stroke-width="0.24" fill="none" />
  <path d="M215.8807,297.1463 L215.8807,297.5529" stroke="#000000" stroke-width="0.24" fill="none" />
  <path d="M209.456,288.1788 L209.456,297.0446" stroke="#000000" stroke-width="0.24" fill="none" />
  <path d="M215.8807,315.0406 L215.8807,315.4472" stroke="#000000" stroke-width="0.24" fill="none" />
  <path d="M215.8807,274.7784 L215.8807,275.185" stroke="#000000" stroke-width="0.24" fill="none" />
  <path d="M215.8807,279.2519 L215.8807,279.6586" stroke="#000000" stroke-width="0.24" fill="none" />
  <path d="M193.5695,264.2519 L193.5695,258.5989" stroke="#000000" stroke-width="0.24" fill="none" />
  <path d="M207.587,261.8117 L207.587,256.1588" stroke="#000000" stroke-width="0.24" fill="none" />
  <path d="M199.5269,263.2148 L199.5269,257.5618" stroke="#000000" stroke-width="0.24" fill="none" />
  <path d="M188.897,265.0653 L188.897,259.4123" stroke="#000000" stroke-width="0.24" fill="none" />
  <path d="M189.3643,264.9839 L189.3643,259.4936" stroke="#000000" stroke-width="0.24" fill="none" />
  <path d="M222.3054,271.9221 L232.7479,271.1713" stroke="#000000" stroke-width="0.24" fill="none" />
  <path d="M222.3054,271.4341 L231.7032,270.7584" stroke="#000000" stroke-width="0.24" fill="none" />
  <path d="M209.456,272.9392 L193.5623,274.0819" stroke="#000000" stroke-width="0.24" fill="none" />
  <path d="M221.8381,300.4065 L220.9036,300.2438 L220.9036,303.4973 L221.8381,303.66 z" stroke="#000000" stroke-width="0.24" fill="none" />
  <path d="M209.456,301.5995 L209.456,305.9917" stroke="#000000" stroke-width="0.24" fill="none" />
  <path d="M209.456,319.4939 L209.456,322.5304" stroke="#000000" stroke-width="0.24" fill="none" />
  <path d="M215.8807,319.5141 L215.8807,321.412" stroke="#000000" stroke-width="0.24" fill="none" />
  <path d="M223.7717,259.1388 L222.3055,258.8836" stroke="#000000" stroke-width="0.24" fill="none" />
  <path d="M213.0772,256.0164 L208.0543,256.8908" stroke="#000000" stroke-width="0.24" fill="none" />
  <path d="M215.8807,283.7255 L215.8807,284.1322" stroke="#000000" stroke-width="0.24" fill="none" />
  <path d="M217.2824,310.2416 L217.2824,307.0694 L216.3479,306.9067 L216.3479,310.0789" stroke="#000000" stroke-width="0.24" fill="none" />
  <path d="M224.3764,256.8033 L223.7716,256.8497" stroke="#000000" stroke-width="0.24" fill="none" />
  <path d="M215.8807,306.0934 L215.8807,306.5001" stroke="#000000" stroke-width="0.24" fill="none" />
  <path d="M215.8807,267.7291 L215.8807,269.7354" stroke="#000000" stroke-width="0.24" fill="none" />
  <path d="M215.8807,321.412 L222.3054,322.5304" stroke="#000000" stroke-width="0.24" fill="none" />
  <path d="M209.456,322.5304 L215.8807,321.412" stroke="#000000" stroke-width="0.24" fill="none" />
  <path d="M215.8807,267.7291 L222.3054,268.8475" stroke="#000000" stroke-width="0.24" fill="none" />
  <path d="M209.456,268.8475 L215.8807,267.7291" stroke="#000000" stroke-width="0.24" fill="none" />
  <path d="M228.7356,258.5263 L228.7356,263.6777" stroke="#000000" stroke-width="0.24" fill="none" />
  <path d="M229.0019,258.6316 L229.0019,263.783" stroke="#000000" stroke-width="0.24" fill="none" />
  <path d="M214.0117,255.203 L213.5445,255.1217 L213.0772,255.203" stroke="#000000" stroke-width="0.24" fill="none" />
  <path d="M193.1023,259.4936 L189.9782,260.0374" stroke="#000000" stroke-width="0.24" fill="none" />
  <path d="M229.0019,258.6316 L228.7356,258.5263 L228.1308,258.5727" stroke="#000000" stroke-width="0.24" fill="none" />
  <path d="M194.0368,258.6802 L193.5695,258.5989 L193.1023,258.6802" stroke="#000000" stroke-width="0.24" fill="none" />
  <path d="M219.4124,256.1432 L215.8807,255.5284" stroke="#000000" stroke-width="0.24" fill="none" />
  <path d="M207.1198,257.0535 L199.9943,258.2939" stroke="#000000" stroke-width="0.24" fill="none" />
  <path d="M199.0597,258.4565 L194.0368,259.3309" stroke="#000000" stroke-width="0.24" fill="none" />
  <path d="M208.0543,256.2401 L207.587,256.1588 L207.1198,256.2401" stroke="#000000" stroke-width="0.24" fill="none" />
  <path d="M199.9942,257.6432 L199.5269,257.5618 L199.0597,257.6432" stroke="#000000" stroke-width="0.24" fill="none" />
  <path d="M215.8807,255.5284 L215.8807,260.756" stroke="#000000" stroke-width="0.24" fill="none" />
  <path d="M226.0838,259.5413 L226.0838,262.6296" stroke="#000000" stroke-width="0.24" fill="none" />
  <path d="M226.0838,259.5413 L224.6427,259.2905" stroke="#000000" stroke-width="0.24" fill="none" />
  <path d="M222.3054,256.6468 L220.2835,256.2948" stroke="#000000" stroke-width="0.24" fill="none" />
  <path d="M215.8807,255.5284 L214.0117,255.8537" stroke="#000000" stroke-width="0.24" fill="none" />
  <path d="M189.9782,260.0374 L189.9782,264.877" stroke="#000000" stroke-width="0.24" fill="none" />
  <path d="M189.3643,259.4936 L188.897,259.4123 L188.4298,259.4936 L188.4298,265.1466" stroke="#000000" stroke-width="0.24" fill="none" />
  <path d="M193.9816,273.9584 L209.456,272.8459" stroke="#000000" stroke-width="0.24" fill="none" />
  <path d="M186.3043,271.2102 L213.6699,266.4465" stroke="#000000" stroke-width="0.24" fill="none" />
  <path d="M193.8206,273.4819 L209.4561,272.3578" stroke="#000000" stroke-width="0.24" fill="none" />
  <path d="M233.4059,271.2173 L222.3055,272.0154" stroke="#000000" stroke-width="0.24" fill="none" />
  <path d="M213.5449,265.6549 L185.5094,270.5352" stroke="#000000" stroke-width="0.24" fill="none" />
  <path d="M209.456,332.2747 L209.456,322.5304" stroke="#000000" stroke-width="0.24" fill="none" />
  <path d="M222.3054,332.2747 L222.3054,322.5304" stroke="#000000" stroke-width="0.24" fill="none" />
  <path d="M209.456,332.2747 L215.8807,340.1197 L222.3054,332.2747" stroke="#000000" stroke-width="0.24" fill="none" />
  <path d="M185.9304,265.8112 L185.5094,266.143" stroke="#000000" stroke-width="0.24" fill="none" />
  <path d="M221.1771,266.6013 L213.9896,266.5128 L221.5189,266.519 L222.1792,266.78 L222.8396,267.041 L223.5,267.302 L224.1604,267.563 L224.8208,267.824 L225.4812,268.0851 L226.1416,268.3461 L226.8019,268.6071 L227.4623,268.8681 L228.1227,269.1292 L228.7831,269.3902 L229.4435,269.6512 L230.1039,269.9122 L230.7643,270.1732 L231.4247,270.4343 L232.0851,270.6953 L232.7454,270.9563 L233.4058,271.2173" stroke="#000000" stroke-width="0.24" fill="none" />
  <path d="M187.7444,271.0816 L193.8206,273.4819" stroke="#000000" stroke-width="0.24" fill="none" />
  <path d="M186.8868,271.2308 L193.8206,273.97" stroke="#000000" stroke-width="0.24" fill="none" />
  <path d="M234.0106,270.5203 L221.963,265.7584" stroke="#000000" stroke-width="0.24" fill="none" />
  <path d="M185.6731,270.6742 L185.5094,270.5352" stroke="#000000" stroke-width="0.24" fill="none" />
  <path d="M193.8206,273.97 L193.8206,273.4819" stroke="#000000" stroke-width="0.24" fill="none" />
  <path d="M221.5189,266.519 L221.1771,266.6013" stroke="#000000" stroke-width="0.24" fill="none" />
  <path d="M193.4901,274.0533 L186.3636,271.2381" stroke="#000000" stroke-width="0.24" fill="none" />
  <path d="M221.6404,265.7544 L213.7316,265.6572 L213.5449,265.6549" stroke="#000000" stroke-width="0.24" fill="none" />
  <path d="M186.2965,271.2116 L185.6771,270.6776" stroke="#000000" stroke-width="0.24" fill="none" />
  <path d="M213.7316,261.2649 L213.5449,261.2626" stroke="#000000" stroke-width="0.24" fill="none" />
  <path d="M186.2965,265.5179 L185.9304,265.8112" stroke="#000000" stroke-width="0.24" fill="none" />
  <path d="M213.9896,266.5128 L213.7602,266.5528" stroke="#000000" stroke-width="0.24" fill="none" />
  <path d="M233.4059,271.2173 L232.7479,271.1713" stroke="#000000" stroke-width="0.24" fill="none" />
  <path d="M213.799,266.424 L214.1316,266.4281" stroke="#000000" stroke-width="0.24" fill="none" />
  <path d="M233.4059,271.2173 L234.0106,270.5203" stroke="#000000" stroke-width="0.24" fill="none" />
  <path d="M221.963,265.7584 L221.6404,265.7544" stroke="#000000" stroke-width="0.24" fill="none" />
  <path d="M221.963,261.3661 L221.6404,261.3622" stroke="#000000" stroke-width="0.24" fill="none" />
  <path d="M233.4059,265.5237 L234.0106,266.1281" stroke="#000000" stroke-width="0.24" fill="none" />
  <path d="M224.3764,256.8033 L224.3764,261.9548" stroke="#000000" stroke-width="0.24" fill="none" />
  <path d="M228.1308,258.5727 L228.1308,263.4387" stroke="#000000" stroke-width="0.24" fill="none" />
  <path d="M220.0172,255.0803 L220.0172,260.8069" stroke="#000000" stroke-width="0.24" fill="none" />
  <path d="M224.3764,256.8033 L224.6427,256.9086" stroke="#000000" stroke-width="0.24" fill="none" />
  <path d="M221.8381,286.9858 L220.9036,286.8231 L220.9036,290.0766 L221.8381,290.2393 z" stroke="#000000" stroke-width="0.24" fill="none" />
  <path d="M220.0172,255.0803 L220.2835,255.1856" stroke="#000000" stroke-width="0.24" fill="none" />
  <path d="M219.4124,255.1267 L220.0172,255.0803" stroke="#000000" stroke-width="0.24" fill="none" />
  <path d="M221.8381,309.3537 L220.9036,309.191 L220.9036,312.4445 L221.8381,312.6072 z" stroke="#000000" stroke-width="0.24" fill="none" />
  <path d="M221.8381,313.8272 L220.9036,313.6646 L220.9036,316.9181 L221.8381,317.0807 z" stroke="#000000" stroke-width="0.24" fill="none" />
  <path d="M221.8381,282.5122 L220.9036,282.3495 L220.9036,285.603 L221.8381,285.7657 z" stroke="#000000" stroke-width="0.24" fill="none" />
  <path d="M217.2824,301.2944 L217.2824,298.1223 L216.3479,297.9596 L216.3479,301.1318" stroke="#000000" stroke-width="0.24" fill="none" />
  <path d="M221.8381,304.8801 L220.9036,304.7174 L220.9036,307.9709 L221.8381,308.1336 z" stroke="#000000" stroke-width="0.24" fill="none" />
  <path d="M217.2824,316.0166 L216.3479,315.8539 L216.3479,319.1074 L217.2824,319.2701 z" stroke="#000000" stroke-width="0.24" fill="none" />
  <path d="M193.5623,274.0819 L193.8206,273.97" stroke="#000000" stroke-width="0.24" fill="none" />
  <path d="M186.2965,271.2116 L186.8868,271.2308" stroke="#000000" stroke-width="0.24" fill="none" />
</svg>