<?xml version="1.0" encoding="utf-8" standalone="no"?>
<!DOCTYPE svg PUBLIC "-//W3C//DTD SVG 1.1//EN" "http://www.w3.org/Graphics/SVG/1.1/DTD/svg11.dtd">
<svg version="1.1" width="419.52pt" height="595.2pt" viewBox="0 0 419.52 595.2" overflow="visible" xmlns="http://www.w3.org/2000/svg">
  <path d="M186.2965,271.2116 L186.8868,271.2308" stroke="#000000" stroke-width="0.24" fill="none" />
  <path d="M234.0106,269.3816 L221.963,264.6197" stroke="#000000" stroke-width="0.24" fill="none" />
  <path d="M221.5189,266.519 L221.963,265.7584" stroke="#000000" stroke-width="0.24" fill="none" />
  <path d="M213.799,266.424 L213.9896,266.5128 L213.5449,265.6549" stroke="#000000" stroke-width="0.24" fill="none" />
  <path d="M213.5449,262.076 L213.5449,265.6549" stroke="#000000" stroke-width="0.24" fill="none" />
  <path d="M218.6842,288.1177 L218.6842,292.1846" stroke="#000000" stroke-width="0.24" fill="none" />
  <path d="M215.5303,291.6356 L218.6842,292.1846" stroke="#000000" stroke-width="0.24" fill="none" />
  <path d="M210.8578,288.3821 L215.5303,287.5687" stroke="#000000" stroke-width="0.24" fill="none" />
  <path d="M210.8578,288.3821 L210.8578,292.449" stroke="#000000" stroke-width="0.24" fill="none" />
  <path d="M218.6842,301.5385 L218.6842,305.6054" stroke="#000000" stroke-width="0.24" fill="none" />
  <path d="M215.5303,305.0563 L218.6842,305.6054" stroke="#000000" stroke-width="0.24" fill="none" />
  <path d="M215.5303,300.9894 L218.6842,301.5385" stroke="#000000" stroke-width="0.24" fill="none" />
  <path d="M215.5303,300.9894 L215.5303,305.0563" stroke="#000000" stroke-width="0.24" fill="none" />
  <path d="M211.5586,305.7477 L215.5303,305.0563" stroke="#000000" stroke-width="0.24" fill="none" />
  <path d="M210.8578,301.8028 L215.5303,300.9894" stroke="#000000" stroke-width="0.24" fill="none" />
  <path d="M210.8578,301.8028 L210.8578,305.7477" stroke="#000000" stroke-width="0.24" fill="none" />
  <path d="M218.6842,314.5525 L214.7126,315.2439" stroke="#000000" stroke-width="0.24" fill="none" />
  <path d="M215.5303,314.0035 L218.6842,314.5525" stroke="#000000" stroke-width="0.24" fill="none" />
  <path d="M215.5303,309.9366 L218.6842,310.4856" stroke="#000000" stroke-width="0.24" fill="none" />
  <path d="M215.5303,309.9366 L215.5303,314.0035" stroke="#000000" stroke-width="0.24" fill="none" />
  <path d="M210.8578,310.75 L215.5303,309.9366" stroke="#000000" stroke-width="0.24" fill="none" />
  <path d="M210.8578,310.75 L210.8578,314.6949" stroke="#000000" stroke-width="0.24" fill="none" />
  <path d="M203.4986,279.3468 L204.7836,279.1231" stroke="#000000" stroke-width="0.24" fill="none" />
  <path d="M204.6667,283.6171 L203.4986,283.4137" stroke="#000000" stroke-width="0.24" fill="none" />
  <path d="M207.9375,295.8177 L210.8578,296.3261" stroke="#000000" stroke-width="0.24" fill="none" />
  <path d="M207.9375,295.8177 L207.9375,299.8846" stroke="#000000" stroke-width="0.24" fill="none" />
  <path d="M204.7835,300.4337 L207.9375,299.8846" stroke="#000000" stroke-width="0.24" fill="none" />
  <path d="M204.7835,296.3668 L207.9375,295.8177" stroke="#000000" stroke-width="0.24" fill="none" />
  <path d="M204.7835,296.3668 L204.7835,300.4337" stroke="#000000" stroke-width="0.24" fill="none" />
  <path d="M207.1198,297.9935 C207.1576,298.5072 206.7341,299.1707 206.3605,299.183 C205.9868,299.3008 205.5633,298.7847 205.6012,298.2578 C205.5633,297.7441 205.9868,297.0806 206.3605,297.0683 C206.7341,296.9505 207.1576,297.4666 207.1198,297.9935 z" stroke="#000000" stroke-width="0.24" fill="none" />
  <path d="M207.9375,313.712 L210.8578,314.2204" stroke="#000000" stroke-width="0.24" fill="none" />
  <path d="M207.9375,313.712 L207.9375,317.7789" stroke="#000000" stroke-width="0.24" fill="none" />
  <path d="M204.7835,318.328 L207.9375,317.7789" stroke="#000000" stroke-width="0.24" fill="none" />
  <path d="M204.7835,314.2611 L207.9375,313.712" stroke="#000000" stroke-width="0.24" fill="none" />
  <path d="M204.7835,314.2611 L204.7835,318.328" stroke="#000000" stroke-width="0.24" fill="none" />
  <path d="M208.0543,318.8973 L204.7835,318.328" stroke="#000000" stroke-width="0.24" fill="none" />
  <path d="M207.1198,315.8878 C207.1576,316.4015 206.7341,317.0651 206.3605,317.0774 C205.9868,317.1952 205.5633,316.679 205.6012,316.1522 C205.5633,315.6384 205.9868,314.9749 206.3605,314.9626 C206.7341,314.8448 207.1576,315.3609 207.1198,315.8878 z" stroke="#000000" stroke-width="0.24" fill="none" />
  <path d="M228.2628,317.5891 L225.1089,318.1382" stroke="#000000" stroke-width="0.24" fill="none" />
  <path d="M223.7072,316.7961 L228.2628,317.5891" stroke="#000000" stroke-width="0.24" fill="none" />
  <path d="M223.7072,312.7292 L228.2628,313.5222" stroke="#000000" stroke-width="0.24" fill="none" />
  <path d="M227.6787,315.454 C227.7166,315.9809 227.2931,316.497 226.9195,316.3792 C226.5459,316.3669 226.1223,315.7034 226.1602,315.1896 C226.1223,314.6628 226.5459,314.1466 226.9195,314.2644 C227.2931,314.2767 227.7166,314.9403 227.6787,315.454 z" stroke="#000000" stroke-width="0.24" fill="none" />
  <path d="M223.5903,299.2881 L228.2628,300.1015" stroke="#000000" stroke-width="0.24" fill="none" />
  <path d="M223.5903,299.2881 L223.5903,301.7419" stroke="#000000" stroke-width="0.24" fill="none" />
  <path d="M220.9036,299.7558 L223.5903,299.2881" stroke="#000000" stroke-width="0.24" fill="none" />
  <path d="M207.1198,256.2401 L207.1198,261.8931" stroke="#000000" stroke-width="0.24" fill="none" />
  <path d="M208.0543,261.7304 L208.0543,256.2401" stroke="#000000" stroke-width="0.24" fill="none" />
  <path d="M223.5903,285.8674 L228.2628,286.6808" stroke="#000000" stroke-width="0.24" fill="none" />
  <path d="M220.9037,286.3351 L223.5903,285.8674" stroke="#000000" stroke-width="0.24" fill="none" />
  <path d="M209.456,319.4939 L209.456,322.5304" stroke="#000000" stroke-width="0.24" fill="none" />
  <path d="M215.8807,267.7291 L220.4365,268.5221" stroke="#000000" stroke-width="0.24" fill="none" />
  <path d="M223.7072,290.3613 L228.2628,291.1544" stroke="#000000" stroke-width="0.24" fill="none" />
  <path d="M223.5903,281.3938 L228.2628,282.2072" stroke="#000000" stroke-width="0.24" fill="none" />
  <path d="M223.5903,281.3938 L223.5903,285.4607" stroke="#000000" stroke-width="0.24" fill="none" />
  <path d="M220.9037,281.8615 L223.5903,281.3938" stroke="#000000" stroke-width="0.24" fill="none" />
  <path d="M228.2628,268.7865 L228.2628,272.8534" stroke="#000000" stroke-width="0.24" fill="none" />
  <path d="M223.5903,267.9731 L228.2628,268.7865" stroke="#000000" stroke-width="0.24" fill="none" />
  <path d="M220.4364,268.5221 L223.5903,267.9731" stroke="#000000" stroke-width="0.24" fill="none" />
  <path d="M227.6787,270.7182 C227.7166,271.2451 227.2931,271.7612 226.9195,271.6434 C226.5459,271.6311 226.1223,270.9676 226.1602,270.4539 C226.1223,269.927 226.5459,269.4109 226.9195,269.5287 C227.2931,269.5409 227.7166,270.2045 227.6787,270.7182 z" stroke="#000000" stroke-width="0.24" fill="none" />
  <path d="M208.0543,287.9347 L211.2082,287.3857" stroke="#000000" stroke-width="0.24" fill="none" />
  <path d="M208.0543,283.8678 L211.2082,283.3188" stroke="#000000" stroke-width="0.24" fill="none" />
  <path d="M208.0543,283.8678 L208.0543,287.9347" stroke="#000000" stroke-width="0.24" fill="none" />
  <path d="M210.8578,288.4228 L208.0543,287.9347" stroke="#000000" stroke-width="0.24" fill="none" />
  <path d="M222.3054,256.6468 L222.3054,261.1362" stroke="#000000" stroke-width="0.24" fill="none" />
  <path d="M213.0772,255.203 L213.0772,260.856" stroke="#000000" stroke-width="0.24" fill="none" />
  <path d="M211.2082,282.9121 L213.0772,283.2375" stroke="#000000" stroke-width="0.24" fill="none" />
  <path d="M211.2082,278.8452 L211.2082,282.9121" stroke="#000000" stroke-width="0.24" fill="none" />
  <path d="M208.0543,283.4612 L211.2082,282.9121" stroke="#000000" stroke-width="0.24" fill="none" />
  <path d="M208.0543,279.3943 L211.2082,278.8452" stroke="#000000" stroke-width="0.24" fill="none" />
  <path d="M208.0543,279.3943 L208.0543,283.4612" stroke="#000000" stroke-width="0.24" fill="none" />
  <path d="M209.2224,283.6645 L208.0543,283.4612" stroke="#000000" stroke-width="0.24" fill="none" />
  <path d="M207.9375,282.397 L207.9375,286.4639" stroke="#000000" stroke-width="0.24" fill="none" />
  <path d="M204.7835,282.946 L207.9375,282.397" stroke="#000000" stroke-width="0.24" fill="none" />
  <path d="M204.7835,282.946 L204.7835,287.0129" stroke="#000000" stroke-width="0.24" fill="none" />
  <path d="M207.9375,295.411 L210.8578,295.9194" stroke="#000000" stroke-width="0.24" fill="none" />
  <path d="M207.9375,291.3441 L210.8578,291.8525" stroke="#000000" stroke-width="0.24" fill="none" />
  <path d="M207.9375,291.3441 L207.9375,295.411" stroke="#000000" stroke-width="0.24" fill="none" />
  <path d="M204.7835,295.9601 L207.9375,295.411" stroke="#000000" stroke-width="0.24" fill="none" />
  <path d="M204.7835,291.8932 L207.9375,291.3441" stroke="#000000" stroke-width="0.24" fill="none" />
  <path d="M204.7835,291.8932 L204.7835,295.9601" stroke="#000000" stroke-width="0.24" fill="none" />
  <path d="M205.9517,296.1634 L204.7835,295.9601" stroke="#000000" stroke-width="0.24" fill="none" />
  <path d="M207.1198,293.5199 C207.1576,294.0336 206.7341,294.6972 206.3605,294.7095 C205.9868,294.8273 205.5633,294.3112 205.6012,293.7842 C205.5633,293.2705 205.9868,292.607 206.3605,292.5947 C206.7341,292.4769 207.1576,292.993 207.1198,293.5199 z" stroke="#000000" stroke-width="0.24" fill="none" />
  <path d="M207.9375,313.3054 L210.8578,313.8137" stroke="#000000" stroke-width="0.24" fill="none" />
  <path d="M207.9375,309.2385 L207.9375,313.3054" stroke="#000000" stroke-width="0.24" fill="none" />
  <path d="M204.7835,313.8544 L207.9375,313.3054" stroke="#000000" stroke-width="0.24" fill="none" />
  <path d="M204.7835,309.7875 L207.9375,309.2385" stroke="#000000" stroke-width="0.24" fill="none" />
  <path d="M204.7835,309.7875 L204.7835,313.8544" stroke="#000000" stroke-width="0.24" fill="none" />
  <path d="M207.1198,311.4142 C207.1576,311.9279 206.7341,312.5915 206.3605,312.6038 C205.9868,312.7216 205.5633,312.2055 205.6012,311.6786 C205.5633,311.1649 205.9868,310.5013 206.3605,310.489 C206.7341,310.3712 207.1576,310.8873 207.1198,311.4142 z" stroke="#000000" stroke-width="0.24" fill="none" />
  <path d="M203.4986,306.1883 L204.7835,305.9646" stroke="#000000" stroke-width="0.24" fill="none" />
  <path d="M203.4986,283.8204 L204.7836,283.5967" stroke="#000000" stroke-width="0.24" fill="none" />
  <path d="M218.6842,270.2234 L218.6842,274.2903" stroke="#000000" stroke-width="0.24" fill="none" />
  <path d="M215.5303,269.6744 L218.6842,270.2234" stroke="#000000" stroke-width="0.24" fill="none" />
  <path d="M215.5303,269.6744 L215.5303,273.7413" stroke="#000000" stroke-width="0.24" fill="none" />
  <path d="M211.5587,274.4326 L215.5303,273.7413" stroke="#000000" stroke-width="0.24" fill="none" />
  <path d="M210.8578,270.4878 L215.5303,269.6744" stroke="#000000" stroke-width="0.24" fill="none" />
  <path d="M210.8578,270.4878 L210.8578,274.4327" stroke="#000000" stroke-width="0.24" fill="none" />
  <path d="M217.8665,272.1145 C217.9044,272.6414 217.4808,273.1575 217.1072,273.0397 C216.7336,273.0274 216.3101,272.3639 216.3479,271.8502 C216.3101,271.3232 216.7336,270.8072 217.1072,270.9249 C217.4808,270.9372 217.9044,271.6008 217.8665,272.1145 z" stroke="#000000" stroke-width="0.24" fill="none" />
  <path d="M203.4986,288.294 L204.7836,288.0703" stroke="#000000" stroke-width="0.24" fill="none" />
  <path d="M213.7602,266.5528 L187.0013,271.2109" stroke="#000000" stroke-width="0.24" fill="none" />
  <path d="M221.963,261.3661 L221.963,265.7584" stroke="#000000" stroke-width="0.24" fill="none" />
  <path d="M213.5449,261.2626 L213.5449,262.076" stroke="#000000" stroke-width="0.24" fill="none" />
  <path d="M185.5094,266.143 L185.5094,270.5352" stroke="#000000" stroke-width="0.24" fill="none" />
  <path d="M221.6461,260.8756 L222.1792,261.0863 L222.8396,261.3473 L223.5,261.6084 L224.1604,261.8694 L224.8208,262.1304 L225.4812,262.3914 L226.1416,262.6524 L226.8019,262.9135 L227.4623,263.1745 L228.1227,263.4355 L228.7831,263.6965 L229.4435,263.9576 L230.1039,264.2186 L230.7643,264.4796 L231.4247,264.7406 L232.0851,265.0016 L232.7454,265.2627 L233.4058,265.5237" stroke="#000000" stroke-width="0.24" fill="none" />
  <path d="M221.6404,261.3622 L213.7316,261.2649" stroke="#000000" stroke-width="0.24" fill="none" />
  <path d="M186.3043,265.5166 L213.6699,260.7528" stroke="#000000" stroke-width="0.24" fill="none" />
  <path d="M232.7479,271.1713 L228.2628,269.3986" stroke="#000000" stroke-width="0.24" fill="none" />
  <path d="M234.0106,266.1281 L234.0106,270.5203" stroke="#000000" stroke-width="0.24" fill="none" />
  <path d="M213.5449,261.2626 L185.5094,266.143" stroke="#000000" stroke-width="0.24" fill="none" />
  <path d="M213.799,260.7304 L221.5189,260.8253" stroke="#000000" stroke-width="0.24" fill="none" />
  <path d="M234.0106,266.1281 L221.963,261.3661" stroke="#000000" stroke-width="0.24" fill="none" />
  <path d="M207.9375,273.4498 L210.8578,273.9582" stroke="#000000" stroke-width="0.24" fill="none" />
  <path d="M204.7835,273.9989 L207.9375,273.4498" stroke="#000000" stroke-width="0.24" fill="none" />
  <path d="M204.7835,273.9989 L204.7835,278.0657" stroke="#000000" stroke-width="0.24" fill="none" />
  <path d="M207.9375,273.0431 L210.8578,273.5515" stroke="#000000" stroke-width="0.24" fill="none" />
  <path d="M207.9375,268.9763 L212.61,269.7896" stroke="#000000" stroke-width="0.24" fill="none" />
  <path d="M204.7835,269.5253 L204.7835,273.5922" stroke="#000000" stroke-width="0.24" fill="none" />
  <path d="M207.9375,304.7649 L210.8578,305.2733" stroke="#000000" stroke-width="0.24" fill="none" />
  <path d="M207.9375,304.7649 L207.9375,308.8318" stroke="#000000" stroke-width="0.24" fill="none" />
  <path d="M204.7835,309.3808 L207.9375,308.8318" stroke="#000000" stroke-width="0.24" fill="none" />
  <path d="M204.7835,305.3139 L207.9375,304.7649" stroke="#000000" stroke-width="0.24" fill="none" />
  <path d="M204.7835,305.3139 L204.7835,309.3808" stroke="#000000" stroke-width="0.24" fill="none" />
  <path d="M207.1198,306.9406 C207.1576,307.4543 206.7341,308.1179 206.3605,308.1302 C205.9868,308.248 205.5633,307.7319 205.6012,307.205 C205.5633,306.6913 205.9868,306.0277 206.3605,306.0154 C206.7341,305.8976 207.1576,306.4137 207.1198,306.9406 z" stroke="#000000" stroke-width="0.24" fill="none" />
  <path d="M211.2082,318.7007 L215.8807,319.5141" stroke="#000000" stroke-width="0.24" fill="none" />
  <path d="M211.2082,314.6339 L215.8807,315.4472" stroke="#000000" stroke-width="0.24" fill="none" />
  <path d="M211.2082,314.6339 L211.2082,318.7007" stroke="#000000" stroke-width="0.24" fill="none" />
  <path d="M208.0543,319.2498 L211.2082,318.7007" stroke="#000000" stroke-width="0.24" fill="none" />
  <path d="M208.0543,315.1829 L211.2082,314.6339" stroke="#000000" stroke-width="0.24" fill="none" />
  <path d="M208.0543,315.1829 L208.0543,319.2498" stroke="#000000" stroke-width="0.24" fill="none" />
  <path d="M212.7268,320.0632 L208.0543,319.2498" stroke="#000000" stroke-width="0.24" fill="none" />
  <path d="M211.2082,274.3716 L213.0771,274.697" stroke="#000000" stroke-width="0.24" fill="none" />
  <path d="M211.2082,274.3716 L211.2082,278.4385" stroke="#000000" stroke-width="0.24" fill="none" />
  <path d="M208.0543,278.9876 L211.2082,278.4385" stroke="#000000" stroke-width="0.24" fill="none" />
  <path d="M208.0543,274.9207 L211.2082,274.3716" stroke="#000000" stroke-width="0.24" fill="none" />
  <path d="M208.0543,274.9207 L208.0543,278.9876" stroke="#000000" stroke-width="0.24" fill="none" />
  <path d="M210.3905,276.5474 C210.4284,277.0611 210.0048,277.7247 209.6312,277.737 C209.2576,277.8548 208.8341,277.3387 208.8719,276.8118 C208.8341,276.298 209.2576,275.6345 209.6312,275.6222 C210.0048,275.5044 210.4284,276.0205 210.3905,276.5474 z" stroke="#000000" stroke-width="0.24" fill="none" />
  <path d="M224.6427,256.9086 L224.6427,262.0601" stroke="#000000" stroke-width="0.24" fill="none" />
  <path d="M207.9375,304.3582 L210.8578,304.8665" stroke="#000000" stroke-width="0.24" fill="none" />
  <path d="M207.9375,300.2913 L207.9375,304.3582" stroke="#000000" stroke-width="0.24" fill="none" />
  <path d="M204.7835,300.8403 L207.9375,300.2913" stroke="#000000" stroke-width="0.24" fill="none" />
  <path d="M204.7835,300.8403 L204.7835,304.9072" stroke="#000000" stroke-width="0.24" fill="none" />
  <path d="M207.9375,290.9374 L210.8578,291.4458" stroke="#000000" stroke-width="0.24" fill="none" />
  <path d="M207.9375,286.8706 L207.9375,290.9374" stroke="#000000" stroke-width="0.24" fill="none" />
  <path d="M204.7835,291.4865 L207.9375,290.9374" stroke="#000000" stroke-width="0.24" fill="none" />
  <path d="M204.7835,287.4196 L207.9375,286.8706" stroke="#000000" stroke-width="0.24" fill="none" />
  <path d="M204.7835,287.4196 L204.7835,291.4865" stroke="#000000" stroke-width="0.24" fill="none" />
  <path d="M207.1198,289.0463 C207.1576,289.56 206.7341,290.2236 206.3605,290.2359 C205.9868,290.3537 205.5633,289.8376 205.6012,289.3107 C205.5633,288.797 205.9868,288.1334 206.3605,288.1211 C206.7341,288.0033 207.1576,288.5194 207.1198,289.0463 z" stroke="#000000" stroke-width="0.24" fill="none" />
  <path d="M223.7072,272.467 L228.2628,273.26" stroke="#000000" stroke-width="0.24" fill="none" />
  <path d="M220.9037,276.9812 L223.5903,276.5135" stroke="#000000" stroke-width="0.24" fill="none" />
  <path d="M199.5269,263.2148 L199.5269,257.5618 L199.0597,263.2961" stroke="#000000" stroke-width="0.24" fill="none" />
  <path d="M199.9942,263.1335 L199.9942,257.6432" stroke="#000000" stroke-width="0.24" fill="none" />
  <path d="M193.5695,264.2519 L193.5695,258.5989 L193.1023,264.3332" stroke="#000000" stroke-width="0.24" fill="none" />
  <path d="M194.0368,264.1705 L194.0368,258.6802" stroke="#000000" stroke-width="0.24" fill="none" />
  <path d="M211.2082,305.6867 L213.0772,306.0121" stroke="#000000" stroke-width="0.24" fill="none" />
  <path d="M211.2082,305.6867 L211.2082,309.7536" stroke="#000000" stroke-width="0.24" fill="none" />
  <path d="M208.0543,310.3026 L211.2082,309.7536" stroke="#000000" stroke-width="0.24" fill="none" />
  <path d="M208.0543,306.2357 L211.2082,305.6867" stroke="#000000" stroke-width="0.24" fill="none" />
  <path d="M208.0543,306.2357 L208.0543,310.3026" stroke="#000000" stroke-width="0.24" fill="none" />
  <path d="M210.3905,307.8625 C210.4284,308.3762 210.0048,309.0397 209.6312,309.052 C209.2576,309.1698 208.8341,308.6537 208.8719,308.1268 C208.8341,307.6131 209.2576,306.9496 209.6312,306.9373 C210.0048,306.8195 210.4284,307.3356 210.3905,307.8625 z" stroke="#000000" stroke-width="0.24" fill="none" />
  <path d="M215.8807,340.1197 L215.8807,321.412" stroke="#000000" stroke-width="0.24" fill="none" />
  <path d="M223.7072,303.7821 L228.2628,304.5751" stroke="#000000" stroke-width="0.24" fill="none" />
  <path d="M220.9037,308.2963 L223.5903,307.8286 L228.2628,309.0487" stroke="#000000" stroke-width="0.24" fill="none" />
  <path d="M220.9036,308.703 L223.5903,308.2353" stroke="#000000" stroke-width="0.24" fill="none" />
  <path d="M223.7072,294.8349 L228.2628,295.6279" stroke="#000000" stroke-width="0.24" fill="none" />
  <path d="M220.9036,299.3492 L223.5903,298.8814" stroke="#000000" stroke-width="0.24" fill="none" />
  <path d="M218.6842,292.5913 L218.6842,296.6582" stroke="#000000" stroke-width="0.24" fill="none" />
  <path d="M215.5303,296.1092 L218.6842,296.6582" stroke="#000000" stroke-width="0.24" fill="none" />
  <path d="M215.5303,292.0423 L218.6842,292.5913" stroke="#000000" stroke-width="0.24" fill="none" />
  <path d="M215.5303,292.0423 L215.5303,296.1092" stroke="#000000" stroke-width="0.24" fill="none" />
  <path d="M211.5586,296.8006 L215.5303,296.1092" stroke="#000000" stroke-width="0.24" fill="none" />
  <path d="M210.8578,292.8557 L215.5303,292.0423" stroke="#000000" stroke-width="0.24" fill="none" />
  <path d="M210.8578,292.8557 L210.8578,296.8006" stroke="#000000" stroke-width="0.24" fill="none" />
  <path d="M207.9375,277.9234 L207.9375,281.9903" stroke="#000000" stroke-width="0.24" fill="none" />
  <path d="M204.7835,282.5393 L207.9375,281.9903" stroke="#000000" stroke-width="0.24" fill="none" />
  <path d="M204.7835,278.4724 L207.9375,277.9234" stroke="#000000" stroke-width="0.24" fill="none" />
  <path d="M204.7835,278.4724 L204.7835,282.5393" stroke="#000000" stroke-width="0.24" fill="none" />
  <path d="M207.1198,280.0992 C207.1576,280.6129 206.7341,281.2764 206.3605,281.2887 C205.9868,281.4065 205.5633,280.8904 205.6012,280.3635 C205.5633,279.8498 205.9868,279.1862 206.3605,279.174 C206.7341,279.0562 207.1576,279.5723 207.1198,280.0992 z" stroke="#000000" stroke-width="0.24" fill="none" />
  <path d="M223.5903,276.9202 L228.2628,277.7336" stroke="#000000" stroke-width="0.24" fill="none" />
  <path d="M220.9037,281.4548 L223.5903,280.9871" stroke="#000000" stroke-width="0.24" fill="none" />
  <path d="M220.9036,277.3879 L223.5903,276.9202" stroke="#000000" stroke-width="0.24" fill="none" />
  <path d="M203.4986,315.1354 L204.7835,314.9118" stroke="#000000" stroke-width="0.24" fill="none" />
  <path d="M203.4986,270.3997 L203.4986,274.4666" stroke="#000000" stroke-width="0.24" fill="none" />
  <path d="M203.4986,310.6619 L204.7835,310.4382" stroke="#000000" stroke-width="0.24" fill="none" />
  <path d="M204.6668,314.9321 L203.4986,314.7288" stroke="#000000" stroke-width="0.24" fill="none" />
  <path d="M203.4986,297.2411 L204.7835,297.0175" stroke="#000000" stroke-width="0.24" fill="none" />
  <path d="M211.2082,300.8064 L213.0771,301.1318" stroke="#000000" stroke-width="0.24" fill="none" />
  <path d="M211.2082,296.7396 L213.0772,297.0649" stroke="#000000" stroke-width="0.24" fill="none" />
  <path d="M211.2082,296.7396 L211.2082,300.8064" stroke="#000000" stroke-width="0.24" fill="none" />
  <path d="M208.0543,301.3555 L211.2082,300.8064" stroke="#000000" stroke-width="0.24" fill="none" />
  <path d="M208.0543,297.2886 L211.2082,296.7396" stroke="#000000" stroke-width="0.24" fill="none" />
  <path d="M208.0543,297.2886 L208.0543,301.3555" stroke="#000000" stroke-width="0.24" fill="none" />
  <path d="M210.8578,301.8435 L208.0543,301.3555" stroke="#000000" stroke-width="0.24" fill="none" />
  <path d="M203.4986,292.7675 L204.7835,292.5439" stroke="#000000" stroke-width="0.24" fill="none" />
  <path d="M203.4986,274.8732 L204.7835,274.6496" stroke="#000000" stroke-width="0.24" fill="none" />
  <path d="M219.4124,255.1267 L219.4124,260.7994" stroke="#000000" stroke-width="0.24" fill="none" />
  <path d="M220.2835,255.1856 L220.2835,260.8101" stroke="#000000" stroke-width="0.24" fill="none" />
  <path d="M224.3764,256.8033 L224.3764,261.9548" stroke="#000000" stroke-width="0.24" fill="none" />
  <path d="M223.7716,256.8497 L223.7716,261.7157" stroke="#000000" stroke-width="0.24" fill="none" />
  <path d="M221.963,264.6197 L213.5449,264.5161 L185.5094,269.3965" stroke="#000000" stroke-width="0.24" fill="none" />
  <path d="M185.5094,266.9564 L213.5449,262.076 L221.963,262.1795 L234.0106,266.9414" stroke="#000000" stroke-width="0.24" fill="none" />
  <path d="M203.4986,301.7147 L204.7836,301.491" stroke="#000000" stroke-width="0.24" fill="none" />
  <path d="M212.0259,292.6523 L210.8578,292.449" stroke="#000000" stroke-width="0.24" fill="none" />
  <path d="M207.587,261.8117 L207.587,256.1588" stroke="#000000" stroke-width="0.24" fill="none" />
  <path d="M223.5903,292.4286 L223.5903,292.7947" stroke="#000000" stroke-width="0.24" fill="none" />
  <path d="M214.0117,260.733 L214.0117,255.203" stroke="#000000" stroke-width="0.24" fill="none" />
  <path d="M205.9517,287.2162 L204.7835,287.0129" stroke="#000000" stroke-width="0.24" fill="none" />
  <path d="M204.6667,292.5642 L203.4986,292.3609" stroke="#000000" stroke-width="0.24" fill="none" />
  <path d="M199.0597,258.4565 L194.0368,259.3309" stroke="#000000" stroke-width="0.24" fill="none" />
  <path d="M193.1023,259.4936 L189.9782,260.0374" stroke="#000000" stroke-width="0.24" fill="none" />
  <path d="M211.5586,314.6949 L215.5303,314.0035" stroke="#000000" stroke-width="0.24" fill="none" />
  <path d="M204.7835,282.1326 C204.4967,282.0332 204.3033,281.6081 204.3162,281.2379 C204.3033,280.8722 204.4967,280.3798 204.7835,280.1805" stroke="#000000" stroke-width="0.24" fill="none" />
  <path d="M205.9516,300.637 L204.7835,300.4337" stroke="#000000" stroke-width="0.24" fill="none" />
  <path d="M223.5903,314.7965 L223.5903,315.1626" stroke="#000000" stroke-width="0.24" fill="none" />
  <path d="M223.7072,303.3754 L228.2628,304.1684" stroke="#000000" stroke-width="0.24" fill="none" />
  <path d="M223.7072,289.9546 L228.2628,290.7477" stroke="#000000" stroke-width="0.24" fill="none" />
  <path d="M220.4364,283.5832 L220.4364,283.8272" stroke="#000000" stroke-width="0.24" fill="none" />
  <path d="M213.5445,260.7747 L213.5445,255.1217" stroke="#000000" stroke-width="0.24" fill="none" />
  <path d="M223.7717,259.1388 L222.3055,258.8836" stroke="#000000" stroke-width="0.24" fill="none" />
  <path d="M204.6667,310.4585 L203.4986,310.2552" stroke="#000000" stroke-width="0.24" fill="none" />
  <path d="M204.7835,286.6062 C204.4967,286.5068 204.3033,286.0817 204.3162,285.7115 C204.3033,285.3458 204.4967,284.8534 204.7835,284.6541" stroke="#000000" stroke-width="0.24" fill="none" />
  <path d="M204.7835,308.9741 C204.4967,308.8747 204.3033,308.4496 204.3162,308.0794 C204.3033,307.7137 204.4967,307.2213 204.7835,307.022" stroke="#000000" stroke-width="0.24" fill="none" />
  <path d="M204.7835,291.0798 C204.4967,290.9803 204.3033,290.5552 204.3162,290.1851 C204.3033,289.8194 204.4967,289.327 204.7835,289.1277" stroke="#000000" stroke-width="0.24" fill="none" />
  <path d="M225.4953,268.3047 L221.1858,266.6013" stroke="#000000" stroke-width="0.24" fill="none" />
  <path d="M209.2224,279.1909 L208.0543,278.9876" stroke="#000000" stroke-width="0.24" fill="none" />
  <path d="M205.9516,309.5841 L204.7835,309.3808" stroke="#000000" stroke-width="0.24" fill="none" />
  <path d="M204.6667,305.985 L203.4986,305.7816" stroke="#000000" stroke-width="0.24" fill="none" />
  <path d="M209.4561,319.792 L208.1711,320.0157" stroke="#000000" stroke-width="0.24" fill="none" />
  <path d="M228.2628,271.4938 L232.7479,271.1713" stroke="#000000" stroke-width="0.24" fill="none" />
  <path d="M228.2629,271.0057 L231.7032,270.7584" stroke="#000000" stroke-width="0.24" fill="none" />
  <path d="M228.2628,269.1845 L228.7831,269.3902 L229.4435,269.6512 L230.1039,269.9122 L230.7643,270.1732 L231.4247,270.4343 L232.0851,270.6953 L232.7454,270.9563 L233.4058,271.2173" stroke="#000000" stroke-width="0.24" fill="none" />
  <path d="M205.9517,291.6898 L204.7835,291.4865" stroke="#000000" stroke-width="0.24" fill="none" />
  <path d="M223.5903,274.5343 L223.5903,276.5135" stroke="#000000" stroke-width="0.24" fill="none" />
  <path d="M204.6667,279.1435 L203.4986,278.9401" stroke="#000000" stroke-width="0.24" fill="none" />
  <path d="M210.8578,310.7906 L208.0543,310.3026" stroke="#000000" stroke-width="0.24" fill="none" />
  <path d="M223.5903,296.9023 L223.5903,298.8814" stroke="#000000" stroke-width="0.24" fill="none" />
  <path d="M221.6045,299.6338 L220.9037,299.5118" stroke="#000000" stroke-width="0.24" fill="none" />
  <path d="M205.9517,282.7427 L204.7835,282.5393" stroke="#000000" stroke-width="0.24" fill="none" />
  <path d="M221.6046,281.7395 L220.9036,281.6175" stroke="#000000" stroke-width="0.24" fill="none" />
  <path d="M220.4364,279.1096 L220.4364,279.3536" stroke="#000000" stroke-width="0.24" fill="none" />
  <path d="M204.7835,317.9213 C204.4967,317.8218 204.3033,317.3967 204.3162,317.0265 C204.3033,316.6608 204.4967,316.1684 204.7835,315.9691" stroke="#000000" stroke-width="0.24" fill="none" />
  <path d="M204.7835,313.4477 C204.4967,313.3483 204.3033,312.9232 204.3162,312.5529 C204.3033,312.1873 204.4967,311.6948 204.7835,311.4955" stroke="#000000" stroke-width="0.24" fill="none" />
  <path d="M204.7836,300.0269 C204.4968,299.9276 204.3033,299.5024 204.3162,299.1322 C204.3033,298.7665 204.4967,298.2741 204.7835,298.0748" stroke="#000000" stroke-width="0.24" fill="none" />
  <path d="M204.7835,295.5533 C204.4967,295.4539 204.3033,295.0288 204.3162,294.6586 C204.3033,294.2929 204.4967,293.8005 204.7835,293.6012" stroke="#000000" stroke-width="0.24" fill="none" />
  <path d="M225.1089,318.1382 L226.9779,318.4635" stroke="#000000" stroke-width="0.24" fill="none" />
  <path d="M226.9779,317.8128 L226.9779,318.4635" stroke="#000000" stroke-width="0.24" fill="none" />
  <path d="M218.6842,292.1846 L217.5161,292.388" stroke="#000000" stroke-width="0.24" fill="none" />
  <path d="M215.5303,287.5687 L218.6842,288.1177" stroke="#000000" stroke-width="0.24" fill="none" />
  <path d="M215.5303,287.5687 L215.5303,291.6356" stroke="#000000" stroke-width="0.24" fill="none" />
  <path d="M210.8578,292.449 L215.5303,291.6356" stroke="#000000" stroke-width="0.24" fill="none" />
  <path d="M218.6842,305.6054 L217.8665,305.7477" stroke="#000000" stroke-width="0.24" fill="none" />
  <path d="M223.5903,285.8674 L223.5903,288.3211" stroke="#000000" stroke-width="0.24" fill="none" />
  <path d="M220.9037,285.9284 L223.5903,285.4607" stroke="#000000" stroke-width="0.24" fill="none" />
  <path d="M210.3905,285.4946 C210.4284,286.0083 210.0048,286.6718 209.6312,286.6841 C209.2576,286.8019 208.8341,286.2858 208.8719,285.7589 C208.8341,285.2452 209.2576,284.5816 209.6312,284.5694 C210.0048,284.4516 210.4284,284.9677 210.3905,285.4946 z" stroke="#000000" stroke-width="0.24" fill="none" />
  <path d="M210.3905,281.021 C210.4284,281.5347 210.0048,282.1983 209.6312,282.2106 C209.2576,282.3283 208.8341,281.8123 208.8719,281.2853 C208.8341,280.7716 209.2576,280.1081 209.6312,280.0958 C210.0048,279.978 210.4284,280.4941 210.3905,281.021 z" stroke="#000000" stroke-width="0.24" fill="none" />
  <path d="M207.1198,284.5728 C207.1576,285.0865 206.7341,285.75 206.3605,285.7623 C205.9868,285.8801 205.5633,285.364 205.6012,284.8371 C205.5633,284.3234 205.9868,283.6598 206.3605,283.6475 C206.7341,283.5298 207.1576,284.0458 207.1198,284.5728 z" stroke="#000000" stroke-width="0.24" fill="none" />
  <path d="M215.5303,273.7413 L218.6842,274.2903" stroke="#000000" stroke-width="0.24" fill="none" />
  <path d="M223.7072,294.4282 L228.2628,295.2213" stroke="#000000" stroke-width="0.24" fill="none" />
  <path d="M221.6045,286.2131 L220.9037,286.0911" stroke="#000000" stroke-width="0.24" fill="none" />
  <path d="M207.1198,257.0535 L199.9942,258.2939" stroke="#000000" stroke-width="0.24" fill="none" />
  <path d="M219.4124,256.1432 L215.8807,255.5284" stroke="#000000" stroke-width="0.24" fill="none" />
  <path d="M205.9517,314.0577 L204.7835,313.8544" stroke="#000000" stroke-width="0.24" fill="none" />
  <path d="M209.456,268.8475 L209.456,269.2406" stroke="#000000" stroke-width="0.24" fill="none" />
  <path d="M222.3054,319.4938 L222.3054,322.5304" stroke="#000000" stroke-width="0.24" fill="none" />
  <path d="M215.8807,315.0406 L215.8807,315.4472" stroke="#000000" stroke-width="0.24" fill="none" />
  <path d="M215.8807,319.5141 L215.8807,321.412" stroke="#000000" stroke-width="0.24" fill="none" />
  <path d="M217.8665,290.0088 C217.9044,290.5357 217.4808,291.0518 217.1072,290.9341 C216.7336,290.9218 216.3101,290.2582 216.3479,289.7445 C216.3101,289.2176 216.7336,288.7015 217.1072,288.8192 C217.4808,288.8315 217.9044,289.4951 217.8665,290.0088 z" stroke="#000000" stroke-width="0.24" fill="none" />
  <path d="M217.8665,303.4296 C217.9044,303.9565 217.4808,304.4726 217.1072,304.3548 C216.7336,304.3425 216.3101,303.6789 216.3479,303.1652 C216.3101,302.6383 216.7336,302.1222 217.1072,302.24 C217.4808,302.2523 217.9044,302.9158 217.8665,303.4296 z" stroke="#000000" stroke-width="0.24" fill="none" />
  <path d="M218.6842,310.4856 L218.6842,314.5525" stroke="#000000" stroke-width="0.24" fill="none" />
  <path d="M217.8665,312.3767 C217.9044,312.9036 217.4808,313.4197 217.1072,313.3019 C216.7336,313.2896 216.3101,312.6261 216.3479,312.1124 C216.3101,311.5855 216.7336,311.0694 217.1072,311.1872 C217.4808,311.1994 217.9044,311.863 217.8665,312.3767 z" stroke="#000000" stroke-width="0.24" fill="none" />
  <path d="M203.4986,283.4137 L204.7835,283.19" stroke="#000000" stroke-width="0.24" fill="none" />
  <path d="M203.4986,279.3468 L203.4986,283.4137" stroke="#000000" stroke-width="0.24" fill="none" />
  <path d="M225.1089,318.1382 L223.7072,317.8942" stroke="#000000" stroke-width="0.24" fill="none" />
  <path d="M228.2628,313.5222 L228.2628,317.5891" stroke="#000000" stroke-width="0.24" fill="none" />
  <path d="M228.2628,304.1684 L227.0947,304.3717" stroke="#000000" stroke-width="0.24" fill="none" />
  <path d="M228.2628,300.1015 L228.2628,304.1684" stroke="#000000" stroke-width="0.24" fill="none" />
  <path d="M227.6787,302.0333 C227.7166,302.5602 227.2931,303.0763 226.9195,302.9585 C226.5459,302.9462 226.1223,302.2826 226.1602,301.7689 C226.1223,301.242 226.5459,300.7259 226.9195,300.8437 C227.2931,300.856 227.7166,301.5195 227.6787,302.0333 z" stroke="#000000" stroke-width="0.24" fill="none" />
  <path d="M208.0543,256.2401 L207.587,256.1588 L207.1198,256.2401" stroke="#000000" stroke-width="0.24" fill="none" />
  <path d="M220.0172,255.0803 L219.4124,255.1267" stroke="#000000" stroke-width="0.24" fill="none" />
  <path d="M228.2628,290.7477 L227.0948,290.951" stroke="#000000" stroke-width="0.24" fill="none" />
  <path d="M228.2628,286.6808 L228.2628,290.7477" stroke="#000000" stroke-width="0.24" fill="none" />
  <path d="M227.6787,288.6125 C227.7166,289.1394 227.2931,289.6555 226.9195,289.5378 C226.5459,289.5255 226.1223,288.8619 226.1602,288.3482 C226.1223,287.8213 226.5459,287.3052 226.9195,287.4229 C227.2931,287.4352 227.7166,288.0988 227.6787,288.6125 z" stroke="#000000" stroke-width="0.24" fill="none" />
  <path d="M215.8807,267.7291 L215.8807,269.7354" stroke="#000000" stroke-width="0.24" fill="none" />
  <path d="M215.8807,321.412 L222.3054,322.5304" stroke="#000000" stroke-width="0.24" fill="none" />
  <path d="M209.456,322.5304 L215.8807,321.412" stroke="#000000" stroke-width="0.24" fill="none" />
  <path d="M209.456,268.8475 L215.8807,267.7291" stroke="#000000" stroke-width="0.24" fill="none" />
  <path d="M211.2082,287.3857 L213.0772,287.7111" stroke="#000000" stroke-width="0.24" fill="none" />
  <path d="M211.2082,283.3188 L213.0772,283.6442" stroke="#000000" stroke-width="0.24" fill="none" />
  <path d="M211.2082,283.3188 L211.2082,287.3857" stroke="#000000" stroke-width="0.24" fill="none" />
  <path d="M218.6842,274.2903 L217.8665,274.4326" stroke="#000000" stroke-width="0.24" fill="none" />
  <path d="M223.7072,272.0603 L228.2628,272.8534" stroke="#000000" stroke-width="0.24" fill="none" />
  <path d="M228.2628,295.2213 L227.0947,295.4246" stroke="#000000" stroke-width="0.24" fill="none" />
  <path d="M228.2628,291.1544 L228.2628,295.2213" stroke="#000000" stroke-width="0.24" fill="none" />
  <path d="M227.6787,293.0861 C227.7166,293.613 227.2931,294.1291 226.9195,294.0113 C226.5459,293.999 226.1223,293.3355 226.1602,292.8217 C226.1223,292.2949 226.5459,291.7787 226.9195,291.8965 C227.2931,291.9088 227.7166,292.5724 227.6787,293.0861 z" stroke="#000000" stroke-width="0.24" fill="none" />
  <path d="M223.5903,285.4607 L228.2628,286.2741 L227.0947,286.4774" stroke="#000000" stroke-width="0.24" fill="none" />
  <path d="M228.2628,282.2072 L228.2628,286.2741" stroke="#000000" stroke-width="0.24" fill="none" />
  <path d="M227.6787,284.1389 C227.7166,284.6658 227.2931,285.1819 226.9195,285.0641 C226.5459,285.0519 226.1223,284.3883 226.1602,283.8746 C226.1223,283.3477 226.5459,282.8316 226.9195,282.9494 C227.2931,282.9617 227.7166,283.6252 227.6787,284.1389 z" stroke="#000000" stroke-width="0.24" fill="none" />
  <path d="M228.2628,272.8534 L227.0947,273.0567" stroke="#000000" stroke-width="0.24" fill="none" />
  <path d="M223.5903,267.9731 L223.5903,270.4268" stroke="#000000" stroke-width="0.24" fill="none" />
  <path d="M220.4364,268.5221 L220.4364,269.9184" stroke="#000000" stroke-width="0.24" fill="none" />
  <path d="M213.0773,256.0164 L208.0543,256.8908" stroke="#000000" stroke-width="0.24" fill="none" />
  <path d="M215.8807,255.5284 L215.8807,260.756" stroke="#000000" stroke-width="0.24" fill="none" />
  <path d="M226.0838,259.5413 L226.0838,262.6296" stroke="#000000" stroke-width="0.24" fill="none" />
  <path d="M226.0838,259.5413 L224.6427,259.2905" stroke="#000000" stroke-width="0.24" fill="none" />
  <path d="M222.3054,256.6468 L220.2835,256.2948" stroke="#000000" stroke-width="0.24" fill="none" />
  <path d="M215.8807,255.5284 L214.0117,255.8537" stroke="#000000" stroke-width="0.24" fill="none" />
  <path d="M189.9782,260.0374 L189.9782,264.877" stroke="#000000" stroke-width="0.24" fill="none" />
  <path d="M214.0117,255.203 L213.5445,255.1217 L213.0772,255.203" stroke="#000000" stroke-width="0.24" fill="none" />
  <path d="M211.2082,278.8452 L213.0773,279.1706" stroke="#000000" stroke-width="0.24" fill="none" />
  <path d="M204.7835,287.0129 L207.9375,286.4639" stroke="#000000" stroke-width="0.24" fill="none" />
  <path d="M204.6667,288.0906 L203.4986,287.8873" stroke="#000000" stroke-width="0.24" fill="none" />
  <path d="M203.4986,310.2552 L204.7835,310.0315" stroke="#000000" stroke-width="0.24" fill="none" />
  <path d="M203.4986,306.1883 L203.4986,310.2552" stroke="#000000" stroke-width="0.24" fill="none" />
  <path d="M203.4986,287.8873 L204.7836,287.6636" stroke="#000000" stroke-width="0.24" fill="none" />
  <path d="M203.4986,283.8204 L203.4986,287.8873" stroke="#000000" stroke-width="0.24" fill="none" />
  <path d="M203.4986,292.3609 L204.7835,292.1372" stroke="#000000" stroke-width="0.24" fill="none" />
  <path d="M203.4986,288.294 L203.4986,292.3609" stroke="#000000" stroke-width="0.24" fill="none" />
  <path d="M186.3043,271.2102 L213.6699,266.4465" stroke="#000000" stroke-width="0.24" fill="none" />
  <path d="M213.5449,265.6549 L185.5094,270.5352" stroke="#000000" stroke-width="0.24" fill="none" />
  <path d="M207.9375,273.4498 L207.9375,277.5167" stroke="#000000" stroke-width="0.24" fill="none" />
  <path d="M204.7835,278.0657 L207.9375,277.5167" stroke="#000000" stroke-width="0.24" fill="none" />
  <path d="M207.1198,275.6256 C207.1576,276.1393 206.7341,276.8029 206.3605,276.8152 C205.9868,276.933 205.5633,276.4168 205.6012,275.8899 C205.5633,275.3762 205.9868,274.7126 206.3605,274.7004 C206.7341,274.5826 207.1576,275.0987 207.1198,275.6256 z" stroke="#000000" stroke-width="0.24" fill="none" />
  <path d="M207.9375,268.9763 L207.9375,273.0431" stroke="#000000" stroke-width="0.24" fill="none" />
  <path d="M204.7835,273.5922 L207.9375,273.0431" stroke="#000000" stroke-width="0.24" fill="none" />
  <path d="M212.61,269.7896 L212.61,270.1828" stroke="#000000" stroke-width="0.24" fill="none" />
  <path d="M207.1198,271.152 C207.1576,271.6657 206.7341,272.3293 206.3605,272.3416 C205.9868,272.4594 205.5633,271.9433 205.6012,271.4164 C205.5633,270.9026 205.9868,270.2391 206.3605,270.2268 C206.7341,270.109 207.1576,270.6251 207.1198,271.152 z" stroke="#000000" stroke-width="0.24" fill="none" />
  <path d="M210.3905,316.8096 C210.4284,317.3233 210.0048,317.9869 209.6312,317.9992 C209.2576,318.117 208.8341,317.6009 208.8719,317.074 C208.8341,316.5603 209.2576,315.8967 209.6312,315.8844 C210.0048,315.7666 210.4284,316.2827 210.3905,316.8096 z" stroke="#000000" stroke-width="0.24" fill="none" />
  <path d="M204.7835,304.9072 L207.9375,304.3582" stroke="#000000" stroke-width="0.24" fill="none" />
  <path d="M207.1198,302.4671 C207.1576,302.9808 206.7341,303.6443 206.3605,303.6566 C205.9868,303.7744 205.5633,303.2583 205.6012,302.7314 C205.5633,302.2177 205.9868,301.5541 206.3605,301.5418 C206.7341,301.424 207.1576,301.9402 207.1198,302.4671 z" stroke="#000000" stroke-width="0.24" fill="none" />
  <path d="M211.2082,309.7536 L213.0773,310.0789" stroke="#000000" stroke-width="0.24" fill="none" />
  <path d="M223.5903,276.9202 L223.5903,280.9871" stroke="#000000" stroke-width="0.24" fill="none" />
  <path d="M204.7835,273.1855 C204.4967,273.0861 204.3033,272.6609 204.3162,272.2907 C204.3033,271.925 204.4967,271.4326 204.7835,271.2333" stroke="#000000" stroke-width="0.24" fill="none" />
  <path d="M205.9516,278.2691 L204.7835,278.0657" stroke="#000000" stroke-width="0.24" fill="none" />
  <path d="M203.4987,273.3675 L193.5623,274.0819" stroke="#000000" stroke-width="0.24" fill="none" />
  <path d="M221.6046,277.2659 L220.9037,277.1439" stroke="#000000" stroke-width="0.24" fill="none" />
  <path d="M223.7072,312.3225 L228.2628,313.1156" stroke="#000000" stroke-width="0.24" fill="none" />
  <path d="M204.7835,277.6591 C204.4967,277.5596 204.3033,277.1345 204.3162,276.7643 C204.3033,276.3986 204.4967,275.9062 204.7835,275.7069" stroke="#000000" stroke-width="0.24" fill="none" />
  <path d="M188.897,265.0653 L188.897,259.4123" stroke="#000000" stroke-width="0.24" fill="none" />
  <path d="M189.3643,264.9839 L189.3643,259.4936" stroke="#000000" stroke-width="0.24" fill="none" />
  <path d="M204.7836,304.5005 C204.4968,304.4011 204.3033,303.976 204.3162,303.6058 C204.3033,303.2401 204.4967,302.7477 204.7835,302.5484" stroke="#000000" stroke-width="0.24" fill="none" />
  <path d="M211.2082,278.4385 L213.0772,278.7639" stroke="#000000" stroke-width="0.24" fill="none" />
  <path d="M205.9517,305.1106 L204.7835,304.9072" stroke="#000000" stroke-width="0.24" fill="none" />
  <path d="M205.9516,273.7955 L204.7835,273.5922" stroke="#000000" stroke-width="0.24" fill="none" />
  <path d="M185.9304,265.8112 L185.5094,266.143" stroke="#000000" stroke-width="0.24" fill="none" />
  <path d="M221.1771,266.6013 L213.9896,266.5128 L221.5189,266.519 L222.1792,266.78 L222.8396,267.041 L223.5,267.302 L224.1604,267.563 L224.8208,267.824 L225.4812,268.0851 L226.1416,268.3461 L226.463,268.4731" stroke="#000000" stroke-width="0.24" fill="none" />
  <path d="M187.7444,271.0816 L193.8206,273.4819" stroke="#000000" stroke-width="0.24" fill="none" />
  <path d="M186.8868,271.2308 L193.8206,273.97" stroke="#000000" stroke-width="0.24" fill="none" />
  <path d="M234.0106,270.5203 L221.963,265.7584" stroke="#000000" stroke-width="0.24" fill="none" />
  <path d="M185.6731,270.6742 L185.5094,270.5352" stroke="#000000" stroke-width="0.24" fill="none" />
  <path d="M193.8206,273.97 L193.8206,273.4819" stroke="#000000" stroke-width="0.24" fill="none" />
  <path d="M221.5189,266.519 L221.1771,266.6013" stroke="#000000" stroke-width="0.24" fill="none" />
  <path d="M193.4901,274.0533 L186.3636,271.2381" stroke="#000000" stroke-width="0.24" fill="none" />
  <path d="M193.9816,273.9584 L203.4986,273.2742" stroke="#000000" stroke-width="0.24" fill="none" />
  <path d="M221.6404,265.7544 L213.7316,265.6572 L213.5449,265.6549" stroke="#000000" stroke-width="0.24" fill="none" />
  <path d="M186.2965,271.2116 L185.6771,270.6776" stroke="#000000" stroke-width="0.24" fill="none" />
  <path d="M213.7316,261.2649 L213.5449,261.2626" stroke="#000000" stroke-width="0.24" fill="none" />
  <path d="M213.6699,260.7528 L213.5449,261.2626" stroke="#000000" stroke-width="0.24" fill="none" />
  <path d="M186.2965,265.5179 L185.9304,265.8112" stroke="#000000" stroke-width="0.24" fill="none" />
  <path d="M193.8206,273.4819 L203.4986,272.7861" stroke="#000000" stroke-width="0.24" fill="none" />
  <path d="M213.9896,266.5128 L213.7602,266.5528" stroke="#000000" stroke-width="0.24" fill="none" />
  <path d="M233.4059,271.2173 L232.7479,271.1713" stroke="#000000" stroke-width="0.24" fill="none" />
  <path d="M233.4059,271.2173 L228.2629,271.5871" stroke="#000000" stroke-width="0.24" fill="none" />
  <path d="M213.799,266.424 L214.1316,266.4281" stroke="#000000" stroke-width="0.24" fill="none" />
  <path d="M233.4059,271.2173 L234.0106,270.5203" stroke="#000000" stroke-width="0.24" fill="none" />
  <path d="M221.963,265.7584 L221.6404,265.7544" stroke="#000000" stroke-width="0.24" fill="none" />
  <path d="M221.963,261.3661 L221.6404,261.3622" stroke="#000000" stroke-width="0.24" fill="none" />
  <path d="M233.4059,265.5237 L234.0106,266.1281" stroke="#000000" stroke-width="0.24" fill="none" />
  <path d="M204.7835,269.5253 L207.9375,268.9763" stroke="#000000" stroke-width="0.24" fill="none" />
  <path d="M215.8807,315.4472 L215.8807,319.5141 L212.7268,320.0632" stroke="#000000" stroke-width="0.24" fill="none" />
  <path d="M223.5903,276.5135 L228.2628,277.3269 L227.0948,277.5303" stroke="#000000" stroke-width="0.24" fill="none" />
  <path d="M228.2628,273.26 L228.2628,277.3269" stroke="#000000" stroke-width="0.24" fill="none" />
  <path d="M227.6787,275.1918 C227.7166,275.7187 227.2931,276.2348 226.9195,276.117 C226.5459,276.1047 226.1223,275.4412 226.1602,274.9274 C226.1223,274.4005 226.5459,273.8844 226.9195,274.0022 C227.2931,274.0145 227.7166,274.6781 227.6787,275.1918 z" stroke="#000000" stroke-width="0.24" fill="none" />
  <path d="M223.5903,305.8494 L223.5903,307.8286" stroke="#000000" stroke-width="0.24" fill="none" />
  <path d="M199.9942,257.6432 L199.5269,257.5618 L199.0597,257.6432" stroke="#000000" stroke-width="0.24" fill="none" />
  <path d="M194.0368,258.6802 L193.5695,258.5989 L193.1023,258.6802" stroke="#000000" stroke-width="0.24" fill="none" />
  <path d="M209.456,332.2747 L209.456,322.5304" stroke="#000000" stroke-width="0.24" fill="none" />
  <path d="M222.3054,332.2747 L222.3054,322.5304" stroke="#000000" stroke-width="0.24" fill="none" />
  <path d="M209.456,332.2747 L215.8807,340.1197 L222.3054,332.2747" stroke="#000000" stroke-width="0.24" fill="none" />
  <path d="M223.5903,308.2353 L223.5903,310.689" stroke="#000000" stroke-width="0.24" fill="none" />
  <path d="M221.6045,308.581 L220.9037,308.459" stroke="#000000" stroke-width="0.24" fill="none" />
  <path d="M223.5903,307.8286 L228.2628,308.642 L227.0947,308.8453" stroke="#000000" stroke-width="0.24" fill="none" />
  <path d="M228.2628,304.5751 L228.2628,308.642" stroke="#000000" stroke-width="0.24" fill="none" />
  <path d="M227.6787,306.5068 C227.7166,307.0338 227.2931,307.5498 226.9195,307.4321 C226.5459,307.4198 226.1223,306.7562 226.1602,306.2425 C226.1223,305.7156 226.5459,305.1995 226.9195,305.3173 C227.2931,305.3296 227.7166,305.9931 227.6787,306.5068 z" stroke="#000000" stroke-width="0.24" fill="none" />
  <path d="M228.2628,313.1156 L227.0947,313.3189" stroke="#000000" stroke-width="0.24" fill="none" />
  <path d="M228.2628,309.0487 L228.2628,313.1156" stroke="#000000" stroke-width="0.24" fill="none" />
  <path d="M227.6787,310.9804 C227.7166,311.5073 227.2931,312.0234 226.9195,311.9056 C226.5459,311.8933 226.1223,311.2298 226.1602,310.7161 C226.1223,310.1892 226.5459,309.6731 226.9195,309.7909 C227.2931,309.8031 227.7166,310.4667 227.6787,310.9804 z" stroke="#000000" stroke-width="0.24" fill="none" />
  <path d="M223.5903,298.8814 L228.2628,299.6948 L227.0947,299.8982" stroke="#000000" stroke-width="0.24" fill="none" />
  <path d="M228.2628,295.6279 L228.2628,299.6948" stroke="#000000" stroke-width="0.24" fill="none" />
  <path d="M227.6787,297.5597 C227.7166,298.0866 227.2931,298.6027 226.9195,298.4849 C226.5459,298.4726 226.1223,297.8091 226.1602,297.2953 C226.1223,296.7684 226.5459,296.2523 226.9195,296.3701 C227.2931,296.3824 227.7166,297.046 227.6787,297.5597 z" stroke="#000000" stroke-width="0.24" fill="none" />
  <path d="M218.6842,296.6582 L217.8666,296.8005" stroke="#000000" stroke-width="0.24" fill="none" />
  <path d="M217.8665,294.4824 C217.9044,295.0093 217.4808,295.5254 217.1072,295.4076 C216.7336,295.3953 216.3101,294.7318 216.3479,294.218 C216.3101,293.6912 216.7336,293.175 217.1072,293.2928 C217.4808,293.3051 217.9044,293.9687 217.8665,294.4824 z" stroke="#000000" stroke-width="0.24" fill="none" />
  <path d="M224.3764,256.8033 L224.6427,256.9086" stroke="#000000" stroke-width="0.24" fill="none" />
  <path d="M223.5903,280.9871 L228.2628,281.8005 L227.0947,282.0038" stroke="#000000" stroke-width="0.24" fill="none" />
  <path d="M228.2628,277.7336 L228.2628,281.8005" stroke="#000000" stroke-width="0.24" fill="none" />
  <path d="M227.6787,279.6654 C227.7166,280.1923 227.2931,280.7084 226.9195,280.5906 C226.5459,280.5783 226.1223,279.9147 226.1602,279.401 C226.1223,278.8741 226.5459,278.358 226.9195,278.4758 C227.2931,278.4881 227.7166,279.1516 227.6787,279.6654 z" stroke="#000000" stroke-width="0.24" fill="none" />
  <path d="M228.1308,258.5727 L228.1308,263.4387" stroke="#000000" stroke-width="0.24" fill="none" />
  <path d="M228.7356,258.5263 L228.1308,258.5727" stroke="#000000" stroke-width="0.24" fill="none" />
  <path d="M229.0019,258.6316 L229.0019,263.783" stroke="#000000" stroke-width="0.24" fill="none" />
  <path d="M204.6667,274.6699 L203.4986,274.4666" stroke="#000000" stroke-width="0.24" fill="none" />
  <path d="M204.6667,301.5114 L203.4986,301.308" stroke="#000000" stroke-width="0.24" fill="none" />
  <path d="M204.6668,297.0378 L203.4986,296.8344" stroke="#000000" stroke-width="0.24" fill="none" />
  <path d="M203.4986,319.2023 L206.6525,318.6533" stroke="#000000" stroke-width="0.24" fill="none" />
  <path d="M203.4986,315.1354 L203.4986,319.2023" stroke="#000000" stroke-width="0.24" fill="none" />
  <path d="M208.1711,320.0157 L203.4986,319.2023" stroke="#000000" stroke-width="0.24" fill="none" />
  <path d="M203.4986,274.4666 L204.7836,274.2429" stroke="#000000" stroke-width="0.24" fill="none" />
  <path d="M203.4986,270.3997 L204.7835,270.176" stroke="#000000" stroke-width="0.24" fill="none" />
  <path d="M203.4986,314.7288 L204.7836,314.5051" stroke="#000000" stroke-width="0.24" fill="none" />
  <path d="M203.4986,310.6619 L203.4986,314.7288" stroke="#000000" stroke-width="0.24" fill="none" />
  <path d="M228.7356,258.5263 L228.7356,263.6777" stroke="#000000" stroke-width="0.24" fill="none" />
  <path d="M228.7356,258.5263 L229.0019,258.6316" stroke="#000000" stroke-width="0.24" fill="none" />
  <path d="M203.4986,301.308 L204.7835,301.0844" stroke="#000000" stroke-width="0.24" fill="none" />
  <path d="M203.4986,297.2411 L203.4986,301.308" stroke="#000000" stroke-width="0.24" fill="none" />
  <path d="M210.3905,298.9153 C210.4284,299.429 210.0048,300.0926 209.6312,300.1049 C209.2576,300.2227 208.8341,299.7066 208.8719,299.1797 C208.8341,298.666 209.2576,298.0024 209.6312,297.9901 C210.0048,297.8723 210.4284,298.3884 210.3905,298.9153 z" stroke="#000000" stroke-width="0.24" fill="none" />
  <path d="M203.4986,296.8344 L204.7835,296.6107" stroke="#000000" stroke-width="0.24" fill="none" />
  <path d="M203.4986,292.7675 L203.4986,296.8344" stroke="#000000" stroke-width="0.24" fill="none" />
  <path d="M203.4986,278.9401 L204.7835,278.7165" stroke="#000000" stroke-width="0.24" fill="none" />
  <path d="M203.4986,274.8732 L203.4986,278.9401" stroke="#000000" stroke-width="0.24" fill="none" />
  <path d="M220.0172,255.0803 L220.0172,260.8069" stroke="#000000" stroke-width="0.24" fill="none" />
  <path d="M220.0172,255.0803 L220.2835,255.1856" stroke="#000000" stroke-width="0.24" fill="none" />
  <path d="M223.7716,256.8497 L224.3764,256.8033" stroke="#000000" stroke-width="0.24" fill="none" />
  <path d="M189.3643,259.4936 L188.897,259.4123 L188.4298,259.4936 L188.4298,265.1466" stroke="#000000" stroke-width="0.24" fill="none" />
  <path d="M203.4986,305.7816 L204.7835,305.5579" stroke="#000000" stroke-width="0.24" fill="none" />
  <path d="M203.4986,301.7147 L203.4986,305.7816" stroke="#000000" stroke-width="0.24" fill="none" />
  <path d="M226.9779,318.4635 L223.824,319.0125" stroke="#000000" stroke-width="0.24" fill="none" />
  <path d="M193.5623,274.0819 L193.8206,273.97" stroke="#000000" stroke-width="0.24" fill="none" />
  <path d="M221.5189,260.8253 L221.963,261.3661" stroke="#000000" stroke-width="0.24" fill="none" />
</svg>