<?xml version="1.0" encoding="utf-8" standalone="no"?>
<!DOCTYPE svg PUBLIC "-//W3C//DTD SVG 1.1//EN" "http://www.w3.org/Graphics/SVG/1.1/DTD/svg11.dtd">
<svg version="1.1" width="419.52pt" height="595.2pt" viewBox="0 0 419.52 595.2" overflow="visible" xmlns="http://www.w3.org/2000/svg">
  <path d="M199.0597,303.5719 L202.2136,303.0229" stroke="#000000" stroke-width="0.24" fill="none" />
  <path d="M199.0597,299.505 L202.2136,298.956" stroke="#000000" stroke-width="0.24" fill="none" />
  <path d="M199.0597,299.505 L199.0597,303.5719" stroke="#000000" stroke-width="0.24" fill="none" />
  <path d="M199.0597,299.0984 L202.2136,298.5493" stroke="#000000" stroke-width="0.24" fill="none" />
  <path d="M199.0597,295.0315 L202.2136,294.4824" stroke="#000000" stroke-width="0.24" fill="none" />
  <path d="M199.0597,295.0315 L199.0597,299.0984" stroke="#000000" stroke-width="0.24" fill="none" />
  <path d="M200.2279,299.3017 L199.0597,299.0984" stroke="#000000" stroke-width="0.24" fill="none" />
  <path d="M202.2136,276.5881 L202.2136,280.655" stroke="#000000" stroke-width="0.24" fill="none" />
  <path d="M199.0597,281.204 L202.2136,280.655" stroke="#000000" stroke-width="0.24" fill="none" />
  <path d="M199.0597,277.1371 L202.2136,276.5881" stroke="#000000" stroke-width="0.24" fill="none" />
  <path d="M199.0597,277.1371 L199.0597,281.204" stroke="#000000" stroke-width="0.24" fill="none" />
  <path d="M202.2136,285.5353 L202.2136,289.6022" stroke="#000000" stroke-width="0.24" fill="none" />
  <path d="M199.0597,290.1512 L202.2136,289.6022" stroke="#000000" stroke-width="0.24" fill="none" />
  <path d="M199.0597,286.0843 L202.2136,285.5353" stroke="#000000" stroke-width="0.24" fill="none" />
  <path d="M199.0597,286.0843 L199.0597,290.1512" stroke="#000000" stroke-width="0.24" fill="none" />
  <path d="M202.2136,281.0617 L202.2136,285.1286" stroke="#000000" stroke-width="0.24" fill="none" />
  <path d="M199.0597,285.6776 L202.2136,285.1286" stroke="#000000" stroke-width="0.24" fill="none" />
  <path d="M199.0597,281.6107 L202.2136,281.0617" stroke="#000000" stroke-width="0.24" fill="none" />
  <path d="M199.0597,272.6636 L202.2136,272.1145" stroke="#000000" stroke-width="0.24" fill="none" />
  <path d="M202.2136,303.4296 L202.2136,307.4965" stroke="#000000" stroke-width="0.24" fill="none" />
  <path d="M199.0597,303.9786 L202.2136,303.4296" stroke="#000000" stroke-width="0.24" fill="none" />
  <path d="M199.0597,308.4522 L202.2136,307.9032" stroke="#000000" stroke-width="0.24" fill="none" />
  <path d="M203.4986,313.2918 L199.0597,312.5191" stroke="#000000" stroke-width="0.24" fill="none" />
  <path d="M200.2279,281.4074 L199.0597,281.204" stroke="#000000" stroke-width="0.24" fill="none" />
  <path d="M200.2279,303.7753 L199.0597,303.5719" stroke="#000000" stroke-width="0.24" fill="none" />
  <path d="M200.2279,285.881 L199.0597,285.6776" stroke="#000000" stroke-width="0.24" fill="none" />
  <path d="M200.2278,276.9338 L199.0597,276.7304" stroke="#000000" stroke-width="0.24" fill="none" />
  <path d="M202.2136,290.0089 L203.4986,290.2325" stroke="#000000" stroke-width="0.24" fill="none" />
  <path d="M202.2136,290.0089 L202.2136,294.0757" stroke="#000000" stroke-width="0.24" fill="none" />
  <path d="M200.2278,290.3545 L199.0597,290.1512" stroke="#000000" stroke-width="0.24" fill="none" />
  <path d="M202.2136,298.956 L203.4986,299.1797" stroke="#000000" stroke-width="0.24" fill="none" />
  <path d="M202.2136,294.4824 L203.4987,294.7061" stroke="#000000" stroke-width="0.24" fill="none" />
  <path d="M202.2136,298.956 L202.2136,303.0229" stroke="#000000" stroke-width="0.24" fill="none" />
  <path d="M202.2136,294.4824 L202.2136,298.5493" stroke="#000000" stroke-width="0.24" fill="none" />
  <path d="M200.2279,294.8281 L199.0597,294.6248" stroke="#000000" stroke-width="0.24" fill="none" />
  <path d="M202.2136,294.0757 L203.4986,294.2994" stroke="#000000" stroke-width="0.24" fill="none" />
  <path d="M199.0597,290.5579 L199.0597,294.6248" stroke="#000000" stroke-width="0.24" fill="none" />
  <path d="M201.3959,292.1846 C201.4338,292.6983 201.0103,293.3619 200.6366,293.3742 C200.263,293.492 199.8395,292.9759 199.8774,292.4489 C199.8395,291.9352 200.263,291.2717 200.6366,291.2594 C201.0103,291.1416 201.4338,291.6577 201.3959,292.1846 z" stroke="#000000" stroke-width="0.24" fill="none" />
  <path d="M202.2136,303.0229 L203.4986,303.2466" stroke="#000000" stroke-width="0.24" fill="none" />
  <path d="M201.3959,301.1318 C201.4338,301.6455 201.0103,302.3091 200.6366,302.3213 C200.263,302.4391 199.8395,301.923 199.8774,301.3961 C199.8395,300.8824 200.263,300.2188 200.6366,300.2065 C201.0103,300.0888 201.4338,300.6049 201.3959,301.1318 z" stroke="#000000" stroke-width="0.24" fill="none" />
  <path d="M202.2136,298.5493 L203.4986,298.773" stroke="#000000" stroke-width="0.24" fill="none" />
  <path d="M201.3959,296.6582 C201.4338,297.1719 201.0103,297.8354 200.6366,297.8477 C200.263,297.9655 199.8395,297.4494 199.8774,296.9225 C199.8395,296.4088 200.263,295.7453 200.6366,295.733 C201.0103,295.6152 201.4338,296.1313 201.3959,296.6582 z" stroke="#000000" stroke-width="0.24" fill="none" />
  <path d="M202.2136,280.655 L203.4986,280.8787" stroke="#000000" stroke-width="0.24" fill="none" />
  <path d="M202.2136,276.5881 L203.4986,276.8118" stroke="#000000" stroke-width="0.24" fill="none" />
  <path d="M201.3959,278.7639 C201.4338,279.2776 201.0103,279.9411 200.6366,279.9534 C200.263,280.0712 199.8395,279.5551 199.8774,279.0282 C199.8395,278.5145 200.263,277.851 200.6366,277.8387 C201.0103,277.7209 201.4338,278.237 201.3959,278.7639 z" stroke="#000000" stroke-width="0.24" fill="none" />
  <path d="M202.2136,289.6022 L203.4986,289.8258" stroke="#000000" stroke-width="0.24" fill="none" />
  <path d="M202.2136,285.5353 L203.4986,285.7589" stroke="#000000" stroke-width="0.24" fill="none" />
  <path d="M201.3959,287.711 C201.4338,288.2247 201.0103,288.8883 200.6366,288.9006 C200.263,289.0184 199.8395,288.5023 199.8774,287.9754 C199.8395,287.4617 200.263,286.7981 200.6366,286.7858 C201.0103,286.668 201.4338,287.1841 201.3959,287.711 z" stroke="#000000" stroke-width="0.24" fill="none" />
  <path d="M202.2136,272.1145 L202.2136,276.1814" stroke="#000000" stroke-width="0.24" fill="none" />
  <path d="M199.0597,276.7304 L202.2136,276.1814" stroke="#000000" stroke-width="0.24" fill="none" />
  <path d="M199.0597,308.0455 L202.2136,307.4965" stroke="#000000" stroke-width="0.24" fill="none" />
  <path d="M199.0597,303.9786 L199.0597,308.0455" stroke="#000000" stroke-width="0.24" fill="none" />
  <path d="M199.0597,312.5191 L202.2136,311.9701" stroke="#000000" stroke-width="0.24" fill="none" />
  <path d="M199.0597,308.4522 L199.0597,312.5191" stroke="#000000" stroke-width="0.24" fill="none" />
  <path d="M202.2136,285.1286 L203.4986,285.3523" stroke="#000000" stroke-width="0.24" fill="none" />
  <path d="M202.2136,281.0617 L203.4986,281.2854" stroke="#000000" stroke-width="0.24" fill="none" />
  <path d="M199.0597,281.6107 L199.0597,285.6776" stroke="#000000" stroke-width="0.24" fill="none" />
  <path d="M201.3959,283.2375 C201.4338,283.7512 201.0103,284.4147 200.6366,284.427 C200.263,284.5448 199.8395,284.0287 199.8774,283.5018 C199.8395,282.9881 200.263,282.3245 200.6366,282.3122 C201.0103,282.1945 201.4338,282.7105 201.3959,283.2375 z" stroke="#000000" stroke-width="0.24" fill="none" />
  <path d="M202.2136,276.1814 L203.4986,276.4051" stroke="#000000" stroke-width="0.24" fill="none" />
  <path d="M202.2136,272.1145 L203.4986,272.3382" stroke="#000000" stroke-width="0.24" fill="none" />
  <path d="M199.0597,272.6636 L199.0597,276.7304" stroke="#000000" stroke-width="0.24" fill="none" />
  <path d="M201.3959,274.2903 C201.4338,274.804 201.0103,275.4676 200.6366,275.4799 C200.263,275.5977 199.8395,275.0815 199.8774,274.5546 C199.8395,274.0409 200.263,273.3773 200.6366,273.3651 C201.0103,273.2473 201.4338,273.7634 201.3959,274.2903 z" stroke="#000000" stroke-width="0.24" fill="none" />
  <path d="M202.2136,307.9032 L203.4986,308.1269" stroke="#000000" stroke-width="0.24" fill="none" />
  <path d="M202.2136,307.9032 L202.2136,311.9701" stroke="#000000" stroke-width="0.24" fill="none" />
  <path d="M200.2279,308.2488 L199.0597,308.0455" stroke="#000000" stroke-width="0.24" fill="none" />
  <path d="M202.2136,307.4965 L203.4986,307.7202" stroke="#000000" stroke-width="0.24" fill="none" />
  <path d="M202.2136,303.4296 L203.4986,303.6533" stroke="#000000" stroke-width="0.24" fill="none" />
  <path d="M201.3959,305.6053 C201.4338,306.119 201.0103,306.7826 200.6366,306.7949 C200.263,306.9127 199.8395,306.3966 199.8774,305.8697 C199.8395,305.356 200.263,304.6924 200.6366,304.6801 C201.0103,304.5623 201.4338,305.0784 201.3959,305.6053 z" stroke="#000000" stroke-width="0.24" fill="none" />
  <path d="M202.2136,311.9701 L203.4986,312.1937" stroke="#000000" stroke-width="0.24" fill="none" />
  <path d="M201.3959,310.0789 C201.4338,310.5927 201.0103,311.2562 200.6366,311.2685 C200.263,311.3863 199.8395,310.8702 199.8774,310.3433 C199.8395,309.8296 200.263,309.166 200.6366,309.1537 C201.0103,309.0359 201.4338,309.552 201.3959,310.0789 z" stroke="#000000" stroke-width="0.24" fill="none" />
  <path d="M199.0597,294.6248 L202.2136,294.0757" stroke="#000000" stroke-width="0.24" fill="none" />
  <path d="M199.0597,290.5579 L202.2136,290.0089" stroke="#000000" stroke-width="0.24" fill="none" />
</svg>