solid exported
	facet normal -0.9238795323932467 -0.3826834326500642 0
		outer loop
			vertex -10 0 15
			vertex -10 0 -15
			vertex -7.071067810058594 -7.071067810058594 -15
		endloop
	endfacet
	facet normal -0.3826834326500642 -0.9238795323932467 0
		outer loop
			vertex -7.071067810058594 -7.071067810058594 15
			vertex -7.071067810058594 -7.071067810058594 -15
			vertex 0 -10 -15
		endloop
	endfacet
	facet normal 0 0 -1
		outer loop
			vertex 0 10 -15
			vertex 0 -10 -15
			vertex -7.071067810058594 -7.071067810058594 -15
		endloop
	endfacet
	facet normal -0.9238795323932467 -0.3826834326500642 0
		outer loop
			vertex -7.071067810058594 -7.071067810058594 15
			vertex -10 0 15
			vertex -7.071067810058594 -7.071067810058594 -15
		endloop
	endfacet
	facet normal -0.3826834326500642 -0.9238795323932467 0
		outer loop
			vertex 0 -10 15
			vertex -7.071067810058594 -7.071067810058594 15
			vertex 0 -10 -15
		endloop
	endfacet
	facet normal 0 0 1
		outer loop
			vertex 0 10 15
			vertex -7.071067810058594 -7.071067810058594 15
			vertex 0 -10 15
		endloop
	endfacet
	facet normal 0 0 -1
		outer loop
			vertex -7.071067810058594 7.071067810058594 -15
			vertex -7.071067810058594 -7.071067810058594 -15
			vertex -10 0 -15
		endloop
	endfacet
	facet normal -0.9238795323932467 0.3826834326500642 0
		outer loop
			vertex -7.071067810058594 7.071067810058594 15
			vertex -7.071067810058594 7.071067810058594 -15
			vertex -10 0 -15
		endloop
	endfacet
	facet normal 0 0 -1
		outer loop
			vertex 0 10 -15
			vertex -7.071067810058594 -7.071067810058594 -15
			vertex -7.071067810058594 7.071067810058594 -15
		endloop
	endfacet
	facet normal -0.3826834326500642 0.9238795323932467 0
		outer loop
			vertex 0 10 15
			vertex 0 10 -15
			vertex -7.071067810058594 7.071067810058594 -15
		endloop
	endfacet
	facet normal -0.9238795323932467 0.3826834326500642 0
		outer loop
			vertex -10 0 15
			vertex -7.071067810058594 7.071067810058594 15
			vertex -10 0 -15
		endloop
	endfacet
	facet normal 0 0 1
		outer loop
			vertex -7.071067810058594 7.071067810058594 15
			vertex -10 0 15
			vertex -7.071067810058594 -7.071067810058594 15
		endloop
	endfacet
	facet normal 0 0 1
		outer loop
			vertex 0 10 15
			vertex -7.071067810058594 7.071067810058594 15
			vertex -7.071067810058594 -7.071067810058594 15
		endloop
	endfacet
	facet normal -0.3826834326500642 0.9238795323932467 0
		outer loop
			vertex -7.071067810058594 7.071067810058594 15
			vertex 0 10 15
			vertex -7.071067810058594 7.071067810058594 -15
		endloop
	endfacet
	facet normal 0.3826834326500642 -0.9238795323932467 0
		outer loop
			vertex 0 -10 15
			vertex 0 -10 -15
			vertex 7.071067810058594 -7.071067810058594 -15
		endloop
	endfacet
	facet normal 0 0 -1
		outer loop
			vertex 7.071067810058594 7.071067810058594 -15
			vertex 7.071067810058594 -7.071067810058594 -15
			vertex 0 -10 -15
		endloop
	endfacet
	facet normal 0.9238795323932467 -0.3826834326500642 0
		outer loop
			vertex 7.071067810058594 -7.071067810058594 15
			vertex 7.071067810058594 -7.071067810058594 -15
			vertex 10 0 -15
		endloop
	endfacet
	facet normal 0.3826834326500642 -0.9238795323932467 0
		outer loop
			vertex 7.071067810058594 -7.071067810058594 15
			vertex 0 -10 15
			vertex 7.071067810058594 -7.071067810058594 -15
		endloop
	endfacet
	facet normal 0 0 1
		outer loop
			vertex 7.071067810058594 7.071067810058594 15
			vertex 0 -10 15
			vertex 7.071067810058594 -7.071067810058594 15
		endloop
	endfacet
	facet normal 0.9238795323932467 -0.3826834326500642 0
		outer loop
			vertex 10 0 15
			vertex 7.071067810058594 -7.071067810058594 15
			vertex 10 0 -15
		endloop
	endfacet
	facet normal 0 0 -1
		outer loop
			vertex 7.071067810058594 7.071067810058594 -15
			vertex 0 -10 -15
			vertex 0 10 -15
		endloop
	endfacet
	facet normal 0.3826834326500642 0.9238795323932467 0
		outer loop
			vertex 7.071067810058594 7.071067810058594 15
			vertex 7.071067810058594 7.071067810058594 -15
			vertex 0 10 -15
		endloop
	endfacet
	facet normal 0 0 -1
		outer loop
			vertex 10 0 -15
			vertex 7.071067810058594 -7.071067810058594 -15
			vertex 7.071067810058594 7.071067810058594 -15
		endloop
	endfacet
	facet normal 0.9238795323932467 0.3826834326500642 0
		outer loop
			vertex 10 0 15
			vertex 10 0 -15
			vertex 7.071067810058594 7.071067810058594 -15
		endloop
	endfacet
	facet normal 0 0 1
		outer loop
			vertex 7.071067810058594 7.071067810058594 15
			vertex 0 10 15
			vertex 0 -10 15
		endloop
	endfacet
	facet normal 0.3826834326500642 0.9238795323932467 0
		outer loop
			vertex 0 10 15
			vertex 7.071067810058594 7.071067810058594 15
			vertex 0 10 -15
		endloop
	endfacet
	facet normal 0.9238795323932467 0.3826834326500642 0
		outer loop
			vertex 7.071067810058594 7.071067810058594 15
			vertex 10 0 15
			vertex 7.071067810058594 7.071067810058594 -15
		endloop
	endfacet
	facet normal 0 0 1
		outer loop
			vertex 10 0 15
			vertex 7.071067810058594 7.071067810058594 15
			vertex 7.071067810058594 -7.071067810058594 15
		endloop
	endfacet
endsolid exported
