o 
usemtl primitives-cylinder-8-material
v -7.071067810058594 -7.071067810058594 -15
v -7.071067810058594 -7.071067810058594 15
v -10 0 -15
v -7.071067810058594 7.071067810058594 -15
v -10 0 15
v -7.071067810058594 7.071067810058594 15
v 0 -10 -15
v 7.071067810058594 -7.071067810058594 -15
v 0 -10 15
v 7.071067810058594 -7.071067810058594 15
v 0 10 -15
v 10 0 -15
v 7.071067810058594 7.071067810058594 -15
v 0 10 15
v 10 0 15
v 7.071067810058594 7.071067810058594 15
vn -0.7295944001891504 -0.552565150387733 -0.4029438742425744
vn -0.552565150387733 -0.7295944001891504 0.4029438742425744
vn -0.9885497010032096 0.13649022464361263 -0.06434211080778328
vn -0.5896306681553104 0.7785348359020466 -0.2149864750576077
vn -0.9885497010032096 -0.13649022464361263 0.06434211080778328
vn -0.7785348359020466 0.5896306681553104 0.2149864750576077
vn -0.11749308551286518 -0.850960194700112 -0.5119200346661713
vn 0.5896306681553104 -0.7785348359020466 -0.2149864750576077
vn 0.11749308551286518 -0.850960194700112 0.5119200346661713
vn 0.7785348359020466 -0.5896306681553104 0.2149864750576077
vn 0.11749308551286518 0.850960194700112 -0.5119200346661713
vn 0.9885497010032096 -0.13649022464361263 -0.06434211080778328
vn 0.7295944001891504 0.552565150387733 -0.4029438742425744
vn -0.11749308551286518 0.850960194700112 0.5119200346661713
vn 0.9885497010032096 0.13649022464361263 0.06434211080778328
vn 0.552565150387733 0.7295944001891504 0.4029438742425744
f 5//5 3//3 1//1
f 2//2 1//1 7//7
f 11//11 7//7 1//1
f 2//2 5//5 1//1
f 9//9 2//2 7//7
f 14//14 2//2 9//9
f 4//4 1//1 3//3
f 6//6 4//4 3//3
f 11//11 1//1 4//4
f 14//14 11//11 4//4
f 5//5 6//6 3//3
f 6//6 5//5 2//2
f 14//14 6//6 2//2
f 6//6 14//14 4//4
f 9//9 7//7 8//8
f 13//13 8//8 7//7
f 10//10 8//8 12//12
f 10//10 9//9 8//8
f 16//16 9//9 10//10
f 15//15 10//10 12//12
f 13//13 7//7 11//11
f 16//16 13//13 11//11
f 12//12 8//8 13//13
f 15//15 12//12 13//13
f 16//16 14//14 9//9
f 14//14 16//16 11//11
f 16//16 15//15 13//13
f 15//15 16//16 10//10
