ply
format ascii 1.0
element vertex 256
property float x
property float y
property float z
property float nx
property float ny
property float nz
element face 512
property list uchar int vertex_index
end_header
-10.981886863708496 -10.981886863708496 -3.6955180168151855 -0.26430919551947407 -0.28472789890984346 -0.9214503094286932
-9.899495124816895 -9.899495124816895 -4 0.004199130539859895 -0.014450411584969526 -0.9998867700433557
-11.899495124816895 -11.899495124816895 -2.8284270763397217 -0.4934203995601436 -0.5107775405959147 -0.7040189012524427
-12.51262092590332 -12.51262092590332 -1.5307337045669556 -0.6488886397689406 -0.6588330189792787 -0.38063445230491566
-14.348526954650879 -5.943354606628418 -3.6955180168151855 -0.35315046184640014 -0.1619075111252972 -0.9214503291761776
-15.547439575195312 -6.439960479736328 -2.8284270763397217 -0.6513271239033005 -0.28307312323856104 -0.7040188808319141
-12.934313774108887 -5.357568264007568 -4 -0.0016504436808806896 -0.014957381693599833 -0.9998867699737448
-11.520099639892578 -4.7717814445495605 -3.6955180168151855 0.3507233518214493 0.13510967629780957 -0.9266814478869365
-10.321187973022461 -4.275176048278809 -2.8284270763397217 0.6509775421224613 0.2643061836448148 -0.7115971338751392
-16.348527908325195 -6.7717814445495605 -1.5307337045669556 -0.851619384107103 -0.36036340302493847 -0.3806345259869684
-9.520099639892578 -3.943354606628418 -1.5307337045669556 0.8528712471498324 0.3514446350969064 -0.3861312008199952
-5.943354606628418 -14.348526954650879 -3.6955180168151855 -0.13522924715297854 -0.3642011049415538 -0.9214502731421754
-6.439960479736328 -15.547439575195312 -2.8284270763397217 -0.2603948120189823 -0.6607206473677423 -0.7040190111179886
-5.357568264007568 -12.934313774108887 -4 0.009409424094745204 -0.011743504775205634 -0.9998867700063844
-4.7717814445495605 -11.520099639892578 -3.6955180168151855 0.15246189891133669 0.3435358351130381 -0.9266814443882735
-4.275176048278809 -10.321187973022461 -2.8284270763397217 0.2734178922186641 0.647203331306927 -0.7115971501909764
-6.7717814445495605 -16.348527908325195 -1.5307337045669556 -0.34737041236966326 -0.8570013554572825 -0.380634303964462
-3.943354606628418 -9.520099639892578 -1.5307337045669556 0.354562125861909 0.8515799456942755 -0.38613118884081166
-8.817102432250977 -8.817102432250977 -3.6955180168151855 0.2723219041217556 0.25904109546651605 -0.9266814400833809
-7.8994951248168945 -7.8994951248168945 -2.8284270763397217 0.5002792033473094 0.4933054596968281 -0.7115971066070199
-7.2863688468933105 -7.2863688468933105 -1.5307337045669556 0.6534582351008822 0.6510722015751791 -0.38613122551134027
-12.727922439575195 -12.727922439575195 0 -0.7071068109888685 -0.7071067513842252 -5.556127863042364e-9
-12.51262092590332 -12.51262092590332 1.5307337045669556 -0.6588330856670739 -0.6488885871405338 0.3806344265948155
-11.899495124816895 -11.899495124816895 2.8284270763397217 -0.5107775481069363 -0.49342037701360386 0.7040189116050928
-10.981886863708496 -10.981886863708496 3.6955180168151855 -0.28472789890984346 -0.26430919551947407 0.9214503094286932
-9.899495124816895 -9.899495124816895 4 -0.014450413447254017 0.0041991300740937855 0.9998867700183978
-16.629831314086914 -6.888301849365234 0 -0.9238795498316428 -0.3826833905500378 9.055238910492995e-8
-16.348527908325195 -6.7717814445495605 1.5307337045669556 -0.8570013121635853 -0.3473704785856642 0.380634341011238
-9.238795280456543 -3.8268344402313232 0 0.9238795305660374 0.38268343706133684 -9.881405309515238e-9
-9.520099639892578 -3.943354606628418 1.5307337045669556 0.8515799195145796 0.3545621397786544 0.3861312337989819
-15.547439575195312 -6.439960479736328 2.8284270763397217 -0.6607206473677423 -0.2603948120189823 0.7040190111179886
-14.348526954650879 -5.943354606628418 3.6955180168151855 -0.36420105982326273 -0.13522922656494035 0.9214502939965129
-12.934313774108887 -5.357568264007568 4 -0.011743500119234867 0.009409424095259758 0.9998867700610631
-11.520099639892578 -4.7717814445495605 3.6955180168151855 0.3435358358935031 0.15246188435654764 0.9266814464935632
-10.321187973022461 -4.275176048278809 2.8284270763397217 0.6472033365806555 0.27341786464428364 0.7115971559894172
-6.888301849365234 -16.629831314086914 0 -0.3826833905500379 -0.923879549831643 -8.856263499580063e-8
-6.7717814445495605 -16.348527908325195 1.5307337045669556 -0.36036340302493847 -0.851619384107103 0.3806345259869684
-3.8268344402313232 -9.238795280456543 0 0.3826834159879128 0.9238795392949353 1.2870715706994807e-8
-3.943354606628418 -9.520099639892578 1.5307337045669556 0.3514446310526197 0.8528712373353255 0.38613122617887147
-6.439960479736328 -15.547439575195312 2.8284270763397217 -0.2830730958243105 -0.6513271293980499 0.7040188867711835
-5.943354606628418 -14.348526954650879 3.6955180168151855 -0.16190749491072687 -0.35315048878393274 0.9214503217012854
-5.357568264007568 -12.934313774108887 4 -0.014957381693720533 -0.0016504387914503993 0.9998867699818135
-4.7717814445495605 -11.520099639892578 3.6955180168151855 0.1351096630808798 0.3507233263911253 0.9266814594386332
-4.275176048278809 -10.321187973022461 2.8284270763397217 0.264306211365213 0.6509775369947512 0.7115971282699324
-7.071067810058594 -7.071067810058594 0 0.7071067811865476 0.7071067811865476 1.2178075423338088e-9
-7.2863688468933105 -7.2863688468933105 1.5307337045669556 0.6510722015751791 0.6534582351008822 0.38613122551134027
-7.8994951248168945 -7.8994951248168945 2.8284270763397217 0.4933054596968281 0.5002792033473094 0.7115971066070199
-8.817102432250977 -8.817102432250977 3.6955180168151855 0.25904106976632985 0.27232187863188234 0.9266814547581697
-15.530734062194824 0 -3.6955180168151855 -0.38822791995943046 -0.014438180630612375 -0.9214502814064641
-14 0 -4 -0.007248751955563042 -0.013187220568303182 -0.9998867699938677
-16.828426361083984 0 -2.8284270763397217 -0.7100751914438688 -0.012273353383461033 -0.7040188827671298
-14.348526954650879 5.943354606628418 -3.6955180168151855 -0.3642010590893712 0.13522924119360447 -0.9214502921397238
-15.547439575195312 6.439960479736328 -2.8284270763397217 -0.6607206524951786 0.26039478423741963 -0.7040190165814364
-12.469265937805176 0 -3.6955180168151855 0.3757303354832953 -0.009390936227376252 -0.92668145838491
-11.1715726852417 0 -2.8284270763397217 0.7025703963021678 -0.004931204143959126 -0.7115971623506557
-10.321187973022461 4.275176048278809 -2.8284270763397217 0.647203331306927 -0.2734178922186641 -0.7115971501909764
-12.934313774108887 5.357568264007568 -4 -0.011743502912920237 -0.009409423163710889 -0.9998867700370179
-11.520099639892578 4.7717814445495605 -3.6955180168151855 0.3435358351130381 -0.15246189891133669 -0.9266814443882735
-17.695518493652344 0 -1.5307337045669556 -0.9246988160257206 -0.0070317912742013 -0.380634540671372
-16.348527908325195 6.7717814445495605 -1.5307337045669556 -0.8570013465852231 0.3473704385758519 -0.38063430002396625
-10.304481506347656 0 -1.5307337045669556 0.9224423792602273 -0.0016872130848446974 -0.38613107911269867
-9.520099639892578 3.943354606628418 -1.5307337045669556 0.8515799195145796 -0.3545621397786544 -0.3861312337989819
-10.981886863708496 10.981886863708496 -3.6955180168151855 -0.2847278715235945 0.26430919776228357 -0.9214503172477079
-9.899495124816895 9.899495124816895 -4 -0.014450413447254017 -0.0041991300740937855 -0.9998867700183978
-11.899495124816895 11.899495124816895 -2.8284270763397217 -0.5107775405959147 0.4934203995601436 -0.7040189012524427
-12.51262092590332 12.51262092590332 -1.5307337045669556 -0.6588330781934095 0.6488885797796777 -0.3806344520793004
-8.817102432250977 8.817102432250977 -3.6955180168151855 0.2590410718686616 -0.2723218510396763 -0.9266814622789533
-7.8994951248168945 7.8994951248168945 -2.8284270763397217 0.49330541622360724 -0.5002791894831486 -0.7115971464912837
-7.2863688468933105 7.2863688468933105 -1.5307337045669556 0.6510722015751791 -0.6534582351008822 -0.38613122551134027
-4.7717814445495605 11.520099639892578 -3.6955180168151855 0.13510966166866362 -0.35072335252755743 -0.9266814497526158
-5.357568264007568 12.934313774108887 -4 -0.014957384486979893 0.001650442167416627 -0.9998867699344565
-5.943354606628418 14.348526954650879 -3.6955180168151855 -0.1619075094212685 0.35315048793191844 -0.9214503194781855
-6.439960479736328 15.547439575195312 -2.8284270763397217 -0.28307312323856104 0.6513271239033005 -0.7040188808319141
-4.275176048278809 10.321187973022461 -2.8284270763397217 0.2643061836448148 -0.6509775421224613 -0.7115971338751392
-6.7717814445495605 16.348527908325195 -1.5307337045669556 -0.36036340302493847 0.851619384107103 -0.3806345259869684
-3.943354606628418 9.520099639892578 -1.5307337045669556 0.3514446270083328 -0.852871227520818 -0.38613125153774686
-18 0 0 -1 -1.3275769372711466e-9 -1.3939331910961528e-9
-17.695518493652344 0 1.5307337045669556 -0.9246988159924141 0.007031796396222108 0.380634540657662
-16.629831314086914 6.888301849365234 0 -0.9238795305660341 0.38268343706133545 -8.62235463206689e-8
-16.348527908325195 6.7717814445495605 1.5307337045669556 -0.851619384107103 0.36036340302493847 0.3806345259869684
-10 0 0 1 5.300489491766314e-10 -1.0215959189707746e-9
-9.238795280456543 3.8268344402313232 0 0.9238795392949353 -0.3826834159879128 1.2870715706994807e-8
-10.304481506347656 0 1.5307337045669556 0.9224423686413217 0.0016872155101436968 0.3861311044699849
-9.520099639892578 3.943354606628418 1.5307337045669556 0.8528712471498324 -0.3514446350969064 0.3861312008199952
-16.828426361083984 0 2.8284270763397217 -0.7100751914357523 0.012273354314643308 0.7040188827590825
-15.530734062194824 0 3.6955180168151855 -0.38822791998031186 0.014438176906098558 0.9214502814560257
-14 0 4 -0.007248751955563042 0.013187220568303182 0.9998867699938677
-15.547439575195312 6.439960479736328 2.8284270763397217 -0.6513271239033005 0.28307312323856104 0.7040188808319141
-14.348526954650879 5.943354606628418 3.6955180168151855 -0.3531505131654214 0.1619075222277811 0.9214503075570923
-11.1715726852417 0 2.8284270763397217 0.7025703665029984 0.004931203934804587 0.7115971917732644
-10.321187973022461 4.275176048278809 2.8284270763397217 0.6509775369947512 -0.264306211365213 0.7115971282699324
-12.469265937805176 0 3.6955180168151855 0.37573038667006875 0.009390936948304082 0.92668143762352
-12.934313774108887 5.357568264007568 4 -0.001650442283877616 0.014957382624748553 0.9998867699621217
-11.520099639892578 4.7717814445495605 3.6955180168151855 0.3507233518214493 -0.13510967629780957 0.9266814478869365
-12.727922439575195 12.727922439575195 0 -0.7071067513842252 0.7071068109888685 -8.799404873190761e-10
-12.51262092590332 12.51262092590332 1.5307337045669556 -0.6488886052612155 0.6588330444608165 0.3806344670266295
-11.899495124816895 11.899495124816895 2.8284270763397217 -0.4934203995601436 0.5107775405959147 0.7040189012524427
-10.981886863708496 10.981886863708496 3.6955180168151855 -0.26430919551947407 0.28472789890984346 0.9214503094286932
-9.899495124816895 9.899495124816895 4 0.004199132868125321 0.014450411584828246 0.99988677003358
-7.071067810058594 7.071067810058594 0 0.7071068109888685 -0.7071067513842252 -2.139831147554555e-9
-7.2863688468933105 7.2863688468933105 1.5307337045669556 0.6534582351008822 -0.6510722015751791 0.38613122551134027
-7.8994951248168945 7.8994951248168945 2.8284270763397217 0.5002791894831486 -0.49330541622360724 0.7115971464912837
-8.817102432250977 8.817102432250977 3.6955180168151855 0.2723219041217556 -0.25904109546651605 0.9266814400833809
-6.888301849365234 16.629831314086914 0 -0.3826833905500378 0.9238795498316428 9.055238910492995e-8
-6.7717814445495605 16.348527908325195 1.5307337045669556 -0.3473704785856642 0.8570013121635853 0.380634341011238
-3.8268344402313232 9.238795280456543 0 0.38268343706133684 -0.9238795305660374 -1.4437805141511472e-8
-3.943354606628418 9.520099639892578 1.5307337045669556 0.3545621397786544 -0.8515799195145796 0.3861312337989819
-4.7717814445495605 11.520099639892578 3.6955180168151855 0.15246188435654764 -0.3435358358935031 0.9266814464935632
-5.357568264007568 12.934313774108887 4 0.009409425026499893 0.011743500119131957 0.9998867700523009
-6.439960479736328 15.547439575195312 2.8284270763397217 -0.2603948120189823 0.6607206473677423 0.7040190111179886
-5.943354606628418 14.348526954650879 3.6955180168151855 -0.13522924715297854 0.3642011049415538 0.9214502731421754
-4.275176048278809 10.321187973022461 2.8284270763397217 0.2734178922186641 -0.647203331306927 0.7115971501909764
0 -15.530734062194824 -3.6955180168151855 0.014438176906098558 -0.38822791998031186 -0.9214502814560257
0 -14 -4 0.013187220568303182 -0.007248751955563042 -0.9998867699938677
0 -16.828426361083984 -2.8284270763397217 0.012273353898485256 -0.7100752212406091 -0.7040188527050838
0 -12.469265937805176 -3.6955180168151855 0.009390936948304082 0.37573038667006875 -0.92668143762352
0 -11.1715726852417 -2.8284270763397217 0.004931203934804587 0.7025703665029984 -0.7115971917732644
4.275176048278809 -10.321187973022461 -2.8284270763397217 -0.2643061836448148 0.6509775421224613 -0.7115971338751392
5.943354606628418 -14.348526954650879 -3.6955180168151855 0.1619075094212685 -0.35315048793191844 -0.9214503194781855
6.439960479736328 -15.547439575195312 -2.8284270763397217 0.2830731241276003 -0.6513271855535482 -0.7040188234383609
5.357568264007568 -12.934313774108887 -4 0.014957382624748553 -0.001650442283877616 -0.9998867699621217
4.7717814445495605 -11.520099639892578 -3.6955180168151855 -0.13510967629780957 0.3507233518214493 -0.9266814478869365
0 -17.695518493652344 -1.5307337045669556 0.0070317968618603625 -0.9246988159893862 -0.38063454065641567
0 -10.304481506347656 -1.5307337045669556 0.001687217120537722 0.9224423580236837 -0.38613112982780107
3.943354606628418 -9.520099639892578 -1.5307337045669556 -0.3514446350969064 0.8528712471498324 -0.3861312008199952
6.7717814445495605 -16.348527908325195 -1.5307337045669556 0.36036340302493847 -0.851619384107103 -0.3806345259869684
8.817102432250977 -8.817102432250977 -3.6955180168151855 -0.25904109546651605 0.2723219041217556 -0.9266814400833809
7.8994951248168945 -7.8994951248168945 -2.8284270763397217 -0.49330541622360724 0.5002791894831486 -0.7115971464912837
7.2863688468933105 -7.2863688468933105 -1.5307337045669556 -0.6510722015751791 0.6534582351008822 -0.38613122551134027
9.899495124816895 -9.899495124816895 -4 0.014450411584828246 0.004199132868125321 -0.99988677003358
10.981886863708496 -10.981886863708496 -3.6955180168151855 0.28472789890984346 -0.26430919551947407 -0.9214503094286932
11.899495124816895 -11.899495124816895 -2.8284270763397217 0.5107775481069363 -0.49342037701360386 -0.7040189116050928
12.51262092590332 -12.51262092590332 -1.5307337045669556 0.6588330444608165 -0.6488886052612155 -0.3806344670266295
11.520099639892578 -4.7717814445495605 -3.6955180168151855 -0.3435358351130381 0.15246189891133669 -0.9266814443882735
12.934313774108887 -5.357568264007568 -4 0.011743504775411456 0.009409422232264934 -0.9998867700239088
10.321187973022461 -4.275176048278809 -2.8284270763397217 -0.6472033091298526 0.27341785304740285 -0.7115971854120261
14.348526954650879 -5.943354606628418 -3.6955180168151855 0.3642010790922835 -0.13522924862076202 -0.9214502831436325
15.547439575195312 -6.439960479736328 -2.8284270763397217 0.6607206473677423 -0.2603948120189823 -0.7040190111179886
9.520099639892578 -3.943354606628418 -1.5307337045669556 -0.851579964492375 0.35456210388632586 -0.386131167562096
16.348527908325195 -6.7717814445495605 -1.5307337045669556 0.8570013554572825 -0.34737041236966326 -0.380634303964462
0 -18 0 -1.3275769372711466e-9 -1 4.017837174075112e-9
0 -17.695518493652344 1.5307337045669556 -0.007031794068030832 -0.9246988160075534 0.38063454066389385
0 -10 0 -1.586012876586551e-9 1 -1.0636586056378405e-9
3.8268344402313232 -9.238795280456543 0 -0.38268343706133684 0.9238795305660374 -9.881405309515238e-9
0 -10.304481506347656 1.5307337045669556 -0.0016872176250293373 0.9224423792531614 0.38613107910974087
3.943354606628418 -9.520099639892578 1.5307337045669556 -0.3545621397786544 0.8515799195145796 0.3861312337989819
6.888301849365234 -16.629831314086914 0 0.38268343706133545 -0.9238795305660341 8.628876704024534e-8
6.7717814445495605 -16.348527908325195 1.5307337045669556 0.3473704785856642 -0.8570013121635853 0.380634341011238
0 -16.828426361083984 2.8284270763397217 -0.012273358039372403 -0.7100751914032863 0.7040188827268935
0 -15.530734062194824 3.6955180168151855 -0.014438176906098558 -0.38822791998031186 0.9214502814560257
0 -14 4 -0.013187220568303182 -0.007248751955563042 0.9998867699938677
0 -11.1715726852417 2.8284270763397217 -0.004931204609609102 0.7025703963005546 0.7115971623490218
4.275176048278809 -10.321187973022461 2.8284270763397217 -0.27341785304740285 0.6472033091298526 0.7115971854120261
0 -12.469265937805176 3.6955180168151855 -0.00939093798470082 0.37573036107175317 0.926681447992058
6.439960479736328 -15.547439575195312 2.8284270763397217 0.26039478423741963 -0.6607206524951786 0.7040190165814364
5.943354606628418 -14.348526954650879 3.6955180168151855 0.13522924119360447 -0.3642010590893712 0.9214502921397238
5.357568264007568 -12.934313774108887 4 -0.00940942502598534 -0.011743504775102723 0.9998867699976222
4.7717814445495605 -11.520099639892578 3.6955180168151855 -0.15246189891133669 0.3435358351130381 0.9266814443882735
7.071067810058594 -7.071067810058594 0 -0.7071067811865476 0.7071067811865476 1.2178075423338088e-9
7.2863688468933105 -7.2863688468933105 1.5307337045669556 -0.6534582351008822 0.6510722015751791 0.38613122551134027
7.8994951248168945 -7.8994951248168945 2.8284270763397217 -0.5002791894831486 0.49330541622360724 0.7115971464912837
8.817102432250977 -8.817102432250977 3.6955180168151855 -0.27232187652955037 0.2590410975688481 0.9266814476041649
12.727922439575195 -12.727922439575195 0 0.7071067513842252 -0.7071068109888685 -5.556127863042364e-9
12.51262092590332 -12.51262092590332 1.5307337045669556 0.6488885797796777 -0.6588330781934095 0.3806344520793004
11.899495124816895 -11.899495124816895 2.8284270763397217 0.49342040708463897 -0.5107775771390604 0.7040188694661389
9.899495124816895 -9.899495124816895 4 -0.0041991300740937855 -0.014450413447254017 0.9998867700183978
10.981886863708496 -10.981886863708496 3.6955180168151855 0.26430919776228357 -0.2847278715235945 0.9214503172477079
9.238795280456543 -3.8268344402313232 0 -0.9238795305660374 0.38268343706133684 1.5738879093908585e-8
9.520099639892578 -3.943354606628418 1.5307337045669556 -0.8528712373353255 0.3514446310526197 0.38613122617887147
16.629831314086914 -6.888301849365234 0 0.923879549831643 -0.3826833905500379 -8.856263499580063e-8
16.348527908325195 -6.7717814445495605 1.5307337045669556 0.851619384107103 -0.36036340302493847 0.3806345259869684
11.520099639892578 -4.7717814445495605 3.6955180168151855 -0.35072335252755743 0.13510966166866362 0.9266814497526158
12.934313774108887 -5.357568264007568 4 0.001650442167416627 -0.014957384486979893 0.9998867699344565
10.321187973022461 -4.275176048278809 2.8284270763397217 -0.6509775369947512 0.264306211365213 0.7115971282699324
15.547439575195312 -6.439960479736328 2.8284270763397217 0.6513271293980499 -0.2830730958243105 0.7040188867711835
14.348526954650879 -5.943354606628418 3.6955180168151855 0.35315048878393274 -0.16190749491072687 0.9214503217012854
8.817102432250977 8.817102432250977 -3.6955180168151855 -0.2723219041217556 -0.25904109546651605 -0.9266814400833809
7.8994951248168945 7.8994951248168945 -2.8284270763397217 -0.5002791894831486 -0.49330541622360724 -0.7115971464912837
7.2863688468933105 7.2863688468933105 -1.5307337045669556 -0.6534582351008822 -0.6510722015751791 -0.38613122551134027
0 12.469265937805176 -3.6955180168151855 -0.009390936227376252 -0.3757303354832953 -0.92668145838491
0 11.1715726852417 -2.8284270763397217 -0.004931204143959126 -0.7025703963021678 -0.7115971623506557
4.275176048278809 10.321187973022461 -2.8284270763397217 -0.27341785304740285 -0.6472033091298526 -0.7115971854120261
0 14 -4 -0.013187221499597354 0.007248750558563531 -0.9998867699917129
0 15.530734062194824 -3.6955180168151855 -0.014438176906098558 0.38822791998031186 -0.9214502814560257
0 16.828426361083984 -2.8284270763397217 -0.012273353383461033 0.7100751914438688 -0.7040188827671298
4.7717814445495605 11.520099639892578 -3.6955180168151855 -0.15246189891133669 -0.3435358351130381 -0.9266814443882735
5.357568264007568 12.934313774108887 -4 -0.00940942502639698 0.01174350105032611 -0.9998867700413651
5.943354606628418 14.348526954650879 -3.6955180168151855 0.13522924119360447 0.3642010590893712 -0.9214502921397238
6.439960479736328 15.547439575195312 -2.8284270763397217 0.26039478423741963 0.6607206524951786 -0.7040190165814364
0 10.304481506347656 -1.5307337045669556 -0.0016872130848446974 -0.9224423792602273 -0.38613107911269867
3.943354606628418 9.520099639892578 -1.5307337045669556 -0.354562125861909 -0.8515799456942755 -0.38613118884081166
0 17.695518493652344 -1.5307337045669556 -0.0070317912742013 0.9246988160257206 -0.380634540671372
6.7717814445495605 16.348527908325195 -1.5307337045669556 0.3473704385758519 0.8570013465852231 -0.38063430002396625
12.469265937805176 0 -3.6955180168151855 -0.37573038667006875 0.009390936948304082 -0.92668143762352
11.1715726852417 0 -2.8284270763397217 -0.7025703665126782 0.0049312011409048525 -0.7115971917830686
10.321187973022461 4.275176048278809 -2.8284270763397217 -0.6509775421224613 -0.2643061836448148 -0.7115971338751392
11.520099639892578 4.7717814445495605 -3.6955180168151855 -0.3507233263911253 -0.1351096630808798 -0.9266814594386332
12.934313774108887 5.357568264007568 -4 0.0016504397227474637 0.014957382624811775 -0.9998867699663481
14 0 -4 0.007248750558652557 0.01318722056843672 -0.999886770003993
15.530734062194824 0 -3.6955180168151855 0.3882279452855807 0.014438177670175934 -0.9214502707823687
16.828426361083984 0 -2.8284270763397217 0.7100752212406091 0.012273353898485256 -0.7040188527050838
14.348526954650879 5.943354606628418 -3.6955180168151855 0.3531505131654214 0.1619075222277811 -0.9214503075570923
15.547439575195312 6.439960479736328 -2.8284270763397217 0.6513271855535482 0.2830731241276003 -0.7040188234383609
10.304481506347656 0 -1.5307337045669556 -0.9224423580236837 0.001687217120537722 -0.38613112982780107
9.520099639892578 3.943354606628418 -1.5307337045669556 -0.852871227520818 -0.3514446270083328 -0.38613125153774686
17.695518493652344 0 -1.5307337045669556 0.9246988159893862 0.0070317968618603625 -0.38063454065641567
16.348527908325195 6.7717814445495605 -1.5307337045669556 0.8516194101437391 0.3603633888206099 -0.3806344811812975
9.899495124816895 9.899495124816895 -4 -0.0041991314712225775 0.014450410653784895 -0.9998867700529018
10.981886863708496 10.981886863708496 -3.6955180168151855 0.26430925096017527 0.2847278944242239 -0.9214502949121124
11.899495124816895 11.899495124816895 -2.8284270763397217 0.49342038453810044 0.5107775846500822 -0.7040188798187882
12.51262092590332 12.51262092590332 -1.5307337045669556 0.6488885797796777 0.6588330781934095 -0.3806344520793004
7.071067810058594 7.071067810058594 0 -0.7071067513842252 -0.7071068109888685 -2.139831147554555e-9
7.2863688468933105 7.2863688468933105 1.5307337045669556 -0.6510722015751791 -0.6534582351008822 0.38613122551134027
7.8994951248168945 7.8994951248168945 2.8284270763397217 -0.49330541622360724 -0.5002791894831486 0.7115971464912837
8.817102432250977 8.817102432250977 3.6955180168151855 -0.2590410440661425 -0.27232185314200785 0.9266814694329576
0 10 0 5.300489491766314e-10 -1 -1.0215959189707746e-9
3.8268344402313232 9.238795280456543 0 -0.38268343706133684 -0.9238795305660374 1.5738879093908585e-8
0 10.304481506347656 1.5307337045669556 0.0016872155101436968 -0.9224423686413217 0.3861311044699849
3.943354606628418 9.520099639892578 1.5307337045669556 -0.3514446089755675 -0.8528712560826919 0.38613120486428176
0 18 0 -1.3275769372711466e-9 1 -1.3939331910961528e-9
0 17.695518493652344 1.5307337045669556 0.007031796396222108 0.9246988159924141 0.380634540657662
6.888301849365234 16.629831314086914 0 0.38268343706133545 0.9238795305660341 -8.62235463206689e-8
6.7717814445495605 16.348527908325195 1.5307337045669556 0.36036340302493847 0.851619384107103 0.3806345259869684
0 11.1715726852417 2.8284270763397217 0.004931203934804587 -0.7025703665029984 0.7115971917732644
4.275176048278809 10.321187973022461 2.8284270763397217 -0.264306211365213 -0.6509775369947512 0.7115971282699324
0 12.469265937805176 3.6955180168151855 0.009390936948304082 -0.37573038667006875 0.92668143762352
0 16.828426361083984 2.8284270763397217 0.012273354314643308 0.7100751914357523 0.7040188827590825
0 14 4 0.01318722056843672 0.007248750558652557 0.999886770003993
0 15.530734062194824 3.6955180168151855 0.01443817783722701 0.38822791997509143 0.9214502814436352
4.7717814445495605 11.520099639892578 3.6955180168151855 -0.13510967629780957 -0.3507233518214493 0.9266814478869365
5.357568264007568 12.934313774108887 4 0.014957381693637193 0.0016504421674856 0.9998867699762423
6.439960479736328 15.547439575195312 2.8284270763397217 0.28307312323856104 0.6513271239033005 0.7040188808319141
5.943354606628418 14.348526954650879 3.6955180168151855 0.1619075222277811 0.3531505131654214 0.9214503075570923
10 0 0 -1 -1.586012876586551e-9 -1.0636586056378405e-9
9.238795280456543 3.8268344402313232 0 -0.9238795305660374 -0.38268343706133684 -1.4437805141511472e-8
10.304481506347656 0 1.5307337045669556 -0.9224423792531614 -0.0016872176250293373 0.38613107910974087
9.520099639892578 3.943354606628418 1.5307337045669556 -0.8515799195145796 -0.3545621397786544 0.3861312337989819
18 0 0 1 -1.3275769372711466e-9 4.017837174075112e-9
17.695518493652344 0 1.5307337045669556 0.9246988160075534 -0.007031794068030832 0.38063454066389385
16.629831314086914 6.888301849365234 0 0.9238795305660341 0.38268343706133545 8.628876704024534e-8
16.348527908325195 6.7717814445495605 1.5307337045669556 0.8570013121635853 0.3473704785856642 0.380634341011238
11.1715726852417 0 2.8284270763397217 -0.7025703963005546 -0.004931204609609102 0.7115971623490218
10.321187973022461 4.275176048278809 2.8284270763397217 -0.6472033038561248 -0.27341788062178235 0.7115971796135856
12.469265937805176 0 3.6955180168151855 -0.37573036107175317 -0.00939093798470082 0.926681447992058
11.520099639892578 4.7717814445495605 3.6955180168151855 -0.3435358351130381 -0.15246189891133669 0.9266814443882735
12.934313774108887 5.357568264007568 4 0.011743498256640738 -0.00940942595794585 0.9998867700654102
16.828426361083984 0 2.8284270763397217 0.7100751914032863 -0.012273358039372403 0.7040188827268935
14 0 4 0.007248750558563531 -0.013187221499597354 0.9998867699917129
15.530734062194824 0 3.6955180168151855 0.38822791998031186 -0.014438176906098558 0.9214502814560257
15.547439575195312 6.439960479736328 2.8284270763397217 0.6607206524951786 0.26039478423741963 0.7040190165814364
14.348526954650879 5.943354606628418 3.6955180168151855 0.3642011049415538 0.13522924715297854 0.9214502731421754
12.727922439575195 12.727922439575195 0 0.7071067811865476 0.7071067811865476 -8.799405799169481e-10
12.51262092590332 12.51262092590332 1.5307337045669556 0.6588330369871518 0.6488885979003584 0.38063449251111425
11.899495124816895 11.899495124816895 2.8284270763397217 0.5107775921611039 0.4934203619915608 0.7040188901714372
9.899495124816895 9.899495124816895 4 0.014450411585110805 -0.004199128211594468 0.9998867700531314
10.981886863708496 10.981886863708496 3.6955180168151855 0.2847278966670338 0.26430922323982503 0.9214503021704032
3 4 0 2
3 12 2 0
3 5 2 3
3 9 3 21
3 16 3 2
3 35 21 3
3 2 5 4
3 5 50 48
3 49 6 4
3 48 4 5
3 4 48 49
3 50 5 9
3 0 4 6
3 6 1 0
3 1 6 7
3 7 18 1
3 8 19 18
3 18 7 8
3 19 8 10
3 53 7 6
3 6 49 53
3 7 53 54
3 54 8 7
3 8 54 60
3 58 9 26
3 3 9 5
3 21 26 9
3 9 58 50
3 26 76 58
3 60 10 8
3 10 60 80
3 80 28 10
3 0 11 12
3 2 12 16
3 11 0 1
3 1 13 11
3 13 1 18
3 14 18 19
3 18 14 13
3 19 15 14
3 112 11 13
3 114 12 11
3 13 113 112
3 11 112 114
3 12 114 122
3 113 13 14
3 115 14 15
3 14 115 113
3 15 116 115
3 116 15 17
3 3 16 35
3 140 35 16
3 20 17 15
3 122 16 12
3 16 122 140
3 123 17 37
3 17 123 116
3 37 142 123
3 15 19 20
3 10 20 19
3 20 10 28
3 17 20 44
3 28 44 20
3 44 37 17
3 26 21 22
3 27 22 23
3 36 22 21
3 39 23 22
3 30 23 24
3 40 24 23
3 76 26 27
3 22 27 26
3 27 77 76
3 77 27 30
3 45 29 34
3 28 80 82
3 82 29 28
3 29 82 89
3 23 30 27
3 24 31 30
3 30 84 77
3 84 30 31
3 85 31 32
3 31 85 84
3 32 86 85
3 25 32 31
3 31 24 25
3 33 47 46
3 32 25 47
3 46 34 33
3 47 33 32
3 89 34 29
3 91 33 34
3 86 32 33
3 34 89 91
3 33 91 86
3 21 35 36
3 22 36 39
3 141 36 35
3 35 140 141
3 36 141 148
3 142 37 38
3 144 38 43
3 38 144 142
3 23 39 40
3 46 43 38
3 41 25 24
3 24 40 41
3 43 46 47
3 42 47 25
3 25 41 42
3 47 42 43
3 148 39 36
3 149 40 39
3 150 41 40
3 39 148 149
3 40 149 150
3 43 151 144
3 153 42 41
3 151 43 42
3 42 153 151
3 41 150 153
3 44 28 29
3 37 44 45
3 29 45 44
3 45 38 37
3 38 45 46
3 34 46 45
3 56 49 48
3 51 48 50
3 48 51 56
3 50 52 51
3 52 50 58
3 62 51 52
3 64 52 59
3 57 53 49
3 55 54 53
3 49 56 57
3 53 57 55
3 54 55 61
3 63 56 51
3 51 62 63
3 66 57 56
3 67 55 57
3 56 63 66
3 57 66 67
3 58 59 52
3 59 58 76
3 65 59 78
3 76 78 59
3 61 60 54
3 60 61 81
3 81 80 60
3 68 61 55
3 52 64 62
3 71 62 64
3 72 64 65
3 59 65 64
3 78 94 65
3 74 65 94
3 55 67 68
3 61 68 99
3 75 68 67
3 68 75 105
3 99 81 61
3 105 99 68
3 69 66 63
3 73 67 66
3 70 63 62
3 62 71 70
3 66 69 73
3 63 70 69
3 67 73 75
3 64 72 71
3 180 73 69
3 179 69 70
3 70 182 179
3 69 179 180
3 73 180 189
3 182 70 71
3 183 71 72
3 71 183 182
3 72 184 183
3 184 72 74
3 65 74 72
3 191 74 103
3 94 103 74
3 189 75 73
3 75 189 215
3 215 105 75
3 74 191 184
3 103 219 191
3 78 76 77
3 79 77 84
3 94 78 79
3 77 79 78
3 95 79 87
3 80 81 83
3 83 82 80
3 82 83 90
3 84 87 79
3 87 84 85
3 88 85 86
3 85 88 87
3 86 92 88
3 96 87 88
3 90 89 82
3 93 91 89
3 92 86 91
3 91 93 92
3 89 90 93
3 101 90 83
3 98 92 93
3 97 88 92
3 92 98 97
3 102 93 90
3 90 101 102
3 93 102 98
3 79 95 94
3 103 94 95
3 104 95 96
3 87 96 95
3 88 97 96
3 109 96 97
3 81 99 100
3 99 105 106
3 100 83 81
3 83 100 101
3 106 100 99
3 111 101 100
3 100 106 111
3 219 103 104
3 95 104 103
3 105 215 217
3 217 106 105
3 106 217 223
3 104 220 219
3 220 104 109
3 107 102 101
3 108 98 102
3 110 97 98
3 98 108 110
3 101 111 107
3 102 107 108
3 96 109 104
3 97 110 109
3 223 111 106
3 225 107 111
3 227 108 107
3 111 223 225
3 107 225 227
3 109 226 220
3 226 109 110
3 228 110 108
3 110 228 226
3 108 227 228
3 119 114 112
3 118 112 113
3 113 120 118
3 112 118 119
3 114 119 125
3 120 113 115
3 121 115 116
3 115 121 120
3 116 117 121
3 117 116 123
3 131 119 118
3 129 120 121
3 126 121 117
3 130 118 120
3 120 129 130
3 121 126 129
3 117 127 126
3 127 117 124
3 125 122 114
3 146 140 122
3 124 123 142
3 123 124 117
3 142 143 124
3 122 125 146
3 132 125 119
3 162 146 125
3 135 127 128
3 124 128 127
3 128 124 143
3 138 128 158
3 143 158 128
3 158 167 138
3 118 130 131
3 137 131 130
3 119 131 132
3 125 132 162
3 139 132 131
3 169 162 132
3 134 129 126
3 133 126 127
3 126 133 134
3 127 135 133
3 136 130 129
3 129 134 136
3 198 134 133
3 193 133 135
3 133 193 198
3 135 194 193
3 194 135 138
3 130 136 137
3 131 137 139
3 199 136 134
3 200 137 136
3 134 198 199
3 136 199 200
3 137 200 205
3 128 138 135
3 203 138 167
3 138 203 194
3 167 233 203
3 132 139 169
3 237 169 139
3 205 139 137
3 139 205 237
3 147 141 140
3 141 147 154
3 143 142 144
3 145 144 151
3 144 145 143
3 140 146 147
3 163 147 146
3 159 145 152
3 154 148 141
3 155 149 148
3 156 150 149
3 148 154 155
3 149 155 156
3 151 152 145
3 152 151 153
3 157 153 150
3 153 157 152
3 150 156 157
3 164 154 147
3 166 155 154
3 160 152 157
3 161 157 156
3 165 156 155
3 155 166 165
3 157 161 160
3 156 165 161
3 158 143 145
3 167 158 159
3 145 159 158
3 159 168 167
3 168 159 160
3 152 160 159
3 146 162 163
3 147 163 164
3 170 163 162
3 174 164 163
3 154 164 166
3 175 166 164
3 233 167 168
3 235 168 173
3 168 235 233
3 162 169 170
3 163 170 174
3 238 170 169
3 169 237 238
3 170 238 246
3 160 173 168
3 173 160 161
3 171 161 165
3 161 171 173
3 172 165 166
3 166 175 172
3 165 172 171
3 173 241 235
3 241 173 171
3 243 171 172
3 171 243 241
3 172 247 243
3 164 174 175
3 246 174 170
3 248 175 174
3 247 172 175
3 175 248 247
3 174 246 248
3 181 177 178
3 190 178 211
3 204 178 177
3 178 204 234
3 211 216 190
3 234 211 178
3 185 179 182
3 181 180 179
3 182 186 185
3 179 185 181
3 180 181 190
3 186 182 183
3 187 183 184
3 183 187 186
3 184 188 187
3 188 184 191
3 176 185 186
3 177 181 185
3 186 207 176
3 185 176 177
3 207 186 187
3 187 208 207
3 208 187 188
3 209 188 192
3 190 189 180
3 189 190 216
3 216 215 189
3 191 192 188
3 192 191 219
3 178 190 181
3 210 192 221
3 219 221 192
3 194 195 196
3 197 198 193
3 196 193 194
3 193 196 197
3 195 194 203
3 176 196 195
3 196 176 207
3 195 177 176
3 207 197 196
3 197 207 208
3 208 201 197
3 177 195 204
3 201 199 198
3 198 197 201
3 199 201 202
3 202 200 199
3 200 202 206
3 209 202 201
3 204 203 233
3 203 204 195
3 233 234 204
3 206 205 200
3 239 237 205
3 210 206 202
3 205 206 239
3 251 239 206
3 188 209 208
3 201 208 209
3 202 209 210
3 192 210 209
3 221 251 210
3 206 210 251
3 216 211 212
3 211 234 236
3 212 218 216
3 218 212 213
3 236 212 211
3 242 213 212
3 215 216 218
3 218 217 215
3 217 218 224
3 221 219 220
3 222 220 226
3 251 221 222
3 220 222 221
3 252 222 231
3 224 223 217
3 229 225 223
3 230 227 225
3 223 224 229
3 225 229 230
3 226 231 222
3 232 228 227
3 231 226 228
3 228 232 231
3 227 230 232
3 213 224 218
3 214 229 224
3 254 230 229
3 224 213 214
3 229 214 254
3 255 232 230
3 230 254 255
3 253 231 232
3 234 233 235
3 236 235 241
3 235 236 234
3 212 236 242
3 240 238 237
3 238 240 249
3 237 239 240
3 252 240 239
3 241 242 236
3 242 241 243
3 244 243 247
3 243 244 242
3 247 245 244
3 213 242 244
3 214 244 245
3 244 214 213
3 245 254 214
3 250 255 254
3 254 245 250
3 249 246 238
3 250 248 246
3 245 247 248
3 246 249 250
3 248 250 245
3 253 249 240
3 255 250 249
3 222 252 251
3 239 251 252
3 240 252 253
3 231 253 252
3 232 255 253
3 249 253 255

