ISO-10303-21;
HEADER;
FILE_DESCRIPTION(('Open CASCADE Model'),'2;1');
FILE_NAME('Open CASCADE Shape Model','1970-01-01T00:00:00',('Author'),(
    'Open CASCADE'),'Open CASCADE STEP processor 8.0','Open CASCADE 8.0'
  ,'Unknown');
FILE_SCHEMA((
'AP242_MANAGED_MODEL_BASED_3D_ENGINEERING_MIM_LF {1 0 10303 442 1 1 4 }'
    ));
ENDSEC;
DATA;
#1 = APPLICATION_PROTOCOL_DEFINITION('international standard',
  'ap242_managed_model_based_3d_engineering',2013,#2);
#2 = APPLICATION_CONTEXT('Managed model based 3d engineering');
#3 = SHAPE_DEFINITION_REPRESENTATION(#4,#10);
#4 = PRODUCT_DEFINITION_SHAPE('','',#5);
#5 = PRODUCT_DEFINITION('design','',#6,#9);
#6 = PRODUCT_DEFINITION_FORMATION('','',#7);
#7 = PRODUCT('Open CASCADE STEP translator 8.0',
  'Open CASCADE STEP translator 8.0','',(#8));
#8 = PRODUCT_CONTEXT('',#2,'mechanical');
#9 = PRODUCT_DEFINITION_CONTEXT('part definition',#2,'design');
#10 = ADVANCED_BREP_SHAPE_REPRESENTATION('',(#11,#15),#489);
#11 = AXIS2_PLACEMENT_3D('',#12,#13,#14);
#12 = CARTESIAN_POINT('',(0.,0.,0.));
#13 = DIRECTION('',(0.,0.,1.));
#14 = DIRECTION('',(1.,0.,-0.));
#15 = MANIFOLD_SOLID_BREP('',#16);
#16 = CLOSED_SHELL('',(#17,#259,#337,#426,#475,#482));
#17 = ADVANCED_FACE('',(#18),#32,.T.);
#18 = FACE_BOUND('',#19,.F.);
#19 = EDGE_LOOP('',(#20,#55,#144,#172));
#20 = ORIENTED_EDGE('',*,*,#21,.T.);
#21 = EDGE_CURVE('',#22,#24,#26,.T.);
#22 = VERTEX_POINT('',#23);
#23 = CARTESIAN_POINT('',(-4.440892116083E-16,-4.440892116083E-16,0.));
#24 = VERTEX_POINT('',#25);
#25 = CARTESIAN_POINT('',(-4.440892116083E-16,-4.440892116083E-16,6.));
#26 = SURFACE_CURVE('',#27,(#31,#43),.PCURVE_S1.);
#27 = LINE('',#28,#29);
#28 = CARTESIAN_POINT('',(-4.440892116083E-16,-4.440892116083E-16,0.));
#29 = VECTOR('',#30,1.);
#30 = DIRECTION('',(0.,0.,1.));
#31 = PCURVE('',#32,#37);
#32 = CYLINDRICAL_SURFACE('',#33,7.25);
#33 = AXIS2_PLACEMENT_3D('',#34,#35,#36);
#34 = CARTESIAN_POINT('',(5.,5.25,0.));
#35 = DIRECTION('',(-0.,-0.,-1.));
#36 = DIRECTION('',(-0.689655172414,-0.724137931034,0.));
#37 = DEFINITIONAL_REPRESENTATION('',(#38),#42);
#38 = LINE('',#39,#40);
#39 = CARTESIAN_POINT('',(-0.,0.));
#40 = VECTOR('',#41,1.);
#41 = DIRECTION('',(-0.,-1.));
#42 = ( GEOMETRIC_REPRESENTATION_CONTEXT(2) 
PARAMETRIC_REPRESENTATION_CONTEXT() REPRESENTATION_CONTEXT('2D SPACE',''
  ) );
#43 = PCURVE('',#44,#49);
#44 = PLANE('',#45);
#45 = AXIS2_PLACEMENT_3D('',#46,#47,#48);
#46 = CARTESIAN_POINT('',(0.,10.,0.));
#47 = DIRECTION('',(1.,0.,-0.));
#48 = DIRECTION('',(0.,-1.,0.));
#49 = DEFINITIONAL_REPRESENTATION('',(#50),#54);
#50 = LINE('',#51,#52);
#51 = CARTESIAN_POINT('',(10.,0.));
#52 = VECTOR('',#53,1.);
#53 = DIRECTION('',(0.,-1.));
#54 = ( GEOMETRIC_REPRESENTATION_CONTEXT(2) 
PARAMETRIC_REPRESENTATION_CONTEXT() REPRESENTATION_CONTEXT('2D SPACE',''
  ) );
#55 = ORIENTED_EDGE('',*,*,#56,.T.);
#56 = EDGE_CURVE('',#24,#57,#59,.T.);
#57 = VERTEX_POINT('',#58);
#58 = CARTESIAN_POINT('',(10.,-4.440892098501E-16,6.));
#59 = SURFACE_CURVE('',#60,(#65,#72),.PCURVE_S1.);
#60 = CIRCLE('',#61,7.25);
#61 = AXIS2_PLACEMENT_3D('',#62,#63,#64);
#62 = CARTESIAN_POINT('',(5.,5.25,6.));
#63 = DIRECTION('',(0.,0.,1.));
#64 = DIRECTION('',(-0.689655172414,-0.724137931034,0.));
#65 = PCURVE('',#32,#66);
#66 = DEFINITIONAL_REPRESENTATION('',(#67),#71);
#67 = LINE('',#68,#69);
#68 = CARTESIAN_POINT('',(-0.,-6.));
#69 = VECTOR('',#70,1.);
#70 = DIRECTION('',(-1.,0.));
#71 = ( GEOMETRIC_REPRESENTATION_CONTEXT(2) 
PARAMETRIC_REPRESENTATION_CONTEXT() REPRESENTATION_CONTEXT('2D SPACE',''
  ) );
#72 = PCURVE('',#73,#130);
#73 = B_SPLINE_SURFACE_WITH_KNOTS('',6,7,(
    (#74,#75,#76,#77,#78,#79,#80,#81)
    ,(#82,#83,#84,#85,#86,#87,#88,#89)
    ,(#90,#91,#92,#93,#94,#95,#96,#97)
    ,(#98,#99,#100,#101,#102,#103,#104,#105)
    ,(#106,#107,#108,#109,#110,#111,#112,#113)
    ,(#114,#115,#116,#117,#118,#119,#120,#121)
    ,(#122,#123,#124,#125,#126,#127,#128,#129
  )),.UNSPECIFIED.,.F.,.F.,.F.,(7,7),(8,8),(-7.337818908669,
    5.862180754669),(-5.5,5.5),.PIECEWISE_BEZIER_KNOTS.);
#74 = CARTESIAN_POINT('',(-0.499998710744,-2.66707377453,6.));
#75 = CARTESIAN_POINT('',(1.071434862174,-2.667073929965,6.));
#76 = CARTESIAN_POINT('',(2.642840226273,-2.667073870097,6.));
#77 = CARTESIAN_POINT('',(4.214274343022,-2.667073791116,6.));
#78 = CARTESIAN_POINT('',(5.785725656978,-2.667073791116,6.));
#79 = CARTESIAN_POINT('',(7.357159773727,-2.667073870097,6.));
#80 = CARTESIAN_POINT('',(8.928565137826,-2.667073929965,6.));
#81 = CARTESIAN_POINT('',(10.499998710744,-2.66707377453,6.));
#82 = CARTESIAN_POINT('',(-0.49999453824,-0.467074813707,6.));
#83 = CARTESIAN_POINT('',(1.071443425107,-0.467075324647,6.));
#84 = CARTESIAN_POINT('',(2.642906460986,-0.467074915648,6.));
#85 = CARTESIAN_POINT('',(4.214148672782,-0.467074192751,6.));
#86 = CARTESIAN_POINT('',(5.785851327219,-0.467074192752,6.));
#87 = CARTESIAN_POINT('',(7.357093539013,-0.467074915648,6.));
#88 = CARTESIAN_POINT('',(8.928556574894,-0.467075324647,6.));
#89 = CARTESIAN_POINT('',(10.49999453824,-0.467074813707,6.));
#90 = CARTESIAN_POINT('',(-0.499993680324,1.732924831556,6.));
#91 = CARTESIAN_POINT('',(1.071394479816,1.732926887225,6.));
#92 = CARTESIAN_POINT('',(2.642924813718,1.732911268274,6.));
#93 = CARTESIAN_POINT('',(4.214413250396,1.732932457613,6.));
#94 = CARTESIAN_POINT('',(5.785586749604,1.732932457614,6.));
#95 = CARTESIAN_POINT('',(7.357075186282,1.732911268273,6.));
#96 = CARTESIAN_POINT('',(8.928605520185,1.732926887225,6.));
#97 = CARTESIAN_POINT('',(10.499993680324,1.732924831556,6.));
#98 = CARTESIAN_POINT('',(-0.49999496872,3.93292492493,6.));
#99 = CARTESIAN_POINT('',(1.071433663195,3.932925552223,6.));
#100 = CARTESIAN_POINT('',(2.642562828714,3.932939133004,6.));
#101 = CARTESIAN_POINT('',(4.214658723302,3.932919890715,6.));
#102 = CARTESIAN_POINT('',(5.785341276698,3.932919890714,6.));
#103 = CARTESIAN_POINT('',(7.357437171287,3.932939133004,6.));
#104 = CARTESIAN_POINT('',(8.928566336805,3.932925552222,6.));
#105 = CARTESIAN_POINT('',(10.49999496872,3.93292492493,6.));
#106 = CARTESIAN_POINT('',(-0.49999723515,6.132925230087,6.));
#107 = CARTESIAN_POINT('',(1.071419166723,6.132925901079,6.));
#108 = CARTESIAN_POINT('',(2.642937410614,6.132921108225,6.));
#109 = CARTESIAN_POINT('',(4.214177652133,6.132929159104,6.));
#110 = CARTESIAN_POINT('',(5.785822347867,6.132929159105,6.));
#111 = CARTESIAN_POINT('',(7.357062589386,6.132921108224,6.));
#112 = CARTESIAN_POINT('',(8.928580833277,6.13292590108,6.));
#113 = CARTESIAN_POINT('',(10.49999723515,6.132925230088,6.));
#114 = CARTESIAN_POINT('',(-0.499999311336,8.332925510702,6.));
#115 = CARTESIAN_POINT('',(1.071426836004,8.332925716443,6.));
#116 = CARTESIAN_POINT('',(2.64285521067,8.332925853604,6.));
#117 = CARTESIAN_POINT('',(4.214284921736,8.332925922185,6.));
#118 = CARTESIAN_POINT('',(5.785715078264,8.332925922184,6.));
#119 = CARTESIAN_POINT('',(7.35714478933,8.332925853605,6.));
#120 = CARTESIAN_POINT('',(8.928573163996,8.332925716443,6.));
#121 = CARTESIAN_POINT('',(10.499999311336,8.332925510702,6.));
#122 = CARTESIAN_POINT('',(-0.500000029,10.532925530445,6.));
#123 = CARTESIAN_POINT('',(1.071428076702,10.532925548671,6.));
#124 = CARTESIAN_POINT('',(2.642856656417,10.53292556082,6.));
#125 = CARTESIAN_POINT('',(4.214285520538,10.532925566896,6.));
#126 = CARTESIAN_POINT('',(5.785714479462,10.532925566895,6.));
#127 = CARTESIAN_POINT('',(7.357143343583,10.532925560821,6.));
#128 = CARTESIAN_POINT('',(8.928571923298,10.53292554867,6.));
#129 = CARTESIAN_POINT('',(10.500000029,10.532925530445,6.));
#130 = DEFINITIONAL_REPRESENTATION('',(#131),#143);
#131 = B_SPLINE_CURVE_WITH_KNOTS('',10,(#132,#133,#134,#135,#136,#137,
    #138,#139,#140,#141,#142),.UNSPECIFIED.,.F.,.F.,(11,11),(0.,
    1.522025508449),.PIECEWISE_BEZIER_KNOTS.);
#132 = CARTESIAN_POINT('',(-4.670744768483,-5.));
#133 = CARTESIAN_POINT('',(-5.431757684287,-4.200936438406));
#134 = CARTESIAN_POINT('',(-6.057634509243,-3.273225884647));
#135 = CARTESIAN_POINT('',(-6.523960478376,-2.242352410515));
#136 = CARTESIAN_POINT('',(-6.811483542294,-1.139755444873));
#137 = CARTESIAN_POINT('',(-6.909147338561,4.338751580235E-13));
#138 = CARTESIAN_POINT('',(-6.811483542295,1.139755444872));
#139 = CARTESIAN_POINT('',(-6.523960478375,2.242352410515));
#140 = CARTESIAN_POINT('',(-6.057634509243,3.273225884647));
#141 = CARTESIAN_POINT('',(-5.431757684287,4.200936438406));
#142 = CARTESIAN_POINT('',(-4.670744768483,5.));
#143 = ( GEOMETRIC_REPRESENTATION_CONTEXT(2) 
PARAMETRIC_REPRESENTATION_CONTEXT() REPRESENTATION_CONTEXT('2D SPACE',''
  ) );
#144 = ORIENTED_EDGE('',*,*,#145,.F.);
#145 = EDGE_CURVE('',#146,#57,#148,.T.);
#146 = VERTEX_POINT('',#147);
#147 = CARTESIAN_POINT('',(10.,-4.440892098501E-16,0.));
#148 = SURFACE_CURVE('',#149,(#153,#160),.PCURVE_S1.);
#149 = LINE('',#150,#151);
#150 = CARTESIAN_POINT('',(10.,-4.440892098501E-16,0.));
#151 = VECTOR('',#152,1.);
#152 = DIRECTION('',(0.,0.,1.));
#153 = PCURVE('',#32,#154);
#154 = DEFINITIONAL_REPRESENTATION('',(#155),#159);
#155 = LINE('',#156,#157);
#156 = CARTESIAN_POINT('',(-1.522025508449,0.));
#157 = VECTOR('',#158,1.);
#158 = DIRECTION('',(-0.,-1.));
#159 = ( GEOMETRIC_REPRESENTATION_CONTEXT(2) 
PARAMETRIC_REPRESENTATION_CONTEXT() REPRESENTATION_CONTEXT('2D SPACE',''
  ) );
#160 = PCURVE('',#161,#166);
#161 = PLANE('',#162);
#162 = AXIS2_PLACEMENT_3D('',#163,#164,#165);
#163 = CARTESIAN_POINT('',(10.,0.,0.));
#164 = DIRECTION('',(-1.,0.,0.));
#165 = DIRECTION('',(0.,1.,0.));
#166 = DEFINITIONAL_REPRESENTATION('',(#167),#171);
#167 = LINE('',#168,#169);
#168 = CARTESIAN_POINT('',(-4.440892098501E-16,0.));
#169 = VECTOR('',#170,1.);
#170 = DIRECTION('',(0.,-1.));
#171 = ( GEOMETRIC_REPRESENTATION_CONTEXT(2) 
PARAMETRIC_REPRESENTATION_CONTEXT() REPRESENTATION_CONTEXT('2D SPACE',''
  ) );
#172 = ORIENTED_EDGE('',*,*,#173,.F.);
#173 = EDGE_CURVE('',#22,#146,#174,.T.);
#174 = SURFACE_CURVE('',#175,(#180,#187),.PCURVE_S1.);
#175 = CIRCLE('',#176,7.25);
#176 = AXIS2_PLACEMENT_3D('',#177,#178,#179);
#177 = CARTESIAN_POINT('',(5.,5.25,0.));
#178 = DIRECTION('',(0.,0.,1.));
#179 = DIRECTION('',(-0.689655172414,-0.724137931034,0.));
#180 = PCURVE('',#32,#181);
#181 = DEFINITIONAL_REPRESENTATION('',(#182),#186);
#182 = LINE('',#183,#184);
#183 = CARTESIAN_POINT('',(-0.,0.));
#184 = VECTOR('',#185,1.);
#185 = DIRECTION('',(-1.,0.));
#186 = ( GEOMETRIC_REPRESENTATION_CONTEXT(2) 
PARAMETRIC_REPRESENTATION_CONTEXT() REPRESENTATION_CONTEXT('2D SPACE',''
  ) );
#187 = PCURVE('',#188,#245);
#188 = B_SPLINE_SURFACE_WITH_KNOTS('',6,7,(
    (#189,#190,#191,#192,#193,#194,#195,#196)
    ,(#197,#198,#199,#200,#201,#202,#203,#204)
    ,(#205,#206,#207,#208,#209,#210,#211,#212)
    ,(#213,#214,#215,#216,#217,#218,#219,#220)
    ,(#221,#222,#223,#224,#225,#226,#227,#228)
    ,(#229,#230,#231,#232,#233,#234,#235,#236)
    ,(#237,#238,#239,#240,#241,#242,#243,#244
  )),.UNSPECIFIED.,.F.,.F.,.F.,(7,7),(8,8),(-7.337818908669,
    5.862180754669),(-5.5,5.5),.PIECEWISE_BEZIER_KNOTS.);
#189 = CARTESIAN_POINT('',(-0.499998710744,-2.66707377453,0.));
#190 = CARTESIAN_POINT('',(1.071434862174,-2.667073929965,0.));
#191 = CARTESIAN_POINT('',(2.642840226273,-2.667073870097,0.));
#192 = CARTESIAN_POINT('',(4.214274343022,-2.667073791116,0.));
#193 = CARTESIAN_POINT('',(5.785725656978,-2.667073791116,0.));
#194 = CARTESIAN_POINT('',(7.357159773727,-2.667073870097,0.));
#195 = CARTESIAN_POINT('',(8.928565137826,-2.667073929965,0.));
#196 = CARTESIAN_POINT('',(10.499998710744,-2.66707377453,0.));
#197 = CARTESIAN_POINT('',(-0.49999453824,-0.467074813707,0.));
#198 = CARTESIAN_POINT('',(1.071443425107,-0.467075324647,0.));
#199 = CARTESIAN_POINT('',(2.642906460986,-0.467074915648,0.));
#200 = CARTESIAN_POINT('',(4.214148672782,-0.467074192751,0.));
#201 = CARTESIAN_POINT('',(5.785851327219,-0.467074192752,0.));
#202 = CARTESIAN_POINT('',(7.357093539013,-0.467074915648,0.));
#203 = CARTESIAN_POINT('',(8.928556574894,-0.467075324647,0.));
#204 = CARTESIAN_POINT('',(10.49999453824,-0.467074813707,0.));
#205 = CARTESIAN_POINT('',(-0.499993680324,1.732924831556,0.));
#206 = CARTESIAN_POINT('',(1.071394479816,1.732926887225,0.));
#207 = CARTESIAN_POINT('',(2.642924813718,1.732911268274,0.));
#208 = CARTESIAN_POINT('',(4.214413250396,1.732932457613,0.));
#209 = CARTESIAN_POINT('',(5.785586749604,1.732932457614,0.));
#210 = CARTESIAN_POINT('',(7.357075186282,1.732911268273,0.));
#211 = CARTESIAN_POINT('',(8.928605520185,1.732926887225,0.));
#212 = CARTESIAN_POINT('',(10.499993680324,1.732924831556,0.));
#213 = CARTESIAN_POINT('',(-0.49999496872,3.93292492493,0.));
#214 = CARTESIAN_POINT('',(1.071433663195,3.932925552223,0.));
#215 = CARTESIAN_POINT('',(2.642562828714,3.932939133004,0.));
#216 = CARTESIAN_POINT('',(4.214658723302,3.932919890715,0.));
#217 = CARTESIAN_POINT('',(5.785341276698,3.932919890714,0.));
#218 = CARTESIAN_POINT('',(7.357437171287,3.932939133004,0.));
#219 = CARTESIAN_POINT('',(8.928566336805,3.932925552222,0.));
#220 = CARTESIAN_POINT('',(10.49999496872,3.93292492493,0.));
#221 = CARTESIAN_POINT('',(-0.49999723515,6.132925230087,0.));
#222 = CARTESIAN_POINT('',(1.071419166723,6.132925901079,0.));
#223 = CARTESIAN_POINT('',(2.642937410614,6.132921108225,0.));
#224 = CARTESIAN_POINT('',(4.214177652133,6.132929159104,0.));
#225 = CARTESIAN_POINT('',(5.785822347867,6.132929159105,0.));
#226 = CARTESIAN_POINT('',(7.357062589386,6.132921108224,0.));
#227 = CARTESIAN_POINT('',(8.928580833277,6.13292590108,0.));
#228 = CARTESIAN_POINT('',(10.49999723515,6.132925230088,0.));
#229 = CARTESIAN_POINT('',(-0.499999311336,8.332925510702,0.));
#230 = CARTESIAN_POINT('',(1.071426836004,8.332925716443,0.));
#231 = CARTESIAN_POINT('',(2.64285521067,8.332925853604,0.));
#232 = CARTESIAN_POINT('',(4.214284921736,8.332925922185,0.));
#233 = CARTESIAN_POINT('',(5.785715078264,8.332925922184,0.));
#234 = CARTESIAN_POINT('',(7.35714478933,8.332925853605,0.));
#235 = CARTESIAN_POINT('',(8.928573163996,8.332925716443,0.));
#236 = CARTESIAN_POINT('',(10.499999311336,8.332925510702,0.));
#237 = CARTESIAN_POINT('',(-0.500000029,10.532925530445,0.));
#238 = CARTESIAN_POINT('',(1.071428076702,10.532925548671,0.));
#239 = CARTESIAN_POINT('',(2.642856656417,10.53292556082,0.));
#240 = CARTESIAN_POINT('',(4.214285520538,10.532925566896,0.));
#241 = CARTESIAN_POINT('',(5.785714479462,10.532925566895,0.));
#242 = CARTESIAN_POINT('',(7.357143343583,10.532925560821,0.));
#243 = CARTESIAN_POINT('',(8.928571923298,10.53292554867,0.));
#244 = CARTESIAN_POINT('',(10.500000029,10.532925530445,0.));
#245 = DEFINITIONAL_REPRESENTATION('',(#246),#258);
#246 = B_SPLINE_CURVE_WITH_KNOTS('',10,(#247,#248,#249,#250,#251,#252,
    #253,#254,#255,#256,#257),.UNSPECIFIED.,.F.,.F.,(11,11),(0.,
    1.522025508449),.PIECEWISE_BEZIER_KNOTS.);
#247 = CARTESIAN_POINT('',(-4.670744768483,-5.));
#248 = CARTESIAN_POINT('',(-5.431757684287,-4.200936438406));
#249 = CARTESIAN_POINT('',(-6.057634509243,-3.273225884647));
#250 = CARTESIAN_POINT('',(-6.523960478376,-2.242352410515));
#251 = CARTESIAN_POINT('',(-6.811483542294,-1.139755444873));
#252 = CARTESIAN_POINT('',(-6.909147338561,4.338751580235E-13));
#253 = CARTESIAN_POINT('',(-6.811483542295,1.139755444872));
#254 = CARTESIAN_POINT('',(-6.523960478375,2.242352410515));
#255 = CARTESIAN_POINT('',(-6.057634509243,3.273225884647));
#256 = CARTESIAN_POINT('',(-5.431757684287,4.200936438406));
#257 = CARTESIAN_POINT('',(-4.670744768483,5.));
#258 = ( GEOMETRIC_REPRESENTATION_CONTEXT(2) 
PARAMETRIC_REPRESENTATION_CONTEXT() REPRESENTATION_CONTEXT('2D SPACE',''
  ) );
#259 = ADVANCED_FACE('',(#260),#161,.F.);
#260 = FACE_BOUND('',#261,.F.);
#261 = EDGE_LOOP('',(#262,#263,#287,#315));
#262 = ORIENTED_EDGE('',*,*,#145,.T.);
#263 = ORIENTED_EDGE('',*,*,#264,.T.);
#264 = EDGE_CURVE('',#57,#265,#267,.T.);
#265 = VERTEX_POINT('',#266);
#266 = CARTESIAN_POINT('',(10.,10.,6.));
#267 = SURFACE_CURVE('',#268,(#272,#279),.PCURVE_S1.);
#268 = LINE('',#269,#270);
#269 = CARTESIAN_POINT('',(10.,0.,6.));
#270 = VECTOR('',#271,1.);
#271 = DIRECTION('',(0.,1.,0.));
#272 = PCURVE('',#161,#273);
#273 = DEFINITIONAL_REPRESENTATION('',(#274),#278);
#274 = LINE('',#275,#276);
#275 = CARTESIAN_POINT('',(0.,-6.));
#276 = VECTOR('',#277,1.);
#277 = DIRECTION('',(1.,0.));
#278 = ( GEOMETRIC_REPRESENTATION_CONTEXT(2) 
PARAMETRIC_REPRESENTATION_CONTEXT() REPRESENTATION_CONTEXT('2D SPACE',''
  ) );
#279 = PCURVE('',#73,#280);
#280 = DEFINITIONAL_REPRESENTATION('',(#281),#286);
#281 = B_SPLINE_CURVE_WITH_KNOTS('',3,(#282,#283,#284,#285),
  .UNSPECIFIED.,.F.,.F.,(4,4),(0.,10.),.PIECEWISE_BEZIER_KNOTS.);
#282 = CARTESIAN_POINT('',(-4.670744768483,5.));
#283 = CARTESIAN_POINT('',(-1.337411048218,5.));
#284 = CARTESIAN_POINT('',(1.995922012576,5.));
#285 = CARTESIAN_POINT('',(5.329255231517,5.));
#286 = ( GEOMETRIC_REPRESENTATION_CONTEXT(2) 
PARAMETRIC_REPRESENTATION_CONTEXT() REPRESENTATION_CONTEXT('2D SPACE',''
  ) );
#287 = ORIENTED_EDGE('',*,*,#288,.F.);
#288 = EDGE_CURVE('',#289,#265,#291,.T.);
#289 = VERTEX_POINT('',#290);
#290 = CARTESIAN_POINT('',(10.,10.,0.));
#291 = SURFACE_CURVE('',#292,(#296,#303),.PCURVE_S1.);
#292 = LINE('',#293,#294);
#293 = CARTESIAN_POINT('',(10.,10.,0.));
#294 = VECTOR('',#295,1.);
#295 = DIRECTION('',(0.,0.,1.));
#296 = PCURVE('',#161,#297);
#297 = DEFINITIONAL_REPRESENTATION('',(#298),#302);
#298 = LINE('',#299,#300);
#299 = CARTESIAN_POINT('',(10.,0.));
#300 = VECTOR('',#301,1.);
#301 = DIRECTION('',(0.,-1.));
#302 = ( GEOMETRIC_REPRESENTATION_CONTEXT(2) 
PARAMETRIC_REPRESENTATION_CONTEXT() REPRESENTATION_CONTEXT('2D SPACE',''
  ) );
#303 = PCURVE('',#304,#309);
#304 = PLANE('',#305);
#305 = AXIS2_PLACEMENT_3D('',#306,#307,#308);
#306 = CARTESIAN_POINT('',(10.,10.,0.));
#307 = DIRECTION('',(0.,-1.,0.));
#308 = DIRECTION('',(-1.,0.,0.));
#309 = DEFINITIONAL_REPRESENTATION('',(#310),#314);
#310 = LINE('',#311,#312);
#311 = CARTESIAN_POINT('',(0.,-0.));
#312 = VECTOR('',#313,1.);
#313 = DIRECTION('',(0.,-1.));
#314 = ( GEOMETRIC_REPRESENTATION_CONTEXT(2) 
PARAMETRIC_REPRESENTATION_CONTEXT() REPRESENTATION_CONTEXT('2D SPACE',''
  ) );
#315 = ORIENTED_EDGE('',*,*,#316,.F.);
#316 = EDGE_CURVE('',#146,#289,#317,.T.);
#317 = SURFACE_CURVE('',#318,(#322,#329),.PCURVE_S1.);
#318 = LINE('',#319,#320);
#319 = CARTESIAN_POINT('',(10.,0.,0.));
#320 = VECTOR('',#321,1.);
#321 = DIRECTION('',(0.,1.,0.));
#322 = PCURVE('',#161,#323);
#323 = DEFINITIONAL_REPRESENTATION('',(#324),#328);
#324 = LINE('',#325,#326);
#325 = CARTESIAN_POINT('',(0.,0.));
#326 = VECTOR('',#327,1.);
#327 = DIRECTION('',(1.,0.));
#328 = ( GEOMETRIC_REPRESENTATION_CONTEXT(2) 
PARAMETRIC_REPRESENTATION_CONTEXT() REPRESENTATION_CONTEXT('2D SPACE',''
  ) );
#329 = PCURVE('',#188,#330);
#330 = DEFINITIONAL_REPRESENTATION('',(#331),#336);
#331 = B_SPLINE_CURVE_WITH_KNOTS('',3,(#332,#333,#334,#335),
  .UNSPECIFIED.,.F.,.F.,(4,4),(0.,10.),.PIECEWISE_BEZIER_KNOTS.);
#332 = CARTESIAN_POINT('',(-4.670744768483,5.));
#333 = CARTESIAN_POINT('',(-1.337411048218,5.));
#334 = CARTESIAN_POINT('',(1.995922012576,5.));
#335 = CARTESIAN_POINT('',(5.329255231517,5.));
#336 = ( GEOMETRIC_REPRESENTATION_CONTEXT(2) 
PARAMETRIC_REPRESENTATION_CONTEXT() REPRESENTATION_CONTEXT('2D SPACE',''
  ) );
#337 = ADVANCED_FACE('',(#338),#304,.F.);
#338 = FACE_BOUND('',#339,.F.);
#339 = EDGE_LOOP('',(#340,#341,#373,#396));
#340 = ORIENTED_EDGE('',*,*,#288,.T.);
#341 = ORIENTED_EDGE('',*,*,#342,.T.);
#342 = EDGE_CURVE('',#265,#343,#345,.T.);
#343 = VERTEX_POINT('',#344);
#344 = CARTESIAN_POINT('',(0.,10.,6.));
#345 = SURFACE_CURVE('',#346,(#350,#357),.PCURVE_S1.);
#346 = LINE('',#347,#348);
#347 = CARTESIAN_POINT('',(10.,10.,6.));
#348 = VECTOR('',#349,1.);
#349 = DIRECTION('',(-1.,0.,0.));
#350 = PCURVE('',#304,#351);
#351 = DEFINITIONAL_REPRESENTATION('',(#352),#356);
#352 = LINE('',#353,#354);
#353 = CARTESIAN_POINT('',(0.,-6.));
#354 = VECTOR('',#355,1.);
#355 = DIRECTION('',(1.,0.));
#356 = ( GEOMETRIC_REPRESENTATION_CONTEXT(2) 
PARAMETRIC_REPRESENTATION_CONTEXT() REPRESENTATION_CONTEXT('2D SPACE',''
  ) );
#357 = PCURVE('',#73,#358);
#358 = DEFINITIONAL_REPRESENTATION('',(#359),#372);
#359 = B_SPLINE_CURVE_WITH_KNOTS('',11,(#360,#361,#362,#363,#364,#365,
    #366,#367,#368,#369,#370,#371),.UNSPECIFIED.,.F.,.F.,(12,12),(0.,10.
    ),.PIECEWISE_BEZIER_KNOTS.);
#360 = CARTESIAN_POINT('',(5.329255231517,5.));
#361 = CARTESIAN_POINT('',(5.329255231517,4.090908761055));
#362 = CARTESIAN_POINT('',(5.329255231518,3.181816622374));
#363 = CARTESIAN_POINT('',(5.329255231515,2.272731298384));
#364 = CARTESIAN_POINT('',(5.32925523152,1.363626700761));
#365 = CARTESIAN_POINT('',(5.329255231513,0.454558319582));
#366 = CARTESIAN_POINT('',(5.329255231521,-0.454558319583));
#367 = CARTESIAN_POINT('',(5.329255231514,-1.363626700761));
#368 = CARTESIAN_POINT('',(5.329255231519,-2.272731298384));
#369 = CARTESIAN_POINT('',(5.329255231516,-3.181816622374));
#370 = CARTESIAN_POINT('',(5.329255231517,-4.090908761055));
#371 = CARTESIAN_POINT('',(5.329255231517,-5.));
#372 = ( GEOMETRIC_REPRESENTATION_CONTEXT(2) 
PARAMETRIC_REPRESENTATION_CONTEXT() REPRESENTATION_CONTEXT('2D SPACE',''
  ) );
#373 = ORIENTED_EDGE('',*,*,#374,.F.);
#374 = EDGE_CURVE('',#375,#343,#377,.T.);
#375 = VERTEX_POINT('',#376);
#376 = CARTESIAN_POINT('',(0.,10.,0.));
#377 = SURFACE_CURVE('',#378,(#382,#389),.PCURVE_S1.);
#378 = LINE('',#379,#380);
#379 = CARTESIAN_POINT('',(0.,10.,0.));
#380 = VECTOR('',#381,1.);
#381 = DIRECTION('',(0.,0.,1.));
#382 = PCURVE('',#304,#383);
#383 = DEFINITIONAL_REPRESENTATION('',(#384),#388);
#384 = LINE('',#385,#386);
#385 = CARTESIAN_POINT('',(10.,0.));
#386 = VECTOR('',#387,1.);
#387 = DIRECTION('',(0.,-1.));
#388 = ( GEOMETRIC_REPRESENTATION_CONTEXT(2) 
PARAMETRIC_REPRESENTATION_CONTEXT() REPRESENTATION_CONTEXT('2D SPACE',''
  ) );
#389 = PCURVE('',#44,#390);
#390 = DEFINITIONAL_REPRESENTATION('',(#391),#395);
#391 = LINE('',#392,#393);
#392 = CARTESIAN_POINT('',(0.,0.));
#393 = VECTOR('',#394,1.);
#394 = DIRECTION('',(0.,-1.));
#395 = ( GEOMETRIC_REPRESENTATION_CONTEXT(2) 
PARAMETRIC_REPRESENTATION_CONTEXT() REPRESENTATION_CONTEXT('2D SPACE',''
  ) );
#396 = ORIENTED_EDGE('',*,*,#397,.F.);
#397 = EDGE_CURVE('',#289,#375,#398,.T.);
#398 = SURFACE_CURVE('',#399,(#403,#410),.PCURVE_S1.);
#399 = LINE('',#400,#401);
#400 = CARTESIAN_POINT('',(10.,10.,0.));
#401 = VECTOR('',#402,1.);
#402 = DIRECTION('',(-1.,0.,0.));
#403 = PCURVE('',#304,#404);
#404 = DEFINITIONAL_REPRESENTATION('',(#405),#409);
#405 = LINE('',#406,#407);
#406 = CARTESIAN_POINT('',(0.,-0.));
#407 = VECTOR('',#408,1.);
#408 = DIRECTION('',(1.,0.));
#409 = ( GEOMETRIC_REPRESENTATION_CONTEXT(2) 
PARAMETRIC_REPRESENTATION_CONTEXT() REPRESENTATION_CONTEXT('2D SPACE',''
  ) );
#410 = PCURVE('',#188,#411);
#411 = DEFINITIONAL_REPRESENTATION('',(#412),#425);
#412 = B_SPLINE_CURVE_WITH_KNOTS('',11,(#413,#414,#415,#416,#417,#418,
    #419,#420,#421,#422,#423,#424),.UNSPECIFIED.,.F.,.F.,(12,12),(0.,10.
    ),.PIECEWISE_BEZIER_KNOTS.);
#413 = CARTESIAN_POINT('',(5.329255231517,5.));
#414 = CARTESIAN_POINT('',(5.329255231517,4.090908761055));
#415 = CARTESIAN_POINT('',(5.329255231518,3.181816622374));
#416 = CARTESIAN_POINT('',(5.329255231515,2.272731298384));
#417 = CARTESIAN_POINT('',(5.32925523152,1.363626700761));
#418 = CARTESIAN_POINT('',(5.329255231513,0.454558319582));
#419 = CARTESIAN_POINT('',(5.329255231521,-0.454558319583));
#420 = CARTESIAN_POINT('',(5.329255231514,-1.363626700761));
#421 = CARTESIAN_POINT('',(5.329255231519,-2.272731298384));
#422 = CARTESIAN_POINT('',(5.329255231516,-3.181816622374));
#423 = CARTESIAN_POINT('',(5.329255231517,-4.090908761055));
#424 = CARTESIAN_POINT('',(5.329255231517,-5.));
#425 = ( GEOMETRIC_REPRESENTATION_CONTEXT(2) 
PARAMETRIC_REPRESENTATION_CONTEXT() REPRESENTATION_CONTEXT('2D SPACE',''
  ) );
#426 = ADVANCED_FACE('',(#427),#44,.F.);
#427 = FACE_BOUND('',#428,.F.);
#428 = EDGE_LOOP('',(#429,#430,#452,#453));
#429 = ORIENTED_EDGE('',*,*,#374,.T.);
#430 = ORIENTED_EDGE('',*,*,#431,.T.);
#431 = EDGE_CURVE('',#343,#24,#432,.T.);
#432 = SURFACE_CURVE('',#433,(#437,#444),.PCURVE_S1.);
#433 = LINE('',#434,#435);
#434 = CARTESIAN_POINT('',(0.,10.,6.));
#435 = VECTOR('',#436,1.);
#436 = DIRECTION('',(0.,-1.,0.));
#437 = PCURVE('',#44,#438);
#438 = DEFINITIONAL_REPRESENTATION('',(#439),#443);
#439 = LINE('',#440,#441);
#440 = CARTESIAN_POINT('',(0.,-6.));
#441 = VECTOR('',#442,1.);
#442 = DIRECTION('',(1.,0.));
#443 = ( GEOMETRIC_REPRESENTATION_CONTEXT(2) 
PARAMETRIC_REPRESENTATION_CONTEXT() REPRESENTATION_CONTEXT('2D SPACE',''
  ) );
#444 = PCURVE('',#73,#445);
#445 = DEFINITIONAL_REPRESENTATION('',(#446),#451);
#446 = B_SPLINE_CURVE_WITH_KNOTS('',3,(#447,#448,#449,#450),
  .UNSPECIFIED.,.F.,.F.,(4,4),(0.,10.),.PIECEWISE_BEZIER_KNOTS.);
#447 = CARTESIAN_POINT('',(5.329255231517,-5.));
#448 = CARTESIAN_POINT('',(1.995922012576,-5.));
#449 = CARTESIAN_POINT('',(-1.337411048218,-5.));
#450 = CARTESIAN_POINT('',(-4.670744768483,-5.));
#451 = ( GEOMETRIC_REPRESENTATION_CONTEXT(2) 
PARAMETRIC_REPRESENTATION_CONTEXT() REPRESENTATION_CONTEXT('2D SPACE',''
  ) );
#452 = ORIENTED_EDGE('',*,*,#21,.F.);
#453 = ORIENTED_EDGE('',*,*,#454,.F.);
#454 = EDGE_CURVE('',#375,#22,#455,.T.);
#455 = SURFACE_CURVE('',#456,(#460,#467),.PCURVE_S1.);
#456 = LINE('',#457,#458);
#457 = CARTESIAN_POINT('',(0.,10.,0.));
#458 = VECTOR('',#459,1.);
#459 = DIRECTION('',(0.,-1.,0.));
#460 = PCURVE('',#44,#461);
#461 = DEFINITIONAL_REPRESENTATION('',(#462),#466);
#462 = LINE('',#463,#464);
#463 = CARTESIAN_POINT('',(0.,0.));
#464 = VECTOR('',#465,1.);
#465 = DIRECTION('',(1.,0.));
#466 = ( GEOMETRIC_REPRESENTATION_CONTEXT(2) 
PARAMETRIC_REPRESENTATION_CONTEXT() REPRESENTATION_CONTEXT('2D SPACE',''
  ) );
#467 = PCURVE('',#188,#468);
#468 = DEFINITIONAL_REPRESENTATION('',(#469),#474);
#469 = B_SPLINE_CURVE_WITH_KNOTS('',3,(#470,#471,#472,#473),
  .UNSPECIFIED.,.F.,.F.,(4,4),(0.,10.),.PIECEWISE_BEZIER_KNOTS.);
#470 = CARTESIAN_POINT('',(5.329255231517,-5.));
#471 = CARTESIAN_POINT('',(1.995922012576,-5.));
#472 = CARTESIAN_POINT('',(-1.337411048218,-5.));
#473 = CARTESIAN_POINT('',(-4.670744768483,-5.));
#474 = ( GEOMETRIC_REPRESENTATION_CONTEXT(2) 
PARAMETRIC_REPRESENTATION_CONTEXT() REPRESENTATION_CONTEXT('2D SPACE',''
  ) );
#475 = ADVANCED_FACE('',(#476),#188,.T.);
#476 = FACE_BOUND('',#477,.F.);
#477 = EDGE_LOOP('',(#478,#479,#480,#481));
#478 = ORIENTED_EDGE('',*,*,#173,.T.);
#479 = ORIENTED_EDGE('',*,*,#316,.T.);
#480 = ORIENTED_EDGE('',*,*,#397,.T.);
#481 = ORIENTED_EDGE('',*,*,#454,.T.);
#482 = ADVANCED_FACE('',(#483),#73,.F.);
#483 = FACE_BOUND('',#484,.T.);
#484 = EDGE_LOOP('',(#485,#486,#487,#488));
#485 = ORIENTED_EDGE('',*,*,#56,.T.);
#486 = ORIENTED_EDGE('',*,*,#264,.T.);
#487 = ORIENTED_EDGE('',*,*,#342,.T.);
#488 = ORIENTED_EDGE('',*,*,#431,.T.);
#489 = ( GEOMETRIC_REPRESENTATION_CONTEXT(3) 
GLOBAL_UNCERTAINTY_ASSIGNED_CONTEXT((#493)) GLOBAL_UNIT_ASSIGNED_CONTEXT
((#490,#491,#492)) REPRESENTATION_CONTEXT('Context #1',
  '3D Context with UNIT and UNCERTAINTY') );
#490 = ( LENGTH_UNIT() NAMED_UNIT(*) SI_UNIT(.MILLI.,.METRE.) );
#491 = ( NAMED_UNIT(*) PLANE_ANGLE_UNIT() SI_UNIT($,.RADIAN.) );
#492 = ( NAMED_UNIT(*) SI_UNIT($,.STERADIAN.) SOLID_ANGLE_UNIT() );
#493 = UNCERTAINTY_MEASURE_WITH_UNIT(LENGTH_MEASURE(2.E-06),#490,
  'distance_accuracy_value','confusion accuracy');
#494 = PRODUCT_RELATED_PRODUCT_CATEGORY('part',$,(#7));
ENDSEC;
END-ISO-10303-21;
