o 
usemtl scale-one-hole-1e-3-material
v 0 0 0.0020000000949949026
v 0.0010000020265579224 0.0005000010132789612 0.0020000000949949026
v 0.001999996602535248 0.0005000010132789612 0.0020000000949949026
v 0 0 0.0022499999031424522
v 0.0010000020265579224 0.0005000010132789612 0.0022499999031424522
v 0.001999996602535248 0.0005000010132789612 0.0022499999031424522
v 0 0.001999996602535248 0.0020000000949949026
v 0.0010000020265579224 0.0015000030398368835 0.0020000000949949026
v 0.001999996602535248 0.0015000030398368835 0.0020000000949949026
v 0 0.001999996602535248 0.0022499999031424522
v 0.0010000020265579224 0.0015000030398368835 0.0022499999031424522
v 0.001999996602535248 0.0015000030398368835 0.0022499999031424522
v 0.0040000006556510925 0 0.0020000000949949026
v 0.0040000006556510925 0 0.0022499999031424522
v 0.0040000006556510925 0.001999996602535248 0.0020000000949949026
v 0.0040000006556510925 0.001999996602535248 0.0022499999031424522
vn -0.17608954421154482 -0.17608988693826025 -0.9684961662998162
vn 0.15617383603055712 0.31234534748002957 -0.9370432844042372
vn -0.058696718732941786 0.029348143299627292 -0.9978443674716266
vn -0.08512534959966989 -0.34050205404977313 0.9363824144244804
vn 0.31234750197041333 0.15617258869463185 0.9370427741321419
vn -0.02934836004029399 0.05869628422162803 0.9978443866563157
vn -0.11111138632240143 0.4444464095569449 -0.8888878719284309
vn 0.09044372100437349 -0.04522152522606693 -0.9948743372844187
vn -0.09759018383806943 -0.19517892226353067 -0.9759002737587988
vn -0.23570298972430953 0.2357034516603031 0.9428085614325113
vn 0.04522186255911503 -0.09044305456595991 0.9948743825365408
vn -0.19518032907512953 -0.09758944928181876 0.975900065852542
vn 0.07881078073284149 -0.3152437487801321 -0.9457326470495395
vn 0.16222088115970545 -0.16222119408409202 0.9733286546206786
vn 0.11605182392006769 0.11605204743748757 -0.9864400115822516
vn 0.05716621548789469 0.22866530898641815 0.971825190182338
f 1//1 2//2 3//3
f 1//1 8//8 2//2
f 1//1 3//3 13//13
f 4//4 1//1 13//13
f 5//5 2//2 8//8
f 6//6 3//3 2//2
f 4//4 6//6 5//5
f 4//4 10//10 1//1
f 4//4 5//5 11//11
f 4//4 14//14 6//6
f 5//5 6//6 2//2
f 6//6 12//12 3//3
f 7//7 8//8 1//1
f 10//10 7//7 1//1
f 12//12 9//9 3//3
f 15//15 8//8 7//7
f 11//11 8//8 9//9
f 10//10 4//4 11//11
f 11//11 5//5 8//8
f 10//10 16//16 7//7
f 12//12 11//11 9//9
f 16//16 10//10 11//11
f 13//13 3//3 15//15
f 14//14 13//13 15//15
f 14//14 4//4 13//13
f 14//14 16//16 6//6
f 15//15 3//3 9//9
f 9//9 8//8 15//15
f 16//16 15//15 7//7
f 16//16 12//12 6//6
f 12//12 16//16 11//11
f 16//16 14//14 15//15
