o 
usemtl boolean-difference-cube-groove-material
v -20 -10 -6
v -20 -10 6
v -20 -2.5 1
v -20 -2.5 6
v -20 10 -6
v -20 2.5 1
v -20 2.5 6
v -20 10 6
v 20 -10 -6
v 20 -10 6
v 20 -2.5 1
v 20 -2.5 6
v 20 10 -6
v 20 2.5 1
v 20 2.5 6
v 20 10 6
vn -0.2732357947351116 -0.4949176850537672 -0.8248628282911601
vn -0.12576041944602506 -0.946902023785114 0.2959068675316871
vn -0.3415145011432727 0.8406511026621503 0.42032555133107513
vn -0.05918875467874279 0.31567335828662824 0.9470200748598846
vn -0.14191119145039174 0.5092887200617023 -0.8488145930408143
vn -0.4291779904210169 -0.4039322350439929 0.8078644700879858
vn -0.24709289745843524 -0.7751934365152874 0.5813950773864656
vn -0.1163350121213051 0.620453358243864 0.7755667574094749
vn 0.14191119145039174 -0.5092887200617023 -0.8488145930408143
vn 0.1163350121213051 -0.620453358243864 0.7755667574094749
vn 0.4291779904210169 0.4039322350439929 0.8078644700879858
vn 0.24709289745843524 0.7751934365152874 0.5813950773864656
vn 0.2732357947351116 0.4949176850537672 -0.8248628282911601
vn 0.3415145011432727 -0.8406511026621503 0.42032555133107513
vn 0.05918875467874279 -0.31567335828662824 0.9470200748598846
vn 0.12576041944602506 0.946902023785114 0.2959068675316871
f 1//1 3//3 6//6
f 1//1 9//9 2//2
f 1//1 5//5 9//9
f 1//1 2//2 3//3
f 2//2 4//4 3//3
f 2//2 10//10 4//4
f 1//1 6//6 5//5
f 5//5 6//6 7//7
f 5//5 7//7 8//8
f 5//5 8//8 16//16
f 8//8 7//7 15//15
f 9//9 13//13 11//11
f 2//2 9//9 10//10
f 10//10 12//12 4//4
f 9//9 12//12 10//10
f 9//9 11//11 12//12
f 5//5 13//13 9//9
f 5//5 16//16 13//13
f 13//13 14//14 11//11
f 8//8 15//15 16//16
f 13//13 16//16 14//14
f 16//16 15//15 14//14
f 6//6 3//3 11//11
f 4//4 12//12 3//3
f 6//6 14//14 7//7
f 3//3 12//12 11//11
f 11//11 14//14 6//6
f 15//15 7//7 14//14
