ply
format ascii 1.0
element vertex 16
property float x
property float y
property float z
property float nx
property float ny
property float nz
element face 28
property list uchar int vertex_index
end_header
-20 -10 -6 -0.2732357947351116 -0.4949176850537672 -0.8248628282911601
-20 -10 6 -0.12576041944602506 -0.946902023785114 0.2959068675316871
-20 -2.5 1 -0.3415145011432727 0.8406511026621503 0.42032555133107513
-20 -2.5 6 -0.05918875467874279 0.31567335828662824 0.9470200748598846
-20 10 -6 -0.14191119145039174 0.5092887200617023 -0.8488145930408143
-20 2.5 1 -0.4291779904210169 -0.4039322350439929 0.8078644700879858
-20 2.5 6 -0.24709289745843524 -0.7751934365152874 0.5813950773864656
-20 10 6 -0.1163350121213051 0.620453358243864 0.7755667574094749
20 -10 -6 0.14191119145039174 -0.5092887200617023 -0.8488145930408143
20 -10 6 0.1163350121213051 -0.620453358243864 0.7755667574094749
20 -2.5 1 0.4291779904210169 0.4039322350439929 0.8078644700879858
20 -2.5 6 0.24709289745843524 0.7751934365152874 0.5813950773864656
20 10 -6 0.2732357947351116 0.4949176850537672 -0.8248628282911601
20 2.5 1 0.3415145011432727 -0.8406511026621503 0.42032555133107513
20 2.5 6 0.05918875467874279 -0.31567335828662824 0.9470200748598846
20 10 6 0.12576041944602506 0.946902023785114 0.2959068675316871
3 0 2 5
3 0 8 1
3 0 4 8
3 0 1 2
3 1 3 2
3 1 9 3
3 0 5 4
3 4 5 6
3 4 6 7
3 4 7 15
3 7 6 14
3 8 12 10
3 1 8 9
3 9 11 3
3 8 11 9
3 8 10 11
3 4 12 8
3 4 15 12
3 12 13 10
3 7 14 15
3 12 15 13
3 15 14 13
3 5 2 10
3 3 11 2
3 5 13 6
3 2 11 10
3 10 13 5
3 14 6 13

