{"asset":{"version":"2.0","generator":"THREE.GLTFExporter r182"},"scenes":[{"name":"AuxScene","nodes":[0]}],"scene":0,"nodes":[{"mesh":0}],"bufferViews":[{"buffer":0,"byteOffset":0,"byteLength":2568,"target":34962,"byteStride":12},{"buffer":0,"byteOffset":2568,"byteLength":2568,"target":34962,"byteStride":12},{"buffer":0,"byteOffset":5136,"byteLength":5088,"target":34963}],"buffers":[{"byteLength":10224,"uri":"data:application/octet-stream;base64,"}],"accessors":[{"bufferView":0,"componentType":5126,"count":214,"max":[10,9.146236419677734,9.146236419677734],"min":[-2,-9.146236419677734,-9.146236419677734],"type":"VEC3"},{"bufferView":1,"componentType":5126,"count":214,"max":[1,0.9976919293403625,0.9976919293403625],"min":[-1,-0.9976919293403625,-0.9976919293403625],"type":"VEC3"},{"bufferView":2,"componentType":5125,"count":1272,"max":[213],"min":[0],"type":"SCALAR"}],"materials":[{"pbrMetallicRoughness":{"baseColorFactor":[0.7454042095350284,0.3005437944049895,0.07036009568874305,1],"metallicFactor":0.25,"roughnessFactor":0.4},"name":"boolean-intersection-sphere-sphere-lens-material"}],"meshes":[{"primitives":[{"mode":4,"attributes":{"POSITION":0,"NORMAL":1},"indices":2,"material":0}]}]}