o 
usemtl boolean-intersection-sphere-sphere-lens-material
v 0.31550249457359314 -6.037671089172363 -2.120148181915283
v 0.31550249457359314 -2.120148181915283 -6.037671089172363
v -0.8844770789146423 -4.089075565338135 -2.084592819213867
v -0.8844770789146423 -2.084592819213867 -4.089075565338135
v -1.5818647146224976 -2.0233471393585205 -2.0233471393585205
v 0.0589551217854023 -4.297662734985352 -4.297662734985352
v 3.621147632598877 -6.357108116149902 -6.357108116149902
v 4 -6.579751014709473 -6.303529262542725
v 4 -6.303529262542725 -6.579751014709473
v 1.9623290300369263 -7.684497356414795 -2.120148181915283
v 1.6428916454315186 -6.357108116149902 -4.378852367401123
v 3.7023375034332275 -7.941044807434082 -4.297662734985352
v 3.910924196243286 -8.884476661682129 -2.084592819213867
v 1.6428916454315186 -4.378852367401123 -6.357108116149902
v 1.9623290300369263 -2.120148181915283 -7.684497356414795
v 3.7023375034332275 -4.297662734985352 -7.941044807434082
v 3.910924196243286 -2.084592819213867 -8.884476661682129
v 0.9289321899414062 -7.071067810058594 6.123233998228043e-16
v -0.31469613313674927 -5.555702209472656 6.123233998228043e-16
v 0.31550249457359314 -6.037671089172363 2.120148181915283
v -1.238795280456543 -3.8268344402313232 6.123233998228043e-16
v -0.8844770789146423 -4.089075565338135 2.084592819213867
v -1.8078527450561523 -1.9509031772613525 6.123233998228043e-16
v -1.5818647146224976 -2.0233471393585205 2.0233471393585205
v -0.8844770789146423 -2.084592819213867 4.089075565338135
v 0.0589551217854023 -4.297662734985352 4.297662734985352
v 0.31550249457359314 -2.120148181915283 6.037671089172363
v 2.4442975521087646 -8.314696311950684 6.123233998228043e-16
v 1.9623290300369263 -7.684497356414795 2.120148181915283
v 1.6428916454315186 -6.357108116149902 4.378852367401123
v 3.910924196243286 -8.884476661682129 2.084592819213867
v 3.7023375034332275 -7.941044807434082 4.297662734985352
v 3.621147632598877 -6.357108116149902 6.357108116149902
v 4 -6.303529262542725 6.579751014709473
v 1.6428916454315186 -4.378852367401123 6.357108116149902
v 1.9623290300369263 -2.120148181915283 7.684497356414795
v 3.7023375034332275 -4.297662734985352 7.941044807434082
v 4 -2.173668384552002 8.884476661682129
v 3.910924196243286 -2.084592819213867 8.884476661682129
v 4 -2.081951856613159 8.914548873901367
v 4 -1.3765177726745605 9.004828453063965
v 0.9289321899414062 6.123233998228043e-16 -7.071067810058594
v -0.31469613313674927 6.123233998228043e-16 -5.555702209472656
v 0.31550249457359314 2.120148181915283 -6.037671089172363
v -1.238795280456543 6.123233998228043e-16 -3.8268344402313232
v -0.8844770789146423 2.084592819213867 -4.089075565338135
v -1.8078527450561523 6.123233998228043e-16 -1.9509031772613525
v -1.5818647146224976 2.0233471393585205 -2.0233471393585205
v -0.8844770789146423 4.089075565338135 -2.084592819213867
v 0.0589551217854023 4.297662734985352 -4.297662734985352
v 0.31550249457359314 6.037671089172363 -2.120148181915283
v 2.4442975521087646 6.123233998228043e-16 -8.314696311950684
v 1.9623290300369263 2.120148181915283 -7.684497356414795
v 1.6428916454315186 4.378852367401123 -6.357108116149902
v 4 1.3765177726745605 -9.004828453063965
v 3.910924196243286 2.084592819213867 -8.884476661682129
v 4 2.081951856613159 -8.914548873901367
v 4 2.173668384552002 -8.884476661682129
v 4 4.269607067108154 -8.067938804626465
v 3.7023375034332275 4.297662734985352 -7.941044807434082
v 4 4.535518646240234 -7.905975341796875
v 3.621147632598877 6.357108116149902 -6.357108116149902
v 1.6428916454315186 6.357108116149902 -4.378852367401123
v 1.9623290300369263 7.684497356414795 -2.120148181915283
v 3.7023375034332275 7.941044807434082 -4.297662734985352
v 4 8.884476661682129 -2.173668384552002
v 3.910924196243286 8.884476661682129 -2.084592819213867
v 4 8.914548873901367 -2.081951856613159
v -2 6.123233998228043e-16 6.123233998228043e-16
v -1.8078527450561523 6.123233998228043e-16 1.9509031772613525
v -1.8078527450561523 1.9509031772613525 6.123233998228043e-16
v -1.5818647146224976 2.0233471393585205 2.0233471393585205
v -1.238795280456543 6.123233998228043e-16 3.8268344402313232
v -0.8844770789146423 2.084592819213867 4.089075565338135
v -1.238795280456543 3.8268344402313232 6.123233998228043e-16
v -0.8844770789146423 4.089075565338135 2.084592819213867
v 0.0589551217854023 4.297662734985352 4.297662734985352
v -0.31469613313674927 6.123233998228043e-16 5.555702209472656
v 0.31550249457359314 2.120148181915283 6.037671089172363
v 0.9289321899414062 6.123233998228043e-16 7.071067810058594
v -0.31469613313674927 5.555702209472656 6.123233998228043e-16
v 0.31550249457359314 6.037671089172363 2.120148181915283
v 0.9289321899414062 7.071067810058594 6.123233998228043e-16
v 2.4442975521087646 6.123233998228043e-16 8.314696311950684
v 1.9623290300369263 2.120148181915283 7.684497356414795
v 1.6428916454315186 4.378852367401123 6.357108116149902
v 4 1.3765177726745605 9.004828453063965
v 3.910924196243286 2.084592819213867 8.884476661682129
v 3.7023375034332275 4.297662734985352 7.941044807434082
v 4 4.535518646240234 7.905975341796875
v 4 4.269607067108154 8.067938804626465
v 1.6428916454315186 6.357108116149902 4.378852367401123
v 1.9623290300369263 7.684497356414795 2.120148181915283
v 2.4442975521087646 8.314696311950684 6.123233998228043e-16
v 4 9.004828453063965 1.3765177726745605
v 3.910924196243286 8.884476661682129 2.084592819213867
v 4 8.914548873901367 2.081951856613159
v 4 8.884476661682129 2.173668384552002
v 3.7023375034332275 7.941044807434082 4.297662734985352
v 3.621147632598877 6.357108116149902 6.357108116149902
v 4.378852367401123 -6.357108116149902 -6.357108116149902
v 4 -8.067938804626465 -4.269607067108154
v 4 -7.905975341796875 -4.535518646240234
v 4.297662734985352 -7.941044807434082 -4.297662734985352
v 4 -8.884476661682129 -2.173668384552002
v 4 -8.914548873901367 -2.081951856613159
v 4.089075565338135 -8.884476661682129 -2.084592819213867
v 4 -9.004828453063965 -1.3765177726745605
v 6.037671089172363 -7.684497356414795 -2.120148181915283
v 6.357108116149902 -6.357108116149902 -4.378852367401123
v 4 -4.269607067108154 -8.067938804626465
v 4 -4.535518646240234 -7.905975341796875
v 4.297662734985352 -4.297662734985352 -7.941044807434082
v 4 -2.173668384552002 -8.884476661682129
v 4 -2.081951856613159 -8.914548873901367
v 4.089075565338135 -2.084592819213867 -8.884476661682129
v 4 -1.3765177726745605 -9.004828453063965
v 6.357108116149902 -4.378852367401123 -6.357108116149902
v 6.037671089172363 -2.120148181915283 -7.684497356414795
v 7.684497356414795 -6.037671089172363 -2.120148181915283
v 7.684497356414795 -2.120148181915283 -6.037671089172363
v 7.941044807434082 -4.297662734985352 -4.297662734985352
v 8.884476661682129 -4.089075565338135 -2.084592819213867
v 8.884476661682129 -2.084592819213867 -4.089075565338135
v 9.581864356994629 -2.0233471393585205 -2.0233471393585205
v 4 -9.146236419677734 6.123233998228043e-16
v 4 -9.004828453063965 1.3765177726745605
v 4 -8.914548873901367 2.081951856613159
v 4.089075565338135 -8.884476661682129 2.084592819213867
v 4 -8.884476661682129 2.173668384552002
v 4 -8.067938804626465 4.269607067108154
v 4 -7.905975341796875 4.535518646240234
v 4.297662734985352 -7.941044807434082 4.297662734985352
v 5.555702209472656 -8.314696311950684 6.123233998228043e-16
v 6.037671089172363 -7.684497356414795 2.120148181915283
v 6.357108116149902 -6.357108116149902 4.378852367401123
v 4 -6.579751014709473 6.303529262542725
v 4.378852367401123 -6.357108116149902 6.357108116149902
v 4 -4.535518646240234 7.905975341796875
v 4.297662734985352 -4.297662734985352 7.941044807434082
v 4 -4.269607067108154 8.067938804626465
v 4.089075565338135 -2.084592819213867 8.884476661682129
v 6.357108116149902 -4.378852367401123 6.357108116149902
v 6.037671089172363 -2.120148181915283 7.684497356414795
v 7.071067810058594 -7.071067810058594 6.123233998228043e-16
v 7.684497356414795 -6.037671089172363 2.120148181915283
v 8.314696311950684 -5.555702209472656 6.123233998228043e-16
v 7.941044807434082 -4.297662734985352 4.297662734985352
v 9.238795280456543 -3.8268344402313232 6.123233998228043e-16
v 8.884476661682129 -4.089075565338135 2.084592819213867
v 9.807852745056152 -1.9509031772613525 6.123233998228043e-16
v 9.581864356994629 -2.0233471393585205 2.0233471393585205
v 8.884476661682129 -2.084592819213867 4.089075565338135
v 7.684497356414795 -2.120148181915283 6.037671089172363
v 4 6.123233998228043e-16 -9.146236419677734
v 4.089075565338135 2.084592819213867 -8.884476661682129
v 4.297662734985352 4.297662734985352 -7.941044807434082
v 5.555702209472656 6.123233998228043e-16 -8.314696311950684
v 6.037671089172363 2.120148181915283 -7.684497356414795
v 6.357108116149902 4.378852367401123 -6.357108116149902
v 4 6.303529262542725 -6.579751014709473
v 4 6.579751014709473 -6.303529262542725
v 4.378852367401123 6.357108116149902 -6.357108116149902
v 4 7.905975341796875 -4.535518646240234
v 4.297662734985352 7.941044807434082 -4.297662734985352
v 4 8.067938804626465 -4.269607067108154
v 4.089075565338135 8.884476661682129 -2.084592819213867
v 4 9.004828453063965 -1.3765177726745605
v 6.357108116149902 6.357108116149902 -4.378852367401123
v 6.037671089172363 7.684497356414795 -2.120148181915283
v 7.071067810058594 6.123233998228043e-16 -7.071067810058594
v 7.684497356414795 2.120148181915283 -6.037671089172363
v 8.314696311950684 6.123233998228043e-16 -5.555702209472656
v 7.941044807434082 4.297662734985352 -4.297662734985352
v 9.238795280456543 6.123233998228043e-16 -3.8268344402313232
v 8.884476661682129 2.084592819213867 -4.089075565338135
v 9.807852745056152 6.123233998228043e-16 -1.9509031772613525
v 9.581864356994629 2.0233471393585205 -2.0233471393585205
v 8.884476661682129 4.089075565338135 -2.084592819213867
v 7.684497356414795 6.037671089172363 -2.120148181915283
v 4 6.123233998228043e-16 9.146236419677734
v 4 2.081951856613159 8.914548873901367
v 4.089075565338135 2.084592819213867 8.884476661682129
v 4 2.173668384552002 8.884476661682129
v 4.297662734985352 4.297662734985352 7.941044807434082
v 5.555702209472656 6.123233998228043e-16 8.314696311950684
v 6.037671089172363 2.120148181915283 7.684497356414795
v 6.357108116149902 4.378852367401123 6.357108116149902
v 4 9.146236419677734 6.123233998228043e-16
v 4.089075565338135 8.884476661682129 2.084592819213867
v 4 7.905975341796875 4.535518646240234
v 4.297662734985352 7.941044807434082 4.297662734985352
v 4 8.067938804626465 4.269607067108154
v 6.357108116149902 6.357108116149902 4.378852367401123
v 6.037671089172363 7.684497356414795 2.120148181915283
v 5.555702209472656 8.314696311950684 6.123233998228043e-16
v 4 6.303529262542725 6.579751014709473
v 4 6.579751014709473 6.303529262542725
v 4.378852367401123 6.357108116149902 6.357108116149902
v 7.941044807434082 4.297662734985352 4.297662734985352
v 10 6.123233998228043e-16 6.123233998228043e-16
v 9.807852745056152 6.123233998228043e-16 1.9509031772613525
v 9.807852745056152 1.9509031772613525 6.123233998228043e-16
v 9.581864356994629 2.0233471393585205 2.0233471393585205
v 9.238795280456543 6.123233998228043e-16 3.8268344402313232
v 8.884476661682129 2.084592819213867 4.089075565338135
v 9.238795280456543 3.8268344402313232 6.123233998228043e-16
v 8.884476661682129 4.089075565338135 2.084592819213867
v 7.684497356414795 2.120148181915283 6.037671089172363
v 8.314696311950684 6.123233998228043e-16 5.555702209472656
v 7.071067810058594 6.123233998228043e-16 7.071067810058594
v 7.684497356414795 6.037671089172363 2.120148181915283
v 8.314696311950684 5.555702209472656 6.123233998228043e-16
v 7.071067810058594 7.071067810058594 6.123233998228043e-16
vn -0.7642260756069552 -0.6011713120573628 -0.23356275157143822
vn -0.764226078266734 -0.23356273748315856 -0.601171314149653
vn -0.8841507041035493 -0.409943888027552 -0.22410609340678775
vn -0.8841507041035493 -0.22410609340678775 -0.409943888027552
vn -0.9554945741253226 -0.20860263519077188 -0.20860263519077188
vn -0.7871378784062543 -0.43612725228888244 -0.43612725228888244
vn -0.5107600496617318 -0.6079162130338353 -0.6079161534291927
vn -5.895598565521763e-9 -0.7870166750400452 -0.616931724916876
vn -5.895598565521763e-9 -0.616931724916876 -0.7870166750400452
vn -0.6011713057804913 -0.7642260676276176 -0.2335627938362762
vn -0.632736562282517 -0.632736562282517 -0.4464178373472605
vn -0.5104302084300083 -0.7598206276436617 -0.4026581877092411
vn -0.499979848948556 -0.8406606237852075 -0.2081102262322666
vn -0.632736562282517 -0.4464178373472605 -0.632736562282517
vn -0.6011713057804913 -0.2335627938362762 -0.7642260676276176
vn -0.5104302084300083 -0.4026581877092411 -0.7598206276436617
vn -0.499979848948556 -0.2081102262322666 -0.8406606237852075
vn -0.7071067811865476 -0.7071067811865476 1.6592658642376545e-9
vn -0.83915670696933 -0.5438897141410101 4.4264744021802554e-9
vn -0.764226078266734 -0.601171314149653 0.23356273748315856
vn -0.9329769421984243 -0.3599361406223028 2.8781731968621747e-9
vn -0.8841507387177344 -0.4099438168358715 0.22410608707244434
vn -0.9861362739116233 -0.16593748604730613 4.4470108329731226e-9
vn -0.9554945741253226 -0.20860263519077188 0.20860263519077188
vn -0.88415072496325 -0.2241060984872498 0.40994384026081254
vn -0.7871378784062543 -0.43612725228888244 0.43612725228888244
vn -0.764226078266734 -0.23356273748315856 0.601171314149653
vn -0.5453838762262639 -0.8381863918916931 4.7023003753929496e-9
vn -0.601171269809668 -0.7642260976716057 0.2335627881171592
vn -0.632736562282517 -0.632736562282517 0.4464178373472605
vn -0.49997984584759675 -0.8406606185712886 0.20811025474385386
vn -0.5104302315467999 -0.7598206024504094 0.40265820594516305
vn -0.5107600056064977 -0.6079162315410357 0.6079161719363914
vn -6.264716858419128e-9 -0.6169316879980409 0.7870167039802192
vn -0.6327365026778701 -0.4464178373472589 0.6327366218871593
vn -0.6011713057804913 -0.2335627938362762 0.7642260676276176
vn -0.5104302084300083 -0.4026581877092411 0.7598206276436617
vn -0.22172987821742995 -0.3532073555222868 0.908889666081993
vn -0.499979848948556 -0.2081102262322666 0.8406606237852075
vn -6.186871175352007e-9 -0.1492856332487808 0.9887941139112381
vn -0.4306020477370653 -0.09301163339760803 0.8977364382363875
vn -0.7071067811865476 1.6592658642376545e-9 -0.7071067811865476
vn -0.83915670696933 4.4264744021802554e-9 -0.5438897141410101
vn -0.764226078266734 0.23356273748315856 -0.601171314149653
vn -0.9329769522064049 2.878173005691541e-9 -0.3599361146809913
vn -0.8841507387177344 0.22410608707244434 -0.4099438168358715
vn -0.9861362763500041 4.65441960473847e-9 -0.16593747155645183
vn -0.9554945741253226 0.20860263519077188 -0.20860263519077188
vn -0.88415072496325 0.40994384026081254 -0.2241060984872498
vn -0.7871378784062543 0.43612725228888244 -0.43612725228888244
vn -0.764226078266734 0.601171314149653 -0.23356273748315856
vn -0.5453838762262639 4.7023003753929496e-9 -0.8381863918916931
vn -0.601171269809668 0.2335627881171592 -0.7642260976716057
vn -0.632736562282517 0.4464178373472605 -0.632736562282517
vn -0.43060204743866204 0.09301164078373249 -0.8977364376142644
vn -0.49997984584759675 0.20811025474385386 -0.8406606185712886
vn -3.0934355807945647e-9 0.14928564781785209 -0.9887941117116366
vn -0.22172990422052935 0.35320737927258994 -0.9088896505086542
vn 0.047872427479001105 0.37971493306766996 -0.9238640594225337
vn -0.5104302315467999 0.40265820594516305 -0.7598206024504094
vn 5.079145508633217e-9 0.5959014845697066 -0.8030575450661178
vn -0.5107600056064977 0.6079161719363914 -0.6079162315410357
vn -0.6327365026778701 0.6327366218871593 -0.4464178373472589
vn -0.6011713057804913 0.7642260676276176 -0.2335627938362762
vn -0.5104302084300083 0.7598206276436617 -0.4026581877092411
vn -0.22172987821742995 0.908889666081993 -0.3532073555222868
vn -0.499979848948556 0.8406606237852075 -0.2081102262322666
vn -6.186871175352007e-9 0.9887941139112381 -0.1492856332487808
vn -1 -9.046949300817175e-10 -9.046949300817175e-10
vn -0.9861362739116233 -1.0255625407065205e-9 0.16593748604730613
vn -0.9861362739116233 0.16593748604730613 -1.0255625407065205e-9
vn -0.9554945622450023 0.20860264749823296 0.2086026773005547
vn -0.9329769522064049 2.878173005691541e-9 0.3599361146809913
vn -0.88415072496325 0.2241060984872498 0.40994384026081254
vn -0.9329769421984243 0.3599361406223028 2.223341465769451e-9
vn -0.88415072496325 0.40994384026081254 0.2241060984872498
vn -0.7871378784062543 0.43612725228888244 0.43612725228888244
vn -0.8391567246013382 -3.647110294710755e-9 0.5438896869369322
vn -0.764226078266734 0.23356273748315856 0.601171314149653
vn -0.7071067811865476 1.6592658642376545e-9 0.7071067811865476
vn -0.8391567246013382 0.5438896869369322 -3.647110294710755e-9
vn -0.764226078266734 0.601171314149653 0.23356273748315856
vn -0.7071067811865476 0.7071067811865476 1.6592658642376545e-9
vn -0.5453838762262639 4.7023003753929496e-9 0.8381863918916931
vn -0.6011713057804913 0.2335627938362762 0.7642260676276176
vn -0.632736562282517 0.4464178373472605 0.632736562282517
vn 1.2221459365187972e-9 0.10264654428286847 0.9947178931469893
vn -0.49997984584759675 0.20811025474385386 0.8406606185712886
vn -0.5104302315467999 0.40265820594516305 0.7598206024504094
vn 5.079145508633217e-9 0.5959014845697066 0.8030575450661178
vn 0.04787242802074399 0.3797149075623484 0.9238640698773364
vn -0.632736562282517 0.632736562282517 0.4464178373472605
vn -0.6011713057804913 0.7642260676276176 0.2335627938362762
vn -0.5453838762262639 0.8381863918916931 4.7023003753929496e-9
vn -0.43060204743866204 0.8977364376142644 0.09301164078373249
vn -0.49997984584759675 0.8406606185712886 0.20811025474385386
vn -3.0934355807945647e-9 0.9887941117116366 0.14928564781785209
vn -0.22172990422052935 0.9088896505086542 0.35320737927258994
vn -0.5104302315467999 0.7598206024504094 0.40265820594516305
vn -0.5107600681689326 0.6079161754568089 0.6079161754568089
vn 0.5107600681689326 -0.6079161754568089 -0.6079161754568089
vn 0.04787242802074399 -0.9238640698773364 -0.3797149075623484
vn 5.050856582099113e-9 -0.8030575450661178 -0.5959014845697066
vn 0.5121810382417559 -0.7583336154390378 -0.4032377856312011
vn -0.22172987821742995 -0.908889666081993 -0.3532073555222868
vn -6.186871175352007e-9 -0.9887941139112381 -0.1492856332487808
vn 0.49153320234740666 -0.8436625811585183 -0.21593647247060876
vn -2.9165656495632526e-9 -0.9947178939077259 -0.10264653691078954
vn 0.6011713099650724 -0.7642260729471761 -0.2335627656597177
vn 0.6327366218871593 -0.6327365026778701 -0.4464178373472589
vn 0.04787242802074399 -0.3797149075623484 -0.9238640698773364
vn 5.050856582099113e-9 -0.5959014845697066 -0.8030575450661178
vn 0.5121810382417559 -0.4032377856312011 -0.7583336154390378
vn -0.22172987821742995 -0.3532073555222868 -0.908889666081993
vn -6.186871175352007e-9 -0.1492856332487808 -0.9887941139112381
vn 0.49153320234740666 -0.21593647247060876 -0.8436625811585183
vn -2.9165656495632526e-9 -0.10264653691078954 -0.9947178939077259
vn 0.6327366218871593 -0.4464178373472589 -0.6327365026778701
vn 0.601171307872782 -0.23356277974799702 -0.764226070287397
vn 0.7642260729471761 -0.6011713099650724 -0.2335627656597177
vn 0.7642260729471761 -0.2335627656597177 -0.6011713099650724
vn 0.7871378784062543 -0.43612725228888244 -0.43612725228888244
vn 0.8841507436145106 -0.40994378930397996 -0.22410611811595477
vn 0.8841507436145106 -0.22410611811595477 -0.40994378930397996
vn 0.9554945273567927 -0.20860274230126877 -0.20860274230126877
vn 0.06668264391170729 -0.9976919252004823 0.012815903819072463
vn -0.43060204743866204 -0.8977364376142644 0.09301164078373249
vn -3.0934355807945647e-9 -0.9887941117116366 0.14928564781785209
vn 0.4885186632576661 -0.8503318567504567 0.19566616734699907
vn -0.22172990422052935 -0.9088896505086542 0.35320737927258994
vn 0.047872427479001105 -0.9238640594225337 0.37971493306766996
vn 5.079145508633217e-9 -0.8030575450661178 0.5959014845697066
vn 0.5121810320866599 -0.7583336063258224 0.40323781058764396
vn 0.5457781371588746 -0.8379295785445204 -0.0004963865338430671
vn 0.6011712487023302 -0.7642261304439989 0.23356273521320325
vn 0.6327365777274572 -0.6327365181228111 0.44641787804653055
vn -5.895598565521763e-9 -0.7870166750400452 0.616931724916876
vn 0.5107600681689326 -0.6079161754568089 0.6079161754568089
vn 5.050856582099113e-9 -0.5959014845697066 0.8030575450661178
vn 0.5121810382417559 -0.4032377856312011 0.7583336154390378
vn 0.04787242802074399 -0.3797149075623484 0.9238640698773364
vn 0.48851866183331505 -0.19566618167766578 0.850331854271184
vn 0.6327365777274572 -0.44641787804653055 0.6327365181228111
vn 0.601171307872782 -0.23356277974799702 0.764226070287397
vn 0.7071067811865476 -0.7071067811865476 -1.5915967705279218e-9
vn 0.7642261277842199 -0.6011712466100403 0.2335627493014828
vn 0.8391567518054149 -0.5438896449642935 -1.5476658934512177e-9
vn 0.7871378784062543 -0.43612725228888244 0.43612725228888244
vn 0.9329769522064049 -0.3599361146809913 3.2054472102934842e-9
vn 0.8841507465670799 -0.4099437906729631 0.22410610396318273
vn 0.9861362641580977 -0.16593754401072225 6.760667070834742e-10
vn 0.9554945332969552 -0.20860272869695856 0.20860272869695856
vn 0.8841507436145106 -0.22410611811595477 0.40994378930397996
vn 0.7642260729471761 -0.2335627656597177 0.6011713099650724
vn 0.06668264391170729 0.012815903819072463 -0.9976919252004823
vn 0.4885186632576661 0.19566616734699907 -0.8503318567504567
vn 0.5121810320866599 0.40323781058764396 -0.7583336063258224
vn 0.5457781371588746 -0.0004963865338430671 -0.8379295785445204
vn 0.6011712487023302 0.23356273521320325 -0.7642261304439989
vn 0.6327365777274572 0.44641787804653055 -0.6327365181228111
vn -5.895598565521763e-9 0.616931724916876 -0.7870166750400452
vn -6.264716858419128e-9 0.7870167039802192 -0.6169316879980409
vn 0.5107600681689326 0.6079161754568089 -0.6079161754568089
vn 5.050856582099113e-9 0.8030575450661178 -0.5959014845697066
vn 0.5121810382417559 0.7583336154390378 -0.4032377856312011
vn 0.04787242802074399 0.9238640698773364 -0.3797149075623484
vn 0.49153320234740666 0.8436625811585183 -0.21593647247060876
vn -2.9165656495632526e-9 0.9947178939077259 -0.10264653691078954
vn 0.6327365777274572 0.6327365181228111 -0.44641787804653055
vn 0.601171307872782 0.764226070287397 -0.23356277974799702
vn 0.7071067811865476 -1.5915967705279218e-9 -0.7071067811865476
vn 0.7642261277842199 0.2335627493014828 -0.6011712466100403
vn 0.8391567518054149 -1.5476658934512177e-9 -0.5438896449642935
vn 0.7871378784062543 0.43612725228888244 -0.43612725228888244
vn 0.9329769522064049 3.2054472102934842e-9 -0.3599361146809913
vn 0.8841507465670799 0.22410610396318273 -0.4099437906729631
vn 0.9861362665964795 1.3998915487270587e-9 -0.16593752951986837
vn 0.9554945332969552 0.20860272869695856 -0.20860272869695856
vn 0.8841507436145106 0.40994378930397996 -0.22410611811595477
vn 0.7642260729471761 0.6011713099650724 -0.2335627656597177
vn 0.06668266616565206 -0.012815901937631494 0.9976919237372655
vn -3.0934355807945647e-9 0.14928564781785209 0.9887941117116366
vn 0.49153320234740666 0.21593647247060876 0.8436625811585183
vn -0.22172990422052935 0.35320737927258994 0.9088896505086542
vn 0.5121810320866599 0.40323781058764396 0.7583336063258224
vn 0.545778137156588 0.0004963949739515389 0.8379295785410098
vn 0.6011712466100403 0.2335627493014828 0.7642261277842199
vn 0.6327365777274572 0.44641787804653055 0.6327365181228111
vn 0.06668264391170729 0.9976919252004823 0.012815903819072463
vn 0.4885186632576661 0.8503318567504567 0.19566616734699907
vn 5.079145508633217e-9 0.8030575450661178 0.5959014845697066
vn 0.5121810320866599 0.7583336063258224 0.40323781058764396
vn 0.04787242802074399 0.9238640698773364 0.3797149075623484
vn 0.6327365777274572 0.6327365181228111 0.44641787804653055
vn 0.6011713120573628 0.7642260756069552 0.23356275157143822
vn 0.5457781371588746 0.8379295785445204 -0.0004963865338430671
vn -6.264716858419128e-9 0.6169316879980409 0.7870167039802192
vn -6.264716858419128e-9 0.7870167039802192 0.6169316879980409
vn 0.5107600681689326 0.6079161754568089 0.6079161754568089
vn 0.7871378784062543 0.43612725228888244 0.43612725228888244
vn 1 -9.046949300817175e-10 -9.046949300817175e-10
vn 0.9861362641580977 8.739564685237914e-10 0.16593754401072225
vn 0.9861362641580977 0.16593754401072225 8.739564685237914e-10
vn 0.9554945243867116 0.20860275655400443 0.2086027416528432
vn 0.9329769522064049 3.2054472102934842e-9 0.3599361146809913
vn 0.8841507436145106 0.22410611811595477 0.40994378930397996
vn 0.9329769522064049 0.3599361146809913 2.016166325690322e-9
vn 0.8841507436145106 0.40994378930397996 0.22410611811595477
vn 0.7642261277842199 0.2335627493014828 0.6011712466100403
vn 0.8391567518054149 9.965264228086389e-10 0.5438896449642935
vn 0.7071067811865476 -1.5915967705279218e-9 0.7071067811865476
vn 0.7642261277842199 0.6011712466100403 0.2335627493014828
vn 0.8391567518054149 0.5438896449642935 9.965264228086389e-10
vn 0.7071067811865476 0.7071067811865476 -1.5915967705279218e-9
f 101//101 103//103 8//8
f 101//101 104//104 103//103
f 101//101 110//110 104//104
f 101//101 9//9 112//112
f 101//101 112//112 113//113
f 101//101 113//113 118//118
f 101//101 8//8 9//9
f 101//101 118//118 110//110
f 110//110 118//118 122//122
f 104//104 107//107 102//102
f 107//107 105//105 102//102
f 104//104 102//102 103//103
f 104//104 109//109 107//107
f 107//107 106//106 105//105
f 107//107 108//108 106//106
f 107//107 134//134 108//108
f 134//134 126//126 108//108
f 107//107 109//109 134//134
f 104//104 110//110 109//109
f 109//109 145//145 134//134
f 109//109 120//120 145//145
f 109//109 110//110 120//120
f 113//113 111//111 116//116
f 113//113 112//112 111//111
f 116//116 111//111 114//114
f 113//113 116//116 119//119
f 116//116 114//114 115//115
f 116//116 115//115 117//117
f 116//116 117//117 158//158
f 158//158 117//117 155//155
f 116//116 158//158 119//119
f 113//113 119//119 118//118
f 118//118 119//119 121//121
f 119//119 158//158 171//171
f 119//119 171//171 121//121
f 110//110 122//122 120//120
f 120//120 122//122 123//123
f 120//120 147//147 145//145
f 120//120 123//123 147//147
f 118//118 121//121 122//122
f 121//121 124//124 122//122
f 121//121 171//171 173//173
f 121//121 173//173 124//124
f 122//122 124//124 123//123
f 123//123 124//124 125//125
f 123//123 149//149 147//147
f 123//123 125//125 149//149
f 125//125 151//151 149//149
f 124//124 175//175 125//125
f 124//124 173//173 175//175
f 125//125 175//175 177//177
f 125//125 177//177 151//151
f 151//151 177//177 201//201
f 129//129 126//126 134//134
f 129//129 127//127 126//126
f 129//129 128//128 127//127
f 129//129 130//130 128//128
f 129//129 134//134 135//135
f 129//129 131//131 130//130
f 129//129 133//133 131//131
f 133//133 132//132 131//131
f 129//129 135//135 133//133
f 134//134 145//145 135//135
f 135//135 145//145 146//146
f 133//133 135//135 136//136
f 135//135 146//146 136//136
f 133//133 138//138 132//132
f 138//138 137//137 132//132
f 133//133 136//136 138//138
f 138//138 34//34 137//137
f 138//138 139//139 34//34
f 138//138 140//140 139//139
f 138//138 143//143 140//140
f 138//138 136//136 143//143
f 136//136 148//148 143//143
f 140//140 141//141 139//139
f 140//140 142//142 141//141
f 142//142 38//38 141//141
f 140//140 144//144 142//142
f 142//142 40//40 38//38
f 142//142 41//41 40//40
f 142//142 181//181 41//41
f 142//142 186//186 181//181
f 142//142 144//144 186//186
f 143//143 154//154 144//144
f 140//140 143//143 144//144
f 144//144 211//211 186//186
f 144//144 154//154 211//211
f 145//145 147//147 146//146
f 147//147 150//150 146//146
f 136//136 146//146 148//148
f 146//146 150//150 148//148
f 147//147 149//149 150//150
f 149//149 152//152 150//150
f 149//149 151//151 152//152
f 150//150 153//153 148//148
f 150//150 152//152 153//153
f 151//151 202//202 152//152
f 151//151 201//201 202//202
f 152//152 205//205 153//153
f 153//153 205//205 210//210
f 152//152 202//202 205//205
f 148//148 154//154 143//143
f 148//148 153//153 154//154
f 154//154 210//210 211//211
f 153//153 210//210 154//154
f 156//156 158//158 155//155
f 156//156 155//155 55//55
f 156//156 55//55 57//57
f 156//156 57//57 58//58
f 156//156 159//159 158//158
f 156//156 58//58 59//59
f 156//156 59//59 157//157
f 157//157 59//59 61//61
f 156//156 157//157 159//159
f 158//158 159//159 171//171
f 159//159 172//172 171//171
f 157//157 160//160 159//159
f 159//159 160//160 172//172
f 157//157 61//61 163//163
f 163//163 61//61 161//161
f 157//157 163//163 160//160
f 163//163 161//161 162//162
f 163//163 162//162 164//164
f 163//163 164//164 165//165
f 163//163 165//165 169//169
f 163//163 169//169 160//160
f 160//160 169//169 174//174
f 165//165 164//164 166//166
f 165//165 166//166 167//167
f 167//167 166//166 66//66
f 165//165 167//167 170//170
f 167//167 66//66 68//68
f 167//167 68//68 168//168
f 167//167 168//168 196//196
f 196//196 168//168 189//189
f 167//167 196//196 170//170
f 169//169 170//170 180//180
f 165//165 170//170 169//169
f 170//170 196//196 214//214
f 170//170 214//214 180//180
f 171//171 172//172 173//173
f 173//173 172//172 176//176
f 160//160 174//174 172//172
f 172//172 174//174 176//176
f 173//173 176//176 175//175
f 175//175 176//176 178//178
f 175//175 178//178 177//177
f 177//177 203//203 201//201
f 177//177 178//178 203//203
f 176//176 179//179 178//178
f 176//176 174//174 179//179
f 178//178 179//179 207//207
f 179//179 213//213 207//207
f 178//178 207//207 203//203
f 174//174 169//169 180//180
f 174//174 180//180 179//179
f 180//180 214//214 213//213
f 179//179 180//180 213//213
f 186//186 87//87 181//181
f 183//183 182//182 87//87
f 183//183 184//184 182//182
f 183//183 87//87 186//186
f 183//183 186//186 187//187
f 183//183 91//91 184//184
f 185//185 90//90 91//91
f 183//183 185//185 91//91
f 183//183 187//187 185//185
f 211//211 187//187 186//186
f 211//211 209//209 187//187
f 187//187 209//209 188//188
f 185//185 187//187 188//188
f 190//190 196//196 189//189
f 190//190 189//189 95//95
f 190//190 95//95 97//97
f 190//190 97//97 98//98
f 190//190 195//195 196//196
f 192//192 193//193 191//191
f 190//190 98//98 193//193
f 190//190 193//193 192//192
f 190//190 192//192 195//195
f 194//194 212//212 195//195
f 214//214 196//196 195//195
f 214//214 195//195 212//212
f 192//192 194//194 195//195
f 199//199 198//198 197//197
f 185//185 199//199 90//90
f 199//199 197//197 90//90
f 185//185 188//188 199//199
f 192//192 191//191 199//199
f 199//199 191//191 198//198
f 192//192 199//199 194//194
f 199//199 188//188 194//194
f 200//200 194//194 188//188
f 201//201 203//203 202//202
f 202//202 203//203 204//204
f 205//205 206//206 210//210
f 204//204 206//206 205//205
f 202//202 204//204 205//205
f 204//204 207//207 208//208
f 207//207 213//213 208//208
f 203//203 207//207 204//204
f 204//204 208//208 206//206
f 206//206 208//208 200//200
f 211//211 210//210 209//209
f 206//206 209//209 210//210
f 200//200 188//188 209//209
f 206//206 200//200 209//209
f 214//214 212//212 213//213
f 208//208 213//213 212//212
f 200//200 212//212 194//194
f 208//208 212//212 200//200
f 1//1 3//3 6//6
f 1//1 6//6 11//11
f 1//1 19//19 3//3
f 1//1 18//18 19//19
f 2//2 6//6 4//4
f 2//2 14//14 6//6
f 2//2 4//4 43//43
f 2//2 43//43 42//42
f 6//6 3//3 4//4
f 3//3 5//5 4//4
f 5//5 21//21 23//23
f 3//3 19//19 21//21
f 3//3 21//21 5//5
f 5//5 47//47 45//45
f 4//4 5//5 45//45
f 4//4 45//45 43//43
f 5//5 23//23 47//47
f 23//23 69//69 47//47
f 11//11 6//6 14//14
f 11//11 14//14 7//7
f 11//11 7//7 12//12
f 7//7 8//8 103//103
f 7//7 103//103 12//12
f 14//14 16//16 7//7
f 7//7 112//112 9//9
f 7//7 16//16 112//112
f 7//7 9//9 8//8
f 10//10 11//11 12//12
f 1//1 10//10 18//18
f 10//10 28//28 18//18
f 1//1 11//11 10//10
f 10//10 12//12 13//13
f 12//12 102//102 105//105
f 12//12 105//105 13//13
f 12//12 103//103 102//102
f 10//10 13//13 28//28
f 13//13 108//108 28//28
f 13//13 105//105 106//106
f 13//13 106//106 108//108
f 28//28 108//108 126//126
f 14//14 15//15 16//16
f 2//2 15//15 14//14
f 2//2 42//42 15//15
f 15//15 42//42 52//52
f 15//15 17//17 16//16
f 16//16 114//114 111//111
f 16//16 111//111 112//112
f 16//16 17//17 114//114
f 15//15 52//52 17//17
f 17//17 52//52 117//117
f 17//17 115//115 114//114
f 17//17 117//117 115//115
f 52//52 155//155 117//117
f 19//19 20//20 22//22
f 19//19 18//18 20//20
f 20//20 26//26 22//22
f 20//20 30//30 26//26
f 21//21 24//24 23//23
f 19//19 22//22 21//21
f 21//21 22//22 24//24
f 22//22 26//26 25//25
f 22//22 25//25 24//24
f 23//23 24//24 70//70
f 23//23 70//70 69//69
f 24//24 73//73 70//70
f 24//24 25//25 73//73
f 25//25 78//78 73//73
f 26//26 27//27 25//25
f 26//26 35//35 27//27
f 25//25 27//27 78//78
f 27//27 80//80 78//78
f 20//20 18//18 29//29
f 28//28 29//29 18//18
f 29//29 32//32 30//30
f 20//20 29//29 30//30
f 28//28 31//31 29//29
f 28//28 126//126 127//127
f 28//28 127//127 31//31
f 31//31 127//127 128//128
f 31//31 128//128 130//130
f 29//29 31//31 32//32
f 31//31 130//130 32//32
f 32//32 130//130 131//131
f 32//32 131//131 132//132
f 30//30 35//35 26//26
f 30//30 33//33 35//35
f 30//30 32//32 33//33
f 32//32 132//132 33//33
f 33//33 132//132 137//137
f 33//33 137//137 34//34
f 35//35 33//33 37//37
f 33//33 34//34 139//139
f 33//33 139//139 37//37
f 27//27 35//35 36//36
f 35//35 37//37 36//36
f 27//27 36//36 80//80
f 36//36 84//84 80//80
f 36//36 37//37 39//39
f 37//37 139//139 141//141
f 37//37 141//141 38//38
f 37//37 38//38 39//39
f 36//36 39//39 84//84
f 39//39 41//41 84//84
f 39//39 38//38 40//40
f 39//39 40//40 41//41
f 84//84 41//41 181//181
f 43//43 46//46 44//44
f 43//43 44//44 42//42
f 44//44 46//46 50//50
f 44//44 50//50 54//54
f 45//45 47//47 48//48
f 43//43 45//45 46//46
f 45//45 48//48 46//46
f 47//47 69//69 71//71
f 47//47 71//71 48//48
f 46//46 48//48 49//49
f 46//46 49//49 50//50
f 48//48 71//71 75//75
f 48//48 75//75 49//49
f 49//49 75//75 81//81
f 50//50 49//49 51//51
f 50//50 51//51 63//63
f 49//49 81//81 51//51
f 51//51 81//81 83//83
f 44//44 53//53 42//42
f 52//52 42//42 53//53
f 53//53 54//54 60//60
f 44//44 54//54 53//53
f 52//52 53//53 56//56
f 52//52 55//55 155//155
f 52//52 56//56 55//55
f 56//56 57//57 55//55
f 56//56 58//58 57//57
f 53//53 60//60 56//56
f 56//56 60//60 58//58
f 60//60 59//59 58//58
f 60//60 61//61 59//59
f 54//54 50//50 63//63
f 54//54 63//63 62//62
f 54//54 62//62 60//60
f 60//60 62//62 61//61
f 62//62 161//161 61//61
f 62//62 162//162 161//161
f 63//63 65//65 62//62
f 62//62 164//164 162//162
f 62//62 65//65 164//164
f 51//51 64//64 63//63
f 63//63 64//64 65//65
f 51//51 83//83 64//64
f 64//64 83//83 94//94
f 64//64 67//67 65//65
f 65//65 166//166 164//164
f 65//65 66//66 166//166
f 65//65 67//67 66//66
f 64//64 94//94 67//67
f 67//67 94//94 168//168
f 67//67 68//68 66//66
f 67//67 168//168 68//68
f 94//94 189//189 168//168
f 69//69 70//70 71//71
f 70//70 72//72 71//71
f 70//70 73//73 72//72
f 73//73 78//78 74//74
f 72//72 73//73 74//74
f 71//71 72//72 75//75
f 72//72 76//76 75//75
f 75//75 76//76 81//81
f 72//72 74//74 76//76
f 74//74 77//77 76//76
f 74//74 78//78 79//79
f 78//78 80//80 79//79
f 74//74 79//79 77//77
f 77//77 79//79 86//86
f 76//76 82//82 81//81
f 81//81 82//82 83//83
f 76//76 77//77 82//82
f 77//77 92//92 82//82
f 79//79 80//80 85//85
f 80//80 84//84 85//85
f 79//79 85//85 86//86
f 85//85 89//89 86//86
f 84//84 88//88 85//85
f 84//84 181//181 87//87
f 84//84 87//87 88//88
f 88//88 87//87 182//182
f 88//88 182//182 184//184
f 85//85 88//88 89//89
f 88//88 184//184 89//89
f 89//89 91//91 90//90
f 89//89 184//184 91//91
f 82//82 92//92 93//93
f 82//82 93//93 83//83
f 83//83 93//93 94//94
f 92//92 99//99 93//93
f 94//94 93//93 96//96
f 94//94 95//95 189//189
f 94//94 96//96 95//95
f 96//96 97//97 95//95
f 96//96 98//98 97//97
f 93//93 99//99 96//96
f 99//99 191//191 193//193
f 96//96 99//99 98//98
f 99//99 193//193 98//98
f 77//77 86//86 92//92
f 86//86 100//100 92//92
f 100//100 197//197 198//198
f 86//86 89//89 100//100
f 89//89 90//90 100//100
f 100//100 90//90 197//197
f 92//92 100//100 99//99
f 99//99 100//100 191//191
f 100//100 198//198 191//191
