ply
format ascii 1.0
element vertex 214
property float x
property float y
property float z
property float nx
property float ny
property float nz
element face 424
property list uchar int vertex_index
end_header
0.31550249457359314 -6.037671089172363 -2.120148181915283 -0.7642260756069552 -0.6011713120573628 -0.23356275157143822
0.31550249457359314 -2.120148181915283 -6.037671089172363 -0.764226078266734 -0.23356273748315856 -0.601171314149653
-0.8844770789146423 -4.089075565338135 -2.084592819213867 -0.8841507041035493 -0.409943888027552 -0.22410609340678775
-0.8844770789146423 -2.084592819213867 -4.089075565338135 -0.8841507041035493 -0.22410609340678775 -0.409943888027552
-1.5818647146224976 -2.0233471393585205 -2.0233471393585205 -0.9554945741253226 -0.20860263519077188 -0.20860263519077188
0.0589551217854023 -4.297662734985352 -4.297662734985352 -0.7871378784062543 -0.43612725228888244 -0.43612725228888244
3.621147632598877 -6.357108116149902 -6.357108116149902 -0.5107600496617318 -0.6079162130338353 -0.6079161534291927
4 -6.579751014709473 -6.303529262542725 -5.895598565521763e-9 -0.7870166750400452 -0.616931724916876
4 -6.303529262542725 -6.579751014709473 -5.895598565521763e-9 -0.616931724916876 -0.7870166750400452
1.9623290300369263 -7.684497356414795 -2.120148181915283 -0.6011713057804913 -0.7642260676276176 -0.2335627938362762
1.6428916454315186 -6.357108116149902 -4.378852367401123 -0.632736562282517 -0.632736562282517 -0.4464178373472605
3.7023375034332275 -7.941044807434082 -4.297662734985352 -0.5104302084300083 -0.7598206276436617 -0.4026581877092411
3.910924196243286 -8.884476661682129 -2.084592819213867 -0.499979848948556 -0.8406606237852075 -0.2081102262322666
1.6428916454315186 -4.378852367401123 -6.357108116149902 -0.632736562282517 -0.4464178373472605 -0.632736562282517
1.9623290300369263 -2.120148181915283 -7.684497356414795 -0.6011713057804913 -0.2335627938362762 -0.7642260676276176
3.7023375034332275 -4.297662734985352 -7.941044807434082 -0.5104302084300083 -0.4026581877092411 -0.7598206276436617
3.910924196243286 -2.084592819213867 -8.884476661682129 -0.499979848948556 -0.2081102262322666 -0.8406606237852075
0.9289321899414062 -7.071067810058594 6.123233998228043e-16 -0.7071067811865476 -0.7071067811865476 1.6592658642376545e-9
-0.31469613313674927 -5.555702209472656 6.123233998228043e-16 -0.83915670696933 -0.5438897141410101 4.4264744021802554e-9
0.31550249457359314 -6.037671089172363 2.120148181915283 -0.764226078266734 -0.601171314149653 0.23356273748315856
-1.238795280456543 -3.8268344402313232 6.123233998228043e-16 -0.9329769421984243 -0.3599361406223028 2.8781731968621747e-9
-0.8844770789146423 -4.089075565338135 2.084592819213867 -0.8841507387177344 -0.4099438168358715 0.22410608707244434
-1.8078527450561523 -1.9509031772613525 6.123233998228043e-16 -0.9861362739116233 -0.16593748604730613 4.4470108329731226e-9
-1.5818647146224976 -2.0233471393585205 2.0233471393585205 -0.9554945741253226 -0.20860263519077188 0.20860263519077188
-0.8844770789146423 -2.084592819213867 4.089075565338135 -0.88415072496325 -0.2241060984872498 0.40994384026081254
0.0589551217854023 -4.297662734985352 4.297662734985352 -0.7871378784062543 -0.43612725228888244 0.43612725228888244
0.31550249457359314 -2.120148181915283 6.037671089172363 -0.764226078266734 -0.23356273748315856 0.601171314149653
2.4442975521087646 -8.314696311950684 6.123233998228043e-16 -0.5453838762262639 -0.8381863918916931 4.7023003753929496e-9
1.9623290300369263 -7.684497356414795 2.120148181915283 -0.601171269809668 -0.7642260976716057 0.2335627881171592
1.6428916454315186 -6.357108116149902 4.378852367401123 -0.632736562282517 -0.632736562282517 0.4464178373472605
3.910924196243286 -8.884476661682129 2.084592819213867 -0.49997984584759675 -0.8406606185712886 0.20811025474385386
3.7023375034332275 -7.941044807434082 4.297662734985352 -0.5104302315467999 -0.7598206024504094 0.40265820594516305
3.621147632598877 -6.357108116149902 6.357108116149902 -0.5107600056064977 -0.6079162315410357 0.6079161719363914
4 -6.303529262542725 6.579751014709473 -6.264716858419128e-9 -0.6169316879980409 0.7870167039802192
1.6428916454315186 -4.378852367401123 6.357108116149902 -0.6327365026778701 -0.4464178373472589 0.6327366218871593
1.9623290300369263 -2.120148181915283 7.684497356414795 -0.6011713057804913 -0.2335627938362762 0.7642260676276176
3.7023375034332275 -4.297662734985352 7.941044807434082 -0.5104302084300083 -0.4026581877092411 0.7598206276436617
4 -2.173668384552002 8.884476661682129 -0.22172987821742995 -0.3532073555222868 0.908889666081993
3.910924196243286 -2.084592819213867 8.884476661682129 -0.499979848948556 -0.2081102262322666 0.8406606237852075
4 -2.081951856613159 8.914548873901367 -6.186871175352007e-9 -0.1492856332487808 0.9887941139112381
4 -1.3765177726745605 9.004828453063965 -0.4306020477370653 -0.09301163339760803 0.8977364382363875
0.9289321899414062 6.123233998228043e-16 -7.071067810058594 -0.7071067811865476 1.6592658642376545e-9 -0.7071067811865476
-0.31469613313674927 6.123233998228043e-16 -5.555702209472656 -0.83915670696933 4.4264744021802554e-9 -0.5438897141410101
0.31550249457359314 2.120148181915283 -6.037671089172363 -0.764226078266734 0.23356273748315856 -0.601171314149653
-1.238795280456543 6.123233998228043e-16 -3.8268344402313232 -0.9329769522064049 2.878173005691541e-9 -0.3599361146809913
-0.8844770789146423 2.084592819213867 -4.089075565338135 -0.8841507387177344 0.22410608707244434 -0.4099438168358715
-1.8078527450561523 6.123233998228043e-16 -1.9509031772613525 -0.9861362763500041 4.65441960473847e-9 -0.16593747155645183
-1.5818647146224976 2.0233471393585205 -2.0233471393585205 -0.9554945741253226 0.20860263519077188 -0.20860263519077188
-0.8844770789146423 4.089075565338135 -2.084592819213867 -0.88415072496325 0.40994384026081254 -0.2241060984872498
0.0589551217854023 4.297662734985352 -4.297662734985352 -0.7871378784062543 0.43612725228888244 -0.43612725228888244
0.31550249457359314 6.037671089172363 -2.120148181915283 -0.764226078266734 0.601171314149653 -0.23356273748315856
2.4442975521087646 6.123233998228043e-16 -8.314696311950684 -0.5453838762262639 4.7023003753929496e-9 -0.8381863918916931
1.9623290300369263 2.120148181915283 -7.684497356414795 -0.601171269809668 0.2335627881171592 -0.7642260976716057
1.6428916454315186 4.378852367401123 -6.357108116149902 -0.632736562282517 0.4464178373472605 -0.632736562282517
4 1.3765177726745605 -9.004828453063965 -0.43060204743866204 0.09301164078373249 -0.8977364376142644
3.910924196243286 2.084592819213867 -8.884476661682129 -0.49997984584759675 0.20811025474385386 -0.8406606185712886
4 2.081951856613159 -8.914548873901367 -3.0934355807945647e-9 0.14928564781785209 -0.9887941117116366
4 2.173668384552002 -8.884476661682129 -0.22172990422052935 0.35320737927258994 -0.9088896505086542
4 4.269607067108154 -8.067938804626465 0.047872427479001105 0.37971493306766996 -0.9238640594225337
3.7023375034332275 4.297662734985352 -7.941044807434082 -0.5104302315467999 0.40265820594516305 -0.7598206024504094
4 4.535518646240234 -7.905975341796875 5.079145508633217e-9 0.5959014845697066 -0.8030575450661178
3.621147632598877 6.357108116149902 -6.357108116149902 -0.5107600056064977 0.6079161719363914 -0.6079162315410357
1.6428916454315186 6.357108116149902 -4.378852367401123 -0.6327365026778701 0.6327366218871593 -0.4464178373472589
1.9623290300369263 7.684497356414795 -2.120148181915283 -0.6011713057804913 0.7642260676276176 -0.2335627938362762
3.7023375034332275 7.941044807434082 -4.297662734985352 -0.5104302084300083 0.7598206276436617 -0.4026581877092411
4 8.884476661682129 -2.173668384552002 -0.22172987821742995 0.908889666081993 -0.3532073555222868
3.910924196243286 8.884476661682129 -2.084592819213867 -0.499979848948556 0.8406606237852075 -0.2081102262322666
4 8.914548873901367 -2.081951856613159 -6.186871175352007e-9 0.9887941139112381 -0.1492856332487808
-2 6.123233998228043e-16 6.123233998228043e-16 -1 -9.046949300817175e-10 -9.046949300817175e-10
-1.8078527450561523 6.123233998228043e-16 1.9509031772613525 -0.9861362739116233 -1.0255625407065205e-9 0.16593748604730613
-1.8078527450561523 1.9509031772613525 6.123233998228043e-16 -0.9861362739116233 0.16593748604730613 -1.0255625407065205e-9
-1.5818647146224976 2.0233471393585205 2.0233471393585205 -0.9554945622450023 0.20860264749823296 0.2086026773005547
-1.238795280456543 6.123233998228043e-16 3.8268344402313232 -0.9329769522064049 2.878173005691541e-9 0.3599361146809913
-0.8844770789146423 2.084592819213867 4.089075565338135 -0.88415072496325 0.2241060984872498 0.40994384026081254
-1.238795280456543 3.8268344402313232 6.123233998228043e-16 -0.9329769421984243 0.3599361406223028 2.223341465769451e-9
-0.8844770789146423 4.089075565338135 2.084592819213867 -0.88415072496325 0.40994384026081254 0.2241060984872498
0.0589551217854023 4.297662734985352 4.297662734985352 -0.7871378784062543 0.43612725228888244 0.43612725228888244
-0.31469613313674927 6.123233998228043e-16 5.555702209472656 -0.8391567246013382 -3.647110294710755e-9 0.5438896869369322
0.31550249457359314 2.120148181915283 6.037671089172363 -0.764226078266734 0.23356273748315856 0.601171314149653
0.9289321899414062 6.123233998228043e-16 7.071067810058594 -0.7071067811865476 1.6592658642376545e-9 0.7071067811865476
-0.31469613313674927 5.555702209472656 6.123233998228043e-16 -0.8391567246013382 0.5438896869369322 -3.647110294710755e-9
0.31550249457359314 6.037671089172363 2.120148181915283 -0.764226078266734 0.601171314149653 0.23356273748315856
0.9289321899414062 7.071067810058594 6.123233998228043e-16 -0.7071067811865476 0.7071067811865476 1.6592658642376545e-9
2.4442975521087646 6.123233998228043e-16 8.314696311950684 -0.5453838762262639 4.7023003753929496e-9 0.8381863918916931
1.9623290300369263 2.120148181915283 7.684497356414795 -0.6011713057804913 0.2335627938362762 0.7642260676276176
1.6428916454315186 4.378852367401123 6.357108116149902 -0.632736562282517 0.4464178373472605 0.632736562282517
4 1.3765177726745605 9.004828453063965 1.2221459365187972e-9 0.10264654428286847 0.9947178931469893
3.910924196243286 2.084592819213867 8.884476661682129 -0.49997984584759675 0.20811025474385386 0.8406606185712886
3.7023375034332275 4.297662734985352 7.941044807434082 -0.5104302315467999 0.40265820594516305 0.7598206024504094
4 4.535518646240234 7.905975341796875 5.079145508633217e-9 0.5959014845697066 0.8030575450661178
4 4.269607067108154 8.067938804626465 0.04787242802074399 0.3797149075623484 0.9238640698773364
1.6428916454315186 6.357108116149902 4.378852367401123 -0.632736562282517 0.632736562282517 0.4464178373472605
1.9623290300369263 7.684497356414795 2.120148181915283 -0.6011713057804913 0.7642260676276176 0.2335627938362762
2.4442975521087646 8.314696311950684 6.123233998228043e-16 -0.5453838762262639 0.8381863918916931 4.7023003753929496e-9
4 9.004828453063965 1.3765177726745605 -0.43060204743866204 0.8977364376142644 0.09301164078373249
3.910924196243286 8.884476661682129 2.084592819213867 -0.49997984584759675 0.8406606185712886 0.20811025474385386
4 8.914548873901367 2.081951856613159 -3.0934355807945647e-9 0.9887941117116366 0.14928564781785209
4 8.884476661682129 2.173668384552002 -0.22172990422052935 0.9088896505086542 0.35320737927258994
3.7023375034332275 7.941044807434082 4.297662734985352 -0.5104302315467999 0.7598206024504094 0.40265820594516305
3.621147632598877 6.357108116149902 6.357108116149902 -0.5107600681689326 0.6079161754568089 0.6079161754568089
4.378852367401123 -6.357108116149902 -6.357108116149902 0.5107600681689326 -0.6079161754568089 -0.6079161754568089
4 -8.067938804626465 -4.269607067108154 0.04787242802074399 -0.9238640698773364 -0.3797149075623484
4 -7.905975341796875 -4.535518646240234 5.050856582099113e-9 -0.8030575450661178 -0.5959014845697066
4.297662734985352 -7.941044807434082 -4.297662734985352 0.5121810382417559 -0.7583336154390378 -0.4032377856312011
4 -8.884476661682129 -2.173668384552002 -0.22172987821742995 -0.908889666081993 -0.3532073555222868
4 -8.914548873901367 -2.081951856613159 -6.186871175352007e-9 -0.9887941139112381 -0.1492856332487808
4.089075565338135 -8.884476661682129 -2.084592819213867 0.49153320234740666 -0.8436625811585183 -0.21593647247060876
4 -9.004828453063965 -1.3765177726745605 -2.9165656495632526e-9 -0.9947178939077259 -0.10264653691078954
6.037671089172363 -7.684497356414795 -2.120148181915283 0.6011713099650724 -0.7642260729471761 -0.2335627656597177
6.357108116149902 -6.357108116149902 -4.378852367401123 0.6327366218871593 -0.6327365026778701 -0.4464178373472589
4 -4.269607067108154 -8.067938804626465 0.04787242802074399 -0.3797149075623484 -0.9238640698773364
4 -4.535518646240234 -7.905975341796875 5.050856582099113e-9 -0.5959014845697066 -0.8030575450661178
4.297662734985352 -4.297662734985352 -7.941044807434082 0.5121810382417559 -0.4032377856312011 -0.7583336154390378
4 -2.173668384552002 -8.884476661682129 -0.22172987821742995 -0.3532073555222868 -0.908889666081993
4 -2.081951856613159 -8.914548873901367 -6.186871175352007e-9 -0.1492856332487808 -0.9887941139112381
4.089075565338135 -2.084592819213867 -8.884476661682129 0.49153320234740666 -0.21593647247060876 -0.8436625811585183
4 -1.3765177726745605 -9.004828453063965 -2.9165656495632526e-9 -0.10264653691078954 -0.9947178939077259
6.357108116149902 -4.378852367401123 -6.357108116149902 0.6327366218871593 -0.4464178373472589 -0.6327365026778701
6.037671089172363 -2.120148181915283 -7.684497356414795 0.601171307872782 -0.23356277974799702 -0.764226070287397
7.684497356414795 -6.037671089172363 -2.120148181915283 0.7642260729471761 -0.6011713099650724 -0.2335627656597177
7.684497356414795 -2.120148181915283 -6.037671089172363 0.7642260729471761 -0.2335627656597177 -0.6011713099650724
7.941044807434082 -4.297662734985352 -4.297662734985352 0.7871378784062543 -0.43612725228888244 -0.43612725228888244
8.884476661682129 -4.089075565338135 -2.084592819213867 0.8841507436145106 -0.40994378930397996 -0.22410611811595477
8.884476661682129 -2.084592819213867 -4.089075565338135 0.8841507436145106 -0.22410611811595477 -0.40994378930397996
9.581864356994629 -2.0233471393585205 -2.0233471393585205 0.9554945273567927 -0.20860274230126877 -0.20860274230126877
4 -9.146236419677734 6.123233998228043e-16 0.06668264391170729 -0.9976919252004823 0.012815903819072463
4 -9.004828453063965 1.3765177726745605 -0.43060204743866204 -0.8977364376142644 0.09301164078373249
4 -8.914548873901367 2.081951856613159 -3.0934355807945647e-9 -0.9887941117116366 0.14928564781785209
4.089075565338135 -8.884476661682129 2.084592819213867 0.4885186632576661 -0.8503318567504567 0.19566616734699907
4 -8.884476661682129 2.173668384552002 -0.22172990422052935 -0.9088896505086542 0.35320737927258994
4 -8.067938804626465 4.269607067108154 0.047872427479001105 -0.9238640594225337 0.37971493306766996
4 -7.905975341796875 4.535518646240234 5.079145508633217e-9 -0.8030575450661178 0.5959014845697066
4.297662734985352 -7.941044807434082 4.297662734985352 0.5121810320866599 -0.7583336063258224 0.40323781058764396
5.555702209472656 -8.314696311950684 6.123233998228043e-16 0.5457781371588746 -0.8379295785445204 -0.0004963865338430671
6.037671089172363 -7.684497356414795 2.120148181915283 0.6011712487023302 -0.7642261304439989 0.23356273521320325
6.357108116149902 -6.357108116149902 4.378852367401123 0.6327365777274572 -0.6327365181228111 0.44641787804653055
4 -6.579751014709473 6.303529262542725 -5.895598565521763e-9 -0.7870166750400452 0.616931724916876
4.378852367401123 -6.357108116149902 6.357108116149902 0.5107600681689326 -0.6079161754568089 0.6079161754568089
4 -4.535518646240234 7.905975341796875 5.050856582099113e-9 -0.5959014845697066 0.8030575450661178
4.297662734985352 -4.297662734985352 7.941044807434082 0.5121810382417559 -0.4032377856312011 0.7583336154390378
4 -4.269607067108154 8.067938804626465 0.04787242802074399 -0.3797149075623484 0.9238640698773364
4.089075565338135 -2.084592819213867 8.884476661682129 0.48851866183331505 -0.19566618167766578 0.850331854271184
6.357108116149902 -4.378852367401123 6.357108116149902 0.6327365777274572 -0.44641787804653055 0.6327365181228111
6.037671089172363 -2.120148181915283 7.684497356414795 0.601171307872782 -0.23356277974799702 0.764226070287397
7.071067810058594 -7.071067810058594 6.123233998228043e-16 0.7071067811865476 -0.7071067811865476 -1.5915967705279218e-9
7.684497356414795 -6.037671089172363 2.120148181915283 0.7642261277842199 -0.6011712466100403 0.2335627493014828
8.314696311950684 -5.555702209472656 6.123233998228043e-16 0.8391567518054149 -0.5438896449642935 -1.5476658934512177e-9
7.941044807434082 -4.297662734985352 4.297662734985352 0.7871378784062543 -0.43612725228888244 0.43612725228888244
9.238795280456543 -3.8268344402313232 6.123233998228043e-16 0.9329769522064049 -0.3599361146809913 3.2054472102934842e-9
8.884476661682129 -4.089075565338135 2.084592819213867 0.8841507465670799 -0.4099437906729631 0.22410610396318273
9.807852745056152 -1.9509031772613525 6.123233998228043e-16 0.9861362641580977 -0.16593754401072225 6.760667070834742e-10
9.581864356994629 -2.0233471393585205 2.0233471393585205 0.9554945332969552 -0.20860272869695856 0.20860272869695856
8.884476661682129 -2.084592819213867 4.089075565338135 0.8841507436145106 -0.22410611811595477 0.40994378930397996
7.684497356414795 -2.120148181915283 6.037671089172363 0.7642260729471761 -0.2335627656597177 0.6011713099650724
4 6.123233998228043e-16 -9.146236419677734 0.06668264391170729 0.012815903819072463 -0.9976919252004823
4.089075565338135 2.084592819213867 -8.884476661682129 0.4885186632576661 0.19566616734699907 -0.8503318567504567
4.297662734985352 4.297662734985352 -7.941044807434082 0.5121810320866599 0.40323781058764396 -0.7583336063258224
5.555702209472656 6.123233998228043e-16 -8.314696311950684 0.5457781371588746 -0.0004963865338430671 -0.8379295785445204
6.037671089172363 2.120148181915283 -7.684497356414795 0.6011712487023302 0.23356273521320325 -0.7642261304439989
6.357108116149902 4.378852367401123 -6.357108116149902 0.6327365777274572 0.44641787804653055 -0.6327365181228111
4 6.303529262542725 -6.579751014709473 -5.895598565521763e-9 0.616931724916876 -0.7870166750400452
4 6.579751014709473 -6.303529262542725 -6.264716858419128e-9 0.7870167039802192 -0.6169316879980409
4.378852367401123 6.357108116149902 -6.357108116149902 0.5107600681689326 0.6079161754568089 -0.6079161754568089
4 7.905975341796875 -4.535518646240234 5.050856582099113e-9 0.8030575450661178 -0.5959014845697066
4.297662734985352 7.941044807434082 -4.297662734985352 0.5121810382417559 0.7583336154390378 -0.4032377856312011
4 8.067938804626465 -4.269607067108154 0.04787242802074399 0.9238640698773364 -0.3797149075623484
4.089075565338135 8.884476661682129 -2.084592819213867 0.49153320234740666 0.8436625811585183 -0.21593647247060876
4 9.004828453063965 -1.3765177726745605 -2.9165656495632526e-9 0.9947178939077259 -0.10264653691078954
6.357108116149902 6.357108116149902 -4.378852367401123 0.6327365777274572 0.6327365181228111 -0.44641787804653055
6.037671089172363 7.684497356414795 -2.120148181915283 0.601171307872782 0.764226070287397 -0.23356277974799702
7.071067810058594 6.123233998228043e-16 -7.071067810058594 0.7071067811865476 -1.5915967705279218e-9 -0.7071067811865476
7.684497356414795 2.120148181915283 -6.037671089172363 0.7642261277842199 0.2335627493014828 -0.6011712466100403
8.314696311950684 6.123233998228043e-16 -5.555702209472656 0.8391567518054149 -1.5476658934512177e-9 -0.5438896449642935
7.941044807434082 4.297662734985352 -4.297662734985352 0.7871378784062543 0.43612725228888244 -0.43612725228888244
9.238795280456543 6.123233998228043e-16 -3.8268344402313232 0.9329769522064049 3.2054472102934842e-9 -0.3599361146809913
8.884476661682129 2.084592819213867 -4.089075565338135 0.8841507465670799 0.22410610396318273 -0.4099437906729631
9.807852745056152 6.123233998228043e-16 -1.9509031772613525 0.9861362665964795 1.3998915487270587e-9 -0.16593752951986837
9.581864356994629 2.0233471393585205 -2.0233471393585205 0.9554945332969552 0.20860272869695856 -0.20860272869695856
8.884476661682129 4.089075565338135 -2.084592819213867 0.8841507436145106 0.40994378930397996 -0.22410611811595477
7.684497356414795 6.037671089172363 -2.120148181915283 0.7642260729471761 0.6011713099650724 -0.2335627656597177
4 6.123233998228043e-16 9.146236419677734 0.06668266616565206 -0.012815901937631494 0.9976919237372655
4 2.081951856613159 8.914548873901367 -3.0934355807945647e-9 0.14928564781785209 0.9887941117116366
4.089075565338135 2.084592819213867 8.884476661682129 0.49153320234740666 0.21593647247060876 0.8436625811585183
4 2.173668384552002 8.884476661682129 -0.22172990422052935 0.35320737927258994 0.9088896505086542
4.297662734985352 4.297662734985352 7.941044807434082 0.5121810320866599 0.40323781058764396 0.7583336063258224
5.555702209472656 6.123233998228043e-16 8.314696311950684 0.545778137156588 0.0004963949739515389 0.8379295785410098
6.037671089172363 2.120148181915283 7.684497356414795 0.6011712466100403 0.2335627493014828 0.7642261277842199
6.357108116149902 4.378852367401123 6.357108116149902 0.6327365777274572 0.44641787804653055 0.6327365181228111
4 9.146236419677734 6.123233998228043e-16 0.06668264391170729 0.9976919252004823 0.012815903819072463
4.089075565338135 8.884476661682129 2.084592819213867 0.4885186632576661 0.8503318567504567 0.19566616734699907
4 7.905975341796875 4.535518646240234 5.079145508633217e-9 0.8030575450661178 0.5959014845697066
4.297662734985352 7.941044807434082 4.297662734985352 0.5121810320866599 0.7583336063258224 0.40323781058764396
4 8.067938804626465 4.269607067108154 0.04787242802074399 0.9238640698773364 0.3797149075623484
6.357108116149902 6.357108116149902 4.378852367401123 0.6327365777274572 0.6327365181228111 0.44641787804653055
6.037671089172363 7.684497356414795 2.120148181915283 0.6011713120573628 0.7642260756069552 0.23356275157143822
5.555702209472656 8.314696311950684 6.123233998228043e-16 0.5457781371588746 0.8379295785445204 -0.0004963865338430671
4 6.303529262542725 6.579751014709473 -6.264716858419128e-9 0.6169316879980409 0.7870167039802192
4 6.579751014709473 6.303529262542725 -6.264716858419128e-9 0.7870167039802192 0.6169316879980409
4.378852367401123 6.357108116149902 6.357108116149902 0.5107600681689326 0.6079161754568089 0.6079161754568089
7.941044807434082 4.297662734985352 4.297662734985352 0.7871378784062543 0.43612725228888244 0.43612725228888244
10 6.123233998228043e-16 6.123233998228043e-16 1 -9.046949300817175e-10 -9.046949300817175e-10
9.807852745056152 6.123233998228043e-16 1.9509031772613525 0.9861362641580977 8.739564685237914e-10 0.16593754401072225
9.807852745056152 1.9509031772613525 6.123233998228043e-16 0.9861362641580977 0.16593754401072225 8.739564685237914e-10
9.581864356994629 2.0233471393585205 2.0233471393585205 0.9554945243867116 0.20860275655400443 0.2086027416528432
9.238795280456543 6.123233998228043e-16 3.8268344402313232 0.9329769522064049 3.2054472102934842e-9 0.3599361146809913
8.884476661682129 2.084592819213867 4.089075565338135 0.8841507436145106 0.22410611811595477 0.40994378930397996
9.238795280456543 3.8268344402313232 6.123233998228043e-16 0.9329769522064049 0.3599361146809913 2.016166325690322e-9
8.884476661682129 4.089075565338135 2.084592819213867 0.8841507436145106 0.40994378930397996 0.22410611811595477
7.684497356414795 2.120148181915283 6.037671089172363 0.7642261277842199 0.2335627493014828 0.6011712466100403
8.314696311950684 6.123233998228043e-16 5.555702209472656 0.8391567518054149 9.965264228086389e-10 0.5438896449642935
7.071067810058594 6.123233998228043e-16 7.071067810058594 0.7071067811865476 -1.5915967705279218e-9 0.7071067811865476
7.684497356414795 6.037671089172363 2.120148181915283 0.7642261277842199 0.6011712466100403 0.2335627493014828
8.314696311950684 5.555702209472656 6.123233998228043e-16 0.8391567518054149 0.5438896449642935 9.965264228086389e-10
7.071067810058594 7.071067810058594 6.123233998228043e-16 0.7071067811865476 0.7071067811865476 -1.5915967705279218e-9
3 100 102 7
3 100 103 102
3 100 109 103
3 100 8 111
3 100 111 112
3 100 112 117
3 100 7 8
3 100 117 109
3 109 117 121
3 103 106 101
3 106 104 101
3 103 101 102
3 103 108 106
3 106 105 104
3 106 107 105
3 106 133 107
3 133 125 107
3 106 108 133
3 103 109 108
3 108 144 133
3 108 119 144
3 108 109 119
3 112 110 115
3 112 111 110
3 115 110 113
3 112 115 118
3 115 113 114
3 115 114 116
3 115 116 157
3 157 116 154
3 115 157 118
3 112 118 117
3 117 118 120
3 118 157 170
3 118 170 120
3 109 121 119
3 119 121 122
3 119 146 144
3 119 122 146
3 117 120 121
3 120 123 121
3 120 170 172
3 120 172 123
3 121 123 122
3 122 123 124
3 122 148 146
3 122 124 148
3 124 150 148
3 123 174 124
3 123 172 174
3 124 174 176
3 124 176 150
3 150 176 200
3 128 125 133
3 128 126 125
3 128 127 126
3 128 129 127
3 128 133 134
3 128 130 129
3 128 132 130
3 132 131 130
3 128 134 132
3 133 144 134
3 134 144 145
3 132 134 135
3 134 145 135
3 132 137 131
3 137 136 131
3 132 135 137
3 137 33 136
3 137 138 33
3 137 139 138
3 137 142 139
3 137 135 142
3 135 147 142
3 139 140 138
3 139 141 140
3 141 37 140
3 139 143 141
3 141 39 37
3 141 40 39
3 141 180 40
3 141 185 180
3 141 143 185
3 142 153 143
3 139 142 143
3 143 210 185
3 143 153 210
3 144 146 145
3 146 149 145
3 135 145 147
3 145 149 147
3 146 148 149
3 148 151 149
3 148 150 151
3 149 152 147
3 149 151 152
3 150 201 151
3 150 200 201
3 151 204 152
3 152 204 209
3 151 201 204
3 147 153 142
3 147 152 153
3 153 209 210
3 152 209 153
3 155 157 154
3 155 154 54
3 155 54 56
3 155 56 57
3 155 158 157
3 155 57 58
3 155 58 156
3 156 58 60
3 155 156 158
3 157 158 170
3 158 171 170
3 156 159 158
3 158 159 171
3 156 60 162
3 162 60 160
3 156 162 159
3 162 160 161
3 162 161 163
3 162 163 164
3 162 164 168
3 162 168 159
3 159 168 173
3 164 163 165
3 164 165 166
3 166 165 65
3 164 166 169
3 166 65 67
3 166 67 167
3 166 167 195
3 195 167 188
3 166 195 169
3 168 169 179
3 164 169 168
3 169 195 213
3 169 213 179
3 170 171 172
3 172 171 175
3 159 173 171
3 171 173 175
3 172 175 174
3 174 175 177
3 174 177 176
3 176 202 200
3 176 177 202
3 175 178 177
3 175 173 178
3 177 178 206
3 178 212 206
3 177 206 202
3 173 168 179
3 173 179 178
3 179 213 212
3 178 179 212
3 185 86 180
3 182 181 86
3 182 183 181
3 182 86 185
3 182 185 186
3 182 90 183
3 184 89 90
3 182 184 90
3 182 186 184
3 210 186 185
3 210 208 186
3 186 208 187
3 184 186 187
3 189 195 188
3 189 188 94
3 189 94 96
3 189 96 97
3 189 194 195
3 191 192 190
3 189 97 192
3 189 192 191
3 189 191 194
3 193 211 194
3 213 195 194
3 213 194 211
3 191 193 194
3 198 197 196
3 184 198 89
3 198 196 89
3 184 187 198
3 191 190 198
3 198 190 197
3 191 198 193
3 198 187 193
3 199 193 187
3 200 202 201
3 201 202 203
3 204 205 209
3 203 205 204
3 201 203 204
3 203 206 207
3 206 212 207
3 202 206 203
3 203 207 205
3 205 207 199
3 210 209 208
3 205 208 209
3 199 187 208
3 205 199 208
3 213 211 212
3 207 212 211
3 199 211 193
3 207 211 199
3 0 2 5
3 0 5 10
3 0 18 2
3 0 17 18
3 1 5 3
3 1 13 5
3 1 3 42
3 1 42 41
3 5 2 3
3 2 4 3
3 4 20 22
3 2 18 20
3 2 20 4
3 4 46 44
3 3 4 44
3 3 44 42
3 4 22 46
3 22 68 46
3 10 5 13
3 10 13 6
3 10 6 11
3 6 7 102
3 6 102 11
3 13 15 6
3 6 111 8
3 6 15 111
3 6 8 7
3 9 10 11
3 0 9 17
3 9 27 17
3 0 10 9
3 9 11 12
3 11 101 104
3 11 104 12
3 11 102 101
3 9 12 27
3 12 107 27
3 12 104 105
3 12 105 107
3 27 107 125
3 13 14 15
3 1 14 13
3 1 41 14
3 14 41 51
3 14 16 15
3 15 113 110
3 15 110 111
3 15 16 113
3 14 51 16
3 16 51 116
3 16 114 113
3 16 116 114
3 51 154 116
3 18 19 21
3 18 17 19
3 19 25 21
3 19 29 25
3 20 23 22
3 18 21 20
3 20 21 23
3 21 25 24
3 21 24 23
3 22 23 69
3 22 69 68
3 23 72 69
3 23 24 72
3 24 77 72
3 25 26 24
3 25 34 26
3 24 26 77
3 26 79 77
3 19 17 28
3 27 28 17
3 28 31 29
3 19 28 29
3 27 30 28
3 27 125 126
3 27 126 30
3 30 126 127
3 30 127 129
3 28 30 31
3 30 129 31
3 31 129 130
3 31 130 131
3 29 34 25
3 29 32 34
3 29 31 32
3 31 131 32
3 32 131 136
3 32 136 33
3 34 32 36
3 32 33 138
3 32 138 36
3 26 34 35
3 34 36 35
3 26 35 79
3 35 83 79
3 35 36 38
3 36 138 140
3 36 140 37
3 36 37 38
3 35 38 83
3 38 40 83
3 38 37 39
3 38 39 40
3 83 40 180
3 42 45 43
3 42 43 41
3 43 45 49
3 43 49 53
3 44 46 47
3 42 44 45
3 44 47 45
3 46 68 70
3 46 70 47
3 45 47 48
3 45 48 49
3 47 70 74
3 47 74 48
3 48 74 80
3 49 48 50
3 49 50 62
3 48 80 50
3 50 80 82
3 43 52 41
3 51 41 52
3 52 53 59
3 43 53 52
3 51 52 55
3 51 54 154
3 51 55 54
3 55 56 54
3 55 57 56
3 52 59 55
3 55 59 57
3 59 58 57
3 59 60 58
3 53 49 62
3 53 62 61
3 53 61 59
3 59 61 60
3 61 160 60
3 61 161 160
3 62 64 61
3 61 163 161
3 61 64 163
3 50 63 62
3 62 63 64
3 50 82 63
3 63 82 93
3 63 66 64
3 64 165 163
3 64 65 165
3 64 66 65
3 63 93 66
3 66 93 167
3 66 67 65
3 66 167 67
3 93 188 167
3 68 69 70
3 69 71 70
3 69 72 71
3 72 77 73
3 71 72 73
3 70 71 74
3 71 75 74
3 74 75 80
3 71 73 75
3 73 76 75
3 73 77 78
3 77 79 78
3 73 78 76
3 76 78 85
3 75 81 80
3 80 81 82
3 75 76 81
3 76 91 81
3 78 79 84
3 79 83 84
3 78 84 85
3 84 88 85
3 83 87 84
3 83 180 86
3 83 86 87
3 87 86 181
3 87 181 183
3 84 87 88
3 87 183 88
3 88 90 89
3 88 183 90
3 81 91 92
3 81 92 82
3 82 92 93
3 91 98 92
3 93 92 95
3 93 94 188
3 93 95 94
3 95 96 94
3 95 97 96
3 92 98 95
3 98 190 192
3 95 98 97
3 98 192 97
3 76 85 91
3 85 99 91
3 99 196 197
3 85 88 99
3 88 89 99
3 99 89 196
3 91 99 98
3 98 99 190
3 99 197 190

