solid exported
	facet normal 0 0 -1
		outer loop
			vertex -3.6955180168151855 -1.5307337045669556 -8
			vertex -3.9231410026550293 -0.7803612947463989 -8
			vertex -3.6955180168151855 1.5307337045669556 -8
		endloop
	endfacet
	facet normal -0.8819213089994024 -0.47139665328975405 0
		outer loop
			vertex -3.325878381729126 -2.222280979156494 -8
			vertex -3.6955180168151855 -1.5307337045669556 6.5
			vertex -3.6955180168151855 -1.5307337045669556 -8
		endloop
	endfacet
	facet normal -0.9569403343682077 -0.29028468175097155 0
		outer loop
			vertex -3.6955180168151855 -1.5307337045669556 -8
			vertex -3.9231410026550293 -0.7803612947463989 6.5
			vertex -3.9231410026550293 -0.7803612947463989 -8
		endloop
	endfacet
	facet normal -0.9951847119559187 -0.09801728974632536 0
		outer loop
			vertex -3.9231410026550293 -0.7803612947463989 -8
			vertex -4 0 6.5
			vertex -4 0 -8
		endloop
	endfacet
	facet normal -0.29028468175097155 -0.9569403343682077 0
		outer loop
			vertex -1.5307337045669556 -3.6955180168151855 -8
			vertex -0.7803612947463989 -3.9231410026550293 -8
			vertex -1.5307337045669556 -3.6955180168151855 6.5
		endloop
	endfacet
	facet normal -0.09801728974632536 -0.9951847119559187 0
		outer loop
			vertex -0.7803612947463989 -3.9231410026550293 -8
			vertex 0 -4 -8
			vertex -0.7803612947463989 -3.9231410026550293 6.5
		endloop
	endfacet
	facet normal 0 0 -1
		outer loop
			vertex -3.325878381729126 -2.222280979156494 -8
			vertex -3.6955180168151855 -1.5307337045669556 -8
			vertex -3.325878381729126 2.222280979156494 -8
		endloop
	endfacet
	facet normal 0 0 -1
		outer loop
			vertex -3.325878381729126 -2.222280979156494 -8
			vertex -2.8284270763397217 2.8284270763397217 -8
			vertex -2.8284270763397217 -2.8284270763397217 -8
		endloop
	endfacet
	facet normal 0 0 -1
		outer loop
			vertex -2.222280979156494 -3.325878381729126 -8
			vertex -2.8284270763397217 -2.8284270763397217 -8
			vertex -2.222280979156494 3.325878381729126 -8
		endloop
	endfacet
	facet normal 0 0 -1
		outer loop
			vertex -2.222280979156494 -3.325878381729126 -8
			vertex -1.5307337045669556 3.6955180168151855 -8
			vertex -1.5307337045669556 -3.6955180168151855 -8
		endloop
	endfacet
	facet normal 0 0 -1
		outer loop
			vertex -1.5307337045669556 -3.6955180168151855 -8
			vertex -0.7803612947463989 3.9231410026550293 -8
			vertex -0.7803612947463989 -3.9231410026550293 -8
		endloop
	endfacet
	facet normal 0 0 -1
		outer loop
			vertex -0.7803612947463989 -3.9231410026550293 -8
			vertex 0 4 -8
			vertex 0 -4 -8
		endloop
	endfacet
	facet normal -0.6343933293432417 -0.7730104162847984 0
		outer loop
			vertex -2.222280979156494 -3.325878381729126 -8
			vertex -2.8284270763397217 -2.8284270763397217 6.5
			vertex -2.8284270763397217 -2.8284270763397217 -8
		endloop
	endfacet
	facet normal -0.7730104162847984 -0.6343933293432417 0
		outer loop
			vertex -3.325878381729126 -2.222280979156494 -8
			vertex -2.8284270763397217 -2.8284270763397217 -8
			vertex -3.325878381729126 -2.222280979156494 6.5
		endloop
	endfacet
	facet normal -0.47139665328975405 -0.8819213089994024 0
		outer loop
			vertex -2.222280979156494 -3.325878381729126 -8
			vertex -1.5307337045669556 -3.6955180168151855 -8
			vertex -2.222280979156494 -3.325878381729126 6.5
		endloop
	endfacet
	facet normal -0.9569403343682077 -0.29028468175097155 0
		outer loop
			vertex -3.6955180168151855 -1.5307337045669556 -8
			vertex -3.6955180168151855 -1.5307337045669556 6.5
			vertex -3.9231410026550293 -0.7803612947463989 6.5
		endloop
	endfacet
	facet normal -0.9951847119559187 -0.09801728974632536 0
		outer loop
			vertex -3.9231410026550293 -0.7803612947463989 -8
			vertex -3.9231410026550293 -0.7803612947463989 6.5
			vertex -4 0 6.5
		endloop
	endfacet
	facet normal -0.47139665328975405 -0.8819213089994024 0
		outer loop
			vertex -1.5307337045669556 -3.6955180168151855 -8
			vertex -1.5307337045669556 -3.6955180168151855 6.5
			vertex -2.222280979156494 -3.325878381729126 6.5
		endloop
	endfacet
	facet normal -0.29028468175097155 -0.9569403343682077 0
		outer loop
			vertex -0.7803612947463989 -3.9231410026550293 -8
			vertex -0.7803612947463989 -3.9231410026550293 6.5
			vertex -1.5307337045669556 -3.6955180168151855 6.5
		endloop
	endfacet
	facet normal -0.09801728974632536 -0.9951847119559187 0
		outer loop
			vertex 0 -4 -8
			vertex 0 -4 6.5
			vertex -0.7803612947463989 -3.9231410026550293 6.5
		endloop
	endfacet
	facet normal -0.7730104162847984 -0.6343933293432417 0
		outer loop
			vertex -2.8284270763397217 -2.8284270763397217 -8
			vertex -2.8284270763397217 -2.8284270763397217 6.5
			vertex -3.325878381729126 -2.222280979156494 6.5
		endloop
	endfacet
	facet normal -0.8819213089994024 -0.47139665328975405 0
		outer loop
			vertex -3.325878381729126 -2.222280979156494 -8
			vertex -3.325878381729126 -2.222280979156494 6.5
			vertex -3.6955180168151855 -1.5307337045669556 6.5
		endloop
	endfacet
	facet normal -0.6343933293432417 -0.7730104162847984 0
		outer loop
			vertex -2.222280979156494 -3.325878381729126 -8
			vertex -2.222280979156494 -3.325878381729126 6.5
			vertex -2.8284270763397217 -2.8284270763397217 6.5
		endloop
	endfacet
	facet normal 0 0 -1
		outer loop
			vertex -3.9231410026550293 -0.7803612947463989 -8
			vertex -4 0 -8
			vertex -3.9231410026550293 0.7803612947463989 -8
		endloop
	endfacet
	facet normal 0 0 -1
		outer loop
			vertex -3.9231410026550293 -0.7803612947463989 -8
			vertex -3.9231410026550293 0.7803612947463989 -8
			vertex -3.6955180168151855 1.5307337045669556 -8
		endloop
	endfacet
	facet normal 0 0 -1
		outer loop
			vertex -3.6955180168151855 -1.5307337045669556 -8
			vertex -3.6955180168151855 1.5307337045669556 -8
			vertex -3.325878381729126 2.222280979156494 -8
		endloop
	endfacet
	facet normal -0.9951847119559187 0.09801728974632536 0
		outer loop
			vertex -4 0 -8
			vertex -3.9231410026550293 0.7803612947463989 6.5
			vertex -3.9231410026550293 0.7803612947463989 -8
		endloop
	endfacet
	facet normal -0.9569403343682077 0.29028468175097155 0
		outer loop
			vertex -3.9231410026550293 0.7803612947463989 -8
			vertex -3.6955180168151855 1.5307337045669556 6.5
			vertex -3.6955180168151855 1.5307337045669556 -8
		endloop
	endfacet
	facet normal 0 0 -1
		outer loop
			vertex -3.325878381729126 -2.222280979156494 -8
			vertex -3.325878381729126 2.222280979156494 -8
			vertex -2.8284270763397217 2.8284270763397217 -8
		endloop
	endfacet
	facet normal 0 0 -1
		outer loop
			vertex -2.8284270763397217 -2.8284270763397217 -8
			vertex -2.8284270763397217 2.8284270763397217 -8
			vertex -2.222280979156494 3.325878381729126 -8
		endloop
	endfacet
	facet normal 0 0 -1
		outer loop
			vertex -2.222280979156494 -3.325878381729126 -8
			vertex -2.222280979156494 3.325878381729126 -8
			vertex -1.5307337045669556 3.6955180168151855 -8
		endloop
	endfacet
	facet normal 0 0 -1
		outer loop
			vertex -1.5307337045669556 -3.6955180168151855 -8
			vertex -1.5307337045669556 3.6955180168151855 -8
			vertex -0.7803612947463989 3.9231410026550293 -8
		endloop
	endfacet
	facet normal 0 0 -1
		outer loop
			vertex -0.7803612947463989 -3.9231410026550293 -8
			vertex -0.7803612947463989 3.9231410026550293 -8
			vertex 0 4 -8
		endloop
	endfacet
	facet normal -0.8819213089994024 0.47139665328975405 0
		outer loop
			vertex -3.6955180168151855 1.5307337045669556 -8
			vertex -3.325878381729126 2.222280979156494 6.5
			vertex -3.325878381729126 2.222280979156494 -8
		endloop
	endfacet
	facet normal -0.7730104162847984 0.6343933293432417 0
		outer loop
			vertex -3.325878381729126 2.222280979156494 -8
			vertex -2.8284270763397217 2.8284270763397217 6.5
			vertex -2.8284270763397217 2.8284270763397217 -8
		endloop
	endfacet
	facet normal -0.6343933293432417 0.7730104162847984 0
		outer loop
			vertex -2.8284270763397217 2.8284270763397217 -8
			vertex -2.222280979156494 3.325878381729126 6.5
			vertex -2.222280979156494 3.325878381729126 -8
		endloop
	endfacet
	facet normal -0.47139665328975405 0.8819213089994024 0
		outer loop
			vertex -2.222280979156494 3.325878381729126 -8
			vertex -1.5307337045669556 3.6955180168151855 6.5
			vertex -1.5307337045669556 3.6955180168151855 -8
		endloop
	endfacet
	facet normal -0.29028468175097155 0.9569403343682077 0
		outer loop
			vertex -1.5307337045669556 3.6955180168151855 -8
			vertex -0.7803612947463989 3.9231410026550293 6.5
			vertex -0.7803612947463989 3.9231410026550293 -8
		endloop
	endfacet
	facet normal -0.09801728974632536 0.9951847119559187 0
		outer loop
			vertex -0.7803612947463989 3.9231410026550293 -8
			vertex 0 4 6.5
			vertex 0 4 -8
		endloop
	endfacet
	facet normal -0.9951847119559187 0.09801728974632536 0
		outer loop
			vertex -4 0 -8
			vertex -4 0 6.5
			vertex -3.9231410026550293 0.7803612947463989 6.5
		endloop
	endfacet
	facet normal -0.9569403343682077 0.29028468175097155 0
		outer loop
			vertex -3.9231410026550293 0.7803612947463989 -8
			vertex -3.9231410026550293 0.7803612947463989 6.5
			vertex -3.6955180168151855 1.5307337045669556 6.5
		endloop
	endfacet
	facet normal -0.8819213089994024 0.47139665328975405 0
		outer loop
			vertex -3.6955180168151855 1.5307337045669556 -8
			vertex -3.6955180168151855 1.5307337045669556 6.5
			vertex -3.325878381729126 2.222280979156494 6.5
		endloop
	endfacet
	facet normal -0.7730104162847984 0.6343933293432417 0
		outer loop
			vertex -3.325878381729126 2.222280979156494 -8
			vertex -3.325878381729126 2.222280979156494 6.5
			vertex -2.8284270763397217 2.8284270763397217 6.5
		endloop
	endfacet
	facet normal -0.6343933293432417 0.7730104162847984 0
		outer loop
			vertex -2.8284270763397217 2.8284270763397217 -8
			vertex -2.8284270763397217 2.8284270763397217 6.5
			vertex -2.222280979156494 3.325878381729126 6.5
		endloop
	endfacet
	facet normal -0.47139665328975405 0.8819213089994024 0
		outer loop
			vertex -2.222280979156494 3.325878381729126 -8
			vertex -2.222280979156494 3.325878381729126 6.5
			vertex -1.5307337045669556 3.6955180168151855 6.5
		endloop
	endfacet
	facet normal -0.29028468175097155 0.9569403343682077 0
		outer loop
			vertex -1.5307337045669556 3.6955180168151855 -8
			vertex -1.5307337045669556 3.6955180168151855 6.5
			vertex -0.7803612947463989 3.9231410026550293 6.5
		endloop
	endfacet
	facet normal -0.09801728974632536 0.9951847119559187 0
		outer loop
			vertex -0.7803612947463989 3.9231410026550293 -8
			vertex -0.7803612947463989 3.9231410026550293 6.5
			vertex 0 4 6.5
		endloop
	endfacet
	facet normal 0.09801728974632536 -0.9951847119559187 0
		outer loop
			vertex 0 -4 -8
			vertex 0.7803612947463989 -3.9231410026550293 -8
			vertex 0 -4 6.5
		endloop
	endfacet
	facet normal 0.29028468175097155 -0.9569403343682077 0
		outer loop
			vertex 0.7803612947463989 -3.9231410026550293 -8
			vertex 1.5307337045669556 -3.6955180168151855 -8
			vertex 0.7803612947463989 -3.9231410026550293 6.5
		endloop
	endfacet
	facet normal 0.47139665328975405 -0.8819213089994024 0
		outer loop
			vertex 1.5307337045669556 -3.6955180168151855 -8
			vertex 2.222280979156494 -3.325878381729126 -8
			vertex 1.5307337045669556 -3.6955180168151855 6.5
		endloop
	endfacet
	facet normal 0 0 -1
		outer loop
			vertex 0 -4 -8
			vertex 0.7803612947463989 3.9231410026550293 -8
			vertex 0.7803612947463989 -3.9231410026550293 -8
		endloop
	endfacet
	facet normal 0 0 -1
		outer loop
			vertex 0.7803612947463989 -3.9231410026550293 -8
			vertex 1.5307337045669556 3.6955180168151855 -8
			vertex 1.5307337045669556 -3.6955180168151855 -8
		endloop
	endfacet
	facet normal 0 0 -1
		outer loop
			vertex 1.5307337045669556 -3.6955180168151855 -8
			vertex 2.222280979156494 3.325878381729126 -8
			vertex 2.222280979156494 -3.325878381729126 -8
		endloop
	endfacet
	facet normal 0 0 -1
		outer loop
			vertex 2.222280979156494 -3.325878381729126 -8
			vertex 2.8284270763397217 2.8284270763397217 -8
			vertex 2.8284270763397217 -2.8284270763397217 -8
		endloop
	endfacet
	facet normal 0 0 -1
		outer loop
			vertex 2.8284270763397217 -2.8284270763397217 -8
			vertex 3.325878381729126 2.222280979156494 -8
			vertex 3.325878381729126 -2.222280979156494 -8
		endloop
	endfacet
	facet normal 0.6343933293432417 -0.7730104162847984 0
		outer loop
			vertex 2.222280979156494 -3.325878381729126 -8
			vertex 2.8284270763397217 -2.8284270763397217 -8
			vertex 2.222280979156494 -3.325878381729126 6.5
		endloop
	endfacet
	facet normal 0.7730104162847984 -0.6343933293432417 0
		outer loop
			vertex 2.8284270763397217 -2.8284270763397217 -8
			vertex 3.325878381729126 -2.222280979156494 -8
			vertex 2.8284270763397217 -2.8284270763397217 6.5
		endloop
	endfacet
	facet normal 0.8819213089994024 -0.47139665328975405 0
		outer loop
			vertex 3.325878381729126 -2.222280979156494 -8
			vertex 3.6955180168151855 -1.5307337045669556 -8
			vertex 3.325878381729126 -2.222280979156494 6.5
		endloop
	endfacet
	facet normal 0 0 -1
		outer loop
			vertex 3.325878381729126 -2.222280979156494 -8
			vertex 3.6955180168151855 1.5307337045669556 -8
			vertex 3.6955180168151855 -1.5307337045669556 -8
		endloop
	endfacet
	facet normal 0 0 -1
		outer loop
			vertex 3.6955180168151855 -1.5307337045669556 -8
			vertex 3.9231410026550293 0.7803612947463989 -8
			vertex 3.9231410026550293 -0.7803612947463989 -8
		endloop
	endfacet
	facet normal 0.9569403343682077 -0.29028468175097155 0
		outer loop
			vertex 3.6955180168151855 -1.5307337045669556 -8
			vertex 3.9231410026550293 -0.7803612947463989 -8
			vertex 3.6955180168151855 -1.5307337045669556 6.5
		endloop
	endfacet
	facet normal 0.9951847119559187 -0.09801728974632536 0
		outer loop
			vertex 3.9231410026550293 -0.7803612947463989 -8
			vertex 4 0 -8
			vertex 3.9231410026550293 -0.7803612947463989 6.5
		endloop
	endfacet
	facet normal 0.09801728974632536 -0.9951847119559187 0
		outer loop
			vertex 0.7803612947463989 -3.9231410026550293 -8
			vertex 0.7803612947463989 -3.9231410026550293 6.5
			vertex 0 -4 6.5
		endloop
	endfacet
	facet normal 0.29028468175097155 -0.9569403343682077 0
		outer loop
			vertex 1.5307337045669556 -3.6955180168151855 -8
			vertex 1.5307337045669556 -3.6955180168151855 6.5
			vertex 0.7803612947463989 -3.9231410026550293 6.5
		endloop
	endfacet
	facet normal 0.47139665328975405 -0.8819213089994024 0
		outer loop
			vertex 2.222280979156494 -3.325878381729126 -8
			vertex 2.222280979156494 -3.325878381729126 6.5
			vertex 1.5307337045669556 -3.6955180168151855 6.5
		endloop
	endfacet
	facet normal 0.6343933293432417 -0.7730104162847984 0
		outer loop
			vertex 2.8284270763397217 -2.8284270763397217 -8
			vertex 2.8284270763397217 -2.8284270763397217 6.5
			vertex 2.222280979156494 -3.325878381729126 6.5
		endloop
	endfacet
	facet normal 0.7730104162847984 -0.6343933293432417 0
		outer loop
			vertex 3.325878381729126 -2.222280979156494 -8
			vertex 3.325878381729126 -2.222280979156494 6.5
			vertex 2.8284270763397217 -2.8284270763397217 6.5
		endloop
	endfacet
	facet normal 0.8819213089994024 -0.47139665328975405 0
		outer loop
			vertex 3.6955180168151855 -1.5307337045669556 -8
			vertex 3.6955180168151855 -1.5307337045669556 6.5
			vertex 3.325878381729126 -2.222280979156494 6.5
		endloop
	endfacet
	facet normal 0.9569403343682077 -0.29028468175097155 0
		outer loop
			vertex 3.9231410026550293 -0.7803612947463989 -8
			vertex 3.9231410026550293 -0.7803612947463989 6.5
			vertex 3.6955180168151855 -1.5307337045669556 6.5
		endloop
	endfacet
	facet normal 0.9951847119559187 -0.09801728974632536 0
		outer loop
			vertex 4 0 -8
			vertex 4 0 6.5
			vertex 3.9231410026550293 -0.7803612947463989 6.5
		endloop
	endfacet
	facet normal 0 0 -1
		outer loop
			vertex 0 -4 -8
			vertex 0 4 -8
			vertex 0.7803612947463989 3.9231410026550293 -8
		endloop
	endfacet
	facet normal 0 0 -1
		outer loop
			vertex 0.7803612947463989 -3.9231410026550293 -8
			vertex 0.7803612947463989 3.9231410026550293 -8
			vertex 1.5307337045669556 3.6955180168151855 -8
		endloop
	endfacet
	facet normal 0 0 -1
		outer loop
			vertex 1.5307337045669556 -3.6955180168151855 -8
			vertex 1.5307337045669556 3.6955180168151855 -8
			vertex 2.222280979156494 3.325878381729126 -8
		endloop
	endfacet
	facet normal 0 0 -1
		outer loop
			vertex 2.222280979156494 -3.325878381729126 -8
			vertex 2.222280979156494 3.325878381729126 -8
			vertex 2.8284270763397217 2.8284270763397217 -8
		endloop
	endfacet
	facet normal 0 0 -1
		outer loop
			vertex 2.8284270763397217 -2.8284270763397217 -8
			vertex 2.8284270763397217 2.8284270763397217 -8
			vertex 3.325878381729126 2.222280979156494 -8
		endloop
	endfacet
	facet normal 0 0 -1
		outer loop
			vertex 3.325878381729126 -2.222280979156494 -8
			vertex 3.325878381729126 2.222280979156494 -8
			vertex 3.6955180168151855 1.5307337045669556 -8
		endloop
	endfacet
	facet normal 0.47139665328975405 0.8819213089994024 0
		outer loop
			vertex 1.5307337045669556 3.6955180168151855 -8
			vertex 2.222280979156494 3.325878381729126 6.5
			vertex 2.222280979156494 3.325878381729126 -8
		endloop
	endfacet
	facet normal 0.7730104162847984 0.6343933293432417 0
		outer loop
			vertex 2.8284270763397217 2.8284270763397217 -8
			vertex 3.325878381729126 2.222280979156494 6.5
			vertex 3.325878381729126 2.222280979156494 -8
		endloop
	endfacet
	facet normal 0.6343933293432417 0.7730104162847984 0
		outer loop
			vertex 2.8284270763397217 2.8284270763397217 -8
			vertex 2.222280979156494 3.325878381729126 -8
			vertex 2.8284270763397217 2.8284270763397217 6.5
		endloop
	endfacet
	facet normal 0.09801728974632536 0.9951847119559187 0
		outer loop
			vertex 0 4 -8
			vertex 0.7803612947463989 3.9231410026550293 6.5
			vertex 0.7803612947463989 3.9231410026550293 -8
		endloop
	endfacet
	facet normal 0.29028468175097155 0.9569403343682077 0
		outer loop
			vertex 0.7803612947463989 3.9231410026550293 -8
			vertex 1.5307337045669556 3.6955180168151855 6.5
			vertex 1.5307337045669556 3.6955180168151855 -8
		endloop
	endfacet
	facet normal 0 0 -1
		outer loop
			vertex 3.6955180168151855 -1.5307337045669556 -8
			vertex 3.6955180168151855 1.5307337045669556 -8
			vertex 3.9231410026550293 0.7803612947463989 -8
		endloop
	endfacet
	facet normal 0 0 -1
		outer loop
			vertex 3.9231410026550293 -0.7803612947463989 -8
			vertex 3.9231410026550293 0.7803612947463989 -8
			vertex 4 0 -8
		endloop
	endfacet
	facet normal 0.9951847119559187 0.09801728974632536 0
		outer loop
			vertex 4 0 -8
			vertex 3.9231410026550293 0.7803612947463989 -8
			vertex 4 0 6.5
		endloop
	endfacet
	facet normal 0.9569403343682077 0.29028468175097155 0
		outer loop
			vertex 3.9231410026550293 0.7803612947463989 -8
			vertex 3.6955180168151855 1.5307337045669556 -8
			vertex 3.9231410026550293 0.7803612947463989 6.5
		endloop
	endfacet
	facet normal 0.8819213089994024 0.47139665328975405 0
		outer loop
			vertex 3.6955180168151855 1.5307337045669556 -8
			vertex 3.325878381729126 2.222280979156494 -8
			vertex 3.6955180168151855 1.5307337045669556 6.5
		endloop
	endfacet
	facet normal 0.6343933293432417 0.7730104162847984 0
		outer loop
			vertex 2.222280979156494 3.325878381729126 -8
			vertex 2.222280979156494 3.325878381729126 6.5
			vertex 2.8284270763397217 2.8284270763397217 6.5
		endloop
	endfacet
	facet normal 0.8819213089994024 0.47139665328975405 0
		outer loop
			vertex 3.325878381729126 2.222280979156494 -8
			vertex 3.325878381729126 2.222280979156494 6.5
			vertex 3.6955180168151855 1.5307337045669556 6.5
		endloop
	endfacet
	facet normal 0.7730104162847984 0.6343933293432417 0
		outer loop
			vertex 2.8284270763397217 2.8284270763397217 -8
			vertex 2.8284270763397217 2.8284270763397217 6.5
			vertex 3.325878381729126 2.222280979156494 6.5
		endloop
	endfacet
	facet normal 0.09801728974632536 0.9951847119559187 0
		outer loop
			vertex 0 4 -8
			vertex 0 4 6.5
			vertex 0.7803612947463989 3.9231410026550293 6.5
		endloop
	endfacet
	facet normal 0.29028468175097155 0.9569403343682077 0
		outer loop
			vertex 0.7803612947463989 3.9231410026550293 -8
			vertex 0.7803612947463989 3.9231410026550293 6.5
			vertex 1.5307337045669556 3.6955180168151855 6.5
		endloop
	endfacet
	facet normal 0.47139665328975405 0.8819213089994024 0
		outer loop
			vertex 1.5307337045669556 3.6955180168151855 -8
			vertex 1.5307337045669556 3.6955180168151855 6.5
			vertex 2.222280979156494 3.325878381729126 6.5
		endloop
	endfacet
	facet normal 0.9951847119559187 0.09801728974632536 0
		outer loop
			vertex 3.9231410026550293 0.7803612947463989 -8
			vertex 3.9231410026550293 0.7803612947463989 6.5
			vertex 4 0 6.5
		endloop
	endfacet
	facet normal 0.9569403343682077 0.29028468175097155 0
		outer loop
			vertex 3.6955180168151855 1.5307337045669556 -8
			vertex 3.6955180168151855 1.5307337045669556 6.5
			vertex 3.9231410026550293 0.7803612947463989 6.5
		endloop
	endfacet
	facet normal 0 0 -1
		outer loop
			vertex -3.888991594314575 -5.820287227630615 6.5
			vertex -4.949747562408447 -4.949747562408447 6.5
			vertex -3.9231410026550293 -0.7803612947463989 6.5
		endloop
	endfacet
	facet normal -0.5479185965104794 -0.44966503693809234 0.7053981614332793
		outer loop
			vertex -5.820287227630615 -3.888991594314575 6.5
			vertex -4.949747562408447 -4.949747562408447 6.5
			vertex -3.325878381729126 -2.222280979156494 9.5
		endloop
	endfacet
	facet normal -0.44966502489517807 -0.5479185818361415 0.7053981805084917
		outer loop
			vertex -3.888991594314575 -5.820287227630615 6.5
			vertex -2.8284270763397217 -2.8284270763397217 9.5
			vertex -4.949747562408447 -4.949747562408447 6.5
		endloop
	endfacet
	facet normal -0.6251156530885759 -0.3341314296986759 0.7053981910603132
		outer loop
			vertex -5.820287227630615 -3.888991594314575 6.5
			vertex -3.6955180168151855 -1.5307337045669556 9.5
			vertex -6.467156887054443 -2.678784132003784 6.5
		endloop
	endfacet
	facet normal 0 0 -1
		outer loop
			vertex -6.467156887054443 -2.678784132003784 6.5
			vertex -6.86549711227417 -1.3656322956085205 6.5
			vertex -6.467156887054443 2.678784132003784 6.5
		endloop
	endfacet
	facet normal 0 0 -1
		outer loop
			vertex -5.820287227630615 -3.888991594314575 6.5
			vertex -6.467156887054443 -2.678784132003784 6.5
			vertex -5.820287227630615 3.888991594314575 6.5
		endloop
	endfacet
	facet normal -0.6782900794075113 -0.20575703091364825 0.705398194218664
		outer loop
			vertex -6.467156887054443 -2.678784132003784 6.5
			vertex -3.9231410026550293 -0.7803612947463989 9.5
			vertex -6.86549711227417 -1.3656322956085205 6.5
		endloop
	endfacet
	facet normal -0.705398165699847 -0.06947557595718377 0.705398165699847
		outer loop
			vertex -6.86549711227417 -1.3656322956085205 6.5
			vertex -4 0 9.5
			vertex -7 0 6.5
		endloop
	endfacet
	facet normal 0 0 -1
		outer loop
			vertex -3.888991594314575 -5.820287227630615 6.5
			vertex -3.6955180168151855 -1.5307337045669556 6.5
			vertex -3.325878381729126 -2.222280979156494 6.5
		endloop
	endfacet
	facet normal 0 0 -1
		outer loop
			vertex -3.888991594314575 -5.820287227630615 6.5
			vertex -3.9231410026550293 -0.7803612947463989 6.5
			vertex -3.6955180168151855 -1.5307337045669556 6.5
		endloop
	endfacet
	facet normal 0 0 -1
		outer loop
			vertex -4.949747562408447 -4.949747562408447 6.5
			vertex -4 0 6.5
			vertex -3.9231410026550293 -0.7803612947463989 6.5
		endloop
	endfacet
	facet normal -0.5479184841831249 -0.4496651326643586 0.7053981876617004
		outer loop
			vertex -4.949747562408447 -4.949747562408447 6.5
			vertex -2.8284270763397217 -2.8284270763397217 9.5
			vertex -3.325878381729126 -2.222280979156494 9.5
		endloop
	endfacet
	facet normal -0.6251157797391421 -0.33413126940086935 0.7053981547535322
		outer loop
			vertex -5.820287227630615 -3.888991594314575 6.5
			vertex -3.325878381729126 -2.222280979156494 9.5
			vertex -3.6955180168151855 -1.5307337045669556 9.5
		endloop
	endfacet
	facet normal 0 0 -1
		outer loop
			vertex -5.820287227630615 -3.888991594314575 6.5
			vertex -4.949747562408447 4.949747562408447 6.5
			vertex -4.949747562408447 -4.949747562408447 6.5
		endloop
	endfacet
	facet normal 0 0 -1
		outer loop
			vertex -4.949747562408447 -4.949747562408447 6.5
			vertex -3.9231410026550293 0.7803612947463989 6.5
			vertex -4 0 6.5
		endloop
	endfacet
	facet normal -0.6782900711451324 -0.20575704708612197 0.7053981974461876
		outer loop
			vertex -6.467156887054443 -2.678784132003784 6.5
			vertex -3.6955180168151855 -1.5307337045669556 9.5
			vertex -3.9231410026550293 -0.7803612947463989 9.5
		endloop
	endfacet
	facet normal -0.7053981143869249 -0.06947575714711879 0.7053981991671125
		outer loop
			vertex -6.86549711227417 -1.3656322956085205 6.5
			vertex -3.9231410026550293 -0.7803612947463989 9.5
			vertex -4 0 9.5
		endloop
	endfacet
	facet normal 0 0 1
		outer loop
			vertex -3.6955180168151855 -1.5307337045669556 9.5
			vertex -3.6955180168151855 1.5307337045669556 9.5
			vertex -3.9231410026550293 -0.7803612947463989 9.5
		endloop
	endfacet
	facet normal 0 0 -1
		outer loop
			vertex -2.678784132003784 -6.467156887054443 6.5
			vertex -1.5307337045669556 -3.6955180168151855 6.5
			vertex -1.3656322956085205 -6.86549711227417 6.5
		endloop
	endfacet
	facet normal -0.20575703023554706 -0.6782900771721111 0.7053981965659537
		outer loop
			vertex -2.678784132003784 -6.467156887054443 6.5
			vertex -1.3656322956085205 -6.86549711227417 6.5
			vertex -1.5307337045669556 -3.6955180168151855 9.5
		endloop
	endfacet
	facet normal 0 0 -1
		outer loop
			vertex -3.888991594314575 -5.820287227630615 6.5
			vertex -2.8284270763397217 -2.8284270763397217 6.5
			vertex -2.678784132003784 -6.467156887054443 6.5
		endloop
	endfacet
	facet normal 0 0 -1
		outer loop
			vertex -3.888991594314575 -5.820287227630615 6.5
			vertex -3.325878381729126 -2.222280979156494 6.5
			vertex -2.8284270763397217 -2.8284270763397217 6.5
		endloop
	endfacet
	facet normal 0 0 -1
		outer loop
			vertex -2.678784132003784 -6.467156887054443 6.5
			vertex -2.222280979156494 -3.325878381729126 6.5
			vertex -1.5307337045669556 -3.6955180168151855 6.5
		endloop
	endfacet
	facet normal 0 0 -1
		outer loop
			vertex -2.678784132003784 -6.467156887054443 6.5
			vertex -2.8284270763397217 -2.8284270763397217 6.5
			vertex -2.222280979156494 -3.325878381729126 6.5
		endloop
	endfacet
	facet normal -0.33413144208594514 -0.6251156762635163 0.7053981646553763
		outer loop
			vertex -3.888991594314575 -5.820287227630615 6.5
			vertex -2.678784132003784 -6.467156887054443 6.5
			vertex -2.222280979156494 -3.325878381729126 9.5
		endloop
	endfacet
	facet normal -0.44966515373946625 -0.5479185098632149 0.7053981542800749
		outer loop
			vertex -3.888991594314575 -5.820287227630615 6.5
			vertex -2.222280979156494 -3.325878381729126 9.5
			vertex -2.8284270763397217 -2.8284270763397217 9.5
		endloop
	endfacet
	facet normal -0.33413124772316105 -0.6251157391829931 0.7053982009621685
		outer loop
			vertex -2.678784132003784 -6.467156887054443 6.5
			vertex -1.5307337045669556 -3.6955180168151855 9.5
			vertex -2.222280979156494 -3.325878381729126 9.5
		endloop
	endfacet
	facet normal 0 0 -1
		outer loop
			vertex -1.3656322956085205 -6.86549711227417 6.5
			vertex -0.7803612947463989 -3.9231410026550293 6.5
			vertex 0 -7 6.5
		endloop
	endfacet
	facet normal -0.06947557358295359 -0.7053981415938559 0.7053981900396783
		outer loop
			vertex -1.3656322956085205 -6.86549711227417 6.5
			vertex 0 -7 6.5
			vertex -0.7803612947463989 -3.9231410026550293 9.5
		endloop
	endfacet
	facet normal 0 0 -1
		outer loop
			vertex -1.3656322956085205 -6.86549711227417 6.5
			vertex -1.5307337045669556 -3.6955180168151855 6.5
			vertex -0.7803612947463989 -3.9231410026550293 6.5
		endloop
	endfacet
	facet normal 0 0 -1
		outer loop
			vertex 0 -7 6.5
			vertex -0.7803612947463989 -3.9231410026550293 6.5
			vertex 0 -4 6.5
		endloop
	endfacet
	facet normal -0.20575704827279928 -0.6782900750570832 0.7053981933384303
		outer loop
			vertex -1.3656322956085205 -6.86549711227417 6.5
			vertex -0.7803612947463989 -3.9231410026550293 9.5
			vertex -1.5307337045669556 -3.6955180168151855 9.5
		endloop
	endfacet
	facet normal -0.06947576130203263 -0.7053981565724081 0.7053981565724081
		outer loop
			vertex -0.7803612947463989 -3.9231410026550293 9.5
			vertex 0 -7 6.5
			vertex 0 -4 9.5
		endloop
	endfacet
	facet normal 0 0 1
		outer loop
			vertex -3.6955180168151855 -1.5307337045669556 9.5
			vertex -3.325878381729126 -2.222280979156494 9.5
			vertex -3.325878381729126 2.222280979156494 9.5
		endloop
	endfacet
	facet normal 0 0 1
		outer loop
			vertex -2.8284270763397217 -2.8284270763397217 9.5
			vertex -2.8284270763397217 2.8284270763397217 9.5
			vertex -3.325878381729126 -2.222280979156494 9.5
		endloop
	endfacet
	facet normal 0 0 1
		outer loop
			vertex -2.8284270763397217 -2.8284270763397217 9.5
			vertex -2.222280979156494 -3.325878381729126 9.5
			vertex -2.222280979156494 3.325878381729126 9.5
		endloop
	endfacet
	facet normal 0 0 1
		outer loop
			vertex -1.5307337045669556 -3.6955180168151855 9.5
			vertex -1.5307337045669556 3.6955180168151855 9.5
			vertex -2.222280979156494 -3.325878381729126 9.5
		endloop
	endfacet
	facet normal 0 0 1
		outer loop
			vertex -1.5307337045669556 -3.6955180168151855 9.5
			vertex -0.7803612947463989 -3.9231410026550293 9.5
			vertex -0.7803612947463989 3.9231410026550293 9.5
		endloop
	endfacet
	facet normal 0 0 1
		outer loop
			vertex -0.7803612947463989 -3.9231410026550293 9.5
			vertex 0 -4 9.5
			vertex 0 4 9.5
		endloop
	endfacet
	facet normal 0 0 -1
		outer loop
			vertex -6.86549711227417 -1.3656322956085205 6.5
			vertex -7 0 6.5
			vertex -6.86549711227417 1.3656322956085205 6.5
		endloop
	endfacet
	facet normal 0 0 -1
		outer loop
			vertex -6.86549711227417 -1.3656322956085205 6.5
			vertex -6.86549711227417 1.3656322956085205 6.5
			vertex -6.467156887054443 2.678784132003784 6.5
		endloop
	endfacet
	facet normal 0 0 -1
		outer loop
			vertex -6.467156887054443 -2.678784132003784 6.5
			vertex -6.467156887054443 2.678784132003784 6.5
			vertex -5.820287227630615 3.888991594314575 6.5
		endloop
	endfacet
	facet normal 0 0 -1
		outer loop
			vertex -5.820287227630615 -3.888991594314575 6.5
			vertex -5.820287227630615 3.888991594314575 6.5
			vertex -4.949747562408447 4.949747562408447 6.5
		endloop
	endfacet
	facet normal -0.7053981415938559 0.06947557358295359 0.7053981900396783
		outer loop
			vertex -7 0 6.5
			vertex -3.9231410026550293 0.7803612947463989 9.5
			vertex -6.86549711227417 1.3656322956085205 6.5
		endloop
	endfacet
	facet normal -0.6782900771721111 0.20575703023554706 0.7053981965659537
		outer loop
			vertex -6.86549711227417 1.3656322956085205 6.5
			vertex -3.6955180168151855 1.5307337045669556 9.5
			vertex -6.467156887054443 2.678784132003784 6.5
		endloop
	endfacet
	facet normal 0 0 -1
		outer loop
			vertex -4.949747562408447 -4.949747562408447 6.5
			vertex -3.888991594314575 5.820287227630615 6.5
			vertex -3.9231410026550293 0.7803612947463989 6.5
		endloop
	endfacet
	facet normal -0.7053981565724081 0.06947576130203263 0.7053981565724081
		outer loop
			vertex -7 0 6.5
			vertex -4 0 9.5
			vertex -3.9231410026550293 0.7803612947463989 9.5
		endloop
	endfacet
	facet normal -0.6782900750570832 0.20575704827279928 0.7053981933384303
		outer loop
			vertex -6.86549711227417 1.3656322956085205 6.5
			vertex -3.9231410026550293 0.7803612947463989 9.5
			vertex -3.6955180168151855 1.5307337045669556 9.5
		endloop
	endfacet
	facet normal 0 0 1
		outer loop
			vertex -3.9231410026550293 -0.7803612947463989 9.5
			vertex -3.9231410026550293 0.7803612947463989 9.5
			vertex -4 0 9.5
		endloop
	endfacet
	facet normal 0 0 1
		outer loop
			vertex -3.9231410026550293 -0.7803612947463989 9.5
			vertex -3.6955180168151855 1.5307337045669556 9.5
			vertex -3.9231410026550293 0.7803612947463989 9.5
		endloop
	endfacet
	facet normal 0 0 1
		outer loop
			vertex -3.6955180168151855 -1.5307337045669556 9.5
			vertex -3.325878381729126 2.222280979156494 9.5
			vertex -3.6955180168151855 1.5307337045669556 9.5
		endloop
	endfacet
	facet normal 0 0 -1
		outer loop
			vertex -4.949747562408447 -4.949747562408447 6.5
			vertex -4.949747562408447 4.949747562408447 6.5
			vertex -3.888991594314575 5.820287227630615 6.5
		endloop
	endfacet
	facet normal 0 0 -1
		outer loop
			vertex -3.888991594314575 5.820287227630615 6.5
			vertex -3.6955180168151855 1.5307337045669556 6.5
			vertex -3.9231410026550293 0.7803612947463989 6.5
		endloop
	endfacet
	facet normal 0 0 -1
		outer loop
			vertex -3.888991594314575 5.820287227630615 6.5
			vertex -3.325878381729126 2.222280979156494 6.5
			vertex -3.6955180168151855 1.5307337045669556 6.5
		endloop
	endfacet
	facet normal -0.6251157391829931 0.33413124772316105 0.7053982009621685
		outer loop
			vertex -6.467156887054443 2.678784132003784 6.5
			vertex -3.6955180168151855 1.5307337045669556 9.5
			vertex -3.325878381729126 2.222280979156494 9.5
		endloop
	endfacet
	facet normal -0.6251156762635163 0.33413144208594514 0.7053981646553763
		outer loop
			vertex -6.467156887054443 2.678784132003784 6.5
			vertex -3.325878381729126 2.222280979156494 9.5
			vertex -5.820287227630615 3.888991594314575 6.5
		endloop
	endfacet
	facet normal -0.5479185098632149 0.44966515373946625 0.7053981542800749
		outer loop
			vertex -5.820287227630615 3.888991594314575 6.5
			vertex -3.325878381729126 2.222280979156494 9.5
			vertex -2.8284270763397217 2.8284270763397217 9.5
		endloop
	endfacet
	facet normal -0.5479185818361415 0.44966502489517807 0.7053981805084917
		outer loop
			vertex -5.820287227630615 3.888991594314575 6.5
			vertex -2.8284270763397217 2.8284270763397217 9.5
			vertex -4.949747562408447 4.949747562408447 6.5
		endloop
	endfacet
	facet normal -0.44966503693809234 0.5479185965104794 0.7053981614332793
		outer loop
			vertex -4.949747562408447 4.949747562408447 6.5
			vertex -2.222280979156494 3.325878381729126 9.5
			vertex -3.888991594314575 5.820287227630615 6.5
		endloop
	endfacet
	facet normal 0 0 1
		outer loop
			vertex -3.325878381729126 -2.222280979156494 9.5
			vertex -2.8284270763397217 2.8284270763397217 9.5
			vertex -3.325878381729126 2.222280979156494 9.5
		endloop
	endfacet
	facet normal 0 0 1
		outer loop
			vertex -2.8284270763397217 -2.8284270763397217 9.5
			vertex -2.222280979156494 3.325878381729126 9.5
			vertex -2.8284270763397217 2.8284270763397217 9.5
		endloop
	endfacet
	facet normal 0 0 1
		outer loop
			vertex -2.222280979156494 -3.325878381729126 9.5
			vertex -1.5307337045669556 3.6955180168151855 9.5
			vertex -2.222280979156494 3.325878381729126 9.5
		endloop
	endfacet
	facet normal 0 0 1
		outer loop
			vertex -1.5307337045669556 -3.6955180168151855 9.5
			vertex -0.7803612947463989 3.9231410026550293 9.5
			vertex -1.5307337045669556 3.6955180168151855 9.5
		endloop
	endfacet
	facet normal 0 0 1
		outer loop
			vertex -0.7803612947463989 -3.9231410026550293 9.5
			vertex 0 4 9.5
			vertex -0.7803612947463989 3.9231410026550293 9.5
		endloop
	endfacet
	facet normal 0 0 -1
		outer loop
			vertex -3.888991594314575 5.820287227630615 6.5
			vertex -2.8284270763397217 2.8284270763397217 6.5
			vertex -3.325878381729126 2.222280979156494 6.5
		endloop
	endfacet
	facet normal 0 0 -1
		outer loop
			vertex -3.888991594314575 5.820287227630615 6.5
			vertex -2.678784132003784 6.467156887054443 6.5
			vertex -2.8284270763397217 2.8284270763397217 6.5
		endloop
	endfacet
	facet normal 0 0 -1
		outer loop
			vertex -2.678784132003784 6.467156887054443 6.5
			vertex -2.222280979156494 3.325878381729126 6.5
			vertex -2.8284270763397217 2.8284270763397217 6.5
		endloop
	endfacet
	facet normal 0 0 -1
		outer loop
			vertex -2.678784132003784 6.467156887054443 6.5
			vertex -1.5307337045669556 3.6955180168151855 6.5
			vertex -2.222280979156494 3.325878381729126 6.5
		endloop
	endfacet
	facet normal -0.4496651326643586 0.5479184841831249 0.7053981876617004
		outer loop
			vertex -4.949747562408447 4.949747562408447 6.5
			vertex -2.8284270763397217 2.8284270763397217 9.5
			vertex -2.222280979156494 3.325878381729126 9.5
		endloop
	endfacet
	facet normal -0.33413126940086935 0.6251157797391421 0.7053981547535322
		outer loop
			vertex -3.888991594314575 5.820287227630615 6.5
			vertex -2.222280979156494 3.325878381729126 9.5
			vertex -1.5307337045669556 3.6955180168151855 9.5
		endloop
	endfacet
	facet normal 0 0 -1
		outer loop
			vertex -2.678784132003784 6.467156887054443 6.5
			vertex -1.3656322956085205 6.86549711227417 6.5
			vertex -1.5307337045669556 3.6955180168151855 6.5
		endloop
	endfacet
	facet normal -0.3341314296986759 0.6251156530885759 0.7053981910603132
		outer loop
			vertex -3.888991594314575 5.820287227630615 6.5
			vertex -1.5307337045669556 3.6955180168151855 9.5
			vertex -2.678784132003784 6.467156887054443 6.5
		endloop
	endfacet
	facet normal 0 0 -1
		outer loop
			vertex -1.3656322956085205 6.86549711227417 6.5
			vertex -0.7803612947463989 3.9231410026550293 6.5
			vertex -1.5307337045669556 3.6955180168151855 6.5
		endloop
	endfacet
	facet normal 0 0 -1
		outer loop
			vertex -1.3656322956085205 6.86549711227417 6.5
			vertex 0 4 6.5
			vertex -0.7803612947463989 3.9231410026550293 6.5
		endloop
	endfacet
	facet normal -0.20575704708612197 0.6782900711451324 0.7053981974461876
		outer loop
			vertex -2.678784132003784 6.467156887054443 6.5
			vertex -1.5307337045669556 3.6955180168151855 9.5
			vertex -0.7803612947463989 3.9231410026550293 9.5
		endloop
	endfacet
	facet normal -0.06947575714711879 0.7053981143869249 0.7053981991671125
		outer loop
			vertex -1.3656322956085205 6.86549711227417 6.5
			vertex -0.7803612947463989 3.9231410026550293 9.5
			vertex 0 4 9.5
		endloop
	endfacet
	facet normal 0 0 -1
		outer loop
			vertex -1.3656322956085205 6.86549711227417 6.5
			vertex 0 7 6.5
			vertex 0 4 6.5
		endloop
	endfacet
	facet normal -0.20575703091364825 0.6782900794075113 0.705398194218664
		outer loop
			vertex -2.678784132003784 6.467156887054443 6.5
			vertex -0.7803612947463989 3.9231410026550293 9.5
			vertex -1.3656322956085205 6.86549711227417 6.5
		endloop
	endfacet
	facet normal -0.06947557595718377 0.705398165699847 0.705398165699847
		outer loop
			vertex -1.3656322956085205 6.86549711227417 6.5
			vertex 0 4 9.5
			vertex 0 7 6.5
		endloop
	endfacet
	facet normal 0 0 -1
		outer loop
			vertex 0 -7 6.5
			vertex 0 -4 6.5
			vertex 1.3656322956085205 -6.86549711227417 6.5
		endloop
	endfacet
	facet normal 0.06947557595718377 -0.705398165699847 0.705398165699847
		outer loop
			vertex 0 -7 6.5
			vertex 1.3656322956085205 -6.86549711227417 6.5
			vertex 0 -4 9.5
		endloop
	endfacet
	facet normal 0.20575703091364825 -0.6782900794075113 0.705398194218664
		outer loop
			vertex 1.3656322956085205 -6.86549711227417 6.5
			vertex 2.678784132003784 -6.467156887054443 6.5
			vertex 0.7803612947463989 -3.9231410026550293 9.5
		endloop
	endfacet
	facet normal 0 0 -1
		outer loop
			vertex 1.3656322956085205 -6.86549711227417 6.5
			vertex 0 -4 6.5
			vertex 0.7803612947463989 -3.9231410026550293 6.5
		endloop
	endfacet
	facet normal 0 0 -1
		outer loop
			vertex 1.3656322956085205 -6.86549711227417 6.5
			vertex 0.7803612947463989 -3.9231410026550293 6.5
			vertex 1.5307337045669556 -3.6955180168151855 6.5
		endloop
	endfacet
	facet normal 0.06947575714711879 -0.7053981143869249 0.7053981991671125
		outer loop
			vertex 1.3656322956085205 -6.86549711227417 6.5
			vertex 0.7803612947463989 -3.9231410026550293 9.5
			vertex 0 -4 9.5
		endloop
	endfacet
	facet normal 0.20575704708612197 -0.6782900711451324 0.7053981974461876
		outer loop
			vertex 2.678784132003784 -6.467156887054443 6.5
			vertex 1.5307337045669556 -3.6955180168151855 9.5
			vertex 0.7803612947463989 -3.9231410026550293 9.5
		endloop
	endfacet
	facet normal 0 0 -1
		outer loop
			vertex 1.3656322956085205 -6.86549711227417 6.5
			vertex 1.5307337045669556 -3.6955180168151855 6.5
			vertex 2.678784132003784 -6.467156887054443 6.5
		endloop
	endfacet
	facet normal 0.3341314296986759 -0.6251156530885759 0.7053981910603132
		outer loop
			vertex 2.678784132003784 -6.467156887054443 6.5
			vertex 3.888991594314575 -5.820287227630615 6.5
			vertex 1.5307337045669556 -3.6955180168151855 9.5
		endloop
	endfacet
	facet normal 0 0 -1
		outer loop
			vertex 2.678784132003784 -6.467156887054443 6.5
			vertex 1.5307337045669556 -3.6955180168151855 6.5
			vertex 2.222280979156494 -3.325878381729126 6.5
		endloop
	endfacet
	facet normal 0 0 -1
		outer loop
			vertex 2.678784132003784 -6.467156887054443 6.5
			vertex 2.222280979156494 -3.325878381729126 6.5
			vertex 2.8284270763397217 -2.8284270763397217 6.5
		endloop
	endfacet
	facet normal 0 0 -1
		outer loop
			vertex 2.678784132003784 -6.467156887054443 6.5
			vertex 2.8284270763397217 -2.8284270763397217 6.5
			vertex 3.888991594314575 -5.820287227630615 6.5
		endloop
	endfacet
	facet normal 0 0 -1
		outer loop
			vertex 3.888991594314575 -5.820287227630615 6.5
			vertex 2.8284270763397217 -2.8284270763397217 6.5
			vertex 3.325878381729126 -2.222280979156494 6.5
		endloop
	endfacet
	facet normal 0.33413126940086935 -0.6251157797391421 0.7053981547535322
		outer loop
			vertex 3.888991594314575 -5.820287227630615 6.5
			vertex 2.222280979156494 -3.325878381729126 9.5
			vertex 1.5307337045669556 -3.6955180168151855 9.5
		endloop
	endfacet
	facet normal 0.4496651326643586 -0.5479184841831249 0.7053981876617004
		outer loop
			vertex 4.949747562408447 -4.949747562408447 6.5
			vertex 2.8284270763397217 -2.8284270763397217 9.5
			vertex 2.222280979156494 -3.325878381729126 9.5
		endloop
	endfacet
	facet normal 0 0 1
		outer loop
			vertex 0 -4 9.5
			vertex 0.7803612947463989 -3.9231410026550293 9.5
			vertex 0.7803612947463989 3.9231410026550293 9.5
		endloop
	endfacet
	facet normal 0 0 1
		outer loop
			vertex 0.7803612947463989 -3.9231410026550293 9.5
			vertex 1.5307337045669556 -3.6955180168151855 9.5
			vertex 1.5307337045669556 3.6955180168151855 9.5
		endloop
	endfacet
	facet normal 0 0 1
		outer loop
			vertex 1.5307337045669556 -3.6955180168151855 9.5
			vertex 2.222280979156494 -3.325878381729126 9.5
			vertex 2.222280979156494 3.325878381729126 9.5
		endloop
	endfacet
	facet normal 0 0 1
		outer loop
			vertex 2.222280979156494 -3.325878381729126 9.5
			vertex 2.8284270763397217 -2.8284270763397217 9.5
			vertex 2.8284270763397217 2.8284270763397217 9.5
		endloop
	endfacet
	facet normal 0 0 1
		outer loop
			vertex 2.8284270763397217 -2.8284270763397217 9.5
			vertex 3.325878381729126 -2.222280979156494 9.5
			vertex 3.325878381729126 2.222280979156494 9.5
		endloop
	endfacet
	facet normal 0.44966503693809234 -0.5479185965104794 0.7053981614332793
		outer loop
			vertex 3.888991594314575 -5.820287227630615 6.5
			vertex 4.949747562408447 -4.949747562408447 6.5
			vertex 2.222280979156494 -3.325878381729126 9.5
		endloop
	endfacet
	facet normal 0.5479185818361415 -0.44966502489517807 0.7053981805084917
		outer loop
			vertex 4.949747562408447 -4.949747562408447 6.5
			vertex 5.820287227630615 -3.888991594314575 6.5
			vertex 2.8284270763397217 -2.8284270763397217 9.5
		endloop
	endfacet
	facet normal 0 0 -1
		outer loop
			vertex 3.888991594314575 -5.820287227630615 6.5
			vertex 3.325878381729126 -2.222280979156494 6.5
			vertex 3.6955180168151855 -1.5307337045669556 6.5
		endloop
	endfacet
	facet normal 0 0 -1
		outer loop
			vertex 3.888991594314575 -5.820287227630615 6.5
			vertex 3.6955180168151855 -1.5307337045669556 6.5
			vertex 3.9231410026550293 -0.7803612947463989 6.5
		endloop
	endfacet
	facet normal 0 0 -1
		outer loop
			vertex 3.888991594314575 -5.820287227630615 6.5
			vertex 4.949747562408447 4.949747562408447 6.5
			vertex 4.949747562408447 -4.949747562408447 6.5
		endloop
	endfacet
	facet normal 0.5479185098632149 -0.44966515373946625 0.7053981542800749
		outer loop
			vertex 5.820287227630615 -3.888991594314575 6.5
			vertex 3.325878381729126 -2.222280979156494 9.5
			vertex 2.8284270763397217 -2.8284270763397217 9.5
		endloop
	endfacet
	facet normal 0.6251156762635163 -0.33413144208594514 0.7053981646553763
		outer loop
			vertex 5.820287227630615 -3.888991594314575 6.5
			vertex 6.467156887054443 -2.678784132003784 6.5
			vertex 3.325878381729126 -2.222280979156494 9.5
		endloop
	endfacet
	facet normal 0.6251157391829931 -0.33413124772316105 0.7053982009621685
		outer loop
			vertex 6.467156887054443 -2.678784132003784 6.5
			vertex 3.6955180168151855 -1.5307337045669556 9.5
			vertex 3.325878381729126 -2.222280979156494 9.5
		endloop
	endfacet
	facet normal 0 0 -1
		outer loop
			vertex 3.888991594314575 -5.820287227630615 6.5
			vertex 3.9231410026550293 -0.7803612947463989 6.5
			vertex 4.949747562408447 4.949747562408447 6.5
		endloop
	endfacet
	facet normal 0 0 1
		outer loop
			vertex 3.325878381729126 -2.222280979156494 9.5
			vertex 3.6955180168151855 -1.5307337045669556 9.5
			vertex 3.6955180168151855 1.5307337045669556 9.5
		endloop
	endfacet
	facet normal 0 0 1
		outer loop
			vertex 3.6955180168151855 -1.5307337045669556 9.5
			vertex 3.9231410026550293 -0.7803612947463989 9.5
			vertex 3.9231410026550293 0.7803612947463989 9.5
		endloop
	endfacet
	facet normal 0.6782900750570832 -0.20575704827279928 0.7053981933384303
		outer loop
			vertex 6.86549711227417 -1.3656322956085205 6.5
			vertex 3.9231410026550293 -0.7803612947463989 9.5
			vertex 3.6955180168151855 -1.5307337045669556 9.5
		endloop
	endfacet
	facet normal 0.7053981565724081 -0.06947576130203263 0.7053981565724081
		outer loop
			vertex 3.9231410026550293 -0.7803612947463989 9.5
			vertex 7 0 6.5
			vertex 4 0 9.5
		endloop
	endfacet
	facet normal 0.6782900771721111 -0.20575703023554706 0.7053981965659537
		outer loop
			vertex 6.467156887054443 -2.678784132003784 6.5
			vertex 6.86549711227417 -1.3656322956085205 6.5
			vertex 3.6955180168151855 -1.5307337045669556 9.5
		endloop
	endfacet
	facet normal 0 0 -1
		outer loop
			vertex 4.949747562408447 -4.949747562408447 6.5
			vertex 5.820287227630615 3.888991594314575 6.5
			vertex 5.820287227630615 -3.888991594314575 6.5
		endloop
	endfacet
	facet normal 0 0 -1
		outer loop
			vertex 5.820287227630615 -3.888991594314575 6.5
			vertex 6.467156887054443 2.678784132003784 6.5
			vertex 6.467156887054443 -2.678784132003784 6.5
		endloop
	endfacet
	facet normal 0 0 -1
		outer loop
			vertex 6.467156887054443 -2.678784132003784 6.5
			vertex 6.86549711227417 1.3656322956085205 6.5
			vertex 6.86549711227417 -1.3656322956085205 6.5
		endloop
	endfacet
	facet normal 0.7053981415938559 -0.06947557358295359 0.7053981900396783
		outer loop
			vertex 6.86549711227417 -1.3656322956085205 6.5
			vertex 7 0 6.5
			vertex 3.9231410026550293 -0.7803612947463989 9.5
		endloop
	endfacet
	facet normal 0 0 1
		outer loop
			vertex 0 -4 9.5
			vertex 0.7803612947463989 3.9231410026550293 9.5
			vertex 0 4 9.5
		endloop
	endfacet
	facet normal 0 0 1
		outer loop
			vertex 0.7803612947463989 -3.9231410026550293 9.5
			vertex 1.5307337045669556 3.6955180168151855 9.5
			vertex 0.7803612947463989 3.9231410026550293 9.5
		endloop
	endfacet
	facet normal 0 0 1
		outer loop
			vertex 1.5307337045669556 -3.6955180168151855 9.5
			vertex 2.222280979156494 3.325878381729126 9.5
			vertex 1.5307337045669556 3.6955180168151855 9.5
		endloop
	endfacet
	facet normal 0 0 1
		outer loop
			vertex 2.222280979156494 -3.325878381729126 9.5
			vertex 2.8284270763397217 2.8284270763397217 9.5
			vertex 2.222280979156494 3.325878381729126 9.5
		endloop
	endfacet
	facet normal 0 0 1
		outer loop
			vertex 2.8284270763397217 -2.8284270763397217 9.5
			vertex 3.325878381729126 2.222280979156494 9.5
			vertex 2.8284270763397217 2.8284270763397217 9.5
		endloop
	endfacet
	facet normal 0 0 1
		outer loop
			vertex 3.325878381729126 -2.222280979156494 9.5
			vertex 3.6955180168151855 1.5307337045669556 9.5
			vertex 3.325878381729126 2.222280979156494 9.5
		endloop
	endfacet
	facet normal 0 0 -1
		outer loop
			vertex 0 7 6.5
			vertex 0.7803612947463989 3.9231410026550293 6.5
			vertex 0 4 6.5
		endloop
	endfacet
	facet normal 0 0 -1
		outer loop
			vertex 1.3656322956085205 6.86549711227417 6.5
			vertex 1.5307337045669556 3.6955180168151855 6.5
			vertex 0.7803612947463989 3.9231410026550293 6.5
		endloop
	endfacet
	facet normal 0.06947576130203263 0.7053981565724081 0.7053981565724081
		outer loop
			vertex 0 7 6.5
			vertex 0 4 9.5
			vertex 0.7803612947463989 3.9231410026550293 9.5
		endloop
	endfacet
	facet normal 0.20575704827279928 0.6782900750570832 0.7053981933384303
		outer loop
			vertex 1.3656322956085205 6.86549711227417 6.5
			vertex 0.7803612947463989 3.9231410026550293 9.5
			vertex 1.5307337045669556 3.6955180168151855 9.5
		endloop
	endfacet
	facet normal 0 0 -1
		outer loop
			vertex 0 7 6.5
			vertex 1.3656322956085205 6.86549711227417 6.5
			vertex 0.7803612947463989 3.9231410026550293 6.5
		endloop
	endfacet
	facet normal 0.06947557358295359 0.7053981415938559 0.7053981900396783
		outer loop
			vertex 0 7 6.5
			vertex 0.7803612947463989 3.9231410026550293 9.5
			vertex 1.3656322956085205 6.86549711227417 6.5
		endloop
	endfacet
	facet normal 0 0 -1
		outer loop
			vertex 2.678784132003784 6.467156887054443 6.5
			vertex 2.8284270763397217 2.8284270763397217 6.5
			vertex 2.222280979156494 3.325878381729126 6.5
		endloop
	endfacet
	facet normal 0 0 -1
		outer loop
			vertex 2.678784132003784 6.467156887054443 6.5
			vertex 2.222280979156494 3.325878381729126 6.5
			vertex 1.5307337045669556 3.6955180168151855 6.5
		endloop
	endfacet
	facet normal 0 0 -1
		outer loop
			vertex 3.888991594314575 5.820287227630615 6.5
			vertex 3.325878381729126 2.222280979156494 6.5
			vertex 2.8284270763397217 2.8284270763397217 6.5
		endloop
	endfacet
	facet normal 0 0 -1
		outer loop
			vertex 2.678784132003784 6.467156887054443 6.5
			vertex 3.888991594314575 5.820287227630615 6.5
			vertex 2.8284270763397217 2.8284270763397217 6.5
		endloop
	endfacet
	facet normal 0.33413124772316105 0.6251157391829931 0.7053982009621685
		outer loop
			vertex 2.678784132003784 6.467156887054443 6.5
			vertex 1.5307337045669556 3.6955180168151855 9.5
			vertex 2.222280979156494 3.325878381729126 9.5
		endloop
	endfacet
	facet normal 0.44966515373946625 0.5479185098632149 0.7053981542800749
		outer loop
			vertex 3.888991594314575 5.820287227630615 6.5
			vertex 2.222280979156494 3.325878381729126 9.5
			vertex 2.8284270763397217 2.8284270763397217 9.5
		endloop
	endfacet
	facet normal 0.33413144208594514 0.6251156762635163 0.7053981646553763
		outer loop
			vertex 2.678784132003784 6.467156887054443 6.5
			vertex 2.222280979156494 3.325878381729126 9.5
			vertex 3.888991594314575 5.820287227630615 6.5
		endloop
	endfacet
	facet normal 0 0 -1
		outer loop
			vertex 1.3656322956085205 6.86549711227417 6.5
			vertex 2.678784132003784 6.467156887054443 6.5
			vertex 1.5307337045669556 3.6955180168151855 6.5
		endloop
	endfacet
	facet normal 0.20575703023554706 0.6782900771721111 0.7053981965659537
		outer loop
			vertex 1.3656322956085205 6.86549711227417 6.5
			vertex 1.5307337045669556 3.6955180168151855 9.5
			vertex 2.678784132003784 6.467156887054443 6.5
		endloop
	endfacet
	facet normal 0 0 -1
		outer loop
			vertex 4.949747562408447 4.949747562408447 6.5
			vertex 3.9231410026550293 -0.7803612947463989 6.5
			vertex 4 0 6.5
		endloop
	endfacet
	facet normal 0 0 -1
		outer loop
			vertex 4.949747562408447 -4.949747562408447 6.5
			vertex 4.949747562408447 4.949747562408447 6.5
			vertex 5.820287227630615 3.888991594314575 6.5
		endloop
	endfacet
	facet normal 0 0 1
		outer loop
			vertex 3.6955180168151855 -1.5307337045669556 9.5
			vertex 3.9231410026550293 0.7803612947463989 9.5
			vertex 3.6955180168151855 1.5307337045669556 9.5
		endloop
	endfacet
	facet normal 0 0 1
		outer loop
			vertex 3.9231410026550293 -0.7803612947463989 9.5
			vertex 4 0 9.5
			vertex 3.9231410026550293 0.7803612947463989 9.5
		endloop
	endfacet
	facet normal 0.7053981143869249 0.06947575714711879 0.7053981991671125
		outer loop
			vertex 6.86549711227417 1.3656322956085205 6.5
			vertex 3.9231410026550293 0.7803612947463989 9.5
			vertex 4 0 9.5
		endloop
	endfacet
	facet normal 0.6782900711451324 0.20575704708612197 0.7053981974461876
		outer loop
			vertex 6.467156887054443 2.678784132003784 6.5
			vertex 3.6955180168151855 1.5307337045669556 9.5
			vertex 3.9231410026550293 0.7803612947463989 9.5
		endloop
	endfacet
	facet normal 0 0 -1
		outer loop
			vertex 4.949747562408447 4.949747562408447 6.5
			vertex 4 0 6.5
			vertex 3.9231410026550293 0.7803612947463989 6.5
		endloop
	endfacet
	facet normal 0 0 -1
		outer loop
			vertex 3.888991594314575 5.820287227630615 6.5
			vertex 3.9231410026550293 0.7803612947463989 6.5
			vertex 3.6955180168151855 1.5307337045669556 6.5
		endloop
	endfacet
	facet normal 0 0 -1
		outer loop
			vertex 3.888991594314575 5.820287227630615 6.5
			vertex 3.6955180168151855 1.5307337045669556 6.5
			vertex 3.325878381729126 2.222280979156494 6.5
		endloop
	endfacet
	facet normal 0.6251157797391421 0.33413126940086935 0.7053981547535322
		outer loop
			vertex 5.820287227630615 3.888991594314575 6.5
			vertex 3.325878381729126 2.222280979156494 9.5
			vertex 3.6955180168151855 1.5307337045669556 9.5
		endloop
	endfacet
	facet normal 0.5479184841831249 0.4496651326643586 0.7053981876617004
		outer loop
			vertex 4.949747562408447 4.949747562408447 6.5
			vertex 2.8284270763397217 2.8284270763397217 9.5
			vertex 3.325878381729126 2.222280979156494 9.5
		endloop
	endfacet
	facet normal 0 0 -1
		outer loop
			vertex 5.820287227630615 -3.888991594314575 6.5
			vertex 5.820287227630615 3.888991594314575 6.5
			vertex 6.467156887054443 2.678784132003784 6.5
		endloop
	endfacet
	facet normal 0 0 -1
		outer loop
			vertex 6.86549711227417 -1.3656322956085205 6.5
			vertex 6.86549711227417 1.3656322956085205 6.5
			vertex 7 0 6.5
		endloop
	endfacet
	facet normal 0 0 -1
		outer loop
			vertex 6.467156887054443 -2.678784132003784 6.5
			vertex 6.467156887054443 2.678784132003784 6.5
			vertex 6.86549711227417 1.3656322956085205 6.5
		endloop
	endfacet
	facet normal 0.705398165699847 0.06947557595718377 0.705398165699847
		outer loop
			vertex 7 0 6.5
			vertex 6.86549711227417 1.3656322956085205 6.5
			vertex 4 0 9.5
		endloop
	endfacet
	facet normal 0.6782900794075113 0.20575703091364825 0.705398194218664
		outer loop
			vertex 6.86549711227417 1.3656322956085205 6.5
			vertex 6.467156887054443 2.678784132003784 6.5
			vertex 3.9231410026550293 0.7803612947463989 9.5
		endloop
	endfacet
	facet normal 0.6251156530885759 0.3341314296986759 0.7053981910603132
		outer loop
			vertex 6.467156887054443 2.678784132003784 6.5
			vertex 5.820287227630615 3.888991594314575 6.5
			vertex 3.6955180168151855 1.5307337045669556 9.5
		endloop
	endfacet
	facet normal 0 0 -1
		outer loop
			vertex 4.949747562408447 4.949747562408447 6.5
			vertex 3.9231410026550293 0.7803612947463989 6.5
			vertex 3.888991594314575 5.820287227630615 6.5
		endloop
	endfacet
	facet normal 0.44966502489517807 0.5479185818361415 0.7053981805084917
		outer loop
			vertex 4.949747562408447 4.949747562408447 6.5
			vertex 3.888991594314575 5.820287227630615 6.5
			vertex 2.8284270763397217 2.8284270763397217 9.5
		endloop
	endfacet
	facet normal 0.5479185965104794 0.44966503693809234 0.7053981614332793
		outer loop
			vertex 4.949747562408447 4.949747562408447 6.5
			vertex 3.325878381729126 2.222280979156494 9.5
			vertex 5.820287227630615 3.888991594314575 6.5
		endloop
	endfacet
endsolid exported
