solid exported
	facet normal 0 0 -1
		outer loop
			vertex -15 -15 -8
			vertex -15 15 -8
			vertex -3.6955180168151855 -1.5307337045669556 -8
		endloop
	endfacet
	facet normal 0 0 -1
		outer loop
			vertex -15 -15 -8
			vertex -1.5307337045669556 -3.6955180168151855 -8
			vertex -0.7803612947463989 -3.9231410026550293 -8
		endloop
	endfacet
	facet normal 0 0 -1
		outer loop
			vertex -15 -15 -8
			vertex -0.7803612947463989 -3.9231410026550293 -8
			vertex 0 -4 -8
		endloop
	endfacet
	facet normal 0 0 -1
		outer loop
			vertex -15 -15 -8
			vertex 0 -4 -8
			vertex 0.7803612947463989 -3.9231410026550293 -8
		endloop
	endfacet
	facet normal 0 0 -1
		outer loop
			vertex -15 -15 -8
			vertex 0.7803612947463989 -3.9231410026550293 -8
			vertex 1.5307337045669556 -3.6955180168151855 -8
		endloop
	endfacet
	facet normal 0 -1 0
		outer loop
			vertex -15 -15 -8
			vertex 15 -15 -8
			vertex -15 -15 8
		endloop
	endfacet
	facet normal 0 0 -1
		outer loop
			vertex -15 -15 -8
			vertex -3.325878381729126 -2.222280979156494 -8
			vertex -2.8284270763397217 -2.8284270763397217 -8
		endloop
	endfacet
	facet normal 0 0 -1
		outer loop
			vertex -15 -15 -8
			vertex -2.8284270763397217 -2.8284270763397217 -8
			vertex -2.222280979156494 -3.325878381729126 -8
		endloop
	endfacet
	facet normal 0 0 -1
		outer loop
			vertex -15 -15 -8
			vertex -3.6955180168151855 -1.5307337045669556 -8
			vertex -3.325878381729126 -2.222280979156494 -8
		endloop
	endfacet
	facet normal 0 0 -1
		outer loop
			vertex -15 -15 -8
			vertex -2.222280979156494 -3.325878381729126 -8
			vertex -1.5307337045669556 -3.6955180168151855 -8
		endloop
	endfacet
	facet normal -1 0 0
		outer loop
			vertex -15 -15 -8
			vertex -15 -15 8
			vertex -15 15 8
		endloop
	endfacet
	facet normal 0 0 1
		outer loop
			vertex -15 -15 8
			vertex -5.0813374519348145 -2.1047589778900146 8
			vertex -15 15 8
		endloop
	endfacet
	facet normal 0 0 1
		outer loop
			vertex -15 -15 8
			vertex -4.57308292388916 -3.055636167526245 8
			vertex -5.0813374519348145 -2.1047589778900146 8
		endloop
	endfacet
	facet normal 0 0 1
		outer loop
			vertex -15 -15 8
			vertex -3.889087200164795 -3.889087200164795 8
			vertex -4.57308292388916 -3.055636167526245 8
		endloop
	endfacet
	facet normal 0 0 1
		outer loop
			vertex -15 -15 8
			vertex -3.055636167526245 -4.57308292388916 8
			vertex -3.889087200164795 -3.889087200164795 8
		endloop
	endfacet
	facet normal 0 0 1
		outer loop
			vertex -15 -15 8
			vertex -2.1047589778900146 -5.0813374519348145 8
			vertex -3.055636167526245 -4.57308292388916 8
		endloop
	endfacet
	facet normal 0 0 1
		outer loop
			vertex -15 -15 8
			vertex -1.072996735572815 -5.3943190574646 8
			vertex -2.1047589778900146 -5.0813374519348145 8
		endloop
	endfacet
	facet normal 0 0 1
		outer loop
			vertex -15 -15 8
			vertex 0 -5.5 8
			vertex -1.072996735572815 -5.3943190574646 8
		endloop
	endfacet
	facet normal 0 0 1
		outer loop
			vertex -15 -15 8
			vertex 1.072996735572815 -5.3943190574646 8
			vertex 0 -5.5 8
		endloop
	endfacet
	facet normal 0 0 1
		outer loop
			vertex -15 -15 8
			vertex 2.1047589778900146 -5.0813374519348145 8
			vertex 1.072996735572815 -5.3943190574646 8
		endloop
	endfacet
	facet normal 0 0 -1
		outer loop
			vertex -15 15 -8
			vertex -3.9231410026550293 -0.7803612947463989 -8
			vertex -3.6955180168151855 -1.5307337045669556 -8
		endloop
	endfacet
	facet normal 0 0 -1
		outer loop
			vertex -15 15 -8
			vertex -4 0 -8
			vertex -3.9231410026550293 -0.7803612947463989 -8
		endloop
	endfacet
	facet normal 0 0 -1
		outer loop
			vertex -15 15 -8
			vertex -3.9231410026550293 0.7803612947463989 -8
			vertex -4 0 -8
		endloop
	endfacet
	facet normal 0 0 -1
		outer loop
			vertex -15 15 -8
			vertex -3.6955180168151855 1.5307337045669556 -8
			vertex -3.9231410026550293 0.7803612947463989 -8
		endloop
	endfacet
	facet normal -1 0 0
		outer loop
			vertex -15 -15 -8
			vertex -15 15 8
			vertex -15 15 -8
		endloop
	endfacet
	facet normal 0 0 -1
		outer loop
			vertex -15 15 -8
			vertex -3.325878381729126 2.222280979156494 -8
			vertex -3.6955180168151855 1.5307337045669556 -8
		endloop
	endfacet
	facet normal 0 0 -1
		outer loop
			vertex -15 15 -8
			vertex -2.8284270763397217 2.8284270763397217 -8
			vertex -3.325878381729126 2.222280979156494 -8
		endloop
	endfacet
	facet normal 0 0 -1
		outer loop
			vertex -15 15 -8
			vertex -2.222280979156494 3.325878381729126 -8
			vertex -2.8284270763397217 2.8284270763397217 -8
		endloop
	endfacet
	facet normal 0 0 -1
		outer loop
			vertex -15 15 -8
			vertex -1.5307337045669556 3.6955180168151855 -8
			vertex -2.222280979156494 3.325878381729126 -8
		endloop
	endfacet
	facet normal 0 0 -1
		outer loop
			vertex -15 15 -8
			vertex 15 15 -8
			vertex -1.5307337045669556 3.6955180168151855 -8
		endloop
	endfacet
	facet normal 0 0 1
		outer loop
			vertex -15 15 8
			vertex -5.0813374519348145 -2.1047589778900146 8
			vertex -5.3943190574646 -1.072996735572815 8
		endloop
	endfacet
	facet normal 0 0 1
		outer loop
			vertex -15 15 8
			vertex -5.3943190574646 -1.072996735572815 8
			vertex -5.5 0 8
		endloop
	endfacet
	facet normal 0 0 1
		outer loop
			vertex -15 15 8
			vertex -5.5 0 8
			vertex -5.3943190574646 1.072996735572815 8
		endloop
	endfacet
	facet normal 0 0 1
		outer loop
			vertex -15 15 8
			vertex -5.3943190574646 1.072996735572815 8
			vertex -5.0813374519348145 2.1047589778900146 8
		endloop
	endfacet
	facet normal 0 0 1
		outer loop
			vertex -15 15 8
			vertex -5.0813374519348145 2.1047589778900146 8
			vertex -4.57308292388916 3.055636167526245 8
		endloop
	endfacet
	facet normal 0 0 1
		outer loop
			vertex -15 15 8
			vertex -4.57308292388916 3.055636167526245 8
			vertex -3.889087200164795 3.889087200164795 8
		endloop
	endfacet
	facet normal 0 1 0
		outer loop
			vertex -15 15 -8
			vertex -15 15 8
			vertex 15 15 8
		endloop
	endfacet
	facet normal 0 0 1
		outer loop
			vertex -15 15 8
			vertex -3.889087200164795 3.889087200164795 8
			vertex -3.055636167526245 4.57308292388916 8
		endloop
	endfacet
	facet normal 0 0 1
		outer loop
			vertex -15 15 8
			vertex -3.055636167526245 4.57308292388916 8
			vertex -2.1047589778900146 5.0813374519348145 8
		endloop
	endfacet
	facet normal 0 0 1
		outer loop
			vertex -15 15 8
			vertex -2.1047589778900146 5.0813374519348145 8
			vertex 15 15 8
		endloop
	endfacet
	facet normal 0 0 -1
		outer loop
			vertex -15 -15 -8
			vertex 1.5307337045669556 -3.6955180168151855 -8
			vertex 15 -15 -8
		endloop
	endfacet
	facet normal 0 0 -1
		outer loop
			vertex 15 -15 -8
			vertex 1.5307337045669556 -3.6955180168151855 -8
			vertex 2.222280979156494 -3.325878381729126 -8
		endloop
	endfacet
	facet normal 0 0 -1
		outer loop
			vertex 15 -15 -8
			vertex 2.222280979156494 -3.325878381729126 -8
			vertex 2.8284270763397217 -2.8284270763397217 -8
		endloop
	endfacet
	facet normal 0 0 -1
		outer loop
			vertex 15 -15 -8
			vertex 2.8284270763397217 -2.8284270763397217 -8
			vertex 3.325878381729126 -2.222280979156494 -8
		endloop
	endfacet
	facet normal 0 0 -1
		outer loop
			vertex 15 -15 -8
			vertex 3.325878381729126 -2.222280979156494 -8
			vertex 3.6955180168151855 -1.5307337045669556 -8
		endloop
	endfacet
	facet normal 0 0 -1
		outer loop
			vertex 15 -15 -8
			vertex 3.6955180168151855 -1.5307337045669556 -8
			vertex 3.9231410026550293 -0.7803612947463989 -8
		endloop
	endfacet
	facet normal 0 0 -1
		outer loop
			vertex 15 -15 -8
			vertex 3.9231410026550293 -0.7803612947463989 -8
			vertex 4 0 -8
		endloop
	endfacet
	facet normal 0 0 -1
		outer loop
			vertex 15 -15 -8
			vertex 4 0 -8
			vertex 3.9231410026550293 0.7803612947463989 -8
		endloop
	endfacet
	facet normal 0 0 -1
		outer loop
			vertex 15 -15 -8
			vertex 3.9231410026550293 0.7803612947463989 -8
			vertex 3.6955180168151855 1.5307337045669556 -8
		endloop
	endfacet
	facet normal 1 0 0
		outer loop
			vertex 15 -15 -8
			vertex 15 15 -8
			vertex 15 -15 8
		endloop
	endfacet
	facet normal 0 -1 0
		outer loop
			vertex -15 -15 8
			vertex 15 -15 -8
			vertex 15 -15 8
		endloop
	endfacet
	facet normal 0 0 1
		outer loop
			vertex -15 -15 8
			vertex 15 -15 8
			vertex 2.1047589778900146 -5.0813374519348145 8
		endloop
	endfacet
	facet normal 0 0 1
		outer loop
			vertex 15 -15 8
			vertex 3.055636167526245 -4.57308292388916 8
			vertex 2.1047589778900146 -5.0813374519348145 8
		endloop
	endfacet
	facet normal 0 0 1
		outer loop
			vertex 15 -15 8
			vertex 3.889087200164795 -3.889087200164795 8
			vertex 3.055636167526245 -4.57308292388916 8
		endloop
	endfacet
	facet normal 0 0 1
		outer loop
			vertex 15 -15 8
			vertex 4.57308292388916 -3.055636167526245 8
			vertex 3.889087200164795 -3.889087200164795 8
		endloop
	endfacet
	facet normal 0 0 1
		outer loop
			vertex 15 -15 8
			vertex 5.0813374519348145 -2.1047589778900146 8
			vertex 4.57308292388916 -3.055636167526245 8
		endloop
	endfacet
	facet normal 0 0 1
		outer loop
			vertex 15 -15 8
			vertex 5.3943190574646 -1.072996735572815 8
			vertex 5.0813374519348145 -2.1047589778900146 8
		endloop
	endfacet
	facet normal 0 0 1
		outer loop
			vertex 15 -15 8
			vertex 5.5 0 8
			vertex 5.3943190574646 -1.072996735572815 8
		endloop
	endfacet
	facet normal 0 0 1
		outer loop
			vertex 15 -15 8
			vertex 5.3943190574646 1.072996735572815 8
			vertex 5.5 0 8
		endloop
	endfacet
	facet normal 0 0 1
		outer loop
			vertex 15 -15 8
			vertex 5.0813374519348145 2.1047589778900146 8
			vertex 5.3943190574646 1.072996735572815 8
		endloop
	endfacet
	facet normal 0 0 -1
		outer loop
			vertex 15 15 -8
			vertex 2.222280979156494 3.325878381729126 -8
			vertex 1.5307337045669556 3.6955180168151855 -8
		endloop
	endfacet
	facet normal 0 0 -1
		outer loop
			vertex 15 15 -8
			vertex 3.6955180168151855 1.5307337045669556 -8
			vertex 3.325878381729126 2.222280979156494 -8
		endloop
	endfacet
	facet normal 0 0 -1
		outer loop
			vertex 15 15 -8
			vertex 2.8284270763397217 2.8284270763397217 -8
			vertex 2.222280979156494 3.325878381729126 -8
		endloop
	endfacet
	facet normal 0 0 -1
		outer loop
			vertex 15 15 -8
			vertex 3.325878381729126 2.222280979156494 -8
			vertex 2.8284270763397217 2.8284270763397217 -8
		endloop
	endfacet
	facet normal 0 0 -1
		outer loop
			vertex 15 15 -8
			vertex -0.7803612947463989 3.9231410026550293 -8
			vertex -1.5307337045669556 3.6955180168151855 -8
		endloop
	endfacet
	facet normal 0 0 -1
		outer loop
			vertex 15 15 -8
			vertex 0 4 -8
			vertex -0.7803612947463989 3.9231410026550293 -8
		endloop
	endfacet
	facet normal 0 0 -1
		outer loop
			vertex 15 15 -8
			vertex 0.7803612947463989 3.9231410026550293 -8
			vertex 0 4 -8
		endloop
	endfacet
	facet normal 0 0 -1
		outer loop
			vertex 15 15 -8
			vertex 1.5307337045669556 3.6955180168151855 -8
			vertex 0.7803612947463989 3.9231410026550293 -8
		endloop
	endfacet
	facet normal 0 1 0
		outer loop
			vertex -15 15 -8
			vertex 15 15 8
			vertex 15 15 -8
		endloop
	endfacet
	facet normal 0 0 -1
		outer loop
			vertex 15 -15 -8
			vertex 3.6955180168151855 1.5307337045669556 -8
			vertex 15 15 -8
		endloop
	endfacet
	facet normal 0 0 1
		outer loop
			vertex 15 15 8
			vertex -2.1047589778900146 5.0813374519348145 8
			vertex -1.072996735572815 5.3943190574646 8
		endloop
	endfacet
	facet normal 0 0 1
		outer loop
			vertex 15 15 8
			vertex -1.072996735572815 5.3943190574646 8
			vertex 0 5.5 8
		endloop
	endfacet
	facet normal 0 0 1
		outer loop
			vertex 15 15 8
			vertex 0 5.5 8
			vertex 1.072996735572815 5.3943190574646 8
		endloop
	endfacet
	facet normal 0 0 1
		outer loop
			vertex 15 15 8
			vertex 1.072996735572815 5.3943190574646 8
			vertex 2.1047589778900146 5.0813374519348145 8
		endloop
	endfacet
	facet normal 0 0 1
		outer loop
			vertex 15 15 8
			vertex 2.1047589778900146 5.0813374519348145 8
			vertex 3.055636167526245 4.57308292388916 8
		endloop
	endfacet
	facet normal 0 0 1
		outer loop
			vertex 15 15 8
			vertex 3.055636167526245 4.57308292388916 8
			vertex 3.889087200164795 3.889087200164795 8
		endloop
	endfacet
	facet normal 1 0 0
		outer loop
			vertex 15 -15 8
			vertex 15 15 -8
			vertex 15 15 8
		endloop
	endfacet
	facet normal 0 0 1
		outer loop
			vertex 15 15 8
			vertex 3.889087200164795 3.889087200164795 8
			vertex 4.57308292388916 3.055636167526245 8
		endloop
	endfacet
	facet normal 0 0 1
		outer loop
			vertex 15 15 8
			vertex 4.57308292388916 3.055636167526245 8
			vertex 5.0813374519348145 2.1047589778900146 8
		endloop
	endfacet
	facet normal 0 0 1
		outer loop
			vertex 15 -15 8
			vertex 15 15 8
			vertex 5.0813374519348145 2.1047589778900146 8
		endloop
	endfacet
	facet normal 0.9569403343682077 0.29028468175097155 0
		outer loop
			vertex -3.9231410026550293 -0.7803612947463989 6.5
			vertex -3.6955180168151855 -1.5307337045669556 -8
			vertex -3.9231410026550293 -0.7803612947463989 -8
		endloop
	endfacet
	facet normal 0.9951847119559187 0.09801728974632536 0
		outer loop
			vertex -4 0 6.5
			vertex -3.9231410026550293 -0.7803612947463989 -8
			vertex -4 0 -8
		endloop
	endfacet
	facet normal 0.29028468175097155 0.9569403343682077 0
		outer loop
			vertex -1.5307337045669556 -3.6955180168151855 6.5
			vertex -0.7803612947463989 -3.9231410026550293 -8
			vertex -1.5307337045669556 -3.6955180168151855 -8
		endloop
	endfacet
	facet normal 0.09801728974632536 0.9951847119559187 0
		outer loop
			vertex -0.7803612947463989 -3.9231410026550293 6.5
			vertex 0 -4 -8
			vertex -0.7803612947463989 -3.9231410026550293 -8
		endloop
	endfacet
	facet normal 0.7730104162847984 0.6343933293432417 0
		outer loop
			vertex -3.325878381729126 -2.222280979156494 6.5
			vertex -2.8284270763397217 -2.8284270763397217 -8
			vertex -3.325878381729126 -2.222280979156494 -8
		endloop
	endfacet
	facet normal 0.6343933293432417 0.7730104162847984 0
		outer loop
			vertex -2.8284270763397217 -2.8284270763397217 6.5
			vertex -2.222280979156494 -3.325878381729126 -8
			vertex -2.8284270763397217 -2.8284270763397217 -8
		endloop
	endfacet
	facet normal 0.47139665328975405 0.8819213089994024 0
		outer loop
			vertex -2.222280979156494 -3.325878381729126 6.5
			vertex -1.5307337045669556 -3.6955180168151855 -8
			vertex -2.222280979156494 -3.325878381729126 -8
		endloop
	endfacet
	facet normal 0.8819213089994024 0.47139665328975405 0
		outer loop
			vertex -3.6955180168151855 -1.5307337045669556 6.5
			vertex -3.325878381729126 -2.222280979156494 -8
			vertex -3.6955180168151855 -1.5307337045669556 -8
		endloop
	endfacet
	facet normal 0.9569403343682077 0.29028468175097155 0
		outer loop
			vertex -3.6955180168151855 -1.5307337045669556 6.5
			vertex -3.6955180168151855 -1.5307337045669556 -8
			vertex -3.9231410026550293 -0.7803612947463989 6.5
		endloop
	endfacet
	facet normal 0.9951847119559187 0.09801728974632536 0
		outer loop
			vertex -3.9231410026550293 -0.7803612947463989 6.5
			vertex -3.9231410026550293 -0.7803612947463989 -8
			vertex -4 0 6.5
		endloop
	endfacet
	facet normal 0.29028468175097155 0.9569403343682077 0
		outer loop
			vertex -1.5307337045669556 -3.6955180168151855 6.5
			vertex -0.7803612947463989 -3.9231410026550293 6.5
			vertex -0.7803612947463989 -3.9231410026550293 -8
		endloop
	endfacet
	facet normal 0.09801728974632536 0.9951847119559187 0
		outer loop
			vertex -0.7803612947463989 -3.9231410026550293 6.5
			vertex 0 -4 6.5
			vertex 0 -4 -8
		endloop
	endfacet
	facet normal 0.8819213089994024 0.47139665328975405 0
		outer loop
			vertex -3.6955180168151855 -1.5307337045669556 6.5
			vertex -3.325878381729126 -2.222280979156494 6.5
			vertex -3.325878381729126 -2.222280979156494 -8
		endloop
	endfacet
	facet normal 0.7730104162847984 0.6343933293432417 0
		outer loop
			vertex -2.8284270763397217 -2.8284270763397217 6.5
			vertex -2.8284270763397217 -2.8284270763397217 -8
			vertex -3.325878381729126 -2.222280979156494 6.5
		endloop
	endfacet
	facet normal 0.6343933293432417 0.7730104162847984 0
		outer loop
			vertex -2.8284270763397217 -2.8284270763397217 6.5
			vertex -2.222280979156494 -3.325878381729126 6.5
			vertex -2.222280979156494 -3.325878381729126 -8
		endloop
	endfacet
	facet normal 0.47139665328975405 0.8819213089994024 0
		outer loop
			vertex -1.5307337045669556 -3.6955180168151855 6.5
			vertex -1.5307337045669556 -3.6955180168151855 -8
			vertex -2.222280979156494 -3.325878381729126 6.5
		endloop
	endfacet
	facet normal 0.9951847119559187 -0.09801728974632536 0
		outer loop
			vertex -3.9231410026550293 0.7803612947463989 6.5
			vertex -4 0 -8
			vertex -3.9231410026550293 0.7803612947463989 -8
		endloop
	endfacet
	facet normal 0.9569403343682077 -0.29028468175097155 0
		outer loop
			vertex -3.6955180168151855 1.5307337045669556 6.5
			vertex -3.9231410026550293 0.7803612947463989 -8
			vertex -3.6955180168151855 1.5307337045669556 -8
		endloop
	endfacet
	facet normal 0.8819213089994024 -0.47139665328975405 0
		outer loop
			vertex -3.325878381729126 2.222280979156494 6.5
			vertex -3.6955180168151855 1.5307337045669556 -8
			vertex -3.325878381729126 2.222280979156494 -8
		endloop
	endfacet
	facet normal 0.7730104162847984 -0.6343933293432417 0
		outer loop
			vertex -2.8284270763397217 2.8284270763397217 6.5
			vertex -3.325878381729126 2.222280979156494 -8
			vertex -2.8284270763397217 2.8284270763397217 -8
		endloop
	endfacet
	facet normal 0.6343933293432417 -0.7730104162847984 0
		outer loop
			vertex -2.222280979156494 3.325878381729126 6.5
			vertex -2.8284270763397217 2.8284270763397217 -8
			vertex -2.222280979156494 3.325878381729126 -8
		endloop
	endfacet
	facet normal 0.47139665328975405 -0.8819213089994024 0
		outer loop
			vertex -1.5307337045669556 3.6955180168151855 6.5
			vertex -2.222280979156494 3.325878381729126 -8
			vertex -1.5307337045669556 3.6955180168151855 -8
		endloop
	endfacet
	facet normal 0.29028468175097155 -0.9569403343682077 0
		outer loop
			vertex -0.7803612947463989 3.9231410026550293 6.5
			vertex -1.5307337045669556 3.6955180168151855 -8
			vertex -0.7803612947463989 3.9231410026550293 -8
		endloop
	endfacet
	facet normal 0.09801728974632536 -0.9951847119559187 0
		outer loop
			vertex 0 4 6.5
			vertex -0.7803612947463989 3.9231410026550293 -8
			vertex 0 4 -8
		endloop
	endfacet
	facet normal 0.9951847119559187 -0.09801728974632536 0
		outer loop
			vertex -4 0 6.5
			vertex -4 0 -8
			vertex -3.9231410026550293 0.7803612947463989 6.5
		endloop
	endfacet
	facet normal 0.9569403343682077 -0.29028468175097155 0
		outer loop
			vertex -3.9231410026550293 0.7803612947463989 6.5
			vertex -3.9231410026550293 0.7803612947463989 -8
			vertex -3.6955180168151855 1.5307337045669556 6.5
		endloop
	endfacet
	facet normal 0.8819213089994024 -0.47139665328975405 0
		outer loop
			vertex -3.6955180168151855 1.5307337045669556 6.5
			vertex -3.6955180168151855 1.5307337045669556 -8
			vertex -3.325878381729126 2.222280979156494 6.5
		endloop
	endfacet
	facet normal 0.7730104162847984 -0.6343933293432417 0
		outer loop
			vertex -3.325878381729126 2.222280979156494 6.5
			vertex -3.325878381729126 2.222280979156494 -8
			vertex -2.8284270763397217 2.8284270763397217 6.5
		endloop
	endfacet
	facet normal 0.6343933293432417 -0.7730104162847984 0
		outer loop
			vertex -2.8284270763397217 2.8284270763397217 6.5
			vertex -2.8284270763397217 2.8284270763397217 -8
			vertex -2.222280979156494 3.325878381729126 6.5
		endloop
	endfacet
	facet normal 0.47139665328975405 -0.8819213089994024 0
		outer loop
			vertex -2.222280979156494 3.325878381729126 6.5
			vertex -2.222280979156494 3.325878381729126 -8
			vertex -1.5307337045669556 3.6955180168151855 6.5
		endloop
	endfacet
	facet normal 0.29028468175097155 -0.9569403343682077 0
		outer loop
			vertex -1.5307337045669556 3.6955180168151855 6.5
			vertex -1.5307337045669556 3.6955180168151855 -8
			vertex -0.7803612947463989 3.9231410026550293 6.5
		endloop
	endfacet
	facet normal 0.09801728974632536 -0.9951847119559187 0
		outer loop
			vertex -0.7803612947463989 3.9231410026550293 6.5
			vertex -0.7803612947463989 3.9231410026550293 -8
			vertex 0 4 6.5
		endloop
	endfacet
	facet normal -0.09801728974632536 0.9951847119559187 0
		outer loop
			vertex 0 -4 6.5
			vertex 0.7803612947463989 -3.9231410026550293 -8
			vertex 0 -4 -8
		endloop
	endfacet
	facet normal -0.29028468175097155 0.9569403343682077 0
		outer loop
			vertex 0.7803612947463989 -3.9231410026550293 6.5
			vertex 1.5307337045669556 -3.6955180168151855 -8
			vertex 0.7803612947463989 -3.9231410026550293 -8
		endloop
	endfacet
	facet normal -0.47139665328975405 0.8819213089994024 0
		outer loop
			vertex 1.5307337045669556 -3.6955180168151855 6.5
			vertex 2.222280979156494 -3.325878381729126 -8
			vertex 1.5307337045669556 -3.6955180168151855 -8
		endloop
	endfacet
	facet normal -0.6343933293432417 0.7730104162847984 0
		outer loop
			vertex 2.222280979156494 -3.325878381729126 6.5
			vertex 2.8284270763397217 -2.8284270763397217 -8
			vertex 2.222280979156494 -3.325878381729126 -8
		endloop
	endfacet
	facet normal -0.7730104162847984 0.6343933293432417 0
		outer loop
			vertex 2.8284270763397217 -2.8284270763397217 6.5
			vertex 3.325878381729126 -2.222280979156494 -8
			vertex 2.8284270763397217 -2.8284270763397217 -8
		endloop
	endfacet
	facet normal -0.8819213089994024 0.47139665328975405 0
		outer loop
			vertex 3.325878381729126 -2.222280979156494 6.5
			vertex 3.6955180168151855 -1.5307337045669556 -8
			vertex 3.325878381729126 -2.222280979156494 -8
		endloop
	endfacet
	facet normal -0.9569403343682077 0.29028468175097155 0
		outer loop
			vertex 3.6955180168151855 -1.5307337045669556 6.5
			vertex 3.9231410026550293 -0.7803612947463989 -8
			vertex 3.6955180168151855 -1.5307337045669556 -8
		endloop
	endfacet
	facet normal -0.9951847119559187 0.09801728974632536 0
		outer loop
			vertex 3.9231410026550293 -0.7803612947463989 6.5
			vertex 4 0 -8
			vertex 3.9231410026550293 -0.7803612947463989 -8
		endloop
	endfacet
	facet normal -0.09801728974632536 0.9951847119559187 0
		outer loop
			vertex 0 -4 6.5
			vertex 0.7803612947463989 -3.9231410026550293 6.5
			vertex 0.7803612947463989 -3.9231410026550293 -8
		endloop
	endfacet
	facet normal -0.29028468175097155 0.9569403343682077 0
		outer loop
			vertex 0.7803612947463989 -3.9231410026550293 6.5
			vertex 1.5307337045669556 -3.6955180168151855 6.5
			vertex 1.5307337045669556 -3.6955180168151855 -8
		endloop
	endfacet
	facet normal -0.47139665328975405 0.8819213089994024 0
		outer loop
			vertex 1.5307337045669556 -3.6955180168151855 6.5
			vertex 2.222280979156494 -3.325878381729126 6.5
			vertex 2.222280979156494 -3.325878381729126 -8
		endloop
	endfacet
	facet normal -0.6343933293432417 0.7730104162847984 0
		outer loop
			vertex 2.222280979156494 -3.325878381729126 6.5
			vertex 2.8284270763397217 -2.8284270763397217 6.5
			vertex 2.8284270763397217 -2.8284270763397217 -8
		endloop
	endfacet
	facet normal -0.7730104162847984 0.6343933293432417 0
		outer loop
			vertex 2.8284270763397217 -2.8284270763397217 6.5
			vertex 3.325878381729126 -2.222280979156494 6.5
			vertex 3.325878381729126 -2.222280979156494 -8
		endloop
	endfacet
	facet normal -0.8819213089994024 0.47139665328975405 0
		outer loop
			vertex 3.325878381729126 -2.222280979156494 6.5
			vertex 3.6955180168151855 -1.5307337045669556 6.5
			vertex 3.6955180168151855 -1.5307337045669556 -8
		endloop
	endfacet
	facet normal -0.9569403343682077 0.29028468175097155 0
		outer loop
			vertex 3.6955180168151855 -1.5307337045669556 6.5
			vertex 3.9231410026550293 -0.7803612947463989 6.5
			vertex 3.9231410026550293 -0.7803612947463989 -8
		endloop
	endfacet
	facet normal -0.9951847119559187 0.09801728974632536 0
		outer loop
			vertex 3.9231410026550293 -0.7803612947463989 6.5
			vertex 4 0 6.5
			vertex 4 0 -8
		endloop
	endfacet
	facet normal -0.8819213089994024 -0.47139665328975405 0
		outer loop
			vertex 3.6955180168151855 1.5307337045669556 6.5
			vertex 3.325878381729126 2.222280979156494 -8
			vertex 3.6955180168151855 1.5307337045669556 -8
		endloop
	endfacet
	facet normal -0.47139665328975405 -0.8819213089994024 0
		outer loop
			vertex 2.222280979156494 3.325878381729126 6.5
			vertex 1.5307337045669556 3.6955180168151855 -8
			vertex 2.222280979156494 3.325878381729126 -8
		endloop
	endfacet
	facet normal -0.6343933293432417 -0.7730104162847984 0
		outer loop
			vertex 2.8284270763397217 2.8284270763397217 6.5
			vertex 2.222280979156494 3.325878381729126 -8
			vertex 2.8284270763397217 2.8284270763397217 -8
		endloop
	endfacet
	facet normal -0.7730104162847984 -0.6343933293432417 0
		outer loop
			vertex 3.325878381729126 2.222280979156494 6.5
			vertex 2.8284270763397217 2.8284270763397217 -8
			vertex 3.325878381729126 2.222280979156494 -8
		endloop
	endfacet
	facet normal -0.09801728974632536 -0.9951847119559187 0
		outer loop
			vertex 0.7803612947463989 3.9231410026550293 6.5
			vertex 0 4 -8
			vertex 0.7803612947463989 3.9231410026550293 -8
		endloop
	endfacet
	facet normal -0.29028468175097155 -0.9569403343682077 0
		outer loop
			vertex 1.5307337045669556 3.6955180168151855 6.5
			vertex 0.7803612947463989 3.9231410026550293 -8
			vertex 1.5307337045669556 3.6955180168151855 -8
		endloop
	endfacet
	facet normal -0.9951847119559187 -0.09801728974632536 0
		outer loop
			vertex 4 0 6.5
			vertex 3.9231410026550293 0.7803612947463989 -8
			vertex 4 0 -8
		endloop
	endfacet
	facet normal -0.9569403343682077 -0.29028468175097155 0
		outer loop
			vertex 3.9231410026550293 0.7803612947463989 6.5
			vertex 3.6955180168151855 1.5307337045669556 -8
			vertex 3.9231410026550293 0.7803612947463989 -8
		endloop
	endfacet
	facet normal -0.47139665328975405 -0.8819213089994024 0
		outer loop
			vertex 2.222280979156494 3.325878381729126 6.5
			vertex 1.5307337045669556 3.6955180168151855 6.5
			vertex 1.5307337045669556 3.6955180168151855 -8
		endloop
	endfacet
	facet normal -0.6343933293432417 -0.7730104162847984 0
		outer loop
			vertex 2.222280979156494 3.325878381729126 6.5
			vertex 2.222280979156494 3.325878381729126 -8
			vertex 2.8284270763397217 2.8284270763397217 6.5
		endloop
	endfacet
	facet normal -0.7730104162847984 -0.6343933293432417 0
		outer loop
			vertex 3.325878381729126 2.222280979156494 6.5
			vertex 2.8284270763397217 2.8284270763397217 6.5
			vertex 2.8284270763397217 2.8284270763397217 -8
		endloop
	endfacet
	facet normal -0.8819213089994024 -0.47139665328975405 0
		outer loop
			vertex 3.325878381729126 2.222280979156494 6.5
			vertex 3.325878381729126 2.222280979156494 -8
			vertex 3.6955180168151855 1.5307337045669556 6.5
		endloop
	endfacet
	facet normal -0.09801728974632536 -0.9951847119559187 0
		outer loop
			vertex 0 4 6.5
			vertex 0 4 -8
			vertex 0.7803612947463989 3.9231410026550293 6.5
		endloop
	endfacet
	facet normal -0.29028468175097155 -0.9569403343682077 0
		outer loop
			vertex 0.7803612947463989 3.9231410026550293 6.5
			vertex 0.7803612947463989 3.9231410026550293 -8
			vertex 1.5307337045669556 3.6955180168151855 6.5
		endloop
	endfacet
	facet normal -0.9951847119559187 -0.09801728974632536 0
		outer loop
			vertex 3.9231410026550293 0.7803612947463989 6.5
			vertex 3.9231410026550293 0.7803612947463989 -8
			vertex 4 0 6.5
		endloop
	endfacet
	facet normal -0.9569403343682077 -0.29028468175097155 0
		outer loop
			vertex 3.9231410026550293 0.7803612947463989 6.5
			vertex 3.6955180168151855 1.5307337045669556 6.5
			vertex 3.6955180168151855 1.5307337045669556 -8
		endloop
	endfacet
	facet normal 0 0 1
		outer loop
			vertex -3.888991594314575 -5.820287227630615 6.5
			vertex -3.9231410026550293 -0.7803612947463989 6.5
			vertex -4.949747562408447 -4.949747562408447 6.5
		endloop
	endfacet
	facet normal 0.5479185995284673 0.44966503941489033 -0.7053981575101883
		outer loop
			vertex -5.820287227630615 -3.888991594314575 6.5
			vertex -4.57308292388916 -3.055636167526245 8
			vertex -4.949747562408447 -4.949747562408447 6.5
		endloop
	endfacet
	facet normal 0.4496649997478656 0.5479185511940435 -0.7053982203402362
		outer loop
			vertex -3.888991594314575 -5.820287227630615 6.5
			vertex -4.949747562408447 -4.949747562408447 6.5
			vertex -3.889087200164795 -3.889087200164795 8
		endloop
	endfacet
	facet normal 0.5479184342303967 0.4496651288281177 -0.7053982289079714
		outer loop
			vertex -4.949747562408447 -4.949747562408447 6.5
			vertex -4.57308292388916 -3.055636167526245 8
			vertex -3.889087200164795 -3.889087200164795 8
		endloop
	endfacet
	facet normal 0.6251156589432253 0.33413143282805263 -0.705398184389675
		outer loop
			vertex -5.820287227630615 -3.888991594314575 6.5
			vertex -6.467156887054443 -2.678784132003784 6.5
			vertex -5.0813374519348145 -2.1047589778900146 8
		endloop
	endfacet
	facet normal 0.6782900865631316 0.20575701610352184 -0.7053981916579845
		outer loop
			vertex -6.467156887054443 -2.678784132003784 6.5
			vertex -5.3943190574646 -1.072996735572815 8
			vertex -5.0813374519348145 -2.1047589778900146 8
		endloop
	endfacet
	facet normal 0 0 1
		outer loop
			vertex -6.467156887054443 -2.678784132003784 6.5
			vertex -6.467156887054443 2.678784132003784 6.5
			vertex -6.86549711227417 -1.3656322956085205 6.5
		endloop
	endfacet
	facet normal 0 0 1
		outer loop
			vertex -5.820287227630615 -3.888991594314575 6.5
			vertex -5.820287227630615 3.888991594314575 6.5
			vertex -6.467156887054443 -2.678784132003784 6.5
		endloop
	endfacet
	facet normal 0.6782900754955609 0.20575702972697119 -0.7053981983264209
		outer loop
			vertex -6.467156887054443 -2.678784132003784 6.5
			vertex -6.86549711227417 -1.3656322956085205 6.5
			vertex -5.3943190574646 -1.072996735572815 8
		endloop
	endfacet
	facet normal 0.705398165699847 0.06947557595718377 -0.705398165699847
		outer loop
			vertex -6.86549711227417 -1.3656322956085205 6.5
			vertex -7 0 6.5
			vertex -5.5 0 8
		endloop
	endfacet
	facet normal 0.705398129762952 0.06947564400208614 -0.705398194934907
		outer loop
			vertex -6.86549711227417 -1.3656322956085205 6.5
			vertex -5.5 0 8
			vertex -5.3943190574646 -1.072996735572815 8
		endloop
	endfacet
	facet normal 0 0 1
		outer loop
			vertex -4.949747562408447 -4.949747562408447 6.5
			vertex -3.9231410026550293 -0.7803612947463989 6.5
			vertex -4 0 6.5
		endloop
	endfacet
	facet normal 0 0 1
		outer loop
			vertex -3.888991594314575 -5.820287227630615 6.5
			vertex -3.6955180168151855 -1.5307337045669556 6.5
			vertex -3.9231410026550293 -0.7803612947463989 6.5
		endloop
	endfacet
	facet normal 0.6251157311390528 0.3341313729752422 -0.7053981487615112
		outer loop
			vertex -5.820287227630615 -3.888991594314575 6.5
			vertex -5.0813374519348145 -2.1047589778900146 8
			vertex -4.57308292388916 -3.055636167526245 8
		endloop
	endfacet
	facet normal 0 0 1
		outer loop
			vertex -5.820287227630615 -3.888991594314575 6.5
			vertex -4.949747562408447 -4.949747562408447 6.5
			vertex -4.949747562408447 4.949747562408447 6.5
		endloop
	endfacet
	facet normal 0 0 1
		outer loop
			vertex -4.949747562408447 -4.949747562408447 6.5
			vertex -4 0 6.5
			vertex -3.9231410026550293 0.7803612947463989 6.5
		endloop
	endfacet
	facet normal 0.20575703142222415 0.6782900810840614 -0.7053981924581968
		outer loop
			vertex -2.678784132003784 -6.467156887054443 6.5
			vertex -2.1047589778900146 -5.0813374519348145 8
			vertex -1.3656322956085205 -6.86549711227417 6.5
		endloop
	endfacet
	facet normal 0 0 1
		outer loop
			vertex -3.888991594314575 -5.820287227630615 6.5
			vertex -2.678784132003784 -6.467156887054443 6.5
			vertex -2.8284270763397217 -2.8284270763397217 6.5
		endloop
	endfacet
	facet normal 0 0 1
		outer loop
			vertex -2.678784132003784 -6.467156887054443 6.5
			vertex -2.222280979156494 -3.325878381729126 6.5
			vertex -2.8284270763397217 -2.8284270763397217 6.5
		endloop
	endfacet
	facet normal 0 0 1
		outer loop
			vertex -2.678784132003784 -6.467156887054443 6.5
			vertex -1.5307337045669556 -3.6955180168151855 6.5
			vertex -2.222280979156494 -3.325878381729126 6.5
		endloop
	endfacet
	facet normal 0.3341314475364907 0.6251156864607651 -0.70539815303689
		outer loop
			vertex -3.888991594314575 -5.820287227630615 6.5
			vertex -3.055636167526245 -4.57308292388916 8
			vertex -2.678784132003784 -6.467156887054443 6.5
		endloop
	endfacet
	facet normal 0.4496651793134318 0.5479184957469175 -0.7053981489424638
		outer loop
			vertex -3.888991594314575 -5.820287227630615 6.5
			vertex -3.889087200164795 -3.889087200164795 8
			vertex -3.055636167526245 -4.57308292388916 8
		endloop
	endfacet
	facet normal 0.33413135425541285 0.6251156961167211 -0.7053981886650625
		outer loop
			vertex -2.678784132003784 -6.467156887054443 6.5
			vertex -3.055636167526245 -4.57308292388916 8
			vertex -2.1047589778900146 -5.0813374519348145 8
		endloop
	endfacet
	facet normal 0 0 1
		outer loop
			vertex -2.678784132003784 -6.467156887054443 6.5
			vertex -1.3656322956085205 -6.86549711227417 6.5
			vertex -1.5307337045669556 -3.6955180168151855 6.5
		endloop
	endfacet
	facet normal 0 0 1
		outer loop
			vertex -1.3656322956085205 -6.86549711227417 6.5
			vertex 0 -7 6.5
			vertex -0.7803612947463989 -3.9231410026550293 6.5
		endloop
	endfacet
	facet normal 0.2057570139459275 0.678290079450495 -0.7053981991266328
		outer loop
			vertex -1.3656322956085205 -6.86549711227417 6.5
			vertex -2.1047589778900146 -5.0813374519348145 8
			vertex -1.072996735572815 -5.3943190574646 8
		endloop
	endfacet
	facet normal 0.0694755734476568 0.705398140220163 -0.7053981914266966
		outer loop
			vertex -1.3656322956085205 -6.86549711227417 6.5
			vertex -1.072996735572815 -5.3943190574646 8
			vertex 0 -7 6.5
		endloop
	endfacet
	facet normal 0.06947564719603297 0.7053981621916421 -0.7053981621916421
		outer loop
			vertex 0 -7 6.5
			vertex -1.072996735572815 -5.3943190574646 8
			vertex 0 -5.5 8
		endloop
	endfacet
	facet normal 0 0 1
		outer loop
			vertex -1.3656322956085205 -6.86549711227417 6.5
			vertex -0.7803612947463989 -3.9231410026550293 6.5
			vertex -1.5307337045669556 -3.6955180168151855 6.5
		endloop
	endfacet
	facet normal 0 0 1
		outer loop
			vertex -0.7803612947463989 -3.9231410026550293 6.5
			vertex 0 -7 6.5
			vertex 0 -4 6.5
		endloop
	endfacet
	facet normal 0 0 1
		outer loop
			vertex -3.888991594314575 -5.820287227630615 6.5
			vertex -2.8284270763397217 -2.8284270763397217 6.5
			vertex -3.325878381729126 -2.222280979156494 6.5
		endloop
	endfacet
	facet normal 0 0 1
		outer loop
			vertex -3.888991594314575 -5.820287227630615 6.5
			vertex -3.325878381729126 -2.222280979156494 6.5
			vertex -3.6955180168151855 -1.5307337045669556 6.5
		endloop
	endfacet
	facet normal 0 0 1
		outer loop
			vertex -6.86549711227417 -1.3656322956085205 6.5
			vertex -6.86549711227417 1.3656322956085205 6.5
			vertex -7 0 6.5
		endloop
	endfacet
	facet normal 0 0 1
		outer loop
			vertex -6.86549711227417 -1.3656322956085205 6.5
			vertex -6.467156887054443 2.678784132003784 6.5
			vertex -6.86549711227417 1.3656322956085205 6.5
		endloop
	endfacet
	facet normal 0 0 1
		outer loop
			vertex -6.467156887054443 -2.678784132003784 6.5
			vertex -5.820287227630615 3.888991594314575 6.5
			vertex -6.467156887054443 2.678784132003784 6.5
		endloop
	endfacet
	facet normal 0.705398140220163 -0.0694755734476568 -0.7053981914266966
		outer loop
			vertex -7 0 6.5
			vertex -6.86549711227417 1.3656322956085205 6.5
			vertex -5.3943190574646 1.072996735572815 8
		endloop
	endfacet
	facet normal 0.7053981621916421 -0.06947564719603297 -0.7053981621916421
		outer loop
			vertex -7 0 6.5
			vertex -5.3943190574646 1.072996735572815 8
			vertex -5.5 0 8
		endloop
	endfacet
	facet normal 0.678290079450495 -0.2057570139459275 -0.7053981991266328
		outer loop
			vertex -6.86549711227417 1.3656322956085205 6.5
			vertex -5.0813374519348145 2.1047589778900146 8
			vertex -5.3943190574646 1.072996735572815 8
		endloop
	endfacet
	facet normal 0.6782900810840614 -0.20575703142222415 -0.7053981924581968
		outer loop
			vertex -6.86549711227417 1.3656322956085205 6.5
			vertex -6.467156887054443 2.678784132003784 6.5
			vertex -5.0813374519348145 2.1047589778900146 8
		endloop
	endfacet
	facet normal 0 0 1
		outer loop
			vertex -5.820287227630615 -3.888991594314575 6.5
			vertex -4.949747562408447 4.949747562408447 6.5
			vertex -5.820287227630615 3.888991594314575 6.5
		endloop
	endfacet
	facet normal 0 0 1
		outer loop
			vertex -4.949747562408447 -4.949747562408447 6.5
			vertex -3.9231410026550293 0.7803612947463989 6.5
			vertex -3.888991594314575 5.820287227630615 6.5
		endloop
	endfacet
	facet normal 0 0 1
		outer loop
			vertex -4.949747562408447 -4.949747562408447 6.5
			vertex -3.888991594314575 5.820287227630615 6.5
			vertex -4.949747562408447 4.949747562408447 6.5
		endloop
	endfacet
	facet normal 0 0 1
		outer loop
			vertex -3.9231410026550293 0.7803612947463989 6.5
			vertex -3.6955180168151855 1.5307337045669556 6.5
			vertex -3.888991594314575 5.820287227630615 6.5
		endloop
	endfacet
	facet normal 0.6251156961167211 -0.33413135425541285 -0.7053981886650625
		outer loop
			vertex -6.467156887054443 2.678784132003784 6.5
			vertex -4.57308292388916 3.055636167526245 8
			vertex -5.0813374519348145 2.1047589778900146 8
		endloop
	endfacet
	facet normal 0.6251156864607651 -0.3341314475364907 -0.70539815303689
		outer loop
			vertex -6.467156887054443 2.678784132003784 6.5
			vertex -5.820287227630615 3.888991594314575 6.5
			vertex -4.57308292388916 3.055636167526245 8
		endloop
	endfacet
	facet normal 0.5479184957469175 -0.4496651793134318 -0.7053981489424638
		outer loop
			vertex -5.820287227630615 3.888991594314575 6.5
			vertex -3.889087200164795 3.889087200164795 8
			vertex -4.57308292388916 3.055636167526245 8
		endloop
	endfacet
	facet normal 0.5479185511940435 -0.4496649997478656 -0.7053982203402362
		outer loop
			vertex -5.820287227630615 3.888991594314575 6.5
			vertex -4.949747562408447 4.949747562408447 6.5
			vertex -3.889087200164795 3.889087200164795 8
		endloop
	endfacet
	facet normal 0.4496651288281177 -0.5479184342303967 -0.7053982289079714
		outer loop
			vertex -4.949747562408447 4.949747562408447 6.5
			vertex -3.055636167526245 4.57308292388916 8
			vertex -3.889087200164795 3.889087200164795 8
		endloop
	endfacet
	facet normal 0.44966503941489033 -0.5479185995284673 -0.7053981575101883
		outer loop
			vertex -4.949747562408447 4.949747562408447 6.5
			vertex -3.888991594314575 5.820287227630615 6.5
			vertex -3.055636167526245 4.57308292388916 8
		endloop
	endfacet
	facet normal 0 0 1
		outer loop
			vertex -3.6955180168151855 1.5307337045669556 6.5
			vertex -3.325878381729126 2.222280979156494 6.5
			vertex -3.888991594314575 5.820287227630615 6.5
		endloop
	endfacet
	facet normal 0 0 1
		outer loop
			vertex -3.888991594314575 5.820287227630615 6.5
			vertex -3.325878381729126 2.222280979156494 6.5
			vertex -2.8284270763397217 2.8284270763397217 6.5
		endloop
	endfacet
	facet normal 0 0 1
		outer loop
			vertex -3.888991594314575 5.820287227630615 6.5
			vertex -2.8284270763397217 2.8284270763397217 6.5
			vertex -2.678784132003784 6.467156887054443 6.5
		endloop
	endfacet
	facet normal 0 0 1
		outer loop
			vertex -2.8284270763397217 2.8284270763397217 6.5
			vertex -2.222280979156494 3.325878381729126 6.5
			vertex -2.678784132003784 6.467156887054443 6.5
		endloop
	endfacet
	facet normal 0 0 1
		outer loop
			vertex -2.222280979156494 3.325878381729126 6.5
			vertex -1.5307337045669556 3.6955180168151855 6.5
			vertex -2.678784132003784 6.467156887054443 6.5
		endloop
	endfacet
	facet normal 0.3341313729752422 -0.6251157311390528 -0.7053981487615112
		outer loop
			vertex -3.888991594314575 5.820287227630615 6.5
			vertex -2.1047589778900146 5.0813374519348145 8
			vertex -3.055636167526245 4.57308292388916 8
		endloop
	endfacet
	facet normal 0.33413143282805263 -0.6251156589432253 -0.705398184389675
		outer loop
			vertex -3.888991594314575 5.820287227630615 6.5
			vertex -2.678784132003784 6.467156887054443 6.5
			vertex -2.1047589778900146 5.0813374519348145 8
		endloop
	endfacet
	facet normal 0.20575701610352184 -0.6782900865631316 -0.7053981916579845
		outer loop
			vertex -2.678784132003784 6.467156887054443 6.5
			vertex -1.072996735572815 5.3943190574646 8
			vertex -2.1047589778900146 5.0813374519348145 8
		endloop
	endfacet
	facet normal 0 0 1
		outer loop
			vertex -1.5307337045669556 3.6955180168151855 6.5
			vertex -0.7803612947463989 3.9231410026550293 6.5
			vertex -1.3656322956085205 6.86549711227417 6.5
		endloop
	endfacet
	facet normal 0 0 1
		outer loop
			vertex -0.7803612947463989 3.9231410026550293 6.5
			vertex 0 4 6.5
			vertex -1.3656322956085205 6.86549711227417 6.5
		endloop
	endfacet
	facet normal 0 0 1
		outer loop
			vertex -2.678784132003784 6.467156887054443 6.5
			vertex -1.5307337045669556 3.6955180168151855 6.5
			vertex -1.3656322956085205 6.86549711227417 6.5
		endloop
	endfacet
	facet normal 0 0 1
		outer loop
			vertex -1.3656322956085205 6.86549711227417 6.5
			vertex 0 4 6.5
			vertex 0 7 6.5
		endloop
	endfacet
	facet normal 0.20575702972697119 -0.6782900754955609 -0.7053981983264209
		outer loop
			vertex -2.678784132003784 6.467156887054443 6.5
			vertex -1.3656322956085205 6.86549711227417 6.5
			vertex -1.072996735572815 5.3943190574646 8
		endloop
	endfacet
	facet normal 0.06947557595718377 -0.705398165699847 -0.705398165699847
		outer loop
			vertex -1.3656322956085205 6.86549711227417 6.5
			vertex 0 7 6.5
			vertex 0 5.5 8
		endloop
	endfacet
	facet normal 0.06947564400208614 -0.705398129762952 -0.705398194934907
		outer loop
			vertex -1.3656322956085205 6.86549711227417 6.5
			vertex 0 5.5 8
			vertex -1.072996735572815 5.3943190574646 8
		endloop
	endfacet
	facet normal 0 0 1
		outer loop
			vertex 0 -7 6.5
			vertex 1.3656322956085205 -6.86549711227417 6.5
			vertex 0 -4 6.5
		endloop
	endfacet
	facet normal 0 0 1
		outer loop
			vertex 1.3656322956085205 -6.86549711227417 6.5
			vertex 2.678784132003784 -6.467156887054443 6.5
			vertex 1.5307337045669556 -3.6955180168151855 6.5
		endloop
	endfacet
	facet normal -0.06947557595718377 0.705398165699847 -0.705398165699847
		outer loop
			vertex 0 -7 6.5
			vertex 0 -5.5 8
			vertex 1.3656322956085205 -6.86549711227417 6.5
		endloop
	endfacet
	facet normal -0.06947564400208614 0.705398129762952 -0.705398194934907
		outer loop
			vertex 1.3656322956085205 -6.86549711227417 6.5
			vertex 0 -5.5 8
			vertex 1.072996735572815 -5.3943190574646 8
		endloop
	endfacet
	facet normal -0.20575702972697119 0.6782900754955609 -0.7053981983264209
		outer loop
			vertex 1.3656322956085205 -6.86549711227417 6.5
			vertex 1.072996735572815 -5.3943190574646 8
			vertex 2.678784132003784 -6.467156887054443 6.5
		endloop
	endfacet
	facet normal 0 0 1
		outer loop
			vertex 1.3656322956085205 -6.86549711227417 6.5
			vertex 0.7803612947463989 -3.9231410026550293 6.5
			vertex 0 -4 6.5
		endloop
	endfacet
	facet normal 0 0 1
		outer loop
			vertex 1.3656322956085205 -6.86549711227417 6.5
			vertex 1.5307337045669556 -3.6955180168151855 6.5
			vertex 0.7803612947463989 -3.9231410026550293 6.5
		endloop
	endfacet
	facet normal -0.20575701610352184 0.6782900865631316 -0.7053981916579845
		outer loop
			vertex 2.678784132003784 -6.467156887054443 6.5
			vertex 1.072996735572815 -5.3943190574646 8
			vertex 2.1047589778900146 -5.0813374519348145 8
		endloop
	endfacet
	facet normal -0.33413143282805263 0.6251156589432253 -0.705398184389675
		outer loop
			vertex 2.678784132003784 -6.467156887054443 6.5
			vertex 2.1047589778900146 -5.0813374519348145 8
			vertex 3.888991594314575 -5.820287227630615 6.5
		endloop
	endfacet
	facet normal 0 0 1
		outer loop
			vertex 1.5307337045669556 -3.6955180168151855 6.5
			vertex 2.678784132003784 -6.467156887054443 6.5
			vertex 2.222280979156494 -3.325878381729126 6.5
		endloop
	endfacet
	facet normal 0 0 1
		outer loop
			vertex 2.678784132003784 -6.467156887054443 6.5
			vertex 2.8284270763397217 -2.8284270763397217 6.5
			vertex 2.222280979156494 -3.325878381729126 6.5
		endloop
	endfacet
	facet normal 0 0 1
		outer loop
			vertex 2.678784132003784 -6.467156887054443 6.5
			vertex 3.888991594314575 -5.820287227630615 6.5
			vertex 2.8284270763397217 -2.8284270763397217 6.5
		endloop
	endfacet
	facet normal -0.3341313729752422 0.6251157311390528 -0.7053981487615112
		outer loop
			vertex 3.888991594314575 -5.820287227630615 6.5
			vertex 2.1047589778900146 -5.0813374519348145 8
			vertex 3.055636167526245 -4.57308292388916 8
		endloop
	endfacet
	facet normal 0 0 1
		outer loop
			vertex 2.8284270763397217 -2.8284270763397217 6.5
			vertex 3.888991594314575 -5.820287227630615 6.5
			vertex 3.325878381729126 -2.222280979156494 6.5
		endloop
	endfacet
	facet normal 0 0 1
		outer loop
			vertex 3.325878381729126 -2.222280979156494 6.5
			vertex 3.888991594314575 -5.820287227630615 6.5
			vertex 3.6955180168151855 -1.5307337045669556 6.5
		endloop
	endfacet
	facet normal -0.44966503941489033 0.5479185995284673 -0.7053981575101883
		outer loop
			vertex 3.888991594314575 -5.820287227630615 6.5
			vertex 3.055636167526245 -4.57308292388916 8
			vertex 4.949747562408447 -4.949747562408447 6.5
		endloop
	endfacet
	facet normal -0.4496651288281177 0.5479184342303967 -0.7053982289079714
		outer loop
			vertex 4.949747562408447 -4.949747562408447 6.5
			vertex 3.055636167526245 -4.57308292388916 8
			vertex 3.889087200164795 -3.889087200164795 8
		endloop
	endfacet
	facet normal -0.5479185511940435 0.4496649997478656 -0.7053982203402362
		outer loop
			vertex 4.949747562408447 -4.949747562408447 6.5
			vertex 3.889087200164795 -3.889087200164795 8
			vertex 5.820287227630615 -3.888991594314575 6.5
		endloop
	endfacet
	facet normal 0 0 1
		outer loop
			vertex 3.888991594314575 -5.820287227630615 6.5
			vertex 3.9231410026550293 -0.7803612947463989 6.5
			vertex 3.6955180168151855 -1.5307337045669556 6.5
		endloop
	endfacet
	facet normal 0 0 1
		outer loop
			vertex 3.888991594314575 -5.820287227630615 6.5
			vertex 4.949747562408447 -4.949747562408447 6.5
			vertex 4.949747562408447 4.949747562408447 6.5
		endloop
	endfacet
	facet normal -0.6251156864607651 0.3341314475364907 -0.70539815303689
		outer loop
			vertex 5.820287227630615 -3.888991594314575 6.5
			vertex 4.57308292388916 -3.055636167526245 8
			vertex 6.467156887054443 -2.678784132003784 6.5
		endloop
	endfacet
	facet normal -0.5479184957469175 0.4496651793134318 -0.7053981489424638
		outer loop
			vertex 5.820287227630615 -3.888991594314575 6.5
			vertex 3.889087200164795 -3.889087200164795 8
			vertex 4.57308292388916 -3.055636167526245 8
		endloop
	endfacet
	facet normal -0.6251156961167211 0.33413135425541285 -0.7053981886650625
		outer loop
			vertex 6.467156887054443 -2.678784132003784 6.5
			vertex 4.57308292388916 -3.055636167526245 8
			vertex 5.0813374519348145 -2.1047589778900146 8
		endloop
	endfacet
	facet normal 0 0 1
		outer loop
			vertex 3.888991594314575 -5.820287227630615 6.5
			vertex 4.949747562408447 4.949747562408447 6.5
			vertex 3.9231410026550293 -0.7803612947463989 6.5
		endloop
	endfacet
	facet normal 0 0 1
		outer loop
			vertex 4.949747562408447 -4.949747562408447 6.5
			vertex 5.820287227630615 -3.888991594314575 6.5
			vertex 5.820287227630615 3.888991594314575 6.5
		endloop
	endfacet
	facet normal -0.6782900810840614 0.20575703142222415 -0.7053981924581968
		outer loop
			vertex 6.467156887054443 -2.678784132003784 6.5
			vertex 5.0813374519348145 -2.1047589778900146 8
			vertex 6.86549711227417 -1.3656322956085205 6.5
		endloop
	endfacet
	facet normal 0 0 1
		outer loop
			vertex 5.820287227630615 -3.888991594314575 6.5
			vertex 6.467156887054443 -2.678784132003784 6.5
			vertex 6.467156887054443 2.678784132003784 6.5
		endloop
	endfacet
	facet normal 0 0 1
		outer loop
			vertex 6.467156887054443 -2.678784132003784 6.5
			vertex 6.86549711227417 -1.3656322956085205 6.5
			vertex 6.86549711227417 1.3656322956085205 6.5
		endloop
	endfacet
	facet normal -0.678290079450495 0.2057570139459275 -0.7053981991266328
		outer loop
			vertex 6.86549711227417 -1.3656322956085205 6.5
			vertex 5.0813374519348145 -2.1047589778900146 8
			vertex 5.3943190574646 -1.072996735572815 8
		endloop
	endfacet
	facet normal -0.705398140220163 0.0694755734476568 -0.7053981914266966
		outer loop
			vertex 6.86549711227417 -1.3656322956085205 6.5
			vertex 5.3943190574646 -1.072996735572815 8
			vertex 7 0 6.5
		endloop
	endfacet
	facet normal -0.7053981621916421 0.06947564719603297 -0.7053981621916421
		outer loop
			vertex 7 0 6.5
			vertex 5.3943190574646 -1.072996735572815 8
			vertex 5.5 0 8
		endloop
	endfacet
	facet normal 0 0 1
		outer loop
			vertex 3.325878381729126 2.222280979156494 6.5
			vertex 3.6955180168151855 1.5307337045669556 6.5
			vertex 3.888991594314575 5.820287227630615 6.5
		endloop
	endfacet
	facet normal 0 0 1
		outer loop
			vertex 3.325878381729126 2.222280979156494 6.5
			vertex 3.888991594314575 5.820287227630615 6.5
			vertex 2.8284270763397217 2.8284270763397217 6.5
		endloop
	endfacet
	facet normal 0 0 1
		outer loop
			vertex 0 4 6.5
			vertex 0.7803612947463989 3.9231410026550293 6.5
			vertex 0 7 6.5
		endloop
	endfacet
	facet normal 0 0 1
		outer loop
			vertex 0.7803612947463989 3.9231410026550293 6.5
			vertex 1.5307337045669556 3.6955180168151855 6.5
			vertex 1.3656322956085205 6.86549711227417 6.5
		endloop
	endfacet
	facet normal 0 0 1
		outer loop
			vertex 0.7803612947463989 3.9231410026550293 6.5
			vertex 1.3656322956085205 6.86549711227417 6.5
			vertex 0 7 6.5
		endloop
	endfacet
	facet normal 0 0 1
		outer loop
			vertex 1.5307337045669556 3.6955180168151855 6.5
			vertex 2.678784132003784 6.467156887054443 6.5
			vertex 1.3656322956085205 6.86549711227417 6.5
		endloop
	endfacet
	facet normal -0.0694755734476568 -0.705398140220163 -0.7053981914266966
		outer loop
			vertex 0 7 6.5
			vertex 1.3656322956085205 6.86549711227417 6.5
			vertex 1.072996735572815 5.3943190574646 8
		endloop
	endfacet
	facet normal -0.06947564719603297 -0.7053981621916421 -0.7053981621916421
		outer loop
			vertex 0 7 6.5
			vertex 1.072996735572815 5.3943190574646 8
			vertex 0 5.5 8
		endloop
	endfacet
	facet normal -0.2057570139459275 -0.678290079450495 -0.7053981991266328
		outer loop
			vertex 1.3656322956085205 6.86549711227417 6.5
			vertex 2.1047589778900146 5.0813374519348145 8
			vertex 1.072996735572815 5.3943190574646 8
		endloop
	endfacet
	facet normal 0 0 1
		outer loop
			vertex 2.222280979156494 3.325878381729126 6.5
			vertex 2.678784132003784 6.467156887054443 6.5
			vertex 1.5307337045669556 3.6955180168151855 6.5
		endloop
	endfacet
	facet normal 0 0 1
		outer loop
			vertex 2.222280979156494 3.325878381729126 6.5
			vertex 2.8284270763397217 2.8284270763397217 6.5
			vertex 2.678784132003784 6.467156887054443 6.5
		endloop
	endfacet
	facet normal 0 0 1
		outer loop
			vertex 2.8284270763397217 2.8284270763397217 6.5
			vertex 3.888991594314575 5.820287227630615 6.5
			vertex 2.678784132003784 6.467156887054443 6.5
		endloop
	endfacet
	facet normal -0.33413135425541285 -0.6251156961167211 -0.7053981886650625
		outer loop
			vertex 2.678784132003784 6.467156887054443 6.5
			vertex 3.055636167526245 4.57308292388916 8
			vertex 2.1047589778900146 5.0813374519348145 8
		endloop
	endfacet
	facet normal -0.3341314475364907 -0.6251156864607651 -0.70539815303689
		outer loop
			vertex 2.678784132003784 6.467156887054443 6.5
			vertex 3.888991594314575 5.820287227630615 6.5
			vertex 3.055636167526245 4.57308292388916 8
		endloop
	endfacet
	facet normal -0.4496651793134318 -0.5479184957469175 -0.7053981489424638
		outer loop
			vertex 3.888991594314575 5.820287227630615 6.5
			vertex 3.889087200164795 3.889087200164795 8
			vertex 3.055636167526245 4.57308292388916 8
		endloop
	endfacet
	facet normal -0.20575703142222415 -0.6782900810840614 -0.7053981924581968
		outer loop
			vertex 1.3656322956085205 6.86549711227417 6.5
			vertex 2.678784132003784 6.467156887054443 6.5
			vertex 2.1047589778900146 5.0813374519348145 8
		endloop
	endfacet
	facet normal 0 0 1
		outer loop
			vertex 3.9231410026550293 -0.7803612947463989 6.5
			vertex 4.949747562408447 4.949747562408447 6.5
			vertex 4 0 6.5
		endloop
	endfacet
	facet normal 0 0 1
		outer loop
			vertex 4.949747562408447 -4.949747562408447 6.5
			vertex 5.820287227630615 3.888991594314575 6.5
			vertex 4.949747562408447 4.949747562408447 6.5
		endloop
	endfacet
	facet normal 0 0 1
		outer loop
			vertex 3.9231410026550293 0.7803612947463989 6.5
			vertex 3.888991594314575 5.820287227630615 6.5
			vertex 3.6955180168151855 1.5307337045669556 6.5
		endloop
	endfacet
	facet normal 0 0 1
		outer loop
			vertex 3.9231410026550293 0.7803612947463989 6.5
			vertex 4 0 6.5
			vertex 4.949747562408447 4.949747562408447 6.5
		endloop
	endfacet
	facet normal -0.6251157311390528 -0.3341313729752422 -0.7053981487615112
		outer loop
			vertex 5.820287227630615 3.888991594314575 6.5
			vertex 5.0813374519348145 2.1047589778900146 8
			vertex 4.57308292388916 3.055636167526245 8
		endloop
	endfacet
	facet normal 0 0 1
		outer loop
			vertex 5.820287227630615 -3.888991594314575 6.5
			vertex 6.467156887054443 2.678784132003784 6.5
			vertex 5.820287227630615 3.888991594314575 6.5
		endloop
	endfacet
	facet normal 0 0 1
		outer loop
			vertex 6.467156887054443 -2.678784132003784 6.5
			vertex 6.86549711227417 1.3656322956085205 6.5
			vertex 6.467156887054443 2.678784132003784 6.5
		endloop
	endfacet
	facet normal 0 0 1
		outer loop
			vertex 6.86549711227417 -1.3656322956085205 6.5
			vertex 7 0 6.5
			vertex 6.86549711227417 1.3656322956085205 6.5
		endloop
	endfacet
	facet normal -0.705398165699847 -0.06947557595718377 -0.705398165699847
		outer loop
			vertex 7 0 6.5
			vertex 5.5 0 8
			vertex 6.86549711227417 1.3656322956085205 6.5
		endloop
	endfacet
	facet normal -0.705398129762952 -0.06947564400208614 -0.705398194934907
		outer loop
			vertex 6.86549711227417 1.3656322956085205 6.5
			vertex 5.5 0 8
			vertex 5.3943190574646 1.072996735572815 8
		endloop
	endfacet
	facet normal -0.6782900754955609 -0.20575702972697119 -0.7053981983264209
		outer loop
			vertex 6.86549711227417 1.3656322956085205 6.5
			vertex 5.3943190574646 1.072996735572815 8
			vertex 6.467156887054443 2.678784132003784 6.5
		endloop
	endfacet
	facet normal -0.6782900865631316 -0.20575701610352184 -0.7053981916579845
		outer loop
			vertex 6.467156887054443 2.678784132003784 6.5
			vertex 5.3943190574646 1.072996735572815 8
			vertex 5.0813374519348145 2.1047589778900146 8
		endloop
	endfacet
	facet normal -0.6251156589432253 -0.33413143282805263 -0.705398184389675
		outer loop
			vertex 6.467156887054443 2.678784132003784 6.5
			vertex 5.0813374519348145 2.1047589778900146 8
			vertex 5.820287227630615 3.888991594314575 6.5
		endloop
	endfacet
	facet normal 0 0 1
		outer loop
			vertex 3.9231410026550293 0.7803612947463989 6.5
			vertex 4.949747562408447 4.949747562408447 6.5
			vertex 3.888991594314575 5.820287227630615 6.5
		endloop
	endfacet
	facet normal -0.5479184342303967 -0.4496651288281177 -0.7053982289079714
		outer loop
			vertex 4.949747562408447 4.949747562408447 6.5
			vertex 4.57308292388916 3.055636167526245 8
			vertex 3.889087200164795 3.889087200164795 8
		endloop
	endfacet
	facet normal -0.4496649997478656 -0.5479185511940435 -0.7053982203402362
		outer loop
			vertex 4.949747562408447 4.949747562408447 6.5
			vertex 3.889087200164795 3.889087200164795 8
			vertex 3.888991594314575 5.820287227630615 6.5
		endloop
	endfacet
	facet normal -0.5479185995284673 -0.44966503941489033 -0.7053981575101883
		outer loop
			vertex 4.949747562408447 4.949747562408447 6.5
			vertex 5.820287227630615 3.888991594314575 6.5
			vertex 4.57308292388916 3.055636167526245 8
		endloop
	endfacet
endsolid exported
