o 
usemtl boolean-difference-sphere-crescent-material
v -9.056506156921387 -11.526745796203613 -3.1802220344543457
v -9.535662651062012 -9.535662651062012 -6.5682783126831055
v -11.526745796203613 -9.056506156921387 -3.1802220344543457
v -9.535662651062012 -6.5682783126831055 -9.535662651062012
v -9.056506156921387 -3.1802220344543457 -11.526745796203613
v -11.526745796203613 -3.1802220344543457 -9.056506156921387
v -11.911567687988281 -6.446493625640869 -6.446493625640869
v -13.326715469360352 -6.133613586425781 -3.1268889904022217
v -13.326715469360352 -3.1268889904022217 -6.133613586425781
v -14.372797012329102 -3.0350208282470703 -3.0350208282470703
v -6.5682783126831055 -9.535662651062012 -9.535662651062012
v -3.1802220344543457 -11.526745796203613 -9.056506156921387
v -3.1802220344543457 -9.056506156921387 -11.526745796203613
v -6.446493625640869 -11.911567687988281 -6.446493625640869
v -6.133613586425781 -13.326715469360352 -3.1268889904022217
v -3.1268889904022217 -13.326715469360352 -6.133613586425781
v -3.0350208282470703 -14.372797012329102 -3.0350208282470703
v -6.446493625640869 -6.446493625640869 -11.911567687988281
v -6.133613586425781 -3.1268889904022217 -13.326715469360352
v -3.1268889904022217 -6.133613586425781 -13.326715469360352
v -3.0350208282470703 -3.0350208282470703 -14.372797012329102
v -12.472043991088867 -8.333553314208984 9.184850467946473e-16
v -9.056506156921387 -11.526745796203613 3.1802220344543457
v -10.60660171508789 -10.60660171508789 9.184850467946473e-16
v -11.526745796203613 -9.056506156921387 3.1802220344543457
v -9.535662651062012 -9.535662651062012 6.5682783126831055
v -13.858193397521973 -5.740251541137695 9.184850467946473e-16
v -13.326715469360352 -6.133613586425781 3.1268889904022217
v -11.911567687988281 -6.446493625640869 6.446493625640869
v -14.711779594421387 -2.9263548851013184 9.184850467946473e-16
v -14.372797012329102 -3.0350208282470703 3.0350208282470703
v -13.326715469360352 -3.1268889904022217 6.133613586425781
v -9.535662651062012 -6.5682783126831055 9.535662651062012
v -11.526745796203613 -3.1802220344543457 9.056506156921387
v -9.056506156921387 -3.1802220344543457 11.526745796203613
v -8.333553314208984 -12.472043991088867 9.184850467946473e-16
v -5.740251541137695 -13.858193397521973 9.184850467946473e-16
v -6.133613586425781 -13.326715469360352 3.1268889904022217
v -6.446493625640869 -11.911567687988281 6.446493625640869
v -2.9263548851013184 -14.711779594421387 9.184850467946473e-16
v -3.0350208282470703 -14.372797012329102 3.0350208282470703
v -3.1268889904022217 -13.326715469360352 6.133613586425781
v -6.5682783126831055 -9.535662651062012 9.535662651062012
v -3.1802220344543457 -11.526745796203613 9.056506156921387
v -3.1802220344543457 -9.056506156921387 11.526745796203613
v -6.446493625640869 -6.446493625640869 11.911567687988281
v -6.133613586425781 -3.1268889904022217 13.326715469360352
v -3.1268889904022217 -6.133613586425781 13.326715469360352
v -3.0350208282470703 -3.0350208282470703 14.372797012329102
v -12.472043991088867 9.184850467946473e-16 -8.333553314208984
v -9.056506156921387 3.1802220344543457 -11.526745796203613
v -10.60660171508789 9.184850467946473e-16 -10.60660171508789
v -11.526745796203613 3.1802220344543457 -9.056506156921387
v -9.535662651062012 6.5682783126831055 -9.535662651062012
v -13.858193397521973 9.184850467946473e-16 -5.740251541137695
v -13.326715469360352 3.1268889904022217 -6.133613586425781
v -14.711779594421387 9.184850467946473e-16 -2.9263548851013184
v -14.372797012329102 3.0350208282470703 -3.0350208282470703
v -11.911567687988281 6.446493625640869 -6.446493625640869
v -13.326715469360352 6.133613586425781 -3.1268889904022217
v -9.535662651062012 9.535662651062012 -6.5682783126831055
v -11.526745796203613 9.056506156921387 -3.1802220344543457
v -9.056506156921387 11.526745796203613 -3.1802220344543457
v -8.333553314208984 9.184850467946473e-16 -12.472043991088867
v -5.740251541137695 9.184850467946473e-16 -13.858193397521973
v -6.133613586425781 3.1268889904022217 -13.326715469360352
v -6.446493625640869 6.446493625640869 -11.911567687988281
v -2.9263548851013184 9.184850467946473e-16 -14.711779594421387
v -3.0350208282470703 3.0350208282470703 -14.372797012329102
v -3.1268889904022217 6.133613586425781 -13.326715469360352
v -6.5682783126831055 9.535662651062012 -9.535662651062012
v -3.1802220344543457 9.056506156921387 -11.526745796203613
v -3.1802220344543457 11.526745796203613 -9.056506156921387
v -6.446493625640869 11.911567687988281 -6.446493625640869
v -6.133613586425781 13.326715469360352 -3.1268889904022217
v -3.1268889904022217 13.326715469360352 -6.133613586425781
v -3.0350208282470703 14.372797012329102 -3.0350208282470703
v -15 9.184850467946473e-16 9.184850467946473e-16
v -14.711779594421387 9.184850467946473e-16 2.9263548851013184
v -14.711779594421387 2.9263548851013184 9.184850467946473e-16
v -14.372797012329102 3.0350208282470703 3.0350208282470703
v -13.858193397521973 9.184850467946473e-16 5.740251541137695
v -13.326715469360352 3.1268889904022217 6.133613586425781
v -13.858193397521973 5.740251541137695 9.184850467946473e-16
v -13.326715469360352 6.133613586425781 3.1268889904022217
v -11.911567687988281 6.446493625640869 6.446493625640869
v -12.472043991088867 9.184850467946473e-16 8.333553314208984
v -10.60660171508789 9.184850467946473e-16 10.60660171508789
v -11.526745796203613 3.1802220344543457 9.056506156921387
v -9.056506156921387 3.1802220344543457 11.526745796203613
v -9.535662651062012 6.5682783126831055 9.535662651062012
v -12.472043991088867 8.333553314208984 9.184850467946473e-16
v -11.526745796203613 9.056506156921387 3.1802220344543457
v -10.60660171508789 10.60660171508789 9.184850467946473e-16
v -9.535662651062012 9.535662651062012 6.5682783126831055
v -9.056506156921387 11.526745796203613 3.1802220344543457
v -8.333553314208984 9.184850467946473e-16 12.472043991088867
v -5.740251541137695 9.184850467946473e-16 13.858193397521973
v -6.133613586425781 3.1268889904022217 13.326715469360352
v -6.446493625640869 6.446493625640869 11.911567687988281
v -2.9263548851013184 9.184850467946473e-16 14.711779594421387
v -3.0350208282470703 3.0350208282470703 14.372797012329102
v -3.1268889904022217 6.133613586425781 13.326715469360352
v -8.333553314208984 12.472043991088867 9.184850467946473e-16
v -5.740251541137695 13.858193397521973 9.184850467946473e-16
v -6.133613586425781 13.326715469360352 3.1268889904022217
v -6.446493625640869 11.911567687988281 6.446493625640869
v -2.9263548851013184 14.711779594421387 9.184850467946473e-16
v -3.0350208282470703 14.372797012329102 3.0350208282470703
v -3.1268889904022217 13.326715469360352 6.133613586425781
v -6.5682783126831055 9.535662651062012 9.535662651062012
v -3.1802220344543457 9.056506156921387 11.526745796203613
v -3.1802220344543457 11.526745796203613 9.056506156921387
v 9.184850467946473e-16 -12.472043991088867 -8.333553314208984
v 9.184850467946473e-16 -8.333553314208984 -12.472043991088867
v 9.184850467946473e-16 -10.60660171508789 -10.60660171508789
v 3.1802220344543457 -11.526745796203613 -9.056506156921387
v 3.1802220344543457 -9.056506156921387 -11.526745796203613
v 9.184850467946473e-16 -13.858193397521973 -5.740251541137695
v 9.184850467946473e-16 -14.711779594421387 -2.9263548851013184
v 3.1268889904022217 -13.326715469360352 -6.133613586425781
v 3.0350208282470703 -14.372797012329102 -3.0350208282470703
v 9.184850467946473e-16 -5.740251541137695 -13.858193397521973
v 9.184850467946473e-16 -2.9263548851013184 -14.711779594421387
v 3.1268889904022217 -6.133613586425781 -13.326715469360352
v 3.0350208282470703 -3.0350208282470703 -14.372797012329102
v 4.058955192565918 -4.297662734985352 -4.297662734985352
v 4.315502643585205 -6.037671089172363 -2.120148181915283
v 3.115522861480713 -4.089075565338135 -2.084592819213867
v 4.315502643585205 -2.120148181915283 -6.037671089172363
v 3.115522861480713 -2.084592819213867 -4.089075565338135
v 2.418135166168213 -2.0233471393585205 -2.0233471393585205
v 6.5682783126831055 -9.535662651062012 -9.535662651062012
v 6.446493625640869 -11.911567687988281 -6.446493625640869
v 6.133613586425781 -13.326715469360352 -3.1268889904022217
v 7.702337265014648 -7.941044807434082 -4.297662734985352
v 5.962328910827637 -7.684497356414795 -2.120148181915283
v 7.910924434661865 -8.884476661682129 -2.084592819213867
v 9.056506156921387 -11.526745796203613 -3.1802220344543457
v 9.535662651062012 -9.535662651062012 -6.5682783126831055
v 9.879852294921875 -7.684497356414795 -6.037671089172363
v 11.0473051071167 -8.031514167785645 -5.772276401519775
v 9.915407180786133 -8.884476661682129 -4.089075565338135
v 11.064367294311523 -8.57043170928955 -4.897433280944824
v 11.166343688964844 -9.143237113952637 -3.793487548828125
v 11.136392593383789 -9.092007637023926 -3.935476064682007
v 9.976653099060059 -9.581864356994629 -2.0233471393585205
v 11.111810684204102 -9.708650588989258 -1.9827039241790771
v 11.126851081848145 -9.730178833007812 -1.798095703125
v 11.141240119934082 -9.807852745056152 -1.092143177986145
v 11.227479934692383 -9.355772018432617 -3.1802220344543457
v 11.221824645996094 -9.370738983154297 -3.133216619491577
v 6.446493625640869 -6.446493625640869 -11.911567687988281
v 7.702337265014648 -4.297662734985352 -7.941044807434082
v 6.133613586425781 -3.1268889904022217 -13.326715469360352
v 5.962328910827637 -2.120148181915283 -7.684497356414795
v 7.910924434661865 -2.084592819213867 -8.884476661682129
v 9.535662651062012 -6.5682783126831055 -9.535662651062012
v 9.879852294921875 -6.037671089172363 -7.684497356414795
v 11.0473051071167 -5.772276401519775 -8.031514167785645
v 9.915407180786133 -4.089075565338135 -8.884476661682129
v 11.064367294311523 -4.897433280944824 -8.57043170928955
v 11.166343688964844 -3.793487548828125 -9.143237113952637
v 11.136392593383789 -3.935476064682007 -9.092007637023926
v 9.056506156921387 -3.1802220344543457 -11.526745796203613
v 9.976653099060059 -2.0233471393585205 -9.581864356994629
v 11.111810684204102 -1.9827039241790771 -9.708650588989258
v 11.227479934692383 -3.1802220344543457 -9.355772018432617
v 11.221824645996094 -3.133216619491577 -9.370738983154297
v 11.126851081848145 -1.798095703125 -9.730178833007812
v 11.141240119934082 -1.092143177986145 -9.807852745056152
v 5.642891883850098 -6.357108116149902 -4.378852367401123
v 5.642891883850098 -4.378852367401123 -6.357108116149902
v 7.621147632598877 -6.357108116149902 -6.357108116149902
v 11.116735458374023 -7.326625823974609 -6.640549659729004
v 11.116735458374023 -6.640549659729004 -7.326625823974609
v 11.13565731048584 -7.4553375244140625 -6.486265659332275
v 11.13565731048584 -6.486265659332275 -7.4553375244140625
v 9.184850467946473e-16 -15 9.184850467946473e-16
v 9.184850467946473e-16 -14.711779594421387 2.9263548851013184
v 9.184850467946473e-16 -13.858193397521973 5.740251541137695
v 2.9263548851013184 -14.711779594421387 9.184850467946473e-16
v 3.0350208282470703 -14.372797012329102 3.0350208282470703
v 3.1268889904022217 -13.326715469360352 6.133613586425781
v 9.184850467946473e-16 -12.472043991088867 8.333553314208984
v 9.184850467946473e-16 -10.60660171508789 10.60660171508789
v 9.184850467946473e-16 -8.333553314208984 12.472043991088867
v 3.1802220344543457 -11.526745796203613 9.056506156921387
v 3.1802220344543457 -9.056506156921387 11.526745796203613
v 2.761204719543457 -3.8268344402313232 6.123233998228043e-16
v 4.315502643585205 -6.037671089172363 2.120148181915283
v 3.6853039264678955 -5.555702209472656 6.123233998228043e-16
v 3.115522861480713 -4.089075565338135 2.084592819213867
v 4.058955192565918 -4.297662734985352 4.297662734985352
v 2.1921472549438477 -1.9509031772613525 6.123233998228043e-16
v 2.418135166168213 -2.0233471393585205 2.0233471393585205
v 3.115522861480713 -2.084592819213867 4.089075565338135
v 4.315502643585205 -2.120148181915283 6.037671089172363
v 9.184850467946473e-16 -5.740251541137695 13.858193397521973
v 9.184850467946473e-16 -2.9263548851013184 14.711779594421387
v 3.1268889904022217 -6.133613586425781 13.326715469360352
v 3.0350208282470703 -3.0350208282470703 14.372797012329102
v 5.740251541137695 -13.858193397521973 9.184850467946473e-16
v 6.133613586425781 -13.326715469360352 3.1268889904022217
v 6.446493625640869 -11.911567687988281 6.446493625640869
v 5.962328910827637 -7.684497356414795 2.120148181915283
v 6.444297790527344 -8.314696311950684 6.123233998228043e-16
v 7.910924434661865 -8.884476661682129 2.084592819213867
v 7.702337265014648 -7.941044807434082 4.297662734985352
v 8.333553314208984 -12.472043991088867 9.184850467946473e-16
v 9.056506156921387 -11.526745796203613 3.1802220344543457
v 8.173165321350098 -9.238795280456543 6.123233998228043e-16
v 10.049097061157227 -9.807852745056152 6.123233998228043e-16
v 10.60660171508789 -10.60660171508789 9.184850467946473e-16
v 11.171401977539062 -9.918390274047852 9.184850467946473e-16
v 11.141240119934082 -9.807852745056152 1.092143177986145
v 11.126851081848145 -9.730178833007812 1.798095703125
v 9.976653099060059 -9.581864356994629 2.0233471393585205
v 11.111810684204102 -9.708650588989258 1.9827039241790771
v 11.221824645996094 -9.370738983154297 3.133216619491577
v 11.227479934692383 -9.355772018432617 3.1802220344543457
v 9.535662651062012 -9.535662651062012 6.5682783126831055
v 9.915407180786133 -8.884476661682129 4.089075565338135
v 11.166343688964844 -9.143237113952637 3.793487548828125
v 11.136392593383789 -9.092007637023926 3.935476064682007
v 11.064367294311523 -8.57043170928955 4.897433280944824
v 9.879852294921875 -7.684497356414795 6.037671089172363
v 11.0473051071167 -8.031514167785645 5.772276401519775
v 6.5682783126831055 -9.535662651062012 9.535662651062012
v 4.928932189941406 -7.071067810058594 6.123233998228043e-16
v 5.642891883850098 -6.357108116149902 4.378852367401123
v 5.642891883850098 -4.378852367401123 6.357108116149902
v 7.621147632598877 -6.357108116149902 6.357108116149902
v 11.13565731048584 -7.4553375244140625 6.486265659332275
v 11.116735458374023 -7.326625823974609 6.640549659729004
v 11.116735458374023 -6.640549659729004 7.326625823974609
v 11.13565731048584 -6.486265659332275 7.4553375244140625
v 7.702337265014648 -4.297662734985352 7.941044807434082
v 6.446493625640869 -6.446493625640869 11.911567687988281
v 5.962328910827637 -2.120148181915283 7.684497356414795
v 7.910924434661865 -2.084592819213867 8.884476661682129
v 6.133613586425781 -3.1268889904022217 13.326715469360352
v 9.535662651062012 -6.5682783126831055 9.535662651062012
v 9.879852294921875 -6.037671089172363 7.684497356414795
v 11.0473051071167 -5.772276401519775 8.031514167785645
v 9.915407180786133 -4.089075565338135 8.884476661682129
v 11.064367294311523 -4.897433280944824 8.57043170928955
v 11.136392593383789 -3.935476064682007 9.092007637023926
v 11.166343688964844 -3.793487548828125 9.143237113952637
v 11.227479934692383 -3.1802220344543457 9.355772018432617
v 11.221824645996094 -3.133216619491577 9.370738983154297
v 9.976653099060059 -2.0233471393585205 9.581864356994629
v 11.111810684204102 -1.9827039241790771 9.708650588989258
v 11.126851081848145 -1.798095703125 9.730178833007812
v 11.141240119934082 -1.092143177986145 9.807852745056152
v 9.056506156921387 -3.1802220344543457 11.526745796203613
v 9.184850467946473e-16 9.184850467946473e-16 -15
v 9.184850467946473e-16 2.9263548851013184 -14.711779594421387
v 9.184850467946473e-16 5.740251541137695 -13.858193397521973
v 2.9263548851013184 9.184850467946473e-16 -14.711779594421387
v 3.0350208282470703 3.0350208282470703 -14.372797012329102
v 3.1268889904022217 6.133613586425781 -13.326715469360352
v 2.761204719543457 6.123233998228043e-16 -3.8268344402313232
v 3.6853039264678955 6.123233998228043e-16 -5.555702209472656
v 4.315502643585205 2.120148181915283 -6.037671089172363
v 3.115522861480713 2.084592819213867 -4.089075565338135
v 2.1921472549438477 6.123233998228043e-16 -1.9509031772613525
v 2.418135166168213 2.0233471393585205 -2.0233471393585205
v 4.058955192565918 4.297662734985352 -4.297662734985352
v 3.115522861480713 4.089075565338135 -2.084592819213867
v 4.315502643585205 6.037671089172363 -2.120148181915283
v 9.184850467946473e-16 8.333553314208984 -12.472043991088867
v 9.184850467946473e-16 10.60660171508789 -10.60660171508789
v 9.184850467946473e-16 12.472043991088867 -8.333553314208984
v 3.1802220344543457 9.056506156921387 -11.526745796203613
v 3.1802220344543457 11.526745796203613 -9.056506156921387
v 9.184850467946473e-16 13.858193397521973 -5.740251541137695
v 9.184850467946473e-16 14.711779594421387 -2.9263548851013184
v 3.1268889904022217 13.326715469360352 -6.133613586425781
v 3.0350208282470703 14.372797012329102 -3.0350208282470703
v 5.740251541137695 9.184850467946473e-16 -13.858193397521973
v 6.133613586425781 3.1268889904022217 -13.326715469360352
v 5.962328910827637 2.120148181915283 -7.684497356414795
v 6.444297790527344 6.123233998228043e-16 -8.314696311950684
v 7.910924434661865 2.084592819213867 -8.884476661682129
v 6.446493625640869 6.446493625640869 -11.911567687988281
v 7.702337265014648 4.297662734985352 -7.941044807434082
v 8.333553314208984 9.184850467946473e-16 -12.472043991088867
v 9.056506156921387 3.1802220344543457 -11.526745796203613
v 8.173165321350098 6.123233998228043e-16 -9.238795280456543
v 10.049097061157227 6.123233998228043e-16 -9.807852745056152
v 10.60660171508789 9.184850467946473e-16 -10.60660171508789
v 11.171401977539062 6.123233998228043e-16 -9.918390274047852
v 11.141240119934082 1.092143177986145 -9.807852745056152
v 11.126851081848145 1.798095703125 -9.730178833007812
v 9.976653099060059 2.0233471393585205 -9.581864356994629
v 11.111810684204102 1.9827039241790771 -9.708650588989258
v 11.221824645996094 3.133216619491577 -9.370738983154297
v 11.227479934692383 3.1802220344543457 -9.355772018432617
v 9.535662651062012 6.5682783126831055 -9.535662651062012
v 9.915407180786133 4.089075565338135 -8.884476661682129
v 11.166343688964844 3.793487548828125 -9.143237113952637
v 11.136392593383789 3.935476064682007 -9.092007637023926
v 11.064367294311523 4.897433280944824 -8.57043170928955
v 9.879852294921875 6.037671089172363 -7.684497356414795
v 11.0473051071167 5.772276401519775 -8.031514167785645
v 4.928932189941406 6.123233998228043e-16 -7.071067810058594
v 5.642891883850098 4.378852367401123 -6.357108116149902
v 5.642891883850098 6.357108116149902 -4.378852367401123
v 7.621147632598877 6.357108116149902 -6.357108116149902
v 11.13565731048584 6.486265659332275 -7.4553375244140625
v 11.116735458374023 6.640549659729004 -7.326625823974609
v 11.116735458374023 7.326625823974609 -6.640549659729004
v 11.13565731048584 7.4553375244140625 -6.486265659332275
v 6.5682783126831055 9.535662651062012 -9.535662651062012
v 7.702337265014648 7.941044807434082 -4.297662734985352
v 5.962328910827637 7.684497356414795 -2.120148181915283
v 7.910924434661865 8.884476661682129 -2.084592819213867
v 6.446493625640869 11.911567687988281 -6.446493625640869
v 6.133613586425781 13.326715469360352 -3.1268889904022217
v 9.535662651062012 9.535662651062012 -6.5682783126831055
v 9.879852294921875 7.684497356414795 -6.037671089172363
v 11.0473051071167 8.031514167785645 -5.772276401519775
v 9.915407180786133 8.884476661682129 -4.089075565338135
v 11.064367294311523 8.57043170928955 -4.897433280944824
v 11.136392593383789 9.092007637023926 -3.935476064682007
v 11.166343688964844 9.143237113952637 -3.793487548828125
v 11.227479934692383 9.355772018432617 -3.1802220344543457
v 11.221824645996094 9.370738983154297 -3.133216619491577
v 9.976653099060059 9.581864356994629 -2.0233471393585205
v 11.111810684204102 9.708650588989258 -1.9827039241790771
v 11.126851081848145 9.730178833007812 -1.798095703125
v 11.141240119934082 9.807852745056152 -1.092143177986145
v 9.056506156921387 11.526745796203613 -3.1802220344543457
v 2 6.123233998228043e-16 6.123233998228043e-16
v 2.1921472549438477 6.123233998228043e-16 1.9509031772613525
v 2.1921472549438477 1.9509031772613525 6.123233998228043e-16
v 2.418135166168213 2.0233471393585205 2.0233471393585205
v 2.761204719543457 6.123233998228043e-16 3.8268344402313232
v 3.6853039264678955 6.123233998228043e-16 5.555702209472656
v 3.115522861480713 2.084592819213867 4.089075565338135
v 4.315502643585205 2.120148181915283 6.037671089172363
v 2.761204719543457 3.8268344402313232 6.123233998228043e-16
v 3.6853039264678955 5.555702209472656 6.123233998228043e-16
v 3.115522861480713 4.089075565338135 2.084592819213867
v 4.315502643585205 6.037671089172363 2.120148181915283
v 4.058955192565918 4.297662734985352 4.297662734985352
v 9.184850467946473e-16 9.184850467946473e-16 15
v 9.184850467946473e-16 2.9263548851013184 14.711779594421387
v 9.184850467946473e-16 5.740251541137695 13.858193397521973
v 2.9263548851013184 9.184850467946473e-16 14.711779594421387
v 3.0350208282470703 3.0350208282470703 14.372797012329102
v 3.1268889904022217 6.133613586425781 13.326715469360352
v 9.184850467946473e-16 15 9.184850467946473e-16
v 9.184850467946473e-16 14.711779594421387 2.9263548851013184
v 9.184850467946473e-16 13.858193397521973 5.740251541137695
v 2.9263548851013184 14.711779594421387 9.184850467946473e-16
v 3.0350208282470703 14.372797012329102 3.0350208282470703
v 3.1268889904022217 13.326715469360352 6.133613586425781
v 9.184850467946473e-16 10.60660171508789 10.60660171508789
v 9.184850467946473e-16 8.333553314208984 12.472043991088867
v 9.184850467946473e-16 12.472043991088867 8.333553314208984
v 3.1802220344543457 9.056506156921387 11.526745796203613
v 3.1802220344543457 11.526745796203613 9.056506156921387
v 4.928932189941406 6.123233998228043e-16 7.071067810058594
v 4.928932189941406 7.071067810058594 6.123233998228043e-16
v 5.642891883850098 4.378852367401123 6.357108116149902
v 5.642891883850098 6.357108116149902 4.378852367401123
v 7.621147632598877 6.357108116149902 6.357108116149902
v 11.13565731048584 6.486265659332275 7.4553375244140625
v 11.13565731048584 7.4553375244140625 6.486265659332275
v 11.116735458374023 6.640549659729004 7.326625823974609
v 11.116735458374023 7.326625823974609 6.640549659729004
v 5.962328910827637 2.120148181915283 7.684497356414795
v 6.444297790527344 6.123233998228043e-16 8.314696311950684
v 7.910924434661865 2.084592819213867 8.884476661682129
v 5.740251541137695 9.184850467946473e-16 13.858193397521973
v 6.133613586425781 3.1268889904022217 13.326715469360352
v 7.702337265014648 4.297662734985352 7.941044807434082
v 6.446493625640869 6.446493625640869 11.911567687988281
v 8.173165321350098 6.123233998228043e-16 9.238795280456543
v 10.049097061157227 6.123233998228043e-16 9.807852745056152
v 11.171401977539062 9.184850467946473e-16 9.918390274047852
v 10.60660171508789 9.184850467946473e-16 10.60660171508789
v 11.141240119934082 1.092143177986145 9.807852745056152
v 11.126851081848145 1.798095703125 9.730178833007812
v 11.221824645996094 3.133216619491577 9.370738983154297
v 11.227479934692383 3.1802220344543457 9.355772018432617
v 9.976653099060059 2.0233471393585205 9.581864356994629
v 11.111810684204102 1.9827039241790771 9.708650588989258
v 8.333553314208984 9.184850467946473e-16 12.472043991088867
v 9.056506156921387 3.1802220344543457 11.526745796203613
v 9.535662651062012 6.5682783126831055 9.535662651062012
v 9.915407180786133 4.089075565338135 8.884476661682129
v 11.136392593383789 3.935476064682007 9.092007637023926
v 11.166343688964844 3.793487548828125 9.143237113952637
v 11.064367294311523 4.897433280944824 8.57043170928955
v 9.879852294921875 6.037671089172363 7.684497356414795
v 11.0473051071167 5.772276401519775 8.031514167785645
v 5.962328910827637 7.684497356414795 2.120148181915283
v 6.444297790527344 8.314696311950684 6.123233998228043e-16
v 7.910924434661865 8.884476661682129 2.084592819213867
v 7.702337265014648 7.941044807434082 4.297662734985352
v 5.740251541137695 13.858193397521973 9.184850467946473e-16
v 6.133613586425781 13.326715469360352 3.1268889904022217
v 6.446493625640869 11.911567687988281 6.446493625640869
v 8.173165321350098 9.238795280456543 6.123233998228043e-16
v 11.221824645996094 9.370738983154297 3.133216619491577
v 11.227479934692383 9.355772018432617 3.1802220344543457
v 10.049097061157227 9.807852745056152 6.123233998228043e-16
v 11.171401977539062 9.918390274047852 6.123233998228043e-16
v 11.141240119934082 9.807852745056152 1.092143177986145
v 11.126851081848145 9.730178833007812 1.798095703125
v 10.60660171508789 10.60660171508789 9.184850467946473e-16
v 9.976653099060059 9.581864356994629 2.0233471393585205
v 11.111810684204102 9.708650588989258 1.9827039241790771
v 9.535662651062012 9.535662651062012 6.5682783126831055
v 9.915407180786133 8.884476661682129 4.089075565338135
v 11.136392593383789 9.092007637023926 3.935476064682007
v 11.166343688964844 9.143237113952637 3.793487548828125
v 11.064367294311523 8.57043170928955 4.897433280944824
v 9.879852294921875 7.684497356414795 6.037671089172363
v 11.0473051071167 8.031514167785645 5.772276401519775
v 8.333553314208984 12.472043991088867 9.184850467946473e-16
v 9.056506156921387 11.526745796203613 3.1802220344543457
v 6.5682783126831055 9.535662651062012 9.535662651062012
vn -0.6011713837815535 -0.76422603140902 -0.23356271157655234
vn -0.6327366232784363 -0.6327365636737915 -0.4464177489218863
vn -0.76422603140902 -0.6011713837815535 -0.23356271157655234
vn -0.6327366232784363 -0.4464177489218863 -0.6327365636737915
vn -0.6011713584896329 -0.2335626868491594 -0.7642260588618598
vn -0.76422603140902 -0.23356271157655234 -0.6011713837815535
vn -0.7871379215425054 -0.43612721336196425 -0.43612721336196425
vn -0.884150673642007 -0.40994393350844655 -0.2241061303891694
vn -0.884150673642007 -0.2241061303891694 -0.40994393350844655
vn -0.9554945214166302 -0.20860275590557875 -0.20860275590557875
vn -0.4464177489218863 -0.6327366232784363 -0.6327365636737915
vn -0.23356271157655234 -0.76422603140902 -0.6011713837815535
vn -0.23356271157655234 -0.6011713837815535 -0.76422603140902
vn -0.43612721336196425 -0.7871379215425054 -0.43612721336196425
vn -0.40994393350844655 -0.884150673642007 -0.2241061303891694
vn -0.22410614180397326 -0.8841506598875201 -0.40994395693338403
vn -0.20860275590557875 -0.9554945214166302 -0.20860275590557875
vn -0.43612721336196425 -0.43612721336196425 -0.7871379215425054
vn -0.40994393350844655 -0.2241061303891694 -0.884150673642007
vn -0.2241061162363977 -0.4099439348774304 -0.8841506765945766
vn -0.20860275590557875 -0.20860275590557875 -0.9554945214166302
vn -0.8391566797652508 -0.5438897561136451 1.0730064518776676e-9
vn -0.6011713183342331 -0.7642260835862914 0.23356270930659886
vn -0.7071067811865476 -0.7071067811865476 4.036949177421964e-10
vn -0.7642260588618598 -0.6011713584896329 0.2335626868491594
vn -0.632736607833491 -0.632736607833491 0.4464177082226172
vn -0.9329769144604373 -0.35993621252088787 1.1155315714764667e-9
vn -0.884150673642007 -0.40994393350844655 0.2241061303891694
vn -0.7871379215425054 -0.43612721336196425 0.43612721336196425
vn -0.9861362714732422 -0.16593750053816034 -2.9098466267013943e-9
vn -0.9554945154764671 -0.20860276950988846 0.20860276950988846
vn -0.884150673642007 -0.2241061303891694 0.40994393350844655
vn -0.6327366232784363 -0.4464177489218863 0.6327365636737915
vn -0.7642260835862914 -0.23356270930659886 0.6011713183342331
vn -0.6011713837815535 -0.23356271157655234 0.76422603140902
vn -0.5438897561136451 -0.8391566797652508 1.0730064518776676e-9
vn -0.35993623846219786 -0.9329769044524542 -4.835970181125774e-11
vn -0.4099439100835081 -0.8841506873964938 0.22410611897436508
vn -0.43612725228888244 -0.7871378784062543 0.43612725228888244
vn -0.16593750053816034 -0.9861362714732422 -6.752131726252296e-10
vn -0.20860276950988846 -0.9554945154764671 0.20860276950988846
vn -0.22410612765120178 -0.8841506628400895 0.40994395830236785
vn -0.4464177489218863 -0.6327366232784363 0.6327365636737915
vn -0.23356270930659886 -0.7642260835862914 0.6011713183342331
vn -0.2335626868491594 -0.6011713584896329 0.7642260588618598
vn -0.43612721336196425 -0.43612721336196425 0.7871379215425054
vn -0.40994393350844655 -0.2241061303891694 0.884150673642007
vn -0.2241061162363977 -0.4099439348774304 0.8841506765945766
vn -0.20860275590557875 -0.20860275590557875 0.9554945214166302
vn -0.8391566797652508 1.0730064518776676e-9 -0.5438897561136451
vn -0.6011713183342331 0.23356270930659886 -0.7642260835862914
vn -0.7071067811865476 -2.533611697170859e-10 -0.7071067811865476
vn -0.7642260588618598 0.2335626868491594 -0.6011713584896329
vn -0.632736607833491 0.4464177082226172 -0.632736607833491
vn -0.9329769144604373 1.1155315714764667e-9 -0.35993621252088787
vn -0.884150673642007 0.2241061303891694 -0.40994393350844655
vn -0.9861362714732422 -3.708519321442147e-9 -0.16593750053816034
vn -0.9554945154764671 0.20860276950988846 -0.20860276950988846
vn -0.7871378784062543 0.43612725228888244 -0.43612725228888244
vn -0.884150673642007 0.40994393350844655 -0.2241061303891694
vn -0.6327366232784363 0.6327365636737915 -0.4464177489218863
vn -0.7642260835862914 0.6011713183342331 -0.23356270930659886
vn -0.6011713837815535 0.76422603140902 -0.23356271157655234
vn -0.5438897561136451 1.0730064518776676e-9 -0.8391566797652508
vn -0.35993623846219786 -4.835970181125774e-11 -0.9329769044524542
vn -0.4099439100835081 0.22410611897436508 -0.8841506873964938
vn -0.43612725228888244 0.43612725228888244 -0.7871378784062543
vn -0.16593750053816034 -6.752131726252296e-10 -0.9861362714732422
vn -0.20860276950988846 0.20860276950988846 -0.9554945154764671
vn -0.22410612765120178 0.40994395830236785 -0.8841506628400895
vn -0.4464177489218863 0.6327365636737915 -0.6327366232784363
vn -0.23356270930659886 0.6011713183342331 -0.7642260835862914
vn -0.2335626868491594 0.7642260588618598 -0.6011713584896329
vn -0.43612721336196425 0.7871379215425054 -0.43612721336196425
vn -0.40994393350844655 0.884150673642007 -0.2241061303891694
vn -0.2241061162363977 0.8841506765945766 -0.4099439348774304
vn -0.20860275590557875 0.9554945214166302 -0.20860275590557875
vn -1 6.885156889069322e-10 6.885156889069322e-10
vn -0.9861362714732422 -2.4566868883872382e-9 0.16593750053816034
vn -0.9861362763500041 0.16593747155645183 2.0125799186956443e-9
vn -0.9554945214166302 0.20860275590557875 0.20860275590557875
vn -0.9329769144604373 1.1155315714764667e-9 0.35993621252088787
vn -0.8841506598875201 0.22410614180397326 0.40994395693338403
vn -0.9329769144604373 0.35993621252088787 1.1155315714764667e-9
vn -0.8841506598875201 0.40994395693338403 0.22410614180397326
vn -0.7871378784062543 0.43612725228888244 0.43612725228888244
vn -0.8391566797652508 4.093983448990614e-10 0.5438897561136451
vn -0.7071067811865476 4.036949177421964e-10 0.7071067811865476
vn -0.7642260835862914 0.23356270930659886 0.6011713183342331
vn -0.6011713183342331 0.23356270930659886 0.7642260835862914
vn -0.632736607833491 0.4464177082226172 0.632736607833491
vn -0.8391566797652508 0.5438897561136451 4.093983448990614e-10
vn -0.7642260835862914 0.6011713183342331 0.23356270930659886
vn -0.7071067811865476 0.7071067811865476 4.036949177421964e-10
vn -0.632736607833491 0.632736607833491 0.4464177082226172
vn -0.6011713837815535 0.76422603140902 0.23356271157655234
vn -0.5438897561136451 1.0730064518776676e-9 0.8391566797652508
vn -0.35993623846219786 -4.835970181125774e-11 0.9329769044524542
vn -0.4099439100835081 0.22410611897436508 0.8841506873964938
vn -0.43612725228888244 0.43612725228888244 0.7871378784062543
vn -0.16593750053816034 -6.752131726252296e-10 0.9861362714732422
vn -0.20860276950988846 0.20860276950988846 0.9554945154764671
vn -0.22410612765120178 0.40994395830236785 0.8841506628400895
vn -0.5438897561136451 0.8391566797652508 1.0730064518776676e-9
vn -0.35993623846219786 0.9329769044524542 -4.835970181125774e-11
vn -0.4099439100835081 0.8841506873964938 0.22410611897436508
vn -0.43612725228888244 0.7871378784062543 0.43612725228888244
vn -0.16593750053816034 0.9861362714732422 -6.752131726252296e-10
vn -0.20860276950988846 0.9554945154764671 0.20860276950988846
vn -0.22410612765120178 0.8841506628400895 0.40994395830236785
vn -0.4464177489218863 0.6327365636737915 0.6327366232784363
vn -0.23356271157655234 0.6011713837815535 0.76422603140902
vn -0.23356271157655234 0.76422603140902 0.6011713837815535
vn 5.616697681751709e-11 -0.8391566797652508 -0.5438897561136451
vn 5.616697681751709e-11 -0.5438897561136451 -0.8391566797652508
vn -2.533611697170859e-10 -0.7071067811865476 -0.7071067811865476
vn 0.23356270930659886 -0.7642260835862914 -0.6011713183342331
vn 0.23356270930659886 -0.6011713183342331 -0.7642260835862914
vn -4.835970579945615e-11 -0.9329769144604373 -0.35993621252088787
vn -1.4738859301659755e-9 -0.9861362763500041 -0.16593747155645183
vn 0.22410613312713698 -0.8841506844439242 -0.40994390871452435
vn 0.20860276950988846 -0.9554945154764671 -0.20860276950988846
vn -4.835970579945615e-11 -0.35993621252088787 -0.9329769144604373
vn -1.4738859301659755e-9 -0.16593747155645183 -0.9861362763500041
vn 0.22410613312713698 -0.40994390871452435 -0.8841506844439242
vn 0.20860276950988846 -0.20860276950988846 -0.9554945154764671
vn 0.7871378579444395 0.4361272707539849 0.4361272707539849
vn 0.7642260756069552 0.6011713120573628 0.23356275157143822
vn 0.8841506824997148 0.40994393761539766 0.2241060879308537
vn 0.7642260756069552 0.23356275157143822 0.6011713120573628
vn 0.8841506824997148 0.2241060879308537 0.40994393761539766
vn 0.9554945741253226 0.20860263519077188 0.20860263519077188
vn 0.4464177489218863 -0.6327366232784363 -0.6327365636737915
vn 0.43612721336196425 -0.7871379215425054 -0.43612721336196425
vn 0.40994393350844655 -0.884150673642007 -0.2241061303891694
vn 0.4361272224865592 0.7871378784062535 0.43612728209120494
vn 0.6011713120573628 0.7642260756069552 0.23356275157143822
vn 0.40994381135993824 0.8841507269074564 0.22410614368353146
vn 0.5998484055548637 -0.7650816643754048 -0.2341622027353007
vn 0.617427154396335 -0.640533013558519 -0.4566192807533275
vn 0.25602600111940815 0.7608729640578852 0.5962575109099867
vn 0.9939772900359375 -0.1069247479489888 -0.02400510714117258
vn 0.2514800375305514 0.8838475156641871 0.39442535387304534
vn 0.9009099075944019 0.3852626114912863 0.19983507846511928
vn 0.7207505237398922 -0.6287815684655692 -0.29180887869742683
vn 0.9883703746335271 -0.07688826444609502 -0.13119526415709024
vn 0.23332189615618182 0.9530223849874643 0.19315596415044783
vn 0.9129724414250552 -0.40561413372598176 -0.04425489487159015
vn 0.7837132943227614 -0.6073562604910401 -0.13004555026645287
vn 0.45172941947497103 0.8880607537430302 0.0853734691936946
vn 0.6673445137879641 0.7196086083938598 0.19187170360050054
vn 0.9109280794037595 -0.41122788590751197 -0.033191263998466995
vn 0.43612721336196425 -0.43612721336196425 -0.7871379215425054
vn 0.4361272224865592 0.43612728209120494 0.7871378784062535
vn 0.40994393350844655 -0.2241061303891694 -0.884150673642007
vn 0.6011713120573628 0.23356275157143822 0.7642260756069552
vn 0.40994381135993824 0.22410614368353146 0.8841507269074564
vn 0.6149246040083273 -0.45476039826058023 -0.6442520559215006
vn 0.2615512596192372 0.5907652944111893 0.7632740697225676
vn 0.9939772900359375 -0.02400510714117258 -0.1069247479489888
vn 0.2514800375305514 0.39442535387304534 0.8838475156641871
vn 0.9009099075944019 0.19983507846511928 0.3852626114912863
vn 0.7207505237398922 -0.29180887869742683 -0.6287815684655692
vn 0.988370375199727 -0.13119526423224703 -0.07688825703956068
vn 0.5998484055548637 -0.2341622027353007 -0.7650816643754048
vn 0.23332189548462348 0.19315597849565855 0.9530223822444294
vn 0.9129724414250552 -0.04425489487159015 -0.40561413372598176
vn 0.6673445137879641 0.19187170360050054 0.7196086083938598
vn 0.9109280794037595 -0.033191263998466995 -0.41122788590751197
vn 0.7837132943227614 -0.13004555026645287 -0.6073562604910401
vn 0.45172941947497103 0.0853734691936946 0.8880607537430302
vn 0.6327365181228111 0.6327365777274572 0.44641787804653055
vn 0.6327365181228111 0.44641787804653055 0.6327365777274572
vn 0.4464178134842093 0.6327365707006265 0.6327365707006265
vn 0.948461656142539 0.26311090708977947 0.17661579034091404
vn 0.9443563230558204 -0.242523148852946 -0.22220183926993678
vn 0.7450178100759703 -0.5457780240439218 -0.3835033391514572
vn 0.7450178100759703 -0.3835033391514572 -0.5457780240439218
vn 6.885156889069322e-10 -1 6.885156889069322e-10
vn -3.5656925223187883e-10 -0.9861362739116233 0.16593748604730613
vn 2.065917465751348e-9 -0.9329769144604373 0.35993621252088787
vn 0.16593747155645183 -0.9861362763500041 2.0125799186956443e-9
vn 0.20860275525715308 -0.9554945184465486 0.20860277015831422
vn 0.2241061303891694 -0.884150673642007 0.40994393350844655
vn -8.217135926024577e-11 -0.8391566797652508 0.5438897561136451
vn -2.533611697170859e-10 -0.7071067811865476 0.7071067811865476
vn 5.616697681751709e-11 -0.5438897561136451 0.8391566797652508
vn 0.2335626868491594 -0.7642260588618598 0.6011713584896329
vn 0.23356270930659886 -0.6011713183342331 0.7642260835862914
vn 0.9329769421984243 0.3599361406223028 -1.9984458126820835e-9
vn 0.7642260756069552 0.6011713120573628 -0.23356275157143822
vn 0.8391567246013382 0.5438896869369322 -2.158927423956071e-9
vn 0.8841506824997148 0.40994393761539766 -0.2241060879308537
vn 0.7871378579444395 0.4361272707539849 -0.4361272707539849
vn 0.9861362787883848 0.16593745706559743 1.266504150948224e-10
vn 0.955494580065482 0.2086026215864605 -0.2086026215864605
vn 0.8841506765945766 0.2241061162363977 -0.4099439348774304
vn 0.7642260756069552 0.23356275157143822 -0.6011713120573628
vn -4.835970579945615e-11 -0.35993621252088787 0.9329769144604373
vn -1.4738859301659755e-9 -0.16593747155645183 0.9861362763500041
vn 0.22410613312713698 -0.40994390871452435 0.8841506844439242
vn 0.20860276950988846 -0.20860276950988846 0.9554945154764671
vn 0.35993621252088787 -0.9329769144604373 1.1155315714764667e-9
vn 0.40994390871452435 -0.8841506844439242 0.22410613312713698
vn 0.43612725228888244 -0.7871378784062543 0.43612725228888244
vn 0.6011712466100403 0.7642261277842199 -0.2335627493014828
vn 0.5438896449642935 0.8391567518054149 9.090671602388854e-10
vn 0.4099438127289217 0.8841507298600263 -0.22410612953075992
vn 0.4361272224865592 0.7871378784062535 -0.43612728209120494
vn 0.5438897561136451 -0.8391566797652508 4.093983448990614e-10
vn 0.599848443712677 -0.7650816370208648 0.2341621943631234
vn 0.359936088739679 0.932976962214385 9.16386412257631e-10
vn 0.20343561866063395 0.9790883254641356 -1.1304706279950263e-9
vn 0.6751274437114958 -0.73770111477995 -2.387570131196087e-9
vn 0.820012284213161 0.5723459213967671 -9.305915628010978e-10
vn 0.45172941947497103 0.8880607537430302 -0.0853734691936946
vn 0.783713345689246 -0.607356194502047 0.13004554889945283
vn 0.23332188072310944 0.9530223828148309 -0.19315599351242754
vn 0.9129724414250552 -0.40561413372598176 0.04425489487159015
vn 0.9109280569632832 -0.4112279353816638 0.03319126690609908
vn 0.6673445137879641 0.7196086083938598 -0.19187170360050054
vn 0.6174270117744349 -0.6405331107096137 0.4566193373215345
vn 0.2514800757403384 0.8838474856082741 -0.3944253968617708
vn 0.7207505237398922 -0.6287815684655692 0.29180887869742683
vn 0.9883703746335271 -0.07688826444609502 0.13119526415709024
vn 0.9009099075944019 0.3852626114912863 -0.19983507846511928
vn 0.2615512569298815 0.7632741214789776 -0.5907652287321032
vn 0.9939772896803878 -0.10692474791074139 0.024005122033746766
vn 0.4464177489218863 -0.6327366232784363 0.6327365636737915
vn 0.7071067811865476 0.7071067811865476 1.6698168689327524e-9
vn 0.632736562282517 0.632736562282517 -0.4464178373472605
vn 0.6327365181228111 0.44641787804653055 -0.6327365777274572
vn 0.4464178134842093 0.6327365707006265 -0.6327365707006265
vn 0.7450178343120734 -0.545777982193929 0.38350335162716753
vn 0.571935127371402 0.601474057356851 -0.5577805737073904
vn 0.8166139923768154 -0.41723407346409613 0.39881990345888646
vn 0.7450178100759703 -0.3835033391514572 0.5457780240439218
vn 0.43612725228888244 0.43612725228888244 -0.7871378784062543
vn 0.43612721336196425 -0.43612721336196425 0.7871379215425054
vn 0.6011713099650724 0.2335627656597177 -0.7642260729471761
vn 0.40994381135993824 0.22410614368353146 -0.8841507269074564
vn 0.40994393350844655 -0.2241061303891694 0.884150673642007
vn 0.6149246040083273 -0.45476039826058023 0.6442520559215006
vn 0.2560260289682086 0.5962575063604406 -0.7608729582522953
vn 0.9939772900359375 -0.02400510714117258 0.1069247479489888
vn 0.2514800375305514 0.39442535387304534 -0.8838475156641871
vn 0.9009099075944019 0.19983507846511928 -0.3852626114912863
vn 0.988370375199727 -0.13119526423224703 0.07688825703956068
vn 0.7207505237398922 -0.29180887869742683 0.6287815684655692
vn 0.6673445137879641 0.19187170360050054 -0.7196086083938598
vn 0.9109280794037595 -0.033191263998466995 0.41122788590751197
vn 0.23332190890302057 0.19315599216931068 -0.9530223761879569
vn 0.9129724414250552 -0.04425489487159015 0.40561413372598176
vn 0.7837132943227614 -0.13004555026645287 0.6073562604910401
vn 0.45172941947497103 0.0853734691936946 -0.8880607537430302
vn 0.5998484458057212 -0.23416218027902172 0.7650816396904553
vn 6.885156889069322e-10 6.885156889069322e-10 -1
vn -3.5656925223187883e-10 0.16593748604730613 -0.9861362739116233
vn 2.065917465751348e-9 0.35993621252088787 -0.9329769144604373
vn 0.16593747155645183 2.0125799186956443e-9 -0.9861362763500041
vn 0.20860275525715308 0.20860277015831422 -0.9554945184465486
vn 0.2241061303891694 0.40994393350844655 -0.884150673642007
vn 0.9329769522064049 -2.098077247395573e-9 0.3599361146809913
vn 0.8391567246013382 -1.7969828481443618e-9 0.5438896869369322
vn 0.7642260756069552 -0.23356275157143822 0.6011713120573628
vn 0.8841506824997148 -0.2241060879308537 0.40994393761539766
vn 0.9861362787883848 1.266504150948224e-10 0.16593745706559743
vn 0.9554945741253223 -0.2086026500919329 0.20860262028961077
vn 0.7871378579444395 -0.4361272707539849 0.4361272707539849
vn 0.8841506765945766 -0.4099439348774304 0.2241061162363977
vn 0.7642260756069552 -0.6011713120573628 0.23356275157143822
vn -8.217135926024577e-11 0.5438897561136451 -0.8391566797652508
vn -2.533611697170859e-10 0.7071067811865476 -0.7071067811865476
vn 5.616697681751709e-11 0.8391566797652508 -0.5438897561136451
vn 0.2335626868491594 0.6011713584896329 -0.7642260588618598
vn 0.23356270930659886 0.7642260835862914 -0.6011713183342331
vn -4.835970579945615e-11 0.9329769144604373 -0.35993621252088787
vn -1.4738859301659755e-9 0.9861362763500041 -0.16593747155645183
vn 0.22410613312713698 0.8841506844439242 -0.40994390871452435
vn 0.20860276950988846 0.9554945154764671 -0.20860276950988846
vn 0.35993621252088787 1.1155315714764667e-9 -0.9329769144604373
vn 0.40994390871452435 0.22410613312713698 -0.8841506844439242
vn 0.6011712466100403 -0.2335627493014828 0.7642261277842199
vn 0.5438896449642935 9.090671602388854e-10 0.8391567518054149
vn 0.4099438127289217 -0.22410612953075992 0.8841507298600263
vn 0.43612725228888244 0.43612725228888244 -0.7871378784062543
vn 0.4361272224865592 -0.43612728209120494 0.7871378784062535
vn 0.5438897561136451 4.093983448990614e-10 -0.8391566797652508
vn 0.599848443712677 0.2341621943631234 -0.7650816370208648
vn 0.359936088739679 9.16386412257631e-10 0.932976962214385
vn 0.20343561866063395 -1.1304706279950263e-9 0.9790883254641356
vn 0.6751274437114958 -2.387570131196087e-9 -0.73770111477995
vn 0.820012284213161 -9.305915628010978e-10 0.5723459213967671
vn 0.45172941947497103 -0.0853734691936946 0.8880607537430302
vn 0.783713345689246 0.13004554889945283 -0.607356194502047
vn 0.23332188072310944 -0.19315599351242754 0.9530223828148309
vn 0.9129724414250552 0.04425489487159015 -0.40561413372598176
vn 0.9109280569632832 0.03319126690609908 -0.4112279353816638
vn 0.6673445137879641 -0.19187170360050054 0.7196086083938598
vn 0.6149245062625492 0.45476041413367485 -0.6442521380133157
vn 0.2514800757403384 -0.3944253968617708 0.8838474856082741
vn 0.7207505237398922 0.29180887869742683 -0.6287815684655692
vn 0.9883703746335271 0.13119526415709024 -0.07688826444609502
vn 0.9009099075944019 -0.19983507846511928 0.3852626114912863
vn 0.25602600111940815 -0.5962575109099867 0.7608729640578852
vn 0.9939772896803878 0.024005122033746766 -0.10692474791074139
vn 0.7071067811865476 1.6698168689327524e-9 0.7071067811865476
vn 0.632736562282517 -0.4464178373472605 0.632736562282517
vn 0.6327365026778701 -0.6327366218871593 0.4464178373472589
vn 0.4464178134842093 -0.6327365707006265 0.6327365707006265
vn 0.7450178343120734 0.38350335162716753 -0.545777982193929
vn 0.8166139826707377 0.41723406850495215 -0.3988199285209317
vn 0.5719351068671571 -0.6014740953982601 0.5577805537105954
vn 0.7450178100759703 0.5457780240439218 -0.3835033391514572
vn 0.4464177489218863 0.6327365636737915 -0.6327366232784363
vn 0.43612725228888244 -0.7871378784062543 0.43612725228888244
vn 0.6011713099650724 -0.7642260729471761 0.2335627656597177
vn 0.40994381135993824 -0.8841507269074564 0.22410614368353146
vn 0.43612721336196425 0.7871379215425054 -0.43612721336196425
vn 0.40994393350844655 0.884150673642007 -0.2241061303891694
vn 0.6174271091118076 0.6405330284145353 -0.45661932114611636
vn 0.26155128469345423 -0.7632741155293815 0.5907652241271857
vn 0.9939772900359375 0.1069247479489888 -0.02400510714117258
vn 0.2514800375305514 -0.8838475156641871 0.39442535387304534
vn 0.9009099075944019 -0.3852626114912863 0.19983507846511928
vn 0.988370375199727 0.07688825703956068 -0.13119526423224703
vn 0.7207505237398922 0.6287815684655692 -0.29180887869742683
vn 0.6673445137879641 -0.7196086083938598 0.19187170360050054
vn 0.9109280794037595 0.41122788590751197 -0.033191263998466995
vn 0.23332190890302057 -0.9530223761879569 0.19315599216931068
vn 0.9129724414250552 0.40561413372598176 -0.04425489487159015
vn 0.7837132943227614 0.6073562604910401 -0.13004555026645287
vn 0.45172941947497103 -0.8880607537430302 0.0853734691936946
vn 0.5998484458057212 0.7650816396904553 -0.23416218027902172
vn 1 9.046949300817175e-10 9.046949300817175e-10
vn 0.9861362787883848 4.017541663319308e-10 -0.16593745706559743
vn 0.9861362787883848 -0.16593745706559743 4.017541663319308e-10
vn 0.9554945681851628 -0.20860264879508303 -0.20860264879508303
vn 0.9329769421984243 -2.244489437602462e-9 -0.3599361406223028
vn 0.8391567246013382 -1.5121182793298693e-9 -0.5438896869369322
vn 0.8841506933016324 -0.2241060906688208 -0.40994391282147535
vn 0.764226078266734 -0.23356273748315856 -0.601171314149653
vn 0.9329769421984243 -0.3599361406223028 -2.244489437602462e-9
vn 0.8391567246013382 -0.5438896869369322 -1.5121182793298693e-9
vn 0.8841506933016324 -0.40994391282147535 -0.2241060906688208
vn 0.764226078266734 -0.601171314149653 -0.23356273748315856
vn 0.7871378784062543 -0.43612725228888244 -0.43612725228888244
vn 6.885156889069322e-10 6.885156889069322e-10 1
vn -3.5656925223187883e-10 0.16593748604730613 0.9861362739116233
vn 2.065917465751348e-9 0.35993621252088787 0.9329769144604373
vn 0.16593747155645183 2.0125799186956443e-9 0.9861362763500041
vn 0.20860275525715308 0.20860277015831422 0.9554945184465486
vn 0.2241061303891694 0.40994393350844655 0.884150673642007
vn 6.885156889069322e-10 1 6.885156889069322e-10
vn -3.5656925223187883e-10 0.9861362739116233 0.16593748604730613
vn 2.065917465751348e-9 0.9329769144604373 0.35993621252088787
vn 0.16593747155645183 0.9861362763500041 2.0125799186956443e-9
vn 0.20860275525715308 0.9554945184465486 0.20860277015831422
vn 0.2241061303891694 0.884150673642007 0.40994393350844655
vn -2.533611697170859e-10 0.7071067811865476 0.7071067811865476
vn -8.217135926024577e-11 0.5438897561136451 0.8391566797652508
vn -8.217135926024577e-11 0.8391566797652508 0.5438897561136451
vn 0.23356270930659886 0.6011713183342331 0.7642260835862914
vn 0.23356270930659886 0.7642260835862914 0.6011713183342331
vn 0.7071067811865476 -2.9204346108302264e-9 -0.7071067811865476
vn 0.7071067811865476 -0.7071067811865476 -2.9204346108302264e-9
vn 0.632736562282517 -0.4464178373472605 -0.632736562282517
vn 0.632736562282517 -0.632736562282517 -0.4464178373472605
vn 0.44641778962115714 -0.6327365791187357 -0.6327365791187357
vn 0.7450178343120734 0.38350335162716753 0.545777982193929
vn 0.7450178343120734 0.545777982193929 0.38350335162716753
vn 0.8166140223878227 0.4172340285414433 0.398819889005875
vn 0.5719351068671571 -0.6014740953982601 -0.5577805537105954
vn 0.6011712466100403 -0.2335627493014828 -0.7642261277842199
vn 0.5438896449642935 9.090671602388854e-10 -0.8391567518054149
vn 0.4099438127289217 -0.22410612953075992 -0.8841507298600263
vn 0.35993621252088787 1.1155315714764667e-9 0.9329769144604373
vn 0.40994390871452435 0.22410613312713698 0.8841506844439242
vn 0.43612725228888244 -0.43612725228888244 -0.7871378784062543
vn 0.43612725228888244 0.43612725228888244 0.7871378784062543
vn 0.359936088739679 2.008580859515383e-9 -0.932976962214385
vn 0.20343561866063395 -1.1304706279950263e-9 -0.9790883254641356
vn 0.820012284213161 -9.305915628010978e-10 -0.5723459213967671
vn 0.6751273815888389 6.98051277799835e-10 0.7377011716332016
vn 0.45172941947497103 -0.0853734691936946 -0.8880607537430302
vn 0.783713345689246 0.13004554889945283 0.607356194502047
vn 0.9109280569632832 0.03319126690609908 0.4112279353816638
vn 0.6673445137879641 -0.19187170360050054 -0.7196086083938598
vn 0.23332188072310944 -0.19315599351242754 -0.9530223828148309
vn 0.9129724414250552 0.04425489487159015 0.40561413372598176
vn 0.5438897561136451 4.093983448990614e-10 0.8391566797652508
vn 0.599848443712677 0.2341621943631234 0.7650816370208648
vn 0.6149245062625492 0.45476041413367485 0.6442521380133157
vn 0.2514800757403384 -0.3944253968617708 -0.8838474856082741
vn 0.9883703746335271 0.13119526415709024 0.07688826444609502
vn 0.7207505237398922 0.29180887869742683 0.6287815684655692
vn 0.9009099075944019 -0.19983507846511928 -0.3852626114912863
vn 0.2560260264561198 -0.596257440905408 -0.7608730103913687
vn 0.9939772896803878 0.024005122033746766 0.10692474791074139
vn 0.6011712466100403 -0.7642261277842199 -0.2335627493014828
vn 0.5438896449642935 -0.8391567518054149 9.090671602388854e-10
vn 0.4099438127289217 -0.8841507298600263 -0.22410612953075992
vn 0.43612725228888244 -0.7871378784062543 -0.43612725228888244
vn 0.35993621252088787 0.9329769144604373 1.1155315714764667e-9
vn 0.40994390871452435 0.8841506844439242 0.22410613312713698
vn 0.43612725228888244 0.7871378784062543 0.43612725228888244
vn 0.359936088739679 -0.932976962214385 2.008580859515383e-9
vn 0.9109280569632832 0.4112279353816638 0.03319126690609908
vn 0.6673445137879641 -0.7196086083938598 -0.19187170360050054
vn 0.20343561866063395 -0.9790883254641356 -1.1304706279950263e-9
vn 0.820012284213161 -0.5723459213967671 -9.305915628010978e-10
vn 0.45172941947497103 -0.8880607537430302 -0.0853734691936946
vn 0.783713345689246 0.607356194502047 0.13004554889945283
vn 0.6751273815888389 0.7377011716332016 6.98051277799835e-10
vn 0.23332190890302057 -0.9530223761879569 -0.19315599216931068
vn 0.9129724414250552 0.40561413372598176 0.04425489487159015
vn 0.6174270117744349 0.6405331107096137 0.4566193373215345
vn 0.2514800757403384 -0.8838474856082741 -0.3944253968617708
vn 0.988370375199727 0.07688825703956068 0.13119526423224703
vn 0.7207505237398922 0.6287815684655692 0.29180887869742683
vn 0.9009099075944019 -0.3852626114912863 -0.19983507846511928
vn 0.26155128469345423 -0.7632741155293815 -0.5907652241271857
vn 0.9939772896803878 0.10692474791074139 0.024005122033746766
vn 0.5438897561136451 0.8391566797652508 1.4262378928175971e-9
vn 0.599848443712677 0.7650816370208648 0.2341621943631234
vn 0.4464177489218863 0.6327365636737915 0.6327366232784363
f 2//2 7//7 4//4
f 2//2 4//4 11//11
f 3//3 22//22 8//8
f 1//1 36//36 24//24
f 3//3 7//7 2//2
f 3//3 2//2 1//1
f 3//3 1//1 24//24
f 3//3 24//24 22//22
f 6//6 9//9 50//50
f 6//6 4//4 7//7
f 6//6 5//5 4//4
f 5//5 52//52 64//64
f 6//6 52//52 5//5
f 6//6 50//50 52//52
f 8//8 10//10 9//9
f 3//3 8//8 7//7
f 6//6 7//7 9//9
f 7//7 8//8 9//9
f 8//8 27//27 10//10
f 10//10 27//27 30//30
f 8//8 22//22 27//27
f 9//9 10//10 55//55
f 10//10 57//57 55//55
f 9//9 55//55 50//50
f 10//10 30//30 57//57
f 30//30 78//78 57//57
f 2//2 11//11 14//14
f 4//4 18//18 11//11
f 11//11 12//12 14//14
f 11//11 18//18 13//13
f 12//12 114//114 16//16
f 13//13 20//20 115//115
f 11//11 13//13 12//12
f 12//12 13//13 116//116
f 1//1 14//14 15//15
f 14//14 16//16 15//15
f 1//1 15//15 36//36
f 15//15 37//37 36//36
f 1//1 2//2 14//14
f 15//15 16//16 17//17
f 12//12 16//16 14//14
f 16//16 119//119 17//17
f 15//15 17//17 37//37
f 17//17 40//40 37//37
f 17//17 120//120 40//40
f 5//5 19//19 18//18
f 18//18 19//19 20//20
f 4//4 5//5 18//18
f 5//5 64//64 19//19
f 19//19 64//64 65//65
f 13//13 18//18 20//20
f 19//19 21//21 20//20
f 20//20 21//21 123//123
f 19//19 65//65 21//21
f 21//21 65//65 68//68
f 21//21 68//68 124//124
f 22//22 25//25 28//28
f 36//36 23//23 24//24
f 25//25 24//24 23//23
f 22//22 24//24 25//25
f 25//25 26//26 29//29
f 25//25 23//23 26//26
f 26//26 33//33 29//29
f 26//26 43//43 33//33
f 27//27 31//31 30//30
f 27//27 28//28 31//31
f 22//22 28//28 27//27
f 28//28 32//32 31//31
f 25//25 29//29 28//28
f 28//28 29//29 32//32
f 29//29 34//34 32//32
f 30//30 31//31 79//79
f 30//30 79//79 78//78
f 31//31 32//32 82//82
f 31//31 82//82 79//79
f 32//32 87//87 82//82
f 32//32 34//34 87//87
f 29//29 33//33 34//34
f 34//34 33//33 35//35
f 34//34 35//35 88//88
f 34//34 88//88 87//87
f 35//35 97//97 88//88
f 36//36 38//38 23//23
f 36//36 37//37 38//38
f 23//23 38//38 39//39
f 38//38 42//42 39//39
f 23//23 39//39 26//26
f 37//37 40//40 41//41
f 37//37 41//41 38//38
f 40//40 180//180 41//41
f 38//38 41//41 42//42
f 39//39 42//42 44//44
f 41//41 181//181 42//42
f 26//26 39//39 43//43
f 33//33 43//43 46//46
f 39//39 44//44 43//43
f 43//43 45//45 46//46
f 42//42 185//185 44//44
f 43//43 44//44 45//45
f 44//44 186//186 45//45
f 45//45 187//187 48//48
f 33//33 46//46 35//35
f 35//35 46//46 47//47
f 46//46 48//48 47//47
f 35//35 47//47 97//97
f 47//47 98//98 97//97
f 45//45 48//48 46//46
f 47//47 48//48 49//49
f 48//48 199//199 49//49
f 47//47 49//49 98//98
f 49//49 101//101 98//98
f 49//49 200//200 101//101
f 50//50 56//56 53//53
f 64//64 52//52 51//51
f 50//50 53//53 52//52
f 53//53 51//51 52//52
f 53//53 59//59 54//54
f 53//53 54//54 51//51
f 55//55 57//57 58//58
f 55//55 58//58 56//56
f 50//50 55//55 56//56
f 57//57 78//78 80//80
f 57//57 80//80 58//58
f 56//56 58//58 60//60
f 53//53 56//56 59//59
f 56//56 60//60 59//59
f 59//59 60//60 62//62
f 58//58 84//84 60//60
f 58//58 80//80 84//84
f 60//60 84//84 92//92
f 54//54 59//59 61//61
f 54//54 61//61 71//71
f 60//60 92//92 62//62
f 59//59 62//62 61//61
f 62//62 63//63 61//61
f 62//62 92//92 94//94
f 62//62 94//94 63//63
f 63//63 94//94 104//104
f 64//64 51//51 66//66
f 64//64 66//66 65//65
f 51//51 67//67 66//66
f 66//66 67//67 70//70
f 51//51 54//54 67//67
f 65//65 69//69 68//68
f 65//65 66//66 69//69
f 68//68 69//69 258//258
f 66//66 70//70 69//69
f 67//67 72//72 70//70
f 69//69 70//70 259//259
f 54//54 71//71 67//67
f 61//61 74//74 71//71
f 67//67 71//71 72//72
f 71//71 74//74 73//73
f 70//70 72//72 272//272
f 71//71 73//73 72//72
f 72//72 73//73 273//273
f 73//73 76//76 274//274
f 61//61 63//63 74//74
f 63//63 75//75 74//74
f 74//74 75//75 76//76
f 63//63 104//104 75//75
f 75//75 104//104 105//105
f 73//73 74//74 76//76
f 75//75 77//77 76//76
f 76//76 77//77 277//277
f 75//75 105//105 77//77
f 77//77 105//105 108//108
f 77//77 108//108 278//278
f 78//78 79//79 80//80
f 79//79 81//81 80//80
f 79//79 82//82 81//81
f 81//81 82//82 83//83
f 82//82 87//87 83//83
f 80//80 81//81 84//84
f 81//81 85//85 84//84
f 84//84 85//85 92//92
f 81//81 83//83 85//85
f 83//83 86//86 85//85
f 83//83 89//89 86//86
f 85//85 86//86 93//93
f 83//83 87//87 89//89
f 87//87 88//88 89//89
f 89//89 88//88 90//90
f 88//88 97//97 90//90
f 86//86 89//89 91//91
f 89//89 90//90 91//91
f 85//85 93//93 92//92
f 92//92 93//93 94//94
f 93//93 96//96 94//94
f 86//86 95//95 93//93
f 93//93 95//95 96//96
f 94//94 96//96 104//104
f 86//86 91//91 95//95
f 91//91 111//111 95//95
f 97//97 99//99 90//90
f 97//97 98//98 99//99
f 90//90 100//100 91//91
f 90//90 99//99 100//100
f 99//99 103//103 100//100
f 98//98 101//101 102//102
f 98//98 102//102 99//99
f 101//101 349//349 102//102
f 99//99 102//102 103//103
f 100//100 103//103 112//112
f 102//102 350//350 103//103
f 95//95 107//107 96//96
f 104//104 96//96 106//106
f 104//104 106//106 105//105
f 96//96 107//107 106//106
f 106//106 107//107 110//110
f 105//105 109//109 108//108
f 105//105 106//106 109//109
f 108//108 109//109 355//355
f 107//107 113//113 110//110
f 106//106 110//110 109//109
f 109//109 110//110 356//356
f 91//91 100//100 111//111
f 95//95 111//111 107//107
f 100//100 112//112 111//111
f 107//107 111//111 113//113
f 111//111 112//112 113//113
f 112//112 360//360 113//113
f 103//103 361//361 112//112
f 110//110 113//113 362//362
f 12//12 116//116 114//114
f 114//114 116//116 117//117
f 13//13 115//115 116//116
f 115//115 118//118 116//116
f 114//114 117//117 121//121
f 115//115 125//125 118//118
f 117//117 116//116 118//118
f 117//117 118//118 133//133
f 16//16 114//114 119//119
f 17//17 119//119 120//120
f 114//114 121//121 119//119
f 119//119 122//122 120//120
f 40//40 120//120 179//179
f 120//120 182//182 179//179
f 119//119 121//121 122//122
f 121//121 135//135 122//122
f 117//117 134//134 121//121
f 120//120 122//122 182//182
f 122//122 203//203 182//182
f 20//20 123//123 115//115
f 21//21 124//124 123//123
f 115//115 123//123 125//125
f 123//123 124//124 126//126
f 68//68 257//257 124//124
f 124//124 257//257 260//260
f 123//123 126//126 125//125
f 118//118 125//125 153//153
f 125//125 126//126 155//155
f 124//124 260//260 126//126
f 126//126 260//260 281//281
f 117//117 133//133 134//134
f 118//118 153//153 133//133
f 133//133 140//140 134//134
f 133//133 153//153 158//158
f 133//133 158//158 140//140
f 140//140 158//158 176//176
f 121//121 134//134 135//135
f 134//134 139//139 135//135
f 122//122 135//135 203//203
f 135//135 210//210 203//203
f 135//135 139//139 210//210
f 139//139 214//214 210//210
f 134//134 140//140 139//139
f 139//139 140//140 145//145
f 140//140 142//142 144//144
f 140//140 175//175 177//177
f 140//140 176//176 175//175
f 140//140 177//177 142//142
f 140//140 144//144 146//146
f 140//140 146//146 145//145
f 139//139 148//148 149//149
f 139//139 145//145 151//151
f 139//139 151//151 152//152
f 139//139 152//152 148//148
f 139//139 149//149 214//214
f 214//214 149//149 150//150
f 214//214 150//150 215//215
f 125//125 155//155 153//153
f 153//153 155//155 165//165
f 126//126 281//281 155//155
f 155//155 288//288 165//165
f 155//155 281//281 288//288
f 153//153 165//165 158//158
f 158//158 178//178 176//176
f 158//158 162//162 160//160
f 158//158 160//160 178//178
f 158//158 165//165 163//163
f 158//158 164//164 162//162
f 158//158 163//163 164//164
f 165//165 288//288 292//292
f 165//165 168//168 163//163
f 165//165 169//169 168//168
f 165//165 170//170 167//167
f 165//165 167//167 169//169
f 165//165 292//292 170//170
f 292//292 171//171 170//170
f 292//292 293//293 171//171
f 40//40 179//179 180//180
f 179//179 182//182 180//180
f 41//41 180//180 181//181
f 42//42 181//181 185//185
f 180//180 183//183 181//181
f 181//181 184//184 185//185
f 180//180 182//182 183//183
f 182//182 203//203 183//183
f 183//183 184//184 181//181
f 183//183 204//204 184//184
f 184//184 205//205 188//188
f 44//44 185//185 186//186
f 185//185 188//188 186//186
f 45//45 186//186 187//187
f 186//186 189//189 187//187
f 184//184 188//188 185//185
f 188//188 189//189 186//186
f 188//188 229//229 189//189
f 187//187 189//189 201//201
f 48//48 187//187 199//199
f 49//49 199//199 200//200
f 187//187 201//201 199//199
f 199//199 202//202 200//200
f 101//101 200//200 348//348
f 200//200 351//351 348//348
f 199//199 201//201 202//202
f 189//189 239//239 201//201
f 201//201 242//242 202//202
f 200//200 202//202 351//351
f 202//202 377//377 351//351
f 183//183 203//203 204//204
f 203//203 210//210 204//204
f 204//204 210//210 211//211
f 184//184 204//204 205//205
f 204//204 211//211 205//205
f 210//210 214//214 211//211
f 211//211 214//214 217//217
f 214//214 215//215 216//216
f 214//214 216//216 217//217
f 211//211 217//217 219//219
f 211//211 219//219 220//220
f 211//211 220//220 221//221
f 211//211 221//221 224//224
f 205//205 211//211 222//222
f 211//211 224//224 222//222
f 222//222 225//225 226//226
f 222//222 224//224 225//225
f 222//222 226//226 228//228
f 222//222 228//228 234//234
f 222//222 234//234 235//235
f 222//222 235//235 236//236
f 205//205 229//229 188//188
f 189//189 229//229 239//239
f 205//205 222//222 229//229
f 229//229 243//243 239//239
f 229//229 222//222 243//243
f 222//222 236//236 243//243
f 201//201 239//239 242//242
f 239//239 256//256 242//242
f 202//202 242//242 377//377
f 242//242 256//256 391//391
f 242//242 391//391 377//377
f 239//239 243//243 256//256
f 243//243 236//236 237//237
f 243//243 237//237 245//245
f 243//243 245//245 247//247
f 243//243 247//247 248//248
f 243//243 248//248 249//249
f 243//243 249//249 256//256
f 256//256 249//249 250//250
f 256//256 250//250 251//251
f 256//256 251//251 253//253
f 256//256 253//253 254//254
f 256//256 254//254 384//384
f 384//384 254//254 255//255
f 384//384 255//255 383//383
f 256//256 384//384 391//391
f 68//68 258//258 257//257
f 257//257 258//258 260//260
f 69//69 259//259 258//258
f 70//70 272//272 259//259
f 258//258 259//259 261//261
f 259//259 272//272 262//262
f 258//258 261//261 260//260
f 260//260 261//261 281//281
f 261//261 259//259 262//262
f 261//261 262//262 282//282
f 262//262 275//275 286//286
f 72//72 273//273 272//272
f 272//272 273//273 275//275
f 73//73 274//274 273//273
f 273//273 274//274 276//276
f 262//262 272//272 275//275
f 275//275 273//273 276//276
f 275//275 276//276 315//315
f 274//274 279//279 276//276
f 76//76 277//277 274//274
f 77//77 278//278 277//277
f 274//274 277//277 279//279
f 277//277 278//278 280//280
f 108//108 354//354 278//278
f 278//278 354//354 357//357
f 277//277 280//280 279//279
f 276//276 279//279 319//319
f 279//279 280//280 320//320
f 278//278 357//357 280//280
f 280//280 357//357 404//404
f 261//261 282//282 281//281
f 281//281 282//282 288//288
f 282//282 289//289 288//288
f 262//262 286//286 282//282
f 282//282 286//286 289//289
f 288//288 289//289 292//292
f 289//289 295//295 292//292
f 292//292 294//294 293//293
f 292//292 295//295 294//294
f 289//289 297//297 295//295
f 289//289 298//298 297//297
f 289//289 299//299 298//298
f 289//289 302//302 299//299
f 286//286 300//300 289//289
f 289//289 300//300 302//302
f 300//300 304//304 303//303
f 300//300 303//303 302//302
f 300//300 306//306 304//304
f 300//300 311//311 306//306
f 300//300 312//312 311//311
f 286//286 275//275 315//315
f 276//276 319//319 315//315
f 286//286 315//315 300//300
f 315//315 319//319 321//321
f 315//315 321//321 300//300
f 300//300 321//321 312//312
f 279//279 320//320 319//319
f 319//319 320//320 334//334
f 280//280 404//404 320//320
f 320//320 424//424 334//334
f 320//320 404//404 424//424
f 319//319 334//334 321//321
f 321//321 313//313 312//312
f 321//321 314//314 313//313
f 321//321 323//323 314//314
f 321//321 325//325 323//323
f 321//321 326//326 325//325
f 321//321 327//327 326//326
f 321//321 334//334 327//327
f 334//334 328//328 327//327
f 334//334 329//329 328//328
f 334//334 331//331 329//329
f 334//334 332//332 331//331
f 334//334 414//414 332//332
f 414//414 333//333 332//332
f 414//414 411//411 333//333
f 334//334 424//424 414//414
f 101//101 348//348 349//349
f 348//348 351//351 349//349
f 102//102 349//349 350//350
f 103//103 350//350 361//361
f 349//349 352//352 350//350
f 350//350 353//353 361//361
f 349//349 351//351 352//352
f 351//351 377//377 352//352
f 352//352 353//353 350//350
f 352//352 378//378 353//353
f 353//353 380//380 363//363
f 108//108 355//355 354//354
f 354//354 355//355 357//357
f 109//109 356//356 355//355
f 110//110 362//362 356//356
f 355//355 356//356 358//358
f 356//356 362//362 359//359
f 355//355 358//358 357//357
f 357//357 358//358 404//404
f 358//358 356//356 359//359
f 359//359 364//364 406//406
f 358//358 359//359 405//405
f 112//112 361//361 360//360
f 360//360 361//361 363//363
f 113//113 360//360 362//362
f 360//360 364//364 362//362
f 360//360 363//363 364//364
f 363//363 426//426 364//364
f 353//353 363//363 361//361
f 359//359 362//362 364//364
f 352//352 377//377 378//378
f 377//377 391//391 378//378
f 378//378 391//391 392//392
f 353//353 378//378 380//380
f 378//378 392//392 380//380
f 384//384 386//386 392//392
f 384//384 383//383 385//385
f 384//384 385//385 386//386
f 392//392 390//390 387//387
f 392//392 386//386 390//390
f 392//392 387//387 388//388
f 392//392 388//388 396//396
f 384//384 392//392 391//391
f 380//380 392//392 393//393
f 393//393 395//395 397//397
f 393//393 396//396 395//395
f 392//392 396//396 393//393
f 393//393 399//399 370//370
f 393//393 397//397 399//399
f 393//393 370//370 372//372
f 358//358 405//405 404//404
f 405//405 425//425 424//424
f 404//404 405//405 424//424
f 359//359 406//406 405//405
f 405//405 406//406 425//425
f 414//414 425//425 413//413
f 414//414 412//412 411//411
f 414//414 413//413 412//412
f 425//425 408//408 416//416
f 425//425 409//409 408//408
f 425//425 420//420 409//409
f 425//425 416//416 413//413
f 406//406 417//417 425//425
f 417//417 421//421 419//419
f 417//417 419//419 420//420
f 417//417 371//371 423//423
f 417//417 372//372 373//373
f 417//417 373//373 371//371
f 417//417 423//423 421//421
f 417//417 420//420 425//425
f 414//414 424//424 425//425
f 380//380 426//426 363//363
f 406//406 364//364 426//426
f 380//380 393//393 426//426
f 406//406 426//426 417//417
f 426//426 393//393 417//417
f 393//393 372//372 417//417
f 128//128 192//192 230//230
f 128//128 127//127 129//129
f 128//128 129//129 192//192
f 129//129 190//190 192//192
f 130//130 131//131 127//127
f 130//130 307//307 264//264
f 130//130 264//264 131//131
f 131//131 264//264 263//263
f 129//129 131//131 132//132
f 129//129 132//132 190//190
f 132//132 195//195 190//190
f 131//131 263//263 132//132
f 132//132 263//263 267//267
f 195//195 267//267 335//335
f 132//132 267//267 195//195
f 127//127 131//131 129//129
f 137//137 230//230 207//207
f 137//137 138//138 136//136
f 137//137 207//207 138//138
f 138//138 207//207 212//212
f 141//141 136//136 143//143
f 141//141 142//142 175//175
f 177//177 175//175 142//142
f 141//141 143//143 144//144
f 143//143 145//145 146//146
f 143//143 146//146 144//144
f 141//141 144//144 142//142
f 147//147 212//212 213//213
f 136//136 138//138 143//143
f 138//138 147//147 143//143
f 138//138 212//212 147//147
f 147//147 152//152 151//151
f 147//147 148//148 152//152
f 147//147 149//149 148//148
f 147//147 213//213 150//150
f 147//147 150//150 149//149
f 213//213 215//215 150//150
f 143//143 147//147 151//151
f 143//143 151//151 145//145
f 156//156 284//284 307//307
f 156//156 154//154 157//157
f 156//156 157//157 284//284
f 157//157 290//290 284//284
f 159//159 161//161 154//154
f 159//159 176//176 160//160
f 178//178 160//160 176//176
f 159//159 162//162 161//161
f 159//159 160//160 162//162
f 161//161 162//162 164//164
f 161//161 164//164 163//163
f 154//154 161//161 157//157
f 157//157 161//161 166//166
f 166//166 291//291 290//290
f 157//157 166//166 290//290
f 166//166 168//168 169//169
f 166//166 169//169 167//167
f 166//166 167//167 170//170
f 161//161 168//168 166//166
f 161//161 163//163 168//168
f 166//166 171//171 291//291
f 166//166 170//170 171//171
f 291//291 171//171 293//293
f 172//172 174//174 173//173
f 172//172 173//173 127//127
f 172//172 136//136 174//174
f 173//173 174//174 154//154
f 128//128 137//137 172//172
f 128//128 230//230 137//137
f 128//128 172//172 127//127
f 137//137 136//136 172//172
f 130//130 173//173 156//156
f 130//130 127//127 173//173
f 130//130 156//156 307//307
f 173//173 154//154 156//156
f 174//174 141//141 159//159
f 174//174 136//136 141//141
f 174//174 159//159 154//154
f 141//141 176//176 159//159
f 141//141 175//175 176//176
f 192//192 191//191 230//230
f 192//192 193//193 191//191
f 192//192 190//190 193//193
f 191//191 193//193 194//194
f 190//190 196//196 193//193
f 190//190 195//195 196//196
f 193//193 196//196 197//197
f 195//195 335//335 336//336
f 195//195 336//336 196//196
f 196//196 339//339 197//197
f 196//196 336//336 339//339
f 193//193 197//197 194//194
f 194//194 197//197 198//198
f 197//197 340//340 198//198
f 197//197 339//339 340//340
f 198//198 340//340 365//365
f 207//207 230//230 206//206
f 207//207 206//206 208//208
f 207//207 208//208 212//212
f 206//206 209//209 208//208
f 212//212 218//218 213//213
f 212//212 208//208 218//218
f 208//208 209//209 223//223
f 208//208 223//223 218//218
f 213//213 218//218 216//216
f 213//213 216//216 215//215
f 218//218 217//217 216//216
f 218//218 219//219 217//217
f 218//218 220//220 219//219
f 218//218 221//221 220//220
f 218//218 223//223 221//221
f 223//223 224//224 221//221
f 209//209 227//227 223//223
f 223//223 227//227 226//226
f 223//223 225//225 224//224
f 223//223 226//226 225//225
f 227//227 228//228 226//226
f 227//227 235//235 228//228
f 234//234 228//228 235//235
f 191//191 206//206 230//230
f 191//191 231//231 206//206
f 191//191 194//194 231//231
f 206//206 231//231 209//209
f 231//231 232//232 233//233
f 231//231 194//194 232//232
f 231//231 233//233 209//209
f 232//232 238//238 233//233
f 194//194 198//198 232//232
f 198//198 240//240 232//232
f 198//198 365//365 240//240
f 232//232 240//240 238//238
f 209//209 233//233 227//227
f 233//233 244//244 227//227
f 233//233 238//238 244//244
f 227//227 244//244 235//235
f 244//244 236//236 235//235
f 240//240 365//365 375//375
f 240//240 241//241 238//238
f 240//240 375//375 241//241
f 241//241 375//375 381//381
f 244//244 238//238 246//246
f 244//244 245//245 236//236
f 237//237 236//236 245//245
f 244//244 246//246 247//247
f 244//244 247//247 245//245
f 246//246 248//248 247//247
f 246//246 249//249 248//248
f 238//238 241//241 246//246
f 241//241 252//252 246//246
f 241//241 381//381 252//252
f 252//252 381//381 382//382
f 246//246 252//252 250//250
f 246//246 250//250 249//249
f 252//252 251//251 250//250
f 252//252 253//253 251//251
f 252//252 254//254 253//253
f 252//252 382//382 255//255
f 252//252 255//255 254//254
f 382//382 383//383 255//255
f 264//264 307//307 265//265
f 264//264 266//266 263//263
f 264//264 265//265 266//266
f 265//265 269//269 266//266
f 263//263 268//268 267//267
f 263//263 266//266 268//268
f 267//267 337//337 335//335
f 267//267 268//268 337//337
f 266//266 270//270 268//268
f 268//268 343//343 337//337
f 268//268 270//270 343//343
f 266//266 269//269 270//270
f 269//269 271//271 270//270
f 270//270 344//344 343//343
f 270//270 271//271 344//344
f 271//271 366//366 344//344
f 284//284 283//283 307//307
f 284//284 285//285 283//283
f 284//284 290//290 285//285
f 283//283 285//285 287//287
f 290//290 291//291 296//296
f 290//290 296//296 285//285
f 285//285 301//301 287//287
f 285//285 296//296 301//301
f 291//291 294//294 296//296
f 291//291 293//293 294//294
f 296//296 294//294 295//295
f 296//296 295//295 297//297
f 296//296 297//297 298//298
f 296//296 298//298 299//299
f 296//296 299//299 301//301
f 301//301 299//299 302//302
f 287//287 301//301 305//305
f 301//301 304//304 305//305
f 301//301 302//302 303//303
f 301//301 303//303 304//304
f 305//305 304//304 306//306
f 305//305 306//306 312//312
f 311//311 312//312 306//306
f 265//265 307//307 283//283
f 265//265 283//283 308//308
f 265//265 308//308 269//269
f 283//283 287//287 308//308
f 308//308 309//309 269//269
f 308//308 310//310 309//309
f 308//308 287//287 310//310
f 309//309 310//310 316//316
f 269//269 309//309 271//271
f 271//271 309//309 317//317
f 271//271 317//317 366//366
f 309//309 316//316 317//317
f 287//287 305//305 310//310
f 310//310 305//305 322//322
f 310//310 322//322 316//316
f 305//305 313//313 322//322
f 305//305 312//312 313//313
f 317//317 401//401 366//366
f 317//317 316//316 318//318
f 317//317 318//318 401//401
f 318//318 407//407 401//401
f 322//322 324//324 316//316
f 322//322 313//313 323//323
f 314//314 323//323 313//313
f 322//322 325//325 324//324
f 322//322 323//323 325//325
f 324//324 325//325 326//326
f 324//324 326//326 327//327
f 316//316 324//324 318//318
f 318//318 324//324 330//330
f 318//318 330//330 407//407
f 330//330 410//410 407//407
f 324//324 328//328 330//330
f 324//324 327//327 328//328
f 330//330 328//328 329//329
f 330//330 329//329 331//331
f 330//330 331//331 332//332
f 330//330 333//333 410//410
f 330//330 332//332 333//333
f 410//410 333//333 411//411
f 335//335 337//337 336//336
f 336//336 337//337 338//338
f 336//336 338//338 339//339
f 338//338 341//341 339//339
f 337//337 343//343 338//338
f 338//338 343//343 345//345
f 338//338 345//345 341//341
f 341//341 345//345 347//347
f 339//339 341//341 340//340
f 341//341 342//342 340//340
f 340//340 342//342 365//365
f 341//341 347//347 342//342
f 343//343 344//344 345//345
f 345//345 344//344 346//346
f 345//345 346//346 347//347
f 344//344 366//366 346//346
f 342//342 374//374 365//365
f 347//347 367//367 342//342
f 342//342 367//367 374//374
f 374//374 367//367 379//379
f 347//347 346//346 368//368
f 346//346 366//366 400//400
f 346//346 400//400 368//368
f 368//368 400//400 403//403
f 347//347 368//368 367//367
f 367//367 368//368 369//369
f 367//367 369//369 379//379
f 368//368 403//403 369//369
f 379//379 369//369 398//398
f 403//403 422//422 369//369
f 369//369 422//422 398//398
f 398//398 422//422 373//373
f 398//398 373//373 372//372
f 365//365 374//374 375//375
f 375//375 374//374 376//376
f 375//375 376//376 381//381
f 374//374 379//379 376//376
f 381//381 376//376 389//389
f 381//381 389//389 382//382
f 376//376 379//379 394//394
f 376//376 394//394 389//389
f 382//382 389//389 385//385
f 382//382 385//385 383//383
f 389//389 386//386 385//385
f 389//389 394//394 388//388
f 394//394 396//396 388//388
f 389//389 390//390 386//386
f 389//389 387//387 390//390
f 389//389 388//388 387//387
f 379//379 398//398 394//394
f 394//394 398//398 397//397
f 394//394 395//395 396//396
f 394//394 397//397 395//395
f 398//398 399//399 397//397
f 398//398 372//372 399//399
f 370//370 399//399 372//372
f 366//366 401//401 400//400
f 401//401 402//402 400//400
f 401//401 407//407 402//402
f 400//400 402//402 403//403
f 407//407 415//415 402//402
f 402//402 418//418 403//403
f 402//402 415//415 418//418
f 407//407 410//410 415//415
f 415//415 409//409 418//418
f 418//418 409//409 420//420
f 410//410 412//412 415//415
f 410//410 411//411 412//412
f 415//415 412//412 413//413
f 415//415 413//413 416//416
f 415//415 416//416 408//408
f 415//415 408//408 409//409
f 403//403 418//418 422//422
f 418//418 421//421 422//422
f 422//422 421//421 423//423
f 418//418 419//419 421//421
f 418//418 420//420 419//419
f 422//422 423//423 373//373
f 371//371 373//373 423//423
