ISO-10303-21;
HEADER;
FILE_DESCRIPTION(('ViewDefinition [CoordinationView_V2.0]'),'2;1');
FILE_NAME('Attic.ifc','',(''),(''),'semio BIM','semio BIM','');
FILE_SCHEMA(('IFC2X3'));
ENDSEC;

DATA;
#1= IFCPERSON($,'',$,$,$,$,$,$);
#2= IFCORGANIZATION($,'',$,$,$);
#3= IFCPERSONANDORGANIZATION(#1,#2,$);
#4= IFCAPPLICATION(#2,'1','semio BIM','semio.bim');
#5= IFCOWNERHISTORY(#3,#4,$,.ADDED.,$,$,$,0);
#6= IFCCARTESIANPOINT((0.,0.,0.));
#7= IFCAXIS2PLACEMENT3D(#6,$,$);
#8= IFCDIRECTION((0.,1.));
#9= IFCGEOMETRICREPRESENTATIONCONTEXT($,'Model',3,0.000001,#7,#8);
#10= IFCGEOMETRICREPRESENTATIONSUBCONTEXT('Body','Model',*,*,*,*,#9,$,.MODEL_VIEW.,$);
#11= IFCGEOMETRICREPRESENTATIONSUBCONTEXT('Axis','Model',*,*,*,*,#9,$,.GRAPH_VIEW.,$);
#12= IFCGEOMETRICREPRESENTATIONSUBCONTEXT('FootPrint','Model',*,*,*,*,#9,$,.PLAN_VIEW.,$);
#13= IFCMATERIAL('Brick');
#14= IFCPROPERTYSINGLEVALUE('MassDensity',$,IFCMASSDENSITYMEASURE(1800.),$);
#15= IFCEXTENDEDMATERIALPROPERTIES(#13,(#14),$,'Pset_MaterialCommon');
#16= IFCPROPERTYSINGLEVALUE('ThermalConductivity',$,IFCTHERMALCONDUCTIVITYMEASURE(0.8),$);
#17= IFCPROPERTYSINGLEVALUE('SpecificHeatCapacity',$,IFCSPECIFICHEATCAPACITYMEASURE(900.),$);
#18= IFCEXTENDEDMATERIALPROPERTIES(#13,(#16,#17),$,'Pset_MaterialThermal');
#19= IFCPROPERTYSINGLEVALUE('Id',$,IFCLABEL('m-brick'),$);
#20= IFCPROPERTYSINGLEVALUE('Category',$,IFCLABEL('Masonry'),$);
#21= IFCPROPERTYSINGLEVALUE('Red',$,IFCREAL(0.7),$);
#22= IFCPROPERTYSINGLEVALUE('Green',$,IFCREAL(0.6),$);
#23= IFCPROPERTYSINGLEVALUE('Blue',$,IFCREAL(0.5),$);
#24= IFCEXTENDEDMATERIALPROPERTIES(#13,(#19,#20,#21,#22,#23),$,'Semio_Authoring');
#25= IFCMATERIAL('Concrete');
#26= IFCPROPERTYSINGLEVALUE('MassDensity',$,IFCMASSDENSITYMEASURE(2400.),$);
#27= IFCEXTENDEDMATERIALPROPERTIES(#25,(#26),$,'Pset_MaterialCommon');
#28= IFCPROPERTYSINGLEVALUE('ThermalConductivity',$,IFCTHERMALCONDUCTIVITYMEASURE(0.8),$);
#29= IFCPROPERTYSINGLEVALUE('SpecificHeatCapacity',$,IFCSPECIFICHEATCAPACITYMEASURE(900.),$);
#30= IFCEXTENDEDMATERIALPROPERTIES(#25,(#28,#29),$,'Pset_MaterialThermal');
#31= IFCPROPERTYSINGLEVALUE('Id',$,IFCLABEL('m-conc'),$);
#32= IFCPROPERTYSINGLEVALUE('Category',$,IFCLABEL('Concrete'),$);
#33= IFCPROPERTYSINGLEVALUE('Red',$,IFCREAL(0.7),$);
#34= IFCPROPERTYSINGLEVALUE('Green',$,IFCREAL(0.6),$);
#35= IFCPROPERTYSINGLEVALUE('Blue',$,IFCREAL(0.5),$);
#36= IFCEXTENDEDMATERIALPROPERTIES(#25,(#31,#32,#33,#34,#35),$,'Semio_Authoring');
#37= IFCMATERIAL('Paint');
#38= IFCPROPERTYSINGLEVALUE('MassDensity',$,IFCMASSDENSITYMEASURE(1200.),$);
#39= IFCEXTENDEDMATERIALPROPERTIES(#37,(#38),$,'Pset_MaterialCommon');
#40= IFCPROPERTYSINGLEVALUE('ThermalConductivity',$,IFCTHERMALCONDUCTIVITYMEASURE(0.8),$);
#41= IFCPROPERTYSINGLEVALUE('SpecificHeatCapacity',$,IFCSPECIFICHEATCAPACITYMEASURE(900.),$);
#42= IFCEXTENDEDMATERIALPROPERTIES(#37,(#40,#41),$,'Pset_MaterialThermal');
#43= IFCPROPERTYSINGLEVALUE('Id',$,IFCLABEL('m-paint'),$);
#44= IFCPROPERTYSINGLEVALUE('Category',$,IFCLABEL('Finish'),$);
#45= IFCPROPERTYSINGLEVALUE('Red',$,IFCREAL(0.7),$);
#46= IFCPROPERTYSINGLEVALUE('Green',$,IFCREAL(0.6),$);
#47= IFCPROPERTYSINGLEVALUE('Blue',$,IFCREAL(0.5),$);
#48= IFCEXTENDEDMATERIALPROPERTIES(#37,(#43,#44,#45,#46,#47),$,'Semio_Authoring');
#49= IFCMATERIAL('Tile');
#50= IFCPROPERTYSINGLEVALUE('MassDensity',$,IFCMASSDENSITYMEASURE(2000.),$);
#51= IFCEXTENDEDMATERIALPROPERTIES(#49,(#50),$,'Pset_MaterialCommon');
#52= IFCPROPERTYSINGLEVALUE('ThermalConductivity',$,IFCTHERMALCONDUCTIVITYMEASURE(0.8),$);
#53= IFCPROPERTYSINGLEVALUE('SpecificHeatCapacity',$,IFCSPECIFICHEATCAPACITYMEASURE(900.),$);
#54= IFCEXTENDEDMATERIALPROPERTIES(#49,(#52,#53),$,'Pset_MaterialThermal');
#55= IFCPROPERTYSINGLEVALUE('Id',$,IFCLABEL('m-tile'),$);
#56= IFCPROPERTYSINGLEVALUE('Category',$,IFCLABEL('Other'),$);
#57= IFCPROPERTYSINGLEVALUE('Red',$,IFCREAL(0.7),$);
#58= IFCPROPERTYSINGLEVALUE('Green',$,IFCREAL(0.6),$);
#59= IFCPROPERTYSINGLEVALUE('Blue',$,IFCREAL(0.5),$);
#60= IFCEXTENDEDMATERIALPROPERTIES(#49,(#55,#56,#57,#58,#59),$,'Semio_Authoring');
#61= IFCPROPERTYSINGLEVALUE('LayerFunctions',$,IFCLABEL('Structure'),$);
#62= IFCPROPERTYSET('3m$yVyG9W8$eq6AOyBgbgH',#5,'Semio_Authoring',$,(#61));
#63= IFCWALLTYPE('0OOt0ztQFFVr5XB9psd9QI',#5,'Brick 300',$,$,(#62),$,'wt-300',$,.STANDARD.);
#64= IFCMATERIALLAYER(#13,0.3,$);
#65= IFCMATERIALLAYERSET((#64),'Brick 300');
#66= IFCPROPERTYSINGLEVALUE('LayerFunctions',$,IFCLABEL('Structure'),$);
#67= IFCPROPERTYSET('1vqOqVD5LvxM4mu60j5aCm',#5,'Semio_Authoring',$,(#66));
#68= IFCSLABTYPE('2O09ZM1eTN3S9NyXCk1gcx',#5,'Concrete 200',$,$,(#67),$,'slt-200',$,.FLOOR.);
#69= IFCMATERIALLAYER(#25,0.2,$);
#70= IFCMATERIALLAYERSET((#69),'Concrete 200');
#71= IFCPROPERTYSINGLEVALUE('LayerFunctions',$,IFCLABEL('Finish'),$);
#72= IFCPROPERTYSET('2nr_APC2g5$lNxNNSfbARq',#5,'Semio_Authoring',$,(#71));
#73= IFCBUILDINGELEMENTPROXYTYPE('1eCMiMQxljKvswmzteW3GM',#5,'Tile',$,$,(#72),$,'rt-tile','RoofType',.USERDEFINED.);
#74= IFCMATERIALLAYER(#49,0.1,$);
#75= IFCMATERIALLAYERSET((#74),'Tile');
#76= IFCPROPERTYSINGLEVALUE('Width',$,IFCREAL(1.2),$);
#77= IFCPROPERTYSINGLEVALUE('Height',$,IFCREAL(1.2),$);
#78= IFCPROPERTYSINGLEVALUE('Sill',$,IFCREAL(0.9),$);
#79= IFCPROPERTYSINGLEVALUE('FrameWidth',$,IFCREAL(0.06),$);
#80= IFCPROPERTYSINGLEVALUE('FrameDepth',$,IFCREAL(0.08),$);
#81= IFCPROPERTYSINGLEVALUE('Panes',$,IFCINTEGER(1),$);
#82= IFCPROPERTYSINGLEVALUE('Material',$,IFCLABEL('m-paint'),$);
#83= IFCPROPERTYSINGLEVALUE('MaterialName',$,IFCLABEL('Paint'),$);
#84= IFCPROPERTYSET('0jOIpuJnN0sCt5d3Pe9pRA',#5,'Semio_Authoring',$,(#76,#77,#78,#79,#80,#81,#82,#83));
#85= IFCWINDOWSTYLE('37Z6MgC6ugPtu6XYJZ0$rU',#5,'Window',$,$,(#84),$,'win-1',.NOTDEFINED.,.NOTDEFINED.,.F.,.T.);
#86= IFCPROPERTYSINGLEVALUE('Width',$,IFCREAL(0.9),$);
#87= IFCPROPERTYSINGLEVALUE('Height',$,IFCREAL(2.1),$);
#88= IFCPROPERTYSINGLEVALUE('FrameWidth',$,IFCREAL(0.05),$);
#89= IFCPROPERTYSINGLEVALUE('FrameDepth',$,IFCREAL(0.1),$);
#90= IFCPROPERTYSINGLEVALUE('Leaves',$,IFCLABEL('Single'),$);
#91= IFCPROPERTYSINGLEVALUE('Swing',$,IFCLABEL('Left'),$);
#92= IFCPROPERTYSINGLEVALUE('Material',$,IFCLABEL('m-paint'),$);
#93= IFCPROPERTYSET('3wXiArhw8Yn8HCsKCAXG0G',#5,'Semio_Authoring',$,(#86,#87,#88,#89,#90,#91,#92));
#94= IFCDOORSTYLE('23wIQ7cV2CMpwhugoQDwvX',#5,'Door',$,$,(#93),$,'door-1',.SINGLE_SWING_LEFT.,.NOTDEFINED.,.F.,.T.);
#95= IFCSIUNIT(*,.LENGTHUNIT.,$,.METRE.);
#96= IFCSIUNIT(*,.AREAUNIT.,$,.SQUARE_METRE.);
#97= IFCSIUNIT(*,.VOLUMEUNIT.,$,.CUBIC_METRE.);
#98= IFCSIUNIT(*,.PLANEANGLEUNIT.,$,.RADIAN.);
#99= IFCUNITASSIGNMENT((#95,#96,#97,#98));
#100= IFCPROJECT('1w8OAdRUto0JEzixroLdqB',#5,'Attic','Walls under roofs, on a sloped slab, with sweeps and reveals',$,$,$,(#9),#99);
#101= IFCLOCALPLACEMENT($,#7);
#102= IFCSITE('1QBh6LzYuAptPPqA16Z5bc',#5,'Plot',$,'site-1',#101,$,$,.ELEMENT.,(47,0,0,0),(8,0,0,0),100.,$,$);
#103= IFCLOCALPLACEMENT(#101,#7);
#104= IFCBUILDING('0HBDLIrKAxSZKIwlXVGe62',#5,'House',$,'bldg-1',#103,$,$,.ELEMENT.,100.,$,$);
#105= IFCLOCALPLACEMENT(#103,#7);
#106= IFCBUILDINGSTOREY('0sAopo7ie05KbYp5G_A1mq',#5,'Ground',$,'st-0',#105,$,$,.ELEMENT.,0.);
#107= IFCCARTESIANPOINT((0.,0.,3.));
#108= IFCAXIS2PLACEMENT3D(#107,$,$);
#109= IFCLOCALPLACEMENT(#103,#108);
#110= IFCBUILDINGSTOREY('0UOha5yAw4q$hf2HaLgm58',#5,'First',$,'st-1',#109,$,$,.ELEMENT.,3.);
#111= IFCCARTESIANPOINT((41.,0.15,3.));
#112= IFCCARTESIANPOINT((49.,0.15,-0.903012049));
#113= IFCCARTESIANPOINT((41.,0.15,-0.100334672));
#114= IFCCARTESIANPOINT((41.,-0.15,3.));
#115= IFCCARTESIANPOINT((41.,-0.15,-0.100334672));
#116= IFCCARTESIANPOINT((49.,-0.15,-0.903012049));
#117= IFCCARTESIANPOINT((49.,0.15,3.));
#118= IFCCARTESIANPOINT((49.,-0.15,3.));
#119= IFCPOLYLOOP((#111,#112,#113));
#120= IFCFACEOUTERBOUND(#119,.T.);
#121= IFCFACE((#120));
#122= IFCPOLYLOOP((#114,#115,#116));
#123= IFCFACEOUTERBOUND(#122,.T.);
#124= IFCFACE((#123));
#125= IFCPOLYLOOP((#111,#117,#112));
#126= IFCFACEOUTERBOUND(#125,.T.);
#127= IFCFACE((#126));
#128= IFCPOLYLOOP((#114,#116,#118));
#129= IFCFACEOUTERBOUND(#128,.T.);
#130= IFCFACE((#129));
#131= IFCPOLYLOOP((#113,#112,#116));
#132= IFCFACEOUTERBOUND(#131,.T.);
#133= IFCFACE((#132));
#134= IFCPOLYLOOP((#113,#116,#115));
#135= IFCFACEOUTERBOUND(#134,.T.);
#136= IFCFACE((#135));
#137= IFCPOLYLOOP((#112,#117,#118));
#138= IFCFACEOUTERBOUND(#137,.T.);
#139= IFCFACE((#138));
#140= IFCPOLYLOOP((#112,#118,#116));
#141= IFCFACEOUTERBOUND(#140,.T.);
#142= IFCFACE((#141));
#143= IFCPOLYLOOP((#117,#111,#114));
#144= IFCFACEOUTERBOUND(#143,.T.);
#145= IFCFACE((#144));
#146= IFCPOLYLOOP((#117,#114,#118));
#147= IFCFACEOUTERBOUND(#146,.T.);
#148= IFCFACE((#147));
#149= IFCPOLYLOOP((#111,#113,#115));
#150= IFCFACEOUTERBOUND(#149,.T.);
#151= IFCFACE((#150));
#152= IFCPOLYLOOP((#111,#115,#114));
#153= IFCFACEOUTERBOUND(#152,.T.);
#154= IFCFACE((#153));
#155= IFCCLOSEDSHELL((#121,#124,#127,#130,#133,#136,#139,#142,#145,#148,#151,#154));
#156= IFCFACETEDBREP(#155);
#157= IFCLOCALPLACEMENT(#105,#7);
#158= IFCCARTESIANPOINT((41.,0.));
#159= IFCCARTESIANPOINT((49.,0.));
#160= IFCPOLYLINE((#158,#159));
#161= IFCSHAPEREPRESENTATION(#10,'Body','Brep',(#156));
#162= IFCSHAPEREPRESENTATION(#11,'Axis','Curve2D',(#160));
#163= IFCPRODUCTDEFINITIONSHAPE($,$,(#162,#161));
#164= IFCWALL('2X3ToGT5toA8ZQmeW55zdO',#5,'On the slope',$,$,#157,#163,'w-base');
#165= IFCMATERIALLAYERSETUSAGE(#65,.AXIS2.,.NEGATIVE.,0.15);
#166= IFCPROPERTYSINGLEVALUE('TopKind',$,IFCLABEL('StoreyTop'),$);
#167= IFCPROPERTYSINGLEVALUE('TopTarget',$,IFCLABEL(''),$);
#168= IFCPROPERTYSINGLEVALUE('TopOffset',$,IFCREAL(0.),$);
#169= IFCPROPERTYSINGLEVALUE('TopHeight',$,IFCREAL(0.),$);
#170= IFCPROPERTYSINGLEVALUE('BaseSlab',$,IFCLABEL('sl-slope'),$);
#171= IFCPROPERTYSINGLEVALUE('BaseOffset',$,IFCREAL(0.),$);
#172= IFCPROPERTYSINGLEVALUE('Height',$,IFCREAL(3.903012049),$);
#173= IFCPROPERTYSINGLEVALUE('BaseLevel',$,IFCREAL(-0.903012049),$);
#174= IFCPROPERTYSET('0Ti43TwecuAqeyHR9VEtAF',#5,'Semio_WallAttach',$,(#166,#167,#168,#169,#170,#171,#172,#173));
#175= IFCRELDEFINESBYPROPERTIES('0$VGfuGHVCBbQRGGefHmED',#5,$,$,(#164),#174);
#176= IFCCARTESIANPOINT((60.,0.,0.));
#177= IFCDIRECTION((0.,0.,1.));
#178= IFCDIRECTION((1.,0.,0.));
#179= IFCAXIS2PLACEMENT3D(#176,#177,#178);
#180= IFCLOCALPLACEMENT(#105,#179);
#181= IFCCARTESIANPOINT((4.,0.));
#182= IFCAXIS2PLACEMENT2D(#181,$);
#183= IFCRECTANGLEPROFILEDEF(.AREA.,$,#182,8.,0.3);
#184= IFCEXTRUDEDAREASOLID(#183,#7,#177,3.);
#185= IFCCARTESIANPOINT((0.,0.));
#186= IFCCARTESIANPOINT((8.,0.));
#187= IFCPOLYLINE((#185,#186));
#188= IFCSHAPEREPRESENTATION(#10,'Body','SweptSolid',(#184));
#189= IFCSHAPEREPRESENTATION(#11,'Axis','Curve2D',(#187));
#190= IFCPRODUCTDEFINITIONSHAPE($,$,(#189,#188));
#191= IFCWALLSTANDARDCASE('2iDNRcg2bgBoICbg2859nP',#5,'Door and windows',$,$,#180,#190,'w-door');
#192= IFCMATERIALLAYERSETUSAGE(#65,.AXIS2.,.NEGATIVE.,0.15);
#193= IFCCARTESIANPOINT((7.85,0.15,2.902620521));
#194= IFCCARTESIANPOINT((7.85,5.85,0.));
#195= IFCCARTESIANPOINT((7.85,0.15,0.));
#196= IFCCARTESIANPOINT((8.15,-0.15,2.697379479));
#197= IFCCARTESIANPOINT((8.15,-0.15,0.));
#198= IFCCARTESIANPOINT((8.15,6.15,0.));
#199= IFCCARTESIANPOINT((7.85,5.85,2.902620521));
#200= IFCCARTESIANPOINT((8.15,6.15,2.697379479));
#201= IFCCARTESIANPOINT((7.85,3.,4.852410425));
#202= IFCCARTESIANPOINT((8.15,3.,4.852410425));
#203= IFCPOLYLOOP((#193,#194,#195));
#204= IFCFACEOUTERBOUND(#203,.T.);
#205= IFCFACE((#204));
#206= IFCPOLYLOOP((#196,#197,#198));
#207= IFCFACEOUTERBOUND(#206,.T.);
#208= IFCFACE((#207));
#209= IFCPOLYLOOP((#193,#199,#194));
#210= IFCFACEOUTERBOUND(#209,.T.);
#211= IFCFACE((#210));
#212= IFCPOLYLOOP((#196,#198,#200));
#213= IFCFACEOUTERBOUND(#212,.T.);
#214= IFCFACE((#213));
#215= IFCPOLYLOOP((#193,#201,#199));
#216= IFCFACEOUTERBOUND(#215,.T.);
#217= IFCFACE((#216));
#218= IFCPOLYLOOP((#196,#200,#202));
#219= IFCFACEOUTERBOUND(#218,.T.);
#220= IFCFACE((#219));
#221= IFCPOLYLOOP((#195,#194,#198));
#222= IFCFACEOUTERBOUND(#221,.T.);
#223= IFCFACE((#222));
#224= IFCPOLYLOOP((#195,#198,#197));
#225= IFCFACEOUTERBOUND(#224,.T.);
#226= IFCFACE((#225));
#227= IFCPOLYLOOP((#194,#199,#200));
#228= IFCFACEOUTERBOUND(#227,.T.);
#229= IFCFACE((#228));
#230= IFCPOLYLOOP((#194,#200,#198));
#231= IFCFACEOUTERBOUND(#230,.T.);
#232= IFCFACE((#231));
#233= IFCPOLYLOOP((#199,#201,#202));
#234= IFCFACEOUTERBOUND(#233,.T.);
#235= IFCFACE((#234));
#236= IFCPOLYLOOP((#199,#202,#200));
#237= IFCFACEOUTERBOUND(#236,.T.);
#238= IFCFACE((#237));
#239= IFCPOLYLOOP((#201,#193,#196));
#240= IFCFACEOUTERBOUND(#239,.T.);
#241= IFCFACE((#240));
#242= IFCPOLYLOOP((#201,#196,#202));
#243= IFCFACEOUTERBOUND(#242,.T.);
#244= IFCFACE((#243));
#245= IFCPOLYLOOP((#193,#195,#197));
#246= IFCFACEOUTERBOUND(#245,.T.);
#247= IFCFACE((#246));
#248= IFCPOLYLOOP((#193,#197,#196));
#249= IFCFACEOUTERBOUND(#248,.T.);
#250= IFCFACE((#249));
#251= IFCCLOSEDSHELL((#205,#208,#211,#214,#217,#220,#223,#226,#229,#232,#235,#238,#241,#244,#247,#250));
#252= IFCFACETEDBREP(#251);
#253= IFCLOCALPLACEMENT(#109,#7);
#254= IFCCARTESIANPOINT((8.,6.));
#255= IFCPOLYLINE((#186,#254));
#256= IFCSHAPEREPRESENTATION(#10,'Body','Brep',(#252));
#257= IFCSHAPEREPRESENTATION(#11,'Axis','Curve2D',(#255));
#258= IFCPRODUCTDEFINITIONSHAPE($,$,(#257,#256));
#259= IFCWALL('2gQEIz0i04zpCOjJsgqk0u',#5,'Gable end east',$,$,#253,#258,'w-east');
#260= IFCMATERIALLAYERSETUSAGE(#65,.AXIS2.,.NEGATIVE.,0.15);
#261= IFCPROPERTYSINGLEVALUE('TopKind',$,IFCLABEL('Roof'),$);
#262= IFCPROPERTYSINGLEVALUE('TopTarget',$,IFCLABEL('r-gable'),$);
#263= IFCPROPERTYSINGLEVALUE('TopOffset',$,IFCREAL(0.),$);
#264= IFCPROPERTYSINGLEVALUE('TopHeight',$,IFCREAL(0.),$);
#265= IFCPROPERTYSINGLEVALUE('BaseSlab',$,IFCLABEL(''),$);
#266= IFCPROPERTYSINGLEVALUE('BaseOffset',$,IFCREAL(0.),$);
#267= IFCPROPERTYSINGLEVALUE('Height',$,IFCREAL(4.852410425),$);
#268= IFCPROPERTYSINGLEVALUE('BaseLevel',$,IFCREAL(0.),$);
#269= IFCPROPERTYSET('1$kLROisbi7$O_h5eFOO3T',#5,'Semio_WallAttach',$,(#261,#262,#263,#264,#265,#266,#267,#268));
#270= IFCRELDEFINESBYPROPERTIES('0IFx8smF77I_SQSzi5pMFL',#5,$,$,(#259),#269);
#271= IFCCARTESIANPOINT((21.,4.15,3.222793219));
#272= IFCCARTESIANPOINT((29.,4.15,0.));
#273= IFCCARTESIANPOINT((21.,4.15,0.));
#274= IFCCARTESIANPOINT((21.,3.85,3.222793219));
#275= IFCCARTESIANPOINT((21.,3.85,0.));
#276= IFCCARTESIANPOINT((29.,3.85,0.));
#277= IFCCARTESIANPOINT((29.,4.15,3.222793219));
#278= IFCCARTESIANPOINT((29.,3.85,3.222793219));
#279= IFCCARTESIANPOINT((26.,4.15,4.491172875));
#280= IFCCARTESIANPOINT((26.,3.85,4.491172875));
#281= IFCCARTESIANPOINT((24.,4.15,4.491172875));
#282= IFCCARTESIANPOINT((24.,3.85,4.491172875));
#283= IFCPOLYLOOP((#271,#272,#273));
#284= IFCFACEOUTERBOUND(#283,.T.);
#285= IFCFACE((#284));
#286= IFCPOLYLOOP((#274,#275,#276));
#287= IFCFACEOUTERBOUND(#286,.T.);
#288= IFCFACE((#287));
#289= IFCPOLYLOOP((#271,#277,#272));
#290= IFCFACEOUTERBOUND(#289,.T.);
#291= IFCFACE((#290));
#292= IFCPOLYLOOP((#274,#276,#278));
#293= IFCFACEOUTERBOUND(#292,.T.);
#294= IFCFACE((#293));
#295= IFCPOLYLOOP((#271,#279,#277));
#296= IFCFACEOUTERBOUND(#295,.T.);
#297= IFCFACE((#296));
#298= IFCPOLYLOOP((#274,#278,#280));
#299= IFCFACEOUTERBOUND(#298,.T.);
#300= IFCFACE((#299));
#301= IFCPOLYLOOP((#271,#281,#279));
#302= IFCFACEOUTERBOUND(#301,.T.);
#303= IFCFACE((#302));
#304= IFCPOLYLOOP((#274,#280,#282));
#305= IFCFACEOUTERBOUND(#304,.T.);
#306= IFCFACE((#305));
#307= IFCPOLYLOOP((#273,#272,#276));
#308= IFCFACEOUTERBOUND(#307,.T.);
#309= IFCFACE((#308));
#310= IFCPOLYLOOP((#273,#276,#275));
#311= IFCFACEOUTERBOUND(#310,.T.);
#312= IFCFACE((#311));
#313= IFCPOLYLOOP((#272,#277,#278));
#314= IFCFACEOUTERBOUND(#313,.T.);
#315= IFCFACE((#314));
#316= IFCPOLYLOOP((#272,#278,#276));
#317= IFCFACEOUTERBOUND(#316,.T.);
#318= IFCFACE((#317));
#319= IFCPOLYLOOP((#277,#279,#280));
#320= IFCFACEOUTERBOUND(#319,.T.);
#321= IFCFACE((#320));
#322= IFCPOLYLOOP((#277,#280,#278));
#323= IFCFACEOUTERBOUND(#322,.T.);
#324= IFCFACE((#323));
#325= IFCPOLYLOOP((#279,#281,#282));
#326= IFCFACEOUTERBOUND(#325,.T.);
#327= IFCFACE((#326));
#328= IFCPOLYLOOP((#279,#282,#280));
#329= IFCFACEOUTERBOUND(#328,.T.);
#330= IFCFACE((#329));
#331= IFCPOLYLOOP((#281,#271,#274));
#332= IFCFACEOUTERBOUND(#331,.T.);
#333= IFCFACE((#332));
#334= IFCPOLYLOOP((#281,#274,#282));
#335= IFCFACEOUTERBOUND(#334,.T.);
#336= IFCFACE((#335));
#337= IFCPOLYLOOP((#271,#273,#275));
#338= IFCFACEOUTERBOUND(#337,.T.);
#339= IFCFACE((#338));
#340= IFCPOLYLOOP((#271,#275,#274));
#341= IFCFACEOUTERBOUND(#340,.T.);
#342= IFCFACE((#341));
#343= IFCCLOSEDSHELL((#285,#288,#291,#294,#297,#300,#303,#306,#309,#312,#315,#318,#321,#324,#327,#330,#333,#336,#339,#342));
#344= IFCFACETEDBREP(#343);
#345= IFCLOCALPLACEMENT(#109,#7);
#346= IFCCARTESIANPOINT((21.,4.));
#347= IFCCARTESIANPOINT((29.,4.));
#348= IFCPOLYLINE((#346,#347));
#349= IFCSHAPEREPRESENTATION(#10,'Body','Brep',(#344));
#350= IFCSHAPEREPRESENTATION(#11,'Axis','Curve2D',(#348));
#351= IFCPRODUCTDEFINITIONSHAPE($,$,(#350,#349));
#352= IFCWALL('21EaF5ro8Rbi1d$9UeFmcV',#5,'Under the hip',$,$,#345,#351,'w-hip');
#353= IFCMATERIALLAYERSETUSAGE(#65,.AXIS2.,.NEGATIVE.,0.15);
#354= IFCPROPERTYSINGLEVALUE('TopKind',$,IFCLABEL('Roof'),$);
#355= IFCPROPERTYSINGLEVALUE('TopTarget',$,IFCLABEL('r-hip'),$);
#356= IFCPROPERTYSINGLEVALUE('TopOffset',$,IFCREAL(0.),$);
#357= IFCPROPERTYSINGLEVALUE('TopHeight',$,IFCREAL(0.),$);
#358= IFCPROPERTYSINGLEVALUE('BaseSlab',$,IFCLABEL(''),$);
#359= IFCPROPERTYSINGLEVALUE('BaseOffset',$,IFCREAL(0.),$);
#360= IFCPROPERTYSINGLEVALUE('Height',$,IFCREAL(4.491172875),$);
#361= IFCPROPERTYSINGLEVALUE('BaseLevel',$,IFCREAL(0.),$);
#362= IFCPROPERTYSET('3BZP3Z2hzAifqNSSZA2vl6',#5,'Semio_WallAttach',$,(#354,#355,#356,#357,#358,#359,#360,#361));
#363= IFCRELDEFINESBYPROPERTIES('1$l$3aW$v8_4nMeCV9WDdZ',#5,$,$,(#352),#362);
#364= IFCCARTESIANPOINT((7.85,5.85,2.85));
#365= IFCCARTESIANPOINT((0.15,5.85,0.));
#366= IFCCARTESIANPOINT((8.15,6.15,2.85));
#367= IFCCARTESIANPOINT((-0.15,6.15,0.));
#368= IFCCARTESIANPOINT((0.15,5.85,2.85));
#369= IFCCARTESIANPOINT((-0.15,6.15,2.85));
#370= IFCPOLYLOOP((#364,#365,#194));
#371= IFCFACEOUTERBOUND(#370,.T.);
#372= IFCFACE((#371));
#373= IFCPOLYLOOP((#366,#198,#367));
#374= IFCFACEOUTERBOUND(#373,.T.);
#375= IFCFACE((#374));
#376= IFCPOLYLOOP((#364,#368,#365));
#377= IFCFACEOUTERBOUND(#376,.T.);
#378= IFCFACE((#377));
#379= IFCPOLYLOOP((#366,#367,#369));
#380= IFCFACEOUTERBOUND(#379,.T.);
#381= IFCFACE((#380));
#382= IFCPOLYLOOP((#194,#365,#367));
#383= IFCFACEOUTERBOUND(#382,.T.);
#384= IFCFACE((#383));
#385= IFCPOLYLOOP((#194,#367,#198));
#386= IFCFACEOUTERBOUND(#385,.T.);
#387= IFCFACE((#386));
#388= IFCPOLYLOOP((#365,#368,#369));
#389= IFCFACEOUTERBOUND(#388,.T.);
#390= IFCFACE((#389));
#391= IFCPOLYLOOP((#365,#369,#367));
#392= IFCFACEOUTERBOUND(#391,.T.);
#393= IFCFACE((#392));
#394= IFCPOLYLOOP((#368,#364,#366));
#395= IFCFACEOUTERBOUND(#394,.T.);
#396= IFCFACE((#395));
#397= IFCPOLYLOOP((#368,#366,#369));
#398= IFCFACEOUTERBOUND(#397,.T.);
#399= IFCFACE((#398));
#400= IFCPOLYLOOP((#364,#194,#198));
#401= IFCFACEOUTERBOUND(#400,.T.);
#402= IFCFACE((#401));
#403= IFCPOLYLOOP((#364,#198,#366));
#404= IFCFACEOUTERBOUND(#403,.T.);
#405= IFCFACE((#404));
#406= IFCCLOSEDSHELL((#372,#375,#378,#381,#384,#387,#390,#393,#396,#399,#402,#405));
#407= IFCFACETEDBREP(#406);
#408= IFCLOCALPLACEMENT(#109,#7);
#409= IFCCARTESIANPOINT((0.,6.));
#410= IFCPOLYLINE((#254,#409));
#411= IFCSHAPEREPRESENTATION(#10,'Body','Brep',(#407));
#412= IFCSHAPEREPRESENTATION(#11,'Axis','Curve2D',(#410));
#413= IFCPRODUCTDEFINITIONSHAPE($,$,(#412,#411));
#414= IFCWALL('0gX1f2WI35QWDilL3yLZC8',#5,'Eave north',$,$,#408,#413,'w-north');
#415= IFCMATERIALLAYERSETUSAGE(#65,.AXIS2.,.NEGATIVE.,0.15);
#416= IFCPROPERTYSINGLEVALUE('TopKind',$,IFCLABEL('Roof'),$);
#417= IFCPROPERTYSINGLEVALUE('TopTarget',$,IFCLABEL('r-gable'),$);
#418= IFCPROPERTYSINGLEVALUE('TopOffset',$,IFCREAL(0.05),$);
#419= IFCPROPERTYSINGLEVALUE('TopHeight',$,IFCREAL(0.),$);
#420= IFCPROPERTYSINGLEVALUE('BaseSlab',$,IFCLABEL(''),$);
#421= IFCPROPERTYSINGLEVALUE('BaseOffset',$,IFCREAL(0.),$);
#422= IFCPROPERTYSINGLEVALUE('Height',$,IFCREAL(2.85),$);
#423= IFCPROPERTYSINGLEVALUE('BaseLevel',$,IFCREAL(0.),$);
#424= IFCPROPERTYSET('1Qk08t6_9KN$yMyGI6uGYB',#5,'Semio_WallAttach',$,(#416,#417,#418,#419,#420,#421,#422,#423));
#425= IFCRELDEFINESBYPROPERTIES('2bmWuKIT2caS0fItOhuafr',#5,$,$,(#414),#424);
#426= IFCCARTESIANPOINT((21.,2.,0.));
#427= IFCAXIS2PLACEMENT3D(#426,#177,#178);
#428= IFCLOCALPLACEMENT(#109,#427);
#429= IFCRECTANGLEPROFILEDEF(.AREA.,$,#182,8.,0.3);
#430= IFCEXTRUDEDAREASOLID(#429,#7,#177,2.8);
#431= IFCPOLYLINE((#185,#186));
#432= IFCSHAPEREPRESENTATION(#10,'Body','SweptSolid',(#430));
#433= IFCSHAPEREPRESENTATION(#11,'Axis','Curve2D',(#431));
#434= IFCPRODUCTDEFINITIONSHAPE($,$,(#433,#432));
#435= IFCWALLSTANDARDCASE('2VNy6eiJ_PG0pEQW7AoB8x',#5,'Rail wall',$,$,#428,#434,'w-rail');
#436= IFCMATERIALLAYERSETUSAGE(#65,.AXIS2.,.NEGATIVE.,0.15);
#437= IFCCARTESIANPOINT((0.15,0.15,2.85));
#438= IFCCARTESIANPOINT((0.15,0.15,0.));
#439= IFCCARTESIANPOINT((-0.15,-0.15,2.85));
#440= IFCCARTESIANPOINT((-0.15,-0.15,0.));
#441= IFCCARTESIANPOINT((7.85,0.15,2.85));
#442= IFCCARTESIANPOINT((8.15,-0.15,2.85));
#443= IFCPOLYLOOP((#437,#195,#438));
#444= IFCFACEOUTERBOUND(#443,.T.);
#445= IFCFACE((#444));
#446= IFCPOLYLOOP((#439,#440,#197));
#447= IFCFACEOUTERBOUND(#446,.T.);
#448= IFCFACE((#447));
#449= IFCPOLYLOOP((#437,#441,#195));
#450= IFCFACEOUTERBOUND(#449,.T.);
#451= IFCFACE((#450));
#452= IFCPOLYLOOP((#439,#197,#442));
#453= IFCFACEOUTERBOUND(#452,.T.);
#454= IFCFACE((#453));
#455= IFCPOLYLOOP((#438,#195,#197));
#456= IFCFACEOUTERBOUND(#455,.T.);
#457= IFCFACE((#456));
#458= IFCPOLYLOOP((#438,#197,#440));
#459= IFCFACEOUTERBOUND(#458,.T.);
#460= IFCFACE((#459));
#461= IFCPOLYLOOP((#195,#441,#442));
#462= IFCFACEOUTERBOUND(#461,.T.);
#463= IFCFACE((#462));
#464= IFCPOLYLOOP((#195,#442,#197));
#465= IFCFACEOUTERBOUND(#464,.T.);
#466= IFCFACE((#465));
#467= IFCPOLYLOOP((#441,#437,#439));
#468= IFCFACEOUTERBOUND(#467,.T.);
#469= IFCFACE((#468));
#470= IFCPOLYLOOP((#441,#439,#442));
#471= IFCFACEOUTERBOUND(#470,.T.);
#472= IFCFACE((#471));
#473= IFCPOLYLOOP((#437,#438,#440));
#474= IFCFACEOUTERBOUND(#473,.T.);
#475= IFCFACE((#474));
#476= IFCPOLYLOOP((#437,#440,#439));
#477= IFCFACEOUTERBOUND(#476,.T.);
#478= IFCFACE((#477));
#479= IFCCLOSEDSHELL((#445,#448,#451,#454,#457,#460,#463,#466,#469,#472,#475,#478));
#480= IFCFACETEDBREP(#479);
#481= IFCLOCALPLACEMENT(#109,#7);
#482= IFCPOLYLINE((#185,#186));
#483= IFCSHAPEREPRESENTATION(#10,'Body','Brep',(#480));
#484= IFCSHAPEREPRESENTATION(#11,'Axis','Curve2D',(#482));
#485= IFCPRODUCTDEFINITIONSHAPE($,$,(#484,#483));
#486= IFCWALL('2_vLPAMaC$hsmSKif007b4',#5,'Eave south',$,$,#481,#485,'w-south');
#487= IFCMATERIALLAYERSETUSAGE(#65,.AXIS2.,.NEGATIVE.,0.15);
#488= IFCPROPERTYSINGLEVALUE('TopKind',$,IFCLABEL('Roof'),$);
#489= IFCPROPERTYSINGLEVALUE('TopTarget',$,IFCLABEL('r-gable'),$);
#490= IFCPROPERTYSINGLEVALUE('TopOffset',$,IFCREAL(0.05),$);
#491= IFCPROPERTYSINGLEVALUE('TopHeight',$,IFCREAL(0.),$);
#492= IFCPROPERTYSINGLEVALUE('BaseSlab',$,IFCLABEL(''),$);
#493= IFCPROPERTYSINGLEVALUE('BaseOffset',$,IFCREAL(0.),$);
#494= IFCPROPERTYSINGLEVALUE('Height',$,IFCREAL(2.85),$);
#495= IFCPROPERTYSINGLEVALUE('BaseLevel',$,IFCREAL(0.),$);
#496= IFCPROPERTYSET('0wI_v4KaYHDKiEhlYXjv_w',#5,'Semio_WallAttach',$,(#488,#489,#490,#491,#492,#493,#494,#495));
#497= IFCRELDEFINESBYPROPERTIES('2p0O9IPKgq5FnWaFi7sA7U',#5,$,$,(#486),#496);
#498= IFCCARTESIANPOINT((0.15,5.85,2.902620521));
#499= IFCCARTESIANPOINT((-0.15,6.15,2.697379479));
#500= IFCCARTESIANPOINT((0.15,0.15,2.902620521));
#501= IFCCARTESIANPOINT((-0.15,-0.15,2.697379479));
#502= IFCCARTESIANPOINT((0.15,3.,4.852410425));
#503= IFCCARTESIANPOINT((-0.15,3.,4.852410425));
#504= IFCPOLYLOOP((#498,#438,#365));
#505= IFCFACEOUTERBOUND(#504,.T.);
#506= IFCFACE((#505));
#507= IFCPOLYLOOP((#499,#367,#440));
#508= IFCFACEOUTERBOUND(#507,.T.);
#509= IFCFACE((#508));
#510= IFCPOLYLOOP((#498,#500,#438));
#511= IFCFACEOUTERBOUND(#510,.T.);
#512= IFCFACE((#511));
#513= IFCPOLYLOOP((#499,#440,#501));
#514= IFCFACEOUTERBOUND(#513,.T.);
#515= IFCFACE((#514));
#516= IFCPOLYLOOP((#498,#502,#500));
#517= IFCFACEOUTERBOUND(#516,.T.);
#518= IFCFACE((#517));
#519= IFCPOLYLOOP((#499,#501,#503));
#520= IFCFACEOUTERBOUND(#519,.T.);
#521= IFCFACE((#520));
#522= IFCPOLYLOOP((#365,#438,#440));
#523= IFCFACEOUTERBOUND(#522,.T.);
#524= IFCFACE((#523));
#525= IFCPOLYLOOP((#365,#440,#367));
#526= IFCFACEOUTERBOUND(#525,.T.);
#527= IFCFACE((#526));
#528= IFCPOLYLOOP((#438,#500,#501));
#529= IFCFACEOUTERBOUND(#528,.T.);
#530= IFCFACE((#529));
#531= IFCPOLYLOOP((#438,#501,#440));
#532= IFCFACEOUTERBOUND(#531,.T.);
#533= IFCFACE((#532));
#534= IFCPOLYLOOP((#500,#502,#503));
#535= IFCFACEOUTERBOUND(#534,.T.);
#536= IFCFACE((#535));
#537= IFCPOLYLOOP((#500,#503,#501));
#538= IFCFACEOUTERBOUND(#537,.T.);
#539= IFCFACE((#538));
#540= IFCPOLYLOOP((#502,#498,#499));
#541= IFCFACEOUTERBOUND(#540,.T.);
#542= IFCFACE((#541));
#543= IFCPOLYLOOP((#502,#499,#503));
#544= IFCFACEOUTERBOUND(#543,.T.);
#545= IFCFACE((#544));
#546= IFCPOLYLOOP((#498,#365,#367));
#547= IFCFACEOUTERBOUND(#546,.T.);
#548= IFCFACE((#547));
#549= IFCPOLYLOOP((#498,#367,#499));
#550= IFCFACEOUTERBOUND(#549,.T.);
#551= IFCFACE((#550));
#552= IFCCLOSEDSHELL((#506,#509,#512,#515,#518,#521,#524,#527,#530,#533,#536,#539,#542,#545,#548,#551));
#553= IFCFACETEDBREP(#552);
#554= IFCLOCALPLACEMENT(#109,#7);
#555= IFCPOLYLINE((#409,#185));
#556= IFCSHAPEREPRESENTATION(#10,'Body','Brep',(#553));
#557= IFCSHAPEREPRESENTATION(#11,'Axis','Curve2D',(#555));
#558= IFCPRODUCTDEFINITIONSHAPE($,$,(#557,#556));
#559= IFCWALL('0SkIQur02mP0OPlG2KFN_8',#5,'Gable end west',$,$,#554,#558,'w-west');
#560= IFCMATERIALLAYERSETUSAGE(#65,.AXIS2.,.NEGATIVE.,0.15);
#561= IFCPROPERTYSINGLEVALUE('TopKind',$,IFCLABEL('Roof'),$);
#562= IFCPROPERTYSINGLEVALUE('TopTarget',$,IFCLABEL('r-gable'),$);
#563= IFCPROPERTYSINGLEVALUE('TopOffset',$,IFCREAL(0.),$);
#564= IFCPROPERTYSINGLEVALUE('TopHeight',$,IFCREAL(0.),$);
#565= IFCPROPERTYSINGLEVALUE('BaseSlab',$,IFCLABEL(''),$);
#566= IFCPROPERTYSINGLEVALUE('BaseOffset',$,IFCREAL(0.),$);
#567= IFCPROPERTYSINGLEVALUE('Height',$,IFCREAL(4.852410425),$);
#568= IFCPROPERTYSINGLEVALUE('BaseLevel',$,IFCREAL(0.),$);
#569= IFCPROPERTYSET('1JXggi_RaGLOGdHjixu$O6',#5,'Semio_WallAttach',$,(#561,#562,#563,#564,#565,#566,#567,#568));
#570= IFCRELDEFINESBYPROPERTIES('3FRFGKo8fdPSHV6_XPl44e',#5,$,$,(#559),#569);
#571= IFCCARTESIANPOINT((2.,0.,0.));
#572= IFCAXIS2PLACEMENT3D(#571,$,$);
#573= IFCLOCALPLACEMENT(#180,#572);
#574= IFCAXIS2PLACEMENT2D(#185,$);
#575= IFCRECTANGLEPROFILEDEF(.AREA.,$,#574,0.9,0.3);
#576= IFCEXTRUDEDAREASOLID(#575,#7,#177,2.1);
#577= IFCSHAPEREPRESENTATION(#10,'Body','SweptSolid',(#576));
#578= IFCPRODUCTDEFINITIONSHAPE($,$,(#577));
#579= IFCOPENINGELEMENT('3zlPQfJYqg3DnugCe6W1GI',#5,'Door',$,$,#573,#578,'o-door');
#580= IFCRELVOIDSELEMENT('2MarDeMNVKZn$SboiQkEsk',#5,$,$,#191,#579);
#581= IFCDIRECTION((0.,-1.,0.));
#582= IFCAXIS2PLACEMENT3D(#6,#581,#178);
#583= IFCLOCALPLACEMENT(#573,#582);
#584= IFCCARTESIANPOINT((-0.45,0.));
#585= IFCCARTESIANPOINT((0.45,0.));
#586= IFCCARTESIANPOINT((0.45,2.1));
#587= IFCCARTESIANPOINT((-0.45,2.1));
#588= IFCPOLYLINE((#584,#585,#586,#587,#584));
#589= IFCCARTESIANPOINT((-0.4,0.05));
#590= IFCCARTESIANPOINT((0.4,0.05));
#591= IFCCARTESIANPOINT((0.4,2.05));
#592= IFCCARTESIANPOINT((-0.4,2.05));
#593= IFCPOLYLINE((#589,#590,#591,#592,#589));
#594= IFCARBITRARYPROFILEDEFWITHVOIDS(.AREA.,$,#588,(#593));
#595= IFCCARTESIANPOINT((0.,0.,-0.05));
#596= IFCAXIS2PLACEMENT3D(#595,$,$);
#597= IFCEXTRUDEDAREASOLID(#594,#596,#177,0.1);
#598= IFCCARTESIANPOINT((0.,1.05));
#599= IFCAXIS2PLACEMENT2D(#598,$);
#600= IFCRECTANGLEPROFILEDEF(.AREA.,$,#599,0.8,2.);
#601= IFCCARTESIANPOINT((0.,0.,-0.02));
#602= IFCAXIS2PLACEMENT3D(#601,$,$);
#603= IFCEXTRUDEDAREASOLID(#600,#602,#177,0.04);
#604= IFCSHAPEREPRESENTATION(#10,'Body','SweptSolid',(#597,#603));
#605= IFCPRODUCTDEFINITIONSHAPE($,$,(#604));
#606= IFCDOOR('0lbfh1eCcAwIkjkKjQGM6U',#5,'Door',$,$,#583,#605,'o-door',2.1,0.9);
#607= IFCRELFILLSELEMENT('34Zmw04SLFjsuFf$13xvHs',#5,$,$,#579,#606);
#608= IFCCARTESIANPOINT((7.,0.,0.9));
#609= IFCAXIS2PLACEMENT3D(#608,$,$);
#610= IFCLOCALPLACEMENT(#180,#609);
#611= IFCRECTANGLEPROFILEDEF(.AREA.,$,#574,1.2,0.3);
#612= IFCEXTRUDEDAREASOLID(#611,#7,#177,1.2);
#613= IFCSHAPEREPRESENTATION(#10,'Body','SweptSolid',(#612));
#614= IFCPRODUCTDEFINITIONSHAPE($,$,(#613));
#615= IFCOPENINGELEMENT('1eno5BEH4csOoLHP4jFOul',#5,'Plain window',$,$,#610,#614,'o-plain');
#616= IFCRELVOIDSELEMENT('2t$Xa68NR8N4rUdamb8VPT',#5,$,$,#191,#615);
#617= IFCLOCALPLACEMENT(#610,#582);
#618= IFCCARTESIANPOINT((-0.6,0.));
#619= IFCCARTESIANPOINT((0.6,0.));
#620= IFCCARTESIANPOINT((0.6,1.2));
#621= IFCCARTESIANPOINT((-0.6,1.2));
#622= IFCPOLYLINE((#618,#619,#620,#621,#618));
#623= IFCCARTESIANPOINT((-0.54,0.06));
#624= IFCCARTESIANPOINT((0.54,0.06));
#625= IFCCARTESIANPOINT((0.54,1.14));
#626= IFCCARTESIANPOINT((-0.54,1.14));
#627= IFCPOLYLINE((#623,#624,#625,#626,#623));
#628= IFCARBITRARYPROFILEDEFWITHVOIDS(.AREA.,$,#622,(#627));
#629= IFCCARTESIANPOINT((0.,0.,-0.04));
#630= IFCAXIS2PLACEMENT3D(#629,$,$);
#631= IFCEXTRUDEDAREASOLID(#628,#630,#177,0.08);
#632= IFCCARTESIANPOINT((0.,0.6));
#633= IFCAXIS2PLACEMENT2D(#632,$);
#634= IFCRECTANGLEPROFILEDEF(.AREA.,$,#633,1.08,1.08);
#635= IFCCARTESIANPOINT((0.,0.,-0.012));
#636= IFCAXIS2PLACEMENT3D(#635,$,$);
#637= IFCEXTRUDEDAREASOLID(#634,#636,#177,0.024);
#638= IFCSHAPEREPRESENTATION(#10,'Body','SweptSolid',(#631,#637));
#639= IFCPRODUCTDEFINITIONSHAPE($,$,(#638));
#640= IFCWINDOW('1TezMB0pIA9JaqjF6u_bh8',#5,'Plain window',$,$,#617,#639,'o-plain',1.2,1.2);
#641= IFCRELFILLSELEMENT('3B_cCTzTiGZ_KzhnJY3F$$',#5,$,$,#615,#640);
#642= IFCCARTESIANPOINT((5.,0.,0.9));
#643= IFCAXIS2PLACEMENT3D(#642,$,$);
#644= IFCLOCALPLACEMENT(#180,#643);
#645= IFCRECTANGLEPROFILEDEF(.AREA.,$,#574,1.2,0.3);
#646= IFCEXTRUDEDAREASOLID(#645,#7,#177,1.2);
#647= IFCSHAPEREPRESENTATION(#10,'Body','SweptSolid',(#646));
#648= IFCPRODUCTDEFINITIONSHAPE($,$,(#647));
#649= IFCOPENINGELEMENT('14Oyx8GrWavUlVmPgS6SXn',#5,'Window with a reveal',$,$,#644,#648,'o-reveal');
#650= IFCRELVOIDSELEMENT('0N0Cfgk0AD_1FaRG3Wk6SP',#5,$,$,#191,#649);
#651= IFCPROPERTYSINGLEVALUE('RevealDepth',$,IFCREAL(0.1),$);
#652= IFCPROPERTYSINGLEVALUE('RevealMaterial',$,IFCLABEL('m-paint'),$);
#653= IFCPROPERTYSET('1ZsHUI87S8Eygft28qENe6',#5,'Semio_OpeningReveal',$,(#651,#652));
#654= IFCRELDEFINESBYPROPERTIES('1wT_djdnra5pg72ptLr4eG',#5,$,$,(#649),#653);
#655= IFCCARTESIANPOINT((0.,0.01,0.));
#656= IFCAXIS2PLACEMENT3D(#655,#581,#178);
#657= IFCLOCALPLACEMENT(#644,#656);
#658= IFCPOLYLINE((#618,#619,#620,#621,#618));
#659= IFCPOLYLINE((#623,#624,#625,#626,#623));
#660= IFCARBITRARYPROFILEDEFWITHVOIDS(.AREA.,$,#658,(#659));
#661= IFCEXTRUDEDAREASOLID(#660,#630,#177,0.08);
#662= IFCRECTANGLEPROFILEDEF(.AREA.,$,#633,1.08,1.08);
#663= IFCEXTRUDEDAREASOLID(#662,#636,#177,0.024);
#664= IFCSHAPEREPRESENTATION(#10,'Body','SweptSolid',(#661,#663));
#665= IFCPRODUCTDEFINITIONSHAPE($,$,(#664));
#666= IFCWINDOW('0Piaz1bXeb9C8wpQzKeyMU',#5,'Window with a reveal',$,$,#657,#665,'o-reveal',1.2,1.2);
#667= IFCRELFILLSELEMENT('2LMd0_f4rRQXc$8yygXSdF',#5,$,$,#649,#666);
#668= IFCCARTESIANPOINT((60.,0.15,0.));
#669= IFCDIRECTION((0.,1.,0.));
#670= IFCAXIS2PLACEMENT3D(#668,#178,#669);
#671= IFCCARTESIANPOINT((0.02,0.));
#672= IFCCARTESIANPOINT((0.02,0.1));
#673= IFCCARTESIANPOINT((0.,0.1));
#674= IFCPOLYLINE((#185,#671,#672,#673,#185));
#675= IFCARBITRARYCLOSEDPROFILEDEF(.AREA.,$,#674);
#676= IFCEXTRUDEDAREASOLID(#675,#670,#177,1.55);
#677= IFCSHAPEREPRESENTATION(#10,'Body','SweptSolid',(#676));
#678= IFCPRODUCTDEFINITIONSHAPE($,$,(#677));
#679= IFCLOCALPLACEMENT(#105,#7);
#680= IFCMEMBER('023$HaHBrATj2GMeRS1s0z',#5,'Baseboard',$,'WallSweep',#679,#678,'ws-door');
#681= IFCPROPERTYSINGLEVALUE('SweepId',$,IFCLABEL('ws-door'),$);
#682= IFCPROPERTYSINGLEVALUE('Run',$,IFCINTEGER(0),$);
#683= IFCPROPERTYSINGLEVALUE('Host',$,IFCLABEL('w-door'),$);
#684= IFCPROPERTYSINGLEVALUE('Side',$,IFCLABEL('Left'),$);
#685= IFCPROPERTYSINGLEVALUE('Height',$,IFCREAL(0.),$);
#686= IFCPROPERTYSINGLEVALUE('Inset',$,IFCREAL(0.),$);
#687= IFCPROPERTYSINGLEVALUE('Material',$,IFCLABEL('m-paint'),$);
#688= IFCPROPERTYSINGLEVALUE('Profile',$,IFCLABEL('{"Rectangle":{"width":0.02,"depth":0.1}}'),$);
#689= IFCPROPERTYSET('0G3_PsoP9SCQZxdDLNThE1',#5,'Semio_WallSweep',$,(#681,#682,#683,#684,#685,#686,#687,#688));
#690= IFCRELDEFINESBYPROPERTIES('1pbPAy7W8qaq44BEA94ELL',#5,$,$,(#680),#689);
#691= IFCCARTESIANPOINT((62.45,0.15,0.));
#692= IFCAXIS2PLACEMENT3D(#691,#178,#669);
#693= IFCPOLYLINE((#185,#671,#672,#673,#185));
#694= IFCARBITRARYCLOSEDPROFILEDEF(.AREA.,$,#693);
#695= IFCEXTRUDEDAREASOLID(#694,#692,#177,5.55);
#696= IFCSHAPEREPRESENTATION(#10,'Body','SweptSolid',(#695));
#697= IFCPRODUCTDEFINITIONSHAPE($,$,(#696));
#698= IFCLOCALPLACEMENT(#105,#7);
#699= IFCMEMBER('13ja3j5vDzq6RYYmVVOoeP',#5,'Baseboard',$,'WallSweep',#698,#697,'ws-door');
#700= IFCPROPERTYSINGLEVALUE('SweepId',$,IFCLABEL('ws-door'),$);
#701= IFCPROPERTYSINGLEVALUE('Run',$,IFCINTEGER(1),$);
#702= IFCPROPERTYSINGLEVALUE('Host',$,IFCLABEL('w-door'),$);
#703= IFCPROPERTYSINGLEVALUE('Side',$,IFCLABEL('Left'),$);
#704= IFCPROPERTYSINGLEVALUE('Height',$,IFCREAL(0.),$);
#705= IFCPROPERTYSINGLEVALUE('Inset',$,IFCREAL(0.),$);
#706= IFCPROPERTYSINGLEVALUE('Material',$,IFCLABEL('m-paint'),$);
#707= IFCPROPERTYSINGLEVALUE('Profile',$,IFCLABEL('{"Rectangle":{"width":0.02,"depth":0.1}}'),$);
#708= IFCPROPERTYSET('0fVHt49TK5dK2NRtNm5upQ',#5,'Semio_WallSweep',$,(#700,#701,#702,#703,#704,#705,#706,#707));
#709= IFCRELDEFINESBYPROPERTIES('2GGSv0QyWUbwJyNuffgc40',#5,$,$,(#699),#708);
#710= IFCCARTESIANPOINT((29.,1.85,0.9));
#711= IFCDIRECTION((-1.,0.,0.));
#712= IFCAXIS2PLACEMENT3D(#710,#711,#581);
#713= IFCCARTESIANPOINT((-0.01,0.));
#714= IFCCARTESIANPOINT((0.04,0.));
#715= IFCCARTESIANPOINT((0.04,0.04));
#716= IFCCARTESIANPOINT((-0.01,0.04));
#717= IFCPOLYLINE((#713,#714,#715,#716,#713));
#718= IFCARBITRARYCLOSEDPROFILEDEF(.AREA.,$,#717);
#719= IFCEXTRUDEDAREASOLID(#718,#712,#177,8.);
#720= IFCSHAPEREPRESENTATION(#10,'Body','SweptSolid',(#719));
#721= IFCPRODUCTDEFINITIONSHAPE($,$,(#720));
#722= IFCLOCALPLACEMENT(#109,#7);
#723= IFCMEMBER('3nylpYbv0e5Pmhn2o1R5s0',#5,'Hand rail',$,'WallSweep',#722,#721,'ws-rail');
#724= IFCPROPERTYSINGLEVALUE('SweepId',$,IFCLABEL('ws-rail'),$);
#725= IFCPROPERTYSINGLEVALUE('Run',$,IFCINTEGER(0),$);
#726= IFCPROPERTYSINGLEVALUE('Host',$,IFCLABEL('w-rail'),$);
#727= IFCPROPERTYSINGLEVALUE('Side',$,IFCLABEL('Right'),$);
#728= IFCPROPERTYSINGLEVALUE('Height',$,IFCREAL(0.9),$);
#729= IFCPROPERTYSINGLEVALUE('Inset',$,IFCREAL(0.01),$);
#730= IFCPROPERTYSINGLEVALUE('Material',$,IFCLABEL('m-paint'),$);
#731= IFCPROPERTYSINGLEVALUE('Profile',$,IFCLABEL('{"Rectangle":{"width":0.05,"depth":0.04}}'),$);
#732= IFCPROPERTYSET('1zXZaeqQZEijoypBXLAUoE',#5,'Semio_WallSweep',$,(#724,#725,#726,#727,#728,#729,#730,#731));
#733= IFCRELDEFINESBYPROPERTIES('1aFdeGuTEr9nBS1adObiwV',#5,$,$,(#723),#732);
#734= IFCCARTESIANPOINT((41.,0.17,-0.100334672));
#735= IFCCARTESIANPOINT((49.,0.17,-0.903012049));
#736= IFCCARTESIANPOINT((41.,0.17,-0.000334672));
#737= IFCCARTESIANPOINT((49.,0.17,-0.803012049));
#738= IFCCARTESIANPOINT((41.,0.15,-0.000334672));
#739= IFCCARTESIANPOINT((49.,0.15,-0.803012049));
#740= IFCPOLYLOOP((#113,#734,#735));
#741= IFCFACEOUTERBOUND(#740,.T.);
#742= IFCFACE((#741));
#743= IFCPOLYLOOP((#113,#735,#112));
#744= IFCFACEOUTERBOUND(#743,.T.);
#745= IFCFACE((#744));
#746= IFCPOLYLOOP((#734,#736,#737));
#747= IFCFACEOUTERBOUND(#746,.T.);
#748= IFCFACE((#747));
#749= IFCPOLYLOOP((#734,#737,#735));
#750= IFCFACEOUTERBOUND(#749,.T.);
#751= IFCFACE((#750));
#752= IFCPOLYLOOP((#736,#738,#739));
#753= IFCFACEOUTERBOUND(#752,.T.);
#754= IFCFACE((#753));
#755= IFCPOLYLOOP((#736,#739,#737));
#756= IFCFACEOUTERBOUND(#755,.T.);
#757= IFCFACE((#756));
#758= IFCPOLYLOOP((#738,#113,#112));
#759= IFCFACEOUTERBOUND(#758,.T.);
#760= IFCFACE((#759));
#761= IFCPOLYLOOP((#738,#112,#739));
#762= IFCFACEOUTERBOUND(#761,.T.);
#763= IFCFACE((#762));
#764= IFCPOLYLOOP((#738,#734,#113));
#765= IFCFACEOUTERBOUND(#764,.T.);
#766= IFCFACE((#765));
#767= IFCPOLYLOOP((#739,#112,#735));
#768= IFCFACEOUTERBOUND(#767,.T.);
#769= IFCFACE((#768));
#770= IFCPOLYLOOP((#738,#736,#734));
#771= IFCFACEOUTERBOUND(#770,.T.);
#772= IFCFACE((#771));
#773= IFCPOLYLOOP((#739,#735,#737));
#774= IFCFACEOUTERBOUND(#773,.T.);
#775= IFCFACE((#774));
#776= IFCCLOSEDSHELL((#742,#745,#748,#751,#754,#757,#760,#763,#766,#769,#772,#775));
#777= IFCFACETEDBREP(#776);
#778= IFCSHAPEREPRESENTATION(#10,'Body','Brep',(#777));
#779= IFCPRODUCTDEFINITIONSHAPE($,$,(#778));
#780= IFCLOCALPLACEMENT(#105,#7);
#781= IFCMEMBER('10leLpA9UJm$R7s0jzGQYv',#5,'Baseboard on the slope',$,'WallSweep',#780,#779,'ws-slope');
#782= IFCPROPERTYSINGLEVALUE('SweepId',$,IFCLABEL('ws-slope'),$);
#783= IFCPROPERTYSINGLEVALUE('Run',$,IFCINTEGER(0),$);
#784= IFCPROPERTYSINGLEVALUE('Host',$,IFCLABEL('w-base'),$);
#785= IFCPROPERTYSINGLEVALUE('Side',$,IFCLABEL('Left'),$);
#786= IFCPROPERTYSINGLEVALUE('Height',$,IFCREAL(0.),$);
#787= IFCPROPERTYSINGLEVALUE('Inset',$,IFCREAL(0.),$);
#788= IFCPROPERTYSINGLEVALUE('Material',$,IFCLABEL('m-paint'),$);
#789= IFCPROPERTYSINGLEVALUE('Profile',$,IFCLABEL('{"Rectangle":{"width":0.02,"depth":0.1}}'),$);
#790= IFCPROPERTYSET('1WxeXuU_FLwKaSXkC6XxHB',#5,'Semio_WallSweep',$,(#782,#783,#784,#785,#786,#787,#788,#789));
#791= IFCRELDEFINESBYPROPERTIES('2jptIyoJNSBalWubNOXsKR',#5,$,$,(#781),#790);
#792= IFCLOCALPLACEMENT(#105,#7);
#793= IFCCARTESIANPOINT((40.,5.,-0.2));
#794= IFCCARTESIANPOINT((50.,-5.,-1.203346721));
#795= IFCCARTESIANPOINT((40.,-5.,-0.2));
#796= IFCCARTESIANPOINT((40.,5.,0.));
#797= IFCCARTESIANPOINT((40.,-5.,0.));
#798= IFCCARTESIANPOINT((50.,-5.,-1.003346721));
#799= IFCCARTESIANPOINT((50.,5.,-1.203346721));
#800= IFCCARTESIANPOINT((50.,5.,-1.003346721));
#801= IFCPOLYLOOP((#793,#794,#795));
#802= IFCFACEOUTERBOUND(#801,.T.);
#803= IFCFACE((#802));
#804= IFCPOLYLOOP((#796,#797,#798));
#805= IFCFACEOUTERBOUND(#804,.T.);
#806= IFCFACE((#805));
#807= IFCPOLYLOOP((#793,#799,#794));
#808= IFCFACEOUTERBOUND(#807,.T.);
#809= IFCFACE((#808));
#810= IFCPOLYLOOP((#796,#798,#800));
#811= IFCFACEOUTERBOUND(#810,.T.);
#812= IFCFACE((#811));
#813= IFCPOLYLOOP((#795,#794,#798));
#814= IFCFACEOUTERBOUND(#813,.T.);
#815= IFCFACE((#814));
#816= IFCPOLYLOOP((#795,#798,#797));
#817= IFCFACEOUTERBOUND(#816,.T.);
#818= IFCFACE((#817));
#819= IFCPOLYLOOP((#794,#799,#800));
#820= IFCFACEOUTERBOUND(#819,.T.);
#821= IFCFACE((#820));
#822= IFCPOLYLOOP((#794,#800,#798));
#823= IFCFACEOUTERBOUND(#822,.T.);
#824= IFCFACE((#823));
#825= IFCPOLYLOOP((#799,#793,#796));
#826= IFCFACEOUTERBOUND(#825,.T.);
#827= IFCFACE((#826));
#828= IFCPOLYLOOP((#799,#796,#800));
#829= IFCFACEOUTERBOUND(#828,.T.);
#830= IFCFACE((#829));
#831= IFCPOLYLOOP((#793,#795,#797));
#832= IFCFACEOUTERBOUND(#831,.T.);
#833= IFCFACE((#832));
#834= IFCPOLYLOOP((#793,#797,#796));
#835= IFCFACEOUTERBOUND(#834,.T.);
#836= IFCFACE((#835));
#837= IFCCLOSEDSHELL((#803,#806,#809,#812,#815,#818,#821,#824,#827,#830,#833,#836));
#838= IFCFACETEDBREP(#837);
#839= IFCSHAPEREPRESENTATION(#10,'Body','Brep',(#838));
#840= IFCPRODUCTDEFINITIONSHAPE($,$,(#839));
#841= IFCSLAB('2$wpYJVXVS73yEgQ7cerMh',#5,'Sloped slab',$,$,#792,#840,'sl-slope',.FLOOR.);
#842= IFCMATERIALLAYERSETUSAGE(#70,.AXIS3.,.NEGATIVE.,0.2);
#843= IFCLOCALPLACEMENT(#109,#7);
#844= IFCROOF('1uOE9P4OsXKWqJP24O12dx',#5,'Gable roof',$,$,#843,$,'r-gable',.GABLE_ROOF.);
#845= IFCCARTESIANPOINT((0.000000021,3.,4.952410425));
#846= IFCCARTESIANPOINT((0.,0.,2.9));
#847= IFCCARTESIANPOINT((8.,0.,2.9));
#848= IFCCARTESIANPOINT((8.,0.,2.8));
#849= IFCCARTESIANPOINT((0.,0.,2.8));
#850= IFCCARTESIANPOINT((0.000000021,3.,4.852410425));
#851= IFCCARTESIANPOINT((7.999999979,3.,4.952410425));
#852= IFCCARTESIANPOINT((7.999999979,3.,4.852410425));
#853= IFCCARTESIANPOINT((8.,6.,2.9));
#854= IFCCARTESIANPOINT((0.,6.,2.9));
#855= IFCCARTESIANPOINT((0.,6.,2.8));
#856= IFCCARTESIANPOINT((8.,6.,2.8));
#857= IFCPOLYLOOP((#845,#846,#847));
#858= IFCFACEOUTERBOUND(#857,.T.);
#859= IFCFACE((#858));
#860= IFCPOLYLOOP((#848,#849,#850));
#861= IFCFACEOUTERBOUND(#860,.T.);
#862= IFCFACE((#861));
#863= IFCPOLYLOOP((#845,#847,#851));
#864= IFCFACEOUTERBOUND(#863,.T.);
#865= IFCFACE((#864));
#866= IFCPOLYLOOP((#852,#848,#850));
#867= IFCFACEOUTERBOUND(#866,.T.);
#868= IFCFACE((#867));
#869= IFCPOLYLOOP((#851,#853,#854));
#870= IFCFACEOUTERBOUND(#869,.T.);
#871= IFCFACE((#870));
#872= IFCPOLYLOOP((#855,#856,#852));
#873= IFCFACEOUTERBOUND(#872,.T.);
#874= IFCFACE((#873));
#875= IFCPOLYLOOP((#851,#854,#845));
#876= IFCFACEOUTERBOUND(#875,.T.);
#877= IFCFACE((#876));
#878= IFCPOLYLOOP((#850,#855,#852));
#879= IFCFACEOUTERBOUND(#878,.T.);
#880= IFCFACE((#879));
#881= IFCPOLYLOOP((#846,#849,#848));
#882= IFCFACEOUTERBOUND(#881,.T.);
#883= IFCFACE((#882));
#884= IFCPOLYLOOP((#846,#848,#847));
#885= IFCFACEOUTERBOUND(#884,.T.);
#886= IFCFACE((#885));
#887= IFCPOLYLOOP((#854,#855,#850));
#888= IFCFACEOUTERBOUND(#887,.T.);
#889= IFCFACE((#888));
#890= IFCPOLYLOOP((#854,#850,#845));
#891= IFCFACEOUTERBOUND(#890,.T.);
#892= IFCFACE((#891));
#893= IFCPOLYLOOP((#845,#850,#849));
#894= IFCFACEOUTERBOUND(#893,.T.);
#895= IFCFACE((#894));
#896= IFCPOLYLOOP((#845,#849,#846));
#897= IFCFACEOUTERBOUND(#896,.T.);
#898= IFCFACE((#897));
#899= IFCPOLYLOOP((#851,#852,#856));
#900= IFCFACEOUTERBOUND(#899,.T.);
#901= IFCFACE((#900));
#902= IFCPOLYLOOP((#851,#856,#853));
#903= IFCFACEOUTERBOUND(#902,.T.);
#904= IFCFACE((#903));
#905= IFCPOLYLOOP((#847,#848,#852));
#906= IFCFACEOUTERBOUND(#905,.T.);
#907= IFCFACE((#906));
#908= IFCPOLYLOOP((#847,#852,#851));
#909= IFCFACEOUTERBOUND(#908,.T.);
#910= IFCFACE((#909));
#911= IFCPOLYLOOP((#853,#856,#855));
#912= IFCFACEOUTERBOUND(#911,.T.);
#913= IFCFACE((#912));
#914= IFCPOLYLOOP((#853,#855,#854));
#915= IFCFACEOUTERBOUND(#914,.T.);
#916= IFCFACE((#915));
#917= IFCCLOSEDSHELL((#859,#862,#865,#868,#871,#874,#877,#880,#883,#886,#889,#892,#895,#898,#901,#904,#907,#910,#913,#916));
#918= IFCFACETEDBREP(#917);
#919= IFCSHAPEREPRESENTATION(#10,'Body','Brep',(#918));
#920= IFCPRODUCTDEFINITIONSHAPE($,$,(#919));
#921= IFCLOCALPLACEMENT(#109,#7);
#922= IFCSLAB('0gQkFkc5iOoo4YytC1VwXC',#5,'Gable roof',$,$,#921,#920,'r-gable:layer0',.ROOF.);
#923= IFCLOCALPLACEMENT(#109,#7);
#924= IFCROOF('3o7DwyRBn2aVW7Ad2t9iY3',#5,'Hip roof',$,$,#923,$,'r-hip',.HIP_ROOF.);
#925= IFCCARTESIANPOINT((24.,4.,4.591172875));
#926= IFCCARTESIANPOINT((20.,0.,2.9));
#927= IFCCARTESIANPOINT((30.,0.,2.9));
#928= IFCCARTESIANPOINT((30.,0.,2.8));
#929= IFCCARTESIANPOINT((20.,0.,2.8));
#930= IFCCARTESIANPOINT((24.,4.,4.491172875));
#931= IFCCARTESIANPOINT((26.,4.,4.591172875));
#932= IFCCARTESIANPOINT((26.,4.,4.491172875));
#933= IFCCARTESIANPOINT((30.,8.,2.9));
#934= IFCCARTESIANPOINT((30.,8.,2.8));
#935= IFCCARTESIANPOINT((20.,8.,2.9));
#936= IFCCARTESIANPOINT((20.,8.,2.8));
#937= IFCPOLYLOOP((#925,#926,#927));
#938= IFCFACEOUTERBOUND(#937,.T.);
#939= IFCFACE((#938));
#940= IFCPOLYLOOP((#928,#929,#930));
#941= IFCFACEOUTERBOUND(#940,.T.);
#942= IFCFACE((#941));
#943= IFCPOLYLOOP((#925,#927,#931));
#944= IFCFACEOUTERBOUND(#943,.T.);
#945= IFCFACE((#944));
#946= IFCPOLYLOOP((#932,#928,#930));
#947= IFCFACEOUTERBOUND(#946,.T.);
#948= IFCFACE((#947));
#949= IFCPOLYLOOP((#931,#927,#933));
#950= IFCFACEOUTERBOUND(#949,.T.);
#951= IFCFACE((#950));
#952= IFCPOLYLOOP((#934,#928,#932));
#953= IFCFACEOUTERBOUND(#952,.T.);
#954= IFCFACE((#953));
#955= IFCPOLYLOOP((#931,#933,#935));
#956= IFCFACEOUTERBOUND(#955,.T.);
#957= IFCFACE((#956));
#958= IFCPOLYLOOP((#936,#934,#932));
#959= IFCFACEOUTERBOUND(#958,.T.);
#960= IFCFACE((#959));
#961= IFCPOLYLOOP((#931,#935,#925));
#962= IFCFACEOUTERBOUND(#961,.T.);
#963= IFCFACE((#962));
#964= IFCPOLYLOOP((#930,#936,#932));
#965= IFCFACEOUTERBOUND(#964,.T.);
#966= IFCFACE((#965));
#967= IFCPOLYLOOP((#925,#935,#926));
#968= IFCFACEOUTERBOUND(#967,.T.);
#969= IFCFACE((#968));
#970= IFCPOLYLOOP((#929,#936,#930));
#971= IFCFACEOUTERBOUND(#970,.T.);
#972= IFCFACE((#971));
#973= IFCPOLYLOOP((#926,#929,#928));
#974= IFCFACEOUTERBOUND(#973,.T.);
#975= IFCFACE((#974));
#976= IFCPOLYLOOP((#926,#928,#927));
#977= IFCFACEOUTERBOUND(#976,.T.);
#978= IFCFACE((#977));
#979= IFCPOLYLOOP((#935,#936,#929));
#980= IFCFACEOUTERBOUND(#979,.T.);
#981= IFCFACE((#980));
#982= IFCPOLYLOOP((#935,#929,#926));
#983= IFCFACEOUTERBOUND(#982,.T.);
#984= IFCFACE((#983));
#985= IFCPOLYLOOP((#927,#928,#934));
#986= IFCFACEOUTERBOUND(#985,.T.);
#987= IFCFACE((#986));
#988= IFCPOLYLOOP((#927,#934,#933));
#989= IFCFACEOUTERBOUND(#988,.T.);
#990= IFCFACE((#989));
#991= IFCPOLYLOOP((#933,#934,#936));
#992= IFCFACEOUTERBOUND(#991,.T.);
#993= IFCFACE((#992));
#994= IFCPOLYLOOP((#933,#936,#935));
#995= IFCFACEOUTERBOUND(#994,.T.);
#996= IFCFACE((#995));
#997= IFCCLOSEDSHELL((#939,#942,#945,#948,#951,#954,#957,#960,#963,#966,#969,#972,#975,#978,#981,#984,#987,#990,#993,#996));
#998= IFCFACETEDBREP(#997);
#999= IFCSHAPEREPRESENTATION(#10,'Body','Brep',(#998));
#1000= IFCPRODUCTDEFINITIONSHAPE($,$,(#999));
#1001= IFCLOCALPLACEMENT(#109,#7);
#1002= IFCSLAB('1D$6nNBfX1Ln$lScjrfs1K',#5,'Hip roof',$,$,#1001,#1000,'r-hip:layer0',.ROOF.);
#1003= IFCRELAGGREGATES('1SUFqXqHI3ECh_a_ciX9mi',#5,$,$,#100,(#102));
#1004= IFCRELAGGREGATES('0JGJvUAMLsyfFtJNpd5DyB',#5,$,$,#102,(#104));
#1005= IFCRELAGGREGATES('2B6qxMggNn_x2bbIHcCkBe',#5,$,$,#104,(#106,#110));
#1006= IFCRELAGGREGATES('29LtH$S65annwIe1wFajpg',#5,$,$,#844,(#922));
#1007= IFCRELAGGREGATES('2kdIvFQ9xEVrkLx2Gi12nq',#5,$,$,#924,(#1002));
#1008= IFCRELCONTAINEDINSPATIALSTRUCTURE('1Ws$8$BNiEA3OGFhnAWJ84',#5,$,$,(#164,#191,#606,#640,#666,#680,#699,#781,#841),#106);
#1009= IFCRELCONTAINEDINSPATIALSTRUCTURE('31SUCdSZqNu9t99tPmu4sv',#5,$,$,(#259,#352,#414,#435,#486,#559,#723,#844,#924),#110);
#1010= IFCRELDEFINESBYTYPE('3yqXVsPwF1XcaabK4Fpivr',#5,$,$,(#164,#191,#259,#352,#414,#435,#486,#559),#63);
#1011= IFCRELDEFINESBYTYPE('1XvNov9xBbqdNEvWr4Np7e',#5,$,$,(#841),#68);
#1012= IFCRELDEFINESBYTYPE('1LTpHLiXysoBxGFXO$lE9E',#5,$,$,(#844,#924),#73);
#1013= IFCRELDEFINESBYTYPE('1MpEWoTCtKqjjBSrEeBIM$',#5,$,$,(#640,#666),#85);
#1014= IFCRELDEFINESBYTYPE('05c1hGsSfsg$nZ63mbvWdN',#5,$,$,(#606),#94);
#1015= IFCRELASSOCIATESMATERIAL('0BPOZ_eSOvXzzuqAzNEu_B',#5,$,$,(#680,#699,#723,#781),#37);
#1016= IFCRELASSOCIATESMATERIAL('038iRR_iC8t5EBn6ygbaD7',#5,$,$,(#922,#1002),#49);
#1017= IFCRELASSOCIATESMATERIAL('0eevm2Ma$SodXn6H9e44K2',#5,$,$,(#63),#65);
#1018= IFCRELASSOCIATESMATERIAL('2AQKWY_jRihhLI0p1CPjqo',#5,$,$,(#68),#70);
#1019= IFCRELASSOCIATESMATERIAL('1U_QfVBzv2l$IgXD0dUdqo',#5,$,$,(#73),#75);
#1020= IFCRELASSOCIATESMATERIAL('3EXsbGOd6_zQSXaLlhgCMF',#5,$,$,(#164),#165);
#1021= IFCRELASSOCIATESMATERIAL('2nf6hlxAIA6Iz1PY_OxBuV',#5,$,$,(#191),#192);
#1022= IFCRELASSOCIATESMATERIAL('39C36ZYp0zKN1OkiZd_G5u',#5,$,$,(#259),#260);
#1023= IFCRELASSOCIATESMATERIAL('2cqIY_2LTt_lzKl_PfKx4A',#5,$,$,(#352),#353);
#1024= IFCRELASSOCIATESMATERIAL('1JNSaZ5o3_6PODsgHS3vVy',#5,$,$,(#414),#415);
#1025= IFCRELASSOCIATESMATERIAL('2z5AA1zgZvZdZOFV8$8gug',#5,$,$,(#435),#436);
#1026= IFCRELASSOCIATESMATERIAL('057yaiAsYFXBYi3SaBnMuK',#5,$,$,(#486),#487);
#1027= IFCRELASSOCIATESMATERIAL('2C3vyvtC8vuOfaLYaMgpY0',#5,$,$,(#559),#560);
#1028= IFCRELASSOCIATESMATERIAL('1_pZJkJKllywNaokmm3BHT',#5,$,$,(#841),#842);
#1029= IFCQUANTITYLENGTH('GrossHeight',$,$,3.);
#1030= IFCQUANTITYLENGTH('NetHeight',$,$,3.);
#1031= IFCELEMENTQUANTITY('1_SJy8e1Jr3ypPJ3x_jCQH',#5,'Qto_BuildingStoreyBaseQuantities',$,$,(#1029,#1030));
#1032= IFCRELDEFINESBYPROPERTIES('1Uw0$9HuytPH4X1GXmHk0e',#5,$,$,(#106),#1031);
#1033= IFCQUANTITYLENGTH('GrossHeight',$,$,2.8);
#1034= IFCQUANTITYLENGTH('NetHeight',$,$,2.8);
#1035= IFCELEMENTQUANTITY('1ABnljGCtOaay$kVo9feUB',#5,'Qto_BuildingStoreyBaseQuantities',$,$,(#1033,#1034));
#1036= IFCRELDEFINESBYPROPERTIES('3b1lawxf8oKHkUiHv3NUBo',#5,$,$,(#110),#1035);
#1037= IFCQUANTITYLENGTH('Length',$,$,8.);
#1038= IFCQUANTITYLENGTH('Width',$,$,0.3);
#1039= IFCQUANTITYLENGTH('Height',$,$,3.903012049);
#1040= IFCQUANTITYAREA('GrossFootprintArea',$,$,2.4);
#1041= IFCQUANTITYAREA('GrossSideArea',$,$,28.013386883);
#1042= IFCQUANTITYAREA('NetSideArea',$,$,28.013386883);
#1043= IFCQUANTITYVOLUME('GrossVolume',$,$,8.404016065);
#1044= IFCQUANTITYVOLUME('NetVolume',$,$,8.404016065);
#1045= IFCELEMENTQUANTITY('2ddgx089q2njioKNKreDoS',#5,'Qto_WallBaseQuantities',$,$,(#1037,#1038,#1039,#1040,#1041,#1042,#1043,#1044));
#1046= IFCRELDEFINESBYPROPERTIES('2MP3UqD7mJkxbKrIbZ1vNK',#5,$,$,(#164),#1045);
#1047= IFCQUANTITYLENGTH('Length',$,$,8.);
#1048= IFCQUANTITYLENGTH('Width',$,$,0.3);
#1049= IFCQUANTITYLENGTH('Height',$,$,3.);
#1050= IFCQUANTITYAREA('GrossFootprintArea',$,$,2.4);
#1051= IFCQUANTITYAREA('GrossSideArea',$,$,24.);
#1052= IFCQUANTITYAREA('NetSideArea',$,$,19.23);
#1053= IFCQUANTITYVOLUME('GrossVolume',$,$,7.2);
#1054= IFCQUANTITYVOLUME('NetVolume',$,$,5.769);
#1055= IFCELEMENTQUANTITY('3RPYu_rfUlzIaoSjW0FY6$',#5,'Qto_WallBaseQuantities',$,$,(#1047,#1048,#1049,#1050,#1051,#1052,#1053,#1054));
#1056= IFCRELDEFINESBYPROPERTIES('39pnTLSE04pMIKLJkQj7GO',#5,$,$,(#191),#1055);
#1057= IFCQUANTITYLENGTH('Length',$,$,6.);
#1058= IFCQUANTITYLENGTH('Width',$,$,0.3);
#1059= IFCQUANTITYLENGTH('Height',$,$,4.852410425);
#1060= IFCQUANTITYAREA('GrossFootprintArea',$,$,1.8);
#1061= IFCQUANTITYAREA('GrossSideArea',$,$,22.957231275);
#1062= IFCQUANTITYAREA('NetSideArea',$,$,22.957231275);
#1063= IFCQUANTITYVOLUME('GrossVolume',$,$,6.885630075);
#1064= IFCQUANTITYVOLUME('NetVolume',$,$,6.885630075);
#1065= IFCELEMENTQUANTITY('25aYGZvyJYF1vBgCPXoZmf',#5,'Qto_WallBaseQuantities',$,$,(#1057,#1058,#1059,#1060,#1061,#1062,#1063,#1064));
#1066= IFCRELDEFINESBYPROPERTIES('10JoAQD0jqnLKLdkZBzb4o',#5,$,$,(#259),#1065);
#1067= IFCQUANTITYLENGTH('Length',$,$,8.);
#1068= IFCQUANTITYLENGTH('Width',$,$,0.3);
#1069= IFCQUANTITYLENGTH('Height',$,$,4.491172875);
#1070= IFCQUANTITYAREA('GrossFootprintArea',$,$,2.4);
#1071= IFCQUANTITYAREA('GrossSideArea',$,$,32.124244031);
#1072= IFCQUANTITYAREA('NetSideArea',$,$,32.124244031);
#1073= IFCQUANTITYVOLUME('GrossVolume',$,$,9.637273209);
#1074= IFCQUANTITYVOLUME('NetVolume',$,$,9.637273209);
#1075= IFCELEMENTQUANTITY('37gnLEbAGQvXLxLW9GKHcC',#5,'Qto_WallBaseQuantities',$,$,(#1067,#1068,#1069,#1070,#1071,#1072,#1073,#1074));
#1076= IFCRELDEFINESBYPROPERTIES('0AOKWN6g9CCzsLY987DkyE',#5,$,$,(#352),#1075);
#1077= IFCQUANTITYLENGTH('Length',$,$,8.);
#1078= IFCQUANTITYLENGTH('Width',$,$,0.3);
#1079= IFCQUANTITYLENGTH('Height',$,$,2.85);
#1080= IFCQUANTITYAREA('GrossFootprintArea',$,$,2.4);
#1081= IFCQUANTITYAREA('GrossSideArea',$,$,22.8);
#1082= IFCQUANTITYAREA('NetSideArea',$,$,22.8);
#1083= IFCQUANTITYVOLUME('GrossVolume',$,$,6.84);
#1084= IFCQUANTITYVOLUME('NetVolume',$,$,6.84);
#1085= IFCELEMENTQUANTITY('0$vP4eLHLujH4LGqC8gXLY',#5,'Qto_WallBaseQuantities',$,$,(#1077,#1078,#1079,#1080,#1081,#1082,#1083,#1084));
#1086= IFCRELDEFINESBYPROPERTIES('3OIpEnm96avXALSLW_537u',#5,$,$,(#414),#1085);
#1087= IFCQUANTITYLENGTH('Length',$,$,8.);
#1088= IFCQUANTITYLENGTH('Width',$,$,0.3);
#1089= IFCQUANTITYLENGTH('Height',$,$,2.8);
#1090= IFCQUANTITYAREA('GrossFootprintArea',$,$,2.4);
#1091= IFCQUANTITYAREA('GrossSideArea',$,$,22.4);
#1092= IFCQUANTITYAREA('NetSideArea',$,$,22.4);
#1093= IFCQUANTITYVOLUME('GrossVolume',$,$,6.72);
#1094= IFCQUANTITYVOLUME('NetVolume',$,$,6.72);
#1095= IFCELEMENTQUANTITY('1nFxOVHux0kRhO5$YI6HCb',#5,'Qto_WallBaseQuantities',$,$,(#1087,#1088,#1089,#1090,#1091,#1092,#1093,#1094));
#1096= IFCRELDEFINESBYPROPERTIES('2KZcN3gRTR6bl7obAdrMfi',#5,$,$,(#435),#1095);
#1097= IFCQUANTITYLENGTH('Length',$,$,8.);
#1098= IFCQUANTITYLENGTH('Width',$,$,0.3);
#1099= IFCQUANTITYLENGTH('Height',$,$,2.85);
#1100= IFCQUANTITYAREA('GrossFootprintArea',$,$,2.4);
#1101= IFCQUANTITYAREA('GrossSideArea',$,$,22.8);
#1102= IFCQUANTITYAREA('NetSideArea',$,$,22.8);
#1103= IFCQUANTITYVOLUME('GrossVolume',$,$,6.84);
#1104= IFCQUANTITYVOLUME('NetVolume',$,$,6.84);
#1105= IFCELEMENTQUANTITY('0S5rDTxo8B9zpX1$1S1sm8',#5,'Qto_WallBaseQuantities',$,$,(#1097,#1098,#1099,#1100,#1101,#1102,#1103,#1104));
#1106= IFCRELDEFINESBYPROPERTIES('3$kEyJgeYZnOXg5AddMmWd',#5,$,$,(#486),#1105);
#1107= IFCQUANTITYLENGTH('Length',$,$,6.);
#1108= IFCQUANTITYLENGTH('Width',$,$,0.3);
#1109= IFCQUANTITYLENGTH('Height',$,$,4.852410425);
#1110= IFCQUANTITYAREA('GrossFootprintArea',$,$,1.8);
#1111= IFCQUANTITYAREA('GrossSideArea',$,$,22.957231275);
#1112= IFCQUANTITYAREA('NetSideArea',$,$,22.957231275);
#1113= IFCQUANTITYVOLUME('GrossVolume',$,$,6.885630075);
#1114= IFCQUANTITYVOLUME('NetVolume',$,$,6.885630075);
#1115= IFCELEMENTQUANTITY('16MCIkpT4I7d4zX2KSVuXB',#5,'Qto_WallBaseQuantities',$,$,(#1107,#1108,#1109,#1110,#1111,#1112,#1113,#1114));
#1116= IFCRELDEFINESBYPROPERTIES('3VT6wAfTAdnvOZbCzZ56_o',#5,$,$,(#559),#1115);
#1117= IFCQUANTITYLENGTH('Height',$,$,2.1);
#1118= IFCQUANTITYLENGTH('Width',$,$,0.9);
#1119= IFCQUANTITYAREA('Area',$,$,1.89);
#1120= IFCELEMENTQUANTITY('3Xf5mP0Daip9l$Sn7t$NQV',#5,'Qto_DoorBaseQuantities',$,$,(#1117,#1118,#1119));
#1121= IFCRELDEFINESBYPROPERTIES('0nZeeM14kCZwEYlsPDAPyv',#5,$,$,(#606),#1120);
#1122= IFCQUANTITYLENGTH('Height',$,$,1.2);
#1123= IFCQUANTITYLENGTH('Width',$,$,1.2);
#1124= IFCQUANTITYAREA('Area',$,$,1.44);
#1125= IFCELEMENTQUANTITY('3RcUwknbS5I6gcGLvJ0Tof',#5,'Qto_WindowBaseQuantities',$,$,(#1122,#1123,#1124));
#1126= IFCRELDEFINESBYPROPERTIES('36oavEcAhUi6zqWZHyKzoq',#5,$,$,(#640),#1125);
#1127= IFCQUANTITYLENGTH('Height',$,$,1.2);
#1128= IFCQUANTITYLENGTH('Width',$,$,1.2);
#1129= IFCQUANTITYAREA('Area',$,$,1.44);
#1130= IFCELEMENTQUANTITY('2W3awmGXqz1c0ikinE50uT',#5,'Qto_WindowBaseQuantities',$,$,(#1127,#1128,#1129));
#1131= IFCRELDEFINESBYPROPERTIES('2CVKhh72IX3_YWtCLIDSWp',#5,$,$,(#666),#1130);
#1132= IFCQUANTITYLENGTH('Length',$,$,1.55);
#1133= IFCQUANTITYAREA('CrossSectionArea',$,$,0.002);
#1134= IFCQUANTITYVOLUME('GrossVolume',$,$,0.0031);
#1135= IFCELEMENTQUANTITY('3W4vuT$YqTG7ixQrb1a53r',#5,'Qto_MemberBaseQuantities',$,$,(#1132,#1133,#1134));
#1136= IFCRELDEFINESBYPROPERTIES('2iTsZ6YSwL2lftQ6g$c$Gs',#5,$,$,(#680),#1135);
#1137= IFCQUANTITYLENGTH('Length',$,$,5.55);
#1138= IFCQUANTITYAREA('CrossSectionArea',$,$,0.002);
#1139= IFCQUANTITYVOLUME('GrossVolume',$,$,0.0111);
#1140= IFCELEMENTQUANTITY('1PnlTDpELo_0UqZHSuIEzb',#5,'Qto_MemberBaseQuantities',$,$,(#1137,#1138,#1139));
#1141= IFCRELDEFINESBYPROPERTIES('17MmR1v4m7dJVrUnE8kml7',#5,$,$,(#699),#1140);
#1142= IFCQUANTITYLENGTH('Length',$,$,8.);
#1143= IFCQUANTITYAREA('CrossSectionArea',$,$,0.002);
#1144= IFCQUANTITYVOLUME('GrossVolume',$,$,0.016);
#1145= IFCELEMENTQUANTITY('0IP6Eylqg1bWTB61dppWcO',#5,'Qto_MemberBaseQuantities',$,$,(#1142,#1143,#1144));
#1146= IFCRELDEFINESBYPROPERTIES('365HfZFb90yR94yQC1FPy4',#5,$,$,(#723),#1145);
#1147= IFCQUANTITYLENGTH('Length',$,$,8.);
#1148= IFCQUANTITYAREA('CrossSectionArea',$,$,0.002);
#1149= IFCQUANTITYVOLUME('GrossVolume',$,$,0.016);
#1150= IFCELEMENTQUANTITY('1iw5FPsJVqxfoqleH2o4CD',#5,'Qto_MemberBaseQuantities',$,$,(#1147,#1148,#1149));
#1151= IFCRELDEFINESBYPROPERTIES('0oOEFZyWsI7GeBYgAHnrVk',#5,$,$,(#781),#1150);
#1152= IFCQUANTITYLENGTH('Width',$,$,0.2);
#1153= IFCQUANTITYLENGTH('Perimeter',$,$,40.);
#1154= IFCQUANTITYAREA('GrossArea',$,$,100.);
#1155= IFCQUANTITYAREA('NetArea',$,$,100.);
#1156= IFCQUANTITYVOLUME('GrossVolume',$,$,20.);
#1157= IFCQUANTITYVOLUME('NetVolume',$,$,20.);
#1158= IFCELEMENTQUANTITY('21n7YTA1fJcpPzNJC_ZTnP',#5,'Qto_SlabBaseQuantities',$,$,(#1152,#1153,#1154,#1155,#1156,#1157));
#1159= IFCRELDEFINESBYPROPERTIES('2YBWLE3iVbRa3_Jkxqy$J2',#5,$,$,(#841),#1158);
#1160= IFCQUANTITYAREA('ProjectedArea',$,$,48.);
#1161= IFCELEMENTQUANTITY('1AdAi6Ez4UPh1q2oxm9fNf',#5,'Qto_RoofBaseQuantities',$,$,(#1160));
#1162= IFCRELDEFINESBYPROPERTIES('2i9Lb4cwss7YSmxr5WD0lz',#5,$,$,(#844),#1161);
#1163= IFCQUANTITYVOLUME('GrossVolume',$,$,4.799999988);
#1164= IFCELEMENTQUANTITY('3Xa5i9K85jpwxCmXrYbtni',#5,'Qto_SlabBaseQuantities',$,$,(#1163));
#1165= IFCRELDEFINESBYPROPERTIES('0b7rG9EZnsKgkw2$QRvfSN',#5,$,$,(#922),#1164);
#1166= IFCQUANTITYAREA('ProjectedArea',$,$,80.);
#1167= IFCELEMENTQUANTITY('2KBdy_mOcBi8UKXLitdTGr',#5,'Qto_RoofBaseQuantities',$,$,(#1166));
#1168= IFCRELDEFINESBYPROPERTIES('34pZNpE4cFn4UGxW6$IRLN',#5,$,$,(#924),#1167);
#1169= IFCQUANTITYVOLUME('GrossVolume',$,$,8.);
#1170= IFCELEMENTQUANTITY('17VOHn4Gz8DH20iPiYCtCM',#5,'Qto_SlabBaseQuantities',$,$,(#1169));
#1171= IFCRELDEFINESBYPROPERTIES('2BqF6t$IsGO9TTqjF18iTr',#5,$,$,(#1002),#1170);
#1172= IFCPROPERTYSINGLEVALUE('Level',$,IFCINTEGER(0),$);
#1173= IFCPROPERTYSET('1frTWPEWTqF9DwjHb0rX4V',#5,'Semio_Authoring',$,(#1172));
#1174= IFCRELDEFINESBYPROPERTIES('0YKeVWpBW72LiATpySdKAr',#5,$,$,(#106),#1173);
#1175= IFCPROPERTYSINGLEVALUE('Level',$,IFCINTEGER(1),$);
#1176= IFCPROPERTYSET('2l$loyJyjDwQ_Yr_Hx1x1u',#5,'Semio_Authoring',$,(#1175));
#1177= IFCRELDEFINESBYPROPERTIES('0rrAOhWJkXUXl1Ok7CdzmS',#5,$,$,(#110),#1176);
#1178= IFCPROPERTYSINGLEVALUE('Slab',$,IFCLABEL('{"storey":"st-0","slab_type":"slt-200","boundary":[{"point":{"x":40.0,"y":-5.0},"bulge":0.0},{"point":{"x":50.0,"y":-5.0},"bulge":0.0},{"point":{"x":50.0,"y":5.0},"bulge":0.0},{"point":{"x":40.0,"y":5.0},"bulge":0.0}],"holes":[],"offset":0.0,"slope":{"direction":0.0,"angle":0.1},"phase":"New","name":"Sloped slab"}'),$);
#1179= IFCPROPERTYSET('0eiQzYab9Xqbf2BH5ys$Sx',#5,'Semio_Authoring',$,(#1178));
#1180= IFCRELDEFINESBYPROPERTIES('3pj4Sm7uKJ7OepmoJDCYiF',#5,$,$,(#841),#1179);
#1181= IFCPROPERTYSINGLEVALUE('Roof',$,IFCLABEL('{"storey":"st-1","roof_type":"rt-tile","footprint":[{"point":{"x":0.0,"y":0.0},"bulge":0.0},{"point":{"x":8.0,"y":0.0},"bulge":0.0},{"point":{"x":8.0,"y":6.0},"bulge":0.0},{"point":{"x":0.0,"y":6.0},"bulge":0.0}],"shape":{"Gable":{"pitch":0.6,"ridge_direction":0.0}},"overhang":0.0,"base_offset":0.0,"phase":"New","name":"Gable roof"}'),$);
#1182= IFCPROPERTYSET('2RyiYgS58KP5KhscT7esYZ',#5,'Semio_Authoring',$,(#1181));
#1183= IFCRELDEFINESBYPROPERTIES('3K6JEI3iRKdf2sIYvHD1UH',#5,$,$,(#844),#1182);
#1184= IFCPROPERTYSINGLEVALUE('Roof',$,IFCLABEL('{"storey":"st-1","roof_type":"rt-tile","footprint":[{"point":{"x":20.0,"y":0.0},"bulge":0.0},{"point":{"x":30.0,"y":0.0},"bulge":0.0},{"point":{"x":30.0,"y":8.0},"bulge":0.0},{"point":{"x":20.0,"y":8.0},"bulge":0.0}],"shape":{"Hip":{"pitch":0.4}},"overhang":0.0,"base_offset":0.0,"phase":"New","name":"Hip roof"}'),$);
#1185= IFCPROPERTYSET('0wFylrMVRr42rZERTSDCK0',#5,'Semio_Authoring',$,(#1184));
#1186= IFCRELDEFINESBYPROPERTIES('2Ue1M2ZUY7159EskKZqG8d',#5,$,$,(#924),#1185);
#1187= IFCRELCONNECTSELEMENTS('2En4mvFAiwhpyutCE46s0$',#5,$,'BaseAttach',$,#164,#841);
#1188= IFCRELCONNECTSELEMENTS('10TB7Az$D5bh3VJVDAziI5',#5,$,'TopAttach',$,#259,#844);
#1189= IFCRELCONNECTSELEMENTS('0UpUJxG65RJM92dUVnUzn6',#5,$,'TopAttach',$,#352,#924);
#1190= IFCRELCONNECTSELEMENTS('0r0_b8nxMiHnTXhdOr0nWO',#5,$,'TopAttach',$,#414,#844);
#1191= IFCRELCONNECTSELEMENTS('3qu5zQIMsJGrA_ZYdicTtU',#5,$,'TopAttach',$,#486,#844);
#1192= IFCRELCONNECTSELEMENTS('1TC7dPGWuGgwssnclORqAP',#5,$,'TopAttach',$,#559,#844);
ENDSEC;

END-ISO-10303-21;
