ply
format ascii 1.0
element vertex 9
property float x
property float y
property float z
property float nx
property float ny
property float nz
element face 14
property list uchar int vertex_index
end_header
-8.485280990600586 -8.485280990600586 -15 -0.6565321662808694 -0.6565321662808694 -0.37139066934576814
-12 0 -15 -0.9622504555245509 -7.209924540486648e-9 0.27216550266849454
-8.485280990600586 8.485280990600586 -15 -0.7071067811865476 0.7071067811865476 0
0 -12 -15 -6.187782463382003e-9 -0.8258333442167208 -0.5639142555210209
8.485280990600586 -8.485280990600586 -15 0.7071067811865476 -0.7071067811865476 -3.097545828444548e-9
0 12 -15 -6.187782463382003e-9 0.8258333442167208 -0.5639142555210209
12 0 -15 0.9622504555245509 -7.209924540486648e-9 0.27216550266849454
8.485280990600586 8.485280990600586 -15 0.6565321590141713 0.6565321590141713 -0.371390695037425
0 0 15 4.214685134229508e-8 -4.682983334447495e-9 0.9999999999999991
3 8 1 0
3 8 0 3
3 5 3 0
3 2 0 1
3 8 2 1
3 5 0 2
3 8 5 2
3 8 3 4
3 7 4 3
3 8 4 6
3 7 3 5
3 8 7 5
3 6 4 7
3 8 6 7

