{"asset":{"version":"2.0","generator":"THREE.GLTFExporter r182"},"scenes":[{"name":"AuxScene","nodes":[0]}],"scene":0,"nodes":[{"mesh":0}],"bufferViews":[{"buffer":0,"byteOffset":0,"byteLength":108,"target":34962,"byteStride":12},{"buffer":0,"byteOffset":108,"byteLength":108,"target":34962,"byteStride":12},{"buffer":0,"byteOffset":216,"byteLength":168,"target":34963}],"buffers":[{"byteLength":384,"uri":"data:application/octet-stream;base64,"}],"accessors":[{"bufferView":0,"componentType":5126,"count":9,"max":[12,12,15],"min":[-12,-12,-15],"type":"VEC3"},{"bufferView":1,"componentType":5126,"count":9,"max":[0.9622504711151123,0.8258333206176758,1],"min":[-0.9622504711151123,-0.8258333206176758,-0.5639142394065857],"type":"VEC3"},{"bufferView":2,"componentType":5125,"count":42,"max":[8],"min":[0],"type":"SCALAR"}],"materials":[{"pbrMetallicRoughness":{"baseColorFactor":[0.06847816983662762,0.2788942634659966,0.6938717612856897,1],"metallicFactor":0.25,"roughnessFactor":0.4},"name":"primitives-cone-8-material"}],"meshes":[{"primitives":[{"mode":4,"attributes":{"POSITION":0,"NORMAL":1},"indices":2,"material":0}]}]}