o 
usemtl primitives-cylinder-16-material
v -7.071067810058594 -7.071067810058594 -15
v -9.238795280456543 -3.8268344402313232 -15
v -3.8268344402313232 -9.238795280456543 -15
v -7.071067810058594 -7.071067810058594 15
v -9.238795280456543 -3.8268344402313232 15
v -3.8268344402313232 -9.238795280456543 15
v -10 0 -15
v -9.238795280456543 3.8268344402313232 -15
v -7.071067810058594 7.071067810058594 -15
v -3.8268344402313232 9.238795280456543 -15
v -10 0 15
v -9.238795280456543 3.8268344402313232 15
v -7.071067810058594 7.071067810058594 15
v -3.8268344402313232 9.238795280456543 15
v 0 -10 -15
v 3.8268344402313232 -9.238795280456543 -15
v 7.071067810058594 -7.071067810058594 -15
v 9.238795280456543 -3.8268344402313232 -15
v 0 -10 15
v 3.8268344402313232 -9.238795280456543 15
v 7.071067810058594 -7.071067810058594 15
v 9.238795280456543 -3.8268344402313232 15
v 0 10 -15
v 3.8268344402313232 9.238795280456543 -15
v 10 0 -15
v 9.238795280456543 3.8268344402313232 -15
v 7.071067810058594 7.071067810058594 -15
v 0 10 15
v 3.8268344402313232 9.238795280456543 15
v 10 0 15
v 9.238795280456543 3.8268344402313232 15
v 7.071067810058594 7.071067810058594 15
vn -0.6996323449670728 -0.6126243457537246 -0.3677036753497246
vn -0.9361714759394725 -0.31699687373443997 -0.1519735163767067
vn -0.37979799623972665 -0.768685939253785 -0.5146604791955711
vn -0.6126243457537246 -0.6996323449670728 0.3677036753497246
vn -0.886123852899392 -0.4378225290626454 0.15197351864034056
vn -0.2749853151522956 -0.8121007732184076 0.5146604808887671
vn -0.9976670016783914 0.0661494350807252 -0.01687619627018003
vn -0.8946527412699551 0.44203660732223554 -0.06480825815590775
vn -0.6360334768716391 0.7263661639818809 -0.2604872590374073
vn -0.2855433480820077 0.8432813160279196 -0.45534779938453374
vn -0.9976670016783914 -0.0661494350807252 0.01687619627018003
vn -0.9451820987416901 0.32004794942462883 0.06480825786382537
vn -0.7263661639818809 0.6360334768716391 0.2604872590374073
vn -0.3943802631216558 0.7981995771956218 0.45534782641934735
vn -0.05551286132282899 -0.8372459548183178 -0.5440014093438689
vn 0.2855433480820077 -0.8432813160279196 -0.45534779938453374
vn 0.6360334768716391 -0.7263661639818809 -0.2604872590374073
vn 0.8946527412699551 -0.44203660732223554 -0.06480825815590775
vn 0.05551286132282899 -0.8372459548183178 0.5440014093438689
vn 0.3943803070518444 -0.7981995461848425 0.4553478427312513
vn 0.7263661639818809 -0.6360334768716391 0.2604872590374073
vn 0.9451820987416901 -0.32004794942462883 0.06480825786382537
vn 0.05551286132282899 0.8372459548183178 -0.5440014093438689
vn 0.37979799623972665 0.768685939253785 -0.5146604791955711
vn 0.9976670016783914 -0.0661494350807252 -0.01687619627018003
vn 0.9361714759394725 0.31699687373443997 -0.1519735163767067
vn 0.6996323449670728 0.6126243457537246 -0.3677036753497246
vn -0.05551286132282899 0.8372459548183178 0.5440014093438689
vn 0.2749853151522956 0.8121007732184076 0.5146604808887671
vn 0.9976670016783914 0.0661494350807252 0.01687619627018003
vn 0.8861238297748756 0.43782257724176016 0.15197351467440043
vn 0.6126243457537246 0.6996323449670728 0.3677036753497246
f 4//4 1//1 3//3
f 9//9 1//1 2//2
f 5//5 2//2 1//1
f 11//11 7//7 2//2
f 6//6 3//3 15//15
f 10//10 3//3 1//1
f 23//23 15//15 3//3
f 4//4 5//5 1//1
f 5//5 11//11 2//2
f 13//13 5//5 4//4
f 6//6 4//4 3//3
f 19//19 6//6 15//15
f 14//14 4//4 6//6
f 28//28 6//6 19//19
f 8//8 2//2 7//7
f 9//9 2//2 8//8
f 10//10 1//1 9//9
f 12//12 8//8 7//7
f 13//13 9//9 8//8
f 23//23 3//3 10//10
f 14//14 10//10 9//9
f 28//28 23//23 10//10
f 11//11 12//12 7//7
f 12//12 13//13 8//8
f 12//12 11//11 5//5
f 13//13 12//12 5//5
f 14//14 13//13 4//4
f 13//13 14//14 9//9
f 28//28 14//14 6//6
f 14//14 28//28 10//10
f 19//19 15//15 16//16
f 20//20 16//16 17//17
f 24//24 16//16 15//15
f 21//21 17//17 18//18
f 27//27 17//17 16//16
f 26//26 18//18 17//17
f 22//22 18//18 25//25
f 20//20 19//19 16//16
f 29//29 19//19 20//20
f 21//21 20//20 17//17
f 22//22 21//21 18//18
f 30//30 22//22 25//25
f 32//32 20//20 21//21
f 31//31 21//21 22//22
f 24//24 15//15 23//23
f 27//27 16//16 24//24
f 29//29 24//24 23//23
f 26//26 17//17 27//27
f 25//25 18//18 26//26
f 30//30 25//25 26//26
f 31//31 26//26 27//27
f 32//32 27//27 24//24
f 29//29 28//28 19//19
f 32//32 29//29 20//20
f 28//28 29//29 23//23
f 29//29 32//32 24//24
f 31//31 30//30 26//26
f 31//31 32//32 21//21
f 30//30 31//31 22//22
f 32//32 31//31 27//27
