ply
format ascii 1.0
element vertex 32
property float x
property float y
property float z
property float nx
property float ny
property float nz
element face 60
property list uchar int vertex_index
end_header
-7.071067810058594 -7.071067810058594 -15 -0.6996323449670728 -0.6126243457537246 -0.3677036753497246
-9.238795280456543 -3.8268344402313232 -15 -0.9361714759394725 -0.31699687373443997 -0.1519735163767067
-3.8268344402313232 -9.238795280456543 -15 -0.37979799623972665 -0.768685939253785 -0.5146604791955711
-7.071067810058594 -7.071067810058594 15 -0.6126243457537246 -0.6996323449670728 0.3677036753497246
-9.238795280456543 -3.8268344402313232 15 -0.886123852899392 -0.4378225290626454 0.15197351864034056
-3.8268344402313232 -9.238795280456543 15 -0.2749853151522956 -0.8121007732184076 0.5146604808887671
-10 0 -15 -0.9976670016783914 0.0661494350807252 -0.01687619627018003
-9.238795280456543 3.8268344402313232 -15 -0.8946527412699551 0.44203660732223554 -0.06480825815590775
-7.071067810058594 7.071067810058594 -15 -0.6360334768716391 0.7263661639818809 -0.2604872590374073
-3.8268344402313232 9.238795280456543 -15 -0.2855433480820077 0.8432813160279196 -0.45534779938453374
-10 0 15 -0.9976670016783914 -0.0661494350807252 0.01687619627018003
-9.238795280456543 3.8268344402313232 15 -0.9451820987416901 0.32004794942462883 0.06480825786382537
-7.071067810058594 7.071067810058594 15 -0.7263661639818809 0.6360334768716391 0.2604872590374073
-3.8268344402313232 9.238795280456543 15 -0.3943802631216558 0.7981995771956218 0.45534782641934735
0 -10 -15 -0.05551286132282899 -0.8372459548183178 -0.5440014093438689
3.8268344402313232 -9.238795280456543 -15 0.2855433480820077 -0.8432813160279196 -0.45534779938453374
7.071067810058594 -7.071067810058594 -15 0.6360334768716391 -0.7263661639818809 -0.2604872590374073
9.238795280456543 -3.8268344402313232 -15 0.8946527412699551 -0.44203660732223554 -0.06480825815590775
0 -10 15 0.05551286132282899 -0.8372459548183178 0.5440014093438689
3.8268344402313232 -9.238795280456543 15 0.3943803070518444 -0.7981995461848425 0.4553478427312513
7.071067810058594 -7.071067810058594 15 0.7263661639818809 -0.6360334768716391 0.2604872590374073
9.238795280456543 -3.8268344402313232 15 0.9451820987416901 -0.32004794942462883 0.06480825786382537
0 10 -15 0.05551286132282899 0.8372459548183178 -0.5440014093438689
3.8268344402313232 9.238795280456543 -15 0.37979799623972665 0.768685939253785 -0.5146604791955711
10 0 -15 0.9976670016783914 -0.0661494350807252 -0.01687619627018003
9.238795280456543 3.8268344402313232 -15 0.9361714759394725 0.31699687373443997 -0.1519735163767067
7.071067810058594 7.071067810058594 -15 0.6996323449670728 0.6126243457537246 -0.3677036753497246
0 10 15 -0.05551286132282899 0.8372459548183178 0.5440014093438689
3.8268344402313232 9.238795280456543 15 0.2749853151522956 0.8121007732184076 0.5146604808887671
10 0 15 0.9976670016783914 0.0661494350807252 0.01687619627018003
9.238795280456543 3.8268344402313232 15 0.8861238297748756 0.43782257724176016 0.15197351467440043
7.071067810058594 7.071067810058594 15 0.6126243457537246 0.6996323449670728 0.3677036753497246
3 3 0 2
3 8 0 1
3 4 1 0
3 10 6 1
3 5 2 14
3 9 2 0
3 22 14 2
3 3 4 0
3 4 10 1
3 12 4 3
3 5 3 2
3 18 5 14
3 13 3 5
3 27 5 18
3 7 1 6
3 8 1 7
3 9 0 8
3 11 7 6
3 12 8 7
3 22 2 9
3 13 9 8
3 27 22 9
3 10 11 6
3 11 12 7
3 11 10 4
3 12 11 4
3 13 12 3
3 12 13 8
3 27 13 5
3 13 27 9
3 18 14 15
3 19 15 16
3 23 15 14
3 20 16 17
3 26 16 15
3 25 17 16
3 21 17 24
3 19 18 15
3 28 18 19
3 20 19 16
3 21 20 17
3 29 21 24
3 31 19 20
3 30 20 21
3 23 14 22
3 26 15 23
3 28 23 22
3 25 16 26
3 24 17 25
3 29 24 25
3 30 25 26
3 31 26 23
3 28 27 18
3 31 28 19
3 27 28 22
3 28 31 23
3 30 29 25
3 30 31 20
3 29 30 21
3 31 30 26

