ply
format ascii 1.0
element vertex 72
property float x
property float y
property float z
property float nx
property float ny
property float nz
element face 144
property list uchar int vertex_index
end_header
-15 -15 -10 -0.8008453058162515 -0.40042265290812573 -0.445318419998649
-4.242640495300293 -4.242640495300293 -10 0.6510780927203376 0.6096867804232526 -0.45208334072024386
-5.884711742401123 -1.1705418825149536 -10 0.919930420810384 0.1517925001300114 -0.3615066496925198
-4.9888176918029785 -3.333421468734741 -10 0.7616377951539093 0.4735179172492602 -0.4423670998582679
-5.543277263641357 -2.296100616455078 -10 0.8525311243911883 0.3207787235087489 -0.41266414005628554
-3.333421468734741 -4.9888176918029785 -10 0.5224543097649765 0.7289395170219307 -0.4423671266401203
-2.296100616455078 -5.543277263641357 -10 0.3760057066835792 0.8296553437654711 -0.4126641723033149
-1.1705418825149536 -5.884711742401123 -10 0.05226294273319 0.2240485825354504 -0.9731756354742563
-15 -15 10 -0.40042264168385266 -0.8008452833677053 0.4453184704620106
-4.242640495300293 -4.242640495300293 10 0.6096867804232526 0.6510780927203376 0.45208334072024386
-5.884711742401123 -1.1705418825149536 10 0.2240485825354504 0.05226294273319 0.9731756354742563
-4.9888176918029785 -3.333421468734741 10 0.7289395170219307 0.5224543097649765 0.4423671266401203
-5.543277263641357 -2.296100616455078 10 0.8296553437654711 0.3760057066835792 0.4126641723033149
-3.333421468734741 -4.9888176918029785 10 0.4735179172492602 0.7616377951539093 0.4423670998582679
-2.296100616455078 -5.543277263641357 10 0.3207787235087489 0.8525311243911883 0.41266414005628554
-1.1705418825149536 -5.884711742401123 10 0.1517925001300114 0.919930420810384 0.3615066496925198
-15 15 -10 -0.40042265290812573 0.8008453058162515 -0.445318419998649
-6 0 -10 0.957353069634086 -0.031430334317546806 -0.28720590896929665
-5.884711742401123 1.1705418825149536 -10 0.2240485825354504 -0.05226294273319 -0.9731756354742563
-5.543277263641357 2.296100616455078 -10 0.8296553437654711 -0.3760057066835792 -0.4126641723033149
-4.9888176918029785 3.333421468734741 -10 0.7289394794783569 -0.5224543255768533 -0.4423671698305122
-4.242640495300293 4.242640495300293 -10 0.6096867804232526 -0.6510780927203376 -0.45208334072024386
-3.333421468734741 4.9888176918029785 -10 0.4735179172492602 -0.7616377951539093 -0.4423670998582679
-2.296100616455078 5.543277263641357 -10 0.3207787235087489 -0.8525311243911883 -0.41266414005628554
-1.1705418825149536 5.884711742401123 -10 0.1517925001300114 -0.919930420810384 -0.3615066496925198
-15 15 10 -0.8008453058162515 0.40042265290812573 0.445318419998649
-6 0 10 0.957353069634086 0.031430334317546806 0.28720590896929665
-5.884711742401123 1.1705418825149536 10 0.919930420810384 -0.1517925001300114 0.3615066496925198
-5.543277263641357 2.296100616455078 10 0.8525311243911883 -0.3207787235087489 0.41266414005628554
-4.9888176918029785 3.333421468734741 10 0.7616377708325269 -0.473517909382899 0.4423671501534756
-4.242640495300293 4.242640495300293 10 0.6510781163806219 -0.6096867429747241 0.45208335714902637
-3.333421468734741 4.9888176918029785 10 0.5224543097649765 -0.7289395170219307 0.4423671266401203
-2.296100616455078 5.543277263641357 10 0.3760056857189673 -0.8296553632658512 0.4126641522003307
-1.1705418825149536 5.884711742401123 10 0.05226294273319 -0.2240485825354504 0.9731756354742563
0 -6 -10 0.031430334317546806 0.957353069634086 -0.28720590896929665
1.1705418825149536 -5.884711742401123 -10 -0.1517925001300114 0.919930420810384 -0.3615066496925198
2.296100616455078 -5.543277263641357 -10 -0.3207787235087489 0.8525311243911883 -0.41266414005628554
3.333421468734741 -4.9888176918029785 -10 -0.473517909382899 0.7616377708325269 -0.4423671501534756
4.242640495300293 -4.242640495300293 -10 -0.6096867804232526 0.6510780927203376 -0.45208334072024386
4.9888176918029785 -3.333421468734741 -10 -0.7289395170219307 0.5224543097649765 -0.4423671266401203
5.543277263641357 -2.296100616455078 -10 -0.8296553437654711 0.3760057066835792 -0.4126641723033149
5.884711742401123 -1.1705418825149536 -10 -0.2240485825354504 0.05226294273319 -0.9731756354742563
15 -15 -10 0.40042265290812573 -0.8008453058162515 -0.445318419998649
0 -6 10 -0.031430334317546806 0.957353069634086 0.28720590896929665
1.1705418825149536 -5.884711742401123 10 -0.05226294273319 0.2240485825354504 0.9731756354742563
2.296100616455078 -5.543277263641357 10 -0.3760057066835792 0.8296553437654711 0.4126641723033149
3.333421468734741 -4.9888176918029785 10 -0.5224543255768533 0.7289394794783569 0.4423671698305122
4.242640495300293 -4.242640495300293 10 -0.6510780927203376 0.6096867804232526 0.45208334072024386
4.9888176918029785 -3.333421468734741 10 -0.7616377951539093 0.4735179172492602 0.4423670998582679
5.543277263641357 -2.296100616455078 10 -0.8525311243911883 0.3207787235087489 0.41266414005628554
5.884711742401123 -1.1705418825149536 10 -0.919930420810384 0.1517925001300114 0.3615066496925198
15 -15 10 0.8008453058162515 -0.40042265290812573 0.445318419998649
0 6 -10 -0.031430334317546806 -0.957353069634086 -0.28720590896929665
1.1705418825149536 5.884711742401123 -10 -0.05226294273319 -0.2240485825354504 -0.9731756354742563
2.296100616455078 5.543277263641357 -10 -0.3760057066835792 -0.8296553437654711 -0.4126641723033149
3.333421468734741 4.9888176918029785 -10 -0.5224543255768533 -0.7289394794783569 -0.4423671698305122
5.543277263641357 2.296100616455078 -10 -0.8525311243911883 -0.3207787235087489 -0.41266414005628554
4.9888176918029785 3.333421468734741 -10 -0.7616377708325269 -0.473517909382899 -0.4423671501534756
6 0 -10 -0.957353069634086 0.031430334317546806 -0.28720590896929665
5.884711742401123 1.1705418825149536 -10 -0.919930420810384 -0.1517925001300114 -0.3615066496925198
4.242640495300293 4.242640495300293 -10 -0.6510780927203376 -0.6096867804232526 -0.45208334072024386
15 15 -10 0.8008453058162515 0.40042265290812573 -0.445318419998649
0 6 10 0.031430334317546806 -0.957353069634086 0.28720590896929665
1.1705418825149536 5.884711742401123 10 -0.1517925001300114 -0.919930420810384 0.3615066496925198
2.296100616455078 5.543277263641357 10 -0.3207787235087489 -0.8525311243911883 0.41266414005628554
3.333421468734741 4.9888176918029785 10 -0.473517909382899 -0.7616377708325269 0.4423671501534756
5.543277263641357 2.296100616455078 10 -0.8296553632658512 -0.3760056857189673 0.4126641522003307
4.9888176918029785 3.333421468734741 10 -0.7289394794783569 -0.5224543255768533 0.4423671698305122
6 0 10 -0.957353069634086 -0.031430334317546806 0.28720590896929665
5.884711742401123 1.1705418825149536 10 -0.2240485825354504 -0.05226294273319 0.9731756354742563
4.242640495300293 4.242640495300293 10 -0.6096867429747241 -0.6510781163806219 0.45208335714902637
15 15 10 0.40042265290812573 0.8008453058162515 0.445318419998649
3 0 3 1
3 0 1 5
3 0 4 3
3 0 2 4
3 0 17 2
3 0 18 17
3 0 5 6
3 0 6 7
3 0 7 42
3 0 42 8
3 8 9 11
3 8 13 9
3 0 8 25
3 8 10 25
3 8 11 12
3 8 12 10
3 8 14 13
3 8 15 14
3 8 43 15
3 8 44 43
3 0 16 18
3 16 19 18
3 16 20 19
3 0 25 16
3 16 21 20
3 16 22 21
3 16 23 22
3 16 24 23
3 16 52 24
3 16 53 52
3 25 10 26
3 25 26 27
3 25 27 28
3 25 28 29
3 25 29 30
3 25 30 31
3 16 25 71
3 25 31 32
3 25 32 33
3 25 33 71
3 42 7 34
3 42 34 35
3 42 35 36
3 42 36 37
3 42 37 38
3 42 38 39
3 42 39 40
3 42 40 41
3 42 41 61
3 42 61 51
3 8 42 51
3 8 51 44
3 51 45 44
3 51 46 45
3 51 47 46
3 51 48 47
3 51 49 48
3 51 50 49
3 51 68 50
3 51 69 68
3 16 61 53
3 61 54 53
3 61 55 54
3 16 71 61
3 61 41 58
3 61 58 59
3 61 59 56
3 61 56 57
3 61 60 55
3 61 57 60
3 71 33 62
3 71 62 63
3 71 63 64
3 71 64 65
3 51 61 71
3 71 66 69
3 71 67 66
3 51 71 69
3 71 65 70
3 71 70 67
3 5 1 9
3 4 2 10
3 2 17 26
3 1 3 11
3 3 4 12
3 7 6 14
3 6 5 13
3 7 15 34
3 1 11 9
3 4 10 12
3 2 26 10
3 3 12 11
3 5 9 13
3 6 13 14
3 7 14 15
3 34 15 43
3 17 18 27
3 18 19 28
3 19 20 29
3 20 21 30
3 21 22 31
3 22 23 32
3 23 24 33
3 24 52 62
3 17 27 26
3 18 28 27
3 19 29 28
3 20 30 29
3 21 31 30
3 22 32 31
3 23 33 32
3 24 62 33
3 34 43 35
3 36 35 44
3 37 36 45
3 38 37 46
3 39 38 47
3 40 39 48
3 41 40 49
3 41 50 58
3 35 43 44
3 36 44 45
3 37 45 46
3 38 46 47
3 39 47 48
3 40 48 49
3 41 49 50
3 58 50 68
3 52 53 63
3 54 55 65
3 53 54 64
3 57 56 66
3 60 57 67
3 58 68 59
3 56 59 69
3 55 60 70
3 52 63 62
3 53 64 63
3 54 65 64
3 55 70 65
3 57 66 67
3 59 68 69
3 56 69 66
3 60 67 70

