o 
usemtl boolean-difference-cube-single-bore-material
v -15 -15 -10
v -4.242640495300293 -4.242640495300293 -10
v -5.884711742401123 -1.1705418825149536 -10
v -4.9888176918029785 -3.333421468734741 -10
v -5.543277263641357 -2.296100616455078 -10
v -3.333421468734741 -4.9888176918029785 -10
v -2.296100616455078 -5.543277263641357 -10
v -1.1705418825149536 -5.884711742401123 -10
v -15 -15 10
v -4.242640495300293 -4.242640495300293 10
v -5.884711742401123 -1.1705418825149536 10
v -4.9888176918029785 -3.333421468734741 10
v -5.543277263641357 -2.296100616455078 10
v -3.333421468734741 -4.9888176918029785 10
v -2.296100616455078 -5.543277263641357 10
v -1.1705418825149536 -5.884711742401123 10
v -15 15 -10
v -6 0 -10
v -5.884711742401123 1.1705418825149536 -10
v -5.543277263641357 2.296100616455078 -10
v -4.9888176918029785 3.333421468734741 -10
v -4.242640495300293 4.242640495300293 -10
v -3.333421468734741 4.9888176918029785 -10
v -2.296100616455078 5.543277263641357 -10
v -1.1705418825149536 5.884711742401123 -10
v -15 15 10
v -6 0 10
v -5.884711742401123 1.1705418825149536 10
v -5.543277263641357 2.296100616455078 10
v -4.9888176918029785 3.333421468734741 10
v -4.242640495300293 4.242640495300293 10
v -3.333421468734741 4.9888176918029785 10
v -2.296100616455078 5.543277263641357 10
v -1.1705418825149536 5.884711742401123 10
v 0 -6 -10
v 1.1705418825149536 -5.884711742401123 -10
v 2.296100616455078 -5.543277263641357 -10
v 3.333421468734741 -4.9888176918029785 -10
v 4.242640495300293 -4.242640495300293 -10
v 4.9888176918029785 -3.333421468734741 -10
v 5.543277263641357 -2.296100616455078 -10
v 5.884711742401123 -1.1705418825149536 -10
v 15 -15 -10
v 0 -6 10
v 1.1705418825149536 -5.884711742401123 10
v 2.296100616455078 -5.543277263641357 10
v 3.333421468734741 -4.9888176918029785 10
v 4.242640495300293 -4.242640495300293 10
v 4.9888176918029785 -3.333421468734741 10
v 5.543277263641357 -2.296100616455078 10
v 5.884711742401123 -1.1705418825149536 10
v 15 -15 10
v 0 6 -10
v 1.1705418825149536 5.884711742401123 -10
v 2.296100616455078 5.543277263641357 -10
v 3.333421468734741 4.9888176918029785 -10
v 5.543277263641357 2.296100616455078 -10
v 4.9888176918029785 3.333421468734741 -10
v 6 0 -10
v 5.884711742401123 1.1705418825149536 -10
v 4.242640495300293 4.242640495300293 -10
v 15 15 -10
v 0 6 10
v 1.1705418825149536 5.884711742401123 10
v 2.296100616455078 5.543277263641357 10
v 3.333421468734741 4.9888176918029785 10
v 5.543277263641357 2.296100616455078 10
v 4.9888176918029785 3.333421468734741 10
v 6 0 10
v 5.884711742401123 1.1705418825149536 10
v 4.242640495300293 4.242640495300293 10
v 15 15 10
vn -0.8008453058162515 -0.40042265290812573 -0.445318419998649
vn 0.6510780927203376 0.6096867804232526 -0.45208334072024386
vn 0.919930420810384 0.1517925001300114 -0.3615066496925198
vn 0.7616377951539093 0.4735179172492602 -0.4423670998582679
vn 0.8525311243911883 0.3207787235087489 -0.41266414005628554
vn 0.5224543097649765 0.7289395170219307 -0.4423671266401203
vn 0.3760057066835792 0.8296553437654711 -0.4126641723033149
vn 0.05226294273319 0.2240485825354504 -0.9731756354742563
vn -0.40042264168385266 -0.8008452833677053 0.4453184704620106
vn 0.6096867804232526 0.6510780927203376 0.45208334072024386
vn 0.2240485825354504 0.05226294273319 0.9731756354742563
vn 0.7289395170219307 0.5224543097649765 0.4423671266401203
vn 0.8296553437654711 0.3760057066835792 0.4126641723033149
vn 0.4735179172492602 0.7616377951539093 0.4423670998582679
vn 0.3207787235087489 0.8525311243911883 0.41266414005628554
vn 0.1517925001300114 0.919930420810384 0.3615066496925198
vn -0.40042265290812573 0.8008453058162515 -0.445318419998649
vn 0.957353069634086 -0.031430334317546806 -0.28720590896929665
vn 0.2240485825354504 -0.05226294273319 -0.9731756354742563
vn 0.8296553437654711 -0.3760057066835792 -0.4126641723033149
vn 0.7289394794783569 -0.5224543255768533 -0.4423671698305122
vn 0.6096867804232526 -0.6510780927203376 -0.45208334072024386
vn 0.4735179172492602 -0.7616377951539093 -0.4423670998582679
vn 0.3207787235087489 -0.8525311243911883 -0.41266414005628554
vn 0.1517925001300114 -0.919930420810384 -0.3615066496925198
vn -0.8008453058162515 0.40042265290812573 0.445318419998649
vn 0.957353069634086 0.031430334317546806 0.28720590896929665
vn 0.919930420810384 -0.1517925001300114 0.3615066496925198
vn 0.8525311243911883 -0.3207787235087489 0.41266414005628554
vn 0.7616377708325269 -0.473517909382899 0.4423671501534756
vn 0.6510781163806219 -0.6096867429747241 0.45208335714902637
vn 0.5224543097649765 -0.7289395170219307 0.4423671266401203
vn 0.3760056857189673 -0.8296553632658512 0.4126641522003307
vn 0.05226294273319 -0.2240485825354504 0.9731756354742563
vn 0.031430334317546806 0.957353069634086 -0.28720590896929665
vn -0.1517925001300114 0.919930420810384 -0.3615066496925198
vn -0.3207787235087489 0.8525311243911883 -0.41266414005628554
vn -0.473517909382899 0.7616377708325269 -0.4423671501534756
vn -0.6096867804232526 0.6510780927203376 -0.45208334072024386
vn -0.7289395170219307 0.5224543097649765 -0.4423671266401203
vn -0.8296553437654711 0.3760057066835792 -0.4126641723033149
vn -0.2240485825354504 0.05226294273319 -0.9731756354742563
vn 0.40042265290812573 -0.8008453058162515 -0.445318419998649
vn -0.031430334317546806 0.957353069634086 0.28720590896929665
vn -0.05226294273319 0.2240485825354504 0.9731756354742563
vn -0.3760057066835792 0.8296553437654711 0.4126641723033149
vn -0.5224543255768533 0.7289394794783569 0.4423671698305122
vn -0.6510780927203376 0.6096867804232526 0.45208334072024386
vn -0.7616377951539093 0.4735179172492602 0.4423670998582679
vn -0.8525311243911883 0.3207787235087489 0.41266414005628554
vn -0.919930420810384 0.1517925001300114 0.3615066496925198
vn 0.8008453058162515 -0.40042265290812573 0.445318419998649
vn -0.031430334317546806 -0.957353069634086 -0.28720590896929665
vn -0.05226294273319 -0.2240485825354504 -0.9731756354742563
vn -0.3760057066835792 -0.8296553437654711 -0.4126641723033149
vn -0.5224543255768533 -0.7289394794783569 -0.4423671698305122
vn -0.8525311243911883 -0.3207787235087489 -0.41266414005628554
vn -0.7616377708325269 -0.473517909382899 -0.4423671501534756
vn -0.957353069634086 0.031430334317546806 -0.28720590896929665
vn -0.919930420810384 -0.1517925001300114 -0.3615066496925198
vn -0.6510780927203376 -0.6096867804232526 -0.45208334072024386
vn 0.8008453058162515 0.40042265290812573 -0.445318419998649
vn 0.031430334317546806 -0.957353069634086 0.28720590896929665
vn -0.1517925001300114 -0.919930420810384 0.3615066496925198
vn -0.3207787235087489 -0.8525311243911883 0.41266414005628554
vn -0.473517909382899 -0.7616377708325269 0.4423671501534756
vn -0.8296553632658512 -0.3760056857189673 0.4126641522003307
vn -0.7289394794783569 -0.5224543255768533 0.4423671698305122
vn -0.957353069634086 -0.031430334317546806 0.28720590896929665
vn -0.2240485825354504 -0.05226294273319 0.9731756354742563
vn -0.6096867429747241 -0.6510781163806219 0.45208335714902637
vn 0.40042265290812573 0.8008453058162515 0.445318419998649
f 1//1 4//4 2//2
f 1//1 2//2 6//6
f 1//1 5//5 4//4
f 1//1 3//3 5//5
f 1//1 18//18 3//3
f 1//1 19//19 18//18
f 1//1 6//6 7//7
f 1//1 7//7 8//8
f 1//1 8//8 43//43
f 1//1 43//43 9//9
f 9//9 10//10 12//12
f 9//9 14//14 10//10
f 1//1 9//9 26//26
f 9//9 11//11 26//26
f 9//9 12//12 13//13
f 9//9 13//13 11//11
f 9//9 15//15 14//14
f 9//9 16//16 15//15
f 9//9 44//44 16//16
f 9//9 45//45 44//44
f 1//1 17//17 19//19
f 17//17 20//20 19//19
f 17//17 21//21 20//20
f 1//1 26//26 17//17
f 17//17 22//22 21//21
f 17//17 23//23 22//22
f 17//17 24//24 23//23
f 17//17 25//25 24//24
f 17//17 53//53 25//25
f 17//17 54//54 53//53
f 26//26 11//11 27//27
f 26//26 27//27 28//28
f 26//26 28//28 29//29
f 26//26 29//29 30//30
f 26//26 30//30 31//31
f 26//26 31//31 32//32
f 17//17 26//26 72//72
f 26//26 32//32 33//33
f 26//26 33//33 34//34
f 26//26 34//34 72//72
f 43//43 8//8 35//35
f 43//43 35//35 36//36
f 43//43 36//36 37//37
f 43//43 37//37 38//38
f 43//43 38//38 39//39
f 43//43 39//39 40//40
f 43//43 40//40 41//41
f 43//43 41//41 42//42
f 43//43 42//42 62//62
f 43//43 62//62 52//52
f 9//9 43//43 52//52
f 9//9 52//52 45//45
f 52//52 46//46 45//45
f 52//52 47//47 46//46
f 52//52 48//48 47//47
f 52//52 49//49 48//48
f 52//52 50//50 49//49
f 52//52 51//51 50//50
f 52//52 69//69 51//51
f 52//52 70//70 69//69
f 17//17 62//62 54//54
f 62//62 55//55 54//54
f 62//62 56//56 55//55
f 17//17 72//72 62//62
f 62//62 42//42 59//59
f 62//62 59//59 60//60
f 62//62 60//60 57//57
f 62//62 57//57 58//58
f 62//62 61//61 56//56
f 62//62 58//58 61//61
f 72//72 34//34 63//63
f 72//72 63//63 64//64
f 72//72 64//64 65//65
f 72//72 65//65 66//66
f 52//52 62//62 72//72
f 72//72 67//67 70//70
f 72//72 68//68 67//67
f 52//52 72//72 70//70
f 72//72 66//66 71//71
f 72//72 71//71 68//68
f 6//6 2//2 10//10
f 5//5 3//3 11//11
f 3//3 18//18 27//27
f 2//2 4//4 12//12
f 4//4 5//5 13//13
f 8//8 7//7 15//15
f 7//7 6//6 14//14
f 8//8 16//16 35//35
f 2//2 12//12 10//10
f 5//5 11//11 13//13
f 3//3 27//27 11//11
f 4//4 13//13 12//12
f 6//6 10//10 14//14
f 7//7 14//14 15//15
f 8//8 15//15 16//16
f 35//35 16//16 44//44
f 18//18 19//19 28//28
f 19//19 20//20 29//29
f 20//20 21//21 30//30
f 21//21 22//22 31//31
f 22//22 23//23 32//32
f 23//23 24//24 33//33
f 24//24 25//25 34//34
f 25//25 53//53 63//63
f 18//18 28//28 27//27
f 19//19 29//29 28//28
f 20//20 30//30 29//29
f 21//21 31//31 30//30
f 22//22 32//32 31//31
f 23//23 33//33 32//32
f 24//24 34//34 33//33
f 25//25 63//63 34//34
f 35//35 44//44 36//36
f 37//37 36//36 45//45
f 38//38 37//37 46//46
f 39//39 38//38 47//47
f 40//40 39//39 48//48
f 41//41 40//40 49//49
f 42//42 41//41 50//50
f 42//42 51//51 59//59
f 36//36 44//44 45//45
f 37//37 45//45 46//46
f 38//38 46//46 47//47
f 39//39 47//47 48//48
f 40//40 48//48 49//49
f 41//41 49//49 50//50
f 42//42 50//50 51//51
f 59//59 51//51 69//69
f 53//53 54//54 64//64
f 55//55 56//56 66//66
f 54//54 55//55 65//65
f 58//58 57//57 67//67
f 61//61 58//58 68//68
f 59//59 69//69 60//60
f 57//57 60//60 70//70
f 56//56 61//61 71//71
f 53//53 64//64 63//63
f 54//54 65//65 64//64
f 55//55 66//66 65//65
f 56//56 71//71 66//66
f 58//58 67//67 68//68
f 60//60 69//69 70//70
f 57//57 70//70 67//67
f 61//61 68//68 71//71
