solid exported
	facet normal -0.7730102760923852 -0.6343935001681328 0
		outer loop
			vertex -4.9888176918029785 -3.333421468734741 15
			vertex -4.9888176918029785 -3.333421468734741 -15
			vertex -4.242640495300293 -4.242640495300293 -15
		endloop
	endfacet
	facet normal -0.6343935001681328 -0.7730102760923852 0
		outer loop
			vertex -4.242640495300293 -4.242640495300293 15
			vertex -4.242640495300293 -4.242640495300293 -15
			vertex -3.333421468734741 -4.9888176918029785 -15
		endloop
	endfacet
	facet normal 0 0 -1
		outer loop
			vertex -5.543277263641357 2.296100616455078 -15
			vertex -5.543277263641357 -2.296100616455078 -15
			vertex -5.884711742401123 -1.1705418825149536 -15
		endloop
	endfacet
	facet normal 0 0 -1
		outer loop
			vertex -4.9888176918029785 3.333421468734741 -15
			vertex -4.9888176918029785 -3.333421468734741 -15
			vertex -5.543277263641357 -2.296100616455078 -15
		endloop
	endfacet
	facet normal 0 0 -1
		outer loop
			vertex -4.242640495300293 4.242640495300293 -15
			vertex -4.242640495300293 -4.242640495300293 -15
			vertex -4.9888176918029785 -3.333421468734741 -15
		endloop
	endfacet
	facet normal 0 0 -1
		outer loop
			vertex -3.333421468734741 4.9888176918029785 -15
			vertex -3.333421468734741 -4.9888176918029785 -15
			vertex -4.242640495300293 -4.242640495300293 -15
		endloop
	endfacet
	facet normal -0.8819212556035695 -0.47139675318634044 0
		outer loop
			vertex -5.543277263641357 -2.296100616455078 15
			vertex -5.543277263641357 -2.296100616455078 -15
			vertex -4.9888176918029785 -3.333421468734741 -15
		endloop
	endfacet
	facet normal -0.9569403429085449 -0.29028465359725186 0
		outer loop
			vertex -5.884711742401123 -1.1705418825149536 15
			vertex -5.884711742401123 -1.1705418825149536 -15
			vertex -5.543277263641357 -2.296100616455078 -15
		endloop
	endfacet
	facet normal -0.9951847312416164 -0.09801709393545506 0
		outer loop
			vertex -6 0 15
			vertex -6 0 -15
			vertex -5.884711742401123 -1.1705418825149536 -15
		endloop
	endfacet
	facet normal -0.47139675318634044 -0.8819212556035695 0
		outer loop
			vertex -3.333421468734741 -4.9888176918029785 15
			vertex -3.333421468734741 -4.9888176918029785 -15
			vertex -2.296100616455078 -5.543277263641357 -15
		endloop
	endfacet
	facet normal -0.29028465359725186 -0.9569403429085449 0
		outer loop
			vertex -2.296100616455078 -5.543277263641357 15
			vertex -2.296100616455078 -5.543277263641357 -15
			vertex -1.1705418825149536 -5.884711742401123 -15
		endloop
	endfacet
	facet normal -0.09801709393545506 -0.9951847312416164 0
		outer loop
			vertex -1.1705418825149536 -5.884711742401123 15
			vertex -1.1705418825149536 -5.884711742401123 -15
			vertex 0 -6 -15
		endloop
	endfacet
	facet normal 0 0 -1
		outer loop
			vertex -2.296100616455078 5.543277263641357 -15
			vertex -2.296100616455078 -5.543277263641357 -15
			vertex -3.333421468734741 -4.9888176918029785 -15
		endloop
	endfacet
	facet normal 0 0 -1
		outer loop
			vertex -1.1705418825149536 5.884711742401123 -15
			vertex -1.1705418825149536 -5.884711742401123 -15
			vertex -2.296100616455078 -5.543277263641357 -15
		endloop
	endfacet
	facet normal 0 0 -1
		outer loop
			vertex 0 6 -15
			vertex 0 -6 -15
			vertex -1.1705418825149536 -5.884711742401123 -15
		endloop
	endfacet
	facet normal -0.6343935001681328 -0.7730102760923852 0
		outer loop
			vertex -3.333421468734741 -4.9888176918029785 15
			vertex -4.242640495300293 -4.242640495300293 15
			vertex -3.333421468734741 -4.9888176918029785 -15
		endloop
	endfacet
	facet normal -0.7730102760923852 -0.6343935001681328 0
		outer loop
			vertex -4.242640495300293 -4.242640495300293 15
			vertex -4.9888176918029785 -3.333421468734741 15
			vertex -4.242640495300293 -4.242640495300293 -15
		endloop
	endfacet
	facet normal -0.9569403429085449 -0.29028465359725186 0
		outer loop
			vertex -5.543277263641357 -2.296100616455078 15
			vertex -5.884711742401123 -1.1705418825149536 15
			vertex -5.543277263641357 -2.296100616455078 -15
		endloop
	endfacet
	facet normal -0.8819212556035695 -0.47139675318634044 0
		outer loop
			vertex -4.9888176918029785 -3.333421468734741 15
			vertex -5.543277263641357 -2.296100616455078 15
			vertex -4.9888176918029785 -3.333421468734741 -15
		endloop
	endfacet
	facet normal -0.9951847312416164 -0.09801709393545506 0
		outer loop
			vertex -5.884711742401123 -1.1705418825149536 15
			vertex -6 0 15
			vertex -5.884711742401123 -1.1705418825149536 -15
		endloop
	endfacet
	facet normal 0 0 1
		outer loop
			vertex -5.543277263641357 2.296100616455078 15
			vertex -5.884711742401123 -1.1705418825149536 15
			vertex -5.543277263641357 -2.296100616455078 15
		endloop
	endfacet
	facet normal 0 0 1
		outer loop
			vertex -4.9888176918029785 3.333421468734741 15
			vertex -5.543277263641357 -2.296100616455078 15
			vertex -4.9888176918029785 -3.333421468734741 15
		endloop
	endfacet
	facet normal 0 0 1
		outer loop
			vertex -4.242640495300293 4.242640495300293 15
			vertex -4.9888176918029785 -3.333421468734741 15
			vertex -4.242640495300293 -4.242640495300293 15
		endloop
	endfacet
	facet normal 0 0 1
		outer loop
			vertex -3.333421468734741 4.9888176918029785 15
			vertex -4.242640495300293 -4.242640495300293 15
			vertex -3.333421468734741 -4.9888176918029785 15
		endloop
	endfacet
	facet normal -0.47139675318634044 -0.8819212556035695 0
		outer loop
			vertex -2.296100616455078 -5.543277263641357 15
			vertex -3.333421468734741 -4.9888176918029785 15
			vertex -2.296100616455078 -5.543277263641357 -15
		endloop
	endfacet
	facet normal -0.29028465359725186 -0.9569403429085449 0
		outer loop
			vertex -1.1705418825149536 -5.884711742401123 15
			vertex -2.296100616455078 -5.543277263641357 15
			vertex -1.1705418825149536 -5.884711742401123 -15
		endloop
	endfacet
	facet normal -0.09801709393545506 -0.9951847312416164 0
		outer loop
			vertex 0 -6 15
			vertex -1.1705418825149536 -5.884711742401123 15
			vertex 0 -6 -15
		endloop
	endfacet
	facet normal 0 0 1
		outer loop
			vertex -2.296100616455078 5.543277263641357 15
			vertex -3.333421468734741 -4.9888176918029785 15
			vertex -2.296100616455078 -5.543277263641357 15
		endloop
	endfacet
	facet normal 0 0 1
		outer loop
			vertex -1.1705418825149536 5.884711742401123 15
			vertex -2.296100616455078 -5.543277263641357 15
			vertex -1.1705418825149536 -5.884711742401123 15
		endloop
	endfacet
	facet normal 0 0 1
		outer loop
			vertex 0 6 15
			vertex -1.1705418825149536 -5.884711742401123 15
			vertex 0 -6 15
		endloop
	endfacet
	facet normal 0 0 -1
		outer loop
			vertex -5.884711742401123 1.1705418825149536 -15
			vertex -5.884711742401123 -1.1705418825149536 -15
			vertex -6 0 -15
		endloop
	endfacet
	facet normal 0 0 -1
		outer loop
			vertex -5.543277263641357 2.296100616455078 -15
			vertex -5.884711742401123 -1.1705418825149536 -15
			vertex -5.884711742401123 1.1705418825149536 -15
		endloop
	endfacet
	facet normal 0 0 -1
		outer loop
			vertex -4.9888176918029785 3.333421468734741 -15
			vertex -5.543277263641357 -2.296100616455078 -15
			vertex -5.543277263641357 2.296100616455078 -15
		endloop
	endfacet
	facet normal 0 0 -1
		outer loop
			vertex -4.242640495300293 4.242640495300293 -15
			vertex -4.9888176918029785 -3.333421468734741 -15
			vertex -4.9888176918029785 3.333421468734741 -15
		endloop
	endfacet
	facet normal 0 0 -1
		outer loop
			vertex -3.333421468734741 4.9888176918029785 -15
			vertex -4.242640495300293 -4.242640495300293 -15
			vertex -4.242640495300293 4.242640495300293 -15
		endloop
	endfacet
	facet normal -0.9951847312416164 0.09801709393545506 0
		outer loop
			vertex -5.884711742401123 1.1705418825149536 15
			vertex -5.884711742401123 1.1705418825149536 -15
			vertex -6 0 -15
		endloop
	endfacet
	facet normal -0.9569403429085449 0.29028465359725186 0
		outer loop
			vertex -5.543277263641357 2.296100616455078 15
			vertex -5.543277263641357 2.296100616455078 -15
			vertex -5.884711742401123 1.1705418825149536 -15
		endloop
	endfacet
	facet normal -0.8819212556035695 0.47139675318634044 0
		outer loop
			vertex -4.9888176918029785 3.333421468734741 15
			vertex -4.9888176918029785 3.333421468734741 -15
			vertex -5.543277263641357 2.296100616455078 -15
		endloop
	endfacet
	facet normal -0.7730102760923852 0.6343935001681328 0
		outer loop
			vertex -4.242640495300293 4.242640495300293 15
			vertex -4.242640495300293 4.242640495300293 -15
			vertex -4.9888176918029785 3.333421468734741 -15
		endloop
	endfacet
	facet normal -0.6343935001681328 0.7730102760923852 0
		outer loop
			vertex -3.333421468734741 4.9888176918029785 15
			vertex -3.333421468734741 4.9888176918029785 -15
			vertex -4.242640495300293 4.242640495300293 -15
		endloop
	endfacet
	facet normal 0 0 -1
		outer loop
			vertex -2.296100616455078 5.543277263641357 -15
			vertex -3.333421468734741 -4.9888176918029785 -15
			vertex -3.333421468734741 4.9888176918029785 -15
		endloop
	endfacet
	facet normal 0 0 -1
		outer loop
			vertex -1.1705418825149536 5.884711742401123 -15
			vertex -2.296100616455078 -5.543277263641357 -15
			vertex -2.296100616455078 5.543277263641357 -15
		endloop
	endfacet
	facet normal 0 0 -1
		outer loop
			vertex 0 6 -15
			vertex -1.1705418825149536 -5.884711742401123 -15
			vertex -1.1705418825149536 5.884711742401123 -15
		endloop
	endfacet
	facet normal -0.47139675318634044 0.8819212556035695 0
		outer loop
			vertex -2.296100616455078 5.543277263641357 15
			vertex -2.296100616455078 5.543277263641357 -15
			vertex -3.333421468734741 4.9888176918029785 -15
		endloop
	endfacet
	facet normal -0.29028465359725186 0.9569403429085449 0
		outer loop
			vertex -1.1705418825149536 5.884711742401123 15
			vertex -1.1705418825149536 5.884711742401123 -15
			vertex -2.296100616455078 5.543277263641357 -15
		endloop
	endfacet
	facet normal -0.09801709393545506 0.9951847312416164 0
		outer loop
			vertex 0 6 15
			vertex 0 6 -15
			vertex -1.1705418825149536 5.884711742401123 -15
		endloop
	endfacet
	facet normal -0.9951847312416164 0.09801709393545506 0
		outer loop
			vertex -6 0 15
			vertex -5.884711742401123 1.1705418825149536 15
			vertex -6 0 -15
		endloop
	endfacet
	facet normal -0.9569403429085449 0.29028465359725186 0
		outer loop
			vertex -5.884711742401123 1.1705418825149536 15
			vertex -5.543277263641357 2.296100616455078 15
			vertex -5.884711742401123 1.1705418825149536 -15
		endloop
	endfacet
	facet normal -0.8819212556035695 0.47139675318634044 0
		outer loop
			vertex -5.543277263641357 2.296100616455078 15
			vertex -4.9888176918029785 3.333421468734741 15
			vertex -5.543277263641357 2.296100616455078 -15
		endloop
	endfacet
	facet normal 0 0 1
		outer loop
			vertex -5.884711742401123 1.1705418825149536 15
			vertex -6 0 15
			vertex -5.884711742401123 -1.1705418825149536 15
		endloop
	endfacet
	facet normal 0 0 1
		outer loop
			vertex -5.543277263641357 2.296100616455078 15
			vertex -5.884711742401123 1.1705418825149536 15
			vertex -5.884711742401123 -1.1705418825149536 15
		endloop
	endfacet
	facet normal 0 0 1
		outer loop
			vertex -4.9888176918029785 3.333421468734741 15
			vertex -5.543277263641357 2.296100616455078 15
			vertex -5.543277263641357 -2.296100616455078 15
		endloop
	endfacet
	facet normal 0 0 1
		outer loop
			vertex -4.242640495300293 4.242640495300293 15
			vertex -4.9888176918029785 3.333421468734741 15
			vertex -4.9888176918029785 -3.333421468734741 15
		endloop
	endfacet
	facet normal 0 0 1
		outer loop
			vertex -3.333421468734741 4.9888176918029785 15
			vertex -4.242640495300293 4.242640495300293 15
			vertex -4.242640495300293 -4.242640495300293 15
		endloop
	endfacet
	facet normal -0.7730102760923852 0.6343935001681328 0
		outer loop
			vertex -4.9888176918029785 3.333421468734741 15
			vertex -4.242640495300293 4.242640495300293 15
			vertex -4.9888176918029785 3.333421468734741 -15
		endloop
	endfacet
	facet normal -0.6343935001681328 0.7730102760923852 0
		outer loop
			vertex -4.242640495300293 4.242640495300293 15
			vertex -3.333421468734741 4.9888176918029785 15
			vertex -4.242640495300293 4.242640495300293 -15
		endloop
	endfacet
	facet normal 0 0 1
		outer loop
			vertex -2.296100616455078 5.543277263641357 15
			vertex -3.333421468734741 4.9888176918029785 15
			vertex -3.333421468734741 -4.9888176918029785 15
		endloop
	endfacet
	facet normal 0 0 1
		outer loop
			vertex -1.1705418825149536 5.884711742401123 15
			vertex -2.296100616455078 5.543277263641357 15
			vertex -2.296100616455078 -5.543277263641357 15
		endloop
	endfacet
	facet normal 0 0 1
		outer loop
			vertex 0 6 15
			vertex -1.1705418825149536 5.884711742401123 15
			vertex -1.1705418825149536 -5.884711742401123 15
		endloop
	endfacet
	facet normal -0.47139675318634044 0.8819212556035695 0
		outer loop
			vertex -3.333421468734741 4.9888176918029785 15
			vertex -2.296100616455078 5.543277263641357 15
			vertex -3.333421468734741 4.9888176918029785 -15
		endloop
	endfacet
	facet normal -0.29028465359725186 0.9569403429085449 0
		outer loop
			vertex -2.296100616455078 5.543277263641357 15
			vertex -1.1705418825149536 5.884711742401123 15
			vertex -2.296100616455078 5.543277263641357 -15
		endloop
	endfacet
	facet normal -0.09801709393545506 0.9951847312416164 0
		outer loop
			vertex -1.1705418825149536 5.884711742401123 15
			vertex 0 6 15
			vertex -1.1705418825149536 5.884711742401123 -15
		endloop
	endfacet
	facet normal 0.09801709393545506 -0.9951847312416164 0
		outer loop
			vertex 0 -6 15
			vertex 0 -6 -15
			vertex 1.1705418825149536 -5.884711742401123 -15
		endloop
	endfacet
	facet normal 0.29028465359725186 -0.9569403429085449 0
		outer loop
			vertex 1.1705418825149536 -5.884711742401123 15
			vertex 1.1705418825149536 -5.884711742401123 -15
			vertex 2.296100616455078 -5.543277263641357 -15
		endloop
	endfacet
	facet normal 0.47139675318634044 -0.8819212556035695 0
		outer loop
			vertex 2.296100616455078 -5.543277263641357 15
			vertex 2.296100616455078 -5.543277263641357 -15
			vertex 3.333421468734741 -4.9888176918029785 -15
		endloop
	endfacet
	facet normal 0 0 -1
		outer loop
			vertex 1.1705418825149536 5.884711742401123 -15
			vertex 1.1705418825149536 -5.884711742401123 -15
			vertex 0 -6 -15
		endloop
	endfacet
	facet normal 0 0 -1
		outer loop
			vertex 2.296100616455078 5.543277263641357 -15
			vertex 2.296100616455078 -5.543277263641357 -15
			vertex 1.1705418825149536 -5.884711742401123 -15
		endloop
	endfacet
	facet normal 0 0 -1
		outer loop
			vertex 3.333421468734741 4.9888176918029785 -15
			vertex 3.333421468734741 -4.9888176918029785 -15
			vertex 2.296100616455078 -5.543277263641357 -15
		endloop
	endfacet
	facet normal 0.6343935001681328 -0.7730102760923852 0
		outer loop
			vertex 3.333421468734741 -4.9888176918029785 15
			vertex 3.333421468734741 -4.9888176918029785 -15
			vertex 4.242640495300293 -4.242640495300293 -15
		endloop
	endfacet
	facet normal 0.7730102760923852 -0.6343935001681328 0
		outer loop
			vertex 4.242640495300293 -4.242640495300293 15
			vertex 4.242640495300293 -4.242640495300293 -15
			vertex 4.9888176918029785 -3.333421468734741 -15
		endloop
	endfacet
	facet normal 0 0 -1
		outer loop
			vertex 4.242640495300293 4.242640495300293 -15
			vertex 4.242640495300293 -4.242640495300293 -15
			vertex 3.333421468734741 -4.9888176918029785 -15
		endloop
	endfacet
	facet normal 0 0 -1
		outer loop
			vertex 4.9888176918029785 3.333421468734741 -15
			vertex 4.9888176918029785 -3.333421468734741 -15
			vertex 4.242640495300293 -4.242640495300293 -15
		endloop
	endfacet
	facet normal 0 0 -1
		outer loop
			vertex 5.543277263641357 2.296100616455078 -15
			vertex 5.543277263641357 -2.296100616455078 -15
			vertex 4.9888176918029785 -3.333421468734741 -15
		endloop
	endfacet
	facet normal 0 0 -1
		outer loop
			vertex 5.884711742401123 1.1705418825149536 -15
			vertex 5.884711742401123 -1.1705418825149536 -15
			vertex 5.543277263641357 -2.296100616455078 -15
		endloop
	endfacet
	facet normal 0.8819212556035695 -0.47139675318634044 0
		outer loop
			vertex 4.9888176918029785 -3.333421468734741 15
			vertex 4.9888176918029785 -3.333421468734741 -15
			vertex 5.543277263641357 -2.296100616455078 -15
		endloop
	endfacet
	facet normal 0.9569403429085449 -0.29028465359725186 0
		outer loop
			vertex 5.543277263641357 -2.296100616455078 15
			vertex 5.543277263641357 -2.296100616455078 -15
			vertex 5.884711742401123 -1.1705418825149536 -15
		endloop
	endfacet
	facet normal 0.9951847312416164 -0.09801709393545506 0
		outer loop
			vertex 5.884711742401123 -1.1705418825149536 15
			vertex 5.884711742401123 -1.1705418825149536 -15
			vertex 6 0 -15
		endloop
	endfacet
	facet normal 0.09801709393545506 -0.9951847312416164 0
		outer loop
			vertex 1.1705418825149536 -5.884711742401123 15
			vertex 0 -6 15
			vertex 1.1705418825149536 -5.884711742401123 -15
		endloop
	endfacet
	facet normal 0.29028465359725186 -0.9569403429085449 0
		outer loop
			vertex 2.296100616455078 -5.543277263641357 15
			vertex 1.1705418825149536 -5.884711742401123 15
			vertex 2.296100616455078 -5.543277263641357 -15
		endloop
	endfacet
	facet normal 0.47139675318634044 -0.8819212556035695 0
		outer loop
			vertex 3.333421468734741 -4.9888176918029785 15
			vertex 2.296100616455078 -5.543277263641357 15
			vertex 3.333421468734741 -4.9888176918029785 -15
		endloop
	endfacet
	facet normal 0 0 1
		outer loop
			vertex 1.1705418825149536 5.884711742401123 15
			vertex 0 -6 15
			vertex 1.1705418825149536 -5.884711742401123 15
		endloop
	endfacet
	facet normal 0 0 1
		outer loop
			vertex 2.296100616455078 5.543277263641357 15
			vertex 1.1705418825149536 -5.884711742401123 15
			vertex 2.296100616455078 -5.543277263641357 15
		endloop
	endfacet
	facet normal 0 0 1
		outer loop
			vertex 3.333421468734741 4.9888176918029785 15
			vertex 2.296100616455078 -5.543277263641357 15
			vertex 3.333421468734741 -4.9888176918029785 15
		endloop
	endfacet
	facet normal 0.6343935001681328 -0.7730102760923852 0
		outer loop
			vertex 4.242640495300293 -4.242640495300293 15
			vertex 3.333421468734741 -4.9888176918029785 15
			vertex 4.242640495300293 -4.242640495300293 -15
		endloop
	endfacet
	facet normal 0.7730102760923852 -0.6343935001681328 0
		outer loop
			vertex 4.9888176918029785 -3.333421468734741 15
			vertex 4.242640495300293 -4.242640495300293 15
			vertex 4.9888176918029785 -3.333421468734741 -15
		endloop
	endfacet
	facet normal 0.8819212556035695 -0.47139675318634044 0
		outer loop
			vertex 5.543277263641357 -2.296100616455078 15
			vertex 4.9888176918029785 -3.333421468734741 15
			vertex 5.543277263641357 -2.296100616455078 -15
		endloop
	endfacet
	facet normal 0.9569403429085449 -0.29028465359725186 0
		outer loop
			vertex 5.884711742401123 -1.1705418825149536 15
			vertex 5.543277263641357 -2.296100616455078 15
			vertex 5.884711742401123 -1.1705418825149536 -15
		endloop
	endfacet
	facet normal 0.9951847312416164 -0.09801709393545506 0
		outer loop
			vertex 6 0 15
			vertex 5.884711742401123 -1.1705418825149536 15
			vertex 6 0 -15
		endloop
	endfacet
	facet normal 0 0 1
		outer loop
			vertex 4.242640495300293 4.242640495300293 15
			vertex 3.333421468734741 -4.9888176918029785 15
			vertex 4.242640495300293 -4.242640495300293 15
		endloop
	endfacet
	facet normal 0 0 1
		outer loop
			vertex 4.9888176918029785 3.333421468734741 15
			vertex 4.242640495300293 -4.242640495300293 15
			vertex 4.9888176918029785 -3.333421468734741 15
		endloop
	endfacet
	facet normal 0 0 1
		outer loop
			vertex 5.543277263641357 2.296100616455078 15
			vertex 4.9888176918029785 -3.333421468734741 15
			vertex 5.543277263641357 -2.296100616455078 15
		endloop
	endfacet
	facet normal 0 0 1
		outer loop
			vertex 5.884711742401123 1.1705418825149536 15
			vertex 5.543277263641357 -2.296100616455078 15
			vertex 5.884711742401123 -1.1705418825149536 15
		endloop
	endfacet
	facet normal 0 0 -1
		outer loop
			vertex 1.1705418825149536 5.884711742401123 -15
			vertex 0 -6 -15
			vertex 0 6 -15
		endloop
	endfacet
	facet normal 0 0 -1
		outer loop
			vertex 2.296100616455078 5.543277263641357 -15
			vertex 1.1705418825149536 -5.884711742401123 -15
			vertex 1.1705418825149536 5.884711742401123 -15
		endloop
	endfacet
	facet normal 0 0 -1
		outer loop
			vertex 3.333421468734741 4.9888176918029785 -15
			vertex 2.296100616455078 -5.543277263641357 -15
			vertex 2.296100616455078 5.543277263641357 -15
		endloop
	endfacet
	facet normal 0.09801709393545506 0.9951847312416164 0
		outer loop
			vertex 1.1705418825149536 5.884711742401123 15
			vertex 1.1705418825149536 5.884711742401123 -15
			vertex 0 6 -15
		endloop
	endfacet
	facet normal 0.29028465359725186 0.9569403429085449 0
		outer loop
			vertex 2.296100616455078 5.543277263641357 15
			vertex 2.296100616455078 5.543277263641357 -15
			vertex 1.1705418825149536 5.884711742401123 -15
		endloop
	endfacet
	facet normal 0.47139675318634044 0.8819212556035695 0
		outer loop
			vertex 3.333421468734741 4.9888176918029785 15
			vertex 3.333421468734741 4.9888176918029785 -15
			vertex 2.296100616455078 5.543277263641357 -15
		endloop
	endfacet
	facet normal 0 0 -1
		outer loop
			vertex 4.242640495300293 4.242640495300293 -15
			vertex 3.333421468734741 -4.9888176918029785 -15
			vertex 3.333421468734741 4.9888176918029785 -15
		endloop
	endfacet
	facet normal 0 0 -1
		outer loop
			vertex 4.9888176918029785 3.333421468734741 -15
			vertex 4.242640495300293 -4.242640495300293 -15
			vertex 4.242640495300293 4.242640495300293 -15
		endloop
	endfacet
	facet normal 0 0 -1
		outer loop
			vertex 5.543277263641357 2.296100616455078 -15
			vertex 4.9888176918029785 -3.333421468734741 -15
			vertex 4.9888176918029785 3.333421468734741 -15
		endloop
	endfacet
	facet normal 0 0 -1
		outer loop
			vertex 6 0 -15
			vertex 5.884711742401123 -1.1705418825149536 -15
			vertex 5.884711742401123 1.1705418825149536 -15
		endloop
	endfacet
	facet normal 0 0 -1
		outer loop
			vertex 5.884711742401123 1.1705418825149536 -15
			vertex 5.543277263641357 -2.296100616455078 -15
			vertex 5.543277263641357 2.296100616455078 -15
		endloop
	endfacet
	facet normal 0.9951847312416164 0.09801709393545506 0
		outer loop
			vertex 6 0 15
			vertex 6 0 -15
			vertex 5.884711742401123 1.1705418825149536 -15
		endloop
	endfacet
	facet normal 0.9569403429085449 0.29028465359725186 0
		outer loop
			vertex 5.884711742401123 1.1705418825149536 15
			vertex 5.884711742401123 1.1705418825149536 -15
			vertex 5.543277263641357 2.296100616455078 -15
		endloop
	endfacet
	facet normal 0.8819212556035695 0.47139675318634044 0
		outer loop
			vertex 5.543277263641357 2.296100616455078 15
			vertex 5.543277263641357 2.296100616455078 -15
			vertex 4.9888176918029785 3.333421468734741 -15
		endloop
	endfacet
	facet normal 0.6343935001681328 0.7730102760923852 0
		outer loop
			vertex 4.242640495300293 4.242640495300293 15
			vertex 4.242640495300293 4.242640495300293 -15
			vertex 3.333421468734741 4.9888176918029785 -15
		endloop
	endfacet
	facet normal 0.7730102760923852 0.6343935001681328 0
		outer loop
			vertex 4.9888176918029785 3.333421468734741 15
			vertex 4.9888176918029785 3.333421468734741 -15
			vertex 4.242640495300293 4.242640495300293 -15
		endloop
	endfacet
	facet normal 0 0 1
		outer loop
			vertex 1.1705418825149536 5.884711742401123 15
			vertex 0 6 15
			vertex 0 -6 15
		endloop
	endfacet
	facet normal 0 0 1
		outer loop
			vertex 2.296100616455078 5.543277263641357 15
			vertex 1.1705418825149536 5.884711742401123 15
			vertex 1.1705418825149536 -5.884711742401123 15
		endloop
	endfacet
	facet normal 0 0 1
		outer loop
			vertex 3.333421468734741 4.9888176918029785 15
			vertex 2.296100616455078 5.543277263641357 15
			vertex 2.296100616455078 -5.543277263641357 15
		endloop
	endfacet
	facet normal 0.09801709393545506 0.9951847312416164 0
		outer loop
			vertex 0 6 15
			vertex 1.1705418825149536 5.884711742401123 15
			vertex 0 6 -15
		endloop
	endfacet
	facet normal 0.29028465359725186 0.9569403429085449 0
		outer loop
			vertex 1.1705418825149536 5.884711742401123 15
			vertex 2.296100616455078 5.543277263641357 15
			vertex 1.1705418825149536 5.884711742401123 -15
		endloop
	endfacet
	facet normal 0.47139675318634044 0.8819212556035695 0
		outer loop
			vertex 2.296100616455078 5.543277263641357 15
			vertex 3.333421468734741 4.9888176918029785 15
			vertex 2.296100616455078 5.543277263641357 -15
		endloop
	endfacet
	facet normal 0.9951847312416164 0.09801709393545506 0
		outer loop
			vertex 5.884711742401123 1.1705418825149536 15
			vertex 6 0 15
			vertex 5.884711742401123 1.1705418825149536 -15
		endloop
	endfacet
	facet normal 0.8819212556035695 0.47139675318634044 0
		outer loop
			vertex 4.9888176918029785 3.333421468734741 15
			vertex 5.543277263641357 2.296100616455078 15
			vertex 4.9888176918029785 3.333421468734741 -15
		endloop
	endfacet
	facet normal 0.9569403429085449 0.29028465359725186 0
		outer loop
			vertex 5.543277263641357 2.296100616455078 15
			vertex 5.884711742401123 1.1705418825149536 15
			vertex 5.543277263641357 2.296100616455078 -15
		endloop
	endfacet
	facet normal 0 0 1
		outer loop
			vertex 4.242640495300293 4.242640495300293 15
			vertex 3.333421468734741 4.9888176918029785 15
			vertex 3.333421468734741 -4.9888176918029785 15
		endloop
	endfacet
	facet normal 0 0 1
		outer loop
			vertex 4.9888176918029785 3.333421468734741 15
			vertex 4.242640495300293 4.242640495300293 15
			vertex 4.242640495300293 -4.242640495300293 15
		endloop
	endfacet
	facet normal 0 0 1
		outer loop
			vertex 5.543277263641357 2.296100616455078 15
			vertex 4.9888176918029785 3.333421468734741 15
			vertex 4.9888176918029785 -3.333421468734741 15
		endloop
	endfacet
	facet normal 0 0 1
		outer loop
			vertex 6 0 15
			vertex 5.884711742401123 1.1705418825149536 15
			vertex 5.884711742401123 -1.1705418825149536 15
		endloop
	endfacet
	facet normal 0 0 1
		outer loop
			vertex 5.884711742401123 1.1705418825149536 15
			vertex 5.543277263641357 2.296100616455078 15
			vertex 5.543277263641357 -2.296100616455078 15
		endloop
	endfacet
	facet normal 0.7730102760923852 0.6343935001681328 0
		outer loop
			vertex 4.242640495300293 4.242640495300293 15
			vertex 4.9888176918029785 3.333421468734741 15
			vertex 4.242640495300293 4.242640495300293 -15
		endloop
	endfacet
	facet normal 0.6343935001681328 0.7730102760923852 0
		outer loop
			vertex 3.333421468734741 4.9888176918029785 15
			vertex 4.242640495300293 4.242640495300293 15
			vertex 3.333421468734741 4.9888176918029785 -15
		endloop
	endfacet
endsolid exported
