ISO-10303-21;
HEADER;
FILE_DESCRIPTION(('Open CASCADE Model'),'2;1');
FILE_NAME('Open CASCADE Shape Model','2026-08-27T16:38:02',('Author'),(
    'Open CASCADE'),'Open CASCADE STEP processor 8.0','Open CASCADE 8.0'
  ,'Unknown');
FILE_SCHEMA((
'AP242_MANAGED_MODEL_BASED_3D_ENGINEERING_MIM_LF {1 0 10303 442 1 1 4 }'
    ));
ENDSEC;
DATA;
#1 = APPLICATION_PROTOCOL_DEFINITION('international standard',
  'ap242_managed_model_based_3d_engineering',2013,#2);
#2 = APPLICATION_CONTEXT('Managed model based 3d engineering');
#3 = SHAPE_DEFINITION_REPRESENTATION(#4,#10);
#4 = PRODUCT_DEFINITION_SHAPE('','',#5);
#5 = PRODUCT_DEFINITION('design','',#6,#9);
#6 = PRODUCT_DEFINITION_FORMATION('','',#7);
#7 = PRODUCT('Open CASCADE STEP translator 8.0 45',
  'Open CASCADE STEP translator 8.0 45','',(#8));
#8 = PRODUCT_CONTEXT('',#2,'mechanical');
#9 = PRODUCT_DEFINITION_CONTEXT('part definition',#2,'design');
#10 = ADVANCED_BREP_SHAPE_REPRESENTATION('',(#11,#15),#515);
#11 = AXIS2_PLACEMENT_3D('',#12,#13,#14);
#12 = CARTESIAN_POINT('',(0.,0.,0.));
#13 = DIRECTION('',(0.,0.,1.));
#14 = DIRECTION('',(1.,0.,-0.));
#15 = MANIFOLD_SOLID_BREP('',#16);
#16 = CLOSED_SHELL('',(#17,#230,#339,#443,#447,#503,#507,#511));
#17 = ADVANCED_FACE('',(#18),#32,.T.);
#18 = FACE_BOUND('',#19,.T.);
#19 = EDGE_LOOP('',(#20,#50,#77,#78,#119,#155,#196));
#20 = ORIENTED_EDGE('',*,*,#21,.T.);
#21 = EDGE_CURVE('',#22,#24,#26,.T.);
#22 = VERTEX_POINT('',#23);
#23 = CARTESIAN_POINT('',(5.,-6.123233995737E-16,20.));
#24 = VERTEX_POINT('',#25);
#25 = CARTESIAN_POINT('',(5.,-1.224646799147E-15,40.));
#26 = SEAM_CURVE('',#27,(#31,#43),.PCURVE_S1.);
#27 = LINE('',#28,#29);
#28 = CARTESIAN_POINT('',(5.,-1.224646799147E-15,0.));
#29 = VECTOR('',#30,1.);
#30 = DIRECTION('',(0.,0.,1.));
#31 = PCURVE('',#32,#37);
#32 = CYLINDRICAL_SURFACE('',#33,5.);
#33 = AXIS2_PLACEMENT_3D('',#34,#35,#36);
#34 = CARTESIAN_POINT('',(0.,0.,0.));
#35 = DIRECTION('',(0.,0.,1.));
#36 = DIRECTION('',(1.,0.,-0.));
#37 = DEFINITIONAL_REPRESENTATION('',(#38),#42);
#38 = LINE('',#39,#40);
#39 = CARTESIAN_POINT('',(6.28318530718,-0.));
#40 = VECTOR('',#41,1.);
#41 = DIRECTION('',(0.,1.));
#42 = ( GEOMETRIC_REPRESENTATION_CONTEXT(2) 
PARAMETRIC_REPRESENTATION_CONTEXT() REPRESENTATION_CONTEXT('2D SPACE',''
  ) );
#43 = PCURVE('',#32,#44);
#44 = DEFINITIONAL_REPRESENTATION('',(#45),#49);
#45 = LINE('',#46,#47);
#46 = CARTESIAN_POINT('',(0.,-0.));
#47 = VECTOR('',#48,1.);
#48 = DIRECTION('',(0.,1.));
#49 = ( GEOMETRIC_REPRESENTATION_CONTEXT(2) 
PARAMETRIC_REPRESENTATION_CONTEXT() REPRESENTATION_CONTEXT('2D SPACE',''
  ) );
#50 = ORIENTED_EDGE('',*,*,#51,.F.);
#51 = EDGE_CURVE('',#24,#24,#52,.T.);
#52 = SURFACE_CURVE('',#53,(#58,#65),.PCURVE_S1.);
#53 = CIRCLE('',#54,5.);
#54 = AXIS2_PLACEMENT_3D('',#55,#56,#57);
#55 = CARTESIAN_POINT('',(0.,0.,40.));
#56 = DIRECTION('',(0.,0.,1.));
#57 = DIRECTION('',(1.,0.,-0.));
#58 = PCURVE('',#32,#59);
#59 = DEFINITIONAL_REPRESENTATION('',(#60),#64);
#60 = LINE('',#61,#62);
#61 = CARTESIAN_POINT('',(0.,40.));
#62 = VECTOR('',#63,1.);
#63 = DIRECTION('',(1.,0.));
#64 = ( GEOMETRIC_REPRESENTATION_CONTEXT(2) 
PARAMETRIC_REPRESENTATION_CONTEXT() REPRESENTATION_CONTEXT('2D SPACE',''
  ) );
#65 = PCURVE('',#66,#71);
#66 = PLANE('',#67);
#67 = AXIS2_PLACEMENT_3D('',#68,#69,#70);
#68 = CARTESIAN_POINT('',(0.,0.,40.));
#69 = DIRECTION('',(0.,0.,1.));
#70 = DIRECTION('',(1.,0.,-0.));
#71 = DEFINITIONAL_REPRESENTATION('',(#72),#76);
#72 = CIRCLE('',#73,5.);
#73 = AXIS2_PLACEMENT_2D('',#74,#75);
#74 = CARTESIAN_POINT('',(0.,0.));
#75 = DIRECTION('',(1.,0.));
#76 = ( GEOMETRIC_REPRESENTATION_CONTEXT(2) 
PARAMETRIC_REPRESENTATION_CONTEXT() REPRESENTATION_CONTEXT('2D SPACE',''
  ) );
#77 = ORIENTED_EDGE('',*,*,#21,.F.);
#78 = ORIENTED_EDGE('',*,*,#79,.T.);
#79 = EDGE_CURVE('',#22,#80,#82,.T.);
#80 = VERTEX_POINT('',#81);
#81 = CARTESIAN_POINT('',(6.123233995737E-16,5.,25.));
#82 = SURFACE_CURVE('',#83,(#88,#101),.PCURVE_S1.);
#83 = ELLIPSE('',#84,7.071067811865,5.);
#84 = AXIS2_PLACEMENT_3D('',#85,#86,#87);
#85 = CARTESIAN_POINT('',(0.,0.,20.));
#86 = DIRECTION('',(0.,-0.707106781187,0.707106781187));
#87 = DIRECTION('',(0.,0.707106781187,0.707106781187));
#88 = PCURVE('',#32,#89);
#89 = DEFINITIONAL_REPRESENTATION('',(#90),#100);
#90 = B_SPLINE_CURVE_WITH_KNOTS('',8,(#91,#92,#93,#94,#95,#96,#97,#98,
    #99),.UNSPECIFIED.,.F.,.F.,(9,9),(4.712388980385,6.28318530718),
  .PIECEWISE_BEZIER_KNOTS.);
#91 = CARTESIAN_POINT('',(0.,20.));
#92 = CARTESIAN_POINT('',(0.196349540849,20.981747704247));
#93 = CARTESIAN_POINT('',(0.392699081698,21.963495641579));
#94 = CARTESIAN_POINT('',(0.589048622546,22.887566306046));
#95 = CARTESIAN_POINT('',(0.785398163397,23.696293752859));
#96 = CARTESIAN_POINT('',(0.981747704247,24.339090231675));
#97 = CARTESIAN_POINT('',(1.178097245096,24.779696120073));
#98 = CARTESIAN_POINT('',(1.374446785946,25.));
#99 = CARTESIAN_POINT('',(1.570796326795,25.));
#100 = ( GEOMETRIC_REPRESENTATION_CONTEXT(2) 
PARAMETRIC_REPRESENTATION_CONTEXT() REPRESENTATION_CONTEXT('2D SPACE',''
  ) );
#101 = PCURVE('',#102,#107);
#102 = CYLINDRICAL_SURFACE('',#103,5.);
#103 = AXIS2_PLACEMENT_3D('',#104,#105,#106);
#104 = CARTESIAN_POINT('',(0.,20.,20.));
#105 = DIRECTION('',(0.,-1.,1.110223024625E-16));
#106 = DIRECTION('',(1.,0.,0.));
#107 = DEFINITIONAL_REPRESENTATION('',(#108),#118);
#108 = B_SPLINE_CURVE_WITH_KNOTS('',8,(#109,#110,#111,#112,#113,#114,
    #115,#116,#117),.UNSPECIFIED.,.F.,.F.,(9,9),(4.712388980385,
    6.28318530718),.PIECEWISE_BEZIER_KNOTS.);
#109 = CARTESIAN_POINT('',(-8.881784197001E-16,20.));
#110 = CARTESIAN_POINT('',(0.196349540849,19.018252295753));
#111 = CARTESIAN_POINT('',(0.392699081698,18.036504358399));
#112 = CARTESIAN_POINT('',(0.589048622547,17.112433694027));
#113 = CARTESIAN_POINT('',(0.785398163395,16.303706246981));
#114 = CARTESIAN_POINT('',(0.981747704246,15.66090976839));
#115 = CARTESIAN_POINT('',(1.178097245096,15.220303879913));
#116 = CARTESIAN_POINT('',(1.374446785946,15.));
#117 = CARTESIAN_POINT('',(1.570796326795,15.));
#118 = ( GEOMETRIC_REPRESENTATION_CONTEXT(2) 
PARAMETRIC_REPRESENTATION_CONTEXT() REPRESENTATION_CONTEXT('2D SPACE',''
  ) );
#119 = ORIENTED_EDGE('',*,*,#120,.T.);
#120 = EDGE_CURVE('',#80,#121,#123,.T.);
#121 = VERTEX_POINT('',#122);
#122 = CARTESIAN_POINT('',(-5.,6.123233995737E-16,20.));
#123 = SURFACE_CURVE('',#124,(#129,#142),.PCURVE_S1.);
#124 = ELLIPSE('',#125,7.071067811865,5.);
#125 = AXIS2_PLACEMENT_3D('',#126,#127,#128);
#126 = CARTESIAN_POINT('',(0.,0.,20.));
#127 = DIRECTION('',(0.,-0.707106781187,0.707106781187));
#128 = DIRECTION('',(0.,0.707106781187,0.707106781187));
#129 = PCURVE('',#32,#130);
#130 = DEFINITIONAL_REPRESENTATION('',(#131),#141);
#131 = B_SPLINE_CURVE_WITH_KNOTS('',8,(#132,#133,#134,#135,#136,#137,
    #138,#139,#140),.UNSPECIFIED.,.F.,.F.,(9,9),(0.,1.570796326795),
  .PIECEWISE_BEZIER_KNOTS.);
#132 = CARTESIAN_POINT('',(1.570796326795,25.));
#133 = CARTESIAN_POINT('',(1.767145867644,25.));
#134 = CARTESIAN_POINT('',(1.963495408491,24.779696120062));
#135 = CARTESIAN_POINT('',(2.159844949342,24.339090231661));
#136 = CARTESIAN_POINT('',(2.356194490187,23.696293752742));
#137 = CARTESIAN_POINT('',(2.552544031039,22.887566306003));
#138 = CARTESIAN_POINT('',(2.748893571889,21.963495641579));
#139 = CARTESIAN_POINT('',(2.94524311274,20.981747704247));
#140 = CARTESIAN_POINT('',(3.14159265359,20.));
#141 = ( GEOMETRIC_REPRESENTATION_CONTEXT(2) 
PARAMETRIC_REPRESENTATION_CONTEXT() REPRESENTATION_CONTEXT('2D SPACE',''
  ) );
#142 = PCURVE('',#102,#143);
#143 = DEFINITIONAL_REPRESENTATION('',(#144),#154);
#144 = B_SPLINE_CURVE_WITH_KNOTS('',8,(#145,#146,#147,#148,#149,#150,
    #151,#152,#153),.UNSPECIFIED.,.F.,.F.,(9,9),(0.,1.570796326795),
  .PIECEWISE_BEZIER_KNOTS.);
#145 = CARTESIAN_POINT('',(1.570796326795,15.));
#146 = CARTESIAN_POINT('',(1.767145867644,15.));
#147 = CARTESIAN_POINT('',(1.963495408492,15.220303879956));
#148 = CARTESIAN_POINT('',(2.159844949339,15.660909768252));
#149 = CARTESIAN_POINT('',(2.356194490192,16.303706247243));
#150 = CARTESIAN_POINT('',(2.552544031038,17.112433693874));
#151 = CARTESIAN_POINT('',(2.74889357189,18.036504358424));
#152 = CARTESIAN_POINT('',(2.94524311274,19.018252295753));
#153 = CARTESIAN_POINT('',(3.14159265359,20.));
#154 = ( GEOMETRIC_REPRESENTATION_CONTEXT(2) 
PARAMETRIC_REPRESENTATION_CONTEXT() REPRESENTATION_CONTEXT('2D SPACE',''
  ) );
#155 = ORIENTED_EDGE('',*,*,#156,.T.);
#156 = EDGE_CURVE('',#121,#157,#159,.T.);
#157 = VERTEX_POINT('',#158);
#158 = CARTESIAN_POINT('',(-6.123233995737E-16,-5.,25.));
#159 = SURFACE_CURVE('',#160,(#165,#178),.PCURVE_S1.);
#160 = ELLIPSE('',#161,7.071067811865,5.);
#161 = AXIS2_PLACEMENT_3D('',#162,#163,#164);
#162 = CARTESIAN_POINT('',(0.,0.,20.));
#163 = DIRECTION('',(0.,0.707106781187,0.707106781187));
#164 = DIRECTION('',(0.,-0.707106781187,0.707106781187));
#165 = PCURVE('',#32,#166);
#166 = DEFINITIONAL_REPRESENTATION('',(#167),#177);
#167 = B_SPLINE_CURVE_WITH_KNOTS('',8,(#168,#169,#170,#171,#172,#173,
    #174,#175,#176),.UNSPECIFIED.,.F.,.F.,(9,9),(4.712388980385,
    6.28318530718),.PIECEWISE_BEZIER_KNOTS.);
#168 = CARTESIAN_POINT('',(3.14159265359,20.));
#169 = CARTESIAN_POINT('',(3.337942194439,20.981747704247));
#170 = CARTESIAN_POINT('',(3.534291735282,21.963495641579));
#171 = CARTESIAN_POINT('',(3.730641276157,22.887566306046));
#172 = CARTESIAN_POINT('',(3.926990816955,23.696293752859));
#173 = CARTESIAN_POINT('',(4.123340357854,24.339090231675));
#174 = CARTESIAN_POINT('',(4.319689898681,24.779696120073));
#175 = CARTESIAN_POINT('',(4.516039439535,25.));
#176 = CARTESIAN_POINT('',(4.712388980385,25.));
#177 = ( GEOMETRIC_REPRESENTATION_CONTEXT(2) 
PARAMETRIC_REPRESENTATION_CONTEXT() REPRESENTATION_CONTEXT('2D SPACE',''
  ) );
#178 = PCURVE('',#179,#184);
#179 = CYLINDRICAL_SURFACE('',#180,5.);
#180 = AXIS2_PLACEMENT_3D('',#181,#182,#183);
#181 = CARTESIAN_POINT('',(0.,20.,20.));
#182 = DIRECTION('',(0.,-1.,1.110223024625E-16));
#183 = DIRECTION('',(1.,0.,0.));
#184 = DEFINITIONAL_REPRESENTATION('',(#185),#195);
#185 = B_SPLINE_CURVE_WITH_KNOTS('',8,(#186,#187,#188,#189,#190,#191,
    #192,#193,#194),.UNSPECIFIED.,.F.,.F.,(9,9),(4.712388980385,
    6.28318530718),.PIECEWISE_BEZIER_KNOTS.);
#186 = CARTESIAN_POINT('',(3.14159265359,20.));
#187 = CARTESIAN_POINT('',(2.94524311274,20.981747704247));
#188 = CARTESIAN_POINT('',(2.748893571892,21.963495641605));
#189 = CARTESIAN_POINT('',(2.552544031027,22.887566305944));
#190 = CARTESIAN_POINT('',(2.356194490201,23.696293752902));
#191 = CARTESIAN_POINT('',(2.159844949331,24.339090231602));
#192 = CARTESIAN_POINT('',(1.963495408494,24.779696120084));
#193 = CARTESIAN_POINT('',(1.767145867644,25.));
#194 = CARTESIAN_POINT('',(1.570796326795,25.));
#195 = ( GEOMETRIC_REPRESENTATION_CONTEXT(2) 
PARAMETRIC_REPRESENTATION_CONTEXT() REPRESENTATION_CONTEXT('2D SPACE',''
  ) );
#196 = ORIENTED_EDGE('',*,*,#197,.T.);
#197 = EDGE_CURVE('',#157,#22,#198,.T.);
#198 = SURFACE_CURVE('',#199,(#204,#217),.PCURVE_S1.);
#199 = ELLIPSE('',#200,7.071067811865,5.);
#200 = AXIS2_PLACEMENT_3D('',#201,#202,#203);
#201 = CARTESIAN_POINT('',(0.,0.,20.));
#202 = DIRECTION('',(0.,0.707106781187,0.707106781187));
#203 = DIRECTION('',(0.,-0.707106781187,0.707106781187));
#204 = PCURVE('',#32,#205);
#205 = DEFINITIONAL_REPRESENTATION('',(#206),#216);
#206 = B_SPLINE_CURVE_WITH_KNOTS('',8,(#207,#208,#209,#210,#211,#212,
    #213,#214,#215),.UNSPECIFIED.,.F.,.F.,(9,9),(0.,1.570796326795),
  .PIECEWISE_BEZIER_KNOTS.);
#207 = CARTESIAN_POINT('',(4.712388980385,25.));
#208 = CARTESIAN_POINT('',(4.908738521234,25.));
#209 = CARTESIAN_POINT('',(5.105088062085,24.779696120062));
#210 = CARTESIAN_POINT('',(5.301437602932,24.339090231661));
#211 = CARTESIAN_POINT('',(5.497787143783,23.696293752742));
#212 = CARTESIAN_POINT('',(5.694136684629,22.887566306003));
#213 = CARTESIAN_POINT('',(5.890486225482,21.963495641579));
#214 = CARTESIAN_POINT('',(6.08683576633,20.981747704247));
#215 = CARTESIAN_POINT('',(6.28318530718,20.));
#216 = ( GEOMETRIC_REPRESENTATION_CONTEXT(2) 
PARAMETRIC_REPRESENTATION_CONTEXT() REPRESENTATION_CONTEXT('2D SPACE',''
  ) );
#217 = PCURVE('',#179,#218);
#218 = DEFINITIONAL_REPRESENTATION('',(#219),#229);
#219 = B_SPLINE_CURVE_WITH_KNOTS('',8,(#220,#221,#222,#223,#224,#225,
    #226,#227,#228),.UNSPECIFIED.,.F.,.F.,(9,9),(0.,1.570796326795),
  .PIECEWISE_BEZIER_KNOTS.);
#220 = CARTESIAN_POINT('',(1.570796326795,25.));
#221 = CARTESIAN_POINT('',(1.374446785946,25.));
#222 = CARTESIAN_POINT('',(1.178097245097,24.779696120062));
#223 = CARTESIAN_POINT('',(0.981747704244,24.339090231661));
#224 = CARTESIAN_POINT('',(0.785398163397,23.696293752801));
#225 = CARTESIAN_POINT('',(0.589048622546,22.887566306003));
#226 = CARTESIAN_POINT('',(0.392699081699,21.963495641594));
#227 = CARTESIAN_POINT('',(0.196349540849,20.981747704247));
#228 = CARTESIAN_POINT('',(-8.881784197001E-16,20.));
#229 = ( GEOMETRIC_REPRESENTATION_CONTEXT(2) 
PARAMETRIC_REPRESENTATION_CONTEXT() REPRESENTATION_CONTEXT('2D SPACE',''
  ) );
#230 = ADVANCED_FACE('',(#231),#179,.T.);
#231 = FACE_BOUND('',#232,.T.);
#232 = EDGE_LOOP('',(#233,#256,#283,#284,#285,#286));
#233 = ORIENTED_EDGE('',*,*,#234,.T.);
#234 = EDGE_CURVE('',#22,#235,#237,.T.);
#235 = VERTEX_POINT('',#236);
#236 = CARTESIAN_POINT('',(5.,-20.,20.));
#237 = SEAM_CURVE('',#238,(#242,#249),.PCURVE_S1.);
#238 = LINE('',#239,#240);
#239 = CARTESIAN_POINT('',(5.,20.,20.));
#240 = VECTOR('',#241,1.);
#241 = DIRECTION('',(0.,-1.,1.110223024625E-16));
#242 = PCURVE('',#179,#243);
#243 = DEFINITIONAL_REPRESENTATION('',(#244),#248);
#244 = LINE('',#245,#246);
#245 = CARTESIAN_POINT('',(6.28318530718,-0.));
#246 = VECTOR('',#247,1.);
#247 = DIRECTION('',(0.,1.));
#248 = ( GEOMETRIC_REPRESENTATION_CONTEXT(2) 
PARAMETRIC_REPRESENTATION_CONTEXT() REPRESENTATION_CONTEXT('2D SPACE',''
  ) );
#249 = PCURVE('',#179,#250);
#250 = DEFINITIONAL_REPRESENTATION('',(#251),#255);
#251 = LINE('',#252,#253);
#252 = CARTESIAN_POINT('',(0.,-0.));
#253 = VECTOR('',#254,1.);
#254 = DIRECTION('',(0.,1.));
#255 = ( GEOMETRIC_REPRESENTATION_CONTEXT(2) 
PARAMETRIC_REPRESENTATION_CONTEXT() REPRESENTATION_CONTEXT('2D SPACE',''
  ) );
#256 = ORIENTED_EDGE('',*,*,#257,.F.);
#257 = EDGE_CURVE('',#235,#235,#258,.T.);
#258 = SURFACE_CURVE('',#259,(#264,#271),.PCURVE_S1.);
#259 = CIRCLE('',#260,5.);
#260 = AXIS2_PLACEMENT_3D('',#261,#262,#263);
#261 = CARTESIAN_POINT('',(0.,-20.,20.));
#262 = DIRECTION('',(0.,-1.,1.110223024625E-16));
#263 = DIRECTION('',(1.,0.,0.));
#264 = PCURVE('',#179,#265);
#265 = DEFINITIONAL_REPRESENTATION('',(#266),#270);
#266 = LINE('',#267,#268);
#267 = CARTESIAN_POINT('',(0.,40.));
#268 = VECTOR('',#269,1.);
#269 = DIRECTION('',(1.,0.));
#270 = ( GEOMETRIC_REPRESENTATION_CONTEXT(2) 
PARAMETRIC_REPRESENTATION_CONTEXT() REPRESENTATION_CONTEXT('2D SPACE',''
  ) );
#271 = PCURVE('',#272,#277);
#272 = PLANE('',#273);
#273 = AXIS2_PLACEMENT_3D('',#274,#275,#276);
#274 = CARTESIAN_POINT('',(0.,-20.,20.));
#275 = DIRECTION('',(0.,-1.,1.110223024625E-16));
#276 = DIRECTION('',(1.,0.,0.));
#277 = DEFINITIONAL_REPRESENTATION('',(#278),#282);
#278 = CIRCLE('',#279,5.);
#279 = AXIS2_PLACEMENT_2D('',#280,#281);
#280 = CARTESIAN_POINT('',(0.,0.));
#281 = DIRECTION('',(1.,0.));
#282 = ( GEOMETRIC_REPRESENTATION_CONTEXT(2) 
PARAMETRIC_REPRESENTATION_CONTEXT() REPRESENTATION_CONTEXT('2D SPACE',''
  ) );
#283 = ORIENTED_EDGE('',*,*,#234,.F.);
#284 = ORIENTED_EDGE('',*,*,#197,.F.);
#285 = ORIENTED_EDGE('',*,*,#156,.F.);
#286 = ORIENTED_EDGE('',*,*,#287,.T.);
#287 = EDGE_CURVE('',#121,#22,#288,.T.);
#288 = SURFACE_CURVE('',#289,(#294,#314),.PCURVE_S1.);
#289 = ELLIPSE('',#290,7.071067811865,5.);
#290 = AXIS2_PLACEMENT_3D('',#291,#292,#293);
#291 = CARTESIAN_POINT('',(0.,0.,20.));
#292 = DIRECTION('',(0.,-0.707106781187,0.707106781187));
#293 = DIRECTION('',(0.,0.707106781187,0.707106781187));
#294 = PCURVE('',#179,#295);
#295 = DEFINITIONAL_REPRESENTATION('',(#296),#313);
#296 = B_SPLINE_CURVE_WITH_KNOTS('',8,(#297,#298,#299,#300,#301,#302,
    #303,#304,#305,#306,#307,#308,#309,#310,#311,#312),.UNSPECIFIED.,.F.
  ,.F.,(9,7,9),(1.570796326795,3.14159265359,4.712388980385),
  .UNSPECIFIED.);
#297 = CARTESIAN_POINT('',(3.14159265359,20.));
#298 = CARTESIAN_POINT('',(3.337942194439,20.981747704247));
#299 = CARTESIAN_POINT('',(3.534291735289,21.963495641576));
#300 = CARTESIAN_POINT('',(3.730641276121,22.88756630609));
#301 = CARTESIAN_POINT('',(3.926990817014,23.696293752728));
#302 = CARTESIAN_POINT('',(4.123340357824,24.339090231748));
#303 = CARTESIAN_POINT('',(4.319689898688,24.77969612004));
#304 = CARTESIAN_POINT('',(4.516039439535,25.));
#305 = CARTESIAN_POINT('',(4.908738521234,25.));
#306 = CARTESIAN_POINT('',(5.105088062086,24.779696120062));
#307 = CARTESIAN_POINT('',(5.301437602942,24.339090231661));
#308 = CARTESIAN_POINT('',(5.497787143762,23.696293752742));
#309 = CARTESIAN_POINT('',(5.694136684637,22.887566306003));
#310 = CARTESIAN_POINT('',(5.890486225479,21.963495641579));
#311 = CARTESIAN_POINT('',(6.08683576633,20.981747704247));
#312 = CARTESIAN_POINT('',(6.28318530718,20.));
#313 = ( GEOMETRIC_REPRESENTATION_CONTEXT(2) 
PARAMETRIC_REPRESENTATION_CONTEXT() REPRESENTATION_CONTEXT('2D SPACE',''
  ) );
#314 = PCURVE('',#315,#320);
#315 = CYLINDRICAL_SURFACE('',#316,5.);
#316 = AXIS2_PLACEMENT_3D('',#317,#318,#319);
#317 = CARTESIAN_POINT('',(0.,0.,0.));
#318 = DIRECTION('',(0.,0.,1.));
#319 = DIRECTION('',(1.,0.,-0.));
#320 = DEFINITIONAL_REPRESENTATION('',(#321),#338);
#321 = B_SPLINE_CURVE_WITH_KNOTS('',8,(#322,#323,#324,#325,#326,#327,
    #328,#329,#330,#331,#332,#333,#334,#335,#336,#337),.UNSPECIFIED.,.F.
  ,.F.,(9,7,9),(1.570796326795,3.14159265359,4.712388980385),
  .UNSPECIFIED.);
#322 = CARTESIAN_POINT('',(3.14159265359,20.));
#323 = CARTESIAN_POINT('',(3.337942194439,19.018252295753));
#324 = CARTESIAN_POINT('',(3.53429173529,18.036504358399));
#325 = CARTESIAN_POINT('',(3.730641276145,17.112433693997));
#326 = CARTESIAN_POINT('',(3.926990816995,16.30370624701));
#327 = CARTESIAN_POINT('',(4.123340357839,15.660909768361));
#328 = CARTESIAN_POINT('',(4.319689898688,15.22030387992));
#329 = CARTESIAN_POINT('',(4.516039439535,15.));
#330 = CARTESIAN_POINT('',(4.908738521234,15.));
#331 = CARTESIAN_POINT('',(5.105088062082,15.220303879956));
#332 = CARTESIAN_POINT('',(5.30143760294,15.660909768252));
#333 = CARTESIAN_POINT('',(5.497787143777,16.303706247243));
#334 = CARTESIAN_POINT('',(5.694136684639,17.112433693874));
#335 = CARTESIAN_POINT('',(5.89048622548,18.036504358424));
#336 = CARTESIAN_POINT('',(6.08683576633,19.018252295753));
#337 = CARTESIAN_POINT('',(6.28318530718,20.));
#338 = ( GEOMETRIC_REPRESENTATION_CONTEXT(2) 
PARAMETRIC_REPRESENTATION_CONTEXT() REPRESENTATION_CONTEXT('2D SPACE',''
  ) );
#339 = ADVANCED_FACE('',(#340),#102,.T.);
#340 = FACE_BOUND('',#341,.T.);
#341 = EDGE_LOOP('',(#342,#343,#366,#393,#394,#442));
#342 = ORIENTED_EDGE('',*,*,#79,.F.);
#343 = ORIENTED_EDGE('',*,*,#344,.F.);
#344 = EDGE_CURVE('',#345,#22,#347,.T.);
#345 = VERTEX_POINT('',#346);
#346 = CARTESIAN_POINT('',(5.,20.,20.));
#347 = SEAM_CURVE('',#348,(#352,#359),.PCURVE_S1.);
#348 = LINE('',#349,#350);
#349 = CARTESIAN_POINT('',(5.,20.,20.));
#350 = VECTOR('',#351,1.);
#351 = DIRECTION('',(0.,-1.,1.110223024625E-16));
#352 = PCURVE('',#102,#353);
#353 = DEFINITIONAL_REPRESENTATION('',(#354),#358);
#354 = LINE('',#355,#356);
#355 = CARTESIAN_POINT('',(6.28318530718,-0.));
#356 = VECTOR('',#357,1.);
#357 = DIRECTION('',(0.,1.));
#358 = ( GEOMETRIC_REPRESENTATION_CONTEXT(2) 
PARAMETRIC_REPRESENTATION_CONTEXT() REPRESENTATION_CONTEXT('2D SPACE',''
  ) );
#359 = PCURVE('',#102,#360);
#360 = DEFINITIONAL_REPRESENTATION('',(#361),#365);
#361 = LINE('',#362,#363);
#362 = CARTESIAN_POINT('',(0.,-0.));
#363 = VECTOR('',#364,1.);
#364 = DIRECTION('',(0.,1.));
#365 = ( GEOMETRIC_REPRESENTATION_CONTEXT(2) 
PARAMETRIC_REPRESENTATION_CONTEXT() REPRESENTATION_CONTEXT('2D SPACE',''
  ) );
#366 = ORIENTED_EDGE('',*,*,#367,.T.);
#367 = EDGE_CURVE('',#345,#345,#368,.T.);
#368 = SURFACE_CURVE('',#369,(#374,#381),.PCURVE_S1.);
#369 = CIRCLE('',#370,5.);
#370 = AXIS2_PLACEMENT_3D('',#371,#372,#373);
#371 = CARTESIAN_POINT('',(0.,20.,20.));
#372 = DIRECTION('',(0.,-1.,1.110223024625E-16));
#373 = DIRECTION('',(1.,0.,0.));
#374 = PCURVE('',#102,#375);
#375 = DEFINITIONAL_REPRESENTATION('',(#376),#380);
#376 = LINE('',#377,#378);
#377 = CARTESIAN_POINT('',(0.,0.));
#378 = VECTOR('',#379,1.);
#379 = DIRECTION('',(1.,0.));
#380 = ( GEOMETRIC_REPRESENTATION_CONTEXT(2) 
PARAMETRIC_REPRESENTATION_CONTEXT() REPRESENTATION_CONTEXT('2D SPACE',''
  ) );
#381 = PCURVE('',#382,#387);
#382 = PLANE('',#383);
#383 = AXIS2_PLACEMENT_3D('',#384,#385,#386);
#384 = CARTESIAN_POINT('',(0.,20.,20.));
#385 = DIRECTION('',(0.,-1.,1.110223024625E-16));
#386 = DIRECTION('',(1.,0.,0.));
#387 = DEFINITIONAL_REPRESENTATION('',(#388),#392);
#388 = CIRCLE('',#389,5.);
#389 = AXIS2_PLACEMENT_2D('',#390,#391);
#390 = CARTESIAN_POINT('',(0.,0.));
#391 = DIRECTION('',(1.,0.));
#392 = ( GEOMETRIC_REPRESENTATION_CONTEXT(2) 
PARAMETRIC_REPRESENTATION_CONTEXT() REPRESENTATION_CONTEXT('2D SPACE',''
  ) );
#393 = ORIENTED_EDGE('',*,*,#344,.T.);
#394 = ORIENTED_EDGE('',*,*,#395,.T.);
#395 = EDGE_CURVE('',#22,#121,#396,.T.);
#396 = SURFACE_CURVE('',#397,(#402,#422),.PCURVE_S1.);
#397 = ELLIPSE('',#398,7.071067811865,5.);
#398 = AXIS2_PLACEMENT_3D('',#399,#400,#401);
#399 = CARTESIAN_POINT('',(0.,0.,20.));
#400 = DIRECTION('',(0.,0.707106781187,0.707106781187));
#401 = DIRECTION('',(0.,-0.707106781187,0.707106781187));
#402 = PCURVE('',#102,#403);
#403 = DEFINITIONAL_REPRESENTATION('',(#404),#421);
#404 = B_SPLINE_CURVE_WITH_KNOTS('',8,(#405,#406,#407,#408,#409,#410,
    #411,#412,#413,#414,#415,#416,#417,#418,#419,#420),.UNSPECIFIED.,.F.
  ,.F.,(9,7,9),(1.570796326795,3.14159265359,4.712388980385),
  .UNSPECIFIED.);
#405 = CARTESIAN_POINT('',(6.28318530718,20.));
#406 = CARTESIAN_POINT('',(6.08683576633,19.018252295753));
#407 = CARTESIAN_POINT('',(5.89048622547,18.036504358406));
#408 = CARTESIAN_POINT('',(5.694136684659,17.112433693968));
#409 = CARTESIAN_POINT('',(5.497787143711,16.303706247039));
#410 = CARTESIAN_POINT('',(5.301437602961,15.660909768361));
#411 = CARTESIAN_POINT('',(5.105088062073,15.220303879927));
#412 = CARTESIAN_POINT('',(4.908738521234,15.));
#413 = CARTESIAN_POINT('',(4.516039439535,15.));
#414 = CARTESIAN_POINT('',(4.319689898685,15.220303879942));
#415 = CARTESIAN_POINT('',(4.123340357828,15.660909768281));
#416 = CARTESIAN_POINT('',(3.926990816988,16.303706247185));
#417 = CARTESIAN_POINT('',(3.730641276132,17.112433693903));
#418 = CARTESIAN_POINT('',(3.534291735288,18.036504358417));
#419 = CARTESIAN_POINT('',(3.337942194439,19.018252295753));
#420 = CARTESIAN_POINT('',(3.14159265359,20.));
#421 = ( GEOMETRIC_REPRESENTATION_CONTEXT(2) 
PARAMETRIC_REPRESENTATION_CONTEXT() REPRESENTATION_CONTEXT('2D SPACE',''
  ) );
#422 = PCURVE('',#315,#423);
#423 = DEFINITIONAL_REPRESENTATION('',(#424),#441);
#424 = B_SPLINE_CURVE_WITH_KNOTS('',8,(#425,#426,#427,#428,#429,#430,
    #431,#432,#433,#434,#435,#436,#437,#438,#439,#440),.UNSPECIFIED.,.F.
  ,.F.,(9,7,9),(1.570796326795,3.14159265359,4.712388980385),
  .UNSPECIFIED.);
#425 = CARTESIAN_POINT('',(0.,20.));
#426 = CARTESIAN_POINT('',(0.196349540849,19.018252295753));
#427 = CARTESIAN_POINT('',(0.392699081698,18.036504358399));
#428 = CARTESIAN_POINT('',(0.589048622548,17.112433693997));
#429 = CARTESIAN_POINT('',(0.785398163395,16.30370624701));
#430 = CARTESIAN_POINT('',(0.981747704247,15.660909768361));
#431 = CARTESIAN_POINT('',(1.178097245096,15.22030387992));
#432 = CARTESIAN_POINT('',(1.374446785946,15.));
#433 = CARTESIAN_POINT('',(1.767145867644,15.));
#434 = CARTESIAN_POINT('',(1.963495408489,15.220303879956));
#435 = CARTESIAN_POINT('',(2.159844949349,15.660909768252));
#436 = CARTESIAN_POINT('',(2.356194490172,16.303706247243));
#437 = CARTESIAN_POINT('',(2.552544031047,17.112433693874));
#438 = CARTESIAN_POINT('',(2.748893571887,18.036504358424));
#439 = CARTESIAN_POINT('',(2.94524311274,19.018252295753));
#440 = CARTESIAN_POINT('',(3.14159265359,20.));
#441 = ( GEOMETRIC_REPRESENTATION_CONTEXT(2) 
PARAMETRIC_REPRESENTATION_CONTEXT() REPRESENTATION_CONTEXT('2D SPACE',''
  ) );
#442 = ORIENTED_EDGE('',*,*,#120,.F.);
#443 = ADVANCED_FACE('',(#444),#66,.T.);
#444 = FACE_BOUND('',#445,.T.);
#445 = EDGE_LOOP('',(#446));
#446 = ORIENTED_EDGE('',*,*,#51,.T.);
#447 = ADVANCED_FACE('',(#448),#315,.T.);
#448 = FACE_BOUND('',#449,.T.);
#449 = EDGE_LOOP('',(#450,#451,#474,#501,#502));
#450 = ORIENTED_EDGE('',*,*,#395,.F.);
#451 = ORIENTED_EDGE('',*,*,#452,.F.);
#452 = EDGE_CURVE('',#453,#22,#455,.T.);
#453 = VERTEX_POINT('',#454);
#454 = CARTESIAN_POINT('',(5.,-1.224646799147E-15,0.));
#455 = SEAM_CURVE('',#456,(#460,#467),.PCURVE_S1.);
#456 = LINE('',#457,#458);
#457 = CARTESIAN_POINT('',(5.,-1.224646799147E-15,0.));
#458 = VECTOR('',#459,1.);
#459 = DIRECTION('',(0.,0.,1.));
#460 = PCURVE('',#315,#461);
#461 = DEFINITIONAL_REPRESENTATION('',(#462),#466);
#462 = LINE('',#463,#464);
#463 = CARTESIAN_POINT('',(6.28318530718,-0.));
#464 = VECTOR('',#465,1.);
#465 = DIRECTION('',(0.,1.));
#466 = ( GEOMETRIC_REPRESENTATION_CONTEXT(2) 
PARAMETRIC_REPRESENTATION_CONTEXT() REPRESENTATION_CONTEXT('2D SPACE',''
  ) );
#467 = PCURVE('',#315,#468);
#468 = DEFINITIONAL_REPRESENTATION('',(#469),#473);
#469 = LINE('',#470,#471);
#470 = CARTESIAN_POINT('',(0.,-0.));
#471 = VECTOR('',#472,1.);
#472 = DIRECTION('',(0.,1.));
#473 = ( GEOMETRIC_REPRESENTATION_CONTEXT(2) 
PARAMETRIC_REPRESENTATION_CONTEXT() REPRESENTATION_CONTEXT('2D SPACE',''
  ) );
#474 = ORIENTED_EDGE('',*,*,#475,.T.);
#475 = EDGE_CURVE('',#453,#453,#476,.T.);
#476 = SURFACE_CURVE('',#477,(#482,#489),.PCURVE_S1.);
#477 = CIRCLE('',#478,5.);
#478 = AXIS2_PLACEMENT_3D('',#479,#480,#481);
#479 = CARTESIAN_POINT('',(0.,0.,0.));
#480 = DIRECTION('',(0.,0.,1.));
#481 = DIRECTION('',(1.,0.,-0.));
#482 = PCURVE('',#315,#483);
#483 = DEFINITIONAL_REPRESENTATION('',(#484),#488);
#484 = LINE('',#485,#486);
#485 = CARTESIAN_POINT('',(0.,0.));
#486 = VECTOR('',#487,1.);
#487 = DIRECTION('',(1.,0.));
#488 = ( GEOMETRIC_REPRESENTATION_CONTEXT(2) 
PARAMETRIC_REPRESENTATION_CONTEXT() REPRESENTATION_CONTEXT('2D SPACE',''
  ) );
#489 = PCURVE('',#490,#495);
#490 = PLANE('',#491);
#491 = AXIS2_PLACEMENT_3D('',#492,#493,#494);
#492 = CARTESIAN_POINT('',(0.,0.,0.));
#493 = DIRECTION('',(0.,0.,1.));
#494 = DIRECTION('',(1.,0.,-0.));
#495 = DEFINITIONAL_REPRESENTATION('',(#496),#500);
#496 = CIRCLE('',#497,5.);
#497 = AXIS2_PLACEMENT_2D('',#498,#499);
#498 = CARTESIAN_POINT('',(0.,0.));
#499 = DIRECTION('',(1.,0.));
#500 = ( GEOMETRIC_REPRESENTATION_CONTEXT(2) 
PARAMETRIC_REPRESENTATION_CONTEXT() REPRESENTATION_CONTEXT('2D SPACE',''
  ) );
#501 = ORIENTED_EDGE('',*,*,#452,.T.);
#502 = ORIENTED_EDGE('',*,*,#287,.F.);
#503 = ADVANCED_FACE('',(#504),#272,.T.);
#504 = FACE_BOUND('',#505,.T.);
#505 = EDGE_LOOP('',(#506));
#506 = ORIENTED_EDGE('',*,*,#257,.T.);
#507 = ADVANCED_FACE('',(#508),#382,.F.);
#508 = FACE_BOUND('',#509,.T.);
#509 = EDGE_LOOP('',(#510));
#510 = ORIENTED_EDGE('',*,*,#367,.F.);
#511 = ADVANCED_FACE('',(#512),#490,.F.);
#512 = FACE_BOUND('',#513,.T.);
#513 = EDGE_LOOP('',(#514));
#514 = ORIENTED_EDGE('',*,*,#475,.F.);
#515 = ( GEOMETRIC_REPRESENTATION_CONTEXT(3) 
GLOBAL_UNCERTAINTY_ASSIGNED_CONTEXT((#519)) GLOBAL_UNIT_ASSIGNED_CONTEXT
((#516,#517,#518)) REPRESENTATION_CONTEXT('Context #1',
  '3D Context with UNIT and UNCERTAINTY') );
#516 = ( LENGTH_UNIT() NAMED_UNIT(*) SI_UNIT(.MILLI.,.METRE.) );
#517 = ( NAMED_UNIT(*) PLANE_ANGLE_UNIT() SI_UNIT($,.RADIAN.) );
#518 = ( NAMED_UNIT(*) SI_UNIT($,.STERADIAN.) SOLID_ANGLE_UNIT() );
#519 = UNCERTAINTY_MEASURE_WITH_UNIT(LENGTH_MEASURE(1.E-07),#516,
  'distance_accuracy_value','confusion accuracy');
#520 = PRODUCT_RELATED_PRODUCT_CATEGORY('part',$,(#7));
ENDSEC;
END-ISO-10303-21;
