o 
usemtl boolean-union-cube-sphere-tangent-contact-material
v -10 -10 -10
v -10 -10 10
v -10 10 -10
v -10 10 10
v 10 -10 -10
v 14.496917724609375 -5.085686683654785 -5.085686683654785
v 16.381322860717773 -7.665491580963135 -1.6186777353286743
v 14.561869621276855 -6.3528361320495605 -3.4381299018859863
v 12.914313316345215 -5.085686683654785 -3.503081798553467
v 16.332324981689453 -7.107581615447998 -3.2712604999542236
v 16.30388069152832 -6.147597789764404 -4.830136775970459
v 14.728739738464355 -7.107581615447998 -1.66767418384552
v 13.1698637008667 -6.147597789764404 -1.6961184740066528
v 14.561869621276855 -3.4381299018859863 -6.3528361320495605
v 12.914313316345215 -3.503081798553467 -5.085686683654785
v 16.30388069152832 -4.830136775970459 -6.147597789764404
v 16.332324981689453 -3.2712604999542236 -7.107581615447998
v 16.381322860717773 -1.6186777353286743 -7.665491580963135
v 14.728739738464355 -1.66767418384552 -7.107581615447998
v 13.1698637008667 -1.6961184740066528 -6.147597789764404
v 11.647164344787598 -3.4381299018859863 -3.4381299018859863
v 11.852401733398438 -4.830136775970459 -1.6961184740066528
v 10.892417907714844 -3.2712604999542236 -1.66767418384552
v 11.852401733398438 -1.6961184740066528 -4.830136775970459
v 10.892417907714844 -1.66767418384552 -3.2712604999542236
v 10.334507942199707 -1.6186777353286743 -1.6186777353286743
v 18 -5.656854152679443 -5.656854152679443
v 21.503082275390625 -5.085686683654785 -5.085686683654785
v 18 -7.846282005310059 -1.5607225894927979
v 19.618677139282227 -7.665491580963135 -1.6186777353286743
v 18 -6.651756763458252 -4.444561958312988
v 18 -7.391036033630371 -3.061467409133911
v 19.667675018310547 -7.107581615447998 -3.2712604999542236
v 21.438129425048828 -6.3528361320495605 -3.4381299018859863
v 19.69611930847168 -6.147597789764404 -4.830136775970459
v 21.27126121520996 -7.107581615447998 -1.66767418384552
v 23.08568572998047 -5.085686683654785 -3.503081798553467
v 22.830137252807617 -6.147597789764404 -1.6961184740066528
v 18 -4.444561958312988 -6.651756763458252
v 18 -3.061467409133911 -7.391036033630371
v 19.69611930847168 -4.830136775970459 -6.147597789764404
v 19.667675018310547 -3.2712604999542236 -7.107581615447998
v 21.438129425048828 -3.4381299018859863 -6.3528361320495605
v 18 -1.5607225894927979 -7.846282005310059
v 19.618677139282227 -1.6186777353286743 -7.665491580963135
v 21.27126121520996 -1.66767418384552 -7.107581615447998
v 23.08568572998047 -3.503081798553467 -5.085686683654785
v 22.830137252807617 -1.6961184740066528 -6.147597789764404
v 24.35283660888672 -3.4381299018859863 -3.4381299018859863
v 24.147598266601562 -4.830136775970459 -1.6961184740066528
v 25.107582092285156 -3.2712604999542236 -1.66767418384552
v 24.147598266601562 -1.6961184740066528 -4.830136775970459
v 25.107582092285156 -1.66767418384552 -3.2712604999542236
v 25.665491104125977 -1.6186777353286743 -1.6186777353286743
v 12.343145370483398 -5.656854152679443 4.898587410340671e-16
v 16.43927764892578 -7.846282005310059 4.898587410340671e-16
v 16.381322860717773 -7.665491580963135 1.6186777353286743
v 13.555438041687012 -6.651756763458252 4.898587410340671e-16
v 14.728739738464355 -7.107581615447998 1.66767418384552
v 13.1698637008667 -6.147597789764404 1.6961184740066528
v 14.938532829284668 -7.391036033630371 4.898587410340671e-16
v 14.561869621276855 -6.3528361320495605 3.4381299018859863
v 12.914313316345215 -5.085686683654785 3.503081798553467
v 16.332324981689453 -7.107581615447998 3.2712604999542236
v 16.30388069152832 -6.147597789764404 4.830136775970459
v 10 -10 10
v 14.496917724609375 -5.085686683654785 5.085686683654785
v 11.34824275970459 -4.444561958312988 4.898587410340671e-16
v 11.852401733398438 -4.830136775970459 1.6961184740066528
v 10.608963966369629 -3.061467409133911 4.898587410340671e-16
v 10.892417907714844 -3.2712604999542236 1.66767418384552
v 11.647164344787598 -3.4381299018859863 3.4381299018859863
v 10.153717994689941 -1.5607225894927979 4.898587410340671e-16
v 10.334507942199707 -1.6186777353286743 1.6186777353286743
v 10.892417907714844 -1.66767418384552 3.2712604999542236
v 11.852401733398438 -1.6961184740066528 4.830136775970459
v 12.914313316345215 -3.503081798553467 5.085686683654785
v 14.561869621276855 -3.4381299018859863 6.3528361320495605
v 16.30388069152832 -4.830136775970459 6.147597789764404
v 16.332324981689453 -3.2712604999542236 7.107581615447998
v 13.1698637008667 -1.6961184740066528 6.147597789764404
v 14.728739738464355 -1.66767418384552 7.107581615447998
v 16.381322860717773 -1.6186777353286743 7.665491580963135
v 18 -8 4.898587410340671e-16
v 18 -7.846282005310059 1.5607225894927979
v 19.56072235107422 -7.846282005310059 4.898587410340671e-16
v 19.618677139282227 -7.665491580963135 1.6186777353286743
v 21.06146812438965 -7.391036033630371 4.898587410340671e-16
v 21.27126121520996 -7.107581615447998 1.66767418384552
v 18 -7.391036033630371 3.061467409133911
v 18 -6.651756763458252 4.444561958312988
v 19.667675018310547 -7.107581615447998 3.2712604999542236
v 21.438129425048828 -6.3528361320495605 3.4381299018859863
v 19.69611930847168 -6.147597789764404 4.830136775970459
v 22.444561004638672 -6.651756763458252 4.898587410340671e-16
v 23.6568546295166 -5.656854152679443 4.898587410340671e-16
v 22.830137252807617 -6.147597789764404 1.6961184740066528
v 23.08568572998047 -5.085686683654785 3.503081798553467
v 18 -5.656854152679443 5.656854152679443
v 21.503082275390625 -5.085686683654785 5.085686683654785
v 24.651756286621094 -4.444561958312988 4.898587410340671e-16
v 24.147598266601562 -4.830136775970459 1.6961184740066528
v 25.391036987304688 -3.061467409133911 4.898587410340671e-16
v 25.107582092285156 -3.2712604999542236 1.66767418384552
v 24.35283660888672 -3.4381299018859863 3.4381299018859863
v 25.846282958984375 -1.5607225894927979 4.898587410340671e-16
v 25.665491104125977 -1.6186777353286743 1.6186777353286743
v 25.107582092285156 -1.66767418384552 3.2712604999542236
v 24.147598266601562 -1.6961184740066528 4.830136775970459
v 18 -4.444561958312988 6.651756763458252
v 18 -3.061467409133911 7.391036033630371
v 19.69611930847168 -4.830136775970459 6.147597789764404
v 19.667675018310547 -3.2712604999542236 7.107581615447998
v 21.438129425048828 -3.4381299018859863 6.3528361320495605
v 21.27126121520996 -1.66767418384552 7.107581615447998
v 18 -1.5607225894927979 7.846282005310059
v 19.618677139282227 -1.6186777353286743 7.665491580963135
v 23.08568572998047 -3.503081798553467 5.085686683654785
v 22.830137252807617 -1.6961184740066528 6.147597789764404
v 12.343145370483398 4.898587410340671e-16 -5.656854152679443
v 16.43927764892578 4.898587410340671e-16 -7.846282005310059
v 16.381322860717773 1.6186777353286743 -7.665491580963135
v 13.555438041687012 4.898587410340671e-16 -6.651756763458252
v 14.728739738464355 1.66767418384552 -7.107581615447998
v 13.1698637008667 1.6961184740066528 -6.147597789764404
v 14.938532829284668 4.898587410340671e-16 -7.391036033630371
v 14.561869621276855 3.4381299018859863 -6.3528361320495605
v 12.914313316345215 3.503081798553467 -5.085686683654785
v 16.332324981689453 3.2712604999542236 -7.107581615447998
v 16.30388069152832 4.830136775970459 -6.147597789764404
v 11.34824275970459 4.898587410340671e-16 -4.444561958312988
v 10.608963966369629 4.898587410340671e-16 -3.061467409133911
v 11.852401733398438 1.6961184740066528 -4.830136775970459
v 10.892417907714844 1.66767418384552 -3.2712604999542236
v 10.153717994689941 4.898587410340671e-16 -1.5607225894927979
v 10.334507942199707 1.6186777353286743 -1.6186777353286743
v 11.647164344787598 3.4381299018859863 -3.4381299018859863
v 10.892417907714844 3.2712604999542236 -1.66767418384552
v 11.852401733398438 4.830136775970459 -1.6961184740066528
v 10 10 -10
v 14.496917724609375 5.085686683654785 -5.085686683654785
v 12.914313316345215 5.085686683654785 -3.503081798553467
v 14.561869621276855 6.3528361320495605 -3.4381299018859863
v 16.30388069152832 6.147597789764404 -4.830136775970459
v 16.332324981689453 7.107581615447998 -3.2712604999542236
v 13.1698637008667 6.147597789764404 -1.6961184740066528
v 14.728739738464355 7.107581615447998 -1.66767418384552
v 16.381322860717773 7.665491580963135 -1.6186777353286743
v 18 4.898587410340671e-16 -8
v 18 1.5607225894927979 -7.846282005310059
v 19.56072235107422 4.898587410340671e-16 -7.846282005310059
v 19.618677139282227 1.6186777353286743 -7.665491580963135
v 21.06146812438965 4.898587410340671e-16 -7.391036033630371
v 21.27126121520996 1.66767418384552 -7.107581615447998
v 18 3.061467409133911 -7.391036033630371
v 18 4.444561958312988 -6.651756763458252
v 19.667675018310547 3.2712604999542236 -7.107581615447998
v 21.438129425048828 3.4381299018859863 -6.3528361320495605
v 19.69611930847168 4.830136775970459 -6.147597789764404
v 22.444561004638672 4.898587410340671e-16 -6.651756763458252
v 23.6568546295166 4.898587410340671e-16 -5.656854152679443
v 22.830137252807617 1.6961184740066528 -6.147597789764404
v 23.08568572998047 3.503081798553467 -5.085686683654785
v 24.651756286621094 4.898587410340671e-16 -4.444561958312988
v 25.391036987304688 4.898587410340671e-16 -3.061467409133911
v 24.147598266601562 1.6961184740066528 -4.830136775970459
v 25.107582092285156 1.66767418384552 -3.2712604999542236
v 25.846282958984375 4.898587410340671e-16 -1.5607225894927979
v 25.665491104125977 1.6186777353286743 -1.6186777353286743
v 24.35283660888672 3.4381299018859863 -3.4381299018859863
v 25.107582092285156 3.2712604999542236 -1.66767418384552
v 24.147598266601562 4.830136775970459 -1.6961184740066528
v 18 5.656854152679443 -5.656854152679443
v 21.503082275390625 5.085686683654785 -5.085686683654785
v 18 6.651756763458252 -4.444561958312988
v 18 7.391036033630371 -3.061467409133911
v 19.69611930847168 6.147597789764404 -4.830136775970459
v 19.667675018310547 7.107581615447998 -3.2712604999542236
v 21.438129425048828 6.3528361320495605 -3.4381299018859863
v 21.27126121520996 7.107581615447998 -1.66767418384552
v 18 7.846282005310059 -1.5607225894927979
v 19.618677139282227 7.665491580963135 -1.6186777353286743
v 23.08568572998047 5.085686683654785 -3.503081798553467
v 22.830137252807617 6.147597789764404 -1.6961184740066528
v 10 4.898587410340671e-16 4.898587410340671e-16
v 10.153717994689941 4.898587410340671e-16 1.5607225894927979
v 10.153717994689941 1.5607225894927979 4.898587410340671e-16
v 10.334507942199707 1.6186777353286743 1.6186777353286743
v 10.608963966369629 4.898587410340671e-16 3.061467409133911
v 11.34824275970459 4.898587410340671e-16 4.444561958312988
v 10.892417907714844 1.66767418384552 3.2712604999542236
v 11.852401733398438 1.6961184740066528 4.830136775970459
v 10.608963966369629 3.061467409133911 4.898587410340671e-16
v 10.892417907714844 3.2712604999542236 1.66767418384552
v 11.34824275970459 4.444561958312988 4.898587410340671e-16
v 11.852401733398438 4.830136775970459 1.6961184740066528
v 11.647164344787598 3.4381299018859863 3.4381299018859863
v 12.343145370483398 4.898587410340671e-16 5.656854152679443
v 13.555438041687012 4.898587410340671e-16 6.651756763458252
v 13.1698637008667 1.6961184740066528 6.147597789764404
v 14.728739738464355 1.66767418384552 7.107581615447998
v 14.938532829284668 4.898587410340671e-16 7.391036033630371
v 16.43927764892578 4.898587410340671e-16 7.846282005310059
v 16.381322860717773 1.6186777353286743 7.665491580963135
v 12.914313316345215 3.503081798553467 5.085686683654785
v 14.561869621276855 3.4381299018859863 6.3528361320495605
v 16.332324981689453 3.2712604999542236 7.107581615447998
v 16.30388069152832 4.830136775970459 6.147597789764404
v 12.343145370483398 5.656854152679443 4.898587410340671e-16
v 13.1698637008667 6.147597789764404 1.6961184740066528
v 13.555438041687012 6.651756763458252 4.898587410340671e-16
v 14.728739738464355 7.107581615447998 1.66767418384552
v 14.938532829284668 7.391036033630371 4.898587410340671e-16
v 12.914313316345215 5.085686683654785 3.503081798553467
v 14.561869621276855 6.3528361320495605 3.4381299018859863
v 16.30388069152832 6.147597789764404 4.830136775970459
v 16.332324981689453 7.107581615447998 3.2712604999542236
v 16.43927764892578 7.846282005310059 4.898587410340671e-16
v 16.381322860717773 7.665491580963135 1.6186777353286743
v 10 10 10
v 14.496917724609375 5.085686683654785 5.085686683654785
v 26 4.898587410340671e-16 4.898587410340671e-16
v 25.846282958984375 4.898587410340671e-16 1.5607225894927979
v 25.846282958984375 1.5607225894927979 4.898587410340671e-16
v 25.665491104125977 1.6186777353286743 1.6186777353286743
v 25.391036987304688 4.898587410340671e-16 3.061467409133911
v 24.651756286621094 4.898587410340671e-16 4.444561958312988
v 25.107582092285156 1.66767418384552 3.2712604999542236
v 24.147598266601562 1.6961184740066528 4.830136775970459
v 25.391036987304688 3.061467409133911 4.898587410340671e-16
v 25.107582092285156 3.2712604999542236 1.66767418384552
v 24.651756286621094 4.444561958312988 4.898587410340671e-16
v 24.147598266601562 4.830136775970459 1.6961184740066528
v 24.35283660888672 3.4381299018859863 3.4381299018859863
v 21.06146812438965 4.898587410340671e-16 7.391036033630371
v 21.27126121520996 1.66767418384552 7.107581615447998
v 18 4.898587410340671e-16 8
v 18 1.5607225894927979 7.846282005310059
v 19.56072235107422 4.898587410340671e-16 7.846282005310059
v 19.618677139282227 1.6186777353286743 7.665491580963135
v 18 3.061467409133911 7.391036033630371
v 18 4.444561958312988 6.651756763458252
v 19.667675018310547 3.2712604999542236 7.107581615447998
v 21.438129425048828 3.4381299018859863 6.3528361320495605
v 19.69611930847168 4.830136775970459 6.147597789764404
v 23.6568546295166 4.898587410340671e-16 5.656854152679443
v 22.444561004638672 4.898587410340671e-16 6.651756763458252
v 22.830137252807617 1.6961184740066528 6.147597789764404
v 23.08568572998047 3.503081798553467 5.085686683654785
v 21.06146812438965 7.391036033630371 4.898587410340671e-16
v 21.27126121520996 7.107581615447998 1.66767418384552
v 18 7.391036033630371 3.061467409133911
v 18 6.651756763458252 4.444561958312988
v 19.69611930847168 6.147597789764404 4.830136775970459
v 19.667675018310547 7.107581615447998 3.2712604999542236
v 21.438129425048828 6.3528361320495605 3.4381299018859863
v 18 8 4.898587410340671e-16
v 18 7.846282005310059 1.5607225894927979
v 19.56072235107422 7.846282005310059 4.898587410340671e-16
v 19.618677139282227 7.665491580963135 1.6186777353286743
v 23.6568546295166 5.656854152679443 4.898587410340671e-16
v 22.830137252807617 6.147597789764404 1.6961184740066528
v 22.444561004638672 6.651756763458252 4.898587410340671e-16
v 23.08568572998047 5.085686683654785 3.503081798553467
v 18 5.656854152679443 5.656854152679443
v 21.503082275390625 5.085686683654785 5.085686683654785
vn -0.816496580927726 -0.408248290463863 -0.408248290463863
vn -0.408248290463863 -0.816496580927726 0.408248290463863
vn -0.3333333333333333 0.6666666666666666 -0.6666666666666666
vn -0.6666666666666666 0.3333333333333333 0.6666666666666666
vn 0.3333333333333333 -0.6666666666666666 -0.6666666666666666
vn -0.4464178373472605 -0.632736562282517 -0.632736562282517
vn -0.20860262288331008 -0.9554945860056411 -0.2086025930809876
vn -0.43612730276892747 -0.7871379215424991 -0.43612712395499403
vn -0.6327366232784363 -0.6327365636737915 -0.4464177489218863
vn -0.22410603046135485 -0.8841507505280096 -0.4099438223118035
vn -0.23356268113003856 -0.7642260889058482 -0.6011713225188129
vn -0.4099438539506415 -0.8841507544889337 -0.2241059569595249
vn -0.6011712528869099 -0.7642261357635566 -0.2335627070366438
vn -0.43612730276892747 -0.43612712395499403 -0.7871379215424991
vn -0.6327366232784363 -0.4464177489218863 -0.6327365636737915
vn -0.23356268113003856 -0.6011713225188129 -0.7642260889058482
vn -0.22410603046135485 -0.4099438223118035 -0.8841507505280096
vn -0.20860263648762162 -0.2086026066852993 -0.9554945800654818
vn -0.4099438539506415 -0.2241059569595249 -0.8841507544889337
vn -0.6011712549791995 -0.23356269294836388 -0.7642261384233352
vn -0.7871378477135321 -0.43612726508537464 -0.43612729488769636
vn -0.7642260021514491 -0.6011713607663542 -0.2335628665476248
vn -0.8841506981984105 -0.40994388528958486 -0.22410612171233232
vn -0.7642260021514491 -0.2335628665476248 -0.6011713607663542
vn -0.8841506981984105 -0.22410612171233232 -0.40994388528958486
vn -0.9554946268339837 -0.20860251447596012 -0.20860251447596012
vn -8.510810535428734e-10 -0.7071067811865476 -0.7071067811865476
vn 0.446417949635677 -0.6327365524731238 -0.6327364928684801
vn -2.4377655671023572e-9 -0.9861362665964795 -0.16593752951986837
vn 0.20860259372941234 -0.9554945889757208 -0.20860260863057364
vn 9.24307217334287e-10 -0.8391567246013382 -0.5438896869369322
vn 6.682449046289093e-10 -0.932976962214385 -0.359936088739679
vn 0.22410601630858215 -0.884150753480578 -0.4099438236807863
vn 0.4361273877506427 -0.7871377943463632 -0.436127268541355
vn 0.23356270093743903 -0.7642260562020816 -0.601171356397343
vn 0.4099438718996516 -0.8841507289241777 -0.22410602498542329
vn 0.6327365097047009 -0.6327365693093462 -0.44641790190958025
vn 0.6011712677173773 -0.764226095011826 -0.2335628022054388
vn 7.803632785949057e-10 -0.5438896449642935 -0.8391567518054149
vn 6.038692395719286e-10 -0.3599360627983659 -0.9329769722223645
vn 0.23356270093743903 -0.601171356397343 -0.7642260562020816
vn 0.22410601630858215 -0.4099438236807863 -0.884150753480578
vn 0.4361273877506427 -0.436127268541355 -0.7871377943463632
vn -2.4377655671023572e-9 -0.16593752951986837 -0.9861362665964795
vn 0.2086025801251003 -0.2086025950262617 -0.9554945949158795
vn 0.4099438718996516 -0.22410602498542329 -0.8841507289241777
vn 0.6327365097047009 -0.44641790190958025 -0.6327365693093462
vn 0.6011713036882006 -0.23356280792455525 -0.7642260649678382
vn 0.7871376876120131 -0.43612742446492225 -0.43612742446492225
vn 0.7642260181101262 -0.601171373320101 -0.2335627820179511
vn 0.8841507652908499 -0.40994382915671673 -0.22410595969748986
vn 0.7642260181101262 -0.2335627820179511 -0.601171373320101
vn 0.8841507652908499 -0.22410595969748986 -0.40994382915671673
vn 0.9554945154764671 -0.20860276950988846 -0.20860276950988846
vn -0.7071066023725875 -0.7071069600004624 1.792687029527634e-9
vn -0.16593755850157602 -0.986136261719716 -3.8710070864253575e-9
vn -0.2086026507403578 -0.9554945770954019 0.20860260603687447
vn -0.5438896449642935 -0.8391567518054149 1.791176773013512e-9
vn -0.4099438539506415 -0.8841507544889337 0.2241059569595249
vn -0.6011712528869099 -0.7642261357635566 0.2335627070366438
vn -0.3599360368570519 -0.9329769822303435 -4.4400562009521343e-10
vn -0.4361273714981677 -0.787137878406243 0.43612713307958484
vn -0.6327366232784363 -0.6327365636737915 0.4464177489218863
vn -0.2241060190465476 -0.8841507642824934 0.4099437988868608
vn -0.23356270930659886 -0.7642260835862914 0.6011713183342331
vn 0.6666666666666666 -0.3333333333333333 0.6666666666666666
vn -0.4464178373472605 -0.632736562282517 0.632736562282517
vn -0.8391567966414923 -0.5438895757875755 -6.009909721665706e-10
vn -0.7642259773583822 -0.6011713881505631 0.23356287718674493
vn -0.9329769822303435 -0.3599360368570519 5.817243485216668e-10
vn -0.8841506981984105 -0.40994388528958486 0.22410612171233232
vn -0.7871378477135321 -0.43612729488769636 0.43612726508537464
vn -0.9861362836651456 -0.1659374280838883 -3.671774092831648e-10
vn -0.95549463277414 -0.20860250087164733 0.20860250087164733
vn -0.8841506981984105 -0.22410612171233232 0.40994388528958486
vn -0.7642259499741725 -0.23356286881757796 0.6011714262136686
vn -0.6327366674381321 -0.4464177082226157 0.6327365482288454
vn -0.43612730276892747 -0.43612712395499403 0.7871379215424991
vn -0.23356268113003856 -0.6011713225188129 0.7642260889058482
vn -0.22410603046135485 -0.4099438223118035 0.8841507505280096
vn -0.6011712528869099 -0.2335627070366438 0.7642261357635566
vn -0.4099438539506415 -0.2241059569595249 0.8841507544889337
vn -0.20860262223488535 -0.20860260733372415 0.9554945830355618
vn -7.377717325951494e-10 -1 8.88639786755796e-11
vn -2.3078059672849767e-9 -0.9861362665964795 0.16593752951986837
vn 0.16593754401072225 -0.9861362641580977 3.0898401819040822e-9
vn 0.20860260798214889 -0.9554945860056413 0.20860260798214889
vn 0.3599360627983659 -0.9329769722223645 -1.740919651364467e-9
vn 0.4099438718996516 -0.8841507289241777 0.22410602498542329
vn 8.112906467125274e-10 -0.932976962214385 0.359936088739679
vn 9.24307217334287e-10 -0.8391567246013382 0.5438896869369322
vn 0.22410601630858215 -0.884150753480578 0.4099438236807863
vn 0.43612738208203095 -0.7871377841154567 0.4361272926750663
vn 0.23356270930659886 -0.7642260835862914 0.6011713183342331
vn 0.5438897561136451 -0.8391566797652508 3.5058784451068336e-9
vn 0.7071067513842252 -0.7071068109888685 -7.716908585480267e-10
vn 0.601171307872782 -0.764226070287397 0.23356277974799702
vn 0.6327365181228111 -0.6327365777274572 0.44641787804653055
vn 9.114307242817421e-10 -0.7071067811865476 0.7071067811865476
vn 0.44641796647190013 -0.6327365167315276 0.6327365167315276
vn 0.83915670696933 -0.5438897141410101 8.866154130392469e-10
vn 0.764226015450347 -0.6011713712278101 0.2335627961062304
vn 0.93297692446842 -0.3599361865795771 -3.9753241676601414e-9
vn 0.8841507652908499 -0.40994382915671673 0.22410595969748986
vn 0.7871376876120131 -0.43612742446492225 0.43612742446492225
vn 0.9861362519661865 -0.16593761646498997 -3.6202274302906273e-10
vn 0.9554945154764671 -0.20860276950988846 0.20860276950988846
vn 0.8841507652908499 -0.22410595969748986 0.40994382915671673
vn 0.7642260428345566 -0.23356280447539404 0.6011713331647003
vn 7.803632923287437e-10 -0.5438897141410101 0.83915670696933
vn 6.038692395719286e-10 -0.3599360627983659 0.9329769722223645
vn 0.23356270093743903 -0.601171356397343 0.7642260562020816
vn 0.22410601630858215 -0.4099438236807863 0.884150753480578
vn 0.4361273877506427 -0.436127268541355 0.7871377943463632
vn 0.4099438718996516 -0.22410602498542329 0.8841507289241777
vn -2.4377655671023572e-9 -0.16593752951986837 0.9861362665964795
vn 0.20860256587236342 -0.20860259567468628 0.9554945978859586
vn 0.6327364942597612 -0.4464178612103092 0.6327366134690489
vn 0.6011713036882006 -0.23356280792455525 0.7642260649678382
vn -0.7071066023725875 1.792687029527634e-9 -0.7071069600004624
vn -0.16593755850157602 -3.8710070864253575e-9 -0.986136261719716
vn -0.2086026507403578 0.20860260603687447 -0.9554945770954019
vn -0.5438896449642935 1.791176773013512e-9 -0.8391567518054149
vn -0.4099438539506415 0.2241059569595249 -0.8841507544889337
vn -0.6011712528869099 0.2335627070366438 -0.7642261357635566
vn -0.3599360368570519 -4.4400562009521343e-10 -0.9329769822303435
vn -0.4361273714981677 0.43612713307958484 -0.787137878406243
vn -0.6327366232784363 0.4464177489218863 -0.6327365636737915
vn -0.2241060190465476 0.4099437988868608 -0.8841507642824934
vn -0.23356270930659886 0.6011713183342331 -0.7642260835862914
vn -0.8391567966414923 -6.009909721665706e-10 -0.5438895757875755
vn -0.9329769999603379 -3.13477836700991e-9 -0.3599359908997815
vn -0.7642259773583822 0.23356287718674493 -0.6011713881505631
vn -0.8841507090003271 0.22410612445029954 -0.40994386049566084
vn -0.9861362836651456 -2.331210841474137e-9 -0.1659374280838883
vn -0.95549463277414 0.20860250087164733 -0.20860250087164733
vn -0.787137794346366 0.43612732814600036 -0.43612732814600036
vn -0.8841506981984105 0.40994388528958486 -0.22410612171233232
vn -0.7642259499741725 0.6011714262136686 -0.23356286881757796
vn 0.816496580927726 0.408248290463863 -0.408248290463863
vn -0.44641787804653055 0.6327365777274572 -0.6327365181228111
vn -0.6327366674381321 0.6327365482288454 -0.4464177082226157
vn -0.43612730276892747 0.7871379215424991 -0.43612712395499403
vn -0.23356268113003856 0.7642260889058482 -0.6011713225188129
vn -0.22410603046135485 0.8841507505280096 -0.4099438223118035
vn -0.6011712528869099 0.7642261357635566 -0.2335627070366438
vn -0.4099438539506415 0.8841507544889337 -0.2241059569595249
vn -0.20860262223488535 0.9554945830355618 -0.20860260733372415
vn -7.377717325951494e-10 8.88639786755796e-11 -1
vn -2.3078059672849767e-9 0.16593752951986837 -0.9861362665964795
vn 0.16593754401072225 3.0898401819040822e-9 -0.9861362641580977
vn 0.20860260798214889 0.20860260798214889 -0.9554945860056413
vn 0.3599360627983659 -1.740919651364467e-9 -0.9329769722223645
vn 0.4099438718996516 0.22410602498542329 -0.8841507289241777
vn 8.112906467125274e-10 0.359936088739679 -0.932976962214385
vn 9.24307217334287e-10 0.5438896869369322 -0.8391567246013382
vn 0.22410601630858215 0.4099438236807863 -0.884150753480578
vn 0.43612738208203095 0.4361272926750663 -0.7871377841154567
vn 0.23356270930659886 0.6011713183342331 -0.7642260835862914
vn 0.5438897561136451 3.5058784451068336e-9 -0.8391566797652508
vn 0.7071067215818992 -7.716908355612107e-10 -0.7071068407911908
vn 0.601171269809668 0.2335627881171592 -0.7642260976716057
vn 0.6327365181228111 0.44641787804653055 -0.6327365777274572
vn 0.8391566797652508 8.866153287854839e-10 -0.5438897561136451
vn 0.9329769421984243 -3.975323989236366e-9 -0.3599361406223028
vn 0.764226015450347 0.2335627961062304 -0.6011713712278101
vn 0.8841507544889337 0.2241059569595249 -0.4099438539506415
vn 0.9861362495278035 -8.37117646080707e-10 -0.1659376309558432
vn 0.9554945184465486 0.20860277015831422 -0.20860275525715308
vn 0.7871376876120131 0.43612742446492225 -0.43612742446492225
vn 0.8841507544889337 0.4099438539506415 -0.2241059569595249
vn 0.7642260428345566 0.6011713331647003 -0.23356280447539404
vn 9.114307242817421e-10 0.7071067811865476 -0.7071067811865476
vn 0.44641796647190013 0.6327365167315276 -0.6327365167315276
vn 7.803632923287437e-10 0.83915670696933 -0.5438897141410101
vn 6.038692395719286e-10 0.9329769722223645 -0.3599360627983659
vn 0.23356270093743903 0.7642260562020816 -0.601171356397343
vn 0.22410601630858215 0.884150753480578 -0.4099438236807863
vn 0.4361273877506427 0.7871377943463632 -0.436127268541355
vn 0.4099438718996516 0.8841507289241777 -0.22410602498542329
vn -2.4377655671023572e-9 0.9861362665964795 -0.16593752951986837
vn 0.20860256587236342 0.9554945978859586 -0.20860259567468628
vn 0.6327364942597612 0.6327366134690489 -0.4464178612103092
vn 0.6011713057804913 0.7642260676276176 -0.2335627938362762
vn -1 -7.377716215728469e-10 -7.377716215728469e-10
vn -0.9861362836651456 -2.331210841474137e-9 0.1659374280838883
vn -0.9861362836651456 0.1659374280838883 -2.331210841474137e-9
vn -0.95549463277414 0.20860250087164733 0.20860250087164733
vn -0.9329769822303435 1.7064051668915782e-9 0.3599360368570519
vn -0.8391567966414923 3.060116013609599e-11 0.5438895757875755
vn -0.8841507090003271 0.22410612445029954 0.40994386049566084
vn -0.7642259773583822 0.23356287718674493 0.6011713881505631
vn -0.9329769822303435 0.3599360368570519 2.162567951425914e-9
vn -0.8841507090003271 0.40994386049566084 0.22410612445029954
vn -0.8391567966414923 0.5438895757875755 3.060116013609599e-11
vn -0.7642259773583822 0.6011713881505631 0.23356287718674493
vn -0.787137794346366 0.43612732814600036 0.43612732814600036
vn -0.7071065725702652 8.849674105152505e-10 0.7071069898027682
vn -0.5438896449642935 -4.204522532690397e-9 0.8391567518054149
vn -0.6011712528869099 0.2335627070366438 0.7642261357635566
vn -0.4099438539506415 0.2241059569595249 0.8841507544889337
vn -0.3599360627983659 3.3224008384017337e-9 0.9329769722223645
vn -0.16593755850157602 -3.8710070864253575e-9 0.986136261719716
vn -0.20860263713604646 0.20860259243256285 0.9554945830355613
vn -0.6327366316965449 0.44641772505883265 0.6327365720918994
vn -0.4361273714981677 0.43612713307958484 0.787137878406243
vn -0.2241060190465476 0.4099437988868608 0.8841507642824934
vn -0.23356267276087964 0.6011713605819227 0.7642260615216379
vn -0.7071065725702652 0.7071069898027682 8.849674105152505e-10
vn -0.601171257071489 0.7642261410831136 0.23356267886008375
vn -0.5438896449642935 0.8391567518054149 -4.103500674549661e-9
vn -0.40994387874456534 0.884150743687017 0.22410595422155985
vn -0.3599360627983659 0.9329769722223645 3.3224008384017337e-9
vn -0.6327366316965449 0.6327365720918994 0.44641772505883265
vn -0.4361273714981677 0.787137878406243 0.43612713307958484
vn -0.23356267276087964 0.7642260615216379 0.6011713605819227
vn -0.2241060190465476 0.8841507642824934 0.4099437988868608
vn -0.16593755850157602 0.986136261719716 -3.8710070864253575e-9
vn -0.20860263648762162 0.9554945800654818 0.2086026066852993
vn 0.408248290463863 0.816496580927726 0.408248290463863
vn -0.44641786121031074 0.6327365538644073 0.6327365538644073
vn 1 -5.638008393482608e-10 -5.638008393482608e-10
vn 0.9861362495278035 -2.237588318413576e-9 0.1659376309558432
vn 0.9861362495278035 0.1659376309558432 -2.237588318413576e-9
vn 0.9554945154764671 0.20860276950988846 0.20860276950988846
vn 0.93297692446842 2.8139737898870093e-9 0.3599361865795771
vn 0.83915670696933 -1.005965334679248e-9 0.5438897141410101
vn 0.8841507544889337 0.2241059569595249 0.4099438539506415
vn 0.764226045494336 0.23356279038711428 0.6011713352569912
vn 0.93297692446842 0.3599361865795771 2.7800049613012458e-9
vn 0.8841507652908499 0.40994382915671673 0.22410595969748986
vn 0.83915670696933 0.5438897141410101 -7.825932863483827e-10
vn 0.7642260207699052 0.6011713754123916 0.23356276792967165
vn 0.7871376876120123 0.4361273946625995 0.4361274542672443
vn 0.3599360627983659 -8.11794030540533e-10 0.9329769722223645
vn 0.4099438718996516 0.22410602498542329 0.8841507289241777
vn -7.377717325951494e-10 8.88639786755796e-11 1
vn -2.3078059672849767e-9 0.16593752951986837 0.9861362665964795
vn 0.16593754401072225 3.0898401819040822e-9 0.9861362641580977
vn 0.2086025801251003 0.2086025950262617 0.9554945949158795
vn 8.112906467125274e-10 0.359936088739679 0.932976962214385
vn 5.741805398309578e-10 0.5438896449642935 0.8391567518054149
vn 0.22410601630858215 0.4099438236807863 0.884150753480578
vn 0.4361273877506427 0.436127268541355 0.7871377943463632
vn 0.23356270930659886 0.6011713183342331 0.7642260835862914
vn 0.7071067215818992 9.387014659692326e-10 0.7071068407911908
vn 0.5438897561136451 -3.2017215259523157e-9 0.8391566797652508
vn 0.6011713057804913 0.2335627938362762 0.7642260676276176
vn 0.6327364942597612 0.4464178612103092 0.6327366134690489
vn 0.3599360627983659 0.9329769722223645 -8.11794030540533e-10
vn 0.4099438718996516 0.8841507289241777 0.22410602498542329
vn 6.038692395719286e-10 0.9329769722223645 0.3599360627983659
vn 5.741805499361265e-10 0.83915670696933 0.5438897141410101
vn 0.23356270930659886 0.7642260835862914 0.6011713183342331
vn 0.22410601630858215 0.884150753480578 0.4099438236807863
vn 0.4361273877506427 0.7871377943463632 0.436127268541355
vn -7.377717325951494e-10 1 8.88639786755796e-11
vn -2.3078059672849767e-9 0.9861362665964795 0.16593752951986837
vn 0.16593754401072225 0.9861362641580977 3.0898401819040822e-9
vn 0.2086025801251003 0.9554945949158795 0.2086025950262617
vn 0.7071067215818992 0.7071068407911908 8.132687440561495e-10
vn 0.601171307872782 0.764226070287397 0.23356277974799702
vn 0.5438897561136451 0.8391566797652508 -3.461967792607441e-9
vn 0.6327364942597612 0.6327366134690489 0.4464178612103092
vn 9.387009108577141e-10 0.7071067811865476 0.7071067811865476
vn 0.44641796647190013 0.6327365167315276 0.6327365167315276
f 1//1 5//5 2//2
f 1//1 3//3 5//5
f 1//1 2//2 4//4
f 2//2 66//66 4//4
f 2//2 5//5 66//66
f 1//1 4//4 3//3
f 3//3 140//140 5//5
f 3//3 220//220 140//140
f 3//3 4//4 220//220
f 4//4 66//66 220//220
f 5//5 140//140 66//66
f 66//66 140//140 220//220
f 6//6 16//16 11//11
f 11//11 16//16 27//27
f 22//22 13//13 55//55
f 7//7 29//29 56//56
f 7//7 56//56 61//61
f 9//9 6//6 8//8
f 13//13 9//9 8//8
f 11//11 10//10 8//8
f 11//11 31//31 10//10
f 8//8 10//10 12//12
f 10//10 32//32 7//7
f 6//6 11//11 8//8
f 13//13 8//8 12//12
f 12//12 61//61 58//58
f 13//13 12//12 58//58
f 22//22 9//9 13//13
f 13//13 58//58 55//55
f 12//12 10//10 7//7
f 12//12 7//7 61//61
f 24//24 120//120 20//20
f 15//15 14//14 6//6
f 15//15 20//20 14//14
f 16//16 14//14 17//17
f 16//16 17//17 39//39
f 6//6 14//14 16//16
f 14//14 19//19 17//17
f 17//17 18//18 40//40
f 18//18 121//121 44//44
f 18//18 126//126 121//121
f 20//20 19//19 14//14
f 24//24 20//20 15//15
f 20//20 123//123 19//19
f 19//19 123//123 126//126
f 20//20 120//120 123//123
f 19//19 18//18 17//17
f 19//19 126//126 18//18
f 9//9 21//21 15//15
f 22//22 21//21 9//9
f 24//24 15//15 21//21
f 21//21 23//23 25//25
f 22//22 23//23 21//21
f 22//22 68//68 23//23
f 22//22 55//55 68//68
f 23//23 68//68 70//70
f 23//23 70//70 26//26
f 24//24 21//21 25//25
f 24//24 25//25 131//131
f 24//24 131//131 120//120
f 25//25 26//26 132//132
f 25//25 132//132 131//131
f 26//26 73//73 135//135
f 73//73 185//185 135//135
f 23//23 26//26 25//25
f 26//26 70//70 73//73
f 26//26 135//135 132//132
f 9//9 15//15 6//6
f 35//35 27//27 41//41
f 35//35 41//41 28//28
f 7//7 32//32 29//29
f 32//32 30//30 29//29
f 56//56 29//29 84//84
f 29//29 30//30 86//86
f 29//29 86//86 84//84
f 30//30 88//88 86//86
f 31//31 35//35 33//33
f 10//10 31//31 32//32
f 31//31 33//33 32//32
f 32//32 33//33 30//30
f 11//11 27//27 31//31
f 31//31 27//27 35//35
f 35//35 34//34 33//33
f 33//33 34//34 36//36
f 35//35 28//28 34//34
f 33//33 36//36 30//30
f 30//30 36//36 88//88
f 28//28 37//37 34//34
f 34//34 37//37 38//38
f 34//34 38//38 36//36
f 36//36 95//95 88//88
f 36//36 38//38 95//95
f 38//38 37//37 50//50
f 38//38 96//96 95//95
f 38//38 50//50 96//96
f 39//39 42//42 41//41
f 16//16 39//39 27//27
f 39//39 41//41 27//27
f 17//17 40//40 39//39
f 39//39 40//40 42//42
f 40//40 45//45 42//42
f 41//41 42//42 43//43
f 41//41 43//43 28//28
f 42//42 46//46 43//43
f 18//18 44//44 40//40
f 40//40 44//44 45//45
f 121//121 149//149 44//44
f 44//44 151//151 45//45
f 44//44 149//149 151//151
f 45//45 151//151 153//153
f 42//42 45//45 46//46
f 45//45 153//153 46//46
f 28//28 43//43 47//47
f 43//43 48//48 47//47
f 43//43 46//46 48//48
f 47//47 48//48 52//52
f 46//46 160//160 48//48
f 46//46 153//153 160//160
f 48//48 161//161 52//52
f 48//48 160//160 161//161
f 28//28 47//47 37//37
f 37//37 47//47 49//49
f 37//37 49//49 50//50
f 47//47 52//52 49//49
f 49//49 53//53 51//51
f 50//50 49//49 51//51
f 50//50 101//101 96//96
f 50//50 51//51 101//101
f 51//51 103//103 101//101
f 51//51 54//54 103//103
f 52//52 53//53 49//49
f 52//52 164//164 53//53
f 52//52 161//161 164//164
f 53//53 165//165 54//54
f 53//53 164//164 165//165
f 51//51 53//53 54//54
f 54//54 106//106 103//103
f 54//54 165//165 168//168
f 54//54 168//168 106//106
f 106//106 168//168 222//222
f 69//69 55//55 60//60
f 61//61 56//56 57//57
f 56//56 85//85 57//57
f 58//58 61//61 59//59
f 58//58 59//59 60//60
f 60//60 59//59 62//62
f 58//58 60//60 55//55
f 69//69 60//60 63//63
f 61//61 57//57 59//59
f 59//59 57//57 64//64
f 60//60 62//62 63//63
f 63//63 62//62 67//67
f 59//59 64//64 62//62
f 57//57 90//90 64//64
f 62//62 64//64 65//65
f 64//64 91//91 65//65
f 62//62 65//65 67//67
f 67//67 65//65 79//79
f 65//65 99//99 79//79
f 68//68 69//69 71//71
f 68//68 55//55 69//69
f 69//69 72//72 71//71
f 68//68 71//71 70//70
f 70//70 71//71 74//74
f 69//69 63//63 72//72
f 63//63 77//77 72//72
f 71//71 72//72 75//75
f 72//72 77//77 76//76
f 73//73 74//74 186//186
f 73//73 186//186 185//185
f 70//70 74//74 73//73
f 71//71 75//75 74//74
f 74//74 189//189 186//186
f 72//72 76//76 75//75
f 74//74 75//75 189//189
f 75//75 190//190 189//189
f 75//75 76//76 190//190
f 76//76 198//198 190//190
f 63//63 67//67 77//77
f 76//76 81//81 198//198
f 77//77 67//67 78//78
f 77//77 78//78 81//81
f 67//67 79//79 78//78
f 79//79 80//80 78//78
f 79//79 110//110 80//80
f 78//78 80//80 82//82
f 80//80 111//111 83//83
f 76//76 77//77 81//81
f 81//81 78//78 82//82
f 81//81 199//199 198//198
f 81//81 82//82 199//199
f 82//82 202//202 199//199
f 82//82 80//80 83//83
f 82//82 83//83 202//202
f 83//83 116//116 203//203
f 83//83 203//203 202//202
f 56//56 84//84 85//85
f 84//84 86//86 85//85
f 85//85 86//86 87//87
f 57//57 85//85 90//90
f 85//85 87//87 90//90
f 86//86 88//88 87//87
f 87//87 88//88 89//89
f 87//87 89//89 92//92
f 64//64 90//90 91//91
f 87//87 92//92 90//90
f 90//90 92//92 91//91
f 92//92 94//94 91//91
f 65//65 91//91 99//99
f 91//91 94//94 99//99
f 92//92 89//89 93//93
f 92//92 93//93 94//94
f 93//93 100//100 94//94
f 88//88 95//95 89//89
f 89//89 95//95 97//97
f 89//89 97//97 93//93
f 95//95 96//96 97//97
f 97//97 96//96 102//102
f 97//97 102//102 98//98
f 93//93 97//97 98//98
f 93//93 98//98 100//100
f 94//94 112//112 99//99
f 94//94 100//100 112//112
f 96//96 101//101 102//102
f 101//101 104//104 102//102
f 102//102 104//104 105//105
f 101//101 103//103 104//104
f 103//103 107//107 104//104
f 100//100 98//98 118//118
f 98//98 105//105 118//118
f 98//98 102//102 105//105
f 104//104 108//108 105//105
f 105//105 109//109 118//118
f 103//103 106//106 107//107
f 104//104 107//107 108//108
f 106//106 223//223 107//107
f 106//106 222//222 223//223
f 107//107 223//223 226//226
f 105//105 108//108 109//109
f 107//107 226//226 108//108
f 108//108 226//226 227//227
f 108//108 227//227 109//109
f 109//109 227//227 246//246
f 79//79 99//99 110//110
f 99//99 112//112 110//110
f 110//110 112//112 113//113
f 80//80 110//110 111//111
f 110//110 113//113 111//111
f 111//111 113//113 117//117
f 112//112 100//100 114//114
f 112//112 114//114 113//113
f 113//113 114//114 115//115
f 113//113 115//115 117//117
f 117//117 115//115 235//235
f 83//83 111//111 116//116
f 111//111 117//117 116//116
f 203//203 116//116 237//237
f 116//116 117//117 239//239
f 116//116 239//239 237//237
f 117//117 235//235 239//239
f 100//100 118//118 114//114
f 114//114 118//118 119//119
f 118//118 109//109 119//119
f 114//114 119//119 115//115
f 119//119 109//109 246//246
f 119//119 246//246 247//247
f 115//115 119//119 247//247
f 115//115 247//247 235//235
f 133//133 125//125 120//120
f 126//126 122//122 121//121
f 121//121 122//122 150//150
f 123//123 124//124 126//126
f 123//123 125//125 124//124
f 123//123 120//120 125//125
f 125//125 127//127 124//124
f 133//133 128//128 125//125
f 126//126 124//124 122//122
f 124//124 129//129 122//122
f 125//125 128//128 127//127
f 128//128 141//141 127//127
f 124//124 127//127 129//129
f 122//122 129//129 155//155
f 127//127 130//130 129//129
f 129//129 130//130 156//156
f 127//127 141//141 130//130
f 131//131 134//134 133//133
f 131//131 133//133 120//120
f 131//131 132//132 134//134
f 132//132 136//136 134//134
f 133//133 134//134 137//137
f 135//135 185//185 187//187
f 135//135 187//187 136//136
f 132//132 135//135 136//136
f 134//134 136//136 138//138
f 136//136 187//187 193//193
f 133//133 137//137 128//128
f 134//134 138//138 137//137
f 128//128 137//137 142//142
f 137//137 139//139 142//142
f 136//136 193//193 138//138
f 138//138 193//193 195//195
f 137//137 138//138 139//139
f 138//138 195//195 139//139
f 139//139 195//195 209//209
f 128//128 142//142 141//141
f 141//141 144//144 130//130
f 130//130 144//144 173//173
f 139//139 209//209 146//146
f 142//142 143//143 141//141
f 142//142 146//146 143//143
f 141//141 143//143 144//144
f 144//144 143//143 145//145
f 144//144 145//145 175//175
f 143//143 147//147 145//145
f 145//145 148//148 176//176
f 139//139 146//146 142//142
f 146//146 209//209 211//211
f 146//146 147//147 143//143
f 146//146 211//211 147//147
f 147//147 211//211 213//213
f 147//147 148//148 145//145
f 147//147 213//213 148//148
f 148//148 218//218 181//181
f 148//148 213//213 218//218
f 121//121 150//150 149//149
f 149//149 150//150 151//151
f 150//150 152//152 151//151
f 122//122 155//155 150//150
f 150//150 155//155 152//152
f 151//151 152//152 153//153
f 152//152 154//154 153//153
f 152//152 157//157 154//154
f 129//129 156//156 155//155
f 152//152 155//155 157//157
f 155//155 156//156 157//157
f 157//157 156//156 159//159
f 130//130 173//173 156//156
f 156//156 173//173 159//159
f 157//157 158//158 154//154
f 157//157 159//159 158//158
f 158//158 159//159 174//174
f 153//153 154//154 160//160
f 154//154 162//162 160//160
f 160//160 162//162 161//161
f 162//162 166//166 161//161
f 154//154 158//158 162//162
f 162//162 163//163 166//166
f 158//158 163//163 162//162
f 158//158 174//174 163//163
f 161//161 166//166 164//164
f 164//164 166//166 167//167
f 164//164 167//167 165//165
f 165//165 167//167 169//169
f 166//166 170//170 167//167
f 165//165 169//169 168//168
f 168//168 224//224 222//222
f 168//168 169//169 224//224
f 167//167 171//171 169//169
f 169//169 230//230 224//224
f 174//174 183//183 163//163
f 163//163 183//183 170//170
f 163//163 170//170 166//166
f 167//167 170//170 171//171
f 170//170 183//183 172//172
f 169//169 171//171 230//230
f 171//171 232//232 230//230
f 170//170 172//172 171//171
f 171//171 172//172 232//232
f 172//172 261//261 232//232
f 159//159 173//173 177//177
f 159//159 177//177 174//174
f 144//144 175//175 173//173
f 173//173 175//175 177//177
f 175//175 178//178 177//177
f 145//145 176//176 175//175
f 175//175 176//176 178//178
f 176//176 182//182 178//178
f 177//177 179//179 174//174
f 177//177 178//178 179//179
f 178//178 180//180 179//179
f 178//178 182//182 180//180
f 182//182 250//250 180//180
f 148//148 181//181 176//176
f 176//176 181//181 182//182
f 218//218 257//257 181//181
f 181//181 259//259 182//182
f 181//181 257//257 259//259
f 182//182 259//259 250//250
f 174//174 179//179 183//183
f 179//179 184//184 183//183
f 183//183 184//184 172//172
f 184//184 261//261 172//172
f 184//184 263//263 261//261
f 179//179 180//180 184//184
f 180//180 263//263 184//184
f 180//180 250//250 263//263
f 186//186 187//187 185//185
f 186//186 188//188 187//187
f 186//186 189//189 188//188
f 187//187 188//188 193//193
f 188//188 191//191 194//194
f 189//189 190//190 191//191
f 188//188 189//189 191//191
f 191//191 190//190 192//192
f 190//190 198//198 192//192
f 191//191 192//192 197//197
f 188//188 194//194 193//193
f 193//193 194//194 195//195
f 194//194 196//196 195//195
f 195//195 196//196 209//209
f 194//194 197//197 196//196
f 191//191 197//197 194//194
f 197//197 192//192 205//205
f 197//197 214//214 196//196
f 197//197 205//205 214//214
f 205//205 221//221 214//214
f 192//192 198//198 200//200
f 198//198 199//199 200//200
f 199//199 202//202 201//201
f 199//199 201//201 200//200
f 192//192 200//200 205//205
f 200//200 201//201 206//206
f 202//202 204//204 201//201
f 201//201 204//204 207//207
f 202//202 203//203 204//204
f 203//203 238//238 204//204
f 200//200 206//206 205//205
f 205//205 206//206 221//221
f 201//201 207//207 206//206
f 204//204 241//241 207//207
f 206//206 208//208 221//221
f 206//206 207//207 208//208
f 207//207 242//242 208//208
f 196//196 210//210 209//209
f 209//209 210//210 211//211
f 196//196 214//214 210//210
f 211//211 210//210 212//212
f 211//211 212//212 213//213
f 210//210 215//215 212//212
f 213//213 212//212 219//219
f 212//212 217//217 219//219
f 214//214 215//215 210//210
f 214//214 221//221 215//215
f 215//215 221//221 216//216
f 212//212 215//215 217//217
f 219//219 217//217 252//252
f 215//215 216//216 217//217
f 217//217 216//216 253//253
f 213//213 219//219 218//218
f 218//218 219//219 258//258
f 221//221 208//208 216//216
f 208//208 265//265 216//216
f 222//222 224//224 223//223
f 223//223 224//224 225//225
f 223//223 225//225 226//226
f 224//224 230//230 225//225
f 225//225 231//231 228//228
f 226//226 228//228 227//227
f 225//225 228//228 226//226
f 246//246 227//227 229//229
f 228//228 229//229 227//227
f 228//228 234//234 229//229
f 225//225 230//230 231//231
f 230//230 232//232 231//231
f 231//231 232//232 233//233
f 261//261 233//233 232//232
f 231//231 233//233 234//234
f 266//266 249//249 264//264
f 234//234 264//264 249//249
f 228//228 231//231 234//234
f 234//234 249//249 229//229
f 234//234 233//233 264//264
f 240//240 235//235 236//236
f 240//240 236//236 243//243
f 203//203 237//237 238//238
f 237//237 239//239 238//238
f 238//238 239//239 240//240
f 204//204 238//238 241//241
f 238//238 240//240 241//241
f 239//239 235//235 240//240
f 207//207 241//241 242//242
f 240//240 243//243 241//241
f 241//241 243//243 242//242
f 208//208 242//242 265//265
f 265//265 242//242 245//245
f 243//243 245//245 242//242
f 243//243 236//236 244//244
f 244//244 266//266 245//245
f 243//243 244//244 245//245
f 246//246 248//248 247//247
f 246//246 229//229 248//248
f 235//235 247//247 236//236
f 236//236 247//247 248//248
f 248//248 229//229 249//249
f 236//236 248//248 244//244
f 244//244 248//248 249//249
f 244//244 249//249 266//266
f 260//260 251//251 250//250
f 260//260 255//255 251//251
f 216//216 265//265 253//253
f 265//265 254//254 253//253
f 217//217 253//253 252//252
f 260//260 252//252 255//255
f 252//252 253//253 255//255
f 255//255 253//253 254//254
f 256//256 254//254 266//266
f 255//255 256//256 251//251
f 255//255 254//254 256//256
f 218//218 258//258 257//257
f 257//257 258//258 259//259
f 258//258 260//260 259//259
f 219//219 252//252 258//258
f 258//258 252//252 260//260
f 259//259 260//260 250//250
f 261//261 262//262 233//233
f 261//261 263//263 262//262
f 264//264 233//233 262//262
f 251//251 262//262 263//263
f 250//250 251//251 263//263
f 251//251 256//256 262//262
f 256//256 264//264 262//262
f 256//256 266//266 264//264
f 265//265 245//245 254//254
f 245//245 266//266 254//254
