ply
format ascii 1.0
element vertex 266
property float x
property float y
property float z
property float nx
property float ny
property float nz
element face 524
property list uchar int vertex_index
end_header
-10 -10 -10 -0.816496580927726 -0.408248290463863 -0.408248290463863
-10 -10 10 -0.408248290463863 -0.816496580927726 0.408248290463863
-10 10 -10 -0.3333333333333333 0.6666666666666666 -0.6666666666666666
-10 10 10 -0.6666666666666666 0.3333333333333333 0.6666666666666666
10 -10 -10 0.3333333333333333 -0.6666666666666666 -0.6666666666666666
14.496917724609375 -5.085686683654785 -5.085686683654785 -0.4464178373472605 -0.632736562282517 -0.632736562282517
16.381322860717773 -7.665491580963135 -1.6186777353286743 -0.20860262288331008 -0.9554945860056411 -0.2086025930809876
14.561869621276855 -6.3528361320495605 -3.4381299018859863 -0.43612730276892747 -0.7871379215424991 -0.43612712395499403
12.914313316345215 -5.085686683654785 -3.503081798553467 -0.6327366232784363 -0.6327365636737915 -0.4464177489218863
16.332324981689453 -7.107581615447998 -3.2712604999542236 -0.22410603046135485 -0.8841507505280096 -0.4099438223118035
16.30388069152832 -6.147597789764404 -4.830136775970459 -0.23356268113003856 -0.7642260889058482 -0.6011713225188129
14.728739738464355 -7.107581615447998 -1.66767418384552 -0.4099438539506415 -0.8841507544889337 -0.2241059569595249
13.1698637008667 -6.147597789764404 -1.6961184740066528 -0.6011712528869099 -0.7642261357635566 -0.2335627070366438
14.561869621276855 -3.4381299018859863 -6.3528361320495605 -0.43612730276892747 -0.43612712395499403 -0.7871379215424991
12.914313316345215 -3.503081798553467 -5.085686683654785 -0.6327366232784363 -0.4464177489218863 -0.6327365636737915
16.30388069152832 -4.830136775970459 -6.147597789764404 -0.23356268113003856 -0.6011713225188129 -0.7642260889058482
16.332324981689453 -3.2712604999542236 -7.107581615447998 -0.22410603046135485 -0.4099438223118035 -0.8841507505280096
16.381322860717773 -1.6186777353286743 -7.665491580963135 -0.20860263648762162 -0.2086026066852993 -0.9554945800654818
14.728739738464355 -1.66767418384552 -7.107581615447998 -0.4099438539506415 -0.2241059569595249 -0.8841507544889337
13.1698637008667 -1.6961184740066528 -6.147597789764404 -0.6011712549791995 -0.23356269294836388 -0.7642261384233352
11.647164344787598 -3.4381299018859863 -3.4381299018859863 -0.7871378477135321 -0.43612726508537464 -0.43612729488769636
11.852401733398438 -4.830136775970459 -1.6961184740066528 -0.7642260021514491 -0.6011713607663542 -0.2335628665476248
10.892417907714844 -3.2712604999542236 -1.66767418384552 -0.8841506981984105 -0.40994388528958486 -0.22410612171233232
11.852401733398438 -1.6961184740066528 -4.830136775970459 -0.7642260021514491 -0.2335628665476248 -0.6011713607663542
10.892417907714844 -1.66767418384552 -3.2712604999542236 -0.8841506981984105 -0.22410612171233232 -0.40994388528958486
10.334507942199707 -1.6186777353286743 -1.6186777353286743 -0.9554946268339837 -0.20860251447596012 -0.20860251447596012
18 -5.656854152679443 -5.656854152679443 -8.510810535428734e-10 -0.7071067811865476 -0.7071067811865476
21.503082275390625 -5.085686683654785 -5.085686683654785 0.446417949635677 -0.6327365524731238 -0.6327364928684801
18 -7.846282005310059 -1.5607225894927979 -2.4377655671023572e-9 -0.9861362665964795 -0.16593752951986837
19.618677139282227 -7.665491580963135 -1.6186777353286743 0.20860259372941234 -0.9554945889757208 -0.20860260863057364
18 -6.651756763458252 -4.444561958312988 9.24307217334287e-10 -0.8391567246013382 -0.5438896869369322
18 -7.391036033630371 -3.061467409133911 6.682449046289093e-10 -0.932976962214385 -0.359936088739679
19.667675018310547 -7.107581615447998 -3.2712604999542236 0.22410601630858215 -0.884150753480578 -0.4099438236807863
21.438129425048828 -6.3528361320495605 -3.4381299018859863 0.4361273877506427 -0.7871377943463632 -0.436127268541355
19.69611930847168 -6.147597789764404 -4.830136775970459 0.23356270093743903 -0.7642260562020816 -0.601171356397343
21.27126121520996 -7.107581615447998 -1.66767418384552 0.4099438718996516 -0.8841507289241777 -0.22410602498542329
23.08568572998047 -5.085686683654785 -3.503081798553467 0.6327365097047009 -0.6327365693093462 -0.44641790190958025
22.830137252807617 -6.147597789764404 -1.6961184740066528 0.6011712677173773 -0.764226095011826 -0.2335628022054388
18 -4.444561958312988 -6.651756763458252 7.803632785949057e-10 -0.5438896449642935 -0.8391567518054149
18 -3.061467409133911 -7.391036033630371 6.038692395719286e-10 -0.3599360627983659 -0.9329769722223645
19.69611930847168 -4.830136775970459 -6.147597789764404 0.23356270093743903 -0.601171356397343 -0.7642260562020816
19.667675018310547 -3.2712604999542236 -7.107581615447998 0.22410601630858215 -0.4099438236807863 -0.884150753480578
21.438129425048828 -3.4381299018859863 -6.3528361320495605 0.4361273877506427 -0.436127268541355 -0.7871377943463632
18 -1.5607225894927979 -7.846282005310059 -2.4377655671023572e-9 -0.16593752951986837 -0.9861362665964795
19.618677139282227 -1.6186777353286743 -7.665491580963135 0.2086025801251003 -0.2086025950262617 -0.9554945949158795
21.27126121520996 -1.66767418384552 -7.107581615447998 0.4099438718996516 -0.22410602498542329 -0.8841507289241777
23.08568572998047 -3.503081798553467 -5.085686683654785 0.6327365097047009 -0.44641790190958025 -0.6327365693093462
22.830137252807617 -1.6961184740066528 -6.147597789764404 0.6011713036882006 -0.23356280792455525 -0.7642260649678382
24.35283660888672 -3.4381299018859863 -3.4381299018859863 0.7871376876120131 -0.43612742446492225 -0.43612742446492225
24.147598266601562 -4.830136775970459 -1.6961184740066528 0.7642260181101262 -0.601171373320101 -0.2335627820179511
25.107582092285156 -3.2712604999542236 -1.66767418384552 0.8841507652908499 -0.40994382915671673 -0.22410595969748986
24.147598266601562 -1.6961184740066528 -4.830136775970459 0.7642260181101262 -0.2335627820179511 -0.601171373320101
25.107582092285156 -1.66767418384552 -3.2712604999542236 0.8841507652908499 -0.22410595969748986 -0.40994382915671673
25.665491104125977 -1.6186777353286743 -1.6186777353286743 0.9554945154764671 -0.20860276950988846 -0.20860276950988846
12.343145370483398 -5.656854152679443 4.898587410340671e-16 -0.7071066023725875 -0.7071069600004624 1.792687029527634e-9
16.43927764892578 -7.846282005310059 4.898587410340671e-16 -0.16593755850157602 -0.986136261719716 -3.8710070864253575e-9
16.381322860717773 -7.665491580963135 1.6186777353286743 -0.2086026507403578 -0.9554945770954019 0.20860260603687447
13.555438041687012 -6.651756763458252 4.898587410340671e-16 -0.5438896449642935 -0.8391567518054149 1.791176773013512e-9
14.728739738464355 -7.107581615447998 1.66767418384552 -0.4099438539506415 -0.8841507544889337 0.2241059569595249
13.1698637008667 -6.147597789764404 1.6961184740066528 -0.6011712528869099 -0.7642261357635566 0.2335627070366438
14.938532829284668 -7.391036033630371 4.898587410340671e-16 -0.3599360368570519 -0.9329769822303435 -4.4400562009521343e-10
14.561869621276855 -6.3528361320495605 3.4381299018859863 -0.4361273714981677 -0.787137878406243 0.43612713307958484
12.914313316345215 -5.085686683654785 3.503081798553467 -0.6327366232784363 -0.6327365636737915 0.4464177489218863
16.332324981689453 -7.107581615447998 3.2712604999542236 -0.2241060190465476 -0.8841507642824934 0.4099437988868608
16.30388069152832 -6.147597789764404 4.830136775970459 -0.23356270930659886 -0.7642260835862914 0.6011713183342331
10 -10 10 0.6666666666666666 -0.3333333333333333 0.6666666666666666
14.496917724609375 -5.085686683654785 5.085686683654785 -0.4464178373472605 -0.632736562282517 0.632736562282517
11.34824275970459 -4.444561958312988 4.898587410340671e-16 -0.8391567966414923 -0.5438895757875755 -6.009909721665706e-10
11.852401733398438 -4.830136775970459 1.6961184740066528 -0.7642259773583822 -0.6011713881505631 0.23356287718674493
10.608963966369629 -3.061467409133911 4.898587410340671e-16 -0.9329769822303435 -0.3599360368570519 5.817243485216668e-10
10.892417907714844 -3.2712604999542236 1.66767418384552 -0.8841506981984105 -0.40994388528958486 0.22410612171233232
11.647164344787598 -3.4381299018859863 3.4381299018859863 -0.7871378477135321 -0.43612729488769636 0.43612726508537464
10.153717994689941 -1.5607225894927979 4.898587410340671e-16 -0.9861362836651456 -0.1659374280838883 -3.671774092831648e-10
10.334507942199707 -1.6186777353286743 1.6186777353286743 -0.95549463277414 -0.20860250087164733 0.20860250087164733
10.892417907714844 -1.66767418384552 3.2712604999542236 -0.8841506981984105 -0.22410612171233232 0.40994388528958486
11.852401733398438 -1.6961184740066528 4.830136775970459 -0.7642259499741725 -0.23356286881757796 0.6011714262136686
12.914313316345215 -3.503081798553467 5.085686683654785 -0.6327366674381321 -0.4464177082226157 0.6327365482288454
14.561869621276855 -3.4381299018859863 6.3528361320495605 -0.43612730276892747 -0.43612712395499403 0.7871379215424991
16.30388069152832 -4.830136775970459 6.147597789764404 -0.23356268113003856 -0.6011713225188129 0.7642260889058482
16.332324981689453 -3.2712604999542236 7.107581615447998 -0.22410603046135485 -0.4099438223118035 0.8841507505280096
13.1698637008667 -1.6961184740066528 6.147597789764404 -0.6011712528869099 -0.2335627070366438 0.7642261357635566
14.728739738464355 -1.66767418384552 7.107581615447998 -0.4099438539506415 -0.2241059569595249 0.8841507544889337
16.381322860717773 -1.6186777353286743 7.665491580963135 -0.20860262223488535 -0.20860260733372415 0.9554945830355618
18 -8 4.898587410340671e-16 -7.377717325951494e-10 -1 8.88639786755796e-11
18 -7.846282005310059 1.5607225894927979 -2.3078059672849767e-9 -0.9861362665964795 0.16593752951986837
19.56072235107422 -7.846282005310059 4.898587410340671e-16 0.16593754401072225 -0.9861362641580977 3.0898401819040822e-9
19.618677139282227 -7.665491580963135 1.6186777353286743 0.20860260798214889 -0.9554945860056413 0.20860260798214889
21.06146812438965 -7.391036033630371 4.898587410340671e-16 0.3599360627983659 -0.9329769722223645 -1.740919651364467e-9
21.27126121520996 -7.107581615447998 1.66767418384552 0.4099438718996516 -0.8841507289241777 0.22410602498542329
18 -7.391036033630371 3.061467409133911 8.112906467125274e-10 -0.932976962214385 0.359936088739679
18 -6.651756763458252 4.444561958312988 9.24307217334287e-10 -0.8391567246013382 0.5438896869369322
19.667675018310547 -7.107581615447998 3.2712604999542236 0.22410601630858215 -0.884150753480578 0.4099438236807863
21.438129425048828 -6.3528361320495605 3.4381299018859863 0.43612738208203095 -0.7871377841154567 0.4361272926750663
19.69611930847168 -6.147597789764404 4.830136775970459 0.23356270930659886 -0.7642260835862914 0.6011713183342331
22.444561004638672 -6.651756763458252 4.898587410340671e-16 0.5438897561136451 -0.8391566797652508 3.5058784451068336e-9
23.6568546295166 -5.656854152679443 4.898587410340671e-16 0.7071067513842252 -0.7071068109888685 -7.716908585480267e-10
22.830137252807617 -6.147597789764404 1.6961184740066528 0.601171307872782 -0.764226070287397 0.23356277974799702
23.08568572998047 -5.085686683654785 3.503081798553467 0.6327365181228111 -0.6327365777274572 0.44641787804653055
18 -5.656854152679443 5.656854152679443 9.114307242817421e-10 -0.7071067811865476 0.7071067811865476
21.503082275390625 -5.085686683654785 5.085686683654785 0.44641796647190013 -0.6327365167315276 0.6327365167315276
24.651756286621094 -4.444561958312988 4.898587410340671e-16 0.83915670696933 -0.5438897141410101 8.866154130392469e-10
24.147598266601562 -4.830136775970459 1.6961184740066528 0.764226015450347 -0.6011713712278101 0.2335627961062304
25.391036987304688 -3.061467409133911 4.898587410340671e-16 0.93297692446842 -0.3599361865795771 -3.9753241676601414e-9
25.107582092285156 -3.2712604999542236 1.66767418384552 0.8841507652908499 -0.40994382915671673 0.22410595969748986
24.35283660888672 -3.4381299018859863 3.4381299018859863 0.7871376876120131 -0.43612742446492225 0.43612742446492225
25.846282958984375 -1.5607225894927979 4.898587410340671e-16 0.9861362519661865 -0.16593761646498997 -3.6202274302906273e-10
25.665491104125977 -1.6186777353286743 1.6186777353286743 0.9554945154764671 -0.20860276950988846 0.20860276950988846
25.107582092285156 -1.66767418384552 3.2712604999542236 0.8841507652908499 -0.22410595969748986 0.40994382915671673
24.147598266601562 -1.6961184740066528 4.830136775970459 0.7642260428345566 -0.23356280447539404 0.6011713331647003
18 -4.444561958312988 6.651756763458252 7.803632923287437e-10 -0.5438897141410101 0.83915670696933
18 -3.061467409133911 7.391036033630371 6.038692395719286e-10 -0.3599360627983659 0.9329769722223645
19.69611930847168 -4.830136775970459 6.147597789764404 0.23356270093743903 -0.601171356397343 0.7642260562020816
19.667675018310547 -3.2712604999542236 7.107581615447998 0.22410601630858215 -0.4099438236807863 0.884150753480578
21.438129425048828 -3.4381299018859863 6.3528361320495605 0.4361273877506427 -0.436127268541355 0.7871377943463632
21.27126121520996 -1.66767418384552 7.107581615447998 0.4099438718996516 -0.22410602498542329 0.8841507289241777
18 -1.5607225894927979 7.846282005310059 -2.4377655671023572e-9 -0.16593752951986837 0.9861362665964795
19.618677139282227 -1.6186777353286743 7.665491580963135 0.20860256587236342 -0.20860259567468628 0.9554945978859586
23.08568572998047 -3.503081798553467 5.085686683654785 0.6327364942597612 -0.4464178612103092 0.6327366134690489
22.830137252807617 -1.6961184740066528 6.147597789764404 0.6011713036882006 -0.23356280792455525 0.7642260649678382
12.343145370483398 4.898587410340671e-16 -5.656854152679443 -0.7071066023725875 1.792687029527634e-9 -0.7071069600004624
16.43927764892578 4.898587410340671e-16 -7.846282005310059 -0.16593755850157602 -3.8710070864253575e-9 -0.986136261719716
16.381322860717773 1.6186777353286743 -7.665491580963135 -0.2086026507403578 0.20860260603687447 -0.9554945770954019
13.555438041687012 4.898587410340671e-16 -6.651756763458252 -0.5438896449642935 1.791176773013512e-9 -0.8391567518054149
14.728739738464355 1.66767418384552 -7.107581615447998 -0.4099438539506415 0.2241059569595249 -0.8841507544889337
13.1698637008667 1.6961184740066528 -6.147597789764404 -0.6011712528869099 0.2335627070366438 -0.7642261357635566
14.938532829284668 4.898587410340671e-16 -7.391036033630371 -0.3599360368570519 -4.4400562009521343e-10 -0.9329769822303435
14.561869621276855 3.4381299018859863 -6.3528361320495605 -0.4361273714981677 0.43612713307958484 -0.787137878406243
12.914313316345215 3.503081798553467 -5.085686683654785 -0.6327366232784363 0.4464177489218863 -0.6327365636737915
16.332324981689453 3.2712604999542236 -7.107581615447998 -0.2241060190465476 0.4099437988868608 -0.8841507642824934
16.30388069152832 4.830136775970459 -6.147597789764404 -0.23356270930659886 0.6011713183342331 -0.7642260835862914
11.34824275970459 4.898587410340671e-16 -4.444561958312988 -0.8391567966414923 -6.009909721665706e-10 -0.5438895757875755
10.608963966369629 4.898587410340671e-16 -3.061467409133911 -0.9329769999603379 -3.13477836700991e-9 -0.3599359908997815
11.852401733398438 1.6961184740066528 -4.830136775970459 -0.7642259773583822 0.23356287718674493 -0.6011713881505631
10.892417907714844 1.66767418384552 -3.2712604999542236 -0.8841507090003271 0.22410612445029954 -0.40994386049566084
10.153717994689941 4.898587410340671e-16 -1.5607225894927979 -0.9861362836651456 -2.331210841474137e-9 -0.1659374280838883
10.334507942199707 1.6186777353286743 -1.6186777353286743 -0.95549463277414 0.20860250087164733 -0.20860250087164733
11.647164344787598 3.4381299018859863 -3.4381299018859863 -0.787137794346366 0.43612732814600036 -0.43612732814600036
10.892417907714844 3.2712604999542236 -1.66767418384552 -0.8841506981984105 0.40994388528958486 -0.22410612171233232
11.852401733398438 4.830136775970459 -1.6961184740066528 -0.7642259499741725 0.6011714262136686 -0.23356286881757796
10 10 -10 0.816496580927726 0.408248290463863 -0.408248290463863
14.496917724609375 5.085686683654785 -5.085686683654785 -0.44641787804653055 0.6327365777274572 -0.6327365181228111
12.914313316345215 5.085686683654785 -3.503081798553467 -0.6327366674381321 0.6327365482288454 -0.4464177082226157
14.561869621276855 6.3528361320495605 -3.4381299018859863 -0.43612730276892747 0.7871379215424991 -0.43612712395499403
16.30388069152832 6.147597789764404 -4.830136775970459 -0.23356268113003856 0.7642260889058482 -0.6011713225188129
16.332324981689453 7.107581615447998 -3.2712604999542236 -0.22410603046135485 0.8841507505280096 -0.4099438223118035
13.1698637008667 6.147597789764404 -1.6961184740066528 -0.6011712528869099 0.7642261357635566 -0.2335627070366438
14.728739738464355 7.107581615447998 -1.66767418384552 -0.4099438539506415 0.8841507544889337 -0.2241059569595249
16.381322860717773 7.665491580963135 -1.6186777353286743 -0.20860262223488535 0.9554945830355618 -0.20860260733372415
18 4.898587410340671e-16 -8 -7.377717325951494e-10 8.88639786755796e-11 -1
18 1.5607225894927979 -7.846282005310059 -2.3078059672849767e-9 0.16593752951986837 -0.9861362665964795
19.56072235107422 4.898587410340671e-16 -7.846282005310059 0.16593754401072225 3.0898401819040822e-9 -0.9861362641580977
19.618677139282227 1.6186777353286743 -7.665491580963135 0.20860260798214889 0.20860260798214889 -0.9554945860056413
21.06146812438965 4.898587410340671e-16 -7.391036033630371 0.3599360627983659 -1.740919651364467e-9 -0.9329769722223645
21.27126121520996 1.66767418384552 -7.107581615447998 0.4099438718996516 0.22410602498542329 -0.8841507289241777
18 3.061467409133911 -7.391036033630371 8.112906467125274e-10 0.359936088739679 -0.932976962214385
18 4.444561958312988 -6.651756763458252 9.24307217334287e-10 0.5438896869369322 -0.8391567246013382
19.667675018310547 3.2712604999542236 -7.107581615447998 0.22410601630858215 0.4099438236807863 -0.884150753480578
21.438129425048828 3.4381299018859863 -6.3528361320495605 0.43612738208203095 0.4361272926750663 -0.7871377841154567
19.69611930847168 4.830136775970459 -6.147597789764404 0.23356270930659886 0.6011713183342331 -0.7642260835862914
22.444561004638672 4.898587410340671e-16 -6.651756763458252 0.5438897561136451 3.5058784451068336e-9 -0.8391566797652508
23.6568546295166 4.898587410340671e-16 -5.656854152679443 0.7071067215818992 -7.716908355612107e-10 -0.7071068407911908
22.830137252807617 1.6961184740066528 -6.147597789764404 0.601171269809668 0.2335627881171592 -0.7642260976716057
23.08568572998047 3.503081798553467 -5.085686683654785 0.6327365181228111 0.44641787804653055 -0.6327365777274572
24.651756286621094 4.898587410340671e-16 -4.444561958312988 0.8391566797652508 8.866153287854839e-10 -0.5438897561136451
25.391036987304688 4.898587410340671e-16 -3.061467409133911 0.9329769421984243 -3.975323989236366e-9 -0.3599361406223028
24.147598266601562 1.6961184740066528 -4.830136775970459 0.764226015450347 0.2335627961062304 -0.6011713712278101
25.107582092285156 1.66767418384552 -3.2712604999542236 0.8841507544889337 0.2241059569595249 -0.4099438539506415
25.846282958984375 4.898587410340671e-16 -1.5607225894927979 0.9861362495278035 -8.37117646080707e-10 -0.1659376309558432
25.665491104125977 1.6186777353286743 -1.6186777353286743 0.9554945184465486 0.20860277015831422 -0.20860275525715308
24.35283660888672 3.4381299018859863 -3.4381299018859863 0.7871376876120131 0.43612742446492225 -0.43612742446492225
25.107582092285156 3.2712604999542236 -1.66767418384552 0.8841507544889337 0.4099438539506415 -0.2241059569595249
24.147598266601562 4.830136775970459 -1.6961184740066528 0.7642260428345566 0.6011713331647003 -0.23356280447539404
18 5.656854152679443 -5.656854152679443 9.114307242817421e-10 0.7071067811865476 -0.7071067811865476
21.503082275390625 5.085686683654785 -5.085686683654785 0.44641796647190013 0.6327365167315276 -0.6327365167315276
18 6.651756763458252 -4.444561958312988 7.803632923287437e-10 0.83915670696933 -0.5438897141410101
18 7.391036033630371 -3.061467409133911 6.038692395719286e-10 0.9329769722223645 -0.3599360627983659
19.69611930847168 6.147597789764404 -4.830136775970459 0.23356270093743903 0.7642260562020816 -0.601171356397343
19.667675018310547 7.107581615447998 -3.2712604999542236 0.22410601630858215 0.884150753480578 -0.4099438236807863
21.438129425048828 6.3528361320495605 -3.4381299018859863 0.4361273877506427 0.7871377943463632 -0.436127268541355
21.27126121520996 7.107581615447998 -1.66767418384552 0.4099438718996516 0.8841507289241777 -0.22410602498542329
18 7.846282005310059 -1.5607225894927979 -2.4377655671023572e-9 0.9861362665964795 -0.16593752951986837
19.618677139282227 7.665491580963135 -1.6186777353286743 0.20860256587236342 0.9554945978859586 -0.20860259567468628
23.08568572998047 5.085686683654785 -3.503081798553467 0.6327364942597612 0.6327366134690489 -0.4464178612103092
22.830137252807617 6.147597789764404 -1.6961184740066528 0.6011713057804913 0.7642260676276176 -0.2335627938362762
10 4.898587410340671e-16 4.898587410340671e-16 -1 -7.377716215728469e-10 -7.377716215728469e-10
10.153717994689941 4.898587410340671e-16 1.5607225894927979 -0.9861362836651456 -2.331210841474137e-9 0.1659374280838883
10.153717994689941 1.5607225894927979 4.898587410340671e-16 -0.9861362836651456 0.1659374280838883 -2.331210841474137e-9
10.334507942199707 1.6186777353286743 1.6186777353286743 -0.95549463277414 0.20860250087164733 0.20860250087164733
10.608963966369629 4.898587410340671e-16 3.061467409133911 -0.9329769822303435 1.7064051668915782e-9 0.3599360368570519
11.34824275970459 4.898587410340671e-16 4.444561958312988 -0.8391567966414923 3.060116013609599e-11 0.5438895757875755
10.892417907714844 1.66767418384552 3.2712604999542236 -0.8841507090003271 0.22410612445029954 0.40994386049566084
11.852401733398438 1.6961184740066528 4.830136775970459 -0.7642259773583822 0.23356287718674493 0.6011713881505631
10.608963966369629 3.061467409133911 4.898587410340671e-16 -0.9329769822303435 0.3599360368570519 2.162567951425914e-9
10.892417907714844 3.2712604999542236 1.66767418384552 -0.8841507090003271 0.40994386049566084 0.22410612445029954
11.34824275970459 4.444561958312988 4.898587410340671e-16 -0.8391567966414923 0.5438895757875755 3.060116013609599e-11
11.852401733398438 4.830136775970459 1.6961184740066528 -0.7642259773583822 0.6011713881505631 0.23356287718674493
11.647164344787598 3.4381299018859863 3.4381299018859863 -0.787137794346366 0.43612732814600036 0.43612732814600036
12.343145370483398 4.898587410340671e-16 5.656854152679443 -0.7071065725702652 8.849674105152505e-10 0.7071069898027682
13.555438041687012 4.898587410340671e-16 6.651756763458252 -0.5438896449642935 -4.204522532690397e-9 0.8391567518054149
13.1698637008667 1.6961184740066528 6.147597789764404 -0.6011712528869099 0.2335627070366438 0.7642261357635566
14.728739738464355 1.66767418384552 7.107581615447998 -0.4099438539506415 0.2241059569595249 0.8841507544889337
14.938532829284668 4.898587410340671e-16 7.391036033630371 -0.3599360627983659 3.3224008384017337e-9 0.9329769722223645
16.43927764892578 4.898587410340671e-16 7.846282005310059 -0.16593755850157602 -3.8710070864253575e-9 0.986136261719716
16.381322860717773 1.6186777353286743 7.665491580963135 -0.20860263713604646 0.20860259243256285 0.9554945830355613
12.914313316345215 3.503081798553467 5.085686683654785 -0.6327366316965449 0.44641772505883265 0.6327365720918994
14.561869621276855 3.4381299018859863 6.3528361320495605 -0.4361273714981677 0.43612713307958484 0.787137878406243
16.332324981689453 3.2712604999542236 7.107581615447998 -0.2241060190465476 0.4099437988868608 0.8841507642824934
16.30388069152832 4.830136775970459 6.147597789764404 -0.23356267276087964 0.6011713605819227 0.7642260615216379
12.343145370483398 5.656854152679443 4.898587410340671e-16 -0.7071065725702652 0.7071069898027682 8.849674105152505e-10
13.1698637008667 6.147597789764404 1.6961184740066528 -0.601171257071489 0.7642261410831136 0.23356267886008375
13.555438041687012 6.651756763458252 4.898587410340671e-16 -0.5438896449642935 0.8391567518054149 -4.103500674549661e-9
14.728739738464355 7.107581615447998 1.66767418384552 -0.40994387874456534 0.884150743687017 0.22410595422155985
14.938532829284668 7.391036033630371 4.898587410340671e-16 -0.3599360627983659 0.9329769722223645 3.3224008384017337e-9
12.914313316345215 5.085686683654785 3.503081798553467 -0.6327366316965449 0.6327365720918994 0.44641772505883265
14.561869621276855 6.3528361320495605 3.4381299018859863 -0.4361273714981677 0.787137878406243 0.43612713307958484
16.30388069152832 6.147597789764404 4.830136775970459 -0.23356267276087964 0.7642260615216379 0.6011713605819227
16.332324981689453 7.107581615447998 3.2712604999542236 -0.2241060190465476 0.8841507642824934 0.4099437988868608
16.43927764892578 7.846282005310059 4.898587410340671e-16 -0.16593755850157602 0.986136261719716 -3.8710070864253575e-9
16.381322860717773 7.665491580963135 1.6186777353286743 -0.20860263648762162 0.9554945800654818 0.2086026066852993
10 10 10 0.408248290463863 0.816496580927726 0.408248290463863
14.496917724609375 5.085686683654785 5.085686683654785 -0.44641786121031074 0.6327365538644073 0.6327365538644073
26 4.898587410340671e-16 4.898587410340671e-16 1 -5.638008393482608e-10 -5.638008393482608e-10
25.846282958984375 4.898587410340671e-16 1.5607225894927979 0.9861362495278035 -2.237588318413576e-9 0.1659376309558432
25.846282958984375 1.5607225894927979 4.898587410340671e-16 0.9861362495278035 0.1659376309558432 -2.237588318413576e-9
25.665491104125977 1.6186777353286743 1.6186777353286743 0.9554945154764671 0.20860276950988846 0.20860276950988846
25.391036987304688 4.898587410340671e-16 3.061467409133911 0.93297692446842 2.8139737898870093e-9 0.3599361865795771
24.651756286621094 4.898587410340671e-16 4.444561958312988 0.83915670696933 -1.005965334679248e-9 0.5438897141410101
25.107582092285156 1.66767418384552 3.2712604999542236 0.8841507544889337 0.2241059569595249 0.4099438539506415
24.147598266601562 1.6961184740066528 4.830136775970459 0.764226045494336 0.23356279038711428 0.6011713352569912
25.391036987304688 3.061467409133911 4.898587410340671e-16 0.93297692446842 0.3599361865795771 2.7800049613012458e-9
25.107582092285156 3.2712604999542236 1.66767418384552 0.8841507652908499 0.40994382915671673 0.22410595969748986
24.651756286621094 4.444561958312988 4.898587410340671e-16 0.83915670696933 0.5438897141410101 -7.825932863483827e-10
24.147598266601562 4.830136775970459 1.6961184740066528 0.7642260207699052 0.6011713754123916 0.23356276792967165
24.35283660888672 3.4381299018859863 3.4381299018859863 0.7871376876120123 0.4361273946625995 0.4361274542672443
21.06146812438965 4.898587410340671e-16 7.391036033630371 0.3599360627983659 -8.11794030540533e-10 0.9329769722223645
21.27126121520996 1.66767418384552 7.107581615447998 0.4099438718996516 0.22410602498542329 0.8841507289241777
18 4.898587410340671e-16 8 -7.377717325951494e-10 8.88639786755796e-11 1
18 1.5607225894927979 7.846282005310059 -2.3078059672849767e-9 0.16593752951986837 0.9861362665964795
19.56072235107422 4.898587410340671e-16 7.846282005310059 0.16593754401072225 3.0898401819040822e-9 0.9861362641580977
19.618677139282227 1.6186777353286743 7.665491580963135 0.2086025801251003 0.2086025950262617 0.9554945949158795
18 3.061467409133911 7.391036033630371 8.112906467125274e-10 0.359936088739679 0.932976962214385
18 4.444561958312988 6.651756763458252 5.741805398309578e-10 0.5438896449642935 0.8391567518054149
19.667675018310547 3.2712604999542236 7.107581615447998 0.22410601630858215 0.4099438236807863 0.884150753480578
21.438129425048828 3.4381299018859863 6.3528361320495605 0.4361273877506427 0.436127268541355 0.7871377943463632
19.69611930847168 4.830136775970459 6.147597789764404 0.23356270930659886 0.6011713183342331 0.7642260835862914
23.6568546295166 4.898587410340671e-16 5.656854152679443 0.7071067215818992 9.387014659692326e-10 0.7071068407911908
22.444561004638672 4.898587410340671e-16 6.651756763458252 0.5438897561136451 -3.2017215259523157e-9 0.8391566797652508
22.830137252807617 1.6961184740066528 6.147597789764404 0.6011713057804913 0.2335627938362762 0.7642260676276176
23.08568572998047 3.503081798553467 5.085686683654785 0.6327364942597612 0.4464178612103092 0.6327366134690489
21.06146812438965 7.391036033630371 4.898587410340671e-16 0.3599360627983659 0.9329769722223645 -8.11794030540533e-10
21.27126121520996 7.107581615447998 1.66767418384552 0.4099438718996516 0.8841507289241777 0.22410602498542329
18 7.391036033630371 3.061467409133911 6.038692395719286e-10 0.9329769722223645 0.3599360627983659
18 6.651756763458252 4.444561958312988 5.741805499361265e-10 0.83915670696933 0.5438897141410101
19.69611930847168 6.147597789764404 4.830136775970459 0.23356270930659886 0.7642260835862914 0.6011713183342331
19.667675018310547 7.107581615447998 3.2712604999542236 0.22410601630858215 0.884150753480578 0.4099438236807863
21.438129425048828 6.3528361320495605 3.4381299018859863 0.4361273877506427 0.7871377943463632 0.436127268541355
18 8 4.898587410340671e-16 -7.377717325951494e-10 1 8.88639786755796e-11
18 7.846282005310059 1.5607225894927979 -2.3078059672849767e-9 0.9861362665964795 0.16593752951986837
19.56072235107422 7.846282005310059 4.898587410340671e-16 0.16593754401072225 0.9861362641580977 3.0898401819040822e-9
19.618677139282227 7.665491580963135 1.6186777353286743 0.2086025801251003 0.9554945949158795 0.2086025950262617
23.6568546295166 5.656854152679443 4.898587410340671e-16 0.7071067215818992 0.7071068407911908 8.132687440561495e-10
22.830137252807617 6.147597789764404 1.6961184740066528 0.601171307872782 0.764226070287397 0.23356277974799702
22.444561004638672 6.651756763458252 4.898587410340671e-16 0.5438897561136451 0.8391566797652508 -3.461967792607441e-9
23.08568572998047 5.085686683654785 3.503081798553467 0.6327364942597612 0.6327366134690489 0.4464178612103092
18 5.656854152679443 5.656854152679443 9.387009108577141e-10 0.7071067811865476 0.7071067811865476
21.503082275390625 5.085686683654785 5.085686683654785 0.44641796647190013 0.6327365167315276 0.6327365167315276
3 0 4 1
3 0 2 4
3 0 1 3
3 1 65 3
3 1 4 65
3 0 3 2
3 2 139 4
3 2 219 139
3 2 3 219
3 3 65 219
3 4 139 65
3 65 139 219
3 5 15 10
3 10 15 26
3 21 12 54
3 6 28 55
3 6 55 60
3 8 5 7
3 12 8 7
3 10 9 7
3 10 30 9
3 7 9 11
3 9 31 6
3 5 10 7
3 12 7 11
3 11 60 57
3 12 11 57
3 21 8 12
3 12 57 54
3 11 9 6
3 11 6 60
3 23 119 19
3 14 13 5
3 14 19 13
3 15 13 16
3 15 16 38
3 5 13 15
3 13 18 16
3 16 17 39
3 17 120 43
3 17 125 120
3 19 18 13
3 23 19 14
3 19 122 18
3 18 122 125
3 19 119 122
3 18 17 16
3 18 125 17
3 8 20 14
3 21 20 8
3 23 14 20
3 20 22 24
3 21 22 20
3 21 67 22
3 21 54 67
3 22 67 69
3 22 69 25
3 23 20 24
3 23 24 130
3 23 130 119
3 24 25 131
3 24 131 130
3 25 72 134
3 72 184 134
3 22 25 24
3 25 69 72
3 25 134 131
3 8 14 5
3 34 26 40
3 34 40 27
3 6 31 28
3 31 29 28
3 55 28 83
3 28 29 85
3 28 85 83
3 29 87 85
3 30 34 32
3 9 30 31
3 30 32 31
3 31 32 29
3 10 26 30
3 30 26 34
3 34 33 32
3 32 33 35
3 34 27 33
3 32 35 29
3 29 35 87
3 27 36 33
3 33 36 37
3 33 37 35
3 35 94 87
3 35 37 94
3 37 36 49
3 37 95 94
3 37 49 95
3 38 41 40
3 15 38 26
3 38 40 26
3 16 39 38
3 38 39 41
3 39 44 41
3 40 41 42
3 40 42 27
3 41 45 42
3 17 43 39
3 39 43 44
3 120 148 43
3 43 150 44
3 43 148 150
3 44 150 152
3 41 44 45
3 44 152 45
3 27 42 46
3 42 47 46
3 42 45 47
3 46 47 51
3 45 159 47
3 45 152 159
3 47 160 51
3 47 159 160
3 27 46 36
3 36 46 48
3 36 48 49
3 46 51 48
3 48 52 50
3 49 48 50
3 49 100 95
3 49 50 100
3 50 102 100
3 50 53 102
3 51 52 48
3 51 163 52
3 51 160 163
3 52 164 53
3 52 163 164
3 50 52 53
3 53 105 102
3 53 164 167
3 53 167 105
3 105 167 221
3 68 54 59
3 60 55 56
3 55 84 56
3 57 60 58
3 57 58 59
3 59 58 61
3 57 59 54
3 68 59 62
3 60 56 58
3 58 56 63
3 59 61 62
3 62 61 66
3 58 63 61
3 56 89 63
3 61 63 64
3 63 90 64
3 61 64 66
3 66 64 78
3 64 98 78
3 67 68 70
3 67 54 68
3 68 71 70
3 67 70 69
3 69 70 73
3 68 62 71
3 62 76 71
3 70 71 74
3 71 76 75
3 72 73 185
3 72 185 184
3 69 73 72
3 70 74 73
3 73 188 185
3 71 75 74
3 73 74 188
3 74 189 188
3 74 75 189
3 75 197 189
3 62 66 76
3 75 80 197
3 76 66 77
3 76 77 80
3 66 78 77
3 78 79 77
3 78 109 79
3 77 79 81
3 79 110 82
3 75 76 80
3 80 77 81
3 80 198 197
3 80 81 198
3 81 201 198
3 81 79 82
3 81 82 201
3 82 115 202
3 82 202 201
3 55 83 84
3 83 85 84
3 84 85 86
3 56 84 89
3 84 86 89
3 85 87 86
3 86 87 88
3 86 88 91
3 63 89 90
3 86 91 89
3 89 91 90
3 91 93 90
3 64 90 98
3 90 93 98
3 91 88 92
3 91 92 93
3 92 99 93
3 87 94 88
3 88 94 96
3 88 96 92
3 94 95 96
3 96 95 101
3 96 101 97
3 92 96 97
3 92 97 99
3 93 111 98
3 93 99 111
3 95 100 101
3 100 103 101
3 101 103 104
3 100 102 103
3 102 106 103
3 99 97 117
3 97 104 117
3 97 101 104
3 103 107 104
3 104 108 117
3 102 105 106
3 103 106 107
3 105 222 106
3 105 221 222
3 106 222 225
3 104 107 108
3 106 225 107
3 107 225 226
3 107 226 108
3 108 226 245
3 78 98 109
3 98 111 109
3 109 111 112
3 79 109 110
3 109 112 110
3 110 112 116
3 111 99 113
3 111 113 112
3 112 113 114
3 112 114 116
3 116 114 234
3 82 110 115
3 110 116 115
3 202 115 236
3 115 116 238
3 115 238 236
3 116 234 238
3 99 117 113
3 113 117 118
3 117 108 118
3 113 118 114
3 118 108 245
3 118 245 246
3 114 118 246
3 114 246 234
3 132 124 119
3 125 121 120
3 120 121 149
3 122 123 125
3 122 124 123
3 122 119 124
3 124 126 123
3 132 127 124
3 125 123 121
3 123 128 121
3 124 127 126
3 127 140 126
3 123 126 128
3 121 128 154
3 126 129 128
3 128 129 155
3 126 140 129
3 130 133 132
3 130 132 119
3 130 131 133
3 131 135 133
3 132 133 136
3 134 184 186
3 134 186 135
3 131 134 135
3 133 135 137
3 135 186 192
3 132 136 127
3 133 137 136
3 127 136 141
3 136 138 141
3 135 192 137
3 137 192 194
3 136 137 138
3 137 194 138
3 138 194 208
3 127 141 140
3 140 143 129
3 129 143 172
3 138 208 145
3 141 142 140
3 141 145 142
3 140 142 143
3 143 142 144
3 143 144 174
3 142 146 144
3 144 147 175
3 138 145 141
3 145 208 210
3 145 146 142
3 145 210 146
3 146 210 212
3 146 147 144
3 146 212 147
3 147 217 180
3 147 212 217
3 120 149 148
3 148 149 150
3 149 151 150
3 121 154 149
3 149 154 151
3 150 151 152
3 151 153 152
3 151 156 153
3 128 155 154
3 151 154 156
3 154 155 156
3 156 155 158
3 129 172 155
3 155 172 158
3 156 157 153
3 156 158 157
3 157 158 173
3 152 153 159
3 153 161 159
3 159 161 160
3 161 165 160
3 153 157 161
3 161 162 165
3 157 162 161
3 157 173 162
3 160 165 163
3 163 165 166
3 163 166 164
3 164 166 168
3 165 169 166
3 164 168 167
3 167 223 221
3 167 168 223
3 166 170 168
3 168 229 223
3 173 182 162
3 162 182 169
3 162 169 165
3 166 169 170
3 169 182 171
3 168 170 229
3 170 231 229
3 169 171 170
3 170 171 231
3 171 260 231
3 158 172 176
3 158 176 173
3 143 174 172
3 172 174 176
3 174 177 176
3 144 175 174
3 174 175 177
3 175 181 177
3 176 178 173
3 176 177 178
3 177 179 178
3 177 181 179
3 181 249 179
3 147 180 175
3 175 180 181
3 217 256 180
3 180 258 181
3 180 256 258
3 181 258 249
3 173 178 182
3 178 183 182
3 182 183 171
3 183 260 171
3 183 262 260
3 178 179 183
3 179 262 183
3 179 249 262
3 185 186 184
3 185 187 186
3 185 188 187
3 186 187 192
3 187 190 193
3 188 189 190
3 187 188 190
3 190 189 191
3 189 197 191
3 190 191 196
3 187 193 192
3 192 193 194
3 193 195 194
3 194 195 208
3 193 196 195
3 190 196 193
3 196 191 204
3 196 213 195
3 196 204 213
3 204 220 213
3 191 197 199
3 197 198 199
3 198 201 200
3 198 200 199
3 191 199 204
3 199 200 205
3 201 203 200
3 200 203 206
3 201 202 203
3 202 237 203
3 199 205 204
3 204 205 220
3 200 206 205
3 203 240 206
3 205 207 220
3 205 206 207
3 206 241 207
3 195 209 208
3 208 209 210
3 195 213 209
3 210 209 211
3 210 211 212
3 209 214 211
3 212 211 218
3 211 216 218
3 213 214 209
3 213 220 214
3 214 220 215
3 211 214 216
3 218 216 251
3 214 215 216
3 216 215 252
3 212 218 217
3 217 218 257
3 220 207 215
3 207 264 215
3 221 223 222
3 222 223 224
3 222 224 225
3 223 229 224
3 224 230 227
3 225 227 226
3 224 227 225
3 245 226 228
3 227 228 226
3 227 233 228
3 224 229 230
3 229 231 230
3 230 231 232
3 260 232 231
3 230 232 233
3 265 248 263
3 233 263 248
3 227 230 233
3 233 248 228
3 233 232 263
3 239 234 235
3 239 235 242
3 202 236 237
3 236 238 237
3 237 238 239
3 203 237 240
3 237 239 240
3 238 234 239
3 206 240 241
3 239 242 240
3 240 242 241
3 207 241 264
3 264 241 244
3 242 244 241
3 242 235 243
3 243 265 244
3 242 243 244
3 245 247 246
3 245 228 247
3 234 246 235
3 235 246 247
3 247 228 248
3 235 247 243
3 243 247 248
3 243 248 265
3 259 250 249
3 259 254 250
3 215 264 252
3 264 253 252
3 216 252 251
3 259 251 254
3 251 252 254
3 254 252 253
3 255 253 265
3 254 255 250
3 254 253 255
3 217 257 256
3 256 257 258
3 257 259 258
3 218 251 257
3 257 251 259
3 258 259 249
3 260 261 232
3 260 262 261
3 263 232 261
3 250 261 262
3 249 250 262
3 250 255 261
3 255 263 261
3 255 265 263
3 264 244 253
3 244 265 253

