solid exported
	facet normal 0 -1 0
		outer loop
			vertex 0 0 0.019999999552965164
			vertex 0 0 0
			vertex 10 0 0
		endloop
	endfacet
	facet normal 0 0 -1
		outer loop
			vertex 0 6 0
			vertex 10 0 0
			vertex 0 0 0
		endloop
	endfacet
	facet normal -1 0 0
		outer loop
			vertex 0 0 0.019999999552965164
			vertex 0 6 0.019999999552965164
			vertex 0 0 0
		endloop
	endfacet
	facet normal 0 0 1
		outer loop
			vertex 0 6 0.019999999552965164
			vertex 0 0 0.019999999552965164
			vertex 10 0 0.019999999552965164
		endloop
	endfacet
	facet normal -1 0 0
		outer loop
			vertex 0 6 0.019999999552965164
			vertex 0 6 0
			vertex 0 0 0
		endloop
	endfacet
	facet normal 0 1 0
		outer loop
			vertex 0 6 0.019999999552965164
			vertex 10 6 0.019999999552965164
			vertex 0 6 0
		endloop
	endfacet
	facet normal 1 0 0
		outer loop
			vertex 10 0 0.019999999552965164
			vertex 10 0 0
			vertex 10 6 0
		endloop
	endfacet
	facet normal 0 -1 0
		outer loop
			vertex 10 0 0.019999999552965164
			vertex 0 0 0.019999999552965164
			vertex 10 0 0
		endloop
	endfacet
	facet normal 0 0 -1
		outer loop
			vertex 10 6 0
			vertex 10 0 0
			vertex 0 6 0
		endloop
	endfacet
	facet normal 0 1 0
		outer loop
			vertex 10 6 0.019999999552965164
			vertex 10 6 0
			vertex 0 6 0
		endloop
	endfacet
	facet normal 0 0 1
		outer loop
			vertex 10 6 0.019999999552965164
			vertex 0 6 0.019999999552965164
			vertex 10 0 0.019999999552965164
		endloop
	endfacet
	facet normal 1 0 0
		outer loop
			vertex 10 6 0.019999999552965164
			vertex 10 0 0.019999999552965164
			vertex 10 6 0
		endloop
	endfacet
endsolid exported
