solid exported
	facet normal 0 -1 0
		outer loop
			vertex -25 -25 25
			vertex -25 -25 -25
			vertex 25 -25 -25
		endloop
	endfacet
	facet normal 0 0 -1
		outer loop
			vertex -25 25 -25
			vertex 25 -25 -25
			vertex -25 -25 -25
		endloop
	endfacet
	facet normal 1 0 0
		outer loop
			vertex 25 -25 25
			vertex 25 -25 -25
			vertex 25 25 -25
		endloop
	endfacet
	facet normal 0 -1 0
		outer loop
			vertex 25 -25 25
			vertex -25 -25 25
			vertex 25 -25 -25
		endloop
	endfacet
	facet normal -1 0 0
		outer loop
			vertex -25 -25 25
			vertex -25 25 25
			vertex -25 -25 -25
		endloop
	endfacet
	facet normal 0 0 1
		outer loop
			vertex -25 25 25
			vertex -25 -25 25
			vertex 25 -25 25
		endloop
	endfacet
	facet normal 0 0 -1
		outer loop
			vertex 25 25 -25
			vertex 25 -25 -25
			vertex -25 25 -25
		endloop
	endfacet
	facet normal -1 0 0
		outer loop
			vertex -25 25 25
			vertex -25 25 -25
			vertex -25 -25 -25
		endloop
	endfacet
	facet normal 0 1 0
		outer loop
			vertex 25 25 25
			vertex 25 25 -25
			vertex -25 25 -25
		endloop
	endfacet
	facet normal 1 0 0
		outer loop
			vertex 25 25 25
			vertex 25 -25 25
			vertex 25 25 -25
		endloop
	endfacet
	facet normal 0 0 1
		outer loop
			vertex 25 25 25
			vertex -25 25 25
			vertex 25 -25 25
		endloop
	endfacet
	facet normal 0 1 0
		outer loop
			vertex -25 25 25
			vertex 25 25 25
			vertex -25 25 -25
		endloop
	endfacet
	facet normal 0 -1 0
		outer loop
			vertex 199.75 -0.25 0.25
			vertex 199.75 -0.25 -0.25
			vertex 200.25 -0.25 -0.25
		endloop
	endfacet
	facet normal 0 0 -1
		outer loop
			vertex 199.75 0.25 -0.25
			vertex 200.25 -0.25 -0.25
			vertex 199.75 -0.25 -0.25
		endloop
	endfacet
	facet normal 1 0 0
		outer loop
			vertex 200.25 -0.25 0.25
			vertex 200.25 -0.25 -0.25
			vertex 200.25 0.25 -0.25
		endloop
	endfacet
	facet normal 0 -1 0
		outer loop
			vertex 200.25 -0.25 0.25
			vertex 199.75 -0.25 0.25
			vertex 200.25 -0.25 -0.25
		endloop
	endfacet
	facet normal -1 0 0
		outer loop
			vertex 199.75 -0.25 0.25
			vertex 199.75 0.25 0.25
			vertex 199.75 -0.25 -0.25
		endloop
	endfacet
	facet normal 0 0 1
		outer loop
			vertex 199.75 0.25 0.25
			vertex 199.75 -0.25 0.25
			vertex 200.25 -0.25 0.25
		endloop
	endfacet
	facet normal 0 0 -1
		outer loop
			vertex 200.25 0.25 -0.25
			vertex 200.25 -0.25 -0.25
			vertex 199.75 0.25 -0.25
		endloop
	endfacet
	facet normal -1 0 0
		outer loop
			vertex 199.75 0.25 0.25
			vertex 199.75 0.25 -0.25
			vertex 199.75 -0.25 -0.25
		endloop
	endfacet
	facet normal 0 1 0
		outer loop
			vertex 200.25 0.25 0.25
			vertex 200.25 0.25 -0.25
			vertex 199.75 0.25 -0.25
		endloop
	endfacet
	facet normal 1 0 0
		outer loop
			vertex 200.25 0.25 0.25
			vertex 200.25 -0.25 0.25
			vertex 200.25 0.25 -0.25
		endloop
	endfacet
	facet normal 0 0 1
		outer loop
			vertex 200.25 0.25 0.25
			vertex 199.75 0.25 0.25
			vertex 200.25 -0.25 0.25
		endloop
	endfacet
	facet normal 0 1 0
		outer loop
			vertex 199.75 0.25 0.25
			vertex 200.25 0.25 0.25
			vertex 199.75 0.25 -0.25
		endloop
	endfacet
endsolid exported
