o 
usemtl degenerate-tiny-boss-on-large-plate-material
v -150 -150 -5
v -150 -150 5
v -150 150 -5
v -150 150 5
v 150 -150 -5
v 150 -150 5
v 150 150 -5
v 99.99617004394531 99.99076080322266 5
v 99.99292755126953 99.99292755126953 5
v 99.99076080322266 99.99617004394531 5
v 100 99.98999786376953 5
v 99.98999786376953 100 5
v 99.99076080322266 100.00382995605469 5
v 99.99292755126953 100.00707244873047 5
v 99.99617004394531 100.00923919677734 5
v 100.00382995605469 99.99076080322266 5
v 100.00707244873047 99.99292755126953 5
v 100.00923919677734 99.99617004394531 5
v 100.01000213623047 100 5
v 100 100.01000213623047 5
v 100.00923919677734 100.00382995605469 5
v 100.00707244873047 100.00707244873047 5
v 100.00382995605469 100.00923919677734 5
v 99.99292755126953 99.99292755126953 7
v 99.99076080322266 99.99617004394531 7
v 99.99617004394531 99.99076080322266 7
v 99.98999786376953 100 7
v 99.99076080322266 100.00382995605469 7
v 99.99292755126953 100.00707244873047 7
v 99.99617004394531 100.00923919677734 7
v 100 99.98999786376953 7
v 100.00382995605469 99.99076080322266 7
v 100.00707244873047 99.99292755126953 7
v 100.00923919677734 99.99617004394531 7
v 100 100.01000213623047 7
v 100.00382995605469 100.00923919677734 7
v 100.01000213623047 100 7
v 100.00923919677734 100.00382995605469 7
v 100.00707244873047 100.00707244873047 7
v 150 150 5
vn -0.06648224557976422 -0.03324112278988211 -0.9972337433011078
vn -0.03324112278988211 -0.06648224557976422 0.9972337433011078
vn -0.016655104510978493 0.033310209021956985 -0.9993062781092902
vn -0.036333993971871974 0.018166996985935987 0.9991745598755831
vn 0.016655104510978493 -0.033310209021956985 -0.9993062781092902
vn 0.03633428034587122 -0.01816714017293561 0.9991745468583978
vn 0.06648224557976422 0.03324112278988211 -0.9972337433011078
vn -1.6988862228116547e-7 -3.4384643754490047e-7 0.9999999999999265
vn -0.015991876174915102 -0.014003467985219306 0.9997740558650204
vn -0.01344552764120797 -0.004553978449396313 0.9998992344565186
vn -0.0007967870213980726 -0.011999612494524694 0.9999276846004536
vn -0.011999612494524694 0.0007967870213980726 0.9999276846004536
vn -0.010774707644819664 0.005323598271598914 0.9999277798804328
vn -0.00933659728649359 0.010662337765473139 0.9998995662087693
vn -0.006799092217265768 0.0200741798879872 0.9997753745951367
vn 0.0038572175403990233 -0.011388355065068587 0.9999277110080298
vn 0.00933659728649359 -0.010662337765473139 0.9998995662087693
vn 0.01899250969401057 -0.009383873083242482 0.9997755885704956
vn 0.000001532226406196072 -1.0174146325413685e-7 0.9999999999988209
vn 0.003977673079915902 0.059903758781454736 0.9981962321110627
vn 0.04356083966469734 0.014753985972291096 0.9989418267074595
vn 0.031964354985247266 0.02798995070372061 0.9990970136428095
vn 6.796380489496372e-7 0.0000013755549161926135 0.9999999999988229
vn -0.6587747835937701 -0.7523168216314999 0.005931643217456563
vn -0.8965367149250042 -0.44296342482650536 0.0023071752111166457
vn -0.3207844560438927 -0.9471094203184308 0.009004371422250454
vn -0.9978026805806369 -0.06625516006188387 0.0002537543492732516
vn -0.9471473724036513 0.3207972954007724 0.0009747883918100056
vn -0.7523238722391934 0.6587809975904008 0.004048267879226816
vn -0.44295154764281786 0.8965127217591848 0.007672428870383102
vn 0.06625202241227209 -0.9977555189216011 0.009725944055478343
vn 0.44295154764281786 -0.8965127217591848 0.007672428870383102
vn 0.7523238722391934 -0.6587809975904008 0.004048267879226816
vn 0.9471473724036513 -0.3207972954007724 0.0009747883918100056
vn -0.06625202241227209 0.9977555189216011 0.009725944055478343
vn 0.3207844560438927 0.9471094203184308 0.009004371422250454
vn 0.9978026805806369 0.06625516006188387 0.0002537543492732516
vn 0.8965367149250042 0.44296342482650536 0.0023071752111166457
vn 0.6587747835937701 0.7523168216314999 0.005931643217456563
vn 0.09760550586039851 0.19521101172079702 0.9758923230196446
f 1//1 5//5 2//2
f 1//1 3//3 5//5
f 1//1 2//2 4//4
f 2//2 6//6 4//4
f 1//1 4//4 3//3
f 3//3 4//4 40//40
f 5//5 7//7 6//6
f 2//2 5//5 6//6
f 3//3 7//7 5//5
f 3//3 40//40 7//7
f 4//4 6//6 8//8
f 4//4 20//20 23//23
f 4//4 15//15 20//20
f 4//4 14//14 15//15
f 4//4 13//13 14//14
f 4//4 12//12 13//13
f 4//4 8//8 9//9
f 4//4 9//9 10//10
f 4//4 10//10 12//12
f 4//4 23//23 40//40
f 6//6 7//7 40//40
f 6//6 19//19 18//18
f 6//6 18//18 17//17
f 6//6 17//17 16//16
f 6//6 16//16 11//11
f 6//6 11//11 8//8
f 6//6 40//40 19//19
f 40//40 21//21 19//19
f 40//40 22//22 21//21
f 40//40 23//23 22//22
f 24//24 9//9 8//8
f 25//25 10//10 9//9
f 27//27 12//12 10//10
f 26//26 8//8 11//11
f 28//28 13//13 12//12
f 29//29 14//14 13//13
f 30//30 15//15 14//14
f 35//35 20//20 15//15
f 31//31 11//11 16//16
f 32//32 16//16 17//17
f 33//33 17//17 18//18
f 34//34 18//18 19//19
f 36//36 23//23 20//20
f 37//37 19//19 21//21
f 38//38 21//21 22//22
f 39//39 22//22 23//23
f 24//24 25//25 9//9
f 25//25 27//27 10//10
f 24//24 8//8 26//26
f 26//26 11//11 31//31
f 27//27 28//28 12//12
f 28//28 29//29 13//13
f 29//29 30//30 14//14
f 30//30 35//35 15//15
f 31//31 16//16 32//32
f 32//32 17//17 33//33
f 33//33 18//18 34//34
f 34//34 19//19 37//37
f 35//35 36//36 20//20
f 36//36 39//39 23//23
f 37//37 21//21 38//38
f 38//38 22//22 39//39
f 24//24 29//29 25//25
f 24//24 26//26 30//30
f 26//26 31//31 35//35
f 25//25 28//28 27//27
f 25//25 29//29 28//28
f 24//24 30//30 29//29
f 26//26 35//35 30//30
f 31//31 32//32 36//36
f 32//32 33//33 39//39
f 33//33 34//34 38//38
f 31//31 36//36 35//35
f 32//32 39//39 36//36
f 33//33 38//38 39//39
f 34//34 37//37 38//38
