o 
usemtl boolean-union-disjoint-spheres-material
v -1.6961184740066528 -6.147597789764404 -4.830136775970459
v -1.6961184740066528 -4.830136775970459 -6.147597789764404
v -3.503081798553467 -5.085686683654785 -5.085686683654785
v 4.898587410340671e-16 -6.651756763458252 -4.444561958312988
v 1.6961184740066528 -6.147597789764404 -4.830136775970459
v 4.898587410340671e-16 -4.444561958312988 -6.651756763458252
v 1.6961184740066528 -4.830136775970459 -6.147597789764404
v 4.898587410340671e-16 -5.656854152679443 -5.656854152679443
v 3.503081798553467 -5.085686683654785 -5.085686683654785
v -1.66767418384552 -7.107581615447998 -3.2712604999542236
v -3.4381299018859863 -6.3528361320495605 -3.4381299018859863
v -4.830136775970459 -6.147597789764404 -1.6961184740066528
v -3.2712604999542236 -7.107581615447998 -1.66767418384552
v -1.6186777353286743 -7.665491580963135 -1.6186777353286743
v -5.085686683654785 -5.085686683654785 -3.503081798553467
v -6.147597789764404 -4.830136775970459 -1.6961184740066528
v 4.898587410340671e-16 -7.391036033630371 -3.061467409133911
v 1.66767418384552 -7.107581615447998 -3.2712604999542236
v 3.4381299018859863 -6.3528361320495605 -3.4381299018859863
v 4.898587410340671e-16 -7.846282005310059 -1.5607225894927979
v 1.6186777353286743 -7.665491580963135 -1.6186777353286743
v 3.2712604999542236 -7.107581615447998 -1.66767418384552
v 4.830136775970459 -6.147597789764404 -1.6961184740066528
v 5.085686683654785 -5.085686683654785 -3.503081798553467
v -1.66767418384552 -3.2712604999542236 -7.107581615447998
v -3.4381299018859863 -3.4381299018859863 -6.3528361320495605
v -5.085686683654785 -3.503081798553467 -5.085686683654785
v -4.830136775970459 -1.6961184740066528 -6.147597789764404
v -3.2712604999542236 -1.66767418384552 -7.107581615447998
v -1.6186777353286743 -1.6186777353286743 -7.665491580963135
v -6.147597789764404 -1.6961184740066528 -4.830136775970459
v 4.898587410340671e-16 -3.061467409133911 -7.391036033630371
v 1.66767418384552 -3.2712604999542236 -7.107581615447998
v 3.4381299018859863 -3.4381299018859863 -6.3528361320495605
v 5.085686683654785 -3.503081798553467 -5.085686683654785
v 4.898587410340671e-16 -1.5607225894927979 -7.846282005310059
v 1.6186777353286743 -1.6186777353286743 -7.665491580963135
v 3.2712604999542236 -1.66767418384552 -7.107581615447998
v 4.830136775970459 -1.6961184740066528 -6.147597789764404
v -6.3528361320495605 -3.4381299018859863 -3.4381299018859863
v -7.107581615447998 -3.2712604999542236 -1.66767418384552
v -7.107581615447998 -1.66767418384552 -3.2712604999542236
v -7.665491580963135 -1.6186777353286743 -1.6186777353286743
v 6.147597789764404 -4.830136775970459 -1.6961184740066528
v 6.147597789764404 -1.6961184740066528 -4.830136775970459
v 6.3528361320495605 -3.4381299018859863 -3.4381299018859863
v 7.107581615447998 -3.2712604999542236 -1.66767418384552
v 7.107581615447998 -1.66767418384552 -3.2712604999542236
v 7.665491580963135 -1.6186777353286743 -1.6186777353286743
v -4.830136775970459 -6.147597789764404 1.6961184740066528
v -3.061467409133911 -7.391036033630371 4.898587410340671e-16
v -1.5607225894927979 -7.846282005310059 4.898587410340671e-16
v -3.2712604999542236 -7.107581615447998 1.66767418384552
v -1.6186777353286743 -7.665491580963135 1.6186777353286743
v -4.444561958312988 -6.651756763458252 4.898587410340671e-16
v -1.66767418384552 -7.107581615447998 3.2712604999542236
v -3.4381299018859863 -6.3528361320495605 3.4381299018859863
v -5.656854152679443 -5.656854152679443 4.898587410340671e-16
v -6.651756763458252 -4.444561958312988 4.898587410340671e-16
v -6.147597789764404 -4.830136775970459 1.6961184740066528
v -5.085686683654785 -5.085686683654785 3.503081798553467
v 4.898587410340671e-16 -8 4.898587410340671e-16
v 1.5607225894927979 -7.846282005310059 4.898587410340671e-16
v 4.898587410340671e-16 -7.846282005310059 1.5607225894927979
v 1.6186777353286743 -7.665491580963135 1.6186777353286743
v 3.061467409133911 -7.391036033630371 4.898587410340671e-16
v 3.2712604999542236 -7.107581615447998 1.66767418384552
v 4.444561958312988 -6.651756763458252 4.898587410340671e-16
v 4.830136775970459 -6.147597789764404 1.6961184740066528
v 4.898587410340671e-16 -7.391036033630371 3.061467409133911
v 1.66767418384552 -7.107581615447998 3.2712604999542236
v 3.4381299018859863 -6.3528361320495605 3.4381299018859863
v 5.656854152679443 -5.656854152679443 4.898587410340671e-16
v 5.085686683654785 -5.085686683654785 3.503081798553467
v -1.6961184740066528 -6.147597789764404 4.830136775970459
v -3.503081798553467 -5.085686683654785 5.085686683654785
v -1.6961184740066528 -4.830136775970459 6.147597789764404
v 4.898587410340671e-16 -6.651756763458252 4.444561958312988
v 1.6961184740066528 -6.147597789764404 4.830136775970459
v 4.898587410340671e-16 -5.656854152679443 5.656854152679443
v 3.503081798553467 -5.085686683654785 5.085686683654785
v 4.898587410340671e-16 -4.444561958312988 6.651756763458252
v 1.6961184740066528 -4.830136775970459 6.147597789764404
v -7.391036033630371 -3.061467409133911 4.898587410340671e-16
v -7.107581615447998 -3.2712604999542236 1.66767418384552
v -6.3528361320495605 -3.4381299018859863 3.4381299018859863
v -7.846282005310059 -1.5607225894927979 4.898587410340671e-16
v -7.665491580963135 -1.6186777353286743 1.6186777353286743
v -7.107581615447998 -1.66767418384552 3.2712604999542236
v -5.085686683654785 -3.503081798553467 5.085686683654785
v -3.4381299018859863 -3.4381299018859863 6.3528361320495605
v -1.66767418384552 -3.2712604999542236 7.107581615447998
v -6.147597789764404 -1.6961184740066528 4.830136775970459
v -4.830136775970459 -1.6961184740066528 6.147597789764404
v -3.2712604999542236 -1.66767418384552 7.107581615447998
v -1.6186777353286743 -1.6186777353286743 7.665491580963135
v 5.085686683654785 -3.503081798553467 5.085686683654785
v 4.898587410340671e-16 -3.061467409133911 7.391036033630371
v 1.66767418384552 -3.2712604999542236 7.107581615447998
v 3.4381299018859863 -3.4381299018859863 6.3528361320495605
v 4.898587410340671e-16 -1.5607225894927979 7.846282005310059
v 1.6186777353286743 -1.6186777353286743 7.665491580963135
v 4.830136775970459 -1.6961184740066528 6.147597789764404
v 3.2712604999542236 -1.66767418384552 7.107581615447998
v 6.651756763458252 -4.444561958312988 4.898587410340671e-16
v 6.147597789764404 -4.830136775970459 1.6961184740066528
v 7.391036033630371 -3.061467409133911 4.898587410340671e-16
v 7.107581615447998 -3.2712604999542236 1.66767418384552
v 6.3528361320495605 -3.4381299018859863 3.4381299018859863
v 7.846282005310059 -1.5607225894927979 4.898587410340671e-16
v 7.665491580963135 -1.6186777353286743 1.6186777353286743
v 7.107581615447998 -1.66767418384552 3.2712604999542236
v 6.147597789764404 -1.6961184740066528 4.830136775970459
v -4.830136775970459 1.6961184740066528 -6.147597789764404
v -3.061467409133911 4.898587410340671e-16 -7.391036033630371
v -1.5607225894927979 4.898587410340671e-16 -7.846282005310059
v -4.444561958312988 4.898587410340671e-16 -6.651756763458252
v -3.2712604999542236 1.66767418384552 -7.107581615447998
v -1.6186777353286743 1.6186777353286743 -7.665491580963135
v -5.656854152679443 4.898587410340671e-16 -5.656854152679443
v -6.651756763458252 4.898587410340671e-16 -4.444561958312988
v -6.147597789764404 1.6961184740066528 -4.830136775970459
v -1.66767418384552 3.2712604999542236 -7.107581615447998
v -3.4381299018859863 3.4381299018859863 -6.3528361320495605
v -5.085686683654785 3.503081798553467 -5.085686683654785
v 4.898587410340671e-16 4.898587410340671e-16 -8
v 1.5607225894927979 4.898587410340671e-16 -7.846282005310059
v 4.898587410340671e-16 1.5607225894927979 -7.846282005310059
v 1.6186777353286743 1.6186777353286743 -7.665491580963135
v 3.061467409133911 4.898587410340671e-16 -7.391036033630371
v 4.444561958312988 4.898587410340671e-16 -6.651756763458252
v 3.2712604999542236 1.66767418384552 -7.107581615447998
v 4.830136775970459 1.6961184740066528 -6.147597789764404
v 5.656854152679443 4.898587410340671e-16 -5.656854152679443
v 4.898587410340671e-16 3.061467409133911 -7.391036033630371
v 1.66767418384552 3.2712604999542236 -7.107581615447998
v 3.4381299018859863 3.4381299018859863 -6.3528361320495605
v 5.085686683654785 3.503081798553467 -5.085686683654785
v -7.391036033630371 4.898587410340671e-16 -3.061467409133911
v -7.107581615447998 1.66767418384552 -3.2712604999542236
v -7.846282005310059 4.898587410340671e-16 -1.5607225894927979
v -7.665491580963135 1.6186777353286743 -1.6186777353286743
v -6.3528361320495605 3.4381299018859863 -3.4381299018859863
v -7.107581615447998 3.2712604999542236 -1.66767418384552
v -1.6961184740066528 4.830136775970459 -6.147597789764404
v -3.503081798553467 5.085686683654785 -5.085686683654785
v -1.6961184740066528 6.147597789764404 -4.830136775970459
v 4.898587410340671e-16 4.444561958312988 -6.651756763458252
v 1.6961184740066528 4.830136775970459 -6.147597789764404
v 4.898587410340671e-16 5.656854152679443 -5.656854152679443
v 3.503081798553467 5.085686683654785 -5.085686683654785
v 4.898587410340671e-16 6.651756763458252 -4.444561958312988
v 1.6961184740066528 6.147597789764404 -4.830136775970459
v -5.085686683654785 5.085686683654785 -3.503081798553467
v -6.147597789764404 4.830136775970459 -1.6961184740066528
v -3.4381299018859863 6.3528361320495605 -3.4381299018859863
v -1.66767418384552 7.107581615447998 -3.2712604999542236
v -4.830136775970459 6.147597789764404 -1.6961184740066528
v -3.2712604999542236 7.107581615447998 -1.66767418384552
v -1.6186777353286743 7.665491580963135 -1.6186777353286743
v 5.085686683654785 5.085686683654785 -3.503081798553467
v 4.898587410340671e-16 7.391036033630371 -3.061467409133911
v 1.66767418384552 7.107581615447998 -3.2712604999542236
v 3.4381299018859863 6.3528361320495605 -3.4381299018859863
v 4.898587410340671e-16 7.846282005310059 -1.5607225894927979
v 1.6186777353286743 7.665491580963135 -1.6186777353286743
v 4.830136775970459 6.147597789764404 -1.6961184740066528
v 3.2712604999542236 7.107581615447998 -1.66767418384552
v 6.651756763458252 4.898587410340671e-16 -4.444561958312988
v 6.147597789764404 1.6961184740066528 -4.830136775970459
v 7.391036033630371 4.898587410340671e-16 -3.061467409133911
v 7.107581615447998 1.66767418384552 -3.2712604999542236
v 7.846282005310059 4.898587410340671e-16 -1.5607225894927979
v 7.665491580963135 1.6186777353286743 -1.6186777353286743
v 6.3528361320495605 3.4381299018859863 -3.4381299018859863
v 7.107581615447998 3.2712604999542236 -1.66767418384552
v 6.147597789764404 4.830136775970459 -1.6961184740066528
v -8 4.898587410340671e-16 4.898587410340671e-16
v -7.846282005310059 4.898587410340671e-16 1.5607225894927979
v -7.846282005310059 1.5607225894927979 4.898587410340671e-16
v -7.665491580963135 1.6186777353286743 1.6186777353286743
v -7.391036033630371 4.898587410340671e-16 3.061467409133911
v -7.107581615447998 1.66767418384552 3.2712604999542236
v -7.391036033630371 3.061467409133911 4.898587410340671e-16
v -7.107581615447998 3.2712604999542236 1.66767418384552
v -6.3528361320495605 3.4381299018859863 3.4381299018859863
v -6.651756763458252 4.898587410340671e-16 4.444561958312988
v -5.656854152679443 4.898587410340671e-16 5.656854152679443
v -6.147597789764404 1.6961184740066528 4.830136775970459
v -4.830136775970459 1.6961184740066528 6.147597789764404
v -4.444561958312988 4.898587410340671e-16 6.651756763458252
v -3.061467409133911 4.898587410340671e-16 7.391036033630371
v -1.5607225894927979 4.898587410340671e-16 7.846282005310059
v -3.2712604999542236 1.66767418384552 7.107581615447998
v -1.6186777353286743 1.6186777353286743 7.665491580963135
v -5.085686683654785 3.503081798553467 5.085686683654785
v -3.4381299018859863 3.4381299018859863 6.3528361320495605
v -1.66767418384552 3.2712604999542236 7.107581615447998
v 5.656854152679443 4.898587410340671e-16 5.656854152679443
v 4.898587410340671e-16 4.898587410340671e-16 8
v 1.5607225894927979 4.898587410340671e-16 7.846282005310059
v 4.898587410340671e-16 1.5607225894927979 7.846282005310059
v 1.6186777353286743 1.6186777353286743 7.665491580963135
v 4.444561958312988 4.898587410340671e-16 6.651756763458252
v 3.061467409133911 4.898587410340671e-16 7.391036033630371
v 4.830136775970459 1.6961184740066528 6.147597789764404
v 3.2712604999542236 1.66767418384552 7.107581615447998
v 5.085686683654785 3.503081798553467 5.085686683654785
v 4.898587410340671e-16 3.061467409133911 7.391036033630371
v 1.66767418384552 3.2712604999542236 7.107581615447998
v 3.4381299018859863 3.4381299018859863 6.3528361320495605
v -6.651756763458252 4.444561958312988 4.898587410340671e-16
v -6.147597789764404 4.830136775970459 1.6961184740066528
v -5.656854152679443 5.656854152679443 4.898587410340671e-16
v -5.085686683654785 5.085686683654785 3.503081798553467
v -4.830136775970459 6.147597789764404 1.6961184740066528
v -4.444561958312988 6.651756763458252 4.898587410340671e-16
v -3.061467409133911 7.391036033630371 4.898587410340671e-16
v -1.5607225894927979 7.846282005310059 4.898587410340671e-16
v -3.2712604999542236 7.107581615447998 1.66767418384552
v -1.6186777353286743 7.665491580963135 1.6186777353286743
v -3.4381299018859863 6.3528361320495605 3.4381299018859863
v -1.66767418384552 7.107581615447998 3.2712604999542236
v 5.656854152679443 5.656854152679443 4.898587410340671e-16
v 5.085686683654785 5.085686683654785 3.503081798553467
v 4.898587410340671e-16 8 4.898587410340671e-16
v 1.5607225894927979 7.846282005310059 4.898587410340671e-16
v 4.898587410340671e-16 7.846282005310059 1.5607225894927979
v 1.6186777353286743 7.665491580963135 1.6186777353286743
v 4.444561958312988 6.651756763458252 4.898587410340671e-16
v 4.830136775970459 6.147597789764404 1.6961184740066528
v 3.061467409133911 7.391036033630371 4.898587410340671e-16
v 3.2712604999542236 7.107581615447998 1.66767418384552
v 4.898587410340671e-16 7.391036033630371 3.061467409133911
v 1.66767418384552 7.107581615447998 3.2712604999542236
v 3.4381299018859863 6.3528361320495605 3.4381299018859863
v -3.503081798553467 5.085686683654785 5.085686683654785
v -1.6961184740066528 4.830136775970459 6.147597789764404
v -1.6961184740066528 6.147597789764404 4.830136775970459
v 4.898587410340671e-16 5.656854152679443 5.656854152679443
v 3.503081798553467 5.085686683654785 5.085686683654785
v 4.898587410340671e-16 4.444561958312988 6.651756763458252
v 1.6961184740066528 4.830136775970459 6.147597789764404
v 4.898587410340671e-16 6.651756763458252 4.444561958312988
v 1.6961184740066528 6.147597789764404 4.830136775970459
v 8 4.898587410340671e-16 4.898587410340671e-16
v 7.846282005310059 4.898587410340671e-16 1.5607225894927979
v 7.846282005310059 1.5607225894927979 4.898587410340671e-16
v 7.665491580963135 1.6186777353286743 1.6186777353286743
v 7.391036033630371 4.898587410340671e-16 3.061467409133911
v 7.107581615447998 1.66767418384552 3.2712604999542236
v 7.391036033630371 3.061467409133911 4.898587410340671e-16
v 7.107581615447998 3.2712604999542236 1.66767418384552
v 6.3528361320495605 3.4381299018859863 3.4381299018859863
v 6.651756763458252 4.898587410340671e-16 4.444561958312988
v 6.147597789764404 1.6961184740066528 4.830136775970459
v 6.651756763458252 4.444561958312988 4.898587410340671e-16
v 6.147597789764404 4.830136775970459 1.6961184740066528
v 33.85240173339844 -4.830136775970459 -1.6961184740066528
v 33.85240173339844 -1.6961184740066528 -4.830136775970459
v 33.64716339111328 -3.4381299018859863 -3.4381299018859863
v 32.892417907714844 -3.2712604999542236 -1.66767418384552
v 32.892417907714844 -1.66767418384552 -3.2712604999542236
v 32.33450698852539 -1.6186777353286743 -1.6186777353286743
v 38.30388259887695 -6.147597789764404 -4.830136775970459
v 40 -6.651756763458252 -4.444561958312988
v 38.30388259887695 -4.830136775970459 -6.147597789764404
v 40 -4.444561958312988 -6.651756763458252
v 36.496917724609375 -5.085686683654785 -5.085686683654785
v 40 -5.656854152679443 -5.656854152679443
v 41.69611740112305 -6.147597789764404 -4.830136775970459
v 41.69611740112305 -4.830136775970459 -6.147597789764404
v 43.503082275390625 -5.085686683654785 -5.085686683654785
v 36.56187057495117 -6.3528361320495605 -3.4381299018859863
v 38.33232498168945 -7.107581615447998 -3.2712604999542236
v 40 -7.391036033630371 -3.061467409133911
v 36.72874069213867 -7.107581615447998 -1.66767418384552
v 35.169864654541016 -6.147597789764404 -1.6961184740066528
v 38.38132095336914 -7.665491580963135 -1.6186777353286743
v 40 -7.846282005310059 -1.5607225894927979
v 34.91431427001953 -5.085686683654785 -3.503081798553467
v 41.66767501831055 -7.107581615447998 -3.2712604999542236
v 43.43812942504883 -6.3528361320495605 -3.4381299018859863
v 41.61867904663086 -7.665491580963135 -1.6186777353286743
v 43.27125930786133 -7.107581615447998 -1.66767418384552
v 44.830135345458984 -6.147597789764404 -1.6961184740066528
v 45.08568572998047 -5.085686683654785 -3.503081798553467
v 46.14759826660156 -4.830136775970459 -1.6961184740066528
v 36.56187057495117 -3.4381299018859863 -6.3528361320495605
v 38.33232498168945 -3.2712604999542236 -7.107581615447998
v 40 -3.061467409133911 -7.391036033630371
v 34.91431427001953 -3.503081798553467 -5.085686683654785
v 36.72874069213867 -1.66767418384552 -7.107581615447998
v 35.169864654541016 -1.6961184740066528 -6.147597789764404
v 38.38132095336914 -1.6186777353286743 -7.665491580963135
v 40 -1.5607225894927979 -7.846282005310059
v 41.66767501831055 -3.2712604999542236 -7.107581615447998
v 43.43812942504883 -3.4381299018859863 -6.3528361320495605
v 45.08568572998047 -3.503081798553467 -5.085686683654785
v 41.61867904663086 -1.6186777353286743 -7.665491580963135
v 43.27125930786133 -1.66767418384552 -7.107581615447998
v 44.830135345458984 -1.6961184740066528 -6.147597789764404
v 46.14759826660156 -1.6961184740066528 -4.830136775970459
v 46.35283660888672 -3.4381299018859863 -3.4381299018859863
v 47.107582092285156 -3.2712604999542236 -1.66767418384552
v 47.107582092285156 -1.66767418384552 -3.2712604999542236
v 47.66549301147461 -1.6186777353286743 -1.6186777353286743
v 33.348243713378906 -4.444561958312988 4.898587410340671e-16
v 33.85240173339844 -4.830136775970459 1.6961184740066528
v 32.60896301269531 -3.061467409133911 4.898587410340671e-16
v 32.892417907714844 -3.2712604999542236 1.66767418384552
v 33.64716339111328 -3.4381299018859863 3.4381299018859863
v 32.153717041015625 -1.5607225894927979 4.898587410340671e-16
v 32.33450698852539 -1.6186777353286743 1.6186777353286743
v 32.892417907714844 -1.66767418384552 3.2712604999542236
v 33.85240173339844 -1.6961184740066528 4.830136775970459
v 36.938533782958984 -7.391036033630371 4.898587410340671e-16
v 36.72874069213867 -7.107581615447998 1.66767418384552
v 35.55543899536133 -6.651756763458252 4.898587410340671e-16
v 35.169864654541016 -6.147597789764404 1.6961184740066528
v 38.43927764892578 -7.846282005310059 4.898587410340671e-16
v 40 -8 4.898587410340671e-16
v 38.38132095336914 -7.665491580963135 1.6186777353286743
v 40 -7.846282005310059 1.5607225894927979
v 36.56187057495117 -6.3528361320495605 3.4381299018859863
v 38.33232498168945 -7.107581615447998 3.2712604999542236
v 40 -7.391036033630371 3.061467409133911
v 34.34314727783203 -5.656854152679443 4.898587410340671e-16
v 34.91431427001953 -5.085686683654785 3.503081798553467
v 41.56072235107422 -7.846282005310059 4.898587410340671e-16
v 43.061466217041016 -7.391036033630371 4.898587410340671e-16
v 41.61867904663086 -7.665491580963135 1.6186777353286743
v 43.27125930786133 -7.107581615447998 1.66767418384552
v 44.44456100463867 -6.651756763458252 4.898587410340671e-16
v 44.830135345458984 -6.147597789764404 1.6961184740066528
v 41.66767501831055 -7.107581615447998 3.2712604999542236
v 43.43812942504883 -6.3528361320495605 3.4381299018859863
v 45.65685272216797 -5.656854152679443 4.898587410340671e-16
v 46.651756286621094 -4.444561958312988 4.898587410340671e-16
v 46.14759826660156 -4.830136775970459 1.6961184740066528
v 45.08568572998047 -5.085686683654785 3.503081798553467
v 38.30388259887695 -6.147597789764404 4.830136775970459
v 40 -6.651756763458252 4.444561958312988
v 36.496917724609375 -5.085686683654785 5.085686683654785
v 40 -5.656854152679443 5.656854152679443
v 38.30388259887695 -4.830136775970459 6.147597789764404
v 40 -4.444561958312988 6.651756763458252
v 41.69611740112305 -6.147597789764404 4.830136775970459
v 43.503082275390625 -5.085686683654785 5.085686683654785
v 41.69611740112305 -4.830136775970459 6.147597789764404
v 47.39103698730469 -3.061467409133911 4.898587410340671e-16
v 47.107582092285156 -3.2712604999542236 1.66767418384552
v 46.35283660888672 -3.4381299018859863 3.4381299018859863
v 47.846282958984375 -1.5607225894927979 4.898587410340671e-16
v 47.66549301147461 -1.6186777353286743 1.6186777353286743
v 47.107582092285156 -1.66767418384552 3.2712604999542236
v 34.91431427001953 -3.503081798553467 5.085686683654785
v 36.56187057495117 -3.4381299018859863 6.3528361320495605
v 38.33232498168945 -3.2712604999542236 7.107581615447998
v 40 -3.061467409133911 7.391036033630371
v 35.169864654541016 -1.6961184740066528 6.147597789764404
v 36.72874069213867 -1.66767418384552 7.107581615447998
v 38.38132095336914 -1.6186777353286743 7.665491580963135
v 40 -1.5607225894927979 7.846282005310059
v 45.08568572998047 -3.503081798553467 5.085686683654785
v 43.43812942504883 -3.4381299018859863 6.3528361320495605
v 41.66767501831055 -3.2712604999542236 7.107581615447998
v 46.14759826660156 -1.6961184740066528 4.830136775970459
v 41.61867904663086 -1.6186777353286743 7.665491580963135
v 43.27125930786133 -1.66767418384552 7.107581615447998
v 44.830135345458984 -1.6961184740066528 6.147597789764404
v 33.348243713378906 4.898587410340671e-16 -4.444561958312988
v 33.85240173339844 1.6961184740066528 -4.830136775970459
v 32.60896301269531 4.898587410340671e-16 -3.061467409133911
v 32.892417907714844 1.66767418384552 -3.2712604999542236
v 32.153717041015625 4.898587410340671e-16 -1.5607225894927979
v 32.33450698852539 1.6186777353286743 -1.6186777353286743
v 33.64716339111328 3.4381299018859863 -3.4381299018859863
v 32.892417907714844 3.2712604999542236 -1.66767418384552
v 33.85240173339844 4.830136775970459 -1.6961184740066528
v 36.938533782958984 4.898587410340671e-16 -7.391036033630371
v 35.55543899536133 4.898587410340671e-16 -6.651756763458252
v 36.72874069213867 1.66767418384552 -7.107581615447998
v 35.169864654541016 1.6961184740066528 -6.147597789764404
v 38.43927764892578 4.898587410340671e-16 -7.846282005310059
v 40 4.898587410340671e-16 -8
v 38.38132095336914 1.6186777353286743 -7.665491580963135
v 40 1.5607225894927979 -7.846282005310059
v 34.34314727783203 4.898587410340671e-16 -5.656854152679443
v 36.56187057495117 3.4381299018859863 -6.3528361320495605
v 38.33232498168945 3.2712604999542236 -7.107581615447998
v 40 3.061467409133911 -7.391036033630371
v 34.91431427001953 3.503081798553467 -5.085686683654785
v 41.56072235107422 4.898587410340671e-16 -7.846282005310059
v 43.061466217041016 4.898587410340671e-16 -7.391036033630371
v 44.44456100463867 4.898587410340671e-16 -6.651756763458252
v 41.61867904663086 1.6186777353286743 -7.665491580963135
v 43.27125930786133 1.66767418384552 -7.107581615447998
v 44.830135345458984 1.6961184740066528 -6.147597789764404
v 45.65685272216797 4.898587410340671e-16 -5.656854152679443
v 46.651756286621094 4.898587410340671e-16 -4.444561958312988
v 46.14759826660156 1.6961184740066528 -4.830136775970459
v 41.66767501831055 3.2712604999542236 -7.107581615447998
v 43.43812942504883 3.4381299018859863 -6.3528361320495605
v 45.08568572998047 3.503081798553467 -5.085686683654785
v 47.39103698730469 4.898587410340671e-16 -3.061467409133911
v 47.107582092285156 1.66767418384552 -3.2712604999542236
v 47.846282958984375 4.898587410340671e-16 -1.5607225894927979
v 47.66549301147461 1.6186777353286743 -1.6186777353286743
v 46.35283660888672 3.4381299018859863 -3.4381299018859863
v 47.107582092285156 3.2712604999542236 -1.66767418384552
v 38.30388259887695 4.830136775970459 -6.147597789764404
v 40 4.444561958312988 -6.651756763458252
v 36.496917724609375 5.085686683654785 -5.085686683654785
v 40 5.656854152679443 -5.656854152679443
v 38.30388259887695 6.147597789764404 -4.830136775970459
v 40 6.651756763458252 -4.444561958312988
v 41.69611740112305 4.830136775970459 -6.147597789764404
v 43.503082275390625 5.085686683654785 -5.085686683654785
v 41.69611740112305 6.147597789764404 -4.830136775970459
v 34.91431427001953 5.085686683654785 -3.503081798553467
v 36.56187057495117 6.3528361320495605 -3.4381299018859863
v 38.33232498168945 7.107581615447998 -3.2712604999542236
v 40 7.391036033630371 -3.061467409133911
v 35.169864654541016 6.147597789764404 -1.6961184740066528
v 36.72874069213867 7.107581615447998 -1.66767418384552
v 38.38132095336914 7.665491580963135 -1.6186777353286743
v 40 7.846282005310059 -1.5607225894927979
v 45.08568572998047 5.085686683654785 -3.503081798553467
v 46.14759826660156 4.830136775970459 -1.6961184740066528
v 43.43812942504883 6.3528361320495605 -3.4381299018859863
v 41.66767501831055 7.107581615447998 -3.2712604999542236
v 41.61867904663086 7.665491580963135 -1.6186777353286743
v 43.27125930786133 7.107581615447998 -1.66767418384552
v 44.830135345458984 6.147597789764404 -1.6961184740066528
v 32 4.898587410340671e-16 4.898587410340671e-16
v 32.153717041015625 4.898587410340671e-16 1.5607225894927979
v 32.153717041015625 1.5607225894927979 4.898587410340671e-16
v 32.33450698852539 1.6186777353286743 1.6186777353286743
v 32.60896301269531 4.898587410340671e-16 3.061467409133911
v 32.892417907714844 1.66767418384552 3.2712604999542236
v 32.60896301269531 3.061467409133911 4.898587410340671e-16
v 32.892417907714844 3.2712604999542236 1.66767418384552
v 33.64716339111328 3.4381299018859863 3.4381299018859863
v 33.348243713378906 4.898587410340671e-16 4.444561958312988
v 33.85240173339844 1.6961184740066528 4.830136775970459
v 33.348243713378906 4.444561958312988 4.898587410340671e-16
v 33.85240173339844 4.830136775970459 1.6961184740066528
v 48 4.898587410340671e-16 4.898587410340671e-16
v 47.846282958984375 4.898587410340671e-16 1.5607225894927979
v 47.846282958984375 1.5607225894927979 4.898587410340671e-16
v 47.66549301147461 1.6186777353286743 1.6186777353286743
v 47.39103698730469 4.898587410340671e-16 3.061467409133911
v 47.107582092285156 1.66767418384552 3.2712604999542236
v 47.39103698730469 3.061467409133911 4.898587410340671e-16
v 47.107582092285156 3.2712604999542236 1.66767418384552
v 46.35283660888672 3.4381299018859863 3.4381299018859863
v 34.34314727783203 4.898587410340671e-16 5.656854152679443
v 35.55543899536133 4.898587410340671e-16 6.651756763458252
v 36.938533782958984 4.898587410340671e-16 7.391036033630371
v 35.169864654541016 1.6961184740066528 6.147597789764404
v 36.72874069213867 1.66767418384552 7.107581615447998
v 38.43927764892578 4.898587410340671e-16 7.846282005310059
v 40 4.898587410340671e-16 8
v 38.38132095336914 1.6186777353286743 7.665491580963135
v 40 1.5607225894927979 7.846282005310059
v 34.91431427001953 3.503081798553467 5.085686683654785
v 36.56187057495117 3.4381299018859863 6.3528361320495605
v 38.33232498168945 3.2712604999542236 7.107581615447998
v 40 3.061467409133911 7.391036033630371
v 46.651756286621094 4.898587410340671e-16 4.444561958312988
v 45.65685272216797 4.898587410340671e-16 5.656854152679443
v 46.14759826660156 1.6961184740066528 4.830136775970459
v 44.44456100463867 4.898587410340671e-16 6.651756763458252
v 41.56072235107422 4.898587410340671e-16 7.846282005310059
v 43.061466217041016 4.898587410340671e-16 7.391036033630371
v 41.61867904663086 1.6186777353286743 7.665491580963135
v 43.27125930786133 1.66767418384552 7.107581615447998
v 44.830135345458984 1.6961184740066528 6.147597789764404
v 45.08568572998047 3.503081798553467 5.085686683654785
v 43.43812942504883 3.4381299018859863 6.3528361320495605
v 41.66767501831055 3.2712604999542236 7.107581615447998
v 34.34314727783203 5.656854152679443 4.898587410340671e-16
v 34.91431427001953 5.085686683654785 3.503081798553467
v 35.55543899536133 6.651756763458252 4.898587410340671e-16
v 35.169864654541016 6.147597789764404 1.6961184740066528
v 36.938533782958984 7.391036033630371 4.898587410340671e-16
v 36.72874069213867 7.107581615447998 1.66767418384552
v 38.43927764892578 7.846282005310059 4.898587410340671e-16
v 40 8 4.898587410340671e-16
v 38.38132095336914 7.665491580963135 1.6186777353286743
v 40 7.846282005310059 1.5607225894927979
v 36.56187057495117 6.3528361320495605 3.4381299018859863
v 38.33232498168945 7.107581615447998 3.2712604999542236
v 40 7.391036033630371 3.061467409133911
v 46.651756286621094 4.444561958312988 4.898587410340671e-16
v 46.14759826660156 4.830136775970459 1.6961184740066528
v 45.65685272216797 5.656854152679443 4.898587410340671e-16
v 45.08568572998047 5.085686683654785 3.503081798553467
v 44.44456100463867 6.651756763458252 4.898587410340671e-16
v 41.56072235107422 7.846282005310059 4.898587410340671e-16
v 43.061466217041016 7.391036033630371 4.898587410340671e-16
v 41.61867904663086 7.665491580963135 1.6186777353286743
v 43.27125930786133 7.107581615447998 1.66767418384552
v 44.830135345458984 6.147597789764404 1.6961184740066528
v 43.43812942504883 6.3528361320495605 3.4381299018859863
v 41.66767501831055 7.107581615447998 3.2712604999542236
v 36.496917724609375 5.085686683654785 5.085686683654785
v 40 5.656854152679443 5.656854152679443
v 38.30388259887695 4.830136775970459 6.147597789764404
v 40 4.444561958312988 6.651756763458252
v 38.30388259887695 6.147597789764404 4.830136775970459
v 40 6.651756763458252 4.444561958312988
v 43.503082275390625 5.085686683654785 5.085686683654785
v 41.69611740112305 4.830136775970459 6.147597789764404
v 41.69611740112305 6.147597789764404 4.830136775970459
vn -0.23356270093743903 -0.7642260562020816 -0.601171356397343
vn -0.23356270093743903 -0.601171356397343 -0.7642260562020816
vn -0.4464178134842093 -0.6327365707006265 -0.6327365707006265
vn 7.803636809068115e-10 -0.83915670696933 -0.5438897141410101
vn 0.23356270093743903 -0.7642260562020816 -0.601171356397343
vn 7.803636809068115e-10 -0.5438897141410101 -0.83915670696933
vn 0.23356270093743903 -0.601171356397343 -0.7642260562020816
vn 9.387015769915403e-10 -0.7071067811865476 -0.7071067811865476
vn 0.4464177727849389 -0.6327366148603273 -0.6327365552556833
vn -0.22410602772338914 -0.884150739726094 -0.409943847105728
vn -0.4361272076933555 -0.7871379113115985 -0.43612723749567733
vn -0.6011713162419432 -0.7642260809265129 -0.23356272339487882
vn -0.4099438443677621 -0.8841507338209569 -0.22410605602893383
vn -0.20860263519077188 -0.9554945741253226 -0.20860263519077188
vn -0.6327365791187357 -0.6327365791187357 -0.44641778962115714
vn -0.7642260835862914 -0.6011713183342331 -0.23356270930659886
vn 6.682450084829933e-10 -0.9329769522064049 -0.3599361146809913
vn 0.22410605602893383 -0.8841507338209569 -0.4099438443677621
vn 0.43612725228888244 -0.7871378784062543 -0.43612725228888244
vn -4.737313362388332e-10 -0.9861362665964795 -0.16593752951986837
vn 0.20860264879508303 -0.9554945681851628 -0.20860264879508303
vn 0.4099438443677621 -0.8841507338209569 -0.22410605602893383
vn 0.6011713183342331 -0.7642260835862914 -0.23356270930659886
vn 0.6327365791187357 -0.6327365791187357 -0.44641778962115714
vn -0.22410605602893383 -0.4099438443677621 -0.8841507338209569
vn -0.4361272076933555 -0.43612723749567733 -0.7871379113115985
vn -0.6327365791187357 -0.44641778962115714 -0.6327365791187357
vn -0.6011713183342331 -0.23356270930659886 -0.7642260835862914
vn -0.4099438443677621 -0.22410605602893383 -0.8841507338209569
vn -0.20860263519077188 -0.20860263519077188 -0.9554945741253226
vn -0.7642260835862914 -0.23356270930659886 -0.6011713183342331
vn 6.682450084829933e-10 -0.3599361146809913 -0.9329769522064049
vn 0.2241060532909677 -0.40994386916168557 -0.884150723019041
vn 0.43612725228888244 -0.43612725228888244 -0.7871378784062543
vn 0.6327365791187357 -0.44641778962115714 -0.6327365791187357
vn -4.737313362388332e-10 -0.16593752951986837 -0.9861362665964795
vn 0.20860264879508303 -0.20860264879508303 -0.9554945681851628
vn 0.4099438443677621 -0.22410605602893383 -0.8841507338209569
vn 0.6011713183342331 -0.23356270930659886 -0.7642260835862914
vn -0.7871378784062543 -0.43612725228888244 -0.43612725228888244
vn -0.8841507338209569 -0.4099438443677621 -0.22410605602893383
vn -0.8841507338209569 -0.22410605602893383 -0.4099438443677621
vn -0.9554945711552426 -0.20860264944350798 -0.20860263454234695
vn 0.7642260835862914 -0.6011713183342331 -0.23356270930659886
vn 0.7642260835862914 -0.23356270930659886 -0.6011713183342331
vn 0.7871378784062543 -0.43612725228888244 -0.43612725228888244
vn 0.8841507338209569 -0.4099438443677621 -0.22410605602893383
vn 0.8841507338209569 -0.22410605602893383 -0.4099438443677621
vn 0.9554945711552426 -0.20860264944350798 -0.20860263454234695
vn -0.601171356397343 -0.7642260562020816 0.23356270093743903
vn -0.359936088739679 -0.932976962214385 -3.0482576498224635e-9
vn -0.16593752951986837 -0.9861362665964795 1.4903020064462631e-9
vn -0.4099438443677621 -0.8841507338209569 0.22410605602893383
vn -0.20860264944350798 -0.9554945711552426 0.20860263454234695
vn -0.5438896869369322 -0.8391567246013382 5.741807987727212e-10
vn -0.22410602772338914 -0.884150739726094 0.409943847105728
vn -0.4361272707539849 -0.7871378579444395 0.4361272707539849
vn -0.7071068109888685 -0.7071067513842252 3.01748514448944e-11
vn -0.8391567246013382 -0.5438896869369322 7.803636418748646e-10
vn -0.7642260287492415 -0.6011713816892633 0.2335627256648324
vn -0.6327365791187357 -0.6327365791187357 0.44641778962115714
vn -7.377716215728469e-10 -1 -7.377716215728469e-10
vn 0.16593754401072225 -0.9861362641580977 -4.597621425058112e-9
vn -2.307805295444733e-9 -0.9861362641580977 0.16593754401072225
vn 0.20860264944350798 -0.9554945711552426 0.20860263454234695
vn 0.3599361146809913 -0.9329769522064049 4.384747634089999e-9
vn 0.4099438443677621 -0.8841507338209569 0.22410605602893383
vn 0.5438896869369322 -0.8391567246013382 5.741807987727212e-10
vn 0.601171356397343 -0.7642260562020816 0.23356270093743903
vn 8.112907577348301e-10 -0.932976962214385 0.359936088739679
vn 0.22410602498542329 -0.8841507289241777 0.4099438718996516
vn 0.4361272707539849 -0.7871378579444395 0.4361272707539849
vn 0.7071068109888685 -0.7071067513842252 3.01748514448944e-11
vn 0.6327366148603273 -0.6327365552556833 0.4464177727849389
vn -0.23356270930659886 -0.7642260835862914 0.6011713183342331
vn -0.44641779664799064 -0.6327366064422182 0.6327365468375751
vn -0.23356270930659886 -0.6011713183342331 0.7642260835862914
vn 5.741807987727212e-10 -0.8391567246013382 0.5438896869369322
vn 0.23356273748315856 -0.764226078266734 0.601171314149653
vn 9.114311299570082e-10 -0.7071067513842252 0.7071068109888685
vn 0.4464177727849389 -0.6327366148603273 0.6327365552556833
vn 7.803636809068115e-10 -0.5438897141410101 0.83915670696933
vn 0.2335626952183188 -0.6011713204265231 0.7642260862460699
vn -0.9329769522064049 -0.3599361146809913 -3.0482578391686147e-9
vn -0.884150739726094 -0.409943847105728 0.22410602772338914
vn -0.7871378784062543 -0.43612725228888244 0.43612725228888244
vn -0.9861362665964795 -0.16593752951986837 1.4903020064462631e-9
vn -0.9554945681851628 -0.20860264879508303 0.20860264879508303
vn -0.8841507338209569 -0.22410605602893383 0.4099438443677621
vn -0.6327365791187357 -0.44641778962115714 0.6327365791187357
vn -0.4361272076933555 -0.43612723749567733 0.7871379113115985
vn -0.22410605602893383 -0.4099438443677621 0.8841507338209569
vn -0.7642260835862914 -0.23356270930659886 0.6011713183342331
vn -0.6011713183342331 -0.23356270930659886 0.7642260835862914
vn -0.4099438443677621 -0.22410605602893383 0.8841507338209569
vn -0.2086026209380357 -0.2086026358391968 0.9554945770954023
vn 0.6327365791187357 -0.44641778962115714 0.6327365791187357
vn 6.682450084829933e-10 -0.3599361146809913 0.9329769522064049
vn 0.22410605602893383 -0.4099438443677621 0.8841507338209569
vn 0.43612725228888244 -0.43612725228888244 0.7871378784062543
vn -4.737313362388332e-10 -0.16593752951986837 0.9861362665964795
vn 0.20860264879508303 -0.20860264879508303 0.9554945681851628
vn 0.6011713183342331 -0.23356270930659886 0.7642260835862914
vn 0.4099438443677621 -0.22410605602893383 0.8841507338209569
vn 0.8391567246013382 -0.5438896869369322 7.803636418748646e-10
vn 0.7642260862460699 -0.6011713204265231 0.2335626952183188
vn 0.9329769522064049 -0.3599361146809913 -3.0482578391686147e-9
vn 0.884150739726094 -0.409943847105728 0.22410602772338914
vn 0.7871378784062543 -0.43612725228888244 0.43612725228888244
vn 0.9861362665964795 -0.16593752951986837 1.4903020064462631e-9
vn 0.9554945681851628 -0.20860264879508303 0.20860264879508303
vn 0.8841507338209569 -0.22410605602893383 0.4099438443677621
vn 0.7642260862460699 -0.2335626952183188 0.6011713204265231
vn -0.6011713183342331 0.23356270930659886 -0.7642260835862914
vn -0.359936088739679 -3.0482576498224635e-9 -0.932976962214385
vn -0.16593752951986837 1.4903020064462631e-9 -0.9861362665964795
vn -0.5438896869369322 5.741807987727212e-10 -0.8391567246013382
vn -0.4099438443677621 0.22410605602893383 -0.8841507338209569
vn -0.20860264944350798 0.20860263454234695 -0.9554945711552426
vn -0.7071068109888685 9.387014264059276e-10 -0.7071067513842252
vn -0.8391567246013382 7.803636418748646e-10 -0.5438896869369322
vn -0.7642260287492415 0.2335627256648324 -0.6011713816892633
vn -0.22410602772338914 0.409943847105728 -0.884150739726094
vn -0.4361272707539849 0.4361272707539849 -0.7871378579444395
vn -0.6327365875368447 0.44641776575810393 -0.6327365875368447
vn -7.377716215728469e-10 -7.377716215728469e-10 -1
vn 0.16593754401072225 -4.597621425058112e-9 -0.9861362641580977
vn -2.307805295444733e-9 0.16593754401072225 -0.9861362641580977
vn 0.20860264944350798 0.20860263454234695 -0.9554945711552426
vn 0.3599361146809913 4.384747634089999e-9 -0.9329769522064049
vn 0.5438896869369322 5.741807987727212e-10 -0.8391567246013382
vn 0.4099438443677621 0.22410605602893383 -0.8841507338209569
vn 0.6011713183342331 0.23356270930659886 -0.7642260835862914
vn 0.7071068109888685 3.01748514448944e-11 -0.7071067513842252
vn 8.112907577348301e-10 0.359936088739679 -0.932976962214385
vn 0.22410602498542329 0.4099438718996516 -0.8841507289241777
vn 0.4361272707539849 0.4361272707539849 -0.7871378579444395
vn 0.6327365875368447 0.44641776575810393 -0.6327365875368447
vn -0.932976962214385 -3.0482576498224635e-9 -0.359936088739679
vn -0.8841507338209569 0.22410605602893383 -0.4099438443677621
vn -0.9861362665964795 1.2944786471399652e-9 -0.16593752951986837
vn -0.9554945711552426 0.20860263454234695 -0.20860264944350798
vn -0.7871378579444395 0.4361272707539849 -0.4361272707539849
vn -0.8841507338209569 0.4099438443677621 -0.22410605602893383
vn -0.23356273748315856 0.601171314149653 -0.764226078266734
vn -0.44641779664799064 0.6327365468375751 -0.6327366064422182
vn -0.23356270930659886 0.7642260835862914 -0.6011713183342331
vn 5.741807987727212e-10 0.5438896869369322 -0.8391567246013382
vn 0.23356272339487882 0.6011713162419432 -0.7642260809265129
vn 9.114311299570082e-10 0.7071068109888685 -0.7071067513842252
vn 0.4464177727849389 0.6327365552556833 -0.6327366148603273
vn 7.803636809068115e-10 0.83915670696933 -0.5438897141410101
vn 0.2335626952183188 0.7642260862460699 -0.6011713204265231
vn -0.6327365791187357 0.6327365791187357 -0.44641778962115714
vn -0.7642260835862914 0.6011713183342331 -0.23356270930659886
vn -0.4361272076933555 0.7871379113115985 -0.43612723749567733
vn -0.22410605602893383 0.8841507338209569 -0.4099438443677621
vn -0.6011713204265231 0.7642260862460699 -0.2335626952183188
vn -0.4099438443677621 0.8841507338209569 -0.22410605602893383
vn -0.2086026209380357 0.9554945770954023 -0.2086026358391968
vn 0.6327365791187357 0.6327365791187357 -0.44641778962115714
vn 6.682450084829933e-10 0.9329769522064049 -0.3599361146809913
vn 0.22410605602893383 0.8841507338209569 -0.4099438443677621
vn 0.43612725228888244 0.7871378784062543 -0.43612725228888244
vn -4.737313362388332e-10 0.9861362665964795 -0.16593752951986837
vn 0.20860264879508303 0.9554945681851628 -0.20860264879508303
vn 0.6011713204265231 0.7642260862460699 -0.2335626952183188
vn 0.4099438443677621 0.8841507338209569 -0.22410605602893383
vn 0.8391567246013382 7.803636418748646e-10 -0.5438896869369322
vn 0.7642260862460699 0.2335626952183188 -0.6011713204265231
vn 0.932976962214385 -3.0482576498224635e-9 -0.359936088739679
vn 0.8841507338209569 0.22410605602893383 -0.4099438443677621
vn 0.9861362665964795 1.2944786471399652e-9 -0.16593752951986837
vn 0.9554945711552426 0.20860263454234695 -0.20860264944350798
vn 0.7871378784062543 0.43612725228888244 -0.43612725228888244
vn 0.8841507338209569 0.4099438443677621 -0.22410605602893383
vn 0.7642260862460699 0.6011713204265231 -0.2335626952183188
vn -1 -7.377716215728469e-10 -7.377716215728469e-10
vn -0.9861362641580977 -4.271838466739984e-9 0.16593754401072225
vn -0.9861362641580977 0.16593754401072225 -4.271838466739984e-9
vn -0.9554945711552426 0.20860263454234695 0.20860264944350798
vn -0.932976962214385 4.384747681124887e-9 0.359936088739679
vn -0.884150723019041 0.2241060532909677 0.40994386916168557
vn -0.932976962214385 0.359936088739679 4.527793256675052e-9
vn -0.884150723019041 0.40994386916168557 0.2241060532909677
vn -0.7871378579444395 0.4361272707539849 0.4361272707539849
vn -0.8391567246013382 5.741807987727212e-10 0.5438896869369322
vn -0.7071067513842252 3.01748514448944e-11 0.7071068109888685
vn -0.7642260562020816 0.23356270093743903 0.601171356397343
vn -0.6011713816892633 0.2335627256648324 0.7642260287492415
vn -0.5438896869369322 5.741807987727212e-10 0.8391567246013382
vn -0.359936088739679 -3.0482576498224635e-9 0.932976962214385
vn -0.16593752951986837 1.4903020064462631e-9 0.9861362665964795
vn -0.409943847105728 0.22410602772338914 0.884150739726094
vn -0.20860264944350798 0.20860263454234695 0.9554945711552426
vn -0.6327365552556833 0.4464177727849389 0.6327366148603273
vn -0.4361272707539849 0.4361272707539849 0.7871378579444395
vn -0.22410605602893383 0.4099438443677621 0.8841507338209569
vn 0.7071067811865476 1.7926874736169087e-9 0.7071067811865476
vn -7.377716215728469e-10 -7.377716215728469e-10 1
vn 0.16593754401072225 -4.597621425058112e-9 0.9861362641580977
vn -2.307805295444733e-9 0.16593754401072225 0.9861362641580977
vn 0.20860264944350798 0.20860263454234695 0.9554945711552426
vn 0.5438896869369322 5.741807987727212e-10 0.8391567246013382
vn 0.3599361146809913 4.384747634089999e-9 0.9329769522064049
vn 0.6011713816892633 0.2335627256648324 0.7642260287492415
vn 0.4099438443677621 0.22410605602893383 0.8841507338209569
vn 0.6327365552556833 0.4464177727849389 0.6327366148603273
vn 8.112907577348301e-10 0.359936088739679 0.932976962214385
vn 0.22410602772338914 0.409943847105728 0.884150739726094
vn 0.43612725228888244 0.43612725228888244 0.7871378784062543
vn -0.8391567246013382 0.5438896869369322 5.741807987727212e-10
vn -0.7642260562020816 0.601171356397343 0.23356270093743903
vn -0.7071067513842252 0.7071068109888685 3.01748514448944e-11
vn -0.6327365552556833 0.6327366148603273 0.4464177727849389
vn -0.6011713204265231 0.7642260862460699 0.2335626952183188
vn -0.5438896869369322 0.8391567246013382 7.803636418748646e-10
vn -0.359936088739679 0.932976962214385 -3.0482576498224635e-9
vn -0.16593752951986837 0.9861362665964795 1.4903020064462631e-9
vn -0.409943847105728 0.884150739726094 0.22410602772338914
vn -0.20860264944350798 0.9554945711552426 0.20860263454234695
vn -0.4361272707539849 0.7871378579444395 0.4361272707539849
vn -0.22410605602893383 0.8841507338209569 0.4099438443677621
vn 0.7071067811865476 0.7071067811865476 1.7926874736169087e-9
vn 0.6327365552556833 0.6327366148603273 0.4464177727849389
vn -7.377716215728469e-10 1 -7.377716215728469e-10
vn 0.16593754401072225 0.9861362641580977 -4.597621425058112e-9
vn -2.307805295444733e-9 0.9861362641580977 0.16593754401072225
vn 0.20860264944350798 0.9554945711552426 0.20860263454234695
vn 0.5438896869369322 0.8391567246013382 7.803636418748646e-10
vn 0.6011713204265231 0.7642260862460699 0.2335626952183188
vn 0.3599361146809913 0.9329769522064049 4.384747634089999e-9
vn 0.4099438443677621 0.8841507338209569 0.22410605602893383
vn 8.112907577348301e-10 0.932976962214385 0.359936088739679
vn 0.22410602772338914 0.884150739726094 0.409943847105728
vn 0.43612725228888244 0.7871378784062543 0.43612725228888244
vn -0.44641778962115714 0.6327365791187357 0.6327365791187357
vn -0.23356270930659886 0.6011713183342331 0.7642260835862914
vn -0.23356270930659886 0.7642260835862914 0.6011713183342331
vn -8.510814421209357e-10 0.7071068407911908 0.7071067215818992
vn 0.44641778962115714 0.6327365791187357 0.6327365791187357
vn 5.741807987727212e-10 0.5438896869369322 0.8391567246013382
vn 0.2335626952183188 0.6011713204265231 0.7642260862460699
vn 5.741807987727212e-10 0.8391567246013382 0.5438896869369322
vn 0.2335626952183188 0.7642260862460699 0.6011713204265231
vn 1 -7.377716215728469e-10 -7.377716215728469e-10
vn 0.9861362641580977 -4.271838466739984e-9 0.16593754401072225
vn 0.9861362641580977 0.16593754401072225 -4.271838466739984e-9
vn 0.9554945711552426 0.20860263454234695 0.20860264944350798
vn 0.932976962214385 4.384747681124887e-9 0.359936088739679
vn 0.884150723019041 0.2241060532909677 0.40994386916168557
vn 0.932976962214385 0.359936088739679 4.527793256675052e-9
vn 0.884150723019041 0.40994386916168557 0.2241060532909677
vn 0.7871378784062543 0.43612725228888244 0.43612725228888244
vn 0.8391567246013382 5.741807987727212e-10 0.5438896869369322
vn 0.7642260862460699 0.2335626952183188 0.6011713204265231
vn 0.8391567246013382 0.5438896869369322 5.741807987727212e-10
vn 0.7642260862460699 0.6011713204265231 0.2335626952183188
vn -0.7642257838900983 -0.6011717342507235 -0.23356261938833903
vn -0.7642257838900983 -0.23356261938833903 -0.6011717342507235
vn -0.7871376444757351 -0.43612749319415617 -0.4361274335895101
vn -0.8841506184323272 -0.40994408455782 -0.224106071898519
vn -0.8841506213848958 -0.2241060577457468 -0.409944085926804
vn -0.9554945154764671 -0.20860276950988846 -0.20860276950988846
vn -0.23356270320739145 -0.7642260040248088 -0.6011714218446591
vn 7.803637919291165e-10 -0.83915670696933 -0.5438897141410101
vn -0.23356270320739145 -0.6011714218446591 -0.7642260040248088
vn 7.803637919291165e-10 -0.5438897141410101 -0.83915670696933
vn -0.4464177727849389 -0.6327365552556833 -0.6327366148603273
vn -8.238116441230319e-10 -0.7071067811865476 -0.7071067811865476
vn 0.23356270093743903 -0.7642260562020816 -0.601171356397343
vn 0.23356270093743903 -0.601171356397343 -0.7642260562020816
vn 0.4464177727849389 -0.6327365552556833 -0.6327366148603273
vn -0.43612730276892747 -0.7871379215424991 -0.43612712395499403
vn -0.22410611897436508 -0.8841506873964938 -0.4099439100835081
vn 6.682446199049384e-10 -0.9329769522064049 -0.3599361146809913
vn -0.4099440491119288 -0.8841506658651512 -0.22410594960403507
vn -0.6011711999933181 -0.7642262038994854 -0.23356262023700594
vn -0.20860266564151872 -0.9554945770954011 -0.2086025911357132
vn -2.633586725498492e-9 -0.9861362739116233 -0.16593748604730613
vn -0.6327365040691422 -0.6327366828830765 -0.44641774892188313
vn 0.22410611897436508 -0.8841506873964938 -0.4099439100835081
vn 0.436127356704957 -0.7871379113115845 -0.43612708848406034
vn 0.20860268054267955 -0.9554945770953998 -0.2086025762345518
vn 0.40994405048091176 -0.8841506688177182 -0.2241059354512622
vn 0.6011711999933181 -0.7642262038994854 -0.23356262023700594
vn 0.6327365040691422 -0.6327366828830765 -0.44641774892188313
vn 0.7642258387271755 -0.6011716708957123 -0.23356260303011428
vn -0.43612730276892747 -0.43612712395499403 -0.7871379215424991
vn -0.22410611897436508 -0.4099439100835081 -0.8841506873964938
vn 6.682446199049384e-10 -0.3599361146809913 -0.9329769522064049
vn -0.6327365040691422 -0.44641774892188313 -0.6327366828830765
vn -0.40994409277172233 -0.22410598698188347 -0.8841506361477355
vn -0.6011711999933181 -0.23356262023700594 -0.7642262038994854
vn -0.20860266564151872 -0.2086025911357132 -0.9554945770954011
vn -2.633586725498492e-9 -0.16593748604730613 -0.9861362739116233
vn 0.22410611897436508 -0.4099439100835081 -0.8841506873964938
vn 0.436127356704957 -0.43612708848406034 -0.7871379113115845
vn 0.6327365040691422 -0.44641774892188313 -0.6327366828830765
vn 0.20860268054267955 -0.2086025762345518 -0.9554945770953998
vn 0.4099440955096892 -0.22410595867633717 -0.8841506420528703
vn 0.6011711999933181 -0.23356262023700594 -0.7642262038994854
vn 0.7642258387271755 -0.23356260303011428 -0.6011716708957123
vn 0.7871376444757351 -0.4361274335895101 -0.43612749319415617
vn 0.8841506184323272 -0.40994408455782 -0.224106071898519
vn 0.8841506213848958 -0.2241060577457468 -0.409944085926804
vn 0.9554945154764671 -0.20860276950988846 -0.20860276950988846
vn -0.8391565180528582 -0.5438900056163959 4.4614406014065876e-9
vn -0.7642257865498748 -0.601171736343014 0.23356260530005835
vn -0.9329767989365101 -0.35993651196590587 -3.55380331496349e-9
vn -0.8841506135355428 -0.40994411208970555 0.2241060408550067
vn -0.7871376444757358 -0.4361274633918335 0.4361274633918335
vn -0.9861363170052947 -0.1659372299492588 -3.6202277277969665e-10
vn -0.9554945154764671 -0.20860276950988846 0.20860276950988846
vn -0.8841506184323272 -0.224106071898519 0.40994408455782
vn -0.7642258387271755 -0.23356260303011428 0.6011716708957123
vn -0.3599362903448153 -0.9329768844364864 -1.1764924374530214e-9
vn -0.4099440955096892 -0.8841506420528703 0.22410595867633717
vn -0.5438897561136451 -0.8391566797652508 1.1577166899446334e-9
vn -0.6011712612560677 -0.76422614640267 0.23356265068352308
vn -0.1659375150290144 -0.986136269034861 4.1788453735819954e-10
vn -7.377717325951494e-10 -1 8.88639786755796e-11
vn -0.20860269414699045 -0.9554945711552401 0.20860258983886337
vn -6.695544751561059e-10 -0.986136269034861 0.1659375150290144
vn -0.4361273714981677 -0.787137878406243 0.43612713307958484
vn -0.22410614454194105 -0.8841506706894375 0.40994393213946273
vn 6.682446199049384e-10 -0.9329769522064049 0.3599361146809913
vn -0.7071064831632558 -0.7071070792097137 2.2031400692252748e-10
vn -0.6327365482288454 -0.6327366674381321 0.4464177082226157
vn 0.1659375150290144 -0.986136269034861 2.3819175795883506e-9
vn 0.3599362903448153 -0.9329768844364864 -2.6955093218751603e-9
vn 0.20860269479541538 -0.9554945741253191 0.2086025755861269
vn 0.4099440955096892 -0.8841506420528703 0.22410595867633717
vn 0.5438897561136451 -0.8391566797652508 1.5532953673346415e-9
vn 0.6011712612560677 -0.76422614640267 0.23356265068352308
vn 0.22410611897436508 -0.8841506873964938 0.4099439100835081
vn 0.4361273714981677 -0.787137878406243 0.43612713307958484
vn 0.7071065427679242 -0.7071070196050905 -1.0832821492045203e-9
vn 0.8391565180528582 -0.5438900056163959 4.4614406014065876e-9
vn 0.7642257838900983 -0.6011717342507235 0.23356261938833903
vn 0.6327365482288454 -0.6327366674381321 0.4464177082226157
vn -0.2335627256648324 -0.7642260287492415 0.6011713816892633
vn 5.741809385141942e-10 -0.83915670696933 0.5438897141410101
vn -0.4464177727849389 -0.6327365552556833 0.6327366148603273
vn 9.387020210807578e-10 -0.7071067811865476 0.7071067811865476
vn -0.2335627256648324 -0.6011713816892633 0.7642260287492415
vn 7.803637919291165e-10 -0.5438897141410101 0.83915670696933
vn 0.2335627256648324 -0.7642260287492415 0.6011713816892633
vn 0.44641776575810393 -0.6327365875368447 0.6327365875368447
vn 0.23356271157655234 -0.6011713837815535 0.76422603140902
vn 0.9329767989365101 -0.35993651196590587 -3.55380331496349e-9
vn 0.8841506135355428 -0.40994411208970555 0.2241060408550067
vn 0.7871376876120131 -0.43612742446492225 0.43612742446492225
vn 0.9861363170052947 -0.1659372299492588 -3.6202277277969665e-10
vn 0.9554945154764671 -0.20860276950988846 0.20860276950988846
vn 0.8841506184323272 -0.224106071898519 0.40994408455782
vn -0.6327365124872493 -0.4464177250588295 0.6327366913011859
vn -0.43612736016094766 -0.43612718134701517 0.7871378579444333
vn -0.22410611349843015 -0.40994395967135167 0.8841506657926588
vn 6.682446199049384e-10 -0.3599361146809913 0.9329769522064049
vn -0.6011711999933181 -0.23356262023700594 0.7642262038994854
vn -0.40994409277172233 -0.22410598698188347 0.8841506361477355
vn -0.20860266564151872 -0.2086025911357132 0.9554945770954011
vn -2.633586725498492e-9 -0.16593748604730613 0.9861362739116233
vn 0.6327365040691422 -0.44641774892188313 0.6327366828830765
vn 0.4361273714981677 -0.43612713307958484 0.787137878406243
vn 0.22410611897436508 -0.4099439100835081 0.8841506873964938
vn 0.7642258387271755 -0.23356260303011428 0.6011716708957123
vn 0.20860266628994356 -0.20860257688297665 0.9554945800654802
vn 0.40994409277172233 -0.22410598698188347 0.8841506361477355
vn 0.6011711999933181 -0.23356262023700594 0.7642262038994854
vn -0.8391565180528582 4.4614406014065876e-9 -0.5438900056163959
vn -0.7642257865498748 0.23356260530005835 -0.601171736343014
vn -0.9329767889285198 -3.5538028327528263e-9 -0.3599365379072095
vn -0.8841506184323272 0.224106071898519 -0.40994408455782
vn -0.9861363170052947 -6.137005346807802e-10 -0.1659372299492588
vn -0.9554945214166302 0.20860275590557875 -0.20860275590557875
vn -0.7871376444757358 0.4361274633918335 -0.4361274633918335
vn -0.8841506184323272 0.40994408455782 -0.224106071898519
vn -0.7642258387271755 0.6011716708957123 -0.23356260303011428
vn -0.3599362903448153 -1.1764924374530214e-9 -0.9329768844364864
vn -0.5438897561136451 1.1577166899446334e-9 -0.8391566797652508
vn -0.4099440955096892 0.22410595867633717 -0.8841506420528703
vn -0.6011711999933181 0.23356262023700594 -0.7642262038994854
vn -0.1659375150290144 4.1788453735819954e-10 -0.986136269034861
vn -7.377717325951494e-10 8.88639786755796e-11 -1
vn -0.20860269414699045 0.20860258983886337 -0.9554945711552401
vn -6.695544751561059e-10 0.1659375150290144 -0.986136269034861
vn -0.7071064831632558 2.2031400692252748e-10 -0.7071070792097137
vn -0.4361273714981677 0.43612713307958484 -0.787137878406243
vn -0.22410614454194105 0.40994393213946273 -0.8841506706894375
vn 6.682446199049384e-10 0.3599361146809913 -0.9329769522064049
vn -0.6327365279321955 0.4464177657581024 -0.6327366471414895
vn 0.1659375150290144 2.3819175795883506e-9 -0.986136269034861
vn 0.3599362903448153 -2.6955093218751603e-9 -0.9329768844364864
vn 0.5438897561136451 1.5532953673346415e-9 -0.8391566797652508
vn 0.20860269479541538 0.2086025755861269 -0.9554945741253191
vn 0.4099440955096892 0.22410595867633717 -0.8841506420528703
vn 0.6011712612560677 0.23356265068352308 -0.76422614640267
vn 0.7071065427679242 -1.5421979513132254e-9 -0.7071070196050905
vn 0.8391565180528582 4.4614406014065876e-9 -0.5438900056163959
vn 0.7642257838900983 0.23356261938833903 -0.6011717342507235
vn 0.22410611897436508 0.4099439100835081 -0.8841506873964938
vn 0.4361273714981677 0.43612713307958484 -0.787137878406243
vn 0.6327365279321955 0.4464177657581024 -0.6327366471414895
vn 0.9329767889285198 -3.5538028327528263e-9 -0.3599365379072095
vn 0.8841506184323272 0.224106071898519 -0.40994408455782
vn 0.9861363170052947 -6.137005346807802e-10 -0.1659372299492588
vn 0.9554945214166302 0.20860275590557875 -0.20860275590557875
vn 0.7871376444757358 0.4361274633918335 -0.4361274633918335
vn 0.8841506184323272 0.40994408455782 -0.224106071898519
vn -0.23356270320739145 0.6011714218446591 -0.7642260040248088
vn 5.741809385141942e-10 0.5438897141410101 -0.83915670696933
vn -0.4464177727849389 0.6327366148603273 -0.6327365552556833
vn 9.387020210807578e-10 0.7071067811865476 -0.7071067811865476
vn -0.23356270093743903 0.7642260562020816 -0.601171356397343
vn 7.803637919291165e-10 0.83915670696933 -0.5438897141410101
vn 0.23356270320739145 0.6011714218446591 -0.7642260040248088
vn 0.44641776575810393 0.6327365875368447 -0.6327365875368447
vn 0.23356271157655234 0.76422603140902 -0.6011713837815535
vn -0.6327365124872493 0.6327366913011859 -0.4464177250588295
vn -0.43612736016094766 0.7871378579444333 -0.43612718134701517
vn -0.22410611349843015 0.8841506657926588 -0.40994395967135167
vn 6.682446199049384e-10 0.9329769522064049 -0.3599361146809913
vn -0.601171265440646 0.764226151722226 -0.2335626225069619
vn -0.40994409277172233 0.8841506361477355 -0.22410598698188347
vn -0.20860266564151872 0.9554945770954011 -0.2086025911357132
vn -2.633586725498492e-9 0.9861362739116233 -0.16593748604730613
vn 0.6327365040691422 0.6327366828830765 -0.44641774892188313
vn 0.7642257865498748 0.601171736343014 -0.23356260530005835
vn 0.4361273714981677 0.787137878406243 -0.43612713307958484
vn 0.22410611897436508 0.8841506873964938 -0.4099439100835081
vn 0.20860266628994356 0.9554945800654802 -0.20860257688297665
vn 0.40994409277172233 0.8841506361477355 -0.22410598698188347
vn 0.601171265440646 0.764226151722226 -0.2335626225069619
vn -1 -5.638008393482608e-10 -5.638008393482608e-10
vn -0.9861363145669172 -2.3312109956655957e-9 0.16593724444011398
vn -0.9861363145669172 0.16593724444011398 -2.3312109956655957e-9
vn -0.9554945214166302 0.20860275590557875 0.20860275590557875
vn -0.9329767889285198 3.8792009879242855e-9 0.3599365379072095
vn -0.8841506184323272 0.224106071898519 0.40994408455782
vn -0.9329767989365101 0.35993651196590587 3.709129736123562e-9
vn -0.8841506184323272 0.40994408455782 0.224106071898519
vn -0.7871376671501955 0.4361274429300155 0.4361274429300155
vn -0.8391565180528582 -2.793377783311252e-9 0.5438900056163959
vn -0.7642257865498748 0.23356260530005835 0.601171736343014
vn -0.8391565180528582 0.5438900056163959 -2.793377783311252e-9
vn -0.7642257865498748 0.601171736343014 0.23356260530005835
vn 1 -5.638008393482608e-10 -5.638008393482608e-10
vn 0.9861363145669172 -2.3312109956655957e-9 0.16593724444011398
vn 0.9861363145669172 0.16593724444011398 -2.3312109956655957e-9
vn 0.9554945214166302 0.20860275590557875 0.20860275590557875
vn 0.9329767889285198 3.8792009879242855e-9 0.3599365379072095
vn 0.8841506184323272 0.224106071898519 0.40994408455782
vn 0.9329767989365101 0.35993651196590587 3.709129736123562e-9
vn 0.8841506184323272 0.40994408455782 0.224106071898519
vn 0.7871376671501955 0.4361274429300155 0.4361274429300155
vn -0.7071064831632558 6.503996341788616e-10 0.7071070792097137
vn -0.5438897561136451 -4.2045233585617095e-9 0.8391566797652508
vn -0.3599362903448153 -1.1764924374530214e-9 0.9329768844364864
vn -0.601171263348357 0.2335626365952426 0.7642261490624481
vn -0.4099440955096892 0.22410595867633717 0.8841506420528703
vn -0.1659375150290144 4.1788453735819954e-10 0.986136269034861
vn -7.377717325951494e-10 8.88639786755796e-11 1
vn -0.20860269414699045 0.20860258983886337 0.9554945711552401
vn -6.695544751561059e-10 0.1659375150290144 0.986136269034861
vn -0.6327365124872493 0.4464177250588295 0.6327366913011859
vn -0.4361273714981677 0.43612713307958484 0.787137878406243
vn -0.22410614180397326 0.40994395693338403 0.8841506598875201
vn 6.682446199049384e-10 0.3599361146809913 0.9329769522064049
vn 0.8391565180528582 -2.793377783311252e-9 0.5438900056163959
vn 0.7071065427679242 6.503996896900346e-10 0.7071070196050905
vn 0.7642257865498748 0.23356260530005835 0.601171736343014
vn 0.5438897561136451 1.5532953673346415e-9 0.8391566797652508
vn 0.1659375150290144 2.3819175795883506e-9 0.986136269034861
vn 0.3599362903448153 -2.6955093218751603e-9 0.9329768844364864
vn 0.20860268054267955 0.2086025762345518 0.9554945770953998
vn 0.4099440955096892 0.22410595867633717 0.8841506420528703
vn 0.601171265440646 0.2335626225069619 0.764226151722226
vn 0.6327365279321955 0.4464177657581024 0.6327366471414895
vn 0.43612730276892747 0.43612712395499403 0.7871379215424991
vn 0.22410611897436508 0.4099439100835081 0.8841506873964938
vn -0.7071064831632558 0.7071070792097137 6.503996341788616e-10
vn -0.6327365124872493 0.6327366913011859 0.4464177250588295
vn -0.5438897561136451 0.8391566797652508 -4.103501057828817e-9
vn -0.6011712612560677 0.76422614640267 0.23356265068352308
vn -0.3599362903448153 0.9329768844364864 -1.1764924374530214e-9
vn -0.4099440955096892 0.8841506420528703 0.22410595867633717
vn -0.1659375150290144 0.986136269034861 4.1788453735819954e-10
vn -7.377717325951494e-10 1 8.88639786755796e-11
vn -0.20860269414699045 0.9554945711552401 0.20860258983886337
vn -6.695544751561059e-10 0.986136269034861 0.1659375150290144
vn -0.4361273714981677 0.787137878406243 0.43612713307958484
vn -0.22410614180397326 0.8841506598875201 0.40994395693338403
vn 6.682446199049384e-10 0.9329769522064049 0.3599361146809913
vn 0.8391565180528582 0.5438900056163959 -2.793377783311252e-9
vn 0.7642257865498748 0.601171736343014 0.23356260530005835
vn 0.7071064831632558 0.7071070792097137 6.503996341788616e-10
vn 0.6327365279321955 0.6327366471414895 0.4464177657581024
vn 0.5438897141410101 0.83915670696933 6.595886769589298e-10
vn 0.1659375150290144 0.986136269034861 2.3819175795883506e-9
vn 0.3599362903448153 0.9329768844364864 -2.6955093218751603e-9
vn 0.20860268054267955 0.9554945770953998 0.2086025762345518
vn 0.4099440955096892 0.8841506420528703 0.22410595867633717
vn 0.6011711958087405 0.7642261985799293 0.23356264841356694
vn 0.43612730276892747 0.7871379215424991 0.43612712395499403
vn 0.22410611897436508 0.8841506873964938 0.4099439100835081
vn -0.44641776575810393 0.6327365875368447 0.6327365875368447
vn 9.387020210807578e-10 0.7071067811865476 0.7071067811865476
vn -0.2335627256648324 0.6011713816892633 0.7642260287492415
vn 5.741809385141942e-10 0.5438897141410101 0.83915670696933
vn -0.2335627256648324 0.7642260287492415 0.6011713816892633
vn 5.741809385141942e-10 0.83915670696933 0.5438897141410101
vn 0.4464177727849389 0.6327365552556833 0.6327366148603273
vn 0.23356270093743903 0.601171356397343 0.7642260562020816
vn 0.23356270093743903 0.7642260562020816 0.601171356397343
f 1//1 4//4 10//10
f 25//25 6//6 2//2
f 15//15 27//27 3//3
f 15//15 40//40 27//27
f 2//2 8//8 1//1
f 2//2 1//1 3//3
f 11//11 15//15 3//3
f 11//11 3//3 1//1
f 3//3 27//27 26//26
f 3//3 26//26 2//2
f 8//8 4//4 1//1
f 5//5 4//4 8//8
f 18//18 4//4 5//5
f 6//6 8//8 2//2
f 7//7 8//8 6//6
f 7//7 6//6 33//33
f 5//5 8//8 7//7
f 9//9 5//5 7//7
f 19//19 5//5 9//9
f 24//24 19//19 9//9
f 9//9 7//7 34//34
f 35//35 9//9 34//34
f 24//24 9//9 35//35
f 46//46 24//24 35//35
f 10//10 17//17 14//14
f 10//10 14//14 13//13
f 1//1 10//10 11//11
f 13//13 11//11 10//10
f 13//13 12//12 11//11
f 55//55 58//58 12//12
f 14//14 20//20 52//52
f 51//51 13//13 14//14
f 51//51 55//55 13//13
f 14//14 52//52 51//51
f 55//55 12//12 13//13
f 12//12 16//16 15//15
f 16//16 40//40 15//15
f 12//12 15//15 11//11
f 58//58 16//16 12//12
f 59//59 41//41 16//16
f 58//58 59//59 16//16
f 4//4 17//17 10//10
f 18//18 17//17 4//4
f 17//17 20//20 14//14
f 21//21 20//20 17//17
f 21//21 17//17 18//18
f 22//22 21//21 18//18
f 19//19 18//18 5//5
f 22//22 18//18 19//19
f 23//23 22//22 19//19
f 63//63 20//20 21//21
f 20//20 62//62 52//52
f 63//63 62//62 20//20
f 66//66 63//63 21//21
f 66//66 21//21 22//22
f 68//68 66//66 22//22
f 68//68 22//22 23//23
f 73//73 68//68 23//23
f 23//23 19//19 24//24
f 44//44 23//23 24//24
f 44//44 24//24 46//46
f 73//73 23//23 44//44
f 25//25 2//2 26//26
f 30//30 32//32 25//25
f 30//30 25//25 29//29
f 26//26 29//29 25//25
f 26//26 28//28 29//29
f 27//27 31//31 28//28
f 40//40 31//31 27//27
f 27//27 28//28 26//26
f 28//28 120//120 117//117
f 116//116 36//36 30//30
f 29//29 115//115 30//30
f 28//28 117//117 29//29
f 29//29 117//117 115//115
f 116//116 30//30 115//115
f 31//31 120//120 28//28
f 42//42 121//121 31//31
f 31//31 121//121 120//120
f 32//32 6//6 25//25
f 33//33 6//6 32//32
f 34//34 7//7 33//33
f 36//36 32//32 30//30
f 36//36 37//37 32//32
f 33//33 32//32 37//37
f 37//37 38//38 33//33
f 34//34 33//33 38//38
f 38//38 39//39 34//34
f 35//35 34//34 39//39
f 39//39 45//45 35//35
f 46//46 35//35 45//45
f 36//36 127//127 37//37
f 116//116 126//126 36//36
f 36//36 126//126 127//127
f 127//127 130//130 37//37
f 37//37 130//130 38//38
f 38//38 131//131 39//39
f 130//130 131//131 38//38
f 131//131 134//134 39//39
f 39//39 134//134 45//45
f 16//16 41//41 40//40
f 40//40 42//42 31//31
f 41//41 42//42 40//40
f 41//41 43//43 42//42
f 59//59 84//84 41//41
f 84//84 43//43 41//41
f 84//84 87//87 43//43
f 43//43 139//139 42//42
f 42//42 139//139 121//121
f 43//43 141//141 139//139
f 87//87 141//141 43//43
f 87//87 178//178 141//141
f 105//105 44//44 47//47
f 105//105 73//73 44//44
f 45//45 169//169 48//48
f 134//134 169//169 45//45
f 47//47 44//44 46//46
f 45//45 48//48 46//46
f 47//47 46//46 48//48
f 48//48 49//49 47//47
f 107//107 105//105 47//47
f 107//107 47//47 49//49
f 49//49 110//110 107//107
f 48//48 171//171 49//49
f 169//169 171//171 48//48
f 171//171 173//173 49//49
f 49//49 173//173 110//110
f 173//173 246//246 110//110
f 50//50 58//58 55//55
f 53//53 55//55 51//51
f 52//52 54//54 51//51
f 52//52 64//64 54//54
f 53//53 51//51 54//54
f 50//50 55//55 53//53
f 54//54 56//56 53//53
f 54//54 70//70 56//56
f 57//57 50//50 53//53
f 57//57 53//53 56//56
f 56//56 75//75 57//57
f 60//60 58//58 50//50
f 60//60 59//59 58//58
f 85//85 59//59 60//60
f 61//61 60//60 50//50
f 86//86 60//60 61//61
f 61//61 50//50 57//57
f 52//52 62//62 64//64
f 64//64 62//62 63//63
f 65//65 63//63 66//66
f 64//64 63//63 65//65
f 67//67 66//66 68//68
f 65//65 66//66 67//67
f 69//69 68//68 73//73
f 67//67 68//68 69//69
f 64//64 70//70 54//54
f 70//70 64//64 65//65
f 71//71 65//65 67//67
f 70//70 65//65 71//71
f 70//70 78//78 56//56
f 78//78 70//70 71//71
f 79//79 71//71 72//72
f 72//72 67//67 69//69
f 71//71 67//67 72//72
f 69//69 73//73 106//106
f 72//72 69//69 74//74
f 74//74 69//69 106//106
f 74//74 106//106 109//109
f 56//56 78//78 75//75
f 90//90 61//61 76//76
f 90//90 86//86 61//61
f 76//76 61//61 57//57
f 76//76 57//57 75//75
f 75//75 80//80 77//77
f 75//75 77//77 76//76
f 91//91 90//90 76//76
f 91//91 76//76 77//77
f 77//77 82//82 92//92
f 78//78 80//80 75//75
f 80//80 78//78 79//79
f 78//78 71//71 79//79
f 80//80 79//79 83//83
f 83//83 79//79 81//81
f 79//79 72//72 81//81
f 81//81 72//72 74//74
f 81//81 74//74 97//97
f 97//97 74//74 109//109
f 83//83 81//81 100//100
f 100//100 81//81 97//97
f 80//80 82//82 77//77
f 82//82 80//80 83//83
f 82//82 83//83 99//99
f 85//85 84//84 59//59
f 88//88 87//87 84//84
f 88//88 84//84 85//85
f 86//86 85//85 60//60
f 89//89 85//85 86//86
f 89//89 88//88 85//85
f 93//93 89//89 86//86
f 179//179 87//87 88//88
f 179//179 178//178 87//87
f 182//182 88//88 89//89
f 182//182 179//179 88//88
f 187//187 182//182 89//89
f 93//93 86//86 90//90
f 94//94 93//93 90//90
f 94//94 90//90 91//91
f 77//77 92//92 91//91
f 95//95 91//91 92//92
f 95//95 94//94 91//91
f 92//92 98//98 96//96
f 92//92 96//96 95//95
f 187//187 89//89 93//93
f 188//188 93//93 94//94
f 188//188 187//187 93//93
f 191//191 188//188 94//94
f 191//191 94//94 95//95
f 192//192 95//95 96//96
f 96//96 101//101 193//193
f 192//192 191//191 95//95
f 96//96 193//193 192//192
f 97//97 109//109 113//113
f 100//100 97//97 103//103
f 113//113 103//103 97//97
f 99//99 83//83 100//100
f 82//82 98//98 92//92
f 98//98 82//82 99//99
f 98//98 101//101 96//96
f 102//102 101//101 98//98
f 98//98 99//99 102//102
f 104//104 102//102 99//99
f 99//99 100//100 104//104
f 103//103 104//104 100//100
f 113//113 199//199 103//103
f 102//102 201//201 101//101
f 101//101 200//200 193//193
f 201//201 200//200 101//101
f 205//205 201//201 102//102
f 103//103 204//204 104//104
f 104//104 205//205 102//102
f 199//199 204//204 103//103
f 204//204 205//205 104//104
f 106//106 73//73 105//105
f 106//106 105//105 108//108
f 108//108 105//105 107//107
f 110//110 111//111 107//107
f 108//108 107//107 111//111
f 109//109 106//106 108//108
f 109//109 108//108 112//112
f 111//111 112//112 108//108
f 112//112 113//113 109//109
f 110//110 247//247 111//111
f 110//110 246//246 247//247
f 111//111 250//250 112//112
f 247//247 250//250 111//111
f 250//250 255//255 112//112
f 112//112 255//255 113//113
f 255//255 199//199 113//113
f 117//117 120//120 114//114
f 115//115 117//117 118//118
f 116//116 115//115 119//119
f 128//128 116//116 119//119
f 119//119 115//115 118//118
f 118//118 117//117 114//114
f 120//120 121//121 122//122
f 114//114 120//120 122//122
f 122//122 121//121 140//140
f 119//119 118//118 123//123
f 123//123 135//135 119//119
f 118//118 114//114 124//124
f 124//124 123//123 118//118
f 124//124 145//145 123//123
f 114//114 122//122 125//125
f 143//143 125//125 122//122
f 125//125 124//124 114//114
f 128//128 126//126 116//116
f 127//127 126//126 128//128
f 127//127 129//129 130//130
f 127//127 128//128 129//129
f 132//132 131//131 130//130
f 133//133 134//134 131//131
f 132//132 130//130 129//129
f 133//133 131//131 132//132
f 170//170 134//134 133//133
f 128//128 119//119 135//135
f 128//128 135//135 129//129
f 129//129 136//136 132//132
f 129//129 135//135 136//136
f 123//123 148//148 135//135
f 135//135 148//148 136//136
f 136//136 149//149 137//137
f 137//137 133//133 132//132
f 137//137 132//132 136//136
f 138//138 170//170 133//133
f 138//138 133//133 137//137
f 175//175 170//170 138//138
f 121//121 139//139 140//140
f 139//139 141//141 142//142
f 140//140 139//139 142//142
f 141//141 178//178 180//180
f 142//142 141//141 180//180
f 122//122 140//140 143//143
f 140//140 142//142 144//144
f 144//144 143//143 140//140
f 144//144 155//155 143//143
f 184//184 144//144 142//142
f 142//142 180//180 184//184
f 184//184 212//212 144//144
f 145//145 148//148 123//123
f 143//143 154//154 125//125
f 154//154 146//146 125//125
f 125//125 146//146 124//124
f 146//146 145//145 124//124
f 146//146 147//147 145//145
f 147//147 150//150 145//145
f 154//154 156//156 146//146
f 156//156 147//147 146//146
f 157//157 152//152 147//147
f 145//145 150//150 148//148
f 148//148 150//150 149//149
f 136//136 148//148 149//149
f 149//149 153//153 151//151
f 149//149 150//150 153//153
f 151//151 137//137 149//149
f 151//151 138//138 137//137
f 161//161 175//175 138//138
f 161//161 138//138 151//151
f 164//164 151//151 153//153
f 164//164 161//161 151//151
f 147//147 152//152 150//150
f 150//150 152//152 153//153
f 153//153 152//152 163//163
f 155//155 154//154 143//143
f 155//155 158//158 154//154
f 158//158 156//156 154//154
f 212//212 155//155 144//144
f 212//212 214//214 155//155
f 214//214 158//158 155//155
f 156//156 157//157 147//147
f 159//159 157//157 156//156
f 158//158 159//159 156//156
f 160//160 162//162 157//157
f 159//159 160//160 157//157
f 214//214 217//217 158//158
f 217//217 159//159 158//158
f 218//218 160//160 159//159
f 219//219 165//165 160//160
f 217//217 218//218 159//159
f 218//218 219//219 160//160
f 177//177 175//175 161//161
f 167//167 177//177 161//161
f 167//167 161//161 164//164
f 224//224 177//177 167//167
f 153//153 163//163 164//164
f 157//157 162//162 152//152
f 152//152 162//162 163//163
f 160//160 165//165 162//162
f 162//162 165//165 166//166
f 163//163 162//162 166//166
f 163//163 166//166 168//168
f 168//168 164//164 163//163
f 168//168 167//167 164//164
f 166//166 165//165 227//227
f 219//219 226//226 165//165
f 165//165 226//226 227//227
f 166//166 227//227 232//232
f 230//230 167//167 168//168
f 230//230 224//224 167//167
f 232//232 168//168 166//166
f 232//232 230//230 168//168
f 170//170 169//169 134//134
f 172//172 169//169 170//170
f 172//172 171//171 169//169
f 174//174 173//173 171//171
f 174//174 171//171 172//172
f 248//248 246//246 173//173
f 248//248 173//173 174//174
f 175//175 172//172 170//170
f 176//176 174//174 172//172
f 176//176 172//172 175//175
f 177//177 176//176 175//175
f 252//252 174//174 176//176
f 252//252 248//248 174//174
f 257//257 252//252 176//176
f 257//257 176//176 177//177
f 224//224 257//257 177//177
f 180//180 178//178 179//179
f 180//180 179//179 181//181
f 179//179 182//182 181//181
f 182//182 187//187 183//183
f 181//181 182//182 183//183
f 180//180 181//181 184//184
f 185//185 184//184 181//181
f 185//185 212//212 184//184
f 181//181 183//183 185//185
f 186//186 185//185 183//183
f 183//183 189//189 186//186
f 186//186 213//213 185//185
f 187//187 188//188 189//189
f 183//183 187//187 189//189
f 189//189 188//188 190//190
f 188//188 191//191 190//190
f 191//191 192//192 194//194
f 192//192 193//193 195//195
f 190//190 191//191 194//194
f 194//194 192//192 195//195
f 195//195 193//193 202//202
f 196//196 186//186 189//189
f 189//189 190//190 196//196
f 197//197 196//196 190//190
f 190//190 194//194 197//197
f 198//198 197//197 194//194
f 194//194 195//195 198//198
f 209//209 198//198 195//195
f 198//198 238//238 197//197
f 199//199 256//256 206//206
f 193//193 200//200 202//202
f 202//202 200//200 201//201
f 203//203 201//201 205//205
f 203//203 202//202 201//201
f 204//204 199//199 206//206
f 205//205 204//204 207//207
f 204//204 206//206 207//207
f 205//205 207//207 203//203
f 256//256 254//254 208//208
f 206//206 256//256 208//208
f 206//206 208//208 211//211
f 195//195 202//202 209//209
f 209//209 202//202 203//203
f 210//210 203//203 207//207
f 210//210 209//209 203//203
f 243//243 210//210 211//211
f 209//209 242//242 198//198
f 242//242 209//209 210//210
f 207//207 206//206 211//211
f 207//207 211//211 210//210
f 213//213 214//214 212//212
f 213//213 212//212 185//185
f 216//216 214//214 213//213
f 215//215 213//213 186//186
f 215//215 216//216 213//213
f 222//222 216//216 215//215
f 216//216 217//217 214//214
f 220//220 217//217 216//216
f 220//220 218//218 217//217
f 221//221 219//219 218//218
f 221//221 218//218 220//220
f 228//228 219//219 221//221
f 222//222 220//220 216//216
f 223//223 220//220 222//222
f 239//239 223//223 222//222
f 223//223 221//221 220//220
f 234//234 221//221 223//223
f 258//258 224//224 231//231
f 254//254 258//258 225//225
f 225//225 258//258 231//231
f 225//225 231//231 236//236
f 228//228 226//226 219//219
f 227//227 226//226 228//228
f 227//227 229//229 232//232
f 227//227 228//228 229//229
f 231//231 224//224 230//230
f 231//231 230//230 233//233
f 233//233 230//230 232//232
f 233//233 232//232 229//229
f 235//235 245//245 236//236
f 234//234 228//228 221//221
f 228//228 234//234 229//229
f 229//229 235//235 233//233
f 229//229 234//234 235//235
f 244//244 234//234 223//223
f 234//234 244//244 235//235
f 236//236 231//231 233//233
f 236//236 233//233 235//235
f 196//196 215//215 186//186
f 237//237 215//215 196//196
f 197//197 237//237 196//196
f 238//238 237//237 197//197
f 237//237 222//222 215//215
f 239//239 222//222 237//237
f 238//238 239//239 237//237
f 240//240 239//239 238//238
f 242//242 238//238 198//198
f 244//244 223//223 239//239
f 245//245 243//243 241//241
f 245//245 240//240 243//243
f 208//208 254//254 225//225
f 208//208 225//225 241//241
f 211//211 241//241 243//243
f 211//211 208//208 241//241
f 241//241 236//236 245//245
f 241//241 225//225 236//236
f 242//242 240//240 238//238
f 240//240 242//242 243//243
f 243//243 242//242 210//210
f 240//240 244//244 239//239
f 244//244 240//240 245//245
f 235//235 244//244 245//245
f 247//247 246//246 248//248
f 247//247 248//248 249//249
f 250//250 247//247 249//249
f 255//255 250//250 251//251
f 250//250 249//249 251//251
f 249//249 248//248 252//252
f 249//249 252//252 253//253
f 253//253 252//252 257//257
f 251//251 249//249 253//253
f 251//251 253//253 254//254
f 256//256 251//251 254//254
f 254//254 253//253 258//258
f 199//199 255//255 256//256
f 255//255 251//251 256//256
f 258//258 257//257 224//224
f 253//253 257//257 258//258
f 308//308 262//262 259//259
f 328//328 308//308 259//259
f 263//263 372//372 260//260
f 260//260 372//372 389//389
f 259//259 262//262 261//261
f 261//261 263//263 260//260
f 262//262 263//263 261//261
f 262//262 264//264 263//263
f 308//308 310//310 262//262
f 310//310 264//264 262//262
f 310//310 313//313 264//264
f 264//264 374//374 263//263
f 263//263 374//374 372//372
f 264//264 376//376 374//374
f 313//313 376//376 264//264
f 313//313 436//436 376//376
f 265//265 266//266 275//275
f 270//270 266//266 265//265
f 271//271 266//266 270//270
f 290//290 268//268 267//267
f 268//268 270//270 267//267
f 272//272 270//270 268//268
f 274//274 281//281 269//269
f 274//274 269//269 265//265
f 269//269 292//292 289//289
f 269//269 289//289 267//267
f 281//281 292//292 269//269
f 281//281 261//261 292//292
f 267//267 270//270 265//265
f 267//267 265//265 269//269
f 282//282 266//266 271//271
f 272//272 268//268 297//297
f 271//271 270//270 272//272
f 273//273 271//271 272//272
f 283//283 271//271 273//273
f 287//287 283//283 273//273
f 273//273 272//272 298//298
f 299//299 273//273 298//298
f 287//287 273//273 299//299
f 304//304 287//287 299//299
f 277//277 274//274 275//275
f 277//277 278//278 274//274
f 266//266 276//276 275//275
f 282//282 276//276 266//266
f 275//275 276//276 279//279
f 275//275 279//279 277//277
f 276//276 280//280 279//279
f 284//284 280//280 276//276
f 265//265 275//275 274//274
f 317//317 277//277 279//279
f 317//317 319//319 277//277
f 319//319 278//278 277//277
f 319//319 328//328 278//278
f 279//279 280//280 321//321
f 279//279 321//321 317//317
f 280//280 322//322 321//321
f 330//330 322//322 280//280
f 278//278 281//281 274//274
f 278//278 259//259 281//281
f 259//259 261//261 281//281
f 328//328 259//259 278//278
f 284//284 276//276 282//282
f 285//285 284//284 282//282
f 283//283 282//282 271//271
f 285//285 282//282 283//283
f 286//286 285//285 283//283
f 330//330 280//280 284//284
f 331//331 284//284 285//285
f 331//331 330//330 284//284
f 334//334 331//331 285//285
f 334//334 285//285 286//286
f 338//338 334//334 286//286
f 286//286 283//283 287//287
f 288//288 286//286 287//287
f 288//288 287//287 304//304
f 338//338 286//286 288//288
f 339//339 288//288 305//305
f 339//339 338//338 288//288
f 289//289 293//293 290//290
f 289//289 294//294 293//293
f 291//291 268//268 290//290
f 297//297 268//268 291//291
f 290//290 267//267 289//289
f 295//295 291//291 290//290
f 295//295 290//290 293//293
f 296//296 291//291 295//295
f 296//296 300//300 291//291
f 292//292 294//294 289//289
f 292//292 260//260 294//294
f 261//261 260//260 292//292
f 293//293 381//381 295//295
f 294//294 382//382 293//293
f 293//293 382//382 381//381
f 294//294 389//389 382//382
f 385//385 296//296 295//295
f 385//385 295//295 381//381
f 385//385 386//386 296//296
f 296//296 386//386 394//394
f 260//260 389//389 294//294
f 298//298 272//272 297//297
f 297//297 291//291 300//300
f 300//300 301//301 297//297
f 298//298 297//297 301//301
f 301//301 302//302 298//298
f 299//299 298//298 302//302
f 302//302 303//303 299//299
f 304//304 299//299 303//303
f 296//296 394//394 300//300
f 300//300 395//395 301//301
f 301//301 396//396 302//302
f 394//394 395//395 300//300
f 395//395 396//396 301//301
f 396//396 400//400 302//302
f 302//302 400//400 303//303
f 303//303 401//401 306//306
f 400//400 401//401 303//303
f 305//305 288//288 304//304
f 303//303 306//306 304//304
f 305//305 304//304 306//306
f 306//306 307//307 305//305
f 351//351 339//339 305//305
f 351//351 305//305 307//307
f 307//307 354//354 351//351
f 306//306 406//406 307//307
f 401//401 406//406 306//306
f 406//406 408//408 307//307
f 307//307 408//408 354//354
f 408//408 449//449 354//354
f 309//309 308//308 328//328
f 311//311 308//308 309//309
f 311//311 310//310 308//308
f 314//314 313//313 310//310
f 314//314 310//310 311//311
f 312//312 311//311 309//309
f 315//315 311//311 312//312
f 315//315 314//314 311//311
f 316//316 315//315 312//312
f 437//437 313//313 314//314
f 437//437 436//436 313//313
f 440//440 314//314 315//315
f 440//440 437//437 314//314
f 445//445 440//440 315//315
f 445//445 315//315 316//316
f 458//458 445//445 316//316
f 318//318 319//319 317//317
f 318//318 317//317 323//323
f 320//320 328//328 319//319
f 320//320 319//319 318//318
f 321//321 323//323 317//317
f 321//321 322//322 324//324
f 324//324 322//322 330//330
f 321//321 324//324 323//323
f 325//325 320//320 318//318
f 325//325 318//318 326//326
f 323//323 326//326 318//318
f 323//323 327//327 326//326
f 324//324 327//327 323//323
f 327//327 324//324 332//332
f 327//327 343//343 326//326
f 343//343 327//327 336//336
f 326//326 342//342 325//325
f 309//309 328//328 320//320
f 329//329 320//320 325//325
f 329//329 309//309 320//320
f 312//312 309//309 329//329
f 332//332 330//330 331//331
f 333//333 331//331 334//334
f 324//324 330//330 332//332
f 332//332 331//331 333//333
f 333//333 334//334 335//335
f 335//335 334//334 338//338
f 336//336 332//332 333//333
f 327//327 332//332 336//336
f 337//337 333//333 335//335
f 336//336 333//333 337//337
f 348//348 336//336 337//337
f 335//335 338//338 340//340
f 340//340 338//338 339//339
f 340//340 339//339 352//352
f 337//337 335//335 341//341
f 341//341 335//335 340//340
f 341//341 340//340 353//353
f 326//326 343//343 342//342
f 343//343 345//345 342//342
f 345//345 343//343 348//348
f 344//344 329//329 325//325
f 344//344 325//325 342//342
f 357//357 329//329 344//344
f 357//357 312//312 329//329
f 358//358 357//357 344//344
f 358//358 344//344 346//346
f 342//342 345//345 346//346
f 342//342 346//346 344//344
f 346//346 347//347 359//359
f 345//345 347//347 346//346
f 347//347 345//345 350//350
f 343//343 336//336 348//348
f 348//348 337//337 349//349
f 349//349 337//337 341//341
f 345//345 348//348 350//350
f 350//350 348//348 349//349
f 350//350 349//349 366//366
f 366//366 349//349 365//365
f 349//349 341//341 365//365
f 365//365 341//341 353//353
f 347//347 350//350 367//367
f 352//352 339//339 351//351
f 354//354 355//355 351//351
f 352//352 351//351 355//355
f 353//353 340//340 352//352
f 353//353 352//352 356//356
f 355//355 356//356 352//352
f 356//356 368//368 353//353
f 354//354 450//450 355//355
f 354//354 449//449 450//450
f 355//355 453//453 356//356
f 450//450 453//453 355//355
f 453//453 471//471 356//356
f 316//316 312//312 357//357
f 361//361 357//357 358//358
f 361//361 316//316 357//357
f 362//362 358//358 359//359
f 362//362 361//361 358//358
f 346//346 359//359 358//358
f 347//347 360//360 359//359
f 360//360 347//347 367//367
f 359//359 360//360 363//363
f 359//359 363//363 362//362
f 360//360 364//364 363//363
f 369//369 364//364 360//360
f 458//458 316//316 361//361
f 459//459 361//361 362//362
f 460//460 362//362 363//363
f 459//459 458//458 361//361
f 460//460 459//459 362//362
f 363//363 364//364 463//463
f 363//363 463//463 460//460
f 364//364 464//464 463//463
f 475//475 464//464 364//364
f 366//366 365//365 371//371
f 365//365 353//353 368//368
f 368//368 371//371 365//365
f 367//367 350//350 366//366
f 367//367 366//366 370//370
f 371//371 370//370 366//366
f 360//360 367//367 369//369
f 370//370 369//369 367//367
f 356//356 471//471 368//368
f 368//368 472//472 371//371
f 471//471 472//472 368//368
f 371//371 474//474 370//370
f 370//370 476//476 369//369
f 369//369 475//475 364//364
f 476//476 475//475 369//369
f 474//474 476//476 370//370
f 472//472 474//474 371//371
f 389//389 372//372 373//373
f 373//373 372//372 375//375
f 372//372 374//374 375//375
f 374//374 376//376 377//377
f 375//375 374//374 377//377
f 376//376 436//436 438//438
f 377//377 376//376 438//438
f 373//373 375//375 378//378
f 375//375 377//377 379//379
f 379//379 378//378 375//375
f 379//379 380//380 378//378
f 442//442 379//379 377//377
f 377//377 438//438 442//442
f 442//442 447//447 379//379
f 447//447 380//380 379//379
f 447//447 483//483 380//380
f 381//381 382//382 383//383
f 382//382 389//389 384//384
f 387//387 381//381 383//383
f 383//383 382//382 384//384
f 385//385 381//381 387//387
f 388//388 386//386 385//385
f 394//394 386//386 388//388
f 388//388 385//385 387//387
f 384//384 389//389 373//373
f 383//383 384//384 390//390
f 390//390 391//391 383//383
f 387//387 383//383 391//391
f 391//391 392//392 387//387
f 388//388 387//387 392//392
f 388//388 392//392 397//397
f 391//391 413//413 392//392
f 392//392 413//413 403//403
f 390//390 412//412 391//391
f 384//384 373//373 393//393
f 393//393 390//390 384//384
f 378//378 393//393 373//373
f 394//394 397//397 395//395
f 398//398 396//396 395//395
f 394//394 388//388 397//397
f 398//398 395//395 397//397
f 399//399 396//396 398//398
f 399//399 400//400 396//396
f 402//402 401//401 400//400
f 402//402 400//400 399//399
f 407//407 401//401 402//402
f 397//397 403//403 398//398
f 397//397 392//392 403//403
f 404//404 399//399 398//398
f 404//404 398//398 403//403
f 403//403 418//418 404//404
f 405//405 399//399 404//404
f 405//405 402//402 399//399
f 410//410 402//402 405//405
f 407//407 406//406 401//401
f 409//409 408//408 406//406
f 409//409 406//406 407//407
f 451//451 449//449 408//408
f 451//451 408//408 409//409
f 410//410 407//407 402//402
f 411//411 409//409 407//407
f 411//411 407//407 410//410
f 430//430 411//411 410//410
f 455//455 409//409 411//411
f 455//455 451//451 409//409
f 496//496 455//455 411//411
f 412//412 413//413 391//391
f 412//412 415//415 413//413
f 413//413 415//415 418//418
f 393//393 414//414 390//390
f 414//414 412//412 390//390
f 378//378 421//421 393//393
f 421//421 414//414 393//393
f 421//421 422//422 414//414
f 422//422 416//416 414//414
f 414//414 416//416 412//412
f 416//416 415//415 412//412
f 423//423 417//417 416//416
f 416//416 417//417 415//415
f 415//415 417//417 420//420
f 403//403 413//413 418//418
f 419//419 404//404 418//418
f 419//419 405//405 404//404
f 418//418 420//420 419//419
f 418//418 415//415 420//420
f 431//431 419//419 420//420
f 431//431 429//429 419//419
f 429//429 410//410 405//405
f 429//429 405//405 419//419
f 420//420 417//417 432//432
f 380//380 421//421 378//378
f 380//380 425//425 421//421
f 425//425 422//422 421//421
f 483//483 425//425 380//380
f 426//426 423//423 422//422
f 425//425 426//426 422//422
f 422//422 423//423 416//416
f 423//423 424//424 417//417
f 417//417 424//424 432//432
f 427//427 424//424 423//423
f 426//426 427//427 423//423
f 427//427 428//428 424//424
f 424//424 428//428 433//433
f 485//485 426//426 425//425
f 483//483 485//485 425//425
f 487//487 427//427 426//426
f 485//485 487//487 426//426
f 489//489 428//428 427//427
f 487//487 489//489 427//427
f 489//489 490//490 428//428
f 428//428 490//490 501//501
f 435//435 429//429 431//431
f 430//430 410//410 429//429
f 435//435 430//430 429//429
f 496//496 411//411 430//430
f 498//498 496//496 430//430
f 498//498 430//430 435//435
f 420//420 432//432 431//431
f 434//434 431//431 432//432
f 434//434 435//435 431//431
f 432//432 424//424 433//433
f 432//432 433//433 434//434
f 500//500 435//435 434//434
f 502//502 434//434 433//433
f 433//433 428//428 501//501
f 433//433 501//501 502//502
f 502//502 500//500 434//434
f 500//500 498//498 435//435
f 438//438 436//436 437//437
f 438//438 437//437 439//439
f 437//437 440//440 439//439
f 440//440 445//445 441//441
f 439//439 440//440 441//441
f 438//438 439//439 442//442
f 443//443 442//442 439//439
f 443//443 447//447 442//442
f 439//439 441//441 443//443
f 444//444 443//443 441//441
f 441//441 446//446 444//444
f 444//444 448//448 443//443
f 445//445 458//458 446//446
f 441//441 445//445 446//446
f 448//448 483//483 447//447
f 448//448 447//447 443//443
f 450//450 449//449 451//451
f 450//450 451//451 452//452
f 453//453 450//450 452//452
f 471//471 453//453 454//454
f 453//453 452//452 454//454
f 452//452 451//451 455//455
f 452//452 455//455 456//456
f 456//456 455//455 496//496
f 454//454 452//452 456//456
f 454//454 456//456 457//457
f 473//473 454//454 457//457
f 457//457 456//456 497//497
f 446//446 458//458 461//461
f 458//458 459//459 461//461
f 459//459 460//460 462//462
f 461//461 459//459 462//462
f 462//462 460//460 465//465
f 460//460 463//463 465//465
f 463//463 464//464 466//466
f 466//466 464//464 475//475
f 465//465 463//463 466//466
f 467//467 444//444 446//446
f 446//446 461//461 467//467
f 468//468 467//467 461//461
f 461//461 462//462 468//468
f 469//469 468//468 462//462
f 462//462 465//465 469//469
f 470//470 469//469 465//465
f 465//465 466//466 470//470
f 470//470 466//466 477//477
f 469//469 510//510 468//468
f 470//470 511//511 469//469
f 511//511 470//470 482//482
f 472//472 471//471 473//473
f 471//471 454//454 473//473
f 472//472 473//473 479//479
f 477//477 475//475 476//476
f 476//476 474//474 478//478
f 474//474 479//479 478//478
f 476//476 478//478 477//477
f 477//477 466//466 475//475
f 474//474 472//472 479//479
f 479//479 480//480 481//481
f 473//473 457//457 480//480
f 479//479 473//473 480//480
f 478//478 479//479 481//481
f 478//478 481//481 482//482
f 482//482 477//477 478//478
f 482//482 470//470 477//477
f 515//515 482//482 481//481
f 486//486 483//483 448//448
f 484//484 448//448 444//444
f 484//484 486//486 448//448
f 493//493 486//486 484//484
f 486//486 485//485 483//483
f 488//488 485//485 486//486
f 488//488 487//487 485//485
f 491//491 487//487 488//488
f 491//491 489//489 487//487
f 492//492 490//490 489//489
f 501//501 490//490 492//492
f 492//492 489//489 491//491
f 493//493 488//488 486//486
f 494//494 488//488 493//493
f 512//512 494//494 493//493
f 494//494 491//491 488//488
f 495//495 491//491 494//494
f 495//495 492//492 491//491
f 492//492 495//495 503//503
f 513//513 495//495 494//494
f 495//495 513//513 507//507
f 497//497 496//496 498//498
f 456//456 496//496 497//497
f 497//497 498//498 505//505
f 499//499 505//505 506//506
f 457//457 497//497 499//499
f 499//499 497//497 505//505
f 505//505 500//500 504//504
f 501//501 503//503 502//502
f 504//504 500//500 502//502
f 504//504 502//502 503//503
f 501//501 492//492 503//503
f 505//505 498//498 500//500
f 506//506 505//505 504//504
f 506//506 504//504 507//507
f 507//507 516//516 506//506
f 503//503 507//507 504//504
f 503//503 495//495 507//507
f 467//467 484//484 444//444
f 508//508 484//484 467//467
f 468//468 508//508 467//467
f 510//510 508//508 468//468
f 508//508 493//493 484//484
f 512//512 493//493 508//508
f 510//510 512//512 508//508
f 509//509 512//512 510//510
f 511//511 510//510 469//469
f 511//511 509//509 510//510
f 509//509 511//511 515//515
f 513//513 494//494 512//512
f 509//509 513//513 512//512
f 513//513 509//509 516//516
f 481//481 514//514 515//515
f 481//481 480//480 514//514
f 514//514 506//506 516//516
f 514//514 499//499 506//506
f 516//516 515//515 514//514
f 516//516 509//509 515//515
f 480//480 457//457 499//499
f 480//480 499//499 514//514
f 515//515 511//511 482//482
f 507//507 513//513 516//516
