ply
format ascii 1.0
element vertex 516
property float x
property float y
property float z
property float nx
property float ny
property float nz
element face 1024
property list uchar int vertex_index
end_header
-1.6961184740066528 -6.147597789764404 -4.830136775970459 -0.23356270093743903 -0.7642260562020816 -0.601171356397343
-1.6961184740066528 -4.830136775970459 -6.147597789764404 -0.23356270093743903 -0.601171356397343 -0.7642260562020816
-3.503081798553467 -5.085686683654785 -5.085686683654785 -0.4464178134842093 -0.6327365707006265 -0.6327365707006265
4.898587410340671e-16 -6.651756763458252 -4.444561958312988 7.803636809068115e-10 -0.83915670696933 -0.5438897141410101
1.6961184740066528 -6.147597789764404 -4.830136775970459 0.23356270093743903 -0.7642260562020816 -0.601171356397343
4.898587410340671e-16 -4.444561958312988 -6.651756763458252 7.803636809068115e-10 -0.5438897141410101 -0.83915670696933
1.6961184740066528 -4.830136775970459 -6.147597789764404 0.23356270093743903 -0.601171356397343 -0.7642260562020816
4.898587410340671e-16 -5.656854152679443 -5.656854152679443 9.387015769915403e-10 -0.7071067811865476 -0.7071067811865476
3.503081798553467 -5.085686683654785 -5.085686683654785 0.4464177727849389 -0.6327366148603273 -0.6327365552556833
-1.66767418384552 -7.107581615447998 -3.2712604999542236 -0.22410602772338914 -0.884150739726094 -0.409943847105728
-3.4381299018859863 -6.3528361320495605 -3.4381299018859863 -0.4361272076933555 -0.7871379113115985 -0.43612723749567733
-4.830136775970459 -6.147597789764404 -1.6961184740066528 -0.6011713162419432 -0.7642260809265129 -0.23356272339487882
-3.2712604999542236 -7.107581615447998 -1.66767418384552 -0.4099438443677621 -0.8841507338209569 -0.22410605602893383
-1.6186777353286743 -7.665491580963135 -1.6186777353286743 -0.20860263519077188 -0.9554945741253226 -0.20860263519077188
-5.085686683654785 -5.085686683654785 -3.503081798553467 -0.6327365791187357 -0.6327365791187357 -0.44641778962115714
-6.147597789764404 -4.830136775970459 -1.6961184740066528 -0.7642260835862914 -0.6011713183342331 -0.23356270930659886
4.898587410340671e-16 -7.391036033630371 -3.061467409133911 6.682450084829933e-10 -0.9329769522064049 -0.3599361146809913
1.66767418384552 -7.107581615447998 -3.2712604999542236 0.22410605602893383 -0.8841507338209569 -0.4099438443677621
3.4381299018859863 -6.3528361320495605 -3.4381299018859863 0.43612725228888244 -0.7871378784062543 -0.43612725228888244
4.898587410340671e-16 -7.846282005310059 -1.5607225894927979 -4.737313362388332e-10 -0.9861362665964795 -0.16593752951986837
1.6186777353286743 -7.665491580963135 -1.6186777353286743 0.20860264879508303 -0.9554945681851628 -0.20860264879508303
3.2712604999542236 -7.107581615447998 -1.66767418384552 0.4099438443677621 -0.8841507338209569 -0.22410605602893383
4.830136775970459 -6.147597789764404 -1.6961184740066528 0.6011713183342331 -0.7642260835862914 -0.23356270930659886
5.085686683654785 -5.085686683654785 -3.503081798553467 0.6327365791187357 -0.6327365791187357 -0.44641778962115714
-1.66767418384552 -3.2712604999542236 -7.107581615447998 -0.22410605602893383 -0.4099438443677621 -0.8841507338209569
-3.4381299018859863 -3.4381299018859863 -6.3528361320495605 -0.4361272076933555 -0.43612723749567733 -0.7871379113115985
-5.085686683654785 -3.503081798553467 -5.085686683654785 -0.6327365791187357 -0.44641778962115714 -0.6327365791187357
-4.830136775970459 -1.6961184740066528 -6.147597789764404 -0.6011713183342331 -0.23356270930659886 -0.7642260835862914
-3.2712604999542236 -1.66767418384552 -7.107581615447998 -0.4099438443677621 -0.22410605602893383 -0.8841507338209569
-1.6186777353286743 -1.6186777353286743 -7.665491580963135 -0.20860263519077188 -0.20860263519077188 -0.9554945741253226
-6.147597789764404 -1.6961184740066528 -4.830136775970459 -0.7642260835862914 -0.23356270930659886 -0.6011713183342331
4.898587410340671e-16 -3.061467409133911 -7.391036033630371 6.682450084829933e-10 -0.3599361146809913 -0.9329769522064049
1.66767418384552 -3.2712604999542236 -7.107581615447998 0.2241060532909677 -0.40994386916168557 -0.884150723019041
3.4381299018859863 -3.4381299018859863 -6.3528361320495605 0.43612725228888244 -0.43612725228888244 -0.7871378784062543
5.085686683654785 -3.503081798553467 -5.085686683654785 0.6327365791187357 -0.44641778962115714 -0.6327365791187357
4.898587410340671e-16 -1.5607225894927979 -7.846282005310059 -4.737313362388332e-10 -0.16593752951986837 -0.9861362665964795
1.6186777353286743 -1.6186777353286743 -7.665491580963135 0.20860264879508303 -0.20860264879508303 -0.9554945681851628
3.2712604999542236 -1.66767418384552 -7.107581615447998 0.4099438443677621 -0.22410605602893383 -0.8841507338209569
4.830136775970459 -1.6961184740066528 -6.147597789764404 0.6011713183342331 -0.23356270930659886 -0.7642260835862914
-6.3528361320495605 -3.4381299018859863 -3.4381299018859863 -0.7871378784062543 -0.43612725228888244 -0.43612725228888244
-7.107581615447998 -3.2712604999542236 -1.66767418384552 -0.8841507338209569 -0.4099438443677621 -0.22410605602893383
-7.107581615447998 -1.66767418384552 -3.2712604999542236 -0.8841507338209569 -0.22410605602893383 -0.4099438443677621
-7.665491580963135 -1.6186777353286743 -1.6186777353286743 -0.9554945711552426 -0.20860264944350798 -0.20860263454234695
6.147597789764404 -4.830136775970459 -1.6961184740066528 0.7642260835862914 -0.6011713183342331 -0.23356270930659886
6.147597789764404 -1.6961184740066528 -4.830136775970459 0.7642260835862914 -0.23356270930659886 -0.6011713183342331
6.3528361320495605 -3.4381299018859863 -3.4381299018859863 0.7871378784062543 -0.43612725228888244 -0.43612725228888244
7.107581615447998 -3.2712604999542236 -1.66767418384552 0.8841507338209569 -0.4099438443677621 -0.22410605602893383
7.107581615447998 -1.66767418384552 -3.2712604999542236 0.8841507338209569 -0.22410605602893383 -0.4099438443677621
7.665491580963135 -1.6186777353286743 -1.6186777353286743 0.9554945711552426 -0.20860264944350798 -0.20860263454234695
-4.830136775970459 -6.147597789764404 1.6961184740066528 -0.601171356397343 -0.7642260562020816 0.23356270093743903
-3.061467409133911 -7.391036033630371 4.898587410340671e-16 -0.359936088739679 -0.932976962214385 -3.0482576498224635e-9
-1.5607225894927979 -7.846282005310059 4.898587410340671e-16 -0.16593752951986837 -0.9861362665964795 1.4903020064462631e-9
-3.2712604999542236 -7.107581615447998 1.66767418384552 -0.4099438443677621 -0.8841507338209569 0.22410605602893383
-1.6186777353286743 -7.665491580963135 1.6186777353286743 -0.20860264944350798 -0.9554945711552426 0.20860263454234695
-4.444561958312988 -6.651756763458252 4.898587410340671e-16 -0.5438896869369322 -0.8391567246013382 5.741807987727212e-10
-1.66767418384552 -7.107581615447998 3.2712604999542236 -0.22410602772338914 -0.884150739726094 0.409943847105728
-3.4381299018859863 -6.3528361320495605 3.4381299018859863 -0.4361272707539849 -0.7871378579444395 0.4361272707539849
-5.656854152679443 -5.656854152679443 4.898587410340671e-16 -0.7071068109888685 -0.7071067513842252 3.01748514448944e-11
-6.651756763458252 -4.444561958312988 4.898587410340671e-16 -0.8391567246013382 -0.5438896869369322 7.803636418748646e-10
-6.147597789764404 -4.830136775970459 1.6961184740066528 -0.7642260287492415 -0.6011713816892633 0.2335627256648324
-5.085686683654785 -5.085686683654785 3.503081798553467 -0.6327365791187357 -0.6327365791187357 0.44641778962115714
4.898587410340671e-16 -8 4.898587410340671e-16 -7.377716215728469e-10 -1 -7.377716215728469e-10
1.5607225894927979 -7.846282005310059 4.898587410340671e-16 0.16593754401072225 -0.9861362641580977 -4.597621425058112e-9
4.898587410340671e-16 -7.846282005310059 1.5607225894927979 -2.307805295444733e-9 -0.9861362641580977 0.16593754401072225
1.6186777353286743 -7.665491580963135 1.6186777353286743 0.20860264944350798 -0.9554945711552426 0.20860263454234695
3.061467409133911 -7.391036033630371 4.898587410340671e-16 0.3599361146809913 -0.9329769522064049 4.384747634089999e-9
3.2712604999542236 -7.107581615447998 1.66767418384552 0.4099438443677621 -0.8841507338209569 0.22410605602893383
4.444561958312988 -6.651756763458252 4.898587410340671e-16 0.5438896869369322 -0.8391567246013382 5.741807987727212e-10
4.830136775970459 -6.147597789764404 1.6961184740066528 0.601171356397343 -0.7642260562020816 0.23356270093743903
4.898587410340671e-16 -7.391036033630371 3.061467409133911 8.112907577348301e-10 -0.932976962214385 0.359936088739679
1.66767418384552 -7.107581615447998 3.2712604999542236 0.22410602498542329 -0.8841507289241777 0.4099438718996516
3.4381299018859863 -6.3528361320495605 3.4381299018859863 0.4361272707539849 -0.7871378579444395 0.4361272707539849
5.656854152679443 -5.656854152679443 4.898587410340671e-16 0.7071068109888685 -0.7071067513842252 3.01748514448944e-11
5.085686683654785 -5.085686683654785 3.503081798553467 0.6327366148603273 -0.6327365552556833 0.4464177727849389
-1.6961184740066528 -6.147597789764404 4.830136775970459 -0.23356270930659886 -0.7642260835862914 0.6011713183342331
-3.503081798553467 -5.085686683654785 5.085686683654785 -0.44641779664799064 -0.6327366064422182 0.6327365468375751
-1.6961184740066528 -4.830136775970459 6.147597789764404 -0.23356270930659886 -0.6011713183342331 0.7642260835862914
4.898587410340671e-16 -6.651756763458252 4.444561958312988 5.741807987727212e-10 -0.8391567246013382 0.5438896869369322
1.6961184740066528 -6.147597789764404 4.830136775970459 0.23356273748315856 -0.764226078266734 0.601171314149653
4.898587410340671e-16 -5.656854152679443 5.656854152679443 9.114311299570082e-10 -0.7071067513842252 0.7071068109888685
3.503081798553467 -5.085686683654785 5.085686683654785 0.4464177727849389 -0.6327366148603273 0.6327365552556833
4.898587410340671e-16 -4.444561958312988 6.651756763458252 7.803636809068115e-10 -0.5438897141410101 0.83915670696933
1.6961184740066528 -4.830136775970459 6.147597789764404 0.2335626952183188 -0.6011713204265231 0.7642260862460699
-7.391036033630371 -3.061467409133911 4.898587410340671e-16 -0.9329769522064049 -0.3599361146809913 -3.0482578391686147e-9
-7.107581615447998 -3.2712604999542236 1.66767418384552 -0.884150739726094 -0.409943847105728 0.22410602772338914
-6.3528361320495605 -3.4381299018859863 3.4381299018859863 -0.7871378784062543 -0.43612725228888244 0.43612725228888244
-7.846282005310059 -1.5607225894927979 4.898587410340671e-16 -0.9861362665964795 -0.16593752951986837 1.4903020064462631e-9
-7.665491580963135 -1.6186777353286743 1.6186777353286743 -0.9554945681851628 -0.20860264879508303 0.20860264879508303
-7.107581615447998 -1.66767418384552 3.2712604999542236 -0.8841507338209569 -0.22410605602893383 0.4099438443677621
-5.085686683654785 -3.503081798553467 5.085686683654785 -0.6327365791187357 -0.44641778962115714 0.6327365791187357
-3.4381299018859863 -3.4381299018859863 6.3528361320495605 -0.4361272076933555 -0.43612723749567733 0.7871379113115985
-1.66767418384552 -3.2712604999542236 7.107581615447998 -0.22410605602893383 -0.4099438443677621 0.8841507338209569
-6.147597789764404 -1.6961184740066528 4.830136775970459 -0.7642260835862914 -0.23356270930659886 0.6011713183342331
-4.830136775970459 -1.6961184740066528 6.147597789764404 -0.6011713183342331 -0.23356270930659886 0.7642260835862914
-3.2712604999542236 -1.66767418384552 7.107581615447998 -0.4099438443677621 -0.22410605602893383 0.8841507338209569
-1.6186777353286743 -1.6186777353286743 7.665491580963135 -0.2086026209380357 -0.2086026358391968 0.9554945770954023
5.085686683654785 -3.503081798553467 5.085686683654785 0.6327365791187357 -0.44641778962115714 0.6327365791187357
4.898587410340671e-16 -3.061467409133911 7.391036033630371 6.682450084829933e-10 -0.3599361146809913 0.9329769522064049
1.66767418384552 -3.2712604999542236 7.107581615447998 0.22410605602893383 -0.4099438443677621 0.8841507338209569
3.4381299018859863 -3.4381299018859863 6.3528361320495605 0.43612725228888244 -0.43612725228888244 0.7871378784062543
4.898587410340671e-16 -1.5607225894927979 7.846282005310059 -4.737313362388332e-10 -0.16593752951986837 0.9861362665964795
1.6186777353286743 -1.6186777353286743 7.665491580963135 0.20860264879508303 -0.20860264879508303 0.9554945681851628
4.830136775970459 -1.6961184740066528 6.147597789764404 0.6011713183342331 -0.23356270930659886 0.7642260835862914
3.2712604999542236 -1.66767418384552 7.107581615447998 0.4099438443677621 -0.22410605602893383 0.8841507338209569
6.651756763458252 -4.444561958312988 4.898587410340671e-16 0.8391567246013382 -0.5438896869369322 7.803636418748646e-10
6.147597789764404 -4.830136775970459 1.6961184740066528 0.7642260862460699 -0.6011713204265231 0.2335626952183188
7.391036033630371 -3.061467409133911 4.898587410340671e-16 0.9329769522064049 -0.3599361146809913 -3.0482578391686147e-9
7.107581615447998 -3.2712604999542236 1.66767418384552 0.884150739726094 -0.409943847105728 0.22410602772338914
6.3528361320495605 -3.4381299018859863 3.4381299018859863 0.7871378784062543 -0.43612725228888244 0.43612725228888244
7.846282005310059 -1.5607225894927979 4.898587410340671e-16 0.9861362665964795 -0.16593752951986837 1.4903020064462631e-9
7.665491580963135 -1.6186777353286743 1.6186777353286743 0.9554945681851628 -0.20860264879508303 0.20860264879508303
7.107581615447998 -1.66767418384552 3.2712604999542236 0.8841507338209569 -0.22410605602893383 0.4099438443677621
6.147597789764404 -1.6961184740066528 4.830136775970459 0.7642260862460699 -0.2335626952183188 0.6011713204265231
-4.830136775970459 1.6961184740066528 -6.147597789764404 -0.6011713183342331 0.23356270930659886 -0.7642260835862914
-3.061467409133911 4.898587410340671e-16 -7.391036033630371 -0.359936088739679 -3.0482576498224635e-9 -0.932976962214385
-1.5607225894927979 4.898587410340671e-16 -7.846282005310059 -0.16593752951986837 1.4903020064462631e-9 -0.9861362665964795
-4.444561958312988 4.898587410340671e-16 -6.651756763458252 -0.5438896869369322 5.741807987727212e-10 -0.8391567246013382
-3.2712604999542236 1.66767418384552 -7.107581615447998 -0.4099438443677621 0.22410605602893383 -0.8841507338209569
-1.6186777353286743 1.6186777353286743 -7.665491580963135 -0.20860264944350798 0.20860263454234695 -0.9554945711552426
-5.656854152679443 4.898587410340671e-16 -5.656854152679443 -0.7071068109888685 9.387014264059276e-10 -0.7071067513842252
-6.651756763458252 4.898587410340671e-16 -4.444561958312988 -0.8391567246013382 7.803636418748646e-10 -0.5438896869369322
-6.147597789764404 1.6961184740066528 -4.830136775970459 -0.7642260287492415 0.2335627256648324 -0.6011713816892633
-1.66767418384552 3.2712604999542236 -7.107581615447998 -0.22410602772338914 0.409943847105728 -0.884150739726094
-3.4381299018859863 3.4381299018859863 -6.3528361320495605 -0.4361272707539849 0.4361272707539849 -0.7871378579444395
-5.085686683654785 3.503081798553467 -5.085686683654785 -0.6327365875368447 0.44641776575810393 -0.6327365875368447
4.898587410340671e-16 4.898587410340671e-16 -8 -7.377716215728469e-10 -7.377716215728469e-10 -1
1.5607225894927979 4.898587410340671e-16 -7.846282005310059 0.16593754401072225 -4.597621425058112e-9 -0.9861362641580977
4.898587410340671e-16 1.5607225894927979 -7.846282005310059 -2.307805295444733e-9 0.16593754401072225 -0.9861362641580977
1.6186777353286743 1.6186777353286743 -7.665491580963135 0.20860264944350798 0.20860263454234695 -0.9554945711552426
3.061467409133911 4.898587410340671e-16 -7.391036033630371 0.3599361146809913 4.384747634089999e-9 -0.9329769522064049
4.444561958312988 4.898587410340671e-16 -6.651756763458252 0.5438896869369322 5.741807987727212e-10 -0.8391567246013382
3.2712604999542236 1.66767418384552 -7.107581615447998 0.4099438443677621 0.22410605602893383 -0.8841507338209569
4.830136775970459 1.6961184740066528 -6.147597789764404 0.6011713183342331 0.23356270930659886 -0.7642260835862914
5.656854152679443 4.898587410340671e-16 -5.656854152679443 0.7071068109888685 3.01748514448944e-11 -0.7071067513842252
4.898587410340671e-16 3.061467409133911 -7.391036033630371 8.112907577348301e-10 0.359936088739679 -0.932976962214385
1.66767418384552 3.2712604999542236 -7.107581615447998 0.22410602498542329 0.4099438718996516 -0.8841507289241777
3.4381299018859863 3.4381299018859863 -6.3528361320495605 0.4361272707539849 0.4361272707539849 -0.7871378579444395
5.085686683654785 3.503081798553467 -5.085686683654785 0.6327365875368447 0.44641776575810393 -0.6327365875368447
-7.391036033630371 4.898587410340671e-16 -3.061467409133911 -0.932976962214385 -3.0482576498224635e-9 -0.359936088739679
-7.107581615447998 1.66767418384552 -3.2712604999542236 -0.8841507338209569 0.22410605602893383 -0.4099438443677621
-7.846282005310059 4.898587410340671e-16 -1.5607225894927979 -0.9861362665964795 1.2944786471399652e-9 -0.16593752951986837
-7.665491580963135 1.6186777353286743 -1.6186777353286743 -0.9554945711552426 0.20860263454234695 -0.20860264944350798
-6.3528361320495605 3.4381299018859863 -3.4381299018859863 -0.7871378579444395 0.4361272707539849 -0.4361272707539849
-7.107581615447998 3.2712604999542236 -1.66767418384552 -0.8841507338209569 0.4099438443677621 -0.22410605602893383
-1.6961184740066528 4.830136775970459 -6.147597789764404 -0.23356273748315856 0.601171314149653 -0.764226078266734
-3.503081798553467 5.085686683654785 -5.085686683654785 -0.44641779664799064 0.6327365468375751 -0.6327366064422182
-1.6961184740066528 6.147597789764404 -4.830136775970459 -0.23356270930659886 0.7642260835862914 -0.6011713183342331
4.898587410340671e-16 4.444561958312988 -6.651756763458252 5.741807987727212e-10 0.5438896869369322 -0.8391567246013382
1.6961184740066528 4.830136775970459 -6.147597789764404 0.23356272339487882 0.6011713162419432 -0.7642260809265129
4.898587410340671e-16 5.656854152679443 -5.656854152679443 9.114311299570082e-10 0.7071068109888685 -0.7071067513842252
3.503081798553467 5.085686683654785 -5.085686683654785 0.4464177727849389 0.6327365552556833 -0.6327366148603273
4.898587410340671e-16 6.651756763458252 -4.444561958312988 7.803636809068115e-10 0.83915670696933 -0.5438897141410101
1.6961184740066528 6.147597789764404 -4.830136775970459 0.2335626952183188 0.7642260862460699 -0.6011713204265231
-5.085686683654785 5.085686683654785 -3.503081798553467 -0.6327365791187357 0.6327365791187357 -0.44641778962115714
-6.147597789764404 4.830136775970459 -1.6961184740066528 -0.7642260835862914 0.6011713183342331 -0.23356270930659886
-3.4381299018859863 6.3528361320495605 -3.4381299018859863 -0.4361272076933555 0.7871379113115985 -0.43612723749567733
-1.66767418384552 7.107581615447998 -3.2712604999542236 -0.22410605602893383 0.8841507338209569 -0.4099438443677621
-4.830136775970459 6.147597789764404 -1.6961184740066528 -0.6011713204265231 0.7642260862460699 -0.2335626952183188
-3.2712604999542236 7.107581615447998 -1.66767418384552 -0.4099438443677621 0.8841507338209569 -0.22410605602893383
-1.6186777353286743 7.665491580963135 -1.6186777353286743 -0.2086026209380357 0.9554945770954023 -0.2086026358391968
5.085686683654785 5.085686683654785 -3.503081798553467 0.6327365791187357 0.6327365791187357 -0.44641778962115714
4.898587410340671e-16 7.391036033630371 -3.061467409133911 6.682450084829933e-10 0.9329769522064049 -0.3599361146809913
1.66767418384552 7.107581615447998 -3.2712604999542236 0.22410605602893383 0.8841507338209569 -0.4099438443677621
3.4381299018859863 6.3528361320495605 -3.4381299018859863 0.43612725228888244 0.7871378784062543 -0.43612725228888244
4.898587410340671e-16 7.846282005310059 -1.5607225894927979 -4.737313362388332e-10 0.9861362665964795 -0.16593752951986837
1.6186777353286743 7.665491580963135 -1.6186777353286743 0.20860264879508303 0.9554945681851628 -0.20860264879508303
4.830136775970459 6.147597789764404 -1.6961184740066528 0.6011713204265231 0.7642260862460699 -0.2335626952183188
3.2712604999542236 7.107581615447998 -1.66767418384552 0.4099438443677621 0.8841507338209569 -0.22410605602893383
6.651756763458252 4.898587410340671e-16 -4.444561958312988 0.8391567246013382 7.803636418748646e-10 -0.5438896869369322
6.147597789764404 1.6961184740066528 -4.830136775970459 0.7642260862460699 0.2335626952183188 -0.6011713204265231
7.391036033630371 4.898587410340671e-16 -3.061467409133911 0.932976962214385 -3.0482576498224635e-9 -0.359936088739679
7.107581615447998 1.66767418384552 -3.2712604999542236 0.8841507338209569 0.22410605602893383 -0.4099438443677621
7.846282005310059 4.898587410340671e-16 -1.5607225894927979 0.9861362665964795 1.2944786471399652e-9 -0.16593752951986837
7.665491580963135 1.6186777353286743 -1.6186777353286743 0.9554945711552426 0.20860263454234695 -0.20860264944350798
6.3528361320495605 3.4381299018859863 -3.4381299018859863 0.7871378784062543 0.43612725228888244 -0.43612725228888244
7.107581615447998 3.2712604999542236 -1.66767418384552 0.8841507338209569 0.4099438443677621 -0.22410605602893383
6.147597789764404 4.830136775970459 -1.6961184740066528 0.7642260862460699 0.6011713204265231 -0.2335626952183188
-8 4.898587410340671e-16 4.898587410340671e-16 -1 -7.377716215728469e-10 -7.377716215728469e-10
-7.846282005310059 4.898587410340671e-16 1.5607225894927979 -0.9861362641580977 -4.271838466739984e-9 0.16593754401072225
-7.846282005310059 1.5607225894927979 4.898587410340671e-16 -0.9861362641580977 0.16593754401072225 -4.271838466739984e-9
-7.665491580963135 1.6186777353286743 1.6186777353286743 -0.9554945711552426 0.20860263454234695 0.20860264944350798
-7.391036033630371 4.898587410340671e-16 3.061467409133911 -0.932976962214385 4.384747681124887e-9 0.359936088739679
-7.107581615447998 1.66767418384552 3.2712604999542236 -0.884150723019041 0.2241060532909677 0.40994386916168557
-7.391036033630371 3.061467409133911 4.898587410340671e-16 -0.932976962214385 0.359936088739679 4.527793256675052e-9
-7.107581615447998 3.2712604999542236 1.66767418384552 -0.884150723019041 0.40994386916168557 0.2241060532909677
-6.3528361320495605 3.4381299018859863 3.4381299018859863 -0.7871378579444395 0.4361272707539849 0.4361272707539849
-6.651756763458252 4.898587410340671e-16 4.444561958312988 -0.8391567246013382 5.741807987727212e-10 0.5438896869369322
-5.656854152679443 4.898587410340671e-16 5.656854152679443 -0.7071067513842252 3.01748514448944e-11 0.7071068109888685
-6.147597789764404 1.6961184740066528 4.830136775970459 -0.7642260562020816 0.23356270093743903 0.601171356397343
-4.830136775970459 1.6961184740066528 6.147597789764404 -0.6011713816892633 0.2335627256648324 0.7642260287492415
-4.444561958312988 4.898587410340671e-16 6.651756763458252 -0.5438896869369322 5.741807987727212e-10 0.8391567246013382
-3.061467409133911 4.898587410340671e-16 7.391036033630371 -0.359936088739679 -3.0482576498224635e-9 0.932976962214385
-1.5607225894927979 4.898587410340671e-16 7.846282005310059 -0.16593752951986837 1.4903020064462631e-9 0.9861362665964795
-3.2712604999542236 1.66767418384552 7.107581615447998 -0.409943847105728 0.22410602772338914 0.884150739726094
-1.6186777353286743 1.6186777353286743 7.665491580963135 -0.20860264944350798 0.20860263454234695 0.9554945711552426
-5.085686683654785 3.503081798553467 5.085686683654785 -0.6327365552556833 0.4464177727849389 0.6327366148603273
-3.4381299018859863 3.4381299018859863 6.3528361320495605 -0.4361272707539849 0.4361272707539849 0.7871378579444395
-1.66767418384552 3.2712604999542236 7.107581615447998 -0.22410605602893383 0.4099438443677621 0.8841507338209569
5.656854152679443 4.898587410340671e-16 5.656854152679443 0.7071067811865476 1.7926874736169087e-9 0.7071067811865476
4.898587410340671e-16 4.898587410340671e-16 8 -7.377716215728469e-10 -7.377716215728469e-10 1
1.5607225894927979 4.898587410340671e-16 7.846282005310059 0.16593754401072225 -4.597621425058112e-9 0.9861362641580977
4.898587410340671e-16 1.5607225894927979 7.846282005310059 -2.307805295444733e-9 0.16593754401072225 0.9861362641580977
1.6186777353286743 1.6186777353286743 7.665491580963135 0.20860264944350798 0.20860263454234695 0.9554945711552426
4.444561958312988 4.898587410340671e-16 6.651756763458252 0.5438896869369322 5.741807987727212e-10 0.8391567246013382
3.061467409133911 4.898587410340671e-16 7.391036033630371 0.3599361146809913 4.384747634089999e-9 0.9329769522064049
4.830136775970459 1.6961184740066528 6.147597789764404 0.6011713816892633 0.2335627256648324 0.7642260287492415
3.2712604999542236 1.66767418384552 7.107581615447998 0.4099438443677621 0.22410605602893383 0.8841507338209569
5.085686683654785 3.503081798553467 5.085686683654785 0.6327365552556833 0.4464177727849389 0.6327366148603273
4.898587410340671e-16 3.061467409133911 7.391036033630371 8.112907577348301e-10 0.359936088739679 0.932976962214385
1.66767418384552 3.2712604999542236 7.107581615447998 0.22410602772338914 0.409943847105728 0.884150739726094
3.4381299018859863 3.4381299018859863 6.3528361320495605 0.43612725228888244 0.43612725228888244 0.7871378784062543
-6.651756763458252 4.444561958312988 4.898587410340671e-16 -0.8391567246013382 0.5438896869369322 5.741807987727212e-10
-6.147597789764404 4.830136775970459 1.6961184740066528 -0.7642260562020816 0.601171356397343 0.23356270093743903
-5.656854152679443 5.656854152679443 4.898587410340671e-16 -0.7071067513842252 0.7071068109888685 3.01748514448944e-11
-5.085686683654785 5.085686683654785 3.503081798553467 -0.6327365552556833 0.6327366148603273 0.4464177727849389
-4.830136775970459 6.147597789764404 1.6961184740066528 -0.6011713204265231 0.7642260862460699 0.2335626952183188
-4.444561958312988 6.651756763458252 4.898587410340671e-16 -0.5438896869369322 0.8391567246013382 7.803636418748646e-10
-3.061467409133911 7.391036033630371 4.898587410340671e-16 -0.359936088739679 0.932976962214385 -3.0482576498224635e-9
-1.5607225894927979 7.846282005310059 4.898587410340671e-16 -0.16593752951986837 0.9861362665964795 1.4903020064462631e-9
-3.2712604999542236 7.107581615447998 1.66767418384552 -0.409943847105728 0.884150739726094 0.22410602772338914
-1.6186777353286743 7.665491580963135 1.6186777353286743 -0.20860264944350798 0.9554945711552426 0.20860263454234695
-3.4381299018859863 6.3528361320495605 3.4381299018859863 -0.4361272707539849 0.7871378579444395 0.4361272707539849
-1.66767418384552 7.107581615447998 3.2712604999542236 -0.22410605602893383 0.8841507338209569 0.4099438443677621
5.656854152679443 5.656854152679443 4.898587410340671e-16 0.7071067811865476 0.7071067811865476 1.7926874736169087e-9
5.085686683654785 5.085686683654785 3.503081798553467 0.6327365552556833 0.6327366148603273 0.4464177727849389
4.898587410340671e-16 8 4.898587410340671e-16 -7.377716215728469e-10 1 -7.377716215728469e-10
1.5607225894927979 7.846282005310059 4.898587410340671e-16 0.16593754401072225 0.9861362641580977 -4.597621425058112e-9
4.898587410340671e-16 7.846282005310059 1.5607225894927979 -2.307805295444733e-9 0.9861362641580977 0.16593754401072225
1.6186777353286743 7.665491580963135 1.6186777353286743 0.20860264944350798 0.9554945711552426 0.20860263454234695
4.444561958312988 6.651756763458252 4.898587410340671e-16 0.5438896869369322 0.8391567246013382 7.803636418748646e-10
4.830136775970459 6.147597789764404 1.6961184740066528 0.6011713204265231 0.7642260862460699 0.2335626952183188
3.061467409133911 7.391036033630371 4.898587410340671e-16 0.3599361146809913 0.9329769522064049 4.384747634089999e-9
3.2712604999542236 7.107581615447998 1.66767418384552 0.4099438443677621 0.8841507338209569 0.22410605602893383
4.898587410340671e-16 7.391036033630371 3.061467409133911 8.112907577348301e-10 0.932976962214385 0.359936088739679
1.66767418384552 7.107581615447998 3.2712604999542236 0.22410602772338914 0.884150739726094 0.409943847105728
3.4381299018859863 6.3528361320495605 3.4381299018859863 0.43612725228888244 0.7871378784062543 0.43612725228888244
-3.503081798553467 5.085686683654785 5.085686683654785 -0.44641778962115714 0.6327365791187357 0.6327365791187357
-1.6961184740066528 4.830136775970459 6.147597789764404 -0.23356270930659886 0.6011713183342331 0.7642260835862914
-1.6961184740066528 6.147597789764404 4.830136775970459 -0.23356270930659886 0.7642260835862914 0.6011713183342331
4.898587410340671e-16 5.656854152679443 5.656854152679443 -8.510814421209357e-10 0.7071068407911908 0.7071067215818992
3.503081798553467 5.085686683654785 5.085686683654785 0.44641778962115714 0.6327365791187357 0.6327365791187357
4.898587410340671e-16 4.444561958312988 6.651756763458252 5.741807987727212e-10 0.5438896869369322 0.8391567246013382
1.6961184740066528 4.830136775970459 6.147597789764404 0.2335626952183188 0.6011713204265231 0.7642260862460699
4.898587410340671e-16 6.651756763458252 4.444561958312988 5.741807987727212e-10 0.8391567246013382 0.5438896869369322
1.6961184740066528 6.147597789764404 4.830136775970459 0.2335626952183188 0.7642260862460699 0.6011713204265231
8 4.898587410340671e-16 4.898587410340671e-16 1 -7.377716215728469e-10 -7.377716215728469e-10
7.846282005310059 4.898587410340671e-16 1.5607225894927979 0.9861362641580977 -4.271838466739984e-9 0.16593754401072225
7.846282005310059 1.5607225894927979 4.898587410340671e-16 0.9861362641580977 0.16593754401072225 -4.271838466739984e-9
7.665491580963135 1.6186777353286743 1.6186777353286743 0.9554945711552426 0.20860263454234695 0.20860264944350798
7.391036033630371 4.898587410340671e-16 3.061467409133911 0.932976962214385 4.384747681124887e-9 0.359936088739679
7.107581615447998 1.66767418384552 3.2712604999542236 0.884150723019041 0.2241060532909677 0.40994386916168557
7.391036033630371 3.061467409133911 4.898587410340671e-16 0.932976962214385 0.359936088739679 4.527793256675052e-9
7.107581615447998 3.2712604999542236 1.66767418384552 0.884150723019041 0.40994386916168557 0.2241060532909677
6.3528361320495605 3.4381299018859863 3.4381299018859863 0.7871378784062543 0.43612725228888244 0.43612725228888244
6.651756763458252 4.898587410340671e-16 4.444561958312988 0.8391567246013382 5.741807987727212e-10 0.5438896869369322
6.147597789764404 1.6961184740066528 4.830136775970459 0.7642260862460699 0.2335626952183188 0.6011713204265231
6.651756763458252 4.444561958312988 4.898587410340671e-16 0.8391567246013382 0.5438896869369322 5.741807987727212e-10
6.147597789764404 4.830136775970459 1.6961184740066528 0.7642260862460699 0.6011713204265231 0.2335626952183188
33.85240173339844 -4.830136775970459 -1.6961184740066528 -0.7642257838900983 -0.6011717342507235 -0.23356261938833903
33.85240173339844 -1.6961184740066528 -4.830136775970459 -0.7642257838900983 -0.23356261938833903 -0.6011717342507235
33.64716339111328 -3.4381299018859863 -3.4381299018859863 -0.7871376444757351 -0.43612749319415617 -0.4361274335895101
32.892417907714844 -3.2712604999542236 -1.66767418384552 -0.8841506184323272 -0.40994408455782 -0.224106071898519
32.892417907714844 -1.66767418384552 -3.2712604999542236 -0.8841506213848958 -0.2241060577457468 -0.409944085926804
32.33450698852539 -1.6186777353286743 -1.6186777353286743 -0.9554945154764671 -0.20860276950988846 -0.20860276950988846
38.30388259887695 -6.147597789764404 -4.830136775970459 -0.23356270320739145 -0.7642260040248088 -0.6011714218446591
40 -6.651756763458252 -4.444561958312988 7.803637919291165e-10 -0.83915670696933 -0.5438897141410101
38.30388259887695 -4.830136775970459 -6.147597789764404 -0.23356270320739145 -0.6011714218446591 -0.7642260040248088
40 -4.444561958312988 -6.651756763458252 7.803637919291165e-10 -0.5438897141410101 -0.83915670696933
36.496917724609375 -5.085686683654785 -5.085686683654785 -0.4464177727849389 -0.6327365552556833 -0.6327366148603273
40 -5.656854152679443 -5.656854152679443 -8.238116441230319e-10 -0.7071067811865476 -0.7071067811865476
41.69611740112305 -6.147597789764404 -4.830136775970459 0.23356270093743903 -0.7642260562020816 -0.601171356397343
41.69611740112305 -4.830136775970459 -6.147597789764404 0.23356270093743903 -0.601171356397343 -0.7642260562020816
43.503082275390625 -5.085686683654785 -5.085686683654785 0.4464177727849389 -0.6327365552556833 -0.6327366148603273
36.56187057495117 -6.3528361320495605 -3.4381299018859863 -0.43612730276892747 -0.7871379215424991 -0.43612712395499403
38.33232498168945 -7.107581615447998 -3.2712604999542236 -0.22410611897436508 -0.8841506873964938 -0.4099439100835081
40 -7.391036033630371 -3.061467409133911 6.682446199049384e-10 -0.9329769522064049 -0.3599361146809913
36.72874069213867 -7.107581615447998 -1.66767418384552 -0.4099440491119288 -0.8841506658651512 -0.22410594960403507
35.169864654541016 -6.147597789764404 -1.6961184740066528 -0.6011711999933181 -0.7642262038994854 -0.23356262023700594
38.38132095336914 -7.665491580963135 -1.6186777353286743 -0.20860266564151872 -0.9554945770954011 -0.2086025911357132
40 -7.846282005310059 -1.5607225894927979 -2.633586725498492e-9 -0.9861362739116233 -0.16593748604730613
34.91431427001953 -5.085686683654785 -3.503081798553467 -0.6327365040691422 -0.6327366828830765 -0.44641774892188313
41.66767501831055 -7.107581615447998 -3.2712604999542236 0.22410611897436508 -0.8841506873964938 -0.4099439100835081
43.43812942504883 -6.3528361320495605 -3.4381299018859863 0.436127356704957 -0.7871379113115845 -0.43612708848406034
41.61867904663086 -7.665491580963135 -1.6186777353286743 0.20860268054267955 -0.9554945770953998 -0.2086025762345518
43.27125930786133 -7.107581615447998 -1.66767418384552 0.40994405048091176 -0.8841506688177182 -0.2241059354512622
44.830135345458984 -6.147597789764404 -1.6961184740066528 0.6011711999933181 -0.7642262038994854 -0.23356262023700594
45.08568572998047 -5.085686683654785 -3.503081798553467 0.6327365040691422 -0.6327366828830765 -0.44641774892188313
46.14759826660156 -4.830136775970459 -1.6961184740066528 0.7642258387271755 -0.6011716708957123 -0.23356260303011428
36.56187057495117 -3.4381299018859863 -6.3528361320495605 -0.43612730276892747 -0.43612712395499403 -0.7871379215424991
38.33232498168945 -3.2712604999542236 -7.107581615447998 -0.22410611897436508 -0.4099439100835081 -0.8841506873964938
40 -3.061467409133911 -7.391036033630371 6.682446199049384e-10 -0.3599361146809913 -0.9329769522064049
34.91431427001953 -3.503081798553467 -5.085686683654785 -0.6327365040691422 -0.44641774892188313 -0.6327366828830765
36.72874069213867 -1.66767418384552 -7.107581615447998 -0.40994409277172233 -0.22410598698188347 -0.8841506361477355
35.169864654541016 -1.6961184740066528 -6.147597789764404 -0.6011711999933181 -0.23356262023700594 -0.7642262038994854
38.38132095336914 -1.6186777353286743 -7.665491580963135 -0.20860266564151872 -0.2086025911357132 -0.9554945770954011
40 -1.5607225894927979 -7.846282005310059 -2.633586725498492e-9 -0.16593748604730613 -0.9861362739116233
41.66767501831055 -3.2712604999542236 -7.107581615447998 0.22410611897436508 -0.4099439100835081 -0.8841506873964938
43.43812942504883 -3.4381299018859863 -6.3528361320495605 0.436127356704957 -0.43612708848406034 -0.7871379113115845
45.08568572998047 -3.503081798553467 -5.085686683654785 0.6327365040691422 -0.44641774892188313 -0.6327366828830765
41.61867904663086 -1.6186777353286743 -7.665491580963135 0.20860268054267955 -0.2086025762345518 -0.9554945770953998
43.27125930786133 -1.66767418384552 -7.107581615447998 0.4099440955096892 -0.22410595867633717 -0.8841506420528703
44.830135345458984 -1.6961184740066528 -6.147597789764404 0.6011711999933181 -0.23356262023700594 -0.7642262038994854
46.14759826660156 -1.6961184740066528 -4.830136775970459 0.7642258387271755 -0.23356260303011428 -0.6011716708957123
46.35283660888672 -3.4381299018859863 -3.4381299018859863 0.7871376444757351 -0.4361274335895101 -0.43612749319415617
47.107582092285156 -3.2712604999542236 -1.66767418384552 0.8841506184323272 -0.40994408455782 -0.224106071898519
47.107582092285156 -1.66767418384552 -3.2712604999542236 0.8841506213848958 -0.2241060577457468 -0.409944085926804
47.66549301147461 -1.6186777353286743 -1.6186777353286743 0.9554945154764671 -0.20860276950988846 -0.20860276950988846
33.348243713378906 -4.444561958312988 4.898587410340671e-16 -0.8391565180528582 -0.5438900056163959 4.4614406014065876e-9
33.85240173339844 -4.830136775970459 1.6961184740066528 -0.7642257865498748 -0.601171736343014 0.23356260530005835
32.60896301269531 -3.061467409133911 4.898587410340671e-16 -0.9329767989365101 -0.35993651196590587 -3.55380331496349e-9
32.892417907714844 -3.2712604999542236 1.66767418384552 -0.8841506135355428 -0.40994411208970555 0.2241060408550067
33.64716339111328 -3.4381299018859863 3.4381299018859863 -0.7871376444757358 -0.4361274633918335 0.4361274633918335
32.153717041015625 -1.5607225894927979 4.898587410340671e-16 -0.9861363170052947 -0.1659372299492588 -3.6202277277969665e-10
32.33450698852539 -1.6186777353286743 1.6186777353286743 -0.9554945154764671 -0.20860276950988846 0.20860276950988846
32.892417907714844 -1.66767418384552 3.2712604999542236 -0.8841506184323272 -0.224106071898519 0.40994408455782
33.85240173339844 -1.6961184740066528 4.830136775970459 -0.7642258387271755 -0.23356260303011428 0.6011716708957123
36.938533782958984 -7.391036033630371 4.898587410340671e-16 -0.3599362903448153 -0.9329768844364864 -1.1764924374530214e-9
36.72874069213867 -7.107581615447998 1.66767418384552 -0.4099440955096892 -0.8841506420528703 0.22410595867633717
35.55543899536133 -6.651756763458252 4.898587410340671e-16 -0.5438897561136451 -0.8391566797652508 1.1577166899446334e-9
35.169864654541016 -6.147597789764404 1.6961184740066528 -0.6011712612560677 -0.76422614640267 0.23356265068352308
38.43927764892578 -7.846282005310059 4.898587410340671e-16 -0.1659375150290144 -0.986136269034861 4.1788453735819954e-10
40 -8 4.898587410340671e-16 -7.377717325951494e-10 -1 8.88639786755796e-11
38.38132095336914 -7.665491580963135 1.6186777353286743 -0.20860269414699045 -0.9554945711552401 0.20860258983886337
40 -7.846282005310059 1.5607225894927979 -6.695544751561059e-10 -0.986136269034861 0.1659375150290144
36.56187057495117 -6.3528361320495605 3.4381299018859863 -0.4361273714981677 -0.787137878406243 0.43612713307958484
38.33232498168945 -7.107581615447998 3.2712604999542236 -0.22410614454194105 -0.8841506706894375 0.40994393213946273
40 -7.391036033630371 3.061467409133911 6.682446199049384e-10 -0.9329769522064049 0.3599361146809913
34.34314727783203 -5.656854152679443 4.898587410340671e-16 -0.7071064831632558 -0.7071070792097137 2.2031400692252748e-10
34.91431427001953 -5.085686683654785 3.503081798553467 -0.6327365482288454 -0.6327366674381321 0.4464177082226157
41.56072235107422 -7.846282005310059 4.898587410340671e-16 0.1659375150290144 -0.986136269034861 2.3819175795883506e-9
43.061466217041016 -7.391036033630371 4.898587410340671e-16 0.3599362903448153 -0.9329768844364864 -2.6955093218751603e-9
41.61867904663086 -7.665491580963135 1.6186777353286743 0.20860269479541538 -0.9554945741253191 0.2086025755861269
43.27125930786133 -7.107581615447998 1.66767418384552 0.4099440955096892 -0.8841506420528703 0.22410595867633717
44.44456100463867 -6.651756763458252 4.898587410340671e-16 0.5438897561136451 -0.8391566797652508 1.5532953673346415e-9
44.830135345458984 -6.147597789764404 1.6961184740066528 0.6011712612560677 -0.76422614640267 0.23356265068352308
41.66767501831055 -7.107581615447998 3.2712604999542236 0.22410611897436508 -0.8841506873964938 0.4099439100835081
43.43812942504883 -6.3528361320495605 3.4381299018859863 0.4361273714981677 -0.787137878406243 0.43612713307958484
45.65685272216797 -5.656854152679443 4.898587410340671e-16 0.7071065427679242 -0.7071070196050905 -1.0832821492045203e-9
46.651756286621094 -4.444561958312988 4.898587410340671e-16 0.8391565180528582 -0.5438900056163959 4.4614406014065876e-9
46.14759826660156 -4.830136775970459 1.6961184740066528 0.7642257838900983 -0.6011717342507235 0.23356261938833903
45.08568572998047 -5.085686683654785 3.503081798553467 0.6327365482288454 -0.6327366674381321 0.4464177082226157
38.30388259887695 -6.147597789764404 4.830136775970459 -0.2335627256648324 -0.7642260287492415 0.6011713816892633
40 -6.651756763458252 4.444561958312988 5.741809385141942e-10 -0.83915670696933 0.5438897141410101
36.496917724609375 -5.085686683654785 5.085686683654785 -0.4464177727849389 -0.6327365552556833 0.6327366148603273
40 -5.656854152679443 5.656854152679443 9.387020210807578e-10 -0.7071067811865476 0.7071067811865476
38.30388259887695 -4.830136775970459 6.147597789764404 -0.2335627256648324 -0.6011713816892633 0.7642260287492415
40 -4.444561958312988 6.651756763458252 7.803637919291165e-10 -0.5438897141410101 0.83915670696933
41.69611740112305 -6.147597789764404 4.830136775970459 0.2335627256648324 -0.7642260287492415 0.6011713816892633
43.503082275390625 -5.085686683654785 5.085686683654785 0.44641776575810393 -0.6327365875368447 0.6327365875368447
41.69611740112305 -4.830136775970459 6.147597789764404 0.23356271157655234 -0.6011713837815535 0.76422603140902
47.39103698730469 -3.061467409133911 4.898587410340671e-16 0.9329767989365101 -0.35993651196590587 -3.55380331496349e-9
47.107582092285156 -3.2712604999542236 1.66767418384552 0.8841506135355428 -0.40994411208970555 0.2241060408550067
46.35283660888672 -3.4381299018859863 3.4381299018859863 0.7871376876120131 -0.43612742446492225 0.43612742446492225
47.846282958984375 -1.5607225894927979 4.898587410340671e-16 0.9861363170052947 -0.1659372299492588 -3.6202277277969665e-10
47.66549301147461 -1.6186777353286743 1.6186777353286743 0.9554945154764671 -0.20860276950988846 0.20860276950988846
47.107582092285156 -1.66767418384552 3.2712604999542236 0.8841506184323272 -0.224106071898519 0.40994408455782
34.91431427001953 -3.503081798553467 5.085686683654785 -0.6327365124872493 -0.4464177250588295 0.6327366913011859
36.56187057495117 -3.4381299018859863 6.3528361320495605 -0.43612736016094766 -0.43612718134701517 0.7871378579444333
38.33232498168945 -3.2712604999542236 7.107581615447998 -0.22410611349843015 -0.40994395967135167 0.8841506657926588
40 -3.061467409133911 7.391036033630371 6.682446199049384e-10 -0.3599361146809913 0.9329769522064049
35.169864654541016 -1.6961184740066528 6.147597789764404 -0.6011711999933181 -0.23356262023700594 0.7642262038994854
36.72874069213867 -1.66767418384552 7.107581615447998 -0.40994409277172233 -0.22410598698188347 0.8841506361477355
38.38132095336914 -1.6186777353286743 7.665491580963135 -0.20860266564151872 -0.2086025911357132 0.9554945770954011
40 -1.5607225894927979 7.846282005310059 -2.633586725498492e-9 -0.16593748604730613 0.9861362739116233
45.08568572998047 -3.503081798553467 5.085686683654785 0.6327365040691422 -0.44641774892188313 0.6327366828830765
43.43812942504883 -3.4381299018859863 6.3528361320495605 0.4361273714981677 -0.43612713307958484 0.787137878406243
41.66767501831055 -3.2712604999542236 7.107581615447998 0.22410611897436508 -0.4099439100835081 0.8841506873964938
46.14759826660156 -1.6961184740066528 4.830136775970459 0.7642258387271755 -0.23356260303011428 0.6011716708957123
41.61867904663086 -1.6186777353286743 7.665491580963135 0.20860266628994356 -0.20860257688297665 0.9554945800654802
43.27125930786133 -1.66767418384552 7.107581615447998 0.40994409277172233 -0.22410598698188347 0.8841506361477355
44.830135345458984 -1.6961184740066528 6.147597789764404 0.6011711999933181 -0.23356262023700594 0.7642262038994854
33.348243713378906 4.898587410340671e-16 -4.444561958312988 -0.8391565180528582 4.4614406014065876e-9 -0.5438900056163959
33.85240173339844 1.6961184740066528 -4.830136775970459 -0.7642257865498748 0.23356260530005835 -0.601171736343014
32.60896301269531 4.898587410340671e-16 -3.061467409133911 -0.9329767889285198 -3.5538028327528263e-9 -0.3599365379072095
32.892417907714844 1.66767418384552 -3.2712604999542236 -0.8841506184323272 0.224106071898519 -0.40994408455782
32.153717041015625 4.898587410340671e-16 -1.5607225894927979 -0.9861363170052947 -6.137005346807802e-10 -0.1659372299492588
32.33450698852539 1.6186777353286743 -1.6186777353286743 -0.9554945214166302 0.20860275590557875 -0.20860275590557875
33.64716339111328 3.4381299018859863 -3.4381299018859863 -0.7871376444757358 0.4361274633918335 -0.4361274633918335
32.892417907714844 3.2712604999542236 -1.66767418384552 -0.8841506184323272 0.40994408455782 -0.224106071898519
33.85240173339844 4.830136775970459 -1.6961184740066528 -0.7642258387271755 0.6011716708957123 -0.23356260303011428
36.938533782958984 4.898587410340671e-16 -7.391036033630371 -0.3599362903448153 -1.1764924374530214e-9 -0.9329768844364864
35.55543899536133 4.898587410340671e-16 -6.651756763458252 -0.5438897561136451 1.1577166899446334e-9 -0.8391566797652508
36.72874069213867 1.66767418384552 -7.107581615447998 -0.4099440955096892 0.22410595867633717 -0.8841506420528703
35.169864654541016 1.6961184740066528 -6.147597789764404 -0.6011711999933181 0.23356262023700594 -0.7642262038994854
38.43927764892578 4.898587410340671e-16 -7.846282005310059 -0.1659375150290144 4.1788453735819954e-10 -0.986136269034861
40 4.898587410340671e-16 -8 -7.377717325951494e-10 8.88639786755796e-11 -1
38.38132095336914 1.6186777353286743 -7.665491580963135 -0.20860269414699045 0.20860258983886337 -0.9554945711552401
40 1.5607225894927979 -7.846282005310059 -6.695544751561059e-10 0.1659375150290144 -0.986136269034861
34.34314727783203 4.898587410340671e-16 -5.656854152679443 -0.7071064831632558 2.2031400692252748e-10 -0.7071070792097137
36.56187057495117 3.4381299018859863 -6.3528361320495605 -0.4361273714981677 0.43612713307958484 -0.787137878406243
38.33232498168945 3.2712604999542236 -7.107581615447998 -0.22410614454194105 0.40994393213946273 -0.8841506706894375
40 3.061467409133911 -7.391036033630371 6.682446199049384e-10 0.3599361146809913 -0.9329769522064049
34.91431427001953 3.503081798553467 -5.085686683654785 -0.6327365279321955 0.4464177657581024 -0.6327366471414895
41.56072235107422 4.898587410340671e-16 -7.846282005310059 0.1659375150290144 2.3819175795883506e-9 -0.986136269034861
43.061466217041016 4.898587410340671e-16 -7.391036033630371 0.3599362903448153 -2.6955093218751603e-9 -0.9329768844364864
44.44456100463867 4.898587410340671e-16 -6.651756763458252 0.5438897561136451 1.5532953673346415e-9 -0.8391566797652508
41.61867904663086 1.6186777353286743 -7.665491580963135 0.20860269479541538 0.2086025755861269 -0.9554945741253191
43.27125930786133 1.66767418384552 -7.107581615447998 0.4099440955096892 0.22410595867633717 -0.8841506420528703
44.830135345458984 1.6961184740066528 -6.147597789764404 0.6011712612560677 0.23356265068352308 -0.76422614640267
45.65685272216797 4.898587410340671e-16 -5.656854152679443 0.7071065427679242 -1.5421979513132254e-9 -0.7071070196050905
46.651756286621094 4.898587410340671e-16 -4.444561958312988 0.8391565180528582 4.4614406014065876e-9 -0.5438900056163959
46.14759826660156 1.6961184740066528 -4.830136775970459 0.7642257838900983 0.23356261938833903 -0.6011717342507235
41.66767501831055 3.2712604999542236 -7.107581615447998 0.22410611897436508 0.4099439100835081 -0.8841506873964938
43.43812942504883 3.4381299018859863 -6.3528361320495605 0.4361273714981677 0.43612713307958484 -0.787137878406243
45.08568572998047 3.503081798553467 -5.085686683654785 0.6327365279321955 0.4464177657581024 -0.6327366471414895
47.39103698730469 4.898587410340671e-16 -3.061467409133911 0.9329767889285198 -3.5538028327528263e-9 -0.3599365379072095
47.107582092285156 1.66767418384552 -3.2712604999542236 0.8841506184323272 0.224106071898519 -0.40994408455782
47.846282958984375 4.898587410340671e-16 -1.5607225894927979 0.9861363170052947 -6.137005346807802e-10 -0.1659372299492588
47.66549301147461 1.6186777353286743 -1.6186777353286743 0.9554945214166302 0.20860275590557875 -0.20860275590557875
46.35283660888672 3.4381299018859863 -3.4381299018859863 0.7871376444757358 0.4361274633918335 -0.4361274633918335
47.107582092285156 3.2712604999542236 -1.66767418384552 0.8841506184323272 0.40994408455782 -0.224106071898519
38.30388259887695 4.830136775970459 -6.147597789764404 -0.23356270320739145 0.6011714218446591 -0.7642260040248088
40 4.444561958312988 -6.651756763458252 5.741809385141942e-10 0.5438897141410101 -0.83915670696933
36.496917724609375 5.085686683654785 -5.085686683654785 -0.4464177727849389 0.6327366148603273 -0.6327365552556833
40 5.656854152679443 -5.656854152679443 9.387020210807578e-10 0.7071067811865476 -0.7071067811865476
38.30388259887695 6.147597789764404 -4.830136775970459 -0.23356270093743903 0.7642260562020816 -0.601171356397343
40 6.651756763458252 -4.444561958312988 7.803637919291165e-10 0.83915670696933 -0.5438897141410101
41.69611740112305 4.830136775970459 -6.147597789764404 0.23356270320739145 0.6011714218446591 -0.7642260040248088
43.503082275390625 5.085686683654785 -5.085686683654785 0.44641776575810393 0.6327365875368447 -0.6327365875368447
41.69611740112305 6.147597789764404 -4.830136775970459 0.23356271157655234 0.76422603140902 -0.6011713837815535
34.91431427001953 5.085686683654785 -3.503081798553467 -0.6327365124872493 0.6327366913011859 -0.4464177250588295
36.56187057495117 6.3528361320495605 -3.4381299018859863 -0.43612736016094766 0.7871378579444333 -0.43612718134701517
38.33232498168945 7.107581615447998 -3.2712604999542236 -0.22410611349843015 0.8841506657926588 -0.40994395967135167
40 7.391036033630371 -3.061467409133911 6.682446199049384e-10 0.9329769522064049 -0.3599361146809913
35.169864654541016 6.147597789764404 -1.6961184740066528 -0.601171265440646 0.764226151722226 -0.2335626225069619
36.72874069213867 7.107581615447998 -1.66767418384552 -0.40994409277172233 0.8841506361477355 -0.22410598698188347
38.38132095336914 7.665491580963135 -1.6186777353286743 -0.20860266564151872 0.9554945770954011 -0.2086025911357132
40 7.846282005310059 -1.5607225894927979 -2.633586725498492e-9 0.9861362739116233 -0.16593748604730613
45.08568572998047 5.085686683654785 -3.503081798553467 0.6327365040691422 0.6327366828830765 -0.44641774892188313
46.14759826660156 4.830136775970459 -1.6961184740066528 0.7642257865498748 0.601171736343014 -0.23356260530005835
43.43812942504883 6.3528361320495605 -3.4381299018859863 0.4361273714981677 0.787137878406243 -0.43612713307958484
41.66767501831055 7.107581615447998 -3.2712604999542236 0.22410611897436508 0.8841506873964938 -0.4099439100835081
41.61867904663086 7.665491580963135 -1.6186777353286743 0.20860266628994356 0.9554945800654802 -0.20860257688297665
43.27125930786133 7.107581615447998 -1.66767418384552 0.40994409277172233 0.8841506361477355 -0.22410598698188347
44.830135345458984 6.147597789764404 -1.6961184740066528 0.601171265440646 0.764226151722226 -0.2335626225069619
32 4.898587410340671e-16 4.898587410340671e-16 -1 -5.638008393482608e-10 -5.638008393482608e-10
32.153717041015625 4.898587410340671e-16 1.5607225894927979 -0.9861363145669172 -2.3312109956655957e-9 0.16593724444011398
32.153717041015625 1.5607225894927979 4.898587410340671e-16 -0.9861363145669172 0.16593724444011398 -2.3312109956655957e-9
32.33450698852539 1.6186777353286743 1.6186777353286743 -0.9554945214166302 0.20860275590557875 0.20860275590557875
32.60896301269531 4.898587410340671e-16 3.061467409133911 -0.9329767889285198 3.8792009879242855e-9 0.3599365379072095
32.892417907714844 1.66767418384552 3.2712604999542236 -0.8841506184323272 0.224106071898519 0.40994408455782
32.60896301269531 3.061467409133911 4.898587410340671e-16 -0.9329767989365101 0.35993651196590587 3.709129736123562e-9
32.892417907714844 3.2712604999542236 1.66767418384552 -0.8841506184323272 0.40994408455782 0.224106071898519
33.64716339111328 3.4381299018859863 3.4381299018859863 -0.7871376671501955 0.4361274429300155 0.4361274429300155
33.348243713378906 4.898587410340671e-16 4.444561958312988 -0.8391565180528582 -2.793377783311252e-9 0.5438900056163959
33.85240173339844 1.6961184740066528 4.830136775970459 -0.7642257865498748 0.23356260530005835 0.601171736343014
33.348243713378906 4.444561958312988 4.898587410340671e-16 -0.8391565180528582 0.5438900056163959 -2.793377783311252e-9
33.85240173339844 4.830136775970459 1.6961184740066528 -0.7642257865498748 0.601171736343014 0.23356260530005835
48 4.898587410340671e-16 4.898587410340671e-16 1 -5.638008393482608e-10 -5.638008393482608e-10
47.846282958984375 4.898587410340671e-16 1.5607225894927979 0.9861363145669172 -2.3312109956655957e-9 0.16593724444011398
47.846282958984375 1.5607225894927979 4.898587410340671e-16 0.9861363145669172 0.16593724444011398 -2.3312109956655957e-9
47.66549301147461 1.6186777353286743 1.6186777353286743 0.9554945214166302 0.20860275590557875 0.20860275590557875
47.39103698730469 4.898587410340671e-16 3.061467409133911 0.9329767889285198 3.8792009879242855e-9 0.3599365379072095
47.107582092285156 1.66767418384552 3.2712604999542236 0.8841506184323272 0.224106071898519 0.40994408455782
47.39103698730469 3.061467409133911 4.898587410340671e-16 0.9329767989365101 0.35993651196590587 3.709129736123562e-9
47.107582092285156 3.2712604999542236 1.66767418384552 0.8841506184323272 0.40994408455782 0.224106071898519
46.35283660888672 3.4381299018859863 3.4381299018859863 0.7871376671501955 0.4361274429300155 0.4361274429300155
34.34314727783203 4.898587410340671e-16 5.656854152679443 -0.7071064831632558 6.503996341788616e-10 0.7071070792097137
35.55543899536133 4.898587410340671e-16 6.651756763458252 -0.5438897561136451 -4.2045233585617095e-9 0.8391566797652508
36.938533782958984 4.898587410340671e-16 7.391036033630371 -0.3599362903448153 -1.1764924374530214e-9 0.9329768844364864
35.169864654541016 1.6961184740066528 6.147597789764404 -0.601171263348357 0.2335626365952426 0.7642261490624481
36.72874069213867 1.66767418384552 7.107581615447998 -0.4099440955096892 0.22410595867633717 0.8841506420528703
38.43927764892578 4.898587410340671e-16 7.846282005310059 -0.1659375150290144 4.1788453735819954e-10 0.986136269034861
40 4.898587410340671e-16 8 -7.377717325951494e-10 8.88639786755796e-11 1
38.38132095336914 1.6186777353286743 7.665491580963135 -0.20860269414699045 0.20860258983886337 0.9554945711552401
40 1.5607225894927979 7.846282005310059 -6.695544751561059e-10 0.1659375150290144 0.986136269034861
34.91431427001953 3.503081798553467 5.085686683654785 -0.6327365124872493 0.4464177250588295 0.6327366913011859
36.56187057495117 3.4381299018859863 6.3528361320495605 -0.4361273714981677 0.43612713307958484 0.787137878406243
38.33232498168945 3.2712604999542236 7.107581615447998 -0.22410614180397326 0.40994395693338403 0.8841506598875201
40 3.061467409133911 7.391036033630371 6.682446199049384e-10 0.3599361146809913 0.9329769522064049
46.651756286621094 4.898587410340671e-16 4.444561958312988 0.8391565180528582 -2.793377783311252e-9 0.5438900056163959
45.65685272216797 4.898587410340671e-16 5.656854152679443 0.7071065427679242 6.503996896900346e-10 0.7071070196050905
46.14759826660156 1.6961184740066528 4.830136775970459 0.7642257865498748 0.23356260530005835 0.601171736343014
44.44456100463867 4.898587410340671e-16 6.651756763458252 0.5438897561136451 1.5532953673346415e-9 0.8391566797652508
41.56072235107422 4.898587410340671e-16 7.846282005310059 0.1659375150290144 2.3819175795883506e-9 0.986136269034861
43.061466217041016 4.898587410340671e-16 7.391036033630371 0.3599362903448153 -2.6955093218751603e-9 0.9329768844364864
41.61867904663086 1.6186777353286743 7.665491580963135 0.20860268054267955 0.2086025762345518 0.9554945770953998
43.27125930786133 1.66767418384552 7.107581615447998 0.4099440955096892 0.22410595867633717 0.8841506420528703
44.830135345458984 1.6961184740066528 6.147597789764404 0.601171265440646 0.2335626225069619 0.764226151722226
45.08568572998047 3.503081798553467 5.085686683654785 0.6327365279321955 0.4464177657581024 0.6327366471414895
43.43812942504883 3.4381299018859863 6.3528361320495605 0.43612730276892747 0.43612712395499403 0.7871379215424991
41.66767501831055 3.2712604999542236 7.107581615447998 0.22410611897436508 0.4099439100835081 0.8841506873964938
34.34314727783203 5.656854152679443 4.898587410340671e-16 -0.7071064831632558 0.7071070792097137 6.503996341788616e-10
34.91431427001953 5.085686683654785 3.503081798553467 -0.6327365124872493 0.6327366913011859 0.4464177250588295
35.55543899536133 6.651756763458252 4.898587410340671e-16 -0.5438897561136451 0.8391566797652508 -4.103501057828817e-9
35.169864654541016 6.147597789764404 1.6961184740066528 -0.6011712612560677 0.76422614640267 0.23356265068352308
36.938533782958984 7.391036033630371 4.898587410340671e-16 -0.3599362903448153 0.9329768844364864 -1.1764924374530214e-9
36.72874069213867 7.107581615447998 1.66767418384552 -0.4099440955096892 0.8841506420528703 0.22410595867633717
38.43927764892578 7.846282005310059 4.898587410340671e-16 -0.1659375150290144 0.986136269034861 4.1788453735819954e-10
40 8 4.898587410340671e-16 -7.377717325951494e-10 1 8.88639786755796e-11
38.38132095336914 7.665491580963135 1.6186777353286743 -0.20860269414699045 0.9554945711552401 0.20860258983886337
40 7.846282005310059 1.5607225894927979 -6.695544751561059e-10 0.986136269034861 0.1659375150290144
36.56187057495117 6.3528361320495605 3.4381299018859863 -0.4361273714981677 0.787137878406243 0.43612713307958484
38.33232498168945 7.107581615447998 3.2712604999542236 -0.22410614180397326 0.8841506598875201 0.40994395693338403
40 7.391036033630371 3.061467409133911 6.682446199049384e-10 0.9329769522064049 0.3599361146809913
46.651756286621094 4.444561958312988 4.898587410340671e-16 0.8391565180528582 0.5438900056163959 -2.793377783311252e-9
46.14759826660156 4.830136775970459 1.6961184740066528 0.7642257865498748 0.601171736343014 0.23356260530005835
45.65685272216797 5.656854152679443 4.898587410340671e-16 0.7071064831632558 0.7071070792097137 6.503996341788616e-10
45.08568572998047 5.085686683654785 3.503081798553467 0.6327365279321955 0.6327366471414895 0.4464177657581024
44.44456100463867 6.651756763458252 4.898587410340671e-16 0.5438897141410101 0.83915670696933 6.595886769589298e-10
41.56072235107422 7.846282005310059 4.898587410340671e-16 0.1659375150290144 0.986136269034861 2.3819175795883506e-9
43.061466217041016 7.391036033630371 4.898587410340671e-16 0.3599362903448153 0.9329768844364864 -2.6955093218751603e-9
41.61867904663086 7.665491580963135 1.6186777353286743 0.20860268054267955 0.9554945770953998 0.2086025762345518
43.27125930786133 7.107581615447998 1.66767418384552 0.4099440955096892 0.8841506420528703 0.22410595867633717
44.830135345458984 6.147597789764404 1.6961184740066528 0.6011711958087405 0.7642261985799293 0.23356264841356694
43.43812942504883 6.3528361320495605 3.4381299018859863 0.43612730276892747 0.7871379215424991 0.43612712395499403
41.66767501831055 7.107581615447998 3.2712604999542236 0.22410611897436508 0.8841506873964938 0.4099439100835081
36.496917724609375 5.085686683654785 5.085686683654785 -0.44641776575810393 0.6327365875368447 0.6327365875368447
40 5.656854152679443 5.656854152679443 9.387020210807578e-10 0.7071067811865476 0.7071067811865476
38.30388259887695 4.830136775970459 6.147597789764404 -0.2335627256648324 0.6011713816892633 0.7642260287492415
40 4.444561958312988 6.651756763458252 5.741809385141942e-10 0.5438897141410101 0.83915670696933
38.30388259887695 6.147597789764404 4.830136775970459 -0.2335627256648324 0.7642260287492415 0.6011713816892633
40 6.651756763458252 4.444561958312988 5.741809385141942e-10 0.83915670696933 0.5438897141410101
43.503082275390625 5.085686683654785 5.085686683654785 0.4464177727849389 0.6327365552556833 0.6327366148603273
41.69611740112305 4.830136775970459 6.147597789764404 0.23356270093743903 0.601171356397343 0.7642260562020816
41.69611740112305 6.147597789764404 4.830136775970459 0.23356270093743903 0.7642260562020816 0.601171356397343
3 0 3 9
3 24 5 1
3 14 26 2
3 14 39 26
3 1 7 0
3 1 0 2
3 10 14 2
3 10 2 0
3 2 26 25
3 2 25 1
3 7 3 0
3 4 3 7
3 17 3 4
3 5 7 1
3 6 7 5
3 6 5 32
3 4 7 6
3 8 4 6
3 18 4 8
3 23 18 8
3 8 6 33
3 34 8 33
3 23 8 34
3 45 23 34
3 9 16 13
3 9 13 12
3 0 9 10
3 12 10 9
3 12 11 10
3 54 57 11
3 13 19 51
3 50 12 13
3 50 54 12
3 13 51 50
3 54 11 12
3 11 15 14
3 15 39 14
3 11 14 10
3 57 15 11
3 58 40 15
3 57 58 15
3 3 16 9
3 17 16 3
3 16 19 13
3 20 19 16
3 20 16 17
3 21 20 17
3 18 17 4
3 21 17 18
3 22 21 18
3 62 19 20
3 19 61 51
3 62 61 19
3 65 62 20
3 65 20 21
3 67 65 21
3 67 21 22
3 72 67 22
3 22 18 23
3 43 22 23
3 43 23 45
3 72 22 43
3 24 1 25
3 29 31 24
3 29 24 28
3 25 28 24
3 25 27 28
3 26 30 27
3 39 30 26
3 26 27 25
3 27 119 116
3 115 35 29
3 28 114 29
3 27 116 28
3 28 116 114
3 115 29 114
3 30 119 27
3 41 120 30
3 30 120 119
3 31 5 24
3 32 5 31
3 33 6 32
3 35 31 29
3 35 36 31
3 32 31 36
3 36 37 32
3 33 32 37
3 37 38 33
3 34 33 38
3 38 44 34
3 45 34 44
3 35 126 36
3 115 125 35
3 35 125 126
3 126 129 36
3 36 129 37
3 37 130 38
3 129 130 37
3 130 133 38
3 38 133 44
3 15 40 39
3 39 41 30
3 40 41 39
3 40 42 41
3 58 83 40
3 83 42 40
3 83 86 42
3 42 138 41
3 41 138 120
3 42 140 138
3 86 140 42
3 86 177 140
3 104 43 46
3 104 72 43
3 44 168 47
3 133 168 44
3 46 43 45
3 44 47 45
3 46 45 47
3 47 48 46
3 106 104 46
3 106 46 48
3 48 109 106
3 47 170 48
3 168 170 47
3 170 172 48
3 48 172 109
3 172 245 109
3 49 57 54
3 52 54 50
3 51 53 50
3 51 63 53
3 52 50 53
3 49 54 52
3 53 55 52
3 53 69 55
3 56 49 52
3 56 52 55
3 55 74 56
3 59 57 49
3 59 58 57
3 84 58 59
3 60 59 49
3 85 59 60
3 60 49 56
3 51 61 63
3 63 61 62
3 64 62 65
3 63 62 64
3 66 65 67
3 64 65 66
3 68 67 72
3 66 67 68
3 63 69 53
3 69 63 64
3 70 64 66
3 69 64 70
3 69 77 55
3 77 69 70
3 78 70 71
3 71 66 68
3 70 66 71
3 68 72 105
3 71 68 73
3 73 68 105
3 73 105 108
3 55 77 74
3 89 60 75
3 89 85 60
3 75 60 56
3 75 56 74
3 74 79 76
3 74 76 75
3 90 89 75
3 90 75 76
3 76 81 91
3 77 79 74
3 79 77 78
3 77 70 78
3 79 78 82
3 82 78 80
3 78 71 80
3 80 71 73
3 80 73 96
3 96 73 108
3 82 80 99
3 99 80 96
3 79 81 76
3 81 79 82
3 81 82 98
3 84 83 58
3 87 86 83
3 87 83 84
3 85 84 59
3 88 84 85
3 88 87 84
3 92 88 85
3 178 86 87
3 178 177 86
3 181 87 88
3 181 178 87
3 186 181 88
3 92 85 89
3 93 92 89
3 93 89 90
3 76 91 90
3 94 90 91
3 94 93 90
3 91 97 95
3 91 95 94
3 186 88 92
3 187 92 93
3 187 186 92
3 190 187 93
3 190 93 94
3 191 94 95
3 95 100 192
3 191 190 94
3 95 192 191
3 96 108 112
3 99 96 102
3 112 102 96
3 98 82 99
3 81 97 91
3 97 81 98
3 97 100 95
3 101 100 97
3 97 98 101
3 103 101 98
3 98 99 103
3 102 103 99
3 112 198 102
3 101 200 100
3 100 199 192
3 200 199 100
3 204 200 101
3 102 203 103
3 103 204 101
3 198 203 102
3 203 204 103
3 105 72 104
3 105 104 107
3 107 104 106
3 109 110 106
3 107 106 110
3 108 105 107
3 108 107 111
3 110 111 107
3 111 112 108
3 109 246 110
3 109 245 246
3 110 249 111
3 246 249 110
3 249 254 111
3 111 254 112
3 254 198 112
3 116 119 113
3 114 116 117
3 115 114 118
3 127 115 118
3 118 114 117
3 117 116 113
3 119 120 121
3 113 119 121
3 121 120 139
3 118 117 122
3 122 134 118
3 117 113 123
3 123 122 117
3 123 144 122
3 113 121 124
3 142 124 121
3 124 123 113
3 127 125 115
3 126 125 127
3 126 128 129
3 126 127 128
3 131 130 129
3 132 133 130
3 131 129 128
3 132 130 131
3 169 133 132
3 127 118 134
3 127 134 128
3 128 135 131
3 128 134 135
3 122 147 134
3 134 147 135
3 135 148 136
3 136 132 131
3 136 131 135
3 137 169 132
3 137 132 136
3 174 169 137
3 120 138 139
3 138 140 141
3 139 138 141
3 140 177 179
3 141 140 179
3 121 139 142
3 139 141 143
3 143 142 139
3 143 154 142
3 183 143 141
3 141 179 183
3 183 211 143
3 144 147 122
3 142 153 124
3 153 145 124
3 124 145 123
3 145 144 123
3 145 146 144
3 146 149 144
3 153 155 145
3 155 146 145
3 156 151 146
3 144 149 147
3 147 149 148
3 135 147 148
3 148 152 150
3 148 149 152
3 150 136 148
3 150 137 136
3 160 174 137
3 160 137 150
3 163 150 152
3 163 160 150
3 146 151 149
3 149 151 152
3 152 151 162
3 154 153 142
3 154 157 153
3 157 155 153
3 211 154 143
3 211 213 154
3 213 157 154
3 155 156 146
3 158 156 155
3 157 158 155
3 159 161 156
3 158 159 156
3 213 216 157
3 216 158 157
3 217 159 158
3 218 164 159
3 216 217 158
3 217 218 159
3 176 174 160
3 166 176 160
3 166 160 163
3 223 176 166
3 152 162 163
3 156 161 151
3 151 161 162
3 159 164 161
3 161 164 165
3 162 161 165
3 162 165 167
3 167 163 162
3 167 166 163
3 165 164 226
3 218 225 164
3 164 225 226
3 165 226 231
3 229 166 167
3 229 223 166
3 231 167 165
3 231 229 167
3 169 168 133
3 171 168 169
3 171 170 168
3 173 172 170
3 173 170 171
3 247 245 172
3 247 172 173
3 174 171 169
3 175 173 171
3 175 171 174
3 176 175 174
3 251 173 175
3 251 247 173
3 256 251 175
3 256 175 176
3 223 256 176
3 179 177 178
3 179 178 180
3 178 181 180
3 181 186 182
3 180 181 182
3 179 180 183
3 184 183 180
3 184 211 183
3 180 182 184
3 185 184 182
3 182 188 185
3 185 212 184
3 186 187 188
3 182 186 188
3 188 187 189
3 187 190 189
3 190 191 193
3 191 192 194
3 189 190 193
3 193 191 194
3 194 192 201
3 195 185 188
3 188 189 195
3 196 195 189
3 189 193 196
3 197 196 193
3 193 194 197
3 208 197 194
3 197 237 196
3 198 255 205
3 192 199 201
3 201 199 200
3 202 200 204
3 202 201 200
3 203 198 205
3 204 203 206
3 203 205 206
3 204 206 202
3 255 253 207
3 205 255 207
3 205 207 210
3 194 201 208
3 208 201 202
3 209 202 206
3 209 208 202
3 242 209 210
3 208 241 197
3 241 208 209
3 206 205 210
3 206 210 209
3 212 213 211
3 212 211 184
3 215 213 212
3 214 212 185
3 214 215 212
3 221 215 214
3 215 216 213
3 219 216 215
3 219 217 216
3 220 218 217
3 220 217 219
3 227 218 220
3 221 219 215
3 222 219 221
3 238 222 221
3 222 220 219
3 233 220 222
3 257 223 230
3 253 257 224
3 224 257 230
3 224 230 235
3 227 225 218
3 226 225 227
3 226 228 231
3 226 227 228
3 230 223 229
3 230 229 232
3 232 229 231
3 232 231 228
3 234 244 235
3 233 227 220
3 227 233 228
3 228 234 232
3 228 233 234
3 243 233 222
3 233 243 234
3 235 230 232
3 235 232 234
3 195 214 185
3 236 214 195
3 196 236 195
3 237 236 196
3 236 221 214
3 238 221 236
3 237 238 236
3 239 238 237
3 241 237 197
3 243 222 238
3 244 242 240
3 244 239 242
3 207 253 224
3 207 224 240
3 210 240 242
3 210 207 240
3 240 235 244
3 240 224 235
3 241 239 237
3 239 241 242
3 242 241 209
3 239 243 238
3 243 239 244
3 234 243 244
3 246 245 247
3 246 247 248
3 249 246 248
3 254 249 250
3 249 248 250
3 248 247 251
3 248 251 252
3 252 251 256
3 250 248 252
3 250 252 253
3 255 250 253
3 253 252 257
3 198 254 255
3 254 250 255
3 257 256 223
3 252 256 257
3 307 261 258
3 327 307 258
3 262 371 259
3 259 371 388
3 258 261 260
3 260 262 259
3 261 262 260
3 261 263 262
3 307 309 261
3 309 263 261
3 309 312 263
3 263 373 262
3 262 373 371
3 263 375 373
3 312 375 263
3 312 435 375
3 264 265 274
3 269 265 264
3 270 265 269
3 289 267 266
3 267 269 266
3 271 269 267
3 273 280 268
3 273 268 264
3 268 291 288
3 268 288 266
3 280 291 268
3 280 260 291
3 266 269 264
3 266 264 268
3 281 265 270
3 271 267 296
3 270 269 271
3 272 270 271
3 282 270 272
3 286 282 272
3 272 271 297
3 298 272 297
3 286 272 298
3 303 286 298
3 276 273 274
3 276 277 273
3 265 275 274
3 281 275 265
3 274 275 278
3 274 278 276
3 275 279 278
3 283 279 275
3 264 274 273
3 316 276 278
3 316 318 276
3 318 277 276
3 318 327 277
3 278 279 320
3 278 320 316
3 279 321 320
3 329 321 279
3 277 280 273
3 277 258 280
3 258 260 280
3 327 258 277
3 283 275 281
3 284 283 281
3 282 281 270
3 284 281 282
3 285 284 282
3 329 279 283
3 330 283 284
3 330 329 283
3 333 330 284
3 333 284 285
3 337 333 285
3 285 282 286
3 287 285 286
3 287 286 303
3 337 285 287
3 338 287 304
3 338 337 287
3 288 292 289
3 288 293 292
3 290 267 289
3 296 267 290
3 289 266 288
3 294 290 289
3 294 289 292
3 295 290 294
3 295 299 290
3 291 293 288
3 291 259 293
3 260 259 291
3 292 380 294
3 293 381 292
3 292 381 380
3 293 388 381
3 384 295 294
3 384 294 380
3 384 385 295
3 295 385 393
3 259 388 293
3 297 271 296
3 296 290 299
3 299 300 296
3 297 296 300
3 300 301 297
3 298 297 301
3 301 302 298
3 303 298 302
3 295 393 299
3 299 394 300
3 300 395 301
3 393 394 299
3 394 395 300
3 395 399 301
3 301 399 302
3 302 400 305
3 399 400 302
3 304 287 303
3 302 305 303
3 304 303 305
3 305 306 304
3 350 338 304
3 350 304 306
3 306 353 350
3 305 405 306
3 400 405 305
3 405 407 306
3 306 407 353
3 407 448 353
3 308 307 327
3 310 307 308
3 310 309 307
3 313 312 309
3 313 309 310
3 311 310 308
3 314 310 311
3 314 313 310
3 315 314 311
3 436 312 313
3 436 435 312
3 439 313 314
3 439 436 313
3 444 439 314
3 444 314 315
3 457 444 315
3 317 318 316
3 317 316 322
3 319 327 318
3 319 318 317
3 320 322 316
3 320 321 323
3 323 321 329
3 320 323 322
3 324 319 317
3 324 317 325
3 322 325 317
3 322 326 325
3 323 326 322
3 326 323 331
3 326 342 325
3 342 326 335
3 325 341 324
3 308 327 319
3 328 319 324
3 328 308 319
3 311 308 328
3 331 329 330
3 332 330 333
3 323 329 331
3 331 330 332
3 332 333 334
3 334 333 337
3 335 331 332
3 326 331 335
3 336 332 334
3 335 332 336
3 347 335 336
3 334 337 339
3 339 337 338
3 339 338 351
3 336 334 340
3 340 334 339
3 340 339 352
3 325 342 341
3 342 344 341
3 344 342 347
3 343 328 324
3 343 324 341
3 356 328 343
3 356 311 328
3 357 356 343
3 357 343 345
3 341 344 345
3 341 345 343
3 345 346 358
3 344 346 345
3 346 344 349
3 342 335 347
3 347 336 348
3 348 336 340
3 344 347 349
3 349 347 348
3 349 348 365
3 365 348 364
3 348 340 364
3 364 340 352
3 346 349 366
3 351 338 350
3 353 354 350
3 351 350 354
3 352 339 351
3 352 351 355
3 354 355 351
3 355 367 352
3 353 449 354
3 353 448 449
3 354 452 355
3 449 452 354
3 452 470 355
3 315 311 356
3 360 356 357
3 360 315 356
3 361 357 358
3 361 360 357
3 345 358 357
3 346 359 358
3 359 346 366
3 358 359 362
3 358 362 361
3 359 363 362
3 368 363 359
3 457 315 360
3 458 360 361
3 459 361 362
3 458 457 360
3 459 458 361
3 362 363 462
3 362 462 459
3 363 463 462
3 474 463 363
3 365 364 370
3 364 352 367
3 367 370 364
3 366 349 365
3 366 365 369
3 370 369 365
3 359 366 368
3 369 368 366
3 355 470 367
3 367 471 370
3 470 471 367
3 370 473 369
3 369 475 368
3 368 474 363
3 475 474 368
3 473 475 369
3 471 473 370
3 388 371 372
3 372 371 374
3 371 373 374
3 373 375 376
3 374 373 376
3 375 435 437
3 376 375 437
3 372 374 377
3 374 376 378
3 378 377 374
3 378 379 377
3 441 378 376
3 376 437 441
3 441 446 378
3 446 379 378
3 446 482 379
3 380 381 382
3 381 388 383
3 386 380 382
3 382 381 383
3 384 380 386
3 387 385 384
3 393 385 387
3 387 384 386
3 383 388 372
3 382 383 389
3 389 390 382
3 386 382 390
3 390 391 386
3 387 386 391
3 387 391 396
3 390 412 391
3 391 412 402
3 389 411 390
3 383 372 392
3 392 389 383
3 377 392 372
3 393 396 394
3 397 395 394
3 393 387 396
3 397 394 396
3 398 395 397
3 398 399 395
3 401 400 399
3 401 399 398
3 406 400 401
3 396 402 397
3 396 391 402
3 403 398 397
3 403 397 402
3 402 417 403
3 404 398 403
3 404 401 398
3 409 401 404
3 406 405 400
3 408 407 405
3 408 405 406
3 450 448 407
3 450 407 408
3 409 406 401
3 410 408 406
3 410 406 409
3 429 410 409
3 454 408 410
3 454 450 408
3 495 454 410
3 411 412 390
3 411 414 412
3 412 414 417
3 392 413 389
3 413 411 389
3 377 420 392
3 420 413 392
3 420 421 413
3 421 415 413
3 413 415 411
3 415 414 411
3 422 416 415
3 415 416 414
3 414 416 419
3 402 412 417
3 418 403 417
3 418 404 403
3 417 419 418
3 417 414 419
3 430 418 419
3 430 428 418
3 428 409 404
3 428 404 418
3 419 416 431
3 379 420 377
3 379 424 420
3 424 421 420
3 482 424 379
3 425 422 421
3 424 425 421
3 421 422 415
3 422 423 416
3 416 423 431
3 426 423 422
3 425 426 422
3 426 427 423
3 423 427 432
3 484 425 424
3 482 484 424
3 486 426 425
3 484 486 425
3 488 427 426
3 486 488 426
3 488 489 427
3 427 489 500
3 434 428 430
3 429 409 428
3 434 429 428
3 495 410 429
3 497 495 429
3 497 429 434
3 419 431 430
3 433 430 431
3 433 434 430
3 431 423 432
3 431 432 433
3 499 434 433
3 501 433 432
3 432 427 500
3 432 500 501
3 501 499 433
3 499 497 434
3 437 435 436
3 437 436 438
3 436 439 438
3 439 444 440
3 438 439 440
3 437 438 441
3 442 441 438
3 442 446 441
3 438 440 442
3 443 442 440
3 440 445 443
3 443 447 442
3 444 457 445
3 440 444 445
3 447 482 446
3 447 446 442
3 449 448 450
3 449 450 451
3 452 449 451
3 470 452 453
3 452 451 453
3 451 450 454
3 451 454 455
3 455 454 495
3 453 451 455
3 453 455 456
3 472 453 456
3 456 455 496
3 445 457 460
3 457 458 460
3 458 459 461
3 460 458 461
3 461 459 464
3 459 462 464
3 462 463 465
3 465 463 474
3 464 462 465
3 466 443 445
3 445 460 466
3 467 466 460
3 460 461 467
3 468 467 461
3 461 464 468
3 469 468 464
3 464 465 469
3 469 465 476
3 468 509 467
3 469 510 468
3 510 469 481
3 471 470 472
3 470 453 472
3 471 472 478
3 476 474 475
3 475 473 477
3 473 478 477
3 475 477 476
3 476 465 474
3 473 471 478
3 478 479 480
3 472 456 479
3 478 472 479
3 477 478 480
3 477 480 481
3 481 476 477
3 481 469 476
3 514 481 480
3 485 482 447
3 483 447 443
3 483 485 447
3 492 485 483
3 485 484 482
3 487 484 485
3 487 486 484
3 490 486 487
3 490 488 486
3 491 489 488
3 500 489 491
3 491 488 490
3 492 487 485
3 493 487 492
3 511 493 492
3 493 490 487
3 494 490 493
3 494 491 490
3 491 494 502
3 512 494 493
3 494 512 506
3 496 495 497
3 455 495 496
3 496 497 504
3 498 504 505
3 456 496 498
3 498 496 504
3 504 499 503
3 500 502 501
3 503 499 501
3 503 501 502
3 500 491 502
3 504 497 499
3 505 504 503
3 505 503 506
3 506 515 505
3 502 506 503
3 502 494 506
3 466 483 443
3 507 483 466
3 467 507 466
3 509 507 467
3 507 492 483
3 511 492 507
3 509 511 507
3 508 511 509
3 510 509 468
3 510 508 509
3 508 510 514
3 512 493 511
3 508 512 511
3 512 508 515
3 480 513 514
3 480 479 513
3 513 505 515
3 513 498 505
3 515 514 513
3 515 508 514
3 479 456 498
3 479 498 513
3 514 510 481
3 506 512 515

