ply
format ascii 1.0
element vertex 40
property float x
property float y
property float z
property float nx
property float ny
property float nz
element face 76
property list uchar int vertex_index
end_header
-150 -150 -5 -0.06648224557976422 -0.03324112278988211 -0.9972337433011078
-150 -150 5 -0.03324112278988211 -0.06648224557976422 0.9972337433011078
-150 150 -5 -0.016655104510978493 0.033310209021956985 -0.9993062781092902
-150 150 5 -0.036333993971871974 0.018166996985935987 0.9991745598755831
150 -150 -5 0.016655104510978493 -0.033310209021956985 -0.9993062781092902
150 -150 5 0.03633428034587122 -0.01816714017293561 0.9991745468583978
150 150 -5 0.06648224557976422 0.03324112278988211 -0.9972337433011078
99.99617004394531 99.99076080322266 5 -1.6988862228116547e-7 -3.4384643754490047e-7 0.9999999999999265
99.99292755126953 99.99292755126953 5 -0.015991876174915102 -0.014003467985219306 0.9997740558650204
99.99076080322266 99.99617004394531 5 -0.01344552764120797 -0.004553978449396313 0.9998992344565186
100 99.98999786376953 5 -0.0007967870213980726 -0.011999612494524694 0.9999276846004536
99.98999786376953 100 5 -0.011999612494524694 0.0007967870213980726 0.9999276846004536
99.99076080322266 100.00382995605469 5 -0.010774707644819664 0.005323598271598914 0.9999277798804328
99.99292755126953 100.00707244873047 5 -0.00933659728649359 0.010662337765473139 0.9998995662087693
99.99617004394531 100.00923919677734 5 -0.006799092217265768 0.0200741798879872 0.9997753745951367
100.00382995605469 99.99076080322266 5 0.0038572175403990233 -0.011388355065068587 0.9999277110080298
100.00707244873047 99.99292755126953 5 0.00933659728649359 -0.010662337765473139 0.9998995662087693
100.00923919677734 99.99617004394531 5 0.01899250969401057 -0.009383873083242482 0.9997755885704956
100.01000213623047 100 5 0.000001532226406196072 -1.0174146325413685e-7 0.9999999999988209
100 100.01000213623047 5 0.003977673079915902 0.059903758781454736 0.9981962321110627
100.00923919677734 100.00382995605469 5 0.04356083966469734 0.014753985972291096 0.9989418267074595
100.00707244873047 100.00707244873047 5 0.031964354985247266 0.02798995070372061 0.9990970136428095
100.00382995605469 100.00923919677734 5 6.796380489496372e-7 0.0000013755549161926135 0.9999999999988229
99.99292755126953 99.99292755126953 7 -0.6587747835937701 -0.7523168216314999 0.005931643217456563
99.99076080322266 99.99617004394531 7 -0.8965367149250042 -0.44296342482650536 0.0023071752111166457
99.99617004394531 99.99076080322266 7 -0.3207844560438927 -0.9471094203184308 0.009004371422250454
99.98999786376953 100 7 -0.9978026805806369 -0.06625516006188387 0.0002537543492732516
99.99076080322266 100.00382995605469 7 -0.9471473724036513 0.3207972954007724 0.0009747883918100056
99.99292755126953 100.00707244873047 7 -0.7523238722391934 0.6587809975904008 0.004048267879226816
99.99617004394531 100.00923919677734 7 -0.44295154764281786 0.8965127217591848 0.007672428870383102
100 99.98999786376953 7 0.06625202241227209 -0.9977555189216011 0.009725944055478343
100.00382995605469 99.99076080322266 7 0.44295154764281786 -0.8965127217591848 0.007672428870383102
100.00707244873047 99.99292755126953 7 0.7523238722391934 -0.6587809975904008 0.004048267879226816
100.00923919677734 99.99617004394531 7 0.9471473724036513 -0.3207972954007724 0.0009747883918100056
100 100.01000213623047 7 -0.06625202241227209 0.9977555189216011 0.009725944055478343
100.00382995605469 100.00923919677734 7 0.3207844560438927 0.9471094203184308 0.009004371422250454
100.01000213623047 100 7 0.9978026805806369 0.06625516006188387 0.0002537543492732516
100.00923919677734 100.00382995605469 7 0.8965367149250042 0.44296342482650536 0.0023071752111166457
100.00707244873047 100.00707244873047 7 0.6587747835937701 0.7523168216314999 0.005931643217456563
150 150 5 0.09760550586039851 0.19521101172079702 0.9758923230196446
3 0 4 1
3 0 2 4
3 0 1 3
3 1 5 3
3 0 3 2
3 2 3 39
3 4 6 5
3 1 4 5
3 2 6 4
3 2 39 6
3 3 5 7
3 3 19 22
3 3 14 19
3 3 13 14
3 3 12 13
3 3 11 12
3 3 7 8
3 3 8 9
3 3 9 11
3 3 22 39
3 5 6 39
3 5 18 17
3 5 17 16
3 5 16 15
3 5 15 10
3 5 10 7
3 5 39 18
3 39 20 18
3 39 21 20
3 39 22 21
3 23 8 7
3 24 9 8
3 26 11 9
3 25 7 10
3 27 12 11
3 28 13 12
3 29 14 13
3 34 19 14
3 30 10 15
3 31 15 16
3 32 16 17
3 33 17 18
3 35 22 19
3 36 18 20
3 37 20 21
3 38 21 22
3 23 24 8
3 24 26 9
3 23 7 25
3 25 10 30
3 26 27 11
3 27 28 12
3 28 29 13
3 29 34 14
3 30 15 31
3 31 16 32
3 32 17 33
3 33 18 36
3 34 35 19
3 35 38 22
3 36 20 37
3 37 21 38
3 23 28 24
3 23 25 29
3 25 30 34
3 24 27 26
3 24 28 27
3 23 29 28
3 25 34 29
3 30 31 35
3 31 32 38
3 32 33 37
3 30 35 34
3 31 38 35
3 32 37 38
3 33 36 37

