solid exported
	facet normal 0 -1 0
		outer loop
			vertex -150 -150 -5
			vertex 150 -150 -5
			vertex -150 -150 5
		endloop
	endfacet
	facet normal 0 0 -1
		outer loop
			vertex -150 -150 -5
			vertex -150 150 -5
			vertex 150 -150 -5
		endloop
	endfacet
	facet normal -1 0 0
		outer loop
			vertex -150 -150 -5
			vertex -150 -150 5
			vertex -150 150 5
		endloop
	endfacet
	facet normal 0 0 1
		outer loop
			vertex -150 -150 5
			vertex 150 -150 5
			vertex -150 150 5
		endloop
	endfacet
	facet normal -1 0 0
		outer loop
			vertex -150 -150 -5
			vertex -150 150 5
			vertex -150 150 -5
		endloop
	endfacet
	facet normal 0 1 0
		outer loop
			vertex -150 150 -5
			vertex -150 150 5
			vertex 150 150 5
		endloop
	endfacet
	facet normal 1 0 0
		outer loop
			vertex 150 -150 -5
			vertex 150 150 -5
			vertex 150 -150 5
		endloop
	endfacet
	facet normal 0 -1 0
		outer loop
			vertex -150 -150 5
			vertex 150 -150 -5
			vertex 150 -150 5
		endloop
	endfacet
	facet normal 0 0 -1
		outer loop
			vertex -150 150 -5
			vertex 150 150 -5
			vertex 150 -150 -5
		endloop
	endfacet
	facet normal 0 1 0
		outer loop
			vertex -150 150 -5
			vertex 150 150 5
			vertex 150 150 -5
		endloop
	endfacet
	facet normal 0 0 1
		outer loop
			vertex -150 150 5
			vertex 150 -150 5
			vertex 99.99617004394531 99.99076080322266 5
		endloop
	endfacet
	facet normal 0 0 1
		outer loop
			vertex -150 150 5
			vertex 100 100.01000213623047 5
			vertex 100.00382995605469 100.00923919677734 5
		endloop
	endfacet
	facet normal 0 0 1
		outer loop
			vertex -150 150 5
			vertex 99.99617004394531 100.00923919677734 5
			vertex 100 100.01000213623047 5
		endloop
	endfacet
	facet normal 0 0 1
		outer loop
			vertex -150 150 5
			vertex 99.99292755126953 100.00707244873047 5
			vertex 99.99617004394531 100.00923919677734 5
		endloop
	endfacet
	facet normal 0 0 1
		outer loop
			vertex -150 150 5
			vertex 99.99076080322266 100.00382995605469 5
			vertex 99.99292755126953 100.00707244873047 5
		endloop
	endfacet
	facet normal 0 0 1
		outer loop
			vertex -150 150 5
			vertex 99.98999786376953 100 5
			vertex 99.99076080322266 100.00382995605469 5
		endloop
	endfacet
	facet normal 0 0 1
		outer loop
			vertex -150 150 5
			vertex 99.99617004394531 99.99076080322266 5
			vertex 99.99292755126953 99.99292755126953 5
		endloop
	endfacet
	facet normal 0 0 1
		outer loop
			vertex -150 150 5
			vertex 99.99292755126953 99.99292755126953 5
			vertex 99.99076080322266 99.99617004394531 5
		endloop
	endfacet
	facet normal 0 0 1
		outer loop
			vertex -150 150 5
			vertex 99.99076080322266 99.99617004394531 5
			vertex 99.98999786376953 100 5
		endloop
	endfacet
	facet normal 0 0 1
		outer loop
			vertex -150 150 5
			vertex 100.00382995605469 100.00923919677734 5
			vertex 150 150 5
		endloop
	endfacet
	facet normal 1 0 0
		outer loop
			vertex 150 -150 5
			vertex 150 150 -5
			vertex 150 150 5
		endloop
	endfacet
	facet normal 0 0 1
		outer loop
			vertex 150 -150 5
			vertex 100.01000213623047 100 5
			vertex 100.00923919677734 99.99617004394531 5
		endloop
	endfacet
	facet normal 0 0 1
		outer loop
			vertex 150 -150 5
			vertex 100.00923919677734 99.99617004394531 5
			vertex 100.00707244873047 99.99292755126953 5
		endloop
	endfacet
	facet normal 0 0 1
		outer loop
			vertex 150 -150 5
			vertex 100.00707244873047 99.99292755126953 5
			vertex 100.00382995605469 99.99076080322266 5
		endloop
	endfacet
	facet normal 0 0 1
		outer loop
			vertex 150 -150 5
			vertex 100.00382995605469 99.99076080322266 5
			vertex 100 99.98999786376953 5
		endloop
	endfacet
	facet normal 0 0 1
		outer loop
			vertex 150 -150 5
			vertex 100 99.98999786376953 5
			vertex 99.99617004394531 99.99076080322266 5
		endloop
	endfacet
	facet normal 0 0 1
		outer loop
			vertex 150 -150 5
			vertex 150 150 5
			vertex 100.01000213623047 100 5
		endloop
	endfacet
	facet normal 0 0 1
		outer loop
			vertex 150 150 5
			vertex 100.00923919677734 100.00382995605469 5
			vertex 100.01000213623047 100 5
		endloop
	endfacet
	facet normal 0 0 1
		outer loop
			vertex 150 150 5
			vertex 100.00707244873047 100.00707244873047 5
			vertex 100.00923919677734 100.00382995605469 5
		endloop
	endfacet
	facet normal 0 0 1
		outer loop
			vertex 150 150 5
			vertex 100.00382995605469 100.00923919677734 5
			vertex 100.00707244873047 100.00707244873047 5
		endloop
	endfacet
	facet normal -0.5556027994025541 -0.831447851218611 0
		outer loop
			vertex 99.99292755126953 99.99292755126953 7
			vertex 99.99292755126953 99.99292755126953 5
			vertex 99.99617004394531 99.99076080322266 5
		endloop
	endfacet
	facet normal -0.831447851218611 -0.5556027994025541 0
		outer loop
			vertex 99.99076080322266 99.99617004394531 7
			vertex 99.99076080322266 99.99617004394531 5
			vertex 99.99292755126953 99.99292755126953 5
		endloop
	endfacet
	facet normal -0.9807306683164503 -0.19536467496343632 0
		outer loop
			vertex 99.98999786376953 100 7
			vertex 99.98999786376953 100 5
			vertex 99.99076080322266 99.99617004394531 5
		endloop
	endfacet
	facet normal -0.19536467496343632 -0.9807306683164503 0
		outer loop
			vertex 99.99617004394531 99.99076080322266 7
			vertex 99.99617004394531 99.99076080322266 5
			vertex 100 99.98999786376953 5
		endloop
	endfacet
	facet normal -0.9807306683164503 0.19536467496343632 0
		outer loop
			vertex 99.99076080322266 100.00382995605469 7
			vertex 99.99076080322266 100.00382995605469 5
			vertex 99.98999786376953 100 5
		endloop
	endfacet
	facet normal -0.831447851218611 0.5556027994025541 0
		outer loop
			vertex 99.99292755126953 100.00707244873047 7
			vertex 99.99292755126953 100.00707244873047 5
			vertex 99.99076080322266 100.00382995605469 5
		endloop
	endfacet
	facet normal -0.5556027994025541 0.831447851218611 0
		outer loop
			vertex 99.99617004394531 100.00923919677734 7
			vertex 99.99617004394531 100.00923919677734 5
			vertex 99.99292755126953 100.00707244873047 5
		endloop
	endfacet
	facet normal -0.19536467496343632 0.9807306683164503 0
		outer loop
			vertex 100 100.01000213623047 7
			vertex 100 100.01000213623047 5
			vertex 99.99617004394531 100.00923919677734 5
		endloop
	endfacet
	facet normal 0.19536467496343632 -0.9807306683164503 0
		outer loop
			vertex 100 99.98999786376953 7
			vertex 100 99.98999786376953 5
			vertex 100.00382995605469 99.99076080322266 5
		endloop
	endfacet
	facet normal 0.5556027994025541 -0.831447851218611 0
		outer loop
			vertex 100.00382995605469 99.99076080322266 7
			vertex 100.00382995605469 99.99076080322266 5
			vertex 100.00707244873047 99.99292755126953 5
		endloop
	endfacet
	facet normal 0.831447851218611 -0.5556027994025541 0
		outer loop
			vertex 100.00707244873047 99.99292755126953 7
			vertex 100.00707244873047 99.99292755126953 5
			vertex 100.00923919677734 99.99617004394531 5
		endloop
	endfacet
	facet normal 0.9807306683164503 -0.19536467496343632 0
		outer loop
			vertex 100.00923919677734 99.99617004394531 7
			vertex 100.00923919677734 99.99617004394531 5
			vertex 100.01000213623047 100 5
		endloop
	endfacet
	facet normal 0.19536467496343632 0.9807306683164503 0
		outer loop
			vertex 100.00382995605469 100.00923919677734 7
			vertex 100.00382995605469 100.00923919677734 5
			vertex 100 100.01000213623047 5
		endloop
	endfacet
	facet normal 0.9807306683164503 0.19536467496343632 0
		outer loop
			vertex 100.01000213623047 100 7
			vertex 100.01000213623047 100 5
			vertex 100.00923919677734 100.00382995605469 5
		endloop
	endfacet
	facet normal 0.831447851218611 0.5556027994025541 0
		outer loop
			vertex 100.00923919677734 100.00382995605469 7
			vertex 100.00923919677734 100.00382995605469 5
			vertex 100.00707244873047 100.00707244873047 5
		endloop
	endfacet
	facet normal 0.5556027994025541 0.831447851218611 0
		outer loop
			vertex 100.00707244873047 100.00707244873047 7
			vertex 100.00707244873047 100.00707244873047 5
			vertex 100.00382995605469 100.00923919677734 5
		endloop
	endfacet
	facet normal -0.831447851218611 -0.5556027994025541 0
		outer loop
			vertex 99.99292755126953 99.99292755126953 7
			vertex 99.99076080322266 99.99617004394531 7
			vertex 99.99292755126953 99.99292755126953 5
		endloop
	endfacet
	facet normal -0.9807306683164503 -0.19536467496343632 0
		outer loop
			vertex 99.99076080322266 99.99617004394531 7
			vertex 99.98999786376953 100 7
			vertex 99.99076080322266 99.99617004394531 5
		endloop
	endfacet
	facet normal -0.5556027994025541 -0.831447851218611 0
		outer loop
			vertex 99.99292755126953 99.99292755126953 7
			vertex 99.99617004394531 99.99076080322266 5
			vertex 99.99617004394531 99.99076080322266 7
		endloop
	endfacet
	facet normal -0.19536467496343632 -0.9807306683164503 0
		outer loop
			vertex 99.99617004394531 99.99076080322266 7
			vertex 100 99.98999786376953 5
			vertex 100 99.98999786376953 7
		endloop
	endfacet
	facet normal -0.9807306683164503 0.19536467496343632 0
		outer loop
			vertex 99.98999786376953 100 7
			vertex 99.99076080322266 100.00382995605469 7
			vertex 99.98999786376953 100 5
		endloop
	endfacet
	facet normal -0.831447851218611 0.5556027994025541 0
		outer loop
			vertex 99.99076080322266 100.00382995605469 7
			vertex 99.99292755126953 100.00707244873047 7
			vertex 99.99076080322266 100.00382995605469 5
		endloop
	endfacet
	facet normal -0.5556027994025541 0.831447851218611 0
		outer loop
			vertex 99.99292755126953 100.00707244873047 7
			vertex 99.99617004394531 100.00923919677734 7
			vertex 99.99292755126953 100.00707244873047 5
		endloop
	endfacet
	facet normal -0.19536467496343632 0.9807306683164503 0
		outer loop
			vertex 99.99617004394531 100.00923919677734 7
			vertex 100 100.01000213623047 7
			vertex 99.99617004394531 100.00923919677734 5
		endloop
	endfacet
	facet normal 0.19536467496343632 -0.9807306683164503 0
		outer loop
			vertex 100 99.98999786376953 7
			vertex 100.00382995605469 99.99076080322266 5
			vertex 100.00382995605469 99.99076080322266 7
		endloop
	endfacet
	facet normal 0.5556027994025541 -0.831447851218611 0
		outer loop
			vertex 100.00382995605469 99.99076080322266 7
			vertex 100.00707244873047 99.99292755126953 5
			vertex 100.00707244873047 99.99292755126953 7
		endloop
	endfacet
	facet normal 0.831447851218611 -0.5556027994025541 0
		outer loop
			vertex 100.00707244873047 99.99292755126953 7
			vertex 100.00923919677734 99.99617004394531 5
			vertex 100.00923919677734 99.99617004394531 7
		endloop
	endfacet
	facet normal 0.9807306683164503 -0.19536467496343632 0
		outer loop
			vertex 100.00923919677734 99.99617004394531 7
			vertex 100.01000213623047 100 5
			vertex 100.01000213623047 100 7
		endloop
	endfacet
	facet normal 0.19536467496343632 0.9807306683164503 0
		outer loop
			vertex 100 100.01000213623047 7
			vertex 100.00382995605469 100.00923919677734 7
			vertex 100 100.01000213623047 5
		endloop
	endfacet
	facet normal 0.5556027994025541 0.831447851218611 0
		outer loop
			vertex 100.00382995605469 100.00923919677734 7
			vertex 100.00707244873047 100.00707244873047 7
			vertex 100.00382995605469 100.00923919677734 5
		endloop
	endfacet
	facet normal 0.9807306683164503 0.19536467496343632 0
		outer loop
			vertex 100.01000213623047 100 7
			vertex 100.00923919677734 100.00382995605469 5
			vertex 100.00923919677734 100.00382995605469 7
		endloop
	endfacet
	facet normal 0.831447851218611 0.5556027994025541 0
		outer loop
			vertex 100.00923919677734 100.00382995605469 7
			vertex 100.00707244873047 100.00707244873047 5
			vertex 100.00707244873047 100.00707244873047 7
		endloop
	endfacet
	facet normal 0 0 1
		outer loop
			vertex 99.99292755126953 99.99292755126953 7
			vertex 99.99292755126953 100.00707244873047 7
			vertex 99.99076080322266 99.99617004394531 7
		endloop
	endfacet
	facet normal 0 0 1
		outer loop
			vertex 99.99292755126953 99.99292755126953 7
			vertex 99.99617004394531 99.99076080322266 7
			vertex 99.99617004394531 100.00923919677734 7
		endloop
	endfacet
	facet normal 0 0 1
		outer loop
			vertex 99.99617004394531 99.99076080322266 7
			vertex 100 99.98999786376953 7
			vertex 100 100.01000213623047 7
		endloop
	endfacet
	facet normal 0 0 1
		outer loop
			vertex 99.99076080322266 99.99617004394531 7
			vertex 99.99076080322266 100.00382995605469 7
			vertex 99.98999786376953 100 7
		endloop
	endfacet
	facet normal 0 0 1
		outer loop
			vertex 99.99076080322266 99.99617004394531 7
			vertex 99.99292755126953 100.00707244873047 7
			vertex 99.99076080322266 100.00382995605469 7
		endloop
	endfacet
	facet normal 0 0 1
		outer loop
			vertex 99.99292755126953 99.99292755126953 7
			vertex 99.99617004394531 100.00923919677734 7
			vertex 99.99292755126953 100.00707244873047 7
		endloop
	endfacet
	facet normal 0 0 1
		outer loop
			vertex 99.99617004394531 99.99076080322266 7
			vertex 100 100.01000213623047 7
			vertex 99.99617004394531 100.00923919677734 7
		endloop
	endfacet
	facet normal 0 0 1
		outer loop
			vertex 100 99.98999786376953 7
			vertex 100.00382995605469 99.99076080322266 7
			vertex 100.00382995605469 100.00923919677734 7
		endloop
	endfacet
	facet normal 0 0 1
		outer loop
			vertex 100.00382995605469 99.99076080322266 7
			vertex 100.00707244873047 99.99292755126953 7
			vertex 100.00707244873047 100.00707244873047 7
		endloop
	endfacet
	facet normal 0 0 1
		outer loop
			vertex 100.00707244873047 99.99292755126953 7
			vertex 100.00923919677734 99.99617004394531 7
			vertex 100.00923919677734 100.00382995605469 7
		endloop
	endfacet
	facet normal 0 0 1
		outer loop
			vertex 100 99.98999786376953 7
			vertex 100.00382995605469 100.00923919677734 7
			vertex 100 100.01000213623047 7
		endloop
	endfacet
	facet normal 0 0 1
		outer loop
			vertex 100.00382995605469 99.99076080322266 7
			vertex 100.00707244873047 100.00707244873047 7
			vertex 100.00382995605469 100.00923919677734 7
		endloop
	endfacet
	facet normal 0 0 1
		outer loop
			vertex 100.00707244873047 99.99292755126953 7
			vertex 100.00923919677734 100.00382995605469 7
			vertex 100.00707244873047 100.00707244873047 7
		endloop
	endfacet
	facet normal 0 0 1
		outer loop
			vertex 100.00923919677734 99.99617004394531 7
			vertex 100.01000213623047 100 7
			vertex 100.00923919677734 100.00382995605469 7
		endloop
	endfacet
endsolid exported
