o 
usemtl primitives-cone-8-material
v -8.485280990600586 -8.485280990600586 -15
v -12 0 -15
v -8.485280990600586 8.485280990600586 -15
v 0 -12 -15
v 8.485280990600586 -8.485280990600586 -15
v 0 12 -15
v 12 0 -15
v 8.485280990600586 8.485280990600586 -15
v 0 0 15
vn -0.6565321662808694 -0.6565321662808694 -0.37139066934576814
vn -0.9622504555245509 -7.209924540486648e-9 0.27216550266849454
vn -0.7071067811865476 0.7071067811865476 0
vn -6.187782463382003e-9 -0.8258333442167208 -0.5639142555210209
vn 0.7071067811865476 -0.7071067811865476 -3.097545828444548e-9
vn -6.187782463382003e-9 0.8258333442167208 -0.5639142555210209
vn 0.9622504555245509 -7.209924540486648e-9 0.27216550266849454
vn 0.6565321590141713 0.6565321590141713 -0.371390695037425
vn 4.214685134229508e-8 -4.682983334447495e-9 0.9999999999999991
f 9//9 2//2 1//1
f 9//9 1//1 4//4
f 6//6 4//4 1//1
f 3//3 1//1 2//2
f 9//9 3//3 2//2
f 6//6 1//1 3//3
f 9//9 6//6 3//3
f 9//9 4//4 5//5
f 8//8 5//5 4//4
f 9//9 5//5 7//7
f 8//8 4//4 6//6
f 9//9 8//8 6//6
f 7//7 5//5 8//8
f 9//9 7//7 8//8
