<?xml version="1.0" encoding="utf-8" standalone="no"?>
<!DOCTYPE svg PUBLIC "-//W3C//DTD SVG 1.1//EN" "http://www.w3.org/Graphics/SVG/1.1/DTD/svg11.dtd">
<svg version="1.1" width="419.52pt" height="595.2pt" viewBox="0 0 419.52 595.2" overflow="visible" xmlns="http://www.w3.org/2000/svg">
  <path d="M228.7427,267.1572 L230.0989,270.1145" stroke="#000000" stroke-width="0.24" fill="none" />
  <path d="M182.8998,269.7245 L180.1098,272.9141" stroke="#000000" stroke-width="0.24" fill="none" />
  <path d="M182.8998,304.2319 L180.1098,299.534" stroke="#000000" stroke-width="0.24" fill="none" />
  <path d="M182.8998,304.2319 L184.9924,304.7975" stroke="#000000" stroke-width="0.24" fill="none" />
  <path d="M228.7427,301.6645 L230.0989,296.7345" stroke="#000000" stroke-width="0.24" fill="none" />
  <path d="M230.0989,275.0442 L352.8971,304.5921" stroke="#000000" stroke-width="0.24" fill="none" />
  <path d="M184.1051,305.1847 L80.60723,350.3549" stroke="#000000" stroke-width="0.24" fill="none" />
  <path d="M76.55571,350.6443 L182.4003,304.4499" stroke="#000000" stroke-width="0.24" fill="none" />
  <path d="M230.0989,270.1145 L230.0989,296.7345" stroke="#000000" stroke-width="0.24" fill="none" />
  <path d="M180.1098,272.9141 L180.1098,299.534" stroke="#000000" stroke-width="0.24" fill="none" />
  <path d="M71.67428,320.2392 L71.67428,346.8591" stroke="#000000" stroke-width="0.24" fill="none" />
  <path d="M230.0395,267.4692 L349.9037,296.3112" stroke="#000000" stroke-width="0.24" fill="none" />
  <path d="M228.1833,270.2218 L181.2182,272.852" stroke="#000000" stroke-width="0.24" fill="none" />
  <path d="M76.55571,316.1369 L182.4003,269.9426" stroke="#000000" stroke-width="0.24" fill="none" />
  <path d="M345.5748,330.7614 L227.7256,302.4043" stroke="#000000" stroke-width="0.24" fill="none" />
  <path d="M180.1098,299.534 L71.67428,346.8591" stroke="#000000" stroke-width="0.24" fill="none" />
  <path d="M230.0989,270.1145 L228.1833,270.2218" stroke="#000000" stroke-width="0.24" fill="none" />
  <path d="M352.8971,299.6625 L352.8971,326.2824" stroke="#000000" stroke-width="0.24" fill="none" />
  <path d="M180.1098,272.9141 L71.67428,320.2392" stroke="#000000" stroke-width="0.24" fill="none" />
  <path d="M182.8998,269.7245 L228.7427,267.1572" stroke="#000000" stroke-width="0.24" fill="none" />
  <path d="M352.8971,299.6625 L230.0989,270.1145" stroke="#000000" stroke-width="0.24" fill="none" />
  <path d="M112.3369,271.436 L112.3369,300.5207" stroke="#000000" stroke-width="0.24" fill="none" />
  <path d="M117.7586,298.1545 L117.7586,271.0416" stroke="#000000" stroke-width="0.24" fill="none" />
  <path d="M189.5959,237.7174 L189.5959,269.3495" stroke="#000000" stroke-width="0.24" fill="none" />
  <path d="M195.0176,269.0459 L195.0176,237.323" stroke="#000000" stroke-width="0.24" fill="none" />
  <path d="M275.6431,245.2408 L275.6431,278.4425" stroke="#000000" stroke-width="0.24" fill="none" />
  <path d="M259.1742,244.3231 L259.1742,274.4797" stroke="#000000" stroke-width="0.24" fill="none" />
  <path d="M180.1098,292.6325 L71.67428,339.9577" stroke="#000000" stroke-width="0.24" fill="none" />
  <path d="M71.67428,325.1688 L180.1098,277.8437 L230.0989,275.0442" stroke="#000000" stroke-width="0.24" fill="none" />
  <path d="M352.8971,319.381 L230.0989,289.833" stroke="#000000" stroke-width="0.24" fill="none" />
  <path d="M135.3791,261.3795 L135.3791,290.4643" stroke="#000000" stroke-width="0.24" fill="none" />
  <path d="M140.8008,288.0981 L140.8008,260.9852" stroke="#000000" stroke-width="0.24" fill="none" />
  <path d="M166.5538,247.7738 L166.5538,276.8586" stroke="#000000" stroke-width="0.24" fill="none" />
  <path d="M171.9754,274.4923 L171.9754,247.3794" stroke="#000000" stroke-width="0.24" fill="none" />
  <path d="M225.5028,234.4886 L225.5028,267.3386" stroke="#000000" stroke-width="0.24" fill="none" />
  <path d="M231.211,234.5494 L231.211,267.7511" stroke="#000000" stroke-width="0.24" fill="none" />
  <path d="M269.9349,245.18 L269.9349,277.069" stroke="#000000" stroke-width="0.24" fill="none" />
  <path d="M114.1441,299.732 L114.1441,270.6472" stroke="#000000" stroke-width="0.24" fill="none" />
  <path d="M191.4031,269.2483 L191.4031,236.9286" stroke="#000000" stroke-width="0.24" fill="none" />
  <path d="M96.07187,307.6194 L96.07187,278.5346" stroke="#000000" stroke-width="0.24" fill="none" />
  <path d="M99.68633,306.0419 L99.68633,278.929" stroke="#000000" stroke-width="0.24" fill="none" />
  <path d="M137.1863,289.6756 L137.1863,260.5908" stroke="#000000" stroke-width="0.24" fill="none" />
  <path d="M168.361,276.07 L168.361,246.9851" stroke="#000000" stroke-width="0.24" fill="none" />
  <path d="M75.60208,316.9383 L71.67428,320.2392" stroke="#000000" stroke-width="0.24" fill="none" />
  <path d="M230.0395,301.9766 L349.9037,330.8185" stroke="#000000" stroke-width="0.24" fill="none" />
  <path d="M84.5335,348.6413 L150.8222,364.5855" stroke="#000000" stroke-width="0.24" fill="none" />
  <path d="M80.16432,350.5482 L150.8222,367.5433" stroke="#000000" stroke-width="0.24" fill="none" />
  <path d="M352.8971,326.2824 L230.0989,296.7345" stroke="#000000" stroke-width="0.24" fill="none" />
  <path d="M73.64906,348.3904 L71.67428,346.8591" stroke="#000000" stroke-width="0.24" fill="none" />
  <path d="M150.8222,367.5433 L150.8222,364.5855" stroke="#000000" stroke-width="0.24" fill="none" />
  <path d="M228.7795,301.6734 L230.0395,301.9766" stroke="#000000" stroke-width="0.24" fill="none" />
  <path d="M227.674,302.4072 L184.9924,304.7975" stroke="#000000" stroke-width="0.24" fill="none" />
  <path d="M228.7427,301.6645 L227.674,302.4072" stroke="#000000" stroke-width="0.24" fill="none" />
  <path d="M184.8749,304.1212 L228.7427,301.6645" stroke="#000000" stroke-width="0.24" fill="none" />
  <path d="M80.60723,350.3549 L80.16432,350.5482" stroke="#000000" stroke-width="0.24" fill="none" />
  <path d="M77.20969,350.8218 L76.52574,350.6573" stroke="#000000" stroke-width="0.24" fill="none" />
  <path d="M149.8311,368.2892 L77.20969,350.8218" stroke="#000000" stroke-width="0.24" fill="none" />
  <path d="M151.6278,367.3911 L345.5748,330.7614" stroke="#000000" stroke-width="0.24" fill="none" />
  <path d="M228.1833,296.8417 L181.2182,299.4719 L180.1098,299.534" stroke="#000000" stroke-width="0.24" fill="none" />
  <path d="M182.4003,304.4499 L182.8998,304.2319" stroke="#000000" stroke-width="0.24" fill="none" />
  <path d="M76.52574,350.6573 L73.67951,348.4142" stroke="#000000" stroke-width="0.24" fill="none" />
  <path d="M181.2182,272.852 L180.1098,272.9141" stroke="#000000" stroke-width="0.24" fill="none" />
  <path d="M182.4003,269.9426 L182.8998,269.7245" stroke="#000000" stroke-width="0.24" fill="none" />
  <path d="M76.52574,316.15 L75.602,316.9382" stroke="#000000" stroke-width="0.24" fill="none" />
  <path d="M150.8222,364.5855 L338.6882,329.1043" stroke="#000000" stroke-width="0.24" fill="none" />
  <path d="M184.9924,304.7975 L184.1051,305.1847" stroke="#000000" stroke-width="0.24" fill="none" />
  <path d="M150.8222,367.5433 L151.6278,367.3911" stroke="#000000" stroke-width="0.24" fill="none" />
  <path d="M349.9037,330.8185 L345.5748,330.7614" stroke="#000000" stroke-width="0.24" fill="none" />
  <path d="M349.9037,330.8185 L150.5669,368.4662" stroke="#000000" stroke-width="0.24" fill="none" />
  <path d="M182.8998,304.2319 L184.8749,304.1212" stroke="#000000" stroke-width="0.24" fill="none" />
  <path d="M349.9037,330.8185 L352.8971,326.2824" stroke="#000000" stroke-width="0.24" fill="none" />
  <path d="M150.5669,368.4662 L149.8311,368.2892" stroke="#000000" stroke-width="0.24" fill="none" />
  <path d="M230.0989,296.7345 L228.1833,296.8417" stroke="#000000" stroke-width="0.24" fill="none" />
  <path d="M228.7427,267.1572 L230.0395,267.4692" stroke="#000000" stroke-width="0.24" fill="none" />
  <path d="M349.9037,296.3112 L352.8971,299.6625" stroke="#000000" stroke-width="0.24" fill="none" />
  <path d="M112.3369,281.2952 L109.2898,282.625" stroke="#000000" stroke-width="0.24" fill="none" />
  <path d="M189.5961,247.5765 L171.9754,255.2668" stroke="#000000" stroke-width="0.24" fill="none" />
  <path d="M117.7586,271.0416 L114.1441,270.6472 L112.3369,271.436" stroke="#000000" stroke-width="0.24" fill="none" />
  <path d="M99.68633,278.929 L96.07187,278.5346 L94.26464,279.3234 L94.26464,308.4081" stroke="#000000" stroke-width="0.24" fill="none" />
  <path d="M320.0752,255.9321 L317.3605,255.2789 L314.3671,255.8713" stroke="#000000" stroke-width="0.24" fill="none" />
  <path d="M195.0176,237.323 L191.4031,236.9286 L189.5959,237.7174" stroke="#000000" stroke-width="0.24" fill="none" />
  <path d="M314.3671,255.8713 L314.3671,287.7603" stroke="#000000" stroke-width="0.24" fill="none" />
  <path d="M317.3605,255.2789 L317.3605,288.4809" stroke="#000000" stroke-width="0.24" fill="none" />
  <path d="M231.211,234.5494 L228.4962,233.8962 L225.5028,234.4886" stroke="#000000" stroke-width="0.24" fill="none" />
  <path d="M272.9284,244.5876 L272.9284,277.7892" stroke="#000000" stroke-width="0.24" fill="none" />
  <path d="M228.4962,233.8962 L228.4962,267.171" stroke="#000000" stroke-width="0.24" fill="none" />
  <path d="M225.5028,240.6492 L209.4754,238.9005" stroke="#000000" stroke-width="0.24" fill="none" />
  <path d="M166.5538,257.633 L140.8009,268.8725" stroke="#000000" stroke-width="0.24" fill="none" />
  <path d="M135.3794,271.2386 L117.7586,278.929" stroke="#000000" stroke-width="0.24" fill="none" />
  <path d="M269.9349,259.0536 L259.1742,257.8795" stroke="#000000" stroke-width="0.24" fill="none" />
  <path d="M269.9349,245.18 L272.9284,244.5876 L275.6431,245.2408" stroke="#000000" stroke-width="0.24" fill="none" />
  <path d="M320.0752,255.9321 L320.0752,289.1338" stroke="#000000" stroke-width="0.24" fill="none" />
  <path d="M313.2521,263.7799 L313.2521,287.492" stroke="#000000" stroke-width="0.24" fill="none" />
  <path d="M209.4754,238.9005 L209.4754,268.2362" stroke="#000000" stroke-width="0.24" fill="none" />
  <path d="M313.2521,263.7799 L275.6433,259.6765" stroke="#000000" stroke-width="0.24" fill="none" />
  <path d="M259.1742,244.3231 L231.211,241.272" stroke="#000000" stroke-width="0.24" fill="none" />
  <path d="M209.4754,238.9005 L195.0176,245.2104" stroke="#000000" stroke-width="0.24" fill="none" />
  <path d="M109.2898,282.6251 L109.2898,301.8506" stroke="#000000" stroke-width="0.24" fill="none" />
  <path d="M230.0989,289.833 L180.1098,292.6325" stroke="#000000" stroke-width="0.24" fill="none" />
  <path d="M140.8008,260.9852 L137.1863,260.5908 L135.3791,261.3795" stroke="#000000" stroke-width="0.24" fill="none" />
  <path d="M171.9754,247.3794 L168.361,246.9851 L166.5538,247.7738" stroke="#000000" stroke-width="0.24" fill="none" />
  <path d="M150.5669,368.4662 L150.8222,367.5433" stroke="#000000" stroke-width="0.24" fill="none" />
  <path d="M76.52574,350.6573 L80.16432,350.5482" stroke="#000000" stroke-width="0.24" fill="none" />
</svg>