<?xml version="1.0" encoding="utf-8" standalone="no"?>
<!DOCTYPE svg PUBLIC "-//W3C//DTD SVG 1.1//EN" "http://www.w3.org/Graphics/SVG/1.1/DTD/svg11.dtd">
<svg version="1.1" width="419.52pt" height="595.2pt" viewBox="0 0 419.52 595.2" overflow="visible" xmlns="http://www.w3.org/2000/svg">
  <path d="M195.5853,338.2699 L195.5853,329.4406 L193.9668,330.1469 L193.9668,338.9763 z" stroke="#000000" stroke-width="0.24" fill="none" />
  <path d="M195.5853,326.1296 L195.5853,317.3003 L193.9668,318.0067 L193.9668,326.836 z" stroke="#000000" stroke-width="0.24" fill="none" />
  <path d="M195.5853,253.2878 L195.5853,244.4585 L193.9668,245.1648 L193.9668,253.9941 z" stroke="#000000" stroke-width="0.24" fill="none" />
  <path d="M195.5853,277.5684 L195.5853,268.7391 L193.9668,269.4454 L193.9668,278.2747 z" stroke="#000000" stroke-width="0.24" fill="none" />
  <path d="M195.5853,289.7087 L195.5853,280.8794 L193.9668,281.5857 L193.9668,290.415 z" stroke="#000000" stroke-width="0.24" fill="none" />
  <path d="M195.5853,241.1475 L195.5853,232.3181 L193.9668,233.0245 L193.9668,241.8538 z" stroke="#000000" stroke-width="0.24" fill="none" />
  <path d="M195.5853,313.9893 L195.5853,305.16 L193.9668,305.8663 L193.9668,314.6956 z" stroke="#000000" stroke-width="0.24" fill="none" />
  <path d="M193.1576,232.4947 L215.4111,234.9228 L226.5379,230.0667 L204.2844,227.6386 z" stroke="#000000" stroke-width="0.24" fill="none" />
  <path d="M224.9195,259.8362 L224.9195,251.0069 L221.6826,250.6537 L221.6826,259.483 z" stroke="#000000" stroke-width="0.24" fill="none" />
  <path d="M209.1397,314.7692 L209.1397,305.9399 L205.9028,305.5867 L205.9028,314.416 z" stroke="#000000" stroke-width="0.24" fill="none" />
  <path d="M209.1397,290.4886 L209.1397,281.6593 L205.9028,281.3061 L205.9028,290.1354 z" stroke="#000000" stroke-width="0.24" fill="none" />
  <path d="M203.4752,290.312 L203.4752,281.4827 L201.8567,282.1891 L201.8567,291.0184 z" stroke="#000000" stroke-width="0.24" fill="none" />
  <path d="M203.4752,314.5927 L203.4752,305.7633 L201.8567,306.4697 L201.8567,315.299 z" stroke="#000000" stroke-width="0.24" fill="none" />
  <path d="M221.6826,356.6054 L224.9195,356.9586 L224.9195,348.1293 L221.6826,347.7762 z" stroke="#000000" stroke-width="0.24" fill="none" />
  <path d="M203.4752,351.0135 L203.4752,342.1842 L201.8567,342.8906 L201.8567,351.7199 z" stroke="#000000" stroke-width="0.24" fill="none" />
  <path d="M224.9195,344.8183 L224.9195,335.989 L221.6826,335.6358 L221.6826,344.4651 z" stroke="#000000" stroke-width="0.24" fill="none" />
  <path d="M205.9028,241.5742 L209.1397,241.9274 L209.1397,233.0981 L205.9028,232.7449 z" stroke="#000000" stroke-width="0.24" fill="none" />
  <path d="M209.1397,302.6289 L209.1397,293.7996 L205.9028,293.4464 L205.9028,302.2758 z" stroke="#000000" stroke-width="0.24" fill="none" />
  <path d="M203.4752,241.7508 L203.4752,232.9215 L201.8567,233.6278 L201.8567,242.4572 z" stroke="#000000" stroke-width="0.24" fill="none" />
  <path d="M224.9195,247.6959 L224.9195,238.8666 L221.6826,238.5134 L221.6826,247.3427 z" stroke="#000000" stroke-width="0.24" fill="none" />
  <path d="M224.9195,320.5377 L224.9195,311.7084 L221.6826,311.3552 L221.6826,320.1845 z" stroke="#000000" stroke-width="0.24" fill="none" />
  <path d="M201.8567,254.5975 L203.4752,253.8911 L203.4752,245.0618 L201.8567,245.7681 z" stroke="#000000" stroke-width="0.24" fill="none" />
  <path d="M203.4752,326.7329 L203.4752,317.9036 L201.8567,318.61 L201.8567,327.4393 z" stroke="#000000" stroke-width="0.24" fill="none" />
  <path d="M209.1397,326.9095 L209.1397,318.0802 L205.9028,317.7271 L205.9028,326.5564 z" stroke="#000000" stroke-width="0.24" fill="none" />
  <path d="M209.1397,351.1902 L209.1397,342.3608 L205.9028,342.0077 L205.9028,350.837 z" stroke="#000000" stroke-width="0.24" fill="none" />
  <path d="M195.5853,350.4102 L195.5853,341.5809 L193.9668,342.2873 L193.9668,351.1166 z" stroke="#000000" stroke-width="0.24" fill="none" />
  <path d="M203.4752,338.8733 L203.4752,330.0439 L201.8567,330.7503 L201.8567,339.5796 z" stroke="#000000" stroke-width="0.24" fill="none" />
  <path d="M209.1397,339.0498 L209.1397,330.2205 L205.9028,329.8673 L205.9028,338.6967 z" stroke="#000000" stroke-width="0.24" fill="none" />
  <path d="M224.9195,332.678 L224.9195,323.8487 L221.6826,323.4955 L221.6826,332.3248 z" stroke="#000000" stroke-width="0.24" fill="none" />
  <path d="M224.9195,284.1168 L224.9195,275.2875 L221.6826,274.9343 L221.6826,283.7636 z" stroke="#000000" stroke-width="0.24" fill="none" />
  <path d="M209.1397,278.3483 L209.1397,269.519 L205.9028,269.1658 L205.9028,277.9951 z" stroke="#000000" stroke-width="0.24" fill="none" />
  <path d="M209.1397,266.208 L209.1397,257.3787 L205.9028,257.0255 L205.9028,265.8548 z" stroke="#000000" stroke-width="0.24" fill="none" />
  <path d="M203.4752,278.1717 L203.4752,269.3424 L201.8567,270.0488 L201.8567,278.8781 z" stroke="#000000" stroke-width="0.24" fill="none" />
  <path d="M224.9195,296.2571 L224.9195,287.4278 L221.6826,287.0746 L221.6826,295.9039 z" stroke="#000000" stroke-width="0.24" fill="none" />
  <path d="M203.4752,302.4523 L203.4752,293.623 L201.8567,294.3294 L201.8567,303.1587 z" stroke="#000000" stroke-width="0.24" fill="none" />
  <path d="M221.6826,308.0442 L224.9195,308.3974 L224.9195,299.5681 L221.6826,299.2149 z" stroke="#000000" stroke-width="0.24" fill="none" />
  <path d="M203.4752,266.0314 L203.4752,257.2021 L201.8567,257.9084 L201.8567,266.7378 z" stroke="#000000" stroke-width="0.24" fill="none" />
  <path d="M205.9028,253.7145 L209.1397,254.0677 L209.1397,245.2384 L205.9028,244.8852 z" stroke="#000000" stroke-width="0.24" fill="none" />
  <path d="M224.9195,271.9765 L224.9195,263.1472 L221.6826,262.794 L221.6826,271.6233 z" stroke="#000000" stroke-width="0.24" fill="none" />
  <path d="M204.2844,227.6386 L204.2844,361.182 L226.5379,363.61" stroke="#000000" stroke-width="0.24" fill="none" />
  <path d="M193.1576,232.4947 L193.1576,366.0381" stroke="#000000" stroke-width="0.24" fill="none" />
  <path d="M226.5379,230.0667 L226.5379,363.61" stroke="#000000" stroke-width="0.24" fill="none" />
  <path d="M193.1576,366.0381 L204.2844,361.182" stroke="#000000" stroke-width="0.24" fill="none" />
  <path d="M215.4111,368.4662 L193.1576,366.0381" stroke="#000000" stroke-width="0.24" fill="none" />
  <path d="M226.5379,363.61 L215.4111,368.4662" stroke="#000000" stroke-width="0.24" fill="none" />
  <path d="M204.2844,227.6386 L226.5379,230.0667" stroke="#000000" stroke-width="0.24" fill="none" />
  <path d="M193.1576,232.4947 L204.2844,227.6386" stroke="#000000" stroke-width="0.24" fill="none" />
  <path d="M195.5853,265.4281 L195.5853,256.5988 L193.9668,257.3051 L193.9668,266.1344 z" stroke="#000000" stroke-width="0.24" fill="none" />
  <path d="M195.5853,301.849 L195.5853,293.0197 L193.9668,293.726 L193.9668,302.5553 z" stroke="#000000" stroke-width="0.24" fill="none" />
</svg>