ply
format ascii 1.0
element vertex 446
property float x
property float y
property float z
property float nx
property float ny
property float nz
element face 888
property list uchar int vertex_index
end_header
-2.120148181915283 -7.684497356414795 -6.037671089172363 -0.23356277974799702 -0.764226070287397 -0.601171307872782
-2.120148181915283 -6.037671089172363 -7.684497356414795 -0.23356277974799702 -0.601171307872782 -0.764226070287397
-4.378852367401123 -6.357108116149902 -6.357108116149902 -0.4464178373472605 -0.632736562282517 -0.632736562282517
-6.037671089172363 -7.684497356414795 -2.120148181915283 -0.6011712466100403 -0.7642261277842199 -0.2335627493014828
-6.357108116149902 -6.357108116149902 -4.378852367401123 -0.632736562282517 -0.632736562282517 -0.4464178373472605
-7.684497356414795 -6.037671089172363 -2.120148181915283 -0.7642261251244409 -0.6011712445177503 -0.23356276338976217
-4.297662734985352 -7.941044807434082 -4.297662734985352 -0.43612725228888244 -0.7871378784062543 -0.43612725228888244
-2.084592819213867 -8.884476661682129 -4.089075565338135 -0.22410611811595477 -0.8841507436145106 -0.40994378930397996
-4.089075565338135 -8.884476661682129 -2.084592819213867 -0.40994378930397996 -0.8841507436145106 -0.22410611811595477
-2.0233471393585205 -9.581864356994629 -2.0233471393585205 -0.20860274230126877 -0.9554945273567927 -0.20860274230126877
-6.357108116149902 -4.378852367401123 -6.357108116149902 -0.632736562282517 -0.4464178373472605 -0.632736562282517
-6.037671089172363 -2.120148181915283 -7.684497356414795 -0.601171314149653 -0.23356273748315856 -0.764226078266734
-7.684497356414795 -2.120148181915283 -6.037671089172363 -0.7642261251244409 -0.23356276338976217 -0.6011712445177503
-4.297662734985352 -4.297662734985352 -7.941044807434082 -0.43612725228888244 -0.43612725228888244 -0.7871378784062543
-2.084592819213867 -4.089075565338135 -8.884476661682129 -0.22410611811595477 -0.40994378930397996 -0.8841507436145106
-4.089075565338135 -2.084592819213867 -8.884476661682129 -0.40994378930397996 -0.22410611811595477 -0.8841507436145106
-2.0233471393585205 -2.0233471393585205 -9.581864356994629 -0.20860274230126877 -0.20860274230126877 -0.9554945273567927
-7.941044807434082 -4.297662734985352 -4.297662734985352 -0.7871378784062543 -0.43612725228888244 -0.43612725228888244
-8.884476661682129 -4.089075565338135 -2.084592819213867 -0.8841507436145106 -0.40994378930397996 -0.22410611811595477
-8.884476661682129 -2.084592819213867 -4.089075565338135 -0.8841507436145106 -0.22410611811595477 -0.40994378930397996
-9.581864356994629 -2.0233471393585205 -2.0233471393585205 -0.9554945273567927 -0.20860274230126877 -0.20860274230126877
6.123233998228043e-16 -8.314696311950684 -5.555702209472656 7.402229428586252e-10 -0.8391567518054149 -0.5438896449642935
6.123233998228043e-16 -5.555702209472656 -8.314696311950684 7.402229428586252e-10 -0.5438896449642935 -0.8391567518054149
6.123233998228043e-16 -7.071067810058594 -7.071067810058594 5.861987970398887e-10 -0.7071067513842252 -0.7071068109888685
2.120148181915283 -7.684497356414795 -6.037671089172363 0.2335627493014828 -0.7642261277842199 -0.6011712466100403
2.120148181915283 -6.037671089172363 -7.684497356414795 0.2335627493014828 -0.6011712466100403 -0.7642261277842199
4.378852367401123 -6.357108116149902 -6.357108116149902 0.4321174830361016 -0.6376811730293043 -0.6376811134246607
6.123233998228043e-16 -9.238795280456543 -3.8268344402313232 3.3487901379546005e-9 -0.932976962214385 -0.359936088739679
6.123233998228043e-16 -9.807852745056152 -1.9509031772613525 6.760667070834742e-10 -0.9861362641580977 -0.16593754401072225
2.084592819213867 -8.884476661682129 -4.089075565338135 0.2241061153779882 -0.8841507328125958 -0.40994381409790503
4.297662734985352 -7.941044807434082 -4.297662734985352 0.4307660141017637 -0.7886580189568639 -0.4387016870607109
2.0233471393585205 -9.581864356994629 -2.0233471393585205 0.20860272869695856 -0.9554945332969552 -0.20860272869695856
4.089075565338135 -8.884476661682129 -2.084592819213867 0.40990814111950735 -0.8841630718390143 -0.22412268568832594
6.123233998228043e-16 -3.8268344402313232 -9.238795280456543 3.3487901379546005e-9 -0.359936088739679 -0.932976962214385
6.123233998228043e-16 -1.9509031772613525 -9.807852745056152 6.760667070834742e-10 -0.16593754401072225 -0.9861362641580977
2.084592819213867 -4.089075565338135 -8.884476661682129 0.2241061153779882 -0.40994381409790503 -0.8841507328125958
4.297662734985352 -4.297662734985352 -7.941044807434082 0.4307660141017637 -0.4387016870607109 -0.7886580189568639
2.0233471393585205 -2.0233471393585205 -9.581864356994629 0.20860272869695856 -0.20860272869695856 -0.9554945332969552
4.089075565338135 -2.084592819213867 -8.884476661682129 0.40990811632471064 -0.22412268842625668 -0.8841630826401399
-6.037671089172363 -7.684497356414795 2.120148181915283 -0.6011712466100403 -0.7642261277842199 0.2335627493014828
-8.314696311950684 -5.555702209472656 6.123233998228043e-16 -0.8391567518054149 -0.5438896449642935 -4.0372147529629623e-10
-7.071067810058594 -7.071067810058594 6.123233998228043e-16 -0.7071067811865476 -0.7071067811865476 -1.5915967705279218e-9
-7.684497356414795 -6.037671089172363 2.120148181915283 -0.7642261277842199 -0.6011712466100403 0.2335627493014828
-6.357108116149902 -6.357108116149902 4.378852367401123 -0.6327365707006265 -0.6327365707006265 0.4464178134842093
-4.089075565338135 -8.884476661682129 2.084592819213867 -0.4099438127289217 -0.8841507298600263 0.22410612953075992
-5.555702209472656 -8.314696311950684 6.123233998228043e-16 -0.5438896449642935 -0.8391567518054149 -1.2913623579900524e-9
-3.8268344402313232 -9.238795280456543 6.123233998228043e-16 -0.359936088739679 -0.932976962214385 3.3487901379546005e-9
-2.0233471393585205 -9.581864356994629 2.0233471393585205 -0.20860272869695856 -0.9554945332969552 0.20860272869695856
-4.297662734985352 -7.941044807434082 4.297662734985352 -0.43612721336196425 -0.7871379215425054 0.43612721336196425
-2.084592819213867 -8.884476661682129 4.089075565338135 -0.22410611811595477 -0.8841507436145106 0.40994378930397996
-2.120148181915283 -7.684497356414795 6.037671089172363 -0.23356277974799702 -0.764226070287397 0.601171307872782
-4.378852367401123 -6.357108116149902 6.357108116149902 -0.4464178373472589 -0.6327365026778701 0.6327366218871593
-2.120148181915283 -6.037671089172363 7.684497356414795 -0.23356277974799702 -0.601171307872782 0.764226070287397
-9.238795280456543 -3.8268344402313232 6.123233998228043e-16 -0.932976962214385 -0.359936088739679 3.3487901379546005e-9
-8.884476661682129 -4.089075565338135 2.084592819213867 -0.8841507328125958 -0.40994381409790503 0.2241061153779882
-7.941044807434082 -4.297662734985352 4.297662734985352 -0.7871378784062543 -0.43612725228888244 0.43612725228888244
-9.807852745056152 -1.9509031772613525 6.123233998228043e-16 -0.9861362641580977 -0.16593754401072225 6.760667070834742e-10
-9.581864356994629 -2.0233471393585205 2.0233471393585205 -0.9554945332969552 -0.20860272869695856 0.20860272869695856
-8.884476661682129 -2.084592819213867 4.089075565338135 -0.8841507436145106 -0.22410611811595477 0.40994378930397996
-6.357108116149902 -4.378852367401123 6.357108116149902 -0.6327365026778701 -0.4464178373472589 0.6327366218871593
-7.684497356414795 -2.120148181915283 6.037671089172363 -0.764226070287397 -0.23356277974799702 0.601171307872782
-6.037671089172363 -2.120148181915283 7.684497356414795 -0.6011713120573628 -0.23356275157143822 0.7642260756069552
-4.297662734985352 -4.297662734985352 7.941044807434082 -0.43612725228888244 -0.43612725228888244 0.7871378784062543
-2.084592819213867 -4.089075565338135 8.884476661682129 -0.22410611811595477 -0.40994378930397996 0.8841507436145106
-4.089075565338135 -2.084592819213867 8.884476661682129 -0.40994378930397996 -0.22410611811595477 0.8841507436145106
-2.0233471393585205 -2.0233471393585205 9.581864356994629 -0.20860274230126877 -0.20860274230126877 0.9554945273567927
-1.9509031772613525 -9.807852745056152 6.123233998228043e-16 -0.16593752951986837 -0.9861362665964795 1.3998915487270587e-9
6.123233998228043e-16 -10 6.123233998228043e-16 -9.046949300817175e-10 -1 -9.046949300817175e-10
1.9509031772613525 -9.807852745056152 6.123233998228043e-16 0.16593754401072225 -0.9861362641580977 8.739564685237914e-10
6.123233998228043e-16 -9.807852745056152 1.9509031772613525 -1.6400061457796429e-9 -0.9861362665964795 0.16593752951986837
6.123233998228043e-16 -9.238795280456543 3.8268344402313232 3.148121067010234e-9 -0.9329769522064049 0.3599361146809913
3.8268344402313232 -9.238795280456543 6.123233998228043e-16 0.3599361146809913 -0.9329769522064049 3.148121067010234e-9
2.0233471393585205 -9.581864356994629 2.0233471393585205 0.20860274230126877 -0.9554945273567927 0.20860274230126877
4.089075565338135 -8.884476661682129 2.084592819213867 0.40990811632471064 -0.8841630826401399 0.22412268842625668
5.555702209472656 -8.314696311950684 6.123233998228043e-16 0.5148517436441226 -0.8572792322613483 -2.4501702636624534e-9
2.084592819213867 -8.884476661682129 4.089075565338135 0.22410611811595477 -0.8841507436145106 0.40994378930397996
4.297662734985352 -7.941044807434082 4.297662734985352 0.4307659898295408 -0.7886580290815194 0.4387016926926874
6.123233998228043e-16 -8.314696311950684 5.555702209472656 9.965264228086389e-10 -0.8391567518054149 0.5438896449642935
6.123233998228043e-16 -7.071067810058594 7.071067810058594 6.644188921479887e-10 -0.7071067513842252 0.7071068109888685
6.123233998228043e-16 -5.555702209472656 8.314696311950684 7.402229428586252e-10 -0.5438896449642935 0.8391567518054149
2.120148181915283 -7.684497356414795 6.037671089172363 0.23356275157143822 -0.7642260756069552 0.6011713120573628
4.378852367401123 -6.357108116149902 6.357108116149902 0.43211749946035105 -0.6376811376621287 0.6376811376621287
2.120148181915283 -6.037671089172363 7.684497356414795 0.2335627493014828 -0.6011712466100403 0.7642261277842199
6.123233998228043e-16 -3.8268344402313232 9.238795280456543 3.3487901379546005e-9 -0.359936088739679 0.932976962214385
6.123233998228043e-16 -1.9509031772613525 9.807852745056152 6.760667070834742e-10 -0.16593754401072225 0.9861362641580977
6 -4.735960483551025 6.357108116149902 -3.096839296750894e-9 -0.6438601752866443 0.7651431726676071
2.084592819213867 -4.089075565338135 8.884476661682129 0.2241061153779882 -0.40994381409790503 0.8841507328125958
4.297662734985352 -4.297662734985352 7.941044807434082 0.4307660197337402 -0.43870166299411834 0.7886580292680382
2.0233471393585205 -2.0233471393585205 9.581864356994629 0.20860272869695856 -0.20860272869695856 0.9554945332969552
4.089075565338135 -2.084592819213867 8.884476661682129 0.40990811632471064 -0.22412268842625668 0.8841630826401399
-6.037671089172363 2.120148181915283 -7.684497356414795 -0.6011712466100403 0.2335627493014828 -0.7642261277842199
-8.314696311950684 6.123233998228043e-16 -5.555702209472656 -0.8391567518054149 -4.0372147529629623e-10 -0.5438896449642935
-7.071067810058594 6.123233998228043e-16 -7.071067810058594 -0.7071067811865476 -1.6698168689327524e-9 -0.7071067811865476
-7.684497356414795 2.120148181915283 -6.037671089172363 -0.7642261277842199 0.2335627493014828 -0.6011712466100403
-6.357108116149902 4.378852367401123 -6.357108116149902 -0.6327365707006265 0.4464178134842093 -0.6327365707006265
-5.555702209472656 6.123233998228043e-16 -8.314696311950684 -0.5438896449642935 -1.2913623579900524e-9 -0.8391567518054149
-4.089075565338135 2.084592819213867 -8.884476661682129 -0.4099438127289217 0.22410612953075992 -0.8841507298600263
-3.8268344402313232 6.123233998228043e-16 -9.238795280456543 -0.359936088739679 3.3487901379546005e-9 -0.932976962214385
-2.0233471393585205 2.0233471393585205 -9.581864356994629 -0.20860272869695856 0.20860272869695856 -0.9554945332969552
-4.297662734985352 4.297662734985352 -7.941044807434082 -0.43612721336196425 0.43612721336196425 -0.7871379215425054
-2.084592819213867 4.089075565338135 -8.884476661682129 -0.22410611811595477 0.40994378930397996 -0.8841507436145106
-9.238795280456543 6.123233998228043e-16 -3.8268344402313232 -0.932976962214385 3.3487901379546005e-9 -0.359936088739679
-8.884476661682129 2.084592819213867 -4.089075565338135 -0.8841507328125958 0.2241061153779882 -0.40994381409790503
-9.807852745056152 6.123233998228043e-16 -1.9509031772613525 -0.9861362665964795 1.3998915487270587e-9 -0.16593752951986837
-9.581864356994629 2.0233471393585205 -2.0233471393585205 -0.9554945332969552 0.20860272869695856 -0.20860272869695856
-7.941044807434082 4.297662734985352 -4.297662734985352 -0.7871379215425054 0.43612721336196425 -0.43612721336196425
-8.884476661682129 4.089075565338135 -2.084592819213867 -0.8841507436145106 0.40994378930397996 -0.22410611811595477
-2.120148181915283 6.037671089172363 -7.684497356414795 -0.23356277974799702 0.601171307872782 -0.764226070287397
-4.378852367401123 6.357108116149902 -6.357108116149902 -0.4464178373472589 0.6327366218871593 -0.6327365026778701
-2.120148181915283 7.684497356414795 -6.037671089172363 -0.23356277974799702 0.764226070287397 -0.601171307872782
-6.357108116149902 6.357108116149902 -4.378852367401123 -0.6327365026778701 0.6327366218871593 -0.4464178373472589
-7.684497356414795 6.037671089172363 -2.120148181915283 -0.764226070287397 0.601171307872782 -0.23356277974799702
-6.037671089172363 7.684497356414795 -2.120148181915283 -0.6011713120573628 0.7642260756069552 -0.23356275157143822
-4.297662734985352 7.941044807434082 -4.297662734985352 -0.43612725228888244 0.7871378784062543 -0.43612725228888244
-2.084592819213867 8.884476661682129 -4.089075565338135 -0.22410611811595477 0.8841507436145106 -0.40994378930397996
-4.089075565338135 8.884476661682129 -2.084592819213867 -0.40994378930397996 0.8841507436145106 -0.22410611811595477
-2.0233471393585205 9.581864356994629 -2.0233471393585205 -0.20860274230126877 0.9554945273567927 -0.20860274230126877
-1.9509031772613525 6.123233998228043e-16 -9.807852745056152 -0.16593752951986837 1.3998915487270587e-9 -0.9861362665964795
6.123233998228043e-16 6.123233998228043e-16 -10 -9.046949300817175e-10 -9.046949300817175e-10 -1
1.9509031772613525 6.123233998228043e-16 -9.807852745056152 0.16593754401072225 8.739564685237914e-10 -0.9861362641580977
6.123233998228043e-16 1.9509031772613525 -9.807852745056152 -1.6400061457796429e-9 0.16593752951986837 -0.9861362665964795
6.123233998228043e-16 3.8268344402313232 -9.238795280456543 3.148121067010234e-9 0.3599361146809913 -0.9329769522064049
3.8268344402313232 6.123233998228043e-16 -9.238795280456543 0.3599361146809913 3.148121067010234e-9 -0.9329769522064049
2.0233471393585205 2.0233471393585205 -9.581864356994629 0.20860274230126877 0.20860274230126877 -0.9554945273567927
5.555702209472656 6.123233998228043e-16 -8.314696311950684 0.5148517436441226 -2.4501702636624534e-9 -0.8572792322613483
4.089075565338135 2.084592819213867 -8.884476661682129 0.40990811632471064 0.22412268842625668 -0.8841630826401399
2.084592819213867 4.089075565338135 -8.884476661682129 0.22410611811595477 0.40994378930397996 -0.8841507436145106
4.297662734985352 4.297662734985352 -7.941044807434082 0.4307659898295408 0.4387016926926874 -0.7886580290815194
6.123233998228043e-16 5.555702209472656 -8.314696311950684 9.965264228086389e-10 0.5438896449642935 -0.8391567518054149
6.123233998228043e-16 7.071067810058594 -7.071067810058594 6.644188921479887e-10 0.7071068109888685 -0.7071067513842252
6.123233998228043e-16 8.314696311950684 -5.555702209472656 7.402229428586252e-10 0.8391567518054149 -0.5438896449642935
2.120148181915283 6.037671089172363 -7.684497356414795 0.23356275157143822 0.6011713120573628 -0.7642260756069552
4.378852367401123 6.357108116149902 -6.357108116149902 0.43211749946035105 0.6376811376621287 -0.6376811376621287
2.120148181915283 7.684497356414795 -6.037671089172363 0.2335627493014828 0.7642261277842199 -0.6011712466100403
6.123233998228043e-16 9.238795280456543 -3.8268344402313232 3.3487901379546005e-9 0.932976962214385 -0.359936088739679
6.123233998228043e-16 9.807852745056152 -1.9509031772613525 6.760667070834742e-10 0.9861362641580977 -0.16593754401072225
6 6.631762981414795 -4.364774227142334 1.777821979320837e-8 0.8876075152573842 -0.4606005849525295
2.084592819213867 8.884476661682129 -4.089075565338135 0.2241061153779882 0.8841507328125958 -0.40994381409790503
4.297662734985352 7.941044807434082 -4.297662734985352 0.4307660197337402 0.7886580292680382 -0.43870166299411834
2.0233471393585205 9.581864356994629 -2.0233471393585205 0.20860272869695856 0.9554945332969552 -0.20860272869695856
4.089075565338135 8.884476661682129 -2.084592819213867 0.40990811632471064 0.8841630826401399 -0.22412268842625668
-10 6.123233998228043e-16 6.123233998228043e-16 -1 -9.046949300817175e-10 -9.046949300817175e-10
-9.807852745056152 6.123233998228043e-16 1.9509031772613525 -0.9861362641580977 8.739564685237914e-10 0.16593754401072225
-9.807852745056152 1.9509031772613525 6.123233998228043e-16 -0.9861362641580977 0.16593754401072225 8.739564685237914e-10
-9.581864356994629 2.0233471393585205 2.0233471393585205 -0.9554945273567927 0.20860274230126877 0.20860274230126877
-9.238795280456543 6.123233998228043e-16 3.8268344402313232 -0.932976962214385 3.3487901379546005e-9 0.359936088739679
-8.884476661682129 2.084592819213867 4.089075565338135 -0.8841507436145106 0.22410611811595477 0.40994378930397996
-9.238795280456543 3.8268344402313232 6.123233998228043e-16 -0.9329769522064049 0.3599361146809913 3.148121067010234e-9
-8.884476661682129 4.089075565338135 2.084592819213867 -0.8841507436145106 0.40994378930397996 0.22410611811595477
-7.941044807434082 4.297662734985352 4.297662734985352 -0.7871379420043191 0.4361271948968587 0.4361271948968587
-8.314696311950684 6.123233998228043e-16 5.555702209472656 -0.8391567518054149 6.738059039319461e-10 0.5438896449642935
-7.071067810058594 6.123233998228043e-16 7.071067810058594 -0.7071067811865476 2.9204346108302264e-9 0.7071067811865476
-7.684497356414795 2.120148181915283 6.037671089172363 -0.7642260756069552 0.23356275157143822 0.6011713120573628
-6.037671089172363 2.120148181915283 7.684497356414795 -0.6011712466100403 0.2335627493014828 0.7642261277842199
-6.357108116149902 4.378852367401123 6.357108116149902 -0.632736562282517 0.4464178373472605 0.632736562282517
-5.555702209472656 6.123233998228043e-16 8.314696311950684 -0.5438896449642935 -1.2913623579900524e-9 0.8391567518054149
-4.089075565338135 2.084592819213867 8.884476661682129 -0.4099438127289217 0.22410612953075992 0.8841507298600263
-3.8268344402313232 6.123233998228043e-16 9.238795280456543 -0.359936088739679 3.3487901379546005e-9 0.932976962214385
-2.0233471393585205 2.0233471393585205 9.581864356994629 -0.20860272869695856 0.20860272869695856 0.9554945332969552
-4.297662734985352 4.297662734985352 7.941044807434082 -0.43612721336196425 0.43612721336196425 0.7871379215425054
-2.084592819213867 4.089075565338135 8.884476661682129 -0.22410611811595477 0.40994378930397996 0.8841507436145106
-8.314696311950684 5.555702209472656 6.123233998228043e-16 -0.8391567518054149 0.5438896449642935 6.738059039319461e-10
-7.684497356414795 6.037671089172363 2.120148181915283 -0.7642260756069552 0.6011713120573628 0.23356275157143822
-7.071067810058594 7.071067810058594 6.123233998228043e-16 -0.7071067811865476 0.7071067811865476 -1.5915967705279218e-9
-6.357108116149902 6.357108116149902 4.378852367401123 -0.632736562282517 0.632736562282517 0.4464178373472605
-6.037671089172363 7.684497356414795 2.120148181915283 -0.6011713120573628 0.7642260756069552 0.23356275157143822
-5.555702209472656 8.314696311950684 6.123233998228043e-16 -0.5438896449642935 0.8391567518054149 -1.5476658934512177e-9
-4.089075565338135 8.884476661682129 2.084592819213867 -0.40994381409790503 0.8841507328125958 0.2241061153779882
-3.8268344402313232 9.238795280456543 6.123233998228043e-16 -0.359936088739679 0.932976962214385 3.3487901379546005e-9
-2.0233471393585205 9.581864356994629 2.0233471393585205 -0.20860272869695856 0.9554945332969552 0.20860272869695856
-4.297662734985352 7.941044807434082 4.297662734985352 -0.43612721336196425 0.7871379215425054 0.43612721336196425
-2.084592819213867 8.884476661682129 4.089075565338135 -0.22410611811595477 0.8841507436145106 0.40994378930397996
-4.378852367401123 6.357108116149902 6.357108116149902 -0.4464178134842093 0.6327365707006265 0.6327365707006265
-2.120148181915283 6.037671089172363 7.684497356414795 -0.23356277974799702 0.601171307872782 0.764226070287397
-2.120148181915283 7.684497356414795 6.037671089172363 -0.23356277974799702 0.764226070287397 0.601171307872782
-1.9509031772613525 6.123233998228043e-16 9.807852745056152 -0.16593752951986837 1.3998915487270587e-9 0.9861362665964795
6.123233998228043e-16 6.123233998228043e-16 10 -9.046949300817175e-10 -9.046949300817175e-10 1
1.9509031772613525 6.123233998228043e-16 9.807852745056152 0.16593754401072225 8.739564685237914e-10 0.9861362641580977
6.123233998228043e-16 1.9509031772613525 9.807852745056152 -1.6400061457796429e-9 0.16593752951986837 0.9861362665964795
6.123233998228043e-16 3.8268344402313232 9.238795280456543 3.148121067010234e-9 0.3599361146809913 0.9329769522064049
3.8268344402313232 6.123233998228043e-16 9.238795280456543 0.3599361146809913 3.148121067010234e-9 0.9329769522064049
2.0233471393585205 2.0233471393585205 9.581864356994629 0.20860274230126877 0.20860274230126877 0.9554945273567927
5.555702209472656 6.123233998228043e-16 8.314696311950684 0.5148517436441226 3.732305537294474e-9 0.8572792322613483
4.089075565338135 2.084592819213867 8.884476661682129 0.40990811632471064 0.22412268842625668 0.8841630826401399
2.084592819213867 4.089075565338135 8.884476661682129 0.22410611811595477 0.40994378930397996 0.8841507436145106
4.297662734985352 4.297662734985352 7.941044807434082 0.430765965557317 0.43870169832466377 0.7886580392061746
-1.9509031772613525 9.807852745056152 6.123233998228043e-16 -0.16593752951986837 0.9861362665964795 1.3998915487270587e-9
6.123233998228043e-16 10 6.123233998228043e-16 -9.046949300817175e-10 1 -9.046949300817175e-10
1.9509031772613525 9.807852745056152 6.123233998228043e-16 0.16593754401072225 0.9861362641580977 8.739564685237914e-10
6.123233998228043e-16 9.807852745056152 1.9509031772613525 -1.6400061457796429e-9 0.9861362665964795 0.16593752951986837
6.123233998228043e-16 9.238795280456543 3.8268344402313232 3.148121067010234e-9 0.9329769522064049 0.3599361146809913
6 6.631762981414795 4.364774227142334 -1.762832240521495e-8 0.887607539625702 0.4606005379931809
6 6.357108116149902 4.735960483551025 -1.0177136297333212e-8 0.7651431433036637 0.6438602101818293
3.8268344402313232 9.238795280456543 6.123233998228043e-16 0.3599361146809913 0.9329769522064049 3.148121067010234e-9
2.0233471393585205 9.581864356994629 2.0233471393585205 0.20860274230126877 0.9554945273567927 0.20860274230126877
5.555702209472656 8.314696311950684 6.123233998228043e-16 0.5148517436441226 0.8572792322613483 2.5457573564743626e-9
4.089075565338135 8.884476661682129 2.084592819213867 0.40990814111950735 0.8841630718390143 0.22412268568832594
2.084592819213867 8.884476661682129 4.089075565338135 0.22410611811595477 0.8841507436145106 0.40994378930397996
4.297662734985352 7.941044807434082 4.297662734985352 0.430765965557317 0.7886580392061746 0.43870169832466377
6.123233998228043e-16 7.071067810058594 7.071067810058594 6.644189201511522e-10 0.7071067811865476 0.7071067811865476
6.123233998228043e-16 5.555702209472656 8.314696311950684 9.965264228086389e-10 0.5438896449642935 0.8391567518054149
6.123233998228043e-16 8.314696311950684 5.555702209472656 9.965264228086389e-10 0.8391567518054149 0.5438896449642935
4.378852367401123 6.357108116149902 6.357108116149902 0.43211749946035105 0.6376811376621287 0.6376811376621287
2.120148181915283 6.037671089172363 7.684497356414795 0.2335627493014828 0.6011712466100403 0.7642261277842199
2.120148181915283 7.684497356414795 6.037671089172363 0.2335627493014828 0.7642261277842199 0.6011712466100403
9.879852294921875 -7.684497356414795 -6.037671089172363 -0.23356277974799702 -0.764226070287397 -0.601171307872782
9.879852294921875 -6.037671089172363 -7.684497356414795 -0.23356277974799702 -0.601171307872782 -0.764226070287397
7.621147632598877 -6.357108116149902 -6.357108116149902 -0.4321174752228823 -0.6376811458742534 -0.6376811458742534
12 -8.314696311950684 -5.555702209472656 7.402230538809284e-10 -0.8391567518054149 -0.5438896449642935
12 -5.555702209472656 -8.314696311950684 7.402230538809284e-10 -0.5438896449642935 -0.8391567518054149
12 -7.071067810058594 -7.071067810058594 5.861989882797781e-10 -0.7071067811865476 -0.7071067811865476
7.702337265014648 -7.941044807434082 -4.297662734985352 -0.4307659898295408 -0.7886580290815194 -0.4387016926926874
9.915407180786133 -8.884476661682129 -4.089075565338135 -0.22410611811595477 -0.8841507436145106 -0.40994378930397996
7.910924434661865 -8.884476661682129 -2.084592819213867 -0.40990813975054186 -0.8841630688861851 -0.22412269984098698
6 -7.707695960998535 -2.1194608211517334 2.5068178439057906e-9 -0.9795663872741966 -0.20112109019836458
6 -7.690051555633545 -2.1672909259796143 1.0033868978988102e-8 -0.9215529086308217 -0.38825279985348743
6 -7.7337541580200195 -1.9544360637664795 7.03653018601372e-9 -0.9889849650221242 -0.14801600913478072
9.976653099060059 -9.581864356994629 -2.0233471393585205 -0.20860272804853305 -0.955494530326874 -0.20860274294969436
6 -6.357108116149902 -4.735960483551025 -3.096839177903315e-9 -0.7651431433036637 -0.6438602101818293
6 -6.631762981414795 -4.364774227142334 1.777821979320837e-8 -0.8876075152573842 -0.4606005849525295
12 -9.238795280456543 -3.8268344402313232 3.3487903240769604e-9 -0.9329769522064049 -0.3599361146809913
12 -9.807852745056152 -1.9509031772613525 6.760667609229412e-10 -0.986136261719716 -0.16593755850157602
7.702337265014648 -4.297662734985352 -7.941044807434082 -0.4307659898295408 -0.4387016926926874 -0.7886580290815194
9.915407180786133 -4.089075565338135 -8.884476661682129 -0.22410611811595477 -0.40994378930397996 -0.8841507436145106
6 -4.735960483551025 -6.357108116149902 -3.096839177903315e-9 -0.6438602101818293 -0.7651431433036637
6 -4.364774227142334 -6.631762981414795 1.777821979320837e-8 -0.4606005849525295 -0.8876075152573842
7.910924434661865 -2.084592819213867 -8.884476661682129 -0.4099081149557452 -0.2241227025789179 -0.8841630796873106
6 -2.1672909259796143 -7.690051555633545 6.722547052039202e-9 -0.38825279985348743 -0.9215529086308217
6 -2.1194608211517334 -7.707695960998535 2.5068178439057906e-9 -0.20112109019836458 -0.9795663872741966
6 -1.9544360637664795 -7.7337541580200195 1.295940187642514e-8 -0.1480159945600848 -0.9889849672034396
9.976653099060059 -2.0233471393585205 -9.581864356994629 -0.20860272804853305 -0.20860274294969436 -0.955494530326874
12 -3.8268344402313232 -9.238795280456543 3.3487903240769604e-9 -0.3599361146809913 -0.9329769522064049
12 -1.9509031772613525 -9.807852745056152 6.760667609229412e-10 -0.16593755850157602 -0.986136261719716
14.120147705078125 -7.684497356414795 -6.037671089172363 0.23356275157143822 -0.7642260756069552 -0.6011713120573628
14.120147705078125 -6.037671089172363 -7.684497356414795 0.23356275157143822 -0.6011713120573628 -0.7642260756069552
16.37885284423828 -6.357108116149902 -6.357108116149902 0.4464177011957781 -0.6327366401146534 -0.632736580510007
14.084592819213867 -8.884476661682129 -4.089075565338135 0.2241061350066932 -0.8841507514638549 -0.40994376314107056
16.29766273498535 -7.941044807434082 -4.297662734985352 0.43612720423736684 -0.7871379646787504 -0.4361271446327236
14.023346900939941 -9.581864356994629 -2.0233471393585205 0.20860274230126877 -0.9554945273567927 -0.20860274230126877
16.089075088500977 -8.884476661682129 -2.084592819213867 0.40994385638870984 -0.8841507001426175 -0.22410616690861587
18.037670135498047 -7.684497356414795 -2.120148181915283 0.6011711874395836 -0.7642261879408152 -0.23356270476668714
18.35710906982422 -6.357108116149902 -4.378852367401123 0.6327365482288454 -0.6327366674381321 -0.4464177082226157
19.684497833251953 -6.037671089172363 -2.120148181915283 0.7642260359421359 -0.6011714469521335 -0.23356253414802475
14.084592819213867 -4.089075565338135 -8.884476661682129 0.22410611811595477 -0.40994378930397996 -0.8841507436145106
16.29766273498535 -4.297662734985352 -7.941044807434082 0.43612720423736684 -0.4361271446327236 -0.7871379646787504
14.023346900939941 -2.0233471393585205 -9.581864356994629 0.20860274230126877 -0.20860274230126877 -0.9554945273567927
16.089075088500977 -2.084592819213867 -8.884476661682129 0.40994385638870984 -0.22410616690861587 -0.8841507001426175
18.35710906982422 -4.378852367401123 -6.357108116149902 0.6327365482288454 -0.4464177082226157 -0.6327366674381321
18.037670135498047 -2.120148181915283 -7.684497356414795 0.6011711874395836 -0.23356270476668714 -0.7642261879408152
19.684497833251953 -2.120148181915283 -6.037671089172363 0.7642260359421359 -0.23356253414802475 -0.6011714469521335
19.9410457611084 -4.297662734985352 -4.297662734985352 0.7871378784062543 -0.43612725228888244 -0.43612725228888244
20.884477615356445 -4.089075565338135 -2.084592819213867 0.8841506845164235 -0.4099439981551065 -0.22410596923274018
20.884477615356445 -2.084592819213867 -4.089075565338135 0.8841506845164235 -0.22410596923274018 -0.4099439981551065
21.581865310668945 -2.0233471393585205 -2.0233471393585205 0.9554945273567927 -0.20860274230126877 -0.20860274230126877
7.910924434661865 -8.884476661682129 2.084592819213867 -0.4099081149557452 -0.8841630796873106 0.2241227025789179
6.444297790527344 -8.314696311950684 6.123233998228043e-16 -0.5148517436441226 -0.8572792322613483 -2.450170485707056e-9
6 -7.950070381164551 6.123233998228043e-16 3.2265869975844907e-9 -1 9.88727322237537e-10
6 -7.7337541580200195 1.9544360637664795 -1.2738479451304703e-9 -0.9889849650221242 0.14801600913478072
6 -7.707695960998535 2.1194608211517334 6.743575017007518e-9 -0.9795663931455952 0.20112106160153698
6 -7.690051555633545 2.1672909259796143 1.0033868978988102e-8 -0.9215529086308217 0.38825279985348743
8.173165321350098 -9.238795280456543 6.123233998228043e-16 -0.359936088739679 -0.932976962214385 -9.16386412257631e-10
9.976653099060059 -9.581864356994629 2.0233471393585205 -0.20860272804853305 -0.955494530326874 0.20860274294969436
7.702337265014648 -7.941044807434082 4.297662734985352 -0.4307659599253406 -0.7886580288949991 0.4387017223912556
9.915407180786133 -8.884476661682129 4.089075565338135 -0.22410611811595477 -0.8841507436145106 0.40994378930397996
6 -6.631762981414795 4.364774227142334 -1.762832240521495e-8 -0.887607539625702 0.4606005379931809
6 -6.357108116149902 4.735960483551025 -1.0117644331416047e-8 -0.7651431433036637 0.6438602101818293
10.049097061157227 -9.807852745056152 6.123233998228043e-16 -0.16593752951986837 -0.9861362665964795 1.6413487384955044e-9
12 -10 6.123233998228043e-16 -9.046950966151712e-10 -1 1.3142909070090747e-12
13.950902938842773 -9.807852745056152 6.123233998228043e-16 0.16593752951986837 -0.9861362665964795 3.9104209114789883e-10
12 -9.807852745056152 1.9509031772613525 -1.6400063678242496e-9 -0.9861362665964795 0.16593752951986837
12 -9.238795280456543 3.8268344402313232 3.148121067010234e-9 -0.9329769522064049 0.3599361146809913
9.879852294921875 -7.684497356414795 6.037671089172363 -0.23356277974799702 -0.764226070287397 0.601171307872782
7.621147632598877 -6.357108116149902 6.357108116149902 -0.4321174752228823 -0.6376811458742534 0.6376811458742534
9.879852294921875 -6.037671089172363 7.684497356414795 -0.2335627656597177 -0.6011713099650724 0.7642260729471761
12 -8.314696311950684 5.555702209472656 9.965266448532453e-10 -0.8391567518054149 0.5438896449642935
12 -7.071067810058594 7.071067810058594 6.644190866846087e-10 -0.7071067811865476 0.7071067811865476
12 -5.555702209472656 8.314696311950684 7.402230538809284e-10 -0.5438896449642935 0.8391567518054149
6 -4.364774227142334 6.631762981414795 1.777821979320837e-8 -0.4606005849525295 0.8876075152573842
7.702337265014648 -4.297662734985352 7.941044807434082 -0.4307659898295408 -0.4387016926926874 0.7886580290815194
9.915407180786133 -4.089075565338135 8.884476661682129 -0.22410611811595477 -0.40994378930397996 0.8841507436145106
6 -2.1672909259796143 7.690051555633545 8.856463235019211e-9 -0.38825279985348743 0.9215529086308217
6 -2.1194608211517334 7.707695960998535 2.5068178439057906e-9 -0.20112109019836458 0.9795663872741966
6 -1.9544360637664795 7.7337541580200195 1.295940187642514e-8 -0.1480159945600848 0.9889849672034396
7.910924434661865 -2.084592819213867 8.884476661682129 -0.4099081149557452 -0.2241227025789179 0.8841630796873106
9.976653099060059 -2.0233471393585205 9.581864356994629 -0.20860272804853305 -0.20860274294969436 0.955494530326874
12 -3.8268344402313232 9.238795280456543 3.3487903240769604e-9 -0.3599361146809913 0.9329769522064049
12 -1.9509031772613525 9.807852745056152 6.760667609229412e-10 -0.16593755850157602 0.986136261719716
15.826834678649902 -9.238795280456543 6.123233998228043e-16 0.3599361146809913 -0.9329769522064049 -1.0815603517523983e-11
14.023346900939941 -9.581864356994629 2.0233471393585205 0.20860274230126877 -0.9554945273567927 0.20860274230126877
16.089075088500977 -8.884476661682129 2.084592819213867 0.4099438825516175 -0.8841506922932711 0.22410615001787637
17.555702209472656 -8.314696311950684 6.123233998228043e-16 0.5438896869369322 -0.8391567246013382 4.405694581067055e-10
14.084592819213867 -8.884476661682129 4.089075565338135 0.2241061350066932 -0.8841507514638549 0.40994376314107056
16.29766273498535 -7.941044807434082 4.297662734985352 0.43612718010365303 -0.7871379749096571 0.43612715030133103
18.037670135498047 -7.684497356414795 2.120148181915283 0.6011712549791995 -0.7642261384233352 0.23356269294836388
19.071067810058594 -7.071067810058594 6.123233998228043e-16 0.7071067513842252 -0.7071068109888685 3.096100243062026e-10
19.684497833251953 -6.037671089172363 2.120148181915283 0.7642260359421359 -0.6011714469521335 0.23356253414802475
20.314695358276367 -5.555702209472656 6.123233998228043e-16 0.8391566349291562 -0.5438898252903567 9.879644965613667e-10
18.35710906982422 -6.357108116149902 4.378852367401123 0.6327365040691422 -0.6327366828830765 0.44641774892188313
14.120147705078125 -7.684497356414795 6.037671089172363 0.23356275157143822 -0.7642260756069552 0.6011713120573628
16.37885284423828 -6.357108116149902 6.357108116149902 0.4464177082226172 -0.632736607833491 0.632736607833491
14.120147705078125 -6.037671089172363 7.684497356414795 0.23356275157143822 -0.6011713120573628 0.7642260756069552
21.23879623413086 -3.8268344402313232 6.123233998228043e-16 0.9329768466904991 -0.359936388184708 9.702284580884622e-10
20.884477615356445 -4.089075565338135 2.084592819213867 0.8841506786112883 -0.40994399541714027 0.22410599753828578
19.9410457611084 -4.297662734985352 4.297662734985352 0.7871378784062543 -0.43612725228888244 0.43612725228888244
21.80785369873047 -1.9509031772613525 6.123233998228043e-16 0.9861362901831325 -0.16593738934866023 -2.3770174064936976e-9
21.581865310668945 -2.0233471393585205 2.0233471393585205 0.9554945332969552 -0.20860272869695856 0.20860272869695856
20.884477615356445 -2.084592819213867 4.089075565338135 0.8841506786112883 -0.22410599753828578 0.40994399541714027
14.084592819213867 -4.089075565338135 8.884476661682129 0.22410611811595477 -0.40994378930397996 0.8841507436145106
16.29766273498535 -4.297662734985352 7.941044807434082 0.43612721903057283 -0.4361271892282502 0.787137931773412
14.023346900939941 -2.0233471393585205 9.581864356994629 0.20860274230126877 -0.20860274230126877 0.9554945273567927
16.089075088500977 -2.084592819213867 8.884476661682129 0.40994385638870984 -0.22410616690861587 0.8841507001426175
18.35710906982422 -4.378852367401123 6.357108116149902 0.6327365124872493 -0.4464177250588295 0.6327366913011859
19.684497833251953 -2.120148181915283 6.037671089172363 0.7642260058981453 -0.2335625398671502 0.6011714829229459
18.037670135498047 -2.120148181915283 7.684497356414795 0.6011711874395836 -0.23356270476668714 0.7642261879408152
6.444297790527344 6.123233998228043e-16 -8.314696311950684 -0.5148517436441226 -2.4501702636624534e-9 -0.8572792322613483
6 6.123233998228043e-16 -7.950070381164551 3.2265869975844907e-9 9.88727322237537e-10 -1
7.910924434661865 2.084592819213867 -8.884476661682129 -0.4099081149557452 0.2241227025789179 -0.8841630796873106
6 1.9544360637664795 -7.7337541580200195 -1.2738479451304703e-9 0.14801600913478072 -0.9889849650221242
6 2.1194608211517334 -7.707695960998535 6.743575017007518e-9 0.20112106160153698 -0.9795663931455952
6 2.1672909259796143 -7.690051555633545 1.0033868978988102e-8 0.38825279985348743 -0.9215529086308217
8.173165321350098 6.123233998228043e-16 -9.238795280456543 -0.359936088739679 -9.16386412257631e-10 -0.932976962214385
9.976653099060059 2.0233471393585205 -9.581864356994629 -0.20860272804853305 0.20860274294969436 -0.955494530326874
7.702337265014648 4.297662734985352 -7.941044807434082 -0.4307659599253406 0.4387017223912556 -0.7886580288949991
9.915407180786133 4.089075565338135 -8.884476661682129 -0.22410611811595477 0.40994378930397996 -0.8841507436145106
6 4.364774227142334 -6.631762981414795 -1.762832240521495e-8 0.4606005379931809 -0.887607539625702
6 4.735960483551025 -6.357108116149902 -1.0117644331416047e-8 0.6438602101818293 -0.7651431433036637
10.049097061157227 6.123233998228043e-16 -9.807852745056152 -0.16593752951986837 1.6413487384955044e-9 -0.9861362665964795
12 6.123233998228043e-16 -10 -9.046950966151712e-10 1.3142909070090747e-12 -1
13.950902938842773 6.123233998228043e-16 -9.807852745056152 0.16593752951986837 3.9104209114789883e-10 -0.9861362665964795
12 1.9509031772613525 -9.807852745056152 -1.6400063678242496e-9 0.16593752951986837 -0.9861362665964795
12 3.8268344402313232 -9.238795280456543 3.148121067010234e-9 0.3599361146809913 -0.9329769522064049
9.879852294921875 6.037671089172363 -7.684497356414795 -0.23356277974799702 0.601171307872782 -0.764226070287397
7.621147632598877 6.357108116149902 -6.357108116149902 -0.4321174752228823 0.6376811458742534 -0.6376811458742534
9.879852294921875 7.684497356414795 -6.037671089172363 -0.2335627656597177 0.7642260729471761 -0.6011713099650724
12 5.555702209472656 -8.314696311950684 9.965266448532453e-10 0.5438896449642935 -0.8391567518054149
12 7.071067810058594 -7.071067810058594 6.644190866846087e-10 0.7071067811865476 -0.7071067811865476
12 8.314696311950684 -5.555702209472656 7.402230538809284e-10 0.8391567518054149 -0.5438896449642935
6 6.357108116149902 -4.735960483551025 -3.096839296750894e-9 0.7651431726676071 -0.6438601752866443
7.702337265014648 7.941044807434082 -4.297662734985352 -0.4307659898295408 0.7886580290815194 -0.4387016926926874
9.915407180786133 8.884476661682129 -4.089075565338135 -0.22410611811595477 0.8841507436145106 -0.40994378930397996
6 7.690051555633545 -2.1672909259796143 8.856463235019211e-9 0.9215529086308217 -0.38825279985348743
6 7.707695960998535 -2.1194608211517334 2.5068178439057906e-9 0.9795663872741966 -0.20112109019836458
6 7.7337541580200195 -1.9544360637664795 1.295940187642514e-8 0.9889849672034396 -0.1480159945600848
7.910924434661865 8.884476661682129 -2.084592819213867 -0.4099081149557452 0.8841630796873106 -0.2241227025789179
9.976653099060059 9.581864356994629 -2.0233471393585205 -0.20860272804853305 0.955494530326874 -0.20860274294969436
12 9.238795280456543 -3.8268344402313232 3.3487903240769604e-9 0.9329769522064049 -0.3599361146809913
12 9.807852745056152 -1.9509031772613525 6.760667609229412e-10 0.986136261719716 -0.16593755850157602
15.826834678649902 6.123233998228043e-16 -9.238795280456543 0.3599361146809913 -1.0815603517523983e-11 -0.9329769522064049
14.023346900939941 2.0233471393585205 -9.581864356994629 0.20860274230126877 0.20860274230126877 -0.9554945273567927
17.555702209472656 6.123233998228043e-16 -8.314696311950684 0.5438896869369322 4.405694581067055e-10 -0.8391567246013382
16.089075088500977 2.084592819213867 -8.884476661682129 0.4099438825516175 0.22410615001787637 -0.8841506922932711
14.084592819213867 4.089075565338135 -8.884476661682129 0.2241061350066932 0.40994376314107056 -0.8841507514638549
16.29766273498535 4.297662734985352 -7.941044807434082 0.43612718010365303 0.43612715030133103 -0.7871379749096571
18.037670135498047 2.120148181915283 -7.684497356414795 0.6011712549791995 0.23356269294836388 -0.7642261384233352
19.071067810058594 6.123233998228043e-16 -7.071067810058594 0.7071067513842252 -2.554953962166738e-10 -0.7071068109888685
19.684497833251953 2.120148181915283 -6.037671089172363 0.7642260359421359 0.23356253414802475 -0.6011714469521335
20.314695358276367 6.123233998228043e-16 -5.555702209472656 0.8391566349291562 9.879644965613667e-10 -0.5438898252903567
18.35710906982422 4.378852367401123 -6.357108116149902 0.6327365040691422 0.44641774892188313 -0.6327366828830765
21.23879623413086 6.123233998228043e-16 -3.8268344402313232 0.9329768466904991 9.702284580884622e-10 -0.359936388184708
20.884477615356445 2.084592819213867 -4.089075565338135 0.8841506786112883 0.22410599753828578 -0.40994399541714027
21.80785369873047 6.123233998228043e-16 -1.9509031772613525 0.9861362926215118 -2.3710521842089404e-9 -0.1659373748578061
21.581865310668945 2.0233471393585205 -2.0233471393585205 0.9554945332969552 0.20860272869695856 -0.20860272869695856
19.9410457611084 4.297662734985352 -4.297662734985352 0.7871379215425054 0.43612721336196425 -0.43612721336196425
20.884477615356445 4.089075565338135 -2.084592819213867 0.8841506786112883 0.40994399541714027 -0.22410599753828578
14.120147705078125 6.037671089172363 -7.684497356414795 0.23356275157143822 0.6011713120573628 -0.7642260756069552
16.37885284423828 6.357108116149902 -6.357108116149902 0.4464177082226172 0.632736607833491 -0.632736607833491
14.120147705078125 7.684497356414795 -6.037671089172363 0.23356275157143822 0.7642260756069552 -0.6011713120573628
14.084592819213867 8.884476661682129 -4.089075565338135 0.22410611811595477 0.8841507436145106 -0.40994378930397996
16.29766273498535 7.941044807434082 -4.297662734985352 0.43612721903057283 0.787137931773412 -0.4361271892282502
14.023346900939941 9.581864356994629 -2.0233471393585205 0.20860274230126877 0.9554945273567927 -0.20860274230126877
16.089075088500977 8.884476661682129 -2.084592819213867 0.40994385638870984 0.8841507001426175 -0.22410616690861587
18.35710906982422 6.357108116149902 -4.378852367401123 0.6327365124872493 0.6327366913011859 -0.4464177250588295
19.684497833251953 6.037671089172363 -2.120148181915283 0.7642260058981453 0.6011714829229459 -0.2335625398671502
18.037670135498047 7.684497356414795 -2.120148181915283 0.6011711874395836 0.7642261879408152 -0.23356270476668714
6 6.123233998228043e-16 7.950070381164551 3.2265869975844907e-9 9.88727322237537e-10 1
6.444297790527344 6.123233998228043e-16 8.314696311950684 -0.5148517436441226 -2.4501702636624534e-9 0.8572792322613483
6 1.9544360637664795 7.7337541580200195 -1.2738479451304703e-9 0.14801600913478072 0.9889849650221242
6 2.1194608211517334 7.707695960998535 6.743575017007518e-9 0.20112106160153698 0.9795663931455952
6 2.1672909259796143 7.690051555633545 1.2122322335179223e-8 0.38825275321730157 0.921552928278775
7.910924434661865 2.084592819213867 8.884476661682129 -0.4099081149557452 0.2241227025789179 0.8841630796873106
8.173165321350098 6.123233998228043e-16 9.238795280456543 -0.359936088739679 -9.16386412257631e-10 0.932976962214385
9.976653099060059 2.0233471393585205 9.581864356994629 -0.20860272804853305 0.20860274294969436 0.955494530326874
6 4.364774227142334 6.631762981414795 -1.762832240521495e-8 0.4606005379931809 0.887607539625702
6 4.735960483551025 6.357108116149902 -1.0177136297333212e-8 0.6438602101818293 0.7651431433036637
7.702337265014648 4.297662734985352 7.941044807434082 -0.4307659599253406 0.4387017223912556 0.7886580288949991
9.915407180786133 4.089075565338135 8.884476661682129 -0.22410611811595477 0.40994378930397996 0.8841507436145106
10.049097061157227 6.123233998228043e-16 9.807852745056152 -0.16593752951986837 1.6413487384955044e-9 0.9861362665964795
12 6.123233998228043e-16 10 -9.046950966151712e-10 1.3142909070090747e-12 1
13.950902938842773 6.123233998228043e-16 9.807852745056152 0.16593752951986837 3.9104209114789883e-10 0.9861362665964795
12 1.9509031772613525 9.807852745056152 -1.6400063678242496e-9 0.16593752951986837 0.9861362665964795
12 3.8268344402313232 9.238795280456543 3.148121067010234e-9 0.3599361146809913 0.9329769522064049
6 7.950070381164551 6.123233998228043e-16 3.2265869975844907e-9 1 9.88727322237537e-10
6.444297790527344 8.314696311950684 6.123233998228043e-16 -0.5148517436441226 0.8572792322613483 -2.7738879796277074e-9
6 7.7337541580200195 1.9544360637664795 5.427839635143162e-9 0.9889849650221242 0.14801600913478072
6 7.690051555633545 2.1672909259796143 1.2122322335179223e-8 0.921552928278775 0.38825275321730157
6 7.707695960998535 2.1194608211517334 6.743575017007518e-9 0.9795663931455952 0.20112106160153698
7.910924434661865 8.884476661682129 2.084592819213867 -0.4099081149557452 0.8841630796873106 0.2241227025789179
8.173165321350098 9.238795280456543 6.123233998228043e-16 -0.359936088739679 0.932976962214385 -9.16386412257631e-10
9.976653099060059 9.581864356994629 2.0233471393585205 -0.20860272804853305 0.955494530326874 0.20860274294969436
7.702337265014648 7.941044807434082 4.297662734985352 -0.4307659599253406 0.7886580288949991 0.4387017223912556
9.915407180786133 8.884476661682129 4.089075565338135 -0.22410611811595477 0.8841507436145106 0.40994378930397996
10.049097061157227 9.807852745056152 6.123233998228043e-16 -0.16593752951986837 0.9861362665964795 1.6413487384955044e-9
12 10 6.123233998228043e-16 -9.046950966151712e-10 1 1.3142909070090747e-12
13.950902938842773 9.807852745056152 6.123233998228043e-16 0.16593752951986837 0.9861362665964795 3.9104209114789883e-10
12 9.807852745056152 1.9509031772613525 -1.6400063678242496e-9 0.9861362665964795 0.16593752951986837
12 9.238795280456543 3.8268344402313232 3.148121067010234e-9 0.9329769522064049 0.3599361146809913
7.621147632598877 6.357108116149902 6.357108116149902 -0.43211745879863334 0.6376811812414288 0.6376811216367845
9.879852294921875 6.037671089172363 7.684497356414795 -0.23356277974799702 0.601171307872782 0.764226070287397
9.879852294921875 7.684497356414795 6.037671089172363 -0.23356277974799702 0.764226070287397 0.601171307872782
12 7.071067810058594 7.071067810058594 6.644190866846087e-10 0.7071067811865476 0.7071067811865476
12 5.555702209472656 8.314696311950684 9.965266448532453e-10 0.5438896449642935 0.8391567518054149
12 8.314696311950684 5.555702209472656 9.965266448532453e-10 0.8391567518054149 0.5438896449642935
22 6.123233998228043e-16 6.123233998228043e-16 1 2.13273523841373e-10 2.13273523841373e-10
21.80785369873047 6.123233998228043e-16 1.9509031772613525 0.9861362926215118 3.3879191938294375e-9 0.1659373748578061
21.80785369873047 1.9509031772613525 6.123233998228043e-16 0.9861362926215118 0.1659373748578061 3.3879191938294375e-9
21.581865310668945 2.0233471393585205 2.0233471393585205 0.9554945273567927 0.20860274230126877 0.20860274230126877
21.23879623413086 6.123233998228043e-16 3.8268344402313232 0.9329768466904991 9.702284580884622e-10 0.359936388184708
20.884477615356445 2.084592819213867 4.089075565338135 0.8841506786112883 0.22410599753828578 0.40994399541714027
21.23879623413086 3.8268344402313232 6.123233998228043e-16 0.9329768366825119 0.35993641412601396 2.21639994000146e-9
20.884477615356445 4.089075565338135 2.084592819213867 0.8841506786112883 0.40994399541714027 0.22410599753828578
19.9410457611084 4.297662734985352 4.297662734985352 0.7871379420043191 0.4361271948968587 0.4361271948968587
15.826834678649902 6.123233998228043e-16 9.238795280456543 0.3599361146809913 -1.0815603517523983e-11 0.9329769522064049
14.023346900939941 2.0233471393585205 9.581864356994629 0.20860274230126877 0.20860274230126877 0.9554945273567927
17.555702209472656 6.123233998228043e-16 8.314696311950684 0.5438896869369322 4.405694581067055e-10 0.8391567246013382
16.089075088500977 2.084592819213867 8.884476661682129 0.4099438825516175 0.22410615001787637 0.8841506922932711
14.084592819213867 4.089075565338135 8.884476661682129 0.2241061350066932 0.40994376314107056 0.8841507514638549
16.29766273498535 4.297662734985352 7.941044807434082 0.4361271744350456 0.4361271744350456 0.7871379646787511
19.071067810058594 6.123233998228043e-16 7.071067810058594 0.7071067513842252 1.5624394719927965e-9 0.7071068109888685
19.684497833251953 2.120148181915283 6.037671089172363 0.7642260359421359 0.23356253414802475 0.6011714469521335
20.314695358276367 6.123233998228043e-16 5.555702209472656 0.8391566349291562 1.8612483937776807e-9 0.5438898252903567
18.037670135498047 2.120148181915283 7.684497356414795 0.6011712549791995 0.23356269294836388 0.7642261384233352
18.35710906982422 4.378852367401123 6.357108116149902 0.6327364528825947 0.44641772505882316 0.6327367509058225
15.826834678649902 9.238795280456543 6.123233998228043e-16 0.3599361146809913 0.9329769522064049 -1.0815603517523983e-11
14.023346900939941 9.581864356994629 2.0233471393585205 0.20860274230126877 0.9554945273567927 0.20860274230126877
17.555702209472656 8.314696311950684 6.123233998228043e-16 0.5438896449642935 0.8391567518054149 4.4056944463366484e-10
16.089075088500977 8.884476661682129 2.084592819213867 0.4099438825516175 0.8841506922932711 0.22410615001787637
14.084592819213867 8.884476661682129 4.089075565338135 0.22410611811595477 0.8841507436145106 0.40994378930397996
16.29766273498535 7.941044807434082 4.297662734985352 0.4361271744350456 0.7871379646787511 0.4361271744350456
19.684497833251953 6.037671089172363 2.120148181915283 0.7642260359421359 0.6011714469521335 0.23356253414802475
19.071067810058594 7.071067810058594 6.123233998228043e-16 0.7071067513842252 0.7071068109888685 1.5624394719927965e-9
20.314695358276367 5.555702209472656 6.123233998228043e-16 0.8391566349291562 0.5438898252903567 1.8612483937776807e-9
18.35710906982422 6.357108116149902 4.378852367401123 0.6327364528825947 0.6327367509058225 0.44641772505882316
18.037670135498047 7.684497356414795 2.120148181915283 0.6011711874395836 0.7642261879408152 0.23356270476668714
16.37885284423828 6.357108116149902 6.357108116149902 0.44641772505883265 0.6327366316965449 0.6327365720918994
14.120147705078125 6.037671089172363 7.684497356414795 0.23356275157143822 0.6011713120573628 0.7642260756069552
14.120147705078125 7.684497356414795 6.037671089172363 0.23356275157143822 0.7642260756069552 0.6011713120573628
3 4 17 10
3 4 2 6
3 10 13 2
3 4 10 2
3 2 1 0
3 2 0 6
3 2 13 1
3 3 45 41
3 5 4 3
3 5 17 4
3 5 40 18
3 5 3 41
3 5 41 40
3 3 6 8
3 8 7 9
3 0 7 6
3 6 7 8
3 8 46 45
3 3 8 45
3 8 9 46
3 9 66 46
3 3 4 6
3 12 11 10
3 12 10 17
3 11 92 95
3 12 19 91
3 12 92 11
3 12 91 92
3 11 15 13
3 1 13 14
3 15 16 14
3 13 15 14
3 10 11 13
3 11 95 15
3 15 95 97
3 15 97 16
3 16 97 117
3 5 18 17
3 12 17 19
3 18 20 19
3 17 18 19
3 18 40 53
3 18 53 20
3 20 53 56
3 19 20 101
3 19 101 91
3 20 103 101
3 20 56 103
3 56 141 103
3 0 21 7
3 0 23 21
3 21 23 24
3 21 24 29
3 1 14 22
3 1 22 23
3 22 25 23
3 22 35 25
3 0 1 23
3 24 23 25
3 24 25 26
3 24 26 30
3 25 36 26
3 26 218 30
3 26 36 224
3 26 224 218
3 7 21 27
3 7 27 9
3 9 27 28
3 21 29 27
3 27 31 28
3 27 29 31
3 9 28 66
3 66 28 67
3 28 31 68
3 28 68 67
3 29 32 31
3 24 30 29
3 29 30 32
3 30 215 32
3 31 32 71
3 31 71 68
3 32 74 71
3 32 216 74
3 32 215 214
3 32 214 216
3 74 216 256
3 30 218 219
3 30 219 215
3 14 33 22
3 14 16 33
3 16 34 33
3 22 33 35
3 33 34 37
3 33 37 35
3 16 117 34
3 117 118 34
3 34 119 37
3 34 118 119
3 25 35 36
3 35 37 38
3 35 38 36
3 36 38 227
3 36 225 224
3 36 227 225
3 37 122 38
3 37 119 122
3 38 228 227
3 38 229 228
3 38 124 229
3 38 122 124
3 124 315 229
3 45 39 41
3 40 42 54
3 42 41 39
3 40 41 42
3 42 39 43
3 42 43 55
3 45 46 44
3 45 44 39
3 46 66 47
3 46 47 44
3 39 44 48
3 44 47 49
3 44 49 48
3 48 49 50
3 39 48 43
3 43 59 55
3 43 48 51
3 43 51 59
3 59 51 62
3 48 50 51
3 51 50 52
3 51 52 62
3 40 54 53
3 53 57 56
3 53 54 57
3 42 55 54
3 54 58 57
3 54 55 58
3 55 60 58
3 56 57 142
3 56 142 141
3 57 58 145
3 57 145 142
3 58 150 145
3 55 59 60
3 60 59 61
3 58 60 150
3 60 61 151
3 60 151 150
3 61 155 151
3 59 62 61
3 61 62 64
3 52 63 62
3 62 63 64
3 64 63 65
3 61 64 155
3 64 157 155
3 64 65 157
3 65 175 157
3 66 67 69
3 66 69 47
3 67 68 69
3 69 68 72
3 47 70 49
3 47 69 70
3 49 70 77
3 69 72 70
3 72 75 70
3 70 75 77
3 68 71 72
3 72 71 73
3 71 74 73
3 74 256 257
3 73 74 257
3 73 257 258
3 73 258 259
3 72 73 75
3 75 73 76
3 75 76 80
3 73 259 76
3 76 259 264
3 76 264 265
3 49 77 50
3 50 77 78
3 77 80 78
3 75 80 77
3 50 78 52
3 80 82 78
3 52 79 63
3 52 78 79
3 78 82 79
3 79 82 86
3 76 81 80
3 80 81 82
3 82 81 87
3 76 265 81
3 81 265 85
3 81 85 87
3 63 79 83
3 63 83 65
3 65 83 84
3 79 86 83
3 83 88 84
3 83 86 88
3 65 84 175
3 175 84 176
3 84 88 177
3 84 177 176
3 87 85 277
3 87 277 280
3 82 87 86
3 86 87 89
3 86 89 88
3 87 280 89
3 88 89 180
3 88 180 177
3 89 280 281
3 89 281 282
3 89 282 182
3 182 282 374
3 89 182 180
3 95 92 90
3 91 102 93
3 91 93 92
3 93 90 92
3 93 94 90
3 93 105 94
3 95 96 97
3 95 90 96
3 97 98 117
3 97 96 98
3 90 99 96
3 96 100 98
3 96 99 100
3 99 107 100
3 90 94 99
3 91 101 102
3 101 103 104
3 101 104 102
3 103 141 143
3 103 143 104
3 93 102 105
3 102 104 106
3 102 106 105
3 105 106 111
3 104 147 106
3 104 143 147
3 106 147 161
3 94 105 110
3 94 108 99
3 94 110 108
3 110 113 108
3 99 108 107
3 108 109 107
3 108 113 109
3 105 111 110
3 111 112 110
3 106 161 111
3 111 161 163
3 111 163 112
3 112 163 166
3 110 112 113
3 112 115 113
3 109 113 114
3 113 115 114
3 115 116 114
3 112 166 115
3 115 166 168
3 115 168 116
3 116 168 186
3 117 120 118
3 117 98 120
3 118 120 119
3 120 123 119
3 98 100 121
3 98 121 120
3 100 128 121
3 120 121 123
3 123 121 126
3 121 128 126
3 119 123 122
3 123 125 122
3 122 125 124
3 124 317 315
3 125 317 124
3 125 318 317
3 125 319 318
3 123 126 125
3 126 127 125
3 126 131 127
3 125 127 319
3 127 324 319
3 127 325 324
3 100 107 128
3 107 129 128
3 128 129 131
3 126 128 131
3 107 109 129
3 131 129 133
3 109 114 130
3 109 130 129
3 129 130 133
3 130 137 133
3 127 131 132
3 131 133 132
3 133 138 132
3 127 132 325
3 132 337 325
3 132 138 337
3 114 134 130
3 114 116 134
3 116 135 134
3 130 134 137
3 134 135 139
3 134 139 137
3 116 186 135
3 186 187 135
3 135 188 139
3 135 187 188
3 138 136 337
3 138 340 136
3 133 137 138
3 137 140 138
3 137 139 140
3 138 140 340
3 139 193 140
3 139 188 193
3 140 341 340
3 140 342 341
3 140 195 342
3 195 391 342
3 140 193 195
3 141 142 143
3 142 144 143
3 142 145 144
3 145 150 146
3 144 145 146
3 143 144 147
3 144 148 147
3 147 148 161
3 144 146 148
3 146 149 148
3 146 152 149
3 148 149 162
3 146 150 152
3 150 151 152
3 152 151 153
3 151 155 153
3 149 152 154
3 152 153 154
3 155 157 156
3 155 156 153
3 157 175 158
3 157 158 156
3 153 159 154
3 153 156 159
3 156 160 159
3 156 158 160
3 159 160 173
3 148 162 161
3 161 162 163
3 162 165 163
3 149 164 162
3 162 164 165
3 163 165 166
3 164 170 165
3 166 165 167
3 166 167 168
3 168 169 186
3 168 167 169
3 165 170 167
3 167 170 171
3 170 174 171
3 167 171 169
3 149 154 164
3 154 172 164
3 154 159 172
3 164 172 170
3 159 173 172
3 170 172 174
3 172 173 174
3 175 176 178
3 175 178 158
3 176 177 178
3 178 177 181
3 158 179 160
3 158 178 179
3 160 179 200
3 178 181 179
3 181 184 179
3 179 184 200
3 177 180 181
3 181 180 183
3 182 374 376
3 180 182 183
3 183 182 376
3 183 376 377
3 183 377 378
3 185 378 382
3 185 382 383
3 184 183 185
3 181 183 184
3 184 185 203
3 183 378 185
3 186 189 187
3 186 169 189
3 187 189 188
3 189 194 188
3 169 171 190
3 169 190 189
3 171 201 190
3 189 190 194
3 194 190 197
3 190 201 197
3 198 191 394
3 198 192 191
3 188 194 193
3 194 196 193
3 195 393 391
3 196 395 393
3 196 394 395
3 196 393 195
3 193 196 195
3 197 198 196
3 197 204 198
3 194 197 196
3 196 198 394
3 173 199 174
3 199 203 204
3 160 200 173
3 173 200 199
3 199 200 203
3 184 203 200
3 171 174 201
3 174 199 201
3 199 204 201
3 197 201 204
3 185 202 203
3 198 204 202
3 203 202 204
3 202 383 192
3 185 383 202
3 198 202 192
3 207 211 218
3 207 224 222
3 207 218 224
3 207 206 205
3 207 205 211
3 207 222 206
3 205 208 212
3 205 210 208
3 208 210 233
3 208 233 236
3 206 223 209
3 206 209 210
3 209 234 210
3 209 243 234
3 205 206 210
3 233 210 234
3 211 213 215
3 213 212 217
3 205 212 211
3 211 212 213
3 213 260 255
3 213 255 216
3 213 214 215
3 213 216 214
3 255 256 216
3 213 217 260
3 217 266 260
3 211 219 218
3 211 215 219
3 212 208 220
3 212 220 217
3 217 220 221
3 208 236 220
3 220 238 221
3 220 236 238
3 217 221 266
3 266 221 267
3 221 238 268
3 221 268 267
3 222 227 226
3 206 222 223
3 226 230 223
3 222 226 223
3 222 224 225
3 222 225 227
3 226 227 228
3 226 228 229
3 226 229 314
3 226 314 320
3 314 229 315
3 226 320 230
3 230 320 326
3 223 231 209
3 223 230 231
3 230 232 231
3 209 231 243
3 231 232 245
3 231 245 243
3 230 326 232
3 326 327 232
3 232 328 245
3 232 327 328
3 233 234 235
3 233 235 237
3 234 244 235
3 235 241 237
3 235 244 247
3 235 247 241
3 241 247 250
3 236 239 238
3 233 237 236
3 236 237 239
3 237 240 239
3 238 239 287
3 238 287 268
3 239 290 287
3 239 240 290
3 237 241 240
3 240 294 290
3 240 241 242
3 241 250 242
3 240 242 294
3 242 296 294
3 242 251 296
3 234 243 244
3 243 245 246
3 243 246 244
3 244 246 248
3 244 248 247
3 245 347 246
3 245 328 347
3 246 349 248
3 246 347 349
3 247 248 249
3 247 249 250
3 248 349 354
3 248 354 249
3 249 354 356
3 249 356 252
3 242 250 251
3 249 252 250
3 250 252 251
3 251 252 253
3 251 301 296
3 251 253 301
3 253 304 301
3 252 358 253
3 252 356 358
3 253 358 360
3 253 360 304
3 304 360 412
3 255 260 254
3 255 257 256
3 255 254 257
3 254 258 257
3 254 259 258
3 260 266 261
3 260 261 254
3 254 262 259
3 254 261 263
3 254 263 262
3 262 263 271
3 262 264 259
3 262 265 264
3 266 267 269
3 266 269 261
3 267 268 269
3 269 268 288
3 261 270 263
3 261 269 270
3 263 270 274
3 269 288 270
3 288 291 270
3 270 291 274
3 262 272 265
3 272 85 265
3 272 278 85
3 262 271 272
3 272 271 273
3 272 273 278
3 263 274 271
3 271 274 275
3 274 298 275
3 291 298 274
3 271 275 273
3 298 300 275
3 273 276 279
3 273 275 276
3 275 300 276
3 276 300 307
3 278 277 85
3 278 280 277
3 278 283 280
3 273 279 278
3 278 279 283
3 283 279 284
3 283 281 280
3 283 282 281
3 283 375 282
3 375 374 282
3 283 380 375
3 283 284 380
3 284 386 380
3 279 276 285
3 279 285 284
3 284 285 286
3 276 307 285
3 285 309 286
3 285 307 309
3 284 286 386
3 386 286 387
3 286 309 388
3 286 388 387
3 268 287 288
3 288 287 289
3 287 290 289
3 289 290 293
3 288 289 291
3 291 289 292
3 291 292 298
3 289 293 292
3 292 293 297
3 290 294 293
3 293 294 295
3 294 296 295
3 296 302 295
3 293 295 297
3 297 295 303
3 292 299 298
3 298 299 300
3 300 299 308
3 292 297 299
3 299 297 311
3 299 311 308
3 297 303 311
3 296 301 302
3 301 304 305
3 301 305 302
3 295 302 303
3 302 306 303
3 302 305 306
3 303 306 312
3 304 413 305
3 304 412 413
3 305 416 306
3 305 413 416
3 306 416 429
3 308 311 313
3 300 308 307
3 307 308 310
3 307 310 309
3 308 313 310
3 309 310 421
3 309 421 388
3 310 313 423
3 310 423 421
3 303 312 311
3 311 312 313
3 313 312 427
3 312 429 427
3 306 429 312
3 313 427 423
3 314 316 320
3 314 315 317
3 314 317 316
3 316 317 318
3 316 318 319
3 320 321 326
3 320 316 321
3 316 319 322
3 316 323 321
3 316 322 323
3 322 331 323
3 322 319 324
3 322 324 325
3 326 329 327
3 326 321 329
3 327 329 328
3 329 348 328
3 321 323 330
3 321 330 329
3 323 334 330
3 329 330 348
3 348 330 351
3 330 334 351
3 322 325 332
3 332 325 337
3 332 337 338
3 322 332 331
3 332 333 331
3 332 338 333
3 323 331 334
3 331 335 334
3 334 335 364
3 351 334 364
3 331 333 335
3 364 335 366
3 333 339 336
3 333 336 335
3 335 336 366
3 336 367 366
3 338 337 136
3 338 136 340
3 338 340 343
3 333 338 339
3 338 343 339
3 343 344 339
3 343 340 341
3 343 341 342
3 343 342 392
3 392 342 391
3 343 392 397
3 343 397 344
3 344 397 401
3 339 345 336
3 339 344 345
3 344 346 345
3 336 345 367
3 345 346 369
3 345 369 367
3 344 401 346
3 401 402 346
3 346 403 369
3 346 402 403
3 328 348 347
3 348 350 347
3 347 350 349
3 350 353 349
3 348 351 350
3 351 352 350
3 351 364 352
3 350 352 353
3 352 357 353
3 349 353 354
3 354 355 356
3 353 355 354
3 356 355 359
3 353 357 355
3 357 362 355
3 356 359 358
3 358 361 360
3 358 359 361
3 360 414 412
3 360 361 414
3 355 362 359
3 359 362 363
3 359 363 361
3 362 372 363
3 361 363 418
3 361 418 414
3 363 440 418
3 352 364 365
3 364 366 365
3 366 368 365
3 352 365 357
3 365 371 357
3 365 368 371
3 357 371 362
3 368 373 371
3 366 367 368
3 367 370 368
3 367 369 370
3 368 370 373
3 369 432 370
3 369 403 432
3 370 434 373
3 370 432 434
3 362 371 372
3 371 373 372
3 372 439 440
3 373 439 372
3 363 372 440
3 373 434 439
3 375 376 374
3 375 380 379
3 375 379 376
3 379 377 376
3 379 378 377
3 380 386 381
3 380 381 379
3 384 382 378
3 384 383 382
3 379 384 378
3 379 385 384
3 379 381 385
3 384 385 407
3 386 387 389
3 386 389 381
3 387 388 389
3 389 388 422
3 381 390 385
3 381 389 390
3 385 390 410
3 389 422 390
3 422 425 390
3 390 425 410
3 399 394 191
3 399 191 192
3 392 391 393
3 396 393 395
3 396 395 394
3 392 393 396
3 392 396 397
3 397 398 401
3 397 396 398
3 396 394 399
3 396 399 400
3 399 408 400
3 396 400 398
3 401 404 402
3 401 398 404
3 402 404 403
3 404 433 403
3 398 400 405
3 398 405 404
3 400 411 405
3 404 405 433
3 433 405 436
3 405 411 436
3 406 192 383
3 384 406 383
3 399 192 406
3 384 407 406
3 399 406 408
3 406 407 408
3 407 409 408
3 409 444 445
3 385 410 407
3 407 410 409
3 409 410 444
3 425 444 410
3 400 408 411
3 408 409 411
3 409 445 411
3 436 411 445
3 412 414 413
3 413 414 415
3 413 415 416
3 416 417 429
3 415 417 416
3 414 418 415
3 415 418 419
3 418 440 419
3 417 419 420
3 415 419 417
3 417 420 428
3 419 438 420
3 388 421 422
3 422 421 424
3 421 423 424
3 424 423 430
3 426 430 431
3 425 424 426
3 422 424 425
3 425 426 444
3 424 430 426
3 427 429 428
3 427 428 430
3 417 428 429
3 427 430 423
3 420 431 428
3 430 428 431
3 437 441 442
3 403 433 432
3 433 435 432
3 435 442 434
3 432 435 434
3 436 437 435
3 436 445 437
3 433 436 435
3 435 437 442
3 439 438 440
3 439 442 438
3 419 440 438
3 420 438 441
3 441 438 442
3 439 434 442
3 426 443 444
3 437 445 443
3 444 443 445
3 443 431 441
3 426 431 443
3 437 443 441
3 420 441 431

