ply
format ascii 1.0
element vertex 8
property float x
property float y
property float z
property float nx
property float ny
property float nz
element face 12
property list uchar int vertex_index
end_header
-5 -5 -5 -0.816496580927726 -0.408248290463863 -0.408248290463863
-5 -5 5 -0.408248290463863 -0.816496580927726 0.408248290463863
-5 5 -5 -0.3333333333333333 0.6666666666666666 -0.6666666666666666
-5 5 5 -0.6666666666666666 0.3333333333333333 0.6666666666666666
5 -5 -5 0.3333333333333333 -0.6666666666666666 -0.6666666666666666
5 -5 5 0.6666666666666666 -0.3333333333333333 0.6666666666666666
5 5 -5 0.816496580927726 0.408248290463863 -0.408248290463863
5 5 5 0.408248290463863 0.816496580927726 0.408248290463863
3 1 0 4
3 2 4 0
3 1 3 0
3 3 1 5
3 3 2 0
3 3 7 2
3 5 4 6
3 5 1 4
3 6 4 2
3 7 6 2
3 7 3 5
3 7 5 6

