o 
usemtl topology-high-aspect-ratio-rod-material
v -0.7071067690849304 -0.7071067690849304 -50
v -0.9659258127212524 -0.258819043636322 -50
v -0.8660253882408142 -0.5 -50
v -0.5 -0.8660253882408142 -50
v -0.258819043636322 -0.9659258127212524 -50
v -0.7071067690849304 -0.7071067690849304 50
v -0.9659258127212524 -0.258819043636322 50
v -0.8660253882408142 -0.5 50
v -0.5 -0.8660253882408142 50
v -0.258819043636322 -0.9659258127212524 50
v -1 0 -50
v -0.9659258127212524 0.258819043636322 -50
v -0.8660253882408142 0.5 -50
v -0.7071067690849304 0.7071067690849304 -50
v -0.5 0.8660253882408142 -50
v -0.258819043636322 0.9659258127212524 -50
v -1 0 50
v -0.9659258127212524 0.258819043636322 50
v -0.8660253882408142 0.5 50
v -0.7071067690849304 0.7071067690849304 50
v -0.5 0.8660253882408142 50
v -0.258819043636322 0.9659258127212524 50
v 0 -1 -50
v 0.258819043636322 -0.9659258127212524 -50
v 0.5 -0.8660253882408142 -50
v 0.7071067690849304 -0.7071067690849304 -50
v 0.8660253882408142 -0.5 -50
v 0.9659258127212524 -0.258819043636322 -50
v 0 -1 50
v 0.258819043636322 -0.9659258127212524 50
v 0.5 -0.8660253882408142 50
v 0.7071067690849304 -0.7071067690849304 50
v 0.8660253882408142 -0.5 50
v 0.9659258127212524 -0.258819043636322 50
v 0 1 -50
v 0.258819043636322 0.9659258127212524 -50
v 1 0 -50
v 0.9659258127212524 0.258819043636322 -50
v 0.7071067690849304 0.7071067690849304 -50
v 0.5 0.8660253882408142 -50
v 0.8660253882408142 0.5 -50
v 0 1 50
v 0.258819043636322 0.9659258127212524 50
v 1 0 50
v 0.9659258127212524 0.258819043636322 50
v 0.7071067690849304 0.7071067690849304 50
v 0.5 0.8660253882408142 50
v 0.8660253882408142 0.5 50
vn -0.73738098252108 -0.6753829727489292 -0.0112750493154509
vn -0.9763418830268129 -0.216221611202393 -0.0021776814960534573
vn -0.8870965085509878 -0.4615420617499512 -0.006221716182176353
vn -0.5374188283634357 -0.8431640048473493 -0.015983236538666182
vn -0.3008634705807965 -0.9534762374106065 -0.01908498790649345
vn -0.6753829727489292 -0.73738098252108 0.0112750493154509
vn -0.9536476606754398 -0.30091759169495347 0.0021776815126299193
vn -0.8432554058120235 -0.5374770793389295 0.0062217163302325
vn -0.46149202332031297 -0.8870003656240241 0.015983234796848246
vn -0.21618275379415353 -0.9761663691132034 0.01908498819285856
vn -0.999038452023231 0.04384198759167996 -0.00022694280645696628
vn -0.953649547092714 0.30091817014219346 -0.0008923049562994284
vn -0.8432649861984356 0.5374832084438103 -0.003995459009911395
vn -0.6754003084932944 0.7373999267456562 -0.008704672461580548
vn -0.4615073247843182 0.8870297158507834 -0.01375762945060207
vn -0.21618788193562372 0.9761895053875972 -0.017800260540428246
vn -0.999038452023231 -0.04384198759167996 0.00022694280645696628
vn -0.9763438073456805 0.2162220470943121 0.0008923049288311744
vn -0.8871065961014863 0.46154731443284674 0.003995459055161493
vn -0.7373998698600672 0.6754003705883793 0.008704673425000331
vn -0.5374366063648738 0.8431919246370821 0.013757629367768304
vn -0.30087062384426794 0.9534988298086966 0.017800260138753576
vn -0.04383343481779712 -0.998843615665428 -0.019749973075646063
vn 0.2161878819284559 -0.9761895053552312 -0.017800262402483242
vn 0.4615073247843182 -0.8870297158507834 -0.01375762945060207
vn 0.6754003084878191 -0.7373999267396782 -0.008704673392832544
vn 0.8432649861984356 -0.5374832084438103 -0.003995459009911395
vn 0.953649547092714 -0.30091817014219346 -0.0008923049562994284
vn 0.04383343481779712 -0.998843615665428 0.019749973075646063
vn 0.30087059672976957 -0.9534988383267664 0.017800262160417125
vn 0.5374366063648738 -0.8431919246370821 0.013757629367768304
vn 0.7373999267396782 -0.6754003084878191 0.008704673392832544
vn 0.8871065961014863 -0.46154731443284674 0.003995459055161493
vn 0.9763438073456805 -0.2162220470943121 0.0008923049288311744
vn 0.04383343481779712 0.998843615665428 -0.019749973075646063
vn 0.3008634705807965 0.9534762374106065 -0.01908498790649345
vn 0.999038452023231 -0.04384198759167996 -0.00022694280645696628
vn 0.9763418830268129 0.216221611202393 -0.0021776814960534573
vn 0.73738098252108 0.6753829727489292 -0.0112750493154509
vn 0.5374188283634357 0.8431640048473493 -0.015983236538666182
vn 0.8870965085509878 0.4615420617499512 -0.006221716182176353
vn -0.04383343481779712 0.998843615665428 0.019749973075646063
vn 0.21618275379415353 0.9761663691132034 0.01908498819285856
vn 0.999038452023231 0.04384198759167996 0.00022694280645696628
vn 0.9536476692273093 0.30091756459112046 0.0021776817649889987
vn 0.6753830348493615 0.7373809256413274 0.01127504935711633
vn 0.46149202332031297 0.8870003656240241 0.015983234796848246
vn 0.8432554058120235 0.5374770793389295 0.0062217163302325
f 8//8 3//3 1//1
f 6//6 1//1 4//4
f 13//13 3//3 2//2
f 14//14 1//1 3//3
f 15//15 4//4 1//1
f 7//7 2//2 3//3
f 17//17 11//11 2//2
f 9//9 4//4 5//5
f 10//10 5//5 23//23
f 16//16 5//5 4//4
f 35//35 23//23 5//5
f 6//6 8//8 1//1
f 9//9 6//6 4//4
f 8//8 7//7 3//3
f 7//7 17//17 2//2
f 19//19 7//7 8//8
f 20//20 8//8 6//6
f 21//21 6//6 9//9
f 10//10 9//9 5//5
f 29//29 10//10 23//23
f 22//22 9//9 10//10
f 42//42 10//10 29//29
f 12//12 2//2 11//11
f 13//13 2//2 12//12
f 14//14 3//3 13//13
f 15//15 1//1 14//14
f 18//18 12//12 11//11
f 19//19 13//13 12//12
f 20//20 14//14 13//13
f 21//21 15//15 14//14
f 16//16 4//4 15//15
f 35//35 5//5 16//16
f 22//22 16//16 15//15
f 42//42 35//35 16//16
f 17//17 18//18 11//11
f 18//18 19//19 12//12
f 18//18 17//17 7//7
f 19//19 18//18 7//7
f 20//20 19//19 8//8
f 21//21 20//20 6//6
f 19//19 20//20 13//13
f 20//20 21//21 14//14
f 22//22 21//21 9//9
f 42//42 22//22 10//10
f 21//21 22//22 15//15
f 22//22 42//42 16//16
f 29//29 23//23 24//24
f 30//30 24//24 25//25
f 36//36 24//24 23//23
f 40//40 25//25 24//24
f 31//31 25//25 26//26
f 32//32 26//26 27//27
f 39//39 26//26 25//25
f 41//41 27//27 26//26
f 38//38 28//28 27//27
f 33//33 27//27 28//28
f 34//34 28//28 37//37
f 30//30 29//29 24//24
f 31//31 30//30 25//25
f 43//43 29//29 30//30
f 47//47 30//30 31//31
f 32//32 31//31 26//26
f 33//33 32//32 27//27
f 34//34 33//33 28//28
f 44//44 34//34 37//37
f 46//46 31//31 32//32
f 48//48 32//32 33//33
f 45//45 33//33 34//34
f 36//36 23//23 35//35
f 40//40 24//24 36//36
f 43//43 36//36 35//35
f 47//47 40//40 36//36
f 39//39 25//25 40//40
f 41//41 26//26 39//39
f 38//38 27//27 41//41
f 37//37 28//28 38//38
f 44//44 37//37 38//38
f 45//45 38//38 41//41
f 46//46 39//39 40//40
f 48//48 41//41 39//39
f 43//43 42//42 29//29
f 47//47 43//43 30//30
f 42//42 43//43 35//35
f 43//43 47//47 36//36
f 45//45 44//44 38//38
f 48//48 45//45 41//41
f 46//46 47//47 31//31
f 48//48 46//46 32//32
f 45//45 48//48 33//33
f 44//44 45//45 34//34
f 47//47 46//46 40//40
f 46//46 48//48 39//39
