{"asset":{"version":"2.0","generator":"THREE.GLTFExporter r182"},"scenes":[{"name":"AuxScene","nodes":[0]}],"scene":0,"nodes":[{"mesh":0}],"bufferViews":[{"buffer":0,"byteOffset":0,"byteLength":576,"target":34962,"byteStride":12},{"buffer":0,"byteOffset":576,"byteLength":576,"target":34962,"byteStride":12},{"buffer":0,"byteOffset":1152,"byteLength":1104,"target":34963}],"buffers":[{"byteLength":2256,"uri":"data:application/octet-stream;base64,"}],"accessors":[{"bufferView":0,"componentType":5126,"count":48,"max":[1,1,50],"min":[-1,-1,-50],"type":"VEC3"},{"bufferView":1,"componentType":5126,"count":48,"max":[0.9990384578704834,0.9988436102867126,0.019749972969293594],"min":[-0.9990384578704834,-0.9988436102867126,-0.019749972969293594],"type":"VEC3"},{"bufferView":2,"componentType":5125,"count":276,"max":[47],"min":[0],"type":"SCALAR"}],"materials":[{"pbrMetallicRoughness":{"baseColorFactor":[0.10702310296918527,0.4793201830913402,0.10702310296918527,1],"metallicFactor":0.25,"roughnessFactor":0.4},"name":"topology-high-aspect-ratio-rod-material"}],"meshes":[{"primitives":[{"mode":4,"attributes":{"POSITION":0,"NORMAL":1},"indices":2,"material":0}]}]}