solid exported
	facet normal -0.7933533294796797 -0.6087614430986138 0
		outer loop
			vertex -0.8660253882408142 -0.5 50
			vertex -0.8660253882408142 -0.5 -50
			vertex -0.7071067690849304 -0.7071067690849304 -50
		endloop
	endfacet
	facet normal -0.6087614430986138 -0.7933533294796797 0
		outer loop
			vertex -0.7071067690849304 -0.7071067690849304 50
			vertex -0.7071067690849304 -0.7071067690849304 -50
			vertex -0.5 -0.8660253882408142 -50
		endloop
	endfacet
	facet normal 0 0 -1
		outer loop
			vertex -0.8660253882408142 0.5 -50
			vertex -0.8660253882408142 -0.5 -50
			vertex -0.9659258127212524 -0.258819043636322 -50
		endloop
	endfacet
	facet normal 0 0 -1
		outer loop
			vertex -0.7071067690849304 0.7071067690849304 -50
			vertex -0.7071067690849304 -0.7071067690849304 -50
			vertex -0.8660253882408142 -0.5 -50
		endloop
	endfacet
	facet normal 0 0 -1
		outer loop
			vertex -0.5 0.8660253882408142 -50
			vertex -0.5 -0.8660253882408142 -50
			vertex -0.7071067690849304 -0.7071067690849304 -50
		endloop
	endfacet
	facet normal -0.9238795306578887 -0.38268343683958855 0
		outer loop
			vertex -0.9659258127212524 -0.258819043636322 50
			vertex -0.9659258127212524 -0.258819043636322 -50
			vertex -0.8660253882408142 -0.5 -50
		endloop
	endfacet
	facet normal -0.9914448545522497 -0.13052624403493862 0
		outer loop
			vertex -1 0 50
			vertex -1 0 -50
			vertex -0.9659258127212524 -0.258819043636322 -50
		endloop
	endfacet
	facet normal -0.38268343683958855 -0.9238795306578887 0
		outer loop
			vertex -0.5 -0.8660253882408142 50
			vertex -0.5 -0.8660253882408142 -50
			vertex -0.258819043636322 -0.9659258127212524 -50
		endloop
	endfacet
	facet normal -0.13052624403493862 -0.9914448545522497 0
		outer loop
			vertex -0.258819043636322 -0.9659258127212524 50
			vertex -0.258819043636322 -0.9659258127212524 -50
			vertex 0 -1 -50
		endloop
	endfacet
	facet normal 0 0 -1
		outer loop
			vertex -0.258819043636322 0.9659258127212524 -50
			vertex -0.258819043636322 -0.9659258127212524 -50
			vertex -0.5 -0.8660253882408142 -50
		endloop
	endfacet
	facet normal 0 0 -1
		outer loop
			vertex 0 1 -50
			vertex 0 -1 -50
			vertex -0.258819043636322 -0.9659258127212524 -50
		endloop
	endfacet
	facet normal -0.7933533294796797 -0.6087614430986138 0
		outer loop
			vertex -0.7071067690849304 -0.7071067690849304 50
			vertex -0.8660253882408142 -0.5 50
			vertex -0.7071067690849304 -0.7071067690849304 -50
		endloop
	endfacet
	facet normal -0.6087614430986138 -0.7933533294796797 0
		outer loop
			vertex -0.5 -0.8660253882408142 50
			vertex -0.7071067690849304 -0.7071067690849304 50
			vertex -0.5 -0.8660253882408142 -50
		endloop
	endfacet
	facet normal -0.9238795306578887 -0.38268343683958855 0
		outer loop
			vertex -0.8660253882408142 -0.5 50
			vertex -0.9659258127212524 -0.258819043636322 50
			vertex -0.8660253882408142 -0.5 -50
		endloop
	endfacet
	facet normal -0.9914448545522497 -0.13052624403493862 0
		outer loop
			vertex -0.9659258127212524 -0.258819043636322 50
			vertex -1 0 50
			vertex -0.9659258127212524 -0.258819043636322 -50
		endloop
	endfacet
	facet normal 0 0 1
		outer loop
			vertex -0.8660253882408142 0.5 50
			vertex -0.9659258127212524 -0.258819043636322 50
			vertex -0.8660253882408142 -0.5 50
		endloop
	endfacet
	facet normal 0 0 1
		outer loop
			vertex -0.7071067690849304 0.7071067690849304 50
			vertex -0.8660253882408142 -0.5 50
			vertex -0.7071067690849304 -0.7071067690849304 50
		endloop
	endfacet
	facet normal 0 0 1
		outer loop
			vertex -0.5 0.8660253882408142 50
			vertex -0.7071067690849304 -0.7071067690849304 50
			vertex -0.5 -0.8660253882408142 50
		endloop
	endfacet
	facet normal -0.38268343683958855 -0.9238795306578887 0
		outer loop
			vertex -0.258819043636322 -0.9659258127212524 50
			vertex -0.5 -0.8660253882408142 50
			vertex -0.258819043636322 -0.9659258127212524 -50
		endloop
	endfacet
	facet normal -0.13052624403493862 -0.9914448545522497 0
		outer loop
			vertex 0 -1 50
			vertex -0.258819043636322 -0.9659258127212524 50
			vertex 0 -1 -50
		endloop
	endfacet
	facet normal 0 0 1
		outer loop
			vertex -0.258819043636322 0.9659258127212524 50
			vertex -0.5 -0.8660253882408142 50
			vertex -0.258819043636322 -0.9659258127212524 50
		endloop
	endfacet
	facet normal 0 0 1
		outer loop
			vertex 0 1 50
			vertex -0.258819043636322 -0.9659258127212524 50
			vertex 0 -1 50
		endloop
	endfacet
	facet normal 0 0 -1
		outer loop
			vertex -0.9659258127212524 0.258819043636322 -50
			vertex -0.9659258127212524 -0.258819043636322 -50
			vertex -1 0 -50
		endloop
	endfacet
	facet normal 0 0 -1
		outer loop
			vertex -0.8660253882408142 0.5 -50
			vertex -0.9659258127212524 -0.258819043636322 -50
			vertex -0.9659258127212524 0.258819043636322 -50
		endloop
	endfacet
	facet normal 0 0 -1
		outer loop
			vertex -0.7071067690849304 0.7071067690849304 -50
			vertex -0.8660253882408142 -0.5 -50
			vertex -0.8660253882408142 0.5 -50
		endloop
	endfacet
	facet normal 0 0 -1
		outer loop
			vertex -0.5 0.8660253882408142 -50
			vertex -0.7071067690849304 -0.7071067690849304 -50
			vertex -0.7071067690849304 0.7071067690849304 -50
		endloop
	endfacet
	facet normal -0.9914448545522497 0.13052624403493862 0
		outer loop
			vertex -0.9659258127212524 0.258819043636322 50
			vertex -0.9659258127212524 0.258819043636322 -50
			vertex -1 0 -50
		endloop
	endfacet
	facet normal -0.9238795306578887 0.38268343683958855 0
		outer loop
			vertex -0.8660253882408142 0.5 50
			vertex -0.8660253882408142 0.5 -50
			vertex -0.9659258127212524 0.258819043636322 -50
		endloop
	endfacet
	facet normal -0.7933533294796797 0.6087614430986138 0
		outer loop
			vertex -0.7071067690849304 0.7071067690849304 50
			vertex -0.7071067690849304 0.7071067690849304 -50
			vertex -0.8660253882408142 0.5 -50
		endloop
	endfacet
	facet normal -0.6087614430986138 0.7933533294796797 0
		outer loop
			vertex -0.5 0.8660253882408142 50
			vertex -0.5 0.8660253882408142 -50
			vertex -0.7071067690849304 0.7071067690849304 -50
		endloop
	endfacet
	facet normal 0 0 -1
		outer loop
			vertex -0.258819043636322 0.9659258127212524 -50
			vertex -0.5 -0.8660253882408142 -50
			vertex -0.5 0.8660253882408142 -50
		endloop
	endfacet
	facet normal 0 0 -1
		outer loop
			vertex 0 1 -50
			vertex -0.258819043636322 -0.9659258127212524 -50
			vertex -0.258819043636322 0.9659258127212524 -50
		endloop
	endfacet
	facet normal -0.38268343683958855 0.9238795306578887 0
		outer loop
			vertex -0.258819043636322 0.9659258127212524 50
			vertex -0.258819043636322 0.9659258127212524 -50
			vertex -0.5 0.8660253882408142 -50
		endloop
	endfacet
	facet normal -0.13052624403493862 0.9914448545522497 0
		outer loop
			vertex 0 1 50
			vertex 0 1 -50
			vertex -0.258819043636322 0.9659258127212524 -50
		endloop
	endfacet
	facet normal -0.9914448545522497 0.13052624403493862 0
		outer loop
			vertex -1 0 50
			vertex -0.9659258127212524 0.258819043636322 50
			vertex -1 0 -50
		endloop
	endfacet
	facet normal -0.9238795306578887 0.38268343683958855 0
		outer loop
			vertex -0.9659258127212524 0.258819043636322 50
			vertex -0.8660253882408142 0.5 50
			vertex -0.9659258127212524 0.258819043636322 -50
		endloop
	endfacet
	facet normal 0 0 1
		outer loop
			vertex -0.9659258127212524 0.258819043636322 50
			vertex -1 0 50
			vertex -0.9659258127212524 -0.258819043636322 50
		endloop
	endfacet
	facet normal 0 0 1
		outer loop
			vertex -0.8660253882408142 0.5 50
			vertex -0.9659258127212524 0.258819043636322 50
			vertex -0.9659258127212524 -0.258819043636322 50
		endloop
	endfacet
	facet normal 0 0 1
		outer loop
			vertex -0.7071067690849304 0.7071067690849304 50
			vertex -0.8660253882408142 0.5 50
			vertex -0.8660253882408142 -0.5 50
		endloop
	endfacet
	facet normal 0 0 1
		outer loop
			vertex -0.5 0.8660253882408142 50
			vertex -0.7071067690849304 0.7071067690849304 50
			vertex -0.7071067690849304 -0.7071067690849304 50
		endloop
	endfacet
	facet normal -0.7933533294796797 0.6087614430986138 0
		outer loop
			vertex -0.8660253882408142 0.5 50
			vertex -0.7071067690849304 0.7071067690849304 50
			vertex -0.8660253882408142 0.5 -50
		endloop
	endfacet
	facet normal -0.6087614430986138 0.7933533294796797 0
		outer loop
			vertex -0.7071067690849304 0.7071067690849304 50
			vertex -0.5 0.8660253882408142 50
			vertex -0.7071067690849304 0.7071067690849304 -50
		endloop
	endfacet
	facet normal 0 0 1
		outer loop
			vertex -0.258819043636322 0.9659258127212524 50
			vertex -0.5 0.8660253882408142 50
			vertex -0.5 -0.8660253882408142 50
		endloop
	endfacet
	facet normal 0 0 1
		outer loop
			vertex 0 1 50
			vertex -0.258819043636322 0.9659258127212524 50
			vertex -0.258819043636322 -0.9659258127212524 50
		endloop
	endfacet
	facet normal -0.38268343683958855 0.9238795306578887 0
		outer loop
			vertex -0.5 0.8660253882408142 50
			vertex -0.258819043636322 0.9659258127212524 50
			vertex -0.5 0.8660253882408142 -50
		endloop
	endfacet
	facet normal -0.13052624403493862 0.9914448545522497 0
		outer loop
			vertex -0.258819043636322 0.9659258127212524 50
			vertex 0 1 50
			vertex -0.258819043636322 0.9659258127212524 -50
		endloop
	endfacet
	facet normal 0.13052624403493862 -0.9914448545522497 0
		outer loop
			vertex 0 -1 50
			vertex 0 -1 -50
			vertex 0.258819043636322 -0.9659258127212524 -50
		endloop
	endfacet
	facet normal 0.38268343683958855 -0.9238795306578887 0
		outer loop
			vertex 0.258819043636322 -0.9659258127212524 50
			vertex 0.258819043636322 -0.9659258127212524 -50
			vertex 0.5 -0.8660253882408142 -50
		endloop
	endfacet
	facet normal 0 0 -1
		outer loop
			vertex 0.258819043636322 0.9659258127212524 -50
			vertex 0.258819043636322 -0.9659258127212524 -50
			vertex 0 -1 -50
		endloop
	endfacet
	facet normal 0 0 -1
		outer loop
			vertex 0.5 0.8660253882408142 -50
			vertex 0.5 -0.8660253882408142 -50
			vertex 0.258819043636322 -0.9659258127212524 -50
		endloop
	endfacet
	facet normal 0.6087614430986138 -0.7933533294796797 0
		outer loop
			vertex 0.5 -0.8660253882408142 50
			vertex 0.5 -0.8660253882408142 -50
			vertex 0.7071067690849304 -0.7071067690849304 -50
		endloop
	endfacet
	facet normal 0.7933533294796797 -0.6087614430986138 0
		outer loop
			vertex 0.7071067690849304 -0.7071067690849304 50
			vertex 0.7071067690849304 -0.7071067690849304 -50
			vertex 0.8660253882408142 -0.5 -50
		endloop
	endfacet
	facet normal 0 0 -1
		outer loop
			vertex 0.7071067690849304 0.7071067690849304 -50
			vertex 0.7071067690849304 -0.7071067690849304 -50
			vertex 0.5 -0.8660253882408142 -50
		endloop
	endfacet
	facet normal 0 0 -1
		outer loop
			vertex 0.8660253882408142 0.5 -50
			vertex 0.8660253882408142 -0.5 -50
			vertex 0.7071067690849304 -0.7071067690849304 -50
		endloop
	endfacet
	facet normal 0 0 -1
		outer loop
			vertex 0.9659258127212524 0.258819043636322 -50
			vertex 0.9659258127212524 -0.258819043636322 -50
			vertex 0.8660253882408142 -0.5 -50
		endloop
	endfacet
	facet normal 0.9238795306578887 -0.38268343683958855 0
		outer loop
			vertex 0.8660253882408142 -0.5 50
			vertex 0.8660253882408142 -0.5 -50
			vertex 0.9659258127212524 -0.258819043636322 -50
		endloop
	endfacet
	facet normal 0.9914448545522497 -0.13052624403493862 0
		outer loop
			vertex 0.9659258127212524 -0.258819043636322 50
			vertex 0.9659258127212524 -0.258819043636322 -50
			vertex 1 0 -50
		endloop
	endfacet
	facet normal 0.13052624403493862 -0.9914448545522497 0
		outer loop
			vertex 0.258819043636322 -0.9659258127212524 50
			vertex 0 -1 50
			vertex 0.258819043636322 -0.9659258127212524 -50
		endloop
	endfacet
	facet normal 0.38268343683958855 -0.9238795306578887 0
		outer loop
			vertex 0.5 -0.8660253882408142 50
			vertex 0.258819043636322 -0.9659258127212524 50
			vertex 0.5 -0.8660253882408142 -50
		endloop
	endfacet
	facet normal 0 0 1
		outer loop
			vertex 0.258819043636322 0.9659258127212524 50
			vertex 0 -1 50
			vertex 0.258819043636322 -0.9659258127212524 50
		endloop
	endfacet
	facet normal 0 0 1
		outer loop
			vertex 0.5 0.8660253882408142 50
			vertex 0.258819043636322 -0.9659258127212524 50
			vertex 0.5 -0.8660253882408142 50
		endloop
	endfacet
	facet normal 0.6087614430986138 -0.7933533294796797 0
		outer loop
			vertex 0.7071067690849304 -0.7071067690849304 50
			vertex 0.5 -0.8660253882408142 50
			vertex 0.7071067690849304 -0.7071067690849304 -50
		endloop
	endfacet
	facet normal 0.7933533294796797 -0.6087614430986138 0
		outer loop
			vertex 0.8660253882408142 -0.5 50
			vertex 0.7071067690849304 -0.7071067690849304 50
			vertex 0.8660253882408142 -0.5 -50
		endloop
	endfacet
	facet normal 0.9238795306578887 -0.38268343683958855 0
		outer loop
			vertex 0.9659258127212524 -0.258819043636322 50
			vertex 0.8660253882408142 -0.5 50
			vertex 0.9659258127212524 -0.258819043636322 -50
		endloop
	endfacet
	facet normal 0.9914448545522497 -0.13052624403493862 0
		outer loop
			vertex 1 0 50
			vertex 0.9659258127212524 -0.258819043636322 50
			vertex 1 0 -50
		endloop
	endfacet
	facet normal 0 0 1
		outer loop
			vertex 0.7071067690849304 0.7071067690849304 50
			vertex 0.5 -0.8660253882408142 50
			vertex 0.7071067690849304 -0.7071067690849304 50
		endloop
	endfacet
	facet normal 0 0 1
		outer loop
			vertex 0.8660253882408142 0.5 50
			vertex 0.7071067690849304 -0.7071067690849304 50
			vertex 0.8660253882408142 -0.5 50
		endloop
	endfacet
	facet normal 0 0 1
		outer loop
			vertex 0.9659258127212524 0.258819043636322 50
			vertex 0.8660253882408142 -0.5 50
			vertex 0.9659258127212524 -0.258819043636322 50
		endloop
	endfacet
	facet normal 0 0 -1
		outer loop
			vertex 0.258819043636322 0.9659258127212524 -50
			vertex 0 -1 -50
			vertex 0 1 -50
		endloop
	endfacet
	facet normal 0 0 -1
		outer loop
			vertex 0.5 0.8660253882408142 -50
			vertex 0.258819043636322 -0.9659258127212524 -50
			vertex 0.258819043636322 0.9659258127212524 -50
		endloop
	endfacet
	facet normal 0.13052624403493862 0.9914448545522497 0
		outer loop
			vertex 0.258819043636322 0.9659258127212524 50
			vertex 0.258819043636322 0.9659258127212524 -50
			vertex 0 1 -50
		endloop
	endfacet
	facet normal 0.38268343683958855 0.9238795306578887 0
		outer loop
			vertex 0.5 0.8660253882408142 50
			vertex 0.5 0.8660253882408142 -50
			vertex 0.258819043636322 0.9659258127212524 -50
		endloop
	endfacet
	facet normal 0 0 -1
		outer loop
			vertex 0.7071067690849304 0.7071067690849304 -50
			vertex 0.5 -0.8660253882408142 -50
			vertex 0.5 0.8660253882408142 -50
		endloop
	endfacet
	facet normal 0 0 -1
		outer loop
			vertex 0.8660253882408142 0.5 -50
			vertex 0.7071067690849304 -0.7071067690849304 -50
			vertex 0.7071067690849304 0.7071067690849304 -50
		endloop
	endfacet
	facet normal 0 0 -1
		outer loop
			vertex 0.9659258127212524 0.258819043636322 -50
			vertex 0.8660253882408142 -0.5 -50
			vertex 0.8660253882408142 0.5 -50
		endloop
	endfacet
	facet normal 0 0 -1
		outer loop
			vertex 1 0 -50
			vertex 0.9659258127212524 -0.258819043636322 -50
			vertex 0.9659258127212524 0.258819043636322 -50
		endloop
	endfacet
	facet normal 0.9914448545522497 0.13052624403493862 0
		outer loop
			vertex 1 0 50
			vertex 1 0 -50
			vertex 0.9659258127212524 0.258819043636322 -50
		endloop
	endfacet
	facet normal 0.9238795306578887 0.38268343683958855 0
		outer loop
			vertex 0.9659258127212524 0.258819043636322 50
			vertex 0.9659258127212524 0.258819043636322 -50
			vertex 0.8660253882408142 0.5 -50
		endloop
	endfacet
	facet normal 0.6087614430986138 0.7933533294796797 0
		outer loop
			vertex 0.7071067690849304 0.7071067690849304 50
			vertex 0.7071067690849304 0.7071067690849304 -50
			vertex 0.5 0.8660253882408142 -50
		endloop
	endfacet
	facet normal 0.7933533294796797 0.6087614430986138 0
		outer loop
			vertex 0.8660253882408142 0.5 50
			vertex 0.8660253882408142 0.5 -50
			vertex 0.7071067690849304 0.7071067690849304 -50
		endloop
	endfacet
	facet normal 0 0 1
		outer loop
			vertex 0.258819043636322 0.9659258127212524 50
			vertex 0 1 50
			vertex 0 -1 50
		endloop
	endfacet
	facet normal 0 0 1
		outer loop
			vertex 0.5 0.8660253882408142 50
			vertex 0.258819043636322 0.9659258127212524 50
			vertex 0.258819043636322 -0.9659258127212524 50
		endloop
	endfacet
	facet normal 0.13052624403493862 0.9914448545522497 0
		outer loop
			vertex 0 1 50
			vertex 0.258819043636322 0.9659258127212524 50
			vertex 0 1 -50
		endloop
	endfacet
	facet normal 0.38268343683958855 0.9238795306578887 0
		outer loop
			vertex 0.258819043636322 0.9659258127212524 50
			vertex 0.5 0.8660253882408142 50
			vertex 0.258819043636322 0.9659258127212524 -50
		endloop
	endfacet
	facet normal 0.9914448545522497 0.13052624403493862 0
		outer loop
			vertex 0.9659258127212524 0.258819043636322 50
			vertex 1 0 50
			vertex 0.9659258127212524 0.258819043636322 -50
		endloop
	endfacet
	facet normal 0.9238795306578887 0.38268343683958855 0
		outer loop
			vertex 0.8660253882408142 0.5 50
			vertex 0.9659258127212524 0.258819043636322 50
			vertex 0.8660253882408142 0.5 -50
		endloop
	endfacet
	facet normal 0 0 1
		outer loop
			vertex 0.7071067690849304 0.7071067690849304 50
			vertex 0.5 0.8660253882408142 50
			vertex 0.5 -0.8660253882408142 50
		endloop
	endfacet
	facet normal 0 0 1
		outer loop
			vertex 0.8660253882408142 0.5 50
			vertex 0.7071067690849304 0.7071067690849304 50
			vertex 0.7071067690849304 -0.7071067690849304 50
		endloop
	endfacet
	facet normal 0 0 1
		outer loop
			vertex 0.9659258127212524 0.258819043636322 50
			vertex 0.8660253882408142 0.5 50
			vertex 0.8660253882408142 -0.5 50
		endloop
	endfacet
	facet normal 0 0 1
		outer loop
			vertex 1 0 50
			vertex 0.9659258127212524 0.258819043636322 50
			vertex 0.9659258127212524 -0.258819043636322 50
		endloop
	endfacet
	facet normal 0.6087614430986138 0.7933533294796797 0
		outer loop
			vertex 0.5 0.8660253882408142 50
			vertex 0.7071067690849304 0.7071067690849304 50
			vertex 0.5 0.8660253882408142 -50
		endloop
	endfacet
	facet normal 0.7933533294796797 0.6087614430986138 0
		outer loop
			vertex 0.7071067690849304 0.7071067690849304 50
			vertex 0.8660253882408142 0.5 50
			vertex 0.7071067690849304 0.7071067690849304 -50
		endloop
	endfacet
endsolid exported
