<svg xmlns="http://www.w3.org/2000/svg" viewBox="0 0 512 512"><circle cx="256" cy="256" r="256" fill="#001117"/><path d="M4.688 0L64.336-166.641L95.156-166.641L154.805 0L128.438 0L110.273-50.156L63.750-50.156L72.656-74.766L101.367-74.766L79.805-134.297L31.055 0L4.688 0ZM173.555-75.469L182.109-90.117L202.383-78.516L202.383-102.070L219.609-102.070L219.609-78.516L240.352-90.234L248.438-75.352L228.164-63.516L248.672-51.680L240.117-37.031L219.609-48.750L219.609-24.961L202.383-24.961L202.383-48.633L182.109-36.797L173.672-51.797L193.945-63.750L173.555-75.469ZM275.625-43.594L275.625-77.578Q275.625-89.648 281.543-99.609Q287.461-109.570 297.422-115.488Q307.383-121.406 319.453-121.406L319.453-121.406L348.398-121.406L348.398-96.680L319.453-96.680Q311.602-96.680 305.977-90.996Q300.352-85.313 300.352-77.344L300.352-77.344L300.352-43.828Q300.352-35.977 305.977-30.352Q311.602-24.727 319.453-24.727L319.453-24.727L362.461-24.727L362.461-166.641L387.188-166.641L387.188-24.727Q387.188-14.531 379.922-7.266Q372.656 0 362.461 0L362.461 0L319.453 0Q307.383 0 297.422-5.918Q287.461-11.836 281.543-21.738Q275.625-31.641 275.625-43.594L275.625-43.594Z" fill="#f7f3e3" transform="translate(60.061999797821045, 339.3205032348633)"/></svg>