<svg xmlns="http://www.w3.org/2000/svg" viewBox="0 0 512 512"><circle cx="256" cy="256" r="256" fill="#001117"/><path d="M9.668-41.748L9.668-55.459L98.438-87.715L98.438-69.434L41.396-48.604L98.438-27.861L98.438-9.492L9.668-41.748ZM111.621 0L156.357-124.980L179.473-124.980L224.209 0L204.434 0L190.811-37.617L155.918-37.617L162.598-56.074L184.131-56.074L167.959-100.723L131.396 0L111.621 0ZM238.271-56.602L244.688-67.588L259.893-58.887L259.893-76.553L272.813-76.553L272.813-58.887L288.369-67.676L294.434-56.514L279.229-47.637L294.609-38.760L288.193-27.773L272.813-36.563L272.813-18.721L259.893-18.721L259.893-36.475L244.688-27.598L238.359-38.848L253.564-47.813L238.271-56.602ZM317.461 0L317.461-124.980L383.906-124.980Q393.662-124.980 401.704-120.234Q409.746-115.488 414.492-107.534Q419.238-99.580 419.238-89.824L419.238-89.824L419.238-34.805Q419.238-25.225 414.492-17.314Q409.746-9.404 401.704-4.702Q393.662 0 383.906 0L383.906 0L317.461 0ZM336.006-18.545L383.906-18.545Q390.938-18.545 395.859-23.379Q400.781-28.213 400.781-35.068L400.781-35.068L400.781-89.824Q400.781-96.768 395.859-101.646Q390.938-106.523 383.906-106.523L383.906-106.523L336.006-106.523L336.006-18.545Z" fill="#f7f3e3" transform="translate(41.546996116638184, 318.4900016784668)"/></svg>