<svg xmlns="http://www.w3.org/2000/svg" viewBox="0 0 512 512"><circle cx="256" cy="256" r="256" fill="#001117"/><path d="M5.566 0L76.399-197.886L112.998-197.886L183.831 0L152.520 0L130.950-59.561L75.703-59.561L86.279-88.784L120.374-88.784L94.768-159.478L36.877 0L5.566 0ZM208.879 0L208.879-197.886L314.084-197.886Q329.531-197.886 342.264-190.371Q354.998-182.856 362.512-170.262Q370.027-157.668 370.027-142.222L370.027-142.222L370.027-55.107Q370.027-39.939 362.512-27.415Q354.998-14.890 342.264-7.445Q329.531 0 314.084 0L314.084 0L208.879 0ZM238.242-29.363L314.084-29.363Q325.217-29.363 333.010-37.017Q340.803-44.670 340.803-55.525L340.803-55.525L340.803-142.222Q340.803-153.215 333.010-160.939Q325.217-168.662 314.084-168.662L314.084-168.662L238.242-168.662L238.242-29.363Z" fill="#f7f3e3" transform="translate(68.20350074768066, 354.94300079345703)"/></svg>