<svg xmlns="http://www.w3.org/2000/svg" viewBox="0 0 512 512"><circle cx="256" cy="256" r="256" fill="#001117"/><path d="M12.891-12.656L12.891-37.148L88.945-64.805L12.891-92.578L12.891-116.953L131.250-73.945L131.250-55.664L12.891-12.656ZM148.828 0L208.477-166.641L239.297-166.641L298.945 0L272.578 0L254.414-50.156L207.891-50.156L216.797-74.766L245.508-74.766L223.945-134.297L175.195 0L148.828 0ZM311.836-96.680L311.836-121.406L327.656-121.406L327.656-166.641L352.383-166.641L352.383-121.406L389.766-121.406L389.766-96.680L352.383-96.680L352.383-34.453Q352.383-30.469 355.488-27.598Q358.594-24.727 362.930-24.727L362.930-24.727L389.766-24.727L389.766 0L362.578 0Q352.969 0 345.059-4.629Q337.148-9.258 332.402-17.051Q327.656-24.844 327.656-34.336L327.656-34.336L327.656-96.680L311.836-96.680Z" fill="#f7f3e3" transform="translate(54.67150020599365, 339.3205032348633)"/></svg>