<svg xmlns="http://www.w3.org/2000/svg" viewBox="0 0 512 512"><circle cx="256" cy="256" r="256" fill="#001117"/><path d="M4.688 0L64.336-166.641L95.156-166.641L154.805 0L128.438 0L110.273-50.156L63.750-50.156L72.656-74.766L101.367-74.766L79.805-134.297L31.055 0L4.688 0ZM173.555-75.469L182.109-90.117L202.383-78.516L202.383-102.070L219.609-102.070L219.609-78.516L240.352-90.234L248.438-75.352L228.164-63.516L248.672-51.680L240.117-37.031L219.609-48.750L219.609-24.961L202.383-24.961L202.383-48.633L182.109-36.797L173.672-51.797L193.945-63.750L173.555-75.469ZM279.141 0L279.141-166.641L367.734-166.641Q380.742-166.641 391.465-160.313Q402.188-153.984 408.516-143.379Q414.844-132.773 414.844-119.766L414.844-119.766L414.844-46.406Q414.844-33.633 408.516-23.086Q402.188-12.539 391.465-6.270Q380.742 0 367.734 0L367.734 0L279.141 0ZM303.867-24.727L367.734-24.727Q377.109-24.727 383.672-31.172Q390.234-37.617 390.234-46.758L390.234-46.758L390.234-119.766Q390.234-129.023 383.672-135.527Q377.109-142.031 367.734-142.031L367.734-142.031L303.867-142.031L303.867-24.727Z" fill="#f7f3e3" transform="translate(46.233996868133545, 339.3205032348633)"/></svg>