<svg xmlns="http://www.w3.org/2000/svg" viewBox="0 0 512 512"><circle cx="256" cy="256" r="256" fill="#001117"/><path d="M27.510-35.332L9.668-35.332Q9.668-47.021 17.007-54.536Q24.346-62.051 35.771-62.051L35.771-62.051Q41.221-62.051 46.890-60.732Q52.559-59.414 60.029-56.338L60.029-56.338Q65.479-54.316 69.126-53.438Q72.773-52.559 75.938-52.559L75.938-52.559Q84.727-52.559 84.727-62.139L84.727-62.139L102.393-62.139Q102.393-49.482 95.054-42.407Q87.715-35.332 74.619-35.332L74.619-35.332Q69.521-35.332 64.160-36.606Q58.799-37.881 49.307-41.309L49.307-41.309Q44.385-43.066 41.177-43.813Q37.969-44.561 35.596-44.561L35.596-44.561Q27.510-44.561 27.510-35.332L27.510-35.332ZM115.576 0L160.313-124.980L183.428-124.980L228.164 0L208.389 0L194.766-37.617L159.873-37.617L166.553-56.074L188.086-56.074L171.914-100.723L135.352 0L115.576 0ZM242.227-56.602L248.643-67.588L263.848-58.887L263.848-76.553L276.768-76.553L276.768-58.887L292.324-67.676L298.389-56.514L283.184-47.637L298.564-38.760L292.148-27.773L276.768-36.563L276.768-18.721L263.848-18.721L263.848-36.475L248.643-27.598L242.314-38.848L257.520-47.813L242.227-56.602ZM321.416 0L321.416-124.980L387.861-124.980Q397.617-124.980 405.659-120.234Q413.701-115.488 418.447-107.534Q423.193-99.580 423.193-89.824L423.193-89.824L423.193-34.805Q423.193-25.225 418.447-17.314Q413.701-9.404 405.659-4.702Q397.617 0 387.861 0L387.861 0L321.416 0ZM339.961-18.545L387.861-18.545Q394.893-18.545 399.814-23.379Q404.736-28.213 404.736-35.068L404.736-35.068L404.736-89.824Q404.736-96.768 399.814-101.646Q394.893-106.523 387.861-106.523L387.861-106.523L339.961-106.523L339.961-18.545Z" fill="#f7f3e3" transform="translate(39.56950283050537, 318.4900016784668)"/></svg>