<svg xmlns="http://www.w3.org/2000/svg" viewBox="0 0 512 512"><circle cx="256" cy="256" r="256" fill="#001117"/><path d="M28.427-36.510L9.990-36.510Q9.990-48.589 17.574-56.354Q25.157-64.119 36.964-64.119L36.964-64.119Q42.595-64.119 48.453-62.757Q54.311-61.395 62.030-58.216L62.030-58.216Q67.661-56.127 71.430-55.219Q75.199-54.311 78.469-54.311L78.469-54.311Q87.551-54.311 87.551-64.210L87.551-64.210L105.806-64.210Q105.806-51.132 98.222-43.821Q90.639-36.510 77.106-36.510L77.106-36.510Q71.839-36.510 66.299-37.827Q60.759-39.144 50.950-42.686L50.950-42.686Q45.864-44.502 42.549-45.274Q39.234-46.046 36.782-46.046L36.782-46.046Q28.427-46.046 28.427-36.510L28.427-36.510ZM119.429 0L165.656-129.146L189.542-129.146L235.770 0L215.335 0L201.258-38.871L165.202-38.871L172.104-57.943L194.355-57.943L177.645-104.080L139.863 0L119.429 0ZM250.301-58.488L256.931-69.841L272.643-60.850L272.643-79.104L285.993-79.104L285.993-60.850L302.068-69.932L308.335-58.397L292.623-49.225L308.517-40.052L301.887-28.699L285.993-37.781L285.993-19.345L272.643-19.345L272.643-37.690L256.931-28.518L250.392-40.143L266.104-49.406L250.301-58.488ZM329.405-33.785L329.405-60.123Q329.405-69.478 333.992-77.197Q338.578-84.917 346.298-89.503Q354.018-94.090 363.372-94.090L363.372-94.090L385.805-94.090L385.805-74.927L363.372-74.927Q357.287-74.927 352.928-70.522Q348.568-66.117 348.568-59.941L348.568-59.941L348.568-33.967Q348.568-27.882 352.928-23.522Q357.287-19.163 363.372-19.163L363.372-19.163L396.703-19.163L396.703-129.146L415.866-129.146L415.866-19.163Q415.866-11.262 410.235-5.631Q404.604 0 396.703 0L396.703 0L363.372 0Q354.018 0 346.298-4.586Q338.578-9.173 333.992-16.847Q329.405-24.521 329.405-33.785L329.405-33.785Z" fill="#f7f3e3" transform="translate(43.07199668884277, 320.572998046875)"/></svg>