<svg xmlns="http://www.w3.org/2000/svg" viewBox="0 0 512 512"><circle cx="256" cy="256" r="256" fill="#001117"/><path d="M6.152 0L84.441-218.716L124.893-218.716L203.181 0L168.574 0L144.734-65.830L83.672-65.830L95.361-98.130L133.044-98.130L104.744-176.265L40.759 0L6.152 0ZM220.100-126.892L220.100-159.346L240.864-159.346L240.864-218.716L273.318-218.716L273.318-159.346L322.383-159.346L322.383-126.892L273.318-126.892L273.318-45.220Q273.318-39.990 277.394-36.222Q281.470-32.454 287.161-32.454L287.161-32.454L322.383-32.454L322.383 0L286.699 0Q274.087 0 263.705-6.075Q253.323-12.151 247.094-22.379Q240.864-32.607 240.864-45.066L240.864-45.066L240.864-126.892L220.100-126.892Z" fill="#f7f3e3" transform="translate(91.732506275177, 365.3580017089844)"/></svg>