<svg xmlns="http://www.w3.org/2000/svg" viewBox="0 0 512 512"><circle cx="256" cy="256" r="256" fill="#001117"/><path d="M11.279-11.074L11.279-32.505L77.827-56.704L11.279-81.006L11.279-102.334L114.844-64.702L114.844-48.706L11.279-11.074ZM130.225 0L182.417-145.811L209.385-145.811L261.577 0L238.506 0L222.612-43.887L181.904-43.887L189.697-65.420L214.819-65.420L195.952-117.510L153.296 0L130.225 0ZM280.034 0L280.034-145.811L357.554-145.811Q368.936-145.811 378.318-140.273Q387.700-134.736 393.237-125.457Q398.774-116.177 398.774-104.795L398.774-104.795L398.774-40.605Q398.774-29.429 393.237-20.200Q387.700-10.972 378.318-5.486Q368.936 0 357.554 0L357.554 0L280.034 0ZM301.670-21.636L357.554-21.636Q365.757-21.636 371.499-27.275Q377.241-32.915 377.241-40.913L377.241-40.913L377.241-104.795Q377.241-112.896 371.499-118.586Q365.757-124.277 357.554-124.277L357.554-124.277L301.670-124.277L301.670-21.636Z" fill="#f7f3e3" transform="translate(50.97350215911865, 328.90550231933594)"/></svg>