<svg xmlns="http://www.w3.org/2000/svg" viewBox="0 0 512 512"><circle cx="256" cy="256" r="256" fill="#001117"/><path d="M36.680-47.109L12.891-47.109Q12.891-62.695 22.676-72.715Q32.461-82.734 47.695-82.734L47.695-82.734Q54.961-82.734 62.520-80.977Q70.078-79.219 80.039-75.117L80.039-75.117Q87.305-72.422 92.168-71.250Q97.031-70.078 101.250-70.078L101.250-70.078Q112.969-70.078 112.969-82.852L112.969-82.852L136.523-82.852Q136.523-65.977 126.738-56.543Q116.953-47.109 99.492-47.109L99.492-47.109Q92.695-47.109 85.547-48.809Q78.398-50.508 65.742-55.078L65.742-55.078Q59.180-57.422 54.902-58.418Q50.625-59.414 47.461-59.414L47.461-59.414Q36.680-59.414 36.680-47.109L36.680-47.109ZM154.102 0L213.750-166.641L244.570-166.641L304.219 0L277.852 0L259.688-50.156L213.164-50.156L222.070-74.766L250.781-74.766L229.219-134.297L180.469 0L154.102 0ZM321.797-43.594L321.797-77.578Q321.797-89.648 327.715-99.609Q333.633-109.570 343.594-115.488Q353.555-121.406 365.625-121.406L365.625-121.406L394.570-121.406L394.570-96.680L365.625-96.680Q357.773-96.680 352.148-90.996Q346.523-85.313 346.523-77.344L346.523-77.344L346.523-43.828Q346.523-35.977 352.148-30.352Q357.773-24.727 365.625-24.727L365.625-24.727L408.633-24.727L408.633-166.641L433.359-166.641L433.359-24.727Q433.359-14.531 426.094-7.266Q418.828 0 408.633 0L408.633 0L365.625 0Q353.555 0 343.594-5.918Q333.633-11.836 327.715-21.738Q321.797-31.641 321.797-43.594L321.797-43.594Z" fill="#f7f3e3" transform="translate(32.87499141693115, 339.3205032348633)"/></svg>