<svg xmlns="http://www.w3.org/2000/svg" viewBox="0 0 512 512"><circle cx="256" cy="256" r="256" fill="#001117"/><path d="M34.387-44.165L12.085-44.165Q12.085-58.777 21.259-68.170Q30.432-77.563 44.714-77.563L44.714-77.563Q51.526-77.563 58.612-75.916Q65.698-74.268 75.037-70.422L75.037-70.422Q81.848-67.896 86.407-66.797Q90.967-65.698 94.922-65.698L94.922-65.698Q105.908-65.698 105.908-77.673L105.908-77.673L127.991-77.673Q127.991-61.853 118.817-53.009Q109.644-44.165 93.274-44.165L93.274-44.165Q86.902-44.165 80.200-45.758Q73.499-47.351 61.633-51.636L61.633-51.636Q55.481-53.833 51.471-54.767Q47.461-55.701 44.495-55.701L44.495-55.701Q34.387-55.701 34.387-44.165L34.387-44.165ZM144.470 0L200.391-156.226L229.285-156.226L285.205 0L260.486 0L243.457-47.021L199.841-47.021L208.191-70.093L235.107-70.093L214.893-125.903L169.189 0L144.470 0ZM304.980 0L304.980-156.226L388.037-156.226Q400.232-156.226 410.284-150.293Q420.337-144.360 426.270-134.418Q432.202-124.475 432.202-112.280L432.202-112.280L432.202-43.506Q432.202-31.531 426.270-21.643Q420.337-11.755 410.284-5.878Q400.232 0 388.037 0L388.037 0L304.980 0ZM328.162-23.181L388.037-23.181Q396.826-23.181 402.979-29.224Q409.131-35.266 409.131-43.835L409.131-43.835L409.131-112.280Q409.131-120.959 402.979-127.057Q396.826-133.154 388.037-133.154L388.037-133.154L328.162-133.154L328.162-23.181Z" fill="#f7f3e3" transform="translate(33.8564977645874, 334.11299896240234)"/></svg>