<svg xmlns="http://www.w3.org/2000/svg" viewBox="0 0 512 512"><circle cx="256" cy="256" r="256" fill="#001117"/><path d="M5.859 0L80.420-208.301L118.945-208.301L193.506 0L160.547 0L137.842-62.695L79.688-62.695L90.820-93.457L126.709-93.457L99.756-167.871L38.818 0L5.859 0ZM215.479-54.492L215.479-96.973Q215.479-112.061 222.876-124.512Q230.273-136.963 242.725-144.360Q255.176-151.758 270.264-151.758L270.264-151.758L306.445-151.758L306.445-120.850L270.264-120.850Q260.449-120.850 253.418-113.745Q246.387-106.641 246.387-96.680L246.387-96.680L246.387-54.785Q246.387-44.971 253.418-37.939Q260.449-30.908 270.264-30.908L270.264-30.908L324.023-30.908L324.023-208.301L354.932-208.301L354.932-30.908Q354.932-18.164 345.850-9.082Q336.768 0 324.023 0L324.023 0L270.264 0Q255.176 0 242.725-7.397Q230.273-14.795 222.876-27.173Q215.479-39.551 215.479-54.492L215.479-54.492Z" fill="#f7f3e3" transform="translate(75.60450077056885, 360.15049743652344)"/></svg>