<svg xmlns="http://www.w3.org/2000/svg" viewBox="0 0 512 512"><circle cx="256" cy="256" r="256" fill="#001117"/><path d="M36.680-47.109L12.891-47.109Q12.891-62.695 22.676-72.715Q32.461-82.734 47.695-82.734L47.695-82.734Q54.961-82.734 62.520-80.977Q70.078-79.219 80.039-75.117L80.039-75.117Q87.305-72.422 92.168-71.250Q97.031-70.078 101.250-70.078L101.250-70.078Q112.969-70.078 112.969-82.852L112.969-82.852L136.523-82.852Q136.523-65.977 126.738-56.543Q116.953-47.109 99.492-47.109L99.492-47.109Q92.695-47.109 85.547-48.809Q78.398-50.508 65.742-55.078L65.742-55.078Q59.180-57.422 54.902-58.418Q50.625-59.414 47.461-59.414L47.461-59.414Q36.680-59.414 36.680-47.109L36.680-47.109ZM165.820-46.875L165.820-119.766Q165.820-132.773 172.559-143.379Q179.297-153.984 190.547-160.313Q201.797-166.641 215.508-166.641L215.508-166.641L254.531-166.641Q268.242-166.641 279.551-160.313Q290.859-153.984 297.539-143.379Q304.219-132.773 304.219-119.766L304.219-119.766L304.219-46.875Q304.219-35.039 298.535-25.020Q292.852-15 283.066-8.438Q273.281-1.875 260.859-0.352L260.859-0.352L275.625 14.414L258.164 31.992L226.172 0L215.508 0Q201.797 0 190.547-6.328Q179.297-12.656 172.559-23.320Q165.820-33.984 165.820-46.875L165.820-46.875ZM190.547-119.883L190.547-46.758Q190.547-37.617 197.871-31.113Q205.195-24.609 215.508-24.609L215.508-24.609L254.531-24.609Q264.961-24.609 272.227-31.113Q279.492-37.617 279.492-46.758L279.492-46.758L279.492-119.883Q279.492-129.023 272.227-135.527Q264.961-142.031 254.531-142.031L254.531-142.031L215.508-142.031Q205.195-142.031 197.871-135.527Q190.547-129.023 190.547-119.883L190.547-119.883ZM334.688 0L334.688-166.641L359.414-166.641L359.414 0L334.688 0Z" fill="#f7f3e3" transform="translate(69.84749507904053, 323.32450103759766)"/></svg>