<svg xmlns="http://www.w3.org/2000/svg" viewBox="0 0 512 512"><circle cx="256" cy="256" r="256" fill="#001117"/><path d="M10.459 0L10.459-111.973L94.541-111.973L94.541 0L10.459 0ZM20.918-10.459L84.082-10.459L84.082-101.514L20.918-101.514L20.918-10.459ZM119.355-41.016L119.355-104.795Q119.355-116.177 125.251-125.457Q131.147-134.736 140.991-140.273Q150.835-145.811 162.832-145.811L162.832-145.811L196.978-145.811Q208.975-145.811 218.870-140.273Q228.765-134.736 234.609-125.457Q240.454-116.177 240.454-104.795L240.454-104.795L240.454-41.016Q240.454-30.659 235.481-21.892Q230.508-13.125 221.946-7.383Q213.384-1.641 202.515-0.308L202.515-0.308L215.435 12.612L200.156 27.993L172.163 0L162.832 0Q150.835 0 140.991-5.537Q131.147-11.074 125.251-20.405Q119.355-29.736 119.355-41.016L119.355-41.016ZM140.991-104.897L140.991-40.913Q140.991-32.915 147.400-27.224Q153.809-21.533 162.832-21.533L162.832-21.533L196.978-21.533Q206.104-21.533 212.461-27.224Q218.818-32.915 218.818-40.913L218.818-40.913L218.818-104.897Q218.818-112.896 212.461-118.586Q206.104-124.277 196.978-124.277L196.978-124.277L162.832-124.277Q153.809-124.277 147.400-118.586Q140.991-112.896 140.991-104.897L140.991-104.897ZM266.089-38.350L266.089-68.086Q266.089-78.647 271.267-87.261Q276.445-95.874 285.161-101.052Q293.877-106.230 304.438-106.230L304.438-106.230L363.706-106.230L363.706 0L342.070 0L342.070-84.595L304.438-84.595Q297.568-84.595 292.646-79.724Q287.725-74.854 287.725-67.881L287.725-67.881L287.725-38.555Q287.725-31.582 292.646-26.609Q297.568-21.636 304.438-21.636L304.438-21.636L329.766-21.636L329.766 0L304.438 0Q293.877 0 285.161-5.178Q276.445-10.356 271.267-19.072Q266.089-27.788 266.089-38.350L266.089-38.350Z" fill="#f7f3e3" transform="translate(68.91749572753906, 314.9090042114258)"/></svg>