<svg xmlns="http://www.w3.org/2000/svg" viewBox="0 0 512 512"><circle cx="256" cy="256" r="256" fill="#001117"/><path d="M14.063-79.805L14.063-90Q14.063-105.117 21.094-113.789L21.094-113.789Q18.164-120.703 18.164-129.844L18.164-129.844L18.164-132.305Q18.164-141.914 22.793-149.648Q27.422-157.383 35.273-162.012Q43.125-166.641 52.617-166.641L52.617-166.641L116.953-166.641L116.953-142.031L52.617-142.031Q48.633-142.031 45.762-139.219Q42.891-136.406 42.891-132.305L42.891-132.305L42.891-129.844Q42.891-126.328 45.059-123.867Q47.227-121.406 50.391-121.406L50.391-121.406L94.570-121.406Q103.125-121.406 110.156-117.188Q117.188-112.969 121.406-105.820Q125.625-98.672 125.625-89.883L125.625-89.883L125.625-79.805Q125.625-63.164 114.375-53.320L114.375-53.320Q116.367-46.641 116.367-38.320L116.367-38.320L116.367-35.273Q116.367-25.547 111.855-17.520Q107.344-9.492 99.785-4.746Q92.227 0 82.969 0L82.969 0L19.219 0L19.219-24.727L82.852-24.727Q86.484-24.727 89.063-27.715Q91.641-30.703 91.641-34.922L91.641-34.922L91.641-38.320Q91.641-42.188 88.945-45.410Q86.250-48.633 82.852-48.633L82.852-48.633L45.234-48.633Q36.680-48.633 29.590-52.852Q22.500-57.070 18.281-64.160Q14.063-71.250 14.063-79.805L14.063-79.805ZM38.789-89.180L38.789-80.859Q38.789-77.813 40.723-75.586Q42.656-73.359 45.234-73.359L45.234-73.359L94.922-73.359Q97.500-73.359 99.258-75.586Q101.016-77.813 101.016-80.859L101.016-80.859L101.016-89.180Q101.016-92.227 99.258-94.453Q97.500-96.680 94.922-96.680L94.922-96.680L45.234-96.680Q42.656-96.680 40.723-94.453Q38.789-92.227 38.789-89.180L38.789-89.180ZM156.094-46.875L156.094-119.766Q156.094-132.773 162.832-143.379Q169.570-153.984 180.820-160.313Q192.070-166.641 205.781-166.641L205.781-166.641L244.805-166.641Q258.516-166.641 269.824-160.313Q281.133-153.984 287.813-143.379Q294.492-132.773 294.492-119.766L294.492-119.766L294.492-46.875Q294.492-35.039 288.809-25.020Q283.125-15 273.340-8.438Q263.555-1.875 251.133-0.352L251.133-0.352L265.898 14.414L248.438 31.992L216.445 0L205.781 0Q192.070 0 180.820-6.328Q169.570-12.656 162.832-23.320Q156.094-33.984 156.094-46.875L156.094-46.875ZM180.820-119.883L180.820-46.758Q180.820-37.617 188.145-31.113Q195.469-24.609 205.781-24.609L205.781-24.609L244.805-24.609Q255.234-24.609 262.500-31.113Q269.766-37.617 269.766-46.758L269.766-46.758L269.766-119.883Q269.766-129.023 262.500-135.527Q255.234-142.031 244.805-142.031L244.805-142.031L205.781-142.031Q195.469-142.031 188.145-135.527Q180.820-129.023 180.820-119.883L180.820-119.883ZM323.789-43.828L323.789-77.813Q323.789-89.883 329.707-99.727Q335.625-109.570 345.586-115.488Q355.547-121.406 367.617-121.406L367.617-121.406L435.352-121.406L435.352 0L410.625 0L410.625-96.680L367.617-96.680Q359.766-96.680 354.141-91.113Q348.516-85.547 348.516-77.578L348.516-77.578L348.516-44.063Q348.516-36.094 354.141-30.410Q359.766-24.727 367.617-24.727L367.617-24.727L396.563-24.727L396.563 0L367.617 0Q355.547 0 345.586-5.918Q335.625-11.836 329.707-21.797Q323.789-31.758 323.789-43.828L323.789-43.828Z" fill="#f7f3e3" transform="translate(31.292499542236328, 323.32450103759766)"/></svg>