<svg xmlns="http://www.w3.org/2000/svg" viewBox="0 0 512 512"><circle cx="256" cy="256" r="256" fill="#001117"/><path d="M4.980 0L68.357-177.056L101.104-177.056L164.480 0L136.465 0L117.166-53.291L67.734-53.291L77.197-79.438L107.703-79.438L84.792-142.690L32.996 0L4.980 0ZM184.402-46.567L184.402-128.994L210.674-128.994L210.674-46.941Q210.674-38.225 216.650-32.124Q222.627-26.023 230.969-26.023L230.969-26.023L276.665-26.023L276.665-128.994L302.937-128.994L302.937-26.147Q302.937-15.315 295.217-7.657Q287.498 0 276.416 0L276.416 0L230.969 0Q218.145 0 207.561-6.288Q196.978-12.576 190.690-23.159Q184.402-33.743 184.402-46.567L184.402-46.567ZM335.310 0L335.310-177.056L361.582-177.056L361.582 0L335.310 0Z" fill="#f7f3e3" transform="translate(72.71900510787964, 344.5279998779297)"/></svg>