<svg xmlns="http://www.w3.org/2000/svg" viewBox="0 0 512 512"><circle cx="256" cy="256" r="256" fill="#001117"/><path d="M10.474-45.227L10.474-60.081L106.641-95.024L106.641-75.220L44.846-52.654L106.641-30.183L106.641-10.283L10.474-45.227ZM120.923 0L169.387-135.396L194.429-135.396L242.893 0L221.470 0L206.711-40.752L168.911-40.752L176.147-60.747L199.475-60.747L181.956-109.116L142.346 0L120.923 0ZM258.127-35.610L258.127-98.643L278.218-98.643L278.218-35.896Q278.218-29.231 282.788-24.565Q287.358-19.900 293.738-19.900L293.738-19.900L328.682-19.900L328.682-98.643L348.772-98.643L348.772-19.995Q348.772-11.711 342.869-5.856Q336.965 0 328.491 0L328.491 0L293.738 0Q283.931 0 275.837-4.808Q267.744-9.617 262.936-17.710Q258.127-25.803 258.127-35.610L258.127-35.610ZM373.528 0L373.528-135.396L393.618-135.396L393.618 0L373.528 0Z" fill="#f7f3e3" transform="translate(53.953993797302246, 323.697998046875)"/></svg>