<svg xmlns="http://www.w3.org/2000/svg" viewBox="0 0 512 512"><circle cx="256" cy="256" r="256" fill="#001117"/><path d="M7.031 0L96.504-249.961L142.734-249.961L232.207 0L192.656 0L165.410-75.234L95.625-75.234L108.984-112.148L152.051-112.148L119.707-201.445L46.582 0L7.031 0ZM256.113-231.680L256.113-231.680Q256.113-241.172 262.793-247.852Q269.473-254.531 278.965-254.531L278.965-254.531Q288.457-254.531 295.137-247.852Q301.816-241.172 301.816-231.680L301.816-231.680Q301.816-222.188 295.137-215.508Q288.457-208.828 278.965-208.828L278.965-208.828Q269.473-208.828 262.793-215.508Q256.113-222.188 256.113-231.680ZM260.332 0L260.332-182.109L297.598-182.109L297.598 0L260.332 0Z" fill="#f7f3e3" transform="translate(101.57649803161621, 383.2655029296875)"/></svg>