<svg xmlns="http://www.w3.org/2000/svg" viewBox="0 0 512 512"><circle cx="256" cy="256" r="256" fill="#001117"/><path d="M29.802-38.276L10.474-38.276Q10.474-50.940 18.424-59.081Q26.375-67.222 38.752-67.222L38.752-67.222Q44.656-67.222 50.797-65.793Q56.938-64.365 65.032-61.033L65.032-61.033Q70.935-58.843 74.886-57.891Q78.838-56.938 82.266-56.938L82.266-56.938Q91.787-56.938 91.787-67.317L91.787-67.317L110.925-67.317Q110.925-53.606 102.975-45.941Q95.024-38.276 80.837-38.276L80.837-38.276Q75.315-38.276 69.507-39.657Q63.699-41.038 53.416-44.751L53.416-44.751Q48.083-46.655 44.608-47.465Q41.133-48.274 38.562-48.274L38.562-48.274Q29.802-48.274 29.802-38.276L29.802-38.276ZM125.208 0L173.672-135.396L198.713-135.396L247.178 0L225.754 0L210.996-40.752L173.196-40.752L180.432-60.747L203.760-60.747L186.240-109.116L146.631 0L125.208 0ZM262.412-35.610L262.412-98.643L282.502-98.643L282.502-35.896Q282.502-29.231 287.073-24.565Q291.643-19.900 298.022-19.900L298.022-19.900L332.966-19.900L332.966-98.643L353.057-98.643L353.057-19.995Q353.057-11.711 347.153-5.856Q341.250 0 332.776 0L332.776 0L298.022 0Q288.215 0 280.122-4.808Q272.029-9.617 267.220-17.710Q262.412-25.803 262.412-35.610L262.412-35.610ZM377.813 0L377.813-135.396L397.903-135.396L397.903 0L377.813 0Z" fill="#f7f3e3" transform="translate(51.81149196624756, 323.697998046875)"/></svg>