<svg xmlns="http://www.w3.org/2000/svg" viewBox="0 0 512 512"><circle cx="256" cy="256" r="256" fill="#001117"/><path d="M10.474-10.283L10.474-30.183L72.268-52.654L10.474-75.220L10.474-95.024L106.641-60.081L106.641-45.227L10.474-10.283ZM130.444 0L130.444-135.396L201.760-135.396Q211.187-135.396 218.804-130.920Q226.421-126.445 230.944-118.923Q235.466-111.401 235.466-102.070L235.466-102.070L235.466-93.215Q235.466-79.980 227.849-73.125L227.849-73.125Q234.609-68.745 237.656-62.699Q240.703-56.653 240.703-47.607L240.703-47.607L240.703-32.659Q240.703-23.708 236.180-16.282Q231.658-8.855 224.041-4.427Q216.423 0 207.188 0L207.188 0L130.444 0ZM150.535-20.090L207.378-20.090Q212.900-20.090 216.804-23.851Q220.708-27.612 220.708-32.944L220.708-32.944L220.708-47.893Q220.708-53.225 216.804-57.034Q212.900-60.842 207.283-60.842L207.283-60.842L161.960-60.842L161.960-80.837L201.760-80.837Q207.378-80.837 211.425-84.503Q215.471-88.169 215.471-93.406L215.471-93.406L215.471-102.070Q215.471-107.593 211.425-111.497Q207.378-115.400 201.760-115.400L201.760-115.400L150.535-115.400L150.535-20.090ZM262.603 0L262.603-78.552Q262.603-86.836 268.506-92.739Q274.409-98.643 282.788-98.643L282.788-98.643L312.876-98.643Q325.063-98.643 332.871-91.025L332.871-91.025Q340.488-98.643 352.866-98.643L352.866-98.643L367.720-98.643Q377.527-98.643 385.620-93.834Q393.713-89.026 398.522-80.980Q403.330-72.935 403.330-63.127L403.330-63.127L403.330 0L383.335 0L383.335-62.842Q383.335-69.412 378.765-74.030Q374.194-78.647 367.720-78.647L367.720-78.647L352.866-78.647Q348.677-78.647 345.725-76.029Q342.773-73.411 342.773-69.697L342.773-69.697L342.773 0L322.683 0L322.683-69.697Q322.683-73.411 319.827-76.029Q316.970-78.647 312.876-78.647L312.876-78.647L282.693-78.647L282.693 0L262.603 0Z" fill="#f7f3e3" transform="translate(49.09800624847412, 323.697998046875)"/></svg>