<svg xmlns="http://www.w3.org/2000/svg" viewBox="0 0 512 512"><circle cx="256" cy="256" r="256" fill="#001117"/><path d="M31.178-40.043L10.957-40.043Q10.957-53.291 19.274-61.808Q27.592-70.324 40.541-70.324L40.541-70.324Q46.717-70.324 53.142-68.830Q59.566-67.336 68.033-63.850L68.033-63.850Q74.209-61.559 78.343-60.563Q82.477-59.566 86.063-59.566L86.063-59.566Q96.023-59.566 96.023-70.424L96.023-70.424L116.045-70.424Q116.045-56.080 107.728-48.062Q99.410-40.043 84.568-40.043L84.568-40.043Q78.791-40.043 72.715-41.487Q66.639-42.932 55.881-46.816L55.881-46.816Q50.303-48.809 46.667-49.655Q43.031-50.502 40.342-50.502L40.342-50.502Q31.178-50.502 31.178-40.043L31.178-40.043ZM140.947 0L140.947-141.645L215.555-141.645Q225.416-141.645 233.385-136.963Q241.354-132.281 246.085-124.412Q250.816-116.543 250.816-106.781L250.816-106.781L250.816-97.518Q250.816-83.672 242.848-76.500L242.848-76.500Q249.920-71.918 253.107-65.593Q256.295-59.268 256.295-49.805L256.295-49.805L256.295-34.166Q256.295-24.803 251.563-17.033Q246.832-9.264 238.863-4.632Q230.895 0 221.232 0L221.232 0L140.947 0ZM161.965-21.018L221.432-21.018Q227.209-21.018 231.293-24.952Q235.377-28.887 235.377-34.465L235.377-34.465L235.377-50.104Q235.377-55.682 231.293-59.666Q227.209-63.650 221.332-63.650L221.332-63.650L173.918-63.650L173.918-84.568L215.555-84.568Q221.432-84.568 225.665-88.403Q229.898-92.238 229.898-97.717L229.898-97.717L229.898-106.781Q229.898-112.559 225.665-116.643Q221.432-120.727 215.555-120.727L215.555-120.727L161.965-120.727L161.965-21.018ZM279.205 0L279.205-82.178Q279.205-90.844 285.381-97.020Q291.557-103.195 300.322-103.195L300.322-103.195L331.799-103.195Q344.549-103.195 352.717-95.227L352.717-95.227Q360.686-103.195 373.635-103.195L373.635-103.195L389.174-103.195Q399.434-103.195 407.900-98.165Q416.367-93.135 421.397-84.718Q426.428-76.301 426.428-66.041L426.428-66.041L426.428 0L405.510 0L405.510-65.742Q405.510-72.615 400.729-77.446Q395.947-82.277 389.174-82.277L389.174-82.277L373.635-82.277Q369.252-82.277 366.164-79.538Q363.076-76.799 363.076-72.914L363.076-72.914L363.076 0L342.059 0L342.059-72.914Q342.059-76.799 339.070-79.538Q336.082-82.277 331.799-82.277L331.799-82.277L300.223-82.277L300.223 0L279.205 0Z" fill="#f7f3e3" transform="translate(37.307496070861816, 326.82250213623047)"/></svg>