<svg xmlns="http://www.w3.org/2000/svg" viewBox="0 0 512 512"><circle cx="256" cy="256" r="256" fill="#001117"/><path d="M18.457 0L18.457-187.471L117.202-187.471Q130.254-187.471 140.801-181.274Q151.348-175.078 157.610-164.663Q163.872-154.248 163.872-141.328L163.872-141.328L163.872-129.067Q163.872-110.742 153.325-101.250L153.325-101.250Q162.686-95.186 166.904-86.814Q171.123-78.442 171.123-65.918L171.123-65.918L171.123-45.220Q171.123-32.827 164.861-22.544Q158.599-12.261 148.052-6.130Q137.505 0 124.717 0L124.717 0L18.457 0ZM46.274-27.817L124.980-27.817Q132.627-27.817 138.032-33.025Q143.438-38.232 143.438-45.615L143.438-45.615L143.438-66.313Q143.438-73.696 138.032-78.970Q132.627-84.243 124.849-84.243L124.849-84.243L62.095-84.243L62.095-111.929L117.202-111.929Q124.980-111.929 130.583-117.004Q136.187-122.080 136.187-129.331L136.187-129.331L136.187-141.328Q136.187-148.975 130.583-154.380Q124.980-159.785 117.202-159.785L117.202-159.785L46.274-159.785L46.274-27.817ZM201.445 0L201.445-108.765Q201.445-120.234 209.619-128.408Q217.793-136.582 229.395-136.582L229.395-136.582L271.055-136.582Q287.930-136.582 298.740-126.035L298.740-126.035Q309.287-136.582 326.426-136.582L326.426-136.582L346.992-136.582Q360.571-136.582 371.777-129.924Q382.983-123.267 389.641-112.126Q396.299-100.986 396.299-87.407L396.299-87.407L396.299 0L368.613 0L368.613-87.012Q368.613-96.108 362.285-102.502Q355.957-108.896 346.992-108.896L346.992-108.896L326.426-108.896Q320.625-108.896 316.538-105.271Q312.451-101.646 312.451-96.504L312.451-96.504L312.451 0L284.634 0L284.634-96.504Q284.634-101.646 280.679-105.271Q276.724-108.896 271.055-108.896L271.055-108.896L229.263-108.896L229.263 0L201.445 0Z" fill="#f7f3e3" transform="translate(48.62199401855469, 349.7354965209961)"/></svg>