<svg xmlns="http://www.w3.org/2000/svg" viewBox="0 0 512 512"><circle cx="256" cy="256" r="256" fill="#000117"/><path d="M14.063-54.609L14.063-75.234L87.539-75.234L87.539-54.609L14.063-54.609ZM115.664-46.055L115.664-119.766Q115.664-132.773 122.109-143.379Q128.555-153.984 139.336-160.313Q150.117-166.641 163.242-166.641L163.242-166.641L250.547-166.641L250.547-142.031L163.242-142.031Q153.750-142.031 147.070-135.527Q140.391-129.023 140.391-119.766L140.391-119.766L140.391-46.406Q140.391-37.500 147.070-31.113Q153.750-24.727 163.242-24.727L163.242-24.727L250.547-24.727L250.547 0L163.242 0Q150.117 0 139.336-6.211Q128.555-12.422 122.109-22.910Q115.664-33.398 115.664-46.055L115.664-46.055ZM276.328-43.828L276.328-77.813Q276.328-89.883 282.246-99.727Q288.164-109.570 298.125-115.488Q308.086-121.406 320.156-121.406L320.156-121.406L387.891-121.406L387.891 0L363.164 0L363.164-96.680L320.156-96.680Q312.305-96.680 306.680-91.113Q301.055-85.547 301.055-77.578L301.055-77.578L301.055-44.063Q301.055-36.094 306.680-30.410Q312.305-24.727 320.156-24.727L320.156-24.727L349.102-24.727L349.102 0L320.156 0Q308.086 0 298.125-5.918Q288.164-11.836 282.246-21.797Q276.328-31.758 276.328-43.828L276.328-43.828Z" fill="#f7f3e3" transform="translate(55.02299880981445, 339.3205032348633)"/></svg>