<svg xmlns="http://www.w3.org/2000/svg" viewBox="0 0 512 512"><circle cx="256" cy="256" r="256" fill="#001117"/><path d="M11.279-48.706L11.279-64.702L114.844-102.334L114.844-81.006L48.296-56.704L114.844-32.505L114.844-11.074L11.279-48.706ZM138.428-40.298L138.428-104.795Q138.428-116.177 144.067-125.457Q149.707-134.736 159.141-140.273Q168.574-145.811 180.059-145.811L180.059-145.811L256.450-145.811L256.450-124.277L180.059-124.277Q171.753-124.277 165.908-118.586Q160.063-112.896 160.063-104.795L160.063-104.795L160.063-40.605Q160.063-32.813 165.908-27.224Q171.753-21.636 180.059-21.636L180.059-21.636L256.450-21.636L256.450 0L180.059 0Q168.574 0 159.141-5.435Q149.707-10.869 144.067-20.046Q138.428-29.224 138.428-40.298L138.428-40.298ZM282.085 0L282.085-145.811L359.604-145.811Q370.986-145.811 380.369-140.273Q389.751-134.736 395.288-125.457Q400.825-116.177 400.825-104.795L400.825-104.795L400.825-40.605Q400.825-29.429 395.288-20.200Q389.751-10.972 380.369-5.486Q370.986 0 359.604 0L359.604 0L282.085 0ZM303.721-21.636L359.604-21.636Q367.808-21.636 373.550-27.275Q379.292-32.915 379.292-40.913L379.292-40.913L379.292-104.795Q379.292-112.896 373.550-118.586Q367.808-124.277 359.604-124.277L359.604-124.277L303.721-124.277L303.721-21.636Z" fill="#f7f3e3" transform="translate(49.94798946380615, 328.90550231933594)"/></svg>