<svg xmlns="http://www.w3.org/2000/svg" viewBox="0 0 512 512"><circle cx="256" cy="256" r="256" fill="#001117"/><path d="M21.094-69.082L21.094-179.648Q21.094-199.160 30.762-215.068Q40.430-230.977 56.602-240.469Q72.773-249.961 92.461-249.961L92.461-249.961L223.418-249.961L223.418-213.047L92.461-213.047Q78.223-213.047 68.203-203.291Q58.184-193.535 58.184-179.648L58.184-179.648L58.184-69.609Q58.184-56.250 68.203-46.670Q78.223-37.090 92.461-37.090L92.461-37.090L223.418-37.090L223.418 0L92.461 0Q72.773 0 56.602-9.316Q40.430-18.633 30.762-34.365Q21.094-50.098 21.094-69.082L21.094-69.082ZM267.363 0L267.363-249.961L304.453-249.961L304.453 0L267.363 0Z" fill="#f7f3e3" transform="translate(93.22649574279785, 380.9804992675781)"/></svg>