<svg xmlns="http://www.w3.org/2000/svg" viewBox="0 0 512 512"><circle cx="256" cy="256" r="256" fill="#001117"/><path d="M17.578-129.346L17.578-129.346Q17.578-137.256 23.145-142.822Q28.711-148.389 36.621-148.389L36.621-148.389Q44.678-148.389 50.171-142.896Q55.664-137.402 55.664-129.346L55.664-129.346Q55.664-121.289 50.171-115.796Q44.678-110.303 36.621-110.303L36.621-110.303Q28.564-110.303 23.071-115.796Q17.578-121.289 17.578-129.346ZM17.578-17.578L17.578-17.578Q17.578-25.488 23.145-31.055Q28.711-36.621 36.621-36.621L36.621-36.621Q44.678-36.621 50.171-31.128Q55.664-25.635 55.664-17.578L55.664-17.578Q55.664-9.521 50.171-4.028Q44.678 1.465 36.621 1.465L36.621 1.465Q28.711 1.465 23.145-4.102Q17.578-9.668 17.578-17.578ZM90.820-57.568L90.820-149.707Q90.820-165.967 98.877-179.224Q106.934-192.480 120.410-200.391Q133.887-208.301 150.293-208.301L150.293-208.301L259.424-208.301L259.424-177.539L150.293-177.539Q138.428-177.539 130.078-169.409Q121.729-161.279 121.729-149.707L121.729-149.707L121.729-58.008Q121.729-46.875 130.078-38.892Q138.428-30.908 150.293-30.908L150.293-30.908L259.424-30.908L259.424 0L150.293 0Q133.887 0 120.410-7.764Q106.934-15.527 98.877-28.638Q90.820-41.748 90.820-57.568L90.820-57.568ZM291.650-54.785L291.650-96.973Q291.650-112.061 299.048-124.512Q306.445-136.963 318.896-144.360Q331.348-151.758 346.436-151.758L346.436-151.758L379.541-151.758Q394.629-151.758 407.080-144.360Q419.531-136.963 426.929-124.512Q434.326-112.061 434.326-96.973L434.326-96.973L434.326-54.785Q434.326-39.697 426.929-27.246Q419.531-14.795 407.080-7.397Q394.629 0 379.541 0L379.541 0L346.436 0Q331.348 0 318.896-7.397Q306.445-14.795 299.048-27.246Q291.650-39.697 291.650-54.785L291.650-54.785ZM322.559-96.680L322.559-55.078Q322.559-45.117 329.590-38.013Q336.621-30.908 346.436-30.908L346.436-30.908L379.541-30.908Q389.502-30.908 396.460-38.013Q403.418-45.117 403.418-55.078L403.418-55.078L403.418-96.680Q403.418-106.641 396.460-113.745Q389.502-120.850 379.541-120.850L379.541-120.850L346.436-120.850Q336.621-120.850 329.590-113.745Q322.559-106.641 322.559-96.680L322.559-96.680Z" fill="#f7f3e3" transform="translate(30.04800796508789, 359.4179992675781)"/></svg>