<svg xmlns="http://www.w3.org/2000/svg" viewBox="0 0 512 512"><circle cx="256" cy="256" r="256" fill="#001117"/><path d="M32.095-41.221L11.279-41.221Q11.279-54.858 19.841-63.625Q28.403-72.393 41.733-72.393L41.733-72.393Q48.091-72.393 54.705-70.854Q61.318-69.316 70.034-65.728L70.034-65.728Q76.392-63.369 80.647-62.344Q84.902-61.318 88.594-61.318L88.594-61.318Q98.848-61.318 98.848-72.495L98.848-72.495L119.458-72.495Q119.458-57.729 110.896-49.475Q102.334-41.221 87.056-41.221L87.056-41.221Q81.108-41.221 74.854-42.708Q68.599-44.194 57.524-48.193L57.524-48.193Q51.782-50.244 48.040-51.116Q44.297-51.987 41.528-51.987L41.528-51.987Q32.095-51.987 32.095-41.221L32.095-41.221ZM143.042-40.298L143.042-104.795Q143.042-116.177 148.682-125.457Q154.321-134.736 163.755-140.273Q173.188-145.811 184.673-145.811L184.673-145.811L261.064-145.811L261.064-124.277L184.673-124.277Q176.367-124.277 170.522-118.586Q164.678-112.896 164.678-104.795L164.678-104.795L164.678-40.605Q164.678-32.813 170.522-27.224Q176.367-21.636 184.673-21.636L184.673-21.636L261.064-21.636L261.064 0L184.673 0Q173.188 0 163.755-5.435Q154.321-10.869 148.682-20.046Q143.042-29.224 143.042-40.298L143.042-40.298ZM286.699 0L286.699-145.811L364.219-145.811Q375.601-145.811 384.983-140.273Q394.365-134.736 399.902-125.457Q405.439-116.177 405.439-104.795L405.439-104.795L405.439-40.605Q405.439-29.429 399.902-20.200Q394.365-10.972 384.983-5.486Q375.601 0 364.219 0L364.219 0L286.699 0ZM308.335-21.636L364.219-21.636Q372.422-21.636 378.164-27.275Q383.906-32.915 383.906-40.913L383.906-40.913L383.906-104.795Q383.906-112.896 378.164-118.586Q372.422-124.277 364.219-124.277L364.219-124.277L308.335-124.277L308.335-21.636Z" fill="#f7f3e3" transform="translate(47.640997886657715, 328.90550231933594)"/></svg>