<svg xmlns="http://www.w3.org/2000/svg" viewBox="0 0 512 512"><circle cx="256" cy="256" r="256" fill="#001117"/><path d="M17.578-57.568L17.578-149.707Q17.578-165.967 25.635-179.224Q33.691-192.480 47.168-200.391Q60.645-208.301 77.051-208.301L77.051-208.301L186.182-208.301L186.182-177.539L77.051-177.539Q65.186-177.539 56.836-169.409Q48.486-161.279 48.486-149.707L48.486-149.707L48.486-58.008Q48.486-46.875 56.836-38.892Q65.186-30.908 77.051-30.908L77.051-30.908L186.182-30.908L186.182 0L77.051 0Q60.645 0 47.168-7.764Q33.691-15.527 25.635-28.638Q17.578-41.748 17.578-57.568L17.578-57.568ZM218.408-54.492L218.408-96.973Q218.408-112.061 225.806-124.512Q233.203-136.963 245.654-144.360Q258.105-151.758 273.193-151.758L273.193-151.758L309.375-151.758L309.375-120.850L273.193-120.850Q263.379-120.850 256.348-113.745Q249.316-106.641 249.316-96.680L249.316-96.680L249.316-54.785Q249.316-44.971 256.348-37.939Q263.379-30.908 273.193-30.908L273.193-30.908L326.953-30.908L326.953-208.301L357.861-208.301L357.861-30.908Q357.861-18.164 348.779-9.082Q339.697 0 326.953 0L326.953 0L273.193 0Q258.105 0 245.654-7.397Q233.203-14.795 225.806-27.173Q218.408-39.551 218.408-54.492L218.408-54.492Z" fill="#f7f3e3" transform="translate(68.2805061340332, 360.15049743652344)"/></svg>