<svg xmlns="http://www.w3.org/2000/svg" viewBox="0 0 512 512"><circle cx="256" cy="256" r="256" fill="#001117"/><path d="M13.696-13.447L13.696-39.470L94.504-68.855L13.696-98.364L13.696-124.263L139.453-78.567L139.453-59.143L13.696-13.447ZM168.091-48.933L168.091-127.251Q168.091-141.072 174.939-152.340Q181.787-163.608 193.242-170.332Q204.697-177.056 218.643-177.056L218.643-177.056L311.404-177.056L311.404-150.908L218.643-150.908Q208.557-150.908 201.460-143.998Q194.363-137.087 194.363-127.251L194.363-127.251L194.363-49.307Q194.363-39.844 201.460-33.058Q208.557-26.272 218.643-26.272L218.643-26.272L311.404-26.272L311.404 0L218.643 0Q204.697 0 193.242-6.599Q181.787-13.198 174.939-24.342Q168.091-35.486 168.091-48.933L168.091-48.933ZM342.532 0L342.532-177.056L368.804-177.056L368.804 0L342.532 0Z" fill="#f7f3e3" transform="translate(64.75001430511475, 344.5279998779297)"/></svg>