<svg xmlns="http://www.w3.org/2000/svg" viewBox="0 0 512 512"><circle cx="256" cy="256" r="256" fill="#001117"/><path d="M21.094-69.082L21.094-179.648Q21.094-199.160 30.762-215.068Q40.430-230.977 56.602-240.469Q72.773-249.961 92.461-249.961L92.461-249.961L223.418-249.961L223.418-213.047L92.461-213.047Q78.223-213.047 68.203-203.291Q58.184-193.535 58.184-179.648L58.184-179.648L58.184-69.609Q58.184-56.250 68.203-46.670Q78.223-37.090 92.461-37.090L92.461-37.090L223.418-37.090L223.418 0L92.461 0Q72.773 0 56.602-9.316Q40.430-18.633 30.762-34.365Q21.094-50.098 21.094-69.082L21.094-69.082ZM259.629-231.680L259.629-231.680Q259.629-241.172 266.309-247.852Q272.988-254.531 282.480-254.531L282.480-254.531Q291.973-254.531 298.652-247.852Q305.332-241.172 305.332-231.680L305.332-231.680Q305.332-222.188 298.652-215.508Q291.973-208.828 282.480-208.828L282.480-208.828Q272.988-208.828 266.309-215.508Q259.629-222.188 259.629-231.680ZM263.848 0L263.848-182.109L301.113-182.109L301.113 0L263.848 0Z" fill="#f7f3e3" transform="translate(92.78699684143066, 383.2655029296875)"/></svg>