<svg xmlns="http://www.w3.org/2000/svg" viewBox="0 0 512 512"><circle cx="256" cy="256" r="256" fill="#001117"/><path d="M38.972-50.054L13.696-50.054Q13.696-66.614 24.093-77.260Q34.490-87.905 50.676-87.905L50.676-87.905Q58.396-87.905 66.427-86.038Q74.458-84.170 85.042-79.812L85.042-79.812Q92.761-76.948 97.928-75.703Q103.096-74.458 107.578-74.458L107.578-74.458Q120.029-74.458 120.029-88.030L120.029-88.030L145.056-88.030Q145.056-70.100 134.659-60.077Q124.263-50.054 105.710-50.054L105.710-50.054Q98.489-50.054 90.894-51.859Q83.298-53.665 69.851-58.521L69.851-58.521Q62.878-61.011 58.334-62.069Q53.789-63.127 50.427-63.127L50.427-63.127Q38.972-63.127 38.972-50.054L38.972-50.054ZM173.694-48.933L173.694-127.251Q173.694-141.072 180.542-152.340Q187.390-163.608 198.845-170.332Q210.300-177.056 224.246-177.056L224.246-177.056L317.007-177.056L317.007-150.908L224.246-150.908Q214.160-150.908 207.063-143.998Q199.966-137.087 199.966-127.251L199.966-127.251L199.966-49.307Q199.966-39.844 207.063-33.058Q214.160-26.272 224.246-26.272L224.246-26.272L317.007-26.272L317.007 0L224.246 0Q210.300 0 198.845-6.599Q187.390-13.198 180.542-24.342Q173.694-35.486 173.694-48.933L173.694-48.933ZM348.135 0L348.135-177.056L374.407-177.056L374.407 0L348.135 0Z" fill="#f7f3e3" transform="translate(61.948500633239746, 344.5279998779297)"/></svg>