<svg xmlns="http://www.w3.org/2000/svg" viewBox="0 0 512 512"><circle cx="256" cy="256" r="256" fill="#001117"/><path d="M9.668-41.748L9.668-55.459L98.438-87.715L98.438-69.434L41.396-48.604L98.438-27.861L98.438-9.492L9.668-41.748ZM118.652-34.541L118.652-89.824Q118.652-99.580 123.486-107.534Q128.320-115.488 136.406-120.234Q144.492-124.980 154.336-124.980L154.336-124.980L219.814-124.980L219.814-106.523L154.336-106.523Q147.217-106.523 142.207-101.646Q137.197-96.768 137.197-89.824L137.197-89.824L137.197-34.805Q137.197-28.125 142.207-23.335Q147.217-18.545 154.336-18.545L154.336-18.545L219.814-18.545L219.814 0L154.336 0Q144.492 0 136.406-4.658Q128.320-9.316 123.486-17.183Q118.652-25.049 118.652-34.541L118.652-34.541ZM240.029-56.602L246.445-67.588L261.650-58.887L261.650-76.553L274.570-76.553L274.570-58.887L290.127-67.676L296.191-56.514L280.986-47.637L296.367-38.760L289.951-27.773L274.570-36.563L274.570-18.721L261.650-18.721L261.650-36.475L246.445-27.598L240.117-38.848L255.322-47.813L240.029-56.602ZM319.219 0L319.219-124.980L385.664-124.980Q395.420-124.980 403.462-120.234Q411.504-115.488 416.250-107.534Q420.996-99.580 420.996-89.824L420.996-89.824L420.996-34.805Q420.996-25.225 416.250-17.314Q411.504-9.404 403.462-4.702Q395.420 0 385.664 0L385.664 0L319.219 0ZM337.764-18.545L385.664-18.545Q392.695-18.545 397.617-23.379Q402.539-28.213 402.539-35.068L402.539-35.068L402.539-89.824Q402.539-96.768 397.617-101.646Q392.695-106.523 385.664-106.523L385.664-106.523L337.764-106.523L337.764-18.545Z" fill="#f7f3e3" transform="translate(40.66799831390381, 318.4900016784668)"/></svg>