<svg xmlns="http://www.w3.org/2000/svg" viewBox="0 0 512 512"><circle cx="256" cy="256" r="256" fill="#001117"/><path d="M36.680-47.109L12.891-47.109Q12.891-62.695 22.676-72.715Q32.461-82.734 47.695-82.734L47.695-82.734Q54.961-82.734 62.520-80.977Q70.078-79.219 80.039-75.117L80.039-75.117Q87.305-72.422 92.168-71.250Q97.031-70.078 101.250-70.078L101.250-70.078Q112.969-70.078 112.969-82.852L112.969-82.852L136.523-82.852Q136.523-65.977 126.738-56.543Q116.953-47.109 99.492-47.109L99.492-47.109Q92.695-47.109 85.547-48.809Q78.398-50.508 65.742-55.078L65.742-55.078Q59.180-57.422 54.902-58.418Q50.625-59.414 47.461-59.414L47.461-59.414Q36.680-59.414 36.680-47.109L36.680-47.109ZM163.477-46.055L163.477-119.766Q163.477-132.773 169.922-143.379Q176.367-153.984 187.148-160.313Q197.930-166.641 211.055-166.641L211.055-166.641L298.359-166.641L298.359-142.031L211.055-142.031Q201.563-142.031 194.883-135.527Q188.203-129.023 188.203-119.766L188.203-119.766L188.203-46.406Q188.203-37.500 194.883-31.113Q201.563-24.727 211.055-24.727L211.055-24.727L298.359-24.727L298.359 0L211.055 0Q197.930 0 187.148-6.211Q176.367-12.422 169.922-22.910Q163.477-33.398 163.477-46.055L163.477-46.055ZM322.500-154.453L322.500-154.453Q322.500-160.781 326.953-165.234Q331.406-169.688 337.734-169.688L337.734-169.688Q344.063-169.688 348.516-165.234Q352.969-160.781 352.969-154.453L352.969-154.453Q352.969-148.125 348.516-143.672Q344.063-139.219 337.734-139.219L337.734-139.219Q331.406-139.219 326.953-143.672Q322.500-148.125 322.500-154.453ZM325.313 0L325.313-121.406L350.156-121.406L350.156 0L325.313 0Z" fill="#f7f3e3" transform="translate(73.0699987411499, 340.84400177001953)"/></svg>