<svg xmlns="http://www.w3.org/2000/svg" viewBox="0 0 512 512"><circle cx="256" cy="256" r="256" fill="#001117"/><path d="M14.063-46.055L14.063-119.766Q14.063-132.773 20.508-143.379Q26.953-153.984 37.734-160.313Q48.516-166.641 61.641-166.641L61.641-166.641L148.945-166.641L148.945-142.031L61.641-142.031Q52.148-142.031 45.469-135.527Q38.789-129.023 38.789-119.766L38.789-119.766L38.789-46.406Q38.789-37.500 45.469-31.113Q52.148-24.727 61.641-24.727L61.641-24.727L148.945-24.727L148.945 0L61.641 0Q48.516 0 37.734-6.211Q26.953-12.422 20.508-22.910Q14.063-33.398 14.063-46.055L14.063-46.055ZM175.898-75.469L184.453-90.117L204.727-78.516L204.727-102.070L221.953-102.070L221.953-78.516L242.695-90.234L250.781-75.352L230.508-63.516L251.016-51.680L242.461-37.031L221.953-48.750L221.953-24.961L204.727-24.961L204.727-48.633L184.453-36.797L176.016-51.797L196.289-63.750L175.898-75.469ZM281.484 0L281.484-166.641L370.078-166.641Q383.086-166.641 393.809-160.313Q404.531-153.984 410.859-143.379Q417.188-132.773 417.188-119.766L417.188-119.766L417.188-46.406Q417.188-33.633 410.859-23.086Q404.531-12.539 393.809-6.270Q383.086 0 370.078 0L370.078 0L281.484 0ZM306.211-24.727L370.078-24.727Q379.453-24.727 386.016-31.172Q392.578-37.617 392.578-46.758L392.578-46.758L392.578-119.766Q392.578-129.023 386.016-135.527Q379.453-142.031 370.078-142.031L370.078-142.031L306.211-142.031L306.211-24.727Z" fill="#f7f3e3" transform="translate(40.3745002746582, 339.3205032348633)"/></svg>