<svg xmlns="http://www.w3.org/2000/svg" viewBox="0 0 512 512"><circle cx="256" cy="256" r="256" fill="#001117"/><path d="M27.510-35.332L9.668-35.332Q9.668-47.021 17.007-54.536Q24.346-62.051 35.771-62.051L35.771-62.051Q41.221-62.051 46.890-60.732Q52.559-59.414 60.029-56.338L60.029-56.338Q65.479-54.316 69.126-53.438Q72.773-52.559 75.938-52.559L75.938-52.559Q84.727-52.559 84.727-62.139L84.727-62.139L102.393-62.139Q102.393-49.482 95.054-42.407Q87.715-35.332 74.619-35.332L74.619-35.332Q69.521-35.332 64.160-36.606Q58.799-37.881 49.307-41.309L49.307-41.309Q44.385-43.066 41.177-43.813Q37.969-44.561 35.596-44.561L35.596-44.561Q27.510-44.561 27.510-35.332L27.510-35.332ZM122.607-34.541L122.607-89.824Q122.607-99.580 127.441-107.534Q132.275-115.488 140.361-120.234Q148.447-124.980 158.291-124.980L158.291-124.980L223.770-124.980L223.770-106.523L158.291-106.523Q151.172-106.523 146.162-101.646Q141.152-96.768 141.152-89.824L141.152-89.824L141.152-34.805Q141.152-28.125 146.162-23.335Q151.172-18.545 158.291-18.545L158.291-18.545L223.770-18.545L223.770 0L158.291 0Q148.447 0 140.361-4.658Q132.275-9.316 127.441-17.183Q122.607-25.049 122.607-34.541L122.607-34.541ZM243.984-56.602L250.400-67.588L265.605-58.887L265.605-76.553L278.525-76.553L278.525-58.887L294.082-67.676L300.146-56.514L284.941-47.637L300.322-38.760L293.906-27.773L278.525-36.563L278.525-18.721L265.605-18.721L265.605-36.475L250.400-27.598L244.072-38.848L259.277-47.813L243.984-56.602ZM320.537-32.695L320.537-58.184Q320.537-67.236 324.976-74.707Q329.414-82.178 336.885-86.616Q344.355-91.055 353.408-91.055L353.408-91.055L375.117-91.055L375.117-72.510L353.408-72.510Q347.520-72.510 343.301-68.247Q339.082-63.984 339.082-58.008L339.082-58.008L339.082-32.871Q339.082-26.982 343.301-22.764Q347.520-18.545 353.408-18.545L353.408-18.545L385.664-18.545L385.664-124.980L404.209-124.980L404.209-18.545Q404.209-10.898 398.760-5.449Q393.311 0 385.664 0L385.664 0L353.408 0Q344.355 0 336.885-4.438Q329.414-8.877 324.976-16.304Q320.537-23.730 320.537-32.695L320.537-32.695Z" fill="#f7f3e3" transform="translate(49.06149196624756, 318.4900016784668)"/></svg>