<svg xmlns="http://www.w3.org/2000/svg" viewBox="0 0 512 512"><circle cx="256" cy="256" r="256" fill="#001117"/><path d="M34.387-44.165L12.085-44.165Q12.085-58.777 21.259-68.170Q30.432-77.563 44.714-77.563L44.714-77.563Q51.526-77.563 58.612-75.916Q65.698-74.268 75.037-70.422L75.037-70.422Q81.848-67.896 86.407-66.797Q90.967-65.698 94.922-65.698L94.922-65.698Q105.908-65.698 105.908-77.673L105.908-77.673L127.991-77.673Q127.991-61.853 118.817-53.009Q109.644-44.165 93.274-44.165L93.274-44.165Q86.902-44.165 80.200-45.758Q73.499-47.351 61.633-51.636L61.633-51.636Q55.481-53.833 51.471-54.767Q47.461-55.701 44.495-55.701L44.495-55.701Q34.387-55.701 34.387-44.165L34.387-44.165ZM153.259-43.176L153.259-112.280Q153.259-124.475 159.302-134.418Q165.344-144.360 175.452-150.293Q185.559-156.226 197.864-156.226L197.864-156.226L279.712-156.226L279.712-133.154L197.864-133.154Q188.965-133.154 182.703-127.057Q176.440-120.959 176.440-112.280L176.440-112.280L176.440-43.506Q176.440-35.156 182.703-29.169Q188.965-23.181 197.864-23.181L197.864-23.181L279.712-23.181L279.712 0L197.864 0Q185.559 0 175.452-5.823Q165.344-11.646 159.302-21.478Q153.259-31.311 153.259-43.176L153.259-43.176ZM303.882-40.869L303.882-72.729Q303.882-84.045 309.430-93.384Q314.978-102.722 324.316-108.270Q333.655-113.818 344.971-113.818L344.971-113.818L372.107-113.818L372.107-90.637L344.971-90.637Q337.610-90.637 332.336-85.309Q327.063-79.980 327.063-72.510L327.063-72.510L327.063-41.089Q327.063-33.728 332.336-28.455Q337.610-23.181 344.971-23.181L344.971-23.181L385.291-23.181L385.291-156.226L408.472-156.226L408.472-23.181Q408.472-13.623 401.660-6.812Q394.849 0 385.291 0L385.291 0L344.971 0Q333.655 0 324.316-5.548Q314.978-11.096 309.430-20.380Q303.882-29.663 303.882-40.869L303.882-40.869Z" fill="#f7f3e3" transform="translate(45.721503257751465, 334.11299896240234)"/></svg>