<svg xmlns="http://www.w3.org/2000/svg" viewBox="0 0 512 512"><circle cx="256" cy="256" r="256" fill="#001117"/><path d="M27.510-35.332L9.668-35.332Q9.668-47.021 17.007-54.536Q24.346-62.051 35.771-62.051L35.771-62.051Q41.221-62.051 46.890-60.732Q52.559-59.414 60.029-56.338L60.029-56.338Q65.479-54.316 69.126-53.438Q72.773-52.559 75.938-52.559L75.938-52.559Q84.727-52.559 84.727-62.139L84.727-62.139L102.393-62.139Q102.393-49.482 95.054-42.407Q87.715-35.332 74.619-35.332L74.619-35.332Q69.521-35.332 64.160-36.606Q58.799-37.881 49.307-41.309L49.307-41.309Q44.385-43.066 41.177-43.813Q37.969-44.561 35.596-44.561L35.596-44.561Q27.510-44.561 27.510-35.332L27.510-35.332ZM122.607-34.541L122.607-89.824Q122.607-99.580 127.441-107.534Q132.275-115.488 140.361-120.234Q148.447-124.980 158.291-124.980L158.291-124.980L223.770-124.980L223.770-106.523L158.291-106.523Q151.172-106.523 146.162-101.646Q141.152-96.768 141.152-89.824L141.152-89.824L141.152-34.805Q141.152-28.125 146.162-23.335Q151.172-18.545 158.291-18.545L158.291-18.545L223.770-18.545L223.770 0L158.291 0Q148.447 0 140.361-4.658Q132.275-9.316 127.441-17.183Q122.607-25.049 122.607-34.541L122.607-34.541ZM243.984-56.602L250.400-67.588L265.605-58.887L265.605-76.553L278.525-76.553L278.525-58.887L294.082-67.676L300.146-56.514L284.941-47.637L300.322-38.760L293.906-27.773L278.525-36.563L278.525-18.721L265.605-18.721L265.605-36.475L250.400-27.598L244.072-38.848L259.277-47.813L243.984-56.602ZM323.174 0L323.174-124.980L389.619-124.980Q399.375-124.980 407.417-120.234Q415.459-115.488 420.205-107.534Q424.951-99.580 424.951-89.824L424.951-89.824L424.951-34.805Q424.951-25.225 420.205-17.314Q415.459-9.404 407.417-4.702Q399.375 0 389.619 0L389.619 0L323.174 0ZM341.719-18.545L389.619-18.545Q396.650-18.545 401.572-23.379Q406.494-28.213 406.494-35.068L406.494-35.068L406.494-89.824Q406.494-96.768 401.572-101.646Q396.650-106.523 389.619-106.523L389.619-106.523L341.719-106.523L341.719-18.545Z" fill="#f7f3e3" transform="translate(38.690505027770996, 318.4900016784668)"/></svg>