<svg xmlns="http://www.w3.org/2000/svg" viewBox="0 0 512 512"><circle cx="256" cy="256" r="256" fill="#001117"/><path d="M17.578-57.568L17.578-149.707Q17.578-165.967 25.635-179.224Q33.691-192.480 47.168-200.391Q60.645-208.301 77.051-208.301L77.051-208.301L186.182-208.301L186.182-177.539L77.051-177.539Q65.186-177.539 56.836-169.409Q48.486-161.279 48.486-149.707L48.486-149.707L48.486-58.008Q48.486-46.875 56.836-38.892Q65.186-30.908 77.051-30.908L77.051-30.908L186.182-30.908L186.182 0L77.051 0Q60.645 0 47.168-7.764Q33.691-15.527 25.635-28.638Q17.578-41.748 17.578-57.568L17.578-57.568ZM222.803 0L222.803-208.301L333.545-208.301Q349.805-208.301 363.208-200.391Q376.611-192.480 384.521-179.224Q392.432-165.967 392.432-149.707L392.432-149.707L392.432-58.008Q392.432-42.041 384.521-28.857Q376.611-15.674 363.208-7.837Q349.805 0 333.545 0L333.545 0L222.803 0ZM253.711-30.908L333.545-30.908Q345.264-30.908 353.467-38.965Q361.670-47.021 361.670-58.447L361.670-58.447L361.670-149.707Q361.670-161.279 353.467-169.409Q345.264-177.539 333.545-177.539L333.545-177.539L253.711-177.539L253.711-30.908Z" fill="#f7f3e3" transform="translate(50.994998931884766, 360.15049743652344)"/></svg>