<svg xmlns="http://www.w3.org/2000/svg" viewBox="0 0 512 512"><circle cx="256" cy="256" r="256" fill="#001117"/><path d="M14.063-46.055L14.063-119.766Q14.063-132.773 20.508-143.379Q26.953-153.984 37.734-160.313Q48.516-166.641 61.641-166.641L61.641-166.641L148.945-166.641L148.945-142.031L61.641-142.031Q52.148-142.031 45.469-135.527Q38.789-129.023 38.789-119.766L38.789-119.766L38.789-46.406Q38.789-37.500 45.469-31.113Q52.148-24.727 61.641-24.727L61.641-24.727L148.945-24.727L148.945 0L61.641 0Q48.516 0 37.734-6.211Q26.953-12.422 20.508-22.910Q14.063-33.398 14.063-46.055L14.063-46.055ZM175.898-75.469L184.453-90.117L204.727-78.516L204.727-102.070L221.953-102.070L221.953-78.516L242.695-90.234L250.781-75.352L230.508-63.516L251.016-51.680L242.461-37.031L221.953-48.750L221.953-24.961L204.727-24.961L204.727-48.633L184.453-36.797L176.016-51.797L196.289-63.750L175.898-75.469ZM277.969-43.594L277.969-77.578Q277.969-89.648 283.887-99.609Q289.805-109.570 299.766-115.488Q309.727-121.406 321.797-121.406L321.797-121.406L350.742-121.406L350.742-96.680L321.797-96.680Q313.945-96.680 308.320-90.996Q302.695-85.313 302.695-77.344L302.695-77.344L302.695-43.828Q302.695-35.977 308.320-30.352Q313.945-24.727 321.797-24.727L321.797-24.727L364.805-24.727L364.805-166.641L389.531-166.641L389.531-24.727Q389.531-14.531 382.266-7.266Q375 0 364.805 0L364.805 0L321.797 0Q309.727 0 299.766-5.918Q289.805-11.836 283.887-21.738Q277.969-31.641 277.969-43.594L277.969-43.594Z" fill="#f7f3e3" transform="translate(54.2029914855957, 339.3205032348633)"/></svg>