<svg xmlns="http://www.w3.org/2000/svg" viewBox="0 0 512 512"><circle cx="256" cy="256" r="256" fill="#001117"/><path d="M36.680-47.109L12.891-47.109Q12.891-62.695 22.676-72.715Q32.461-82.734 47.695-82.734L47.695-82.734Q54.961-82.734 62.520-80.977Q70.078-79.219 80.039-75.117L80.039-75.117Q87.305-72.422 92.168-71.250Q97.031-70.078 101.250-70.078L101.250-70.078Q112.969-70.078 112.969-82.852L112.969-82.852L136.523-82.852Q136.523-65.977 126.738-56.543Q116.953-47.109 99.492-47.109L99.492-47.109Q92.695-47.109 85.547-48.809Q78.398-50.508 65.742-55.078L65.742-55.078Q59.180-57.422 54.902-58.418Q50.625-59.414 47.461-59.414L47.461-59.414Q36.680-59.414 36.680-47.109L36.680-47.109ZM163.477-46.055L163.477-119.766Q163.477-132.773 169.922-143.379Q176.367-153.984 187.148-160.313Q197.930-166.641 211.055-166.641L211.055-166.641L298.359-166.641L298.359-142.031L211.055-142.031Q201.563-142.031 194.883-135.527Q188.203-129.023 188.203-119.766L188.203-119.766L188.203-46.406Q188.203-37.500 194.883-31.113Q201.563-24.727 211.055-24.727L211.055-24.727L298.359-24.727L298.359 0L211.055 0Q197.930 0 187.148-6.211Q176.367-12.422 169.922-22.910Q163.477-33.398 163.477-46.055L163.477-46.055ZM324.141-43.828L324.141-77.578Q324.141-89.648 330.059-99.609Q335.977-109.570 345.938-115.488Q355.898-121.406 367.969-121.406L367.969-121.406L394.453-121.406Q406.523-121.406 416.484-115.488Q426.445-109.570 432.363-99.609Q438.281-89.648 438.281-77.578L438.281-77.578L438.281-43.828Q438.281-31.758 432.363-21.797Q426.445-11.836 416.484-5.918Q406.523 0 394.453 0L394.453 0L367.969 0Q355.898 0 345.938-5.918Q335.977-11.836 330.059-21.797Q324.141-31.758 324.141-43.828L324.141-43.828ZM348.867-77.344L348.867-44.063Q348.867-36.094 354.492-30.410Q360.117-24.727 367.969-24.727L367.969-24.727L394.453-24.727Q402.422-24.727 407.988-30.410Q413.555-36.094 413.555-44.063L413.555-44.063L413.555-77.344Q413.555-85.313 407.988-90.996Q402.422-96.680 394.453-96.680L394.453-96.680L367.969-96.680Q360.117-96.680 354.492-90.996Q348.867-85.313 348.867-77.344L348.867-77.344Z" fill="#f7f3e3" transform="translate(30.413992881774902, 339.3205032348633)"/></svg>