<svg xmlns="http://www.w3.org/2000/svg" viewBox="0 0 512 512"><circle cx="256" cy="256" r="256" fill="#000117"/><path d="M17.139-99.214L17.139-139.966Q28.755-139.966 34.087-141.299Q39.419-142.632 40.942-147.393Q42.466-152.153 42.466-162.437L42.466-162.437L42.466-240.132Q42.466-262.603 45.894-276.504Q49.321-290.405 58.557-297.832Q67.793-305.259 85.122-308.020Q102.451-310.781 130.444-310.781L130.444-310.781L130.444-270.791Q107.593-270.791 97.595-269.268Q87.598-267.744 85.122-261.270Q82.646-254.795 82.646-240.132L82.646-240.132L82.646-162.437Q82.646-137.300 69.888-119.780L69.888-119.780Q82.646-103.213 82.646-77.314L82.646-77.314L82.646 7.236Q82.646 18.853 85.979 24.661Q89.312 30.469 99.595 32.373Q109.878 34.277 130.444 34.277L130.444 34.277L130.444 74.268Q102.832 74.268 85.503 71.602Q68.174 68.936 58.843 61.794Q49.512 54.653 45.989 41.514Q42.466 28.374 42.466 7.236L42.466 7.236L42.466-77.314Q42.466-90.264 37.229-94.739Q31.992-99.214 17.139-99.214L17.139-99.214Z" fill="#f7f3e3" transform="translate(182.20849990844727, 374.2565002441406)"/></svg>