<svg xmlns="http://www.w3.org/2000/svg" viewBox="0 0 512 512"><circle cx="256" cy="256" r="256" fill="#001117"/><path d="M11.279-11.074L11.279-32.505L77.827-56.704L11.279-81.006L11.279-102.334L114.844-64.702L114.844-48.706L11.279-11.074ZM140.479 0L140.479-145.811L217.998-145.811Q229.380-145.811 238.762-140.273Q248.145-134.736 253.682-125.457Q259.219-116.177 259.219-104.795L259.219-104.795L259.219-40.605Q259.219-29.429 253.682-20.200Q248.145-10.972 238.762-5.486Q229.380 0 217.998 0L217.998 0L140.479 0ZM162.114-21.636L217.998-21.636Q226.201-21.636 231.943-27.275Q237.686-32.915 237.686-40.913L237.686-40.913L237.686-104.795Q237.686-112.896 231.943-118.586Q226.201-124.277 217.998-124.277L217.998-124.277L162.114-124.277L162.114-21.636ZM283.828 0L283.828-84.697Q283.828-93.618 290.237-99.924Q296.646-106.230 305.669-106.230L305.669-106.230L343.096-106.230Q353.657-106.230 362.373-101.052Q371.089-95.874 376.267-87.158Q381.445-78.442 381.445-67.881L381.445-67.881L381.445 0L359.810 0L359.810-67.573Q359.810-74.751 354.939-79.775Q350.068-84.800 343.096-84.800L343.096-84.800L305.464-84.800L305.464 0L283.828 0Z" fill="#f7f3e3" transform="translate(59.6379919052124, 328.90550231933594)"/></svg>