<svg xmlns="http://www.w3.org/2000/svg" viewBox="0 0 512 512"><circle cx="256" cy="256" r="256" fill="#001117"/><path d="M18.457 0L18.457-187.471L118.125-187.471Q132.759-187.471 144.822-180.352Q156.885-173.232 164.004-161.301Q171.123-149.370 171.123-134.736L171.123-134.736L171.123-52.207Q171.123-37.837 164.004-25.972Q156.885-14.106 144.822-7.053Q132.759 0 118.125 0L118.125 0L18.457 0ZM46.274-27.817L118.125-27.817Q128.672-27.817 136.055-35.068Q143.438-42.319 143.438-52.603L143.438-52.603L143.438-134.736Q143.438-145.151 136.055-152.468Q128.672-159.785 118.125-159.785L118.125-159.785L46.274-159.785L46.274-27.817ZM205.400 0L205.400-187.471L305.068-187.471Q319.702-187.471 331.765-180.352Q343.828-173.232 350.947-161.301Q358.066-149.370 358.066-134.736L358.066-134.736L358.066-52.207Q358.066-37.837 350.947-25.972Q343.828-14.106 331.765-7.053Q319.702 0 305.068 0L305.068 0L205.400 0ZM233.218-27.817L305.068-27.817Q315.615-27.817 322.998-35.068Q330.381-42.319 330.381-52.603L330.381-52.603L330.381-134.736Q330.381-145.151 322.998-152.468Q315.615-159.785 305.068-159.785L305.068-159.785L233.218-159.785L233.218-27.817Z" fill="#f7f3e3" transform="translate(67.73849487304688, 349.7354965209961)"/></svg>