<svg xmlns="http://www.w3.org/2000/svg" viewBox="0 0 512 512"><circle cx="256" cy="256" r="256" fill="#001117"/><path d="M11.279-48.706L11.279-64.702L114.844-102.334L114.844-81.006L48.296-56.704L114.844-32.505L114.844-11.074L11.279-48.706ZM140.479 0L140.479-145.811L217.998-145.811Q229.380-145.811 238.762-140.273Q248.145-134.736 253.682-125.457Q259.219-116.177 259.219-104.795L259.219-104.795L259.219-40.605Q259.219-29.429 253.682-20.200Q248.145-10.972 238.762-5.486Q229.380 0 217.998 0L217.998 0L140.479 0ZM162.114-21.636L217.998-21.636Q226.201-21.636 231.943-27.275Q237.686-32.915 237.686-40.913L237.686-40.913L237.686-104.795Q237.686-112.896 231.943-118.586Q226.201-124.277 217.998-124.277L217.998-124.277L162.114-124.277L162.114-21.636ZM285.879 0L285.879-145.811L363.398-145.811Q374.780-145.811 384.163-140.273Q393.545-134.736 399.082-125.457Q404.619-116.177 404.619-104.795L404.619-104.795L404.619-40.605Q404.619-29.429 399.082-20.200Q393.545-10.972 384.163-5.486Q374.780 0 363.398 0L363.398 0L285.879 0ZM307.515-21.636L363.398-21.636Q371.602-21.636 377.344-27.275Q383.086-32.915 383.086-40.913L383.086-40.913L383.086-104.795Q383.086-112.896 377.344-118.586Q371.602-124.277 363.398-124.277L363.398-124.277L307.515-124.277L307.515-21.636Z" fill="#f7f3e3" transform="translate(48.05100154876709, 328.90550231933594)"/></svg>