<svg xmlns="http://www.w3.org/2000/svg" viewBox="0 0 512 512"><circle cx="256" cy="256" r="256" fill="#001117"/><path d="M10.547-75.586L10.547-100.283Q10.547-107.139 13.887-112.720Q17.227-118.301 22.852-121.641Q28.477-124.980 35.332-124.980L35.332-124.980L44.824-124.980Q51.680-124.980 57.305-121.641Q62.930-118.301 66.270-112.720Q69.609-107.139 69.609-100.283L69.609-100.283L69.609-75.586Q69.609-68.818 66.270-63.193Q62.930-57.568 57.305-54.229Q51.680-50.889 44.824-50.889L44.824-50.889L35.332-50.889Q28.477-50.889 22.852-54.229Q17.227-57.568 13.887-63.193Q10.547-68.818 10.547-75.586L10.547-75.586ZM38.496 0L126.035-124.980L146.250-124.980L58.711 0L38.496 0ZM27.158-100.371L27.158-75.498Q27.158-72.158 29.575-69.785Q31.992-67.412 35.332-67.412L35.332-67.412L44.824-67.412Q48.252-67.412 50.669-69.785Q53.086-72.158 53.086-75.498L53.086-75.498L53.086-100.371Q53.086-103.711 50.669-106.084Q48.252-108.457 44.824-108.457L44.824-108.457L35.332-108.457Q31.992-108.457 29.575-106.084Q27.158-103.711 27.158-100.371L27.158-100.371ZM115.225-24.697L115.225-49.395Q115.225-56.250 118.564-61.831Q121.904-67.412 127.529-70.752Q133.154-74.092 140.010-74.092L140.010-74.092L149.502-74.092Q156.357-74.092 161.982-70.752Q167.607-67.412 170.947-61.831Q174.287-56.250 174.287-49.395L174.287-49.395L174.287-24.697Q174.287-17.930 170.947-12.305Q167.607-6.680 161.982-3.340Q156.357 0 149.502 0L149.502 0L140.010 0Q133.154 0 127.529-3.340Q121.904-6.680 118.564-12.305Q115.225-17.930 115.225-24.697L115.225-24.697ZM131.836-49.482L131.836-24.609Q131.836-21.270 134.253-18.896Q136.670-16.523 140.010-16.523L140.010-16.523L149.502-16.523Q152.930-16.523 155.347-18.896Q157.764-21.270 157.764-24.609L157.764-24.609L157.764-49.482Q157.764-52.822 155.347-55.195Q152.930-57.568 149.502-57.568L149.502-57.568L140.010-57.568Q136.670-57.568 134.253-55.195Q131.836-52.822 131.836-49.482L131.836-49.482ZM197.139 0L197.139-124.980L263.584-124.980Q273.340-124.980 281.382-120.234Q289.424-115.488 294.170-107.534Q298.916-99.580 298.916-89.824L298.916-89.824L298.916-34.805Q298.916-25.225 294.170-17.314Q289.424-9.404 281.382-4.702Q273.340 0 263.584 0L263.584 0L197.139 0ZM215.684-18.545L263.584-18.545Q270.615-18.545 275.537-23.379Q280.459-28.213 280.459-35.068L280.459-35.068L280.459-89.824Q280.459-96.768 275.537-101.646Q270.615-106.523 263.584-106.523L263.584-106.523L215.684-106.523L215.684-18.545ZM320.010 0L320.010-72.598Q320.010-80.244 325.503-85.649Q330.996-91.055 338.730-91.055L338.730-91.055L370.811-91.055Q379.863-91.055 387.334-86.616Q394.805-82.178 399.243-74.707Q403.682-67.236 403.682-58.184L403.682-58.184L403.682 0L385.137 0L385.137-57.920Q385.137-64.072 380.962-68.379Q376.787-72.686 370.811-72.686L370.811-72.686L338.555-72.686L338.555 0L320.010 0Z" fill="#f7f3e3" transform="translate(48.88549518585205, 318.4900016784668)"/></svg>