<svg xmlns="http://www.w3.org/2000/svg" viewBox="0 0 512 512"><circle cx="256" cy="256" r="256" fill="#001117"/><path d="M34.387-44.165L12.085-44.165Q12.085-58.777 21.259-68.170Q30.432-77.563 44.714-77.563L44.714-77.563Q51.526-77.563 58.612-75.916Q65.698-74.268 75.037-70.422L75.037-70.422Q81.848-67.896 86.407-66.797Q90.967-65.698 94.922-65.698L94.922-65.698Q105.908-65.698 105.908-77.673L105.908-77.673L127.991-77.673Q127.991-61.853 118.817-53.009Q109.644-44.165 93.274-44.165L93.274-44.165Q86.902-44.165 80.200-45.758Q73.499-47.351 61.633-51.636L61.633-51.636Q55.481-53.833 51.471-54.767Q47.461-55.701 44.495-55.701L44.495-55.701Q34.387-55.701 34.387-44.165L34.387-44.165ZM155.457 0L155.457-156.226L238.513-156.226Q250.708-156.226 260.760-150.293Q270.813-144.360 276.746-134.418Q282.678-124.475 282.678-112.280L282.678-112.280L282.678-43.506Q282.678-31.531 276.746-21.643Q270.813-11.755 260.760-5.878Q250.708 0 238.513 0L238.513 0L155.457 0ZM178.638-23.181L238.513-23.181Q247.302-23.181 253.455-29.224Q259.607-35.266 259.607-43.835L259.607-43.835L259.607-112.280Q259.607-120.959 253.455-127.057Q247.302-133.154 238.513-133.154L238.513-133.154L178.638-133.154L178.638-23.181ZM307.947-40.869L307.947-72.729Q307.947-84.045 313.495-93.384Q319.043-102.722 328.381-108.270Q337.720-113.818 349.036-113.818L349.036-113.818L376.172-113.818L376.172-90.637L349.036-90.637Q341.675-90.637 336.401-85.309Q331.128-79.980 331.128-72.510L331.128-72.510L331.128-41.089Q331.128-33.728 336.401-28.455Q341.675-23.181 349.036-23.181L349.036-23.181L389.355-23.181L389.355-156.226L412.537-156.226L412.537-23.181Q412.537-13.623 405.725-6.812Q398.914 0 389.355 0L389.355 0L349.036 0Q337.720 0 328.381-5.548Q319.043-11.096 313.495-20.380Q307.947-29.663 307.947-40.869L307.947-40.869Z" fill="#f7f3e3" transform="translate(43.68900203704834, 334.11299896240234)"/></svg>