<svg xmlns="http://www.w3.org/2000/svg" viewBox="0 0 512 512"><circle cx="256" cy="256" r="256" fill="#001117"/><path d="M20.508 0L20.508-208.301L131.250-208.301Q147.510-208.301 160.913-200.391Q174.316-192.480 182.227-179.224Q190.137-165.967 190.137-149.707L190.137-149.707L190.137-58.008Q190.137-42.041 182.227-28.857Q174.316-15.674 160.913-7.837Q147.510 0 131.250 0L131.250 0L20.508 0ZM51.416-30.908L131.250-30.908Q142.969-30.908 151.172-38.965Q159.375-47.021 159.375-58.447L159.375-58.447L159.375-149.707Q159.375-161.279 151.172-169.409Q142.969-177.539 131.250-177.539L131.250-177.539L51.416-177.539L51.416-30.908ZM225.293 0L225.293-120.996Q225.293-133.740 234.448-142.749Q243.604-151.758 256.494-151.758L256.494-151.758L309.961-151.758Q325.049-151.758 337.500-144.360Q349.951-136.963 357.349-124.512Q364.746-112.061 364.746-96.973L364.746-96.973L364.746 0L333.838 0L333.838-96.533Q333.838-106.787 326.880-113.965Q319.922-121.143 309.961-121.143L309.961-121.143L256.201-121.143L256.201 0L225.293 0Z" fill="#f7f3e3" transform="translate(63.37299728393555, 360.15049743652344)"/></svg>