<svg xmlns="http://www.w3.org/2000/svg" viewBox="0 0 512 512"><circle cx="256" cy="256" r="256" fill="#001117"/><path d="M17.432 0L17.432-177.056L111.563-177.056Q125.383-177.056 136.776-170.332Q148.169-163.608 154.893-152.340Q161.616-141.072 161.616-127.251L161.616-127.251L161.616-49.307Q161.616-35.735 154.893-24.529Q148.169-13.323 136.776-6.661Q125.383 0 111.563 0L111.563 0L17.432 0ZM43.704-26.272L111.563-26.272Q121.523-26.272 128.496-33.120Q135.469-39.968 135.469-49.680L135.469-49.680L135.469-127.251Q135.469-137.087 128.496-143.998Q121.523-150.908 111.563-150.908L111.563-150.908L43.704-150.908L43.704-26.272ZM191.499 0L191.499-102.847Q191.499-113.679 199.281-121.337Q207.063-128.994 218.020-128.994L218.020-128.994L263.467-128.994Q276.292-128.994 286.875-122.706Q297.458-116.418 303.746-105.835Q310.034-95.251 310.034-82.427L310.034-82.427L310.034 0L283.762 0L283.762-82.053Q283.762-90.769 277.848-96.870Q271.934-102.971 263.467-102.971L263.467-102.971L217.771-102.971L217.771 0L191.499 0ZM342.407 0L342.407-177.056L368.679-177.056L368.679 0L342.407 0Z" fill="#f7f3e3" transform="translate(62.94451141357422, 344.5279998779297)"/></svg>