<svg xmlns="http://www.w3.org/2000/svg" viewBox="0 0 512 512"><circle cx="256" cy="256" r="256" fill="#001117"/><path d="M15.381 0L15.381-156.226L98.438-156.226Q110.632-156.226 120.685-150.293Q130.737-144.360 136.670-134.418Q142.603-124.475 142.603-112.280L142.603-112.280L142.603-43.506Q142.603-31.531 136.670-21.643Q130.737-11.755 120.685-5.878Q110.632 0 98.438 0L98.438 0L15.381 0ZM38.562-23.181L98.438-23.181Q107.227-23.181 113.379-29.224Q119.531-35.266 119.531-43.835L119.531-43.835L119.531-112.280Q119.531-120.959 113.379-127.057Q107.227-133.154 98.438-133.154L98.438-133.154L38.562-133.154L38.562-23.181ZM168.970-70.752L176.990-84.485L195.996-73.608L195.996-95.691L212.146-95.691L212.146-73.608L231.592-84.595L239.172-70.642L220.166-59.546L239.392-48.450L231.372-34.717L212.146-45.703L212.146-23.401L195.996-23.401L195.996-45.593L176.990-34.497L169.080-48.560L188.086-59.766L168.970-70.752ZM267.957 0L267.957-156.226L351.013-156.226Q363.208-156.226 373.260-150.293Q383.313-144.360 389.246-134.418Q395.178-124.475 395.178-112.280L395.178-112.280L395.178-43.506Q395.178-31.531 389.246-21.643Q383.313-11.755 373.260-5.878Q363.208 0 351.013 0L351.013 0L267.957 0ZM291.138-23.181L351.013-23.181Q359.802-23.181 365.955-29.224Q372.107-35.266 372.107-43.835L372.107-43.835L372.107-112.280Q372.107-120.959 365.955-127.057Q359.802-133.154 351.013-133.154L351.013-133.154L291.138-133.154L291.138-23.181Z" fill="#f7f3e3" transform="translate(50.72050189971924, 334.11299896240234)"/></svg>