<svg xmlns="http://www.w3.org/2000/svg" viewBox="0 0 512 512"><circle cx="256" cy="256" r="256" fill="#001117"/><path d="M24.609 0L24.609-249.961L157.500-249.961Q177.012-249.961 193.096-240.469Q209.180-230.977 218.672-215.068Q228.164-199.160 228.164-179.648L228.164-179.648L228.164-69.609Q228.164-50.449 218.672-34.629Q209.180-18.809 193.096-9.404Q177.012 0 157.500 0L157.500 0L24.609 0ZM61.699-37.090L157.500-37.090Q171.563-37.090 181.406-46.758Q191.250-56.426 191.250-70.137L191.250-70.137L191.250-179.648Q191.250-193.535 181.406-203.291Q171.563-213.047 157.500-213.047L157.500-213.047L61.699-213.047L61.699-37.090ZM273.867 0L273.867-249.961L310.957-249.961L310.957 0L273.867 0Z" fill="#f7f3e3" transform="translate(88.21700477600098, 380.9804992675781)"/></svg>