<svg xmlns="http://www.w3.org/2000/svg" viewBox="0 0 512 512"><circle cx="256" cy="256" r="256" fill="#001117"/><path d="M38.972-50.054L13.696-50.054Q13.696-66.614 24.093-77.260Q34.490-87.905 50.676-87.905L50.676-87.905Q58.396-87.905 66.427-86.038Q74.458-84.170 85.042-79.812L85.042-79.812Q92.761-76.948 97.928-75.703Q103.096-74.458 107.578-74.458L107.578-74.458Q120.029-74.458 120.029-88.030L120.029-88.030L145.056-88.030Q145.056-70.100 134.659-60.077Q124.263-50.054 105.710-50.054L105.710-50.054Q98.489-50.054 90.894-51.859Q83.298-53.665 69.851-58.521L69.851-58.521Q62.878-61.011 58.334-62.069Q53.789-63.127 50.427-63.127L50.427-63.127Q38.972-63.127 38.972-50.054L38.972-50.054ZM176.184 0L176.184-177.056L270.315-177.056Q284.136-177.056 295.529-170.332Q306.921-163.608 313.645-152.340Q320.369-141.072 320.369-127.251L320.369-127.251L320.369-49.307Q320.369-35.735 313.645-24.529Q306.921-13.323 295.529-6.661Q284.136 0 270.315 0L270.315 0L176.184 0ZM202.456-26.272L270.315-26.272Q280.276-26.272 287.249-33.120Q294.221-39.968 294.221-49.680L294.221-49.680L294.221-127.251Q294.221-137.087 287.249-143.998Q280.276-150.908 270.315-150.908L270.315-150.908L202.456-150.908L202.456-26.272ZM352.742 0L352.742-177.056L379.014-177.056L379.014 0L352.742 0Z" fill="#f7f3e3" transform="translate(59.64500331878662, 344.5279998779297)"/></svg>