<svg xmlns="http://www.w3.org/2000/svg" viewBox="0 0 512 512"><circle cx="256" cy="256" r="256" fill="#001117"/><path d="M24.170-48.779L24.170-208.301L55.078-208.301L55.078-48.779L24.170-48.779ZM20.508-17.578L20.508-17.578Q20.508-25.488 26.074-31.055Q31.641-36.621 39.551-36.621L39.551-36.621Q47.607-36.621 53.101-31.128Q58.594-25.635 58.594-17.578L58.594-17.578Q58.594-9.521 53.101-4.028Q47.607 1.465 39.551 1.465L39.551 1.465Q31.641 1.465 26.074-4.102Q20.508-9.668 20.508-17.578ZM99.609 0L99.609-208.301L209.766-208.301Q223.975-208.301 235.620-201.343Q247.266-194.385 254.224-182.813Q261.182-171.240 261.182-157.031L261.182-157.031L261.182-136.230Q261.182-122.314 254.224-110.815Q247.266-99.316 235.620-92.505Q223.975-85.693 209.766-85.693L209.766-85.693L148.096-85.693L148.096-116.455L209.766-116.455Q218.408-116.455 224.414-122.314Q230.420-128.174 230.420-136.670L230.420-136.670L230.420-157.031Q230.420-165.527 224.414-171.533Q218.408-177.539 209.766-177.539L209.766-177.539L130.518-177.539L130.518 0L99.609 0ZM294.141 0L294.141-164.795Q294.141-176.807 300.073-186.694Q306.006-196.582 315.894-202.441Q325.781-208.301 337.793-208.301L337.793-208.301L371.631-208.301L371.631-177.539L337.793-177.539Q332.520-177.539 328.784-173.804Q325.049-170.068 325.049-164.795L325.049-164.795L325.049-151.758L372.217-151.758L372.217-120.996L325.049-120.996L325.049 0L294.141 0Z" fill="#f7f3e3" transform="translate(59.63749313354492, 359.4179992675781)"/></svg>