<svg xmlns="http://www.w3.org/2000/svg" viewBox="0 0 512 512"><circle cx="256" cy="256" r="256" fill="#001117"/><path d="M12.891-55.664L12.891-73.945L131.250-116.953L131.250-92.578L55.195-64.805L131.250-37.148L131.250-12.656L12.891-55.664ZM160.547 0L160.547-166.641L249.141-166.641Q262.148-166.641 272.871-160.313Q283.594-153.984 289.922-143.379Q296.250-132.773 296.250-119.766L296.250-119.766L296.250-46.406Q296.250-33.633 289.922-23.086Q283.594-12.539 272.871-6.270Q262.148 0 249.141 0L249.141 0L160.547 0ZM185.273-24.727L249.141-24.727Q258.516-24.727 265.078-31.172Q271.641-37.617 271.641-46.758L271.641-46.758L271.641-119.766Q271.641-129.023 265.078-135.527Q258.516-142.031 249.141-142.031L249.141-142.031L185.273-142.031L185.273-24.727ZM326.719 0L326.719-166.641L351.445-166.641L351.445 0L326.719 0Z" fill="#f7f3e3" transform="translate(73.83199214935303, 339.3205032348633)"/></svg>