<svg xmlns="http://www.w3.org/2000/svg" viewBox="0 0 512 512"><circle cx="256" cy="256" r="256" fill="#001117"/><path d="M29.802-38.276L10.474-38.276Q10.474-50.940 18.424-59.081Q26.375-67.222 38.752-67.222L38.752-67.222Q44.656-67.222 50.797-65.793Q56.938-64.365 65.032-61.033L65.032-61.033Q70.935-58.843 74.886-57.891Q78.838-56.938 82.266-56.938L82.266-56.938Q91.787-56.938 91.787-67.317L91.787-67.317L110.925-67.317Q110.925-53.606 102.975-45.941Q95.024-38.276 80.837-38.276L80.837-38.276Q75.315-38.276 69.507-39.657Q63.699-41.038 53.416-44.751L53.416-44.751Q48.083-46.655 44.608-47.465Q41.133-48.274 38.562-48.274L38.562-48.274Q29.802-48.274 29.802-38.276L29.802-38.276ZM134.729 0L134.729-135.396L206.711-135.396Q217.280-135.396 225.992-130.254Q234.705-125.112 239.846-116.495Q244.988-107.878 244.988-97.310L244.988-97.310L244.988-37.705Q244.988-27.327 239.846-18.757Q234.705-10.188 225.992-5.094Q217.280 0 206.711 0L206.711 0L134.729 0ZM154.819-20.090L206.711-20.090Q214.329-20.090 219.661-25.327Q224.993-30.564 224.993-37.991L224.993-37.991L224.993-97.310Q224.993-104.832 219.661-110.116Q214.329-115.400 206.711-115.400L206.711-115.400L154.819-115.400L154.819-20.090ZM267.839 0L267.839-78.647Q267.839-86.931 273.790-92.787Q279.741-98.643 288.120-98.643L288.120-98.643L322.874-98.643Q332.681-98.643 340.774-93.834Q348.867-89.026 353.676-80.933Q358.484-72.839 358.484-63.032L358.484-63.032L358.484 0L338.394 0L338.394-62.747Q338.394-69.412 333.871-74.077Q329.348-78.743 322.874-78.743L322.874-78.743L287.930-78.743L287.930 0L267.839 0ZM383.240 0L383.240-135.396L403.330-135.396L403.330 0L383.240 0Z" fill="#f7f3e3" transform="translate(49.09800624847412, 323.697998046875)"/></svg>