<svg xmlns="http://www.w3.org/2000/svg" viewBox="0 0 512 512"><circle cx="256" cy="256" r="256" fill="#001117"/><path d="M11.953 0L11.953-127.969L108.047-127.969L108.047 0L11.953 0ZM23.906-11.953L96.094-11.953L96.094-116.016L23.906-116.016L23.906-11.953ZM136.406 0L136.406-166.641L225-166.641Q238.008-166.641 248.730-160.313Q259.453-153.984 265.781-143.379Q272.109-132.773 272.109-119.766L272.109-119.766L272.109-46.406Q272.109-33.633 265.781-23.086Q259.453-12.539 248.730-6.270Q238.008 0 225 0L225 0L136.406 0ZM161.133-24.727L225-24.727Q234.375-24.727 240.938-31.172Q247.500-37.617 247.500-46.758L247.500-46.758L247.500-119.766Q247.500-129.023 240.938-135.527Q234.375-142.031 225-142.031L225-142.031L161.133-142.031L161.133-24.727ZM300.234 0L300.234-96.797Q300.234-106.992 307.559-114.199Q314.883-121.406 325.195-121.406L325.195-121.406L367.969-121.406Q380.039-121.406 390-115.488Q399.961-109.570 405.879-99.609Q411.797-89.648 411.797-77.578L411.797-77.578L411.797 0L387.070 0L387.070-77.227Q387.070-85.430 381.504-91.172Q375.938-96.914 367.969-96.914L367.969-96.914L324.961-96.914L324.961 0L300.234 0Z" fill="#f7f3e3" transform="translate(44.12500286102295, 339.3205032348633)"/></svg>