<svg xmlns="http://www.w3.org/2000/svg" viewBox="0 0 512 512"><circle cx="256" cy="256" r="256" fill="#001117"/><path d="M16.406 0L16.406-166.641L105-166.641Q118.008-166.641 128.730-160.313Q139.453-153.984 145.781-143.379Q152.109-132.773 152.109-119.766L152.109-119.766L152.109-46.406Q152.109-33.633 145.781-23.086Q139.453-12.539 128.730-6.270Q118.008 0 105 0L105 0L16.406 0ZM41.133-24.727L105-24.727Q114.375-24.727 120.938-31.172Q127.500-37.617 127.500-46.758L127.500-46.758L127.500-119.766Q127.500-129.023 120.938-135.527Q114.375-142.031 105-142.031L105-142.031L41.133-142.031L41.133-24.727ZM180.234-75.469L188.789-90.117L209.063-78.516L209.063-102.070L226.289-102.070L226.289-78.516L247.031-90.234L255.117-75.352L234.844-63.516L255.352-51.680L246.797-37.031L226.289-48.750L226.289-24.961L209.063-24.961L209.063-48.633L188.789-36.797L180.352-51.797L200.625-63.750L180.234-75.469ZM282.305-43.594L282.305-77.578Q282.305-89.648 288.223-99.609Q294.141-109.570 304.102-115.488Q314.063-121.406 326.133-121.406L326.133-121.406L355.078-121.406L355.078-96.680L326.133-96.680Q318.281-96.680 312.656-90.996Q307.031-85.313 307.031-77.344L307.031-77.344L307.031-43.828Q307.031-35.977 312.656-30.352Q318.281-24.727 326.133-24.727L326.133-24.727L369.141-24.727L369.141-166.641L393.867-166.641L393.867-24.727Q393.867-14.531 386.602-7.266Q379.336 0 369.141 0L369.141 0L326.133 0Q314.063 0 304.102-5.918Q294.141-11.836 288.223-21.738Q282.305-31.641 282.305-43.594L282.305-43.594Z" fill="#f7f3e3" transform="translate(50.86350059509277, 339.3205032348633)"/></svg>