<svg xmlns="http://www.w3.org/2000/svg" viewBox="0 0 512 512"><circle cx="256" cy="256" r="256" fill="#001117"/><path d="M27.510-35.332L9.668-35.332Q9.668-47.021 17.007-54.536Q24.346-62.051 35.771-62.051L35.771-62.051Q41.221-62.051 46.890-60.732Q52.559-59.414 60.029-56.338L60.029-56.338Q65.479-54.316 69.126-53.438Q72.773-52.559 75.938-52.559L75.938-52.559Q84.727-52.559 84.727-62.139L84.727-62.139L102.393-62.139Q102.393-49.482 95.054-42.407Q87.715-35.332 74.619-35.332L74.619-35.332Q69.521-35.332 64.160-36.606Q58.799-37.881 49.307-41.309L49.307-41.309Q44.385-43.066 41.177-43.813Q37.969-44.561 35.596-44.561L35.596-44.561Q27.510-44.561 27.510-35.332L27.510-35.332ZM124.365 0L124.365-124.980L190.811-124.980Q200.566-124.980 208.608-120.234Q216.650-115.488 221.396-107.534Q226.143-99.580 226.143-89.824L226.143-89.824L226.143-34.805Q226.143-25.225 221.396-17.314Q216.650-9.404 208.608-4.702Q200.566 0 190.811 0L190.811 0L124.365 0ZM142.910-18.545L190.811-18.545Q197.842-18.545 202.764-23.379Q207.686-28.213 207.686-35.068L207.686-35.068L207.686-89.824Q207.686-96.768 202.764-101.646Q197.842-106.523 190.811-106.523L190.811-106.523L142.910-106.523L142.910-18.545ZM247.236-56.602L253.652-67.588L268.857-58.887L268.857-76.553L281.777-76.553L281.777-58.887L297.334-67.676L303.398-56.514L288.193-47.637L303.574-38.760L297.158-27.773L281.777-36.563L281.777-18.721L268.857-18.721L268.857-36.475L253.652-27.598L247.324-38.848L262.529-47.813L247.236-56.602ZM323.789-32.695L323.789-58.184Q323.789-67.236 328.228-74.707Q332.666-82.178 340.137-86.616Q347.607-91.055 356.660-91.055L356.660-91.055L378.369-91.055L378.369-72.510L356.660-72.510Q350.771-72.510 346.553-68.247Q342.334-63.984 342.334-58.008L342.334-58.008L342.334-32.871Q342.334-26.982 346.553-22.764Q350.771-18.545 356.660-18.545L356.660-18.545L388.916-18.545L388.916-124.980L407.461-124.980L407.461-18.545Q407.461-10.898 402.012-5.449Q396.563 0 388.916 0L388.916 0L356.660 0Q347.607 0 340.137-4.438Q332.666-8.877 328.228-16.304Q323.789-23.730 323.789-32.695L323.789-32.695Z" fill="#f7f3e3" transform="translate(47.435500144958496, 318.4900016784668)"/></svg>