<svg xmlns="http://www.w3.org/2000/svg" viewBox="0 0 512 512"><circle cx="256" cy="256" r="256" fill="#001117"/><path d="M10.459 0L10.459-111.973L94.541-111.973L94.541 0L10.459 0ZM20.918-10.459L84.082-10.459L84.082-101.514L20.918-101.514L20.918-10.459ZM109.102 0L161.294-145.811L188.262-145.811L240.454 0L217.383 0L201.489-43.887L160.781-43.887L168.574-65.420L193.696-65.420L174.829-117.510L132.173 0L109.102 0ZM256.860-41.016L256.860-104.795Q256.860-116.177 262.756-125.457Q268.652-134.736 278.496-140.273Q288.340-145.811 300.337-145.811L300.337-145.811L369.346-145.811L369.346-124.277L300.337-124.277Q291.313-124.277 284.905-118.586Q278.496-112.896 278.496-104.897L278.496-104.897L278.496-40.913Q278.496-32.915 284.905-27.224Q291.313-21.533 300.337-21.533L300.337-21.533L334.482-21.533Q343.608-21.533 349.966-27.224Q356.323-32.915 356.323-40.913L356.323-40.913L356.323-59.985L316.743-59.985L316.743-81.519L377.959-81.519L377.959-41.016Q377.959-29.736 372.114-20.405Q366.270-11.074 356.375-5.537Q346.479 0 334.482 0L334.482 0L300.337 0Q288.340 0 278.496-5.537Q268.652-11.074 262.756-20.405Q256.860-29.736 256.860-41.016L256.860-41.016Z" fill="#f7f3e3" transform="translate(61.79100036621094, 328.90550231933594)"/></svg>