<svg xmlns="http://www.w3.org/2000/svg" viewBox="0 0 512 512"><circle cx="256" cy="256" r="256" fill="#001117"/><path d="M9.668-41.748L9.668-55.459L98.438-87.715L98.438-69.434L41.396-48.604L98.438-27.861L98.438-9.492L9.668-41.748ZM120.410 0L120.410-124.980L186.855-124.980Q196.611-124.980 204.653-120.234Q212.695-115.488 217.441-107.534Q222.188-99.580 222.188-89.824L222.188-89.824L222.188-34.805Q222.188-25.225 217.441-17.314Q212.695-9.404 204.653-4.702Q196.611 0 186.855 0L186.855 0L120.410 0ZM138.955-18.545L186.855-18.545Q193.887-18.545 198.809-23.379Q203.730-28.213 203.730-35.068L203.730-35.068L203.730-89.824Q203.730-96.768 198.809-101.646Q193.887-106.523 186.855-106.523L186.855-106.523L138.955-106.523L138.955-18.545ZM243.281-56.602L249.697-67.588L264.902-58.887L264.902-76.553L277.822-76.553L277.822-58.887L293.379-67.676L299.443-56.514L284.238-47.637L299.619-38.760L293.203-27.773L277.822-36.563L277.822-18.721L264.902-18.721L264.902-36.475L249.697-27.598L243.369-38.848L258.574-47.813L243.281-56.602ZM322.471 0L322.471-124.980L388.916-124.980Q398.672-124.980 406.714-120.234Q414.756-115.488 419.502-107.534Q424.248-99.580 424.248-89.824L424.248-89.824L424.248-34.805Q424.248-25.225 419.502-17.314Q414.756-9.404 406.714-4.702Q398.672 0 388.916 0L388.916 0L322.471 0ZM341.016-18.545L388.916-18.545Q395.947-18.545 400.869-23.379Q405.791-28.213 405.791-35.068L405.791-35.068L405.791-89.824Q405.791-96.768 400.869-101.646Q395.947-106.523 388.916-106.523L388.916-106.523L341.016-106.523L341.016-18.545Z" fill="#f7f3e3" transform="translate(39.042006492614746, 318.4900016784668)"/></svg>