<svg xmlns="http://www.w3.org/2000/svg" viewBox="0 0 512 512"><circle cx="256" cy="256" r="256" fill="#001117"/><path d="M15.820-116.411L15.820-116.411Q15.820-123.530 20.830-128.540Q25.840-133.550 32.959-133.550L32.959-133.550Q40.210-133.550 45.154-128.606Q50.098-123.662 50.098-116.411L50.098-116.411Q50.098-109.160 45.154-104.216Q40.210-99.272 32.959-99.272L32.959-99.272Q25.708-99.272 20.764-104.216Q15.820-109.160 15.820-116.411ZM15.820-15.820L15.820-15.820Q15.820-22.939 20.830-27.949Q25.840-32.959 32.959-32.959L32.959-32.959Q40.210-32.959 45.154-28.015Q50.098-23.071 50.098-15.820L50.098-15.820Q50.098-8.569 45.154-3.625Q40.210 1.318 32.959 1.318L32.959 1.318Q25.840 1.318 20.830-3.691Q15.820-8.701 15.820-15.820ZM84.375 0L84.375-187.471L184.043-187.471Q198.677-187.471 210.740-180.352Q222.803-173.232 229.922-161.301Q237.041-149.370 237.041-134.736L237.041-134.736L237.041-52.207Q237.041-37.837 229.922-25.972Q222.803-14.106 210.740-7.053Q198.677 0 184.043 0L184.043 0L84.375 0ZM112.192-27.817L184.043-27.817Q194.590-27.817 201.973-35.068Q209.355-42.319 209.355-52.603L209.355-52.603L209.355-134.736Q209.355-145.151 201.973-152.468Q194.590-159.785 184.043-159.785L184.043-159.785L112.192-159.785L112.192-27.817ZM267.363-49.175L267.363-87.539Q267.363-101.118 274.021-112.192Q280.679-123.267 291.885-129.924Q303.091-136.582 316.670-136.582L316.670-136.582L365.054-136.582Q376.523-136.582 384.697-128.408Q392.871-120.234 392.871-108.765L392.871-108.765L392.871 1.582Q392.871 15.161 386.213 26.367Q379.556 37.573 368.350 44.231Q357.144 50.889 343.564 50.889L343.564 50.889L276.196 50.889L276.196 23.071L343.169 23.071Q352.266 23.071 358.660 16.809Q365.054 10.547 365.054 1.714L365.054 1.714L365.054-108.765L316.670-108.765Q307.837-108.765 301.509-102.502Q295.181-96.240 295.181-87.275L295.181-87.275L295.181-49.438Q295.181-40.605 301.509-34.211Q307.837-27.817 316.670-27.817L316.670-27.817L349.233-27.817L349.233 0L316.670 0Q303.091 0 291.885-6.658Q280.679-13.315 274.021-24.456Q267.363-35.596 267.363-49.175L267.363-49.175Z" fill="#f7f3e3" transform="translate(51.654502868652344, 324.29100036621094)"/></svg>