<svg xmlns="http://www.w3.org/2000/svg" viewBox="0 0 512 512"><circle cx="256" cy="256" r="256" fill="#001117"/><path d="M20.508 0L20.508-208.301L131.250-208.301Q147.510-208.301 160.913-200.391Q174.316-192.480 182.227-179.224Q190.137-165.967 190.137-149.707L190.137-149.707L190.137-58.008Q190.137-42.041 182.227-28.857Q174.316-15.674 160.913-7.837Q147.510 0 131.250 0L131.250 0L20.508 0ZM51.416-30.908L131.250-30.908Q142.969-30.908 151.172-38.965Q159.375-47.021 159.375-58.447L159.375-58.447L159.375-149.707Q159.375-161.279 151.172-169.409Q142.969-177.539 131.250-177.539L131.250-177.539L51.416-177.539L51.416-30.908ZM228.223 0L228.223-208.301L338.379-208.301Q352.588-208.301 364.233-201.343Q375.879-194.385 382.837-182.813Q389.795-171.240 389.795-157.031L389.795-157.031L389.795-136.230Q389.795-122.314 382.837-110.815Q375.879-99.316 364.233-92.505Q352.588-85.693 338.379-85.693L338.379-85.693L276.709-85.693L276.709-116.455L338.379-116.455Q347.021-116.455 353.027-122.314Q359.033-128.174 359.033-136.670L359.033-136.670L359.033-157.031Q359.033-165.527 353.027-171.533Q347.021-177.539 338.379-177.539L338.379-177.539L259.131-177.539L259.131 0L228.223 0Z" fill="#f7f3e3" transform="translate(50.84849166870117, 360.15049743652344)"/></svg>