<svg xmlns="http://www.w3.org/2000/svg" viewBox="0 0 512 512"><circle cx="256" cy="256" r="256" fill="#001117"/><path d="M32.095-41.221L11.279-41.221Q11.279-54.858 19.841-63.625Q28.403-72.393 41.733-72.393L41.733-72.393Q48.091-72.393 54.705-70.854Q61.318-69.316 70.034-65.728L70.034-65.728Q76.392-63.369 80.647-62.344Q84.902-61.318 88.594-61.318L88.594-61.318Q98.848-61.318 98.848-72.495L98.848-72.495L119.458-72.495Q119.458-57.729 110.896-49.475Q102.334-41.221 87.056-41.221L87.056-41.221Q81.108-41.221 74.854-42.708Q68.599-44.194 57.524-48.193L57.524-48.193Q51.782-50.244 48.040-51.116Q44.297-51.987 41.528-51.987L41.528-51.987Q32.095-51.987 32.095-41.221L32.095-41.221ZM145.093 0L145.093-145.811L222.612-145.811Q233.994-145.811 243.376-140.273Q252.759-134.736 258.296-125.457Q263.833-116.177 263.833-104.795L263.833-104.795L263.833-40.605Q263.833-29.429 258.296-20.200Q252.759-10.972 243.376-5.486Q233.994 0 222.612 0L222.612 0L145.093 0ZM166.729-21.636L222.612-21.636Q230.815-21.636 236.558-27.275Q242.300-32.915 242.300-40.913L242.300-40.913L242.300-104.795Q242.300-112.896 236.558-118.586Q230.815-124.277 222.612-124.277L222.612-124.277L166.729-124.277L166.729-21.636ZM290.493 0L290.493-145.811L367.603-145.811Q377.549-145.811 385.701-140.940Q393.853-136.069 398.723-127.969Q403.594-119.868 403.594-109.922L403.594-109.922L403.594-95.361Q403.594-85.620 398.723-77.571Q393.853-69.521 385.701-64.753Q377.549-59.985 367.603-59.985L367.603-59.985L324.434-59.985L324.434-81.519L367.603-81.519Q373.652-81.519 377.856-85.620Q382.061-89.722 382.061-95.669L382.061-95.669L382.061-109.922Q382.061-115.869 377.856-120.073Q373.652-124.277 367.603-124.277L367.603-124.277L312.129-124.277L312.129 0L290.493 0Z" fill="#f7f3e3" transform="translate(48.56349849700928, 328.90550231933594)"/></svg>