<svg xmlns="http://www.w3.org/2000/svg" viewBox="0 0 512 512"><circle cx="256" cy="256" r="256" fill="#001117"/><path d="M11.279-48.706L11.279-64.702L114.844-102.334L114.844-81.006L48.296-56.704L114.844-32.505L114.844-11.074L11.279-48.706ZM140.479 0L140.479-145.811L217.998-145.811Q229.380-145.811 238.762-140.273Q248.145-134.736 253.682-125.457Q259.219-116.177 259.219-104.795L259.219-104.795L259.219-40.605Q259.219-29.429 253.682-20.200Q248.145-10.972 238.762-5.486Q229.380 0 217.998 0L217.998 0L140.479 0ZM162.114-21.636L217.998-21.636Q226.201-21.636 231.943-27.275Q237.686-32.915 237.686-40.913L237.686-40.913L237.686-104.795Q237.686-112.896 231.943-118.586Q226.201-124.277 217.998-124.277L217.998-124.277L162.114-124.277L162.114-21.636ZM285.879 0L285.879-145.811L362.988-145.811Q372.935-145.811 381.086-140.940Q389.238-136.069 394.109-127.969Q398.979-119.868 398.979-109.922L398.979-109.922L398.979-95.361Q398.979-85.620 394.109-77.571Q389.238-69.521 381.086-64.753Q372.935-59.985 362.988-59.985L362.988-59.985L319.819-59.985L319.819-81.519L362.988-81.519Q369.038-81.519 373.242-85.620Q377.446-89.722 377.446-95.669L377.446-95.669L377.446-109.922Q377.446-115.869 373.242-120.073Q369.038-124.277 362.988-124.277L362.988-124.277L307.515-124.277L307.515 0L285.879 0Z" fill="#f7f3e3" transform="translate(50.87099361419678, 328.90550231933594)"/></svg>