<svg xmlns="http://www.w3.org/2000/svg" viewBox="0 0 512 512"><circle cx="256" cy="256" r="256" fill="#001117"/><path d="M20.508 0L20.508-208.301L131.250-208.301Q147.510-208.301 160.913-200.391Q174.316-192.480 182.227-179.224Q190.137-165.967 190.137-149.707L190.137-149.707L190.137-58.008Q190.137-42.041 182.227-28.857Q174.316-15.674 160.913-7.837Q147.510 0 131.250 0L131.250 0L20.508 0ZM51.416-30.908L131.250-30.908Q142.969-30.908 151.172-38.965Q159.375-47.021 159.375-58.447L159.375-58.447L159.375-149.707Q159.375-161.279 151.172-169.409Q142.969-177.539 131.250-177.539L131.250-177.539L51.416-177.539L51.416-30.908ZM223.828-54.639L223.828-97.266Q223.828-112.354 231.226-124.658Q238.623-136.963 251.074-144.360Q263.525-151.758 278.613-151.758L278.613-151.758L332.373-151.758Q345.117-151.758 354.199-142.676Q363.281-133.594 363.281-120.850L363.281-120.850L363.281 1.758Q363.281 16.846 355.884 29.297Q348.486 41.748 336.035 49.146Q323.584 56.543 308.496 56.543L308.496 56.543L233.643 56.543L233.643 25.635L308.057 25.635Q318.164 25.635 325.269 18.677Q332.373 11.719 332.373 1.904L332.373 1.904L332.373-120.850L278.613-120.850Q268.799-120.850 261.768-113.892Q254.736-106.934 254.736-96.973L254.736-96.973L254.736-54.932Q254.736-45.117 261.768-38.013Q268.799-30.908 278.613-30.908L278.613-30.908L314.795-30.908L314.795 0L278.613 0Q263.525 0 251.074-7.397Q238.623-14.795 231.226-27.173Q223.828-39.551 223.828-54.639L223.828-54.639Z" fill="#f7f3e3" transform="translate(64.10549545288086, 331.8789978027344)"/></svg>