<svg xmlns="http://www.w3.org/2000/svg" viewBox="0 0 512 512"><circle cx="256" cy="256" r="256" fill="#001117"/><path d="M2.051 4.307L115.972-157.910L140.581-157.910L26.660 4.307L2.051 4.307ZM156.987 0L156.987-145.811L234.097-145.811Q244.043-145.811 252.195-140.940Q260.347-136.069 265.217-127.969Q270.088-119.868 270.088-109.922L270.088-109.922L270.088-95.361Q270.088-85.620 265.217-77.571Q260.347-69.521 252.195-64.753Q244.043-59.985 234.097-59.985L234.097-59.985L190.928-59.985L190.928-81.519L234.097-81.519Q240.146-81.519 244.351-85.620Q248.555-89.722 248.555-95.669L248.555-95.669L248.555-109.922Q248.555-115.869 244.351-120.073Q240.146-124.277 234.097-124.277L234.097-124.277L178.623-124.277L178.623 0L156.987 0ZM292.134-38.350L292.134-68.086Q292.134-78.647 297.312-87.261Q302.490-95.874 311.206-101.052Q319.922-106.230 330.483-106.230L330.483-106.230L389.751-106.230L389.751 0L368.115 0L368.115-84.595L330.483-84.595Q323.613-84.595 318.691-79.724Q313.770-74.854 313.770-67.881L313.770-67.881L313.770-38.555Q313.770-31.582 318.691-26.609Q323.613-21.636 330.483-21.636L330.483-21.636L355.811-21.636L355.811 0L330.483 0Q319.922 0 311.206-5.178Q302.490-10.356 297.312-19.072Q292.134-27.788 292.134-38.350L292.134-38.350Z" fill="#f7f3e3" transform="translate(60.09899377822876, 332.80149841308594)"/></svg>