<svg xmlns="http://www.w3.org/2000/svg" viewBox="0 0 512 512"><circle cx="256" cy="256" r="256" fill="#000117"/><path d="M13.184-177.539L13.184-208.301L103.857-208.301Q117.041-208.301 127.661-202.148Q138.281-195.996 144.507-185.376Q150.732-174.756 150.732-161.572L150.732-161.572L150.732-140.771Q150.732-127.002 146.191-117.261Q141.650-107.520 131.177-100.269Q120.703-93.018 102.979-86.572L102.979-86.572Q88.477-81.152 83.276-77.710Q78.076-74.268 78.076-70.020L78.076-70.020L78.076-44.971L47.168-44.971L47.168-70.020Q47.168-86.133 58.374-96.680Q69.580-107.227 97.119-117.041L97.119-117.041Q109.570-121.436 114.697-127.002Q119.824-132.568 119.824-141.650L119.824-141.650L119.824-161.572Q119.824-168.164 115.137-172.852Q110.449-177.539 103.857-177.539L103.857-177.539L13.184-177.539ZM45.117-15.967L45.117-15.967Q45.117-23.291 50.244-28.345Q55.371-33.398 62.549-33.398L62.549-33.398Q69.873-33.398 74.927-28.345Q79.980-23.291 79.980-15.967L79.980-15.967Q79.980-8.789 74.927-3.662Q69.873 1.465 62.549 1.465L62.549 1.465Q55.371 1.465 50.244-3.662Q45.117-8.789 45.117-15.967ZM178.564-177.539L178.564-208.301L269.238-208.301Q282.422-208.301 293.042-202.148Q303.662-195.996 309.888-185.376Q316.113-174.756 316.113-161.572L316.113-161.572L316.113-140.771Q316.113-127.002 311.572-117.261Q307.031-107.520 296.558-100.269Q286.084-93.018 268.359-86.572L268.359-86.572Q253.857-81.152 248.657-77.710Q243.457-74.268 243.457-70.020L243.457-70.020L243.457-44.971L212.549-44.971L212.549-70.020Q212.549-86.133 223.755-96.680Q234.961-107.227 262.500-117.041L262.500-117.041Q274.951-121.436 280.078-127.002Q285.205-132.568 285.205-141.650L285.205-141.650L285.205-161.572Q285.205-168.164 280.518-172.852Q275.830-177.539 269.238-177.539L269.238-177.539L178.564-177.539ZM210.498-15.967L210.498-15.967Q210.498-23.291 215.625-28.345Q220.752-33.398 227.930-33.398L227.930-33.398Q235.254-33.398 240.308-28.345Q245.361-23.291 245.361-15.967L245.361-15.967Q245.361-8.789 240.308-3.662Q235.254 1.465 227.930 1.465L227.930 1.465Q220.752 1.465 215.625-3.662Q210.498-8.789 210.498-15.967Z" fill="#f7f3e3" transform="translate(91.35149192810059, 359.4179992675781)"/></svg>