<svg xmlns="http://www.w3.org/2000/svg" viewBox="0 0 512 512"><circle cx="256" cy="256" r="256" fill="#001117"/><path d="M9.668-9.492L9.668-27.861L66.709-48.604L9.668-69.434L9.668-87.715L98.438-55.459L98.438-41.748L9.668-9.492ZM120.410 0L120.410-124.980L204.082-124.980L204.082-106.523L138.955-106.523L138.955 0L120.410 0ZM149.502-55.811L149.502-74.268L204.082-74.268L204.082-55.811L149.502-55.811ZM225.176-56.602L231.592-67.588L246.797-58.887L246.797-76.553L259.717-76.553L259.717-58.887L275.273-67.676L281.338-56.514L266.133-47.637L281.514-38.760L275.098-27.773L259.717-36.563L259.717-18.721L246.797-18.721L246.797-36.475L231.592-27.598L225.264-38.848L240.469-47.813L225.176-56.602ZM304.365 0L304.365-124.980L370.811-124.980Q380.566-124.980 388.608-120.234Q396.650-115.488 401.396-107.534Q406.143-99.580 406.143-89.824L406.143-89.824L406.143-34.805Q406.143-25.225 401.396-17.314Q396.650-9.404 388.608-4.702Q380.566 0 370.811 0L370.811 0L304.365 0ZM322.910-18.545L370.811-18.545Q377.842-18.545 382.764-23.379Q387.686-28.213 387.686-35.068L387.686-35.068L387.686-89.824Q387.686-96.768 382.764-101.646Q377.842-106.523 370.811-106.523L370.811-106.523L322.910-106.523L322.910-18.545Z" fill="#f7f3e3" transform="translate(48.094496726989746, 318.4900016784668)"/></svg>