<svg xmlns="http://www.w3.org/2000/svg" viewBox="0 0 512 512"><circle cx="256" cy="256" r="256" fill="#001117"/><path d="M16.406 0L16.406-166.641L127.969-166.641L127.969-142.031L41.133-142.031L41.133 0L16.406 0ZM55.195-74.414L55.195-99.023L127.969-99.023L127.969-74.414L55.195-74.414ZM156.094-75.469L164.648-90.117L184.922-78.516L184.922-102.070L202.148-102.070L202.148-78.516L222.891-90.234L230.977-75.352L210.703-63.516L231.211-51.680L222.656-37.031L202.148-48.750L202.148-24.961L184.922-24.961L184.922-48.633L164.648-36.797L156.211-51.797L176.484-63.750L156.094-75.469ZM261.680 0L261.680-166.641L350.273-166.641Q363.281-166.641 374.004-160.313Q384.727-153.984 391.055-143.379Q397.383-132.773 397.383-119.766L397.383-119.766L397.383-46.406Q397.383-33.633 391.055-23.086Q384.727-12.539 374.004-6.270Q363.281 0 350.273 0L350.273 0L261.680 0ZM286.406-24.727L350.273-24.727Q359.648-24.727 366.211-31.172Q372.773-37.617 372.773-46.758L372.773-46.758L372.773-119.766Q372.773-129.023 366.211-135.527Q359.648-142.031 350.273-142.031L350.273-142.031L286.406-142.031L286.406-24.727Z" fill="#f7f3e3" transform="translate(49.10550498962402, 339.3205032348633)"/></svg>