<svg xmlns="http://www.w3.org/2000/svg" viewBox="0 0 512 512"><circle cx="256" cy="256" r="256" fill="#001117"/><path d="M24.609 0L24.609-249.961L191.953-249.961L191.953-213.047L61.699-213.047L61.699 0L24.609 0ZM82.793-111.621L82.793-148.535L191.953-148.535L191.953-111.621L82.793-111.621ZM229.922-231.680L229.922-231.680Q229.922-241.172 236.602-247.852Q243.281-254.531 252.773-254.531L252.773-254.531Q262.266-254.531 268.945-247.852Q275.625-241.172 275.625-231.680L275.625-231.680Q275.625-222.188 268.945-215.508Q262.266-208.828 252.773-208.828L252.773-208.828Q243.281-208.828 236.602-215.508Q229.922-222.188 229.922-231.680ZM234.141 0L234.141-182.109L271.406-182.109L271.406 0L234.141 0Z" fill="#f7f3e3" transform="translate(105.88299751281738, 383.2655029296875)"/></svg>