<svg xmlns="http://www.w3.org/2000/svg" viewBox="0 0 512 512"><circle cx="256" cy="256" r="256" fill="#001117"/><path d="M36.680-47.109L12.891-47.109Q12.891-62.695 22.676-72.715Q32.461-82.734 47.695-82.734L47.695-82.734Q54.961-82.734 62.520-80.977Q70.078-79.219 80.039-75.117L80.039-75.117Q87.305-72.422 92.168-71.250Q97.031-70.078 101.250-70.078L101.250-70.078Q112.969-70.078 112.969-82.852L112.969-82.852L136.523-82.852Q136.523-65.977 126.738-56.543Q116.953-47.109 99.492-47.109L99.492-47.109Q92.695-47.109 85.547-48.809Q78.398-50.508 65.742-55.078L65.742-55.078Q59.180-57.422 54.902-58.418Q50.625-59.414 47.461-59.414L47.461-59.414Q36.680-59.414 36.680-47.109L36.680-47.109ZM165.820 0L165.820-166.641L277.383-166.641L277.383-142.031L190.547-142.031L190.547 0L165.820 0ZM204.609-74.414L204.609-99.023L277.383-99.023L277.383-74.414L204.609-74.414ZM302.695-154.453L302.695-154.453Q302.695-160.781 307.148-165.234Q311.602-169.688 317.930-169.688L317.930-169.688Q324.258-169.688 328.711-165.234Q333.164-160.781 333.164-154.453L333.164-154.453Q333.164-148.125 328.711-143.672Q324.258-139.219 317.930-139.219L317.930-139.219Q311.602-139.219 307.148-143.672Q302.695-148.125 302.695-154.453ZM305.508 0L305.508-121.406L330.352-121.406L330.352 0L305.508 0Z" fill="#f7f3e3" transform="translate(82.97249507904053, 340.84400177001953)"/></svg>