<svg xmlns="http://www.w3.org/2000/svg" viewBox="0 0 512 512"><circle cx="256" cy="256" r="256" fill="#001117"/><path d="M27.510-35.332L9.668-35.332Q9.668-47.021 17.007-54.536Q24.346-62.051 35.771-62.051L35.771-62.051Q41.221-62.051 46.890-60.732Q52.559-59.414 60.029-56.338L60.029-56.338Q65.479-54.316 69.126-53.438Q72.773-52.559 75.938-52.559L75.938-52.559Q84.727-52.559 84.727-62.139L84.727-62.139L102.393-62.139Q102.393-49.482 95.054-42.407Q87.715-35.332 74.619-35.332L74.619-35.332Q69.521-35.332 64.160-36.606Q58.799-37.881 49.307-41.309L49.307-41.309Q44.385-43.066 41.177-43.813Q37.969-44.561 35.596-44.561L35.596-44.561Q27.510-44.561 27.510-35.332L27.510-35.332ZM124.365 0L124.365-124.980L208.037-124.980L208.037-106.523L142.910-106.523L142.910 0L124.365 0ZM153.457-55.811L153.457-74.268L208.037-74.268L208.037-55.811L153.457-55.811ZM229.131-56.602L235.547-67.588L250.752-58.887L250.752-76.553L263.672-76.553L263.672-58.887L279.229-67.676L285.293-56.514L270.088-47.637L285.469-38.760L279.053-27.773L263.672-36.563L263.672-18.721L250.752-18.721L250.752-36.475L235.547-27.598L229.219-38.848L244.424-47.813L229.131-56.602ZM305.684-32.695L305.684-58.184Q305.684-67.236 310.122-74.707Q314.561-82.178 322.031-86.616Q329.502-91.055 338.555-91.055L338.555-91.055L360.264-91.055L360.264-72.510L338.555-72.510Q332.666-72.510 328.447-68.247Q324.229-63.984 324.229-58.008L324.229-58.008L324.229-32.871Q324.229-26.982 328.447-22.764Q332.666-18.545 338.555-18.545L338.555-18.545L370.811-18.545L370.811-124.980L389.355-124.980L389.355-18.545Q389.355-10.898 383.906-5.449Q378.457 0 370.811 0L370.811 0L338.555 0Q329.502 0 322.031-4.438Q314.561-8.877 310.122-16.304Q305.684-23.730 305.684-32.695L305.684-32.695Z" fill="#f7f3e3" transform="translate(56.48849391937256, 318.4900016784668)"/></svg>