<svg xmlns="http://www.w3.org/2000/svg" viewBox="0 0 512 512"><circle cx="256" cy="256" r="256" fill="#001117"/><path d="M16.406 0L16.406-166.641L127.969-166.641L127.969-142.031L41.133-142.031L41.133 0L16.406 0ZM55.195-74.414L55.195-99.023L127.969-99.023L127.969-74.414L55.195-74.414ZM156.094-75.469L164.648-90.117L184.922-78.516L184.922-102.070L202.148-102.070L202.148-78.516L222.891-90.234L230.977-75.352L210.703-63.516L231.211-51.680L222.656-37.031L202.148-48.750L202.148-24.961L184.922-24.961L184.922-48.633L164.648-36.797L156.211-51.797L176.484-63.750L156.094-75.469ZM258.164-43.594L258.164-77.578Q258.164-89.648 264.082-99.609Q270-109.570 279.961-115.488Q289.922-121.406 301.992-121.406L301.992-121.406L330.938-121.406L330.938-96.680L301.992-96.680Q294.141-96.680 288.516-90.996Q282.891-85.313 282.891-77.344L282.891-77.344L282.891-43.828Q282.891-35.977 288.516-30.352Q294.141-24.727 301.992-24.727L301.992-24.727L345-24.727L345-166.641L369.727-166.641L369.727-24.727Q369.727-14.531 362.461-7.266Q355.195 0 345 0L345 0L301.992 0Q289.922 0 279.961-5.918Q270-11.836 264.082-21.738Q258.164-31.641 258.164-43.594L258.164-43.594Z" fill="#f7f3e3" transform="translate(62.93350791931152, 339.3205032348633)"/></svg>