<svg xmlns="http://www.w3.org/2000/svg" viewBox="0 0 512 512"><circle cx="256" cy="256" r="256" fill="#000117"/><path d="M45.850-58.887L16.113-58.887Q16.113-78.369 28.345-90.894Q40.576-103.418 59.619-103.418L59.619-103.418Q68.701-103.418 78.149-101.221Q87.598-99.023 100.049-93.896L100.049-93.896Q109.131-90.527 115.210-89.063Q121.289-87.598 126.563-87.598L126.563-87.598Q141.211-87.598 141.211-103.564L141.211-103.564L170.654-103.564Q170.654-82.471 158.423-70.679Q146.191-58.887 124.365-58.887L124.365-58.887Q115.869-58.887 106.934-61.011Q97.998-63.135 82.178-68.848L82.178-68.848Q73.975-71.777 68.628-73.022Q63.281-74.268 59.326-74.268L59.326-74.268Q45.850-74.268 45.850-58.887L45.850-58.887ZM207.275 0L207.275-208.301L346.729-208.301L346.729-177.539L238.184-177.539L238.184 0L207.275 0ZM255.762-93.018L255.762-123.779L346.729-123.779L346.729-93.018L255.762-93.018ZM381.885 0L381.885-208.301L412.793-208.301L412.793 0L381.885 0Z" fill="#f7f3e3" transform="translate(41.5470027923584, 360.15049743652344)"/></svg>