<svg xmlns="http://www.w3.org/2000/svg" viewBox="0 0 512 512"><circle cx="256" cy="256" r="256" fill="#001117"/><path d="M11.279-11.074L11.279-32.505L77.827-56.704L11.279-81.006L11.279-102.334L114.844-64.702L114.844-48.706L11.279-11.074ZM140.479 0L140.479-145.811L238.096-145.811L238.096-124.277L162.114-124.277L162.114 0L140.479 0ZM174.419-65.112L174.419-86.646L238.096-86.646L238.096-65.112L174.419-65.112ZM264.756 0L264.756-145.811L342.275-145.811Q353.657-145.811 363.040-140.273Q372.422-134.736 377.959-125.457Q383.496-116.177 383.496-104.795L383.496-104.795L383.496-40.605Q383.496-29.429 377.959-20.200Q372.422-10.972 363.040-5.486Q353.657 0 342.275 0L342.275 0L264.756 0ZM286.392-21.636L342.275-21.636Q350.479-21.636 356.221-27.275Q361.963-32.915 361.963-40.913L361.963-40.913L361.963-104.795Q361.963-112.896 356.221-118.586Q350.479-124.277 342.275-124.277L342.275-124.277L286.392-124.277L286.392-21.636Z" fill="#f7f3e3" transform="translate(58.612494468688965, 328.90550231933594)"/></svg>