<svg xmlns="http://www.w3.org/2000/svg" viewBox="0 0 512 512"><circle cx="256" cy="256" r="256" fill="#001117"/><path d="M34.387-44.165L12.085-44.165Q12.085-58.777 21.259-68.170Q30.432-77.563 44.714-77.563L44.714-77.563Q51.526-77.563 58.612-75.916Q65.698-74.268 75.037-70.422L75.037-70.422Q81.848-67.896 86.407-66.797Q90.967-65.698 94.922-65.698L94.922-65.698Q105.908-65.698 105.908-77.673L105.908-77.673L127.991-77.673Q127.991-61.853 118.817-53.009Q109.644-44.165 93.274-44.165L93.274-44.165Q86.902-44.165 80.200-45.758Q73.499-47.351 61.633-51.636L61.633-51.636Q55.481-53.833 51.471-54.767Q47.461-55.701 44.495-55.701L44.495-55.701Q34.387-55.701 34.387-44.165L34.387-44.165ZM155.457 0L155.457-156.226L260.046-156.226L260.046-133.154L178.638-133.154L178.638 0L155.457 0ZM191.821-69.763L191.821-92.834L260.046-92.834L260.046-69.763L191.821-69.763ZM285.315-40.869L285.315-72.729Q285.315-84.045 290.863-93.384Q296.411-102.722 305.750-108.270Q315.088-113.818 326.404-113.818L326.404-113.818L353.540-113.818L353.540-90.637L326.404-90.637Q319.043-90.637 313.770-85.309Q308.496-79.980 308.496-72.510L308.496-72.510L308.496-41.089Q308.496-33.728 313.770-28.455Q319.043-23.181 326.404-23.181L326.404-23.181L366.724-23.181L366.724-156.226L389.905-156.226L389.905-23.181Q389.905-13.623 383.093-6.812Q376.282 0 366.724 0L366.724 0L326.404 0Q315.088 0 305.750-5.548Q296.411-11.096 290.863-20.380Q285.315-29.663 285.315-40.869L285.315-40.869Z" fill="#f7f3e3" transform="translate(55.00499629974365, 334.11299896240234)"/></svg>