<svg xmlns="http://www.w3.org/2000/svg" viewBox="0 0 512 512"><circle cx="256" cy="256" r="256" fill="#001117"/><path d="M33.012-42.398L11.602-42.398Q11.602-56.426 20.408-65.443Q29.215-74.461 42.926-74.461L42.926-74.461Q49.465-74.461 56.268-72.879Q63.070-71.297 72.035-67.605L72.035-67.605Q78.574-65.180 82.951-64.125Q87.328-63.070 91.125-63.070L91.125-63.070Q101.672-63.070 101.672-74.566L101.672-74.566L122.871-74.566Q122.871-59.379 114.064-50.889Q105.258-42.398 89.543-42.398L89.543-42.398Q83.426-42.398 76.992-43.928Q70.559-45.457 59.168-49.570L59.168-49.570Q53.262-51.680 49.412-52.576Q45.563-53.473 42.715-53.473L42.715-53.473Q33.012-53.473 33.012-42.398L33.012-42.398ZM149.238 0L149.238-149.977L249.645-149.977L249.645-127.828L171.492-127.828L171.492 0L149.238 0ZM184.148-66.973L184.148-89.121L249.645-89.121L249.645-66.973L184.148-66.973ZM277.066 0L277.066-149.977L356.801-149.977Q368.508-149.977 378.158-144.281Q387.809-138.586 393.504-129.041Q399.199-119.496 399.199-107.789L399.199-107.789L399.199-41.766Q399.199-30.270 393.504-20.777Q387.809-11.285 378.158-5.643Q368.508 0 356.801 0L356.801 0L277.066 0ZM299.320-22.254L356.801-22.254Q365.238-22.254 371.145-28.055Q377.051-33.855 377.051-42.082L377.051-42.082L377.051-107.789Q377.051-116.121 371.145-121.975Q365.238-127.828 356.801-127.828L356.801-127.828L299.320-127.828L299.320-22.254Z" fill="#f7f3e3" transform="translate(50.59949207305908, 330.9885025024414)"/></svg>