<svg xmlns="http://www.w3.org/2000/svg" viewBox="0 0 512 512"><circle cx="256" cy="256" r="256" fill="#001117"/><path d="M27.510-35.332L9.668-35.332Q9.668-47.021 17.007-54.536Q24.346-62.051 35.771-62.051L35.771-62.051Q41.221-62.051 46.890-60.732Q52.559-59.414 60.029-56.338L60.029-56.338Q65.479-54.316 69.126-53.438Q72.773-52.559 75.938-52.559L75.938-52.559Q84.727-52.559 84.727-62.139L84.727-62.139L102.393-62.139Q102.393-49.482 95.054-42.407Q87.715-35.332 74.619-35.332L74.619-35.332Q69.521-35.332 64.160-36.606Q58.799-37.881 49.307-41.309L49.307-41.309Q44.385-43.066 41.177-43.813Q37.969-44.561 35.596-44.561L35.596-44.561Q27.510-44.561 27.510-35.332L27.510-35.332ZM124.365 0L124.365-124.980L208.037-124.980L208.037-106.523L142.910-106.523L142.910 0L124.365 0ZM153.457-55.811L153.457-74.268L208.037-74.268L208.037-55.811L153.457-55.811ZM229.131-56.602L235.547-67.588L250.752-58.887L250.752-76.553L263.672-76.553L263.672-58.887L279.229-67.676L285.293-56.514L270.088-47.637L285.469-38.760L279.053-27.773L263.672-36.563L263.672-18.721L250.752-18.721L250.752-36.475L235.547-27.598L229.219-38.848L244.424-47.813L229.131-56.602ZM308.320 0L308.320-124.980L374.766-124.980Q384.521-124.980 392.563-120.234Q400.605-115.488 405.352-107.534Q410.098-99.580 410.098-89.824L410.098-89.824L410.098-34.805Q410.098-25.225 405.352-17.314Q400.605-9.404 392.563-4.702Q384.521 0 374.766 0L374.766 0L308.320 0ZM326.865-18.545L374.766-18.545Q381.797-18.545 386.719-23.379Q391.641-28.213 391.641-35.068L391.641-35.068L391.641-89.824Q391.641-96.768 386.719-101.646Q381.797-106.523 374.766-106.523L374.766-106.523L326.865-106.523L326.865-18.545Z" fill="#f7f3e3" transform="translate(46.117003440856934, 318.4900016784668)"/></svg>