<svg xmlns="http://www.w3.org/2000/svg" viewBox="0 0 512 512"><circle cx="256" cy="256" r="256" fill="#001117"/><path d="M20.508 0L20.508-208.301L159.961-208.301L159.961-177.539L51.416-177.539L51.416 0L20.508 0ZM68.994-93.018L68.994-123.779L159.961-123.779L159.961-93.018L68.994-93.018ZM193.652-54.492L193.652-96.973Q193.652-112.061 201.050-124.512Q208.447-136.963 220.898-144.360Q233.350-151.758 248.438-151.758L248.438-151.758L284.619-151.758L284.619-120.850L248.438-120.850Q238.623-120.850 231.592-113.745Q224.561-106.641 224.561-96.680L224.561-96.680L224.561-54.785Q224.561-44.971 231.592-37.939Q238.623-30.908 248.438-30.908L248.438-30.908L302.197-30.908L302.197-208.301L333.105-208.301L333.105-30.908Q333.105-18.164 324.023-9.082Q314.941 0 302.197 0L302.197 0L248.438 0Q233.350 0 220.898-7.397Q208.447-14.795 201.050-27.173Q193.652-39.551 193.652-54.492L193.652-54.492Z" fill="#f7f3e3" transform="translate(79.1934928894043, 360.15049743652344)"/></svg>