<svg xmlns="http://www.w3.org/2000/svg" viewBox="0 0 512 512"><circle cx="256" cy="256" r="256" fill="#001117"/><path d="M19.482 0L19.482-197.886L151.963-197.886L151.963-168.662L48.845-168.662L48.845 0L19.482 0ZM65.544-88.367L65.544-117.590L151.963-117.590L151.963-88.367L65.544-88.367ZM188.145 0L188.145-197.886L293.350-197.886Q308.796-197.886 321.530-190.371Q334.263-182.856 341.777-170.262Q349.292-157.668 349.292-142.222L349.292-142.222L349.292-55.107Q349.292-39.939 341.777-27.415Q334.263-14.890 321.530-7.445Q308.796 0 293.350 0L293.350 0L188.145 0ZM217.507-29.363L293.350-29.363Q304.482-29.363 312.275-37.017Q320.068-44.670 320.068-55.525L320.068-55.525L320.068-142.222Q320.068-153.215 312.275-160.939Q304.482-168.662 293.350-168.662L293.350-168.662L217.507-168.662L217.507-29.363Z" fill="#f7f3e3" transform="translate(71.61300086975098, 354.94300079345703)"/></svg>