<svg xmlns="http://www.w3.org/2000/svg" viewBox="0 0 512 512"><circle cx="256" cy="256" r="256" fill="#001117"/><path d="M17.578-58.594L17.578-149.707Q17.578-165.967 26.001-179.224Q34.424-192.480 48.486-200.391Q62.549-208.301 79.688-208.301L79.688-208.301L178.271-208.301L178.271-177.539L79.688-177.539Q66.797-177.539 57.642-169.409Q48.486-161.279 48.486-149.854L48.486-149.854L48.486-58.447Q48.486-47.021 57.642-38.892Q66.797-30.762 79.688-30.762L79.688-30.762L128.467-30.762Q141.504-30.762 150.586-38.892Q159.668-47.021 159.668-58.447L159.668-58.447L159.668-85.693L103.125-85.693L103.125-116.455L190.576-116.455L190.576-58.594Q190.576-42.480 182.227-29.150Q173.877-15.820 159.741-7.910Q145.605 0 128.467 0L128.467 0L79.688 0Q62.549 0 48.486-7.910Q34.424-15.820 26.001-29.150Q17.578-42.480 17.578-58.594L17.578-58.594ZM228.662 0L228.662-208.301L339.404-208.301Q355.664-208.301 369.067-200.391Q382.471-192.480 390.381-179.224Q398.291-165.967 398.291-149.707L398.291-149.707L398.291-58.008Q398.291-42.041 390.381-28.857Q382.471-15.674 369.067-7.837Q355.664 0 339.404 0L339.404 0L228.662 0ZM259.570-30.908L339.404-30.908Q351.123-30.908 359.326-38.965Q367.529-47.021 367.529-58.447L367.529-58.447L367.529-149.707Q367.529-161.279 359.326-169.409Q351.123-177.539 339.404-177.539L339.404-177.539L259.570-177.539L259.570-30.908Z" fill="#f7f3e3" transform="translate(48.06550979614258, 360.15049743652344)"/></svg>