<svg xmlns="http://www.w3.org/2000/svg" viewBox="0 0 512 512"><circle cx="256" cy="256" r="256" fill="#001117"/><path d="M38.972-50.054L13.696-50.054Q13.696-66.614 24.093-77.260Q34.490-87.905 50.676-87.905L50.676-87.905Q58.396-87.905 66.427-86.038Q74.458-84.170 85.042-79.812L85.042-79.812Q92.761-76.948 97.928-75.703Q103.096-74.458 107.578-74.458L107.578-74.458Q120.029-74.458 120.029-88.030L120.029-88.030L145.056-88.030Q145.056-70.100 134.659-60.077Q124.263-50.054 105.710-50.054L105.710-50.054Q98.489-50.054 90.894-51.859Q83.298-53.665 69.851-58.521L69.851-58.521Q62.878-61.011 58.334-62.069Q53.789-63.127 50.427-63.127L50.427-63.127Q38.972-63.127 38.972-50.054L38.972-50.054ZM173.694-49.805L173.694-127.251Q173.694-141.072 180.853-152.340Q188.013-163.608 199.966-170.332Q211.919-177.056 226.487-177.056L226.487-177.056L310.283-177.056L310.283-150.908L226.487-150.908Q215.530-150.908 207.748-143.998Q199.966-137.087 199.966-127.375L199.966-127.375L199.966-49.680Q199.966-39.968 207.748-33.058Q215.530-26.147 226.487-26.147L226.487-26.147L267.949-26.147Q279.031-26.147 286.750-33.058Q294.470-39.968 294.470-49.680L294.470-49.680L294.470-72.839L246.409-72.839L246.409-98.987L320.742-98.987L320.742-49.805Q320.742-36.108 313.645-24.778Q306.548-13.447 294.532-6.724Q282.517 0 267.949 0L267.949 0L226.487 0Q211.919 0 199.966-6.724Q188.013-13.447 180.853-24.778Q173.694-36.108 173.694-49.805L173.694-49.805ZM353.115 0L353.115-177.056L379.387-177.056L379.387 0L353.115 0Z" fill="#f7f3e3" transform="translate(59.458510398864746, 344.5279998779297)"/></svg>