<svg xmlns="http://www.w3.org/2000/svg" viewBox="0 0 512 512"><circle cx="256" cy="256" r="256" fill="#001117"/><path d="M27.510-35.332L9.668-35.332Q9.668-47.021 17.007-54.536Q24.346-62.051 35.771-62.051L35.771-62.051Q41.221-62.051 46.890-60.732Q52.559-59.414 60.029-56.338L60.029-56.338Q65.479-54.316 69.126-53.438Q72.773-52.559 75.938-52.559L75.938-52.559Q84.727-52.559 84.727-62.139L84.727-62.139L102.393-62.139Q102.393-49.482 95.054-42.407Q87.715-35.332 74.619-35.332L74.619-35.332Q69.521-35.332 64.160-36.606Q58.799-37.881 49.307-41.309L49.307-41.309Q44.385-43.066 41.177-43.813Q37.969-44.561 35.596-44.561L35.596-44.561Q27.510-44.561 27.510-35.332L27.510-35.332ZM122.607-35.156L122.607-89.824Q122.607-99.580 127.661-107.534Q132.715-115.488 141.152-120.234Q149.590-124.980 159.873-124.980L159.873-124.980L219.023-124.980L219.023-106.523L159.873-106.523Q152.139-106.523 146.646-101.646Q141.152-96.768 141.152-89.912L141.152-89.912L141.152-35.068Q141.152-28.213 146.646-23.335Q152.139-18.457 159.873-18.457L159.873-18.457L189.141-18.457Q196.963-18.457 202.412-23.335Q207.861-28.213 207.861-35.068L207.861-35.068L207.861-51.416L173.936-51.416L173.936-69.873L226.406-69.873L226.406-35.156Q226.406-25.488 221.396-17.490Q216.387-9.492 207.905-4.746Q199.424 0 189.141 0L189.141 0L159.873 0Q149.590 0 141.152-4.746Q132.715-9.492 127.661-17.490Q122.607-25.488 122.607-35.156L122.607-35.156ZM247.500-56.602L253.916-67.588L269.121-58.887L269.121-76.553L282.041-76.553L282.041-58.887L297.598-67.676L303.662-56.514L288.457-47.637L303.838-38.760L297.422-27.773L282.041-36.563L282.041-18.721L269.121-18.721L269.121-36.475L253.916-27.598L247.588-38.848L262.793-47.813L247.500-56.602ZM326.689 0L326.689-124.980L393.135-124.980Q402.891-124.980 410.933-120.234Q418.975-115.488 423.721-107.534Q428.467-99.580 428.467-89.824L428.467-89.824L428.467-34.805Q428.467-25.225 423.721-17.314Q418.975-9.404 410.933-4.702Q402.891 0 393.135 0L393.135 0L326.689 0ZM345.234-18.545L393.135-18.545Q400.166-18.545 405.088-23.379Q410.010-28.213 410.010-35.068L410.010-35.068L410.010-89.824Q410.010-96.768 405.088-101.646Q400.166-106.523 393.135-106.523L393.135-106.523L345.234-106.523L345.234-18.545Z" fill="#f7f3e3" transform="translate(36.932494163513184, 318.4900016784668)"/></svg>