<svg xmlns="http://www.w3.org/2000/svg" viewBox="0 0 512 512"><circle cx="256" cy="256" r="256" fill="#001117"/><path d="M21.094-70.313L21.094-179.648Q21.094-199.160 31.201-215.068Q41.309-230.977 58.184-240.469Q75.059-249.961 95.625-249.961L95.625-249.961L213.926-249.961L213.926-213.047L95.625-213.047Q80.156-213.047 69.170-203.291Q58.184-193.535 58.184-179.824L58.184-179.824L58.184-70.137Q58.184-56.426 69.170-46.670Q80.156-36.914 95.625-36.914L95.625-36.914L154.160-36.914Q169.805-36.914 180.703-46.670Q191.602-56.426 191.602-70.137L191.602-70.137L191.602-102.832L123.750-102.832L123.750-139.746L228.691-139.746L228.691-70.313Q228.691-50.977 218.672-34.980Q208.652-18.984 191.689-9.492Q174.727 0 154.160 0L154.160 0L95.625 0Q75.059 0 58.184-9.492Q41.309-18.984 31.201-34.980Q21.094-50.977 21.094-70.313L21.094-70.313ZM274.395 0L274.395-249.961L311.484-249.961L311.484 0L274.395 0Z" fill="#f7f3e3" transform="translate(89.71099281311035, 380.9804992675781)"/></svg>