<svg xmlns="http://www.w3.org/2000/svg" viewBox="0 0 512 512"><circle cx="256" cy="256" r="256" fill="#001117"/><path d="M9.668-41.748L9.668-55.459L98.438-87.715L98.438-69.434L41.396-48.604L98.438-27.861L98.438-9.492L9.668-41.748ZM118.652-35.156L118.652-89.824Q118.652-99.580 123.706-107.534Q128.760-115.488 137.197-120.234Q145.635-124.980 155.918-124.980L155.918-124.980L215.068-124.980L215.068-106.523L155.918-106.523Q148.184-106.523 142.690-101.646Q137.197-96.768 137.197-89.912L137.197-89.912L137.197-35.068Q137.197-28.213 142.690-23.335Q148.184-18.457 155.918-18.457L155.918-18.457L185.186-18.457Q193.008-18.457 198.457-23.335Q203.906-28.213 203.906-35.068L203.906-35.068L203.906-51.416L169.980-51.416L169.980-69.873L222.451-69.873L222.451-35.156Q222.451-25.488 217.441-17.490Q212.432-9.492 203.950-4.746Q195.469 0 185.186 0L185.186 0L155.918 0Q145.635 0 137.197-4.746Q128.760-9.492 123.706-17.490Q118.652-25.488 118.652-35.156L118.652-35.156ZM243.545-56.602L249.961-67.588L265.166-58.887L265.166-76.553L278.086-76.553L278.086-58.887L293.643-67.676L299.707-56.514L284.502-47.637L299.883-38.760L293.467-27.773L278.086-36.563L278.086-18.721L265.166-18.721L265.166-36.475L249.961-27.598L243.633-38.848L258.838-47.813L243.545-56.602ZM322.734 0L322.734-124.980L389.180-124.980Q398.936-124.980 406.978-120.234Q415.020-115.488 419.766-107.534Q424.512-99.580 424.512-89.824L424.512-89.824L424.512-34.805Q424.512-25.225 419.766-17.314Q415.020-9.404 406.978-4.702Q398.936 0 389.180 0L389.180 0L322.734 0ZM341.279-18.545L389.180-18.545Q396.211-18.545 401.133-23.379Q406.055-28.213 406.055-35.068L406.055-35.068L406.055-89.824Q406.055-96.768 401.133-101.646Q396.211-106.523 389.180-106.523L389.180-106.523L341.279-106.523L341.279-18.545Z" fill="#f7f3e3" transform="translate(38.91000270843506, 318.4900016784668)"/></svg>