<svg xmlns="http://www.w3.org/2000/svg" viewBox="0 0 512 512"><circle cx="256" cy="256" r="256" fill="#001117"/><path d="M14.063-46.875L14.063-119.766Q14.063-132.773 20.801-143.379Q27.539-153.984 38.789-160.313Q50.039-166.641 63.750-166.641L63.750-166.641L142.617-166.641L142.617-142.031L63.750-142.031Q53.438-142.031 46.113-135.527Q38.789-129.023 38.789-119.883L38.789-119.883L38.789-46.758Q38.789-37.617 46.113-31.113Q53.438-24.609 63.750-24.609L63.750-24.609L102.773-24.609Q113.203-24.609 120.469-31.113Q127.734-37.617 127.734-46.758L127.734-46.758L127.734-68.555L82.500-68.555L82.500-93.164L152.461-93.164L152.461-46.875Q152.461-33.984 145.781-23.320Q139.102-12.656 127.793-6.328Q116.484 0 102.773 0L102.773 0L63.750 0Q50.039 0 38.789-6.328Q27.539-12.656 20.801-23.320Q14.063-33.984 14.063-46.875L14.063-46.875ZM180.586-75.469L189.141-90.117L209.414-78.516L209.414-102.070L226.641-102.070L226.641-78.516L247.383-90.234L255.469-75.352L235.195-63.516L255.703-51.680L247.148-37.031L226.641-48.750L226.641-24.961L209.414-24.961L209.414-48.633L189.141-36.797L180.703-51.797L200.977-63.750L180.586-75.469ZM286.172 0L286.172-166.641L374.766-166.641Q387.773-166.641 398.496-160.313Q409.219-153.984 415.547-143.379Q421.875-132.773 421.875-119.766L421.875-119.766L421.875-46.406Q421.875-33.633 415.547-23.086Q409.219-12.539 398.496-6.270Q387.773 0 374.766 0L374.766 0L286.172 0ZM310.898-24.727L374.766-24.727Q384.141-24.727 390.703-31.172Q397.266-37.617 397.266-46.758L397.266-46.758L397.266-119.766Q397.266-129.023 390.703-135.527Q384.141-142.031 374.766-142.031L374.766-142.031L310.898-142.031L310.898-24.727Z" fill="#f7f3e3" transform="translate(38.0309944152832, 339.3205032348633)"/></svg>