<svg xmlns="http://www.w3.org/2000/svg" viewBox="0 0 512 512"><circle cx="256" cy="256" r="256" fill="#001117"/><path d="M13.696-13.447L13.696-39.470L94.504-68.855L13.696-98.364L13.696-124.263L139.453-78.567L139.453-59.143L13.696-13.447ZM168.091-49.805L168.091-127.251Q168.091-141.072 175.250-152.340Q182.410-163.608 194.363-170.332Q206.316-177.056 220.884-177.056L220.884-177.056L304.680-177.056L304.680-150.908L220.884-150.908Q209.927-150.908 202.145-143.998Q194.363-137.087 194.363-127.375L194.363-127.375L194.363-49.680Q194.363-39.968 202.145-33.058Q209.927-26.147 220.884-26.147L220.884-26.147L262.346-26.147Q273.428-26.147 281.147-33.058Q288.867-39.968 288.867-49.680L288.867-49.680L288.867-72.839L240.806-72.839L240.806-98.987L315.139-98.987L315.139-49.805Q315.139-36.108 308.042-24.778Q300.945-13.447 288.929-6.724Q276.914 0 262.346 0L262.346 0L220.884 0Q206.316 0 194.363-6.724Q182.410-13.447 175.250-24.778Q168.091-36.108 168.091-49.805L168.091-49.805ZM347.512 0L347.512-177.056L373.784-177.056L373.784 0L347.512 0Z" fill="#f7f3e3" transform="translate(62.260008811950684, 344.5279998779297)"/></svg>