<svg xmlns="http://www.w3.org/2000/svg" viewBox="0 0 512 512"><circle cx="256" cy="256" r="256" fill="#001117"/><path d="M11.279-48.706L11.279-64.702L114.844-102.334L114.844-81.006L48.296-56.704L114.844-32.505L114.844-11.074L11.279-48.706ZM138.428-41.016L138.428-104.795Q138.428-116.177 144.324-125.457Q150.220-134.736 160.063-140.273Q169.907-145.811 181.904-145.811L181.904-145.811L250.913-145.811L250.913-124.277L181.904-124.277Q172.881-124.277 166.472-118.586Q160.063-112.896 160.063-104.897L160.063-104.897L160.063-40.913Q160.063-32.915 166.472-27.224Q172.881-21.533 181.904-21.533L181.904-21.533L216.050-21.533Q225.176-21.533 231.533-27.224Q237.891-32.915 237.891-40.913L237.891-40.913L237.891-59.985L198.311-59.985L198.311-81.519L259.526-81.519L259.526-41.016Q259.526-29.736 253.682-20.405Q247.837-11.074 237.942-5.537Q228.047 0 216.050 0L216.050 0L181.904 0Q169.907 0 160.063-5.537Q150.220-11.074 144.324-20.405Q138.428-29.736 138.428-41.016L138.428-41.016ZM286.187 0L286.187-145.811L363.706-145.811Q375.088-145.811 384.470-140.273Q393.853-134.736 399.390-125.457Q404.927-116.177 404.927-104.795L404.927-104.795L404.927-40.605Q404.927-29.429 399.390-20.200Q393.853-10.972 384.470-5.486Q375.088 0 363.706 0L363.706 0L286.187 0ZM307.822-21.636L363.706-21.636Q371.909-21.636 377.651-27.275Q383.394-32.915 383.394-40.913L383.394-40.913L383.394-104.795Q383.394-112.896 377.651-118.586Q371.909-124.277 363.706-124.277L363.706-124.277L307.822-124.277L307.822-21.636Z" fill="#f7f3e3" transform="translate(47.89699459075928, 328.90550231933594)"/></svg>