<svg xmlns="http://www.w3.org/2000/svg" viewBox="0 0 512 512"><circle cx="256" cy="256" r="256" fill="#001117"/><path d="M24.170-48.779L24.170-208.301L55.078-208.301L55.078-48.779L24.170-48.779ZM20.508-17.578L20.508-17.578Q20.508-25.488 26.074-31.055Q31.641-36.621 39.551-36.621L39.551-36.621Q47.607-36.621 53.101-31.128Q58.594-25.635 58.594-17.578L58.594-17.578Q58.594-9.521 53.101-4.028Q47.607 1.465 39.551 1.465L39.551 1.465Q31.641 1.465 26.074-4.102Q20.508-9.668 20.508-17.578ZM84.961 0L84.961-30.762L122.168-30.762Q133.740-30.762 141.943-38.818Q150.146-46.875 150.146-58.301L150.146-58.301L150.146-208.301L180.908-208.301L180.908-57.861Q180.908-41.895 172.998-28.784Q165.088-15.674 151.758-7.837Q138.428 0 122.168 0L122.168 0L84.961 0ZM217.529-55.078L217.529-96.973Q217.529-112.061 225.146-124.512Q232.764-136.963 245.508-144.360Q258.252-151.758 273.779-151.758L273.779-151.758L359.180-151.758L359.180-120.850L273.779-120.850Q263.379-120.850 255.908-113.745Q248.438-106.641 248.438-96.533L248.438-96.533L248.438-55.371Q248.438-45.264 255.835-38.086Q263.232-30.908 273.779-30.908L273.779-30.908L359.180-30.908L359.180 0L273.779 0Q258.252 0 245.508-7.471Q232.764-14.941 225.146-27.466Q217.529-39.990 217.529-55.078L217.529-55.078Z" fill="#f7f3e3" transform="translate(66.15600204467773, 359.4179992675781)"/></svg>