<svg xmlns="http://www.w3.org/2000/svg" viewBox="0 0 512 512"><circle cx="256" cy="256" r="256" fill="#001117"/><path d="M24.609 0L24.609-249.961L61.699-249.961L61.699-148.711L80.156-148.711L179.297-249.961L230.449-249.961L109.512-126.387L238.008 0L186.152 0L72.598-111.621L61.699-111.621L61.699 0L24.609 0ZM257.344-145.020L257.344-182.109L281.074-182.109L281.074-249.961L318.164-249.961L318.164-182.109L374.238-182.109L374.238-145.020L318.164-145.020L318.164-51.680Q318.164-45.703 322.822-41.396Q327.480-37.090 333.984-37.090L333.984-37.090L374.238-37.090L374.238 0L333.457 0Q319.043 0 307.178-6.943Q295.313-13.887 288.193-25.576Q281.074-37.266 281.074-51.504L281.074-51.504L281.074-145.020L257.344-145.020Z" fill="#f7f3e3" transform="translate(56.57650184631348, 380.9804992675781)"/></svg>