<svg xmlns="http://www.w3.org/2000/svg" viewBox="0 0 512 512"><circle cx="256" cy="256" r="256" fill="#001117"/><path d="M2.344 4.922L132.539-180.469L160.664-180.469L30.469 4.922L2.344 4.922ZM179.414 0L179.414-166.641L204.141-166.641L204.141-99.141L216.445-99.141L282.539-166.641L316.641-166.641L236.016-84.258L321.680 0L287.109 0L211.406-74.414L204.141-74.414L204.141 0L179.414 0ZM334.570-96.680L334.570-121.406L350.391-121.406L350.391-166.641L375.117-166.641L375.117-121.406L412.500-121.406L412.500-96.680L375.117-96.680L375.117-34.453Q375.117-30.469 378.223-27.598Q381.328-24.727 385.664-24.727L385.664-24.727L412.500-24.727L412.500 0L385.313 0Q375.703 0 367.793-4.629Q359.883-9.258 355.137-17.051Q350.391-24.844 350.391-34.336L350.391-34.336L350.391-96.680L334.570-96.680Z" fill="#f7f3e3" transform="translate(48.57799696922302, 343.77349853515625)"/></svg>