<svg xmlns="http://www.w3.org/2000/svg" viewBox="0 0 512 512"><circle cx="256" cy="256" r="256" fill="#001117"/><path d="M20.508 0L20.508-208.301L51.416-208.301L51.416-123.926L66.797-123.926L149.414-208.301L192.041-208.301L91.260-105.322L198.340 0L155.127 0L60.498-93.018L51.416-93.018L51.416 0L20.508 0ZM220.313-54.492L220.313-96.973Q220.313-112.061 227.710-124.512Q235.107-136.963 247.559-144.360Q260.010-151.758 275.098-151.758L275.098-151.758L311.279-151.758L311.279-120.850L275.098-120.850Q265.283-120.850 258.252-113.745Q251.221-106.641 251.221-96.680L251.221-96.680L251.221-54.785Q251.221-44.971 258.252-37.939Q265.283-30.908 275.098-30.908L275.098-30.908L328.857-30.908L328.857-208.301L359.766-208.301L359.766-30.908Q359.766-18.164 350.684-9.082Q341.602 0 328.857 0L328.857 0L275.098 0Q260.010 0 247.559-7.397Q235.107-14.795 227.710-27.173Q220.313-39.551 220.313-54.492L220.313-54.492Z" fill="#f7f3e3" transform="translate(65.86300277709961, 360.15049743652344)"/></svg>