<svg xmlns="http://www.w3.org/2000/svg" viewBox="0 0 512 512"><circle cx="256" cy="256" r="256" fill="#001117"/><path d="M36.680-47.109L12.891-47.109Q12.891-62.695 22.676-72.715Q32.461-82.734 47.695-82.734L47.695-82.734Q54.961-82.734 62.520-80.977Q70.078-79.219 80.039-75.117L80.039-75.117Q87.305-72.422 92.168-71.250Q97.031-70.078 101.250-70.078L101.250-70.078Q112.969-70.078 112.969-82.852L112.969-82.852L136.523-82.852Q136.523-65.977 126.738-56.543Q116.953-47.109 99.492-47.109L99.492-47.109Q92.695-47.109 85.547-48.809Q78.398-50.508 65.742-55.078L65.742-55.078Q59.180-57.422 54.902-58.418Q50.625-59.414 47.461-59.414L47.461-59.414Q36.680-59.414 36.680-47.109L36.680-47.109ZM165.820 0L165.820-166.641L190.547-166.641L190.547-99.141L202.852-99.141L268.945-166.641L303.047-166.641L222.422-84.258L308.086 0L273.516 0L197.813-74.414L190.547-74.414L190.547 0L165.820 0ZM320.977-96.680L320.977-121.406L336.797-121.406L336.797-166.641L361.523-166.641L361.523-121.406L398.906-121.406L398.906-96.680L361.523-96.680L361.523-34.453Q361.523-30.469 364.629-27.598Q367.734-24.727 372.070-24.727L372.070-24.727L398.906-24.727L398.906 0L371.719 0Q362.109 0 354.199-4.629Q346.289-9.258 341.543-17.051Q336.797-24.844 336.797-34.336L336.797-34.336L336.797-96.680L320.977-96.680Z" fill="#f7f3e3" transform="translate(50.1014928817749, 339.3205032348633)"/></svg>