<svg xmlns="http://www.w3.org/2000/svg" viewBox="0 0 512 512"><circle cx="256" cy="256" r="256" fill="#001117"/><path d="M14.063-54.609L14.063-75.234L87.539-75.234L87.539-54.609L14.063-54.609ZM118.008 0L118.008-166.641L142.734-166.641L142.734-99.141L155.039-99.141L221.133-166.641L255.234-166.641L174.609-84.258L260.273 0L225.703 0L150-74.414L142.734-74.414L142.734 0L118.008 0ZM273.164-96.680L273.164-121.406L288.984-121.406L288.984-166.641L313.711-166.641L313.711-121.406L351.094-121.406L351.094-96.680L313.711-96.680L313.711-34.453Q313.711-30.469 316.816-27.598Q319.922-24.727 324.258-24.727L324.258-24.727L351.094-24.727L351.094 0L323.906 0Q314.297 0 306.387-4.629Q298.477-9.258 293.730-17.051Q288.984-24.844 288.984-34.336L288.984-34.336L288.984-96.680L273.164-96.680Z" fill="#f7f3e3" transform="translate(73.4214973449707, 339.3205032348633)"/></svg>