<svg xmlns="http://www.w3.org/2000/svg" viewBox="0 0 512 512"><circle cx="256" cy="256" r="256" fill="#001117"/><path d="M11.279-48.706L11.279-64.702L114.844-102.334L114.844-81.006L48.296-56.704L114.844-32.505L114.844-11.074L11.279-48.706ZM140.479 0L140.479-145.811L162.114-145.811L162.114-86.748L172.881-86.748L230.713-145.811L260.552-145.811L190.005-73.726L264.961 0L234.712 0L168.472-65.112L162.114-65.112L162.114 0L140.479 0ZM283.418 0L283.418-145.811L360.938-145.811Q372.319-145.811 381.702-140.273Q391.084-134.736 396.621-125.457Q402.158-116.177 402.158-104.795L402.158-104.795L402.158-40.605Q402.158-29.429 396.621-20.200Q391.084-10.972 381.702-5.486Q372.319 0 360.938 0L360.938 0L283.418 0ZM305.054-21.636L360.938-21.636Q369.141-21.636 374.883-27.275Q380.625-32.915 380.625-40.913L380.625-40.913L380.625-104.795Q380.625-112.896 374.883-118.586Q369.141-124.277 360.938-124.277L360.938-124.277L305.054-124.277L305.054-21.636Z" fill="#f7f3e3" transform="translate(49.281500816345215, 328.90550231933594)"/></svg>