<svg xmlns="http://www.w3.org/2000/svg" viewBox="0 0 512 512"><circle cx="256" cy="256" r="256" fill="#001117"/><path d="M19.482 0L19.482-197.886L48.845-197.886L48.845-117.729L63.457-117.729L141.943-197.886L182.439-197.886L86.697-100.056L188.423 0L147.371 0L57.473-88.367L48.845-88.367L48.845 0L19.482 0ZM213.472 0L213.472-197.886L318.677-197.886Q334.124-197.886 346.857-190.371Q359.590-182.856 367.104-170.262Q374.619-157.668 374.619-142.222L374.619-142.222L374.619-55.107Q374.619-39.939 367.104-27.415Q359.590-14.890 346.857-7.445Q334.124 0 318.677 0L318.677 0L213.472 0ZM242.834-29.363L318.677-29.363Q329.810-29.363 337.603-37.017Q345.396-44.670 345.396-55.525L345.396-55.525L345.396-142.222Q345.396-153.215 337.603-160.939Q329.810-168.662 318.677-168.662L318.677-168.662L242.834-168.662L242.834-29.363Z" fill="#f7f3e3" transform="translate(58.94950294494629, 354.94300079345703)"/></svg>