<svg xmlns="http://www.w3.org/2000/svg" viewBox="0 0 512 512"><circle cx="256" cy="256" r="256" fill="#001117"/><path d="M32.095-41.221L11.279-41.221Q11.279-54.858 19.841-63.625Q28.403-72.393 41.733-72.393L41.733-72.393Q48.091-72.393 54.705-70.854Q61.318-69.316 70.034-65.728L70.034-65.728Q76.392-63.369 80.647-62.344Q84.902-61.318 88.594-61.318L88.594-61.318Q98.848-61.318 98.848-72.495L98.848-72.495L119.458-72.495Q119.458-57.729 110.896-49.475Q102.334-41.221 87.056-41.221L87.056-41.221Q81.108-41.221 74.854-42.708Q68.599-44.194 57.524-48.193L57.524-48.193Q51.782-50.244 48.040-51.116Q44.297-51.987 41.528-51.987L41.528-51.987Q32.095-51.987 32.095-41.221L32.095-41.221ZM145.093 0L145.093-145.811L166.729-145.811L166.729-86.748L177.495-86.748L235.327-145.811L265.166-145.811L194.619-73.726L269.575 0L239.326 0L173.086-65.112L166.729-65.112L166.729 0L145.093 0ZM288.032 0L288.032-145.811L365.552-145.811Q376.934-145.811 386.316-140.273Q395.698-134.736 401.235-125.457Q406.772-116.177 406.772-104.795L406.772-104.795L406.772-40.605Q406.772-29.429 401.235-20.200Q395.698-10.972 386.316-5.486Q376.934 0 365.552 0L365.552 0L288.032 0ZM309.668-21.636L365.552-21.636Q373.755-21.636 379.497-27.275Q385.239-32.915 385.239-40.913L385.239-40.913L385.239-104.795Q385.239-112.896 379.497-118.586Q373.755-124.277 365.552-124.277L365.552-124.277L309.668-124.277L309.668-21.636Z" fill="#f7f3e3" transform="translate(46.974493980407715, 328.90550231933594)"/></svg>