<svg xmlns="http://www.w3.org/2000/svg" viewBox="0 0 512 512"><circle cx="256" cy="256" r="256" fill="#001117"/><path d="M34.387-44.165L12.085-44.165Q12.085-58.777 21.259-68.170Q30.432-77.563 44.714-77.563L44.714-77.563Q51.526-77.563 58.612-75.916Q65.698-74.268 75.037-70.422L75.037-70.422Q81.848-67.896 86.407-66.797Q90.967-65.698 94.922-65.698L94.922-65.698Q105.908-65.698 105.908-77.673L105.908-77.673L127.991-77.673Q127.991-61.853 118.817-53.009Q109.644-44.165 93.274-44.165L93.274-44.165Q86.902-44.165 80.200-45.758Q73.499-47.351 61.633-51.636L61.633-51.636Q55.481-53.833 51.471-54.767Q47.461-55.701 44.495-55.701L44.495-55.701Q34.387-55.701 34.387-44.165L34.387-44.165ZM155.457 0L155.457-156.226L178.638-156.226L178.638-92.944L190.173-92.944L252.136-156.226L284.106-156.226L208.521-78.992L288.831 0L256.421 0L185.449-69.763L178.638-69.763L178.638 0L155.457 0ZM305.310-40.869L305.310-72.729Q305.310-84.045 310.858-93.384Q316.406-102.722 325.745-108.270Q335.083-113.818 346.399-113.818L346.399-113.818L373.535-113.818L373.535-90.637L346.399-90.637Q339.038-90.637 333.765-85.309Q328.491-79.980 328.491-72.510L328.491-72.510L328.491-41.089Q328.491-33.728 333.765-28.455Q339.038-23.181 346.399-23.181L346.399-23.181L386.719-23.181L386.719-156.226L409.900-156.226L409.900-23.181Q409.900-13.623 403.088-6.812Q396.277 0 386.719 0L386.719 0L346.399 0Q335.083 0 325.745-5.548Q316.406-11.096 310.858-20.380Q305.310-29.663 305.310-40.869L305.310-40.869Z" fill="#f7f3e3" transform="translate(45.0074987411499, 334.11299896240234)"/></svg>