<svg xmlns="http://www.w3.org/2000/svg" viewBox="0 0 512 512"><circle cx="256" cy="256" r="256" fill="#001117"/><path d="M10.459 0L10.459-111.973L94.541-111.973L94.541 0L10.459 0ZM20.918-10.459L84.082-10.459L84.082-101.514L20.918-101.514L20.918-10.459ZM119.355 0L119.355-145.811L140.991-145.811L140.991-86.748L151.758-86.748L209.590-145.811L239.429-145.811L168.882-73.726L243.838 0L213.589 0L147.349-65.112L140.991-65.112L140.991 0L119.355 0ZM255.117-84.595L255.117-106.230L268.960-106.230L268.960-145.811L290.596-145.811L290.596-106.230L323.306-106.230L323.306-84.595L290.596-84.595L290.596-30.146Q290.596-26.660 293.313-24.148Q296.030-21.636 299.824-21.636L299.824-21.636L323.306-21.636L323.306 0L299.517 0Q291.108 0 284.187-4.050Q277.266-8.101 273.113-14.919Q268.960-21.738 268.960-30.044L268.960-30.044L268.960-84.595L255.117-84.595Z" fill="#f7f3e3" transform="translate(89.11750793457031, 328.90550231933594)"/></svg>