<svg xmlns="http://www.w3.org/2000/svg" viewBox="0 0 512 512"><circle cx="256" cy="256" r="256" fill="#001117"/><path d="M10.547-142.031L10.547-166.641L83.086-166.641Q93.633-166.641 102.129-161.719Q110.625-156.797 115.605-148.301Q120.586-139.805 120.586-129.258L120.586-129.258L120.586-112.617Q120.586-101.602 116.953-93.809Q113.320-86.016 104.941-80.215Q96.563-74.414 82.383-69.258L82.383-69.258Q70.781-64.922 66.621-62.168Q62.461-59.414 62.461-56.016L62.461-56.016L62.461-35.977L37.734-35.977L37.734-56.016Q37.734-68.906 46.699-77.344Q55.664-85.781 77.695-93.633L77.695-93.633Q87.656-97.148 91.758-101.602Q95.859-106.055 95.859-113.320L95.859-113.320L95.859-129.258Q95.859-134.531 92.109-138.281Q88.359-142.031 83.086-142.031L83.086-142.031L10.547-142.031ZM36.094-12.773L36.094-12.773Q36.094-18.633 40.195-22.676Q44.297-26.719 50.039-26.719L50.039-26.719Q55.898-26.719 59.941-22.676Q63.984-18.633 63.984-12.773L63.984-12.773Q63.984-7.031 59.941-2.930Q55.898 1.172 50.039 1.172L50.039 1.172Q44.297 1.172 40.195-2.930Q36.094-7.031 36.094-12.773ZM151.055 0L151.055-166.641L175.781-166.641L175.781-99.141L188.086-99.141L254.180-166.641L288.281-166.641L207.656-84.258L293.320 0L258.750 0L183.047-74.414L175.781-74.414L175.781 0L151.055 0ZM306.211-96.680L306.211-121.406L322.031-121.406L322.031-166.641L346.758-166.641L346.758-121.406L384.141-121.406L384.141-96.680L346.758-96.680L346.758-34.453Q346.758-30.469 349.863-27.598Q352.969-24.727 357.305-24.727L357.305-24.727L384.141-24.727L384.141 0L356.953 0Q347.344 0 339.434-4.629Q331.523-9.258 326.777-17.051Q322.031-24.844 322.031-34.336L322.031-34.336L322.031-96.680L306.211-96.680Z" fill="#f7f3e3" transform="translate(58.65600299835205, 338.73450469970703)"/></svg>