<svg xmlns="http://www.w3.org/2000/svg" viewBox="0 0 512 512"><circle cx="256" cy="256" r="256" fill="#001117"/><path d="M18.457-61.436L18.457-84.639L72.378-84.639L72.378-137.241L95.581-137.241L95.581-84.639L149.502-84.639L149.502-61.436L95.581-61.436L95.581-8.965L72.378-8.965L72.378-61.436L18.457-61.436ZM186.416 0L186.416-187.471L214.233-187.471L214.233-111.533L228.076-111.533L302.432-187.471L340.796-187.471L250.093-94.790L346.465 0L307.573 0L222.407-83.716L214.233-83.716L214.233 0L186.416 0ZM360.967-108.765L360.967-136.582L378.765-136.582L378.765-187.471L406.582-187.471L406.582-136.582L448.638-136.582L448.638-108.765L406.582-108.765L406.582-38.760Q406.582-34.277 410.076-31.047Q413.569-27.817 418.447-27.817L418.447-27.817L448.638-27.817L448.638 0L418.052 0Q407.241 0 398.342-5.208Q389.443-10.415 384.104-19.182Q378.765-27.949 378.765-38.628L378.765-38.628L378.765-108.765L360.967-108.765Z" fill="#f7f3e3" transform="translate(22.452499389648438, 349.7354965209961)"/></svg>