<svg xmlns="http://www.w3.org/2000/svg" viewBox="0 0 512 512"><circle cx="256" cy="256" r="256" fill="#001117"/><path d="M11.953 0L11.953-127.969L108.047-127.969L108.047 0L11.953 0ZM23.906-11.953L96.094-11.953L96.094-116.016L23.906-116.016L23.906-11.953ZM136.406 0L136.406-166.641L161.133-166.641L161.133-99.141L173.438-99.141L239.531-166.641L273.633-166.641L193.008-84.258L278.672 0L244.102 0L168.398-74.414L161.133-74.414L161.133 0L136.406 0ZM291.563-96.680L291.563-121.406L307.383-121.406L307.383-166.641L332.109-166.641L332.109-121.406L369.492-121.406L369.492-96.680L332.109-96.680L332.109-34.453Q332.109-30.469 335.215-27.598Q338.320-24.727 342.656-24.727L342.656-24.727L369.492-24.727L369.492 0L342.305 0Q332.695 0 324.785-4.629Q316.875-9.258 312.129-17.051Q307.383-24.844 307.383-34.336L307.383-34.336L307.383-96.680L291.563-96.680Z" fill="#f7f3e3" transform="translate(65.27749919891357, 339.3205032348633)"/></svg>