<svg xmlns="http://www.w3.org/2000/svg" viewBox="0 0 512 512"><circle cx="256" cy="256" r="256" fill="#001117"/><path d="M15.820-61.436L15.820-84.639L98.481-84.639L98.481-61.436L15.820-61.436ZM132.759 0L132.759-187.471L160.576-187.471L160.576-111.533L174.419-111.533L248.774-187.471L287.139-187.471L196.436-94.790L292.808 0L253.916 0L168.750-83.716L160.576-83.716L160.576 0L132.759 0ZM307.310-108.765L307.310-136.582L325.107-136.582L325.107-187.471L352.925-187.471L352.925-136.582L394.980-136.582L394.980-108.765L352.925-108.765L352.925-38.760Q352.925-34.277 356.418-31.047Q359.912-27.817 364.790-27.817L364.790-27.817L394.980-27.817L394.980 0L364.395 0Q353.584 0 344.685-5.208Q335.786-10.415 330.447-19.182Q325.107-27.949 325.107-38.628L325.107-38.628L325.107-108.765L307.310-108.765Z" fill="#f7f3e3" transform="translate(50.599998474121094, 349.7354965209961)"/></svg>