<svg xmlns="http://www.w3.org/2000/svg" viewBox="0 0 512 512"><circle cx="256" cy="256" r="256" fill="#001117"/><path d="M27.510-35.332L9.668-35.332Q9.668-47.021 17.007-54.536Q24.346-62.051 35.771-62.051L35.771-62.051Q41.221-62.051 46.890-60.732Q52.559-59.414 60.029-56.338L60.029-56.338Q65.479-54.316 69.126-53.438Q72.773-52.559 75.938-52.559L75.938-52.559Q84.727-52.559 84.727-62.139L84.727-62.139L102.393-62.139Q102.393-49.482 95.054-42.407Q87.715-35.332 74.619-35.332L74.619-35.332Q69.521-35.332 64.160-36.606Q58.799-37.881 49.307-41.309L49.307-41.309Q44.385-43.066 41.177-43.813Q37.969-44.561 35.596-44.561L35.596-44.561Q27.510-44.561 27.510-35.332L27.510-35.332ZM124.365 0L124.365-124.980L142.910-124.980L142.910-74.355L152.139-74.355L201.709-124.980L227.285-124.980L166.816-63.193L231.064 0L205.137 0L148.359-55.811L142.910-55.811L142.910 0L124.365 0ZM245.127-56.602L251.543-67.588L266.748-58.887L266.748-76.553L279.668-76.553L279.668-58.887L295.225-67.676L301.289-56.514L286.084-47.637L301.465-38.760L295.049-27.773L279.668-36.563L279.668-18.721L266.748-18.721L266.748-36.475L251.543-27.598L245.215-38.848L260.420-47.813L245.127-56.602ZM324.316 0L324.316-124.980L390.762-124.980Q400.518-124.980 408.560-120.234Q416.602-115.488 421.348-107.534Q426.094-99.580 426.094-89.824L426.094-89.824L426.094-34.805Q426.094-25.225 421.348-17.314Q416.602-9.404 408.560-4.702Q400.518 0 390.762 0L390.762 0L324.316 0ZM342.861-18.545L390.762-18.545Q397.793-18.545 402.715-23.379Q407.637-28.213 407.637-35.068L407.637-35.068L407.637-89.824Q407.637-96.768 402.715-101.646Q397.793-106.523 390.762-106.523L390.762-106.523L342.861-106.523L342.861-18.545Z" fill="#f7f3e3" transform="translate(38.11900234222412, 318.4900016784668)"/></svg>