<svg xmlns="http://www.w3.org/2000/svg" viewBox="0 0 512 512"><circle cx="256" cy="256" r="256" fill="#001117"/><path d="M16.406 0L16.406-166.641L41.133-166.641L41.133-99.141L53.438-99.141L119.531-166.641L153.633-166.641L73.008-84.258L158.672 0L124.102 0L48.398-74.414L41.133-74.414L41.133 0L16.406 0ZM177.422-75.469L185.977-90.117L206.250-78.516L206.250-102.070L223.477-102.070L223.477-78.516L244.219-90.234L252.305-75.352L232.031-63.516L252.539-51.680L243.984-37.031L223.477-48.750L223.477-24.961L206.250-24.961L206.250-48.633L185.977-36.797L177.539-51.797L197.813-63.750L177.422-75.469ZM283.008 0L283.008-166.641L371.602-166.641Q384.609-166.641 395.332-160.313Q406.055-153.984 412.383-143.379Q418.711-132.773 418.711-119.766L418.711-119.766L418.711-46.406Q418.711-33.633 412.383-23.086Q406.055-12.539 395.332-6.270Q384.609 0 371.602 0L371.602 0L283.008 0ZM307.734-24.727L371.602-24.727Q380.977-24.727 387.539-31.172Q394.102-37.617 394.102-46.758L394.102-46.758L394.102-119.766Q394.102-129.023 387.539-135.527Q380.977-142.031 371.602-142.031L371.602-142.031L307.734-142.031L307.734-24.727Z" fill="#f7f3e3" transform="translate(38.44150352478027, 339.3205032348633)"/></svg>