<svg xmlns="http://www.w3.org/2000/svg" viewBox="0 0 512 512"><circle cx="256" cy="256" r="256" fill="#001117"/><path d="M16.406 0L16.406-166.641L41.133-166.641L41.133-99.141L53.438-99.141L119.531-166.641L153.633-166.641L73.008-84.258L158.672 0L124.102 0L48.398-74.414L41.133-74.414L41.133 0L16.406 0ZM177.422-75.469L185.977-90.117L206.250-78.516L206.250-102.070L223.477-102.070L223.477-78.516L244.219-90.234L252.305-75.352L232.031-63.516L252.539-51.680L243.984-37.031L223.477-48.750L223.477-24.961L206.250-24.961L206.250-48.633L185.977-36.797L177.539-51.797L197.813-63.750L177.422-75.469ZM279.492-43.594L279.492-77.578Q279.492-89.648 285.410-99.609Q291.328-109.570 301.289-115.488Q311.250-121.406 323.320-121.406L323.320-121.406L352.266-121.406L352.266-96.680L323.320-96.680Q315.469-96.680 309.844-90.996Q304.219-85.313 304.219-77.344L304.219-77.344L304.219-43.828Q304.219-35.977 309.844-30.352Q315.469-24.727 323.320-24.727L323.320-24.727L366.328-24.727L366.328-166.641L391.055-166.641L391.055-24.727Q391.055-14.531 383.789-7.266Q376.523 0 366.328 0L366.328 0L323.320 0Q311.250 0 301.289-5.918Q291.328-11.836 285.410-21.738Q279.492-31.641 279.492-43.594L279.492-43.594Z" fill="#f7f3e3" transform="translate(52.26950645446777, 339.3205032348633)"/></svg>