<svg xmlns="http://www.w3.org/2000/svg" viewBox="0 0 512 512"><circle cx="256" cy="256" r="256" fill="#001117"/><path d="M9.668-41.748L9.668-55.459L98.438-87.715L98.438-69.434L41.396-48.604L98.438-27.861L98.438-9.492L9.668-41.748ZM120.410 0L120.410-124.980L138.955-124.980L138.955-74.355L148.184-74.355L197.754-124.980L223.330-124.980L162.861-63.193L227.109 0L201.182 0L144.404-55.811L138.955-55.811L138.955 0L120.410 0ZM241.172-56.602L247.588-67.588L262.793-58.887L262.793-76.553L275.713-76.553L275.713-58.887L291.270-67.676L297.334-56.514L282.129-47.637L297.510-38.760L291.094-27.773L275.713-36.563L275.713-18.721L262.793-18.721L262.793-36.475L247.588-27.598L241.260-38.848L256.465-47.813L241.172-56.602ZM320.361 0L320.361-124.980L386.807-124.980Q396.563-124.980 404.604-120.234Q412.646-115.488 417.393-107.534Q422.139-99.580 422.139-89.824L422.139-89.824L422.139-34.805Q422.139-25.225 417.393-17.314Q412.646-9.404 404.604-4.702Q396.563 0 386.807 0L386.807 0L320.361 0ZM338.906-18.545L386.807-18.545Q393.838-18.545 398.760-23.379Q403.682-28.213 403.682-35.068L403.682-35.068L403.682-89.824Q403.682-96.768 398.760-101.646Q393.838-106.523 386.807-106.523L386.807-106.523L338.906-106.523L338.906-18.545Z" fill="#f7f3e3" transform="translate(40.096495628356934, 318.4900016784668)"/></svg>