<svg xmlns="http://www.w3.org/2000/svg" viewBox="0 0 512 512"><circle cx="256" cy="256" r="256" fill="#001117"/><path d="M28.427-36.510L9.990-36.510Q9.990-48.589 17.574-56.354Q25.157-64.119 36.964-64.119L36.964-64.119Q42.595-64.119 48.453-62.757Q54.311-61.395 62.030-58.216L62.030-58.216Q67.661-56.127 71.430-55.219Q75.199-54.311 78.469-54.311L78.469-54.311Q87.551-54.311 87.551-64.210L87.551-64.210L105.806-64.210Q105.806-51.132 98.222-43.821Q90.639-36.510 77.106-36.510L77.106-36.510Q71.839-36.510 66.299-37.827Q60.759-39.144 50.950-42.686L50.950-42.686Q45.864-44.502 42.549-45.274Q39.234-46.046 36.782-46.046L36.782-46.046Q28.427-46.046 28.427-36.510L28.427-36.510ZM128.511 0L128.511-129.146L147.674-129.146L147.674-76.834L157.210-76.834L208.433-129.146L234.861-129.146L172.377-65.300L238.767 0L211.975 0L153.305-57.671L147.674-57.671L147.674 0L128.511 0ZM253.298-58.488L259.928-69.841L275.640-60.850L275.640-79.104L288.990-79.104L288.990-60.850L305.065-69.932L311.332-58.397L295.620-49.225L311.514-40.052L304.884-28.699L288.990-37.781L288.990-19.345L275.640-19.345L275.640-37.690L259.928-28.518L253.389-40.143L269.101-49.406L253.298-58.488ZM332.402-33.785L332.402-60.123Q332.402-69.478 336.989-77.197Q341.575-84.917 349.295-89.503Q357.015-94.090 366.369-94.090L366.369-94.090L388.802-94.090L388.802-74.927L366.369-74.927Q360.284-74.927 355.925-70.522Q351.565-66.117 351.565-59.941L351.565-59.941L351.565-33.967Q351.565-27.882 355.925-23.522Q360.284-19.163 366.369-19.163L366.369-19.163L399.700-19.163L399.700-129.146L418.863-129.146L418.863-19.163Q418.863-11.262 413.232-5.631Q407.602 0 399.700 0L399.700 0L366.369 0Q357.015 0 349.295-4.586Q341.575-9.173 336.989-16.847Q332.402-24.521 332.402-33.785L332.402-33.785Z" fill="#f7f3e3" transform="translate(41.5734920501709, 320.572998046875)"/></svg>