<svg xmlns="http://www.w3.org/2000/svg" viewBox="0 0 512 512"><circle cx="256" cy="256" r="256" fill="#001117"/><path d="M13.696-59.143L13.696-78.567L139.453-124.263L139.453-98.364L58.645-68.855L139.453-39.470L139.453-13.447L13.696-59.143ZM170.581-49.556L170.581-177.056L196.729-177.056L196.729-49.556Q196.729-39.844 203.577-32.996Q210.425-26.147 220.012-26.147L220.012-26.147L307.793-26.147L307.793 0L220.012 0Q206.440 0 195.172-6.661Q183.904-13.323 177.242-24.591Q170.581-35.859 170.581-49.556L170.581-49.556ZM330.205 0L330.205-177.056L356.477-177.056L356.477 0L330.205 0Z" fill="#f7f3e3" transform="translate(70.91351222991943, 344.5279998779297)"/></svg>