<svg xmlns="http://www.w3.org/2000/svg" viewBox="0 0 512 512"><circle cx="256" cy="256" r="256" fill="#001117"/><path d="M32.095-41.221L11.279-41.221Q11.279-54.858 19.841-63.625Q28.403-72.393 41.733-72.393L41.733-72.393Q48.091-72.393 54.705-70.854Q61.318-69.316 70.034-65.728L70.034-65.728Q76.392-63.369 80.647-62.344Q84.902-61.318 88.594-61.318L88.594-61.318Q98.848-61.318 98.848-72.495L98.848-72.495L119.458-72.495Q119.458-57.729 110.896-49.475Q102.334-41.221 87.056-41.221L87.056-41.221Q81.108-41.221 74.854-42.708Q68.599-44.194 57.524-48.193L57.524-48.193Q51.782-50.244 48.040-51.116Q44.297-51.987 41.528-51.987L41.528-51.987Q32.095-51.987 32.095-41.221L32.095-41.221ZM145.093-40.811L145.093-145.811L166.626-145.811L166.626-40.811Q166.626-32.813 172.266-27.173Q177.905-21.533 185.801-21.533L185.801-21.533L258.091-21.533L258.091 0L185.801 0Q174.624 0 165.344-5.486Q156.064-10.972 150.579-20.251Q145.093-29.531 145.093-40.811L145.093-40.811ZM268.345-106.230L291.313-106.230L318.896-32.607L347.095-106.230L370.986-106.230L314.590 39.990L290.903 39.990L307.412-3.486L268.345-106.230Z" fill="#f7f3e3" transform="translate(64.86749935150146, 308.9104995727539)"/></svg>