<svg xmlns="http://www.w3.org/2000/svg" viewBox="0 0 512 512"><circle cx="256" cy="256" r="256" fill="#001117"/><path d="M18.457-52.471L18.457-187.471L46.143-187.471L46.143-52.471Q46.143-42.188 53.394-34.937Q60.645-27.686 70.796-27.686L70.796-27.686L163.740-27.686L163.740 0L70.796 0Q56.426 0 44.495-7.053Q32.563-14.106 25.510-26.038Q18.457-37.969 18.457-52.471L18.457-52.471ZM176.924-136.582L206.455-136.582L241.919-41.924L278.174-136.582L308.892-136.582L236.382 51.416L205.928 51.416L227.153-4.482L176.924-136.582Z" fill="#f7f3e3" transform="translate(92.32550048828125, 324.0274963378906)"/></svg>