<svg xmlns="http://www.w3.org/2000/svg" viewBox="0 0 512 512"><circle cx="256" cy="256" r="256" fill="#001117"/><path d="M11.279-11.074L11.279-32.505L77.827-56.704L11.279-81.006L11.279-102.334L114.844-64.702L114.844-48.706L11.279-11.074ZM140.479-40.811L140.479-145.811L162.012-145.811L162.012-40.811Q162.012-32.813 167.651-27.173Q173.291-21.533 181.187-21.533L181.187-21.533L253.477-21.533L253.477 0L181.187 0Q170.010 0 160.730-5.486Q151.450-10.972 145.964-20.251Q140.479-29.531 140.479-40.811L140.479-40.811ZM263.730-106.230L286.699-106.230L314.282-32.607L342.480-106.230L366.372-106.230L309.976 39.990L286.289 39.990L302.798-3.486L263.730-106.230Z" fill="#f7f3e3" transform="translate(67.1744909286499, 308.9104995727539)"/></svg>