<svg xmlns="http://www.w3.org/2000/svg" viewBox="0 0 512 512"><circle cx="256" cy="256" r="256" fill="#001117"/><path d="M38.972-50.054L13.696-50.054Q13.696-66.614 24.093-77.260Q34.490-87.905 50.676-87.905L50.676-87.905Q58.396-87.905 66.427-86.038Q74.458-84.170 85.042-79.812L85.042-79.812Q92.761-76.948 97.928-75.703Q103.096-74.458 107.578-74.458L107.578-74.458Q120.029-74.458 120.029-88.030L120.029-88.030L145.056-88.030Q145.056-70.100 134.659-60.077Q124.263-50.054 105.710-50.054L105.710-50.054Q98.489-50.054 90.894-51.859Q83.298-53.665 69.851-58.521L69.851-58.521Q62.878-61.011 58.334-62.069Q53.789-63.127 50.427-63.127L50.427-63.127Q38.972-63.127 38.972-50.054L38.972-50.054ZM176.184-49.556L176.184-177.056L202.332-177.056L202.332-49.556Q202.332-39.844 209.180-32.996Q216.028-26.147 225.615-26.147L225.615-26.147L313.396-26.147L313.396 0L225.615 0Q212.043 0 200.775-6.661Q189.507-13.323 182.845-24.591Q176.184-35.859 176.184-49.556L176.184-49.556ZM335.808 0L335.808-177.056L362.080-177.056L362.080 0L335.808 0Z" fill="#f7f3e3" transform="translate(68.1120138168335, 344.5279998779297)"/></svg>