<svg xmlns="http://www.w3.org/2000/svg" viewBox="0 0 512 512"><circle cx="256" cy="256" r="256" fill="#001117"/><path d="M12.891-55.664L12.891-73.945L131.250-116.953L131.250-92.578L55.195-64.805L131.250-37.148L131.250-12.656L12.891-55.664ZM160.547-46.641L160.547-166.641L185.156-166.641L185.156-46.641Q185.156-37.500 191.602-31.055Q198.047-24.609 207.070-24.609L207.070-24.609L289.688-24.609L289.688 0L207.070 0Q194.297 0 183.691-6.270Q173.086-12.539 166.816-23.145Q160.547-33.750 160.547-46.641L160.547-46.641ZM307.266-43.828L307.266-77.578Q307.266-89.648 313.184-99.609Q319.102-109.570 329.063-115.488Q339.023-121.406 351.094-121.406L351.094-121.406L377.578-121.406Q389.648-121.406 399.609-115.488Q409.570-109.570 415.488-99.609Q421.406-89.648 421.406-77.578L421.406-77.578L421.406-43.828Q421.406-31.758 415.488-21.797Q409.570-11.836 399.609-5.918Q389.648 0 377.578 0L377.578 0L351.094 0Q339.023 0 329.063-5.918Q319.102-11.836 313.184-21.797Q307.266-31.758 307.266-43.828L307.266-43.828ZM331.992-77.344L331.992-44.063Q331.992-36.094 337.617-30.410Q343.242-24.727 351.094-24.727L351.094-24.727L377.578-24.727Q385.547-24.727 391.113-30.410Q396.680-36.094 396.680-44.063L396.680-44.063L396.680-77.344Q396.680-85.313 391.113-90.996Q385.547-96.680 377.578-96.680L377.578-96.680L351.094-96.680Q343.242-96.680 337.617-90.996Q331.992-85.313 331.992-77.344L331.992-77.344Z" fill="#f7f3e3" transform="translate(38.8514928817749, 339.3205032348633)"/></svg>