<svg xmlns="http://www.w3.org/2000/svg" viewBox="0 0 512 512"><circle cx="256" cy="256" r="256" fill="#001117"/><path d="M36.680-47.109L12.891-47.109Q12.891-62.695 22.676-72.715Q32.461-82.734 47.695-82.734L47.695-82.734Q54.961-82.734 62.520-80.977Q70.078-79.219 80.039-75.117L80.039-75.117Q87.305-72.422 92.168-71.250Q97.031-70.078 101.250-70.078L101.250-70.078Q112.969-70.078 112.969-82.852L112.969-82.852L136.523-82.852Q136.523-65.977 126.738-56.543Q116.953-47.109 99.492-47.109L99.492-47.109Q92.695-47.109 85.547-48.809Q78.398-50.508 65.742-55.078L65.742-55.078Q59.180-57.422 54.902-58.418Q50.625-59.414 47.461-59.414L47.461-59.414Q36.680-59.414 36.680-47.109L36.680-47.109ZM165.820-46.641L165.820-166.641L190.430-166.641L190.430-46.641Q190.430-37.500 196.875-31.055Q203.320-24.609 212.344-24.609L212.344-24.609L294.961-24.609L294.961 0L212.344 0Q199.570 0 188.965-6.270Q178.359-12.539 172.090-23.145Q165.820-33.750 165.820-46.641L165.820-46.641ZM312.539-44.063L312.539-77.578Q312.539-89.648 318.633-99.609Q324.727-109.570 334.922-115.488Q345.117-121.406 357.539-121.406L357.539-121.406L425.859-121.406L425.859-96.680L357.539-96.680Q349.219-96.680 343.242-90.996Q337.266-85.313 337.266-77.227L337.266-77.227L337.266-44.297Q337.266-36.211 343.184-30.469Q349.102-24.727 357.539-24.727L357.539-24.727L425.859-24.727L425.859 0L357.539 0Q345.117 0 334.922-5.977Q324.727-11.953 318.633-21.973Q312.539-31.992 312.539-44.063L312.539-44.063Z" fill="#f7f3e3" transform="translate(36.62499141693115, 339.3205032348633)"/></svg>