<svg xmlns="http://www.w3.org/2000/svg" viewBox="0 0 512 512"><circle cx="256" cy="256" r="256" fill="#001117"/><path d="M12.891-12.656L12.891-37.148L88.945-64.805L12.891-92.578L12.891-116.953L131.250-73.945L131.250-55.664L12.891-12.656ZM160.547-46.641L160.547-166.641L185.156-166.641L185.156-46.641Q185.156-37.500 191.602-31.055Q198.047-24.609 207.070-24.609L207.070-24.609L289.688-24.609L289.688 0L207.070 0Q194.297 0 183.691-6.270Q173.086-12.539 166.816-23.145Q160.547-33.750 160.547-46.641L160.547-46.641ZM307.266-44.063L307.266-77.578Q307.266-89.648 313.359-99.609Q319.453-109.570 329.648-115.488Q339.844-121.406 352.266-121.406L352.266-121.406L420.586-121.406L420.586-96.680L352.266-96.680Q343.945-96.680 337.969-90.996Q331.992-85.313 331.992-77.227L331.992-77.227L331.992-44.297Q331.992-36.211 337.910-30.469Q343.828-24.727 352.266-24.727L352.266-24.727L420.586-24.727L420.586 0L352.266 0Q339.844 0 329.648-5.977Q319.453-11.953 313.359-21.973Q307.266-31.992 307.266-44.063L307.266-44.063Z" fill="#f7f3e3" transform="translate(39.26149654388428, 339.3205032348633)"/></svg>