<svg xmlns="http://www.w3.org/2000/svg" viewBox="0 0 512 512"><circle cx="256" cy="256" r="256" fill="#001117"/><path d="M22.559-64.131L22.559-229.131L56.396-229.131L56.396-64.131Q56.396-51.563 65.259-42.700Q74.121-33.838 86.528-33.838L86.528-33.838L200.127-33.838L200.127 0L86.528 0Q68.965 0 54.382-8.621Q39.800-17.241 31.179-31.824Q22.559-46.406 22.559-64.131L22.559-64.131ZM224.297-60.264L224.297-106.670Q224.297-123.267 232.434-136.963Q240.571-150.659 254.268-158.796Q267.964-166.934 284.561-166.934L284.561-166.934L320.977-166.934Q337.573-166.934 351.270-158.796Q364.966-150.659 373.103-136.963Q381.240-123.267 381.240-106.670L381.240-106.670L381.240-60.264Q381.240-43.667 373.103-29.971Q364.966-16.274 351.270-8.137Q337.573 0 320.977 0L320.977 0L284.561 0Q267.964 0 254.268-8.137Q240.571-16.274 232.434-29.971Q224.297-43.667 224.297-60.264L224.297-60.264ZM258.296-106.348L258.296-60.586Q258.296-49.629 266.030-41.814Q273.765-33.999 284.561-33.999L284.561-33.999L320.977-33.999Q331.934-33.999 339.587-41.814Q347.241-49.629 347.241-60.586L347.241-60.586L347.241-106.348Q347.241-117.305 339.587-125.120Q331.934-132.935 320.977-132.935L320.977-132.935L284.561-132.935Q273.765-132.935 266.030-125.120Q258.296-117.305 258.296-106.348L258.296-106.348Z" fill="#f7f3e3" transform="translate(54.10050010681152, 370.5654983520508)"/></svg>