<svg xmlns="http://www.w3.org/2000/svg" viewBox="0 0 512 512"><circle cx="256" cy="256" r="256" fill="#001117"/><path d="M27.510-35.332L9.668-35.332Q9.668-47.021 17.007-54.536Q24.346-62.051 35.771-62.051L35.771-62.051Q41.221-62.051 46.890-60.732Q52.559-59.414 60.029-56.338L60.029-56.338Q65.479-54.316 69.126-53.438Q72.773-52.559 75.938-52.559L75.938-52.559Q84.727-52.559 84.727-62.139L84.727-62.139L102.393-62.139Q102.393-49.482 95.054-42.407Q87.715-35.332 74.619-35.332L74.619-35.332Q69.521-35.332 64.160-36.606Q58.799-37.881 49.307-41.309L49.307-41.309Q44.385-43.066 41.177-43.813Q37.969-44.561 35.596-44.561L35.596-44.561Q27.510-44.561 27.510-35.332L27.510-35.332ZM124.365 0L124.365-124.980L141.328-124.980L181.670-75.674L222.012-124.980L238.975-124.980L238.975 0L220.430 0L220.430-93.428L189.404-55.811L174.023-55.811L142.910-93.428L142.910 0L124.365 0ZM261.826 0L261.826-72.510Q261.826-80.156 267.275-85.605Q272.725-91.055 280.459-91.055L280.459-91.055L308.232-91.055Q319.482-91.055 326.689-84.023L326.689-84.023Q333.721-91.055 345.146-91.055L345.146-91.055L358.857-91.055Q367.910-91.055 375.381-86.616Q382.852-82.178 387.290-74.751Q391.729-67.324 391.729-58.271L391.729-58.271L391.729 0L373.271 0L373.271-58.008Q373.271-64.072 369.053-68.335Q364.834-72.598 358.857-72.598L358.857-72.598L345.146-72.598Q341.279-72.598 338.555-70.181Q335.830-67.764 335.830-64.336L335.830-64.336L335.830 0L317.285 0L317.285-64.336Q317.285-67.764 314.648-70.181Q312.012-72.598 308.232-72.598L308.232-72.598L280.371-72.598L280.371 0L261.826 0Z" fill="#f7f3e3" transform="translate(55.30149745941162, 318.4900016784668)"/></svg>