<svg xmlns="http://www.w3.org/2000/svg" viewBox="0 0 512 512"><circle cx="256" cy="256" r="256" fill="#001117"/><path d="M41.265-52.998L14.502-52.998Q14.502-70.532 25.510-81.804Q36.519-93.076 53.657-93.076L53.657-93.076Q61.831-93.076 70.334-91.099Q78.838-89.121 90.044-84.507L90.044-84.507Q98.218-81.475 103.689-80.156Q109.160-78.838 113.906-78.838L113.906-78.838Q127.090-78.838 127.090-93.208L127.090-93.208L153.589-93.208Q153.589-74.224 142.581-63.611Q131.572-52.998 111.929-52.998L111.929-52.998Q104.282-52.998 96.240-54.910Q88.198-56.821 73.960-61.963L73.960-61.963Q66.577-64.600 61.765-65.720Q56.953-66.841 53.394-66.841L53.394-66.841Q41.265-66.841 41.265-52.998L41.265-52.998ZM186.548 0L186.548-187.471L285.688-187.471Q298.477-187.471 308.958-181.208Q319.438-174.946 325.701-164.531Q331.963-154.116 331.963-141.328L331.963-141.328L331.963-122.607Q331.963-110.083 325.701-99.734Q319.438-89.385 308.958-83.254Q298.477-77.124 285.688-77.124L285.688-77.124L230.186-77.124L230.186-104.810L285.688-104.810Q293.467-104.810 298.872-110.083Q304.277-115.356 304.277-123.003L304.277-123.003L304.277-141.328Q304.277-148.975 298.872-154.380Q293.467-159.785 285.688-159.785L285.688-159.785L214.365-159.785L214.365 0L186.548 0ZM361.626 0L361.626-98.350Q361.626-108.896 366.965-117.598Q372.305-126.299 381.204-131.440Q390.103-136.582 400.913-136.582L400.913-136.582L431.367-136.582L431.367-108.896L400.913-108.896Q396.167-108.896 392.805-105.667Q389.443-102.437 389.443-97.822L389.443-97.822L389.443 0L361.626 0Z" fill="#f7f3e3" transform="translate(33.065505027770996, 349.7354965209961)"/></svg>