<svg xmlns="http://www.w3.org/2000/svg" viewBox="0 0 512 512"><circle cx="256" cy="256" r="256" fill="#001117"/><path d="M14.355 0L14.355-145.811L91.465-145.811Q101.411-145.811 109.563-140.940Q117.715-136.069 122.585-127.969Q127.456-119.868 127.456-109.922L127.456-109.922L127.456-95.361Q127.456-85.620 122.585-77.571Q117.715-69.521 109.563-64.753Q101.411-59.985 91.465-59.985L91.465-59.985L48.296-59.985L48.296-81.519L91.465-81.519Q97.515-81.519 101.719-85.620Q105.923-89.722 105.923-95.669L105.923-95.669L105.923-109.922Q105.923-115.869 101.719-120.073Q97.515-124.277 91.465-124.277L91.465-124.277L35.991-124.277L35.991 0L14.355 0ZM142.324 0L194.517-145.811L221.484-145.811L273.677 0L250.605 0L234.712-43.887L194.004-43.887L201.797-65.420L226.919-65.420L208.052-117.510L165.396 0L142.324 0ZM288.237 0L288.237-111.973L372.319-111.973L372.319 0L288.237 0ZM298.696-10.459L361.860-10.459L361.860-101.514L298.696-101.514L298.696-10.459Z" fill="#f7f3e3" transform="translate(62.66300582885742, 328.90550231933594)"/></svg>