<svg xmlns="http://www.w3.org/2000/svg" viewBox="0 0 512 512"><circle cx="256" cy="256" r="256" fill="#001117"/><path d="M14.063 44.766L14.063-179.531L36.211-179.531L36.211 44.766L14.063 44.766ZM66.563 0L66.563-166.641L154.688-166.641Q166.055-166.641 175.371-161.074Q184.688-155.508 190.254-146.250Q195.820-136.992 195.820-125.625L195.820-125.625L195.820-108.984Q195.820-97.852 190.254-88.652Q184.688-79.453 175.371-74.004Q166.055-68.555 154.688-68.555L154.688-68.555L105.352-68.555L105.352-93.164L154.688-93.164Q161.602-93.164 166.406-97.852Q171.211-102.539 171.211-109.336L171.211-109.336L171.211-125.625Q171.211-132.422 166.406-137.227Q161.602-142.031 154.688-142.031L154.688-142.031L91.289-142.031L91.289 0L66.563 0ZM212.813 0L272.461-166.641L303.281-166.641L362.930 0L336.563 0L318.398-50.156L271.875-50.156L280.781-74.766L309.492-74.766L287.930-134.297L239.180 0L212.813 0Z" fill="#f7f3e3" transform="translate(67.50349807739258, 323.38250732421875)"/></svg>