<svg xmlns="http://www.w3.org/2000/svg" viewBox="0 0 512 512"><circle cx="256" cy="256" r="256" fill="#001117"/><path d="M12.891-12.656L12.891-37.148L88.945-64.805L12.891-92.578L12.891-116.953L131.250-73.945L131.250-55.664L12.891-12.656ZM160.547 0L160.547-166.641L248.672-166.641Q260.039-166.641 269.355-161.074Q278.672-155.508 284.238-146.250Q289.805-136.992 289.805-125.625L289.805-125.625L289.805-108.984Q289.805-97.852 284.238-88.652Q278.672-79.453 269.355-74.004Q260.039-68.555 248.672-68.555L248.672-68.555L199.336-68.555L199.336-93.164L248.672-93.164Q255.586-93.164 260.391-97.852Q265.195-102.539 265.195-109.336L265.195-109.336L265.195-125.625Q265.195-132.422 260.391-137.227Q255.586-142.031 248.672-142.031L248.672-142.031L185.273-142.031L185.273 0L160.547 0ZM315-44.063L315-77.578Q315-89.648 321.094-99.609Q327.188-109.570 337.383-115.488Q347.578-121.406 360-121.406L360-121.406L428.320-121.406L428.320-96.680L360-96.680Q351.680-96.680 345.703-90.996Q339.727-85.313 339.727-77.227L339.727-77.227L339.727-44.297Q339.727-36.211 345.645-30.469Q351.563-24.727 360-24.727L360-24.727L428.320-24.727L428.320 0L360 0Q347.578 0 337.383-5.977Q327.188-11.953 321.094-21.973Q315-31.992 315-44.063L315-44.063Z" fill="#f7f3e3" transform="translate(35.39449214935303, 339.3205032348633)"/></svg>