<svg xmlns="http://www.w3.org/2000/svg" viewBox="0 0 512 512"><circle cx="256" cy="256" r="256" fill="#001117"/><path d="M14.355 0L14.355-145.811L91.465-145.811Q101.411-145.811 109.563-140.940Q117.715-136.069 122.585-127.969Q127.456-119.868 127.456-109.922L127.456-109.922L127.456-95.361Q127.456-85.620 122.585-77.571Q117.715-69.521 109.563-64.753Q101.411-59.985 91.465-59.985L91.465-59.985L48.296-59.985L48.296-81.519L91.465-81.519Q97.515-81.519 101.719-85.620Q105.923-89.722 105.923-95.669L105.923-95.669L105.923-109.922Q105.923-115.869 101.719-120.073Q97.515-124.277 91.465-124.277L91.465-124.277L35.991-124.277L35.991 0L14.355 0ZM149.502-38.555L149.502-67.881Q149.502-78.442 154.834-87.158Q160.166-95.874 169.087-101.052Q178.008-106.230 188.877-106.230L188.877-106.230L248.657-106.230L248.657-84.595L188.877-84.595Q181.597-84.595 176.367-79.622Q171.138-74.648 171.138-67.573L171.138-67.573L171.138-38.760Q171.138-31.685 176.316-26.660Q181.494-21.636 188.877-21.636L188.877-21.636L248.657-21.636L248.657 0L188.877 0Q178.008 0 169.087-5.229Q160.166-10.459 154.834-19.226Q149.502-27.993 149.502-38.555L149.502-38.555ZM274.292 0L274.292-145.811L351.812-145.811Q363.193-145.811 372.576-140.273Q381.958-134.736 387.495-125.457Q393.032-116.177 393.032-104.795L393.032-104.795L393.032-40.605Q393.032-29.429 387.495-20.200Q381.958-10.972 372.576-5.486Q363.193 0 351.812 0L351.812 0L274.292 0ZM295.928-21.636L351.812-21.636Q360.015-21.636 365.757-27.275Q371.499-32.915 371.499-40.913L371.499-40.913L371.499-104.795Q371.499-112.896 365.757-118.586Q360.015-124.277 351.812-124.277L351.812-124.277L295.928-124.277L295.928-21.636Z" fill="#f7f3e3" transform="translate(52.30649948120117, 328.90550231933594)"/></svg>