<svg xmlns="http://www.w3.org/2000/svg" viewBox="0 0 512 512"><circle cx="256" cy="256" r="256" fill="#001117"/><path d="M17.432 0L17.432-177.056L111.064-177.056Q123.142-177.056 133.041-171.141Q142.939-165.227 148.854-155.391Q154.768-145.554 154.768-133.477L154.768-133.477L154.768-115.796Q154.768-103.967 148.854-94.193Q142.939-84.419 133.041-78.629Q123.142-72.839 111.064-72.839L111.064-72.839L58.645-72.839L58.645-98.987L111.064-98.987Q118.411-98.987 123.516-103.967Q128.621-108.948 128.621-116.169L128.621-116.169L128.621-133.477Q128.621-140.698 123.516-145.803Q118.411-150.908 111.064-150.908L111.064-150.908L43.704-150.908L43.704 0L17.432 0ZM181.538-46.816L181.538-82.427Q181.538-95.251 188.013-105.835Q194.487-116.418 205.320-122.706Q216.152-128.994 229.351-128.994L229.351-128.994L301.941-128.994L301.941-102.722L229.351-102.722Q220.510-102.722 214.160-96.683Q207.810-90.645 207.810-82.053L207.810-82.053L207.810-47.065Q207.810-38.474 214.098-32.373Q220.386-26.272 229.351-26.272L229.351-26.272L301.941-26.272L301.941 0L229.351 0Q216.152 0 205.320-6.350Q194.487-12.700 188.013-23.346Q181.538-33.992 181.538-46.816L181.538-46.816ZM333.069 0L333.069-177.056L359.341-177.056L359.341 0L333.069 0Z" fill="#f7f3e3" transform="translate(67.6135025024414, 344.5279998779297)"/></svg>