<svg xmlns="http://www.w3.org/2000/svg" viewBox="0 0 512 512"><circle cx="256" cy="256" r="256" fill="#001117"/><path d="M9.346-9.176L9.346-26.933L64.485-46.983L9.346-67.119L9.346-84.791L95.156-53.610L95.156-40.356L9.346-9.176ZM116.396 0L116.396-120.814L180.287-120.814Q188.528-120.814 195.283-116.779Q202.037-112.743 206.073-106.031Q210.108-99.319 210.108-91.078L210.108-91.078L210.108-79.014Q210.108-70.942 206.073-64.273Q202.037-57.604 195.283-53.653Q188.528-49.702 180.287-49.702L180.287-49.702L144.519-49.702L144.519-67.544L180.287-67.544Q185.300-67.544 188.783-70.942Q192.267-74.341 192.267-79.269L192.267-79.269L192.267-91.078Q192.267-96.006 188.783-99.489Q185.300-102.973 180.287-102.973L180.287-102.973L134.323-102.973L134.323 0L116.396 0ZM228.375-31.945L228.375-56.244Q228.375-64.995 232.793-72.217Q237.211-79.438 244.603-83.729Q251.994-88.020 261-88.020L261-88.020L310.532-88.020L310.532-70.093L261-70.093Q254.968-70.093 250.635-65.972Q246.302-61.852 246.302-55.989L246.302-55.989L246.302-32.115Q246.302-26.253 250.592-22.090Q254.883-17.927 261-17.927L261-17.927L310.532-17.927L310.532 0L261 0Q251.994 0 244.603-4.333Q237.211-8.666 232.793-15.930Q228.375-23.194 228.375-31.945L228.375-31.945ZM331.772 0L331.772-120.814L396.003-120.814Q405.434-120.814 413.208-116.227Q420.981-111.639 425.569-103.950Q430.157-96.261 430.157-86.830L430.157-86.830L430.157-33.645Q430.157-24.384 425.569-16.737Q420.981-9.091 413.208-4.545Q405.434 0 396.003 0L396.003 0L331.772 0ZM349.699-17.927L396.003-17.927Q402.800-17.927 407.558-22.600Q412.315-27.272 412.315-33.899L412.315-33.899L412.315-86.830Q412.315-93.542 407.558-98.257Q402.800-102.973 396.003-102.973L396.003-102.973L349.699-102.973L349.699-17.927Z" fill="#f7f3e3" transform="translate(36.24849796295166, 316.4070014953613)"/></svg>