<svg xmlns="http://www.w3.org/2000/svg" viewBox="0 0 512 512"><circle cx="256" cy="256" r="256" fill="#001117"/><path d="M8.057-34.790L8.057-46.216L82.031-73.096L82.031-57.861L34.497-40.503L82.031-23.218L82.031-7.910L8.057-34.790ZM100.342 0L100.342-104.150L155.420-104.150Q162.524-104.150 168.347-100.671Q174.170-97.192 177.649-91.406Q181.128-85.620 181.128-78.516L181.128-78.516L181.128-68.115Q181.128-61.157 177.649-55.408Q174.170-49.658 168.347-46.252Q162.524-42.847 155.420-42.847L155.420-42.847L124.585-42.847L124.585-58.228L155.420-58.228Q159.741-58.228 162.744-61.157Q165.747-64.087 165.747-68.335L165.747-68.335L165.747-78.516Q165.747-82.764 162.744-85.767Q159.741-88.770 155.420-88.770L155.420-88.770L115.796-88.770L115.796 0L100.342 0ZM196.875-27.539L196.875-48.486Q196.875-56.030 200.684-62.256Q204.492-68.481 210.864-72.180Q217.236-75.879 225-75.879L225-75.879L267.700-75.879L267.700-60.425L225-60.425Q219.800-60.425 216.064-56.873Q212.329-53.320 212.329-48.267L212.329-48.267L212.329-27.686Q212.329-22.632 216.028-19.043Q219.727-15.454 225-15.454L225-15.454L267.700-15.454L267.700 0L225 0Q217.236 0 210.864-3.735Q204.492-7.471 200.684-13.733Q196.875-19.995 196.875-27.539L196.875-27.539ZM284.546-47.168L289.893-56.323L302.563-49.072L302.563-63.794L313.330-63.794L313.330-49.072L326.294-56.396L331.348-47.095L318.677-39.697L331.494-32.300L326.147-23.145L313.330-30.469L313.330-15.601L302.563-15.601L302.563-30.396L289.893-22.998L284.619-32.373L297.290-39.844L284.546-47.168ZM350.537 0L350.537-104.150L405.908-104.150Q414.038-104.150 420.740-100.195Q427.441-96.240 431.396-89.612Q435.352-82.983 435.352-74.854L435.352-74.854L435.352-29.004Q435.352-21.021 431.396-14.429Q427.441-7.837 420.740-3.918Q414.038 0 405.908 0L405.908 0L350.537 0ZM365.991-15.454L405.908-15.454Q411.768-15.454 415.869-19.482Q419.971-23.511 419.971-29.224L419.971-29.224L419.971-74.854Q419.971-80.640 415.869-84.705Q411.768-88.770 405.908-88.770L405.908-88.770L365.991-88.770L365.991-15.454Z" fill="#f7f3e3" transform="translate(34.29550838470459, 308.07500076293945)"/></svg>