<svg xmlns="http://www.w3.org/2000/svg" viewBox="0 0 512 512"><circle cx="256" cy="256" r="256" fill="#001117"/><path d="M17.578-129.346L17.578-129.346Q17.578-137.256 23.145-142.822Q28.711-148.389 36.621-148.389L36.621-148.389Q44.678-148.389 50.171-142.896Q55.664-137.402 55.664-129.346L55.664-129.346Q55.664-121.289 50.171-115.796Q44.678-110.303 36.621-110.303L36.621-110.303Q28.564-110.303 23.071-115.796Q17.578-121.289 17.578-129.346ZM17.578-17.578L17.578-17.578Q17.578-25.488 23.145-31.055Q28.711-36.621 36.621-36.621L36.621-36.621Q44.678-36.621 50.171-31.128Q55.664-25.635 55.664-17.578L55.664-17.578Q55.664-9.521 50.171-4.028Q44.678 1.465 36.621 1.465L36.621 1.465Q28.711 1.465 23.145-4.102Q17.578-9.668 17.578-17.578ZM93.750 0L93.750-208.301L203.906-208.301Q218.115-208.301 229.761-201.343Q241.406-194.385 248.364-182.813Q255.322-171.240 255.322-157.031L255.322-157.031L255.322-136.230Q255.322-122.314 248.364-110.815Q241.406-99.316 229.761-92.505Q218.115-85.693 203.906-85.693L203.906-85.693L142.236-85.693L142.236-116.455L203.906-116.455Q212.549-116.455 218.555-122.314Q224.561-128.174 224.561-136.670L224.561-136.670L224.561-157.031Q224.561-165.527 218.555-171.533Q212.549-177.539 203.906-177.539L203.906-177.539L124.658-177.539L124.658 0L93.750 0ZM286.816-55.078L286.816-96.973Q286.816-112.061 294.434-124.512Q302.051-136.963 314.795-144.360Q327.539-151.758 343.066-151.758L343.066-151.758L428.467-151.758L428.467-120.850L343.066-120.850Q332.666-120.850 325.195-113.745Q317.725-106.641 317.725-96.533L317.725-96.533L317.725-55.371Q317.725-45.264 325.122-38.086Q332.520-30.908 343.066-30.908L343.066-30.908L428.467-30.908L428.467 0L343.066 0Q327.539 0 314.795-7.471Q302.051-14.941 294.434-27.466Q286.816-39.990 286.816-55.078L286.816-55.078Z" fill="#f7f3e3" transform="translate(32.97749710083008, 359.4179992675781)"/></svg>