<svg xmlns="http://www.w3.org/2000/svg" viewBox="0 0 512 512"><circle cx="256" cy="256" r="256" fill="#001117"/><path d="M12.305 0L12.305-124.980L78.398-124.980Q86.924-124.980 93.911-120.806Q100.898-116.631 105.073-109.688Q109.248-102.744 109.248-94.219L109.248-94.219L109.248-81.738Q109.248-73.389 105.073-66.489Q100.898-59.590 93.911-55.503Q86.924-51.416 78.398-51.416L78.398-51.416L41.396-51.416L41.396-69.873L78.398-69.873Q83.584-69.873 87.188-73.389Q90.791-76.904 90.791-82.002L90.791-82.002L90.791-94.219Q90.791-99.316 87.188-102.920Q83.584-106.523 78.398-106.523L78.398-106.523L30.850-106.523L30.850 0L12.305 0ZM128.145-33.047L128.145-58.184Q128.145-67.236 132.715-74.707Q137.285-82.178 144.932-86.616Q152.578-91.055 161.895-91.055L161.895-91.055L213.135-91.055L213.135-72.510L161.895-72.510Q155.654-72.510 151.172-68.247Q146.689-63.984 146.689-57.920L146.689-57.920L146.689-33.223Q146.689-27.158 151.128-22.852Q155.566-18.545 161.895-18.545L161.895-18.545L213.135-18.545L213.135 0L161.895 0Q152.578 0 144.932-4.482Q137.285-8.965 132.715-16.479Q128.145-23.994 128.145-33.047L128.145-33.047ZM233.350-56.602L239.766-67.588L254.971-58.887L254.971-76.553L267.891-76.553L267.891-58.887L283.447-67.676L289.512-56.514L274.307-47.637L289.688-38.760L283.271-27.773L267.891-36.563L267.891-18.721L254.971-18.721L254.971-36.475L239.766-27.598L233.438-38.848L248.643-47.813L233.350-56.602ZM312.539 0L312.539-124.980L378.984-124.980Q388.740-124.980 396.782-120.234Q404.824-115.488 409.570-107.534Q414.316-99.580 414.316-89.824L414.316-89.824L414.316-34.805Q414.316-25.225 409.570-17.314Q404.824-9.404 396.782-4.702Q388.740 0 378.984 0L378.984 0L312.539 0ZM331.084-18.545L378.984-18.545Q386.016-18.545 390.938-23.379Q395.859-28.213 395.859-35.068L395.859-35.068L395.859-89.824Q395.859-96.768 390.938-101.646Q386.016-106.523 378.984-106.523L378.984-106.523L331.084-106.523L331.084-18.545Z" fill="#f7f3e3" transform="translate(42.689491271972656, 318.4900016784668)"/></svg>