<svg xmlns="http://www.w3.org/2000/svg" viewBox="0 0 512 512"><circle cx="256" cy="256" r="256" fill="#001117"/><path d="M29.802-38.276L10.474-38.276Q10.474-50.940 18.424-59.081Q26.375-67.222 38.752-67.222L38.752-67.222Q44.656-67.222 50.797-65.793Q56.938-64.365 65.032-61.033L65.032-61.033Q70.935-58.843 74.886-57.891Q78.838-56.938 82.266-56.938L82.266-56.938Q91.787-56.938 91.787-67.317L91.787-67.317L110.925-67.317Q110.925-53.606 102.975-45.941Q95.024-38.276 80.837-38.276L80.837-38.276Q75.315-38.276 69.507-39.657Q63.699-41.038 53.416-44.751L53.416-44.751Q48.083-46.655 44.608-47.465Q41.133-48.274 38.562-48.274L38.562-48.274Q29.802-48.274 29.802-38.276L29.802-38.276ZM134.729 0L134.729-135.396L206.331-135.396Q215.566-135.396 223.136-130.873Q230.706-126.350 235.228-118.828Q239.751-111.306 239.751-102.070L239.751-102.070L239.751-88.550Q239.751-79.504 235.228-72.030Q230.706-64.556 223.136-60.128Q215.566-55.701 206.331-55.701L206.331-55.701L166.245-55.701L166.245-75.696L206.331-75.696Q211.948-75.696 215.852-79.504Q219.756-83.313 219.756-88.835L219.756-88.835L219.756-102.070Q219.756-107.593 215.852-111.497Q211.948-115.400 206.331-115.400L206.331-115.400L154.819-115.400L154.819 0L134.729 0ZM260.222-35.801L260.222-63.032Q260.222-72.839 265.173-80.933Q270.125-89.026 278.408-93.834Q286.692-98.643 296.785-98.643L296.785-98.643L352.295-98.643L352.295-78.552L296.785-78.552Q290.024-78.552 285.168-73.934Q280.313-69.316 280.313-62.747L280.313-62.747L280.313-35.991Q280.313-29.421 285.121-24.756Q289.929-20.090 296.785-20.090L296.785-20.090L352.295-20.090L352.295 0L296.785 0Q286.692 0 278.408-4.856Q270.125-9.712 265.173-17.853Q260.222-25.994 260.222-35.801L260.222-35.801ZM376.099 0L376.099-135.396L396.189-135.396L396.189 0L376.099 0Z" fill="#f7f3e3" transform="translate(52.66850185394287, 323.697998046875)"/></svg>