<svg xmlns="http://www.w3.org/2000/svg" viewBox="0 0 512 512"><circle cx="256" cy="256" r="256" fill="#001117"/><path d="M10.474-45.227L10.474-60.081L106.641-95.024L106.641-75.220L44.846-52.654L106.641-30.183L106.641-10.283L10.474-45.227ZM130.444 0L130.444-135.396L202.046-135.396Q211.282-135.396 218.851-130.873Q226.421-126.350 230.944-118.828Q235.466-111.306 235.466-102.070L235.466-102.070L235.466-88.550Q235.466-79.504 230.944-72.030Q226.421-64.556 218.851-60.128Q211.282-55.701 202.046-55.701L202.046-55.701L161.960-55.701L161.960-75.696L202.046-75.696Q207.664-75.696 211.567-79.504Q215.471-83.313 215.471-88.835L215.471-88.835L215.471-102.070Q215.471-107.593 211.567-111.497Q207.664-115.400 202.046-115.400L202.046-115.400L150.535-115.400L150.535 0L130.444 0ZM255.938-35.801L255.938-63.032Q255.938-72.839 260.889-80.933Q265.840-89.026 274.124-93.834Q282.407-98.643 292.500-98.643L292.500-98.643L348.010-98.643L348.010-78.552L292.500-78.552Q285.740-78.552 280.884-73.934Q276.028-69.316 276.028-62.747L276.028-62.747L276.028-35.991Q276.028-29.421 280.836-24.756Q285.645-20.090 292.500-20.090L292.500-20.090L348.010-20.090L348.010 0L292.500 0Q282.407 0 274.124-4.856Q265.840-9.712 260.889-17.853Q255.938-25.994 255.938-35.801L255.938-35.801ZM371.814 0L371.814-135.396L391.904-135.396L391.904 0L371.814 0Z" fill="#f7f3e3" transform="translate(54.81100368499756, 323.697998046875)"/></svg>