<svg xmlns="http://www.w3.org/2000/svg" viewBox="0 0 512 512"><circle cx="256" cy="256" r="256" fill="#001117"/><path d="M10.459 0L10.459-111.973L94.541-111.973L94.541 0L10.459 0ZM20.918-10.459L84.082-10.459L84.082-101.514L20.918-101.514L20.918-10.459ZM117.305-41.016L117.305-104.795Q117.305-116.177 123.201-125.457Q129.097-134.736 138.940-140.273Q148.784-145.811 160.781-145.811L160.781-145.811L229.790-145.811L229.790-124.277L160.781-124.277Q151.758-124.277 145.349-118.586Q138.940-112.896 138.940-104.897L138.940-104.897L138.940-40.913Q138.940-32.915 145.349-27.224Q151.758-21.533 160.781-21.533L160.781-21.533L194.927-21.533Q204.053-21.533 210.410-27.224Q216.768-32.915 216.768-40.913L216.768-40.913L216.768-59.985L177.188-59.985L177.188-81.519L238.403-81.519L238.403-41.016Q238.403-29.736 232.559-20.405Q226.714-11.074 216.819-5.537Q206.924 0 194.927 0L194.927 0L160.781 0Q148.784 0 138.940-5.537Q129.097-11.074 123.201-20.405Q117.305-29.736 117.305-41.016L117.305-41.016ZM263.013 0L263.013-76.494Q263.013-84.697 267.166-91.465Q271.318-98.232 278.240-102.231Q285.161-106.230 293.569-106.230L293.569-106.230L317.256-106.230L317.256-84.697L293.569-84.697Q289.878-84.697 287.263-82.185Q284.648-79.673 284.648-76.084L284.648-76.084L284.648 0L263.013 0Z" fill="#f7f3e3" transform="translate(92.14250183105469, 328.90550231933594)"/></svg>