<svg xmlns="http://www.w3.org/2000/svg" viewBox="0 0 512 512"><circle cx="256" cy="256" r="256" fill="#001117"/><path d="M24.609 0L24.609-249.961L156.797-249.961Q173.848-249.961 187.822-241.611Q201.797-233.262 210.146-219.375Q218.496-205.488 218.496-188.438L218.496-188.438L218.496-163.477Q218.496-146.777 210.146-132.979Q201.797-119.180 187.822-111.006Q173.848-102.832 156.797-102.832L156.797-102.832L82.793-102.832L82.793-139.746L156.797-139.746Q167.168-139.746 174.375-146.777Q181.582-153.809 181.582-164.004L181.582-164.004L181.582-188.438Q181.582-198.633 174.375-205.840Q167.168-213.047 156.797-213.047L156.797-213.047L61.699-213.047L61.699 0L24.609 0ZM256.289-66.094L256.289-116.367Q256.289-134.473 265.430-149.414Q274.570-164.355 289.863-173.232Q305.156-182.109 323.789-182.109L323.789-182.109L426.270-182.109L426.270-145.020L323.789-145.020Q311.309-145.020 302.344-136.494Q293.379-127.969 293.379-115.840L293.379-115.840L293.379-66.445Q293.379-54.316 302.256-45.703Q311.133-37.090 323.789-37.090L323.789-37.090L426.270-37.090L426.270 0L323.789 0Q305.156 0 289.863-8.965Q274.570-17.930 265.430-32.959Q256.289-47.988 256.289-66.094L256.289-66.094Z" fill="#f7f3e3" transform="translate(30.560510635375977, 380.9804992675781)"/></svg>