<svg xmlns="http://www.w3.org/2000/svg" viewBox="0 0 512 512"><circle cx="256" cy="256" r="256" fill="#001117"/><path d="M22.925-29.443L8.057-29.443Q8.057-39.185 14.172-45.447Q20.288-51.709 29.810-51.709L29.810-51.709Q34.351-51.709 39.075-50.610Q43.799-49.512 50.024-46.948L50.024-46.948Q54.565-45.264 57.605-44.531Q60.645-43.799 63.281-43.799L63.281-43.799Q70.605-43.799 70.605-51.782L70.605-51.782L85.327-51.782Q85.327-41.235 79.211-35.339Q73.096-29.443 62.183-29.443L62.183-29.443Q57.935-29.443 53.467-30.505Q48.999-31.567 41.089-34.424L41.089-34.424Q36.987-35.889 34.314-36.511Q31.641-37.134 29.663-37.134L29.663-37.134Q22.925-37.134 22.925-29.443L22.925-29.443ZM103.638 0L103.638-104.150L158.716-104.150Q165.820-104.150 171.643-100.671Q177.466-97.192 180.945-91.406Q184.424-85.620 184.424-78.516L184.424-78.516L184.424-68.115Q184.424-61.157 180.945-55.408Q177.466-49.658 171.643-46.252Q165.820-42.847 158.716-42.847L158.716-42.847L127.881-42.847L127.881-58.228L158.716-58.228Q163.037-58.228 166.040-61.157Q169.043-64.087 169.043-68.335L169.043-68.335L169.043-78.516Q169.043-82.764 166.040-85.767Q163.037-88.770 158.716-88.770L158.716-88.770L119.092-88.770L119.092 0L103.638 0ZM200.171-27.539L200.171-48.486Q200.171-56.030 203.979-62.256Q207.788-68.481 214.160-72.180Q220.532-75.879 228.296-75.879L228.296-75.879L270.996-75.879L270.996-60.425L228.296-60.425Q223.096-60.425 219.360-56.873Q215.625-53.320 215.625-48.267L215.625-48.267L215.625-27.686Q215.625-22.632 219.324-19.043Q223.022-15.454 228.296-15.454L228.296-15.454L270.996-15.454L270.996 0L228.296 0Q220.532 0 214.160-3.735Q207.788-7.471 203.979-13.733Q200.171-19.995 200.171-27.539L200.171-27.539ZM287.842-47.168L293.188-56.323L305.859-49.072L305.859-63.794L316.626-63.794L316.626-49.072L329.590-56.396L334.644-47.095L321.973-39.697L334.790-32.300L329.443-23.145L316.626-30.469L316.626-15.601L305.859-15.601L305.859-30.396L293.188-22.998L287.915-32.373L300.586-39.844L287.842-47.168ZM353.833 0L353.833-104.150L409.204-104.150Q417.334-104.150 424.036-100.195Q430.737-96.240 434.692-89.612Q438.647-82.983 438.647-74.854L438.647-74.854L438.647-29.004Q438.647-21.021 434.692-14.429Q430.737-7.837 424.036-3.918Q417.334 0 409.204 0L409.204 0L353.833 0ZM369.287-15.454L409.204-15.454Q415.063-15.454 419.165-19.482Q423.267-23.511 423.267-29.224L423.267-29.224L423.267-74.854Q423.267-80.640 419.165-84.705Q415.063-88.770 409.204-88.770L409.204-88.770L369.287-88.770L369.287-15.454Z" fill="#f7f3e3" transform="translate(32.6480016708374, 308.07500076293945)"/></svg>