<svg xmlns="http://www.w3.org/2000/svg" viewBox="0 0 512 512"><circle cx="256" cy="256" r="256" fill="#001117"/><path d="M11.953 0L11.953-127.969L108.047-127.969L108.047 0L11.953 0ZM23.906-11.953L96.094-11.953L96.094-116.016L23.906-116.016L23.906-11.953ZM136.406 0L136.406-166.641L224.531-166.641Q235.898-166.641 245.215-161.074Q254.531-155.508 260.098-146.250Q265.664-136.992 265.664-125.625L265.664-125.625L265.664-108.984Q265.664-97.852 260.098-88.652Q254.531-79.453 245.215-74.004Q235.898-68.555 224.531-68.555L224.531-68.555L175.195-68.555L175.195-93.164L224.531-93.164Q231.445-93.164 236.250-97.852Q241.055-102.539 241.055-109.336L241.055-109.336L241.055-125.625Q241.055-132.422 236.250-137.227Q231.445-142.031 224.531-142.031L224.531-142.031L161.133-142.031L161.133 0L136.406 0ZM290.859-44.063L290.859-77.578Q290.859-89.648 296.953-99.609Q303.047-109.570 313.242-115.488Q323.438-121.406 335.859-121.406L335.859-121.406L404.180-121.406L404.180-96.680L335.859-96.680Q327.539-96.680 321.563-90.996Q315.586-85.313 315.586-77.227L315.586-77.227L315.586-44.297Q315.586-36.211 321.504-30.469Q327.422-24.727 335.859-24.727L335.859-24.727L404.180-24.727L404.180 0L335.859 0Q323.438 0 313.242-5.977Q303.047-11.953 296.953-21.973Q290.859-31.992 290.859-44.063L290.859-44.063Z" fill="#f7f3e3" transform="translate(47.933505058288574, 339.3205032348633)"/></svg>