<svg xmlns="http://www.w3.org/2000/svg" viewBox="0 0 512 512"><circle cx="256" cy="256" r="256" fill="#001117"/><path d="M26.593-34.154L9.346-34.154Q9.346-45.454 16.440-52.718Q23.534-59.982 34.579-59.982L34.579-59.982Q39.847-59.982 45.327-58.708Q50.807-57.434 58.028-54.460L58.028-54.460Q63.296-52.506 66.822-51.656Q70.348-50.807 73.406-50.807L73.406-50.807Q81.902-50.807 81.902-60.067L81.902-60.067L98.979-60.067Q98.979-47.833 91.885-40.994Q84.791-34.154 72.132-34.154L72.132-34.154Q67.204-34.154 62.021-35.386Q56.839-36.618 47.663-39.932L47.663-39.932Q42.905-41.631 39.804-42.353Q36.703-43.075 34.409-43.075L34.409-43.075Q26.593-43.075 26.593-34.154L26.593-34.154ZM120.220 0L120.220-120.814L184.110-120.814Q192.352-120.814 199.106-116.779Q205.860-112.743 209.896-106.031Q213.932-99.319 213.932-91.078L213.932-91.078L213.932-79.014Q213.932-70.942 209.896-64.273Q205.860-57.604 199.106-53.653Q192.352-49.702 184.110-49.702L184.110-49.702L148.342-49.702L148.342-67.544L184.110-67.544Q189.123-67.544 192.606-70.942Q196.090-74.341 196.090-79.269L196.090-79.269L196.090-91.078Q196.090-96.006 192.606-99.489Q189.123-102.973 184.110-102.973L184.110-102.973L138.146-102.973L138.146 0L120.220 0ZM232.198-31.945L232.198-56.244Q232.198-64.995 236.616-72.217Q241.034-79.438 248.426-83.729Q255.817-88.020 264.823-88.020L264.823-88.020L314.355-88.020L314.355-70.093L264.823-70.093Q258.791-70.093 254.458-65.972Q250.125-61.852 250.125-55.989L250.125-55.989L250.125-32.115Q250.125-26.253 254.416-22.090Q258.706-17.927 264.823-17.927L264.823-17.927L314.355-17.927L314.355 0L264.823 0Q255.817 0 248.426-4.333Q241.034-8.666 236.616-15.930Q232.198-23.194 232.198-31.945L232.198-31.945ZM335.596 0L335.596-120.814L399.826-120.814Q409.257-120.814 417.031-116.227Q424.805-111.639 429.393-103.950Q433.980-96.261 433.980-86.830L433.980-86.830L433.980-33.645Q433.980-24.384 429.393-16.737Q424.805-9.091 417.031-4.545Q409.257 0 399.826 0L399.826 0L335.596 0ZM353.522-17.927L399.826-17.927Q406.623-17.927 411.381-22.600Q416.139-27.272 416.139-33.899L416.139-33.899L416.139-86.830Q416.139-93.542 411.381-98.257Q406.623-102.973 399.826-102.973L399.826-102.973L353.522-102.973L353.522-17.927Z" fill="#f7f3e3" transform="translate(34.33699893951416, 316.4070014953613)"/></svg>