<svg xmlns="http://www.w3.org/2000/svg" viewBox="0 0 512 512"><circle cx="256" cy="256" r="256" fill="#001117"/><path d="M10.459 0L10.459-111.973L94.541-111.973L94.541 0L10.459 0ZM20.918-10.459L84.082-10.459L84.082-101.514L20.918-101.514L20.918-10.459ZM119.355 0L119.355-145.811L196.465-145.811Q206.411-145.811 214.563-140.940Q222.715-136.069 227.585-127.969Q232.456-119.868 232.456-109.922L232.456-109.922L232.456-95.361Q232.456-85.620 227.585-77.571Q222.715-69.521 214.563-64.753Q206.411-59.985 196.465-59.985L196.465-59.985L153.296-59.985L153.296-81.519L196.465-81.519Q202.515-81.519 206.719-85.620Q210.923-89.722 210.923-95.669L210.923-95.669L210.923-109.922Q210.923-115.869 206.719-120.073Q202.515-124.277 196.465-124.277L196.465-124.277L140.991-124.277L140.991 0L119.355 0ZM254.502-38.555L254.502-67.881Q254.502-78.442 259.834-87.158Q265.166-95.874 274.087-101.052Q283.008-106.230 293.877-106.230L293.877-106.230L353.657-106.230L353.657-84.595L293.877-84.595Q286.597-84.595 281.367-79.622Q276.138-74.648 276.138-67.573L276.138-67.573L276.138-38.760Q276.138-31.685 281.316-26.660Q286.494-21.636 293.877-21.636L293.877-21.636L353.657-21.636L353.657 0L293.877 0Q283.008 0 274.087-5.229Q265.166-10.459 259.834-19.226Q254.502-27.993 254.502-38.555L254.502-38.555Z" fill="#f7f3e3" transform="translate(73.94200134277344, 328.90550231933594)"/></svg>