<svg xmlns="http://www.w3.org/2000/svg" viewBox="0 0 512 512"><circle cx="256" cy="256" r="256" fill="#001117"/><path d="M29.802-38.276L10.474-38.276Q10.474-50.940 18.424-59.081Q26.375-67.222 38.752-67.222L38.752-67.222Q44.656-67.222 50.797-65.793Q56.938-64.365 65.032-61.033L65.032-61.033Q70.935-58.843 74.886-57.891Q78.838-56.938 82.266-56.938L82.266-56.938Q91.787-56.938 91.787-67.317L91.787-67.317L110.925-67.317Q110.925-53.606 102.975-45.941Q95.024-38.276 80.837-38.276L80.837-38.276Q75.315-38.276 69.507-39.657Q63.699-41.038 53.416-44.751L53.416-44.751Q48.083-46.655 44.608-47.465Q41.133-48.274 38.562-48.274L38.562-48.274Q29.802-48.274 29.802-38.276L29.802-38.276ZM134.729 0L134.729-135.396L206.331-135.396Q215.566-135.396 223.136-130.873Q230.706-126.350 235.228-118.828Q239.751-111.306 239.751-102.070L239.751-102.070L239.751-88.550Q239.751-79.504 235.228-72.030Q230.706-64.556 223.136-60.128Q215.566-55.701 206.331-55.701L206.331-55.701L166.245-55.701L166.245-75.696L206.331-75.696Q211.948-75.696 215.852-79.504Q219.756-83.313 219.756-88.835L219.756-88.835L219.756-102.070Q219.756-107.593 215.852-111.497Q211.948-115.400 206.331-115.400L206.331-115.400L154.819-115.400L154.819 0L134.729 0ZM260.222-35.610L260.222-63.032Q260.222-72.839 265.031-80.933Q269.839-89.026 277.932-93.834Q286.025-98.643 295.833-98.643L295.833-98.643L317.351-98.643Q327.158-98.643 335.251-93.834Q343.345-89.026 348.153-80.933Q352.961-72.839 352.961-63.032L352.961-63.032L352.961-35.610Q352.961-25.803 348.153-17.710Q343.345-9.617 335.251-4.808Q327.158 0 317.351 0L317.351 0L295.833 0Q286.025 0 277.932-4.808Q269.839-9.617 265.031-17.710Q260.222-25.803 260.222-35.610L260.222-35.610ZM280.313-62.842L280.313-35.801Q280.313-29.326 284.883-24.708Q289.453-20.090 295.833-20.090L295.833-20.090L317.351-20.090Q323.826-20.090 328.348-24.708Q332.871-29.326 332.871-35.801L332.871-35.801L332.871-62.842Q332.871-69.316 328.348-73.934Q323.826-78.552 317.351-78.552L317.351-78.552L295.833-78.552Q289.453-78.552 284.883-73.934Q280.313-69.316 280.313-62.842L280.313-62.842ZM376.765 0L376.765-135.396L396.855-135.396L396.855 0L376.765 0Z" fill="#f7f3e3" transform="translate(52.33549404144287, 323.697998046875)"/></svg>