<svg xmlns="http://www.w3.org/2000/svg" viewBox="0 0 512 512"><circle cx="256" cy="256" r="256" fill="#001117"/><path d="M14.355 0L14.355-145.811L91.465-145.811Q101.411-145.811 109.563-140.940Q117.715-136.069 122.585-127.969Q127.456-119.868 127.456-109.922L127.456-109.922L127.456-95.361Q127.456-85.620 122.585-77.571Q117.715-69.521 109.563-64.753Q101.411-59.985 91.465-59.985L91.465-59.985L48.296-59.985L48.296-81.519L91.465-81.519Q97.515-81.519 101.719-85.620Q105.923-89.722 105.923-95.669L105.923-95.669L105.923-109.922Q105.923-115.869 101.719-120.073Q97.515-124.277 91.465-124.277L91.465-124.277L35.991-124.277L35.991 0L14.355 0ZM149.502-38.350L149.502-67.881Q149.502-78.442 154.680-87.158Q159.858-95.874 168.574-101.052Q177.290-106.230 187.852-106.230L187.852-106.230L211.025-106.230Q221.587-106.230 230.303-101.052Q239.019-95.874 244.197-87.158Q249.375-78.442 249.375-67.881L249.375-67.881L249.375-38.350Q249.375-27.788 244.197-19.072Q239.019-10.356 230.303-5.178Q221.587 0 211.025 0L211.025 0L187.852 0Q177.290 0 168.574-5.178Q159.858-10.356 154.680-19.072Q149.502-27.788 149.502-38.350L149.502-38.350ZM171.138-67.676L171.138-38.555Q171.138-31.582 176.060-26.609Q180.981-21.636 187.852-21.636L187.852-21.636L211.025-21.636Q217.998-21.636 222.869-26.609Q227.739-31.582 227.739-38.555L227.739-38.555L227.739-67.676Q227.739-74.648 222.869-79.622Q217.998-84.595 211.025-84.595L211.025-84.595L187.852-84.595Q180.981-84.595 176.060-79.622Q171.138-74.648 171.138-67.676L171.138-67.676ZM275.010 0L275.010-145.811L352.529-145.811Q363.911-145.811 373.293-140.273Q382.676-134.736 388.213-125.457Q393.750-116.177 393.750-104.795L393.750-104.795L393.750-40.605Q393.750-29.429 388.213-20.200Q382.676-10.972 373.293-5.486Q363.911 0 352.529 0L352.529 0L275.010 0ZM296.646-21.636L352.529-21.636Q360.732-21.636 366.475-27.275Q372.217-32.915 372.217-40.913L372.217-40.913L372.217-104.795Q372.217-112.896 366.475-118.586Q360.732-124.277 352.529-124.277L352.529-124.277L296.646-124.277L296.646-21.636Z" fill="#f7f3e3" transform="translate(51.947505950927734, 328.90550231933594)"/></svg>