<svg xmlns="http://www.w3.org/2000/svg" viewBox="0 0 512 512"><circle cx="256" cy="256" r="256" fill="#001117"/><path d="M10.474-45.227L10.474-60.081L106.641-95.024L106.641-75.220L44.846-52.654L106.641-30.183L106.641-10.283L10.474-45.227ZM130.444 0L130.444-135.396L202.046-135.396Q211.282-135.396 218.851-130.873Q226.421-126.350 230.944-118.828Q235.466-111.306 235.466-102.070L235.466-102.070L235.466-88.550Q235.466-79.504 230.944-72.030Q226.421-64.556 218.851-60.128Q211.282-55.701 202.046-55.701L202.046-55.701L161.960-55.701L161.960-75.696L202.046-75.696Q207.664-75.696 211.567-79.504Q215.471-83.313 215.471-88.835L215.471-88.835L215.471-102.070Q215.471-107.593 211.567-111.497Q207.664-115.400 202.046-115.400L202.046-115.400L150.535-115.400L150.535 0L130.444 0ZM255.938-35.610L255.938-63.032Q255.938-72.839 260.746-80.933Q265.554-89.026 273.647-93.834Q281.741-98.643 291.548-98.643L291.548-98.643L313.066-98.643Q322.874-98.643 330.967-93.834Q339.060-89.026 343.868-80.933Q348.677-72.839 348.677-63.032L348.677-63.032L348.677-35.610Q348.677-25.803 343.868-17.710Q339.060-9.617 330.967-4.808Q322.874 0 313.066 0L313.066 0L291.548 0Q281.741 0 273.647-4.808Q265.554-9.617 260.746-17.710Q255.938-25.803 255.938-35.610L255.938-35.610ZM276.028-62.842L276.028-35.801Q276.028-29.326 280.598-24.708Q285.168-20.090 291.548-20.090L291.548-20.090L313.066-20.090Q319.541-20.090 324.064-24.708Q328.586-29.326 328.586-35.801L328.586-35.801L328.586-62.842Q328.586-69.316 324.064-73.934Q319.541-78.552 313.066-78.552L313.066-78.552L291.548-78.552Q285.168-78.552 280.598-73.934Q276.028-69.316 276.028-62.842L276.028-62.842ZM372.480 0L372.480-135.396L392.571-135.396L392.571 0L372.480 0Z" fill="#f7f3e3" transform="translate(54.477492332458496, 323.697998046875)"/></svg>