<svg xmlns="http://www.w3.org/2000/svg" viewBox="0 0 512 512"><circle cx="256" cy="256" r="256" fill="#001117"/><path d="M8.057-7.910L8.057-23.218L55.591-40.503L8.057-57.861L8.057-73.096L82.031-46.216L82.031-34.790L8.057-7.910ZM100.342 0L100.342-104.150L155.420-104.150Q162.524-104.150 168.347-100.671Q174.170-97.192 177.649-91.406Q181.128-85.620 181.128-78.516L181.128-78.516L181.128-68.115Q181.128-61.157 177.649-55.408Q174.170-49.658 168.347-46.252Q162.524-42.847 155.420-42.847L155.420-42.847L124.585-42.847L124.585-58.228L155.420-58.228Q159.741-58.228 162.744-61.157Q165.747-64.087 165.747-68.335L165.747-68.335L165.747-78.516Q165.747-82.764 162.744-85.767Q159.741-88.770 155.420-88.770L155.420-88.770L115.796-88.770L115.796 0L100.342 0ZM196.875-27.393L196.875-48.486Q196.875-56.030 200.574-62.256Q204.272-68.481 210.498-72.180Q216.724-75.879 224.268-75.879L224.268-75.879L240.820-75.879Q248.364-75.879 254.590-72.180Q260.815-68.481 264.514-62.256Q268.213-56.030 268.213-48.486L268.213-48.486L268.213-27.393Q268.213-19.849 264.514-13.623Q260.815-7.397 254.590-3.699Q248.364 0 240.820 0L240.820 0L224.268 0Q216.724 0 210.498-3.699Q204.272-7.397 200.574-13.623Q196.875-19.849 196.875-27.393L196.875-27.393ZM212.329-48.340L212.329-27.539Q212.329-22.559 215.845-19.006Q219.360-15.454 224.268-15.454L224.268-15.454L240.820-15.454Q245.801-15.454 249.280-19.006Q252.759-22.559 252.759-27.539L252.759-27.539L252.759-48.340Q252.759-53.320 249.280-56.873Q245.801-60.425 240.820-60.425L240.820-60.425L224.268-60.425Q219.360-60.425 215.845-56.873Q212.329-53.320 212.329-48.340L212.329-48.340ZM285.059-47.168L290.405-56.323L303.076-49.072L303.076-63.794L313.843-63.794L313.843-49.072L326.807-56.396L331.860-47.095L319.189-39.697L332.007-32.300L326.660-23.145L313.843-30.469L313.843-15.601L303.076-15.601L303.076-30.396L290.405-22.998L285.132-32.373L297.803-39.844L285.059-47.168ZM351.050 0L351.050-104.150L406.421-104.150Q414.551-104.150 421.252-100.195Q427.954-96.240 431.909-89.612Q435.864-82.983 435.864-74.854L435.864-74.854L435.864-29.004Q435.864-21.021 431.909-14.429Q427.954-7.837 421.252-3.918Q414.551 0 406.421 0L406.421 0L351.050 0ZM366.504-15.454L406.421-15.454Q412.280-15.454 416.382-19.482Q420.483-23.511 420.483-29.224L420.483-29.224L420.483-74.854Q420.483-80.640 416.382-84.705Q412.280-88.770 406.421-88.770L406.421-88.770L366.504-88.770L366.504-15.454Z" fill="#f7f3e3" transform="translate(34.039496421813965, 308.07500076293945)"/></svg>