<svg xmlns="http://www.w3.org/2000/svg" viewBox="0 0 512 512"><circle cx="256" cy="256" r="256" fill="#001117"/><path d="M26.593-34.154L9.346-34.154Q9.346-45.454 16.440-52.718Q23.534-59.982 34.579-59.982L34.579-59.982Q39.847-59.982 45.327-58.708Q50.807-57.434 58.028-54.460L58.028-54.460Q63.296-52.506 66.822-51.656Q70.348-50.807 73.406-50.807L73.406-50.807Q81.902-50.807 81.902-60.067L81.902-60.067L98.979-60.067Q98.979-47.833 91.885-40.994Q84.791-34.154 72.132-34.154L72.132-34.154Q67.204-34.154 62.021-35.386Q56.839-36.618 47.663-39.932L47.663-39.932Q42.905-41.631 39.804-42.353Q36.703-43.075 34.409-43.075L34.409-43.075Q26.593-43.075 26.593-34.154L26.593-34.154ZM120.220 0L120.220-120.814L184.110-120.814Q192.352-120.814 199.106-116.779Q205.860-112.743 209.896-106.031Q213.932-99.319 213.932-91.078L213.932-91.078L213.932-79.014Q213.932-70.942 209.896-64.273Q205.860-57.604 199.106-53.653Q192.352-49.702 184.110-49.702L184.110-49.702L148.342-49.702L148.342-67.544L184.110-67.544Q189.123-67.544 192.606-70.942Q196.090-74.341 196.090-79.269L196.090-79.269L196.090-91.078Q196.090-96.006 192.606-99.489Q189.123-102.973 184.110-102.973L184.110-102.973L138.146-102.973L138.146 0L120.220 0ZM232.198-31.775L232.198-56.244Q232.198-64.995 236.489-72.217Q240.779-79.438 248.001-83.729Q255.223-88.020 263.974-88.020L263.974-88.020L283.175-88.020Q291.926-88.020 299.147-83.729Q306.369-79.438 310.660-72.217Q314.950-64.995 314.950-56.244L314.950-56.244L314.950-31.775Q314.950-23.024 310.660-15.803Q306.369-8.581 299.147-4.291Q291.926 0 283.175 0L283.175 0L263.974 0Q255.223 0 248.001-4.291Q240.779-8.581 236.489-15.803Q232.198-23.024 232.198-31.775L232.198-31.775ZM250.125-56.074L250.125-31.945Q250.125-26.168 254.203-22.047Q258.281-17.927 263.974-17.927L263.974-17.927L283.175-17.927Q288.952-17.927 292.988-22.047Q297.023-26.168 297.023-31.945L297.023-31.945L297.023-56.074Q297.023-61.852 292.988-65.972Q288.952-70.093 283.175-70.093L283.175-70.093L263.974-70.093Q258.281-70.093 254.203-65.972Q250.125-61.852 250.125-56.074L250.125-56.074ZM336.190 0L336.190-120.814L400.421-120.814Q409.852-120.814 417.625-116.227Q425.399-111.639 429.987-103.950Q434.575-96.261 434.575-86.830L434.575-86.830L434.575-33.645Q434.575-24.384 429.987-16.737Q425.399-9.091 417.625-4.545Q409.852 0 400.421 0L400.421 0L336.190 0ZM354.117-17.927L400.421-17.927Q407.218-17.927 411.976-22.600Q416.733-27.272 416.733-33.899L416.733-33.899L416.733-86.830Q416.733-93.542 411.976-98.257Q407.218-102.973 400.421-102.973L400.421-102.973L354.117-102.973L354.117-17.927Z" fill="#f7f3e3" transform="translate(34.0394983291626, 316.4070014953613)"/></svg>