<svg xmlns="http://www.w3.org/2000/svg" viewBox="0 0 512 512"><circle cx="256" cy="256" r="256" fill="#001117"/><path d="M9.346-9.176L9.346-26.933L64.485-46.983L9.346-67.119L9.346-84.791L95.156-53.610L95.156-40.356L9.346-9.176ZM116.396 0L116.396-120.814L180.287-120.814Q188.528-120.814 195.283-116.779Q202.037-112.743 206.073-106.031Q210.108-99.319 210.108-91.078L210.108-91.078L210.108-79.014Q210.108-70.942 206.073-64.273Q202.037-57.604 195.283-53.653Q188.528-49.702 180.287-49.702L180.287-49.702L144.519-49.702L144.519-67.544L180.287-67.544Q185.300-67.544 188.783-70.942Q192.267-74.341 192.267-79.269L192.267-79.269L192.267-91.078Q192.267-96.006 188.783-99.489Q185.300-102.973 180.287-102.973L180.287-102.973L134.323-102.973L134.323 0L116.396 0ZM228.375-31.775L228.375-56.244Q228.375-64.995 232.666-72.217Q236.956-79.438 244.178-83.729Q251.399-88.020 260.150-88.020L260.150-88.020L279.352-88.020Q288.103-88.020 295.324-83.729Q302.546-79.438 306.836-72.217Q311.127-64.995 311.127-56.244L311.127-56.244L311.127-31.775Q311.127-23.024 306.836-15.803Q302.546-8.581 295.324-4.291Q288.103 0 279.352 0L279.352 0L260.150 0Q251.399 0 244.178-4.291Q236.956-8.581 232.666-15.803Q228.375-23.024 228.375-31.775L228.375-31.775ZM246.302-56.074L246.302-31.945Q246.302-26.168 250.380-22.047Q254.458-17.927 260.150-17.927L260.150-17.927L279.352-17.927Q285.129-17.927 289.165-22.047Q293.200-26.168 293.200-31.945L293.200-31.945L293.200-56.074Q293.200-61.852 289.165-65.972Q285.129-70.093 279.352-70.093L279.352-70.093L260.150-70.093Q254.458-70.093 250.380-65.972Q246.302-61.852 246.302-56.074L246.302-56.074ZM332.367 0L332.367-120.814L396.598-120.814Q406.028-120.814 413.802-116.227Q421.576-111.639 426.164-103.950Q430.752-96.261 430.752-86.830L430.752-86.830L430.752-33.645Q430.752-24.384 426.164-16.737Q421.576-9.091 413.802-4.545Q406.028 0 396.598 0L396.598 0L332.367 0ZM350.294-17.927L396.598-17.927Q403.395-17.927 408.152-22.600Q412.910-27.272 412.910-33.899L412.910-33.899L412.910-86.830Q412.910-93.542 408.152-98.257Q403.395-102.973 396.598-102.973L396.598-102.973L350.294-102.973L350.294-17.927Z" fill="#f7f3e3" transform="translate(35.9509973526001, 316.4070014953613)"/></svg>