<svg xmlns="http://www.w3.org/2000/svg" viewBox="0 0 512 512"><circle cx="256" cy="256" r="256" fill="#001117"/><path d="M17.578-129.346L17.578-129.346Q17.578-137.256 23.145-142.822Q28.711-148.389 36.621-148.389L36.621-148.389Q44.678-148.389 50.171-142.896Q55.664-137.402 55.664-129.346L55.664-129.346Q55.664-121.289 50.171-115.796Q44.678-110.303 36.621-110.303L36.621-110.303Q28.564-110.303 23.071-115.796Q17.578-121.289 17.578-129.346ZM17.578-17.578L17.578-17.578Q17.578-25.488 23.145-31.055Q28.711-36.621 36.621-36.621L36.621-36.621Q44.678-36.621 50.171-31.128Q55.664-25.635 55.664-17.578L55.664-17.578Q55.664-9.521 50.171-4.028Q44.678 1.465 36.621 1.465L36.621 1.465Q28.711 1.465 23.145-4.102Q17.578-9.668 17.578-17.578ZM93.750 0L93.750-208.301L203.906-208.301Q218.115-208.301 229.761-201.343Q241.406-194.385 248.364-182.813Q255.322-171.240 255.322-157.031L255.322-157.031L255.322-136.230Q255.322-122.314 248.364-110.815Q241.406-99.316 229.761-92.505Q218.115-85.693 203.906-85.693L203.906-85.693L142.236-85.693L142.236-116.455L203.906-116.455Q212.549-116.455 218.555-122.314Q224.561-128.174 224.561-136.670L224.561-136.670L224.561-157.031Q224.561-165.527 218.555-171.533Q212.549-177.539 203.906-177.539L203.906-177.539L124.658-177.539L124.658 0L93.750 0ZM286.816-54.785L286.816-96.973Q286.816-112.061 294.214-124.512Q301.611-136.963 314.063-144.360Q326.514-151.758 341.602-151.758L341.602-151.758L374.707-151.758Q389.795-151.758 402.246-144.360Q414.697-136.963 422.095-124.512Q429.492-112.061 429.492-96.973L429.492-96.973L429.492-54.785Q429.492-39.697 422.095-27.246Q414.697-14.795 402.246-7.397Q389.795 0 374.707 0L374.707 0L341.602 0Q326.514 0 314.063-7.397Q301.611-14.795 294.214-27.246Q286.816-39.697 286.816-54.785L286.816-54.785ZM317.725-96.680L317.725-55.078Q317.725-45.117 324.756-38.013Q331.787-30.908 341.602-30.908L341.602-30.908L374.707-30.908Q384.668-30.908 391.626-38.013Q398.584-45.117 398.584-55.078L398.584-55.078L398.584-96.680Q398.584-106.641 391.626-113.745Q384.668-120.850 374.707-120.850L374.707-120.850L341.602-120.850Q331.787-120.850 324.756-113.745Q317.725-106.641 317.725-96.680L317.725-96.680Z" fill="#f7f3e3" transform="translate(32.46500015258789, 359.4179992675781)"/></svg>