<svg xmlns="http://www.w3.org/2000/svg" viewBox="0 0 512 512"><circle cx="256" cy="256" r="256" fill="#001117"/><path d="M17.432 0L17.432-177.056L111.064-177.056Q123.142-177.056 133.041-171.141Q142.939-165.227 148.854-155.391Q154.768-145.554 154.768-133.477L154.768-133.477L154.768-115.796Q154.768-103.967 148.854-94.193Q142.939-84.419 133.041-78.629Q123.142-72.839 111.064-72.839L111.064-72.839L58.645-72.839L58.645-98.987L111.064-98.987Q118.411-98.987 123.516-103.967Q128.621-108.948 128.621-116.169L128.621-116.169L128.621-133.477Q128.621-140.698 123.516-145.803Q118.411-150.908 111.064-150.908L111.064-150.908L43.704-150.908L43.704 0L17.432 0ZM181.538-46.567L181.538-82.427Q181.538-95.251 187.826-105.835Q194.114-116.418 204.697-122.706Q215.281-128.994 228.105-128.994L228.105-128.994L256.245-128.994Q269.070-128.994 279.653-122.706Q290.237-116.418 296.525-105.835Q302.813-95.251 302.813-82.427L302.813-82.427L302.813-46.567Q302.813-33.743 296.525-23.159Q290.237-12.576 279.653-6.288Q269.070 0 256.245 0L256.245 0L228.105 0Q215.281 0 204.697-6.288Q194.114-12.576 187.826-23.159Q181.538-33.743 181.538-46.567L181.538-46.567ZM207.810-82.178L207.810-46.816Q207.810-38.350 213.787-32.311Q219.763-26.272 228.105-26.272L228.105-26.272L256.245-26.272Q264.712-26.272 270.626-32.311Q276.541-38.350 276.541-46.816L276.541-46.816L276.541-82.178Q276.541-90.645 270.626-96.683Q264.712-102.722 256.245-102.722L256.245-102.722L228.105-102.722Q219.763-102.722 213.787-96.683Q207.810-90.645 207.810-82.178L207.810-82.178ZM333.940 0L333.940-177.056L360.212-177.056L360.212 0L333.940 0Z" fill="#f7f3e3" transform="translate(67.1780014038086, 344.5279998779297)"/></svg>