<svg xmlns="http://www.w3.org/2000/svg" viewBox="0 0 512 512"><circle cx="256" cy="256" r="256" fill="#001117"/><path d="M12.305 0L12.305-124.980L78.398-124.980Q86.924-124.980 93.911-120.806Q100.898-116.631 105.073-109.688Q109.248-102.744 109.248-94.219L109.248-94.219L109.248-81.738Q109.248-73.389 105.073-66.489Q100.898-59.590 93.911-55.503Q86.924-51.416 78.398-51.416L78.398-51.416L41.396-51.416L41.396-69.873L78.398-69.873Q83.584-69.873 87.188-73.389Q90.791-76.904 90.791-82.002L90.791-82.002L90.791-94.219Q90.791-99.316 87.188-102.920Q83.584-106.523 78.398-106.523L78.398-106.523L30.850-106.523L30.850 0L12.305 0ZM128.145-32.871L128.145-58.184Q128.145-67.236 132.583-74.707Q137.021-82.178 144.492-86.616Q151.963-91.055 161.016-91.055L161.016-91.055L180.879-91.055Q189.932-91.055 197.402-86.616Q204.873-82.178 209.312-74.707Q213.750-67.236 213.750-58.184L213.750-58.184L213.750-32.871Q213.750-23.818 209.312-16.348Q204.873-8.877 197.402-4.438Q189.932 0 180.879 0L180.879 0L161.016 0Q151.963 0 144.492-4.438Q137.021-8.877 132.583-16.348Q128.145-23.818 128.145-32.871L128.145-32.871ZM146.689-58.008L146.689-33.047Q146.689-27.070 150.908-22.808Q155.127-18.545 161.016-18.545L161.016-18.545L180.879-18.545Q186.855-18.545 191.030-22.808Q195.205-27.070 195.205-33.047L195.205-33.047L195.205-58.008Q195.205-63.984 191.030-68.247Q186.855-72.510 180.879-72.510L180.879-72.510L161.016-72.510Q155.127-72.510 150.908-68.247Q146.689-63.984 146.689-58.008L146.689-58.008ZM233.965-56.602L240.381-67.588L255.586-58.887L255.586-76.553L268.506-76.553L268.506-58.887L284.063-67.676L290.127-56.514L274.922-47.637L290.303-38.760L283.887-27.773L268.506-36.563L268.506-18.721L255.586-18.721L255.586-36.475L240.381-27.598L234.053-38.848L249.258-47.813L233.965-56.602ZM313.154 0L313.154-124.980L379.600-124.980Q389.355-124.980 397.397-120.234Q405.439-115.488 410.186-107.534Q414.932-99.580 414.932-89.824L414.932-89.824L414.932-34.805Q414.932-25.225 410.186-17.314Q405.439-9.404 397.397-4.702Q389.355 0 379.600 0L379.600 0L313.154 0ZM331.699-18.545L379.600-18.545Q386.631-18.545 391.553-23.379Q396.475-28.213 396.475-35.068L396.475-35.068L396.475-89.824Q396.475-96.768 391.553-101.646Q386.631-106.523 379.600-106.523L379.600-106.523L331.699-106.523L331.699-18.545Z" fill="#f7f3e3" transform="translate(42.381492614746094, 318.4900016784668)"/></svg>