<svg xmlns="http://www.w3.org/2000/svg" viewBox="0 0 512 512"><circle cx="256" cy="256" r="256" fill="#001117"/><path d="M22.925-29.443L8.057-29.443Q8.057-39.185 14.172-45.447Q20.288-51.709 29.810-51.709L29.810-51.709Q34.351-51.709 39.075-50.610Q43.799-49.512 50.024-46.948L50.024-46.948Q54.565-45.264 57.605-44.531Q60.645-43.799 63.281-43.799L63.281-43.799Q70.605-43.799 70.605-51.782L70.605-51.782L85.327-51.782Q85.327-41.235 79.211-35.339Q73.096-29.443 62.183-29.443L62.183-29.443Q57.935-29.443 53.467-30.505Q48.999-31.567 41.089-34.424L41.089-34.424Q36.987-35.889 34.314-36.511Q31.641-37.134 29.663-37.134L29.663-37.134Q22.925-37.134 22.925-29.443L22.925-29.443ZM103.638 0L103.638-104.150L158.716-104.150Q165.820-104.150 171.643-100.671Q177.466-97.192 180.945-91.406Q184.424-85.620 184.424-78.516L184.424-78.516L184.424-68.115Q184.424-61.157 180.945-55.408Q177.466-49.658 171.643-46.252Q165.820-42.847 158.716-42.847L158.716-42.847L127.881-42.847L127.881-58.228L158.716-58.228Q163.037-58.228 166.040-61.157Q169.043-64.087 169.043-68.335L169.043-68.335L169.043-78.516Q169.043-82.764 166.040-85.767Q163.037-88.770 158.716-88.770L158.716-88.770L119.092-88.770L119.092 0L103.638 0ZM200.171-27.393L200.171-48.486Q200.171-56.030 203.870-62.256Q207.568-68.481 213.794-72.180Q220.020-75.879 227.563-75.879L227.563-75.879L244.116-75.879Q251.660-75.879 257.886-72.180Q264.111-68.481 267.810-62.256Q271.509-56.030 271.509-48.486L271.509-48.486L271.509-27.393Q271.509-19.849 267.810-13.623Q264.111-7.397 257.886-3.699Q251.660 0 244.116 0L244.116 0L227.563 0Q220.020 0 213.794-3.699Q207.568-7.397 203.870-13.623Q200.171-19.849 200.171-27.393L200.171-27.393ZM215.625-48.340L215.625-27.539Q215.625-22.559 219.141-19.006Q222.656-15.454 227.563-15.454L227.563-15.454L244.116-15.454Q249.097-15.454 252.576-19.006Q256.055-22.559 256.055-27.539L256.055-27.539L256.055-48.340Q256.055-53.320 252.576-56.873Q249.097-60.425 244.116-60.425L244.116-60.425L227.563-60.425Q222.656-60.425 219.141-56.873Q215.625-53.320 215.625-48.340L215.625-48.340ZM288.354-47.168L293.701-56.323L306.372-49.072L306.372-63.794L317.139-63.794L317.139-49.072L330.103-56.396L335.156-47.095L322.485-39.697L335.303-32.300L329.956-23.145L317.139-30.469L317.139-15.601L306.372-15.601L306.372-30.396L293.701-22.998L288.428-32.373L301.099-39.844L288.354-47.168ZM354.346 0L354.346-104.150L409.717-104.150Q417.847-104.150 424.548-100.195Q431.250-96.240 435.205-89.612Q439.160-82.983 439.160-74.854L439.160-74.854L439.160-29.004Q439.160-21.021 435.205-14.429Q431.250-7.837 424.548-3.918Q417.847 0 409.717 0L409.717 0L354.346 0ZM369.800-15.454L409.717-15.454Q415.576-15.454 419.678-19.482Q423.779-23.511 423.779-29.224L423.779-29.224L423.779-74.854Q423.779-80.640 419.678-84.705Q415.576-88.770 409.717-88.770L409.717-88.770L369.800-88.770L369.800-15.454Z" fill="#f7f3e3" transform="translate(32.39150142669678, 308.07500076293945)"/></svg>