<svg xmlns="http://www.w3.org/2000/svg" viewBox="0 0 512 512"><circle cx="256" cy="256" r="256" fill="#001117"/><path d="M12.085-11.865L12.085-34.827L83.386-60.754L12.085-86.792L12.085-109.644L123.047-69.324L123.047-52.185L12.085-11.865ZM150.513 0L150.513-156.226L233.130-156.226Q243.787-156.226 252.521-151.007Q261.255-145.789 266.473-137.109Q271.692-128.430 271.692-117.773L271.692-117.773L271.692-102.173Q271.692-91.736 266.473-83.112Q261.255-74.487 252.521-69.379Q243.787-64.270 233.130-64.270L233.130-64.270L186.877-64.270L186.877-87.341L233.130-87.341Q239.612-87.341 244.116-91.736Q248.621-96.130 248.621-102.502L248.621-102.502L248.621-117.773Q248.621-124.146 244.116-128.650Q239.612-133.154 233.130-133.154L233.130-133.154L173.694-133.154L173.694 0L150.513 0ZM295.313 42.407L295.313-90.637Q295.313-100.195 302.124-107.007Q308.936-113.818 318.494-113.818L318.494-113.818L358.813-113.818Q370.129-113.818 379.468-108.270Q388.806-102.722 394.354-93.494Q399.902-84.265 399.902-72.949L399.902-72.949L399.902-41.089Q399.902-29.773 394.354-20.435Q388.806-11.096 379.468-5.548Q370.129 0 358.813 0L358.813 0L331.677 0L331.677-23.181L358.813-23.181Q366.284-23.181 371.503-28.510Q376.721-33.838 376.721-41.309L376.721-41.309L376.721-72.729Q376.721-80.200 371.503-85.419Q366.284-90.637 358.813-90.637L358.813-90.637L318.494-90.637L318.494 42.407L295.313 42.407Z" fill="#f7f3e3" transform="translate(50.00649166107178, 312.9095001220703)"/></svg>