<svg xmlns="http://www.w3.org/2000/svg" viewBox="0 0 512 512"><circle cx="256" cy="256" r="256" fill="#001117"/><path d="M20.508 0L20.508-208.301L130.664-208.301Q144.873-208.301 156.519-201.343Q168.164-194.385 175.122-182.813Q182.080-171.240 182.080-157.031L182.080-157.031L182.080-136.230Q182.080-122.314 175.122-110.815Q168.164-99.316 156.519-92.505Q144.873-85.693 130.664-85.693L130.664-85.693L68.994-85.693L68.994-116.455L130.664-116.455Q139.307-116.455 145.313-122.314Q151.318-128.174 151.318-136.670L151.318-136.670L151.318-157.031Q151.318-165.527 145.313-171.533Q139.307-177.539 130.664-177.539L130.664-177.539L51.416-177.539L51.416 0L20.508 0ZM213.574 56.543L213.574-120.850Q213.574-133.594 222.656-142.676Q231.738-151.758 244.482-151.758L244.482-151.758L298.242-151.758Q313.330-151.758 325.781-144.360Q338.232-136.963 345.630-124.658Q353.027-112.354 353.027-97.266L353.027-97.266L353.027-54.785Q353.027-39.697 345.630-27.246Q338.232-14.795 325.781-7.397Q313.330 0 298.242 0L298.242 0L262.061 0L262.061-30.908L298.242-30.908Q308.203-30.908 315.161-38.013Q322.119-45.117 322.119-55.078L322.119-55.078L322.119-96.973Q322.119-106.934 315.161-113.892Q308.203-120.850 298.242-120.850L298.242-120.850L244.482-120.850L244.482 56.543L213.574 56.543Z" fill="#f7f3e3" transform="translate(69.23249435424805, 331.8789978027344)"/></svg>