<svg xmlns="http://www.w3.org/2000/svg" viewBox="0 0 512 512"><circle cx="256" cy="256" r="256" fill="#001117"/><path d="M24.609-70.313L24.609-179.648Q24.609-199.160 34.717-215.068Q44.824-230.977 61.699-240.469Q78.574-249.961 99.141-249.961L99.141-249.961L157.676-249.961Q178.242-249.961 195.205-240.469Q212.168-230.977 222.188-215.068Q232.207-199.160 232.207-179.648L232.207-179.648L232.207-70.313Q232.207-52.559 223.682-37.529Q215.156-22.500 200.479-12.656Q185.801-2.813 167.168-0.527L167.168-0.527L189.316 21.621L163.125 47.988L115.137 0L99.141 0Q78.574 0 61.699-9.492Q44.824-18.984 34.717-34.980Q24.609-50.977 24.609-70.313L24.609-70.313ZM61.699-179.824L61.699-70.137Q61.699-56.426 72.686-46.670Q83.672-36.914 99.141-36.914L99.141-36.914L157.676-36.914Q173.320-36.914 184.219-46.670Q195.117-56.426 195.117-70.137L195.117-70.137L195.117-179.824Q195.117-193.535 184.219-203.291Q173.320-213.047 157.676-213.047L157.676-213.047L99.141-213.047Q83.672-213.047 72.686-203.291Q61.699-193.535 61.699-179.824L61.699-179.824ZM277.910 0L277.910-249.961L315-249.961L315 0L277.910 0Z" fill="#f7f3e3" transform="translate(86.19550514221191, 356.9864959716797)"/></svg>