<svg xmlns="http://www.w3.org/2000/svg" viewBox="0 0 512 512"><circle cx="256" cy="256" r="256" fill="#001117"/><path d="M11.953 0L11.953-127.969L108.047-127.969L108.047 0L11.953 0ZM23.906-11.953L96.094-11.953L96.094-116.016L23.906-116.016L23.906-11.953ZM136.406-46.875L136.406-119.766Q136.406-132.773 143.145-143.379Q149.883-153.984 161.133-160.313Q172.383-166.641 186.094-166.641L186.094-166.641L225.117-166.641Q238.828-166.641 250.137-160.313Q261.445-153.984 268.125-143.379Q274.805-132.773 274.805-119.766L274.805-119.766L274.805-46.875Q274.805-35.039 269.121-25.020Q263.438-15 253.652-8.438Q243.867-1.875 231.445-0.352L231.445-0.352L246.211 14.414L228.750 31.992L196.758 0L186.094 0Q172.383 0 161.133-6.328Q149.883-12.656 143.145-23.320Q136.406-33.984 136.406-46.875L136.406-46.875ZM161.133-119.883L161.133-46.758Q161.133-37.617 168.457-31.113Q175.781-24.609 186.094-24.609L186.094-24.609L225.117-24.609Q235.547-24.609 242.813-31.113Q250.078-37.617 250.078-46.758L250.078-46.758L250.078-119.883Q250.078-129.023 242.813-135.527Q235.547-142.031 225.117-142.031L225.117-142.031L186.094-142.031Q175.781-142.031 168.457-135.527Q161.133-129.023 161.133-119.883L161.133-119.883ZM305.273 0L305.273-166.641L330-166.641L330 0L305.273 0Z" fill="#f7f3e3" transform="translate(85.0235013961792, 323.32450103759766)"/></svg>