<svg xmlns="http://www.w3.org/2000/svg" viewBox="0 0 512 512"><circle cx="256" cy="256" r="256" fill="#001117"/><path d="M12.891-12.656L12.891-37.148L88.945-64.805L12.891-92.578L12.891-116.953L131.250-73.945L131.250-55.664L12.891-12.656ZM160.547-46.875L160.547-119.766Q160.547-132.773 167.285-143.379Q174.023-153.984 185.273-160.313Q196.523-166.641 210.234-166.641L210.234-166.641L249.258-166.641Q262.969-166.641 274.277-160.313Q285.586-153.984 292.266-143.379Q298.945-132.773 298.945-119.766L298.945-119.766L298.945-46.875Q298.945-35.039 293.262-25.020Q287.578-15 277.793-8.438Q268.008-1.875 255.586-0.352L255.586-0.352L270.352 14.414L252.891 31.992L220.898 0L210.234 0Q196.523 0 185.273-6.328Q174.023-12.656 167.285-23.320Q160.547-33.984 160.547-46.875L160.547-46.875ZM185.273-119.883L185.273-46.758Q185.273-37.617 192.598-31.113Q199.922-24.609 210.234-24.609L210.234-24.609L249.258-24.609Q259.688-24.609 266.953-31.113Q274.219-37.617 274.219-46.758L274.219-46.758L274.219-119.883Q274.219-129.023 266.953-135.527Q259.688-142.031 249.258-142.031L249.258-142.031L210.234-142.031Q199.922-142.031 192.598-135.527Q185.273-129.023 185.273-119.883L185.273-119.883ZM331.758 0L331.758-166.641L356.484-166.641L356.484 0L331.758 0Z" fill="#f7f3e3" transform="translate(71.31249141693115, 323.32450103759766)"/></svg>