<svg xmlns="http://www.w3.org/2000/svg" viewBox="0 0 512 512"><circle cx="256" cy="256" r="256" fill="#001117"/><path d="M22.559-64.453L22.559-164.678Q22.559-182.563 31.824-197.146Q41.089-211.729 56.558-220.430Q72.026-229.131 90.879-229.131L90.879-229.131L144.536-229.131Q163.389-229.131 178.938-220.430Q194.487-211.729 203.672-197.146Q212.856-182.563 212.856-164.678L212.856-164.678L212.856-64.453Q212.856-48.179 205.042-34.402Q197.227-20.625 183.772-11.602Q170.317-2.578 153.237-0.483L153.237-0.483L173.540 19.819L149.531 43.989L105.542 0L90.879 0Q72.026 0 56.558-8.701Q41.089-17.402 31.824-32.065Q22.559-46.729 22.559-64.453L22.559-64.453ZM56.558-164.839L56.558-64.292Q56.558-51.724 66.628-42.781Q76.699-33.838 90.879-33.838L90.879-33.838L144.536-33.838Q158.877-33.838 168.867-42.781Q178.857-51.724 178.857-64.292L178.857-64.292L178.857-164.839Q178.857-177.407 168.867-186.350Q158.877-195.293 144.536-195.293L144.536-195.293L90.879-195.293Q76.699-195.293 66.628-186.350Q56.558-177.407 56.558-164.839L56.558-164.839ZM257.974 0L257.974-229.131L291.973-229.131L291.973 0L257.974 0Z" fill="#f7f3e3" transform="translate(98.73399925231934, 348.5709991455078)"/></svg>