<svg xmlns="http://www.w3.org/2000/svg" viewBox="0 0 512 512"><circle cx="256" cy="256" r="256" fill="#001117"/><path d="M18.457-52.734L18.457-134.736Q18.457-149.370 26.038-161.301Q33.618-173.232 46.274-180.352Q58.931-187.471 74.355-187.471L74.355-187.471L118.257-187.471Q133.682-187.471 146.404-180.352Q159.126-173.232 166.641-161.301Q174.155-149.370 174.155-134.736L174.155-134.736L174.155-52.734Q174.155-39.419 167.761-28.147Q161.367-16.875 150.359-9.492Q139.351-2.109 125.376-0.396L125.376-0.396L141.987 16.216L122.344 35.991L86.353 0L74.355 0Q58.931 0 46.274-7.119Q33.618-14.238 26.038-26.235Q18.457-38.232 18.457-52.734L18.457-52.734ZM46.274-134.868L46.274-52.603Q46.274-42.319 54.514-35.002Q62.754-27.686 74.355-27.686L74.355-27.686L118.257-27.686Q129.990-27.686 138.164-35.002Q146.338-42.319 146.338-52.603L146.338-52.603L146.338-134.868Q146.338-145.151 138.164-152.468Q129.990-159.785 118.257-159.785L118.257-159.785L74.355-159.785Q62.754-159.785 54.514-152.468Q46.274-145.151 46.274-134.868L46.274-134.868ZM211.069 0L211.069-187.471L310.737-187.471Q325.371-187.471 337.434-180.352Q349.497-173.232 356.616-161.301Q363.735-149.370 363.735-134.736L363.735-134.736L363.735-52.207Q363.735-37.837 356.616-25.972Q349.497-14.106 337.434-7.053Q325.371 0 310.737 0L310.737 0L211.069 0ZM238.887-27.817L310.737-27.817Q321.284-27.817 328.667-35.068Q336.050-42.319 336.050-52.603L336.050-52.603L336.050-134.736Q336.050-145.151 328.667-152.468Q321.284-159.785 310.737-159.785L310.737-159.785L238.887-159.785L238.887-27.817Z" fill="#f7f3e3" transform="translate(64.90400695800781, 331.73999786376953)"/></svg>