<svg xmlns="http://www.w3.org/2000/svg" viewBox="0 0 512 512"><circle cx="256" cy="256" r="256" fill="#001117"/><path d="M32.095-41.221L11.279-41.221Q11.279-54.858 19.841-63.625Q28.403-72.393 41.733-72.393L41.733-72.393Q48.091-72.393 54.705-70.854Q61.318-69.316 70.034-65.728L70.034-65.728Q76.392-63.369 80.647-62.344Q84.902-61.318 88.594-61.318L88.594-61.318Q98.848-61.318 98.848-72.495L98.848-72.495L119.458-72.495Q119.458-57.729 110.896-49.475Q102.334-41.221 87.056-41.221L87.056-41.221Q81.108-41.221 74.854-42.708Q68.599-44.194 57.524-48.193L57.524-48.193Q51.782-50.244 48.040-51.116Q44.297-51.987 41.528-51.987L41.528-51.987Q32.095-51.987 32.095-41.221L32.095-41.221ZM145.093-41.016L145.093-104.795Q145.093-116.177 150.989-125.457Q156.885-134.736 166.729-140.273Q176.572-145.811 188.569-145.811L188.569-145.811L222.715-145.811Q234.712-145.811 244.607-140.273Q254.502-134.736 260.347-125.457Q266.191-116.177 266.191-104.795L266.191-104.795L266.191-41.016Q266.191-30.659 261.218-21.892Q256.245-13.125 247.683-7.383Q239.121-1.641 228.252-0.308L228.252-0.308L241.172 12.612L225.894 27.993L197.900 0L188.569 0Q176.572 0 166.729-5.537Q156.885-11.074 150.989-20.405Q145.093-29.736 145.093-41.016L145.093-41.016ZM166.729-104.897L166.729-40.913Q166.729-32.915 173.137-27.224Q179.546-21.533 188.569-21.533L188.569-21.533L222.715-21.533Q231.841-21.533 238.198-27.224Q244.556-32.915 244.556-40.913L244.556-40.913L244.556-104.897Q244.556-112.896 238.198-118.586Q231.841-124.277 222.715-124.277L222.715-124.277L188.569-124.277Q179.546-124.277 173.137-118.586Q166.729-112.896 166.729-104.897L166.729-104.897ZM294.902 0L294.902-145.811L372.422-145.811Q383.804-145.811 393.186-140.273Q402.568-134.736 408.105-125.457Q413.643-116.177 413.643-104.795L413.643-104.795L413.643-40.605Q413.643-29.429 408.105-20.200Q402.568-10.972 393.186-5.486Q383.804 0 372.422 0L372.422 0L294.902 0ZM316.538-21.636L372.422-21.636Q380.625-21.636 386.367-27.275Q392.109-32.915 392.109-40.913L392.109-40.913L392.109-104.795Q392.109-112.896 386.367-118.586Q380.625-124.277 372.422-124.277L372.422-124.277L316.538-124.277L316.538-21.636Z" fill="#f7f3e3" transform="translate(43.5389928817749, 314.9090042114258)"/></svg>