<svg xmlns="http://www.w3.org/2000/svg" viewBox="0 0 512 512"><circle cx="256" cy="256" r="256" fill="#001117"/><path d="M11.279-11.074L11.279-32.505L77.827-56.704L11.279-81.006L11.279-102.334L114.844-64.702L114.844-48.706L11.279-11.074ZM140.479-41.016L140.479-104.795Q140.479-116.177 146.375-125.457Q152.271-134.736 162.114-140.273Q171.958-145.811 183.955-145.811L183.955-145.811L218.101-145.811Q230.098-145.811 239.993-140.273Q249.888-134.736 255.732-125.457Q261.577-116.177 261.577-104.795L261.577-104.795L261.577-41.016Q261.577-30.659 256.604-21.892Q251.631-13.125 243.069-7.383Q234.507-1.641 223.638-0.308L223.638-0.308L236.558 12.612L221.279 27.993L193.286 0L183.955 0Q171.958 0 162.114-5.537Q152.271-11.074 146.375-20.405Q140.479-29.736 140.479-41.016L140.479-41.016ZM162.114-104.897L162.114-40.913Q162.114-32.915 168.523-27.224Q174.932-21.533 183.955-21.533L183.955-21.533L218.101-21.533Q227.227-21.533 233.584-27.224Q239.941-32.915 239.941-40.913L239.941-40.913L239.941-104.897Q239.941-112.896 233.584-118.586Q227.227-124.277 218.101-124.277L218.101-124.277L183.955-124.277Q174.932-124.277 168.523-118.586Q162.114-112.896 162.114-104.897L162.114-104.897ZM290.288 0L290.288-145.811L367.808-145.811Q379.189-145.811 388.572-140.273Q397.954-134.736 403.491-125.457Q409.028-116.177 409.028-104.795L409.028-104.795L409.028-40.605Q409.028-29.429 403.491-20.200Q397.954-10.972 388.572-5.486Q379.189 0 367.808 0L367.808 0L290.288 0ZM311.924-21.636L367.808-21.636Q376.011-21.636 381.753-27.275Q387.495-32.915 387.495-40.913L387.495-40.913L387.495-104.795Q387.495-112.896 381.753-118.586Q376.011-124.277 367.808-124.277L367.808-124.277L311.924-124.277L311.924-21.636Z" fill="#f7f3e3" transform="translate(45.8464879989624, 314.9090042114258)"/></svg>