<svg xmlns="http://www.w3.org/2000/svg" viewBox="0 0 512 512"><circle cx="256" cy="256" r="256" fill="#001117"/><path d="M24.609 0L24.609-249.961L156.797-249.961Q173.848-249.961 187.822-241.611Q201.797-233.262 210.146-219.375Q218.496-205.488 218.496-188.438L218.496-188.438L218.496-163.477Q218.496-146.426 210.322-132.715Q202.148-119.004 188.086-110.918Q174.023-102.832 156.621-102.832L156.621-102.832L231.152 0L185.977 0L111.445-102.832L82.793-102.832L82.793-139.746L156.797-139.746Q167.168-139.746 174.375-146.865Q181.582-153.984 181.582-164.004L181.582-164.004L181.582-188.438Q181.582-198.633 174.375-205.840Q167.168-213.047 156.797-213.047L156.797-213.047L61.699-213.047L61.699 0L24.609 0ZM258.574-231.680L258.574-231.680Q258.574-241.172 265.254-247.852Q271.934-254.531 281.426-254.531L281.426-254.531Q290.918-254.531 297.598-247.852Q304.277-241.172 304.277-231.680L304.277-231.680Q304.277-222.188 297.598-215.508Q290.918-208.828 281.426-208.828L281.426-208.828Q271.934-208.828 265.254-215.508Q258.574-222.188 258.574-231.680ZM262.793 0L262.793-182.109L300.059-182.109L300.059 0L262.793 0Z" fill="#f7f3e3" transform="translate(91.5570011138916, 383.2655029296875)"/></svg>