<svg xmlns="http://www.w3.org/2000/svg" viewBox="0 0 512 512"><circle cx="256" cy="256" r="256" fill="#001117"/><path d="M12.891-55.664L12.891-73.945L131.250-116.953L131.250-92.578L55.195-64.805L131.250-37.148L131.250-12.656L12.891-55.664ZM160.547 0L160.547-166.641L248.672-166.641Q260.039-166.641 269.355-161.074Q278.672-155.508 284.238-146.250Q289.805-136.992 289.805-125.625L289.805-125.625L289.805-108.984Q289.805-97.617 284.355-88.477Q278.906-79.336 269.531-73.945Q260.156-68.555 248.555-68.555L248.555-68.555L298.242 0L268.125 0L218.438-68.555L199.336-68.555L199.336-93.164L248.672-93.164Q255.586-93.164 260.391-97.910Q265.195-102.656 265.195-109.336L265.195-109.336L265.195-125.625Q265.195-132.422 260.391-137.227Q255.586-142.031 248.672-142.031L248.672-142.031L185.273-142.031L185.273 0L160.547 0ZM321.680 0L321.680-166.641L346.406-166.641L346.406 0L321.680 0Z" fill="#f7f3e3" transform="translate(76.3514928817749, 339.3205032348633)"/></svg>