<svg xmlns="http://www.w3.org/2000/svg" viewBox="0 0 512 512"><circle cx="256" cy="256" r="256" fill="#001117"/><path d="M18.457 0L18.457-187.471L117.598-187.471Q130.386-187.471 140.867-181.208Q151.348-174.946 157.610-164.531Q163.872-154.116 163.872-141.328L163.872-141.328L163.872-122.607Q163.872-109.819 157.742-99.536Q151.611-89.253 141.064-83.188Q130.518-77.124 117.466-77.124L117.466-77.124L173.364 0L139.482 0L83.584-77.124L62.095-77.124L62.095-104.810L117.598-104.810Q125.376-104.810 130.781-110.149Q136.187-115.488 136.187-123.003L136.187-123.003L136.187-141.328Q136.187-148.975 130.781-154.380Q125.376-159.785 117.598-159.785L117.598-159.785L46.274-159.785L46.274 0L18.457 0ZM199.731 0L199.731-187.471L299.399-187.471Q314.033-187.471 326.096-180.352Q338.159-173.232 345.278-161.301Q352.397-149.370 352.397-134.736L352.397-134.736L352.397-52.207Q352.397-37.837 345.278-25.972Q338.159-14.106 326.096-7.053Q314.033 0 299.399 0L299.399 0L199.731 0ZM227.549-27.817L299.399-27.817Q309.946-27.817 317.329-35.068Q324.712-42.319 324.712-52.603L324.712-52.603L324.712-134.736Q324.712-145.151 317.329-152.468Q309.946-159.785 299.399-159.785L299.399-159.785L227.549-159.785L227.549-27.817Z" fill="#f7f3e3" transform="translate(70.572998046875, 349.7354965209961)"/></svg>