<svg xmlns="http://www.w3.org/2000/svg" viewBox="0 0 512 512"><circle cx="256" cy="256" r="256" fill="#001117"/><path d="M9.668-41.748L9.668-55.459L98.438-87.715L98.438-69.434L41.396-48.604L98.438-27.861L98.438-9.492L9.668-41.748ZM120.410 0L120.410-124.980L186.504-124.980Q195.029-124.980 202.017-120.806Q209.004-116.631 213.179-109.688Q217.354-102.744 217.354-94.219L217.354-94.219L217.354-81.738Q217.354-73.213 213.267-66.357Q209.180-59.502 202.148-55.459Q195.117-51.416 186.416-51.416L186.416-51.416L223.682 0L201.094 0L163.828-51.416L149.502-51.416L149.502-69.873L186.504-69.873Q191.689-69.873 195.293-73.433Q198.896-76.992 198.896-82.002L198.896-82.002L198.896-94.219Q198.896-99.316 195.293-102.920Q191.689-106.523 186.504-106.523L186.504-106.523L138.955-106.523L138.955 0L120.410 0ZM239.502-56.602L245.918-67.588L261.123-58.887L261.123-76.553L274.043-76.553L274.043-58.887L289.600-67.676L295.664-56.514L280.459-47.637L295.840-38.760L289.424-27.773L274.043-36.563L274.043-18.721L261.123-18.721L261.123-36.475L245.918-27.598L239.590-38.848L254.795-47.813L239.502-56.602ZM318.691 0L318.691-124.980L385.137-124.980Q394.893-124.980 402.935-120.234Q410.977-115.488 415.723-107.534Q420.469-99.580 420.469-89.824L420.469-89.824L420.469-34.805Q420.469-25.225 415.723-17.314Q410.977-9.404 402.935-4.702Q394.893 0 385.137 0L385.137 0L318.691 0ZM337.236-18.545L385.137-18.545Q392.168-18.545 397.090-23.379Q402.012-28.213 402.012-35.068L402.012-35.068L402.012-89.824Q402.012-96.768 397.090-101.646Q392.168-106.523 385.137-106.523L385.137-106.523L337.236-106.523L337.236-18.545Z" fill="#f7f3e3" transform="translate(40.93150234222412, 318.4900016784668)"/></svg>