<svg xmlns="http://www.w3.org/2000/svg" viewBox="0 0 512 512"><circle cx="256" cy="256" r="256" fill="#001117"/><path d="M11.279-48.706L11.279-64.702L114.844-102.334L114.844-81.006L48.296-56.704L114.844-32.505L114.844-11.074L11.279-48.706ZM140.479 0L140.479-145.811L217.588-145.811Q227.534-145.811 235.686-140.940Q243.838-136.069 248.708-127.969Q253.579-119.868 253.579-109.922L253.579-109.922L253.579-95.361Q253.579-85.415 248.811-77.417Q244.043-69.419 235.840-64.702Q227.637-59.985 217.485-59.985L217.485-59.985L260.962 0L234.609 0L191.133-59.985L174.419-59.985L174.419-81.519L217.588-81.519Q223.638-81.519 227.842-85.671Q232.046-89.824 232.046-95.669L232.046-95.669L232.046-109.922Q232.046-115.869 227.842-120.073Q223.638-124.277 217.588-124.277L217.588-124.277L162.114-124.277L162.114 0L140.479 0ZM281.470 0L281.470-145.811L358.989-145.811Q370.371-145.811 379.753-140.273Q389.136-134.736 394.673-125.457Q400.210-116.177 400.210-104.795L400.210-104.795L400.210-40.605Q400.210-29.429 394.673-20.200Q389.136-10.972 379.753-5.486Q370.371 0 358.989 0L358.989 0L281.470 0ZM303.105-21.636L358.989-21.636Q367.192-21.636 372.935-27.275Q378.677-32.915 378.677-40.913L378.677-40.913L378.677-104.795Q378.677-112.896 372.935-118.586Q367.192-124.277 358.989-124.277L358.989-124.277L303.105-124.277L303.105-21.636Z" fill="#f7f3e3" transform="translate(50.255499839782715, 328.90550231933594)"/></svg>