<svg xmlns="http://www.w3.org/2000/svg" viewBox="0 0 512 512"><circle cx="256" cy="256" r="256" fill="#001117"/><path d="M15.381 0L15.381-156.226L97.998-156.226Q108.655-156.226 117.389-151.007Q126.123-145.789 131.342-137.109Q136.560-128.430 136.560-117.773L136.560-117.773L136.560-102.173Q136.560-91.516 131.451-82.947Q126.343-74.377 117.554-69.324Q108.765-64.270 97.888-64.270L97.888-64.270L144.470 0L116.235 0L69.653-64.270L51.746-64.270L51.746-87.341L97.998-87.341Q104.480-87.341 108.984-91.791Q113.489-96.240 113.489-102.502L113.489-102.502L113.489-117.773Q113.489-124.146 108.984-128.650Q104.480-133.154 97.998-133.154L97.998-133.154L38.562-133.154L38.562 0L15.381 0ZM164.246-70.752L172.266-84.485L191.272-73.608L191.272-95.691L207.422-95.691L207.422-73.608L226.868-84.595L234.448-70.642L215.442-59.546L234.668-48.450L226.648-34.717L207.422-45.703L207.422-23.401L191.272-23.401L191.272-45.593L172.266-34.497L164.355-48.560L183.362-59.766L164.246-70.752ZM263.232 0L263.232-156.226L346.289-156.226Q358.484-156.226 368.536-150.293Q378.589-144.360 384.521-134.418Q390.454-124.475 390.454-112.280L390.454-112.280L390.454-43.506Q390.454-31.531 384.521-21.643Q378.589-11.755 368.536-5.878Q358.484 0 346.289 0L346.289 0L263.232 0ZM286.414-23.181L346.289-23.181Q355.078-23.181 361.230-29.224Q367.383-35.266 367.383-43.835L367.383-43.835L367.383-112.280Q367.383-120.959 361.230-127.057Q355.078-133.154 346.289-133.154L346.289-133.154L286.414-133.154L286.414-23.181Z" fill="#f7f3e3" transform="translate(53.08250141143799, 334.11299896240234)"/></svg>