<svg xmlns="http://www.w3.org/2000/svg" viewBox="0 0 512 512"><circle cx="256" cy="256" r="256" fill="#001117"/><path d="M36.680-47.109L12.891-47.109Q12.891-62.695 22.676-72.715Q32.461-82.734 47.695-82.734L47.695-82.734Q54.961-82.734 62.520-80.977Q70.078-79.219 80.039-75.117L80.039-75.117Q87.305-72.422 92.168-71.250Q97.031-70.078 101.250-70.078L101.250-70.078Q112.969-70.078 112.969-82.852L112.969-82.852L136.523-82.852Q136.523-65.977 126.738-56.543Q116.953-47.109 99.492-47.109L99.492-47.109Q92.695-47.109 85.547-48.809Q78.398-50.508 65.742-55.078L65.742-55.078Q59.180-57.422 54.902-58.418Q50.625-59.414 47.461-59.414L47.461-59.414Q36.680-59.414 36.680-47.109L36.680-47.109ZM165.820 0L165.820-166.641L253.945-166.641Q265.313-166.641 274.629-161.074Q283.945-155.508 289.512-146.250Q295.078-136.992 295.078-125.625L295.078-125.625L295.078-108.984Q295.078-97.617 289.629-88.477Q284.180-79.336 274.805-73.945Q265.430-68.555 253.828-68.555L253.828-68.555L303.516 0L273.398 0L223.711-68.555L204.609-68.555L204.609-93.164L253.945-93.164Q260.859-93.164 265.664-97.910Q270.469-102.656 270.469-109.336L270.469-109.336L270.469-125.625Q270.469-132.422 265.664-137.227Q260.859-142.031 253.945-142.031L253.945-142.031L190.547-142.031L190.547 0L165.820 0ZM321.797-154.453L321.797-154.453Q321.797-160.781 326.250-165.234Q330.703-169.688 337.031-169.688L337.031-169.688Q343.359-169.688 347.813-165.234Q352.266-160.781 352.266-154.453L352.266-154.453Q352.266-148.125 347.813-143.672Q343.359-139.219 337.031-139.219L337.031-139.219Q330.703-139.219 326.250-143.672Q321.797-148.125 321.797-154.453ZM324.609 0L324.609-121.406L349.453-121.406L349.453 0L324.609 0Z" fill="#f7f3e3" transform="translate(73.42150020599365, 340.84400177001953)"/></svg>