<svg xmlns="http://www.w3.org/2000/svg" viewBox="0 0 512 512"><circle cx="256" cy="256" r="256" fill="#001117"/><path d="M24.609 0L24.609-249.961L156.797-249.961Q173.848-249.961 187.822-241.611Q201.797-233.262 210.146-219.375Q218.496-205.488 218.496-188.438L218.496-188.438L218.496-163.477Q218.496-146.426 210.322-132.715Q202.148-119.004 188.086-110.918Q174.023-102.832 156.621-102.832L156.621-102.832L231.152 0L185.977 0L111.445-102.832L82.793-102.832L82.793-139.746L156.797-139.746Q167.168-139.746 174.375-146.865Q181.582-153.984 181.582-164.004L181.582-164.004L181.582-188.438Q181.582-198.633 174.375-205.840Q167.168-213.047 156.797-213.047L156.797-213.047L61.699-213.047L61.699 0L24.609 0ZM266.309 0L266.309-249.961L303.398-249.961L303.398 0L266.309 0Z" fill="#f7f3e3" transform="translate(91.99650001525879, 380.9804992675781)"/></svg>