<svg xmlns="http://www.w3.org/2000/svg" viewBox="0 0 512 512"><circle cx="256" cy="256" r="256" fill="#001117"/><path d="M20.508 0L20.508-208.301L130.664-208.301Q144.873-208.301 156.519-201.343Q168.164-194.385 175.122-182.813Q182.080-171.240 182.080-157.031L182.080-157.031L182.080-136.230Q182.080-122.021 175.269-110.596Q168.457-99.170 156.738-92.432Q145.020-85.693 130.518-85.693L130.518-85.693L192.627 0L154.980 0L92.871-85.693L68.994-85.693L68.994-116.455L130.664-116.455Q139.307-116.455 145.313-122.388Q151.318-128.320 151.318-136.670L151.318-136.670L151.318-157.031Q151.318-165.527 145.313-171.533Q139.307-177.539 130.664-177.539L130.664-177.539L51.416-177.539L51.416 0L20.508 0ZM217.529-54.492L217.529-96.973Q217.529-112.061 224.927-124.512Q232.324-136.963 244.775-144.360Q257.227-151.758 272.314-151.758L272.314-151.758L308.496-151.758L308.496-120.850L272.314-120.850Q262.500-120.850 255.469-113.745Q248.438-106.641 248.438-96.680L248.438-96.680L248.438-54.785Q248.438-44.971 255.469-37.939Q262.500-30.908 272.314-30.908L272.314-30.908L326.074-30.908L326.074-208.301L356.982-208.301L356.982-30.908Q356.982-18.164 347.900-9.082Q338.818 0 326.074 0L326.074 0L272.314 0Q257.227 0 244.775-7.397Q232.324-14.795 224.927-27.173Q217.529-39.551 217.529-54.492L217.529-54.492Z" fill="#f7f3e3" transform="translate(67.25500106811523, 360.15049743652344)"/></svg>