<svg xmlns="http://www.w3.org/2000/svg" viewBox="0 0 512 512"><circle cx="256" cy="256" r="256" fill="#001117"/><path d="M32.095-41.221L11.279-41.221Q11.279-54.858 19.841-63.625Q28.403-72.393 41.733-72.393L41.733-72.393Q48.091-72.393 54.705-70.854Q61.318-69.316 70.034-65.728L70.034-65.728Q76.392-63.369 80.647-62.344Q84.902-61.318 88.594-61.318L88.594-61.318Q98.848-61.318 98.848-72.495L98.848-72.495L119.458-72.495Q119.458-57.729 110.896-49.475Q102.334-41.221 87.056-41.221L87.056-41.221Q81.108-41.221 74.854-42.708Q68.599-44.194 57.524-48.193L57.524-48.193Q51.782-50.244 48.040-51.116Q44.297-51.987 41.528-51.987L41.528-51.987Q32.095-51.987 32.095-41.221L32.095-41.221ZM145.093 0L145.093-145.811L222.202-145.811Q232.148-145.811 240.300-140.940Q248.452-136.069 253.323-127.969Q258.193-119.868 258.193-109.922L258.193-109.922L258.193-95.361Q258.193-85.415 253.425-77.417Q248.657-69.419 240.454-64.702Q232.251-59.985 222.100-59.985L222.100-59.985L265.576 0L239.224 0L195.747-59.985L179.033-59.985L179.033-81.519L222.202-81.519Q228.252-81.519 232.456-85.671Q236.660-89.824 236.660-95.669L236.660-95.669L236.660-109.922Q236.660-115.869 232.456-120.073Q228.252-124.277 222.202-124.277L222.202-124.277L166.729-124.277L166.729 0L145.093 0ZM286.084 0L286.084-145.811L363.604-145.811Q374.985-145.811 384.368-140.273Q393.750-134.736 399.287-125.457Q404.824-116.177 404.824-104.795L404.824-104.795L404.824-40.605Q404.824-29.429 399.287-20.200Q393.750-10.972 384.368-5.486Q374.985 0 363.604 0L363.604 0L286.084 0ZM307.720-21.636L363.604-21.636Q371.807-21.636 377.549-27.275Q383.291-32.915 383.291-40.913L383.291-40.913L383.291-104.795Q383.291-112.896 377.549-118.586Q371.807-124.277 363.604-124.277L363.604-124.277L307.720-124.277L307.720-21.636Z" fill="#f7f3e3" transform="translate(47.948493003845215, 328.90550231933594)"/></svg>