<svg xmlns="http://www.w3.org/2000/svg" viewBox="0 0 512 512"><circle cx="256" cy="256" r="256" fill="#001117"/><path d="M11.953 0L11.953-127.969L108.047-127.969L108.047 0L11.953 0ZM23.906-11.953L96.094-11.953L96.094-116.016L23.906-116.016L23.906-11.953ZM134.063-46.055L134.063-119.766Q134.063-132.773 140.508-143.379Q146.953-153.984 157.734-160.313Q168.516-166.641 181.641-166.641L181.641-166.641L268.945-166.641L268.945-142.031L181.641-142.031Q172.148-142.031 165.469-135.527Q158.789-129.023 158.789-119.766L158.789-119.766L158.789-46.406Q158.789-37.500 165.469-31.113Q172.148-24.727 181.641-24.727L181.641-24.727L268.945-24.727L268.945 0L181.641 0Q168.516 0 157.734-6.211Q146.953-12.422 140.508-22.910Q134.063-33.398 134.063-46.055L134.063-46.055ZM294.727-43.828L294.727-77.813Q294.727-89.883 300.645-99.727Q306.563-109.570 316.523-115.488Q326.484-121.406 338.555-121.406L338.555-121.406L406.289-121.406L406.289 0L381.563 0L381.563-96.680L338.555-96.680Q330.703-96.680 325.078-91.113Q319.453-85.547 319.453-77.578L319.453-77.578L319.453-44.063Q319.453-36.094 325.078-30.410Q330.703-24.727 338.555-24.727L338.555-24.727L367.500-24.727L367.500 0L338.555 0Q326.484 0 316.523-5.918Q306.563-11.836 300.645-21.797Q294.727-31.758 294.727-43.828L294.727-43.828Z" fill="#f7f3e3" transform="translate(46.879000663757324, 339.3205032348633)"/></svg>