<svg xmlns="http://www.w3.org/2000/svg" viewBox="0 0 512 512"><circle cx="256" cy="256" r="256" fill="#001117"/><path d="M28.427-36.510L9.990-36.510Q9.990-48.589 17.574-56.354Q25.157-64.119 36.964-64.119L36.964-64.119Q42.595-64.119 48.453-62.757Q54.311-61.395 62.030-58.216L62.030-58.216Q67.661-56.127 71.430-55.219Q75.199-54.311 78.469-54.311L78.469-54.311Q87.551-54.311 87.551-64.210L87.551-64.210L105.806-64.210Q105.806-51.132 98.222-43.821Q90.639-36.510 77.106-36.510L77.106-36.510Q71.839-36.510 66.299-37.827Q60.759-39.144 50.950-42.686L50.950-42.686Q45.864-44.502 42.549-45.274Q39.234-46.046 36.782-46.046L36.782-46.046Q28.427-46.046 28.427-36.510L28.427-36.510ZM128.511 0L128.511-129.146L196.808-129.146Q205.617-129.146 212.837-124.833Q220.058-120.519 224.372-113.344Q228.686-106.169 228.686-97.359L228.686-97.359L228.686-84.463Q228.686-75.653 224.462-68.569Q220.239-61.485 212.974-57.308Q205.708-53.130 196.717-53.130L196.717-53.130L235.225 0L211.884 0L173.376-53.130L158.572-53.130L158.572-72.202L196.808-72.202Q202.166-72.202 205.890-75.880Q209.613-79.559 209.613-84.735L209.613-84.735L209.613-97.359Q209.613-102.627 205.890-106.351Q202.166-110.074 196.808-110.074L196.808-110.074L147.674-110.074L147.674 0L128.511 0ZM251.572-58.488L258.202-69.841L273.914-60.850L273.914-79.104L287.265-79.104L287.265-60.850L303.340-69.932L309.606-58.397L293.895-49.225L309.788-40.052L303.158-28.699L287.265-37.781L287.265-19.345L273.914-19.345L273.914-37.690L258.202-28.518L251.663-40.143L267.375-49.406L251.572-58.488ZM330.677-33.785L330.677-60.123Q330.677-69.478 335.263-77.197Q339.850-84.917 347.569-89.503Q355.289-94.090 364.644-94.090L364.644-94.090L387.076-94.090L387.076-74.927L364.644-74.927Q358.559-74.927 354.199-70.522Q349.840-66.117 349.840-59.941L349.840-59.941L349.840-33.967Q349.840-27.882 354.199-23.522Q358.559-19.163 364.644-19.163L364.644-19.163L397.975-19.163L397.975-129.146L417.138-129.146L417.138-19.163Q417.138-11.262 411.507-5.631Q405.876 0 397.975 0L397.975 0L364.644 0Q355.289 0 347.569-4.586Q339.850-9.173 335.263-16.847Q330.677-24.521 330.677-33.785L330.677-33.785Z" fill="#f7f3e3" transform="translate(42.43599510192871, 320.572998046875)"/></svg>