<svg xmlns="http://www.w3.org/2000/svg" viewBox="0 0 512 512"><circle cx="256" cy="256" r="256" fill="#001117"/><path d="M34.387-44.165L12.085-44.165Q12.085-58.777 21.259-68.170Q30.432-77.563 44.714-77.563L44.714-77.563Q51.526-77.563 58.612-75.916Q65.698-74.268 75.037-70.422L75.037-70.422Q81.848-67.896 86.407-66.797Q90.967-65.698 94.922-65.698L94.922-65.698Q105.908-65.698 105.908-77.673L105.908-77.673L127.991-77.673Q127.991-61.853 118.817-53.009Q109.644-44.165 93.274-44.165L93.274-44.165Q86.902-44.165 80.200-45.758Q73.499-47.351 61.633-51.636L61.633-51.636Q55.481-53.833 51.471-54.767Q47.461-55.701 44.495-55.701L44.495-55.701Q34.387-55.701 34.387-44.165L34.387-44.165ZM155.457 0L155.457-156.226L238.074-156.226Q248.730-156.226 257.465-151.007Q266.199-145.789 271.417-137.109Q276.636-128.430 276.636-117.773L276.636-117.773L276.636-102.173Q276.636-91.516 271.527-82.947Q266.418-74.377 257.629-69.324Q248.840-64.270 237.964-64.270L237.964-64.270L284.546 0L256.311 0L209.729-64.270L191.821-64.270L191.821-87.341L238.074-87.341Q244.556-87.341 249.060-91.791Q253.564-96.240 253.564-102.502L253.564-102.502L253.564-117.773Q253.564-124.146 249.060-128.650Q244.556-133.154 238.074-133.154L238.074-133.154L178.638-133.154L178.638 0L155.457 0ZM303.223-40.869L303.223-72.729Q303.223-84.045 308.771-93.384Q314.319-102.722 323.657-108.270Q332.996-113.818 344.312-113.818L344.312-113.818L371.448-113.818L371.448-90.637L344.312-90.637Q336.951-90.637 331.677-85.309Q326.404-79.980 326.404-72.510L326.404-72.510L326.404-41.089Q326.404-33.728 331.677-28.455Q336.951-23.181 344.312-23.181L344.312-23.181L384.631-23.181L384.631-156.226L407.813-156.226L407.813-23.181Q407.813-13.623 401.001-6.812Q394.189 0 384.631 0L384.631 0L344.312 0Q332.996 0 323.657-5.548Q314.319-11.096 308.771-20.380Q303.223-29.663 303.223-40.869L303.223-40.869Z" fill="#f7f3e3" transform="translate(46.05100154876709, 334.11299896240234)"/></svg>