<svg xmlns="http://www.w3.org/2000/svg" viewBox="0 0 512 512"><circle cx="256" cy="256" r="256" fill="#001117"/><path d="M27.510-35.332L9.668-35.332Q9.668-47.021 17.007-54.536Q24.346-62.051 35.771-62.051L35.771-62.051Q41.221-62.051 46.890-60.732Q52.559-59.414 60.029-56.338L60.029-56.338Q65.479-54.316 69.126-53.438Q72.773-52.559 75.938-52.559L75.938-52.559Q84.727-52.559 84.727-62.139L84.727-62.139L102.393-62.139Q102.393-49.482 95.054-42.407Q87.715-35.332 74.619-35.332L74.619-35.332Q69.521-35.332 64.160-36.606Q58.799-37.881 49.307-41.309L49.307-41.309Q44.385-43.066 41.177-43.813Q37.969-44.561 35.596-44.561L35.596-44.561Q27.510-44.561 27.510-35.332L27.510-35.332ZM124.365 0L124.365-124.980L190.459-124.980Q198.984-124.980 205.972-120.806Q212.959-116.631 217.134-109.688Q221.309-102.744 221.309-94.219L221.309-94.219L221.309-81.738Q221.309-73.213 217.222-66.357Q213.135-59.502 206.104-55.459Q199.072-51.416 190.371-51.416L190.371-51.416L227.637 0L205.049 0L167.783-51.416L153.457-51.416L153.457-69.873L190.459-69.873Q195.645-69.873 199.248-73.433Q202.852-76.992 202.852-82.002L202.852-82.002L202.852-94.219Q202.852-99.316 199.248-102.920Q195.645-106.523 190.459-106.523L190.459-106.523L142.910-106.523L142.910 0L124.365 0ZM243.457-56.602L249.873-67.588L265.078-58.887L265.078-76.553L277.998-76.553L277.998-58.887L293.555-67.676L299.619-56.514L284.414-47.637L299.795-38.760L293.379-27.773L277.998-36.563L277.998-18.721L265.078-18.721L265.078-36.475L249.873-27.598L243.545-38.848L258.750-47.813L243.457-56.602ZM322.646 0L322.646-124.980L389.092-124.980Q398.848-124.980 406.890-120.234Q414.932-115.488 419.678-107.534Q424.424-99.580 424.424-89.824L424.424-89.824L424.424-34.805Q424.424-25.225 419.678-17.314Q414.932-9.404 406.890-4.702Q398.848 0 389.092 0L389.092 0L322.646 0ZM341.191-18.545L389.092-18.545Q396.123-18.545 401.045-23.379Q405.967-28.213 405.967-35.068L405.967-35.068L405.967-89.824Q405.967-96.768 401.045-101.646Q396.123-106.523 389.092-106.523L389.092-106.523L341.191-106.523L341.191-18.545Z" fill="#f7f3e3" transform="translate(38.953993797302246, 318.4900016784668)"/></svg>