<svg xmlns="http://www.w3.org/2000/svg" viewBox="0 0 512 512"><circle cx="256" cy="256" r="256" fill="#001117"/><path d="M16.406 0L16.406-166.641L104.531-166.641Q115.898-166.641 125.215-161.074Q134.531-155.508 140.098-146.250Q145.664-136.992 145.664-125.625L145.664-125.625L145.664-108.984Q145.664-97.617 140.215-88.477Q134.766-79.336 125.391-73.945Q116.016-68.555 104.414-68.555L104.414-68.555L154.102 0L123.984 0L74.297-68.555L55.195-68.555L55.195-93.164L104.531-93.164Q111.445-93.164 116.250-97.910Q121.055-102.656 121.055-109.336L121.055-109.336L121.055-125.625Q121.055-132.422 116.250-137.227Q111.445-142.031 104.531-142.031L104.531-142.031L41.133-142.031L41.133 0L16.406 0ZM175.195-75.469L183.750-90.117L204.023-78.516L204.023-102.070L221.250-102.070L221.250-78.516L241.992-90.234L250.078-75.352L229.805-63.516L250.313-51.680L241.758-37.031L221.250-48.750L221.250-24.961L204.023-24.961L204.023-48.633L183.750-36.797L175.313-51.797L195.586-63.750L175.195-75.469ZM277.266-43.594L277.266-77.578Q277.266-89.648 283.184-99.609Q289.102-109.570 299.063-115.488Q309.023-121.406 321.094-121.406L321.094-121.406L350.039-121.406L350.039-96.680L321.094-96.680Q313.242-96.680 307.617-90.996Q301.992-85.313 301.992-77.344L301.992-77.344L301.992-43.828Q301.992-35.977 307.617-30.352Q313.242-24.727 321.094-24.727L321.094-24.727L364.102-24.727L364.102-166.641L388.828-166.641L388.828-24.727Q388.828-14.531 381.563-7.266Q374.297 0 364.102 0L364.102 0L321.094 0Q309.023 0 299.063-5.918Q289.102-11.836 283.184-21.738Q277.266-31.641 277.266-43.594L277.266-43.594Z" fill="#f7f3e3" transform="translate(53.38300132751465, 339.3205032348633)"/></svg>