<svg xmlns="http://www.w3.org/2000/svg" viewBox="0 0 512 512"><circle cx="256" cy="256" r="256" fill="#001117"/><path d="M10.474-10.283L10.474-30.183L72.268-52.654L10.474-75.220L10.474-95.024L106.641-60.081L106.641-45.227L10.474-10.283ZM128.540-92.644L128.540-102.642Q128.540-111.687 133.063-119.114Q137.585-126.541 145.250-130.968Q152.915-135.396 162.151-135.396L162.151-135.396L232.229-135.396L232.229-115.400L162.151-115.400Q156.628-115.400 152.629-111.497Q148.630-107.593 148.630-102.070L148.630-102.070L148.630-92.739Q148.630-87.693 152.629-84.075Q156.628-80.457 162.151-80.457L162.151-80.457L205.283-80.457Q214.614-80.457 222.231-76.029Q229.849-71.602 234.371-64.127Q238.894-56.653 238.894-47.607L238.894-47.607L238.894-32.849Q238.894-23.804 234.371-16.329Q229.849-8.855 222.231-4.427Q214.614 0 205.283 0L205.283 0L128.635 0L128.635-20.090L205.283-20.090Q210.901-20.090 214.852-23.851Q218.804-27.612 218.804-32.944L218.804-32.944L218.804-47.512Q218.804-52.844 214.852-56.653Q210.901-60.461 205.283-60.461L205.283-60.461L162.151-60.461Q152.915-60.461 145.250-64.794Q137.585-69.126 133.063-76.458Q128.540-83.789 128.540-92.644L128.540-92.644ZM263.650 0L263.650-135.396L354.294-135.396L354.294-115.400L283.740-115.400L283.740 0L263.650 0ZM295.166-60.461L295.166-80.457L354.294-80.457L354.294-60.461L295.166-60.461ZM377.146 0L377.146-135.396L397.236-135.396L397.236 0L377.146 0Z" fill="#f7f3e3" transform="translate(52.14500331878662, 323.697998046875)"/></svg>