<svg xmlns="http://www.w3.org/2000/svg" viewBox="0 0 512 512"><circle cx="256" cy="256" r="256" fill="#000117"/><path d="M7.617 74.268L7.617 34.277Q28.374 34.277 38.562 32.373Q48.750 30.469 52.083 24.661Q55.415 18.853 55.415 7.236L55.415 7.236L55.415-77.314Q55.415-103.213 68.174-119.780L68.174-119.780Q55.415-137.300 55.415-162.437L55.415-162.437L55.415-240.132Q55.415-254.795 53.035-261.270Q50.654-267.744 40.562-269.268Q30.469-270.791 7.617-270.791L7.617-270.791L7.617-310.781Q35.610-310.781 52.939-308.020Q70.269-305.259 79.504-297.832Q88.740-290.405 92.168-276.504Q95.596-262.603 95.596-240.132L95.596-240.132L95.596-162.437Q95.596-152.153 97.119-147.393Q98.643-142.632 103.975-141.299Q109.307-139.966 120.923-139.966L120.923-139.966L120.923-99.214Q106.069-99.214 100.833-94.739Q95.596-90.264 95.596-77.314L95.596-77.314L95.596 7.236Q95.596 28.374 92.073 41.514Q88.550 54.653 79.219 61.794Q69.888 68.936 52.559 71.602Q35.229 74.268 7.617 74.268L7.617 74.268Z" fill="#f7f3e3" transform="translate(191.7300000190735, 374.2565002441406)"/></svg>