<svg xmlns="http://www.w3.org/2000/svg" viewBox="0 0 512 512"><circle cx="256" cy="256" r="256" fill="#001117"/><path d="M32.095-41.221L11.279-41.221Q11.279-54.858 19.841-63.625Q28.403-72.393 41.733-72.393L41.733-72.393Q48.091-72.393 54.705-70.854Q61.318-69.316 70.034-65.728L70.034-65.728Q76.392-63.369 80.647-62.344Q84.902-61.318 88.594-61.318L88.594-61.318Q98.848-61.318 98.848-72.495L98.848-72.495L119.458-72.495Q119.458-57.729 110.896-49.475Q102.334-41.221 87.056-41.221L87.056-41.221Q81.108-41.221 74.854-42.708Q68.599-44.194 57.524-48.193L57.524-48.193Q51.782-50.244 48.040-51.116Q44.297-51.987 41.528-51.987L41.528-51.987Q32.095-51.987 32.095-41.221L32.095-41.221ZM143.042-99.771L143.042-110.537Q143.042-120.278 147.913-128.276Q152.783-136.274 161.038-141.042Q169.292-145.811 179.238-145.811L179.238-145.811L254.707-145.811L254.707-124.277L179.238-124.277Q173.291-124.277 168.984-120.073Q164.678-115.869 164.678-109.922L164.678-109.922L164.678-99.873Q164.678-94.438 168.984-90.542Q173.291-86.646 179.238-86.646L179.238-86.646L225.688-86.646Q235.737-86.646 243.940-81.877Q252.144-77.109 257.014-69.060Q261.885-61.011 261.885-51.270L261.885-51.270L261.885-35.376Q261.885-25.635 257.014-17.585Q252.144-9.536 243.940-4.768Q235.737 0 225.688 0L225.688 0L143.145 0L143.145-21.636L225.688-21.636Q231.738-21.636 235.994-25.686Q240.249-29.736 240.249-35.479L240.249-35.479L240.249-51.167Q240.249-56.909 235.994-61.011Q231.738-65.112 225.688-65.112L225.688-65.112L179.238-65.112Q169.292-65.112 161.038-69.778Q152.783-74.443 147.913-82.339Q143.042-90.234 143.042-99.771L143.042-99.771ZM288.545 0L288.545-145.811L366.064-145.811Q377.446-145.811 386.829-140.273Q396.211-134.736 401.748-125.457Q407.285-116.177 407.285-104.795L407.285-104.795L407.285-40.605Q407.285-29.429 401.748-20.200Q396.211-10.972 386.829-5.486Q377.446 0 366.064 0L366.064 0L288.545 0ZM310.181-21.636L366.064-21.636Q374.268-21.636 380.010-27.275Q385.752-32.915 385.752-40.913L385.752-40.913L385.752-104.795Q385.752-112.896 380.010-118.586Q374.268-124.277 366.064-124.277L366.064-124.277L310.181-124.277L310.181-21.636Z" fill="#f7f3e3" transform="translate(46.71799373626709, 328.90550231933594)"/></svg>