<svg xmlns="http://www.w3.org/2000/svg" viewBox="0 0 512 512"><circle cx="256" cy="256" r="256" fill="#001117"/><path d="M11.279-11.074L11.279-32.505L77.827-56.704L11.279-81.006L11.279-102.334L114.844-64.702L114.844-48.706L11.279-11.074ZM138.428-99.771L138.428-110.537Q138.428-120.278 143.298-128.276Q148.169-136.274 156.423-141.042Q164.678-145.811 174.624-145.811L174.624-145.811L250.093-145.811L250.093-124.277L174.624-124.277Q168.677-124.277 164.370-120.073Q160.063-115.869 160.063-109.922L160.063-109.922L160.063-99.873Q160.063-94.438 164.370-90.542Q168.677-86.646 174.624-86.646L174.624-86.646L221.074-86.646Q231.123-86.646 239.326-81.877Q247.529-77.109 252.400-69.060Q257.271-61.011 257.271-51.270L257.271-51.270L257.271-35.376Q257.271-25.635 252.400-17.585Q247.529-9.536 239.326-4.768Q231.123 0 221.074 0L221.074 0L138.530 0L138.530-21.636L221.074-21.636Q227.124-21.636 231.379-25.686Q235.635-29.736 235.635-35.479L235.635-35.479L235.635-51.167Q235.635-56.909 231.379-61.011Q227.124-65.112 221.074-65.112L221.074-65.112L174.624-65.112Q164.678-65.112 156.423-69.778Q148.169-74.443 143.298-82.339Q138.428-90.234 138.428-99.771L138.428-99.771ZM280.854-38.145L280.854-67.881Q280.854-78.442 286.033-87.158Q291.211-95.874 299.927-101.052Q308.643-106.230 319.204-106.230L319.204-106.230L344.531-106.230L344.531-84.595L319.204-84.595Q312.334-84.595 307.412-79.622Q302.490-74.648 302.490-67.676L302.490-67.676L302.490-38.350Q302.490-31.479 307.412-26.558Q312.334-21.636 319.204-21.636L319.204-21.636L356.836-21.636L356.836-145.811L378.472-145.811L378.472-21.636Q378.472-12.715 372.114-6.357Q365.757 0 356.836 0L356.836 0L319.204 0Q308.643 0 299.927-5.178Q291.211-10.356 286.033-19.021Q280.854-27.686 280.854-38.145L280.854-38.145Z" fill="#f7f3e3" transform="translate(61.12450313568115, 328.90550231933594)"/></svg>