<svg xmlns="http://www.w3.org/2000/svg" viewBox="0 0 512 512"><circle cx="256" cy="256" r="256" fill="#001117"/><path d="M11.279-48.706L11.279-64.702L114.844-102.334L114.844-81.006L48.296-56.704L114.844-32.505L114.844-11.074L11.279-48.706ZM138.428-99.771L138.428-110.537Q138.428-120.278 143.298-128.276Q148.169-136.274 156.423-141.042Q164.678-145.811 174.624-145.811L174.624-145.811L250.093-145.811L250.093-124.277L174.624-124.277Q168.677-124.277 164.370-120.073Q160.063-115.869 160.063-109.922L160.063-109.922L160.063-99.873Q160.063-94.438 164.370-90.542Q168.677-86.646 174.624-86.646L174.624-86.646L221.074-86.646Q231.123-86.646 239.326-81.877Q247.529-77.109 252.400-69.060Q257.271-61.011 257.271-51.270L257.271-51.270L257.271-35.376Q257.271-25.635 252.400-17.585Q247.529-9.536 239.326-4.768Q231.123 0 221.074 0L221.074 0L138.530 0L138.530-21.636L221.074-21.636Q227.124-21.636 231.379-25.686Q235.635-29.736 235.635-35.479L235.635-35.479L235.635-51.167Q235.635-56.909 231.379-61.011Q227.124-65.112 221.074-65.112L221.074-65.112L174.624-65.112Q164.678-65.112 156.423-69.778Q148.169-74.443 143.298-82.339Q138.428-90.234 138.428-99.771L138.428-99.771ZM283.931 0L283.931-145.811L361.450-145.811Q372.832-145.811 382.214-140.273Q391.597-134.736 397.134-125.457Q402.671-116.177 402.671-104.795L402.671-104.795L402.671-40.605Q402.671-29.429 397.134-20.200Q391.597-10.972 382.214-5.486Q372.832 0 361.450 0L361.450 0L283.931 0ZM305.566-21.636L361.450-21.636Q369.653-21.636 375.396-27.275Q381.138-32.915 381.138-40.913L381.138-40.913L381.138-104.795Q381.138-112.896 375.396-118.586Q369.653-124.277 361.450-124.277L361.450-124.277L305.566-124.277L305.566-21.636Z" fill="#f7f3e3" transform="translate(49.02500057220459, 328.90550231933594)"/></svg>