<svg xmlns="http://www.w3.org/2000/svg" viewBox="0 0 512 512"><circle cx="256" cy="256" r="256" fill="#001117"/><path d="M12.085-11.865L12.085-34.827L83.386-60.754L12.085-86.792L12.085-109.644L123.047-69.324L123.047-52.185L12.085-11.865ZM148.315-106.897L148.315-118.433Q148.315-128.870 153.534-137.439Q158.752-146.008 167.596-151.117Q176.440-156.226 187.097-156.226L187.097-156.226L267.957-156.226L267.957-133.154L187.097-133.154Q180.725-133.154 176.111-128.650Q171.497-124.146 171.497-117.773L171.497-117.773L171.497-107.007Q171.497-101.184 176.111-97.009Q180.725-92.834 187.097-92.834L187.097-92.834L236.865-92.834Q247.632-92.834 256.421-87.726Q265.210-82.617 270.428-73.993Q275.647-65.369 275.647-54.932L275.647-54.932L275.647-37.903Q275.647-27.466 270.428-18.842Q265.210-10.217 256.421-5.109Q247.632 0 236.865 0L236.865 0L148.425 0L148.425-23.181L236.865-23.181Q243.347-23.181 247.906-27.521Q252.466-31.860 252.466-38.013L252.466-38.013L252.466-54.822Q252.466-60.974 247.906-65.369Q243.347-69.763 236.865-69.763L236.865-69.763L187.097-69.763Q176.440-69.763 167.596-74.762Q158.752-79.761 153.534-88.220Q148.315-96.680 148.315-106.897L148.315-106.897ZM300.916-40.869L300.916-72.729Q300.916-84.045 306.464-93.384Q312.012-102.722 321.350-108.270Q330.688-113.818 342.004-113.818L342.004-113.818L369.141-113.818L369.141-90.637L342.004-90.637Q334.644-90.637 329.370-85.309Q324.097-79.980 324.097-72.510L324.097-72.510L324.097-41.089Q324.097-33.728 329.370-28.455Q334.644-23.181 342.004-23.181L342.004-23.181L382.324-23.181L382.324-156.226L405.505-156.226L405.505-23.181Q405.505-13.623 398.694-6.812Q391.882 0 382.324 0L382.324 0L342.004 0Q330.688 0 321.350-5.548Q312.012-11.096 306.464-20.380Q300.916-29.663 300.916-40.869L300.916-40.869Z" fill="#f7f3e3" transform="translate(47.20499324798584, 334.11299896240234)"/></svg>