<svg xmlns="http://www.w3.org/2000/svg" viewBox="0 0 512 512"><circle cx="256" cy="256" r="256" fill="#001117"/><path d="M27.510-35.332L9.668-35.332Q9.668-47.021 17.007-54.536Q24.346-62.051 35.771-62.051L35.771-62.051Q41.221-62.051 46.890-60.732Q52.559-59.414 60.029-56.338L60.029-56.338Q65.479-54.316 69.126-53.438Q72.773-52.559 75.938-52.559L75.938-52.559Q84.727-52.559 84.727-62.139L84.727-62.139L102.393-62.139Q102.393-49.482 95.054-42.407Q87.715-35.332 74.619-35.332L74.619-35.332Q69.521-35.332 64.160-36.606Q58.799-37.881 49.307-41.309L49.307-41.309Q44.385-43.066 41.177-43.813Q37.969-44.561 35.596-44.561L35.596-44.561Q27.510-44.561 27.510-35.332L27.510-35.332ZM122.607-85.518L122.607-94.746Q122.607-103.096 126.782-109.951Q130.957-116.807 138.032-120.894Q145.107-124.980 153.633-124.980L153.633-124.980L218.320-124.980L218.320-106.523L153.633-106.523Q148.535-106.523 144.844-102.920Q141.152-99.316 141.152-94.219L141.152-94.219L141.152-85.605Q141.152-80.947 144.844-77.607Q148.535-74.268 153.633-74.268L153.633-74.268L193.447-74.268Q202.061-74.268 209.092-70.181Q216.123-66.094 220.298-59.194Q224.473-52.295 224.473-43.945L224.473-43.945L224.473-30.322Q224.473-21.973 220.298-15.073Q216.123-8.174 209.092-4.087Q202.061 0 193.447 0L193.447 0L122.695 0L122.695-18.545L193.447-18.545Q198.633-18.545 202.280-22.017Q205.928-25.488 205.928-30.410L205.928-30.410L205.928-43.857Q205.928-48.779 202.280-52.295Q198.633-55.811 193.447-55.811L193.447-55.811L153.633-55.811Q145.107-55.811 138.032-59.810Q130.957-63.809 126.782-70.576Q122.607-77.344 122.607-85.518L122.607-85.518ZM245.566-56.602L251.982-67.588L267.188-58.887L267.188-76.553L280.107-76.553L280.107-58.887L295.664-67.676L301.729-56.514L286.523-47.637L301.904-38.760L295.488-27.773L280.107-36.563L280.107-18.721L267.188-18.721L267.188-36.475L251.982-27.598L245.654-38.848L260.859-47.813L245.566-56.602ZM322.119-32.695L322.119-58.184Q322.119-67.236 326.558-74.707Q330.996-82.178 338.467-86.616Q345.938-91.055 354.990-91.055L354.990-91.055L376.699-91.055L376.699-72.510L354.990-72.510Q349.102-72.510 344.883-68.247Q340.664-63.984 340.664-58.008L340.664-58.008L340.664-32.871Q340.664-26.982 344.883-22.764Q349.102-18.545 354.990-18.545L354.990-18.545L387.246-18.545L387.246-124.980L405.791-124.980L405.791-18.545Q405.791-10.898 400.342-5.449Q394.893 0 387.246 0L387.246 0L354.990 0Q345.938 0 338.467-4.438Q330.996-8.877 326.558-16.304Q322.119-23.730 322.119-32.695L322.119-32.695Z" fill="#f7f3e3" transform="translate(48.270506858825684, 318.4900016784668)"/></svg>