<svg xmlns="http://www.w3.org/2000/svg" viewBox="0 0 512 512"><circle cx="256" cy="256" r="256" fill="#001117"/><path d="M17.578-142.529L17.578-157.910Q17.578-171.826 24.536-183.252Q31.494-194.678 43.286-201.489Q55.078-208.301 69.287-208.301L69.287-208.301L177.100-208.301L177.100-177.539L69.287-177.539Q60.791-177.539 54.639-171.533Q48.486-165.527 48.486-157.031L48.486-157.031L48.486-142.676Q48.486-134.912 54.639-129.346Q60.791-123.779 69.287-123.779L69.287-123.779L135.645-123.779Q150-123.779 161.719-116.968Q173.438-110.156 180.396-98.657Q187.354-87.158 187.354-73.242L187.354-73.242L187.354-50.537Q187.354-36.621 180.396-25.122Q173.438-13.623 161.719-6.812Q150 0 135.645 0L135.645 0L17.725 0L17.725-30.908L135.645-30.908Q144.287-30.908 150.366-36.694Q156.445-42.480 156.445-50.684L156.445-50.684L156.445-73.096Q156.445-81.299 150.366-87.158Q144.287-93.018 135.645-93.018L135.645-93.018L69.287-93.018Q55.078-93.018 43.286-99.683Q31.494-106.348 24.536-117.627Q17.578-128.906 17.578-142.529L17.578-142.529ZM225.439 0L225.439-208.301L336.182-208.301Q352.441-208.301 365.845-200.391Q379.248-192.480 387.158-179.224Q395.068-165.967 395.068-149.707L395.068-149.707L395.068-58.008Q395.068-42.041 387.158-28.857Q379.248-15.674 365.845-7.837Q352.441 0 336.182 0L336.182 0L225.439 0ZM256.348-30.908L336.182-30.908Q347.900-30.908 356.104-38.965Q364.307-47.021 364.307-58.447L364.307-58.447L364.307-149.707Q364.307-161.279 356.104-169.409Q347.900-177.539 336.182-177.539L336.182-177.539L256.348-177.539L256.348-30.908Z" fill="#f7f3e3" transform="translate(49.677005767822266, 360.15049743652344)"/></svg>