<svg xmlns="http://www.w3.org/2000/svg" viewBox="0 0 512 512"><circle cx="256" cy="256" r="256" fill="#001117"/><path d="M34.387-44.165L12.085-44.165Q12.085-58.777 21.259-68.170Q30.432-77.563 44.714-77.563L44.714-77.563Q51.526-77.563 58.612-75.916Q65.698-74.268 75.037-70.422L75.037-70.422Q81.848-67.896 86.407-66.797Q90.967-65.698 94.922-65.698L94.922-65.698Q105.908-65.698 105.908-77.673L105.908-77.673L127.991-77.673Q127.991-61.853 118.817-53.009Q109.644-44.165 93.274-44.165L93.274-44.165Q86.902-44.165 80.200-45.758Q73.499-47.351 61.633-51.636L61.633-51.636Q55.481-53.833 51.471-54.767Q47.461-55.701 44.495-55.701L44.495-55.701Q34.387-55.701 34.387-44.165L34.387-44.165ZM153.259-106.897L153.259-118.433Q153.259-128.870 158.478-137.439Q163.696-146.008 172.540-151.117Q181.384-156.226 192.041-156.226L192.041-156.226L272.900-156.226L272.900-133.154L192.041-133.154Q185.669-133.154 181.055-128.650Q176.440-124.146 176.440-117.773L176.440-117.773L176.440-107.007Q176.440-101.184 181.055-97.009Q185.669-92.834 192.041-92.834L192.041-92.834L241.809-92.834Q252.576-92.834 261.365-87.726Q270.154-82.617 275.372-73.993Q280.591-65.369 280.591-54.932L280.591-54.932L280.591-37.903Q280.591-27.466 275.372-18.842Q270.154-10.217 261.365-5.109Q252.576 0 241.809 0L241.809 0L153.369 0L153.369-23.181L241.809-23.181Q248.291-23.181 252.850-27.521Q257.410-31.860 257.410-38.013L257.410-38.013L257.410-54.822Q257.410-60.974 252.850-65.369Q248.291-69.763 241.809-69.763L241.809-69.763L192.041-69.763Q181.384-69.763 172.540-74.762Q163.696-79.761 158.478-88.220Q153.259-96.680 153.259-106.897L153.259-106.897ZM305.859-40.869L305.859-72.729Q305.859-84.045 311.407-93.384Q316.956-102.722 326.294-108.270Q335.632-113.818 346.948-113.818L346.948-113.818L374.084-113.818L374.084-90.637L346.948-90.637Q339.587-90.637 334.314-85.309Q329.041-79.980 329.041-72.510L329.041-72.510L329.041-41.089Q329.041-33.728 334.314-28.455Q339.587-23.181 346.948-23.181L346.948-23.181L387.268-23.181L387.268-156.226L410.449-156.226L410.449-23.181Q410.449-13.623 403.638-6.812Q396.826 0 387.268 0L387.268 0L346.948 0Q335.632 0 326.294-5.548Q316.956-11.096 311.407-20.380Q305.859-29.663 305.859-40.869L305.859-40.869Z" fill="#f7f3e3" transform="translate(44.73299312591553, 334.11299896240234)"/></svg>