<svg xmlns="http://www.w3.org/2000/svg" viewBox="0 0 512 512"><circle cx="256" cy="256" r="256" fill="#001117"/><path d="M12.305-99.771L12.305-110.537Q12.305-120.278 17.175-128.276Q22.046-136.274 30.300-141.042Q38.555-145.811 48.501-145.811L48.501-145.811L123.970-145.811L123.970-124.277L48.501-124.277Q42.554-124.277 38.247-120.073Q33.940-115.869 33.940-109.922L33.940-109.922L33.940-99.873Q33.940-94.438 38.247-90.542Q42.554-86.646 48.501-86.646L48.501-86.646L94.951-86.646Q105-86.646 113.203-81.877Q121.406-77.109 126.277-69.060Q131.147-61.011 131.147-51.270L131.147-51.270L131.147-35.376Q131.147-25.635 126.277-17.585Q121.406-9.536 113.203-4.768Q105 0 94.951 0L94.951 0L12.407 0L12.407-21.636L94.951-21.636Q101.001-21.636 105.256-25.686Q109.512-29.736 109.512-35.479L109.512-35.479L109.512-51.167Q109.512-56.909 105.256-61.011Q101.001-65.112 94.951-65.112L94.951-65.112L48.501-65.112Q38.555-65.112 30.300-69.778Q22.046-74.443 17.175-82.339Q12.305-90.234 12.305-99.771L12.305-99.771ZM155.757 0L155.757-145.811L177.393-145.811L177.393 0L155.757 0ZM200.156 0L200.156-111.973L284.238-111.973L284.238 0L200.156 0ZM210.615-10.459L273.779-10.459L273.779-101.514L210.615-101.514L210.615-10.459Z" fill="#f7f3e3" transform="translate(107.7284927368164, 328.90550231933594)"/></svg>