<svg xmlns="http://www.w3.org/2000/svg" viewBox="0 0 512 512"><circle cx="256" cy="256" r="256" fill="#001117"/><path d="M13.184-74.817L13.184-84.375Q13.184-98.547 19.775-106.677L19.775-106.677Q17.029-113.159 17.029-121.729L17.029-121.729L17.029-124.036Q17.029-133.044 21.368-140.295Q25.708-147.546 33.069-151.886Q40.430-156.226 49.329-156.226L49.329-156.226L109.644-156.226L109.644-133.154L49.329-133.154Q45.593-133.154 42.902-130.518Q40.210-127.881 40.210-124.036L40.210-124.036L40.210-121.729Q40.210-118.433 42.242-116.125Q44.275-113.818 47.241-113.818L47.241-113.818L88.660-113.818Q96.680-113.818 103.271-109.863Q109.863-105.908 113.818-99.207Q117.773-92.505 117.773-84.265L117.773-84.265L117.773-74.817Q117.773-59.216 107.227-49.988L107.227-49.988Q109.094-43.726 109.094-35.925L109.094-35.925L109.094-33.069Q109.094-23.950 104.865-16.425Q100.635-8.899 93.549-4.449Q86.462 0 77.783 0L77.783 0L18.018 0L18.018-23.181L77.673-23.181Q81.079-23.181 83.496-25.983Q85.913-28.784 85.913-32.739L85.913-32.739L85.913-35.925Q85.913-39.551 83.386-42.572Q80.859-45.593 77.673-45.593L77.673-45.593L42.407-45.593Q34.387-45.593 27.740-49.548Q21.094-53.503 17.139-60.150Q13.184-66.797 13.184-74.817L13.184-74.817ZM36.365-83.606L36.365-75.806Q36.365-72.949 38.177-70.862Q39.990-68.774 42.407-68.774L42.407-68.774L88.989-68.774Q91.406-68.774 93.054-70.862Q94.702-72.949 94.702-75.806L94.702-75.806L94.702-83.606Q94.702-86.462 93.054-88.550Q91.406-90.637 88.989-90.637L88.989-90.637L42.407-90.637Q39.990-90.637 38.177-88.550Q36.365-86.462 36.365-83.606L36.365-83.606ZM144.141-43.945L144.141-112.280Q144.141-124.475 150.458-134.418Q156.775-144.360 167.322-150.293Q177.869-156.226 190.723-156.226L190.723-156.226L264.661-156.226L264.661-133.154L190.723-133.154Q181.055-133.154 174.188-127.057Q167.322-120.959 167.322-112.390L167.322-112.390L167.322-43.835Q167.322-35.266 174.188-29.169Q181.055-23.071 190.723-23.071L190.723-23.071L227.307-23.071Q237.085-23.071 243.896-29.169Q250.708-35.266 250.708-43.835L250.708-43.835L250.708-64.270L208.301-64.270L208.301-87.341L273.889-87.341L273.889-43.945Q273.889-31.860 267.627-21.863Q261.365-11.865 250.763-5.933Q240.161 0 227.307 0L227.307 0L190.723 0Q177.869 0 167.322-5.933Q156.775-11.865 150.458-21.863Q144.141-31.860 144.141-43.945L144.141-43.945ZM300.256-43.176L300.256-112.280Q300.256-124.475 306.299-134.418Q312.341-144.360 322.449-150.293Q332.556-156.226 344.861-156.226L344.861-156.226L426.709-156.226L426.709-133.154L344.861-133.154Q335.962-133.154 329.700-127.057Q323.438-120.959 323.438-112.280L323.438-112.280L323.438-43.506Q323.438-35.156 329.700-29.169Q335.962-23.181 344.861-23.181L344.861-23.181L426.709-23.181L426.709 0L344.861 0Q332.556 0 322.449-5.823Q312.341-11.646 306.299-21.478Q300.256-31.311 300.256-43.176L300.256-43.176Z" fill="#f7f3e3" transform="translate(36.05348777770996, 334.11299896240234)"/></svg>