<svg xmlns="http://www.w3.org/2000/svg" viewBox="0 0 512 512"><circle cx="256" cy="256" r="256" fill="#001117"/><path d="M14.063-79.805L14.063-90Q14.063-105.117 21.094-113.789L21.094-113.789Q18.164-120.703 18.164-129.844L18.164-129.844L18.164-132.305Q18.164-141.914 22.793-149.648Q27.422-157.383 35.273-162.012Q43.125-166.641 52.617-166.641L52.617-166.641L116.953-166.641L116.953-142.031L52.617-142.031Q48.633-142.031 45.762-139.219Q42.891-136.406 42.891-132.305L42.891-132.305L42.891-129.844Q42.891-126.328 45.059-123.867Q47.227-121.406 50.391-121.406L50.391-121.406L94.570-121.406Q103.125-121.406 110.156-117.188Q117.188-112.969 121.406-105.820Q125.625-98.672 125.625-89.883L125.625-89.883L125.625-79.805Q125.625-63.164 114.375-53.320L114.375-53.320Q116.367-46.641 116.367-38.320L116.367-38.320L116.367-35.273Q116.367-25.547 111.855-17.520Q107.344-9.492 99.785-4.746Q92.227 0 82.969 0L82.969 0L19.219 0L19.219-24.727L82.852-24.727Q86.484-24.727 89.063-27.715Q91.641-30.703 91.641-34.922L91.641-34.922L91.641-38.320Q91.641-42.188 88.945-45.410Q86.250-48.633 82.852-48.633L82.852-48.633L45.234-48.633Q36.680-48.633 29.590-52.852Q22.500-57.070 18.281-64.160Q14.063-71.250 14.063-79.805L14.063-79.805ZM38.789-89.180L38.789-80.859Q38.789-77.813 40.723-75.586Q42.656-73.359 45.234-73.359L45.234-73.359L94.922-73.359Q97.500-73.359 99.258-75.586Q101.016-77.813 101.016-80.859L101.016-80.859L101.016-89.180Q101.016-92.227 99.258-94.453Q97.500-96.680 94.922-96.680L94.922-96.680L45.234-96.680Q42.656-96.680 40.723-94.453Q38.789-92.227 38.789-89.180L38.789-89.180ZM156.094 0L156.094-166.641L267.656-166.641L267.656-142.031L180.820-142.031L180.820 0L156.094 0ZM194.883-74.414L194.883-99.023L267.656-99.023L267.656-74.414L194.883-74.414ZM286.406 0L346.055-166.641L376.875-166.641L436.523 0L410.156 0L391.992-50.156L345.469-50.156L354.375-74.766L383.086-74.766L361.523-134.297L312.773 0L286.406 0Z" fill="#f7f3e3" transform="translate(30.706989288330078, 339.3205032348633)"/></svg>