<svg xmlns="http://www.w3.org/2000/svg" viewBox="0 0 512 512"><circle cx="256" cy="256" r="256" fill="#001117"/><path d="M14.063-79.805L14.063-90Q14.063-105.117 21.094-113.789L21.094-113.789Q18.164-120.703 18.164-129.844L18.164-129.844L18.164-132.305Q18.164-141.914 22.793-149.648Q27.422-157.383 35.273-162.012Q43.125-166.641 52.617-166.641L52.617-166.641L116.953-166.641L116.953-142.031L52.617-142.031Q48.633-142.031 45.762-139.219Q42.891-136.406 42.891-132.305L42.891-132.305L42.891-129.844Q42.891-126.328 45.059-123.867Q47.227-121.406 50.391-121.406L50.391-121.406L94.570-121.406Q103.125-121.406 110.156-117.188Q117.188-112.969 121.406-105.820Q125.625-98.672 125.625-89.883L125.625-89.883L125.625-79.805Q125.625-63.164 114.375-53.320L114.375-53.320Q116.367-46.641 116.367-38.320L116.367-38.320L116.367-35.273Q116.367-25.547 111.855-17.520Q107.344-9.492 99.785-4.746Q92.227 0 82.969 0L82.969 0L19.219 0L19.219-24.727L82.852-24.727Q86.484-24.727 89.063-27.715Q91.641-30.703 91.641-34.922L91.641-34.922L91.641-38.320Q91.641-42.188 88.945-45.410Q86.250-48.633 82.852-48.633L82.852-48.633L45.234-48.633Q36.680-48.633 29.590-52.852Q22.500-57.070 18.281-64.160Q14.063-71.250 14.063-79.805L14.063-79.805ZM38.789-89.180L38.789-80.859Q38.789-77.813 40.723-75.586Q42.656-73.359 45.234-73.359L45.234-73.359L94.922-73.359Q97.500-73.359 99.258-75.586Q101.016-77.813 101.016-80.859L101.016-80.859L101.016-89.180Q101.016-92.227 99.258-94.453Q97.500-96.680 94.922-96.680L94.922-96.680L45.234-96.680Q42.656-96.680 40.723-94.453Q38.789-92.227 38.789-89.180L38.789-89.180ZM156.094 0L156.094-166.641L244.219-166.641Q255.586-166.641 264.902-161.074Q274.219-155.508 279.785-146.250Q285.352-136.992 285.352-125.625L285.352-125.625L285.352-108.984Q285.352-97.852 279.785-88.652Q274.219-79.453 264.902-74.004Q255.586-68.555 244.219-68.555L244.219-68.555L194.883-68.555L194.883-93.164L244.219-93.164Q251.133-93.164 255.938-97.852Q260.742-102.539 260.742-109.336L260.742-109.336L260.742-125.625Q260.742-132.422 255.938-137.227Q251.133-142.031 244.219-142.031L244.219-142.031L180.820-142.031L180.820 0L156.094 0ZM311.719-34.219L311.719-96.328Q311.719-106.758 319.336-114.082Q326.953-121.406 337.617-121.406L337.617-121.406L388.242-121.406Q397.969-121.406 405.879-116.660Q413.789-111.914 418.535-103.887Q423.281-95.859 423.281-86.133L423.281-86.133L423.281-82.734Q423.281-73.125 418.535-65.215Q413.789-57.305 405.879-52.559Q397.969-47.813 388.242-47.813L388.242-47.813L350.508-47.813L350.508-72.422L388.477-72.422Q392.695-72.422 395.684-75.469Q398.672-78.516 398.672-82.852L398.672-82.852L398.672-86.133Q398.672-90.586 395.684-93.633Q392.695-96.680 388.477-96.680L388.477-96.680L336.445-96.680L336.445-34.336Q336.445-30.352 339.141-27.539Q341.836-24.727 345.703-24.727L345.703-24.727L414.727-24.727L414.727 0L345.703 0Q336.328 0 328.594-4.629Q320.859-9.258 316.289-17.051Q311.719-24.844 311.719-34.219L311.719-34.219Z" fill="#f7f3e3" transform="translate(37.3279914855957, 339.3205032348633)"/></svg>