<svg xmlns="http://www.w3.org/2000/svg" viewBox="0 0 512 512"><circle cx="256" cy="256" r="256" fill="#001117"/><path d="M36.680-47.109L12.891-47.109Q12.891-62.695 22.676-72.715Q32.461-82.734 47.695-82.734L47.695-82.734Q54.961-82.734 62.520-80.977Q70.078-79.219 80.039-75.117L80.039-75.117Q87.305-72.422 92.168-71.250Q97.031-70.078 101.250-70.078L101.250-70.078Q112.969-70.078 112.969-82.852L112.969-82.852L136.523-82.852Q136.523-65.977 126.738-56.543Q116.953-47.109 99.492-47.109L99.492-47.109Q92.695-47.109 85.547-48.809Q78.398-50.508 65.742-55.078L65.742-55.078Q59.180-57.422 54.902-58.418Q50.625-59.414 47.461-59.414L47.461-59.414Q36.680-59.414 36.680-47.109L36.680-47.109ZM163.477-114.023L163.477-126.328Q163.477-137.461 169.043-146.602Q174.609-155.742 184.043-161.191Q193.477-166.641 204.844-166.641L204.844-166.641L291.094-166.641L291.094-142.031L204.844-142.031Q198.047-142.031 193.125-137.227Q188.203-132.422 188.203-125.625L188.203-125.625L188.203-114.141Q188.203-107.930 193.125-103.477Q198.047-99.023 204.844-99.023L204.844-99.023L257.930-99.023Q269.414-99.023 278.789-93.574Q288.164-88.125 293.730-78.926Q299.297-69.727 299.297-58.594L299.297-58.594L299.297-40.430Q299.297-29.297 293.730-20.098Q288.164-10.898 278.789-5.449Q269.414 0 257.930 0L257.930 0L163.594 0L163.594-24.727L257.930-24.727Q264.844-24.727 269.707-29.355Q274.570-33.984 274.570-40.547L274.570-40.547L274.570-58.477Q274.570-65.039 269.707-69.727Q264.844-74.414 257.930-74.414L257.930-74.414L204.844-74.414Q193.477-74.414 184.043-79.746Q174.609-85.078 169.043-94.102Q163.477-103.125 163.477-114.023L163.477-114.023ZM321.563-96.680L321.563-121.406L337.383-121.406L337.383-166.641L362.109-166.641L362.109-121.406L399.492-121.406L399.492-96.680L362.109-96.680L362.109-34.453Q362.109-30.469 365.215-27.598Q368.320-24.727 372.656-24.727L372.656-24.727L399.492-24.727L399.492 0L372.305 0Q362.695 0 354.785-4.629Q346.875-9.258 342.129-17.051Q337.383-24.844 337.383-34.336L337.383-34.336L337.383-96.680L321.563-96.680Z" fill="#f7f3e3" transform="translate(49.80849361419678, 339.3205032348633)"/></svg>