<svg xmlns="http://www.w3.org/2000/svg" viewBox="0 0 512 512"><circle cx="256" cy="256" r="256" fill="#001117"/><path d="M19.336-156.782L19.336-173.701Q19.336-189.009 26.990-201.577Q34.644-214.146 47.615-221.638Q60.586-229.131 76.216-229.131L76.216-229.131L194.810-229.131L194.810-195.293L76.216-195.293Q66.870-195.293 60.103-188.687Q53.335-182.080 53.335-172.734L53.335-172.734L53.335-156.943Q53.335-148.403 60.103-142.280Q66.870-136.157 76.216-136.157L76.216-136.157L149.209-136.157Q165-136.157 177.891-128.665Q190.781-121.172 198.435-108.523Q206.089-95.874 206.089-80.566L206.089-80.566L206.089-55.591Q206.089-40.283 198.435-27.634Q190.781-14.985 177.891-7.493Q165 0 149.209 0L149.209 0L19.497 0L19.497-33.999L149.209-33.999Q158.716-33.999 165.403-40.364Q172.090-46.729 172.090-55.752L172.090-55.752L172.090-80.405Q172.090-89.429 165.403-95.874Q158.716-102.319 149.209-102.319L149.209-102.319L76.216-102.319Q60.586-102.319 47.615-109.651Q34.644-116.982 26.990-129.390Q19.336-141.797 19.336-156.782L19.336-156.782ZM236.704-132.935L236.704-166.934L258.457-166.934L258.457-229.131L292.456-229.131L292.456-166.934L343.857-166.934L343.857-132.935L292.456-132.935L292.456-47.373Q292.456-41.895 296.726-37.947Q300.996-33.999 306.958-33.999L306.958-33.999L343.857-33.999L343.857 0L306.475 0Q293.262 0 282.385-6.365Q271.509-12.729 264.983-23.445Q258.457-34.160 258.457-47.212L258.457-47.212L258.457-132.935L236.704-132.935Z" fill="#f7f3e3" transform="translate(74.40350151062012, 370.5654983520508)"/></svg>