<svg xmlns="http://www.w3.org/2000/svg" viewBox="0 0 512 512"><circle cx="256" cy="256" r="256" fill="#001117"/><path d="M12.085-11.865L12.085-34.827L83.386-60.754L12.085-86.792L12.085-109.644L123.047-69.324L123.047-52.185L12.085-11.865ZM148.315-106.897L148.315-118.433Q148.315-128.870 153.534-137.439Q158.752-146.008 167.596-151.117Q176.440-156.226 187.097-156.226L187.097-156.226L267.957-156.226L267.957-133.154L187.097-133.154Q180.725-133.154 176.111-128.650Q171.497-124.146 171.497-117.773L171.497-117.773L171.497-107.007Q171.497-101.184 176.111-97.009Q180.725-92.834 187.097-92.834L187.097-92.834L236.865-92.834Q247.632-92.834 256.421-87.726Q265.210-82.617 270.428-73.993Q275.647-65.369 275.647-54.932L275.647-54.932L275.647-37.903Q275.647-27.466 270.428-18.842Q265.210-10.217 256.421-5.109Q247.632 0 236.865 0L236.865 0L148.425 0L148.425-23.181L236.865-23.181Q243.347-23.181 247.906-27.521Q252.466-31.860 252.466-38.013L252.466-38.013L252.466-54.822Q252.466-60.974 247.906-65.369Q243.347-69.763 236.865-69.763L236.865-69.763L187.097-69.763Q176.440-69.763 167.596-74.762Q158.752-79.761 153.534-88.220Q148.315-96.680 148.315-106.897L148.315-106.897ZM296.521-90.637L296.521-113.818L311.353-113.818L311.353-156.226L334.534-156.226L334.534-113.818L369.580-113.818L369.580-90.637L334.534-90.637L334.534-32.300Q334.534-28.564 337.445-25.873Q340.356-23.181 344.421-23.181L344.421-23.181L369.580-23.181L369.580 0L344.092 0Q335.083 0 327.667-4.340Q320.251-8.679 315.802-15.985Q311.353-23.291 311.353-32.190L311.353-32.190L311.353-90.637L296.521-90.637Z" fill="#f7f3e3" transform="translate(65.16750240325928, 334.11299896240234)"/></svg>