<svg xmlns="http://www.w3.org/2000/svg" viewBox="0 0 512 512"><circle cx="256" cy="256" r="256" fill="#001117"/><path d="M12.891-55.664L12.891-73.945L131.250-116.953L131.250-92.578L55.195-64.805L131.250-37.148L131.250-12.656L12.891-55.664ZM158.203-114.023L158.203-126.328Q158.203-137.461 163.770-146.602Q169.336-155.742 178.770-161.191Q188.203-166.641 199.570-166.641L199.570-166.641L285.820-166.641L285.820-142.031L199.570-142.031Q192.773-142.031 187.852-137.227Q182.930-132.422 182.930-125.625L182.930-125.625L182.930-114.141Q182.930-107.930 187.852-103.477Q192.773-99.023 199.570-99.023L199.570-99.023L252.656-99.023Q264.141-99.023 273.516-93.574Q282.891-88.125 288.457-78.926Q294.023-69.727 294.023-58.594L294.023-58.594L294.023-40.430Q294.023-29.297 288.457-20.098Q282.891-10.898 273.516-5.449Q264.141 0 252.656 0L252.656 0L158.320 0L158.320-24.727L252.656-24.727Q259.570-24.727 264.434-29.355Q269.297-33.984 269.297-40.547L269.297-40.547L269.297-58.477Q269.297-65.039 264.434-69.727Q259.570-74.414 252.656-74.414L252.656-74.414L199.570-74.414Q188.203-74.414 178.770-79.746Q169.336-85.078 163.770-94.102Q158.203-103.125 158.203-114.023L158.203-114.023ZM316.289-96.680L316.289-121.406L332.109-121.406L332.109-166.641L356.836-166.641L356.836-121.406L394.219-121.406L394.219-96.680L356.836-96.680L356.836-34.453Q356.836-30.469 359.941-27.598Q363.047-24.727 367.383-24.727L367.383-24.727L394.219-24.727L394.219 0L367.031 0Q357.422 0 349.512-4.629Q341.602-9.258 336.855-17.051Q332.109-24.844 332.109-34.336L332.109-34.336L332.109-96.680L316.289-96.680Z" fill="#f7f3e3" transform="translate(52.4449987411499, 339.3205032348633)"/></svg>