<svg xmlns="http://www.w3.org/2000/svg" viewBox="0 0 512 512"><circle cx="256" cy="256" r="256" fill="#001117"/><path d="M10.459 0L10.459-111.973L94.541-111.973L94.541 0L10.459 0ZM20.918-10.459L84.082-10.459L84.082-101.514L20.918-101.514L20.918-10.459ZM109.102-124.277L109.102-145.811L227.842-145.811L227.842-124.277L179.341-124.277L179.341 0L157.603 0L157.603-124.277L109.102-124.277ZM236.045 0L279.316-53.218L236.045-106.230L263.628-106.230L293.467-69.419L323.306-106.230L350.786-106.230L307.617-53.218L350.786 0L323.408 0L293.467-36.812L263.525 0L236.045 0Z" fill="#f7f3e3" transform="translate(75.37748718261719, 328.90550231933594)"/></svg>