<svg xmlns="http://www.w3.org/2000/svg" viewBox="0 0 512 512"><circle cx="256" cy="256" r="256" fill="#001117"/><path d="M14.063-14.063L14.063-14.063Q14.063-20.391 18.516-24.844Q22.969-29.297 29.297-29.297L29.297-29.297Q35.742-29.297 40.137-24.902Q44.531-20.508 44.531-14.063L44.531-14.063Q44.531-7.617 40.137-3.223Q35.742 1.172 29.297 1.172L29.297 1.172Q22.969 1.172 18.516-3.281Q14.063-7.734 14.063-14.063ZM59.297-14.063L59.297-14.063Q59.297-20.391 63.750-24.844Q68.203-29.297 74.531-29.297L74.531-29.297Q80.977-29.297 85.371-24.902Q89.766-20.508 89.766-14.063L89.766-14.063Q89.766-7.617 85.371-3.223Q80.977 1.172 74.531 1.172L74.531 1.172Q68.203 1.172 63.750-3.281Q59.297-7.734 59.297-14.063ZM104.531-14.063L104.531-14.063Q104.531-20.391 108.984-24.844Q113.438-29.297 119.766-29.297L119.766-29.297Q126.211-29.297 130.605-24.902Q135-20.508 135-14.063L135-14.063Q135-7.617 130.605-3.223Q126.211 1.172 119.766 1.172L119.766 1.172Q113.438 1.172 108.984-3.281Q104.531-7.734 104.531-14.063ZM153.750-142.031L153.750-166.641L289.453-166.641L289.453-142.031L234.023-142.031L234.023 0L209.180 0L209.180-142.031L153.750-142.031ZM298.828 0L348.281-60.820L298.828-121.406L330.352-121.406L364.453-79.336L398.555-121.406L429.961-121.406L380.625-60.820L429.961 0L398.672 0L364.453-42.070L330.234 0L298.828 0Z" fill="#f7f3e3" transform="translate(33.98799514770508, 338.73450469970703)"/></svg>