<svg xmlns="http://www.w3.org/2000/svg" viewBox="0 0 512 512"><circle cx="256" cy="256" r="256" fill="#001117"/><path d="M11.953 0L11.953-127.969L108.047-127.969L108.047 0L11.953 0ZM23.906-11.953L96.094-11.953L96.094-116.016L23.906-116.016L23.906-11.953ZM124.688-142.031L124.688-166.641L260.391-166.641L260.391-142.031L204.961-142.031L204.961 0L180.117 0L180.117-142.031L124.688-142.031ZM272.109-121.406L298.359-121.406L329.883-37.266L362.109-121.406L389.414-121.406L324.961 45.703L297.891 45.703L316.758-3.984L272.109-121.406Z" fill="#f7f3e3" transform="translate(55.316500663757324, 316.46900177001953)"/></svg>