<svg xmlns="http://www.w3.org/2000/svg" viewBox="0 0 512 512"><circle cx="256" cy="256" r="256" fill="#001117"/><path d="M27.510-35.332L9.668-35.332Q9.668-47.021 17.007-54.536Q24.346-62.051 35.771-62.051L35.771-62.051Q41.221-62.051 46.890-60.732Q52.559-59.414 60.029-56.338L60.029-56.338Q65.479-54.316 69.126-53.438Q72.773-52.559 75.938-52.559L75.938-52.559Q84.727-52.559 84.727-62.139L84.727-62.139L102.393-62.139Q102.393-49.482 95.054-42.407Q87.715-35.332 74.619-35.332L74.619-35.332Q69.521-35.332 64.160-36.606Q58.799-37.881 49.307-41.309L49.307-41.309Q44.385-43.066 41.177-43.813Q37.969-44.561 35.596-44.561L35.596-44.561Q27.510-44.561 27.510-35.332L27.510-35.332ZM115.576-106.523L115.576-124.980L217.354-124.980L217.354-106.523L175.781-106.523L175.781 0L157.148 0L157.148-106.523L115.576-106.523ZM231.416-56.602L237.832-67.588L253.037-58.887L253.037-76.553L265.957-76.553L265.957-58.887L281.514-67.676L287.578-56.514L272.373-47.637L287.754-38.760L281.338-27.773L265.957-36.563L265.957-18.721L253.037-18.721L253.037-36.475L237.832-27.598L231.504-38.848L246.709-47.813L231.416-56.602ZM310.605 0L310.605-124.980L377.051-124.980Q386.807-124.980 394.849-120.234Q402.891-115.488 407.637-107.534Q412.383-99.580 412.383-89.824L412.383-89.824L412.383-34.805Q412.383-25.225 407.637-17.314Q402.891-9.404 394.849-4.702Q386.807 0 377.051 0L377.051 0L310.605 0ZM329.150-18.545L377.051-18.545Q384.082-18.545 389.004-23.379Q393.926-28.213 393.926-35.068L393.926-35.068L393.926-89.824Q393.926-96.768 389.004-101.646Q384.082-106.523 377.051-106.523L377.051-106.523L329.150-106.523L329.150-18.545Z" fill="#f7f3e3" transform="translate(44.974501609802246, 318.4900016784668)"/></svg>