<svg xmlns="http://www.w3.org/2000/svg" viewBox="0 0 512 512"><circle cx="256" cy="256" r="256" fill="#001117"/><path d="M9.668-9.492L9.668-27.861L66.709-48.604L9.668-69.434L9.668-87.715L98.438-55.459L98.438-41.748L9.668-9.492ZM111.621-106.523L111.621-124.980L213.398-124.980L213.398-106.523L171.826-106.523L171.826 0L153.193 0L153.193-106.523L111.621-106.523ZM227.461-56.602L233.877-67.588L249.082-58.887L249.082-76.553L262.002-76.553L262.002-58.887L277.559-67.676L283.623-56.514L268.418-47.637L283.799-38.760L277.383-27.773L262.002-36.563L262.002-18.721L249.082-18.721L249.082-36.475L233.877-27.598L227.549-38.848L242.754-47.813L227.461-56.602ZM306.650 0L306.650-124.980L373.096-124.980Q382.852-124.980 390.894-120.234Q398.936-115.488 403.682-107.534Q408.428-99.580 408.428-89.824L408.428-89.824L408.428-34.805Q408.428-25.225 403.682-17.314Q398.936-9.404 390.894-4.702Q382.852 0 373.096 0L373.096 0L306.650 0ZM325.195-18.545L373.096-18.545Q380.127-18.545 385.049-23.379Q389.971-28.213 389.971-35.068L389.971-35.068L389.971-89.824Q389.971-96.768 385.049-101.646Q380.127-106.523 373.096-106.523L373.096-106.523L325.195-106.523L325.195-18.545Z" fill="#f7f3e3" transform="translate(46.95199489593506, 318.4900016784668)"/></svg>