<svg xmlns="http://www.w3.org/2000/svg" viewBox="0 0 512 512"><circle cx="256" cy="256" r="256" fill="#001117"/><path d="M10.547-142.031L10.547-166.641L83.086-166.641Q93.633-166.641 102.129-161.719Q110.625-156.797 115.605-148.301Q120.586-139.805 120.586-129.258L120.586-129.258L120.586-112.617Q120.586-101.602 116.953-93.809Q113.320-86.016 104.941-80.215Q96.563-74.414 82.383-69.258L82.383-69.258Q70.781-64.922 66.621-62.168Q62.461-59.414 62.461-56.016L62.461-56.016L62.461-35.977L37.734-35.977L37.734-56.016Q37.734-68.906 46.699-77.344Q55.664-85.781 77.695-93.633L77.695-93.633Q87.656-97.148 91.758-101.602Q95.859-106.055 95.859-113.320L95.859-113.320L95.859-129.258Q95.859-134.531 92.109-138.281Q88.359-142.031 83.086-142.031L83.086-142.031L10.547-142.031ZM36.094-12.773L36.094-12.773Q36.094-18.633 40.195-22.676Q44.297-26.719 50.039-26.719L50.039-26.719Q55.898-26.719 59.941-22.676Q63.984-18.633 63.984-12.773L63.984-12.773Q63.984-7.031 59.941-2.930Q55.898 1.172 50.039 1.172L50.039 1.172Q44.297 1.172 40.195-2.930Q36.094-7.031 36.094-12.773ZM139.336-142.031L139.336-166.641L275.039-166.641L275.039-142.031L219.609-142.031L219.609 0L194.766 0L194.766-142.031L139.336-142.031ZM286.758-121.406L313.008-121.406L344.531-37.266L376.758-121.406L404.063-121.406L339.609 45.703L312.539 45.703L331.406-3.984L286.758-121.406Z" fill="#f7f3e3" transform="translate(48.6950044631958, 316.46900177001953)"/></svg>