<svg xmlns="http://www.w3.org/2000/svg" viewBox="0 0 512 512"><circle cx="256" cy="256" r="256" fill="#001117"/><path d="M7.031-213.047L7.031-249.961L210.586-249.961L210.586-213.047L127.441-213.047L127.441 0L90.176 0L90.176-213.047L7.031-213.047ZM234.492-231.680L234.492-231.680Q234.492-241.172 241.172-247.852Q247.852-254.531 257.344-254.531L257.344-254.531Q266.836-254.531 273.516-247.852Q280.195-241.172 280.195-231.680L280.195-231.680Q280.195-222.188 273.516-215.508Q266.836-208.828 257.344-208.828L257.344-208.828Q247.852-208.828 241.172-215.508Q234.492-222.188 234.492-231.680ZM238.711 0L238.711-182.109L275.977-182.109L275.977 0L238.711 0Z" fill="#f7f3e3" transform="translate(112.38699913024902, 383.2655029296875)"/></svg>