<svg xmlns="http://www.w3.org/2000/svg" viewBox="0 0 512 512"><circle cx="256" cy="256" r="256" fill="#001117"/><path d="M10.459 0L10.459-111.973L94.541-111.973L94.541 0L10.459 0ZM20.918-10.459L84.082-10.459L84.082-101.514L20.918-101.514L20.918-10.459ZM109.102-124.277L109.102-145.811L227.842-145.811L227.842-124.277L179.341-124.277L179.341 0L157.603 0L157.603-124.277L109.102-124.277ZM238.096-106.230L261.064-106.230L288.647-32.607L316.846-106.230L340.737-106.230L284.341 39.990L260.654 39.990L277.163-3.486L238.096-106.230Z" fill="#f7f3e3" transform="translate(80.40199279785156, 308.9104995727539)"/></svg>