<svg xmlns="http://www.w3.org/2000/svg" viewBox="0 0 512 512"><circle cx="256" cy="256" r="256" fill="#001117"/><path d="M16.406-54.609L16.406-75.234L64.336-75.234L64.336-121.992L84.961-121.992L84.961-75.234L132.891-75.234L132.891-54.609L84.961-54.609L84.961-7.969L64.336-7.969L64.336-54.609L16.406-54.609ZM153.984-142.031L153.984-166.641L289.688-166.641L289.688-142.031L234.258-142.031L234.258 0L209.414 0L209.414-142.031L153.984-142.031ZM301.406-121.406L327.656-121.406L359.180-37.266L391.406-121.406L418.711-121.406L354.258 45.703L327.188 45.703L346.055-3.984L301.406-121.406Z" fill="#f7f3e3" transform="translate(38.44150352478027, 316.46900177001953)"/></svg>