<svg xmlns="http://www.w3.org/2000/svg" viewBox="0 0 512 512"><circle cx="256" cy="256" r="256" fill="#001117"/><path d="M4.395-133.154L4.395-156.226L131.616-156.226L131.616-133.154L79.651-133.154L79.651 0L56.360 0L56.360-133.154L4.395-133.154ZM149.194-70.752L157.214-84.485L176.221-73.608L176.221-95.691L192.371-95.691L192.371-73.608L211.816-84.595L219.397-70.642L200.391-59.546L219.617-48.450L211.597-34.717L192.371-45.703L192.371-23.401L176.221-23.401L176.221-45.593L157.214-34.497L149.304-48.560L168.311-59.766L149.194-70.752ZM248.181 0L248.181-156.226L331.238-156.226Q343.433-156.226 353.485-150.293Q363.538-144.360 369.470-134.418Q375.403-124.475 375.403-112.280L375.403-112.280L375.403-43.506Q375.403-31.531 369.470-21.643Q363.538-11.755 353.485-5.878Q343.433 0 331.238 0L331.238 0L248.181 0ZM271.362-23.181L331.238-23.181Q340.027-23.181 346.179-29.224Q352.332-35.266 352.332-43.835L352.332-43.835L352.332-112.280Q352.332-120.959 346.179-127.057Q340.027-133.154 331.238-133.154L331.238-133.154L271.362-133.154L271.362-23.181Z" fill="#f7f3e3" transform="translate(66.10098695755005, 334.11299896240234)"/></svg>