<svg xmlns="http://www.w3.org/2000/svg" viewBox="0 0 512 512"><circle cx="256" cy="256" r="256" fill="#001117"/><path d="M8.965 0L8.965-95.977L81.035-95.977L81.035 0L8.965 0ZM17.930-8.965L72.070-8.965L72.070-87.012L17.930-87.012L17.930-8.965ZM102.305 0L102.305-124.980L119.268-124.980L159.609-75.674L199.951-124.980L216.914-124.980L216.914 0L198.369 0L198.369-93.428L167.344-55.811L151.963-55.811L120.850-93.428L120.850 0L102.305 0ZM238.887-32.695L238.887-58.184Q238.887-67.236 243.325-74.707Q247.764-82.178 255.234-86.616Q262.705-91.055 271.758-91.055L271.758-91.055L293.467-91.055L293.467-72.510L271.758-72.510Q265.869-72.510 261.650-68.247Q257.432-63.984 257.432-58.008L257.432-58.008L257.432-32.871Q257.432-26.982 261.650-22.764Q265.869-18.545 271.758-18.545L271.758-18.545L304.014-18.545L304.014-124.980L322.559-124.980L322.559-18.545Q322.559-10.898 317.109-5.449Q311.660 0 304.014 0L304.014 0L271.758 0Q262.705 0 255.234-4.438Q247.764-8.877 243.325-16.304Q238.887-23.730 238.887-32.695L238.887-32.695Z" fill="#f7f3e3" transform="translate(90.23800277709961, 318.4900016784668)"/></svg>