<svg xmlns="http://www.w3.org/2000/svg" viewBox="0 0 512 512"><circle cx="256" cy="256" r="256" fill="#001117"/><path d="M5.273-159.785L5.273-187.471L157.939-187.471L157.939-159.785L95.581-159.785L95.581 0L67.632 0L67.632-159.785L5.273-159.785ZM181.670 0L181.670-187.471L281.338-187.471Q295.972-187.471 308.035-180.352Q320.098-173.232 327.217-161.301Q334.336-149.370 334.336-134.736L334.336-134.736L334.336-52.207Q334.336-37.837 327.217-25.972Q320.098-14.106 308.035-7.053Q295.972 0 281.338 0L281.338 0L181.670 0ZM209.487-27.817L281.338-27.817Q291.885-27.817 299.268-35.068Q306.650-42.319 306.650-52.603L306.650-52.603L306.650-134.736Q306.650-145.151 299.268-152.468Q291.885-159.785 281.338-159.785L281.338-159.785L209.487-159.785L209.487-27.817Z" fill="#f7f3e3" transform="translate(86.19550609588623, 349.7354965209961)"/></svg>