<svg xmlns="http://www.w3.org/2000/svg" viewBox="0 0 512 512"><circle cx="256" cy="256" r="256" fill="#001117"/><path d="M11.279-48.706L11.279-64.702L114.844-102.334L114.844-81.006L48.296-56.704L114.844-32.505L114.844-11.074L11.279-48.706ZM130.225-124.277L130.225-145.811L248.965-145.811L248.965-124.277L200.464-124.277L200.464 0L178.726 0L178.726-124.277L130.225-124.277ZM267.422 0L267.422-145.811L344.941-145.811Q356.323-145.811 365.706-140.273Q375.088-134.736 380.625-125.457Q386.162-116.177 386.162-104.795L386.162-104.795L386.162-40.605Q386.162-29.429 380.625-20.200Q375.088-10.972 365.706-5.486Q356.323 0 344.941 0L344.941 0L267.422 0ZM289.058-21.636L344.941-21.636Q353.145-21.636 358.887-27.275Q364.629-32.915 364.629-40.913L364.629-40.913L364.629-104.795Q364.629-112.896 358.887-118.586Q353.145-124.277 344.941-124.277L344.941-124.277L289.058-124.277L289.058-21.636Z" fill="#f7f3e3" transform="translate(57.27950191497803, 328.90550231933594)"/></svg>