<svg xmlns="http://www.w3.org/2000/svg" viewBox="0 0 512 512"><circle cx="256" cy="256" r="256" fill="#001117"/><path d="M32.095-41.221L11.279-41.221Q11.279-54.858 19.841-63.625Q28.403-72.393 41.733-72.393L41.733-72.393Q48.091-72.393 54.705-70.854Q61.318-69.316 70.034-65.728L70.034-65.728Q76.392-63.369 80.647-62.344Q84.902-61.318 88.594-61.318L88.594-61.318Q98.848-61.318 98.848-72.495L98.848-72.495L119.458-72.495Q119.458-57.729 110.896-49.475Q102.334-41.221 87.056-41.221L87.056-41.221Q81.108-41.221 74.854-42.708Q68.599-44.194 57.524-48.193L57.524-48.193Q51.782-50.244 48.040-51.116Q44.297-51.987 41.528-51.987L41.528-51.987Q32.095-51.987 32.095-41.221L32.095-41.221ZM134.839-124.277L134.839-145.811L253.579-145.811L253.579-124.277L205.078-124.277L205.078 0L183.340 0L183.340-124.277L134.839-124.277ZM272.036 0L272.036-145.811L349.556-145.811Q360.938-145.811 370.320-140.273Q379.702-134.736 385.239-125.457Q390.776-116.177 390.776-104.795L390.776-104.795L390.776-40.605Q390.776-29.429 385.239-20.200Q379.702-10.972 370.320-5.486Q360.938 0 349.556 0L349.556 0L272.036 0ZM293.672-21.636L349.556-21.636Q357.759-21.636 363.501-27.275Q369.243-32.915 369.243-40.913L369.243-40.913L369.243-104.795Q369.243-112.896 363.501-118.586Q357.759-124.277 349.556-124.277L349.556-124.277L293.672-124.277L293.672-21.636Z" fill="#f7f3e3" transform="translate(54.97249507904053, 328.90550231933594)"/></svg>