<svg xmlns="http://www.w3.org/2000/svg" viewBox="0 0 512 512"><circle cx="256" cy="256" r="256" fill="#001117"/><path d="M38.972-50.054L13.696-50.054Q13.696-66.614 24.093-77.260Q34.490-87.905 50.676-87.905L50.676-87.905Q58.396-87.905 66.427-86.038Q74.458-84.170 85.042-79.812L85.042-79.812Q92.761-76.948 97.928-75.703Q103.096-74.458 107.578-74.458L107.578-74.458Q120.029-74.458 120.029-88.030L120.029-88.030L145.056-88.030Q145.056-70.100 134.659-60.077Q124.263-50.054 105.710-50.054L105.710-50.054Q98.489-50.054 90.894-51.859Q83.298-53.665 69.851-58.521L69.851-58.521Q62.878-61.011 58.334-62.069Q53.789-63.127 50.427-63.127L50.427-63.127Q38.972-63.127 38.972-50.054L38.972-50.054ZM163.733-150.908L163.733-177.056L307.917-177.056L307.917-150.908L249.023-150.908L249.023 0L222.627 0L222.627-150.908L163.733-150.908ZM330.330 0L330.330-177.056L356.602-177.056L356.602 0L330.330 0Z" fill="#f7f3e3" transform="translate(70.85101222991943, 344.5279998779297)"/></svg>