<svg xmlns="http://www.w3.org/2000/svg" viewBox="0 0 512 512"><circle cx="256" cy="256" r="256" fill="#001117"/><path d="M11.953 0L11.953-127.969L108.047-127.969L108.047 0L11.953 0ZM23.906-11.953L96.094-11.953L96.094-116.016L23.906-116.016L23.906-11.953ZM136.406-46.523L136.406-166.641L161.133-166.641L161.133-46.758Q161.133-37.617 167.813-31.172Q174.492-24.727 183.867-24.727L183.867-24.727L224.766-24.727Q234.141-24.727 240.820-31.172Q247.500-37.617 247.500-46.758L247.500-46.758L247.500-166.641L272.109-166.641L272.109-46.523Q272.109-33.750 265.723-23.145Q259.336-12.539 248.613-6.270Q237.891 0 224.766 0L224.766 0L183.867 0Q170.742 0 159.961-6.270Q149.180-12.539 142.793-23.145Q136.406-33.750 136.406-46.523L136.406-46.523ZM296.719-96.680L296.719-121.406L312.539-121.406L312.539-166.641L337.266-166.641L337.266-121.406L374.648-121.406L374.648-96.680L337.266-96.680L337.266-34.453Q337.266-30.469 340.371-27.598Q343.477-24.727 347.813-24.727L347.813-24.727L374.648-24.727L374.648 0L347.461 0Q337.852 0 329.941-4.629Q322.031-9.258 317.285-17.051Q312.539-24.844 312.539-34.336L312.539-34.336L312.539-96.680L296.719-96.680Z" fill="#f7f3e3" transform="translate(62.699496269226074, 339.3205032348633)"/></svg>