<svg xmlns="http://www.w3.org/2000/svg" viewBox="0 0 512 512"><circle cx="256" cy="256" r="256" fill="#001117"/><path d="M32.095-41.221L11.279-41.221Q11.279-54.858 19.841-63.625Q28.403-72.393 41.733-72.393L41.733-72.393Q48.091-72.393 54.705-70.854Q61.318-69.316 70.034-65.728L70.034-65.728Q76.392-63.369 80.647-62.344Q84.902-61.318 88.594-61.318L88.594-61.318Q98.848-61.318 98.848-72.495L98.848-72.495L119.458-72.495Q119.458-57.729 110.896-49.475Q102.334-41.221 87.056-41.221L87.056-41.221Q81.108-41.221 74.854-42.708Q68.599-44.194 57.524-48.193L57.524-48.193Q51.782-50.244 48.040-51.116Q44.297-51.987 41.528-51.987L41.528-51.987Q32.095-51.987 32.095-41.221L32.095-41.221ZM143.042-41.016L143.042-104.795Q143.042-116.177 148.938-125.457Q154.834-134.736 164.678-140.273Q174.521-145.811 186.519-145.811L186.519-145.811L255.527-145.811L255.527-124.277L186.519-124.277Q177.495-124.277 171.086-118.586Q164.678-112.896 164.678-104.897L164.678-104.897L164.678-40.913Q164.678-32.915 171.086-27.224Q177.495-21.533 186.519-21.533L186.519-21.533L220.664-21.533Q229.790-21.533 236.147-27.224Q242.505-32.915 242.505-40.913L242.505-40.913L242.505-59.985L202.925-59.985L202.925-81.519L264.141-81.519L264.141-41.016Q264.141-29.736 258.296-20.405Q252.451-11.074 242.556-5.537Q232.661 0 220.664 0L220.664 0L186.519 0Q174.521 0 164.678-5.537Q154.834-11.074 148.938-20.405Q143.042-29.736 143.042-41.016L143.042-41.016ZM290.801-40.811L290.801-145.811L312.334-145.811L312.334-40.811Q312.334-32.813 317.974-27.173Q323.613-21.533 331.509-21.533L331.509-21.533L403.799-21.533L403.799 0L331.509 0Q320.332 0 311.052-5.486Q301.772-10.972 296.287-20.251Q290.801-29.531 290.801-40.811L290.801-40.811Z" fill="#f7f3e3" transform="translate(48.4609899520874, 328.90550231933594)"/></svg>