o 
usemtl primitives-cylinder-64-material
v -7.730104446411133 -6.343932628631592 -15
v -8.314696311950684 -5.555702209472656 -15
v -6.343932628631592 -7.730104446411133 -15
v -5.555702209472656 -8.314696311950684 -15
v -7.071067810058594 -7.071067810058594 -15
v -8.819212913513184 -4.713967323303223 -15
v -9.238795280456543 -3.8268344402313232 -15
v -9.569403648376465 -2.9028468132019043 -15
v -9.807852745056152 -1.9509031772613525 -15
v -9.951847076416016 -0.9801713824272156 -15
v -4.713967323303223 -8.819212913513184 -15
v -3.8268344402313232 -9.238795280456543 -15
v -2.9028468132019043 -9.569403648376465 -15
v -1.9509031772613525 -9.807852745056152 -15
v -0.9801713824272156 -9.951847076416016 -15
v -7.730104446411133 -6.343932628631592 15
v -8.314696311950684 -5.555702209472656 15
v -6.343932628631592 -7.730104446411133 15
v -5.555702209472656 -8.314696311950684 15
v -7.071067810058594 -7.071067810058594 15
v -8.819212913513184 -4.713967323303223 15
v -9.238795280456543 -3.8268344402313232 15
v -9.569403648376465 -2.9028468132019043 15
v -9.807852745056152 -1.9509031772613525 15
v -9.951847076416016 -0.9801713824272156 15
v -4.713967323303223 -8.819212913513184 15
v -3.8268344402313232 -9.238795280456543 15
v -2.9028468132019043 -9.569403648376465 15
v -1.9509031772613525 -9.807852745056152 15
v -0.9801713824272156 -9.951847076416016 15
v -10 0 -15
v -9.951847076416016 0.9801713824272156 -15
v -9.807852745056152 1.9509031772613525 -15
v -9.569403648376465 2.9028468132019043 -15
v -9.238795280456543 3.8268344402313232 -15
v -8.819212913513184 4.713967323303223 -15
v -8.314696311950684 5.555702209472656 -15
v -7.730104446411133 6.343932628631592 -15
v -7.071067810058594 7.071067810058594 -15
v -6.343932628631592 7.730104446411133 -15
v -5.555702209472656 8.314696311950684 -15
v -4.713967323303223 8.819212913513184 -15
v -3.8268344402313232 9.238795280456543 -15
v -2.9028468132019043 9.569403648376465 -15
v -1.9509031772613525 9.807852745056152 -15
v -0.9801713824272156 9.951847076416016 -15
v -10 0 15
v -9.951847076416016 0.9801713824272156 15
v -9.807852745056152 1.9509031772613525 15
v -9.569403648376465 2.9028468132019043 15
v -9.238795280456543 3.8268344402313232 15
v -8.819212913513184 4.713967323303223 15
v -8.314696311950684 5.555702209472656 15
v -7.730104446411133 6.343932628631592 15
v -7.071067810058594 7.071067810058594 15
v -6.343932628631592 7.730104446411133 15
v -5.555702209472656 8.314696311950684 15
v -4.713967323303223 8.819212913513184 15
v -3.8268344402313232 9.238795280456543 15
v -2.9028468132019043 9.569403648376465 15
v -1.9509031772613525 9.807852745056152 15
v -0.9801713824272156 9.951847076416016 15
v 0 -10 -15
v 0.9801713824272156 -9.951847076416016 -15
v 1.9509031772613525 -9.807852745056152 -15
v 2.9028468132019043 -9.569403648376465 -15
v 3.8268344402313232 -9.238795280456543 -15
v 4.713967323303223 -8.819212913513184 -15
v 5.555702209472656 -8.314696311950684 -15
v 6.343932628631592 -7.730104446411133 -15
v 7.071067810058594 -7.071067810058594 -15
v 7.730104446411133 -6.343932628631592 -15
v 8.314696311950684 -5.555702209472656 -15
v 8.819212913513184 -4.713967323303223 -15
v 9.238795280456543 -3.8268344402313232 -15
v 9.569403648376465 -2.9028468132019043 -15
v 9.807852745056152 -1.9509031772613525 -15
v 9.951847076416016 -0.9801713824272156 -15
v 0 -10 15
v 0.9801713824272156 -9.951847076416016 15
v 1.9509031772613525 -9.807852745056152 15
v 2.9028468132019043 -9.569403648376465 15
v 3.8268344402313232 -9.238795280456543 15
v 4.713967323303223 -8.819212913513184 15
v 5.555702209472656 -8.314696311950684 15
v 6.343932628631592 -7.730104446411133 15
v 7.071067810058594 -7.071067810058594 15
v 7.730104446411133 -6.343932628631592 15
v 8.314696311950684 -5.555702209472656 15
v 8.819212913513184 -4.713967323303223 15
v 9.238795280456543 -3.8268344402313232 15
v 9.569403648376465 -2.9028468132019043 15
v 9.807852745056152 -1.9509031772613525 15
v 9.951847076416016 -0.9801713824272156 15
v 0 10 -15
v 0.9801713824272156 9.951847076416016 -15
v 1.9509031772613525 9.807852745056152 -15
v 2.9028468132019043 9.569403648376465 -15
v 3.8268344402313232 9.238795280456543 -15
v 4.713967323303223 8.819212913513184 -15
v 10 0 -15
v 9.951847076416016 0.9801713824272156 -15
v 9.807852745056152 1.9509031772613525 -15
v 9.569403648376465 2.9028468132019043 -15
v 9.238795280456543 3.8268344402313232 -15
v 8.819212913513184 4.713967323303223 -15
v 7.071067810058594 7.071067810058594 -15
v 5.555702209472656 8.314696311950684 -15
v 6.343932628631592 7.730104446411133 -15
v 8.314696311950684 5.555702209472656 -15
v 7.730104446411133 6.343932628631592 -15
v 0 10 15
v 0.9801713824272156 9.951847076416016 15
v 1.9509031772613525 9.807852745056152 15
v 2.9028468132019043 9.569403648376465 15
v 3.8268344402313232 9.238795280456543 15
v 4.713967323303223 8.819212913513184 15
v 10 0 15
v 9.951847076416016 0.9801713824272156 15
v 9.807852745056152 1.9509031772613525 15
v 9.569403648376465 2.9028468132019043 15
v 9.238795280456543 3.8268344402313232 15
v 8.819212913513184 4.713967323303223 15
v 7.071067810058594 7.071067810058594 15
v 5.555702209472656 8.314696311950684 15
v 6.343932628631592 7.730104446411133 15
v 8.314696311950684 5.555702209472656 15
v 7.730104446411133 6.343932628631592 15
vn -0.7534003918191251 -0.5979268601977775 -0.27362624044637224
vn -0.8206125259082645 -0.5290887797926609 -0.21600959566642183
vn -0.5977399427000955 -0.7045024725089697 -0.3826006104668875
vn -0.5139642834714679 -0.7425857610202055 -0.42942648130466143
vn -0.6783295280835764 -0.6564712531241668 -0.3300220373725046
vn -0.8780340380774736 -0.45099296284694984 -0.16019230768016077
vn -0.924453930991226 -0.36530510255984266 -0.109257089100031
vn -0.9594696126255184 -0.27397885810461475 -0.06598217759311334
vn -0.9833256176584052 -0.17891009461864646 -0.03258692529624039
vn -0.9965998039617271 -0.08170488563062207 -0.010636841990657247
vn -0.4289623425523584 -0.7718604074977908 -0.4692790427979261
vn -0.34411237574287457 -0.7937457180079096 -0.5015519993028666
vn -0.2601619602702967 -0.8096699533683307 -0.5260706426335173
vn -0.17730036972277688 -0.8208683408308175 -0.5428993883933078
vn -0.09529341954198349 -0.8282598428204709 -0.5521818513524364
vn -0.7334189631433895 -0.6222742979597664 0.2736262461832846
vn -0.8028488257511068 -0.5556740232814661 0.21600958969512818
vn -0.5743524386836737 -0.723696106919114 0.38260060246716177
vn -0.48937453309038387 -0.759016119385198 0.4294264743538801
vn -0.6564712531241668 -0.6783295280835764 0.3300220373725046
vn -0.8627965805855898 -0.4795002505648055 0.16019229144407154
vn -0.9119973378247889 -0.3953779722598835 0.10925710435555509
vn -0.9499843549025019 -0.3052475696594498 0.06598216923894529
vn -0.9769404435957131 -0.21101057325190706 0.03258692441628918
vn -0.9933902433770225 -0.11429209046410245 0.010636842608850764
vn -0.40345967518889886 -0.7854918378355853 0.46927908880552394
vn -0.317938838255027 -0.8045871950656599 0.5015519321719513
vn -0.23351170187685671 -0.8177542113200641 0.5260706558580074
vn -0.1503281309609452 -0.8262334544630721 0.5428993753614082
vn -0.06812315397240587 -0.8309358909326893 0.5521818369457201
vn -0.9998653731781016 0.016373478204856958 -0.0010699209739087575
vn -0.9934373915858452 0.11429751459432876 -0.004269327426136794
vn -0.9772619217577365 0.21108001921035885 -0.020108748656502688
vn -0.9509645808451241 0.3055625592600763 -0.047936294772228244
vn -0.9140502978315053 0.3962680174156921 -0.08650844703018082
vn -0.8662098661384658 0.4813971825952371 -0.13392990851094091
vn -0.8076500132149232 0.5589969640403164 -0.18768018101984957
vn -0.7393212864373099 0.6272821979935657 -0.24478782547553785
vn -0.6629292937114064 0.6850026221137967 -0.3021525429919776
vn -0.5807048736577376 0.7317003085010558 -0.35692647457089877
vn -0.4950124282905807 0.7677603897280575 -0.40682512189205333
vn -0.40795553266039686 0.7942448362651947 -0.45027483100640414
vn -0.32110634986380204 0.8126030104975764 -0.4863815985493502
vn -0.23540117136116356 0.8243711096122127 -0.5147801104923553
vn -0.1511832369090692 0.830933296164505 -0.5354376585587602
vn -0.06832278565318932 0.8333708699351251 -0.5484751499422384
vn -0.9998653731781016 -0.016373478204856958 0.0010699209739087575
vn -0.9966471043056669 0.08170876527252509 0.0042693274375152435
vn -0.9836491991814387 0.17896896690619354 0.020108750191009238
vn -0.960459634080537 0.27426155959533455 0.047936293455120974
vn -0.9265349416981116 0.3661274278223908 0.08650842969697774
vn -0.8815075882380343 0.45277715382972 0.13392991020911646
vn -0.8255199088260979 0.5322527817291286 0.1876801973393982
vn -0.7594635409642806 0.6027387915568095 0.24478782465358337
vn -0.6850026221137967 0.6629292937114064 0.3021525429919776
vn -0.6043510432122017 0.7122943991620064 0.3569264707061662
vn -0.5198854285124356 0.751140784440512 0.40682510145089773
vn -0.43374240357102156 0.7804614894110412 0.4502747948650161
vn -0.34754065518941646 0.8016535237427664 0.4863816617239151
vn -0.26226707300800867 0.8162214447234171 0.5147800846861013
vn -0.17830890424933316 0.8255376819423044 0.5354376437632385
vn -0.09557266581580703 0.8306869906362845 0.5484751490600951
vn -0.013630852594036472 -0.83238384417766 -0.5540318906070125
vn 0.06832278565318932 -0.8333708699351251 -0.5484751499422384
vn 0.1511832369090692 -0.830933296164505 -0.5354376585587602
vn 0.23540117136116356 -0.8243711096122127 -0.5147801104923553
vn 0.3211063389655766 -0.812603042522788 -0.4863815522394248
vn 0.40795553266039686 -0.7942448362651947 -0.45027483100640414
vn 0.4950123951415281 -0.7677604441419484 -0.40682505953690457
vn 0.5807048736577376 -0.7317003085010558 -0.35692647457089877
vn 0.6629292937114064 -0.6850026221137967 -0.3021525429919776
vn 0.7393212864373099 -0.6272821979935657 -0.24478782547553785
vn 0.8076499633216407 -0.5589970303664634 -0.1876801981777185
vn 0.8662098661384658 -0.4813971825952371 -0.13392990851094091
vn 0.9140502978315053 -0.3962680174156921 -0.08650844703018082
vn 0.9509645808451241 -0.3055625592600763 -0.047936294772228244
vn 0.9772619217577365 -0.21108001921035885 -0.020108748656502688
vn 0.9934373915858452 -0.11429751459432876 -0.004269327426136794
vn 0.013630852594036472 -0.83238384417766 0.5540318906070125
vn 0.09557266581580703 -0.8306869906362845 0.5484751490600951
vn 0.17830890424933316 -0.8255376819423044 0.5354376437632385
vn 0.26226707300800867 -0.8162214447234171 0.5147800846861013
vn 0.3475406436208405 -0.8016535566627924 0.48638161573142036
vn 0.43374240357102156 -0.7804614894110412 0.4502747948650161
vn 0.5198854348156996 -0.751140793547593 0.40682507658105754
vn 0.6043510432122017 -0.7122943991620064 0.3569264707061662
vn 0.6850026221137967 -0.6629292937114064 0.3021525429919776
vn 0.7594635409642806 -0.6027387915568095 0.24478782465358337
vn 0.8255199088260979 -0.5322527817291286 0.1876801973393982
vn 0.8815075882380343 -0.45277715382972 0.13392991020911646
vn 0.9265349416981116 -0.3661274278223908 0.08650842969697774
vn 0.960459634080537 -0.27426155959533455 0.047936293455120974
vn 0.9836491991814387 -0.17896896690619354 0.020108750191009238
vn 0.9966471043056669 -0.08170876527252509 0.0042693274375152435
vn 0.013630852594036472 0.83238384417766 -0.5540318906070125
vn 0.09529341483752529 0.828259861535472 -0.5521818240922493
vn 0.17730036398545632 0.8208683142680708 -0.5428994304300939
vn 0.2601619602702967 0.8096699533683307 -0.5260706426335173
vn 0.34411237574287457 0.7937457180079096 -0.5015519993028666
vn 0.4289623425523584 0.7718604074977908 -0.4692790427979261
vn 0.9998653731781016 -0.016373478204856958 -0.0010699209739087575
vn 0.9965998039617271 0.08170488563062207 -0.010636841990657247
vn 0.9833256176584052 0.17891009461864646 -0.03258692529624039
vn 0.9594696126255184 0.27397885810461475 -0.06598217759311334
vn 0.924453930991226 0.36530510255984266 -0.109257089100031
vn 0.8780340380774736 0.45099296284694984 -0.16019230768016077
vn 0.6783295280835764 0.6564712531241668 -0.3300220373725046
vn 0.5139642300184137 0.7425858295127884 -0.42942642683978227
vn 0.5977399244156885 0.7045025105634224 -0.382600568961106
vn 0.8206125544286048 0.5290887385764653 -0.21600958827266142
vn 0.7534003918191251 0.5979268601977775 -0.27362624044637224
vn -0.013630852594036472 0.83238384417766 0.5540318906070125
vn 0.06812315621451612 0.8309359182809515 0.5521817955148147
vn 0.15032812609642837 0.8262334277267154 0.5428994173981944
vn 0.23351170187685671 0.8177542113200641 0.5260706558580074
vn 0.317938838255027 0.8045871950656599 0.5015519321719513
vn 0.40345967518889886 0.7854918378355853 0.46927908880552394
vn 0.9998653731781016 0.016373478204856958 0.0010699209739087575
vn 0.9933902433770225 0.11429209046410245 0.010636842608850764
vn 0.9769404435957131 0.21101057325190706 0.03258692441628918
vn 0.9499843549025019 0.3052475696594498 0.06598216923894529
vn 0.9119973378247889 0.3953779722598835 0.10925710435555509
vn 0.8627965805855898 0.4795002505648055 0.16019229144407154
vn 0.6564712531241668 0.6783295280835764 0.3300220373725046
vn 0.4893745398786556 0.7590161432952278 0.429426424356714
vn 0.574352445232662 0.7236961151709764 0.3826005770273991
vn 0.8028488709433597 0.5556739537016042 0.21600960071857944
vn 0.733418935940558 0.6222743344839836 0.273626236034367
f 16//16 1//1 5//5
f 17//17 2//2 1//1
f 18//18 3//3 4//4
f 19//19 4//4 11//11
f 20//20 5//5 3//3
f 36//36 6//6 7//7
f 34//34 8//8 9//9
f 33//33 9//9 10//10
f 35//35 7//7 8//8
f 37//37 2//2 6//6
f 38//38 1//1 2//2
f 41//41 4//4 3//3
f 39//39 5//5 1//1
f 40//40 3//3 5//5
f 22//22 7//7 6//6
f 23//23 8//8 7//7
f 21//21 6//6 2//2
f 24//24 9//9 8//8
f 25//25 10//10 9//9
f 47//47 31//31 10//10
f 26//26 11//11 12//12
f 27//27 12//12 13//13
f 28//28 13//13 14//14
f 29//29 14//14 15//15
f 30//30 15//15 63//63
f 42//42 11//11 4//4
f 43//43 12//12 11//11
f 44//44 13//13 12//12
f 45//45 14//14 13//13
f 46//46 15//15 14//14
f 95//95 63//63 15//15
f 17//17 21//21 2//2
f 16//16 17//17 1//1
f 18//18 20//20 3//3
f 19//19 18//18 4//4
f 20//20 16//16 5//5
f 21//21 22//22 6//6
f 23//23 24//24 8//8
f 22//22 23//23 7//7
f 24//24 25//25 9//9
f 25//25 47//47 10//10
f 52//52 22//22 21//21
f 50//50 24//24 23//23
f 49//49 25//25 24//24
f 51//51 23//23 22//22
f 53//53 21//21 17//17
f 54//54 17//17 16//16
f 57//57 18//18 19//19
f 55//55 16//16 20//20
f 56//56 20//20 18//18
f 27//27 26//26 12//12
f 26//26 19//19 11//11
f 28//28 27//27 13//13
f 29//29 28//28 14//14
f 30//30 29//29 15//15
f 79//79 30//30 63//63
f 58//58 19//19 26//26
f 59//59 26//26 27//27
f 60//60 27//27 28//28
f 61//61 28//28 29//29
f 62//62 29//29 30//30
f 112//112 30//30 79//79
f 32//32 10//10 31//31
f 33//33 10//10 32//32
f 34//34 9//9 33//33
f 35//35 8//8 34//34
f 36//36 7//7 35//35
f 37//37 6//6 36//36
f 38//38 2//2 37//37
f 39//39 1//1 38//38
f 40//40 5//5 39//39
f 41//41 3//3 40//40
f 42//42 4//4 41//41
f 48//48 32//32 31//31
f 49//49 33//33 32//32
f 50//50 34//34 33//33
f 51//51 35//35 34//34
f 52//52 36//36 35//35
f 53//53 37//37 36//36
f 54//54 38//38 37//37
f 55//55 39//39 38//38
f 56//56 40//40 39//39
f 57//57 41//41 40//40
f 43//43 11//11 42//42
f 44//44 12//12 43//43
f 45//45 13//13 44//44
f 46//46 14//14 45//45
f 95//95 15//15 46//46
f 58//58 42//42 41//41
f 59//59 43//43 42//42
f 60//60 44//44 43//43
f 61//61 45//45 44//44
f 62//62 46//46 45//45
f 112//112 95//95 46//46
f 47//47 48//48 31//31
f 48//48 49//49 32//32
f 49//49 50//50 33//33
f 50//50 51//51 34//34
f 51//51 52//52 35//35
f 52//52 53//53 36//36
f 48//48 47//47 25//25
f 49//49 48//48 25//25
f 50//50 49//49 24//24
f 51//51 50//50 23//23
f 52//52 51//51 22//22
f 53//53 52//52 21//21
f 54//54 53//53 17//17
f 55//55 54//54 16//16
f 56//56 55//55 20//20
f 57//57 56//56 18//18
f 58//58 57//57 19//19
f 53//53 54//54 37//37
f 54//54 55//55 38//38
f 55//55 56//56 39//39
f 56//56 57//57 40//40
f 57//57 58//58 41//41
f 59//59 58//58 26//26
f 60//60 59//59 27//27
f 61//61 60//60 28//28
f 62//62 61//61 29//29
f 112//112 62//62 30//30
f 58//58 59//59 42//42
f 59//59 60//60 43//43
f 60//60 61//61 44//44
f 61//61 62//62 45//45
f 62//62 112//112 46//46
f 79//79 63//63 64//64
f 80//80 64//64 65//65
f 81//81 65//65 66//66
f 82//82 66//66 67//67
f 83//83 67//67 68//68
f 84//84 68//68 69//69
f 96//96 64//64 63//63
f 97//97 65//65 64//64
f 98//98 66//66 65//65
f 99//99 67//67 66//66
f 100//100 68//68 67//67
f 85//85 69//69 70//70
f 86//86 70//70 71//71
f 87//87 71//71 72//72
f 88//88 72//72 73//73
f 89//89 73//73 74//74
f 108//108 69//69 68//68
f 109//109 70//70 69//69
f 107//107 71//71 70//70
f 111//111 72//72 71//71
f 110//110 73//73 72//72
f 106//106 74//74 73//73
f 105//105 75//75 74//74
f 104//104 76//76 75//75
f 103//103 77//77 76//76
f 102//102 78//78 77//77
f 90//90 74//74 75//75
f 91//91 75//75 76//76
f 92//92 76//76 77//77
f 93//93 77//77 78//78
f 94//94 78//78 101//101
f 80//80 79//79 64//64
f 81//81 80//80 65//65
f 82//82 81//81 66//66
f 83//83 82//82 67//67
f 84//84 83//83 68//68
f 113//113 79//79 80//80
f 114//114 80//80 81//81
f 115//115 81//81 82//82
f 116//116 82//82 83//83
f 117//117 83//83 84//84
f 85//85 84//84 69//69
f 86//86 85//85 70//70
f 87//87 86//86 71//71
f 88//88 87//87 72//72
f 89//89 88//88 73//73
f 90//90 89//89 74//74
f 91//91 90//90 75//75
f 92//92 91//91 76//76
f 93//93 92//92 77//77
f 94//94 93//93 78//78
f 118//118 94//94 101//101
f 125//125 84//84 85//85
f 126//126 85//85 86//86
f 124//124 86//86 87//87
f 128//128 87//87 88//88
f 127//127 88//88 89//89
f 123//123 89//89 90//90
f 122//122 90//90 91//91
f 121//121 91//91 92//92
f 120//120 92//92 93//93
f 119//119 93//93 94//94
f 96//96 63//63 95//95
f 97//97 64//64 96//96
f 98//98 65//65 97//97
f 99//99 66//66 98//98
f 100//100 67//67 99//99
f 108//108 68//68 100//100
f 113//113 96//96 95//95
f 114//114 97//97 96//96
f 115//115 98//98 97//97
f 116//116 99//99 98//98
f 117//117 100//100 99//99
f 107//107 70//70 109//109
f 111//111 71//71 107//107
f 109//109 69//69 108//108
f 110//110 72//72 111//111
f 106//106 73//73 110//110
f 104//104 75//75 105//105
f 101//101 78//78 102//102
f 102//102 77//77 103//103
f 103//103 76//76 104//104
f 105//105 74//74 106//106
f 118//118 101//101 102//102
f 119//119 102//102 103//103
f 120//120 103//103 104//104
f 123//123 106//106 110//110
f 121//121 104//104 105//105
f 122//122 105//105 106//106
f 124//124 107//107 109//109
f 125//125 108//108 100//100
f 126//126 109//109 108//108
f 127//127 110//110 111//111
f 128//128 111//111 107//107
f 113//113 112//112 79//79
f 114//114 113//113 80//80
f 115//115 114//114 81//81
f 116//116 115//115 82//82
f 117//117 116//116 83//83
f 125//125 117//117 84//84
f 112//112 113//113 95//95
f 113//113 114//114 96//96
f 114//114 115//115 97//97
f 115//115 116//116 98//98
f 117//117 125//125 100//100
f 116//116 117//117 99//99
f 119//119 118//118 102//102
f 120//120 119//119 103//103
f 122//122 121//121 105//105
f 121//121 120//120 104//104
f 123//123 122//122 106//106
f 124//124 126//126 86//86
f 128//128 124//124 87//87
f 126//126 125//125 85//85
f 127//127 128//128 88//88
f 123//123 127//127 89//89
f 121//121 122//122 91//91
f 118//118 119//119 94//94
f 119//119 120//120 93//93
f 120//120 121//121 92//92
f 122//122 123//123 90//90
f 124//124 128//128 107//107
f 125//125 126//126 108//108
f 126//126 124//124 109//109
f 128//128 127//127 111//111
f 127//127 123//123 110//110
