ply
format ascii 1.0
element vertex 128
property float x
property float y
property float z
property float nx
property float ny
property float nz
element face 252
property list uchar int vertex_index
end_header
-7.730104446411133 -6.343932628631592 -15 -0.7534003918191251 -0.5979268601977775 -0.27362624044637224
-8.314696311950684 -5.555702209472656 -15 -0.8206125259082645 -0.5290887797926609 -0.21600959566642183
-6.343932628631592 -7.730104446411133 -15 -0.5977399427000955 -0.7045024725089697 -0.3826006104668875
-5.555702209472656 -8.314696311950684 -15 -0.5139642834714679 -0.7425857610202055 -0.42942648130466143
-7.071067810058594 -7.071067810058594 -15 -0.6783295280835764 -0.6564712531241668 -0.3300220373725046
-8.819212913513184 -4.713967323303223 -15 -0.8780340380774736 -0.45099296284694984 -0.16019230768016077
-9.238795280456543 -3.8268344402313232 -15 -0.924453930991226 -0.36530510255984266 -0.109257089100031
-9.569403648376465 -2.9028468132019043 -15 -0.9594696126255184 -0.27397885810461475 -0.06598217759311334
-9.807852745056152 -1.9509031772613525 -15 -0.9833256176584052 -0.17891009461864646 -0.03258692529624039
-9.951847076416016 -0.9801713824272156 -15 -0.9965998039617271 -0.08170488563062207 -0.010636841990657247
-4.713967323303223 -8.819212913513184 -15 -0.4289623425523584 -0.7718604074977908 -0.4692790427979261
-3.8268344402313232 -9.238795280456543 -15 -0.34411237574287457 -0.7937457180079096 -0.5015519993028666
-2.9028468132019043 -9.569403648376465 -15 -0.2601619602702967 -0.8096699533683307 -0.5260706426335173
-1.9509031772613525 -9.807852745056152 -15 -0.17730036972277688 -0.8208683408308175 -0.5428993883933078
-0.9801713824272156 -9.951847076416016 -15 -0.09529341954198349 -0.8282598428204709 -0.5521818513524364
-7.730104446411133 -6.343932628631592 15 -0.7334189631433895 -0.6222742979597664 0.2736262461832846
-8.314696311950684 -5.555702209472656 15 -0.8028488257511068 -0.5556740232814661 0.21600958969512818
-6.343932628631592 -7.730104446411133 15 -0.5743524386836737 -0.723696106919114 0.38260060246716177
-5.555702209472656 -8.314696311950684 15 -0.48937453309038387 -0.759016119385198 0.4294264743538801
-7.071067810058594 -7.071067810058594 15 -0.6564712531241668 -0.6783295280835764 0.3300220373725046
-8.819212913513184 -4.713967323303223 15 -0.8627965805855898 -0.4795002505648055 0.16019229144407154
-9.238795280456543 -3.8268344402313232 15 -0.9119973378247889 -0.3953779722598835 0.10925710435555509
-9.569403648376465 -2.9028468132019043 15 -0.9499843549025019 -0.3052475696594498 0.06598216923894529
-9.807852745056152 -1.9509031772613525 15 -0.9769404435957131 -0.21101057325190706 0.03258692441628918
-9.951847076416016 -0.9801713824272156 15 -0.9933902433770225 -0.11429209046410245 0.010636842608850764
-4.713967323303223 -8.819212913513184 15 -0.40345967518889886 -0.7854918378355853 0.46927908880552394
-3.8268344402313232 -9.238795280456543 15 -0.317938838255027 -0.8045871950656599 0.5015519321719513
-2.9028468132019043 -9.569403648376465 15 -0.23351170187685671 -0.8177542113200641 0.5260706558580074
-1.9509031772613525 -9.807852745056152 15 -0.1503281309609452 -0.8262334544630721 0.5428993753614082
-0.9801713824272156 -9.951847076416016 15 -0.06812315397240587 -0.8309358909326893 0.5521818369457201
-10 0 -15 -0.9998653731781016 0.016373478204856958 -0.0010699209739087575
-9.951847076416016 0.9801713824272156 -15 -0.9934373915858452 0.11429751459432876 -0.004269327426136794
-9.807852745056152 1.9509031772613525 -15 -0.9772619217577365 0.21108001921035885 -0.020108748656502688
-9.569403648376465 2.9028468132019043 -15 -0.9509645808451241 0.3055625592600763 -0.047936294772228244
-9.238795280456543 3.8268344402313232 -15 -0.9140502978315053 0.3962680174156921 -0.08650844703018082
-8.819212913513184 4.713967323303223 -15 -0.8662098661384658 0.4813971825952371 -0.13392990851094091
-8.314696311950684 5.555702209472656 -15 -0.8076500132149232 0.5589969640403164 -0.18768018101984957
-7.730104446411133 6.343932628631592 -15 -0.7393212864373099 0.6272821979935657 -0.24478782547553785
-7.071067810058594 7.071067810058594 -15 -0.6629292937114064 0.6850026221137967 -0.3021525429919776
-6.343932628631592 7.730104446411133 -15 -0.5807048736577376 0.7317003085010558 -0.35692647457089877
-5.555702209472656 8.314696311950684 -15 -0.4950124282905807 0.7677603897280575 -0.40682512189205333
-4.713967323303223 8.819212913513184 -15 -0.40795553266039686 0.7942448362651947 -0.45027483100640414
-3.8268344402313232 9.238795280456543 -15 -0.32110634986380204 0.8126030104975764 -0.4863815985493502
-2.9028468132019043 9.569403648376465 -15 -0.23540117136116356 0.8243711096122127 -0.5147801104923553
-1.9509031772613525 9.807852745056152 -15 -0.1511832369090692 0.830933296164505 -0.5354376585587602
-0.9801713824272156 9.951847076416016 -15 -0.06832278565318932 0.8333708699351251 -0.5484751499422384
-10 0 15 -0.9998653731781016 -0.016373478204856958 0.0010699209739087575
-9.951847076416016 0.9801713824272156 15 -0.9966471043056669 0.08170876527252509 0.0042693274375152435
-9.807852745056152 1.9509031772613525 15 -0.9836491991814387 0.17896896690619354 0.020108750191009238
-9.569403648376465 2.9028468132019043 15 -0.960459634080537 0.27426155959533455 0.047936293455120974
-9.238795280456543 3.8268344402313232 15 -0.9265349416981116 0.3661274278223908 0.08650842969697774
-8.819212913513184 4.713967323303223 15 -0.8815075882380343 0.45277715382972 0.13392991020911646
-8.314696311950684 5.555702209472656 15 -0.8255199088260979 0.5322527817291286 0.1876801973393982
-7.730104446411133 6.343932628631592 15 -0.7594635409642806 0.6027387915568095 0.24478782465358337
-7.071067810058594 7.071067810058594 15 -0.6850026221137967 0.6629292937114064 0.3021525429919776
-6.343932628631592 7.730104446411133 15 -0.6043510432122017 0.7122943991620064 0.3569264707061662
-5.555702209472656 8.314696311950684 15 -0.5198854285124356 0.751140784440512 0.40682510145089773
-4.713967323303223 8.819212913513184 15 -0.43374240357102156 0.7804614894110412 0.4502747948650161
-3.8268344402313232 9.238795280456543 15 -0.34754065518941646 0.8016535237427664 0.4863816617239151
-2.9028468132019043 9.569403648376465 15 -0.26226707300800867 0.8162214447234171 0.5147800846861013
-1.9509031772613525 9.807852745056152 15 -0.17830890424933316 0.8255376819423044 0.5354376437632385
-0.9801713824272156 9.951847076416016 15 -0.09557266581580703 0.8306869906362845 0.5484751490600951
0 -10 -15 -0.013630852594036472 -0.83238384417766 -0.5540318906070125
0.9801713824272156 -9.951847076416016 -15 0.06832278565318932 -0.8333708699351251 -0.5484751499422384
1.9509031772613525 -9.807852745056152 -15 0.1511832369090692 -0.830933296164505 -0.5354376585587602
2.9028468132019043 -9.569403648376465 -15 0.23540117136116356 -0.8243711096122127 -0.5147801104923553
3.8268344402313232 -9.238795280456543 -15 0.3211063389655766 -0.812603042522788 -0.4863815522394248
4.713967323303223 -8.819212913513184 -15 0.40795553266039686 -0.7942448362651947 -0.45027483100640414
5.555702209472656 -8.314696311950684 -15 0.4950123951415281 -0.7677604441419484 -0.40682505953690457
6.343932628631592 -7.730104446411133 -15 0.5807048736577376 -0.7317003085010558 -0.35692647457089877
7.071067810058594 -7.071067810058594 -15 0.6629292937114064 -0.6850026221137967 -0.3021525429919776
7.730104446411133 -6.343932628631592 -15 0.7393212864373099 -0.6272821979935657 -0.24478782547553785
8.314696311950684 -5.555702209472656 -15 0.8076499633216407 -0.5589970303664634 -0.1876801981777185
8.819212913513184 -4.713967323303223 -15 0.8662098661384658 -0.4813971825952371 -0.13392990851094091
9.238795280456543 -3.8268344402313232 -15 0.9140502978315053 -0.3962680174156921 -0.08650844703018082
9.569403648376465 -2.9028468132019043 -15 0.9509645808451241 -0.3055625592600763 -0.047936294772228244
9.807852745056152 -1.9509031772613525 -15 0.9772619217577365 -0.21108001921035885 -0.020108748656502688
9.951847076416016 -0.9801713824272156 -15 0.9934373915858452 -0.11429751459432876 -0.004269327426136794
0 -10 15 0.013630852594036472 -0.83238384417766 0.5540318906070125
0.9801713824272156 -9.951847076416016 15 0.09557266581580703 -0.8306869906362845 0.5484751490600951
1.9509031772613525 -9.807852745056152 15 0.17830890424933316 -0.8255376819423044 0.5354376437632385
2.9028468132019043 -9.569403648376465 15 0.26226707300800867 -0.8162214447234171 0.5147800846861013
3.8268344402313232 -9.238795280456543 15 0.3475406436208405 -0.8016535566627924 0.48638161573142036
4.713967323303223 -8.819212913513184 15 0.43374240357102156 -0.7804614894110412 0.4502747948650161
5.555702209472656 -8.314696311950684 15 0.5198854348156996 -0.751140793547593 0.40682507658105754
6.343932628631592 -7.730104446411133 15 0.6043510432122017 -0.7122943991620064 0.3569264707061662
7.071067810058594 -7.071067810058594 15 0.6850026221137967 -0.6629292937114064 0.3021525429919776
7.730104446411133 -6.343932628631592 15 0.7594635409642806 -0.6027387915568095 0.24478782465358337
8.314696311950684 -5.555702209472656 15 0.8255199088260979 -0.5322527817291286 0.1876801973393982
8.819212913513184 -4.713967323303223 15 0.8815075882380343 -0.45277715382972 0.13392991020911646
9.238795280456543 -3.8268344402313232 15 0.9265349416981116 -0.3661274278223908 0.08650842969697774
9.569403648376465 -2.9028468132019043 15 0.960459634080537 -0.27426155959533455 0.047936293455120974
9.807852745056152 -1.9509031772613525 15 0.9836491991814387 -0.17896896690619354 0.020108750191009238
9.951847076416016 -0.9801713824272156 15 0.9966471043056669 -0.08170876527252509 0.0042693274375152435
0 10 -15 0.013630852594036472 0.83238384417766 -0.5540318906070125
0.9801713824272156 9.951847076416016 -15 0.09529341483752529 0.828259861535472 -0.5521818240922493
1.9509031772613525 9.807852745056152 -15 0.17730036398545632 0.8208683142680708 -0.5428994304300939
2.9028468132019043 9.569403648376465 -15 0.2601619602702967 0.8096699533683307 -0.5260706426335173
3.8268344402313232 9.238795280456543 -15 0.34411237574287457 0.7937457180079096 -0.5015519993028666
4.713967323303223 8.819212913513184 -15 0.4289623425523584 0.7718604074977908 -0.4692790427979261
10 0 -15 0.9998653731781016 -0.016373478204856958 -0.0010699209739087575
9.951847076416016 0.9801713824272156 -15 0.9965998039617271 0.08170488563062207 -0.010636841990657247
9.807852745056152 1.9509031772613525 -15 0.9833256176584052 0.17891009461864646 -0.03258692529624039
9.569403648376465 2.9028468132019043 -15 0.9594696126255184 0.27397885810461475 -0.06598217759311334
9.238795280456543 3.8268344402313232 -15 0.924453930991226 0.36530510255984266 -0.109257089100031
8.819212913513184 4.713967323303223 -15 0.8780340380774736 0.45099296284694984 -0.16019230768016077
7.071067810058594 7.071067810058594 -15 0.6783295280835764 0.6564712531241668 -0.3300220373725046
5.555702209472656 8.314696311950684 -15 0.5139642300184137 0.7425858295127884 -0.42942642683978227
6.343932628631592 7.730104446411133 -15 0.5977399244156885 0.7045025105634224 -0.382600568961106
8.314696311950684 5.555702209472656 -15 0.8206125544286048 0.5290887385764653 -0.21600958827266142
7.730104446411133 6.343932628631592 -15 0.7534003918191251 0.5979268601977775 -0.27362624044637224
0 10 15 -0.013630852594036472 0.83238384417766 0.5540318906070125
0.9801713824272156 9.951847076416016 15 0.06812315621451612 0.8309359182809515 0.5521817955148147
1.9509031772613525 9.807852745056152 15 0.15032812609642837 0.8262334277267154 0.5428994173981944
2.9028468132019043 9.569403648376465 15 0.23351170187685671 0.8177542113200641 0.5260706558580074
3.8268344402313232 9.238795280456543 15 0.317938838255027 0.8045871950656599 0.5015519321719513
4.713967323303223 8.819212913513184 15 0.40345967518889886 0.7854918378355853 0.46927908880552394
10 0 15 0.9998653731781016 0.016373478204856958 0.0010699209739087575
9.951847076416016 0.9801713824272156 15 0.9933902433770225 0.11429209046410245 0.010636842608850764
9.807852745056152 1.9509031772613525 15 0.9769404435957131 0.21101057325190706 0.03258692441628918
9.569403648376465 2.9028468132019043 15 0.9499843549025019 0.3052475696594498 0.06598216923894529
9.238795280456543 3.8268344402313232 15 0.9119973378247889 0.3953779722598835 0.10925710435555509
8.819212913513184 4.713967323303223 15 0.8627965805855898 0.4795002505648055 0.16019229144407154
7.071067810058594 7.071067810058594 15 0.6564712531241668 0.6783295280835764 0.3300220373725046
5.555702209472656 8.314696311950684 15 0.4893745398786556 0.7590161432952278 0.429426424356714
6.343932628631592 7.730104446411133 15 0.574352445232662 0.7236961151709764 0.3826005770273991
8.314696311950684 5.555702209472656 15 0.8028488709433597 0.5556739537016042 0.21600960071857944
7.730104446411133 6.343932628631592 15 0.733418935940558 0.6222743344839836 0.273626236034367
3 15 0 4
3 16 1 0
3 17 2 3
3 18 3 10
3 19 4 2
3 35 5 6
3 33 7 8
3 32 8 9
3 34 6 7
3 36 1 5
3 37 0 1
3 40 3 2
3 38 4 0
3 39 2 4
3 21 6 5
3 22 7 6
3 20 5 1
3 23 8 7
3 24 9 8
3 46 30 9
3 25 10 11
3 26 11 12
3 27 12 13
3 28 13 14
3 29 14 62
3 41 10 3
3 42 11 10
3 43 12 11
3 44 13 12
3 45 14 13
3 94 62 14
3 16 20 1
3 15 16 0
3 17 19 2
3 18 17 3
3 19 15 4
3 20 21 5
3 22 23 7
3 21 22 6
3 23 24 8
3 24 46 9
3 51 21 20
3 49 23 22
3 48 24 23
3 50 22 21
3 52 20 16
3 53 16 15
3 56 17 18
3 54 15 19
3 55 19 17
3 26 25 11
3 25 18 10
3 27 26 12
3 28 27 13
3 29 28 14
3 78 29 62
3 57 18 25
3 58 25 26
3 59 26 27
3 60 27 28
3 61 28 29
3 111 29 78
3 31 9 30
3 32 9 31
3 33 8 32
3 34 7 33
3 35 6 34
3 36 5 35
3 37 1 36
3 38 0 37
3 39 4 38
3 40 2 39
3 41 3 40
3 47 31 30
3 48 32 31
3 49 33 32
3 50 34 33
3 51 35 34
3 52 36 35
3 53 37 36
3 54 38 37
3 55 39 38
3 56 40 39
3 42 10 41
3 43 11 42
3 44 12 43
3 45 13 44
3 94 14 45
3 57 41 40
3 58 42 41
3 59 43 42
3 60 44 43
3 61 45 44
3 111 94 45
3 46 47 30
3 47 48 31
3 48 49 32
3 49 50 33
3 50 51 34
3 51 52 35
3 47 46 24
3 48 47 24
3 49 48 23
3 50 49 22
3 51 50 21
3 52 51 20
3 53 52 16
3 54 53 15
3 55 54 19
3 56 55 17
3 57 56 18
3 52 53 36
3 53 54 37
3 54 55 38
3 55 56 39
3 56 57 40
3 58 57 25
3 59 58 26
3 60 59 27
3 61 60 28
3 111 61 29
3 57 58 41
3 58 59 42
3 59 60 43
3 60 61 44
3 61 111 45
3 78 62 63
3 79 63 64
3 80 64 65
3 81 65 66
3 82 66 67
3 83 67 68
3 95 63 62
3 96 64 63
3 97 65 64
3 98 66 65
3 99 67 66
3 84 68 69
3 85 69 70
3 86 70 71
3 87 71 72
3 88 72 73
3 107 68 67
3 108 69 68
3 106 70 69
3 110 71 70
3 109 72 71
3 105 73 72
3 104 74 73
3 103 75 74
3 102 76 75
3 101 77 76
3 89 73 74
3 90 74 75
3 91 75 76
3 92 76 77
3 93 77 100
3 79 78 63
3 80 79 64
3 81 80 65
3 82 81 66
3 83 82 67
3 112 78 79
3 113 79 80
3 114 80 81
3 115 81 82
3 116 82 83
3 84 83 68
3 85 84 69
3 86 85 70
3 87 86 71
3 88 87 72
3 89 88 73
3 90 89 74
3 91 90 75
3 92 91 76
3 93 92 77
3 117 93 100
3 124 83 84
3 125 84 85
3 123 85 86
3 127 86 87
3 126 87 88
3 122 88 89
3 121 89 90
3 120 90 91
3 119 91 92
3 118 92 93
3 95 62 94
3 96 63 95
3 97 64 96
3 98 65 97
3 99 66 98
3 107 67 99
3 112 95 94
3 113 96 95
3 114 97 96
3 115 98 97
3 116 99 98
3 106 69 108
3 110 70 106
3 108 68 107
3 109 71 110
3 105 72 109
3 103 74 104
3 100 77 101
3 101 76 102
3 102 75 103
3 104 73 105
3 117 100 101
3 118 101 102
3 119 102 103
3 122 105 109
3 120 103 104
3 121 104 105
3 123 106 108
3 124 107 99
3 125 108 107
3 126 109 110
3 127 110 106
3 112 111 78
3 113 112 79
3 114 113 80
3 115 114 81
3 116 115 82
3 124 116 83
3 111 112 94
3 112 113 95
3 113 114 96
3 114 115 97
3 116 124 99
3 115 116 98
3 118 117 101
3 119 118 102
3 121 120 104
3 120 119 103
3 122 121 105
3 123 125 85
3 127 123 86
3 125 124 84
3 126 127 87
3 122 126 88
3 120 121 90
3 117 118 93
3 118 119 92
3 119 120 91
3 121 122 89
3 123 127 106
3 124 125 107
3 125 123 108
3 127 126 110
3 126 122 109

